<?xml version="1.0" encoding="UTF-8" standalone="no"?>
<!DOCTYPE svg PUBLIC "-//W3C//DTD SVG 1.1//EN"
 "http://www.w3.org/Graphics/SVG/1.1/DTD/svg11.dtd">
<!-- Generated by graphviz version 12.2.1 (20241206.2353)
 -->
<!-- Title: top Pages: 1 -->
<svg width="679pt" height="137pt"
 viewBox="0.00 0.00 679.25 136.50" xmlns="http://www.w3.org/2000/svg" xmlns:xlink="http://www.w3.org/1999/xlink">
<g id="graph0" class="graph" transform="scale(1 1) rotate(0) translate(4 132.5)">
<title>top</title>
<polygon fill="white" stroke="none" points="-4,4 -4,-132.5 675.25,-132.5 675.25,4 -4,4"/>
<text text-anchor="middle" x="335.62" y="-7.2" font-family="Times,serif" font-size="14.00">top</text>
<!-- n1 -->
<g id="node1" class="node">
<title>n1</title>
<polygon fill="none" stroke="black" points="107.84,-95.04 107.84,-109.96 76.26,-120.5 31.59,-120.5 0,-109.96 0,-95.04 31.59,-84.5 76.26,-84.5 107.84,-95.04"/>
<text text-anchor="middle" x="53.92" y="-97.45" font-family="Times,serif" font-size="14.00">input_data</text>
</g>
<!-- c6 -->
<g id="node3" class="node">
<title>c6</title>
<polygon fill="none" stroke="black" points="277.01,-79 277.01,-128 370.76,-128 370.76,-79 277.01,-79"/>
<text text-anchor="middle" x="289.89" y="-110.7" font-family="Times,serif" font-size="14.00">A</text>
<polyline fill="none" stroke="black" points="277.01,-103.5 302.76,-103.5"/>
<text text-anchor="middle" x="289.89" y="-86.2" font-family="Times,serif" font-size="14.00">B</text>
<polyline fill="none" stroke="black" points="302.76,-79 302.76,-128"/>
<text text-anchor="middle" x="323.89" y="-106.7" font-family="Times,serif" font-size="14.00">$26</text>
<text text-anchor="middle" x="323.89" y="-90.2" font-family="Times,serif" font-size="14.00">$add</text>
<polyline fill="none" stroke="black" points="345.01,-79 345.01,-128"/>
<text text-anchor="middle" x="357.89" y="-98.7" font-family="Times,serif" font-size="14.00">Y</text>
</g>
<!-- n1&#45;&gt;c6 -->
<g id="edge3" class="edge">
<title>n1:e&#45;&gt;c6:w</title>
<path fill="none" stroke="black" stroke-width="3" d="M107.84,-102.5C123.99,-102.5 127.77,-105.88 143.84,-107.5 198.4,-112.98 214.93,-115.41 264.53,-115.72"/>
<polygon fill="black" stroke="black" stroke-width="3" points="261.46,-119.21 271.47,-115.74 261.48,-112.21 261.46,-119.21"/>
</g>
<!-- x0 -->
<g id="node4" class="node">
<title>x0</title>
<path fill="none" stroke="black" d="M155.84,-61.5C155.84,-61.5 194.34,-61.5 194.34,-61.5 200.34,-61.5 206.34,-67.5 206.34,-73.5 206.34,-73.5 206.34,-85.5 206.34,-85.5 206.34,-91.5 200.34,-97.5 194.34,-97.5 194.34,-97.5 155.84,-97.5 155.84,-97.5 149.84,-97.5 143.84,-91.5 143.84,-85.5 143.84,-85.5 143.84,-73.5 143.84,-73.5 143.84,-67.5 149.84,-61.5 155.84,-61.5"/>
<text text-anchor="middle" x="175.09" y="-74.7" font-family="Times,serif" font-size="14.00">3:0 &#45; 3:0</text>
</g>
<!-- n1&#45;&gt;x0 -->
<g id="edge4" class="edge">
<title>n1:e&#45;&gt;x0:w</title>
<path fill="none" stroke="black" stroke-width="3" d="M107.84,-102.5C122.04,-102.5 124.54,-89.7 132.89,-83.3"/>
<polygon fill="black" stroke="black" stroke-width="3" points="131.09,-87.57 139.52,-81.15 128.93,-80.91 131.09,-87.57"/>
</g>
<!-- n2 -->
<g id="node2" class="node">
<title>n2</title>
<polygon fill="none" stroke="black" points="671.25,-65.04 671.25,-79.96 636.74,-90.5 587.94,-90.5 553.44,-79.96 553.44,-65.04 587.94,-54.5 636.74,-54.5 671.25,-65.04"/>
<text text-anchor="middle" x="612.34" y="-67.45" font-family="Times,serif" font-size="14.00">output_data</text>
</g>
<!-- x1 -->
<g id="node5" class="node">
<title>x1</title>
<path fill="none" stroke="black" d="M460.19,-83.5C460.19,-83.5 498.69,-83.5 498.69,-83.5 504.69,-83.5 510.69,-89.5 510.69,-95.5 510.69,-95.5 510.69,-107.5 510.69,-107.5 510.69,-113.5 504.69,-119.5 498.69,-119.5 498.69,-119.5 460.19,-119.5 460.19,-119.5 454.19,-119.5 448.19,-113.5 448.19,-107.5 448.19,-107.5 448.19,-95.5 448.19,-95.5 448.19,-89.5 454.19,-83.5 460.19,-83.5"/>
<text text-anchor="middle" x="479.44" y="-96.7" font-family="Times,serif" font-size="14.00">5:0 &#45; 5:0</text>
</g>
<!-- c6&#45;&gt;x1 -->
<g id="edge2" class="edge">
<title>c6:e&#45;&gt;x1:w</title>
<path fill="none" stroke="black" stroke-width="3" d="M384.56,-103.63C404.28,-103.24 414.65,-102.01 434.36,-101.62"/>
<polygon fill="none" stroke="black" stroke-width="3" points="386.47,-103.61 380.51,-107.67 374.47,-103.72 380.43,-99.67 386.47,-103.61"/>
<polygon fill="none" stroke="black" stroke-width="3" points="432.48,-101.64 438.45,-97.58 444.48,-101.53 438.52,-105.58 432.48,-101.64"/>
</g>
<!-- x0&#45;&gt;c6 -->
<g id="edge1" class="edge">
<title>x0:e&#45;&gt;c6:w</title>
<path fill="none" stroke="black" stroke-width="3" d="M219.16,-80.24C236.59,-82.35 245.77,-88.41 263.2,-90.52"/>
<polygon fill="none" stroke="black" stroke-width="3" points="221.02,-80.34 214.8,-83.99 209.04,-79.65 215.26,-76 221.02,-80.34"/>
<polygon fill="none" stroke="black" stroke-width="3" points="261.33,-90.41 267.55,-86.76 273.31,-91.1 267.1,-94.75 261.33,-90.41"/>
</g>
<!-- x1&#45;&gt;n2 -->
<g id="edge5" class="edge">
<title>x1:e&#45;&gt;n2:w</title>
<path fill="none" stroke="black" stroke-width="3" d="M511.69,-101.75C529.74,-101.75 531.15,-83.18 542.44,-75.63"/>
<polygon fill="black" stroke="black" stroke-width="3" points="540.41,-79.85 549.07,-73.74 538.49,-73.11 540.41,-79.85"/>
</g>
<!-- v2 -->
<g id="node6" class="node">
<title>v2</title>
<ellipse fill="none" stroke="black" cx="323.89" cy="-42.5" rx="81.55" ry="18"/>
<text text-anchor="middle" x="323.89" y="-37.45" font-family="Times,serif" font-size="14.00">13&#39;0000000000000</text>
</g>
<!-- x3 -->
<g id="node7" class="node">
<title>x3</title>
<path fill="none" stroke="black" d="M453.44,-27.5C453.44,-27.5 505.44,-27.5 505.44,-27.5 511.44,-27.5 517.44,-33.5 517.44,-39.5 517.44,-39.5 517.44,-51.5 517.44,-51.5 517.44,-57.5 511.44,-63.5 505.44,-63.5 505.44,-63.5 453.44,-63.5 453.44,-63.5 447.44,-63.5 441.44,-57.5 441.44,-51.5 441.44,-51.5 441.44,-39.5 441.44,-39.5 441.44,-33.5 447.44,-27.5 453.44,-27.5"/>
<text text-anchor="middle" x="479.44" y="-40.7" font-family="Times,serif" font-size="14.00">12:0 &#45; 18:6</text>
</g>
<!-- v2&#45;&gt;x3 -->
<g id="edge7" class="edge">
<title>v2:e&#45;&gt;x3:w</title>
<path fill="none" stroke="black" stroke-width="3" d="M405.44,-42.5C416.85,-42.5 422.12,-44.02 429.98,-44.89"/>
<polygon fill="black" stroke="black" stroke-width="3" points="426.73,-48.23 436.9,-45.26 427.1,-41.24 426.73,-48.23"/>
</g>
<!-- x3&#45;&gt;n2 -->
<g id="edge6" class="edge">
<title>x3:e&#45;&gt;n2:w</title>
<path fill="none" stroke="black" stroke-width="3" d="M517.44,-45.75C532.7,-45.75 534.01,-61.43 542.73,-68.78"/>
<polygon fill="black" stroke="black" stroke-width="3" points="538.55,-71.03 549.15,-71.01 540.85,-64.42 538.55,-71.03"/>
</g>
</g>
</svg>
