<?xml version="1.0" encoding="UTF-8" standalone="no"?>
<!DOCTYPE svg PUBLIC "-//W3C//DTD SVG 1.1//EN"
 "http://www.w3.org/Graphics/SVG/1.1/DTD/svg11.dtd">
<!-- Generated by graphviz version 12.2.1 (20241206.2353)
 -->
<!-- Title: top Pages: 1 -->
<svg width="3843pt" height="805pt"
 viewBox="0.00 0.00 3843.27 804.67" xmlns="http://www.w3.org/2000/svg" xmlns:xlink="http://www.w3.org/1999/xlink">
<g id="graph0" class="graph" transform="scale(1 1) rotate(0) translate(4 800.67)">
<title>top</title>
<polygon fill="white" stroke="none" points="-4,4 -4,-800.67 3839.27,-800.67 3839.27,4 -4,4"/>
<text text-anchor="middle" x="1917.63" y="-7.2" font-family="Times,serif" font-size="14.00">top</text>
<!-- n13 -->
<g id="node1" class="node">
<title>n13</title>
<polygon fill="none" stroke="black" points="107.84,-113.21 107.84,-128.13 76.26,-138.67 31.59,-138.67 0,-128.13 0,-113.21 31.59,-102.67 76.26,-102.67 107.84,-113.21"/>
<text text-anchor="middle" x="53.92" y="-115.62" font-family="Times,serif" font-size="14.00">input_data</text>
</g>
<!-- c25 -->
<g id="node12" class="node">
<title>c25</title>
<polygon fill="none" stroke="black" points="143.84,-129.17 143.84,-178.17 237.59,-178.17 237.59,-129.17 143.84,-129.17"/>
<text text-anchor="middle" x="156.72" y="-160.87" font-family="Times,serif" font-size="14.00">A</text>
<polyline fill="none" stroke="black" points="143.84,-153.67 169.59,-153.67"/>
<text text-anchor="middle" x="156.72" y="-136.37" font-family="Times,serif" font-size="14.00">B</text>
<polyline fill="none" stroke="black" points="169.59,-129.17 169.59,-178.17"/>
<text text-anchor="middle" x="190.72" y="-156.87" font-family="Times,serif" font-size="14.00">$62</text>
<text text-anchor="middle" x="190.72" y="-140.37" font-family="Times,serif" font-size="14.00">$and</text>
<polyline fill="none" stroke="black" points="211.84,-129.17 211.84,-178.17"/>
<text text-anchor="middle" x="224.72" y="-148.87" font-family="Times,serif" font-size="14.00">Y</text>
</g>
<!-- n13&#45;&gt;c25 -->
<g id="edge25" class="edge">
<title>n13:e&#45;&gt;c25:w</title>
<path fill="none" stroke="black" stroke-width="3" d="M107.84,-120.67C128.72,-120.67 122.47,-150.54 133.18,-161.74"/>
<polygon fill="black" stroke="black" stroke-width="3" points="129.03,-163.88 139.61,-164.26 131.58,-157.36 129.03,-163.88"/>
</g>
<!-- n13&#45;&gt;c25 -->
<g id="edge26" class="edge">
<title>n13:e&#45;&gt;c25:w</title>
<path fill="none" stroke="black" stroke-width="3" d="M107.84,-120.67C121.69,-120.67 124.63,-132.34 133.02,-138.18"/>
<polygon fill="black" stroke="black" stroke-width="3" points="128.91,-140.6 139.49,-140.12 130.92,-133.89 128.91,-140.6"/>
</g>
<!-- c26 -->
<g id="node14" class="node">
<title>c26</title>
<polygon fill="none" stroke="black" points="1403.19,-63.17 1403.19,-112.17 1495.44,-112.17 1495.44,-63.17 1403.19,-63.17"/>
<text text-anchor="middle" x="1416.07" y="-94.87" font-family="Times,serif" font-size="14.00">A</text>
<polyline fill="none" stroke="black" points="1403.19,-87.67 1428.94,-87.67"/>
<text text-anchor="middle" x="1416.07" y="-70.37" font-family="Times,serif" font-size="14.00">B</text>
<polyline fill="none" stroke="black" points="1428.94,-63.17 1428.94,-112.17"/>
<text text-anchor="middle" x="1449.32" y="-90.87" font-family="Times,serif" font-size="14.00">$66</text>
<text text-anchor="middle" x="1449.32" y="-74.37" font-family="Times,serif" font-size="14.00">$xor</text>
<polyline fill="none" stroke="black" points="1469.69,-63.17 1469.69,-112.17"/>
<text text-anchor="middle" x="1482.57" y="-82.87" font-family="Times,serif" font-size="14.00">Y</text>
</g>
<!-- n13&#45;&gt;c26 -->
<g id="edge27" class="edge">
<title>n13:e&#45;&gt;c26:w</title>
<path fill="none" stroke="black" stroke-width="3" d="M107.84,-120.67C125.93,-120.67 126.92,-108.08 143.84,-101.67 212.28,-75.72 230.65,-62.67 303.84,-62.67 303.84,-62.67 303.84,-62.67 1190.82,-62.67 1281.09,-62.67 1306.14,-74.37 1390.94,-75.35"/>
<polygon fill="black" stroke="black" stroke-width="3" points="1387.88,-78.84 1397.9,-75.39 1387.92,-71.84 1387.88,-78.84"/>
</g>
<!-- c27 -->
<g id="node16" class="node">
<title>c27</title>
<polygon fill="none" stroke="black" points="1532.19,-51.17 1532.19,-100.17 1624.44,-100.17 1624.44,-51.17 1532.19,-51.17"/>
<text text-anchor="middle" x="1545.07" y="-82.87" font-family="Times,serif" font-size="14.00">A</text>
<polyline fill="none" stroke="black" points="1532.19,-75.67 1557.94,-75.67"/>
<text text-anchor="middle" x="1545.07" y="-58.37" font-family="Times,serif" font-size="14.00">B</text>
<polyline fill="none" stroke="black" points="1557.94,-51.17 1557.94,-100.17"/>
<text text-anchor="middle" x="1578.32" y="-78.87" font-family="Times,serif" font-size="14.00">$69</text>
<text text-anchor="middle" x="1578.32" y="-62.37" font-family="Times,serif" font-size="14.00">$xor</text>
<polyline fill="none" stroke="black" points="1598.69,-51.17 1598.69,-100.17"/>
<text text-anchor="middle" x="1611.57" y="-70.87" font-family="Times,serif" font-size="14.00">Y</text>
</g>
<!-- n13&#45;&gt;c27 -->
<g id="edge28" class="edge">
<title>n13:e&#45;&gt;c27:w</title>
<path fill="none" stroke="black" stroke-width="3" d="M107.84,-120.67C137.43,-120.67 119.8,-81.92 143.84,-64.67 203.4,-21.95 230.54,-24.67 303.84,-24.67 303.84,-24.67 303.84,-24.67 1320.57,-24.67 1399.68,-24.67 1418.89,-36.86 1496.19,-53.67 1507.83,-56.2 1512.77,-60.13 1520.79,-62.14"/>
<polygon fill="black" stroke="black" stroke-width="3" points="1517.35,-65.28 1527.68,-62.91 1518.13,-58.32 1517.35,-65.28"/>
</g>
<!-- c28 -->
<g id="node18" class="node">
<title>c28</title>
<polygon fill="none" stroke="black" points="1660.44,-468.17 1660.44,-517.17 1754.19,-517.17 1754.19,-468.17 1660.44,-468.17"/>
<text text-anchor="middle" x="1673.32" y="-499.87" font-family="Times,serif" font-size="14.00">A</text>
<polyline fill="none" stroke="black" points="1660.44,-492.67 1686.19,-492.67"/>
<text text-anchor="middle" x="1673.32" y="-475.37" font-family="Times,serif" font-size="14.00">B</text>
<polyline fill="none" stroke="black" points="1686.19,-468.17 1686.19,-517.17"/>
<text text-anchor="middle" x="1707.32" y="-495.87" font-family="Times,serif" font-size="14.00">$72</text>
<text text-anchor="middle" x="1707.32" y="-479.37" font-family="Times,serif" font-size="14.00">$and</text>
<polyline fill="none" stroke="black" points="1728.44,-468.17 1728.44,-517.17"/>
<text text-anchor="middle" x="1741.32" y="-487.87" font-family="Times,serif" font-size="14.00">Y</text>
</g>
<!-- n13&#45;&gt;c28 -->
<g id="edge29" class="edge">
<title>n13:e&#45;&gt;c28:w</title>
<path fill="none" stroke="black" stroke-width="3" d="M107.84,-120.67C110.28,-120.67 301.4,-796.67 303.84,-796.67 303.84,-796.67 303.84,-796.67 1320.57,-796.67 1499.47,-796.67 1505.22,-666.06 1624.44,-532.67 1640.15,-515.09 1635.05,-490.39 1649.42,-482.76"/>
<polygon fill="black" stroke="black" stroke-width="3" points="1646.94,-486.86 1656,-481.36 1645.49,-480.01 1646.94,-486.86"/>
</g>
<!-- c33 -->
<g id="node31" class="node">
<title>c33</title>
<polygon fill="none" stroke="black" points="510.19,-104.17 510.19,-153.17 606.19,-153.17 606.19,-104.17 510.19,-104.17"/>
<text text-anchor="middle" x="523.07" y="-135.87" font-family="Times,serif" font-size="14.00">A</text>
<polyline fill="none" stroke="black" points="510.19,-128.67 535.94,-128.67"/>
<text text-anchor="middle" x="523.07" y="-111.37" font-family="Times,serif" font-size="14.00">B</text>
<polyline fill="none" stroke="black" points="535.94,-104.17 535.94,-153.17"/>
<text text-anchor="middle" x="558.19" y="-131.87" font-family="Times,serif" font-size="14.00">$4</text>
<text text-anchor="middle" x="558.19" y="-115.37" font-family="Times,serif" font-size="14.00">$mul</text>
<polyline fill="none" stroke="black" points="580.44,-104.17 580.44,-153.17"/>
<text text-anchor="middle" x="593.32" y="-123.87" font-family="Times,serif" font-size="14.00">Y</text>
</g>
<!-- n13&#45;&gt;c33 -->
<g id="edge30" class="edge">
<title>n13:e&#45;&gt;c33:w</title>
<path fill="none" stroke="black" stroke-width="3" d="M107.84,-120.67C195.4,-120.67 216.28,-100.67 303.84,-100.67 303.84,-100.67 303.84,-100.67 374.89,-100.67 431.41,-100.67 447.56,-114.4 498.72,-116.22"/>
<polygon fill="black" stroke="black" stroke-width="3" points="495.59,-119.67 505.65,-116.34 495.71,-112.67 495.59,-119.67"/>
</g>
<!-- n14 -->
<g id="node2" class="node">
<title>n14</title>
<polygon fill="none" stroke="black" points="3835.27,-355.21 3835.27,-370.13 3800.76,-380.67 3751.96,-380.67 3717.45,-370.13 3717.45,-355.21 3751.96,-344.67 3800.76,-344.67 3835.27,-355.21"/>
<text text-anchor="middle" x="3776.36" y="-357.62" font-family="Times,serif" font-size="14.00">output_data</text>
</g>
<!-- n15 -->
<g id="node3" class="node">
<title>n15</title>
<polygon fill="none" stroke="black" points="795.94,-450.67 740.69,-432.67 795.94,-414.67 851.19,-432.67 795.94,-450.67"/>
<text text-anchor="middle" x="795.94" y="-427.62" font-family="Times,serif" font-size="14.00">temp_0</text>
</g>
<!-- c21 -->
<g id="node6" class="node">
<title>c21</title>
<polygon fill="none" stroke="black" points="1402.44,-480.17 1402.44,-529.17 1496.19,-529.17 1496.19,-480.17 1402.44,-480.17"/>
<text text-anchor="middle" x="1415.32" y="-511.87" font-family="Times,serif" font-size="14.00">A</text>
<polyline fill="none" stroke="black" points="1402.44,-504.67 1428.19,-504.67"/>
<text text-anchor="middle" x="1415.32" y="-487.37" font-family="Times,serif" font-size="14.00">B</text>
<polyline fill="none" stroke="black" points="1428.19,-480.17 1428.19,-529.17"/>
<text text-anchor="middle" x="1449.32" y="-507.87" font-family="Times,serif" font-size="14.00">$11</text>
<text text-anchor="middle" x="1449.32" y="-491.37" font-family="Times,serif" font-size="14.00">$add</text>
<polyline fill="none" stroke="black" points="1470.44,-480.17 1470.44,-529.17"/>
<text text-anchor="middle" x="1483.32" y="-499.87" font-family="Times,serif" font-size="14.00">Y</text>
</g>
<!-- n15&#45;&gt;c21 -->
<g id="edge35" class="edge">
<title>n15:e&#45;&gt;c21:w</title>
<path fill="none" stroke="black" stroke-width="3" d="M851.19,-432.67C868.36,-432.67 870.58,-442.35 887.19,-446.67 962.16,-466.17 982.36,-470.67 1059.82,-470.67 1059.82,-470.67 1059.82,-470.67 1190.82,-470.67 1212.05,-470.67 1346.87,-488.23 1391.18,-491.79"/>
<polygon fill="black" stroke="black" stroke-width="3" points="1387.73,-495.11 1397.91,-492.17 1388.12,-488.12 1387.73,-495.11"/>
</g>
<!-- c22 -->
<g id="node7" class="node">
<title>c22</title>
<polygon fill="none" stroke="black" points="1142.94,-537.17 1142.94,-586.17 1236.69,-586.17 1236.69,-537.17 1142.94,-537.17"/>
<text text-anchor="middle" x="1155.82" y="-568.87" font-family="Times,serif" font-size="14.00">A</text>
<polyline fill="none" stroke="black" points="1142.94,-561.67 1168.69,-561.67"/>
<text text-anchor="middle" x="1155.82" y="-544.37" font-family="Times,serif" font-size="14.00">B</text>
<polyline fill="none" stroke="black" points="1168.69,-537.17 1168.69,-586.17"/>
<text text-anchor="middle" x="1189.82" y="-564.87" font-family="Times,serif" font-size="14.00">$9</text>
<text text-anchor="middle" x="1189.82" y="-548.37" font-family="Times,serif" font-size="14.00">$add</text>
<polyline fill="none" stroke="black" points="1210.94,-537.17 1210.94,-586.17"/>
<text text-anchor="middle" x="1223.82" y="-556.87" font-family="Times,serif" font-size="14.00">Y</text>
</g>
<!-- n15&#45;&gt;c22 -->
<g id="edge36" class="edge">
<title>n15:e&#45;&gt;c22:w</title>
<path fill="none" stroke="black" stroke-width="3" d="M851.19,-432.67C894.27,-432.67 852.82,-496.69 887.19,-522.67 975.25,-589.23 1025.17,-552.17 1131.44,-549.56"/>
<polygon fill="black" stroke="black" stroke-width="3" points="1128.45,-553.1 1138.4,-549.48 1128.36,-546.1 1128.45,-553.1"/>
</g>
<!-- x0 -->
<g id="node9" class="node">
<title>x0</title>
<path fill="none" stroke="black" d="M2856.54,-356.17C2856.54,-356.17 2912.29,-356.17 2912.29,-356.17 2918.29,-356.17 2924.29,-362.17 2924.29,-368.17 2924.29,-368.17 2924.29,-393.17 2924.29,-393.17 2924.29,-399.17 2918.29,-405.17 2912.29,-405.17 2912.29,-405.17 2856.54,-405.17 2856.54,-405.17 2850.54,-405.17 2844.54,-399.17 2844.54,-393.17 2844.54,-393.17 2844.54,-368.17 2844.54,-368.17 2844.54,-362.17 2850.54,-356.17 2856.54,-356.17"/>
<text text-anchor="middle" x="2884.42" y="-387.87" font-family="Times,serif" font-size="14.00">3x 4:4 &#45; 7:5</text>
<polyline fill="none" stroke="black" points="2844.54,-380.67 2924.29,-380.67"/>
<text text-anchor="middle" x="2884.42" y="-363.37" font-family="Times,serif" font-size="14.00">4:0 &#45; 4:0</text>
</g>
<!-- n15&#45;&gt;x0 -->
<g id="edge42" class="edge">
<title>n15:e&#45;&gt;x0:w</title>
<path fill="none" stroke="black" stroke-width="3" d="M851.19,-432.67C899.2,-432.67 850.68,-614.51 887.19,-645.67 974.39,-720.1 1804.3,-655.67 1918.94,-655.67 1918.94,-655.67 1918.94,-655.67 2683.99,-655.67 2748.54,-655.67 2773.29,-421.84 2833.33,-395.35"/>
<polygon fill="black" stroke="black" stroke-width="3" points="2831.08,-399.42 2840.11,-393.88 2829.59,-392.58 2831.08,-399.42"/>
</g>
<!-- x1 -->
<g id="node10" class="node">
<title>x1</title>
<path fill="none" stroke="black" d="M2470.94,-275.17C2470.94,-275.17 2509.44,-275.17 2509.44,-275.17 2515.44,-275.17 2521.44,-281.17 2521.44,-287.17 2521.44,-287.17 2521.44,-312.17 2521.44,-312.17 2521.44,-318.17 2515.44,-324.17 2509.44,-324.17 2509.44,-324.17 2470.94,-324.17 2470.94,-324.17 2464.94,-324.17 2458.94,-318.17 2458.94,-312.17 2458.94,-312.17 2458.94,-287.17 2458.94,-287.17 2458.94,-281.17 2464.94,-275.17 2470.94,-275.17"/>
<text text-anchor="middle" x="2490.19" y="-306.87" font-family="Times,serif" font-size="14.00">4:3 &#45; 4:3</text>
<polyline fill="none" stroke="black" points="2458.94,-299.67 2521.44,-299.67"/>
<text text-anchor="middle" x="2490.19" y="-282.37" font-family="Times,serif" font-size="14.00">2:0 &#45; 2:0</text>
</g>
<!-- n15&#45;&gt;x1 -->
<g id="edge47" class="edge">
<title>n15:e&#45;&gt;x1:w</title>
<path fill="none" stroke="black" stroke-width="3" d="M851.19,-432.67C901.79,-432.67 848.29,-357.02 887.19,-324.67 946.76,-275.15 982.36,-300.67 1059.82,-300.67 1059.82,-300.67 1059.82,-300.67 2246.19,-300.67 2337,-300.67 2362.22,-311.02 2447.64,-311.86"/>
<polygon fill="black" stroke="black" stroke-width="3" points="2444.39,-315.35 2454.4,-311.9 2444.42,-308.35 2444.39,-315.35"/>
</g>
<!-- c24 -->
<g id="node11" class="node">
<title>c24</title>
<polygon fill="none" stroke="black" points="1272.69,-499.17 1272.69,-548.17 1366.44,-548.17 1366.44,-499.17 1272.69,-499.17"/>
<text text-anchor="middle" x="1285.57" y="-530.87" font-family="Times,serif" font-size="14.00">A</text>
<polyline fill="none" stroke="black" points="1272.69,-523.67 1298.44,-523.67"/>
<text text-anchor="middle" x="1285.57" y="-506.37" font-family="Times,serif" font-size="14.00">B</text>
<polyline fill="none" stroke="black" points="1298.44,-499.17 1298.44,-548.17"/>
<text text-anchor="middle" x="1319.57" y="-526.87" font-family="Times,serif" font-size="14.00">$10</text>
<text text-anchor="middle" x="1319.57" y="-510.37" font-family="Times,serif" font-size="14.00">$and</text>
<polyline fill="none" stroke="black" points="1340.69,-499.17 1340.69,-548.17"/>
<text text-anchor="middle" x="1353.57" y="-518.87" font-family="Times,serif" font-size="14.00">Y</text>
</g>
<!-- n15&#45;&gt;c24 -->
<g id="edge37" class="edge">
<title>n15:e&#45;&gt;c24:w</title>
<path fill="none" stroke="black" stroke-width="3" d="M851.19,-432.67C879.3,-432.67 862.76,-470.77 887.19,-484.67 958.77,-525.39 1168.62,-512.61 1261.44,-511.49"/>
<polygon fill="black" stroke="black" stroke-width="3" points="1258.17,-515.02 1268.15,-511.45 1258.13,-508.02 1258.17,-515.02"/>
</g>
<!-- c29 -->
<g id="node21" class="node">
<title>c29</title>
<polygon fill="none" stroke="black" points="2720.79,-344.17 2720.79,-393.17 2808.54,-393.17 2808.54,-344.17 2720.79,-344.17"/>
<text text-anchor="middle" x="2733.67" y="-375.87" font-family="Times,serif" font-size="14.00">A</text>
<polyline fill="none" stroke="black" points="2720.79,-368.67 2746.54,-368.67"/>
<text text-anchor="middle" x="2733.67" y="-351.37" font-family="Times,serif" font-size="14.00">B</text>
<polyline fill="none" stroke="black" points="2746.54,-344.17 2746.54,-393.17"/>
<text text-anchor="middle" x="2764.67" y="-371.87" font-family="Times,serif" font-size="14.00">$76</text>
<text text-anchor="middle" x="2764.67" y="-355.37" font-family="Times,serif" font-size="14.00">$or</text>
<polyline fill="none" stroke="black" points="2782.79,-344.17 2782.79,-393.17"/>
<text text-anchor="middle" x="2795.67" y="-363.87" font-family="Times,serif" font-size="14.00">Y</text>
</g>
<!-- n15&#45;&gt;c29 -->
<g id="edge38" class="edge">
<title>n15:e&#45;&gt;c29:w</title>
<path fill="none" stroke="black" stroke-width="3" d="M851.19,-432.67C887.77,-432.67 857.35,-379.82 887.19,-358.67 950.2,-314 982.58,-338.67 1059.82,-338.67 1059.82,-338.67 1059.82,-338.67 1920.94,-338.67 2272.7,-338.67 2363.28,-356.04 2709.43,-356.41"/>
<polygon fill="black" stroke="black" stroke-width="3" points="2706.25,-359.91 2716.25,-356.42 2706.25,-352.91 2706.25,-359.91"/>
</g>
<!-- x10 -->
<g id="node27" class="node">
<title>x10</title>
<path fill="none" stroke="black" d="M1900.69,-414.67C1900.69,-414.67 1939.19,-414.67 1939.19,-414.67 1945.19,-414.67 1951.19,-420.67 1951.19,-426.67 1951.19,-426.67 1951.19,-438.67 1951.19,-438.67 1951.19,-444.67 1945.19,-450.67 1939.19,-450.67 1939.19,-450.67 1900.69,-450.67 1900.69,-450.67 1894.69,-450.67 1888.69,-444.67 1888.69,-438.67 1888.69,-438.67 1888.69,-426.67 1888.69,-426.67 1888.69,-420.67 1894.69,-414.67 1900.69,-414.67"/>
<text text-anchor="middle" x="1919.94" y="-427.87" font-family="Times,serif" font-size="14.00">2:0 &#45; 2:0</text>
</g>
<!-- n15&#45;&gt;x10 -->
<g id="edge43" class="edge">
<title>n15:e&#45;&gt;x10:w</title>
<path fill="none" stroke="black" stroke-width="3" d="M851.19,-432.67C943.91,-432.67 967.09,-432.67 1059.82,-432.67 1059.82,-432.67 1059.82,-432.67 1708.32,-432.67 1784.57,-432.67 1806.42,-432.9 1877.36,-432.92"/>
<polygon fill="black" stroke="black" stroke-width="3" points="1874.15,-436.42 1884.15,-432.92 1874.15,-429.42 1874.15,-436.42"/>
</g>
<!-- x12 -->
<g id="node30" class="node">
<title>x12</title>
<path fill="none" stroke="black" d="M905.07,-223.17C905.07,-223.17 960.82,-223.17 960.82,-223.17 966.82,-223.17 972.82,-229.17 972.82,-235.17 972.82,-235.17 972.82,-260.17 972.82,-260.17 972.82,-266.17 966.82,-272.17 960.82,-272.17 960.82,-272.17 905.07,-272.17 905.07,-272.17 899.07,-272.17 893.07,-266.17 893.07,-260.17 893.07,-260.17 893.07,-235.17 893.07,-235.17 893.07,-229.17 899.07,-223.17 905.07,-223.17"/>
<text text-anchor="middle" x="932.94" y="-254.87" font-family="Times,serif" font-size="14.00">3x 4:4 &#45; 7:5</text>
<polyline fill="none" stroke="black" points="893.07,-247.67 972.82,-247.67"/>
<text text-anchor="middle" x="932.94" y="-230.37" font-family="Times,serif" font-size="14.00">4:0 &#45; 4:0</text>
</g>
<!-- n15&#45;&gt;x12 -->
<g id="edge44" class="edge">
<title>n15:e&#45;&gt;x12:w</title>
<path fill="none" stroke="black" stroke-width="3" d="M851.19,-432.67C936.52,-432.67 814.99,-253.48 880.93,-236.68"/>
<polygon fill="black" stroke="black" stroke-width="3" points="878.01,-240.53 887.56,-235.93 877.23,-233.58 878.01,-240.53"/>
</g>
<!-- n15&#45;&gt;x12 -->
<g id="edge45" class="edge">
<title>n15:e&#45;&gt;x12:w</title>
<path fill="none" stroke="black" stroke-width="3" d="M851.19,-432.67C925.77,-432.67 825.37,-278.3 880.82,-261.41"/>
<polygon fill="black" stroke="black" stroke-width="3" points="878.11,-265.3 887.57,-260.52 877.19,-258.36 878.11,-265.3"/>
</g>
<!-- c34 -->
<g id="node34" class="node">
<title>c34</title>
<polygon fill="none" stroke="black" points="887.19,-575.17 887.19,-616.17 978.69,-616.17 978.69,-575.17 887.19,-575.17"/>
<text text-anchor="middle" x="900.07" y="-590.87" font-family="Times,serif" font-size="14.00">A</text>
<polyline fill="none" stroke="black" points="912.94,-575.17 912.94,-616.17"/>
<text text-anchor="middle" x="932.94" y="-598.87" font-family="Times,serif" font-size="14.00">$7</text>
<text text-anchor="middle" x="932.94" y="-582.37" font-family="Times,serif" font-size="14.00">$not</text>
<polyline fill="none" stroke="black" points="952.94,-575.17 952.94,-616.17"/>
<text text-anchor="middle" x="965.82" y="-590.87" font-family="Times,serif" font-size="14.00">Y</text>
</g>
<!-- n15&#45;&gt;c34 -->
<g id="edge39" class="edge">
<title>n15:e&#45;&gt;c34:w</title>
<path fill="none" stroke="black" stroke-width="3" d="M851.19,-432.67C921.14,-432.67 825.45,-577.35 875.98,-594.3"/>
<polygon fill="black" stroke="black" stroke-width="3" points="872.3,-597.31 882.7,-595.27 873.3,-590.38 872.3,-597.31"/>
</g>
<!-- c35 -->
<g id="node35" class="node">
<title>c35</title>
<polygon fill="none" stroke="black" points="2557.44,-696.17 2557.44,-745.17 2645.19,-745.17 2645.19,-696.17 2557.44,-696.17"/>
<text text-anchor="middle" x="2570.32" y="-727.87" font-family="Times,serif" font-size="14.00">A</text>
<polyline fill="none" stroke="black" points="2557.44,-720.67 2583.19,-720.67"/>
<text text-anchor="middle" x="2570.32" y="-703.37" font-family="Times,serif" font-size="14.00">B</text>
<polyline fill="none" stroke="black" points="2583.19,-696.17 2583.19,-745.17"/>
<text text-anchor="middle" x="2601.32" y="-723.87" font-family="Times,serif" font-size="14.00">$14</text>
<text text-anchor="middle" x="2601.32" y="-707.37" font-family="Times,serif" font-size="14.00">$or</text>
<polyline fill="none" stroke="black" points="2619.44,-696.17 2619.44,-745.17"/>
<text text-anchor="middle" x="2632.32" y="-715.87" font-family="Times,serif" font-size="14.00">Y</text>
</g>
<!-- n15&#45;&gt;c35 -->
<g id="edge40" class="edge">
<title>n15:e&#45;&gt;c35:w</title>
<path fill="none" stroke="black" stroke-width="3" d="M851.19,-432.67C917.01,-432.67 842.1,-678.72 887.19,-726.67 940.65,-783.51 981.79,-758.67 1059.82,-758.67 1059.82,-758.67 1059.82,-758.67 1320.57,-758.67 1492.84,-758.67 1534.04,-796.67 1706.32,-796.67 1706.32,-796.67 1706.32,-796.67 2368.69,-796.67 2388.45,-796.67 2505.68,-745.88 2546.38,-734.97"/>
<polygon fill="black" stroke="black" stroke-width="3" points="2543.78,-739.01 2552.98,-733.75 2542.51,-732.13 2543.78,-739.01"/>
</g>
<!-- x15 -->
<g id="node36" class="node">
<title>x15</title>
<path fill="none" stroke="black" d="M2470.94,-684.17C2470.94,-684.17 2509.44,-684.17 2509.44,-684.17 2515.44,-684.17 2521.44,-690.17 2521.44,-696.17 2521.44,-696.17 2521.44,-721.17 2521.44,-721.17 2521.44,-727.17 2515.44,-733.17 2509.44,-733.17 2509.44,-733.17 2470.94,-733.17 2470.94,-733.17 2464.94,-733.17 2458.94,-727.17 2458.94,-721.17 2458.94,-721.17 2458.94,-696.17 2458.94,-696.17 2458.94,-690.17 2464.94,-684.17 2470.94,-684.17"/>
<text text-anchor="middle" x="2490.19" y="-715.87" font-family="Times,serif" font-size="14.00">4:3 &#45; 4:3</text>
<polyline fill="none" stroke="black" points="2458.94,-708.67 2521.44,-708.67"/>
<text text-anchor="middle" x="2490.19" y="-691.37" font-family="Times,serif" font-size="14.00">2:0 &#45; 2:0</text>
</g>
<!-- n15&#45;&gt;x15 -->
<g id="edge46" class="edge">
<title>n15:e&#45;&gt;x15:w</title>
<path fill="none" stroke="black" stroke-width="3" d="M851.19,-432.67C910.4,-432.67 845.38,-654.75 887.19,-696.67 941.89,-751.51 982.36,-720.67 1059.82,-720.67 1059.82,-720.67 1059.82,-720.67 2246.19,-720.67 2336.87,-720.67 2362.33,-720.9 2447.66,-720.92"/>
<polygon fill="black" stroke="black" stroke-width="3" points="2444.4,-724.42 2454.4,-720.92 2444.4,-717.42 2444.4,-724.42"/>
</g>
<!-- c36 -->
<g id="node37" class="node">
<title>c36</title>
<polygon fill="none" stroke="black" points="1014.69,-583.17 1014.69,-632.17 1106.94,-632.17 1106.94,-583.17 1014.69,-583.17"/>
<text text-anchor="middle" x="1027.57" y="-614.87" font-family="Times,serif" font-size="14.00">A</text>
<polyline fill="none" stroke="black" points="1014.69,-607.67 1040.44,-607.67"/>
<text text-anchor="middle" x="1027.57" y="-590.37" font-family="Times,serif" font-size="14.00">B</text>
<polyline fill="none" stroke="black" points="1040.44,-583.17 1040.44,-632.17"/>
<text text-anchor="middle" x="1060.82" y="-610.87" font-family="Times,serif" font-size="14.00">$8</text>
<text text-anchor="middle" x="1060.82" y="-594.37" font-family="Times,serif" font-size="14.00">$xor</text>
<polyline fill="none" stroke="black" points="1081.19,-583.17 1081.19,-632.17"/>
<text text-anchor="middle" x="1094.07" y="-602.87" font-family="Times,serif" font-size="14.00">Y</text>
</g>
<!-- n15&#45;&gt;c36 -->
<g id="edge41" class="edge">
<title>n15:e&#45;&gt;c36:w</title>
<path fill="none" stroke="black" stroke-width="3" d="M851.19,-432.67C938.45,-432.67 820.07,-569.91 887.19,-625.67 918.47,-651.66 938.15,-628.89 978.69,-625.67 990.3,-624.75 995.45,-622.18 1003.44,-620.81"/>
<polygon fill="black" stroke="black" stroke-width="3" points="1000.47,-624.56 1010.17,-620.28 999.92,-617.58 1000.47,-624.56"/>
</g>
<!-- x20 -->
<g id="node42" class="node">
<title>x20</title>
<path fill="none" stroke="black" d="M913.69,-129.67C913.69,-129.67 952.19,-129.67 952.19,-129.67 958.19,-129.67 964.19,-135.67 964.19,-141.67 964.19,-141.67 964.19,-153.67 964.19,-153.67 964.19,-159.67 958.19,-165.67 952.19,-165.67 952.19,-165.67 913.69,-165.67 913.69,-165.67 907.69,-165.67 901.69,-159.67 901.69,-153.67 901.69,-153.67 901.69,-141.67 901.69,-141.67 901.69,-135.67 907.69,-129.67 913.69,-129.67"/>
<text text-anchor="middle" x="932.94" y="-142.87" font-family="Times,serif" font-size="14.00">4:3 &#45; 1:0</text>
</g>
<!-- n15&#45;&gt;x20 -->
<g id="edge48" class="edge">
<title>n15:e&#45;&gt;x20:w</title>
<path fill="none" stroke="black" stroke-width="3" d="M851.19,-432.67C911.28,-432.67 846.05,-183.44 889.98,-151.32"/>
<polygon fill="black" stroke="black" stroke-width="3" points="887.89,-155.65 896.36,-149.29 885.77,-148.98 887.89,-155.65"/>
</g>
<!-- x24 -->
<g id="node46" class="node">
<title>x24</title>
<path fill="none" stroke="black" d="M913.69,-367.67C913.69,-367.67 952.19,-367.67 952.19,-367.67 958.19,-367.67 964.19,-373.67 964.19,-379.67 964.19,-379.67 964.19,-391.67 964.19,-391.67 964.19,-397.67 958.19,-403.67 952.19,-403.67 952.19,-403.67 913.69,-403.67 913.69,-403.67 907.69,-403.67 901.69,-397.67 901.69,-391.67 901.69,-391.67 901.69,-379.67 901.69,-379.67 901.69,-373.67 907.69,-367.67 913.69,-367.67"/>
<text text-anchor="middle" x="932.94" y="-380.87" font-family="Times,serif" font-size="14.00">4:3 &#45; 1:0</text>
</g>
<!-- n15&#45;&gt;x24 -->
<g id="edge49" class="edge">
<title>n15:e&#45;&gt;x24:w</title>
<path fill="none" stroke="black" stroke-width="3" d="M851.19,-432.67C876.96,-432.67 872.79,-398.77 889.68,-388.7"/>
<polygon fill="black" stroke="black" stroke-width="3" points="887.45,-392.88 896.29,-387.03 885.74,-386.09 887.45,-392.88"/>
</g>
<!-- n16 -->
<g id="node4" class="node">
<title>n16</title>
<polygon fill="none" stroke="black" points="2367.69,-431.67 2312.44,-413.67 2367.69,-395.67 2422.94,-413.67 2367.69,-431.67"/>
<text text-anchor="middle" x="2367.69" y="-408.62" font-family="Times,serif" font-size="14.00">temp_1</text>
</g>
<!-- n16&#45;&gt;x1 -->
<g id="edge53" class="edge">
<title>n16:e&#45;&gt;x1:w</title>
<path fill="none" stroke="black" stroke-width="3" d="M2422.94,-413.67C2476.73,-413.67 2412.36,-306.38 2447.68,-289.61"/>
<polygon fill="black" stroke="black" stroke-width="3" points="2445.34,-293.63 2454.49,-288.29 2444,-286.76 2445.34,-293.63"/>
</g>
<!-- n16&#45;&gt;x15 -->
<g id="edge52" class="edge">
<title>n16:e&#45;&gt;x15:w</title>
<path fill="none" stroke="black" stroke-width="3" d="M2422.94,-413.67C2545.54,-413.67 2345.91,-678.49 2447.74,-695.56"/>
<polygon fill="black" stroke="black" stroke-width="3" points="2444.18,-698.79 2454.42,-696.07 2444.71,-691.81 2444.18,-698.79"/>
</g>
<!-- n17 -->
<g id="node5" class="node">
<title>n17</title>
<polygon fill="none" stroke="black" points="3269.04,-375.67 3213.79,-357.67 3269.04,-339.67 3324.29,-357.67 3269.04,-375.67"/>
<text text-anchor="middle" x="3269.04" y="-352.62" font-family="Times,serif" font-size="14.00">temp_3</text>
</g>
<!-- c30 -->
<g id="node22" class="node">
<title>c30</title>
<polygon fill="none" stroke="black" points="3418,-369.17 3418,-418.17 3511.75,-418.17 3511.75,-369.17 3418,-369.17"/>
<text text-anchor="middle" x="3430.87" y="-400.87" font-family="Times,serif" font-size="14.00">A</text>
<polyline fill="none" stroke="black" points="3418,-393.67 3443.75,-393.67"/>
<text text-anchor="middle" x="3430.87" y="-376.37" font-family="Times,serif" font-size="14.00">B</text>
<polyline fill="none" stroke="black" points="3443.75,-369.17 3443.75,-418.17"/>
<text text-anchor="middle" x="3464.87" y="-396.87" font-family="Times,serif" font-size="14.00">$79</text>
<text text-anchor="middle" x="3464.87" y="-380.37" font-family="Times,serif" font-size="14.00">$and</text>
<polyline fill="none" stroke="black" points="3486,-369.17 3486,-418.17"/>
<text text-anchor="middle" x="3498.87" y="-388.87" font-family="Times,serif" font-size="14.00">Y</text>
</g>
<!-- n17&#45;&gt;c30 -->
<g id="edge55" class="edge">
<title>n17:e&#45;&gt;c30:w</title>
<path fill="none" stroke="black" d="M3324.29,-357.67C3362.84,-357.67 3372.73,-377.18 3405.9,-380.83"/>
<polygon fill="black" stroke="black" points="3405.32,-384.31 3415.49,-381.34 3405.69,-377.32 3405.32,-384.31"/>
</g>
<!-- x5 -->
<g id="node19" class="node">
<title>x5</title>
<path fill="none" stroke="black" d="M1559.07,-486.67C1559.07,-486.67 1597.57,-486.67 1597.57,-486.67 1603.57,-486.67 1609.57,-492.67 1609.57,-498.67 1609.57,-498.67 1609.57,-510.67 1609.57,-510.67 1609.57,-516.67 1603.57,-522.67 1597.57,-522.67 1597.57,-522.67 1559.07,-522.67 1559.07,-522.67 1553.07,-522.67 1547.07,-516.67 1547.07,-510.67 1547.07,-510.67 1547.07,-498.67 1547.07,-498.67 1547.07,-492.67 1553.07,-486.67 1559.07,-486.67"/>
<text text-anchor="middle" x="1578.32" y="-499.87" font-family="Times,serif" font-size="14.00">2:0 &#45; 2:0</text>
</g>
<!-- c21&#45;&gt;x5 -->
<g id="edge19" class="edge">
<title>c21:e&#45;&gt;x5:w</title>
<path fill="none" stroke="black" stroke-width="3" d="M1496.19,-504.92C1514.03,-504.92 1521.1,-504.92 1534.73,-504.92"/>
<polygon fill="black" stroke="black" stroke-width="3" points="1531.53,-508.42 1541.53,-504.92 1531.53,-501.42 1531.53,-508.42"/>
</g>
<!-- c22&#45;&gt;c24 -->
<g id="edge56" class="edge">
<title>c22:e&#45;&gt;c24:w</title>
<path fill="none" stroke="black" stroke-width="3" d="M1236.69,-561.92C1251.8,-561.92 1253.31,-546.68 1262.04,-539.54"/>
<polygon fill="black" stroke="black" stroke-width="3" points="1260.05,-543.91 1268.39,-537.38 1257.8,-537.28 1260.05,-543.91"/>
</g>
<!-- c23 -->
<g id="node8" class="node">
<title>c23</title>
<polygon fill="none" stroke="black" points="2960.29,-320.17 2960.29,-369.17 3054.04,-369.17 3054.04,-320.17 2960.29,-320.17"/>
<text text-anchor="middle" x="2973.17" y="-351.87" font-family="Times,serif" font-size="14.00">A</text>
<polyline fill="none" stroke="black" points="2960.29,-344.67 2986.04,-344.67"/>
<text text-anchor="middle" x="2973.17" y="-327.37" font-family="Times,serif" font-size="14.00">B</text>
<polyline fill="none" stroke="black" points="2986.04,-320.17 2986.04,-369.17"/>
<text text-anchor="middle" x="3007.17" y="-347.87" font-family="Times,serif" font-size="14.00">$16</text>
<text text-anchor="middle" x="3007.17" y="-331.37" font-family="Times,serif" font-size="14.00">$add</text>
<polyline fill="none" stroke="black" points="3028.29,-320.17 3028.29,-369.17"/>
<text text-anchor="middle" x="3041.17" y="-339.87" font-family="Times,serif" font-size="14.00">Y</text>
</g>
<!-- c32 -->
<g id="node29" class="node">
<title>c32</title>
<polygon fill="none" stroke="black" points="3090.04,-308.17 3090.04,-357.17 3177.79,-357.17 3177.79,-308.17 3090.04,-308.17"/>
<text text-anchor="middle" x="3102.92" y="-339.87" font-family="Times,serif" font-size="14.00">A</text>
<polyline fill="none" stroke="black" points="3090.04,-332.67 3115.79,-332.67"/>
<text text-anchor="middle" x="3102.92" y="-315.37" font-family="Times,serif" font-size="14.00">B</text>
<polyline fill="none" stroke="black" points="3115.79,-308.17 3115.79,-357.17"/>
<text text-anchor="middle" x="3133.92" y="-335.87" font-family="Times,serif" font-size="14.00">$17</text>
<text text-anchor="middle" x="3133.92" y="-319.37" font-family="Times,serif" font-size="14.00">$le</text>
<polyline fill="none" stroke="black" points="3152.04,-308.17 3152.04,-357.17"/>
<text text-anchor="middle" x="3164.92" y="-327.87" font-family="Times,serif" font-size="14.00">Y</text>
</g>
<!-- c23&#45;&gt;c32 -->
<g id="edge57" class="edge">
<title>c23:e&#45;&gt;c32:w</title>
<path fill="none" stroke="black" stroke-width="3" d="M3054.04,-344.92C3065.42,-344.92 3070.73,-344.92 3078.6,-344.92"/>
<polygon fill="black" stroke="black" stroke-width="3" points="3075.5,-348.42 3085.5,-344.92 3075.5,-341.42 3075.5,-348.42"/>
</g>
<!-- x0&#45;&gt;c23 -->
<g id="edge1" class="edge">
<title>x0:e&#45;&gt;c23:w</title>
<path fill="none" stroke="black" stroke-width="3" d="M2936.32,-376.09C2940.91,-371.89 2943.69,-365.69 2948.28,-361.49"/>
<polygon fill="none" stroke="black" stroke-width="3" points="2938.03,-375.44 2933.85,-381.31 2926.82,-379.71 2931,-373.83 2938.03,-375.44"/>
<polygon fill="none" stroke="black" stroke-width="3" points="2946.55,-362.14 2950.74,-356.27 2957.77,-357.88 2953.58,-363.75 2946.55,-362.14"/>
</g>
<!-- x1&#45;&gt;c23 -->
<g id="edge2" class="edge">
<title>x1:e&#45;&gt;c23:w</title>
<path fill="none" stroke="black" stroke-width="3" d="M2534.24,-299.78C2595.34,-300.88 2614.97,-309.67 2681.99,-309.67 2681.99,-309.67 2681.99,-309.67 2765.67,-309.67 2848.33,-309.67 2870.96,-330.17 2947.52,-332.25"/>
<polygon fill="none" stroke="black" stroke-width="3" points="2536.15,-299.8 2530.11,-303.75 2524.15,-299.69 2530.18,-295.75 2536.15,-299.8"/>
<polygon fill="none" stroke="black" stroke-width="3" points="2945.59,-332.22 2951.64,-328.3 2957.59,-332.38 2951.54,-336.3 2945.59,-332.22"/>
</g>
<!-- c24&#45;&gt;c21 -->
<g id="edge61" class="edge">
<title>c24:e&#45;&gt;c21:w</title>
<path fill="none" stroke="black" stroke-width="3" d="M1366.44,-523.92C1378.16,-523.92 1383.21,-520.3 1391.18,-518.27"/>
<polygon fill="black" stroke="black" stroke-width="3" points="1388.42,-522.13 1397.93,-517.46 1387.59,-515.17 1388.42,-522.13"/>
</g>
<!-- x2 -->
<g id="node13" class="node">
<title>x2</title>
<path fill="none" stroke="black" d="M285.59,-135.67C285.59,-135.67 324.09,-135.67 324.09,-135.67 330.09,-135.67 336.09,-141.67 336.09,-147.67 336.09,-147.67 336.09,-159.67 336.09,-159.67 336.09,-165.67 330.09,-171.67 324.09,-171.67 324.09,-171.67 285.59,-171.67 285.59,-171.67 279.59,-171.67 273.59,-165.67 273.59,-159.67 273.59,-159.67 273.59,-147.67 273.59,-147.67 273.59,-141.67 279.59,-135.67 285.59,-135.67"/>
<text text-anchor="middle" x="304.84" y="-148.87" font-family="Times,serif" font-size="14.00">2:0 &#45; 2:0</text>
</g>
<!-- c25&#45;&gt;x2 -->
<g id="edge3" class="edge">
<title>c25:e&#45;&gt;x2:w</title>
<path fill="none" stroke="black" stroke-width="3" d="M250.31,-153.86C253.91,-153.82 257.04,-153.77 260.62,-153.74"/>
<polygon fill="none" stroke="black" stroke-width="3" points="252.29,-153.85 246.31,-157.88 240.3,-153.91 246.28,-149.88 252.29,-153.85"/>
<polygon fill="none" stroke="black" stroke-width="3" points="258.89,-153.74 264.87,-149.71 270.89,-153.68 264.91,-157.71 258.89,-153.74"/>
</g>
<!-- n4 -->
<g id="node49" class="node">
<title>n4</title>
<ellipse fill="black" stroke="black" cx="373.89" cy="-153.67" rx="1.8" ry="1.8"/>
</g>
<!-- x2&#45;&gt;n4 -->
<g id="edge59" class="edge">
<title>x2:e&#45;&gt;n4:w</title>
<path fill="none" stroke="black" stroke-width="3" d="M336.09,-153.92C347.47,-153.92 352.78,-153.79 360.64,-153.72"/>
<polygon fill="black" stroke="black" stroke-width="3" points="357.57,-157.23 367.55,-153.69 357.53,-150.23 357.57,-157.23"/>
</g>
<!-- c26&#45;&gt;c27 -->
<g id="edge65" class="edge">
<title>c26:e&#45;&gt;c27:w</title>
<path fill="none" stroke="black" stroke-width="3" d="M1496.19,-87.92C1507.57,-87.92 1512.88,-87.92 1520.75,-87.92"/>
<polygon fill="black" stroke="black" stroke-width="3" points="1517.65,-91.42 1527.65,-87.92 1517.65,-84.42 1517.65,-91.42"/>
</g>
<!-- x3 -->
<g id="node15" class="node">
<title>x3</title>
<path fill="none" stroke="black" d="M1300.32,-91.67C1300.32,-91.67 1338.82,-91.67 1338.82,-91.67 1344.82,-91.67 1350.82,-97.67 1350.82,-103.67 1350.82,-103.67 1350.82,-115.67 1350.82,-115.67 1350.82,-121.67 1344.82,-127.67 1338.82,-127.67 1338.82,-127.67 1300.32,-127.67 1300.32,-127.67 1294.32,-127.67 1288.32,-121.67 1288.32,-115.67 1288.32,-115.67 1288.32,-103.67 1288.32,-103.67 1288.32,-97.67 1294.32,-91.67 1300.32,-91.67"/>
<text text-anchor="middle" x="1319.57" y="-104.87" font-family="Times,serif" font-size="14.00">2:0 &#45; 2:0</text>
</g>
<!-- x3&#45;&gt;c26 -->
<g id="edge4" class="edge">
<title>x3:e&#45;&gt;c26:w</title>
<path fill="none" stroke="black" stroke-width="3" d="M1364.63,-108.47C1374.02,-106.6 1380.2,-103 1389.58,-101.13"/>
<polygon fill="none" stroke="black" stroke-width="3" points="1366.46,-108.3 1360.86,-112.84 1354.51,-109.42 1360.11,-104.88 1366.46,-108.3"/>
<polygon fill="none" stroke="black" stroke-width="3" points="1387.8,-101.29 1393.4,-96.75 1399.75,-100.17 1394.15,-104.71 1387.8,-101.29"/>
</g>
<!-- x4 -->
<g id="node17" class="node">
<title>x4</title>
<path fill="none" stroke="black" d="M1688.07,-122.67C1688.07,-122.67 1726.57,-122.67 1726.57,-122.67 1732.57,-122.67 1738.57,-128.67 1738.57,-134.67 1738.57,-134.67 1738.57,-146.67 1738.57,-146.67 1738.57,-152.67 1732.57,-158.67 1726.57,-158.67 1726.57,-158.67 1688.07,-158.67 1688.07,-158.67 1682.07,-158.67 1676.07,-152.67 1676.07,-146.67 1676.07,-146.67 1676.07,-134.67 1676.07,-134.67 1676.07,-128.67 1682.07,-122.67 1688.07,-122.67"/>
<text text-anchor="middle" x="1707.32" y="-135.87" font-family="Times,serif" font-size="14.00">2:0 &#45; 2:0</text>
</g>
<!-- c27&#45;&gt;x4 -->
<g id="edge5" class="edge">
<title>c27:e&#45;&gt;x4:w</title>
<path fill="none" stroke="black" stroke-width="3" d="M1636.94,-79.59C1652.64,-91.04 1646.9,-126.03 1662.84,-137.2"/>
<polygon fill="none" stroke="black" stroke-width="3" points="1638.55,-80.06 1631.67,-82.21 1627.04,-76.68 1633.92,-74.53 1638.55,-80.06"/>
<polygon fill="none" stroke="black" stroke-width="3" points="1660.92,-136.66 1667.79,-134.45 1672.47,-139.93 1665.6,-142.14 1660.92,-136.66"/>
</g>
<!-- x4&#45;&gt;n15 -->
<g id="edge34" class="edge">
<title>x4:e&#45;&gt;n15:w</title>
<path fill="none" stroke="black" stroke-width="3" d="M1739.57,-140.92C1747.69,-140.92 1744.11,-153.23 1738.57,-159.17 1650.44,-253.48 1579.4,-194.67 1450.32,-194.67 1059.82,-194.67 1059.82,-194.67 1059.82,-194.67 982.63,-194.67 942.88,-160.23 887.19,-213.67 810.32,-287.44 931.99,-381.22 851.19,-450.67 813.48,-483.08 775.44,-484.84 739.31,-450.67 737.31,-448.78 735.62,-446.06 734.59,-443.31"/>
<polygon fill="black" stroke="black" stroke-width="3" points="736.82,-447.55 736.81,-436.96 730.21,-445.24 736.82,-447.55"/>
</g>
<!-- x6 -->
<g id="node20" class="node">
<title>x6</title>
<path fill="none" stroke="black" d="M1802.19,-474.67C1802.19,-474.67 1840.69,-474.67 1840.69,-474.67 1846.69,-474.67 1852.69,-480.67 1852.69,-486.67 1852.69,-486.67 1852.69,-498.67 1852.69,-498.67 1852.69,-504.67 1846.69,-510.67 1840.69,-510.67 1840.69,-510.67 1802.19,-510.67 1802.19,-510.67 1796.19,-510.67 1790.19,-504.67 1790.19,-498.67 1790.19,-498.67 1790.19,-486.67 1790.19,-486.67 1790.19,-480.67 1796.19,-474.67 1802.19,-474.67"/>
<text text-anchor="middle" x="1821.44" y="-487.87" font-family="Times,serif" font-size="14.00">2:0 &#45; 2:0</text>
</g>
<!-- c28&#45;&gt;x6 -->
<g id="edge7" class="edge">
<title>c28:e&#45;&gt;x6:w</title>
<path fill="none" stroke="black" stroke-width="3" d="M1766.91,-492.86C1770.51,-492.82 1773.64,-492.77 1777.22,-492.74"/>
<polygon fill="none" stroke="black" stroke-width="3" points="1768.9,-492.85 1762.92,-496.88 1756.9,-492.91 1762.88,-488.88 1768.9,-492.85"/>
<polygon fill="none" stroke="black" stroke-width="3" points="1775.49,-492.74 1781.47,-488.71 1787.49,-492.68 1781.51,-496.71 1775.49,-492.74"/>
</g>
<!-- x5&#45;&gt;c28 -->
<g id="edge6" class="edge">
<title>x5:e&#45;&gt;c28:w</title>
<path fill="none" stroke="black" stroke-width="3" d="M1623.46,-504.7C1632.35,-504.75 1638.54,-504.84 1647.4,-504.89"/>
<polygon fill="none" stroke="black" stroke-width="3" points="1625.27,-504.71 1619.26,-508.69 1613.27,-504.68 1619.28,-500.69 1625.27,-504.71"/>
<polygon fill="none" stroke="black" stroke-width="3" points="1645.74,-504.88 1651.75,-500.9 1657.74,-504.91 1651.73,-508.9 1645.74,-504.88"/>
</g>
<!-- n6 -->
<g id="node50" class="node">
<title>n6</title>
<ellipse fill="black" stroke="black" cx="1919.94" cy="-492.67" rx="1.8" ry="1.8"/>
</g>
<!-- x6&#45;&gt;n6 -->
<g id="edge63" class="edge">
<title>x6:e&#45;&gt;n6:w</title>
<path fill="none" stroke="black" stroke-width="3" d="M1852.69,-492.92C1876.9,-492.92 1885.65,-492.74 1905.27,-492.69"/>
<polygon fill="black" stroke="black" stroke-width="3" points="1902.13,-496.19 1912.12,-492.68 1902.12,-489.19 1902.13,-496.19"/>
</g>
<!-- c29&#45;&gt;x0 -->
<g id="edge66" class="edge">
<title>c29:e&#45;&gt;x0:w</title>
<path fill="none" stroke="black" stroke-width="3" d="M2808.54,-368.92C2819.92,-368.92 2825.23,-368.67 2833.1,-368.52"/>
<polygon fill="black" stroke="black" stroke-width="3" points="2830.03,-372.05 2840,-368.46 2829.97,-365.05 2830.03,-372.05"/>
</g>
<!-- x8 -->
<g id="node24" class="node">
<title>x8</title>
<path fill="none" stroke="black" d="M3624.2,-373.67C3624.2,-373.67 3662.7,-373.67 3662.7,-373.67 3668.7,-373.67 3674.7,-379.67 3674.7,-385.67 3674.7,-385.67 3674.7,-397.67 3674.7,-397.67 3674.7,-403.67 3668.7,-409.67 3662.7,-409.67 3662.7,-409.67 3624.2,-409.67 3624.2,-409.67 3618.2,-409.67 3612.2,-403.67 3612.2,-397.67 3612.2,-397.67 3612.2,-385.67 3612.2,-385.67 3612.2,-379.67 3618.2,-373.67 3624.2,-373.67"/>
<text text-anchor="middle" x="3643.45" y="-386.87" font-family="Times,serif" font-size="14.00">0:0 &#45; 0:0</text>
</g>
<!-- c30&#45;&gt;x8 -->
<g id="edge9" class="edge">
<title>c30:e&#45;&gt;x8:w</title>
<path fill="none" stroke="black" d="M3525.58,-393.85C3555.25,-393.52 3568.75,-392.07 3598.45,-391.74"/>
<polygon fill="none" stroke="black" points="3525.65,-393.85 3519.67,-397.88 3513.65,-393.92 3519.63,-389.88 3525.65,-393.85"/>
<polygon fill="none" stroke="black" points="3598.3,-391.74 3604.28,-387.71 3610.3,-391.68 3604.32,-395.71 3598.3,-391.74"/>
</g>
<!-- x7 -->
<g id="node23" class="node">
<title>x7</title>
<path fill="none" stroke="black" d="M2865.17,-554.67C2865.17,-554.67 2903.67,-554.67 2903.67,-554.67 2909.67,-554.67 2915.67,-560.67 2915.67,-566.67 2915.67,-566.67 2915.67,-578.67 2915.67,-578.67 2915.67,-584.67 2909.67,-590.67 2903.67,-590.67 2903.67,-590.67 2865.17,-590.67 2865.17,-590.67 2859.17,-590.67 2853.17,-584.67 2853.17,-578.67 2853.17,-578.67 2853.17,-566.67 2853.17,-566.67 2853.17,-560.67 2859.17,-554.67 2865.17,-554.67"/>
<text text-anchor="middle" x="2884.42" y="-567.87" font-family="Times,serif" font-size="14.00">0:0 &#45; 0:0</text>
</g>
<!-- x7&#45;&gt;c30 -->
<g id="edge8" class="edge">
<title>x7:e&#45;&gt;c30:w</title>
<path fill="none" stroke="black" d="M2929.51,-572.5C3148.06,-566.65 3185.57,-411.98 3404.07,-406.09"/>
<polygon fill="none" stroke="black" points="2929.57,-572.5 2923.62,-576.58 2917.57,-572.66 2923.52,-568.58 2929.57,-572.5"/>
<polygon fill="none" stroke="black" points="3404.1,-406.09 3410.04,-402.01 3416.1,-405.93 3410.15,-410.01 3404.1,-406.09"/>
</g>
<!-- x8&#45;&gt;n14 -->
<g id="edge32" class="edge">
<title>x8:e&#45;&gt;n14:w</title>
<path fill="none" stroke="black" d="M3675.7,-391.92C3693.76,-391.92 3695.16,-373.35 3706.45,-365.8"/>
<polygon fill="black" stroke="black" points="3707.34,-369.19 3716,-363.08 3705.42,-362.46 3707.34,-369.19"/>
</g>
<!-- c31 -->
<g id="node25" class="node">
<title>c31</title>
<polygon fill="none" stroke="black" points="2085.69,-420.17 2085.69,-469.17 2177.94,-469.17 2177.94,-420.17 2085.69,-420.17"/>
<text text-anchor="middle" x="2098.57" y="-451.87" font-family="Times,serif" font-size="14.00">A</text>
<polyline fill="none" stroke="black" points="2085.69,-444.67 2111.44,-444.67"/>
<text text-anchor="middle" x="2098.57" y="-427.37" font-family="Times,serif" font-size="14.00">B</text>
<polyline fill="none" stroke="black" points="2111.44,-420.17 2111.44,-469.17"/>
<text text-anchor="middle" x="2131.82" y="-447.87" font-family="Times,serif" font-size="14.00">$83</text>
<text text-anchor="middle" x="2131.82" y="-431.37" font-family="Times,serif" font-size="14.00">$xor</text>
<polyline fill="none" stroke="black" points="2152.19,-420.17 2152.19,-469.17"/>
<text text-anchor="middle" x="2165.07" y="-439.87" font-family="Times,serif" font-size="14.00">Y</text>
</g>
<!-- x11 -->
<g id="node28" class="node">
<title>x11</title>
<path fill="none" stroke="black" d="M2225.94,-420.67C2225.94,-420.67 2264.44,-420.67 2264.44,-420.67 2270.44,-420.67 2276.44,-426.67 2276.44,-432.67 2276.44,-432.67 2276.44,-444.67 2276.44,-444.67 2276.44,-450.67 2270.44,-456.67 2264.44,-456.67 2264.44,-456.67 2225.94,-456.67 2225.94,-456.67 2219.94,-456.67 2213.94,-450.67 2213.94,-444.67 2213.94,-444.67 2213.94,-432.67 2213.94,-432.67 2213.94,-426.67 2219.94,-420.67 2225.94,-420.67"/>
<text text-anchor="middle" x="2245.19" y="-433.87" font-family="Times,serif" font-size="14.00">2:0 &#45; 2:0</text>
</g>
<!-- c31&#45;&gt;x11 -->
<g id="edge12" class="edge">
<title>c31:e&#45;&gt;x11:w</title>
<path fill="none" stroke="black" stroke-width="3" d="M2190.72,-443.34C2194.4,-442.39 2197.56,-441.18 2201.25,-440.23"/>
<polygon fill="none" stroke="black" stroke-width="3" points="2192.54,-443.12 2187.07,-447.82 2180.63,-444.59 2186.09,-439.88 2192.54,-443.12"/>
<polygon fill="none" stroke="black" stroke-width="3" points="2199.35,-440.46 2204.82,-435.76 2211.26,-439 2205.79,-443.7 2199.35,-440.46"/>
</g>
<!-- x9 -->
<g id="node26" class="node">
<title>x9</title>
<path fill="none" stroke="black" d="M1999.19,-468.67C1999.19,-468.67 2037.69,-468.67 2037.69,-468.67 2043.69,-468.67 2049.69,-474.67 2049.69,-480.67 2049.69,-480.67 2049.69,-492.67 2049.69,-492.67 2049.69,-498.67 2043.69,-504.67 2037.69,-504.67 2037.69,-504.67 1999.19,-504.67 1999.19,-504.67 1993.19,-504.67 1987.19,-498.67 1987.19,-492.67 1987.19,-492.67 1987.19,-480.67 1987.19,-480.67 1987.19,-474.67 1993.19,-468.67 1999.19,-468.67"/>
<text text-anchor="middle" x="2018.44" y="-481.87" font-family="Times,serif" font-size="14.00">2:0 &#45; 2:0</text>
</g>
<!-- x9&#45;&gt;c31 -->
<g id="edge10" class="edge">
<title>x9:e&#45;&gt;c31:w</title>
<path fill="none" stroke="black" stroke-width="3" d="M2061.66,-481.49C2066.6,-476.03 2068.82,-467.48 2073.78,-462.04"/>
<polygon fill="none" stroke="black" stroke-width="3" points="2063.18,-480.83 2059.27,-486.88 2052.17,-485.6 2056.09,-479.54 2063.18,-480.83"/>
<polygon fill="none" stroke="black" stroke-width="3" points="2072.18,-462.73 2076.12,-456.68 2083.21,-457.99 2079.28,-464.03 2072.18,-462.73"/>
</g>
<!-- x10&#45;&gt;c31 -->
<g id="edge11" class="edge">
<title>x10:e&#45;&gt;c31:w</title>
<path fill="none" stroke="black" stroke-width="3" d="M1964.11,-432.67C2009.45,-432.64 2027.47,-432.45 2072.83,-432.42"/>
<polygon fill="none" stroke="black" stroke-width="3" points="1965.9,-432.67 1959.9,-436.67 1953.9,-432.67 1959.89,-428.67 1965.9,-432.67"/>
<polygon fill="none" stroke="black" stroke-width="3" points="2070.99,-432.42 2076.99,-428.42 2082.99,-432.42 2076.99,-436.42 2070.99,-432.42"/>
</g>
<!-- x11&#45;&gt;n16 -->
<g id="edge50" class="edge">
<title>x11:e&#45;&gt;n16:w</title>
<path fill="none" stroke="black" stroke-width="3" d="M2276.44,-438.92C2291.25,-438.92 2293.07,-424.42 2301.58,-417.4"/>
<polygon fill="black" stroke="black" stroke-width="3" points="2299.82,-421.7 2308.15,-415.14 2297.55,-415.08 2299.82,-421.7"/>
</g>
<!-- c32&#45;&gt;n17 -->
<g id="edge54" class="edge">
<title>c32:e&#45;&gt;n17:w</title>
<path fill="none" stroke="black" d="M3177.79,-332.92C3192.51,-332.92 3194.44,-347.13 3202.97,-354.02"/>
<polygon fill="black" stroke="black" points="3201.76,-357.31 3212.36,-357.19 3204,-350.67 3201.76,-357.31"/>
</g>
<!-- x12&#45;&gt;c32 -->
<g id="edge13" class="edge">
<title>x12:e&#45;&gt;c32:w</title>
<path fill="none" stroke="black" stroke-width="3" d="M986.8,-247.66C1071.77,-247.58 1097.74,-246.67 1188.82,-246.67 1188.82,-246.67 1188.82,-246.67 2885.42,-246.67 2906.9,-246.67 3032.71,-304.91 3077.42,-317.88"/>
<polygon fill="none" stroke="black" stroke-width="3" points="988.52,-247.66 982.52,-251.67 976.52,-247.67 982.52,-243.67 988.52,-247.66"/>
<polygon fill="none" stroke="black" stroke-width="3" points="3075.63,-317.52 3082.3,-314.78 3087.39,-319.89 3080.72,-322.62 3075.63,-317.52"/>
</g>
<!-- x14 -->
<g id="node33" class="node">
<title>x14</title>
<path fill="none" stroke="black" d="M654.19,-104.17C654.19,-104.17 692.69,-104.17 692.69,-104.17 698.69,-104.17 704.69,-110.17 704.69,-116.17 704.69,-116.17 704.69,-141.17 704.69,-141.17 704.69,-147.17 698.69,-153.17 692.69,-153.17 692.69,-153.17 654.19,-153.17 654.19,-153.17 648.19,-153.17 642.19,-147.17 642.19,-141.17 642.19,-141.17 642.19,-116.17 642.19,-116.17 642.19,-110.17 648.19,-104.17 654.19,-104.17"/>
<text text-anchor="middle" x="673.44" y="-135.87" font-family="Times,serif" font-size="14.00">4:3 &#45; 4:3</text>
<polyline fill="none" stroke="black" points="642.19,-128.67 704.69,-128.67"/>
<text text-anchor="middle" x="673.44" y="-111.37" font-family="Times,serif" font-size="14.00">2:0 &#45; 2:0</text>
</g>
<!-- c33&#45;&gt;x14 -->
<g id="edge15" class="edge">
<title>c33:e&#45;&gt;x14:w</title>
<path fill="none" stroke="black" stroke-width="3" d="M618.91,-128.86C622.51,-128.82 625.64,-128.77 629.22,-128.74"/>
<polygon fill="none" stroke="black" stroke-width="3" points="620.89,-128.85 614.91,-132.88 608.9,-128.91 614.88,-124.88 620.89,-128.85"/>
<polygon fill="none" stroke="black" stroke-width="3" points="627.49,-128.74 633.47,-124.71 639.49,-128.68 633.51,-132.71 627.49,-128.74"/>
</g>
<!-- x13 -->
<g id="node32" class="node">
<title>x13</title>
<path fill="none" stroke="black" d="M423.69,-135.17C423.69,-135.17 462.19,-135.17 462.19,-135.17 468.19,-135.17 474.19,-141.17 474.19,-147.17 474.19,-147.17 474.19,-172.17 474.19,-172.17 474.19,-178.17 468.19,-184.17 462.19,-184.17 462.19,-184.17 423.69,-184.17 423.69,-184.17 417.69,-184.17 411.69,-178.17 411.69,-172.17 411.69,-172.17 411.69,-147.17 411.69,-147.17 411.69,-141.17 417.69,-135.17 423.69,-135.17"/>
<text text-anchor="middle" x="442.94" y="-166.87" font-family="Times,serif" font-size="14.00">0 &#45;&gt; 3:3</text>
<polyline fill="none" stroke="black" points="411.69,-159.67 474.19,-159.67"/>
<text text-anchor="middle" x="442.94" y="-142.37" font-family="Times,serif" font-size="14.00">2:0 &#45; 2:0</text>
</g>
<!-- x13&#45;&gt;c33 -->
<g id="edge14" class="edge">
<title>x13:e&#45;&gt;c33:w</title>
<path fill="none" stroke="black" stroke-width="3" d="M486.41,-155.69C490.67,-152.51 493.71,-148.07 497.97,-144.89"/>
<polygon fill="none" stroke="black" stroke-width="3" points="488.17,-155.12 483.71,-160.78 476.76,-158.83 481.23,-153.17 488.17,-155.12"/>
<polygon fill="none" stroke="black" stroke-width="3" points="496.21,-145.47 500.68,-139.81 507.62,-141.76 503.15,-147.41 496.21,-145.47"/>
</g>
<!-- x14&#45;&gt;n15 -->
<g id="edge33" class="edge">
<title>x14:e&#45;&gt;n15:w</title>
<path fill="none" stroke="black" stroke-width="3" d="M704.69,-140.92C831.26,-140.92 623.77,-414.72 729.46,-431.83"/>
<polygon fill="black" stroke="black" stroke-width="3" points="725.93,-435.08 736.16,-432.33 726.45,-428.1 725.93,-435.08"/>
</g>
<!-- n10 -->
<g id="node48" class="node">
<title>n10</title>
<ellipse fill="black" stroke="black" cx="1189.82" cy="-109.67" rx="1.8" ry="1.8"/>
</g>
<!-- x14&#45;&gt;n10 -->
<g id="edge20" class="edge">
<title>x14:e&#45;&gt;n10:w</title>
<path fill="none" stroke="black" stroke-width="3" d="M704.69,-116.42C915,-116.42 970.38,-109.91 1175.09,-109.68"/>
<polygon fill="black" stroke="black" stroke-width="3" points="1172,-113.18 1182,-109.67 1172,-106.18 1172,-113.18"/>
</g>
<!-- c34&#45;&gt;c36 -->
<g id="edge23" class="edge">
<title>c34:e&#45;&gt;c36:w</title>
<path fill="none" stroke="black" stroke-width="3" d="M978.69,-595.92C990.07,-595.92 995.38,-595.67 1003.24,-595.52"/>
<polygon fill="black" stroke="black" stroke-width="3" points="1000.18,-599.05 1010.15,-595.46 1000.12,-592.05 1000.18,-599.05"/>
</g>
<!-- n9 -->
<g id="node51" class="node">
<title>n9</title>
<ellipse fill="black" stroke="black" cx="2682.99" cy="-693.67" rx="1.8" ry="1.8"/>
</g>
<!-- c35&#45;&gt;n9 -->
<g id="edge67" class="edge">
<title>c35:e&#45;&gt;n9:w</title>
<path fill="none" stroke="black" stroke-width="3" d="M2645.19,-720.92C2660.56,-720.92 2661.73,-704.95 2670.45,-697.46"/>
<polygon fill="black" stroke="black" stroke-width="3" points="2668.64,-701.81 2676.91,-695.18 2666.32,-695.21 2668.64,-701.81"/>
</g>
<!-- x15&#45;&gt;c35 -->
<g id="edge16" class="edge">
<title>x15:e&#45;&gt;c35:w</title>
<path fill="none" stroke="black" stroke-width="3" d="M2534.16,-708.61C2537.76,-708.57 2540.89,-708.52 2544.47,-708.49"/>
<polygon fill="none" stroke="black" stroke-width="3" points="2536.15,-708.6 2530.17,-712.63 2524.15,-708.66 2530.13,-704.63 2536.15,-708.6"/>
<polygon fill="none" stroke="black" stroke-width="3" points="2542.74,-708.49 2548.72,-704.46 2554.74,-708.43 2548.76,-712.46 2542.74,-708.49"/>
</g>
<!-- c36&#45;&gt;c22 -->
<g id="edge24" class="edge">
<title>c36:e&#45;&gt;c22:w</title>
<path fill="none" stroke="black" stroke-width="3" d="M1106.94,-607.92C1124.31,-607.92 1122.98,-586.75 1132.46,-577.82"/>
<polygon fill="black" stroke="black" stroke-width="3" points="1130.53,-582.27 1138.69,-575.5 1128.09,-575.71 1130.53,-582.27"/>
</g>
<!-- v16 -->
<g id="node38" class="node">
<title>v16</title>
<ellipse fill="none" stroke="black" cx="190.72" cy="-214.67" rx="27" ry="18"/>
<text text-anchor="middle" x="190.72" y="-209.62" font-family="Times,serif" font-size="14.00">1&#39;0</text>
</g>
<!-- x17 -->
<g id="node39" class="node">
<title>x17</title>
<path fill="none" stroke="black" d="M285.59,-193.67C285.59,-193.67 324.09,-193.67 324.09,-193.67 330.09,-193.67 336.09,-199.67 336.09,-205.67 336.09,-205.67 336.09,-217.67 336.09,-217.67 336.09,-223.67 330.09,-229.67 324.09,-229.67 324.09,-229.67 285.59,-229.67 285.59,-229.67 279.59,-229.67 273.59,-223.67 273.59,-217.67 273.59,-217.67 273.59,-205.67 273.59,-205.67 273.59,-199.67 279.59,-193.67 285.59,-193.67"/>
<text text-anchor="middle" x="304.84" y="-206.87" font-family="Times,serif" font-size="14.00">0:0 &#45; 3:3</text>
</g>
<!-- v16&#45;&gt;x17 -->
<g id="edge70" class="edge">
<title>v16:e&#45;&gt;x17:w</title>
<path fill="none" stroke="black" d="M218.97,-214.67C239.1,-214.67 246.68,-212.61 262.49,-211.91"/>
<polygon fill="black" stroke="black" points="262.15,-215.41 272.08,-211.7 262.01,-208.42 262.15,-215.41"/>
</g>
<!-- x17&#45;&gt;n4 -->
<g id="edge58" class="edge">
<title>x17:e&#45;&gt;n4:w</title>
<path fill="none" stroke="black" d="M336.09,-211.92C361.77,-211.92 348.08,-170.45 361.45,-157.49"/>
<polygon fill="black" stroke="black" points="362.44,-160.86 370.67,-154.18 360.07,-154.27 362.44,-160.86"/>
</g>
<!-- v18 -->
<g id="node40" class="node">
<title>v18</title>
<ellipse fill="none" stroke="black" cx="1707.32" cy="-553.67" rx="27" ry="18"/>
<text text-anchor="middle" x="1707.32" y="-548.62" font-family="Times,serif" font-size="14.00">2&#39;00</text>
</g>
<!-- x19 -->
<g id="node41" class="node">
<title>x19</title>
<path fill="none" stroke="black" d="M1802.19,-532.67C1802.19,-532.67 1840.69,-532.67 1840.69,-532.67 1846.69,-532.67 1852.69,-538.67 1852.69,-544.67 1852.69,-544.67 1852.69,-556.67 1852.69,-556.67 1852.69,-562.67 1846.69,-568.67 1840.69,-568.67 1840.69,-568.67 1802.19,-568.67 1802.19,-568.67 1796.19,-568.67 1790.19,-562.67 1790.19,-556.67 1790.19,-556.67 1790.19,-544.67 1790.19,-544.67 1790.19,-538.67 1796.19,-532.67 1802.19,-532.67"/>
<text text-anchor="middle" x="1821.44" y="-545.87" font-family="Times,serif" font-size="14.00">1:0 &#45; 4:3</text>
</g>
<!-- v18&#45;&gt;x19 -->
<g id="edge71" class="edge">
<title>v18:e&#45;&gt;x19:w</title>
<path fill="none" stroke="black" stroke-width="3" d="M1735.57,-553.67C1755.7,-553.67 1763.28,-551.61 1779.09,-550.91"/>
<polygon fill="black" stroke="black" stroke-width="3" points="1775.73,-554.48 1785.65,-550.77 1775.58,-547.48 1775.73,-554.48"/>
</g>
<!-- x19&#45;&gt;n6 -->
<g id="edge62" class="edge">
<title>x19:e&#45;&gt;n6:w</title>
<path fill="none" stroke="black" stroke-width="3" d="M1852.69,-550.92C1886.79,-550.92 1880.48,-505.12 1905.42,-494.74"/>
<polygon fill="black" stroke="black" stroke-width="3" points="1903,-498.75 1912.2,-493.49 1901.73,-491.87 1903,-498.75"/>
</g>
<!-- x21 -->
<g id="node43" class="node">
<title>x21</title>
<path fill="none" stroke="black" d="M1041.57,-129.67C1041.57,-129.67 1080.07,-129.67 1080.07,-129.67 1086.07,-129.67 1092.07,-135.67 1092.07,-141.67 1092.07,-141.67 1092.07,-153.67 1092.07,-153.67 1092.07,-159.67 1086.07,-165.67 1080.07,-165.67 1080.07,-165.67 1041.57,-165.67 1041.57,-165.67 1035.57,-165.67 1029.57,-159.67 1029.57,-153.67 1029.57,-153.67 1029.57,-141.67 1029.57,-141.67 1029.57,-135.67 1035.57,-129.67 1041.57,-129.67"/>
<text text-anchor="middle" x="1060.82" y="-142.87" font-family="Times,serif" font-size="14.00">1:0 &#45; 4:3</text>
</g>
<!-- x20&#45;&gt;x21 -->
<g id="edge17" class="edge">
<title>x20:e&#45;&gt;x21:w</title>
<path fill="none" stroke="black" stroke-width="3" d="M978.06,-147.67C992.53,-147.67 1001.09,-147.67 1015.51,-147.67"/>
<polygon fill="none" stroke="black" stroke-width="3" points="979.9,-147.67 973.9,-151.67 967.9,-147.67 973.9,-143.67 979.9,-147.67"/>
<polygon fill="none" stroke="black" stroke-width="3" points="1013.86,-147.67 1019.86,-143.67 1025.86,-147.67 1019.86,-151.67 1013.86,-147.67"/>
</g>
<!-- x21&#45;&gt;n10 -->
<g id="edge21" class="edge">
<title>x21:e&#45;&gt;n10:w</title>
<path fill="none" stroke="black" stroke-width="3" d="M1093.07,-147.92C1133.92,-147.92 1140.65,-116.23 1175.38,-110.54"/>
<polygon fill="black" stroke="black" stroke-width="3" points="1172.31,-114.29 1182.01,-110.02 1171.77,-107.31 1172.31,-114.29"/>
</g>
<!-- v22 -->
<g id="node44" class="node">
<title>v22</title>
<ellipse fill="none" stroke="black" cx="3464.87" cy="-332.67" rx="104.58" ry="18"/>
<text text-anchor="middle" x="3464.87" y="-327.62" font-family="Times,serif" font-size="14.00">18&#39;000000000000000000</text>
</g>
<!-- x23 -->
<g id="node45" class="node">
<title>x23</title>
<path fill="none" stroke="black" d="M3617.45,-317.67C3617.45,-317.67 3669.45,-317.67 3669.45,-317.67 3675.45,-317.67 3681.45,-323.67 3681.45,-329.67 3681.45,-329.67 3681.45,-341.67 3681.45,-341.67 3681.45,-347.67 3675.45,-353.67 3669.45,-353.67 3669.45,-353.67 3617.45,-353.67 3617.45,-353.67 3611.45,-353.67 3605.45,-347.67 3605.45,-341.67 3605.45,-341.67 3605.45,-329.67 3605.45,-329.67 3605.45,-323.67 3611.45,-317.67 3617.45,-317.67"/>
<text text-anchor="middle" x="3643.45" y="-330.87" font-family="Times,serif" font-size="14.00">17:0 &#45; 18:1</text>
</g>
<!-- v22&#45;&gt;x23 -->
<g id="edge72" class="edge">
<title>v22:e&#45;&gt;x23:w</title>
<path fill="none" stroke="black" stroke-width="3" d="M3569.45,-332.67C3580.87,-332.67 3586.13,-334.19 3593.99,-335.06"/>
<polygon fill="black" stroke="black" stroke-width="3" points="3590.75,-338.4 3600.92,-335.43 3591.12,-331.41 3590.75,-338.4"/>
</g>
<!-- x23&#45;&gt;n14 -->
<g id="edge31" class="edge">
<title>x23:e&#45;&gt;n14:w</title>
<path fill="none" stroke="black" stroke-width="3" d="M3681.45,-335.92C3696.71,-335.92 3698.02,-351.6 3706.75,-358.95"/>
<polygon fill="black" stroke="black" stroke-width="3" points="3702.57,-361.2 3713.16,-361.18 3704.87,-354.59 3702.57,-361.2"/>
</g>
<!-- x25 -->
<g id="node47" class="node">
<title>x25</title>
<path fill="none" stroke="black" d="M1999.19,-367.67C1999.19,-367.67 2037.69,-367.67 2037.69,-367.67 2043.69,-367.67 2049.69,-373.67 2049.69,-379.67 2049.69,-379.67 2049.69,-391.67 2049.69,-391.67 2049.69,-397.67 2043.69,-403.67 2037.69,-403.67 2037.69,-403.67 1999.19,-403.67 1999.19,-403.67 1993.19,-403.67 1987.19,-397.67 1987.19,-391.67 1987.19,-391.67 1987.19,-379.67 1987.19,-379.67 1987.19,-373.67 1993.19,-367.67 1999.19,-367.67"/>
<text text-anchor="middle" x="2018.44" y="-380.87" font-family="Times,serif" font-size="14.00">1:0 &#45; 4:3</text>
</g>
<!-- x24&#45;&gt;x25 -->
<g id="edge18" class="edge">
<title>x24:e&#45;&gt;x25:w</title>
<path fill="none" stroke="black" stroke-width="3" d="M978.15,-385.67C1066.96,-385.67 1093.89,-385.67 1188.82,-385.67 1188.82,-385.67 1188.82,-385.67 1822.44,-385.67 1891.23,-385.67 1911.55,-385.67 1974.47,-385.67"/>
<polygon fill="none" stroke="black" stroke-width="3" points="979.9,-385.67 973.9,-389.67 967.9,-385.67 973.9,-381.67 979.9,-385.67"/>
<polygon fill="none" stroke="black" stroke-width="3" points="1972.49,-385.67 1978.49,-381.67 1984.49,-385.67 1978.49,-389.67 1972.49,-385.67"/>
</g>
<!-- x25&#45;&gt;n16 -->
<g id="edge51" class="edge">
<title>x25:e&#45;&gt;n16:w</title>
<path fill="none" stroke="black" stroke-width="3" d="M2049.69,-385.92C2104.97,-385.92 2237,-410.51 2301.26,-413.4"/>
<polygon fill="black" stroke="black" stroke-width="3" points="2297.82,-416.81 2307.9,-413.56 2297.99,-409.81 2297.82,-416.81"/>
</g>
<!-- n10&#45;&gt;x3 -->
<g id="edge22" class="edge">
<title>n10:e&#45;&gt;x3:w</title>
<path fill="none" stroke="black" stroke-width="3" d="M1193.1,-109.67C1230.88,-109.67 1243.1,-109.87 1275.89,-109.91"/>
<polygon fill="black" stroke="black" stroke-width="3" points="1272.77,-113.41 1282.78,-109.92 1272.78,-106.41 1272.77,-113.41"/>
</g>
<!-- n4&#45;&gt;x13 -->
<g id="edge60" class="edge">
<title>n4:e&#45;&gt;x13:w</title>
<path fill="none" stroke="black" stroke-width="3" d="M375.69,-153.67C387.36,-153.67 392.46,-150.44 400.44,-148.63"/>
<polygon fill="black" stroke="black" stroke-width="3" points="397.61,-152.45 407.18,-147.9 396.86,-145.49 397.61,-152.45"/>
</g>
<!-- n6&#45;&gt;x9 -->
<g id="edge64" class="edge">
<title>n6:e&#45;&gt;x9:w</title>
<path fill="none" stroke="black" stroke-width="3" d="M1923.22,-492.67C1947.53,-492.67 1956.13,-488.5 1975.77,-487.26"/>
<polygon fill="black" stroke="black" stroke-width="3" points="1972.76,-490.85 1982.65,-487.06 1972.55,-483.86 1972.76,-490.85"/>
</g>
<!-- n9&#45;&gt;c29 -->
<g id="edge68" class="edge">
<title>n9:e&#45;&gt;c29:w</title>
<path fill="none" stroke="black" stroke-width="3" d="M2684.79,-693.67C2750.52,-693.67 2662.78,-417.65 2709.92,-384.22"/>
<polygon fill="black" stroke="black" stroke-width="3" points="2707.9,-388.49 2716.45,-382.24 2705.86,-381.8 2707.9,-388.49"/>
</g>
<!-- n9&#45;&gt;x7 -->
<g id="edge69" class="edge">
<title>n9:e&#45;&gt;x7:w</title>
<path fill="none" stroke="black" d="M2684.79,-693.67C2740.82,-693.67 2764.61,-704.43 2808.54,-669.67 2842.07,-643.15 2811.92,-585.24 2841.08,-574.61"/>
<polygon fill="black" stroke="black" points="2841.31,-578.12 2850.67,-573.15 2840.26,-571.2 2841.31,-578.12"/>
</g>
</g>
</svg>
