<?xml version="1.0" encoding="UTF-8" standalone="no"?>
<!DOCTYPE svg PUBLIC "-//W3C//DTD SVG 1.1//EN"
 "http://www.w3.org/Graphics/SVG/1.1/DTD/svg11.dtd">
<!-- Generated by graphviz version 12.2.1 (20241206.2353)
 -->
<!-- Title: top Pages: 1 -->
<svg width="1740pt" height="300pt"
 viewBox="0.00 0.00 1740.24 299.67" xmlns="http://www.w3.org/2000/svg" xmlns:xlink="http://www.w3.org/1999/xlink">
<g id="graph0" class="graph" transform="scale(1 1) rotate(0) translate(4 295.67)">
<title>top</title>
<polygon fill="white" stroke="none" points="-4,4 -4,-295.67 1736.24,-295.67 1736.24,4 -4,4"/>
<text text-anchor="middle" x="866.12" y="-7.2" font-family="Times,serif" font-size="14.00">top</text>
<!-- n4 -->
<g id="node1" class="node">
<title>n4</title>
<polygon fill="none" stroke="black" points="107.84,-94.22 107.84,-109.13 76.26,-119.67 31.59,-119.67 0,-109.13 0,-94.22 31.59,-83.67 76.26,-83.67 107.84,-94.22"/>
<text text-anchor="middle" x="53.92" y="-96.62" font-family="Times,serif" font-size="14.00">input_data</text>
</g>
<!-- x0 -->
<g id="node6" class="node">
<title>x0</title>
<path fill="none" stroke="black" d="M171.47,-206.67C171.47,-206.67 209.97,-206.67 209.97,-206.67 215.97,-206.67 221.97,-212.67 221.97,-218.67 221.97,-218.67 221.97,-230.67 221.97,-230.67 221.97,-236.67 215.97,-242.67 209.97,-242.67 209.97,-242.67 171.47,-242.67 171.47,-242.67 165.47,-242.67 159.47,-236.67 159.47,-230.67 159.47,-230.67 159.47,-218.67 159.47,-218.67 159.47,-212.67 165.47,-206.67 171.47,-206.67"/>
<text text-anchor="middle" x="190.72" y="-219.87" font-family="Times,serif" font-size="14.00">1:0 &#45; 1:0</text>
</g>
<!-- n4&#45;&gt;x0 -->
<g id="edge20" class="edge">
<title>n4:e&#45;&gt;x0:w</title>
<path fill="none" stroke="black" stroke-width="3" d="M107.84,-101.67C162.66,-101.67 108.61,-207.31 147.28,-222.99"/>
<polygon fill="black" stroke="black" stroke-width="3" points="143.54,-225.89 153.99,-224.15 144.73,-218.99 143.54,-225.89"/>
</g>
<!-- x1 -->
<g id="node7" class="node">
<title>x1</title>
<path fill="none" stroke="black" d="M171.47,-151.67C171.47,-151.67 209.97,-151.67 209.97,-151.67 215.97,-151.67 221.97,-157.67 221.97,-163.67 221.97,-163.67 221.97,-175.67 221.97,-175.67 221.97,-181.67 215.97,-187.67 209.97,-187.67 209.97,-187.67 171.47,-187.67 171.47,-187.67 165.47,-187.67 159.47,-181.67 159.47,-175.67 159.47,-175.67 159.47,-163.67 159.47,-163.67 159.47,-157.67 165.47,-151.67 171.47,-151.67"/>
<text text-anchor="middle" x="190.72" y="-164.87" font-family="Times,serif" font-size="14.00">1:0 &#45; 1:0</text>
</g>
<!-- n4&#45;&gt;x1 -->
<g id="edge21" class="edge">
<title>n4:e&#45;&gt;x1:w</title>
<path fill="none" stroke="black" stroke-width="3" d="M107.84,-101.67C141.18,-101.67 125.68,-154.86 147.57,-167.33"/>
<polygon fill="black" stroke="black" stroke-width="3" points="143.51,-169.96 154.05,-168.87 145.13,-163.15 143.51,-169.96"/>
</g>
<!-- c12 -->
<g id="node8" class="node">
<title>c12</title>
<polygon fill="none" stroke="black" points="143.84,-45.17 143.84,-94.17 237.59,-94.17 237.59,-45.17 143.84,-45.17"/>
<text text-anchor="middle" x="156.72" y="-76.87" font-family="Times,serif" font-size="14.00">A</text>
<polyline fill="none" stroke="black" points="143.84,-69.67 169.59,-69.67"/>
<text text-anchor="middle" x="156.72" y="-52.37" font-family="Times,serif" font-size="14.00">B</text>
<polyline fill="none" stroke="black" points="169.59,-45.17 169.59,-94.17"/>
<text text-anchor="middle" x="190.72" y="-72.87" font-family="Times,serif" font-size="14.00">$2</text>
<text text-anchor="middle" x="190.72" y="-56.37" font-family="Times,serif" font-size="14.00">$and</text>
<polyline fill="none" stroke="black" points="211.84,-45.17 211.84,-94.17"/>
<text text-anchor="middle" x="224.72" y="-64.87" font-family="Times,serif" font-size="14.00">Y</text>
</g>
<!-- n4&#45;&gt;c12 -->
<g id="edge16" class="edge">
<title>n4:e&#45;&gt;c12:w</title>
<path fill="none" stroke="black" stroke-width="3" d="M107.84,-101.67C121.39,-101.67 124.6,-90.79 132.82,-85.18"/>
<polygon fill="black" stroke="black" stroke-width="3" points="130.89,-89.4 139.49,-83.21 128.9,-82.69 130.89,-89.4"/>
</g>
<!-- n4&#45;&gt;c12 -->
<g id="edge17" class="edge">
<title>n4:e&#45;&gt;c12:w</title>
<path fill="none" stroke="black" stroke-width="3" d="M107.84,-101.67C128.44,-101.67 122.59,-72.46 133.28,-61.51"/>
<polygon fill="black" stroke="black" stroke-width="3" points="131.54,-65.93 139.61,-59.06 129.02,-59.4 131.54,-65.93"/>
</g>
<!-- c15 -->
<g id="node15" class="node">
<title>c15</title>
<polygon fill="none" stroke="black" points="679.59,-75.17 679.59,-124.17 773.34,-124.17 773.34,-75.17 679.59,-75.17"/>
<text text-anchor="middle" x="692.47" y="-106.87" font-family="Times,serif" font-size="14.00">A</text>
<polyline fill="none" stroke="black" points="679.59,-99.67 705.34,-99.67"/>
<text text-anchor="middle" x="692.47" y="-82.37" font-family="Times,serif" font-size="14.00">B</text>
<polyline fill="none" stroke="black" points="705.34,-75.17 705.34,-124.17"/>
<text text-anchor="middle" x="726.47" y="-102.87" font-family="Times,serif" font-size="14.00">$18</text>
<text text-anchor="middle" x="726.47" y="-86.37" font-family="Times,serif" font-size="14.00">$and</text>
<polyline fill="none" stroke="black" points="747.59,-75.17 747.59,-124.17"/>
<text text-anchor="middle" x="760.47" y="-94.87" font-family="Times,serif" font-size="14.00">Y</text>
</g>
<!-- n4&#45;&gt;c15 -->
<g id="edge18" class="edge">
<title>n4:e&#45;&gt;c15:w</title>
<path fill="none" stroke="black" stroke-width="3" d="M107.84,-101.67C155.35,-101.67 273.08,-122.67 320.59,-122.67 320.59,-122.67 320.59,-122.67 461.84,-122.67 554.86,-122.67 580.66,-112.77 668.29,-111.97"/>
<polygon fill="black" stroke="black" stroke-width="3" points="665.07,-115.49 675.05,-111.94 665.04,-108.49 665.07,-115.49"/>
</g>
<!-- c17 -->
<g id="node19" class="node">
<title>c17</title>
<polygon fill="none" stroke="black" points="273.59,-33.17 273.59,-82.17 369.59,-82.17 369.59,-33.17 273.59,-33.17"/>
<text text-anchor="middle" x="286.47" y="-64.87" font-family="Times,serif" font-size="14.00">A</text>
<polyline fill="none" stroke="black" points="273.59,-57.67 299.34,-57.67"/>
<text text-anchor="middle" x="286.47" y="-40.37" font-family="Times,serif" font-size="14.00">B</text>
<polyline fill="none" stroke="black" points="299.34,-33.17 299.34,-82.17"/>
<text text-anchor="middle" x="321.59" y="-60.87" font-family="Times,serif" font-size="14.00">$3</text>
<text text-anchor="middle" x="321.59" y="-44.37" font-family="Times,serif" font-size="14.00">$mul</text>
<polyline fill="none" stroke="black" points="343.84,-33.17 343.84,-82.17"/>
<text text-anchor="middle" x="356.72" y="-52.87" font-family="Times,serif" font-size="14.00">Y</text>
</g>
<!-- n4&#45;&gt;c17 -->
<g id="edge19" class="edge">
<title>n4:e&#45;&gt;c17:w</title>
<path fill="none" stroke="black" stroke-width="3" d="M107.84,-101.67C141.25,-101.67 115.11,-52.73 143.84,-35.67 179.67,-14.4 196.29,-30.18 237.59,-35.67 249.4,-37.24 254.27,-41.59 262.23,-43.91"/>
<polygon fill="black" stroke="black" stroke-width="3" points="258.72,-46.98 269.09,-44.82 259.64,-40.04 258.72,-46.98"/>
</g>
<!-- n5 -->
<g id="node2" class="node">
<title>n5</title>
<polygon fill="none" stroke="black" points="1410.45,-154.22 1410.45,-169.13 1375.94,-179.67 1327.14,-179.67 1292.64,-169.13 1292.64,-154.22 1327.14,-143.67 1375.94,-143.67 1410.45,-154.22"/>
<text text-anchor="middle" x="1351.54" y="-156.62" font-family="Times,serif" font-size="14.00">output_data</text>
</g>
<!-- x10 -->
<g id="node22" class="node">
<title>x10</title>
<path fill="none" stroke="black" d="M1458.45,-132.17C1458.45,-132.17 1496.95,-132.17 1496.95,-132.17 1502.95,-132.17 1508.95,-138.17 1508.95,-144.17 1508.95,-144.17 1508.95,-169.17 1508.95,-169.17 1508.95,-175.17 1502.95,-181.17 1496.95,-181.17 1496.95,-181.17 1458.45,-181.17 1458.45,-181.17 1452.45,-181.17 1446.45,-175.17 1446.45,-169.17 1446.45,-169.17 1446.45,-144.17 1446.45,-144.17 1446.45,-138.17 1452.45,-132.17 1458.45,-132.17"/>
<text text-anchor="middle" x="1477.7" y="-163.87" font-family="Times,serif" font-size="14.00">0 &#45;&gt; 2:1</text>
<polyline fill="none" stroke="black" points="1446.45,-156.67 1508.95,-156.67"/>
<text text-anchor="middle" x="1477.7" y="-139.37" font-family="Times,serif" font-size="14.00">2:2 &#45; 0:0</text>
</g>
<!-- n5&#45;&gt;x10 -->
<g id="edge26" class="edge">
<title>n5:e&#45;&gt;x10:w</title>
<path fill="none" stroke="black" d="M1410.45,-161.67C1423.62,-161.67 1427.3,-152.17 1435.57,-147.27"/>
<polygon fill="black" stroke="black" points="1436.2,-150.72 1444.99,-144.81 1434.43,-143.95 1436.2,-150.72"/>
</g>
<!-- n6 -->
<g id="node3" class="node">
<title>n6</title>
<polygon fill="none" stroke="black" points="460.84,-214.67 405.59,-196.67 460.84,-178.67 516.09,-196.67 460.84,-214.67"/>
<text text-anchor="middle" x="460.84" y="-191.62" font-family="Times,serif" font-size="14.00">temp_0</text>
</g>
<!-- c16 -->
<g id="node18" class="node">
<title>c16</title>
<polygon fill="none" stroke="black" points="552.09,-176.17 552.09,-217.17 643.59,-217.17 643.59,-176.17 552.09,-176.17"/>
<text text-anchor="middle" x="564.97" y="-191.87" font-family="Times,serif" font-size="14.00">A</text>
<polyline fill="none" stroke="black" points="577.84,-176.17 577.84,-217.17"/>
<text text-anchor="middle" x="597.84" y="-199.87" font-family="Times,serif" font-size="14.00">$10</text>
<text text-anchor="middle" x="597.84" y="-183.37" font-family="Times,serif" font-size="14.00">$not</text>
<polyline fill="none" stroke="black" points="617.84,-176.17 617.84,-217.17"/>
<text text-anchor="middle" x="630.72" y="-191.87" font-family="Times,serif" font-size="14.00">Y</text>
</g>
<!-- n6&#45;&gt;c16 -->
<g id="edge28" class="edge">
<title>n6:e&#45;&gt;c16:w</title>
<path fill="none" stroke="black" stroke-width="3" d="M516.09,-196.67C527.47,-196.67 532.78,-196.8 540.65,-196.87"/>
<polygon fill="black" stroke="black" stroke-width="3" points="537.54,-200.36 547.55,-196.9 537.57,-193.36 537.54,-200.36"/>
</g>
<!-- n7 -->
<g id="node4" class="node">
<title>n7</title>
<polygon fill="none" stroke="black" points="460.84,-80.67 405.59,-62.67 460.84,-44.67 516.09,-62.67 460.84,-80.67"/>
<text text-anchor="middle" x="460.84" y="-57.62" font-family="Times,serif" font-size="14.00">temp_2</text>
</g>
<!-- x6 -->
<g id="node16" class="node">
<title>x6</title>
<path fill="none" stroke="black" d="M578.59,-53.67C578.59,-53.67 617.09,-53.67 617.09,-53.67 623.09,-53.67 629.09,-59.67 629.09,-65.67 629.09,-65.67 629.09,-77.67 629.09,-77.67 629.09,-83.67 623.09,-89.67 617.09,-89.67 617.09,-89.67 578.59,-89.67 578.59,-89.67 572.59,-89.67 566.59,-83.67 566.59,-77.67 566.59,-77.67 566.59,-65.67 566.59,-65.67 566.59,-59.67 572.59,-53.67 578.59,-53.67"/>
<text text-anchor="middle" x="597.84" y="-66.87" font-family="Times,serif" font-size="14.00">2:0 &#45; 2:0</text>
</g>
<!-- n7&#45;&gt;x6 -->
<g id="edge30" class="edge">
<title>n7:e&#45;&gt;x6:w</title>
<path fill="none" stroke="black" stroke-width="3" d="M516.09,-62.67C534.1,-62.67 540.69,-68.66 554.23,-71"/>
<polygon fill="black" stroke="black" stroke-width="3" points="550.82,-74.24 561.07,-71.55 551.38,-67.26 550.82,-74.24"/>
</g>
<!-- c11 -->
<g id="node5" class="node">
<title>c11</title>
<polygon fill="none" stroke="black" points="274.72,-172.17 274.72,-221.17 368.47,-221.17 368.47,-172.17 274.72,-172.17"/>
<text text-anchor="middle" x="287.59" y="-203.87" font-family="Times,serif" font-size="14.00">A</text>
<polyline fill="none" stroke="black" points="274.72,-196.67 300.47,-196.67"/>
<text text-anchor="middle" x="287.59" y="-179.37" font-family="Times,serif" font-size="14.00">B</text>
<polyline fill="none" stroke="black" points="300.47,-172.17 300.47,-221.17"/>
<text text-anchor="middle" x="321.59" y="-199.87" font-family="Times,serif" font-size="14.00">$1</text>
<text text-anchor="middle" x="321.59" y="-183.37" font-family="Times,serif" font-size="14.00">$add</text>
<polyline fill="none" stroke="black" points="342.72,-172.17 342.72,-221.17"/>
<text text-anchor="middle" x="355.59" y="-191.87" font-family="Times,serif" font-size="14.00">Y</text>
</g>
<!-- c11&#45;&gt;n6 -->
<g id="edge27" class="edge">
<title>c11:e&#45;&gt;n6:w</title>
<path fill="none" stroke="black" stroke-width="3" d="M369.47,-196.92C380.88,-196.92 386.21,-196.8 394.1,-196.72"/>
<polygon fill="black" stroke="black" stroke-width="3" points="391.07,-200.24 401.05,-196.69 391.03,-193.24 391.07,-200.24"/>
</g>
<!-- x0&#45;&gt;c11 -->
<g id="edge1" class="edge">
<title>x0:e&#45;&gt;c11:w</title>
<path fill="none" stroke="black" stroke-width="3" d="M235.61,-222.87C245.31,-219.86 251.19,-213.86 260.83,-210.81"/>
<polygon fill="none" stroke="black" stroke-width="3" points="237.52,-222.59 232.15,-227.4 225.64,-224.29 231.02,-219.48 237.52,-222.59"/>
<polygon fill="none" stroke="black" stroke-width="3" points="259.17,-211.05 264.52,-206.22 271.04,-209.31 265.68,-214.14 259.17,-211.05"/>
</g>
<!-- x1&#45;&gt;c11 -->
<g id="edge2" class="edge">
<title>x1:e&#45;&gt;c11:w</title>
<path fill="none" stroke="black" stroke-width="3" d="M235.57,-171.36C245.27,-174.18 251.23,-179.8 260.87,-182.66"/>
<polygon fill="none" stroke="black" stroke-width="3" points="237.54,-171.63 231.06,-174.79 225.65,-170.03 232.12,-166.87 237.54,-171.63"/>
<polygon fill="none" stroke="black" stroke-width="3" points="259.15,-182.42 265.64,-179.28 271.04,-184.05 264.55,-187.2 259.15,-182.42"/>
</g>
<!-- c12&#45;&gt;c17 -->
<g id="edge10" class="edge">
<title>c12:e&#45;&gt;c17:w</title>
<path fill="none" stroke="black" stroke-width="3" d="M237.59,-69.92C248.97,-69.92 254.28,-69.92 262.14,-69.92"/>
<polygon fill="black" stroke="black" stroke-width="3" points="259.05,-73.42 269.05,-69.92 259.05,-66.42 259.05,-73.42"/>
</g>
<!-- c13 -->
<g id="node9" class="node">
<title>c13</title>
<polygon fill="none" stroke="black" points="980.49,-136.17 980.49,-177.17 1071.99,-177.17 1071.99,-136.17 980.49,-136.17"/>
<text text-anchor="middle" x="993.37" y="-151.87" font-family="Times,serif" font-size="14.00">A</text>
<polyline fill="none" stroke="black" points="1006.24,-136.17 1006.24,-177.17"/>
<text text-anchor="middle" x="1026.24" y="-159.87" font-family="Times,serif" font-size="14.00">$22</text>
<text text-anchor="middle" x="1026.24" y="-143.37" font-family="Times,serif" font-size="14.00">$not</text>
<polyline fill="none" stroke="black" points="1046.24,-136.17 1046.24,-177.17"/>
<text text-anchor="middle" x="1059.12" y="-151.87" font-family="Times,serif" font-size="14.00">Y</text>
</g>
<!-- x3 -->
<g id="node11" class="node">
<title>x3</title>
<path fill="none" stroke="black" d="M1199.39,-143.67C1199.39,-143.67 1237.89,-143.67 1237.89,-143.67 1243.89,-143.67 1249.89,-149.67 1249.89,-155.67 1249.89,-155.67 1249.89,-167.67 1249.89,-167.67 1249.89,-173.67 1243.89,-179.67 1237.89,-179.67 1237.89,-179.67 1199.39,-179.67 1199.39,-179.67 1193.39,-179.67 1187.39,-173.67 1187.39,-167.67 1187.39,-167.67 1187.39,-155.67 1187.39,-155.67 1187.39,-149.67 1193.39,-143.67 1199.39,-143.67"/>
<text text-anchor="middle" x="1218.64" y="-156.87" font-family="Times,serif" font-size="14.00">0:0 &#45; 0:0</text>
</g>
<!-- c13&#45;&gt;x3 -->
<g id="edge4" class="edge">
<title>c13:e&#45;&gt;x3:w</title>
<path fill="none" stroke="black" d="M1085.98,-157.03C1121.98,-157.68 1137.36,-160.91 1173.34,-161.56"/>
<polygon fill="none" stroke="black" points="1085.89,-157.03 1079.86,-160.98 1073.89,-156.93 1079.93,-152.98 1085.89,-157.03"/>
<polygon fill="none" stroke="black" points="1173.49,-161.56 1179.52,-157.61 1185.49,-161.66 1179.45,-165.61 1173.49,-161.56"/>
</g>
<!-- x2 -->
<g id="node10" class="node">
<title>x2</title>
<path fill="none" stroke="black" d="M821.34,-140.67C821.34,-140.67 859.84,-140.67 859.84,-140.67 865.84,-140.67 871.84,-146.67 871.84,-152.67 871.84,-152.67 871.84,-164.67 871.84,-164.67 871.84,-170.67 865.84,-176.67 859.84,-176.67 859.84,-176.67 821.34,-176.67 821.34,-176.67 815.34,-176.67 809.34,-170.67 809.34,-164.67 809.34,-164.67 809.34,-152.67 809.34,-152.67 809.34,-146.67 815.34,-140.67 821.34,-140.67"/>
<text text-anchor="middle" x="840.59" y="-153.87" font-family="Times,serif" font-size="14.00">0:0 &#45; 0:0</text>
</g>
<!-- x2&#45;&gt;c13 -->
<g id="edge3" class="edge">
<title>x2:e&#45;&gt;c13:w</title>
<path fill="none" stroke="black" d="M884.41,-158.63C918.26,-158.39 932.93,-157.21 966.69,-156.97"/>
<polygon fill="none" stroke="black" points="884.74,-158.63 878.76,-162.65 872.74,-158.67 878.73,-154.65 884.74,-158.63"/>
<polygon fill="none" stroke="black" points="966.59,-156.97 972.57,-152.95 978.59,-156.93 972.6,-160.95 966.59,-156.97"/>
</g>
<!-- x3&#45;&gt;n5 -->
<g id="edge22" class="edge">
<title>x3:e&#45;&gt;n5:w</title>
<path fill="none" stroke="black" d="M1250.89,-161.92C1264.95,-161.92 1271.02,-161.78 1281.21,-161.71"/>
<polygon fill="black" stroke="black" points="1281.14,-165.21 1291.12,-161.68 1281.11,-158.21 1281.14,-165.21"/>
</g>
<!-- c14 -->
<g id="node12" class="node">
<title>c14</title>
<polygon fill="none" stroke="black" points="980.49,-196.17 980.49,-237.17 1071.99,-237.17 1071.99,-196.17 980.49,-196.17"/>
<text text-anchor="middle" x="993.37" y="-211.87" font-family="Times,serif" font-size="14.00">A</text>
<polyline fill="none" stroke="black" points="1006.24,-196.17 1006.24,-237.17"/>
<text text-anchor="middle" x="1026.24" y="-219.87" font-family="Times,serif" font-size="14.00">$24</text>
<text text-anchor="middle" x="1026.24" y="-203.37" font-family="Times,serif" font-size="14.00">$not</text>
<polyline fill="none" stroke="black" points="1046.24,-196.17 1046.24,-237.17"/>
<text text-anchor="middle" x="1059.12" y="-211.87" font-family="Times,serif" font-size="14.00">Y</text>
</g>
<!-- x5 -->
<g id="node14" class="node">
<title>x5</title>
<path fill="none" stroke="black" d="M1199.39,-198.67C1199.39,-198.67 1237.89,-198.67 1237.89,-198.67 1243.89,-198.67 1249.89,-204.67 1249.89,-210.67 1249.89,-210.67 1249.89,-222.67 1249.89,-222.67 1249.89,-228.67 1243.89,-234.67 1237.89,-234.67 1237.89,-234.67 1199.39,-234.67 1199.39,-234.67 1193.39,-234.67 1187.39,-228.67 1187.39,-222.67 1187.39,-222.67 1187.39,-210.67 1187.39,-210.67 1187.39,-204.67 1193.39,-198.67 1199.39,-198.67"/>
<text text-anchor="middle" x="1218.64" y="-211.87" font-family="Times,serif" font-size="14.00">0:0 &#45; 1:1</text>
</g>
<!-- c14&#45;&gt;x5 -->
<g id="edge6" class="edge">
<title>c14:e&#45;&gt;x5:w</title>
<path fill="none" stroke="black" d="M1085.97,-216.92C1121.95,-216.88 1137.39,-216.71 1173.35,-216.68"/>
<polygon fill="none" stroke="black" points="1085.89,-216.92 1079.89,-220.92 1073.89,-216.92 1079.89,-212.92 1085.89,-216.92"/>
<polygon fill="none" stroke="black" points="1173.49,-216.68 1179.49,-212.68 1185.49,-216.67 1179.49,-220.68 1173.49,-216.68"/>
</g>
<!-- x4 -->
<g id="node13" class="node">
<title>x4</title>
<path fill="none" stroke="black" d="M821.34,-196.67C821.34,-196.67 859.84,-196.67 859.84,-196.67 865.84,-196.67 871.84,-202.67 871.84,-208.67 871.84,-208.67 871.84,-220.67 871.84,-220.67 871.84,-226.67 865.84,-232.67 859.84,-232.67 859.84,-232.67 821.34,-232.67 821.34,-232.67 815.34,-232.67 809.34,-226.67 809.34,-220.67 809.34,-220.67 809.34,-208.67 809.34,-208.67 809.34,-202.67 815.34,-196.67 821.34,-196.67"/>
<text text-anchor="middle" x="840.59" y="-209.87" font-family="Times,serif" font-size="14.00">1:1 &#45; 0:0</text>
</g>
<!-- x4&#45;&gt;c14 -->
<g id="edge5" class="edge">
<title>x4:e&#45;&gt;c14:w</title>
<path fill="none" stroke="black" d="M884.41,-214.73C918.26,-215.04 932.93,-216.55 966.69,-216.86"/>
<polygon fill="none" stroke="black" points="884.74,-214.73 878.73,-218.7 872.74,-214.68 878.76,-210.7 884.74,-214.73"/>
<polygon fill="none" stroke="black" points="966.59,-216.86 972.61,-212.89 978.59,-216.92 972.57,-220.89 966.59,-216.86"/>
</g>
<!-- x5&#45;&gt;n5 -->
<g id="edge23" class="edge">
<title>x5:e&#45;&gt;n5:w</title>
<path fill="none" stroke="black" d="M1250.89,-216.92C1277.1,-216.92 1266.63,-176.86 1281.95,-164.96"/>
<polygon fill="black" stroke="black" points="1282.66,-168.4 1291.19,-162.12 1280.6,-161.71 1282.66,-168.4"/>
</g>
<!-- x7 -->
<g id="node17" class="node">
<title>x7</title>
<path fill="none" stroke="black" d="M1199.39,-75.17C1199.39,-75.17 1237.89,-75.17 1237.89,-75.17 1243.89,-75.17 1249.89,-81.17 1249.89,-87.17 1249.89,-87.17 1249.89,-112.17 1249.89,-112.17 1249.89,-118.17 1243.89,-124.17 1237.89,-124.17 1237.89,-124.17 1199.39,-124.17 1199.39,-124.17 1193.39,-124.17 1187.39,-118.17 1187.39,-112.17 1187.39,-112.17 1187.39,-87.17 1187.39,-87.17 1187.39,-81.17 1193.39,-75.17 1199.39,-75.17"/>
<text text-anchor="middle" x="1218.64" y="-106.87" font-family="Times,serif" font-size="14.00">2:2 &#45; 2:2</text>
<polyline fill="none" stroke="black" points="1187.39,-99.67 1249.89,-99.67"/>
<text text-anchor="middle" x="1218.64" y="-82.37" font-family="Times,serif" font-size="14.00">1:0 &#45; 1:0</text>
</g>
<!-- c15&#45;&gt;x7 -->
<g id="edge8" class="edge">
<title>c15:e&#45;&gt;x7:w</title>
<path fill="none" stroke="black" stroke-width="3" d="M786.29,-99.92C954.97,-99.91 1004.79,-99.68 1173.5,-99.67"/>
<polygon fill="none" stroke="black" stroke-width="3" points="788.05,-99.92 782.05,-103.92 776.05,-99.92 782.05,-95.92 788.05,-99.92"/>
<polygon fill="none" stroke="black" stroke-width="3" points="1171.68,-99.67 1177.68,-95.67 1183.68,-99.67 1177.68,-103.67 1171.68,-99.67"/>
</g>
<!-- x6&#45;&gt;c15 -->
<g id="edge7" class="edge">
<title>x6:e&#45;&gt;c15:w</title>
<path fill="none" stroke="black" stroke-width="3" d="M642.82,-73.6C651.99,-76.63 657.66,-82.44 666.82,-85.47"/>
<polygon fill="none" stroke="black" stroke-width="3" points="644.63,-73.88 638.1,-76.93 632.77,-72.08 639.3,-69.02 644.63,-73.88"/>
<polygon fill="none" stroke="black" stroke-width="3" points="665.06,-85.21 671.59,-82.16 676.92,-87.01 670.38,-90.06 665.06,-85.21"/>
</g>
<!-- x7&#45;&gt;n5 -->
<g id="edge24" class="edge">
<title>x7:e&#45;&gt;n5:w</title>
<path fill="none" stroke="black" d="M1250.89,-111.92C1275.24,-111.92 1267.67,-147.34 1282.05,-158.41"/>
<polygon fill="black" stroke="black" points="1280.6,-161.62 1291.19,-161.23 1282.67,-154.94 1280.6,-161.62"/>
</g>
<!-- n2 -->
<g id="node24" class="node">
<title>n2</title>
<polygon fill="none" stroke="black" points="1687.84,-142.67 1643.45,-124.67 1687.84,-106.67 1732.24,-124.67 1687.84,-142.67"/>
<text text-anchor="middle" x="1687.84" y="-119.62" font-family="Times,serif" font-size="14.00">$6_Y</text>
</g>
<!-- x7&#45;&gt;n2 -->
<g id="edge12" class="edge">
<title>x7:e&#45;&gt;n2:w</title>
<path fill="none" stroke="black" stroke-width="3" d="M1250.89,-87.42C1422.38,-87.42 1466.33,-123.09 1632.34,-124.62"/>
<polygon fill="black" stroke="black" stroke-width="3" points="1628.89,-128.11 1638.91,-124.65 1628.93,-121.11 1628.89,-128.11"/>
</g>
<!-- n3 -->
<g id="node25" class="node">
<title>n3</title>
<ellipse fill="black" stroke="black" cx="726.47" cy="-196.67" rx="1.8" ry="1.8"/>
</g>
<!-- c16&#45;&gt;n3 -->
<g id="edge13" class="edge">
<title>c16:e&#45;&gt;n3:w</title>
<path fill="none" stroke="black" stroke-width="3" d="M643.59,-196.92C674.82,-196.92 685.38,-196.73 711.76,-196.68"/>
<polygon fill="black" stroke="black" stroke-width="3" points="708.65,-200.18 718.65,-196.68 708.65,-193.18 708.65,-200.18"/>
</g>
<!-- c17&#45;&gt;n7 -->
<g id="edge29" class="edge">
<title>c17:e&#45;&gt;n7:w</title>
<path fill="none" stroke="black" stroke-width="3" d="M369.59,-57.92C381.19,-57.92 386.38,-60.38 394.37,-61.76"/>
<polygon fill="black" stroke="black" stroke-width="3" points="390.81,-64.98 401.07,-62.3 391.38,-58 390.81,-64.98"/>
</g>
<!-- v8 -->
<g id="node20" class="node">
<title>v8</title>
<ellipse fill="none" stroke="black" cx="1026.24" cy="-273.67" rx="118.4" ry="18"/>
<text text-anchor="middle" x="1026.24" y="-268.62" font-family="Times,serif" font-size="14.00">21&#39;000000000001101011100</text>
</g>
<!-- x9 -->
<g id="node21" class="node">
<title>x9</title>
<path fill="none" stroke="black" d="M1192.64,-254.67C1192.64,-254.67 1244.64,-254.67 1244.64,-254.67 1250.64,-254.67 1256.64,-260.67 1256.64,-266.67 1256.64,-266.67 1256.64,-278.67 1256.64,-278.67 1256.64,-284.67 1250.64,-290.67 1244.64,-290.67 1244.64,-290.67 1192.64,-290.67 1192.64,-290.67 1186.64,-290.67 1180.64,-284.67 1180.64,-278.67 1180.64,-278.67 1180.64,-266.67 1180.64,-266.67 1180.64,-260.67 1186.64,-254.67 1192.64,-254.67"/>
<text text-anchor="middle" x="1218.64" y="-267.87" font-family="Times,serif" font-size="14.00">20:0 &#45; 23:3</text>
</g>
<!-- v8&#45;&gt;x9 -->
<g id="edge31" class="edge">
<title>v8:e&#45;&gt;x9:w</title>
<path fill="none" stroke="black" stroke-width="3" d="M1144.64,-273.67C1156.02,-273.67 1161.32,-273.17 1169.19,-272.87"/>
<polygon fill="black" stroke="black" stroke-width="3" points="1166.16,-276.43 1176.1,-272.75 1166.04,-269.43 1166.16,-276.43"/>
</g>
<!-- x9&#45;&gt;n5 -->
<g id="edge25" class="edge">
<title>x9:e&#45;&gt;n5:w</title>
<path fill="none" stroke="black" stroke-width="3" d="M1256.64,-272.92C1304.14,-272.92 1251.46,-179.97 1281.74,-164"/>
<polygon fill="black" stroke="black" stroke-width="3" points="1279.15,-168.13 1288.2,-162.62 1277.69,-161.28 1279.15,-168.13"/>
</g>
<!-- x11 -->
<g id="node23" class="node">
<title>x11</title>
<path fill="none" stroke="black" d="M1556.95,-133.67C1556.95,-133.67 1595.45,-133.67 1595.45,-133.67 1601.45,-133.67 1607.45,-139.67 1607.45,-145.67 1607.45,-145.67 1607.45,-157.67 1607.45,-157.67 1607.45,-163.67 1601.45,-169.67 1595.45,-169.67 1595.45,-169.67 1556.95,-169.67 1556.95,-169.67 1550.95,-169.67 1544.95,-163.67 1544.95,-157.67 1544.95,-157.67 1544.95,-145.67 1544.95,-145.67 1544.95,-139.67 1550.95,-133.67 1556.95,-133.67"/>
<text text-anchor="middle" x="1576.2" y="-146.87" font-family="Times,serif" font-size="14.00">2:0 &#45; 4:2</text>
</g>
<!-- x10&#45;&gt;x11 -->
<g id="edge9" class="edge">
<title>x10:e&#45;&gt;x11:w</title>
<path fill="none" stroke="black" stroke-width="3" d="M1521.71,-155.41C1525.4,-154.65 1528.58,-153.68 1532.28,-152.92"/>
<polygon fill="none" stroke="black" stroke-width="3" points="1523.58,-155.22 1518.01,-159.8 1511.64,-156.41 1517.22,-151.83 1523.58,-155.22"/>
<polygon fill="none" stroke="black" stroke-width="3" points="1530.32,-153.11 1535.9,-148.54 1542.26,-151.94 1536.68,-156.5 1530.32,-153.11"/>
</g>
<!-- x11&#45;&gt;n2 -->
<g id="edge11" class="edge">
<title>x11:e&#45;&gt;n2:w</title>
<path fill="none" stroke="black" stroke-width="3" d="M1607.45,-151.92C1622.81,-151.92 1623.99,-135.95 1632.71,-128.46"/>
<polygon fill="black" stroke="black" stroke-width="3" points="1630.9,-132.81 1639.17,-126.18 1628.57,-126.21 1630.9,-132.81"/>
</g>
<!-- n3&#45;&gt;x2 -->
<g id="edge14" class="edge">
<title>n3:e&#45;&gt;x2:w</title>
<path fill="none" stroke="black" d="M729.75,-196.67C764.77,-196.67 769.5,-166.46 798.13,-160.09"/>
<polygon fill="black" stroke="black" points="798.25,-163.6 807.84,-159.08 797.53,-156.64 798.25,-163.6"/>
</g>
<!-- n3&#45;&gt;x4 -->
<g id="edge15" class="edge">
<title>n3:e&#45;&gt;x4:w</title>
<path fill="none" stroke="black" d="M729.75,-196.67C761.93,-196.67 771.08,-211.02 798.05,-214.27"/>
<polygon fill="black" stroke="black" points="797.65,-217.75 807.83,-214.83 798.05,-210.77 797.65,-217.75"/>
</g>
</g>
</svg>
