<?xml version="1.0" encoding="UTF-8" standalone="no"?>
<!DOCTYPE svg PUBLIC "-//W3C//DTD SVG 1.1//EN"
 "http://www.w3.org/Graphics/SVG/1.1/DTD/svg11.dtd">
<!-- Generated by graphviz version 12.2.1 (20241206.2353)
 -->
<!-- Title: top Pages: 1 -->
<svg width="3701pt" height="890pt"
 viewBox="0.00 0.00 3700.86 889.75" xmlns="http://www.w3.org/2000/svg" xmlns:xlink="http://www.w3.org/1999/xlink">
<g id="graph0" class="graph" transform="scale(1 1) rotate(0) translate(4 885.75)">
<title>top</title>
<polygon fill="white" stroke="none" points="-4,4 -4,-885.75 3696.86,-885.75 3696.86,4 -4,4"/>
<text text-anchor="middle" x="1846.43" y="-7.2" font-family="Times,serif" font-size="14.00">top</text>
<!-- n7 -->
<g id="node1" class="node">
<title>n7</title>
<polygon fill="none" stroke="black" points="552.54,-421.75 468.34,-403.75 552.54,-385.75 636.75,-403.75 552.54,-421.75"/>
<text text-anchor="middle" x="552.54" y="-398.7" font-family="Times,serif" font-size="14.00">expr_979986</text>
</g>
<!-- x0 -->
<g id="node11" class="node">
<title>x0</title>
<path fill="none" stroke="black" d="M684.75,-386.75C684.75,-386.75 723.25,-386.75 723.25,-386.75 729.25,-386.75 735.25,-392.75 735.25,-398.75 735.25,-398.75 735.25,-472.75 735.25,-472.75 735.25,-478.75 729.25,-484.75 723.25,-484.75 723.25,-484.75 684.75,-484.75 684.75,-484.75 678.75,-484.75 672.75,-478.75 672.75,-472.75 672.75,-472.75 672.75,-398.75 672.75,-398.75 672.75,-392.75 678.75,-386.75 684.75,-386.75"/>
<text text-anchor="middle" x="704" y="-467.45" font-family="Times,serif" font-size="14.00">2:0 &#45; 6:4</text>
<polyline fill="none" stroke="black" points="672.75,-460.25 735.25,-460.25"/>
<text text-anchor="middle" x="704" y="-442.95" font-family="Times,serif" font-size="14.00">3:3 &#45; 3:3</text>
<polyline fill="none" stroke="black" points="672.75,-435.75 735.25,-435.75"/>
<text text-anchor="middle" x="704" y="-418.45" font-family="Times,serif" font-size="14.00">1:0 &#45; 2:1</text>
<polyline fill="none" stroke="black" points="672.75,-411.25 735.25,-411.25"/>
<text text-anchor="middle" x="704" y="-393.95" font-family="Times,serif" font-size="14.00">0:0 &#45; 0:0</text>
</g>
<!-- n7&#45;&gt;x0 -->
<g id="edge82" class="edge">
<title>n7:e&#45;&gt;x0:w</title>
<path fill="none" stroke="black" d="M636.75,-403.75C648.35,-403.75 653.53,-401.3 661.52,-399.92"/>
<polygon fill="black" stroke="black" points="661.56,-403.42 671.24,-399.12 660.99,-396.45 661.56,-403.42"/>
</g>
<!-- x7 -->
<g id="node19" class="node">
<title>x7</title>
<path fill="none" stroke="black" d="M684.75,-504.25C684.75,-504.25 723.25,-504.25 723.25,-504.25 729.25,-504.25 735.25,-510.25 735.25,-516.25 735.25,-516.25 735.25,-541.25 735.25,-541.25 735.25,-547.25 729.25,-553.25 723.25,-553.25 723.25,-553.25 684.75,-553.25 684.75,-553.25 678.75,-553.25 672.75,-547.25 672.75,-541.25 672.75,-541.25 672.75,-516.25 672.75,-516.25 672.75,-510.25 678.75,-504.25 684.75,-504.25"/>
<text text-anchor="middle" x="704" y="-535.95" font-family="Times,serif" font-size="14.00">3:3 &#45; 1:1</text>
<polyline fill="none" stroke="black" points="672.75,-528.75 735.25,-528.75"/>
<text text-anchor="middle" x="704" y="-511.45" font-family="Times,serif" font-size="14.00">0:0 &#45; 0:0</text>
</g>
<!-- n7&#45;&gt;x7 -->
<g id="edge87" class="edge">
<title>n7:e&#45;&gt;x7:w</title>
<path fill="none" stroke="black" d="M636.75,-403.75C684.83,-403.75 631.14,-497.95 661.73,-514.15"/>
<polygon fill="black" stroke="black" points="660.76,-517.52 671.27,-516.18 662.22,-510.67 660.76,-517.52"/>
</g>
<!-- x10 -->
<g id="node23" class="node">
<title>x10</title>
<path fill="none" stroke="black" d="M684.75,-223.25C684.75,-223.25 723.25,-223.25 723.25,-223.25 729.25,-223.25 735.25,-229.25 735.25,-235.25 735.25,-235.25 735.25,-260.25 735.25,-260.25 735.25,-266.25 729.25,-272.25 723.25,-272.25 723.25,-272.25 684.75,-272.25 684.75,-272.25 678.75,-272.25 672.75,-266.25 672.75,-260.25 672.75,-260.25 672.75,-235.25 672.75,-235.25 672.75,-229.25 678.75,-223.25 684.75,-223.25"/>
<text text-anchor="middle" x="704" y="-254.95" font-family="Times,serif" font-size="14.00">3:3 &#45; 1:1</text>
<polyline fill="none" stroke="black" points="672.75,-247.75 735.25,-247.75"/>
<text text-anchor="middle" x="704" y="-230.45" font-family="Times,serif" font-size="14.00">0:0 &#45; 0:0</text>
</g>
<!-- n7&#45;&gt;x10 -->
<g id="edge83" class="edge">
<title>n7:e&#45;&gt;x10:w</title>
<path fill="none" stroke="black" d="M636.75,-403.75C708.89,-403.75 608.9,-254.02 661.54,-237.06"/>
<polygon fill="black" stroke="black" points="661.82,-240.55 671.25,-235.71 660.86,-233.62 661.82,-240.55"/>
</g>
<!-- x18 -->
<g id="node36" class="node">
<title>x18</title>
<path fill="none" stroke="black" d="M684.75,-572.75C684.75,-572.75 723.25,-572.75 723.25,-572.75 729.25,-572.75 735.25,-578.75 735.25,-584.75 735.25,-584.75 735.25,-658.75 735.25,-658.75 735.25,-664.75 729.25,-670.75 723.25,-670.75 723.25,-670.75 684.75,-670.75 684.75,-670.75 678.75,-670.75 672.75,-664.75 672.75,-658.75 672.75,-658.75 672.75,-584.75 672.75,-584.75 672.75,-578.75 678.75,-572.75 684.75,-572.75"/>
<text text-anchor="middle" x="704" y="-653.45" font-family="Times,serif" font-size="14.00">2:0 &#45; 6:4</text>
<polyline fill="none" stroke="black" points="672.75,-646.25 735.25,-646.25"/>
<text text-anchor="middle" x="704" y="-628.95" font-family="Times,serif" font-size="14.00">3:3 &#45; 3:3</text>
<polyline fill="none" stroke="black" points="672.75,-621.75 735.25,-621.75"/>
<text text-anchor="middle" x="704" y="-604.45" font-family="Times,serif" font-size="14.00">1:0 &#45; 2:1</text>
<polyline fill="none" stroke="black" points="672.75,-597.25 735.25,-597.25"/>
<text text-anchor="middle" x="704" y="-579.95" font-family="Times,serif" font-size="14.00">0:0 &#45; 0:0</text>
</g>
<!-- n7&#45;&gt;x18 -->
<g id="edge84" class="edge">
<title>n7:e&#45;&gt;x18:w</title>
<path fill="none" stroke="black" d="M636.75,-403.75C714.54,-403.75 603.56,-566.39 661.45,-583.54"/>
<polygon fill="black" stroke="black" points="660.88,-587 671.25,-584.81 661.78,-580.05 660.88,-587"/>
</g>
<!-- x21 -->
<g id="node41" class="node">
<title>x21</title>
<path fill="none" stroke="black" d="M684.75,-105.75C684.75,-105.75 723.25,-105.75 723.25,-105.75 729.25,-105.75 735.25,-111.75 735.25,-117.75 735.25,-117.75 735.25,-191.75 735.25,-191.75 735.25,-197.75 729.25,-203.75 723.25,-203.75 723.25,-203.75 684.75,-203.75 684.75,-203.75 678.75,-203.75 672.75,-197.75 672.75,-191.75 672.75,-191.75 672.75,-117.75 672.75,-117.75 672.75,-111.75 678.75,-105.75 684.75,-105.75"/>
<text text-anchor="middle" x="704" y="-186.45" font-family="Times,serif" font-size="14.00">2:0 &#45; 6:4</text>
<polyline fill="none" stroke="black" points="672.75,-179.25 735.25,-179.25"/>
<text text-anchor="middle" x="704" y="-161.95" font-family="Times,serif" font-size="14.00">3:3 &#45; 3:3</text>
<polyline fill="none" stroke="black" points="672.75,-154.75 735.25,-154.75"/>
<text text-anchor="middle" x="704" y="-137.45" font-family="Times,serif" font-size="14.00">1:0 &#45; 2:1</text>
<polyline fill="none" stroke="black" points="672.75,-130.25 735.25,-130.25"/>
<text text-anchor="middle" x="704" y="-112.95" font-family="Times,serif" font-size="14.00">0:0 &#45; 0:0</text>
</g>
<!-- n7&#45;&gt;x21 -->
<g id="edge85" class="edge">
<title>n7:e&#45;&gt;x21:w</title>
<path fill="none" stroke="black" d="M636.75,-403.75C696.5,-403.75 620.28,-154.69 661.97,-121.61"/>
<polygon fill="black" stroke="black" points="662.94,-124.98 671.31,-118.48 660.72,-118.34 662.94,-124.98"/>
</g>
<!-- x28 -->
<g id="node49" class="node">
<title>x28</title>
<path fill="none" stroke="black" d="M684.75,-754.75C684.75,-754.75 723.25,-754.75 723.25,-754.75 729.25,-754.75 735.25,-760.75 735.25,-766.75 735.25,-766.75 735.25,-840.75 735.25,-840.75 735.25,-846.75 729.25,-852.75 723.25,-852.75 723.25,-852.75 684.75,-852.75 684.75,-852.75 678.75,-852.75 672.75,-846.75 672.75,-840.75 672.75,-840.75 672.75,-766.75 672.75,-766.75 672.75,-760.75 678.75,-754.75 684.75,-754.75"/>
<text text-anchor="middle" x="704" y="-835.45" font-family="Times,serif" font-size="14.00">2:0 &#45; 6:4</text>
<polyline fill="none" stroke="black" points="672.75,-828.25 735.25,-828.25"/>
<text text-anchor="middle" x="704" y="-810.95" font-family="Times,serif" font-size="14.00">3:3 &#45; 3:3</text>
<polyline fill="none" stroke="black" points="672.75,-803.75 735.25,-803.75"/>
<text text-anchor="middle" x="704" y="-786.45" font-family="Times,serif" font-size="14.00">1:0 &#45; 2:1</text>
<polyline fill="none" stroke="black" points="672.75,-779.25 735.25,-779.25"/>
<text text-anchor="middle" x="704" y="-761.95" font-family="Times,serif" font-size="14.00">0:0 &#45; 0:0</text>
</g>
<!-- n7&#45;&gt;x28 -->
<g id="edge86" class="edge">
<title>n7:e&#45;&gt;x28:w</title>
<path fill="none" stroke="black" d="M636.75,-403.75C713.74,-403.75 603.91,-731.04 661.94,-764.28"/>
<polygon fill="black" stroke="black" points="660.73,-767.59 671.28,-766.63 662.43,-760.8 660.73,-767.59"/>
</g>
<!-- n8 -->
<g id="node2" class="node">
<title>n8</title>
<polygon fill="none" stroke="black" points="107.84,-393.29 107.84,-408.21 76.26,-418.75 31.59,-418.75 0,-408.21 0,-393.29 31.59,-382.75 76.26,-382.75 107.84,-393.29"/>
<text text-anchor="middle" x="53.92" y="-395.7" font-family="Times,serif" font-size="14.00">input_data</text>
</g>
<!-- n8&#45;&gt;x0 -->
<g id="edge90" class="edge">
<title>n8:e&#45;&gt;x0:w</title>
<path fill="none" stroke="black" d="M107.84,-400.75C128.11,-400.75 125.2,-420.79 143.84,-428.75 203.03,-454 222.74,-449.75 287.09,-449.75 287.09,-449.75 287.09,-449.75 402.09,-449.75 518.51,-449.75 550.42,-448.11 661.39,-448.01"/>
<polygon fill="black" stroke="black" points="661.23,-451.51 671.23,-448 661.23,-444.51 661.23,-451.51"/>
</g>
<!-- x3 -->
<g id="node13" class="node">
<title>x3</title>
<path fill="none" stroke="black" d="M155.84,-382.75C155.84,-382.75 194.34,-382.75 194.34,-382.75 200.34,-382.75 206.34,-388.75 206.34,-394.75 206.34,-394.75 206.34,-406.75 206.34,-406.75 206.34,-412.75 200.34,-418.75 194.34,-418.75 194.34,-418.75 155.84,-418.75 155.84,-418.75 149.84,-418.75 143.84,-412.75 143.84,-406.75 143.84,-406.75 143.84,-394.75 143.84,-394.75 143.84,-388.75 149.84,-382.75 155.84,-382.75"/>
<text text-anchor="middle" x="175.09" y="-395.95" font-family="Times,serif" font-size="14.00">0:0 &#45; 0:0</text>
</g>
<!-- n8&#45;&gt;x3 -->
<g id="edge97" class="edge">
<title>n8:e&#45;&gt;x3:w</title>
<path fill="none" stroke="black" d="M107.84,-400.75C119.22,-400.75 124.53,-400.88 132.39,-400.95"/>
<polygon fill="black" stroke="black" points="132.31,-404.45 142.33,-400.99 132.34,-397.45 132.31,-404.45"/>
</g>
<!-- c19 -->
<g id="node15" class="node">
<title>c19</title>
<polygon fill="none" stroke="black" points="2015.35,-400.25 2015.35,-449.25 2107.6,-449.25 2107.6,-400.25 2015.35,-400.25"/>
<text text-anchor="middle" x="2028.22" y="-431.95" font-family="Times,serif" font-size="14.00">A</text>
<polyline fill="none" stroke="black" points="2015.35,-424.75 2041.1,-424.75"/>
<text text-anchor="middle" x="2028.22" y="-407.45" font-family="Times,serif" font-size="14.00">B</text>
<polyline fill="none" stroke="black" points="2041.1,-400.25 2041.1,-449.25"/>
<text text-anchor="middle" x="2061.47" y="-427.95" font-family="Times,serif" font-size="14.00">$48</text>
<text text-anchor="middle" x="2061.47" y="-411.45" font-family="Times,serif" font-size="14.00">$xor</text>
<polyline fill="none" stroke="black" points="2081.85,-400.25 2081.85,-449.25"/>
<text text-anchor="middle" x="2094.72" y="-419.95" font-family="Times,serif" font-size="14.00">Y</text>
</g>
<!-- n8&#45;&gt;c19 -->
<g id="edge88" class="edge">
<title>n8:e&#45;&gt;c19:w</title>
<path fill="none" stroke="black" stroke-width="3" d="M107.84,-400.75C127.84,-400.75 125.36,-381.4 143.84,-373.75 263.51,-324.23 305.57,-359.25 432.34,-332.75 448.6,-329.35 451.95,-325.39 468.34,-322.75 622.06,-297.98 662.55,-305.75 818.25,-305.75 818.25,-305.75 818.25,-305.75 951.12,-305.75 1240.8,-305.75 1314.61,-299.2 1602.35,-332.75 1645.96,-337.84 1930.88,-403.75 2003.98,-411.71"/>
<polygon fill="black" stroke="black" stroke-width="3" points="2000.6,-414.99 2010.82,-412.19 2001.08,-408.01 2000.6,-414.99"/>
</g>
<!-- n8&#45;&gt;x7 -->
<g id="edge98" class="edge">
<title>n8:e&#45;&gt;x7:w</title>
<path fill="none" stroke="black" d="M107.84,-400.75C135.95,-400.75 123.48,-433.37 143.84,-452.75 198.14,-504.42 212.14,-541.75 287.09,-541.75 287.09,-541.75 287.09,-541.75 402.09,-541.75 518.51,-541.75 550.42,-541.05 661.39,-541"/>
<polygon fill="black" stroke="black" points="661.23,-544.5 671.23,-541 661.23,-537.5 661.23,-544.5"/>
</g>
<!-- n8&#45;&gt;x10 -->
<g id="edge91" class="edge">
<title>n8:e&#45;&gt;x10:w</title>
<path fill="none" stroke="black" d="M107.84,-400.75C140.09,-400.75 118.28,-357.41 143.84,-337.75 329.15,-195.24 431.81,-257.89 661.37,-259.95"/>
<polygon fill="black" stroke="black" points="661.22,-263.45 671.23,-259.99 661.25,-256.45 661.22,-263.45"/>
</g>
<!-- c24 -->
<g id="node35" class="node">
<title>c24</title>
<polygon fill="none" stroke="black" points="778.37,-608.25 778.37,-657.25 860.12,-657.25 860.12,-608.25 778.37,-608.25"/>
<text text-anchor="middle" x="791.25" y="-639.95" font-family="Times,serif" font-size="14.00">A</text>
<polyline fill="none" stroke="black" points="778.37,-632.75 804.12,-632.75"/>
<text text-anchor="middle" x="791.25" y="-615.45" font-family="Times,serif" font-size="14.00">B</text>
<polyline fill="none" stroke="black" points="804.12,-608.25 804.12,-657.25"/>
<text text-anchor="middle" x="819.25" y="-635.95" font-family="Times,serif" font-size="14.00">$3</text>
<text text-anchor="middle" x="819.25" y="-619.45" font-family="Times,serif" font-size="14.00">$lt</text>
<polyline fill="none" stroke="black" points="834.37,-608.25 834.37,-657.25"/>
<text text-anchor="middle" x="847.25" y="-627.95" font-family="Times,serif" font-size="14.00">Y</text>
</g>
<!-- n8&#45;&gt;c24 -->
<g id="edge89" class="edge">
<title>n8:e&#45;&gt;c24:w</title>
<path fill="none" stroke="black" stroke-width="3" d="M107.84,-400.75C181.6,-400.75 110.45,-496.99 143.84,-562.75 187.51,-648.74 190.65,-725.75 287.09,-725.75 287.09,-725.75 287.09,-725.75 553.54,-725.75 636.74,-725.75 661.49,-719.23 735.25,-680.75 752.93,-671.52 753.48,-653.69 766.23,-647.33"/>
<polygon fill="black" stroke="black" stroke-width="3" points="763.85,-651.4 772.93,-645.93 762.42,-644.55 763.85,-651.4"/>
</g>
<!-- n8&#45;&gt;x18 -->
<g id="edge92" class="edge">
<title>n8:e&#45;&gt;x18:w</title>
<path fill="none" stroke="black" d="M107.84,-400.75C153.83,-400.75 118.51,-459.37 143.84,-497.75 192.2,-571.02 199.3,-633.75 287.09,-633.75 287.09,-633.75 287.09,-633.75 402.09,-633.75 518.51,-633.75 550.42,-633.98 661.39,-634"/>
<polygon fill="black" stroke="black" points="661.23,-637.5 671.23,-634 661.23,-630.5 661.23,-637.5"/>
</g>
<!-- n8&#45;&gt;x21 -->
<g id="edge93" class="edge">
<title>n8:e&#45;&gt;x21:w</title>
<path fill="none" stroke="black" d="M107.84,-400.75C158.02,-400.75 110.72,-331.44 143.84,-293.75 175.99,-257.17 196.67,-262.65 242.34,-245.75 421.07,-179.62 476.08,-167.47 661.23,-167.01"/>
<polygon fill="black" stroke="black" points="661.24,-170.51 671.23,-167 661.23,-163.51 661.24,-170.51"/>
</g>
<!-- x24 -->
<g id="node42" class="node">
<title>x24</title>
<path fill="none" stroke="black" d="M155.84,-25C155.84,-25 194.34,-25 194.34,-25 200.34,-25 206.34,-31 206.34,-37 206.34,-37 206.34,-86.5 206.34,-86.5 206.34,-92.5 200.34,-98.5 194.34,-98.5 194.34,-98.5 155.84,-98.5 155.84,-98.5 149.84,-98.5 143.84,-92.5 143.84,-86.5 143.84,-86.5 143.84,-37 143.84,-37 143.84,-31 149.84,-25 155.84,-25"/>
<text text-anchor="middle" x="175.09" y="-81.2" font-family="Times,serif" font-size="14.00">2:0 &#45; 4:2</text>
<polyline fill="none" stroke="black" points="143.84,-74 206.34,-74"/>
<text text-anchor="middle" x="175.09" y="-56.7" font-family="Times,serif" font-size="14.00">3:3 &#45; 1:1</text>
<polyline fill="none" stroke="black" points="143.84,-49.5 206.34,-49.5"/>
<text text-anchor="middle" x="175.09" y="-32.2" font-family="Times,serif" font-size="14.00">1 &#45;&gt; 0:0</text>
</g>
<!-- n8&#45;&gt;x24 -->
<g id="edge94" class="edge">
<title>n8:e&#45;&gt;x24:w</title>
<path fill="none" stroke="black" d="M107.84,-400.75C179.45,-400.75 80.15,-97.81 133.07,-64.68"/>
<polygon fill="black" stroke="black" points="133.65,-68.15 142.38,-62.15 131.81,-61.39 133.65,-68.15"/>
</g>
<!-- n8&#45;&gt;x28 -->
<g id="edge95" class="edge">
<title>n8:e&#45;&gt;x28:w</title>
<path fill="none" stroke="black" d="M107.84,-400.75C183.6,-400.75 101.76,-676.76 143.84,-739.75 184.11,-800.03 214.6,-817.75 287.09,-817.75 287.09,-817.75 287.09,-817.75 402.09,-817.75 518.51,-817.75 550.42,-816.11 661.39,-816.01"/>
<polygon fill="black" stroke="black" points="661.23,-819.51 671.23,-816 661.23,-812.51 661.23,-819.51"/>
</g>
<!-- x37 -->
<g id="node58" class="node">
<title>x37</title>
<path fill="none" stroke="black" d="M155.84,-118C155.84,-118 194.34,-118 194.34,-118 200.34,-118 206.34,-124 206.34,-130 206.34,-130 206.34,-179.5 206.34,-179.5 206.34,-185.5 200.34,-191.5 194.34,-191.5 194.34,-191.5 155.84,-191.5 155.84,-191.5 149.84,-191.5 143.84,-185.5 143.84,-179.5 143.84,-179.5 143.84,-130 143.84,-130 143.84,-124 149.84,-118 155.84,-118"/>
<text text-anchor="middle" x="175.09" y="-174.2" font-family="Times,serif" font-size="14.00">4:0 &#45; 7:3</text>
<polyline fill="none" stroke="black" points="143.84,-167 206.34,-167"/>
<text text-anchor="middle" x="175.09" y="-149.7" font-family="Times,serif" font-size="14.00">3:3 &#45; 2:2</text>
<polyline fill="none" stroke="black" points="143.84,-142.5 206.34,-142.5"/>
<text text-anchor="middle" x="175.09" y="-125.2" font-family="Times,serif" font-size="14.00">1:0 &#45; 1:0</text>
</g>
<!-- n8&#45;&gt;x37 -->
<g id="edge96" class="edge">
<title>n8:e&#45;&gt;x37:w</title>
<path fill="none" stroke="black" d="M107.84,-400.75C158.99,-400.75 98.94,-189.91 133.58,-158.61"/>
<polygon fill="black" stroke="black" points="134.3,-162.08 142.42,-155.28 131.83,-155.53 134.3,-162.08"/>
</g>
<!-- n9 -->
<g id="node3" class="node">
<title>n9</title>
<polygon fill="none" stroke="black" points="3337.2,-498.29 3337.2,-513.21 3302.69,-523.75 3253.89,-523.75 3219.38,-513.21 3219.38,-498.29 3253.89,-487.75 3302.69,-487.75 3337.2,-498.29"/>
<text text-anchor="middle" x="3278.29" y="-500.7" font-family="Times,serif" font-size="14.00">output_data</text>
</g>
<!-- x33 -->
<g id="node52" class="node">
<title>x33</title>
<path fill="none" stroke="black" d="M3385.2,-497.75C3385.2,-497.75 3430.45,-497.75 3430.45,-497.75 3436.45,-497.75 3442.45,-503.75 3442.45,-509.75 3442.45,-509.75 3442.45,-521.75 3442.45,-521.75 3442.45,-527.75 3436.45,-533.75 3430.45,-533.75 3430.45,-533.75 3385.2,-533.75 3385.2,-533.75 3379.2,-533.75 3373.2,-527.75 3373.2,-521.75 3373.2,-521.75 3373.2,-509.75 3373.2,-509.75 3373.2,-503.75 3379.2,-497.75 3385.2,-497.75"/>
<text text-anchor="middle" x="3407.82" y="-510.95" font-family="Times,serif" font-size="14.00">12:6 &#45; 6:0</text>
</g>
<!-- n9&#45;&gt;x33 -->
<g id="edge105" class="edge">
<title>n9:e&#45;&gt;x33:w</title>
<path fill="none" stroke="black" stroke-width="3" d="M3337.2,-505.75C3349.28,-505.75 3354.03,-511.16 3362.1,-514.12"/>
<polygon fill="black" stroke="black" stroke-width="3" points="3358.28,-517.02 3368.72,-515.24 3359.44,-510.12 3358.28,-517.02"/>
</g>
<!-- n10 -->
<g id="node4" class="node">
<title>n10</title>
<polygon fill="none" stroke="black" points="1088.25,-614.75 1033,-596.75 1088.25,-578.75 1143.5,-596.75 1088.25,-614.75"/>
<text text-anchor="middle" x="1088.25" y="-591.7" font-family="Times,serif" font-size="14.00">temp_1</text>
</g>
<!-- c26 -->
<g id="node44" class="node">
<title>c26</title>
<polygon fill="none" stroke="black" points="1638.35,-467.25 1638.35,-516.25 1734.35,-516.25 1734.35,-467.25 1638.35,-467.25"/>
<text text-anchor="middle" x="1651.22" y="-498.95" font-family="Times,serif" font-size="14.00">A</text>
<polyline fill="none" stroke="black" points="1638.35,-491.75 1664.1,-491.75"/>
<text text-anchor="middle" x="1651.22" y="-474.45" font-family="Times,serif" font-size="14.00">B</text>
<polyline fill="none" stroke="black" points="1664.1,-467.25 1664.1,-516.25"/>
<text text-anchor="middle" x="1686.35" y="-494.95" font-family="Times,serif" font-size="14.00">$8</text>
<text text-anchor="middle" x="1686.35" y="-478.45" font-family="Times,serif" font-size="14.00">$mul</text>
<polyline fill="none" stroke="black" points="1708.6,-467.25 1708.6,-516.25"/>
<text text-anchor="middle" x="1721.47" y="-486.95" font-family="Times,serif" font-size="14.00">Y</text>
</g>
<!-- n10&#45;&gt;c26 -->
<g id="edge38" class="edge">
<title>n10:e&#45;&gt;c26:w</title>
<path fill="none" stroke="black" stroke-width="3" d="M1143.5,-596.75C1222.33,-596.75 1242.04,-596.75 1320.87,-596.75 1320.87,-596.75 1320.87,-596.75 1503.05,-596.75 1555.8,-596.75 1564.61,-568.6 1602.35,-531.75 1619.21,-515.28 1613.33,-489.83 1627.42,-481.93"/>
<polygon fill="black" stroke="black" stroke-width="3" points="1624.91,-486.07 1633.91,-480.48 1623.39,-479.24 1624.91,-486.07"/>
</g>
<!-- n11 -->
<g id="node5" class="node">
<title>n11</title>
<polygon fill="none" stroke="black" points="1825.6,-509.75 1770.35,-491.75 1825.6,-473.75 1880.85,-491.75 1825.6,-509.75"/>
<text text-anchor="middle" x="1825.6" y="-486.7" font-family="Times,serif" font-size="14.00">temp_2</text>
</g>
<!-- x5 -->
<g id="node16" class="node">
<title>x5</title>
<path fill="none" stroke="black" d="M1928.85,-418.75C1928.85,-418.75 1967.35,-418.75 1967.35,-418.75 1973.35,-418.75 1979.35,-424.75 1979.35,-430.75 1979.35,-430.75 1979.35,-442.75 1979.35,-442.75 1979.35,-448.75 1973.35,-454.75 1967.35,-454.75 1967.35,-454.75 1928.85,-454.75 1928.85,-454.75 1922.85,-454.75 1916.85,-448.75 1916.85,-442.75 1916.85,-442.75 1916.85,-430.75 1916.85,-430.75 1916.85,-424.75 1922.85,-418.75 1928.85,-418.75"/>
<text text-anchor="middle" x="1948.1" y="-431.95" font-family="Times,serif" font-size="14.00">3:0 &#45; 3:0</text>
</g>
<!-- n11&#45;&gt;x5 -->
<g id="edge44" class="edge">
<title>n11:e&#45;&gt;x5:w</title>
<path fill="none" stroke="black" stroke-width="3" d="M1880.85,-491.75C1905.19,-491.75 1893.64,-453.49 1906.21,-440.94"/>
<polygon fill="black" stroke="black" stroke-width="3" points="1904.43,-445.33 1912.59,-438.58 1902,-438.76 1904.43,-445.33"/>
</g>
<!-- x16 -->
<g id="node31" class="node">
<title>x16</title>
<path fill="none" stroke="black" d="M2867.85,-419.75C2867.85,-419.75 2906.35,-419.75 2906.35,-419.75 2912.35,-419.75 2918.35,-425.75 2918.35,-431.75 2918.35,-431.75 2918.35,-505.75 2918.35,-505.75 2918.35,-511.75 2912.35,-517.75 2906.35,-517.75 2906.35,-517.75 2867.85,-517.75 2867.85,-517.75 2861.85,-517.75 2855.85,-511.75 2855.85,-505.75 2855.85,-505.75 2855.85,-431.75 2855.85,-431.75 2855.85,-425.75 2861.85,-419.75 2867.85,-419.75"/>
<text text-anchor="middle" x="2887.1" y="-500.45" font-family="Times,serif" font-size="14.00">4:4 &#45; 3:3</text>
<polyline fill="none" stroke="black" points="2855.85,-493.25 2918.35,-493.25"/>
<text text-anchor="middle" x="2887.1" y="-475.95" font-family="Times,serif" font-size="14.00">3:3 &#45; 2:2</text>
<polyline fill="none" stroke="black" points="2855.85,-468.75 2918.35,-468.75"/>
<text text-anchor="middle" x="2887.1" y="-451.45" font-family="Times,serif" font-size="14.00">1:1 &#45; 1:1</text>
<polyline fill="none" stroke="black" points="2855.85,-444.25 2918.35,-444.25"/>
<text text-anchor="middle" x="2887.1" y="-426.95" font-family="Times,serif" font-size="14.00">0:0 &#45; 0:0</text>
</g>
<!-- n11&#45;&gt;x16 -->
<g id="edge40" class="edge">
<title>n11:e&#45;&gt;x16:w</title>
<path fill="none" stroke="black" d="M1880.85,-491.75C1920.65,-491.75 1885.75,-434.59 1916.85,-409.75 1972.95,-364.96 1680.88,-300.75 2529.97,-300.75 2529.97,-300.75 2529.97,-300.75 2643.1,-300.75 2746.13,-300.75 2751.58,-373.59 2819.85,-450.75 2836.13,-469.15 2829.84,-495.48 2844.96,-503.26"/>
<polygon fill="black" stroke="black" points="2843.87,-506.6 2854.37,-505.19 2845.28,-499.75 2843.87,-506.6"/>
</g>
<!-- x31 -->
<g id="node50" class="node">
<title>x31</title>
<path fill="none" stroke="black" d="M2867.85,-537.25C2867.85,-537.25 2906.35,-537.25 2906.35,-537.25 2912.35,-537.25 2918.35,-543.25 2918.35,-549.25 2918.35,-549.25 2918.35,-672.25 2918.35,-672.25 2918.35,-678.25 2912.35,-684.25 2906.35,-684.25 2906.35,-684.25 2867.85,-684.25 2867.85,-684.25 2861.85,-684.25 2855.85,-678.25 2855.85,-672.25 2855.85,-672.25 2855.85,-549.25 2855.85,-549.25 2855.85,-543.25 2861.85,-537.25 2867.85,-537.25"/>
<text text-anchor="middle" x="2887.1" y="-666.95" font-family="Times,serif" font-size="14.00">1 &#45;&gt; 5:5</text>
<polyline fill="none" stroke="black" points="2855.85,-659.75 2918.35,-659.75"/>
<text text-anchor="middle" x="2887.1" y="-642.45" font-family="Times,serif" font-size="14.00">4:4 &#45; 4:4</text>
<polyline fill="none" stroke="black" points="2855.85,-635.25 2918.35,-635.25"/>
<text text-anchor="middle" x="2887.1" y="-617.95" font-family="Times,serif" font-size="14.00">3:3 &#45; 3:3</text>
<polyline fill="none" stroke="black" points="2855.85,-610.75 2918.35,-610.75"/>
<text text-anchor="middle" x="2887.1" y="-593.45" font-family="Times,serif" font-size="14.00">1 &#45;&gt; 2:2</text>
<polyline fill="none" stroke="black" points="2855.85,-586.25 2918.35,-586.25"/>
<text text-anchor="middle" x="2887.1" y="-568.95" font-family="Times,serif" font-size="14.00">1:1 &#45; 1:1</text>
<polyline fill="none" stroke="black" points="2855.85,-561.75 2918.35,-561.75"/>
<text text-anchor="middle" x="2887.1" y="-544.45" font-family="Times,serif" font-size="14.00">0:0 &#45; 0:0</text>
</g>
<!-- n11&#45;&gt;x31 -->
<g id="edge41" class="edge">
<title>n11:e&#45;&gt;x31:w</title>
<path fill="none" stroke="black" d="M1880.85,-491.75C1908.59,-491.75 1897.35,-523.01 1916.85,-542.75 1972.24,-598.81 1981.66,-646.75 2060.47,-646.75 2060.47,-646.75 2060.47,-646.75 2643.1,-646.75 2733.78,-646.75 2759.24,-647.44 2844.56,-647.5"/>
<polygon fill="black" stroke="black" points="2844.34,-651 2854.34,-647.5 2844.34,-644 2844.34,-651"/>
</g>
<!-- x45 -->
<g id="node64" class="node">
<title>x45</title>
<path fill="none" stroke="black" d="M1928.85,-473.75C1928.85,-473.75 1967.35,-473.75 1967.35,-473.75 1973.35,-473.75 1979.35,-479.75 1979.35,-485.75 1979.35,-485.75 1979.35,-497.75 1979.35,-497.75 1979.35,-503.75 1973.35,-509.75 1967.35,-509.75 1967.35,-509.75 1928.85,-509.75 1928.85,-509.75 1922.85,-509.75 1916.85,-503.75 1916.85,-497.75 1916.85,-497.75 1916.85,-485.75 1916.85,-485.75 1916.85,-479.75 1922.85,-473.75 1928.85,-473.75"/>
<text text-anchor="middle" x="1948.1" y="-486.95" font-family="Times,serif" font-size="14.00">5:4 &#45; 1:0</text>
</g>
<!-- n11&#45;&gt;x45 -->
<g id="edge42" class="edge">
<title>n11:e&#45;&gt;x45:w</title>
<path fill="none" stroke="black" stroke-width="3" d="M1880.85,-491.75C1892.22,-491.75 1897.53,-491.88 1905.4,-491.95"/>
<polygon fill="black" stroke="black" stroke-width="3" points="1902.29,-495.44 1912.31,-491.98 1902.32,-488.44 1902.29,-495.44"/>
</g>
<!-- x47 -->
<g id="node66" class="node">
<title>x47</title>
<path fill="none" stroke="black" d="M2400.6,-477.75C2400.6,-477.75 2439.1,-477.75 2439.1,-477.75 2445.1,-477.75 2451.1,-483.75 2451.1,-489.75 2451.1,-489.75 2451.1,-563.75 2451.1,-563.75 2451.1,-569.75 2445.1,-575.75 2439.1,-575.75 2439.1,-575.75 2400.6,-575.75 2400.6,-575.75 2394.6,-575.75 2388.6,-569.75 2388.6,-563.75 2388.6,-563.75 2388.6,-489.75 2388.6,-489.75 2388.6,-483.75 2394.6,-477.75 2400.6,-477.75"/>
<text text-anchor="middle" x="2419.85" y="-558.45" font-family="Times,serif" font-size="14.00">1 &#45;&gt; 3:3</text>
<polyline fill="none" stroke="black" points="2388.6,-551.25 2451.1,-551.25"/>
<text text-anchor="middle" x="2419.85" y="-533.95" font-family="Times,serif" font-size="14.00">4:4 &#45; 2:2</text>
<polyline fill="none" stroke="black" points="2388.6,-526.75 2451.1,-526.75"/>
<text text-anchor="middle" x="2419.85" y="-509.45" font-family="Times,serif" font-size="14.00">1 &#45;&gt; 1:1</text>
<polyline fill="none" stroke="black" points="2388.6,-502.25 2451.1,-502.25"/>
<text text-anchor="middle" x="2419.85" y="-484.95" font-family="Times,serif" font-size="14.00">1:1 &#45; 0:0</text>
</g>
<!-- n11&#45;&gt;x47 -->
<g id="edge43" class="edge">
<title>n11:e&#45;&gt;x47:w</title>
<path fill="none" stroke="black" d="M1880.85,-491.75C1901.12,-491.75 1898.15,-511.93 1916.85,-519.75 1976.25,-544.6 1996.08,-538.75 2060.47,-538.75 2060.47,-538.75 2060.47,-538.75 2175.85,-538.75 2266.53,-538.75 2291.99,-538.98 2377.31,-539"/>
<polygon fill="black" stroke="black" points="2377.09,-542.5 2387.09,-539 2377.09,-535.5 2377.09,-542.5"/>
</g>
<!-- n12 -->
<g id="node6" class="node">
<title>n12</title>
<polygon fill="none" stroke="black" points="2297.35,-462.75 2242.1,-444.75 2297.35,-426.75 2352.6,-444.75 2297.35,-462.75"/>
<text text-anchor="middle" x="2297.35" y="-439.7" font-family="Times,serif" font-size="14.00">temp_4</text>
</g>
<!-- x9 -->
<g id="node22" class="node">
<title>x9</title>
<path fill="none" stroke="black" d="M2400.6,-367.25C2400.6,-367.25 2439.1,-367.25 2439.1,-367.25 2445.1,-367.25 2451.1,-373.25 2451.1,-379.25 2451.1,-379.25 2451.1,-404.25 2451.1,-404.25 2451.1,-410.25 2445.1,-416.25 2439.1,-416.25 2439.1,-416.25 2400.6,-416.25 2400.6,-416.25 2394.6,-416.25 2388.6,-410.25 2388.6,-404.25 2388.6,-404.25 2388.6,-379.25 2388.6,-379.25 2388.6,-373.25 2394.6,-367.25 2400.6,-367.25"/>
<text text-anchor="middle" x="2419.85" y="-398.95" font-family="Times,serif" font-size="14.00">3:3 &#45; 1:1</text>
<polyline fill="none" stroke="black" points="2388.6,-391.75 2451.1,-391.75"/>
<text text-anchor="middle" x="2419.85" y="-374.45" font-family="Times,serif" font-size="14.00">0:0 &#45; 0:0</text>
</g>
<!-- n12&#45;&gt;x9 -->
<g id="edge50" class="edge">
<title>n12:e&#45;&gt;x9:w</title>
<path fill="none" stroke="black" d="M2352.6,-444.75C2381.06,-444.75 2362.73,-396.56 2378.03,-383.01"/>
<polygon fill="black" stroke="black" points="2378.78,-386.45 2387.16,-379.98 2376.57,-379.81 2378.78,-386.45"/>
</g>
<!-- n12&#45;&gt;x9 -->
<g id="edge51" class="edge">
<title>n12:e&#45;&gt;x9:w</title>
<path fill="none" stroke="black" d="M2352.6,-444.75C2372.05,-444.75 2367.86,-418.36 2378.07,-408.06"/>
<polygon fill="black" stroke="black" points="2379.11,-411.41 2387.19,-404.54 2376.6,-404.87 2379.11,-411.41"/>
</g>
<!-- n12&#45;&gt;x16 -->
<g id="edge47" class="edge">
<title>n12:e&#45;&gt;x16:w</title>
<path fill="none" stroke="black" d="M2352.6,-444.75C2572.5,-444.75 2630.17,-456.1 2844.53,-456.49"/>
<polygon fill="black" stroke="black" points="2844.33,-459.99 2854.34,-456.5 2844.34,-452.99 2844.33,-459.99"/>
</g>
<!-- n12&#45;&gt;x31 -->
<g id="edge48" class="edge">
<title>n12:e&#45;&gt;x31:w</title>
<path fill="none" stroke="black" d="M2352.6,-444.75C2417.28,-444.75 2340.88,-542.09 2388.6,-585.75 2435.57,-628.72 2466.32,-608.75 2529.97,-608.75 2529.97,-608.75 2529.97,-608.75 2643.1,-608.75 2734.98,-608.75 2758.18,-576.79 2844.43,-574.17"/>
<polygon fill="black" stroke="black" points="2844.39,-577.67 2854.34,-574.02 2844.29,-570.67 2844.39,-577.67"/>
</g>
<!-- n12&#45;&gt;x47 -->
<g id="edge49" class="edge">
<title>n12:e&#45;&gt;x47:w</title>
<path fill="none" stroke="black" d="M2352.6,-444.75C2373.48,-444.75 2367.23,-474.62 2377.94,-485.82"/>
<polygon fill="black" stroke="black" points="2376.6,-489.06 2387.19,-489.45 2379.16,-482.54 2376.6,-489.06"/>
</g>
<!-- n13 -->
<g id="node7" class="node">
<title>n13</title>
<polygon fill="none" stroke="black" points="2764.6,-539.75 2709.35,-521.75 2764.6,-503.75 2819.85,-521.75 2764.6,-539.75"/>
<text text-anchor="middle" x="2764.6" y="-516.7" font-family="Times,serif" font-size="14.00">temp_7</text>
</g>
<!-- n13&#45;&gt;x16 -->
<g id="edge56" class="edge">
<title>n13:e&#45;&gt;x16:w</title>
<path fill="none" stroke="black" d="M2819.85,-521.75C2858.13,-521.75 2822.69,-450.56 2844.84,-434.99"/>
<polygon fill="black" stroke="black" points="2845.65,-438.39 2854.39,-432.4 2843.82,-431.64 2845.65,-438.39"/>
</g>
<!-- n13&#45;&gt;x16 -->
<g id="edge57" class="edge">
<title>n13:e&#45;&gt;x16:w</title>
<path fill="none" stroke="black" d="M2819.85,-521.75C2839.3,-521.75 2835.11,-495.36 2845.32,-485.06"/>
<polygon fill="black" stroke="black" points="2846.37,-488.41 2854.44,-481.54 2843.85,-481.87 2846.37,-488.41"/>
</g>
<!-- n13&#45;&gt;x31 -->
<g id="edge58" class="edge">
<title>n13:e&#45;&gt;x31:w</title>
<path fill="none" stroke="black" d="M2819.85,-521.75C2835.32,-521.75 2836.36,-538.02 2845.07,-545.64"/>
<polygon fill="black" stroke="black" points="2843.83,-548.92 2854.43,-548.99 2846.19,-542.33 2843.83,-548.92"/>
</g>
<!-- n13&#45;&gt;x31 -->
<g id="edge59" class="edge">
<title>n13:e&#45;&gt;x31:w</title>
<path fill="none" stroke="black" d="M2819.85,-521.75C2862.95,-521.75 2818.69,-604.19 2844.73,-620.29"/>
<polygon fill="black" stroke="black" points="2843.84,-623.68 2854.38,-622.64 2845.49,-616.88 2843.84,-623.68"/>
</g>
<!-- v1 -->
<g id="node8" class="node">
<title>v1</title>
<ellipse fill="none" stroke="black" cx="552.54" cy="-495.75" rx="30.88" ry="18"/>
<text text-anchor="middle" x="552.54" y="-490.7" font-family="Times,serif" font-size="14.00">3&#39;110</text>
</g>
<!-- v1&#45;&gt;x0 -->
<g id="edge106" class="edge">
<title>v1:e&#45;&gt;x0:w</title>
<path fill="none" stroke="black" stroke-width="3" d="M584.71,-495.75C621.07,-495.75 630.49,-476.98 661.38,-473.17"/>
<polygon fill="black" stroke="black" stroke-width="3" points="658.44,-476.85 668.21,-472.77 658.02,-469.86 658.44,-476.85"/>
</g>
<!-- v2 -->
<g id="node9" class="node">
<title>v2</title>
<ellipse fill="none" stroke="black" cx="552.54" cy="-349.75" rx="27" ry="18"/>
<text text-anchor="middle" x="552.54" y="-344.7" font-family="Times,serif" font-size="14.00">2&#39;10</text>
</g>
<!-- v2&#45;&gt;x0 -->
<g id="edge108" class="edge">
<title>v2:e&#45;&gt;x0:w</title>
<path fill="none" stroke="black" stroke-width="3" d="M580.8,-349.75C608.41,-349.75 615.31,-359.34 636.75,-376.75 653.45,-390.31 649.33,-413.08 661.78,-420.83"/>
<polygon fill="black" stroke="black" stroke-width="3" points="657.79,-423.46 668.33,-422.42 659.45,-416.66 657.79,-423.46"/>
</g>
<!-- c17 -->
<g id="node10" class="node">
<title>c17</title>
<polygon fill="none" stroke="black" points="903.25,-572.25 903.25,-621.25 997,-621.25 997,-572.25 903.25,-572.25"/>
<text text-anchor="middle" x="916.12" y="-603.95" font-family="Times,serif" font-size="14.00">A</text>
<polyline fill="none" stroke="black" points="903.25,-596.75 929,-596.75"/>
<text text-anchor="middle" x="916.12" y="-579.45" font-family="Times,serif" font-size="14.00">B</text>
<polyline fill="none" stroke="black" points="929,-572.25 929,-621.25"/>
<text text-anchor="middle" x="950.12" y="-599.95" font-family="Times,serif" font-size="14.00">$4</text>
<text text-anchor="middle" x="950.12" y="-583.45" font-family="Times,serif" font-size="14.00">$add</text>
<polyline fill="none" stroke="black" points="971.25,-572.25 971.25,-621.25"/>
<text text-anchor="middle" x="984.12" y="-591.95" font-family="Times,serif" font-size="14.00">Y</text>
</g>
<!-- c17&#45;&gt;n10 -->
<g id="edge37" class="edge">
<title>c17:e&#45;&gt;n10:w</title>
<path fill="none" stroke="black" stroke-width="3" d="M997,-597C1008.37,-597 1013.68,-596.87 1021.55,-596.8"/>
<polygon fill="black" stroke="black" stroke-width="3" points="1018.47,-600.31 1028.46,-596.77 1018.44,-593.31 1018.47,-600.31"/>
</g>
<!-- x0&#45;&gt;c17 -->
<g id="edge1" class="edge">
<title>x0:e&#45;&gt;c17:w</title>
<path fill="none" stroke="black" stroke-width="3" d="M747.86,-437.7C781.73,-450.58 732.94,-523.82 771.25,-558.75 812.13,-596.04 839.22,-586.35 890.44,-584.71"/>
<polygon fill="none" stroke="black" stroke-width="3" points="749.78,-438 743.24,-441.04 737.92,-436.16 744.46,-433.13 749.78,-438"/>
<polygon fill="none" stroke="black" stroke-width="3" points="888.54,-584.74 894.48,-580.64 900.54,-584.54 894.61,-588.64 888.54,-584.74"/>
</g>
<!-- c18 -->
<g id="node12" class="node">
<title>c18</title>
<polygon fill="none" stroke="black" points="242.34,-380.25 242.34,-421.25 333.84,-421.25 333.84,-380.25 242.34,-380.25"/>
<text text-anchor="middle" x="255.22" y="-395.95" font-family="Times,serif" font-size="14.00">A</text>
<polyline fill="none" stroke="black" points="268.09,-380.25 268.09,-421.25"/>
<text text-anchor="middle" x="288.09" y="-403.95" font-family="Times,serif" font-size="14.00">$40</text>
<text text-anchor="middle" x="288.09" y="-387.45" font-family="Times,serif" font-size="14.00">$not</text>
<polyline fill="none" stroke="black" points="308.09,-380.25 308.09,-421.25"/>
<text text-anchor="middle" x="320.97" y="-395.95" font-family="Times,serif" font-size="14.00">Y</text>
</g>
<!-- x4 -->
<g id="node14" class="node">
<title>x4</title>
<path fill="none" stroke="black" d="M381.84,-383.75C381.84,-383.75 420.34,-383.75 420.34,-383.75 426.34,-383.75 432.34,-389.75 432.34,-395.75 432.34,-395.75 432.34,-407.75 432.34,-407.75 432.34,-413.75 426.34,-419.75 420.34,-419.75 420.34,-419.75 381.84,-419.75 381.84,-419.75 375.84,-419.75 369.84,-413.75 369.84,-407.75 369.84,-407.75 369.84,-395.75 369.84,-395.75 369.84,-389.75 375.84,-383.75 381.84,-383.75"/>
<text text-anchor="middle" x="401.09" y="-396.95" font-family="Times,serif" font-size="14.00">0:0 &#45; 0:0</text>
</g>
<!-- c18&#45;&gt;x4 -->
<g id="edge3" class="edge">
<title>c18:e&#45;&gt;x4:w</title>
<path fill="none" stroke="black" d="M346.56,-401.19C350.16,-401.3 353.29,-401.44 356.87,-401.55"/>
<polygon fill="none" stroke="black" points="346.74,-401.19 340.68,-405.1 334.74,-401.01 340.8,-397.1 346.74,-401.19"/>
<polygon fill="none" stroke="black" points="356.94,-401.55 363,-397.65 368.94,-401.74 362.88,-405.64 356.94,-401.55"/>
</g>
<!-- x3&#45;&gt;c18 -->
<g id="edge2" class="edge">
<title>x3:e&#45;&gt;c18:w</title>
<path fill="none" stroke="black" d="M219.06,-400.81C222.66,-400.85 225.79,-400.9 229.37,-400.93"/>
<polygon fill="none" stroke="black" points="219.24,-400.81 213.22,-404.78 207.24,-400.75 213.26,-396.78 219.24,-400.81"/>
<polygon fill="none" stroke="black" points="229.44,-400.93 235.46,-396.97 241.44,-401 235.42,-404.96 229.44,-400.93"/>
</g>
<!-- x4&#45;&gt;n7 -->
<g id="edge81" class="edge">
<title>x4:e&#45;&gt;n7:w</title>
<path fill="none" stroke="black" d="M432.34,-402C443.73,-402 449.02,-402.88 456.89,-403.4"/>
<polygon fill="black" stroke="black" points="456.72,-406.89 466.83,-403.7 456.94,-399.9 456.72,-406.89"/>
</g>
<!-- x6 -->
<g id="node17" class="node">
<title>x6</title>
<path fill="none" stroke="black" d="M2155.6,-408.75C2155.6,-408.75 2194.1,-408.75 2194.1,-408.75 2200.1,-408.75 2206.1,-414.75 2206.1,-420.75 2206.1,-420.75 2206.1,-432.75 2206.1,-432.75 2206.1,-438.75 2200.1,-444.75 2194.1,-444.75 2194.1,-444.75 2155.6,-444.75 2155.6,-444.75 2149.6,-444.75 2143.6,-438.75 2143.6,-432.75 2143.6,-432.75 2143.6,-420.75 2143.6,-420.75 2143.6,-414.75 2149.6,-408.75 2155.6,-408.75"/>
<text text-anchor="middle" x="2174.85" y="-421.95" font-family="Times,serif" font-size="14.00">3:0 &#45; 3:0</text>
</g>
<!-- c19&#45;&gt;x6 -->
<g id="edge5" class="edge">
<title>c19:e&#45;&gt;x6:w</title>
<path fill="none" stroke="black" stroke-width="3" d="M2120.32,-425.44C2123.92,-425.7 2127.05,-426.03 2130.62,-426.29"/>
<polygon fill="none" stroke="black" stroke-width="3" points="2122.29,-425.51 2116.16,-429.3 2110.3,-425.09 2116.44,-421.3 2122.29,-425.51"/>
<polygon fill="none" stroke="black" stroke-width="3" points="2128.9,-426.23 2135.04,-422.44 2140.9,-426.65 2134.76,-430.44 2128.9,-426.23"/>
</g>
<!-- x5&#45;&gt;c19 -->
<g id="edge4" class="edge">
<title>x5:e&#45;&gt;c19:w</title>
<path fill="none" stroke="black" stroke-width="3" d="M1992.07,-436.81C1995.67,-436.85 1998.8,-436.9 2002.38,-436.93"/>
<polygon fill="none" stroke="black" stroke-width="3" points="1994.05,-436.82 1988.03,-440.79 1982.05,-436.76 1988.07,-432.79 1994.05,-436.82"/>
<polygon fill="none" stroke="black" stroke-width="3" points="2000.64,-436.93 2006.66,-432.96 2012.64,-436.99 2006.62,-440.96 2000.64,-436.93"/>
</g>
<!-- x6&#45;&gt;n12 -->
<g id="edge46" class="edge">
<title>x6:e&#45;&gt;n12:w</title>
<path fill="none" stroke="black" stroke-width="3" d="M2206.1,-427C2219.34,-427 2222.93,-436.78 2231.19,-441.82"/>
<polygon fill="black" stroke="black" stroke-width="3" points="2227.15,-444.36 2237.71,-443.57 2228.96,-437.6 2227.15,-444.36"/>
</g>
<!-- c20 -->
<g id="node18" class="node">
<title>c20</title>
<polygon fill="none" stroke="black" points="773.5,-508.25 773.5,-549.25 865,-549.25 865,-508.25 773.5,-508.25"/>
<text text-anchor="middle" x="786.37" y="-523.95" font-family="Times,serif" font-size="14.00">A</text>
<polyline fill="none" stroke="black" points="799.25,-508.25 799.25,-549.25"/>
<text text-anchor="middle" x="819.25" y="-531.95" font-family="Times,serif" font-size="14.00">$59</text>
<text text-anchor="middle" x="819.25" y="-515.45" font-family="Times,serif" font-size="14.00">$not</text>
<polyline fill="none" stroke="black" points="839.25,-508.25 839.25,-549.25"/>
<text text-anchor="middle" x="852.12" y="-523.95" font-family="Times,serif" font-size="14.00">Y</text>
</g>
<!-- x8 -->
<g id="node20" class="node">
<title>x8</title>
<path fill="none" stroke="black" d="M930.87,-504.25C930.87,-504.25 969.37,-504.25 969.37,-504.25 975.37,-504.25 981.37,-510.25 981.37,-516.25 981.37,-516.25 981.37,-541.25 981.37,-541.25 981.37,-547.25 975.37,-553.25 969.37,-553.25 969.37,-553.25 930.87,-553.25 930.87,-553.25 924.87,-553.25 918.87,-547.25 918.87,-541.25 918.87,-541.25 918.87,-516.25 918.87,-516.25 918.87,-510.25 924.87,-504.25 930.87,-504.25"/>
<text text-anchor="middle" x="950.12" y="-535.95" font-family="Times,serif" font-size="14.00">1:1 &#45; 0:0</text>
<polyline fill="none" stroke="black" points="918.87,-528.75 981.37,-528.75"/>
<text text-anchor="middle" x="950.12" y="-511.45" font-family="Times,serif" font-size="14.00">0:0 &#45; 1:1</text>
</g>
<!-- c20&#45;&gt;x8 -->
<g id="edge7" class="edge">
<title>c20:e&#45;&gt;x8:w</title>
<path fill="none" stroke="black" stroke-width="3" d="M879.01,-528.97C888.74,-528.92 895.34,-528.83 905.13,-528.78"/>
<polygon fill="none" stroke="black" stroke-width="3" points="880.7,-528.97 874.71,-532.98 868.7,-528.99 874.69,-524.98 880.7,-528.97"/>
<polygon fill="none" stroke="black" stroke-width="3" points="903.17,-528.78 909.16,-524.77 915.17,-528.76 909.18,-532.77 903.17,-528.78"/>
</g>
<!-- x7&#45;&gt;c20 -->
<g id="edge6" class="edge">
<title>x7:e&#45;&gt;c20:w</title>
<path fill="none" stroke="black" stroke-width="3" d="M748.15,-528.81C752.18,-528.85 755.62,-528.9 759.65,-528.94"/>
<polygon fill="none" stroke="black" stroke-width="3" points="749.95,-528.82 743.93,-532.79 737.95,-528.76 743.97,-524.79 749.95,-528.82"/>
<polygon fill="none" stroke="black" stroke-width="3" points="757.79,-528.93 763.81,-524.96 769.79,-528.99 763.77,-532.96 757.79,-528.93"/>
</g>
<!-- n1 -->
<g id="node70" class="node">
<title>n1</title>
<ellipse fill="black" stroke="black" cx="1088.25" cy="-528.75" rx="1.8" ry="1.8"/>
</g>
<!-- x8&#45;&gt;n1 -->
<g id="edge32" class="edge">
<title>x8:e&#45;&gt;n1:w</title>
<path fill="none" stroke="black" d="M982.37,-516.5C1024.35,-516.5 1036.94,-526.74 1073.86,-528.49"/>
<polygon fill="black" stroke="black" points="1073.38,-531.98 1083.46,-528.72 1073.54,-524.99 1073.38,-531.98"/>
</g>
<!-- x8&#45;&gt;n1 -->
<g id="edge33" class="edge">
<title>x8:e&#45;&gt;n1:w</title>
<path fill="none" stroke="black" d="M982.37,-541C1024.35,-541 1036.94,-530.76 1073.86,-529.01"/>
<polygon fill="black" stroke="black" points="1073.54,-532.51 1083.46,-528.78 1073.38,-525.52 1073.54,-532.51"/>
</g>
<!-- c21 -->
<g id="node21" class="node">
<title>c21</title>
<polygon fill="none" stroke="black" points="2487.1,-355.25 2487.1,-404.25 2574.85,-404.25 2574.85,-355.25 2487.1,-355.25"/>
<text text-anchor="middle" x="2499.97" y="-386.95" font-family="Times,serif" font-size="14.00">A</text>
<polyline fill="none" stroke="black" points="2487.1,-379.75 2512.85,-379.75"/>
<text text-anchor="middle" x="2499.97" y="-362.45" font-family="Times,serif" font-size="14.00">B</text>
<polyline fill="none" stroke="black" points="2512.85,-355.25 2512.85,-404.25"/>
<text text-anchor="middle" x="2530.97" y="-382.95" font-family="Times,serif" font-size="14.00">$68</text>
<text text-anchor="middle" x="2530.97" y="-366.45" font-family="Times,serif" font-size="14.00">$or</text>
<polyline fill="none" stroke="black" points="2549.1,-355.25 2549.1,-404.25"/>
<text text-anchor="middle" x="2561.97" y="-374.95" font-family="Times,serif" font-size="14.00">Y</text>
</g>
<!-- x11 -->
<g id="node24" class="node">
<title>x11</title>
<path fill="none" stroke="black" d="M2622.85,-463.25C2622.85,-463.25 2661.35,-463.25 2661.35,-463.25 2667.35,-463.25 2673.35,-469.25 2673.35,-475.25 2673.35,-475.25 2673.35,-500.25 2673.35,-500.25 2673.35,-506.25 2667.35,-512.25 2661.35,-512.25 2661.35,-512.25 2622.85,-512.25 2622.85,-512.25 2616.85,-512.25 2610.85,-506.25 2610.85,-500.25 2610.85,-500.25 2610.85,-475.25 2610.85,-475.25 2610.85,-469.25 2616.85,-463.25 2622.85,-463.25"/>
<text text-anchor="middle" x="2642.1" y="-494.95" font-family="Times,serif" font-size="14.00">1:1 &#45; 3:3</text>
<polyline fill="none" stroke="black" points="2610.85,-487.75 2673.35,-487.75"/>
<text text-anchor="middle" x="2642.1" y="-470.45" font-family="Times,serif" font-size="14.00">0:0 &#45; 0:0</text>
</g>
<!-- c21&#45;&gt;x11 -->
<g id="edge10" class="edge">
<title>c21:e&#45;&gt;x11:w</title>
<path fill="none" stroke="black" stroke-width="3" d="M2587.24,-383.34C2609.91,-399.4 2575.75,-468.48 2598.51,-484.45"/>
<polygon fill="none" stroke="black" stroke-width="3" points="2589.05,-383.83 2582.21,-386.13 2577.46,-380.7 2584.3,-378.4 2589.05,-383.83"/>
<polygon fill="none" stroke="black" stroke-width="3" points="2596.65,-483.95 2603.48,-481.63 2608.24,-487.05 2601.41,-489.36 2596.65,-483.95"/>
</g>
<!-- x9&#45;&gt;c21 -->
<g id="edge8" class="edge">
<title>x9:e&#45;&gt;c21:w</title>
<path fill="none" stroke="black" stroke-width="3" d="M2463.82,-391.81C2467.42,-391.85 2470.55,-391.9 2474.13,-391.93"/>
<polygon fill="none" stroke="black" stroke-width="3" points="2465.8,-391.82 2459.78,-395.79 2453.8,-391.76 2459.82,-387.79 2465.8,-391.82"/>
<polygon fill="none" stroke="black" stroke-width="3" points="2472.4,-391.93 2478.42,-387.96 2484.4,-391.99 2478.38,-395.96 2472.4,-391.93"/>
</g>
<!-- x10&#45;&gt;c21 -->
<g id="edge9" class="edge">
<title>x10:e&#45;&gt;c21:w</title>
<path fill="none" stroke="black" stroke-width="3" d="M748.02,-247.64C1004.54,-243.27 1057.57,-107.75 1320.87,-107.75 1320.87,-107.75 1320.87,-107.75 1572.1,-107.75 1645.68,-107.75 1662.99,-122.79 1734.35,-140.75 1744.19,-143.23 2376.91,-337.08 2474.61,-364.33"/>
<polygon fill="none" stroke="black" stroke-width="3" points="749.95,-247.63 743.98,-251.68 737.95,-247.73 743.92,-243.68 749.95,-247.63"/>
<polygon fill="none" stroke="black" stroke-width="3" points="2472.85,-363.88 2479.65,-361.48 2484.48,-366.83 2477.68,-369.24 2472.85,-363.88"/>
</g>
<!-- x11&#45;&gt;n13 -->
<g id="edge52" class="edge">
<title>x11:e&#45;&gt;n13:w</title>
<path fill="none" stroke="black" d="M2673.35,-475.5C2694.72,-475.5 2687.73,-506.62 2698.9,-517.81"/>
<polygon fill="black" stroke="black" points="2697.34,-520.96 2707.93,-521.22 2699.81,-514.41 2697.34,-520.96"/>
</g>
<!-- x11&#45;&gt;n13 -->
<g id="edge53" class="edge">
<title>x11:e&#45;&gt;n13:w</title>
<path fill="none" stroke="black" d="M2673.35,-500C2687.37,-500 2690.09,-512.23 2698.47,-518.35"/>
<polygon fill="black" stroke="black" points="2697.32,-521.66 2707.9,-521.3 2699.4,-514.98 2697.32,-521.66"/>
</g>
<!-- c22 -->
<g id="node25" class="node">
<title>c22</title>
<polygon fill="none" stroke="black" points="1278,-416.25 1278,-465.25 1365.75,-465.25 1365.75,-416.25 1278,-416.25"/>
<text text-anchor="middle" x="1290.87" y="-447.95" font-family="Times,serif" font-size="14.00">A</text>
<polyline fill="none" stroke="black" points="1278,-440.75 1303.75,-440.75"/>
<text text-anchor="middle" x="1290.87" y="-423.45" font-family="Times,serif" font-size="14.00">B</text>
<polyline fill="none" stroke="black" points="1303.75,-416.25 1303.75,-465.25"/>
<text text-anchor="middle" x="1321.87" y="-443.95" font-family="Times,serif" font-size="14.00">$77</text>
<text text-anchor="middle" x="1321.87" y="-427.45" font-family="Times,serif" font-size="14.00">$or</text>
<polyline fill="none" stroke="black" points="1340,-416.25 1340,-465.25"/>
<text text-anchor="middle" x="1352.87" y="-435.95" font-family="Times,serif" font-size="14.00">Y</text>
</g>
<!-- x14 -->
<g id="node28" class="node">
<title>x14</title>
<path fill="none" stroke="black" d="M1413.75,-411.75C1413.75,-411.75 1452.25,-411.75 1452.25,-411.75 1458.25,-411.75 1464.25,-417.75 1464.25,-423.75 1464.25,-423.75 1464.25,-435.75 1464.25,-435.75 1464.25,-441.75 1458.25,-447.75 1452.25,-447.75 1452.25,-447.75 1413.75,-447.75 1413.75,-447.75 1407.75,-447.75 1401.75,-441.75 1401.75,-435.75 1401.75,-435.75 1401.75,-423.75 1401.75,-423.75 1401.75,-417.75 1407.75,-411.75 1413.75,-411.75"/>
<text text-anchor="middle" x="1433" y="-424.95" font-family="Times,serif" font-size="14.00">0:0 &#45; 2:2</text>
</g>
<!-- c22&#45;&gt;x14 -->
<g id="edge13" class="edge">
<title>c22:e&#45;&gt;x14:w</title>
<path fill="none" stroke="black" d="M1378.15,-438.39C1382.03,-436.63 1385.19,-434.3 1389.04,-432.5"/>
<polygon fill="none" stroke="black" points="1378.37,-438.34 1373.32,-443.49 1366.63,-440.81 1371.68,-435.66 1378.37,-438.34"/>
<polygon fill="none" stroke="black" points="1389.14,-432.48 1394.16,-427.3 1400.87,-429.94 1395.85,-435.12 1389.14,-432.48"/>
</g>
<!-- x12 -->
<g id="node26" class="node">
<title>x12</title>
<path fill="none" stroke="black" d="M1928.85,-252.75C1928.85,-252.75 1967.35,-252.75 1967.35,-252.75 1973.35,-252.75 1979.35,-258.75 1979.35,-264.75 1979.35,-264.75 1979.35,-276.75 1979.35,-276.75 1979.35,-282.75 1973.35,-288.75 1967.35,-288.75 1967.35,-288.75 1928.85,-288.75 1928.85,-288.75 1922.85,-288.75 1916.85,-282.75 1916.85,-276.75 1916.85,-276.75 1916.85,-264.75 1916.85,-264.75 1916.85,-258.75 1922.85,-252.75 1928.85,-252.75"/>
<text text-anchor="middle" x="1948.1" y="-265.95" font-family="Times,serif" font-size="14.00">3:3 &#45; 0:0</text>
</g>
<!-- x12&#45;&gt;c22 -->
<g id="edge11" class="edge">
<title>x12:e&#45;&gt;c22:w</title>
<path fill="none" stroke="black" d="M1982.57,-283.46C1981.63,-285.52 1980.48,-287.53 1979.35,-289.25 1932.82,-359.82 1705.4,-406.29 1638.35,-457.75 1619.11,-472.51 1624.44,-488.75 1602.35,-498.75 1506.14,-542.31 1470.53,-489.94 1365.75,-476.75 1349.07,-474.65 1306.64,-478.5 1285.6,-462.77"/>
<polygon fill="none" stroke="black" points="1982.57,-283.46 1977.6,-278.24 1980.5,-271.64 1985.48,-276.86 1982.57,-283.46"/>
<polygon fill="none" stroke="black" points="1285.52,-462.68 1278.56,-460.82 1277.59,-453.68 1284.56,-455.54 1285.52,-462.68"/>
</g>
<!-- x13 -->
<g id="node27" class="node">
<title>x13</title>
<path fill="none" stroke="black" d="M1191.5,-416.75C1191.5,-416.75 1230,-416.75 1230,-416.75 1236,-416.75 1242,-422.75 1242,-428.75 1242,-428.75 1242,-440.75 1242,-440.75 1242,-446.75 1236,-452.75 1230,-452.75 1230,-452.75 1191.5,-452.75 1191.5,-452.75 1185.5,-452.75 1179.5,-446.75 1179.5,-440.75 1179.5,-440.75 1179.5,-428.75 1179.5,-428.75 1179.5,-422.75 1185.5,-416.75 1191.5,-416.75"/>
<text text-anchor="middle" x="1210.75" y="-429.95" font-family="Times,serif" font-size="14.00">0:0 &#45; 0:0</text>
</g>
<!-- x13&#45;&gt;c22 -->
<g id="edge12" class="edge">
<title>x13:e&#45;&gt;c22:w</title>
<path fill="none" stroke="black" d="M1254.77,-433.17C1258.46,-432.22 1261.62,-431.01 1265.31,-430.05"/>
<polygon fill="none" stroke="black" points="1254.8,-433.17 1249.34,-437.87 1242.89,-434.64 1248.36,-429.93 1254.8,-433.17"/>
<polygon fill="none" stroke="black" points="1265.19,-430.07 1270.66,-425.37 1277.1,-428.61 1271.63,-433.31 1265.19,-430.07"/>
</g>
<!-- n2 -->
<g id="node71" class="node">
<title>n2</title>
<ellipse fill="black" stroke="black" cx="1502.05" cy="-428.75" rx="1.8" ry="1.8"/>
</g>
<!-- x14&#45;&gt;n2 -->
<g id="edge60" class="edge">
<title>x14:e&#45;&gt;n2:w</title>
<path fill="none" stroke="black" d="M1464.25,-430C1475.63,-430 1480.93,-429.37 1488.8,-429"/>
<polygon fill="black" stroke="black" points="1488.81,-432.5 1498.73,-428.78 1488.66,-425.51 1488.81,-432.5"/>
</g>
<!-- c23 -->
<g id="node29" class="node">
<title>c23</title>
<polygon fill="none" stroke="black" points="2968.99,-493.25 2968.99,-542.25 3056.74,-542.25 3056.74,-493.25 2968.99,-493.25"/>
<text text-anchor="middle" x="2981.87" y="-524.95" font-family="Times,serif" font-size="14.00">A</text>
<polyline fill="none" stroke="black" points="2968.99,-517.75 2994.74,-517.75"/>
<text text-anchor="middle" x="2981.87" y="-500.45" font-family="Times,serif" font-size="14.00">B</text>
<polyline fill="none" stroke="black" points="2994.74,-493.25 2994.74,-542.25"/>
<text text-anchor="middle" x="3012.87" y="-520.95" font-family="Times,serif" font-size="14.00">$82</text>
<text text-anchor="middle" x="3012.87" y="-504.45" font-family="Times,serif" font-size="14.00">$or</text>
<polyline fill="none" stroke="black" points="3030.99,-493.25 3030.99,-542.25"/>
<text text-anchor="middle" x="3043.87" y="-512.95" font-family="Times,serif" font-size="14.00">Y</text>
</g>
<!-- x17 -->
<g id="node32" class="node">
<title>x17</title>
<path fill="none" stroke="black" d="M3126.13,-493.25C3126.13,-493.25 3164.63,-493.25 3164.63,-493.25 3170.63,-493.25 3176.63,-499.25 3176.63,-505.25 3176.63,-505.25 3176.63,-530.25 3176.63,-530.25 3176.63,-536.25 3170.63,-542.25 3164.63,-542.25 3164.63,-542.25 3126.13,-542.25 3126.13,-542.25 3120.13,-542.25 3114.13,-536.25 3114.13,-530.25 3114.13,-530.25 3114.13,-505.25 3114.13,-505.25 3114.13,-499.25 3120.13,-493.25 3126.13,-493.25"/>
<text text-anchor="middle" x="3145.38" y="-524.95" font-family="Times,serif" font-size="14.00">3:2 &#45; 4:3</text>
<polyline fill="none" stroke="black" points="3114.13,-517.75 3176.63,-517.75"/>
<text text-anchor="middle" x="3145.38" y="-500.45" font-family="Times,serif" font-size="14.00">1:0 &#45; 1:0</text>
</g>
<!-- c23&#45;&gt;x17 -->
<g id="edge16" class="edge">
<title>c23:e&#45;&gt;x17:w</title>
<path fill="none" stroke="black" stroke-width="3" d="M3070.77,-517.97C3081.91,-517.92 3089.13,-517.82 3100.33,-517.78"/>
<polygon fill="none" stroke="black" stroke-width="3" points="3072.45,-517.97 3066.45,-521.98 3060.45,-517.99 3066.44,-513.98 3072.45,-517.97"/>
<polygon fill="none" stroke="black" stroke-width="3" points="3098.43,-517.78 3104.42,-513.77 3110.43,-517.76 3104.44,-521.77 3098.43,-517.78"/>
</g>
<!-- x15 -->
<g id="node30" class="node">
<title>x15</title>
<path fill="none" stroke="black" d="M3635.3,-561.25C3635.3,-561.25 3673.8,-561.25 3673.8,-561.25 3679.8,-561.25 3685.8,-567.25 3685.8,-573.25 3685.8,-573.25 3685.8,-598.25 3685.8,-598.25 3685.8,-604.25 3679.8,-610.25 3673.8,-610.25 3673.8,-610.25 3635.3,-610.25 3635.3,-610.25 3629.3,-610.25 3623.3,-604.25 3623.3,-598.25 3623.3,-598.25 3623.3,-573.25 3623.3,-573.25 3623.3,-567.25 3629.3,-561.25 3635.3,-561.25"/>
<text text-anchor="middle" x="3654.55" y="-592.95" font-family="Times,serif" font-size="14.00">4:3 &#45; 3:2</text>
<polyline fill="none" stroke="black" points="3623.3,-585.75 3685.8,-585.75"/>
<text text-anchor="middle" x="3654.55" y="-568.45" font-family="Times,serif" font-size="14.00">1:0 &#45; 1:0</text>
</g>
<!-- x15&#45;&gt;c23 -->
<g id="edge14" class="edge">
<title>x15:e&#45;&gt;c23:w</title>
<path fill="none" stroke="black" stroke-width="3" d="M3692.86,-597.12C3691.74,-601.87 3689.02,-607.11 3685.8,-610.75 3634.54,-668.65 3591.4,-638.75 3514.07,-638.75 3277.29,-638.75 3277.29,-638.75 3277.29,-638.75 3201.31,-638.75 3177.04,-650.12 3107.38,-619.75 3088.03,-611.31 3089.2,-600.08 3071.38,-588.75 3032.5,-564.01 3002.58,-580.54 2974.82,-540.98"/>
<polygon fill="none" stroke="black" stroke-width="3" points="3693.71,-598.73 3687.36,-595.31 3688.07,-588.14 3694.42,-591.55 3693.71,-598.73"/>
<polygon fill="none" stroke="black" stroke-width="3" points="2975.76,-542.49 2969.19,-539.5 2969.42,-532.3 2975.98,-535.28 2975.76,-542.49"/>
</g>
<!-- x16&#45;&gt;c23 -->
<g id="edge15" class="edge">
<title>x16:e&#45;&gt;c23:w</title>
<path fill="none" stroke="black" stroke-width="3" d="M2930.77,-472.14C2941.65,-479.11 2944.61,-494.96 2955.42,-502.01"/>
<polygon fill="none" stroke="black" stroke-width="3" points="2932.54,-472.62 2925.69,-474.9 2920.96,-469.46 2927.8,-467.18 2932.54,-472.62"/>
<polygon fill="none" stroke="black" stroke-width="3" points="2953.82,-501.57 2960.68,-499.32 2965.39,-504.78 2958.54,-507.03 2953.82,-501.57"/>
</g>
<!-- x17&#45;&gt;n9 -->
<g id="edge99" class="edge">
<title>x17:e&#45;&gt;n9:w</title>
<path fill="none" stroke="black" stroke-width="3" d="M3177.63,-505.5C3191.7,-505.5 3197.77,-505.64 3207.96,-505.71"/>
<polygon fill="black" stroke="black" stroke-width="3" points="3204.83,-509.2 3214.84,-505.74 3204.85,-502.2 3204.83,-509.2"/>
</g>
<!-- x17&#45;&gt;n9 -->
<g id="edge100" class="edge">
<title>x17:e&#45;&gt;n9:w</title>
<path fill="none" stroke="black" stroke-width="3" d="M3177.63,-530C3194.57,-530 3197.41,-514.9 3208.4,-508.53"/>
<polygon fill="black" stroke="black" stroke-width="3" points="3206.15,-512.71 3214.98,-506.86 3204.43,-505.93 3206.15,-512.71"/>
</g>
<!-- v19 -->
<g id="node33" class="node">
<title>v19</title>
<ellipse fill="none" stroke="black" cx="552.54" cy="-679.75" rx="30.88" ry="18"/>
<text text-anchor="middle" x="552.54" y="-674.7" font-family="Times,serif" font-size="14.00">3&#39;110</text>
</g>
<!-- v19&#45;&gt;x18 -->
<g id="edge107" class="edge">
<title>v19:e&#45;&gt;x18:w</title>
<path fill="none" stroke="black" stroke-width="3" d="M584.71,-679.75C620.87,-679.75 630.63,-662.6 661.43,-659.11"/>
<polygon fill="black" stroke="black" stroke-width="3" points="658.42,-662.78 668.21,-658.75 658.04,-655.79 658.42,-662.78"/>
</g>
<!-- v20 -->
<g id="node34" class="node">
<title>v20</title>
<ellipse fill="none" stroke="black" cx="552.54" cy="-587.75" rx="27" ry="18"/>
<text text-anchor="middle" x="552.54" y="-582.7" font-family="Times,serif" font-size="14.00">2&#39;10</text>
</g>
<!-- v20&#45;&gt;x18 -->
<g id="edge109" class="edge">
<title>v20:e&#45;&gt;x18:w</title>
<path fill="none" stroke="black" stroke-width="3" d="M580.8,-587.75C618.69,-587.75 628.87,-605.46 661.35,-608.92"/>
<polygon fill="black" stroke="black" stroke-width="3" points="658.05,-612.25 668.21,-609.27 658.4,-605.26 658.05,-612.25"/>
</g>
<!-- c24&#45;&gt;c17 -->
<g id="edge69" class="edge">
<title>c24:e&#45;&gt;c17:w</title>
<path fill="none" stroke="black" d="M861.12,-633C878.12,-633 881.11,-618.06 892.19,-611.75"/>
<polygon fill="black" stroke="black" points="892.92,-615.18 901.78,-609.37 891.23,-608.39 892.92,-615.18"/>
</g>
<!-- x18&#45;&gt;c24 -->
<g id="edge17" class="edge">
<title>x18:e&#45;&gt;c24:w</title>
<path fill="none" stroke="black" stroke-width="3" d="M748.03,-621.52C754,-621.3 758.65,-620.95 764.63,-620.73"/>
<polygon fill="none" stroke="black" stroke-width="3" points="749.95,-621.49 744.02,-625.59 737.95,-621.7 743.88,-617.59 749.95,-621.49"/>
<polygon fill="none" stroke="black" stroke-width="3" points="762.67,-620.76 768.6,-616.66 774.67,-620.55 768.74,-624.65 762.67,-620.76"/>
</g>
<!-- v22 -->
<g id="node37" class="node">
<title>v22</title>
<ellipse fill="none" stroke="black" cx="552.54" cy="-213.75" rx="30.88" ry="18"/>
<text text-anchor="middle" x="552.54" y="-208.7" font-family="Times,serif" font-size="14.00">3&#39;110</text>
</g>
<!-- v22&#45;&gt;x21 -->
<g id="edge110" class="edge">
<title>v22:e&#45;&gt;x21:w</title>
<path fill="none" stroke="black" stroke-width="3" d="M584.71,-213.75C620.97,-213.75 630.56,-195.79 661.4,-192.14"/>
<polygon fill="black" stroke="black" stroke-width="3" points="658.43,-195.82 668.21,-191.76 658.03,-188.83 658.43,-195.82"/>
</g>
<!-- v23 -->
<g id="node38" class="node">
<title>v23</title>
<ellipse fill="none" stroke="black" cx="552.54" cy="-121.75" rx="27" ry="18"/>
<text text-anchor="middle" x="552.54" y="-116.7" font-family="Times,serif" font-size="14.00">2&#39;10</text>
</g>
<!-- v23&#45;&gt;x21 -->
<g id="edge111" class="edge">
<title>v23:e&#45;&gt;x21:w</title>
<path fill="none" stroke="black" stroke-width="3" d="M580.8,-121.75C618.6,-121.75 628.94,-138.65 661.37,-141.94"/>
<polygon fill="black" stroke="black" stroke-width="3" points="658.05,-145.29 668.21,-142.28 658.39,-138.3 658.05,-145.29"/>
</g>
<!-- v25 -->
<g id="node39" class="node">
<title>v25</title>
<ellipse fill="none" stroke="black" cx="53.92" cy="-76.75" rx="30.88" ry="18"/>
<text text-anchor="middle" x="53.92" y="-71.7" font-family="Times,serif" font-size="14.00">3&#39;110</text>
</g>
<!-- v25&#45;&gt;x24 -->
<g id="edge112" class="edge">
<title>v25:e&#45;&gt;x24:w</title>
<path fill="none" stroke="black" stroke-width="3" d="M86.09,-76.75C107.83,-76.75 115.4,-83.39 132.5,-85.57"/>
<polygon fill="black" stroke="black" stroke-width="3" points="129.12,-88.87 139.31,-85.98 129.54,-81.88 129.12,-88.87"/>
</g>
<!-- c25 -->
<g id="node40" class="node">
<title>c25</title>
<polygon fill="none" stroke="black" points="771.25,-106.25 771.25,-155.25 867.25,-155.25 867.25,-106.25 771.25,-106.25"/>
<text text-anchor="middle" x="784.12" y="-137.95" font-family="Times,serif" font-size="14.00">A</text>
<polyline fill="none" stroke="black" points="771.25,-130.75 797,-130.75"/>
<text text-anchor="middle" x="784.12" y="-113.45" font-family="Times,serif" font-size="14.00">B</text>
<polyline fill="none" stroke="black" points="797,-106.25 797,-155.25"/>
<text text-anchor="middle" x="819.25" y="-133.95" font-family="Times,serif" font-size="14.00">$5</text>
<text text-anchor="middle" x="819.25" y="-117.45" font-family="Times,serif" font-size="14.00">$mul</text>
<polyline fill="none" stroke="black" points="841.5,-106.25 841.5,-155.25"/>
<text text-anchor="middle" x="854.37" y="-125.95" font-family="Times,serif" font-size="14.00">Y</text>
</g>
<!-- x26 -->
<g id="node43" class="node">
<title>x26</title>
<path fill="none" stroke="black" d="M1413.75,-136.75C1413.75,-136.75 1452.25,-136.75 1452.25,-136.75 1458.25,-136.75 1464.25,-142.75 1464.25,-148.75 1464.25,-148.75 1464.25,-222.75 1464.25,-222.75 1464.25,-228.75 1458.25,-234.75 1452.25,-234.75 1452.25,-234.75 1413.75,-234.75 1413.75,-234.75 1407.75,-234.75 1401.75,-228.75 1401.75,-222.75 1401.75,-222.75 1401.75,-148.75 1401.75,-148.75 1401.75,-142.75 1407.75,-136.75 1413.75,-136.75"/>
<text text-anchor="middle" x="1433" y="-217.45" font-family="Times,serif" font-size="14.00">5:4 &#45; 4:3</text>
<polyline fill="none" stroke="black" points="1401.75,-210.25 1464.25,-210.25"/>
<text text-anchor="middle" x="1433" y="-192.95" font-family="Times,serif" font-size="14.00">3:2 &#45; 4:3</text>
<polyline fill="none" stroke="black" points="1401.75,-185.75 1464.25,-185.75"/>
<text text-anchor="middle" x="1433" y="-168.45" font-family="Times,serif" font-size="14.00">1:1 &#45; 0:0</text>
<polyline fill="none" stroke="black" points="1401.75,-161.25 1464.25,-161.25"/>
<text text-anchor="middle" x="1433" y="-143.95" font-family="Times,serif" font-size="14.00">0:0 &#45; 1:1</text>
</g>
<!-- c25&#45;&gt;x26 -->
<g id="edge20" class="edge">
<title>c25:e&#45;&gt;x26:w</title>
<path fill="none" stroke="black" stroke-width="3" d="M880.29,-131.09C967.6,-132.32 993.75,-145.75 1087.25,-145.75 1087.25,-145.75 1087.25,-145.75 1211.75,-145.75 1293.66,-145.75 1313.51,-181.79 1389.12,-185.45"/>
<polygon fill="none" stroke="black" stroke-width="3" points="881.95,-131.1 875.92,-135.06 869.95,-131.02 875.98,-127.06 881.95,-131.1"/>
<polygon fill="none" stroke="black" stroke-width="3" points="1387.05,-185.4 1393.14,-181.55 1399.04,-185.69 1392.95,-189.54 1387.05,-185.4"/>
</g>
<!-- x21&#45;&gt;c25 -->
<g id="edge18" class="edge">
<title>x21:e&#45;&gt;c25:w</title>
<path fill="none" stroke="black" stroke-width="3" d="M747.66,-152.02C751.54,-150.18 754.68,-147.75 758.52,-145.87"/>
<polygon fill="none" stroke="black" stroke-width="3" points="749.61,-151.6 744.61,-156.79 737.89,-154.17 742.89,-148.98 749.61,-151.6"/>
<polygon fill="none" stroke="black" stroke-width="3" points="756.9,-146.24 761.87,-141.02 768.61,-143.6 763.64,-148.82 756.9,-146.24"/>
</g>
<!-- x24&#45;&gt;c25 -->
<g id="edge19" class="edge">
<title>x24:e&#45;&gt;c25:w</title>
<path fill="none" stroke="black" stroke-width="3" d="M218.98,-61.8C294.85,-62.44 318.3,-68.75 400.09,-68.75 400.09,-68.75 400.09,-68.75 553.54,-68.75 635.25,-68.75 658.44,-68.87 735.25,-96.75 747.74,-101.28 751.22,-110.36 758.9,-115.24"/>
<polygon fill="none" stroke="black" stroke-width="3" points="221.04,-61.81 215.03,-65.79 209.05,-61.76 215.06,-57.79 221.04,-61.81"/>
<polygon fill="none" stroke="black" stroke-width="3" points="757.03,-114.74 763.85,-112.41 768.63,-117.81 761.81,-120.14 757.03,-114.74"/>
</g>
<!-- x26&#45;&gt;n2 -->
<g id="edge61" class="edge">
<title>x26:e&#45;&gt;n2:w</title>
<path fill="none" stroke="black" stroke-width="3" d="M1464.25,-222.5C1553.12,-222.5 1420.19,-410.64 1489.14,-427.54"/>
<polygon fill="black" stroke="black" stroke-width="3" points="1485.41,-430.65 1495.73,-428.26 1486.17,-423.69 1485.41,-430.65"/>
</g>
<!-- n3 -->
<g id="node72" class="node">
<title>n3</title>
<ellipse fill="black" stroke="black" cx="1502.05" cy="-248.75" rx="1.8" ry="1.8"/>
</g>
<!-- x26&#45;&gt;n3 -->
<g id="edge66" class="edge">
<title>x26:e&#45;&gt;n3:w</title>
<path fill="none" stroke="black" d="M1464.25,-173.5C1496.69,-173.5 1471.53,-231.11 1489.58,-245.52"/>
<polygon fill="black" stroke="black" points="1488.21,-248.76 1498.8,-248.31 1490.24,-242.06 1488.21,-248.76"/>
</g>
<!-- n6 -->
<g id="node74" class="node">
<title>n6</title>
<ellipse fill="black" stroke="black" cx="1825.6" cy="-236.75" rx="1.8" ry="1.8"/>
</g>
<!-- x26&#45;&gt;n6 -->
<g id="edge74" class="edge">
<title>x26:e&#45;&gt;n6:w</title>
<path fill="none" stroke="black" d="M1464.25,-149C1584.65,-149 1621.83,-126.91 1734.35,-169.75 1776.51,-185.8 1773.98,-228.84 1811.3,-235.8"/>
<polygon fill="black" stroke="black" points="1810.55,-239.24 1820.81,-236.62 1811.15,-232.27 1810.55,-239.24"/>
</g>
<!-- x26&#45;&gt;n6 -->
<g id="edge75" class="edge">
<title>x26:e&#45;&gt;n6:w</title>
<path fill="none" stroke="black" stroke-width="3" d="M1464.25,-198C1584.31,-198 1616.52,-179.7 1734.35,-202.75 1771.47,-210.01 1779.1,-231.85 1811.03,-236.05"/>
<polygon fill="black" stroke="black" stroke-width="3" points="1807.59,-239.34 1817.79,-236.47 1808.02,-232.35 1807.59,-239.34"/>
</g>
<!-- c26&#45;&gt;n11 -->
<g id="edge39" class="edge">
<title>c26:e&#45;&gt;n11:w</title>
<path fill="none" stroke="black" stroke-width="3" d="M1734.35,-492C1745.72,-492 1751.03,-491.87 1758.9,-491.8"/>
<polygon fill="black" stroke="black" stroke-width="3" points="1755.82,-495.31 1765.81,-491.77 1755.79,-488.31 1755.82,-495.31"/>
</g>
<!-- x27 -->
<g id="node45" class="node">
<title>x27</title>
<path fill="none" stroke="black" d="M1551.85,-342.25C1551.85,-342.25 1590.35,-342.25 1590.35,-342.25 1596.35,-342.25 1602.35,-348.25 1602.35,-354.25 1602.35,-354.25 1602.35,-477.25 1602.35,-477.25 1602.35,-483.25 1596.35,-489.25 1590.35,-489.25 1590.35,-489.25 1551.85,-489.25 1551.85,-489.25 1545.85,-489.25 1539.85,-483.25 1539.85,-477.25 1539.85,-477.25 1539.85,-354.25 1539.85,-354.25 1539.85,-348.25 1545.85,-342.25 1551.85,-342.25"/>
<text text-anchor="middle" x="1571.1" y="-471.95" font-family="Times,serif" font-size="14.00">4:3 &#45; 6:5</text>
<polyline fill="none" stroke="black" points="1539.85,-464.75 1602.35,-464.75"/>
<text text-anchor="middle" x="1571.1" y="-447.45" font-family="Times,serif" font-size="14.00">1 &#45;&gt; 4:4</text>
<polyline fill="none" stroke="black" points="1539.85,-440.25 1602.35,-440.25"/>
<text text-anchor="middle" x="1571.1" y="-422.95" font-family="Times,serif" font-size="14.00">2:2 &#45; 3:3</text>
<polyline fill="none" stroke="black" points="1539.85,-415.75 1602.35,-415.75"/>
<text text-anchor="middle" x="1571.1" y="-398.45" font-family="Times,serif" font-size="14.00">0:0 &#45; 2:2</text>
<polyline fill="none" stroke="black" points="1539.85,-391.25 1602.35,-391.25"/>
<text text-anchor="middle" x="1571.1" y="-373.95" font-family="Times,serif" font-size="14.00">1 &#45;&gt; 1:1</text>
<polyline fill="none" stroke="black" points="1539.85,-366.75 1602.35,-366.75"/>
<text text-anchor="middle" x="1571.1" y="-349.45" font-family="Times,serif" font-size="14.00">1:1 &#45; 0:0</text>
</g>
<!-- x27&#45;&gt;c26 -->
<g id="edge21" class="edge">
<title>x27:e&#45;&gt;c26:w</title>
<path fill="none" stroke="black" stroke-width="3" d="M1614.32,-419.54C1631.04,-433.93 1609.83,-485.06 1626.05,-499.92"/>
<polygon fill="none" stroke="black" stroke-width="3" points="1616.37,-420.19 1609.44,-422.19 1604.93,-416.57 1611.85,-414.57 1616.37,-420.19"/>
<polygon fill="none" stroke="black" stroke-width="3" points="1624.39,-499.37 1631.35,-497.46 1635.78,-503.15 1628.83,-505.06 1624.39,-499.37"/>
</g>
<!-- v29 -->
<g id="node46" class="node">
<title>v29</title>
<ellipse fill="none" stroke="black" cx="552.54" cy="-863.75" rx="30.88" ry="18"/>
<text text-anchor="middle" x="552.54" y="-858.7" font-family="Times,serif" font-size="14.00">3&#39;110</text>
</g>
<!-- v29&#45;&gt;x28 -->
<g id="edge113" class="edge">
<title>v29:e&#45;&gt;x28:w</title>
<path fill="none" stroke="black" stroke-width="3" d="M584.71,-863.75C621.07,-863.75 630.49,-844.98 661.38,-841.17"/>
<polygon fill="black" stroke="black" stroke-width="3" points="658.44,-844.85 668.21,-840.77 658.02,-837.86 658.44,-844.85"/>
</g>
<!-- v30 -->
<g id="node47" class="node">
<title>v30</title>
<ellipse fill="none" stroke="black" cx="552.54" cy="-771.75" rx="27" ry="18"/>
<text text-anchor="middle" x="552.54" y="-766.7" font-family="Times,serif" font-size="14.00">2&#39;10</text>
</g>
<!-- v30&#45;&gt;x28 -->
<g id="edge114" class="edge">
<title>v30:e&#45;&gt;x28:w</title>
<path fill="none" stroke="black" stroke-width="3" d="M580.8,-771.75C618.51,-771.75 629,-787.83 661.4,-790.97"/>
<polygon fill="black" stroke="black" stroke-width="3" points="658.06,-794.32 668.21,-791.29 658.38,-787.33 658.06,-794.32"/>
</g>
<!-- c27 -->
<g id="node48" class="node">
<title>c27</title>
<polygon fill="none" stroke="black" points="2964.87,-598.25 2964.87,-647.25 3060.87,-647.25 3060.87,-598.25 2964.87,-598.25"/>
<text text-anchor="middle" x="2977.74" y="-629.95" font-family="Times,serif" font-size="14.00">A</text>
<polyline fill="none" stroke="black" points="2964.87,-622.75 2990.62,-622.75"/>
<text text-anchor="middle" x="2977.74" y="-605.45" font-family="Times,serif" font-size="14.00">B</text>
<polyline fill="none" stroke="black" points="2990.62,-598.25 2990.62,-647.25"/>
<text text-anchor="middle" x="3012.87" y="-625.95" font-family="Times,serif" font-size="14.00">$24</text>
<text text-anchor="middle" x="3012.87" y="-609.45" font-family="Times,serif" font-size="14.00">$mul</text>
<polyline fill="none" stroke="black" points="3035.12,-598.25 3035.12,-647.25"/>
<text text-anchor="middle" x="3047.99" y="-617.95" font-family="Times,serif" font-size="14.00">Y</text>
</g>
<!-- x32 -->
<g id="node51" class="node">
<title>x32</title>
<path fill="none" stroke="black" d="M3119.38,-561.25C3119.38,-561.25 3171.38,-561.25 3171.38,-561.25 3177.38,-561.25 3183.38,-567.25 3183.38,-573.25 3183.38,-573.25 3183.38,-598.25 3183.38,-598.25 3183.38,-604.25 3177.38,-610.25 3171.38,-610.25 3171.38,-610.25 3119.38,-610.25 3119.38,-610.25 3113.38,-610.25 3107.38,-604.25 3107.38,-598.25 3107.38,-598.25 3107.38,-573.25 3107.38,-573.25 3107.38,-567.25 3113.38,-561.25 3119.38,-561.25"/>
<text text-anchor="middle" x="3145.38" y="-592.95" font-family="Times,serif" font-size="14.00">12:6 &#45; 12:6</text>
<polyline fill="none" stroke="black" points="3107.38,-585.75 3183.38,-585.75"/>
<text text-anchor="middle" x="3145.38" y="-568.45" font-family="Times,serif" font-size="14.00">5:0 &#45; 5:0</text>
</g>
<!-- c27&#45;&gt;x32 -->
<g id="edge24" class="edge">
<title>c27:e&#45;&gt;x32:w</title>
<path fill="none" stroke="black" stroke-width="3" d="M3074.28,-619.01C3083.53,-611.81 3085.81,-596.7 3095.16,-589.6"/>
<polygon fill="none" stroke="black" stroke-width="3" points="3075.87,-618.5 3071.38,-624.15 3064.44,-622.17 3068.93,-616.53 3075.87,-618.5"/>
<polygon fill="none" stroke="black" stroke-width="3" points="3093.36,-590.16 3097.88,-584.55 3104.8,-586.56 3100.28,-592.18 3093.36,-590.16"/>
</g>
<!-- x28&#45;&gt;c27 -->
<g id="edge22" class="edge">
<title>x28:e&#45;&gt;c27:w</title>
<path fill="none" stroke="black" stroke-width="3" d="M748.13,-803.37C836.02,-798.13 854.36,-739.75 949.12,-739.75 949.12,-739.75 949.12,-739.75 2765.6,-739.75 2836.5,-739.75 2859.92,-733.9 2918.35,-693.75 2941.32,-677.97 2934.42,-646.99 2951.54,-637.7"/>
<polygon fill="none" stroke="black" stroke-width="3" points="749.94,-803.32 744.06,-807.49 737.95,-803.67 743.83,-799.5 749.94,-803.32"/>
<polygon fill="none" stroke="black" stroke-width="3" points="2949.5,-638.14 2954.51,-632.95 2961.23,-635.58 2956.22,-640.77 2949.5,-638.14"/>
</g>
<!-- x31&#45;&gt;c27 -->
<g id="edge23" class="edge">
<title>x31:e&#45;&gt;c27:w</title>
<path fill="none" stroke="black" stroke-width="3" d="M2931.15,-610.71C2938.39,-610.66 2943.75,-610.59 2950.98,-610.54"/>
<polygon fill="none" stroke="black" stroke-width="3" points="2933.05,-610.71 2927.07,-614.72 2921.05,-610.74 2927.04,-606.72 2933.05,-610.71"/>
<polygon fill="none" stroke="black" stroke-width="3" points="2949.16,-610.55 2955.15,-606.53 2961.16,-610.51 2955.18,-614.53 2949.16,-610.55"/>
</g>
<!-- x32&#45;&gt;n9 -->
<g id="edge101" class="edge">
<title>x32:e&#45;&gt;n9:w</title>
<path fill="none" stroke="black" stroke-width="3" d="M3183.38,-598C3222.75,-598 3185.28,-524.18 3208.44,-508.61"/>
<polygon fill="black" stroke="black" stroke-width="3" points="3206.2,-512.81 3214.99,-506.9 3204.43,-506.04 3206.2,-512.81"/>
</g>
<!-- n5 -->
<g id="node73" class="node">
<title>n5</title>
<ellipse fill="black" stroke="black" cx="3585.5" cy="-573.75" rx="1.8" ry="1.8"/>
</g>
<!-- x32&#45;&gt;n5 -->
<g id="edge70" class="edge">
<title>x32:e&#45;&gt;n5:w</title>
<path fill="none" stroke="black" stroke-width="3" d="M3183.38,-573.5C3357.48,-573.5 3403.81,-573.74 3572.41,-573.75"/>
<polygon fill="black" stroke="black" stroke-width="3" points="3569.16,-577.25 3579.16,-573.75 3569.16,-570.25 3569.16,-577.25"/>
</g>
<!-- x34 -->
<g id="node53" class="node">
<title>x34</title>
<path fill="none" stroke="black" d="M3490.45,-503.75C3490.45,-503.75 3535.7,-503.75 3535.7,-503.75 3541.7,-503.75 3547.7,-509.75 3547.7,-515.75 3547.7,-515.75 3547.7,-527.75 3547.7,-527.75 3547.7,-533.75 3541.7,-539.75 3535.7,-539.75 3535.7,-539.75 3490.45,-539.75 3490.45,-539.75 3484.45,-539.75 3478.45,-533.75 3478.45,-527.75 3478.45,-527.75 3478.45,-515.75 3478.45,-515.75 3478.45,-509.75 3484.45,-503.75 3490.45,-503.75"/>
<text text-anchor="middle" x="3513.07" y="-516.95" font-family="Times,serif" font-size="14.00">6:0 &#45; 12:6</text>
</g>
<!-- x33&#45;&gt;x34 -->
<g id="edge25" class="edge">
<title>x33:e&#45;&gt;x34:w</title>
<path fill="none" stroke="black" stroke-width="3" d="M3455.22,-517.26C3458.9,-518.18 3462.07,-519.34 3465.76,-520.26"/>
<polygon fill="none" stroke="black" stroke-width="3" points="3457.05,-517.48 3450.62,-520.75 3445.13,-516.07 3451.56,-512.8 3457.05,-517.48"/>
<polygon fill="none" stroke="black" stroke-width="3" points="3463.84,-520.03 3470.27,-516.76 3475.76,-521.43 3469.33,-524.71 3463.84,-520.03"/>
</g>
<!-- x34&#45;&gt;n5 -->
<g id="edge71" class="edge">
<title>x34:e&#45;&gt;n5:w</title>
<path fill="none" stroke="black" stroke-width="3" d="M3547.7,-522C3570.9,-522 3561.15,-557.49 3573.02,-569.69"/>
<polygon fill="black" stroke="black" stroke-width="3" points="3568.86,-571.85 3579.45,-572.14 3571.35,-565.31 3568.86,-571.85"/>
</g>
<!-- x35 -->
<g id="node54" class="node">
<title>x35</title>
<path fill="none" stroke="black" d="M1551.85,-212C1551.85,-212 1590.35,-212 1590.35,-212 1596.35,-212 1602.35,-218 1602.35,-224 1602.35,-224 1602.35,-273.5 1602.35,-273.5 1602.35,-279.5 1596.35,-285.5 1590.35,-285.5 1590.35,-285.5 1551.85,-285.5 1551.85,-285.5 1545.85,-285.5 1539.85,-279.5 1539.85,-273.5 1539.85,-273.5 1539.85,-224 1539.85,-224 1539.85,-218 1545.85,-212 1551.85,-212"/>
<text text-anchor="middle" x="1571.1" y="-268.2" font-family="Times,serif" font-size="14.00">4:3 &#45; 3:2</text>
<polyline fill="none" stroke="black" points="1539.85,-261 1602.35,-261"/>
<text text-anchor="middle" x="1571.1" y="-243.7" font-family="Times,serif" font-size="14.00">0:0 &#45; 1:1</text>
<polyline fill="none" stroke="black" points="1539.85,-236.5 1602.35,-236.5"/>
<text text-anchor="middle" x="1571.1" y="-219.2" font-family="Times,serif" font-size="14.00">0 &#45;&gt; 0:0</text>
</g>
<!-- x36 -->
<g id="node55" class="node">
<title>x36</title>
<path fill="none" stroke="black" d="M1667.1,-212C1667.1,-212 1705.6,-212 1705.6,-212 1711.6,-212 1717.6,-218 1717.6,-224 1717.6,-224 1717.6,-273.5 1717.6,-273.5 1717.6,-279.5 1711.6,-285.5 1705.6,-285.5 1705.6,-285.5 1667.1,-285.5 1667.1,-285.5 1661.1,-285.5 1655.1,-279.5 1655.1,-273.5 1655.1,-273.5 1655.1,-224 1655.1,-224 1655.1,-218 1661.1,-212 1667.1,-212"/>
<text text-anchor="middle" x="1686.35" y="-268.2" font-family="Times,serif" font-size="14.00">3:2 &#45; 6:5</text>
<polyline fill="none" stroke="black" points="1655.1,-261 1717.6,-261"/>
<text text-anchor="middle" x="1686.35" y="-243.7" font-family="Times,serif" font-size="14.00">1:1 &#45; 2:2</text>
<polyline fill="none" stroke="black" points="1655.1,-236.5 1717.6,-236.5"/>
<text text-anchor="middle" x="1686.35" y="-219.2" font-family="Times,serif" font-size="14.00">0:0 &#45; 0:0</text>
</g>
<!-- x35&#45;&gt;x36 -->
<g id="edge26" class="edge">
<title>x35:e&#45;&gt;x36:w</title>
<path fill="none" stroke="black" stroke-width="3" d="M1615.33,-248.75C1624.93,-248.75 1631.48,-248.75 1641.07,-248.75"/>
<polygon fill="none" stroke="black" stroke-width="3" points="1617.05,-248.75 1611.05,-252.75 1605.05,-248.75 1611.05,-244.75 1617.05,-248.75"/>
<polygon fill="none" stroke="black" stroke-width="3" points="1639.39,-248.75 1645.39,-244.75 1651.39,-248.75 1645.39,-252.75 1639.39,-248.75"/>
</g>
<!-- x36&#45;&gt;n6 -->
<g id="edge76" class="edge">
<title>x36:e&#45;&gt;n6:w</title>
<path fill="none" stroke="black" d="M1718.6,-224.25C1761.04,-224.25 1773.76,-234.69 1811.09,-236.49"/>
<polygon fill="black" stroke="black" points="1810.73,-239.98 1820.81,-236.71 1810.89,-232.98 1810.73,-239.98"/>
</g>
<!-- x36&#45;&gt;n6 -->
<g id="edge77" class="edge">
<title>x36:e&#45;&gt;n6:w</title>
<path fill="none" stroke="black" d="M1718.6,-248.75C1761.02,-248.75 1773.78,-238.72 1811.1,-237"/>
<polygon fill="black" stroke="black" points="1810.89,-240.51 1820.81,-236.78 1810.73,-233.51 1810.89,-240.51"/>
</g>
<!-- x36&#45;&gt;n6 -->
<g id="edge78" class="edge">
<title>x36:e&#45;&gt;n6:w</title>
<path fill="none" stroke="black" stroke-width="3" d="M1718.6,-273.25C1763.46,-273.25 1772.18,-242.49 1811.11,-237.45"/>
<polygon fill="black" stroke="black" stroke-width="3" points="1808.02,-241.15 1817.79,-237.03 1807.59,-234.16 1808.02,-241.15"/>
</g>
<!-- v38 -->
<g id="node56" class="node">
<title>v38</title>
<ellipse fill="none" stroke="black" cx="53.92" cy="-184.75" rx="40.09" ry="18"/>
<text text-anchor="middle" x="53.92" y="-179.7" font-family="Times,serif" font-size="14.00">5&#39;00110</text>
</g>
<!-- v38&#45;&gt;x37 -->
<g id="edge115" class="edge">
<title>v38:e&#45;&gt;x37:w</title>
<path fill="none" stroke="black" stroke-width="3" d="M95.39,-184.75C112.66,-184.75 119.41,-181.26 132.41,-179.84"/>
<polygon fill="black" stroke="black" stroke-width="3" points="129.5,-183.49 139.31,-179.48 129.14,-176.5 129.5,-183.49"/>
</g>
<!-- v39 -->
<g id="node57" class="node">
<title>v39</title>
<ellipse fill="none" stroke="black" cx="53.92" cy="-130.75" rx="27" ry="18"/>
<text text-anchor="middle" x="53.92" y="-125.7" font-family="Times,serif" font-size="14.00">2&#39;10</text>
</g>
<!-- v39&#45;&gt;x37 -->
<g id="edge116" class="edge">
<title>v39:e&#45;&gt;x37:w</title>
<path fill="none" stroke="black" stroke-width="3" d="M82.17,-130.75C105.3,-130.75 113.79,-130.39 132.34,-130.28"/>
<polygon fill="black" stroke="black" stroke-width="3" points="129.31,-133.79 139.3,-130.26 129.29,-126.79 129.31,-133.79"/>
</g>
<!-- x40 -->
<g id="node59" class="node">
<title>x40</title>
<path fill="none" stroke="black" d="M381.84,-286.75C381.84,-286.75 420.34,-286.75 420.34,-286.75 426.34,-286.75 432.34,-292.75 432.34,-298.75 432.34,-298.75 432.34,-310.75 432.34,-310.75 432.34,-316.75 426.34,-322.75 420.34,-322.75 420.34,-322.75 381.84,-322.75 381.84,-322.75 375.84,-322.75 369.84,-316.75 369.84,-310.75 369.84,-310.75 369.84,-298.75 369.84,-298.75 369.84,-292.75 375.84,-286.75 381.84,-286.75"/>
<text text-anchor="middle" x="401.09" y="-299.95" font-family="Times,serif" font-size="14.00">7:0 &#45; 8:1</text>
</g>
<!-- x37&#45;&gt;x40 -->
<g id="edge27" class="edge">
<title>x37:e&#45;&gt;x40:w</title>
<path fill="none" stroke="black" stroke-width="3" d="M219.11,-155.67C298.08,-167.59 278.07,-291.71 356.89,-303.8"/>
<polygon fill="none" stroke="black" stroke-width="3" points="221.01,-155.81 214.74,-159.36 209.04,-154.94 215.31,-151.39 221.01,-155.81"/>
<polygon fill="none" stroke="black" stroke-width="3" points="355.18,-303.68 361.45,-300.13 367.14,-304.55 360.87,-308.1 355.18,-303.68"/>
</g>
<!-- x40&#45;&gt;n7 -->
<g id="edge80" class="edge">
<title>x40:e&#45;&gt;n7:w</title>
<path fill="none" stroke="black" stroke-width="3" d="M432.34,-305C474.49,-305 431.85,-385.4 457.44,-401.11"/>
<polygon fill="black" stroke="black" stroke-width="3" points="453.38,-403.73 463.93,-402.68 455.03,-396.92 453.38,-403.73"/>
</g>
<!-- v41 -->
<g id="node60" class="node">
<title>v41</title>
<ellipse fill="none" stroke="black" cx="3012.87" cy="-437.75" rx="58.52" ry="18"/>
<text text-anchor="middle" x="3012.87" y="-432.7" font-family="Times,serif" font-size="14.00">9&#39;000000011</text>
</g>
<!-- x42 -->
<g id="node61" class="node">
<title>x42</title>
<path fill="none" stroke="black" d="M3119.38,-401C3119.38,-401 3171.38,-401 3171.38,-401 3177.38,-401 3183.38,-407 3183.38,-413 3183.38,-413 3183.38,-462.5 3183.38,-462.5 3183.38,-468.5 3177.38,-474.5 3171.38,-474.5 3171.38,-474.5 3119.38,-474.5 3119.38,-474.5 3113.38,-474.5 3107.38,-468.5 3107.38,-462.5 3107.38,-462.5 3107.38,-413 3107.38,-413 3107.38,-407 3113.38,-401 3119.38,-401"/>
<text text-anchor="middle" x="3145.38" y="-457.2" font-family="Times,serif" font-size="14.00">8:2 &#45; 19:13</text>
<polyline fill="none" stroke="black" points="3107.38,-450 3183.38,-450"/>
<text text-anchor="middle" x="3145.38" y="-432.7" font-family="Times,serif" font-size="14.00">1:1 &#45; 5:5</text>
<polyline fill="none" stroke="black" points="3107.38,-425.5 3183.38,-425.5"/>
<text text-anchor="middle" x="3145.38" y="-408.2" font-family="Times,serif" font-size="14.00">0:0 &#45; 2:2</text>
</g>
<!-- v41&#45;&gt;x42 -->
<g id="edge117" class="edge">
<title>v41:e&#45;&gt;x42:w</title>
<path fill="none" stroke="black" stroke-width="3" d="M3071.38,-437.75C3082.76,-437.75 3088.07,-437.75 3095.94,-437.75"/>
<polygon fill="black" stroke="black" stroke-width="3" points="3092.84,-441.25 3102.84,-437.75 3092.84,-434.25 3092.84,-441.25"/>
</g>
<!-- x42&#45;&gt;n9 -->
<g id="edge102" class="edge">
<title>x42:e&#45;&gt;n9:w</title>
<path fill="none" stroke="black" d="M3183.38,-413.25C3222.85,-413.25 3185.21,-487.27 3208.41,-502.88"/>
<polygon fill="black" stroke="black" points="3207.36,-506.22 3217.92,-505.37 3209.13,-499.45 3207.36,-506.22"/>
</g>
<!-- x42&#45;&gt;n9 -->
<g id="edge103" class="edge">
<title>x42:e&#45;&gt;n9:w</title>
<path fill="none" stroke="black" d="M3183.38,-437.75C3212.77,-437.75 3192.98,-487.97 3208.54,-502.09"/>
<polygon fill="black" stroke="black" points="3207.36,-505.39 3217.95,-505.27 3209.59,-498.76 3207.36,-505.39"/>
</g>
<!-- x42&#45;&gt;n9 -->
<g id="edge104" class="edge">
<title>x42:e&#45;&gt;n9:w</title>
<path fill="none" stroke="black" stroke-width="3" d="M3183.38,-462.25C3203.77,-462.25 3198.23,-490.97 3208.89,-501.74"/>
<polygon fill="black" stroke="black" stroke-width="3" points="3204.55,-503.82 3215.14,-504.13 3207.05,-497.28 3204.55,-503.82"/>
</g>
<!-- x43 -->
<g id="node62" class="node">
<title>x43</title>
<path fill="none" stroke="black" d="M1191.5,-478.25C1191.5,-478.25 1230,-478.25 1230,-478.25 1236,-478.25 1242,-484.25 1242,-490.25 1242,-490.25 1242,-515.25 1242,-515.25 1242,-521.25 1236,-527.25 1230,-527.25 1230,-527.25 1191.5,-527.25 1191.5,-527.25 1185.5,-527.25 1179.5,-521.25 1179.5,-515.25 1179.5,-515.25 1179.5,-490.25 1179.5,-490.25 1179.5,-484.25 1185.5,-478.25 1191.5,-478.25"/>
<text text-anchor="middle" x="1210.75" y="-509.95" font-family="Times,serif" font-size="14.00">1 &#45;&gt; 1:1</text>
<polyline fill="none" stroke="black" points="1179.5,-502.75 1242,-502.75"/>
<text text-anchor="middle" x="1210.75" y="-485.45" font-family="Times,serif" font-size="14.00">1:1 &#45; 0:0</text>
</g>
<!-- x44 -->
<g id="node63" class="node">
<title>x44</title>
<path fill="none" stroke="black" d="M1302.62,-484.75C1302.62,-484.75 1341.12,-484.75 1341.12,-484.75 1347.12,-484.75 1353.12,-490.75 1353.12,-496.75 1353.12,-496.75 1353.12,-508.75 1353.12,-508.75 1353.12,-514.75 1347.12,-520.75 1341.12,-520.75 1341.12,-520.75 1302.62,-520.75 1302.62,-520.75 1296.62,-520.75 1290.62,-514.75 1290.62,-508.75 1290.62,-508.75 1290.62,-496.75 1290.62,-496.75 1290.62,-490.75 1296.62,-484.75 1302.62,-484.75"/>
<text text-anchor="middle" x="1321.87" y="-497.95" font-family="Times,serif" font-size="14.00">1:0 &#45; 1:0</text>
</g>
<!-- x43&#45;&gt;x44 -->
<g id="edge28" class="edge">
<title>x43:e&#45;&gt;x44:w</title>
<path fill="none" stroke="black" stroke-width="3" d="M1255.03,-502.75C1263.03,-502.75 1268.8,-502.75 1276.83,-502.75"/>
<polygon fill="none" stroke="black" stroke-width="3" points="1256.7,-502.75 1250.7,-506.75 1244.7,-502.75 1250.7,-498.75 1256.7,-502.75"/>
<polygon fill="none" stroke="black" stroke-width="3" points="1274.92,-502.75 1280.92,-498.75 1286.92,-502.75 1280.92,-506.75 1274.92,-502.75"/>
</g>
<!-- x44&#45;&gt;n2 -->
<g id="edge62" class="edge">
<title>x44:e&#45;&gt;n2:w</title>
<path fill="none" stroke="black" stroke-width="3" d="M1354.12,-503C1407.04,-503 1418.7,-484.68 1464.25,-457.75 1477.93,-449.66 1479.69,-436.74 1489.29,-431.3"/>
<polygon fill="black" stroke="black" stroke-width="3" points="1486.88,-435.45 1495.82,-429.78 1485.29,-428.63 1486.88,-435.45"/>
</g>
<!-- x46 -->
<g id="node65" class="node">
<title>x46</title>
<path fill="none" stroke="black" d="M2155.6,-466.75C2155.6,-466.75 2194.1,-466.75 2194.1,-466.75 2200.1,-466.75 2206.1,-472.75 2206.1,-478.75 2206.1,-478.75 2206.1,-490.75 2206.1,-490.75 2206.1,-496.75 2200.1,-502.75 2194.1,-502.75 2194.1,-502.75 2155.6,-502.75 2155.6,-502.75 2149.6,-502.75 2143.6,-496.75 2143.6,-490.75 2143.6,-490.75 2143.6,-478.75 2143.6,-478.75 2143.6,-472.75 2149.6,-466.75 2155.6,-466.75"/>
<text text-anchor="middle" x="2174.85" y="-479.95" font-family="Times,serif" font-size="14.00">1:0 &#45; 5:4</text>
</g>
<!-- x45&#45;&gt;x46 -->
<g id="edge29" class="edge">
<title>x45:e&#45;&gt;x46:w</title>
<path fill="none" stroke="black" stroke-width="3" d="M1992.04,-491.68C2050.76,-490.98 2072.18,-485.52 2130.91,-484.82"/>
<polygon fill="none" stroke="black" stroke-width="3" points="1994.05,-491.66 1988.08,-495.7 1982.05,-491.73 1988.03,-487.7 1994.05,-491.66"/>
<polygon fill="none" stroke="black" stroke-width="3" points="2128.89,-484.84 2134.87,-480.8 2140.89,-484.77 2134.92,-488.8 2128.89,-484.84"/>
</g>
<!-- x46&#45;&gt;n12 -->
<g id="edge45" class="edge">
<title>x46:e&#45;&gt;n12:w</title>
<path fill="none" stroke="black" stroke-width="3" d="M2206.1,-485C2225.41,-485 2221.41,-458.94 2231.62,-448.76"/>
<polygon fill="black" stroke="black" stroke-width="3" points="2229.77,-453.21 2237.86,-446.37 2227.27,-446.67 2229.77,-453.21"/>
</g>
<!-- x48 -->
<g id="node67" class="node">
<title>x48</title>
<path fill="none" stroke="black" d="M2622.85,-531.25C2622.85,-531.25 2661.35,-531.25 2661.35,-531.25 2667.35,-531.25 2673.35,-537.25 2673.35,-543.25 2673.35,-543.25 2673.35,-568.25 2673.35,-568.25 2673.35,-574.25 2667.35,-580.25 2661.35,-580.25 2661.35,-580.25 2622.85,-580.25 2622.85,-580.25 2616.85,-580.25 2610.85,-574.25 2610.85,-568.25 2610.85,-568.25 2610.85,-543.25 2610.85,-543.25 2610.85,-537.25 2616.85,-531.25 2622.85,-531.25"/>
<text text-anchor="middle" x="2642.1" y="-562.95" font-family="Times,serif" font-size="14.00">3:2 &#45; 5:4</text>
<polyline fill="none" stroke="black" points="2610.85,-555.75 2673.35,-555.75"/>
<text text-anchor="middle" x="2642.1" y="-538.45" font-family="Times,serif" font-size="14.00">1:0 &#45; 2:1</text>
</g>
<!-- x47&#45;&gt;x48 -->
<g id="edge30" class="edge">
<title>x47:e&#45;&gt;x48:w</title>
<path fill="none" stroke="black" stroke-width="3" d="M2463.99,-527.08C2521.33,-530.05 2540.64,-552.46 2598,-555.43"/>
<polygon fill="none" stroke="black" stroke-width="3" points="2465.8,-527.12 2459.7,-530.97 2453.8,-526.82 2459.9,-522.97 2465.8,-527.12"/>
<polygon fill="none" stroke="black" stroke-width="3" points="2596.15,-555.38 2602.25,-551.53 2608.15,-555.68 2602.05,-559.53 2596.15,-555.38"/>
</g>
<!-- x48&#45;&gt;n13 -->
<g id="edge54" class="edge">
<title>x48:e&#45;&gt;n13:w</title>
<path fill="none" stroke="black" stroke-width="3" d="M2673.35,-543.5C2687.37,-543.5 2690.09,-531.27 2698.47,-525.15"/>
<polygon fill="black" stroke="black" stroke-width="3" points="2696.51,-529.43 2705.02,-523.1 2694.43,-522.74 2696.51,-529.43"/>
</g>
<!-- x48&#45;&gt;n13 -->
<g id="edge55" class="edge">
<title>x48:e&#45;&gt;n13:w</title>
<path fill="none" stroke="black" stroke-width="3" d="M2673.35,-568C2694.72,-568 2687.73,-536.88 2698.9,-525.69"/>
<polygon fill="black" stroke="black" stroke-width="3" points="2696.98,-530.16 2705.1,-523.35 2694.51,-523.61 2696.98,-530.16"/>
</g>
<!-- v49 -->
<g id="node68" class="node">
<title>v49</title>
<ellipse fill="none" stroke="black" cx="819.25" cy="-693.75" rx="30.88" ry="18"/>
<text text-anchor="middle" x="819.25" y="-688.7" font-family="Times,serif" font-size="14.00">3&#39;001</text>
</g>
<!-- x50 -->
<g id="node69" class="node">
<title>x50</title>
<path fill="none" stroke="black" d="M930.87,-657.75C930.87,-657.75 969.37,-657.75 969.37,-657.75 975.37,-657.75 981.37,-663.75 981.37,-669.75 981.37,-669.75 981.37,-681.75 981.37,-681.75 981.37,-687.75 975.37,-693.75 969.37,-693.75 969.37,-693.75 930.87,-693.75 930.87,-693.75 924.87,-693.75 918.87,-687.75 918.87,-681.75 918.87,-681.75 918.87,-669.75 918.87,-669.75 918.87,-663.75 924.87,-657.75 930.87,-657.75"/>
<text text-anchor="middle" x="950.12" y="-670.95" font-family="Times,serif" font-size="14.00">2:0 &#45; 4:2</text>
</g>
<!-- v49&#45;&gt;x50 -->
<g id="edge118" class="edge">
<title>v49:e&#45;&gt;x50:w</title>
<path fill="none" stroke="black" stroke-width="3" d="M851.41,-693.75C877.83,-693.75 885.36,-680.34 906.61,-676.67"/>
<polygon fill="black" stroke="black" stroke-width="3" points="903.66,-680.42 913.35,-676.12 903.09,-673.44 903.66,-680.42"/>
</g>
<!-- x50&#45;&gt;n1 -->
<g id="edge31" class="edge">
<title>x50:e&#45;&gt;n1:w</title>
<path fill="none" stroke="black" stroke-width="3" d="M982.37,-676C1034.68,-676 1000.36,-610.63 1033,-569.75 1048.7,-550.08 1054.04,-534.06 1073.67,-529.84"/>
<polygon fill="black" stroke="black" stroke-width="3" points="1070.83,-533.63 1080.45,-529.19 1070.16,-526.66 1070.83,-533.63"/>
</g>
<!-- n1&#45;&gt;x13 -->
<g id="edge34" class="edge">
<title>n1:e&#45;&gt;x13:w</title>
<path fill="none" stroke="black" d="M1091.53,-528.75C1144.42,-528.75 1125.8,-448.4 1168.09,-436.47"/>
<polygon fill="black" stroke="black" points="1168.53,-439.94 1178,-435.19 1167.63,-433 1168.53,-439.94"/>
</g>
<!-- n1&#45;&gt;x27 -->
<g id="edge35" class="edge">
<title>n1:e&#45;&gt;x27:w</title>
<path fill="none" stroke="black" d="M1091.53,-528.75C1194.16,-528.75 1218.24,-555.75 1320.87,-555.75 1320.87,-555.75 1320.87,-555.75 1434,-555.75 1494.18,-555.75 1476.55,-493.38 1503.85,-439.75 1520.46,-407.1 1503.41,-364.99 1528.54,-356.16"/>
<polygon fill="black" stroke="black" points="1528.97,-359.64 1538.35,-354.72 1527.95,-352.71 1528.97,-359.64"/>
</g>
<!-- n1&#45;&gt;x43 -->
<g id="edge36" class="edge">
<title>n1:e&#45;&gt;x43:w</title>
<path fill="none" stroke="black" d="M1091.53,-528.75C1130,-528.75 1135.95,-497.61 1168.07,-491.52"/>
<polygon fill="black" stroke="black" points="1168.34,-495.01 1177.99,-490.64 1167.72,-488.04 1168.34,-495.01"/>
</g>
<!-- n2&#45;&gt;x27 -->
<g id="edge63" class="edge">
<title>n2:e&#45;&gt;x27:w</title>
<path fill="none" stroke="black" d="M1503.85,-428.75C1515.22,-428.75 1520.53,-428.37 1528.4,-428.15"/>
<polygon fill="black" stroke="black" points="1528.38,-431.65 1538.33,-428.02 1528.29,-424.65 1528.38,-431.65"/>
</g>
<!-- n2&#45;&gt;x27 -->
<g id="edge64" class="edge">
<title>n2:e&#45;&gt;x27:w</title>
<path fill="none" stroke="black" stroke-width="3" d="M1503.85,-428.75C1525.8,-428.75 1517.96,-461.22 1529.2,-472.89"/>
<polygon fill="black" stroke="black" stroke-width="3" points="1525.02,-475.02 1535.61,-475.36 1527.55,-468.5 1525.02,-475.02"/>
</g>
<!-- n2&#45;&gt;x35 -->
<g id="edge65" class="edge">
<title>n2:e&#45;&gt;x35:w</title>
<path fill="none" stroke="black" stroke-width="3" d="M1503.85,-428.75C1570.35,-428.75 1481.45,-292.08 1528.53,-275"/>
<polygon fill="black" stroke="black" stroke-width="3" points="1526.01,-278.93 1535.36,-273.94 1524.94,-272.01 1526.01,-278.93"/>
</g>
<!-- n3&#45;&gt;x27 -->
<g id="edge67" class="edge">
<title>n3:e&#45;&gt;x27:w</title>
<path fill="none" stroke="black" d="M1503.85,-248.75C1570.05,-248.75 1481.7,-384.76 1528.58,-401.76"/>
<polygon fill="black" stroke="black" points="1527.93,-405.2 1538.35,-403.27 1529,-398.29 1527.93,-405.2"/>
</g>
<!-- n3&#45;&gt;x35 -->
<g id="edge68" class="edge">
<title>n3:e&#45;&gt;x35:w</title>
<path fill="none" stroke="black" d="M1503.85,-248.75C1515.22,-248.75 1520.53,-248.75 1528.4,-248.75"/>
<polygon fill="black" stroke="black" points="1528.33,-252.25 1538.33,-248.75 1528.33,-245.25 1528.33,-252.25"/>
</g>
<!-- n5&#45;&gt;x15 -->
<g id="edge72" class="edge">
<title>n5:e&#45;&gt;x15:w</title>
<path fill="none" stroke="black" stroke-width="3" d="M3587.3,-573.75C3598.67,-573.75 3603.98,-573.62 3611.85,-573.55"/>
<polygon fill="black" stroke="black" stroke-width="3" points="3608.77,-577.06 3618.76,-573.52 3608.74,-570.06 3608.77,-577.06"/>
</g>
<!-- n5&#45;&gt;x15 -->
<g id="edge73" class="edge">
<title>n5:e&#45;&gt;x15:w</title>
<path fill="none" stroke="black" stroke-width="3" d="M3587.3,-573.75C3601.92,-573.75 3603.97,-587.68 3612.51,-594.42"/>
<polygon fill="black" stroke="black" stroke-width="3" points="3608.39,-596.74 3618.99,-596.57 3610.6,-590.1 3608.39,-596.74"/>
</g>
<!-- n6&#45;&gt;x12 -->
<g id="edge79" class="edge">
<title>n6:e&#45;&gt;x12:w</title>
<path fill="none" stroke="black" d="M1828.88,-236.75C1866.74,-236.75 1873.74,-264.64 1905.57,-270.08"/>
<polygon fill="black" stroke="black" points="1905.09,-273.56 1915.34,-270.88 1905.66,-266.58 1905.09,-273.56"/>
</g>
</g>
</svg>
