<?xml version="1.0" encoding="UTF-8" standalone="no"?>
<!DOCTYPE svg PUBLIC "-//W3C//DTD SVG 1.1//EN"
 "http://www.w3.org/Graphics/SVG/1.1/DTD/svg11.dtd">
<!-- Generated by graphviz version 12.2.1 (20241206.2353)
 -->
<!-- Title: top Pages: 1 -->
<svg width="3399pt" height="433pt"
 viewBox="0.00 0.00 3398.58 432.50" xmlns="http://www.w3.org/2000/svg" xmlns:xlink="http://www.w3.org/1999/xlink">
<g id="graph0" class="graph" transform="scale(1 1) rotate(0) translate(4 428.5)">
<title>top</title>
<polygon fill="white" stroke="none" points="-4,4 -4,-428.5 3394.58,-428.5 3394.58,4 -4,4"/>
<text text-anchor="middle" x="1695.29" y="-7.2" font-family="Times,serif" font-size="14.00">top</text>
<!-- n10 -->
<g id="node1" class="node">
<title>n10</title>
<polygon fill="none" stroke="black" points="107.84,-177.04 107.84,-191.96 76.26,-202.5 31.59,-202.5 0,-191.96 0,-177.04 31.59,-166.5 76.26,-166.5 107.84,-177.04"/>
<text text-anchor="middle" x="53.92" y="-179.45" font-family="Times,serif" font-size="14.00">input_data</text>
</g>
<!-- x1 -->
<g id="node7" class="node">
<title>x1</title>
<path fill="none" stroke="black" d="M851.84,-81.5C851.84,-81.5 890.34,-81.5 890.34,-81.5 896.34,-81.5 902.34,-87.5 902.34,-93.5 902.34,-93.5 902.34,-105.5 902.34,-105.5 902.34,-111.5 896.34,-117.5 890.34,-117.5 890.34,-117.5 851.84,-117.5 851.84,-117.5 845.84,-117.5 839.84,-111.5 839.84,-105.5 839.84,-105.5 839.84,-93.5 839.84,-93.5 839.84,-87.5 845.84,-81.5 851.84,-81.5"/>
<text text-anchor="middle" x="871.09" y="-94.7" font-family="Times,serif" font-size="14.00">4:2 &#45; 2:0</text>
</g>
<!-- n10&#45;&gt;x1 -->
<g id="edge25" class="edge">
<title>n10:e&#45;&gt;x1:w</title>
<path fill="none" stroke="black" stroke-width="3" d="M107.84,-184.5C110.89,-184.5 308.17,-102.5 311.22,-102.5 311.22,-102.5 311.22,-102.5 632.97,-102.5 720.97,-102.5 745.79,-99.98 828.36,-99.76"/>
<polygon fill="black" stroke="black" stroke-width="3" points="825.3,-103.27 835.3,-99.76 825.3,-96.27 825.3,-103.27"/>
</g>
<!-- c18 -->
<g id="node8" class="node">
<title>c18</title>
<polygon fill="none" stroke="black" points="265.34,-360 265.34,-409 359.09,-409 359.09,-360 265.34,-360"/>
<text text-anchor="middle" x="278.22" y="-391.7" font-family="Times,serif" font-size="14.00">A</text>
<polyline fill="none" stroke="black" points="265.34,-384.5 291.09,-384.5"/>
<text text-anchor="middle" x="278.22" y="-367.2" font-family="Times,serif" font-size="14.00">B</text>
<polyline fill="none" stroke="black" points="291.09,-360 291.09,-409"/>
<text text-anchor="middle" x="312.22" y="-387.7" font-family="Times,serif" font-size="14.00">$31</text>
<text text-anchor="middle" x="312.22" y="-371.2" font-family="Times,serif" font-size="14.00">$add</text>
<polyline fill="none" stroke="black" points="333.34,-360 333.34,-409"/>
<text text-anchor="middle" x="346.22" y="-379.7" font-family="Times,serif" font-size="14.00">Y</text>
</g>
<!-- n10&#45;&gt;c18 -->
<g id="edge20" class="edge">
<title>n10:e&#45;&gt;c18:w</title>
<path fill="none" stroke="black" stroke-width="3" d="M107.84,-184.5C173.38,-184.5 100.02,-278.76 143.84,-327.5 152.07,-336.65 224.61,-362.89 254.41,-370.29"/>
<polygon fill="black" stroke="black" stroke-width="3" points="250.41,-373.13 260.87,-371.45 251.65,-366.24 250.41,-373.13"/>
</g>
<!-- x2 -->
<g id="node9" class="node">
<title>x2</title>
<path fill="none" stroke="black" d="M167.34,-375C167.34,-375 205.84,-375 205.84,-375 211.84,-375 217.84,-381 217.84,-387 217.84,-387 217.84,-412 217.84,-412 217.84,-418 211.84,-424 205.84,-424 205.84,-424 167.34,-424 167.34,-424 161.34,-424 155.34,-418 155.34,-412 155.34,-412 155.34,-387 155.34,-387 155.34,-381 161.34,-375 167.34,-375"/>
<text text-anchor="middle" x="186.59" y="-406.7" font-family="Times,serif" font-size="14.00">0 &#45;&gt; 6:6</text>
<polyline fill="none" stroke="black" points="155.34,-399.5 217.84,-399.5"/>
<text text-anchor="middle" x="186.59" y="-382.2" font-family="Times,serif" font-size="14.00">5:0 &#45; 5:0</text>
</g>
<!-- n10&#45;&gt;x2 -->
<g id="edge26" class="edge">
<title>n10:e&#45;&gt;x2:w</title>
<path fill="none" stroke="black" stroke-width="3" d="M107.84,-184.5C196.14,-184.5 73.86,-369.44 143.24,-386.06"/>
<polygon fill="black" stroke="black" stroke-width="3" points="139.51,-389.18 149.83,-386.77 140.26,-382.22 139.51,-389.18"/>
</g>
<!-- x3 -->
<g id="node11" class="node">
<title>x3</title>
<path fill="none" stroke="black" d="M167.34,-281.5C167.34,-281.5 205.84,-281.5 205.84,-281.5 211.84,-281.5 217.84,-287.5 217.84,-293.5 217.84,-293.5 217.84,-305.5 217.84,-305.5 217.84,-311.5 211.84,-317.5 205.84,-317.5 205.84,-317.5 167.34,-317.5 167.34,-317.5 161.34,-317.5 155.34,-311.5 155.34,-305.5 155.34,-305.5 155.34,-293.5 155.34,-293.5 155.34,-287.5 161.34,-281.5 167.34,-281.5"/>
<text text-anchor="middle" x="186.59" y="-294.7" font-family="Times,serif" font-size="14.00">3:1 &#45; 2:0</text>
</g>
<!-- n10&#45;&gt;x3 -->
<g id="edge27" class="edge">
<title>n10:e&#45;&gt;x3:w</title>
<path fill="none" stroke="black" stroke-width="3" d="M107.84,-184.5C158.76,-184.5 108.37,-282.45 143.46,-297.75"/>
<polygon fill="black" stroke="black" stroke-width="3" points="139.41,-300.56 149.88,-298.93 140.67,-293.68 139.41,-300.56"/>
</g>
<!-- x8 -->
<g id="node19" class="node">
<title>x8</title>
<path fill="none" stroke="black" d="M505.59,-131.5C505.59,-131.5 544.09,-131.5 544.09,-131.5 550.09,-131.5 556.09,-137.5 556.09,-143.5 556.09,-143.5 556.09,-155.5 556.09,-155.5 556.09,-161.5 550.09,-167.5 544.09,-167.5 544.09,-167.5 505.59,-167.5 505.59,-167.5 499.59,-167.5 493.59,-161.5 493.59,-155.5 493.59,-155.5 493.59,-143.5 493.59,-143.5 493.59,-137.5 499.59,-131.5 505.59,-131.5"/>
<text text-anchor="middle" x="524.84" y="-144.7" font-family="Times,serif" font-size="14.00">3:1 &#45; 2:0</text>
</g>
<!-- n10&#45;&gt;x8 -->
<g id="edge28" class="edge">
<title>n10:e&#45;&gt;x8:w</title>
<path fill="none" stroke="black" stroke-width="3" d="M107.84,-184.5C148.1,-184.5 412.99,-154.09 482.21,-150.16"/>
<polygon fill="black" stroke="black" stroke-width="3" points="479.19,-153.78 489.05,-149.92 478.93,-146.78 479.19,-153.78"/>
</g>
<!-- c24 -->
<g id="node23" class="node">
<title>c24</title>
<polygon fill="none" stroke="black" points="143.84,-25 143.84,-74 229.34,-74 229.34,-25 143.84,-25"/>
<text text-anchor="middle" x="156.72" y="-56.7" font-family="Times,serif" font-size="14.00">A</text>
<polyline fill="none" stroke="black" points="143.84,-49.5 169.59,-49.5"/>
<text text-anchor="middle" x="156.72" y="-32.2" font-family="Times,serif" font-size="14.00">B</text>
<polyline fill="none" stroke="black" points="169.59,-25 169.59,-74"/>
<text text-anchor="middle" x="186.59" y="-52.7" font-family="Times,serif" font-size="14.00">$1</text>
<text text-anchor="middle" x="186.59" y="-36.2" font-family="Times,serif" font-size="14.00">$or</text>
<polyline fill="none" stroke="black" points="203.59,-25 203.59,-74"/>
<text text-anchor="middle" x="216.47" y="-44.7" font-family="Times,serif" font-size="14.00">Y</text>
</g>
<!-- n10&#45;&gt;c24 -->
<g id="edge21" class="edge">
<title>n10:e&#45;&gt;c24:w</title>
<path fill="none" stroke="black" stroke-width="3" d="M107.84,-184.5C160.25,-184.5 98.31,-80.18 132.85,-63.88"/>
<polygon fill="black" stroke="black" stroke-width="3" points="130.23,-67.95 139.38,-62.61 128.9,-61.08 130.23,-67.95"/>
</g>
<!-- n10&#45;&gt;c24 -->
<g id="edge22" class="edge">
<title>n10:e&#45;&gt;c24:w</title>
<path fill="none" stroke="black" stroke-width="3" d="M107.84,-184.5C170.74,-184.5 88.85,-56.16 132.52,-39.11"/>
<polygon fill="black" stroke="black" stroke-width="3" points="130.06,-43.06 139.36,-37.99 128.92,-36.16 130.06,-43.06"/>
</g>
<!-- c25 -->
<g id="node24" class="node">
<title>c25</title>
<polygon fill="none" stroke="black" points="265.72,-201 265.72,-250 358.72,-250 358.72,-201 265.72,-201"/>
<text text-anchor="middle" x="278.59" y="-232.7" font-family="Times,serif" font-size="14.00">A</text>
<polyline fill="none" stroke="black" points="265.72,-225.5 291.47,-225.5"/>
<text text-anchor="middle" x="278.59" y="-208.2" font-family="Times,serif" font-size="14.00">B</text>
<polyline fill="none" stroke="black" points="291.47,-201 291.47,-250"/>
<text text-anchor="middle" x="312.22" y="-228.7" font-family="Times,serif" font-size="14.00">$3</text>
<text text-anchor="middle" x="312.22" y="-212.2" font-family="Times,serif" font-size="14.00">$sub</text>
<polyline fill="none" stroke="black" points="332.97,-201 332.97,-250"/>
<text text-anchor="middle" x="345.84" y="-220.7" font-family="Times,serif" font-size="14.00">Y</text>
</g>
<!-- n10&#45;&gt;c25 -->
<g id="edge23" class="edge">
<title>n10:e&#45;&gt;c25:w</title>
<path fill="none" stroke="black" stroke-width="3" d="M107.84,-184.5C162.5,-184.5 175.88,-192.12 229.34,-203.5 240.99,-205.98 245.93,-209.93 253.94,-211.96"/>
<polygon fill="black" stroke="black" stroke-width="3" points="250.5,-215.09 260.83,-212.74 251.29,-208.14 250.5,-215.09"/>
</g>
<!-- x11 -->
<g id="node25" class="node">
<title>x11</title>
<path fill="none" stroke="black" d="M167.34,-213C167.34,-213 205.84,-213 205.84,-213 211.84,-213 217.84,-219 217.84,-225 217.84,-225 217.84,-250 217.84,-250 217.84,-256 211.84,-262 205.84,-262 205.84,-262 167.34,-262 167.34,-262 161.34,-262 155.34,-256 155.34,-250 155.34,-250 155.34,-225 155.34,-225 155.34,-219 161.34,-213 167.34,-213"/>
<text text-anchor="middle" x="186.59" y="-244.7" font-family="Times,serif" font-size="14.00">5:4 &#45; 2:1</text>
<polyline fill="none" stroke="black" points="155.34,-237.5 217.84,-237.5"/>
<text text-anchor="middle" x="186.59" y="-220.2" font-family="Times,serif" font-size="14.00">1 &#45;&gt; 0:0</text>
</g>
<!-- n10&#45;&gt;x11 -->
<g id="edge24" class="edge">
<title>n10:e&#45;&gt;x11:w</title>
<path fill="none" stroke="black" stroke-width="3" d="M107.84,-184.5C138.86,-184.5 124.1,-234.01 143.32,-246.78"/>
<polygon fill="black" stroke="black" stroke-width="3" points="139.39,-249.34 149.96,-248.57 141.21,-242.58 139.39,-249.34"/>
</g>
<!-- n11 -->
<g id="node2" class="node">
<title>n11</title>
<polygon fill="none" stroke="black" points="3123.06,-68.04 3123.06,-82.96 3088.55,-93.5 3039.75,-93.5 3005.24,-82.96 3005.24,-68.04 3039.75,-57.5 3088.55,-57.5 3123.06,-68.04"/>
<text text-anchor="middle" x="3064.15" y="-70.45" font-family="Times,serif" font-size="14.00">output_data</text>
</g>
<!-- x20 -->
<g id="node35" class="node">
<title>x20</title>
<path fill="none" stroke="black" d="M3171.06,-33.5C3171.06,-33.5 3253.81,-33.5 3253.81,-33.5 3259.81,-33.5 3265.81,-39.5 3265.81,-45.5 3265.81,-45.5 3265.81,-57.5 3265.81,-57.5 3265.81,-63.5 3259.81,-69.5 3253.81,-69.5 3253.81,-69.5 3171.06,-69.5 3171.06,-69.5 3165.06,-69.5 3159.06,-63.5 3159.06,-57.5 3159.06,-57.5 3159.06,-45.5 3159.06,-45.5 3159.06,-39.5 3165.06,-33.5 3171.06,-33.5"/>
<text text-anchor="middle" x="3212.43" y="-46.7" font-family="Times,serif" font-size="14.00">12x 23:23 &#45; 11:0</text>
</g>
<!-- n11&#45;&gt;x20 -->
<g id="edge32" class="edge">
<title>n11:e&#45;&gt;x20:w</title>
<path fill="none" stroke="black" stroke-width="3" d="M3123.06,-75.5C3137.58,-75.5 3139.76,-61.86 3148.3,-55.25"/>
<polygon fill="black" stroke="black" stroke-width="3" points="3146.31,-59.58 3154.74,-53.16 3144.15,-52.93 3146.31,-59.58"/>
</g>
<!-- n12 -->
<g id="node3" class="node">
<title>n12</title>
<polygon fill="none" stroke="black" points="993.59,-67.5 938.34,-49.5 993.59,-31.5 1048.84,-49.5 993.59,-67.5"/>
<text text-anchor="middle" x="993.59" y="-44.45" font-family="Times,serif" font-size="14.00">temp_2</text>
</g>
<!-- c26 -->
<g id="node27" class="node">
<title>c26</title>
<polygon fill="none" stroke="black" points="2750.74,-51 2750.74,-100 2843.74,-100 2843.74,-51 2750.74,-51"/>
<text text-anchor="middle" x="2763.62" y="-82.7" font-family="Times,serif" font-size="14.00">A</text>
<polyline fill="none" stroke="black" points="2750.74,-75.5 2776.49,-75.5"/>
<text text-anchor="middle" x="2763.62" y="-58.2" font-family="Times,serif" font-size="14.00">B</text>
<polyline fill="none" stroke="black" points="2776.49,-51 2776.49,-100"/>
<text text-anchor="middle" x="2797.24" y="-78.7" font-family="Times,serif" font-size="14.00">$33</text>
<text text-anchor="middle" x="2797.24" y="-62.2" font-family="Times,serif" font-size="14.00">$sub</text>
<polyline fill="none" stroke="black" points="2817.99,-51 2817.99,-100"/>
<text text-anchor="middle" x="2830.87" y="-70.7" font-family="Times,serif" font-size="14.00">Y</text>
</g>
<!-- n12&#45;&gt;c26 -->
<g id="edge34" class="edge">
<title>n12:e&#45;&gt;c26:w</title>
<path fill="none" stroke="black" stroke-width="3" d="M1048.84,-49.5C1134.95,-49.5 1156.48,-49.5 1242.59,-49.5 1242.59,-49.5 1242.59,-49.5 2601.94,-49.5 2664.47,-49.5 2682.28,-61.69 2739.57,-63.11"/>
<polygon fill="black" stroke="black" stroke-width="3" points="2736.16,-66.57 2746.2,-63.19 2736.25,-59.57 2736.16,-66.57"/>
</g>
<!-- n13 -->
<g id="node4" class="node">
<title>n13</title>
<polygon fill="none" stroke="black" points="2002.54,-180.5 1947.29,-162.5 2002.54,-144.5 2057.79,-162.5 2002.54,-180.5"/>
<text text-anchor="middle" x="2002.54" y="-157.45" font-family="Times,serif" font-size="14.00">temp_3</text>
</g>
<!-- c23 -->
<g id="node21" class="node">
<title>c23</title>
<polygon fill="none" stroke="black" points="2093.79,-154 2093.79,-203 2189.79,-203 2189.79,-154 2093.79,-154"/>
<text text-anchor="middle" x="2106.67" y="-185.7" font-family="Times,serif" font-size="14.00">A</text>
<polyline fill="none" stroke="black" points="2093.79,-178.5 2119.54,-178.5"/>
<text text-anchor="middle" x="2106.67" y="-161.2" font-family="Times,serif" font-size="14.00">B</text>
<polyline fill="none" stroke="black" points="2119.54,-154 2119.54,-203"/>
<text text-anchor="middle" x="2141.79" y="-181.7" font-family="Times,serif" font-size="14.00">$32</text>
<text text-anchor="middle" x="2141.79" y="-165.2" font-family="Times,serif" font-size="14.00">$mul</text>
<polyline fill="none" stroke="black" points="2164.04,-154 2164.04,-203"/>
<text text-anchor="middle" x="2176.92" y="-173.7" font-family="Times,serif" font-size="14.00">Y</text>
</g>
<!-- n13&#45;&gt;c23 -->
<g id="edge36" class="edge">
<title>n13:e&#45;&gt;c23:w</title>
<path fill="none" stroke="black" stroke-width="3" d="M2057.79,-162.5C2069.23,-162.5 2074.47,-164.4 2082.32,-165.49"/>
<polygon fill="black" stroke="black" stroke-width="3" points="2079.05,-168.78 2089.26,-165.95 2079.52,-161.8 2079.05,-168.78"/>
</g>
<!-- c17 -->
<g id="node5" class="node">
<title>c17</title>
<polygon fill="none" stroke="black" points="1817.54,-131 1817.54,-180 1911.29,-180 1911.29,-131 1817.54,-131"/>
<text text-anchor="middle" x="1830.42" y="-162.7" font-family="Times,serif" font-size="14.00">A</text>
<polyline fill="none" stroke="black" points="1817.54,-155.5 1843.29,-155.5"/>
<text text-anchor="middle" x="1830.42" y="-138.2" font-family="Times,serif" font-size="14.00">B</text>
<polyline fill="none" stroke="black" points="1843.29,-131 1843.29,-180"/>
<text text-anchor="middle" x="1864.42" y="-158.7" font-family="Times,serif" font-size="14.00">$10</text>
<text text-anchor="middle" x="1864.42" y="-142.2" font-family="Times,serif" font-size="14.00">$add</text>
<polyline fill="none" stroke="black" points="1885.54,-131 1885.54,-180"/>
<text text-anchor="middle" x="1898.42" y="-150.7" font-family="Times,serif" font-size="14.00">Y</text>
</g>
<!-- c17&#45;&gt;n13 -->
<g id="edge35" class="edge">
<title>c17:e&#45;&gt;n13:w</title>
<path fill="none" stroke="black" stroke-width="3" d="M1911.29,-155.75C1922.99,-155.75 1928.06,-159.24 1936.03,-161.2"/>
<polygon fill="black" stroke="black" stroke-width="3" points="1932.45,-164.31 1942.78,-161.98 1933.25,-157.35 1932.45,-164.31"/>
</g>
<!-- x0 -->
<g id="node6" class="node">
<title>x0</title>
<path fill="none" stroke="black" d="M1731.04,-143C1731.04,-143 1769.54,-143 1769.54,-143 1775.54,-143 1781.54,-149 1781.54,-155 1781.54,-155 1781.54,-180 1781.54,-180 1781.54,-186 1775.54,-192 1769.54,-192 1769.54,-192 1731.04,-192 1731.04,-192 1725.04,-192 1719.04,-186 1719.04,-180 1719.04,-180 1719.04,-155 1719.04,-155 1719.04,-149 1725.04,-143 1731.04,-143"/>
<text text-anchor="middle" x="1750.29" y="-174.7" font-family="Times,serif" font-size="14.00">2:2 &#45; 2:2</text>
<polyline fill="none" stroke="black" points="1719.04,-167.5 1781.54,-167.5"/>
<text text-anchor="middle" x="1750.29" y="-150.2" font-family="Times,serif" font-size="14.00">1:0 &#45; 1:0</text>
</g>
<!-- x0&#45;&gt;c17 -->
<g id="edge1" class="edge">
<title>x0:e&#45;&gt;c17:w</title>
<path fill="none" stroke="black" stroke-width="3" d="M1794.26,-167.56C1797.86,-167.6 1800.99,-167.65 1804.57,-167.68"/>
<polygon fill="none" stroke="black" stroke-width="3" points="1796.25,-167.57 1790.23,-171.54 1784.25,-167.51 1790.27,-163.54 1796.25,-167.57"/>
<polygon fill="none" stroke="black" stroke-width="3" points="1802.84,-167.68 1808.86,-163.71 1814.84,-167.74 1808.82,-171.71 1802.84,-167.68"/>
</g>
<!-- x1&#45;&gt;c17 -->
<g id="edge2" class="edge">
<title>x1:e&#45;&gt;c17:w</title>
<path fill="none" stroke="black" stroke-width="3" d="M915.23,-99.52C1005.72,-99.84 1033.01,-103.5 1129.59,-103.5 1129.59,-103.5 1129.59,-103.5 1682.24,-103.5 1688.76,-103.5 1772.67,-131.02 1805.19,-140.26"/>
<polygon fill="none" stroke="black" stroke-width="3" points="917.05,-99.53 911.04,-103.52 905.05,-99.5 911.05,-95.52 917.05,-99.53"/>
<polygon fill="none" stroke="black" stroke-width="3" points="1803.25,-139.79 1810.02,-137.32 1814.91,-142.61 1808.14,-145.09 1803.25,-139.79"/>
</g>
<!-- c18&#45;&gt;c23 -->
<g id="edge19" class="edge">
<title>c18:e&#45;&gt;c23:w</title>
<path fill="none" stroke="black" stroke-width="3" d="M359.09,-384.75C432.31,-384.75 450.62,-384.5 523.84,-384.5 523.84,-384.5 523.84,-384.5 1865.42,-384.5 1994.62,-384.5 1962.76,-201.94 2082.53,-191.24"/>
<polygon fill="black" stroke="black" stroke-width="3" points="2079.42,-194.88 2089.26,-190.95 2079.11,-187.88 2079.42,-194.88"/>
</g>
<!-- x2&#45;&gt;c18 -->
<g id="edge3" class="edge">
<title>x2:e&#45;&gt;c18:w</title>
<path fill="none" stroke="black" stroke-width="3" d="M231.58,-399.09C239.2,-398.58 244.74,-397.7 252.31,-397.18"/>
<polygon fill="none" stroke="black" stroke-width="3" points="233.54,-399.03 227.67,-403.22 221.54,-399.41 227.41,-395.22 233.54,-399.03"/>
<polygon fill="none" stroke="black" stroke-width="3" points="250.64,-397.23 256.51,-393.04 262.64,-396.84 256.77,-401.03 250.64,-397.23"/>
</g>
<!-- c19 -->
<g id="node10" class="node">
<title>c19</title>
<polygon fill="none" stroke="black" points="266.47,-284 266.47,-325 357.97,-325 357.97,-284 266.47,-284"/>
<text text-anchor="middle" x="279.34" y="-299.7" font-family="Times,serif" font-size="14.00">A</text>
<polyline fill="none" stroke="black" points="292.22,-284 292.22,-325"/>
<text text-anchor="middle" x="312.22" y="-307.7" font-family="Times,serif" font-size="14.00">$57</text>
<text text-anchor="middle" x="312.22" y="-291.2" font-family="Times,serif" font-size="14.00">$not</text>
<polyline fill="none" stroke="black" points="332.22,-284 332.22,-325"/>
<text text-anchor="middle" x="345.09" y="-299.7" font-family="Times,serif" font-size="14.00">Y</text>
</g>
<!-- x6 -->
<g id="node16" class="node">
<title>x6</title>
<path fill="none" stroke="black" d="M407.09,-297C407.09,-297 445.59,-297 445.59,-297 451.59,-297 457.59,-303 457.59,-309 457.59,-309 457.59,-334 457.59,-334 457.59,-340 451.59,-346 445.59,-346 445.59,-346 407.09,-346 407.09,-346 401.09,-346 395.09,-340 395.09,-334 395.09,-334 395.09,-309 395.09,-309 395.09,-303 401.09,-297 407.09,-297"/>
<text text-anchor="middle" x="426.34" y="-328.7" font-family="Times,serif" font-size="14.00">1 &#45;&gt; 8:3</text>
<polyline fill="none" stroke="black" points="395.09,-321.5 457.59,-321.5"/>
<text text-anchor="middle" x="426.34" y="-304.2" font-family="Times,serif" font-size="14.00">2:0 &#45; 2:0</text>
</g>
<!-- c19&#45;&gt;x6 -->
<g id="edge37" class="edge">
<title>c19:e&#45;&gt;x6:w</title>
<path fill="none" stroke="black" stroke-width="3" d="M358.97,-304.75C370.59,-304.75 375.81,-307.07 383.83,-308.38"/>
<polygon fill="black" stroke="black" stroke-width="3" points="380.32,-311.62 390.56,-308.9 380.86,-304.64 380.32,-311.62"/>
</g>
<!-- x3&#45;&gt;c19 -->
<g id="edge4" class="edge">
<title>x3:e&#45;&gt;c19:w</title>
<path fill="none" stroke="black" stroke-width="3" d="M231.64,-300.27C239.37,-301.27 244.92,-302.98 252.64,-303.97"/>
<polygon fill="none" stroke="black" stroke-width="3" points="233.52,-300.39 227.29,-304.02 221.54,-299.66 227.77,-296.03 233.52,-300.39"/>
<polygon fill="none" stroke="black" stroke-width="3" points="250.79,-303.86 257.02,-300.23 262.77,-304.59 256.54,-308.22 250.79,-303.86"/>
</g>
<!-- c20 -->
<g id="node12" class="node">
<title>c20</title>
<polygon fill="none" stroke="black" points="1084.84,-236 1084.84,-277 1176.34,-277 1176.34,-236 1084.84,-236"/>
<text text-anchor="middle" x="1097.72" y="-251.7" font-family="Times,serif" font-size="14.00">A</text>
<polyline fill="none" stroke="black" points="1110.59,-236 1110.59,-277"/>
<text text-anchor="middle" x="1130.59" y="-259.7" font-family="Times,serif" font-size="14.00">$34</text>
<text text-anchor="middle" x="1130.59" y="-243.2" font-family="Times,serif" font-size="14.00">$not</text>
<polyline fill="none" stroke="black" points="1150.59,-236 1150.59,-277"/>
<text text-anchor="middle" x="1163.47" y="-251.7" font-family="Times,serif" font-size="14.00">Y</text>
</g>
<!-- x7 -->
<g id="node18" class="node">
<title>x7</title>
<path fill="none" stroke="black" d="M1224.34,-210.75C1224.34,-210.75 1262.84,-210.75 1262.84,-210.75 1268.84,-210.75 1274.84,-216.75 1274.84,-222.75 1274.84,-222.75 1274.84,-272.25 1274.84,-272.25 1274.84,-278.25 1268.84,-284.25 1262.84,-284.25 1262.84,-284.25 1224.34,-284.25 1224.34,-284.25 1218.34,-284.25 1212.34,-278.25 1212.34,-272.25 1212.34,-272.25 1212.34,-222.75 1212.34,-222.75 1212.34,-216.75 1218.34,-210.75 1224.34,-210.75"/>
<text text-anchor="middle" x="1243.59" y="-266.95" font-family="Times,serif" font-size="14.00">8:2 &#45; 8:2</text>
<polyline fill="none" stroke="black" points="1212.34,-259.75 1274.84,-259.75"/>
<text text-anchor="middle" x="1243.59" y="-242.45" font-family="Times,serif" font-size="14.00">0:0 &#45; 1:1</text>
<polyline fill="none" stroke="black" points="1212.34,-235.25 1274.84,-235.25"/>
<text text-anchor="middle" x="1243.59" y="-217.95" font-family="Times,serif" font-size="14.00">0:0 &#45; 0:0</text>
</g>
<!-- c20&#45;&gt;x7 -->
<g id="edge38" class="edge">
<title>c20:e&#45;&gt;x7:w</title>
<path fill="none" stroke="black" d="M1176.34,-256.75C1188.22,-256.75 1193.08,-251.97 1201.02,-249.28"/>
<polygon fill="black" stroke="black" points="1201.51,-252.75 1210.85,-247.74 1200.42,-245.83 1201.51,-252.75"/>
</g>
<!-- x4 -->
<g id="node13" class="node">
<title>x4</title>
<path fill="none" stroke="black" d="M974.34,-239.5C974.34,-239.5 1012.84,-239.5 1012.84,-239.5 1018.84,-239.5 1024.84,-245.5 1024.84,-251.5 1024.84,-251.5 1024.84,-263.5 1024.84,-263.5 1024.84,-269.5 1018.84,-275.5 1012.84,-275.5 1012.84,-275.5 974.34,-275.5 974.34,-275.5 968.34,-275.5 962.34,-269.5 962.34,-263.5 962.34,-263.5 962.34,-251.5 962.34,-251.5 962.34,-245.5 968.34,-239.5 974.34,-239.5"/>
<text text-anchor="middle" x="993.59" y="-252.7" font-family="Times,serif" font-size="14.00">1:1 &#45; 0:0</text>
</g>
<!-- x4&#45;&gt;c20 -->
<g id="edge5" class="edge">
<title>x4:e&#45;&gt;c20:w</title>
<path fill="none" stroke="black" d="M1038.78,-257.43C1051.49,-257.29 1059.35,-256.96 1072.11,-256.82"/>
<polygon fill="none" stroke="black" points="1038.74,-257.43 1032.76,-261.46 1026.74,-257.5 1032.72,-253.46 1038.74,-257.43"/>
<polygon fill="none" stroke="black" points="1071.94,-256.82 1077.92,-252.79 1083.94,-256.75 1077.96,-260.79 1071.94,-256.82"/>
</g>
<!-- c21 -->
<g id="node14" class="node">
<title>c21</title>
<polygon fill="none" stroke="black" points="707.84,-257 707.84,-306 803.84,-306 803.84,-257 707.84,-257"/>
<text text-anchor="middle" x="720.72" y="-288.7" font-family="Times,serif" font-size="14.00">A</text>
<polyline fill="none" stroke="black" points="707.84,-281.5 733.59,-281.5"/>
<text text-anchor="middle" x="720.72" y="-264.2" font-family="Times,serif" font-size="14.00">B</text>
<polyline fill="none" stroke="black" points="733.59,-257 733.59,-306"/>
<text text-anchor="middle" x="755.84" y="-284.7" font-family="Times,serif" font-size="14.00">$7</text>
<text text-anchor="middle" x="755.84" y="-268.2" font-family="Times,serif" font-size="14.00">$mul</text>
<polyline fill="none" stroke="black" points="778.09,-257 778.09,-306"/>
<text text-anchor="middle" x="790.97" y="-276.7" font-family="Times,serif" font-size="14.00">Y</text>
</g>
<!-- n8 -->
<g id="node41" class="node">
<title>n8</title>
<ellipse fill="black" stroke="black" cx="871.09" cy="-269.5" rx="1.8" ry="1.8"/>
</g>
<!-- c21&#45;&gt;n8 -->
<g id="edge52" class="edge">
<title>c21:e&#45;&gt;n8:w</title>
<path fill="none" stroke="black" stroke-width="3" d="M803.84,-281.75C828.61,-281.75 836.63,-272.79 856.56,-270.19"/>
<polygon fill="black" stroke="black" stroke-width="3" points="853.51,-273.89 863.28,-269.78 853.08,-266.9 853.51,-273.89"/>
</g>
<!-- x5 -->
<g id="node15" class="node">
<title>x5</title>
<path fill="none" stroke="black" d="M612.72,-269C612.72,-269 651.22,-269 651.22,-269 657.22,-269 663.22,-275 663.22,-281 663.22,-281 663.22,-306 663.22,-306 663.22,-312 657.22,-318 651.22,-318 651.22,-318 612.72,-318 612.72,-318 606.72,-318 600.72,-312 600.72,-306 600.72,-306 600.72,-281 600.72,-281 600.72,-275 606.72,-269 612.72,-269"/>
<text text-anchor="middle" x="631.97" y="-300.7" font-family="Times,serif" font-size="14.00">8:8 &#45; 6:6</text>
<polyline fill="none" stroke="black" points="600.72,-293.5 663.22,-293.5"/>
<text text-anchor="middle" x="631.97" y="-276.2" font-family="Times,serif" font-size="14.00">5:0 &#45; 5:0</text>
</g>
<!-- x5&#45;&gt;c21 -->
<g id="edge6" class="edge">
<title>x5:e&#45;&gt;c21:w</title>
<path fill="none" stroke="black" stroke-width="3" d="M677.13,-293.54C683.59,-293.59 688.53,-293.66 694.99,-293.71"/>
<polygon fill="none" stroke="black" stroke-width="3" points="678.92,-293.55 672.91,-297.53 666.92,-293.51 672.93,-289.53 678.92,-293.55"/>
<polygon fill="none" stroke="black" stroke-width="3" points="693.14,-293.7 699.15,-289.72 705.14,-293.74 699.12,-297.72 693.14,-293.7"/>
</g>
<!-- x6&#45;&gt;c21 -->
<g id="edge7" class="edge">
<title>x6:e&#45;&gt;c21:w</title>
<path fill="none" stroke="black" stroke-width="3" d="M470.61,-321.83C556.31,-326.19 592.54,-371.71 671.84,-327.5 693.44,-315.46 683.61,-284.53 695.5,-273.36"/>
<polygon fill="none" stroke="black" stroke-width="3" points="472.29,-321.87 466.19,-325.72 460.29,-321.57 466.39,-317.72 472.29,-321.87"/>
<polygon fill="none" stroke="black" stroke-width="3" points="693.89,-273.89 698.32,-268.2 705.27,-270.1 700.84,-275.79 693.89,-273.89"/>
</g>
<!-- c22 -->
<g id="node17" class="node">
<title>c22</title>
<polygon fill="none" stroke="black" points="1310.84,-194 1310.84,-243 1406.84,-243 1406.84,-194 1310.84,-194"/>
<text text-anchor="middle" x="1323.72" y="-225.7" font-family="Times,serif" font-size="14.00">A</text>
<polyline fill="none" stroke="black" points="1310.84,-218.5 1336.59,-218.5"/>
<text text-anchor="middle" x="1323.72" y="-201.2" font-family="Times,serif" font-size="14.00">B</text>
<polyline fill="none" stroke="black" points="1336.59,-194 1336.59,-243"/>
<text text-anchor="middle" x="1358.84" y="-221.7" font-family="Times,serif" font-size="14.00">$9</text>
<text text-anchor="middle" x="1358.84" y="-205.2" font-family="Times,serif" font-size="14.00">$mul</text>
<polyline fill="none" stroke="black" points="1381.09,-194 1381.09,-243"/>
<text text-anchor="middle" x="1393.97" y="-213.7" font-family="Times,serif" font-size="14.00">Y</text>
</g>
<!-- x9 -->
<g id="node20" class="node">
<title>x9</title>
<path fill="none" stroke="black" d="M1454.84,-194C1454.84,-194 1493.34,-194 1493.34,-194 1499.34,-194 1505.34,-200 1505.34,-206 1505.34,-206 1505.34,-231 1505.34,-231 1505.34,-237 1499.34,-243 1493.34,-243 1493.34,-243 1454.84,-243 1454.84,-243 1448.84,-243 1442.84,-237 1442.84,-231 1442.84,-231 1442.84,-206 1442.84,-206 1442.84,-200 1448.84,-194 1454.84,-194"/>
<text text-anchor="middle" x="1474.09" y="-225.7" font-family="Times,serif" font-size="14.00">2:2 &#45; 2:2</text>
<polyline fill="none" stroke="black" points="1442.84,-218.5 1505.34,-218.5"/>
<text text-anchor="middle" x="1474.09" y="-201.2" font-family="Times,serif" font-size="14.00">1:0 &#45; 1:0</text>
</g>
<!-- c22&#45;&gt;x9 -->
<g id="edge10" class="edge">
<title>c22:e&#45;&gt;x9:w</title>
<path fill="none" stroke="black" stroke-width="3" d="M1419.56,-218.69C1423.16,-218.65 1426.29,-218.6 1429.87,-218.57"/>
<polygon fill="none" stroke="black" stroke-width="3" points="1421.55,-218.68 1415.57,-222.71 1409.55,-218.74 1415.53,-214.71 1421.55,-218.68"/>
<polygon fill="none" stroke="black" stroke-width="3" points="1428.14,-218.57 1434.12,-214.54 1440.14,-218.51 1434.16,-222.54 1428.14,-218.57"/>
</g>
<!-- x7&#45;&gt;c22 -->
<g id="edge8" class="edge">
<title>x7:e&#45;&gt;c22:w</title>
<path fill="none" stroke="black" stroke-width="3" d="M1287.21,-243.78C1291.31,-241.01 1294.39,-237.23 1298.49,-234.46"/>
<polygon fill="none" stroke="black" stroke-width="3" points="1288.92,-243.27 1284.33,-248.83 1277.43,-246.72 1282.03,-241.16 1288.92,-243.27"/>
<polygon fill="none" stroke="black" stroke-width="3" points="1296.76,-234.98 1301.36,-229.42 1308.25,-231.53 1303.65,-237.08 1296.76,-234.98"/>
</g>
<!-- x8&#45;&gt;c22 -->
<g id="edge9" class="edge">
<title>x8:e&#45;&gt;c22:w</title>
<path fill="none" stroke="black" stroke-width="3" d="M569.05,-149.48C646.85,-149.2 670.98,-146.5 754.84,-146.5 754.84,-146.5 754.84,-146.5 1131.59,-146.5 1169.73,-146.5 1251.81,-195.78 1298.01,-204.83"/>
<polygon fill="none" stroke="black" stroke-width="3" points="570.8,-149.47 564.8,-153.48 558.8,-149.5 564.79,-145.48 570.8,-149.47"/>
<polygon fill="none" stroke="black" stroke-width="3" points="1296.23,-204.63 1302.63,-201.32 1308.15,-205.95 1301.75,-209.27 1296.23,-204.63"/>
</g>
<!-- n4 -->
<g id="node37" class="node">
<title>n4</title>
<ellipse fill="black" stroke="black" cx="1543.14" cy="-195.5" rx="1.8" ry="1.8"/>
</g>
<!-- x9&#45;&gt;n4 -->
<g id="edge39" class="edge">
<title>x9:e&#45;&gt;n4:w</title>
<path fill="none" stroke="black" stroke-width="3" d="M1505.34,-206.25C1517.47,-206.25 1522.17,-200.58 1530.23,-197.47"/>
<polygon fill="black" stroke="black" stroke-width="3" points="1527.64,-201.49 1536.87,-196.29 1526.41,-194.59 1527.64,-201.49"/>
</g>
<!-- n6 -->
<g id="node39" class="node">
<title>n6</title>
<ellipse fill="black" stroke="black" cx="1681.24" cy="-195.5" rx="1.8" ry="1.8"/>
</g>
<!-- x9&#45;&gt;n6 -->
<g id="edge46" class="edge">
<title>x9:e&#45;&gt;n6:w</title>
<path fill="none" stroke="black" d="M1505.34,-230.75C1566.8,-230.75 1585.85,-244.96 1643.44,-223.5 1657.98,-218.08 1659.48,-204.55 1668.48,-198.5"/>
<polygon fill="black" stroke="black" points="1669.26,-201.91 1677.98,-195.9 1667.41,-195.16 1669.26,-201.91"/>
</g>
<!-- x10 -->
<g id="node22" class="node">
<title>x10</title>
<path fill="none" stroke="black" d="M2237.79,-154C2237.79,-154 2289.79,-154 2289.79,-154 2295.79,-154 2301.79,-160 2301.79,-166 2301.79,-166 2301.79,-191 2301.79,-191 2301.79,-197 2295.79,-203 2289.79,-203 2289.79,-203 2237.79,-203 2237.79,-203 2231.79,-203 2225.79,-197 2225.79,-191 2225.79,-191 2225.79,-166 2225.79,-166 2225.79,-160 2231.79,-154 2237.79,-154"/>
<text text-anchor="middle" x="2263.79" y="-185.7" font-family="Times,serif" font-size="14.00">10:9 &#45; 10:9</text>
<polyline fill="none" stroke="black" points="2225.79,-178.5 2301.79,-178.5"/>
<text text-anchor="middle" x="2263.79" y="-161.2" font-family="Times,serif" font-size="14.00">8:0 &#45; 8:0</text>
</g>
<!-- c23&#45;&gt;x10 -->
<g id="edge11" class="edge">
<title>c23:e&#45;&gt;x10:w</title>
<path fill="none" stroke="black" stroke-width="3" d="M2202.51,-178.69C2206.11,-178.65 2209.24,-178.6 2212.82,-178.57"/>
<polygon fill="none" stroke="black" stroke-width="3" points="2204.5,-178.68 2198.52,-182.71 2192.5,-178.74 2198.48,-174.71 2204.5,-178.68"/>
<polygon fill="none" stroke="black" stroke-width="3" points="2211.09,-178.57 2217.07,-174.54 2223.09,-178.51 2217.11,-182.54 2211.09,-178.57"/>
</g>
<!-- n5 -->
<g id="node38" class="node">
<title>n5</title>
<ellipse fill="black" stroke="black" cx="2339.59" cy="-129.5" rx="1.8" ry="1.8"/>
</g>
<!-- x10&#45;&gt;n5 -->
<g id="edge42" class="edge">
<title>x10:e&#45;&gt;n5:w</title>
<path fill="none" stroke="black" stroke-width="3" d="M2301.79,-166.25C2320.01,-166.25 2317.54,-142.91 2327.35,-133.43"/>
<polygon fill="black" stroke="black" stroke-width="3" points="2325.42,-137.9 2333.54,-131.1 2322.95,-131.35 2325.42,-137.9"/>
</g>
<!-- n7 -->
<g id="node40" class="node">
<title>n7</title>
<ellipse fill="black" stroke="black" cx="2600.94" cy="-141.5" rx="1.8" ry="1.8"/>
</g>
<!-- x10&#45;&gt;n7 -->
<g id="edge48" class="edge">
<title>x10:e&#45;&gt;n7:w</title>
<path fill="none" stroke="black" stroke-width="3" d="M2301.79,-190.75C2418.15,-190.75 2456.32,-221.62 2563.14,-175.5 2578.93,-168.68 2578.59,-151.77 2588.18,-144.69"/>
<polygon fill="black" stroke="black" stroke-width="3" points="2586.16,-148.92 2594.78,-142.77 2584.2,-142.2 2586.16,-148.92"/>
</g>
<!-- c24&#45;&gt;n12 -->
<g id="edge33" class="edge">
<title>c24:e&#45;&gt;n12:w</title>
<path fill="none" stroke="black" stroke-width="3" d="M229.34,-49.75C316.45,-49.75 338.23,-49.5 425.34,-49.5 425.34,-49.5 425.34,-49.5 756.84,-49.5 833.57,-49.5 855.56,-49.5 926.94,-49.5"/>
<polygon fill="black" stroke="black" stroke-width="3" points="923.8,-53 933.8,-49.5 923.8,-46 923.8,-53"/>
</g>
<!-- x12 -->
<g id="node26" class="node">
<title>x12</title>
<path fill="none" stroke="black" d="M407.09,-204C407.09,-204 445.59,-204 445.59,-204 451.59,-204 457.59,-210 457.59,-216 457.59,-216 457.59,-241 457.59,-241 457.59,-247 451.59,-253 445.59,-253 445.59,-253 407.09,-253 407.09,-253 401.09,-253 395.09,-247 395.09,-241 395.09,-241 395.09,-216 395.09,-216 395.09,-210 401.09,-204 407.09,-204"/>
<text text-anchor="middle" x="426.34" y="-235.7" font-family="Times,serif" font-size="14.00">6:6 &#45; 8:8</text>
<polyline fill="none" stroke="black" points="395.09,-228.5 457.59,-228.5"/>
<text text-anchor="middle" x="426.34" y="-211.2" font-family="Times,serif" font-size="14.00">5:0 &#45; 5:0</text>
</g>
<!-- c25&#45;&gt;x12 -->
<g id="edge13" class="edge">
<title>c25:e&#45;&gt;x12:w</title>
<path fill="none" stroke="black" stroke-width="3" d="M371.82,-226.44C375.42,-226.85 378.54,-227.37 382.11,-227.78"/>
<polygon fill="none" stroke="black" stroke-width="3" points="373.77,-226.55 367.56,-230.22 361.79,-225.9 368,-222.23 373.77,-226.55"/>
<polygon fill="none" stroke="black" stroke-width="3" points="380.41,-227.68 386.62,-224.02 392.39,-228.35 386.18,-232.01 380.41,-227.68"/>
</g>
<!-- x11&#45;&gt;c25 -->
<g id="edge12" class="edge">
<title>x11:e&#45;&gt;c25:w</title>
<path fill="none" stroke="black" stroke-width="3" d="M231.57,-237.54C239.2,-237.58 244.75,-237.66 252.32,-237.71"/>
<polygon fill="none" stroke="black" stroke-width="3" points="233.54,-237.54 227.53,-241.53 221.55,-237.51 227.56,-233.53 233.54,-237.54"/>
<polygon fill="none" stroke="black" stroke-width="3" points="250.64,-237.71 256.65,-233.72 262.64,-237.74 256.62,-241.72 250.64,-237.71"/>
</g>
<!-- n9 -->
<g id="node42" class="node">
<title>n9</title>
<ellipse fill="black" stroke="black" cx="524.84" cy="-240.5" rx="1.8" ry="1.8"/>
</g>
<!-- x12&#45;&gt;n9 -->
<g id="edge56" class="edge">
<title>x12:e&#45;&gt;n9:w</title>
<path fill="none" stroke="black" stroke-width="3" d="M457.59,-216.25C483.72,-216.25 489.73,-234.16 510.2,-239.2"/>
<polygon fill="black" stroke="black" stroke-width="3" points="506.72,-242.32 517.05,-239.98 507.52,-235.37 506.72,-242.32"/>
</g>
<!-- x12&#45;&gt;n9 -->
<g id="edge57" class="edge">
<title>x12:e&#45;&gt;n9:w</title>
<path fill="none" stroke="black" d="M457.59,-240.75C481.8,-240.75 490.55,-240.57 510.17,-240.51"/>
<polygon fill="black" stroke="black" points="510.05,-244.02 520.05,-240.5 510.04,-237.02 510.05,-244.02"/>
</g>
<!-- x14 -->
<g id="node29" class="node">
<title>x14</title>
<path fill="none" stroke="black" d="M2891.74,-51C2891.74,-51 2957.24,-51 2957.24,-51 2963.24,-51 2969.24,-57 2969.24,-63 2969.24,-63 2969.24,-88 2969.24,-88 2969.24,-94 2963.24,-100 2957.24,-100 2957.24,-100 2891.74,-100 2891.74,-100 2885.74,-100 2879.74,-94 2879.74,-88 2879.74,-88 2879.74,-63 2879.74,-63 2879.74,-57 2885.74,-51 2891.74,-51"/>
<text text-anchor="middle" x="2924.49" y="-82.7" font-family="Times,serif" font-size="14.00">11:11 &#45; 23:23</text>
<polyline fill="none" stroke="black" points="2879.74,-75.5 2969.24,-75.5"/>
<text text-anchor="middle" x="2924.49" y="-58.2" font-family="Times,serif" font-size="14.00">10:0 &#45; 10:0</text>
</g>
<!-- c26&#45;&gt;x14 -->
<g id="edge15" class="edge">
<title>c26:e&#45;&gt;x14:w</title>
<path fill="none" stroke="black" stroke-width="3" d="M2856.46,-75.69C2860.06,-75.65 2863.19,-75.6 2866.77,-75.57"/>
<polygon fill="none" stroke="black" stroke-width="3" points="2858.45,-75.68 2852.47,-79.71 2846.45,-75.74 2852.43,-71.71 2858.45,-75.68"/>
<polygon fill="none" stroke="black" stroke-width="3" points="2865.04,-75.57 2871.02,-71.54 2877.04,-75.51 2871.06,-79.54 2865.04,-75.57"/>
</g>
<!-- x13 -->
<g id="node28" class="node">
<title>x13</title>
<path fill="none" stroke="black" d="M2650.74,-78C2650.74,-78 2702.74,-78 2702.74,-78 2708.74,-78 2714.74,-84 2714.74,-90 2714.74,-90 2714.74,-115 2714.74,-115 2714.74,-121 2708.74,-127 2702.74,-127 2702.74,-127 2650.74,-127 2650.74,-127 2644.74,-127 2638.74,-121 2638.74,-115 2638.74,-115 2638.74,-90 2638.74,-90 2638.74,-84 2644.74,-78 2650.74,-78"/>
<text text-anchor="middle" x="2676.74" y="-109.7" font-family="Times,serif" font-size="14.00">10:9 &#45; 10:9</text>
<polyline fill="none" stroke="black" points="2638.74,-102.5 2714.74,-102.5"/>
<text text-anchor="middle" x="2676.74" y="-85.2" font-family="Times,serif" font-size="14.00">8:0 &#45; 8:0</text>
</g>
<!-- x13&#45;&gt;c26 -->
<g id="edge14" class="edge">
<title>x13:e&#45;&gt;c26:w</title>
<path fill="none" stroke="black" stroke-width="3" d="M2727.27,-99.08C2731.21,-96.7 2734.3,-93.53 2738.24,-91.15"/>
<polygon fill="none" stroke="black" stroke-width="3" points="2728.93,-98.63 2724.19,-104.07 2717.35,-101.79 2722.09,-96.35 2728.93,-98.63"/>
<polygon fill="none" stroke="black" stroke-width="3" points="2736.56,-91.61 2741.29,-86.18 2748.13,-88.46 2743.4,-93.9 2736.56,-91.61"/>
</g>
<!-- x14&#45;&gt;n11 -->
<g id="edge29" class="edge">
<title>x14:e&#45;&gt;n11:w</title>
<path fill="none" stroke="black" stroke-width="3" d="M2969.24,-63.25C2981.52,-63.25 2986.04,-69.72 2994.08,-73.25"/>
<polygon fill="black" stroke="black" stroke-width="3" points="2990.3,-76.06 3000.79,-74.6 2991.68,-69.2 2990.3,-76.06"/>
</g>
<!-- x14&#45;&gt;n11 -->
<g id="edge30" class="edge">
<title>x14:e&#45;&gt;n11:w</title>
<path fill="none" stroke="black" d="M2969.24,-87.75C2981.52,-87.75 2986.04,-81.28 2994.08,-77.75"/>
<polygon fill="black" stroke="black" points="2994.65,-81.2 3003.76,-75.8 2993.27,-74.34 2994.65,-81.2"/>
</g>
<!-- x15 -->
<g id="node30" class="node">
<title>x15</title>
<path fill="none" stroke="black" d="M1592.94,-177.5C1592.94,-177.5 1631.44,-177.5 1631.44,-177.5 1637.44,-177.5 1643.44,-183.5 1643.44,-189.5 1643.44,-189.5 1643.44,-201.5 1643.44,-201.5 1643.44,-207.5 1637.44,-213.5 1631.44,-213.5 1631.44,-213.5 1592.94,-213.5 1592.94,-213.5 1586.94,-213.5 1580.94,-207.5 1580.94,-201.5 1580.94,-201.5 1580.94,-189.5 1580.94,-189.5 1580.94,-183.5 1586.94,-177.5 1592.94,-177.5"/>
<text text-anchor="middle" x="1612.19" y="-190.7" font-family="Times,serif" font-size="14.00">1:0 &#45; 1:0</text>
</g>
<!-- x15&#45;&gt;n6 -->
<g id="edge45" class="edge">
<title>x15:e&#45;&gt;n6:w</title>
<path fill="none" stroke="black" stroke-width="3" d="M1643.44,-195.75C1654.82,-195.75 1660.13,-195.62 1668,-195.55"/>
<polygon fill="black" stroke="black" stroke-width="3" points="1664.92,-199.06 1674.9,-195.52 1664.89,-192.06 1664.92,-199.06"/>
</g>
<!-- x16 -->
<g id="node31" class="node">
<title>x16</title>
<path fill="none" stroke="black" d="M2389.39,-117C2389.39,-117 2432.39,-117 2432.39,-117 2438.39,-117 2444.39,-123 2444.39,-129 2444.39,-129 2444.39,-154 2444.39,-154 2444.39,-160 2438.39,-166 2432.39,-166 2432.39,-166 2389.39,-166 2389.39,-166 2383.39,-166 2377.39,-160 2377.39,-154 2377.39,-154 2377.39,-129 2377.39,-129 2377.39,-123 2383.39,-117 2389.39,-117"/>
<text text-anchor="middle" x="2410.89" y="-148.7" font-family="Times,serif" font-size="14.00">0 &#45;&gt; 22:9</text>
<polyline fill="none" stroke="black" points="2377.39,-141.5 2444.39,-141.5"/>
<text text-anchor="middle" x="2410.89" y="-124.2" font-family="Times,serif" font-size="14.00">8:0 &#45; 8:0</text>
</g>
<!-- x17 -->
<g id="node32" class="node">
<title>x17</title>
<path fill="none" stroke="black" d="M2492.39,-117C2492.39,-117 2551.14,-117 2551.14,-117 2557.14,-117 2563.14,-123 2563.14,-129 2563.14,-129 2563.14,-154 2563.14,-154 2563.14,-160 2557.14,-166 2551.14,-166 2551.14,-166 2492.39,-166 2492.39,-166 2486.39,-166 2480.39,-160 2480.39,-154 2480.39,-154 2480.39,-129 2480.39,-129 2480.39,-123 2486.39,-117 2492.39,-117"/>
<text text-anchor="middle" x="2521.77" y="-148.7" font-family="Times,serif" font-size="14.00">22:9 &#45; 24:11</text>
<polyline fill="none" stroke="black" points="2480.39,-141.5 2563.14,-141.5"/>
<text text-anchor="middle" x="2521.77" y="-124.2" font-family="Times,serif" font-size="14.00">8:0 &#45; 8:0</text>
</g>
<!-- x16&#45;&gt;x17 -->
<g id="edge16" class="edge">
<title>x16:e&#45;&gt;x17:w</title>
<path fill="none" stroke="black" stroke-width="3" d="M2457.11,-141.5C2460.71,-141.5 2463.84,-141.5 2467.42,-141.5"/>
<polygon fill="none" stroke="black" stroke-width="3" points="2459.1,-141.5 2453.1,-145.5 2447.1,-141.5 2453.1,-137.5 2459.1,-141.5"/>
<polygon fill="none" stroke="black" stroke-width="3" points="2465.69,-141.5 2471.69,-137.5 2477.69,-141.5 2471.69,-145.5 2465.69,-141.5"/>
</g>
<!-- x17&#45;&gt;n7 -->
<g id="edge49" class="edge">
<title>x17:e&#45;&gt;n7:w</title>
<path fill="none" stroke="black" stroke-width="3" d="M2563.14,-129.25C2575.42,-129.25 2579.94,-135.72 2587.98,-139.25"/>
<polygon fill="black" stroke="black" stroke-width="3" points="2584.2,-142.06 2594.69,-140.6 2585.58,-135.2 2584.2,-142.06"/>
</g>
<!-- x17&#45;&gt;n7 -->
<g id="edge50" class="edge">
<title>x17:e&#45;&gt;n7:w</title>
<path fill="none" stroke="black" stroke-width="3" d="M2563.14,-153.75C2575.42,-153.75 2579.94,-147.28 2587.98,-143.75"/>
<polygon fill="black" stroke="black" stroke-width="3" points="2585.58,-147.8 2594.69,-142.4 2584.2,-140.94 2585.58,-147.8"/>
</g>
<!-- x18 -->
<g id="node33" class="node">
<title>x18</title>
<path fill="none" stroke="black" d="M604.09,-175.5C604.09,-175.5 659.84,-175.5 659.84,-175.5 665.84,-175.5 671.84,-181.5 671.84,-187.5 671.84,-187.5 671.84,-199.5 671.84,-199.5 671.84,-205.5 665.84,-211.5 659.84,-211.5 659.84,-211.5 604.09,-211.5 604.09,-211.5 598.09,-211.5 592.09,-205.5 592.09,-199.5 592.09,-199.5 592.09,-187.5 592.09,-187.5 592.09,-181.5 598.09,-175.5 604.09,-175.5"/>
<text text-anchor="middle" x="631.97" y="-188.7" font-family="Times,serif" font-size="14.00">2x 8:8 &#45; 1:0</text>
</g>
<!-- x19 -->
<g id="node34" class="node">
<title>x19</title>
<path fill="none" stroke="black" d="M736.59,-188.5C736.59,-188.5 775.09,-188.5 775.09,-188.5 781.09,-188.5 787.09,-194.5 787.09,-200.5 787.09,-200.5 787.09,-212.5 787.09,-212.5 787.09,-218.5 781.09,-224.5 775.09,-224.5 775.09,-224.5 736.59,-224.5 736.59,-224.5 730.59,-224.5 724.59,-218.5 724.59,-212.5 724.59,-212.5 724.59,-200.5 724.59,-200.5 724.59,-194.5 730.59,-188.5 736.59,-188.5"/>
<text text-anchor="middle" x="755.84" y="-201.7" font-family="Times,serif" font-size="14.00">1:0 &#45; 7:6</text>
</g>
<!-- x18&#45;&gt;x19 -->
<g id="edge17" class="edge">
<title>x18:e&#45;&gt;x19:w</title>
<path fill="none" stroke="black" stroke-width="3" d="M684.62,-194.99C694.62,-197.5 700.86,-202.53 710.88,-205.03"/>
<polygon fill="none" stroke="black" stroke-width="3" points="686.45,-195.2 680.02,-198.48 674.53,-193.81 680.95,-190.54 686.45,-195.2"/>
<polygon fill="none" stroke="black" stroke-width="3" points="708.98,-204.81 715.41,-201.52 720.9,-206.19 714.48,-209.47 708.98,-204.81"/>
</g>
<!-- x19&#45;&gt;n9 -->
<g id="edge58" class="edge">
<title>x19:e&#45;&gt;n9:w</title>
<path fill="none" stroke="black" stroke-width="3" d="M788.09,-206.75C796.21,-206.75 792.8,-219.22 787.09,-225 755.93,-256.53 588.9,-249.48 532.27,-243.99"/>
<polygon fill="black" stroke="black" stroke-width="3" points="536.47,-241.68 525.88,-241.91 534.3,-248.33 536.47,-241.68"/>
</g>
<!-- x21 -->
<g id="node36" class="node">
<title>x21</title>
<path fill="none" stroke="black" d="M3313.81,-56.5C3313.81,-56.5 3372.56,-56.5 3372.56,-56.5 3378.56,-56.5 3384.56,-62.5 3384.56,-68.5 3384.56,-68.5 3384.56,-80.5 3384.56,-80.5 3384.56,-86.5 3378.56,-92.5 3372.56,-92.5 3372.56,-92.5 3313.81,-92.5 3313.81,-92.5 3307.81,-92.5 3301.81,-86.5 3301.81,-80.5 3301.81,-80.5 3301.81,-68.5 3301.81,-68.5 3301.81,-62.5 3307.81,-56.5 3313.81,-56.5"/>
<text text-anchor="middle" x="3343.18" y="-69.7" font-family="Times,serif" font-size="14.00">11:0 &#45; 22:11</text>
</g>
<!-- x20&#45;&gt;x21 -->
<g id="edge18" class="edge">
<title>x20:e&#45;&gt;x21:w</title>
<path fill="none" stroke="black" stroke-width="3" d="M3277.78,-55.93C3282.39,-60.01 3285.23,-66.01 3289.84,-70.08"/>
<polygon fill="none" stroke="black" stroke-width="3" points="3279.59,-56.61 3272.58,-58.27 3268.34,-52.44 3275.36,-50.77 3279.59,-56.61"/>
<polygon fill="none" stroke="black" stroke-width="3" points="3288.01,-69.4 3295.03,-67.73 3299.27,-73.56 3292.25,-75.23 3288.01,-69.4"/>
</g>
<!-- x21&#45;&gt;n11 -->
<g id="edge31" class="edge">
<title>x21:e&#45;&gt;n11:w</title>
<path fill="none" stroke="black" stroke-width="3" d="M3385.56,-74.75C3393.68,-74.75 3390.45,-87.41 3384.56,-93 3300.23,-172.98 3239.28,-93.39 3123.06,-93.5 3070.58,-93.55 3043.11,-129.56 3005,-93.5 3002.99,-91.61 3001.3,-88.89 3000.27,-86.14"/>
<polygon fill="black" stroke="black" stroke-width="3" points="3002.5,-90.38 3002.5,-79.79 2995.89,-88.07 3002.5,-90.38"/>
</g>
<!-- n4&#45;&gt;x0 -->
<g id="edge40" class="edge">
<title>n4:e&#45;&gt;x0:w</title>
<path fill="none" stroke="black" stroke-width="3" d="M1544.94,-195.5C1564.94,-195.5 1562.29,-175.72 1580.94,-168.5 1634.73,-147.66 1654.78,-154.22 1707.63,-155.15"/>
<polygon fill="black" stroke="black" stroke-width="3" points="1704.47,-158.62 1714.5,-155.21 1704.53,-151.62 1704.47,-158.62"/>
</g>
<!-- n4&#45;&gt;x15 -->
<g id="edge41" class="edge">
<title>n4:e&#45;&gt;x15:w</title>
<path fill="none" stroke="black" stroke-width="3" d="M1544.94,-195.5C1556.32,-195.5 1561.63,-195.5 1569.5,-195.5"/>
<polygon fill="black" stroke="black" stroke-width="3" points="1566.4,-199 1576.4,-195.5 1566.4,-192 1566.4,-199"/>
</g>
<!-- n5&#45;&gt;x13 -->
<g id="edge43" class="edge">
<title>n5:e&#45;&gt;x13:w</title>
<path fill="none" stroke="black" stroke-width="3" d="M2341.39,-129.5C2360.14,-129.5 2359.52,-113.17 2377.39,-107.5 2484.67,-73.46 2519.99,-89.12 2627.41,-90.19"/>
<polygon fill="black" stroke="black" stroke-width="3" points="2624.18,-93.68 2634.2,-90.23 2624.22,-86.68 2624.18,-93.68"/>
</g>
<!-- n5&#45;&gt;x16 -->
<g id="edge44" class="edge">
<title>n5:e&#45;&gt;x16:w</title>
<path fill="none" stroke="black" stroke-width="3" d="M2341.39,-129.5C2352.77,-129.5 2358.08,-129.37 2365.95,-129.3"/>
<polygon fill="black" stroke="black" stroke-width="3" points="2362.87,-132.81 2372.85,-129.27 2362.84,-125.81 2362.87,-132.81"/>
</g>
<!-- n6&#45;&gt;x0 -->
<g id="edge47" class="edge">
<title>n6:e&#45;&gt;x0:w</title>
<path fill="none" stroke="black" d="M1683.04,-195.5C1695.87,-195.5 1699.85,-187.01 1707.98,-182.49"/>
<polygon fill="black" stroke="black" points="1708.71,-185.92 1717.57,-180.11 1707.02,-179.12 1708.71,-185.92"/>
</g>
<!-- n7&#45;&gt;x13 -->
<g id="edge51" class="edge">
<title>n7:e&#45;&gt;x13:w</title>
<path fill="none" stroke="black" stroke-width="3" d="M2602.74,-141.5C2618,-141.5 2619.31,-125.82 2628.04,-118.47"/>
<polygon fill="black" stroke="black" stroke-width="3" points="2626.16,-122.83 2634.45,-116.24 2623.86,-116.22 2626.16,-122.83"/>
</g>
<!-- n8&#45;&gt;x4 -->
<g id="edge53" class="edge">
<title>n8:e&#45;&gt;x4:w</title>
<path fill="none" stroke="black" d="M874.37,-269.5C909.26,-269.5 920.11,-260.1 949.93,-258.11"/>
<polygon fill="black" stroke="black" points="949.95,-261.62 959.83,-257.8 949.72,-254.62 949.95,-261.62"/>
</g>
<!-- n8&#45;&gt;x7 -->
<g id="edge54" class="edge">
<title>n8:e&#45;&gt;x7:w</title>
<path fill="none" stroke="black" d="M874.37,-269.5C907.67,-269.5 906.41,-239.94 938.34,-230.5 1051.52,-197.04 1088.23,-221.37 1201.17,-222.92"/>
<polygon fill="black" stroke="black" points="1200.8,-226.42 1210.83,-222.99 1200.85,-219.42 1200.8,-226.42"/>
</g>
<!-- n8&#45;&gt;x7 -->
<g id="edge55" class="edge">
<title>n8:e&#45;&gt;x7:w</title>
<path fill="none" stroke="black" stroke-width="3" d="M874.37,-269.5C903.68,-269.5 909.27,-281.82 938.34,-285.5 1043.28,-298.79 1072.5,-306.63 1176.34,-286.5 1188.65,-284.12 1192.97,-277.54 1201.03,-274.12"/>
<polygon fill="black" stroke="black" stroke-width="3" points="1198.7,-278.12 1207.88,-272.84 1197.41,-271.24 1198.7,-278.12"/>
</g>
<!-- n9&#45;&gt;x5 -->
<g id="edge60" class="edge">
<title>n9:e&#45;&gt;x5:w</title>
<path fill="none" stroke="black" stroke-width="3" d="M528.12,-240.5C560.59,-240.5 562.98,-272.54 588.63,-279.8"/>
<polygon fill="black" stroke="black" stroke-width="3" points="584.84,-282.83 595.21,-280.66 585.75,-275.89 584.84,-282.83"/>
</g>
<!-- n9&#45;&gt;x5 -->
<g id="edge61" class="edge">
<title>n9:e&#45;&gt;x5:w</title>
<path fill="none" stroke="black" d="M528.12,-240.5C566.97,-240.5 558.95,-293.63 588.64,-304"/>
<polygon fill="black" stroke="black" points="587.8,-307.41 598.22,-305.51 588.89,-300.5 587.8,-307.41"/>
</g>
<!-- n9&#45;&gt;x18 -->
<g id="edge59" class="edge">
<title>n9:e&#45;&gt;x18:w</title>
<path fill="none" stroke="black" stroke-width="3" d="M528.12,-240.5C559.07,-240.5 557.83,-204.39 580.98,-195.64"/>
<polygon fill="black" stroke="black" stroke-width="3" points="578.34,-199.64 587.61,-194.51 577.17,-192.74 578.34,-199.64"/>
</g>
</g>
</svg>
