<?xml version="1.0" encoding="UTF-8" standalone="no"?>
<!DOCTYPE svg PUBLIC "-//W3C//DTD SVG 1.1//EN"
 "http://www.w3.org/Graphics/SVG/1.1/DTD/svg11.dtd">
<!-- Generated by graphviz version 12.2.1 (20241206.2353)
 -->
<!-- Title: top Pages: 1 -->
<svg width="995pt" height="252pt"
 viewBox="0.00 0.00 994.90 251.50" xmlns="http://www.w3.org/2000/svg" xmlns:xlink="http://www.w3.org/1999/xlink">
<g id="graph0" class="graph" transform="scale(1 1) rotate(0) translate(4 247.5)">
<title>top</title>
<polygon fill="white" stroke="none" points="-4,4 -4,-247.5 990.9,-247.5 990.9,4 -4,4"/>
<text text-anchor="middle" x="493.45" y="-7.2" font-family="Times,serif" font-size="14.00">top</text>
<!-- n2 -->
<g id="node1" class="node">
<title>n2</title>
<polygon fill="none" stroke="black" points="107.84,-123.54 107.84,-138.46 76.26,-149 31.59,-149 0,-138.46 0,-123.54 31.59,-113 76.26,-113 107.84,-123.54"/>
<text text-anchor="middle" x="53.92" y="-125.95" font-family="Times,serif" font-size="14.00">input_data</text>
</g>
<!-- x0 -->
<g id="node5" class="node">
<title>x0</title>
<path fill="none" stroke="black" d="M155.84,-113C155.84,-113 194.34,-113 194.34,-113 200.34,-113 206.34,-119 206.34,-125 206.34,-125 206.34,-137 206.34,-137 206.34,-143 200.34,-149 194.34,-149 194.34,-149 155.84,-149 155.84,-149 149.84,-149 143.84,-143 143.84,-137 143.84,-137 143.84,-125 143.84,-125 143.84,-119 149.84,-113 155.84,-113"/>
<text text-anchor="middle" x="175.09" y="-126.2" font-family="Times,serif" font-size="14.00">4:2 &#45; 2:0</text>
</g>
<!-- n2&#45;&gt;x0 -->
<g id="edge7" class="edge">
<title>n2:e&#45;&gt;x0:w</title>
<path fill="none" stroke="black" stroke-width="3" d="M107.84,-131C119.22,-131 124.53,-131.13 132.39,-131.2"/>
<polygon fill="black" stroke="black" stroke-width="3" points="129.28,-134.69 139.3,-131.23 129.32,-127.69 129.28,-134.69"/>
</g>
<!-- x1 -->
<g id="node6" class="node">
<title>x1</title>
<path fill="none" stroke="black" d="M155.84,-58C155.84,-58 194.34,-58 194.34,-58 200.34,-58 206.34,-64 206.34,-70 206.34,-70 206.34,-82 206.34,-82 206.34,-88 200.34,-94 194.34,-94 194.34,-94 155.84,-94 155.84,-94 149.84,-94 143.84,-88 143.84,-82 143.84,-82 143.84,-70 143.84,-70 143.84,-64 149.84,-58 155.84,-58"/>
<text text-anchor="middle" x="175.09" y="-71.2" font-family="Times,serif" font-size="14.00">7:5 &#45; 2:0</text>
</g>
<!-- n2&#45;&gt;x1 -->
<g id="edge8" class="edge">
<title>n2:e&#45;&gt;x1:w</title>
<path fill="none" stroke="black" stroke-width="3" d="M107.84,-131C132.19,-131 120.63,-92.74 133.2,-80.19"/>
<polygon fill="black" stroke="black" stroke-width="3" points="131.42,-84.58 139.58,-77.83 128.99,-78.01 131.42,-84.58"/>
</g>
<!-- x2 -->
<g id="node8" class="node">
<title>x2</title>
<path fill="none" stroke="black" d="M402.09,-207C402.09,-207 440.59,-207 440.59,-207 446.59,-207 452.59,-213 452.59,-219 452.59,-219 452.59,-231 452.59,-231 452.59,-237 446.59,-243 440.59,-243 440.59,-243 402.09,-243 402.09,-243 396.09,-243 390.09,-237 390.09,-231 390.09,-231 390.09,-219 390.09,-219 390.09,-213 396.09,-207 402.09,-207"/>
<text text-anchor="middle" x="421.34" y="-220.2" font-family="Times,serif" font-size="14.00">5:2 &#45; 3:0</text>
</g>
<!-- n2&#45;&gt;x2 -->
<g id="edge9" class="edge">
<title>n2:e&#45;&gt;x2:w</title>
<path fill="none" stroke="black" stroke-width="3" d="M107.84,-131C139.32,-131 117.62,-174.59 143.84,-192 232.25,-250.71 275.97,-227.08 377.73,-225.35"/>
<polygon fill="black" stroke="black" stroke-width="3" points="374.58,-228.87 384.55,-225.29 374.52,-221.87 374.58,-228.87"/>
</g>
<!-- x3 -->
<g id="node9" class="node">
<title>x3</title>
<path fill="none" stroke="black" d="M524.59,-119.5C524.59,-119.5 563.09,-119.5 563.09,-119.5 569.09,-119.5 575.09,-125.5 575.09,-131.5 575.09,-131.5 575.09,-156.5 575.09,-156.5 575.09,-162.5 569.09,-168.5 563.09,-168.5 563.09,-168.5 524.59,-168.5 524.59,-168.5 518.59,-168.5 512.59,-162.5 512.59,-156.5 512.59,-156.5 512.59,-131.5 512.59,-131.5 512.59,-125.5 518.59,-119.5 524.59,-119.5"/>
<text text-anchor="middle" x="543.84" y="-151.2" font-family="Times,serif" font-size="14.00">6:5 &#45; 3:2</text>
<polyline fill="none" stroke="black" points="512.59,-144 575.09,-144"/>
<text text-anchor="middle" x="543.84" y="-126.7" font-family="Times,serif" font-size="14.00">2:1 &#45; 1:0</text>
</g>
<!-- n2&#45;&gt;x3 -->
<g id="edge10" class="edge">
<title>n2:e&#45;&gt;x3:w</title>
<path fill="none" stroke="black" stroke-width="3" d="M107.84,-131C128.11,-131 124.67,-152.42 143.84,-159 170.12,-168.01 178.56,-159.12 206.34,-159 338.6,-158.41 374.47,-156.37 501.27,-156.26"/>
<polygon fill="black" stroke="black" stroke-width="3" points="498.05,-159.76 508.05,-156.25 498.05,-152.76 498.05,-159.76"/>
</g>
<!-- x4 -->
<g id="node11" class="node">
<title>x4</title>
<path fill="none" stroke="black" d="M266.97,-25C266.97,-25 305.47,-25 305.47,-25 311.47,-25 317.47,-31 317.47,-37 317.47,-37 317.47,-49 317.47,-49 317.47,-55 311.47,-61 305.47,-61 305.47,-61 266.97,-61 266.97,-61 260.97,-61 254.97,-55 254.97,-49 254.97,-49 254.97,-37 254.97,-37 254.97,-31 260.97,-25 266.97,-25"/>
<text text-anchor="middle" x="286.22" y="-38.2" font-family="Times,serif" font-size="14.00">5:2 &#45; 3:0</text>
</g>
<!-- n2&#45;&gt;x4 -->
<g id="edge11" class="edge">
<title>n2:e&#45;&gt;x4:w</title>
<path fill="none" stroke="black" stroke-width="3" d="M107.84,-131C147.64,-131 111.1,-71.63 143.84,-49 180.93,-23.37 201.5,-40.03 242.71,-42.86"/>
<polygon fill="black" stroke="black" stroke-width="3" points="239.31,-46.25 249.43,-43.09 239.55,-39.25 239.31,-46.25"/>
</g>
<!-- n3 -->
<g id="node2" class="node">
<title>n3</title>
<polygon fill="none" stroke="black" points="986.9,-98.54 986.9,-113.46 952.4,-124 903.6,-124 869.09,-113.46 869.09,-98.54 903.6,-88 952.4,-88 986.9,-98.54"/>
<text text-anchor="middle" x="928" y="-100.95" font-family="Times,serif" font-size="14.00">output_data</text>
</g>
<!-- n4 -->
<g id="node3" class="node">
<title>n4</title>
<polygon fill="none" stroke="black" points="421.34,-143 366.09,-125 421.34,-107 476.59,-125 421.34,-143"/>
<text text-anchor="middle" x="421.34" y="-119.95" font-family="Times,serif" font-size="14.00">temp_1</text>
</g>
<!-- n4&#45;&gt;x3 -->
<g id="edge14" class="edge">
<title>n4:e&#45;&gt;x3:w</title>
<path fill="none" stroke="black" stroke-width="3" d="M476.59,-125C488.29,-125 493.36,-128.49 501.33,-130.45"/>
<polygon fill="black" stroke="black" stroke-width="3" points="497.75,-133.56 508.08,-131.23 498.55,-126.6 497.75,-133.56"/>
</g>
<!-- c8 -->
<g id="node4" class="node">
<title>c8</title>
<polygon fill="none" stroke="black" points="242.34,-94.5 242.34,-143.5 330.09,-143.5 330.09,-94.5 242.34,-94.5"/>
<text text-anchor="middle" x="255.22" y="-126.2" font-family="Times,serif" font-size="14.00">A</text>
<polyline fill="none" stroke="black" points="242.34,-119 268.09,-119"/>
<text text-anchor="middle" x="255.22" y="-101.7" font-family="Times,serif" font-size="14.00">B</text>
<polyline fill="none" stroke="black" points="268.09,-94.5 268.09,-143.5"/>
<text text-anchor="middle" x="286.22" y="-122.2" font-family="Times,serif" font-size="14.00">$19</text>
<text text-anchor="middle" x="286.22" y="-105.7" font-family="Times,serif" font-size="14.00">$or</text>
<polyline fill="none" stroke="black" points="304.34,-94.5 304.34,-143.5"/>
<text text-anchor="middle" x="317.22" y="-114.2" font-family="Times,serif" font-size="14.00">Y</text>
</g>
<!-- c8&#45;&gt;n4 -->
<g id="edge13" class="edge">
<title>c8:e&#45;&gt;n4:w</title>
<path fill="none" stroke="black" stroke-width="3" d="M330.09,-119.25C341.74,-119.25 346.87,-122.22 354.85,-123.89"/>
<polygon fill="black" stroke="black" stroke-width="3" points="351.28,-127.06 361.57,-124.55 351.96,-120.09 351.28,-127.06"/>
</g>
<!-- x0&#45;&gt;c8 -->
<g id="edge1" class="edge">
<title>x0:e&#45;&gt;c8:w</title>
<path fill="none" stroke="black" stroke-width="3" d="M219.06,-131.06C222.66,-131.1 225.79,-131.15 229.37,-131.18"/>
<polygon fill="none" stroke="black" stroke-width="3" points="221.04,-131.07 215.03,-135.04 209.05,-131.01 215.06,-127.04 221.04,-131.07"/>
<polygon fill="none" stroke="black" stroke-width="3" points="227.64,-131.18 233.66,-127.21 239.64,-131.24 233.62,-135.21 227.64,-131.18"/>
</g>
<!-- x1&#45;&gt;c8 -->
<g id="edge2" class="edge">
<title>x1:e&#45;&gt;c8:w</title>
<path fill="none" stroke="black" stroke-width="3" d="M218.14,-81.08C223.33,-86.81 225.4,-96.07 230.63,-101.77"/>
<polygon fill="none" stroke="black" stroke-width="3" points="219.85,-81.81 212.75,-83.12 208.82,-77.07 215.92,-75.77 219.85,-81.81"/>
<polygon fill="none" stroke="black" stroke-width="3" points="228.81,-100.99 235.9,-99.66 239.85,-105.69 232.77,-107.02 228.81,-100.99"/>
</g>
<!-- c9 -->
<g id="node7" class="node">
<title>c9</title>
<polygon fill="none" stroke="black" points="611.09,-131.5 611.09,-180.5 704.09,-180.5 704.09,-131.5 611.09,-131.5"/>
<text text-anchor="middle" x="623.97" y="-163.2" font-family="Times,serif" font-size="14.00">A</text>
<polyline fill="none" stroke="black" points="611.09,-156 636.84,-156"/>
<text text-anchor="middle" x="623.97" y="-138.7" font-family="Times,serif" font-size="14.00">B</text>
<polyline fill="none" stroke="black" points="636.84,-131.5 636.84,-180.5"/>
<text text-anchor="middle" x="657.59" y="-159.2" font-family="Times,serif" font-size="14.00">$13</text>
<text text-anchor="middle" x="657.59" y="-142.7" font-family="Times,serif" font-size="14.00">$sub</text>
<polyline fill="none" stroke="black" points="678.34,-131.5 678.34,-180.5"/>
<text text-anchor="middle" x="691.22" y="-151.2" font-family="Times,serif" font-size="14.00">Y</text>
</g>
<!-- c10 -->
<g id="node10" class="node">
<title>c10</title>
<polygon fill="none" stroke="black" points="740.09,-81.5 740.09,-130.5 833.09,-130.5 833.09,-81.5 740.09,-81.5"/>
<text text-anchor="middle" x="752.97" y="-113.2" font-family="Times,serif" font-size="14.00">A</text>
<polyline fill="none" stroke="black" points="740.09,-106 765.84,-106"/>
<text text-anchor="middle" x="752.97" y="-88.7" font-family="Times,serif" font-size="14.00">B</text>
<polyline fill="none" stroke="black" points="765.84,-81.5 765.84,-130.5"/>
<text text-anchor="middle" x="786.59" y="-109.2" font-family="Times,serif" font-size="14.00">$14</text>
<text text-anchor="middle" x="786.59" y="-92.7" font-family="Times,serif" font-size="14.00">$sub</text>
<polyline fill="none" stroke="black" points="807.34,-81.5 807.34,-130.5"/>
<text text-anchor="middle" x="820.22" y="-101.2" font-family="Times,serif" font-size="14.00">Y</text>
</g>
<!-- c9&#45;&gt;c10 -->
<g id="edge6" class="edge">
<title>c9:e&#45;&gt;c10:w</title>
<path fill="none" stroke="black" stroke-width="3" d="M704.09,-156.25C722.63,-156.25 719.71,-132.12 729.53,-122.32"/>
<polygon fill="black" stroke="black" stroke-width="3" points="727.78,-126.74 735.85,-119.88 725.26,-120.21 727.78,-126.74"/>
</g>
<!-- x2&#45;&gt;c9 -->
<g id="edge3" class="edge">
<title>x2:e&#45;&gt;c9:w</title>
<path fill="none" stroke="black" stroke-width="3" d="M465.91,-222.26C496.66,-212.7 567.39,-180.82 598.44,-171.09"/>
<polygon fill="none" stroke="black" stroke-width="3" points="467.95,-221.81 462.96,-227.02 456.23,-224.41 461.22,-219.21 467.95,-221.81"/>
<polygon fill="none" stroke="black" stroke-width="3" points="596.75,-171.47 601.72,-166.26 608.45,-168.84 603.48,-174.06 596.75,-171.47"/>
</g>
<!-- x3&#45;&gt;c9 -->
<g id="edge4" class="edge">
<title>x3:e&#45;&gt;c9:w</title>
<path fill="none" stroke="black" stroke-width="3" d="M587.81,-143.94C591.41,-143.9 594.54,-143.85 598.12,-143.82"/>
<polygon fill="none" stroke="black" stroke-width="3" points="589.8,-143.93 583.82,-147.96 577.8,-143.99 583.78,-139.96 589.8,-143.93"/>
<polygon fill="none" stroke="black" stroke-width="3" points="596.39,-143.82 602.37,-139.79 608.39,-143.76 602.41,-147.79 596.39,-143.82"/>
</g>
<!-- c10&#45;&gt;n3 -->
<g id="edge12" class="edge">
<title>c10:e&#45;&gt;n3:w</title>
<path fill="none" stroke="black" stroke-width="3" d="M833.09,-106.25C844.47,-106.25 849.78,-106.12 857.65,-106.05"/>
<polygon fill="black" stroke="black" stroke-width="3" points="854.57,-109.56 864.55,-106.02 854.54,-102.56 854.57,-109.56"/>
</g>
<!-- x4&#45;&gt;c10 -->
<g id="edge5" class="edge">
<title>x4:e&#45;&gt;c10:w</title>
<path fill="none" stroke="black" stroke-width="3" d="M331.5,-43.08C505.1,-45.3 553.48,-91.46 727.1,-93.67"/>
<polygon fill="none" stroke="black" stroke-width="3" points="333.17,-43.09 327.14,-47.05 321.17,-43.02 327.2,-39.06 333.17,-43.09"/>
<polygon fill="none" stroke="black" stroke-width="3" points="725.39,-93.66 731.41,-89.7 737.39,-93.73 731.36,-97.7 725.39,-93.66"/>
</g>
</g>
</svg>
