<?xml version="1.0" encoding="UTF-8" standalone="no"?>
<!DOCTYPE svg PUBLIC "-//W3C//DTD SVG 1.1//EN"
 "http://www.w3.org/Graphics/SVG/1.1/DTD/svg11.dtd">
<!-- Generated by graphviz version 12.2.1 (20241206.2353)
 -->
<!-- Title: top Pages: 1 -->
<svg width="3146pt" height="522pt"
 viewBox="0.00 0.00 3146.16 521.74" xmlns="http://www.w3.org/2000/svg" xmlns:xlink="http://www.w3.org/1999/xlink">
<g id="graph0" class="graph" transform="scale(1 1) rotate(0) translate(4 517.74)">
<title>top</title>
<polygon fill="white" stroke="none" points="-4,4 -4,-517.74 3142.16,-517.74 3142.16,4 -4,4"/>
<text text-anchor="middle" x="1569.08" y="-7.2" font-family="Times,serif" font-size="14.00">top</text>
<!-- n12 -->
<g id="node1" class="node">
<title>n12</title>
<polygon fill="none" stroke="black" points="107.84,-316.28 107.84,-331.19 76.26,-341.74 31.59,-341.74 0,-331.19 0,-316.28 31.59,-305.74 76.26,-305.74 107.84,-316.28"/>
<text text-anchor="middle" x="53.92" y="-318.69" font-family="Times,serif" font-size="14.00">input_data</text>
</g>
<!-- x2 -->
<g id="node14" class="node">
<title>x2</title>
<path fill="none" stroke="black" d="M300.47,-459.74C300.47,-459.74 338.97,-459.74 338.97,-459.74 344.97,-459.74 350.97,-465.74 350.97,-471.74 350.97,-471.74 350.97,-483.74 350.97,-483.74 350.97,-489.74 344.97,-495.74 338.97,-495.74 338.97,-495.74 300.47,-495.74 300.47,-495.74 294.47,-495.74 288.47,-489.74 288.47,-483.74 288.47,-483.74 288.47,-471.74 288.47,-471.74 288.47,-465.74 294.47,-459.74 300.47,-459.74"/>
<text text-anchor="middle" x="319.72" y="-472.94" font-family="Times,serif" font-size="14.00">4:0 &#45; 4:0</text>
</g>
<!-- n12&#45;&gt;x2 -->
<g id="edge23" class="edge">
<title>n12:e&#45;&gt;x2:w</title>
<path fill="none" stroke="black" stroke-width="3" d="M107.84,-323.74C133.8,-323.74 125.32,-351.55 143.84,-369.74 198.09,-423.01 206.76,-472.88 276.27,-477.62"/>
<polygon fill="black" stroke="black" stroke-width="3" points="272.82,-481.01 282.93,-477.84 273.05,-474.01 272.82,-481.01"/>
</g>
<!-- c29 -->
<g id="node22" class="node">
<title>c29</title>
<polygon fill="none" stroke="black" points="402.59,-210.24 402.59,-259.24 498.59,-259.24 498.59,-210.24 402.59,-210.24"/>
<text text-anchor="middle" x="415.47" y="-241.94" font-family="Times,serif" font-size="14.00">A</text>
<polyline fill="none" stroke="black" points="402.59,-234.74 428.34,-234.74"/>
<text text-anchor="middle" x="415.47" y="-217.44" font-family="Times,serif" font-size="14.00">B</text>
<polyline fill="none" stroke="black" points="428.34,-210.24 428.34,-259.24"/>
<text text-anchor="middle" x="450.59" y="-237.94" font-family="Times,serif" font-size="14.00">$4</text>
<text text-anchor="middle" x="450.59" y="-221.44" font-family="Times,serif" font-size="14.00">$mul</text>
<polyline fill="none" stroke="black" points="472.84,-210.24 472.84,-259.24"/>
<text text-anchor="middle" x="485.72" y="-229.94" font-family="Times,serif" font-size="14.00">Y</text>
</g>
<!-- n12&#45;&gt;c29 -->
<g id="edge19" class="edge">
<title>n12:e&#45;&gt;c29:w</title>
<path fill="none" stroke="black" stroke-width="3" d="M107.84,-323.74C147.64,-323.74 111.35,-264.72 143.84,-241.74 234.86,-177.35 283.95,-219.47 391.32,-222.34"/>
<polygon fill="black" stroke="black" stroke-width="3" points="388,-225.79 398.05,-222.43 388.1,-218.79 388,-225.79"/>
</g>
<!-- c32 -->
<g id="node28" class="node">
<title>c32</title>
<polygon fill="none" stroke="black" points="144.59,-251.24 144.59,-292.24 236.09,-292.24 236.09,-251.24 144.59,-251.24"/>
<text text-anchor="middle" x="157.47" y="-266.94" font-family="Times,serif" font-size="14.00">A</text>
<polyline fill="none" stroke="black" points="170.34,-251.24 170.34,-292.24"/>
<text text-anchor="middle" x="190.34" y="-274.94" font-family="Times,serif" font-size="14.00">$2</text>
<text text-anchor="middle" x="190.34" y="-258.44" font-family="Times,serif" font-size="14.00">$not</text>
<polyline fill="none" stroke="black" points="210.34,-251.24 210.34,-292.24"/>
<text text-anchor="middle" x="223.22" y="-266.94" font-family="Times,serif" font-size="14.00">Y</text>
</g>
<!-- n12&#45;&gt;c32 -->
<g id="edge20" class="edge">
<title>n12:e&#45;&gt;c32:w</title>
<path fill="none" stroke="black" stroke-width="3" d="M107.84,-323.74C131.04,-323.74 121.29,-288.25 133.16,-276.05"/>
<polygon fill="black" stroke="black" stroke-width="3" points="131.49,-280.43 139.6,-273.6 129.01,-273.89 131.49,-280.43"/>
</g>
<!-- c36 -->
<g id="node36" class="node">
<title>c36</title>
<polygon fill="none" stroke="black" points="143.84,-311.24 143.84,-360.24 236.84,-360.24 236.84,-311.24 143.84,-311.24"/>
<text text-anchor="middle" x="156.72" y="-342.94" font-family="Times,serif" font-size="14.00">A</text>
<polyline fill="none" stroke="black" points="143.84,-335.74 169.59,-335.74"/>
<text text-anchor="middle" x="156.72" y="-318.44" font-family="Times,serif" font-size="14.00">B</text>
<polyline fill="none" stroke="black" points="169.59,-311.24 169.59,-360.24"/>
<text text-anchor="middle" x="190.34" y="-338.94" font-family="Times,serif" font-size="14.00">$1</text>
<text text-anchor="middle" x="190.34" y="-322.44" font-family="Times,serif" font-size="14.00">$sub</text>
<polyline fill="none" stroke="black" points="211.09,-311.24 211.09,-360.24"/>
<text text-anchor="middle" x="223.97" y="-330.94" font-family="Times,serif" font-size="14.00">Y</text>
</g>
<!-- n12&#45;&gt;c36 -->
<g id="edge21" class="edge">
<title>n12:e&#45;&gt;c36:w</title>
<path fill="none" stroke="black" stroke-width="3" d="M107.84,-323.74C122.46,-323.74 124.52,-337.66 133.05,-344.41"/>
<polygon fill="black" stroke="black" stroke-width="3" points="128.94,-346.73 139.53,-346.56 131.14,-340.09 128.94,-346.73"/>
</g>
<!-- n12&#45;&gt;c36 -->
<g id="edge22" class="edge">
<title>n12:e&#45;&gt;c36:w</title>
<path fill="none" stroke="black" stroke-width="3" d="M107.84,-323.74C119.22,-323.74 124.53,-323.61 132.39,-323.54"/>
<polygon fill="black" stroke="black" stroke-width="3" points="129.32,-327.05 139.3,-323.51 129.28,-320.05 129.32,-327.05"/>
</g>
<!-- n13 -->
<g id="node2" class="node">
<title>n13</title>
<polygon fill="none" stroke="black" points="3138.16,-210.28 3138.16,-225.19 3103.65,-235.74 3054.85,-235.74 3020.35,-225.19 3020.35,-210.28 3054.85,-199.74 3103.65,-199.74 3138.16,-210.28"/>
<text text-anchor="middle" x="3079.25" y="-212.69" font-family="Times,serif" font-size="14.00">output_data</text>
</g>
<!-- n14 -->
<g id="node3" class="node">
<title>n14</title>
<polygon fill="none" stroke="black" points="589.84,-244.74 534.59,-226.74 589.84,-208.74 645.09,-226.74 589.84,-244.74"/>
<text text-anchor="middle" x="589.84" y="-221.69" font-family="Times,serif" font-size="14.00">temp_0</text>
</g>
<!-- x0 -->
<g id="node9" class="node">
<title>x0</title>
<path fill="none" stroke="black" d="M1716.72,-374.24C1716.72,-374.24 1755.22,-374.24 1755.22,-374.24 1761.22,-374.24 1767.22,-380.24 1767.22,-386.24 1767.22,-386.24 1767.22,-411.24 1767.22,-411.24 1767.22,-417.24 1761.22,-423.24 1755.22,-423.24 1755.22,-423.24 1716.72,-423.24 1716.72,-423.24 1710.72,-423.24 1704.72,-417.24 1704.72,-411.24 1704.72,-411.24 1704.72,-386.24 1704.72,-386.24 1704.72,-380.24 1710.72,-374.24 1716.72,-374.24"/>
<text text-anchor="middle" x="1735.97" y="-405.94" font-family="Times,serif" font-size="14.00">0 &#45;&gt; 8:6</text>
<polyline fill="none" stroke="black" points="1704.72,-398.74 1767.22,-398.74"/>
<text text-anchor="middle" x="1735.97" y="-381.44" font-family="Times,serif" font-size="14.00">5:0 &#45; 5:0</text>
</g>
<!-- n14&#45;&gt;x0 -->
<g id="edge29" class="edge">
<title>n14:e&#45;&gt;x0:w</title>
<path fill="none" stroke="black" stroke-width="3" d="M645.09,-226.74C691.49,-226.74 654.55,-286.68 681.09,-324.74 735.25,-402.38 748.68,-462.74 843.34,-462.74 843.34,-462.74 843.34,-462.74 1479.34,-462.74 1580.76,-462.74 1597.25,-392.04 1692.36,-386.79"/>
<polygon fill="black" stroke="black" stroke-width="3" points="1689.28,-390.38 1699.18,-386.61 1689.09,-383.38 1689.28,-390.38"/>
</g>
<!-- x1 -->
<g id="node10" class="node">
<title>x1</title>
<path fill="none" stroke="black" d="M2804.1,-104.99C2804.1,-104.99 2842.6,-104.99 2842.6,-104.99 2848.6,-104.99 2854.6,-110.99 2854.6,-116.99 2854.6,-116.99 2854.6,-166.49 2854.6,-166.49 2854.6,-172.49 2848.6,-178.49 2842.6,-178.49 2842.6,-178.49 2804.1,-178.49 2804.1,-178.49 2798.1,-178.49 2792.1,-172.49 2792.1,-166.49 2792.1,-166.49 2792.1,-116.99 2792.1,-116.99 2792.1,-110.99 2798.1,-104.99 2804.1,-104.99"/>
<text text-anchor="middle" x="2823.35" y="-161.19" font-family="Times,serif" font-size="14.00">0 &#45;&gt; 8:6</text>
<polyline fill="none" stroke="black" points="2792.1,-153.99 2854.6,-153.99"/>
<text text-anchor="middle" x="2823.35" y="-136.69" font-family="Times,serif" font-size="14.00">5:5 &#45; 5:5</text>
<polyline fill="none" stroke="black" points="2792.1,-129.49 2854.6,-129.49"/>
<text text-anchor="middle" x="2823.35" y="-112.19" font-family="Times,serif" font-size="14.00">4:0 &#45; 4:0</text>
</g>
<!-- n14&#45;&gt;x1 -->
<g id="edge32" class="edge">
<title>n14:e&#45;&gt;x1:w</title>
<path fill="none" stroke="black" d="M645.09,-226.74C724.06,-226.74 622.86,-106.08 681.09,-52.74 734.63,-3.69 770.74,-33.74 843.34,-33.74 843.34,-33.74 843.34,-33.74 2579.34,-33.74 2661.88,-33.74 2689.6,-41.84 2756.1,-90.74 2774.61,-104.35 2768.12,-130.39 2781.1,-138.94"/>
<polygon fill="black" stroke="black" points="2780.07,-142.29 2790.63,-141.36 2781.8,-135.51 2780.07,-142.29"/>
</g>
<!-- c23 -->
<g id="node11" class="node">
<title>c23</title>
<polygon fill="none" stroke="black" points="681.09,-266.24 681.09,-315.24 774.84,-315.24 774.84,-266.24 681.09,-266.24"/>
<text text-anchor="middle" x="693.97" y="-297.94" font-family="Times,serif" font-size="14.00">A</text>
<polyline fill="none" stroke="black" points="681.09,-290.74 706.84,-290.74"/>
<text text-anchor="middle" x="693.97" y="-273.44" font-family="Times,serif" font-size="14.00">B</text>
<polyline fill="none" stroke="black" points="706.84,-266.24 706.84,-315.24"/>
<text text-anchor="middle" x="727.97" y="-293.94" font-family="Times,serif" font-size="14.00">$5</text>
<text text-anchor="middle" x="727.97" y="-277.44" font-family="Times,serif" font-size="14.00">$and</text>
<polyline fill="none" stroke="black" points="749.09,-266.24 749.09,-315.24"/>
<text text-anchor="middle" x="761.97" y="-285.94" font-family="Times,serif" font-size="14.00">Y</text>
</g>
<!-- n14&#45;&gt;c23 -->
<g id="edge26" class="edge">
<title>n14:e&#45;&gt;c23:w</title>
<path fill="none" stroke="black" stroke-width="3" d="M645.09,-226.74C677.88,-226.74 652.16,-285.12 670.32,-299.71"/>
<polygon fill="black" stroke="black" stroke-width="3" points="666.16,-302.1 676.75,-301.67 668.2,-295.41 666.16,-302.1"/>
</g>
<!-- n14&#45;&gt;c23 -->
<g id="edge27" class="edge">
<title>n14:e&#45;&gt;c23:w</title>
<path fill="none" stroke="black" stroke-width="3" d="M645.09,-226.74C668.29,-226.74 658.54,-262.23 670.42,-274.43"/>
<polygon fill="black" stroke="black" stroke-width="3" points="666.26,-276.59 676.85,-276.87 668.75,-270.05 666.26,-276.59"/>
</g>
<!-- c24 -->
<g id="node12" class="node">
<title>c24</title>
<polygon fill="none" stroke="black" points="682.22,-206.24 682.22,-247.24 773.72,-247.24 773.72,-206.24 682.22,-206.24"/>
<text text-anchor="middle" x="695.09" y="-221.94" font-family="Times,serif" font-size="14.00">A</text>
<polyline fill="none" stroke="black" points="707.97,-206.24 707.97,-247.24"/>
<text text-anchor="middle" x="727.97" y="-229.94" font-family="Times,serif" font-size="14.00">$39</text>
<text text-anchor="middle" x="727.97" y="-213.44" font-family="Times,serif" font-size="14.00">$not</text>
<polyline fill="none" stroke="black" points="747.97,-206.24 747.97,-247.24"/>
<text text-anchor="middle" x="760.84" y="-221.94" font-family="Times,serif" font-size="14.00">Y</text>
</g>
<!-- n14&#45;&gt;c24 -->
<g id="edge28" class="edge">
<title>n14:e&#45;&gt;c24:w</title>
<path fill="none" stroke="black" stroke-width="3" d="M645.09,-226.74C656.51,-226.74 661.83,-226.86 669.73,-226.94"/>
<polygon fill="black" stroke="black" stroke-width="3" points="666.66,-230.42 676.68,-226.97 666.69,-223.42 666.66,-230.42"/>
</g>
<!-- x5 -->
<g id="node20" class="node">
<title>x5</title>
<path fill="none" stroke="black" d="M1588.84,-117.74C1588.84,-117.74 1627.34,-117.74 1627.34,-117.74 1633.34,-117.74 1639.34,-123.74 1639.34,-129.74 1639.34,-129.74 1639.34,-141.74 1639.34,-141.74 1639.34,-147.74 1633.34,-153.74 1627.34,-153.74 1627.34,-153.74 1588.84,-153.74 1588.84,-153.74 1582.84,-153.74 1576.84,-147.74 1576.84,-141.74 1576.84,-141.74 1576.84,-129.74 1576.84,-129.74 1576.84,-123.74 1582.84,-117.74 1588.84,-117.74"/>
<text text-anchor="middle" x="1608.09" y="-130.94" font-family="Times,serif" font-size="14.00">4:0 &#45; 4:0</text>
</g>
<!-- n14&#45;&gt;x5 -->
<g id="edge33" class="edge">
<title>n14:e&#45;&gt;x5:w</title>
<path fill="none" stroke="black" stroke-width="3" d="M645.09,-226.74C674.31,-226.74 655.67,-186.14 681.09,-171.74 851,-75.45 1357.58,-133.73 1564.44,-135.92"/>
<polygon fill="black" stroke="black" stroke-width="3" points="1561.28,-139.41 1571.3,-135.96 1561.32,-132.41 1561.28,-139.41"/>
</g>
<!-- x13 -->
<g id="node35" class="node">
<title>x13</title>
<path fill="none" stroke="black" d="M1459.09,-164.74C1459.09,-164.74 1497.59,-164.74 1497.59,-164.74 1503.59,-164.74 1509.59,-170.74 1509.59,-176.74 1509.59,-176.74 1509.59,-188.74 1509.59,-188.74 1509.59,-194.74 1503.59,-200.74 1497.59,-200.74 1497.59,-200.74 1459.09,-200.74 1459.09,-200.74 1453.09,-200.74 1447.09,-194.74 1447.09,-188.74 1447.09,-188.74 1447.09,-176.74 1447.09,-176.74 1447.09,-170.74 1453.09,-164.74 1459.09,-164.74"/>
<text text-anchor="middle" x="1478.34" y="-177.94" font-family="Times,serif" font-size="14.00">4:0 &#45; 4:0</text>
</g>
<!-- n14&#45;&gt;x13 -->
<g id="edge30" class="edge">
<title>n14:e&#45;&gt;x13:w</title>
<path fill="none" stroke="black" stroke-width="3" d="M645.09,-226.74C665.92,-226.74 661.95,-204.96 681.09,-196.74 747.8,-168.09 770.74,-177.74 843.34,-177.74 843.34,-177.74 843.34,-177.74 1231.34,-177.74 1322.9,-177.74 1348.55,-182.57 1434.7,-182.96"/>
<polygon fill="black" stroke="black" stroke-width="3" points="1431.54,-186.45 1441.55,-182.98 1431.56,-179.45 1431.54,-186.45"/>
</g>
<!-- x14 -->
<g id="node37" class="node">
<title>x14</title>
<path fill="none" stroke="black" d="M708.72,-62.24C708.72,-62.24 747.22,-62.24 747.22,-62.24 753.22,-62.24 759.22,-68.24 759.22,-74.24 759.22,-74.24 759.22,-99.24 759.22,-99.24 759.22,-105.24 753.22,-111.24 747.22,-111.24 747.22,-111.24 708.72,-111.24 708.72,-111.24 702.72,-111.24 696.72,-105.24 696.72,-99.24 696.72,-99.24 696.72,-74.24 696.72,-74.24 696.72,-68.24 702.72,-62.24 708.72,-62.24"/>
<text text-anchor="middle" x="727.97" y="-93.94" font-family="Times,serif" font-size="14.00">0 &#45;&gt; 9:1</text>
<polyline fill="none" stroke="black" points="696.72,-86.74 759.22,-86.74"/>
<text text-anchor="middle" x="727.97" y="-69.44" font-family="Times,serif" font-size="14.00">5:5 &#45; 0:0</text>
</g>
<!-- n14&#45;&gt;x14 -->
<g id="edge31" class="edge">
<title>n14:e&#45;&gt;x14:w</title>
<path fill="none" stroke="black" d="M645.09,-226.74C712.08,-226.74 634.95,-92.37 684.49,-76.09"/>
<polygon fill="black" stroke="black" points="684.82,-79.58 694.22,-74.7 683.82,-72.65 684.82,-79.58"/>
</g>
<!-- n15 -->
<g id="node4" class="node">
<title>n15</title>
<polygon fill="none" stroke="black" points="1101.09,-289.74 1045.84,-271.74 1101.09,-253.74 1156.34,-271.74 1101.09,-289.74"/>
<text text-anchor="middle" x="1101.09" y="-266.69" font-family="Times,serif" font-size="14.00">temp_1</text>
</g>
<!-- x3 -->
<g id="node16" class="node">
<title>x3</title>
<path fill="none" stroke="black" d="M1204.34,-342.74C1204.34,-342.74 1256.34,-342.74 1256.34,-342.74 1262.34,-342.74 1268.34,-348.74 1268.34,-354.74 1268.34,-354.74 1268.34,-366.74 1268.34,-366.74 1268.34,-372.74 1262.34,-378.74 1256.34,-378.74 1256.34,-378.74 1204.34,-378.74 1204.34,-378.74 1198.34,-378.74 1192.34,-372.74 1192.34,-366.74 1192.34,-366.74 1192.34,-354.74 1192.34,-354.74 1192.34,-348.74 1198.34,-342.74 1204.34,-342.74"/>
<text text-anchor="middle" x="1230.34" y="-355.94" font-family="Times,serif" font-size="14.00">30:28 &#45; 2:0</text>
</g>
<!-- n15&#45;&gt;x3 -->
<g id="edge36" class="edge">
<title>n15:e&#45;&gt;x3:w</title>
<path fill="none" stroke="black" stroke-width="3" d="M1156.34,-271.74C1194.44,-271.74 1159.3,-342.53 1181.38,-358.02"/>
<polygon fill="black" stroke="black" stroke-width="3" points="1177.39,-360.56 1187.96,-359.8 1179.22,-353.81 1177.39,-360.56"/>
</g>
<!-- x9 -->
<g id="node27" class="node">
<title>x9</title>
<path fill="none" stroke="black" d="M1321.09,-251.74C1321.09,-251.74 1379.84,-251.74 1379.84,-251.74 1385.84,-251.74 1391.84,-257.74 1391.84,-263.74 1391.84,-263.74 1391.84,-275.74 1391.84,-275.74 1391.84,-281.74 1385.84,-287.74 1379.84,-287.74 1379.84,-287.74 1321.09,-287.74 1321.09,-287.74 1315.09,-287.74 1309.09,-281.74 1309.09,-275.74 1309.09,-275.74 1309.09,-263.74 1309.09,-263.74 1309.09,-257.74 1315.09,-251.74 1321.09,-251.74"/>
<text text-anchor="middle" x="1350.47" y="-264.94" font-family="Times,serif" font-size="14.00">30:20 &#45; 10:0</text>
</g>
<!-- n15&#45;&gt;x9 -->
<g id="edge37" class="edge">
<title>n15:e&#45;&gt;x9:w</title>
<path fill="none" stroke="black" stroke-width="3" d="M1156.34,-271.74C1219.84,-271.74 1238.5,-270.19 1296.74,-270"/>
<polygon fill="black" stroke="black" stroke-width="3" points="1293.56,-273.51 1303.55,-269.99 1293.55,-266.51 1293.56,-273.51"/>
</g>
<!-- x10 -->
<g id="node30" class="node">
<title>x10</title>
<path fill="none" stroke="black" d="M1211.09,-206.74C1211.09,-206.74 1249.59,-206.74 1249.59,-206.74 1255.59,-206.74 1261.59,-212.74 1261.59,-218.74 1261.59,-218.74 1261.59,-230.74 1261.59,-230.74 1261.59,-236.74 1255.59,-242.74 1249.59,-242.74 1249.59,-242.74 1211.09,-242.74 1211.09,-242.74 1205.09,-242.74 1199.09,-236.74 1199.09,-230.74 1199.09,-230.74 1199.09,-218.74 1199.09,-218.74 1199.09,-212.74 1205.09,-206.74 1211.09,-206.74"/>
<text text-anchor="middle" x="1230.34" y="-219.94" font-family="Times,serif" font-size="14.00">4:0 &#45; 4:0</text>
</g>
<!-- n15&#45;&gt;x10 -->
<g id="edge35" class="edge">
<title>n15:e&#45;&gt;x10:w</title>
<path fill="none" stroke="black" stroke-width="3" d="M1156.34,-271.74C1179.63,-271.74 1173.69,-239.07 1187.39,-228.35"/>
<polygon fill="black" stroke="black" stroke-width="3" points="1185.27,-232.68 1193.76,-226.35 1183.17,-226.01 1185.27,-232.68"/>
</g>
<!-- n16 -->
<g id="node5" class="node">
<title>n16</title>
<polygon fill="none" stroke="black" points="2198.59,-210.74 2143.34,-192.74 2198.59,-174.74 2253.84,-192.74 2198.59,-210.74"/>
<text text-anchor="middle" x="2198.59" y="-187.69" font-family="Times,serif" font-size="14.00">temp_2</text>
</g>
<!-- c27 -->
<g id="node18" class="node">
<title>c27</title>
<polygon fill="none" stroke="black" points="2289.84,-167.24 2289.84,-208.24 2381.34,-208.24 2381.34,-167.24 2289.84,-167.24"/>
<text text-anchor="middle" x="2302.72" y="-182.94" font-family="Times,serif" font-size="14.00">A</text>
<polyline fill="none" stroke="black" points="2315.59,-167.24 2315.59,-208.24"/>
<text text-anchor="middle" x="2335.59" y="-190.94" font-family="Times,serif" font-size="14.00">$50</text>
<text text-anchor="middle" x="2335.59" y="-174.44" font-family="Times,serif" font-size="14.00">$not</text>
<polyline fill="none" stroke="black" points="2355.59,-167.24 2355.59,-208.24"/>
<text text-anchor="middle" x="2368.47" y="-182.94" font-family="Times,serif" font-size="14.00">Y</text>
</g>
<!-- n16&#45;&gt;c27 -->
<g id="edge39" class="edge">
<title>n16:e&#45;&gt;c27:w</title>
<path fill="none" stroke="black" stroke-width="3" d="M2253.84,-192.74C2265.44,-192.74 2270.63,-190.28 2278.62,-188.9"/>
<polygon fill="black" stroke="black" stroke-width="3" points="2275.64,-192.66 2285.32,-188.36 2275.07,-185.68 2275.64,-192.66"/>
</g>
<!-- n17 -->
<g id="node6" class="node">
<title>n17</title>
<polygon fill="none" stroke="black" points="2700.84,-135.74 2645.59,-117.74 2700.84,-99.74 2756.1,-117.74 2700.84,-135.74"/>
<text text-anchor="middle" x="2700.84" y="-112.69" font-family="Times,serif" font-size="14.00">temp_6</text>
</g>
<!-- n17&#45;&gt;x1 -->
<g id="edge42" class="edge">
<title>n17:e&#45;&gt;x1:w</title>
<path fill="none" stroke="black" stroke-width="3" d="M2756.1,-117.74C2767.47,-117.74 2772.78,-117.48 2780.65,-117.34"/>
<polygon fill="black" stroke="black" stroke-width="3" points="2777.59,-120.87 2787.55,-117.28 2777.52,-113.87 2777.59,-120.87"/>
</g>
<!-- c21 -->
<g id="node7" class="node">
<title>c21</title>
<polygon fill="none" stroke="black" points="272.84,-259.24 272.84,-308.24 366.59,-308.24 366.59,-259.24 272.84,-259.24"/>
<text text-anchor="middle" x="285.72" y="-290.94" font-family="Times,serif" font-size="14.00">A</text>
<polyline fill="none" stroke="black" points="272.84,-283.74 298.59,-283.74"/>
<text text-anchor="middle" x="285.72" y="-266.44" font-family="Times,serif" font-size="14.00">B</text>
<polyline fill="none" stroke="black" points="298.59,-259.24 298.59,-308.24"/>
<text text-anchor="middle" x="319.72" y="-286.94" font-family="Times,serif" font-size="14.00">$3</text>
<text text-anchor="middle" x="319.72" y="-270.44" font-family="Times,serif" font-size="14.00">$add</text>
<polyline fill="none" stroke="black" points="340.84,-259.24 340.84,-308.24"/>
<text text-anchor="middle" x="353.72" y="-278.94" font-family="Times,serif" font-size="14.00">Y</text>
</g>
<!-- c21&#45;&gt;c29 -->
<g id="edge16" class="edge">
<title>c21:e&#45;&gt;c29:w</title>
<path fill="none" stroke="black" stroke-width="3" d="M366.59,-283.99C384.87,-283.99 382.31,-260.49 392.12,-250.95"/>
<polygon fill="black" stroke="black" stroke-width="3" points="390.23,-255.41 398.34,-248.59 387.75,-248.86 390.23,-255.41"/>
</g>
<!-- c22 -->
<g id="node8" class="node">
<title>c22</title>
<polygon fill="none" stroke="black" points="2890.6,-193.24 2890.6,-242.24 2984.35,-242.24 2984.35,-193.24 2890.6,-193.24"/>
<text text-anchor="middle" x="2903.47" y="-224.94" font-family="Times,serif" font-size="14.00">A</text>
<polyline fill="none" stroke="black" points="2890.6,-217.74 2916.35,-217.74"/>
<text text-anchor="middle" x="2903.47" y="-200.44" font-family="Times,serif" font-size="14.00">B</text>
<polyline fill="none" stroke="black" points="2916.35,-193.24 2916.35,-242.24"/>
<text text-anchor="middle" x="2937.47" y="-220.94" font-family="Times,serif" font-size="14.00">$27</text>
<text text-anchor="middle" x="2937.47" y="-204.44" font-family="Times,serif" font-size="14.00">$add</text>
<polyline fill="none" stroke="black" points="2958.6,-193.24 2958.6,-242.24"/>
<text text-anchor="middle" x="2971.47" y="-212.94" font-family="Times,serif" font-size="14.00">Y</text>
</g>
<!-- c22&#45;&gt;n13 -->
<g id="edge24" class="edge">
<title>c22:e&#45;&gt;n13:w</title>
<path fill="none" stroke="black" stroke-width="3" d="M2984.35,-217.99C2995.72,-217.99 3001.03,-217.86 3008.9,-217.79"/>
<polygon fill="black" stroke="black" stroke-width="3" points="3005.82,-221.3 3015.8,-217.76 3005.79,-214.3 3005.82,-221.3"/>
</g>
<!-- x0&#45;&gt;c22 -->
<g id="edge1" class="edge">
<title>x0:e&#45;&gt;c22:w</title>
<path fill="none" stroke="black" stroke-width="3" d="M1780.78,-398.07C1861.83,-389.12 1861.92,-293.74 1951.34,-293.74 1951.34,-293.74 1951.34,-293.74 2701.84,-293.74 2785.89,-293.74 2800.67,-236.3 2877.68,-230.46"/>
<polygon fill="none" stroke="black" stroke-width="3" points="1782.9,-397.95 1777.12,-402.27 1770.92,-398.59 1776.7,-394.28 1782.9,-397.95"/>
<polygon fill="none" stroke="black" stroke-width="3" points="2875.9,-230.53 2881.75,-226.31 2887.89,-230.09 2882.04,-234.31 2875.9,-230.53"/>
</g>
<!-- x1&#45;&gt;c22 -->
<g id="edge2" class="edge">
<title>x1:e&#45;&gt;c22:w</title>
<path fill="none" stroke="black" stroke-width="3" d="M2866.54,-146.74C2876.44,-158.72 2868.72,-188.91 2878.82,-200.68"/>
<polygon fill="none" stroke="black" stroke-width="3" points="2868.16,-147.42 2861.08,-148.79 2857.09,-142.78 2864.17,-141.41 2868.16,-147.42"/>
<polygon fill="none" stroke="black" stroke-width="3" points="2876.98,-199.93 2884.05,-198.5 2888.09,-204.47 2881.02,-205.9 2876.98,-199.93"/>
</g>
<!-- c30 -->
<g id="node23" class="node">
<title>c30</title>
<polygon fill="none" stroke="black" points="913.84,-247.24 913.84,-296.24 1009.84,-296.24 1009.84,-247.24 913.84,-247.24"/>
<text text-anchor="middle" x="926.72" y="-278.94" font-family="Times,serif" font-size="14.00">A</text>
<polyline fill="none" stroke="black" points="913.84,-271.74 939.59,-271.74"/>
<text text-anchor="middle" x="926.72" y="-254.44" font-family="Times,serif" font-size="14.00">B</text>
<polyline fill="none" stroke="black" points="939.59,-247.24 939.59,-296.24"/>
<text text-anchor="middle" x="961.84" y="-274.94" font-family="Times,serif" font-size="14.00">$8</text>
<text text-anchor="middle" x="961.84" y="-258.44" font-family="Times,serif" font-size="14.00">$mul</text>
<polyline fill="none" stroke="black" points="984.09,-247.24 984.09,-296.24"/>
<text text-anchor="middle" x="996.97" y="-266.94" font-family="Times,serif" font-size="14.00">Y</text>
</g>
<!-- c23&#45;&gt;c30 -->
<g id="edge43" class="edge">
<title>c23:e&#45;&gt;c30:w</title>
<path fill="none" stroke="black" stroke-width="3" d="M774.84,-290.99C832.71,-290.99 849.82,-284.86 902.44,-284.07"/>
<polygon fill="black" stroke="black" stroke-width="3" points="899.33,-287.59 909.3,-284.02 899.28,-280.59 899.33,-287.59"/>
</g>
<!-- x7 -->
<g id="node24" class="node">
<title>x7</title>
<path fill="none" stroke="black" d="M822.84,-214.24C822.84,-214.24 865.84,-214.24 865.84,-214.24 871.84,-214.24 877.84,-220.24 877.84,-226.24 877.84,-226.24 877.84,-251.24 877.84,-251.24 877.84,-257.24 871.84,-263.24 865.84,-263.24 865.84,-263.24 822.84,-263.24 822.84,-263.24 816.84,-263.24 810.84,-257.24 810.84,-251.24 810.84,-251.24 810.84,-226.24 810.84,-226.24 810.84,-220.24 816.84,-214.24 822.84,-214.24"/>
<text text-anchor="middle" x="844.34" y="-245.94" font-family="Times,serif" font-size="14.00">1 &#45;&gt; 30:6</text>
<polyline fill="none" stroke="black" points="810.84,-238.74 877.84,-238.74"/>
<text text-anchor="middle" x="844.34" y="-221.44" font-family="Times,serif" font-size="14.00">5:0 &#45; 5:0</text>
</g>
<!-- c24&#45;&gt;x7 -->
<g id="edge44" class="edge">
<title>c24:e&#45;&gt;x7:w</title>
<path fill="none" stroke="black" stroke-width="3" d="M774.72,-226.99C786.13,-226.99 791.46,-226.73 799.36,-226.59"/>
<polygon fill="black" stroke="black" stroke-width="3" points="796.33,-230.12 806.3,-226.53 796.27,-223.12 796.33,-230.12"/>
</g>
<!-- c25 -->
<g id="node13" class="node">
<title>c25</title>
<polygon fill="none" stroke="black" points="404.84,-472.24 404.84,-513.24 496.34,-513.24 496.34,-472.24 404.84,-472.24"/>
<text text-anchor="middle" x="417.72" y="-487.94" font-family="Times,serif" font-size="14.00">A</text>
<polyline fill="none" stroke="black" points="430.59,-472.24 430.59,-513.24"/>
<text text-anchor="middle" x="450.59" y="-495.94" font-family="Times,serif" font-size="14.00">$43</text>
<text text-anchor="middle" x="450.59" y="-479.44" font-family="Times,serif" font-size="14.00">$not</text>
<polyline fill="none" stroke="black" points="470.59,-472.24 470.59,-513.24"/>
<text text-anchor="middle" x="483.47" y="-487.94" font-family="Times,serif" font-size="14.00">Y</text>
</g>
<!-- n4 -->
<g id="node39" class="node">
<title>n4</title>
<ellipse fill="black" stroke="black" cx="1101.09" cy="-415.74" rx="1.8" ry="1.8"/>
</g>
<!-- c25&#45;&gt;n4 -->
<g id="edge45" class="edge">
<title>c25:e&#45;&gt;n4:w</title>
<path fill="none" stroke="black" stroke-width="3" d="M497.34,-492.99C599.46,-492.99 624.85,-500.74 726.97,-500.74 726.97,-500.74 726.97,-500.74 845.34,-500.74 959.81,-500.74 978.26,-421.29 1086.35,-416.01"/>
<polygon fill="black" stroke="black" stroke-width="3" points="1083.36,-419.59 1093.27,-415.85 1083.19,-412.59 1083.36,-419.59"/>
</g>
<!-- x2&#45;&gt;c25 -->
<g id="edge3" class="edge">
<title>x2:e&#45;&gt;c25:w</title>
<path fill="none" stroke="black" stroke-width="3" d="M364.85,-479.49C374.88,-482.43 380.98,-488.33 391.02,-491.26"/>
<polygon fill="none" stroke="black" stroke-width="3" points="366.54,-479.72 360.05,-482.87 354.65,-478.1 361.13,-474.94 366.54,-479.72"/>
<polygon fill="none" stroke="black" stroke-width="3" points="389.27,-491.02 395.75,-487.86 401.16,-492.63 394.68,-495.79 389.27,-491.02"/>
</g>
<!-- c26 -->
<g id="node15" class="node">
<title>c26</title>
<polygon fill="none" stroke="black" points="1304.34,-345.24 1304.34,-394.24 1396.59,-394.24 1396.59,-345.24 1304.34,-345.24"/>
<text text-anchor="middle" x="1317.22" y="-376.94" font-family="Times,serif" font-size="14.00">A</text>
<polyline fill="none" stroke="black" points="1304.34,-369.74 1330.09,-369.74"/>
<text text-anchor="middle" x="1317.22" y="-352.44" font-family="Times,serif" font-size="14.00">B</text>
<polyline fill="none" stroke="black" points="1330.09,-345.24 1330.09,-394.24"/>
<text text-anchor="middle" x="1350.47" y="-372.94" font-family="Times,serif" font-size="14.00">$47</text>
<text text-anchor="middle" x="1350.47" y="-356.44" font-family="Times,serif" font-size="14.00">$xor</text>
<polyline fill="none" stroke="black" points="1370.84,-345.24 1370.84,-394.24"/>
<text text-anchor="middle" x="1383.72" y="-364.94" font-family="Times,serif" font-size="14.00">Y</text>
</g>
<!-- x8 -->
<g id="node26" class="node">
<title>x8</title>
<path fill="none" stroke="black" d="M1456.84,-317.99C1456.84,-317.99 1499.84,-317.99 1499.84,-317.99 1505.84,-317.99 1511.84,-323.99 1511.84,-329.99 1511.84,-329.99 1511.84,-379.49 1511.84,-379.49 1511.84,-385.49 1505.84,-391.49 1499.84,-391.49 1499.84,-391.49 1456.84,-391.49 1456.84,-391.49 1450.84,-391.49 1444.84,-385.49 1444.84,-379.49 1444.84,-379.49 1444.84,-329.99 1444.84,-329.99 1444.84,-323.99 1450.84,-317.99 1456.84,-317.99"/>
<text text-anchor="middle" x="1478.34" y="-374.19" font-family="Times,serif" font-size="14.00">1 &#45;&gt; 30:5</text>
<polyline fill="none" stroke="black" points="1444.84,-366.99 1511.84,-366.99"/>
<text text-anchor="middle" x="1478.34" y="-349.69" font-family="Times,serif" font-size="14.00">4:3 &#45; 4:3</text>
<polyline fill="none" stroke="black" points="1444.84,-342.49 1511.84,-342.49"/>
<text text-anchor="middle" x="1478.34" y="-325.19" font-family="Times,serif" font-size="14.00">2:0 &#45; 2:0</text>
</g>
<!-- c26&#45;&gt;x8 -->
<g id="edge48" class="edge">
<title>c26:e&#45;&gt;x8:w</title>
<path fill="none" stroke="black" stroke-width="3" d="M1396.59,-369.99C1419.53,-369.99 1417.96,-342.21 1432.86,-333.1"/>
<polygon fill="black" stroke="black" stroke-width="3" points="1430.65,-337.29 1439.45,-331.38 1428.89,-330.51 1430.65,-337.29"/>
</g>
<!-- x3&#45;&gt;c26 -->
<g id="edge4" class="edge">
<title>x3:e&#45;&gt;c26:w</title>
<path fill="none" stroke="black" stroke-width="3" d="M1280.21,-364.83C1284.74,-368.5 1287.69,-373.86 1292.13,-377.61"/>
<polygon fill="none" stroke="black" stroke-width="3" points="1282.24,-365.53 1275.27,-367.36 1270.9,-361.62 1277.88,-359.8 1282.24,-365.53"/>
<polygon fill="none" stroke="black" stroke-width="3" points="1290.5,-377.02 1297.5,-375.28 1301.8,-381.07 1294.8,-382.82 1290.5,-377.02"/>
</g>
<!-- x4 -->
<g id="node17" class="node">
<title>x4</title>
<path fill="none" stroke="black" d="M1211.09,-397.74C1211.09,-397.74 1249.59,-397.74 1249.59,-397.74 1255.59,-397.74 1261.59,-403.74 1261.59,-409.74 1261.59,-409.74 1261.59,-421.74 1261.59,-421.74 1261.59,-427.74 1255.59,-433.74 1249.59,-433.74 1249.59,-433.74 1211.09,-433.74 1211.09,-433.74 1205.09,-433.74 1199.09,-427.74 1199.09,-421.74 1199.09,-421.74 1199.09,-409.74 1199.09,-409.74 1199.09,-403.74 1205.09,-397.74 1211.09,-397.74"/>
<text text-anchor="middle" x="1230.34" y="-410.94" font-family="Times,serif" font-size="14.00">2:0 &#45; 2:0</text>
</g>
<!-- x4&#45;&gt;c26 -->
<g id="edge5" class="edge">
<title>x4:e&#45;&gt;c26:w</title>
<path fill="none" stroke="black" stroke-width="3" d="M1274.79,-411.17C1285.71,-400.22 1281.24,-372.63 1292.32,-361.88"/>
<polygon fill="none" stroke="black" stroke-width="3" points="1276.36,-410.58 1272.15,-416.43 1265.13,-414.79 1269.34,-408.94 1276.36,-410.58"/>
<polygon fill="none" stroke="black" stroke-width="3" points="1290.53,-362.53 1294.79,-356.72 1301.8,-358.42 1297.54,-364.23 1290.53,-362.53"/>
</g>
<!-- c28 -->
<g id="node19" class="node">
<title>c28</title>
<polygon fill="none" stroke="black" points="2417.34,-123.24 2417.34,-172.24 2511.09,-172.24 2511.09,-123.24 2417.34,-123.24"/>
<text text-anchor="middle" x="2430.22" y="-154.94" font-family="Times,serif" font-size="14.00">A</text>
<polyline fill="none" stroke="black" points="2417.34,-147.74 2443.09,-147.74"/>
<text text-anchor="middle" x="2430.22" y="-130.44" font-family="Times,serif" font-size="14.00">B</text>
<polyline fill="none" stroke="black" points="2443.09,-123.24 2443.09,-172.24"/>
<text text-anchor="middle" x="2464.22" y="-150.94" font-family="Times,serif" font-size="14.00">$58</text>
<text text-anchor="middle" x="2464.22" y="-134.44" font-family="Times,serif" font-size="14.00">$and</text>
<polyline fill="none" stroke="black" points="2485.34,-123.24 2485.34,-172.24"/>
<text text-anchor="middle" x="2498.22" y="-142.94" font-family="Times,serif" font-size="14.00">Y</text>
</g>
<!-- c27&#45;&gt;c28 -->
<g id="edge49" class="edge">
<title>c27:e&#45;&gt;c28:w</title>
<path fill="none" stroke="black" stroke-width="3" d="M2381.34,-187.99C2396.86,-187.99 2397.84,-171.57 2406.54,-163.88"/>
<polygon fill="black" stroke="black" stroke-width="3" points="2404.85,-168.21 2413.07,-161.53 2402.48,-161.62 2404.85,-168.21"/>
</g>
<!-- x6 -->
<g id="node21" class="node">
<title>x6</title>
<path fill="none" stroke="black" d="M2559.09,-125.74C2559.09,-125.74 2597.59,-125.74 2597.59,-125.74 2603.59,-125.74 2609.59,-131.74 2609.59,-137.74 2609.59,-137.74 2609.59,-149.74 2609.59,-149.74 2609.59,-155.74 2603.59,-161.74 2597.59,-161.74 2597.59,-161.74 2559.09,-161.74 2559.09,-161.74 2553.09,-161.74 2547.09,-155.74 2547.09,-149.74 2547.09,-149.74 2547.09,-137.74 2547.09,-137.74 2547.09,-131.74 2553.09,-125.74 2559.09,-125.74"/>
<text text-anchor="middle" x="2578.34" y="-138.94" font-family="Times,serif" font-size="14.00">4:0 &#45; 4:0</text>
</g>
<!-- c28&#45;&gt;x6 -->
<g id="edge7" class="edge">
<title>c28:e&#45;&gt;x6:w</title>
<path fill="none" stroke="black" stroke-width="3" d="M2523.84,-146.91C2527.43,-146.29 2530.53,-145.49 2534.1,-144.85"/>
<polygon fill="none" stroke="black" stroke-width="3" points="2525.75,-146.75 2520.1,-151.24 2513.79,-147.76 2519.43,-143.27 2525.75,-146.75"/>
<polygon fill="none" stroke="black" stroke-width="3" points="2532.44,-145 2538.08,-140.5 2544.4,-143.97 2538.76,-148.47 2532.44,-145"/>
</g>
<!-- x5&#45;&gt;c28 -->
<g id="edge6" class="edge">
<title>x5:e&#45;&gt;c28:w</title>
<path fill="none" stroke="black" stroke-width="3" d="M1653.22,-135.74C1735.67,-135.74 1760.97,-135.74 1849.47,-135.74 1849.47,-135.74 1849.47,-135.74 2199.59,-135.74 2291.93,-135.74 2318.19,-135.51 2404.46,-135.49"/>
<polygon fill="none" stroke="black" stroke-width="3" points="1655.05,-135.74 1649.05,-139.74 1643.05,-135.74 1649.05,-131.74 1655.05,-135.74"/>
<polygon fill="none" stroke="black" stroke-width="3" points="2402.64,-135.49 2408.64,-131.49 2414.64,-135.49 2408.64,-139.49 2402.64,-135.49"/>
</g>
<!-- x6&#45;&gt;n17 -->
<g id="edge41" class="edge">
<title>x6:e&#45;&gt;n17:w</title>
<path fill="none" stroke="black" stroke-width="3" d="M2609.59,-143.99C2624.75,-143.99 2626.2,-128.6 2634.93,-121.39"/>
<polygon fill="black" stroke="black" stroke-width="3" points="2632.97,-125.76 2641.3,-119.21 2630.7,-119.13 2632.97,-125.76"/>
</g>
<!-- c29&#45;&gt;n14 -->
<g id="edge25" class="edge">
<title>c29:e&#45;&gt;n14:w</title>
<path fill="none" stroke="black" stroke-width="3" d="M498.59,-234.99C510.39,-234.99 515.35,-230.73 523.29,-228.33"/>
<polygon fill="black" stroke="black" stroke-width="3" points="520.68,-232.23 530.09,-227.37 519.7,-225.3 520.68,-232.23"/>
</g>
<!-- c30&#45;&gt;n15 -->
<g id="edge34" class="edge">
<title>c30:e&#45;&gt;n15:w</title>
<path fill="none" stroke="black" stroke-width="3" d="M1009.84,-271.99C1021.22,-271.99 1026.53,-271.86 1034.4,-271.79"/>
<polygon fill="black" stroke="black" stroke-width="3" points="1031.32,-275.3 1041.3,-271.76 1031.29,-268.3 1031.32,-275.3"/>
</g>
<!-- x7&#45;&gt;c30 -->
<g id="edge8" class="edge">
<title>x7:e&#45;&gt;c30:w</title>
<path fill="none" stroke="black" stroke-width="3" d="M889.68,-242.74C894.22,-246.32 897.2,-251.55 901.66,-255.21"/>
<polygon fill="none" stroke="black" stroke-width="3" points="891.77,-243.44 884.81,-245.31 880.4,-239.6 887.37,-237.73 891.77,-243.44"/>
<polygon fill="none" stroke="black" stroke-width="3" points="899.97,-254.62 906.95,-252.83 911.29,-258.59 904.3,-260.38 899.97,-254.62"/>
</g>
<!-- c31 -->
<g id="node25" class="node">
<title>c31</title>
<polygon fill="none" stroke="black" points="1560.09,-277.24 1560.09,-326.24 1656.09,-326.24 1656.09,-277.24 1560.09,-277.24"/>
<text text-anchor="middle" x="1572.97" y="-308.94" font-family="Times,serif" font-size="14.00">A</text>
<polyline fill="none" stroke="black" points="1560.09,-301.74 1585.84,-301.74"/>
<text text-anchor="middle" x="1572.97" y="-284.44" font-family="Times,serif" font-size="14.00">B</text>
<polyline fill="none" stroke="black" points="1585.84,-277.24 1585.84,-326.24"/>
<text text-anchor="middle" x="1608.09" y="-304.94" font-family="Times,serif" font-size="14.00">$12</text>
<text text-anchor="middle" x="1608.09" y="-288.44" font-family="Times,serif" font-size="14.00">$mul</text>
<polyline fill="none" stroke="black" points="1630.34,-277.24 1630.34,-326.24"/>
<text text-anchor="middle" x="1643.22" y="-296.94" font-family="Times,serif" font-size="14.00">Y</text>
</g>
<!-- c34 -->
<g id="node31" class="node">
<title>c34</title>
<polygon fill="none" stroke="black" points="1692.09,-228.24 1692.09,-277.24 1779.84,-277.24 1779.84,-228.24 1692.09,-228.24"/>
<text text-anchor="middle" x="1704.97" y="-259.94" font-family="Times,serif" font-size="14.00">A</text>
<polyline fill="none" stroke="black" points="1692.09,-252.74 1717.84,-252.74"/>
<text text-anchor="middle" x="1704.97" y="-235.44" font-family="Times,serif" font-size="14.00">B</text>
<polyline fill="none" stroke="black" points="1717.84,-228.24 1717.84,-277.24"/>
<text text-anchor="middle" x="1735.97" y="-255.94" font-family="Times,serif" font-size="14.00">$14</text>
<text text-anchor="middle" x="1735.97" y="-239.44" font-family="Times,serif" font-size="14.00">$or</text>
<polyline fill="none" stroke="black" points="1754.09,-228.24 1754.09,-277.24"/>
<text text-anchor="middle" x="1766.97" y="-247.94" font-family="Times,serif" font-size="14.00">Y</text>
</g>
<!-- c31&#45;&gt;c34 -->
<g id="edge50" class="edge">
<title>c31:e&#45;&gt;c34:w</title>
<path fill="none" stroke="black" stroke-width="3" d="M1656.09,-301.99C1674.38,-301.99 1671.81,-278.49 1681.63,-268.95"/>
<polygon fill="black" stroke="black" stroke-width="3" points="1679.73,-273.41 1687.85,-266.59 1677.25,-266.86 1679.73,-273.41"/>
</g>
<!-- x8&#45;&gt;c31 -->
<g id="edge9" class="edge">
<title>x8:e&#45;&gt;c31:w</title>
<path fill="none" stroke="black" stroke-width="3" d="M1525.12,-350.98C1535.56,-343.25 1537.31,-325.67 1547.66,-317.86"/>
<polygon fill="none" stroke="black" stroke-width="3" points="1526.9,-350.43 1522.34,-356.01 1515.43,-353.95 1519.99,-348.36 1526.9,-350.43"/>
<polygon fill="none" stroke="black" stroke-width="3" points="1546.05,-318.36 1550.59,-312.76 1557.51,-314.79 1552.97,-320.39 1546.05,-318.36"/>
</g>
<!-- x9&#45;&gt;c31 -->
<g id="edge10" class="edge">
<title>x9:e&#45;&gt;c31:w</title>
<path fill="none" stroke="black" stroke-width="3" d="M1405.83,-269.95C1465.89,-271.92 1487.04,-287.3 1547.1,-289.28"/>
<polygon fill="none" stroke="black" stroke-width="3" points="1407.55,-269.97 1401.48,-273.88 1395.55,-269.78 1401.61,-265.88 1407.55,-269.97"/>
<polygon fill="none" stroke="black" stroke-width="3" points="1545.39,-289.25 1551.45,-285.35 1557.39,-289.44 1551.33,-293.35 1545.39,-289.25"/>
</g>
<!-- c32&#45;&gt;c21 -->
<g id="edge17" class="edge">
<title>c32:e&#45;&gt;c21:w</title>
<path fill="none" stroke="black" stroke-width="3" d="M236.84,-271.99C248.22,-271.99 253.53,-271.73 261.39,-271.59"/>
<polygon fill="black" stroke="black" stroke-width="3" points="258.33,-275.12 268.3,-271.53 258.27,-268.12 258.33,-275.12"/>
</g>
<!-- c33 -->
<g id="node29" class="node">
<title>c33</title>
<polygon fill="none" stroke="black" points="1432.59,-220.24 1432.59,-261.24 1524.09,-261.24 1524.09,-220.24 1432.59,-220.24"/>
<text text-anchor="middle" x="1445.47" y="-235.94" font-family="Times,serif" font-size="14.00">A</text>
<polyline fill="none" stroke="black" points="1458.34,-220.24 1458.34,-261.24"/>
<text text-anchor="middle" x="1478.34" y="-243.94" font-family="Times,serif" font-size="14.00">$13</text>
<text text-anchor="middle" x="1478.34" y="-227.44" font-family="Times,serif" font-size="14.00">$not</text>
<polyline fill="none" stroke="black" points="1498.34,-220.24 1498.34,-261.24"/>
<text text-anchor="middle" x="1511.22" y="-235.94" font-family="Times,serif" font-size="14.00">Y</text>
</g>
<!-- c33&#45;&gt;c34 -->
<g id="edge51" class="edge">
<title>c33:e&#45;&gt;c34:w</title>
<path fill="none" stroke="black" stroke-width="3" d="M1524.09,-240.99C1594.82,-240.99 1615.3,-240.54 1680.73,-240.49"/>
<polygon fill="black" stroke="black" stroke-width="3" points="1677.55,-243.99 1687.55,-240.49 1677.55,-236.99 1677.55,-243.99"/>
</g>
<!-- x10&#45;&gt;c33 -->
<g id="edge11" class="edge">
<title>x10:e&#45;&gt;c33:w</title>
<path fill="none" stroke="black" stroke-width="3" d="M1275.36,-224.9C1336.73,-226.48 1358.42,-239.24 1419.77,-240.83"/>
<polygon fill="none" stroke="black" stroke-width="3" points="1277.3,-224.92 1271.25,-228.85 1265.3,-224.77 1271.35,-220.85 1277.3,-224.92"/>
<polygon fill="none" stroke="black" stroke-width="3" points="1417.89,-240.8 1423.94,-236.88 1429.89,-240.95 1423.84,-244.88 1417.89,-240.8"/>
</g>
<!-- x11 -->
<g id="node32" class="node">
<title>x11</title>
<path fill="none" stroke="black" d="M1831.22,-228.74C1831.22,-228.74 1869.72,-228.74 1869.72,-228.74 1875.72,-228.74 1881.72,-234.74 1881.72,-240.74 1881.72,-240.74 1881.72,-252.74 1881.72,-252.74 1881.72,-258.74 1875.72,-264.74 1869.72,-264.74 1869.72,-264.74 1831.22,-264.74 1831.22,-264.74 1825.22,-264.74 1819.22,-258.74 1819.22,-252.74 1819.22,-252.74 1819.22,-240.74 1819.22,-240.74 1819.22,-234.74 1825.22,-228.74 1831.22,-228.74"/>
<text text-anchor="middle" x="1850.47" y="-241.94" font-family="Times,serif" font-size="14.00">4:0 &#45; 4:0</text>
</g>
<!-- c34&#45;&gt;x11 -->
<g id="edge12" class="edge">
<title>c34:e&#45;&gt;x11:w</title>
<path fill="none" stroke="black" stroke-width="3" d="M1792.65,-251.6C1797.18,-250.56 1800.9,-249.16 1805.43,-248.12"/>
<polygon fill="none" stroke="black" stroke-width="3" points="1794.46,-251.4 1788.93,-256.03 1782.53,-252.7 1788.07,-248.07 1794.46,-251.4"/>
<polygon fill="none" stroke="black" stroke-width="3" points="1803.6,-248.32 1809.13,-243.7 1815.53,-247.03 1809.99,-251.65 1803.6,-248.32"/>
</g>
<!-- x12 -->
<g id="node34" class="node">
<title>x12</title>
<path fill="none" stroke="black" d="M1933.09,-222.74C1933.09,-222.74 1971.59,-222.74 1971.59,-222.74 1977.59,-222.74 1983.59,-228.74 1983.59,-234.74 1983.59,-234.74 1983.59,-246.74 1983.59,-246.74 1983.59,-252.74 1977.59,-258.74 1971.59,-258.74 1971.59,-258.74 1933.09,-258.74 1933.09,-258.74 1927.09,-258.74 1921.09,-252.74 1921.09,-246.74 1921.09,-246.74 1921.09,-234.74 1921.09,-234.74 1921.09,-228.74 1927.09,-222.74 1933.09,-222.74"/>
<text text-anchor="middle" x="1952.34" y="-235.94" font-family="Times,serif" font-size="14.00">4:0 &#45; 4:0</text>
</g>
<!-- x11&#45;&gt;x12 -->
<g id="edge52" class="edge">
<title>x11:e&#45;&gt;x12:w</title>
<path fill="none" stroke="black" stroke-width="3" d="M1882.72,-246.99C1895.4,-246.99 1900.84,-243.75 1909.67,-242.03"/>
<polygon fill="black" stroke="black" stroke-width="3" points="1906.93,-245.8 1916.57,-241.4 1906.29,-238.83 1906.93,-245.8"/>
</g>
<!-- c35 -->
<g id="node33" class="node">
<title>c35</title>
<polygon fill="none" stroke="black" points="2019.59,-170.24 2019.59,-219.24 2107.34,-219.24 2107.34,-170.24 2019.59,-170.24"/>
<text text-anchor="middle" x="2032.47" y="-201.94" font-family="Times,serif" font-size="14.00">A</text>
<polyline fill="none" stroke="black" points="2019.59,-194.74 2045.34,-194.74"/>
<text text-anchor="middle" x="2032.47" y="-177.44" font-family="Times,serif" font-size="14.00">B</text>
<polyline fill="none" stroke="black" points="2045.34,-170.24 2045.34,-219.24"/>
<text text-anchor="middle" x="2063.47" y="-197.94" font-family="Times,serif" font-size="14.00">$15</text>
<text text-anchor="middle" x="2063.47" y="-181.44" font-family="Times,serif" font-size="14.00">$or</text>
<polyline fill="none" stroke="black" points="2081.59,-170.24 2081.59,-219.24"/>
<text text-anchor="middle" x="2094.47" y="-189.94" font-family="Times,serif" font-size="14.00">Y</text>
</g>
<!-- c35&#45;&gt;n16 -->
<g id="edge38" class="edge">
<title>c35:e&#45;&gt;n16:w</title>
<path fill="none" stroke="black" stroke-width="3" d="M2107.34,-194.99C2118.74,-194.99 2124.02,-193.85 2131.89,-193.19"/>
<polygon fill="black" stroke="black" stroke-width="3" points="2128.95,-196.81 2138.81,-192.92 2128.67,-189.82 2128.95,-196.81"/>
</g>
<!-- x12&#45;&gt;c35 -->
<g id="edge13" class="edge">
<title>x12:e&#45;&gt;c35:w</title>
<path fill="none" stroke="black" stroke-width="3" d="M1995.39,-235.46C2000.81,-229.09 2002.45,-218.42 2007.93,-212.11"/>
<polygon fill="none" stroke="black" stroke-width="3" points="1997.02,-234.73 1993.17,-240.84 1986.06,-239.63 1989.91,-233.53 1997.02,-234.73"/>
<polygon fill="none" stroke="black" stroke-width="3" points="2006.13,-212.9 2010.02,-206.83 2017.12,-208.08 2013.23,-214.15 2006.13,-212.9"/>
</g>
<!-- x13&#45;&gt;c35 -->
<g id="edge14" class="edge">
<title>x13:e&#45;&gt;c35:w</title>
<path fill="none" stroke="black" stroke-width="3" d="M1523.59,-182.74C1612.71,-182.74 1639.73,-182.74 1734.97,-182.74 1734.97,-182.74 1734.97,-182.74 1851.47,-182.74 1921.67,-182.74 1942.4,-182.52 2006.61,-182.49"/>
<polygon fill="none" stroke="black" stroke-width="3" points="1525.3,-182.74 1519.3,-186.74 1513.3,-182.74 1519.3,-178.74 1525.3,-182.74"/>
<polygon fill="none" stroke="black" stroke-width="3" points="2004.89,-182.49 2010.89,-178.49 2016.89,-182.49 2010.89,-186.49 2004.89,-182.49"/>
</g>
<!-- c36&#45;&gt;c21 -->
<g id="edge18" class="edge">
<title>c36:e&#45;&gt;c21:w</title>
<path fill="none" stroke="black" stroke-width="3" d="M236.84,-335.99C256.09,-335.99 252.18,-310.09 262.39,-299.97"/>
<polygon fill="black" stroke="black" stroke-width="3" points="260.5,-304.43 268.6,-297.6 258.01,-297.89 260.5,-304.43"/>
</g>
<!-- x15 -->
<g id="node38" class="node">
<title>x15</title>
<path fill="none" stroke="black" d="M1827.84,-69.74C1827.84,-69.74 1873.09,-69.74 1873.09,-69.74 1879.09,-69.74 1885.09,-75.74 1885.09,-81.74 1885.09,-81.74 1885.09,-93.74 1885.09,-93.74 1885.09,-99.74 1879.09,-105.74 1873.09,-105.74 1873.09,-105.74 1827.84,-105.74 1827.84,-105.74 1821.84,-105.74 1815.84,-99.74 1815.84,-93.74 1815.84,-93.74 1815.84,-81.74 1815.84,-81.74 1815.84,-75.74 1821.84,-69.74 1827.84,-69.74"/>
<text text-anchor="middle" x="1850.47" y="-82.94" font-family="Times,serif" font-size="14.00">9:0 &#45; 14:5</text>
</g>
<!-- x14&#45;&gt;x15 -->
<g id="edge15" class="edge">
<title>x14:e&#45;&gt;x15:w</title>
<path fill="none" stroke="black" stroke-width="3" d="M772.82,-86.74C851.72,-86.74 876.03,-86.74 960.84,-86.74 960.84,-86.74 960.84,-86.74 1609.09,-86.74 1696.5,-86.74 1721.55,-87.64 1802.86,-87.73"/>
<polygon fill="none" stroke="black" stroke-width="3" points="774.92,-86.74 768.92,-90.74 762.92,-86.74 768.92,-82.74 774.92,-86.74"/>
<polygon fill="none" stroke="black" stroke-width="3" points="1801.14,-87.73 1807.14,-83.73 1813.14,-87.74 1807.14,-91.73 1801.14,-87.73"/>
</g>
<!-- x15&#45;&gt;n17 -->
<g id="edge40" class="edge">
<title>x15:e&#45;&gt;n17:w</title>
<path fill="none" stroke="black" stroke-width="3" d="M1885.09,-87.99C1963.94,-87.99 1983.62,-91.74 2062.47,-91.74 2062.47,-91.74 2062.47,-91.74 2465.22,-91.74 2542.26,-91.74 2562.65,-115.26 2634.16,-117.56"/>
<polygon fill="black" stroke="black" stroke-width="3" points="2631,-121.01 2641.05,-117.67 2631.11,-114.01 2631,-121.01"/>
</g>
<!-- n4&#45;&gt;x4 -->
<g id="edge46" class="edge">
<title>n4:e&#45;&gt;x4:w</title>
<path fill="none" stroke="black" stroke-width="3" d="M1104.37,-415.74C1141.96,-415.74 1154.11,-415.94 1186.73,-415.98"/>
<polygon fill="black" stroke="black" stroke-width="3" points="1183.55,-419.48 1193.55,-415.98 1183.55,-412.48 1183.55,-419.48"/>
</g>
<!-- n4&#45;&gt;x8 -->
<g id="edge47" class="edge">
<title>n4:e&#45;&gt;x8:w</title>
<path fill="none" stroke="black" stroke-width="3" d="M1104.37,-415.74C1157.82,-415.74 1142.61,-353.32 1192.34,-333.74 1208.05,-327.55 1360.65,-328.49 1396.59,-335.74 1414.45,-339.34 1419.51,-349.45 1432.6,-353.26"/>
<polygon fill="black" stroke="black" stroke-width="3" points="1428.97,-356.31 1439.34,-354.15 1429.88,-349.37 1428.97,-356.31"/>
</g>
</g>
</svg>
