<?xml version="1.0" encoding="UTF-8" standalone="no"?>
<!DOCTYPE svg PUBLIC "-//W3C//DTD SVG 1.1//EN"
 "http://www.w3.org/Graphics/SVG/1.1/DTD/svg11.dtd">
<!-- Generated by graphviz version 12.2.1 (20241206.2353)
 -->
<!-- Title: top Pages: 1 -->
<svg width="586pt" height="123pt"
 viewBox="0.00 0.00 585.61 122.50" xmlns="http://www.w3.org/2000/svg" xmlns:xlink="http://www.w3.org/1999/xlink">
<g id="graph0" class="graph" transform="scale(1 1) rotate(0) translate(4 118.5)">
<title>top</title>
<polygon fill="white" stroke="none" points="-4,4 -4,-118.5 581.61,-118.5 581.61,4 -4,4"/>
<text text-anchor="middle" x="288.8" y="-7.2" font-family="Times,serif" font-size="14.00">top</text>
<!-- n1 -->
<g id="node1" class="node">
<title>n1</title>
<polygon fill="none" stroke="black" points="246.02,-35.04 246.02,-49.96 214.43,-60.5 169.76,-60.5 138.18,-49.96 138.18,-35.04 169.76,-24.5 214.43,-24.5 246.02,-35.04"/>
<text text-anchor="middle" x="192.1" y="-37.45" font-family="Times,serif" font-size="14.00">input_data</text>
</g>
<!-- n2 -->
<g id="node2" class="node">
<title>n2</title>
<polygon fill="none" stroke="black" points="577.61,-89.04 577.61,-103.96 543.1,-114.5 494.3,-114.5 459.8,-103.96 459.8,-89.04 494.3,-78.5 543.1,-78.5 577.61,-89.04"/>
<text text-anchor="middle" x="518.7" y="-91.45" font-family="Times,serif" font-size="14.00">output_data</text>
</g>
<!-- v0 -->
<g id="node3" class="node">
<title>v0</title>
<ellipse fill="none" stroke="black" cx="192.1" cy="-96.5" rx="192.1" ry="18"/>
<text text-anchor="middle" x="192.1" y="-91.45" font-family="Times,serif" font-size="14.00">37&#39;0000000000000000000000000000000000000</text>
</g>
<!-- x1 -->
<g id="node4" class="node">
<title>x1</title>
<ellipse fill="black" stroke="black" cx="422" cy="-96.5" rx="1.8" ry="1.8"/>
</g>
<!-- v0&#45;&gt;x1 -->
<g id="edge2" class="edge">
<title>v0:e&#45;&gt;x1:w</title>
<path fill="none" stroke="black" stroke-width="3" d="M384.2,-96.5C395.57,-96.5 400.88,-96.5 408.75,-96.5"/>
<polygon fill="black" stroke="black" stroke-width="3" points="405.66,-100 415.66,-96.5 405.66,-93 405.66,-100"/>
</g>
<!-- x1&#45;&gt;n2 -->
<g id="edge1" class="edge">
<title>x1:e&#45;&gt;n2:w</title>
<path fill="none" stroke="black" stroke-width="3" d="M423.8,-96.5C435.17,-96.5 440.48,-96.5 448.35,-96.5"/>
<polygon fill="black" stroke="black" stroke-width="3" points="445.26,-100 455.26,-96.5 445.26,-93 445.26,-100"/>
</g>
</g>
</svg>
