<?xml version="1.0" encoding="UTF-8" standalone="no"?>
<!DOCTYPE svg PUBLIC "-//W3C//DTD SVG 1.1//EN"
 "http://www.w3.org/Graphics/SVG/1.1/DTD/svg11.dtd">
<!-- Generated by graphviz version 12.2.1 (20241206.2353)
 -->
<!-- Title: top Pages: 1 -->
<svg width="4155pt" height="712pt"
 viewBox="0.00 0.00 4155.41 711.50" xmlns="http://www.w3.org/2000/svg" xmlns:xlink="http://www.w3.org/1999/xlink">
<g id="graph0" class="graph" transform="scale(1 1) rotate(0) translate(4 707.5)">
<title>top</title>
<polygon fill="white" stroke="none" points="-4,4 -4,-707.5 4151.41,-707.5 4151.41,4 -4,4"/>
<text text-anchor="middle" x="2073.71" y="-7.2" font-family="Times,serif" font-size="14.00">top</text>
<!-- n15 -->
<g id="node1" class="node">
<title>n15</title>
<polygon fill="none" stroke="black" points="2848.3,-558.5 2764.09,-540.5 2848.3,-522.5 2932.5,-540.5 2848.3,-558.5"/>
<text text-anchor="middle" x="2848.3" y="-535.45" font-family="Times,serif" font-size="14.00">expr_585410</text>
</g>
<!-- c28 -->
<g id="node15" class="node">
<title>c28</title>
<polygon fill="none" stroke="black" points="3899.85,-462 3899.85,-511 3993.6,-511 3993.6,-462 3899.85,-462"/>
<text text-anchor="middle" x="3912.73" y="-493.7" font-family="Times,serif" font-size="14.00">A</text>
<polyline fill="none" stroke="black" points="3899.85,-486.5 3925.6,-486.5"/>
<text text-anchor="middle" x="3912.73" y="-469.2" font-family="Times,serif" font-size="14.00">B</text>
<polyline fill="none" stroke="black" points="3925.6,-462 3925.6,-511"/>
<text text-anchor="middle" x="3946.73" y="-489.7" font-family="Times,serif" font-size="14.00">$65</text>
<text text-anchor="middle" x="3946.73" y="-473.2" font-family="Times,serif" font-size="14.00">$and</text>
<polyline fill="none" stroke="black" points="3967.85,-462 3967.85,-511"/>
<text text-anchor="middle" x="3980.73" y="-481.7" font-family="Times,serif" font-size="14.00">Y</text>
</g>
<!-- n15&#45;&gt;c28 -->
<g id="edge37" class="edge">
<title>n15:e&#45;&gt;c28:w</title>
<path fill="none" stroke="black" stroke-width="3" d="M2932.5,-540.5C3019.69,-540.5 3040.56,-521.5 3127.75,-521.5 3127.75,-521.5 3127.75,-521.5 3764.55,-521.5 3821.6,-521.5 3836.95,-501.59 3888.63,-499.02"/>
<polygon fill="black" stroke="black" stroke-width="3" points="3885.4,-502.6 3895.31,-498.86 3885.23,-495.6 3885.4,-502.6"/>
</g>
<!-- n16 -->
<g id="node2" class="node">
<title>n16</title>
<polygon fill="none" stroke="black" points="107.84,-357.04 107.84,-371.96 76.26,-382.5 31.59,-382.5 0,-371.96 0,-357.04 31.59,-346.5 76.26,-346.5 107.84,-357.04"/>
<text text-anchor="middle" x="53.92" y="-359.45" font-family="Times,serif" font-size="14.00">input_data</text>
</g>
<!-- c25 -->
<g id="node8" class="node">
<title>c25</title>
<polygon fill="none" stroke="black" points="143.84,-308 143.84,-357 237.59,-357 237.59,-308 143.84,-308"/>
<text text-anchor="middle" x="156.72" y="-339.7" font-family="Times,serif" font-size="14.00">A</text>
<polyline fill="none" stroke="black" points="143.84,-332.5 169.59,-332.5"/>
<text text-anchor="middle" x="156.72" y="-315.2" font-family="Times,serif" font-size="14.00">B</text>
<polyline fill="none" stroke="black" points="169.59,-308 169.59,-357"/>
<text text-anchor="middle" x="190.72" y="-335.7" font-family="Times,serif" font-size="14.00">$1</text>
<text text-anchor="middle" x="190.72" y="-319.2" font-family="Times,serif" font-size="14.00">$add</text>
<polyline fill="none" stroke="black" points="211.84,-308 211.84,-357"/>
<text text-anchor="middle" x="224.72" y="-327.7" font-family="Times,serif" font-size="14.00">Y</text>
</g>
<!-- n16&#45;&gt;c25 -->
<g id="edge38" class="edge">
<title>n16:e&#45;&gt;c25:w</title>
<path fill="none" stroke="black" stroke-width="3" d="M107.84,-364.5C121.39,-364.5 124.6,-353.62 132.82,-348.01"/>
<polygon fill="black" stroke="black" stroke-width="3" points="130.89,-352.23 139.49,-346.04 128.9,-345.52 130.89,-352.23"/>
</g>
<!-- n16&#45;&gt;c25 -->
<g id="edge39" class="edge">
<title>n16:e&#45;&gt;c25:w</title>
<path fill="none" stroke="black" stroke-width="3" d="M107.84,-364.5C128.44,-364.5 122.59,-335.29 133.28,-324.33"/>
<polygon fill="black" stroke="black" stroke-width="3" points="131.54,-328.76 139.61,-321.89 129.02,-322.23 131.54,-328.76"/>
</g>
<!-- x2 -->
<g id="node13" class="node">
<title>x2</title>
<path fill="none" stroke="black" d="M171.47,-599.5C171.47,-599.5 209.97,-599.5 209.97,-599.5 215.97,-599.5 221.97,-605.5 221.97,-611.5 221.97,-611.5 221.97,-623.5 221.97,-623.5 221.97,-629.5 215.97,-635.5 209.97,-635.5 209.97,-635.5 171.47,-635.5 171.47,-635.5 165.47,-635.5 159.47,-629.5 159.47,-623.5 159.47,-623.5 159.47,-611.5 159.47,-611.5 159.47,-605.5 165.47,-599.5 171.47,-599.5"/>
<text text-anchor="middle" x="190.72" y="-612.7" font-family="Times,serif" font-size="14.00">4:0 &#45; 4:0</text>
</g>
<!-- n16&#45;&gt;x2 -->
<g id="edge46" class="edge">
<title>n16:e&#45;&gt;x2:w</title>
<path fill="none" stroke="black" stroke-width="3" d="M107.84,-364.5C161.2,-364.5 109.5,-583.39 148.08,-614.17"/>
<polygon fill="black" stroke="black" stroke-width="3" points="143.58,-616.32 154.17,-616.27 145.86,-609.7 143.58,-616.32"/>
</g>
<!-- x3 -->
<g id="node14" class="node">
<title>x3</title>
<path fill="none" stroke="black" d="M171.47,-544.5C171.47,-544.5 209.97,-544.5 209.97,-544.5 215.97,-544.5 221.97,-550.5 221.97,-556.5 221.97,-556.5 221.97,-568.5 221.97,-568.5 221.97,-574.5 215.97,-580.5 209.97,-580.5 209.97,-580.5 171.47,-580.5 171.47,-580.5 165.47,-580.5 159.47,-574.5 159.47,-568.5 159.47,-568.5 159.47,-556.5 159.47,-556.5 159.47,-550.5 165.47,-544.5 171.47,-544.5"/>
<text text-anchor="middle" x="190.72" y="-557.7" font-family="Times,serif" font-size="14.00">4:0 &#45; 4:0</text>
</g>
<!-- n16&#45;&gt;x3 -->
<g id="edge47" class="edge">
<title>n16:e&#45;&gt;x3:w</title>
<path fill="none" stroke="black" stroke-width="3" d="M107.84,-364.5C194.52,-364.5 79.34,-544.6 147.1,-561.48"/>
<polygon fill="black" stroke="black" stroke-width="3" points="143.63,-564.62 153.95,-562.25 144.4,-557.66 143.63,-564.62"/>
</g>
<!-- c29 -->
<g id="node17" class="node">
<title>c29</title>
<polygon fill="none" stroke="black" points="1251.34,-346 1251.34,-395 1339.09,-395 1339.09,-346 1251.34,-346"/>
<text text-anchor="middle" x="1264.22" y="-377.7" font-family="Times,serif" font-size="14.00">A</text>
<polyline fill="none" stroke="black" points="1251.34,-370.5 1277.09,-370.5"/>
<text text-anchor="middle" x="1264.22" y="-353.2" font-family="Times,serif" font-size="14.00">B</text>
<polyline fill="none" stroke="black" points="1277.09,-346 1277.09,-395"/>
<text text-anchor="middle" x="1295.22" y="-373.7" font-family="Times,serif" font-size="14.00">$79</text>
<text text-anchor="middle" x="1295.22" y="-357.2" font-family="Times,serif" font-size="14.00">$or</text>
<polyline fill="none" stroke="black" points="1313.34,-346 1313.34,-395"/>
<text text-anchor="middle" x="1326.22" y="-365.7" font-family="Times,serif" font-size="14.00">Y</text>
</g>
<!-- n16&#45;&gt;c29 -->
<g id="edge40" class="edge">
<title>n16:e&#45;&gt;c29:w</title>
<path fill="none" stroke="black" stroke-width="3" d="M107.84,-364.5C155.1,-364.5 272.21,-385.5 319.47,-385.5 319.47,-385.5 319.47,-385.5 1086.59,-385.5 1155.96,-385.5 1176.03,-383.03 1240.2,-382.77"/>
<polygon fill="black" stroke="black" stroke-width="3" points="1236.81,-386.28 1246.8,-382.76 1236.8,-379.28 1236.81,-386.28"/>
</g>
<!-- c30 -->
<g id="node19" class="node">
<title>c30</title>
<polygon fill="none" stroke="black" points="412.84,-103 412.84,-144 504.34,-144 504.34,-103 412.84,-103"/>
<text text-anchor="middle" x="425.72" y="-118.7" font-family="Times,serif" font-size="14.00">A</text>
<polyline fill="none" stroke="black" points="438.59,-103 438.59,-144"/>
<text text-anchor="middle" x="458.59" y="-126.7" font-family="Times,serif" font-size="14.00">$82</text>
<text text-anchor="middle" x="458.59" y="-110.2" font-family="Times,serif" font-size="14.00">$not</text>
<polyline fill="none" stroke="black" points="478.59,-103 478.59,-144"/>
<text text-anchor="middle" x="491.47" y="-118.7" font-family="Times,serif" font-size="14.00">Y</text>
</g>
<!-- n16&#45;&gt;c30 -->
<g id="edge41" class="edge">
<title>n16:e&#45;&gt;c30:w</title>
<path fill="none" stroke="black" stroke-width="3" d="M107.84,-364.5C151.75,-364.5 114.94,-305.55 143.84,-272.5 230.98,-172.86 273.19,-126.41 400.49,-123.86"/>
<polygon fill="black" stroke="black" stroke-width="3" points="397.34,-127.39 407.3,-123.79 397.27,-120.39 397.34,-127.39"/>
</g>
<!-- c31 -->
<g id="node20" class="node">
<title>c31</title>
<polygon fill="none" stroke="black" points="2135.09,-506 2135.09,-555 2222.84,-555 2222.84,-506 2135.09,-506"/>
<text text-anchor="middle" x="2147.97" y="-537.7" font-family="Times,serif" font-size="14.00">A</text>
<polyline fill="none" stroke="black" points="2135.09,-530.5 2160.84,-530.5"/>
<text text-anchor="middle" x="2147.97" y="-513.2" font-family="Times,serif" font-size="14.00">B</text>
<polyline fill="none" stroke="black" points="2160.84,-506 2160.84,-555"/>
<text text-anchor="middle" x="2178.97" y="-533.7" font-family="Times,serif" font-size="14.00">$86</text>
<text text-anchor="middle" x="2178.97" y="-517.2" font-family="Times,serif" font-size="14.00">$or</text>
<polyline fill="none" stroke="black" points="2197.09,-506 2197.09,-555"/>
<text text-anchor="middle" x="2209.97" y="-525.7" font-family="Times,serif" font-size="14.00">Y</text>
</g>
<!-- n16&#45;&gt;c31 -->
<g id="edge42" class="edge">
<title>n16:e&#45;&gt;c31:w</title>
<path fill="none" stroke="black" stroke-width="3" d="M107.84,-364.5C166.51,-364.5 99.55,-453.03 143.84,-491.5 203.32,-543.16 240.68,-515.5 319.47,-515.5 319.47,-515.5 319.47,-515.5 1899.84,-515.5 2000.1,-515.5 2027.94,-518.05 2122.82,-518.24"/>
<polygon fill="black" stroke="black" stroke-width="3" points="2119.55,-521.74 2129.55,-518.25 2119.56,-514.74 2119.55,-521.74"/>
</g>
<!-- c34 -->
<g id="node26" class="node">
<title>c34</title>
<polygon fill="none" stroke="black" points="549.84,-30 549.84,-79 645.84,-79 645.84,-30 549.84,-30"/>
<text text-anchor="middle" x="562.72" y="-61.7" font-family="Times,serif" font-size="14.00">A</text>
<polyline fill="none" stroke="black" points="549.84,-54.5 575.59,-54.5"/>
<text text-anchor="middle" x="562.72" y="-37.2" font-family="Times,serif" font-size="14.00">B</text>
<polyline fill="none" stroke="black" points="575.59,-30 575.59,-79"/>
<text text-anchor="middle" x="597.84" y="-57.7" font-family="Times,serif" font-size="14.00">$11</text>
<text text-anchor="middle" x="597.84" y="-41.2" font-family="Times,serif" font-size="14.00">$mul</text>
<polyline fill="none" stroke="black" points="620.09,-30 620.09,-79"/>
<text text-anchor="middle" x="632.97" y="-49.7" font-family="Times,serif" font-size="14.00">Y</text>
</g>
<!-- n16&#45;&gt;c34 -->
<g id="edge43" class="edge">
<title>n16:e&#45;&gt;c34:w</title>
<path fill="none" stroke="black" stroke-width="3" d="M107.84,-364.5C193.79,-364.5 89.24,-240.87 143.84,-174.5 188.27,-120.5 448.79,-48.87 538.58,-42.68"/>
<polygon fill="black" stroke="black" stroke-width="3" points="535.45,-46.3 545.3,-42.42 535.18,-39.31 535.45,-46.3"/>
</g>
<!-- c35 -->
<g id="node27" class="node">
<title>c35</title>
<polygon fill="none" stroke="black" points="2403.84,-468 2403.84,-517 2499.84,-517 2499.84,-468 2403.84,-468"/>
<text text-anchor="middle" x="2416.72" y="-499.7" font-family="Times,serif" font-size="14.00">A</text>
<polyline fill="none" stroke="black" points="2403.84,-492.5 2429.59,-492.5"/>
<text text-anchor="middle" x="2416.72" y="-475.2" font-family="Times,serif" font-size="14.00">B</text>
<polyline fill="none" stroke="black" points="2429.59,-468 2429.59,-517"/>
<text text-anchor="middle" x="2451.84" y="-495.7" font-family="Times,serif" font-size="14.00">$13</text>
<text text-anchor="middle" x="2451.84" y="-479.2" font-family="Times,serif" font-size="14.00">$mul</text>
<polyline fill="none" stroke="black" points="2474.09,-468 2474.09,-517"/>
<text text-anchor="middle" x="2486.97" y="-487.7" font-family="Times,serif" font-size="14.00">Y</text>
</g>
<!-- n16&#45;&gt;c35 -->
<g id="edge44" class="edge">
<title>n16:e&#45;&gt;c35:w</title>
<path fill="none" stroke="black" stroke-width="3" d="M107.84,-364.5C126.59,-364.5 127.51,-377.29 143.84,-386.5 220.42,-429.67 231.55,-477.5 319.47,-477.5 319.47,-477.5 319.47,-477.5 1407.34,-477.5 1717.88,-477.5 1787.71,-619.89 2096.84,-590.5 2218.94,-578.89 2266.86,-608.09 2367.84,-538.5 2388.99,-523.93 2378.41,-492.48 2392.87,-483"/>
<polygon fill="black" stroke="black" stroke-width="3" points="2390.59,-487.19 2399.44,-481.36 2388.89,-480.4 2390.59,-487.19"/>
</g>
<!-- c38 -->
<g id="node35" class="node">
<title>c38</title>
<polygon fill="none" stroke="black" points="273.97,-267 273.97,-316 366.97,-316 366.97,-267 273.97,-267"/>
<text text-anchor="middle" x="286.84" y="-298.7" font-family="Times,serif" font-size="14.00">A</text>
<polyline fill="none" stroke="black" points="273.97,-291.5 299.72,-291.5"/>
<text text-anchor="middle" x="286.84" y="-274.2" font-family="Times,serif" font-size="14.00">B</text>
<polyline fill="none" stroke="black" points="299.72,-267 299.72,-316"/>
<text text-anchor="middle" x="320.47" y="-294.7" font-family="Times,serif" font-size="14.00">$2</text>
<text text-anchor="middle" x="320.47" y="-278.2" font-family="Times,serif" font-size="14.00">$sub</text>
<polyline fill="none" stroke="black" points="341.22,-267 341.22,-316"/>
<text text-anchor="middle" x="354.09" y="-286.7" font-family="Times,serif" font-size="14.00">Y</text>
</g>
<!-- n16&#45;&gt;c38 -->
<g id="edge45" class="edge">
<title>n16:e&#45;&gt;c38:w</title>
<path fill="none" stroke="black" stroke-width="3" d="M107.84,-364.5C141.25,-364.5 116.44,-317.62 143.84,-298.5 188.38,-267.41 211.95,-277.54 262.1,-279.07"/>
<polygon fill="black" stroke="black" stroke-width="3" points="259,-282.52 269.05,-279.18 259.11,-275.52 259,-282.52"/>
</g>
<!-- n17 -->
<g id="node3" class="node">
<title>n17</title>
<polygon fill="none" stroke="black" points="4147.41,-479.04 4147.41,-493.96 4112.91,-504.5 4064.11,-504.5 4029.6,-493.96 4029.6,-479.04 4064.11,-468.5 4112.91,-468.5 4147.41,-479.04"/>
<text text-anchor="middle" x="4088.51" y="-481.45" font-family="Times,serif" font-size="14.00">output_data</text>
</g>
<!-- n18 -->
<g id="node4" class="node">
<title>n18</title>
<polygon fill="none" stroke="black" points="458.59,-231.5 403.34,-213.5 458.59,-195.5 513.84,-213.5 458.59,-231.5"/>
<text text-anchor="middle" x="458.59" y="-208.45" font-family="Times,serif" font-size="14.00">temp_0</text>
</g>
<!-- n18&#45;&gt;c34 -->
<g id="edge50" class="edge">
<title>n18:e&#45;&gt;c34:w</title>
<path fill="none" stroke="black" stroke-width="3" d="M513.84,-213.5C576.54,-213.5 495.01,-85.59 538.56,-68.61"/>
<polygon fill="black" stroke="black" stroke-width="3" points="536.06,-72.56 545.36,-67.49 534.93,-65.66 536.06,-72.56"/>
</g>
<!-- c36 -->
<g id="node29" class="node">
<title>c36</title>
<polygon fill="none" stroke="black" points="552.09,-244 552.09,-285 643.59,-285 643.59,-244 552.09,-244"/>
<text text-anchor="middle" x="564.97" y="-259.7" font-family="Times,serif" font-size="14.00">A</text>
<polyline fill="none" stroke="black" points="577.84,-244 577.84,-285"/>
<text text-anchor="middle" x="597.84" y="-267.7" font-family="Times,serif" font-size="14.00">$3</text>
<text text-anchor="middle" x="597.84" y="-251.2" font-family="Times,serif" font-size="14.00">$not</text>
<polyline fill="none" stroke="black" points="617.84,-244 617.84,-285"/>
<text text-anchor="middle" x="630.72" y="-259.7" font-family="Times,serif" font-size="14.00">Y</text>
</g>
<!-- n18&#45;&gt;c36 -->
<g id="edge51" class="edge">
<title>n18:e&#45;&gt;c36:w</title>
<path fill="none" stroke="black" stroke-width="3" d="M513.84,-213.5C537.38,-213.5 527.92,-249.31 540.63,-261.06"/>
<polygon fill="black" stroke="black" stroke-width="3" points="536.21,-263.22 546.81,-263.24 538.54,-256.62 536.21,-263.22"/>
</g>
<!-- c39 -->
<g id="node36" class="node">
<title>c39</title>
<polygon fill="none" stroke="black" points="2536.22,-355 2536.22,-404 2629.22,-404 2629.22,-355 2536.22,-355"/>
<text text-anchor="middle" x="2549.09" y="-386.7" font-family="Times,serif" font-size="14.00">A</text>
<polyline fill="none" stroke="black" points="2536.22,-379.5 2561.97,-379.5"/>
<text text-anchor="middle" x="2549.09" y="-362.2" font-family="Times,serif" font-size="14.00">B</text>
<polyline fill="none" stroke="black" points="2561.97,-355 2561.97,-404"/>
<text text-anchor="middle" x="2582.72" y="-382.7" font-family="Times,serif" font-size="14.00">$14</text>
<text text-anchor="middle" x="2582.72" y="-366.2" font-family="Times,serif" font-size="14.00">$sub</text>
<polyline fill="none" stroke="black" points="2603.47,-355 2603.47,-404"/>
<text text-anchor="middle" x="2616.34" y="-374.7" font-family="Times,serif" font-size="14.00">Y</text>
</g>
<!-- n18&#45;&gt;c39 -->
<g id="edge52" class="edge">
<title>n18:e&#45;&gt;c39:w</title>
<path fill="none" stroke="black" stroke-width="3" d="M513.84,-213.5C565.49,-213.5 684.44,-145.5 736.09,-145.5 736.09,-145.5 736.09,-145.5 2044.47,-145.5 2196.57,-145.5 2231.29,-190.52 2367.84,-257.5 2444.32,-295.01 2446.61,-360.98 2524.36,-366.83"/>
<polygon fill="black" stroke="black" stroke-width="3" points="2521.19,-370.22 2531.31,-367.09 2521.44,-363.22 2521.19,-370.22"/>
</g>
<!-- c41 -->
<g id="node42" class="node">
<title>c41</title>
<polygon fill="none" stroke="black" points="1603.34,-244 1603.34,-293 1695.59,-293 1695.59,-244 1603.34,-244"/>
<text text-anchor="middle" x="1616.22" y="-275.7" font-family="Times,serif" font-size="14.00">A</text>
<polyline fill="none" stroke="black" points="1603.34,-268.5 1629.09,-268.5"/>
<text text-anchor="middle" x="1616.22" y="-251.2" font-family="Times,serif" font-size="14.00">B</text>
<polyline fill="none" stroke="black" points="1629.09,-244 1629.09,-293"/>
<text text-anchor="middle" x="1649.47" y="-271.7" font-family="Times,serif" font-size="14.00">$7</text>
<text text-anchor="middle" x="1649.47" y="-255.2" font-family="Times,serif" font-size="14.00">$xor</text>
<polyline fill="none" stroke="black" points="1669.84,-244 1669.84,-293"/>
<text text-anchor="middle" x="1682.72" y="-263.7" font-family="Times,serif" font-size="14.00">Y</text>
</g>
<!-- n18&#45;&gt;c41 -->
<g id="edge53" class="edge">
<title>n18:e&#45;&gt;c41:w</title>
<path fill="none" stroke="black" stroke-width="3" d="M513.84,-213.5C612.62,-213.5 637.31,-213.5 736.09,-213.5 736.09,-213.5 736.09,-213.5 1407.34,-213.5 1492.67,-213.5 1512.53,-252.66 1592.23,-256.02"/>
<polygon fill="black" stroke="black" stroke-width="3" points="1588.73,-259.45 1598.8,-256.16 1588.88,-252.45 1588.73,-259.45"/>
</g>
<!-- n19 -->
<g id="node5" class="node">
<title>n19</title>
<polygon fill="none" stroke="black" points="1898.84,-385.5 1843.59,-367.5 1898.84,-349.5 1954.09,-367.5 1898.84,-385.5"/>
<text text-anchor="middle" x="1898.84" y="-362.45" font-family="Times,serif" font-size="14.00">temp_1</text>
</g>
<!-- x6 -->
<g id="node21" class="node">
<title>x6</title>
<path fill="none" stroke="black" d="M2024.22,-544.5C2024.22,-544.5 2062.72,-544.5 2062.72,-544.5 2068.72,-544.5 2074.72,-550.5 2074.72,-556.5 2074.72,-556.5 2074.72,-568.5 2074.72,-568.5 2074.72,-574.5 2068.72,-580.5 2062.72,-580.5 2062.72,-580.5 2024.22,-580.5 2024.22,-580.5 2018.22,-580.5 2012.22,-574.5 2012.22,-568.5 2012.22,-568.5 2012.22,-556.5 2012.22,-556.5 2012.22,-550.5 2018.22,-544.5 2024.22,-544.5"/>
<text text-anchor="middle" x="2043.47" y="-557.7" font-family="Times,serif" font-size="14.00">5:0 &#45; 5:0</text>
</g>
<!-- n19&#45;&gt;x6 -->
<g id="edge62" class="edge">
<title>n19:e&#45;&gt;x6:w</title>
<path fill="none" stroke="black" stroke-width="3" d="M1954.09,-367.5C2040.27,-367.5 1931.93,-544.87 1999.87,-561.5"/>
<polygon fill="black" stroke="black" stroke-width="3" points="1996.38,-564.64 2006.71,-562.25 1997.15,-557.68 1996.38,-564.64"/>
</g>
<!-- x9 -->
<g id="node28" class="node">
<title>x9</title>
<path fill="none" stroke="black" d="M2273.09,-480C2273.09,-480 2355.84,-480 2355.84,-480 2361.84,-480 2367.84,-486 2367.84,-492 2367.84,-492 2367.84,-517 2367.84,-517 2367.84,-523 2361.84,-529 2355.84,-529 2355.84,-529 2273.09,-529 2273.09,-529 2267.09,-529 2261.09,-523 2261.09,-517 2261.09,-517 2261.09,-492 2261.09,-492 2261.09,-486 2267.09,-480 2273.09,-480"/>
<text text-anchor="middle" x="2314.47" y="-511.7" font-family="Times,serif" font-size="14.00">20x 25:25 &#45; 25:6</text>
<polyline fill="none" stroke="black" points="2261.09,-504.5 2367.84,-504.5"/>
<text text-anchor="middle" x="2314.47" y="-487.2" font-family="Times,serif" font-size="14.00">5:0 &#45; 5:0</text>
</g>
<!-- n19&#45;&gt;x9 -->
<g id="edge63" class="edge">
<title>n19:e&#45;&gt;x9:w</title>
<path fill="none" stroke="black" stroke-width="3" d="M1954.09,-367.5C1989.47,-367.5 1962.4,-416.48 1990.09,-438.5 2074.3,-505.45 2125.08,-456.88 2225.09,-496.5 2237.76,-501.52 2241.34,-510.24 2249.85,-514.41"/>
<polygon fill="black" stroke="black" stroke-width="3" points="2246.15,-517.21 2256.65,-515.82 2247.57,-510.36 2246.15,-517.21"/>
</g>
<!-- x12 -->
<g id="node33" class="node">
<title>x12</title>
<path fill="none" stroke="black" d="M2008.84,-306C2008.84,-306 2078.09,-306 2078.09,-306 2084.09,-306 2090.09,-312 2090.09,-318 2090.09,-318 2090.09,-343 2090.09,-343 2090.09,-349 2084.09,-355 2078.09,-355 2078.09,-355 2008.84,-355 2008.84,-355 2002.84,-355 1996.84,-349 1996.84,-343 1996.84,-343 1996.84,-318 1996.84,-318 1996.84,-312 2002.84,-306 2008.84,-306"/>
<text text-anchor="middle" x="2043.47" y="-337.7" font-family="Times,serif" font-size="14.00">3x 25:25 &#45; 8:6</text>
<polyline fill="none" stroke="black" points="1996.84,-330.5 2090.09,-330.5"/>
<text text-anchor="middle" x="2043.47" y="-313.2" font-family="Times,serif" font-size="14.00">5:0 &#45; 5:0</text>
</g>
<!-- n19&#45;&gt;x12 -->
<g id="edge57" class="edge">
<title>n19:e&#45;&gt;x12:w</title>
<path fill="none" stroke="black" stroke-width="3" d="M1954.09,-367.5C1978.08,-367.5 1971.09,-333.08 1984.91,-321.79"/>
<polygon fill="black" stroke="black" stroke-width="3" points="1983.09,-326.06 1991.52,-319.65 1980.93,-319.4 1983.09,-326.06"/>
</g>
<!-- n19&#45;&gt;x12 -->
<g id="edge58" class="edge">
<title>n19:e&#45;&gt;x12:w</title>
<path fill="none" stroke="black" stroke-width="3" d="M1954.09,-367.5C1971.11,-367.5 1973.84,-352.09 1984.83,-345.59"/>
<polygon fill="black" stroke="black" stroke-width="3" points="1982.64,-349.77 1991.45,-343.88 1980.89,-342.99 1982.64,-349.77"/>
</g>
<!-- x19 -->
<g id="node45" class="node">
<title>x19</title>
<path fill="none" stroke="black" d="M2024.22,-638.5C2024.22,-638.5 2062.72,-638.5 2062.72,-638.5 2068.72,-638.5 2074.72,-644.5 2074.72,-650.5 2074.72,-650.5 2074.72,-662.5 2074.72,-662.5 2074.72,-668.5 2068.72,-674.5 2062.72,-674.5 2062.72,-674.5 2024.22,-674.5 2024.22,-674.5 2018.22,-674.5 2012.22,-668.5 2012.22,-662.5 2012.22,-662.5 2012.22,-650.5 2012.22,-650.5 2012.22,-644.5 2018.22,-638.5 2024.22,-638.5"/>
<text text-anchor="middle" x="2043.47" y="-651.7" font-family="Times,serif" font-size="14.00">4:0 &#45; 4:0</text>
</g>
<!-- n19&#45;&gt;x19 -->
<g id="edge59" class="edge">
<title>n19:e&#45;&gt;x19:w</title>
<path fill="none" stroke="black" stroke-width="3" d="M1954.09,-367.5C2015.52,-367.5 1954.39,-621.72 2000.5,-653.5"/>
<polygon fill="black" stroke="black" stroke-width="3" points="1996.29,-655.88 2006.87,-655.43 1998.32,-649.18 1996.29,-655.88"/>
</g>
<!-- x22 -->
<g id="node48" class="node">
<title>x22</title>
<path fill="none" stroke="black" d="M2017.47,-250.5C2017.47,-250.5 2069.47,-250.5 2069.47,-250.5 2075.47,-250.5 2081.47,-256.5 2081.47,-262.5 2081.47,-262.5 2081.47,-274.5 2081.47,-274.5 2081.47,-280.5 2075.47,-286.5 2069.47,-286.5 2069.47,-286.5 2017.47,-286.5 2017.47,-286.5 2011.47,-286.5 2005.47,-280.5 2005.47,-274.5 2005.47,-274.5 2005.47,-262.5 2005.47,-262.5 2005.47,-256.5 2011.47,-250.5 2017.47,-250.5"/>
<text text-anchor="middle" x="2043.47" y="-263.7" font-family="Times,serif" font-size="14.00">25:25 &#45; 0:0</text>
</g>
<!-- n19&#45;&gt;x22 -->
<g id="edge60" class="edge">
<title>n19:e&#45;&gt;x22:w</title>
<path fill="none" stroke="black" d="M1954.09,-367.5C1998.94,-367.5 1963.07,-285.7 1993.41,-271"/>
<polygon fill="black" stroke="black" points="1993.88,-274.47 2002.99,-269.05 1992.49,-267.61 1993.88,-274.47"/>
</g>
<!-- x24 -->
<g id="node50" class="node">
<title>x24</title>
<path fill="none" stroke="black" d="M2002.09,-374.5C2002.09,-374.5 2084.84,-374.5 2084.84,-374.5 2090.84,-374.5 2096.84,-380.5 2096.84,-386.5 2096.84,-386.5 2096.84,-398.5 2096.84,-398.5 2096.84,-404.5 2090.84,-410.5 2084.84,-410.5 2084.84,-410.5 2002.09,-410.5 2002.09,-410.5 1996.09,-410.5 1990.09,-404.5 1990.09,-398.5 1990.09,-398.5 1990.09,-386.5 1990.09,-386.5 1990.09,-380.5 1996.09,-374.5 2002.09,-374.5"/>
<text text-anchor="middle" x="2043.47" y="-387.7" font-family="Times,serif" font-size="14.00">19x 25:25 &#45; 18:0</text>
</g>
<!-- n19&#45;&gt;x24 -->
<g id="edge61" class="edge">
<title>n19:e&#45;&gt;x24:w</title>
<path fill="none" stroke="black" stroke-width="3" d="M1954.09,-367.5C1968.9,-367.5 1970.72,-382 1979.23,-389.02"/>
<polygon fill="black" stroke="black" stroke-width="3" points="1975.2,-391.34 1985.8,-391.28 1977.48,-384.72 1975.2,-391.34"/>
</g>
<!-- n20 -->
<g id="node6" class="node">
<title>n20</title>
<polygon fill="none" stroke="black" points="737.09,-66.5 681.84,-48.5 737.09,-30.5 792.34,-48.5 737.09,-66.5"/>
<text text-anchor="middle" x="737.09" y="-43.45" font-family="Times,serif" font-size="14.00">temp_2</text>
</g>
<!-- c32 -->
<g id="node22" class="node">
<title>c32</title>
<polygon fill="none" stroke="black" points="828.34,-25 828.34,-66 919.84,-66 919.84,-25 828.34,-25"/>
<text text-anchor="middle" x="841.22" y="-40.7" font-family="Times,serif" font-size="14.00">A</text>
<polyline fill="none" stroke="black" points="854.09,-25 854.09,-66"/>
<text text-anchor="middle" x="874.09" y="-48.7" font-family="Times,serif" font-size="14.00">$89</text>
<text text-anchor="middle" x="874.09" y="-32.2" font-family="Times,serif" font-size="14.00">$not</text>
<polyline fill="none" stroke="black" points="894.09,-25 894.09,-66"/>
<text text-anchor="middle" x="906.97" y="-40.7" font-family="Times,serif" font-size="14.00">Y</text>
</g>
<!-- n20&#45;&gt;c32 -->
<g id="edge66" class="edge">
<title>n20:e&#45;&gt;c32:w</title>
<path fill="none" stroke="black" stroke-width="3" d="M792.34,-48.5C803.75,-48.5 809.02,-47.11 816.88,-46.31"/>
<polygon fill="black" stroke="black" stroke-width="3" points="813.99,-49.95 823.81,-45.97 813.65,-42.96 813.99,-49.95"/>
</g>
<!-- n21 -->
<g id="node7" class="node">
<title>n21</title>
<polygon fill="none" stroke="black" points="3572,-412.5 3516.75,-394.5 3572,-376.5 3627.25,-394.5 3572,-412.5"/>
<text text-anchor="middle" x="3572" y="-389.45" font-family="Times,serif" font-size="14.00">temp_3</text>
</g>
<!-- x4 -->
<g id="node16" class="node">
<title>x4</title>
<path fill="none" stroke="black" d="M3813.35,-404C3813.35,-404 3851.85,-404 3851.85,-404 3857.85,-404 3863.85,-410 3863.85,-416 3863.85,-416 3863.85,-441 3863.85,-441 3863.85,-447 3857.85,-453 3851.85,-453 3851.85,-453 3813.35,-453 3813.35,-453 3807.35,-453 3801.35,-447 3801.35,-441 3801.35,-441 3801.35,-416 3801.35,-416 3801.35,-410 3807.35,-404 3813.35,-404"/>
<text text-anchor="middle" x="3832.6" y="-435.7" font-family="Times,serif" font-size="14.00">8:6 &#45; 4:2</text>
<polyline fill="none" stroke="black" points="3801.35,-428.5 3863.85,-428.5"/>
<text text-anchor="middle" x="3832.6" y="-411.2" font-family="Times,serif" font-size="14.00">5:4 &#45; 1:0</text>
</g>
<!-- n21&#45;&gt;x4 -->
<g id="edge69" class="edge">
<title>n21:e&#45;&gt;x4:w</title>
<path fill="none" stroke="black" stroke-width="3" d="M3627.25,-394.5C3643.35,-394.5 3647.18,-391.39 3663.25,-390.5 3690.99,-388.96 3698.35,-385.96 3725.75,-390.5 3756.67,-395.62 3764.25,-411.77 3790.03,-415.48"/>
<polygon fill="black" stroke="black" stroke-width="3" points="3786.61,-418.76 3796.82,-415.94 3787.08,-411.78 3786.61,-418.76"/>
</g>
<!-- x20 -->
<g id="node46" class="node">
<title>x20</title>
<path fill="none" stroke="black" d="M3675.25,-399.5C3675.25,-399.5 3713.75,-399.5 3713.75,-399.5 3719.75,-399.5 3725.75,-405.5 3725.75,-411.5 3725.75,-411.5 3725.75,-423.5 3725.75,-423.5 3725.75,-429.5 3719.75,-435.5 3713.75,-435.5 3713.75,-435.5 3675.25,-435.5 3675.25,-435.5 3669.25,-435.5 3663.25,-429.5 3663.25,-423.5 3663.25,-423.5 3663.25,-411.5 3663.25,-411.5 3663.25,-405.5 3669.25,-399.5 3675.25,-399.5"/>
<text text-anchor="middle" x="3694.5" y="-412.7" font-family="Times,serif" font-size="14.00">5:0 &#45; 5:0</text>
</g>
<!-- n21&#45;&gt;x20 -->
<g id="edge68" class="edge">
<title>n21:e&#45;&gt;x20:w</title>
<path fill="none" stroke="black" stroke-width="3" d="M3627.25,-394.5C3641.64,-394.5 3643.99,-407.71 3652.55,-414.11"/>
<polygon fill="black" stroke="black" stroke-width="3" points="3648.33,-416.44 3658.92,-416.13 3650.45,-409.77 3648.33,-416.44"/>
</g>
<!-- c25&#45;&gt;c38 -->
<g id="edge23" class="edge">
<title>c25:e&#45;&gt;c38:w</title>
<path fill="none" stroke="black" stroke-width="3" d="M237.59,-332.75C253.48,-332.75 254.04,-315.4 262.98,-307.54"/>
<polygon fill="black" stroke="black" stroke-width="3" points="261.08,-311.94 269.31,-305.28 258.72,-305.35 261.08,-311.94"/>
</g>
<!-- c26 -->
<g id="node9" class="node">
<title>c26</title>
<polygon fill="none" stroke="black" points="1473.59,-305 1473.59,-354 1567.34,-354 1567.34,-305 1473.59,-305"/>
<text text-anchor="middle" x="1486.47" y="-336.7" font-family="Times,serif" font-size="14.00">A</text>
<polyline fill="none" stroke="black" points="1473.59,-329.5 1499.34,-329.5"/>
<text text-anchor="middle" x="1486.47" y="-312.2" font-family="Times,serif" font-size="14.00">B</text>
<polyline fill="none" stroke="black" points="1499.34,-305 1499.34,-354"/>
<text text-anchor="middle" x="1520.47" y="-332.7" font-family="Times,serif" font-size="14.00">$6</text>
<text text-anchor="middle" x="1520.47" y="-316.2" font-family="Times,serif" font-size="14.00">$add</text>
<polyline fill="none" stroke="black" points="1541.59,-305 1541.59,-354"/>
<text text-anchor="middle" x="1554.47" y="-324.7" font-family="Times,serif" font-size="14.00">Y</text>
</g>
<!-- c26&#45;&gt;c41 -->
<g id="edge64" class="edge">
<title>c26:e&#45;&gt;c41:w</title>
<path fill="none" stroke="black" stroke-width="3" d="M1567.34,-329.75C1589.51,-329.75 1581.35,-296.78 1592.62,-284.93"/>
<polygon fill="black" stroke="black" stroke-width="3" points="1591.06,-289.29 1599.11,-282.4 1588.52,-282.77 1591.06,-289.29"/>
</g>
<!-- x0 -->
<g id="node10" class="node">
<title>x0</title>
<path fill="none" stroke="black" d="M1387.09,-358C1387.09,-358 1425.59,-358 1425.59,-358 1431.59,-358 1437.59,-364 1437.59,-370 1437.59,-370 1437.59,-395 1437.59,-395 1437.59,-401 1431.59,-407 1425.59,-407 1425.59,-407 1387.09,-407 1387.09,-407 1381.09,-407 1375.09,-401 1375.09,-395 1375.09,-395 1375.09,-370 1375.09,-370 1375.09,-364 1381.09,-358 1387.09,-358"/>
<text text-anchor="middle" x="1406.34" y="-389.7" font-family="Times,serif" font-size="14.00">0:0 &#45; 6:6</text>
<polyline fill="none" stroke="black" points="1375.09,-382.5 1437.59,-382.5"/>
<text text-anchor="middle" x="1406.34" y="-365.2" font-family="Times,serif" font-size="14.00">5:0 &#45; 5:0</text>
</g>
<!-- x0&#45;&gt;c26 -->
<g id="edge1" class="edge">
<title>x0:e&#45;&gt;c26:w</title>
<path fill="none" stroke="black" stroke-width="3" d="M1449.25,-377.17C1455.43,-369.41 1455.72,-355.05 1461.84,-347.21"/>
<polygon fill="none" stroke="black" stroke-width="3" points="1450.97,-376.39 1447.17,-382.52 1440.05,-381.38 1443.85,-375.24 1450.97,-376.39"/>
<polygon fill="none" stroke="black" stroke-width="3" points="1460.26,-347.94 1464.01,-341.79 1471.14,-342.89 1467.38,-349.04 1460.26,-347.94"/>
</g>
<!-- x1 -->
<g id="node11" class="node">
<title>x1</title>
<path fill="none" stroke="black" d="M1164.84,-308C1164.84,-308 1203.34,-308 1203.34,-308 1209.34,-308 1215.34,-314 1215.34,-320 1215.34,-320 1215.34,-345 1215.34,-345 1215.34,-351 1209.34,-357 1203.34,-357 1203.34,-357 1164.84,-357 1164.84,-357 1158.84,-357 1152.84,-351 1152.84,-345 1152.84,-345 1152.84,-320 1152.84,-320 1152.84,-314 1158.84,-308 1164.84,-308"/>
<text text-anchor="middle" x="1184.09" y="-339.7" font-family="Times,serif" font-size="14.00">0:0 &#45; 6:6</text>
<polyline fill="none" stroke="black" points="1152.84,-332.5 1215.34,-332.5"/>
<text text-anchor="middle" x="1184.09" y="-315.2" font-family="Times,serif" font-size="14.00">5:0 &#45; 5:0</text>
</g>
<!-- x1&#45;&gt;c26 -->
<g id="edge2" class="edge">
<title>x1:e&#45;&gt;c26:w</title>
<path fill="none" stroke="black" stroke-width="3" d="M1228.11,-332.44C1328.42,-331.4 1360.44,-318.36 1460.68,-317.32"/>
<polygon fill="none" stroke="black" stroke-width="3" points="1230.05,-332.43 1224.07,-336.46 1218.05,-332.49 1224.03,-328.46 1230.05,-332.43"/>
<polygon fill="none" stroke="black" stroke-width="3" points="1458.89,-317.33 1464.87,-313.29 1470.89,-317.26 1464.91,-321.29 1458.89,-317.33"/>
</g>
<!-- c27 -->
<g id="node12" class="node">
<title>c27</title>
<polygon fill="none" stroke="black" points="273.59,-581 273.59,-630 367.34,-630 367.34,-581 273.59,-581"/>
<text text-anchor="middle" x="286.47" y="-612.7" font-family="Times,serif" font-size="14.00">A</text>
<polyline fill="none" stroke="black" points="273.59,-605.5 299.34,-605.5"/>
<text text-anchor="middle" x="286.47" y="-588.2" font-family="Times,serif" font-size="14.00">B</text>
<polyline fill="none" stroke="black" points="299.34,-581 299.34,-630"/>
<text text-anchor="middle" x="320.47" y="-608.7" font-family="Times,serif" font-size="14.00">$27</text>
<text text-anchor="middle" x="320.47" y="-592.2" font-family="Times,serif" font-size="14.00">$add</text>
<polyline fill="none" stroke="black" points="341.59,-581 341.59,-630"/>
<text text-anchor="middle" x="354.47" y="-600.7" font-family="Times,serif" font-size="14.00">Y</text>
</g>
<!-- c42 -->
<g id="node44" class="node">
<title>c42</title>
<polygon fill="none" stroke="black" points="2132.84,-644 2132.84,-693 2225.09,-693 2225.09,-644 2132.84,-644"/>
<text text-anchor="middle" x="2145.72" y="-675.7" font-family="Times,serif" font-size="14.00">A</text>
<polyline fill="none" stroke="black" points="2132.84,-668.5 2158.59,-668.5"/>
<text text-anchor="middle" x="2145.72" y="-651.2" font-family="Times,serif" font-size="14.00">B</text>
<polyline fill="none" stroke="black" points="2158.59,-644 2158.59,-693"/>
<text text-anchor="middle" x="2178.97" y="-671.7" font-family="Times,serif" font-size="14.00">$28</text>
<text text-anchor="middle" x="2178.97" y="-655.2" font-family="Times,serif" font-size="14.00">$xor</text>
<polyline fill="none" stroke="black" points="2199.34,-644 2199.34,-693"/>
<text text-anchor="middle" x="2212.22" y="-663.7" font-family="Times,serif" font-size="14.00">Y</text>
</g>
<!-- c27&#45;&gt;c42 -->
<g id="edge70" class="edge">
<title>c27:e&#45;&gt;c42:w</title>
<path fill="none" stroke="black" stroke-width="3" d="M367.34,-605.75C478.21,-605.75 485.97,-703.5 596.84,-703.5 596.84,-703.5 596.84,-703.5 1899.84,-703.5 1987.81,-703.5 2009.32,-693.28 2096.84,-684.5 2108.22,-683.36 2113.49,-681.94 2121.36,-681.22"/>
<polygon fill="black" stroke="black" stroke-width="3" points="2118.46,-684.85 2128.31,-680.94 2118.17,-677.85 2118.46,-684.85"/>
</g>
<!-- x2&#45;&gt;c27 -->
<g id="edge3" class="edge">
<title>x2:e&#45;&gt;c27:w</title>
<path fill="none" stroke="black" stroke-width="3" d="M235.66,-617.53C244.96,-617.58 251.32,-617.67 260.54,-617.72"/>
<polygon fill="none" stroke="black" stroke-width="3" points="237.67,-617.54 231.66,-621.52 225.67,-617.51 231.68,-613.52 237.67,-617.54"/>
<polygon fill="none" stroke="black" stroke-width="3" points="258.89,-617.71 264.9,-613.73 270.89,-617.74 264.88,-621.73 258.89,-617.71"/>
</g>
<!-- x3&#45;&gt;c27 -->
<g id="edge4" class="edge">
<title>x3:e&#45;&gt;c27:w</title>
<path fill="none" stroke="black" stroke-width="3" d="M235.57,-565.56C246.19,-571.46 250.38,-584.32 261.01,-590.2"/>
<polygon fill="none" stroke="black" stroke-width="3" points="237.25,-565.97 230.48,-568.44 225.59,-563.14 232.37,-560.67 237.25,-565.97"/>
<polygon fill="none" stroke="black" stroke-width="3" points="259.3,-589.79 266.07,-587.31 270.96,-592.61 264.19,-595.09 259.3,-589.79"/>
</g>
<!-- c28&#45;&gt;n17 -->
<g id="edge48" class="edge">
<title>c28:e&#45;&gt;n17:w</title>
<path fill="none" stroke="black" stroke-width="3" d="M3993.6,-486.75C4004.98,-486.75 4010.29,-486.62 4018.15,-486.55"/>
<polygon fill="black" stroke="black" stroke-width="3" points="4015.08,-490.06 4025.06,-486.52 4015.04,-483.06 4015.08,-490.06"/>
</g>
<!-- x4&#45;&gt;c28 -->
<g id="edge5" class="edge">
<title>x4:e&#45;&gt;c28:w</title>
<path fill="none" stroke="black" stroke-width="3" d="M3875.45,-433.75C3882.34,-442.48 3881.32,-459.9 3888.08,-468.78"/>
<polygon fill="none" stroke="black" stroke-width="3" points="3877.25,-434.56 3870.13,-435.73 3866.31,-429.61 3873.43,-428.44 3877.25,-434.56"/>
<polygon fill="none" stroke="black" stroke-width="3" points="3886.52,-468.05 3893.64,-466.95 3897.4,-473.11 3890.27,-474.21 3886.52,-468.05"/>
</g>
<!-- c29&#45;&gt;x0 -->
<g id="edge71" class="edge">
<title>c29:e&#45;&gt;x0:w</title>
<path fill="none" stroke="black" stroke-width="3" d="M1339.09,-370.75C1350.47,-370.75 1355.78,-370.5 1363.65,-370.35"/>
<polygon fill="black" stroke="black" stroke-width="3" points="1360.58,-373.88 1370.55,-370.29 1360.52,-366.88 1360.58,-373.88"/>
</g>
<!-- x5 -->
<g id="node18" class="node">
<title>x5</title>
<path fill="none" stroke="black" d="M1164.84,-252.5C1164.84,-252.5 1203.34,-252.5 1203.34,-252.5 1209.34,-252.5 1215.34,-258.5 1215.34,-264.5 1215.34,-264.5 1215.34,-276.5 1215.34,-276.5 1215.34,-282.5 1209.34,-288.5 1203.34,-288.5 1203.34,-288.5 1164.84,-288.5 1164.84,-288.5 1158.84,-288.5 1152.84,-282.5 1152.84,-276.5 1152.84,-276.5 1152.84,-264.5 1152.84,-264.5 1152.84,-258.5 1158.84,-252.5 1164.84,-252.5"/>
<text text-anchor="middle" x="1184.09" y="-265.7" font-family="Times,serif" font-size="14.00">5:0 &#45; 5:0</text>
</g>
<!-- x5&#45;&gt;c29 -->
<g id="edge6" class="edge">
<title>x5:e&#45;&gt;c29:w</title>
<path fill="none" stroke="black" stroke-width="3" d="M1227.26,-274.27C1243.93,-288.57 1222.92,-339.42 1239.1,-354.19"/>
<polygon fill="none" stroke="black" stroke-width="3" points="1229.36,-274.93 1222.44,-276.94 1217.92,-271.32 1224.85,-269.31 1229.36,-274.93"/>
<polygon fill="none" stroke="black" stroke-width="3" points="1237.38,-353.63 1244.34,-351.72 1248.78,-357.4 1241.82,-359.31 1237.38,-353.63"/>
</g>
<!-- c33 -->
<g id="node23" class="node">
<title>c33</title>
<polygon fill="none" stroke="black" points="2535.84,-123 2535.84,-172 2629.59,-172 2629.59,-123 2535.84,-123"/>
<text text-anchor="middle" x="2548.72" y="-154.7" font-family="Times,serif" font-size="14.00">A</text>
<polyline fill="none" stroke="black" points="2535.84,-147.5 2561.59,-147.5"/>
<text text-anchor="middle" x="2548.72" y="-130.2" font-family="Times,serif" font-size="14.00">B</text>
<polyline fill="none" stroke="black" points="2561.59,-123 2561.59,-172"/>
<text text-anchor="middle" x="2582.72" y="-150.7" font-family="Times,serif" font-size="14.00">$93</text>
<text text-anchor="middle" x="2582.72" y="-134.2" font-family="Times,serif" font-size="14.00">$and</text>
<polyline fill="none" stroke="black" points="2603.84,-123 2603.84,-172"/>
<text text-anchor="middle" x="2616.72" y="-142.7" font-family="Times,serif" font-size="14.00">Y</text>
</g>
<!-- c30&#45;&gt;c33 -->
<g id="edge76" class="edge">
<title>c30:e&#45;&gt;c33:w</title>
<path fill="none" stroke="black" stroke-width="3" d="M505.34,-123.75C608.15,-123.75 633.28,-107.5 736.09,-107.5 736.09,-107.5 736.09,-107.5 2315.47,-107.5 2410.23,-107.5 2435.17,-133.07 2524.34,-135.12"/>
<polygon fill="black" stroke="black" stroke-width="3" points="2521.26,-138.59 2531.3,-135.2 2521.34,-131.59 2521.26,-138.59"/>
</g>
<!-- c31&#45;&gt;x9 -->
<g id="edge77" class="edge">
<title>c31:e&#45;&gt;x9:w</title>
<path fill="none" stroke="black" stroke-width="3" d="M2223.84,-530.75C2243,-530.75 2240.03,-505.82 2250.55,-496.08"/>
<polygon fill="black" stroke="black" stroke-width="3" points="2248.62,-500.5 2256.83,-493.8 2246.23,-493.93 2248.62,-500.5"/>
</g>
<!-- x6&#45;&gt;c31 -->
<g id="edge7" class="edge">
<title>x6:e&#45;&gt;c31:w</title>
<path fill="none" stroke="black" stroke-width="3" d="M2088.45,-560.82C2101.51,-557.08 2108.31,-548.16 2121.37,-544.43"/>
<polygon fill="none" stroke="black" stroke-width="3" points="2090.3,-560.57 2084.87,-565.32 2078.4,-562.15 2083.82,-557.39 2090.3,-560.57"/>
<polygon fill="none" stroke="black" stroke-width="3" points="2119.52,-544.67 2124.94,-539.92 2131.41,-543.1 2125.99,-547.86 2119.52,-544.67"/>
</g>
<!-- x16 -->
<g id="node40" class="node">
<title>x16</title>
<path fill="none" stroke="black" d="M1066.34,-30C1066.34,-30 1104.84,-30 1104.84,-30 1110.84,-30 1116.84,-36 1116.84,-42 1116.84,-42 1116.84,-67 1116.84,-67 1116.84,-73 1110.84,-79 1104.84,-79 1104.84,-79 1066.34,-79 1066.34,-79 1060.34,-79 1054.34,-73 1054.34,-67 1054.34,-67 1054.34,-42 1054.34,-42 1054.34,-36 1060.34,-30 1066.34,-30"/>
<text text-anchor="middle" x="1085.59" y="-61.7" font-family="Times,serif" font-size="14.00">1 &#45;&gt; 8:7</text>
<polyline fill="none" stroke="black" points="1054.34,-54.5 1116.84,-54.5"/>
<text text-anchor="middle" x="1085.59" y="-37.2" font-family="Times,serif" font-size="14.00">6:0 &#45; 6:0</text>
</g>
<!-- c32&#45;&gt;x16 -->
<g id="edge78" class="edge">
<title>c32:e&#45;&gt;x16:w</title>
<path fill="none" stroke="black" stroke-width="3" d="M919.84,-45.75C975.67,-45.75 992.37,-42.7 1043,-42.29"/>
<polygon fill="black" stroke="black" stroke-width="3" points="1039.82,-45.81 1049.8,-42.27 1039.79,-38.81 1039.82,-45.81"/>
</g>
<!-- x8 -->
<g id="node25" class="node">
<title>x8</title>
<path fill="none" stroke="black" d="M2677.59,-156.5C2677.59,-156.5 2716.09,-156.5 2716.09,-156.5 2722.09,-156.5 2728.09,-162.5 2728.09,-168.5 2728.09,-168.5 2728.09,-180.5 2728.09,-180.5 2728.09,-186.5 2722.09,-192.5 2716.09,-192.5 2716.09,-192.5 2677.59,-192.5 2677.59,-192.5 2671.59,-192.5 2665.59,-186.5 2665.59,-180.5 2665.59,-180.5 2665.59,-168.5 2665.59,-168.5 2665.59,-162.5 2671.59,-156.5 2677.59,-156.5"/>
<text text-anchor="middle" x="2696.84" y="-169.7" font-family="Times,serif" font-size="14.00">5:0 &#45; 5:0</text>
</g>
<!-- c33&#45;&gt;x8 -->
<g id="edge9" class="edge">
<title>c33:e&#45;&gt;x8:w</title>
<path fill="none" stroke="black" stroke-width="3" d="M2641.33,-152.41C2646.22,-157.2 2648.76,-164.63 2653.55,-169.53"/>
<polygon fill="none" stroke="black" stroke-width="3" points="2643.26,-153.17 2636.21,-154.68 2632.11,-148.75 2639.16,-147.24 2643.26,-153.17"/>
<polygon fill="none" stroke="black" stroke-width="3" points="2652,-168.89 2659.07,-167.48 2663.09,-173.47 2656.02,-174.88 2652,-168.89"/>
</g>
<!-- x7 -->
<g id="node24" class="node">
<title>x7</title>
<path fill="none" stroke="black" d="M2432.59,-229.5C2432.59,-229.5 2471.09,-229.5 2471.09,-229.5 2477.09,-229.5 2483.09,-235.5 2483.09,-241.5 2483.09,-241.5 2483.09,-253.5 2483.09,-253.5 2483.09,-259.5 2477.09,-265.5 2471.09,-265.5 2471.09,-265.5 2432.59,-265.5 2432.59,-265.5 2426.59,-265.5 2420.59,-259.5 2420.59,-253.5 2420.59,-253.5 2420.59,-241.5 2420.59,-241.5 2420.59,-235.5 2426.59,-229.5 2432.59,-229.5"/>
<text text-anchor="middle" x="2451.84" y="-242.7" font-family="Times,serif" font-size="14.00">5:0 &#45; 5:0</text>
</g>
<!-- x7&#45;&gt;c33 -->
<g id="edge8" class="edge">
<title>x7:e&#45;&gt;c33:w</title>
<path fill="none" stroke="black" stroke-width="3" d="M2496.49,-244.38C2518.41,-230.76 2501.54,-176.65 2523.36,-162.93"/>
<polygon fill="none" stroke="black" stroke-width="3" points="2498.35,-243.91 2493.51,-249.25 2486.72,-246.84 2491.56,-241.49 2498.35,-243.91"/>
<polygon fill="none" stroke="black" stroke-width="3" points="2521.59,-163.38 2526.42,-158.02 2533.22,-160.42 2528.4,-165.77 2521.59,-163.38"/>
</g>
<!-- x8&#45;&gt;n19 -->
<g id="edge56" class="edge">
<title>x8:e&#45;&gt;n19:w</title>
<path fill="none" stroke="black" stroke-width="3" d="M2729.09,-174.75C2737.22,-174.75 2733.81,-187.23 2728.09,-193 2699.18,-222.19 2021.63,-214.16 1990.09,-240.5 1939.13,-283.07 2006.4,-344.59 1954.09,-385.5 1914.93,-416.13 1878.34,-419.67 1842.22,-385.5 1840.22,-383.61 1838.53,-380.89 1837.49,-378.14"/>
<polygon fill="black" stroke="black" stroke-width="3" points="1839.72,-382.38 1839.72,-371.79 1833.11,-380.07 1839.72,-382.38"/>
</g>
<!-- c34&#45;&gt;n20 -->
<g id="edge65" class="edge">
<title>c34:e&#45;&gt;n20:w</title>
<path fill="none" stroke="black" stroke-width="3" d="M645.84,-54.75C657.51,-54.75 662.62,-51.52 670.59,-49.71"/>
<polygon fill="black" stroke="black" stroke-width="3" points="667.76,-53.53 677.33,-48.98 667.01,-46.57 667.76,-53.53"/>
</g>
<!-- c35&#45;&gt;c39 -->
<g id="edge79" class="edge">
<title>c35:e&#45;&gt;c39:w</title>
<path fill="none" stroke="black" stroke-width="3" d="M2499.84,-492.75C2542.85,-492.75 2498.75,-410.51 2524.74,-394.45"/>
<polygon fill="black" stroke="black" stroke-width="3" points="2522.54,-398.59 2531.43,-392.82 2520.89,-391.79 2522.54,-398.59"/>
</g>
<!-- x9&#45;&gt;c35 -->
<g id="edge10" class="edge">
<title>x9:e&#45;&gt;c35:w</title>
<path fill="none" stroke="black" stroke-width="3" d="M2380.57,-504.56C2384.16,-504.6 2387.3,-504.65 2390.87,-504.68"/>
<polygon fill="none" stroke="black" stroke-width="3" points="2382.55,-504.57 2376.53,-508.54 2370.55,-504.51 2376.57,-500.54 2382.55,-504.57"/>
<polygon fill="none" stroke="black" stroke-width="3" points="2389.14,-504.68 2395.16,-500.71 2401.14,-504.74 2395.12,-508.71 2389.14,-504.68"/>
</g>
<!-- x10 -->
<g id="node30" class="node">
<title>x10</title>
<path fill="none" stroke="black" d="M717.84,-242C717.84,-242 756.34,-242 756.34,-242 762.34,-242 768.34,-248 768.34,-254 768.34,-254 768.34,-279 768.34,-279 768.34,-285 762.34,-291 756.34,-291 756.34,-291 717.84,-291 717.84,-291 711.84,-291 705.84,-285 705.84,-279 705.84,-279 705.84,-254 705.84,-254 705.84,-248 711.84,-242 717.84,-242"/>
<text text-anchor="middle" x="737.09" y="-273.7" font-family="Times,serif" font-size="14.00">6:6 &#45; 0:0</text>
<polyline fill="none" stroke="black" points="705.84,-266.5 768.34,-266.5"/>
<text text-anchor="middle" x="737.09" y="-249.2" font-family="Times,serif" font-size="14.00">5:0 &#45; 5:0</text>
</g>
<!-- c36&#45;&gt;x10 -->
<g id="edge11" class="edge">
<title>c36:e&#45;&gt;x10:w</title>
<path fill="none" stroke="black" stroke-width="3" d="M657.32,-264.9C670.69,-265.23 678.76,-266.02 692.13,-266.35"/>
<polygon fill="none" stroke="black" stroke-width="3" points="659.3,-264.92 653.25,-268.85 647.3,-264.78 653.34,-260.85 659.3,-264.92"/>
<polygon fill="none" stroke="black" stroke-width="3" points="690.14,-266.33 696.19,-262.4 702.14,-266.47 696.09,-270.4 690.14,-266.33"/>
</g>
<!-- n13 -->
<g id="node53" class="node">
<title>n13</title>
<ellipse fill="black" stroke="black" cx="1085.59" cy="-284.5" rx="1.8" ry="1.8"/>
</g>
<!-- x10&#45;&gt;n13 -->
<g id="edge29" class="edge">
<title>x10:e&#45;&gt;n13:w</title>
<path fill="none" stroke="black" stroke-width="3" d="M769.34,-254.25C880.27,-254.25 908.42,-256.59 1018.34,-271.5 1042.94,-274.84 1051.04,-281.98 1071.03,-283.97"/>
<polygon fill="black" stroke="black" stroke-width="3" points="1067.63,-287.32 1077.78,-284.29 1067.95,-280.33 1067.63,-287.32"/>
</g>
<!-- n5 -->
<g id="node55" class="node">
<title>n5</title>
<ellipse fill="black" stroke="black" cx="874.09" cy="-323.5" rx="1.8" ry="1.8"/>
</g>
<!-- x10&#45;&gt;n5 -->
<g id="edge72" class="edge">
<title>x10:e&#45;&gt;n5:w</title>
<path fill="none" stroke="black" d="M769.34,-278.75C814.59,-278.75 820.74,-316.46 859.57,-322.65"/>
<polygon fill="black" stroke="black" points="859.07,-326.12 869.31,-323.39 859.6,-319.14 859.07,-326.12"/>
</g>
<!-- c37 -->
<g id="node31" class="node">
<title>c37</title>
<polygon fill="none" stroke="black" points="3294.5,-321 3294.5,-370 3382.25,-370 3382.25,-321 3294.5,-321"/>
<text text-anchor="middle" x="3307.37" y="-352.7" font-family="Times,serif" font-size="14.00">A</text>
<polyline fill="none" stroke="black" points="3294.5,-345.5 3320.25,-345.5"/>
<text text-anchor="middle" x="3307.37" y="-328.2" font-family="Times,serif" font-size="14.00">B</text>
<polyline fill="none" stroke="black" points="3320.25,-321 3320.25,-370"/>
<text text-anchor="middle" x="3338.37" y="-348.7" font-family="Times,serif" font-size="14.00">$17</text>
<text text-anchor="middle" x="3338.37" y="-332.2" font-family="Times,serif" font-size="14.00">$or</text>
<polyline fill="none" stroke="black" points="3356.5,-321 3356.5,-370"/>
<text text-anchor="middle" x="3369.37" y="-340.7" font-family="Times,serif" font-size="14.00">Y</text>
</g>
<!-- x13 -->
<g id="node34" class="node">
<title>x13</title>
<path fill="none" stroke="black" d="M3430.25,-382C3430.25,-382 3468.75,-382 3468.75,-382 3474.75,-382 3480.75,-388 3480.75,-394 3480.75,-394 3480.75,-419 3480.75,-419 3480.75,-425 3474.75,-431 3468.75,-431 3468.75,-431 3430.25,-431 3430.25,-431 3424.25,-431 3418.25,-425 3418.25,-419 3418.25,-419 3418.25,-394 3418.25,-394 3418.25,-388 3424.25,-382 3430.25,-382"/>
<text text-anchor="middle" x="3449.5" y="-413.7" font-family="Times,serif" font-size="14.00">8:6 &#45; 8:6</text>
<polyline fill="none" stroke="black" points="3418.25,-406.5 3480.75,-406.5"/>
<text text-anchor="middle" x="3449.5" y="-389.2" font-family="Times,serif" font-size="14.00">5:0 &#45; 5:0</text>
</g>
<!-- c37&#45;&gt;x13 -->
<g id="edge14" class="edge">
<title>c37:e&#45;&gt;x13:w</title>
<path fill="none" stroke="black" stroke-width="3" d="M3394.21,-350.93C3403.34,-362.41 3397.16,-389.87 3406.3,-401.33"/>
<polygon fill="none" stroke="black" stroke-width="3" points="3395.74,-351.59 3388.65,-352.88 3384.73,-346.82 3391.83,-345.54 3395.74,-351.59"/>
<polygon fill="none" stroke="black" stroke-width="3" points="3404.75,-400.66 3411.85,-399.37 3415.77,-405.43 3408.67,-406.72 3404.75,-400.66"/>
</g>
<!-- x11 -->
<g id="node32" class="node">
<title>x11</title>
<path fill="none" stroke="black" d="M3208,-339.5C3208,-339.5 3246.5,-339.5 3246.5,-339.5 3252.5,-339.5 3258.5,-345.5 3258.5,-351.5 3258.5,-351.5 3258.5,-363.5 3258.5,-363.5 3258.5,-369.5 3252.5,-375.5 3246.5,-375.5 3246.5,-375.5 3208,-375.5 3208,-375.5 3202,-375.5 3196,-369.5 3196,-363.5 3196,-363.5 3196,-351.5 3196,-351.5 3196,-345.5 3202,-339.5 3208,-339.5"/>
<text text-anchor="middle" x="3227.25" y="-352.7" font-family="Times,serif" font-size="14.00">8:0 &#45; 8:0</text>
</g>
<!-- x11&#45;&gt;c37 -->
<g id="edge12" class="edge">
<title>x11:e&#45;&gt;c37:w</title>
<path fill="none" stroke="black" stroke-width="3" d="M3271.22,-357.56C3274.82,-357.6 3277.95,-357.65 3281.53,-357.68"/>
<polygon fill="none" stroke="black" stroke-width="3" points="3273.2,-357.57 3267.18,-361.54 3261.2,-357.51 3267.22,-353.54 3273.2,-357.57"/>
<polygon fill="none" stroke="black" stroke-width="3" points="3279.8,-357.68 3285.82,-353.71 3291.8,-357.74 3285.78,-361.71 3279.8,-357.68"/>
</g>
<!-- x12&#45;&gt;c37 -->
<g id="edge13" class="edge">
<title>x12:e&#45;&gt;c37:w</title>
<path fill="none" stroke="black" stroke-width="3" d="M2104.03,-330.46C2311.94,-329.07 2367.45,-294.5 2581.72,-294.5 2581.72,-294.5 2581.72,-294.5 3129.75,-294.5 3200.42,-294.5 3217.32,-328.7 3281.48,-332.84"/>
<polygon fill="none" stroke="black" stroke-width="3" points="2105.8,-330.45 2099.81,-334.47 2093.8,-330.49 2099.78,-326.47 2105.8,-330.45"/>
<polygon fill="none" stroke="black" stroke-width="3" points="3279.8,-332.79 3285.93,-328.98 3291.8,-333.17 3285.67,-336.97 3279.8,-332.79"/>
</g>
<!-- x13&#45;&gt;n21 -->
<g id="edge67" class="edge">
<title>x13:e&#45;&gt;n21:w</title>
<path fill="none" stroke="black" stroke-width="3" d="M3480.75,-394.25C3492.12,-394.25 3497.43,-394.38 3505.3,-394.45"/>
<polygon fill="black" stroke="black" stroke-width="3" points="3502.19,-397.94 3512.21,-394.48 3502.22,-390.94 3502.19,-397.94"/>
</g>
<!-- n12 -->
<g id="node52" class="node">
<title>n12</title>
<ellipse fill="black" stroke="black" cx="3763.55" cy="-440.5" rx="1.8" ry="1.8"/>
</g>
<!-- x13&#45;&gt;n12 -->
<g id="edge26" class="edge">
<title>x13:e&#45;&gt;n12:w</title>
<path fill="none" stroke="black" stroke-width="3" d="M3480.75,-418.75C3521.74,-418.75 3622.37,-442.52 3663.25,-445.5 3690.95,-447.52 3698.04,-447.42 3725.75,-445.5 3737.33,-444.7 3742.52,-442.47 3750.52,-441.27"/>
<polygon fill="black" stroke="black" stroke-width="3" points="3747.48,-444.99 3757.22,-440.81 3747,-438.01 3747.48,-444.99"/>
</g>
<!-- c38&#45;&gt;n18 -->
<g id="edge49" class="edge">
<title>c38:e&#45;&gt;n18:w</title>
<path fill="none" stroke="black" stroke-width="3" d="M367.34,-291.75C400.84,-291.75 373.97,-231.84 392.37,-216.86"/>
<polygon fill="black" stroke="black" stroke-width="3" points="390.46,-221.11 399,-214.83 388.41,-214.42 390.46,-221.11"/>
</g>
<!-- x14 -->
<g id="node37" class="node">
<title>x14</title>
<path fill="none" stroke="black" d="M2677.59,-361.5C2677.59,-361.5 2716.09,-361.5 2716.09,-361.5 2722.09,-361.5 2728.09,-367.5 2728.09,-373.5 2728.09,-373.5 2728.09,-385.5 2728.09,-385.5 2728.09,-391.5 2722.09,-397.5 2716.09,-397.5 2716.09,-397.5 2677.59,-397.5 2677.59,-397.5 2671.59,-397.5 2665.59,-391.5 2665.59,-385.5 2665.59,-385.5 2665.59,-373.5 2665.59,-373.5 2665.59,-367.5 2671.59,-361.5 2677.59,-361.5"/>
<text text-anchor="middle" x="2696.84" y="-374.7" font-family="Times,serif" font-size="14.00">8:0 &#45; 8:0</text>
</g>
<!-- c39&#45;&gt;x14 -->
<g id="edge15" class="edge">
<title>c39:e&#45;&gt;x14:w</title>
<path fill="none" stroke="black" stroke-width="3" d="M2642.32,-379.69C2645.91,-379.65 2649.05,-379.6 2652.62,-379.57"/>
<polygon fill="none" stroke="black" stroke-width="3" points="2644.3,-379.68 2638.32,-383.71 2632.3,-379.74 2638.28,-375.71 2644.3,-379.68"/>
<polygon fill="none" stroke="black" stroke-width="3" points="2650.89,-379.57 2656.87,-375.54 2662.89,-379.51 2656.91,-383.54 2650.89,-379.57"/>
</g>
<!-- x15 -->
<g id="node39" class="node">
<title>x15</title>
<path fill="none" stroke="black" d="M2829.05,-361.5C2829.05,-361.5 2867.55,-361.5 2867.55,-361.5 2873.55,-361.5 2879.55,-367.5 2879.55,-373.5 2879.55,-373.5 2879.55,-385.5 2879.55,-385.5 2879.55,-391.5 2873.55,-397.5 2867.55,-397.5 2867.55,-397.5 2829.05,-397.5 2829.05,-397.5 2823.05,-397.5 2817.05,-391.5 2817.05,-385.5 2817.05,-385.5 2817.05,-373.5 2817.05,-373.5 2817.05,-367.5 2823.05,-361.5 2829.05,-361.5"/>
<text text-anchor="middle" x="2848.3" y="-374.7" font-family="Times,serif" font-size="14.00">8:0 &#45; 8:0</text>
</g>
<!-- x14&#45;&gt;x15 -->
<g id="edge25" class="edge">
<title>x14:e&#45;&gt;x15:w</title>
<path fill="none" stroke="black" stroke-width="3" d="M2728.09,-379.75C2763.06,-379.75 2774.57,-379.75 2804.59,-379.75"/>
<polygon fill="black" stroke="black" stroke-width="3" points="2801.51,-383.25 2811.51,-379.75 2801.51,-376.25 2801.51,-383.25"/>
</g>
<!-- c40 -->
<g id="node38" class="node">
<title>c40</title>
<polygon fill="none" stroke="black" points="2968.5,-333 2968.5,-382 3061.5,-382 3061.5,-333 2968.5,-333"/>
<text text-anchor="middle" x="2981.37" y="-364.7" font-family="Times,serif" font-size="14.00">A</text>
<polyline fill="none" stroke="black" points="2968.5,-357.5 2994.25,-357.5"/>
<text text-anchor="middle" x="2981.37" y="-340.2" font-family="Times,serif" font-size="14.00">B</text>
<polyline fill="none" stroke="black" points="2994.25,-333 2994.25,-382"/>
<text text-anchor="middle" x="3015" y="-360.7" font-family="Times,serif" font-size="14.00">$16</text>
<text text-anchor="middle" x="3015" y="-344.2" font-family="Times,serif" font-size="14.00">$sub</text>
<polyline fill="none" stroke="black" points="3035.75,-333 3035.75,-382"/>
<text text-anchor="middle" x="3048.62" y="-352.7" font-family="Times,serif" font-size="14.00">Y</text>
</g>
<!-- x17 -->
<g id="node41" class="node">
<title>x17</title>
<path fill="none" stroke="black" d="M3109.5,-339.5C3109.5,-339.5 3148,-339.5 3148,-339.5 3154,-339.5 3160,-345.5 3160,-351.5 3160,-351.5 3160,-363.5 3160,-363.5 3160,-369.5 3154,-375.5 3148,-375.5 3148,-375.5 3109.5,-375.5 3109.5,-375.5 3103.5,-375.5 3097.5,-369.5 3097.5,-363.5 3097.5,-363.5 3097.5,-351.5 3097.5,-351.5 3097.5,-345.5 3103.5,-339.5 3109.5,-339.5"/>
<text text-anchor="middle" x="3128.75" y="-352.7" font-family="Times,serif" font-size="14.00">8:0 &#45; 8:0</text>
</g>
<!-- c40&#45;&gt;x17 -->
<g id="edge18" class="edge">
<title>c40:e&#45;&gt;x17:w</title>
<path fill="none" stroke="black" stroke-width="3" d="M3074.22,-357.69C3077.82,-357.65 3080.95,-357.6 3084.53,-357.57"/>
<polygon fill="none" stroke="black" stroke-width="3" points="3076.2,-357.68 3070.22,-361.71 3064.2,-357.74 3070.18,-353.71 3076.2,-357.68"/>
<polygon fill="none" stroke="black" stroke-width="3" points="3082.8,-357.57 3088.78,-353.54 3094.8,-357.51 3088.82,-361.54 3082.8,-357.57"/>
</g>
<!-- x15&#45;&gt;c40 -->
<g id="edge16" class="edge">
<title>x15:e&#45;&gt;c40:w</title>
<path fill="none" stroke="black" stroke-width="3" d="M2893.23,-379.13C2918.47,-377.59 2930.35,-371.72 2955.47,-370.14"/>
<polygon fill="none" stroke="black" stroke-width="3" points="2895.24,-379.07 2889.36,-383.24 2883.25,-379.42 2889.13,-375.25 2895.24,-379.07"/>
<polygon fill="none" stroke="black" stroke-width="3" points="2953.8,-370.19 2959.68,-366.01 2965.8,-369.83 2959.92,-374.01 2953.8,-370.19"/>
</g>
<!-- x16&#45;&gt;c40 -->
<g id="edge17" class="edge">
<title>x16:e&#45;&gt;c40:w</title>
<path fill="none" stroke="black" stroke-width="3" d="M1129.73,-54.64C1198.32,-56.15 1219.58,-69.5 1294.22,-69.5 1294.22,-69.5 1294.22,-69.5 2315.47,-69.5 2502.02,-69.5 2565.01,-55.91 2728.09,-146.5 2845.38,-211.65 2830.97,-336.85 2955.58,-344.85"/>
<polygon fill="none" stroke="black" stroke-width="3" points="1131.55,-54.66 1125.5,-58.59 1119.55,-54.53 1125.59,-50.59 1131.55,-54.66"/>
<polygon fill="none" stroke="black" stroke-width="3" points="2953.8,-344.79 2959.92,-340.98 2965.8,-345.17 2959.67,-348.98 2953.8,-344.79"/>
</g>
<!-- x17&#45;&gt;x11 -->
<g id="edge24" class="edge">
<title>x17:e&#45;&gt;x11:w</title>
<path fill="none" stroke="black" stroke-width="3" d="M3160,-357.75C3171.37,-357.75 3176.68,-357.75 3184.55,-357.75"/>
<polygon fill="black" stroke="black" stroke-width="3" points="3181.46,-361.25 3191.46,-357.75 3181.46,-354.25 3181.46,-361.25"/>
</g>
<!-- x18 -->
<g id="node43" class="node">
<title>x18</title>
<path fill="none" stroke="black" d="M1743.59,-244C1743.59,-244 1795.59,-244 1795.59,-244 1801.59,-244 1807.59,-250 1807.59,-256 1807.59,-256 1807.59,-281 1807.59,-281 1807.59,-287 1801.59,-293 1795.59,-293 1795.59,-293 1743.59,-293 1743.59,-293 1737.59,-293 1731.59,-287 1731.59,-281 1731.59,-281 1731.59,-256 1731.59,-256 1731.59,-250 1737.59,-244 1743.59,-244"/>
<text text-anchor="middle" x="1769.59" y="-275.7" font-family="Times,serif" font-size="14.00">6:6 &#45; 25:25</text>
<polyline fill="none" stroke="black" points="1731.59,-268.5 1807.59,-268.5"/>
<text text-anchor="middle" x="1769.59" y="-251.2" font-family="Times,serif" font-size="14.00">5:0 &#45; 5:0</text>
</g>
<!-- c41&#45;&gt;x18 -->
<g id="edge19" class="edge">
<title>c41:e&#45;&gt;x18:w</title>
<path fill="none" stroke="black" stroke-width="3" d="M1708.31,-268.69C1711.91,-268.65 1715.04,-268.6 1718.62,-268.57"/>
<polygon fill="none" stroke="black" stroke-width="3" points="1710.3,-268.68 1704.32,-272.71 1698.3,-268.74 1704.28,-264.71 1710.3,-268.68"/>
<polygon fill="none" stroke="black" stroke-width="3" points="1716.89,-268.57 1722.87,-264.54 1728.89,-268.51 1722.91,-272.54 1716.89,-268.57"/>
</g>
<!-- x18&#45;&gt;n19 -->
<g id="edge54" class="edge">
<title>x18:e&#45;&gt;n19:w</title>
<path fill="none" stroke="black" d="M1807.59,-280.75C1844.61,-280.75 1811.46,-348.96 1832.58,-364.41"/>
<polygon fill="black" stroke="black" points="1831.56,-367.76 1842.14,-367.09 1833.45,-361.02 1831.56,-367.76"/>
</g>
<!-- n14 -->
<g id="node54" class="node">
<title>n14</title>
<ellipse fill="black" stroke="black" cx="2314.47" cy="-268.5" rx="1.8" ry="1.8"/>
</g>
<!-- x18&#45;&gt;n14 -->
<g id="edge33" class="edge">
<title>x18:e&#45;&gt;n14:w</title>
<path fill="none" stroke="black" stroke-width="3" d="M1807.59,-256.25C1889.01,-256.25 1908.76,-244 1990.09,-240.5 2094.44,-236.01 2122,-223.77 2225.09,-240.5 2260.78,-246.29 2269.36,-264.28 2299.92,-267.87"/>
<polygon fill="black" stroke="black" stroke-width="3" points="2296.48,-271.19 2306.66,-268.25 2296.87,-264.2 2296.48,-271.19"/>
</g>
<!-- c42&#45;&gt;n15 -->
<g id="edge36" class="edge">
<title>c42:e&#45;&gt;n15:w</title>
<path fill="none" stroke="black" stroke-width="3" d="M2225.09,-668.75C2325.55,-668.75 2350.39,-657.5 2450.84,-657.5 2450.84,-657.5 2450.84,-657.5 2583.72,-657.5 2675.26,-657.5 2669.25,-550.12 2752.6,-541.1"/>
<polygon fill="black" stroke="black" stroke-width="3" points="2749.76,-544.76 2759.56,-540.74 2749.39,-537.77 2749.76,-544.76"/>
</g>
<!-- x19&#45;&gt;c42 -->
<g id="edge20" class="edge">
<title>x19:e&#45;&gt;c42:w</title>
<path fill="none" stroke="black" stroke-width="3" d="M2088.7,-656.48C2100.53,-656.43 2108.05,-656.32 2119.89,-656.27"/>
<polygon fill="none" stroke="black" stroke-width="3" points="2090.42,-656.47 2084.43,-660.48 2078.42,-656.49 2084.42,-652.48 2090.42,-656.47"/>
<polygon fill="none" stroke="black" stroke-width="3" points="2118.14,-656.28 2124.13,-652.27 2130.14,-656.26 2124.15,-660.27 2118.14,-656.28"/>
</g>
<!-- x20&#45;&gt;n12 -->
<g id="edge27" class="edge">
<title>x20:e&#45;&gt;n12:w</title>
<path fill="none" stroke="black" stroke-width="3" d="M3725.75,-417.75C3739.95,-417.75 3742.45,-430.55 3750.8,-436.95"/>
<polygon fill="black" stroke="black" stroke-width="3" points="3746.84,-439.34 3757.43,-439.1 3749,-432.68 3746.84,-439.34"/>
</g>
<!-- x21 -->
<g id="node47" class="node">
<title>x21</title>
<path fill="none" stroke="black" d="M967.84,-281.5C967.84,-281.5 1006.34,-281.5 1006.34,-281.5 1012.34,-281.5 1018.34,-287.5 1018.34,-293.5 1018.34,-293.5 1018.34,-305.5 1018.34,-305.5 1018.34,-311.5 1012.34,-317.5 1006.34,-317.5 1006.34,-317.5 967.84,-317.5 967.84,-317.5 961.84,-317.5 955.84,-311.5 955.84,-305.5 955.84,-305.5 955.84,-293.5 955.84,-293.5 955.84,-287.5 961.84,-281.5 967.84,-281.5"/>
<text text-anchor="middle" x="987.09" y="-294.7" font-family="Times,serif" font-size="14.00">0:0 &#45; 6:6</text>
</g>
<!-- x21&#45;&gt;n13 -->
<g id="edge30" class="edge">
<title>x21:e&#45;&gt;n13:w</title>
<path fill="none" stroke="black" d="M1018.34,-299.75C1043.35,-299.75 1051,-288.59 1070.98,-285.36"/>
<polygon fill="black" stroke="black" points="1071.1,-288.86 1080.81,-284.62 1070.57,-281.89 1071.1,-288.86"/>
</g>
<!-- x23 -->
<g id="node49" class="node">
<title>x23</title>
<path fill="none" stroke="black" d="M2159.72,-250.5C2159.72,-250.5 2198.22,-250.5 2198.22,-250.5 2204.22,-250.5 2210.22,-256.5 2210.22,-262.5 2210.22,-262.5 2210.22,-274.5 2210.22,-274.5 2210.22,-280.5 2204.22,-286.5 2198.22,-286.5 2198.22,-286.5 2159.72,-286.5 2159.72,-286.5 2153.72,-286.5 2147.72,-280.5 2147.72,-274.5 2147.72,-274.5 2147.72,-262.5 2147.72,-262.5 2147.72,-256.5 2153.72,-250.5 2159.72,-250.5"/>
<text text-anchor="middle" x="2178.97" y="-263.7" font-family="Times,serif" font-size="14.00">0:0 &#45; 6:6</text>
</g>
<!-- x22&#45;&gt;x23 -->
<g id="edge21" class="edge">
<title>x22:e&#45;&gt;x23:w</title>
<path fill="none" stroke="black" d="M2095.51,-268.5C2110.33,-268.5 2119.03,-268.5 2133.92,-268.5"/>
<polygon fill="none" stroke="black" points="2095.37,-268.5 2089.37,-272.5 2083.37,-268.5 2089.37,-264.5 2095.37,-268.5"/>
<polygon fill="none" stroke="black" points="2133.82,-268.5 2139.82,-264.5 2145.82,-268.5 2139.82,-272.5 2133.82,-268.5"/>
</g>
<!-- x23&#45;&gt;n14 -->
<g id="edge34" class="edge">
<title>x23:e&#45;&gt;n14:w</title>
<path fill="none" stroke="black" d="M2211.22,-268.75C2251.66,-268.75 2264.49,-268.54 2299.97,-268.51"/>
<polygon fill="black" stroke="black" points="2299.68,-272.01 2309.68,-268.5 2299.68,-265.01 2299.68,-272.01"/>
</g>
<!-- x25 -->
<g id="node51" class="node">
<title>x25</title>
<path fill="none" stroke="black" d="M2152.97,-393.5C2152.97,-393.5 2204.97,-393.5 2204.97,-393.5 2210.97,-393.5 2216.97,-399.5 2216.97,-405.5 2216.97,-405.5 2216.97,-417.5 2216.97,-417.5 2216.97,-423.5 2210.97,-429.5 2204.97,-429.5 2204.97,-429.5 2152.97,-429.5 2152.97,-429.5 2146.97,-429.5 2140.97,-423.5 2140.97,-417.5 2140.97,-417.5 2140.97,-405.5 2140.97,-405.5 2140.97,-399.5 2146.97,-393.5 2152.97,-393.5"/>
<text text-anchor="middle" x="2178.97" y="-406.7" font-family="Times,serif" font-size="14.00">18:0 &#45; 24:6</text>
</g>
<!-- x24&#45;&gt;x25 -->
<g id="edge22" class="edge">
<title>x24:e&#45;&gt;x25:w</title>
<path fill="none" stroke="black" stroke-width="3" d="M2109.47,-395.47C2116.3,-399.06 2120.63,-405.06 2127.5,-408.61"/>
<polygon fill="none" stroke="black" stroke-width="3" points="2111.16,-395.86 2104.4,-398.39 2099.48,-393.12 2106.23,-390.6 2111.16,-395.86"/>
<polygon fill="none" stroke="black" stroke-width="3" points="2125.64,-408.18 2132.39,-405.64 2137.33,-410.89 2130.59,-413.43 2125.64,-408.18"/>
</g>
<!-- x25&#45;&gt;n19 -->
<g id="edge55" class="edge">
<title>x25:e&#45;&gt;n19:w</title>
<path fill="none" stroke="black" stroke-width="3" d="M2217.97,-411.75C2226.09,-411.75 2222.87,-424.42 2216.97,-430 2192.44,-453.22 2174.73,-431.06 2140.97,-430 2073.81,-427.89 2056.55,-430.38 1990.09,-420.5 1923.29,-410.56 1885.57,-437.29 1842.22,-385.5 1840.53,-383.48 1838.98,-380.85 1837.94,-378.23"/>
<polygon fill="black" stroke="black" stroke-width="3" points="1840.32,-382.43 1839.89,-371.84 1833.62,-380.38 1840.32,-382.43"/>
</g>
<!-- n12&#45;&gt;x4 -->
<g id="edge28" class="edge">
<title>n12:e&#45;&gt;x4:w</title>
<path fill="none" stroke="black" stroke-width="3" d="M3765.35,-440.5C3776.73,-440.5 3782.04,-440.63 3789.9,-440.7"/>
<polygon fill="black" stroke="black" stroke-width="3" points="3786.79,-444.19 3796.81,-440.73 3786.83,-437.19 3786.79,-444.19"/>
</g>
<!-- n13&#45;&gt;x1 -->
<g id="edge31" class="edge">
<title>n13:e&#45;&gt;x1:w</title>
<path fill="none" stroke="black" stroke-width="3" d="M1088.87,-284.5C1117.12,-284.5 1119.99,-311.38 1141.49,-318.53"/>
<polygon fill="black" stroke="black" stroke-width="3" points="1137.94,-321.53 1148.35,-319.57 1138.99,-314.61 1137.94,-321.53"/>
</g>
<!-- n13&#45;&gt;x5 -->
<g id="edge32" class="edge">
<title>n13:e&#45;&gt;x5:w</title>
<path fill="none" stroke="black" stroke-width="3" d="M1088.87,-284.5C1113.75,-284.5 1121.6,-274.44 1141.55,-271.53"/>
<polygon fill="black" stroke="black" stroke-width="3" points="1138.58,-275.24 1148.31,-271.06 1138.1,-268.26 1138.58,-275.24"/>
</g>
<!-- n14&#45;&gt;x7 -->
<g id="edge35" class="edge">
<title>n14:e&#45;&gt;x7:w</title>
<path fill="none" stroke="black" stroke-width="3" d="M2317.75,-268.5C2359.97,-268.5 2371.5,-251.16 2408.45,-248.18"/>
<polygon fill="black" stroke="black" stroke-width="3" points="2405.2,-251.81 2415.06,-247.93 2404.93,-244.82 2405.2,-251.81"/>
</g>
<!-- n5&#45;&gt;x0 -->
<g id="edge73" class="edge">
<title>n5:e&#45;&gt;x0:w</title>
<path fill="none" stroke="black" d="M877.37,-323.5C979.63,-323.5 982.33,-423.5 1084.59,-423.5 1084.59,-423.5 1084.59,-423.5 1185.09,-423.5 1254.06,-423.5 1271.42,-417.77 1339.09,-404.5 1350.78,-402.21 1355.7,-398.17 1363.7,-396.09"/>
<polygon fill="black" stroke="black" points="1364.07,-399.57 1373.59,-394.93 1363.25,-392.61 1364.07,-399.57"/>
</g>
<!-- n5&#45;&gt;x1 -->
<g id="edge74" class="edge">
<title>n5:e&#45;&gt;x1:w</title>
<path fill="none" stroke="black" d="M877.37,-323.5C935.29,-323.5 1074.44,-342.41 1141.56,-344.55"/>
<polygon fill="black" stroke="black" points="1141.27,-348.05 1151.33,-344.72 1141.39,-341.05 1141.27,-348.05"/>
</g>
<!-- n5&#45;&gt;x21 -->
<g id="edge75" class="edge">
<title>n5:e&#45;&gt;x21:w</title>
<path fill="none" stroke="black" d="M877.37,-323.5C909.71,-323.5 917.72,-304.63 944.55,-300.35"/>
<polygon fill="black" stroke="black" points="944.63,-303.86 954.33,-299.61 944.1,-296.88 944.63,-303.86"/>
</g>
</g>
</svg>
