<?xml version="1.0" encoding="UTF-8" standalone="no"?>
<!DOCTYPE svg PUBLIC "-//W3C//DTD SVG 1.1//EN"
 "http://www.w3.org/Graphics/SVG/1.1/DTD/svg11.dtd">
<!-- Generated by graphviz version 12.2.1 (20241206.2353)
 -->
<!-- Title: top Pages: 1 -->
<svg width="1695pt" height="243pt"
 viewBox="0.00 0.00 1694.87 243.00" xmlns="http://www.w3.org/2000/svg" xmlns:xlink="http://www.w3.org/1999/xlink">
<g id="graph0" class="graph" transform="scale(1 1) rotate(0) translate(4 239)">
<title>top</title>
<polygon fill="white" stroke="none" points="-4,4 -4,-239 1690.87,-239 1690.87,4 -4,4"/>
<text text-anchor="middle" x="843.44" y="-7.2" font-family="Times,serif" font-size="14.00">top</text>
<!-- n6 -->
<g id="node1" class="node">
<title>n6</title>
<polygon fill="none" stroke="black" points="107.84,-130.04 107.84,-144.96 76.26,-155.5 31.59,-155.5 0,-144.96 0,-130.04 31.59,-119.5 76.26,-119.5 107.84,-130.04"/>
<text text-anchor="middle" x="53.92" y="-132.45" font-family="Times,serif" font-size="14.00">input_data</text>
</g>
<!-- x0 -->
<g id="node5" class="node">
<title>x0</title>
<path fill="none" stroke="black" d="M155.84,-198.5C155.84,-198.5 194.34,-198.5 194.34,-198.5 200.34,-198.5 206.34,-204.5 206.34,-210.5 206.34,-210.5 206.34,-222.5 206.34,-222.5 206.34,-228.5 200.34,-234.5 194.34,-234.5 194.34,-234.5 155.84,-234.5 155.84,-234.5 149.84,-234.5 143.84,-228.5 143.84,-222.5 143.84,-222.5 143.84,-210.5 143.84,-210.5 143.84,-204.5 149.84,-198.5 155.84,-198.5"/>
<text text-anchor="middle" x="175.09" y="-211.7" font-family="Times,serif" font-size="14.00">2:1 &#45; 1:0</text>
</g>
<!-- n6&#45;&gt;x0 -->
<g id="edge14" class="edge">
<title>n6:e&#45;&gt;x0:w</title>
<path fill="none" stroke="black" stroke-width="3" d="M107.84,-137.5C141.84,-137.5 114,-198.72 133.02,-213.55"/>
<polygon fill="black" stroke="black" stroke-width="3" points="128.91,-215.97 139.49,-215.46 130.89,-209.26 128.91,-215.97"/>
</g>
<!-- x1 -->
<g id="node6" class="node">
<title>x1</title>
<path fill="none" stroke="black" d="M155.84,-143.5C155.84,-143.5 194.34,-143.5 194.34,-143.5 200.34,-143.5 206.34,-149.5 206.34,-155.5 206.34,-155.5 206.34,-167.5 206.34,-167.5 206.34,-173.5 200.34,-179.5 194.34,-179.5 194.34,-179.5 155.84,-179.5 155.84,-179.5 149.84,-179.5 143.84,-173.5 143.84,-167.5 143.84,-167.5 143.84,-155.5 143.84,-155.5 143.84,-149.5 149.84,-143.5 155.84,-143.5"/>
<text text-anchor="middle" x="175.09" y="-156.7" font-family="Times,serif" font-size="14.00">5:4 &#45; 1:0</text>
</g>
<!-- n6&#45;&gt;x1 -->
<g id="edge15" class="edge">
<title>n6:e&#45;&gt;x1:w</title>
<path fill="none" stroke="black" stroke-width="3" d="M107.84,-137.5C122.46,-137.5 124.52,-151.43 133.05,-158.17"/>
<polygon fill="black" stroke="black" stroke-width="3" points="128.94,-160.49 139.53,-160.32 131.14,-153.85 128.94,-160.49"/>
</g>
<!-- x2 -->
<g id="node8" class="node">
<title>x2</title>
<path fill="none" stroke="black" d="M269.97,-101.5C269.97,-101.5 308.47,-101.5 308.47,-101.5 314.47,-101.5 320.47,-107.5 320.47,-113.5 320.47,-113.5 320.47,-125.5 320.47,-125.5 320.47,-131.5 314.47,-137.5 308.47,-137.5 308.47,-137.5 269.97,-137.5 269.97,-137.5 263.97,-137.5 257.97,-131.5 257.97,-125.5 257.97,-125.5 257.97,-113.5 257.97,-113.5 257.97,-107.5 263.97,-101.5 269.97,-101.5"/>
<text text-anchor="middle" x="289.22" y="-114.7" font-family="Times,serif" font-size="14.00">2:1 &#45; 1:0</text>
</g>
<!-- n6&#45;&gt;x2 -->
<g id="edge16" class="edge">
<title>n6:e&#45;&gt;x2:w</title>
<path fill="none" stroke="black" stroke-width="3" d="M107.84,-137.5C137.95,-137.5 207.97,-123.05 245.88,-120.22"/>
<polygon fill="black" stroke="black" stroke-width="3" points="242.59,-123.87 252.43,-119.94 242.29,-116.88 242.59,-123.87"/>
</g>
<!-- x3 -->
<g id="node13" class="node">
<title>x3</title>
<path fill="none" stroke="black" d="M269.97,-46.5C269.97,-46.5 308.47,-46.5 308.47,-46.5 314.47,-46.5 320.47,-52.5 320.47,-58.5 320.47,-58.5 320.47,-70.5 320.47,-70.5 320.47,-76.5 314.47,-82.5 308.47,-82.5 308.47,-82.5 269.97,-82.5 269.97,-82.5 263.97,-82.5 257.97,-76.5 257.97,-70.5 257.97,-70.5 257.97,-58.5 257.97,-58.5 257.97,-52.5 263.97,-46.5 269.97,-46.5"/>
<text text-anchor="middle" x="289.22" y="-59.7" font-family="Times,serif" font-size="14.00">2:1 &#45; 1:0</text>
</g>
<!-- n6&#45;&gt;x3 -->
<g id="edge17" class="edge">
<title>n6:e&#45;&gt;x3:w</title>
<path fill="none" stroke="black" stroke-width="3" d="M107.84,-137.5C115.76,-137.5 213.39,-83.77 246.55,-68.66"/>
<polygon fill="black" stroke="black" stroke-width="3" points="244.58,-73.14 252.71,-66.35 242.12,-66.58 244.58,-73.14"/>
</g>
<!-- n7 -->
<g id="node2" class="node">
<title>n7</title>
<polygon fill="none" stroke="black" points="1434.5,-63.04 1434.5,-77.96 1400,-88.5 1351.2,-88.5 1316.69,-77.96 1316.69,-63.04 1351.2,-52.5 1400,-52.5 1434.5,-63.04"/>
<text text-anchor="middle" x="1375.6" y="-65.45" font-family="Times,serif" font-size="14.00">output_data</text>
</g>
<!-- x5 -->
<g id="node16" class="node">
<title>x5</title>
<path fill="none" stroke="black" d="M1482.5,-58C1482.5,-58 1551.75,-58 1551.75,-58 1557.75,-58 1563.75,-64 1563.75,-70 1563.75,-70 1563.75,-95 1563.75,-95 1563.75,-101 1557.75,-107 1551.75,-107 1551.75,-107 1482.5,-107 1482.5,-107 1476.5,-107 1470.5,-101 1470.5,-95 1470.5,-95 1470.5,-70 1470.5,-70 1470.5,-64 1476.5,-58 1482.5,-58"/>
<text text-anchor="middle" x="1517.13" y="-89.7" font-family="Times,serif" font-size="14.00">0 &#45;&gt; 20:9</text>
<polyline fill="none" stroke="black" points="1470.5,-82.5 1563.75,-82.5"/>
<text text-anchor="middle" x="1517.13" y="-65.2" font-family="Times,serif" font-size="14.00">9x 10:10 &#45; 8:0</text>
</g>
<!-- n7&#45;&gt;x5 -->
<g id="edge22" class="edge">
<title>n7:e&#45;&gt;x5:w</title>
<path fill="none" stroke="black" stroke-width="3" d="M1434.5,-70.5C1445.88,-70.5 1451.19,-70.37 1459.06,-70.3"/>
<polygon fill="black" stroke="black" stroke-width="3" points="1455.98,-73.81 1465.96,-70.27 1455.95,-66.81 1455.98,-73.81"/>
</g>
<!-- n8 -->
<g id="node3" class="node">
<title>n8</title>
<polygon fill="none" stroke="black" points="686.09,-115.5 630.84,-97.5 686.09,-79.5 741.34,-97.5 686.09,-115.5"/>
<text text-anchor="middle" x="686.09" y="-92.45" font-family="Times,serif" font-size="14.00">temp_0</text>
</g>
<!-- c15 -->
<g id="node10" class="node">
<title>c15</title>
<polygon fill="none" stroke="black" points="777.34,-25 777.34,-66 868.84,-66 868.84,-25 777.34,-25"/>
<text text-anchor="middle" x="790.22" y="-40.7" font-family="Times,serif" font-size="14.00">A</text>
<polyline fill="none" stroke="black" points="803.09,-25 803.09,-66"/>
<text text-anchor="middle" x="823.09" y="-48.7" font-family="Times,serif" font-size="14.00">$5</text>
<text text-anchor="middle" x="823.09" y="-32.2" font-family="Times,serif" font-size="14.00">$not</text>
<polyline fill="none" stroke="black" points="843.09,-25 843.09,-66"/>
<text text-anchor="middle" x="855.97" y="-40.7" font-family="Times,serif" font-size="14.00">Y</text>
</g>
<!-- n8&#45;&gt;c15 -->
<g id="edge24" class="edge">
<title>n8:e&#45;&gt;c15:w</title>
<path fill="none" stroke="black" stroke-width="3" d="M741.34,-97.5C764.54,-97.5 754.79,-62.01 766.67,-49.81"/>
<polygon fill="black" stroke="black" stroke-width="3" points="765,-54.19 773.1,-47.36 762.51,-47.65 765,-54.19"/>
</g>
<!-- c16 -->
<g id="node11" class="node">
<title>c16</title>
<polygon fill="none" stroke="black" points="780.34,-85 780.34,-134 865.84,-134 865.84,-85 780.34,-85"/>
<text text-anchor="middle" x="793.22" y="-116.7" font-family="Times,serif" font-size="14.00">A</text>
<polyline fill="none" stroke="black" points="780.34,-109.5 806.09,-109.5"/>
<text text-anchor="middle" x="793.22" y="-92.2" font-family="Times,serif" font-size="14.00">B</text>
<polyline fill="none" stroke="black" points="806.09,-85 806.09,-134"/>
<text text-anchor="middle" x="823.09" y="-112.7" font-family="Times,serif" font-size="14.00">$4</text>
<text text-anchor="middle" x="823.09" y="-96.2" font-family="Times,serif" font-size="14.00">$or</text>
<polyline fill="none" stroke="black" points="840.09,-85 840.09,-134"/>
<text text-anchor="middle" x="852.97" y="-104.7" font-family="Times,serif" font-size="14.00">Y</text>
</g>
<!-- n8&#45;&gt;c16 -->
<g id="edge25" class="edge">
<title>n8:e&#45;&gt;c16:w</title>
<path fill="none" stroke="black" stroke-width="3" d="M741.34,-97.5C753.74,-97.5 759.32,-97.37 768.09,-97.29"/>
<polygon fill="black" stroke="black" stroke-width="3" points="764.81,-100.81 774.8,-97.27 764.79,-93.81 764.81,-100.81"/>
</g>
<!-- n8&#45;&gt;c16 -->
<g id="edge26" class="edge">
<title>n8:e&#45;&gt;c16:w</title>
<path fill="none" stroke="black" stroke-width="3" d="M741.34,-97.5C756.84,-97.5 759.11,-112.01 768.61,-118.58"/>
<polygon fill="black" stroke="black" stroke-width="3" points="764.41,-120.99 774.99,-120.46 766.39,-114.27 764.41,-120.99"/>
</g>
<!-- c12 -->
<g id="node4" class="node">
<title>c12</title>
<polygon fill="none" stroke="black" points="242.34,-157 242.34,-206 336.09,-206 336.09,-157 242.34,-157"/>
<text text-anchor="middle" x="255.22" y="-188.7" font-family="Times,serif" font-size="14.00">A</text>
<polyline fill="none" stroke="black" points="242.34,-181.5 268.09,-181.5"/>
<text text-anchor="middle" x="255.22" y="-164.2" font-family="Times,serif" font-size="14.00">B</text>
<polyline fill="none" stroke="black" points="268.09,-157 268.09,-206"/>
<text text-anchor="middle" x="289.22" y="-184.7" font-family="Times,serif" font-size="14.00">$1</text>
<text text-anchor="middle" x="289.22" y="-168.2" font-family="Times,serif" font-size="14.00">$add</text>
<polyline fill="none" stroke="black" points="310.34,-157 310.34,-206"/>
<text text-anchor="middle" x="323.22" y="-176.7" font-family="Times,serif" font-size="14.00">Y</text>
</g>
<!-- c13 -->
<g id="node7" class="node">
<title>c13</title>
<polygon fill="none" stroke="black" points="372.09,-107 372.09,-156 465.84,-156 465.84,-107 372.09,-107"/>
<text text-anchor="middle" x="384.97" y="-138.7" font-family="Times,serif" font-size="14.00">A</text>
<polyline fill="none" stroke="black" points="372.09,-131.5 397.84,-131.5"/>
<text text-anchor="middle" x="384.97" y="-114.2" font-family="Times,serif" font-size="14.00">B</text>
<polyline fill="none" stroke="black" points="397.84,-107 397.84,-156"/>
<text text-anchor="middle" x="418.97" y="-134.7" font-family="Times,serif" font-size="14.00">$2</text>
<text text-anchor="middle" x="418.97" y="-118.2" font-family="Times,serif" font-size="14.00">$add</text>
<polyline fill="none" stroke="black" points="440.09,-107 440.09,-156"/>
<text text-anchor="middle" x="452.97" y="-126.7" font-family="Times,serif" font-size="14.00">Y</text>
</g>
<!-- c12&#45;&gt;c13 -->
<g id="edge7" class="edge">
<title>c12:e&#45;&gt;c13:w</title>
<path fill="none" stroke="black" stroke-width="3" d="M336.09,-181.75C354.63,-181.75 351.71,-157.62 361.53,-147.82"/>
<polygon fill="black" stroke="black" stroke-width="3" points="359.78,-152.24 367.85,-145.38 357.26,-145.71 359.78,-152.24"/>
</g>
<!-- x0&#45;&gt;c12 -->
<g id="edge1" class="edge">
<title>x0:e&#45;&gt;c12:w</title>
<path fill="none" stroke="black" stroke-width="3" d="M218.3,-212.11C222.91,-208.09 225.78,-202.15 230.39,-198.12"/>
<polygon fill="none" stroke="black" stroke-width="3" points="220.15,-211.44 215.89,-217.26 208.88,-215.57 213.14,-209.75 220.15,-211.44"/>
<polygon fill="none" stroke="black" stroke-width="3" points="228.53,-198.8 232.79,-192.99 239.8,-194.68 235.54,-200.5 228.53,-198.8"/>
</g>
<!-- x1&#45;&gt;c12 -->
<g id="edge2" class="edge">
<title>x1:e&#45;&gt;c12:w</title>
<path fill="none" stroke="black" stroke-width="3" d="M219.15,-163.46C222.82,-164.64 225.94,-166.14 229.62,-167.32"/>
<polygon fill="none" stroke="black" stroke-width="3" points="220.88,-163.72 214.34,-166.77 209.01,-161.91 215.55,-158.86 220.88,-163.72"/>
<polygon fill="none" stroke="black" stroke-width="3" points="227.8,-167.05 234.33,-163.99 239.67,-168.84 233.14,-171.9 227.8,-167.05"/>
</g>
<!-- c17 -->
<g id="node12" class="node">
<title>c17</title>
<polygon fill="none" stroke="black" points="501.84,-73 501.84,-122 594.84,-122 594.84,-73 501.84,-73"/>
<text text-anchor="middle" x="514.72" y="-104.7" font-family="Times,serif" font-size="14.00">A</text>
<polyline fill="none" stroke="black" points="501.84,-97.5 527.59,-97.5"/>
<text text-anchor="middle" x="514.72" y="-80.2" font-family="Times,serif" font-size="14.00">B</text>
<polyline fill="none" stroke="black" points="527.59,-73 527.59,-122"/>
<text text-anchor="middle" x="548.34" y="-100.7" font-family="Times,serif" font-size="14.00">$3</text>
<text text-anchor="middle" x="548.34" y="-84.2" font-family="Times,serif" font-size="14.00">$sub</text>
<polyline fill="none" stroke="black" points="569.09,-73 569.09,-122"/>
<text text-anchor="middle" x="581.97" y="-92.7" font-family="Times,serif" font-size="14.00">Y</text>
</g>
<!-- c13&#45;&gt;c17 -->
<g id="edge8" class="edge">
<title>c13:e&#45;&gt;c17:w</title>
<path fill="none" stroke="black" stroke-width="3" d="M465.84,-131.75C479.9,-131.75 482.58,-119.38 490.94,-113.19"/>
<polygon fill="black" stroke="black" stroke-width="3" points="489.03,-117.46 497.51,-111.12 486.92,-110.79 489.03,-117.46"/>
</g>
<!-- x2&#45;&gt;c13 -->
<g id="edge3" class="edge">
<title>x2:e&#45;&gt;c13:w</title>
<path fill="none" stroke="black" stroke-width="3" d="M334.16,-119.47C343.46,-119.42 349.82,-119.33 359.04,-119.28"/>
<polygon fill="none" stroke="black" stroke-width="3" points="336.17,-119.46 330.18,-123.48 324.17,-119.49 330.16,-115.48 336.17,-119.46"/>
<polygon fill="none" stroke="black" stroke-width="3" points="357.39,-119.29 363.38,-115.27 369.39,-119.26 363.4,-123.27 357.39,-119.29"/>
</g>
<!-- c14 -->
<g id="node9" class="node">
<title>c14</title>
<polygon fill="none" stroke="black" points="944.44,-73 944.44,-122 1040.44,-122 1040.44,-73 944.44,-73"/>
<text text-anchor="middle" x="957.32" y="-104.7" font-family="Times,serif" font-size="14.00">A</text>
<polyline fill="none" stroke="black" points="944.44,-97.5 970.19,-97.5"/>
<text text-anchor="middle" x="957.32" y="-80.2" font-family="Times,serif" font-size="14.00">B</text>
<polyline fill="none" stroke="black" points="970.19,-73 970.19,-122"/>
<text text-anchor="middle" x="992.44" y="-100.7" font-family="Times,serif" font-size="14.00">$6</text>
<text text-anchor="middle" x="992.44" y="-84.2" font-family="Times,serif" font-size="14.00">$mul</text>
<polyline fill="none" stroke="black" points="1014.69,-73 1014.69,-122"/>
<text text-anchor="middle" x="1027.57" y="-92.7" font-family="Times,serif" font-size="14.00">Y</text>
</g>
<!-- c18 -->
<g id="node14" class="node">
<title>c18</title>
<polygon fill="none" stroke="black" points="1076.44,-46 1076.44,-95 1168.69,-95 1168.69,-46 1076.44,-46"/>
<text text-anchor="middle" x="1089.32" y="-77.7" font-family="Times,serif" font-size="14.00">A</text>
<polyline fill="none" stroke="black" points="1076.44,-70.5 1102.19,-70.5"/>
<text text-anchor="middle" x="1089.32" y="-53.2" font-family="Times,serif" font-size="14.00">B</text>
<polyline fill="none" stroke="black" points="1102.19,-46 1102.19,-95"/>
<text text-anchor="middle" x="1122.57" y="-73.7" font-family="Times,serif" font-size="14.00">$8</text>
<text text-anchor="middle" x="1122.57" y="-57.2" font-family="Times,serif" font-size="14.00">$xor</text>
<polyline fill="none" stroke="black" points="1142.94,-46 1142.94,-95"/>
<text text-anchor="middle" x="1155.82" y="-65.7" font-family="Times,serif" font-size="14.00">Y</text>
</g>
<!-- c14&#45;&gt;c18 -->
<g id="edge9" class="edge">
<title>c14:e&#45;&gt;c18:w</title>
<path fill="none" stroke="black" stroke-width="3" d="M1040.44,-97.75C1053.17,-97.75 1057.27,-89.66 1065.42,-85.36"/>
<polygon fill="black" stroke="black" stroke-width="3" points="1063.1,-89.51 1072.02,-83.8 1061.49,-82.7 1063.1,-89.51"/>
</g>
<!-- n4 -->
<g id="node18" class="node">
<title>n4</title>
<ellipse fill="black" stroke="black" cx="906.64" cy="-45.5" rx="1.8" ry="1.8"/>
</g>
<!-- c15&#45;&gt;n4 -->
<g id="edge10" class="edge">
<title>c15:e&#45;&gt;n4:w</title>
<path fill="none" stroke="black" stroke-width="3" d="M868.84,-45.75C880.22,-45.75 885.53,-45.62 893.4,-45.55"/>
<polygon fill="black" stroke="black" stroke-width="3" points="890.32,-49.06 900.3,-45.52 890.29,-42.06 890.32,-49.06"/>
</g>
<!-- c16&#45;&gt;c14 -->
<g id="edge13" class="edge">
<title>c16:e&#45;&gt;c14:w</title>
<path fill="none" stroke="black" stroke-width="3" d="M866.84,-109.75C897.15,-109.75 907.49,-109.75 932.96,-109.75"/>
<polygon fill="black" stroke="black" stroke-width="3" points="929.9,-113.25 939.9,-109.75 929.9,-106.25 929.9,-113.25"/>
</g>
<!-- c17&#45;&gt;n8 -->
<g id="edge23" class="edge">
<title>c17:e&#45;&gt;n8:w</title>
<path fill="none" stroke="black" stroke-width="3" d="M594.84,-97.75C606.22,-97.75 611.53,-97.62 619.39,-97.55"/>
<polygon fill="black" stroke="black" stroke-width="3" points="616.32,-101.06 626.3,-97.52 616.28,-94.06 616.32,-101.06"/>
</g>
<!-- x3&#45;&gt;c17 -->
<g id="edge4" class="edge">
<title>x3:e&#45;&gt;c17:w</title>
<path fill="none" stroke="black" stroke-width="3" d="M334.17,-64.68C400.31,-66.59 422.91,-83.13 488.98,-85.07"/>
<polygon fill="none" stroke="black" stroke-width="3" points="336.17,-64.71 330.11,-68.62 324.17,-64.54 330.23,-60.62 336.17,-64.71"/>
<polygon fill="none" stroke="black" stroke-width="3" points="487.14,-85.04 493.19,-81.13 499.14,-85.21 493.08,-89.13 487.14,-85.04"/>
</g>
<!-- x4 -->
<g id="node15" class="node">
<title>x4</title>
<path fill="none" stroke="black" d="M1216.69,-46C1216.69,-46 1268.69,-46 1268.69,-46 1274.69,-46 1280.69,-52 1280.69,-58 1280.69,-58 1280.69,-83 1280.69,-83 1280.69,-89 1274.69,-95 1268.69,-95 1268.69,-95 1216.69,-95 1216.69,-95 1210.69,-95 1204.69,-89 1204.69,-83 1204.69,-83 1204.69,-58 1204.69,-58 1204.69,-52 1210.69,-46 1216.69,-46"/>
<text text-anchor="middle" x="1242.69" y="-77.7" font-family="Times,serif" font-size="14.00">1:1 &#45; 10:10</text>
<polyline fill="none" stroke="black" points="1204.69,-70.5 1280.69,-70.5"/>
<text text-anchor="middle" x="1242.69" y="-53.2" font-family="Times,serif" font-size="14.00">0:0 &#45; 0:0</text>
</g>
<!-- c18&#45;&gt;x4 -->
<g id="edge5" class="edge">
<title>c18:e&#45;&gt;x4:w</title>
<path fill="none" stroke="black" stroke-width="3" d="M1181.41,-70.69C1185.01,-70.65 1188.14,-70.6 1191.72,-70.57"/>
<polygon fill="none" stroke="black" stroke-width="3" points="1183.4,-70.68 1177.42,-74.71 1171.4,-70.74 1177.38,-66.71 1183.4,-70.68"/>
<polygon fill="none" stroke="black" stroke-width="3" points="1189.99,-70.57 1195.97,-66.54 1201.99,-70.51 1196.01,-74.54 1189.99,-70.57"/>
</g>
<!-- x4&#45;&gt;n7 -->
<g id="edge18" class="edge">
<title>x4:e&#45;&gt;n7:w</title>
<path fill="none" stroke="black" d="M1280.69,-58.25C1292.97,-58.25 1297.49,-64.72 1305.52,-68.25"/>
<polygon fill="black" stroke="black" points="1304.71,-71.66 1315.21,-70.2 1306.09,-64.8 1304.71,-71.66"/>
</g>
<!-- x4&#45;&gt;n7 -->
<g id="edge19" class="edge">
<title>x4:e&#45;&gt;n7:w</title>
<path fill="none" stroke="black" d="M1280.69,-82.75C1292.97,-82.75 1297.49,-76.28 1305.52,-72.75"/>
<polygon fill="black" stroke="black" points="1306.09,-76.2 1315.21,-70.8 1304.71,-69.34 1306.09,-76.2"/>
</g>
<!-- x6 -->
<g id="node17" class="node">
<title>x6</title>
<path fill="none" stroke="black" d="M1611.75,-58C1611.75,-58 1670.5,-58 1670.5,-58 1676.5,-58 1682.5,-64 1682.5,-70 1682.5,-70 1682.5,-95 1682.5,-95 1682.5,-101 1676.5,-107 1670.5,-107 1670.5,-107 1611.75,-107 1611.75,-107 1605.75,-107 1599.75,-101 1599.75,-95 1599.75,-95 1599.75,-70 1599.75,-70 1599.75,-64 1605.75,-58 1611.75,-58"/>
<text text-anchor="middle" x="1641.13" y="-89.7" font-family="Times,serif" font-size="14.00">20:9 &#45; 22:11</text>
<polyline fill="none" stroke="black" points="1599.75,-82.5 1682.5,-82.5"/>
<text text-anchor="middle" x="1641.13" y="-65.2" font-family="Times,serif" font-size="14.00">8:0 &#45; 9:1</text>
</g>
<!-- x5&#45;&gt;x6 -->
<g id="edge6" class="edge">
<title>x5:e&#45;&gt;x6:w</title>
<path fill="none" stroke="black" stroke-width="3" d="M1576.48,-82.5C1580.07,-82.5 1583.21,-82.5 1586.78,-82.5"/>
<polygon fill="none" stroke="black" stroke-width="3" points="1578.46,-82.5 1572.46,-86.5 1566.46,-82.5 1572.46,-78.5 1578.46,-82.5"/>
<polygon fill="none" stroke="black" stroke-width="3" points="1585.05,-82.5 1591.05,-78.5 1597.05,-82.5 1591.05,-86.5 1585.05,-82.5"/>
</g>
<!-- x6&#45;&gt;n7 -->
<g id="edge20" class="edge">
<title>x6:e&#45;&gt;n7:w</title>
<path fill="none" stroke="black" stroke-width="3" d="M1683.5,-70.25C1689.19,-70.25 1686.53,-61.51 1682.5,-57.5 1645.03,-20.12 1616.65,-50.5 1563.75,-48.5 1522.34,-46.93 1508.36,-31.64 1470.5,-48.5 1448.66,-58.23 1456.35,-78.77 1434.5,-88.5 1386.57,-109.85 1354.56,-124.56 1316.44,-88.5 1314.44,-86.61 1312.75,-83.89 1311.72,-81.14"/>
<polygon fill="black" stroke="black" stroke-width="3" points="1313.94,-85.38 1313.94,-74.79 1307.34,-83.07 1313.94,-85.38"/>
</g>
<!-- x6&#45;&gt;n7 -->
<g id="edge21" class="edge">
<title>x6:e&#45;&gt;n7:w</title>
<path fill="none" stroke="black" stroke-width="3" d="M1683.5,-94.75C1689.19,-94.75 1686.53,-103.49 1682.5,-107.5 1645.03,-144.88 1616.65,-114.5 1563.75,-116.5 1453.22,-120.68 1389.65,-171.43 1316.44,-88.5 1314.7,-86.53 1313.14,-83.91 1312.1,-81.29"/>
<polygon fill="black" stroke="black" stroke-width="3" points="1314.48,-85.42 1314.1,-74.84 1307.79,-83.35 1314.48,-85.42"/>
</g>
<!-- n4&#45;&gt;c14 -->
<g id="edge11" class="edge">
<title>n4:e&#45;&gt;c14:w</title>
<path fill="none" stroke="black" stroke-width="3" d="M908.44,-45.5C927.62,-45.5 923.81,-71.24 934.01,-81.29"/>
<polygon fill="black" stroke="black" stroke-width="3" points="929.61,-83.37 940.2,-83.64 932.09,-76.82 929.61,-83.37"/>
</g>
<!-- n4&#45;&gt;c18 -->
<g id="edge12" class="edge">
<title>n4:e&#45;&gt;c18:w</title>
<path fill="none" stroke="black" stroke-width="3" d="M908.44,-45.5C979.37,-45.5 999.48,-56.94 1065.05,-58.15"/>
<polygon fill="black" stroke="black" stroke-width="3" points="1061.87,-61.62 1071.9,-58.21 1061.93,-54.62 1061.87,-61.62"/>
</g>
</g>
</svg>
