<?xml version="1.0" encoding="UTF-8" standalone="no"?>
<!DOCTYPE svg PUBLIC "-//W3C//DTD SVG 1.1//EN"
 "http://www.w3.org/Graphics/SVG/1.1/DTD/svg11.dtd">
<!-- Generated by graphviz version 12.2.1 (20241206.2353)
 -->
<!-- Title: top Pages: 1 -->
<svg width="1728pt" height="324pt"
 viewBox="0.00 0.00 1727.84 323.50" xmlns="http://www.w3.org/2000/svg" xmlns:xlink="http://www.w3.org/1999/xlink">
<g id="graph0" class="graph" transform="scale(1 1) rotate(0) translate(4 319.5)">
<title>top</title>
<polygon fill="white" stroke="none" points="-4,4 -4,-319.5 1723.84,-319.5 1723.84,4 -4,4"/>
<text text-anchor="middle" x="859.92" y="-7.2" font-family="Times,serif" font-size="14.00">top</text>
<!-- n3 -->
<g id="node1" class="node">
<title>n3</title>
<polygon fill="none" stroke="black" points="107.84,-176.04 107.84,-190.96 76.26,-201.5 31.59,-201.5 0,-190.96 0,-176.04 31.59,-165.5 76.26,-165.5 107.84,-176.04"/>
<text text-anchor="middle" x="53.92" y="-178.45" font-family="Times,serif" font-size="14.00">input_data</text>
</g>
<!-- c9 -->
<g id="node4" class="node">
<title>c9</title>
<polygon fill="none" stroke="black" points="587.44,-253 587.44,-302 681.19,-302 681.19,-253 587.44,-253"/>
<text text-anchor="middle" x="600.32" y="-284.7" font-family="Times,serif" font-size="14.00">A</text>
<polyline fill="none" stroke="black" points="587.44,-277.5 613.19,-277.5"/>
<text text-anchor="middle" x="600.32" y="-260.2" font-family="Times,serif" font-size="14.00">B</text>
<polyline fill="none" stroke="black" points="613.19,-253 613.19,-302"/>
<text text-anchor="middle" x="634.32" y="-280.7" font-family="Times,serif" font-size="14.00">$2</text>
<text text-anchor="middle" x="634.32" y="-264.2" font-family="Times,serif" font-size="14.00">$add</text>
<polyline fill="none" stroke="black" points="655.44,-253 655.44,-302"/>
<text text-anchor="middle" x="668.32" y="-272.7" font-family="Times,serif" font-size="14.00">Y</text>
</g>
<!-- n3&#45;&gt;c9 -->
<g id="edge18" class="edge">
<title>n3:e&#45;&gt;c9:w</title>
<path fill="none" stroke="black" stroke-width="3" d="M107.84,-183.5C137.06,-183.5 119.25,-222.73 143.84,-238.5 209.2,-280.42 238.95,-264.5 316.59,-264.5 316.59,-264.5 316.59,-264.5 401.14,-264.5 480.06,-264.5 502.56,-265.18 576.19,-265.25"/>
<polygon fill="black" stroke="black" stroke-width="3" points="572.9,-268.74 582.9,-265.25 572.9,-261.74 572.9,-268.74"/>
</g>
<!-- c10 -->
<g id="node6" class="node">
<title>c10</title>
<polygon fill="none" stroke="black" points="896.11,-212 896.11,-261 989.86,-261 989.86,-212 896.11,-212"/>
<text text-anchor="middle" x="908.98" y="-243.7" font-family="Times,serif" font-size="14.00">A</text>
<polyline fill="none" stroke="black" points="896.11,-236.5 921.86,-236.5"/>
<text text-anchor="middle" x="908.98" y="-219.2" font-family="Times,serif" font-size="14.00">B</text>
<polyline fill="none" stroke="black" points="921.86,-212 921.86,-261"/>
<text text-anchor="middle" x="942.98" y="-239.7" font-family="Times,serif" font-size="14.00">$78</text>
<text text-anchor="middle" x="942.98" y="-223.2" font-family="Times,serif" font-size="14.00">$and</text>
<polyline fill="none" stroke="black" points="964.11,-212 964.11,-261"/>
<text text-anchor="middle" x="976.98" y="-231.7" font-family="Times,serif" font-size="14.00">Y</text>
</g>
<!-- n3&#45;&gt;c10 -->
<g id="edge15" class="edge">
<title>n3:e&#45;&gt;c10:w</title>
<path fill="none" stroke="black" stroke-width="3" d="M107.84,-183.5C126.59,-183.5 126.1,-199.44 143.84,-205.5 216.94,-230.46 239.35,-224.5 316.59,-224.5 316.59,-224.5 316.59,-224.5 635.32,-224.5 746.95,-224.5 777.63,-224.27 883.89,-224.25"/>
<polygon fill="black" stroke="black" stroke-width="3" points="880.57,-227.75 890.57,-224.25 880.57,-220.75 880.57,-227.75"/>
</g>
<!-- x4 -->
<g id="node11" class="node">
<title>x4</title>
<path fill="none" stroke="black" d="M294.97,-49.5C294.97,-49.5 340.22,-49.5 340.22,-49.5 346.22,-49.5 352.22,-55.5 352.22,-61.5 352.22,-61.5 352.22,-73.5 352.22,-73.5 352.22,-79.5 346.22,-85.5 340.22,-85.5 340.22,-85.5 294.97,-85.5 294.97,-85.5 288.97,-85.5 282.97,-79.5 282.97,-73.5 282.97,-73.5 282.97,-61.5 282.97,-61.5 282.97,-55.5 288.97,-49.5 294.97,-49.5"/>
<text text-anchor="middle" x="317.59" y="-62.7" font-family="Times,serif" font-size="14.00">10:1 &#45; 9:0</text>
</g>
<!-- n3&#45;&gt;x4 -->
<g id="edge19" class="edge">
<title>n3:e&#45;&gt;x4:w</title>
<path fill="none" stroke="black" stroke-width="3" d="M107.84,-183.5C133.8,-183.5 123.77,-153.97 143.84,-137.5 193.99,-96.34 211.24,-70.77 270.77,-68"/>
<polygon fill="black" stroke="black" stroke-width="3" points="267.51,-71.57 277.43,-67.85 267.35,-64.58 267.51,-71.57"/>
</g>
<!-- c12 -->
<g id="node12" class="node">
<title>c12</title>
<polygon fill="none" stroke="black" points="143.84,-147 143.84,-196 236.84,-196 236.84,-147 143.84,-147"/>
<text text-anchor="middle" x="156.72" y="-178.7" font-family="Times,serif" font-size="14.00">A</text>
<polyline fill="none" stroke="black" points="143.84,-171.5 169.59,-171.5"/>
<text text-anchor="middle" x="156.72" y="-154.2" font-family="Times,serif" font-size="14.00">B</text>
<polyline fill="none" stroke="black" points="169.59,-147 169.59,-196"/>
<text text-anchor="middle" x="190.34" y="-174.7" font-family="Times,serif" font-size="14.00">$1</text>
<text text-anchor="middle" x="190.34" y="-158.2" font-family="Times,serif" font-size="14.00">$sub</text>
<polyline fill="none" stroke="black" points="211.09,-147 211.09,-196"/>
<text text-anchor="middle" x="223.97" y="-166.7" font-family="Times,serif" font-size="14.00">Y</text>
</g>
<!-- n3&#45;&gt;c12 -->
<g id="edge16" class="edge">
<title>n3:e&#45;&gt;c12:w</title>
<path fill="none" stroke="black" stroke-width="3" d="M107.84,-183.5C119.22,-183.5 124.53,-183.63 132.39,-183.7"/>
<polygon fill="black" stroke="black" stroke-width="3" points="129.28,-187.19 139.3,-183.73 129.32,-180.19 129.28,-187.19"/>
</g>
<!-- n3&#45;&gt;c12 -->
<g id="edge17" class="edge">
<title>n3:e&#45;&gt;c12:w</title>
<path fill="none" stroke="black" stroke-width="3" d="M107.84,-183.5C122.46,-183.5 124.52,-169.57 133.05,-162.83"/>
<polygon fill="black" stroke="black" stroke-width="3" points="131.14,-167.15 139.53,-160.68 128.94,-160.51 131.14,-167.15"/>
</g>
<!-- n4 -->
<g id="node2" class="node">
<title>n4</title>
<polygon fill="none" stroke="black" points="1719.84,-43.04 1719.84,-57.96 1685.33,-68.5 1636.53,-68.5 1602.03,-57.96 1602.03,-43.04 1636.53,-32.5 1685.33,-32.5 1719.84,-43.04"/>
<text text-anchor="middle" x="1660.93" y="-45.45" font-family="Times,serif" font-size="14.00">output_data</text>
</g>
<!-- n5 -->
<g id="node3" class="node">
<title>n5</title>
<polygon fill="none" stroke="black" points="1266.78,-254.5 1211.52,-236.5 1266.78,-218.5 1322.03,-236.5 1266.78,-254.5"/>
<text text-anchor="middle" x="1266.78" y="-231.45" font-family="Times,serif" font-size="14.00">temp_0</text>
</g>
<!-- x3 -->
<g id="node10" class="node">
<title>x3</title>
<path fill="none" stroke="black" d="M1370.03,-138C1370.03,-138 1422.03,-138 1422.03,-138 1428.03,-138 1434.03,-144 1434.03,-150 1434.03,-150 1434.03,-175 1434.03,-175 1434.03,-181 1428.03,-187 1422.03,-187 1422.03,-187 1370.03,-187 1370.03,-187 1364.03,-187 1358.03,-181 1358.03,-175 1358.03,-175 1358.03,-150 1358.03,-150 1358.03,-144 1364.03,-138 1370.03,-138"/>
<text text-anchor="middle" x="1396.03" y="-169.7" font-family="Times,serif" font-size="14.00">0 &#45;&gt; 31:12</text>
<polyline fill="none" stroke="black" points="1358.03,-162.5 1434.03,-162.5"/>
<text text-anchor="middle" x="1396.03" y="-145.2" font-family="Times,serif" font-size="14.00">11:0 &#45; 11:0</text>
</g>
<!-- n5&#45;&gt;x3 -->
<g id="edge23" class="edge">
<title>n5:e&#45;&gt;x3:w</title>
<path fill="none" stroke="black" stroke-width="3" d="M1322.03,-236.5C1358.86,-236.5 1326.02,-168.68 1347.06,-153.32"/>
<polygon fill="black" stroke="black" stroke-width="3" points="1344.97,-157.54 1353.65,-151.47 1343.08,-150.8 1344.97,-157.54"/>
</g>
<!-- x1 -->
<g id="node7" class="node">
<title>x1</title>
<path fill="none" stroke="black" d="M729.19,-256.5C729.19,-256.5 781.19,-256.5 781.19,-256.5 787.19,-256.5 793.19,-262.5 793.19,-268.5 793.19,-268.5 793.19,-280.5 793.19,-280.5 793.19,-286.5 787.19,-292.5 781.19,-292.5 781.19,-292.5 729.19,-292.5 729.19,-292.5 723.19,-292.5 717.19,-286.5 717.19,-280.5 717.19,-280.5 717.19,-268.5 717.19,-268.5 717.19,-262.5 723.19,-256.5 729.19,-256.5"/>
<text text-anchor="middle" x="755.19" y="-269.7" font-family="Times,serif" font-size="14.00">11:0 &#45; 11:0</text>
</g>
<!-- c9&#45;&gt;x1 -->
<g id="edge8" class="edge">
<title>c9:e&#45;&gt;x1:w</title>
<path fill="none" stroke="black" stroke-width="3" d="M681.19,-277.75C692.61,-277.75 697.87,-276.23 705.73,-275.36"/>
<polygon fill="black" stroke="black" stroke-width="3" points="702.86,-279.01 712.66,-274.99 702.49,-272.02 702.86,-279.01"/>
</g>
<!-- x0 -->
<g id="node5" class="node">
<title>x0</title>
<path fill="none" stroke="black" d="M449.94,-147C449.94,-147 539.44,-147 539.44,-147 545.44,-147 551.44,-153 551.44,-159 551.44,-159 551.44,-184 551.44,-184 551.44,-190 545.44,-196 539.44,-196 539.44,-196 449.94,-196 449.94,-196 443.94,-196 437.94,-190 437.94,-184 437.94,-184 437.94,-159 437.94,-159 437.94,-153 443.94,-147 449.94,-147"/>
<text text-anchor="middle" x="494.69" y="-178.7" font-family="Times,serif" font-size="14.00">20x 31:31 &#45; 31:12</text>
<polyline fill="none" stroke="black" points="437.94,-171.5 551.44,-171.5"/>
<text text-anchor="middle" x="494.69" y="-154.2" font-family="Times,serif" font-size="14.00">11:0 &#45; 11:0</text>
</g>
<!-- x0&#45;&gt;c9 -->
<g id="edge1" class="edge">
<title>x0:e&#45;&gt;c9:w</title>
<path fill="none" stroke="black" stroke-width="3" d="M564.09,-174.66C590.11,-191.48 548.6,-270.3 575.03,-286.74"/>
<polygon fill="none" stroke="black" stroke-width="3" points="565.71,-175.07 558.91,-177.49 554.06,-172.16 560.86,-169.73 565.71,-175.07"/>
<polygon fill="none" stroke="black" stroke-width="3" points="573.15,-286.28 579.92,-283.81 584.81,-289.11 578.04,-291.59 573.15,-286.28"/>
</g>
<!-- x2 -->
<g id="node8" class="node">
<title>x2</title>
<path fill="none" stroke="black" d="M1108.15,-218.5C1108.15,-218.5 1160.15,-218.5 1160.15,-218.5 1166.15,-218.5 1172.15,-224.5 1172.15,-230.5 1172.15,-230.5 1172.15,-242.5 1172.15,-242.5 1172.15,-248.5 1166.15,-254.5 1160.15,-254.5 1160.15,-254.5 1108.15,-254.5 1108.15,-254.5 1102.15,-254.5 1096.15,-248.5 1096.15,-242.5 1096.15,-242.5 1096.15,-230.5 1096.15,-230.5 1096.15,-224.5 1102.15,-218.5 1108.15,-218.5"/>
<text text-anchor="middle" x="1134.15" y="-231.7" font-family="Times,serif" font-size="14.00">11:0 &#45; 11:0</text>
</g>
<!-- c10&#45;&gt;x2 -->
<g id="edge3" class="edge">
<title>c10:e&#45;&gt;x2:w</title>
<path fill="none" stroke="black" stroke-width="3" d="M1003.51,-236.74C1035.83,-236.71 1050.09,-236.54 1082.37,-236.51"/>
<polygon fill="none" stroke="black" stroke-width="3" points="1005.56,-236.74 999.56,-240.75 993.56,-236.75 999.56,-232.75 1005.56,-236.74"/>
<polygon fill="none" stroke="black" stroke-width="3" points="1080.45,-236.51 1086.44,-232.5 1092.45,-236.5 1086.45,-240.5 1080.45,-236.51"/>
</g>
<!-- x1&#45;&gt;c10 -->
<g id="edge2" class="edge">
<title>x1:e&#45;&gt;c10:w</title>
<path fill="none" stroke="black" stroke-width="3" d="M805.86,-273.81C837.99,-270.16 850.24,-253.13 882.32,-249.45"/>
<polygon fill="none" stroke="black" stroke-width="3" points="807.87,-273.7 802.1,-278.02 795.89,-274.35 801.66,-270.03 807.87,-273.7"/>
<polygon fill="none" stroke="black" stroke-width="3" points="880.43,-249.56 886.2,-245.23 892.41,-248.9 886.64,-253.22 880.43,-249.56"/>
</g>
<!-- x2&#45;&gt;n5 -->
<g id="edge21" class="edge">
<title>x2:e&#45;&gt;n5:w</title>
<path fill="none" stroke="black" stroke-width="3" d="M1173.15,-236.75C1185.68,-236.75 1191.3,-236.62 1200.16,-236.54"/>
<polygon fill="black" stroke="black" stroke-width="3" points="1197,-240.06 1206.98,-236.52 1196.97,-233.06 1197,-240.06"/>
</g>
<!-- c11 -->
<g id="node9" class="node">
<title>c11</title>
<polygon fill="none" stroke="black" points="1470.03,-26 1470.03,-75 1566.03,-75 1566.03,-26 1470.03,-26"/>
<text text-anchor="middle" x="1482.9" y="-57.7" font-family="Times,serif" font-size="14.00">A</text>
<polyline fill="none" stroke="black" points="1470.03,-50.5 1495.78,-50.5"/>
<text text-anchor="middle" x="1482.9" y="-33.2" font-family="Times,serif" font-size="14.00">B</text>
<polyline fill="none" stroke="black" points="1495.78,-26 1495.78,-75"/>
<text text-anchor="middle" x="1518.03" y="-53.7" font-family="Times,serif" font-size="14.00">$39</text>
<text text-anchor="middle" x="1518.03" y="-37.2" font-family="Times,serif" font-size="14.00">$mul</text>
<polyline fill="none" stroke="black" points="1540.28,-26 1540.28,-75"/>
<text text-anchor="middle" x="1553.15" y="-45.7" font-family="Times,serif" font-size="14.00">Y</text>
</g>
<!-- c11&#45;&gt;n4 -->
<g id="edge20" class="edge">
<title>c11:e&#45;&gt;n4:w</title>
<path fill="none" stroke="black" stroke-width="3" d="M1566.03,-50.75C1577.4,-50.75 1582.71,-50.62 1590.58,-50.55"/>
<polygon fill="black" stroke="black" stroke-width="3" points="1587.5,-54.06 1597.49,-50.52 1587.47,-47.06 1587.5,-54.06"/>
</g>
<!-- x3&#45;&gt;c11 -->
<g id="edge4" class="edge">
<title>x3:e&#45;&gt;c11:w</title>
<path fill="none" stroke="black" stroke-width="3" d="M1446.29,-158.95C1466.34,-143.47 1437.76,-81.96 1457.68,-66.36"/>
<polygon fill="none" stroke="black" stroke-width="3" points="1448.15,-158.41 1443.5,-163.92 1436.62,-161.75 1441.27,-156.24 1448.15,-158.41"/>
<polygon fill="none" stroke="black" stroke-width="3" points="1455.91,-66.88 1460.55,-61.35 1467.43,-63.51 1462.8,-69.03 1455.91,-66.88"/>
</g>
<!-- x4&#45;&gt;c11 -->
<g id="edge5" class="edge">
<title>x4:e&#45;&gt;c11:w</title>
<path fill="none" stroke="black" stroke-width="3" d="M366.21,-66.89C420.17,-61.67 432.99,-24.5 493.69,-24.5 493.69,-24.5 493.69,-24.5 1267.78,-24.5 1353.47,-24.5 1377.61,-36.94 1457.3,-38.15"/>
<polygon fill="none" stroke="black" stroke-width="3" points="367.9,-66.81 362.1,-71.09 355.92,-67.37 361.72,-63.1 367.9,-66.81"/>
<polygon fill="none" stroke="black" stroke-width="3" points="1455.32,-38.14 1461.35,-34.18 1467.32,-38.23 1461.29,-42.18 1455.32,-38.14"/>
</g>
<!-- x5 -->
<g id="node13" class="node">
<title>x5</title>
<path fill="none" stroke="black" d="M284.84,-147C284.84,-147 350.34,-147 350.34,-147 356.34,-147 362.34,-153 362.34,-159 362.34,-159 362.34,-184 362.34,-184 362.34,-190 356.34,-196 350.34,-196 350.34,-196 284.84,-196 284.84,-196 278.84,-196 272.84,-190 272.84,-184 272.84,-184 272.84,-159 272.84,-159 272.84,-153 278.84,-147 284.84,-147"/>
<text text-anchor="middle" x="317.59" y="-178.7" font-family="Times,serif" font-size="14.00">12:12 &#45; 31:31</text>
<polyline fill="none" stroke="black" points="272.84,-171.5 362.34,-171.5"/>
<text text-anchor="middle" x="317.59" y="-154.2" font-family="Times,serif" font-size="14.00">11:0 &#45; 11:0</text>
</g>
<!-- c12&#45;&gt;x5 -->
<g id="edge6" class="edge">
<title>c12:e&#45;&gt;x5:w</title>
<path fill="none" stroke="black" stroke-width="3" d="M249.56,-171.69C253.16,-171.65 256.29,-171.6 259.87,-171.57"/>
<polygon fill="none" stroke="black" stroke-width="3" points="251.54,-171.68 245.56,-175.71 239.55,-171.74 245.53,-167.71 251.54,-171.68"/>
<polygon fill="none" stroke="black" stroke-width="3" points="258.14,-171.57 264.12,-167.54 270.14,-171.51 264.16,-175.54 258.14,-171.57"/>
</g>
<!-- n2 -->
<g id="node18" class="node">
<title>n2</title>
<ellipse fill="black" stroke="black" cx="400.14" cy="-159.5" rx="1.8" ry="1.8"/>
</g>
<!-- x5&#45;&gt;n2 -->
<g id="edge9" class="edge">
<title>x5:e&#45;&gt;n2:w</title>
<path fill="none" stroke="black" stroke-width="3" d="M362.34,-159.25C373.72,-159.25 379.03,-159.38 386.89,-159.45"/>
<polygon fill="black" stroke="black" stroke-width="3" points="383.78,-162.94 393.8,-159.48 383.82,-155.94 383.78,-162.94"/>
</g>
<!-- x5&#45;&gt;n2 -->
<g id="edge10" class="edge">
<title>x5:e&#45;&gt;n2:w</title>
<path fill="none" stroke="black" d="M362.34,-183.75C376.96,-183.75 379.02,-169.82 387.55,-163.08"/>
<polygon fill="black" stroke="black" points="388.51,-166.45 396.9,-159.98 386.31,-159.8 388.51,-166.45"/>
</g>
<!-- x6 -->
<g id="node14" class="node">
<title>x6</title>
<path fill="none" stroke="black" d="M453.32,-53.5C453.32,-53.5 536.07,-53.5 536.07,-53.5 542.07,-53.5 548.07,-59.5 548.07,-65.5 548.07,-65.5 548.07,-77.5 548.07,-77.5 548.07,-83.5 542.07,-89.5 536.07,-89.5 536.07,-89.5 453.32,-89.5 453.32,-89.5 447.32,-89.5 441.32,-83.5 441.32,-77.5 441.32,-77.5 441.32,-65.5 441.32,-65.5 441.32,-59.5 447.32,-53.5 453.32,-53.5"/>
<text text-anchor="middle" x="494.69" y="-66.7" font-family="Times,serif" font-size="14.00">19x 31:31 &#45; 18:0</text>
</g>
<!-- x7 -->
<g id="node15" class="node">
<title>x7</title>
<path fill="none" stroke="black" d="M604.94,-77.5C604.94,-77.5 663.69,-77.5 663.69,-77.5 669.69,-77.5 675.69,-83.5 675.69,-89.5 675.69,-89.5 675.69,-101.5 675.69,-101.5 675.69,-107.5 669.69,-113.5 663.69,-113.5 663.69,-113.5 604.94,-113.5 604.94,-113.5 598.94,-113.5 592.94,-107.5 592.94,-101.5 592.94,-101.5 592.94,-89.5 592.94,-89.5 592.94,-83.5 598.94,-77.5 604.94,-77.5"/>
<text text-anchor="middle" x="634.32" y="-90.7" font-family="Times,serif" font-size="14.00">18:0 &#45; 30:12</text>
</g>
<!-- x6&#45;&gt;x7 -->
<g id="edge7" class="edge">
<title>x6:e&#45;&gt;x7:w</title>
<path fill="none" stroke="black" stroke-width="3" d="M561.59,-75.04C568.64,-79.63 572.52,-87.58 579.63,-92.1"/>
<polygon fill="none" stroke="black" stroke-width="3" points="563.22,-75.5 556.35,-77.72 551.67,-72.24 558.53,-70.02 563.22,-75.5"/>
<polygon fill="none" stroke="black" stroke-width="3" points="577.77,-91.58 584.62,-89.33 589.33,-94.78 582.49,-97.04 577.77,-91.58"/>
</g>
<!-- x7&#45;&gt;n2 -->
<g id="edge11" class="edge">
<title>x7:e&#45;&gt;n2:w</title>
<path fill="none" stroke="black" stroke-width="3" d="M676.69,-95.75C684.81,-95.75 681.31,-108.13 675.69,-114 638.98,-152.35 487.97,-119.73 437.94,-137.5 419.87,-143.92 420.31,-155.78 401.94,-161.3 401.83,-161.33 401.73,-161.36 401.63,-161.4"/>
<polygon fill="black" stroke="black" stroke-width="3" points="411.67,-161.62 401.08,-161.18 409.08,-168.13 411.67,-161.62"/>
</g>
<!-- v8 -->
<g id="node16" class="node">
<title>v8</title>
<ellipse fill="none" stroke="black" cx="942.98" cy="-297.5" rx="113.79" ry="18"/>
<text text-anchor="middle" x="942.98" y="-292.45" font-family="Times,serif" font-size="14.00">20&#39;00000000000000000000</text>
</g>
<!-- x9 -->
<g id="node17" class="node">
<title>x9</title>
<path fill="none" stroke="black" d="M1104.77,-276.5C1104.77,-276.5 1163.52,-276.5 1163.52,-276.5 1169.52,-276.5 1175.52,-282.5 1175.52,-288.5 1175.52,-288.5 1175.52,-300.5 1175.52,-300.5 1175.52,-306.5 1169.52,-312.5 1163.52,-312.5 1163.52,-312.5 1104.77,-312.5 1104.77,-312.5 1098.77,-312.5 1092.77,-306.5 1092.77,-300.5 1092.77,-300.5 1092.77,-288.5 1092.77,-288.5 1092.77,-282.5 1098.77,-276.5 1104.77,-276.5"/>
<text text-anchor="middle" x="1134.15" y="-289.7" font-family="Times,serif" font-size="14.00">19:0 &#45; 31:12</text>
</g>
<!-- v8&#45;&gt;x9 -->
<g id="edge24" class="edge">
<title>v8:e&#45;&gt;x9:w</title>
<path fill="none" stroke="black" stroke-width="3" d="M1056.77,-297.5C1068.19,-297.5 1073.45,-295.98 1081.31,-295.11"/>
<polygon fill="black" stroke="black" stroke-width="3" points="1078.44,-298.76 1088.24,-294.74 1078.07,-291.77 1078.44,-298.76"/>
</g>
<!-- x9&#45;&gt;n5 -->
<g id="edge22" class="edge">
<title>x9:e&#45;&gt;n5:w</title>
<path fill="none" stroke="black" stroke-width="3" d="M1175.52,-294.75C1201.2,-294.75 1187.51,-253.28 1200.89,-240.32"/>
<polygon fill="black" stroke="black" stroke-width="3" points="1199.02,-244.71 1207.25,-238.04 1196.66,-238.12 1199.02,-244.71"/>
</g>
<!-- n2&#45;&gt;x0 -->
<g id="edge12" class="edge">
<title>n2:e&#45;&gt;x0:w</title>
<path fill="none" stroke="black" stroke-width="3" d="M401.94,-159.5C413.32,-159.5 418.63,-159.37 426.49,-159.3"/>
<polygon fill="black" stroke="black" stroke-width="3" points="423.42,-162.81 433.4,-159.27 423.38,-155.81 423.42,-162.81"/>
</g>
<!-- n2&#45;&gt;x0 -->
<g id="edge13" class="edge">
<title>n2:e&#45;&gt;x0:w</title>
<path fill="none" stroke="black" stroke-width="3" d="M401.94,-159.5C416.56,-159.5 418.62,-173.43 427.15,-180.17"/>
<polygon fill="black" stroke="black" stroke-width="3" points="423.04,-182.49 433.63,-182.32 425.24,-175.85 423.04,-182.49"/>
</g>
<!-- n2&#45;&gt;x6 -->
<g id="edge14" class="edge">
<title>n2:e&#45;&gt;x6:w</title>
<path fill="none" stroke="black" stroke-width="3" d="M401.94,-159.5C439.85,-159.5 406.91,-89.9 429.32,-74.67"/>
<polygon fill="black" stroke="black" stroke-width="3" points="427.16,-78.86 435.93,-72.92 425.36,-72.1 427.16,-78.86"/>
</g>
</g>
</svg>
