<?xml version="1.0" encoding="UTF-8" standalone="no"?>
<!DOCTYPE svg PUBLIC "-//W3C//DTD SVG 1.1//EN"
 "http://www.w3.org/Graphics/SVG/1.1/DTD/svg11.dtd">
<!-- Generated by graphviz version 12.2.1 (20241206.2353)
 -->
<!-- Title: top Pages: 1 -->
<svg width="1685pt" height="225pt"
 viewBox="0.00 0.00 1685.03 225.21" xmlns="http://www.w3.org/2000/svg" xmlns:xlink="http://www.w3.org/1999/xlink">
<g id="graph0" class="graph" transform="scale(1 1) rotate(0) translate(4 221.21)">
<title>top</title>
<polygon fill="white" stroke="none" points="-4,4 -4,-221.21 1681.03,-221.21 1681.03,4 -4,4"/>
<text text-anchor="middle" x="838.51" y="-7.2" font-family="Times,serif" font-size="14.00">top</text>
<!-- n2 -->
<g id="node1" class="node">
<title>n2</title>
<polygon fill="none" stroke="black" points="107.84,-94.04 107.84,-108.96 76.26,-119.5 31.59,-119.5 0,-108.96 0,-94.04 31.59,-83.5 76.26,-83.5 107.84,-94.04"/>
<text text-anchor="middle" x="53.92" y="-96.45" font-family="Times,serif" font-size="14.00">input_data</text>
</g>
<!-- c10 -->
<g id="node7" class="node">
<title>c10</title>
<polygon fill="none" stroke="black" points="143.84,-89 143.84,-138 229.34,-138 229.34,-89 143.84,-89"/>
<text text-anchor="middle" x="156.72" y="-120.7" font-family="Times,serif" font-size="14.00">A</text>
<polyline fill="none" stroke="black" points="143.84,-113.5 169.59,-113.5"/>
<text text-anchor="middle" x="156.72" y="-96.2" font-family="Times,serif" font-size="14.00">B</text>
<polyline fill="none" stroke="black" points="169.59,-89 169.59,-138"/>
<text text-anchor="middle" x="186.59" y="-116.7" font-family="Times,serif" font-size="14.00">$4</text>
<text text-anchor="middle" x="186.59" y="-100.2" font-family="Times,serif" font-size="14.00">$or</text>
<polyline fill="none" stroke="black" points="203.59,-89 203.59,-138"/>
<text text-anchor="middle" x="216.47" y="-108.7" font-family="Times,serif" font-size="14.00">Y</text>
</g>
<!-- n2&#45;&gt;c10 -->
<g id="edge13" class="edge">
<title>n2:e&#45;&gt;c10:w</title>
<path fill="none" stroke="black" stroke-width="3" d="M107.84,-101.5C122.46,-101.5 124.52,-115.43 133.05,-122.17"/>
<polygon fill="black" stroke="black" stroke-width="3" points="128.94,-124.49 139.53,-124.32 131.14,-117.85 128.94,-124.49"/>
</g>
<!-- n2&#45;&gt;c10 -->
<g id="edge14" class="edge">
<title>n2:e&#45;&gt;c10:w</title>
<path fill="none" stroke="black" stroke-width="3" d="M107.84,-101.5C119.22,-101.5 124.53,-101.37 132.39,-101.3"/>
<polygon fill="black" stroke="black" stroke-width="3" points="129.32,-104.81 139.3,-101.27 129.28,-97.81 129.32,-104.81"/>
</g>
<!-- x2 -->
<g id="node10" class="node">
<title>x2</title>
<path fill="none" stroke="black" d="M439.47,-25C439.47,-25 477.97,-25 477.97,-25 483.97,-25 489.97,-31 489.97,-37 489.97,-37 489.97,-62 489.97,-62 489.97,-68 483.97,-74 477.97,-74 477.97,-74 439.47,-74 439.47,-74 433.47,-74 427.47,-68 427.47,-62 427.47,-62 427.47,-37 427.47,-37 427.47,-31 433.47,-25 439.47,-25"/>
<text text-anchor="middle" x="458.72" y="-56.7" font-family="Times,serif" font-size="14.00">0 &#45;&gt; 1:1</text>
<polyline fill="none" stroke="black" points="427.47,-49.5 489.97,-49.5"/>
<text text-anchor="middle" x="458.72" y="-32.2" font-family="Times,serif" font-size="14.00">2:2 &#45; 0:0</text>
</g>
<!-- n2&#45;&gt;x2 -->
<g id="edge15" class="edge">
<title>n2:e&#45;&gt;x2:w</title>
<path fill="none" stroke="black" d="M107.84,-101.5C126.59,-101.5 126.34,-86.24 143.84,-79.5 258.77,-35.21 297.14,-37.09 415.17,-37.24"/>
<polygon fill="black" stroke="black" points="414.95,-40.74 424.95,-37.25 414.96,-33.74 414.95,-40.74"/>
</g>
<!-- n3 -->
<g id="node2" class="node">
<title>n3</title>
<polygon fill="none" stroke="black" points="1456.76,-69.04 1456.76,-83.96 1422.25,-94.5 1373.45,-94.5 1338.94,-83.96 1338.94,-69.04 1373.45,-58.5 1422.25,-58.5 1456.76,-69.04"/>
<text text-anchor="middle" x="1397.85" y="-71.45" font-family="Times,serif" font-size="14.00">output_data</text>
</g>
<!-- x6 -->
<g id="node15" class="node">
<title>x6</title>
<path fill="none" stroke="black" d="M1504.76,-34.5C1504.76,-34.5 1560.51,-34.5 1560.51,-34.5 1566.51,-34.5 1572.51,-40.5 1572.51,-46.5 1572.51,-46.5 1572.51,-58.5 1572.51,-58.5 1572.51,-64.5 1566.51,-70.5 1560.51,-70.5 1560.51,-70.5 1504.76,-70.5 1504.76,-70.5 1498.76,-70.5 1492.76,-64.5 1492.76,-58.5 1492.76,-58.5 1492.76,-46.5 1492.76,-46.5 1492.76,-40.5 1498.76,-34.5 1504.76,-34.5"/>
<text text-anchor="middle" x="1532.63" y="-47.7" font-family="Times,serif" font-size="14.00">4x 9:9 &#45; 3:0</text>
</g>
<!-- n3&#45;&gt;x6 -->
<g id="edge19" class="edge">
<title>n3:e&#45;&gt;x6:w</title>
<path fill="none" stroke="black" stroke-width="3" d="M1456.76,-76.5C1471.28,-76.5 1473.46,-62.86 1482,-56.25"/>
<polygon fill="black" stroke="black" stroke-width="3" points="1480.01,-60.58 1488.44,-54.16 1477.85,-53.93 1480.01,-60.58"/>
</g>
<!-- n4 -->
<g id="node3" class="node">
<title>n4</title>
<polygon fill="none" stroke="black" points="320.59,-155.5 265.34,-137.5 320.59,-119.5 375.84,-137.5 320.59,-155.5"/>
<text text-anchor="middle" x="320.59" y="-132.45" font-family="Times,serif" font-size="14.00">temp_2</text>
</g>
<!-- c9 -->
<g id="node6" class="node">
<title>c9</title>
<polygon fill="none" stroke="black" points="411.84,-97 411.84,-146 505.59,-146 505.59,-97 411.84,-97"/>
<text text-anchor="middle" x="424.72" y="-128.7" font-family="Times,serif" font-size="14.00">A</text>
<polyline fill="none" stroke="black" points="411.84,-121.5 437.59,-121.5"/>
<text text-anchor="middle" x="424.72" y="-104.2" font-family="Times,serif" font-size="14.00">B</text>
<polyline fill="none" stroke="black" points="437.59,-97 437.59,-146"/>
<text text-anchor="middle" x="458.72" y="-124.7" font-family="Times,serif" font-size="14.00">$8</text>
<text text-anchor="middle" x="458.72" y="-108.2" font-family="Times,serif" font-size="14.00">$add</text>
<polyline fill="none" stroke="black" points="479.84,-97 479.84,-146"/>
<text text-anchor="middle" x="492.72" y="-116.7" font-family="Times,serif" font-size="14.00">Y</text>
</g>
<!-- n4&#45;&gt;c9 -->
<g id="edge21" class="edge">
<title>n4:e&#45;&gt;c9:w</title>
<path fill="none" stroke="black" stroke-width="3" d="M375.84,-137.5C387.28,-137.5 392.52,-135.6 400.37,-134.51"/>
<polygon fill="black" stroke="black" stroke-width="3" points="397.56,-138.2 407.31,-134.05 397.1,-131.22 397.56,-138.2"/>
</g>
<!-- n5 -->
<g id="node4" class="node">
<title>n5</title>
<polygon fill="none" stroke="black" points="596.84,-139.5 541.59,-121.5 596.84,-103.5 652.09,-121.5 596.84,-139.5"/>
<text text-anchor="middle" x="596.84" y="-116.45" font-family="Times,serif" font-size="14.00">temp_5</text>
</g>
<!-- c12 -->
<g id="node13" class="node">
<title>c12</title>
<polygon fill="none" stroke="black" points="688.09,-124 688.09,-173 781.09,-173 781.09,-124 688.09,-124"/>
<text text-anchor="middle" x="700.97" y="-155.7" font-family="Times,serif" font-size="14.00">A</text>
<polyline fill="none" stroke="black" points="688.09,-148.5 713.84,-148.5"/>
<text text-anchor="middle" x="700.97" y="-131.2" font-family="Times,serif" font-size="14.00">B</text>
<polyline fill="none" stroke="black" points="713.84,-124 713.84,-173"/>
<text text-anchor="middle" x="734.59" y="-151.7" font-family="Times,serif" font-size="14.00">$9</text>
<text text-anchor="middle" x="734.59" y="-135.2" font-family="Times,serif" font-size="14.00">$sub</text>
<polyline fill="none" stroke="black" points="755.34,-124 755.34,-173"/>
<text text-anchor="middle" x="768.22" y="-143.7" font-family="Times,serif" font-size="14.00">Y</text>
</g>
<!-- n5&#45;&gt;c12 -->
<g id="edge23" class="edge">
<title>n5:e&#45;&gt;c12:w</title>
<path fill="none" stroke="black" stroke-width="3" d="M652.09,-121.5C664.79,-121.5 668.93,-129.45 677.08,-133.68"/>
<polygon fill="black" stroke="black" stroke-width="3" points="673.14,-136.36 683.67,-135.22 674.73,-129.54 673.14,-136.36"/>
</g>
<!-- v0 -->
<g id="node5" class="node">
<title>v0</title>
<ellipse fill="none" stroke="black" cx="320.59" cy="-83.5" rx="27" ry="18"/>
<text text-anchor="middle" x="320.59" y="-78.45" font-family="Times,serif" font-size="14.00">1&#39;1</text>
</g>
<!-- v0&#45;&gt;c9 -->
<g id="edge24" class="edge">
<title>v0:e&#45;&gt;c9:w</title>
<path fill="none" stroke="black" d="M348.84,-83.5C374.84,-83.5 380.34,-102.52 400.57,-107.87"/>
<polygon fill="black" stroke="black" points="399.99,-111.32 410.34,-109.07 400.84,-104.37 399.99,-111.32"/>
</g>
<!-- c9&#45;&gt;n5 -->
<g id="edge22" class="edge">
<title>c9:e&#45;&gt;n5:w</title>
<path fill="none" stroke="black" stroke-width="3" d="M505.59,-121.75C516.97,-121.75 522.28,-121.62 530.15,-121.55"/>
<polygon fill="black" stroke="black" stroke-width="3" points="527.07,-125.06 537.05,-121.52 527.04,-118.06 527.07,-125.06"/>
</g>
<!-- c10&#45;&gt;n4 -->
<g id="edge20" class="edge">
<title>c10:e&#45;&gt;n4:w</title>
<path fill="none" stroke="black" stroke-width="3" d="M229.34,-113.75C243.87,-113.75 246.04,-127.39 254.59,-134"/>
<polygon fill="black" stroke="black" stroke-width="3" points="250.43,-136.32 261.02,-136.09 252.6,-129.67 250.43,-136.32"/>
</g>
<!-- c11 -->
<g id="node8" class="node">
<title>c11</title>
<polygon fill="none" stroke="black" points="1111.44,-52 1111.44,-101 1204.44,-101 1204.44,-52 1111.44,-52"/>
<text text-anchor="middle" x="1124.32" y="-83.7" font-family="Times,serif" font-size="14.00">A</text>
<polyline fill="none" stroke="black" points="1111.44,-76.5 1137.19,-76.5"/>
<text text-anchor="middle" x="1124.32" y="-59.2" font-family="Times,serif" font-size="14.00">B</text>
<polyline fill="none" stroke="black" points="1137.19,-52 1137.19,-101"/>
<text text-anchor="middle" x="1157.94" y="-79.7" font-family="Times,serif" font-size="14.00">$10</text>
<text text-anchor="middle" x="1157.94" y="-63.2" font-family="Times,serif" font-size="14.00">$sub</text>
<polyline fill="none" stroke="black" points="1178.69,-52 1178.69,-101"/>
<text text-anchor="middle" x="1191.57" y="-71.7" font-family="Times,serif" font-size="14.00">Y</text>
</g>
<!-- x3 -->
<g id="node11" class="node">
<title>x3</title>
<path fill="none" stroke="black" d="M1252.44,-52C1252.44,-52 1290.94,-52 1290.94,-52 1296.94,-52 1302.94,-58 1302.94,-64 1302.94,-64 1302.94,-89 1302.94,-89 1302.94,-95 1296.94,-101 1290.94,-101 1290.94,-101 1252.44,-101 1252.44,-101 1246.44,-101 1240.44,-95 1240.44,-89 1240.44,-89 1240.44,-64 1240.44,-64 1240.44,-58 1246.44,-52 1252.44,-52"/>
<text text-anchor="middle" x="1271.69" y="-83.7" font-family="Times,serif" font-size="14.00">5:5 &#45; 9:9</text>
<polyline fill="none" stroke="black" points="1240.44,-76.5 1302.94,-76.5"/>
<text text-anchor="middle" x="1271.69" y="-59.2" font-family="Times,serif" font-size="14.00">4:0 &#45; 4:0</text>
</g>
<!-- c11&#45;&gt;x3 -->
<g id="edge3" class="edge">
<title>c11:e&#45;&gt;x3:w</title>
<path fill="none" stroke="black" stroke-width="3" d="M1217.16,-76.69C1220.76,-76.65 1223.89,-76.6 1227.47,-76.57"/>
<polygon fill="none" stroke="black" stroke-width="3" points="1219.15,-76.68 1213.17,-80.71 1207.15,-76.74 1213.13,-72.71 1219.15,-76.68"/>
<polygon fill="none" stroke="black" stroke-width="3" points="1225.74,-76.57 1231.72,-72.54 1237.74,-76.51 1231.76,-80.54 1225.74,-76.57"/>
</g>
<!-- x1 -->
<g id="node9" class="node">
<title>x1</title>
<path fill="none" stroke="black" d="M996.07,-78C996.07,-78 1048.07,-78 1048.07,-78 1054.07,-78 1060.07,-84 1060.07,-90 1060.07,-90 1060.07,-115 1060.07,-115 1060.07,-121 1054.07,-127 1048.07,-127 1048.07,-127 996.07,-127 996.07,-127 990.07,-127 984.07,-121 984.07,-115 984.07,-115 984.07,-90 984.07,-90 984.07,-84 990.07,-78 996.07,-78"/>
<text text-anchor="middle" x="1022.07" y="-109.7" font-family="Times,serif" font-size="14.00">21:21 &#45; 4:4</text>
<polyline fill="none" stroke="black" points="984.07,-102.5 1060.07,-102.5"/>
<text text-anchor="middle" x="1022.07" y="-85.2" font-family="Times,serif" font-size="14.00">3:0 &#45; 3:0</text>
</g>
<!-- x1&#45;&gt;c11 -->
<g id="edge1" class="edge">
<title>x1:e&#45;&gt;c11:w</title>
<path fill="none" stroke="black" stroke-width="3" d="M1073.94,-100.81C1083.28,-98.17 1089.2,-93.1 1098.52,-90.45"/>
<polygon fill="none" stroke="black" stroke-width="3" points="1075.65,-100.59 1070.22,-105.34 1063.75,-102.15 1069.18,-97.4 1075.65,-100.59"/>
<polygon fill="none" stroke="black" stroke-width="3" points="1096.86,-90.67 1102.29,-85.92 1108.76,-89.1 1103.34,-93.85 1096.86,-90.67"/>
</g>
<!-- x2&#45;&gt;c11 -->
<g id="edge2" class="edge">
<title>x2:e&#45;&gt;c11:w</title>
<path fill="none" stroke="black" stroke-width="3" d="M503.84,-49.5C601.15,-49.5 630.18,-49.5 733.59,-49.5 733.59,-49.5 733.59,-49.5 931.89,-49.5 1007.43,-49.5 1028.98,-62.63 1098.4,-64.11"/>
<polygon fill="none" stroke="black" stroke-width="3" points="505.67,-49.5 499.67,-53.5 493.67,-49.5 499.67,-45.5 505.67,-49.5"/>
<polygon fill="none" stroke="black" stroke-width="3" points="1096.74,-64.1 1102.78,-60.16 1108.74,-64.22 1102.7,-68.16 1096.74,-64.1"/>
</g>
<!-- x3&#45;&gt;n3 -->
<g id="edge16" class="edge">
<title>x3:e&#45;&gt;n3:w</title>
<path fill="none" stroke="black" stroke-width="3" d="M1302.94,-64.25C1315.22,-64.25 1319.74,-70.72 1327.78,-74.25"/>
<polygon fill="black" stroke="black" stroke-width="3" points="1324,-77.06 1334.49,-75.6 1325.38,-70.2 1324,-77.06"/>
</g>
<!-- x3&#45;&gt;n3 -->
<g id="edge17" class="edge">
<title>x3:e&#45;&gt;n3:w</title>
<path fill="none" stroke="black" d="M1302.94,-88.75C1315.22,-88.75 1319.74,-82.28 1327.78,-78.75"/>
<polygon fill="black" stroke="black" points="1328.35,-82.2 1337.46,-76.8 1326.97,-75.34 1328.35,-82.2"/>
</g>
<!-- v4 -->
<g id="node12" class="node">
<title>v4</title>
<ellipse fill="none" stroke="black" cx="596.84" cy="-175.5" rx="27" ry="18"/>
<text text-anchor="middle" x="596.84" y="-170.45" font-family="Times,serif" font-size="14.00">1&#39;1</text>
</g>
<!-- v4&#45;&gt;c12 -->
<g id="edge25" class="edge">
<title>v4:e&#45;&gt;c12:w</title>
<path fill="none" stroke="black" d="M625.1,-175.5C649.58,-175.5 657.2,-164.8 676.67,-161.63"/>
<polygon fill="black" stroke="black" points="676.88,-165.12 686.58,-160.87 676.34,-158.14 676.88,-165.12"/>
</g>
<!-- x5 -->
<g id="node14" class="node">
<title>x5</title>
<path fill="none" stroke="black" d="M829.09,-124C829.09,-124 881.09,-124 881.09,-124 887.09,-124 893.09,-130 893.09,-136 893.09,-136 893.09,-161 893.09,-161 893.09,-167 887.09,-173 881.09,-173 881.09,-173 829.09,-173 829.09,-173 823.09,-173 817.09,-167 817.09,-161 817.09,-161 817.09,-136 817.09,-136 817.09,-130 823.09,-124 829.09,-124"/>
<text text-anchor="middle" x="855.09" y="-155.7" font-family="Times,serif" font-size="14.00">4:4 &#45; 21:21</text>
<polyline fill="none" stroke="black" points="817.09,-148.5 893.09,-148.5"/>
<text text-anchor="middle" x="855.09" y="-131.2" font-family="Times,serif" font-size="14.00">3:0 &#45; 3:0</text>
</g>
<!-- c12&#45;&gt;x5 -->
<g id="edge4" class="edge">
<title>c12:e&#45;&gt;x5:w</title>
<path fill="none" stroke="black" stroke-width="3" d="M793.81,-148.69C797.41,-148.65 800.54,-148.6 804.12,-148.57"/>
<polygon fill="none" stroke="black" stroke-width="3" points="795.8,-148.68 789.82,-152.71 783.8,-148.74 789.78,-144.71 795.8,-148.68"/>
<polygon fill="none" stroke="black" stroke-width="3" points="802.39,-148.57 808.37,-144.54 814.39,-148.51 808.41,-152.54 802.39,-148.57"/>
</g>
<!-- n1 -->
<g id="node19" class="node">
<title>n1</title>
<ellipse fill="black" stroke="black" cx="930.89" cy="-148.5" rx="1.8" ry="1.8"/>
</g>
<!-- x5&#45;&gt;n1 -->
<g id="edge7" class="edge">
<title>x5:e&#45;&gt;n1:w</title>
<path fill="none" stroke="black" stroke-width="3" d="M893.09,-136.25C905.37,-136.25 909.89,-142.72 917.93,-146.25"/>
<polygon fill="black" stroke="black" stroke-width="3" points="914.15,-149.06 924.64,-147.6 915.53,-142.2 914.15,-149.06"/>
</g>
<!-- x5&#45;&gt;n1 -->
<g id="edge8" class="edge">
<title>x5:e&#45;&gt;n1:w</title>
<path fill="none" stroke="black" d="M893.09,-160.75C905.37,-160.75 909.89,-154.28 917.93,-150.75"/>
<polygon fill="black" stroke="black" points="918.5,-154.2 927.61,-148.8 917.12,-147.34 918.5,-154.2"/>
</g>
<!-- x7 -->
<g id="node16" class="node">
<title>x7</title>
<path fill="none" stroke="black" d="M1620.51,-57.5C1620.51,-57.5 1659.01,-57.5 1659.01,-57.5 1665.01,-57.5 1671.01,-63.5 1671.01,-69.5 1671.01,-69.5 1671.01,-81.5 1671.01,-81.5 1671.01,-87.5 1665.01,-93.5 1659.01,-93.5 1659.01,-93.5 1620.51,-93.5 1620.51,-93.5 1614.51,-93.5 1608.51,-87.5 1608.51,-81.5 1608.51,-81.5 1608.51,-69.5 1608.51,-69.5 1608.51,-63.5 1614.51,-57.5 1620.51,-57.5"/>
<text text-anchor="middle" x="1639.76" y="-70.7" font-family="Times,serif" font-size="14.00">3:0 &#45; 8:5</text>
</g>
<!-- x6&#45;&gt;x7 -->
<g id="edge5" class="edge">
<title>x6:e&#45;&gt;x7:w</title>
<path fill="none" stroke="black" stroke-width="3" d="M1584.48,-56.93C1589.09,-61.01 1591.93,-67.01 1596.54,-71.08"/>
<polygon fill="none" stroke="black" stroke-width="3" points="1586.29,-57.61 1579.28,-59.27 1575.04,-53.44 1582.06,-51.77 1586.29,-57.61"/>
<polygon fill="none" stroke="black" stroke-width="3" points="1594.71,-70.4 1601.73,-68.73 1605.97,-74.56 1598.95,-76.23 1594.71,-70.4"/>
</g>
<!-- x7&#45;&gt;n3 -->
<g id="edge18" class="edge">
<title>x7:e&#45;&gt;n3:w</title>
<path fill="none" stroke="black" stroke-width="3" d="M1672.01,-75.75C1680.13,-75.75 1676.9,-88.41 1671.01,-94 1601.93,-159.55 1551.98,-94.39 1456.76,-94.5 1404.28,-94.56 1376.81,-130.56 1338.7,-94.5 1336.69,-92.61 1335,-89.89 1333.97,-87.14"/>
<polygon fill="black" stroke="black" stroke-width="3" points="1336.2,-91.38 1336.2,-80.79 1329.59,-89.07 1336.2,-91.38"/>
</g>
<!-- x8 -->
<g id="node17" class="node">
<title>x8</title>
<path fill="none" stroke="black" d="M980.69,-146.5C980.69,-146.5 1063.44,-146.5 1063.44,-146.5 1069.44,-146.5 1075.44,-152.5 1075.44,-158.5 1075.44,-158.5 1075.44,-170.5 1075.44,-170.5 1075.44,-176.5 1069.44,-182.5 1063.44,-182.5 1063.44,-182.5 980.69,-182.5 980.69,-182.5 974.69,-182.5 968.69,-176.5 968.69,-170.5 968.69,-170.5 968.69,-158.5 968.69,-158.5 968.69,-152.5 974.69,-146.5 980.69,-146.5"/>
<text text-anchor="middle" x="1022.07" y="-159.7" font-family="Times,serif" font-size="14.00">17x 21:21 &#45; 16:0</text>
</g>
<!-- x9 -->
<g id="node18" class="node">
<title>x9</title>
<path fill="none" stroke="black" d="M1131.94,-169.5C1131.94,-169.5 1183.94,-169.5 1183.94,-169.5 1189.94,-169.5 1195.94,-175.5 1195.94,-181.5 1195.94,-181.5 1195.94,-193.5 1195.94,-193.5 1195.94,-199.5 1189.94,-205.5 1183.94,-205.5 1183.94,-205.5 1131.94,-205.5 1131.94,-205.5 1125.94,-205.5 1119.94,-199.5 1119.94,-193.5 1119.94,-193.5 1119.94,-181.5 1119.94,-181.5 1119.94,-175.5 1125.94,-169.5 1131.94,-169.5"/>
<text text-anchor="middle" x="1157.94" y="-182.7" font-family="Times,serif" font-size="14.00">16:0 &#45; 20:4</text>
</g>
<!-- x8&#45;&gt;x9 -->
<g id="edge6" class="edge">
<title>x8:e&#45;&gt;x9:w</title>
<path fill="none" stroke="black" stroke-width="3" d="M1087.75,-167.7C1095.08,-172.04 1099.16,-179.77 1106.44,-184.18"/>
<polygon fill="none" stroke="black" stroke-width="3" points="1089.67,-168.2 1082.86,-170.56 1078.06,-165.18 1084.87,-162.82 1089.67,-168.2"/>
<polygon fill="none" stroke="black" stroke-width="3" points="1104.73,-183.73 1111.56,-181.4 1116.33,-186.81 1109.5,-189.13 1104.73,-183.73"/>
</g>
<!-- x9&#45;&gt;n1 -->
<g id="edge9" class="edge">
<title>x9:e&#45;&gt;n1:w</title>
<path fill="none" stroke="black" stroke-width="3" d="M1196.94,-187.75C1205.07,-187.75 1201.84,-200.42 1195.94,-206 1171.41,-229.22 1153.69,-207.5 1119.94,-206 1052.52,-203 1029.46,-221.86 968.69,-192.5 953.07,-184.95 929.19,-168.69 921.62,-158.19"/>
<polygon fill="black" stroke="black" stroke-width="3" points="922.94,-162.71 925.23,-152.36 916.99,-159.03 922.94,-162.71"/>
</g>
<!-- n1&#45;&gt;x1 -->
<g id="edge10" class="edge">
<title>n1:e&#45;&gt;x1:w</title>
<path fill="none" stroke="black" stroke-width="3" d="M932.69,-148.5C962.37,-148.5 952.72,-104.7 971.95,-93.06"/>
<polygon fill="black" stroke="black" stroke-width="3" points="969.83,-97.21 978.67,-91.36 968.11,-90.42 969.83,-97.21"/>
</g>
<!-- n1&#45;&gt;x1 -->
<g id="edge11" class="edge">
<title>n1:e&#45;&gt;x1:w</title>
<path fill="none" stroke="black" d="M932.69,-148.5C955.22,-148.5 956.45,-124.92 972,-117.18"/>
<polygon fill="black" stroke="black" points="972.57,-120.63 981.59,-115.07 971.07,-113.8 972.57,-120.63"/>
</g>
<!-- n1&#45;&gt;x8 -->
<g id="edge12" class="edge">
<title>n1:e&#45;&gt;x8:w</title>
<path fill="none" stroke="black" stroke-width="3" d="M932.69,-148.5C945.58,-148.5 949.49,-157.26 957.61,-161.92"/>
<polygon fill="black" stroke="black" stroke-width="3" points="953.74,-164.54 964.29,-163.63 955.47,-157.76 953.74,-164.54"/>
</g>
</g>
</svg>
