<?xml version="1.0" encoding="UTF-8" standalone="no"?>
<!DOCTYPE svg PUBLIC "-//W3C//DTD SVG 1.1//EN"
 "http://www.w3.org/Graphics/SVG/1.1/DTD/svg11.dtd">
<!-- Generated by graphviz version 12.2.1 (20241206.2353)
 -->
<!-- Title: top Pages: 1 -->
<svg width="1797pt" height="200pt"
 viewBox="0.00 0.00 1796.66 199.90" xmlns="http://www.w3.org/2000/svg" xmlns:xlink="http://www.w3.org/1999/xlink">
<g id="graph0" class="graph" transform="scale(1 1) rotate(0) translate(4 195.9)">
<title>top</title>
<polygon fill="white" stroke="none" points="-4,4 -4,-195.9 1792.66,-195.9 1792.66,4 -4,4"/>
<text text-anchor="middle" x="894.33" y="-7.2" font-family="Times,serif" font-size="14.00">top</text>
<!-- n4 -->
<g id="node1" class="node">
<title>n4</title>
<polygon fill="none" stroke="black" points="107.84,-96.04 107.84,-110.96 76.26,-121.5 31.59,-121.5 0,-110.96 0,-96.04 31.59,-85.5 76.26,-85.5 107.84,-96.04"/>
<text text-anchor="middle" x="53.92" y="-98.45" font-family="Times,serif" font-size="14.00">input_data</text>
</g>
<!-- c12 -->
<g id="node6" class="node">
<title>c12</title>
<polygon fill="none" stroke="black" points="272.84,-78 272.84,-127 366.59,-127 366.59,-78 272.84,-78"/>
<text text-anchor="middle" x="285.72" y="-109.7" font-family="Times,serif" font-size="14.00">A</text>
<polyline fill="none" stroke="black" points="272.84,-102.5 298.59,-102.5"/>
<text text-anchor="middle" x="285.72" y="-85.2" font-family="Times,serif" font-size="14.00">B</text>
<polyline fill="none" stroke="black" points="298.59,-78 298.59,-127"/>
<text text-anchor="middle" x="319.72" y="-105.7" font-family="Times,serif" font-size="14.00">$2</text>
<text text-anchor="middle" x="319.72" y="-89.2" font-family="Times,serif" font-size="14.00">$add</text>
<polyline fill="none" stroke="black" points="340.84,-78 340.84,-127"/>
<text text-anchor="middle" x="353.72" y="-97.7" font-family="Times,serif" font-size="14.00">Y</text>
</g>
<!-- n4&#45;&gt;c12 -->
<g id="edge6" class="edge">
<title>n4:e&#45;&gt;c12:w</title>
<path fill="none" stroke="black" stroke-width="3" d="M107.84,-103.5C126.59,-103.5 125.79,-86.58 143.84,-81.5 183.63,-70.3 195.8,-76.58 236.84,-81.5 248.59,-82.91 253.54,-86.81 261.51,-88.9"/>
<polygon fill="black" stroke="black" stroke-width="3" points="257.99,-92 268.33,-89.71 258.82,-85.05 257.99,-92"/>
</g>
<!-- c14 -->
<g id="node9" class="node">
<title>c14</title>
<polygon fill="none" stroke="black" points="1058.09,-63 1058.09,-112 1150.34,-112 1150.34,-63 1058.09,-63"/>
<text text-anchor="middle" x="1070.97" y="-94.7" font-family="Times,serif" font-size="14.00">A</text>
<polyline fill="none" stroke="black" points="1058.09,-87.5 1083.84,-87.5"/>
<text text-anchor="middle" x="1070.97" y="-70.2" font-family="Times,serif" font-size="14.00">B</text>
<polyline fill="none" stroke="black" points="1083.84,-63 1083.84,-112"/>
<text text-anchor="middle" x="1104.22" y="-90.7" font-family="Times,serif" font-size="14.00">$19</text>
<text text-anchor="middle" x="1104.22" y="-74.2" font-family="Times,serif" font-size="14.00">$xor</text>
<polyline fill="none" stroke="black" points="1124.59,-63 1124.59,-112"/>
<text text-anchor="middle" x="1137.47" y="-82.7" font-family="Times,serif" font-size="14.00">Y</text>
</g>
<!-- n4&#45;&gt;c14 -->
<g id="edge7" class="edge">
<title>n4:e&#45;&gt;c14:w</title>
<path fill="none" stroke="black" stroke-width="3" d="M107.84,-103.5C129.25,-103.5 125,-81.66 143.84,-71.5 214.68,-33.3 238.24,-24.5 318.72,-24.5 318.72,-24.5 318.72,-24.5 730.09,-24.5 862.15,-24.5 898.01,-34.31 1022.09,-79.5 1034.9,-84.16 1038.41,-93.06 1046.88,-97.34"/>
<polygon fill="black" stroke="black" stroke-width="3" points="1043.14,-100.11 1053.65,-98.79 1044.61,-93.27 1043.14,-100.11"/>
</g>
<!-- c15 -->
<g id="node11" class="node">
<title>c15</title>
<polygon fill="none" stroke="black" points="549.09,-131 549.09,-180 645.09,-180 645.09,-131 549.09,-131"/>
<text text-anchor="middle" x="561.97" y="-162.7" font-family="Times,serif" font-size="14.00">A</text>
<polyline fill="none" stroke="black" points="549.09,-155.5 574.84,-155.5"/>
<text text-anchor="middle" x="561.97" y="-138.2" font-family="Times,serif" font-size="14.00">B</text>
<polyline fill="none" stroke="black" points="574.84,-131 574.84,-180"/>
<text text-anchor="middle" x="597.09" y="-158.7" font-family="Times,serif" font-size="14.00">$3</text>
<text text-anchor="middle" x="597.09" y="-142.2" font-family="Times,serif" font-size="14.00">$mul</text>
<polyline fill="none" stroke="black" points="619.34,-131 619.34,-180"/>
<text text-anchor="middle" x="632.22" y="-150.7" font-family="Times,serif" font-size="14.00">Y</text>
</g>
<!-- n4&#45;&gt;c15 -->
<g id="edge8" class="edge">
<title>n4:e&#45;&gt;c15:w</title>
<path fill="none" stroke="black" stroke-width="3" d="M107.84,-103.5C133.8,-103.5 120.76,-137.61 143.84,-149.5 300.66,-230.32 365.97,-170.45 537.63,-167.84"/>
<polygon fill="black" stroke="black" stroke-width="3" points="534.58,-171.36 544.55,-167.78 534.53,-164.36 534.58,-171.36"/>
</g>
<!-- c17 -->
<g id="node13" class="node">
<title>c17</title>
<polygon fill="none" stroke="black" points="143.84,-91 143.84,-140 236.84,-140 236.84,-91 143.84,-91"/>
<text text-anchor="middle" x="156.72" y="-122.7" font-family="Times,serif" font-size="14.00">A</text>
<polyline fill="none" stroke="black" points="143.84,-115.5 169.59,-115.5"/>
<text text-anchor="middle" x="156.72" y="-98.2" font-family="Times,serif" font-size="14.00">B</text>
<polyline fill="none" stroke="black" points="169.59,-91 169.59,-140"/>
<text text-anchor="middle" x="190.34" y="-118.7" font-family="Times,serif" font-size="14.00">$1</text>
<text text-anchor="middle" x="190.34" y="-102.2" font-family="Times,serif" font-size="14.00">$sub</text>
<polyline fill="none" stroke="black" points="211.09,-91 211.09,-140"/>
<text text-anchor="middle" x="223.97" y="-110.7" font-family="Times,serif" font-size="14.00">Y</text>
</g>
<!-- n4&#45;&gt;c17 -->
<g id="edge9" class="edge">
<title>n4:e&#45;&gt;c17:w</title>
<path fill="none" stroke="black" stroke-width="3" d="M107.84,-103.5C119.22,-103.5 124.53,-103.37 132.39,-103.3"/>
<polygon fill="black" stroke="black" stroke-width="3" points="129.32,-106.81 139.3,-103.27 129.28,-99.81 129.32,-106.81"/>
</g>
<!-- n4&#45;&gt;c17 -->
<g id="edge10" class="edge">
<title>n4:e&#45;&gt;c17:w</title>
<path fill="none" stroke="black" stroke-width="3" d="M107.84,-103.5C122.46,-103.5 124.52,-117.43 133.05,-124.17"/>
<polygon fill="black" stroke="black" stroke-width="3" points="128.94,-126.49 139.53,-126.32 131.14,-119.85 128.94,-126.49"/>
</g>
<!-- n5 -->
<g id="node2" class="node">
<title>n5</title>
<polygon fill="none" stroke="black" points="1788.66,-65.04 1788.66,-79.96 1754.15,-90.5 1705.35,-90.5 1670.84,-79.96 1670.84,-65.04 1705.35,-54.5 1754.15,-54.5 1788.66,-65.04"/>
<text text-anchor="middle" x="1729.75" y="-67.45" font-family="Times,serif" font-size="14.00">output_data</text>
</g>
<!-- n6 -->
<g id="node3" class="node">
<title>n6</title>
<polygon fill="none" stroke="black" points="457.84,-120.5 402.59,-102.5 457.84,-84.5 513.09,-102.5 457.84,-120.5"/>
<text text-anchor="middle" x="457.84" y="-97.45" font-family="Times,serif" font-size="14.00">temp_0</text>
</g>
<!-- c13 -->
<g id="node7" class="node">
<title>c13</title>
<polygon fill="none" stroke="black" points="1284.84,-36 1284.84,-85 1378.59,-85 1378.59,-36 1284.84,-36"/>
<text text-anchor="middle" x="1297.72" y="-67.7" font-family="Times,serif" font-size="14.00">A</text>
<polyline fill="none" stroke="black" points="1284.84,-60.5 1310.59,-60.5"/>
<text text-anchor="middle" x="1297.72" y="-43.2" font-family="Times,serif" font-size="14.00">B</text>
<polyline fill="none" stroke="black" points="1310.59,-36 1310.59,-85"/>
<text text-anchor="middle" x="1331.72" y="-63.7" font-family="Times,serif" font-size="14.00">$6</text>
<text text-anchor="middle" x="1331.72" y="-47.2" font-family="Times,serif" font-size="14.00">$add</text>
<polyline fill="none" stroke="black" points="1352.84,-36 1352.84,-85"/>
<text text-anchor="middle" x="1365.72" y="-55.7" font-family="Times,serif" font-size="14.00">Y</text>
</g>
<!-- n6&#45;&gt;c13 -->
<g id="edge13" class="edge">
<title>n6:e&#45;&gt;c13:w</title>
<path fill="none" stroke="black" stroke-width="3" d="M513.09,-102.5C543.49,-102.5 1027.74,-55.21 1058.09,-53.5 1154.81,-48.04 1181.95,-48.23 1273.37,-48.25"/>
<polygon fill="black" stroke="black" stroke-width="3" points="1270.3,-51.75 1280.3,-48.25 1270.3,-44.75 1270.3,-51.75"/>
</g>
<!-- n6&#45;&gt;c15 -->
<g id="edge14" class="edge">
<title>n6:e&#45;&gt;c15:w</title>
<path fill="none" stroke="black" stroke-width="3" d="M513.09,-102.5C532.54,-102.5 528.35,-128.89 538.57,-139.19"/>
<polygon fill="black" stroke="black" stroke-width="3" points="534.27,-141.29 544.85,-141.62 536.78,-134.76 534.27,-141.29"/>
</g>
<!-- c16 -->
<g id="node12" class="node">
<title>c16</title>
<polygon fill="none" stroke="black" points="681.09,-105 681.09,-154 777.09,-154 777.09,-105 681.09,-105"/>
<text text-anchor="middle" x="693.97" y="-136.7" font-family="Times,serif" font-size="14.00">A</text>
<polyline fill="none" stroke="black" points="681.09,-129.5 706.84,-129.5"/>
<text text-anchor="middle" x="693.97" y="-112.2" font-family="Times,serif" font-size="14.00">B</text>
<polyline fill="none" stroke="black" points="706.84,-105 706.84,-154"/>
<text text-anchor="middle" x="729.09" y="-132.7" font-family="Times,serif" font-size="14.00">$4</text>
<text text-anchor="middle" x="729.09" y="-116.2" font-family="Times,serif" font-size="14.00">$mul</text>
<polyline fill="none" stroke="black" points="751.34,-105 751.34,-154"/>
<text text-anchor="middle" x="764.22" y="-124.7" font-family="Times,serif" font-size="14.00">Y</text>
</g>
<!-- n6&#45;&gt;c16 -->
<g id="edge15" class="edge">
<title>n6:e&#45;&gt;c16:w</title>
<path fill="none" stroke="black" stroke-width="3" d="M513.09,-102.5C584.09,-102.5 604.07,-115.74 669.69,-117.13"/>
<polygon fill="black" stroke="black" stroke-width="3" points="666.52,-120.6 676.55,-117.2 666.59,-113.6 666.52,-120.6"/>
</g>
<!-- n7 -->
<g id="node4" class="node">
<title>n7</title>
<polygon fill="none" stroke="black" points="868.34,-147.5 813.09,-129.5 868.34,-111.5 923.59,-129.5 868.34,-147.5"/>
<text text-anchor="middle" x="868.34" y="-124.45" font-family="Times,serif" font-size="14.00">temp_1</text>
</g>
<!-- x0 -->
<g id="node8" class="node">
<title>x0</title>
<path fill="none" stroke="black" d="M1198.34,-75C1198.34,-75 1236.84,-75 1236.84,-75 1242.84,-75 1248.84,-81 1248.84,-87 1248.84,-87 1248.84,-112 1248.84,-112 1248.84,-118 1242.84,-124 1236.84,-124 1236.84,-124 1198.34,-124 1198.34,-124 1192.34,-124 1186.34,-118 1186.34,-112 1186.34,-112 1186.34,-87 1186.34,-87 1186.34,-81 1192.34,-75 1198.34,-75"/>
<text text-anchor="middle" x="1217.59" y="-106.7" font-family="Times,serif" font-size="14.00">8:6 &#45; 8:6</text>
<polyline fill="none" stroke="black" points="1186.34,-99.5 1248.84,-99.5"/>
<text text-anchor="middle" x="1217.59" y="-82.2" font-family="Times,serif" font-size="14.00">5:0 &#45; 5:0</text>
</g>
<!-- n7&#45;&gt;x0 -->
<g id="edge17" class="edge">
<title>n7:e&#45;&gt;x0:w</title>
<path fill="none" stroke="black" stroke-width="3" d="M923.59,-129.5C939.75,-129.5 943.48,-133.39 959.59,-134.5 1044.37,-140.36 1066.78,-136.94 1150.34,-121.5 1162.06,-119.33 1166.97,-115.25 1174.96,-113.12"/>
<polygon fill="black" stroke="black" stroke-width="3" points="1172.32,-116.96 1181.83,-112.29 1171.49,-110.01 1172.32,-116.96"/>
</g>
<!-- x1 -->
<g id="node10" class="node">
<title>x1</title>
<path fill="none" stroke="black" d="M971.59,-88.5C971.59,-88.5 1010.09,-88.5 1010.09,-88.5 1016.09,-88.5 1022.09,-94.5 1022.09,-100.5 1022.09,-100.5 1022.09,-112.5 1022.09,-112.5 1022.09,-118.5 1016.09,-124.5 1010.09,-124.5 1010.09,-124.5 971.59,-124.5 971.59,-124.5 965.59,-124.5 959.59,-118.5 959.59,-112.5 959.59,-112.5 959.59,-100.5 959.59,-100.5 959.59,-94.5 965.59,-88.5 971.59,-88.5"/>
<text text-anchor="middle" x="990.84" y="-101.7" font-family="Times,serif" font-size="14.00">5:0 &#45; 5:0</text>
</g>
<!-- n7&#45;&gt;x1 -->
<g id="edge18" class="edge">
<title>n7:e&#45;&gt;x1:w</title>
<path fill="none" stroke="black" stroke-width="3" d="M923.59,-129.5C937.79,-129.5 940.29,-116.7 948.64,-110.3"/>
<polygon fill="black" stroke="black" stroke-width="3" points="946.84,-114.57 955.27,-108.15 944.68,-107.91 946.84,-114.57"/>
</g>
<!-- n8 -->
<g id="node5" class="node">
<title>n8</title>
<polygon fill="none" stroke="black" points="1469.84,-78.5 1414.59,-60.5 1469.84,-42.5 1525.09,-60.5 1469.84,-78.5"/>
<text text-anchor="middle" x="1469.84" y="-55.45" font-family="Times,serif" font-size="14.00">temp_2</text>
</g>
<!-- x2 -->
<g id="node14" class="node">
<title>x2</title>
<path fill="none" stroke="black" d="M1573.09,-48C1573.09,-48 1622.84,-48 1622.84,-48 1628.84,-48 1634.84,-54 1634.84,-60 1634.84,-60 1634.84,-85 1634.84,-85 1634.84,-91 1628.84,-97 1622.84,-97 1622.84,-97 1573.09,-97 1573.09,-97 1567.09,-97 1561.09,-91 1561.09,-85 1561.09,-85 1561.09,-60 1561.09,-60 1561.09,-54 1567.09,-48 1573.09,-48"/>
<text text-anchor="middle" x="1597.97" y="-79.7" font-family="Times,serif" font-size="14.00">0 &#45;&gt; 37:10</text>
<polyline fill="none" stroke="black" points="1561.09,-72.5 1634.84,-72.5"/>
<text text-anchor="middle" x="1597.97" y="-55.2" font-family="Times,serif" font-size="14.00">9:0 &#45; 9:0</text>
</g>
<!-- n8&#45;&gt;x2 -->
<g id="edge20" class="edge">
<title>n8:e&#45;&gt;x2:w</title>
<path fill="none" stroke="black" stroke-width="3" d="M1525.09,-60.5C1536.47,-60.5 1541.78,-60.37 1549.65,-60.3"/>
<polygon fill="black" stroke="black" stroke-width="3" points="1546.57,-63.81 1556.55,-60.27 1546.54,-56.81 1546.57,-63.81"/>
</g>
<!-- c12&#45;&gt;n6 -->
<g id="edge12" class="edge">
<title>c12:e&#45;&gt;n6:w</title>
<path fill="none" stroke="black" stroke-width="3" d="M366.59,-102.75C377.97,-102.75 383.28,-102.62 391.14,-102.55"/>
<polygon fill="black" stroke="black" stroke-width="3" points="388.07,-106.06 398.05,-102.52 388.03,-99.06 388.07,-106.06"/>
</g>
<!-- c13&#45;&gt;n8 -->
<g id="edge19" class="edge">
<title>c13:e&#45;&gt;n8:w</title>
<path fill="none" stroke="black" stroke-width="3" d="M1378.59,-60.75C1389.97,-60.75 1395.28,-60.62 1403.15,-60.55"/>
<polygon fill="black" stroke="black" stroke-width="3" points="1400.07,-64.06 1410.05,-60.52 1400.04,-57.06 1400.07,-64.06"/>
</g>
<!-- x0&#45;&gt;c13 -->
<g id="edge1" class="edge">
<title>x0:e&#45;&gt;c13:w</title>
<path fill="none" stroke="black" stroke-width="3" d="M1260.58,-94.84C1265.47,-90.05 1268.01,-82.62 1272.8,-77.72"/>
<polygon fill="none" stroke="black" stroke-width="3" points="1262.51,-94.08 1258.41,-100.01 1251.36,-98.5 1255.46,-92.57 1262.51,-94.08"/>
<polygon fill="none" stroke="black" stroke-width="3" points="1271.25,-78.36 1275.27,-72.37 1282.34,-73.78 1278.32,-79.77 1271.25,-78.36"/>
</g>
<!-- c14&#45;&gt;x0 -->
<g id="edge3" class="edge">
<title>c14:e&#45;&gt;x0:w</title>
<path fill="none" stroke="black" stroke-width="3" d="M1150.34,-87.75C1161.72,-87.75 1167.03,-87.5 1174.9,-87.35"/>
<polygon fill="black" stroke="black" stroke-width="3" points="1171.83,-90.88 1181.8,-87.29 1171.77,-83.88 1171.83,-90.88"/>
</g>
<!-- x1&#45;&gt;c14 -->
<g id="edge2" class="edge">
<title>x1:e&#45;&gt;c14:w</title>
<path fill="none" stroke="black" stroke-width="3" d="M1033.93,-101.34C1039.11,-95.51 1041.13,-86.1 1046.34,-80.31"/>
<polygon fill="none" stroke="black" stroke-width="3" points="1035.57,-100.62 1031.67,-106.69 1024.57,-105.42 1028.47,-99.35 1035.57,-100.62"/>
<polygon fill="none" stroke="black" stroke-width="3" points="1044.59,-81.07 1048.52,-75.02 1055.61,-76.32 1051.68,-82.37 1044.59,-81.07"/>
</g>
<!-- c15&#45;&gt;c16 -->
<g id="edge4" class="edge">
<title>c15:e&#45;&gt;c16:w</title>
<path fill="none" stroke="black" stroke-width="3" d="M645.09,-155.75C657.7,-155.75 661.95,-148.2 670.11,-144.19"/>
<polygon fill="black" stroke="black" stroke-width="3" points="667.66,-148.32 676.66,-142.73 666.14,-141.49 667.66,-148.32"/>
</g>
<!-- c16&#45;&gt;n7 -->
<g id="edge16" class="edge">
<title>c16:e&#45;&gt;n7:w</title>
<path fill="none" stroke="black" stroke-width="3" d="M777.09,-129.75C788.47,-129.75 793.78,-129.62 801.65,-129.55"/>
<polygon fill="black" stroke="black" stroke-width="3" points="798.57,-133.06 808.55,-129.52 798.54,-126.06 798.57,-133.06"/>
</g>
<!-- c17&#45;&gt;c12 -->
<g id="edge5" class="edge">
<title>c17:e&#45;&gt;c12:w</title>
<path fill="none" stroke="black" stroke-width="3" d="M236.84,-115.75C248.22,-115.75 253.53,-115.24 261.39,-114.95"/>
<polygon fill="black" stroke="black" stroke-width="3" points="258.36,-118.51 268.3,-114.83 258.24,-111.51 258.36,-118.51"/>
</g>
<!-- x2&#45;&gt;n5 -->
<g id="edge11" class="edge">
<title>x2:e&#45;&gt;n5:w</title>
<path fill="none" stroke="black" stroke-width="3" d="M1634.84,-72.5C1646.22,-72.5 1651.53,-72.5 1659.4,-72.5"/>
<polygon fill="black" stroke="black" stroke-width="3" points="1656.3,-76 1666.3,-72.5 1656.3,-69 1656.3,-76"/>
</g>
</g>
</svg>
