<?xml version="1.0" encoding="UTF-8" standalone="no"?>
<!DOCTYPE svg PUBLIC "-//W3C//DTD SVG 1.1//EN"
 "http://www.w3.org/Graphics/SVG/1.1/DTD/svg11.dtd">
<!-- Generated by graphviz version 12.2.1 (20241206.2353)
 -->
<!-- Title: top Pages: 1 -->
<svg width="2836pt" height="389pt"
 viewBox="0.00 0.00 2836.21 388.71" xmlns="http://www.w3.org/2000/svg" xmlns:xlink="http://www.w3.org/1999/xlink">
<g id="graph0" class="graph" transform="scale(1 1) rotate(0) translate(4 384.71)">
<title>top</title>
<polygon fill="white" stroke="none" points="-4,4 -4,-384.71 2832.21,-384.71 2832.21,4 -4,4"/>
<text text-anchor="middle" x="1414.1" y="-7.2" font-family="Times,serif" font-size="14.00">top</text>
<!-- n5 -->
<g id="node1" class="node">
<title>n5</title>
<polygon fill="none" stroke="black" points="107.84,-208.52 107.84,-223.43 76.26,-233.98 31.59,-233.98 0,-223.43 0,-208.52 31.59,-197.98 76.26,-197.98 107.84,-208.52"/>
<text text-anchor="middle" x="53.92" y="-210.93" font-family="Times,serif" font-size="14.00">input_data</text>
</g>
<!-- c13 -->
<g id="node6" class="node">
<title>c13</title>
<polygon fill="none" stroke="black" points="608.69,-157.48 608.69,-206.48 702.44,-206.48 702.44,-157.48 608.69,-157.48"/>
<text text-anchor="middle" x="621.57" y="-189.18" font-family="Times,serif" font-size="14.00">A</text>
<polyline fill="none" stroke="black" points="608.69,-181.98 634.44,-181.98"/>
<text text-anchor="middle" x="621.57" y="-164.68" font-family="Times,serif" font-size="14.00">B</text>
<polyline fill="none" stroke="black" points="634.44,-157.48 634.44,-206.48"/>
<text text-anchor="middle" x="655.57" y="-185.18" font-family="Times,serif" font-size="14.00">$3</text>
<text text-anchor="middle" x="655.57" y="-168.68" font-family="Times,serif" font-size="14.00">$and</text>
<polyline fill="none" stroke="black" points="676.69,-157.48 676.69,-206.48"/>
<text text-anchor="middle" x="689.57" y="-177.18" font-family="Times,serif" font-size="14.00">Y</text>
</g>
<!-- n5&#45;&gt;c13 -->
<g id="edge28" class="edge">
<title>n5:e&#45;&gt;c13:w</title>
<path fill="none" stroke="black" stroke-width="3" d="M107.84,-215.98C146.02,-215.98 114.11,-161.93 143.84,-137.98 195.02,-96.74 222.49,-105.98 288.22,-105.98 288.22,-105.98 288.22,-105.98 473.39,-105.98 521.31,-105.98 530.01,-126.2 572.69,-147.98 585.18,-154.35 588.67,-163.4 597.52,-167.52"/>
<polygon fill="black" stroke="black" stroke-width="3" points="593.75,-170.35 604.24,-168.85 595.1,-163.48 593.75,-170.35"/>
</g>
<!-- x0 -->
<g id="node7" class="node">
<title>x0</title>
<path fill="none" stroke="black" d="M522.19,-157.23C522.19,-157.23 560.69,-157.23 560.69,-157.23 566.69,-157.23 572.69,-163.23 572.69,-169.23 572.69,-169.23 572.69,-218.73 572.69,-218.73 572.69,-224.73 566.69,-230.73 560.69,-230.73 560.69,-230.73 522.19,-230.73 522.19,-230.73 516.19,-230.73 510.19,-224.73 510.19,-218.73 510.19,-218.73 510.19,-169.23 510.19,-169.23 510.19,-163.23 516.19,-157.23 522.19,-157.23"/>
<text text-anchor="middle" x="541.44" y="-213.43" font-family="Times,serif" font-size="14.00">4:4 &#45; 4:4</text>
<polyline fill="none" stroke="black" points="510.19,-206.23 572.69,-206.23"/>
<text text-anchor="middle" x="541.44" y="-188.93" font-family="Times,serif" font-size="14.00">3:1 &#45; 3:1</text>
<polyline fill="none" stroke="black" points="510.19,-181.73 572.69,-181.73"/>
<text text-anchor="middle" x="541.44" y="-164.43" font-family="Times,serif" font-size="14.00">0:0 &#45; 0:0</text>
</g>
<!-- n5&#45;&gt;x0 -->
<g id="edge32" class="edge">
<title>n5:e&#45;&gt;x0:w</title>
<path fill="none" stroke="black" stroke-width="3" d="M107.84,-215.98C135.95,-215.98 119.9,-178.71 143.84,-163.98 199.02,-130.04 223.44,-143.98 288.22,-143.98 288.22,-143.98 288.22,-143.98 404.34,-143.98 452.31,-143.98 457.58,-186.47 498.87,-193.11"/>
<polygon fill="black" stroke="black" stroke-width="3" points="495.43,-196.36 505.66,-193.63 495.96,-189.38 495.43,-196.36"/>
</g>
<!-- x1 -->
<g id="node9" class="node">
<title>x1</title>
<path fill="none" stroke="black" d="M155.84,-296.48C155.84,-296.48 194.34,-296.48 194.34,-296.48 200.34,-296.48 206.34,-302.48 206.34,-308.48 206.34,-308.48 206.34,-333.48 206.34,-333.48 206.34,-339.48 200.34,-345.48 194.34,-345.48 194.34,-345.48 155.84,-345.48 155.84,-345.48 149.84,-345.48 143.84,-339.48 143.84,-333.48 143.84,-333.48 143.84,-308.48 143.84,-308.48 143.84,-302.48 149.84,-296.48 155.84,-296.48"/>
<text text-anchor="middle" x="175.09" y="-328.18" font-family="Times,serif" font-size="14.00">4:4 &#45; 1:1</text>
<polyline fill="none" stroke="black" points="143.84,-320.98 206.34,-320.98"/>
<text text-anchor="middle" x="175.09" y="-303.68" font-family="Times,serif" font-size="14.00">0:0 &#45; 0:0</text>
</g>
<!-- n5&#45;&gt;x1 -->
<g id="edge34" class="edge">
<title>n5:e&#45;&gt;x1:w</title>
<path fill="none" stroke="black" d="M107.84,-215.98C147.4,-215.98 109.61,-290.2 132.85,-305.85"/>
<polygon fill="black" stroke="black" points="131.82,-309.2 142.38,-308.35 133.59,-302.43 131.82,-309.2"/>
</g>
<!-- n5&#45;&gt;x1 -->
<g id="edge35" class="edge">
<title>n5:e&#45;&gt;x1:w</title>
<path fill="none" stroke="black" d="M107.84,-215.98C157.88,-215.98 100.45,-314.78 132.86,-330.99"/>
<polygon fill="black" stroke="black" points="131.86,-334.36 142.36,-332.93 133.26,-327.5 131.86,-334.36"/>
</g>
<!-- x2 -->
<g id="node10" class="node">
<title>x2</title>
<path fill="none" stroke="black" d="M155.84,-228.48C155.84,-228.48 194.34,-228.48 194.34,-228.48 200.34,-228.48 206.34,-234.48 206.34,-240.48 206.34,-240.48 206.34,-265.48 206.34,-265.48 206.34,-271.48 200.34,-277.48 194.34,-277.48 194.34,-277.48 155.84,-277.48 155.84,-277.48 149.84,-277.48 143.84,-271.48 143.84,-265.48 143.84,-265.48 143.84,-240.48 143.84,-240.48 143.84,-234.48 149.84,-228.48 155.84,-228.48"/>
<text text-anchor="middle" x="175.09" y="-260.18" font-family="Times,serif" font-size="14.00">4:4 &#45; 1:1</text>
<polyline fill="none" stroke="black" points="143.84,-252.98 206.34,-252.98"/>
<text text-anchor="middle" x="175.09" y="-235.68" font-family="Times,serif" font-size="14.00">0:0 &#45; 0:0</text>
</g>
<!-- n5&#45;&gt;x2 -->
<g id="edge36" class="edge">
<title>n5:e&#45;&gt;x2:w</title>
<path fill="none" stroke="black" d="M107.84,-215.98C122.55,-215.98 124.49,-230.19 133.02,-237.08"/>
<polygon fill="black" stroke="black" points="131.81,-240.36 142.41,-240.24 134.05,-233.73 131.81,-240.36"/>
</g>
<!-- n5&#45;&gt;x2 -->
<g id="edge37" class="edge">
<title>n5:e&#45;&gt;x2:w</title>
<path fill="none" stroke="black" d="M107.84,-215.98C130.29,-215.98 121.65,-249.75 133.42,-261.36"/>
<polygon fill="black" stroke="black" points="131.83,-264.51 142.42,-264.7 134.26,-257.94 131.83,-264.51"/>
</g>
<!-- c15 -->
<g id="node12" class="node">
<title>c15</title>
<polygon fill="none" stroke="black" points="2007.39,-112.48 2007.39,-161.48 2095.14,-161.48 2095.14,-112.48 2007.39,-112.48"/>
<text text-anchor="middle" x="2020.27" y="-144.18" font-family="Times,serif" font-size="14.00">A</text>
<polyline fill="none" stroke="black" points="2007.39,-136.98 2033.14,-136.98"/>
<text text-anchor="middle" x="2020.27" y="-119.68" font-family="Times,serif" font-size="14.00">B</text>
<polyline fill="none" stroke="black" points="2033.14,-112.48 2033.14,-161.48"/>
<text text-anchor="middle" x="2051.27" y="-140.18" font-family="Times,serif" font-size="14.00">$25</text>
<text text-anchor="middle" x="2051.27" y="-123.68" font-family="Times,serif" font-size="14.00">$or</text>
<polyline fill="none" stroke="black" points="2069.39,-112.48 2069.39,-161.48"/>
<text text-anchor="middle" x="2082.27" y="-132.18" font-family="Times,serif" font-size="14.00">Y</text>
</g>
<!-- n5&#45;&gt;c15 -->
<g id="edge29" class="edge">
<title>n5:e&#45;&gt;c15:w</title>
<path fill="none" stroke="black" stroke-width="3" d="M107.84,-215.98C176.83,-215.98 95.15,-113.86 143.84,-64.98 190.44,-18.2 222.19,-29.98 288.22,-29.98 288.22,-29.98 288.22,-29.98 1814.14,-29.98 1884.59,-29.98 1914.23,-8.8 1971.39,-49.98 1997.57,-68.84 1977.27,-111.92 1996.49,-122.4"/>
<polygon fill="black" stroke="black" stroke-width="3" points="1992.44,-125.12 2002.95,-123.78 1993.9,-118.27 1992.44,-125.12"/>
</g>
<!-- c18 -->
<g id="node20" class="node">
<title>c18</title>
<polygon fill="none" stroke="black" points="884.94,-316.48 884.94,-365.48 970.44,-365.48 970.44,-316.48 884.94,-316.48"/>
<text text-anchor="middle" x="897.82" y="-348.18" font-family="Times,serif" font-size="14.00">A</text>
<polyline fill="none" stroke="black" points="884.94,-340.98 910.69,-340.98"/>
<text text-anchor="middle" x="897.82" y="-323.68" font-family="Times,serif" font-size="14.00">B</text>
<polyline fill="none" stroke="black" points="910.69,-316.48 910.69,-365.48"/>
<text text-anchor="middle" x="927.69" y="-344.18" font-family="Times,serif" font-size="14.00">$4</text>
<text text-anchor="middle" x="927.69" y="-327.68" font-family="Times,serif" font-size="14.00">$or</text>
<polyline fill="none" stroke="black" points="944.69,-316.48 944.69,-365.48"/>
<text text-anchor="middle" x="957.57" y="-336.18" font-family="Times,serif" font-size="14.00">Y</text>
</g>
<!-- n5&#45;&gt;c18 -->
<g id="edge30" class="edge">
<title>n5:e&#45;&gt;c18:w</title>
<path fill="none" stroke="black" stroke-width="3" d="M107.84,-215.98C171.66,-215.98 96.04,-312.7 143.84,-354.98 192.32,-397.85 223.5,-373.98 288.22,-373.98 288.22,-373.98 288.22,-373.98 656.57,-373.98 754.6,-373.98 781.04,-354.78 873.63,-353.32"/>
<polygon fill="black" stroke="black" stroke-width="3" points="870.43,-356.84 880.4,-353.26 870.37,-349.84 870.43,-356.84"/>
</g>
<!-- c19 -->
<g id="node21" class="node">
<title>c19</title>
<polygon fill="none" stroke="black" points="1006.44,-191.48 1006.44,-240.48 1098.69,-240.48 1098.69,-191.48 1006.44,-191.48"/>
<text text-anchor="middle" x="1019.32" y="-223.18" font-family="Times,serif" font-size="14.00">A</text>
<polyline fill="none" stroke="black" points="1006.44,-215.98 1032.19,-215.98"/>
<text text-anchor="middle" x="1019.32" y="-198.68" font-family="Times,serif" font-size="14.00">B</text>
<polyline fill="none" stroke="black" points="1032.19,-191.48 1032.19,-240.48"/>
<text text-anchor="middle" x="1052.57" y="-219.18" font-family="Times,serif" font-size="14.00">$5</text>
<text text-anchor="middle" x="1052.57" y="-202.68" font-family="Times,serif" font-size="14.00">$xor</text>
<polyline fill="none" stroke="black" points="1072.94,-191.48 1072.94,-240.48"/>
<text text-anchor="middle" x="1085.82" y="-211.18" font-family="Times,serif" font-size="14.00">Y</text>
</g>
<!-- n5&#45;&gt;c19 -->
<g id="edge31" class="edge">
<title>n5:e&#45;&gt;c19:w</title>
<path fill="none" stroke="black" stroke-width="3" d="M107.84,-215.98C160.55,-215.98 105.28,-138.91 143.84,-102.98 192.15,-57.97 222.19,-67.98 288.22,-67.98 288.22,-67.98 288.22,-67.98 794.69,-67.98 902.55,-67.98 895.33,-194.35 995.1,-203.24"/>
<polygon fill="black" stroke="black" stroke-width="3" points="991.76,-206.6 1001.91,-203.53 992.07,-199.6 991.76,-206.6"/>
</g>
<!-- x16 -->
<g id="node29" class="node">
<title>x16</title>
<path fill="none" stroke="black" d="M155.84,-172.98C155.84,-172.98 194.34,-172.98 194.34,-172.98 200.34,-172.98 206.34,-178.98 206.34,-184.98 206.34,-184.98 206.34,-196.98 206.34,-196.98 206.34,-202.98 200.34,-208.98 194.34,-208.98 194.34,-208.98 155.84,-208.98 155.84,-208.98 149.84,-208.98 143.84,-202.98 143.84,-196.98 143.84,-196.98 143.84,-184.98 143.84,-184.98 143.84,-178.98 149.84,-172.98 155.84,-172.98"/>
<text text-anchor="middle" x="175.09" y="-186.18" font-family="Times,serif" font-size="14.00">3:1 &#45; 2:0</text>
</g>
<!-- n5&#45;&gt;x16 -->
<g id="edge33" class="edge">
<title>n5:e&#45;&gt;x16:w</title>
<path fill="none" stroke="black" stroke-width="3" d="M107.84,-215.98C122.55,-215.98 124.49,-201.77 133.02,-194.88"/>
<polygon fill="black" stroke="black" stroke-width="3" points="131.18,-199.19 139.54,-192.68 128.94,-192.56 131.18,-199.19"/>
</g>
<!-- n6 -->
<g id="node2" class="node">
<title>n6</title>
<polygon fill="none" stroke="black" points="2828.21,-132.52 2828.21,-147.43 2793.7,-157.98 2744.9,-157.98 2710.39,-147.43 2710.39,-132.52 2744.9,-121.98 2793.7,-121.98 2828.21,-132.52"/>
<text text-anchor="middle" x="2769.3" y="-134.93" font-family="Times,serif" font-size="14.00">output_data</text>
</g>
<!-- n7 -->
<g id="node3" class="node">
<title>n7</title>
<polygon fill="none" stroke="black" points="793.69,-252.98 738.44,-234.98 793.69,-216.98 848.94,-234.98 793.69,-252.98"/>
<text text-anchor="middle" x="793.69" y="-229.93" font-family="Times,serif" font-size="14.00">temp_0</text>
</g>
<!-- c16 -->
<g id="node15" class="node">
<title>c16</title>
<polygon fill="none" stroke="black" points="2488.14,-155.48 2488.14,-204.48 2575.89,-204.48 2575.89,-155.48 2488.14,-155.48"/>
<text text-anchor="middle" x="2501.02" y="-187.18" font-family="Times,serif" font-size="14.00">A</text>
<polyline fill="none" stroke="black" points="2488.14,-179.98 2513.89,-179.98"/>
<text text-anchor="middle" x="2501.02" y="-162.68" font-family="Times,serif" font-size="14.00">B</text>
<polyline fill="none" stroke="black" points="2513.89,-155.48 2513.89,-204.48"/>
<text text-anchor="middle" x="2532.02" y="-183.18" font-family="Times,serif" font-size="14.00">$28</text>
<text text-anchor="middle" x="2532.02" y="-166.68" font-family="Times,serif" font-size="14.00">$or</text>
<polyline fill="none" stroke="black" points="2550.14,-155.48 2550.14,-204.48"/>
<text text-anchor="middle" x="2563.02" y="-175.18" font-family="Times,serif" font-size="14.00">Y</text>
</g>
<!-- n7&#45;&gt;c16 -->
<g id="edge41" class="edge">
<title>n7:e&#45;&gt;c16:w</title>
<path fill="none" stroke="black" stroke-width="3" d="M848.94,-234.98C942.03,-234.98 958.48,-287.98 1051.57,-287.98 1051.57,-287.98 1051.57,-287.98 2299.39,-287.98 2389.51,-287.98 2393.86,-200.1 2476.77,-192.72"/>
<polygon fill="black" stroke="black" stroke-width="3" points="2473.77,-196.35 2483.61,-192.42 2473.47,-189.36 2473.77,-196.35"/>
</g>
<!-- c17 -->
<g id="node18" class="node">
<title>c17</title>
<polygon fill="none" stroke="black" points="1625.89,-121.48 1625.89,-170.48 1721.89,-170.48 1721.89,-121.48 1625.89,-121.48"/>
<text text-anchor="middle" x="1638.77" y="-153.18" font-family="Times,serif" font-size="14.00">A</text>
<polyline fill="none" stroke="black" points="1625.89,-145.98 1651.64,-145.98"/>
<text text-anchor="middle" x="1638.77" y="-128.68" font-family="Times,serif" font-size="14.00">B</text>
<polyline fill="none" stroke="black" points="1651.64,-121.48 1651.64,-170.48"/>
<text text-anchor="middle" x="1673.89" y="-149.18" font-family="Times,serif" font-size="14.00">$6</text>
<text text-anchor="middle" x="1673.89" y="-132.68" font-family="Times,serif" font-size="14.00">$mul</text>
<polyline fill="none" stroke="black" points="1696.14,-121.48 1696.14,-170.48"/>
<text text-anchor="middle" x="1709.02" y="-141.18" font-family="Times,serif" font-size="14.00">Y</text>
</g>
<!-- n7&#45;&gt;c17 -->
<g id="edge42" class="edge">
<title>n7:e&#45;&gt;c17:w</title>
<path fill="none" stroke="black" stroke-width="3" d="M848.94,-234.98C955.7,-234.98 944.81,-105.98 1051.57,-105.98 1051.57,-105.98 1051.57,-105.98 1490.59,-105.98 1535.53,-105.98 1545.98,-115.45 1589.89,-124.98 1601.46,-127.49 1606.49,-130.91 1614.52,-132.64"/>
<polygon fill="black" stroke="black" stroke-width="3" points="1611.08,-135.82 1621.37,-133.29 1611.75,-128.86 1611.08,-135.82"/>
</g>
<!-- n7&#45;&gt;c18 -->
<g id="edge43" class="edge">
<title>n7:e&#45;&gt;c18:w</title>
<path fill="none" stroke="black" stroke-width="3" d="M848.94,-234.98C888.87,-234.98 850.46,-310 873.86,-325.82"/>
<polygon fill="black" stroke="black" stroke-width="3" points="869.99,-328.42 880.55,-327.58 871.77,-321.65 869.99,-328.42"/>
</g>
<!-- n8 -->
<g id="node4" class="node">
<title>n8</title>
<polygon fill="none" stroke="black" points="1813.14,-163.98 1757.89,-145.98 1813.14,-127.98 1868.39,-145.98 1813.14,-163.98"/>
<text text-anchor="middle" x="1813.14" y="-140.93" font-family="Times,serif" font-size="14.00">temp_2</text>
</g>
<!-- x4 -->
<g id="node13" class="node">
<title>x4</title>
<path fill="none" stroke="black" d="M1918.64,-127.98C1918.64,-127.98 1957.14,-127.98 1957.14,-127.98 1963.14,-127.98 1969.14,-133.98 1969.14,-139.98 1969.14,-139.98 1969.14,-151.98 1969.14,-151.98 1969.14,-157.98 1963.14,-163.98 1957.14,-163.98 1957.14,-163.98 1918.64,-163.98 1918.64,-163.98 1912.64,-163.98 1906.64,-157.98 1906.64,-151.98 1906.64,-151.98 1906.64,-139.98 1906.64,-139.98 1906.64,-133.98 1912.64,-127.98 1918.64,-127.98"/>
<text text-anchor="middle" x="1937.89" y="-141.18" font-family="Times,serif" font-size="14.00">4:0 &#45; 4:0</text>
</g>
<!-- n8&#45;&gt;x4 -->
<g id="edge47" class="edge">
<title>n8:e&#45;&gt;x4:w</title>
<path fill="none" stroke="black" stroke-width="3" d="M1868.39,-145.98C1880.42,-145.98 1885.9,-146.11 1894.34,-146.18"/>
<polygon fill="black" stroke="black" stroke-width="3" points="1891.09,-149.67 1901.1,-146.21 1891.12,-142.67 1891.09,-149.67"/>
</g>
<!-- x12 -->
<g id="node25" class="node">
<title>x12</title>
<path fill="none" stroke="black" d="M1916.39,-59.48C1916.39,-59.48 1959.39,-59.48 1959.39,-59.48 1965.39,-59.48 1971.39,-65.48 1971.39,-71.48 1971.39,-71.48 1971.39,-96.48 1971.39,-96.48 1971.39,-102.48 1965.39,-108.48 1959.39,-108.48 1959.39,-108.48 1916.39,-108.48 1916.39,-108.48 1910.39,-108.48 1904.39,-102.48 1904.39,-96.48 1904.39,-96.48 1904.39,-71.48 1904.39,-71.48 1904.39,-65.48 1910.39,-59.48 1916.39,-59.48"/>
<text text-anchor="middle" x="1937.89" y="-91.18" font-family="Times,serif" font-size="14.00">0 &#45;&gt; 31:3</text>
<polyline fill="none" stroke="black" points="1904.39,-83.98 1971.39,-83.98"/>
<text text-anchor="middle" x="1937.89" y="-66.68" font-family="Times,serif" font-size="14.00">7:5 &#45; 2:0</text>
</g>
<!-- n8&#45;&gt;x12 -->
<g id="edge45" class="edge">
<title>n8:e&#45;&gt;x12:w</title>
<path fill="none" stroke="black" stroke-width="3" d="M1868.39,-145.98C1900.48,-145.98 1875.9,-89.13 1893.82,-74.92"/>
<polygon fill="black" stroke="black" stroke-width="3" points="1891.48,-79.28 1900.05,-73.04 1889.46,-72.58 1891.48,-79.28"/>
</g>
<!-- x14 -->
<g id="node27" class="node">
<title>x14</title>
<path fill="none" stroke="black" d="M1918.64,-182.98C1918.64,-182.98 1957.14,-182.98 1957.14,-182.98 1963.14,-182.98 1969.14,-188.98 1969.14,-194.98 1969.14,-194.98 1969.14,-206.98 1969.14,-206.98 1969.14,-212.98 1963.14,-218.98 1957.14,-218.98 1957.14,-218.98 1918.64,-218.98 1918.64,-218.98 1912.64,-218.98 1906.64,-212.98 1906.64,-206.98 1906.64,-206.98 1906.64,-194.98 1906.64,-194.98 1906.64,-188.98 1912.64,-182.98 1918.64,-182.98"/>
<text text-anchor="middle" x="1937.89" y="-196.18" font-family="Times,serif" font-size="14.00">7:5 &#45; 2:0</text>
</g>
<!-- n8&#45;&gt;x14 -->
<g id="edge46" class="edge">
<title>n8:e&#45;&gt;x14:w</title>
<path fill="none" stroke="black" stroke-width="3" d="M1868.39,-145.98C1893.38,-145.98 1881.64,-185.31 1895.15,-197.6"/>
<polygon fill="black" stroke="black" stroke-width="3" points="1890.76,-199.79 1901.35,-199.75 1893.04,-193.17 1890.76,-199.79"/>
</g>
<!-- n9 -->
<g id="node5" class="node">
<title>n9</title>
<polygon fill="none" stroke="black" points="2298.39,-185.98 2243.14,-167.98 2298.39,-149.98 2353.64,-167.98 2298.39,-185.98"/>
<text text-anchor="middle" x="2298.39" y="-162.93" font-family="Times,serif" font-size="14.00">temp_3</text>
</g>
<!-- x6 -->
<g id="node16" class="node">
<title>x6</title>
<path fill="none" stroke="black" d="M2401.64,-149.98C2401.64,-149.98 2440.14,-149.98 2440.14,-149.98 2446.14,-149.98 2452.14,-155.98 2452.14,-161.98 2452.14,-161.98 2452.14,-173.98 2452.14,-173.98 2452.14,-179.98 2446.14,-185.98 2440.14,-185.98 2440.14,-185.98 2401.64,-185.98 2401.64,-185.98 2395.64,-185.98 2389.64,-179.98 2389.64,-173.98 2389.64,-173.98 2389.64,-161.98 2389.64,-161.98 2389.64,-155.98 2395.64,-149.98 2401.64,-149.98"/>
<text text-anchor="middle" x="2420.89" y="-163.18" font-family="Times,serif" font-size="14.00">4:0 &#45; 4:0</text>
</g>
<!-- n9&#45;&gt;x6 -->
<g id="edge50" class="edge">
<title>n9:e&#45;&gt;x6:w</title>
<path fill="none" stroke="black" stroke-width="3" d="M2353.64,-167.98C2365.02,-167.98 2370.33,-168.1 2378.2,-168.18"/>
<polygon fill="black" stroke="black" stroke-width="3" points="2375.09,-171.66 2385.1,-168.21 2375.12,-164.66 2375.09,-171.66"/>
</g>
<!-- c13&#45;&gt;n7 -->
<g id="edge40" class="edge">
<title>c13:e&#45;&gt;n7:w</title>
<path fill="none" stroke="black" stroke-width="3" d="M702.44,-182.23C726.17,-182.23 715.55,-219.09 728.01,-231.18"/>
<polygon fill="black" stroke="black" stroke-width="3" points="723.58,-233.3 734.17,-233.43 725.97,-226.72 723.58,-233.3"/>
</g>
<!-- x0&#45;&gt;c13 -->
<g id="edge1" class="edge">
<title>x0:e&#45;&gt;c13:w</title>
<path fill="none" stroke="black" stroke-width="3" d="M585.41,-194.04C589.01,-194.08 592.14,-194.13 595.72,-194.16"/>
<polygon fill="none" stroke="black" stroke-width="3" points="587.39,-194.05 581.38,-198.02 575.4,-193.99 581.41,-190.02 587.39,-194.05"/>
<polygon fill="none" stroke="black" stroke-width="3" points="593.99,-194.15 600.01,-190.18 605.99,-194.21 599.97,-198.18 593.99,-194.15"/>
</g>
<!-- c14 -->
<g id="node8" class="node">
<title>c14</title>
<polygon fill="none" stroke="black" points="242.34,-240.48 242.34,-289.48 336.09,-289.48 336.09,-240.48 242.34,-240.48"/>
<text text-anchor="middle" x="255.22" y="-272.18" font-family="Times,serif" font-size="14.00">A</text>
<polyline fill="none" stroke="black" points="242.34,-264.98 268.09,-264.98"/>
<text text-anchor="middle" x="255.22" y="-247.68" font-family="Times,serif" font-size="14.00">B</text>
<polyline fill="none" stroke="black" points="268.09,-240.48 268.09,-289.48"/>
<text text-anchor="middle" x="289.22" y="-268.18" font-family="Times,serif" font-size="14.00">$22</text>
<text text-anchor="middle" x="289.22" y="-251.68" font-family="Times,serif" font-size="14.00">$and</text>
<polyline fill="none" stroke="black" points="310.34,-240.48 310.34,-289.48"/>
<text text-anchor="middle" x="323.22" y="-260.18" font-family="Times,serif" font-size="14.00">Y</text>
</g>
<!-- x3 -->
<g id="node11" class="node">
<title>x3</title>
<path fill="none" stroke="black" d="M384.09,-228.48C384.09,-228.48 422.59,-228.48 422.59,-228.48 428.59,-228.48 434.59,-234.48 434.59,-240.48 434.59,-240.48 434.59,-265.48 434.59,-265.48 434.59,-271.48 428.59,-277.48 422.59,-277.48 422.59,-277.48 384.09,-277.48 384.09,-277.48 378.09,-277.48 372.09,-271.48 372.09,-265.48 372.09,-265.48 372.09,-240.48 372.09,-240.48 372.09,-234.48 378.09,-228.48 384.09,-228.48"/>
<text text-anchor="middle" x="403.34" y="-260.18" font-family="Times,serif" font-size="14.00">1:1 &#45; 4:4</text>
<polyline fill="none" stroke="black" points="372.09,-252.98 434.59,-252.98"/>
<text text-anchor="middle" x="403.34" y="-235.68" font-family="Times,serif" font-size="14.00">0:0 &#45; 0:0</text>
</g>
<!-- c14&#45;&gt;x3 -->
<g id="edge4" class="edge">
<title>c14:e&#45;&gt;x3:w</title>
<path fill="none" stroke="black" stroke-width="3" d="M348.53,-262.39C352.5,-260.41 355.7,-257.78 359.69,-255.8"/>
<polygon fill="none" stroke="black" stroke-width="3" points="350.43,-261.95 345.47,-267.19 338.73,-264.63 343.69,-259.39 350.43,-261.95"/>
<polygon fill="none" stroke="black" stroke-width="3" points="357.75,-256.24 362.72,-251.01 369.45,-253.58 364.49,-258.81 357.75,-256.24"/>
</g>
<!-- x1&#45;&gt;c14 -->
<g id="edge2" class="edge">
<title>x1:e&#45;&gt;c14:w</title>
<path fill="none" stroke="black" stroke-width="3" d="M218.02,-315.61C224.57,-307.22 224.1,-291.06 230.63,-282.64"/>
<polygon fill="none" stroke="black" stroke-width="3" points="219.7,-314.84 215.92,-320.98 208.8,-319.85 212.58,-313.71 219.7,-314.84"/>
<polygon fill="none" stroke="black" stroke-width="3" points="228.99,-283.39 232.76,-277.25 239.89,-278.36 236.12,-284.51 228.99,-283.39"/>
</g>
<!-- x2&#45;&gt;c14 -->
<g id="edge3" class="edge">
<title>x2:e&#45;&gt;c14:w</title>
<path fill="none" stroke="black" stroke-width="3" d="M219.06,-252.92C222.66,-252.88 225.79,-252.83 229.37,-252.79"/>
<polygon fill="none" stroke="black" stroke-width="3" points="221.04,-252.91 215.06,-256.94 209.05,-252.97 215.03,-248.94 221.04,-252.91"/>
<polygon fill="none" stroke="black" stroke-width="3" points="227.64,-252.8 233.62,-248.77 239.64,-252.74 233.66,-256.77 227.64,-252.8"/>
</g>
<!-- n1 -->
<g id="node31" class="node">
<title>n1</title>
<ellipse fill="black" stroke="black" cx="472.39" cy="-217.98" rx="1.8" ry="1.8"/>
</g>
<!-- x3&#45;&gt;n1 -->
<g id="edge16" class="edge">
<title>x3:e&#45;&gt;n1:w</title>
<path fill="none" stroke="black" d="M434.59,-240.73C448.79,-240.73 451.29,-227.93 459.64,-221.53"/>
<polygon fill="black" stroke="black" points="460.72,-224.86 469.15,-218.45 458.56,-218.21 460.72,-224.86"/>
</g>
<!-- x3&#45;&gt;n1 -->
<g id="edge17" class="edge">
<title>x3:e&#45;&gt;n1:w</title>
<path fill="none" stroke="black" d="M434.59,-265.23C456.25,-265.23 448.83,-233.43 460.04,-222.01"/>
<polygon fill="black" stroke="black" points="461.08,-225.36 469.18,-218.52 458.59,-218.82 461.08,-225.36"/>
</g>
<!-- x5 -->
<g id="node14" class="node">
<title>x5</title>
<path fill="none" stroke="black" d="M2149.89,-125.98C2149.89,-125.98 2188.39,-125.98 2188.39,-125.98 2194.39,-125.98 2200.39,-131.98 2200.39,-137.98 2200.39,-137.98 2200.39,-149.98 2200.39,-149.98 2200.39,-155.98 2194.39,-161.98 2188.39,-161.98 2188.39,-161.98 2149.89,-161.98 2149.89,-161.98 2143.89,-161.98 2137.89,-155.98 2137.89,-149.98 2137.89,-149.98 2137.89,-137.98 2137.89,-137.98 2137.89,-131.98 2143.89,-125.98 2149.89,-125.98"/>
<text text-anchor="middle" x="2169.14" y="-139.18" font-family="Times,serif" font-size="14.00">4:0 &#45; 4:0</text>
</g>
<!-- c15&#45;&gt;x5 -->
<g id="edge6" class="edge">
<title>c15:e&#45;&gt;x5:w</title>
<path fill="none" stroke="black" stroke-width="3" d="M2107.88,-138.47C2113.77,-139.68 2118.3,-141.53 2124.2,-142.75"/>
<polygon fill="none" stroke="black" stroke-width="3" points="2109.78,-138.65 2103.42,-142.05 2097.83,-137.49 2104.19,-134.09 2109.78,-138.65"/>
<polygon fill="none" stroke="black" stroke-width="3" points="2122.26,-142.56 2128.62,-139.16 2134.2,-143.72 2127.84,-147.12 2122.26,-142.56"/>
</g>
<!-- x4&#45;&gt;c15 -->
<g id="edge5" class="edge">
<title>x4:e&#45;&gt;c15:w</title>
<path fill="none" stroke="black" stroke-width="3" d="M1983.06,-146.77C1987.08,-147.28 1990.51,-147.94 1994.53,-148.45"/>
<polygon fill="none" stroke="black" stroke-width="3" points="1984.82,-146.87 1978.59,-150.5 1972.84,-146.14 1979.07,-142.52 1984.82,-146.87"/>
<polygon fill="none" stroke="black" stroke-width="3" points="1992.72,-148.34 1998.95,-144.71 2004.69,-149.06 1998.46,-152.69 1992.72,-148.34"/>
</g>
<!-- x5&#45;&gt;n9 -->
<g id="edge49" class="edge">
<title>x5:e&#45;&gt;n9:w</title>
<path fill="none" stroke="black" stroke-width="3" d="M2201.39,-144.23C2218.24,-144.23 2221.2,-159.02 2232.19,-165.25"/>
<polygon fill="black" stroke="black" stroke-width="3" points="2228.19,-167.86 2238.74,-166.88 2229.88,-161.07 2228.19,-167.86"/>
</g>
<!-- x7 -->
<g id="node17" class="node">
<title>x7</title>
<path fill="none" stroke="black" d="M2623.89,-151.98C2623.89,-151.98 2662.39,-151.98 2662.39,-151.98 2668.39,-151.98 2674.39,-157.98 2674.39,-163.98 2674.39,-163.98 2674.39,-175.98 2674.39,-175.98 2674.39,-181.98 2668.39,-187.98 2662.39,-187.98 2662.39,-187.98 2623.89,-187.98 2623.89,-187.98 2617.89,-187.98 2611.89,-181.98 2611.89,-175.98 2611.89,-175.98 2611.89,-163.98 2611.89,-163.98 2611.89,-157.98 2617.89,-151.98 2623.89,-151.98"/>
<text text-anchor="middle" x="2643.14" y="-165.18" font-family="Times,serif" font-size="14.00">4:0 &#45; 4:0</text>
</g>
<!-- c16&#45;&gt;x7 -->
<g id="edge8" class="edge">
<title>c16:e&#45;&gt;x7:w</title>
<path fill="none" stroke="black" stroke-width="3" d="M2588.26,-177.85C2592.16,-176.24 2595.36,-174.12 2599.21,-172.49"/>
<polygon fill="none" stroke="black" stroke-width="3" points="2590.33,-177.45 2585.2,-182.51 2578.55,-179.72 2583.69,-174.66 2590.33,-177.45"/>
<polygon fill="none" stroke="black" stroke-width="3" points="2597.47,-172.83 2602.58,-167.74 2609.24,-170.5 2604.13,-175.59 2597.47,-172.83"/>
</g>
<!-- x6&#45;&gt;c16 -->
<g id="edge7" class="edge">
<title>x6:e&#45;&gt;c16:w</title>
<path fill="none" stroke="black" stroke-width="3" d="M2464.87,-167.92C2468.46,-167.88 2471.6,-167.83 2475.17,-167.79"/>
<polygon fill="none" stroke="black" stroke-width="3" points="2466.85,-167.91 2460.87,-171.94 2454.85,-167.97 2460.83,-163.94 2466.85,-167.91"/>
<polygon fill="none" stroke="black" stroke-width="3" points="2473.44,-167.8 2479.42,-163.77 2485.44,-167.74 2479.46,-171.77 2473.44,-167.8"/>
</g>
<!-- x7&#45;&gt;n6 -->
<g id="edge39" class="edge">
<title>x7:e&#45;&gt;n6:w</title>
<path fill="none" stroke="black" stroke-width="3" d="M2674.39,-170.23C2690.56,-170.23 2690.75,-152.13 2699.68,-143.93"/>
<polygon fill="black" stroke="black" stroke-width="3" points="2697.96,-148.3 2706.13,-141.55 2695.54,-141.73 2697.96,-148.3"/>
</g>
<!-- c17&#45;&gt;n8 -->
<g id="edge44" class="edge">
<title>c17:e&#45;&gt;n8:w</title>
<path fill="none" stroke="black" stroke-width="3" d="M1721.89,-146.23C1733.27,-146.23 1738.58,-146.1 1746.45,-146.03"/>
<polygon fill="black" stroke="black" stroke-width="3" points="1743.37,-149.54 1753.35,-146 1743.34,-142.54 1743.37,-149.54"/>
</g>
<!-- x8 -->
<g id="node19" class="node">
<title>x8</title>
<path fill="none" stroke="black" d="M1539.39,-134.48C1539.39,-134.48 1577.89,-134.48 1577.89,-134.48 1583.89,-134.48 1589.89,-140.48 1589.89,-146.48 1589.89,-146.48 1589.89,-171.48 1589.89,-171.48 1589.89,-177.48 1583.89,-183.48 1577.89,-183.48 1577.89,-183.48 1539.39,-183.48 1539.39,-183.48 1533.39,-183.48 1527.39,-177.48 1527.39,-171.48 1527.39,-171.48 1527.39,-146.48 1527.39,-146.48 1527.39,-140.48 1533.39,-134.48 1539.39,-134.48"/>
<text text-anchor="middle" x="1558.64" y="-166.18" font-family="Times,serif" font-size="14.00">4:4 &#45; 4:4</text>
<polyline fill="none" stroke="black" points="1527.39,-158.98 1589.89,-158.98"/>
<text text-anchor="middle" x="1558.64" y="-141.68" font-family="Times,serif" font-size="14.00">3:0 &#45; 3:0</text>
</g>
<!-- x8&#45;&gt;c17 -->
<g id="edge9" class="edge">
<title>x8:e&#45;&gt;c17:w</title>
<path fill="none" stroke="black" stroke-width="3" d="M1602.61,-158.79C1606.21,-158.68 1609.34,-158.54 1612.92,-158.43"/>
<polygon fill="none" stroke="black" stroke-width="3" points="1604.59,-158.76 1598.65,-162.85 1592.6,-158.94 1598.54,-154.85 1604.59,-158.76"/>
<polygon fill="none" stroke="black" stroke-width="3" points="1611.19,-158.45 1617.13,-154.36 1623.19,-158.27 1617.25,-162.36 1611.19,-158.45"/>
</g>
<!-- c18&#45;&gt;c19 -->
<g id="edge20" class="edge">
<title>c18:e&#45;&gt;c19:w</title>
<path fill="none" stroke="black" stroke-width="3" d="M970.44,-341.23C1018.62,-341.23 964.76,-246.82 995.4,-230.59"/>
<polygon fill="black" stroke="black" stroke-width="3" points="992.95,-234.69 1002,-229.18 991.49,-227.85 992.95,-234.69"/>
</g>
<!-- x9 -->
<g id="node22" class="node">
<title>x9</title>
<path fill="none" stroke="black" d="M1146.69,-191.48C1146.69,-191.48 1185.19,-191.48 1185.19,-191.48 1191.19,-191.48 1197.19,-197.48 1197.19,-203.48 1197.19,-203.48 1197.19,-228.48 1197.19,-228.48 1197.19,-234.48 1191.19,-240.48 1185.19,-240.48 1185.19,-240.48 1146.69,-240.48 1146.69,-240.48 1140.69,-240.48 1134.69,-234.48 1134.69,-228.48 1134.69,-228.48 1134.69,-203.48 1134.69,-203.48 1134.69,-197.48 1140.69,-191.48 1146.69,-191.48"/>
<text text-anchor="middle" x="1165.94" y="-223.18" font-family="Times,serif" font-size="14.00">4:4 &#45; 4:4</text>
<polyline fill="none" stroke="black" points="1134.69,-215.98 1197.19,-215.98"/>
<text text-anchor="middle" x="1165.94" y="-198.68" font-family="Times,serif" font-size="14.00">3:0 &#45; 3:0</text>
</g>
<!-- c19&#45;&gt;x9 -->
<g id="edge10" class="edge">
<title>c19:e&#45;&gt;x9:w</title>
<path fill="none" stroke="black" stroke-width="3" d="M1111.41,-216.17C1115.01,-216.13 1118.14,-216.08 1121.72,-216.04"/>
<polygon fill="none" stroke="black" stroke-width="3" points="1113.4,-216.16 1107.42,-220.19 1101.4,-216.22 1107.38,-212.19 1113.4,-216.16"/>
<polygon fill="none" stroke="black" stroke-width="3" points="1119.99,-216.05 1125.97,-212.02 1131.99,-215.99 1126.01,-220.02 1119.99,-216.05"/>
</g>
<!-- n3 -->
<g id="node32" class="node">
<title>n3</title>
<ellipse fill="black" stroke="black" cx="1234.99" cy="-184.98" rx="1.8" ry="1.8"/>
</g>
<!-- x9&#45;&gt;n3 -->
<g id="edge21" class="edge">
<title>x9:e&#45;&gt;n3:w</title>
<path fill="none" stroke="black" stroke-width="3" d="M1197.19,-203.73C1210.58,-203.73 1213.99,-193.4 1222.23,-188.07"/>
<polygon fill="black" stroke="black" stroke-width="3" points="1220.15,-192.3 1228.82,-186.21 1218.25,-185.56 1220.15,-192.3"/>
</g>
<!-- n4 -->
<g id="node33" class="node">
<title>n4</title>
<ellipse fill="black" stroke="black" cx="1489.59" cy="-196.98" rx="1.8" ry="1.8"/>
</g>
<!-- x9&#45;&gt;n4 -->
<g id="edge26" class="edge">
<title>x9:e&#45;&gt;n4:w</title>
<path fill="none" stroke="black" d="M1197.19,-228.23C1310.35,-228.23 1346.64,-272.79 1451.79,-230.98 1467.77,-224.63 1467.32,-207.45 1476.86,-200.24"/>
<polygon fill="black" stroke="black" points="1477.76,-203.62 1486.34,-197.41 1475.76,-196.91 1477.76,-203.62"/>
</g>
<!-- x10 -->
<g id="node23" class="node">
<title>x10</title>
<path fill="none" stroke="black" d="M1284.79,-172.48C1284.79,-172.48 1327.79,-172.48 1327.79,-172.48 1333.79,-172.48 1339.79,-178.48 1339.79,-184.48 1339.79,-184.48 1339.79,-209.48 1339.79,-209.48 1339.79,-215.48 1333.79,-221.48 1327.79,-221.48 1327.79,-221.48 1284.79,-221.48 1284.79,-221.48 1278.79,-221.48 1272.79,-215.48 1272.79,-209.48 1272.79,-209.48 1272.79,-184.48 1272.79,-184.48 1272.79,-178.48 1278.79,-172.48 1284.79,-172.48"/>
<text text-anchor="middle" x="1306.29" y="-204.18" font-family="Times,serif" font-size="14.00">0 &#45;&gt; 15:4</text>
<polyline fill="none" stroke="black" points="1272.79,-196.98 1339.79,-196.98"/>
<text text-anchor="middle" x="1306.29" y="-179.68" font-family="Times,serif" font-size="14.00">3:0 &#45; 3:0</text>
</g>
<!-- x11 -->
<g id="node24" class="node">
<title>x11</title>
<path fill="none" stroke="black" d="M1387.79,-172.48C1387.79,-172.48 1439.79,-172.48 1439.79,-172.48 1445.79,-172.48 1451.79,-178.48 1451.79,-184.48 1451.79,-184.48 1451.79,-209.48 1451.79,-209.48 1451.79,-215.48 1445.79,-221.48 1439.79,-221.48 1439.79,-221.48 1387.79,-221.48 1387.79,-221.48 1381.79,-221.48 1375.79,-215.48 1375.79,-209.48 1375.79,-209.48 1375.79,-184.48 1375.79,-184.48 1375.79,-178.48 1381.79,-172.48 1387.79,-172.48"/>
<text text-anchor="middle" x="1413.79" y="-204.18" font-family="Times,serif" font-size="14.00">15:4 &#45; 16:5</text>
<polyline fill="none" stroke="black" points="1375.79,-196.98 1451.79,-196.98"/>
<text text-anchor="middle" x="1413.79" y="-179.68" font-family="Times,serif" font-size="14.00">3:0 &#45; 3:0</text>
</g>
<!-- x10&#45;&gt;x11 -->
<g id="edge11" class="edge">
<title>x10:e&#45;&gt;x11:w</title>
<path fill="none" stroke="black" stroke-width="3" d="M1352.51,-196.98C1356.11,-196.98 1359.24,-196.98 1362.82,-196.98"/>
<polygon fill="none" stroke="black" stroke-width="3" points="1354.5,-196.98 1348.5,-200.98 1342.5,-196.98 1348.5,-192.98 1354.5,-196.98"/>
<polygon fill="none" stroke="black" stroke-width="3" points="1361.09,-196.98 1367.09,-192.98 1373.09,-196.98 1367.09,-200.98 1361.09,-196.98"/>
</g>
<!-- x11&#45;&gt;n4 -->
<g id="edge24" class="edge">
<title>x11:e&#45;&gt;n4:w</title>
<path fill="none" stroke="black" stroke-width="3" d="M1451.79,-184.73C1464.07,-184.73 1468.59,-191.2 1476.62,-194.73"/>
<polygon fill="black" stroke="black" stroke-width="3" points="1472.85,-197.54 1483.34,-196.08 1474.23,-190.68 1472.85,-197.54"/>
</g>
<!-- x11&#45;&gt;n4 -->
<g id="edge25" class="edge">
<title>x11:e&#45;&gt;n4:w</title>
<path fill="none" stroke="black" stroke-width="3" d="M1451.79,-209.23C1464.07,-209.23 1468.59,-202.76 1476.62,-199.23"/>
<polygon fill="black" stroke="black" stroke-width="3" points="1474.23,-203.28 1483.34,-197.87 1472.85,-196.42 1474.23,-203.28"/>
</g>
<!-- x13 -->
<g id="node26" class="node">
<title>x13</title>
<path fill="none" stroke="black" d="M2143.14,-67.98C2143.14,-67.98 2195.14,-67.98 2195.14,-67.98 2201.14,-67.98 2207.14,-73.98 2207.14,-79.98 2207.14,-79.98 2207.14,-91.98 2207.14,-91.98 2207.14,-97.98 2201.14,-103.98 2195.14,-103.98 2195.14,-103.98 2143.14,-103.98 2143.14,-103.98 2137.14,-103.98 2131.14,-97.98 2131.14,-91.98 2131.14,-91.98 2131.14,-79.98 2131.14,-79.98 2131.14,-73.98 2137.14,-67.98 2143.14,-67.98"/>
<text text-anchor="middle" x="2169.14" y="-81.18" font-family="Times,serif" font-size="14.00">31:0 &#45; 36:5</text>
</g>
<!-- x12&#45;&gt;x13 -->
<g id="edge12" class="edge">
<title>x12:e&#45;&gt;x13:w</title>
<path fill="none" stroke="black" stroke-width="3" d="M1984.11,-84C2040.67,-84.21 2061.68,-85.75 2118.12,-85.95"/>
<polygon fill="none" stroke="black" stroke-width="3" points="1986.1,-84 1980.09,-87.99 1974.1,-83.98 1980.1,-79.99 1986.1,-84"/>
<polygon fill="none" stroke="black" stroke-width="3" points="2116.44,-85.95 2122.45,-81.96 2128.44,-85.97 2122.43,-89.96 2116.44,-85.95"/>
</g>
<!-- x13&#45;&gt;n6 -->
<g id="edge38" class="edge">
<title>x13:e&#45;&gt;n6:w</title>
<path fill="none" stroke="black" stroke-width="3" d="M2207.14,-86.23C2302.68,-86.23 2324.36,-116.98 2419.89,-116.98 2419.89,-116.98 2419.89,-116.98 2533.02,-116.98 2608.63,-116.98 2628.96,-137.79 2699.17,-139.82"/>
<polygon fill="black" stroke="black" stroke-width="3" points="2695.81,-143.27 2705.85,-139.91 2695.9,-136.27 2695.81,-143.27"/>
</g>
<!-- x15 -->
<g id="node28" class="node">
<title>x15</title>
<path fill="none" stroke="black" d="M2032.02,-181.98C2032.02,-181.98 2070.52,-181.98 2070.52,-181.98 2076.52,-181.98 2082.52,-187.98 2082.52,-193.98 2082.52,-193.98 2082.52,-205.98 2082.52,-205.98 2082.52,-211.98 2076.52,-217.98 2070.52,-217.98 2070.52,-217.98 2032.02,-217.98 2032.02,-217.98 2026.02,-217.98 2020.02,-211.98 2020.02,-205.98 2020.02,-205.98 2020.02,-193.98 2020.02,-193.98 2020.02,-187.98 2026.02,-181.98 2032.02,-181.98"/>
<text text-anchor="middle" x="2051.27" y="-195.18" font-family="Times,serif" font-size="14.00">2:0 &#45; 7:5</text>
</g>
<!-- x14&#45;&gt;x15 -->
<g id="edge13" class="edge">
<title>x14:e&#45;&gt;x15:w</title>
<path fill="none" stroke="black" stroke-width="3" d="M1983.15,-200.84C1991.6,-200.65 1997.6,-200.31 2006.06,-200.12"/>
<polygon fill="none" stroke="black" stroke-width="3" points="1984.85,-200.82 1978.89,-204.89 1972.85,-200.95 1978.8,-196.89 1984.85,-200.82"/>
<polygon fill="none" stroke="black" stroke-width="3" points="2004.31,-200.14 2010.27,-196.07 2016.31,-200.01 2010.36,-204.07 2004.31,-200.14"/>
</g>
<!-- x15&#45;&gt;n9 -->
<g id="edge48" class="edge">
<title>x15:e&#45;&gt;n9:w</title>
<path fill="none" stroke="black" stroke-width="3" d="M2083.52,-200.23C2116.31,-200.23 2191.04,-173.74 2231.7,-168.78"/>
<polygon fill="black" stroke="black" stroke-width="3" points="2228.88,-172.48 2238.61,-168.29 2228.39,-165.5 2228.88,-172.48"/>
</g>
<!-- x17 -->
<g id="node30" class="node">
<title>x17</title>
<path fill="none" stroke="black" d="M384.09,-172.98C384.09,-172.98 422.59,-172.98 422.59,-172.98 428.59,-172.98 434.59,-178.98 434.59,-184.98 434.59,-184.98 434.59,-196.98 434.59,-196.98 434.59,-202.98 428.59,-208.98 422.59,-208.98 422.59,-208.98 384.09,-208.98 384.09,-208.98 378.09,-208.98 372.09,-202.98 372.09,-196.98 372.09,-196.98 372.09,-184.98 372.09,-184.98 372.09,-178.98 378.09,-172.98 384.09,-172.98"/>
<text text-anchor="middle" x="403.34" y="-186.18" font-family="Times,serif" font-size="14.00">2:0 &#45; 3:1</text>
</g>
<!-- x16&#45;&gt;x17 -->
<g id="edge14" class="edge">
<title>x16:e&#45;&gt;x17:w</title>
<path fill="none" stroke="black" stroke-width="3" d="M219.14,-190.98C278.36,-190.98 300.07,-190.98 359.29,-190.98"/>
<polygon fill="none" stroke="black" stroke-width="3" points="221.05,-190.98 215.05,-194.98 209.05,-190.98 215.05,-186.98 221.05,-190.98"/>
<polygon fill="none" stroke="black" stroke-width="3" points="357.39,-190.98 363.39,-186.98 369.39,-190.98 363.39,-194.98 357.39,-190.98"/>
</g>
<!-- x17&#45;&gt;n1 -->
<g id="edge15" class="edge">
<title>x17:e&#45;&gt;n1:w</title>
<path fill="none" stroke="black" stroke-width="3" d="M434.59,-191.23C449.85,-191.23 451.16,-206.91 459.88,-214.26"/>
<polygon fill="black" stroke="black" stroke-width="3" points="455.71,-216.51 466.3,-216.49 458,-209.9 455.71,-216.51"/>
</g>
<!-- n1&#45;&gt;x0 -->
<g id="edge18" class="edge">
<title>n1:e&#45;&gt;x0:w</title>
<path fill="none" stroke="black" d="M474.19,-217.98C496.21,-217.98 488.27,-185.34 499.52,-173.61"/>
<polygon fill="black" stroke="black" points="500.72,-176.9 508.78,-170.03 498.19,-170.37 500.72,-176.9"/>
</g>
<!-- n1&#45;&gt;x0 -->
<g id="edge19" class="edge">
<title>n1:e&#45;&gt;x0:w</title>
<path fill="none" stroke="black" d="M474.19,-217.98C485.57,-217.98 490.88,-218.23 498.74,-218.38"/>
<polygon fill="black" stroke="black" points="498.65,-221.88 508.68,-218.47 498.71,-214.88 498.65,-221.88"/>
</g>
<!-- n3&#45;&gt;x8 -->
<g id="edge23" class="edge">
<title>n3:e&#45;&gt;x8:w</title>
<path fill="none" stroke="black" stroke-width="3" d="M1236.79,-184.98C1255.54,-184.98 1254.91,-168.63 1272.79,-162.98 1377.21,-129.97 1411.66,-145.56 1516.04,-146.67"/>
<polygon fill="black" stroke="black" stroke-width="3" points="1512.83,-150.15 1522.85,-146.7 1512.87,-143.15 1512.83,-150.15"/>
</g>
<!-- n3&#45;&gt;x10 -->
<g id="edge22" class="edge">
<title>n3:e&#45;&gt;x10:w</title>
<path fill="none" stroke="black" stroke-width="3" d="M1236.79,-184.98C1248.17,-184.98 1253.48,-184.85 1261.35,-184.78"/>
<polygon fill="black" stroke="black" stroke-width="3" points="1258.27,-188.29 1268.25,-184.75 1258.24,-181.29 1258.27,-188.29"/>
</g>
<!-- n4&#45;&gt;x8 -->
<g id="edge27" class="edge">
<title>n4:e&#45;&gt;x8:w</title>
<path fill="none" stroke="black" d="M1491.39,-196.98C1506.45,-196.98 1508.02,-181.88 1516.76,-174.81"/>
<polygon fill="black" stroke="black" points="1517.6,-178.22 1525.96,-171.71 1515.36,-171.59 1517.6,-178.22"/>
</g>
</g>
</svg>
