<?xml version="1.0" encoding="UTF-8" standalone="no"?>
<!DOCTYPE svg PUBLIC "-//W3C//DTD SVG 1.1//EN"
 "http://www.w3.org/Graphics/SVG/1.1/DTD/svg11.dtd">
<!-- Generated by graphviz version 12.2.1 (20241206.2353)
 -->
<!-- Title: top Pages: 1 -->
<svg width="4075pt" height="966pt"
 viewBox="0.00 0.00 4074.87 965.79" xmlns="http://www.w3.org/2000/svg" xmlns:xlink="http://www.w3.org/1999/xlink">
<g id="graph0" class="graph" transform="scale(1 1) rotate(0) translate(4 961.79)">
<title>top</title>
<polygon fill="white" stroke="none" points="-4,4 -4,-961.79 4070.87,-961.79 4070.87,4 -4,4"/>
<text text-anchor="middle" x="2033.43" y="-7.2" font-family="Times,serif" font-size="14.00">top</text>
<!-- n11 -->
<g id="node1" class="node">
<title>n11</title>
<polygon fill="none" stroke="black" points="107.84,-106.54 107.84,-121.46 76.26,-132 31.59,-132 0,-121.46 0,-106.54 31.59,-96 76.26,-96 107.84,-106.54"/>
<text text-anchor="middle" x="53.92" y="-108.95" font-family="Times,serif" font-size="14.00">input_data</text>
</g>
<!-- c23 -->
<g id="node13" class="node">
<title>c23</title>
<polygon fill="none" stroke="black" points="188.85,-683.5 188.85,-724.5 280.35,-724.5 280.35,-683.5 188.85,-683.5"/>
<text text-anchor="middle" x="201.73" y="-699.2" font-family="Times,serif" font-size="14.00">A</text>
<polyline fill="none" stroke="black" points="214.6,-683.5 214.6,-724.5"/>
<text text-anchor="middle" x="234.6" y="-707.2" font-family="Times,serif" font-size="14.00">$59</text>
<text text-anchor="middle" x="234.6" y="-690.7" font-family="Times,serif" font-size="14.00">$not</text>
<polyline fill="none" stroke="black" points="254.6,-683.5 254.6,-724.5"/>
<text text-anchor="middle" x="267.48" y="-699.2" font-family="Times,serif" font-size="14.00">Y</text>
</g>
<!-- n11&#45;&gt;c23 -->
<g id="edge24" class="edge">
<title>n11:e&#45;&gt;c23:w</title>
<path fill="none" stroke="black" stroke-width="3" d="M107.84,-114C164.87,-114 127.46,-571.37 143.84,-626 154.09,-660.19 149.29,-695.83 176.73,-702.96"/>
<polygon fill="black" stroke="black" stroke-width="3" points="173.01,-706.06 183.34,-703.73 173.81,-699.1 173.01,-706.06"/>
</g>
<!-- c26 -->
<g id="node21" class="node">
<title>c26</title>
<polygon fill="none" stroke="black" points="1878.67,-244.5 1878.67,-293.5 1974.67,-293.5 1974.67,-244.5 1878.67,-244.5"/>
<text text-anchor="middle" x="1891.55" y="-276.2" font-family="Times,serif" font-size="14.00">A</text>
<polyline fill="none" stroke="black" points="1878.67,-269 1904.42,-269"/>
<text text-anchor="middle" x="1891.55" y="-251.7" font-family="Times,serif" font-size="14.00">B</text>
<polyline fill="none" stroke="black" points="1904.42,-244.5 1904.42,-293.5"/>
<text text-anchor="middle" x="1926.67" y="-272.2" font-family="Times,serif" font-size="14.00">$13</text>
<text text-anchor="middle" x="1926.67" y="-255.7" font-family="Times,serif" font-size="14.00">$mul</text>
<polyline fill="none" stroke="black" points="1948.92,-244.5 1948.92,-293.5"/>
<text text-anchor="middle" x="1961.8" y="-264.2" font-family="Times,serif" font-size="14.00">Y</text>
</g>
<!-- n11&#45;&gt;c26 -->
<g id="edge25" class="edge">
<title>n11:e&#45;&gt;c26:w</title>
<path fill="none" stroke="black" stroke-width="3" d="M107.84,-114C123.94,-114 127.81,-111.5 143.84,-110 260.23,-99.1 289.21,-90 406.11,-90 406.11,-90 406.11,-90 1685.55,-90 1738.59,-90 1811.79,-235.95 1867.44,-254.76"/>
<polygon fill="black" stroke="black" stroke-width="3" points="1863.75,-257.66 1874.2,-255.96 1864.97,-250.77 1863.75,-257.66"/>
</g>
<!-- x9 -->
<g id="node24" class="node">
<title>x9</title>
<path fill="none" stroke="black" d="M1247.07,-25C1247.07,-25 1292.32,-25 1292.32,-25 1298.32,-25 1304.32,-31 1304.32,-37 1304.32,-37 1304.32,-49 1304.32,-49 1304.32,-55 1298.32,-61 1292.32,-61 1292.32,-61 1247.07,-61 1247.07,-61 1241.07,-61 1235.07,-55 1235.07,-49 1235.07,-49 1235.07,-37 1235.07,-37 1235.07,-31 1241.07,-25 1247.07,-25"/>
<text text-anchor="middle" x="1269.7" y="-38.2" font-family="Times,serif" font-size="14.00">11:4 &#45; 7:0</text>
</g>
<!-- n11&#45;&gt;x9 -->
<g id="edge27" class="edge">
<title>n11:e&#45;&gt;x9:w</title>
<path fill="none" stroke="black" stroke-width="3" d="M107.84,-114C131.11,-114 123.01,-86.35 143.84,-76 248.86,-23.8 288.84,-47 406.11,-47 406.11,-47 406.11,-47 1040.07,-47 1122.86,-47 1146.31,-43.58 1223.77,-43.27"/>
<polygon fill="black" stroke="black" stroke-width="3" points="1220.54,-46.78 1230.53,-43.26 1220.53,-39.78 1220.54,-46.78"/>
</g>
<!-- x10 -->
<g id="node26" class="node">
<title>x10</title>
<path fill="none" stroke="black" d="M215.35,-120C215.35,-120 253.85,-120 253.85,-120 259.85,-120 265.85,-126 265.85,-132 265.85,-132 265.85,-144 265.85,-144 265.85,-150 259.85,-156 253.85,-156 253.85,-156 215.35,-156 215.35,-156 209.35,-156 203.35,-150 203.35,-144 203.35,-144 203.35,-132 203.35,-132 203.35,-126 209.35,-120 215.35,-120"/>
<text text-anchor="middle" x="234.6" y="-133.2" font-family="Times,serif" font-size="14.00">6:5 &#45; 1:0</text>
</g>
<!-- n11&#45;&gt;x10 -->
<g id="edge26" class="edge">
<title>n11:e&#45;&gt;x10:w</title>
<path fill="none" stroke="black" stroke-width="3" d="M107.84,-114C147.14,-114 157.21,-133.92 191.03,-137.65"/>
<polygon fill="black" stroke="black" stroke-width="3" points="187.65,-140.98 197.82,-138.01 188.02,-133.99 187.65,-140.98"/>
</g>
<!-- n12 -->
<g id="node2" class="node">
<title>n12</title>
<polygon fill="none" stroke="black" points="4066.87,-261.54 4066.87,-276.46 4032.36,-287 3983.56,-287 3949.06,-276.46 3949.06,-261.54 3983.56,-251 4032.36,-251 4066.87,-261.54"/>
<text text-anchor="middle" x="4007.96" y="-263.95" font-family="Times,serif" font-size="14.00">output_data</text>
</g>
<!-- n13 -->
<g id="node3" class="node">
<title>n13</title>
<polygon fill="none" stroke="black" points="544.11,-641 488.86,-623 544.11,-605 599.36,-623 544.11,-641"/>
<text text-anchor="middle" x="544.11" y="-617.95" font-family="Times,serif" font-size="14.00">temp_0</text>
</g>
<!-- x1 -->
<g id="node11" class="node">
<title>x1</title>
<path fill="none" stroke="black" d="M762.47,-513C762.47,-513 827.97,-513 827.97,-513 833.97,-513 839.97,-519 839.97,-525 839.97,-525 839.97,-697 839.97,-697 839.97,-703 833.97,-709 827.97,-709 827.97,-709 762.47,-709 762.47,-709 756.47,-709 750.47,-703 750.47,-697 750.47,-697 750.47,-525 750.47,-525 750.47,-519 756.47,-513 762.47,-513"/>
<text text-anchor="middle" x="795.22" y="-691.7" font-family="Times,serif" font-size="14.00">1 &#45;&gt; 22:12</text>
<polyline fill="none" stroke="black" points="750.47,-684.5 839.97,-684.5"/>
<text text-anchor="middle" x="795.22" y="-667.2" font-family="Times,serif" font-size="14.00">11:11 &#45; 11:11</text>
<polyline fill="none" stroke="black" points="750.47,-660 839.97,-660"/>
<text text-anchor="middle" x="795.22" y="-642.7" font-family="Times,serif" font-size="14.00">1 &#45;&gt; 10:9</text>
<polyline fill="none" stroke="black" points="750.47,-635.5 839.97,-635.5"/>
<text text-anchor="middle" x="795.22" y="-618.2" font-family="Times,serif" font-size="14.00">8:7 &#45; 8:7</text>
<polyline fill="none" stroke="black" points="750.47,-611 839.97,-611"/>
<text text-anchor="middle" x="795.22" y="-593.7" font-family="Times,serif" font-size="14.00">1 &#45;&gt; 6:6</text>
<polyline fill="none" stroke="black" points="750.47,-586.5 839.97,-586.5"/>
<text text-anchor="middle" x="795.22" y="-569.2" font-family="Times,serif" font-size="14.00">5:2 &#45; 5:2</text>
<polyline fill="none" stroke="black" points="750.47,-562 839.97,-562"/>
<text text-anchor="middle" x="795.22" y="-544.7" font-family="Times,serif" font-size="14.00">1 &#45;&gt; 1:1</text>
<polyline fill="none" stroke="black" points="750.47,-537.5 839.97,-537.5"/>
<text text-anchor="middle" x="795.22" y="-520.2" font-family="Times,serif" font-size="14.00">0:0 &#45; 0:0</text>
</g>
<!-- n13&#45;&gt;x1 -->
<g id="edge38" class="edge">
<title>n13:e&#45;&gt;x1:w</title>
<path fill="none" stroke="black" d="M599.36,-623C674.93,-623 670.55,-534.93 738,-525.98"/>
<polygon fill="black" stroke="black" points="738.2,-529.48 747.96,-525.35 737.76,-522.49 738.2,-529.48"/>
</g>
<!-- n13&#45;&gt;x1 -->
<g id="edge39" class="edge">
<title>n13:e&#45;&gt;x1:w</title>
<path fill="none" stroke="black" stroke-width="3" d="M599.36,-623C665.53,-623 678.02,-579.62 738.11,-574.7"/>
<polygon fill="black" stroke="black" stroke-width="3" points="735.08,-578.32 744.93,-574.43 734.8,-571.33 735.08,-578.32"/>
</g>
<!-- n13&#45;&gt;x1 -->
<g id="edge40" class="edge">
<title>n13:e&#45;&gt;x1:w</title>
<path fill="none" stroke="black" stroke-width="3" d="M599.36,-623C662.17,-623 680.63,-623.22 738.24,-623.25"/>
<polygon fill="black" stroke="black" stroke-width="3" points="734.93,-626.75 744.93,-623.25 734.93,-619.75 734.93,-626.75"/>
</g>
<!-- n13&#45;&gt;x1 -->
<g id="edge41" class="edge">
<title>n13:e&#45;&gt;x1:w</title>
<path fill="none" stroke="black" d="M599.36,-623C665.6,-623 677.96,-666.83 738.1,-671.79"/>
<polygon fill="black" stroke="black" points="737.82,-675.29 747.96,-672.19 738.1,-668.29 737.82,-675.29"/>
</g>
<!-- x6 -->
<g id="node19" class="node">
<title>x6</title>
<path fill="none" stroke="black" d="M762.47,-243C762.47,-243 827.97,-243 827.97,-243 833.97,-243 839.97,-249 839.97,-255 839.97,-255 839.97,-427 839.97,-427 839.97,-433 833.97,-439 827.97,-439 827.97,-439 762.47,-439 762.47,-439 756.47,-439 750.47,-433 750.47,-427 750.47,-427 750.47,-255 750.47,-255 750.47,-249 756.47,-243 762.47,-243"/>
<text text-anchor="middle" x="795.22" y="-421.7" font-family="Times,serif" font-size="14.00">1 &#45;&gt; 22:12</text>
<polyline fill="none" stroke="black" points="750.47,-414.5 839.97,-414.5"/>
<text text-anchor="middle" x="795.22" y="-397.2" font-family="Times,serif" font-size="14.00">11:11 &#45; 11:11</text>
<polyline fill="none" stroke="black" points="750.47,-390 839.97,-390"/>
<text text-anchor="middle" x="795.22" y="-372.7" font-family="Times,serif" font-size="14.00">1 &#45;&gt; 10:9</text>
<polyline fill="none" stroke="black" points="750.47,-365.5 839.97,-365.5"/>
<text text-anchor="middle" x="795.22" y="-348.2" font-family="Times,serif" font-size="14.00">8:7 &#45; 8:7</text>
<polyline fill="none" stroke="black" points="750.47,-341 839.97,-341"/>
<text text-anchor="middle" x="795.22" y="-323.7" font-family="Times,serif" font-size="14.00">1 &#45;&gt; 6:6</text>
<polyline fill="none" stroke="black" points="750.47,-316.5 839.97,-316.5"/>
<text text-anchor="middle" x="795.22" y="-299.2" font-family="Times,serif" font-size="14.00">5:2 &#45; 5:2</text>
<polyline fill="none" stroke="black" points="750.47,-292 839.97,-292"/>
<text text-anchor="middle" x="795.22" y="-274.7" font-family="Times,serif" font-size="14.00">1 &#45;&gt; 1:1</text>
<polyline fill="none" stroke="black" points="750.47,-267.5 839.97,-267.5"/>
<text text-anchor="middle" x="795.22" y="-250.2" font-family="Times,serif" font-size="14.00">0:0 &#45; 0:0</text>
</g>
<!-- n13&#45;&gt;x6 -->
<g id="edge46" class="edge">
<title>n13:e&#45;&gt;x6:w</title>
<path fill="none" stroke="black" d="M599.36,-623C638.85,-623 621.15,-485.84 635.36,-449 669.89,-359.49 651.19,-263.29 738.04,-255.73"/>
<polygon fill="black" stroke="black" points="738.11,-259.23 747.96,-255.31 737.82,-252.23 738.11,-259.23"/>
</g>
<!-- n13&#45;&gt;x6 -->
<g id="edge47" class="edge">
<title>n13:e&#45;&gt;x6:w</title>
<path fill="none" stroke="black" stroke-width="3" d="M599.36,-623C638.85,-623 618.7,-484.8 635.36,-449 668.25,-378.36 667.7,-311.14 738.06,-304.75"/>
<polygon fill="black" stroke="black" stroke-width="3" points="735.09,-308.38 744.93,-304.45 734.79,-301.39 735.09,-308.38"/>
</g>
<!-- n13&#45;&gt;x6 -->
<g id="edge48" class="edge">
<title>n13:e&#45;&gt;x6:w</title>
<path fill="none" stroke="black" stroke-width="3" d="M599.36,-623C678.33,-623 594.87,-516.8 635.36,-449 667.25,-395.6 681.5,-358.03 738,-353.67"/>
<polygon fill="black" stroke="black" stroke-width="3" points="735.07,-357.28 744.93,-353.42 734.81,-350.29 735.07,-357.28"/>
</g>
<!-- n13&#45;&gt;x6 -->
<g id="edge49" class="edge">
<title>n13:e&#45;&gt;x6:w</title>
<path fill="none" stroke="black" d="M599.36,-623C678.33,-623 584.91,-509.76 635.36,-449 667.84,-409.88 691.1,-403.11 738.05,-402.33"/>
<polygon fill="black" stroke="black" points="737.98,-405.84 747.95,-402.26 737.93,-398.84 737.98,-405.84"/>
</g>
<!-- x13 -->
<g id="node31" class="node">
<title>x13</title>
<path fill="none" stroke="black" d="M775.97,-174.5C775.97,-174.5 814.47,-174.5 814.47,-174.5 820.47,-174.5 826.47,-180.5 826.47,-186.5 826.47,-186.5 826.47,-211.5 826.47,-211.5 826.47,-217.5 820.47,-223.5 814.47,-223.5 814.47,-223.5 775.97,-223.5 775.97,-223.5 769.97,-223.5 763.97,-217.5 763.97,-211.5 763.97,-211.5 763.97,-186.5 763.97,-186.5 763.97,-180.5 769.97,-174.5 775.97,-174.5"/>
<text text-anchor="middle" x="795.22" y="-206.2" font-family="Times,serif" font-size="14.00">1 &#45;&gt; 1:1</text>
<polyline fill="none" stroke="black" points="763.97,-199 826.47,-199"/>
<text text-anchor="middle" x="795.22" y="-181.7" font-family="Times,serif" font-size="14.00">0:0 &#45; 0:0</text>
</g>
<!-- n13&#45;&gt;x13 -->
<g id="edge37" class="edge">
<title>n13:e&#45;&gt;x13:w</title>
<path fill="none" stroke="black" d="M599.36,-623C642.88,-623 608.77,-267.44 635.36,-233 669.86,-188.33 698.7,-186.76 751.67,-186.74"/>
<polygon fill="black" stroke="black" points="751.45,-190.24 761.45,-186.75 751.46,-183.24 751.45,-190.24"/>
</g>
<!-- x24 -->
<g id="node44" class="node">
<title>x24</title>
<path fill="none" stroke="black" d="M769.22,-728C769.22,-728 821.22,-728 821.22,-728 827.22,-728 833.22,-734 833.22,-740 833.22,-740 833.22,-814 833.22,-814 833.22,-820 827.22,-826 821.22,-826 821.22,-826 769.22,-826 769.22,-826 763.22,-826 757.22,-820 757.22,-814 757.22,-814 757.22,-740 757.22,-740 757.22,-734 763.22,-728 769.22,-728"/>
<text text-anchor="middle" x="795.22" y="-808.7" font-family="Times,serif" font-size="14.00">11:11 &#45; 7:7</text>
<polyline fill="none" stroke="black" points="757.22,-801.5 833.22,-801.5"/>
<text text-anchor="middle" x="795.22" y="-784.2" font-family="Times,serif" font-size="14.00">8:7 &#45; 6:5</text>
<polyline fill="none" stroke="black" points="757.22,-777 833.22,-777"/>
<text text-anchor="middle" x="795.22" y="-759.7" font-family="Times,serif" font-size="14.00">5:2 &#45; 4:1</text>
<polyline fill="none" stroke="black" points="757.22,-752.5 833.22,-752.5"/>
<text text-anchor="middle" x="795.22" y="-735.2" font-family="Times,serif" font-size="14.00">0:0 &#45; 0:0</text>
</g>
<!-- n13&#45;&gt;x24 -->
<g id="edge42" class="edge">
<title>n13:e&#45;&gt;x24:w</title>
<path fill="none" stroke="black" d="M599.36,-623C644.93,-623 600.31,-689.89 635.36,-719 674.29,-751.32 698.07,-741.96 744.85,-740.44"/>
<polygon fill="black" stroke="black" points="744.76,-743.94 754.7,-740.28 744.65,-736.94 744.76,-743.94"/>
</g>
<!-- n13&#45;&gt;x24 -->
<g id="edge43" class="edge">
<title>n13:e&#45;&gt;x24:w</title>
<path fill="none" stroke="black" stroke-width="3" d="M599.36,-623C644.93,-623 603.19,-686.73 635.36,-719 673.14,-756.89 695.58,-763.89 744.91,-764.67"/>
<polygon fill="black" stroke="black" stroke-width="3" points="741.65,-768.15 751.68,-764.72 741.7,-761.15 741.65,-768.15"/>
</g>
<!-- n13&#45;&gt;x24 -->
<g id="edge44" class="edge">
<title>n13:e&#45;&gt;x24:w</title>
<path fill="none" stroke="black" stroke-width="3" d="M599.36,-623C644.93,-623 605.95,-684.19 635.36,-719 672.87,-763.4 691.6,-786.21 744.73,-788.97"/>
<polygon fill="black" stroke="black" stroke-width="3" points="741.6,-792.39 751.68,-789.14 741.77,-785.39 741.6,-792.39"/>
</g>
<!-- n13&#45;&gt;x24 -->
<g id="edge45" class="edge">
<title>n13:e&#45;&gt;x24:w</title>
<path fill="none" stroke="black" d="M599.36,-623C644.93,-623 608.43,-682.24 635.36,-719 673.34,-770.83 686.43,-809.05 744.78,-813.35"/>
<polygon fill="black" stroke="black" points="744.59,-816.84 754.71,-813.7 744.84,-809.85 744.59,-816.84"/>
</g>
<!-- n14 -->
<g id="node4" class="node">
<title>n14</title>
<polygon fill="none" stroke="black" points="1547.17,-255 1491.92,-237 1547.17,-219 1602.42,-237 1547.17,-255"/>
<text text-anchor="middle" x="1547.17" y="-231.95" font-family="Times,serif" font-size="14.00">temp_1</text>
</g>
<!-- c21 -->
<g id="node8" class="node">
<title>c21</title>
<polygon fill="none" stroke="black" points="2010.67,-203.5 2010.67,-252.5 2104.42,-252.5 2104.42,-203.5 2010.67,-203.5"/>
<text text-anchor="middle" x="2023.55" y="-235.2" font-family="Times,serif" font-size="14.00">A</text>
<polyline fill="none" stroke="black" points="2010.67,-228 2036.42,-228"/>
<text text-anchor="middle" x="2023.55" y="-210.7" font-family="Times,serif" font-size="14.00">B</text>
<polyline fill="none" stroke="black" points="2036.42,-203.5 2036.42,-252.5"/>
<text text-anchor="middle" x="2057.55" y="-231.2" font-family="Times,serif" font-size="14.00">$14</text>
<text text-anchor="middle" x="2057.55" y="-214.7" font-family="Times,serif" font-size="14.00">$add</text>
<polyline fill="none" stroke="black" points="2078.67,-203.5 2078.67,-252.5"/>
<text text-anchor="middle" x="2091.55" y="-223.2" font-family="Times,serif" font-size="14.00">Y</text>
</g>
<!-- n14&#45;&gt;c21 -->
<g id="edge51" class="edge">
<title>n14:e&#45;&gt;c21:w</title>
<path fill="none" stroke="black" stroke-width="3" d="M1602.42,-237C1780.3,-237 1827.04,-216.63 1999.41,-215.78"/>
<polygon fill="black" stroke="black" stroke-width="3" points="1996.14,-219.29 2006.13,-215.76 1996.12,-212.29 1996.14,-219.29"/>
</g>
<!-- c24 -->
<g id="node15" class="node">
<title>c24</title>
<polygon fill="none" stroke="black" points="1638.42,-285.5 1638.42,-334.5 1730.67,-334.5 1730.67,-285.5 1638.42,-285.5"/>
<text text-anchor="middle" x="1651.3" y="-317.2" font-family="Times,serif" font-size="14.00">A</text>
<polyline fill="none" stroke="black" points="1638.42,-310 1664.17,-310"/>
<text text-anchor="middle" x="1651.3" y="-292.7" font-family="Times,serif" font-size="14.00">B</text>
<polyline fill="none" stroke="black" points="1664.17,-285.5 1664.17,-334.5"/>
<text text-anchor="middle" x="1684.55" y="-313.2" font-family="Times,serif" font-size="14.00">$63</text>
<text text-anchor="middle" x="1684.55" y="-296.7" font-family="Times,serif" font-size="14.00">$xor</text>
<polyline fill="none" stroke="black" points="1704.92,-285.5 1704.92,-334.5"/>
<text text-anchor="middle" x="1717.8" y="-305.2" font-family="Times,serif" font-size="14.00">Y</text>
</g>
<!-- n14&#45;&gt;c24 -->
<g id="edge52" class="edge">
<title>n14:e&#45;&gt;c24:w</title>
<path fill="none" stroke="black" stroke-width="3" d="M1602.42,-237C1629.15,-237 1613.7,-281.05 1627.91,-294.13"/>
<polygon fill="black" stroke="black" stroke-width="3" points="1623.54,-296.33 1634.13,-296.27 1625.81,-289.71 1623.54,-296.33"/>
</g>
<!-- c32 -->
<g id="node36" class="node">
<title>c32</title>
<polygon fill="none" stroke="black" points="3494.81,-274.5 3494.81,-323.5 3587.06,-323.5 3587.06,-274.5 3494.81,-274.5"/>
<text text-anchor="middle" x="3507.68" y="-306.2" font-family="Times,serif" font-size="14.00">A</text>
<polyline fill="none" stroke="black" points="3494.81,-299 3520.56,-299"/>
<text text-anchor="middle" x="3507.68" y="-281.7" font-family="Times,serif" font-size="14.00">B</text>
<polyline fill="none" stroke="black" points="3520.56,-274.5 3520.56,-323.5"/>
<text text-anchor="middle" x="3540.93" y="-302.2" font-family="Times,serif" font-size="14.00">$43</text>
<text text-anchor="middle" x="3540.93" y="-285.7" font-family="Times,serif" font-size="14.00">$xor</text>
<polyline fill="none" stroke="black" points="3561.31,-274.5 3561.31,-323.5"/>
<text text-anchor="middle" x="3574.18" y="-294.2" font-family="Times,serif" font-size="14.00">Y</text>
</g>
<!-- n14&#45;&gt;c32 -->
<g id="edge53" class="edge">
<title>n14:e&#45;&gt;c32:w</title>
<path fill="none" stroke="black" stroke-width="3" d="M1602.42,-237C1616.07,-237 1829.65,-283.94 1842.67,-288 1859.22,-293.16 1861.87,-298.75 1878.67,-303 2010.97,-336.49 2047.7,-334 2184.17,-334 2184.17,-334 2184.17,-334 2593.7,-334 2739.74,-334 2776.22,-338 2922.25,-338 2922.25,-338 2922.25,-338 3265.3,-338 3364.08,-338 3390.16,-313.25 3483.41,-311.36"/>
<polygon fill="black" stroke="black" stroke-width="3" points="3480.3,-314.89 3490.26,-311.3 3480.23,-307.89 3480.3,-314.89"/>
</g>
<!-- n15 -->
<g id="node5" class="node">
<title>n15</title>
<polygon fill="none" stroke="black" points="2327.69,-171 2265.92,-153 2327.69,-135 2389.45,-153 2327.69,-171"/>
<text text-anchor="middle" x="2327.69" y="-147.95" font-family="Times,serif" font-size="14.00">temp_14</text>
</g>
<!-- x2 -->
<g id="node12" class="node">
<title>x2</title>
<path fill="none" stroke="black" d="M2973.05,-182.25C2973.05,-182.25 3038.55,-182.25 3038.55,-182.25 3044.55,-182.25 3050.55,-188.25 3050.55,-194.25 3050.55,-194.25 3050.55,-243.75 3050.55,-243.75 3050.55,-249.75 3044.55,-255.75 3038.55,-255.75 3038.55,-255.75 2973.05,-255.75 2973.05,-255.75 2967.05,-255.75 2961.05,-249.75 2961.05,-243.75 2961.05,-243.75 2961.05,-194.25 2961.05,-194.25 2961.05,-188.25 2967.05,-182.25 2973.05,-182.25"/>
<text text-anchor="middle" x="3005.8" y="-238.45" font-family="Times,serif" font-size="14.00">18:16 &#45; 18:16</text>
<polyline fill="none" stroke="black" points="2961.05,-231.25 3050.55,-231.25"/>
<text text-anchor="middle" x="3005.8" y="-213.95" font-family="Times,serif" font-size="14.00">15:14 &#45; 15:14</text>
<polyline fill="none" stroke="black" points="2961.05,-206.75 3050.55,-206.75"/>
<text text-anchor="middle" x="3005.8" y="-189.45" font-family="Times,serif" font-size="14.00">13:0 &#45; 13:0</text>
</g>
<!-- n15&#45;&gt;x2 -->
<g id="edge57" class="edge">
<title>n15:e&#45;&gt;x2:w</title>
<path fill="none" stroke="black" stroke-width="3" d="M2389.45,-153C2401.19,-153 2579.97,-92 2591.7,-92 2591.7,-92 2591.7,-92 2848.45,-92 2912.03,-92 2895.8,-182.46 2949.72,-193.42"/>
<polygon fill="black" stroke="black" stroke-width="3" points="2946.25,-196.6 2956.53,-194.07 2946.91,-189.63 2946.25,-196.6"/>
</g>
<!-- x18 -->
<g id="node38" class="node">
<title>x18</title>
<path fill="none" stroke="black" d="M2695.95,-138.5C2695.95,-138.5 2761.45,-138.5 2761.45,-138.5 2767.45,-138.5 2773.45,-144.5 2773.45,-150.5 2773.45,-150.5 2773.45,-175.5 2773.45,-175.5 2773.45,-181.5 2767.45,-187.5 2761.45,-187.5 2761.45,-187.5 2695.95,-187.5 2695.95,-187.5 2689.95,-187.5 2683.95,-181.5 2683.95,-175.5 2683.95,-175.5 2683.95,-150.5 2683.95,-150.5 2683.95,-144.5 2689.95,-138.5 2695.95,-138.5"/>
<text text-anchor="middle" x="2728.7" y="-170.2" font-family="Times,serif" font-size="14.00">15:14 &#45; 15:14</text>
<polyline fill="none" stroke="black" points="2683.95,-163 2773.45,-163"/>
<text text-anchor="middle" x="2728.7" y="-145.7" font-family="Times,serif" font-size="14.00">13:0 &#45; 13:0</text>
</g>
<!-- n15&#45;&gt;x18 -->
<g id="edge55" class="edge">
<title>n15:e&#45;&gt;x18:w</title>
<path fill="none" stroke="black" stroke-width="3" d="M2389.45,-153C2405.55,-153 2409.38,-149.89 2425.45,-149 2459.18,-147.13 2467.68,-148.84 2501.45,-149 2578.61,-149.37 2600.71,-150.62 2672.49,-150.74"/>
<polygon fill="black" stroke="black" stroke-width="3" points="2669.41,-154.24 2679.41,-150.75 2669.42,-147.24 2669.41,-154.24"/>
</g>
<!-- x23 -->
<g id="node43" class="node">
<title>x23</title>
<path fill="none" stroke="black" d="M2437.45,-159C2437.45,-159 2489.45,-159 2489.45,-159 2495.45,-159 2501.45,-165 2501.45,-171 2501.45,-171 2501.45,-183 2501.45,-183 2501.45,-189 2495.45,-195 2489.45,-195 2489.45,-195 2437.45,-195 2437.45,-195 2431.45,-195 2425.45,-189 2425.45,-183 2425.45,-183 2425.45,-171 2425.45,-171 2425.45,-165 2431.45,-159 2437.45,-159"/>
<text text-anchor="middle" x="2463.45" y="-172.2" font-family="Times,serif" font-size="14.00">13:0 &#45; 13:0</text>
</g>
<!-- n15&#45;&gt;x23 -->
<g id="edge56" class="edge">
<title>n15:e&#45;&gt;x23:w</title>
<path fill="none" stroke="black" stroke-width="3" d="M2389.45,-153C2404.03,-153 2406.14,-166.78 2414.68,-173.46"/>
<polygon fill="black" stroke="black" stroke-width="3" points="2410.55,-175.78 2421.14,-175.58 2412.73,-169.13 2410.55,-175.78"/>
</g>
<!-- n16 -->
<g id="node6" class="node">
<title>n16</title>
<polygon fill="none" stroke="black" points="2592.7,-203 2537.45,-185 2592.7,-167 2647.95,-185 2592.7,-203"/>
<text text-anchor="middle" x="2592.7" y="-179.95" font-family="Times,serif" font-size="14.00">temp_2</text>
</g>
<!-- n16&#45;&gt;x2 -->
<g id="edge61" class="edge">
<title>n16:e&#45;&gt;x2:w</title>
<path fill="none" stroke="black" stroke-width="3" d="M2647.95,-185C2664.82,-185 2667.43,-193.64 2683.95,-197 2801.24,-220.83 2835.39,-219.14 2949.73,-219.01"/>
<polygon fill="black" stroke="black" stroke-width="3" points="2946.52,-222.51 2956.51,-219 2946.51,-215.51 2946.52,-222.51"/>
</g>
<!-- n16&#45;&gt;x18 -->
<g id="edge60" class="edge">
<title>n16:e&#45;&gt;x18:w</title>
<path fill="none" stroke="black" stroke-width="3" d="M2647.95,-185C2659.87,-185 2664.69,-179.96 2672.62,-177.13"/>
<polygon fill="black" stroke="black" stroke-width="3" points="2670.18,-181.08 2679.47,-175.99 2669.04,-174.18 2670.18,-181.08"/>
</g>
<!-- n17 -->
<g id="node7" class="node">
<title>n17</title>
<polygon fill="none" stroke="black" points="3403.55,-253 3348.3,-235 3403.55,-217 3458.81,-235 3403.55,-253"/>
<text text-anchor="middle" x="3403.55" y="-229.95" font-family="Times,serif" font-size="14.00">temp_6</text>
</g>
<!-- c29 -->
<g id="node28" class="node">
<title>c29</title>
<polygon fill="none" stroke="black" points="3495.18,-214.5 3495.18,-255.5 3586.68,-255.5 3586.68,-214.5 3495.18,-214.5"/>
<text text-anchor="middle" x="3508.06" y="-230.2" font-family="Times,serif" font-size="14.00">A</text>
<polyline fill="none" stroke="black" points="3520.93,-214.5 3520.93,-255.5"/>
<text text-anchor="middle" x="3540.93" y="-238.2" font-family="Times,serif" font-size="14.00">$45</text>
<text text-anchor="middle" x="3540.93" y="-221.7" font-family="Times,serif" font-size="14.00">$not</text>
<polyline fill="none" stroke="black" points="3560.93,-214.5 3560.93,-255.5"/>
<text text-anchor="middle" x="3573.81" y="-230.2" font-family="Times,serif" font-size="14.00">Y</text>
</g>
<!-- n17&#45;&gt;c29 -->
<g id="edge63" class="edge">
<title>n17:e&#45;&gt;c29:w</title>
<path fill="none" stroke="black" stroke-width="3" d="M3458.81,-235C3470.18,-235 3475.49,-235.13 3483.36,-235.2"/>
<polygon fill="black" stroke="black" stroke-width="3" points="3480.25,-238.69 3490.26,-235.23 3480.28,-231.69 3480.25,-238.69"/>
</g>
<!-- n17&#45;&gt;c32 -->
<g id="edge64" class="edge">
<title>n17:e&#45;&gt;c32:w</title>
<path fill="none" stroke="black" stroke-width="3" d="M3458.81,-235C3482.01,-235 3472.26,-270.49 3484.13,-282.69"/>
<polygon fill="black" stroke="black" stroke-width="3" points="3479.97,-284.85 3490.56,-285.14 3482.46,-278.31 3479.97,-284.85"/>
</g>
<!-- x0 -->
<g id="node9" class="node">
<title>x0</title>
<path fill="none" stroke="black" d="M2152.42,-189.25C2152.42,-189.25 2217.92,-189.25 2217.92,-189.25 2223.92,-189.25 2229.92,-195.25 2229.92,-201.25 2229.92,-201.25 2229.92,-250.75 2229.92,-250.75 2229.92,-256.75 2223.92,-262.75 2217.92,-262.75 2217.92,-262.75 2152.42,-262.75 2152.42,-262.75 2146.42,-262.75 2140.42,-256.75 2140.42,-250.75 2140.42,-250.75 2140.42,-201.25 2140.42,-201.25 2140.42,-195.25 2146.42,-189.25 2152.42,-189.25"/>
<text text-anchor="middle" x="2185.17" y="-245.45" font-family="Times,serif" font-size="14.00">18:16 &#45; 18:16</text>
<polyline fill="none" stroke="black" points="2140.42,-238.25 2229.92,-238.25"/>
<text text-anchor="middle" x="2185.17" y="-220.95" font-family="Times,serif" font-size="14.00">15:14 &#45; 15:14</text>
<polyline fill="none" stroke="black" points="2140.42,-213.75 2229.92,-213.75"/>
<text text-anchor="middle" x="2185.17" y="-196.45" font-family="Times,serif" font-size="14.00">13:0 &#45; 13:0</text>
</g>
<!-- c21&#45;&gt;x0 -->
<g id="edge1" class="edge">
<title>c21:e&#45;&gt;x0:w</title>
<path fill="none" stroke="black" stroke-width="3" d="M2117.15,-227.68C2120.75,-227.35 2123.87,-226.93 2127.44,-226.59"/>
<polygon fill="none" stroke="black" stroke-width="3" points="2119.11,-227.59 2113.3,-231.86 2107.13,-228.13 2112.94,-223.87 2119.11,-227.59"/>
<polygon fill="none" stroke="black" stroke-width="3" points="2125.73,-226.67 2131.55,-222.4 2137.72,-226.12 2131.91,-230.39 2125.73,-226.67"/>
</g>
<!-- x0&#45;&gt;n15 -->
<g id="edge54" class="edge">
<title>x0:e&#45;&gt;n15:w</title>
<path fill="none" stroke="black" stroke-width="3" d="M2229.92,-201.5C2251.94,-201.5 2244,-168.86 2255.25,-157.14"/>
<polygon fill="black" stroke="black" stroke-width="3" points="2253.63,-161.52 2261.69,-154.64 2251.1,-154.99 2253.63,-161.52"/>
</g>
<!-- x0&#45;&gt;n16 -->
<g id="edge58" class="edge">
<title>x0:e&#45;&gt;n16:w</title>
<path fill="none" stroke="black" stroke-width="3" d="M2229.92,-226C2351,-226 2385.2,-237.84 2501.45,-204 2514.35,-200.25 2517.97,-191.6 2526.37,-187.39"/>
<polygon fill="black" stroke="black" stroke-width="3" points="2523.98,-191.49 2533.01,-185.96 2522.5,-184.64 2523.98,-191.49"/>
</g>
<!-- n8 -->
<g id="node49" class="node">
<title>n8</title>
<ellipse fill="black" stroke="black" cx="2923.25" cy="-246" rx="1.8" ry="1.8"/>
</g>
<!-- x0&#45;&gt;n8 -->
<g id="edge79" class="edge">
<title>x0:e&#45;&gt;n8:w</title>
<path fill="none" stroke="black" stroke-width="3" d="M2229.92,-250.5C2333.4,-250.5 2358.98,-262 2462.45,-262 2462.45,-262 2462.45,-262 2729.7,-262 2811.38,-262 2833.94,-247.41 2910.31,-246.09"/>
<polygon fill="black" stroke="black" stroke-width="3" points="2906.94,-249.62 2916.91,-246.04 2906.88,-242.62 2906.94,-249.62"/>
</g>
<!-- c22 -->
<g id="node10" class="node">
<title>c22</title>
<polygon fill="none" stroke="black" points="3086.55,-214.5 3086.55,-263.5 3180.3,-263.5 3180.3,-214.5 3086.55,-214.5"/>
<text text-anchor="middle" x="3099.43" y="-246.2" font-family="Times,serif" font-size="14.00">A</text>
<polyline fill="none" stroke="black" points="3086.55,-239 3112.3,-239"/>
<text text-anchor="middle" x="3099.43" y="-221.7" font-family="Times,serif" font-size="14.00">B</text>
<polyline fill="none" stroke="black" points="3112.3,-214.5 3112.3,-263.5"/>
<text text-anchor="middle" x="3133.43" y="-242.2" font-family="Times,serif" font-size="14.00">$26</text>
<text text-anchor="middle" x="3133.43" y="-225.7" font-family="Times,serif" font-size="14.00">$add</text>
<polyline fill="none" stroke="black" points="3154.55,-214.5 3154.55,-263.5"/>
<text text-anchor="middle" x="3167.43" y="-234.2" font-family="Times,serif" font-size="14.00">Y</text>
</g>
<!-- c27 -->
<g id="node23" class="node">
<title>c27</title>
<polygon fill="none" stroke="black" points="3216.3,-202.5 3216.3,-251.5 3312.3,-251.5 3312.3,-202.5 3216.3,-202.5"/>
<text text-anchor="middle" x="3229.18" y="-234.2" font-family="Times,serif" font-size="14.00">A</text>
<polyline fill="none" stroke="black" points="3216.3,-227 3242.05,-227"/>
<text text-anchor="middle" x="3229.18" y="-209.7" font-family="Times,serif" font-size="14.00">B</text>
<polyline fill="none" stroke="black" points="3242.05,-202.5 3242.05,-251.5"/>
<text text-anchor="middle" x="3264.3" y="-230.2" font-family="Times,serif" font-size="14.00">$27</text>
<text text-anchor="middle" x="3264.3" y="-213.7" font-family="Times,serif" font-size="14.00">$mul</text>
<polyline fill="none" stroke="black" points="3286.55,-202.5 3286.55,-251.5"/>
<text text-anchor="middle" x="3299.43" y="-222.2" font-family="Times,serif" font-size="14.00">Y</text>
</g>
<!-- c22&#45;&gt;c27 -->
<g id="edge20" class="edge">
<title>c22:e&#45;&gt;c27:w</title>
<path fill="none" stroke="black" stroke-width="3" d="M3180.3,-239.25C3191.68,-239.25 3196.99,-239.25 3204.86,-239.25"/>
<polygon fill="black" stroke="black" stroke-width="3" points="3201.76,-242.75 3211.76,-239.25 3201.76,-235.75 3201.76,-242.75"/>
</g>
<!-- x1&#45;&gt;c22 -->
<g id="edge2" class="edge">
<title>x1:e&#45;&gt;c22:w</title>
<path fill="none" stroke="black" stroke-width="3" d="M854.01,-610.57C1009.8,-600.07 994.77,-401 1160.07,-401 1160.07,-401 1160.07,-401 1548.17,-401 1831.13,-401 1901.21,-372 2184.17,-372 2184.17,-372 2184.17,-372 2593.7,-372 2802.24,-372 2851.17,-326.12 3050.55,-265 3061.81,-261.55 3066.51,-256.34 3073.91,-253.43"/>
<polygon fill="none" stroke="black" stroke-width="3" points="855.66,-610.51 849.8,-614.71 843.67,-610.91 849.54,-606.72 855.66,-610.51"/>
<polygon fill="none" stroke="black" stroke-width="3" points="3072.06,-253.75 3077.3,-248.79 3083.89,-251.71 3078.66,-256.67 3072.06,-253.75"/>
</g>
<!-- x2&#45;&gt;c22 -->
<g id="edge3" class="edge">
<title>x2:e&#45;&gt;c22:w</title>
<path fill="none" stroke="black" stroke-width="3" d="M3063.36,-220.96C3067.03,-222.14 3070.16,-223.64 3073.83,-224.82"/>
<polygon fill="none" stroke="black" stroke-width="3" points="3065.09,-221.22 3058.55,-224.27 3053.23,-219.41 3059.76,-216.36 3065.09,-221.22"/>
<polygon fill="none" stroke="black" stroke-width="3" points="3072.02,-224.55 3078.55,-221.49 3083.88,-226.34 3077.35,-229.4 3072.02,-224.55"/>
</g>
<!-- x3 -->
<g id="node14" class="node">
<title>x3</title>
<path fill="none" stroke="black" d="M374.36,-667.25C374.36,-667.25 439.86,-667.25 439.86,-667.25 445.86,-667.25 451.86,-673.25 451.86,-679.25 451.86,-679.25 451.86,-826.75 451.86,-826.75 451.86,-832.75 445.86,-838.75 439.86,-838.75 439.86,-838.75 374.36,-838.75 374.36,-838.75 368.36,-838.75 362.36,-832.75 362.36,-826.75 362.36,-826.75 362.36,-679.25 362.36,-679.25 362.36,-673.25 368.36,-667.25 374.36,-667.25"/>
<text text-anchor="middle" x="407.11" y="-821.45" font-family="Times,serif" font-size="14.00">11:11 &#45; 11:11</text>
<polyline fill="none" stroke="black" points="362.36,-814.25 451.86,-814.25"/>
<text text-anchor="middle" x="407.11" y="-796.95" font-family="Times,serif" font-size="14.00">10:9 &#45; 10:9</text>
<polyline fill="none" stroke="black" points="362.36,-789.75 451.86,-789.75"/>
<text text-anchor="middle" x="407.11" y="-772.45" font-family="Times,serif" font-size="14.00">8:7 &#45; 8:7</text>
<polyline fill="none" stroke="black" points="362.36,-765.25 451.86,-765.25"/>
<text text-anchor="middle" x="407.11" y="-747.95" font-family="Times,serif" font-size="14.00">6:6 &#45; 6:6</text>
<polyline fill="none" stroke="black" points="362.36,-740.75 451.86,-740.75"/>
<text text-anchor="middle" x="407.11" y="-723.45" font-family="Times,serif" font-size="14.00">5:2 &#45; 5:2</text>
<polyline fill="none" stroke="black" points="362.36,-716.25 451.86,-716.25"/>
<text text-anchor="middle" x="407.11" y="-698.95" font-family="Times,serif" font-size="14.00">1:1 &#45; 1:1</text>
<polyline fill="none" stroke="black" points="362.36,-691.75 451.86,-691.75"/>
<text text-anchor="middle" x="407.11" y="-674.45" font-family="Times,serif" font-size="14.00">0:0 &#45; 0:0</text>
</g>
<!-- c23&#45;&gt;x3 -->
<g id="edge4" class="edge">
<title>c23:e&#45;&gt;x3:w</title>
<path fill="none" stroke="black" stroke-width="3" d="M293.9,-705.99C319.1,-713.55 323.57,-743.61 348.71,-751.23"/>
<polygon fill="none" stroke="black" stroke-width="3" points="295.92,-706.26 289.43,-709.4 284.03,-704.62 290.52,-701.48 295.92,-706.26"/>
<polygon fill="none" stroke="black" stroke-width="3" points="346.8,-750.97 353.29,-747.84 358.68,-752.63 352.19,-755.76 346.8,-750.97"/>
</g>
<!-- x3&#45;&gt;n13 -->
<g id="edge33" class="edge">
<title>x3:e&#45;&gt;n13:w</title>
<path fill="none" stroke="black" d="M452.86,-679.5C477.99,-679.5 465.14,-639.28 478.4,-626.71"/>
<polygon fill="black" stroke="black" points="479.18,-630.15 487.44,-623.51 476.84,-623.55 479.18,-630.15"/>
</g>
<!-- x3&#45;&gt;n13 -->
<g id="edge34" class="edge">
<title>x3:e&#45;&gt;n13:w</title>
<path fill="none" stroke="black" stroke-width="3" d="M452.86,-728.5C497.76,-728.5 450.16,-641.85 477.71,-625.61"/>
<polygon fill="black" stroke="black" stroke-width="3" points="475.5,-629.72 484.44,-624.03 473.91,-622.9 475.5,-629.72"/>
</g>
<!-- x3&#45;&gt;n13 -->
<g id="edge35" class="edge">
<title>x3:e&#45;&gt;n13:w</title>
<path fill="none" stroke="black" stroke-width="3" d="M452.86,-777.5C518.96,-777.5 430.8,-641.71 477.61,-624.74"/>
<polygon fill="black" stroke="black" stroke-width="3" points="475.03,-628.68 484.37,-623.69 473.96,-621.76 475.03,-628.68"/>
</g>
<!-- x3&#45;&gt;n13 -->
<g id="edge36" class="edge">
<title>x3:e&#45;&gt;n13:w</title>
<path fill="none" stroke="black" d="M452.86,-826.5C540.41,-826.5 410.33,-641.63 477.48,-624.3"/>
<polygon fill="black" stroke="black" points="477.82,-627.78 487.36,-623.17 477.03,-620.83 477.82,-627.78"/>
</g>
<!-- n2 -->
<g id="node47" class="node">
<title>n2</title>
<polygon fill="none" stroke="black" points="1161.07,-831 1126.09,-813 1161.07,-795 1196.06,-813 1161.07,-831"/>
<text text-anchor="middle" x="1161.07" y="-807.95" font-family="Times,serif" font-size="14.00">$58</text>
</g>
<!-- x3&#45;&gt;n2 -->
<g id="edge69" class="edge">
<title>x3:e&#45;&gt;n2:w</title>
<path fill="none" stroke="black" d="M452.86,-704C552.97,-704 540.13,-805.17 635.36,-836 730.86,-866.92 990.56,-863.58 1087.07,-836 1101.17,-831.97 1104.02,-820.84 1112.99,-815.68"/>
<polygon fill="black" stroke="black" points="1113.67,-819.12 1122.56,-813.36 1112.02,-812.32 1113.67,-819.12"/>
</g>
<!-- x3&#45;&gt;n2 -->
<g id="edge70" class="edge">
<title>x3:e&#45;&gt;n2:w</title>
<path fill="none" stroke="black" d="M452.86,-753C472.09,-753 472.51,-766.88 488.86,-777 552.68,-816.51 562.84,-841.68 635.36,-861 829.36,-912.67 906.55,-945.86 1087.07,-858 1105.98,-848.8 1101.48,-824.84 1113.01,-816.18"/>
<polygon fill="black" stroke="black" points="1113.94,-819.56 1122.58,-813.42 1112,-812.83 1113.94,-819.56"/>
</g>
<!-- x3&#45;&gt;n2 -->
<g id="edge71" class="edge">
<title>x3:e&#45;&gt;n2:w</title>
<path fill="none" stroke="black" stroke-width="3" d="M452.86,-802C472.34,-802 472.13,-817.03 488.86,-827 551.53,-864.34 564.4,-884.1 635.36,-901 830.71,-947.54 921.56,-1004.71 1087.07,-891 1114.86,-871.91 1092.72,-826.12 1113,-815.31"/>
<polygon fill="black" stroke="black" stroke-width="3" points="1110.52,-819.41 1119.59,-813.93 1109.09,-812.56 1110.52,-819.41"/>
</g>
<!-- x8 -->
<g id="node22" class="node">
<title>x8</title>
<path fill="none" stroke="black" d="M1778.67,-297.5C1778.67,-297.5 1830.67,-297.5 1830.67,-297.5 1836.67,-297.5 1842.67,-303.5 1842.67,-309.5 1842.67,-309.5 1842.67,-334.5 1842.67,-334.5 1842.67,-340.5 1836.67,-346.5 1830.67,-346.5 1830.67,-346.5 1778.67,-346.5 1778.67,-346.5 1772.67,-346.5 1766.67,-340.5 1766.67,-334.5 1766.67,-334.5 1766.67,-309.5 1766.67,-309.5 1766.67,-303.5 1772.67,-297.5 1778.67,-297.5"/>
<text text-anchor="middle" x="1804.67" y="-329.2" font-family="Times,serif" font-size="14.00">27:0 &#45; 29:2</text>
<polyline fill="none" stroke="black" points="1766.67,-322 1842.67,-322"/>
<text text-anchor="middle" x="1804.67" y="-304.7" font-family="Times,serif" font-size="14.00">1:0 &#45; 1:0</text>
</g>
<!-- c24&#45;&gt;x8 -->
<g id="edge72" class="edge">
<title>c24:e&#45;&gt;x8:w</title>
<path fill="none" stroke="black" stroke-width="3" d="M1730.67,-310.25C1742.05,-310.25 1747.36,-310 1755.23,-309.85"/>
<polygon fill="black" stroke="black" stroke-width="3" points="1752.16,-313.38 1762.13,-309.79 1752.1,-306.38 1752.16,-313.38"/>
</g>
<!-- x4 -->
<g id="node16" class="node">
<title>x4</title>
<path fill="none" stroke="black" d="M1527.92,-298C1527.92,-298 1566.42,-298 1566.42,-298 1572.42,-298 1578.42,-304 1578.42,-310 1578.42,-310 1578.42,-322 1578.42,-322 1578.42,-328 1572.42,-334 1566.42,-334 1566.42,-334 1527.92,-334 1527.92,-334 1521.92,-334 1515.92,-328 1515.92,-322 1515.92,-322 1515.92,-310 1515.92,-310 1515.92,-304 1521.92,-298 1527.92,-298"/>
<text text-anchor="middle" x="1547.17" y="-311.2" font-family="Times,serif" font-size="14.00">1:0 &#45; 1:0</text>
</g>
<!-- x4&#45;&gt;c24 -->
<g id="edge5" class="edge">
<title>x4:e&#45;&gt;c24:w</title>
<path fill="none" stroke="black" stroke-width="3" d="M1592.4,-316.58C1605.12,-317.77 1612.88,-320.51 1625.65,-321.69"/>
<polygon fill="none" stroke="black" stroke-width="3" points="1594.11,-316.65 1587.94,-320.38 1582.12,-316.12 1588.3,-312.39 1594.11,-316.65"/>
<polygon fill="none" stroke="black" stroke-width="3" points="1623.73,-321.61 1629.9,-317.87 1635.72,-322.13 1629.55,-325.87 1623.73,-321.61"/>
</g>
<!-- v5 -->
<g id="node17" class="node">
<title>v5</title>
<ellipse fill="none" stroke="black" cx="795.22" cy="-476" rx="159.85" ry="18"/>
<text text-anchor="middle" x="795.22" y="-470.95" font-family="Times,serif" font-size="14.00">30&#39;101111000000111001100001011001</text>
</g>
<!-- c25 -->
<g id="node18" class="node">
<title>c25</title>
<polygon fill="none" stroke="black" points="991.07,-323.5 991.07,-372.5 1087.07,-372.5 1087.07,-323.5 991.07,-323.5"/>
<text text-anchor="middle" x="1003.95" y="-355.2" font-family="Times,serif" font-size="14.00">A</text>
<polyline fill="none" stroke="black" points="991.07,-348 1016.82,-348"/>
<text text-anchor="middle" x="1003.95" y="-330.7" font-family="Times,serif" font-size="14.00">B</text>
<polyline fill="none" stroke="black" points="1016.82,-323.5 1016.82,-372.5"/>
<text text-anchor="middle" x="1039.07" y="-351.2" font-family="Times,serif" font-size="14.00">$11</text>
<text text-anchor="middle" x="1039.07" y="-334.7" font-family="Times,serif" font-size="14.00">$mul</text>
<polyline fill="none" stroke="black" points="1061.32,-323.5 1061.32,-372.5"/>
<text text-anchor="middle" x="1074.2" y="-343.2" font-family="Times,serif" font-size="14.00">Y</text>
</g>
<!-- v5&#45;&gt;c25 -->
<g id="edge84" class="edge">
<title>v5:e&#45;&gt;c25:w</title>
<path fill="none" stroke="black" stroke-width="3" d="M955.07,-476C1004.53,-476 948.12,-378.46 980.21,-362.46"/>
<polygon fill="black" stroke="black" stroke-width="3" points="977.52,-366.58 986.62,-361.15 976.13,-359.72 977.52,-366.58"/>
</g>
<!-- x7 -->
<g id="node20" class="node">
<title>x7</title>
<path fill="none" stroke="black" d="M1135.07,-301.5C1135.07,-301.5 1187.07,-301.5 1187.07,-301.5 1193.07,-301.5 1199.07,-307.5 1199.07,-313.5 1199.07,-313.5 1199.07,-338.5 1199.07,-338.5 1199.07,-344.5 1193.07,-350.5 1187.07,-350.5 1187.07,-350.5 1135.07,-350.5 1135.07,-350.5 1129.07,-350.5 1123.07,-344.5 1123.07,-338.5 1123.07,-338.5 1123.07,-313.5 1123.07,-313.5 1123.07,-307.5 1129.07,-301.5 1135.07,-301.5"/>
<text text-anchor="middle" x="1161.07" y="-333.2" font-family="Times,serif" font-size="14.00">29:2 &#45; 27:0</text>
<polyline fill="none" stroke="black" points="1123.07,-326 1199.07,-326"/>
<text text-anchor="middle" x="1161.07" y="-308.7" font-family="Times,serif" font-size="14.00">1:0 &#45; 1:0</text>
</g>
<!-- c25&#45;&gt;x7 -->
<g id="edge7" class="edge">
<title>c25:e&#45;&gt;x7:w</title>
<path fill="none" stroke="black" stroke-width="3" d="M1099,-343.96C1103.63,-340.02 1106.53,-334.21 1111.16,-330.28"/>
<polygon fill="none" stroke="black" stroke-width="3" points="1100.91,-343.27 1096.62,-349.07 1089.62,-347.34 1093.91,-341.54 1100.91,-343.27"/>
<polygon fill="none" stroke="black" stroke-width="3" points="1109.23,-330.97 1113.53,-325.18 1120.53,-326.91 1116.23,-332.71 1109.23,-330.97"/>
</g>
<!-- x6&#45;&gt;c25 -->
<g id="edge6" class="edge">
<title>x6:e&#45;&gt;c25:w</title>
<path fill="none" stroke="black" stroke-width="3" d="M853.99,-340.93C906.16,-340.35 925.99,-336.39 978.24,-335.82"/>
<polygon fill="none" stroke="black" stroke-width="3" points="855.67,-340.92 849.69,-344.95 843.67,-340.99 849.65,-336.95 855.67,-340.92"/>
<polygon fill="none" stroke="black" stroke-width="3" points="976.37,-335.83 982.35,-331.8 988.37,-335.76 982.39,-339.8 976.37,-335.83"/>
</g>
<!-- n10 -->
<g id="node46" class="node">
<title>n10</title>
<ellipse fill="black" stroke="black" cx="1454.12" cy="-316" rx="1.8" ry="1.8"/>
</g>
<!-- x7&#45;&gt;n10 -->
<g id="edge22" class="edge">
<title>x7:e&#45;&gt;n10:w</title>
<path fill="none" stroke="black" stroke-width="3" d="M1199.07,-313.75C1296.3,-313.75 1324.35,-256.44 1416.32,-288 1431,-293.04 1432.42,-306.77 1441.38,-312.94"/>
<polygon fill="black" stroke="black" stroke-width="3" points="1437.38,-315.45 1447.95,-314.78 1439.26,-308.71 1437.38,-315.45"/>
</g>
<!-- n4 -->
<g id="node48" class="node">
<title>n4</title>
<ellipse fill="black" stroke="black" cx="1269.7" cy="-338" rx="1.8" ry="1.8"/>
</g>
<!-- x7&#45;&gt;n4 -->
<g id="edge73" class="edge">
<title>x7:e&#45;&gt;n4:w</title>
<path fill="none" stroke="black" stroke-width="3" d="M1199.07,-338.25C1224.8,-338.25 1233.94,-338.07 1255,-338.01"/>
<polygon fill="black" stroke="black" stroke-width="3" points="1251.88,-341.52 1261.88,-338.01 1251.87,-334.52 1251.88,-341.52"/>
</g>
<!-- c26&#45;&gt;c21 -->
<g id="edge76" class="edge">
<title>c26:e&#45;&gt;c21:w</title>
<path fill="none" stroke="black" stroke-width="3" d="M1974.67,-269.25C1990.56,-269.25 1991.12,-251.9 2000.06,-244.04"/>
<polygon fill="black" stroke="black" stroke-width="3" points="1998.16,-248.44 2006.4,-241.78 1995.8,-241.85 1998.16,-248.44"/>
</g>
<!-- x8&#45;&gt;c26 -->
<g id="edge8" class="edge">
<title>x8:e&#45;&gt;c26:w</title>
<path fill="none" stroke="black" stroke-width="3" d="M1854.33,-316.67C1860.51,-308.91 1860.8,-294.55 1866.92,-286.71"/>
<polygon fill="none" stroke="black" stroke-width="3" points="1856.05,-315.89 1852.25,-322.02 1845.13,-320.88 1848.93,-314.74 1856.05,-315.89"/>
<polygon fill="none" stroke="black" stroke-width="3" points="1865.34,-287.44 1869.09,-281.29 1876.22,-282.39 1872.46,-288.54 1865.34,-287.44"/>
</g>
<!-- c27&#45;&gt;n17 -->
<g id="edge62" class="edge">
<title>c27:e&#45;&gt;n17:w</title>
<path fill="none" stroke="black" stroke-width="3" d="M3312.3,-227.25C3324.07,-227.25 3329.06,-231.25 3337.02,-233.51"/>
<polygon fill="black" stroke="black" stroke-width="3" points="3333.43,-236.56 3343.8,-234.4 3334.35,-229.62 3333.43,-236.56"/>
</g>
<!-- x9&#45;&gt;c27 -->
<g id="edge9" class="edge">
<title>x9:e&#45;&gt;c27:w</title>
<path fill="none" stroke="black" stroke-width="3" d="M1317.23,-43.07C1372.98,-43.66 1391.48,-48 1453.12,-48 1453.12,-48 1453.12,-48 3006.8,-48 3062.24,-48 3144.57,-192.73 3203.69,-212.52"/>
<polygon fill="none" stroke="black" stroke-width="3" points="1319.03,-43.08 1313.01,-47.05 1307.03,-43.01 1313.05,-39.05 1319.03,-43.08"/>
<polygon fill="none" stroke="black" stroke-width="3" points="3201.82,-212.19 3208.43,-209.3 3213.64,-214.28 3207.04,-217.17 3201.82,-212.19"/>
</g>
<!-- c28 -->
<g id="node25" class="node">
<title>c28</title>
<polygon fill="none" stroke="black" points="361.36,-118.5 361.36,-159.5 452.86,-159.5 452.86,-118.5 361.36,-118.5"/>
<text text-anchor="middle" x="374.24" y="-134.2" font-family="Times,serif" font-size="14.00">A</text>
<polyline fill="none" stroke="black" points="387.11,-118.5 387.11,-159.5"/>
<text text-anchor="middle" x="407.11" y="-142.2" font-family="Times,serif" font-size="14.00">$5</text>
<text text-anchor="middle" x="407.11" y="-125.7" font-family="Times,serif" font-size="14.00">$not</text>
<polyline fill="none" stroke="black" points="427.11,-118.5 427.11,-159.5"/>
<text text-anchor="middle" x="439.99" y="-134.2" font-family="Times,serif" font-size="14.00">Y</text>
</g>
<!-- x11 -->
<g id="node27" class="node">
<title>x11</title>
<path fill="none" stroke="black" d="M524.86,-120C524.86,-120 563.36,-120 563.36,-120 569.36,-120 575.36,-126 575.36,-132 575.36,-132 575.36,-144 575.36,-144 575.36,-150 569.36,-156 563.36,-156 563.36,-156 524.86,-156 524.86,-156 518.86,-156 512.86,-150 512.86,-144 512.86,-144 512.86,-132 512.86,-132 512.86,-126 518.86,-120 524.86,-120"/>
<text text-anchor="middle" x="544.11" y="-133.2" font-family="Times,serif" font-size="14.00">1:0 &#45; 1:0</text>
</g>
<!-- c28&#45;&gt;x11 -->
<g id="edge11" class="edge">
<title>c28:e&#45;&gt;x11:w</title>
<path fill="none" stroke="black" stroke-width="3" d="M465.8,-139.13C478.51,-138.9 486.37,-138.35 499.13,-138.11"/>
<polygon fill="none" stroke="black" stroke-width="3" points="467.57,-139.12 461.6,-143.17 455.57,-139.23 461.53,-135.17 467.57,-139.12"/>
<polygon fill="none" stroke="black" stroke-width="3" points="497.16,-138.13 503.12,-134.08 509.16,-138.02 503.19,-142.08 497.16,-138.13"/>
</g>
<!-- x10&#45;&gt;c28 -->
<g id="edge10" class="edge">
<title>x10:e&#45;&gt;c28:w</title>
<path fill="none" stroke="black" stroke-width="3" d="M279.59,-138.04C307.54,-138.23 320.54,-139.01 348.42,-139.21"/>
<polygon fill="none" stroke="black" stroke-width="3" points="281.56,-138.05 275.54,-142.03 269.56,-138.01 275.57,-134.03 281.56,-138.05"/>
<polygon fill="none" stroke="black" stroke-width="3" points="346.66,-139.2 352.67,-135.22 358.66,-139.24 352.64,-143.22 346.66,-139.2"/>
</g>
<!-- x14 -->
<g id="node32" class="node">
<title>x14</title>
<path fill="none" stroke="black" d="M775.97,-119C775.97,-119 814.47,-119 814.47,-119 820.47,-119 826.47,-125 826.47,-131 826.47,-131 826.47,-143 826.47,-143 826.47,-149 820.47,-155 814.47,-155 814.47,-155 775.97,-155 775.97,-155 769.97,-155 763.97,-149 763.97,-143 763.97,-143 763.97,-131 763.97,-131 763.97,-125 769.97,-119 775.97,-119"/>
<text text-anchor="middle" x="795.22" y="-132.2" font-family="Times,serif" font-size="14.00">1:0 &#45; 1:0</text>
</g>
<!-- x11&#45;&gt;x14 -->
<g id="edge77" class="edge">
<title>x11:e&#45;&gt;x14:w</title>
<path fill="none" stroke="black" stroke-width="3" d="M576.36,-138.25C655.41,-138.25 677.95,-137.34 751.7,-137.26"/>
<polygon fill="black" stroke="black" stroke-width="3" points="748.43,-140.76 758.43,-137.25 748.43,-133.76 748.43,-140.76"/>
</g>
<!-- x12 -->
<g id="node29" class="node">
<title>x12</title>
<path fill="none" stroke="black" d="M3635.06,-219C3635.06,-219 3673.56,-219 3673.56,-219 3679.56,-219 3685.56,-225 3685.56,-231 3685.56,-231 3685.56,-243 3685.56,-243 3685.56,-249 3679.56,-255 3673.56,-255 3673.56,-255 3635.06,-255 3635.06,-255 3629.06,-255 3623.06,-249 3623.06,-243 3623.06,-243 3623.06,-231 3623.06,-231 3623.06,-225 3629.06,-219 3635.06,-219"/>
<text text-anchor="middle" x="3654.31" y="-232.2" font-family="Times,serif" font-size="14.00">1:0 &#45; 1:0</text>
</g>
<!-- c29&#45;&gt;x12 -->
<g id="edge12" class="edge">
<title>c29:e&#45;&gt;x12:w</title>
<path fill="none" stroke="black" stroke-width="3" d="M3599.78,-235.69C3603.38,-235.95 3606.5,-236.28 3610.08,-236.54"/>
<polygon fill="none" stroke="black" stroke-width="3" points="3601.75,-235.76 3595.62,-239.55 3589.76,-235.34 3595.89,-231.55 3601.75,-235.76"/>
<polygon fill="none" stroke="black" stroke-width="3" points="3608.36,-236.48 3614.5,-232.69 3620.35,-236.9 3614.21,-240.69 3608.36,-236.48"/>
</g>
<!-- x16 -->
<g id="node35" class="node">
<title>x16</title>
<path fill="none" stroke="black" d="M3733.56,-223C3733.56,-223 3772.06,-223 3772.06,-223 3778.06,-223 3784.06,-229 3784.06,-235 3784.06,-235 3784.06,-247 3784.06,-247 3784.06,-253 3778.06,-259 3772.06,-259 3772.06,-259 3733.56,-259 3733.56,-259 3727.56,-259 3721.56,-253 3721.56,-247 3721.56,-247 3721.56,-235 3721.56,-235 3721.56,-229 3727.56,-223 3733.56,-223"/>
<text text-anchor="middle" x="3752.81" y="-236.2" font-family="Times,serif" font-size="14.00">1:0 &#45; 1:0</text>
</g>
<!-- x12&#45;&gt;x16 -->
<g id="edge78" class="edge">
<title>x12:e&#45;&gt;x16:w</title>
<path fill="none" stroke="black" stroke-width="3" d="M3685.56,-237.25C3697,-237.25 3702.23,-239.27 3710.08,-240.44"/>
<polygon fill="black" stroke="black" stroke-width="3" points="3706.8,-243.72 3717.03,-240.93 3707.3,-236.74 3706.8,-243.72"/>
</g>
<!-- c30 -->
<g id="node30" class="node">
<title>c30</title>
<polygon fill="none" stroke="black" points="992.57,-162.5 992.57,-211.5 1085.57,-211.5 1085.57,-162.5 992.57,-162.5"/>
<text text-anchor="middle" x="1005.45" y="-194.2" font-family="Times,serif" font-size="14.00">A</text>
<polyline fill="none" stroke="black" points="992.57,-187 1018.32,-187"/>
<text text-anchor="middle" x="1005.45" y="-169.7" font-family="Times,serif" font-size="14.00">B</text>
<polyline fill="none" stroke="black" points="1018.32,-162.5 1018.32,-211.5"/>
<text text-anchor="middle" x="1039.07" y="-190.2" font-family="Times,serif" font-size="14.00">$6</text>
<text text-anchor="middle" x="1039.07" y="-173.7" font-family="Times,serif" font-size="14.00">$sub</text>
<polyline fill="none" stroke="black" points="1059.82,-162.5 1059.82,-211.5"/>
<text text-anchor="middle" x="1072.7" y="-182.2" font-family="Times,serif" font-size="14.00">Y</text>
</g>
<!-- c30&#45;&gt;n14 -->
<g id="edge50" class="edge">
<title>c30:e&#45;&gt;n14:w</title>
<path fill="none" stroke="black" stroke-width="3" d="M1086.57,-187.25C1167.99,-187.25 1187.28,-207 1268.7,-207 1268.7,-207 1268.7,-207 1379.32,-207 1427.07,-207 1438.46,-232.5 1480.53,-236.48"/>
<polygon fill="black" stroke="black" stroke-width="3" points="1477.24,-239.83 1487.39,-236.79 1477.56,-232.84 1477.24,-239.83"/>
</g>
<!-- x13&#45;&gt;c30 -->
<g id="edge13" class="edge">
<title>x13:e&#45;&gt;c30:w</title>
<path fill="none" stroke="black" stroke-width="3" d="M840.14,-199C898.65,-199.03 920.18,-199.22 978.53,-199.25"/>
<polygon fill="none" stroke="black" stroke-width="3" points="842.17,-199 836.17,-203 830.17,-199 836.17,-195 842.17,-199"/>
<polygon fill="none" stroke="black" stroke-width="3" points="976.87,-199.25 982.87,-195.25 988.87,-199.25 982.87,-203.25 976.87,-199.25"/>
</g>
<!-- x14&#45;&gt;c30 -->
<g id="edge14" class="edge">
<title>x14:e&#45;&gt;c30:w</title>
<path fill="none" stroke="black" stroke-width="3" d="M840.3,-137.25C887.85,-139.23 903.06,-152.35 955.07,-165 966.16,-167.7 971.28,-171.23 978.7,-173.22"/>
<polygon fill="none" stroke="black" stroke-width="3" points="842.17,-137.29 836.09,-141.17 830.17,-137.05 836.25,-133.17 842.17,-137.29"/>
<polygon fill="none" stroke="black" stroke-width="3" points="976.97,-173.01 983.4,-169.75 988.89,-174.43 982.46,-177.69 976.97,-173.01"/>
</g>
<!-- c31 -->
<g id="node33" class="node">
<title>c31</title>
<polygon fill="none" stroke="black" points="3820.06,-244.5 3820.06,-293.5 3913.06,-293.5 3913.06,-244.5 3820.06,-244.5"/>
<text text-anchor="middle" x="3832.93" y="-276.2" font-family="Times,serif" font-size="14.00">A</text>
<polyline fill="none" stroke="black" points="3820.06,-269 3845.81,-269"/>
<text text-anchor="middle" x="3832.93" y="-251.7" font-family="Times,serif" font-size="14.00">B</text>
<polyline fill="none" stroke="black" points="3845.81,-244.5 3845.81,-293.5"/>
<text text-anchor="middle" x="3866.56" y="-272.2" font-family="Times,serif" font-size="14.00">$46</text>
<text text-anchor="middle" x="3866.56" y="-255.7" font-family="Times,serif" font-size="14.00">$sub</text>
<polyline fill="none" stroke="black" points="3887.31,-244.5 3887.31,-293.5"/>
<text text-anchor="middle" x="3900.18" y="-264.2" font-family="Times,serif" font-size="14.00">Y</text>
</g>
<!-- c31&#45;&gt;n12 -->
<g id="edge28" class="edge">
<title>c31:e&#45;&gt;n12:w</title>
<path fill="none" stroke="black" stroke-width="3" d="M3913.06,-269.25C3924.43,-269.25 3929.74,-269.12 3937.61,-269.05"/>
<polygon fill="black" stroke="black" stroke-width="3" points="3934.53,-272.56 3944.51,-269.02 3934.5,-265.56 3934.53,-272.56"/>
</g>
<!-- x15 -->
<g id="node34" class="node">
<title>x15</title>
<path fill="none" stroke="black" d="M3733.56,-279C3733.56,-279 3772.06,-279 3772.06,-279 3778.06,-279 3784.06,-285 3784.06,-291 3784.06,-291 3784.06,-303 3784.06,-303 3784.06,-309 3778.06,-315 3772.06,-315 3772.06,-315 3733.56,-315 3733.56,-315 3727.56,-315 3721.56,-309 3721.56,-303 3721.56,-303 3721.56,-291 3721.56,-291 3721.56,-285 3727.56,-279 3733.56,-279"/>
<text text-anchor="middle" x="3752.81" y="-292.2" font-family="Times,serif" font-size="14.00">1:0 &#45; 1:0</text>
</g>
<!-- x15&#45;&gt;c31 -->
<g id="edge15" class="edge">
<title>x15:e&#45;&gt;c31:w</title>
<path fill="none" stroke="black" stroke-width="3" d="M3796.38,-293.5C3800.49,-290.89 3803.63,-287.34 3807.75,-284.74"/>
<polygon fill="none" stroke="black" stroke-width="3" points="3798.2,-292.99 3793.52,-298.47 3786.66,-296.26 3791.34,-290.78 3798.2,-292.99"/>
<polygon fill="none" stroke="black" stroke-width="3" points="3805.91,-285.26 3810.59,-279.77 3817.45,-281.99 3812.77,-287.47 3805.91,-285.26"/>
</g>
<!-- x16&#45;&gt;c31 -->
<g id="edge16" class="edge">
<title>x16:e&#45;&gt;c31:w</title>
<path fill="none" stroke="black" stroke-width="3" d="M3796.38,-244.5C3800.49,-247.11 3803.63,-250.66 3807.75,-253.26"/>
<polygon fill="none" stroke="black" stroke-width="3" points="3798.2,-245.01 3791.34,-247.22 3786.66,-241.74 3793.52,-239.53 3798.2,-245.01"/>
<polygon fill="none" stroke="black" stroke-width="3" points="3805.91,-252.74 3812.77,-250.53 3817.45,-256.01 3810.59,-258.23 3805.91,-252.74"/>
</g>
<!-- x17 -->
<g id="node37" class="node">
<title>x17</title>
<path fill="none" stroke="black" d="M3635.06,-280C3635.06,-280 3673.56,-280 3673.56,-280 3679.56,-280 3685.56,-286 3685.56,-292 3685.56,-292 3685.56,-304 3685.56,-304 3685.56,-310 3679.56,-316 3673.56,-316 3673.56,-316 3635.06,-316 3635.06,-316 3629.06,-316 3623.06,-310 3623.06,-304 3623.06,-304 3623.06,-292 3623.06,-292 3623.06,-286 3629.06,-280 3635.06,-280"/>
<text text-anchor="middle" x="3654.31" y="-293.2" font-family="Times,serif" font-size="14.00">1:0 &#45; 1:0</text>
</g>
<!-- c32&#45;&gt;x17 -->
<g id="edge17" class="edge">
<title>c32:e&#45;&gt;x17:w</title>
<path fill="none" stroke="black" stroke-width="3" d="M3599.78,-298.93C3603.38,-298.75 3606.51,-298.52 3610.08,-298.33"/>
<polygon fill="none" stroke="black" stroke-width="3" points="3601.75,-298.89 3595.86,-303.03 3589.76,-299.18 3595.66,-295.04 3601.75,-298.89"/>
<polygon fill="none" stroke="black" stroke-width="3" points="3608.36,-298.37 3614.25,-294.22 3620.35,-298.07 3614.46,-302.22 3608.36,-298.37"/>
</g>
<!-- x17&#45;&gt;x15 -->
<g id="edge82" class="edge">
<title>x17:e&#45;&gt;x15:w</title>
<path fill="none" stroke="black" stroke-width="3" d="M3685.56,-298.25C3696.93,-298.25 3702.24,-297.74 3710.11,-297.45"/>
<polygon fill="black" stroke="black" stroke-width="3" points="3707.08,-301.01 3717.02,-297.33 3706.96,-294.01 3707.08,-301.01"/>
</g>
<!-- x19 -->
<g id="node39" class="node">
<title>x19</title>
<path fill="none" stroke="black" d="M2821.45,-148C2821.45,-148 2873.45,-148 2873.45,-148 2879.45,-148 2885.45,-154 2885.45,-160 2885.45,-160 2885.45,-172 2885.45,-172 2885.45,-178 2879.45,-184 2873.45,-184 2873.45,-184 2821.45,-184 2821.45,-184 2815.45,-184 2809.45,-178 2809.45,-172 2809.45,-172 2809.45,-160 2809.45,-160 2809.45,-154 2815.45,-148 2821.45,-148"/>
<text text-anchor="middle" x="2847.45" y="-161.2" font-family="Times,serif" font-size="14.00">15:0 &#45; 15:0</text>
</g>
<!-- x18&#45;&gt;x19 -->
<g id="edge18" class="edge">
<title>x18:e&#45;&gt;x19:w</title>
<path fill="none" stroke="black" stroke-width="3" d="M2786.19,-163.76C2789.78,-164.2 2792.9,-164.76 2796.47,-165.21"/>
<polygon fill="none" stroke="black" stroke-width="3" points="2788.13,-163.87 2781.91,-167.51 2776.15,-163.16 2782.38,-159.52 2788.13,-163.87"/>
<polygon fill="none" stroke="black" stroke-width="3" points="2794.78,-165.11 2801.01,-161.48 2806.76,-165.84 2800.52,-169.47 2794.78,-165.11"/>
</g>
<!-- x19&#45;&gt;n8 -->
<g id="edge80" class="edge">
<title>x19:e&#45;&gt;n8:w</title>
<path fill="none" stroke="black" stroke-width="3" d="M2885.45,-166.25C2919.63,-166.25 2891.5,-227.85 2910.59,-242.77"/>
<polygon fill="black" stroke="black" stroke-width="3" points="2906.52,-245.22 2917.1,-244.71 2908.51,-238.51 2906.52,-245.22"/>
</g>
<!-- x20 -->
<g id="node40" class="node">
<title>x20</title>
<path fill="none" stroke="black" d="M1352.32,-298C1352.32,-298 1404.32,-298 1404.32,-298 1410.32,-298 1416.32,-304 1416.32,-310 1416.32,-310 1416.32,-322 1416.32,-322 1416.32,-328 1410.32,-334 1404.32,-334 1404.32,-334 1352.32,-334 1352.32,-334 1346.32,-334 1340.32,-328 1340.32,-322 1340.32,-322 1340.32,-310 1340.32,-310 1340.32,-304 1346.32,-298 1352.32,-298"/>
<text text-anchor="middle" x="1378.32" y="-311.2" font-family="Times,serif" font-size="14.00">27:0 &#45; 29:2</text>
</g>
<!-- x20&#45;&gt;n10 -->
<g id="edge21" class="edge">
<title>x20:e&#45;&gt;n10:w</title>
<path fill="none" stroke="black" stroke-width="3" d="M1416.32,-316.25C1427.7,-316.25 1433.01,-316.12 1440.88,-316.05"/>
<polygon fill="black" stroke="black" stroke-width="3" points="1437.8,-319.56 1447.78,-316.02 1437.77,-312.56 1437.8,-319.56"/>
</g>
<!-- v21 -->
<g id="node41" class="node">
<title>v21</title>
<ellipse fill="none" stroke="black" cx="234.6" cy="-599" rx="90.76" ry="18"/>
<text text-anchor="middle" x="234.6" y="-593.95" font-family="Times,serif" font-size="14.00">15&#39;111111111111111</text>
</g>
<!-- x22 -->
<g id="node42" class="node">
<title>x22</title>
<path fill="none" stroke="black" d="M377.74,-550C377.74,-550 436.49,-550 436.49,-550 442.49,-550 448.49,-556 448.49,-562 448.49,-562 448.49,-636 448.49,-636 448.49,-642 442.49,-648 436.49,-648 436.49,-648 377.74,-648 377.74,-648 371.74,-648 365.74,-642 365.74,-636 365.74,-636 365.74,-562 365.74,-562 365.74,-556 371.74,-550 377.74,-550"/>
<text text-anchor="middle" x="407.11" y="-630.7" font-family="Times,serif" font-size="14.00">14:4 &#45; 22:12</text>
<polyline fill="none" stroke="black" points="365.74,-623.5 448.49,-623.5"/>
<text text-anchor="middle" x="407.11" y="-606.2" font-family="Times,serif" font-size="14.00">3:2 &#45; 10:9</text>
<polyline fill="none" stroke="black" points="365.74,-599 448.49,-599"/>
<text text-anchor="middle" x="407.11" y="-581.7" font-family="Times,serif" font-size="14.00">1:1 &#45; 6:6</text>
<polyline fill="none" stroke="black" points="365.74,-574.5 448.49,-574.5"/>
<text text-anchor="middle" x="407.11" y="-557.2" font-family="Times,serif" font-size="14.00">0:0 &#45; 1:1</text>
</g>
<!-- v21&#45;&gt;x22 -->
<g id="edge83" class="edge">
<title>v21:e&#45;&gt;x22:w</title>
<path fill="none" stroke="black" stroke-width="3" d="M325.36,-599C338.35,-599 344.11,-599 353.37,-599"/>
<polygon fill="black" stroke="black" stroke-width="3" points="350.2,-602.5 360.2,-599 350.2,-595.5 350.2,-602.5"/>
</g>
<!-- x22&#45;&gt;n13 -->
<g id="edge29" class="edge">
<title>x22:e&#45;&gt;n13:w</title>
<path fill="none" stroke="black" d="M449.49,-562.25C476.89,-562.25 462.84,-606.3 477.94,-619.38"/>
<polygon fill="black" stroke="black" points="476.83,-622.7 487.43,-622.52 479.03,-616.06 476.83,-622.7"/>
</g>
<!-- x22&#45;&gt;n13 -->
<g id="edge30" class="edge">
<title>x22:e&#45;&gt;n13:w</title>
<path fill="none" stroke="black" d="M449.49,-586.75C468.63,-586.75 467.06,-610.22 478.11,-619.39"/>
<polygon fill="black" stroke="black" points="476.83,-622.66 487.43,-622.52 479.06,-616.02 476.83,-622.66"/>
</g>
<!-- x22&#45;&gt;n13 -->
<g id="edge31" class="edge">
<title>x22:e&#45;&gt;n13:w</title>
<path fill="none" stroke="black" stroke-width="3" d="M449.49,-611.25C463.18,-611.25 468.21,-617.86 477.57,-621.16"/>
<polygon fill="black" stroke="black" stroke-width="3" points="473.95,-624.12 484.38,-622.27 475.07,-617.21 473.95,-624.12"/>
</g>
<!-- x22&#45;&gt;n13 -->
<g id="edge32" class="edge">
<title>x22:e&#45;&gt;n13:w</title>
<path fill="none" stroke="black" stroke-width="3" d="M449.49,-635.75C463.28,-635.75 468.19,-628.58 477.54,-624.99"/>
<polygon fill="black" stroke="black" stroke-width="3" points="475.15,-628.97 484.39,-623.79 473.94,-622.07 475.15,-628.97"/>
</g>
<!-- x23&#45;&gt;n16 -->
<g id="edge59" class="edge">
<title>x23:e&#45;&gt;n16:w</title>
<path fill="none" stroke="black" stroke-width="3" d="M2501.45,-177.25C2513.22,-177.25 2518.21,-181.25 2526.17,-183.51"/>
<polygon fill="black" stroke="black" stroke-width="3" points="2522.58,-186.56 2532.95,-184.4 2523.5,-179.62 2522.58,-186.56"/>
</g>
<!-- x25 -->
<g id="node45" class="node">
<title>x25</title>
<path fill="none" stroke="black" d="M1013.07,-728C1013.07,-728 1065.07,-728 1065.07,-728 1071.07,-728 1077.07,-734 1077.07,-740 1077.07,-740 1077.07,-814 1077.07,-814 1077.07,-820 1071.07,-826 1065.07,-826 1065.07,-826 1013.07,-826 1013.07,-826 1007.07,-826 1001.07,-820 1001.07,-814 1001.07,-814 1001.07,-740 1001.07,-740 1001.07,-734 1007.07,-728 1013.07,-728"/>
<text text-anchor="middle" x="1039.07" y="-808.7" font-family="Times,serif" font-size="14.00">7:7 &#45; 11:11</text>
<polyline fill="none" stroke="black" points="1001.07,-801.5 1077.07,-801.5"/>
<text text-anchor="middle" x="1039.07" y="-784.2" font-family="Times,serif" font-size="14.00">6:5 &#45; 8:7</text>
<polyline fill="none" stroke="black" points="1001.07,-777 1077.07,-777"/>
<text text-anchor="middle" x="1039.07" y="-759.7" font-family="Times,serif" font-size="14.00">4:1 &#45; 5:2</text>
<polyline fill="none" stroke="black" points="1001.07,-752.5 1077.07,-752.5"/>
<text text-anchor="middle" x="1039.07" y="-735.2" font-family="Times,serif" font-size="14.00">0:0 &#45; 0:0</text>
</g>
<!-- x24&#45;&gt;x25 -->
<g id="edge19" class="edge">
<title>x24:e&#45;&gt;x25:w</title>
<path fill="none" stroke="black" stroke-width="3" d="M847.02,-777C906.28,-777 928.01,-777 987.27,-777"/>
<polygon fill="none" stroke="black" stroke-width="3" points="848.92,-777 842.92,-781 836.92,-777 842.92,-773 848.92,-777"/>
<polygon fill="none" stroke="black" stroke-width="3" points="985.37,-777 991.37,-773 997.37,-777 991.37,-781 985.37,-777"/>
</g>
<!-- x25&#45;&gt;n2 -->
<g id="edge65" class="edge">
<title>x25:e&#45;&gt;n2:w</title>
<path fill="none" stroke="black" d="M1078.07,-740.25C1111.69,-740.25 1092.18,-796.45 1112.92,-810.06"/>
<polygon fill="black" stroke="black" points="1112.01,-813.44 1122.57,-812.61 1113.8,-806.67 1112.01,-813.44"/>
</g>
<!-- x25&#45;&gt;n2 -->
<g id="edge66" class="edge">
<title>x25:e&#45;&gt;n2:w</title>
<path fill="none" stroke="black" stroke-width="3" d="M1078.07,-764.75C1103.06,-764.75 1097.52,-799.1 1112.97,-809.83"/>
<polygon fill="black" stroke="black" stroke-width="3" points="1109.09,-812.37 1119.67,-811.75 1111.02,-805.64 1109.09,-812.37"/>
</g>
<!-- x25&#45;&gt;n2 -->
<g id="edge67" class="edge">
<title>x25:e&#45;&gt;n2:w</title>
<path fill="none" stroke="black" stroke-width="3" d="M1078.07,-789.25C1096.58,-789.25 1100.17,-804.63 1112.85,-810.64"/>
<polygon fill="black" stroke="black" stroke-width="3" points="1109.09,-813.42 1119.59,-812.06 1110.53,-806.57 1109.09,-813.42"/>
</g>
<!-- x25&#45;&gt;n2 -->
<g id="edge68" class="edge">
<title>x25:e&#45;&gt;n2:w</title>
<path fill="none" stroke="black" d="M1078.07,-813.75C1094.19,-813.75 1100.77,-813.28 1112.87,-813.09"/>
<polygon fill="black" stroke="black" points="1112.55,-816.59 1122.52,-813.01 1112.5,-809.59 1112.55,-816.59"/>
</g>
<!-- n10&#45;&gt;x4 -->
<g id="edge23" class="edge">
<title>n10:e&#45;&gt;x4:w</title>
<path fill="none" stroke="black" stroke-width="3" d="M1455.92,-316C1477.84,-316 1486.02,-316.17 1503.43,-316.23"/>
<polygon fill="black" stroke="black" stroke-width="3" points="1500.38,-319.73 1510.38,-316.24 1500.39,-312.73 1500.38,-319.73"/>
</g>
<!-- n4&#45;&gt;x8 -->
<g id="edge75" class="edge">
<title>n4:e&#45;&gt;x8:w</title>
<path fill="none" stroke="black" stroke-width="3" d="M1272.98,-338C1353.81,-338 1372.29,-363 1453.12,-363 1453.12,-363 1453.12,-363 1548.17,-363 1629.72,-363 1650.5,-358.93 1730.67,-344 1742.39,-341.82 1747.3,-337.74 1755.29,-335.61"/>
<polygon fill="black" stroke="black" stroke-width="3" points="1752.65,-339.45 1762.17,-334.79 1751.82,-332.5 1752.65,-339.45"/>
</g>
<!-- n4&#45;&gt;x20 -->
<g id="edge74" class="edge">
<title>n4:e&#45;&gt;x20:w</title>
<path fill="none" stroke="black" stroke-width="3" d="M1272.98,-338C1300.28,-338 1307.2,-321.46 1329.08,-317.06"/>
<polygon fill="black" stroke="black" stroke-width="3" points="1326.18,-320.85 1335.8,-316.43 1325.52,-313.88 1326.18,-320.85"/>
</g>
<!-- n8&#45;&gt;x2 -->
<g id="edge81" class="edge">
<title>n8:e&#45;&gt;x2:w</title>
<path fill="none" stroke="black" stroke-width="3" d="M2925.05,-246C2936.46,-246 2941.74,-244.74 2949.6,-244.01"/>
<polygon fill="black" stroke="black" stroke-width="3" points="2946.68,-247.64 2956.52,-243.7 2946.37,-240.65 2946.68,-247.64"/>
</g>
</g>
</svg>
