<?xml version="1.0" encoding="UTF-8" standalone="no"?>
<!DOCTYPE svg PUBLIC "-//W3C//DTD SVG 1.1//EN"
 "http://www.w3.org/Graphics/SVG/1.1/DTD/svg11.dtd">
<!-- Generated by graphviz version 12.2.1 (20241206.2353)
 -->
<!-- Title: top Pages: 1 -->
<svg width="5092pt" height="609pt"
 viewBox="0.00 0.00 5092.40 608.84" xmlns="http://www.w3.org/2000/svg" xmlns:xlink="http://www.w3.org/1999/xlink">
<g id="graph0" class="graph" transform="scale(1 1) rotate(0) translate(4 604.84)">
<title>top</title>
<polygon fill="white" stroke="none" points="-4,4 -4,-604.84 5088.4,-604.84 5088.4,4 -4,4"/>
<text text-anchor="middle" x="2542.2" y="-7.2" font-family="Times,serif" font-size="14.00">top</text>
<!-- n16 -->
<g id="node1" class="node">
<title>n16</title>
<polygon fill="none" stroke="black" points="107.84,-327.04 107.84,-341.96 76.26,-352.5 31.59,-352.5 0,-341.96 0,-327.04 31.59,-316.5 76.26,-316.5 107.84,-327.04"/>
<text text-anchor="middle" x="53.92" y="-329.45" font-family="Times,serif" font-size="14.00">input_data</text>
</g>
<!-- c25 -->
<g id="node7" class="node">
<title>c25</title>
<polygon fill="none" stroke="black" points="143.84,-257 143.84,-306 237.59,-306 237.59,-257 143.84,-257"/>
<text text-anchor="middle" x="156.72" y="-288.7" font-family="Times,serif" font-size="14.00">A</text>
<polyline fill="none" stroke="black" points="143.84,-281.5 169.59,-281.5"/>
<text text-anchor="middle" x="156.72" y="-264.2" font-family="Times,serif" font-size="14.00">B</text>
<polyline fill="none" stroke="black" points="169.59,-257 169.59,-306"/>
<text text-anchor="middle" x="190.72" y="-284.7" font-family="Times,serif" font-size="14.00">$1</text>
<text text-anchor="middle" x="190.72" y="-268.2" font-family="Times,serif" font-size="14.00">$add</text>
<polyline fill="none" stroke="black" points="211.84,-257 211.84,-306"/>
<text text-anchor="middle" x="224.72" y="-276.7" font-family="Times,serif" font-size="14.00">Y</text>
</g>
<!-- n16&#45;&gt;c25 -->
<g id="edge41" class="edge">
<title>n16:e&#45;&gt;c25:w</title>
<path fill="none" stroke="black" stroke-width="3" d="M107.84,-334.5C127.29,-334.5 123.1,-308.11 133.31,-297.81"/>
<polygon fill="black" stroke="black" stroke-width="3" points="131.53,-302.24 139.6,-295.38 129.01,-295.71 131.53,-302.24"/>
</g>
<!-- n16&#45;&gt;c25 -->
<g id="edge42" class="edge">
<title>n16:e&#45;&gt;c25:w</title>
<path fill="none" stroke="black" stroke-width="3" d="M107.84,-334.5C136.3,-334.5 117.97,-286.31 133.27,-272.76"/>
<polygon fill="black" stroke="black" stroke-width="3" points="131.14,-277.15 139.53,-270.68 128.94,-270.51 131.14,-277.15"/>
</g>
<!-- c26 -->
<g id="node8" class="node">
<title>c26</title>
<polygon fill="none" stroke="black" points="1081.09,-141 1081.09,-190 1174.84,-190 1174.84,-141 1081.09,-141"/>
<text text-anchor="middle" x="1093.97" y="-172.7" font-family="Times,serif" font-size="14.00">A</text>
<polyline fill="none" stroke="black" points="1081.09,-165.5 1106.84,-165.5"/>
<text text-anchor="middle" x="1093.97" y="-148.2" font-family="Times,serif" font-size="14.00">B</text>
<polyline fill="none" stroke="black" points="1106.84,-141 1106.84,-190"/>
<text text-anchor="middle" x="1127.97" y="-168.7" font-family="Times,serif" font-size="14.00">$4</text>
<text text-anchor="middle" x="1127.97" y="-152.2" font-family="Times,serif" font-size="14.00">$add</text>
<polyline fill="none" stroke="black" points="1149.09,-141 1149.09,-190"/>
<text text-anchor="middle" x="1161.97" y="-160.7" font-family="Times,serif" font-size="14.00">Y</text>
</g>
<!-- n16&#45;&gt;c26 -->
<g id="edge43" class="edge">
<title>n16:e&#45;&gt;c26:w</title>
<path fill="none" stroke="black" stroke-width="3" d="M107.84,-334.5C184.2,-334.5 90.45,-221.09 143.84,-166.5 200.3,-108.78 239.85,-124.5 320.59,-124.5 320.59,-124.5 320.59,-124.5 896.09,-124.5 934.28,-124.5 1023.19,-148.73 1069.7,-152.7"/>
<polygon fill="black" stroke="black" stroke-width="3" points="1066.4,-156.05 1076.56,-153.03 1066.74,-149.05 1066.4,-156.05"/>
</g>
<!-- x2 -->
<g id="node12" class="node">
<title>x2</title>
<path fill="none" stroke="black" d="M634.84,-406.5C634.84,-406.5 673.34,-406.5 673.34,-406.5 679.34,-406.5 685.34,-412.5 685.34,-418.5 685.34,-418.5 685.34,-430.5 685.34,-430.5 685.34,-436.5 679.34,-442.5 673.34,-442.5 673.34,-442.5 634.84,-442.5 634.84,-442.5 628.84,-442.5 622.84,-436.5 622.84,-430.5 622.84,-430.5 622.84,-418.5 622.84,-418.5 622.84,-412.5 628.84,-406.5 634.84,-406.5"/>
<text text-anchor="middle" x="654.09" y="-419.7" font-family="Times,serif" font-size="14.00">3:1 &#45; 2:0</text>
</g>
<!-- n16&#45;&gt;x2 -->
<g id="edge50" class="edge">
<title>n16:e&#45;&gt;x2:w</title>
<path fill="none" stroke="black" stroke-width="3" d="M107.84,-334.5C135.95,-334.5 119.88,-371.81 143.84,-386.5 211.42,-427.94 241.31,-410.5 320.59,-410.5 320.59,-410.5 320.59,-410.5 444.59,-410.5 519.76,-410.5 540.79,-423.39 610.68,-424.65"/>
<polygon fill="black" stroke="black" stroke-width="3" points="607.27,-428.12 617.3,-424.71 607.33,-421.12 607.27,-428.12"/>
</g>
<!-- x5 -->
<g id="node19" class="node">
<title>x5</title>
<path fill="none" stroke="black" d="M748.59,-363.5C748.59,-363.5 800.59,-363.5 800.59,-363.5 806.59,-363.5 812.59,-369.5 812.59,-375.5 812.59,-375.5 812.59,-387.5 812.59,-387.5 812.59,-393.5 806.59,-399.5 800.59,-399.5 800.59,-399.5 748.59,-399.5 748.59,-399.5 742.59,-399.5 736.59,-393.5 736.59,-387.5 736.59,-387.5 736.59,-375.5 736.59,-375.5 736.59,-369.5 742.59,-363.5 748.59,-363.5"/>
<text text-anchor="middle" x="774.59" y="-376.7" font-family="Times,serif" font-size="14.00">12:10 &#45; 2:0</text>
</g>
<!-- n16&#45;&gt;x5 -->
<g id="edge51" class="edge">
<title>n16:e&#45;&gt;x5:w</title>
<path fill="none" stroke="black" stroke-width="3" d="M107.84,-334.5C124.85,-334.5 127.33,-343.4 143.84,-347.5 220.84,-366.63 241.25,-372.5 320.59,-372.5 320.59,-372.5 320.59,-372.5 549.84,-372.5 628.62,-372.5 650.88,-380.9 724.36,-381.69"/>
<polygon fill="black" stroke="black" stroke-width="3" points="721.03,-385.17 731.05,-381.73 721.07,-378.17 721.03,-385.17"/>
</g>
<!-- x6 -->
<g id="node23" class="node">
<title>x6</title>
<path fill="none" stroke="black" d="M171.47,-494.5C171.47,-494.5 209.97,-494.5 209.97,-494.5 215.97,-494.5 221.97,-500.5 221.97,-506.5 221.97,-506.5 221.97,-518.5 221.97,-518.5 221.97,-524.5 215.97,-530.5 209.97,-530.5 209.97,-530.5 171.47,-530.5 171.47,-530.5 165.47,-530.5 159.47,-524.5 159.47,-518.5 159.47,-518.5 159.47,-506.5 159.47,-506.5 159.47,-500.5 165.47,-494.5 171.47,-494.5"/>
<text text-anchor="middle" x="190.72" y="-507.7" font-family="Times,serif" font-size="14.00">2:0 &#45; 2:0</text>
</g>
<!-- n16&#45;&gt;x6 -->
<g id="edge52" class="edge">
<title>n16:e&#45;&gt;x6:w</title>
<path fill="none" stroke="black" stroke-width="3" d="M107.84,-334.5C186.01,-334.5 87.19,-495.11 147.39,-511.42"/>
<polygon fill="black" stroke="black" stroke-width="3" points="143.61,-514.49 153.96,-512.21 144.45,-507.54 143.61,-514.49"/>
</g>
<!-- x7 -->
<g id="node24" class="node">
<title>x7</title>
<path fill="none" stroke="black" d="M171.47,-439.5C171.47,-439.5 209.97,-439.5 209.97,-439.5 215.97,-439.5 221.97,-445.5 221.97,-451.5 221.97,-451.5 221.97,-463.5 221.97,-463.5 221.97,-469.5 215.97,-475.5 209.97,-475.5 209.97,-475.5 171.47,-475.5 171.47,-475.5 165.47,-475.5 159.47,-469.5 159.47,-463.5 159.47,-463.5 159.47,-451.5 159.47,-451.5 159.47,-445.5 165.47,-439.5 171.47,-439.5"/>
<text text-anchor="middle" x="190.72" y="-452.7" font-family="Times,serif" font-size="14.00">6:4 &#45; 2:0</text>
</g>
<!-- n16&#45;&gt;x7 -->
<g id="edge53" class="edge">
<title>n16:e&#45;&gt;x7:w</title>
<path fill="none" stroke="black" stroke-width="3" d="M107.84,-334.5C162.66,-334.5 108.61,-440.13 147.28,-455.81"/>
<polygon fill="black" stroke="black" stroke-width="3" points="143.54,-458.72 153.99,-456.98 144.73,-451.82 143.54,-458.72"/>
</g>
<!-- c36 -->
<g id="node27" class="node">
<title>c36</title>
<polygon fill="none" stroke="black" points="3570.04,-423 3570.04,-472 3663.79,-472 3663.79,-423 3570.04,-423"/>
<text text-anchor="middle" x="3582.92" y="-454.7" font-family="Times,serif" font-size="14.00">A</text>
<polyline fill="none" stroke="black" points="3570.04,-447.5 3595.79,-447.5"/>
<text text-anchor="middle" x="3582.92" y="-430.2" font-family="Times,serif" font-size="14.00">B</text>
<polyline fill="none" stroke="black" points="3595.79,-423 3595.79,-472"/>
<text text-anchor="middle" x="3616.92" y="-450.7" font-family="Times,serif" font-size="14.00">$47</text>
<text text-anchor="middle" x="3616.92" y="-434.2" font-family="Times,serif" font-size="14.00">$and</text>
<polyline fill="none" stroke="black" points="3638.04,-423 3638.04,-472"/>
<text text-anchor="middle" x="3650.92" y="-442.7" font-family="Times,serif" font-size="14.00">Y</text>
</g>
<!-- n16&#45;&gt;c36 -->
<g id="edge44" class="edge">
<title>n16:e&#45;&gt;c36:w</title>
<path fill="none" stroke="black" stroke-width="3" d="M107.84,-334.5C158.04,-334.5 109.47,-520.91 143.84,-557.5 198.99,-616.2 240.05,-597.5 320.59,-597.5 320.59,-597.5 320.59,-597.5 3337.39,-597.5 3459.16,-597.5 3444.44,-445.23 3557.68,-435.72"/>
<polygon fill="black" stroke="black" stroke-width="3" points="3554.66,-439.34 3564.51,-435.44 3554.37,-432.35 3554.66,-439.34"/>
</g>
<!-- c38 -->
<g id="node32" class="node">
<title>c38</title>
<polygon fill="none" stroke="black" points="273.59,-245 273.59,-294 369.59,-294 369.59,-245 273.59,-245"/>
<text text-anchor="middle" x="286.47" y="-276.7" font-family="Times,serif" font-size="14.00">A</text>
<polyline fill="none" stroke="black" points="273.59,-269.5 299.34,-269.5"/>
<text text-anchor="middle" x="286.47" y="-252.2" font-family="Times,serif" font-size="14.00">B</text>
<polyline fill="none" stroke="black" points="299.34,-245 299.34,-294"/>
<text text-anchor="middle" x="321.59" y="-272.7" font-family="Times,serif" font-size="14.00">$2</text>
<text text-anchor="middle" x="321.59" y="-256.2" font-family="Times,serif" font-size="14.00">$mul</text>
<polyline fill="none" stroke="black" points="343.84,-245 343.84,-294"/>
<text text-anchor="middle" x="356.72" y="-264.7" font-family="Times,serif" font-size="14.00">Y</text>
</g>
<!-- n16&#45;&gt;c38 -->
<g id="edge45" class="edge">
<title>n16:e&#45;&gt;c38:w</title>
<path fill="none" stroke="black" stroke-width="3" d="M107.84,-334.5C149.69,-334.5 109.05,-270.75 143.84,-247.5 178.48,-224.35 196.29,-242.01 237.59,-247.5 249.4,-249.07 254.27,-253.42 262.23,-255.74"/>
<polygon fill="black" stroke="black" stroke-width="3" points="258.72,-258.81 269.09,-256.65 259.64,-251.87 258.72,-258.81"/>
</g>
<!-- x13 -->
<g id="node35" class="node">
<title>x13</title>
<path fill="none" stroke="black" d="M417.59,-483C417.59,-483 469.59,-483 469.59,-483 475.59,-483 481.59,-489 481.59,-495 481.59,-495 481.59,-520 481.59,-520 481.59,-526 475.59,-532 469.59,-532 469.59,-532 417.59,-532 417.59,-532 411.59,-532 405.59,-526 405.59,-520 405.59,-520 405.59,-495 405.59,-495 405.59,-489 411.59,-483 417.59,-483"/>
<text text-anchor="middle" x="443.59" y="-514.7" font-family="Times,serif" font-size="14.00">11:3 &#45; 11:3</text>
<polyline fill="none" stroke="black" points="405.59,-507.5 481.59,-507.5"/>
<text text-anchor="middle" x="443.59" y="-490.2" font-family="Times,serif" font-size="14.00">2:0 &#45; 2:0</text>
</g>
<!-- n16&#45;&gt;x13 -->
<g id="edge48" class="edge">
<title>n16:e&#45;&gt;x13:w</title>
<path fill="none" stroke="black" stroke-width="3" d="M107.84,-334.5C200.78,-334.5 72.69,-480.7 143.84,-540.5 161.64,-555.46 352.47,-532.51 369.59,-529.5 381.33,-527.44 386.23,-523.3 394.21,-521.14"/>
<polygon fill="black" stroke="black" stroke-width="3" points="391.58,-524.99 401.08,-520.3 390.73,-518.04 391.58,-524.99"/>
</g>
<!-- c41 -->
<g id="node39" class="node">
<title>c41</title>
<polygon fill="none" stroke="black" points="4558.34,-82 4558.34,-131 4654.34,-131 4654.34,-82 4558.34,-82"/>
<text text-anchor="middle" x="4571.22" y="-113.7" font-family="Times,serif" font-size="14.00">A</text>
<polyline fill="none" stroke="black" points="4558.34,-106.5 4584.09,-106.5"/>
<text text-anchor="middle" x="4571.22" y="-89.2" font-family="Times,serif" font-size="14.00">B</text>
<polyline fill="none" stroke="black" points="4584.09,-82 4584.09,-131"/>
<text text-anchor="middle" x="4606.34" y="-109.7" font-family="Times,serif" font-size="14.00">$19</text>
<text text-anchor="middle" x="4606.34" y="-93.2" font-family="Times,serif" font-size="14.00">$mul</text>
<polyline fill="none" stroke="black" points="4628.59,-82 4628.59,-131"/>
<text text-anchor="middle" x="4641.47" y="-101.7" font-family="Times,serif" font-size="14.00">Y</text>
</g>
<!-- n16&#45;&gt;c41 -->
<g id="edge46" class="edge">
<title>n16:e&#45;&gt;c41:w</title>
<path fill="none" stroke="black" stroke-width="3" d="M107.84,-334.5C156.5,-334.5 115.42,-158 143.84,-118.5 195.8,-46.27 231.62,-24.5 320.59,-24.5 320.59,-24.5 320.59,-24.5 4155.79,-24.5 4333.47,-24.5 4375.01,-91.29 4546.83,-94.15"/>
<polygon fill="black" stroke="black" stroke-width="3" points="4543.77,-97.63 4553.8,-94.21 4543.83,-90.63 4543.77,-97.63"/>
</g>
<!-- c42 -->
<g id="node41" class="node">
<title>c42</title>
<polygon fill="none" stroke="black" points="728.09,-153 728.09,-202 821.09,-202 821.09,-153 728.09,-153"/>
<text text-anchor="middle" x="740.97" y="-184.7" font-family="Times,serif" font-size="14.00">A</text>
<polyline fill="none" stroke="black" points="728.09,-177.5 753.84,-177.5"/>
<text text-anchor="middle" x="740.97" y="-160.2" font-family="Times,serif" font-size="14.00">B</text>
<polyline fill="none" stroke="black" points="753.84,-153 753.84,-202"/>
<text text-anchor="middle" x="774.59" y="-180.7" font-family="Times,serif" font-size="14.00">$3</text>
<text text-anchor="middle" x="774.59" y="-164.2" font-family="Times,serif" font-size="14.00">$sub</text>
<polyline fill="none" stroke="black" points="795.34,-153 795.34,-202"/>
<text text-anchor="middle" x="808.22" y="-172.7" font-family="Times,serif" font-size="14.00">Y</text>
</g>
<!-- n16&#45;&gt;c42 -->
<g id="edge47" class="edge">
<title>n16:e&#45;&gt;c42:w</title>
<path fill="none" stroke="black" stroke-width="3" d="M107.84,-334.5C156.33,-334.5 110.17,-266.4 143.84,-231.5 202.39,-170.81 236.26,-162.5 320.59,-162.5 320.59,-162.5 320.59,-162.5 549.84,-162.5 625.2,-162.5 646.79,-164.99 716.9,-165.23"/>
<polygon fill="black" stroke="black" stroke-width="3" points="713.54,-168.73 723.55,-165.24 713.56,-161.73 713.54,-168.73"/>
</g>
<!-- x19 -->
<g id="node45" class="node">
<title>x19</title>
<path fill="none" stroke="black" d="M529.59,-307.5C529.59,-307.5 568.09,-307.5 568.09,-307.5 574.09,-307.5 580.09,-313.5 580.09,-319.5 580.09,-319.5 580.09,-331.5 580.09,-331.5 580.09,-337.5 574.09,-343.5 568.09,-343.5 568.09,-343.5 529.59,-343.5 529.59,-343.5 523.59,-343.5 517.59,-337.5 517.59,-331.5 517.59,-331.5 517.59,-319.5 517.59,-319.5 517.59,-313.5 523.59,-307.5 529.59,-307.5"/>
<text text-anchor="middle" x="548.84" y="-320.7" font-family="Times,serif" font-size="14.00">2:0 &#45; 2:0</text>
</g>
<!-- n16&#45;&gt;x19 -->
<g id="edge49" class="edge">
<title>n16:e&#45;&gt;x19:w</title>
<path fill="none" stroke="black" stroke-width="3" d="M107.84,-334.5C286.17,-334.5 333.47,-326.11 506.3,-325.76"/>
<polygon fill="black" stroke="black" stroke-width="3" points="503.05,-329.26 513.05,-325.75 503.05,-322.26 503.05,-329.26"/>
</g>
<!-- n17 -->
<g id="node2" class="node">
<title>n17</title>
<polygon fill="none" stroke="black" points="5084.4,-69.04 5084.4,-83.96 5049.9,-94.5 5001.1,-94.5 4966.59,-83.96 4966.59,-69.04 5001.1,-58.5 5049.9,-58.5 5084.4,-69.04"/>
<text text-anchor="middle" x="5025.5" y="-71.45" font-family="Times,serif" font-size="14.00">output_data</text>
</g>
<!-- n18 -->
<g id="node3" class="node">
<title>n18</title>
<polygon fill="none" stroke="black" points="1266.09,-183.5 1210.84,-165.5 1266.09,-147.5 1321.34,-165.5 1266.09,-183.5"/>
<text text-anchor="middle" x="1266.09" y="-160.45" font-family="Times,serif" font-size="14.00">temp_1</text>
</g>
<!-- x4 -->
<g id="node17" class="node">
<title>x4</title>
<path fill="none" stroke="black" d="M1841.59,-250.5C1841.59,-250.5 1880.09,-250.5 1880.09,-250.5 1886.09,-250.5 1892.09,-256.5 1892.09,-262.5 1892.09,-262.5 1892.09,-274.5 1892.09,-274.5 1892.09,-280.5 1886.09,-286.5 1880.09,-286.5 1880.09,-286.5 1841.59,-286.5 1841.59,-286.5 1835.59,-286.5 1829.59,-280.5 1829.59,-274.5 1829.59,-274.5 1829.59,-262.5 1829.59,-262.5 1829.59,-256.5 1835.59,-250.5 1841.59,-250.5"/>
<text text-anchor="middle" x="1860.84" y="-263.7" font-family="Times,serif" font-size="14.00">2:0 &#45; 2:0</text>
</g>
<!-- n18&#45;&gt;x4 -->
<g id="edge62" class="edge">
<title>n18:e&#45;&gt;x4:w</title>
<path fill="none" stroke="black" stroke-width="3" d="M1321.34,-165.5C1347.3,-165.5 1335.15,-198.03 1357.34,-211.5 1425.65,-252.97 1454.18,-244.5 1534.09,-244.5 1534.09,-244.5 1534.09,-244.5 1658.09,-244.5 1731.16,-244.5 1750.68,-266.35 1818.31,-268.57"/>
<polygon fill="black" stroke="black" stroke-width="3" points="1815,-272.02 1825.05,-268.68 1815.11,-265.02 1815,-272.02"/>
</g>
<!-- c32 -->
<g id="node20" class="node">
<title>c32</title>
<polygon fill="none" stroke="black" points="1357.34,-129 1357.34,-178 1451.09,-178 1451.09,-129 1357.34,-129"/>
<text text-anchor="middle" x="1370.22" y="-160.7" font-family="Times,serif" font-size="14.00">A</text>
<polyline fill="none" stroke="black" points="1357.34,-153.5 1383.09,-153.5"/>
<text text-anchor="middle" x="1370.22" y="-136.2" font-family="Times,serif" font-size="14.00">B</text>
<polyline fill="none" stroke="black" points="1383.09,-129 1383.09,-178"/>
<text text-anchor="middle" x="1404.22" y="-156.7" font-family="Times,serif" font-size="14.00">$11</text>
<text text-anchor="middle" x="1404.22" y="-140.2" font-family="Times,serif" font-size="14.00">$and</text>
<polyline fill="none" stroke="black" points="1425.34,-129 1425.34,-178"/>
<text text-anchor="middle" x="1438.22" y="-148.7" font-family="Times,serif" font-size="14.00">Y</text>
</g>
<!-- n18&#45;&gt;c32 -->
<g id="edge56" class="edge">
<title>n18:e&#45;&gt;c32:w</title>
<path fill="none" stroke="black" stroke-width="3" d="M1321.34,-165.5C1332.72,-165.5 1338.03,-165.63 1345.9,-165.7"/>
<polygon fill="black" stroke="black" stroke-width="3" points="1342.79,-169.19 1352.8,-165.73 1342.82,-162.19 1342.79,-169.19"/>
</g>
<!-- n18&#45;&gt;c32 -->
<g id="edge57" class="edge">
<title>n18:e&#45;&gt;c32:w</title>
<path fill="none" stroke="black" stroke-width="3" d="M1321.34,-165.5C1335.96,-165.5 1338.02,-151.57 1346.55,-144.83"/>
<polygon fill="black" stroke="black" stroke-width="3" points="1344.64,-149.15 1353.03,-142.68 1342.44,-142.51 1344.64,-149.15"/>
</g>
<!-- c33 -->
<g id="node21" class="node">
<title>c33</title>
<polygon fill="none" stroke="black" points="1488.22,-117 1488.22,-166 1581.97,-166 1581.97,-117 1488.22,-117"/>
<text text-anchor="middle" x="1501.09" y="-148.7" font-family="Times,serif" font-size="14.00">A</text>
<polyline fill="none" stroke="black" points="1488.22,-141.5 1513.97,-141.5"/>
<text text-anchor="middle" x="1501.09" y="-124.2" font-family="Times,serif" font-size="14.00">B</text>
<polyline fill="none" stroke="black" points="1513.97,-117 1513.97,-166"/>
<text text-anchor="middle" x="1535.09" y="-144.7" font-family="Times,serif" font-size="14.00">$12</text>
<text text-anchor="middle" x="1535.09" y="-128.2" font-family="Times,serif" font-size="14.00">$and</text>
<polyline fill="none" stroke="black" points="1556.22,-117 1556.22,-166"/>
<text text-anchor="middle" x="1569.09" y="-136.7" font-family="Times,serif" font-size="14.00">Y</text>
</g>
<!-- n18&#45;&gt;c33 -->
<g id="edge58" class="edge">
<title>n18:e&#45;&gt;c33:w</title>
<path fill="none" stroke="black" stroke-width="3" d="M1321.34,-165.5C1347.3,-165.5 1334,-130.87 1357.34,-119.5 1394.8,-101.25 1409.79,-114.02 1451.09,-119.5 1462.94,-121.07 1467.83,-125.42 1475.81,-127.74"/>
<polygon fill="black" stroke="black" stroke-width="3" points="1472.34,-130.81 1482.72,-128.65 1473.26,-123.87 1472.34,-130.81"/>
</g>
<!-- c37 -->
<g id="node30" class="node">
<title>c37</title>
<polygon fill="none" stroke="black" points="4304.59,-120 4304.59,-169 4396.84,-169 4396.84,-120 4304.59,-120"/>
<text text-anchor="middle" x="4317.47" y="-151.7" font-family="Times,serif" font-size="14.00">A</text>
<polyline fill="none" stroke="black" points="4304.59,-144.5 4330.34,-144.5"/>
<text text-anchor="middle" x="4317.47" y="-127.2" font-family="Times,serif" font-size="14.00">B</text>
<polyline fill="none" stroke="black" points="4330.34,-120 4330.34,-169"/>
<text text-anchor="middle" x="4350.72" y="-147.7" font-family="Times,serif" font-size="14.00">$51</text>
<text text-anchor="middle" x="4350.72" y="-131.2" font-family="Times,serif" font-size="14.00">$xor</text>
<polyline fill="none" stroke="black" points="4371.09,-120 4371.09,-169"/>
<text text-anchor="middle" x="4383.97" y="-139.7" font-family="Times,serif" font-size="14.00">Y</text>
</g>
<!-- n18&#45;&gt;c37 -->
<g id="edge59" class="edge">
<title>n18:e&#45;&gt;c37:w</title>
<path fill="none" stroke="black" stroke-width="3" d="M1321.34,-165.5C1352.06,-165.5 1332.58,-124.68 1357.34,-106.5 1422.59,-58.58 1453.14,-62.5 1534.09,-62.5 1534.09,-62.5 1534.09,-62.5 3950.24,-62.5 4026.89,-62.5 4207.15,-126.12 4293.11,-131.84"/>
<polygon fill="black" stroke="black" stroke-width="3" points="4289.93,-135.23 4300.05,-132.09 4290.18,-128.23 4289.93,-135.23"/>
</g>
<!-- x14 -->
<g id="node36" class="node">
<title>x14</title>
<path fill="none" stroke="black" d="M1378.22,-273.5C1378.22,-273.5 1430.22,-273.5 1430.22,-273.5 1436.22,-273.5 1442.22,-279.5 1442.22,-285.5 1442.22,-285.5 1442.22,-297.5 1442.22,-297.5 1442.22,-303.5 1436.22,-309.5 1430.22,-309.5 1430.22,-309.5 1378.22,-309.5 1378.22,-309.5 1372.22,-309.5 1366.22,-303.5 1366.22,-297.5 1366.22,-297.5 1366.22,-285.5 1366.22,-285.5 1366.22,-279.5 1372.22,-273.5 1378.22,-273.5"/>
<text text-anchor="middle" x="1404.22" y="-286.7" font-family="Times,serif" font-size="14.00">14:0 &#45; 14:0</text>
</g>
<!-- n18&#45;&gt;x14 -->
<g id="edge60" class="edge">
<title>n18:e&#45;&gt;x14:w</title>
<path fill="none" stroke="black" stroke-width="3" d="M1321.34,-165.5C1376.34,-165.5 1316.2,-273.71 1354.1,-289.77"/>
<polygon fill="black" stroke="black" stroke-width="3" points="1350.29,-292.64 1360.75,-290.95 1351.52,-285.75 1350.29,-292.64"/>
</g>
<!-- x21 -->
<g id="node48" class="node">
<title>x21</title>
<path fill="none" stroke="black" d="M1743.09,-177.5C1743.09,-177.5 1781.59,-177.5 1781.59,-177.5 1787.59,-177.5 1793.59,-183.5 1793.59,-189.5 1793.59,-189.5 1793.59,-201.5 1793.59,-201.5 1793.59,-207.5 1787.59,-213.5 1781.59,-213.5 1781.59,-213.5 1743.09,-213.5 1743.09,-213.5 1737.09,-213.5 1731.09,-207.5 1731.09,-201.5 1731.09,-201.5 1731.09,-189.5 1731.09,-189.5 1731.09,-183.5 1737.09,-177.5 1743.09,-177.5"/>
<text text-anchor="middle" x="1762.34" y="-190.7" font-family="Times,serif" font-size="14.00">4:0 &#45; 4:0</text>
</g>
<!-- n18&#45;&gt;x21 -->
<g id="edge61" class="edge">
<title>n18:e&#45;&gt;x21:w</title>
<path fill="none" stroke="black" stroke-width="3" d="M1321.34,-165.5C1340.09,-165.5 1339.35,-182.22 1357.34,-187.5 1513.04,-233.17 1562.62,-197.51 1719.6,-195.81"/>
<polygon fill="black" stroke="black" stroke-width="3" points="1716.57,-199.33 1726.55,-195.77 1716.53,-192.33 1716.57,-199.33"/>
</g>
<!-- n19 -->
<g id="node4" class="node">
<title>n19</title>
<polygon fill="none" stroke="black" points="2501.59,-320.5 2446.34,-302.5 2501.59,-284.5 2556.84,-302.5 2501.59,-320.5"/>
<text text-anchor="middle" x="2501.59" y="-297.45" font-family="Times,serif" font-size="14.00">temp_2</text>
</g>
<!-- c28 -->
<g id="node13" class="node">
<title>c28</title>
<polygon fill="none" stroke="black" points="4023.24,-328 4023.24,-377 4116.99,-377 4116.99,-328 4023.24,-328"/>
<text text-anchor="middle" x="4036.12" y="-359.7" font-family="Times,serif" font-size="14.00">A</text>
<polyline fill="none" stroke="black" points="4023.24,-352.5 4048.99,-352.5"/>
<text text-anchor="middle" x="4036.12" y="-335.2" font-family="Times,serif" font-size="14.00">B</text>
<polyline fill="none" stroke="black" points="4048.99,-328 4048.99,-377"/>
<text text-anchor="middle" x="4070.12" y="-355.7" font-family="Times,serif" font-size="14.00">$17</text>
<text text-anchor="middle" x="4070.12" y="-339.2" font-family="Times,serif" font-size="14.00">$add</text>
<polyline fill="none" stroke="black" points="4091.24,-328 4091.24,-377"/>
<text text-anchor="middle" x="4104.12" y="-347.7" font-family="Times,serif" font-size="14.00">Y</text>
</g>
<!-- n19&#45;&gt;c28 -->
<g id="edge64" class="edge">
<title>n19:e&#45;&gt;c28:w</title>
<path fill="none" stroke="black" stroke-width="3" d="M2556.84,-302.5C2574.01,-302.5 2576.21,-312.26 2592.84,-316.5 2673.72,-337.11 2695.63,-340.5 2779.09,-340.5 2779.09,-340.5 2779.09,-340.5 3874.44,-340.5 3936.57,-340.5 3954.92,-340.28 4011.75,-340.25"/>
<polygon fill="black" stroke="black" stroke-width="3" points="4008.7,-343.75 4018.7,-340.25 4008.7,-336.75 4008.7,-343.75"/>
</g>
<!-- x8 -->
<g id="node26" class="node">
<title>x8</title>
<path fill="none" stroke="black" d="M2760.84,-237.5C2760.84,-237.5 2799.34,-237.5 2799.34,-237.5 2805.34,-237.5 2811.34,-243.5 2811.34,-249.5 2811.34,-249.5 2811.34,-261.5 2811.34,-261.5 2811.34,-267.5 2805.34,-273.5 2799.34,-273.5 2799.34,-273.5 2760.84,-273.5 2760.84,-273.5 2754.84,-273.5 2748.84,-267.5 2748.84,-261.5 2748.84,-261.5 2748.84,-249.5 2748.84,-249.5 2748.84,-243.5 2754.84,-237.5 2760.84,-237.5"/>
<text text-anchor="middle" x="2780.09" y="-250.7" font-family="Times,serif" font-size="14.00">0:0 &#45; 0:0</text>
</g>
<!-- n19&#45;&gt;x8 -->
<g id="edge67" class="edge">
<title>n19:e&#45;&gt;x8:w</title>
<path fill="none" stroke="black" d="M2556.84,-302.5C2574.01,-302.5 2576.39,-293.4 2592.84,-288.5 2656.5,-269.53 2675.33,-257.21 2736.37,-255.87"/>
<polygon fill="black" stroke="black" points="2736.37,-259.37 2746.33,-255.77 2736.29,-252.37 2736.37,-259.37"/>
</g>
<!-- c40 -->
<g id="node38" class="node">
<title>c40</title>
<polygon fill="none" stroke="black" points="2592.84,-111 2592.84,-160 2688.84,-160 2688.84,-111 2592.84,-111"/>
<text text-anchor="middle" x="2605.72" y="-142.7" font-family="Times,serif" font-size="14.00">A</text>
<polyline fill="none" stroke="black" points="2592.84,-135.5 2618.59,-135.5"/>
<text text-anchor="middle" x="2605.72" y="-118.2" font-family="Times,serif" font-size="14.00">B</text>
<polyline fill="none" stroke="black" points="2618.59,-111 2618.59,-160"/>
<text text-anchor="middle" x="2640.84" y="-138.7" font-family="Times,serif" font-size="14.00">$13</text>
<text text-anchor="middle" x="2640.84" y="-122.2" font-family="Times,serif" font-size="14.00">$mul</text>
<polyline fill="none" stroke="black" points="2663.09,-111 2663.09,-160"/>
<text text-anchor="middle" x="2675.97" y="-130.7" font-family="Times,serif" font-size="14.00">Y</text>
</g>
<!-- n19&#45;&gt;c40 -->
<g id="edge65" class="edge">
<title>n19:e&#45;&gt;c40:w</title>
<path fill="none" stroke="black" stroke-width="3" d="M2556.84,-302.5C2633.82,-302.5 2524.35,-141.66 2581.66,-124.69"/>
<polygon fill="black" stroke="black" stroke-width="3" points="2578.87,-128.58 2588.34,-123.83 2577.97,-121.64 2578.87,-128.58"/>
</g>
<!-- x20 -->
<g id="node47" class="node">
<title>x20</title>
<path fill="none" stroke="black" d="M3007.09,-234C3007.09,-234 3045.59,-234 3045.59,-234 3051.59,-234 3057.59,-240 3057.59,-246 3057.59,-246 3057.59,-271 3057.59,-271 3057.59,-277 3051.59,-283 3045.59,-283 3045.59,-283 3007.09,-283 3007.09,-283 3001.09,-283 2995.09,-277 2995.09,-271 2995.09,-271 2995.09,-246 2995.09,-246 2995.09,-240 3001.09,-234 3007.09,-234"/>
<text text-anchor="middle" x="3026.34" y="-265.7" font-family="Times,serif" font-size="14.00">2:1 &#45; 2:1</text>
<polyline fill="none" stroke="black" points="2995.09,-258.5 3057.59,-258.5"/>
<text text-anchor="middle" x="3026.34" y="-241.2" font-family="Times,serif" font-size="14.00">0:0 &#45; 0:0</text>
</g>
<!-- n19&#45;&gt;x20 -->
<g id="edge66" class="edge">
<title>n19:e&#45;&gt;x20:w</title>
<path fill="none" stroke="black" stroke-width="3" d="M2556.84,-302.5C2735.89,-302.5 2782.32,-308.95 2959.09,-280.5 2970.86,-278.61 2975.74,-274.4 2983.72,-272.18"/>
<polygon fill="black" stroke="black" stroke-width="3" points="2981.1,-276.04 2990.59,-271.32 2980.23,-269.09 2981.1,-276.04"/>
</g>
<!-- n20 -->
<g id="node5" class="node">
<title>n20</title>
<polygon fill="none" stroke="black" points="2780.09,-153.5 2724.84,-135.5 2780.09,-117.5 2835.34,-135.5 2780.09,-153.5"/>
<text text-anchor="middle" x="2780.09" y="-130.45" font-family="Times,serif" font-size="14.00">temp_3</text>
</g>
<!-- c29 -->
<g id="node15" class="node">
<title>c29</title>
<polygon fill="none" stroke="black" points="4836.84,-52 4836.84,-101 4930.59,-101 4930.59,-52 4836.84,-52"/>
<text text-anchor="middle" x="4849.72" y="-83.7" font-family="Times,serif" font-size="14.00">A</text>
<polyline fill="none" stroke="black" points="4836.84,-76.5 4862.59,-76.5"/>
<text text-anchor="middle" x="4849.72" y="-59.2" font-family="Times,serif" font-size="14.00">B</text>
<polyline fill="none" stroke="black" points="4862.59,-52 4862.59,-101"/>
<text text-anchor="middle" x="4883.72" y="-79.7" font-family="Times,serif" font-size="14.00">$28</text>
<text text-anchor="middle" x="4883.72" y="-63.2" font-family="Times,serif" font-size="14.00">$add</text>
<polyline fill="none" stroke="black" points="4904.84,-52 4904.84,-101"/>
<text text-anchor="middle" x="4917.72" y="-71.7" font-family="Times,serif" font-size="14.00">Y</text>
</g>
<!-- n20&#45;&gt;c29 -->
<g id="edge70" class="edge">
<title>n20:e&#45;&gt;c29:w</title>
<path fill="none" stroke="black" d="M2835.34,-135.5C2921.21,-135.5 2939.48,-100.5 3025.34,-100.5 3025.34,-100.5 3025.34,-100.5 3950.24,-100.5 4185.1,-100.5 4241.73,-53.5 4476.59,-53.5 4476.59,-53.5 4476.59,-53.5 4607.34,-53.5 4705.56,-53.5 4732.69,-63.45 4825.5,-64.2"/>
<polygon fill="black" stroke="black" points="4825.31,-67.7 4835.33,-64.24 4825.34,-60.7 4825.31,-67.7"/>
</g>
<!-- c35 -->
<g id="node25" class="node">
<title>c35</title>
<polygon fill="none" stroke="black" points="2871.34,-222 2871.34,-271 2959.09,-271 2959.09,-222 2871.34,-222"/>
<text text-anchor="middle" x="2884.22" y="-253.7" font-family="Times,serif" font-size="14.00">A</text>
<polyline fill="none" stroke="black" points="2871.34,-246.5 2897.09,-246.5"/>
<text text-anchor="middle" x="2884.22" y="-229.2" font-family="Times,serif" font-size="14.00">B</text>
<polyline fill="none" stroke="black" points="2897.09,-222 2897.09,-271"/>
<text text-anchor="middle" x="2915.22" y="-249.7" font-family="Times,serif" font-size="14.00">$44</text>
<text text-anchor="middle" x="2915.22" y="-233.2" font-family="Times,serif" font-size="14.00">$or</text>
<polyline fill="none" stroke="black" points="2933.34,-222 2933.34,-271"/>
<text text-anchor="middle" x="2946.22" y="-241.7" font-family="Times,serif" font-size="14.00">Y</text>
</g>
<!-- n20&#45;&gt;c35 -->
<g id="edge71" class="edge">
<title>n20:e&#45;&gt;c35:w</title>
<path fill="none" stroke="black" d="M2835.34,-135.5C2877.5,-135.5 2834.85,-215.9 2860.44,-231.61"/>
<polygon fill="black" stroke="black" points="2859.33,-234.94 2869.87,-233.89 2860.98,-228.14 2859.33,-234.94"/>
</g>
<!-- n21 -->
<g id="node6" class="node">
<title>n21</title>
<polygon fill="none" stroke="black" points="4745.59,-120.5 4690.34,-102.5 4745.59,-84.5 4800.84,-102.5 4745.59,-120.5"/>
<text text-anchor="middle" x="4745.59" y="-97.45" font-family="Times,serif" font-size="14.00">temp_4</text>
</g>
<!-- n21&#45;&gt;c29 -->
<g id="edge73" class="edge">
<title>n21:e&#45;&gt;c29:w</title>
<path fill="none" stroke="black" stroke-width="3" d="M4800.84,-102.5C4813.29,-102.5 4817.61,-95.24 4825.61,-91.27"/>
<polygon fill="black" stroke="black" stroke-width="3" points="4823.42,-95.35 4832.41,-89.75 4821.89,-88.52 4823.42,-95.35"/>
</g>
<!-- c25&#45;&gt;c38 -->
<g id="edge25" class="edge">
<title>c25:e&#45;&gt;c38:w</title>
<path fill="none" stroke="black" stroke-width="3" d="M237.59,-281.75C248.97,-281.75 254.28,-281.75 262.14,-281.75"/>
<polygon fill="black" stroke="black" stroke-width="3" points="259.05,-285.25 269.05,-281.75 259.05,-278.25 259.05,-285.25"/>
</g>
<!-- c26&#45;&gt;n18 -->
<g id="edge55" class="edge">
<title>c26:e&#45;&gt;n18:w</title>
<path fill="none" stroke="black" stroke-width="3" d="M1174.84,-165.75C1186.22,-165.75 1191.53,-165.62 1199.39,-165.55"/>
<polygon fill="black" stroke="black" stroke-width="3" points="1196.32,-169.06 1206.3,-165.52 1196.28,-162.06 1196.32,-169.06"/>
</g>
<!-- x0 -->
<g id="node9" class="node">
<title>x0</title>
<path fill="none" stroke="black" d="M981.09,-159.5C981.09,-159.5 1033.09,-159.5 1033.09,-159.5 1039.09,-159.5 1045.09,-165.5 1045.09,-171.5 1045.09,-171.5 1045.09,-183.5 1045.09,-183.5 1045.09,-189.5 1039.09,-195.5 1033.09,-195.5 1033.09,-195.5 981.09,-195.5 981.09,-195.5 975.09,-195.5 969.09,-189.5 969.09,-183.5 969.09,-183.5 969.09,-171.5 969.09,-171.5 969.09,-165.5 975.09,-159.5 981.09,-159.5"/>
<text text-anchor="middle" x="1007.09" y="-172.7" font-family="Times,serif" font-size="14.00">16:0 &#45; 16:0</text>
</g>
<!-- x0&#45;&gt;c26 -->
<g id="edge1" class="edge">
<title>x0:e&#45;&gt;c26:w</title>
<path fill="none" stroke="black" stroke-width="3" d="M1057.81,-177.56C1061.41,-177.6 1064.54,-177.65 1068.12,-177.68"/>
<polygon fill="none" stroke="black" stroke-width="3" points="1059.79,-177.57 1053.78,-181.54 1047.8,-177.51 1053.81,-173.54 1059.79,-177.57"/>
<polygon fill="none" stroke="black" stroke-width="3" points="1066.39,-177.68 1072.41,-173.71 1078.39,-177.74 1072.37,-181.71 1066.39,-177.68"/>
</g>
<!-- c27 -->
<g id="node10" class="node">
<title>c27</title>
<polygon fill="none" stroke="black" points="1928.09,-444 1928.09,-493 2021.84,-493 2021.84,-444 1928.09,-444"/>
<text text-anchor="middle" x="1940.97" y="-475.7" font-family="Times,serif" font-size="14.00">A</text>
<polyline fill="none" stroke="black" points="1928.09,-468.5 1953.84,-468.5"/>
<text text-anchor="middle" x="1940.97" y="-451.2" font-family="Times,serif" font-size="14.00">B</text>
<polyline fill="none" stroke="black" points="1953.84,-444 1953.84,-493"/>
<text text-anchor="middle" x="1974.97" y="-471.7" font-family="Times,serif" font-size="14.00">$7</text>
<text text-anchor="middle" x="1974.97" y="-455.2" font-family="Times,serif" font-size="14.00">$add</text>
<polyline fill="none" stroke="black" points="1996.09,-444 1996.09,-493"/>
<text text-anchor="middle" x="2008.97" y="-463.7" font-family="Times,serif" font-size="14.00">Y</text>
</g>
<!-- c30 -->
<g id="node16" class="node">
<title>c30</title>
<polygon fill="none" stroke="black" points="2057.84,-406 2057.84,-455 2151.59,-455 2151.59,-406 2057.84,-406"/>
<text text-anchor="middle" x="2070.72" y="-437.7" font-family="Times,serif" font-size="14.00">A</text>
<polyline fill="none" stroke="black" points="2057.84,-430.5 2083.59,-430.5"/>
<text text-anchor="middle" x="2070.72" y="-413.2" font-family="Times,serif" font-size="14.00">B</text>
<polyline fill="none" stroke="black" points="2083.59,-406 2083.59,-455"/>
<text text-anchor="middle" x="2104.72" y="-433.7" font-family="Times,serif" font-size="14.00">$8</text>
<text text-anchor="middle" x="2104.72" y="-417.2" font-family="Times,serif" font-size="14.00">$and</text>
<polyline fill="none" stroke="black" points="2125.84,-406 2125.84,-455"/>
<text text-anchor="middle" x="2138.72" y="-425.7" font-family="Times,serif" font-size="14.00">Y</text>
</g>
<!-- c27&#45;&gt;c30 -->
<g id="edge68" class="edge">
<title>c27:e&#45;&gt;c30:w</title>
<path fill="none" stroke="black" stroke-width="3" d="M2021.84,-468.75C2036.95,-468.75 2038.46,-453.51 2047.19,-446.37"/>
<polygon fill="black" stroke="black" stroke-width="3" points="2045.2,-450.74 2053.54,-444.21 2042.95,-444.11 2045.2,-450.74"/>
</g>
<!-- x1 -->
<g id="node11" class="node">
<title>x1</title>
<path fill="none" stroke="black" d="M1841.59,-463.5C1841.59,-463.5 1880.09,-463.5 1880.09,-463.5 1886.09,-463.5 1892.09,-469.5 1892.09,-475.5 1892.09,-475.5 1892.09,-487.5 1892.09,-487.5 1892.09,-493.5 1886.09,-499.5 1880.09,-499.5 1880.09,-499.5 1841.59,-499.5 1841.59,-499.5 1835.59,-499.5 1829.59,-493.5 1829.59,-487.5 1829.59,-487.5 1829.59,-475.5 1829.59,-475.5 1829.59,-469.5 1835.59,-463.5 1841.59,-463.5"/>
<text text-anchor="middle" x="1860.84" y="-476.7" font-family="Times,serif" font-size="14.00">2:0 &#45; 2:0</text>
</g>
<!-- x1&#45;&gt;c27 -->
<g id="edge2" class="edge">
<title>x1:e&#45;&gt;c27:w</title>
<path fill="none" stroke="black" stroke-width="3" d="M1904.81,-481.31C1908.41,-481.2 1911.54,-481.06 1915.12,-480.95"/>
<polygon fill="none" stroke="black" stroke-width="3" points="1906.79,-481.28 1900.85,-485.37 1894.8,-481.46 1900.74,-477.37 1906.79,-481.28"/>
<polygon fill="none" stroke="black" stroke-width="3" points="1913.39,-480.97 1919.33,-476.88 1925.39,-480.79 1919.45,-484.88 1913.39,-480.97"/>
</g>
<!-- x2&#45;&gt;c27 -->
<g id="edge3" class="edge">
<title>x2:e&#45;&gt;c27:w</title>
<path fill="none" stroke="black" stroke-width="3" d="M699.39,-424.53C781.11,-424.88 806.25,-428.5 894.09,-428.5 894.09,-428.5 894.09,-428.5 1763.34,-428.5 1833.1,-428.5 1851.66,-452.99 1915.22,-455.96"/>
<polygon fill="none" stroke="black" stroke-width="3" points="701.05,-424.53 695.04,-428.52 689.05,-424.51 695.05,-420.52 701.05,-424.53"/>
<polygon fill="none" stroke="black" stroke-width="3" points="1913.39,-455.92 1919.48,-452.05 1925.39,-456.19 1919.3,-460.05 1913.39,-455.92"/>
</g>
<!-- n3 -->
<g id="node61" class="node">
<title>n3</title>
<ellipse fill="black" stroke="black" cx="4154.79" cy="-203.5" rx="1.8" ry="1.8"/>
</g>
<!-- c28&#45;&gt;n3 -->
<g id="edge74" class="edge">
<title>c28:e&#45;&gt;n3:w</title>
<path fill="none" stroke="black" stroke-width="3" d="M4116.99,-352.75C4180.83,-352.75 4097.01,-222.12 4141.81,-205.28"/>
<polygon fill="black" stroke="black" stroke-width="3" points="4139.18,-209.24 4148.51,-204.21 4138.08,-202.33 4139.18,-209.24"/>
</g>
<!-- x3 -->
<g id="node14" class="node">
<title>x3</title>
<path fill="none" stroke="black" d="M3923.24,-372C3923.24,-372 3975.24,-372 3975.24,-372 3981.24,-372 3987.24,-378 3987.24,-384 3987.24,-384 3987.24,-409 3987.24,-409 3987.24,-415 3981.24,-421 3975.24,-421 3975.24,-421 3923.24,-421 3923.24,-421 3917.24,-421 3911.24,-415 3911.24,-409 3911.24,-409 3911.24,-384 3911.24,-384 3911.24,-378 3917.24,-372 3923.24,-372"/>
<text text-anchor="middle" x="3949.24" y="-403.7" font-family="Times,serif" font-size="14.00">0 &#45;&gt; 31:15</text>
<polyline fill="none" stroke="black" points="3911.24,-396.5 3987.24,-396.5"/>
<text text-anchor="middle" x="3949.24" y="-379.2" font-family="Times,serif" font-size="14.00">14:0 &#45; 14:0</text>
</g>
<!-- x3&#45;&gt;c28 -->
<g id="edge4" class="edge">
<title>x3:e&#45;&gt;c28:w</title>
<path fill="none" stroke="black" stroke-width="3" d="M3999.12,-391.26C4004.29,-385.34 4006.24,-375.77 4011.45,-369.9"/>
<polygon fill="none" stroke="black" stroke-width="3" points="4000.69,-390.56 3996.82,-396.64 3989.71,-395.41 3993.59,-389.33 4000.69,-390.56"/>
<polygon fill="none" stroke="black" stroke-width="3" points="4009.76,-370.63 4013.66,-364.57 4020.76,-365.83 4016.86,-371.9 4009.76,-370.63"/>
</g>
<!-- c29&#45;&gt;n17 -->
<g id="edge54" class="edge">
<title>c29:e&#45;&gt;n17:w</title>
<path fill="none" stroke="black" stroke-width="3" d="M4930.59,-76.75C4941.97,-76.75 4947.28,-76.62 4955.14,-76.55"/>
<polygon fill="black" stroke="black" stroke-width="3" points="4952.07,-80.06 4962.05,-76.52 4952.04,-73.06 4952.07,-80.06"/>
</g>
<!-- c31 -->
<g id="node18" class="node">
<title>c31</title>
<polygon fill="none" stroke="black" points="2187.59,-367 2187.59,-416 2281.34,-416 2281.34,-367 2187.59,-367"/>
<text text-anchor="middle" x="2200.47" y="-398.7" font-family="Times,serif" font-size="14.00">A</text>
<polyline fill="none" stroke="black" points="2187.59,-391.5 2213.34,-391.5"/>
<text text-anchor="middle" x="2200.47" y="-374.2" font-family="Times,serif" font-size="14.00">B</text>
<polyline fill="none" stroke="black" points="2213.34,-367 2213.34,-416"/>
<text text-anchor="middle" x="2234.47" y="-394.7" font-family="Times,serif" font-size="14.00">$9</text>
<text text-anchor="middle" x="2234.47" y="-378.2" font-family="Times,serif" font-size="14.00">$and</text>
<polyline fill="none" stroke="black" points="2255.59,-367 2255.59,-416"/>
<text text-anchor="middle" x="2268.47" y="-386.7" font-family="Times,serif" font-size="14.00">Y</text>
</g>
<!-- c30&#45;&gt;c31 -->
<g id="edge77" class="edge">
<title>c30:e&#45;&gt;c31:w</title>
<path fill="none" stroke="black" stroke-width="3" d="M2151.59,-430.75C2166.9,-430.75 2168.15,-414.92 2176.87,-407.5"/>
<polygon fill="black" stroke="black" stroke-width="3" points="2175.02,-411.86 2183.31,-405.25 2172.71,-405.25 2175.02,-411.86"/>
</g>
<!-- x4&#45;&gt;c30 -->
<g id="edge5" class="edge">
<title>x4:e&#45;&gt;c30:w</title>
<path fill="none" stroke="black" stroke-width="3" d="M1904.95,-269.42C1984.72,-281.34 1965.27,-405.74 2045.29,-417.38"/>
<polygon fill="none" stroke="black" stroke-width="3" points="1906.76,-269.55 1900.49,-273.11 1894.79,-268.69 1901.06,-265.13 1906.76,-269.55"/>
<polygon fill="none" stroke="black" stroke-width="3" points="2043.17,-417.23 2049.44,-413.66 2055.14,-418.06 2048.88,-421.64 2043.17,-417.23"/>
</g>
<!-- c43 -->
<g id="node44" class="node">
<title>c43</title>
<polygon fill="none" stroke="black" points="2317.34,-326 2317.34,-375 2410.34,-375 2410.34,-326 2317.34,-326"/>
<text text-anchor="middle" x="2330.22" y="-357.7" font-family="Times,serif" font-size="14.00">A</text>
<polyline fill="none" stroke="black" points="2317.34,-350.5 2343.09,-350.5"/>
<text text-anchor="middle" x="2330.22" y="-333.2" font-family="Times,serif" font-size="14.00">B</text>
<polyline fill="none" stroke="black" points="2343.09,-326 2343.09,-375"/>
<text text-anchor="middle" x="2363.84" y="-353.7" font-family="Times,serif" font-size="14.00">$10</text>
<text text-anchor="middle" x="2363.84" y="-337.2" font-family="Times,serif" font-size="14.00">$sub</text>
<polyline fill="none" stroke="black" points="2384.59,-326 2384.59,-375"/>
<text text-anchor="middle" x="2397.47" y="-345.7" font-family="Times,serif" font-size="14.00">Y</text>
</g>
<!-- c31&#45;&gt;c43 -->
<g id="edge78" class="edge">
<title>c31:e&#45;&gt;c43:w</title>
<path fill="none" stroke="black" stroke-width="3" d="M2281.34,-391.75C2297.23,-391.75 2297.79,-374.4 2306.73,-366.54"/>
<polygon fill="black" stroke="black" stroke-width="3" points="2304.83,-370.94 2313.07,-364.28 2302.47,-364.35 2304.83,-370.94"/>
</g>
<!-- x5&#45;&gt;c31 -->
<g id="edge6" class="edge">
<title>x5:e&#45;&gt;c31:w</title>
<path fill="none" stroke="black" stroke-width="3" d="M826.61,-381.47C901.6,-381.09 925.03,-377.5 1006.09,-377.5 1006.09,-377.5 1006.09,-377.5 1975.97,-377.5 2065.52,-377.5 2091.12,-379.09 2174.56,-379.24"/>
<polygon fill="none" stroke="black" stroke-width="3" points="828.29,-381.46 822.3,-385.48 816.3,-381.49 822.29,-377.48 828.29,-381.46"/>
<polygon fill="none" stroke="black" stroke-width="3" points="2172.89,-379.24 2178.89,-375.24 2184.89,-379.25 2178.88,-383.24 2172.89,-379.24"/>
</g>
<!-- c32&#45;&gt;c33 -->
<g id="edge79" class="edge">
<title>c32:e&#45;&gt;c33:w</title>
<path fill="none" stroke="black" stroke-width="3" d="M1451.09,-153.75C1462.51,-153.75 1467.83,-153.75 1475.73,-153.75"/>
<polygon fill="black" stroke="black" stroke-width="3" points="1472.68,-157.25 1482.68,-153.75 1472.68,-150.25 1472.68,-157.25"/>
</g>
<!-- c33&#45;&gt;c40 -->
<g id="edge80" class="edge">
<title>c33:e&#45;&gt;c40:w</title>
<path fill="none" stroke="black" stroke-width="3" d="M1582.97,-141.75C1662.26,-141.75 1682.05,-145.5 1761.34,-145.5 1761.34,-145.5 1761.34,-145.5 2364.84,-145.5 2462.32,-145.5 2489.47,-147.58 2581.59,-147.74"/>
<polygon fill="black" stroke="black" stroke-width="3" points="2578.3,-151.24 2588.3,-147.75 2578.31,-144.24 2578.3,-151.24"/>
</g>
<!-- c34 -->
<g id="node22" class="node">
<title>c34</title>
<polygon fill="none" stroke="black" points="277.72,-471 277.72,-520 365.47,-520 365.47,-471 277.72,-471"/>
<text text-anchor="middle" x="290.59" y="-502.7" font-family="Times,serif" font-size="14.00">A</text>
<polyline fill="none" stroke="black" points="277.72,-495.5 303.47,-495.5"/>
<text text-anchor="middle" x="290.59" y="-478.2" font-family="Times,serif" font-size="14.00">B</text>
<polyline fill="none" stroke="black" points="303.47,-471 303.47,-520"/>
<text text-anchor="middle" x="321.59" y="-498.7" font-family="Times,serif" font-size="14.00">$41</text>
<text text-anchor="middle" x="321.59" y="-482.2" font-family="Times,serif" font-size="14.00">$or</text>
<polyline fill="none" stroke="black" points="339.72,-471 339.72,-520"/>
<text text-anchor="middle" x="352.59" y="-490.7" font-family="Times,serif" font-size="14.00">Y</text>
</g>
<!-- c34&#45;&gt;x13 -->
<g id="edge84" class="edge">
<title>c34:e&#45;&gt;x13:w</title>
<path fill="none" stroke="black" stroke-width="3" d="M366.47,-495.75C379.37,-495.75 385.09,-495.47 394.29,-495.33"/>
<polygon fill="black" stroke="black" stroke-width="3" points="391.08,-498.86 401.05,-495.28 391.03,-491.86 391.08,-498.86"/>
</g>
<!-- x6&#45;&gt;c34 -->
<g id="edge7" class="edge">
<title>x6:e&#45;&gt;c34:w</title>
<path fill="none" stroke="black" stroke-width="3" d="M235.63,-511.99C246.33,-511.08 253.25,-509.19 263.92,-508.27"/>
<polygon fill="none" stroke="black" stroke-width="3" points="237.66,-511.91 231.82,-516.15 225.67,-512.39 231.5,-508.15 237.66,-511.91"/>
<polygon fill="none" stroke="black" stroke-width="3" points="262.02,-508.35 267.86,-504.11 274.01,-507.86 268.18,-512.1 262.02,-508.35"/>
</g>
<!-- x7&#45;&gt;c34 -->
<g id="edge8" class="edge">
<title>x7:e&#45;&gt;c34:w</title>
<path fill="none" stroke="black" stroke-width="3" d="M235.49,-459.88C247.1,-464.76 252.48,-475.87 264.03,-480.8"/>
<polygon fill="none" stroke="black" stroke-width="3" points="237.41,-460.24 230.77,-463.05 225.62,-458 232.26,-455.19 237.41,-460.24"/>
<polygon fill="none" stroke="black" stroke-width="3" points="262.28,-480.47 268.93,-477.68 274.06,-482.74 267.41,-485.53 262.28,-480.47"/>
</g>
<!-- c35&#45;&gt;x20 -->
<g id="edge26" class="edge">
<title>c35:e&#45;&gt;x20:w</title>
<path fill="none" stroke="black" d="M2959.09,-246.75C2970.47,-246.75 2975.78,-246.5 2983.65,-246.35"/>
<polygon fill="black" stroke="black" points="2983.61,-249.85 2993.58,-246.26 2983.55,-242.85 2983.61,-249.85"/>
</g>
<!-- x8&#45;&gt;c35 -->
<g id="edge9" class="edge">
<title>x8:e&#45;&gt;c35:w</title>
<path fill="none" stroke="black" d="M2825.29,-255.8C2838.01,-256.42 2845.84,-257.85 2858.61,-258.46"/>
<polygon fill="none" stroke="black" points="2825.24,-255.8 2819.15,-259.66 2813.24,-255.52 2819.34,-251.66 2825.24,-255.8"/>
<polygon fill="none" stroke="black" points="2858.45,-258.46 2864.54,-254.59 2870.44,-258.73 2864.35,-262.59 2858.45,-258.46"/>
</g>
<!-- x10 -->
<g id="node29" class="node">
<title>x10</title>
<path fill="none" stroke="black" d="M3768.27,-426.5C3768.27,-426.5 3820.27,-426.5 3820.27,-426.5 3826.27,-426.5 3832.27,-432.5 3832.27,-438.5 3832.27,-438.5 3832.27,-450.5 3832.27,-450.5 3832.27,-456.5 3826.27,-462.5 3820.27,-462.5 3820.27,-462.5 3768.27,-462.5 3768.27,-462.5 3762.27,-462.5 3756.27,-456.5 3756.27,-450.5 3756.27,-450.5 3756.27,-438.5 3756.27,-438.5 3756.27,-432.5 3762.27,-426.5 3768.27,-426.5"/>
<text text-anchor="middle" x="3794.27" y="-439.7" font-family="Times,serif" font-size="14.00">14:0 &#45; 14:0</text>
</g>
<!-- c36&#45;&gt;x10 -->
<g id="edge11" class="edge">
<title>c36:e&#45;&gt;x10:w</title>
<path fill="none" stroke="black" stroke-width="3" d="M3677.79,-447.63C3703.8,-447.11 3716.25,-445.14 3742.26,-444.62"/>
<polygon fill="none" stroke="black" stroke-width="3" points="3679.5,-447.61 3673.53,-451.67 3667.5,-447.72 3673.46,-443.67 3679.5,-447.61"/>
<polygon fill="none" stroke="black" stroke-width="3" points="3740.56,-444.64 3746.52,-440.58 3752.56,-444.53 3746.6,-448.58 3740.56,-444.64"/>
</g>
<!-- x9 -->
<g id="node28" class="node">
<title>x9</title>
<path fill="none" stroke="black" d="M3386.19,-263C3386.19,-263 3468.94,-263 3468.94,-263 3474.94,-263 3480.94,-269 3480.94,-275 3480.94,-275 3480.94,-300 3480.94,-300 3480.94,-306 3474.94,-312 3468.94,-312 3468.94,-312 3386.19,-312 3386.19,-312 3380.19,-312 3374.19,-306 3374.19,-300 3374.19,-300 3374.19,-275 3374.19,-275 3374.19,-269 3380.19,-263 3386.19,-263"/>
<text text-anchor="middle" x="3427.57" y="-294.7" font-family="Times,serif" font-size="14.00">10x 31:31 &#45; 14:5</text>
<polyline fill="none" stroke="black" points="3374.19,-287.5 3480.94,-287.5"/>
<text text-anchor="middle" x="3427.57" y="-270.2" font-family="Times,serif" font-size="14.00">4:0 &#45; 4:0</text>
</g>
<!-- x9&#45;&gt;c36 -->
<g id="edge10" class="edge">
<title>x9:e&#45;&gt;c36:w</title>
<path fill="none" stroke="black" stroke-width="3" d="M3493.61,-289.13C3530.65,-300.48 3488.6,-368.44 3516.94,-413.5 3530.86,-435.61 3536.34,-453.34 3556.31,-458.33"/>
<polygon fill="none" stroke="black" stroke-width="3" points="3495.53,-289.38 3489.07,-292.58 3483.63,-287.85 3490.09,-284.65 3495.53,-289.38"/>
<polygon fill="none" stroke="black" stroke-width="3" points="3554.43,-458.13 3560.83,-454.81 3566.35,-459.45 3559.95,-462.76 3554.43,-458.13"/>
</g>
<!-- n8 -->
<g id="node62" class="node">
<title>n8</title>
<ellipse fill="black" stroke="black" cx="3873.44" cy="-387.5" rx="1.8" ry="1.8"/>
</g>
<!-- x10&#45;&gt;n8 -->
<g id="edge81" class="edge">
<title>x10:e&#45;&gt;n8:w</title>
<path fill="none" stroke="black" stroke-width="3" d="M3833.27,-444.75C3859.11,-444.75 3846.85,-403.99 3860.79,-391.26"/>
<polygon fill="black" stroke="black" stroke-width="3" points="3859.05,-395.57 3867.35,-388.99 3856.75,-388.95 3859.05,-395.57"/>
</g>
<!-- x16 -->
<g id="node40" class="node">
<title>x16</title>
<path fill="none" stroke="black" d="M4444.84,-132C4444.84,-132 4510.34,-132 4510.34,-132 4516.34,-132 4522.34,-138 4522.34,-144 4522.34,-144 4522.34,-169 4522.34,-169 4522.34,-175 4516.34,-181 4510.34,-181 4510.34,-181 4444.84,-181 4444.84,-181 4438.84,-181 4432.84,-175 4432.84,-169 4432.84,-169 4432.84,-144 4432.84,-144 4432.84,-138 4438.84,-132 4444.84,-132"/>
<text text-anchor="middle" x="4477.59" y="-163.7" font-family="Times,serif" font-size="14.00">31:17 &#45; 31:17</text>
<polyline fill="none" stroke="black" points="4432.84,-156.5 4522.34,-156.5"/>
<text text-anchor="middle" x="4477.59" y="-139.2" font-family="Times,serif" font-size="14.00">16:0 &#45; 16:0</text>
</g>
<!-- c37&#45;&gt;x16 -->
<g id="edge27" class="edge">
<title>c37:e&#45;&gt;x16:w</title>
<path fill="none" stroke="black" stroke-width="3" d="M4396.84,-144.75C4408.22,-144.75 4413.53,-144.5 4421.39,-144.35"/>
<polygon fill="black" stroke="black" stroke-width="3" points="4418.33,-147.88 4428.3,-144.29 4418.27,-140.88 4418.33,-147.88"/>
</g>
<!-- x11 -->
<g id="node31" class="node">
<title>x11</title>
<path fill="none" stroke="black" d="M4204.59,-138.5C4204.59,-138.5 4256.59,-138.5 4256.59,-138.5 4262.59,-138.5 4268.59,-144.5 4268.59,-150.5 4268.59,-150.5 4268.59,-162.5 4268.59,-162.5 4268.59,-168.5 4262.59,-174.5 4256.59,-174.5 4256.59,-174.5 4204.59,-174.5 4204.59,-174.5 4198.59,-174.5 4192.59,-168.5 4192.59,-162.5 4192.59,-162.5 4192.59,-150.5 4192.59,-150.5 4192.59,-144.5 4198.59,-138.5 4204.59,-138.5"/>
<text text-anchor="middle" x="4230.59" y="-151.7" font-family="Times,serif" font-size="14.00">16:0 &#45; 16:0</text>
</g>
<!-- x11&#45;&gt;c37 -->
<g id="edge12" class="edge">
<title>x11:e&#45;&gt;c37:w</title>
<path fill="none" stroke="black" stroke-width="3" d="M4281.31,-156.56C4284.91,-156.6 4288.04,-156.65 4291.62,-156.68"/>
<polygon fill="none" stroke="black" stroke-width="3" points="4283.29,-156.57 4277.27,-160.54 4271.29,-156.51 4277.31,-152.54 4283.29,-156.57"/>
<polygon fill="none" stroke="black" stroke-width="3" points="4289.89,-156.68 4295.91,-152.71 4301.89,-156.74 4295.87,-160.71 4289.89,-156.68"/>
</g>
<!-- x12 -->
<g id="node33" class="node">
<title>x12</title>
<path fill="none" stroke="black" d="M417.59,-248.5C417.59,-248.5 469.59,-248.5 469.59,-248.5 475.59,-248.5 481.59,-254.5 481.59,-260.5 481.59,-260.5 481.59,-272.5 481.59,-272.5 481.59,-278.5 475.59,-284.5 469.59,-284.5 469.59,-284.5 417.59,-284.5 417.59,-284.5 411.59,-284.5 405.59,-278.5 405.59,-272.5 405.59,-272.5 405.59,-260.5 405.59,-260.5 405.59,-254.5 411.59,-248.5 417.59,-248.5"/>
<text text-anchor="middle" x="443.59" y="-261.7" font-family="Times,serif" font-size="14.00">16:0 &#45; 16:0</text>
</g>
<!-- c38&#45;&gt;x12 -->
<g id="edge13" class="edge">
<title>c38:e&#45;&gt;x12:w</title>
<path fill="none" stroke="black" stroke-width="3" d="M382.33,-268.93C385.92,-268.45 389.04,-267.84 392.6,-267.35"/>
<polygon fill="none" stroke="black" stroke-width="3" points="384.26,-268.81 378.53,-273.18 372.29,-269.58 378.02,-265.2 384.26,-268.81"/>
<polygon fill="none" stroke="black" stroke-width="3" points="390.92,-267.46 396.64,-263.08 402.89,-266.68 397.17,-271.06 390.92,-267.46"/>
</g>
<!-- n12 -->
<g id="node58" class="node">
<title>n12</title>
<ellipse fill="black" stroke="black" cx="548.84" cy="-209.5" rx="1.8" ry="1.8"/>
</g>
<!-- x12&#45;&gt;n12 -->
<g id="edge28" class="edge">
<title>x12:e&#45;&gt;n12:w</title>
<path fill="none" stroke="black" stroke-width="3" d="M481.59,-266.75C515.42,-266.75 509.56,-221.74 534.39,-211.54"/>
<polygon fill="black" stroke="black" stroke-width="3" points="531.89,-215.55 541.1,-210.31 530.63,-208.67 531.89,-215.55"/>
</g>
<!-- c39 -->
<g id="node34" class="node">
<title>c39</title>
<polygon fill="none" stroke="black" points="1487.09,-457 1487.09,-506 1583.09,-506 1583.09,-457 1487.09,-457"/>
<text text-anchor="middle" x="1499.97" y="-488.7" font-family="Times,serif" font-size="14.00">A</text>
<polyline fill="none" stroke="black" points="1487.09,-481.5 1512.84,-481.5"/>
<text text-anchor="middle" x="1499.97" y="-464.2" font-family="Times,serif" font-size="14.00">B</text>
<polyline fill="none" stroke="black" points="1512.84,-457 1512.84,-506"/>
<text text-anchor="middle" x="1535.09" y="-484.7" font-family="Times,serif" font-size="14.00">$6</text>
<text text-anchor="middle" x="1535.09" y="-468.2" font-family="Times,serif" font-size="14.00">$mul</text>
<polyline fill="none" stroke="black" points="1557.34,-457 1557.34,-506"/>
<text text-anchor="middle" x="1570.22" y="-476.7" font-family="Times,serif" font-size="14.00">Y</text>
</g>
<!-- x15 -->
<g id="node37" class="node">
<title>x15</title>
<path fill="none" stroke="black" d="M1637.84,-463.5C1637.84,-463.5 1676.34,-463.5 1676.34,-463.5 1682.34,-463.5 1688.34,-469.5 1688.34,-475.5 1688.34,-475.5 1688.34,-487.5 1688.34,-487.5 1688.34,-493.5 1682.34,-499.5 1676.34,-499.5 1676.34,-499.5 1637.84,-499.5 1637.84,-499.5 1631.84,-499.5 1625.84,-493.5 1625.84,-487.5 1625.84,-487.5 1625.84,-475.5 1625.84,-475.5 1625.84,-469.5 1631.84,-463.5 1637.84,-463.5"/>
<text text-anchor="middle" x="1657.09" y="-476.7" font-family="Times,serif" font-size="14.00">2:0 &#45; 2:0</text>
</g>
<!-- c39&#45;&gt;x15 -->
<g id="edge16" class="edge">
<title>c39:e&#45;&gt;x15:w</title>
<path fill="none" stroke="black" stroke-width="3" d="M1596.06,-481.7C1601.73,-481.66 1606.22,-481.59 1611.89,-481.55"/>
<polygon fill="none" stroke="black" stroke-width="3" points="1597.8,-481.7 1591.81,-485.72 1585.8,-481.74 1591.78,-477.72 1597.8,-481.7"/>
<polygon fill="none" stroke="black" stroke-width="3" points="1610.14,-481.55 1616.12,-477.53 1622.14,-481.51 1616.15,-485.53 1610.14,-481.55"/>
</g>
<!-- x13&#45;&gt;c39 -->
<g id="edge14" class="edge">
<title>x13:e&#45;&gt;c39:w</title>
<path fill="none" stroke="black" stroke-width="3" d="M494.43,-507.45C560.27,-506.93 581.3,-502.5 653.09,-502.5 653.09,-502.5 653.09,-502.5 1267.09,-502.5 1360.46,-502.5 1386.85,-494.53 1474.07,-493.8"/>
<polygon fill="none" stroke="black" stroke-width="3" points="496.29,-507.44 490.31,-511.47 484.3,-507.49 490.28,-503.47 496.29,-507.44"/>
<polygon fill="none" stroke="black" stroke-width="3" points="1472.39,-493.81 1478.37,-489.79 1484.39,-493.76 1478.4,-497.79 1472.39,-493.81"/>
</g>
<!-- x14&#45;&gt;c39 -->
<g id="edge15" class="edge">
<title>x14:e&#45;&gt;c39:w</title>
<path fill="none" stroke="black" stroke-width="3" d="M1455.88,-293.38C1507.38,-311.15 1422.93,-449.6 1474.42,-467.37"/>
<polygon fill="none" stroke="black" stroke-width="3" points="1457.76,-293.65 1451.24,-296.73 1445.89,-291.9 1452.41,-288.82 1457.76,-293.65"/>
<polygon fill="none" stroke="black" stroke-width="3" points="1472.55,-467.1 1479.07,-464.02 1484.42,-468.85 1477.9,-471.93 1472.55,-467.1"/>
</g>
<!-- n13 -->
<g id="node59" class="node">
<title>n13</title>
<ellipse fill="black" stroke="black" cx="1762.34" cy="-481.5" rx="1.8" ry="1.8"/>
</g>
<!-- x15&#45;&gt;n13 -->
<g id="edge31" class="edge">
<title>x15:e&#45;&gt;n13:w</title>
<path fill="none" stroke="black" stroke-width="3" d="M1689.34,-481.75C1716.21,-481.75 1725.61,-481.56 1747.84,-481.51"/>
<polygon fill="black" stroke="black" stroke-width="3" points="1744.53,-485.02 1754.52,-481.5 1744.52,-478.02 1744.53,-485.02"/>
</g>
<!-- c40&#45;&gt;n20 -->
<g id="edge69" class="edge">
<title>c40:e&#45;&gt;n20:w</title>
<path fill="none" stroke="black" d="M2688.84,-135.75C2700.22,-135.75 2705.53,-135.62 2713.4,-135.55"/>
<polygon fill="black" stroke="black" points="2713.35,-139.05 2723.33,-135.51 2713.31,-132.05 2713.35,-139.05"/>
</g>
<!-- c41&#45;&gt;n21 -->
<g id="edge72" class="edge">
<title>c41:e&#45;&gt;n21:w</title>
<path fill="none" stroke="black" stroke-width="3" d="M4654.34,-106.75C4665.79,-106.75 4671.01,-104.6 4678.86,-103.36"/>
<polygon fill="black" stroke="black" stroke-width="3" points="4676.1,-107.08 4685.81,-102.84 4675.58,-100.1 4676.1,-107.08"/>
</g>
<!-- x16&#45;&gt;c41 -->
<g id="edge17" class="edge">
<title>x16:e&#45;&gt;c41:w</title>
<path fill="none" stroke="black" stroke-width="3" d="M4533.98,-151.25C4539.84,-144.12 4540.77,-131.43 4546.54,-124.2"/>
<polygon fill="none" stroke="black" stroke-width="3" points="4535.74,-150.45 4531.92,-156.57 4524.81,-155.39 4528.63,-149.27 4535.74,-150.45"/>
<polygon fill="none" stroke="black" stroke-width="3" points="4544.99,-124.92 4548.76,-118.77 4555.89,-119.88 4552.12,-126.03 4544.99,-124.92"/>
</g>
<!-- x18 -->
<g id="node43" class="node">
<title>x18</title>
<path fill="none" stroke="black" d="M869.09,-159.5C869.09,-159.5 921.09,-159.5 921.09,-159.5 927.09,-159.5 933.09,-165.5 933.09,-171.5 933.09,-171.5 933.09,-183.5 933.09,-183.5 933.09,-189.5 927.09,-195.5 921.09,-195.5 921.09,-195.5 869.09,-195.5 869.09,-195.5 863.09,-195.5 857.09,-189.5 857.09,-183.5 857.09,-183.5 857.09,-171.5 857.09,-171.5 857.09,-165.5 863.09,-159.5 869.09,-159.5"/>
<text text-anchor="middle" x="895.09" y="-172.7" font-family="Times,serif" font-size="14.00">16:0 &#45; 16:0</text>
</g>
<!-- c42&#45;&gt;x18 -->
<g id="edge19" class="edge">
<title>c42:e&#45;&gt;x18:w</title>
<path fill="none" stroke="black" stroke-width="3" d="M833.81,-177.69C837.41,-177.65 840.54,-177.6 844.12,-177.57"/>
<polygon fill="none" stroke="black" stroke-width="3" points="835.79,-177.68 829.81,-181.71 823.8,-177.74 829.78,-173.71 835.79,-177.68"/>
<polygon fill="none" stroke="black" stroke-width="3" points="842.39,-177.57 848.37,-173.54 854.39,-177.51 848.41,-181.54 842.39,-177.57"/>
</g>
<!-- x17 -->
<g id="node42" class="node">
<title>x17</title>
<path fill="none" stroke="black" d="M628.09,-191.5C628.09,-191.5 680.09,-191.5 680.09,-191.5 686.09,-191.5 692.09,-197.5 692.09,-203.5 692.09,-203.5 692.09,-215.5 692.09,-215.5 692.09,-221.5 686.09,-227.5 680.09,-227.5 680.09,-227.5 628.09,-227.5 628.09,-227.5 622.09,-227.5 616.09,-221.5 616.09,-215.5 616.09,-215.5 616.09,-203.5 616.09,-203.5 616.09,-197.5 622.09,-191.5 628.09,-191.5"/>
<text text-anchor="middle" x="654.09" y="-204.7" font-family="Times,serif" font-size="14.00">16:0 &#45; 16:0</text>
</g>
<!-- x17&#45;&gt;c42 -->
<g id="edge18" class="edge">
<title>x17:e&#45;&gt;c42:w</title>
<path fill="none" stroke="black" stroke-width="3" d="M704.37,-205.31C708.6,-201.96 711.58,-197.28 715.82,-193.93"/>
<polygon fill="none" stroke="black" stroke-width="3" points="706.01,-204.75 701.62,-210.48 694.65,-208.63 699.04,-202.9 706.01,-204.75"/>
<polygon fill="none" stroke="black" stroke-width="3" points="714.17,-194.49 718.56,-188.77 725.53,-190.62 721.14,-196.34 714.17,-194.49"/>
</g>
<!-- x18&#45;&gt;x0 -->
<g id="edge34" class="edge">
<title>x18:e&#45;&gt;x0:w</title>
<path fill="none" stroke="black" stroke-width="3" d="M933.09,-177.75C944.47,-177.75 949.78,-177.75 957.64,-177.75"/>
<polygon fill="black" stroke="black" stroke-width="3" points="954.55,-181.25 964.55,-177.75 954.55,-174.25 954.55,-181.25"/>
</g>
<!-- c43&#45;&gt;n19 -->
<g id="edge63" class="edge">
<title>c43:e&#45;&gt;n19:w</title>
<path fill="none" stroke="black" stroke-width="3" d="M2410.34,-350.75C2432.29,-350.75 2424.45,-318.28 2435.69,-306.61"/>
<polygon fill="black" stroke="black" stroke-width="3" points="2434.04,-311 2442.11,-304.14 2431.52,-304.48 2434.04,-311"/>
</g>
<!-- x19&#45;&gt;c43 -->
<g id="edge20" class="edge">
<title>x19:e&#45;&gt;c43:w</title>
<path fill="none" stroke="black" stroke-width="3" d="M593.04,-325.5C1006.34,-325.77 1114.4,-338.5 1534.09,-338.5 1534.09,-338.5 1534.09,-338.5 2105.72,-338.5 2195.27,-338.5 2220.87,-338.27 2304.31,-338.25"/>
<polygon fill="none" stroke="black" stroke-width="3" points="594.8,-325.5 588.79,-329.5 582.8,-325.5 588.8,-321.5 594.8,-325.5"/>
<polygon fill="none" stroke="black" stroke-width="3" points="2302.64,-338.25 2308.64,-334.25 2314.64,-338.25 2308.64,-342.25 2302.64,-338.25"/>
</g>
<!-- c44 -->
<g id="node46" class="node">
<title>c44</title>
<polygon fill="none" stroke="black" points="3093.59,-216 3093.59,-265 3186.59,-265 3186.59,-216 3093.59,-216"/>
<text text-anchor="middle" x="3106.47" y="-247.7" font-family="Times,serif" font-size="14.00">A</text>
<polyline fill="none" stroke="black" points="3093.59,-240.5 3119.34,-240.5"/>
<text text-anchor="middle" x="3106.47" y="-223.2" font-family="Times,serif" font-size="14.00">B</text>
<polyline fill="none" stroke="black" points="3119.34,-216 3119.34,-265"/>
<text text-anchor="middle" x="3140.09" y="-243.7" font-family="Times,serif" font-size="14.00">$15</text>
<text text-anchor="middle" x="3140.09" y="-227.2" font-family="Times,serif" font-size="14.00">$sub</text>
<polyline fill="none" stroke="black" points="3160.84,-216 3160.84,-265"/>
<text text-anchor="middle" x="3173.72" y="-235.7" font-family="Times,serif" font-size="14.00">Y</text>
</g>
<!-- x22 -->
<g id="node49" class="node">
<title>x22</title>
<path fill="none" stroke="black" d="M3234.59,-216C3234.59,-216 3286.59,-216 3286.59,-216 3292.59,-216 3298.59,-222 3298.59,-228 3298.59,-228 3298.59,-253 3298.59,-253 3298.59,-259 3292.59,-265 3286.59,-265 3286.59,-265 3234.59,-265 3234.59,-265 3228.59,-265 3222.59,-259 3222.59,-253 3222.59,-253 3222.59,-228 3222.59,-228 3222.59,-222 3228.59,-216 3234.59,-216"/>
<text text-anchor="middle" x="3260.59" y="-247.7" font-family="Times,serif" font-size="14.00">5:5 &#45; 31:31</text>
<polyline fill="none" stroke="black" points="3222.59,-240.5 3298.59,-240.5"/>
<text text-anchor="middle" x="3260.59" y="-223.2" font-family="Times,serif" font-size="14.00">4:0 &#45; 4:0</text>
</g>
<!-- c44&#45;&gt;x22 -->
<g id="edge23" class="edge">
<title>c44:e&#45;&gt;x22:w</title>
<path fill="none" stroke="black" stroke-width="3" d="M3199.32,-240.69C3202.91,-240.65 3206.05,-240.6 3209.62,-240.57"/>
<polygon fill="none" stroke="black" stroke-width="3" points="3201.3,-240.68 3195.32,-244.71 3189.3,-240.74 3195.28,-236.71 3201.3,-240.68"/>
<polygon fill="none" stroke="black" stroke-width="3" points="3207.89,-240.57 3213.87,-236.54 3219.89,-240.51 3213.91,-244.54 3207.89,-240.57"/>
</g>
<!-- x20&#45;&gt;c44 -->
<g id="edge21" class="edge">
<title>x20:e&#45;&gt;c44:w</title>
<path fill="none" stroke="black" stroke-width="3" d="M3070.36,-257.05C3074.05,-256.17 3077.22,-255.06 3080.91,-254.18"/>
<polygon fill="none" stroke="black" stroke-width="3" points="3072.2,-256.84 3066.69,-261.49 3060.28,-258.19 3065.79,-253.54 3072.2,-256.84"/>
<polygon fill="none" stroke="black" stroke-width="3" points="3078.98,-254.4 3084.5,-249.75 3090.91,-253.05 3085.39,-257.7 3078.98,-254.4"/>
</g>
<!-- x21&#45;&gt;c44 -->
<g id="edge22" class="edge">
<title>x21:e&#45;&gt;c44:w</title>
<path fill="none" stroke="black" stroke-width="3" d="M1806.23,-195.48C1876.13,-195.29 1898.18,-193.5 1973.97,-193.5 1973.97,-193.5 1973.97,-193.5 2916.22,-193.5 2952.54,-193.5 3035.37,-221.92 3080.6,-227.36"/>
<polygon fill="none" stroke="black" stroke-width="3" points="1808.3,-195.48 1802.3,-199.49 1796.3,-195.5 1802.29,-191.49 1808.3,-195.48"/>
<polygon fill="none" stroke="black" stroke-width="3" points="3078.92,-227.24 3085.18,-223.66 3090.9,-228.06 3084.64,-231.64 3078.92,-227.24"/>
</g>
<!-- n15 -->
<g id="node60" class="node">
<title>n15</title>
<ellipse fill="black" stroke="black" cx="3336.39" cy="-240.5" rx="1.8" ry="1.8"/>
</g>
<!-- x22&#45;&gt;n15 -->
<g id="edge35" class="edge">
<title>x22:e&#45;&gt;n15:w</title>
<path fill="none" stroke="black" stroke-width="3" d="M3298.59,-228.25C3310.87,-228.25 3315.39,-234.72 3323.43,-238.25"/>
<polygon fill="black" stroke="black" stroke-width="3" points="3319.65,-241.06 3330.14,-239.6 3321.03,-234.2 3319.65,-241.06"/>
</g>
<!-- x22&#45;&gt;n15 -->
<g id="edge36" class="edge">
<title>x22:e&#45;&gt;n15:w</title>
<path fill="none" stroke="black" d="M3298.59,-252.75C3310.87,-252.75 3315.39,-246.28 3323.43,-242.75"/>
<polygon fill="black" stroke="black" points="3324,-246.2 3333.11,-240.8 3322.62,-239.34 3324,-246.2"/>
</g>
<!-- v23 -->
<g id="node50" class="node">
<title>v23</title>
<ellipse fill="none" stroke="black" cx="3616.92" cy="-386.5" rx="99.97" ry="18"/>
<text text-anchor="middle" x="3616.92" y="-381.45" font-family="Times,serif" font-size="14.00">17&#39;00000000000000000</text>
</g>
<!-- x24 -->
<g id="node51" class="node">
<title>x24</title>
<path fill="none" stroke="black" d="M3764.89,-369.5C3764.89,-369.5 3823.64,-369.5 3823.64,-369.5 3829.64,-369.5 3835.64,-375.5 3835.64,-381.5 3835.64,-381.5 3835.64,-393.5 3835.64,-393.5 3835.64,-399.5 3829.64,-405.5 3823.64,-405.5 3823.64,-405.5 3764.89,-405.5 3764.89,-405.5 3758.89,-405.5 3752.89,-399.5 3752.89,-393.5 3752.89,-393.5 3752.89,-381.5 3752.89,-381.5 3752.89,-375.5 3758.89,-369.5 3764.89,-369.5"/>
<text text-anchor="middle" x="3794.27" y="-382.7" font-family="Times,serif" font-size="14.00">16:0 &#45; 31:15</text>
</g>
<!-- v23&#45;&gt;x24 -->
<g id="edge85" class="edge">
<title>v23:e&#45;&gt;x24:w</title>
<path fill="none" stroke="black" stroke-width="3" d="M3716.89,-386.5C3728.27,-386.5 3733.57,-387.01 3741.44,-387.3"/>
<polygon fill="black" stroke="black" stroke-width="3" points="3738.29,-390.74 3748.35,-387.42 3738.41,-383.74 3738.29,-390.74"/>
</g>
<!-- x24&#45;&gt;n8 -->
<g id="edge82" class="edge">
<title>x24:e&#45;&gt;n8:w</title>
<path fill="none" stroke="black" stroke-width="3" d="M3835.64,-387.75C3847.02,-387.75 3852.33,-387.62 3860.19,-387.55"/>
<polygon fill="black" stroke="black" stroke-width="3" points="3857.12,-391.06 3867.1,-387.52 3857.08,-384.06 3857.12,-391.06"/>
</g>
<!-- v25 -->
<g id="node52" class="node">
<title>v25</title>
<ellipse fill="none" stroke="black" cx="321.59" cy="-208.5" rx="27" ry="18"/>
<text text-anchor="middle" x="321.59" y="-203.45" font-family="Times,serif" font-size="14.00">1&#39;0</text>
</g>
<!-- x26 -->
<g id="node53" class="node">
<title>x26</title>
<path fill="none" stroke="black" d="M417.59,-191.5C417.59,-191.5 469.59,-191.5 469.59,-191.5 475.59,-191.5 481.59,-197.5 481.59,-203.5 481.59,-203.5 481.59,-215.5 481.59,-215.5 481.59,-221.5 475.59,-227.5 469.59,-227.5 469.59,-227.5 417.59,-227.5 417.59,-227.5 411.59,-227.5 405.59,-221.5 405.59,-215.5 405.59,-215.5 405.59,-203.5 405.59,-203.5 405.59,-197.5 411.59,-191.5 417.59,-191.5"/>
<text text-anchor="middle" x="443.59" y="-204.7" font-family="Times,serif" font-size="14.00">0:0 &#45; 31:31</text>
</g>
<!-- v25&#45;&gt;x26 -->
<g id="edge86" class="edge">
<title>v25:e&#45;&gt;x26:w</title>
<path fill="none" stroke="black" d="M349.84,-208.5C370.37,-208.5 378.13,-209.19 394.27,-209.42"/>
<polygon fill="black" stroke="black" points="394.05,-212.92 404.08,-209.49 394.1,-205.92 394.05,-212.92"/>
</g>
<!-- x26&#45;&gt;n12 -->
<g id="edge29" class="edge">
<title>x26:e&#45;&gt;n12:w</title>
<path fill="none" stroke="black" d="M481.59,-209.75C505.8,-209.75 514.55,-209.57 534.17,-209.51"/>
<polygon fill="black" stroke="black" points="534.05,-213.02 544.05,-209.5 534.04,-206.02 534.05,-213.02"/>
</g>
<!-- v27 -->
<g id="node54" class="node">
<title>v27</title>
<ellipse fill="none" stroke="black" cx="1535.09" cy="-542.5" rx="40.09" ry="18"/>
<text text-anchor="middle" x="1535.09" y="-537.45" font-family="Times,serif" font-size="14.00">5&#39;00000</text>
</g>
<!-- x28 -->
<g id="node55" class="node">
<title>x28</title>
<path fill="none" stroke="black" d="M1631.09,-521.5C1631.09,-521.5 1683.09,-521.5 1683.09,-521.5 1689.09,-521.5 1695.09,-527.5 1695.09,-533.5 1695.09,-533.5 1695.09,-545.5 1695.09,-545.5 1695.09,-551.5 1689.09,-557.5 1683.09,-557.5 1683.09,-557.5 1631.09,-557.5 1631.09,-557.5 1625.09,-557.5 1619.09,-551.5 1619.09,-545.5 1619.09,-545.5 1619.09,-533.5 1619.09,-533.5 1619.09,-527.5 1625.09,-521.5 1631.09,-521.5"/>
<text text-anchor="middle" x="1657.09" y="-534.7" font-family="Times,serif" font-size="14.00">4:0 &#45; 31:27</text>
</g>
<!-- v27&#45;&gt;x28 -->
<g id="edge87" class="edge">
<title>v27:e&#45;&gt;x28:w</title>
<path fill="none" stroke="black" stroke-width="3" d="M1576.56,-542.5C1591.07,-542.5 1597.18,-540.74 1607.76,-539.92"/>
<polygon fill="black" stroke="black" stroke-width="3" points="1604.69,-543.53 1614.55,-539.67 1604.43,-536.54 1604.69,-543.53"/>
</g>
<!-- x28&#45;&gt;n13 -->
<g id="edge32" class="edge">
<title>x28:e&#45;&gt;n13:w</title>
<path fill="none" stroke="black" stroke-width="3" d="M1695.09,-539.75C1729.19,-539.75 1722.88,-493.95 1747.82,-483.57"/>
<polygon fill="black" stroke="black" stroke-width="3" points="1745.4,-487.58 1754.6,-482.32 1744.13,-480.7 1745.4,-487.58"/>
</g>
<!-- x29 -->
<g id="node56" class="node">
<title>x29</title>
<path fill="none" stroke="black" d="M3386.19,-169.5C3386.19,-169.5 3468.94,-169.5 3468.94,-169.5 3474.94,-169.5 3480.94,-175.5 3480.94,-181.5 3480.94,-181.5 3480.94,-193.5 3480.94,-193.5 3480.94,-199.5 3474.94,-205.5 3468.94,-205.5 3468.94,-205.5 3386.19,-205.5 3386.19,-205.5 3380.19,-205.5 3374.19,-199.5 3374.19,-193.5 3374.19,-193.5 3374.19,-181.5 3374.19,-181.5 3374.19,-175.5 3380.19,-169.5 3386.19,-169.5"/>
<text text-anchor="middle" x="3427.57" y="-182.7" font-family="Times,serif" font-size="14.00">26x 31:31 &#45; 25:0</text>
</g>
<!-- x30 -->
<g id="node57" class="node">
<title>x30</title>
<path fill="none" stroke="black" d="M3590.92,-193.5C3590.92,-193.5 3642.92,-193.5 3642.92,-193.5 3648.92,-193.5 3654.92,-199.5 3654.92,-205.5 3654.92,-205.5 3654.92,-217.5 3654.92,-217.5 3654.92,-223.5 3648.92,-229.5 3642.92,-229.5 3642.92,-229.5 3590.92,-229.5 3590.92,-229.5 3584.92,-229.5 3578.92,-223.5 3578.92,-217.5 3578.92,-217.5 3578.92,-205.5 3578.92,-205.5 3578.92,-199.5 3584.92,-193.5 3590.92,-193.5"/>
<text text-anchor="middle" x="3616.92" y="-206.7" font-family="Times,serif" font-size="14.00">25:0 &#45; 30:5</text>
</g>
<!-- x29&#45;&gt;x30 -->
<g id="edge24" class="edge">
<title>x29:e&#45;&gt;x30:w</title>
<path fill="none" stroke="black" stroke-width="3" d="M3493.87,-188.24C3523.53,-191.82 3535.37,-207.21 3565.07,-210.76"/>
<polygon fill="none" stroke="black" stroke-width="3" points="3495.62,-188.35 3489.4,-191.99 3483.64,-187.66 3489.86,-184.01 3495.62,-188.35"/>
<polygon fill="none" stroke="black" stroke-width="3" points="3563.24,-210.66 3569.46,-207.01 3575.22,-211.35 3569,-215 3563.24,-210.66"/>
</g>
<!-- x30&#45;&gt;n15 -->
<g id="edge37" class="edge">
<title>x30:e&#45;&gt;n15:w</title>
<path fill="none" stroke="black" stroke-width="3" d="M3655.92,-211.75C3664.04,-211.75 3660.71,-224.3 3654.92,-230 3604.72,-279.41 3408.62,-240.93 3338.19,-242.3 3338.08,-242.3 3337.97,-242.31 3337.87,-242.32"/>
<polygon fill="black" stroke="black" stroke-width="3" points="3347.95,-242.42 3337.36,-242.12 3345.45,-248.96 3347.95,-242.42"/>
</g>
<!-- n12&#45;&gt;x17 -->
<g id="edge30" class="edge">
<title>n12:e&#45;&gt;x17:w</title>
<path fill="none" stroke="black" stroke-width="3" d="M552.12,-209.5C576.33,-209.5 585.08,-209.68 604.7,-209.74"/>
<polygon fill="black" stroke="black" stroke-width="3" points="601.55,-213.23 611.55,-209.74 601.55,-206.23 601.55,-213.23"/>
</g>
<!-- n13&#45;&gt;x1 -->
<g id="edge33" class="edge">
<title>n13:e&#45;&gt;x1:w</title>
<path fill="none" stroke="black" stroke-width="3" d="M1765.62,-481.5C1789.83,-481.5 1798.58,-481.68 1818.2,-481.74"/>
<polygon fill="black" stroke="black" stroke-width="3" points="1815.05,-485.23 1825.05,-481.74 1815.06,-478.23 1815.05,-485.23"/>
</g>
<!-- n15&#45;&gt;x9 -->
<g id="edge39" class="edge">
<title>n15:e&#45;&gt;x9:w</title>
<path fill="none" stroke="black" stroke-width="3" d="M3338.19,-240.5C3355.74,-240.5 3354.17,-262.14 3363.64,-271.26"/>
<polygon fill="black" stroke="black" stroke-width="3" points="3359.35,-273.38 3369.95,-273.64 3361.83,-266.84 3359.35,-273.38"/>
</g>
<!-- n15&#45;&gt;x9 -->
<g id="edge40" class="edge">
<title>n15:e&#45;&gt;x9:w</title>
<path fill="none" stroke="black" stroke-width="3" d="M3338.19,-240.5C3364.19,-240.5 3350.01,-282.68 3363.45,-295.86"/>
<polygon fill="black" stroke="black" stroke-width="3" points="3359.33,-298.09 3369.92,-298.2 3361.71,-291.51 3359.33,-298.09"/>
</g>
<!-- n15&#45;&gt;x29 -->
<g id="edge38" class="edge">
<title>n15:e&#45;&gt;x29:w</title>
<path fill="none" stroke="black" stroke-width="3" d="M3338.19,-240.5C3361.92,-240.5 3351.3,-203.64 3363.76,-191.54"/>
<polygon fill="black" stroke="black" stroke-width="3" points="3361.72,-196.01 3369.93,-189.3 3359.33,-189.43 3361.72,-196.01"/>
</g>
<!-- n3&#45;&gt;x11 -->
<g id="edge75" class="edge">
<title>n3:e&#45;&gt;x11:w</title>
<path fill="none" stroke="black" stroke-width="3" d="M4156.59,-203.5C4178.1,-203.5 4170.9,-172.04 4182.09,-160.74"/>
<polygon fill="black" stroke="black" stroke-width="3" points="4180.24,-165.18 4188.35,-158.36 4177.75,-158.64 4180.24,-165.18"/>
</g>
<!-- n3&#45;&gt;x16 -->
<g id="edge76" class="edge">
<title>n3:e&#45;&gt;x16:w</title>
<path fill="none" stroke="black" stroke-width="3" d="M4156.59,-203.5C4263.94,-203.5 4291.3,-198.15 4396.84,-178.5 4408.55,-176.32 4413.46,-172.24 4421.45,-170.11"/>
<polygon fill="black" stroke="black" stroke-width="3" points="4418.82,-173.95 4428.33,-169.29 4417.99,-167 4418.82,-173.95"/>
</g>
<!-- n8&#45;&gt;x3 -->
<g id="edge83" class="edge">
<title>n8:e&#45;&gt;x3:w</title>
<path fill="none" stroke="black" stroke-width="3" d="M3875.24,-387.5C3886.66,-387.5 3891.92,-385.86 3899.78,-384.91"/>
<polygon fill="black" stroke="black" stroke-width="3" points="3896.92,-388.58 3906.71,-384.51 3896.52,-381.59 3896.92,-388.58"/>
</g>
</g>
</svg>
