<?xml version="1.0" encoding="UTF-8" standalone="no"?>
<!DOCTYPE svg PUBLIC "-//W3C//DTD SVG 1.1//EN"
 "http://www.w3.org/Graphics/SVG/1.1/DTD/svg11.dtd">
<!-- Generated by graphviz version 12.2.1 (20241206.2353)
 -->
<!-- Title: top Pages: 1 -->
<svg width="2592pt" height="507pt"
 viewBox="0.00 0.00 2591.66 507.00" xmlns="http://www.w3.org/2000/svg" xmlns:xlink="http://www.w3.org/1999/xlink">
<g id="graph0" class="graph" transform="scale(1 1) rotate(0) translate(4 503)">
<title>top</title>
<polygon fill="white" stroke="none" points="-4,4 -4,-503 2587.66,-503 2587.66,4 -4,4"/>
<text text-anchor="middle" x="1291.83" y="-7.2" font-family="Times,serif" font-size="14.00">top</text>
<!-- n6 -->
<g id="node1" class="node">
<title>n6</title>
<polygon fill="none" stroke="black" points="107.84,-208.54 107.84,-223.46 76.26,-234 31.59,-234 0,-223.46 0,-208.54 31.59,-198 76.26,-198 107.84,-208.54"/>
<text text-anchor="middle" x="53.92" y="-210.95" font-family="Times,serif" font-size="14.00">input_data</text>
</g>
<!-- x0 -->
<g id="node9" class="node">
<title>x0</title>
<path fill="none" stroke="black" d="M383.34,-122.5C383.34,-122.5 421.84,-122.5 421.84,-122.5 427.84,-122.5 433.84,-128.5 433.84,-134.5 433.84,-134.5 433.84,-159.5 433.84,-159.5 433.84,-165.5 427.84,-171.5 421.84,-171.5 421.84,-171.5 383.34,-171.5 383.34,-171.5 377.34,-171.5 371.34,-165.5 371.34,-159.5 371.34,-159.5 371.34,-134.5 371.34,-134.5 371.34,-128.5 377.34,-122.5 383.34,-122.5"/>
<text text-anchor="middle" x="402.59" y="-154.2" font-family="Times,serif" font-size="14.00">0:0 &#45; 2:2</text>
<polyline fill="none" stroke="black" points="371.34,-147 433.84,-147"/>
<text text-anchor="middle" x="402.59" y="-129.7" font-family="Times,serif" font-size="14.00">1:0 &#45; 1:0</text>
</g>
<!-- n6&#45;&gt;x0 -->
<g id="edge34" class="edge">
<title>n6:e&#45;&gt;x0:w</title>
<path fill="none" stroke="black" stroke-width="3" d="M107.84,-216C137.43,-216 118.69,-175.59 143.84,-160 227.01,-108.43 266.55,-132.71 359.98,-134.63"/>
<polygon fill="black" stroke="black" stroke-width="3" points="356.76,-138.1 366.8,-134.7 356.84,-131.1 356.76,-138.1"/>
</g>
<!-- x1 -->
<g id="node10" class="node">
<title>x1</title>
<path fill="none" stroke="black" d="M269.59,-70C269.59,-70 308.09,-70 308.09,-70 314.09,-70 320.09,-76 320.09,-82 320.09,-82 320.09,-94 320.09,-94 320.09,-100 314.09,-106 308.09,-106 308.09,-106 269.59,-106 269.59,-106 263.59,-106 257.59,-100 257.59,-94 257.59,-94 257.59,-82 257.59,-82 257.59,-76 263.59,-70 269.59,-70"/>
<text text-anchor="middle" x="288.84" y="-83.2" font-family="Times,serif" font-size="14.00">2:0 &#45; 2:0</text>
</g>
<!-- n6&#45;&gt;x1 -->
<g id="edge37" class="edge">
<title>n6:e&#45;&gt;x1:w</title>
<path fill="none" stroke="black" stroke-width="3" d="M107.84,-216C152.99,-216 110.67,-151.63 143.84,-121 179.26,-88.29 200.93,-88.07 245.17,-88.22"/>
<polygon fill="black" stroke="black" stroke-width="3" points="242.04,-91.71 252.05,-88.24 242.06,-84.71 242.04,-91.71"/>
</g>
<!-- x2 -->
<g id="node12" class="node">
<title>x2</title>
<path fill="none" stroke="black" d="M383.34,-25C383.34,-25 421.84,-25 421.84,-25 427.84,-25 433.84,-31 433.84,-37 433.84,-37 433.84,-49 433.84,-49 433.84,-55 427.84,-61 421.84,-61 421.84,-61 383.34,-61 383.34,-61 377.34,-61 371.34,-55 371.34,-49 371.34,-49 371.34,-37 371.34,-37 371.34,-31 377.34,-25 383.34,-25"/>
<text text-anchor="middle" x="402.59" y="-38.2" font-family="Times,serif" font-size="14.00">2:0 &#45; 2:0</text>
</g>
<!-- n6&#45;&gt;x2 -->
<g id="edge38" class="edge">
<title>n6:e&#45;&gt;x2:w</title>
<path fill="none" stroke="black" stroke-width="3" d="M107.84,-216C167.79,-216 100.99,-127.93 143.84,-86 214.64,-16.71 264.64,-41.22 360.1,-43.14"/>
<polygon fill="black" stroke="black" stroke-width="3" points="356.77,-46.6 366.8,-43.2 356.84,-39.6 356.77,-46.6"/>
</g>
<!-- x3 -->
<g id="node14" class="node">
<title>x3</title>
<path fill="none" stroke="black" d="M902.72,-318C902.72,-318 941.22,-318 941.22,-318 947.22,-318 953.22,-324 953.22,-330 953.22,-330 953.22,-342 953.22,-342 953.22,-348 947.22,-354 941.22,-354 941.22,-354 902.72,-354 902.72,-354 896.72,-354 890.72,-348 890.72,-342 890.72,-342 890.72,-330 890.72,-330 890.72,-324 896.72,-318 902.72,-318"/>
<text text-anchor="middle" x="921.97" y="-331.2" font-family="Times,serif" font-size="14.00">0:0 &#45; 0:0</text>
</g>
<!-- n6&#45;&gt;x3 -->
<g id="edge39" class="edge">
<title>n6:e&#45;&gt;x3:w</title>
<path fill="none" stroke="black" d="M107.84,-216C149.69,-216 111.09,-276.95 143.84,-303 194.62,-343.38 222.96,-327 287.84,-327 287.84,-327 287.84,-327 647.47,-327 751.32,-327 779.93,-335.59 878.35,-336.21"/>
<polygon fill="black" stroke="black" points="878.19,-339.71 888.2,-336.25 878.21,-332.71 878.19,-339.71"/>
</g>
<!-- x8 -->
<g id="node23" class="node">
<title>x8</title>
<path fill="none" stroke="black" d="M155.84,-169C155.84,-169 194.34,-169 194.34,-169 200.34,-169 206.34,-175 206.34,-181 206.34,-181 206.34,-193 206.34,-193 206.34,-199 200.34,-205 194.34,-205 194.34,-205 155.84,-205 155.84,-205 149.84,-205 143.84,-199 143.84,-193 143.84,-193 143.84,-181 143.84,-181 143.84,-175 149.84,-169 155.84,-169"/>
<text text-anchor="middle" x="175.09" y="-182.2" font-family="Times,serif" font-size="14.00">2:2 &#45; 0:0</text>
</g>
<!-- n6&#45;&gt;x8 -->
<g id="edge40" class="edge">
<title>n6:e&#45;&gt;x8:w</title>
<path fill="none" stroke="black" d="M107.84,-216C123.68,-216 124.3,-198.8 133.25,-191.01"/>
<polygon fill="black" stroke="black" points="134.16,-194.4 142.41,-187.76 131.82,-187.8 134.16,-194.4"/>
</g>
<!-- c24 -->
<g id="node26" class="node">
<title>c24</title>
<polygon fill="none" stroke="black" points="1558.84,-293.5 1558.84,-342.5 1654.84,-342.5 1654.84,-293.5 1558.84,-293.5"/>
<text text-anchor="middle" x="1571.72" y="-325.2" font-family="Times,serif" font-size="14.00">A</text>
<polyline fill="none" stroke="black" points="1558.84,-318 1584.59,-318"/>
<text text-anchor="middle" x="1571.72" y="-300.7" font-family="Times,serif" font-size="14.00">B</text>
<polyline fill="none" stroke="black" points="1584.59,-293.5 1584.59,-342.5"/>
<text text-anchor="middle" x="1606.84" y="-321.2" font-family="Times,serif" font-size="14.00">$8</text>
<text text-anchor="middle" x="1606.84" y="-304.7" font-family="Times,serif" font-size="14.00">$mul</text>
<polyline fill="none" stroke="black" points="1629.09,-293.5 1629.09,-342.5"/>
<text text-anchor="middle" x="1641.97" y="-313.2" font-family="Times,serif" font-size="14.00">Y</text>
</g>
<!-- n6&#45;&gt;c24 -->
<g id="edge33" class="edge">
<title>n6:e&#45;&gt;c24:w</title>
<path fill="none" stroke="black" stroke-width="3" d="M107.84,-216C127.58,-216 126.25,-233.05 143.84,-242 203.85,-272.52 220.52,-289 287.84,-289 287.84,-289 287.84,-289 1330.47,-289 1428.36,-289 1455.07,-304.5 1547.54,-305.68"/>
<polygon fill="black" stroke="black" stroke-width="3" points="1544.28,-309.16 1554.3,-305.72 1544.33,-302.16 1544.28,-309.16"/>
</g>
<!-- x10 -->
<g id="node29" class="node">
<title>x10</title>
<path fill="none" stroke="black" d="M155.84,-410C155.84,-410 194.34,-410 194.34,-410 200.34,-410 206.34,-416 206.34,-422 206.34,-422 206.34,-434 206.34,-434 206.34,-440 200.34,-446 194.34,-446 194.34,-446 155.84,-446 155.84,-446 149.84,-446 143.84,-440 143.84,-434 143.84,-434 143.84,-422 143.84,-422 143.84,-416 149.84,-410 155.84,-410"/>
<text text-anchor="middle" x="175.09" y="-423.2" font-family="Times,serif" font-size="14.00">0:0 &#45; 0:0</text>
</g>
<!-- n6&#45;&gt;x10 -->
<g id="edge35" class="edge">
<title>n6:e&#45;&gt;x10:w</title>
<path fill="none" stroke="black" d="M107.84,-216C199.22,-216 61.61,-409.61 132.42,-427"/>
<polygon fill="black" stroke="black" points="132.02,-430.48 142.34,-428.09 132.78,-423.52 132.02,-430.48"/>
</g>
<!-- x13 -->
<g id="node32" class="node">
<title>x13</title>
<path fill="none" stroke="black" d="M269.59,-224C269.59,-224 308.09,-224 308.09,-224 314.09,-224 320.09,-230 320.09,-236 320.09,-236 320.09,-248 320.09,-248 320.09,-254 314.09,-260 308.09,-260 308.09,-260 269.59,-260 269.59,-260 263.59,-260 257.59,-254 257.59,-248 257.59,-248 257.59,-236 257.59,-236 257.59,-230 263.59,-224 269.59,-224"/>
<text text-anchor="middle" x="288.84" y="-237.2" font-family="Times,serif" font-size="14.00">2:0 &#45; 2:0</text>
</g>
<!-- n6&#45;&gt;x13 -->
<g id="edge36" class="edge">
<title>n6:e&#45;&gt;x13:w</title>
<path fill="none" stroke="black" stroke-width="3" d="M107.84,-216C171.04,-216 187.58,-239.26 245.31,-241.99"/>
<polygon fill="black" stroke="black" stroke-width="3" points="241.97,-245.41 252.05,-242.15 242.13,-238.42 241.97,-245.41"/>
</g>
<!-- n7 -->
<g id="node2" class="node">
<title>n7</title>
<polygon fill="none" stroke="black" points="2583.66,-262.54 2583.66,-277.46 2549.15,-288 2500.35,-288 2465.85,-277.46 2465.85,-262.54 2500.35,-252 2549.15,-252 2583.66,-262.54"/>
<text text-anchor="middle" x="2524.75" y="-264.95" font-family="Times,serif" font-size="14.00">output_data</text>
</g>
<!-- n8 -->
<g id="node3" class="node">
<title>n8</title>
<polygon fill="none" stroke="black" points="784.59,-172 729.34,-154 784.59,-136 839.84,-154 784.59,-172"/>
<text text-anchor="middle" x="784.59" y="-148.95" font-family="Times,serif" font-size="14.00">temp_0</text>
</g>
<!-- c26 -->
<g id="node31" class="node">
<title>c26</title>
<polygon fill="none" stroke="black" points="875.84,-205.5 875.84,-254.5 968.09,-254.5 968.09,-205.5 875.84,-205.5"/>
<text text-anchor="middle" x="888.72" y="-237.2" font-family="Times,serif" font-size="14.00">A</text>
<polyline fill="none" stroke="black" points="875.84,-230 901.59,-230"/>
<text text-anchor="middle" x="888.72" y="-212.7" font-family="Times,serif" font-size="14.00">B</text>
<polyline fill="none" stroke="black" points="901.59,-205.5 901.59,-254.5"/>
<text text-anchor="middle" x="921.97" y="-233.2" font-family="Times,serif" font-size="14.00">$4</text>
<text text-anchor="middle" x="921.97" y="-216.7" font-family="Times,serif" font-size="14.00">$xor</text>
<polyline fill="none" stroke="black" points="942.34,-205.5 942.34,-254.5"/>
<text text-anchor="middle" x="955.22" y="-225.2" font-family="Times,serif" font-size="14.00">Y</text>
</g>
<!-- n8&#45;&gt;c26 -->
<g id="edge44" class="edge">
<title>n8:e&#45;&gt;c26:w</title>
<path fill="none" stroke="black" stroke-width="3" d="M839.84,-154C867.55,-154 850.58,-200.23 865.02,-213.95"/>
<polygon fill="black" stroke="black" stroke-width="3" points="860.96,-216.24 871.56,-216.25 863.28,-209.63 860.96,-216.24"/>
</g>
<!-- n9 -->
<g id="node4" class="node">
<title>n9</title>
<polygon fill="none" stroke="black" points="1059.34,-253 1004.09,-235 1059.34,-217 1114.59,-235 1059.34,-253"/>
<text text-anchor="middle" x="1059.34" y="-229.95" font-family="Times,serif" font-size="14.00">temp_1</text>
</g>
<!-- c20 -->
<g id="node17" class="node">
<title>c20</title>
<polygon fill="none" stroke="black" points="1152.84,-217.5 1152.84,-258.5 1244.34,-258.5 1244.34,-217.5 1152.84,-217.5"/>
<text text-anchor="middle" x="1165.72" y="-233.2" font-family="Times,serif" font-size="14.00">A</text>
<polyline fill="none" stroke="black" points="1178.59,-217.5 1178.59,-258.5"/>
<text text-anchor="middle" x="1198.59" y="-241.2" font-family="Times,serif" font-size="14.00">$43</text>
<text text-anchor="middle" x="1198.59" y="-224.7" font-family="Times,serif" font-size="14.00">$not</text>
<polyline fill="none" stroke="black" points="1218.59,-217.5 1218.59,-258.5"/>
<text text-anchor="middle" x="1231.47" y="-233.2" font-family="Times,serif" font-size="14.00">Y</text>
</g>
<!-- n9&#45;&gt;c20 -->
<g id="edge46" class="edge">
<title>n9:e&#45;&gt;c20:w</title>
<path fill="none" stroke="black" stroke-width="3" d="M1114.59,-235C1126.67,-235 1132.09,-236.72 1140.52,-237.65"/>
<polygon fill="black" stroke="black" stroke-width="3" points="1137.14,-240.98 1147.31,-238.01 1137.51,-233.99 1137.14,-240.98"/>
</g>
<!-- x5 -->
<g id="node19" class="node">
<title>x5</title>
<path fill="none" stroke="black" d="M1448.34,-171C1448.34,-171 1486.84,-171 1486.84,-171 1492.84,-171 1498.84,-177 1498.84,-183 1498.84,-183 1498.84,-195 1498.84,-195 1498.84,-201 1492.84,-207 1486.84,-207 1486.84,-207 1448.34,-207 1448.34,-207 1442.34,-207 1436.34,-201 1436.34,-195 1436.34,-195 1436.34,-183 1436.34,-183 1436.34,-177 1442.34,-171 1448.34,-171"/>
<text text-anchor="middle" x="1467.59" y="-184.2" font-family="Times,serif" font-size="14.00">2:1 &#45; 1:0</text>
</g>
<!-- n9&#45;&gt;x5 -->
<g id="edge48" class="edge">
<title>n9:e&#45;&gt;x5:w</title>
<path fill="none" stroke="black" stroke-width="3" d="M1114.59,-235C1134.59,-235 1131.84,-214.94 1150.59,-208 1265.93,-165.29 1306.08,-187.78 1424.06,-189.18"/>
<polygon fill="black" stroke="black" stroke-width="3" points="1420.78,-192.66 1430.8,-189.22 1420.82,-185.66 1420.78,-192.66"/>
</g>
<!-- c23 -->
<g id="node24" class="node">
<title>c23</title>
<polygon fill="none" stroke="black" points="1150.59,-361.5 1150.59,-410.5 1246.59,-410.5 1246.59,-361.5 1150.59,-361.5"/>
<text text-anchor="middle" x="1163.47" y="-393.2" font-family="Times,serif" font-size="14.00">A</text>
<polyline fill="none" stroke="black" points="1150.59,-386 1176.34,-386"/>
<text text-anchor="middle" x="1163.47" y="-368.7" font-family="Times,serif" font-size="14.00">B</text>
<polyline fill="none" stroke="black" points="1176.34,-361.5 1176.34,-410.5"/>
<text text-anchor="middle" x="1198.59" y="-389.2" font-family="Times,serif" font-size="14.00">$6</text>
<text text-anchor="middle" x="1198.59" y="-372.7" font-family="Times,serif" font-size="14.00">$mul</text>
<polyline fill="none" stroke="black" points="1220.84,-361.5 1220.84,-410.5"/>
<text text-anchor="middle" x="1233.72" y="-381.2" font-family="Times,serif" font-size="14.00">Y</text>
</g>
<!-- n9&#45;&gt;c23 -->
<g id="edge47" class="edge">
<title>n9:e&#45;&gt;c23:w</title>
<path fill="none" stroke="black" stroke-width="3" d="M1114.59,-235C1173.82,-235 1098.97,-354.92 1139.35,-371.79"/>
<polygon fill="black" stroke="black" stroke-width="3" points="1135.67,-374.7 1146.12,-372.97 1136.87,-367.8 1135.67,-374.7"/>
</g>
<!-- n10 -->
<g id="node5" class="node">
<title>n10</title>
<polygon fill="none" stroke="black" points="1467.59,-358 1412.34,-340 1467.59,-322 1522.84,-340 1467.59,-358"/>
<text text-anchor="middle" x="1467.59" y="-334.95" font-family="Times,serif" font-size="14.00">temp_2</text>
</g>
<!-- n10&#45;&gt;c24 -->
<g id="edge18" class="edge">
<title>n10:e&#45;&gt;c24:w</title>
<path fill="none" stroke="black" d="M1522.84,-340C1534.76,-340 1539.58,-334.96 1547.5,-332.13"/>
<polygon fill="black" stroke="black" points="1548.06,-335.59 1557.35,-330.5 1546.91,-328.68 1548.06,-335.59"/>
</g>
<!-- n11 -->
<g id="node6" class="node">
<title>n11</title>
<polygon fill="none" stroke="black" points="1746.09,-330 1690.84,-312 1746.09,-294 1801.35,-312 1746.09,-330"/>
<text text-anchor="middle" x="1746.09" y="-306.95" font-family="Times,serif" font-size="14.00">temp_4</text>
</g>
<!-- c19 -->
<g id="node15" class="node">
<title>c19</title>
<polygon fill="none" stroke="black" points="1837.35,-253.5 1837.35,-302.5 1931.1,-302.5 1931.1,-253.5 1837.35,-253.5"/>
<text text-anchor="middle" x="1850.22" y="-285.2" font-family="Times,serif" font-size="14.00">A</text>
<polyline fill="none" stroke="black" points="1837.35,-278 1863.1,-278"/>
<text text-anchor="middle" x="1850.22" y="-260.7" font-family="Times,serif" font-size="14.00">B</text>
<polyline fill="none" stroke="black" points="1863.1,-253.5 1863.1,-302.5"/>
<text text-anchor="middle" x="1884.22" y="-281.2" font-family="Times,serif" font-size="14.00">$14</text>
<text text-anchor="middle" x="1884.22" y="-264.7" font-family="Times,serif" font-size="14.00">$add</text>
<polyline fill="none" stroke="black" points="1905.35,-253.5 1905.35,-302.5"/>
<text text-anchor="middle" x="1918.22" y="-273.2" font-family="Times,serif" font-size="14.00">Y</text>
</g>
<!-- n11&#45;&gt;c19 -->
<g id="edge20" class="edge">
<title>n11:e&#45;&gt;c19:w</title>
<path fill="none" stroke="black" stroke-width="3" d="M1801.35,-312C1815.37,-312 1818.09,-299.77 1826.46,-293.65"/>
<polygon fill="black" stroke="black" stroke-width="3" points="1824.51,-297.93 1833.01,-291.6 1822.42,-291.24 1824.51,-297.93"/>
</g>
<!-- n12 -->
<g id="node7" class="node">
<title>n12</title>
<polygon fill="none" stroke="black" points="2022.35,-296 1967.1,-278 2022.35,-260 2077.6,-278 2022.35,-296"/>
<text text-anchor="middle" x="2022.35" y="-272.95" font-family="Times,serif" font-size="14.00">temp_6</text>
</g>
<!-- x6 -->
<g id="node20" class="node">
<title>x6</title>
<path fill="none" stroke="black" d="M2132.35,-218C2132.35,-218 2170.85,-218 2170.85,-218 2176.85,-218 2182.85,-224 2182.85,-230 2182.85,-230 2182.85,-242 2182.85,-242 2182.85,-248 2176.85,-254 2170.85,-254 2170.85,-254 2132.35,-254 2132.35,-254 2126.35,-254 2120.35,-248 2120.35,-242 2120.35,-242 2120.35,-230 2120.35,-230 2120.35,-224 2126.35,-218 2132.35,-218"/>
<text text-anchor="middle" x="2151.6" y="-231.2" font-family="Times,serif" font-size="14.00">1:0 &#45; 1:0</text>
</g>
<!-- n12&#45;&gt;x6 -->
<g id="edge23" class="edge">
<title>n12:e&#45;&gt;x6:w</title>
<path fill="none" stroke="black" stroke-width="3" d="M2077.6,-278C2099.33,-278 2095.7,-249.37 2108.72,-239.53"/>
<polygon fill="black" stroke="black" stroke-width="3" points="2106.48,-243.88 2115.01,-237.59 2104.42,-237.19 2106.48,-243.88"/>
</g>
<!-- x16 -->
<g id="node35" class="node">
<title>x16</title>
<path fill="none" stroke="black" d="M2125.6,-273.5C2125.6,-273.5 2177.6,-273.5 2177.6,-273.5 2183.6,-273.5 2189.6,-279.5 2189.6,-285.5 2189.6,-285.5 2189.6,-310.5 2189.6,-310.5 2189.6,-316.5 2183.6,-322.5 2177.6,-322.5 2177.6,-322.5 2125.6,-322.5 2125.6,-322.5 2119.6,-322.5 2113.6,-316.5 2113.6,-310.5 2113.6,-310.5 2113.6,-285.5 2113.6,-285.5 2113.6,-279.5 2119.6,-273.5 2125.6,-273.5"/>
<text text-anchor="middle" x="2151.6" y="-305.2" font-family="Times,serif" font-size="14.00">0 &#45;&gt; 29:19</text>
<polyline fill="none" stroke="black" points="2113.6,-298 2189.6,-298"/>
<text text-anchor="middle" x="2151.6" y="-280.7" font-family="Times,serif" font-size="14.00">20:2 &#45; 18:0</text>
</g>
<!-- n12&#45;&gt;x16 -->
<g id="edge22" class="edge">
<title>n12:e&#45;&gt;x16:w</title>
<path fill="none" stroke="black" stroke-width="3" d="M2077.6,-278C2089.36,-278 2094.36,-282 2102.31,-284.26"/>
<polygon fill="black" stroke="black" stroke-width="3" points="2098.72,-287.31 2109.09,-285.15 2099.64,-280.37 2098.72,-287.31"/>
</g>
<!-- c16 -->
<g id="node8" class="node">
<title>c16</title>
<polygon fill="none" stroke="black" points="469.84,-99.5 469.84,-148.5 563.59,-148.5 563.59,-99.5 469.84,-99.5"/>
<text text-anchor="middle" x="482.72" y="-131.2" font-family="Times,serif" font-size="14.00">A</text>
<polyline fill="none" stroke="black" points="469.84,-124 495.59,-124"/>
<text text-anchor="middle" x="482.72" y="-106.7" font-family="Times,serif" font-size="14.00">B</text>
<polyline fill="none" stroke="black" points="495.59,-99.5 495.59,-148.5"/>
<text text-anchor="middle" x="516.72" y="-127.2" font-family="Times,serif" font-size="14.00">$2</text>
<text text-anchor="middle" x="516.72" y="-110.7" font-family="Times,serif" font-size="14.00">$add</text>
<polyline fill="none" stroke="black" points="537.84,-99.5 537.84,-148.5"/>
<text text-anchor="middle" x="550.72" y="-119.2" font-family="Times,serif" font-size="14.00">Y</text>
</g>
<!-- c17 -->
<g id="node11" class="node">
<title>c17</title>
<polygon fill="none" stroke="black" points="599.59,-87.5 599.59,-136.5 693.34,-136.5 693.34,-87.5 599.59,-87.5"/>
<text text-anchor="middle" x="612.47" y="-119.2" font-family="Times,serif" font-size="14.00">A</text>
<polyline fill="none" stroke="black" points="599.59,-112 625.34,-112"/>
<text text-anchor="middle" x="612.47" y="-94.7" font-family="Times,serif" font-size="14.00">B</text>
<polyline fill="none" stroke="black" points="625.34,-87.5 625.34,-136.5"/>
<text text-anchor="middle" x="646.47" y="-115.2" font-family="Times,serif" font-size="14.00">$3</text>
<text text-anchor="middle" x="646.47" y="-98.7" font-family="Times,serif" font-size="14.00">$add</text>
<polyline fill="none" stroke="black" points="667.59,-87.5 667.59,-136.5"/>
<text text-anchor="middle" x="680.47" y="-107.2" font-family="Times,serif" font-size="14.00">Y</text>
</g>
<!-- c16&#45;&gt;c17 -->
<g id="edge16" class="edge">
<title>c16:e&#45;&gt;c17:w</title>
<path fill="none" stroke="black" stroke-width="3" d="M563.59,-124.25C574.97,-124.25 580.28,-124.25 588.14,-124.25"/>
<polygon fill="black" stroke="black" stroke-width="3" points="585.05,-127.75 595.05,-124.25 585.05,-120.75 585.05,-127.75"/>
</g>
<!-- x0&#45;&gt;c16 -->
<g id="edge1" class="edge">
<title>x0:e&#45;&gt;c16:w</title>
<path fill="none" stroke="black" stroke-width="3" d="M446.23,-144.51C450.11,-142.82 453.29,-140.59 457.15,-138.88"/>
<polygon fill="none" stroke="black" stroke-width="3" points="448.26,-144.1 443.16,-149.2 436.49,-146.47 441.58,-141.36 448.26,-144.1"/>
<polygon fill="none" stroke="black" stroke-width="3" points="455.44,-139.23 460.51,-134.1 467.19,-136.8 462.13,-141.93 455.44,-139.23"/>
</g>
<!-- x1&#45;&gt;c16 -->
<g id="edge2" class="edge">
<title>x1:e&#45;&gt;c16:w</title>
<path fill="none" stroke="black" stroke-width="3" d="M334.12,-88.32C386.25,-90.93 404.79,-108.86 457,-111.44"/>
<polygon fill="none" stroke="black" stroke-width="3" points="335.79,-88.36 329.69,-92.21 323.79,-88.07 329.89,-84.21 335.79,-88.36"/>
<polygon fill="none" stroke="black" stroke-width="3" points="455.14,-111.4 461.24,-107.54 467.14,-111.69 461.04,-115.54 455.14,-111.4"/>
</g>
<!-- c17&#45;&gt;n8 -->
<g id="edge43" class="edge">
<title>c17:e&#45;&gt;n8:w</title>
<path fill="none" stroke="black" stroke-width="3" d="M693.34,-112.25C713.06,-112.25 708.49,-139.28 718.72,-149.84"/>
<polygon fill="black" stroke="black" stroke-width="3" points="714.52,-151.96 725.11,-152.35 717.07,-145.44 714.52,-151.96"/>
</g>
<!-- x2&#45;&gt;c17 -->
<g id="edge3" class="edge">
<title>x2:e&#45;&gt;c17:w</title>
<path fill="none" stroke="black" stroke-width="3" d="M446.52,-45.66C479,-55.22 554.89,-87.72 587.16,-97.16"/>
<polygon fill="none" stroke="black" stroke-width="3" points="448.23,-46.02 441.54,-48.7 436.49,-43.56 443.18,-40.87 448.23,-46.02"/>
<polygon fill="none" stroke="black" stroke-width="3" points="585.2,-96.75 591.89,-94.06 596.94,-99.2 590.25,-101.89 585.2,-96.75"/>
</g>
<!-- c18 -->
<g id="node13" class="node">
<title>c18</title>
<polygon fill="none" stroke="black" points="1282.59,-320.5 1282.59,-369.5 1376.34,-369.5 1376.34,-320.5 1282.59,-320.5"/>
<text text-anchor="middle" x="1295.47" y="-352.2" font-family="Times,serif" font-size="14.00">A</text>
<polyline fill="none" stroke="black" points="1282.59,-345 1308.34,-345"/>
<text text-anchor="middle" x="1295.47" y="-327.7" font-family="Times,serif" font-size="14.00">B</text>
<polyline fill="none" stroke="black" points="1308.34,-320.5 1308.34,-369.5"/>
<text text-anchor="middle" x="1329.47" y="-348.2" font-family="Times,serif" font-size="14.00">$7</text>
<text text-anchor="middle" x="1329.47" y="-331.7" font-family="Times,serif" font-size="14.00">$add</text>
<polyline fill="none" stroke="black" points="1350.59,-320.5 1350.59,-369.5"/>
<text text-anchor="middle" x="1363.47" y="-340.2" font-family="Times,serif" font-size="14.00">Y</text>
</g>
<!-- c18&#45;&gt;n10 -->
<g id="edge17" class="edge">
<title>c18:e&#45;&gt;n10:w</title>
<path fill="none" stroke="black" d="M1376.34,-345.25C1387.96,-345.25 1393.12,-342.54 1401.11,-341.01"/>
<polygon fill="black" stroke="black" points="1401.19,-344.52 1410.84,-340.14 1400.56,-337.55 1401.19,-344.52"/>
</g>
<!-- x3&#45;&gt;c18 -->
<g id="edge4" class="edge">
<title>x3:e&#45;&gt;c18:w</title>
<path fill="none" stroke="black" d="M967.18,-335.99C1098.25,-335.81 1138.55,-332.94 1269.62,-332.76"/>
<polygon fill="none" stroke="black" points="967.12,-335.99 961.12,-340 955.12,-336 961.12,-332 967.12,-335.99"/>
<polygon fill="none" stroke="black" points="1269.69,-332.76 1275.69,-328.75 1281.69,-332.75 1275.69,-336.75 1269.69,-332.76"/>
</g>
<!-- c19&#45;&gt;n12 -->
<g id="edge21" class="edge">
<title>c19:e&#45;&gt;n12:w</title>
<path fill="none" stroke="black" stroke-width="3" d="M1931.1,-278.25C1942.47,-278.25 1947.78,-278.12 1955.65,-278.05"/>
<polygon fill="black" stroke="black" stroke-width="3" points="1952.57,-281.56 1962.55,-278.02 1952.54,-274.56 1952.57,-281.56"/>
</g>
<!-- x4 -->
<g id="node16" class="node">
<title>x4</title>
<path fill="none" stroke="black" d="M1585.34,-225.5C1585.34,-225.5 1628.34,-225.5 1628.34,-225.5 1634.34,-225.5 1640.34,-231.5 1640.34,-237.5 1640.34,-237.5 1640.34,-262.5 1640.34,-262.5 1640.34,-268.5 1634.34,-274.5 1628.34,-274.5 1628.34,-274.5 1585.34,-274.5 1585.34,-274.5 1579.34,-274.5 1573.34,-268.5 1573.34,-262.5 1573.34,-262.5 1573.34,-237.5 1573.34,-237.5 1573.34,-231.5 1579.34,-225.5 1585.34,-225.5"/>
<text text-anchor="middle" x="1606.84" y="-257.2" font-family="Times,serif" font-size="14.00">1 &#45;&gt; 20:3</text>
<polyline fill="none" stroke="black" points="1573.34,-250 1640.34,-250"/>
<text text-anchor="middle" x="1606.84" y="-232.7" font-family="Times,serif" font-size="14.00">2:0 &#45; 2:0</text>
</g>
<!-- x4&#45;&gt;c19 -->
<g id="edge5" class="edge">
<title>x4:e&#45;&gt;c19:w</title>
<path fill="none" stroke="black" stroke-width="3" d="M1654.16,-250.12C1727.01,-251.48 1751.78,-264.29 1824.7,-265.64"/>
<polygon fill="none" stroke="black" stroke-width="3" points="1656.05,-250.14 1650.01,-254.08 1644.05,-250.02 1650.08,-246.08 1656.05,-250.14"/>
<polygon fill="none" stroke="black" stroke-width="3" points="1822.64,-265.62 1828.68,-261.67 1834.64,-265.73 1828.61,-269.67 1822.64,-265.62"/>
</g>
<!-- c20&#45;&gt;x4 -->
<g id="edge24" class="edge">
<title>c20:e&#45;&gt;x4:w</title>
<path fill="none" stroke="black" stroke-width="3" d="M1245.34,-238.25C1386.84,-238.25 1425.02,-237.78 1561.07,-237.75"/>
<polygon fill="black" stroke="black" stroke-width="3" points="1557.8,-241.25 1567.8,-237.75 1557.8,-234.25 1557.8,-241.25"/>
</g>
<!-- c21 -->
<g id="node18" class="node">
<title>c21</title>
<polygon fill="none" stroke="black" points="2225.6,-218.5 2225.6,-267.5 2317.85,-267.5 2317.85,-218.5 2225.6,-218.5"/>
<text text-anchor="middle" x="2238.47" y="-250.2" font-family="Times,serif" font-size="14.00">A</text>
<polyline fill="none" stroke="black" points="2225.6,-243 2251.35,-243"/>
<text text-anchor="middle" x="2238.47" y="-225.7" font-family="Times,serif" font-size="14.00">B</text>
<polyline fill="none" stroke="black" points="2251.35,-218.5 2251.35,-267.5"/>
<text text-anchor="middle" x="2271.72" y="-246.2" font-family="Times,serif" font-size="14.00">$47</text>
<text text-anchor="middle" x="2271.72" y="-229.7" font-family="Times,serif" font-size="14.00">$xor</text>
<polyline fill="none" stroke="black" points="2292.1,-218.5 2292.1,-267.5"/>
<text text-anchor="middle" x="2304.97" y="-238.2" font-family="Times,serif" font-size="14.00">Y</text>
</g>
<!-- x7 -->
<g id="node21" class="node">
<title>x7</title>
<path fill="none" stroke="black" d="M2372.6,-225C2372.6,-225 2411.1,-225 2411.1,-225 2417.1,-225 2423.1,-231 2423.1,-237 2423.1,-237 2423.1,-249 2423.1,-249 2423.1,-255 2417.1,-261 2411.1,-261 2411.1,-261 2372.6,-261 2372.6,-261 2366.6,-261 2360.6,-255 2360.6,-249 2360.6,-249 2360.6,-237 2360.6,-237 2360.6,-231 2366.6,-225 2372.6,-225"/>
<text text-anchor="middle" x="2391.85" y="-238.2" font-family="Times,serif" font-size="14.00">1:0 &#45; 1:0</text>
</g>
<!-- c21&#45;&gt;x7 -->
<g id="edge8" class="edge">
<title>c21:e&#45;&gt;x7:w</title>
<path fill="none" stroke="black" stroke-width="3" d="M2330.82,-243.2C2336.48,-243.16 2340.98,-243.09 2346.64,-243.05"/>
<polygon fill="none" stroke="black" stroke-width="3" points="2332.55,-243.2 2326.57,-247.22 2320.55,-243.24 2326.54,-239.22 2332.55,-243.2"/>
<polygon fill="none" stroke="black" stroke-width="3" points="2344.89,-243.05 2350.88,-239.03 2356.89,-243.01 2350.91,-247.03 2344.89,-243.05"/>
</g>
<!-- x5&#45;&gt;c21 -->
<g id="edge6" class="edge">
<title>x5:e&#45;&gt;c21:w</title>
<path fill="none" stroke="black" stroke-width="3" d="M1512.85,-189C1611.22,-189 1640.56,-189 1745.09,-189 1745.09,-189 1745.09,-189 2023.35,-189 2097.77,-189 2124.81,-172.37 2189.6,-209 2207.31,-219.02 2203.42,-241.61 2213.29,-251.02"/>
<polygon fill="none" stroke="black" stroke-width="3" points="1514.55,-189 1508.55,-193 1502.55,-189 1508.55,-185 1514.55,-189"/>
<polygon fill="none" stroke="black" stroke-width="3" points="2211.69,-250.47 2218.67,-248.64 2223.04,-254.37 2216.06,-256.2 2211.69,-250.47"/>
</g>
<!-- x6&#45;&gt;c21 -->
<g id="edge7" class="edge">
<title>x6:e&#45;&gt;c21:w</title>
<path fill="none" stroke="black" stroke-width="3" d="M2196.86,-234.99C2202.51,-234.06 2206.95,-232.69 2212.6,-231.76"/>
<polygon fill="none" stroke="black" stroke-width="3" points="2198.51,-234.86 2192.83,-239.31 2186.54,-235.79 2192.21,-231.34 2198.51,-234.86"/>
<polygon fill="none" stroke="black" stroke-width="3" points="2210.94,-231.89 2216.61,-227.44 2222.9,-230.96 2217.23,-235.41 2210.94,-231.89"/>
</g>
<!-- x7&#45;&gt;n7 -->
<g id="edge42" class="edge">
<title>x7:e&#45;&gt;n7:w</title>
<path fill="none" stroke="black" stroke-width="3" d="M2424.1,-243.25C2441.66,-243.25 2443.75,-260.24 2455.02,-267.14"/>
<polygon fill="black" stroke="black" stroke-width="3" points="2450.89,-269.66 2461.46,-268.84 2452.68,-262.9 2450.89,-269.66"/>
</g>
<!-- c22 -->
<g id="node22" class="node">
<title>c22</title>
<polygon fill="none" stroke="black" points="243.09,-163.5 243.09,-204.5 334.59,-204.5 334.59,-163.5 243.09,-163.5"/>
<text text-anchor="middle" x="255.97" y="-179.2" font-family="Times,serif" font-size="14.00">A</text>
<polyline fill="none" stroke="black" points="268.84,-163.5 268.84,-204.5"/>
<text text-anchor="middle" x="288.84" y="-187.2" font-family="Times,serif" font-size="14.00">$32</text>
<text text-anchor="middle" x="288.84" y="-170.7" font-family="Times,serif" font-size="14.00">$not</text>
<polyline fill="none" stroke="black" points="308.84,-163.5 308.84,-204.5"/>
<text text-anchor="middle" x="321.72" y="-179.2" font-family="Times,serif" font-size="14.00">Y</text>
</g>
<!-- c22&#45;&gt;x0 -->
<g id="edge25" class="edge">
<title>c22:e&#45;&gt;x0:w</title>
<path fill="none" stroke="black" d="M335.34,-184.25C350.1,-184.25 351.98,-169.89 360.5,-162.94"/>
<polygon fill="black" stroke="black" points="361.57,-166.27 369.91,-159.74 359.31,-159.65 361.57,-166.27"/>
</g>
<!-- x8&#45;&gt;c22 -->
<g id="edge9" class="edge">
<title>x8:e&#45;&gt;c22:w</title>
<path fill="none" stroke="black" d="M219.07,-186.31C222.67,-185.9 225.79,-185.38 229.36,-184.97"/>
<polygon fill="none" stroke="black" points="219.22,-186.3 213.45,-190.62 207.24,-186.95 213.01,-182.63 219.22,-186.3"/>
<polygon fill="none" stroke="black" points="229.46,-184.97 235.23,-180.64 241.44,-184.3 235.67,-188.63 229.46,-184.97"/>
</g>
<!-- c23&#45;&gt;c18 -->
<g id="edge26" class="edge">
<title>c23:e&#45;&gt;c18:w</title>
<path fill="none" stroke="black" d="M1246.59,-386.25C1262.48,-386.25 1263.04,-368.9 1271.98,-361.04"/>
<polygon fill="black" stroke="black" points="1272.93,-364.42 1281.17,-357.76 1270.57,-357.83 1272.93,-364.42"/>
</g>
<!-- x9 -->
<g id="node25" class="node">
<title>x9</title>
<path fill="none" stroke="black" d="M627.22,-449.5C627.22,-449.5 665.72,-449.5 665.72,-449.5 671.72,-449.5 677.72,-455.5 677.72,-461.5 677.72,-461.5 677.72,-486.5 677.72,-486.5 677.72,-492.5 671.72,-498.5 665.72,-498.5 665.72,-498.5 627.22,-498.5 627.22,-498.5 621.22,-498.5 615.22,-492.5 615.22,-486.5 615.22,-486.5 615.22,-461.5 615.22,-461.5 615.22,-455.5 621.22,-449.5 627.22,-449.5"/>
<text text-anchor="middle" x="646.47" y="-481.2" font-family="Times,serif" font-size="14.00">2:2 &#45; 1:1</text>
<polyline fill="none" stroke="black" points="615.22,-474 677.72,-474"/>
<text text-anchor="middle" x="646.47" y="-456.7" font-family="Times,serif" font-size="14.00">0:0 &#45; 0:0</text>
</g>
<!-- x9&#45;&gt;c23 -->
<g id="edge10" class="edge">
<title>x9:e&#45;&gt;c23:w</title>
<path fill="none" stroke="black" stroke-width="3" d="M691.58,-473.91C888.89,-470.99 940.4,-401.27 1137.7,-398.34"/>
<polygon fill="none" stroke="black" stroke-width="3" points="693.42,-473.89 687.45,-477.94 681.42,-473.98 687.39,-469.94 693.42,-473.89"/>
<polygon fill="none" stroke="black" stroke-width="3" points="1135.89,-398.36 1141.86,-394.31 1147.89,-398.27 1141.92,-402.31 1135.89,-398.36"/>
</g>
<!-- c24&#45;&gt;n11 -->
<g id="edge19" class="edge">
<title>c24:e&#45;&gt;n11:w</title>
<path fill="none" stroke="black" stroke-width="3" d="M1654.84,-318.25C1666.52,-318.25 1671.62,-315.02 1679.59,-313.21"/>
<polygon fill="black" stroke="black" stroke-width="3" points="1676.76,-317.03 1686.33,-312.48 1676.01,-310.07 1676.76,-317.03"/>
</g>
<!-- v11 -->
<g id="node27" class="node">
<title>v11</title>
<ellipse fill="none" stroke="black" cx="175.09" cy="-373" rx="27" ry="18"/>
<text text-anchor="middle" x="175.09" y="-367.95" font-family="Times,serif" font-size="14.00">1&#39;1</text>
</g>
<!-- c25 -->
<g id="node28" class="node">
<title>c25</title>
<polygon fill="none" stroke="black" points="242.34,-388.5 242.34,-437.5 335.34,-437.5 335.34,-388.5 242.34,-388.5"/>
<text text-anchor="middle" x="255.22" y="-420.2" font-family="Times,serif" font-size="14.00">A</text>
<polyline fill="none" stroke="black" points="242.34,-413 268.09,-413"/>
<text text-anchor="middle" x="255.22" y="-395.7" font-family="Times,serif" font-size="14.00">B</text>
<polyline fill="none" stroke="black" points="268.09,-388.5 268.09,-437.5"/>
<text text-anchor="middle" x="288.84" y="-416.2" font-family="Times,serif" font-size="14.00">$5</text>
<text text-anchor="middle" x="288.84" y="-399.7" font-family="Times,serif" font-size="14.00">$sub</text>
<polyline fill="none" stroke="black" points="309.59,-388.5 309.59,-437.5"/>
<text text-anchor="middle" x="322.47" y="-408.2" font-family="Times,serif" font-size="14.00">Y</text>
</g>
<!-- v11&#45;&gt;c25 -->
<g id="edge49" class="edge">
<title>v11:e&#45;&gt;c25:w</title>
<path fill="none" stroke="black" d="M203.34,-373C219.96,-373 221.43,-389.94 231.42,-397.35"/>
<polygon fill="black" stroke="black" points="230.31,-400.67 240.9,-400.3 232.39,-393.98 230.31,-400.67"/>
</g>
<!-- x12 -->
<g id="node30" class="node">
<title>x12</title>
<path fill="none" stroke="black" d="M383.34,-388.5C383.34,-388.5 421.84,-388.5 421.84,-388.5 427.84,-388.5 433.84,-394.5 433.84,-400.5 433.84,-400.5 433.84,-425.5 433.84,-425.5 433.84,-431.5 427.84,-437.5 421.84,-437.5 421.84,-437.5 383.34,-437.5 383.34,-437.5 377.34,-437.5 371.34,-431.5 371.34,-425.5 371.34,-425.5 371.34,-400.5 371.34,-400.5 371.34,-394.5 377.34,-388.5 383.34,-388.5"/>
<text text-anchor="middle" x="402.59" y="-420.2" font-family="Times,serif" font-size="14.00">1:1 &#45; 2:2</text>
<polyline fill="none" stroke="black" points="371.34,-413 433.84,-413"/>
<text text-anchor="middle" x="402.59" y="-395.7" font-family="Times,serif" font-size="14.00">0:0 &#45; 0:0</text>
</g>
<!-- c25&#45;&gt;x12 -->
<g id="edge12" class="edge">
<title>c25:e&#45;&gt;x12:w</title>
<path fill="none" stroke="black" stroke-width="3" d="M348.06,-413.19C351.66,-413.15 354.79,-413.1 358.37,-413.07"/>
<polygon fill="none" stroke="black" stroke-width="3" points="350.04,-413.18 344.06,-417.21 338.05,-413.24 344.03,-409.21 350.04,-413.18"/>
<polygon fill="none" stroke="black" stroke-width="3" points="356.64,-413.07 362.62,-409.04 368.64,-413.01 362.66,-417.04 356.64,-413.07"/>
</g>
<!-- x10&#45;&gt;c25 -->
<g id="edge11" class="edge">
<title>x10:e&#45;&gt;c25:w</title>
<path fill="none" stroke="black" d="M219.07,-427.31C222.67,-426.9 225.79,-426.38 229.36,-425.97"/>
<polygon fill="none" stroke="black" points="219.22,-427.3 213.45,-431.62 207.24,-427.95 213.01,-423.63 219.22,-427.3"/>
<polygon fill="none" stroke="black" points="229.46,-425.97 235.23,-421.64 241.44,-425.3 235.67,-429.63 229.46,-425.97"/>
</g>
<!-- n5 -->
<g id="node37" class="node">
<title>n5</title>
<ellipse fill="black" stroke="black" cx="516.72" cy="-423" rx="1.8" ry="1.8"/>
</g>
<!-- x12&#45;&gt;n5 -->
<g id="edge27" class="edge">
<title>x12:e&#45;&gt;n5:w</title>
<path fill="none" stroke="black" d="M433.84,-400.75C466.41,-400.75 474.92,-418.24 502.04,-422.21"/>
<polygon fill="black" stroke="black" points="501.71,-425.69 511.93,-422.9 502.19,-418.71 501.71,-425.69"/>
</g>
<!-- x12&#45;&gt;n5 -->
<g id="edge28" class="edge">
<title>x12:e&#45;&gt;n5:w</title>
<path fill="none" stroke="black" d="M433.84,-425.25C465.08,-425.25 475.62,-423.5 502.01,-423.09"/>
<polygon fill="black" stroke="black" points="501.95,-426.59 511.92,-423.01 501.9,-419.59 501.95,-426.59"/>
</g>
<!-- c26&#45;&gt;n9 -->
<g id="edge45" class="edge">
<title>c26:e&#45;&gt;n9:w</title>
<path fill="none" stroke="black" stroke-width="3" d="M968.09,-230.25C979.69,-230.25 984.88,-232.7 992.87,-234.08"/>
<polygon fill="black" stroke="black" stroke-width="3" points="989.31,-237.31 999.57,-234.63 989.88,-230.33 989.31,-237.31"/>
</g>
<!-- x13&#45;&gt;c26 -->
<g id="edge13" class="edge">
<title>x13:e&#45;&gt;c26:w</title>
<path fill="none" stroke="black" stroke-width="3" d="M333.78,-242C409.95,-242 433.61,-242 515.72,-242 515.72,-242 515.72,-242 647.47,-242 744.51,-242 771.96,-242.23 862.89,-242.25"/>
<polygon fill="none" stroke="black" stroke-width="3" points="335.8,-242 329.8,-246 323.8,-242 329.8,-238 335.8,-242"/>
<polygon fill="none" stroke="black" stroke-width="3" points="861.14,-242.25 867.14,-238.25 873.14,-242.25 867.14,-246.25 861.14,-242.25"/>
</g>
<!-- x14 -->
<g id="node33" class="node">
<title>x14</title>
<path fill="none" stroke="black" d="M627.22,-356C627.22,-356 665.72,-356 665.72,-356 671.72,-356 677.72,-362 677.72,-368 677.72,-368 677.72,-380 677.72,-380 677.72,-386 671.72,-392 665.72,-392 665.72,-392 627.22,-392 627.22,-392 621.22,-392 615.22,-386 615.22,-380 615.22,-380 615.22,-368 615.22,-368 615.22,-362 621.22,-356 627.22,-356"/>
<text text-anchor="middle" x="646.47" y="-369.2" font-family="Times,serif" font-size="14.00">2:2 &#45; 0:0</text>
</g>
<!-- x15 -->
<g id="node34" class="node">
<title>x15</title>
<path fill="none" stroke="black" d="M765.34,-379C765.34,-379 803.84,-379 803.84,-379 809.84,-379 815.84,-385 815.84,-391 815.84,-391 815.84,-403 815.84,-403 815.84,-409 809.84,-415 803.84,-415 803.84,-415 765.34,-415 765.34,-415 759.34,-415 753.34,-409 753.34,-403 753.34,-403 753.34,-391 753.34,-391 753.34,-385 759.34,-379 765.34,-379"/>
<text text-anchor="middle" x="784.59" y="-392.2" font-family="Times,serif" font-size="14.00">0:0 &#45; 1:1</text>
</g>
<!-- x14&#45;&gt;x15 -->
<g id="edge14" class="edge">
<title>x14:e&#45;&gt;x15:w</title>
<path fill="none" stroke="black" d="M691.61,-375.24C711.16,-379.23 719.88,-391.76 739.42,-395.76"/>
<polygon fill="none" stroke="black" points="691.56,-375.23 685.2,-378.64 679.61,-374.09 685.97,-370.68 691.56,-375.23"/>
<polygon fill="none" stroke="black" points="739.5,-395.76 745.85,-392.36 751.44,-396.91 745.09,-400.32 739.5,-395.76"/>
</g>
<!-- x15&#45;&gt;n5 -->
<g id="edge29" class="edge">
<title>x15:e&#45;&gt;n5:w</title>
<path fill="none" stroke="black" d="M816.84,-397.25C824.96,-397.25 821.65,-409.82 815.84,-415.5 779.4,-451.1 585.92,-437.05 523.6,-428.16"/>
<polygon fill="black" stroke="black" points="525.29,-425.09 514.79,-423.69 522.12,-431.33 525.29,-425.09"/>
</g>
<!-- x17 -->
<g id="node36" class="node">
<title>x17</title>
<path fill="none" stroke="black" d="M2365.85,-280C2365.85,-280 2417.85,-280 2417.85,-280 2423.85,-280 2429.85,-286 2429.85,-292 2429.85,-292 2429.85,-304 2429.85,-304 2429.85,-310 2423.85,-316 2417.85,-316 2417.85,-316 2365.85,-316 2365.85,-316 2359.85,-316 2353.85,-310 2353.85,-304 2353.85,-304 2353.85,-292 2353.85,-292 2353.85,-286 2359.85,-280 2365.85,-280"/>
<text text-anchor="middle" x="2391.85" y="-293.2" font-family="Times,serif" font-size="14.00">29:0 &#45; 31:2</text>
</g>
<!-- x16&#45;&gt;x17 -->
<g id="edge15" class="edge">
<title>x16:e&#45;&gt;x17:w</title>
<path fill="none" stroke="black" stroke-width="3" d="M2202.28,-298C2260.84,-298 2282.39,-298 2340.8,-298"/>
<polygon fill="none" stroke="black" stroke-width="3" points="2204.3,-298 2198.3,-302 2192.3,-298 2198.3,-294 2204.3,-298"/>
<polygon fill="none" stroke="black" stroke-width="3" points="2339.14,-298 2345.14,-294 2351.14,-298 2345.14,-302 2339.14,-298"/>
</g>
<!-- x17&#45;&gt;n7 -->
<g id="edge41" class="edge">
<title>x17:e&#45;&gt;n7:w</title>
<path fill="none" stroke="black" stroke-width="3" d="M2429.85,-298.25C2445.42,-298.25 2446.33,-281.69 2455.02,-273.93"/>
<polygon fill="black" stroke="black" stroke-width="3" points="2453.37,-278.25 2461.58,-271.55 2450.98,-271.67 2453.37,-278.25"/>
</g>
<!-- n5&#45;&gt;x9 -->
<g id="edge31" class="edge">
<title>n5:e&#45;&gt;x9:w</title>
<path fill="none" stroke="black" d="M519.99,-423C561.21,-423 567.94,-455.1 602.96,-460.87"/>
<polygon fill="black" stroke="black" points="602.46,-464.34 612.71,-461.63 603.01,-457.36 602.46,-464.34"/>
</g>
<!-- n5&#45;&gt;x9 -->
<g id="edge32" class="edge">
<title>n5:e&#45;&gt;x9:w</title>
<path fill="none" stroke="black" d="M519.99,-423C566.29,-423 564.49,-476.3 602.89,-485.04"/>
<polygon fill="black" stroke="black" points="602.4,-488.51 612.71,-486.09 603.14,-481.55 602.4,-488.51"/>
</g>
<!-- n5&#45;&gt;x14 -->
<g id="edge30" class="edge">
<title>n5:e&#45;&gt;x14:w</title>
<path fill="none" stroke="black" d="M519.99,-423C563.09,-423 566.73,-382.27 603.05,-375.27"/>
<polygon fill="black" stroke="black" points="603.07,-378.78 612.71,-374.39 602.43,-371.81 603.07,-378.78"/>
</g>
</g>
</svg>
