<?xml version="1.0" encoding="UTF-8" standalone="no"?>
<!DOCTYPE svg PUBLIC "-//W3C//DTD SVG 1.1//EN"
 "http://www.w3.org/Graphics/SVG/1.1/DTD/svg11.dtd">
<!-- Generated by graphviz version 12.2.1 (20241206.2353)
 -->
<!-- Title: top Pages: 1 -->
<svg width="3575pt" height="964pt"
 viewBox="0.00 0.00 3575.46 963.75" xmlns="http://www.w3.org/2000/svg" xmlns:xlink="http://www.w3.org/1999/xlink">
<g id="graph0" class="graph" transform="scale(1 1) rotate(0) translate(4 959.75)">
<title>top</title>
<polygon fill="white" stroke="none" points="-4,4 -4,-959.75 3571.46,-959.75 3571.46,4 -4,4"/>
<text text-anchor="middle" x="1783.73" y="-7.2" font-family="Times,serif" font-size="14.00">top</text>
<!-- n11 -->
<g id="node1" class="node">
<title>n11</title>
<polygon fill="none" stroke="black" points="2511.58,-715.25 2427.37,-697.25 2511.58,-679.25 2595.78,-697.25 2511.58,-715.25"/>
<text text-anchor="middle" x="2511.58" y="-692.2" font-family="Times,serif" font-size="14.00">expr_447890</text>
</g>
<!-- x22 -->
<g id="node40" class="node">
<title>x22</title>
<path fill="none" stroke="black" d="M2643.78,-649.25C2643.78,-649.25 2682.28,-649.25 2682.28,-649.25 2688.28,-649.25 2694.28,-655.25 2694.28,-661.25 2694.28,-661.25 2694.28,-673.25 2694.28,-673.25 2694.28,-679.25 2688.28,-685.25 2682.28,-685.25 2682.28,-685.25 2643.78,-685.25 2643.78,-685.25 2637.78,-685.25 2631.78,-679.25 2631.78,-673.25 2631.78,-673.25 2631.78,-661.25 2631.78,-661.25 2631.78,-655.25 2637.78,-649.25 2643.78,-649.25"/>
<text text-anchor="middle" x="2663.03" y="-662.45" font-family="Times,serif" font-size="14.00">0:0 &#45; 0:0</text>
</g>
<!-- n11&#45;&gt;x22 -->
<g id="edge45" class="edge">
<title>n11:e&#45;&gt;x22:w</title>
<path fill="none" stroke="black" d="M2595.78,-697.25C2611.83,-697.25 2612.17,-679.45 2621.11,-671.38"/>
<polygon fill="black" stroke="black" points="2622.16,-674.73 2630.36,-668.01 2619.76,-668.15 2622.16,-674.73"/>
</g>
<!-- n12 -->
<g id="node2" class="node">
<title>n12</title>
<polygon fill="none" stroke="black" points="107.84,-669.79 107.84,-684.7 76.26,-695.25 31.59,-695.25 0,-684.7 0,-669.79 31.59,-659.25 76.26,-659.25 107.84,-669.79"/>
<text text-anchor="middle" x="53.92" y="-672.2" font-family="Times,serif" font-size="14.00">input_data</text>
</g>
<!-- c24 -->
<g id="node27" class="node">
<title>c24</title>
<polygon fill="none" stroke="black" points="144.59,-630.75 144.59,-671.75 236.09,-671.75 236.09,-630.75 144.59,-630.75"/>
<text text-anchor="middle" x="157.47" y="-646.45" font-family="Times,serif" font-size="14.00">A</text>
<polyline fill="none" stroke="black" points="170.34,-630.75 170.34,-671.75"/>
<text text-anchor="middle" x="190.34" y="-654.45" font-family="Times,serif" font-size="14.00">$79</text>
<text text-anchor="middle" x="190.34" y="-637.95" font-family="Times,serif" font-size="14.00">$not</text>
<polyline fill="none" stroke="black" points="210.34,-630.75 210.34,-671.75"/>
<text text-anchor="middle" x="223.22" y="-646.45" font-family="Times,serif" font-size="14.00">Y</text>
</g>
<!-- n12&#45;&gt;c24 -->
<g id="edge46" class="edge">
<title>n12:e&#45;&gt;c24:w</title>
<path fill="none" stroke="black" stroke-width="3" d="M107.84,-677.25C122.9,-677.25 124.47,-662.15 133.21,-655.08"/>
<polygon fill="black" stroke="black" stroke-width="3" points="131.18,-659.45 139.54,-652.94 128.94,-652.82 131.18,-659.45"/>
</g>
<!-- c25 -->
<g id="node28" class="node">
<title>c25</title>
<polygon fill="none" stroke="black" points="1843.37,-732.75 1843.37,-781.75 1935.62,-781.75 1935.62,-732.75 1843.37,-732.75"/>
<text text-anchor="middle" x="1856.25" y="-764.45" font-family="Times,serif" font-size="14.00">A</text>
<polyline fill="none" stroke="black" points="1843.37,-757.25 1869.12,-757.25"/>
<text text-anchor="middle" x="1856.25" y="-739.95" font-family="Times,serif" font-size="14.00">B</text>
<polyline fill="none" stroke="black" points="1869.12,-732.75 1869.12,-781.75"/>
<text text-anchor="middle" x="1889.5" y="-760.45" font-family="Times,serif" font-size="14.00">$86</text>
<text text-anchor="middle" x="1889.5" y="-743.95" font-family="Times,serif" font-size="14.00">$xor</text>
<polyline fill="none" stroke="black" points="1909.87,-732.75 1909.87,-781.75"/>
<text text-anchor="middle" x="1922.75" y="-752.45" font-family="Times,serif" font-size="14.00">Y</text>
</g>
<!-- n12&#45;&gt;c25 -->
<g id="edge47" class="edge">
<title>n12:e&#45;&gt;c25:w</title>
<path fill="none" stroke="black" stroke-width="3" d="M107.84,-677.25C132.09,-677.25 122.52,-706.69 143.84,-718.25 209.37,-753.78 235.3,-742.25 309.84,-742.25 309.84,-742.25 309.84,-742.25 1662.62,-742.25 1739.04,-742.25 1760.93,-744.73 1832.02,-744.98"/>
<polygon fill="black" stroke="black" stroke-width="3" points="1828.83,-748.47 1838.83,-744.99 1828.84,-741.47 1828.83,-748.47"/>
</g>
<!-- c26 -->
<g id="node30" class="node">
<title>c26</title>
<polygon fill="none" stroke="black" points="1971.62,-691.75 1971.62,-740.75 2063.87,-740.75 2063.87,-691.75 1971.62,-691.75"/>
<text text-anchor="middle" x="1984.5" y="-723.45" font-family="Times,serif" font-size="14.00">A</text>
<polyline fill="none" stroke="black" points="1971.62,-716.25 1997.37,-716.25"/>
<text text-anchor="middle" x="1984.5" y="-698.95" font-family="Times,serif" font-size="14.00">B</text>
<polyline fill="none" stroke="black" points="1997.37,-691.75 1997.37,-740.75"/>
<text text-anchor="middle" x="2017.75" y="-719.45" font-family="Times,serif" font-size="14.00">$89</text>
<text text-anchor="middle" x="2017.75" y="-702.95" font-family="Times,serif" font-size="14.00">$xor</text>
<polyline fill="none" stroke="black" points="2038.12,-691.75 2038.12,-740.75"/>
<text text-anchor="middle" x="2051" y="-711.45" font-family="Times,serif" font-size="14.00">Y</text>
</g>
<!-- n12&#45;&gt;c26 -->
<g id="edge48" class="edge">
<title>n12:e&#45;&gt;c26:w</title>
<path fill="none" stroke="black" stroke-width="3" d="M107.84,-677.25C119.16,-677.25 298.52,-704.25 309.84,-704.25 309.84,-704.25 309.84,-704.25 1777.12,-704.25 1859.69,-704.25 1883.11,-704.02 1960.36,-704"/>
<polygon fill="black" stroke="black" stroke-width="3" points="1957.08,-707.5 1967.08,-704 1957.08,-700.5 1957.08,-707.5"/>
</g>
<!-- c27 -->
<g id="node31" class="node">
<title>c27</title>
<polygon fill="none" stroke="black" points="567.19,-408.75 567.19,-457.75 663.19,-457.75 663.19,-408.75 567.19,-408.75"/>
<text text-anchor="middle" x="580.07" y="-440.45" font-family="Times,serif" font-size="14.00">A</text>
<polyline fill="none" stroke="black" points="567.19,-433.25 592.94,-433.25"/>
<text text-anchor="middle" x="580.07" y="-415.95" font-family="Times,serif" font-size="14.00">B</text>
<polyline fill="none" stroke="black" points="592.94,-408.75 592.94,-457.75"/>
<text text-anchor="middle" x="615.19" y="-436.45" font-family="Times,serif" font-size="14.00">$3</text>
<text text-anchor="middle" x="615.19" y="-419.95" font-family="Times,serif" font-size="14.00">$mul</text>
<polyline fill="none" stroke="black" points="637.44,-408.75 637.44,-457.75"/>
<text text-anchor="middle" x="650.32" y="-428.45" font-family="Times,serif" font-size="14.00">Y</text>
</g>
<!-- n12&#45;&gt;c27 -->
<g id="edge49" class="edge">
<title>n12:e&#45;&gt;c27:w</title>
<path fill="none" stroke="black" stroke-width="3" d="M107.84,-677.25C137.43,-677.25 119.1,-637.47 143.84,-621.25 206.35,-580.26 235.09,-594.25 309.84,-594.25 309.84,-594.25 309.84,-594.25 387.64,-594.25 494.53,-594.25 459.15,-433.29 555.76,-421.66"/>
<polygon fill="black" stroke="black" stroke-width="3" points="552.88,-425.33 562.66,-421.26 552.47,-418.34 552.88,-425.33"/>
</g>
<!-- c29 -->
<g id="node36" class="node">
<title>c29</title>
<polygon fill="none" stroke="black" points="1186.87,-780.75 1186.87,-829.75 1282.87,-829.75 1282.87,-780.75 1186.87,-780.75"/>
<text text-anchor="middle" x="1199.75" y="-812.45" font-family="Times,serif" font-size="14.00">A</text>
<polyline fill="none" stroke="black" points="1186.87,-805.25 1212.62,-805.25"/>
<text text-anchor="middle" x="1199.75" y="-787.95" font-family="Times,serif" font-size="14.00">B</text>
<polyline fill="none" stroke="black" points="1212.62,-780.75 1212.62,-829.75"/>
<text text-anchor="middle" x="1234.87" y="-808.45" font-family="Times,serif" font-size="14.00">$9</text>
<text text-anchor="middle" x="1234.87" y="-791.95" font-family="Times,serif" font-size="14.00">$mul</text>
<polyline fill="none" stroke="black" points="1257.12,-780.75 1257.12,-829.75"/>
<text text-anchor="middle" x="1270" y="-800.45" font-family="Times,serif" font-size="14.00">Y</text>
</g>
<!-- n12&#45;&gt;c29 -->
<g id="edge50" class="edge">
<title>n12:e&#45;&gt;c29:w</title>
<path fill="none" stroke="black" stroke-width="3" d="M107.84,-677.25C146.43,-677.25 112.97,-733.1 143.84,-756.25 203.48,-800.97 235.3,-780.25 309.84,-780.25 309.84,-780.25 309.84,-780.25 991.87,-780.25 1074.82,-780.25 1097.98,-791.88 1175.55,-792.92"/>
<polygon fill="black" stroke="black" stroke-width="3" points="1172.31,-796.4 1182.33,-792.97 1172.36,-789.4 1172.31,-796.4"/>
</g>
<!-- x20 -->
<g id="node37" class="node">
<title>x20</title>
<path fill="none" stroke="black" d="M1086.87,-808.75C1086.87,-808.75 1138.87,-808.75 1138.87,-808.75 1144.87,-808.75 1150.87,-814.75 1150.87,-820.75 1150.87,-820.75 1150.87,-845.75 1150.87,-845.75 1150.87,-851.75 1144.87,-857.75 1138.87,-857.75 1138.87,-857.75 1086.87,-857.75 1086.87,-857.75 1080.87,-857.75 1074.87,-851.75 1074.87,-845.75 1074.87,-845.75 1074.87,-820.75 1074.87,-820.75 1074.87,-814.75 1080.87,-808.75 1086.87,-808.75"/>
<text text-anchor="middle" x="1112.87" y="-840.45" font-family="Times,serif" font-size="14.00">15:0 &#45; 18:3</text>
<polyline fill="none" stroke="black" points="1074.87,-833.25 1150.87,-833.25"/>
<text text-anchor="middle" x="1112.87" y="-815.95" font-family="Times,serif" font-size="14.00">2:0 &#45; 2:0</text>
</g>
<!-- n12&#45;&gt;x20 -->
<g id="edge53" class="edge">
<title>n12:e&#45;&gt;x20:w</title>
<path fill="none" stroke="black" stroke-width="3" d="M107.84,-677.25C162.25,-677.25 109.56,-752 143.84,-794.25 196.99,-859.75 225.49,-886.25 309.84,-886.25 309.84,-886.25 309.84,-886.25 867.78,-886.25 944.29,-886.25 972.1,-904.59 1038.87,-867.25 1057.35,-856.91 1052.37,-832.84 1063.83,-824.17"/>
<polygon fill="black" stroke="black" stroke-width="3" points="1061.87,-828.38 1070.51,-822.25 1059.93,-821.65 1061.87,-828.38"/>
</g>
<!-- c31 -->
<g id="node42" class="node">
<title>c31</title>
<polygon fill="none" stroke="black" points="143.84,-516.75 143.84,-565.75 236.84,-565.75 236.84,-516.75 143.84,-516.75"/>
<text text-anchor="middle" x="156.72" y="-548.45" font-family="Times,serif" font-size="14.00">A</text>
<polyline fill="none" stroke="black" points="143.84,-541.25 169.59,-541.25"/>
<text text-anchor="middle" x="156.72" y="-523.95" font-family="Times,serif" font-size="14.00">B</text>
<polyline fill="none" stroke="black" points="169.59,-516.75 169.59,-565.75"/>
<text text-anchor="middle" x="190.34" y="-544.45" font-family="Times,serif" font-size="14.00">$1</text>
<text text-anchor="middle" x="190.34" y="-527.95" font-family="Times,serif" font-size="14.00">$sub</text>
<polyline fill="none" stroke="black" points="211.09,-516.75 211.09,-565.75"/>
<text text-anchor="middle" x="223.97" y="-536.45" font-family="Times,serif" font-size="14.00">Y</text>
</g>
<!-- n12&#45;&gt;c31 -->
<g id="edge51" class="edge">
<title>n12:e&#45;&gt;c31:w</title>
<path fill="none" stroke="black" stroke-width="3" d="M107.84,-677.25C160.65,-677.25 98.01,-572.08 132.77,-555.64"/>
<polygon fill="black" stroke="black" stroke-width="3" points="130.23,-559.7 139.38,-554.36 128.9,-552.83 130.23,-559.7"/>
</g>
<!-- n12&#45;&gt;c31 -->
<g id="edge52" class="edge">
<title>n12:e&#45;&gt;c31:w</title>
<path fill="none" stroke="black" stroke-width="3" d="M107.84,-677.25C171.27,-677.25 88.18,-547.49 132.73,-530.76"/>
<polygon fill="black" stroke="black" stroke-width="3" points="130.03,-534.74 139.36,-529.71 128.93,-527.82 130.03,-534.74"/>
</g>
<!-- n13 -->
<g id="node3" class="node">
<title>n13</title>
<polygon fill="none" stroke="black" points="3343.44,-609.79 3343.44,-624.7 3308.93,-635.25 3260.13,-635.25 3225.63,-624.7 3225.63,-609.79 3260.13,-599.25 3308.93,-599.25 3343.44,-609.79"/>
<text text-anchor="middle" x="3284.53" y="-612.2" font-family="Times,serif" font-size="14.00">output_data</text>
</g>
<!-- x30 -->
<g id="node49" class="node">
<title>x30</title>
<path fill="none" stroke="black" d="M3391.44,-580.75C3391.44,-580.75 3437.44,-580.75 3437.44,-580.75 3443.44,-580.75 3449.44,-586.75 3449.44,-592.75 3449.44,-592.75 3449.44,-715.75 3449.44,-715.75 3449.44,-721.75 3443.44,-727.75 3437.44,-727.75 3437.44,-727.75 3391.44,-727.75 3391.44,-727.75 3385.44,-727.75 3379.44,-721.75 3379.44,-715.75 3379.44,-715.75 3379.44,-592.75 3379.44,-592.75 3379.44,-586.75 3385.44,-580.75 3391.44,-580.75"/>
<text text-anchor="middle" x="3414.44" y="-710.45" font-family="Times,serif" font-size="14.00">X &#45;&gt; 17:8</text>
<polyline fill="none" stroke="black" points="3379.44,-703.25 3449.44,-703.25"/>
<text text-anchor="middle" x="3414.44" y="-685.95" font-family="Times,serif" font-size="14.00">8:8 &#45; 7:7</text>
<polyline fill="none" stroke="black" points="3379.44,-678.75 3449.44,-678.75"/>
<text text-anchor="middle" x="3414.44" y="-661.45" font-family="Times,serif" font-size="14.00">0 &#45;&gt; 6:4</text>
<polyline fill="none" stroke="black" points="3379.44,-654.25 3449.44,-654.25"/>
<text text-anchor="middle" x="3414.44" y="-636.95" font-family="Times,serif" font-size="14.00">4:4 &#45; 3:3</text>
<polyline fill="none" stroke="black" points="3379.44,-629.75 3449.44,-629.75"/>
<text text-anchor="middle" x="3414.44" y="-612.45" font-family="Times,serif" font-size="14.00">0 &#45;&gt; 2:2</text>
<polyline fill="none" stroke="black" points="3379.44,-605.25 3449.44,-605.25"/>
<text text-anchor="middle" x="3414.44" y="-587.95" font-family="Times,serif" font-size="14.00">2:1 &#45; 1:0</text>
</g>
<!-- n13&#45;&gt;x30 -->
<g id="edge62" class="edge">
<title>n13:e&#45;&gt;x30:w</title>
<path fill="none" stroke="black" stroke-width="3" d="M3343.44,-617.25C3358.06,-617.25 3360.12,-603.32 3368.65,-596.57"/>
<polygon fill="black" stroke="black" stroke-width="3" points="3366.74,-600.89 3375.13,-594.42 3364.54,-594.25 3366.74,-600.89"/>
</g>
<!-- n13&#45;&gt;x30 -->
<g id="edge63" class="edge">
<title>n13:e&#45;&gt;x30:w</title>
<path fill="none" stroke="black" d="M3343.44,-617.25C3358.15,-617.25 3360.09,-631.46 3368.61,-638.34"/>
<polygon fill="black" stroke="black" points="3367.41,-641.63 3378.01,-641.51 3369.65,-635 3367.41,-641.63"/>
</g>
<!-- n13&#45;&gt;x30 -->
<g id="edge64" class="edge">
<title>n13:e&#45;&gt;x30:w</title>
<path fill="none" stroke="black" d="M3343.44,-617.25C3375.35,-617.25 3351.05,-673.71 3368.92,-687.83"/>
<polygon fill="black" stroke="black" points="3367.41,-691.03 3377.99,-690.56 3369.42,-684.32 3367.41,-691.03"/>
</g>
<!-- v1 -->
<g id="node4" class="node">
<title>v1</title>
<ellipse fill="none" stroke="black" cx="866.78" cy="-103.25" rx="40.09" ry="18"/>
<text text-anchor="middle" x="866.78" y="-98.2" font-family="Times,serif" font-size="14.00">5&#39;10101</text>
</g>
<!-- c17 -->
<g id="node5" class="node">
<title>c17</title>
<polygon fill="none" stroke="black" points="944,-90.75 944,-139.75 1037.75,-139.75 1037.75,-90.75 944,-90.75"/>
<text text-anchor="middle" x="956.87" y="-122.45" font-family="Times,serif" font-size="14.00">A</text>
<polyline fill="none" stroke="black" points="944,-115.25 969.75,-115.25"/>
<text text-anchor="middle" x="956.87" y="-97.95" font-family="Times,serif" font-size="14.00">B</text>
<polyline fill="none" stroke="black" points="969.75,-90.75 969.75,-139.75"/>
<text text-anchor="middle" x="990.87" y="-118.45" font-family="Times,serif" font-size="14.00">$2</text>
<text text-anchor="middle" x="990.87" y="-101.95" font-family="Times,serif" font-size="14.00">$add</text>
<polyline fill="none" stroke="black" points="1012,-90.75 1012,-139.75"/>
<text text-anchor="middle" x="1024.87" y="-110.45" font-family="Times,serif" font-size="14.00">Y</text>
</g>
<!-- v1&#45;&gt;c17 -->
<g id="edge87" class="edge">
<title>v1:e&#45;&gt;c17:w</title>
<path fill="none" stroke="black" stroke-width="3" d="M906.87,-103.25C918.29,-103.25 923.62,-103.12 931.51,-103.05"/>
<polygon fill="black" stroke="black" stroke-width="3" points="928.47,-106.56 938.46,-103.02 928.44,-99.56 928.47,-106.56"/>
</g>
<!-- x2 -->
<g id="node7" class="node">
<title>x2</title>
<path fill="none" stroke="black" d="M1086.87,-90.75C1086.87,-90.75 1138.87,-90.75 1138.87,-90.75 1144.87,-90.75 1150.87,-96.75 1150.87,-102.75 1150.87,-102.75 1150.87,-127.75 1150.87,-127.75 1150.87,-133.75 1144.87,-139.75 1138.87,-139.75 1138.87,-139.75 1086.87,-139.75 1086.87,-139.75 1080.87,-139.75 1074.87,-133.75 1074.87,-127.75 1074.87,-127.75 1074.87,-102.75 1074.87,-102.75 1074.87,-96.75 1080.87,-90.75 1086.87,-90.75"/>
<text text-anchor="middle" x="1112.87" y="-122.45" font-family="Times,serif" font-size="14.00">5:5 &#45; 18:18</text>
<polyline fill="none" stroke="black" points="1074.87,-115.25 1150.87,-115.25"/>
<text text-anchor="middle" x="1112.87" y="-97.95" font-family="Times,serif" font-size="14.00">4:0 &#45; 6:2</text>
</g>
<!-- c17&#45;&gt;x2 -->
<g id="edge2" class="edge">
<title>c17:e&#45;&gt;x2:w</title>
<path fill="none" stroke="black" stroke-width="3" d="M1051.77,-115.43C1055.31,-115.39 1058.42,-115.35 1061.98,-115.31"/>
<polygon fill="none" stroke="black" stroke-width="3" points="1053.45,-115.42 1047.47,-119.45 1041.45,-115.48 1047.43,-111.45 1053.45,-115.42"/>
<polygon fill="none" stroke="black" stroke-width="3" points="1060.17,-115.32 1066.15,-111.29 1072.17,-115.26 1066.19,-119.29 1060.17,-115.32"/>
</g>
<!-- x0 -->
<g id="node6" class="node">
<title>x0</title>
<path fill="none" stroke="black" d="M840.78,-216.75C840.78,-216.75 892.78,-216.75 892.78,-216.75 898.78,-216.75 904.78,-222.75 904.78,-228.75 904.78,-228.75 904.78,-253.75 904.78,-253.75 904.78,-259.75 898.78,-265.75 892.78,-265.75 892.78,-265.75 840.78,-265.75 840.78,-265.75 834.78,-265.75 828.78,-259.75 828.78,-253.75 828.78,-253.75 828.78,-228.75 828.78,-228.75 828.78,-222.75 834.78,-216.75 840.78,-216.75"/>
<text text-anchor="middle" x="866.78" y="-248.45" font-family="Times,serif" font-size="14.00">18:18 &#45; 1:1</text>
<polyline fill="none" stroke="black" points="828.78,-241.25 904.78,-241.25"/>
<text text-anchor="middle" x="866.78" y="-223.95" font-family="Times,serif" font-size="14.00">2:2 &#45; 0:0</text>
</g>
<!-- x0&#45;&gt;c17 -->
<g id="edge1" class="edge">
<title>x0:e&#45;&gt;c17:w</title>
<path fill="none" stroke="black" stroke-width="3" d="M918.09,-238.2C943.51,-222.09 905.34,-146.86 930.59,-130.6"/>
<polygon fill="none" stroke="black" stroke-width="3" points="920.06,-237.72 915.19,-243.04 908.41,-240.6 913.27,-235.27 920.06,-237.72"/>
<polygon fill="none" stroke="black" stroke-width="3" points="928.73,-131.07 933.58,-125.73 940.38,-128.15 935.53,-133.49 928.73,-131.07"/>
</g>
<!-- n1 -->
<g id="node55" class="node">
<title>n1</title>
<ellipse fill="black" stroke="black" cx="386.64" cy="-189.25" rx="1.8" ry="1.8"/>
</g>
<!-- x2&#45;&gt;n1 -->
<g id="edge29" class="edge">
<title>x2:e&#45;&gt;n1:w</title>
<path fill="none" stroke="black" stroke-width="3" d="M1151.87,-103C1157.56,-103 1154.67,-94.48 1150.87,-90.25 1065.43,5.18 995.87,-36.25 867.78,-36.25 614.19,-36.25 614.19,-36.25 614.19,-36.25 529.44,-36.25 488.95,-0.27 424.44,-55.25 376.92,-95.74 437.93,-152.97 388.44,-191.05 388.35,-191.11 388.26,-191.18 388.18,-191.24"/>
<polygon fill="black" stroke="black" stroke-width="3" points="398.14,-191.57 387.56,-190.98 395.46,-198.04 398.14,-191.57"/>
</g>
<!-- x2&#45;&gt;n1 -->
<g id="edge30" class="edge">
<title>x2:e&#45;&gt;n1:w</title>
<path fill="none" stroke="black" d="M1151.87,-127.5C1157.56,-127.5 1154.85,-136.19 1150.87,-140.25 1062.39,-230.55 994.21,-168.25 867.78,-168.25 614.19,-168.25 614.19,-168.25 614.19,-168.25 529.44,-168.25 508.75,-178.57 424.44,-187.25 408.44,-188.89 404.51,-190.2 388.44,-191.05 388.33,-191.05 388.22,-191.06 388.11,-191.07"/>
<polygon fill="black" stroke="black" points="395.37,-190.11 384.78,-189.79 392.86,-196.64 395.37,-190.11"/>
</g>
<!-- c18 -->
<g id="node8" class="node">
<title>c18</title>
<polygon fill="none" stroke="black" points="1614.37,-910.75 1614.37,-951.75 1708.87,-951.75 1708.87,-910.75 1614.37,-910.75"/>
<text text-anchor="middle" x="1627.25" y="-926.45" font-family="Times,serif" font-size="14.00">A</text>
<polyline fill="none" stroke="black" points="1640.12,-910.75 1640.12,-951.75"/>
<text text-anchor="middle" x="1661.62" y="-934.45" font-family="Times,serif" font-size="14.00">$125</text>
<text text-anchor="middle" x="1661.62" y="-917.95" font-family="Times,serif" font-size="14.00">$not</text>
<polyline fill="none" stroke="black" points="1683.12,-910.75 1683.12,-951.75"/>
<text text-anchor="middle" x="1696" y="-926.45" font-family="Times,serif" font-size="14.00">Y</text>
</g>
<!-- x4 -->
<g id="node10" class="node">
<title>x4</title>
<path fill="none" stroke="black" d="M2226.37,-824.25C2226.37,-824.25 2264.87,-824.25 2264.87,-824.25 2270.87,-824.25 2276.87,-830.25 2276.87,-836.25 2276.87,-836.25 2276.87,-848.25 2276.87,-848.25 2276.87,-854.25 2270.87,-860.25 2264.87,-860.25 2264.87,-860.25 2226.37,-860.25 2226.37,-860.25 2220.37,-860.25 2214.37,-854.25 2214.37,-848.25 2214.37,-848.25 2214.37,-836.25 2214.37,-836.25 2214.37,-830.25 2220.37,-824.25 2226.37,-824.25"/>
<text text-anchor="middle" x="2245.62" y="-837.45" font-family="Times,serif" font-size="14.00">0:0 &#45; 4:4</text>
</g>
<!-- c18&#45;&gt;x4 -->
<g id="edge4" class="edge">
<title>c18:e&#45;&gt;x4:w</title>
<path fill="none" stroke="black" d="M1721.77,-931.12C1792.87,-926.89 1810.87,-888.25 1888.5,-888.25 1888.5,-888.25 1888.5,-888.25 2018.75,-888.25 2103.12,-888.25 2122.59,-846.8 2200.37,-842.59"/>
<polygon fill="none" stroke="black" points="1721.77,-931.12 1715.89,-935.29 1709.78,-931.47 1715.66,-927.3 1721.77,-931.12"/>
<polygon fill="none" stroke="black" points="2200.48,-842.59 2206.37,-838.43 2212.47,-842.27 2206.58,-846.43 2200.48,-842.59"/>
</g>
<!-- x3 -->
<g id="node9" class="node">
<title>x3</title>
<path fill="none" stroke="black" d="M1527.87,-919.25C1527.87,-919.25 1566.37,-919.25 1566.37,-919.25 1572.37,-919.25 1578.37,-925.25 1578.37,-931.25 1578.37,-931.25 1578.37,-943.25 1578.37,-943.25 1578.37,-949.25 1572.37,-955.25 1566.37,-955.25 1566.37,-955.25 1527.87,-955.25 1527.87,-955.25 1521.87,-955.25 1515.87,-949.25 1515.87,-943.25 1515.87,-943.25 1515.87,-931.25 1515.87,-931.25 1515.87,-925.25 1521.87,-919.25 1527.87,-919.25"/>
<text text-anchor="middle" x="1547.12" y="-932.45" font-family="Times,serif" font-size="14.00">1:1 &#45; 0:0</text>
</g>
<!-- x3&#45;&gt;c18 -->
<g id="edge3" class="edge">
<title>x3:e&#45;&gt;c18:w</title>
<path fill="none" stroke="black" d="M1591.14,-935.79C1594.83,-934.92 1598,-933.8 1601.69,-932.93"/>
<polygon fill="none" stroke="black" points="1591.19,-935.79 1585.68,-940.44 1579.27,-937.14 1584.78,-932.49 1591.19,-935.79"/>
<polygon fill="none" stroke="black" points="1601.55,-932.94 1607.07,-928.29 1613.48,-931.6 1607.96,-936.24 1601.55,-932.94"/>
</g>
<!-- x4&#45;&gt;n13 -->
<g id="edge59" class="edge">
<title>x4:e&#45;&gt;n13:w</title>
<path fill="none" stroke="black" d="M2277.87,-842.5C2383.78,-842.5 2404.67,-791.25 2510.58,-791.25 2510.58,-791.25 2510.58,-791.25 2904.95,-791.25 3031.92,-791.25 3093.31,-849.98 3189.63,-767.25 3238.28,-725.45 3167.4,-630.57 3214.2,-618.51"/>
<polygon fill="black" stroke="black" points="3214.57,-621.99 3224.12,-617.41 3213.8,-615.04 3214.57,-621.99"/>
</g>
<!-- c19 -->
<g id="node11" class="node">
<title>c19</title>
<polygon fill="none" stroke="black" points="1614.37,-830.75 1614.37,-871.75 1708.87,-871.75 1708.87,-830.75 1614.37,-830.75"/>
<text text-anchor="middle" x="1627.25" y="-846.45" font-family="Times,serif" font-size="14.00">A</text>
<polyline fill="none" stroke="black" points="1640.12,-830.75 1640.12,-871.75"/>
<text text-anchor="middle" x="1661.62" y="-854.45" font-family="Times,serif" font-size="14.00">$127</text>
<text text-anchor="middle" x="1661.62" y="-837.95" font-family="Times,serif" font-size="14.00">$not</text>
<polyline fill="none" stroke="black" points="1683.12,-830.75 1683.12,-871.75"/>
<text text-anchor="middle" x="1696" y="-846.45" font-family="Times,serif" font-size="14.00">Y</text>
</g>
<!-- x6 -->
<g id="node13" class="node">
<title>x6</title>
<path fill="none" stroke="black" d="M2111.87,-788.25C2111.87,-788.25 2150.37,-788.25 2150.37,-788.25 2156.37,-788.25 2162.37,-794.25 2162.37,-800.25 2162.37,-800.25 2162.37,-812.25 2162.37,-812.25 2162.37,-818.25 2156.37,-824.25 2150.37,-824.25 2150.37,-824.25 2111.87,-824.25 2111.87,-824.25 2105.87,-824.25 2099.87,-818.25 2099.87,-812.25 2099.87,-812.25 2099.87,-800.25 2099.87,-800.25 2099.87,-794.25 2105.87,-788.25 2111.87,-788.25"/>
<text text-anchor="middle" x="2131.12" y="-801.45" font-family="Times,serif" font-size="14.00">0:0 &#45; 8:8</text>
</g>
<!-- c19&#45;&gt;x6 -->
<g id="edge6" class="edge">
<title>c19:e&#45;&gt;x6:w</title>
<path fill="none" stroke="black" d="M1721.45,-851.42C1881.72,-849.37 1926.93,-808.41 2087.12,-806.33"/>
<polygon fill="none" stroke="black" points="1721.78,-851.41 1715.8,-855.45 1709.78,-851.49 1715.75,-847.45 1721.78,-851.41"/>
<polygon fill="none" stroke="black" points="2086.97,-806.33 2092.95,-802.29 2098.97,-806.25 2093,-810.29 2086.97,-806.33"/>
</g>
<!-- x5 -->
<g id="node12" class="node">
<title>x5</title>
<path fill="none" stroke="black" d="M1527.87,-864.25C1527.87,-864.25 1566.37,-864.25 1566.37,-864.25 1572.37,-864.25 1578.37,-870.25 1578.37,-876.25 1578.37,-876.25 1578.37,-888.25 1578.37,-888.25 1578.37,-894.25 1572.37,-900.25 1566.37,-900.25 1566.37,-900.25 1527.87,-900.25 1527.87,-900.25 1521.87,-900.25 1515.87,-894.25 1515.87,-888.25 1515.87,-888.25 1515.87,-876.25 1515.87,-876.25 1515.87,-870.25 1521.87,-864.25 1527.87,-864.25"/>
<text text-anchor="middle" x="1547.12" y="-877.45" font-family="Times,serif" font-size="14.00">5:5 &#45; 0:0</text>
</g>
<!-- x5&#45;&gt;c19 -->
<g id="edge5" class="edge">
<title>x5:e&#45;&gt;c19:w</title>
<path fill="none" stroke="black" d="M1590.17,-877.17C1595.36,-871.44 1597.44,-862.17 1602.66,-856.48"/>
<polygon fill="none" stroke="black" points="1590.22,-877.14 1586.29,-883.19 1579.2,-881.89 1583.13,-875.84 1590.22,-877.14"/>
<polygon fill="none" stroke="black" points="1602.5,-856.55 1606.46,-850.52 1613.54,-851.85 1609.59,-857.88 1602.5,-856.55"/>
</g>
<!-- x6&#45;&gt;n13 -->
<g id="edge60" class="edge">
<title>x6:e&#45;&gt;n13:w</title>
<path fill="none" stroke="black" d="M2162.37,-806.5C2252.96,-806.5 2268.53,-753.25 2359.12,-753.25 2359.12,-753.25 2359.12,-753.25 2904.95,-753.25 3034.25,-753.25 3088.12,-773.34 3189.63,-693.25 3215.3,-672.99 3194.99,-629.99 3214.55,-619.56"/>
<polygon fill="black" stroke="black" points="3215.07,-623.03 3224.15,-617.56 3213.64,-616.18 3215.07,-623.03"/>
</g>
<!-- c20 -->
<g id="node14" class="node">
<title>c20</title>
<polygon fill="none" stroke="black" points="699.19,-374.75 699.19,-415.75 790.69,-415.75 790.69,-374.75 699.19,-374.75"/>
<text text-anchor="middle" x="712.07" y="-390.45" font-family="Times,serif" font-size="14.00">A</text>
<polyline fill="none" stroke="black" points="724.94,-374.75 724.94,-415.75"/>
<text text-anchor="middle" x="744.94" y="-398.45" font-family="Times,serif" font-size="14.00">$94</text>
<text text-anchor="middle" x="744.94" y="-381.95" font-family="Times,serif" font-size="14.00">$not</text>
<polyline fill="none" stroke="black" points="764.94,-374.75 764.94,-415.75"/>
<text text-anchor="middle" x="777.82" y="-390.45" font-family="Times,serif" font-size="14.00">Y</text>
</g>
<!-- x8 -->
<g id="node16" class="node">
<title>x8</title>
<path fill="none" stroke="black" d="M1870.25,-406.25C1870.25,-406.25 1908.75,-406.25 1908.75,-406.25 1914.75,-406.25 1920.75,-412.25 1920.75,-418.25 1920.75,-418.25 1920.75,-430.25 1920.75,-430.25 1920.75,-436.25 1914.75,-442.25 1908.75,-442.25 1908.75,-442.25 1870.25,-442.25 1870.25,-442.25 1864.25,-442.25 1858.25,-436.25 1858.25,-430.25 1858.25,-430.25 1858.25,-418.25 1858.25,-418.25 1858.25,-412.25 1864.25,-406.25 1870.25,-406.25"/>
<text text-anchor="middle" x="1889.5" y="-419.45" font-family="Times,serif" font-size="14.00">0:0 &#45; 1:1</text>
</g>
<!-- c20&#45;&gt;x8 -->
<g id="edge8" class="edge">
<title>c20:e&#45;&gt;x8:w</title>
<path fill="none" stroke="black" d="M803.7,-395.58C881.74,-396.56 905.72,-406.25 989.87,-406.25 989.87,-406.25 989.87,-406.25 1662.62,-406.25 1745.08,-406.25 1768.09,-422.46 1844.51,-424.11"/>
<polygon fill="none" stroke="black" points="803.59,-395.58 797.57,-399.54 791.59,-395.5 797.62,-391.54 803.59,-395.58"/>
<polygon fill="none" stroke="black" points="1844.35,-424.11 1850.39,-420.17 1856.35,-424.24 1850.31,-428.17 1844.35,-424.11"/>
</g>
<!-- x7 -->
<g id="node15" class="node">
<title>x7</title>
<path fill="none" stroke="black" d="M595.94,-477.25C595.94,-477.25 634.44,-477.25 634.44,-477.25 640.44,-477.25 646.44,-483.25 646.44,-489.25 646.44,-489.25 646.44,-501.25 646.44,-501.25 646.44,-507.25 640.44,-513.25 634.44,-513.25 634.44,-513.25 595.94,-513.25 595.94,-513.25 589.94,-513.25 583.94,-507.25 583.94,-501.25 583.94,-501.25 583.94,-489.25 583.94,-489.25 583.94,-483.25 589.94,-477.25 595.94,-477.25"/>
<text text-anchor="middle" x="615.19" y="-490.45" font-family="Times,serif" font-size="14.00">1:1 &#45; 0:0</text>
</g>
<!-- x7&#45;&gt;c20 -->
<g id="edge7" class="edge">
<title>x7:e&#45;&gt;c20:w</title>
<path fill="none" stroke="black" d="M659.83,-492.37C685.36,-477.87 661.28,-412.91 686.78,-398.38"/>
<polygon fill="none" stroke="black" points="660.01,-492.33 655.07,-497.58 648.32,-495.04 653.26,-489.79 660.01,-492.33"/>
<polygon fill="none" stroke="black" points="686.63,-398.42 691.56,-393.16 698.31,-395.7 693.38,-400.96 686.63,-398.42"/>
</g>
<!-- x8&#45;&gt;n13 -->
<g id="edge61" class="edge">
<title>x8:e&#45;&gt;n13:w</title>
<path fill="none" stroke="black" d="M1921.75,-424.5C2016.2,-424.5 2035.67,-466.25 2130.12,-466.25 2130.12,-466.25 2130.12,-466.25 2904.95,-466.25 3032.72,-466.25 3091.77,-424.1 3189.63,-506.25 3225.93,-536.73 3182.61,-604.23 3214.51,-615.6"/>
<polygon fill="black" stroke="black" points="3213.73,-619.02 3224.13,-617.02 3214.75,-612.1 3213.73,-619.02"/>
</g>
<!-- c21 -->
<g id="node17" class="node">
<title>c21</title>
<polygon fill="none" stroke="black" points="699.19,-596.75 699.19,-637.75 790.69,-637.75 790.69,-596.75 699.19,-596.75"/>
<text text-anchor="middle" x="712.07" y="-612.45" font-family="Times,serif" font-size="14.00">A</text>
<polyline fill="none" stroke="black" points="724.94,-596.75 724.94,-637.75"/>
<text text-anchor="middle" x="744.94" y="-620.45" font-family="Times,serif" font-size="14.00">$96</text>
<text text-anchor="middle" x="744.94" y="-603.95" font-family="Times,serif" font-size="14.00">$not</text>
<polyline fill="none" stroke="black" points="764.94,-596.75 764.94,-637.75"/>
<text text-anchor="middle" x="777.82" y="-612.45" font-family="Times,serif" font-size="14.00">Y</text>
</g>
<!-- x10 -->
<g id="node19" class="node">
<title>x10</title>
<path fill="none" stroke="black" d="M1998.5,-594.25C1998.5,-594.25 2037,-594.25 2037,-594.25 2043,-594.25 2049,-600.25 2049,-606.25 2049,-606.25 2049,-618.25 2049,-618.25 2049,-624.25 2043,-630.25 2037,-630.25 2037,-630.25 1998.5,-630.25 1998.5,-630.25 1992.5,-630.25 1986.5,-624.25 1986.5,-618.25 1986.5,-618.25 1986.5,-606.25 1986.5,-606.25 1986.5,-600.25 1992.5,-594.25 1998.5,-594.25"/>
<text text-anchor="middle" x="2017.75" y="-607.45" font-family="Times,serif" font-size="14.00">0:0 &#45; 2:2</text>
</g>
<!-- c21&#45;&gt;x10 -->
<g id="edge10" class="edge">
<title>c21:e&#45;&gt;x10:w</title>
<path fill="none" stroke="black" d="M803.69,-617.44C881.68,-616.78 905.79,-610.25 989.87,-610.25 989.87,-610.25 989.87,-610.25 1777.12,-610.25 1865.31,-610.25 1890.51,-612.06 1972.67,-612.23"/>
<polygon fill="none" stroke="black" points="803.59,-617.44 797.61,-621.47 791.59,-617.49 797.58,-613.47 803.59,-617.44"/>
<polygon fill="none" stroke="black" points="1972.6,-612.23 1978.6,-608.24 1984.6,-612.24 1978.59,-616.24 1972.6,-612.23"/>
</g>
<!-- x9 -->
<g id="node18" class="node">
<title>x9</title>
<path fill="none" stroke="black" d="M595.94,-601.25C595.94,-601.25 634.44,-601.25 634.44,-601.25 640.44,-601.25 646.44,-607.25 646.44,-613.25 646.44,-613.25 646.44,-625.25 646.44,-625.25 646.44,-631.25 640.44,-637.25 634.44,-637.25 634.44,-637.25 595.94,-637.25 595.94,-637.25 589.94,-637.25 583.94,-631.25 583.94,-625.25 583.94,-625.25 583.94,-613.25 583.94,-613.25 583.94,-607.25 589.94,-601.25 595.94,-601.25"/>
<text text-anchor="middle" x="615.19" y="-614.45" font-family="Times,serif" font-size="14.00">2:2 &#45; 0:0</text>
</g>
<!-- x9&#45;&gt;c21 -->
<g id="edge9" class="edge">
<title>x9:e&#45;&gt;c21:w</title>
<path fill="none" stroke="black" d="M660.42,-619.03C670.03,-618.7 676.56,-618.05 686.16,-617.71"/>
<polygon fill="none" stroke="black" points="660.34,-619.03 654.41,-623.13 648.34,-619.23 654.28,-615.13 660.34,-619.03"/>
<polygon fill="none" stroke="black" points="686.29,-617.71 692.22,-613.61 698.29,-617.51 692.36,-621.61 686.29,-617.71"/>
</g>
<!-- x10&#45;&gt;n13 -->
<g id="edge54" class="edge">
<title>x10:e&#45;&gt;n13:w</title>
<path fill="none" stroke="black" d="M2050,-612.5C2136.52,-612.5 2158.1,-617.25 2244.62,-617.25 2244.62,-617.25 2244.62,-617.25 2904.95,-617.25 3043.58,-617.25 3081.08,-617.25 3214.17,-617.25"/>
<polygon fill="black" stroke="black" points="3214.11,-620.75 3224.11,-617.25 3214.11,-613.75 3214.11,-620.75"/>
</g>
<!-- c22 -->
<g id="node20" class="node">
<title>c22</title>
<polygon fill="none" stroke="black" points="567.94,-532.75 567.94,-581.75 662.44,-581.75 662.44,-532.75 567.94,-532.75"/>
<text text-anchor="middle" x="580.82" y="-564.45" font-family="Times,serif" font-size="14.00">A</text>
<polyline fill="none" stroke="black" points="567.94,-557.25 593.69,-557.25"/>
<text text-anchor="middle" x="580.82" y="-539.95" font-family="Times,serif" font-size="14.00">B</text>
<polyline fill="none" stroke="black" points="593.69,-532.75 593.69,-581.75"/>
<text text-anchor="middle" x="615.19" y="-560.45" font-family="Times,serif" font-size="14.00">$120</text>
<text text-anchor="middle" x="615.19" y="-543.95" font-family="Times,serif" font-size="14.00">$and</text>
<polyline fill="none" stroke="black" points="636.69,-532.75 636.69,-581.75"/>
<text text-anchor="middle" x="649.57" y="-552.45" font-family="Times,serif" font-size="14.00">Y</text>
</g>
<!-- x12 -->
<g id="node22" class="node">
<title>x12</title>
<path fill="none" stroke="black" d="M725.69,-503.25C725.69,-503.25 764.19,-503.25 764.19,-503.25 770.19,-503.25 776.19,-509.25 776.19,-515.25 776.19,-515.25 776.19,-527.25 776.19,-527.25 776.19,-533.25 770.19,-539.25 764.19,-539.25 764.19,-539.25 725.69,-539.25 725.69,-539.25 719.69,-539.25 713.69,-533.25 713.69,-527.25 713.69,-527.25 713.69,-515.25 713.69,-515.25 713.69,-509.25 719.69,-503.25 725.69,-503.25"/>
<text text-anchor="middle" x="744.94" y="-516.45" font-family="Times,serif" font-size="14.00">2:0 &#45; 2:0</text>
</g>
<!-- c22&#45;&gt;x12 -->
<g id="edge12" class="edge">
<title>c22:e&#45;&gt;x12:w</title>
<path fill="none" stroke="black" stroke-width="3" d="M675.55,-554.15C686.39,-547.28 689.41,-531.64 700.18,-524.69"/>
<polygon fill="none" stroke="black" stroke-width="3" points="677.38,-553.65 672.64,-559.08 665.8,-556.79 670.55,-551.36 677.38,-553.65"/>
<polygon fill="none" stroke="black" stroke-width="3" points="698.51,-525.15 703.24,-519.7 710.08,-521.96 705.36,-527.41 698.51,-525.15"/>
</g>
<!-- x11 -->
<g id="node21" class="node">
<title>x11</title>
<path fill="none" stroke="black" d="M1330.87,-524.25C1330.87,-524.25 1369.37,-524.25 1369.37,-524.25 1375.37,-524.25 1381.37,-530.25 1381.37,-536.25 1381.37,-536.25 1381.37,-548.25 1381.37,-548.25 1381.37,-554.25 1375.37,-560.25 1369.37,-560.25 1369.37,-560.25 1330.87,-560.25 1330.87,-560.25 1324.87,-560.25 1318.87,-554.25 1318.87,-548.25 1318.87,-548.25 1318.87,-536.25 1318.87,-536.25 1318.87,-530.25 1324.87,-524.25 1330.87,-524.25"/>
<text text-anchor="middle" x="1350.12" y="-537.45" font-family="Times,serif" font-size="14.00">2:0 &#45; 2:0</text>
</g>
<!-- x11&#45;&gt;c22 -->
<g id="edge11" class="edge">
<title>x11:e&#45;&gt;c22:w</title>
<path fill="none" stroke="black" stroke-width="3" d="M1385.54,-554.67C1384.49,-556.96 1383.03,-559.13 1381.37,-560.75 1338.78,-602.25 1173.34,-568.25 1113.87,-568.25 865.78,-568.25 865.78,-568.25 865.78,-568.25 775.19,-568.25 752.98,-579.13 662.44,-582.25 644.4,-582.87 598.96,-592.95 576.12,-578.63"/>
<polygon fill="none" stroke="black" stroke-width="3" points="1386.01,-556.49 1380.65,-551.67 1383.04,-544.87 1388.4,-549.69 1386.01,-556.49"/>
<polygon fill="none" stroke="black" stroke-width="3" points="577.36,-579.87 570.29,-578.47 568.86,-571.4 575.93,-572.8 577.36,-579.87"/>
</g>
<!-- n2 -->
<g id="node57" class="node">
<title>n2</title>
<ellipse fill="black" stroke="black" cx="866.78" cy="-521.25" rx="1.8" ry="1.8"/>
</g>
<!-- x12&#45;&gt;n2 -->
<g id="edge65" class="edge">
<title>x12:e&#45;&gt;n2:w</title>
<path fill="none" stroke="black" stroke-width="3" d="M777.19,-521.5C811.51,-521.5 822.8,-521.3 852.26,-521.25"/>
<polygon fill="black" stroke="black" stroke-width="3" points="848.97,-524.76 858.96,-521.25 848.96,-517.76 848.97,-524.76"/>
</g>
<!-- c23 -->
<g id="node23" class="node">
<title>c23</title>
<polygon fill="none" stroke="black" points="2198.37,-672.75 2198.37,-721.75 2292.87,-721.75 2292.87,-672.75 2198.37,-672.75"/>
<text text-anchor="middle" x="2211.25" y="-704.45" font-family="Times,serif" font-size="14.00">A</text>
<polyline fill="none" stroke="black" points="2198.37,-697.25 2224.12,-697.25"/>
<text text-anchor="middle" x="2211.25" y="-679.95" font-family="Times,serif" font-size="14.00">B</text>
<polyline fill="none" stroke="black" points="2224.12,-672.75 2224.12,-721.75"/>
<text text-anchor="middle" x="2245.62" y="-700.45" font-family="Times,serif" font-size="14.00">$123</text>
<text text-anchor="middle" x="2245.62" y="-683.95" font-family="Times,serif" font-size="14.00">$xor</text>
<polyline fill="none" stroke="black" points="2267.12,-672.75 2267.12,-721.75"/>
<text text-anchor="middle" x="2280" y="-692.45" font-family="Times,serif" font-size="14.00">Y</text>
</g>
<!-- x15 -->
<g id="node26" class="node">
<title>x15</title>
<path fill="none" stroke="black" d="M2340.87,-679.25C2340.87,-679.25 2379.37,-679.25 2379.37,-679.25 2385.37,-679.25 2391.37,-685.25 2391.37,-691.25 2391.37,-691.25 2391.37,-703.25 2391.37,-703.25 2391.37,-709.25 2385.37,-715.25 2379.37,-715.25 2379.37,-715.25 2340.87,-715.25 2340.87,-715.25 2334.87,-715.25 2328.87,-709.25 2328.87,-703.25 2328.87,-703.25 2328.87,-691.25 2328.87,-691.25 2328.87,-685.25 2334.87,-679.25 2340.87,-679.25"/>
<text text-anchor="middle" x="2360.12" y="-692.45" font-family="Times,serif" font-size="14.00">0:0 &#45; 0:0</text>
</g>
<!-- c23&#45;&gt;x15 -->
<g id="edge15" class="edge">
<title>c23:e&#45;&gt;x15:w</title>
<path fill="none" stroke="black" d="M2305.6,-697.43C2309.19,-697.4 2312.33,-697.35 2315.9,-697.31"/>
<polygon fill="none" stroke="black" points="2305.78,-697.43 2299.8,-701.46 2293.78,-697.49 2299.76,-693.46 2305.78,-697.43"/>
<polygon fill="none" stroke="black" points="2315.97,-697.31 2321.95,-693.28 2327.97,-697.25 2321.99,-701.28 2315.97,-697.31"/>
</g>
<!-- x13 -->
<g id="node24" class="node">
<title>x13</title>
<path fill="none" stroke="black" d="M2111.87,-695.25C2111.87,-695.25 2150.37,-695.25 2150.37,-695.25 2156.37,-695.25 2162.37,-701.25 2162.37,-707.25 2162.37,-707.25 2162.37,-719.25 2162.37,-719.25 2162.37,-725.25 2156.37,-731.25 2150.37,-731.25 2150.37,-731.25 2111.87,-731.25 2111.87,-731.25 2105.87,-731.25 2099.87,-725.25 2099.87,-719.25 2099.87,-719.25 2099.87,-707.25 2099.87,-707.25 2099.87,-701.25 2105.87,-695.25 2111.87,-695.25"/>
<text text-anchor="middle" x="2131.12" y="-708.45" font-family="Times,serif" font-size="14.00">0:0 &#45; 0:0</text>
</g>
<!-- x13&#45;&gt;c23 -->
<g id="edge13" class="edge">
<title>x13:e&#45;&gt;c23:w</title>
<path fill="none" stroke="black" d="M2175.12,-712.3C2178.7,-711.74 2181.82,-711.04 2185.38,-710.48"/>
<polygon fill="none" stroke="black" points="2175.24,-712.29 2169.55,-716.72 2163.27,-713.18 2168.96,-708.75 2175.24,-712.29"/>
<polygon fill="none" stroke="black" points="2185.51,-710.47 2191.19,-706.03 2197.48,-709.56 2191.8,-714.01 2185.51,-710.47"/>
</g>
<!-- x14 -->
<g id="node25" class="node">
<title>x14</title>
<path fill="none" stroke="black" d="M1429.37,-639.25C1429.37,-639.25 1467.87,-639.25 1467.87,-639.25 1473.87,-639.25 1479.87,-645.25 1479.87,-651.25 1479.87,-651.25 1479.87,-663.25 1479.87,-663.25 1479.87,-669.25 1473.87,-675.25 1467.87,-675.25 1467.87,-675.25 1429.37,-675.25 1429.37,-675.25 1423.37,-675.25 1417.37,-669.25 1417.37,-663.25 1417.37,-663.25 1417.37,-651.25 1417.37,-651.25 1417.37,-645.25 1423.37,-639.25 1429.37,-639.25"/>
<text text-anchor="middle" x="1448.62" y="-652.45" font-family="Times,serif" font-size="14.00">0:0 &#45; 0:0</text>
</g>
<!-- x14&#45;&gt;c23 -->
<g id="edge14" class="edge">
<title>x14:e&#45;&gt;c23:w</title>
<path fill="none" stroke="black" d="M1492.54,-657.29C1562.61,-657.78 1584.65,-662.25 1660.62,-662.25 1660.62,-662.25 1660.62,-662.25 2018.75,-662.25 2094.82,-662.25 2115.67,-682.58 2185.71,-684.8"/>
<polygon fill="none" stroke="black" points="1492.78,-657.29 1486.76,-661.27 1480.78,-657.25 1486.79,-653.27 1492.78,-657.29"/>
<polygon fill="none" stroke="black" points="2185.47,-684.8 2191.54,-680.89 2197.47,-684.98 2191.41,-688.89 2185.47,-684.8"/>
</g>
<!-- x15&#45;&gt;n11 -->
<g id="edge43" class="edge">
<title>x15:e&#45;&gt;n11:w</title>
<path fill="none" stroke="black" d="M2391.37,-697.5C2402.75,-697.5 2408.06,-697.37 2415.93,-697.3"/>
<polygon fill="black" stroke="black" points="2415.88,-700.8 2425.86,-697.25 2415.85,-693.8 2415.88,-700.8"/>
</g>
<!-- n3 -->
<g id="node58" class="node">
<title>n3</title>
<ellipse fill="black" stroke="black" cx="477.82" cy="-624.25" rx="1.8" ry="1.8"/>
</g>
<!-- c24&#45;&gt;n3 -->
<g id="edge69" class="edge">
<title>c24:e&#45;&gt;n3:w</title>
<path fill="none" stroke="black" stroke-width="3" d="M236.84,-651.5C339.23,-651.5 366.23,-626.23 463.03,-624.36"/>
<polygon fill="black" stroke="black" stroke-width="3" points="460.03,-627.88 470,-624.29 459.96,-620.88 460.03,-627.88"/>
</g>
<!-- c25&#45;&gt;c26 -->
<g id="edge75" class="edge">
<title>c25:e&#45;&gt;c26:w</title>
<path fill="none" stroke="black" stroke-width="3" d="M1935.62,-757.5C1951.51,-757.5 1952.07,-740.15 1961.01,-732.29"/>
<polygon fill="black" stroke="black" stroke-width="3" points="1959.11,-736.68 1967.35,-730.02 1956.75,-730.09 1959.11,-736.68"/>
</g>
<!-- x16 -->
<g id="node29" class="node">
<title>x16</title>
<path fill="none" stroke="black" d="M1756.87,-771.25C1756.87,-771.25 1795.37,-771.25 1795.37,-771.25 1801.37,-771.25 1807.37,-777.25 1807.37,-783.25 1807.37,-783.25 1807.37,-795.25 1807.37,-795.25 1807.37,-801.25 1801.37,-807.25 1795.37,-807.25 1795.37,-807.25 1756.87,-807.25 1756.87,-807.25 1750.87,-807.25 1744.87,-801.25 1744.87,-795.25 1744.87,-795.25 1744.87,-783.25 1744.87,-783.25 1744.87,-777.25 1750.87,-771.25 1756.87,-771.25"/>
<text text-anchor="middle" x="1776.12" y="-784.45" font-family="Times,serif" font-size="14.00">2:0 &#45; 2:0</text>
</g>
<!-- x16&#45;&gt;c25 -->
<g id="edge16" class="edge">
<title>x16:e&#45;&gt;c25:w</title>
<path fill="none" stroke="black" stroke-width="3" d="M1819.65,-785.06C1823.89,-781.71 1826.87,-777.03 1831.1,-773.68"/>
<polygon fill="none" stroke="black" stroke-width="3" points="1821.29,-784.5 1816.9,-790.22 1809.93,-788.37 1814.32,-782.65 1821.29,-784.5"/>
<polygon fill="none" stroke="black" stroke-width="3" points="1829.46,-774.24 1833.84,-768.52 1840.81,-770.37 1836.43,-776.09 1829.46,-774.24"/>
</g>
<!-- c26&#45;&gt;x13 -->
<g id="edge80" class="edge">
<title>c26:e&#45;&gt;x13:w</title>
<path fill="none" stroke="black" stroke-width="3" d="M2063.87,-716.5C2075.29,-716.5 2080.55,-714.98 2088.41,-714.1"/>
<polygon fill="black" stroke="black" stroke-width="3" points="2085.54,-717.76 2095.34,-713.74 2085.17,-710.77 2085.54,-717.76"/>
</g>
<!-- x18 -->
<g id="node33" class="node">
<title>x18</title>
<path fill="none" stroke="black" d="M718.94,-434.75C718.94,-434.75 770.94,-434.75 770.94,-434.75 776.94,-434.75 782.94,-440.75 782.94,-446.75 782.94,-446.75 782.94,-471.75 782.94,-471.75 782.94,-477.75 776.94,-483.75 770.94,-483.75 770.94,-483.75 718.94,-483.75 718.94,-483.75 712.94,-483.75 706.94,-477.75 706.94,-471.75 706.94,-471.75 706.94,-446.75 706.94,-446.75 706.94,-440.75 712.94,-434.75 718.94,-434.75"/>
<text text-anchor="middle" x="744.94" y="-466.45" font-family="Times,serif" font-size="14.00">18:3 &#45; 18:3</text>
<polyline fill="none" stroke="black" points="706.94,-459.25 782.94,-459.25"/>
<text text-anchor="middle" x="744.94" y="-441.95" font-family="Times,serif" font-size="14.00">2:0 &#45; 2:0</text>
</g>
<!-- c27&#45;&gt;x18 -->
<g id="edge18" class="edge">
<title>c27:e&#45;&gt;x18:w</title>
<path fill="none" stroke="black" stroke-width="3" d="M675.48,-437.08C682.66,-441.94 686.34,-450.59 693.45,-455.53"/>
<polygon fill="none" stroke="black" stroke-width="3" points="677.31,-437.61 670.43,-439.77 665.79,-434.25 672.67,-432.09 677.31,-437.61"/>
<polygon fill="none" stroke="black" stroke-width="3" points="691.85,-455.05 698.74,-452.93 703.35,-458.47 696.46,-460.6 691.85,-455.05"/>
</g>
<!-- x17 -->
<g id="node32" class="node">
<title>x17</title>
<path fill="none" stroke="black" d="M436.44,-264.75C436.44,-264.75 519.19,-264.75 519.19,-264.75 525.19,-264.75 531.19,-270.75 531.19,-276.75 531.19,-276.75 531.19,-301.75 531.19,-301.75 531.19,-307.75 525.19,-313.75 519.19,-313.75 519.19,-313.75 436.44,-313.75 436.44,-313.75 430.44,-313.75 424.44,-307.75 424.44,-301.75 424.44,-301.75 424.44,-276.75 424.44,-276.75 424.44,-270.75 430.44,-264.75 436.44,-264.75"/>
<text text-anchor="middle" x="477.82" y="-296.45" font-family="Times,serif" font-size="14.00">12x 18:18 &#45; 18:7</text>
<polyline fill="none" stroke="black" points="424.44,-289.25 531.19,-289.25"/>
<text text-anchor="middle" x="477.82" y="-271.95" font-family="Times,serif" font-size="14.00">6:0 &#45; 6:0</text>
</g>
<!-- x17&#45;&gt;c27 -->
<g id="edge17" class="edge">
<title>x17:e&#45;&gt;c27:w</title>
<path fill="none" stroke="black" stroke-width="3" d="M543.99,-291.58C584.55,-309.49 513.86,-425.18 554.36,-443.15"/>
<polygon fill="none" stroke="black" stroke-width="3" points="545.66,-291.88 539.04,-294.74 533.85,-289.73 540.47,-286.87 545.66,-291.88"/>
<polygon fill="none" stroke="black" stroke-width="3" points="552.73,-442.85 559.35,-440 564.53,-445.01 557.91,-447.87 552.73,-442.85"/>
</g>
<!-- x18&#45;&gt;n2 -->
<g id="edge66" class="edge">
<title>x18:e&#45;&gt;n2:w</title>
<path fill="none" stroke="black" stroke-width="3" d="M783.94,-471.5C821.41,-471.5 822.11,-511.65 852.11,-519.81"/>
<polygon fill="black" stroke="black" stroke-width="3" points="848.64,-522.9 859,-520.68 849.52,-515.96 848.64,-522.9"/>
</g>
<!-- n9 -->
<g id="node61" class="node">
<title>n9</title>
<ellipse fill="black" stroke="black" cx="1234.87" cy="-521.25" rx="1.8" ry="1.8"/>
</g>
<!-- x18&#45;&gt;n9 -->
<g id="edge84" class="edge">
<title>x18:e&#45;&gt;n9:w</title>
<path fill="none" stroke="black" stroke-width="3" d="M783.94,-447C948.31,-447 990.82,-455.83 1150.87,-493.25 1183.81,-500.94 1191.99,-517.14 1220.21,-520.59"/>
<polygon fill="black" stroke="black" stroke-width="3" points="1216.88,-523.9 1227.06,-520.98 1217.28,-516.92 1216.88,-523.9"/>
</g>
<!-- v19 -->
<g id="node34" class="node">
<title>v19</title>
<ellipse fill="none" stroke="black" cx="866.78" cy="-826.25" rx="35.49" ry="18"/>
<text text-anchor="middle" x="866.78" y="-821.2" font-family="Times,serif" font-size="14.00">4&#39;1001</text>
</g>
<!-- c28 -->
<g id="node35" class="node">
<title>c28</title>
<polygon fill="none" stroke="black" points="942.87,-808.75 942.87,-857.75 1038.87,-857.75 1038.87,-808.75 942.87,-808.75"/>
<text text-anchor="middle" x="955.75" y="-840.45" font-family="Times,serif" font-size="14.00">A</text>
<polyline fill="none" stroke="black" points="942.87,-833.25 968.62,-833.25"/>
<text text-anchor="middle" x="955.75" y="-815.95" font-family="Times,serif" font-size="14.00">B</text>
<polyline fill="none" stroke="black" points="968.62,-808.75 968.62,-857.75"/>
<text text-anchor="middle" x="990.87" y="-836.45" font-family="Times,serif" font-size="14.00">$7</text>
<text text-anchor="middle" x="990.87" y="-819.95" font-family="Times,serif" font-size="14.00">$mul</text>
<polyline fill="none" stroke="black" points="1013.12,-808.75 1013.12,-857.75"/>
<text text-anchor="middle" x="1026" y="-828.45" font-family="Times,serif" font-size="14.00">Y</text>
</g>
<!-- v19&#45;&gt;c28 -->
<g id="edge88" class="edge">
<title>v19:e&#45;&gt;c28:w</title>
<path fill="none" stroke="black" stroke-width="3" d="M903.6,-826.25C916.67,-826.25 922.27,-823.35 931.49,-821.86"/>
<polygon fill="black" stroke="black" stroke-width="3" points="928.64,-825.59 938.35,-821.34 928.11,-818.61 928.64,-825.59"/>
</g>
<!-- c28&#45;&gt;x20 -->
<g id="edge74" class="edge">
<title>c28:e&#45;&gt;x20:w</title>
<path fill="none" stroke="black" stroke-width="3" d="M1038.87,-833.5C1051.13,-833.5 1055.68,-839.83 1063.72,-843.29"/>
<polygon fill="black" stroke="black" stroke-width="3" points="1059.93,-846.12 1070.42,-844.62 1061.29,-839.25 1059.93,-846.12"/>
</g>
<!-- x21 -->
<g id="node38" class="node">
<title>x21</title>
<path fill="none" stroke="black" d="M1330.87,-780.75C1330.87,-780.75 1369.37,-780.75 1369.37,-780.75 1375.37,-780.75 1381.37,-786.75 1381.37,-792.75 1381.37,-792.75 1381.37,-817.75 1381.37,-817.75 1381.37,-823.75 1375.37,-829.75 1369.37,-829.75 1369.37,-829.75 1330.87,-829.75 1330.87,-829.75 1324.87,-829.75 1318.87,-823.75 1318.87,-817.75 1318.87,-817.75 1318.87,-792.75 1318.87,-792.75 1318.87,-786.75 1324.87,-780.75 1330.87,-780.75"/>
<text text-anchor="middle" x="1350.12" y="-812.45" font-family="Times,serif" font-size="14.00">8:3 &#45; 5:0</text>
<polyline fill="none" stroke="black" points="1318.87,-805.25 1381.37,-805.25"/>
<text text-anchor="middle" x="1350.12" y="-787.95" font-family="Times,serif" font-size="14.00">2:0 &#45; 2:0</text>
</g>
<!-- c29&#45;&gt;x21 -->
<g id="edge20" class="edge">
<title>c29:e&#45;&gt;x21:w</title>
<path fill="none" stroke="black" stroke-width="3" d="M1295.6,-805.43C1299.19,-805.4 1302.33,-805.35 1305.9,-805.31"/>
<polygon fill="none" stroke="black" stroke-width="3" points="1297.58,-805.42 1291.6,-809.45 1285.58,-805.48 1291.56,-801.45 1297.58,-805.42"/>
<polygon fill="none" stroke="black" stroke-width="3" points="1304.17,-805.32 1310.15,-801.29 1316.17,-805.26 1310.19,-809.29 1304.17,-805.32"/>
</g>
<!-- x20&#45;&gt;c29 -->
<g id="edge19" class="edge">
<title>x20:e&#45;&gt;c29:w</title>
<path fill="none" stroke="black" stroke-width="3" d="M1163.2,-829.75C1167.31,-827.14 1170.45,-823.59 1174.56,-820.98"/>
<polygon fill="none" stroke="black" stroke-width="3" points="1165.02,-829.23 1160.34,-834.72 1153.48,-832.51 1158.16,-827.02 1165.02,-829.23"/>
<polygon fill="none" stroke="black" stroke-width="3" points="1172.73,-821.5 1177.41,-816.02 1184.27,-818.23 1179.59,-823.72 1172.73,-821.5"/>
</g>
<!-- n6 -->
<g id="node59" class="node">
<title>n6</title>
<ellipse fill="black" stroke="black" cx="1448.62" cy="-854.25" rx="1.8" ry="1.8"/>
</g>
<!-- x21&#45;&gt;n6 -->
<g id="edge76" class="edge">
<title>x21:e&#45;&gt;n6:w</title>
<path fill="none" stroke="black" stroke-width="3" d="M1381.37,-817.5C1409.94,-817.5 1412.4,-845.38 1434.23,-852.57"/>
<polygon fill="black" stroke="black" stroke-width="3" points="1430.45,-855.54 1440.86,-853.57 1431.49,-848.62 1430.45,-855.54"/>
</g>
<!-- n8 -->
<g id="node60" class="node">
<title>n8</title>
<ellipse fill="black" stroke="black" cx="1661.62" cy="-789.25" rx="1.8" ry="1.8"/>
</g>
<!-- x21&#45;&gt;n8 -->
<g id="edge81" class="edge">
<title>x21:e&#45;&gt;n8:w</title>
<path fill="none" stroke="black" stroke-width="3" d="M1381.37,-793C1500.64,-793 1533.22,-789.48 1647.07,-789.26"/>
<polygon fill="black" stroke="black" stroke-width="3" points="1643.81,-792.76 1653.81,-789.25 1643.8,-785.76 1643.81,-792.76"/>
</g>
<!-- c30 -->
<g id="node39" class="node">
<title>c30</title>
<polygon fill="none" stroke="black" points="2858.2,-645.75 2858.2,-686.75 2949.7,-686.75 2949.7,-645.75 2858.2,-645.75"/>
<text text-anchor="middle" x="2871.08" y="-661.45" font-family="Times,serif" font-size="14.00">A</text>
<polyline fill="none" stroke="black" points="2883.95,-645.75 2883.95,-686.75"/>
<text text-anchor="middle" x="2903.95" y="-669.45" font-family="Times,serif" font-size="14.00">$35</text>
<text text-anchor="middle" x="2903.95" y="-652.95" font-family="Times,serif" font-size="14.00">$not</text>
<polyline fill="none" stroke="black" points="2923.95,-645.75 2923.95,-686.75"/>
<text text-anchor="middle" x="2936.83" y="-661.45" font-family="Times,serif" font-size="14.00">Y</text>
</g>
<!-- x23 -->
<g id="node41" class="node">
<title>x23</title>
<path fill="none" stroke="black" d="M3132.38,-647.25C3132.38,-647.25 3170.88,-647.25 3170.88,-647.25 3176.88,-647.25 3182.88,-653.25 3182.88,-659.25 3182.88,-659.25 3182.88,-671.25 3182.88,-671.25 3182.88,-677.25 3176.88,-683.25 3170.88,-683.25 3170.88,-683.25 3132.38,-683.25 3132.38,-683.25 3126.38,-683.25 3120.38,-677.25 3120.38,-671.25 3120.38,-671.25 3120.38,-659.25 3120.38,-659.25 3120.38,-653.25 3126.38,-647.25 3132.38,-647.25"/>
<text text-anchor="middle" x="3151.63" y="-660.45" font-family="Times,serif" font-size="14.00">0:0 &#45; 0:0</text>
</g>
<!-- c30&#45;&gt;x23 -->
<g id="edge22" class="edge">
<title>c30:e&#45;&gt;x23:w</title>
<path fill="none" stroke="black" d="M2963.73,-666.48C3023.99,-666.36 3046.09,-665.38 3106.35,-665.26"/>
<polygon fill="none" stroke="black" points="2963.6,-666.48 2957.61,-670.49 2951.6,-666.49 2957.6,-662.49 2963.6,-666.48"/>
<polygon fill="none" stroke="black" points="3106.48,-665.26 3112.47,-661.25 3118.48,-665.25 3112.48,-669.25 3106.48,-665.26"/>
</g>
<!-- x22&#45;&gt;c30 -->
<g id="edge21" class="edge">
<title>x22:e&#45;&gt;c30:w</title>
<path fill="none" stroke="black" d="M2707.25,-667.24C2765.05,-667.16 2786.46,-666.58 2844.28,-666.5"/>
<polygon fill="none" stroke="black" points="2707.18,-667.24 2701.18,-671.24 2695.18,-667.24 2701.18,-663.24 2707.18,-667.24"/>
<polygon fill="none" stroke="black" points="2844.3,-666.5 2850.3,-662.5 2856.3,-666.5 2850.3,-670.5 2844.3,-666.5"/>
</g>
<!-- x23&#45;&gt;n13 -->
<g id="edge55" class="edge">
<title>x23:e&#45;&gt;n13:w</title>
<path fill="none" stroke="black" d="M3183.88,-665.5C3207.58,-665.5 3201.01,-631.78 3214.79,-620.72"/>
<polygon fill="black" stroke="black" points="3215.73,-624.09 3224.19,-617.71 3213.59,-617.42 3215.73,-624.09"/>
</g>
<!-- x24 -->
<g id="node43" class="node">
<title>x24</title>
<path fill="none" stroke="black" d="M284.84,-312.5C284.84,-312.5 336.84,-312.5 336.84,-312.5 342.84,-312.5 348.84,-318.5 348.84,-324.5 348.84,-324.5 348.84,-374 348.84,-374 348.84,-380 342.84,-386 336.84,-386 336.84,-386 284.84,-386 284.84,-386 278.84,-386 272.84,-380 272.84,-374 272.84,-374 272.84,-324.5 272.84,-324.5 272.84,-318.5 278.84,-312.5 284.84,-312.5"/>
<text text-anchor="middle" x="310.84" y="-368.7" font-family="Times,serif" font-size="14.00">3:3 &#45; 18:18</text>
<polyline fill="none" stroke="black" points="272.84,-361.5 348.84,-361.5"/>
<text text-anchor="middle" x="310.84" y="-344.2" font-family="Times,serif" font-size="14.00">2:2 &#45; 2:2</text>
<polyline fill="none" stroke="black" points="272.84,-337 348.84,-337"/>
<text text-anchor="middle" x="310.84" y="-319.7" font-family="Times,serif" font-size="14.00">1:0 &#45; 1:0</text>
</g>
<!-- c31&#45;&gt;x24 -->
<g id="edge23" class="edge">
<title>c31:e&#45;&gt;x24:w</title>
<path fill="none" stroke="black" stroke-width="3" d="M249.53,-539.72C305.28,-521.51 204.48,-369.41 260.06,-351.06"/>
<polygon fill="none" stroke="black" stroke-width="3" points="251.4,-539.45 246.02,-544.25 239.52,-541.12 244.9,-536.32 251.4,-539.45"/>
<polygon fill="none" stroke="black" stroke-width="3" points="258.28,-351.31 263.66,-346.51 270.16,-349.62 264.78,-354.43 258.28,-351.31"/>
</g>
<!-- x24&#45;&gt;n1 -->
<g id="edge28" class="edge">
<title>x24:e&#45;&gt;n1:w</title>
<path fill="none" stroke="black" stroke-width="3" d="M348.84,-324.75C406.77,-324.75 334.25,-207.63 373.83,-191.16"/>
<polygon fill="black" stroke="black" stroke-width="3" points="371.12,-195.19 380.37,-190.02 369.92,-188.29 371.12,-195.19"/>
</g>
<!-- n10 -->
<g id="node56" class="node">
<title>n10</title>
<ellipse fill="black" stroke="black" cx="744.94" cy="-253.25" rx="1.8" ry="1.8"/>
</g>
<!-- x24&#45;&gt;n10 -->
<g id="edge36" class="edge">
<title>x24:e&#45;&gt;n10:w</title>
<path fill="none" stroke="black" d="M348.84,-349.25C430.7,-349.25 451.51,-342.02 531.19,-323.25 575.79,-312.74 676.78,-261.27 730.36,-254.08"/>
<polygon fill="black" stroke="black" points="730.44,-257.58 740.15,-253.36 729.92,-250.6 730.44,-257.58"/>
</g>
<!-- x24&#45;&gt;n10 -->
<g id="edge37" class="edge">
<title>x24:e&#45;&gt;n10:w</title>
<path fill="none" stroke="black" d="M348.84,-373.75C491.74,-373.75 534.59,-368.53 663.19,-306.25 697.37,-289.69 699.49,-259.86 730.5,-254.19"/>
<polygon fill="black" stroke="black" points="730.49,-257.7 740.15,-253.37 729.9,-250.73 730.49,-257.7"/>
</g>
<!-- x25 -->
<g id="node44" class="node">
<title>x25</title>
<path fill="none" stroke="black" d="M1527.87,-809.25C1527.87,-809.25 1566.37,-809.25 1566.37,-809.25 1572.37,-809.25 1578.37,-815.25 1578.37,-821.25 1578.37,-821.25 1578.37,-833.25 1578.37,-833.25 1578.37,-839.25 1572.37,-845.25 1566.37,-845.25 1566.37,-845.25 1527.87,-845.25 1527.87,-845.25 1521.87,-845.25 1515.87,-839.25 1515.87,-833.25 1515.87,-833.25 1515.87,-821.25 1515.87,-821.25 1515.87,-815.25 1521.87,-809.25 1527.87,-809.25"/>
<text text-anchor="middle" x="1547.12" y="-822.45" font-family="Times,serif" font-size="14.00">5:0 &#45; 8:3</text>
</g>
<!-- x25&#45;&gt;n8 -->
<g id="edge82" class="edge">
<title>x25:e&#45;&gt;n8:w</title>
<path fill="none" stroke="black" stroke-width="3" d="M1578.37,-827.5C1613.62,-827.5 1618.27,-796.89 1647.07,-790.43"/>
<polygon fill="black" stroke="black" stroke-width="3" points="1644.25,-794.25 1653.83,-789.72 1643.52,-787.29 1644.25,-794.25"/>
</g>
<!-- x26 -->
<g id="node45" class="node">
<title>x26</title>
<path fill="none" stroke="black" d="M964.87,-503.25C964.87,-503.25 1016.87,-503.25 1016.87,-503.25 1022.87,-503.25 1028.87,-509.25 1028.87,-515.25 1028.87,-515.25 1028.87,-527.25 1028.87,-527.25 1028.87,-533.25 1022.87,-539.25 1016.87,-539.25 1016.87,-539.25 964.87,-539.25 964.87,-539.25 958.87,-539.25 952.87,-533.25 952.87,-527.25 952.87,-527.25 952.87,-515.25 952.87,-515.25 952.87,-509.25 958.87,-503.25 964.87,-503.25"/>
<text text-anchor="middle" x="990.87" y="-516.45" font-family="Times,serif" font-size="14.00">18:3 &#45; 15:0</text>
</g>
<!-- x27 -->
<g id="node46" class="node">
<title>x27</title>
<path fill="none" stroke="black" d="M1086.87,-503.25C1086.87,-503.25 1138.87,-503.25 1138.87,-503.25 1144.87,-503.25 1150.87,-509.25 1150.87,-515.25 1150.87,-515.25 1150.87,-527.25 1150.87,-527.25 1150.87,-533.25 1144.87,-539.25 1138.87,-539.25 1138.87,-539.25 1086.87,-539.25 1086.87,-539.25 1080.87,-539.25 1074.87,-533.25 1074.87,-527.25 1074.87,-527.25 1074.87,-515.25 1074.87,-515.25 1074.87,-509.25 1080.87,-503.25 1086.87,-503.25"/>
<text text-anchor="middle" x="1112.87" y="-516.45" font-family="Times,serif" font-size="14.00">15:0 &#45; 18:3</text>
</g>
<!-- x26&#45;&gt;x27 -->
<g id="edge24" class="edge">
<title>x26:e&#45;&gt;x27:w</title>
<path fill="none" stroke="black" stroke-width="3" d="M1042.87,-521.25C1049.81,-521.25 1055.03,-521.25 1062,-521.25"/>
<polygon fill="none" stroke="black" stroke-width="3" points="1044.58,-521.25 1038.58,-525.25 1032.58,-521.25 1038.58,-517.25 1044.58,-521.25"/>
<polygon fill="none" stroke="black" stroke-width="3" points="1060.17,-521.25 1066.17,-517.25 1072.17,-521.25 1066.17,-525.25 1060.17,-521.25"/>
</g>
<!-- x27&#45;&gt;n9 -->
<g id="edge85" class="edge">
<title>x27:e&#45;&gt;n9:w</title>
<path fill="none" stroke="black" stroke-width="3" d="M1150.87,-521.5C1182.69,-521.5 1193.34,-521.3 1220.36,-521.25"/>
<polygon fill="black" stroke="black" stroke-width="3" points="1217.06,-524.76 1227.06,-521.25 1217.05,-517.76 1217.06,-524.76"/>
</g>
<!-- x28 -->
<g id="node47" class="node">
<title>x28</title>
<path fill="none" stroke="black" d="M436.44,-196.75C436.44,-196.75 519.19,-196.75 519.19,-196.75 525.19,-196.75 531.19,-202.75 531.19,-208.75 531.19,-208.75 531.19,-233.75 531.19,-233.75 531.19,-239.75 525.19,-245.75 519.19,-245.75 519.19,-245.75 436.44,-245.75 436.44,-245.75 430.44,-245.75 424.44,-239.75 424.44,-233.75 424.44,-233.75 424.44,-208.75 424.44,-208.75 424.44,-202.75 430.44,-196.75 436.44,-196.75"/>
<text text-anchor="middle" x="477.82" y="-228.45" font-family="Times,serif" font-size="14.00">15x 18:18 &#45; 16:2</text>
<polyline fill="none" stroke="black" points="424.44,-221.25 531.19,-221.25"/>
<text text-anchor="middle" x="477.82" y="-203.95" font-family="Times,serif" font-size="14.00">1:0 &#45; 1:0</text>
</g>
<!-- x29 -->
<g id="node48" class="node">
<title>x29</title>
<path fill="none" stroke="black" d="M589.19,-196.75C589.19,-196.75 641.19,-196.75 641.19,-196.75 647.19,-196.75 653.19,-202.75 653.19,-208.75 653.19,-208.75 653.19,-233.75 653.19,-233.75 653.19,-239.75 647.19,-245.75 641.19,-245.75 641.19,-245.75 589.19,-245.75 589.19,-245.75 583.19,-245.75 577.19,-239.75 577.19,-233.75 577.19,-233.75 577.19,-208.75 577.19,-208.75 577.19,-202.75 583.19,-196.75 589.19,-196.75"/>
<text text-anchor="middle" x="615.19" y="-228.45" font-family="Times,serif" font-size="14.00">16:2 &#45; 17:3</text>
<polyline fill="none" stroke="black" points="577.19,-221.25 653.19,-221.25"/>
<text text-anchor="middle" x="615.19" y="-203.95" font-family="Times,serif" font-size="14.00">1:0 &#45; 1:0</text>
</g>
<!-- x28&#45;&gt;x29 -->
<g id="edge25" class="edge">
<title>x28:e&#45;&gt;x29:w</title>
<path fill="none" stroke="black" stroke-width="3" d="M544.18,-221.25C551.13,-221.25 556.35,-221.25 563.31,-221.25"/>
<polygon fill="none" stroke="black" stroke-width="3" points="545.9,-221.25 539.9,-225.25 533.9,-221.25 539.9,-217.25 545.9,-221.25"/>
<polygon fill="none" stroke="black" stroke-width="3" points="561.49,-221.25 567.49,-217.25 573.49,-221.25 567.49,-225.25 561.49,-221.25"/>
</g>
<!-- x29&#45;&gt;n10 -->
<g id="edge38" class="edge">
<title>x29:e&#45;&gt;n10:w</title>
<path fill="none" stroke="black" stroke-width="3" d="M654.19,-209C693.67,-209 697.65,-245.34 730.48,-252.15"/>
<polygon fill="black" stroke="black" stroke-width="3" points="726.85,-255.31 737.14,-252.8 727.53,-248.35 726.85,-255.31"/>
</g>
<!-- x29&#45;&gt;n10 -->
<g id="edge39" class="edge">
<title>x29:e&#45;&gt;n10:w</title>
<path fill="none" stroke="black" stroke-width="3" d="M654.19,-233.5C690,-233.5 699.9,-249.44 730.45,-252.68"/>
<polygon fill="black" stroke="black" stroke-width="3" points="726.96,-256 737.13,-253.02 727.32,-249.01 726.96,-256"/>
</g>
<!-- x31 -->
<g id="node50" class="node">
<title>x31</title>
<path fill="none" stroke="black" d="M3497.44,-711.25C3497.44,-711.25 3549.44,-711.25 3549.44,-711.25 3555.44,-711.25 3561.44,-717.25 3561.44,-723.25 3561.44,-723.25 3561.44,-735.25 3561.44,-735.25 3561.44,-741.25 3555.44,-747.25 3549.44,-747.25 3549.44,-747.25 3497.44,-747.25 3497.44,-747.25 3491.44,-747.25 3485.44,-741.25 3485.44,-735.25 3485.44,-735.25 3485.44,-723.25 3485.44,-723.25 3485.44,-717.25 3491.44,-711.25 3497.44,-711.25"/>
<text text-anchor="middle" x="3523.44" y="-724.45" font-family="Times,serif" font-size="14.00">17:0 &#45; 18:1</text>
</g>
<!-- x30&#45;&gt;x31 -->
<g id="edge26" class="edge">
<title>x30:e&#45;&gt;x31:w</title>
<path fill="none" stroke="black" stroke-width="3" d="M3461.44,-658.71C3474.16,-672.08 3460.68,-711.68 3473.55,-724.9"/>
<polygon fill="none" stroke="black" stroke-width="3" points="3463.22,-659.37 3456.2,-661.03 3451.97,-655.19 3458.99,-653.53 3463.22,-659.37"/>
<polygon fill="none" stroke="black" stroke-width="3" points="3471.63,-724.19 3478.64,-722.5 3482.9,-728.32 3475.89,-730.01 3471.63,-724.19"/>
</g>
<!-- x31&#45;&gt;n11 -->
<g id="edge44" class="edge">
<title>x31:e&#45;&gt;n11:w</title>
<path fill="none" stroke="black" stroke-width="3" d="M3562.44,-729.5C3570.56,-729.5 3567.34,-742.16 3561.44,-747.75 3536.91,-770.97 3519.21,-748.26 3485.44,-747.75 3426.52,-746.84 2467.46,-756.39 2425.28,-715.25 2423.31,-713.32 2421.62,-710.59 2420.59,-707.84"/>
<polygon fill="black" stroke="black" stroke-width="3" points="2422.81,-712.13 2422.79,-701.53 2416.2,-709.83 2422.81,-712.13"/>
</g>
<!-- v32 -->
<g id="node51" class="node">
<title>v32</title>
<ellipse fill="none" stroke="black" cx="2903.95" cy="-552.25" rx="173.67" ry="18"/>
<text text-anchor="middle" x="2903.95" y="-547.2" font-family="Times,serif" font-size="14.00">33&#39;000000000000000000000000000000000</text>
</g>
<!-- x33 -->
<g id="node52" class="node">
<title>x33</title>
<path fill="none" stroke="black" d="M3125.63,-515.5C3125.63,-515.5 3177.63,-515.5 3177.63,-515.5 3183.63,-515.5 3189.63,-521.5 3189.63,-527.5 3189.63,-527.5 3189.63,-577 3189.63,-577 3189.63,-583 3183.63,-589 3177.63,-589 3177.63,-589 3125.63,-589 3125.63,-589 3119.63,-589 3113.63,-583 3113.63,-577 3113.63,-577 3113.63,-527.5 3113.63,-527.5 3113.63,-521.5 3119.63,-515.5 3125.63,-515.5"/>
<text text-anchor="middle" x="3151.63" y="-571.7" font-family="Times,serif" font-size="14.00">32:4 &#45; 37:9</text>
<polyline fill="none" stroke="black" points="3113.63,-564.5 3189.63,-564.5"/>
<text text-anchor="middle" x="3151.63" y="-547.2" font-family="Times,serif" font-size="14.00">3:1 &#45; 7:5</text>
<polyline fill="none" stroke="black" points="3113.63,-540 3189.63,-540"/>
<text text-anchor="middle" x="3151.63" y="-522.7" font-family="Times,serif" font-size="14.00">0:0 &#45; 3:3</text>
</g>
<!-- v32&#45;&gt;x33 -->
<g id="edge89" class="edge">
<title>v32:e&#45;&gt;x33:w</title>
<path fill="none" stroke="black" stroke-width="3" d="M3077.63,-552.25C3089,-552.25 3094.31,-552.25 3102.18,-552.25"/>
<polygon fill="black" stroke="black" stroke-width="3" points="3099.09,-555.75 3109.09,-552.25 3099.09,-548.75 3099.09,-555.75"/>
</g>
<!-- x33&#45;&gt;n13 -->
<g id="edge56" class="edge">
<title>x33:e&#45;&gt;n13:w</title>
<path fill="none" stroke="black" d="M3189.63,-527.75C3227.81,-527.75 3192.53,-598.74 3214.64,-614.27"/>
<polygon fill="black" stroke="black" points="3213.6,-617.61 3224.17,-616.85 3215.43,-610.86 3213.6,-617.61"/>
</g>
<!-- x33&#45;&gt;n13 -->
<g id="edge57" class="edge">
<title>x33:e&#45;&gt;n13:w</title>
<path fill="none" stroke="black" stroke-width="3" d="M3189.63,-552.25C3218.01,-552.25 3199.81,-600.25 3215.09,-613.75"/>
<polygon fill="black" stroke="black" stroke-width="3" points="3210.72,-615.99 3221.32,-615.82 3212.93,-609.35 3210.72,-615.99"/>
</g>
<!-- x33&#45;&gt;n13 -->
<g id="edge58" class="edge">
<title>x33:e&#45;&gt;n13:w</title>
<path fill="none" stroke="black" stroke-width="3" d="M3189.63,-576.75C3209.01,-576.75 3204.91,-602.97 3215.12,-613.21"/>
<polygon fill="black" stroke="black" stroke-width="3" points="3210.8,-615.3 3221.39,-615.62 3213.31,-608.77 3210.8,-615.3"/>
</g>
<!-- x34 -->
<g id="node53" class="node">
<title>x34</title>
<path fill="none" stroke="black" d="M436.44,-65.25C436.44,-65.25 519.19,-65.25 519.19,-65.25 525.19,-65.25 531.19,-71.25 531.19,-77.25 531.19,-77.25 531.19,-89.25 531.19,-89.25 531.19,-95.25 525.19,-101.25 519.19,-101.25 519.19,-101.25 436.44,-101.25 436.44,-101.25 430.44,-101.25 424.44,-95.25 424.44,-89.25 424.44,-89.25 424.44,-77.25 424.44,-77.25 424.44,-71.25 430.44,-65.25 436.44,-65.25"/>
<text text-anchor="middle" x="477.82" y="-78.45" font-family="Times,serif" font-size="14.00">11x 18:18 &#45; 10:0</text>
</g>
<!-- x35 -->
<g id="node54" class="node">
<title>x35</title>
<path fill="none" stroke="black" d="M589.19,-84.25C589.19,-84.25 641.19,-84.25 641.19,-84.25 647.19,-84.25 653.19,-90.25 653.19,-96.25 653.19,-96.25 653.19,-108.25 653.19,-108.25 653.19,-114.25 647.19,-120.25 641.19,-120.25 641.19,-120.25 589.19,-120.25 589.19,-120.25 583.19,-120.25 577.19,-114.25 577.19,-108.25 577.19,-108.25 577.19,-96.25 577.19,-96.25 577.19,-90.25 583.19,-84.25 589.19,-84.25"/>
<text text-anchor="middle" x="615.19" y="-97.45" font-family="Times,serif" font-size="14.00">10:0 &#45; 17:7</text>
</g>
<!-- x34&#45;&gt;x35 -->
<g id="edge27" class="edge">
<title>x34:e&#45;&gt;x35:w</title>
<path fill="none" stroke="black" stroke-width="3" d="M543.66,-85.89C551.28,-89.48 555.94,-95.86 563.51,-99.5"/>
<polygon fill="none" stroke="black" stroke-width="3" points="545.58,-86.29 538.88,-88.96 533.84,-83.81 540.54,-81.14 545.58,-86.29"/>
<polygon fill="none" stroke="black" stroke-width="3" points="561.82,-99.14 568.53,-96.5 573.55,-101.67 566.84,-104.31 561.82,-99.14"/>
</g>
<!-- x35&#45;&gt;n1 -->
<g id="edge31" class="edge">
<title>x35:e&#45;&gt;n1:w</title>
<path fill="none" stroke="black" stroke-width="3" d="M654.19,-102.5C662.31,-102.5 658.67,-114.75 653.19,-120.75 583.9,-196.62 516.01,-107.63 424.44,-154.25 404.05,-164.63 409.53,-182.17 388.44,-191.05 388.34,-191.09 388.24,-191.13 388.14,-191.17"/>
<polygon fill="black" stroke="black" stroke-width="3" points="398.16,-191.44 387.57,-190.94 395.54,-197.93 398.16,-191.44"/>
</g>
<!-- n1&#45;&gt;x17 -->
<g id="edge32" class="edge">
<title>n1:e&#45;&gt;x17:w</title>
<path fill="none" stroke="black" stroke-width="3" d="M388.44,-189.25C425.98,-189.25 391.77,-258.85 413.62,-274.08"/>
<polygon fill="black" stroke="black" stroke-width="3" points="409.49,-276.59 420.06,-275.81 411.31,-269.83 409.49,-276.59"/>
</g>
<!-- n1&#45;&gt;x17 -->
<g id="edge33" class="edge">
<title>n1:e&#45;&gt;x17:w</title>
<path fill="none" stroke="black" stroke-width="3" d="M388.44,-189.25C436.33,-189.25 382.98,-283.03 413.46,-299.15"/>
<polygon fill="black" stroke="black" stroke-width="3" points="409.49,-301.88 420,-300.55 410.95,-295.04 409.49,-301.88"/>
</g>
<!-- n1&#45;&gt;x28 -->
<g id="edge34" class="edge">
<title>n1:e&#45;&gt;x28:w</title>
<path fill="none" stroke="black" stroke-width="3" d="M388.44,-189.25C401.99,-189.25 405.2,-200.12 413.42,-205.73"/>
<polygon fill="black" stroke="black" stroke-width="3" points="409.5,-208.22 420.09,-207.71 411.49,-201.51 409.5,-208.22"/>
</g>
<!-- n1&#45;&gt;x34 -->
<g id="edge35" class="edge">
<title>n1:e&#45;&gt;x34:w</title>
<path fill="none" stroke="black" stroke-width="3" d="M388.44,-189.25C433.44,-189.25 385.67,-102.39 413.27,-86.11"/>
<polygon fill="black" stroke="black" stroke-width="3" points="411.08,-90.22 420.02,-84.53 409.49,-83.4 411.08,-90.22"/>
</g>
<!-- n10&#45;&gt;x0 -->
<g id="edge40" class="edge">
<title>n10:e&#45;&gt;x0:w</title>
<path fill="none" stroke="black" d="M748.22,-253.25C781,-253.25 789.14,-234.18 816.33,-229.86"/>
<polygon fill="black" stroke="black" points="816.56,-233.35 826.27,-229.11 816.04,-226.37 816.56,-233.35"/>
</g>
<!-- n10&#45;&gt;x0 -->
<g id="edge41" class="edge">
<title>n10:e&#45;&gt;x0:w</title>
<path fill="none" stroke="black" d="M748.22,-253.25C779.44,-253.25 789.98,-253.44 816.36,-253.49"/>
<polygon fill="black" stroke="black" points="816.27,-256.99 826.27,-253.49 816.27,-249.99 816.27,-256.99"/>
</g>
<!-- n10&#45;&gt;x28 -->
<g id="edge42" class="edge">
<title>n10:e&#45;&gt;x28:w</title>
<path fill="none" stroke="black" stroke-width="3" d="M748.22,-253.25C749.13,-253.25 748.01,-254.58 747.22,-255.05 715.05,-274.02 700.54,-255.2 663.19,-255.25 620.52,-255.3 609.84,-256.59 567.19,-255.25 551.31,-254.75 435.76,-257.4 424.44,-246.25 423.93,-245.75 423.45,-245.17 423,-244.55"/>
<polygon fill="black" stroke="black" stroke-width="3" points="426.36,-248.16 423.26,-238.03 419.37,-247.89 426.36,-248.16"/>
</g>
<!-- n2&#45;&gt;c28 -->
<g id="edge67" class="edge">
<title>n2:e&#45;&gt;c28:w</title>
<path fill="none" stroke="black" stroke-width="3" d="M870.06,-521.25C939.87,-521.25 876.77,-811 932.04,-842.69"/>
<polygon fill="black" stroke="black" stroke-width="3" points="927.92,-845.24 938.48,-844.36 929.67,-838.46 927.92,-845.24"/>
</g>
<!-- n2&#45;&gt;x26 -->
<g id="edge68" class="edge">
<title>n2:e&#45;&gt;x26:w</title>
<path fill="none" stroke="black" stroke-width="3" d="M870.06,-521.25C902.3,-521.25 913.1,-521.44 940.49,-521.49"/>
<polygon fill="black" stroke="black" stroke-width="3" points="937.33,-524.98 947.33,-521.49 937.34,-517.98 937.33,-524.98"/>
</g>
<!-- n3&#45;&gt;x7 -->
<g id="edge72" class="edge">
<title>n3:e&#45;&gt;x7:w</title>
<path fill="none" stroke="black" d="M481.09,-624.25C504.47,-624.25 513.93,-624 531.19,-608.25 568.74,-573.98 534.18,-507.07 571.75,-496.83"/>
<polygon fill="black" stroke="black" points="571.92,-500.33 581.44,-495.67 571.09,-493.38 571.92,-500.33"/>
</g>
<!-- n3&#45;&gt;x9 -->
<g id="edge73" class="edge">
<title>n3:e&#45;&gt;x9:w</title>
<path fill="none" stroke="black" d="M481.09,-624.25C522.34,-624.25 535.34,-620.31 571.5,-619.6"/>
<polygon fill="black" stroke="black" points="571.46,-623.1 581.43,-619.51 571.39,-616.1 571.46,-623.1"/>
</g>
<!-- n3&#45;&gt;c22 -->
<g id="edge70" class="edge">
<title>n3:e&#45;&gt;c22:w</title>
<path fill="none" stroke="black" stroke-width="3" d="M481.09,-624.25C504.47,-624.25 513.03,-622.97 531.19,-608.25 552.59,-590.9 540.19,-557.23 556.02,-547.62"/>
<polygon fill="black" stroke="black" stroke-width="3" points="553.83,-551.72 562.77,-546.03 552.24,-544.91 553.83,-551.72"/>
</g>
<!-- n3&#45;&gt;x14 -->
<g id="edge71" class="edge">
<title>n3:e&#45;&gt;x14:w</title>
<path fill="none" stroke="black" d="M481.09,-624.25C520.7,-624.25 528.25,-640 567.19,-647.25 644.86,-661.71 664.93,-666.25 743.94,-666.25 743.94,-666.25 743.94,-666.25 1235.87,-666.25 1312.69,-666.25 1334.52,-658.33 1405.96,-657.56"/>
<polygon fill="black" stroke="black" points="1405.88,-661.06 1415.86,-657.5 1405.84,-654.06 1405.88,-661.06"/>
</g>
<!-- n6&#45;&gt;x3 -->
<g id="edge78" class="edge">
<title>n6:e&#45;&gt;x3:w</title>
<path fill="none" stroke="black" d="M1451.9,-854.25C1494.19,-854.25 1474.05,-922.62 1504.63,-935.44"/>
<polygon fill="black" stroke="black" points="1503.92,-938.87 1514.39,-937.22 1505.18,-931.98 1503.92,-938.87"/>
</g>
<!-- n6&#45;&gt;x5 -->
<g id="edge79" class="edge">
<title>n6:e&#45;&gt;x5:w</title>
<path fill="none" stroke="black" d="M1451.9,-854.25C1478.73,-854.25 1483.75,-875.3 1504.62,-881.06"/>
<polygon fill="black" stroke="black" points="1504.01,-884.51 1514.37,-882.3 1504.9,-877.56 1504.01,-884.51"/>
</g>
<!-- n6&#45;&gt;x25 -->
<g id="edge77" class="edge">
<title>n6:e&#45;&gt;x25:w</title>
<path fill="none" stroke="black" stroke-width="3" d="M1451.9,-854.25C1478.54,-854.25 1483.86,-834.12 1504.67,-828.62"/>
<polygon fill="black" stroke="black" stroke-width="3" points="1501.87,-832.49 1511.37,-827.8 1501.02,-825.54 1501.87,-832.49"/>
</g>
<!-- n8&#45;&gt;x16 -->
<g id="edge83" class="edge">
<title>n8:e&#45;&gt;x16:w</title>
<path fill="none" stroke="black" stroke-width="3" d="M1664.9,-789.25C1696.28,-789.25 1706.88,-789.44 1733.39,-789.49"/>
<polygon fill="black" stroke="black" stroke-width="3" points="1730.33,-792.98 1740.33,-789.49 1730.34,-785.98 1730.33,-792.98"/>
</g>
<!-- n9&#45;&gt;x11 -->
<g id="edge86" class="edge">
<title>n9:e&#45;&gt;x11:w</title>
<path fill="none" stroke="black" stroke-width="3" d="M1238.15,-521.25C1271.19,-521.25 1279.98,-538.1 1307.72,-541.79"/>
<polygon fill="black" stroke="black" stroke-width="3" points="1304.14,-545.07 1314.34,-542.21 1304.58,-538.08 1304.14,-545.07"/>
</g>
</g>
</svg>
