<?xml version="1.0" encoding="UTF-8" standalone="no"?>
<!DOCTYPE svg PUBLIC "-//W3C//DTD SVG 1.1//EN"
 "http://www.w3.org/Graphics/SVG/1.1/DTD/svg11.dtd">
<!-- Generated by graphviz version 12.2.1 (20241206.2353)
 -->
<!-- Title: top Pages: 1 -->
<svg width="2259pt" height="326pt"
 viewBox="0.00 0.00 2258.68 326.00" xmlns="http://www.w3.org/2000/svg" xmlns:xlink="http://www.w3.org/1999/xlink">
<g id="graph0" class="graph" transform="scale(1 1) rotate(0) translate(4 322)">
<title>top</title>
<polygon fill="white" stroke="none" points="-4,4 -4,-322 2254.68,-322 2254.68,4 -4,4"/>
<text text-anchor="middle" x="1125.34" y="-7.2" font-family="Times,serif" font-size="14.00">top</text>
<!-- n4 -->
<g id="node1" class="node">
<title>n4</title>
<polygon fill="none" stroke="black" points="107.84,-183.54 107.84,-198.46 76.26,-209 31.59,-209 0,-198.46 0,-183.54 31.59,-173 76.26,-173 107.84,-183.54"/>
<text text-anchor="middle" x="53.92" y="-185.95" font-family="Times,serif" font-size="14.00">input_data</text>
</g>
<!-- c13 -->
<g id="node7" class="node">
<title>c13</title>
<polygon fill="none" stroke="black" points="143.84,-166.5 143.84,-215.5 237.59,-215.5 237.59,-166.5 143.84,-166.5"/>
<text text-anchor="middle" x="156.72" y="-198.2" font-family="Times,serif" font-size="14.00">A</text>
<polyline fill="none" stroke="black" points="143.84,-191 169.59,-191"/>
<text text-anchor="middle" x="156.72" y="-173.7" font-family="Times,serif" font-size="14.00">B</text>
<polyline fill="none" stroke="black" points="169.59,-166.5 169.59,-215.5"/>
<text text-anchor="middle" x="190.72" y="-194.2" font-family="Times,serif" font-size="14.00">$1</text>
<text text-anchor="middle" x="190.72" y="-177.7" font-family="Times,serif" font-size="14.00">$and</text>
<polyline fill="none" stroke="black" points="211.84,-166.5 211.84,-215.5"/>
<text text-anchor="middle" x="224.72" y="-186.2" font-family="Times,serif" font-size="14.00">Y</text>
</g>
<!-- n4&#45;&gt;c13 -->
<g id="edge21" class="edge">
<title>n4:e&#45;&gt;c13:w</title>
<path fill="none" stroke="black" stroke-width="3" d="M107.84,-191C120.12,-191 124.64,-197.47 132.67,-201"/>
<polygon fill="black" stroke="black" stroke-width="3" points="128.9,-203.81 139.39,-202.35 130.28,-196.95 128.9,-203.81"/>
</g>
<!-- n4&#45;&gt;c13 -->
<g id="edge22" class="edge">
<title>n4:e&#45;&gt;c13:w</title>
<path fill="none" stroke="black" stroke-width="3" d="M107.84,-191C120.12,-191 124.64,-184.53 132.67,-181"/>
<polygon fill="black" stroke="black" stroke-width="3" points="130.28,-185.05 139.39,-179.65 128.9,-178.19 130.28,-185.05"/>
</g>
<!-- n5 -->
<g id="node2" class="node">
<title>n5</title>
<polygon fill="none" stroke="black" points="1983.16,-123.54 1983.16,-138.46 1948.65,-149 1899.85,-149 1865.35,-138.46 1865.35,-123.54 1899.85,-113 1948.65,-113 1983.16,-123.54"/>
<text text-anchor="middle" x="1924.25" y="-125.95" font-family="Times,serif" font-size="14.00">output_data</text>
</g>
<!-- x11 -->
<g id="node26" class="node">
<title>x11</title>
<path fill="none" stroke="black" d="M2031.16,-90C2031.16,-90 2113.91,-90 2113.91,-90 2119.91,-90 2125.91,-96 2125.91,-102 2125.91,-102 2125.91,-114 2125.91,-114 2125.91,-120 2119.91,-126 2113.91,-126 2113.91,-126 2031.16,-126 2031.16,-126 2025.16,-126 2019.16,-120 2019.16,-114 2019.16,-114 2019.16,-102 2019.16,-102 2019.16,-96 2025.16,-90 2031.16,-90"/>
<text text-anchor="middle" x="2072.53" y="-103.2" font-family="Times,serif" font-size="14.00">13x 37:37 &#45; 12:0</text>
</g>
<!-- n5&#45;&gt;x11 -->
<g id="edge26" class="edge">
<title>n5:e&#45;&gt;x11:w</title>
<path fill="none" stroke="black" stroke-width="3" d="M1983.16,-131C1997.35,-131 1999.86,-118.2 2008.21,-111.8"/>
<polygon fill="black" stroke="black" stroke-width="3" points="2006.41,-116.07 2014.84,-109.65 2004.25,-109.41 2006.41,-116.07"/>
</g>
<!-- n6 -->
<g id="node3" class="node">
<title>n6</title>
<polygon fill="none" stroke="black" points="328.84,-209 273.59,-191 328.84,-173 384.09,-191 328.84,-209"/>
<text text-anchor="middle" x="328.84" y="-185.95" font-family="Times,serif" font-size="14.00">temp_0</text>
</g>
<!-- c17 -->
<g id="node15" class="node">
<title>c17</title>
<polygon fill="none" stroke="black" points="420.09,-178.5 420.09,-227.5 505.59,-227.5 505.59,-178.5 420.09,-178.5"/>
<text text-anchor="middle" x="432.97" y="-210.2" font-family="Times,serif" font-size="14.00">A</text>
<polyline fill="none" stroke="black" points="420.09,-203 445.84,-203"/>
<text text-anchor="middle" x="432.97" y="-185.7" font-family="Times,serif" font-size="14.00">B</text>
<polyline fill="none" stroke="black" points="445.84,-178.5 445.84,-227.5"/>
<text text-anchor="middle" x="462.84" y="-206.2" font-family="Times,serif" font-size="14.00">$2</text>
<text text-anchor="middle" x="462.84" y="-189.7" font-family="Times,serif" font-size="14.00">$or</text>
<polyline fill="none" stroke="black" points="479.84,-178.5 479.84,-227.5"/>
<text text-anchor="middle" x="492.72" y="-198.2" font-family="Times,serif" font-size="14.00">Y</text>
</g>
<!-- n6&#45;&gt;c17 -->
<g id="edge28" class="edge">
<title>n6:e&#45;&gt;c17:w</title>
<path fill="none" stroke="black" stroke-width="3" d="M384.09,-191C398.71,-191 400.77,-204.93 409.3,-211.67"/>
<polygon fill="black" stroke="black" stroke-width="3" points="405.19,-213.99 415.78,-213.82 407.39,-207.35 405.19,-213.99"/>
</g>
<!-- n6&#45;&gt;c17 -->
<g id="edge29" class="edge">
<title>n6:e&#45;&gt;c17:w</title>
<path fill="none" stroke="black" stroke-width="3" d="M384.09,-191C395.47,-191 400.78,-190.87 408.65,-190.8"/>
<polygon fill="black" stroke="black" stroke-width="3" points="405.57,-194.31 415.55,-190.77 405.54,-187.31 405.57,-194.31"/>
</g>
<!-- c19 -->
<g id="node17" class="node">
<title>c19</title>
<polygon fill="none" stroke="black" points="688.09,-118.5 688.09,-167.5 781.09,-167.5 781.09,-118.5 688.09,-118.5"/>
<text text-anchor="middle" x="700.97" y="-150.2" font-family="Times,serif" font-size="14.00">A</text>
<polyline fill="none" stroke="black" points="688.09,-143 713.84,-143"/>
<text text-anchor="middle" x="700.97" y="-125.7" font-family="Times,serif" font-size="14.00">B</text>
<polyline fill="none" stroke="black" points="713.84,-118.5 713.84,-167.5"/>
<text text-anchor="middle" x="734.59" y="-146.2" font-family="Times,serif" font-size="14.00">$13</text>
<text text-anchor="middle" x="734.59" y="-129.7" font-family="Times,serif" font-size="14.00">$sub</text>
<polyline fill="none" stroke="black" points="755.34,-118.5 755.34,-167.5"/>
<text text-anchor="middle" x="768.22" y="-138.2" font-family="Times,serif" font-size="14.00">Y</text>
</g>
<!-- n6&#45;&gt;c19 -->
<g id="edge30" class="edge">
<title>n6:e&#45;&gt;c19:w</title>
<path fill="none" stroke="black" stroke-width="3" d="M384.09,-191C402.84,-191 402.45,-175.34 420.09,-169 529.67,-129.6 565.47,-130.64 676.72,-130.74"/>
<polygon fill="black" stroke="black" stroke-width="3" points="673.55,-134.24 683.55,-130.75 673.55,-127.24 673.55,-134.24"/>
</g>
<!-- n7 -->
<g id="node4" class="node">
<title>n7</title>
<polygon fill="none" stroke="black" points="596.84,-234 541.59,-216 596.84,-198 652.09,-216 596.84,-234"/>
<text text-anchor="middle" x="596.84" y="-210.95" font-family="Times,serif" font-size="14.00">temp_1</text>
</g>
<!-- c15 -->
<g id="node9" class="node">
<title>c15</title>
<polygon fill="none" stroke="black" points="1237.97,-183.5 1237.97,-232.5 1325.72,-232.5 1325.72,-183.5 1237.97,-183.5"/>
<text text-anchor="middle" x="1250.84" y="-215.2" font-family="Times,serif" font-size="14.00">A</text>
<polyline fill="none" stroke="black" points="1237.97,-208 1263.72,-208"/>
<text text-anchor="middle" x="1250.84" y="-190.7" font-family="Times,serif" font-size="14.00">B</text>
<polyline fill="none" stroke="black" points="1263.72,-183.5 1263.72,-232.5"/>
<text text-anchor="middle" x="1281.84" y="-211.2" font-family="Times,serif" font-size="14.00">$28</text>
<text text-anchor="middle" x="1281.84" y="-194.7" font-family="Times,serif" font-size="14.00">$or</text>
<polyline fill="none" stroke="black" points="1299.97,-183.5 1299.97,-232.5"/>
<text text-anchor="middle" x="1312.84" y="-203.2" font-family="Times,serif" font-size="14.00">Y</text>
</g>
<!-- n7&#45;&gt;c15 -->
<g id="edge32" class="edge">
<title>n7:e&#45;&gt;c15:w</title>
<path fill="none" stroke="black" stroke-width="3" d="M652.09,-216C749.94,-216 773.49,-196 871.34,-196 871.34,-196 871.34,-196 1010.34,-196 1107.13,-196 1134.16,-195.77 1225.5,-195.75"/>
<polygon fill="black" stroke="black" stroke-width="3" points="1222.43,-199.25 1232.43,-195.75 1222.43,-192.25 1222.43,-199.25"/>
</g>
<!-- c16 -->
<g id="node12" class="node">
<title>c16</title>
<polygon fill="none" stroke="black" points="1233.84,-268.5 1233.84,-317.5 1329.84,-317.5 1329.84,-268.5 1233.84,-268.5"/>
<text text-anchor="middle" x="1246.72" y="-300.2" font-family="Times,serif" font-size="14.00">A</text>
<polyline fill="none" stroke="black" points="1233.84,-293 1259.59,-293"/>
<text text-anchor="middle" x="1246.72" y="-275.7" font-family="Times,serif" font-size="14.00">B</text>
<polyline fill="none" stroke="black" points="1259.59,-268.5 1259.59,-317.5"/>
<text text-anchor="middle" x="1281.84" y="-296.2" font-family="Times,serif" font-size="14.00">$11</text>
<text text-anchor="middle" x="1281.84" y="-279.7" font-family="Times,serif" font-size="14.00">$mul</text>
<polyline fill="none" stroke="black" points="1304.09,-268.5 1304.09,-317.5"/>
<text text-anchor="middle" x="1316.97" y="-288.2" font-family="Times,serif" font-size="14.00">Y</text>
</g>
<!-- n7&#45;&gt;c16 -->
<g id="edge33" class="edge">
<title>n7:e&#45;&gt;c16:w</title>
<path fill="none" stroke="black" stroke-width="3" d="M652.09,-216C685.9,-216 660.32,-263.73 688.09,-283 755.62,-329.86 789.14,-308 871.34,-308 871.34,-308 871.34,-308 1010.34,-308 1105.8,-308 1132.45,-305.46 1222.53,-305.26"/>
<polygon fill="black" stroke="black" stroke-width="3" points="1219.31,-308.77 1229.3,-305.25 1219.3,-301.77 1219.31,-308.77"/>
</g>
<!-- c18 -->
<g id="node16" class="node">
<title>c18</title>
<polygon fill="none" stroke="black" points="691.84,-224.5 691.84,-273.5 777.34,-273.5 777.34,-224.5 691.84,-224.5"/>
<text text-anchor="middle" x="704.72" y="-256.2" font-family="Times,serif" font-size="14.00">A</text>
<polyline fill="none" stroke="black" points="691.84,-249 717.59,-249"/>
<text text-anchor="middle" x="704.72" y="-231.7" font-family="Times,serif" font-size="14.00">B</text>
<polyline fill="none" stroke="black" points="717.59,-224.5 717.59,-273.5"/>
<text text-anchor="middle" x="734.59" y="-252.2" font-family="Times,serif" font-size="14.00">$3</text>
<text text-anchor="middle" x="734.59" y="-235.7" font-family="Times,serif" font-size="14.00">$or</text>
<polyline fill="none" stroke="black" points="751.59,-224.5 751.59,-273.5"/>
<text text-anchor="middle" x="764.47" y="-244.2" font-family="Times,serif" font-size="14.00">Y</text>
</g>
<!-- n7&#45;&gt;c18 -->
<g id="edge34" class="edge">
<title>n7:e&#45;&gt;c18:w</title>
<path fill="none" stroke="black" stroke-width="3" d="M652.09,-216C673.81,-216 668.16,-246.45 680.04,-257.39"/>
<polygon fill="black" stroke="black" stroke-width="3" points="675.97,-259.66 686.57,-259.72 678.33,-253.06 675.97,-259.66"/>
</g>
<!-- n7&#45;&gt;c18 -->
<g id="edge35" class="edge">
<title>n7:e&#45;&gt;c18:w</title>
<path fill="none" stroke="black" stroke-width="3" d="M652.09,-216C667.05,-216 670.37,-228.16 679.87,-233.86"/>
<polygon fill="black" stroke="black" stroke-width="3" points="675.89,-236.44 686.45,-235.6 677.67,-229.67 675.89,-236.44"/>
</g>
<!-- n7&#45;&gt;c19 -->
<g id="edge36" class="edge">
<title>n7:e&#45;&gt;c19:w</title>
<path fill="none" stroke="black" stroke-width="3" d="M652.09,-216C678.82,-216 663.37,-171.95 677.58,-158.87"/>
<polygon fill="black" stroke="black" stroke-width="3" points="675.48,-163.29 683.8,-156.73 673.2,-156.67 675.48,-163.29"/>
</g>
<!-- n8 -->
<g id="node5" class="node">
<title>n8</title>
<polygon fill="none" stroke="black" points="872.34,-265 817.09,-247 872.34,-229 927.59,-247 872.34,-265"/>
<text text-anchor="middle" x="872.34" y="-241.95" font-family="Times,serif" font-size="14.00">temp_2</text>
</g>
<!-- c14 -->
<g id="node8" class="node">
<title>c14</title>
<polygon fill="none" stroke="black" points="963.59,-225.5 963.59,-266.5 1055.09,-266.5 1055.09,-225.5 963.59,-225.5"/>
<text text-anchor="middle" x="976.47" y="-241.2" font-family="Times,serif" font-size="14.00">A</text>
<polyline fill="none" stroke="black" points="989.34,-225.5 989.34,-266.5"/>
<text text-anchor="middle" x="1009.34" y="-249.2" font-family="Times,serif" font-size="14.00">$24</text>
<text text-anchor="middle" x="1009.34" y="-232.7" font-family="Times,serif" font-size="14.00">$not</text>
<polyline fill="none" stroke="black" points="1029.34,-225.5 1029.34,-266.5"/>
<text text-anchor="middle" x="1042.22" y="-241.2" font-family="Times,serif" font-size="14.00">Y</text>
</g>
<!-- n8&#45;&gt;c14 -->
<g id="edge38" class="edge">
<title>n8:e&#45;&gt;c14:w</title>
<path fill="none" stroke="black" stroke-width="3" d="M927.59,-247C938.97,-247 944.28,-246.62 952.15,-246.4"/>
<polygon fill="black" stroke="black" stroke-width="3" points="949.1,-249.94 959.05,-246.31 949.01,-242.94 949.1,-249.94"/>
</g>
<!-- n9 -->
<g id="node6" class="node">
<title>n9</title>
<polygon fill="none" stroke="black" points="1519.59,-211 1464.34,-193 1519.59,-175 1574.85,-193 1519.59,-211"/>
<text text-anchor="middle" x="1519.59" y="-187.95" font-family="Times,serif" font-size="14.00">temp_6</text>
</g>
<!-- c20 -->
<g id="node19" class="node">
<title>c20</title>
<polygon fill="none" stroke="black" points="1610.85,-106.5 1610.85,-155.5 1703.85,-155.5 1703.85,-106.5 1610.85,-106.5"/>
<text text-anchor="middle" x="1623.72" y="-138.2" font-family="Times,serif" font-size="14.00">A</text>
<polyline fill="none" stroke="black" points="1610.85,-131 1636.6,-131"/>
<text text-anchor="middle" x="1623.72" y="-113.7" font-family="Times,serif" font-size="14.00">B</text>
<polyline fill="none" stroke="black" points="1636.6,-106.5 1636.6,-155.5"/>
<text text-anchor="middle" x="1657.35" y="-134.2" font-family="Times,serif" font-size="14.00">$14</text>
<text text-anchor="middle" x="1657.35" y="-117.7" font-family="Times,serif" font-size="14.00">$sub</text>
<polyline fill="none" stroke="black" points="1678.1,-106.5 1678.1,-155.5"/>
<text text-anchor="middle" x="1690.97" y="-126.2" font-family="Times,serif" font-size="14.00">Y</text>
</g>
<!-- n9&#45;&gt;c20 -->
<g id="edge41" class="edge">
<title>n9:e&#45;&gt;c20:w</title>
<path fill="none" stroke="black" stroke-width="3" d="M1574.85,-193C1606.94,-193 1582.35,-136.15 1600.27,-121.94"/>
<polygon fill="black" stroke="black" stroke-width="3" points="1597.94,-126.3 1606.5,-120.06 1595.91,-119.6 1597.94,-126.3"/>
</g>
<!-- x7 -->
<g id="node22" class="node">
<title>x7</title>
<path fill="none" stroke="black" d="M1638.1,-175C1638.1,-175 1676.6,-175 1676.6,-175 1682.6,-175 1688.6,-181 1688.6,-187 1688.6,-187 1688.6,-199 1688.6,-199 1688.6,-205 1682.6,-211 1676.6,-211 1676.6,-211 1638.1,-211 1638.1,-211 1632.1,-211 1626.1,-205 1626.1,-199 1626.1,-199 1626.1,-187 1626.1,-187 1626.1,-181 1632.1,-175 1638.1,-175"/>
<text text-anchor="middle" x="1657.35" y="-188.2" font-family="Times,serif" font-size="14.00">7:6 &#45; 1:0</text>
</g>
<!-- n9&#45;&gt;x7 -->
<g id="edge42" class="edge">
<title>n9:e&#45;&gt;x7:w</title>
<path fill="none" stroke="black" stroke-width="3" d="M1574.85,-193C1592.82,-193 1599.94,-193.16 1613.68,-193.23"/>
<polygon fill="black" stroke="black" stroke-width="3" points="1610.55,-196.72 1620.55,-193.24 1610.56,-189.72 1610.55,-196.72"/>
</g>
<!-- c13&#45;&gt;n6 -->
<g id="edge27" class="edge">
<title>c13:e&#45;&gt;n6:w</title>
<path fill="none" stroke="black" stroke-width="3" d="M237.59,-191.25C248.97,-191.25 254.28,-191.12 262.14,-191.05"/>
<polygon fill="black" stroke="black" stroke-width="3" points="259.07,-194.56 269.05,-191.02 259.03,-187.56 259.07,-194.56"/>
</g>
<!-- x2 -->
<g id="node13" class="node">
<title>x2</title>
<path fill="none" stroke="black" d="M1122.97,-230.5C1122.97,-230.5 1165.97,-230.5 1165.97,-230.5 1171.97,-230.5 1177.97,-236.5 1177.97,-242.5 1177.97,-242.5 1177.97,-267.5 1177.97,-267.5 1177.97,-273.5 1171.97,-279.5 1165.97,-279.5 1165.97,-279.5 1122.97,-279.5 1122.97,-279.5 1116.97,-279.5 1110.97,-273.5 1110.97,-267.5 1110.97,-267.5 1110.97,-242.5 1110.97,-242.5 1110.97,-236.5 1116.97,-230.5 1122.97,-230.5"/>
<text text-anchor="middle" x="1144.47" y="-262.2" font-family="Times,serif" font-size="14.00">1 &#45;&gt; 30:6</text>
<polyline fill="none" stroke="black" points="1110.97,-255 1177.97,-255"/>
<text text-anchor="middle" x="1144.47" y="-237.7" font-family="Times,serif" font-size="14.00">5:0 &#45; 5:0</text>
</g>
<!-- c14&#45;&gt;x2 -->
<g id="edge11" class="edge">
<title>c14:e&#45;&gt;x2:w</title>
<path fill="none" stroke="black" stroke-width="3" d="M1055.09,-246.25C1075.33,-246.25 1082.92,-243.85 1098.81,-243.02"/>
<polygon fill="black" stroke="black" stroke-width="3" points="1095.52,-246.61 1105.43,-242.86 1095.35,-239.61 1095.52,-246.61"/>
</g>
<!-- x1 -->
<g id="node11" class="node">
<title>x1</title>
<path fill="none" stroke="black" d="M1377.84,-175C1377.84,-175 1416.34,-175 1416.34,-175 1422.34,-175 1428.34,-181 1428.34,-187 1428.34,-187 1428.34,-199 1428.34,-199 1428.34,-205 1422.34,-211 1416.34,-211 1416.34,-211 1377.84,-211 1377.84,-211 1371.84,-211 1365.84,-205 1365.84,-199 1365.84,-199 1365.84,-187 1365.84,-187 1365.84,-181 1371.84,-175 1377.84,-175"/>
<text text-anchor="middle" x="1397.09" y="-188.2" font-family="Times,serif" font-size="14.00">5:0 &#45; 5:0</text>
</g>
<!-- c15&#45;&gt;x1 -->
<g id="edge2" class="edge">
<title>c15:e&#45;&gt;x1:w</title>
<path fill="none" stroke="black" stroke-width="3" d="M1339.21,-205.31C1344.4,-202.61 1348.17,-198.63 1353.37,-195.93"/>
<polygon fill="none" stroke="black" stroke-width="3" points="1341.03,-204.88 1336.11,-210.15 1329.35,-207.63 1334.28,-202.36 1341.03,-204.88"/>
<polygon fill="none" stroke="black" stroke-width="3" points="1351.53,-196.36 1356.46,-191.1 1363.21,-193.62 1358.29,-198.88 1351.53,-196.36"/>
</g>
<!-- x0 -->
<g id="node10" class="node">
<title>x0</title>
<path fill="none" stroke="black" d="M2053.28,-237C2053.28,-237 2091.78,-237 2091.78,-237 2097.78,-237 2103.78,-243 2103.78,-249 2103.78,-249 2103.78,-261 2103.78,-261 2103.78,-267 2097.78,-273 2091.78,-273 2091.78,-273 2053.28,-273 2053.28,-273 2047.28,-273 2041.28,-267 2041.28,-261 2041.28,-261 2041.28,-249 2041.28,-249 2041.28,-243 2047.28,-237 2053.28,-237"/>
<text text-anchor="middle" x="2072.53" y="-250.2" font-family="Times,serif" font-size="14.00">5:0 &#45; 5:0</text>
</g>
<!-- x0&#45;&gt;c15 -->
<g id="edge1" class="edge">
<title>x0:e&#45;&gt;c15:w</title>
<path fill="none" stroke="black" stroke-width="3" d="M2117.15,-258.51C2126.13,-265.98 2111.55,-282.13 2041.28,-273.5 2014.86,-270.25 2009.4,-263.51 1983.16,-259 1896.22,-244.06 1873.81,-240 1785.6,-240 1518.59,-240 1518.59,-240 1518.59,-240 1459.87,-240 1303.13,-271.83 1246.36,-229.12"/>
<polygon fill="none" stroke="black" stroke-width="3" points="2118.93,-259.01 2112.07,-261.22 2107.38,-255.74 2114.25,-253.53 2118.93,-259.01"/>
<polygon fill="none" stroke="black" stroke-width="3" points="1247.66,-230.35 1240.55,-229.13 1238.94,-222.11 1246.04,-223.32 1247.66,-230.35"/>
</g>
<!-- x1&#45;&gt;n9 -->
<g id="edge39" class="edge">
<title>x1:e&#45;&gt;n9:w</title>
<path fill="none" stroke="black" stroke-width="3" d="M1428.34,-193.25C1439.72,-193.25 1445.03,-193.12 1452.9,-193.05"/>
<polygon fill="black" stroke="black" stroke-width="3" points="1449.82,-196.56 1459.8,-193.02 1449.79,-189.56 1449.82,-196.56"/>
</g>
<!-- x3 -->
<g id="node14" class="node">
<title>x3</title>
<path fill="none" stroke="black" d="M1377.84,-268.5C1377.84,-268.5 1416.34,-268.5 1416.34,-268.5 1422.34,-268.5 1428.34,-274.5 1428.34,-280.5 1428.34,-280.5 1428.34,-305.5 1428.34,-305.5 1428.34,-311.5 1422.34,-317.5 1416.34,-317.5 1416.34,-317.5 1377.84,-317.5 1377.84,-317.5 1371.84,-317.5 1365.84,-311.5 1365.84,-305.5 1365.84,-305.5 1365.84,-280.5 1365.84,-280.5 1365.84,-274.5 1371.84,-268.5 1377.84,-268.5"/>
<text text-anchor="middle" x="1397.09" y="-300.2" font-family="Times,serif" font-size="14.00">7:6 &#45; 7:6</text>
<polyline fill="none" stroke="black" points="1365.84,-293 1428.34,-293"/>
<text text-anchor="middle" x="1397.09" y="-275.7" font-family="Times,serif" font-size="14.00">5:0 &#45; 5:0</text>
</g>
<!-- c16&#45;&gt;x3 -->
<g id="edge4" class="edge">
<title>c16:e&#45;&gt;x3:w</title>
<path fill="none" stroke="black" stroke-width="3" d="M1342.57,-293.19C1346.16,-293.15 1349.3,-293.1 1352.87,-293.07"/>
<polygon fill="none" stroke="black" stroke-width="3" points="1344.55,-293.18 1338.57,-297.21 1332.55,-293.24 1338.53,-289.21 1344.55,-293.18"/>
<polygon fill="none" stroke="black" stroke-width="3" points="1351.14,-293.07 1357.12,-289.04 1363.14,-293.01 1357.16,-297.04 1351.14,-293.07"/>
</g>
<!-- x2&#45;&gt;c16 -->
<g id="edge3" class="edge">
<title>x2:e&#45;&gt;c16:w</title>
<path fill="none" stroke="black" stroke-width="3" d="M1191.73,-257.38C1203.69,-262.31 1209.25,-273.59 1221.28,-278.45"/>
<polygon fill="none" stroke="black" stroke-width="3" points="1193.42,-257.69 1186.79,-260.53 1181.63,-255.5 1188.26,-252.66 1193.42,-257.69"/>
<polygon fill="none" stroke="black" stroke-width="3" points="1219.38,-278.11 1226,-275.25 1231.18,-280.26 1224.56,-283.12 1219.38,-278.11"/>
</g>
<!-- x3&#45;&gt;n9 -->
<g id="edge40" class="edge">
<title>x3:e&#45;&gt;n9:w</title>
<path fill="none" stroke="black" stroke-width="3" d="M1428.34,-305.25C1476.23,-305.25 1422.88,-211.46 1453.37,-195.34"/>
<polygon fill="black" stroke="black" stroke-width="3" points="1450.86,-199.46 1459.9,-193.95 1449.39,-192.61 1450.86,-199.46"/>
</g>
<!-- n2 -->
<g id="node28" class="node">
<title>n2</title>
<ellipse fill="black" stroke="black" cx="1924.25" cy="-270" rx="1.8" ry="1.8"/>
</g>
<!-- x3&#45;&gt;n2 -->
<g id="edge12" class="edge">
<title>x3:e&#45;&gt;n2:w</title>
<path fill="none" stroke="black" stroke-width="3" d="M1428.34,-280.75C1643.49,-280.75 1700,-270.37 1909.57,-270.01"/>
<polygon fill="black" stroke="black" stroke-width="3" points="1906.44,-273.51 1916.43,-270 1906.43,-266.51 1906.44,-273.51"/>
</g>
<!-- c17&#45;&gt;n7 -->
<g id="edge31" class="edge">
<title>c17:e&#45;&gt;n7:w</title>
<path fill="none" stroke="black" stroke-width="3" d="M505.59,-203.25C517.92,-203.25 522.38,-209.98 530.4,-213.66"/>
<polygon fill="black" stroke="black" stroke-width="3" points="526.64,-216.45 537.15,-215.07 528.08,-209.6 526.64,-216.45"/>
</g>
<!-- c18&#45;&gt;n8 -->
<g id="edge37" class="edge">
<title>c18:e&#45;&gt;n8:w</title>
<path fill="none" stroke="black" stroke-width="3" d="M778.34,-249.25C791.01,-249.25 796.67,-248.04 805.61,-247.39"/>
<polygon fill="black" stroke="black" stroke-width="3" points="802.68,-250.99 812.55,-247.15 802.44,-244 802.68,-250.99"/>
</g>
<!-- x4 -->
<g id="node18" class="node">
<title>x4</title>
<path fill="none" stroke="black" d="M846.34,-118.5C846.34,-118.5 898.34,-118.5 898.34,-118.5 904.34,-118.5 910.34,-124.5 910.34,-130.5 910.34,-130.5 910.34,-155.5 910.34,-155.5 910.34,-161.5 904.34,-167.5 898.34,-167.5 898.34,-167.5 846.34,-167.5 846.34,-167.5 840.34,-167.5 834.34,-161.5 834.34,-155.5 834.34,-155.5 834.34,-130.5 834.34,-130.5 834.34,-124.5 840.34,-118.5 846.34,-118.5"/>
<text text-anchor="middle" x="872.34" y="-150.2" font-family="Times,serif" font-size="14.00">6:6 &#45; 23:23</text>
<polyline fill="none" stroke="black" points="834.34,-143 910.34,-143"/>
<text text-anchor="middle" x="872.34" y="-125.7" font-family="Times,serif" font-size="14.00">5:0 &#45; 5:0</text>
</g>
<!-- c19&#45;&gt;x4 -->
<g id="edge5" class="edge">
<title>c19:e&#45;&gt;x4:w</title>
<path fill="none" stroke="black" stroke-width="3" d="M793.79,-143.22C803.78,-143.17 810.46,-143.08 820.39,-143.03"/>
<polygon fill="none" stroke="black" stroke-width="3" points="795.8,-143.22 789.81,-147.23 783.8,-143.24 789.79,-139.23 795.8,-143.22"/>
<polygon fill="none" stroke="black" stroke-width="3" points="818.64,-143.03 824.63,-139.02 830.64,-143.01 824.65,-147.02 818.64,-143.03"/>
</g>
<!-- n3 -->
<g id="node29" class="node">
<title>n3</title>
<ellipse fill="black" stroke="black" cx="1009.34" cy="-131" rx="1.8" ry="1.8"/>
</g>
<!-- x4&#45;&gt;n3 -->
<g id="edge16" class="edge">
<title>x4:e&#45;&gt;n3:w</title>
<path fill="none" stroke="black" stroke-width="3" d="M911.34,-130.75C949.33,-130.75 961.61,-130.95 994.58,-130.99"/>
<polygon fill="black" stroke="black" stroke-width="3" points="991.52,-134.49 1001.53,-131 991.53,-127.49 991.52,-134.49"/>
</g>
<!-- x4&#45;&gt;n3 -->
<g id="edge17" class="edge">
<title>x4:e&#45;&gt;n3:w</title>
<path fill="none" stroke="black" d="M911.34,-155.25C950.73,-155.25 960.83,-135.33 994.72,-131.6"/>
<polygon fill="black" stroke="black" points="994.75,-135.1 1004.55,-131.08 994.38,-128.11 994.75,-135.1"/>
</g>
<!-- x6 -->
<g id="node21" class="node">
<title>x6</title>
<path fill="none" stroke="black" d="M1751.85,-106.5C1751.85,-106.5 1817.35,-106.5 1817.35,-106.5 1823.35,-106.5 1829.35,-112.5 1829.35,-118.5 1829.35,-118.5 1829.35,-143.5 1829.35,-143.5 1829.35,-149.5 1823.35,-155.5 1817.35,-155.5 1817.35,-155.5 1751.85,-155.5 1751.85,-155.5 1745.85,-155.5 1739.85,-149.5 1739.85,-143.5 1739.85,-143.5 1739.85,-118.5 1739.85,-118.5 1739.85,-112.5 1745.85,-106.5 1751.85,-106.5"/>
<text text-anchor="middle" x="1784.6" y="-138.2" font-family="Times,serif" font-size="14.00">24:24 &#45; 37:37</text>
<polyline fill="none" stroke="black" points="1739.85,-131 1829.35,-131"/>
<text text-anchor="middle" x="1784.6" y="-113.7" font-family="Times,serif" font-size="14.00">23:0 &#45; 23:0</text>
</g>
<!-- c20&#45;&gt;x6 -->
<g id="edge7" class="edge">
<title>c20:e&#45;&gt;x6:w</title>
<path fill="none" stroke="black" stroke-width="3" d="M1716.57,-131.19C1720.16,-131.15 1723.3,-131.1 1726.87,-131.07"/>
<polygon fill="none" stroke="black" stroke-width="3" points="1718.55,-131.18 1712.57,-135.21 1706.55,-131.24 1712.53,-127.21 1718.55,-131.18"/>
<polygon fill="none" stroke="black" stroke-width="3" points="1725.14,-131.07 1731.12,-127.04 1737.14,-131.01 1731.16,-135.04 1725.14,-131.07"/>
</g>
<!-- x5 -->
<g id="node20" class="node">
<title>x5</title>
<path fill="none" stroke="black" d="M1103.09,-118.5C1103.09,-118.5 1185.84,-118.5 1185.84,-118.5 1191.84,-118.5 1197.84,-124.5 1197.84,-130.5 1197.84,-130.5 1197.84,-155.5 1197.84,-155.5 1197.84,-161.5 1191.84,-167.5 1185.84,-167.5 1185.84,-167.5 1103.09,-167.5 1103.09,-167.5 1097.09,-167.5 1091.09,-161.5 1091.09,-155.5 1091.09,-155.5 1091.09,-130.5 1091.09,-130.5 1091.09,-124.5 1097.09,-118.5 1103.09,-118.5"/>
<text text-anchor="middle" x="1144.47" y="-150.2" font-family="Times,serif" font-size="14.00">18x 23:23 &#45; 23:6</text>
<polyline fill="none" stroke="black" points="1091.09,-143 1197.84,-143"/>
<text text-anchor="middle" x="1144.47" y="-125.7" font-family="Times,serif" font-size="14.00">5:0 &#45; 5:0</text>
</g>
<!-- x5&#45;&gt;c20 -->
<g id="edge6" class="edge">
<title>x5:e&#45;&gt;c20:w</title>
<path fill="none" stroke="black" stroke-width="3" d="M1210.79,-143C1379.45,-143.01 1429.26,-143.24 1597.95,-143.25"/>
<polygon fill="none" stroke="black" stroke-width="3" points="1212.55,-143 1206.55,-147 1200.55,-143 1206.55,-139 1212.55,-143"/>
<polygon fill="none" stroke="black" stroke-width="3" points="1596.14,-143.25 1602.14,-139.25 1608.14,-143.25 1602.14,-147.25 1596.14,-143.25"/>
</g>
<!-- x6&#45;&gt;n5 -->
<g id="edge24" class="edge">
<title>x6:e&#45;&gt;n5:w</title>
<path fill="none" stroke="black" stroke-width="3" d="M1829.35,-118.75C1841.62,-118.75 1846.14,-125.22 1854.18,-128.75"/>
<polygon fill="black" stroke="black" stroke-width="3" points="1850.4,-131.56 1860.89,-130.1 1851.78,-124.7 1850.4,-131.56"/>
</g>
<!-- x6&#45;&gt;n5 -->
<g id="edge25" class="edge">
<title>x6:e&#45;&gt;n5:w</title>
<path fill="none" stroke="black" d="M1829.35,-143.25C1841.62,-143.25 1846.14,-136.78 1854.18,-133.25"/>
<polygon fill="black" stroke="black" points="1854.75,-136.7 1863.86,-131.3 1853.37,-129.84 1854.75,-136.7"/>
</g>
<!-- x8 -->
<g id="node23" class="node">
<title>x8</title>
<path fill="none" stroke="black" d="M1765.35,-175C1765.35,-175 1803.85,-175 1803.85,-175 1809.85,-175 1815.85,-181 1815.85,-187 1815.85,-187 1815.85,-199 1815.85,-199 1815.85,-205 1809.85,-211 1803.85,-211 1803.85,-211 1765.35,-211 1765.35,-211 1759.35,-211 1753.35,-205 1753.35,-199 1753.35,-199 1753.35,-187 1753.35,-187 1753.35,-181 1759.35,-175 1765.35,-175"/>
<text text-anchor="middle" x="1784.6" y="-188.2" font-family="Times,serif" font-size="14.00">1:0 &#45; 7:6</text>
</g>
<!-- x7&#45;&gt;x8 -->
<g id="edge8" class="edge">
<title>x7:e&#45;&gt;x8:w</title>
<path fill="none" stroke="black" stroke-width="3" d="M1702.59,-193C1716.79,-193 1725.25,-193 1739.48,-193"/>
<polygon fill="none" stroke="black" stroke-width="3" points="1704.3,-193 1698.3,-197 1692.3,-193 1698.3,-189 1704.3,-193"/>
<polygon fill="none" stroke="black" stroke-width="3" points="1737.64,-193 1743.64,-189 1749.64,-193 1743.64,-197 1737.64,-193"/>
</g>
<!-- x8&#45;&gt;n2 -->
<g id="edge13" class="edge">
<title>x8:e&#45;&gt;n2:w</title>
<path fill="none" stroke="black" stroke-width="3" d="M1816.85,-193.25C1870.18,-193.25 1864.69,-259.31 1909.53,-268.86"/>
<polygon fill="black" stroke="black" stroke-width="3" points="1906.16,-272.04 1916.46,-269.55 1906.85,-265.07 1906.16,-272.04"/>
</g>
<!-- x9 -->
<g id="node24" class="node">
<title>x9</title>
<path fill="none" stroke="black" d="M1103.09,-25C1103.09,-25 1185.84,-25 1185.84,-25 1191.84,-25 1197.84,-31 1197.84,-37 1197.84,-37 1197.84,-49 1197.84,-49 1197.84,-55 1191.84,-61 1185.84,-61 1185.84,-61 1103.09,-61 1103.09,-61 1097.09,-61 1091.09,-55 1091.09,-49 1091.09,-49 1091.09,-37 1091.09,-37 1091.09,-31 1097.09,-25 1103.09,-25"/>
<text text-anchor="middle" x="1144.47" y="-38.2" font-family="Times,serif" font-size="14.00">17x 23:23 &#45; 16:0</text>
</g>
<!-- x10 -->
<g id="node25" class="node">
<title>x10</title>
<path fill="none" stroke="black" d="M1255.84,-49C1255.84,-49 1307.84,-49 1307.84,-49 1313.84,-49 1319.84,-55 1319.84,-61 1319.84,-61 1319.84,-73 1319.84,-73 1319.84,-79 1313.84,-85 1307.84,-85 1307.84,-85 1255.84,-85 1255.84,-85 1249.84,-85 1243.84,-79 1243.84,-73 1243.84,-73 1243.84,-61 1243.84,-61 1243.84,-55 1249.84,-49 1255.84,-49"/>
<text text-anchor="middle" x="1281.84" y="-62.2" font-family="Times,serif" font-size="14.00">16:0 &#45; 22:6</text>
</g>
<!-- x9&#45;&gt;x10 -->
<g id="edge9" class="edge">
<title>x9:e&#45;&gt;x10:w</title>
<path fill="none" stroke="black" stroke-width="3" d="M1210.24,-46.14C1218.19,-50.71 1222.41,-59.17 1230.31,-63.79"/>
<polygon fill="none" stroke="black" stroke-width="3" points="1212.1,-46.61 1205.3,-49.01 1200.47,-43.66 1207.26,-41.26 1212.1,-46.61"/>
<polygon fill="none" stroke="black" stroke-width="3" points="1228.6,-63.35 1235.41,-60.96 1240.22,-66.33 1233.42,-68.71 1228.6,-63.35"/>
</g>
<!-- x10&#45;&gt;n3 -->
<g id="edge15" class="edge">
<title>x10:e&#45;&gt;n3:w</title>
<path fill="none" stroke="black" stroke-width="3" d="M1320.84,-67.25C1328.97,-67.25 1325.45,-79.62 1319.84,-85.5 1284.58,-122.48 1141.22,-99.06 1091.09,-109 1054.73,-116.21 1047.83,-127.46 1011.14,-132.8 1011.03,-132.82 1010.92,-132.83 1010.82,-132.85"/>
<polygon fill="black" stroke="black" stroke-width="3" points="1020.88,-133.02 1010.3,-132.65 1018.34,-139.54 1020.88,-133.02"/>
</g>
<!-- x12 -->
<g id="node27" class="node">
<title>x12</title>
<path fill="none" stroke="black" d="M2173.91,-113C2173.91,-113 2232.66,-113 2232.66,-113 2238.66,-113 2244.66,-119 2244.66,-125 2244.66,-125 2244.66,-137 2244.66,-137 2244.66,-143 2238.66,-149 2232.66,-149 2232.66,-149 2173.91,-149 2173.91,-149 2167.91,-149 2161.91,-143 2161.91,-137 2161.91,-137 2161.91,-125 2161.91,-125 2161.91,-119 2167.91,-113 2173.91,-113"/>
<text text-anchor="middle" x="2203.28" y="-126.2" font-family="Times,serif" font-size="14.00">12:0 &#45; 36:24</text>
</g>
<!-- x11&#45;&gt;x12 -->
<g id="edge10" class="edge">
<title>x11:e&#45;&gt;x12:w</title>
<path fill="none" stroke="black" stroke-width="3" d="M2137.89,-112.43C2142.49,-116.51 2145.34,-122.51 2149.94,-126.58"/>
<polygon fill="none" stroke="black" stroke-width="3" points="2139.7,-113.11 2132.68,-114.77 2128.44,-108.94 2135.46,-107.27 2139.7,-113.11"/>
<polygon fill="none" stroke="black" stroke-width="3" points="2148.12,-125.9 2155.13,-124.23 2159.37,-130.06 2152.36,-131.73 2148.12,-125.9"/>
</g>
<!-- x12&#45;&gt;n5 -->
<g id="edge23" class="edge">
<title>x12:e&#45;&gt;n5:w</title>
<path fill="none" stroke="black" stroke-width="3" d="M2245.66,-131.25C2253.78,-131.25 2250.56,-143.92 2244.66,-149.5 2217.95,-174.78 2198.69,-149.53 2161.91,-149.5 2029.99,-149.39 1960.85,-239.74 1865.1,-149 1863.1,-147.11 1861.41,-144.39 1860.38,-141.63"/>
<polygon fill="black" stroke="black" stroke-width="3" points="1862.6,-145.88 1862.6,-135.29 1855.99,-143.57 1862.6,-145.88"/>
</g>
<!-- n2&#45;&gt;x0 -->
<g id="edge14" class="edge">
<title>n2:e&#45;&gt;x0:w</title>
<path fill="none" stroke="black" stroke-width="3" d="M1927.53,-270C1974.02,-270 1987.62,-257.52 2028.85,-255.52"/>
<polygon fill="black" stroke="black" stroke-width="3" points="2025.83,-259.09 2035.74,-255.36 2025.66,-252.09 2025.83,-259.09"/>
</g>
<!-- n3&#45;&gt;x5 -->
<g id="edge18" class="edge">
<title>n3:e&#45;&gt;x5:w</title>
<path fill="none" stroke="black" stroke-width="3" d="M1012.62,-131C1043.41,-131 1053.81,-130.81 1079.83,-130.76"/>
<polygon fill="black" stroke="black" stroke-width="3" points="1076.56,-134.26 1086.55,-130.75 1076.55,-127.26 1076.56,-134.26"/>
</g>
<!-- n3&#45;&gt;x5 -->
<g id="edge19" class="edge">
<title>n3:e&#45;&gt;x5:w</title>
<path fill="none" stroke="black" stroke-width="3" d="M1012.62,-131C1044.99,-131 1052.95,-150.07 1079.79,-154.39"/>
<polygon fill="black" stroke="black" stroke-width="3" points="1076.33,-157.63 1086.57,-154.9 1076.86,-150.65 1076.33,-157.63"/>
</g>
<!-- n3&#45;&gt;x9 -->
<g id="edge20" class="edge">
<title>n3:e&#45;&gt;x9:w</title>
<path fill="none" stroke="black" stroke-width="3" d="M1012.62,-131C1060.65,-131 1042.54,-57.06 1079.72,-44.92"/>
<polygon fill="black" stroke="black" stroke-width="3" points="1077.22,-48.83 1086.6,-43.91 1076.2,-41.9 1077.22,-48.83"/>
</g>
</g>
</svg>
