<?xml version="1.0" encoding="UTF-8" standalone="no"?>
<!DOCTYPE svg PUBLIC "-//W3C//DTD SVG 1.1//EN"
 "http://www.w3.org/Graphics/SVG/1.1/DTD/svg11.dtd">
<!-- Generated by graphviz version 12.2.1 (20241206.2353)
 -->
<!-- Title: top Pages: 1 -->
<svg width="3271pt" height="412pt"
 viewBox="0.00 0.00 3270.87 412.45" xmlns="http://www.w3.org/2000/svg" xmlns:xlink="http://www.w3.org/1999/xlink">
<g id="graph0" class="graph" transform="scale(1 1) rotate(0) translate(4 408.45)">
<title>top</title>
<polygon fill="white" stroke="none" points="-4,4 -4,-408.45 3266.87,-408.45 3266.87,4 -4,4"/>
<text text-anchor="middle" x="1631.43" y="-7.2" font-family="Times,serif" font-size="14.00">top</text>
<!-- n7 -->
<g id="node1" class="node">
<title>n7</title>
<polygon fill="none" stroke="black" points="107.84,-218.5 107.84,-233.41 76.26,-243.95 31.59,-243.95 0,-233.41 0,-218.5 31.59,-207.95 76.26,-207.95 107.84,-218.5"/>
<text text-anchor="middle" x="53.92" y="-220.9" font-family="Times,serif" font-size="14.00">input_data</text>
</g>
<!-- c18 -->
<g id="node9" class="node">
<title>c18</title>
<polygon fill="none" stroke="black" points="143.84,-189.45 143.84,-238.45 237.59,-238.45 237.59,-189.45 143.84,-189.45"/>
<text text-anchor="middle" x="156.72" y="-221.15" font-family="Times,serif" font-size="14.00">A</text>
<polyline fill="none" stroke="black" points="143.84,-213.95 169.59,-213.95"/>
<text text-anchor="middle" x="156.72" y="-196.65" font-family="Times,serif" font-size="14.00">B</text>
<polyline fill="none" stroke="black" points="169.59,-189.45 169.59,-238.45"/>
<text text-anchor="middle" x="190.72" y="-217.15" font-family="Times,serif" font-size="14.00">$1</text>
<text text-anchor="middle" x="190.72" y="-200.65" font-family="Times,serif" font-size="14.00">$and</text>
<polyline fill="none" stroke="black" points="211.84,-189.45 211.84,-238.45"/>
<text text-anchor="middle" x="224.72" y="-209.15" font-family="Times,serif" font-size="14.00">Y</text>
</g>
<!-- n7&#45;&gt;c18 -->
<g id="edge47" class="edge">
<title>n7:e&#45;&gt;c18:w</title>
<path fill="none" stroke="black" stroke-width="3" d="M107.84,-225.95C119.22,-225.95 124.53,-226.08 132.39,-226.15"/>
<polygon fill="black" stroke="black" stroke-width="3" points="129.28,-229.64 139.3,-226.18 129.32,-222.64 129.28,-229.64"/>
</g>
<!-- n7&#45;&gt;c18 -->
<g id="edge48" class="edge">
<title>n7:e&#45;&gt;c18:w</title>
<path fill="none" stroke="black" stroke-width="3" d="M107.84,-225.95C122.46,-225.95 124.52,-212.03 133.05,-205.28"/>
<polygon fill="black" stroke="black" stroke-width="3" points="131.14,-209.6 139.53,-203.13 128.94,-202.96 131.14,-209.6"/>
</g>
<!-- c20 -->
<g id="node11" class="node">
<title>c20</title>
<polygon fill="none" stroke="black" points="1859.12,-206.45 1859.12,-255.45 1952.87,-255.45 1952.87,-206.45 1859.12,-206.45"/>
<text text-anchor="middle" x="1871.99" y="-238.15" font-family="Times,serif" font-size="14.00">A</text>
<polyline fill="none" stroke="black" points="1859.12,-230.95 1884.87,-230.95"/>
<text text-anchor="middle" x="1871.99" y="-213.65" font-family="Times,serif" font-size="14.00">B</text>
<polyline fill="none" stroke="black" points="1884.87,-206.45 1884.87,-255.45"/>
<text text-anchor="middle" x="1905.99" y="-234.15" font-family="Times,serif" font-size="14.00">$56</text>
<text text-anchor="middle" x="1905.99" y="-217.65" font-family="Times,serif" font-size="14.00">$and</text>
<polyline fill="none" stroke="black" points="1927.12,-206.45 1927.12,-255.45"/>
<text text-anchor="middle" x="1939.99" y="-226.15" font-family="Times,serif" font-size="14.00">Y</text>
</g>
<!-- n7&#45;&gt;c20 -->
<g id="edge49" class="edge">
<title>n7:e&#45;&gt;c20:w</title>
<path fill="none" stroke="black" stroke-width="3" d="M107.84,-225.95C133.8,-225.95 125.42,-198.25 143.84,-179.95 217.13,-107.16 224.54,-37.95 327.84,-37.95 327.84,-37.95 327.84,-37.95 1622.36,-37.95 1712.03,-37.95 1756.85,2.45 1823.12,-57.95 1881.96,-111.58 1785.96,-230.31 1847.79,-242.23"/>
<polygon fill="black" stroke="black" stroke-width="3" points="1844.33,-245.45 1854.59,-242.82 1844.93,-238.47 1844.33,-245.45"/>
</g>
<!-- c27 -->
<g id="node29" class="node">
<title>c27</title>
<polygon fill="none" stroke="black" points="795.3,-282.45 795.3,-331.45 880.8,-331.45 880.8,-282.45 795.3,-282.45"/>
<text text-anchor="middle" x="808.18" y="-314.15" font-family="Times,serif" font-size="14.00">A</text>
<polyline fill="none" stroke="black" points="795.3,-306.95 821.05,-306.95"/>
<text text-anchor="middle" x="808.18" y="-289.65" font-family="Times,serif" font-size="14.00">B</text>
<polyline fill="none" stroke="black" points="821.05,-282.45 821.05,-331.45"/>
<text text-anchor="middle" x="838.05" y="-310.15" font-family="Times,serif" font-size="14.00">$4</text>
<text text-anchor="middle" x="838.05" y="-293.65" font-family="Times,serif" font-size="14.00">$or</text>
<polyline fill="none" stroke="black" points="855.05,-282.45 855.05,-331.45"/>
<text text-anchor="middle" x="867.93" y="-302.15" font-family="Times,serif" font-size="14.00">Y</text>
</g>
<!-- n7&#45;&gt;c27 -->
<g id="edge50" class="edge">
<title>n7:e&#45;&gt;c27:w</title>
<path fill="none" stroke="black" stroke-width="3" d="M107.84,-225.95C126.59,-225.95 126.31,-241.29 143.84,-247.95 221.51,-277.45 244.76,-280.95 327.84,-280.95 327.84,-280.95 327.84,-280.95 463.84,-280.95 606.96,-280.95 645.3,-293.99 782.9,-294.67"/>
<polygon fill="black" stroke="black" stroke-width="3" points="779.75,-298.17 789.76,-294.69 779.77,-291.17 779.75,-298.17"/>
</g>
<!-- c30 -->
<g id="node37" class="node">
<title>c30</title>
<polygon fill="none" stroke="black" points="543.47,-309.45 543.47,-358.45 635.72,-358.45 635.72,-309.45 543.47,-309.45"/>
<text text-anchor="middle" x="556.34" y="-341.15" font-family="Times,serif" font-size="14.00">A</text>
<polyline fill="none" stroke="black" points="543.47,-333.95 569.22,-333.95"/>
<text text-anchor="middle" x="556.34" y="-316.65" font-family="Times,serif" font-size="14.00">B</text>
<polyline fill="none" stroke="black" points="569.22,-309.45 569.22,-358.45"/>
<text text-anchor="middle" x="589.59" y="-337.15" font-family="Times,serif" font-size="14.00">$3</text>
<text text-anchor="middle" x="589.59" y="-320.65" font-family="Times,serif" font-size="14.00">$xor</text>
<polyline fill="none" stroke="black" points="609.97,-309.45 609.97,-358.45"/>
<text text-anchor="middle" x="622.84" y="-329.15" font-family="Times,serif" font-size="14.00">Y</text>
</g>
<!-- n7&#45;&gt;c30 -->
<g id="edge51" class="edge">
<title>n7:e&#45;&gt;c30:w</title>
<path fill="none" stroke="black" stroke-width="3" d="M107.84,-225.95C142.43,-225.95 114.88,-276.04 143.84,-294.95 289.32,-389.95 361.76,-324.65 531.17,-321.8"/>
<polygon fill="black" stroke="black" stroke-width="3" points="527.96,-325.32 537.93,-321.74 527.9,-318.33 527.96,-325.32"/>
</g>
<!-- n8 -->
<g id="node2" class="node">
<title>n8</title>
<polygon fill="none" stroke="black" points="2443.06,-148.5 2443.06,-163.41 2408.56,-173.95 2359.76,-173.95 2325.25,-163.41 2325.25,-148.5 2359.76,-137.95 2408.56,-137.95 2443.06,-148.5"/>
<text text-anchor="middle" x="2384.16" y="-150.9" font-family="Times,serif" font-size="14.00">output_data</text>
</g>
<!-- x20 -->
<g id="node42" class="node">
<title>x20</title>
<path fill="none" stroke="black" d="M2505.94,-138.95C2505.94,-138.95 2544.44,-138.95 2544.44,-138.95 2550.44,-138.95 2556.44,-144.95 2556.44,-150.95 2556.44,-150.95 2556.44,-162.95 2556.44,-162.95 2556.44,-168.95 2550.44,-174.95 2544.44,-174.95 2544.44,-174.95 2505.94,-174.95 2505.94,-174.95 2499.94,-174.95 2493.94,-168.95 2493.94,-162.95 2493.94,-162.95 2493.94,-150.95 2493.94,-150.95 2493.94,-144.95 2499.94,-138.95 2505.94,-138.95"/>
<text text-anchor="middle" x="2525.19" y="-152.15" font-family="Times,serif" font-size="14.00">6:2 &#45; 4:0</text>
</g>
<!-- n8&#45;&gt;x20 -->
<g id="edge55" class="edge">
<title>n8:e&#45;&gt;x20:w</title>
<path fill="none" stroke="black" stroke-width="3" d="M2443.06,-155.95C2460.91,-155.95 2467.97,-156.76 2481.6,-157.08"/>
<polygon fill="black" stroke="black" stroke-width="3" points="2478.36,-160.54 2488.4,-157.15 2478.44,-153.54 2478.36,-160.54"/>
</g>
<!-- n9 -->
<g id="node3" class="node">
<title>n9</title>
<polygon fill="none" stroke="black" points="328.84,-205.95 273.59,-187.95 328.84,-169.95 384.09,-187.95 328.84,-205.95"/>
<text text-anchor="middle" x="328.84" y="-182.9" font-family="Times,serif" font-size="14.00">temp_0</text>
</g>
<!-- c23 -->
<g id="node20" class="node">
<title>c23</title>
<polygon fill="none" stroke="black" points="541.59,-116.45 541.59,-165.45 637.59,-165.45 637.59,-116.45 541.59,-116.45"/>
<text text-anchor="middle" x="554.47" y="-148.15" font-family="Times,serif" font-size="14.00">A</text>
<polyline fill="none" stroke="black" points="541.59,-140.95 567.34,-140.95"/>
<text text-anchor="middle" x="554.47" y="-123.65" font-family="Times,serif" font-size="14.00">B</text>
<polyline fill="none" stroke="black" points="567.34,-116.45 567.34,-165.45"/>
<text text-anchor="middle" x="589.59" y="-144.15" font-family="Times,serif" font-size="14.00">$8</text>
<text text-anchor="middle" x="589.59" y="-127.65" font-family="Times,serif" font-size="14.00">$mul</text>
<polyline fill="none" stroke="black" points="611.84,-116.45 611.84,-165.45"/>
<text text-anchor="middle" x="624.72" y="-136.15" font-family="Times,serif" font-size="14.00">Y</text>
</g>
<!-- n9&#45;&gt;c23 -->
<g id="edge57" class="edge">
<title>n9:e&#45;&gt;c23:w</title>
<path fill="none" stroke="black" stroke-width="3" d="M384.09,-187.95C451.86,-187.95 468.19,-156.9 530.33,-153.5"/>
<polygon fill="black" stroke="black" stroke-width="3" points="527.15,-157.09 537.05,-153.32 526.96,-150.09 527.15,-157.09"/>
</g>
<!-- x6 -->
<g id="node21" class="node">
<title>x6</title>
<path fill="none" stroke="black" d="M443.59,-109.95C443.59,-109.95 482.09,-109.95 482.09,-109.95 488.09,-109.95 494.09,-115.95 494.09,-121.95 494.09,-121.95 494.09,-133.95 494.09,-133.95 494.09,-139.95 488.09,-145.95 482.09,-145.95 482.09,-145.95 443.59,-145.95 443.59,-145.95 437.59,-145.95 431.59,-139.95 431.59,-133.95 431.59,-133.95 431.59,-121.95 431.59,-121.95 431.59,-115.95 437.59,-109.95 443.59,-109.95"/>
<text text-anchor="middle" x="462.84" y="-123.15" font-family="Times,serif" font-size="14.00">4:1 &#45; 3:0</text>
</g>
<!-- n9&#45;&gt;x6 -->
<g id="edge61" class="edge">
<title>n9:e&#45;&gt;x6:w</title>
<path fill="none" stroke="black" stroke-width="3" d="M384.09,-187.95C413.27,-187.95 401.51,-143.02 419.81,-131.08"/>
<polygon fill="black" stroke="black" stroke-width="3" points="417.45,-135.34 426.21,-129.38 415.64,-128.58 417.45,-135.34"/>
</g>
<!-- c25 -->
<g id="node25" class="node">
<title>c25</title>
<polygon fill="none" stroke="black" points="1434.11,-120.45 1434.11,-169.45 1530.11,-169.45 1530.11,-120.45 1434.11,-120.45"/>
<text text-anchor="middle" x="1446.99" y="-152.15" font-family="Times,serif" font-size="14.00">A</text>
<polyline fill="none" stroke="black" points="1434.11,-144.95 1459.86,-144.95"/>
<text text-anchor="middle" x="1446.99" y="-127.65" font-family="Times,serif" font-size="14.00">B</text>
<polyline fill="none" stroke="black" points="1459.86,-120.45 1459.86,-169.45"/>
<text text-anchor="middle" x="1482.11" y="-148.15" font-family="Times,serif" font-size="14.00">$20</text>
<text text-anchor="middle" x="1482.11" y="-131.65" font-family="Times,serif" font-size="14.00">$mul</text>
<polyline fill="none" stroke="black" points="1504.36,-120.45 1504.36,-169.45"/>
<text text-anchor="middle" x="1517.24" y="-140.15" font-family="Times,serif" font-size="14.00">Y</text>
</g>
<!-- n9&#45;&gt;c25 -->
<g id="edge58" class="edge">
<title>n9:e&#45;&gt;c25:w</title>
<path fill="none" stroke="black" stroke-width="3" d="M384.09,-187.95C425.94,-187.95 386.74,-126.22 420.09,-100.95 480.21,-55.41 513.18,-80.95 588.59,-80.95 588.59,-80.95 588.59,-80.95 1285.31,-80.95 1351.37,-80.95 1362.91,-127.01 1422.78,-132.22"/>
<polygon fill="black" stroke="black" stroke-width="3" points="1419.44,-135.58 1429.58,-132.51 1419.73,-128.59 1419.44,-135.58"/>
</g>
<!-- c26 -->
<g id="node28" class="node">
<title>c26</title>
<polygon fill="none" stroke="black" points="420.09,-203.45 420.09,-252.45 505.59,-252.45 505.59,-203.45 420.09,-203.45"/>
<text text-anchor="middle" x="432.97" y="-235.15" font-family="Times,serif" font-size="14.00">A</text>
<polyline fill="none" stroke="black" points="420.09,-227.95 445.84,-227.95"/>
<text text-anchor="middle" x="432.97" y="-210.65" font-family="Times,serif" font-size="14.00">B</text>
<polyline fill="none" stroke="black" points="445.84,-203.45 445.84,-252.45"/>
<text text-anchor="middle" x="462.84" y="-231.15" font-family="Times,serif" font-size="14.00">$2</text>
<text text-anchor="middle" x="462.84" y="-214.65" font-family="Times,serif" font-size="14.00">$or</text>
<polyline fill="none" stroke="black" points="479.84,-203.45 479.84,-252.45"/>
<text text-anchor="middle" x="492.72" y="-223.15" font-family="Times,serif" font-size="14.00">Y</text>
</g>
<!-- n9&#45;&gt;c26 -->
<g id="edge59" class="edge">
<title>n9:e&#45;&gt;c26:w</title>
<path fill="none" stroke="black" stroke-width="3" d="M384.09,-187.95C407.45,-187.95 397.47,-223.79 409.36,-236.1"/>
<polygon fill="black" stroke="black" stroke-width="3" points="405.26,-238.28 415.85,-238.58 407.76,-231.74 405.26,-238.28"/>
</g>
<!-- n9&#45;&gt;c26 -->
<g id="edge60" class="edge">
<title>n9:e&#45;&gt;c26:w</title>
<path fill="none" stroke="black" stroke-width="3" d="M384.09,-187.95C399.56,-187.95 400.6,-204.22 409.31,-211.84"/>
<polygon fill="black" stroke="black" stroke-width="3" points="405.22,-214.1 415.82,-214.17 407.58,-207.51 405.22,-214.1"/>
</g>
<!-- n10 -->
<g id="node4" class="node">
<title>n10</title>
<polygon fill="none" stroke="black" points="1621.36,-324.95 1566.11,-306.95 1621.36,-288.95 1676.61,-306.95 1621.36,-324.95"/>
<text text-anchor="middle" x="1621.36" y="-301.9" font-family="Times,serif" font-size="14.00">temp_1</text>
</g>
<!-- c19 -->
<g id="node10" class="node">
<title>c19</title>
<polygon fill="none" stroke="black" points="1722.12,-206.45 1722.12,-247.45 1813.62,-247.45 1813.62,-206.45 1722.12,-206.45"/>
<text text-anchor="middle" x="1734.99" y="-222.15" font-family="Times,serif" font-size="14.00">A</text>
<polyline fill="none" stroke="black" points="1747.87,-206.45 1747.87,-247.45"/>
<text text-anchor="middle" x="1767.87" y="-230.15" font-family="Times,serif" font-size="14.00">$52</text>
<text text-anchor="middle" x="1767.87" y="-213.65" font-family="Times,serif" font-size="14.00">$not</text>
<polyline fill="none" stroke="black" points="1787.87,-206.45 1787.87,-247.45"/>
<text text-anchor="middle" x="1800.74" y="-222.15" font-family="Times,serif" font-size="14.00">Y</text>
</g>
<!-- n10&#45;&gt;c19 -->
<g id="edge20" class="edge">
<title>n10:e&#45;&gt;c19:w</title>
<path fill="none" stroke="black" stroke-width="3" d="M1676.61,-306.95C1712.61,-306.95 1687.84,-244.25 1710.07,-230.04"/>
<polygon fill="black" stroke="black" stroke-width="3" points="1707.9,-234.21 1716.72,-228.33 1706.16,-227.43 1707.9,-234.21"/>
</g>
<!-- x3 -->
<g id="node17" class="node">
<title>x3</title>
<path fill="none" stroke="black" d="M2748.33,-195.95C2748.33,-195.95 2786.83,-195.95 2786.83,-195.95 2792.83,-195.95 2798.83,-201.95 2798.83,-207.95 2798.83,-207.95 2798.83,-219.95 2798.83,-219.95 2798.83,-225.95 2792.83,-231.95 2786.83,-231.95 2786.83,-231.95 2748.33,-231.95 2748.33,-231.95 2742.33,-231.95 2736.33,-225.95 2736.33,-219.95 2736.33,-219.95 2736.33,-207.95 2736.33,-207.95 2736.33,-201.95 2742.33,-195.95 2748.33,-195.95"/>
<text text-anchor="middle" x="2767.58" y="-209.15" font-family="Times,serif" font-size="14.00">1:0 &#45; 1:0</text>
</g>
<!-- n10&#45;&gt;x3 -->
<g id="edge23" class="edge">
<title>n10:e&#45;&gt;x3:w</title>
<path fill="none" stroke="black" stroke-width="3" d="M1676.61,-306.95C1689.37,-306.95 1892.24,-283.95 1904.99,-283.95 1904.99,-283.95 1904.99,-283.95 2066.81,-283.95 2361.75,-283.95 2434.75,-215.96 2724.06,-214.24"/>
<polygon fill="black" stroke="black" stroke-width="3" points="2720.8,-217.75 2730.79,-214.22 2720.78,-210.75 2720.8,-217.75"/>
</g>
<!-- x11 -->
<g id="node31" class="node">
<title>x11</title>
<path fill="none" stroke="black" d="M1748.62,-367.95C1748.62,-367.95 1787.12,-367.95 1787.12,-367.95 1793.12,-367.95 1799.12,-373.95 1799.12,-379.95 1799.12,-379.95 1799.12,-391.95 1799.12,-391.95 1799.12,-397.95 1793.12,-403.95 1787.12,-403.95 1787.12,-403.95 1748.62,-403.95 1748.62,-403.95 1742.62,-403.95 1736.62,-397.95 1736.62,-391.95 1736.62,-391.95 1736.62,-379.95 1736.62,-379.95 1736.62,-373.95 1742.62,-367.95 1748.62,-367.95"/>
<text text-anchor="middle" x="1767.87" y="-381.15" font-family="Times,serif" font-size="14.00">1:0 &#45; 1:0</text>
</g>
<!-- n10&#45;&gt;x11 -->
<g id="edge21" class="edge">
<title>n10:e&#45;&gt;x11:w</title>
<path fill="none" stroke="black" stroke-width="3" d="M1676.61,-306.95C1716.07,-306.95 1696.81,-370.92 1724.33,-383.92"/>
<polygon fill="black" stroke="black" stroke-width="3" points="1720.67,-386.74 1731.17,-385.3 1722.06,-379.88 1720.67,-386.74"/>
</g>
<!-- x12 -->
<g id="node32" class="node">
<title>x12</title>
<path fill="none" stroke="black" d="M1748.62,-312.95C1748.62,-312.95 1787.12,-312.95 1787.12,-312.95 1793.12,-312.95 1799.12,-318.95 1799.12,-324.95 1799.12,-324.95 1799.12,-336.95 1799.12,-336.95 1799.12,-342.95 1793.12,-348.95 1787.12,-348.95 1787.12,-348.95 1748.62,-348.95 1748.62,-348.95 1742.62,-348.95 1736.62,-342.95 1736.62,-336.95 1736.62,-336.95 1736.62,-324.95 1736.62,-324.95 1736.62,-318.95 1742.62,-312.95 1748.62,-312.95"/>
<text text-anchor="middle" x="1767.87" y="-326.15" font-family="Times,serif" font-size="14.00">1:0 &#45; 1:0</text>
</g>
<!-- n10&#45;&gt;x12 -->
<g id="edge22" class="edge">
<title>n10:e&#45;&gt;x12:w</title>
<path fill="none" stroke="black" stroke-width="3" d="M1676.61,-306.95C1700.65,-306.95 1705.96,-324.38 1724.29,-329.69"/>
<polygon fill="black" stroke="black" stroke-width="3" points="1720.74,-332.74 1731.12,-330.6 1721.67,-325.8 1720.74,-332.74"/>
</g>
<!-- n11 -->
<g id="node5" class="node">
<title>n11</title>
<polygon fill="none" stroke="black" points="2767.58,-174.95 2705.81,-156.95 2767.58,-138.95 2829.34,-156.95 2767.58,-174.95"/>
<text text-anchor="middle" x="2767.58" y="-151.9" font-family="Times,serif" font-size="14.00">temp_17</text>
</g>
<!-- x4 -->
<g id="node18" class="node">
<title>x4</title>
<path fill="none" stroke="black" d="M2877.34,-155.95C2877.34,-155.95 2915.84,-155.95 2915.84,-155.95 2921.84,-155.95 2927.84,-161.95 2927.84,-167.95 2927.84,-167.95 2927.84,-179.95 2927.84,-179.95 2927.84,-185.95 2921.84,-191.95 2915.84,-191.95 2915.84,-191.95 2877.34,-191.95 2877.34,-191.95 2871.34,-191.95 2865.34,-185.95 2865.34,-179.95 2865.34,-179.95 2865.34,-167.95 2865.34,-167.95 2865.34,-161.95 2871.34,-155.95 2877.34,-155.95"/>
<text text-anchor="middle" x="2896.59" y="-169.15" font-family="Times,serif" font-size="14.00">1:0 &#45; 1:0</text>
</g>
<!-- n11&#45;&gt;x4 -->
<g id="edge28" class="edge">
<title>n11:e&#45;&gt;x4:w</title>
<path fill="none" stroke="black" stroke-width="3" d="M2829.34,-156.95C2842.51,-156.95 2846.19,-166.45 2854.46,-171.35"/>
<polygon fill="black" stroke="black" stroke-width="3" points="2850.39,-173.9 2860.95,-173.05 2852.16,-167.13 2850.39,-173.9"/>
</g>
<!-- x24 -->
<g id="node46" class="node">
<title>x24</title>
<path fill="none" stroke="black" d="M2877.34,-100.95C2877.34,-100.95 2915.84,-100.95 2915.84,-100.95 2921.84,-100.95 2927.84,-106.95 2927.84,-112.95 2927.84,-112.95 2927.84,-124.95 2927.84,-124.95 2927.84,-130.95 2921.84,-136.95 2915.84,-136.95 2915.84,-136.95 2877.34,-136.95 2877.34,-136.95 2871.34,-136.95 2865.34,-130.95 2865.34,-124.95 2865.34,-124.95 2865.34,-112.95 2865.34,-112.95 2865.34,-106.95 2871.34,-100.95 2877.34,-100.95"/>
<text text-anchor="middle" x="2896.59" y="-114.15" font-family="Times,serif" font-size="14.00">0:0 &#45; 0:0</text>
</g>
<!-- n11&#45;&gt;x24 -->
<g id="edge27" class="edge">
<title>n11:e&#45;&gt;x24:w</title>
<path fill="none" stroke="black" d="M2829.34,-156.95C2847.82,-156.95 2844.99,-132.98 2854.81,-123.24"/>
<polygon fill="black" stroke="black" points="2855.85,-126.59 2863.93,-119.74 2853.34,-120.06 2855.85,-126.59"/>
</g>
<!-- n12 -->
<g id="node6" class="node">
<title>n12</title>
<polygon fill="none" stroke="black" points="2234,-255.95 2178.75,-237.95 2234,-219.95 2289.25,-237.95 2234,-255.95"/>
<text text-anchor="middle" x="2234" y="-232.9" font-family="Times,serif" font-size="14.00">temp_2</text>
</g>
<!-- x1 -->
<g id="node14" class="node">
<title>x1</title>
<path fill="none" stroke="black" d="M2364.91,-310.95C2364.91,-310.95 2403.41,-310.95 2403.41,-310.95 2409.41,-310.95 2415.41,-316.95 2415.41,-322.95 2415.41,-322.95 2415.41,-334.95 2415.41,-334.95 2415.41,-340.95 2409.41,-346.95 2403.41,-346.95 2403.41,-346.95 2364.91,-346.95 2364.91,-346.95 2358.91,-346.95 2352.91,-340.95 2352.91,-334.95 2352.91,-334.95 2352.91,-322.95 2352.91,-322.95 2352.91,-316.95 2358.91,-310.95 2364.91,-310.95"/>
<text text-anchor="middle" x="2384.16" y="-324.15" font-family="Times,serif" font-size="14.00">1:0 &#45; 1:0</text>
</g>
<!-- n12&#45;&gt;x1 -->
<g id="edge32" class="edge">
<title>n12:e&#45;&gt;x1:w</title>
<path fill="none" stroke="black" stroke-width="3" d="M2289.25,-237.95C2334.22,-237.95 2308.23,-314.19 2341,-327.3"/>
<polygon fill="black" stroke="black" stroke-width="3" points="2336.98,-330.15 2347.43,-328.42 2338.19,-323.25 2336.98,-330.15"/>
</g>
<!-- x13 -->
<g id="node34" class="node">
<title>x13</title>
<path fill="none" stroke="black" d="M3198.09,-160.2C3198.09,-160.2 3236.59,-160.2 3236.59,-160.2 3242.59,-160.2 3248.59,-166.2 3248.59,-172.2 3248.59,-172.2 3248.59,-221.7 3248.59,-221.7 3248.59,-227.7 3242.59,-233.7 3236.59,-233.7 3236.59,-233.7 3198.09,-233.7 3198.09,-233.7 3192.09,-233.7 3186.09,-227.7 3186.09,-221.7 3186.09,-221.7 3186.09,-172.2 3186.09,-172.2 3186.09,-166.2 3192.09,-160.2 3198.09,-160.2"/>
<text text-anchor="middle" x="3217.34" y="-216.4" font-family="Times,serif" font-size="14.00">0 &#45;&gt; 5:4</text>
<polyline fill="none" stroke="black" points="3186.09,-209.2 3248.59,-209.2"/>
<text text-anchor="middle" x="3217.34" y="-191.9" font-family="Times,serif" font-size="14.00">4:2 &#45; 3:1</text>
<polyline fill="none" stroke="black" points="3186.09,-184.7 3248.59,-184.7"/>
<text text-anchor="middle" x="3217.34" y="-167.4" font-family="Times,serif" font-size="14.00">1:1 &#45; 0:0</text>
</g>
<!-- n12&#45;&gt;x13 -->
<g id="edge31" class="edge">
<title>n12:e&#45;&gt;x13:w</title>
<path fill="none" stroke="black" stroke-width="3" d="M2289.25,-237.95C2503.8,-237.95 2552.03,-309.95 2766.58,-309.95 2766.58,-309.95 2766.58,-309.95 3008.72,-309.95 3098.17,-309.95 3093.25,-206.45 3174.6,-197.56"/>
<polygon fill="black" stroke="black" stroke-width="3" points="3171.76,-201.22 3181.56,-197.19 3171.39,-194.23 3171.76,-201.22"/>
</g>
<!-- n13 -->
<g id="node7" class="node">
<title>n13</title>
<polygon fill="none" stroke="black" points="838.05,-158.95 782.8,-140.95 838.05,-122.95 893.3,-140.95 838.05,-158.95"/>
<text text-anchor="middle" x="838.05" y="-135.9" font-family="Times,serif" font-size="14.00">temp_4</text>
</g>
<!-- c24 -->
<g id="node23" class="node">
<title>c24</title>
<polygon fill="none" stroke="black" points="1038.51,-129.45 1038.51,-178.45 1134.51,-178.45 1134.51,-129.45 1038.51,-129.45"/>
<text text-anchor="middle" x="1051.39" y="-161.15" font-family="Times,serif" font-size="14.00">A</text>
<polyline fill="none" stroke="black" points="1038.51,-153.95 1064.26,-153.95"/>
<text text-anchor="middle" x="1051.39" y="-136.65" font-family="Times,serif" font-size="14.00">B</text>
<polyline fill="none" stroke="black" points="1064.26,-129.45 1064.26,-178.45"/>
<text text-anchor="middle" x="1086.51" y="-157.15" font-family="Times,serif" font-size="14.00">$19</text>
<text text-anchor="middle" x="1086.51" y="-140.65" font-family="Times,serif" font-size="14.00">$mul</text>
<polyline fill="none" stroke="black" points="1108.76,-129.45 1108.76,-178.45"/>
<text text-anchor="middle" x="1121.64" y="-149.15" font-family="Times,serif" font-size="14.00">Y</text>
</g>
<!-- n13&#45;&gt;c24 -->
<g id="edge34" class="edge">
<title>n13:e&#45;&gt;c24:w</title>
<path fill="none" stroke="black" stroke-width="3" d="M895.68,-140.95C955.19,-140.95 972.86,-141.61 1027.15,-141.69"/>
<polygon fill="black" stroke="black" stroke-width="3" points="1023.97,-145.19 1033.97,-141.7 1023.98,-138.19 1023.97,-145.19"/>
</g>
<!-- n14 -->
<g id="node8" class="node">
<title>n14</title>
<polygon fill="none" stroke="black" points="1767.87,-102.95 1712.61,-84.95 1767.87,-66.95 1823.12,-84.95 1767.87,-102.95"/>
<text text-anchor="middle" x="1767.87" y="-79.9" font-family="Times,serif" font-size="14.00">temp_9</text>
</g>
<!-- x14 -->
<g id="node35" class="node">
<title>x14</title>
<path fill="none" stroke="black" d="M1886.74,-53.95C1886.74,-53.95 1925.24,-53.95 1925.24,-53.95 1931.24,-53.95 1937.24,-59.95 1937.24,-65.95 1937.24,-65.95 1937.24,-77.95 1937.24,-77.95 1937.24,-83.95 1931.24,-89.95 1925.24,-89.95 1925.24,-89.95 1886.74,-89.95 1886.74,-89.95 1880.74,-89.95 1874.74,-83.95 1874.74,-77.95 1874.74,-77.95 1874.74,-65.95 1874.74,-65.95 1874.74,-59.95 1880.74,-53.95 1886.74,-53.95"/>
<text text-anchor="middle" x="1905.99" y="-67.15" font-family="Times,serif" font-size="14.00">6:1 &#45; 5:0</text>
</g>
<!-- n14&#45;&gt;x14 -->
<g id="edge37" class="edge">
<title>n14:e&#45;&gt;x14:w</title>
<path fill="none" stroke="black" stroke-width="3" d="M1823.12,-84.95C1841.97,-84.95 1848.29,-76.54 1862.44,-73.38"/>
<polygon fill="black" stroke="black" stroke-width="3" points="1859.64,-77.19 1869.22,-72.67 1858.92,-70.23 1859.64,-77.19"/>
</g>
<!-- c18&#45;&gt;n9 -->
<g id="edge56" class="edge">
<title>c18:e&#45;&gt;n9:w</title>
<path fill="none" stroke="black" stroke-width="3" d="M237.59,-214.2C252.75,-214.2 254.19,-198.82 262.92,-191.6"/>
<polygon fill="black" stroke="black" stroke-width="3" points="260.97,-195.97 269.29,-189.42 258.7,-189.35 260.97,-195.97"/>
</g>
<!-- c19&#45;&gt;c20 -->
<g id="edge18" class="edge">
<title>c19:e&#45;&gt;c20:w</title>
<path fill="none" stroke="black" stroke-width="3" d="M1814.62,-227.2C1830.35,-227.2 1836.37,-222.01 1847.85,-219.74"/>
<polygon fill="black" stroke="black" stroke-width="3" points="1844.96,-223.53 1854.59,-219.12 1844.31,-216.56 1844.96,-223.53"/>
</g>
<!-- x0 -->
<g id="node12" class="node">
<title>x0</title>
<path fill="none" stroke="black" d="M2046.56,-218.95C2046.56,-218.95 2085.06,-218.95 2085.06,-218.95 2091.06,-218.95 2097.06,-224.95 2097.06,-230.95 2097.06,-230.95 2097.06,-242.95 2097.06,-242.95 2097.06,-248.95 2091.06,-254.95 2085.06,-254.95 2085.06,-254.95 2046.56,-254.95 2046.56,-254.95 2040.56,-254.95 2034.56,-248.95 2034.56,-242.95 2034.56,-242.95 2034.56,-230.95 2034.56,-230.95 2034.56,-224.95 2040.56,-218.95 2046.56,-218.95"/>
<text text-anchor="middle" x="2065.81" y="-232.15" font-family="Times,serif" font-size="14.00">4:0 &#45; 4:0</text>
</g>
<!-- c20&#45;&gt;x0 -->
<g id="edge1" class="edge">
<title>c20:e&#45;&gt;x0:w</title>
<path fill="none" stroke="black" stroke-width="3" d="M1965.88,-231.48C1987.71,-232.45 1998.76,-235.71 2020.61,-236.68"/>
<polygon fill="none" stroke="black" stroke-width="3" points="1967.57,-231.52 1961.48,-235.39 1955.57,-231.26 1961.65,-227.39 1967.57,-231.52"/>
<polygon fill="none" stroke="black" stroke-width="3" points="2018.86,-236.64 2024.94,-232.77 2030.85,-236.9 2024.77,-240.77 2018.86,-236.64"/>
</g>
<!-- x0&#45;&gt;n12 -->
<g id="edge29" class="edge">
<title>x0:e&#45;&gt;n12:w</title>
<path fill="none" stroke="black" stroke-width="3" d="M2098.06,-237.2C2129.86,-237.2 2140.51,-237.79 2167.52,-237.93"/>
<polygon fill="black" stroke="black" stroke-width="3" points="2164.2,-241.42 2174.21,-237.94 2164.22,-234.42 2164.2,-241.42"/>
</g>
<!-- c21 -->
<g id="node13" class="node">
<title>c21</title>
<polygon fill="none" stroke="black" points="2479.06,-316.45 2479.06,-365.45 2571.31,-365.45 2571.31,-316.45 2479.06,-316.45"/>
<text text-anchor="middle" x="2491.94" y="-348.15" font-family="Times,serif" font-size="14.00">A</text>
<polyline fill="none" stroke="black" points="2479.06,-340.95 2504.81,-340.95"/>
<text text-anchor="middle" x="2491.94" y="-323.65" font-family="Times,serif" font-size="14.00">B</text>
<polyline fill="none" stroke="black" points="2504.81,-316.45 2504.81,-365.45"/>
<text text-anchor="middle" x="2525.19" y="-344.15" font-family="Times,serif" font-size="14.00">$66</text>
<text text-anchor="middle" x="2525.19" y="-327.65" font-family="Times,serif" font-size="14.00">$xor</text>
<polyline fill="none" stroke="black" points="2545.56,-316.45 2545.56,-365.45"/>
<text text-anchor="middle" x="2558.44" y="-336.15" font-family="Times,serif" font-size="14.00">Y</text>
</g>
<!-- x2 -->
<g id="node15" class="node">
<title>x2</title>
<path fill="none" stroke="black" d="M2619.31,-232.45C2619.31,-232.45 2657.81,-232.45 2657.81,-232.45 2663.81,-232.45 2669.81,-238.45 2669.81,-244.45 2669.81,-244.45 2669.81,-269.45 2669.81,-269.45 2669.81,-275.45 2663.81,-281.45 2657.81,-281.45 2657.81,-281.45 2619.31,-281.45 2619.31,-281.45 2613.31,-281.45 2607.31,-275.45 2607.31,-269.45 2607.31,-269.45 2607.31,-244.45 2607.31,-244.45 2607.31,-238.45 2613.31,-232.45 2619.31,-232.45"/>
<text text-anchor="middle" x="2638.56" y="-264.15" font-family="Times,serif" font-size="14.00">1:1 &#45; 1:1</text>
<polyline fill="none" stroke="black" points="2607.31,-256.95 2669.81,-256.95"/>
<text text-anchor="middle" x="2638.56" y="-239.65" font-family="Times,serif" font-size="14.00">0:0 &#45; 0:0</text>
</g>
<!-- c21&#45;&gt;x2 -->
<g id="edge3" class="edge">
<title>c21:e&#45;&gt;x2:w</title>
<path fill="none" stroke="black" stroke-width="3" d="M2583.38,-337.14C2598.65,-322.94 2580.05,-275.62 2595.08,-261.17"/>
<polygon fill="none" stroke="black" stroke-width="3" points="2585.25,-336.51 2580.84,-342.22 2573.88,-340.34 2578.29,-334.63 2585.25,-336.51"/>
<polygon fill="none" stroke="black" stroke-width="3" points="2593.41,-261.75 2597.78,-256.01 2604.76,-257.83 2600.39,-263.57 2593.41,-261.75"/>
</g>
<!-- x1&#45;&gt;c21 -->
<g id="edge2" class="edge">
<title>x1:e&#45;&gt;c21:w</title>
<path fill="none" stroke="black" stroke-width="3" d="M2429.38,-328.93C2443.56,-328.88 2452,-328.77 2466.21,-328.72"/>
<polygon fill="none" stroke="black" stroke-width="3" points="2431.11,-328.93 2425.12,-332.94 2419.11,-328.95 2425.1,-324.94 2431.11,-328.93"/>
<polygon fill="none" stroke="black" stroke-width="3" points="2464.36,-328.73 2470.35,-324.72 2476.36,-328.71 2470.37,-332.72 2464.36,-328.73"/>
</g>
<!-- x2&#45;&gt;n11 -->
<g id="edge26" class="edge">
<title>x2:e&#45;&gt;n11:w</title>
<path fill="none" stroke="black" d="M2669.81,-244.7C2707.36,-244.7 2673.14,-175.1 2694.99,-159.87"/>
<polygon fill="black" stroke="black" points="2695.61,-163.33 2704.35,-157.35 2693.79,-156.57 2695.61,-163.33"/>
</g>
<!-- n2 -->
<g id="node50" class="node">
<title>n2</title>
<ellipse fill="black" stroke="black" cx="3118.84" cy="-172.95" rx="1.8" ry="1.8"/>
</g>
<!-- x2&#45;&gt;n2 -->
<g id="edge39" class="edge">
<title>x2:e&#45;&gt;n2:w</title>
<path fill="none" stroke="black" d="M2669.81,-269.2C2840.9,-269.2 2892.77,-283.56 3051.59,-219.95 3080.38,-208.42 3080.73,-180.85 3104.34,-174.35"/>
<polygon fill="black" stroke="black" points="3104.57,-177.84 3114.06,-173.14 3103.71,-170.9 3104.57,-177.84"/>
</g>
<!-- c22 -->
<g id="node16" class="node">
<title>c22</title>
<polygon fill="none" stroke="black" points="2963.84,-161.45 2963.84,-210.45 3051.59,-210.45 3051.59,-161.45 2963.84,-161.45"/>
<text text-anchor="middle" x="2976.72" y="-193.15" font-family="Times,serif" font-size="14.00">A</text>
<polyline fill="none" stroke="black" points="2963.84,-185.95 2989.59,-185.95"/>
<text text-anchor="middle" x="2976.72" y="-168.65" font-family="Times,serif" font-size="14.00">B</text>
<polyline fill="none" stroke="black" points="2989.59,-161.45 2989.59,-210.45"/>
<text text-anchor="middle" x="3007.72" y="-189.15" font-family="Times,serif" font-size="14.00">$69</text>
<text text-anchor="middle" x="3007.72" y="-172.65" font-family="Times,serif" font-size="14.00">$or</text>
<polyline fill="none" stroke="black" points="3025.84,-161.45 3025.84,-210.45"/>
<text text-anchor="middle" x="3038.72" y="-181.15" font-family="Times,serif" font-size="14.00">Y</text>
</g>
<!-- x5 -->
<g id="node19" class="node">
<title>x5</title>
<path fill="none" stroke="black" d="M3099.59,-116.95C3099.59,-116.95 3138.09,-116.95 3138.09,-116.95 3144.09,-116.95 3150.09,-122.95 3150.09,-128.95 3150.09,-128.95 3150.09,-140.95 3150.09,-140.95 3150.09,-146.95 3144.09,-152.95 3138.09,-152.95 3138.09,-152.95 3099.59,-152.95 3099.59,-152.95 3093.59,-152.95 3087.59,-146.95 3087.59,-140.95 3087.59,-140.95 3087.59,-128.95 3087.59,-128.95 3087.59,-122.95 3093.59,-116.95 3099.59,-116.95"/>
<text text-anchor="middle" x="3118.84" y="-130.15" font-family="Times,serif" font-size="14.00">1:0 &#45; 1:0</text>
</g>
<!-- c22&#45;&gt;x5 -->
<g id="edge6" class="edge">
<title>c22:e&#45;&gt;x5:w</title>
<path fill="none" stroke="black" stroke-width="3" d="M3063.17,-181.1C3070.96,-171.38 3068.2,-150.28 3075.79,-140.34"/>
<polygon fill="none" stroke="black" stroke-width="3" points="3065.05,-180.27 3061.17,-186.35 3054.07,-185.11 3057.95,-179.03 3065.05,-180.27"/>
<polygon fill="none" stroke="black" stroke-width="3" points="3074.22,-141.06 3078.01,-134.93 3085.13,-136.08 3081.34,-142.21 3074.22,-141.06"/>
</g>
<!-- x3&#45;&gt;c22 -->
<g id="edge4" class="edge">
<title>x3:e&#45;&gt;c22:w</title>
<path fill="none" stroke="black" stroke-width="3" d="M2812.77,-213.83C2859.49,-212.94 2875.53,-207.13 2927.84,-201.95 2938.6,-200.89 2943.89,-199.56 2951.08,-198.81"/>
<polygon fill="none" stroke="black" stroke-width="3" points="2814.53,-213.82 2808.57,-217.87 2802.53,-213.93 2808.49,-209.87 2814.53,-213.82"/>
<polygon fill="none" stroke="black" stroke-width="3" points="2949.15,-198.9 2954.96,-194.62 2961.14,-198.33 2955.34,-202.61 2949.15,-198.9"/>
</g>
<!-- x4&#45;&gt;c22 -->
<g id="edge5" class="edge">
<title>x4:e&#45;&gt;c22:w</title>
<path fill="none" stroke="black" stroke-width="3" d="M2940.56,-173.89C2944.16,-173.85 2947.29,-173.81 2950.87,-173.77"/>
<polygon fill="none" stroke="black" stroke-width="3" points="2942.55,-173.88 2936.57,-177.91 2930.55,-173.94 2936.53,-169.91 2942.55,-173.88"/>
<polygon fill="none" stroke="black" stroke-width="3" points="2949.14,-173.78 2955.12,-169.75 2961.14,-173.72 2955.16,-177.75 2949.14,-173.78"/>
</g>
<!-- x5&#45;&gt;n8 -->
<g id="edge54" class="edge">
<title>x5:e&#45;&gt;n8:w</title>
<path fill="none" stroke="black" stroke-width="3" d="M3151.09,-135.2C3159.22,-135.2 3155.99,-147.87 3150.09,-153.45 3140.01,-163 3099.69,-160.27 3087.59,-153.45 3060.67,-138.27 3077.37,-111 3051.59,-93.95 2993.92,-55.81 2966.73,-71.95 2897.59,-71.95 2637.56,-71.95 2637.56,-71.95 2637.56,-71.95 2562.55,-71.95 2540.2,-86.49 2479.06,-129.95 2458.47,-144.59 2465.9,-163.13 2443.06,-173.95 2395.65,-196.42 2363.12,-210.01 2325,-173.95 2323,-172.06 2321.31,-169.34 2320.28,-166.59"/>
<polygon fill="black" stroke="black" stroke-width="3" points="2322.5,-170.83 2322.5,-160.24 2315.9,-168.52 2322.5,-170.83"/>
</g>
<!-- c23&#45;&gt;n13 -->
<g id="edge33" class="edge">
<title>c23:e&#45;&gt;n13:w</title>
<path fill="none" stroke="black" stroke-width="3" d="M637.59,-141.2C697.11,-141.2 714.77,-140.98 769.06,-140.96"/>
<polygon fill="black" stroke="black" stroke-width="3" points="765.89,-144.46 775.89,-140.95 765.88,-137.46 765.89,-144.46"/>
</g>
<!-- x6&#45;&gt;c23 -->
<g id="edge7" class="edge">
<title>x6:e&#45;&gt;c23:w</title>
<path fill="none" stroke="black" stroke-width="3" d="M507.82,-128.06C515.45,-128.2 521,-128.44 528.57,-128.59"/>
<polygon fill="none" stroke="black" stroke-width="3" points="509.8,-128.08 503.76,-132.03 497.8,-127.98 503.83,-124.03 509.8,-128.08"/>
<polygon fill="none" stroke="black" stroke-width="3" points="526.89,-128.57 532.92,-124.63 538.89,-128.68 532.85,-132.62 526.89,-128.57"/>
</g>
<!-- v7 -->
<g id="node22" class="node">
<title>v7</title>
<ellipse fill="none" stroke="black" cx="838.05" cy="-194.95" rx="164.46" ry="18"/>
<text text-anchor="middle" x="838.05" y="-189.9" font-family="Times,serif" font-size="14.00">31&#39;1001000011100011001011101000001</text>
</g>
<!-- v7&#45;&gt;c24 -->
<g id="edge66" class="edge">
<title>v7:e&#45;&gt;c24:w</title>
<path fill="none" stroke="black" stroke-width="3" d="M1002.51,-194.95C1018.35,-194.95 1018.98,-177.75 1027.92,-169.96"/>
<polygon fill="black" stroke="black" stroke-width="3" points="1025.98,-174.36 1034.23,-167.72 1023.64,-167.77 1025.98,-174.36"/>
</g>
<!-- x8 -->
<g id="node24" class="node">
<title>x8</title>
<path fill="none" stroke="black" d="M1182.51,-137.95C1182.51,-137.95 1234.51,-137.95 1234.51,-137.95 1240.51,-137.95 1246.51,-143.95 1246.51,-149.95 1246.51,-149.95 1246.51,-161.95 1246.51,-161.95 1246.51,-167.95 1240.51,-173.95 1234.51,-173.95 1234.51,-173.95 1182.51,-173.95 1182.51,-173.95 1176.51,-173.95 1170.51,-167.95 1170.51,-161.95 1170.51,-161.95 1170.51,-149.95 1170.51,-149.95 1170.51,-143.95 1176.51,-137.95 1182.51,-137.95"/>
<text text-anchor="middle" x="1208.51" y="-151.15" font-family="Times,serif" font-size="14.00">30:0 &#45; 31:1</text>
</g>
<!-- c24&#45;&gt;x8 -->
<g id="edge8" class="edge">
<title>c24:e&#45;&gt;x8:w</title>
<path fill="none" stroke="black" stroke-width="3" d="M1147.24,-154.64C1150.84,-154.9 1153.96,-155.23 1157.54,-155.49"/>
<polygon fill="none" stroke="black" stroke-width="3" points="1149.21,-154.71 1143.07,-158.5 1137.22,-154.3 1143.35,-150.51 1149.21,-154.71"/>
<polygon fill="none" stroke="black" stroke-width="3" points="1155.82,-155.43 1161.96,-151.65 1167.81,-155.86 1161.67,-159.64 1155.82,-155.43"/>
</g>
<!-- n3 -->
<g id="node51" class="node">
<title>n3</title>
<ellipse fill="black" stroke="black" cx="1284.31" cy="-156.95" rx="1.8" ry="1.8"/>
</g>
<!-- x8&#45;&gt;n3 -->
<g id="edge42" class="edge">
<title>x8:e&#45;&gt;n3:w</title>
<path fill="none" stroke="black" stroke-width="3" d="M1246.51,-156.2C1257.89,-156.2 1263.2,-156.58 1271.07,-156.8"/>
<polygon fill="black" stroke="black" stroke-width="3" points="1267.93,-160.26 1277.97,-156.89 1268.02,-153.26 1267.93,-160.26"/>
</g>
<!-- x10 -->
<g id="node27" class="node">
<title>x10</title>
<path fill="none" stroke="black" d="M1602.11,-124.95C1602.11,-124.95 1640.61,-124.95 1640.61,-124.95 1646.61,-124.95 1652.61,-130.95 1652.61,-136.95 1652.61,-136.95 1652.61,-148.95 1652.61,-148.95 1652.61,-154.95 1646.61,-160.95 1640.61,-160.95 1640.61,-160.95 1602.11,-160.95 1602.11,-160.95 1596.11,-160.95 1590.11,-154.95 1590.11,-148.95 1590.11,-148.95 1590.11,-136.95 1590.11,-136.95 1590.11,-130.95 1596.11,-124.95 1602.11,-124.95"/>
<text text-anchor="middle" x="1621.36" y="-138.15" font-family="Times,serif" font-size="14.00">5:0 &#45; 6:1</text>
</g>
<!-- c25&#45;&gt;x10 -->
<g id="edge10" class="edge">
<title>c25:e&#45;&gt;x10:w</title>
<path fill="none" stroke="black" stroke-width="3" d="M1543.05,-144.99C1555.77,-144.56 1563.61,-143.58 1576.38,-143.15"/>
<polygon fill="none" stroke="black" stroke-width="3" points="1544.82,-144.97 1538.88,-149.06 1532.82,-145.16 1538.75,-141.06 1544.82,-144.97"/>
<polygon fill="none" stroke="black" stroke-width="3" points="1574.41,-143.18 1580.35,-139.09 1586.41,-143 1580.47,-147.09 1574.41,-143.18"/>
</g>
<!-- x9 -->
<g id="node26" class="node">
<title>x9</title>
<path fill="none" stroke="black" d="M1334.11,-138.95C1334.11,-138.95 1386.11,-138.95 1386.11,-138.95 1392.11,-138.95 1398.11,-144.95 1398.11,-150.95 1398.11,-150.95 1398.11,-162.95 1398.11,-162.95 1398.11,-168.95 1392.11,-174.95 1386.11,-174.95 1386.11,-174.95 1334.11,-174.95 1334.11,-174.95 1328.11,-174.95 1322.11,-168.95 1322.11,-162.95 1322.11,-162.95 1322.11,-150.95 1322.11,-150.95 1322.11,-144.95 1328.11,-138.95 1334.11,-138.95"/>
<text text-anchor="middle" x="1360.11" y="-152.15" font-family="Times,serif" font-size="14.00">31:1 &#45; 30:0</text>
</g>
<!-- x9&#45;&gt;c25 -->
<g id="edge9" class="edge">
<title>x9:e&#45;&gt;c25:w</title>
<path fill="none" stroke="black" stroke-width="3" d="M1410.84,-157.02C1414.43,-157.05 1417.57,-157.1 1421.14,-157.14"/>
<polygon fill="none" stroke="black" stroke-width="3" points="1412.82,-157.03 1406.8,-161 1400.82,-156.97 1406.84,-153 1412.82,-157.03"/>
<polygon fill="none" stroke="black" stroke-width="3" points="1419.41,-157.13 1425.43,-153.16 1431.41,-157.19 1425.39,-161.16 1419.41,-157.13"/>
</g>
<!-- x10&#45;&gt;n14 -->
<g id="edge35" class="edge">
<title>x10:e&#45;&gt;n14:w</title>
<path fill="none" stroke="black" stroke-width="3" d="M1653.61,-143.2C1686.15,-143.2 1678.5,-97.8 1701.62,-87.16"/>
<polygon fill="black" stroke="black" stroke-width="3" points="1699.05,-91.25 1708.16,-85.85 1697.67,-84.39 1699.05,-91.25"/>
</g>
<!-- c26&#45;&gt;c30 -->
<g id="edge44" class="edge">
<title>c26:e&#45;&gt;c30:w</title>
<path fill="none" stroke="black" stroke-width="3" d="M505.59,-228.2C556.03,-228.2 498.64,-327.64 531.39,-343.95"/>
<polygon fill="black" stroke="black" stroke-width="3" points="527.52,-346.74 538.02,-345.3 528.91,-339.88 527.52,-346.74"/>
</g>
<!-- c27&#45;&gt;n10 -->
<g id="edge19" class="edge">
<title>c27:e&#45;&gt;n10:w</title>
<path fill="none" stroke="black" stroke-width="3" d="M881.8,-307.2C1026.56,-307.2 1062.75,-306.95 1207.51,-306.95 1207.51,-306.95 1207.51,-306.95 1361.11,-306.95 1448.31,-306.95 1472.92,-306.95 1554.74,-306.95"/>
<polygon fill="black" stroke="black" stroke-width="3" points="1551.57,-310.45 1561.57,-306.95 1551.57,-303.45 1551.57,-310.45"/>
</g>
<!-- c28 -->
<g id="node30" class="node">
<title>c28</title>
<polygon fill="none" stroke="black" points="1859.49,-349.45 1859.49,-398.45 1952.49,-398.45 1952.49,-349.45 1859.49,-349.45"/>
<text text-anchor="middle" x="1872.37" y="-381.15" font-family="Times,serif" font-size="14.00">A</text>
<polyline fill="none" stroke="black" points="1859.49,-373.95 1885.24,-373.95"/>
<text text-anchor="middle" x="1872.37" y="-356.65" font-family="Times,serif" font-size="14.00">B</text>
<polyline fill="none" stroke="black" points="1885.24,-349.45 1885.24,-398.45"/>
<text text-anchor="middle" x="1905.99" y="-377.15" font-family="Times,serif" font-size="14.00">$31</text>
<text text-anchor="middle" x="1905.99" y="-360.65" font-family="Times,serif" font-size="14.00">$sub</text>
<polyline fill="none" stroke="black" points="1926.74,-349.45 1926.74,-398.45"/>
<text text-anchor="middle" x="1939.62" y="-369.15" font-family="Times,serif" font-size="14.00">Y</text>
</g>
<!-- c28&#45;&gt;c21 -->
<g id="edge45" class="edge">
<title>c28:e&#45;&gt;c21:w</title>
<path fill="none" stroke="black" stroke-width="3" d="M1952.87,-374.2C2170.87,-374.2 2225.59,-372.09 2443.06,-356.95 2454.47,-356.16 2459.72,-354.6 2467.59,-353.76"/>
<polygon fill="black" stroke="black" stroke-width="3" points="2464.71,-357.41 2474.53,-353.42 2464.37,-350.42 2464.71,-357.41"/>
</g>
<!-- x11&#45;&gt;c28 -->
<g id="edge11" class="edge">
<title>x11:e&#45;&gt;c28:w</title>
<path fill="none" stroke="black" stroke-width="3" d="M1813.05,-385.98C1825.76,-386.02 1833.62,-386.13 1846.39,-386.18"/>
<polygon fill="none" stroke="black" stroke-width="3" points="1814.82,-385.98 1808.81,-389.97 1802.82,-385.96 1808.83,-381.97 1814.82,-385.98"/>
<polygon fill="none" stroke="black" stroke-width="3" points="1844.41,-386.18 1850.42,-382.19 1856.41,-386.2 1850.4,-390.19 1844.41,-386.18"/>
</g>
<!-- x12&#45;&gt;c28 -->
<g id="edge12" class="edge">
<title>x12:e&#45;&gt;c28:w</title>
<path fill="none" stroke="black" stroke-width="3" d="M1812.53,-333.16C1826.8,-338.78 1832.21,-353.57 1846.33,-359.34"/>
<polygon fill="none" stroke="black" stroke-width="3" points="1814.59,-333.53 1807.98,-336.42 1802.78,-331.43 1809.39,-328.54 1814.59,-333.53"/>
<polygon fill="none" stroke="black" stroke-width="3" points="1844.66,-359.03 1851.28,-356.19 1856.46,-361.21 1849.83,-364.06 1844.66,-359.03"/>
</g>
<!-- c29 -->
<g id="node33" class="node">
<title>c29</title>
<polygon fill="none" stroke="black" points="2019.31,-41.45 2019.31,-90.45 2112.31,-90.45 2112.31,-41.45 2019.31,-41.45"/>
<text text-anchor="middle" x="2032.18" y="-73.15" font-family="Times,serif" font-size="14.00">A</text>
<polyline fill="none" stroke="black" points="2019.31,-65.95 2045.06,-65.95"/>
<text text-anchor="middle" x="2032.18" y="-48.65" font-family="Times,serif" font-size="14.00">B</text>
<polyline fill="none" stroke="black" points="2045.06,-41.45 2045.06,-90.45"/>
<text text-anchor="middle" x="2065.81" y="-69.15" font-family="Times,serif" font-size="14.00">$33</text>
<text text-anchor="middle" x="2065.81" y="-52.65" font-family="Times,serif" font-size="14.00">$sub</text>
<polyline fill="none" stroke="black" points="2086.56,-41.45 2086.56,-90.45"/>
<text text-anchor="middle" x="2099.43" y="-61.15" font-family="Times,serif" font-size="14.00">Y</text>
</g>
<!-- x15 -->
<g id="node36" class="node">
<title>x15</title>
<path fill="none" stroke="black" d="M2214.75,-69.45C2214.75,-69.45 2253.25,-69.45 2253.25,-69.45 2259.25,-69.45 2265.25,-75.45 2265.25,-81.45 2265.25,-81.45 2265.25,-106.45 2265.25,-106.45 2265.25,-112.45 2259.25,-118.45 2253.25,-118.45 2253.25,-118.45 2214.75,-118.45 2214.75,-118.45 2208.75,-118.45 2202.75,-112.45 2202.75,-106.45 2202.75,-106.45 2202.75,-81.45 2202.75,-81.45 2202.75,-75.45 2208.75,-69.45 2214.75,-69.45"/>
<text text-anchor="middle" x="2234" y="-101.15" font-family="Times,serif" font-size="14.00">5:1 &#45; 6:2</text>
<polyline fill="none" stroke="black" points="2202.75,-93.95 2265.25,-93.95"/>
<text text-anchor="middle" x="2234" y="-76.65" font-family="Times,serif" font-size="14.00">0:0 &#45; 1:1</text>
</g>
<!-- c29&#45;&gt;x15 -->
<g id="edge15" class="edge">
<title>c29:e&#45;&gt;x15:w</title>
<path fill="none" stroke="black" stroke-width="3" d="M2126.06,-67.19C2152.42,-71.5 2162.57,-88.61 2188.9,-92.95"/>
<polygon fill="none" stroke="black" stroke-width="3" points="2127.97,-67.34 2121.68,-70.86 2116,-66.41 2122.29,-62.89 2127.97,-67.34"/>
<polygon fill="none" stroke="black" stroke-width="3" points="2187.09,-92.81 2193.38,-89.29 2199.05,-93.74 2192.76,-97.26 2187.09,-92.81"/>
</g>
<!-- x13&#45;&gt;c29 -->
<g id="edge13" class="edge">
<title>x13:e&#45;&gt;c29:w</title>
<path fill="none" stroke="black" stroke-width="3" d="M3259.34,-205.62C3269.25,-228.84 3256.34,-287.22 3186.09,-234.2 3139.52,-199.05 3186.93,-153.21 3150.09,-107.95 3105.32,-52.95 3079.64,-33.95 3008.72,-33.95 2383.16,-33.95 2383.16,-33.95 2383.16,-33.95 2291.58,-33.95 2266.72,-34.51 2178.75,-59.95 2147.45,-69.01 2144.12,-83.9 2112.31,-90.95 2094.97,-94.8 2049.95,-102.4 2027.37,-87.46"/>
<polygon fill="none" stroke="black" stroke-width="3" points="3260.58,-206.72 3253.44,-205.72 3251.61,-198.75 3258.76,-199.75 3260.58,-206.72"/>
<polygon fill="none" stroke="black" stroke-width="3" points="2028.6,-88.71 2021.54,-87.22 2020.2,-80.13 2027.26,-81.62 2028.6,-88.71"/>
</g>
<!-- x14&#45;&gt;c29 -->
<g id="edge14" class="edge">
<title>x14:e&#45;&gt;c29:w</title>
<path fill="none" stroke="black" stroke-width="3" d="M1951.01,-71.12C1973.19,-68.08 1983.34,-57.59 2005.5,-54.54"/>
<polygon fill="none" stroke="black" stroke-width="3" points="1952.91,-71 1947.19,-75.38 1940.94,-71.78 1946.67,-67.4 1952.91,-71"/>
<polygon fill="none" stroke="black" stroke-width="3" points="2003.63,-54.66 2009.36,-50.28 2015.61,-53.88 2009.88,-58.26 2003.63,-54.66"/>
</g>
<!-- x15&#45;&gt;n8 -->
<g id="edge52" class="edge">
<title>x15:e&#45;&gt;n8:w</title>
<path fill="none" stroke="black" stroke-width="3" d="M2266.25,-106.2C2296.13,-106.2 2292.7,-143.95 2313.99,-153.69"/>
<polygon fill="black" stroke="black" stroke-width="3" points="2310.31,-156.51 2320.8,-155.06 2311.69,-149.65 2310.31,-156.51"/>
</g>
<!-- x15&#45;&gt;n11 -->
<g id="edge24" class="edge">
<title>x15:e&#45;&gt;n11:w</title>
<path fill="none" stroke="black" d="M2266.25,-81.7C2446.89,-81.7 2502.14,-62.74 2669.81,-129.95 2684.03,-135.65 2685.85,-148.45 2694.91,-154.14"/>
<polygon fill="black" stroke="black" points="2693.79,-157.46 2704.35,-156.57 2695.54,-150.69 2693.79,-157.46"/>
</g>
<!-- c30&#45;&gt;c27 -->
<g id="edge46" class="edge">
<title>c30:e&#45;&gt;c27:w</title>
<path fill="none" stroke="black" stroke-width="3" d="M636.72,-334.2C703.09,-334.2 721.86,-320.85 782.84,-319.34"/>
<polygon fill="black" stroke="black" stroke-width="3" points="779.81,-322.88 789.76,-319.26 779.72,-315.88 779.81,-322.88"/>
</g>
<!-- v16 -->
<g id="node38" class="node">
<title>v16</title>
<ellipse fill="none" stroke="black" cx="2065.81" cy="-126.95" rx="76.94" ry="18"/>
<text text-anchor="middle" x="2065.81" y="-121.9" font-family="Times,serif" font-size="14.00">12&#39;000000000000</text>
</g>
<!-- x17 -->
<g id="node39" class="node">
<title>x17</title>
<path fill="none" stroke="black" d="M2208,-137.95C2208,-137.95 2260,-137.95 2260,-137.95 2266,-137.95 2272,-143.95 2272,-149.95 2272,-149.95 2272,-161.95 2272,-161.95 2272,-167.95 2266,-173.95 2260,-173.95 2260,-173.95 2208,-173.95 2208,-173.95 2202,-173.95 2196,-167.95 2196,-161.95 2196,-161.95 2196,-149.95 2196,-149.95 2196,-143.95 2202,-137.95 2208,-137.95"/>
<text text-anchor="middle" x="2234" y="-151.15" font-family="Times,serif" font-size="14.00">11:0 &#45; 18:7</text>
</g>
<!-- v16&#45;&gt;x17 -->
<g id="edge62" class="edge">
<title>v16:e&#45;&gt;x17:w</title>
<path fill="none" stroke="black" stroke-width="3" d="M2142.75,-126.95C2164.95,-126.95 2167.99,-147.22 2183.9,-153.87"/>
<polygon fill="black" stroke="black" stroke-width="3" points="2180.06,-156.71 2190.54,-155.11 2181.36,-149.83 2180.06,-156.71"/>
</g>
<!-- x17&#45;&gt;n8 -->
<g id="edge53" class="edge">
<title>x17:e&#45;&gt;n8:w</title>
<path fill="none" stroke="black" stroke-width="3" d="M2273,-156.2C2291.87,-156.2 2299.24,-156.04 2313.8,-155.98"/>
<polygon fill="black" stroke="black" stroke-width="3" points="2310.72,-159.48 2320.71,-155.96 2310.7,-152.48 2310.72,-159.48"/>
</g>
<!-- v18 -->
<g id="node40" class="node">
<title>v18</title>
<ellipse fill="none" stroke="black" cx="1086.51" cy="-214.95" rx="27" ry="18"/>
<text text-anchor="middle" x="1086.51" y="-209.9" font-family="Times,serif" font-size="14.00">1&#39;0</text>
</g>
<!-- x19 -->
<g id="node41" class="node">
<title>x19</title>
<path fill="none" stroke="black" d="M1189.26,-194.95C1189.26,-194.95 1227.76,-194.95 1227.76,-194.95 1233.76,-194.95 1239.76,-200.95 1239.76,-206.95 1239.76,-206.95 1239.76,-218.95 1239.76,-218.95 1239.76,-224.95 1233.76,-230.95 1227.76,-230.95 1227.76,-230.95 1189.26,-230.95 1189.26,-230.95 1183.26,-230.95 1177.26,-224.95 1177.26,-218.95 1177.26,-218.95 1177.26,-206.95 1177.26,-206.95 1177.26,-200.95 1183.26,-194.95 1189.26,-194.95"/>
<text text-anchor="middle" x="1208.51" y="-208.15" font-family="Times,serif" font-size="14.00">0:0 &#45; 0:0</text>
</g>
<!-- v18&#45;&gt;x19 -->
<g id="edge63" class="edge">
<title>v18:e&#45;&gt;x19:w</title>
<path fill="none" stroke="black" d="M1114.77,-214.95C1137.84,-214.95 1146.29,-213.53 1164.79,-213.08"/>
<polygon fill="black" stroke="black" points="1164.79,-216.58 1174.75,-212.97 1164.71,-209.58 1164.79,-216.58"/>
</g>
<!-- x19&#45;&gt;n3 -->
<g id="edge41" class="edge">
<title>x19:e&#45;&gt;n3:w</title>
<path fill="none" stroke="black" d="M1240.76,-213.2C1267.28,-213.2 1256.33,-172.41 1271.73,-160.3"/>
<polygon fill="black" stroke="black" points="1272.56,-163.71 1281.07,-157.4 1270.48,-157.02 1272.56,-163.71"/>
</g>
<!-- x21 -->
<g id="node43" class="node">
<title>x21</title>
<path fill="none" stroke="black" d="M2619.31,-138.95C2619.31,-138.95 2657.81,-138.95 2657.81,-138.95 2663.81,-138.95 2669.81,-144.95 2669.81,-150.95 2669.81,-150.95 2669.81,-162.95 2669.81,-162.95 2669.81,-168.95 2663.81,-174.95 2657.81,-174.95 2657.81,-174.95 2619.31,-174.95 2619.31,-174.95 2613.31,-174.95 2607.31,-168.95 2607.31,-162.95 2607.31,-162.95 2607.31,-150.95 2607.31,-150.95 2607.31,-144.95 2613.31,-138.95 2619.31,-138.95"/>
<text text-anchor="middle" x="2638.56" y="-152.15" font-family="Times,serif" font-size="14.00">4:0 &#45; 6:2</text>
</g>
<!-- x20&#45;&gt;x21 -->
<g id="edge16" class="edge">
<title>x20:e&#45;&gt;x21:w</title>
<path fill="none" stroke="black" stroke-width="3" d="M2570.33,-156.95C2579.22,-156.95 2585.41,-156.95 2594.27,-156.95"/>
<polygon fill="none" stroke="black" stroke-width="3" points="2572.14,-156.95 2566.14,-160.95 2560.14,-156.95 2566.14,-152.95 2572.14,-156.95"/>
<polygon fill="none" stroke="black" stroke-width="3" points="2592.61,-156.95 2598.61,-152.95 2604.61,-156.95 2598.61,-160.95 2592.61,-156.95"/>
</g>
<!-- x21&#45;&gt;n11 -->
<g id="edge25" class="edge">
<title>x21:e&#45;&gt;n11:w</title>
<path fill="none" stroke="black" stroke-width="3" d="M2669.81,-157.2C2681.19,-157.2 2686.5,-157.08 2694.37,-157"/>
<polygon fill="black" stroke="black" stroke-width="3" points="2691.29,-160.52 2701.27,-156.97 2691.26,-153.52 2691.29,-160.52"/>
</g>
<!-- v22 -->
<g id="node44" class="node">
<title>v22</title>
<ellipse fill="none" stroke="black" cx="1905.99" cy="-169.95" rx="30.88" ry="18"/>
<text text-anchor="middle" x="1905.99" y="-164.9" font-family="Times,serif" font-size="14.00">3&#39;000</text>
</g>
<!-- x23 -->
<g id="node45" class="node">
<title>x23</title>
<path fill="none" stroke="black" d="M2046.56,-163.95C2046.56,-163.95 2085.06,-163.95 2085.06,-163.95 2091.06,-163.95 2097.06,-169.95 2097.06,-175.95 2097.06,-175.95 2097.06,-187.95 2097.06,-187.95 2097.06,-193.95 2091.06,-199.95 2085.06,-199.95 2085.06,-199.95 2046.56,-199.95 2046.56,-199.95 2040.56,-199.95 2034.56,-193.95 2034.56,-187.95 2034.56,-187.95 2034.56,-175.95 2034.56,-175.95 2034.56,-169.95 2040.56,-163.95 2046.56,-163.95"/>
<text text-anchor="middle" x="2065.81" y="-177.15" font-family="Times,serif" font-size="14.00">2:0 &#45; 7:5</text>
</g>
<!-- v22&#45;&gt;x23 -->
<g id="edge64" class="edge">
<title>v22:e&#45;&gt;x23:w</title>
<path fill="none" stroke="black" stroke-width="3" d="M1938.16,-169.95C1976.89,-169.95 1988.67,-179.81 2022.35,-181.66"/>
<polygon fill="black" stroke="black" stroke-width="3" points="2018.93,-185.07 2029.02,-181.83 2019.11,-178.07 2018.93,-185.07"/>
</g>
<!-- x23&#45;&gt;n12 -->
<g id="edge30" class="edge">
<title>x23:e&#45;&gt;n12:w</title>
<path fill="none" stroke="black" stroke-width="3" d="M2098.06,-182.2C2121.44,-182.2 2123.56,-196.59 2142.75,-209.95 2155.61,-218.91 2157.99,-230.76 2167.78,-235.67"/>
<polygon fill="black" stroke="black" stroke-width="3" points="2163.8,-238.42 2174.3,-237.03 2165.23,-231.57 2163.8,-238.42"/>
</g>
<!-- x25 -->
<g id="node47" class="node">
<title>x25</title>
<path fill="none" stroke="black" d="M2988.47,-102.95C2988.47,-102.95 3026.97,-102.95 3026.97,-102.95 3032.97,-102.95 3038.97,-108.95 3038.97,-114.95 3038.97,-114.95 3038.97,-126.95 3038.97,-126.95 3038.97,-132.95 3032.97,-138.95 3026.97,-138.95 3026.97,-138.95 2988.47,-138.95 2988.47,-138.95 2982.47,-138.95 2976.47,-132.95 2976.47,-126.95 2976.47,-126.95 2976.47,-114.95 2976.47,-114.95 2976.47,-108.95 2982.47,-102.95 2988.47,-102.95"/>
<text text-anchor="middle" x="3007.72" y="-116.15" font-family="Times,serif" font-size="14.00">0:0 &#45; 0:0</text>
</g>
<!-- x24&#45;&gt;x25 -->
<g id="edge17" class="edge">
<title>x24:e&#45;&gt;x25:w</title>
<path fill="none" stroke="black" d="M2940.88,-119.25C2948.88,-119.63 2954.64,-120.29 2962.67,-120.67"/>
<polygon fill="none" stroke="black" points="2940.74,-119.24 2934.65,-123.11 2928.74,-118.97 2934.83,-115.11 2940.74,-119.24"/>
<polygon fill="none" stroke="black" points="2962.57,-120.67 2968.66,-116.8 2974.57,-120.93 2968.48,-124.8 2962.57,-120.67"/>
</g>
<!-- x25&#45;&gt;n2 -->
<g id="edge38" class="edge">
<title>x25:e&#45;&gt;n2:w</title>
<path fill="none" stroke="black" d="M3039.97,-121.2C3068.12,-121.2 3063.33,-148.68 3087.59,-162.95 3094.88,-167.24 3098.89,-170.14 3104.31,-171.67"/>
<polygon fill="black" stroke="black" points="3103.73,-175.12 3114.06,-172.78 3104.52,-168.17 3103.73,-175.12"/>
</g>
<!-- v26 -->
<g id="node48" class="node">
<title>v26</title>
<ellipse fill="none" stroke="black" cx="1482.11" cy="-83.95" rx="27" ry="18"/>
<text text-anchor="middle" x="1482.11" y="-78.9" font-family="Times,serif" font-size="14.00">1&#39;0</text>
</g>
<!-- x27 -->
<g id="node49" class="node">
<title>x27</title>
<path fill="none" stroke="black" d="M1602.11,-66.95C1602.11,-66.95 1640.61,-66.95 1640.61,-66.95 1646.61,-66.95 1652.61,-72.95 1652.61,-78.95 1652.61,-78.95 1652.61,-90.95 1652.61,-90.95 1652.61,-96.95 1646.61,-102.95 1640.61,-102.95 1640.61,-102.95 1602.11,-102.95 1602.11,-102.95 1596.11,-102.95 1590.11,-96.95 1590.11,-90.95 1590.11,-90.95 1590.11,-78.95 1590.11,-78.95 1590.11,-72.95 1596.11,-66.95 1602.11,-66.95"/>
<text text-anchor="middle" x="1621.36" y="-80.15" font-family="Times,serif" font-size="14.00">0:0 &#45; 0:0</text>
</g>
<!-- v26&#45;&gt;x27 -->
<g id="edge65" class="edge">
<title>v26:e&#45;&gt;x27:w</title>
<path fill="none" stroke="black" d="M1510.37,-83.95C1541.27,-83.95 1551.7,-84.73 1577.81,-84.91"/>
<polygon fill="black" stroke="black" points="1577.59,-88.41 1587.6,-84.95 1577.61,-81.41 1577.59,-88.41"/>
</g>
<!-- x27&#45;&gt;n14 -->
<g id="edge36" class="edge">
<title>x27:e&#45;&gt;n14:w</title>
<path fill="none" stroke="black" d="M1653.61,-85.2C1675.53,-85.2 1683.71,-85.03 1701.12,-84.97"/>
<polygon fill="black" stroke="black" points="1701.11,-88.47 1711.1,-84.95 1701.1,-81.47 1701.11,-88.47"/>
</g>
<!-- n2&#45;&gt;x13 -->
<g id="edge40" class="edge">
<title>n2:e&#45;&gt;x13:w</title>
<path fill="none" stroke="black" d="M3122.12,-172.95C3146.33,-172.95 3155.08,-172.59 3174.7,-172.48"/>
<polygon fill="black" stroke="black" points="3174.59,-175.98 3184.58,-172.46 3174.57,-168.98 3174.59,-175.98"/>
</g>
<!-- n3&#45;&gt;x9 -->
<g id="edge43" class="edge">
<title>n3:e&#45;&gt;x9:w</title>
<path fill="none" stroke="black" stroke-width="3" d="M1286.11,-156.95C1297.49,-156.95 1302.8,-157.08 1310.67,-157.15"/>
<polygon fill="black" stroke="black" stroke-width="3" points="1307.56,-160.64 1317.57,-157.18 1307.59,-153.64 1307.56,-160.64"/>
</g>
</g>
</svg>
