<?xml version="1.0" encoding="UTF-8" standalone="no"?>
<!DOCTYPE svg PUBLIC "-//W3C//DTD SVG 1.1//EN"
 "http://www.w3.org/Graphics/SVG/1.1/DTD/svg11.dtd">
<!-- Generated by graphviz version 12.2.1 (20241206.2353)
 -->
<!-- Title: top Pages: 1 -->
<svg width="7102pt" height="663pt"
 viewBox="0.00 0.00 7101.79 663.00" xmlns="http://www.w3.org/2000/svg" xmlns:xlink="http://www.w3.org/1999/xlink">
<g id="graph0" class="graph" transform="scale(1 1) rotate(0) translate(4 659)">
<title>top</title>
<polygon fill="white" stroke="none" points="-4,4 -4,-659 7097.79,-659 7097.79,4 -4,4"/>
<text text-anchor="middle" x="3546.89" y="-7.2" font-family="Times,serif" font-size="14.00">top</text>
<!-- n16 -->
<g id="node1" class="node">
<title>n16</title>
<polygon fill="none" stroke="black" points="4496.79,-385 4412.59,-367 4496.79,-349 4580.99,-367 4496.79,-385"/>
<text text-anchor="middle" x="4496.79" y="-361.95" font-family="Times,serif" font-size="14.00">expr_838186</text>
</g>
<!-- x18 -->
<g id="node35" class="node">
<title>x18</title>
<path fill="none" stroke="black" d="M4757.8,-263.5C4757.8,-263.5 4796.3,-263.5 4796.3,-263.5 4802.3,-263.5 4808.3,-269.5 4808.3,-275.5 4808.3,-275.5 4808.3,-300.5 4808.3,-300.5 4808.3,-306.5 4802.3,-312.5 4796.3,-312.5 4796.3,-312.5 4757.8,-312.5 4757.8,-312.5 4751.8,-312.5 4745.8,-306.5 4745.8,-300.5 4745.8,-300.5 4745.8,-275.5 4745.8,-275.5 4745.8,-269.5 4751.8,-263.5 4757.8,-263.5"/>
<text text-anchor="middle" x="4777.05" y="-295.2" font-family="Times,serif" font-size="14.00">0 &#45;&gt; 2:1</text>
<polyline fill="none" stroke="black" points="4745.8,-288 4808.3,-288"/>
<text text-anchor="middle" x="4777.05" y="-270.7" font-family="Times,serif" font-size="14.00">0:0 &#45; 0:0</text>
</g>
<!-- n16&#45;&gt;x18 -->
<g id="edge58" class="edge">
<title>n16:e&#45;&gt;x18:w</title>
<path fill="none" stroke="black" d="M4580.99,-367C4660.42,-367 4661.54,-284.1 4733.63,-276.33"/>
<polygon fill="black" stroke="black" points="4733.48,-279.85 4743.29,-275.83 4733.12,-272.85 4733.48,-279.85"/>
</g>
<!-- x23 -->
<g id="node44" class="node">
<title>x23</title>
<path fill="none" stroke="black" d="M4637.83,-423.5C4637.83,-423.5 4676.33,-423.5 4676.33,-423.5 4682.33,-423.5 4688.33,-429.5 4688.33,-435.5 4688.33,-435.5 4688.33,-460.5 4688.33,-460.5 4688.33,-466.5 4682.33,-472.5 4676.33,-472.5 4676.33,-472.5 4637.83,-472.5 4637.83,-472.5 4631.83,-472.5 4625.83,-466.5 4625.83,-460.5 4625.83,-460.5 4625.83,-435.5 4625.83,-435.5 4625.83,-429.5 4631.83,-423.5 4637.83,-423.5"/>
<text text-anchor="middle" x="4657.08" y="-455.2" font-family="Times,serif" font-size="14.00">0 &#45;&gt; 6:1</text>
<polyline fill="none" stroke="black" points="4625.83,-448 4688.33,-448"/>
<text text-anchor="middle" x="4657.08" y="-430.7" font-family="Times,serif" font-size="14.00">0:0 &#45; 0:0</text>
</g>
<!-- n16&#45;&gt;x23 -->
<g id="edge59" class="edge">
<title>n16:e&#45;&gt;x23:w</title>
<path fill="none" stroke="black" d="M4580.99,-367C4612.7,-367 4594.74,-419.64 4614.03,-432.8"/>
<polygon fill="black" stroke="black" points="4612.8,-436.09 4623.37,-435.35 4614.65,-429.34 4612.8,-436.09"/>
</g>
<!-- n17 -->
<g id="node2" class="node">
<title>n17</title>
<polygon fill="none" stroke="black" points="107.84,-223.54 107.84,-238.46 76.26,-249 31.59,-249 0,-238.46 0,-223.54 31.59,-213 76.26,-213 107.84,-223.54"/>
<text text-anchor="middle" x="53.92" y="-225.95" font-family="Times,serif" font-size="14.00">input_data</text>
</g>
<!-- c25 -->
<g id="node7" class="node">
<title>c25</title>
<polygon fill="none" stroke="black" points="143.84,-278.5 143.84,-327.5 237.59,-327.5 237.59,-278.5 143.84,-278.5"/>
<text text-anchor="middle" x="156.72" y="-310.2" font-family="Times,serif" font-size="14.00">A</text>
<polyline fill="none" stroke="black" points="143.84,-303 169.59,-303"/>
<text text-anchor="middle" x="156.72" y="-285.7" font-family="Times,serif" font-size="14.00">B</text>
<polyline fill="none" stroke="black" points="169.59,-278.5 169.59,-327.5"/>
<text text-anchor="middle" x="190.72" y="-306.2" font-family="Times,serif" font-size="14.00">$1</text>
<text text-anchor="middle" x="190.72" y="-289.7" font-family="Times,serif" font-size="14.00">$and</text>
<polyline fill="none" stroke="black" points="211.84,-278.5 211.84,-327.5"/>
<text text-anchor="middle" x="224.72" y="-298.2" font-family="Times,serif" font-size="14.00">Y</text>
</g>
<!-- n17&#45;&gt;c25 -->
<g id="edge60" class="edge">
<title>n17:e&#45;&gt;c25:w</title>
<path fill="none" stroke="black" stroke-width="3" d="M107.84,-231C143.79,-231 112.59,-296.66 132.8,-312.05"/>
<polygon fill="black" stroke="black" stroke-width="3" points="128.9,-314.56 139.48,-313.99 130.85,-307.84 128.9,-314.56"/>
</g>
<!-- n17&#45;&gt;c25 -->
<g id="edge61" class="edge">
<title>n17:e&#45;&gt;c25:w</title>
<path fill="none" stroke="black" stroke-width="3" d="M107.84,-231C134,-231 119.57,-273.54 133.05,-286.83"/>
<polygon fill="black" stroke="black" stroke-width="3" points="128.98,-289.07 139.57,-289.2 131.37,-282.5 128.98,-289.07"/>
</g>
<!-- x1 -->
<g id="node10" class="node">
<title>x1</title>
<path fill="none" stroke="black" d="M384.09,-496C384.09,-496 422.59,-496 422.59,-496 428.59,-496 434.59,-502 434.59,-508 434.59,-508 434.59,-520 434.59,-520 434.59,-526 428.59,-532 422.59,-532 422.59,-532 384.09,-532 384.09,-532 378.09,-532 372.09,-526 372.09,-520 372.09,-520 372.09,-508 372.09,-508 372.09,-502 378.09,-496 384.09,-496"/>
<text text-anchor="middle" x="403.34" y="-509.2" font-family="Times,serif" font-size="14.00">6:0 &#45; 6:0</text>
</g>
<!-- n17&#45;&gt;x1 -->
<g id="edge66" class="edge">
<title>n17:e&#45;&gt;x1:w</title>
<path fill="none" stroke="black" stroke-width="3" d="M107.84,-231C157.59,-231 114.97,-296.48 143.84,-337 216.1,-438.45 242.07,-509.82 360.71,-514.05"/>
<polygon fill="black" stroke="black" stroke-width="3" points="357.49,-517.5 367.55,-514.17 357.61,-510.5 357.49,-517.5"/>
</g>
<!-- c35 -->
<g id="node36" class="node">
<title>c35</title>
<polygon fill="none" stroke="black" points="470.59,-240.5 470.59,-289.5 557.59,-289.5 557.59,-240.5 470.59,-240.5"/>
<text text-anchor="middle" x="483.47" y="-272.2" font-family="Times,serif" font-size="14.00">A</text>
<polyline fill="none" stroke="black" points="470.59,-265 496.34,-265"/>
<text text-anchor="middle" x="483.47" y="-247.7" font-family="Times,serif" font-size="14.00">B</text>
<polyline fill="none" stroke="black" points="496.34,-240.5 496.34,-289.5"/>
<text text-anchor="middle" x="514.09" y="-268.2" font-family="Times,serif" font-size="14.00">$3</text>
<text text-anchor="middle" x="514.09" y="-251.7" font-family="Times,serif" font-size="14.00">$ge</text>
<polyline fill="none" stroke="black" points="531.84,-240.5 531.84,-289.5"/>
<text text-anchor="middle" x="544.72" y="-260.2" font-family="Times,serif" font-size="14.00">Y</text>
</g>
<!-- n17&#45;&gt;c35 -->
<g id="edge62" class="edge">
<title>n17:e&#45;&gt;c35:w</title>
<path fill="none" stroke="black" stroke-width="3" d="M107.84,-231C265.57,-231 307.15,-251.74 459.43,-252.71"/>
<polygon fill="black" stroke="black" stroke-width="3" points="456.04,-256.2 466.05,-252.74 456.06,-249.2 456.04,-256.2"/>
</g>
<!-- c36 -->
<g id="node38" class="node">
<title>c36</title>
<polygon fill="none" stroke="black" points="729.52,-203.5 729.52,-252.5 814.27,-252.5 814.27,-203.5 729.52,-203.5"/>
<text text-anchor="middle" x="742.4" y="-235.2" font-family="Times,serif" font-size="14.00">A</text>
<polyline fill="none" stroke="black" points="729.52,-228 755.27,-228"/>
<text text-anchor="middle" x="742.4" y="-210.7" font-family="Times,serif" font-size="14.00">B</text>
<polyline fill="none" stroke="black" points="755.27,-203.5 755.27,-252.5"/>
<text text-anchor="middle" x="771.9" y="-231.2" font-family="Times,serif" font-size="14.00">$5</text>
<text text-anchor="middle" x="771.9" y="-214.7" font-family="Times,serif" font-size="14.00">$gt</text>
<polyline fill="none" stroke="black" points="788.52,-203.5 788.52,-252.5"/>
<text text-anchor="middle" x="801.4" y="-223.2" font-family="Times,serif" font-size="14.00">Y</text>
</g>
<!-- n17&#45;&gt;c36 -->
<g id="edge63" class="edge">
<title>n17:e&#45;&gt;c36:w</title>
<path fill="none" stroke="black" stroke-width="3" d="M107.84,-231C126.14,-231 126.76,-217.57 143.84,-211 211.96,-184.8 230.85,-174 303.84,-174 303.84,-174 303.84,-174 515.09,-174 592.63,-174 610.7,-190.1 686.59,-206 700.93,-209 706.67,-213.12 717.17,-214.89"/>
<polygon fill="black" stroke="black" stroke-width="3" points="713.76,-218.14 723.99,-215.41 714.29,-211.16 713.76,-218.14"/>
</g>
<!-- c37 -->
<g id="node40" class="node">
<title>c37</title>
<polygon fill="none" stroke="black" points="1093.8,-119.5 1093.8,-168.5 1178.55,-168.5 1178.55,-119.5 1093.8,-119.5"/>
<text text-anchor="middle" x="1106.67" y="-151.2" font-family="Times,serif" font-size="14.00">A</text>
<polyline fill="none" stroke="black" points="1093.8,-144 1119.55,-144"/>
<text text-anchor="middle" x="1106.67" y="-126.7" font-family="Times,serif" font-size="14.00">B</text>
<polyline fill="none" stroke="black" points="1119.55,-119.5 1119.55,-168.5"/>
<text text-anchor="middle" x="1136.17" y="-147.2" font-family="Times,serif" font-size="14.00">$6</text>
<text text-anchor="middle" x="1136.17" y="-130.7" font-family="Times,serif" font-size="14.00">$gt</text>
<polyline fill="none" stroke="black" points="1152.8,-119.5 1152.8,-168.5"/>
<text text-anchor="middle" x="1165.67" y="-139.2" font-family="Times,serif" font-size="14.00">Y</text>
</g>
<!-- n17&#45;&gt;c37 -->
<g id="edge64" class="edge">
<title>n17:e&#45;&gt;c37:w</title>
<path fill="none" stroke="black" stroke-width="3" d="M107.84,-231C137.43,-231 120.51,-193.2 143.84,-175 203.02,-128.84 228.79,-121 303.84,-121 303.84,-121 303.84,-121 958.5,-121 1014.82,-121 1031.33,-130.37 1082.36,-131.61"/>
<polygon fill="black" stroke="black" stroke-width="3" points="1079.22,-135.08 1089.26,-131.7 1079.3,-128.08 1079.22,-135.08"/>
</g>
<!-- c40 -->
<g id="node49" class="node">
<title>c40</title>
<polygon fill="none" stroke="black" points="593.59,-215.5 593.59,-264.5 686.59,-264.5 686.59,-215.5 593.59,-215.5"/>
<text text-anchor="middle" x="606.47" y="-247.2" font-family="Times,serif" font-size="14.00">A</text>
<polyline fill="none" stroke="black" points="593.59,-240 619.34,-240"/>
<text text-anchor="middle" x="606.47" y="-222.7" font-family="Times,serif" font-size="14.00">B</text>
<polyline fill="none" stroke="black" points="619.34,-215.5 619.34,-264.5"/>
<text text-anchor="middle" x="640.09" y="-243.2" font-family="Times,serif" font-size="14.00">$4</text>
<text text-anchor="middle" x="640.09" y="-226.7" font-family="Times,serif" font-size="14.00">$sub</text>
<polyline fill="none" stroke="black" points="660.84,-215.5 660.84,-264.5"/>
<text text-anchor="middle" x="673.72" y="-235.2" font-family="Times,serif" font-size="14.00">Y</text>
</g>
<!-- n17&#45;&gt;c40 -->
<g id="edge65" class="edge">
<title>n17:e&#45;&gt;c40:w</title>
<path fill="none" stroke="black" stroke-width="3" d="M107.84,-231C123.94,-231 127.83,-228.64 143.84,-227 214.89,-219.72 232.42,-212 303.84,-212 303.84,-212 303.84,-212 404.34,-212 484.79,-212 507.13,-226.31 582.13,-227.65"/>
<polygon fill="black" stroke="black" stroke-width="3" points="579.02,-231.12 589.05,-227.71 579.08,-224.12 579.02,-231.12"/>
</g>
<!-- x34 -->
<g id="node61" class="node">
<title>x34</title>
<path fill="none" stroke="black" d="M285.59,-25C285.59,-25 324.09,-25 324.09,-25 330.09,-25 336.09,-31 336.09,-37 336.09,-37 336.09,-49 336.09,-49 336.09,-55 330.09,-61 324.09,-61 324.09,-61 285.59,-61 285.59,-61 279.59,-61 273.59,-55 273.59,-49 273.59,-49 273.59,-37 273.59,-37 273.59,-31 279.59,-25 285.59,-25"/>
<text text-anchor="middle" x="304.84" y="-38.2" font-family="Times,serif" font-size="14.00">7:4 &#45; 3:0</text>
</g>
<!-- n17&#45;&gt;x34 -->
<g id="edge67" class="edge">
<title>n17:e&#45;&gt;x34:w</title>
<path fill="none" stroke="black" stroke-width="3" d="M107.84,-231C165.23,-231 106.94,-150.95 143.84,-107 182.65,-60.77 206.35,-45.14 262.35,-43.41"/>
<polygon fill="black" stroke="black" stroke-width="3" points="259.1,-46.96 269.05,-43.32 259,-39.96 259.1,-46.96"/>
</g>
<!-- n18 -->
<g id="node3" class="node">
<title>n18</title>
<polygon fill="none" stroke="black" points="5801.49,-280.54 5801.49,-295.46 5766.98,-306 5718.18,-306 5683.68,-295.46 5683.68,-280.54 5718.18,-270 5766.98,-270 5801.49,-280.54"/>
<text text-anchor="middle" x="5742.58" y="-282.95" font-family="Times,serif" font-size="14.00">output_data</text>
</g>
<!-- x31 -->
<g id="node57" class="node">
<title>x31</title>
<path fill="none" stroke="black" d="M5849.49,-160.5C5849.49,-160.5 5887.99,-160.5 5887.99,-160.5 5893.99,-160.5 5899.99,-166.5 5899.99,-172.5 5899.99,-172.5 5899.99,-197.5 5899.99,-197.5 5899.99,-203.5 5893.99,-209.5 5887.99,-209.5 5887.99,-209.5 5849.49,-209.5 5849.49,-209.5 5843.49,-209.5 5837.49,-203.5 5837.49,-197.5 5837.49,-197.5 5837.49,-172.5 5837.49,-172.5 5837.49,-166.5 5843.49,-160.5 5849.49,-160.5"/>
<text text-anchor="middle" x="5868.74" y="-192.2" font-family="Times,serif" font-size="14.00">3:1 &#45; 3:1</text>
<polyline fill="none" stroke="black" points="5837.49,-185 5899.99,-185"/>
<text text-anchor="middle" x="5868.74" y="-167.7" font-family="Times,serif" font-size="14.00">0:0 &#45; 0:0</text>
</g>
<!-- n18&#45;&gt;x31 -->
<g id="edge71" class="edge">
<title>n18:e&#45;&gt;x31:w</title>
<path fill="none" stroke="black" d="M5801.49,-288C5850.54,-288 5795.16,-191.71 5826.26,-175.16"/>
<polygon fill="black" stroke="black" points="5826.96,-178.59 5836.01,-173.07 5825.5,-171.74 5826.96,-178.59"/>
</g>
<!-- x37 -->
<g id="node64" class="node">
<title>x37</title>
<path fill="none" stroke="black" d="M5849.49,-316.5C5849.49,-316.5 5887.99,-316.5 5887.99,-316.5 5893.99,-316.5 5899.99,-322.5 5899.99,-328.5 5899.99,-328.5 5899.99,-353.5 5899.99,-353.5 5899.99,-359.5 5893.99,-365.5 5887.99,-365.5 5887.99,-365.5 5849.49,-365.5 5849.49,-365.5 5843.49,-365.5 5837.49,-359.5 5837.49,-353.5 5837.49,-353.5 5837.49,-328.5 5837.49,-328.5 5837.49,-322.5 5843.49,-316.5 5849.49,-316.5"/>
<text text-anchor="middle" x="5868.74" y="-348.2" font-family="Times,serif" font-size="14.00">4:4 &#45; 1:1</text>
<polyline fill="none" stroke="black" points="5837.49,-341 5899.99,-341"/>
<text text-anchor="middle" x="5868.74" y="-323.7" font-family="Times,serif" font-size="14.00">0 &#45;&gt; 0:0</text>
</g>
<!-- n18&#45;&gt;x37 -->
<g id="edge72" class="edge">
<title>n18:e&#45;&gt;x37:w</title>
<path fill="none" stroke="black" d="M5801.49,-288C5829.95,-288 5811.62,-336.19 5826.92,-349.74"/>
<polygon fill="black" stroke="black" points="5825.46,-352.94 5836.05,-352.77 5827.66,-346.3 5825.46,-352.94"/>
</g>
<!-- n19 -->
<g id="node4" class="node">
<title>n19</title>
<polygon fill="none" stroke="black" points="1269.8,-162 1214.55,-144 1269.8,-126 1325.05,-144 1269.8,-162"/>
<text text-anchor="middle" x="1269.8" y="-138.95" font-family="Times,serif" font-size="14.00">temp_0</text>
</g>
<!-- c27 -->
<g id="node11" class="node">
<title>c27</title>
<polygon fill="none" stroke="black" points="2007.5,-182.5 2007.5,-231.5 2102,-231.5 2102,-182.5 2007.5,-182.5"/>
<text text-anchor="middle" x="2020.38" y="-214.2" font-family="Times,serif" font-size="14.00">A</text>
<polyline fill="none" stroke="black" points="2007.5,-207 2033.25,-207"/>
<text text-anchor="middle" x="2020.38" y="-189.7" font-family="Times,serif" font-size="14.00">B</text>
<polyline fill="none" stroke="black" points="2033.25,-182.5 2033.25,-231.5"/>
<text text-anchor="middle" x="2054.75" y="-210.2" font-family="Times,serif" font-size="14.00">$110</text>
<text text-anchor="middle" x="2054.75" y="-193.7" font-family="Times,serif" font-size="14.00">$or</text>
<polyline fill="none" stroke="black" points="2076.25,-182.5 2076.25,-231.5"/>
<text text-anchor="middle" x="2089.13" y="-202.2" font-family="Times,serif" font-size="14.00">Y</text>
</g>
<!-- n19&#45;&gt;c27 -->
<g id="edge74" class="edge">
<title>n19:e&#45;&gt;c27:w</title>
<path fill="none" stroke="black" d="M1325.05,-144C1411.83,-144 1433.52,-144 1520.3,-144 1520.3,-144 1520.3,-144 1872.2,-144 1932.41,-144 1942.2,-188.6 1996.1,-194.18"/>
<polygon fill="black" stroke="black" points="1995.83,-197.67 2005.99,-194.67 1996.18,-190.68 1995.83,-197.67"/>
</g>
<!-- c28 -->
<g id="node13" class="node">
<title>c28</title>
<polygon fill="none" stroke="black" points="3083,-527.5 3083,-576.5 3177.5,-576.5 3177.5,-527.5 3083,-527.5"/>
<text text-anchor="middle" x="3095.88" y="-559.2" font-family="Times,serif" font-size="14.00">A</text>
<polyline fill="none" stroke="black" points="3083,-552 3108.75,-552"/>
<text text-anchor="middle" x="3095.88" y="-534.7" font-family="Times,serif" font-size="14.00">B</text>
<polyline fill="none" stroke="black" points="3108.75,-527.5 3108.75,-576.5"/>
<text text-anchor="middle" x="3130.25" y="-555.2" font-family="Times,serif" font-size="14.00">$116</text>
<text text-anchor="middle" x="3130.25" y="-538.7" font-family="Times,serif" font-size="14.00">$and</text>
<polyline fill="none" stroke="black" points="3151.75,-527.5 3151.75,-576.5"/>
<text text-anchor="middle" x="3164.63" y="-547.2" font-family="Times,serif" font-size="14.00">Y</text>
</g>
<!-- n19&#45;&gt;c28 -->
<g id="edge75" class="edge">
<title>n19:e&#45;&gt;c28:w</title>
<path fill="none" stroke="black" d="M1325.05,-144C1366.9,-144 1343.3,-193.11 1361.05,-231 1425.59,-368.76 1368.17,-534 1520.3,-534 1520.3,-534 1520.3,-534 2902.63,-534 2978.92,-534 3000.7,-539.2 3071.67,-539.71"/>
<polygon fill="black" stroke="black" points="3071.48,-543.21 3081.49,-539.74 3071.5,-536.21 3071.48,-543.21"/>
</g>
<!-- c29 -->
<g id="node16" class="node">
<title>c29</title>
<polygon fill="none" stroke="black" points="4029.84,-321.5 4029.84,-370.5 4124.34,-370.5 4124.34,-321.5 4029.84,-321.5"/>
<text text-anchor="middle" x="4042.72" y="-353.2" font-family="Times,serif" font-size="14.00">A</text>
<polyline fill="none" stroke="black" points="4029.84,-346 4055.59,-346"/>
<text text-anchor="middle" x="4042.72" y="-328.7" font-family="Times,serif" font-size="14.00">B</text>
<polyline fill="none" stroke="black" points="4055.59,-321.5 4055.59,-370.5"/>
<text text-anchor="middle" x="4077.09" y="-349.2" font-family="Times,serif" font-size="14.00">$123</text>
<text text-anchor="middle" x="4077.09" y="-332.7" font-family="Times,serif" font-size="14.00">$and</text>
<polyline fill="none" stroke="black" points="4098.59,-321.5 4098.59,-370.5"/>
<text text-anchor="middle" x="4111.47" y="-341.2" font-family="Times,serif" font-size="14.00">Y</text>
</g>
<!-- n19&#45;&gt;c29 -->
<g id="edge76" class="edge">
<title>n19:e&#45;&gt;c29:w</title>
<path fill="none" stroke="black" d="M1325.05,-144C1369.25,-144 1476.1,-106 1520.3,-106 1520.3,-106 1520.3,-106 3754.3,-106 3908.97,-106 3872.26,-322.77 4017.59,-333.35"/>
<polygon fill="black" stroke="black" points="4017.21,-336.84 4027.33,-333.7 4017.46,-329.84 4017.21,-336.84"/>
</g>
<!-- c41 -->
<g id="node51" class="node">
<title>c41</title>
<polygon fill="none" stroke="black" points="1361.05,-172.5 1361.05,-221.5 1454.05,-221.5 1454.05,-172.5 1361.05,-172.5"/>
<text text-anchor="middle" x="1373.93" y="-204.2" font-family="Times,serif" font-size="14.00">A</text>
<polyline fill="none" stroke="black" points="1361.05,-197 1386.8,-197"/>
<text text-anchor="middle" x="1373.93" y="-179.7" font-family="Times,serif" font-size="14.00">B</text>
<polyline fill="none" stroke="black" points="1386.8,-172.5 1386.8,-221.5"/>
<text text-anchor="middle" x="1407.55" y="-200.2" font-family="Times,serif" font-size="14.00">$14</text>
<text text-anchor="middle" x="1407.55" y="-183.7" font-family="Times,serif" font-size="14.00">$sub</text>
<polyline fill="none" stroke="black" points="1428.3,-172.5 1428.3,-221.5"/>
<text text-anchor="middle" x="1441.18" y="-192.2" font-family="Times,serif" font-size="14.00">Y</text>
</g>
<!-- n19&#45;&gt;c41 -->
<g id="edge77" class="edge">
<title>n19:e&#45;&gt;c41:w</title>
<path fill="none" stroke="black" d="M1325.05,-144C1344.5,-144 1340.31,-170.39 1350.52,-180.69"/>
<polygon fill="black" stroke="black" points="1349.05,-183.88 1359.64,-184.21 1351.57,-177.34 1349.05,-183.88"/>
</g>
<!-- c43 -->
<g id="node56" class="node">
<title>c43</title>
<polygon fill="none" stroke="black" points="5935.99,-137.5 5935.99,-186.5 6028.99,-186.5 6028.99,-137.5 5935.99,-137.5"/>
<text text-anchor="middle" x="5948.86" y="-169.2" font-family="Times,serif" font-size="14.00">A</text>
<polyline fill="none" stroke="black" points="5935.99,-162 5961.74,-162"/>
<text text-anchor="middle" x="5948.86" y="-144.7" font-family="Times,serif" font-size="14.00">B</text>
<polyline fill="none" stroke="black" points="5961.74,-137.5 5961.74,-186.5"/>
<text text-anchor="middle" x="5982.49" y="-165.2" font-family="Times,serif" font-size="14.00">$59</text>
<text text-anchor="middle" x="5982.49" y="-148.7" font-family="Times,serif" font-size="14.00">$sub</text>
<polyline fill="none" stroke="black" points="6003.24,-137.5 6003.24,-186.5"/>
<text text-anchor="middle" x="6016.11" y="-157.2" font-family="Times,serif" font-size="14.00">Y</text>
</g>
<!-- n19&#45;&gt;c43 -->
<g id="edge78" class="edge">
<title>n19:e&#45;&gt;c43:w</title>
<path fill="none" stroke="black" d="M1325.05,-144C1345.88,-144 1342.65,-123.76 1361.05,-114 1426.12,-79.46 1446.63,-68 1520.3,-68 1520.3,-68 1520.3,-68 5019.67,-68 5197.13,-68 5241.92,-67.23 5418.68,-83 5633.86,-102.19 5697.56,-75.52 5899.99,-151 5913.37,-155.99 5916.22,-166.57 5924.84,-171.55"/>
<polygon fill="black" stroke="black" points="5923.97,-174.95 5934.52,-173.89 5925.62,-168.14 5923.97,-174.95"/>
</g>
<!-- n20 -->
<g id="node5" class="node">
<title>n20</title>
<polygon fill="none" stroke="black" points="2437.25,-321 2382,-303 2437.25,-285 2492.5,-303 2437.25,-321"/>
<text text-anchor="middle" x="2437.25" y="-297.95" font-family="Times,serif" font-size="14.00">temp_1</text>
</g>
<!-- x7 -->
<g id="node20" class="node">
<title>x7</title>
<path fill="none" stroke="black" d="M2996.5,-426C2996.5,-426 3035,-426 3035,-426 3041,-426 3047,-432 3047,-438 3047,-438 3047,-450 3047,-450 3047,-456 3041,-462 3035,-462 3035,-462 2996.5,-462 2996.5,-462 2990.5,-462 2984.5,-456 2984.5,-450 2984.5,-450 2984.5,-438 2984.5,-438 2984.5,-432 2990.5,-426 2996.5,-426"/>
<text text-anchor="middle" x="3015.75" y="-439.2" font-family="Times,serif" font-size="14.00">0:0 &#45; 0:0</text>
</g>
<!-- n20&#45;&gt;x7 -->
<g id="edge92" class="edge">
<title>n20:e&#45;&gt;x7:w</title>
<path fill="none" stroke="black" d="M2492.5,-303C2541.83,-303 2491.58,-375.28 2528.5,-408 2582.74,-456.08 2615.52,-442 2688,-442 2688,-442 2688,-442 2788.5,-442 2871.7,-442 2895.3,-444.05 2973.14,-444.24"/>
<polygon fill="black" stroke="black" points="2972.98,-447.74 2982.99,-444.25 2972.99,-440.74 2972.98,-447.74"/>
</g>
<!-- x9 -->
<g id="node23" class="node">
<title>x9</title>
<path fill="none" stroke="black" d="M3324,-226C3324,-226 3362.5,-226 3362.5,-226 3368.5,-226 3374.5,-232 3374.5,-238 3374.5,-238 3374.5,-250 3374.5,-250 3374.5,-256 3368.5,-262 3362.5,-262 3362.5,-262 3324,-262 3324,-262 3318,-262 3312,-256 3312,-250 3312,-250 3312,-238 3312,-238 3312,-232 3318,-226 3324,-226"/>
<text text-anchor="middle" x="3343.25" y="-239.2" font-family="Times,serif" font-size="14.00">0:0 &#45; 0:0</text>
</g>
<!-- n20&#45;&gt;x9 -->
<g id="edge93" class="edge">
<title>n20:e&#45;&gt;x9:w</title>
<path fill="none" stroke="black" d="M2492.5,-303C2518.46,-303 2505.88,-269.73 2528.5,-257 2590.71,-221.98 2616.61,-238 2688,-238 2688,-238 2688,-238 3131.25,-238 3207.71,-238 3229.52,-243.65 3300.64,-244.21"/>
<polygon fill="black" stroke="black" points="3300.47,-247.71 3310.49,-244.24 3300.5,-240.71 3300.47,-247.71"/>
</g>
<!-- x12 -->
<g id="node27" class="node">
<title>x12</title>
<path fill="none" stroke="black" d="M2768.25,-368C2768.25,-368 2806.75,-368 2806.75,-368 2812.75,-368 2818.75,-374 2818.75,-380 2818.75,-380 2818.75,-392 2818.75,-392 2818.75,-398 2812.75,-404 2806.75,-404 2806.75,-404 2768.25,-404 2768.25,-404 2762.25,-404 2756.25,-398 2756.25,-392 2756.25,-392 2756.25,-380 2756.25,-380 2756.25,-374 2762.25,-368 2768.25,-368"/>
<text text-anchor="middle" x="2787.5" y="-381.2" font-family="Times,serif" font-size="14.00">1:1 &#45; 0:0</text>
</g>
<!-- n20&#45;&gt;x12 -->
<g id="edge85" class="edge">
<title>n20:e&#45;&gt;x12:w</title>
<path fill="none" stroke="black" d="M2492.5,-303C2530.68,-303 2496.58,-360.05 2528.5,-381 2609.93,-434.43 2651.75,-389.93 2744.94,-386.46"/>
<polygon fill="black" stroke="black" points="2744.8,-389.96 2754.74,-386.28 2744.67,-382.96 2744.8,-389.96"/>
</g>
<!-- x15 -->
<g id="node31" class="node">
<title>x15</title>
<path fill="none" stroke="black" d="M2882.38,-135C2882.38,-135 2920.88,-135 2920.88,-135 2926.88,-135 2932.88,-141 2932.88,-147 2932.88,-147 2932.88,-159 2932.88,-159 2932.88,-165 2926.88,-171 2920.88,-171 2920.88,-171 2882.38,-171 2882.38,-171 2876.38,-171 2870.38,-165 2870.38,-159 2870.38,-159 2870.38,-147 2870.38,-147 2870.38,-141 2876.38,-135 2882.38,-135"/>
<text text-anchor="middle" x="2901.63" y="-148.2" font-family="Times,serif" font-size="14.00">3:1 &#45; 2:0</text>
</g>
<!-- n20&#45;&gt;x15 -->
<g id="edge86" class="edge">
<title>n20:e&#45;&gt;x15:w</title>
<path fill="none" stroke="black" stroke-width="3" d="M2492.5,-303C2546.91,-303 2486.34,-220.38 2528.5,-186 2643.46,-92.26 2713.56,-150.13 2857.94,-153.13"/>
<polygon fill="black" stroke="black" stroke-width="3" points="2854.8,-156.6 2864.84,-153.2 2854.87,-149.6 2854.8,-156.6"/>
</g>
<!-- x17 -->
<g id="node34" class="node">
<title>x17</title>
<path fill="none" stroke="black" d="M5244.43,-361.5C5244.43,-361.5 5282.93,-361.5 5282.93,-361.5 5288.93,-361.5 5294.93,-367.5 5294.93,-373.5 5294.93,-373.5 5294.93,-398.5 5294.93,-398.5 5294.93,-404.5 5288.93,-410.5 5282.93,-410.5 5282.93,-410.5 5244.43,-410.5 5244.43,-410.5 5238.43,-410.5 5232.43,-404.5 5232.43,-398.5 5232.43,-398.5 5232.43,-373.5 5232.43,-373.5 5232.43,-367.5 5238.43,-361.5 5244.43,-361.5"/>
<text text-anchor="middle" x="5263.68" y="-393.2" font-family="Times,serif" font-size="14.00">3:1 &#45; 3:1</text>
<polyline fill="none" stroke="black" points="5232.43,-386 5294.93,-386"/>
<text text-anchor="middle" x="5263.68" y="-368.7" font-family="Times,serif" font-size="14.00">0:0 &#45; 0:0</text>
</g>
<!-- n20&#45;&gt;x17 -->
<g id="edge87" class="edge">
<title>n20:e&#45;&gt;x17:w</title>
<path fill="none" stroke="black" stroke-width="3" d="M2492.5,-303C2555.46,-303 2485.82,-393.72 2528.5,-440 2579.44,-495.23 2612.87,-496 2688,-496 2688,-496 2688,-496 2902.63,-496 3025.18,-496 3059.44,-485.1 3177.5,-518 3194.73,-522.8 3196.44,-530.63 3213.5,-536 3268.67,-553.37 3284.41,-555 3342.25,-555 3342.25,-555 3342.25,-555 5019.67,-555 5133.22,-555 5116.29,-408.49 5221.18,-398.76"/>
<polygon fill="black" stroke="black" stroke-width="3" points="5218.06,-402.4 5227.89,-398.45 5217.74,-395.41 5218.06,-402.4"/>
</g>
<!-- c42 -->
<g id="node54" class="node">
<title>c42</title>
<polygon fill="none" stroke="black" points="2528.63,-600.5 2528.63,-649.5 2621.63,-649.5 2621.63,-600.5 2528.63,-600.5"/>
<text text-anchor="middle" x="2541.5" y="-632.2" font-family="Times,serif" font-size="14.00">A</text>
<polyline fill="none" stroke="black" points="2528.63,-625 2554.38,-625"/>
<text text-anchor="middle" x="2541.5" y="-607.7" font-family="Times,serif" font-size="14.00">B</text>
<polyline fill="none" stroke="black" points="2554.38,-600.5 2554.38,-649.5"/>
<text text-anchor="middle" x="2575.13" y="-628.2" font-family="Times,serif" font-size="14.00">$25</text>
<text text-anchor="middle" x="2575.13" y="-611.7" font-family="Times,serif" font-size="14.00">$sub</text>
<polyline fill="none" stroke="black" points="2595.88,-600.5 2595.88,-649.5"/>
<text text-anchor="middle" x="2608.75" y="-620.2" font-family="Times,serif" font-size="14.00">Y</text>
</g>
<!-- n20&#45;&gt;c42 -->
<g id="edge84" class="edge">
<title>n20:e&#45;&gt;c42:w</title>
<path fill="none" stroke="black" stroke-width="3" d="M2492.5,-303C2557.6,-303 2471,-576.38 2517.73,-609.48"/>
<polygon fill="black" stroke="black" stroke-width="3" points="2513.57,-611.88 2524.16,-611.43 2515.6,-605.18 2513.57,-611.88"/>
</g>
<!-- n20&#45;&gt;x31 -->
<g id="edge88" class="edge">
<title>n20:e&#45;&gt;x31:w</title>
<path fill="none" stroke="black" stroke-width="3" d="M2492.5,-303C2528.68,-303 2499.69,-251.87 2528.5,-230 2585.96,-186.39 2615.87,-200 2688,-200 2688,-200 2688,-200 3016.75,-200 3208.2,-200 3256.05,-197 3447.5,-197 3447.5,-197 3447.5,-197 5617.43,-197 5711.32,-197 5737.61,-197.23 5826.08,-197.25"/>
<polygon fill="black" stroke="black" stroke-width="3" points="5822.95,-200.75 5832.95,-197.25 5822.95,-193.75 5822.95,-200.75"/>
</g>
<!-- x41 -->
<g id="node68" class="node">
<title>x41</title>
<path fill="none" stroke="black" d="M2555.88,-335C2555.88,-335 2594.38,-335 2594.38,-335 2600.38,-335 2606.38,-341 2606.38,-347 2606.38,-347 2606.38,-359 2606.38,-359 2606.38,-365 2600.38,-371 2594.38,-371 2594.38,-371 2555.88,-371 2555.88,-371 2549.88,-371 2543.88,-365 2543.88,-359 2543.88,-359 2543.88,-347 2543.88,-347 2543.88,-341 2549.88,-335 2555.88,-335"/>
<text text-anchor="middle" x="2575.13" y="-348.2" font-family="Times,serif" font-size="14.00">3:2 &#45; 1:0</text>
</g>
<!-- n20&#45;&gt;x41 -->
<g id="edge89" class="edge">
<title>n20:e&#45;&gt;x41:w</title>
<path fill="none" stroke="black" stroke-width="3" d="M2492.5,-303C2519.68,-303 2513.99,-340.11 2531.93,-350.55"/>
<polygon fill="black" stroke="black" stroke-width="3" points="2527.92,-353.16 2538.47,-352.16 2529.6,-346.37 2527.92,-353.16"/>
</g>
<!-- x47 -->
<g id="node74" class="node">
<title>x47</title>
<path fill="none" stroke="black" d="M2540.5,-266.5C2540.5,-266.5 2609.75,-266.5 2609.75,-266.5 2615.75,-266.5 2621.75,-272.5 2621.75,-278.5 2621.75,-278.5 2621.75,-303.5 2621.75,-303.5 2621.75,-309.5 2615.75,-315.5 2609.75,-315.5 2609.75,-315.5 2540.5,-315.5 2540.5,-315.5 2534.5,-315.5 2528.5,-309.5 2528.5,-303.5 2528.5,-303.5 2528.5,-278.5 2528.5,-278.5 2528.5,-272.5 2534.5,-266.5 2540.5,-266.5"/>
<text text-anchor="middle" x="2575.13" y="-298.2" font-family="Times,serif" font-size="14.00">20x 3:3 &#45; 22:3</text>
<polyline fill="none" stroke="black" points="2528.5,-291 2621.75,-291"/>
<text text-anchor="middle" x="2575.13" y="-273.7" font-family="Times,serif" font-size="14.00">3:1 &#45; 2:0</text>
</g>
<!-- n20&#45;&gt;x47 -->
<g id="edge90" class="edge">
<title>n20:e&#45;&gt;x47:w</title>
<path fill="none" stroke="black" stroke-width="3" d="M2492.5,-303C2507.12,-303 2509.18,-289.07 2517.71,-282.33"/>
<polygon fill="black" stroke="black" stroke-width="3" points="2515.8,-286.65 2524.19,-280.18 2513.6,-280.01 2515.8,-286.65"/>
</g>
<!-- n20&#45;&gt;x47 -->
<g id="edge91" class="edge">
<title>n20:e&#45;&gt;x47:w</title>
<path fill="none" stroke="black" stroke-width="3" d="M2492.5,-303C2503.88,-303 2509.19,-303.13 2517.05,-303.2"/>
<polygon fill="black" stroke="black" stroke-width="3" points="2513.95,-306.69 2523.96,-303.23 2513.98,-299.69 2513.95,-306.69"/>
</g>
<!-- n21 -->
<g id="node6" class="node">
<title>n21</title>
<polygon fill="none" stroke="black" points="5141.18,-392 5085.92,-374 5141.18,-356 5196.43,-374 5141.18,-392"/>
<text text-anchor="middle" x="5141.18" y="-368.95" font-family="Times,serif" font-size="14.00">temp_4</text>
</g>
<!-- n21&#45;&gt;x17 -->
<g id="edge96" class="edge">
<title>n21:e&#45;&gt;x17:w</title>
<path fill="none" stroke="black" d="M5196.43,-374C5207.8,-374 5213.11,-373.87 5220.98,-373.8"/>
<polygon fill="black" stroke="black" points="5220.93,-377.3 5230.91,-373.76 5220.9,-370.3 5220.93,-377.3"/>
</g>
<!-- n2 -->
<g id="node82" class="node">
<title>n2</title>
<ellipse fill="black" stroke="black" cx="304.84" cy="-340" rx="1.8" ry="1.8"/>
</g>
<!-- c25&#45;&gt;n2 -->
<g id="edge79" class="edge">
<title>c25:e&#45;&gt;n2:w</title>
<path fill="none" stroke="black" stroke-width="3" d="M237.59,-303.25C266.15,-303.25 268.62,-331.14 290.45,-338.33"/>
<polygon fill="black" stroke="black" stroke-width="3" points="286.66,-341.29 297.07,-339.32 287.71,-334.37 286.66,-341.29"/>
</g>
<!-- c26 -->
<g id="node8" class="node">
<title>c26</title>
<polygon fill="none" stroke="black" points="2854.75,-562.5 2854.75,-611.5 2948.5,-611.5 2948.5,-562.5 2854.75,-562.5"/>
<text text-anchor="middle" x="2867.63" y="-594.2" font-family="Times,serif" font-size="14.00">A</text>
<polyline fill="none" stroke="black" points="2854.75,-587 2880.5,-587"/>
<text text-anchor="middle" x="2867.63" y="-569.7" font-family="Times,serif" font-size="14.00">B</text>
<polyline fill="none" stroke="black" points="2880.5,-562.5 2880.5,-611.5"/>
<text text-anchor="middle" x="2901.63" y="-590.2" font-family="Times,serif" font-size="14.00">$26</text>
<text text-anchor="middle" x="2901.63" y="-573.7" font-family="Times,serif" font-size="14.00">$and</text>
<polyline fill="none" stroke="black" points="2922.75,-562.5 2922.75,-611.5"/>
<text text-anchor="middle" x="2935.63" y="-582.2" font-family="Times,serif" font-size="14.00">Y</text>
</g>
<!-- x3 -->
<g id="node14" class="node">
<title>x3</title>
<path fill="none" stroke="black" d="M2996.5,-566C2996.5,-566 3035,-566 3035,-566 3041,-566 3047,-572 3047,-578 3047,-578 3047,-590 3047,-590 3047,-596 3041,-602 3035,-602 3035,-602 2996.5,-602 2996.5,-602 2990.5,-602 2984.5,-596 2984.5,-590 2984.5,-590 2984.5,-578 2984.5,-578 2984.5,-572 2990.5,-566 2996.5,-566"/>
<text text-anchor="middle" x="3015.75" y="-579.2" font-family="Times,serif" font-size="14.00">0:0 &#45; 0:0</text>
</g>
<!-- c26&#45;&gt;x3 -->
<g id="edge97" class="edge">
<title>c26:e&#45;&gt;x3:w</title>
<path fill="none" stroke="black" stroke-width="3" d="M2948.5,-587.25C2959.92,-587.25 2965.18,-585.73 2973.04,-584.86"/>
<polygon fill="black" stroke="black" stroke-width="3" points="2970.17,-588.51 2979.97,-584.49 2969.8,-581.52 2970.17,-588.51"/>
</g>
<!-- x0 -->
<g id="node9" class="node">
<title>x0</title>
<path fill="none" stroke="black" d="M2768.25,-602C2768.25,-602 2806.75,-602 2806.75,-602 2812.75,-602 2818.75,-608 2818.75,-614 2818.75,-614 2818.75,-626 2818.75,-626 2818.75,-632 2812.75,-638 2806.75,-638 2806.75,-638 2768.25,-638 2768.25,-638 2762.25,-638 2756.25,-632 2756.25,-626 2756.25,-626 2756.25,-614 2756.25,-614 2756.25,-608 2762.25,-602 2768.25,-602"/>
<text text-anchor="middle" x="2787.5" y="-615.2" font-family="Times,serif" font-size="14.00">6:0 &#45; 6:0</text>
</g>
<!-- x0&#45;&gt;c26 -->
<g id="edge1" class="edge">
<title>x0:e&#45;&gt;c26:w</title>
<path fill="none" stroke="black" stroke-width="3" d="M2830.59,-616C2835.13,-612.42 2838.11,-607.19 2842.57,-603.52"/>
<polygon fill="none" stroke="black" stroke-width="3" points="2832.68,-615.29 2828.28,-621 2821.31,-619.13 2825.72,-613.42 2832.68,-615.29"/>
<polygon fill="none" stroke="black" stroke-width="3" points="2840.88,-604.12 2845.21,-598.36 2852.2,-600.15 2847.86,-605.91 2840.88,-604.12"/>
</g>
<!-- x1&#45;&gt;c26 -->
<g id="edge2" class="edge">
<title>x1:e&#45;&gt;c26:w</title>
<path fill="none" stroke="black" stroke-width="3" d="M447.63,-514.39C530.73,-519.42 549.14,-572 639.09,-572 639.09,-572 639.09,-572 2690,-572 2758.8,-572 2779.1,-574.43 2842.03,-574.72"/>
<polygon fill="none" stroke="black" stroke-width="3" points="449.29,-514.43 443.17,-518.26 437.29,-514.08 443.41,-510.26 449.29,-514.43"/>
<polygon fill="none" stroke="black" stroke-width="3" points="2840.05,-574.72 2846.06,-570.73 2852.05,-574.74 2846.04,-578.73 2840.05,-574.72"/>
</g>
<!-- x33 -->
<g id="node60" class="node">
<title>x33</title>
<path fill="none" stroke="black" d="M2150,-216.5C2150,-216.5 2205.75,-216.5 2205.75,-216.5 2211.75,-216.5 2217.75,-222.5 2217.75,-228.5 2217.75,-228.5 2217.75,-253.5 2217.75,-253.5 2217.75,-259.5 2211.75,-265.5 2205.75,-265.5 2205.75,-265.5 2150,-265.5 2150,-265.5 2144,-265.5 2138,-259.5 2138,-253.5 2138,-253.5 2138,-228.5 2138,-228.5 2138,-222.5 2144,-216.5 2150,-216.5"/>
<text text-anchor="middle" x="2177.88" y="-248.2" font-family="Times,serif" font-size="14.00">3x 0:0 &#45; 3:1</text>
<polyline fill="none" stroke="black" points="2138,-241 2217.75,-241"/>
<text text-anchor="middle" x="2177.88" y="-223.7" font-family="Times,serif" font-size="14.00">0:0 &#45; 0:0</text>
</g>
<!-- c27&#45;&gt;x33 -->
<g id="edge101" class="edge">
<title>c27:e&#45;&gt;x33:w</title>
<path fill="none" stroke="black" d="M2102,-207.25C2115.98,-207.25 2118.76,-219.34 2127.13,-225.39"/>
<polygon fill="black" stroke="black" points="2125.97,-228.69 2136.55,-228.3 2128.03,-222.01 2125.97,-228.69"/>
</g>
<!-- x2 -->
<g id="node12" class="node">
<title>x2</title>
<path fill="none" stroke="black" d="M1921,-201C1921,-201 1959.5,-201 1959.5,-201 1965.5,-201 1971.5,-207 1971.5,-213 1971.5,-213 1971.5,-225 1971.5,-225 1971.5,-231 1965.5,-237 1959.5,-237 1959.5,-237 1921,-237 1921,-237 1915,-237 1909,-231 1909,-225 1909,-225 1909,-213 1909,-213 1909,-207 1915,-201 1921,-201"/>
<text text-anchor="middle" x="1940.25" y="-214.2" font-family="Times,serif" font-size="14.00">0:0 &#45; 0:0</text>
</g>
<!-- x2&#45;&gt;c27 -->
<g id="edge3" class="edge">
<title>x2:e&#45;&gt;c27:w</title>
<path fill="none" stroke="black" d="M1984.22,-219.06C1987.82,-219.1 1990.95,-219.15 1994.53,-219.18"/>
<polygon fill="none" stroke="black" points="1984.4,-219.06 1978.38,-223.03 1972.4,-219 1978.42,-215.03 1984.4,-219.06"/>
<polygon fill="none" stroke="black" points="1994.6,-219.18 2000.62,-215.22 2006.6,-219.25 2000.58,-223.21 1994.6,-219.18"/>
</g>
<!-- x4 -->
<g id="node15" class="node">
<title>x4</title>
<path fill="none" stroke="black" d="M3225.5,-490C3225.5,-490 3264,-490 3264,-490 3270,-490 3276,-496 3276,-502 3276,-502 3276,-514 3276,-514 3276,-520 3270,-526 3264,-526 3264,-526 3225.5,-526 3225.5,-526 3219.5,-526 3213.5,-520 3213.5,-514 3213.5,-514 3213.5,-502 3213.5,-502 3213.5,-496 3219.5,-490 3225.5,-490"/>
<text text-anchor="middle" x="3244.75" y="-503.2" font-family="Times,serif" font-size="14.00">0:0 &#45; 0:0</text>
</g>
<!-- c28&#45;&gt;x4 -->
<g id="edge5" class="edge">
<title>c28:e&#45;&gt;x4:w</title>
<path fill="none" stroke="black" d="M3189.23,-546.82C3195.78,-538.33 3195.22,-521.99 3201.74,-513.47"/>
<polygon fill="none" stroke="black" points="3189.21,-546.83 3185.44,-552.98 3178.32,-551.87 3182.08,-545.72 3189.21,-546.83"/>
<polygon fill="none" stroke="black" points="3201.8,-513.44 3205.56,-507.28 3212.68,-508.38 3208.93,-514.54 3201.8,-513.44"/>
</g>
<!-- x3&#45;&gt;c28 -->
<g id="edge4" class="edge">
<title>x3:e&#45;&gt;c28:w</title>
<path fill="none" stroke="black" d="M3059.28,-579.81C3063.52,-576.46 3066.49,-571.78 3070.73,-568.43"/>
<polygon fill="none" stroke="black" points="3059.21,-579.83 3054.82,-585.56 3047.85,-583.71 3052.24,-577.99 3059.21,-579.83"/>
<polygon fill="none" stroke="black" points="3070.79,-568.41 3075.18,-562.69 3082.15,-564.54 3077.76,-570.26 3070.79,-568.41"/>
</g>
<!-- n4 -->
<g id="node83" class="node">
<title>n4</title>
<ellipse fill="black" stroke="black" cx="3343.25" cy="-414" rx="1.8" ry="1.8"/>
</g>
<!-- x4&#45;&gt;n4 -->
<g id="edge99" class="edge">
<title>x4:e&#45;&gt;n4:w</title>
<path fill="none" stroke="black" d="M3276,-508.25C3322.28,-508.25 3295.11,-429.5 3328.76,-415.97"/>
<polygon fill="black" stroke="black" points="3329.24,-419.44 3338.48,-414.26 3328.03,-412.54 3329.24,-419.44"/>
</g>
<!-- x6 -->
<g id="node18" class="node">
<title>x6</title>
<path fill="none" stroke="black" d="M4319.34,-329C4319.34,-329 4357.84,-329 4357.84,-329 4363.84,-329 4369.84,-335 4369.84,-341 4369.84,-341 4369.84,-353 4369.84,-353 4369.84,-359 4363.84,-365 4357.84,-365 4357.84,-365 4319.34,-365 4319.34,-365 4313.34,-365 4307.34,-359 4307.34,-353 4307.34,-353 4307.34,-341 4307.34,-341 4307.34,-335 4313.34,-329 4319.34,-329"/>
<text text-anchor="middle" x="4338.59" y="-342.2" font-family="Times,serif" font-size="14.00">0:0 &#45; 0:0</text>
</g>
<!-- c29&#45;&gt;x6 -->
<g id="edge7" class="edge">
<title>c29:e&#45;&gt;x6:w</title>
<path fill="none" stroke="black" d="M4138.02,-346.26C4204.06,-346.33 4227.54,-346.92 4293.5,-346.99"/>
<polygon fill="none" stroke="black" points="4138.25,-346.26 4132.24,-350.25 4126.25,-346.25 4132.25,-342.25 4138.25,-346.26"/>
<polygon fill="none" stroke="black" points="4293.43,-346.99 4299.44,-343 4305.43,-347 4299.43,-351 4293.43,-346.99"/>
</g>
<!-- x5 -->
<g id="node17" class="node">
<title>x5</title>
<path fill="none" stroke="black" d="M3803.1,-340C3803.1,-340 3841.6,-340 3841.6,-340 3847.6,-340 3853.6,-346 3853.6,-352 3853.6,-352 3853.6,-364 3853.6,-364 3853.6,-370 3847.6,-376 3841.6,-376 3841.6,-376 3803.1,-376 3803.1,-376 3797.1,-376 3791.1,-370 3791.1,-364 3791.1,-364 3791.1,-352 3791.1,-352 3791.1,-346 3797.1,-340 3803.1,-340"/>
<text text-anchor="middle" x="3822.35" y="-353.2" font-family="Times,serif" font-size="14.00">0:0 &#45; 0:0</text>
</g>
<!-- x5&#45;&gt;c29 -->
<g id="edge6" class="edge">
<title>x5:e&#45;&gt;c29:w</title>
<path fill="none" stroke="black" d="M3866.29,-358C3929.79,-358.03 3952.6,-358.22 4016.05,-358.25"/>
<polygon fill="none" stroke="black" points="3866.5,-358 3860.5,-362 3854.5,-358 3860.5,-354 3866.5,-358"/>
<polygon fill="none" stroke="black" points="4015.94,-358.25 4021.94,-354.25 4027.94,-358.25 4021.94,-362.25 4015.94,-358.25"/>
</g>
<!-- x6&#45;&gt;n16 -->
<g id="edge57" class="edge">
<title>x6:e&#45;&gt;n16:w</title>
<path fill="none" stroke="black" d="M4370.84,-347.25C4386.87,-347.25 4390.81,-359.3 4401.55,-364.58"/>
<polygon fill="black" stroke="black" points="4400.59,-367.95 4411.11,-366.68 4402.09,-361.11 4400.59,-367.95"/>
</g>
<!-- c30 -->
<g id="node19" class="node">
<title>c30</title>
<polygon fill="none" stroke="black" points="4856.92,-382.5 4856.92,-431.5 4951.42,-431.5 4951.42,-382.5 4856.92,-382.5"/>
<text text-anchor="middle" x="4869.8" y="-414.2" font-family="Times,serif" font-size="14.00">A</text>
<polyline fill="none" stroke="black" points="4856.92,-407 4882.67,-407"/>
<text text-anchor="middle" x="4869.8" y="-389.7" font-family="Times,serif" font-size="14.00">B</text>
<polyline fill="none" stroke="black" points="4882.67,-382.5 4882.67,-431.5"/>
<text text-anchor="middle" x="4904.17" y="-410.2" font-family="Times,serif" font-size="14.00">$138</text>
<text text-anchor="middle" x="4904.17" y="-393.7" font-family="Times,serif" font-size="14.00">$or</text>
<polyline fill="none" stroke="black" points="4925.67,-382.5 4925.67,-431.5"/>
<text text-anchor="middle" x="4938.55" y="-402.2" font-family="Times,serif" font-size="14.00">Y</text>
</g>
<!-- x8 -->
<g id="node21" class="node">
<title>x8</title>
<path fill="none" stroke="black" d="M4999.42,-380C4999.42,-380 5037.92,-380 5037.92,-380 5043.92,-380 5049.92,-386 5049.92,-392 5049.92,-392 5049.92,-404 5049.92,-404 5049.92,-410 5043.92,-416 5037.92,-416 5037.92,-416 4999.42,-416 4999.42,-416 4993.42,-416 4987.42,-410 4987.42,-404 4987.42,-404 4987.42,-392 4987.42,-392 4987.42,-386 4993.42,-380 4999.42,-380"/>
<text text-anchor="middle" x="5018.67" y="-393.2" font-family="Times,serif" font-size="14.00">0:0 &#45; 0:0</text>
</g>
<!-- c30&#45;&gt;x8 -->
<g id="edge9" class="edge">
<title>c30:e&#45;&gt;x8:w</title>
<path fill="none" stroke="black" d="M4964.26,-404.92C4967.92,-403.5 4971.01,-401.71 4974.67,-400.3"/>
<polygon fill="none" stroke="black" points="4964.12,-404.94 4958.93,-409.95 4952.31,-407.09 4957.5,-402.08 4964.12,-404.94"/>
<polygon fill="none" stroke="black" points="4974.73,-400.29 4979.92,-395.29 4986.54,-398.16 4981.34,-403.16 4974.73,-400.29"/>
</g>
<!-- x7&#45;&gt;c30 -->
<g id="edge8" class="edge">
<title>x7:e&#45;&gt;c30:w</title>
<path fill="none" stroke="black" d="M3059.88,-444.13C3137.1,-445.68 3160.44,-461 3243.75,-461 3243.75,-461 3243.75,-461 3344.25,-461 3803.25,-461 3918.23,-456.2 4376.59,-432 4586.03,-420.94 4640.58,-395.81 4843.95,-394.78"/>
<polygon fill="none" stroke="black" points="3059.9,-444.13 3053.86,-448.07 3047.9,-444.01 3053.94,-440.07 3059.9,-444.13"/>
<polygon fill="none" stroke="black" points="4844.02,-394.78 4850.01,-390.77 4856.02,-394.75 4850.03,-398.77 4844.02,-394.78"/>
</g>
<!-- x8&#45;&gt;n21 -->
<g id="edge95" class="edge">
<title>x8:e&#45;&gt;n21:w</title>
<path fill="none" stroke="black" d="M5049.92,-398.25C5064.54,-398.25 5066.6,-384.32 5075.14,-377.58"/>
<polygon fill="black" stroke="black" points="5076.1,-380.95 5084.49,-374.48 5073.89,-374.3 5076.1,-380.95"/>
</g>
<!-- c31 -->
<g id="node22" class="node">
<title>c31</title>
<polygon fill="none" stroke="black" points="5454.68,-263.5 5454.68,-312.5 5549.18,-312.5 5549.18,-263.5 5454.68,-263.5"/>
<text text-anchor="middle" x="5467.55" y="-295.2" font-family="Times,serif" font-size="14.00">A</text>
<polyline fill="none" stroke="black" points="5454.68,-288 5480.43,-288"/>
<text text-anchor="middle" x="5467.55" y="-270.7" font-family="Times,serif" font-size="14.00">B</text>
<polyline fill="none" stroke="black" points="5480.43,-263.5 5480.43,-312.5"/>
<text text-anchor="middle" x="5501.93" y="-291.2" font-family="Times,serif" font-size="14.00">$145</text>
<text text-anchor="middle" x="5501.93" y="-274.7" font-family="Times,serif" font-size="14.00">$or</text>
<polyline fill="none" stroke="black" points="5523.43,-263.5 5523.43,-312.5"/>
<text text-anchor="middle" x="5536.3" y="-283.2" font-family="Times,serif" font-size="14.00">Y</text>
</g>
<!-- x10 -->
<g id="node24" class="node">
<title>x10</title>
<path fill="none" stroke="black" d="M5597.18,-270C5597.18,-270 5635.68,-270 5635.68,-270 5641.68,-270 5647.68,-276 5647.68,-282 5647.68,-282 5647.68,-294 5647.68,-294 5647.68,-300 5641.68,-306 5635.68,-306 5635.68,-306 5597.18,-306 5597.18,-306 5591.18,-306 5585.18,-300 5585.18,-294 5585.18,-294 5585.18,-282 5585.18,-282 5585.18,-276 5591.18,-270 5597.18,-270"/>
<text text-anchor="middle" x="5616.43" y="-283.2" font-family="Times,serif" font-size="14.00">0:0 &#45; 0:0</text>
</g>
<!-- c31&#45;&gt;x10 -->
<g id="edge11" class="edge">
<title>c31:e&#45;&gt;x10:w</title>
<path fill="none" stroke="black" d="M5561.9,-288.19C5565.5,-288.15 5568.63,-288.1 5572.2,-288.07"/>
<polygon fill="none" stroke="black" points="5562.08,-288.19 5556.1,-292.22 5550.08,-288.25 5556.06,-284.22 5562.08,-288.19"/>
<polygon fill="none" stroke="black" points="5572.27,-288.07 5578.25,-284.04 5584.27,-288 5578.29,-292.03 5572.27,-288.07"/>
</g>
<!-- x9&#45;&gt;c31 -->
<g id="edge10" class="edge">
<title>x9:e&#45;&gt;c31:w</title>
<path fill="none" stroke="black" d="M3387.18,-243.93C3463.27,-243.11 3486.71,-235 3568.75,-235 3568.75,-235 3568.75,-235 5264.68,-235 5334.49,-235 5350.72,-249.98 5418.68,-266 5429.52,-268.56 5434.56,-272.08 5441.73,-274.12"/>
<polygon fill="none" stroke="black" points="3387.4,-243.93 3381.42,-247.96 3375.4,-244 3381.38,-239.96 3387.4,-243.93"/>
<polygon fill="none" stroke="black" points="5441.88,-274.13 5448.33,-270.92 5453.78,-275.64 5447.33,-278.85 5441.88,-274.13"/>
</g>
<!-- x10&#45;&gt;n18 -->
<g id="edge68" class="edge">
<title>x10:e&#45;&gt;n18:w</title>
<path fill="none" stroke="black" d="M5647.68,-288.25C5659.05,-288.25 5664.36,-288.12 5672.23,-288.05"/>
<polygon fill="black" stroke="black" points="5672.18,-291.55 5682.16,-288.01 5672.15,-284.55 5672.18,-291.55"/>
</g>
<!-- c32 -->
<g id="node25" class="node">
<title>c32</title>
<polygon fill="none" stroke="black" points="3522.5,-377.5 3522.5,-426.5 3617,-426.5 3617,-377.5 3522.5,-377.5"/>
<text text-anchor="middle" x="3535.38" y="-409.2" font-family="Times,serif" font-size="14.00">A</text>
<polyline fill="none" stroke="black" points="3522.5,-402 3548.25,-402"/>
<text text-anchor="middle" x="3535.38" y="-384.7" font-family="Times,serif" font-size="14.00">B</text>
<polyline fill="none" stroke="black" points="3548.25,-377.5 3548.25,-426.5"/>
<text text-anchor="middle" x="3569.75" y="-405.2" font-family="Times,serif" font-size="14.00">$155</text>
<text text-anchor="middle" x="3569.75" y="-388.7" font-family="Times,serif" font-size="14.00">$xor</text>
<polyline fill="none" stroke="black" points="3591.25,-377.5 3591.25,-426.5"/>
<text text-anchor="middle" x="3604.13" y="-397.2" font-family="Times,serif" font-size="14.00">Y</text>
</g>
<!-- x13 -->
<g id="node28" class="node">
<title>x13</title>
<path fill="none" stroke="black" d="M3665,-380C3665,-380 3703.5,-380 3703.5,-380 3709.5,-380 3715.5,-386 3715.5,-392 3715.5,-392 3715.5,-404 3715.5,-404 3715.5,-410 3709.5,-416 3703.5,-416 3703.5,-416 3665,-416 3665,-416 3659,-416 3653,-410 3653,-404 3653,-404 3653,-392 3653,-392 3653,-386 3659,-380 3665,-380"/>
<text text-anchor="middle" x="3684.25" y="-393.2" font-family="Times,serif" font-size="14.00">0:0 &#45; 0:0</text>
</g>
<!-- c32&#45;&gt;x13 -->
<g id="edge14" class="edge">
<title>c32:e&#45;&gt;x13:w</title>
<path fill="none" stroke="black" d="M3629.75,-401.18C3633.33,-400.55 3636.44,-399.75 3640,-399.12"/>
<polygon fill="none" stroke="black" points="3629.86,-401.17 3624.21,-405.66 3617.9,-402.17 3623.54,-397.69 3629.86,-401.17"/>
<polygon fill="none" stroke="black" points="3640.15,-399.1 3645.78,-394.61 3652.1,-398.08 3646.47,-402.58 3640.15,-399.1"/>
</g>
<!-- x11 -->
<g id="node26" class="node">
<title>x11</title>
<path fill="none" stroke="black" d="M3429.25,-396C3429.25,-396 3467.75,-396 3467.75,-396 3473.75,-396 3479.75,-402 3479.75,-408 3479.75,-408 3479.75,-420 3479.75,-420 3479.75,-426 3473.75,-432 3467.75,-432 3467.75,-432 3429.25,-432 3429.25,-432 3423.25,-432 3417.25,-426 3417.25,-420 3417.25,-420 3417.25,-408 3417.25,-408 3417.25,-402 3423.25,-396 3429.25,-396"/>
<text text-anchor="middle" x="3448.5" y="-409.2" font-family="Times,serif" font-size="14.00">0:0 &#45; 0:0</text>
</g>
<!-- x11&#45;&gt;c32 -->
<g id="edge12" class="edge">
<title>x11:e&#45;&gt;c32:w</title>
<path fill="none" stroke="black" d="M3493.72,-414.05C3499.39,-414.09 3503.88,-414.16 3509.55,-414.2"/>
<polygon fill="none" stroke="black" points="3493.65,-414.05 3487.64,-418.03 3481.65,-414 3487.67,-410.03 3493.65,-414.05"/>
<polygon fill="none" stroke="black" points="3509.6,-414.2 3515.61,-410.22 3521.6,-414.25 3515.59,-418.22 3509.6,-414.2"/>
</g>
<!-- x12&#45;&gt;c32 -->
<g id="edge13" class="edge">
<title>x12:e&#45;&gt;c32:w</title>
<path fill="none" stroke="black" d="M2831.59,-385.86C2908.57,-384.12 2931.68,-367 3014.75,-367 3014.75,-367 3014.75,-367 3344.25,-367 3380.36,-367 3464.27,-385.6 3509.53,-389.16"/>
<polygon fill="none" stroke="black" points="2831.65,-385.86 2825.7,-389.92 2819.65,-385.99 2825.61,-381.92 2831.65,-385.86"/>
<polygon fill="none" stroke="black" points="3509.61,-389.17 3515.79,-385.44 3521.6,-389.71 3515.43,-393.43 3509.61,-389.17"/>
</g>
<!-- n7 -->
<g id="node85" class="node">
<title>n7</title>
<ellipse fill="black" stroke="black" cx="3753.3" cy="-358" rx="1.8" ry="1.8"/>
</g>
<!-- x13&#45;&gt;n7 -->
<g id="edge105" class="edge">
<title>x13:e&#45;&gt;n7:w</title>
<path fill="none" stroke="black" d="M3715.5,-398.25C3734.81,-398.25 3730.82,-372.19 3741.02,-362.01"/>
<polygon fill="black" stroke="black" points="3742,-365.38 3750.09,-358.54 3739.5,-358.84 3742,-365.38"/>
</g>
<!-- c33 -->
<g id="node29" class="node">
<title>c33</title>
<polygon fill="none" stroke="black" points="6894.84,-292.5 6894.84,-341.5 6989.34,-341.5 6989.34,-292.5 6894.84,-292.5"/>
<text text-anchor="middle" x="6907.71" y="-324.2" font-family="Times,serif" font-size="14.00">A</text>
<polyline fill="none" stroke="black" points="6894.84,-317 6920.59,-317"/>
<text text-anchor="middle" x="6907.71" y="-299.7" font-family="Times,serif" font-size="14.00">B</text>
<polyline fill="none" stroke="black" points="6920.59,-292.5 6920.59,-341.5"/>
<text text-anchor="middle" x="6942.09" y="-320.2" font-family="Times,serif" font-size="14.00">$173</text>
<text text-anchor="middle" x="6942.09" y="-303.7" font-family="Times,serif" font-size="14.00">$xor</text>
<polyline fill="none" stroke="black" points="6963.59,-292.5 6963.59,-341.5"/>
<text text-anchor="middle" x="6976.46" y="-312.2" font-family="Times,serif" font-size="14.00">Y</text>
</g>
<!-- x16 -->
<g id="node32" class="node">
<title>x16</title>
<path fill="none" stroke="black" d="M7037.34,-337C7037.34,-337 7075.84,-337 7075.84,-337 7081.84,-337 7087.84,-343 7087.84,-349 7087.84,-349 7087.84,-361 7087.84,-361 7087.84,-367 7081.84,-373 7075.84,-373 7075.84,-373 7037.34,-373 7037.34,-373 7031.34,-373 7025.34,-367 7025.34,-361 7025.34,-361 7025.34,-349 7025.34,-349 7025.34,-343 7031.34,-337 7037.34,-337"/>
<text text-anchor="middle" x="7056.59" y="-350.2" font-family="Times,serif" font-size="14.00">2:0 &#45; 3:1</text>
</g>
<!-- c33&#45;&gt;x16 -->
<g id="edge17" class="edge">
<title>c33:e&#45;&gt;x16:w</title>
<path fill="none" stroke="black" stroke-width="3" d="M7000.97,-322.5C7006.84,-329.63 7007.76,-342.32 7013.54,-349.55"/>
<polygon fill="none" stroke="black" stroke-width="3" points="7002.74,-323.3 6995.62,-324.48 6991.8,-318.36 6998.91,-317.18 7002.74,-323.3"/>
<polygon fill="none" stroke="black" stroke-width="3" points="7011.99,-348.83 7019.11,-347.72 7022.88,-353.87 7015.76,-354.98 7011.99,-348.83"/>
</g>
<!-- x14 -->
<g id="node30" class="node">
<title>x14</title>
<path fill="none" stroke="black" d="M6808.34,-311C6808.34,-311 6846.84,-311 6846.84,-311 6852.84,-311 6858.84,-317 6858.84,-323 6858.84,-323 6858.84,-335 6858.84,-335 6858.84,-341 6852.84,-347 6846.84,-347 6846.84,-347 6808.34,-347 6808.34,-347 6802.34,-347 6796.34,-341 6796.34,-335 6796.34,-335 6796.34,-323 6796.34,-323 6796.34,-317 6802.34,-311 6808.34,-311"/>
<text text-anchor="middle" x="6827.59" y="-324.2" font-family="Times,serif" font-size="14.00">3:1 &#45; 2:0</text>
</g>
<!-- x14&#45;&gt;c33 -->
<g id="edge15" class="edge">
<title>x14:e&#45;&gt;c33:w</title>
<path fill="none" stroke="black" stroke-width="3" d="M6871.56,-329.06C6875.15,-329.1 6878.29,-329.15 6881.86,-329.18"/>
<polygon fill="none" stroke="black" stroke-width="3" points="6873.54,-329.07 6867.52,-333.04 6861.54,-329.01 6867.56,-325.04 6873.54,-329.07"/>
<polygon fill="none" stroke="black" stroke-width="3" points="6880.13,-329.18 6886.15,-325.21 6892.13,-329.24 6886.11,-333.21 6880.13,-329.18"/>
</g>
<!-- x15&#45;&gt;c33 -->
<g id="edge16" class="edge">
<title>x15:e&#45;&gt;c33:w</title>
<path fill="none" stroke="black" stroke-width="3" d="M2946.63,-152.93C3023.16,-152.11 3046.74,-144 3129.25,-144 3129.25,-144 3129.25,-144 3754.3,-144 4013.65,-144 4078.24,-127 4337.59,-127 4337.59,-127 4337.59,-127 4497.79,-127 4678,-127 4722.97,-119 4903.17,-119 4903.17,-119 4903.17,-119 5019.67,-119 5197.73,-119 5241.5,-100.66 5418.68,-83 5618.45,-63.09 5666.97,-34 5867.74,-34 5867.74,-34 5867.74,-34 6759.54,-34 6889.46,-34 6769.14,-286.56 6881.96,-303.82"/>
<polygon fill="none" stroke="black" stroke-width="3" points="2948.58,-152.92 2942.6,-156.95 2936.58,-152.99 2942.56,-148.95 2948.58,-152.92"/>
<polygon fill="none" stroke="black" stroke-width="3" points="6880.17,-303.69 6886.44,-300.13 6892.14,-304.56 6885.87,-308.11 6880.17,-303.69"/>
</g>
<!-- x16&#45;&gt;n18 -->
<g id="edge69" class="edge">
<title>x16:e&#45;&gt;n18:w</title>
<path fill="none" stroke="black" stroke-width="3" d="M7088.84,-355.25C7096.96,-355.25 7093.51,-367.69 7087.84,-373.5 7007.1,-456.21 6944.17,-394 6828.59,-394 5981.49,-394 5981.49,-394 5981.49,-394 5916.93,-394 5899.6,-392.6 5837.49,-375 5697.18,-335.24 5668.72,-305.37 5672.36,-293.54"/>
<polygon fill="black" stroke="black" stroke-width="3" points="5671.38,-298.08 5678.45,-290.19 5668,-291.95 5671.38,-298.08"/>
</g>
<!-- c34 -->
<g id="node33" class="node">
<title>c34</title>
<polygon fill="none" stroke="black" points="5330.93,-275.5 5330.93,-324.5 5418.68,-324.5 5418.68,-275.5 5330.93,-275.5"/>
<text text-anchor="middle" x="5343.8" y="-307.2" font-family="Times,serif" font-size="14.00">A</text>
<polyline fill="none" stroke="black" points="5330.93,-300 5356.68,-300"/>
<text text-anchor="middle" x="5343.8" y="-282.7" font-family="Times,serif" font-size="14.00">B</text>
<polyline fill="none" stroke="black" points="5356.68,-275.5 5356.68,-324.5"/>
<text text-anchor="middle" x="5374.8" y="-303.2" font-family="Times,serif" font-size="14.00">$55</text>
<text text-anchor="middle" x="5374.8" y="-286.7" font-family="Times,serif" font-size="14.00">$eq</text>
<polyline fill="none" stroke="black" points="5392.93,-275.5 5392.93,-324.5"/>
<text text-anchor="middle" x="5405.8" y="-295.2" font-family="Times,serif" font-size="14.00">Y</text>
</g>
<!-- c34&#45;&gt;c31 -->
<g id="edge109" class="edge">
<title>c34:e&#45;&gt;c31:w</title>
<path fill="none" stroke="black" d="M5418.68,-300.25C5430.05,-300.25 5435.36,-300.25 5443.23,-300.25"/>
<polygon fill="black" stroke="black" points="5443.16,-303.75 5453.16,-300.25 5443.16,-296.75 5443.16,-303.75"/>
</g>
<!-- x17&#45;&gt;c34 -->
<g id="edge18" class="edge">
<title>x17:e&#45;&gt;c34:w</title>
<path fill="none" stroke="black" stroke-width="3" d="M5306.8,-381.61C5319.31,-368.58 5306.63,-330.26 5318.81,-316.9"/>
<polygon fill="none" stroke="black" stroke-width="3" points="5308.72,-380.9 5304.48,-386.73 5297.46,-385.06 5301.7,-379.23 5308.72,-380.9"/>
<polygon fill="none" stroke="black" stroke-width="3" points="5317.2,-317.52 5321.37,-311.64 5328.4,-313.22 5324.23,-319.1 5317.2,-317.52"/>
</g>
<!-- x18&#45;&gt;c34 -->
<g id="edge19" class="edge">
<title>x18:e&#45;&gt;c34:w</title>
<path fill="none" stroke="black" stroke-width="3" d="M4822.13,-288C4904.29,-288 4929.5,-288 5017.67,-288 5017.67,-288 5017.67,-288 5142.18,-288 5221.64,-288 5244.65,-287.78 5318.16,-287.75"/>
<polygon fill="none" stroke="black" stroke-width="3" points="4824,-288 4818,-292 4812,-288 4818,-284 4824,-288"/>
<polygon fill="none" stroke="black" stroke-width="3" points="5316.22,-287.75 5322.22,-283.75 5328.22,-287.75 5322.22,-291.75 5316.22,-287.75"/>
</g>
<!-- c35&#45;&gt;c40 -->
<g id="edge43" class="edge">
<title>c35:e&#45;&gt;c40:w</title>
<path fill="none" stroke="black" d="M557.59,-265.25C569.95,-265.25 574.37,-258.39 582.39,-254.63"/>
<polygon fill="black" stroke="black" points="583.06,-258.07 592.11,-252.57 581.6,-251.22 583.06,-258.07"/>
</g>
<!-- x19 -->
<g id="node37" class="node">
<title>x19</title>
<path fill="none" stroke="black" d="M384.09,-278.5C384.09,-278.5 422.59,-278.5 422.59,-278.5 428.59,-278.5 434.59,-284.5 434.59,-290.5 434.59,-290.5 434.59,-413.5 434.59,-413.5 434.59,-419.5 428.59,-425.5 422.59,-425.5 422.59,-425.5 384.09,-425.5 384.09,-425.5 378.09,-425.5 372.09,-419.5 372.09,-413.5 372.09,-413.5 372.09,-290.5 372.09,-290.5 372.09,-284.5 378.09,-278.5 384.09,-278.5"/>
<text text-anchor="middle" x="403.34" y="-408.2" font-family="Times,serif" font-size="14.00">7:7 &#45; 7:7</text>
<polyline fill="none" stroke="black" points="372.09,-401 434.59,-401"/>
<text text-anchor="middle" x="403.34" y="-383.7" font-family="Times,serif" font-size="14.00">0 &#45;&gt; 6:6</text>
<polyline fill="none" stroke="black" points="372.09,-376.5 434.59,-376.5"/>
<text text-anchor="middle" x="403.34" y="-359.2" font-family="Times,serif" font-size="14.00">5:5 &#45; 5:5</text>
<polyline fill="none" stroke="black" points="372.09,-352 434.59,-352"/>
<text text-anchor="middle" x="403.34" y="-334.7" font-family="Times,serif" font-size="14.00">0 &#45;&gt; 4:4</text>
<polyline fill="none" stroke="black" points="372.09,-327.5 434.59,-327.5"/>
<text text-anchor="middle" x="403.34" y="-310.2" font-family="Times,serif" font-size="14.00">3:2 &#45; 3:2</text>
<polyline fill="none" stroke="black" points="372.09,-303 434.59,-303"/>
<text text-anchor="middle" x="403.34" y="-285.7" font-family="Times,serif" font-size="14.00">0 &#45;&gt; 1:0</text>
</g>
<!-- x19&#45;&gt;c35 -->
<g id="edge20" class="edge">
<title>x19:e&#45;&gt;c35:w</title>
<path fill="none" stroke="black" stroke-width="3" d="M446.57,-347.55C459.27,-334.22 445.87,-294.76 458.73,-281.59"/>
<polygon fill="none" stroke="black" stroke-width="3" points="448.37,-346.88 444.14,-352.72 437.13,-351.06 441.36,-345.22 448.37,-346.88"/>
<polygon fill="none" stroke="black" stroke-width="3" points="456.78,-282.3 461.04,-276.48 468.05,-278.18 463.79,-283.99 456.78,-282.3"/>
</g>
<!-- x20 -->
<g id="node39" class="node">
<title>x20</title>
<path fill="none" stroke="black" d="M869.2,-208C869.2,-208 907.7,-208 907.7,-208 913.7,-208 919.7,-214 919.7,-220 919.7,-220 919.7,-232 919.7,-232 919.7,-238 913.7,-244 907.7,-244 907.7,-244 869.2,-244 869.2,-244 863.2,-244 857.2,-238 857.2,-232 857.2,-232 857.2,-220 857.2,-220 857.2,-214 863.2,-208 869.2,-208"/>
<text text-anchor="middle" x="888.45" y="-221.2" font-family="Times,serif" font-size="14.00">0:0 &#45; 0:0</text>
</g>
<!-- c36&#45;&gt;x20 -->
<g id="edge21" class="edge">
<title>c36:e&#45;&gt;x20:w</title>
<path fill="none" stroke="black" d="M828.31,-227.82C833.99,-227.42 838.5,-226.83 844.18,-226.43"/>
<polygon fill="none" stroke="black" points="828.16,-227.82 822.3,-232.02 816.17,-228.22 822.03,-224.02 828.16,-227.82"/>
<polygon fill="none" stroke="black" points="844.3,-226.43 850.17,-222.23 856.3,-226.03 850.43,-230.23 844.3,-226.43"/>
</g>
<!-- n11 -->
<g id="node79" class="node">
<title>n11</title>
<ellipse fill="black" stroke="black" cx="957.5" cy="-168" rx="1.8" ry="1.8"/>
</g>
<!-- x20&#45;&gt;n11 -->
<g id="edge44" class="edge">
<title>x20:e&#45;&gt;n11:w</title>
<path fill="none" stroke="black" d="M919.7,-226.25C945.38,-226.25 931.69,-184.78 945.06,-171.82"/>
<polygon fill="black" stroke="black" points="946.05,-175.19 954.27,-168.51 943.68,-168.6 946.05,-175.19"/>
</g>
<!-- c37&#45;&gt;n19 -->
<g id="edge73" class="edge">
<title>c37:e&#45;&gt;n19:w</title>
<path fill="none" stroke="black" d="M1178.55,-144.25C1189.92,-144.25 1195.23,-144.12 1203.1,-144.05"/>
<polygon fill="black" stroke="black" points="1203.05,-147.55 1213.04,-144.01 1203.02,-140.55 1203.05,-147.55"/>
</g>
<!-- x21 -->
<g id="node41" class="node">
<title>x21</title>
<path fill="none" stroke="black" d="M1007.3,-150C1007.3,-150 1045.8,-150 1045.8,-150 1051.8,-150 1057.8,-156 1057.8,-162 1057.8,-162 1057.8,-174 1057.8,-174 1057.8,-180 1051.8,-186 1045.8,-186 1045.8,-186 1007.3,-186 1007.3,-186 1001.3,-186 995.3,-180 995.3,-174 995.3,-174 995.3,-162 995.3,-162 995.3,-156 1001.3,-150 1007.3,-150"/>
<text text-anchor="middle" x="1026.55" y="-163.2" font-family="Times,serif" font-size="14.00">0:0 &#45; 0:0</text>
</g>
<!-- x21&#45;&gt;c37 -->
<g id="edge22" class="edge">
<title>x21:e&#45;&gt;c37:w</title>
<path fill="none" stroke="black" d="M1070.22,-165.27C1074.09,-163.43 1077.24,-161 1081.07,-159.12"/>
<polygon fill="none" stroke="black" points="1070.4,-165.23 1065.4,-170.43 1058.68,-167.81 1063.68,-162.61 1070.4,-165.23"/>
<polygon fill="none" stroke="black" points="1081.21,-159.09 1086.19,-153.87 1092.92,-156.45 1087.95,-161.67 1081.21,-159.09"/>
</g>
<!-- v22 -->
<g id="node42" class="node">
<title>v22</title>
<ellipse fill="none" stroke="black" cx="4657.08" cy="-509" rx="40.09" ry="18"/>
<text text-anchor="middle" x="4657.08" y="-503.95" font-family="Times,serif" font-size="14.00">5&#39;00000</text>
</g>
<!-- c38 -->
<g id="node43" class="node">
<title>c38</title>
<polygon fill="none" stroke="black" points="4733.17,-435.5 4733.17,-484.5 4820.92,-484.5 4820.92,-435.5 4733.17,-435.5"/>
<text text-anchor="middle" x="4746.05" y="-467.2" font-family="Times,serif" font-size="14.00">A</text>
<polyline fill="none" stroke="black" points="4733.17,-460 4758.92,-460"/>
<text text-anchor="middle" x="4746.05" y="-442.7" font-family="Times,serif" font-size="14.00">B</text>
<polyline fill="none" stroke="black" points="4758.92,-435.5 4758.92,-484.5"/>
<text text-anchor="middle" x="4777.05" y="-463.2" font-family="Times,serif" font-size="14.00">$40</text>
<text text-anchor="middle" x="4777.05" y="-446.7" font-family="Times,serif" font-size="14.00">$lt</text>
<polyline fill="none" stroke="black" points="4795.17,-435.5 4795.17,-484.5"/>
<text text-anchor="middle" x="4808.05" y="-455.2" font-family="Times,serif" font-size="14.00">Y</text>
</g>
<!-- v22&#45;&gt;c38 -->
<g id="edge110" class="edge">
<title>v22:e&#45;&gt;c38:w</title>
<path fill="none" stroke="black" stroke-width="3" d="M4697.17,-509C4715.39,-509 4712.92,-485.66 4722.73,-476.18"/>
<polygon fill="black" stroke="black" stroke-width="3" points="4720.8,-480.65 4728.93,-473.85 4718.33,-474.1 4720.8,-480.65"/>
</g>
<!-- c38&#45;&gt;c30 -->
<g id="edge47" class="edge">
<title>c38:e&#45;&gt;c30:w</title>
<path fill="none" stroke="black" d="M4820.92,-460.25C4840.44,-460.25 4836.16,-433.7 4846.37,-423.33"/>
<polygon fill="black" stroke="black" points="4847.45,-426.67 4855.51,-419.8 4844.92,-420.14 4847.45,-426.67"/>
</g>
<!-- x23&#45;&gt;c38 -->
<g id="edge23" class="edge">
<title>x23:e&#45;&gt;c38:w</title>
<path fill="none" stroke="black" stroke-width="3" d="M4702.32,-447.96C4708.8,-447.91 4713.77,-447.84 4720.26,-447.79"/>
<polygon fill="none" stroke="black" stroke-width="3" points="4704.04,-447.95 4698.05,-451.97 4692.04,-447.99 4698.02,-443.97 4704.04,-447.95"/>
<polygon fill="none" stroke="black" stroke-width="3" points="4718.47,-447.8 4724.46,-443.78 4730.47,-447.76 4724.48,-451.78 4718.47,-447.8"/>
</g>
<!-- v25 -->
<g id="node45" class="node">
<title>v25</title>
<ellipse fill="none" stroke="black" cx="6353.41" cy="-174" rx="136.82" ry="18"/>
<text text-anchor="middle" x="6353.41" y="-168.95" font-family="Times,serif" font-size="14.00">25&#39;1111111111111111111111111</text>
</g>
<!-- c39 -->
<g id="node46" class="node">
<title>c39</title>
<polygon fill="none" stroke="black" points="6526.24,-198.5 6526.24,-247.5 6622.24,-247.5 6622.24,-198.5 6526.24,-198.5"/>
<text text-anchor="middle" x="6539.11" y="-230.2" font-family="Times,serif" font-size="14.00">A</text>
<polyline fill="none" stroke="black" points="6526.24,-223 6551.99,-223"/>
<text text-anchor="middle" x="6539.11" y="-205.7" font-family="Times,serif" font-size="14.00">B</text>
<polyline fill="none" stroke="black" points="6551.99,-198.5 6551.99,-247.5"/>
<text text-anchor="middle" x="6574.24" y="-226.2" font-family="Times,serif" font-size="14.00">$63</text>
<text text-anchor="middle" x="6574.24" y="-209.7" font-family="Times,serif" font-size="14.00">$mul</text>
<polyline fill="none" stroke="black" points="6596.49,-198.5 6596.49,-247.5"/>
<text text-anchor="middle" x="6609.36" y="-218.2" font-family="Times,serif" font-size="14.00">Y</text>
</g>
<!-- v25&#45;&gt;c39 -->
<g id="edge111" class="edge">
<title>v25:e&#45;&gt;c39:w</title>
<path fill="none" stroke="black" stroke-width="3" d="M6490.24,-174C6508.46,-174 6505.98,-197.34 6515.79,-206.82"/>
<polygon fill="black" stroke="black" stroke-width="3" points="6511.39,-208.9 6521.99,-209.15 6513.86,-202.35 6511.39,-208.9"/>
</g>
<!-- x26 -->
<g id="node48" class="node">
<title>x26</title>
<path fill="none" stroke="black" d="M6670.24,-248.5C6670.24,-248.5 6708.74,-248.5 6708.74,-248.5 6714.74,-248.5 6720.74,-254.5 6720.74,-260.5 6720.74,-260.5 6720.74,-285.5 6720.74,-285.5 6720.74,-291.5 6714.74,-297.5 6708.74,-297.5 6708.74,-297.5 6670.24,-297.5 6670.24,-297.5 6664.24,-297.5 6658.24,-291.5 6658.24,-285.5 6658.24,-285.5 6658.24,-260.5 6658.24,-260.5 6658.24,-254.5 6664.24,-248.5 6670.24,-248.5"/>
<text text-anchor="middle" x="6689.49" y="-280.2" font-family="Times,serif" font-size="14.00">3:3 &#45; 4:4</text>
<polyline fill="none" stroke="black" points="6658.24,-273 6720.74,-273"/>
<text text-anchor="middle" x="6689.49" y="-255.7" font-family="Times,serif" font-size="14.00">2:0 &#45; 3:1</text>
</g>
<!-- c39&#45;&gt;x26 -->
<g id="edge25" class="edge">
<title>c39:e&#45;&gt;x26:w</title>
<path fill="none" stroke="black" stroke-width="3" d="M6633.96,-228.57C6641.31,-238.1 6639.14,-257.96 6646.43,-267.56"/>
<polygon fill="none" stroke="black" stroke-width="3" points="6635.62,-229.33 6628.51,-230.49 6624.7,-224.37 6631.81,-223.21 6635.62,-229.33"/>
<polygon fill="none" stroke="black" stroke-width="3" points="6644.88,-266.85 6652,-265.73 6655.78,-271.87 6648.66,-272.99 6644.88,-266.85"/>
</g>
<!-- x24 -->
<g id="node47" class="node">
<title>x24</title>
<path fill="none" stroke="black" d="M6312.04,-210.5C6312.04,-210.5 6394.79,-210.5 6394.79,-210.5 6400.79,-210.5 6406.79,-216.5 6406.79,-222.5 6406.79,-222.5 6406.79,-247.5 6406.79,-247.5 6406.79,-253.5 6400.79,-259.5 6394.79,-259.5 6394.79,-259.5 6312.04,-259.5 6312.04,-259.5 6306.04,-259.5 6300.04,-253.5 6300.04,-247.5 6300.04,-247.5 6300.04,-222.5 6300.04,-222.5 6300.04,-216.5 6306.04,-210.5 6312.04,-210.5"/>
<text text-anchor="middle" x="6353.41" y="-242.2" font-family="Times,serif" font-size="14.00">22x 25:25 &#45; 25:4</text>
<polyline fill="none" stroke="black" points="6300.04,-235 6406.79,-235"/>
<text text-anchor="middle" x="6353.41" y="-217.7" font-family="Times,serif" font-size="14.00">3:0 &#45; 3:0</text>
</g>
<!-- x24&#45;&gt;c39 -->
<g id="edge24" class="edge">
<title>x24:e&#45;&gt;c39:w</title>
<path fill="none" stroke="black" stroke-width="3" d="M6420.81,-235.01C6459.09,-235.04 6475.14,-235.21 6513.55,-235.24"/>
<polygon fill="none" stroke="black" stroke-width="3" points="6422.49,-235.01 6416.49,-239 6410.49,-235 6416.49,-231 6422.49,-235.01"/>
<polygon fill="none" stroke="black" stroke-width="3" points="6511.53,-235.24 6517.53,-231.25 6523.53,-235.25 6517.53,-239.25 6511.53,-235.24"/>
</g>
<!-- x26&#45;&gt;n18 -->
<g id="edge70" class="edge">
<title>x26:e&#45;&gt;n18:w</title>
<path fill="none" stroke="black" d="M6721.74,-285.25C6727.42,-285.25 6724.91,-294.14 6720.74,-298 6700.34,-316.86 6686.01,-298.46 6658.24,-298 6523.15,-295.78 6489.52,-288 6354.41,-288 5981.49,-288 5981.49,-288 5981.49,-288 5901.09,-288 5881.79,-302 5801.49,-306 5749.08,-308.61 5721.55,-342.06 5683.43,-306 5681.43,-304.11 5679.74,-301.39 5678.71,-298.64"/>
<polygon fill="black" stroke="black" points="5681.93,-300.02 5681.93,-289.43 5675.32,-297.71 5681.93,-300.02"/>
</g>
<!-- n13 -->
<g id="node80" class="node">
<title>n13</title>
<ellipse fill="black" stroke="black" cx="6758.54" cy="-329" rx="1.8" ry="1.8"/>
</g>
<!-- x26&#45;&gt;n13 -->
<g id="edge48" class="edge">
<title>x26:e&#45;&gt;n13:w</title>
<path fill="none" stroke="black" stroke-width="3" d="M6720.74,-260.75C6750.21,-260.75 6730.28,-311.15 6745.86,-325.33"/>
<polygon fill="black" stroke="black" stroke-width="3" points="6741.84,-327.67 6752.43,-327.55 6744.08,-321.03 6741.84,-327.67"/>
</g>
<!-- c40&#45;&gt;c36 -->
<g id="edge52" class="edge">
<title>c40:e&#45;&gt;c36:w</title>
<path fill="none" stroke="black" stroke-width="3" d="M686.59,-240.25C700.71,-240.25 706.81,-240.25 717.04,-240.25"/>
<polygon fill="black" stroke="black" stroke-width="3" points="713.98,-243.75 723.98,-240.25 713.98,-236.75 713.98,-243.75"/>
</g>
<!-- v27 -->
<g id="node50" class="node">
<title>v27</title>
<ellipse fill="none" stroke="black" cx="1269.8" cy="-209" rx="27" ry="18"/>
<text text-anchor="middle" x="1269.8" y="-203.95" font-family="Times,serif" font-size="14.00">1&#39;0</text>
</g>
<!-- v27&#45;&gt;c41 -->
<g id="edge112" class="edge">
<title>v27:e&#45;&gt;c41:w</title>
<path fill="none" stroke="black" d="M1298.05,-209C1321.79,-209 1330.43,-209.18 1349.57,-209.23"/>
<polygon fill="black" stroke="black" points="1349.53,-212.73 1359.54,-209.25 1349.54,-205.73 1349.53,-212.73"/>
</g>
<!-- x28 -->
<g id="node52" class="node">
<title>x28</title>
<path fill="none" stroke="black" d="M1502.05,-172.5C1502.05,-172.5 1540.55,-172.5 1540.55,-172.5 1546.55,-172.5 1552.55,-178.5 1552.55,-184.5 1552.55,-184.5 1552.55,-209.5 1552.55,-209.5 1552.55,-215.5 1546.55,-221.5 1540.55,-221.5 1540.55,-221.5 1502.05,-221.5 1502.05,-221.5 1496.05,-221.5 1490.05,-215.5 1490.05,-209.5 1490.05,-209.5 1490.05,-184.5 1490.05,-184.5 1490.05,-178.5 1496.05,-172.5 1502.05,-172.5"/>
<text text-anchor="middle" x="1521.3" y="-204.2" font-family="Times,serif" font-size="14.00">1:1 &#45; 0:0</text>
<polyline fill="none" stroke="black" points="1490.05,-197 1552.55,-197"/>
<text text-anchor="middle" x="1521.3" y="-179.7" font-family="Times,serif" font-size="14.00">0:0 &#45; 0:0</text>
</g>
<!-- c41&#45;&gt;x28 -->
<g id="edge26" class="edge">
<title>c41:e&#45;&gt;x28:w</title>
<path fill="none" stroke="black" stroke-width="3" d="M1466.77,-197.19C1470.37,-197.15 1473.5,-197.1 1477.08,-197.07"/>
<polygon fill="none" stroke="black" stroke-width="3" points="1468.75,-197.18 1462.77,-201.21 1456.75,-197.24 1462.73,-193.21 1468.75,-197.18"/>
<polygon fill="none" stroke="black" stroke-width="3" points="1475.35,-197.07 1481.33,-193.04 1487.35,-197.01 1481.37,-201.04 1475.35,-197.07"/>
</g>
<!-- n15 -->
<g id="node81" class="node">
<title>n15</title>
<ellipse fill="black" stroke="black" cx="1871.2" cy="-219" rx="1.8" ry="1.8"/>
</g>
<!-- x28&#45;&gt;n15 -->
<g id="edge53" class="edge">
<title>x28:e&#45;&gt;n15:w</title>
<path fill="none" stroke="black" d="M1552.55,-184.75C1677.61,-184.75 1712.27,-170.91 1833.4,-202 1845.99,-205.23 1849.96,-212.88 1858.19,-216.72"/>
<polygon fill="black" stroke="black" points="1857.42,-220.14 1867.92,-218.7 1858.81,-213.28 1857.42,-220.14"/>
</g>
<!-- n6 -->
<g id="node84" class="node">
<title>n6</title>
<ellipse fill="black" stroke="black" cx="1590.35" cy="-229" rx="1.8" ry="1.8"/>
</g>
<!-- x28&#45;&gt;n6 -->
<g id="edge102" class="edge">
<title>x28:e&#45;&gt;n6:w</title>
<path fill="none" stroke="black" d="M1552.55,-209.25C1566.09,-209.25 1569.31,-220.13 1577.53,-225.74"/>
<polygon fill="black" stroke="black" points="1576.52,-229.09 1587.1,-228.57 1578.5,-222.38 1576.52,-229.09"/>
</g>
<!-- v29 -->
<g id="node53" class="node">
<title>v29</title>
<ellipse fill="none" stroke="black" cx="2437.25" cy="-637" rx="49.3" ry="18"/>
<text text-anchor="middle" x="2437.25" y="-631.95" font-family="Times,serif" font-size="14.00">7&#39;0000000</text>
</g>
<!-- v29&#45;&gt;c42 -->
<g id="edge113" class="edge">
<title>v29:e&#45;&gt;c42:w</title>
<path fill="none" stroke="black" stroke-width="3" d="M2488.02,-637C2501.51,-637 2507.42,-637.14 2517.11,-637.21"/>
<polygon fill="black" stroke="black" stroke-width="3" points="2513.95,-640.7 2523.96,-637.23 2513.97,-633.7 2513.95,-640.7"/>
</g>
<!-- x30 -->
<g id="node55" class="node">
<title>x30</title>
<path fill="none" stroke="black" d="M2669.75,-604C2669.75,-604 2708.25,-604 2708.25,-604 2714.25,-604 2720.25,-610 2720.25,-616 2720.25,-616 2720.25,-628 2720.25,-628 2720.25,-634 2714.25,-640 2708.25,-640 2708.25,-640 2669.75,-640 2669.75,-640 2663.75,-640 2657.75,-634 2657.75,-628 2657.75,-628 2657.75,-616 2657.75,-616 2657.75,-610 2663.75,-604 2669.75,-604"/>
<text text-anchor="middle" x="2689" y="-617.2" font-family="Times,serif" font-size="14.00">6:0 &#45; 6:0</text>
</g>
<!-- c42&#45;&gt;x30 -->
<g id="edge27" class="edge">
<title>c42:e&#45;&gt;x30:w</title>
<path fill="none" stroke="black" stroke-width="3" d="M2634.49,-624.43C2638.08,-623.95 2641.2,-623.34 2644.76,-622.85"/>
<polygon fill="none" stroke="black" stroke-width="3" points="2636.43,-624.31 2630.69,-628.68 2624.45,-625.08 2630.18,-620.7 2636.43,-624.31"/>
<polygon fill="none" stroke="black" stroke-width="3" points="2643.08,-622.96 2648.8,-618.58 2655.05,-622.18 2649.33,-626.56 2643.08,-622.96"/>
</g>
<!-- x30&#45;&gt;x0 -->
<g id="edge108" class="edge">
<title>x30:e&#45;&gt;x0:w</title>
<path fill="none" stroke="black" stroke-width="3" d="M2720.25,-622.25C2731.64,-622.25 2736.93,-621.24 2744.8,-620.65"/>
<polygon fill="black" stroke="black" stroke-width="3" points="2741.84,-624.26 2751.71,-620.41 2741.6,-617.27 2741.84,-624.26"/>
</g>
<!-- x32 -->
<g id="node58" class="node">
<title>x32</title>
<path fill="none" stroke="black" d="M6076.99,-137.5C6076.99,-137.5 6128.99,-137.5 6128.99,-137.5 6134.99,-137.5 6140.99,-143.5 6140.99,-149.5 6140.99,-149.5 6140.99,-174.5 6140.99,-174.5 6140.99,-180.5 6134.99,-186.5 6128.99,-186.5 6128.99,-186.5 6076.99,-186.5 6076.99,-186.5 6070.99,-186.5 6064.99,-180.5 6064.99,-174.5 6064.99,-174.5 6064.99,-149.5 6064.99,-149.5 6064.99,-143.5 6070.99,-137.5 6076.99,-137.5"/>
<text text-anchor="middle" x="6102.99" y="-169.2" font-family="Times,serif" font-size="14.00">4:4 &#45; 25:25</text>
<polyline fill="none" stroke="black" points="6064.99,-162 6140.99,-162"/>
<text text-anchor="middle" x="6102.99" y="-144.7" font-family="Times,serif" font-size="14.00">3:0 &#45; 3:0</text>
</g>
<!-- c43&#45;&gt;x32 -->
<g id="edge29" class="edge">
<title>c43:e&#45;&gt;x32:w</title>
<path fill="none" stroke="black" stroke-width="3" d="M6041.71,-162.19C6045.31,-162.15 6048.44,-162.1 6052.02,-162.07"/>
<polygon fill="none" stroke="black" stroke-width="3" points="6043.69,-162.18 6037.71,-166.21 6031.69,-162.24 6037.67,-158.21 6043.69,-162.18"/>
<polygon fill="none" stroke="black" stroke-width="3" points="6050.28,-162.07 6056.26,-158.04 6062.28,-162.01 6056.3,-166.04 6050.28,-162.07"/>
</g>
<!-- x31&#45;&gt;c43 -->
<g id="edge28" class="edge">
<title>x31:e&#45;&gt;c43:w</title>
<path fill="none" stroke="black" stroke-width="3" d="M5911.66,-179.8C5917.36,-173.06 5918.7,-161.38 5924.5,-154.74"/>
<polygon fill="none" stroke="black" stroke-width="3" points="5913.42,-179.01 5909.57,-185.11 5902.46,-183.9 5906.31,-177.8 5913.42,-179.01"/>
<polygon fill="none" stroke="black" stroke-width="3" points="5922.5,-155.61 5926.41,-149.55 5933.51,-150.83 5929.6,-156.89 5922.5,-155.61"/>
</g>
<!-- n1 -->
<g id="node78" class="node">
<title>n1</title>
<ellipse fill="black" stroke="black" cx="6178.79" cy="-162" rx="1.8" ry="1.8"/>
</g>
<!-- x32&#45;&gt;n1 -->
<g id="edge37" class="edge">
<title>x32:e&#45;&gt;n1:w</title>
<path fill="none" stroke="black" stroke-width="3" d="M6140.99,-149.75C6153.27,-149.75 6157.79,-156.22 6165.82,-159.75"/>
<polygon fill="black" stroke="black" stroke-width="3" points="6162.04,-162.56 6172.54,-161.1 6163.42,-155.7 6162.04,-162.56"/>
</g>
<!-- x32&#45;&gt;n1 -->
<g id="edge38" class="edge">
<title>x32:e&#45;&gt;n1:w</title>
<path fill="none" stroke="black" d="M6140.99,-174.25C6153.27,-174.25 6157.79,-167.78 6165.82,-164.25"/>
<polygon fill="black" stroke="black" points="6166.39,-167.7 6175.5,-162.3 6165.01,-160.84 6166.39,-167.7"/>
</g>
<!-- c44 -->
<g id="node59" class="node">
<title>c44</title>
<polygon fill="none" stroke="black" points="2253.75,-204.5 2253.75,-253.5 2346,-253.5 2346,-204.5 2253.75,-204.5"/>
<text text-anchor="middle" x="2266.63" y="-236.2" font-family="Times,serif" font-size="14.00">A</text>
<polyline fill="none" stroke="black" points="2253.75,-229 2279.5,-229"/>
<text text-anchor="middle" x="2266.63" y="-211.7" font-family="Times,serif" font-size="14.00">B</text>
<polyline fill="none" stroke="black" points="2279.5,-204.5 2279.5,-253.5"/>
<text text-anchor="middle" x="2299.88" y="-232.2" font-family="Times,serif" font-size="14.00">$16</text>
<text text-anchor="middle" x="2299.88" y="-215.7" font-family="Times,serif" font-size="14.00">$xor</text>
<polyline fill="none" stroke="black" points="2320.25,-204.5 2320.25,-253.5"/>
<text text-anchor="middle" x="2333.13" y="-224.2" font-family="Times,serif" font-size="14.00">Y</text>
</g>
<!-- c44&#45;&gt;n20 -->
<g id="edge83" class="edge">
<title>c44:e&#45;&gt;n20:w</title>
<path fill="none" stroke="black" stroke-width="3" d="M2346,-229.25C2377.92,-229.25 2353.62,-285.71 2371.48,-299.83"/>
<polygon fill="black" stroke="black" stroke-width="3" points="2367.07,-302.16 2377.65,-301.69 2369.09,-295.46 2367.07,-302.16"/>
</g>
<!-- x33&#45;&gt;c44 -->
<g id="edge30" class="edge">
<title>x33:e&#45;&gt;c44:w</title>
<path fill="none" stroke="black" stroke-width="3" d="M2230.47,-241.06C2234.07,-241.1 2237.2,-241.15 2240.78,-241.18"/>
<polygon fill="none" stroke="black" stroke-width="3" points="2232.45,-241.07 2226.43,-245.04 2220.45,-241.01 2226.47,-237.04 2232.45,-241.07"/>
<polygon fill="none" stroke="black" stroke-width="3" points="2239.05,-241.18 2245.07,-237.21 2251.05,-241.24 2245.03,-245.21 2239.05,-241.18"/>
</g>
<!-- x34&#45;&gt;c44 -->
<g id="edge31" class="edge">
<title>x34:e&#45;&gt;c44:w</title>
<path fill="none" stroke="black" stroke-width="3" d="M348.94,-42.88C417.34,-41.57 438.68,-30 513.09,-30 513.09,-30 513.09,-30 1872.2,-30 1916.27,-30 2169.47,-192.77 2241.31,-214.39"/>
<polygon fill="none" stroke="black" stroke-width="3" points="350.79,-42.86 344.83,-46.92 338.79,-42.97 344.76,-38.92 350.79,-42.86"/>
<polygon fill="none" stroke="black" stroke-width="3" points="2239.3,-214.01 2245.94,-211.2 2251.09,-216.25 2244.45,-219.06 2239.3,-214.01"/>
</g>
<!-- v35 -->
<g id="node62" class="node">
<title>v35</title>
<ellipse fill="none" stroke="black" cx="771.9" cy="-167" rx="49.3" ry="18"/>
<text text-anchor="middle" x="771.9" y="-161.95" font-family="Times,serif" font-size="14.00">7&#39;0000000</text>
</g>
<!-- x36 -->
<g id="node63" class="node">
<title>x36</title>
<path fill="none" stroke="black" d="M869.2,-150C869.2,-150 907.7,-150 907.7,-150 913.7,-150 919.7,-156 919.7,-162 919.7,-162 919.7,-174 919.7,-174 919.7,-180 913.7,-186 907.7,-186 907.7,-186 869.2,-186 869.2,-186 863.2,-186 857.2,-180 857.2,-174 857.2,-174 857.2,-162 857.2,-162 857.2,-156 863.2,-150 869.2,-150"/>
<text text-anchor="middle" x="888.45" y="-163.2" font-family="Times,serif" font-size="14.00">6:0 &#45; 7:1</text>
</g>
<!-- v35&#45;&gt;x36 -->
<g id="edge114" class="edge">
<title>v35:e&#45;&gt;x36:w</title>
<path fill="none" stroke="black" stroke-width="3" d="M821.2,-167C832.58,-167 837.88,-167.51 845.75,-167.8"/>
<polygon fill="black" stroke="black" stroke-width="3" points="842.6,-171.24 852.66,-167.92 842.72,-164.24 842.6,-171.24"/>
</g>
<!-- x36&#45;&gt;n11 -->
<g id="edge45" class="edge">
<title>x36:e&#45;&gt;n11:w</title>
<path fill="none" stroke="black" stroke-width="3" d="M919.7,-168.25C931.07,-168.25 936.38,-168.12 944.25,-168.05"/>
<polygon fill="black" stroke="black" stroke-width="3" points="941.17,-171.56 951.16,-168.02 941.14,-164.56 941.17,-171.56"/>
</g>
<!-- x38 -->
<g id="node65" class="node">
<title>x38</title>
<path fill="none" stroke="black" d="M6670.24,-316.5C6670.24,-316.5 6708.74,-316.5 6708.74,-316.5 6714.74,-316.5 6720.74,-322.5 6720.74,-328.5 6720.74,-328.5 6720.74,-353.5 6720.74,-353.5 6720.74,-359.5 6714.74,-365.5 6708.74,-365.5 6708.74,-365.5 6670.24,-365.5 6670.24,-365.5 6664.24,-365.5 6658.24,-359.5 6658.24,-353.5 6658.24,-353.5 6658.24,-328.5 6658.24,-328.5 6658.24,-322.5 6664.24,-316.5 6670.24,-316.5"/>
<text text-anchor="middle" x="6689.49" y="-348.2" font-family="Times,serif" font-size="14.00">1:1 &#45; 4:4</text>
<polyline fill="none" stroke="black" points="6658.24,-341 6720.74,-341"/>
<text text-anchor="middle" x="6689.49" y="-323.7" font-family="Times,serif" font-size="14.00">0:0 &#45; 0:0</text>
</g>
<!-- x37&#45;&gt;x38 -->
<g id="edge32" class="edge">
<title>x37:e&#45;&gt;x38:w</title>
<path fill="none" stroke="black" stroke-width="3" d="M5912.67,-341C5992.12,-341 6016.59,-341 6101.99,-341 6101.99,-341 6101.99,-341 6354.41,-341 6485.09,-341 6520.92,-341 6645.49,-341"/>
<polygon fill="none" stroke="black" stroke-width="3" points="5914.69,-341 5908.69,-345 5902.69,-341 5908.69,-337 5914.69,-341"/>
<polygon fill="none" stroke="black" stroke-width="3" points="6643.53,-341 6649.53,-337 6655.53,-341 6649.53,-345 6643.53,-341"/>
</g>
<!-- x38&#45;&gt;n13 -->
<g id="edge49" class="edge">
<title>x38:e&#45;&gt;n13:w</title>
<path fill="none" stroke="black" d="M6720.74,-328.75C6732.11,-328.75 6737.42,-328.88 6745.29,-328.95"/>
<polygon fill="black" stroke="black" points="6745.21,-332.45 6755.22,-328.99 6745.24,-325.45 6745.21,-332.45"/>
</g>
<!-- x38&#45;&gt;n13 -->
<g id="edge50" class="edge">
<title>x38:e&#45;&gt;n13:w</title>
<path fill="none" stroke="black" d="M6720.74,-353.25C6735.35,-353.25 6737.41,-339.32 6745.95,-332.58"/>
<polygon fill="black" stroke="black" points="6746.91,-335.95 6755.3,-329.48 6744.71,-329.3 6746.91,-335.95"/>
</g>
<!-- x39 -->
<g id="node66" class="node">
<title>x39</title>
<path fill="none" stroke="black" d="M1640.15,-211C1640.15,-211 1709.4,-211 1709.4,-211 1715.4,-211 1721.4,-217 1721.4,-223 1721.4,-223 1721.4,-235 1721.4,-235 1721.4,-241 1715.4,-247 1709.4,-247 1709.4,-247 1640.15,-247 1640.15,-247 1634.15,-247 1628.15,-241 1628.15,-235 1628.15,-235 1628.15,-223 1628.15,-223 1628.15,-217 1634.15,-211 1640.15,-211"/>
<text text-anchor="middle" x="1674.78" y="-224.2" font-family="Times,serif" font-size="14.00">36x 0:0 &#45; 35:0</text>
</g>
<!-- x40 -->
<g id="node67" class="node">
<title>x40</title>
<path fill="none" stroke="black" d="M1769.4,-211C1769.4,-211 1821.4,-211 1821.4,-211 1827.4,-211 1833.4,-217 1833.4,-223 1833.4,-223 1833.4,-235 1833.4,-235 1833.4,-241 1827.4,-247 1821.4,-247 1821.4,-247 1769.4,-247 1769.4,-247 1763.4,-247 1757.4,-241 1757.4,-235 1757.4,-235 1757.4,-223 1757.4,-223 1757.4,-217 1763.4,-211 1769.4,-211"/>
<text text-anchor="middle" x="1795.4" y="-224.2" font-family="Times,serif" font-size="14.00">35:0 &#45; 36:1</text>
</g>
<!-- x39&#45;&gt;x40 -->
<g id="edge33" class="edge">
<title>x39:e&#45;&gt;x40:w</title>
<path fill="none" stroke="black" stroke-width="3" d="M1734.12,-229C1737.72,-229 1740.85,-229 1744.43,-229"/>
<polygon fill="none" stroke="black" stroke-width="3" points="1736.1,-229 1730.1,-233 1724.1,-229 1730.1,-225 1736.1,-229"/>
<polygon fill="none" stroke="black" stroke-width="3" points="1742.7,-229 1748.7,-225 1754.7,-229 1748.7,-233 1742.7,-229"/>
</g>
<!-- x40&#45;&gt;n15 -->
<g id="edge54" class="edge">
<title>x40:e&#45;&gt;n15:w</title>
<path fill="none" stroke="black" stroke-width="3" d="M1833.4,-229.25C1845.49,-229.25 1850.23,-223.84 1858.3,-220.88"/>
<polygon fill="black" stroke="black" stroke-width="3" points="1855.65,-224.88 1864.92,-219.76 1854.48,-217.98 1855.65,-224.88"/>
</g>
<!-- x42 -->
<g id="node69" class="node">
<title>x42</title>
<path fill="none" stroke="black" d="M3550.5,-322C3550.5,-322 3589,-322 3589,-322 3595,-322 3601,-328 3601,-334 3601,-334 3601,-346 3601,-346 3601,-352 3595,-358 3589,-358 3589,-358 3550.5,-358 3550.5,-358 3544.5,-358 3538.5,-352 3538.5,-346 3538.5,-346 3538.5,-334 3538.5,-334 3538.5,-328 3544.5,-322 3550.5,-322"/>
<text text-anchor="middle" x="3569.75" y="-335.2" font-family="Times,serif" font-size="14.00">1:0 &#45; 2:1</text>
</g>
<!-- x41&#45;&gt;x42 -->
<g id="edge34" class="edge">
<title>x41:e&#45;&gt;x42:w</title>
<path fill="none" stroke="black" stroke-width="3" d="M2620.02,-352.79C2689.91,-350.45 2710.57,-329 2786.5,-329 2786.5,-329 2786.5,-329 3344.25,-329 3425.91,-329 3449.15,-338.91 3524.88,-339.92"/>
<polygon fill="none" stroke="black" stroke-width="3" points="2622.08,-352.76 2616.14,-356.86 2610.08,-352.96 2616.01,-348.86 2622.08,-352.76"/>
<polygon fill="none" stroke="black" stroke-width="3" points="3522.8,-339.9 3528.82,-335.94 3534.8,-339.98 3528.77,-343.94 3522.8,-339.9"/>
</g>
<!-- x42&#45;&gt;n7 -->
<g id="edge106" class="edge">
<title>x42:e&#45;&gt;n7:w</title>
<path fill="none" stroke="black" stroke-width="3" d="M3602,-340.25C3664.99,-340.25 3682.58,-355.98 3740.25,-357.82"/>
<polygon fill="black" stroke="black" stroke-width="3" points="3736.91,-361.27 3746.96,-357.93 3737.02,-354.27 3736.91,-361.27"/>
</g>
<!-- v43 -->
<g id="node70" class="node">
<title>v43</title>
<ellipse fill="none" stroke="black" cx="4077.09" cy="-407" rx="187.49" ry="18"/>
<text text-anchor="middle" x="4077.09" y="-401.95" font-family="Times,serif" font-size="14.00">36&#39;00000000000xxxxxxxxxxxxxxxxxxx000000</text>
</g>
<!-- x44 -->
<g id="node71" class="node">
<title>x44</title>
<path fill="none" stroke="black" d="M4312.59,-386C4312.59,-386 4364.59,-386 4364.59,-386 4370.59,-386 4376.59,-392 4376.59,-398 4376.59,-398 4376.59,-410 4376.59,-410 4376.59,-416 4370.59,-422 4364.59,-422 4364.59,-422 4312.59,-422 4312.59,-422 4306.59,-422 4300.59,-416 4300.59,-410 4300.59,-410 4300.59,-398 4300.59,-398 4300.59,-392 4306.59,-386 4312.59,-386"/>
<text text-anchor="middle" x="4338.59" y="-399.2" font-family="Times,serif" font-size="14.00">35:0 &#45; 36:1</text>
</g>
<!-- v43&#45;&gt;x44 -->
<g id="edge115" class="edge">
<title>v43:e&#45;&gt;x44:w</title>
<path fill="none" stroke="black" stroke-width="3" d="M4264.59,-407C4276,-407 4281.27,-405.48 4289.13,-404.61"/>
<polygon fill="black" stroke="black" stroke-width="3" points="4286.25,-408.26 4296.05,-404.24 4285.88,-401.27 4286.25,-408.26"/>
</g>
<!-- x44&#45;&gt;n16 -->
<g id="edge56" class="edge">
<title>x44:e&#45;&gt;n16:w</title>
<path fill="none" stroke="black" stroke-width="3" d="M4376.59,-404.25C4394.93,-404.25 4392.28,-380.6 4402.1,-370.99"/>
<polygon fill="black" stroke="black" stroke-width="3" points="4400.24,-375.44 4408.34,-368.61 4397.75,-368.89 4400.24,-375.44"/>
</g>
<!-- v45 -->
<g id="node72" class="node">
<title>v45</title>
<ellipse fill="none" stroke="black" cx="3130.25" cy="-414" rx="44.7" ry="18"/>
<text text-anchor="middle" x="3130.25" y="-408.95" font-family="Times,serif" font-size="14.00">6&#39;000000</text>
</g>
<!-- x46 -->
<g id="node73" class="node">
<title>x46</title>
<path fill="none" stroke="black" d="M3225.5,-396C3225.5,-396 3264,-396 3264,-396 3270,-396 3276,-402 3276,-408 3276,-408 3276,-420 3276,-420 3276,-426 3270,-432 3264,-432 3264,-432 3225.5,-432 3225.5,-432 3219.5,-432 3213.5,-426 3213.5,-420 3213.5,-420 3213.5,-408 3213.5,-408 3213.5,-402 3219.5,-396 3225.5,-396"/>
<text text-anchor="middle" x="3244.75" y="-409.2" font-family="Times,serif" font-size="14.00">5:0 &#45; 6:1</text>
</g>
<!-- v45&#45;&gt;x46 -->
<g id="edge116" class="edge">
<title>v45:e&#45;&gt;x46:w</title>
<path fill="none" stroke="black" stroke-width="3" d="M3176.37,-414C3188.36,-414 3193.82,-414 3202.23,-414"/>
<polygon fill="black" stroke="black" stroke-width="3" points="3198.96,-417.5 3208.96,-414 3198.96,-410.5 3198.96,-417.5"/>
</g>
<!-- x46&#45;&gt;n4 -->
<g id="edge98" class="edge">
<title>x46:e&#45;&gt;n4:w</title>
<path fill="none" stroke="black" stroke-width="3" d="M3276,-414.25C3300.21,-414.25 3308.96,-414.07 3328.58,-414.01"/>
<polygon fill="black" stroke="black" stroke-width="3" points="3325.44,-417.52 3335.43,-414.01 3325.43,-410.52 3325.44,-417.52"/>
</g>
<!-- x48 -->
<g id="node75" class="node">
<title>x48</title>
<path fill="none" stroke="black" d="M3422.5,-264C3422.5,-264 3474.5,-264 3474.5,-264 3480.5,-264 3486.5,-270 3486.5,-276 3486.5,-276 3486.5,-288 3486.5,-288 3486.5,-294 3480.5,-300 3474.5,-300 3474.5,-300 3422.5,-300 3422.5,-300 3416.5,-300 3410.5,-294 3410.5,-288 3410.5,-288 3410.5,-276 3410.5,-276 3410.5,-270 3416.5,-264 3422.5,-264"/>
<text text-anchor="middle" x="3448.5" y="-277.2" font-family="Times,serif" font-size="14.00">22:0 &#45; 23:1</text>
</g>
<!-- x47&#45;&gt;x48 -->
<g id="edge35" class="edge">
<title>x47:e&#45;&gt;x48:w</title>
<path fill="none" stroke="black" stroke-width="3" d="M2634.47,-291C2697.39,-291 2717.71,-291 2786.5,-291 2786.5,-291 2786.5,-291 3245.75,-291 3314.64,-291 3334.78,-283.06 3397.76,-282.09"/>
<polygon fill="none" stroke="black" stroke-width="3" points="2636.46,-291 2630.46,-295 2624.46,-291 2630.46,-287 2636.46,-291"/>
<polygon fill="none" stroke="black" stroke-width="3" points="3395.8,-282.11 3401.77,-278.07 3407.8,-282.02 3401.83,-286.06 3395.8,-282.11"/>
</g>
<!-- x48&#45;&gt;n21 -->
<g id="edge94" class="edge">
<title>x48:e&#45;&gt;n21:w</title>
<path fill="none" stroke="black" stroke-width="3" d="M3486.5,-282.25C3574.08,-282.25 3595.68,-293 3683.25,-293 3683.25,-293 3683.25,-293 3823.35,-293 4019.64,-293 4068.62,-300.78 4264.59,-312 4314.41,-314.85 4326.82,-316.34 4376.59,-320 4675.9,-342.02 4750.75,-347.2 5049.92,-371 5061.3,-371.91 5066.58,-373.04 5074.45,-373.62"/>
<polygon fill="black" stroke="black" stroke-width="3" points="5071.28,-377.02 5081.39,-373.85 5071.51,-370.02 5071.28,-377.02"/>
</g>
<!-- x49 -->
<g id="node76" class="node">
<title>x49</title>
<path fill="none" stroke="black" d="M6312.04,-63C6312.04,-63 6394.79,-63 6394.79,-63 6400.79,-63 6406.79,-69 6406.79,-75 6406.79,-75 6406.79,-87 6406.79,-87 6406.79,-93 6400.79,-99 6394.79,-99 6394.79,-99 6312.04,-99 6312.04,-99 6306.04,-99 6300.04,-93 6300.04,-87 6300.04,-87 6300.04,-75 6300.04,-75 6300.04,-69 6306.04,-63 6312.04,-63"/>
<text text-anchor="middle" x="6353.41" y="-76.2" font-family="Times,serif" font-size="14.00">21x 25:25 &#45; 20:0</text>
</g>
<!-- x50 -->
<g id="node77" class="node">
<title>x50</title>
<path fill="none" stroke="black" d="M6548.24,-87C6548.24,-87 6600.24,-87 6600.24,-87 6606.24,-87 6612.24,-93 6612.24,-99 6612.24,-99 6612.24,-111 6612.24,-111 6612.24,-117 6606.24,-123 6600.24,-123 6600.24,-123 6548.24,-123 6548.24,-123 6542.24,-123 6536.24,-117 6536.24,-111 6536.24,-111 6536.24,-99 6536.24,-99 6536.24,-93 6542.24,-87 6548.24,-87"/>
<text text-anchor="middle" x="6574.24" y="-100.2" font-family="Times,serif" font-size="14.00">20:0 &#45; 24:4</text>
</g>
<!-- x49&#45;&gt;x50 -->
<g id="edge36" class="edge">
<title>x49:e&#45;&gt;x50:w</title>
<path fill="none" stroke="black" stroke-width="3" d="M6420.81,-81.44C6463.64,-84.41 6479.47,-101.64 6522.37,-104.57"/>
<polygon fill="none" stroke="black" stroke-width="3" points="6422.48,-81.49 6416.35,-85.29 6410.49,-81.09 6416.62,-77.29 6422.48,-81.49"/>
<polygon fill="none" stroke="black" stroke-width="3" points="6520.54,-104.51 6526.67,-100.71 6532.53,-104.91 6526.4,-108.71 6520.54,-104.51"/>
</g>
<!-- x50&#45;&gt;n1 -->
<g id="edge39" class="edge">
<title>x50:e&#45;&gt;n1:w</title>
<path fill="none" stroke="black" stroke-width="3" d="M6613.24,-105.25C6621.36,-105.25 6617.97,-117.74 6612.24,-123.5 6581.17,-154.71 6259.28,-136.19 6216.59,-147 6199.47,-151.33 6197.83,-159.98 6180.59,-163.8 6180.48,-163.82 6180.37,-163.85 6180.27,-163.87"/>
<polygon fill="black" stroke="black" stroke-width="3" points="6190.32,-164.07 6179.73,-163.66 6187.76,-170.59 6190.32,-164.07"/>
</g>
<!-- n1&#45;&gt;x24 -->
<g id="edge40" class="edge">
<title>n1:e&#45;&gt;x24:w</title>
<path fill="none" stroke="black" stroke-width="3" d="M6180.59,-162C6204.18,-162 6196.38,-188.84 6216.59,-201 6245.64,-218.48 6258.36,-222.09 6287.85,-222.66"/>
<polygon fill="black" stroke="black" stroke-width="3" points="6284.47,-226.13 6294.5,-222.71 6284.53,-219.13 6284.47,-226.13"/>
</g>
<!-- n1&#45;&gt;x24 -->
<g id="edge41" class="edge">
<title>n1:e&#45;&gt;x24:w</title>
<path fill="none" stroke="black" stroke-width="3" d="M6180.59,-162C6204.18,-162 6198.07,-186.38 6216.59,-201 6246.34,-224.49 6255.32,-243.25 6287.66,-246.69"/>
<polygon fill="black" stroke="black" stroke-width="3" points="6284.34,-250.02 6294.5,-247.02 6284.69,-243.03 6284.34,-250.02"/>
</g>
<!-- n1&#45;&gt;x49 -->
<g id="edge42" class="edge">
<title>n1:e&#45;&gt;x49:w</title>
<path fill="none" stroke="black" stroke-width="3" d="M6180.59,-162C6207.26,-162 6195.4,-130.2 6216.59,-114 6244.73,-92.49 6257.03,-83.19 6287.83,-81.53"/>
<polygon fill="black" stroke="black" stroke-width="3" points="6284.59,-85.11 6294.5,-81.36 6284.41,-78.11 6284.59,-85.11"/>
</g>
<!-- n11&#45;&gt;x21 -->
<g id="edge46" class="edge">
<title>n11:e&#45;&gt;x21:w</title>
<path fill="none" stroke="black" d="M959.3,-168C970.67,-168 975.98,-168.13 983.85,-168.2"/>
<polygon fill="black" stroke="black" points="983.77,-171.7 993.79,-168.24 983.8,-164.7 983.77,-171.7"/>
</g>
<!-- n13&#45;&gt;x14 -->
<g id="edge51" class="edge">
<title>n13:e&#45;&gt;x14:w</title>
<path fill="none" stroke="black" stroke-width="3" d="M6760.34,-329C6771.71,-329 6777.02,-329.13 6784.89,-329.2"/>
<polygon fill="black" stroke="black" stroke-width="3" points="6781.78,-332.69 6791.79,-329.23 6781.81,-325.69 6781.78,-332.69"/>
</g>
<!-- n15&#45;&gt;x2 -->
<g id="edge55" class="edge">
<title>n15:e&#45;&gt;x2:w</title>
<path fill="none" stroke="black" d="M1873,-219C1884.38,-219 1889.69,-219.13 1897.55,-219.2"/>
<polygon fill="black" stroke="black" points="1897.47,-222.7 1907.49,-219.24 1897.5,-215.7 1897.47,-222.7"/>
</g>
<!-- n2&#45;&gt;x19 -->
<g id="edge80" class="edge">
<title>n2:e&#45;&gt;x19:w</title>
<path fill="none" stroke="black" stroke-width="3" d="M308.12,-340C334.32,-340 340.22,-321.72 360.71,-316.58"/>
<polygon fill="black" stroke="black" stroke-width="3" points="358.05,-320.41 367.58,-315.78 357.24,-313.46 358.05,-320.41"/>
</g>
<!-- n2&#45;&gt;x19 -->
<g id="edge81" class="edge">
<title>n2:e&#45;&gt;x19:w</title>
<path fill="none" stroke="black" d="M308.12,-340C334.25,-340 340.26,-357.91 360.73,-362.95"/>
<polygon fill="black" stroke="black" points="360.25,-366.41 370.59,-364.08 361.05,-359.46 360.25,-366.41"/>
</g>
<!-- n2&#45;&gt;x19 -->
<g id="edge82" class="edge">
<title>n2:e&#45;&gt;x19:w</title>
<path fill="none" stroke="black" d="M308.12,-340C346.95,-340 332.76,-399.13 360.82,-411.14"/>
<polygon fill="black" stroke="black" points="360.13,-414.57 370.6,-412.97 361.42,-407.69 360.13,-414.57"/>
</g>
<!-- n4&#45;&gt;x11 -->
<g id="edge100" class="edge">
<title>n4:e&#45;&gt;x11:w</title>
<path fill="none" stroke="black" d="M3346.53,-414C3373.4,-414 3382.8,-414.19 3405.03,-414.24"/>
<polygon fill="black" stroke="black" points="3404.73,-417.74 3414.74,-414.25 3404.74,-410.74 3404.73,-417.74"/>
</g>
<!-- n6&#45;&gt;x33 -->
<g id="edge103" class="edge">
<title>n6:e&#45;&gt;x33:w</title>
<path fill="none" stroke="black" stroke-width="3" d="M1592.15,-229C1612.42,-229 1609.38,-249.34 1628.15,-257 1697.01,-285.1 1720.03,-276 1794.4,-276 1794.4,-276 1794.4,-276 1941.25,-276 2025.32,-276 2047.98,-255.25 2126.53,-253.38"/>
<polygon fill="black" stroke="black" stroke-width="3" points="2123.5,-256.92 2133.46,-253.3 2123.42,-249.92 2123.5,-256.92"/>
</g>
<!-- n6&#45;&gt;x39 -->
<g id="edge104" class="edge">
<title>n6:e&#45;&gt;x39:w</title>
<path fill="none" stroke="black" stroke-width="3" d="M1592.15,-229C1603.53,-229 1608.84,-229.13 1616.7,-229.2"/>
<polygon fill="black" stroke="black" stroke-width="3" points="1613.59,-232.69 1623.61,-229.23 1613.63,-225.69 1613.59,-232.69"/>
</g>
<!-- n7&#45;&gt;x5 -->
<g id="edge107" class="edge">
<title>n7:e&#45;&gt;x5:w</title>
<path fill="none" stroke="black" d="M3755.1,-358C3766.48,-358 3771.79,-358.13 3779.65,-358.2"/>
<polygon fill="black" stroke="black" points="3779.57,-361.7 3789.59,-358.24 3779.6,-354.7 3779.57,-361.7"/>
</g>
</g>
</svg>
