<?xml version="1.0" encoding="UTF-8" standalone="no"?>
<!DOCTYPE svg PUBLIC "-//W3C//DTD SVG 1.1//EN"
 "http://www.w3.org/Graphics/SVG/1.1/DTD/svg11.dtd">
<!-- Generated by graphviz version 12.2.1 (20241206.2353)
 -->
<!-- Title: top Pages: 1 -->
<svg width="4698pt" height="712pt"
 viewBox="0.00 0.00 4698.30 712.00" xmlns="http://www.w3.org/2000/svg" xmlns:xlink="http://www.w3.org/1999/xlink">
<g id="graph0" class="graph" transform="scale(1 1) rotate(0) translate(4 708)">
<title>top</title>
<polygon fill="white" stroke="none" points="-4,4 -4,-708 4694.3,-708 4694.3,4 -4,4"/>
<text text-anchor="middle" x="2345.15" y="-7.2" font-family="Times,serif" font-size="14.00">top</text>
<!-- n17 -->
<g id="node1" class="node">
<title>n17</title>
<polygon fill="none" stroke="black" points="107.84,-422.54 107.84,-437.46 76.26,-448 31.59,-448 0,-437.46 0,-422.54 31.59,-412 76.26,-412 107.84,-422.54"/>
<text text-anchor="middle" x="53.92" y="-424.95" font-family="Times,serif" font-size="14.00">input_data</text>
</g>
<!-- x2 -->
<g id="node10" class="node">
<title>x2</title>
<path fill="none" stroke="black" d="M309.59,-121C309.59,-121 348.09,-121 348.09,-121 354.09,-121 360.09,-127 360.09,-133 360.09,-133 360.09,-145 360.09,-145 360.09,-151 354.09,-157 348.09,-157 348.09,-157 309.59,-157 309.59,-157 303.59,-157 297.59,-151 297.59,-145 297.59,-145 297.59,-133 297.59,-133 297.59,-127 303.59,-121 309.59,-121"/>
<text text-anchor="middle" x="328.84" y="-134.2" font-family="Times,serif" font-size="14.00">3:1 &#45; 2:0</text>
</g>
<!-- n17&#45;&gt;x2 -->
<g id="edge47" class="edge">
<title>n17:e&#45;&gt;x2:w</title>
<path fill="none" stroke="black" stroke-width="3" d="M107.84,-430C156.28,-430 114.98,-253.91 143.84,-215 186.69,-157.23 217.55,-140.88 285.38,-139.37"/>
<polygon fill="black" stroke="black" stroke-width="3" points="282.09,-142.9 292.05,-139.3 282.01,-135.9 282.09,-142.9"/>
</g>
<!-- c30 -->
<g id="node17" class="node">
<title>c30</title>
<polygon fill="none" stroke="black" points="143.84,-224.5 143.84,-273.5 237.59,-273.5 237.59,-224.5 143.84,-224.5"/>
<text text-anchor="middle" x="156.72" y="-256.2" font-family="Times,serif" font-size="14.00">A</text>
<polyline fill="none" stroke="black" points="143.84,-249 169.59,-249"/>
<text text-anchor="middle" x="156.72" y="-231.7" font-family="Times,serif" font-size="14.00">B</text>
<polyline fill="none" stroke="black" points="169.59,-224.5 169.59,-273.5"/>
<text text-anchor="middle" x="190.72" y="-252.2" font-family="Times,serif" font-size="14.00">$1</text>
<text text-anchor="middle" x="190.72" y="-235.7" font-family="Times,serif" font-size="14.00">$and</text>
<polyline fill="none" stroke="black" points="211.84,-224.5 211.84,-273.5"/>
<text text-anchor="middle" x="224.72" y="-244.2" font-family="Times,serif" font-size="14.00">Y</text>
</g>
<!-- n17&#45;&gt;c30 -->
<g id="edge38" class="edge">
<title>n17:e&#45;&gt;c30:w</title>
<path fill="none" stroke="black" stroke-width="3" d="M107.84,-430C180.18,-430 79.83,-279.82 132.61,-262.81"/>
<polygon fill="black" stroke="black" stroke-width="3" points="129.92,-266.72 139.34,-261.88 128.96,-259.79 129.92,-266.72"/>
</g>
<!-- n17&#45;&gt;c30 -->
<g id="edge39" class="edge">
<title>n17:e&#45;&gt;c30:w</title>
<path fill="none" stroke="black" stroke-width="3" d="M107.84,-430C190.94,-430 69.48,-255.16 132.61,-238.09"/>
<polygon fill="black" stroke="black" stroke-width="3" points="129.82,-241.94 139.33,-237.29 128.99,-234.99 129.82,-241.94"/>
</g>
<!-- x6 -->
<g id="node19" class="node">
<title>x6</title>
<path fill="none" stroke="black" d="M1620.49,-656C1620.49,-656 1658.99,-656 1658.99,-656 1664.99,-656 1670.99,-662 1670.99,-668 1670.99,-668 1670.99,-680 1670.99,-680 1670.99,-686 1664.99,-692 1658.99,-692 1658.99,-692 1620.49,-692 1620.49,-692 1614.49,-692 1608.49,-686 1608.49,-680 1608.49,-680 1608.49,-668 1608.49,-668 1608.49,-662 1614.49,-656 1620.49,-656"/>
<text text-anchor="middle" x="1639.74" y="-669.2" font-family="Times,serif" font-size="14.00">2:0 &#45; 2:0</text>
</g>
<!-- n17&#45;&gt;x6 -->
<g id="edge48" class="edge">
<title>n17:e&#45;&gt;x6:w</title>
<path fill="none" stroke="black" stroke-width="3" d="M107.84,-430C188.12,-430 95.7,-542.76 143.84,-607 199.28,-680.98 235.4,-704 327.84,-704 327.84,-704 327.84,-704 1393.49,-704 1485.58,-704 1509.54,-676.64 1596.04,-674.4"/>
<polygon fill="black" stroke="black" stroke-width="3" points="1592.99,-677.94 1602.95,-674.31 1592.9,-670.94 1592.99,-677.94"/>
</g>
<!-- c33 -->
<g id="node21" class="node">
<title>c33</title>
<polygon fill="none" stroke="black" points="933.09,-572.5 933.09,-621.5 1027.59,-621.5 1027.59,-572.5 933.09,-572.5"/>
<text text-anchor="middle" x="945.97" y="-604.2" font-family="Times,serif" font-size="14.00">A</text>
<polyline fill="none" stroke="black" points="933.09,-597 958.84,-597"/>
<text text-anchor="middle" x="945.97" y="-579.7" font-family="Times,serif" font-size="14.00">B</text>
<polyline fill="none" stroke="black" points="958.84,-572.5 958.84,-621.5"/>
<text text-anchor="middle" x="980.34" y="-600.2" font-family="Times,serif" font-size="14.00">$102</text>
<text text-anchor="middle" x="980.34" y="-583.7" font-family="Times,serif" font-size="14.00">$and</text>
<polyline fill="none" stroke="black" points="1001.84,-572.5 1001.84,-621.5"/>
<text text-anchor="middle" x="1014.72" y="-592.2" font-family="Times,serif" font-size="14.00">Y</text>
</g>
<!-- n17&#45;&gt;c33 -->
<g id="edge40" class="edge">
<title>n17:e&#45;&gt;c33:w</title>
<path fill="none" stroke="black" stroke-width="3" d="M107.84,-430C166.94,-430 104.99,-513.47 143.84,-558 202.47,-625.19 238.67,-638 327.84,-638 327.84,-638 327.84,-638 682.39,-638 746.75,-638 763.16,-633.16 825.94,-619 870.33,-608.99 880.9,-588.5 920.68,-585.2"/>
<polygon fill="black" stroke="black" stroke-width="3" points="917.7,-588.82 927.55,-584.93 917.42,-581.83 917.7,-588.82"/>
</g>
<!-- c34 -->
<g id="node24" class="node">
<title>c34</title>
<polygon fill="none" stroke="black" points="1345.24,-534.5 1345.24,-575.5 1439.74,-575.5 1439.74,-534.5 1345.24,-534.5"/>
<text text-anchor="middle" x="1358.11" y="-550.2" font-family="Times,serif" font-size="14.00">A</text>
<polyline fill="none" stroke="black" points="1370.99,-534.5 1370.99,-575.5"/>
<text text-anchor="middle" x="1392.49" y="-558.2" font-family="Times,serif" font-size="14.00">$106</text>
<text text-anchor="middle" x="1392.49" y="-541.7" font-family="Times,serif" font-size="14.00">$not</text>
<polyline fill="none" stroke="black" points="1413.99,-534.5 1413.99,-575.5"/>
<text text-anchor="middle" x="1426.86" y="-550.2" font-family="Times,serif" font-size="14.00">Y</text>
</g>
<!-- n17&#45;&gt;c34 -->
<g id="edge41" class="edge">
<title>n17:e&#45;&gt;c34:w</title>
<path fill="none" stroke="black" stroke-width="3" d="M107.84,-430C150.92,-430 109.81,-493.59 143.84,-520 208.99,-570.56 245.37,-544 327.84,-544 327.84,-544 327.84,-544 1173.74,-544 1246.25,-544 1266.8,-554.14 1334.03,-555.17"/>
<polygon fill="black" stroke="black" stroke-width="3" points="1330.67,-558.64 1340.7,-555.22 1330.72,-551.64 1330.67,-558.64"/>
</g>
<!-- c37 -->
<g id="node29" class="node">
<title>c37</title>
<polygon fill="none" stroke="black" points="1709.24,-505.5 1709.24,-554.5 1805.24,-554.5 1805.24,-505.5 1709.24,-505.5"/>
<text text-anchor="middle" x="1722.11" y="-537.2" font-family="Times,serif" font-size="14.00">A</text>
<polyline fill="none" stroke="black" points="1709.24,-530 1734.99,-530"/>
<text text-anchor="middle" x="1722.11" y="-512.7" font-family="Times,serif" font-size="14.00">B</text>
<polyline fill="none" stroke="black" points="1734.99,-505.5 1734.99,-554.5"/>
<text text-anchor="middle" x="1757.24" y="-533.2" font-family="Times,serif" font-size="14.00">$7</text>
<text text-anchor="middle" x="1757.24" y="-516.7" font-family="Times,serif" font-size="14.00">$mul</text>
<polyline fill="none" stroke="black" points="1779.49,-505.5 1779.49,-554.5"/>
<text text-anchor="middle" x="1792.36" y="-525.2" font-family="Times,serif" font-size="14.00">Y</text>
</g>
<!-- n17&#45;&gt;c37 -->
<g id="edge42" class="edge">
<title>n17:e&#45;&gt;c37:w</title>
<path fill="none" stroke="black" stroke-width="3" d="M107.84,-430C131.11,-430 123.51,-456.68 143.84,-468 216.8,-508.62 244.34,-506 327.84,-506 327.84,-506 327.84,-506 1523.99,-506 1602.62,-506 1624.7,-516.67 1698.03,-517.67"/>
<polygon fill="black" stroke="black" stroke-width="3" points="1694.67,-521.15 1704.7,-517.72 1694.72,-514.15 1694.67,-521.15"/>
</g>
<!-- x13 -->
<g id="node33" class="node">
<title>x13</title>
<path fill="none" stroke="black" d="M1503.74,-300C1503.74,-300 1542.24,-300 1542.24,-300 1548.24,-300 1554.24,-306 1554.24,-312 1554.24,-312 1554.24,-324 1554.24,-324 1554.24,-330 1548.24,-336 1542.24,-336 1542.24,-336 1503.74,-336 1503.74,-336 1497.74,-336 1491.74,-330 1491.74,-324 1491.74,-324 1491.74,-312 1491.74,-312 1491.74,-306 1497.74,-300 1503.74,-300"/>
<text text-anchor="middle" x="1522.99" y="-313.2" font-family="Times,serif" font-size="14.00">2:0 &#45; 2:0</text>
</g>
<!-- n17&#45;&gt;x13 -->
<g id="edge44" class="edge">
<title>n17:e&#45;&gt;x13:w</title>
<path fill="none" stroke="black" stroke-width="3" d="M107.84,-430C133.45,-430 123.61,-400.7 143.84,-385 214.72,-330 238.13,-302 327.84,-302 327.84,-302 327.84,-302 467.59,-302 695.04,-302 751.89,-298 979.34,-298 979.34,-298 979.34,-298 1278.99,-298 1369.65,-298 1394.22,-316.62 1479.46,-318.15"/>
<polygon fill="black" stroke="black" stroke-width="3" points="1476.17,-321.62 1486.2,-318.21 1476.23,-314.62 1476.17,-321.62"/>
</g>
<!-- c40 -->
<g id="node38" class="node">
<title>c40</title>
<polygon fill="none" stroke="black" points="420.09,-352.5 420.09,-401.5 513.09,-401.5 513.09,-352.5 420.09,-352.5"/>
<text text-anchor="middle" x="432.97" y="-384.2" font-family="Times,serif" font-size="14.00">A</text>
<polyline fill="none" stroke="black" points="420.09,-377 445.84,-377"/>
<text text-anchor="middle" x="432.97" y="-359.7" font-family="Times,serif" font-size="14.00">B</text>
<polyline fill="none" stroke="black" points="445.84,-352.5 445.84,-401.5"/>
<text text-anchor="middle" x="466.59" y="-380.2" font-family="Times,serif" font-size="14.00">$2</text>
<text text-anchor="middle" x="466.59" y="-363.7" font-family="Times,serif" font-size="14.00">$sub</text>
<polyline fill="none" stroke="black" points="487.34,-352.5 487.34,-401.5"/>
<text text-anchor="middle" x="500.22" y="-372.2" font-family="Times,serif" font-size="14.00">Y</text>
</g>
<!-- n17&#45;&gt;c40 -->
<g id="edge43" class="edge">
<title>n17:e&#45;&gt;c40:w</title>
<path fill="none" stroke="black" stroke-width="3" d="M107.84,-430C125.01,-430 127.33,-420.7 143.84,-416 260.2,-382.9 293.18,-365.83 408.65,-364.8"/>
<polygon fill="black" stroke="black" stroke-width="3" points="405.57,-368.31 415.55,-364.77 405.54,-361.31 405.57,-368.31"/>
</g>
<!-- x19 -->
<g id="node42" class="node">
<title>x19</title>
<path fill="none" stroke="black" d="M1737.99,-450C1737.99,-450 1776.49,-450 1776.49,-450 1782.49,-450 1788.49,-456 1788.49,-462 1788.49,-462 1788.49,-474 1788.49,-474 1788.49,-480 1782.49,-486 1776.49,-486 1776.49,-486 1737.99,-486 1737.99,-486 1731.99,-486 1725.99,-480 1725.99,-474 1725.99,-474 1725.99,-462 1725.99,-462 1725.99,-456 1731.99,-450 1737.99,-450"/>
<text text-anchor="middle" x="1757.24" y="-463.2" font-family="Times,serif" font-size="14.00">2:0 &#45; 2:0</text>
</g>
<!-- n17&#45;&gt;x19 -->
<g id="edge45" class="edge">
<title>n17:e&#45;&gt;x19:w</title>
<path fill="none" stroke="black" stroke-width="3" d="M107.84,-430C125.01,-430 127.21,-439.75 143.84,-444 223.74,-464.43 245.37,-468 327.84,-468 327.84,-468 327.84,-468 1523.99,-468 1609.48,-468 1633.61,-468.23 1713.83,-468.25"/>
<polygon fill="black" stroke="black" stroke-width="3" points="1710.45,-471.75 1720.45,-468.25 1710.45,-464.75 1710.45,-471.75"/>
</g>
<!-- x22 -->
<g id="node46" class="node">
<title>x22</title>
<path fill="none" stroke="black" d="M1258.74,-403C1258.74,-403 1297.24,-403 1297.24,-403 1303.24,-403 1309.24,-409 1309.24,-415 1309.24,-415 1309.24,-427 1309.24,-427 1309.24,-433 1303.24,-439 1297.24,-439 1297.24,-439 1258.74,-439 1258.74,-439 1252.74,-439 1246.74,-433 1246.74,-427 1246.74,-427 1246.74,-415 1246.74,-415 1246.74,-409 1252.74,-403 1258.74,-403"/>
<text text-anchor="middle" x="1277.99" y="-416.2" font-family="Times,serif" font-size="14.00">2:0 &#45; 2:0</text>
</g>
<!-- n17&#45;&gt;x22 -->
<g id="edge46" class="edge">
<title>n17:e&#45;&gt;x22:w</title>
<path fill="none" stroke="black" stroke-width="3" d="M107.84,-430C205.62,-430 230.06,-430 327.84,-430 327.84,-430 327.84,-430 981.34,-430 1095.44,-430 1126.67,-421.82 1235.27,-421.28"/>
<polygon fill="black" stroke="black" stroke-width="3" points="1232.21,-424.79 1242.2,-421.26 1232.19,-417.79 1232.21,-424.79"/>
</g>
<!-- n18 -->
<g id="node2" class="node">
<title>n18</title>
<polygon fill="none" stroke="black" points="4690.3,-136.54 4690.3,-151.46 4655.8,-162 4607,-162 4572.49,-151.46 4572.49,-136.54 4607,-126 4655.8,-126 4690.3,-136.54"/>
<text text-anchor="middle" x="4631.4" y="-138.95" font-family="Times,serif" font-size="14.00">output_data</text>
</g>
<!-- n19 -->
<g id="node3" class="node">
<title>n19</title>
<polygon fill="none" stroke="black" points="328.84,-222 273.59,-204 328.84,-186 384.09,-204 328.84,-222"/>
<text text-anchor="middle" x="328.84" y="-198.95" font-family="Times,serif" font-size="14.00">temp_1</text>
</g>
<!-- x1 -->
<g id="node8" class="node">
<title>x1</title>
<path fill="none" stroke="black" d="M1853.24,-195C1853.24,-195 1891.74,-195 1891.74,-195 1897.74,-195 1903.74,-201 1903.74,-207 1903.74,-207 1903.74,-219 1903.74,-219 1903.74,-225 1897.74,-231 1891.74,-231 1891.74,-231 1853.24,-231 1853.24,-231 1847.24,-231 1841.24,-225 1841.24,-219 1841.24,-219 1841.24,-207 1841.24,-207 1841.24,-201 1847.24,-195 1853.24,-195"/>
<text text-anchor="middle" x="1872.49" y="-208.2" font-family="Times,serif" font-size="14.00">2:0 &#45; 2:0</text>
</g>
<!-- n19&#45;&gt;x1 -->
<g id="edge52" class="edge">
<title>n19:e&#45;&gt;x1:w</title>
<path fill="none" stroke="black" stroke-width="3" d="M384.09,-204C477.98,-204 501.45,-204 595.34,-204 595.34,-204 595.34,-204 1640.74,-204 1726.11,-204 1750.01,-212.47 1830.1,-213.2"/>
<polygon fill="black" stroke="black" stroke-width="3" points="1826.68,-216.68 1836.7,-213.23 1826.71,-209.68 1826.68,-216.68"/>
</g>
<!-- x3 -->
<g id="node12" class="node">
<title>x3</title>
<path fill="none" stroke="black" d="M2065.49,-157C2065.49,-157 2103.99,-157 2103.99,-157 2109.99,-157 2115.99,-163 2115.99,-169 2115.99,-169 2115.99,-181 2115.99,-181 2115.99,-187 2109.99,-193 2103.99,-193 2103.99,-193 2065.49,-193 2065.49,-193 2059.49,-193 2053.49,-187 2053.49,-181 2053.49,-181 2053.49,-169 2053.49,-169 2053.49,-163 2059.49,-157 2065.49,-157"/>
<text text-anchor="middle" x="2084.74" y="-170.2" font-family="Times,serif" font-size="14.00">2:0 &#45; 2:0</text>
</g>
<!-- n19&#45;&gt;x3 -->
<g id="edge53" class="edge">
<title>n19:e&#45;&gt;x3:w</title>
<path fill="none" stroke="black" stroke-width="3" d="M384.09,-204C431.79,-204 547.64,-166 595.34,-166 595.34,-166 595.34,-166 1873.49,-166 1949.26,-166 1970.76,-174.37 2041.23,-175.19"/>
<polygon fill="black" stroke="black" stroke-width="3" points="2037.93,-178.67 2047.95,-175.22 2037.97,-171.67 2037.93,-178.67"/>
</g>
<!-- x4 -->
<g id="node14" class="node">
<title>x4</title>
<path fill="none" stroke="black" d="M2179.24,-72C2179.24,-72 2217.74,-72 2217.74,-72 2223.74,-72 2229.74,-78 2229.74,-84 2229.74,-84 2229.74,-96 2229.74,-96 2229.74,-102 2223.74,-108 2217.74,-108 2217.74,-108 2179.24,-108 2179.24,-108 2173.24,-108 2167.24,-102 2167.24,-96 2167.24,-96 2167.24,-84 2167.24,-84 2167.24,-78 2173.24,-72 2179.24,-72"/>
<text text-anchor="middle" x="2198.49" y="-85.2" font-family="Times,serif" font-size="14.00">2:0 &#45; 2:0</text>
</g>
<!-- n19&#45;&gt;x4 -->
<g id="edge54" class="edge">
<title>n19:e&#45;&gt;x4:w</title>
<path fill="none" stroke="black" stroke-width="3" d="M384.09,-204C404.36,-204 402.9,-186.74 420.09,-176 493.66,-130.01 508.58,-90 595.34,-90 595.34,-90 595.34,-90 1971.99,-90 2054.87,-90 2078.38,-90.23 2155.93,-90.25"/>
<polygon fill="black" stroke="black" stroke-width="3" points="2152.7,-93.75 2162.7,-90.25 2152.7,-86.75 2152.7,-93.75"/>
</g>
<!-- x5 -->
<g id="node16" class="node">
<title>x5</title>
<path fill="none" stroke="black" d="M1951.74,-25C1951.74,-25 1990.24,-25 1990.24,-25 1996.24,-25 2002.24,-31 2002.24,-37 2002.24,-37 2002.24,-49 2002.24,-49 2002.24,-55 1996.24,-61 1990.24,-61 1990.24,-61 1951.74,-61 1951.74,-61 1945.74,-61 1939.74,-55 1939.74,-49 1939.74,-49 1939.74,-37 1939.74,-37 1939.74,-31 1945.74,-25 1951.74,-25"/>
<text text-anchor="middle" x="1970.99" y="-38.2" font-family="Times,serif" font-size="14.00">2:0 &#45; 2:0</text>
</g>
<!-- n19&#45;&gt;x5 -->
<g id="edge55" class="edge">
<title>n19:e&#45;&gt;x5:w</title>
<path fill="none" stroke="black" stroke-width="3" d="M384.09,-204C443.19,-204 375.96,-115.3 420.09,-76 479,-23.54 516.47,-48 595.34,-48 595.34,-48 595.34,-48 1758.24,-48 1834.99,-48 1856.94,-43.7 1928.34,-43.28"/>
<polygon fill="black" stroke="black" stroke-width="3" points="1925.21,-46.79 1935.2,-43.26 1925.19,-39.79 1925.21,-46.79"/>
</g>
<!-- x9 -->
<g id="node26" class="node">
<title>x9</title>
<path fill="none" stroke="black" d="M447.34,-234C447.34,-234 485.84,-234 485.84,-234 491.84,-234 497.84,-240 497.84,-246 497.84,-246 497.84,-258 497.84,-258 497.84,-264 491.84,-270 485.84,-270 485.84,-270 447.34,-270 447.34,-270 441.34,-270 435.34,-264 435.34,-258 435.34,-258 435.34,-246 435.34,-246 435.34,-240 441.34,-234 447.34,-234"/>
<text text-anchor="middle" x="466.59" y="-247.2" font-family="Times,serif" font-size="14.00">3:2 &#45; 1:0</text>
</g>
<!-- n19&#45;&gt;x9 -->
<g id="edge56" class="edge">
<title>n19:e&#45;&gt;x9:w</title>
<path fill="none" stroke="black" stroke-width="3" d="M384.09,-204C410.7,-204 405.82,-239.63 423.57,-249.66"/>
<polygon fill="black" stroke="black" stroke-width="3" points="419.39,-252.25 429.93,-251.19 421.03,-245.44 419.39,-252.25"/>
</g>
<!-- n19&#45;&gt;c40 -->
<g id="edge51" class="edge">
<title>n19:e&#45;&gt;c40:w</title>
<path fill="none" stroke="black" stroke-width="3" d="M384.09,-204C463.71,-204 349.04,-370.91 408.93,-387.87"/>
<polygon fill="black" stroke="black" stroke-width="3" points="405.23,-390.93 415.59,-388.69 406.09,-383.99 405.23,-390.93"/>
</g>
<!-- n20 -->
<g id="node4" class="node">
<title>n20</title>
<polygon fill="none" stroke="black" points="3324.99,-358 3269.74,-340 3324.99,-322 3380.24,-340 3324.99,-358"/>
<text text-anchor="middle" x="3324.99" y="-334.95" font-family="Times,serif" font-size="14.00">temp_2</text>
</g>
<!-- c31 -->
<g id="node18" class="node">
<title>c31</title>
<polygon fill="none" stroke="black" points="3416.24,-307.5 3416.24,-356.5 3509.99,-356.5 3509.99,-307.5 3416.24,-307.5"/>
<text text-anchor="middle" x="3429.11" y="-339.2" font-family="Times,serif" font-size="14.00">A</text>
<polyline fill="none" stroke="black" points="3416.24,-332 3441.99,-332"/>
<text text-anchor="middle" x="3429.11" y="-314.7" font-family="Times,serif" font-size="14.00">B</text>
<polyline fill="none" stroke="black" points="3441.99,-307.5 3441.99,-356.5"/>
<text text-anchor="middle" x="3463.11" y="-335.2" font-family="Times,serif" font-size="14.00">$15</text>
<text text-anchor="middle" x="3463.11" y="-318.7" font-family="Times,serif" font-size="14.00">$and</text>
<polyline fill="none" stroke="black" points="3484.24,-307.5 3484.24,-356.5"/>
<text text-anchor="middle" x="3497.11" y="-327.2" font-family="Times,serif" font-size="14.00">Y</text>
</g>
<!-- n20&#45;&gt;c31 -->
<g id="edge59" class="edge">
<title>n20:e&#45;&gt;c31:w</title>
<path fill="none" stroke="black" stroke-width="3" d="M3380.24,-340C3391.69,-340 3396.91,-342.15 3404.76,-343.39"/>
<polygon fill="black" stroke="black" stroke-width="3" points="3401.48,-346.65 3411.71,-343.91 3402,-339.67 3401.48,-346.65"/>
</g>
<!-- c32 -->
<g id="node20" class="node">
<title>c32</title>
<polygon fill="none" stroke="black" points="3545.99,-266.5 3545.99,-315.5 3639.74,-315.5 3639.74,-266.5 3545.99,-266.5"/>
<text text-anchor="middle" x="3558.86" y="-298.2" font-family="Times,serif" font-size="14.00">A</text>
<polyline fill="none" stroke="black" points="3545.99,-291 3571.74,-291"/>
<text text-anchor="middle" x="3558.86" y="-273.7" font-family="Times,serif" font-size="14.00">B</text>
<polyline fill="none" stroke="black" points="3571.74,-266.5 3571.74,-315.5"/>
<text text-anchor="middle" x="3592.86" y="-294.2" font-family="Times,serif" font-size="14.00">$16</text>
<text text-anchor="middle" x="3592.86" y="-277.7" font-family="Times,serif" font-size="14.00">$and</text>
<polyline fill="none" stroke="black" points="3613.99,-266.5 3613.99,-315.5"/>
<text text-anchor="middle" x="3626.86" y="-286.2" font-family="Times,serif" font-size="14.00">Y</text>
</g>
<!-- n20&#45;&gt;c32 -->
<g id="edge60" class="edge">
<title>n20:e&#45;&gt;c32:w</title>
<path fill="none" stroke="black" stroke-width="3" d="M3380.24,-340C3404.82,-340 3394.72,-309.89 3416.24,-298 3463.78,-271.74 3484.76,-277.7 3534.54,-278.64"/>
<polygon fill="black" stroke="black" stroke-width="3" points="3531.42,-282.11 3541.45,-278.71 3531.48,-275.11 3531.42,-282.11"/>
</g>
<!-- c43 -->
<g id="node48" class="node">
<title>c43</title>
<polygon fill="none" stroke="black" points="4064.99,-197.5 4064.99,-246.5 4157.24,-246.5 4157.24,-197.5 4064.99,-197.5"/>
<text text-anchor="middle" x="4077.86" y="-229.2" font-family="Times,serif" font-size="14.00">A</text>
<polyline fill="none" stroke="black" points="4064.99,-222 4090.74,-222"/>
<text text-anchor="middle" x="4077.86" y="-204.7" font-family="Times,serif" font-size="14.00">B</text>
<polyline fill="none" stroke="black" points="4090.74,-197.5 4090.74,-246.5"/>
<text text-anchor="middle" x="4111.11" y="-225.2" font-family="Times,serif" font-size="14.00">$20</text>
<text text-anchor="middle" x="4111.11" y="-208.7" font-family="Times,serif" font-size="14.00">$xor</text>
<polyline fill="none" stroke="black" points="4131.49,-197.5 4131.49,-246.5"/>
<text text-anchor="middle" x="4144.36" y="-217.2" font-family="Times,serif" font-size="14.00">Y</text>
</g>
<!-- n20&#45;&gt;c43 -->
<g id="edge61" class="edge">
<title>n20:e&#45;&gt;c43:w</title>
<path fill="none" stroke="black" stroke-width="3" d="M3380.24,-340C3414.04,-340 3390.63,-295.06 3416.24,-273 3479.07,-218.88 3508.94,-210 3591.86,-210 3591.86,-210 3591.86,-210 3853.36,-210 3943.47,-210 3968.83,-209.77 4053.5,-209.75"/>
<polygon fill="black" stroke="black" stroke-width="3" points="4050.45,-213.25 4060.45,-209.75 4050.45,-206.25 4050.45,-213.25"/>
</g>
<!-- n21 -->
<g id="node5" class="node">
<title>n21</title>
<polygon fill="none" stroke="black" points="4378.24,-150 4322.99,-132 4378.24,-114 4433.49,-132 4378.24,-150"/>
<text text-anchor="middle" x="4378.24" y="-126.95" font-family="Times,serif" font-size="14.00">temp_3</text>
</g>
<!-- x26 -->
<g id="node51" class="node">
<title>x26</title>
<path fill="none" stroke="black" d="M4481.49,-119.5C4481.49,-119.5 4524.49,-119.5 4524.49,-119.5 4530.49,-119.5 4536.49,-125.5 4536.49,-131.5 4536.49,-131.5 4536.49,-156.5 4536.49,-156.5 4536.49,-162.5 4530.49,-168.5 4524.49,-168.5 4524.49,-168.5 4481.49,-168.5 4481.49,-168.5 4475.49,-168.5 4469.49,-162.5 4469.49,-156.5 4469.49,-156.5 4469.49,-131.5 4469.49,-131.5 4469.49,-125.5 4475.49,-119.5 4481.49,-119.5"/>
<text text-anchor="middle" x="4502.99" y="-151.2" font-family="Times,serif" font-size="14.00">0 &#45;&gt; 23:3</text>
<polyline fill="none" stroke="black" points="4469.49,-144 4536.49,-144"/>
<text text-anchor="middle" x="4502.99" y="-126.7" font-family="Times,serif" font-size="14.00">2:0 &#45; 2:0</text>
</g>
<!-- n21&#45;&gt;x26 -->
<g id="edge63" class="edge">
<title>n21:e&#45;&gt;x26:w</title>
<path fill="none" stroke="black" stroke-width="3" d="M4433.49,-132C4444.87,-132 4450.18,-131.87 4458.04,-131.8"/>
<polygon fill="black" stroke="black" stroke-width="3" points="4454.97,-135.31 4464.95,-131.77 4454.93,-128.31 4454.97,-135.31"/>
</g>
<!-- c25 -->
<g id="node6" class="node">
<title>c25</title>
<polygon fill="none" stroke="black" points="3016.24,-356.5 3016.24,-405.5 3109.99,-405.5 3109.99,-356.5 3016.24,-356.5"/>
<text text-anchor="middle" x="3029.11" y="-388.2" font-family="Times,serif" font-size="14.00">A</text>
<polyline fill="none" stroke="black" points="3016.24,-381 3041.99,-381"/>
<text text-anchor="middle" x="3029.11" y="-363.7" font-family="Times,serif" font-size="14.00">B</text>
<polyline fill="none" stroke="black" points="3041.99,-356.5 3041.99,-405.5"/>
<text text-anchor="middle" x="3063.11" y="-384.2" font-family="Times,serif" font-size="14.00">$13</text>
<text text-anchor="middle" x="3063.11" y="-367.7" font-family="Times,serif" font-size="14.00">$add</text>
<polyline fill="none" stroke="black" points="3084.24,-356.5 3084.24,-405.5"/>
<text text-anchor="middle" x="3097.11" y="-376.2" font-family="Times,serif" font-size="14.00">Y</text>
</g>
<!-- c38 -->
<g id="node32" class="node">
<title>c38</title>
<polygon fill="none" stroke="black" points="3145.99,-315.5 3145.99,-364.5 3233.74,-364.5 3233.74,-315.5 3145.99,-315.5"/>
<text text-anchor="middle" x="3158.86" y="-347.2" font-family="Times,serif" font-size="14.00">A</text>
<polyline fill="none" stroke="black" points="3145.99,-340 3171.74,-340"/>
<text text-anchor="middle" x="3158.86" y="-322.7" font-family="Times,serif" font-size="14.00">B</text>
<polyline fill="none" stroke="black" points="3171.74,-315.5 3171.74,-364.5"/>
<text text-anchor="middle" x="3189.86" y="-343.2" font-family="Times,serif" font-size="14.00">$14</text>
<text text-anchor="middle" x="3189.86" y="-326.7" font-family="Times,serif" font-size="14.00">$or</text>
<polyline fill="none" stroke="black" points="3207.99,-315.5 3207.99,-364.5"/>
<text text-anchor="middle" x="3220.86" y="-335.2" font-family="Times,serif" font-size="14.00">Y</text>
</g>
<!-- c25&#45;&gt;c38 -->
<g id="edge26" class="edge">
<title>c25:e&#45;&gt;c38:w</title>
<path fill="none" stroke="black" stroke-width="3" d="M3109.99,-381.25C3125.88,-381.25 3126.43,-363.9 3135.38,-356.04"/>
<polygon fill="black" stroke="black" stroke-width="3" points="3133.47,-360.44 3141.71,-353.78 3131.12,-353.85 3133.47,-360.44"/>
</g>
<!-- x0 -->
<g id="node7" class="node">
<title>x0</title>
<path fill="none" stroke="black" d="M2929.74,-375C2929.74,-375 2968.24,-375 2968.24,-375 2974.24,-375 2980.24,-381 2980.24,-387 2980.24,-387 2980.24,-399 2980.24,-399 2980.24,-405 2974.24,-411 2968.24,-411 2968.24,-411 2929.74,-411 2929.74,-411 2923.74,-411 2917.74,-405 2917.74,-399 2917.74,-399 2917.74,-387 2917.74,-387 2917.74,-381 2923.74,-375 2929.74,-375"/>
<text text-anchor="middle" x="2948.99" y="-388.2" font-family="Times,serif" font-size="14.00">2:0 &#45; 2:0</text>
</g>
<!-- x0&#45;&gt;c25 -->
<g id="edge1" class="edge">
<title>x0:e&#45;&gt;c25:w</title>
<path fill="none" stroke="black" stroke-width="3" d="M2992.96,-393.06C2996.56,-393.1 2999.69,-393.15 3003.27,-393.18"/>
<polygon fill="none" stroke="black" stroke-width="3" points="2994.94,-393.07 2988.92,-397.04 2982.94,-393.01 2988.96,-389.04 2994.94,-393.07"/>
<polygon fill="none" stroke="black" stroke-width="3" points="3001.53,-393.18 3007.55,-389.21 3013.53,-393.24 3007.51,-397.21 3001.53,-393.18"/>
</g>
<!-- x1&#45;&gt;c25 -->
<g id="edge2" class="edge">
<title>x1:e&#45;&gt;c25:w</title>
<path fill="none" stroke="black" stroke-width="3" d="M1916.79,-213.08C1986.27,-213.99 2008.18,-222 2083.74,-222 2083.74,-222 2083.74,-222 2851.49,-222 2944.95,-222 2920.84,-355.31 3003.28,-367.81"/>
<polygon fill="none" stroke="black" stroke-width="3" points="1918.44,-213.09 1912.42,-217.06 1906.44,-213.02 1912.47,-209.06 1918.44,-213.09"/>
<polygon fill="none" stroke="black" stroke-width="3" points="3001.57,-367.69 3007.85,-364.13 3013.54,-368.56 3007.27,-372.11 3001.57,-367.69"/>
</g>
<!-- c26 -->
<g id="node9" class="node">
<title>c26</title>
<polygon fill="none" stroke="black" points="3675.74,-253.5 3675.74,-302.5 3769.49,-302.5 3769.49,-253.5 3675.74,-253.5"/>
<text text-anchor="middle" x="3688.61" y="-285.2" font-family="Times,serif" font-size="14.00">A</text>
<polyline fill="none" stroke="black" points="3675.74,-278 3701.49,-278"/>
<text text-anchor="middle" x="3688.61" y="-260.7" font-family="Times,serif" font-size="14.00">B</text>
<polyline fill="none" stroke="black" points="3701.49,-253.5 3701.49,-302.5"/>
<text text-anchor="middle" x="3722.61" y="-281.2" font-family="Times,serif" font-size="14.00">$17</text>
<text text-anchor="middle" x="3722.61" y="-264.7" font-family="Times,serif" font-size="14.00">$add</text>
<polyline fill="none" stroke="black" points="3743.74,-253.5 3743.74,-302.5"/>
<text text-anchor="middle" x="3756.61" y="-273.2" font-family="Times,serif" font-size="14.00">Y</text>
</g>
<!-- c27 -->
<g id="node11" class="node">
<title>c27</title>
<polygon fill="none" stroke="black" points="3805.49,-241.5 3805.49,-290.5 3899.24,-290.5 3899.24,-241.5 3805.49,-241.5"/>
<text text-anchor="middle" x="3818.36" y="-273.2" font-family="Times,serif" font-size="14.00">A</text>
<polyline fill="none" stroke="black" points="3805.49,-266 3831.24,-266"/>
<text text-anchor="middle" x="3818.36" y="-248.7" font-family="Times,serif" font-size="14.00">B</text>
<polyline fill="none" stroke="black" points="3831.24,-241.5 3831.24,-290.5"/>
<text text-anchor="middle" x="3852.36" y="-269.2" font-family="Times,serif" font-size="14.00">$18</text>
<text text-anchor="middle" x="3852.36" y="-252.7" font-family="Times,serif" font-size="14.00">$add</text>
<polyline fill="none" stroke="black" points="3873.49,-241.5 3873.49,-290.5"/>
<text text-anchor="middle" x="3886.36" y="-261.2" font-family="Times,serif" font-size="14.00">Y</text>
</g>
<!-- c26&#45;&gt;c27 -->
<g id="edge57" class="edge">
<title>c26:e&#45;&gt;c27:w</title>
<path fill="none" stroke="black" stroke-width="3" d="M3769.49,-278.25C3780.86,-278.25 3786.17,-278.25 3794.04,-278.25"/>
<polygon fill="black" stroke="black" stroke-width="3" points="3790.95,-281.75 3800.95,-278.25 3790.95,-274.75 3790.95,-281.75"/>
</g>
<!-- x2&#45;&gt;c26 -->
<g id="edge3" class="edge">
<title>x2:e&#45;&gt;c26:w</title>
<path fill="none" stroke="black" stroke-width="3" d="M374.1,-138.94C467.68,-138.07 495.59,-128 595.34,-128 595.34,-128 595.34,-128 1971.99,-128 2116.04,-128 2151.93,-137 2295.99,-137 2295.99,-137 2295.99,-137 3190.86,-137 3197.21,-137 3587.89,-243.65 3663.3,-262.82"/>
<polygon fill="none" stroke="black" stroke-width="3" points="375.8,-138.93 369.81,-142.96 363.8,-138.99 369.78,-134.96 375.8,-138.93"/>
<polygon fill="none" stroke="black" stroke-width="3" points="3661.43,-262.38 3668.18,-259.86 3673.11,-265.13 3666.35,-267.65 3661.43,-262.38"/>
</g>
<!-- c28 -->
<g id="node13" class="node">
<title>c28</title>
<polygon fill="none" stroke="black" points="3935.24,-238.5 3935.24,-287.5 4028.99,-287.5 4028.99,-238.5 3935.24,-238.5"/>
<text text-anchor="middle" x="3948.11" y="-270.2" font-family="Times,serif" font-size="14.00">A</text>
<polyline fill="none" stroke="black" points="3935.24,-263 3960.99,-263"/>
<text text-anchor="middle" x="3948.11" y="-245.7" font-family="Times,serif" font-size="14.00">B</text>
<polyline fill="none" stroke="black" points="3960.99,-238.5 3960.99,-287.5"/>
<text text-anchor="middle" x="3982.11" y="-266.2" font-family="Times,serif" font-size="14.00">$19</text>
<text text-anchor="middle" x="3982.11" y="-249.7" font-family="Times,serif" font-size="14.00">$add</text>
<polyline fill="none" stroke="black" points="4003.24,-238.5 4003.24,-287.5"/>
<text text-anchor="middle" x="4016.11" y="-258.2" font-family="Times,serif" font-size="14.00">Y</text>
</g>
<!-- c27&#45;&gt;c28 -->
<g id="edge64" class="edge">
<title>c27:e&#45;&gt;c28:w</title>
<path fill="none" stroke="black" stroke-width="3" d="M3899.24,-266.25C3911.09,-266.25 3915.98,-270.9 3923.92,-273.51"/>
<polygon fill="black" stroke="black" stroke-width="3" points="3920.34,-276.51 3930.75,-274.56 3921.4,-269.59 3920.34,-276.51"/>
</g>
<!-- x3&#45;&gt;c27 -->
<g id="edge4" class="edge">
<title>x3:e&#45;&gt;c27:w</title>
<path fill="none" stroke="black" stroke-width="3" d="M2129.95,-175C2198.99,-175 2220.94,-175 2295.99,-175 2295.99,-175 2295.99,-175 3190.86,-175 3449.85,-175 3515.24,-194.66 3769.49,-244 3780.42,-246.12 3785.43,-249.79 3792.57,-251.98"/>
<polygon fill="none" stroke="black" stroke-width="3" points="2131.69,-175 2125.69,-179 2119.69,-175 2125.69,-171 2131.69,-175"/>
<polygon fill="none" stroke="black" stroke-width="3" points="3790.92,-251.75 3797.41,-248.6 3802.81,-253.38 3796.32,-256.53 3790.92,-251.75"/>
</g>
<!-- c28&#45;&gt;c43 -->
<g id="edge65" class="edge">
<title>c28:e&#45;&gt;c43:w</title>
<path fill="none" stroke="black" stroke-width="3" d="M4028.99,-263.25C4044.88,-263.25 4045.43,-245.9 4054.38,-238.04"/>
<polygon fill="black" stroke="black" stroke-width="3" points="4052.47,-242.44 4060.71,-235.78 4050.12,-235.85 4052.47,-242.44"/>
</g>
<!-- x4&#45;&gt;c28 -->
<g id="edge5" class="edge">
<title>x4:e&#45;&gt;c28:w</title>
<path fill="none" stroke="black" stroke-width="3" d="M2242.78,-90.05C2312.22,-90.55 2334.24,-95 2409.74,-95 2409.74,-95 2409.74,-95 3723.61,-95 3749.9,-95 3876.75,-221.27 3923.07,-246.42"/>
<polygon fill="none" stroke="black" stroke-width="3" points="2244.44,-90.05 2238.43,-94.03 2232.44,-90.01 2238.46,-86.03 2244.44,-90.05"/>
<polygon fill="none" stroke="black" stroke-width="3" points="3921.39,-245.82 3928.38,-244.06 3932.69,-249.84 3925.7,-251.6 3921.39,-245.82"/>
</g>
<!-- c29 -->
<g id="node15" class="node">
<title>c29</title>
<polygon fill="none" stroke="black" points="4193.24,-107.5 4193.24,-156.5 4286.99,-156.5 4286.99,-107.5 4193.24,-107.5"/>
<text text-anchor="middle" x="4206.11" y="-139.2" font-family="Times,serif" font-size="14.00">A</text>
<polyline fill="none" stroke="black" points="4193.24,-132 4218.99,-132"/>
<text text-anchor="middle" x="4206.11" y="-114.7" font-family="Times,serif" font-size="14.00">B</text>
<polyline fill="none" stroke="black" points="4218.99,-107.5 4218.99,-156.5"/>
<text text-anchor="middle" x="4240.11" y="-135.2" font-family="Times,serif" font-size="14.00">$21</text>
<text text-anchor="middle" x="4240.11" y="-118.7" font-family="Times,serif" font-size="14.00">$add</text>
<polyline fill="none" stroke="black" points="4261.24,-107.5 4261.24,-156.5"/>
<text text-anchor="middle" x="4274.11" y="-127.2" font-family="Times,serif" font-size="14.00">Y</text>
</g>
<!-- c29&#45;&gt;n21 -->
<g id="edge62" class="edge">
<title>c29:e&#45;&gt;n21:w</title>
<path fill="none" stroke="black" stroke-width="3" d="M4286.99,-132.25C4298.36,-132.25 4303.67,-132.12 4311.54,-132.05"/>
<polygon fill="black" stroke="black" stroke-width="3" points="4308.46,-135.56 4318.45,-132.02 4308.43,-128.56 4308.46,-135.56"/>
</g>
<!-- x5&#45;&gt;c29 -->
<g id="edge6" class="edge">
<title>x5:e&#45;&gt;c29:w</title>
<path fill="none" stroke="black" stroke-width="3" d="M2014.97,-43C2091.39,-43 2115.12,-43 2197.49,-43 2197.49,-43 2197.49,-43 3983.11,-43 4078.07,-43 4092.62,-113.01 4180.36,-119.3"/>
<polygon fill="none" stroke="black" stroke-width="3" points="2016.94,-43 2010.94,-47 2004.94,-43 2010.94,-39 2016.94,-43"/>
<polygon fill="none" stroke="black" stroke-width="3" points="4178.54,-119.24 4184.68,-115.45 4190.54,-119.66 4184.4,-123.44 4178.54,-119.24"/>
</g>
<!-- c30&#45;&gt;n19 -->
<g id="edge50" class="edge">
<title>c30:e&#45;&gt;n19:w</title>
<path fill="none" stroke="black" stroke-width="3" d="M237.59,-249.25C258.47,-249.25 252.22,-219.38 262.93,-208.18"/>
<polygon fill="black" stroke="black" stroke-width="3" points="261.33,-212.56 269.36,-205.66 258.78,-206.04 261.33,-212.56"/>
</g>
<!-- c31&#45;&gt;c32 -->
<g id="edge69" class="edge">
<title>c31:e&#45;&gt;c32:w</title>
<path fill="none" stroke="black" stroke-width="3" d="M3509.99,-332.25C3525.88,-332.25 3526.43,-314.9 3535.38,-307.04"/>
<polygon fill="black" stroke="black" stroke-width="3" points="3533.47,-311.44 3541.71,-304.78 3531.12,-304.85 3533.47,-311.44"/>
</g>
<!-- x6&#45;&gt;c31 -->
<g id="edge7" class="edge">
<title>x6:e&#45;&gt;c31:w</title>
<path fill="none" stroke="black" stroke-width="3" d="M1684.65,-673.79C1763.84,-671.05 1786.14,-643 1871.49,-643 1871.49,-643 1871.49,-643 3190.86,-643 3195.76,-643 3367.86,-384.34 3408.03,-329.78"/>
<polygon fill="none" stroke="black" stroke-width="3" points="1686.69,-673.75 1680.76,-677.85 1674.69,-673.95 1680.62,-669.85 1686.69,-673.75"/>
<polygon fill="none" stroke="black" stroke-width="3" points="3406.92,-331.13 3407.63,-323.95 3414.53,-321.84 3413.82,-329.02 3406.92,-331.13"/>
</g>
<!-- c32&#45;&gt;c26 -->
<g id="edge70" class="edge">
<title>c32:e&#45;&gt;c26:w</title>
<path fill="none" stroke="black" stroke-width="3" d="M3639.74,-291.25C3651.12,-291.25 3656.42,-290.74 3664.29,-290.45"/>
<polygon fill="black" stroke="black" stroke-width="3" points="3661.26,-294.01 3671.2,-290.33 3661.14,-287.01 3661.26,-294.01"/>
</g>
<!-- x8 -->
<g id="node23" class="node">
<title>x8</title>
<path fill="none" stroke="black" d="M1153.49,-580C1153.49,-580 1191.99,-580 1191.99,-580 1197.99,-580 1203.99,-586 1203.99,-592 1203.99,-592 1203.99,-604 1203.99,-604 1203.99,-610 1197.99,-616 1191.99,-616 1191.99,-616 1153.49,-616 1153.49,-616 1147.49,-616 1141.49,-610 1141.49,-604 1141.49,-604 1141.49,-592 1141.49,-592 1141.49,-586 1147.49,-580 1153.49,-580"/>
<text text-anchor="middle" x="1172.74" y="-593.2" font-family="Times,serif" font-size="14.00">3:0 &#45; 3:0</text>
</g>
<!-- c33&#45;&gt;x8 -->
<g id="edge9" class="edge">
<title>c33:e&#45;&gt;x8:w</title>
<path fill="none" stroke="black" stroke-width="3" d="M1041.4,-597.27C1076.91,-597.37 1092.14,-597.88 1127.62,-597.98"/>
<polygon fill="none" stroke="black" stroke-width="3" points="1043.29,-597.27 1037.29,-601.26 1031.29,-597.25 1037.3,-593.26 1043.29,-597.27"/>
<polygon fill="none" stroke="black" stroke-width="3" points="1125.78,-597.98 1131.79,-593.99 1137.78,-598 1131.78,-601.99 1125.78,-597.98"/>
</g>
<!-- x7 -->
<g id="node22" class="node">
<title>x7</title>
<path fill="none" stroke="black" d="M753.32,-573C753.32,-573 791.82,-573 791.82,-573 797.82,-573 803.82,-579 803.82,-585 803.82,-585 803.82,-597 803.82,-597 803.82,-603 797.82,-609 791.82,-609 791.82,-609 753.32,-609 753.32,-609 747.32,-609 741.32,-603 741.32,-597 741.32,-597 741.32,-585 741.32,-585 741.32,-579 747.32,-573 753.32,-573"/>
<text text-anchor="middle" x="772.57" y="-586.2" font-family="Times,serif" font-size="14.00">3:0 &#45; 3:0</text>
</g>
<!-- x7&#45;&gt;c33 -->
<g id="edge8" class="edge">
<title>x7:e&#45;&gt;c33:w</title>
<path fill="none" stroke="black" stroke-width="3" d="M817.74,-591.33C860.23,-593.59 876.61,-606.64 919.05,-608.91"/>
<polygon fill="none" stroke="black" stroke-width="3" points="819.52,-591.38 813.42,-595.22 807.52,-591.07 813.62,-587.23 819.52,-591.38"/>
<polygon fill="none" stroke="black" stroke-width="3" points="917.39,-608.87 923.49,-605.03 929.39,-609.18 923.29,-613.02 917.39,-608.87"/>
</g>
<!-- n5 -->
<g id="node55" class="node">
<title>n5</title>
<ellipse fill="black" stroke="black" cx="1277.99" cy="-613" rx="1.8" ry="1.8"/>
</g>
<!-- x8&#45;&gt;n5 -->
<g id="edge67" class="edge">
<title>x8:e&#45;&gt;n5:w</title>
<path fill="none" stroke="black" stroke-width="3" d="M1204.99,-598.25C1232.46,-598.25 1240.9,-609.34 1263.31,-612.29"/>
<polygon fill="black" stroke="black" stroke-width="3" points="1259.98,-615.59 1270.18,-612.72 1260.42,-608.6 1259.98,-615.59"/>
</g>
<!-- c36 -->
<g id="node27" class="node">
<title>c36</title>
<polygon fill="none" stroke="black" points="1475.74,-542.5 1475.74,-591.5 1570.24,-591.5 1570.24,-542.5 1475.74,-542.5"/>
<text text-anchor="middle" x="1488.61" y="-574.2" font-family="Times,serif" font-size="14.00">A</text>
<polyline fill="none" stroke="black" points="1475.74,-567 1501.49,-567"/>
<text text-anchor="middle" x="1488.61" y="-549.7" font-family="Times,serif" font-size="14.00">B</text>
<polyline fill="none" stroke="black" points="1501.49,-542.5 1501.49,-591.5"/>
<text text-anchor="middle" x="1522.99" y="-570.2" font-family="Times,serif" font-size="14.00">$114</text>
<text text-anchor="middle" x="1522.99" y="-553.7" font-family="Times,serif" font-size="14.00">$or</text>
<polyline fill="none" stroke="black" points="1544.49,-542.5 1544.49,-591.5"/>
<text text-anchor="middle" x="1557.36" y="-562.2" font-family="Times,serif" font-size="14.00">Y</text>
</g>
<!-- c34&#45;&gt;c36 -->
<g id="edge71" class="edge">
<title>c34:e&#45;&gt;c36:w</title>
<path fill="none" stroke="black" stroke-width="3" d="M1439.74,-555.25C1451.11,-555.25 1456.42,-555 1464.29,-554.85"/>
<polygon fill="black" stroke="black" stroke-width="3" points="1461.23,-558.38 1471.2,-554.79 1461.17,-551.38 1461.23,-558.38"/>
</g>
<!-- c35 -->
<g id="node25" class="node">
<title>c35</title>
<polygon fill="none" stroke="black" points="549.09,-232.5 549.09,-273.5 643.59,-273.5 643.59,-232.5 549.09,-232.5"/>
<text text-anchor="middle" x="561.97" y="-248.2" font-family="Times,serif" font-size="14.00">A</text>
<polyline fill="none" stroke="black" points="574.84,-232.5 574.84,-273.5"/>
<text text-anchor="middle" x="596.34" y="-256.2" font-family="Times,serif" font-size="14.00">$110</text>
<text text-anchor="middle" x="596.34" y="-239.7" font-family="Times,serif" font-size="14.00">$not</text>
<polyline fill="none" stroke="black" points="617.84,-232.5 617.84,-273.5"/>
<text text-anchor="middle" x="630.72" y="-248.2" font-family="Times,serif" font-size="14.00">Y</text>
</g>
<!-- x15 -->
<g id="node36" class="node">
<title>x15</title>
<path fill="none" stroke="black" d="M2277.74,-250.5C2277.74,-250.5 2316.24,-250.5 2316.24,-250.5 2322.24,-250.5 2328.24,-256.5 2328.24,-262.5 2328.24,-262.5 2328.24,-287.5 2328.24,-287.5 2328.24,-293.5 2322.24,-299.5 2316.24,-299.5 2316.24,-299.5 2277.74,-299.5 2277.74,-299.5 2271.74,-299.5 2265.74,-293.5 2265.74,-287.5 2265.74,-287.5 2265.74,-262.5 2265.74,-262.5 2265.74,-256.5 2271.74,-250.5 2277.74,-250.5"/>
<text text-anchor="middle" x="2296.99" y="-282.2" font-family="Times,serif" font-size="14.00">1 &#45;&gt; 2:2</text>
<polyline fill="none" stroke="black" points="2265.74,-275 2328.24,-275"/>
<text text-anchor="middle" x="2296.99" y="-257.7" font-family="Times,serif" font-size="14.00">1:0 &#45; 1:0</text>
</g>
<!-- c35&#45;&gt;x15 -->
<g id="edge72" class="edge">
<title>c35:e&#45;&gt;x15:w</title>
<path fill="none" stroke="black" stroke-width="3" d="M643.59,-253.25C700.55,-253.25 714.61,-260 771.57,-260 771.57,-260 771.57,-260 2085.74,-260 2161.84,-260 2183.63,-262.49 2254.43,-262.73"/>
<polygon fill="black" stroke="black" stroke-width="3" points="2251.19,-266.23 2261.2,-262.74 2251.2,-259.23 2251.19,-266.23"/>
</g>
<!-- x9&#45;&gt;c35 -->
<g id="edge10" class="edge">
<title>x9:e&#45;&gt;c35:w</title>
<path fill="none" stroke="black" stroke-width="3" d="M511.83,-252.16C520.89,-252.4 527.17,-252.85 536.25,-253.09"/>
<polygon fill="none" stroke="black" stroke-width="3" points="513.54,-252.19 507.5,-256.11 501.55,-252.03 507.6,-248.11 513.54,-252.19"/>
<polygon fill="none" stroke="black" stroke-width="3" points="534.39,-253.07 540.44,-249.14 546.39,-253.22 540.34,-257.14 534.39,-253.07"/>
</g>
<!-- x11 -->
<g id="node30" class="node">
<title>x11</title>
<path fill="none" stroke="black" d="M1618.24,-544.5C1618.24,-544.5 1661.24,-544.5 1661.24,-544.5 1667.24,-544.5 1673.24,-550.5 1673.24,-556.5 1673.24,-556.5 1673.24,-581.5 1673.24,-581.5 1673.24,-587.5 1667.24,-593.5 1661.24,-593.5 1661.24,-593.5 1618.24,-593.5 1618.24,-593.5 1612.24,-593.5 1606.24,-587.5 1606.24,-581.5 1606.24,-581.5 1606.24,-556.5 1606.24,-556.5 1606.24,-550.5 1612.24,-544.5 1618.24,-544.5"/>
<text text-anchor="middle" x="1639.74" y="-576.2" font-family="Times,serif" font-size="14.00">1 &#45;&gt; 24:4</text>
<polyline fill="none" stroke="black" points="1606.24,-569 1673.24,-569"/>
<text text-anchor="middle" x="1639.74" y="-551.7" font-family="Times,serif" font-size="14.00">3:0 &#45; 3:0</text>
</g>
<!-- c36&#45;&gt;x11 -->
<g id="edge27" class="edge">
<title>c36:e&#45;&gt;x11:w</title>
<path fill="none" stroke="black" stroke-width="3" d="M1570.24,-567.25C1582.35,-567.25 1587.07,-561.71 1595.13,-558.68"/>
<polygon fill="black" stroke="black" stroke-width="3" points="1592.51,-562.68 1601.76,-557.53 1591.31,-555.79 1592.51,-562.68"/>
</g>
<!-- x10 -->
<g id="node28" class="node">
<title>x10</title>
<path fill="none" stroke="black" d="M1373.24,-595C1373.24,-595 1411.74,-595 1411.74,-595 1417.74,-595 1423.74,-601 1423.74,-607 1423.74,-607 1423.74,-619 1423.74,-619 1423.74,-625 1417.74,-631 1411.74,-631 1411.74,-631 1373.24,-631 1373.24,-631 1367.24,-631 1361.24,-625 1361.24,-619 1361.24,-619 1361.24,-607 1361.24,-607 1361.24,-601 1367.24,-595 1373.24,-595"/>
<text text-anchor="middle" x="1392.49" y="-608.2" font-family="Times,serif" font-size="14.00">3:0 &#45; 3:0</text>
</g>
<!-- x10&#45;&gt;c36 -->
<g id="edge11" class="edge">
<title>x10:e&#45;&gt;c36:w</title>
<path fill="none" stroke="black" stroke-width="3" d="M1437.21,-609.89C1448.33,-603.49 1452.06,-588.93 1463.11,-582.46"/>
<polygon fill="none" stroke="black" stroke-width="3" points="1439,-609.44 1434.15,-614.77 1427.36,-612.34 1432.21,-607.01 1439,-609.44"/>
<polygon fill="none" stroke="black" stroke-width="3" points="1461.49,-582.87 1466.32,-577.51 1473.12,-579.92 1468.29,-585.27 1461.49,-582.87"/>
</g>
<!-- x12 -->
<g id="node31" class="node">
<title>x12</title>
<path fill="none" stroke="black" d="M1853.24,-505C1853.24,-505 1891.74,-505 1891.74,-505 1897.74,-505 1903.74,-511 1903.74,-517 1903.74,-517 1903.74,-529 1903.74,-529 1903.74,-535 1897.74,-541 1891.74,-541 1891.74,-541 1853.24,-541 1853.24,-541 1847.24,-541 1841.24,-535 1841.24,-529 1841.24,-529 1841.24,-517 1841.24,-517 1841.24,-511 1847.24,-505 1853.24,-505"/>
<text text-anchor="middle" x="1872.49" y="-518.2" font-family="Times,serif" font-size="14.00">2:0 &#45; 2:0</text>
</g>
<!-- c37&#45;&gt;x12 -->
<g id="edge13" class="edge">
<title>c37:e&#45;&gt;x12:w</title>
<path fill="none" stroke="black" stroke-width="3" d="M1818.03,-528.42C1821.71,-527.31 1824.85,-525.91 1828.53,-524.8"/>
<polygon fill="none" stroke="black" stroke-width="3" points="1819.79,-528.17 1814.42,-532.98 1807.92,-529.87 1813.29,-525.06 1819.79,-528.17"/>
<polygon fill="none" stroke="black" stroke-width="3" points="1826.68,-525.07 1832.06,-520.26 1838.56,-523.38 1833.18,-528.18 1826.68,-525.07"/>
</g>
<!-- x11&#45;&gt;c37 -->
<g id="edge12" class="edge">
<title>x11:e&#45;&gt;c37:w</title>
<path fill="none" stroke="black" stroke-width="3" d="M1684.98,-564.34C1689.86,-559.55 1692.4,-552.12 1697.19,-547.22"/>
<polygon fill="none" stroke="black" stroke-width="3" points="1686.91,-563.58 1682.8,-569.51 1675.75,-568 1679.85,-562.07 1686.91,-563.58"/>
<polygon fill="none" stroke="black" stroke-width="3" points="1695.65,-547.86 1699.67,-541.87 1706.74,-543.28 1702.72,-549.27 1695.65,-547.86"/>
</g>
<!-- x18 -->
<g id="node41" class="node">
<title>x18</title>
<path fill="none" stroke="black" d="M1951.74,-501C1951.74,-501 1990.24,-501 1990.24,-501 1996.24,-501 2002.24,-507 2002.24,-513 2002.24,-513 2002.24,-525 2002.24,-525 2002.24,-531 1996.24,-537 1990.24,-537 1990.24,-537 1951.74,-537 1951.74,-537 1945.74,-537 1939.74,-531 1939.74,-525 1939.74,-525 1939.74,-513 1939.74,-513 1939.74,-507 1945.74,-501 1951.74,-501"/>
<text text-anchor="middle" x="1970.99" y="-514.2" font-family="Times,serif" font-size="14.00">2:0 &#45; 2:0</text>
</g>
<!-- x12&#45;&gt;x18 -->
<g id="edge29" class="edge">
<title>x12:e&#45;&gt;x18:w</title>
<path fill="none" stroke="black" stroke-width="3" d="M1903.74,-523.25C1915.18,-523.25 1920.41,-521.23 1928.27,-520.06"/>
<polygon fill="black" stroke="black" stroke-width="3" points="1925.48,-523.76 1935.21,-519.57 1924.99,-516.78 1925.48,-523.76"/>
</g>
<!-- c38&#45;&gt;n20 -->
<g id="edge58" class="edge">
<title>c38:e&#45;&gt;n20:w</title>
<path fill="none" stroke="black" stroke-width="3" d="M3233.74,-340.25C3245.11,-340.25 3250.42,-340.12 3258.29,-340.05"/>
<polygon fill="black" stroke="black" stroke-width="3" points="3255.21,-343.56 3265.2,-340.02 3255.18,-336.56 3255.21,-343.56"/>
</g>
<!-- x13&#45;&gt;c38 -->
<g id="edge14" class="edge">
<title>x13:e&#45;&gt;c38:w</title>
<path fill="none" stroke="black" stroke-width="3" d="M1567.87,-318.07C1647,-318.95 1671.16,-328 1756.24,-328 1756.24,-328 1756.24,-328 2949.99,-328 3032.68,-328 3056.5,-327.77 3133.21,-327.75"/>
<polygon fill="none" stroke="black" stroke-width="3" points="1569.94,-318.08 1563.92,-322.05 1557.94,-318.01 1563.96,-314.05 1569.94,-318.08"/>
<polygon fill="none" stroke="black" stroke-width="3" points="3131.28,-327.75 3137.28,-323.75 3143.28,-327.75 3137.28,-331.75 3131.28,-327.75"/>
</g>
<!-- c39 -->
<g id="node34" class="node">
<title>c39</title>
<polygon fill="none" stroke="black" points="2690.24,-368.5 2690.24,-417.5 2783.24,-417.5 2783.24,-368.5 2690.24,-368.5"/>
<text text-anchor="middle" x="2703.11" y="-400.2" font-family="Times,serif" font-size="14.00">A</text>
<polyline fill="none" stroke="black" points="2690.24,-393 2715.99,-393"/>
<text text-anchor="middle" x="2703.11" y="-375.7" font-family="Times,serif" font-size="14.00">B</text>
<polyline fill="none" stroke="black" points="2715.99,-368.5 2715.99,-417.5"/>
<text text-anchor="middle" x="2736.74" y="-396.2" font-family="Times,serif" font-size="14.00">$12</text>
<text text-anchor="middle" x="2736.74" y="-379.7" font-family="Times,serif" font-size="14.00">$sub</text>
<polyline fill="none" stroke="black" points="2757.49,-368.5 2757.49,-417.5"/>
<text text-anchor="middle" x="2770.36" y="-388.2" font-family="Times,serif" font-size="14.00">Y</text>
</g>
<!-- x16 -->
<g id="node37" class="node">
<title>x16</title>
<path fill="none" stroke="black" d="M2831.24,-375C2831.24,-375 2869.74,-375 2869.74,-375 2875.74,-375 2881.74,-381 2881.74,-387 2881.74,-387 2881.74,-399 2881.74,-399 2881.74,-405 2875.74,-411 2869.74,-411 2869.74,-411 2831.24,-411 2831.24,-411 2825.24,-411 2819.24,-405 2819.24,-399 2819.24,-399 2819.24,-387 2819.24,-387 2819.24,-381 2825.24,-375 2831.24,-375"/>
<text text-anchor="middle" x="2850.49" y="-388.2" font-family="Times,serif" font-size="14.00">2:0 &#45; 2:0</text>
</g>
<!-- c39&#45;&gt;x16 -->
<g id="edge17" class="edge">
<title>c39:e&#45;&gt;x16:w</title>
<path fill="none" stroke="black" stroke-width="3" d="M2795.96,-393.19C2799.56,-393.15 2802.69,-393.1 2806.27,-393.07"/>
<polygon fill="none" stroke="black" stroke-width="3" points="2797.94,-393.18 2791.96,-397.21 2785.94,-393.24 2791.92,-389.21 2797.94,-393.18"/>
<polygon fill="none" stroke="black" stroke-width="3" points="2804.53,-393.07 2810.51,-389.04 2816.53,-393.01 2810.55,-397.04 2804.53,-393.07"/>
</g>
<!-- x14 -->
<g id="node35" class="node">
<title>x14</title>
<path fill="none" stroke="black" d="M2603.74,-394C2603.74,-394 2642.24,-394 2642.24,-394 2648.24,-394 2654.24,-400 2654.24,-406 2654.24,-406 2654.24,-418 2654.24,-418 2654.24,-424 2648.24,-430 2642.24,-430 2642.24,-430 2603.74,-430 2603.74,-430 2597.74,-430 2591.74,-424 2591.74,-418 2591.74,-418 2591.74,-406 2591.74,-406 2591.74,-400 2597.74,-394 2603.74,-394"/>
<text text-anchor="middle" x="2622.99" y="-407.2" font-family="Times,serif" font-size="14.00">2:0 &#45; 2:0</text>
</g>
<!-- x14&#45;&gt;c39 -->
<g id="edge15" class="edge">
<title>x14:e&#45;&gt;c39:w</title>
<path fill="none" stroke="black" stroke-width="3" d="M2667.02,-410.3C2670.7,-409.27 2673.85,-407.96 2677.54,-406.93"/>
<polygon fill="none" stroke="black" stroke-width="3" points="2668.81,-410.06 2663.39,-414.82 2656.92,-411.64 2662.34,-406.89 2668.81,-410.06"/>
<polygon fill="none" stroke="black" stroke-width="3" points="2675.66,-407.18 2681.09,-402.43 2687.56,-405.6 2682.13,-410.36 2675.66,-407.18"/>
</g>
<!-- x15&#45;&gt;c39 -->
<g id="edge16" class="edge">
<title>x15:e&#45;&gt;c39:w</title>
<path fill="none" stroke="black" stroke-width="3" d="M2341.21,-275.22C2493.24,-280.36 2525.39,-375.53 2677.6,-380.54"/>
<polygon fill="none" stroke="black" stroke-width="3" points="2342.94,-275.25 2336.87,-279.14 2330.94,-275.05 2337.01,-271.15 2342.94,-275.25"/>
<polygon fill="none" stroke="black" stroke-width="3" points="2675.54,-380.51 2681.6,-376.61 2687.53,-380.71 2681.47,-384.61 2675.54,-380.51"/>
</g>
<!-- x16&#45;&gt;x0 -->
<g id="edge30" class="edge">
<title>x16:e&#45;&gt;x0:w</title>
<path fill="none" stroke="black" stroke-width="3" d="M2881.74,-393.25C2893.11,-393.25 2898.42,-393.25 2906.29,-393.25"/>
<polygon fill="black" stroke="black" stroke-width="3" points="2903.2,-396.75 2913.2,-393.25 2903.2,-389.75 2903.2,-396.75"/>
</g>
<!-- x17 -->
<g id="node39" class="node">
<title>x17</title>
<path fill="none" stroke="black" d="M570.34,-352.5C570.34,-352.5 622.34,-352.5 622.34,-352.5 628.34,-352.5 634.34,-358.5 634.34,-364.5 634.34,-364.5 634.34,-389.5 634.34,-389.5 634.34,-395.5 628.34,-401.5 622.34,-401.5 622.34,-401.5 570.34,-401.5 570.34,-401.5 564.34,-401.5 558.34,-395.5 558.34,-389.5 558.34,-389.5 558.34,-364.5 558.34,-364.5 558.34,-358.5 564.34,-352.5 570.34,-352.5"/>
<text text-anchor="middle" x="596.34" y="-384.2" font-family="Times,serif" font-size="14.00">4:4 &#45; 24:24</text>
<polyline fill="none" stroke="black" points="558.34,-377 634.34,-377"/>
<text text-anchor="middle" x="596.34" y="-359.7" font-family="Times,serif" font-size="14.00">3:0 &#45; 3:0</text>
</g>
<!-- c40&#45;&gt;x17 -->
<g id="edge18" class="edge">
<title>c40:e&#45;&gt;x17:w</title>
<path fill="none" stroke="black" stroke-width="3" d="M525.87,-377.21C532.7,-377.16 537.83,-377.09 544.68,-377.04"/>
<polygon fill="none" stroke="black" stroke-width="3" points="527.8,-377.2 521.81,-381.22 515.8,-377.24 521.78,-373.22 527.8,-377.2"/>
<polygon fill="none" stroke="black" stroke-width="3" points="542.64,-377.05 548.62,-373.03 554.64,-377.01 548.65,-381.03 542.64,-377.05"/>
</g>
<!-- n16 -->
<g id="node54" class="node">
<title>n16</title>
<ellipse fill="black" stroke="black" cx="681.39" cy="-389" rx="1.8" ry="1.8"/>
</g>
<!-- x17&#45;&gt;n16 -->
<g id="edge33" class="edge">
<title>x17:e&#45;&gt;n16:w</title>
<path fill="none" stroke="black" stroke-width="3" d="M635.34,-364.75C653.21,-364.75 656.46,-380.15 668.39,-386.4"/>
<polygon fill="black" stroke="black" stroke-width="3" points="664.64,-389.13 675.17,-387.98 666.22,-382.31 664.64,-389.13"/>
</g>
<!-- x17&#45;&gt;n16 -->
<g id="edge34" class="edge">
<title>x17:e&#45;&gt;n16:w</title>
<path fill="none" stroke="black" d="M635.34,-389.25C650.55,-389.25 656.94,-389.1 668.15,-389.03"/>
<polygon fill="black" stroke="black" points="668.09,-392.53 678.08,-389 668.07,-385.53 668.09,-392.53"/>
</g>
<!-- c41 -->
<g id="node40" class="node">
<title>c41</title>
<polygon fill="none" stroke="black" points="2038.24,-455.5 2038.24,-504.5 2131.24,-504.5 2131.24,-455.5 2038.24,-455.5"/>
<text text-anchor="middle" x="2051.11" y="-487.2" font-family="Times,serif" font-size="14.00">A</text>
<polyline fill="none" stroke="black" points="2038.24,-480 2063.99,-480"/>
<text text-anchor="middle" x="2051.11" y="-462.7" font-family="Times,serif" font-size="14.00">B</text>
<polyline fill="none" stroke="black" points="2063.99,-455.5 2063.99,-504.5"/>
<text text-anchor="middle" x="2084.74" y="-483.2" font-family="Times,serif" font-size="14.00">$8</text>
<text text-anchor="middle" x="2084.74" y="-466.7" font-family="Times,serif" font-size="14.00">$sub</text>
<polyline fill="none" stroke="black" points="2105.49,-455.5 2105.49,-504.5"/>
<text text-anchor="middle" x="2118.36" y="-475.2" font-family="Times,serif" font-size="14.00">Y</text>
</g>
<!-- x20 -->
<g id="node43" class="node">
<title>x20</title>
<path fill="none" stroke="black" d="M2179.24,-456C2179.24,-456 2217.74,-456 2217.74,-456 2223.74,-456 2229.74,-462 2229.74,-468 2229.74,-468 2229.74,-480 2229.74,-480 2229.74,-486 2223.74,-492 2217.74,-492 2217.74,-492 2179.24,-492 2179.24,-492 2173.24,-492 2167.24,-486 2167.24,-480 2167.24,-480 2167.24,-468 2167.24,-468 2167.24,-462 2173.24,-456 2179.24,-456"/>
<text text-anchor="middle" x="2198.49" y="-469.2" font-family="Times,serif" font-size="14.00">2:0 &#45; 2:0</text>
</g>
<!-- c41&#45;&gt;x20 -->
<g id="edge21" class="edge">
<title>c41:e&#45;&gt;x20:w</title>
<path fill="none" stroke="black" stroke-width="3" d="M2144.01,-478.67C2147.7,-477.72 2150.86,-476.51 2154.55,-475.55"/>
<polygon fill="none" stroke="black" stroke-width="3" points="2145.83,-478.45 2140.37,-483.15 2133.92,-479.92 2139.39,-475.21 2145.83,-478.45"/>
<polygon fill="none" stroke="black" stroke-width="3" points="2152.64,-475.79 2158.11,-471.09 2164.55,-474.33 2159.09,-479.03 2152.64,-475.79"/>
</g>
<!-- x18&#45;&gt;c41 -->
<g id="edge19" class="edge">
<title>x18:e&#45;&gt;c41:w</title>
<path fill="none" stroke="black" stroke-width="3" d="M2013.98,-514.34C2018.86,-509.55 2021.4,-502.12 2026.19,-497.22"/>
<polygon fill="none" stroke="black" stroke-width="3" points="2015.91,-513.58 2011.8,-519.51 2004.75,-518 2008.85,-512.07 2015.91,-513.58"/>
<polygon fill="none" stroke="black" stroke-width="3" points="2024.65,-497.86 2028.67,-491.87 2035.74,-493.28 2031.72,-499.27 2024.65,-497.86"/>
</g>
<!-- x19&#45;&gt;c41 -->
<g id="edge20" class="edge">
<title>x19:e&#45;&gt;c41:w</title>
<path fill="none" stroke="black" stroke-width="3" d="M1802.38,-468C1898.19,-467.98 1929.49,-467.77 2025.26,-467.75"/>
<polygon fill="none" stroke="black" stroke-width="3" points="1804.19,-468 1798.19,-472 1792.19,-468 1798.19,-464 1804.19,-468"/>
<polygon fill="none" stroke="black" stroke-width="3" points="2023.53,-467.75 2029.53,-463.75 2035.53,-467.75 2029.53,-471.75 2023.53,-467.75"/>
</g>
<!-- x21 -->
<g id="node45" class="node">
<title>x21</title>
<path fill="none" stroke="black" d="M2277.74,-453C2277.74,-453 2316.24,-453 2316.24,-453 2322.24,-453 2328.24,-459 2328.24,-465 2328.24,-465 2328.24,-477 2328.24,-477 2328.24,-483 2322.24,-489 2316.24,-489 2316.24,-489 2277.74,-489 2277.74,-489 2271.74,-489 2265.74,-483 2265.74,-477 2265.74,-477 2265.74,-465 2265.74,-465 2265.74,-459 2271.74,-453 2277.74,-453"/>
<text text-anchor="middle" x="2296.99" y="-466.2" font-family="Times,serif" font-size="14.00">2:0 &#45; 2:0</text>
</g>
<!-- x20&#45;&gt;x21 -->
<g id="edge31" class="edge">
<title>x20:e&#45;&gt;x21:w</title>
<path fill="none" stroke="black" stroke-width="3" d="M2229.74,-474.25C2241.15,-474.25 2246.42,-472.73 2254.28,-471.86"/>
<polygon fill="black" stroke="black" stroke-width="3" points="2251.4,-475.51 2261.2,-471.49 2251.03,-468.52 2251.4,-475.51"/>
</g>
<!-- c42 -->
<g id="node44" class="node">
<title>c42</title>
<polygon fill="none" stroke="black" points="2364.24,-408.5 2364.24,-457.5 2457.24,-457.5 2457.24,-408.5 2364.24,-408.5"/>
<text text-anchor="middle" x="2377.11" y="-440.2" font-family="Times,serif" font-size="14.00">A</text>
<polyline fill="none" stroke="black" points="2364.24,-433 2389.99,-433"/>
<text text-anchor="middle" x="2377.11" y="-415.7" font-family="Times,serif" font-size="14.00">B</text>
<polyline fill="none" stroke="black" points="2389.99,-408.5 2389.99,-457.5"/>
<text text-anchor="middle" x="2410.74" y="-436.2" font-family="Times,serif" font-size="14.00">$9</text>
<text text-anchor="middle" x="2410.74" y="-419.7" font-family="Times,serif" font-size="14.00">$sub</text>
<polyline fill="none" stroke="black" points="2431.49,-408.5 2431.49,-457.5"/>
<text text-anchor="middle" x="2444.36" y="-428.2" font-family="Times,serif" font-size="14.00">Y</text>
</g>
<!-- x23 -->
<g id="node47" class="node">
<title>x23</title>
<path fill="none" stroke="black" d="M2505.24,-401C2505.24,-401 2543.74,-401 2543.74,-401 2549.74,-401 2555.74,-407 2555.74,-413 2555.74,-413 2555.74,-425 2555.74,-425 2555.74,-431 2549.74,-437 2543.74,-437 2543.74,-437 2505.24,-437 2505.24,-437 2499.24,-437 2493.24,-431 2493.24,-425 2493.24,-425 2493.24,-413 2493.24,-413 2493.24,-407 2499.24,-401 2505.24,-401"/>
<text text-anchor="middle" x="2524.49" y="-414.2" font-family="Times,serif" font-size="14.00">2:0 &#45; 2:0</text>
</g>
<!-- c42&#45;&gt;x23 -->
<g id="edge24" class="edge">
<title>c42:e&#45;&gt;x23:w</title>
<path fill="none" stroke="black" stroke-width="3" d="M2469.75,-429.94C2473.69,-427.64 2476.81,-424.59 2480.76,-422.29"/>
<polygon fill="none" stroke="black" stroke-width="3" points="2471.45,-429.49 2466.68,-434.89 2459.85,-432.56 2464.63,-427.16 2471.45,-429.49"/>
<polygon fill="none" stroke="black" stroke-width="3" points="2479.02,-422.75 2483.8,-417.35 2490.62,-419.69 2485.84,-425.09 2479.02,-422.75"/>
</g>
<!-- x21&#45;&gt;c42 -->
<g id="edge22" class="edge">
<title>x21:e&#45;&gt;c42:w</title>
<path fill="none" stroke="black" stroke-width="3" d="M2339.91,-466.51C2344.81,-461.9 2347.45,-454.75 2352.26,-450.03"/>
<polygon fill="none" stroke="black" stroke-width="3" points="2341.96,-465.72 2337.8,-471.61 2330.76,-470.03 2334.93,-464.14 2341.96,-465.72"/>
<polygon fill="none" stroke="black" stroke-width="3" points="2350.58,-450.7 2354.67,-444.76 2361.73,-446.25 2357.64,-452.19 2350.58,-450.7"/>
</g>
<!-- x22&#45;&gt;c42 -->
<g id="edge23" class="edge">
<title>x22:e&#45;&gt;c42:w</title>
<path fill="none" stroke="black" stroke-width="3" d="M1322.08,-421C1406.17,-421 1431.87,-421 1521.99,-421 1521.99,-421 1521.99,-421 2199.49,-421 2268.28,-421 2288.6,-420.78 2351.52,-420.75"/>
<polygon fill="none" stroke="black" stroke-width="3" points="1323.94,-421 1317.94,-425 1311.94,-421 1317.94,-417 1323.94,-421"/>
<polygon fill="none" stroke="black" stroke-width="3" points="2349.53,-420.75 2355.53,-416.75 2361.53,-420.75 2355.54,-424.75 2349.53,-420.75"/>
</g>
<!-- x23&#45;&gt;x14 -->
<g id="edge32" class="edge">
<title>x23:e&#45;&gt;x14:w</title>
<path fill="none" stroke="black" stroke-width="3" d="M2555.74,-419.25C2567.45,-419.25 2572.51,-415.63 2580.47,-413.6"/>
<polygon fill="black" stroke="black" stroke-width="3" points="2577.72,-417.45 2587.23,-412.79 2576.88,-410.5 2577.72,-417.45"/>
</g>
<!-- c43&#45;&gt;c29 -->
<g id="edge28" class="edge">
<title>c43:e&#45;&gt;c29:w</title>
<path fill="none" stroke="black" stroke-width="3" d="M4157.24,-222.25C4190.65,-222.25 4163.92,-162.53 4182.3,-147.6"/>
<polygon fill="black" stroke="black" stroke-width="3" points="4180.36,-151.85 4188.9,-145.58 4178.31,-145.16 4180.36,-151.85"/>
</g>
<!-- x24 -->
<g id="node49" class="node">
<title>x24</title>
<path fill="none" stroke="black" d="M731.19,-327C731.19,-327 813.94,-327 813.94,-327 819.94,-327 825.94,-333 825.94,-339 825.94,-339 825.94,-351 825.94,-351 825.94,-357 819.94,-363 813.94,-363 813.94,-363 731.19,-363 731.19,-363 725.19,-363 719.19,-357 719.19,-351 719.19,-351 719.19,-339 719.19,-339 719.19,-333 725.19,-327 731.19,-327"/>
<text text-anchor="middle" x="772.57" y="-340.2" font-family="Times,serif" font-size="14.00">20x 24:24 &#45; 19:0</text>
</g>
<!-- x25 -->
<g id="node50" class="node">
<title>x25</title>
<path fill="none" stroke="black" d="M954.34,-346C954.34,-346 1006.34,-346 1006.34,-346 1012.34,-346 1018.34,-352 1018.34,-358 1018.34,-358 1018.34,-370 1018.34,-370 1018.34,-376 1012.34,-382 1006.34,-382 1006.34,-382 954.34,-382 954.34,-382 948.34,-382 942.34,-376 942.34,-370 942.34,-370 942.34,-358 942.34,-358 942.34,-352 948.34,-346 954.34,-346"/>
<text text-anchor="middle" x="980.34" y="-359.2" font-family="Times,serif" font-size="14.00">19:0 &#45; 23:4</text>
</g>
<!-- x24&#45;&gt;x25 -->
<g id="edge25" class="edge">
<title>x24:e&#45;&gt;x25:w</title>
<path fill="none" stroke="black" stroke-width="3" d="M838.76,-345.41C876.19,-347.92 890.99,-361.04 928.36,-363.57"/>
<polygon fill="none" stroke="black" stroke-width="3" points="840.64,-345.48 834.51,-349.28 828.64,-345.09 834.77,-341.28 840.64,-345.48"/>
<polygon fill="none" stroke="black" stroke-width="3" points="926.64,-363.52 932.77,-359.72 938.64,-363.91 932.51,-367.71 926.64,-363.52"/>
</g>
<!-- x25&#45;&gt;n16 -->
<g id="edge35" class="edge">
<title>x25:e&#45;&gt;n16:w</title>
<path fill="none" stroke="black" stroke-width="3" d="M1019.34,-364.25C1027.46,-364.25 1024.17,-376.84 1018.34,-382.5 976.9,-422.72 756.23,-405.3 687.93,-394.82"/>
<polygon fill="black" stroke="black" stroke-width="3" points="692.41,-393.41 682.02,-391.32 688.83,-399.43 692.41,-393.41"/>
</g>
<!-- x26&#45;&gt;n18 -->
<g id="edge49" class="edge">
<title>x26:e&#45;&gt;n18:w</title>
<path fill="none" stroke="black" stroke-width="3" d="M4536.49,-144C4547.87,-144 4553.18,-144 4561.04,-144"/>
<polygon fill="black" stroke="black" stroke-width="3" points="4557.95,-147.5 4567.95,-144 4557.95,-140.5 4557.95,-147.5"/>
</g>
<!-- v27 -->
<g id="node52" class="node">
<title>v27</title>
<ellipse fill="none" stroke="black" cx="980.34" cy="-658" rx="118.4" ry="18"/>
<text text-anchor="middle" x="980.34" y="-652.95" font-family="Times,serif" font-size="14.00">21&#39;000000000000000000000</text>
</g>
<!-- x28 -->
<g id="node53" class="node">
<title>x28</title>
<path fill="none" stroke="black" d="M1146.74,-637C1146.74,-637 1198.74,-637 1198.74,-637 1204.74,-637 1210.74,-643 1210.74,-649 1210.74,-649 1210.74,-661 1210.74,-661 1210.74,-667 1204.74,-673 1198.74,-673 1198.74,-673 1146.74,-673 1146.74,-673 1140.74,-673 1134.74,-667 1134.74,-661 1134.74,-661 1134.74,-649 1134.74,-649 1134.74,-643 1140.74,-637 1146.74,-637"/>
<text text-anchor="middle" x="1172.74" y="-650.2" font-family="Times,serif" font-size="14.00">20:0 &#45; 24:4</text>
</g>
<!-- v27&#45;&gt;x28 -->
<g id="edge73" class="edge">
<title>v27:e&#45;&gt;x28:w</title>
<path fill="none" stroke="black" stroke-width="3" d="M1098.74,-658C1110.15,-658 1115.42,-656.48 1123.28,-655.61"/>
<polygon fill="black" stroke="black" stroke-width="3" points="1120.4,-659.26 1130.2,-655.24 1120.03,-652.27 1120.4,-659.26"/>
</g>
<!-- x28&#45;&gt;n5 -->
<g id="edge66" class="edge">
<title>x28:e&#45;&gt;n5:w</title>
<path fill="none" stroke="black" stroke-width="3" d="M1210.74,-655.25C1240.55,-655.25 1241.08,-622.9 1263.58,-614.82"/>
<polygon fill="black" stroke="black" stroke-width="3" points="1260.92,-618.79 1270.23,-613.73 1259.8,-611.89 1260.92,-618.79"/>
</g>
<!-- n16&#45;&gt;x7 -->
<g id="edge37" class="edge">
<title>n16:e&#45;&gt;x7:w</title>
<path fill="none" stroke="black" stroke-width="3" d="M683.19,-389C772.4,-389 658.11,-573.49 729.04,-590.06"/>
<polygon fill="black" stroke="black" stroke-width="3" points="725.49,-593.21 735.8,-590.77 726.22,-586.25 725.49,-593.21"/>
</g>
<!-- n16&#45;&gt;x24 -->
<g id="edge36" class="edge">
<title>n16:e&#45;&gt;x24:w</title>
<path fill="none" stroke="black" stroke-width="3" d="M683.19,-389C703.65,-389 698.01,-360.12 708.68,-349.29"/>
<polygon fill="black" stroke="black" stroke-width="3" points="706.87,-353.73 714.95,-346.88 704.36,-347.19 706.87,-353.73"/>
</g>
<!-- n5&#45;&gt;x10 -->
<g id="edge68" class="edge">
<title>n5:e&#45;&gt;x10:w</title>
<path fill="none" stroke="black" stroke-width="3" d="M1281.27,-613C1312.25,-613 1322.72,-613.19 1348.9,-613.24"/>
<polygon fill="black" stroke="black" stroke-width="3" points="1345.69,-616.74 1355.7,-613.25 1345.7,-609.74 1345.69,-616.74"/>
</g>
</g>
</svg>
