<?xml version="1.0" encoding="UTF-8" standalone="no"?>
<!DOCTYPE svg PUBLIC "-//W3C//DTD SVG 1.1//EN"
 "http://www.w3.org/Graphics/SVG/1.1/DTD/svg11.dtd">
<!-- Generated by graphviz version 12.2.1 (20241206.2353)
 -->
<!-- Title: top Pages: 1 -->
<svg width="2882pt" height="441pt"
 viewBox="0.00 0.00 2881.99 441.40" xmlns="http://www.w3.org/2000/svg" xmlns:xlink="http://www.w3.org/1999/xlink">
<g id="graph0" class="graph" transform="scale(1 1) rotate(0) translate(4 437.4)">
<title>top</title>
<polygon fill="white" stroke="none" points="-4,4 -4,-437.4 2877.99,-437.4 2877.99,4 -4,4"/>
<text text-anchor="middle" x="1437" y="-7.2" font-family="Times,serif" font-size="14.00">top</text>
<!-- n7 -->
<g id="node1" class="node">
<title>n7</title>
<polygon fill="none" stroke="black" points="107.84,-144.54 107.84,-159.46 76.26,-170 31.59,-170 0,-159.46 0,-144.54 31.59,-134 76.26,-134 107.84,-144.54"/>
<text text-anchor="middle" x="53.92" y="-146.95" font-family="Times,serif" font-size="14.00">input_data</text>
</g>
<!-- x0 -->
<g id="node9" class="node">
<title>x0</title>
<path fill="none" stroke="black" d="M155.84,-189C155.84,-189 194.34,-189 194.34,-189 200.34,-189 206.34,-195 206.34,-201 206.34,-201 206.34,-213 206.34,-213 206.34,-219 200.34,-225 194.34,-225 194.34,-225 155.84,-225 155.84,-225 149.84,-225 143.84,-219 143.84,-213 143.84,-213 143.84,-201 143.84,-201 143.84,-195 149.84,-189 155.84,-189"/>
<text text-anchor="middle" x="175.09" y="-202.2" font-family="Times,serif" font-size="14.00">2:0 &#45; 2:0</text>
</g>
<!-- n7&#45;&gt;x0 -->
<g id="edge41" class="edge">
<title>n7:e&#45;&gt;x0:w</title>
<path fill="none" stroke="black" stroke-width="3" d="M107.84,-152C132.34,-152 120.56,-190.61 133.15,-203.28"/>
<polygon fill="black" stroke="black" stroke-width="3" points="128.99,-205.46 139.58,-205.67 131.43,-198.9 128.99,-205.46"/>
</g>
<!-- x1 -->
<g id="node10" class="node">
<title>x1</title>
<path fill="none" stroke="black" d="M155.84,-134C155.84,-134 194.34,-134 194.34,-134 200.34,-134 206.34,-140 206.34,-146 206.34,-146 206.34,-158 206.34,-158 206.34,-164 200.34,-170 194.34,-170 194.34,-170 155.84,-170 155.84,-170 149.84,-170 143.84,-164 143.84,-158 143.84,-158 143.84,-146 143.84,-146 143.84,-140 149.84,-134 155.84,-134"/>
<text text-anchor="middle" x="175.09" y="-147.2" font-family="Times,serif" font-size="14.00">2:0 &#45; 2:0</text>
</g>
<!-- n7&#45;&gt;x1 -->
<g id="edge43" class="edge">
<title>n7:e&#45;&gt;x1:w</title>
<path fill="none" stroke="black" stroke-width="3" d="M107.84,-152C119.22,-152 124.53,-152.13 132.39,-152.2"/>
<polygon fill="black" stroke="black" stroke-width="3" points="129.28,-155.69 139.3,-152.23 129.32,-148.69 129.28,-155.69"/>
</g>
<!-- x3 -->
<g id="node15" class="node">
<title>x3</title>
<path fill="none" stroke="black" d="M408.09,-73C408.09,-73 446.59,-73 446.59,-73 452.59,-73 458.59,-79 458.59,-85 458.59,-85 458.59,-97 458.59,-97 458.59,-103 452.59,-109 446.59,-109 446.59,-109 408.09,-109 408.09,-109 402.09,-109 396.09,-103 396.09,-97 396.09,-97 396.09,-85 396.09,-85 396.09,-79 402.09,-73 408.09,-73"/>
<text text-anchor="middle" x="427.34" y="-86.2" font-family="Times,serif" font-size="14.00">2:2 &#45; 0:0</text>
</g>
<!-- n7&#45;&gt;x3 -->
<g id="edge44" class="edge">
<title>n7:e&#45;&gt;x3:w</title>
<path fill="none" stroke="black" d="M107.84,-152C127.84,-152 125.33,-132.58 143.84,-125 244.55,-83.78 279.99,-90.7 383.81,-91.22"/>
<polygon fill="black" stroke="black" points="383.57,-94.72 393.58,-91.25 383.59,-87.72 383.57,-94.72"/>
</g>
<!-- x4 -->
<g id="node17" class="node">
<title>x4</title>
<path fill="none" stroke="black" d="M546.22,-25C546.22,-25 584.72,-25 584.72,-25 590.72,-25 596.72,-31 596.72,-37 596.72,-37 596.72,-49 596.72,-49 596.72,-55 590.72,-61 584.72,-61 584.72,-61 546.22,-61 546.22,-61 540.22,-61 534.22,-55 534.22,-49 534.22,-49 534.22,-37 534.22,-37 534.22,-31 540.22,-25 546.22,-25"/>
<text text-anchor="middle" x="565.47" y="-38.2" font-family="Times,serif" font-size="14.00">2:2 &#45; 0:0</text>
</g>
<!-- n7&#45;&gt;x4 -->
<g id="edge45" class="edge">
<title>n7:e&#45;&gt;x4:w</title>
<path fill="none" stroke="black" d="M107.84,-152C136.32,-152 119.79,-114.25 143.84,-99 288.29,-7.37 355.48,-41.68 522.1,-43.2"/>
<polygon fill="black" stroke="black" points="521.69,-46.7 531.7,-43.24 521.72,-39.7 521.69,-46.7"/>
</g>
<!-- x10 -->
<g id="node28" class="node">
<title>x10</title>
<path fill="none" stroke="black" d="M269.97,-243C269.97,-243 308.47,-243 308.47,-243 314.47,-243 320.47,-249 320.47,-255 320.47,-255 320.47,-267 320.47,-267 320.47,-273 314.47,-279 308.47,-279 308.47,-279 269.97,-279 269.97,-279 263.97,-279 257.97,-273 257.97,-267 257.97,-267 257.97,-255 257.97,-255 257.97,-249 263.97,-243 269.97,-243"/>
<text text-anchor="middle" x="289.22" y="-256.2" font-family="Times,serif" font-size="14.00">2:2 &#45; 0:0</text>
</g>
<!-- n7&#45;&gt;x10 -->
<g id="edge42" class="edge">
<title>n7:e&#45;&gt;x10:w</title>
<path fill="none" stroke="black" d="M107.84,-152C148.05,-152 112.95,-209.26 143.84,-235 180.47,-265.53 201.92,-262.05 245.67,-261.35"/>
<polygon fill="black" stroke="black" points="245.48,-264.85 255.45,-261.26 245.42,-257.85 245.48,-264.85"/>
</g>
<!-- n8 -->
<g id="node2" class="node">
<title>n8</title>
<polygon fill="none" stroke="black" points="2460.26,-304.54 2460.26,-319.46 2425.75,-330 2376.95,-330 2342.45,-319.46 2342.45,-304.54 2376.95,-294 2425.75,-294 2460.26,-304.54"/>
<text text-anchor="middle" x="2401.35" y="-306.95" font-family="Times,serif" font-size="14.00">output_data</text>
</g>
<!-- x12 -->
<g id="node31" class="node">
<title>x12</title>
<path fill="none" stroke="black" d="M2530.38,-236.5C2530.38,-236.5 2568.88,-236.5 2568.88,-236.5 2574.88,-236.5 2580.88,-242.5 2580.88,-248.5 2580.88,-248.5 2580.88,-273.5 2580.88,-273.5 2580.88,-279.5 2574.88,-285.5 2568.88,-285.5 2568.88,-285.5 2530.38,-285.5 2530.38,-285.5 2524.38,-285.5 2518.38,-279.5 2518.38,-273.5 2518.38,-273.5 2518.38,-248.5 2518.38,-248.5 2518.38,-242.5 2524.38,-236.5 2530.38,-236.5"/>
<text text-anchor="middle" x="2549.63" y="-268.2" font-family="Times,serif" font-size="14.00">4:2 &#45; 3:1</text>
<polyline fill="none" stroke="black" points="2518.38,-261 2580.88,-261"/>
<text text-anchor="middle" x="2549.63" y="-243.7" font-family="Times,serif" font-size="14.00">0:0 &#45; 0:0</text>
</g>
<!-- n8&#45;&gt;x12 -->
<g id="edge51" class="edge">
<title>n8:e&#45;&gt;x12:w</title>
<path fill="none" stroke="black" stroke-width="3" d="M2460.26,-312C2486.62,-312 2487.2,-283.38 2506.32,-275.33"/>
<polygon fill="black" stroke="black" stroke-width="3" points="2503.74,-279.38 2512.92,-274.09 2502.45,-272.5 2503.74,-279.38"/>
</g>
<!-- x14 -->
<g id="node33" class="node">
<title>x14</title>
<path fill="none" stroke="black" d="M2508.26,-342.5C2508.26,-342.5 2591.01,-342.5 2591.01,-342.5 2597.01,-342.5 2603.01,-348.5 2603.01,-354.5 2603.01,-354.5 2603.01,-379.5 2603.01,-379.5 2603.01,-385.5 2597.01,-391.5 2591.01,-391.5 2591.01,-391.5 2508.26,-391.5 2508.26,-391.5 2502.26,-391.5 2496.26,-385.5 2496.26,-379.5 2496.26,-379.5 2496.26,-354.5 2496.26,-354.5 2496.26,-348.5 2502.26,-342.5 2508.26,-342.5"/>
<text text-anchor="middle" x="2549.63" y="-374.2" font-family="Times,serif" font-size="14.00">0 &#45;&gt; 25:15</text>
<polyline fill="none" stroke="black" points="2496.26,-367 2603.01,-367"/>
<text text-anchor="middle" x="2549.63" y="-349.7" font-family="Times,serif" font-size="14.00">15x 20:20 &#45; 14:0</text>
</g>
<!-- n8&#45;&gt;x14 -->
<g id="edge52" class="edge">
<title>n8:e&#45;&gt;x14:w</title>
<path fill="none" stroke="black" stroke-width="3" d="M2460.26,-312C2480.44,-312 2475.19,-340.22 2485.84,-350.8"/>
<polygon fill="black" stroke="black" stroke-width="3" points="2481.42,-352.87 2492.01,-353.14 2483.9,-346.33 2481.42,-352.87"/>
</g>
<!-- n9 -->
<g id="node3" class="node">
<title>n9</title>
<polygon fill="none" stroke="black" points="427.34,-216 372.09,-198 427.34,-180 482.59,-198 427.34,-216"/>
<text text-anchor="middle" x="427.34" y="-192.95" font-family="Times,serif" font-size="14.00">temp_0</text>
</g>
<!-- c18 -->
<g id="node11" class="node">
<title>c18</title>
<polygon fill="none" stroke="black" points="518.59,-185.5 518.59,-234.5 612.34,-234.5 612.34,-185.5 518.59,-185.5"/>
<text text-anchor="middle" x="531.47" y="-217.2" font-family="Times,serif" font-size="14.00">A</text>
<polyline fill="none" stroke="black" points="518.59,-210 544.34,-210"/>
<text text-anchor="middle" x="531.47" y="-192.7" font-family="Times,serif" font-size="14.00">B</text>
<polyline fill="none" stroke="black" points="544.34,-185.5 544.34,-234.5"/>
<text text-anchor="middle" x="565.47" y="-213.2" font-family="Times,serif" font-size="14.00">$4</text>
<text text-anchor="middle" x="565.47" y="-196.7" font-family="Times,serif" font-size="14.00">$and</text>
<polyline fill="none" stroke="black" points="586.59,-185.5 586.59,-234.5"/>
<text text-anchor="middle" x="599.47" y="-205.2" font-family="Times,serif" font-size="14.00">Y</text>
</g>
<!-- n9&#45;&gt;c18 -->
<g id="edge54" class="edge">
<title>n9:e&#45;&gt;c18:w</title>
<path fill="none" stroke="black" stroke-width="3" d="M482.59,-198C497.21,-198 499.27,-211.93 507.8,-218.67"/>
<polygon fill="black" stroke="black" stroke-width="3" points="503.69,-220.99 514.28,-220.82 505.89,-214.35 503.69,-220.99"/>
</g>
<!-- n9&#45;&gt;c18 -->
<g id="edge55" class="edge">
<title>n9:e&#45;&gt;c18:w</title>
<path fill="none" stroke="black" stroke-width="3" d="M482.59,-198C493.97,-198 499.28,-197.87 507.15,-197.8"/>
<polygon fill="black" stroke="black" stroke-width="3" points="504.07,-201.31 514.05,-197.77 504.04,-194.31 504.07,-201.31"/>
</g>
<!-- n10 -->
<g id="node4" class="node">
<title>n10</title>
<polygon fill="none" stroke="black" points="703.59,-238 648.34,-220 703.59,-202 758.84,-220 703.59,-238"/>
<text text-anchor="middle" x="703.59" y="-214.95" font-family="Times,serif" font-size="14.00">temp_1</text>
</g>
<!-- x5 -->
<g id="node19" class="node">
<title>x5</title>
<path fill="none" stroke="black" d="M1095.72,-119C1095.72,-119 1134.22,-119 1134.22,-119 1140.22,-119 1146.22,-125 1146.22,-131 1146.22,-131 1146.22,-143 1146.22,-143 1146.22,-149 1140.22,-155 1134.22,-155 1134.22,-155 1095.72,-155 1095.72,-155 1089.72,-155 1083.72,-149 1083.72,-143 1083.72,-143 1083.72,-131 1083.72,-131 1083.72,-125 1089.72,-119 1095.72,-119"/>
<text text-anchor="middle" x="1114.97" y="-132.2" font-family="Times,serif" font-size="14.00">2:1 &#45; 1:0</text>
</g>
<!-- n10&#45;&gt;x5 -->
<g id="edge22" class="edge">
<title>n10:e&#45;&gt;x5:w</title>
<path fill="none" stroke="black" stroke-width="3" d="M758.84,-220C783.09,-220 773.69,-190.86 794.84,-179 904.3,-117.62 950.69,-136.06 1071.57,-137.2"/>
<polygon fill="black" stroke="black" stroke-width="3" points="1068.16,-140.68 1078.18,-137.23 1068.2,-133.68 1068.16,-140.68"/>
</g>
<!-- x9 -->
<g id="node24" class="node">
<title>x9</title>
<path fill="none" stroke="black" d="M957.59,-166C957.59,-166 996.09,-166 996.09,-166 1002.09,-166 1008.09,-172 1008.09,-178 1008.09,-178 1008.09,-190 1008.09,-190 1008.09,-196 1002.09,-202 996.09,-202 996.09,-202 957.59,-202 957.59,-202 951.59,-202 945.59,-196 945.59,-190 945.59,-190 945.59,-178 945.59,-178 945.59,-172 951.59,-166 957.59,-166"/>
<text text-anchor="middle" x="976.84" y="-179.2" font-family="Times,serif" font-size="14.00">1:1 &#45; 0:0</text>
</g>
<!-- n10&#45;&gt;x9 -->
<g id="edge23" class="edge">
<title>n10:e&#45;&gt;x9:w</title>
<path fill="none" stroke="black" d="M758.84,-220C777.37,-220 777.22,-204.71 794.84,-199 854.74,-179.61 875.31,-183.66 933.31,-184.2"/>
<polygon fill="black" stroke="black" points="933.06,-187.7 943.08,-184.24 933.1,-180.7 933.06,-187.7"/>
</g>
<!-- c25 -->
<g id="node26" class="node">
<title>c25</title>
<polygon fill="none" stroke="black" points="797.47,-208.5 797.47,-257.5 882.97,-257.5 882.97,-208.5 797.47,-208.5"/>
<text text-anchor="middle" x="810.34" y="-240.2" font-family="Times,serif" font-size="14.00">A</text>
<polyline fill="none" stroke="black" points="797.47,-233 823.22,-233"/>
<text text-anchor="middle" x="810.34" y="-215.7" font-family="Times,serif" font-size="14.00">B</text>
<polyline fill="none" stroke="black" points="823.22,-208.5 823.22,-257.5"/>
<text text-anchor="middle" x="840.22" y="-236.2" font-family="Times,serif" font-size="14.00">$6</text>
<text text-anchor="middle" x="840.22" y="-219.7" font-family="Times,serif" font-size="14.00">$or</text>
<polyline fill="none" stroke="black" points="857.22,-208.5 857.22,-257.5"/>
<text text-anchor="middle" x="870.09" y="-228.2" font-family="Times,serif" font-size="14.00">Y</text>
</g>
<!-- n10&#45;&gt;c25 -->
<g id="edge19" class="edge">
<title>n10:e&#45;&gt;c25:w</title>
<path fill="none" stroke="black" stroke-width="3" d="M758.84,-220C774.42,-220 776.36,-235.1 785.76,-241.95"/>
<polygon fill="black" stroke="black" stroke-width="3" points="781.54,-244.31 792.13,-243.91 783.6,-237.62 781.54,-244.31"/>
</g>
<!-- n10&#45;&gt;c25 -->
<g id="edge20" class="edge">
<title>n10:e&#45;&gt;c25:w</title>
<path fill="none" stroke="black" stroke-width="3" d="M758.84,-220C771,-220 776.52,-220.4 785.05,-220.61"/>
<polygon fill="black" stroke="black" stroke-width="3" points="781.89,-224.07 791.93,-220.7 781.97,-217.07 781.89,-224.07"/>
</g>
<!-- c26 -->
<g id="node27" class="node">
<title>c26</title>
<polygon fill="none" stroke="black" points="794.84,-276.5 794.84,-325.5 885.59,-325.5 885.59,-276.5 794.84,-276.5"/>
<text text-anchor="middle" x="807.72" y="-308.2" font-family="Times,serif" font-size="14.00">A</text>
<polyline fill="none" stroke="black" points="794.84,-301 820.59,-301"/>
<text text-anchor="middle" x="807.72" y="-283.7" font-family="Times,serif" font-size="14.00">B</text>
<polyline fill="none" stroke="black" points="820.59,-276.5 820.59,-325.5"/>
<text text-anchor="middle" x="840.22" y="-304.2" font-family="Times,serif" font-size="14.00">$11</text>
<text text-anchor="middle" x="840.22" y="-287.7" font-family="Times,serif" font-size="14.00">$shr</text>
<polyline fill="none" stroke="black" points="859.84,-276.5 859.84,-325.5"/>
<text text-anchor="middle" x="872.72" y="-296.2" font-family="Times,serif" font-size="14.00">Y</text>
</g>
<!-- n10&#45;&gt;c26 -->
<g id="edge21" class="edge">
<title>n10:e&#45;&gt;c26:w</title>
<path fill="none" stroke="black" stroke-width="3" d="M758.84,-220C788.75,-220 767.92,-271.7 784.35,-285.43"/>
<polygon fill="black" stroke="black" stroke-width="3" points="779.92,-287.7 790.51,-287.38 782.03,-281.03 779.92,-287.7"/>
</g>
<!-- n11 -->
<g id="node5" class="node">
<title>n11</title>
<polygon fill="none" stroke="black" points="976.84,-257 921.59,-239 976.84,-221 1032.09,-239 976.84,-257"/>
<text text-anchor="middle" x="976.84" y="-233.95" font-family="Times,serif" font-size="14.00">temp_3</text>
</g>
<!-- c19 -->
<g id="node12" class="node">
<title>c19</title>
<polygon fill="none" stroke="black" points="1068.09,-219.5 1068.09,-268.5 1161.84,-268.5 1161.84,-219.5 1068.09,-219.5"/>
<text text-anchor="middle" x="1080.97" y="-251.2" font-family="Times,serif" font-size="14.00">A</text>
<polyline fill="none" stroke="black" points="1068.09,-244 1093.84,-244"/>
<text text-anchor="middle" x="1080.97" y="-226.7" font-family="Times,serif" font-size="14.00">B</text>
<polyline fill="none" stroke="black" points="1093.84,-219.5 1093.84,-268.5"/>
<text text-anchor="middle" x="1114.97" y="-247.2" font-family="Times,serif" font-size="14.00">$7</text>
<text text-anchor="middle" x="1114.97" y="-230.7" font-family="Times,serif" font-size="14.00">$and</text>
<polyline fill="none" stroke="black" points="1136.09,-219.5 1136.09,-268.5"/>
<text text-anchor="middle" x="1148.97" y="-239.2" font-family="Times,serif" font-size="14.00">Y</text>
</g>
<!-- n11&#45;&gt;c19 -->
<g id="edge25" class="edge">
<title>n11:e&#45;&gt;c19:w</title>
<path fill="none" stroke="black" stroke-width="3" d="M1032.09,-239C1045.26,-239 1048.94,-248.5 1057.22,-253.4"/>
<polygon fill="black" stroke="black" stroke-width="3" points="1053.14,-255.95 1063.7,-255.1 1054.91,-249.18 1053.14,-255.95"/>
</g>
<!-- n11&#45;&gt;c19 -->
<g id="edge26" class="edge">
<title>n11:e&#45;&gt;c19:w</title>
<path fill="none" stroke="black" stroke-width="3" d="M1032.09,-239C1043.82,-239 1048.86,-235.25 1056.82,-233.15"/>
<polygon fill="black" stroke="black" stroke-width="3" points="1054.09,-237.01 1063.59,-232.31 1053.23,-230.07 1054.09,-237.01"/>
</g>
<!-- n12 -->
<g id="node6" class="node">
<title>n12</title>
<polygon fill="none" stroke="black" points="1878.19,-245 1822.94,-227 1878.19,-209 1933.45,-227 1878.19,-245"/>
<text text-anchor="middle" x="1878.19" y="-221.95" font-family="Times,serif" font-size="14.00">temp_5</text>
</g>
<!-- c24 -->
<g id="node25" class="node">
<title>c24</title>
<polygon fill="none" stroke="black" points="1969.45,-253.5 1969.45,-302.5 2065.45,-302.5 2065.45,-253.5 1969.45,-253.5"/>
<text text-anchor="middle" x="1982.32" y="-285.2" font-family="Times,serif" font-size="14.00">A</text>
<polyline fill="none" stroke="black" points="1969.45,-278 1995.2,-278"/>
<text text-anchor="middle" x="1982.32" y="-260.7" font-family="Times,serif" font-size="14.00">B</text>
<polyline fill="none" stroke="black" points="1995.2,-253.5 1995.2,-302.5"/>
<text text-anchor="middle" x="2017.45" y="-281.2" font-family="Times,serif" font-size="14.00">$12</text>
<text text-anchor="middle" x="2017.45" y="-264.7" font-family="Times,serif" font-size="14.00">$mul</text>
<polyline fill="none" stroke="black" points="2039.7,-253.5 2039.7,-302.5"/>
<text text-anchor="middle" x="2052.57" y="-273.2" font-family="Times,serif" font-size="14.00">Y</text>
</g>
<!-- n12&#45;&gt;c24 -->
<g id="edge28" class="edge">
<title>n12:e&#45;&gt;c24:w</title>
<path fill="none" stroke="black" stroke-width="3" d="M1933.45,-227C1952.18,-227 1948.99,-251.61 1958.81,-261.6"/>
<polygon fill="black" stroke="black" stroke-width="3" points="1954.63,-263.73 1965.21,-264.1 1957.17,-257.2 1954.63,-263.73"/>
</g>
<!-- c27 -->
<g id="node29" class="node">
<title>c27</title>
<polygon fill="none" stroke="black" points="2101.45,-212.5 2101.45,-261.5 2194.45,-261.5 2194.45,-212.5 2101.45,-212.5"/>
<text text-anchor="middle" x="2114.32" y="-244.2" font-family="Times,serif" font-size="14.00">A</text>
<polyline fill="none" stroke="black" points="2101.45,-237 2127.2,-237"/>
<text text-anchor="middle" x="2114.32" y="-219.7" font-family="Times,serif" font-size="14.00">B</text>
<polyline fill="none" stroke="black" points="2127.2,-212.5 2127.2,-261.5"/>
<text text-anchor="middle" x="2147.95" y="-240.2" font-family="Times,serif" font-size="14.00">$13</text>
<text text-anchor="middle" x="2147.95" y="-223.7" font-family="Times,serif" font-size="14.00">$sub</text>
<polyline fill="none" stroke="black" points="2168.7,-212.5 2168.7,-261.5"/>
<text text-anchor="middle" x="2181.57" y="-232.2" font-family="Times,serif" font-size="14.00">Y</text>
</g>
<!-- n12&#45;&gt;c27 -->
<g id="edge29" class="edge">
<title>n12:e&#45;&gt;c27:w</title>
<path fill="none" stroke="black" stroke-width="3" d="M1933.45,-227C2004.18,-227 2024.65,-224.98 2090.08,-224.77"/>
<polygon fill="black" stroke="black" stroke-width="3" points="2086.91,-228.27 2096.9,-224.76 2086.9,-221.27 2086.91,-228.27"/>
</g>
<!-- n13 -->
<g id="node7" class="node">
<title>n13</title>
<polygon fill="none" stroke="black" points="2401.35,-184 2346.1,-166 2401.35,-148 2456.6,-166 2401.35,-184"/>
<text text-anchor="middle" x="2401.35" y="-160.95" font-family="Times,serif" font-size="14.00">temp_6</text>
</g>
<!-- x6 -->
<g id="node20" class="node">
<title>x6</title>
<path fill="none" stroke="black" d="M2816.11,-171.5C2816.11,-171.5 2854.61,-171.5 2854.61,-171.5 2860.61,-171.5 2866.61,-177.5 2866.61,-183.5 2866.61,-183.5 2866.61,-208.5 2866.61,-208.5 2866.61,-214.5 2860.61,-220.5 2854.61,-220.5 2854.61,-220.5 2816.11,-220.5 2816.11,-220.5 2810.11,-220.5 2804.11,-214.5 2804.11,-208.5 2804.11,-208.5 2804.11,-183.5 2804.11,-183.5 2804.11,-177.5 2810.11,-171.5 2816.11,-171.5"/>
<text text-anchor="middle" x="2835.36" y="-203.2" font-family="Times,serif" font-size="14.00">1:1 &#45; 1:1</text>
<polyline fill="none" stroke="black" points="2804.11,-196 2866.61,-196"/>
<text text-anchor="middle" x="2835.36" y="-178.7" font-family="Times,serif" font-size="14.00">0:0 &#45; 0:0</text>
</g>
<!-- n13&#45;&gt;x6 -->
<g id="edge32" class="edge">
<title>n13:e&#45;&gt;x6:w</title>
<path fill="none" stroke="black" d="M2458.98,-166C2608.67,-166 2648.51,-182.86 2792.63,-183.72"/>
<polygon fill="black" stroke="black" points="2792.58,-187.22 2802.59,-183.75 2792.6,-180.22 2792.58,-187.22"/>
</g>
<!-- n13&#45;&gt;x12 -->
<g id="edge31" class="edge">
<title>n13:e&#45;&gt;x12:w</title>
<path fill="none" stroke="black" d="M2458.98,-166C2499.6,-166 2477.81,-233.38 2506.24,-246.54"/>
<polygon fill="black" stroke="black" points="2505.41,-249.94 2515.9,-248.45 2506.77,-243.07 2505.41,-249.94"/>
</g>
<!-- c17 -->
<g id="node8" class="node">
<title>c17</title>
<polygon fill="none" stroke="black" points="242.34,-170.5 242.34,-219.5 336.09,-219.5 336.09,-170.5 242.34,-170.5"/>
<text text-anchor="middle" x="255.22" y="-202.2" font-family="Times,serif" font-size="14.00">A</text>
<polyline fill="none" stroke="black" points="242.34,-195 268.09,-195"/>
<text text-anchor="middle" x="255.22" y="-177.7" font-family="Times,serif" font-size="14.00">B</text>
<polyline fill="none" stroke="black" points="268.09,-170.5 268.09,-219.5"/>
<text text-anchor="middle" x="289.22" y="-198.2" font-family="Times,serif" font-size="14.00">$3</text>
<text text-anchor="middle" x="289.22" y="-181.7" font-family="Times,serif" font-size="14.00">$add</text>
<polyline fill="none" stroke="black" points="310.34,-170.5 310.34,-219.5"/>
<text text-anchor="middle" x="323.22" y="-190.2" font-family="Times,serif" font-size="14.00">Y</text>
</g>
<!-- c17&#45;&gt;n9 -->
<g id="edge53" class="edge">
<title>c17:e&#45;&gt;n9:w</title>
<path fill="none" stroke="black" stroke-width="3" d="M336.09,-195.25C347.5,-195.25 352.77,-196.64 360.63,-197.44"/>
<polygon fill="black" stroke="black" stroke-width="3" points="357.4,-200.79 367.56,-197.78 357.74,-193.8 357.4,-200.79"/>
</g>
<!-- x0&#45;&gt;c17 -->
<g id="edge1" class="edge">
<title>x0:e&#45;&gt;c17:w</title>
<path fill="none" stroke="black" stroke-width="3" d="M219.06,-207.06C222.66,-207.1 225.79,-207.15 229.37,-207.18"/>
<polygon fill="none" stroke="black" stroke-width="3" points="221.04,-207.07 215.03,-211.04 209.05,-207.01 215.06,-203.04 221.04,-207.07"/>
<polygon fill="none" stroke="black" stroke-width="3" points="227.64,-207.18 233.66,-203.21 239.64,-207.24 233.62,-211.21 227.64,-207.18"/>
</g>
<!-- x1&#45;&gt;c17 -->
<g id="edge2" class="edge">
<title>x1:e&#45;&gt;c17:w</title>
<path fill="none" stroke="black" stroke-width="3" d="M218.14,-157.08C223.33,-162.81 225.4,-172.07 230.63,-177.77"/>
<polygon fill="none" stroke="black" stroke-width="3" points="219.85,-157.81 212.75,-159.12 208.82,-153.07 215.92,-151.77 219.85,-157.81"/>
<polygon fill="none" stroke="black" stroke-width="3" points="228.81,-176.99 235.9,-175.66 239.85,-181.69 232.77,-183.02 228.81,-176.99"/>
</g>
<!-- c18&#45;&gt;n10 -->
<g id="edge18" class="edge">
<title>c18:e&#45;&gt;n10:w</title>
<path fill="none" stroke="black" stroke-width="3" d="M612.34,-210.25C624.26,-210.25 629.08,-215.29 637,-218.12"/>
<polygon fill="black" stroke="black" stroke-width="3" points="633.42,-221.07 643.86,-219.26 634.57,-214.17 633.42,-221.07"/>
</g>
<!-- n1 -->
<g id="node35" class="node">
<title>n1</title>
<ellipse fill="black" stroke="black" cx="1199.64" cy="-244" rx="1.8" ry="1.8"/>
</g>
<!-- c19&#45;&gt;n1 -->
<g id="edge15" class="edge">
<title>c19:e&#45;&gt;n1:w</title>
<path fill="none" stroke="black" stroke-width="3" d="M1161.84,-244.25C1173.22,-244.25 1178.53,-244.12 1186.4,-244.05"/>
<polygon fill="black" stroke="black" stroke-width="3" points="1183.32,-247.56 1193.3,-244.02 1183.29,-240.56 1183.32,-247.56"/>
</g>
<!-- c20 -->
<g id="node13" class="node">
<title>c20</title>
<polygon fill="none" stroke="black" points="1335.94,-205.5 1335.94,-254.5 1428.19,-254.5 1428.19,-205.5 1335.94,-205.5"/>
<text text-anchor="middle" x="1348.82" y="-237.2" font-family="Times,serif" font-size="14.00">A</text>
<polyline fill="none" stroke="black" points="1335.94,-230 1361.69,-230"/>
<text text-anchor="middle" x="1348.82" y="-212.7" font-family="Times,serif" font-size="14.00">B</text>
<polyline fill="none" stroke="black" points="1361.69,-205.5 1361.69,-254.5"/>
<text text-anchor="middle" x="1382.07" y="-233.2" font-family="Times,serif" font-size="14.00">$43</text>
<text text-anchor="middle" x="1382.07" y="-216.7" font-family="Times,serif" font-size="14.00">$xor</text>
<polyline fill="none" stroke="black" points="1402.44,-205.5 1402.44,-254.5"/>
<text text-anchor="middle" x="1415.32" y="-225.2" font-family="Times,serif" font-size="14.00">Y</text>
</g>
<!-- c21 -->
<g id="node16" class="node">
<title>c21</title>
<polygon fill="none" stroke="black" points="1464.19,-205.5 1464.19,-254.5 1556.44,-254.5 1556.44,-205.5 1464.19,-205.5"/>
<text text-anchor="middle" x="1477.07" y="-237.2" font-family="Times,serif" font-size="14.00">A</text>
<polyline fill="none" stroke="black" points="1464.19,-230 1489.94,-230"/>
<text text-anchor="middle" x="1477.07" y="-212.7" font-family="Times,serif" font-size="14.00">B</text>
<polyline fill="none" stroke="black" points="1489.94,-205.5 1489.94,-254.5"/>
<text text-anchor="middle" x="1510.32" y="-233.2" font-family="Times,serif" font-size="14.00">$46</text>
<text text-anchor="middle" x="1510.32" y="-216.7" font-family="Times,serif" font-size="14.00">$xor</text>
<polyline fill="none" stroke="black" points="1530.69,-205.5 1530.69,-254.5"/>
<text text-anchor="middle" x="1543.57" y="-225.2" font-family="Times,serif" font-size="14.00">Y</text>
</g>
<!-- c20&#45;&gt;c21 -->
<g id="edge33" class="edge">
<title>c20:e&#45;&gt;c21:w</title>
<path fill="none" stroke="black" d="M1428.19,-230.25C1440.45,-230.25 1445,-236.58 1453.04,-240.05"/>
<polygon fill="black" stroke="black" points="1452.22,-243.46 1462.71,-241.96 1453.58,-236.59 1452.22,-243.46"/>
</g>
<!-- x2 -->
<g id="node14" class="node">
<title>x2</title>
<path fill="none" stroke="black" d="M1249.44,-218C1249.44,-218 1287.94,-218 1287.94,-218 1293.94,-218 1299.94,-224 1299.94,-230 1299.94,-230 1299.94,-242 1299.94,-242 1299.94,-248 1293.94,-254 1287.94,-254 1287.94,-254 1249.44,-254 1249.44,-254 1243.44,-254 1237.44,-248 1237.44,-242 1237.44,-242 1237.44,-230 1237.44,-230 1237.44,-224 1243.44,-218 1249.44,-218"/>
<text text-anchor="middle" x="1268.69" y="-231.2" font-family="Times,serif" font-size="14.00">0:0 &#45; 0:0</text>
</g>
<!-- x2&#45;&gt;c20 -->
<g id="edge3" class="edge">
<title>x2:e&#45;&gt;c20:w</title>
<path fill="none" stroke="black" d="M1312.72,-237.58C1316.4,-238.53 1319.56,-239.74 1323.25,-240.7"/>
<polygon fill="none" stroke="black" points="1312.75,-237.58 1306.3,-240.82 1300.84,-236.11 1307.28,-232.88 1312.75,-237.58"/>
<polygon fill="none" stroke="black" points="1323.14,-240.68 1329.58,-237.44 1335.05,-242.14 1328.61,-245.38 1323.14,-240.68"/>
</g>
<!-- x3&#45;&gt;c20 -->
<g id="edge4" class="edge">
<title>x3:e&#45;&gt;c20:w</title>
<path fill="none" stroke="black" d="M472.48,-91C569.94,-90.92 599.02,-90 702.59,-90 702.59,-90 702.59,-90 1200.64,-90 1278.82,-90 1256.2,-204.16 1323.35,-216.65"/>
<polygon fill="none" stroke="black" points="472.49,-90.99 466.49,-95 460.49,-91 466.49,-87 472.49,-90.99"/>
<polygon fill="none" stroke="black" points="1323.09,-216.62 1329.42,-213.16 1335.05,-217.67 1328.72,-221.13 1323.09,-216.62"/>
</g>
<!-- x8 -->
<g id="node23" class="node">
<title>x8</title>
<path fill="none" stroke="black" d="M1604.44,-217.5C1604.44,-217.5 1642.94,-217.5 1642.94,-217.5 1648.94,-217.5 1654.94,-223.5 1654.94,-229.5 1654.94,-229.5 1654.94,-254.5 1654.94,-254.5 1654.94,-260.5 1648.94,-266.5 1642.94,-266.5 1642.94,-266.5 1604.44,-266.5 1604.44,-266.5 1598.44,-266.5 1592.44,-260.5 1592.44,-254.5 1592.44,-254.5 1592.44,-229.5 1592.44,-229.5 1592.44,-223.5 1598.44,-217.5 1604.44,-217.5"/>
<text text-anchor="middle" x="1623.69" y="-249.2" font-family="Times,serif" font-size="14.00">2:1 &#45; 2:1</text>
<polyline fill="none" stroke="black" points="1592.44,-242 1654.94,-242"/>
<text text-anchor="middle" x="1623.69" y="-224.7" font-family="Times,serif" font-size="14.00">0:0 &#45; 0:0</text>
</g>
<!-- c21&#45;&gt;x8 -->
<g id="edge34" class="edge">
<title>c21:e&#45;&gt;x8:w</title>
<path fill="none" stroke="black" d="M1556.44,-230.25C1567.82,-230.25 1573.13,-230 1581,-229.85"/>
<polygon fill="black" stroke="black" points="1580.96,-233.35 1590.93,-229.76 1580.9,-226.35 1580.96,-233.35"/>
</g>
<!-- x4&#45;&gt;c21 -->
<g id="edge5" class="edge">
<title>x4:e&#45;&gt;c21:w</title>
<path fill="none" stroke="black" d="M610.53,-43.02C707.41,-43.4 736.26,-48 839.22,-48 839.22,-48 839.22,-48 1269.69,-48 1295.46,-48 1408.77,-185.02 1452.33,-212.85"/>
<polygon fill="none" stroke="black" points="610.62,-43.02 604.61,-47.01 598.62,-43 604.63,-39.01 610.62,-43.02"/>
<polygon fill="none" stroke="black" points="1452.27,-212.83 1459.34,-211.42 1463.36,-217.41 1456.29,-218.82 1452.27,-212.83"/>
</g>
<!-- c22 -->
<g id="node18" class="node">
<title>c22</title>
<polygon fill="none" stroke="black" points="2101.82,-107.5 2101.82,-156.5 2194.07,-156.5 2194.07,-107.5 2101.82,-107.5"/>
<text text-anchor="middle" x="2114.7" y="-139.2" font-family="Times,serif" font-size="14.00">A</text>
<polyline fill="none" stroke="black" points="2101.82,-132 2127.57,-132"/>
<text text-anchor="middle" x="2114.7" y="-114.7" font-family="Times,serif" font-size="14.00">B</text>
<polyline fill="none" stroke="black" points="2127.57,-107.5 2127.57,-156.5"/>
<text text-anchor="middle" x="2147.95" y="-135.2" font-family="Times,serif" font-size="14.00">$49</text>
<text text-anchor="middle" x="2147.95" y="-118.7" font-family="Times,serif" font-size="14.00">$xor</text>
<polyline fill="none" stroke="black" points="2168.32,-107.5 2168.32,-156.5"/>
<text text-anchor="middle" x="2181.2" y="-127.2" font-family="Times,serif" font-size="14.00">Y</text>
</g>
<!-- x7 -->
<g id="node21" class="node">
<title>x7</title>
<path fill="none" stroke="black" d="M2249.2,-294C2249.2,-294 2287.7,-294 2287.7,-294 2293.7,-294 2299.7,-300 2299.7,-306 2299.7,-306 2299.7,-318 2299.7,-318 2299.7,-324 2293.7,-330 2287.7,-330 2287.7,-330 2249.2,-330 2249.2,-330 2243.2,-330 2237.2,-324 2237.2,-318 2237.2,-318 2237.2,-306 2237.2,-306 2237.2,-300 2243.2,-294 2249.2,-294"/>
<text text-anchor="middle" x="2268.45" y="-307.2" font-family="Times,serif" font-size="14.00">1:0 &#45; 1:0</text>
</g>
<!-- c22&#45;&gt;x7 -->
<g id="edge8" class="edge">
<title>c22:e&#45;&gt;x7:w</title>
<path fill="none" stroke="black" stroke-width="3" d="M2207.19,-134.15C2258.84,-152.12 2171.8,-292.13 2223.45,-310.1"/>
<polygon fill="none" stroke="black" stroke-width="3" points="2208.99,-134.42 2202.47,-137.49 2197.12,-132.65 2203.64,-129.58 2208.99,-134.42"/>
<polygon fill="none" stroke="black" stroke-width="3" points="2221.65,-309.83 2228.17,-306.76 2233.52,-311.6 2227,-314.67 2221.65,-309.83"/>
</g>
<!-- x5&#45;&gt;c22 -->
<g id="edge6" class="edge">
<title>x5:e&#45;&gt;c22:w</title>
<path fill="none" stroke="black" stroke-width="3" d="M1160.19,-137.02C1203.36,-137.16 1218.75,-138 1267.69,-138 1267.69,-138 1267.69,-138 1879.19,-138 1973.57,-138 2000.27,-143.7 2088.56,-144.21"/>
<polygon fill="none" stroke="black" stroke-width="3" points="1161.92,-137.02 1155.92,-141.01 1149.92,-137 1155.93,-133.01 1161.92,-137.02"/>
<polygon fill="none" stroke="black" stroke-width="3" points="2086.74,-144.21 2092.75,-140.23 2098.74,-144.24 2092.73,-148.23 2086.74,-144.21"/>
</g>
<!-- x6&#45;&gt;c22 -->
<g id="edge7" class="edge">
<title>x6:e&#45;&gt;c22:w</title>
<path fill="none" stroke="black" stroke-width="3" d="M2873.99,-207.38C2872.97,-212.24 2870.18,-217.57 2866.61,-221 2846.58,-240.25 2831.39,-226.23 2804.11,-221 2685.01,-198.15 2671.9,-120 2550.63,-120 2400.35,-120 2400.35,-120 2400.35,-120 2308.49,-120 2285.89,-109.89 2194.07,-107 2156.93,-105.83 2136.07,-83.92 2109.33,-110.03"/>
<polygon fill="none" stroke="black" stroke-width="3" points="2874.8,-208.82 2868.38,-205.55 2868.93,-198.36 2875.36,-201.63 2874.8,-208.82"/>
<polygon fill="none" stroke="black" stroke-width="3" points="2110.51,-108.69 2109.56,-115.84 2102.6,-117.72 2103.54,-110.57 2110.51,-108.69"/>
</g>
<!-- x7&#45;&gt;n8 -->
<g id="edge50" class="edge">
<title>x7:e&#45;&gt;n8:w</title>
<path fill="none" stroke="black" stroke-width="3" d="M2300.7,-312.25C2314.76,-312.25 2320.83,-312.11 2331.02,-312.04"/>
<polygon fill="black" stroke="black" stroke-width="3" points="2327.92,-315.55 2337.9,-312.01 2327.89,-308.55 2327.92,-315.55"/>
</g>
<!-- c23 -->
<g id="node22" class="node">
<title>c23</title>
<polygon fill="none" stroke="black" points="1690.94,-202.5 1690.94,-251.5 1786.94,-251.5 1786.94,-202.5 1690.94,-202.5"/>
<text text-anchor="middle" x="1703.82" y="-234.2" font-family="Times,serif" font-size="14.00">A</text>
<polyline fill="none" stroke="black" points="1690.94,-227 1716.69,-227"/>
<text text-anchor="middle" x="1703.82" y="-209.7" font-family="Times,serif" font-size="14.00">B</text>
<polyline fill="none" stroke="black" points="1716.69,-202.5 1716.69,-251.5"/>
<text text-anchor="middle" x="1738.94" y="-230.2" font-family="Times,serif" font-size="14.00">$10</text>
<text text-anchor="middle" x="1738.94" y="-213.7" font-family="Times,serif" font-size="14.00">$mul</text>
<polyline fill="none" stroke="black" points="1761.19,-202.5 1761.19,-251.5"/>
<text text-anchor="middle" x="1774.07" y="-222.2" font-family="Times,serif" font-size="14.00">Y</text>
</g>
<!-- c23&#45;&gt;n12 -->
<g id="edge27" class="edge">
<title>c23:e&#45;&gt;n12:w</title>
<path fill="none" stroke="black" stroke-width="3" d="M1786.94,-227.25C1798.32,-227.25 1803.63,-227.12 1811.5,-227.05"/>
<polygon fill="black" stroke="black" stroke-width="3" points="1808.42,-230.56 1818.4,-227.02 1808.39,-223.56 1808.42,-230.56"/>
</g>
<!-- x8&#45;&gt;c23 -->
<g id="edge9" class="edge">
<title>x8:e&#45;&gt;c23:w</title>
<path fill="none" stroke="black" stroke-width="3" d="M1667.68,-241.31C1671.27,-240.9 1674.39,-240.38 1677.96,-239.97"/>
<polygon fill="none" stroke="black" stroke-width="3" points="1669.63,-241.2 1663.85,-245.52 1657.64,-241.85 1663.42,-237.53 1669.63,-241.2"/>
<polygon fill="none" stroke="black" stroke-width="3" points="1676.26,-240.07 1682.03,-235.74 1688.24,-239.4 1682.48,-243.73 1676.26,-240.07"/>
</g>
<!-- x9&#45;&gt;c23 -->
<g id="edge10" class="edge">
<title>x9:e&#45;&gt;c23:w</title>
<path fill="none" stroke="black" d="M1022.11,-183.99C1254.69,-183.81 1318.13,-178.91 1556.44,-196 1600.43,-199.15 1611.36,-201.27 1654.94,-208 1665.75,-209.67 1670.94,-212.14 1678.12,-213.59"/>
<polygon fill="none" stroke="black" points="1021.99,-183.99 1016,-188 1009.99,-184 1015.99,-180 1021.99,-183.99"/>
<polygon fill="none" stroke="black" points="1678.1,-213.58 1684.43,-210.14 1690.05,-214.67 1683.71,-218.11 1678.1,-213.58"/>
</g>
<!-- c24&#45;&gt;c27 -->
<g id="edge35" class="edge">
<title>c24:e&#45;&gt;c27:w</title>
<path fill="none" stroke="black" stroke-width="3" d="M2065.45,-278.25C2081.34,-278.25 2081.89,-260.9 2090.83,-253.04"/>
<polygon fill="black" stroke="black" stroke-width="3" points="2088.93,-257.44 2097.17,-250.78 2086.57,-250.85 2088.93,-257.44"/>
</g>
<!-- c25&#45;&gt;n11 -->
<g id="edge24" class="edge">
<title>c25:e&#45;&gt;n11:w</title>
<path fill="none" stroke="black" stroke-width="3" d="M883.97,-233.25C896.39,-233.25 901.74,-236.35 910.4,-238"/>
<polygon fill="black" stroke="black" stroke-width="3" points="906.8,-241.19 917.07,-238.6 907.42,-234.22 906.8,-241.19"/>
</g>
<!-- c26&#45;&gt;c24 -->
<g id="edge40" class="edge">
<title>c26:e&#45;&gt;c24:w</title>
<path fill="none" stroke="black" d="M885.59,-301.25C987.47,-301.25 1012.09,-321 1113.97,-321 1113.97,-321 1113.97,-321 1739.94,-321 1838.94,-321 1864.61,-292.55 1958.02,-290.38"/>
<polygon fill="black" stroke="black" points="1957.97,-293.88 1967.93,-290.27 1957.89,-286.88 1957.97,-293.88"/>
</g>
<!-- x10&#45;&gt;c26 -->
<g id="edge11" class="edge">
<title>x10:e&#45;&gt;c26:w</title>
<path fill="none" stroke="black" d="M334.29,-261.07C531.03,-263.08 585.26,-311.17 781.99,-313.18"/>
<polygon fill="none" stroke="black" points="334.37,-261.07 328.35,-265.04 322.37,-261 328.39,-257.04 334.37,-261.07"/>
<polygon fill="none" stroke="black" points="781.94,-313.18 787.96,-309.21 793.94,-313.25 787.92,-317.21 781.94,-313.18"/>
</g>
<!-- x11 -->
<g id="node30" class="node">
<title>x11</title>
<path fill="none" stroke="black" d="M2242.45,-177C2242.45,-177 2294.45,-177 2294.45,-177 2300.45,-177 2306.45,-183 2306.45,-189 2306.45,-189 2306.45,-263 2306.45,-263 2306.45,-269 2300.45,-275 2294.45,-275 2294.45,-275 2242.45,-275 2242.45,-275 2236.45,-275 2230.45,-269 2230.45,-263 2230.45,-263 2230.45,-189 2230.45,-189 2230.45,-183 2236.45,-177 2242.45,-177"/>
<text text-anchor="middle" x="2268.45" y="-257.7" font-family="Times,serif" font-size="14.00">5:5 &#45; 20:20</text>
<polyline fill="none" stroke="black" points="2230.45,-250.5 2306.45,-250.5"/>
<text text-anchor="middle" x="2268.45" y="-233.2" font-family="Times,serif" font-size="14.00">4:2 &#45; 4:2</text>
<polyline fill="none" stroke="black" points="2230.45,-226 2306.45,-226"/>
<text text-anchor="middle" x="2268.45" y="-208.7" font-family="Times,serif" font-size="14.00">1:1 &#45; 1:1</text>
<polyline fill="none" stroke="black" points="2230.45,-201.5 2306.45,-201.5"/>
<text text-anchor="middle" x="2268.45" y="-184.2" font-family="Times,serif" font-size="14.00">0:0 &#45; 0:0</text>
</g>
<!-- c27&#45;&gt;x11 -->
<g id="edge12" class="edge">
<title>c27:e&#45;&gt;x11:w</title>
<path fill="none" stroke="black" stroke-width="3" d="M2206.85,-234.64C2210.73,-232.88 2213.89,-230.55 2217.73,-228.75"/>
<polygon fill="none" stroke="black" stroke-width="3" points="2208.83,-234.22 2203.79,-239.37 2197.09,-236.69 2202.14,-231.54 2208.83,-234.22"/>
<polygon fill="none" stroke="black" stroke-width="3" points="2216.07,-229.11 2221.09,-223.93 2227.8,-226.57 2222.78,-231.75 2216.07,-229.11"/>
</g>
<!-- x11&#45;&gt;n8 -->
<g id="edge46" class="edge">
<title>x11:e&#45;&gt;n8:w</title>
<path fill="none" stroke="black" stroke-width="3" d="M2306.45,-238.25C2338.36,-238.25 2314.06,-294.71 2331.92,-308.83"/>
<polygon fill="black" stroke="black" stroke-width="3" points="2327.51,-311.16 2338.1,-310.69 2329.53,-304.46 2327.51,-311.16"/>
</g>
<!-- x11&#45;&gt;n8 -->
<g id="edge47" class="edge">
<title>x11:e&#45;&gt;n8:w</title>
<path fill="none" stroke="black" d="M2306.45,-262.75C2328.9,-262.75 2320.26,-296.53 2332.02,-308.14"/>
<polygon fill="black" stroke="black" points="2330.43,-311.28 2341.03,-311.47 2332.87,-304.72 2330.43,-311.28"/>
</g>
<!-- x11&#45;&gt;n13 -->
<g id="edge30" class="edge">
<title>x11:e&#45;&gt;n13:w</title>
<path fill="none" stroke="black" d="M2306.45,-189.25C2321.4,-189.25 2323.86,-175.62 2332.96,-169.23"/>
<polygon fill="black" stroke="black" points="2333.7,-172.66 2342.28,-166.44 2331.69,-165.96 2333.7,-172.66"/>
</g>
<!-- n5 -->
<g id="node36" class="node">
<title>n5</title>
<ellipse fill="black" stroke="black" cx="2766.31" cy="-237" rx="1.8" ry="1.8"/>
</g>
<!-- x11&#45;&gt;n5 -->
<g id="edge36" class="edge">
<title>x11:e&#45;&gt;n5:w</title>
<path fill="none" stroke="black" d="M2306.45,-213.75C2494.12,-213.75 2542.97,-198.74 2728.51,-227 2740.31,-228.8 2745.16,-233.18 2753.13,-235.5"/>
<polygon fill="black" stroke="black" points="2752.64,-238.96 2763.01,-236.8 2753.55,-232.02 2752.64,-238.96"/>
</g>
<!-- x13 -->
<g id="node32" class="node">
<title>x13</title>
<path fill="none" stroke="black" d="M2664.51,-236.5C2664.51,-236.5 2703.01,-236.5 2703.01,-236.5 2709.01,-236.5 2715.01,-242.5 2715.01,-248.5 2715.01,-248.5 2715.01,-273.5 2715.01,-273.5 2715.01,-279.5 2709.01,-285.5 2703.01,-285.5 2703.01,-285.5 2664.51,-285.5 2664.51,-285.5 2658.51,-285.5 2652.51,-279.5 2652.51,-273.5 2652.51,-273.5 2652.51,-248.5 2652.51,-248.5 2652.51,-242.5 2658.51,-236.5 2664.51,-236.5"/>
<text text-anchor="middle" x="2683.76" y="-268.2" font-family="Times,serif" font-size="14.00">3:1 &#45; 4:2</text>
<polyline fill="none" stroke="black" points="2652.51,-261 2715.01,-261"/>
<text text-anchor="middle" x="2683.76" y="-243.7" font-family="Times,serif" font-size="14.00">0:0 &#45; 0:0</text>
</g>
<!-- x12&#45;&gt;x13 -->
<g id="edge13" class="edge">
<title>x12:e&#45;&gt;x13:w</title>
<path fill="none" stroke="black" stroke-width="3" d="M2594.86,-261C2612.05,-261 2621.59,-261 2638.87,-261"/>
<polygon fill="none" stroke="black" stroke-width="3" points="2596.59,-261 2590.59,-265 2584.59,-261 2590.59,-257 2596.59,-261"/>
<polygon fill="none" stroke="black" stroke-width="3" points="2636.8,-261 2642.8,-257 2648.8,-261 2642.8,-265 2636.8,-261"/>
</g>
<!-- x13&#45;&gt;n5 -->
<g id="edge37" class="edge">
<title>x13:e&#45;&gt;n5:w</title>
<path fill="none" stroke="black" d="M2716.01,-248.75C2733.85,-248.75 2740.02,-241.14 2753.31,-238.17"/>
<polygon fill="black" stroke="black" points="2753.42,-241.68 2763,-237.16 2752.69,-234.71 2753.42,-241.68"/>
</g>
<!-- x13&#45;&gt;n5 -->
<g id="edge38" class="edge">
<title>x13:e&#45;&gt;n5:w</title>
<path fill="none" stroke="black" stroke-width="3" d="M2716.01,-273.25C2738.5,-273.25 2738.48,-247.92 2753.58,-239.61"/>
<polygon fill="black" stroke="black" stroke-width="3" points="2751.18,-243.78 2760.09,-238.05 2749.55,-236.97 2751.18,-243.78"/>
</g>
<!-- x15 -->
<g id="node34" class="node">
<title>x15</title>
<path fill="none" stroke="black" d="M2651.01,-342.5C2651.01,-342.5 2716.51,-342.5 2716.51,-342.5 2722.51,-342.5 2728.51,-348.5 2728.51,-354.5 2728.51,-354.5 2728.51,-379.5 2728.51,-379.5 2728.51,-385.5 2722.51,-391.5 2716.51,-391.5 2716.51,-391.5 2651.01,-391.5 2651.01,-391.5 2645.01,-391.5 2639.01,-385.5 2639.01,-379.5 2639.01,-379.5 2639.01,-354.5 2639.01,-354.5 2639.01,-348.5 2645.01,-342.5 2651.01,-342.5"/>
<text text-anchor="middle" x="2683.76" y="-374.2" font-family="Times,serif" font-size="14.00">25:15 &#45; 31:21</text>
<polyline fill="none" stroke="black" points="2639.01,-367 2728.51,-367"/>
<text text-anchor="middle" x="2683.76" y="-349.7" font-family="Times,serif" font-size="14.00">14:0 &#45; 19:5</text>
</g>
<!-- x14&#45;&gt;x15 -->
<g id="edge14" class="edge">
<title>x14:e&#45;&gt;x15:w</title>
<path fill="none" stroke="black" stroke-width="3" d="M2615.73,-367C2619.33,-367 2622.46,-367 2626.04,-367"/>
<polygon fill="none" stroke="black" stroke-width="3" points="2617.71,-367 2611.71,-371 2605.71,-367 2611.71,-363 2617.71,-367"/>
<polygon fill="none" stroke="black" stroke-width="3" points="2624.3,-367 2630.3,-363 2636.3,-367 2630.3,-371 2624.3,-367"/>
</g>
<!-- x15&#45;&gt;n8 -->
<g id="edge48" class="edge">
<title>x15:e&#45;&gt;n8:w</title>
<path fill="none" stroke="black" stroke-width="3" d="M2729.51,-354.75C2735.19,-354.75 2732.54,-346.01 2728.51,-342 2688.83,-302.59 2658.88,-335.32 2603.01,-333 2599.39,-332.85 2344.81,-332.5 2342.2,-330 2340.21,-328.1 2338.52,-325.37 2337.49,-322.62"/>
<polygon fill="black" stroke="black" stroke-width="3" points="2339.71,-326.88 2339.7,-316.29 2333.1,-324.57 2339.71,-326.88"/>
</g>
<!-- x15&#45;&gt;n8 -->
<g id="edge49" class="edge">
<title>x15:e&#45;&gt;n8:w</title>
<path fill="none" stroke="black" stroke-width="3" d="M2729.51,-379.25C2735.19,-379.25 2732.54,-387.99 2728.51,-392 2655.22,-464.8 2597.16,-423.13 2496.26,-401 2422.62,-384.85 2384.59,-392.34 2342.2,-330 2340.79,-327.93 2339.38,-325.4 2338.35,-322.89"/>
<polygon fill="black" stroke="black" stroke-width="3" points="2340.91,-326.95 2340.05,-316.39 2334.14,-325.19 2340.91,-326.95"/>
</g>
<!-- n1&#45;&gt;x2 -->
<g id="edge16" class="edge">
<title>n1:e&#45;&gt;x2:w</title>
<path fill="none" stroke="black" d="M1201.44,-244C1213.21,-244 1218.2,-240 1226.16,-237.74"/>
<polygon fill="black" stroke="black" points="1226.49,-241.23 1235.94,-236.45 1225.57,-234.29 1226.49,-241.23"/>
</g>
<!-- n1&#45;&gt;x8 -->
<g id="edge17" class="edge">
<title>n1:e&#45;&gt;x8:w</title>
<path fill="none" stroke="black" stroke-width="3" d="M1201.44,-244C1219.75,-244 1219.73,-259.41 1237.44,-264 1374.69,-299.56 1415.9,-282.69 1556.44,-264 1568.25,-262.43 1573.12,-258.08 1581.08,-255.76"/>
<polygon fill="black" stroke="black" stroke-width="3" points="1578.49,-259.63 1587.94,-254.85 1577.57,-252.69 1578.49,-259.63"/>
</g>
<!-- n5&#45;&gt;x6 -->
<g id="edge39" class="edge">
<title>n5:e&#45;&gt;x6:w</title>
<path fill="none" stroke="black" d="M2768.11,-237C2783.94,-237 2784.57,-219.8 2793.51,-212.01"/>
<polygon fill="black" stroke="black" points="2794.43,-215.4 2802.68,-208.76 2792.09,-208.8 2794.43,-215.4"/>
</g>
</g>
</svg>
