<?xml version="1.0" encoding="UTF-8" standalone="no"?>
<!DOCTYPE svg PUBLIC "-//W3C//DTD SVG 1.1//EN"
 "http://www.w3.org/Graphics/SVG/1.1/DTD/svg11.dtd">
<!-- Generated by graphviz version 12.2.1 (20241206.2353)
 -->
<!-- Title: top Pages: 1 -->
<svg width="4434pt" height="836pt"
 viewBox="0.00 0.00 4433.86 835.62" xmlns="http://www.w3.org/2000/svg" xmlns:xlink="http://www.w3.org/1999/xlink">
<g id="graph0" class="graph" transform="scale(1 1) rotate(0) translate(4 831.62)">
<title>top</title>
<polygon fill="white" stroke="none" points="-4,4 -4,-831.62 4429.86,-831.62 4429.86,4 -4,4"/>
<text text-anchor="middle" x="2212.93" y="-7.2" font-family="Times,serif" font-size="14.00">top</text>
<!-- n21 -->
<g id="node1" class="node">
<title>n21</title>
<polygon fill="none" stroke="black" points="107.84,-462.54 107.84,-477.46 76.26,-488 31.59,-488 0,-477.46 0,-462.54 31.59,-452 76.26,-452 107.84,-462.54"/>
<text text-anchor="middle" x="53.92" y="-464.95" font-family="Times,serif" font-size="14.00">input_data</text>
</g>
<!-- c30 -->
<g id="node8" class="node">
<title>c30</title>
<polygon fill="none" stroke="black" points="2085.04,-118.5 2085.04,-167.5 2178.79,-167.5 2178.79,-118.5 2085.04,-118.5"/>
<text text-anchor="middle" x="2097.92" y="-150.2" font-family="Times,serif" font-size="14.00">A</text>
<polyline fill="none" stroke="black" points="2085.04,-143 2110.79,-143"/>
<text text-anchor="middle" x="2097.92" y="-125.7" font-family="Times,serif" font-size="14.00">B</text>
<polyline fill="none" stroke="black" points="2110.79,-118.5 2110.79,-167.5"/>
<text text-anchor="middle" x="2131.92" y="-146.2" font-family="Times,serif" font-size="14.00">$19</text>
<text text-anchor="middle" x="2131.92" y="-129.7" font-family="Times,serif" font-size="14.00">$add</text>
<polyline fill="none" stroke="black" points="2153.04,-118.5 2153.04,-167.5"/>
<text text-anchor="middle" x="2165.92" y="-138.2" font-family="Times,serif" font-size="14.00">Y</text>
</g>
<!-- n21&#45;&gt;c30 -->
<g id="edge49" class="edge">
<title>n21:e&#45;&gt;c30:w</title>
<path fill="none" stroke="black" stroke-width="3" d="M107.84,-470C171.02,-470 104.7,-237.59 143.84,-188 185.13,-135.7 217.46,-135 284.09,-135 284.09,-135 284.09,-135 1865.79,-135 1959.35,-135 1985.51,-131.08 2073.68,-130.77"/>
<polygon fill="black" stroke="black" stroke-width="3" points="2070.51,-134.28 2080.5,-130.76 2070.5,-127.28 2070.51,-134.28"/>
</g>
<!-- x3 -->
<g id="node14" class="node">
<title>x3</title>
<path fill="none" stroke="black" d="M155.84,-525.5C155.84,-525.5 194.34,-525.5 194.34,-525.5 200.34,-525.5 206.34,-531.5 206.34,-537.5 206.34,-537.5 206.34,-562.5 206.34,-562.5 206.34,-568.5 200.34,-574.5 194.34,-574.5 194.34,-574.5 155.84,-574.5 155.84,-574.5 149.84,-574.5 143.84,-568.5 143.84,-562.5 143.84,-562.5 143.84,-537.5 143.84,-537.5 143.84,-531.5 149.84,-525.5 155.84,-525.5"/>
<text text-anchor="middle" x="175.09" y="-557.2" font-family="Times,serif" font-size="14.00">6:6 &#45; 1:1</text>
<polyline fill="none" stroke="black" points="143.84,-550 206.34,-550"/>
<text text-anchor="middle" x="175.09" y="-532.7" font-family="Times,serif" font-size="14.00">2:2 &#45; 0:0</text>
</g>
<!-- n21&#45;&gt;x3 -->
<g id="edge62" class="edge">
<title>n21:e&#45;&gt;x3:w</title>
<path fill="none" stroke="black" d="M107.84,-470C137.14,-470 117.49,-520.04 133.02,-534.11"/>
<polygon fill="black" stroke="black" points="131.81,-537.39 142.41,-537.27 134.05,-530.76 131.81,-537.39"/>
</g>
<!-- n21&#45;&gt;x3 -->
<g id="edge63" class="edge">
<title>n21:e&#45;&gt;x3:w</title>
<path fill="none" stroke="black" d="M107.84,-470C147.21,-470 109.73,-543.82 132.89,-559.39"/>
<polygon fill="black" stroke="black" points="131.82,-562.72 142.38,-561.87 133.59,-555.95 131.82,-562.72"/>
</g>
<!-- x4 -->
<g id="node16" class="node">
<title>x4</title>
<path fill="none" stroke="black" d="M1096.44,-456C1096.44,-456 1134.94,-456 1134.94,-456 1140.94,-456 1146.94,-462 1146.94,-468 1146.94,-468 1146.94,-542 1146.94,-542 1146.94,-548 1140.94,-554 1134.94,-554 1134.94,-554 1096.44,-554 1096.44,-554 1090.44,-554 1084.44,-548 1084.44,-542 1084.44,-542 1084.44,-468 1084.44,-468 1084.44,-462 1090.44,-456 1096.44,-456"/>
<text text-anchor="middle" x="1115.69" y="-536.7" font-family="Times,serif" font-size="14.00">5:5 &#45; 4:4</text>
<polyline fill="none" stroke="black" points="1084.44,-529.5 1146.94,-529.5"/>
<text text-anchor="middle" x="1115.69" y="-512.2" font-family="Times,serif" font-size="14.00">6:5 &#45; 3:2</text>
<polyline fill="none" stroke="black" points="1084.44,-505 1146.94,-505"/>
<text text-anchor="middle" x="1115.69" y="-487.7" font-family="Times,serif" font-size="14.00">1:1 &#45; 1:1</text>
<polyline fill="none" stroke="black" points="1084.44,-480.5 1146.94,-480.5"/>
<text text-anchor="middle" x="1115.69" y="-463.2" font-family="Times,serif" font-size="14.00">2:2 &#45; 0:0</text>
</g>
<!-- n21&#45;&gt;x4 -->
<g id="edge64" class="edge">
<title>n21:e&#45;&gt;x4:w</title>
<path fill="none" stroke="black" d="M107.84,-470C126.59,-470 126.17,-454.28 143.84,-448 203.11,-426.93 221.19,-429 284.09,-429 284.09,-429 284.09,-429 978.59,-429 1024.75,-429 1033.1,-462.22 1073.2,-467.54"/>
<polygon fill="black" stroke="black" points="1072.73,-471.01 1082.93,-468.15 1073.17,-464.03 1072.73,-471.01"/>
</g>
<!-- n21&#45;&gt;x4 -->
<g id="edge65" class="edge">
<title>n21:e&#45;&gt;x4:w</title>
<path fill="none" stroke="black" stroke-width="3" d="M107.84,-470C181.83,-470 92.22,-748 143.84,-801 187.73,-846.06 221.19,-820 284.09,-820 284.09,-820 284.09,-820 978.59,-820 1045.83,-820 1016.98,-550.57 1073.33,-520.05"/>
<polygon fill="black" stroke="black" stroke-width="3" points="1071.2,-524.2 1080.04,-518.36 1069.49,-517.41 1071.2,-524.2"/>
</g>
<!-- x5 -->
<g id="node17" class="node">
<title>x5</title>
<path fill="none" stroke="black" d="M155.84,-351.5C155.84,-351.5 194.34,-351.5 194.34,-351.5 200.34,-351.5 206.34,-357.5 206.34,-363.5 206.34,-363.5 206.34,-388.5 206.34,-388.5 206.34,-394.5 200.34,-400.5 194.34,-400.5 194.34,-400.5 155.84,-400.5 155.84,-400.5 149.84,-400.5 143.84,-394.5 143.84,-388.5 143.84,-388.5 143.84,-363.5 143.84,-363.5 143.84,-357.5 149.84,-351.5 155.84,-351.5"/>
<text text-anchor="middle" x="175.09" y="-383.2" font-family="Times,serif" font-size="14.00">7:5 &#45; 4:2</text>
<polyline fill="none" stroke="black" points="143.84,-376 206.34,-376"/>
<text text-anchor="middle" x="175.09" y="-358.7" font-family="Times,serif" font-size="14.00">3:2 &#45; 1:0</text>
</g>
<!-- n21&#45;&gt;x5 -->
<g id="edge66" class="edge">
<title>n21:e&#45;&gt;x5:w</title>
<path fill="none" stroke="black" stroke-width="3" d="M107.84,-470C153.22,-470 104.51,-381.98 132.99,-366.17"/>
<polygon fill="black" stroke="black" stroke-width="3" points="130.41,-370.33 139.41,-364.74 128.89,-363.5 130.41,-370.33"/>
</g>
<!-- n21&#45;&gt;x5 -->
<g id="edge67" class="edge">
<title>n21:e&#45;&gt;x5:w</title>
<path fill="none" stroke="black" stroke-width="3" d="M107.84,-470C142.89,-470 113.17,-406.29 133.04,-391.35"/>
<polygon fill="black" stroke="black" stroke-width="3" points="130.83,-395.63 139.48,-389.5 128.9,-388.9 130.83,-395.63"/>
</g>
<!-- x13 -->
<g id="node29" class="node">
<title>x13</title>
<path fill="none" stroke="black" d="M155.84,-457.5C155.84,-457.5 194.34,-457.5 194.34,-457.5 200.34,-457.5 206.34,-463.5 206.34,-469.5 206.34,-469.5 206.34,-494.5 206.34,-494.5 206.34,-500.5 200.34,-506.5 194.34,-506.5 194.34,-506.5 155.84,-506.5 155.84,-506.5 149.84,-506.5 143.84,-500.5 143.84,-494.5 143.84,-494.5 143.84,-469.5 143.84,-469.5 143.84,-463.5 149.84,-457.5 155.84,-457.5"/>
<text text-anchor="middle" x="175.09" y="-489.2" font-family="Times,serif" font-size="14.00">7:7 &#45; 1:1</text>
<polyline fill="none" stroke="black" points="143.84,-482 206.34,-482"/>
<text text-anchor="middle" x="175.09" y="-464.7" font-family="Times,serif" font-size="14.00">3:3 &#45; 0:0</text>
</g>
<!-- n21&#45;&gt;x13 -->
<g id="edge51" class="edge">
<title>n21:e&#45;&gt;x13:w</title>
<path fill="none" stroke="black" d="M107.84,-470C119.22,-470 124.53,-469.87 132.39,-469.8"/>
<polygon fill="black" stroke="black" points="132.34,-473.3 142.33,-469.76 132.31,-466.3 132.34,-473.3"/>
</g>
<!-- n21&#45;&gt;x13 -->
<g id="edge52" class="edge">
<title>n21:e&#45;&gt;x13:w</title>
<path fill="none" stroke="black" d="M107.84,-470C122.46,-470 124.52,-483.93 133.05,-490.67"/>
<polygon fill="black" stroke="black" points="131.81,-493.95 142.4,-493.77 134.01,-487.3 131.81,-493.95"/>
</g>
<!-- x16 -->
<g id="node34" class="node">
<title>x16</title>
<path fill="none" stroke="black" d="M265.84,-585C265.84,-585 304.34,-585 304.34,-585 310.34,-585 316.34,-591 316.34,-597 316.34,-597 316.34,-609 316.34,-609 316.34,-615 310.34,-621 304.34,-621 304.34,-621 265.84,-621 265.84,-621 259.84,-621 253.84,-615 253.84,-609 253.84,-609 253.84,-597 253.84,-597 253.84,-591 259.84,-585 265.84,-585"/>
<text text-anchor="middle" x="285.09" y="-598.2" font-family="Times,serif" font-size="14.00">7:2 &#45; 5:0</text>
</g>
<!-- n21&#45;&gt;x16 -->
<g id="edge53" class="edge">
<title>n21:e&#45;&gt;x16:w</title>
<path fill="none" stroke="black" stroke-width="3" d="M107.84,-470C160.97,-470 103.89,-548.97 143.84,-584 177.87,-613.84 199.9,-605.07 241.51,-603.47"/>
<polygon fill="black" stroke="black" stroke-width="3" points="238.37,-607.04 248.3,-603.34 238.23,-600.04 238.37,-607.04"/>
</g>
<!-- x18 -->
<g id="node37" class="node">
<title>x18</title>
<path fill="none" stroke="black" d="M507.84,-314C507.84,-314 546.34,-314 546.34,-314 552.34,-314 558.34,-320 558.34,-326 558.34,-326 558.34,-338 558.34,-338 558.34,-344 552.34,-350 546.34,-350 546.34,-350 507.84,-350 507.84,-350 501.84,-350 495.84,-344 495.84,-338 495.84,-338 495.84,-326 495.84,-326 495.84,-320 501.84,-314 507.84,-314"/>
<text text-anchor="middle" x="527.09" y="-327.2" font-family="Times,serif" font-size="14.00">8:3 &#45; 5:0</text>
</g>
<!-- n21&#45;&gt;x18 -->
<g id="edge54" class="edge">
<title>n21:e&#45;&gt;x18:w</title>
<path fill="none" stroke="black" stroke-width="3" d="M107.84,-470C166.94,-470 97.23,-378.33 143.84,-342 264.26,-248.13 335.79,-328.14 484.53,-332.1"/>
<polygon fill="black" stroke="black" stroke-width="3" points="481.25,-335.56 491.3,-332.19 481.35,-328.56 481.25,-335.56"/>
</g>
<!-- x22 -->
<g id="node44" class="node">
<title>x22</title>
<path fill="none" stroke="black" d="M155.84,-687C155.84,-687 194.34,-687 194.34,-687 200.34,-687 206.34,-693 206.34,-699 206.34,-699 206.34,-711 206.34,-711 206.34,-717 200.34,-723 194.34,-723 194.34,-723 155.84,-723 155.84,-723 149.84,-723 143.84,-717 143.84,-711 143.84,-711 143.84,-699 143.84,-699 143.84,-693 149.84,-687 155.84,-687"/>
<text text-anchor="middle" x="175.09" y="-700.2" font-family="Times,serif" font-size="14.00">7:2 &#45; 5:0</text>
</g>
<!-- n21&#45;&gt;x22 -->
<g id="edge55" class="edge">
<title>n21:e&#45;&gt;x22:w</title>
<path fill="none" stroke="black" stroke-width="3" d="M107.84,-470C209.48,-470 51.35,-687.23 132.7,-704.2"/>
<polygon fill="black" stroke="black" stroke-width="3" points="129.04,-707.37 139.32,-704.82 129.69,-700.4 129.04,-707.37"/>
</g>
<!-- x23 -->
<g id="node45" class="node">
<title>x23</title>
<path fill="none" stroke="black" d="M155.84,-632C155.84,-632 194.34,-632 194.34,-632 200.34,-632 206.34,-638 206.34,-644 206.34,-644 206.34,-656 206.34,-656 206.34,-662 200.34,-668 194.34,-668 194.34,-668 155.84,-668 155.84,-668 149.84,-668 143.84,-662 143.84,-656 143.84,-656 143.84,-644 143.84,-644 143.84,-638 149.84,-632 155.84,-632"/>
<text text-anchor="middle" x="175.09" y="-645.2" font-family="Times,serif" font-size="14.00">7:2 &#45; 5:0</text>
</g>
<!-- n21&#45;&gt;x23 -->
<g id="edge56" class="edge">
<title>n21:e&#45;&gt;x23:w</title>
<path fill="none" stroke="black" stroke-width="3" d="M107.84,-470C185.23,-470 75,-631.74 132.6,-648.8"/>
<polygon fill="black" stroke="black" stroke-width="3" points="128.97,-651.86 139.34,-649.67 129.87,-644.92 128.97,-651.86"/>
</g>
<!-- x25 -->
<g id="node48" class="node">
<title>x25</title>
<path fill="none" stroke="black" d="M606.34,-220C606.34,-220 644.84,-220 644.84,-220 650.84,-220 656.84,-226 656.84,-232 656.84,-232 656.84,-244 656.84,-244 656.84,-250 650.84,-256 644.84,-256 644.84,-256 606.34,-256 606.34,-256 600.34,-256 594.34,-250 594.34,-244 594.34,-244 594.34,-232 594.34,-232 594.34,-226 600.34,-220 606.34,-220"/>
<text text-anchor="middle" x="625.59" y="-233.2" font-family="Times,serif" font-size="14.00">7:2 &#45; 5:0</text>
</g>
<!-- n21&#45;&gt;x25 -->
<g id="edge57" class="edge">
<title>n21:e&#45;&gt;x25:w</title>
<path fill="none" stroke="black" stroke-width="3" d="M107.84,-470C198.16,-470 81.47,-335.32 143.84,-270 187.99,-223.76 220.16,-238 284.09,-238 284.09,-238 284.09,-238 412.84,-238 489.57,-238 511.56,-238.23 582.94,-238.25"/>
<polygon fill="black" stroke="black" stroke-width="3" points="579.8,-241.75 589.8,-238.25 579.8,-234.75 579.8,-241.75"/>
</g>
<!-- x26 -->
<g id="node50" class="node">
<title>x26</title>
<path fill="none" stroke="black" d="M265.84,-173C265.84,-173 304.34,-173 304.34,-173 310.34,-173 316.34,-179 316.34,-185 316.34,-185 316.34,-197 316.34,-197 316.34,-203 310.34,-209 304.34,-209 304.34,-209 265.84,-209 265.84,-209 259.84,-209 253.84,-203 253.84,-197 253.84,-197 253.84,-185 253.84,-185 253.84,-179 259.84,-173 265.84,-173"/>
<text text-anchor="middle" x="285.09" y="-186.2" font-family="Times,serif" font-size="14.00">8:3 &#45; 5:0</text>
</g>
<!-- n21&#45;&gt;x26 -->
<g id="edge58" class="edge">
<title>n21:e&#45;&gt;x26:w</title>
<path fill="none" stroke="black" stroke-width="3" d="M107.84,-470C163.09,-470 107.74,-265.82 143.84,-224 174.31,-188.7 198.25,-190.65 241.43,-191.17"/>
<polygon fill="black" stroke="black" stroke-width="3" points="238.28,-194.65 248.3,-191.22 238.32,-187.65 238.28,-194.65"/>
</g>
<!-- c47 -->
<g id="node51" class="node">
<title>c47</title>
<polygon fill="none" stroke="black" points="2217.04,-92.5 2217.04,-141.5 2304.79,-141.5 2304.79,-92.5 2217.04,-92.5"/>
<text text-anchor="middle" x="2229.92" y="-124.2" font-family="Times,serif" font-size="14.00">A</text>
<polyline fill="none" stroke="black" points="2217.04,-117 2242.79,-117"/>
<text text-anchor="middle" x="2229.92" y="-99.7" font-family="Times,serif" font-size="14.00">B</text>
<polyline fill="none" stroke="black" points="2242.79,-92.5 2242.79,-141.5"/>
<text text-anchor="middle" x="2260.92" y="-120.2" font-family="Times,serif" font-size="14.00">$20</text>
<text text-anchor="middle" x="2260.92" y="-103.7" font-family="Times,serif" font-size="14.00">$or</text>
<polyline fill="none" stroke="black" points="2279.04,-92.5 2279.04,-141.5"/>
<text text-anchor="middle" x="2291.92" y="-112.2" font-family="Times,serif" font-size="14.00">Y</text>
</g>
<!-- n21&#45;&gt;c47 -->
<g id="edge50" class="edge">
<title>n21:e&#45;&gt;c47:w</title>
<path fill="none" stroke="black" stroke-width="3" d="M107.84,-470C182.05,-470 97.49,-195.96 143.84,-138 184.99,-86.55 218.21,-90 284.09,-90 284.09,-90 284.09,-90 2003.54,-90 2094.33,-90 2119.35,-103.56 2204.74,-104.68"/>
<polygon fill="black" stroke="black" stroke-width="3" points="2201.48,-108.16 2211.5,-104.72 2201.52,-101.16 2201.48,-108.16"/>
</g>
<!-- x29 -->
<g id="node59" class="node">
<title>x29</title>
<path fill="none" stroke="black" d="M392.59,-267C392.59,-267 431.09,-267 431.09,-267 437.09,-267 443.09,-273 443.09,-279 443.09,-279 443.09,-291 443.09,-291 443.09,-297 437.09,-303 431.09,-303 431.09,-303 392.59,-303 392.59,-303 386.59,-303 380.59,-297 380.59,-291 380.59,-291 380.59,-279 380.59,-279 380.59,-273 386.59,-267 392.59,-267"/>
<text text-anchor="middle" x="411.84" y="-280.2" font-family="Times,serif" font-size="14.00">7:2 &#45; 5:0</text>
</g>
<!-- n21&#45;&gt;x29 -->
<g id="edge59" class="edge">
<title>n21:e&#45;&gt;x29:w</title>
<path fill="none" stroke="black" stroke-width="3" d="M107.84,-470C181.16,-470 88.99,-357.66 143.84,-309 219.7,-241.71 270.41,-281.99 368.08,-285.07"/>
<polygon fill="black" stroke="black" stroke-width="3" points="365,-288.52 375.05,-285.18 365.11,-281.52 365,-288.52"/>
</g>
<!-- x30 -->
<g id="node60" class="node">
<title>x30</title>
<path fill="none" stroke="black" d="M155.84,-742.5C155.84,-742.5 194.34,-742.5 194.34,-742.5 200.34,-742.5 206.34,-748.5 206.34,-754.5 206.34,-754.5 206.34,-779.5 206.34,-779.5 206.34,-785.5 200.34,-791.5 194.34,-791.5 194.34,-791.5 155.84,-791.5 155.84,-791.5 149.84,-791.5 143.84,-785.5 143.84,-779.5 143.84,-779.5 143.84,-754.5 143.84,-754.5 143.84,-748.5 149.84,-742.5 155.84,-742.5"/>
<text text-anchor="middle" x="175.09" y="-774.2" font-family="Times,serif" font-size="14.00">6:4 &#45; 3:1</text>
<polyline fill="none" stroke="black" points="143.84,-767 206.34,-767"/>
<text text-anchor="middle" x="175.09" y="-749.7" font-family="Times,serif" font-size="14.00">2:2 &#45; 0:0</text>
</g>
<!-- n21&#45;&gt;x30 -->
<g id="edge60" class="edge">
<title>n21:e&#45;&gt;x30:w</title>
<path fill="none" stroke="black" d="M107.84,-470C167.39,-470 91.54,-718.19 133.1,-751.15"/>
<polygon fill="black" stroke="black" points="131.81,-754.41 142.41,-754.27 134.04,-747.77 131.81,-754.41"/>
</g>
<!-- n21&#45;&gt;x30 -->
<g id="edge61" class="edge">
<title>n21:e&#45;&gt;x30:w</title>
<path fill="none" stroke="black" stroke-width="3" d="M107.84,-470C172.84,-470 86.42,-742.94 133.08,-775.99"/>
<polygon fill="black" stroke="black" stroke-width="3" points="128.91,-778.38 139.5,-777.93 130.94,-771.68 128.91,-778.38"/>
</g>
<!-- n22 -->
<g id="node2" class="node">
<title>n22</title>
<polygon fill="none" stroke="black" points="4425.86,-199.54 4425.86,-214.46 4391.35,-225 4342.55,-225 4308.04,-214.46 4308.04,-199.54 4342.55,-189 4391.35,-189 4425.86,-199.54"/>
<text text-anchor="middle" x="4366.95" y="-201.95" font-family="Times,serif" font-size="14.00">output_data</text>
</g>
<!-- n23 -->
<g id="node3" class="node">
<title>n23</title>
<polygon fill="none" stroke="black" points="1864.79,-410 1809.54,-392 1864.79,-374 1920.04,-392 1864.79,-410"/>
<text text-anchor="middle" x="1864.79" y="-386.95" font-family="Times,serif" font-size="14.00">temp_0</text>
</g>
<!-- x0 -->
<g id="node7" class="node">
<title>x0</title>
<path fill="none" stroke="black" d="M2241.67,-402C2241.67,-402 2280.17,-402 2280.17,-402 2286.17,-402 2292.17,-408 2292.17,-414 2292.17,-414 2292.17,-426 2292.17,-426 2292.17,-432 2286.17,-438 2280.17,-438 2280.17,-438 2241.67,-438 2241.67,-438 2235.67,-438 2229.67,-432 2229.67,-426 2229.67,-426 2229.67,-414 2229.67,-414 2229.67,-408 2235.67,-402 2241.67,-402"/>
<text text-anchor="middle" x="2260.92" y="-415.2" font-family="Times,serif" font-size="14.00">1:0 &#45; 1:0</text>
</g>
<!-- n23&#45;&gt;x0 -->
<g id="edge74" class="edge">
<title>n23:e&#45;&gt;x0:w</title>
<path fill="none" stroke="black" stroke-width="3" d="M1920.04,-392C2053.88,-392 2088.97,-418.67 2217.21,-420.18"/>
<polygon fill="black" stroke="black" stroke-width="3" points="2214.11,-423.67 2224.13,-420.22 2214.15,-416.67 2214.11,-423.67"/>
</g>
<!-- c31 -->
<g id="node9" class="node">
<title>c31</title>
<polygon fill="none" stroke="black" points="3658.42,-631.5 3658.42,-680.5 3752.17,-680.5 3752.17,-631.5 3658.42,-631.5"/>
<text text-anchor="middle" x="3671.29" y="-663.2" font-family="Times,serif" font-size="14.00">A</text>
<polyline fill="none" stroke="black" points="3658.42,-656 3684.17,-656"/>
<text text-anchor="middle" x="3671.29" y="-638.7" font-family="Times,serif" font-size="14.00">B</text>
<polyline fill="none" stroke="black" points="3684.17,-631.5 3684.17,-680.5"/>
<text text-anchor="middle" x="3705.29" y="-659.2" font-family="Times,serif" font-size="14.00">$55</text>
<text text-anchor="middle" x="3705.29" y="-642.7" font-family="Times,serif" font-size="14.00">$add</text>
<polyline fill="none" stroke="black" points="3726.42,-631.5 3726.42,-680.5"/>
<text text-anchor="middle" x="3739.29" y="-651.2" font-family="Times,serif" font-size="14.00">Y</text>
</g>
<!-- n23&#45;&gt;c31 -->
<g id="edge70" class="edge">
<title>n23:e&#45;&gt;c31:w</title>
<path fill="none" stroke="black" stroke-width="3" d="M1920.04,-392C1970.68,-392 1920.04,-581.39 1956.04,-617 2011.91,-672.25 2052.34,-643 2130.92,-643 2130.92,-643 2130.92,-643 3422.04,-643 3522.77,-643 3550.76,-643.7 3646.09,-643.75"/>
<polygon fill="black" stroke="black" stroke-width="3" points="3642.88,-647.25 3652.88,-643.75 3642.88,-640.25 3642.88,-647.25"/>
</g>
<!-- x7 -->
<g id="node20" class="node">
<title>x7</title>
<path fill="none" stroke="black" d="M2112.67,-478C2112.67,-478 2151.17,-478 2151.17,-478 2157.17,-478 2163.17,-484 2163.17,-490 2163.17,-490 2163.17,-502 2163.17,-502 2163.17,-508 2157.17,-514 2151.17,-514 2151.17,-514 2112.67,-514 2112.67,-514 2106.67,-514 2100.67,-508 2100.67,-502 2100.67,-502 2100.67,-490 2100.67,-490 2100.67,-484 2106.67,-478 2112.67,-478"/>
<text text-anchor="middle" x="2131.92" y="-491.2" font-family="Times,serif" font-size="14.00">0:0 &#45; 0:0</text>
</g>
<!-- n23&#45;&gt;x7 -->
<g id="edge79" class="edge">
<title>n23:e&#45;&gt;x7:w</title>
<path fill="none" stroke="black" d="M1920.04,-392C1955.42,-392 1928.19,-441.18 1956.04,-463 2004.5,-500.96 2030.84,-496.94 2088.18,-496.32"/>
<polygon fill="black" stroke="black" points="2088.17,-499.82 2098.15,-496.26 2088.13,-492.82 2088.17,-499.82"/>
</g>
<!-- x9 -->
<g id="node23" class="node">
<title>x9</title>
<path fill="none" stroke="black" d="M2715.29,-338C2715.29,-338 2753.79,-338 2753.79,-338 2759.79,-338 2765.79,-344 2765.79,-350 2765.79,-350 2765.79,-362 2765.79,-362 2765.79,-368 2759.79,-374 2753.79,-374 2753.79,-374 2715.29,-374 2715.29,-374 2709.29,-374 2703.29,-368 2703.29,-362 2703.29,-362 2703.29,-350 2703.29,-350 2703.29,-344 2709.29,-338 2715.29,-338"/>
<text text-anchor="middle" x="2734.54" y="-351.2" font-family="Times,serif" font-size="14.00">5:2 &#45; 3:0</text>
</g>
<!-- n23&#45;&gt;x9 -->
<g id="edge80" class="edge">
<title>n23:e&#45;&gt;x9:w</title>
<path fill="none" stroke="black" stroke-width="3" d="M1920.04,-392C1925.92,-392 2125.04,-373 2130.92,-373 2130.92,-373 2130.92,-373 2490.54,-373 2581.5,-373 2606.43,-357.6 2691.97,-356.33"/>
<polygon fill="black" stroke="black" stroke-width="3" points="2688.78,-359.86 2698.75,-356.28 2688.73,-352.86 2688.78,-359.86"/>
</g>
<!-- x11 -->
<g id="node26" class="node">
<title>x11</title>
<path fill="none" stroke="black" d="M1983.29,-25C1983.29,-25 2021.79,-25 2021.79,-25 2027.79,-25 2033.79,-31 2033.79,-37 2033.79,-37 2033.79,-49 2033.79,-49 2033.79,-55 2027.79,-61 2021.79,-61 2021.79,-61 1983.29,-61 1983.29,-61 1977.29,-61 1971.29,-55 1971.29,-49 1971.29,-49 1971.29,-37 1971.29,-37 1971.29,-31 1977.29,-25 1983.29,-25"/>
<text text-anchor="middle" x="2002.54" y="-38.2" font-family="Times,serif" font-size="14.00">5:1 &#45; 4:0</text>
</g>
<!-- n23&#45;&gt;x11 -->
<g id="edge75" class="edge">
<title>n23:e&#45;&gt;x11:w</title>
<path fill="none" stroke="black" stroke-width="3" d="M1920.04,-392C1994.21,-392 1902.69,-79.06 1959.39,-46.06"/>
<polygon fill="black" stroke="black" stroke-width="3" points="1957.08,-50.27 1965.89,-44.38 1955.34,-43.49 1957.08,-50.27"/>
</g>
<!-- x15 -->
<g id="node32" class="node">
<title>x15</title>
<path fill="none" stroke="black" d="M1983.29,-528C1983.29,-528 2021.79,-528 2021.79,-528 2027.79,-528 2033.79,-534 2033.79,-540 2033.79,-540 2033.79,-552 2033.79,-552 2033.79,-558 2027.79,-564 2021.79,-564 2021.79,-564 1983.29,-564 1983.29,-564 1977.29,-564 1971.29,-558 1971.29,-552 1971.29,-552 1971.29,-540 1971.29,-540 1971.29,-534 1977.29,-528 1983.29,-528"/>
<text text-anchor="middle" x="2002.54" y="-541.2" font-family="Times,serif" font-size="14.00">0:0 &#45; 0:0</text>
</g>
<!-- n23&#45;&gt;x15 -->
<g id="edge76" class="edge">
<title>n23:e&#45;&gt;x15:w</title>
<path fill="none" stroke="black" d="M1920.04,-392C1987.78,-392 1908.96,-528.14 1958.95,-544.62"/>
<polygon fill="black" stroke="black" points="1958.4,-548.08 1968.79,-546.03 1959.39,-541.15 1958.4,-548.08"/>
</g>
<!-- x20 -->
<g id="node40" class="node">
<title>x20</title>
<path fill="none" stroke="black" d="M2355.04,-449C2355.04,-449 2393.54,-449 2393.54,-449 2399.54,-449 2405.54,-455 2405.54,-461 2405.54,-461 2405.54,-473 2405.54,-473 2405.54,-479 2399.54,-485 2393.54,-485 2393.54,-485 2355.04,-485 2355.04,-485 2349.04,-485 2343.04,-479 2343.04,-473 2343.04,-473 2343.04,-461 2343.04,-461 2343.04,-455 2349.04,-449 2355.04,-449"/>
<text text-anchor="middle" x="2374.29" y="-462.2" font-family="Times,serif" font-size="14.00">5:1 &#45; 4:0</text>
</g>
<!-- n23&#45;&gt;x20 -->
<g id="edge77" class="edge">
<title>n23:e&#45;&gt;x20:w</title>
<path fill="none" stroke="black" stroke-width="3" d="M1920.04,-392C1938.13,-392 1938.84,-405.4 1956.04,-411 2117.75,-463.69 2167.12,-467.12 2332.01,-467.25"/>
<polygon fill="black" stroke="black" stroke-width="3" points="2328.5,-470.74 2338.5,-467.25 2328.5,-463.74 2328.5,-470.74"/>
</g>
<!-- c49 -->
<g id="node54" class="node">
<title>c49</title>
<polygon fill="none" stroke="black" points="3796.54,-590.5 3796.54,-639.5 3886.54,-639.5 3886.54,-590.5 3796.54,-590.5"/>
<text text-anchor="middle" x="3809.42" y="-622.2" font-family="Times,serif" font-size="14.00">A</text>
<polyline fill="none" stroke="black" points="3796.54,-615 3822.29,-615"/>
<text text-anchor="middle" x="3809.42" y="-597.7" font-family="Times,serif" font-size="14.00">B</text>
<polyline fill="none" stroke="black" points="3822.29,-590.5 3822.29,-639.5"/>
<text text-anchor="middle" x="3841.54" y="-618.2" font-family="Times,serif" font-size="14.00">$56</text>
<text text-anchor="middle" x="3841.54" y="-601.7" font-family="Times,serif" font-size="14.00">$shl</text>
<polyline fill="none" stroke="black" points="3860.79,-590.5 3860.79,-639.5"/>
<text text-anchor="middle" x="3873.67" y="-610.2" font-family="Times,serif" font-size="14.00">Y</text>
</g>
<!-- n23&#45;&gt;c49 -->
<g id="edge71" class="edge">
<title>n23:e&#45;&gt;c49:w</title>
<path fill="none" stroke="black" stroke-width="3" d="M1920.04,-392C2002.5,-392 1896.84,-516.6 1956.04,-574 2012.61,-628.84 2052.13,-603 2130.92,-603 2130.92,-603 2130.92,-603 3559.79,-603 3661.11,-603 3689.26,-602.77 3785.15,-602.75"/>
<polygon fill="black" stroke="black" stroke-width="3" points="3782,-606.25 3792,-602.75 3782,-599.25 3782,-606.25"/>
</g>
<!-- x28 -->
<g id="node56" class="node">
<title>x28</title>
<path fill="none" stroke="black" d="M2601.17,-288C2601.17,-288 2639.67,-288 2639.67,-288 2645.67,-288 2651.67,-294 2651.67,-300 2651.67,-300 2651.67,-312 2651.67,-312 2651.67,-318 2645.67,-324 2639.67,-324 2639.67,-324 2601.17,-324 2601.17,-324 2595.17,-324 2589.17,-318 2589.17,-312 2589.17,-312 2589.17,-300 2589.17,-300 2589.17,-294 2595.17,-288 2601.17,-288"/>
<text text-anchor="middle" x="2620.42" y="-301.2" font-family="Times,serif" font-size="14.00">5:2 &#45; 3:0</text>
</g>
<!-- n23&#45;&gt;x28 -->
<g id="edge78" class="edge">
<title>n23:e&#45;&gt;x28:w</title>
<path fill="none" stroke="black" stroke-width="3" d="M1920.04,-392C1941.75,-392 1936.4,-368.23 1956.04,-359 2027.05,-325.64 2052.47,-335 2130.92,-335 2130.92,-335 2130.92,-335 2375.29,-335 2466.85,-335 2490.77,-308.56 2576.78,-306.39"/>
<polygon fill="black" stroke="black" stroke-width="3" points="2573.67,-309.93 2583.63,-306.31 2573.58,-302.93 2573.67,-309.93"/>
</g>
<!-- c51 -->
<g id="node57" class="node">
<title>c51</title>
<polygon fill="none" stroke="black" points="1956.04,-257.5 1956.04,-306.5 2049.04,-306.5 2049.04,-257.5 1956.04,-257.5"/>
<text text-anchor="middle" x="1968.92" y="-289.2" font-family="Times,serif" font-size="14.00">A</text>
<polyline fill="none" stroke="black" points="1956.04,-282 1981.79,-282"/>
<text text-anchor="middle" x="1968.92" y="-264.7" font-family="Times,serif" font-size="14.00">B</text>
<polyline fill="none" stroke="black" points="1981.79,-257.5 1981.79,-306.5"/>
<text text-anchor="middle" x="2002.54" y="-285.2" font-family="Times,serif" font-size="14.00">$18</text>
<text text-anchor="middle" x="2002.54" y="-268.7" font-family="Times,serif" font-size="14.00">$sub</text>
<polyline fill="none" stroke="black" points="2023.29,-257.5 2023.29,-306.5"/>
<text text-anchor="middle" x="2036.17" y="-277.2" font-family="Times,serif" font-size="14.00">Y</text>
</g>
<!-- n23&#45;&gt;c51 -->
<g id="edge72" class="edge">
<title>n23:e&#45;&gt;c51:w</title>
<path fill="none" stroke="black" stroke-width="3" d="M1920.04,-392C1961.64,-392 1920.18,-313.1 1944.9,-297.07"/>
<polygon fill="black" stroke="black" stroke-width="3" points="1942.81,-301.21 1951.64,-295.36 1941.09,-294.43 1942.81,-301.21"/>
</g>
<!-- n23&#45;&gt;c51 -->
<g id="edge73" class="edge">
<title>n23:e&#45;&gt;c51:w</title>
<path fill="none" stroke="black" stroke-width="3" d="M1920.04,-392C1972.26,-392 1910.66,-288.11 1945.09,-271.87"/>
<polygon fill="black" stroke="black" stroke-width="3" points="1942.43,-275.95 1951.58,-270.61 1941.1,-269.08 1942.43,-275.95"/>
</g>
<!-- n24 -->
<g id="node4" class="node">
<title>n24</title>
<polygon fill="none" stroke="black" points="3558.79,-272 3503.54,-254 3558.79,-236 3614.04,-254 3558.79,-272"/>
<text text-anchor="middle" x="3558.79" y="-248.95" font-family="Times,serif" font-size="14.00">temp_1</text>
</g>
<!-- n24&#45;&gt;c31 -->
<g id="edge82" class="edge">
<title>n24:e&#45;&gt;c31:w</title>
<path fill="none" stroke="black" stroke-width="3" d="M3614.04,-254C3702.44,-254 3577.12,-631.87 3646.32,-665.82"/>
<polygon fill="black" stroke="black" stroke-width="3" points="3642.47,-668.56 3652.98,-667.28 3643.96,-661.72 3642.47,-668.56"/>
</g>
<!-- x27 -->
<g id="node53" class="node">
<title>x27</title>
<path fill="none" stroke="black" d="M3951.29,-222C3951.29,-222 3989.79,-222 3989.79,-222 3995.79,-222 4001.79,-228 4001.79,-234 4001.79,-234 4001.79,-246 4001.79,-246 4001.79,-252 3995.79,-258 3989.79,-258 3989.79,-258 3951.29,-258 3951.29,-258 3945.29,-258 3939.29,-252 3939.29,-246 3939.29,-246 3939.29,-234 3939.29,-234 3939.29,-228 3945.29,-222 3951.29,-222"/>
<text text-anchor="middle" x="3970.54" y="-235.2" font-family="Times,serif" font-size="14.00">3:0 &#45; 3:0</text>
</g>
<!-- n24&#45;&gt;x27 -->
<g id="edge83" class="edge">
<title>n24:e&#45;&gt;x27:w</title>
<path fill="none" stroke="black" stroke-width="3" d="M3614.04,-254C3754.48,-254 3792.09,-240.97 3927.11,-240.28"/>
<polygon fill="black" stroke="black" stroke-width="3" points="3923.76,-243.79 3933.75,-240.26 3923.74,-236.79 3923.76,-243.79"/>
</g>
<!-- n25 -->
<g id="node5" class="node">
<title>n25</title>
<polygon fill="none" stroke="black" points="3705.29,-166 3650.04,-148 3705.29,-130 3760.54,-148 3705.29,-166"/>
<text text-anchor="middle" x="3705.29" y="-142.95" font-family="Times,serif" font-size="14.00">temp_2</text>
</g>
<!-- x1 -->
<g id="node11" class="node">
<title>x1</title>
<path fill="none" stroke="black" d="M4079.17,-158C4079.17,-158 4117.67,-158 4117.67,-158 4123.67,-158 4129.67,-164 4129.67,-170 4129.67,-170 4129.67,-182 4129.67,-182 4129.67,-188 4123.67,-194 4117.67,-194 4117.67,-194 4079.17,-194 4079.17,-194 4073.17,-194 4067.17,-188 4067.17,-182 4067.17,-182 4067.17,-170 4067.17,-170 4067.17,-164 4073.17,-158 4079.17,-158"/>
<text text-anchor="middle" x="4098.42" y="-171.2" font-family="Times,serif" font-size="14.00">3:0 &#45; 3:0</text>
</g>
<!-- n25&#45;&gt;x1 -->
<g id="edge86" class="edge">
<title>n25:e&#45;&gt;x1:w</title>
<path fill="none" stroke="black" stroke-width="3" d="M3760.54,-148C3893.09,-148 3927.82,-174.67 4054.82,-176.18"/>
<polygon fill="black" stroke="black" stroke-width="3" points="4051.61,-179.66 4061.63,-176.22 4051.65,-172.66 4051.61,-179.66"/>
</g>
<!-- x21 -->
<g id="node42" class="node">
<title>x21</title>
<path fill="none" stroke="black" d="M3822.29,-176.5C3822.29,-176.5 3860.79,-176.5 3860.79,-176.5 3866.79,-176.5 3872.79,-182.5 3872.79,-188.5 3872.79,-188.5 3872.79,-213.5 3872.79,-213.5 3872.79,-219.5 3866.79,-225.5 3860.79,-225.5 3860.79,-225.5 3822.29,-225.5 3822.29,-225.5 3816.29,-225.5 3810.29,-219.5 3810.29,-213.5 3810.29,-213.5 3810.29,-188.5 3810.29,-188.5 3810.29,-182.5 3816.29,-176.5 3822.29,-176.5"/>
<text text-anchor="middle" x="3841.54" y="-208.2" font-family="Times,serif" font-size="14.00">0 &#45;&gt; 8:5</text>
<polyline fill="none" stroke="black" points="3810.29,-201 3872.79,-201"/>
<text text-anchor="middle" x="3841.54" y="-183.7" font-family="Times,serif" font-size="14.00">4:0 &#45; 4:0</text>
</g>
<!-- n25&#45;&gt;x21 -->
<g id="edge87" class="edge">
<title>n25:e&#45;&gt;x21:w</title>
<path fill="none" stroke="black" stroke-width="3" d="M3760.54,-148C3784.37,-148 3782.59,-177.01 3798.42,-186.08"/>
<polygon fill="black" stroke="black" stroke-width="3" points="3794.34,-188.68 3804.88,-187.67 3796.01,-181.88 3794.34,-188.68"/>
</g>
<!-- c29 -->
<g id="node6" class="node">
<title>c29</title>
<polygon fill="none" stroke="black" points="2573.54,-411.5 2573.54,-460.5 2667.29,-460.5 2667.29,-411.5 2573.54,-411.5"/>
<text text-anchor="middle" x="2586.42" y="-443.2" font-family="Times,serif" font-size="14.00">A</text>
<polyline fill="none" stroke="black" points="2573.54,-436 2599.29,-436"/>
<text text-anchor="middle" x="2586.42" y="-418.7" font-family="Times,serif" font-size="14.00">B</text>
<polyline fill="none" stroke="black" points="2599.29,-411.5 2599.29,-460.5"/>
<text text-anchor="middle" x="2620.42" y="-439.2" font-family="Times,serif" font-size="14.00">$13</text>
<text text-anchor="middle" x="2620.42" y="-422.7" font-family="Times,serif" font-size="14.00">$add</text>
<polyline fill="none" stroke="black" points="2641.54,-411.5 2641.54,-460.5"/>
<text text-anchor="middle" x="2654.42" y="-431.2" font-family="Times,serif" font-size="14.00">Y</text>
</g>
<!-- n1 -->
<g id="node66" class="node">
<title>n1</title>
<ellipse fill="black" stroke="black" cx="2734.54" cy="-436" rx="1.8" ry="1.8"/>
</g>
<!-- c29&#45;&gt;n1 -->
<g id="edge32" class="edge">
<title>c29:e&#45;&gt;n1:w</title>
<path fill="none" stroke="black" stroke-width="3" d="M2667.29,-436.25C2691.5,-436.25 2700.25,-436.07 2719.87,-436.01"/>
<polygon fill="black" stroke="black" stroke-width="3" points="2716.73,-439.52 2726.72,-436.01 2716.72,-432.52 2716.73,-439.52"/>
</g>
<!-- x0&#45;&gt;c29 -->
<g id="edge1" class="edge">
<title>x0:e&#45;&gt;c29:w</title>
<path fill="none" stroke="black" stroke-width="3" d="M2305.97,-420.01C2415.86,-420.25 2450.72,-423.5 2560.51,-423.74"/>
<polygon fill="none" stroke="black" stroke-width="3" points="2307.87,-420.02 2301.87,-424.01 2295.87,-420 2301.88,-416.01 2307.87,-420.02"/>
<polygon fill="none" stroke="black" stroke-width="3" points="2558.84,-423.73 2564.84,-419.74 2570.84,-423.75 2564.83,-427.74 2558.84,-423.73"/>
</g>
<!-- c30&#45;&gt;c47 -->
<g id="edge47" class="edge">
<title>c30:e&#45;&gt;c47:w</title>
<path fill="none" stroke="black" stroke-width="3" d="M2178.79,-143.25C2191.92,-143.25 2196.34,-135.54 2204.97,-131.56"/>
<polygon fill="black" stroke="black" stroke-width="3" points="2202.52,-135.65 2211.6,-130.18 2201.09,-128.8 2202.52,-135.65"/>
</g>
<!-- c31&#45;&gt;c49 -->
<g id="edge88" class="edge">
<title>c31:e&#45;&gt;c49:w</title>
<path fill="none" stroke="black" stroke-width="3" d="M3753.17,-656.25C3771.83,-656.25 3773.53,-637.47 3785.56,-630.14"/>
<polygon fill="black" stroke="black" stroke-width="3" points="3783.37,-634.33 3792.15,-628.4 3781.59,-627.56 3783.37,-634.33"/>
</g>
<!-- c32 -->
<g id="node10" class="node">
<title>c32</title>
<polygon fill="none" stroke="black" points="4178.29,-182.5 4178.29,-231.5 4272.04,-231.5 4272.04,-182.5 4178.29,-182.5"/>
<text text-anchor="middle" x="4191.17" y="-214.2" font-family="Times,serif" font-size="14.00">A</text>
<polyline fill="none" stroke="black" points="4178.29,-207 4204.04,-207"/>
<text text-anchor="middle" x="4191.17" y="-189.7" font-family="Times,serif" font-size="14.00">B</text>
<polyline fill="none" stroke="black" points="4204.04,-182.5 4204.04,-231.5"/>
<text text-anchor="middle" x="4225.17" y="-210.2" font-family="Times,serif" font-size="14.00">$59</text>
<text text-anchor="middle" x="4225.17" y="-193.7" font-family="Times,serif" font-size="14.00">$add</text>
<polyline fill="none" stroke="black" points="4246.29,-182.5 4246.29,-231.5"/>
<text text-anchor="middle" x="4259.17" y="-202.2" font-family="Times,serif" font-size="14.00">Y</text>
</g>
<!-- c32&#45;&gt;n22 -->
<g id="edge68" class="edge">
<title>c32:e&#45;&gt;n22:w</title>
<path fill="none" stroke="black" stroke-width="3" d="M4272.04,-207.25C4283.42,-207.25 4288.73,-207.12 4296.6,-207.05"/>
<polygon fill="black" stroke="black" stroke-width="3" points="4293.52,-210.56 4303.5,-207.02 4293.49,-203.56 4293.52,-210.56"/>
</g>
<!-- x1&#45;&gt;c32 -->
<g id="edge2" class="edge">
<title>x1:e&#45;&gt;c32:w</title>
<path fill="none" stroke="black" stroke-width="3" d="M4143.43,-178.45C4151.97,-182.06 4157.1,-188.78 4165.67,-192.36"/>
<polygon fill="none" stroke="black" stroke-width="3" points="4145.11,-178.77 4138.46,-181.57 4133.32,-176.51 4139.97,-173.71 4145.11,-178.77"/>
<polygon fill="none" stroke="black" stroke-width="3" points="4163.85,-192.01 4170.49,-189.2 4175.64,-194.25 4169,-197.06 4163.85,-192.01"/>
</g>
<!-- c33 -->
<g id="node12" class="node">
<title>c33</title>
<polygon fill="none" stroke="black" points="692.84,-537.5 692.84,-586.5 780.59,-586.5 780.59,-537.5 692.84,-537.5"/>
<text text-anchor="middle" x="705.72" y="-569.2" font-family="Times,serif" font-size="14.00">A</text>
<polyline fill="none" stroke="black" points="692.84,-562 718.59,-562"/>
<text text-anchor="middle" x="705.72" y="-544.7" font-family="Times,serif" font-size="14.00">B</text>
<polyline fill="none" stroke="black" points="718.59,-537.5 718.59,-586.5"/>
<text text-anchor="middle" x="736.72" y="-565.2" font-family="Times,serif" font-size="14.00">$68</text>
<text text-anchor="middle" x="736.72" y="-548.7" font-family="Times,serif" font-size="14.00">$or</text>
<polyline fill="none" stroke="black" points="754.84,-537.5 754.84,-586.5"/>
<text text-anchor="middle" x="767.72" y="-557.2" font-family="Times,serif" font-size="14.00">Y</text>
</g>
<!-- c38 -->
<g id="node28" class="node">
<title>c38</title>
<polygon fill="none" stroke="black" points="816.59,-504.5 816.59,-553.5 910.34,-553.5 910.34,-504.5 816.59,-504.5"/>
<text text-anchor="middle" x="829.47" y="-536.2" font-family="Times,serif" font-size="14.00">A</text>
<polyline fill="none" stroke="black" points="816.59,-529 842.34,-529"/>
<text text-anchor="middle" x="829.47" y="-511.7" font-family="Times,serif" font-size="14.00">B</text>
<polyline fill="none" stroke="black" points="842.34,-504.5 842.34,-553.5"/>
<text text-anchor="middle" x="863.47" y="-532.2" font-family="Times,serif" font-size="14.00">$87</text>
<text text-anchor="middle" x="863.47" y="-515.7" font-family="Times,serif" font-size="14.00">$and</text>
<polyline fill="none" stroke="black" points="884.59,-504.5 884.59,-553.5"/>
<text text-anchor="middle" x="897.47" y="-524.2" font-family="Times,serif" font-size="14.00">Y</text>
</g>
<!-- c33&#45;&gt;c38 -->
<g id="edge100" class="edge">
<title>c33:e&#45;&gt;c38:w</title>
<path fill="none" stroke="black" stroke-width="3" d="M780.59,-562.25C794.48,-562.25 797.37,-550.44 805.76,-544.53"/>
<polygon fill="black" stroke="black" stroke-width="3" points="803.69,-548.81 812.25,-542.57 801.66,-542.11 803.69,-548.81"/>
</g>
<!-- x2 -->
<g id="node13" class="node">
<title>x2</title>
<path fill="none" stroke="black" d="M606.34,-578.5C606.34,-578.5 644.84,-578.5 644.84,-578.5 650.84,-578.5 656.84,-584.5 656.84,-590.5 656.84,-590.5 656.84,-615.5 656.84,-615.5 656.84,-621.5 650.84,-627.5 644.84,-627.5 644.84,-627.5 606.34,-627.5 606.34,-627.5 600.34,-627.5 594.34,-621.5 594.34,-615.5 594.34,-615.5 594.34,-590.5 594.34,-590.5 594.34,-584.5 600.34,-578.5 606.34,-578.5"/>
<text text-anchor="middle" x="625.59" y="-610.2" font-family="Times,serif" font-size="14.00">5:5 &#45; 1:1</text>
<polyline fill="none" stroke="black" points="594.34,-603 656.84,-603"/>
<text text-anchor="middle" x="625.59" y="-585.7" font-family="Times,serif" font-size="14.00">1:1 &#45; 0:0</text>
</g>
<!-- x2&#45;&gt;c33 -->
<g id="edge3" class="edge">
<title>x2:e&#45;&gt;c33:w</title>
<path fill="none" stroke="black" stroke-width="3" d="M668.73,-597.99C673.69,-592.72 676.02,-584.46 681.01,-579.2"/>
<polygon fill="none" stroke="black" stroke-width="3" points="670.39,-597.29 666.42,-603.31 659.33,-601.95 663.31,-595.93 670.39,-597.29"/>
<polygon fill="none" stroke="black" stroke-width="3" points="679.28,-579.92 683.27,-573.92 690.35,-575.29 686.35,-581.3 679.28,-579.92"/>
</g>
<!-- x3&#45;&gt;c33 -->
<g id="edge4" class="edge">
<title>x3:e&#45;&gt;c33:w</title>
<path fill="none" stroke="black" stroke-width="3" d="M219.18,-550C299.61,-550 324.39,-550 410.84,-550 410.84,-550 410.84,-550 528.09,-550 596.88,-550 617.2,-549.78 680.12,-549.75"/>
<polygon fill="none" stroke="black" stroke-width="3" points="221.05,-550 215.05,-554 209.05,-550 215.05,-546 221.05,-550"/>
<polygon fill="none" stroke="black" stroke-width="3" points="678.14,-549.75 684.14,-545.75 690.14,-549.75 684.14,-553.75 678.14,-549.75"/>
</g>
<!-- c34 -->
<g id="node15" class="node">
<title>c34</title>
<polygon fill="none" stroke="black" points="1182.94,-416.5 1182.94,-465.5 1276.69,-465.5 1276.69,-416.5 1182.94,-416.5"/>
<text text-anchor="middle" x="1195.82" y="-448.2" font-family="Times,serif" font-size="14.00">A</text>
<polyline fill="none" stroke="black" points="1182.94,-441 1208.69,-441"/>
<text text-anchor="middle" x="1195.82" y="-423.7" font-family="Times,serif" font-size="14.00">B</text>
<polyline fill="none" stroke="black" points="1208.69,-416.5 1208.69,-465.5"/>
<text text-anchor="middle" x="1229.82" y="-444.2" font-family="Times,serif" font-size="14.00">$72</text>
<text text-anchor="middle" x="1229.82" y="-427.7" font-family="Times,serif" font-size="14.00">$and</text>
<polyline fill="none" stroke="black" points="1250.94,-416.5 1250.94,-465.5"/>
<text text-anchor="middle" x="1263.82" y="-436.2" font-family="Times,serif" font-size="14.00">Y</text>
</g>
<!-- x6 -->
<g id="node18" class="node">
<title>x6</title>
<path fill="none" stroke="black" d="M1324.69,-416.5C1324.69,-416.5 1363.19,-416.5 1363.19,-416.5 1369.19,-416.5 1375.19,-422.5 1375.19,-428.5 1375.19,-428.5 1375.19,-453.5 1375.19,-453.5 1375.19,-459.5 1369.19,-465.5 1363.19,-465.5 1363.19,-465.5 1324.69,-465.5 1324.69,-465.5 1318.69,-465.5 1312.69,-459.5 1312.69,-453.5 1312.69,-453.5 1312.69,-428.5 1312.69,-428.5 1312.69,-422.5 1318.69,-416.5 1324.69,-416.5"/>
<text text-anchor="middle" x="1343.94" y="-448.2" font-family="Times,serif" font-size="14.00">4:2 &#45; 5:3</text>
<polyline fill="none" stroke="black" points="1312.69,-441 1375.19,-441"/>
<text text-anchor="middle" x="1343.94" y="-423.7" font-family="Times,serif" font-size="14.00">1:0 &#45; 1:0</text>
</g>
<!-- c34&#45;&gt;x6 -->
<g id="edge7" class="edge">
<title>c34:e&#45;&gt;x6:w</title>
<path fill="none" stroke="black" stroke-width="3" d="M1289.41,-441.19C1293.01,-441.15 1296.14,-441.1 1299.72,-441.07"/>
<polygon fill="none" stroke="black" stroke-width="3" points="1291.39,-441.18 1285.41,-445.21 1279.4,-441.24 1285.38,-437.21 1291.39,-441.18"/>
<polygon fill="none" stroke="black" stroke-width="3" points="1297.99,-441.07 1303.97,-437.04 1309.99,-441.01 1304.01,-445.04 1297.99,-441.07"/>
</g>
<!-- x4&#45;&gt;c34 -->
<g id="edge5" class="edge">
<title>x4:e&#45;&gt;c34:w</title>
<path fill="none" stroke="black" stroke-width="3" d="M1158.57,-499.85C1166.37,-490.03 1163.5,-468.73 1171.08,-458.69"/>
<polygon fill="none" stroke="black" stroke-width="3" points="1160.39,-499.05 1156.52,-505.13 1149.41,-503.91 1153.28,-497.82 1160.39,-499.05"/>
<polygon fill="none" stroke="black" stroke-width="3" points="1169.58,-459.38 1173.36,-453.24 1180.48,-454.38 1176.7,-460.52 1169.58,-459.38"/>
</g>
<!-- x5&#45;&gt;c34 -->
<g id="edge6" class="edge">
<title>x5:e&#45;&gt;c34:w</title>
<path fill="none" stroke="black" stroke-width="3" d="M219.19,-376.06C299.68,-376.86 324.31,-385 410.84,-385 410.84,-385 410.84,-385 1047.64,-385 1106.27,-385 1118.17,-422.66 1170.05,-428.1"/>
<polygon fill="none" stroke="black" stroke-width="3" points="221.04,-376.07 215.03,-380.04 209.05,-376.01 215.06,-372.04 221.04,-376.07"/>
<polygon fill="none" stroke="black" stroke-width="3" points="1168.26,-428.01 1174.45,-424.32 1180.24,-428.61 1174.05,-432.3 1168.26,-428.01"/>
</g>
<!-- n5 -->
<g id="node69" class="node">
<title>n5</title>
<ellipse fill="black" stroke="black" cx="1412.99" cy="-425" rx="1.8" ry="1.8"/>
</g>
<!-- x6&#45;&gt;n5 -->
<g id="edge96" class="edge">
<title>x6:e&#45;&gt;n5:w</title>
<path fill="none" stroke="black" stroke-width="3" d="M1375.19,-428.75C1386.63,-428.75 1391.87,-426.85 1399.72,-425.76"/>
<polygon fill="black" stroke="black" stroke-width="3" points="1396.91,-429.45 1406.66,-425.3 1396.45,-422.47 1396.91,-429.45"/>
</g>
<!-- x6&#45;&gt;n5 -->
<g id="edge97" class="edge">
<title>x6:e&#45;&gt;n5:w</title>
<path fill="none" stroke="black" stroke-width="3" d="M1375.19,-453.25C1390.76,-453.25 1391.67,-436.69 1400.37,-428.93"/>
<polygon fill="black" stroke="black" stroke-width="3" points="1398.72,-433.25 1406.92,-426.55 1396.33,-426.67 1398.72,-433.25"/>
</g>
<!-- c35 -->
<g id="node19" class="node">
<title>c35</title>
<polygon fill="none" stroke="black" points="2214.79,-495.5 2214.79,-544.5 2307.04,-544.5 2307.04,-495.5 2214.79,-495.5"/>
<text text-anchor="middle" x="2227.67" y="-527.2" font-family="Times,serif" font-size="14.00">A</text>
<polyline fill="none" stroke="black" points="2214.79,-520 2240.54,-520"/>
<text text-anchor="middle" x="2227.67" y="-502.7" font-family="Times,serif" font-size="14.00">B</text>
<polyline fill="none" stroke="black" points="2240.54,-495.5 2240.54,-544.5"/>
<text text-anchor="middle" x="2260.92" y="-523.2" font-family="Times,serif" font-size="14.00">$76</text>
<text text-anchor="middle" x="2260.92" y="-506.7" font-family="Times,serif" font-size="14.00">$xor</text>
<polyline fill="none" stroke="black" points="2281.29,-495.5 2281.29,-544.5"/>
<text text-anchor="middle" x="2294.17" y="-515.2" font-family="Times,serif" font-size="14.00">Y</text>
</g>
<!-- x19 -->
<g id="node39" class="node">
<title>x19</title>
<path fill="none" stroke="black" d="M2355.04,-506.5C2355.04,-506.5 2393.54,-506.5 2393.54,-506.5 2399.54,-506.5 2405.54,-512.5 2405.54,-518.5 2405.54,-518.5 2405.54,-543.5 2405.54,-543.5 2405.54,-549.5 2399.54,-555.5 2393.54,-555.5 2393.54,-555.5 2355.04,-555.5 2355.04,-555.5 2349.04,-555.5 2343.04,-549.5 2343.04,-543.5 2343.04,-543.5 2343.04,-518.5 2343.04,-518.5 2343.04,-512.5 2349.04,-506.5 2355.04,-506.5"/>
<text text-anchor="middle" x="2374.29" y="-538.2" font-family="Times,serif" font-size="14.00">0 &#45;&gt; 5:1</text>
<polyline fill="none" stroke="black" points="2343.04,-531 2405.54,-531"/>
<text text-anchor="middle" x="2374.29" y="-513.7" font-family="Times,serif" font-size="14.00">0:0 &#45; 0:0</text>
</g>
<!-- c35&#45;&gt;x19 -->
<g id="edge101" class="edge">
<title>c35:e&#45;&gt;x19:w</title>
<path fill="none" stroke="black" d="M2307.04,-520.25C2318.43,-520.25 2323.73,-519.49 2331.59,-519.05"/>
<polygon fill="black" stroke="black" points="2331.63,-522.55 2341.53,-518.79 2331.44,-515.56 2331.63,-522.55"/>
</g>
<!-- x7&#45;&gt;c35 -->
<g id="edge8" class="edge">
<title>x7:e&#45;&gt;c35:w</title>
<path fill="none" stroke="black" d="M2177.04,-497.44C2186.42,-499.7 2192.5,-504.04 2201.87,-506.3"/>
<polygon fill="none" stroke="black" points="2176.99,-497.44 2170.58,-500.74 2165.06,-496.1 2171.47,-492.79 2176.99,-497.44"/>
<polygon fill="none" stroke="black" points="2201.97,-506.31 2208.38,-503 2213.9,-507.65 2207.49,-510.95 2201.97,-506.31"/>
</g>
<!-- c36 -->
<g id="node21" class="node">
<title>c36</title>
<polygon fill="none" stroke="black" points="2900.29,-346.5 2900.29,-395.5 2992.54,-395.5 2992.54,-346.5 2900.29,-346.5"/>
<text text-anchor="middle" x="2913.17" y="-378.2" font-family="Times,serif" font-size="14.00">A</text>
<polyline fill="none" stroke="black" points="2900.29,-371 2926.04,-371"/>
<text text-anchor="middle" x="2913.17" y="-353.7" font-family="Times,serif" font-size="14.00">B</text>
<polyline fill="none" stroke="black" points="2926.04,-346.5 2926.04,-395.5"/>
<text text-anchor="middle" x="2946.42" y="-374.2" font-family="Times,serif" font-size="14.00">$80</text>
<text text-anchor="middle" x="2946.42" y="-357.7" font-family="Times,serif" font-size="14.00">$xor</text>
<polyline fill="none" stroke="black" points="2966.79,-346.5 2966.79,-395.5"/>
<text text-anchor="middle" x="2979.67" y="-366.2" font-family="Times,serif" font-size="14.00">Y</text>
</g>
<!-- x24 -->
<g id="node47" class="node">
<title>x24</title>
<path fill="none" stroke="black" d="M3040.54,-358.5C3040.54,-358.5 3079.04,-358.5 3079.04,-358.5 3085.04,-358.5 3091.04,-364.5 3091.04,-370.5 3091.04,-370.5 3091.04,-395.5 3091.04,-395.5 3091.04,-401.5 3085.04,-407.5 3079.04,-407.5 3079.04,-407.5 3040.54,-407.5 3040.54,-407.5 3034.54,-407.5 3028.54,-401.5 3028.54,-395.5 3028.54,-395.5 3028.54,-370.5 3028.54,-370.5 3028.54,-364.5 3034.54,-358.5 3040.54,-358.5"/>
<text text-anchor="middle" x="3059.79" y="-390.2" font-family="Times,serif" font-size="14.00">5:4 &#45; 5:4</text>
<polyline fill="none" stroke="black" points="3028.54,-383 3091.04,-383"/>
<text text-anchor="middle" x="3059.79" y="-365.7" font-family="Times,serif" font-size="14.00">3:0 &#45; 3:0</text>
</g>
<!-- c36&#45;&gt;x24 -->
<g id="edge102" class="edge">
<title>c36:e&#45;&gt;x24:w</title>
<path fill="none" stroke="black" stroke-width="3" d="M2992.54,-371.25C3003.92,-371.25 3009.23,-371 3017.09,-370.85"/>
<polygon fill="black" stroke="black" stroke-width="3" points="3014.03,-374.38 3024,-370.79 3013.97,-367.38 3014.03,-374.38"/>
</g>
<!-- x8 -->
<g id="node22" class="node">
<title>x8</title>
<path fill="none" stroke="black" d="M2813.79,-376C2813.79,-376 2852.29,-376 2852.29,-376 2858.29,-376 2864.29,-382 2864.29,-388 2864.29,-388 2864.29,-400 2864.29,-400 2864.29,-406 2858.29,-412 2852.29,-412 2852.29,-412 2813.79,-412 2813.79,-412 2807.79,-412 2801.79,-406 2801.79,-400 2801.79,-400 2801.79,-388 2801.79,-388 2801.79,-382 2807.79,-376 2813.79,-376"/>
<text text-anchor="middle" x="2833.04" y="-389.2" font-family="Times,serif" font-size="14.00">3:0 &#45; 3:0</text>
</g>
<!-- x8&#45;&gt;c36 -->
<g id="edge9" class="edge">
<title>x8:e&#45;&gt;c36:w</title>
<path fill="none" stroke="black" stroke-width="3" d="M2876.68,-391.51C2880.56,-389.82 2883.75,-387.59 2887.6,-385.88"/>
<polygon fill="none" stroke="black" stroke-width="3" points="2878.71,-391.1 2873.61,-396.2 2866.94,-393.47 2872.04,-388.36 2878.71,-391.1"/>
<polygon fill="none" stroke="black" stroke-width="3" points="2885.89,-386.23 2890.96,-381.1 2897.64,-383.8 2892.58,-388.93 2885.89,-386.23"/>
</g>
<!-- x9&#45;&gt;c36 -->
<g id="edge10" class="edge">
<title>x9:e&#45;&gt;c36:w</title>
<path fill="none" stroke="black" stroke-width="3" d="M2778.71,-356.05C2824.06,-356.37 2842.06,-358.38 2887.43,-358.71"/>
<polygon fill="none" stroke="black" stroke-width="3" points="2780.5,-356.05 2774.48,-360.03 2768.5,-356.01 2774.51,-352.03 2780.5,-356.05"/>
<polygon fill="none" stroke="black" stroke-width="3" points="2885.59,-358.7 2891.6,-354.72 2897.59,-358.74 2891.57,-362.72 2885.59,-358.7"/>
</g>
<!-- c37 -->
<g id="node24" class="node">
<title>c37</title>
<polygon fill="none" stroke="black" points="2442.67,-80.5 2442.67,-129.5 2536.42,-129.5 2536.42,-80.5 2442.67,-80.5"/>
<text text-anchor="middle" x="2455.54" y="-112.2" font-family="Times,serif" font-size="14.00">A</text>
<polyline fill="none" stroke="black" points="2442.67,-105 2468.42,-105"/>
<text text-anchor="middle" x="2455.54" y="-87.7" font-family="Times,serif" font-size="14.00">B</text>
<polyline fill="none" stroke="black" points="2468.42,-80.5 2468.42,-129.5"/>
<text text-anchor="middle" x="2489.54" y="-108.2" font-family="Times,serif" font-size="14.00">$83</text>
<text text-anchor="middle" x="2489.54" y="-91.7" font-family="Times,serif" font-size="14.00">$and</text>
<polyline fill="none" stroke="black" points="2510.67,-80.5 2510.67,-129.5"/>
<text text-anchor="middle" x="2523.54" y="-100.2" font-family="Times,serif" font-size="14.00">Y</text>
</g>
<!-- x12 -->
<g id="node27" class="node">
<title>x12</title>
<path fill="none" stroke="black" d="M2813.79,-120C2813.79,-120 2852.29,-120 2852.29,-120 2858.29,-120 2864.29,-126 2864.29,-132 2864.29,-132 2864.29,-144 2864.29,-144 2864.29,-150 2858.29,-156 2852.29,-156 2852.29,-156 2813.79,-156 2813.79,-156 2807.79,-156 2801.79,-150 2801.79,-144 2801.79,-144 2801.79,-132 2801.79,-132 2801.79,-126 2807.79,-120 2813.79,-120"/>
<text text-anchor="middle" x="2833.04" y="-133.2" font-family="Times,serif" font-size="14.00">4:0 &#45; 4:0</text>
</g>
<!-- c37&#45;&gt;x12 -->
<g id="edge13" class="edge">
<title>c37:e&#45;&gt;x12:w</title>
<path fill="none" stroke="black" stroke-width="3" d="M2550.23,-105.38C2653.78,-107.55 2685.34,-135.67 2788.81,-137.86"/>
<polygon fill="none" stroke="black" stroke-width="3" points="2552.12,-105.4 2546.08,-109.34 2540.12,-105.28 2546.16,-101.34 2552.12,-105.4"/>
<polygon fill="none" stroke="black" stroke-width="3" points="2787.09,-137.85 2793.13,-133.91 2799.09,-137.97 2793.05,-141.91 2787.09,-137.85"/>
</g>
<!-- x10 -->
<g id="node25" class="node">
<title>x10</title>
<path fill="none" stroke="black" d="M2355.04,-99C2355.04,-99 2393.54,-99 2393.54,-99 2399.54,-99 2405.54,-105 2405.54,-111 2405.54,-111 2405.54,-123 2405.54,-123 2405.54,-129 2399.54,-135 2393.54,-135 2393.54,-135 2355.04,-135 2355.04,-135 2349.04,-135 2343.04,-129 2343.04,-123 2343.04,-123 2343.04,-111 2343.04,-111 2343.04,-105 2349.04,-99 2355.04,-99"/>
<text text-anchor="middle" x="2374.29" y="-112.2" font-family="Times,serif" font-size="14.00">4:0 &#45; 4:0</text>
</g>
<!-- x10&#45;&gt;c37 -->
<g id="edge11" class="edge">
<title>x10:e&#45;&gt;c37:w</title>
<path fill="none" stroke="black" stroke-width="3" d="M2418.56,-117.07C2422.11,-117.1 2425.22,-117.15 2428.78,-117.19"/>
<polygon fill="none" stroke="black" stroke-width="3" points="2420.25,-117.07 2414.23,-121.04 2408.25,-117.01 2414.27,-113.04 2420.25,-117.07"/>
<polygon fill="none" stroke="black" stroke-width="3" points="2426.96,-117.18 2432.98,-113.21 2438.96,-117.24 2432.94,-121.21 2426.96,-117.18"/>
</g>
<!-- x11&#45;&gt;c37 -->
<g id="edge12" class="edge">
<title>x11:e&#45;&gt;c37:w</title>
<path fill="none" stroke="black" stroke-width="3" d="M2047.75,-43.67C2116.86,-49.14 2360.26,-86.7 2428.96,-92.1"/>
<polygon fill="none" stroke="black" stroke-width="3" points="2049.48,-43.75 2043.28,-47.44 2037.49,-43.14 2043.69,-39.45 2049.48,-43.75"/>
<polygon fill="none" stroke="black" stroke-width="3" points="2426.98,-92 2433.18,-88.31 2438.97,-92.61 2432.77,-96.3 2426.98,-92"/>
</g>
<!-- x12&#45;&gt;n25 -->
<g id="edge84" class="edge">
<title>x12:e&#45;&gt;n25:w</title>
<path fill="none" stroke="black" stroke-width="3" d="M2864.29,-138.25C2950.84,-138.25 2972.24,-148 3058.79,-148 3058.79,-148 3058.79,-148 3422.04,-148 3519.52,-148 3546.67,-148 3638.79,-148"/>
<polygon fill="black" stroke="black" stroke-width="3" points="3635.5,-151.5 3645.5,-148 3635.5,-144.5 3635.5,-151.5"/>
</g>
<!-- x14 -->
<g id="node30" class="node">
<title>x14</title>
<path fill="none" stroke="black" d="M958.34,-504.5C958.34,-504.5 996.84,-504.5 996.84,-504.5 1002.84,-504.5 1008.84,-510.5 1008.84,-516.5 1008.84,-516.5 1008.84,-541.5 1008.84,-541.5 1008.84,-547.5 1002.84,-553.5 996.84,-553.5 996.84,-553.5 958.34,-553.5 958.34,-553.5 952.34,-553.5 946.34,-547.5 946.34,-541.5 946.34,-541.5 946.34,-516.5 946.34,-516.5 946.34,-510.5 952.34,-504.5 958.34,-504.5"/>
<text text-anchor="middle" x="977.59" y="-536.2" font-family="Times,serif" font-size="14.00">1:1 &#45; 5:5</text>
<polyline fill="none" stroke="black" points="946.34,-529 1008.84,-529"/>
<text text-anchor="middle" x="977.59" y="-511.7" font-family="Times,serif" font-size="14.00">0:0 &#45; 1:1</text>
</g>
<!-- c38&#45;&gt;x14 -->
<g id="edge15" class="edge">
<title>c38:e&#45;&gt;x14:w</title>
<path fill="none" stroke="black" stroke-width="3" d="M923.06,-529.19C926.66,-529.15 929.79,-529.1 933.37,-529.07"/>
<polygon fill="none" stroke="black" stroke-width="3" points="925.04,-529.18 919.06,-533.21 913.05,-529.24 919.03,-525.21 925.04,-529.18"/>
<polygon fill="none" stroke="black" stroke-width="3" points="931.64,-529.07 937.62,-525.04 943.64,-529.01 937.66,-533.04 931.64,-529.07"/>
</g>
<!-- x13&#45;&gt;c38 -->
<g id="edge14" class="edge">
<title>x13:e&#45;&gt;c38:w</title>
<path fill="none" stroke="black" stroke-width="3" d="M219.21,-482.1C299.78,-483.33 324.19,-496 410.84,-496 410.84,-496 410.84,-496 626.59,-496 707.06,-496 729.34,-514.62 803.67,-516.58"/>
<polygon fill="none" stroke="black" stroke-width="3" points="221.04,-482.11 215.01,-486.07 209.04,-482.02 215.07,-478.07 221.04,-482.11"/>
<polygon fill="none" stroke="black" stroke-width="3" points="801.89,-516.56 807.94,-512.64 813.89,-516.72 807.84,-520.64 801.89,-516.56"/>
</g>
<!-- n4 -->
<g id="node68" class="node">
<title>n4</title>
<ellipse fill="black" stroke="black" cx="1046.64" cy="-541" rx="1.8" ry="1.8"/>
</g>
<!-- x14&#45;&gt;n4 -->
<g id="edge89" class="edge">
<title>x14:e&#45;&gt;n4:w</title>
<path fill="none" stroke="black" d="M1008.84,-516.75C1023.46,-516.75 1025.52,-530.68 1034.05,-537.42"/>
<polygon fill="black" stroke="black" points="1032.81,-540.7 1043.4,-540.52 1035.01,-534.05 1032.81,-540.7"/>
</g>
<!-- x14&#45;&gt;n4 -->
<g id="edge90" class="edge">
<title>x14:e&#45;&gt;n4:w</title>
<path fill="none" stroke="black" d="M1008.84,-541.25C1020.22,-541.25 1025.53,-541.12 1033.39,-541.05"/>
<polygon fill="black" stroke="black" points="1033.34,-544.55 1043.33,-541.01 1033.31,-537.55 1033.34,-544.55"/>
</g>
<!-- c39 -->
<g id="node31" class="node">
<title>c39</title>
<polygon fill="none" stroke="black" points="2086.17,-533.5 2086.17,-574.5 2177.67,-574.5 2177.67,-533.5 2086.17,-533.5"/>
<text text-anchor="middle" x="2099.04" y="-549.2" font-family="Times,serif" font-size="14.00">A</text>
<polyline fill="none" stroke="black" points="2111.92,-533.5 2111.92,-574.5"/>
<text text-anchor="middle" x="2131.92" y="-557.2" font-family="Times,serif" font-size="14.00">$60</text>
<text text-anchor="middle" x="2131.92" y="-540.7" font-family="Times,serif" font-size="14.00">$not</text>
<polyline fill="none" stroke="black" points="2151.92,-533.5 2151.92,-574.5"/>
<text text-anchor="middle" x="2164.79" y="-549.2" font-family="Times,serif" font-size="14.00">Y</text>
</g>
<!-- c39&#45;&gt;c35 -->
<g id="edge103" class="edge">
<title>c39:e&#45;&gt;c35:w</title>
<path fill="none" stroke="black" d="M2178.67,-554.25C2192.77,-554.25 2195.46,-541.88 2203.86,-535.69"/>
<polygon fill="black" stroke="black" points="2204.86,-539.04 2213.35,-532.7 2202.76,-532.37 2204.86,-539.04"/>
</g>
<!-- x15&#45;&gt;c39 -->
<g id="edge16" class="edge">
<title>x15:e&#45;&gt;c39:w</title>
<path fill="none" stroke="black" d="M2047.51,-547.01C2056.86,-548.6 2063.06,-551.64 2072.4,-553.23"/>
<polygon fill="none" stroke="black" points="2047.65,-547.02 2041.35,-550.53 2035.69,-546.07 2041.99,-542.56 2047.65,-547.02"/>
<polygon fill="none" stroke="black" points="2072.31,-553.22 2078.61,-549.71 2084.27,-554.18 2077.97,-557.69 2072.31,-553.22"/>
</g>
<!-- c40 -->
<g id="node33" class="node">
<title>c40</title>
<polygon fill="none" stroke="black" points="363.84,-590.5 363.84,-639.5 459.84,-639.5 459.84,-590.5 363.84,-590.5"/>
<text text-anchor="middle" x="376.72" y="-622.2" font-family="Times,serif" font-size="14.00">A</text>
<polyline fill="none" stroke="black" points="363.84,-615 389.59,-615"/>
<text text-anchor="middle" x="376.72" y="-597.7" font-family="Times,serif" font-size="14.00">B</text>
<polyline fill="none" stroke="black" points="389.59,-590.5 389.59,-639.5"/>
<text text-anchor="middle" x="411.84" y="-618.2" font-family="Times,serif" font-size="14.00">$2</text>
<text text-anchor="middle" x="411.84" y="-601.7" font-family="Times,serif" font-size="14.00">$mul</text>
<polyline fill="none" stroke="black" points="434.09,-590.5 434.09,-639.5"/>
<text text-anchor="middle" x="446.97" y="-610.2" font-family="Times,serif" font-size="14.00">Y</text>
</g>
<!-- n12 -->
<g id="node67" class="node">
<title>n12</title>
<ellipse fill="black" stroke="black" cx="527.09" cy="-615" rx="1.8" ry="1.8"/>
</g>
<!-- c40&#45;&gt;n12 -->
<g id="edge37" class="edge">
<title>c40:e&#45;&gt;n12:w</title>
<path fill="none" stroke="black" stroke-width="3" d="M459.84,-615.25C484.05,-615.25 492.8,-615.07 512.42,-615.01"/>
<polygon fill="black" stroke="black" stroke-width="3" points="509.28,-618.52 519.27,-615.01 509.27,-611.52 509.28,-618.52"/>
</g>
<!-- x16&#45;&gt;c40 -->
<g id="edge17" class="edge">
<title>x16:e&#45;&gt;c40:w</title>
<path fill="none" stroke="black" stroke-width="3" d="M330.07,-602.96C337.7,-602.92 343.25,-602.84 350.82,-602.79"/>
<polygon fill="none" stroke="black" stroke-width="3" points="332.04,-602.96 326.06,-606.97 320.05,-602.99 326.03,-598.97 332.04,-602.96"/>
<polygon fill="none" stroke="black" stroke-width="3" points="349.14,-602.79 355.12,-598.78 361.14,-602.76 355.15,-606.78 349.14,-602.79"/>
</g>
<!-- c41 -->
<g id="node35" class="node">
<title>c41</title>
<polygon fill="none" stroke="black" points="1549.29,-339.5 1549.29,-388.5 1645.29,-388.5 1645.29,-339.5 1549.29,-339.5"/>
<text text-anchor="middle" x="1562.17" y="-371.2" font-family="Times,serif" font-size="14.00">A</text>
<polyline fill="none" stroke="black" points="1549.29,-364 1575.04,-364"/>
<text text-anchor="middle" x="1562.17" y="-346.7" font-family="Times,serif" font-size="14.00">B</text>
<polyline fill="none" stroke="black" points="1575.04,-339.5 1575.04,-388.5"/>
<text text-anchor="middle" x="1597.29" y="-367.2" font-family="Times,serif" font-size="14.00">$8</text>
<text text-anchor="middle" x="1597.29" y="-350.7" font-family="Times,serif" font-size="14.00">$mul</text>
<polyline fill="none" stroke="black" points="1619.54,-339.5 1619.54,-388.5"/>
<text text-anchor="middle" x="1632.42" y="-359.2" font-family="Times,serif" font-size="14.00">Y</text>
</g>
<!-- c52 -->
<g id="node58" class="node">
<title>c52</title>
<polygon fill="none" stroke="black" points="1681.29,-327.5 1681.29,-376.5 1773.54,-376.5 1773.54,-327.5 1681.29,-327.5"/>
<text text-anchor="middle" x="1694.17" y="-359.2" font-family="Times,serif" font-size="14.00">A</text>
<polyline fill="none" stroke="black" points="1681.29,-352 1707.04,-352"/>
<text text-anchor="middle" x="1694.17" y="-334.7" font-family="Times,serif" font-size="14.00">B</text>
<polyline fill="none" stroke="black" points="1707.04,-327.5 1707.04,-376.5"/>
<text text-anchor="middle" x="1727.42" y="-355.2" font-family="Times,serif" font-size="14.00">$9</text>
<text text-anchor="middle" x="1727.42" y="-338.7" font-family="Times,serif" font-size="14.00">$xor</text>
<polyline fill="none" stroke="black" points="1747.79,-327.5 1747.79,-376.5"/>
<text text-anchor="middle" x="1760.67" y="-347.2" font-family="Times,serif" font-size="14.00">Y</text>
</g>
<!-- c41&#45;&gt;c52 -->
<g id="edge40" class="edge">
<title>c41:e&#45;&gt;c52:w</title>
<path fill="none" stroke="black" stroke-width="3" d="M1645.29,-364.25C1656.67,-364.25 1661.98,-364.25 1669.84,-364.25"/>
<polygon fill="black" stroke="black" stroke-width="3" points="1666.75,-367.75 1676.75,-364.25 1666.75,-360.75 1666.75,-367.75"/>
</g>
<!-- x17 -->
<g id="node36" class="node">
<title>x17</title>
<path fill="none" stroke="black" d="M1462.79,-364.25C1462.79,-364.25 1501.29,-364.25 1501.29,-364.25 1507.29,-364.25 1513.29,-370.25 1513.29,-376.25 1513.29,-376.25 1513.29,-425.75 1513.29,-425.75 1513.29,-431.75 1507.29,-437.75 1501.29,-437.75 1501.29,-437.75 1462.79,-437.75 1462.79,-437.75 1456.79,-437.75 1450.79,-431.75 1450.79,-425.75 1450.79,-425.75 1450.79,-376.25 1450.79,-376.25 1450.79,-370.25 1456.79,-364.25 1462.79,-364.25"/>
<text text-anchor="middle" x="1482.04" y="-420.45" font-family="Times,serif" font-size="14.00">5:3 &#45; 5:3</text>
<polyline fill="none" stroke="black" points="1450.79,-413.25 1513.29,-413.25"/>
<text text-anchor="middle" x="1482.04" y="-395.95" font-family="Times,serif" font-size="14.00">0 &#45;&gt; 2:2</text>
<polyline fill="none" stroke="black" points="1450.79,-388.75 1513.29,-388.75"/>
<text text-anchor="middle" x="1482.04" y="-371.45" font-family="Times,serif" font-size="14.00">1:0 &#45; 1:0</text>
</g>
<!-- x17&#45;&gt;c41 -->
<g id="edge18" class="edge">
<title>x17:e&#45;&gt;c41:w</title>
<path fill="none" stroke="black" stroke-width="3" d="M1525.38,-396.23C1529.95,-391.85 1532.64,-385.39 1537.21,-381.01"/>
<polygon fill="none" stroke="black" stroke-width="3" points="1526.97,-395.6 1522.86,-401.53 1515.81,-400.01 1519.92,-394.08 1526.97,-395.6"/>
<polygon fill="none" stroke="black" stroke-width="3" points="1535.61,-381.64 1539.73,-375.72 1546.77,-377.24 1542.66,-383.16 1535.61,-381.64"/>
</g>
<!-- x18&#45;&gt;c41 -->
<g id="edge19" class="edge">
<title>x18:e&#45;&gt;c41:w</title>
<path fill="none" stroke="black" stroke-width="3" d="M571.19,-332C639.6,-332 661.35,-332 735.72,-332 735.72,-332 735.72,-332 1413.99,-332 1470.25,-332 1486.22,-348.93 1536.5,-351.44"/>
<polygon fill="none" stroke="black" stroke-width="3" points="573.05,-332 567.05,-336 561.05,-332 567.05,-328 573.05,-332"/>
<polygon fill="none" stroke="black" stroke-width="3" points="1534.59,-351.39 1540.69,-347.54 1546.59,-351.68 1540.49,-355.54 1534.59,-351.39"/>
</g>
<!-- c42 -->
<g id="node38" class="node">
<title>c42</title>
<polygon fill="none" stroke="black" points="2441.54,-454.5 2441.54,-503.5 2537.54,-503.5 2537.54,-454.5 2441.54,-454.5"/>
<text text-anchor="middle" x="2454.42" y="-486.2" font-family="Times,serif" font-size="14.00">A</text>
<polyline fill="none" stroke="black" points="2441.54,-479 2467.29,-479"/>
<text text-anchor="middle" x="2454.42" y="-461.7" font-family="Times,serif" font-size="14.00">B</text>
<polyline fill="none" stroke="black" points="2467.29,-454.5 2467.29,-503.5"/>
<text text-anchor="middle" x="2489.54" y="-482.2" font-family="Times,serif" font-size="14.00">$12</text>
<text text-anchor="middle" x="2489.54" y="-465.7" font-family="Times,serif" font-size="14.00">$mul</text>
<polyline fill="none" stroke="black" points="2511.79,-454.5 2511.79,-503.5"/>
<text text-anchor="middle" x="2524.67" y="-474.2" font-family="Times,serif" font-size="14.00">Y</text>
</g>
<!-- c42&#45;&gt;c29 -->
<g id="edge41" class="edge">
<title>c42:e&#45;&gt;c29:w</title>
<path fill="none" stroke="black" stroke-width="3" d="M2537.54,-479.25C2553.87,-479.25 2553.85,-460.71 2562.77,-452.3"/>
<polygon fill="black" stroke="black" stroke-width="3" points="2561.16,-456.64 2569.29,-449.85 2558.7,-450.09 2561.16,-456.64"/>
</g>
<!-- x19&#45;&gt;c42 -->
<g id="edge20" class="edge">
<title>x19:e&#45;&gt;c42:w</title>
<path fill="none" stroke="black" stroke-width="3" d="M2417.36,-525.47C2423.34,-517.79 2423.84,-503.99 2429.96,-496.48"/>
<polygon fill="none" stroke="black" stroke-width="3" points="2418.86,-524.77 2415.12,-530.94 2407.99,-529.85 2411.73,-523.69 2418.86,-524.77"/>
<polygon fill="none" stroke="black" stroke-width="3" points="2428.14,-497.3 2431.96,-491.18 2439.08,-492.36 2435.25,-498.48 2428.14,-497.3"/>
</g>
<!-- x20&#45;&gt;c42 -->
<g id="edge21" class="edge">
<title>x20:e&#45;&gt;c42:w</title>
<path fill="none" stroke="black" stroke-width="3" d="M2418.26,-466.94C2421.86,-466.9 2424.99,-466.85 2428.57,-466.82"/>
<polygon fill="none" stroke="black" stroke-width="3" points="2420.25,-466.93 2414.27,-470.96 2408.25,-466.99 2414.23,-462.96 2420.25,-466.93"/>
<polygon fill="none" stroke="black" stroke-width="3" points="2426.84,-466.82 2432.82,-462.79 2438.84,-466.76 2432.86,-470.79 2426.84,-466.82"/>
</g>
<!-- c43 -->
<g id="node41" class="node">
<title>c43</title>
<polygon fill="none" stroke="black" points="3922.54,-277.5 3922.54,-326.5 4018.54,-326.5 4018.54,-277.5 3922.54,-277.5"/>
<text text-anchor="middle" x="3935.42" y="-309.2" font-family="Times,serif" font-size="14.00">A</text>
<polyline fill="none" stroke="black" points="3922.54,-302 3948.29,-302"/>
<text text-anchor="middle" x="3935.42" y="-284.7" font-family="Times,serif" font-size="14.00">B</text>
<polyline fill="none" stroke="black" points="3948.29,-277.5 3948.29,-326.5"/>
<text text-anchor="middle" x="3970.54" y="-305.2" font-family="Times,serif" font-size="14.00">$57</text>
<text text-anchor="middle" x="3970.54" y="-288.7" font-family="Times,serif" font-size="14.00">$mul</text>
<polyline fill="none" stroke="black" points="3992.79,-277.5 3992.79,-326.5"/>
<text text-anchor="middle" x="4005.67" y="-297.2" font-family="Times,serif" font-size="14.00">Y</text>
</g>
<!-- c48 -->
<g id="node52" class="node">
<title>c48</title>
<polygon fill="none" stroke="black" points="4054.54,-227.5 4054.54,-276.5 4142.29,-276.5 4142.29,-227.5 4054.54,-227.5"/>
<text text-anchor="middle" x="4067.42" y="-259.2" font-family="Times,serif" font-size="14.00">A</text>
<polyline fill="none" stroke="black" points="4054.54,-252 4080.29,-252"/>
<text text-anchor="middle" x="4067.42" y="-234.7" font-family="Times,serif" font-size="14.00">B</text>
<polyline fill="none" stroke="black" points="4080.29,-227.5 4080.29,-276.5"/>
<text text-anchor="middle" x="4098.42" y="-255.2" font-family="Times,serif" font-size="14.00">$58</text>
<text text-anchor="middle" x="4098.42" y="-238.7" font-family="Times,serif" font-size="14.00">$or</text>
<polyline fill="none" stroke="black" points="4116.54,-227.5 4116.54,-276.5"/>
<text text-anchor="middle" x="4129.42" y="-247.2" font-family="Times,serif" font-size="14.00">Y</text>
</g>
<!-- c43&#45;&gt;c48 -->
<g id="edge35" class="edge">
<title>c43:e&#45;&gt;c48:w</title>
<path fill="none" stroke="black" stroke-width="3" d="M4018.54,-302.25C4037.08,-302.25 4034.16,-278.12 4043.98,-268.32"/>
<polygon fill="black" stroke="black" stroke-width="3" points="4042.23,-272.74 4050.31,-265.88 4039.72,-266.21 4042.23,-272.74"/>
</g>
<!-- x21&#45;&gt;c43 -->
<g id="edge22" class="edge">
<title>x21:e&#45;&gt;c43:w</title>
<path fill="none" stroke="black" stroke-width="3" d="M3886.34,-204.37C3907.13,-218.43 3889.21,-272.31 3909.99,-286.38"/>
<polygon fill="none" stroke="black" stroke-width="3" points="3887.99,-204.82 3881.16,-207.12 3876.41,-201.7 3883.24,-199.4 3887.99,-204.82"/>
<polygon fill="none" stroke="black" stroke-width="3" points="3908.34,-285.93 3915.18,-283.63 3919.93,-289.05 3913.1,-291.35 3908.34,-285.93"/>
</g>
<!-- c44 -->
<g id="node43" class="node">
<title>c44</title>
<polygon fill="none" stroke="black" points="242.34,-640.5 242.34,-689.5 327.84,-689.5 327.84,-640.5 242.34,-640.5"/>
<text text-anchor="middle" x="255.22" y="-672.2" font-family="Times,serif" font-size="14.00">A</text>
<polyline fill="none" stroke="black" points="242.34,-665 268.09,-665"/>
<text text-anchor="middle" x="255.22" y="-647.7" font-family="Times,serif" font-size="14.00">B</text>
<polyline fill="none" stroke="black" points="268.09,-640.5 268.09,-689.5"/>
<text text-anchor="middle" x="285.09" y="-668.2" font-family="Times,serif" font-size="14.00">$1</text>
<text text-anchor="middle" x="285.09" y="-651.7" font-family="Times,serif" font-size="14.00">$or</text>
<polyline fill="none" stroke="black" points="302.09,-640.5 302.09,-689.5"/>
<text text-anchor="middle" x="314.97" y="-660.2" font-family="Times,serif" font-size="14.00">Y</text>
</g>
<!-- c44&#45;&gt;c40 -->
<g id="edge42" class="edge">
<title>c44:e&#45;&gt;c40:w</title>
<path fill="none" stroke="black" stroke-width="3" d="M327.84,-665.25C346.38,-665.25 343.46,-641.12 353.28,-631.32"/>
<polygon fill="black" stroke="black" stroke-width="3" points="351.53,-635.74 359.6,-628.88 349.01,-629.21 351.53,-635.74"/>
</g>
<!-- x22&#45;&gt;c44 -->
<g id="edge23" class="edge">
<title>x22:e&#45;&gt;c44:w</title>
<path fill="none" stroke="black" stroke-width="3" d="M218.15,-700.17C223.14,-695.07 225.58,-687.1 230.58,-682.03"/>
<polygon fill="none" stroke="black" stroke-width="3" points="219.95,-699.43 215.91,-705.41 208.84,-703.98 212.88,-698 219.95,-699.43"/>
<polygon fill="none" stroke="black" stroke-width="3" points="228.72,-682.79 232.77,-676.82 239.84,-678.27 235.78,-684.23 228.72,-682.79"/>
</g>
<!-- x23&#45;&gt;c44 -->
<g id="edge24" class="edge">
<title>x23:e&#45;&gt;c44:w</title>
<path fill="none" stroke="black" stroke-width="3" d="M219.07,-650.69C222.67,-651.1 225.79,-651.62 229.36,-652.03"/>
<polygon fill="none" stroke="black" stroke-width="3" points="221.02,-650.8 214.81,-654.47 209.04,-650.15 215.25,-646.48 221.02,-650.8"/>
<polygon fill="none" stroke="black" stroke-width="3" points="227.66,-651.93 233.87,-648.27 239.64,-652.6 233.43,-656.26 227.66,-651.93"/>
</g>
<!-- c45 -->
<g id="node46" class="node">
<title>c45</title>
<polygon fill="none" stroke="black" points="3127.04,-262.5 3127.04,-311.5 3214.79,-311.5 3214.79,-262.5 3127.04,-262.5"/>
<text text-anchor="middle" x="3139.92" y="-294.2" font-family="Times,serif" font-size="14.00">A</text>
<polyline fill="none" stroke="black" points="3127.04,-287 3152.79,-287"/>
<text text-anchor="middle" x="3139.92" y="-269.7" font-family="Times,serif" font-size="14.00">B</text>
<polyline fill="none" stroke="black" points="3152.79,-262.5 3152.79,-311.5"/>
<text text-anchor="middle" x="3170.92" y="-290.2" font-family="Times,serif" font-size="14.00">$15</text>
<text text-anchor="middle" x="3170.92" y="-273.7" font-family="Times,serif" font-size="14.00">$or</text>
<polyline fill="none" stroke="black" points="3189.04,-262.5 3189.04,-311.5"/>
<text text-anchor="middle" x="3201.92" y="-282.2" font-family="Times,serif" font-size="14.00">Y</text>
</g>
<!-- c46 -->
<g id="node49" class="node">
<title>c46</title>
<polygon fill="none" stroke="black" points="3250.79,-232.5 3250.79,-281.5 3338.54,-281.5 3338.54,-232.5 3250.79,-232.5"/>
<text text-anchor="middle" x="3263.67" y="-264.2" font-family="Times,serif" font-size="14.00">A</text>
<polyline fill="none" stroke="black" points="3250.79,-257 3276.54,-257"/>
<text text-anchor="middle" x="3263.67" y="-239.7" font-family="Times,serif" font-size="14.00">B</text>
<polyline fill="none" stroke="black" points="3276.54,-232.5 3276.54,-281.5"/>
<text text-anchor="middle" x="3294.67" y="-260.2" font-family="Times,serif" font-size="14.00">$16</text>
<text text-anchor="middle" x="3294.67" y="-243.7" font-family="Times,serif" font-size="14.00">$or</text>
<polyline fill="none" stroke="black" points="3312.79,-232.5 3312.79,-281.5"/>
<text text-anchor="middle" x="3325.67" y="-252.2" font-family="Times,serif" font-size="14.00">Y</text>
</g>
<!-- c45&#45;&gt;c46 -->
<g id="edge43" class="edge">
<title>c45:e&#45;&gt;c46:w</title>
<path fill="none" stroke="black" stroke-width="3" d="M3214.79,-287.25C3228.07,-287.25 3231.61,-277.33 3239.87,-272.22"/>
<polygon fill="black" stroke="black" stroke-width="3" points="3237.68,-276.45 3246.41,-270.44 3235.84,-269.69 3237.68,-276.45"/>
</g>
<!-- x24&#45;&gt;c45 -->
<g id="edge25" class="edge">
<title>x24:e&#45;&gt;c45:w</title>
<path fill="none" stroke="black" stroke-width="3" d="M3103.06,-378.96C3118.29,-364.85 3099.88,-317.8 3114.86,-303.45"/>
<polygon fill="none" stroke="black" stroke-width="3" points="3104.98,-378.31 3100.57,-384.02 3093.61,-382.14 3098.02,-376.44 3104.98,-378.31"/>
<polygon fill="none" stroke="black" stroke-width="3" points="3113.14,-304.04 3117.51,-298.3 3124.49,-300.13 3120.11,-305.87 3113.14,-304.04"/>
</g>
<!-- x25&#45;&gt;c45 -->
<g id="edge26" class="edge">
<title>x25:e&#45;&gt;c45:w</title>
<path fill="none" stroke="black" stroke-width="3" d="M669.76,-237.94C750.7,-237.14 775.46,-229 862.47,-229 862.47,-229 862.47,-229 1865.79,-229 2040.97,-229 2084.74,-234 2259.92,-234 2259.92,-234 2259.92,-234 2735.54,-234 2906.21,-234 2949.99,-272.78 3114.46,-274.68"/>
<polygon fill="none" stroke="black" stroke-width="3" points="671.54,-237.93 665.56,-241.96 659.55,-237.99 665.53,-233.96 671.54,-237.93"/>
<polygon fill="none" stroke="black" stroke-width="3" points="3112.34,-274.67 3118.36,-270.7 3124.34,-274.73 3118.32,-278.7 3112.34,-274.67"/>
</g>
<!-- c50 -->
<g id="node55" class="node">
<title>c50</title>
<polygon fill="none" stroke="black" points="3374.54,-220.5 3374.54,-269.5 3467.54,-269.5 3467.54,-220.5 3374.54,-220.5"/>
<text text-anchor="middle" x="3387.42" y="-252.2" font-family="Times,serif" font-size="14.00">A</text>
<polyline fill="none" stroke="black" points="3374.54,-245 3400.29,-245"/>
<text text-anchor="middle" x="3387.42" y="-227.7" font-family="Times,serif" font-size="14.00">B</text>
<polyline fill="none" stroke="black" points="3400.29,-220.5 3400.29,-269.5"/>
<text text-anchor="middle" x="3421.04" y="-248.2" font-family="Times,serif" font-size="14.00">$17</text>
<text text-anchor="middle" x="3421.04" y="-231.7" font-family="Times,serif" font-size="14.00">$sub</text>
<polyline fill="none" stroke="black" points="3441.79,-220.5 3441.79,-269.5"/>
<text text-anchor="middle" x="3454.67" y="-240.2" font-family="Times,serif" font-size="14.00">Y</text>
</g>
<!-- c46&#45;&gt;c50 -->
<g id="edge44" class="edge">
<title>c46:e&#45;&gt;c50:w</title>
<path fill="none" stroke="black" stroke-width="3" d="M3338.54,-257.25C3349.92,-257.25 3355.23,-257.25 3363.1,-257.25"/>
<polygon fill="black" stroke="black" stroke-width="3" points="3360,-260.75 3370,-257.25 3360,-253.75 3360,-260.75"/>
</g>
<!-- x26&#45;&gt;c46 -->
<g id="edge27" class="edge">
<title>x26:e&#45;&gt;c46:w</title>
<path fill="none" stroke="black" stroke-width="3" d="M330.2,-191C412.5,-191 437.75,-191 526.09,-191 526.09,-191 526.09,-191 1865.79,-191 2040.97,-191 2084.74,-196 2259.92,-196 2259.92,-196 2259.92,-196 2834.04,-196 3016.16,-196 3062.18,-242.49 3237.91,-244.67"/>
<polygon fill="none" stroke="black" stroke-width="3" points="332.05,-191 326.05,-195 320.05,-191 326.05,-187 332.05,-191"/>
<polygon fill="none" stroke="black" stroke-width="3" points="3236.09,-244.66 3242.11,-240.7 3248.09,-244.73 3242.06,-248.7 3236.09,-244.66"/>
</g>
<!-- c47&#45;&gt;x10 -->
<g id="edge45" class="edge">
<title>c47:e&#45;&gt;x10:w</title>
<path fill="none" stroke="black" stroke-width="3" d="M2305.79,-117.25C2317.82,-117.25 2323.29,-117.25 2331.74,-117.25"/>
<polygon fill="black" stroke="black" stroke-width="3" points="2328.5,-120.75 2338.5,-117.25 2328.5,-113.75 2328.5,-120.75"/>
</g>
<!-- c48&#45;&gt;c32 -->
<g id="edge36" class="edge">
<title>c48:e&#45;&gt;c32:w</title>
<path fill="none" stroke="black" stroke-width="3" d="M4142.29,-252.25C4159.25,-252.25 4158.44,-232.11 4167.62,-223.3"/>
<polygon fill="black" stroke="black" stroke-width="3" points="4165.94,-227.68 4174.05,-220.86 4163.46,-221.13 4165.94,-227.68"/>
</g>
<!-- x27&#45;&gt;c48 -->
<g id="edge28" class="edge">
<title>x27:e&#45;&gt;c48:w</title>
<path fill="none" stroke="black" stroke-width="3" d="M4015.77,-239.97C4025.38,-239.92 4031.92,-239.83 4041.52,-239.78"/>
<polygon fill="none" stroke="black" stroke-width="3" points="4017.5,-239.97 4011.51,-243.98 4005.5,-239.99 4011.49,-235.98 4017.5,-239.97"/>
<polygon fill="none" stroke="black" stroke-width="3" points="4039.84,-239.78 4045.83,-235.77 4051.84,-239.76 4045.85,-243.77 4039.84,-239.78"/>
</g>
<!-- c49&#45;&gt;c43 -->
<g id="edge46" class="edge">
<title>c49:e&#45;&gt;c43:w</title>
<path fill="none" stroke="black" stroke-width="3" d="M3886.54,-615.25C4017.2,-615.25 3801.61,-332.2 3911.3,-315.06"/>
<polygon fill="black" stroke="black" stroke-width="3" points="3908.29,-318.79 3918.02,-314.58 3907.79,-311.81 3908.29,-318.79"/>
</g>
<!-- c50&#45;&gt;n24 -->
<g id="edge81" class="edge">
<title>c50:e&#45;&gt;n24:w</title>
<path fill="none" stroke="black" stroke-width="3" d="M3467.54,-245.25C3479.38,-245.25 3484.29,-249.77 3492.23,-252.31"/>
<polygon fill="black" stroke="black" stroke-width="3" points="3488.64,-255.32 3499.05,-253.33 3489.68,-248.39 3488.64,-255.32"/>
</g>
<!-- x28&#45;&gt;c50 -->
<g id="edge29" class="edge">
<title>x28:e&#45;&gt;c50:w</title>
<path fill="none" stroke="black" stroke-width="3" d="M2665.48,-305.95C2923.1,-303.93 2987.36,-241.19 3250.79,-223 3289.7,-220.31 3299.88,-217.86 3338.54,-223 3349.58,-224.47 3354.56,-228.37 3361.66,-230.76"/>
<polygon fill="none" stroke="black" stroke-width="3" points="2667.37,-305.94 2661.39,-309.97 2655.37,-305.99 2661.36,-301.97 2667.37,-305.94"/>
<polygon fill="none" stroke="black" stroke-width="3" points="3360.01,-230.51 3366.55,-227.47 3371.87,-232.34 3365.33,-235.38 3360.01,-230.51"/>
</g>
<!-- c51&#45;&gt;c30 -->
<g id="edge48" class="edge">
<title>c51:e&#45;&gt;c30:w</title>
<path fill="none" stroke="black" stroke-width="3" d="M2049.04,-282.25C2103.36,-282.25 2037.68,-173.4 2074.18,-157.24"/>
<polygon fill="black" stroke="black" stroke-width="3" points="2071.37,-161.32 2080.58,-156.07 2070.11,-154.43 2071.37,-161.32"/>
</g>
<!-- c52&#45;&gt;n23 -->
<g id="edge69" class="edge">
<title>c52:e&#45;&gt;n23:w</title>
<path fill="none" stroke="black" stroke-width="3" d="M1773.54,-352.25C1792.72,-352.25 1788.91,-377.99 1799.11,-388.04"/>
<polygon fill="black" stroke="black" stroke-width="3" points="1794.7,-390.12 1805.3,-390.39 1797.19,-383.57 1794.7,-390.12"/>
</g>
<!-- x29&#45;&gt;c52 -->
<g id="edge30" class="edge">
<title>x29:e&#45;&gt;c52:w</title>
<path fill="none" stroke="black" stroke-width="3" d="M456.73,-285C526.69,-285 548.76,-285 624.59,-285 624.59,-285 624.59,-285 1483.04,-285 1484.25,-285 1625.48,-324.52 1668.81,-336.41"/>
<polygon fill="none" stroke="black" stroke-width="3" points="458.8,-285 452.8,-289 446.8,-285 452.8,-281 458.8,-285"/>
<polygon fill="none" stroke="black" stroke-width="3" points="1667.09,-335.95 1673.92,-333.64 1678.68,-339.05 1671.85,-341.36 1667.09,-335.95"/>
</g>
<!-- x31 -->
<g id="node61" class="node">
<title>x31</title>
<path fill="none" stroke="black" d="M958.34,-572.5C958.34,-572.5 996.84,-572.5 996.84,-572.5 1002.84,-572.5 1008.84,-578.5 1008.84,-584.5 1008.84,-584.5 1008.84,-609.5 1008.84,-609.5 1008.84,-615.5 1002.84,-621.5 996.84,-621.5 996.84,-621.5 958.34,-621.5 958.34,-621.5 952.34,-621.5 946.34,-615.5 946.34,-609.5 946.34,-609.5 946.34,-584.5 946.34,-584.5 946.34,-578.5 952.34,-572.5 958.34,-572.5"/>
<text text-anchor="middle" x="977.59" y="-604.2" font-family="Times,serif" font-size="14.00">3:1 &#45; 4:2</text>
<polyline fill="none" stroke="black" points="946.34,-597 1008.84,-597"/>
<text text-anchor="middle" x="977.59" y="-579.7" font-family="Times,serif" font-size="14.00">0:0 &#45; 0:0</text>
</g>
<!-- x30&#45;&gt;x31 -->
<g id="edge31" class="edge">
<title>x30:e&#45;&gt;x31:w</title>
<path fill="none" stroke="black" stroke-width="3" d="M219.27,-766.83C300.16,-764.62 323.75,-742 410.84,-742 410.84,-742 410.84,-742 737.72,-742 846.11,-742 834.59,-608.38 933.39,-597.68"/>
<polygon fill="none" stroke="black" stroke-width="3" points="221.04,-766.8 215.1,-770.88 209.04,-766.96 214.99,-762.88 221.04,-766.8"/>
<polygon fill="none" stroke="black" stroke-width="3" points="931.66,-597.77 937.44,-593.46 943.64,-597.14 937.86,-601.45 931.66,-597.77"/>
</g>
<!-- x31&#45;&gt;n4 -->
<g id="edge91" class="edge">
<title>x31:e&#45;&gt;n4:w</title>
<path fill="none" stroke="black" d="M1008.84,-584.75C1029.3,-584.75 1023.66,-555.87 1034.33,-545.04"/>
<polygon fill="black" stroke="black" points="1035.35,-548.39 1043.43,-541.54 1032.84,-541.86 1035.35,-548.39"/>
</g>
<!-- x31&#45;&gt;n4 -->
<g id="edge92" class="edge">
<title>x31:e&#45;&gt;n4:w</title>
<path fill="none" stroke="black" stroke-width="3" d="M1008.84,-609.25C1038.31,-609.25 1018.39,-558.85 1033.97,-544.67"/>
<polygon fill="black" stroke="black" stroke-width="3" points="1032.18,-548.97 1040.54,-542.45 1029.94,-542.33 1032.18,-548.97"/>
</g>
<!-- v32 -->
<g id="node62" class="node">
<title>v32</title>
<ellipse fill="none" stroke="black" cx="1229.82" cy="-379" rx="27" ry="18"/>
<text text-anchor="middle" x="1229.82" y="-373.95" font-family="Times,serif" font-size="14.00">1&#39;0</text>
</g>
<!-- x33 -->
<g id="node63" class="node">
<title>x33</title>
<path fill="none" stroke="black" d="M1324.69,-361C1324.69,-361 1363.19,-361 1363.19,-361 1369.19,-361 1375.19,-367 1375.19,-373 1375.19,-373 1375.19,-385 1375.19,-385 1375.19,-391 1369.19,-397 1363.19,-397 1363.19,-397 1324.69,-397 1324.69,-397 1318.69,-397 1312.69,-391 1312.69,-385 1312.69,-385 1312.69,-373 1312.69,-373 1312.69,-367 1318.69,-361 1324.69,-361"/>
<text text-anchor="middle" x="1343.94" y="-374.2" font-family="Times,serif" font-size="14.00">0:0 &#45; 2:2</text>
</g>
<!-- v32&#45;&gt;x33 -->
<g id="edge104" class="edge">
<title>v32:e&#45;&gt;x33:w</title>
<path fill="none" stroke="black" d="M1258.07,-379C1278.17,-379 1285.79,-379 1301.6,-379"/>
<polygon fill="black" stroke="black" points="1301.18,-382.5 1311.18,-379 1301.18,-375.5 1301.18,-382.5"/>
</g>
<!-- x33&#45;&gt;n5 -->
<g id="edge95" class="edge">
<title>x33:e&#45;&gt;n5:w</title>
<path fill="none" stroke="black" d="M1375.19,-379.25C1396.42,-379.25 1389.63,-410.04 1400.79,-421.1"/>
<polygon fill="black" stroke="black" points="1399.18,-424.23 1409.77,-424.47 1401.64,-417.68 1399.18,-424.23"/>
</g>
<!-- v34 -->
<g id="node64" class="node">
<title>v34</title>
<ellipse fill="none" stroke="black" cx="3421.04" cy="-101" rx="35.49" ry="18"/>
<text text-anchor="middle" x="3421.04" y="-95.95" font-family="Times,serif" font-size="14.00">4&#39;0000</text>
</g>
<!-- x35 -->
<g id="node65" class="node">
<title>x35</title>
<path fill="none" stroke="black" d="M3539.54,-83C3539.54,-83 3578.04,-83 3578.04,-83 3584.04,-83 3590.04,-89 3590.04,-95 3590.04,-95 3590.04,-107 3590.04,-107 3590.04,-113 3584.04,-119 3578.04,-119 3578.04,-119 3539.54,-119 3539.54,-119 3533.54,-119 3527.54,-113 3527.54,-107 3527.54,-107 3527.54,-95 3527.54,-95 3527.54,-89 3533.54,-83 3539.54,-83"/>
<text text-anchor="middle" x="3558.79" y="-96.2" font-family="Times,serif" font-size="14.00">3:0 &#45; 8:5</text>
</g>
<!-- v34&#45;&gt;x35 -->
<g id="edge105" class="edge">
<title>v34:e&#45;&gt;x35:w</title>
<path fill="none" stroke="black" stroke-width="3" d="M3457.86,-101C3484.21,-101 3493.5,-101 3515.19,-101"/>
<polygon fill="black" stroke="black" stroke-width="3" points="3512,-104.5 3522,-101 3512,-97.5 3512,-104.5"/>
</g>
<!-- x35&#45;&gt;n25 -->
<g id="edge85" class="edge">
<title>x35:e&#45;&gt;n25:w</title>
<path fill="none" stroke="black" stroke-width="3" d="M3591.04,-101.25C3620.19,-101.25 3617.94,-136.72 3638.99,-145.87"/>
<polygon fill="black" stroke="black" stroke-width="3" points="3635.1,-148.68 3645.58,-147.14 3636.43,-141.81 3635.1,-148.68"/>
</g>
<!-- n1&#45;&gt;x8 -->
<g id="edge34" class="edge">
<title>n1:e&#45;&gt;x8:w</title>
<path fill="none" stroke="black" stroke-width="3" d="M2737.82,-436C2767.53,-436 2768.23,-404.04 2790.69,-396.04"/>
<polygon fill="black" stroke="black" stroke-width="3" points="2788,-400.02 2797.31,-394.97 2786.88,-393.11 2788,-400.02"/>
</g>
<!-- n1&#45;&gt;x24 -->
<g id="edge33" class="edge">
<title>n1:e&#45;&gt;x24:w</title>
<path fill="none" stroke="black" stroke-width="3" d="M2737.82,-436C2851.87,-436 2880.73,-427.45 2992.54,-405 3004.22,-402.65 3009.15,-398.64 3017.15,-396.57"/>
<polygon fill="black" stroke="black" stroke-width="3" points="3014.5,-400.4 3024.03,-395.77 3013.69,-393.45 3014.5,-400.4"/>
</g>
<!-- n12&#45;&gt;x2 -->
<g id="edge38" class="edge">
<title>n12:e&#45;&gt;x2:w</title>
<path fill="none" stroke="black" d="M530.37,-615C556.5,-615 562.51,-597.09 582.98,-592.05"/>
<polygon fill="black" stroke="black" points="583.3,-595.54 592.84,-590.92 582.5,-588.59 583.3,-595.54"/>
</g>
<!-- n12&#45;&gt;x2 -->
<g id="edge39" class="edge">
<title>n12:e&#45;&gt;x2:w</title>
<path fill="none" stroke="black" d="M530.37,-615C554.58,-615 563.33,-615.18 582.95,-615.24"/>
<polygon fill="black" stroke="black" points="582.82,-618.73 592.83,-615.25 582.83,-611.73 582.82,-618.73"/>
</g>
<!-- n4&#45;&gt;x4 -->
<g id="edge93" class="edge">
<title>n4:e&#45;&gt;x4:w</title>
<path fill="none" stroke="black" d="M1048.44,-541C1070.39,-541 1062.55,-508.53 1073.79,-496.86"/>
<polygon fill="black" stroke="black" points="1074.96,-500.16 1083.03,-493.3 1072.44,-493.63 1074.96,-500.16"/>
</g>
<!-- n4&#45;&gt;x4 -->
<g id="edge94" class="edge">
<title>n4:e&#45;&gt;x4:w</title>
<path fill="none" stroke="black" d="M1048.44,-541C1059.82,-541 1065.13,-541.38 1072.99,-541.6"/>
<polygon fill="black" stroke="black" points="1072.88,-545.1 1082.93,-541.73 1072.97,-538.1 1072.88,-545.1"/>
</g>
<!-- n5&#45;&gt;x17 -->
<g id="edge98" class="edge">
<title>n5:e&#45;&gt;x17:w</title>
<path fill="none" stroke="black" stroke-width="3" d="M1414.79,-425C1436.81,-425 1428.87,-392.36 1440.12,-380.64"/>
<polygon fill="black" stroke="black" stroke-width="3" points="1438.5,-385.02 1446.56,-378.14 1435.97,-378.49 1438.5,-385.02"/>
</g>
<!-- n5&#45;&gt;x17 -->
<g id="edge99" class="edge">
<title>n5:e&#45;&gt;x17:w</title>
<path fill="none" stroke="black" stroke-width="3" d="M1414.79,-425C1426.17,-425 1431.48,-425.25 1439.34,-425.4"/>
<polygon fill="black" stroke="black" stroke-width="3" points="1436.22,-428.87 1446.25,-425.46 1436.28,-421.87 1436.22,-428.87"/>
</g>
</g>
</svg>
