<?xml version="1.0" encoding="UTF-8" standalone="no"?>
<!DOCTYPE svg PUBLIC "-//W3C//DTD SVG 1.1//EN"
 "http://www.w3.org/Graphics/SVG/1.1/DTD/svg11.dtd">
<!-- Generated by graphviz version 12.2.1 (20241206.2353)
 -->
<!-- Title: top Pages: 1 -->
<svg width="3000pt" height="660pt"
 viewBox="0.00 0.00 3000.11 660.17" xmlns="http://www.w3.org/2000/svg" xmlns:xlink="http://www.w3.org/1999/xlink">
<g id="graph0" class="graph" transform="scale(1 1) rotate(0) translate(4 656.17)">
<title>top</title>
<polygon fill="white" stroke="none" points="-4,4 -4,-656.17 2996.11,-656.17 2996.11,4 -4,4"/>
<text text-anchor="middle" x="1496.05" y="-7.2" font-family="Times,serif" font-size="14.00">top</text>
<!-- n16 -->
<g id="node1" class="node">
<title>n16</title>
<polygon fill="none" stroke="black" points="107.84,-251.71 107.84,-266.63 76.26,-277.17 31.59,-277.17 0,-266.63 0,-251.71 31.59,-241.17 76.26,-241.17 107.84,-251.71"/>
<text text-anchor="middle" x="53.92" y="-254.12" font-family="Times,serif" font-size="14.00">input_data</text>
</g>
<!-- c23 -->
<g id="node5" class="node">
<title>c23</title>
<polygon fill="none" stroke="black" points="2234.04,-72.67 2234.04,-121.67 2327.79,-121.67 2327.79,-72.67 2234.04,-72.67"/>
<text text-anchor="middle" x="2246.92" y="-104.37" font-family="Times,serif" font-size="14.00">A</text>
<polyline fill="none" stroke="black" points="2234.04,-97.17 2259.79,-97.17"/>
<text text-anchor="middle" x="2246.92" y="-79.87" font-family="Times,serif" font-size="14.00">B</text>
<polyline fill="none" stroke="black" points="2259.79,-72.67 2259.79,-121.67"/>
<text text-anchor="middle" x="2280.92" y="-100.37" font-family="Times,serif" font-size="14.00">$6</text>
<text text-anchor="middle" x="2280.92" y="-83.87" font-family="Times,serif" font-size="14.00">$add</text>
<polyline fill="none" stroke="black" points="2302.04,-72.67 2302.04,-121.67"/>
<text text-anchor="middle" x="2314.92" y="-92.37" font-family="Times,serif" font-size="14.00">Y</text>
</g>
<!-- n16&#45;&gt;c23 -->
<g id="edge40" class="edge">
<title>n16:e&#45;&gt;c23:w</title>
<path fill="none" stroke="black" stroke-width="3" d="M107.84,-259.17C197.72,-259.17 79.74,-123.17 143.84,-60.17 200.97,-4.03 241.62,-31.17 321.72,-31.17 321.72,-31.17 321.72,-31.17 2030.04,-31.17 2107.23,-31.17 2123.46,-55.3 2198.04,-75.17 2209.55,-78.24 2214.55,-81.93 2222.61,-83.77"/>
<polygon fill="black" stroke="black" stroke-width="3" points="2219.22,-86.94 2229.52,-84.47 2219.93,-79.98 2219.22,-86.94"/>
</g>
<!-- c25 -->
<g id="node10" class="node">
<title>c25</title>
<polygon fill="none" stroke="black" points="144.97,-363.67 144.97,-412.67 238.72,-412.67 238.72,-363.67 144.97,-363.67"/>
<text text-anchor="middle" x="157.84" y="-395.37" font-family="Times,serif" font-size="14.00">A</text>
<polyline fill="none" stroke="black" points="144.97,-388.17 170.72,-388.17"/>
<text text-anchor="middle" x="157.84" y="-370.87" font-family="Times,serif" font-size="14.00">B</text>
<polyline fill="none" stroke="black" points="170.72,-363.67 170.72,-412.67"/>
<text text-anchor="middle" x="191.84" y="-391.37" font-family="Times,serif" font-size="14.00">$7</text>
<text text-anchor="middle" x="191.84" y="-374.87" font-family="Times,serif" font-size="14.00">$and</text>
<polyline fill="none" stroke="black" points="212.97,-363.67 212.97,-412.67"/>
<text text-anchor="middle" x="225.84" y="-383.37" font-family="Times,serif" font-size="14.00">Y</text>
</g>
<!-- n16&#45;&gt;c25 -->
<g id="edge41" class="edge">
<title>n16:e&#45;&gt;c25:w</title>
<path fill="none" stroke="black" stroke-width="3" d="M107.84,-259.17C168.21,-259.17 91.21,-381.77 132.79,-398.53"/>
<polygon fill="black" stroke="black" stroke-width="3" points="129.05,-401.45 139.49,-399.66 130.21,-394.54 129.05,-401.45"/>
</g>
<!-- n16&#45;&gt;c25 -->
<g id="edge42" class="edge">
<title>n16:e&#45;&gt;c25:w</title>
<path fill="none" stroke="black" stroke-width="3" d="M107.84,-259.17C157.7,-259.17 100.69,-357.55 133.02,-373.69"/>
<polygon fill="black" stroke="black" stroke-width="3" points="129.02,-376.45 139.52,-375.01 130.42,-369.59 129.02,-376.45"/>
</g>
<!-- c26 -->
<g id="node11" class="node">
<title>c26</title>
<polygon fill="none" stroke="black" points="275.84,-343.67 275.84,-392.67 369.59,-392.67 369.59,-343.67 275.84,-343.67"/>
<text text-anchor="middle" x="288.72" y="-375.37" font-family="Times,serif" font-size="14.00">A</text>
<polyline fill="none" stroke="black" points="275.84,-368.17 301.59,-368.17"/>
<text text-anchor="middle" x="288.72" y="-350.87" font-family="Times,serif" font-size="14.00">B</text>
<polyline fill="none" stroke="black" points="301.59,-343.67 301.59,-392.67"/>
<text text-anchor="middle" x="322.72" y="-371.37" font-family="Times,serif" font-size="14.00">$8</text>
<text text-anchor="middle" x="322.72" y="-354.87" font-family="Times,serif" font-size="14.00">$and</text>
<polyline fill="none" stroke="black" points="343.84,-343.67 343.84,-392.67"/>
<text text-anchor="middle" x="356.72" y="-363.37" font-family="Times,serif" font-size="14.00">Y</text>
</g>
<!-- n16&#45;&gt;c26 -->
<g id="edge43" class="edge">
<title>n16:e&#45;&gt;c26:w</title>
<path fill="none" stroke="black" stroke-width="3" d="M107.84,-259.17C135.95,-259.17 121.4,-294.25 143.84,-311.17 165.96,-327.85 229.35,-350.5 264.64,-355.09"/>
<polygon fill="black" stroke="black" stroke-width="3" points="261.08,-358.33 271.31,-355.58 261.6,-351.35 261.08,-358.33"/>
</g>
<!-- c27 -->
<g id="node12" class="node">
<title>c27</title>
<polygon fill="none" stroke="black" points="413.97,-305.67 413.97,-354.67 507.72,-354.67 507.72,-305.67 413.97,-305.67"/>
<text text-anchor="middle" x="426.84" y="-337.37" font-family="Times,serif" font-size="14.00">A</text>
<polyline fill="none" stroke="black" points="413.97,-330.17 439.72,-330.17"/>
<text text-anchor="middle" x="426.84" y="-312.87" font-family="Times,serif" font-size="14.00">B</text>
<polyline fill="none" stroke="black" points="439.72,-305.67 439.72,-354.67"/>
<text text-anchor="middle" x="460.84" y="-333.37" font-family="Times,serif" font-size="14.00">$9</text>
<text text-anchor="middle" x="460.84" y="-316.87" font-family="Times,serif" font-size="14.00">$and</text>
<polyline fill="none" stroke="black" points="481.97,-305.67 481.97,-354.67"/>
<text text-anchor="middle" x="494.84" y="-325.37" font-family="Times,serif" font-size="14.00">Y</text>
</g>
<!-- n16&#45;&gt;c27 -->
<g id="edge44" class="edge">
<title>n16:e&#45;&gt;c27:w</title>
<path fill="none" stroke="black" stroke-width="3" d="M107.84,-259.17C125.73,-259.17 126.79,-271.77 143.84,-277.17 255.44,-312.55 289.79,-317.62 401.54,-317.91"/>
<polygon fill="black" stroke="black" stroke-width="3" points="398.42,-321.4 408.43,-317.91 398.43,-314.4 398.42,-321.4"/>
</g>
<!-- c29 -->
<g id="node16" class="node">
<title>c29</title>
<polygon fill="none" stroke="black" points="1373.79,-189.67 1373.79,-238.67 1467.54,-238.67 1467.54,-189.67 1373.79,-189.67"/>
<text text-anchor="middle" x="1386.67" y="-221.37" font-family="Times,serif" font-size="14.00">A</text>
<polyline fill="none" stroke="black" points="1373.79,-214.17 1399.54,-214.17"/>
<text text-anchor="middle" x="1386.67" y="-196.87" font-family="Times,serif" font-size="14.00">B</text>
<polyline fill="none" stroke="black" points="1399.54,-189.67 1399.54,-238.67"/>
<text text-anchor="middle" x="1420.67" y="-217.37" font-family="Times,serif" font-size="14.00">$90</text>
<text text-anchor="middle" x="1420.67" y="-200.87" font-family="Times,serif" font-size="14.00">$and</text>
<polyline fill="none" stroke="black" points="1441.79,-189.67 1441.79,-238.67"/>
<text text-anchor="middle" x="1454.67" y="-209.37" font-family="Times,serif" font-size="14.00">Y</text>
</g>
<!-- n16&#45;&gt;c29 -->
<g id="edge45" class="edge">
<title>n16:e&#45;&gt;c29:w</title>
<path fill="none" stroke="black" stroke-width="3" d="M107.84,-259.17C141.25,-259.17 117.6,-213.85 143.84,-193.17 208.15,-142.48 239.83,-145.17 321.72,-145.17 321.72,-145.17 321.72,-145.17 1200.99,-145.17 1277.88,-145.17 1291.7,-196.51 1362.43,-201.53"/>
<polygon fill="black" stroke="black" stroke-width="3" points="1359.14,-204.92 1369.25,-201.76 1359.38,-197.92 1359.14,-204.92"/>
</g>
<!-- c30 -->
<g id="node19" class="node">
<title>c30</title>
<polygon fill="none" stroke="black" points="1830.29,-97.67 1830.29,-146.67 1922.54,-146.67 1922.54,-97.67 1830.29,-97.67"/>
<text text-anchor="middle" x="1843.17" y="-129.37" font-family="Times,serif" font-size="14.00">A</text>
<polyline fill="none" stroke="black" points="1830.29,-122.17 1856.04,-122.17"/>
<text text-anchor="middle" x="1843.17" y="-104.87" font-family="Times,serif" font-size="14.00">B</text>
<polyline fill="none" stroke="black" points="1856.04,-97.67 1856.04,-146.67"/>
<text text-anchor="middle" x="1876.42" y="-125.37" font-family="Times,serif" font-size="14.00">$94</text>
<text text-anchor="middle" x="1876.42" y="-108.87" font-family="Times,serif" font-size="14.00">$xor</text>
<polyline fill="none" stroke="black" points="1896.79,-97.67 1896.79,-146.67"/>
<text text-anchor="middle" x="1909.67" y="-117.37" font-family="Times,serif" font-size="14.00">Y</text>
</g>
<!-- n16&#45;&gt;c30 -->
<g id="edge46" class="edge">
<title>n16:e&#45;&gt;c30:w</title>
<path fill="none" stroke="black" stroke-width="3" d="M107.84,-259.17C161.4,-259.17 104.16,-180.13 143.84,-144.17 203.67,-89.95 240.97,-107.17 321.72,-107.17 321.72,-107.17 321.72,-107.17 1634.29,-107.17 1717.5,-107.17 1741.09,-109.68 1818.94,-109.9"/>
<polygon fill="black" stroke="black" stroke-width="3" points="1815.75,-113.4 1825.75,-109.91 1815.76,-106.4 1815.75,-113.4"/>
</g>
<!-- c31 -->
<g id="node21" class="node">
<title>c31</title>
<polygon fill="none" stroke="black" points="1982.92,-72.67 1982.92,-121.67 2075.17,-121.67 2075.17,-72.67 1982.92,-72.67"/>
<text text-anchor="middle" x="1995.79" y="-104.37" font-family="Times,serif" font-size="14.00">A</text>
<polyline fill="none" stroke="black" points="1982.92,-97.17 2008.67,-97.17"/>
<text text-anchor="middle" x="1995.79" y="-79.87" font-family="Times,serif" font-size="14.00">B</text>
<polyline fill="none" stroke="black" points="2008.67,-72.67 2008.67,-121.67"/>
<text text-anchor="middle" x="2029.04" y="-100.37" font-family="Times,serif" font-size="14.00">$97</text>
<text text-anchor="middle" x="2029.04" y="-83.87" font-family="Times,serif" font-size="14.00">$xor</text>
<polyline fill="none" stroke="black" points="2049.42,-72.67 2049.42,-121.67"/>
<text text-anchor="middle" x="2062.29" y="-92.37" font-family="Times,serif" font-size="14.00">Y</text>
</g>
<!-- n16&#45;&gt;c31 -->
<g id="edge47" class="edge">
<title>n16:e&#45;&gt;c31:w</title>
<path fill="none" stroke="black" stroke-width="3" d="M107.84,-259.17C180.3,-259.17 91.34,-150.1 143.84,-100.17 201.99,-44.87 241.47,-69.17 321.72,-69.17 321.72,-69.17 321.72,-69.17 1748.42,-69.17 1848.57,-69.17 1875.9,-83.77 1970.65,-84.86"/>
<polygon fill="black" stroke="black" stroke-width="3" points="1967.36,-88.34 1977.38,-84.89 1967.4,-81.34 1967.36,-88.34"/>
</g>
<!-- c32 -->
<g id="node22" class="node">
<title>c32</title>
<polygon fill="none" stroke="black" points="143.84,-431.67 143.84,-480.67 239.84,-480.67 239.84,-431.67 143.84,-431.67"/>
<text text-anchor="middle" x="156.72" y="-463.37" font-family="Times,serif" font-size="14.00">A</text>
<polyline fill="none" stroke="black" points="143.84,-456.17 169.59,-456.17"/>
<text text-anchor="middle" x="156.72" y="-438.87" font-family="Times,serif" font-size="14.00">B</text>
<polyline fill="none" stroke="black" points="169.59,-431.67 169.59,-480.67"/>
<text text-anchor="middle" x="191.84" y="-459.37" font-family="Times,serif" font-size="14.00">$1</text>
<text text-anchor="middle" x="191.84" y="-442.87" font-family="Times,serif" font-size="14.00">$mul</text>
<polyline fill="none" stroke="black" points="214.09,-431.67 214.09,-480.67"/>
<text text-anchor="middle" x="226.97" y="-451.37" font-family="Times,serif" font-size="14.00">Y</text>
</g>
<!-- n16&#45;&gt;c32 -->
<g id="edge48" class="edge">
<title>n16:e&#45;&gt;c32:w</title>
<path fill="none" stroke="black" stroke-width="3" d="M107.84,-259.17C197.97,-259.17 62.7,-450.04 132.57,-467.19"/>
<polygon fill="black" stroke="black" stroke-width="3" points="129.01,-470.32 139.33,-467.93 129.77,-463.36 129.01,-470.32"/>
</g>
<!-- n16&#45;&gt;c32 -->
<g id="edge49" class="edge">
<title>n16:e&#45;&gt;c32:w</title>
<path fill="none" stroke="black" stroke-width="3" d="M107.84,-259.17C187.25,-259.17 72.97,-425.63 132.7,-442.54"/>
<polygon fill="black" stroke="black" stroke-width="3" points="128.98,-445.6 139.33,-443.36 129.84,-438.66 128.98,-445.6"/>
</g>
<!-- x9 -->
<g id="node25" class="node">
<title>x9</title>
<path fill="none" stroke="black" d="M303.47,-250.17C303.47,-250.17 341.97,-250.17 341.97,-250.17 347.97,-250.17 353.97,-256.17 353.97,-262.17 353.97,-262.17 353.97,-274.17 353.97,-274.17 353.97,-280.17 347.97,-286.17 341.97,-286.17 341.97,-286.17 303.47,-286.17 303.47,-286.17 297.47,-286.17 291.47,-280.17 291.47,-274.17 291.47,-274.17 291.47,-262.17 291.47,-262.17 291.47,-256.17 297.47,-250.17 303.47,-250.17"/>
<text text-anchor="middle" x="322.72" y="-263.37" font-family="Times,serif" font-size="14.00">1:0 &#45; 1:0</text>
</g>
<!-- n16&#45;&gt;x9 -->
<g id="edge52" class="edge">
<title>n16:e&#45;&gt;x9:w</title>
<path fill="none" stroke="black" stroke-width="3" d="M107.84,-259.17C185.14,-259.17 207.09,-267.54 278.98,-268.36"/>
<polygon fill="black" stroke="black" stroke-width="3" points="275.91,-271.84 285.93,-268.4 275.95,-264.84 275.91,-271.84"/>
</g>
<!-- x10 -->
<g id="node27" class="node">
<title>x10</title>
<path fill="none" stroke="black" d="M441.59,-212.17C441.59,-212.17 480.09,-212.17 480.09,-212.17 486.09,-212.17 492.09,-218.17 492.09,-224.17 492.09,-224.17 492.09,-236.17 492.09,-236.17 492.09,-242.17 486.09,-248.17 480.09,-248.17 480.09,-248.17 441.59,-248.17 441.59,-248.17 435.59,-248.17 429.59,-242.17 429.59,-236.17 429.59,-236.17 429.59,-224.17 429.59,-224.17 429.59,-218.17 435.59,-212.17 441.59,-212.17"/>
<text text-anchor="middle" x="460.84" y="-225.37" font-family="Times,serif" font-size="14.00">4:2 &#45; 2:0</text>
</g>
<!-- n16&#45;&gt;x10 -->
<g id="edge51" class="edge">
<title>n16:e&#45;&gt;x10:w</title>
<path fill="none" stroke="black" stroke-width="3" d="M107.84,-259.17C126.61,-259.17 257.14,-242.83 275.84,-241.17 339.66,-235.51 358.38,-230.98 417.13,-230.47"/>
<polygon fill="black" stroke="black" stroke-width="3" points="414.07,-233.98 424.05,-230.44 414.04,-226.98 414.07,-233.98"/>
</g>
<!-- c35 -->
<g id="node28" class="node">
<title>c35</title>
<polygon fill="none" stroke="black" points="954.19,-227.67 954.19,-276.67 1050.19,-276.67 1050.19,-227.67 954.19,-227.67"/>
<text text-anchor="middle" x="967.07" y="-259.37" font-family="Times,serif" font-size="14.00">A</text>
<polyline fill="none" stroke="black" points="954.19,-252.17 979.94,-252.17"/>
<text text-anchor="middle" x="967.07" y="-234.87" font-family="Times,serif" font-size="14.00">B</text>
<polyline fill="none" stroke="black" points="979.94,-227.67 979.94,-276.67"/>
<text text-anchor="middle" x="1002.19" y="-255.37" font-family="Times,serif" font-size="14.00">$2</text>
<text text-anchor="middle" x="1002.19" y="-238.87" font-family="Times,serif" font-size="14.00">$mul</text>
<polyline fill="none" stroke="black" points="1024.44,-227.67 1024.44,-276.67"/>
<text text-anchor="middle" x="1037.32" y="-247.37" font-family="Times,serif" font-size="14.00">Y</text>
</g>
<!-- n16&#45;&gt;c35 -->
<g id="edge50" class="edge">
<title>n16:e&#45;&gt;c35:w</title>
<path fill="none" stroke="black" stroke-width="3" d="M107.84,-259.17C125.73,-259.17 127.29,-247.96 143.84,-241.17 220.77,-209.6 238.56,-183.17 321.72,-183.17 321.72,-183.17 321.72,-183.17 818.89,-183.17 885.06,-183.17 884.37,-255.48 942.97,-263.67"/>
<polygon fill="black" stroke="black" stroke-width="3" points="939.45,-266.94 949.66,-264.12 939.92,-259.96 939.45,-266.94"/>
</g>
<!-- n17 -->
<g id="node2" class="node">
<title>n17</title>
<polygon fill="none" stroke="black" points="2992.11,-284.71 2992.11,-299.63 2957.6,-310.17 2908.8,-310.17 2874.29,-299.63 2874.29,-284.71 2908.8,-274.17 2957.6,-274.17 2992.11,-284.71"/>
<text text-anchor="middle" x="2933.2" y="-287.12" font-family="Times,serif" font-size="14.00">output_data</text>
</g>
<!-- n18 -->
<g id="node3" class="node">
<title>n18</title>
<polygon fill="none" stroke="black" points="460.84,-455.17 405.59,-437.17 460.84,-419.17 516.09,-437.17 460.84,-455.17"/>
<text text-anchor="middle" x="460.84" y="-432.12" font-family="Times,serif" font-size="14.00">temp_1</text>
</g>
<!-- x2 -->
<g id="node9" class="node">
<title>x2</title>
<path fill="none" stroke="black" d="M867.69,-465.67C867.69,-465.67 906.19,-465.67 906.19,-465.67 912.19,-465.67 918.19,-471.67 918.19,-477.67 918.19,-477.67 918.19,-502.67 918.19,-502.67 918.19,-508.67 912.19,-514.67 906.19,-514.67 906.19,-514.67 867.69,-514.67 867.69,-514.67 861.69,-514.67 855.69,-508.67 855.69,-502.67 855.69,-502.67 855.69,-477.67 855.69,-477.67 855.69,-471.67 861.69,-465.67 867.69,-465.67"/>
<text text-anchor="middle" x="886.94" y="-497.37" font-family="Times,serif" font-size="14.00">9:1 &#45; 9:1</text>
<polyline fill="none" stroke="black" points="855.69,-490.17 918.19,-490.17"/>
<text text-anchor="middle" x="886.94" y="-472.87" font-family="Times,serif" font-size="14.00">0:0 &#45; 0:0</text>
</g>
<!-- n18&#45;&gt;x2 -->
<g id="edge60" class="edge">
<title>n18:e&#45;&gt;x2:w</title>
<path fill="none" stroke="black" d="M516.09,-437.17C633.59,-437.17 664.86,-428.23 780.09,-451.17 810.95,-457.31 818.47,-473.46 844.33,-477.16"/>
<polygon fill="black" stroke="black" points="843.97,-480.64 854.18,-477.82 844.44,-473.66 843.97,-480.64"/>
</g>
<!-- x11 -->
<g id="node29" class="node">
<title>x11</title>
<path fill="none" stroke="black" d="M867.69,-329.67C867.69,-329.67 906.19,-329.67 906.19,-329.67 912.19,-329.67 918.19,-335.67 918.19,-341.67 918.19,-341.67 918.19,-366.67 918.19,-366.67 918.19,-372.67 912.19,-378.67 906.19,-378.67 906.19,-378.67 867.69,-378.67 867.69,-378.67 861.69,-378.67 855.69,-372.67 855.69,-366.67 855.69,-366.67 855.69,-341.67 855.69,-341.67 855.69,-335.67 861.69,-329.67 867.69,-329.67"/>
<text text-anchor="middle" x="886.94" y="-361.37" font-family="Times,serif" font-size="14.00">9:1 &#45; 9:1</text>
<polyline fill="none" stroke="black" points="855.69,-354.17 918.19,-354.17"/>
<text text-anchor="middle" x="886.94" y="-336.87" font-family="Times,serif" font-size="14.00">0:0 &#45; 0:0</text>
</g>
<!-- n18&#45;&gt;x11 -->
<g id="edge56" class="edge">
<title>n18:e&#45;&gt;x11:w</title>
<path fill="none" stroke="black" d="M516.09,-437.17C540.01,-437.17 531.21,-408.83 552.09,-397.17 668.46,-332.23 715.84,-341.33 844.25,-341.89"/>
<polygon fill="black" stroke="black" points="844.17,-345.39 854.18,-341.92 844.19,-338.39 844.17,-345.39"/>
</g>
<!-- x13 -->
<g id="node32" class="node">
<title>x13</title>
<path fill="none" stroke="black" d="M867.69,-397.67C867.69,-397.67 906.19,-397.67 906.19,-397.67 912.19,-397.67 918.19,-403.67 918.19,-409.67 918.19,-409.67 918.19,-434.67 918.19,-434.67 918.19,-440.67 912.19,-446.67 906.19,-446.67 906.19,-446.67 867.69,-446.67 867.69,-446.67 861.69,-446.67 855.69,-440.67 855.69,-434.67 855.69,-434.67 855.69,-409.67 855.69,-409.67 855.69,-403.67 861.69,-397.67 867.69,-397.67"/>
<text text-anchor="middle" x="886.94" y="-429.37" font-family="Times,serif" font-size="14.00">9:1 &#45; 9:1</text>
<polyline fill="none" stroke="black" points="855.69,-422.17 918.19,-422.17"/>
<text text-anchor="middle" x="886.94" y="-404.87" font-family="Times,serif" font-size="14.00">0:0 &#45; 0:0</text>
</g>
<!-- n18&#45;&gt;x13 -->
<g id="edge57" class="edge">
<title>n18:e&#45;&gt;x13:w</title>
<path fill="none" stroke="black" d="M516.09,-437.17C534.18,-437.17 534.59,-422.76 552.09,-418.17 678.96,-384.91 718.48,-408.5 844.45,-409.86"/>
<polygon fill="black" stroke="black" points="844.16,-413.36 854.18,-409.91 844.2,-406.36 844.16,-413.36"/>
</g>
<!-- x15 -->
<g id="node35" class="node">
<title>x15</title>
<path fill="none" stroke="black" d="M867.69,-548.67C867.69,-548.67 906.19,-548.67 906.19,-548.67 912.19,-548.67 918.19,-554.67 918.19,-560.67 918.19,-560.67 918.19,-585.67 918.19,-585.67 918.19,-591.67 912.19,-597.67 906.19,-597.67 906.19,-597.67 867.69,-597.67 867.69,-597.67 861.69,-597.67 855.69,-591.67 855.69,-585.67 855.69,-585.67 855.69,-560.67 855.69,-560.67 855.69,-554.67 861.69,-548.67 867.69,-548.67"/>
<text text-anchor="middle" x="886.94" y="-580.37" font-family="Times,serif" font-size="14.00">9:1 &#45; 9:1</text>
<polyline fill="none" stroke="black" points="855.69,-573.17 918.19,-573.17"/>
<text text-anchor="middle" x="886.94" y="-555.87" font-family="Times,serif" font-size="14.00">0:0 &#45; 0:0</text>
</g>
<!-- n18&#45;&gt;x15 -->
<g id="edge58" class="edge">
<title>n18:e&#45;&gt;x15:w</title>
<path fill="none" stroke="black" d="M516.09,-437.17C555.89,-437.17 520.33,-495.18 552.09,-519.17 657.7,-598.94 716.12,-563.11 844.3,-561.01"/>
<polygon fill="black" stroke="black" points="844.21,-564.51 854.18,-560.93 844.15,-557.51 844.21,-564.51"/>
</g>
<!-- x21 -->
<g id="node42" class="node">
<title>x21</title>
<path fill="none" stroke="black" d="M580.84,-460.67C580.84,-460.67 619.34,-460.67 619.34,-460.67 625.34,-460.67 631.34,-466.67 631.34,-472.67 631.34,-472.67 631.34,-497.67 631.34,-497.67 631.34,-503.67 625.34,-509.67 619.34,-509.67 619.34,-509.67 580.84,-509.67 580.84,-509.67 574.84,-509.67 568.84,-503.67 568.84,-497.67 568.84,-497.67 568.84,-472.67 568.84,-472.67 568.84,-466.67 574.84,-460.67 580.84,-460.67"/>
<text text-anchor="middle" x="600.09" y="-492.37" font-family="Times,serif" font-size="14.00">0 &#45;&gt; 7:1</text>
<polyline fill="none" stroke="black" points="568.84,-485.17 631.34,-485.17"/>
<text text-anchor="middle" x="600.09" y="-467.87" font-family="Times,serif" font-size="14.00">0:0 &#45; 0:0</text>
</g>
<!-- n18&#45;&gt;x21 -->
<g id="edge59" class="edge">
<title>n18:e&#45;&gt;x21:w</title>
<path fill="none" stroke="black" d="M516.09,-437.17C539.68,-437.17 540.4,-462.62 556.85,-470.57"/>
<polygon fill="black" stroke="black" points="555.85,-473.94 566.36,-472.6 557.31,-467.1 555.85,-473.94"/>
</g>
<!-- n19 -->
<g id="node4" class="node">
<title>n19</title>
<polygon fill="none" stroke="black" points="2554.04,-312.17 2498.79,-294.17 2554.04,-276.17 2609.29,-294.17 2554.04,-312.17"/>
<text text-anchor="middle" x="2554.04" y="-289.12" font-family="Times,serif" font-size="14.00">temp_2</text>
</g>
<!-- c28 -->
<g id="node13" class="node">
<title>c28</title>
<polygon fill="none" stroke="black" points="2645.29,-298.67 2645.29,-347.67 2739.79,-347.67 2739.79,-298.67 2645.29,-298.67"/>
<text text-anchor="middle" x="2658.17" y="-330.37" font-family="Times,serif" font-size="14.00">A</text>
<polyline fill="none" stroke="black" points="2645.29,-323.17 2671.04,-323.17"/>
<text text-anchor="middle" x="2658.17" y="-305.87" font-family="Times,serif" font-size="14.00">B</text>
<polyline fill="none" stroke="black" points="2671.04,-298.67 2671.04,-347.67"/>
<text text-anchor="middle" x="2692.54" y="-326.37" font-family="Times,serif" font-size="14.00">$100</text>
<text text-anchor="middle" x="2692.54" y="-309.87" font-family="Times,serif" font-size="14.00">$and</text>
<polyline fill="none" stroke="black" points="2714.04,-298.67 2714.04,-347.67"/>
<text text-anchor="middle" x="2726.92" y="-318.37" font-family="Times,serif" font-size="14.00">Y</text>
</g>
<!-- n19&#45;&gt;c28 -->
<g id="edge62" class="edge">
<title>n19:e&#45;&gt;c28:w</title>
<path fill="none" stroke="black" stroke-width="3" d="M2609.29,-294.17C2622.25,-294.17 2626.08,-303.2 2634.18,-308"/>
<polygon fill="black" stroke="black" stroke-width="3" points="2630.34,-310.61 2640.9,-309.77 2632.12,-303.84 2630.34,-310.61"/>
</g>
<!-- c39 -->
<g id="node37" class="node">
<title>c39</title>
<polygon fill="none" stroke="black" points="2363.79,-246.42 2363.79,-319.92 2462.79,-319.92 2462.79,-246.42 2363.79,-246.42"/>
<text text-anchor="middle" x="2376.67" y="-302.62" font-family="Times,serif" font-size="14.00">A</text>
<polyline fill="none" stroke="black" points="2363.79,-295.42 2389.54,-295.42"/>
<text text-anchor="middle" x="2376.67" y="-278.12" font-family="Times,serif" font-size="14.00">B</text>
<polyline fill="none" stroke="black" points="2363.79,-270.92 2389.54,-270.92"/>
<text text-anchor="middle" x="2376.67" y="-253.62" font-family="Times,serif" font-size="14.00">S</text>
<polyline fill="none" stroke="black" points="2389.54,-246.42 2389.54,-319.92"/>
<text text-anchor="middle" x="2413.29" y="-286.37" font-family="Times,serif" font-size="14.00">$13</text>
<text text-anchor="middle" x="2413.29" y="-269.87" font-family="Times,serif" font-size="14.00">$mux</text>
<polyline fill="none" stroke="black" points="2437.04,-246.42 2437.04,-319.92"/>
<text text-anchor="middle" x="2449.92" y="-278.12" font-family="Times,serif" font-size="14.00">Y</text>
</g>
<!-- c23&#45;&gt;c39 -->
<g id="edge19" class="edge">
<title>c23:e&#45;&gt;c39:w</title>
<path fill="none" stroke="black" stroke-width="3" d="M2327.79,-97.42C2407.61,-97.42 2292.57,-264.78 2352.6,-281.78"/>
<polygon fill="black" stroke="black" stroke-width="3" points="2348.93,-284.85 2359.29,-282.61 2349.79,-277.91 2348.93,-284.85"/>
</g>
<!-- x0 -->
<g id="node6" class="node">
<title>x0</title>
<path fill="none" stroke="black" d="M2147.54,-84.67C2147.54,-84.67 2186.04,-84.67 2186.04,-84.67 2192.04,-84.67 2198.04,-90.67 2198.04,-96.67 2198.04,-96.67 2198.04,-121.67 2198.04,-121.67 2198.04,-127.67 2192.04,-133.67 2186.04,-133.67 2186.04,-133.67 2147.54,-133.67 2147.54,-133.67 2141.54,-133.67 2135.54,-127.67 2135.54,-121.67 2135.54,-121.67 2135.54,-96.67 2135.54,-96.67 2135.54,-90.67 2141.54,-84.67 2147.54,-84.67"/>
<text text-anchor="middle" x="2166.79" y="-116.37" font-family="Times,serif" font-size="14.00">0 &#45;&gt; 7:5</text>
<polyline fill="none" stroke="black" points="2135.54,-109.17 2198.04,-109.17"/>
<text text-anchor="middle" x="2166.79" y="-91.87" font-family="Times,serif" font-size="14.00">4:0 &#45; 4:0</text>
</g>
<!-- x0&#45;&gt;c23 -->
<g id="edge1" class="edge">
<title>x0:e&#45;&gt;c23:w</title>
<path fill="none" stroke="black" stroke-width="3" d="M2210.76,-109.23C2214.36,-109.27 2217.49,-109.32 2221.07,-109.35"/>
<polygon fill="none" stroke="black" stroke-width="3" points="2212.75,-109.24 2206.73,-113.21 2200.75,-109.18 2206.77,-105.21 2212.75,-109.24"/>
<polygon fill="none" stroke="black" stroke-width="3" points="2219.34,-109.35 2225.36,-105.38 2231.34,-109.41 2225.32,-113.38 2219.34,-109.35"/>
</g>
<!-- c24 -->
<g id="node7" class="node">
<title>c24</title>
<polygon fill="none" stroke="black" points="1700.54,-448.67 1700.54,-497.67 1794.29,-497.67 1794.29,-448.67 1700.54,-448.67"/>
<text text-anchor="middle" x="1713.42" y="-480.37" font-family="Times,serif" font-size="14.00">A</text>
<polyline fill="none" stroke="black" points="1700.54,-473.17 1726.29,-473.17"/>
<text text-anchor="middle" x="1713.42" y="-455.87" font-family="Times,serif" font-size="14.00">B</text>
<polyline fill="none" stroke="black" points="1726.29,-448.67 1726.29,-497.67"/>
<text text-anchor="middle" x="1747.42" y="-476.37" font-family="Times,serif" font-size="14.00">$76</text>
<text text-anchor="middle" x="1747.42" y="-459.87" font-family="Times,serif" font-size="14.00">$add</text>
<polyline fill="none" stroke="black" points="1768.54,-448.67 1768.54,-497.67"/>
<text text-anchor="middle" x="1781.42" y="-468.37" font-family="Times,serif" font-size="14.00">Y</text>
</g>
<!-- x3 -->
<g id="node14" class="node">
<title>x3</title>
<path fill="none" stroke="black" d="M2147.54,-362.17C2147.54,-362.17 2186.04,-362.17 2186.04,-362.17 2192.04,-362.17 2198.04,-368.17 2198.04,-374.17 2198.04,-374.17 2198.04,-386.17 2198.04,-386.17 2198.04,-392.17 2192.04,-398.17 2186.04,-398.17 2186.04,-398.17 2147.54,-398.17 2147.54,-398.17 2141.54,-398.17 2135.54,-392.17 2135.54,-386.17 2135.54,-386.17 2135.54,-374.17 2135.54,-374.17 2135.54,-368.17 2141.54,-362.17 2147.54,-362.17"/>
<text text-anchor="middle" x="2166.79" y="-375.37" font-family="Times,serif" font-size="14.00">7:0 &#45; 7:0</text>
</g>
<!-- c24&#45;&gt;x3 -->
<g id="edge63" class="edge">
<title>c24:e&#45;&gt;x3:w</title>
<path fill="none" stroke="black" stroke-width="3" d="M1794.29,-473.42C1830.9,-473.42 2061.38,-392.7 2124.49,-381.66"/>
<polygon fill="black" stroke="black" stroke-width="3" points="2121.48,-385.53 2131.03,-380.93 2120.7,-378.57 2121.48,-385.53"/>
</g>
<!-- x1 -->
<g id="node8" class="node">
<title>x1</title>
<path fill="none" stroke="black" d="M1614.04,-489.67C1614.04,-489.67 1652.54,-489.67 1652.54,-489.67 1658.54,-489.67 1664.54,-495.67 1664.54,-501.67 1664.54,-501.67 1664.54,-526.67 1664.54,-526.67 1664.54,-532.67 1658.54,-538.67 1652.54,-538.67 1652.54,-538.67 1614.04,-538.67 1614.04,-538.67 1608.04,-538.67 1602.04,-532.67 1602.04,-526.67 1602.04,-526.67 1602.04,-501.67 1602.04,-501.67 1602.04,-495.67 1608.04,-489.67 1614.04,-489.67"/>
<text text-anchor="middle" x="1633.29" y="-521.37" font-family="Times,serif" font-size="14.00">9:8 &#45; 9:8</text>
<polyline fill="none" stroke="black" points="1602.04,-514.17 1664.54,-514.17"/>
<text text-anchor="middle" x="1633.29" y="-496.87" font-family="Times,serif" font-size="14.00">7:0 &#45; 7:0</text>
</g>
<!-- x1&#45;&gt;c24 -->
<g id="edge2" class="edge">
<title>x1:e&#45;&gt;c24:w</title>
<path fill="none" stroke="black" stroke-width="3" d="M1676.43,-509.16C1681.4,-503.89 1683.72,-495.63 1688.71,-490.37"/>
<polygon fill="none" stroke="black" stroke-width="3" points="1678.09,-508.46 1674.12,-514.48 1667.03,-513.12 1671.01,-507.1 1678.09,-508.46"/>
<polygon fill="none" stroke="black" stroke-width="3" points="1686.98,-491.1 1690.97,-485.09 1698.05,-486.46 1694.06,-492.47 1686.98,-491.1"/>
</g>
<!-- x2&#45;&gt;c24 -->
<g id="edge3" class="edge">
<title>x2:e&#45;&gt;c24:w</title>
<path fill="none" stroke="black" stroke-width="3" d="M931.18,-489.97C1012.43,-487.41 1035.67,-461.17 1123.19,-461.17 1123.19,-461.17 1123.19,-461.17 1535.79,-461.17 1604.58,-461.17 1624.9,-460.95 1687.82,-460.92"/>
<polygon fill="none" stroke="black" stroke-width="3" points="932.89,-489.94 926.96,-494.04 920.9,-490.13 926.83,-486.04 932.89,-489.94"/>
<polygon fill="none" stroke="black" stroke-width="3" points="1685.84,-460.92 1691.84,-456.92 1697.84,-460.92 1691.84,-464.92 1685.84,-460.92"/>
</g>
<!-- c25&#45;&gt;c26 -->
<g id="edge67" class="edge">
<title>c25:e&#45;&gt;c26:w</title>
<path fill="none" stroke="black" stroke-width="3" d="M239.72,-388.42C251.54,-388.42 256.53,-384.29 264.51,-381.96"/>
<polygon fill="black" stroke="black" stroke-width="3" points="261.91,-385.85 271.34,-381.03 260.96,-378.91 261.91,-385.85"/>
</g>
<!-- c26&#45;&gt;c27 -->
<g id="edge68" class="edge">
<title>c26:e&#45;&gt;c27:w</title>
<path fill="none" stroke="black" stroke-width="3" d="M369.59,-368.42C387.5,-368.42 390.14,-351.91 401.84,-345.2"/>
<polygon fill="black" stroke="black" stroke-width="3" points="399.71,-349.34 408.56,-343.52 398.01,-342.55 399.71,-349.34"/>
</g>
<!-- c33 -->
<g id="node24" class="node">
<title>c33</title>
<polygon fill="none" stroke="black" points="552.09,-267.67 552.09,-316.67 648.09,-316.67 648.09,-267.67 552.09,-267.67"/>
<text text-anchor="middle" x="564.97" y="-299.37" font-family="Times,serif" font-size="14.00">A</text>
<polyline fill="none" stroke="black" points="552.09,-292.17 577.84,-292.17"/>
<text text-anchor="middle" x="564.97" y="-274.87" font-family="Times,serif" font-size="14.00">B</text>
<polyline fill="none" stroke="black" points="577.84,-267.67 577.84,-316.67"/>
<text text-anchor="middle" x="600.09" y="-295.37" font-family="Times,serif" font-size="14.00">$10</text>
<text text-anchor="middle" x="600.09" y="-278.87" font-family="Times,serif" font-size="14.00">$mul</text>
<polyline fill="none" stroke="black" points="622.34,-267.67 622.34,-316.67"/>
<text text-anchor="middle" x="635.22" y="-287.37" font-family="Times,serif" font-size="14.00">Y</text>
</g>
<!-- c27&#45;&gt;c33 -->
<g id="edge69" class="edge">
<title>c27:e&#45;&gt;c33:w</title>
<path fill="none" stroke="black" stroke-width="3" d="M508.72,-330.42C526.63,-330.42 529.26,-313.91 540.97,-307.2"/>
<polygon fill="black" stroke="black" stroke-width="3" points="538.84,-311.34 547.69,-305.52 537.14,-304.55 538.84,-311.34"/>
</g>
<!-- x4 -->
<g id="node15" class="node">
<title>x4</title>
<path fill="none" stroke="black" d="M2787.79,-303.17C2787.79,-303.17 2826.29,-303.17 2826.29,-303.17 2832.29,-303.17 2838.29,-309.17 2838.29,-315.17 2838.29,-315.17 2838.29,-327.17 2838.29,-327.17 2838.29,-333.17 2832.29,-339.17 2826.29,-339.17 2826.29,-339.17 2787.79,-339.17 2787.79,-339.17 2781.79,-339.17 2775.79,-333.17 2775.79,-327.17 2775.79,-327.17 2775.79,-315.17 2775.79,-315.17 2775.79,-309.17 2781.79,-303.17 2787.79,-303.17"/>
<text text-anchor="middle" x="2807.04" y="-316.37" font-family="Times,serif" font-size="14.00">7:0 &#45; 7:0</text>
</g>
<!-- c28&#45;&gt;x4 -->
<g id="edge5" class="edge">
<title>c28:e&#45;&gt;x4:w</title>
<path fill="none" stroke="black" stroke-width="3" d="M2752.52,-322.85C2756.12,-322.52 2759.24,-322.1 2762.81,-321.76"/>
<polygon fill="none" stroke="black" stroke-width="3" points="2754.48,-322.77 2748.67,-327.03 2742.49,-323.3 2748.31,-319.04 2754.48,-322.77"/>
<polygon fill="none" stroke="black" stroke-width="3" points="2761.1,-321.84 2766.92,-317.57 2773.09,-321.29 2767.28,-325.56 2761.1,-321.84"/>
</g>
<!-- x3&#45;&gt;c28 -->
<g id="edge4" class="edge">
<title>x3:e&#45;&gt;c28:w</title>
<path fill="none" stroke="black" stroke-width="3" d="M2210.99,-380.11C2395.74,-378.27 2447.6,-337.32 2632.34,-335.48"/>
<polygon fill="none" stroke="black" stroke-width="3" points="2212.75,-380.1 2206.77,-384.13 2200.75,-380.16 2206.73,-376.13 2212.75,-380.1"/>
<polygon fill="none" stroke="black" stroke-width="3" points="2630.59,-335.49 2636.57,-331.46 2642.59,-335.43 2636.61,-339.46 2630.59,-335.49"/>
</g>
<!-- x4&#45;&gt;n17 -->
<g id="edge54" class="edge">
<title>x4:e&#45;&gt;n17:w</title>
<path fill="none" stroke="black" stroke-width="3" d="M2838.29,-321.42C2854.24,-321.42 2854.72,-303.92 2863.66,-295.99"/>
<polygon fill="black" stroke="black" stroke-width="3" points="2861.79,-300.38 2870.02,-293.71 2859.43,-293.8 2861.79,-300.38"/>
</g>
<!-- x6 -->
<g id="node18" class="node">
<title>x6</title>
<path fill="none" stroke="black" d="M1515.54,-193.17C1515.54,-193.17 1554.04,-193.17 1554.04,-193.17 1560.04,-193.17 1566.04,-199.17 1566.04,-205.17 1566.04,-205.17 1566.04,-217.17 1566.04,-217.17 1566.04,-223.17 1560.04,-229.17 1554.04,-229.17 1554.04,-229.17 1515.54,-229.17 1515.54,-229.17 1509.54,-229.17 1503.54,-223.17 1503.54,-217.17 1503.54,-217.17 1503.54,-205.17 1503.54,-205.17 1503.54,-199.17 1509.54,-193.17 1515.54,-193.17"/>
<text text-anchor="middle" x="1534.79" y="-206.37" font-family="Times,serif" font-size="14.00">4:0 &#45; 4:0</text>
</g>
<!-- c29&#45;&gt;x6 -->
<g id="edge7" class="edge">
<title>c29:e&#45;&gt;x6:w</title>
<path fill="none" stroke="black" stroke-width="3" d="M1480.28,-213.6C1483.87,-213.12 1486.99,-212.51 1490.56,-212.02"/>
<polygon fill="none" stroke="black" stroke-width="3" points="1482.22,-213.48 1476.49,-217.85 1470.24,-214.25 1475.97,-209.87 1482.22,-213.48"/>
<polygon fill="none" stroke="black" stroke-width="3" points="1488.87,-212.14 1494.59,-207.75 1500.84,-211.35 1495.12,-215.73 1488.87,-212.14"/>
</g>
<!-- x5 -->
<g id="node17" class="node">
<title>x5</title>
<path fill="none" stroke="black" d="M1268.54,-208.17C1268.54,-208.17 1307.04,-208.17 1307.04,-208.17 1313.04,-208.17 1319.04,-214.17 1319.04,-220.17 1319.04,-220.17 1319.04,-232.17 1319.04,-232.17 1319.04,-238.17 1313.04,-244.17 1307.04,-244.17 1307.04,-244.17 1268.54,-244.17 1268.54,-244.17 1262.54,-244.17 1256.54,-238.17 1256.54,-232.17 1256.54,-232.17 1256.54,-220.17 1256.54,-220.17 1256.54,-214.17 1262.54,-208.17 1268.54,-208.17"/>
<text text-anchor="middle" x="1287.79" y="-221.37" font-family="Times,serif" font-size="14.00">4:0 &#45; 4:0</text>
</g>
<!-- x5&#45;&gt;c29 -->
<g id="edge6" class="edge">
<title>x5:e&#45;&gt;c29:w</title>
<path fill="none" stroke="black" stroke-width="3" d="M1332.68,-226.2C1343.38,-226.24 1350.36,-226.34 1361.03,-226.39"/>
<polygon fill="none" stroke="black" stroke-width="3" points="1334.75,-226.2 1328.74,-230.19 1322.75,-226.18 1328.75,-222.19 1334.75,-226.2"/>
<polygon fill="none" stroke="black" stroke-width="3" points="1359.09,-226.39 1365.1,-222.4 1371.09,-226.41 1365.08,-230.4 1359.09,-226.39"/>
</g>
<!-- n3 -->
<g id="node52" class="node">
<title>n3</title>
<ellipse fill="black" stroke="black" cx="1633.29" cy="-154.17" rx="1.8" ry="1.8"/>
</g>
<!-- x6&#45;&gt;n3 -->
<g id="edge65" class="edge">
<title>x6:e&#45;&gt;n3:w</title>
<path fill="none" stroke="black" stroke-width="3" d="M1566.04,-211.42C1599.87,-211.42 1594.01,-166.41 1618.84,-156.21"/>
<polygon fill="black" stroke="black" stroke-width="3" points="1616.34,-160.22 1625.55,-154.99 1615.08,-153.34 1616.34,-160.22"/>
</g>
<!-- c30&#45;&gt;c31 -->
<g id="edge70" class="edge">
<title>c30:e&#45;&gt;c31:w</title>
<path fill="none" stroke="black" stroke-width="3" d="M1922.54,-122.42C1945.33,-122.42 1952.7,-113.17 1970.68,-110.27"/>
<polygon fill="black" stroke="black" stroke-width="3" points="1967.68,-114.01 1977.39,-109.76 1967.15,-107.03 1967.68,-114.01"/>
</g>
<!-- x7 -->
<g id="node20" class="node">
<title>x7</title>
<path fill="none" stroke="black" d="M1728.17,-136.17C1728.17,-136.17 1766.67,-136.17 1766.67,-136.17 1772.67,-136.17 1778.67,-142.17 1778.67,-148.17 1778.67,-148.17 1778.67,-160.17 1778.67,-160.17 1778.67,-166.17 1772.67,-172.17 1766.67,-172.17 1766.67,-172.17 1728.17,-172.17 1728.17,-172.17 1722.17,-172.17 1716.17,-166.17 1716.17,-160.17 1716.17,-160.17 1716.17,-148.17 1716.17,-148.17 1716.17,-142.17 1722.17,-136.17 1728.17,-136.17"/>
<text text-anchor="middle" x="1747.42" y="-149.37" font-family="Times,serif" font-size="14.00">4:0 &#45; 4:0</text>
</g>
<!-- x7&#45;&gt;c30 -->
<g id="edge8" class="edge">
<title>x7:e&#45;&gt;c30:w</title>
<path fill="none" stroke="black" stroke-width="3" d="M1792.45,-151.9C1802.23,-148.1 1807.78,-140.45 1817.58,-136.66"/>
<polygon fill="none" stroke="black" stroke-width="3" points="1794.15,-151.6 1788.94,-156.59 1782.33,-153.7 1787.54,-148.71 1794.15,-151.6"/>
<polygon fill="none" stroke="black" stroke-width="3" points="1815.81,-136.97 1821.03,-131.99 1827.63,-134.89 1822.41,-139.87 1815.81,-136.97"/>
</g>
<!-- c31&#45;&gt;x0 -->
<g id="edge71" class="edge">
<title>c31:e&#45;&gt;x0:w</title>
<path fill="none" stroke="black" stroke-width="3" d="M2076.17,-97.42C2098.43,-97.42 2106.61,-97.06 2124.47,-96.95"/>
<polygon fill="black" stroke="black" stroke-width="3" points="2121.01,-100.46 2131,-96.93 2120.99,-93.46 2121.01,-100.46"/>
</g>
<!-- x8 -->
<g id="node23" class="node">
<title>x8</title>
<path fill="none" stroke="black" d="M303.47,-431.67C303.47,-431.67 341.97,-431.67 341.97,-431.67 347.97,-431.67 353.97,-437.67 353.97,-443.67 353.97,-443.67 353.97,-468.67 353.97,-468.67 353.97,-474.67 347.97,-480.67 341.97,-480.67 341.97,-480.67 303.47,-480.67 303.47,-480.67 297.47,-480.67 291.47,-474.67 291.47,-468.67 291.47,-468.67 291.47,-443.67 291.47,-443.67 291.47,-437.67 297.47,-431.67 303.47,-431.67"/>
<text text-anchor="middle" x="322.72" y="-463.37" font-family="Times,serif" font-size="14.00">9:1 &#45; 9:1</text>
<polyline fill="none" stroke="black" points="291.47,-456.17 353.97,-456.17"/>
<text text-anchor="middle" x="322.72" y="-438.87" font-family="Times,serif" font-size="14.00">0:0 &#45; 0:0</text>
</g>
<!-- c32&#45;&gt;x8 -->
<g id="edge9" class="edge">
<title>c32:e&#45;&gt;x8:w</title>
<path fill="none" stroke="black" stroke-width="3" d="M252.54,-456.39C261.83,-456.34 268.2,-456.25 277.42,-456.2"/>
<polygon fill="none" stroke="black" stroke-width="3" points="254.54,-456.38 248.55,-460.4 242.55,-456.41 248.54,-452.4 254.54,-456.38"/>
<polygon fill="none" stroke="black" stroke-width="3" points="275.76,-456.21 281.75,-452.19 287.76,-456.18 281.77,-460.19 275.76,-456.21"/>
</g>
<!-- x8&#45;&gt;n18 -->
<g id="edge55" class="edge">
<title>x8:e&#45;&gt;n18:w</title>
<path fill="none" stroke="black" d="M354.97,-443.92C373.41,-443.92 380.32,-439.46 394.44,-437.79"/>
<polygon fill="black" stroke="black" points="394.29,-441.31 404.08,-437.25 393.9,-434.32 394.29,-441.31"/>
</g>
<!-- n13 -->
<g id="node51" class="node">
<title>n13</title>
<ellipse fill="black" stroke="black" cx="817.89" cy="-497.17" rx="1.8" ry="1.8"/>
</g>
<!-- x8&#45;&gt;n13 -->
<g id="edge33" class="edge">
<title>x8:e&#45;&gt;n13:w</title>
<path fill="none" stroke="black" stroke-width="3" d="M354.97,-468.42C445.43,-468.42 462.34,-507.8 552.09,-519.17 652.62,-531.9 682.55,-546.62 780.09,-519.17 793.63,-515.36 796.56,-504.89 805.09,-499.89"/>
<polygon fill="black" stroke="black" stroke-width="3" points="802.82,-504.06 811.68,-498.26 801.14,-497.27 802.82,-504.06"/>
</g>
<!-- c34 -->
<g id="node26" class="node">
<title>c34</title>
<polygon fill="none" stroke="black" points="684.09,-255.67 684.09,-304.67 780.09,-304.67 780.09,-255.67 684.09,-255.67"/>
<text text-anchor="middle" x="696.97" y="-287.37" font-family="Times,serif" font-size="14.00">A</text>
<polyline fill="none" stroke="black" points="684.09,-280.17 709.84,-280.17"/>
<text text-anchor="middle" x="696.97" y="-262.87" font-family="Times,serif" font-size="14.00">B</text>
<polyline fill="none" stroke="black" points="709.84,-255.67 709.84,-304.67"/>
<text text-anchor="middle" x="732.09" y="-283.37" font-family="Times,serif" font-size="14.00">$11</text>
<text text-anchor="middle" x="732.09" y="-266.87" font-family="Times,serif" font-size="14.00">$mul</text>
<polyline fill="none" stroke="black" points="754.34,-255.67 754.34,-304.67"/>
<text text-anchor="middle" x="767.22" y="-275.37" font-family="Times,serif" font-size="14.00">Y</text>
</g>
<!-- c33&#45;&gt;c34 -->
<g id="edge38" class="edge">
<title>c33:e&#45;&gt;c34:w</title>
<path fill="none" stroke="black" stroke-width="3" d="M648.09,-292.42C659.47,-292.42 664.78,-292.42 672.65,-292.42"/>
<polygon fill="black" stroke="black" stroke-width="3" points="669.55,-295.92 679.55,-292.42 669.55,-288.92 669.55,-295.92"/>
</g>
<!-- x9&#45;&gt;c33 -->
<g id="edge10" class="edge">
<title>x9:e&#45;&gt;c33:w</title>
<path fill="none" stroke="black" stroke-width="3" d="M367.84,-268.26C441.02,-269.28 466.13,-278.83 539.39,-279.83"/>
<polygon fill="none" stroke="black" stroke-width="3" points="369.67,-268.27 363.64,-272.23 357.67,-268.19 363.7,-264.23 369.67,-268.27"/>
<polygon fill="none" stroke="black" stroke-width="3" points="537.39,-279.82 543.41,-275.86 549.39,-279.9 543.36,-283.86 537.39,-279.82"/>
</g>
<!-- c34&#45;&gt;c39 -->
<g id="edge72" class="edge">
<title>c34:e&#45;&gt;c39:w</title>
<path fill="none" stroke="black" stroke-width="3" d="M780.09,-280.42C932.98,-280.42 970.31,-305.17 1123.19,-305.17 1123.19,-305.17 1123.19,-305.17 2167.79,-305.17 2251,-305.17 2274.59,-307.45 2352.44,-307.66"/>
<polygon fill="black" stroke="black" stroke-width="3" points="2349.25,-311.15 2359.25,-307.66 2349.26,-304.15 2349.25,-311.15"/>
</g>
<!-- x10&#45;&gt;c34 -->
<g id="edge11" class="edge">
<title>x10:e&#45;&gt;c34:w</title>
<path fill="none" stroke="black" stroke-width="3" d="M505.99,-230.32C565.46,-231.81 584.2,-243.78 648.09,-258.17 658.96,-260.62 663.99,-264.18 671.15,-266.25"/>
<polygon fill="none" stroke="black" stroke-width="3" points="507.79,-230.35 501.75,-234.27 495.8,-230.2 501.84,-226.28 507.79,-230.35"/>
<polygon fill="none" stroke="black" stroke-width="3" points="669.51,-266.04 675.97,-262.84 681.41,-267.57 674.95,-270.77 669.51,-266.04"/>
</g>
<!-- x12 -->
<g id="node30" class="node">
<title>x12</title>
<path fill="none" stroke="black" d="M1104.94,-232.17C1104.94,-232.17 1143.44,-232.17 1143.44,-232.17 1149.44,-232.17 1155.44,-238.17 1155.44,-244.17 1155.44,-244.17 1155.44,-256.17 1155.44,-256.17 1155.44,-262.17 1149.44,-268.17 1143.44,-268.17 1143.44,-268.17 1104.94,-268.17 1104.94,-268.17 1098.94,-268.17 1092.94,-262.17 1092.94,-256.17 1092.94,-256.17 1092.94,-244.17 1092.94,-244.17 1092.94,-238.17 1098.94,-232.17 1104.94,-232.17"/>
<text text-anchor="middle" x="1124.19" y="-245.37" font-family="Times,serif" font-size="14.00">7:0 &#45; 7:0</text>
</g>
<!-- c35&#45;&gt;x12 -->
<g id="edge13" class="edge">
<title>c35:e&#45;&gt;x12:w</title>
<path fill="none" stroke="black" stroke-width="3" d="M1063.17,-251.99C1068.83,-251.59 1073.32,-251 1078.98,-250.6"/>
<polygon fill="none" stroke="black" stroke-width="3" points="1064.89,-251.93 1059.02,-256.13 1052.89,-252.33 1058.76,-248.13 1064.89,-251.93"/>
<polygon fill="none" stroke="black" stroke-width="3" points="1077.25,-250.66 1083.11,-246.46 1089.24,-250.26 1083.38,-254.46 1077.25,-250.66"/>
</g>
<!-- x11&#45;&gt;c35 -->
<g id="edge12" class="edge">
<title>x11:e&#45;&gt;c35:w</title>
<path fill="none" stroke="black" stroke-width="3" d="M930.48,-351.11C955.74,-334.93 916.71,-259.37 941.81,-243.04"/>
<polygon fill="none" stroke="black" stroke-width="3" points="932.46,-350.62 927.6,-355.95 920.82,-353.52 925.67,-348.19 932.46,-350.62"/>
<polygon fill="none" stroke="black" stroke-width="3" points="939.93,-243.51 944.77,-238.17 951.57,-240.58 946.73,-245.92 939.93,-243.51"/>
</g>
<!-- n12 -->
<g id="node50" class="node">
<title>n12</title>
<ellipse fill="black" stroke="black" cx="1199.99" cy="-226.17" rx="1.8" ry="1.8"/>
</g>
<!-- x12&#45;&gt;n12 -->
<g id="edge28" class="edge">
<title>x12:e&#45;&gt;n12:w</title>
<path fill="none" stroke="black" stroke-width="3" d="M1156.44,-250.42C1173.37,-250.42 1176.22,-235.32 1187.21,-228.95"/>
<polygon fill="black" stroke="black" stroke-width="3" points="1184.96,-233.13 1193.79,-227.29 1183.24,-226.35 1184.96,-233.13"/>
</g>
<!-- c36 -->
<g id="node31" class="node">
<title>c36</title>
<polygon fill="none" stroke="black" points="1958.54,-334.67 1958.54,-375.67 2099.54,-375.67 2099.54,-334.67 1958.54,-334.67"/>
<text text-anchor="middle" x="1971.42" y="-350.37" font-family="Times,serif" font-size="14.00">A</text>
<polyline fill="none" stroke="black" points="1984.29,-334.67 1984.29,-375.67"/>
<text text-anchor="middle" x="2029.04" y="-358.37" font-family="Times,serif" font-size="14.00">$12</text>
<text text-anchor="middle" x="2029.04" y="-341.87" font-family="Times,serif" font-size="14.00">$reduce_bool</text>
<polyline fill="none" stroke="black" points="2073.79,-334.67 2073.79,-375.67"/>
<text text-anchor="middle" x="2086.67" y="-350.37" font-family="Times,serif" font-size="14.00">Y</text>
</g>
<!-- c36&#45;&gt;c39 -->
<g id="edge39" class="edge">
<title>c36:e&#45;&gt;c39:w</title>
<path fill="none" stroke="black" d="M2099.54,-355.42C2220.7,-355.42 2237.73,-264.62 2352.39,-258.95"/>
<polygon fill="black" stroke="black" points="2352.37,-262.45 2362.28,-258.71 2352.2,-255.45 2352.37,-262.45"/>
</g>
<!-- x13&#45;&gt;c36 -->
<g id="edge14" class="edge">
<title>x13:e&#45;&gt;c36:w</title>
<path fill="none" stroke="black" stroke-width="3" d="M931.11,-421.76C1015.25,-416.22 1032.09,-357.17 1123.19,-357.17 1123.19,-357.17 1123.19,-357.17 1748.42,-357.17 1837.34,-357.17 1862.76,-355.58 1945.6,-355.43"/>
<polygon fill="none" stroke="black" stroke-width="3" points="932.89,-421.7 927.02,-425.89 920.89,-422.08 926.76,-417.89 932.89,-421.7"/>
<polygon fill="none" stroke="black" stroke-width="3" points="1943.84,-355.43 1949.83,-351.43 1955.84,-355.42 1949.84,-359.43 1943.84,-355.43"/>
</g>
<!-- v14 -->
<g id="node33" class="node">
<title>v14</title>
<ellipse fill="none" stroke="black" cx="886.94" cy="-634.17" rx="27" ry="18"/>
<text text-anchor="middle" x="886.94" y="-629.12" font-family="Times,serif" font-size="14.00">1&#39;0</text>
</g>
<!-- c37 -->
<g id="node34" class="node">
<title>c37</title>
<polygon fill="none" stroke="black" points="955.69,-578.67 955.69,-627.67 1048.69,-627.67 1048.69,-578.67 955.69,-578.67"/>
<text text-anchor="middle" x="968.57" y="-610.37" font-family="Times,serif" font-size="14.00">A</text>
<polyline fill="none" stroke="black" points="955.69,-603.17 981.44,-603.17"/>
<text text-anchor="middle" x="968.57" y="-585.87" font-family="Times,serif" font-size="14.00">B</text>
<polyline fill="none" stroke="black" points="981.44,-578.67 981.44,-627.67"/>
<text text-anchor="middle" x="1002.19" y="-606.37" font-family="Times,serif" font-size="14.00">$75</text>
<text text-anchor="middle" x="1002.19" y="-589.87" font-family="Times,serif" font-size="14.00">$sub</text>
<polyline fill="none" stroke="black" points="1022.94,-578.67 1022.94,-627.67"/>
<text text-anchor="middle" x="1035.82" y="-598.37" font-family="Times,serif" font-size="14.00">Y</text>
</g>
<!-- v14&#45;&gt;c37 -->
<g id="edge73" class="edge">
<title>v14:e&#45;&gt;c37:w</title>
<path fill="none" stroke="black" d="M915.19,-634.17C930.07,-634.17 933.93,-623.18 943.64,-618.03"/>
<polygon fill="black" stroke="black" points="944.29,-621.47 953.22,-615.77 942.68,-614.66 944.29,-621.47"/>
</g>
<!-- x16 -->
<g id="node36" class="node">
<title>x16</title>
<path fill="none" stroke="black" d="M1104.94,-578.67C1104.94,-578.67 1143.44,-578.67 1143.44,-578.67 1149.44,-578.67 1155.44,-584.67 1155.44,-590.67 1155.44,-590.67 1155.44,-615.67 1155.44,-615.67 1155.44,-621.67 1149.44,-627.67 1143.44,-627.67 1143.44,-627.67 1104.94,-627.67 1104.94,-627.67 1098.94,-627.67 1092.94,-621.67 1092.94,-615.67 1092.94,-615.67 1092.94,-590.67 1092.94,-590.67 1092.94,-584.67 1098.94,-578.67 1104.94,-578.67"/>
<text text-anchor="middle" x="1124.19" y="-610.37" font-family="Times,serif" font-size="14.00">9:8 &#45; 9:8</text>
<polyline fill="none" stroke="black" points="1092.94,-603.17 1155.44,-603.17"/>
<text text-anchor="middle" x="1124.19" y="-585.87" font-family="Times,serif" font-size="14.00">7:0 &#45; 7:0</text>
</g>
<!-- c37&#45;&gt;x16 -->
<g id="edge16" class="edge">
<title>c37:e&#45;&gt;x16:w</title>
<path fill="none" stroke="black" stroke-width="3" d="M1062.51,-603.37C1068.5,-603.33 1073.17,-603.26 1079.16,-603.22"/>
<polygon fill="none" stroke="black" stroke-width="3" points="1064.4,-603.37 1058.41,-607.39 1052.4,-603.41 1058.38,-599.39 1064.4,-603.37"/>
<polygon fill="none" stroke="black" stroke-width="3" points="1077.24,-603.22 1083.22,-599.2 1089.24,-603.18 1083.25,-607.2 1077.24,-603.22"/>
</g>
<!-- x15&#45;&gt;c37 -->
<g id="edge15" class="edge">
<title>x15:e&#45;&gt;c37:w</title>
<path fill="none" stroke="black" stroke-width="3" d="M930.52,-576.93C934.86,-579.95 938.03,-584.15 942.37,-587.16"/>
<polygon fill="none" stroke="black" stroke-width="3" points="932.26,-577.46 925.35,-579.54 920.78,-573.96 927.68,-571.89 932.26,-577.46"/>
<polygon fill="none" stroke="black" stroke-width="3" points="940.63,-586.63 947.53,-584.55 952.11,-590.13 945.2,-592.21 940.63,-586.63"/>
</g>
<!-- n10 -->
<g id="node48" class="node">
<title>n10</title>
<ellipse fill="black" stroke="black" cx="1199.99" cy="-561.17" rx="1.8" ry="1.8"/>
</g>
<!-- x16&#45;&gt;n10 -->
<g id="edge20" class="edge">
<title>x16:e&#45;&gt;n10:w</title>
<path fill="none" stroke="black" stroke-width="3" d="M1156.44,-590.92C1174.6,-590.92 1175.86,-572.03 1187.15,-564.35"/>
<polygon fill="black" stroke="black" stroke-width="3" points="1185.19,-568.56 1193.83,-562.43 1183.25,-561.84 1185.19,-568.56"/>
</g>
<!-- n11 -->
<g id="node49" class="node">
<title>n11</title>
<ellipse fill="black" stroke="black" cx="1534.79" cy="-566.17" rx="1.8" ry="1.8"/>
</g>
<!-- x16&#45;&gt;n11 -->
<g id="edge23" class="edge">
<title>x16:e&#45;&gt;n11:w</title>
<path fill="none" stroke="black" stroke-width="3" d="M1156.44,-615.42C1294.77,-615.42 1335.16,-646.29 1467.54,-606.17 1495.5,-597.7 1497.85,-573.63 1520.15,-567.57"/>
<polygon fill="black" stroke="black" stroke-width="3" points="1517.51,-571.42 1527.01,-566.73 1516.65,-564.48 1517.51,-571.42"/>
</g>
<!-- c39&#45;&gt;n19 -->
<g id="edge61" class="edge">
<title>c39:e&#45;&gt;n19:w</title>
<path fill="none" stroke="black" stroke-width="3" d="M2462.79,-283.17C2474.95,-283.17 2479.61,-288.98 2487.67,-292.15"/>
<polygon fill="black" stroke="black" stroke-width="3" points="2483.86,-295.02 2494.32,-293.36 2485.11,-288.13 2483.86,-295.02"/>
</g>
<!-- x17 -->
<g id="node38" class="node">
<title>x17</title>
<path fill="none" stroke="black" d="M1249.79,-548.67C1249.79,-548.67 1325.79,-548.67 1325.79,-548.67 1331.79,-548.67 1337.79,-554.67 1337.79,-560.67 1337.79,-560.67 1337.79,-585.67 1337.79,-585.67 1337.79,-591.67 1331.79,-597.67 1325.79,-597.67 1325.79,-597.67 1249.79,-597.67 1249.79,-597.67 1243.79,-597.67 1237.79,-591.67 1237.79,-585.67 1237.79,-585.67 1237.79,-560.67 1237.79,-560.67 1237.79,-554.67 1243.79,-548.67 1249.79,-548.67"/>
<text text-anchor="middle" x="1287.79" y="-580.37" font-family="Times,serif" font-size="14.00">6x 16:16 &#45; 13:8</text>
<polyline fill="none" stroke="black" points="1237.79,-573.17 1337.79,-573.17"/>
<text text-anchor="middle" x="1287.79" y="-555.87" font-family="Times,serif" font-size="14.00">7:0 &#45; 7:0</text>
</g>
<!-- x18 -->
<g id="node39" class="node">
<title>x18</title>
<path fill="none" stroke="black" d="M1391.29,-529.67C1391.29,-529.67 1450.04,-529.67 1450.04,-529.67 1456.04,-529.67 1462.04,-535.67 1462.04,-541.67 1462.04,-541.67 1462.04,-566.67 1462.04,-566.67 1462.04,-572.67 1456.04,-578.67 1450.04,-578.67 1450.04,-578.67 1391.29,-578.67 1391.29,-578.67 1385.29,-578.67 1379.29,-572.67 1379.29,-566.67 1379.29,-566.67 1379.29,-541.67 1379.29,-541.67 1379.29,-535.67 1385.29,-529.67 1391.29,-529.67"/>
<text text-anchor="middle" x="1420.67" y="-561.37" font-family="Times,serif" font-size="14.00">13:8 &#45; 15:10</text>
<polyline fill="none" stroke="black" points="1379.29,-554.17 1462.04,-554.17"/>
<text text-anchor="middle" x="1420.67" y="-536.87" font-family="Times,serif" font-size="14.00">7:0 &#45; 7:0</text>
</g>
<!-- x17&#45;&gt;x18 -->
<g id="edge17" class="edge">
<title>x17:e&#45;&gt;x18:w</title>
<path fill="none" stroke="black" stroke-width="3" d="M1350.3,-569.86C1356.14,-566.37 1359.99,-560.91 1365.85,-557.44"/>
<polygon fill="none" stroke="black" stroke-width="3" points="1352.01,-569.41 1347.23,-574.81 1340.41,-572.48 1345.18,-567.08 1352.01,-569.41"/>
<polygon fill="none" stroke="black" stroke-width="3" points="1364.07,-557.91 1368.86,-552.51 1375.68,-554.86 1370.89,-560.25 1364.07,-557.91"/>
</g>
<!-- x18&#45;&gt;n11 -->
<g id="edge24" class="edge">
<title>x18:e&#45;&gt;n11:w</title>
<path fill="none" stroke="black" stroke-width="3" d="M1463.04,-541.92C1491.16,-541.92 1497.75,-560.32 1520.32,-565.07"/>
<polygon fill="black" stroke="black" stroke-width="3" points="1516.7,-568.22 1527,-565.72 1517.39,-561.26 1516.7,-568.22"/>
</g>
<!-- x18&#45;&gt;n11 -->
<g id="edge25" class="edge">
<title>x18:e&#45;&gt;n11:w</title>
<path fill="none" stroke="black" stroke-width="3" d="M1463.04,-566.42C1489.31,-566.42 1498.57,-566.23 1520.2,-566.18"/>
<polygon fill="black" stroke="black" stroke-width="3" points="1516.98,-569.69 1526.97,-566.18 1516.97,-562.69 1516.98,-569.69"/>
</g>
<!-- v19 -->
<g id="node40" class="node">
<title>v19</title>
<ellipse fill="none" stroke="black" cx="1002.19" cy="-191.17" rx="27" ry="18"/>
<text text-anchor="middle" x="1002.19" y="-186.12" font-family="Times,serif" font-size="14.00">2&#39;00</text>
</g>
<!-- x20 -->
<g id="node41" class="node">
<title>x20</title>
<path fill="none" stroke="black" d="M1098.19,-176.17C1098.19,-176.17 1150.19,-176.17 1150.19,-176.17 1156.19,-176.17 1162.19,-182.17 1162.19,-188.17 1162.19,-188.17 1162.19,-200.17 1162.19,-200.17 1162.19,-206.17 1156.19,-212.17 1150.19,-212.17 1150.19,-212.17 1098.19,-212.17 1098.19,-212.17 1092.19,-212.17 1086.19,-206.17 1086.19,-200.17 1086.19,-200.17 1086.19,-188.17 1086.19,-188.17 1086.19,-182.17 1092.19,-176.17 1098.19,-176.17"/>
<text text-anchor="middle" x="1124.19" y="-189.37" font-family="Times,serif" font-size="14.00">1:0 &#45; 16:15</text>
</g>
<!-- v19&#45;&gt;x20 -->
<g id="edge74" class="edge">
<title>v19:e&#45;&gt;x20:w</title>
<path fill="none" stroke="black" stroke-width="3" d="M1030.44,-191.17C1050.99,-191.17 1058.72,-193.23 1074.86,-193.93"/>
<polygon fill="black" stroke="black" stroke-width="3" points="1071.58,-197.37 1081.65,-194.08 1071.73,-190.37 1071.58,-197.37"/>
</g>
<!-- x20&#45;&gt;n12 -->
<g id="edge29" class="edge">
<title>x20:e&#45;&gt;n12:w</title>
<path fill="none" stroke="black" stroke-width="3" d="M1162.19,-194.42C1178.86,-194.42 1178.44,-213.8 1187.63,-222.28"/>
<polygon fill="black" stroke="black" stroke-width="3" points="1183.34,-224.43 1193.93,-224.6 1185.76,-217.86 1183.34,-224.43"/>
</g>
<!-- x22 -->
<g id="node43" class="node">
<title>x22</title>
<path fill="none" stroke="black" d="M706.09,-460.67C706.09,-460.67 758.09,-460.67 758.09,-460.67 764.09,-460.67 770.09,-466.67 770.09,-472.67 770.09,-472.67 770.09,-497.67 770.09,-497.67 770.09,-503.67 764.09,-509.67 758.09,-509.67 758.09,-509.67 706.09,-509.67 706.09,-509.67 700.09,-509.67 694.09,-503.67 694.09,-497.67 694.09,-497.67 694.09,-472.67 694.09,-472.67 694.09,-466.67 700.09,-460.67 706.09,-460.67"/>
<text text-anchor="middle" x="732.09" y="-492.37" font-family="Times,serif" font-size="14.00">7:1 &#45; 16:10</text>
<polyline fill="none" stroke="black" points="694.09,-485.17 770.09,-485.17"/>
<text text-anchor="middle" x="732.09" y="-467.87" font-family="Times,serif" font-size="14.00">0:0 &#45; 0:0</text>
</g>
<!-- x21&#45;&gt;x22 -->
<g id="edge18" class="edge">
<title>x21:e&#45;&gt;x22:w</title>
<path fill="none" stroke="black" stroke-width="3" d="M645.17,-485.17C658.65,-485.17 666.8,-485.17 680.28,-485.17"/>
<polygon fill="none" stroke="black" stroke-width="3" points="647.05,-485.17 641.05,-489.17 635.05,-485.17 641.05,-481.17 647.05,-485.17"/>
<polygon fill="none" stroke="black" stroke-width="3" points="678.39,-485.17 684.39,-481.17 690.39,-485.17 684.39,-489.17 678.39,-485.17"/>
</g>
<!-- x22&#45;&gt;n13 -->
<g id="edge31" class="edge">
<title>x22:e&#45;&gt;n13:w</title>
<path fill="none" stroke="black" d="M771.09,-472.92C789.37,-472.92 792.66,-488.62 805.09,-494.76"/>
<polygon fill="black" stroke="black" points="804.1,-498.12 814.61,-496.85 805.6,-491.29 804.1,-498.12"/>
</g>
<!-- x22&#45;&gt;n13 -->
<g id="edge32" class="edge">
<title>x22:e&#45;&gt;n13:w</title>
<path fill="none" stroke="black" stroke-width="3" d="M771.09,-497.42C786.72,-497.42 793.19,-497.27 804.81,-497.2"/>
<polygon fill="black" stroke="black" stroke-width="3" points="801.56,-500.71 811.55,-497.18 801.54,-493.71 801.56,-500.71"/>
</g>
<!-- v23 -->
<g id="node44" class="node">
<title>v23</title>
<ellipse fill="none" stroke="black" cx="2692.54" cy="-262.17" rx="27" ry="18"/>
<text text-anchor="middle" x="2692.54" y="-257.12" font-family="Times,serif" font-size="14.00">2&#39;00</text>
</g>
<!-- x24 -->
<g id="node45" class="node">
<title>x24</title>
<path fill="none" stroke="black" d="M2787.79,-247.17C2787.79,-247.17 2826.29,-247.17 2826.29,-247.17 2832.29,-247.17 2838.29,-253.17 2838.29,-259.17 2838.29,-259.17 2838.29,-271.17 2838.29,-271.17 2838.29,-277.17 2832.29,-283.17 2826.29,-283.17 2826.29,-283.17 2787.79,-283.17 2787.79,-283.17 2781.79,-283.17 2775.79,-277.17 2775.79,-271.17 2775.79,-271.17 2775.79,-259.17 2775.79,-259.17 2775.79,-253.17 2781.79,-247.17 2787.79,-247.17"/>
<text text-anchor="middle" x="2807.04" y="-260.37" font-family="Times,serif" font-size="14.00">1:0 &#45; 9:8</text>
</g>
<!-- v23&#45;&gt;x24 -->
<g id="edge75" class="edge">
<title>v23:e&#45;&gt;x24:w</title>
<path fill="none" stroke="black" stroke-width="3" d="M2720.8,-262.17C2741.07,-262.17 2748.69,-264.23 2764.62,-264.93"/>
<polygon fill="black" stroke="black" stroke-width="3" points="2761.18,-268.36 2771.25,-265.07 2761.33,-261.36 2761.18,-268.36"/>
</g>
<!-- x24&#45;&gt;n17 -->
<g id="edge53" class="edge">
<title>x24:e&#45;&gt;n17:w</title>
<path fill="none" stroke="black" stroke-width="3" d="M2838.29,-265.42C2853.55,-265.42 2854.86,-281.1 2863.59,-288.45"/>
<polygon fill="black" stroke="black" stroke-width="3" points="2859.41,-290.7 2870,-290.68 2861.71,-284.09 2859.41,-290.7"/>
</g>
<!-- v25 -->
<g id="node46" class="node">
<title>v25</title>
<ellipse fill="none" stroke="black" cx="1420.67" cy="-153.17" rx="30.88" ry="18"/>
<text text-anchor="middle" x="1420.67" y="-148.12" font-family="Times,serif" font-size="14.00">3&#39;000</text>
</g>
<!-- x26 -->
<g id="node47" class="node">
<title>x26</title>
<path fill="none" stroke="black" d="M1515.54,-136.17C1515.54,-136.17 1554.04,-136.17 1554.04,-136.17 1560.04,-136.17 1566.04,-142.17 1566.04,-148.17 1566.04,-148.17 1566.04,-160.17 1566.04,-160.17 1566.04,-166.17 1560.04,-172.17 1554.04,-172.17 1554.04,-172.17 1515.54,-172.17 1515.54,-172.17 1509.54,-172.17 1503.54,-166.17 1503.54,-160.17 1503.54,-160.17 1503.54,-148.17 1503.54,-148.17 1503.54,-142.17 1509.54,-136.17 1515.54,-136.17"/>
<text text-anchor="middle" x="1534.79" y="-149.37" font-family="Times,serif" font-size="14.00">2:0 &#45; 7:5</text>
</g>
<!-- v25&#45;&gt;x26 -->
<g id="edge76" class="edge">
<title>v25:e&#45;&gt;x26:w</title>
<path fill="none" stroke="black" stroke-width="3" d="M1452.84,-153.17C1471.15,-153.17 1478.3,-153.83 1492.42,-154.08"/>
<polygon fill="black" stroke="black" stroke-width="3" points="1488.97,-157.55 1499,-154.13 1489.03,-150.55 1488.97,-157.55"/>
</g>
<!-- x26&#45;&gt;n3 -->
<g id="edge64" class="edge">
<title>x26:e&#45;&gt;n3:w</title>
<path fill="none" stroke="black" stroke-width="3" d="M1566.04,-154.42C1590.25,-154.42 1599,-154.24 1618.62,-154.19"/>
<polygon fill="black" stroke="black" stroke-width="3" points="1615.48,-157.69 1625.47,-154.18 1615.47,-150.69 1615.48,-157.69"/>
</g>
<!-- n10&#45;&gt;x1 -->
<g id="edge22" class="edge">
<title>n10:e&#45;&gt;x1:w</title>
<path fill="none" stroke="black" stroke-width="3" d="M1201.79,-561.17C1220.54,-561.17 1220.14,-545.49 1237.79,-539.17 1292.18,-519.7 1535.03,-505.42 1590.68,-502.48"/>
<polygon fill="black" stroke="black" stroke-width="3" points="1587.69,-506.13 1597.51,-502.14 1587.35,-499.14 1587.69,-506.13"/>
</g>
<!-- n10&#45;&gt;x17 -->
<g id="edge21" class="edge">
<title>n10:e&#45;&gt;x17:w</title>
<path fill="none" stroke="black" stroke-width="3" d="M1201.79,-561.17C1213.17,-561.17 1218.48,-561.04 1226.35,-560.97"/>
<polygon fill="black" stroke="black" stroke-width="3" points="1223.27,-564.48 1233.25,-560.94 1223.24,-557.48 1223.27,-564.48"/>
</g>
<!-- n11&#45;&gt;x1 -->
<g id="edge27" class="edge">
<title>n11:e&#45;&gt;x1:w</title>
<path fill="none" stroke="black" stroke-width="3" d="M1538.07,-566.17C1567.23,-566.17 1568.73,-536.01 1590.76,-528.23"/>
<polygon fill="black" stroke="black" stroke-width="3" points="1588.24,-532.18 1597.56,-527.14 1587.13,-525.27 1588.24,-532.18"/>
</g>
<!-- n11&#45;&gt;x17 -->
<g id="edge26" class="edge">
<title>n11:e&#45;&gt;x17:w</title>
<path fill="none" stroke="black" stroke-width="3" d="M1538.07,-566.17C1570.91,-566.17 1499.85,-582.3 1467.54,-588.17 1410.64,-598.52 1395.59,-595.95 1337.79,-598.17 1293.38,-599.88 1270.42,-628.34 1237.79,-598.17 1237.27,-597.69 1236.77,-597.13 1236.32,-596.51"/>
<polygon fill="black" stroke="black" stroke-width="3" points="1239.67,-600.1 1236.6,-589.96 1232.67,-599.8 1239.67,-600.1"/>
</g>
<!-- n12&#45;&gt;x5 -->
<g id="edge30" class="edge">
<title>n12:e&#45;&gt;x5:w</title>
<path fill="none" stroke="black" stroke-width="3" d="M1201.79,-226.17C1221.39,-226.17 1228.93,-226.34 1244.19,-226.4"/>
<polygon fill="black" stroke="black" stroke-width="3" points="1240.99,-229.89 1251,-226.41 1241.01,-222.89 1240.99,-229.89"/>
</g>
<!-- n13&#45;&gt;x2 -->
<g id="edge37" class="edge">
<title>n13:e&#45;&gt;x2:w</title>
<path fill="none" stroke="black" stroke-width="3" d="M819.69,-497.17C831.31,-497.17 836.47,-499.88 844.46,-501.41"/>
<polygon fill="black" stroke="black" stroke-width="3" points="840.9,-504.6 851.17,-502.01 841.52,-497.63 840.9,-504.6"/>
</g>
<!-- n13&#45;&gt;x11 -->
<g id="edge34" class="edge">
<title>n13:e&#45;&gt;x11:w</title>
<path fill="none" stroke="black" stroke-width="3" d="M819.69,-497.17C875.49,-497.17 807.17,-385.11 844.55,-368.47"/>
<polygon fill="black" stroke="black" stroke-width="3" points="842.03,-372.5 851.23,-367.24 840.76,-365.61 842.03,-372.5"/>
</g>
<!-- n13&#45;&gt;x13 -->
<g id="edge35" class="edge">
<title>n13:e&#45;&gt;x13:w</title>
<path fill="none" stroke="black" stroke-width="3" d="M819.69,-497.17C847.07,-497.17 830.61,-451.67 844.97,-438.16"/>
<polygon fill="black" stroke="black" stroke-width="3" points="843.11,-442.51 851.4,-435.92 840.81,-435.9 843.11,-442.51"/>
</g>
<!-- n13&#45;&gt;x15 -->
<g id="edge36" class="edge">
<title>n13:e&#45;&gt;x15:w</title>
<path fill="none" stroke="black" stroke-width="3" d="M819.69,-497.17C857.42,-497.17 822.9,-567.17 844.82,-582.48"/>
<polygon fill="black" stroke="black" stroke-width="3" points="840.74,-585.01 851.31,-584.24 842.57,-578.25 840.74,-585.01"/>
</g>
<!-- n3&#45;&gt;x7 -->
<g id="edge66" class="edge">
<title>n3:e&#45;&gt;x7:w</title>
<path fill="none" stroke="black" stroke-width="3" d="M1636.57,-154.17C1667.41,-154.17 1677.83,-154.37 1703.88,-154.41"/>
<polygon fill="black" stroke="black" stroke-width="3" points="1700.62,-157.91 1710.63,-154.42 1700.63,-150.91 1700.62,-157.91"/>
</g>
</g>
</svg>
