<?xml version="1.0" encoding="UTF-8" standalone="no"?>
<!DOCTYPE svg PUBLIC "-//W3C//DTD SVG 1.1//EN"
 "http://www.w3.org/Graphics/SVG/1.1/DTD/svg11.dtd">
<!-- Generated by graphviz version 12.2.1 (20241206.2353)
 -->
<!-- Title: top Pages: 1 -->
<svg width="3005pt" height="454pt"
 viewBox="0.00 0.00 3004.81 453.50" xmlns="http://www.w3.org/2000/svg" xmlns:xlink="http://www.w3.org/1999/xlink">
<g id="graph0" class="graph" transform="scale(1 1) rotate(0) translate(4 449.5)">
<title>top</title>
<polygon fill="white" stroke="none" points="-4,4 -4,-449.5 3000.81,-449.5 3000.81,4 -4,4"/>
<text text-anchor="middle" x="1498.41" y="-7.2" font-family="Times,serif" font-size="14.00">top</text>
<!-- n7 -->
<g id="node1" class="node">
<title>n7</title>
<polygon fill="none" stroke="black" points="1182.8,-433.5 1098.59,-415.5 1182.8,-397.5 1267,-415.5 1182.8,-433.5"/>
<text text-anchor="middle" x="1182.8" y="-410.45" font-family="Times,serif" font-size="14.00">expr_649416</text>
</g>
<!-- x7 -->
<g id="node30" class="node">
<title>x7</title>
<path fill="none" stroke="black" d="M1919.91,-385C1919.91,-385 1962.91,-385 1962.91,-385 1968.91,-385 1974.91,-391 1974.91,-397 1974.91,-397 1974.91,-422 1974.91,-422 1974.91,-428 1968.91,-434 1962.91,-434 1962.91,-434 1919.91,-434 1919.91,-434 1913.91,-434 1907.91,-428 1907.91,-422 1907.91,-422 1907.91,-397 1907.91,-397 1907.91,-391 1913.91,-385 1919.91,-385"/>
<text text-anchor="middle" x="1941.41" y="-416.7" font-family="Times,serif" font-size="14.00">0 &#45;&gt; 12:7</text>
<polyline fill="none" stroke="black" points="1907.91,-409.5 1974.91,-409.5"/>
<text text-anchor="middle" x="1941.41" y="-392.2" font-family="Times,serif" font-size="14.00">6:0 &#45; 6:0</text>
</g>
<!-- n7&#45;&gt;x7 -->
<g id="edge46" class="edge">
<title>n7:e&#45;&gt;x7:w</title>
<path fill="none" stroke="black" stroke-width="3" d="M1267,-415.5C1375.78,-415.5 1402.92,-420.5 1511.7,-420.5 1511.7,-420.5 1511.7,-420.5 1690.66,-420.5 1783.87,-420.5 1808.83,-399.07 1896.59,-397.36"/>
<polygon fill="black" stroke="black" stroke-width="3" points="1893.4,-400.89 1903.36,-397.29 1893.33,-393.89 1893.4,-400.89"/>
</g>
<!-- n8 -->
<g id="node2" class="node">
<title>n8</title>
<polygon fill="none" stroke="black" points="1512.7,-189.5 1428.5,-171.5 1512.7,-153.5 1596.91,-171.5 1512.7,-189.5"/>
<text text-anchor="middle" x="1512.7" y="-166.45" font-family="Times,serif" font-size="14.00">expr_708858</text>
</g>
<!-- x3 -->
<g id="node23" class="node">
<title>x3</title>
<path fill="none" stroke="black" d="M1644.91,-199C1644.91,-199 1734.41,-199 1734.41,-199 1740.41,-199 1746.41,-205 1746.41,-211 1746.41,-211 1746.41,-236 1746.41,-236 1746.41,-242 1740.41,-248 1734.41,-248 1734.41,-248 1644.91,-248 1644.91,-248 1638.91,-248 1632.91,-242 1632.91,-236 1632.91,-236 1632.91,-211 1632.91,-211 1632.91,-205 1638.91,-199 1644.91,-199"/>
<text text-anchor="middle" x="1689.66" y="-230.7" font-family="Times,serif" font-size="14.00">19x 30:30 &#45; 30:12</text>
<polyline fill="none" stroke="black" points="1632.91,-223.5 1746.41,-223.5"/>
<text text-anchor="middle" x="1689.66" y="-206.2" font-family="Times,serif" font-size="14.00">11:0 &#45; 11:0</text>
</g>
<!-- n8&#45;&gt;x3 -->
<g id="edge52" class="edge">
<title>n8:e&#45;&gt;x3:w</title>
<path fill="none" stroke="black" stroke-width="3" d="M1596.91,-171.5C1616.08,-171.5 1612.27,-197.24 1622.47,-207.29"/>
<polygon fill="black" stroke="black" stroke-width="3" points="1618.07,-209.37 1628.66,-209.64 1620.55,-202.82 1618.07,-209.37"/>
</g>
<!-- n8&#45;&gt;x3 -->
<g id="edge53" class="edge">
<title>n8:e&#45;&gt;x3:w</title>
<path fill="none" stroke="black" stroke-width="3" d="M1596.91,-171.5C1625.03,-171.5 1607.23,-218.95 1622.44,-232.3"/>
<polygon fill="black" stroke="black" stroke-width="3" points="1618,-234.52 1628.59,-234.33 1620.19,-227.87 1618,-234.52"/>
</g>
<!-- x11 -->
<g id="node34" class="node">
<title>x11</title>
<path fill="none" stroke="black" d="M1648.28,-93C1648.28,-93 1731.03,-93 1731.03,-93 1737.03,-93 1743.03,-99 1743.03,-105 1743.03,-105 1743.03,-130 1743.03,-130 1743.03,-136 1737.03,-142 1731.03,-142 1731.03,-142 1648.28,-142 1648.28,-142 1642.28,-142 1636.28,-136 1636.28,-130 1636.28,-130 1636.28,-105 1636.28,-105 1636.28,-99 1642.28,-93 1648.28,-93"/>
<text text-anchor="middle" x="1689.66" y="-124.7" font-family="Times,serif" font-size="14.00">X &#45;&gt; 19:18</text>
<polyline fill="none" stroke="black" points="1636.28,-117.5 1743.03,-117.5"/>
<text text-anchor="middle" x="1689.66" y="-100.2" font-family="Times,serif" font-size="14.00">18x 30:30 &#45; 17:0</text>
</g>
<!-- n8&#45;&gt;x11 -->
<g id="edge51" class="edge">
<title>n8:e&#45;&gt;x11:w</title>
<path fill="none" stroke="black" stroke-width="3" d="M1596.91,-171.5C1626.15,-171.5 1608.34,-122.57 1624.35,-108.81"/>
<polygon fill="black" stroke="black" stroke-width="3" points="1622.54,-113.08 1630.96,-106.66 1620.37,-106.43 1622.54,-113.08"/>
</g>
<!-- n9 -->
<g id="node3" class="node">
<title>n9</title>
<polygon fill="none" stroke="black" points="107.84,-302.04 107.84,-316.96 76.26,-327.5 31.59,-327.5 0,-316.96 0,-302.04 31.59,-291.5 76.26,-291.5 107.84,-302.04"/>
<text text-anchor="middle" x="53.92" y="-304.45" font-family="Times,serif" font-size="14.00">input_data</text>
</g>
<!-- c21 -->
<g id="node12" class="node">
<title>c21</title>
<polygon fill="none" stroke="black" points="143.84,-285 143.84,-334 237.59,-334 237.59,-285 143.84,-285"/>
<text text-anchor="middle" x="156.72" y="-316.7" font-family="Times,serif" font-size="14.00">A</text>
<polyline fill="none" stroke="black" points="143.84,-309.5 169.59,-309.5"/>
<text text-anchor="middle" x="156.72" y="-292.2" font-family="Times,serif" font-size="14.00">B</text>
<polyline fill="none" stroke="black" points="169.59,-285 169.59,-334"/>
<text text-anchor="middle" x="190.72" y="-312.7" font-family="Times,serif" font-size="14.00">$1</text>
<text text-anchor="middle" x="190.72" y="-296.2" font-family="Times,serif" font-size="14.00">$and</text>
<polyline fill="none" stroke="black" points="211.84,-285 211.84,-334"/>
<text text-anchor="middle" x="224.72" y="-304.7" font-family="Times,serif" font-size="14.00">Y</text>
</g>
<!-- n9&#45;&gt;c21 -->
<g id="edge54" class="edge">
<title>n9:e&#45;&gt;c21:w</title>
<path fill="none" stroke="black" stroke-width="3" d="M107.84,-309.5C120.12,-309.5 124.64,-315.97 132.67,-319.5"/>
<polygon fill="black" stroke="black" stroke-width="3" points="128.9,-322.31 139.39,-320.85 130.28,-315.45 128.9,-322.31"/>
</g>
<!-- n9&#45;&gt;c21 -->
<g id="edge55" class="edge">
<title>n9:e&#45;&gt;c21:w</title>
<path fill="none" stroke="black" stroke-width="3" d="M107.84,-309.5C120.12,-309.5 124.64,-303.03 132.67,-299.5"/>
<polygon fill="black" stroke="black" stroke-width="3" points="130.28,-303.55 139.39,-298.15 128.9,-296.69 130.28,-303.55"/>
</g>
<!-- c26 -->
<g id="node20" class="node">
<title>c26</title>
<polygon fill="none" stroke="black" points="420.09,-204 420.09,-253 505.59,-253 505.59,-204 420.09,-204"/>
<text text-anchor="middle" x="432.97" y="-235.7" font-family="Times,serif" font-size="14.00">A</text>
<polyline fill="none" stroke="black" points="420.09,-228.5 445.84,-228.5"/>
<text text-anchor="middle" x="432.97" y="-211.2" font-family="Times,serif" font-size="14.00">B</text>
<polyline fill="none" stroke="black" points="445.84,-204 445.84,-253"/>
<text text-anchor="middle" x="462.84" y="-231.7" font-family="Times,serif" font-size="14.00">$2</text>
<text text-anchor="middle" x="462.84" y="-215.2" font-family="Times,serif" font-size="14.00">$or</text>
<polyline fill="none" stroke="black" points="479.84,-204 479.84,-253"/>
<text text-anchor="middle" x="492.72" y="-223.7" font-family="Times,serif" font-size="14.00">Y</text>
</g>
<!-- n9&#45;&gt;c26 -->
<g id="edge56" class="edge">
<title>n9:e&#45;&gt;c26:w</title>
<path fill="none" stroke="black" stroke-width="3" d="M107.84,-309.5C129.85,-309.5 124.36,-285.74 143.84,-275.5 251.62,-218.83 292.06,-216.35 408.92,-216.25"/>
<polygon fill="black" stroke="black" stroke-width="3" points="405.55,-219.76 415.55,-216.25 405.55,-212.76 405.55,-219.76"/>
</g>
<!-- x5 -->
<g id="node26" class="node">
<title>x5</title>
<path fill="none" stroke="black" d="M309.59,-396.5C309.59,-396.5 348.09,-396.5 348.09,-396.5 354.09,-396.5 360.09,-402.5 360.09,-408.5 360.09,-408.5 360.09,-420.5 360.09,-420.5 360.09,-426.5 354.09,-432.5 348.09,-432.5 348.09,-432.5 309.59,-432.5 309.59,-432.5 303.59,-432.5 297.59,-426.5 297.59,-420.5 297.59,-420.5 297.59,-408.5 297.59,-408.5 297.59,-402.5 303.59,-396.5 309.59,-396.5"/>
<text text-anchor="middle" x="328.84" y="-409.7" font-family="Times,serif" font-size="14.00">2:2 &#45; 0:0</text>
</g>
<!-- n9&#45;&gt;x5 -->
<g id="edge57" class="edge">
<title>n9:e&#45;&gt;x5:w</title>
<path fill="none" stroke="black" d="M107.84,-309.5C129.85,-309.5 125.64,-331.13 143.84,-343.5 202.54,-383.37 219.88,-411.64 285.22,-414.51"/>
<polygon fill="black" stroke="black" points="285.01,-418.01 295.08,-414.72 285.15,-411.01 285.01,-418.01"/>
</g>
<!-- n10 -->
<g id="node4" class="node">
<title>n10</title>
<polygon fill="none" stroke="black" points="2996.81,-72.04 2996.81,-86.96 2962.31,-97.5 2913.51,-97.5 2879,-86.96 2879,-72.04 2913.51,-61.5 2962.31,-61.5 2996.81,-72.04"/>
<text text-anchor="middle" x="2937.91" y="-74.45" font-family="Times,serif" font-size="14.00">output_data</text>
</g>
<!-- n11 -->
<g id="node5" class="node">
<title>n11</title>
<polygon fill="none" stroke="black" points="328.84,-327.5 273.59,-309.5 328.84,-291.5 384.09,-309.5 328.84,-327.5"/>
<text text-anchor="middle" x="328.84" y="-304.45" font-family="Times,serif" font-size="14.00">temp_0</text>
</g>
<!-- c20 -->
<g id="node11" class="node">
<title>c20</title>
<polygon fill="none" stroke="black" points="967.72,-316 967.72,-365 1061.47,-365 1061.47,-316 967.72,-316"/>
<text text-anchor="middle" x="980.59" y="-347.7" font-family="Times,serif" font-size="14.00">A</text>
<polyline fill="none" stroke="black" points="967.72,-340.5 993.47,-340.5"/>
<text text-anchor="middle" x="980.59" y="-323.2" font-family="Times,serif" font-size="14.00">B</text>
<polyline fill="none" stroke="black" points="993.47,-316 993.47,-365"/>
<text text-anchor="middle" x="1014.59" y="-343.7" font-family="Times,serif" font-size="14.00">$11</text>
<text text-anchor="middle" x="1014.59" y="-327.2" font-family="Times,serif" font-size="14.00">$add</text>
<polyline fill="none" stroke="black" points="1035.72,-316 1035.72,-365"/>
<text text-anchor="middle" x="1048.59" y="-335.7" font-family="Times,serif" font-size="14.00">Y</text>
</g>
<!-- n11&#45;&gt;c20 -->
<g id="edge16" class="edge">
<title>n11:e&#45;&gt;c20:w</title>
<path fill="none" stroke="black" stroke-width="3" d="M384.09,-309.5C639.38,-309.5 705.71,-327.7 955.46,-328.24"/>
<polygon fill="black" stroke="black" stroke-width="3" points="952.17,-331.73 962.18,-328.25 952.18,-324.73 952.17,-331.73"/>
</g>
<!-- c24 -->
<g id="node17" class="node">
<title>c24</title>
<polygon fill="none" stroke="black" points="966.59,-201 966.59,-250 1062.59,-250 1062.59,-201 966.59,-201"/>
<text text-anchor="middle" x="979.47" y="-232.7" font-family="Times,serif" font-size="14.00">A</text>
<polyline fill="none" stroke="black" points="966.59,-225.5 992.34,-225.5"/>
<text text-anchor="middle" x="979.47" y="-208.2" font-family="Times,serif" font-size="14.00">B</text>
<polyline fill="none" stroke="black" points="992.34,-201 992.34,-250"/>
<text text-anchor="middle" x="1014.59" y="-228.7" font-family="Times,serif" font-size="14.00">$8</text>
<text text-anchor="middle" x="1014.59" y="-212.2" font-family="Times,serif" font-size="14.00">$mul</text>
<polyline fill="none" stroke="black" points="1036.84,-201 1036.84,-250"/>
<text text-anchor="middle" x="1049.72" y="-220.7" font-family="Times,serif" font-size="14.00">Y</text>
</g>
<!-- n11&#45;&gt;c24 -->
<g id="edge17" class="edge">
<title>n11:e&#45;&gt;c24:w</title>
<path fill="none" stroke="black" stroke-width="3" d="M384.09,-309.5C414.87,-309.5 872.02,-224.73 955.27,-214.3"/>
<polygon fill="black" stroke="black" stroke-width="3" points="952.44,-218.08 962.07,-213.67 951.79,-211.1 952.44,-218.08"/>
</g>
<!-- n11&#45;&gt;c26 -->
<g id="edge18" class="edge">
<title>n11:e&#45;&gt;c26:w</title>
<path fill="none" stroke="black" stroke-width="3" d="M384.09,-309.5C414,-309.5 393.17,-257.8 409.6,-244.07"/>
<polygon fill="black" stroke="black" stroke-width="3" points="407.28,-248.47 415.76,-242.12 405.17,-241.8 407.28,-248.47"/>
</g>
<!-- x4 -->
<g id="node25" class="node">
<title>x4</title>
<path fill="none" stroke="black" d="M443.59,-379.5C443.59,-379.5 482.09,-379.5 482.09,-379.5 488.09,-379.5 494.09,-385.5 494.09,-391.5 494.09,-391.5 494.09,-403.5 494.09,-403.5 494.09,-409.5 488.09,-415.5 482.09,-415.5 482.09,-415.5 443.59,-415.5 443.59,-415.5 437.59,-415.5 431.59,-409.5 431.59,-403.5 431.59,-403.5 431.59,-391.5 431.59,-391.5 431.59,-385.5 437.59,-379.5 443.59,-379.5"/>
<text text-anchor="middle" x="462.84" y="-392.7" font-family="Times,serif" font-size="14.00">1:0 &#45; 1:0</text>
</g>
<!-- n11&#45;&gt;x4 -->
<g id="edge19" class="edge">
<title>n11:e&#45;&gt;x4:w</title>
<path fill="none" stroke="black" stroke-width="3" d="M384.09,-309.5C423.92,-309.5 393.93,-380.73 419.58,-395.2"/>
<polygon fill="black" stroke="black" stroke-width="3" points="415.64,-397.88 426.17,-396.73 417.21,-391.06 415.64,-397.88"/>
</g>
<!-- n12 -->
<g id="node6" class="node">
<title>n12</title>
<polygon fill="none" stroke="black" points="596.84,-248.5 541.59,-230.5 596.84,-212.5 652.09,-230.5 596.84,-248.5"/>
<text text-anchor="middle" x="596.84" y="-225.45" font-family="Times,serif" font-size="14.00">temp_1</text>
</g>
<!-- c19 -->
<g id="node10" class="node">
<title>c19</title>
<polygon fill="none" stroke="black" points="967.72,-384 967.72,-433 1061.47,-433 1061.47,-384 967.72,-384"/>
<text text-anchor="middle" x="980.59" y="-415.7" font-family="Times,serif" font-size="14.00">A</text>
<polyline fill="none" stroke="black" points="967.72,-408.5 993.47,-408.5"/>
<text text-anchor="middle" x="980.59" y="-391.2" font-family="Times,serif" font-size="14.00">B</text>
<polyline fill="none" stroke="black" points="993.47,-384 993.47,-433"/>
<text text-anchor="middle" x="1014.59" y="-411.7" font-family="Times,serif" font-size="14.00">$10</text>
<text text-anchor="middle" x="1014.59" y="-395.2" font-family="Times,serif" font-size="14.00">$add</text>
<polyline fill="none" stroke="black" points="1035.72,-384 1035.72,-433"/>
<text text-anchor="middle" x="1048.59" y="-403.7" font-family="Times,serif" font-size="14.00">Y</text>
</g>
<!-- n12&#45;&gt;c19 -->
<g id="edge21" class="edge">
<title>n12:e&#45;&gt;c19:w</title>
<path fill="none" stroke="black" stroke-width="3" d="M652.09,-230.5C670.4,-230.5 671.98,-241.81 688.09,-250.5 716.44,-265.79 899.62,-376.75 955.44,-394"/>
<polygon fill="black" stroke="black" stroke-width="3" points="951.77,-396.84 962.27,-395.36 953.14,-389.97 951.77,-396.84"/>
</g>
<!-- c23 -->
<g id="node16" class="node">
<title>c23</title>
<polygon fill="none" stroke="black" points="688.09,-384 688.09,-433 784.09,-433 784.09,-384 688.09,-384"/>
<text text-anchor="middle" x="700.97" y="-415.7" font-family="Times,serif" font-size="14.00">A</text>
<polyline fill="none" stroke="black" points="688.09,-408.5 713.84,-408.5"/>
<text text-anchor="middle" x="700.97" y="-391.2" font-family="Times,serif" font-size="14.00">B</text>
<polyline fill="none" stroke="black" points="713.84,-384 713.84,-433"/>
<text text-anchor="middle" x="736.09" y="-411.7" font-family="Times,serif" font-size="14.00">$7</text>
<text text-anchor="middle" x="736.09" y="-395.2" font-family="Times,serif" font-size="14.00">$mul</text>
<polyline fill="none" stroke="black" points="758.34,-384 758.34,-433"/>
<text text-anchor="middle" x="771.22" y="-403.7" font-family="Times,serif" font-size="14.00">Y</text>
</g>
<!-- n12&#45;&gt;c23 -->
<g id="edge22" class="edge">
<title>n12:e&#45;&gt;c23:w</title>
<path fill="none" stroke="black" stroke-width="3" d="M652.09,-230.5C723.06,-230.5 625.51,-377.4 676.72,-394.61"/>
<polygon fill="black" stroke="black" stroke-width="3" points="673.2,-397.64 683.6,-395.6 674.2,-390.71 673.2,-397.64"/>
</g>
<!-- c25 -->
<g id="node18" class="node">
<title>c25</title>
<polygon fill="none" stroke="black" points="1134.8,-304 1134.8,-353 1230.8,-353 1230.8,-304 1134.8,-304"/>
<text text-anchor="middle" x="1147.67" y="-335.7" font-family="Times,serif" font-size="14.00">A</text>
<polyline fill="none" stroke="black" points="1134.8,-328.5 1160.55,-328.5"/>
<text text-anchor="middle" x="1147.67" y="-311.2" font-family="Times,serif" font-size="14.00">B</text>
<polyline fill="none" stroke="black" points="1160.55,-304 1160.55,-353"/>
<text text-anchor="middle" x="1182.8" y="-331.7" font-family="Times,serif" font-size="14.00">$12</text>
<text text-anchor="middle" x="1182.8" y="-315.2" font-family="Times,serif" font-size="14.00">$mul</text>
<polyline fill="none" stroke="black" points="1205.05,-304 1205.05,-353"/>
<text text-anchor="middle" x="1217.92" y="-323.7" font-family="Times,serif" font-size="14.00">Y</text>
</g>
<!-- n12&#45;&gt;c25 -->
<g id="edge23" class="edge">
<title>n12:e&#45;&gt;c25:w</title>
<path fill="none" stroke="black" stroke-width="3" d="M652.09,-230.5C711.43,-230.5 725.59,-240.57 784.09,-250.5 820.41,-256.66 1058.27,-308.41 1122.59,-315.46"/>
<polygon fill="black" stroke="black" stroke-width="3" points="1119.05,-318.71 1129.27,-315.93 1119.54,-311.73 1119.05,-318.71"/>
</g>
<!-- c27 -->
<g id="node21" class="node">
<title>c27</title>
<polygon fill="none" stroke="black" points="693.34,-159 693.34,-208 778.84,-208 778.84,-159 693.34,-159"/>
<text text-anchor="middle" x="706.22" y="-190.7" font-family="Times,serif" font-size="14.00">A</text>
<polyline fill="none" stroke="black" points="693.34,-183.5 719.09,-183.5"/>
<text text-anchor="middle" x="706.22" y="-166.2" font-family="Times,serif" font-size="14.00">B</text>
<polyline fill="none" stroke="black" points="719.09,-159 719.09,-208"/>
<text text-anchor="middle" x="736.09" y="-186.7" font-family="Times,serif" font-size="14.00">$3</text>
<text text-anchor="middle" x="736.09" y="-170.2" font-family="Times,serif" font-size="14.00">$or</text>
<polyline fill="none" stroke="black" points="753.09,-159 753.09,-208"/>
<text text-anchor="middle" x="765.97" y="-178.7" font-family="Times,serif" font-size="14.00">Y</text>
</g>
<!-- n12&#45;&gt;c27 -->
<g id="edge24" class="edge">
<title>n12:e&#45;&gt;c27:w</title>
<path fill="none" stroke="black" stroke-width="3" d="M652.09,-230.5C671.11,-230.5 670.28,-208 681.55,-199.21"/>
<polygon fill="black" stroke="black" stroke-width="3" points="679.56,-203.52 688.02,-197.14 677.43,-196.85 679.56,-203.52"/>
</g>
<!-- n12&#45;&gt;c27 -->
<g id="edge25" class="edge">
<title>n12:e&#45;&gt;c27:w</title>
<path fill="none" stroke="black" stroke-width="3" d="M652.09,-230.5C679.2,-230.5 666.24,-187.53 681.46,-174.78"/>
<polygon fill="black" stroke="black" stroke-width="3" points="679.59,-179.06 688.02,-172.65 677.43,-172.4 679.59,-179.06"/>
</g>
<!-- n13 -->
<g id="node7" class="node">
<title>n13</title>
<polygon fill="none" stroke="black" points="875.34,-194.5 820.09,-176.5 875.34,-158.5 930.59,-176.5 875.34,-194.5"/>
<text text-anchor="middle" x="875.34" y="-171.45" font-family="Times,serif" font-size="14.00">temp_2</text>
</g>
<!-- c22 -->
<g id="node13" class="node">
<title>c22</title>
<polygon fill="none" stroke="black" points="2602.58,-25 2602.58,-74 2696.33,-74 2696.33,-25 2602.58,-25"/>
<text text-anchor="middle" x="2615.45" y="-56.7" font-family="Times,serif" font-size="14.00">A</text>
<polyline fill="none" stroke="black" points="2602.58,-49.5 2628.33,-49.5"/>
<text text-anchor="middle" x="2615.45" y="-32.2" font-family="Times,serif" font-size="14.00">B</text>
<polyline fill="none" stroke="black" points="2628.33,-25 2628.33,-74"/>
<text text-anchor="middle" x="2649.45" y="-52.7" font-family="Times,serif" font-size="14.00">$30</text>
<text text-anchor="middle" x="2649.45" y="-36.2" font-family="Times,serif" font-size="14.00">$and</text>
<polyline fill="none" stroke="black" points="2670.58,-25 2670.58,-74"/>
<text text-anchor="middle" x="2683.45" y="-44.7" font-family="Times,serif" font-size="14.00">Y</text>
</g>
<!-- n13&#45;&gt;c22 -->
<g id="edge27" class="edge">
<title>n13:e&#45;&gt;c22:w</title>
<path fill="none" stroke="black" stroke-width="3" d="M930.59,-176.5C995.61,-176.5 1116.78,-26.5 1181.8,-26.5 1181.8,-26.5 1181.8,-26.5 2379.16,-26.5 2474.26,-26.5 2500.58,-36.43 2590.31,-37.2"/>
<polygon fill="black" stroke="black" stroke-width="3" points="2587.02,-40.69 2597.04,-37.23 2587.05,-33.69 2587.02,-40.69"/>
</g>
<!-- n13&#45;&gt;c24 -->
<g id="edge28" class="edge">
<title>n13:e&#45;&gt;c24:w</title>
<path fill="none" stroke="black" stroke-width="3" d="M930.59,-176.5C957.48,-176.5 941.78,-220.92 956.03,-234.1"/>
<polygon fill="black" stroke="black" stroke-width="3" points="951.71,-236.31 962.3,-236.27 953.99,-229.7 951.71,-236.31"/>
</g>
<!-- c30 -->
<g id="node27" class="node">
<title>c30</title>
<polygon fill="none" stroke="black" points="1136.3,-160 1136.3,-209 1229.3,-209 1229.3,-160 1136.3,-160"/>
<text text-anchor="middle" x="1149.17" y="-191.7" font-family="Times,serif" font-size="14.00">A</text>
<polyline fill="none" stroke="black" points="1136.3,-184.5 1162.05,-184.5"/>
<text text-anchor="middle" x="1149.17" y="-167.2" font-family="Times,serif" font-size="14.00">B</text>
<polyline fill="none" stroke="black" points="1162.05,-160 1162.05,-209"/>
<text text-anchor="middle" x="1182.8" y="-187.7" font-family="Times,serif" font-size="14.00">$9</text>
<text text-anchor="middle" x="1182.8" y="-171.2" font-family="Times,serif" font-size="14.00">$sub</text>
<polyline fill="none" stroke="black" points="1203.55,-160 1203.55,-209"/>
<text text-anchor="middle" x="1216.42" y="-179.7" font-family="Times,serif" font-size="14.00">Y</text>
</g>
<!-- n13&#45;&gt;c30 -->
<g id="edge29" class="edge">
<title>n13:e&#45;&gt;c30:w</title>
<path fill="none" stroke="black" stroke-width="3" d="M930.59,-176.5C1017.68,-176.5 1042.22,-172.61 1123.93,-172.27"/>
<polygon fill="black" stroke="black" stroke-width="3" points="1120.76,-175.78 1130.76,-172.26 1120.75,-168.78 1120.76,-175.78"/>
</g>
<!-- n14 -->
<g id="node8" class="node">
<title>n14</title>
<polygon fill="none" stroke="black" points="875.34,-430.5 820.09,-412.5 875.34,-394.5 930.59,-412.5 875.34,-430.5"/>
<text text-anchor="middle" x="875.34" y="-407.45" font-family="Times,serif" font-size="14.00">temp_4</text>
</g>
<!-- n14&#45;&gt;c19 -->
<g id="edge31" class="edge">
<title>n14:e&#45;&gt;c19:w</title>
<path fill="none" stroke="black" d="M930.59,-412.5C942.43,-412.5 947.41,-416.76 955.38,-419.16"/>
<polygon fill="black" stroke="black" points="954.83,-422.62 965.22,-420.54 955.8,-415.68 954.83,-422.62"/>
</g>
<!-- n14&#45;&gt;c20 -->
<g id="edge32" class="edge">
<title>n14:e&#45;&gt;c20:w</title>
<path fill="none" stroke="black" d="M930.59,-412.5C956.78,-412.5 942.4,-369.96 955.91,-356.67"/>
<polygon fill="black" stroke="black" points="957.09,-359.97 965.3,-353.27 954.7,-353.39 957.09,-359.97"/>
</g>
<!-- n15 -->
<g id="node9" class="node">
<title>n15</title>
<polygon fill="none" stroke="black" points="2378.16,-222.5 2322.91,-204.5 2378.16,-186.5 2433.41,-204.5 2378.16,-222.5"/>
<text text-anchor="middle" x="2378.16" y="-199.45" font-family="Times,serif" font-size="14.00">temp_6</text>
</g>
<!-- x0 -->
<g id="node14" class="node">
<title>x0</title>
<path fill="none" stroke="black" d="M2481.41,-142.5C2481.41,-142.5 2519.91,-142.5 2519.91,-142.5 2525.91,-142.5 2531.91,-148.5 2531.91,-154.5 2531.91,-154.5 2531.91,-166.5 2531.91,-166.5 2531.91,-172.5 2525.91,-178.5 2519.91,-178.5 2519.91,-178.5 2481.41,-178.5 2481.41,-178.5 2475.41,-178.5 2469.41,-172.5 2469.41,-166.5 2469.41,-166.5 2469.41,-154.5 2469.41,-154.5 2469.41,-148.5 2475.41,-142.5 2481.41,-142.5"/>
<text text-anchor="middle" x="2500.66" y="-155.7" font-family="Times,serif" font-size="14.00">5:0 &#45; 5:0</text>
</g>
<!-- n15&#45;&gt;x0 -->
<g id="edge34" class="edge">
<title>n15:e&#45;&gt;x0:w</title>
<path fill="none" stroke="black" stroke-width="3" d="M2433.41,-204.5C2453.87,-204.5 2448.22,-175.62 2458.89,-164.79"/>
<polygon fill="black" stroke="black" stroke-width="3" points="2457.09,-169.23 2465.17,-162.38 2454.58,-162.69 2457.09,-169.23"/>
</g>
<!-- c19&#45;&gt;n7 -->
<g id="edge45" class="edge">
<title>c19:e&#45;&gt;n7:w</title>
<path fill="none" stroke="black" stroke-width="3" d="M1062.47,-408.75C1074.21,-408.75 1079.3,-412.24 1087.3,-414.2"/>
<polygon fill="black" stroke="black" stroke-width="3" points="1083.75,-417.31 1094.08,-414.98 1084.55,-410.36 1083.75,-417.31"/>
</g>
<!-- c20&#45;&gt;c25 -->
<g id="edge12" class="edge">
<title>c20:e&#45;&gt;c25:w</title>
<path fill="none" stroke="black" stroke-width="3" d="M1062.47,-340.75C1089.96,-340.75 1099.57,-340.75 1122.31,-340.75"/>
<polygon fill="black" stroke="black" stroke-width="3" points="1119.26,-344.25 1129.26,-340.75 1119.26,-337.25 1119.26,-344.25"/>
</g>
<!-- c21&#45;&gt;n11 -->
<g id="edge15" class="edge">
<title>c21:e&#45;&gt;n11:w</title>
<path fill="none" stroke="black" stroke-width="3" d="M237.59,-309.75C248.97,-309.75 254.28,-309.62 262.14,-309.55"/>
<polygon fill="black" stroke="black" stroke-width="3" points="259.07,-313.06 269.05,-309.52 259.03,-306.06 259.07,-313.06"/>
</g>
<!-- x1 -->
<g id="node15" class="node">
<title>x1</title>
<path fill="none" stroke="black" d="M2785.75,-34.5C2785.75,-34.5 2824.25,-34.5 2824.25,-34.5 2830.25,-34.5 2836.25,-40.5 2836.25,-46.5 2836.25,-46.5 2836.25,-58.5 2836.25,-58.5 2836.25,-64.5 2830.25,-70.5 2824.25,-70.5 2824.25,-70.5 2785.75,-70.5 2785.75,-70.5 2779.75,-70.5 2773.75,-64.5 2773.75,-58.5 2773.75,-58.5 2773.75,-46.5 2773.75,-46.5 2773.75,-40.5 2779.75,-34.5 2785.75,-34.5"/>
<text text-anchor="middle" x="2805" y="-47.7" font-family="Times,serif" font-size="14.00">5:0 &#45; 5:0</text>
</g>
<!-- c22&#45;&gt;x1 -->
<g id="edge2" class="edge">
<title>c22:e&#45;&gt;x1:w</title>
<path fill="none" stroke="black" stroke-width="3" d="M2710.13,-49.9C2729.85,-50.38 2740.22,-51.87 2759.93,-52.35"/>
<polygon fill="none" stroke="black" stroke-width="3" points="2712.03,-49.92 2705.99,-53.85 2700.03,-49.78 2706.08,-45.85 2712.03,-49.92"/>
<polygon fill="none" stroke="black" stroke-width="3" points="2758.05,-52.33 2764.1,-48.4 2770.05,-52.47 2764,-56.4 2758.05,-52.33"/>
</g>
<!-- x0&#45;&gt;c22 -->
<g id="edge1" class="edge">
<title>x0:e&#45;&gt;c22:w</title>
<path fill="none" stroke="black" stroke-width="3" d="M2544.6,-157.67C2563.07,-146.89 2546.66,-107.85 2567.91,-83.5 2576.14,-74.06 2580.63,-67.14 2588.77,-63.87"/>
<polygon fill="none" stroke="black" stroke-width="3" points="2546.26,-157.3 2541.27,-162.51 2534.55,-159.91 2539.53,-154.7 2546.26,-157.3"/>
<polygon fill="none" stroke="black" stroke-width="3" points="2587.07,-64.15 2592.34,-59.22 2598.91,-62.19 2593.64,-67.12 2587.07,-64.15"/>
</g>
<!-- x1&#45;&gt;n10 -->
<g id="edge14" class="edge">
<title>x1:e&#45;&gt;n10:w</title>
<path fill="none" stroke="black" stroke-width="3" d="M2837.25,-52.75C2854.81,-52.75 2856.9,-69.74 2868.18,-76.64"/>
<polygon fill="black" stroke="black" stroke-width="3" points="2864.05,-79.16 2874.61,-78.34 2865.84,-72.4 2864.05,-79.16"/>
</g>
<!-- c23&#45;&gt;n14 -->
<g id="edge30" class="edge">
<title>c23:e&#45;&gt;n14:w</title>
<path fill="none" stroke="black" d="M784.09,-408.75C795.53,-408.75 800.77,-410.65 808.62,-411.74"/>
<polygon fill="black" stroke="black" points="808.37,-415.23 818.58,-412.4 808.84,-408.25 808.37,-415.23"/>
</g>
<!-- c24&#45;&gt;c30 -->
<g id="edge35" class="edge">
<title>c24:e&#45;&gt;c30:w</title>
<path fill="none" stroke="black" stroke-width="3" d="M1062.59,-225.75C1093.17,-225.75 1099.29,-203.35 1123.94,-197.92"/>
<polygon fill="black" stroke="black" stroke-width="3" points="1121.19,-201.73 1130.78,-197.22 1120.47,-194.76 1121.19,-201.73"/>
</g>
<!-- x2 -->
<g id="node19" class="node">
<title>x2</title>
<path fill="none" stroke="black" d="M1315,-305C1315,-305 1380.5,-305 1380.5,-305 1386.5,-305 1392.5,-311 1392.5,-317 1392.5,-317 1392.5,-342 1392.5,-342 1392.5,-348 1386.5,-354 1380.5,-354 1380.5,-354 1315,-354 1315,-354 1309,-354 1303,-348 1303,-342 1303,-342 1303,-317 1303,-317 1303,-311 1309,-305 1315,-305"/>
<text text-anchor="middle" x="1347.75" y="-336.7" font-family="Times,serif" font-size="14.00">12:12 &#45; 12:12</text>
<polyline fill="none" stroke="black" points="1303,-329.5 1392.5,-329.5"/>
<text text-anchor="middle" x="1347.75" y="-312.2" font-family="Times,serif" font-size="14.00">11:0 &#45; 11:0</text>
</g>
<!-- c25&#45;&gt;x2 -->
<g id="edge3" class="edge">
<title>c25:e&#45;&gt;x2:w</title>
<path fill="none" stroke="black" stroke-width="3" d="M1244.78,-328.8C1262.52,-328.93 1272.28,-329.32 1290.02,-329.45"/>
<polygon fill="none" stroke="black" stroke-width="3" points="1246.5,-328.8 1240.49,-332.78 1234.5,-328.76 1240.52,-324.78 1246.5,-328.8"/>
<polygon fill="none" stroke="black" stroke-width="3" points="1288.3,-329.45 1294.31,-325.47 1300.3,-329.49 1294.28,-333.47 1288.3,-329.45"/>
</g>
<!-- n3 -->
<g id="node38" class="node">
<title>n3</title>
<ellipse fill="black" stroke="black" cx="1512.7" cy="-317.5" rx="1.8" ry="1.8"/>
</g>
<!-- x2&#45;&gt;n3 -->
<g id="edge36" class="edge">
<title>x2:e&#45;&gt;n3:w</title>
<path fill="none" stroke="black" stroke-width="3" d="M1392.5,-317.25C1440.41,-317.25 1455.19,-317.46 1497.92,-317.5"/>
<polygon fill="black" stroke="black" stroke-width="3" points="1494.88,-320.99 1504.88,-317.5 1494.88,-313.99 1494.88,-320.99"/>
</g>
<!-- n4 -->
<g id="node39" class="node">
<title>n4</title>
<ellipse fill="black" stroke="black" cx="1941.41" cy="-329.5" rx="1.8" ry="1.8"/>
</g>
<!-- x2&#45;&gt;n4 -->
<g id="edge41" class="edge">
<title>x2:e&#45;&gt;n4:w</title>
<path fill="none" stroke="black" d="M1392.5,-341.75C1605.79,-341.75 1664.59,-413.61 1871.91,-363.5 1899.92,-356.73 1904.27,-335.95 1926.8,-330.71"/>
<polygon fill="black" stroke="black" points="1927.05,-334.2 1936.62,-329.66 1926.31,-327.24 1927.05,-334.2"/>
</g>
<!-- c26&#45;&gt;n12 -->
<g id="edge20" class="edge">
<title>c26:e&#45;&gt;n12:w</title>
<path fill="none" stroke="black" stroke-width="3" d="M505.59,-228.75C516.98,-228.75 522.27,-229.63 530.14,-230.15"/>
<polygon fill="black" stroke="black" stroke-width="3" points="526.95,-233.55 537.05,-230.36 527.17,-226.55 526.95,-233.55"/>
</g>
<!-- c27&#45;&gt;n13 -->
<g id="edge26" class="edge">
<title>c27:e&#45;&gt;n13:w</title>
<path fill="none" stroke="black" stroke-width="3" d="M779.84,-183.75C793.48,-183.75 799.08,-179.67 808.69,-177.63"/>
<polygon fill="black" stroke="black" stroke-width="3" points="805.97,-181.42 815.57,-176.95 805.28,-174.45 805.97,-181.42"/>
</g>
<!-- c28 -->
<g id="node22" class="node">
<title>c28</title>
<polygon fill="none" stroke="black" points="2010.91,-204 2010.91,-245 2151.91,-245 2151.91,-204 2010.91,-204"/>
<text text-anchor="middle" x="2023.78" y="-219.7" font-family="Times,serif" font-size="14.00">A</text>
<polyline fill="none" stroke="black" points="2036.66,-204 2036.66,-245"/>
<text text-anchor="middle" x="2081.41" y="-227.7" font-family="Times,serif" font-size="14.00">$13</text>
<text text-anchor="middle" x="2081.41" y="-211.2" font-family="Times,serif" font-size="14.00">$reduce_bool</text>
<polyline fill="none" stroke="black" points="2126.16,-204 2126.16,-245"/>
<text text-anchor="middle" x="2139.03" y="-219.7" font-family="Times,serif" font-size="14.00">Y</text>
</g>
<!-- c32 -->
<g id="node29" class="node">
<title>c32</title>
<polygon fill="none" stroke="black" points="2187.91,-231.75 2187.91,-305.25 2286.91,-305.25 2286.91,-231.75 2187.91,-231.75"/>
<text text-anchor="middle" x="2200.78" y="-287.95" font-family="Times,serif" font-size="14.00">A</text>
<polyline fill="none" stroke="black" points="2187.91,-280.75 2213.66,-280.75"/>
<text text-anchor="middle" x="2200.78" y="-263.45" font-family="Times,serif" font-size="14.00">B</text>
<polyline fill="none" stroke="black" points="2187.91,-256.25 2213.66,-256.25"/>
<text text-anchor="middle" x="2200.78" y="-238.95" font-family="Times,serif" font-size="14.00">S</text>
<polyline fill="none" stroke="black" points="2213.66,-231.75 2213.66,-305.25"/>
<text text-anchor="middle" x="2237.41" y="-271.7" font-family="Times,serif" font-size="14.00">$15</text>
<text text-anchor="middle" x="2237.41" y="-255.2" font-family="Times,serif" font-size="14.00">$mux</text>
<polyline fill="none" stroke="black" points="2261.16,-231.75 2261.16,-305.25"/>
<text text-anchor="middle" x="2274.03" y="-263.45" font-family="Times,serif" font-size="14.00">Y</text>
</g>
<!-- c28&#45;&gt;c32 -->
<g id="edge43" class="edge">
<title>c28:e&#45;&gt;c32:w</title>
<path fill="none" stroke="black" d="M2151.91,-224.75C2165.37,-224.75 2168.68,-235.35 2176.92,-240.82"/>
<polygon fill="black" stroke="black" points="2175.87,-244.16 2186.45,-243.58 2177.82,-237.44 2175.87,-244.16"/>
</g>
<!-- x3&#45;&gt;c28 -->
<g id="edge4" class="edge">
<title>x3:e&#45;&gt;c28:w</title>
<path fill="none" stroke="black" stroke-width="3" d="M1759.14,-223.51C1862.08,-223.59 1895.14,-224.66 1998,-224.74"/>
<polygon fill="none" stroke="black" stroke-width="3" points="1761.11,-223.51 1755.11,-227.5 1749.11,-223.5 1755.11,-219.5 1761.11,-223.51"/>
<polygon fill="none" stroke="black" stroke-width="3" points="1996.2,-224.74 2002.2,-220.75 2008.2,-224.75 2002.2,-228.75 1996.2,-224.74"/>
</g>
<!-- c29 -->
<g id="node24" class="node">
<title>c29</title>
<polygon fill="none" stroke="black" points="550.34,-396 550.34,-445 643.34,-445 643.34,-396 550.34,-396"/>
<text text-anchor="middle" x="563.22" y="-427.7" font-family="Times,serif" font-size="14.00">A</text>
<polyline fill="none" stroke="black" points="550.34,-420.5 576.09,-420.5"/>
<text text-anchor="middle" x="563.22" y="-403.2" font-family="Times,serif" font-size="14.00">B</text>
<polyline fill="none" stroke="black" points="576.09,-396 576.09,-445"/>
<text text-anchor="middle" x="596.84" y="-423.7" font-family="Times,serif" font-size="14.00">$6</text>
<text text-anchor="middle" x="596.84" y="-407.2" font-family="Times,serif" font-size="14.00">$sub</text>
<polyline fill="none" stroke="black" points="617.59,-396 617.59,-445"/>
<text text-anchor="middle" x="630.47" y="-415.7" font-family="Times,serif" font-size="14.00">Y</text>
</g>
<!-- c29&#45;&gt;c23 -->
<g id="edge44" class="edge">
<title>c29:e&#45;&gt;c23:w</title>
<path fill="none" stroke="black" stroke-width="3" d="M644.34,-420.75C659.38,-420.75 665.7,-420.75 676.78,-420.75"/>
<polygon fill="black" stroke="black" stroke-width="3" points="673.55,-424.25 683.55,-420.75 673.55,-417.25 673.55,-424.25"/>
</g>
<!-- x4&#45;&gt;c29 -->
<g id="edge5" class="edge">
<title>x4:e&#45;&gt;c29:w</title>
<path fill="none" stroke="black" stroke-width="3" d="M507.41,-400.27C520.24,-406.82 524.11,-423.26 536.86,-429.9"/>
<polygon fill="none" stroke="black" stroke-width="3" points="509.44,-400.72 502.71,-403.31 497.73,-398.09 504.46,-395.5 509.44,-400.72"/>
<polygon fill="none" stroke="black" stroke-width="3" points="535.01,-429.47 541.75,-426.91 546.71,-432.15 539.97,-434.71 535.01,-429.47"/>
</g>
<!-- x5&#45;&gt;c29 -->
<g id="edge6" class="edge">
<title>x5:e&#45;&gt;c29:w</title>
<path fill="none" stroke="black" d="M373.69,-415.24C390.51,-417.37 398.3,-423.49 420.09,-425.5 457.93,-429 468.26,-432.59 505.59,-425.5 520.99,-422.57 526.14,-414.33 536.58,-410.4"/>
<polygon fill="none" stroke="black" points="373.97,-415.26 367.75,-418.9 361.99,-414.55 368.22,-410.91 373.97,-415.26"/>
<polygon fill="none" stroke="black" points="536.62,-410.39 541.87,-405.45 548.45,-408.4 543.2,-413.34 536.62,-410.39"/>
</g>
<!-- x6 -->
<g id="node28" class="node">
<title>x6</title>
<path fill="none" stroke="black" d="M1315,-159C1315,-159 1380.5,-159 1380.5,-159 1386.5,-159 1392.5,-165 1392.5,-171 1392.5,-171 1392.5,-196 1392.5,-196 1392.5,-202 1386.5,-208 1380.5,-208 1380.5,-208 1315,-208 1315,-208 1309,-208 1303,-202 1303,-196 1303,-196 1303,-171 1303,-171 1303,-165 1309,-159 1315,-159"/>
<text text-anchor="middle" x="1347.75" y="-190.7" font-family="Times,serif" font-size="14.00">12:12 &#45; 30:30</text>
<polyline fill="none" stroke="black" points="1303,-183.5 1392.5,-183.5"/>
<text text-anchor="middle" x="1347.75" y="-166.2" font-family="Times,serif" font-size="14.00">11:0 &#45; 11:0</text>
</g>
<!-- c30&#45;&gt;x6 -->
<g id="edge7" class="edge">
<title>c30:e&#45;&gt;x6:w</title>
<path fill="none" stroke="black" stroke-width="3" d="M1243.24,-184.68C1261.62,-184.45 1271.6,-183.8 1289.95,-183.58"/>
<polygon fill="none" stroke="black" stroke-width="3" points="1245,-184.67 1239.02,-188.7 1233,-184.73 1238.98,-180.7 1245,-184.67"/>
<polygon fill="none" stroke="black" stroke-width="3" points="1288.3,-183.59 1294.27,-179.55 1300.3,-183.52 1294.32,-187.55 1288.3,-183.59"/>
</g>
<!-- x6&#45;&gt;n8 -->
<g id="edge49" class="edge">
<title>x6:e&#45;&gt;n8:w</title>
<path fill="none" stroke="black" stroke-width="3" d="M1392.5,-171.25C1403.87,-171.25 1409.18,-171.38 1417.05,-171.45"/>
<polygon fill="black" stroke="black" stroke-width="3" points="1413.94,-174.94 1423.96,-171.48 1413.97,-167.94 1413.94,-174.94"/>
</g>
<!-- x6&#45;&gt;n8 -->
<g id="edge50" class="edge">
<title>x6:e&#45;&gt;n8:w</title>
<path fill="none" stroke="black" d="M1392.5,-195.75C1407.12,-195.75 1409.18,-181.82 1417.71,-175.08"/>
<polygon fill="black" stroke="black" points="1418.67,-178.45 1427.06,-171.98 1416.47,-171.8 1418.67,-178.45"/>
</g>
<!-- c32&#45;&gt;n15 -->
<g id="edge33" class="edge">
<title>c32:e&#45;&gt;n15:w</title>
<path fill="none" stroke="black" stroke-width="3" d="M2286.91,-268.5C2314.7,-268.5 2297.6,-222.09 2312.06,-208.31"/>
<polygon fill="black" stroke="black" stroke-width="3" points="2310.35,-212.62 2318.62,-206.01 2308.03,-206.02 2310.35,-212.62"/>
</g>
<!-- x7&#45;&gt;c32 -->
<g id="edge8" class="edge">
<title>x7:e&#45;&gt;c32:w</title>
<path fill="none" stroke="black" stroke-width="3" d="M1987.72,-409.2C2064.3,-405.46 2081.93,-367.52 2151.91,-322.5 2164.68,-314.28 2166.95,-302.22 2175.45,-296.4"/>
<polygon fill="none" stroke="black" stroke-width="3" points="1989.61,-409.15 1983.7,-413.29 1977.61,-409.44 1983.51,-405.3 1989.61,-409.15"/>
<polygon fill="none" stroke="black" stroke-width="3" points="2173.72,-296.87 2178.45,-291.43 2185.3,-293.71 2180.56,-299.15 2173.72,-296.87"/>
</g>
<!-- x8 -->
<g id="node31" class="node">
<title>x8</title>
<path fill="none" stroke="black" d="M2048.66,-264C2048.66,-264 2114.16,-264 2114.16,-264 2120.16,-264 2126.16,-270 2126.16,-276 2126.16,-276 2126.16,-301 2126.16,-301 2126.16,-307 2120.16,-313 2114.16,-313 2114.16,-313 2048.66,-313 2048.66,-313 2042.66,-313 2036.66,-307 2036.66,-301 2036.66,-301 2036.66,-276 2036.66,-276 2036.66,-270 2042.66,-264 2048.66,-264"/>
<text text-anchor="middle" x="2081.41" y="-295.7" font-family="Times,serif" font-size="14.00">12:12 &#45; 12:12</text>
<polyline fill="none" stroke="black" points="2036.66,-288.5 2126.16,-288.5"/>
<text text-anchor="middle" x="2081.41" y="-271.2" font-family="Times,serif" font-size="14.00">11:0 &#45; 11:0</text>
</g>
<!-- x8&#45;&gt;c32 -->
<g id="edge9" class="edge">
<title>x8:e&#45;&gt;c32:w</title>
<path fill="none" stroke="black" stroke-width="3" d="M2139.89,-286.93C2153.9,-283.21 2161.04,-273.89 2174.99,-270.12"/>
<polygon fill="none" stroke="black" stroke-width="3" points="2141.75,-286.7 2136.28,-291.41 2129.84,-288.17 2135.3,-283.47 2141.75,-286.7"/>
<polygon fill="none" stroke="black" stroke-width="3" points="2173.31,-270.33 2178.77,-265.61 2185.22,-268.84 2179.77,-273.55 2173.31,-270.33"/>
</g>
<!-- x9 -->
<g id="node32" class="node">
<title>x9</title>
<path fill="none" stroke="black" d="M1663.66,-305C1663.66,-305 1715.66,-305 1715.66,-305 1721.66,-305 1727.66,-311 1727.66,-317 1727.66,-317 1727.66,-342 1727.66,-342 1727.66,-348 1721.66,-354 1715.66,-354 1715.66,-354 1663.66,-354 1663.66,-354 1657.66,-354 1651.66,-348 1651.66,-342 1651.66,-342 1651.66,-317 1651.66,-317 1651.66,-311 1657.66,-305 1663.66,-305"/>
<text text-anchor="middle" x="1689.66" y="-336.7" font-family="Times,serif" font-size="14.00">0 &#45;&gt; 22:12</text>
<polyline fill="none" stroke="black" points="1651.66,-329.5 1727.66,-329.5"/>
<text text-anchor="middle" x="1689.66" y="-312.2" font-family="Times,serif" font-size="14.00">11:0 &#45; 11:0</text>
</g>
<!-- x10 -->
<g id="node33" class="node">
<title>x10</title>
<path fill="none" stroke="black" d="M1794.41,-305C1794.41,-305 1859.91,-305 1859.91,-305 1865.91,-305 1871.91,-311 1871.91,-317 1871.91,-317 1871.91,-342 1871.91,-342 1871.91,-348 1865.91,-354 1859.91,-354 1859.91,-354 1794.41,-354 1794.41,-354 1788.41,-354 1782.41,-348 1782.41,-342 1782.41,-342 1782.41,-317 1782.41,-317 1782.41,-311 1788.41,-305 1794.41,-305"/>
<text text-anchor="middle" x="1827.16" y="-336.7" font-family="Times,serif" font-size="14.00">22:12 &#45; 23:13</text>
<polyline fill="none" stroke="black" points="1782.41,-329.5 1871.91,-329.5"/>
<text text-anchor="middle" x="1827.16" y="-312.2" font-family="Times,serif" font-size="14.00">11:0 &#45; 11:0</text>
</g>
<!-- x9&#45;&gt;x10 -->
<g id="edge10" class="edge">
<title>x9:e&#45;&gt;x10:w</title>
<path fill="none" stroke="black" stroke-width="3" d="M1741.29,-329.5C1751.99,-329.5 1758.97,-329.5 1769.64,-329.5"/>
<polygon fill="none" stroke="black" stroke-width="3" points="1743.36,-329.5 1737.36,-333.5 1731.36,-329.5 1737.36,-325.5 1743.36,-329.5"/>
<polygon fill="none" stroke="black" stroke-width="3" points="1767.7,-329.5 1773.7,-325.5 1779.7,-329.5 1773.7,-333.5 1767.7,-329.5"/>
</g>
<!-- x10&#45;&gt;n4 -->
<g id="edge39" class="edge">
<title>x10:e&#45;&gt;n4:w</title>
<path fill="none" stroke="black" stroke-width="3" d="M1871.91,-317.25C1897.63,-317.25 1905.94,-326.3 1926.77,-328.84"/>
<polygon fill="black" stroke="black" stroke-width="3" points="1923.41,-332.15 1933.59,-329.24 1923.81,-325.16 1923.41,-332.15"/>
</g>
<!-- x10&#45;&gt;n4 -->
<g id="edge40" class="edge">
<title>x10:e&#45;&gt;n4:w</title>
<path fill="none" stroke="black" stroke-width="3" d="M1871.91,-341.75C1897.63,-341.75 1905.94,-332.7 1926.77,-330.16"/>
<polygon fill="black" stroke="black" stroke-width="3" points="1923.81,-333.84 1933.59,-329.76 1923.41,-326.85 1923.81,-333.84"/>
</g>
<!-- x12 -->
<g id="node35" class="node">
<title>x12</title>
<path fill="none" stroke="black" d="M1794.41,-93C1794.41,-93 1859.91,-93 1859.91,-93 1865.91,-93 1871.91,-99 1871.91,-105 1871.91,-105 1871.91,-130 1871.91,-130 1871.91,-136 1865.91,-142 1859.91,-142 1859.91,-142 1794.41,-142 1794.41,-142 1788.41,-142 1782.41,-136 1782.41,-130 1782.41,-130 1782.41,-105 1782.41,-105 1782.41,-99 1788.41,-93 1794.41,-93"/>
<text text-anchor="middle" x="1827.16" y="-124.7" font-family="Times,serif" font-size="14.00">19:18 &#45; 32:31</text>
<polyline fill="none" stroke="black" points="1782.41,-117.5 1871.91,-117.5"/>
<text text-anchor="middle" x="1827.16" y="-100.2" font-family="Times,serif" font-size="14.00">17:0 &#45; 29:12</text>
</g>
<!-- x11&#45;&gt;x12 -->
<g id="edge11" class="edge">
<title>x11:e&#45;&gt;x12:w</title>
<path fill="none" stroke="black" stroke-width="3" d="M1757.05,-117.5C1761.4,-117.5 1765.07,-117.5 1769.42,-117.5"/>
<polygon fill="none" stroke="black" stroke-width="3" points="1758.73,-117.5 1752.73,-121.5 1746.73,-117.5 1752.73,-113.5 1758.73,-117.5"/>
<polygon fill="none" stroke="black" stroke-width="3" points="1767.7,-117.5 1773.7,-113.5 1779.7,-117.5 1773.7,-121.5 1767.7,-117.5"/>
</g>
<!-- x12&#45;&gt;n8 -->
<g id="edge47" class="edge">
<title>x12:e&#45;&gt;n8:w</title>
<path fill="none" stroke="black" stroke-width="3" d="M1872.91,-105.25C1878.59,-105.25 1875.94,-96.51 1871.91,-92.5 1832.23,-53.09 1802.29,-85.5 1746.41,-83.5 1695.99,-81.69 1673.91,-54.12 1632.91,-83.5 1592.46,-112.48 1637.35,-160.52 1596.91,-189.5 1535.31,-233.63 1481.45,-241.58 1426.4,-189.5 1424.4,-187.61 1422.71,-184.89 1421.68,-182.14"/>
<polygon fill="black" stroke="black" stroke-width="3" points="1423.9,-186.38 1423.9,-175.79 1417.3,-184.07 1423.9,-186.38"/>
</g>
<!-- x12&#45;&gt;n8 -->
<g id="edge48" class="edge">
<title>x12:e&#45;&gt;n8:w</title>
<path fill="none" stroke="black" stroke-width="3" d="M1872.91,-129.75C1878.59,-129.75 1875.74,-138.3 1871.91,-142.5 1830.11,-188.29 1658.68,-184.26 1596.91,-189.5 1521.4,-195.91 1481.45,-241.58 1426.4,-189.5 1424.4,-187.61 1422.71,-184.89 1421.68,-182.14"/>
<polygon fill="black" stroke="black" stroke-width="3" points="1423.9,-186.38 1423.9,-175.79 1417.3,-184.07 1423.9,-186.38"/>
</g>
<!-- v13 -->
<g id="node36" class="node">
<title>v13</title>
<ellipse fill="none" stroke="black" cx="2649.45" cy="-110.5" rx="81.55" ry="18"/>
<text text-anchor="middle" x="2649.45" y="-105.45" font-family="Times,serif" font-size="14.00">13&#39;0000000000000</text>
</g>
<!-- x14 -->
<g id="node37" class="node">
<title>x14</title>
<path fill="none" stroke="black" d="M2779,-90.5C2779,-90.5 2831,-90.5 2831,-90.5 2837,-90.5 2843,-96.5 2843,-102.5 2843,-102.5 2843,-114.5 2843,-114.5 2843,-120.5 2837,-126.5 2831,-126.5 2831,-126.5 2779,-126.5 2779,-126.5 2773,-126.5 2767,-120.5 2767,-114.5 2767,-114.5 2767,-102.5 2767,-102.5 2767,-96.5 2773,-90.5 2779,-90.5"/>
<text text-anchor="middle" x="2805" y="-103.7" font-family="Times,serif" font-size="14.00">12:0 &#45; 18:6</text>
</g>
<!-- v13&#45;&gt;x14 -->
<g id="edge58" class="edge">
<title>v13:e&#45;&gt;x14:w</title>
<path fill="none" stroke="black" stroke-width="3" d="M2731,-110.5C2742.39,-110.5 2747.68,-109.49 2755.55,-108.9"/>
<polygon fill="black" stroke="black" stroke-width="3" points="2752.59,-112.51 2762.46,-108.66 2752.35,-105.52 2752.59,-112.51"/>
</g>
<!-- x14&#45;&gt;n10 -->
<g id="edge13" class="edge">
<title>x14:e&#45;&gt;n10:w</title>
<path fill="none" stroke="black" stroke-width="3" d="M2843,-108.75C2858.95,-108.75 2859.43,-91.25 2868.37,-83.32"/>
<polygon fill="black" stroke="black" stroke-width="3" points="2866.5,-87.71 2874.73,-81.04 2864.14,-81.13 2866.5,-87.71"/>
</g>
<!-- n3&#45;&gt;x8 -->
<g id="edge37" class="edge">
<title>n3:e&#45;&gt;x8:w</title>
<path fill="none" stroke="black" stroke-width="3" d="M1515.98,-317.5C1568.86,-317.5 1580.39,-301.67 1632.91,-295.5 1807.06,-275.05 1854.43,-276.19 2024.29,-276.25"/>
<polygon fill="black" stroke="black" stroke-width="3" points="2021.11,-279.75 2031.11,-276.25 2021.12,-272.75 2021.11,-279.75"/>
</g>
<!-- n3&#45;&gt;x9 -->
<g id="edge38" class="edge">
<title>n3:e&#45;&gt;x9:w</title>
<path fill="none" stroke="black" stroke-width="3" d="M1515.98,-317.5C1571.86,-317.5 1588.61,-317.28 1639.3,-317.25"/>
<polygon fill="black" stroke="black" stroke-width="3" points="1636.12,-320.75 1646.11,-317.25 1636.11,-313.75 1636.12,-320.75"/>
</g>
<!-- n4&#45;&gt;x8 -->
<g id="edge42" class="edge">
<title>n4:e&#45;&gt;x8:w</title>
<path fill="none" stroke="black" d="M1944.68,-329.5C1982.95,-329.5 1991.7,-306.09 2024.2,-301.52"/>
<polygon fill="black" stroke="black" points="2024.4,-305.01 2034.14,-300.85 2023.93,-298.03 2024.4,-305.01"/>
</g>
</g>
</svg>
