<?xml version="1.0" encoding="UTF-8" standalone="no"?>
<!DOCTYPE svg PUBLIC "-//W3C//DTD SVG 1.1//EN"
 "http://www.w3.org/Graphics/SVG/1.1/DTD/svg11.dtd">
<!-- Generated by graphviz version 12.2.1 (20241206.2353)
 -->
<!-- Title: top Pages: 1 -->
<svg width="3488pt" height="712pt"
 viewBox="0.00 0.00 3488.00 712.00" xmlns="http://www.w3.org/2000/svg" xmlns:xlink="http://www.w3.org/1999/xlink">
<g id="graph0" class="graph" transform="scale(1 1) rotate(0) translate(4 708)">
<title>top</title>
<polygon fill="white" stroke="none" points="-4,4 -4,-708 3484,-708 3484,4 -4,4"/>
<text text-anchor="middle" x="1740" y="-7.2" font-family="Times,serif" font-size="14.00">top</text>
<!-- n13 -->
<g id="node1" class="node">
<title>n13</title>
<polygon fill="none" stroke="black" points="107.84,-187.54 107.84,-202.46 76.26,-213 31.59,-213 0,-202.46 0,-187.54 31.59,-177 76.26,-177 107.84,-187.54"/>
<text text-anchor="middle" x="53.92" y="-189.95" font-family="Times,serif" font-size="14.00">input_data</text>
</g>
<!-- x1 -->
<g id="node11" class="node">
<title>x1</title>
<path fill="none" stroke="black" d="M309.59,-119C309.59,-119 348.09,-119 348.09,-119 354.09,-119 360.09,-125 360.09,-131 360.09,-131 360.09,-143 360.09,-143 360.09,-149 354.09,-155 348.09,-155 348.09,-155 309.59,-155 309.59,-155 303.59,-155 297.59,-149 297.59,-143 297.59,-143 297.59,-131 297.59,-131 297.59,-125 303.59,-119 309.59,-119"/>
<text text-anchor="middle" x="328.84" y="-132.2" font-family="Times,serif" font-size="14.00">4:2 &#45; 2:0</text>
</g>
<!-- n13&#45;&gt;x1 -->
<g id="edge42" class="edge">
<title>n13:e&#45;&gt;x1:w</title>
<path fill="none" stroke="black" stroke-width="3" d="M107.84,-195C127.84,-195 125.59,-176.17 143.84,-168 203.46,-141.3 224.9,-137.61 285.28,-137.28"/>
<polygon fill="black" stroke="black" stroke-width="3" points="282.06,-140.79 292.05,-137.26 282.04,-133.79 282.06,-140.79"/>
</g>
<!-- c25 -->
<g id="node13" class="node">
<title>c25</title>
<polygon fill="none" stroke="black" points="143.84,-272.5 143.84,-321.5 237.59,-321.5 237.59,-272.5 143.84,-272.5"/>
<text text-anchor="middle" x="156.72" y="-304.2" font-family="Times,serif" font-size="14.00">A</text>
<polyline fill="none" stroke="black" points="143.84,-297 169.59,-297"/>
<text text-anchor="middle" x="156.72" y="-279.7" font-family="Times,serif" font-size="14.00">B</text>
<polyline fill="none" stroke="black" points="169.59,-272.5 169.59,-321.5"/>
<text text-anchor="middle" x="190.72" y="-300.2" font-family="Times,serif" font-size="14.00">$3</text>
<text text-anchor="middle" x="190.72" y="-283.7" font-family="Times,serif" font-size="14.00">$and</text>
<polyline fill="none" stroke="black" points="211.84,-272.5 211.84,-321.5"/>
<text text-anchor="middle" x="224.72" y="-292.2" font-family="Times,serif" font-size="14.00">Y</text>
</g>
<!-- n13&#45;&gt;c25 -->
<g id="edge38" class="edge">
<title>n13:e&#45;&gt;c25:w</title>
<path fill="none" stroke="black" stroke-width="3" d="M107.84,-195C156.5,-195 101.8,-290.46 132.7,-306.86"/>
<polygon fill="black" stroke="black" stroke-width="3" points="128.89,-309.63 139.4,-308.3 130.36,-302.78 128.89,-309.63"/>
</g>
<!-- n13&#45;&gt;c25 -->
<g id="edge39" class="edge">
<title>n13:e&#45;&gt;c25:w</title>
<path fill="none" stroke="black" stroke-width="3" d="M107.84,-195C146.12,-195 110.68,-266.19 132.83,-281.76"/>
<polygon fill="black" stroke="black" stroke-width="3" points="128.89,-284.32 139.46,-283.56 130.72,-277.57 128.89,-284.32"/>
</g>
<!-- c26 -->
<g id="node14" class="node">
<title>c26</title>
<polygon fill="none" stroke="black" points="420.09,-232.5 420.09,-281.5 513.84,-281.5 513.84,-232.5 420.09,-232.5"/>
<text text-anchor="middle" x="432.97" y="-264.2" font-family="Times,serif" font-size="14.00">A</text>
<polyline fill="none" stroke="black" points="420.09,-257 445.84,-257"/>
<text text-anchor="middle" x="432.97" y="-239.7" font-family="Times,serif" font-size="14.00">B</text>
<polyline fill="none" stroke="black" points="445.84,-232.5 445.84,-281.5"/>
<text text-anchor="middle" x="466.97" y="-260.2" font-family="Times,serif" font-size="14.00">$4</text>
<text text-anchor="middle" x="466.97" y="-243.7" font-family="Times,serif" font-size="14.00">$and</text>
<polyline fill="none" stroke="black" points="488.09,-232.5 488.09,-281.5"/>
<text text-anchor="middle" x="500.97" y="-252.2" font-family="Times,serif" font-size="14.00">Y</text>
</g>
<!-- n13&#45;&gt;c26 -->
<g id="edge40" class="edge">
<title>n13:e&#45;&gt;c26:w</title>
<path fill="none" stroke="black" stroke-width="3" d="M107.84,-195C128.11,-195 124.94,-215.67 143.84,-223 255.08,-266.12 294.47,-246.11 408.79,-244.81"/>
<polygon fill="black" stroke="black" stroke-width="3" points="405.57,-248.33 415.55,-244.78 405.53,-241.33 405.57,-248.33"/>
</g>
<!-- x4 -->
<g id="node18" class="node">
<title>x4</title>
<path fill="none" stroke="black" d="M447.72,-72C447.72,-72 486.22,-72 486.22,-72 492.22,-72 498.22,-78 498.22,-84 498.22,-84 498.22,-96 498.22,-96 498.22,-102 492.22,-108 486.22,-108 486.22,-108 447.72,-108 447.72,-108 441.72,-108 435.72,-102 435.72,-96 435.72,-96 435.72,-84 435.72,-84 435.72,-78 441.72,-72 447.72,-72"/>
<text text-anchor="middle" x="466.97" y="-85.2" font-family="Times,serif" font-size="14.00">2:0 &#45; 2:0</text>
</g>
<!-- n13&#45;&gt;x4 -->
<g id="edge44" class="edge">
<title>n13:e&#45;&gt;x4:w</title>
<path fill="none" stroke="black" stroke-width="3" d="M107.84,-195C138.94,-195 118.36,-152.82 143.84,-135 247.88,-62.23 300.77,-88.57 423.42,-90.18"/>
<polygon fill="black" stroke="black" stroke-width="3" points="420.15,-93.65 430.18,-90.22 420.2,-86.65 420.15,-93.65"/>
</g>
<!-- x17 -->
<g id="node40" class="node">
<title>x17</title>
<path fill="none" stroke="black" d="M171.47,-177C171.47,-177 209.97,-177 209.97,-177 215.97,-177 221.97,-183 221.97,-189 221.97,-189 221.97,-201 221.97,-201 221.97,-207 215.97,-213 209.97,-213 209.97,-213 171.47,-213 171.47,-213 165.47,-213 159.47,-207 159.47,-201 159.47,-201 159.47,-189 159.47,-189 159.47,-183 165.47,-177 171.47,-177"/>
<text text-anchor="middle" x="190.72" y="-190.2" font-family="Times,serif" font-size="14.00">2:0 &#45; 2:0</text>
</g>
<!-- n13&#45;&gt;x17 -->
<g id="edge41" class="edge">
<title>n13:e&#45;&gt;x17:w</title>
<path fill="none" stroke="black" stroke-width="3" d="M107.84,-195C125.95,-195 133.12,-195.16 146.96,-195.23"/>
<polygon fill="black" stroke="black" stroke-width="3" points="143.92,-198.72 153.93,-195.24 143.93,-191.72 143.92,-198.72"/>
</g>
<!-- x21 -->
<g id="node46" class="node">
<title>x21</title>
<path fill="none" stroke="black" d="M715.59,-25C715.59,-25 754.09,-25 754.09,-25 760.09,-25 766.09,-31 766.09,-37 766.09,-37 766.09,-49 766.09,-49 766.09,-55 760.09,-61 754.09,-61 754.09,-61 715.59,-61 715.59,-61 709.59,-61 703.59,-55 703.59,-49 703.59,-49 703.59,-37 703.59,-37 703.59,-31 709.59,-25 715.59,-25"/>
<text text-anchor="middle" x="734.84" y="-38.2" font-family="Times,serif" font-size="14.00">2:0 &#45; 2:0</text>
</g>
<!-- n13&#45;&gt;x21 -->
<g id="edge43" class="edge">
<title>n13:e&#45;&gt;x21:w</title>
<path fill="none" stroke="black" stroke-width="3" d="M107.84,-195C158.86,-195 106.19,-120.43 143.84,-86 205.82,-29.33 243.86,-43 327.84,-43 327.84,-43 327.84,-43 467.97,-43 568.38,-43 596.27,-43.23 691.3,-43.25"/>
<polygon fill="black" stroke="black" stroke-width="3" points="688.05,-46.75 698.05,-43.25 688.05,-39.75 688.05,-46.75"/>
</g>
<!-- n14 -->
<g id="node2" class="node">
<title>n14</title>
<polygon fill="none" stroke="black" points="3480,-459.54 3480,-474.46 3445.49,-485 3396.69,-485 3362.19,-474.46 3362.19,-459.54 3396.69,-449 3445.49,-449 3480,-459.54"/>
<text text-anchor="middle" x="3421.09" y="-461.95" font-family="Times,serif" font-size="14.00">output_data</text>
</g>
<!-- n15 -->
<g id="node3" class="node">
<title>n15</title>
<polygon fill="none" stroke="black" points="328.84,-321 273.59,-303 328.84,-285 384.09,-303 328.84,-321"/>
<text text-anchor="middle" x="328.84" y="-297.95" font-family="Times,serif" font-size="14.00">temp_0</text>
</g>
<!-- n15&#45;&gt;c26 -->
<g id="edge47" class="edge">
<title>n15:e&#45;&gt;c26:w</title>
<path fill="none" stroke="black" stroke-width="3" d="M384.09,-303C401.23,-303 400.17,-282.4 409.35,-273.39"/>
<polygon fill="black" stroke="black" stroke-width="3" points="407.78,-277.74 415.85,-270.88 405.27,-271.21 407.78,-277.74"/>
</g>
<!-- c27 -->
<g id="node15" class="node">
<title>c27</title>
<polygon fill="none" stroke="black" points="549.84,-293.5 549.84,-342.5 643.59,-342.5 643.59,-293.5 549.84,-293.5"/>
<text text-anchor="middle" x="562.72" y="-325.2" font-family="Times,serif" font-size="14.00">A</text>
<polyline fill="none" stroke="black" points="549.84,-318 575.59,-318"/>
<text text-anchor="middle" x="562.72" y="-300.7" font-family="Times,serif" font-size="14.00">B</text>
<polyline fill="none" stroke="black" points="575.59,-293.5 575.59,-342.5"/>
<text text-anchor="middle" x="596.72" y="-321.2" font-family="Times,serif" font-size="14.00">$5</text>
<text text-anchor="middle" x="596.72" y="-304.7" font-family="Times,serif" font-size="14.00">$and</text>
<polyline fill="none" stroke="black" points="617.84,-293.5 617.84,-342.5"/>
<text text-anchor="middle" x="630.72" y="-313.2" font-family="Times,serif" font-size="14.00">Y</text>
</g>
<!-- n15&#45;&gt;c27 -->
<g id="edge48" class="edge">
<title>n15:e&#45;&gt;c27:w</title>
<path fill="none" stroke="black" stroke-width="3" d="M384.09,-303C453.88,-303 474.07,-305.47 538.63,-305.73"/>
<polygon fill="black" stroke="black" stroke-width="3" points="535.29,-309.22 545.3,-305.74 535.31,-302.22 535.29,-309.22"/>
</g>
<!-- c34 -->
<g id="node32" class="node">
<title>c34</title>
<polygon fill="none" stroke="black" points="826.09,-434.5 826.09,-483.5 922.09,-483.5 922.09,-434.5 826.09,-434.5"/>
<text text-anchor="middle" x="838.97" y="-466.2" font-family="Times,serif" font-size="14.00">A</text>
<polyline fill="none" stroke="black" points="826.09,-459 851.84,-459"/>
<text text-anchor="middle" x="838.97" y="-441.7" font-family="Times,serif" font-size="14.00">B</text>
<polyline fill="none" stroke="black" points="851.84,-434.5 851.84,-483.5"/>
<text text-anchor="middle" x="874.09" y="-462.2" font-family="Times,serif" font-size="14.00">$6</text>
<text text-anchor="middle" x="874.09" y="-445.7" font-family="Times,serif" font-size="14.00">$mul</text>
<polyline fill="none" stroke="black" points="896.34,-434.5 896.34,-483.5"/>
<text text-anchor="middle" x="909.22" y="-454.2" font-family="Times,serif" font-size="14.00">Y</text>
</g>
<!-- n15&#45;&gt;c34 -->
<g id="edge49" class="edge">
<title>n15:e&#45;&gt;c34:w</title>
<path fill="none" stroke="black" stroke-width="3" d="M384.09,-303C401.43,-303 403.98,-311.61 420.09,-318 595.77,-387.73 631.81,-467.97 814.7,-471.15"/>
<polygon fill="black" stroke="black" stroke-width="3" points="811.52,-474.62 821.55,-471.21 811.58,-467.63 811.52,-474.62"/>
</g>
<!-- n16 -->
<g id="node4" class="node">
<title>n16</title>
<polygon fill="none" stroke="black" points="2144.05,-649 2088.8,-631 2144.05,-613 2199.3,-631 2144.05,-649"/>
<text text-anchor="middle" x="2144.05" y="-625.95" font-family="Times,serif" font-size="14.00">temp_2</text>
</g>
<!-- x24 -->
<g id="node50" class="node">
<title>x24</title>
<path fill="none" stroke="black" d="M2289.62,-613C2289.62,-613 2334.87,-613 2334.87,-613 2340.87,-613 2346.87,-619 2346.87,-625 2346.87,-625 2346.87,-637 2346.87,-637 2346.87,-643 2340.87,-649 2334.87,-649 2334.87,-649 2289.62,-649 2289.62,-649 2283.62,-649 2277.62,-643 2277.62,-637 2277.62,-637 2277.62,-625 2277.62,-625 2277.62,-619 2283.62,-613 2289.62,-613"/>
<text text-anchor="middle" x="2312.24" y="-626.2" font-family="Times,serif" font-size="14.00">12:4 &#45; 8:0</text>
</g>
<!-- n16&#45;&gt;x24 -->
<g id="edge51" class="edge">
<title>n16:e&#45;&gt;x24:w</title>
<path fill="none" stroke="black" stroke-width="3" d="M2199.3,-631C2229.5,-631 2239.8,-631.19 2265.18,-631.24"/>
<polygon fill="black" stroke="black" stroke-width="3" points="2262.08,-634.74 2272.08,-631.25 2262.08,-627.74 2262.08,-634.74"/>
</g>
<!-- n17 -->
<g id="node5" class="node">
<title>n17</title>
<polygon fill="none" stroke="black" points="2609.44,-425 2554.19,-407 2609.44,-389 2664.69,-407 2609.44,-425"/>
<text text-anchor="middle" x="2609.44" y="-401.95" font-family="Times,serif" font-size="14.00">temp_3</text>
</g>
<!-- c32 -->
<g id="node29" class="node">
<title>c32</title>
<polygon fill="none" stroke="black" points="2959.19,-444.5 2959.19,-493.5 3051.44,-493.5 3051.44,-444.5 2959.19,-444.5"/>
<text text-anchor="middle" x="2972.06" y="-476.2" font-family="Times,serif" font-size="14.00">A</text>
<polyline fill="none" stroke="black" points="2959.19,-469 2984.94,-469"/>
<text text-anchor="middle" x="2972.06" y="-451.7" font-family="Times,serif" font-size="14.00">B</text>
<polyline fill="none" stroke="black" points="2984.94,-444.5 2984.94,-493.5"/>
<text text-anchor="middle" x="3005.31" y="-472.2" font-family="Times,serif" font-size="14.00">$93</text>
<text text-anchor="middle" x="3005.31" y="-455.7" font-family="Times,serif" font-size="14.00">$xor</text>
<polyline fill="none" stroke="black" points="3025.69,-444.5 3025.69,-493.5"/>
<text text-anchor="middle" x="3038.56" y="-464.2" font-family="Times,serif" font-size="14.00">Y</text>
</g>
<!-- n17&#45;&gt;c32 -->
<g id="edge53" class="edge">
<title>n17:e&#45;&gt;c32:w</title>
<path fill="none" stroke="black" stroke-width="3" d="M2664.69,-407C2727.56,-407 2876.02,-451.64 2947.92,-456.35"/>
<polygon fill="black" stroke="black" stroke-width="3" points="2944.53,-459.73 2954.65,-456.59 2944.78,-452.74 2944.53,-459.73"/>
</g>
<!-- n18 -->
<g id="node6" class="node">
<title>n18</title>
<polygon fill="none" stroke="black" points="734.84,-336 679.59,-318 734.84,-300 790.09,-318 734.84,-336"/>
<text text-anchor="middle" x="734.84" y="-312.95" font-family="Times,serif" font-size="14.00">temp_4</text>
</g>
<!-- x2 -->
<g id="node12" class="node">
<title>x2</title>
<path fill="none" stroke="black" d="M854.84,-204C854.84,-204 893.34,-204 893.34,-204 899.34,-204 905.34,-210 905.34,-216 905.34,-216 905.34,-228 905.34,-228 905.34,-234 899.34,-240 893.34,-240 893.34,-240 854.84,-240 854.84,-240 848.84,-240 842.84,-234 842.84,-228 842.84,-228 842.84,-216 842.84,-216 842.84,-210 848.84,-204 854.84,-204"/>
<text text-anchor="middle" x="874.09" y="-217.2" font-family="Times,serif" font-size="14.00">2:0 &#45; 2:0</text>
</g>
<!-- n18&#45;&gt;x2 -->
<g id="edge60" class="edge">
<title>n18:e&#45;&gt;x2:w</title>
<path fill="none" stroke="black" stroke-width="3" d="M790.09,-318C834.12,-318 800.8,-238.68 830.93,-224.43"/>
<polygon fill="black" stroke="black" stroke-width="3" points="828.27,-228.53 837.39,-223.14 826.9,-221.67 828.27,-228.53"/>
</g>
<!-- x10 -->
<g id="node27" class="node">
<title>x10</title>
<path fill="none" stroke="black" d="M854.84,-379C854.84,-379 893.34,-379 893.34,-379 899.34,-379 905.34,-385 905.34,-391 905.34,-391 905.34,-403 905.34,-403 905.34,-409 899.34,-415 893.34,-415 893.34,-415 854.84,-415 854.84,-415 848.84,-415 842.84,-409 842.84,-403 842.84,-403 842.84,-391 842.84,-391 842.84,-385 848.84,-379 854.84,-379"/>
<text text-anchor="middle" x="874.09" y="-392.2" font-family="Times,serif" font-size="14.00">1:0 &#45; 1:0</text>
</g>
<!-- n18&#45;&gt;x10 -->
<g id="edge58" class="edge">
<title>n18:e&#45;&gt;x10:w</title>
<path fill="none" stroke="black" stroke-width="3" d="M790.09,-318C827.72,-318 805.78,-381.41 830.84,-394.79"/>
<polygon fill="black" stroke="black" stroke-width="3" points="826.89,-397.49 837.41,-396.26 828.42,-390.66 826.89,-397.49"/>
</g>
<!-- c33 -->
<g id="node31" class="node">
<title>c33</title>
<polygon fill="none" stroke="black" points="1364.55,-284.5 1364.55,-325.5 1456.05,-325.5 1456.05,-284.5 1364.55,-284.5"/>
<text text-anchor="middle" x="1377.43" y="-300.2" font-family="Times,serif" font-size="14.00">A</text>
<polyline fill="none" stroke="black" points="1390.3,-284.5 1390.3,-325.5"/>
<text text-anchor="middle" x="1410.3" y="-308.2" font-family="Times,serif" font-size="14.00">$96</text>
<text text-anchor="middle" x="1410.3" y="-291.7" font-family="Times,serif" font-size="14.00">$not</text>
<polyline fill="none" stroke="black" points="1430.3,-284.5 1430.3,-325.5"/>
<text text-anchor="middle" x="1443.18" y="-300.2" font-family="Times,serif" font-size="14.00">Y</text>
</g>
<!-- n18&#45;&gt;c33 -->
<g id="edge55" class="edge">
<title>n18:e&#45;&gt;c33:w</title>
<path fill="none" stroke="black" stroke-width="3" d="M790.09,-318C885.2,-318 908.86,-311 1003.97,-311 1003.97,-311 1003.97,-311 1156.57,-311 1245.16,-311 1270.02,-305.72 1353.26,-305.28"/>
<polygon fill="black" stroke="black" stroke-width="3" points="1350.02,-308.79 1360.01,-305.26 1350,-301.79 1350.02,-308.79"/>
</g>
<!-- n18&#45;&gt;c34 -->
<g id="edge56" class="edge">
<title>n18:e&#45;&gt;c34:w</title>
<path fill="none" stroke="black" stroke-width="3" d="M790.09,-318C845.1,-318 778.19,-428.35 815.1,-444.73"/>
<polygon fill="black" stroke="black" stroke-width="3" points="811.16,-447.56 821.63,-445.93 812.43,-440.68 811.16,-447.56"/>
</g>
<!-- c35 -->
<g id="node33" class="node">
<title>c35</title>
<polygon fill="none" stroke="black" points="1595.05,-393.5 1595.05,-442.5 1691.05,-442.5 1691.05,-393.5 1595.05,-393.5"/>
<text text-anchor="middle" x="1607.93" y="-425.2" font-family="Times,serif" font-size="14.00">A</text>
<polyline fill="none" stroke="black" points="1595.05,-418 1620.8,-418"/>
<text text-anchor="middle" x="1607.93" y="-400.7" font-family="Times,serif" font-size="14.00">B</text>
<polyline fill="none" stroke="black" points="1620.8,-393.5 1620.8,-442.5"/>
<text text-anchor="middle" x="1643.05" y="-421.2" font-family="Times,serif" font-size="14.00">$8</text>
<text text-anchor="middle" x="1643.05" y="-404.7" font-family="Times,serif" font-size="14.00">$mul</text>
<polyline fill="none" stroke="black" points="1665.3,-393.5 1665.3,-442.5"/>
<text text-anchor="middle" x="1678.18" y="-413.2" font-family="Times,serif" font-size="14.00">Y</text>
</g>
<!-- n18&#45;&gt;c35 -->
<g id="edge57" class="edge">
<title>n18:e&#45;&gt;c35:w</title>
<path fill="none" stroke="black" stroke-width="3" d="M790.09,-318C806.82,-318 809.67,-325.82 826.09,-329 1046.15,-371.54 1105.42,-350.84 1328.55,-372 1431.09,-381.72 1457.79,-377.14 1559.05,-396 1570.76,-398.18 1575.67,-402.26 1583.66,-404.39"/>
<polygon fill="black" stroke="black" stroke-width="3" points="1580.2,-407.5 1590.54,-405.21 1581.03,-400.55 1580.2,-407.5"/>
</g>
<!-- x19 -->
<g id="node43" class="node">
<title>x19</title>
<path fill="none" stroke="black" d="M985.72,-136C985.72,-136 1024.22,-136 1024.22,-136 1030.22,-136 1036.22,-142 1036.22,-148 1036.22,-148 1036.22,-160 1036.22,-160 1036.22,-166 1030.22,-172 1024.22,-172 1024.22,-172 985.72,-172 985.72,-172 979.72,-172 973.72,-166 973.72,-160 973.72,-160 973.72,-148 973.72,-148 973.72,-142 979.72,-136 985.72,-136"/>
<text text-anchor="middle" x="1004.97" y="-149.2" font-family="Times,serif" font-size="14.00">2:0 &#45; 2:0</text>
</g>
<!-- n18&#45;&gt;x19 -->
<g id="edge59" class="edge">
<title>n18:e&#45;&gt;x19:w</title>
<path fill="none" stroke="black" stroke-width="3" d="M790.09,-318C847.05,-318 785.54,-235 826.09,-195 871.52,-150.19 901.53,-153.66 961.57,-154.2"/>
<polygon fill="black" stroke="black" stroke-width="3" points="958.16,-157.68 968.18,-154.23 958.19,-150.68 958.16,-157.68"/>
</g>
<!-- n19 -->
<g id="node7" class="node">
<title>n19</title>
<polygon fill="none" stroke="black" points="2755.94,-640 2700.69,-622 2755.94,-604 2811.19,-622 2755.94,-640"/>
<text text-anchor="middle" x="2755.94" y="-616.95" font-family="Times,serif" font-size="14.00">temp_7</text>
</g>
<!-- x12 -->
<g id="node30" class="node">
<title>x12</title>
<path fill="none" stroke="black" d="M2865.94,-463C2865.94,-463 2904.44,-463 2904.44,-463 2910.44,-463 2916.44,-469 2916.44,-475 2916.44,-475 2916.44,-487 2916.44,-487 2916.44,-493 2910.44,-499 2904.44,-499 2904.44,-499 2865.94,-499 2865.94,-499 2859.94,-499 2853.94,-493 2853.94,-487 2853.94,-487 2853.94,-475 2853.94,-475 2853.94,-469 2859.94,-463 2865.94,-463"/>
<text text-anchor="middle" x="2885.19" y="-476.2" font-family="Times,serif" font-size="14.00">2:0 &#45; 2:0</text>
</g>
<!-- n19&#45;&gt;x12 -->
<g id="edge64" class="edge">
<title>n19:e&#45;&gt;x12:w</title>
<path fill="none" stroke="black" stroke-width="3" d="M2811.19,-622C2871.98,-622 2799.1,-499.84 2841.62,-483.13"/>
<polygon fill="black" stroke="black" stroke-width="3" points="2839.17,-487.09 2848.46,-482 2838.02,-480.18 2839.17,-487.09"/>
</g>
<!-- x15 -->
<g id="node37" class="node">
<title>x15</title>
<path fill="none" stroke="black" d="M3099.44,-473.25C3099.44,-473.25 3182.19,-473.25 3182.19,-473.25 3188.19,-473.25 3194.19,-479.25 3194.19,-485.25 3194.19,-485.25 3194.19,-534.75 3194.19,-534.75 3194.19,-540.75 3188.19,-546.75 3182.19,-546.75 3182.19,-546.75 3099.44,-546.75 3099.44,-546.75 3093.44,-546.75 3087.44,-540.75 3087.44,-534.75 3087.44,-534.75 3087.44,-485.25 3087.44,-485.25 3087.44,-479.25 3093.44,-473.25 3099.44,-473.25"/>
<text text-anchor="middle" x="3140.81" y="-529.45" font-family="Times,serif" font-size="14.00">2x 13:13 &#45; 13:12</text>
<polyline fill="none" stroke="black" points="3087.44,-522.25 3194.19,-522.25"/>
<text text-anchor="middle" x="3140.81" y="-504.95" font-family="Times,serif" font-size="14.00">11:3 &#45; 11:3</text>
<polyline fill="none" stroke="black" points="3087.44,-497.75 3194.19,-497.75"/>
<text text-anchor="middle" x="3140.81" y="-480.45" font-family="Times,serif" font-size="14.00">2:0 &#45; 2:0</text>
</g>
<!-- n19&#45;&gt;x15 -->
<g id="edge65" class="edge">
<title>n19:e&#45;&gt;x15:w</title>
<path fill="none" stroke="black" stroke-width="3" d="M2811.19,-622C2847.76,-622 2817.8,-569.77 2847.19,-548 2930.92,-485.99 2976.01,-508.22 3075.96,-509.9"/>
<polygon fill="black" stroke="black" stroke-width="3" points="3072.87,-513.38 3082.9,-509.96 3072.93,-506.38 3072.87,-513.38"/>
</g>
<!-- n19&#45;&gt;x15 -->
<g id="edge66" class="edge">
<title>n19:e&#45;&gt;x15:w</title>
<path fill="none" stroke="black" stroke-width="3" d="M2811.19,-622C2830.42,-622 2828.78,-640.43 2847.19,-646 2934.67,-672.49 2980.52,-679.67 3051.44,-622 3080.5,-598.37 3052.99,-547.42 3076.34,-536.56"/>
<polygon fill="black" stroke="black" stroke-width="3" points="3073.78,-540.6 3082.97,-535.33 3072.5,-533.72 3073.78,-540.6"/>
</g>
<!-- x34 -->
<g id="node60" class="node">
<title>x34</title>
<path fill="none" stroke="black" d="M2859.19,-557C2859.19,-557 2911.19,-557 2911.19,-557 2917.19,-557 2923.19,-563 2923.19,-569 2923.19,-569 2923.19,-581 2923.19,-581 2923.19,-587 2917.19,-593 2911.19,-593 2911.19,-593 2859.19,-593 2859.19,-593 2853.19,-593 2847.19,-587 2847.19,-581 2847.19,-581 2847.19,-569 2847.19,-569 2847.19,-563 2853.19,-557 2859.19,-557"/>
<text text-anchor="middle" x="2885.19" y="-570.2" font-family="Times,serif" font-size="14.00">13:13 &#45; 0:0</text>
</g>
<!-- n19&#45;&gt;x34 -->
<g id="edge67" class="edge">
<title>n19:e&#45;&gt;x34:w</title>
<path fill="none" stroke="black" d="M2811.19,-622C2832.7,-622 2825.5,-590.54 2836.69,-579.24"/>
<polygon fill="black" stroke="black" points="2837.67,-582.61 2845.77,-575.79 2835.18,-576.06 2837.67,-582.61"/>
</g>
<!-- c23 -->
<g id="node8" class="node">
<title>c23</title>
<polygon fill="none" stroke="black" points="1959.05,-454.5 1959.05,-503.5 2052.8,-503.5 2052.8,-454.5 1959.05,-454.5"/>
<text text-anchor="middle" x="1971.93" y="-486.2" font-family="Times,serif" font-size="14.00">A</text>
<polyline fill="none" stroke="black" points="1959.05,-479 1984.8,-479"/>
<text text-anchor="middle" x="1971.93" y="-461.7" font-family="Times,serif" font-size="14.00">B</text>
<polyline fill="none" stroke="black" points="1984.8,-454.5 1984.8,-503.5"/>
<text text-anchor="middle" x="2005.93" y="-482.2" font-family="Times,serif" font-size="14.00">$14</text>
<text text-anchor="middle" x="2005.93" y="-465.7" font-family="Times,serif" font-size="14.00">$add</text>
<polyline fill="none" stroke="black" points="2027.05,-454.5 2027.05,-503.5"/>
<text text-anchor="middle" x="2039.93" y="-474.2" font-family="Times,serif" font-size="14.00">Y</text>
</g>
<!-- c23&#45;&gt;n16 -->
<g id="edge50" class="edge">
<title>c23:e&#45;&gt;n16:w</title>
<path fill="none" stroke="black" stroke-width="3" d="M2052.8,-479.25C2117.65,-479.25 2032,-612.07 2077.45,-629.19"/>
<polygon fill="black" stroke="black" stroke-width="3" points="2073.89,-632.17 2084.32,-630.29 2074.99,-625.25 2073.89,-632.17"/>
</g>
<!-- x0 -->
<g id="node9" class="node">
<title>x0</title>
<path fill="none" stroke="black" d="M1868.05,-454.5C1868.05,-454.5 1911.05,-454.5 1911.05,-454.5 1917.05,-454.5 1923.05,-460.5 1923.05,-466.5 1923.05,-466.5 1923.05,-491.5 1923.05,-491.5 1923.05,-497.5 1917.05,-503.5 1911.05,-503.5 1911.05,-503.5 1868.05,-503.5 1868.05,-503.5 1862.05,-503.5 1856.05,-497.5 1856.05,-491.5 1856.05,-491.5 1856.05,-466.5 1856.05,-466.5 1856.05,-460.5 1862.05,-454.5 1868.05,-454.5"/>
<text text-anchor="middle" x="1889.55" y="-486.2" font-family="Times,serif" font-size="14.00">1 &#45;&gt; 12:6</text>
<polyline fill="none" stroke="black" points="1856.05,-479 1923.05,-479"/>
<text text-anchor="middle" x="1889.55" y="-461.7" font-family="Times,serif" font-size="14.00">5:0 &#45; 5:0</text>
</g>
<!-- x0&#45;&gt;c23 -->
<g id="edge1" class="edge">
<title>x0:e&#45;&gt;c23:w</title>
<path fill="none" stroke="black" stroke-width="3" d="M1935.49,-476.16C1939.47,-474.18 1942.66,-471.55 1946.65,-469.58"/>
<polygon fill="none" stroke="black" stroke-width="3" points="1937.39,-475.72 1932.43,-480.96 1925.69,-478.4 1930.65,-473.16 1937.39,-475.72"/>
<polygon fill="none" stroke="black" stroke-width="3" points="1944.71,-470.02 1949.68,-464.78 1956.41,-467.35 1951.45,-472.58 1944.71,-470.02"/>
</g>
<!-- c24 -->
<g id="node10" class="node">
<title>c24</title>
<polygon fill="none" stroke="black" points="958.09,-191.5 958.09,-240.5 1051.84,-240.5 1051.84,-191.5 958.09,-191.5"/>
<text text-anchor="middle" x="970.97" y="-223.2" font-family="Times,serif" font-size="14.00">A</text>
<polyline fill="none" stroke="black" points="958.09,-216 983.84,-216"/>
<text text-anchor="middle" x="970.97" y="-198.7" font-family="Times,serif" font-size="14.00">B</text>
<polyline fill="none" stroke="black" points="983.84,-191.5 983.84,-240.5"/>
<text text-anchor="middle" x="1004.97" y="-219.2" font-family="Times,serif" font-size="14.00">$15</text>
<text text-anchor="middle" x="1004.97" y="-202.7" font-family="Times,serif" font-size="14.00">$add</text>
<polyline fill="none" stroke="black" points="1026.09,-191.5 1026.09,-240.5"/>
<text text-anchor="middle" x="1038.97" y="-211.2" font-family="Times,serif" font-size="14.00">Y</text>
</g>
<!-- c38 -->
<g id="node42" class="node">
<title>c38</title>
<polygon fill="none" stroke="black" points="1111.7,-172.5 1111.7,-221.5 1199.45,-221.5 1199.45,-172.5 1111.7,-172.5"/>
<text text-anchor="middle" x="1124.57" y="-204.2" font-family="Times,serif" font-size="14.00">A</text>
<polyline fill="none" stroke="black" points="1111.7,-197 1137.45,-197"/>
<text text-anchor="middle" x="1124.57" y="-179.7" font-family="Times,serif" font-size="14.00">B</text>
<polyline fill="none" stroke="black" points="1137.45,-172.5 1137.45,-221.5"/>
<text text-anchor="middle" x="1155.57" y="-200.2" font-family="Times,serif" font-size="14.00">$16</text>
<text text-anchor="middle" x="1155.57" y="-183.7" font-family="Times,serif" font-size="14.00">$or</text>
<polyline fill="none" stroke="black" points="1173.7,-172.5 1173.7,-221.5"/>
<text text-anchor="middle" x="1186.57" y="-192.2" font-family="Times,serif" font-size="14.00">Y</text>
</g>
<!-- c24&#45;&gt;c38 -->
<g id="edge29" class="edge">
<title>c24:e&#45;&gt;c38:w</title>
<path fill="none" stroke="black" stroke-width="3" d="M1051.84,-216.25C1074.07,-216.25 1081.93,-211.27 1099.67,-209.71"/>
<polygon fill="black" stroke="black" stroke-width="3" points="1096.31,-213.35 1106.16,-209.44 1096.02,-206.36 1096.31,-213.35"/>
</g>
<!-- x1&#45;&gt;c24 -->
<g id="edge2" class="edge">
<title>x1:e&#45;&gt;c24:w</title>
<path fill="none" stroke="black" stroke-width="3" d="M374.11,-137C467.75,-137 495.92,-137 595.72,-137 595.72,-137 595.72,-137 735.84,-137 822.54,-137 847.02,-151.64 922.09,-195 936.09,-203.09 937.14,-217.48 945.66,-224.37"/>
<polygon fill="none" stroke="black" stroke-width="3" points="375.8,-137 369.8,-141 363.8,-137 369.8,-133 375.8,-137"/>
<polygon fill="none" stroke="black" stroke-width="3" points="944.06,-223.87 950.97,-221.84 955.51,-227.44 948.59,-229.48 944.06,-223.87"/>
</g>
<!-- x2&#45;&gt;c24 -->
<g id="edge3" class="edge">
<title>x2:e&#45;&gt;c24:w</title>
<path fill="none" stroke="black" stroke-width="3" d="M918.91,-220.05C929.24,-216.55 935.11,-209.27 945.4,-205.74"/>
<polygon fill="none" stroke="black" stroke-width="3" points="920.87,-219.74 915.56,-224.62 909.02,-221.58 914.33,-216.71 920.87,-219.74"/>
<polygon fill="none" stroke="black" stroke-width="3" points="943.57,-206.03 948.87,-201.15 955.42,-204.17 950.12,-209.05 943.57,-206.03"/>
</g>
<!-- c25&#45;&gt;n15 -->
<g id="edge46" class="edge">
<title>c25:e&#45;&gt;n15:w</title>
<path fill="none" stroke="black" stroke-width="3" d="M237.59,-297.25C249.24,-297.25 254.37,-300.22 262.35,-301.89"/>
<polygon fill="black" stroke="black" stroke-width="3" points="258.78,-305.06 269.07,-302.55 259.46,-298.09 258.78,-305.06"/>
</g>
<!-- c26&#45;&gt;c27 -->
<g id="edge68" class="edge">
<title>c26:e&#45;&gt;c27:w</title>
<path fill="none" stroke="black" stroke-width="3" d="M513.84,-257.25C545.21,-257.25 522.04,-312.15 538.93,-326.73"/>
<polygon fill="black" stroke="black" stroke-width="3" points="534.93,-329.12 545.52,-328.86 537.08,-322.46 534.93,-329.12"/>
</g>
<!-- c27&#45;&gt;n18 -->
<g id="edge54" class="edge">
<title>c27:e&#45;&gt;n18:w</title>
<path fill="none" stroke="black" stroke-width="3" d="M643.59,-318.25C654.97,-318.25 660.28,-318.12 668.15,-318.05"/>
<polygon fill="black" stroke="black" stroke-width="3" points="665.07,-321.56 675.05,-318.02 665.04,-314.56 665.07,-321.56"/>
</g>
<!-- c28 -->
<g id="node16" class="node">
<title>c28</title>
<polygon fill="none" stroke="black" points="1596.18,-89.5 1596.18,-138.5 1689.93,-138.5 1689.93,-89.5 1596.18,-89.5"/>
<text text-anchor="middle" x="1609.05" y="-121.2" font-family="Times,serif" font-size="14.00">A</text>
<polyline fill="none" stroke="black" points="1596.18,-114 1621.93,-114"/>
<text text-anchor="middle" x="1609.05" y="-96.7" font-family="Times,serif" font-size="14.00">B</text>
<polyline fill="none" stroke="black" points="1621.93,-89.5 1621.93,-138.5"/>
<text text-anchor="middle" x="1643.05" y="-117.2" font-family="Times,serif" font-size="14.00">$17</text>
<text text-anchor="middle" x="1643.05" y="-100.7" font-family="Times,serif" font-size="14.00">$and</text>
<polyline fill="none" stroke="black" points="1664.18,-89.5 1664.18,-138.5"/>
<text text-anchor="middle" x="1677.05" y="-109.2" font-family="Times,serif" font-size="14.00">Y</text>
</g>
<!-- c39 -->
<g id="node45" class="node">
<title>c39</title>
<polygon fill="none" stroke="black" points="1727.05,-77.5 1727.05,-126.5 1820.05,-126.5 1820.05,-77.5 1727.05,-77.5"/>
<text text-anchor="middle" x="1739.93" y="-109.2" font-family="Times,serif" font-size="14.00">A</text>
<polyline fill="none" stroke="black" points="1727.05,-102 1752.8,-102"/>
<text text-anchor="middle" x="1739.93" y="-84.7" font-family="Times,serif" font-size="14.00">B</text>
<polyline fill="none" stroke="black" points="1752.8,-77.5 1752.8,-126.5"/>
<text text-anchor="middle" x="1773.55" y="-105.2" font-family="Times,serif" font-size="14.00">$18</text>
<text text-anchor="middle" x="1773.55" y="-88.7" font-family="Times,serif" font-size="14.00">$sub</text>
<polyline fill="none" stroke="black" points="1794.3,-77.5 1794.3,-126.5"/>
<text text-anchor="middle" x="1807.18" y="-97.2" font-family="Times,serif" font-size="14.00">Y</text>
</g>
<!-- c28&#45;&gt;c39 -->
<g id="edge76" class="edge">
<title>c28:e&#45;&gt;c39:w</title>
<path fill="none" stroke="black" stroke-width="3" d="M1690.93,-114.25C1702.34,-114.25 1707.67,-114.25 1715.57,-114.25"/>
<polygon fill="black" stroke="black" stroke-width="3" points="1712.51,-117.75 1722.51,-114.25 1712.51,-110.75 1712.51,-117.75"/>
</g>
<!-- x3 -->
<g id="node17" class="node">
<title>x3</title>
<path fill="none" stroke="black" d="M1506.3,-119C1506.3,-119 1544.8,-119 1544.8,-119 1550.8,-119 1556.8,-125 1556.8,-131 1556.8,-131 1556.8,-143 1556.8,-143 1556.8,-149 1550.8,-155 1544.8,-155 1544.8,-155 1506.3,-155 1506.3,-155 1500.3,-155 1494.3,-149 1494.3,-143 1494.3,-143 1494.3,-131 1494.3,-131 1494.3,-125 1500.3,-119 1506.3,-119"/>
<text text-anchor="middle" x="1525.55" y="-132.2" font-family="Times,serif" font-size="14.00">2:0 &#45; 2:0</text>
</g>
<!-- x3&#45;&gt;c28 -->
<g id="edge4" class="edge">
<title>x3:e&#45;&gt;c28:w</title>
<path fill="none" stroke="black" stroke-width="3" d="M1570.39,-134.61C1574.75,-132.83 1578.24,-130.41 1582.61,-128.63"/>
<polygon fill="none" stroke="black" stroke-width="3" points="1572.25,-134.26 1567.1,-139.31 1560.46,-136.5 1565.61,-131.45 1572.25,-134.26"/>
<polygon fill="none" stroke="black" stroke-width="3" points="1580.73,-128.98 1585.88,-123.94 1592.52,-126.75 1587.37,-131.8 1580.73,-128.98"/>
</g>
<!-- x4&#45;&gt;c28 -->
<g id="edge5" class="edge">
<title>x4:e&#45;&gt;c28:w</title>
<path fill="none" stroke="black" stroke-width="3" d="M512.24,-90C605.88,-90 634.05,-90 733.84,-90 733.84,-90 733.84,-90 1411.3,-90 1488.71,-90 1510.9,-100.5 1582.28,-101.65"/>
<polygon fill="none" stroke="black" stroke-width="3" points="513.92,-90 507.92,-94 501.92,-90 507.92,-86 513.92,-90"/>
<polygon fill="none" stroke="black" stroke-width="3" points="1580.47,-101.63 1586.5,-97.68 1592.47,-101.73 1586.44,-105.68 1580.47,-101.63"/>
</g>
<!-- c29 -->
<g id="node19" class="node">
<title>c29</title>
<polygon fill="none" stroke="black" points="2265.37,-266.5 2265.37,-315.5 2359.12,-315.5 2359.12,-266.5 2265.37,-266.5"/>
<text text-anchor="middle" x="2278.24" y="-298.2" font-family="Times,serif" font-size="14.00">A</text>
<polyline fill="none" stroke="black" points="2265.37,-291 2291.12,-291"/>
<text text-anchor="middle" x="2278.24" y="-273.7" font-family="Times,serif" font-size="14.00">B</text>
<polyline fill="none" stroke="black" points="2291.12,-266.5 2291.12,-315.5"/>
<text text-anchor="middle" x="2312.24" y="-294.2" font-family="Times,serif" font-size="14.00">$21</text>
<text text-anchor="middle" x="2312.24" y="-277.7" font-family="Times,serif" font-size="14.00">$and</text>
<polyline fill="none" stroke="black" points="2333.37,-266.5 2333.37,-315.5"/>
<text text-anchor="middle" x="2346.24" y="-286.2" font-family="Times,serif" font-size="14.00">Y</text>
</g>
<!-- c29&#45;&gt;n17 -->
<g id="edge52" class="edge">
<title>c29:e&#45;&gt;n17:w</title>
<path fill="none" stroke="black" stroke-width="3" d="M2360.12,-291.25C2439.42,-291.25 2453.29,-328.44 2518.19,-374 2532.06,-383.74 2532.98,-398.4 2543.07,-404.35"/>
<polygon fill="black" stroke="black" stroke-width="3" points="2539.23,-407.04 2549.77,-405.95 2540.85,-400.23 2539.23,-407.04"/>
</g>
<!-- x5 -->
<g id="node20" class="node">
<title>x5</title>
<path fill="none" stroke="black" d="M2124.8,-285C2124.8,-285 2163.3,-285 2163.3,-285 2169.3,-285 2175.3,-291 2175.3,-297 2175.3,-297 2175.3,-309 2175.3,-309 2175.3,-315 2169.3,-321 2163.3,-321 2163.3,-321 2124.8,-321 2124.8,-321 2118.8,-321 2112.8,-315 2112.8,-309 2112.8,-309 2112.8,-297 2112.8,-297 2112.8,-291 2118.8,-285 2124.8,-285"/>
<text text-anchor="middle" x="2144.05" y="-298.2" font-family="Times,serif" font-size="14.00">2:0 &#45; 2:0</text>
</g>
<!-- x5&#45;&gt;c29 -->
<g id="edge6" class="edge">
<title>x5:e&#45;&gt;c29:w</title>
<path fill="none" stroke="black" stroke-width="3" d="M2189.33,-303.01C2214.29,-303.05 2226.44,-303.2 2251.43,-303.24"/>
<polygon fill="none" stroke="black" stroke-width="3" points="2191.01,-303.01 2185,-307.01 2179.01,-303 2185.01,-299.01 2191.01,-303.01"/>
<polygon fill="none" stroke="black" stroke-width="3" points="2249.67,-303.24 2255.67,-299.24 2261.67,-303.25 2255.66,-307.24 2249.67,-303.24"/>
</g>
<!-- x6 -->
<g id="node21" class="node">
<title>x6</title>
<path fill="none" stroke="black" d="M577.47,-208C577.47,-208 615.97,-208 615.97,-208 621.97,-208 627.97,-214 627.97,-220 627.97,-220 627.97,-232 627.97,-232 627.97,-238 621.97,-244 615.97,-244 615.97,-244 577.47,-244 577.47,-244 571.47,-244 565.47,-238 565.47,-232 565.47,-232 565.47,-220 565.47,-220 565.47,-214 571.47,-208 577.47,-208"/>
<text text-anchor="middle" x="596.72" y="-221.2" font-family="Times,serif" font-size="14.00">2:0 &#45; 2:0</text>
</g>
<!-- x6&#45;&gt;c29 -->
<g id="edge7" class="edge">
<title>x6:e&#45;&gt;c29:w</title>
<path fill="none" stroke="black" stroke-width="3" d="M641.91,-226.14C719.51,-227.82 742.49,-244.57 826.09,-250 1135.88,-270.12 1214.11,-256 1524.55,-256 1524.55,-256 1524.55,-256 2006.93,-256 2117.42,-256 2147.27,-277.05 2251.61,-278.65"/>
<polygon fill="none" stroke="black" stroke-width="3" points="643.67,-226.16 637.63,-230.09 631.67,-226.03 637.71,-222.09 643.67,-226.16"/>
<polygon fill="none" stroke="black" stroke-width="3" points="2249.67,-278.64 2255.7,-274.68 2261.67,-278.73 2255.64,-282.68 2249.67,-278.64"/>
</g>
<!-- c30 -->
<g id="node22" class="node">
<title>c30</title>
<polygon fill="none" stroke="black" points="2562.19,-466.5 2562.19,-515.5 2656.69,-515.5 2656.69,-466.5 2562.19,-466.5"/>
<text text-anchor="middle" x="2575.06" y="-498.2" font-family="Times,serif" font-size="14.00">A</text>
<polyline fill="none" stroke="black" points="2562.19,-491 2587.94,-491"/>
<text text-anchor="middle" x="2575.06" y="-473.7" font-family="Times,serif" font-size="14.00">B</text>
<polyline fill="none" stroke="black" points="2587.94,-466.5 2587.94,-515.5"/>
<text text-anchor="middle" x="2609.44" y="-494.2" font-family="Times,serif" font-size="14.00">$100</text>
<text text-anchor="middle" x="2609.44" y="-477.7" font-family="Times,serif" font-size="14.00">$and</text>
<polyline fill="none" stroke="black" points="2630.94,-466.5 2630.94,-515.5"/>
<text text-anchor="middle" x="2643.81" y="-486.2" font-family="Times,serif" font-size="14.00">Y</text>
</g>
<!-- x8 -->
<g id="node24" class="node">
<title>x8</title>
<path fill="none" stroke="black" d="M2736.69,-502C2736.69,-502 2775.19,-502 2775.19,-502 2781.19,-502 2787.19,-508 2787.19,-514 2787.19,-514 2787.19,-526 2787.19,-526 2787.19,-532 2781.19,-538 2775.19,-538 2775.19,-538 2736.69,-538 2736.69,-538 2730.69,-538 2724.69,-532 2724.69,-526 2724.69,-526 2724.69,-514 2724.69,-514 2724.69,-508 2730.69,-502 2736.69,-502"/>
<text text-anchor="middle" x="2755.94" y="-515.2" font-family="Times,serif" font-size="14.00">5:0 &#45; 5:0</text>
</g>
<!-- c30&#45;&gt;x8 -->
<g id="edge9" class="edge">
<title>c30:e&#45;&gt;x8:w</title>
<path fill="none" stroke="black" stroke-width="3" d="M2670.43,-493.05C2687.3,-498.21 2694.08,-513.04 2710.94,-518.2"/>
<polygon fill="none" stroke="black" stroke-width="3" points="2672.25,-493.3 2665.75,-496.43 2660.36,-491.63 2666.86,-488.51 2672.25,-493.3"/>
<polygon fill="none" stroke="black" stroke-width="3" points="2709.13,-517.95 2715.63,-514.82 2721.01,-519.62 2714.51,-522.75 2709.13,-517.95"/>
</g>
<!-- x7 -->
<g id="node23" class="node">
<title>x7</title>
<path fill="none" stroke="black" d="M2452.44,-485C2452.44,-485 2490.94,-485 2490.94,-485 2496.94,-485 2502.94,-491 2502.94,-497 2502.94,-497 2502.94,-509 2502.94,-509 2502.94,-515 2496.94,-521 2490.94,-521 2490.94,-521 2452.44,-521 2452.44,-521 2446.44,-521 2440.44,-515 2440.44,-509 2440.44,-509 2440.44,-497 2440.44,-497 2440.44,-491 2446.44,-485 2452.44,-485"/>
<text text-anchor="middle" x="2471.69" y="-498.2" font-family="Times,serif" font-size="14.00">5:0 &#45; 5:0</text>
</g>
<!-- x7&#45;&gt;c30 -->
<g id="edge8" class="edge">
<title>x7:e&#45;&gt;c30:w</title>
<path fill="none" stroke="black" stroke-width="3" d="M2516.95,-503.02C2528.8,-503.07 2536.34,-503.18 2548.2,-503.23"/>
<polygon fill="none" stroke="black" stroke-width="3" points="2518.64,-503.03 2512.63,-507.02 2506.64,-503.01 2512.65,-499.02 2518.64,-503.03"/>
<polygon fill="none" stroke="black" stroke-width="3" points="2546.48,-503.22 2552.49,-499.23 2558.48,-503.24 2552.47,-507.23 2546.48,-503.22"/>
</g>
<!-- n3 -->
<g id="node64" class="node">
<title>n3</title>
<ellipse fill="black" stroke="black" cx="1889.55" cy="-532" rx="1.8" ry="1.8"/>
</g>
<!-- x8&#45;&gt;n3 -->
<g id="edge70" class="edge">
<title>x8:e&#45;&gt;n3:w</title>
<path fill="none" stroke="black" stroke-width="3" d="M2788.19,-520.25C2796.31,-520.25 2792.97,-532.79 2787.19,-538.5 2670.93,-653.23 2216.1,-565.61 2052.8,-569 2011.14,-569.86 1999.64,-578.42 1959.05,-569 1938.34,-564.19 1904.46,-552.32 1887.25,-543.31"/>
<polygon fill="black" stroke="black" stroke-width="3" points="1891.01,-546.19 1886.66,-536.52 1884.03,-546.79 1891.01,-546.19"/>
</g>
<!-- c31 -->
<g id="node25" class="node">
<title>c31</title>
<polygon fill="none" stroke="black" points="1108.7,-432.5 1108.7,-481.5 1202.45,-481.5 1202.45,-432.5 1108.7,-432.5"/>
<text text-anchor="middle" x="1121.57" y="-464.2" font-family="Times,serif" font-size="14.00">A</text>
<polyline fill="none" stroke="black" points="1108.7,-457 1134.45,-457"/>
<text text-anchor="middle" x="1121.57" y="-439.7" font-family="Times,serif" font-size="14.00">B</text>
<polyline fill="none" stroke="black" points="1134.45,-432.5 1134.45,-481.5"/>
<text text-anchor="middle" x="1155.57" y="-460.2" font-family="Times,serif" font-size="14.00">$85</text>
<text text-anchor="middle" x="1155.57" y="-443.7" font-family="Times,serif" font-size="14.00">$and</text>
<polyline fill="none" stroke="black" points="1176.7,-432.5 1176.7,-481.5"/>
<text text-anchor="middle" x="1189.57" y="-452.2" font-family="Times,serif" font-size="14.00">Y</text>
</g>
<!-- x11 -->
<g id="node28" class="node">
<title>x11</title>
<path fill="none" stroke="black" d="M1274.68,-437C1274.68,-437 1313.18,-437 1313.18,-437 1319.18,-437 1325.18,-443 1325.18,-449 1325.18,-449 1325.18,-461 1325.18,-461 1325.18,-467 1319.18,-473 1313.18,-473 1313.18,-473 1274.68,-473 1274.68,-473 1268.68,-473 1262.68,-467 1262.68,-461 1262.68,-461 1262.68,-449 1262.68,-449 1262.68,-443 1268.68,-437 1274.68,-437"/>
<text text-anchor="middle" x="1293.93" y="-450.2" font-family="Times,serif" font-size="14.00">1:0 &#45; 1:0</text>
</g>
<!-- c31&#45;&gt;x11 -->
<g id="edge12" class="edge">
<title>c31:e&#45;&gt;x11:w</title>
<path fill="none" stroke="black" stroke-width="3" d="M1216.22,-457.04C1228.64,-456.62 1236.35,-455.65 1248.73,-455.21"/>
<polygon fill="none" stroke="black" stroke-width="3" points="1218.15,-457.01 1212.22,-461.11 1206.15,-457.21 1212.09,-453.11 1218.15,-457.01"/>
<polygon fill="none" stroke="black" stroke-width="3" points="1246.97,-455.24 1252.91,-451.14 1258.97,-455.04 1253.04,-459.14 1246.97,-455.24"/>
</g>
<!-- x9 -->
<g id="node26" class="node">
<title>x9</title>
<path fill="none" stroke="black" d="M985.72,-446C985.72,-446 1024.22,-446 1024.22,-446 1030.22,-446 1036.22,-452 1036.22,-458 1036.22,-458 1036.22,-470 1036.22,-470 1036.22,-476 1030.22,-482 1024.22,-482 1024.22,-482 985.72,-482 985.72,-482 979.72,-482 973.72,-476 973.72,-470 973.72,-470 973.72,-458 973.72,-458 973.72,-452 979.72,-446 985.72,-446"/>
<text text-anchor="middle" x="1004.97" y="-459.2" font-family="Times,serif" font-size="14.00">1:0 &#45; 1:0</text>
</g>
<!-- x9&#45;&gt;c31 -->
<g id="edge10" class="edge">
<title>x9:e&#45;&gt;c31:w</title>
<path fill="none" stroke="black" stroke-width="3" d="M1050.09,-464.33C1067.66,-465.27 1077.25,-467.98 1094.83,-468.92"/>
<polygon fill="none" stroke="black" stroke-width="3" points="1051.92,-464.38 1045.82,-468.22 1039.92,-464.07 1046.02,-460.22 1051.92,-464.38"/>
<polygon fill="none" stroke="black" stroke-width="3" points="1093,-468.87 1099.1,-465.03 1104.99,-469.18 1098.89,-473.03 1093,-468.87"/>
</g>
<!-- x10&#45;&gt;c31 -->
<g id="edge11" class="edge">
<title>x10:e&#45;&gt;c31:w</title>
<path fill="none" stroke="black" stroke-width="3" d="M919.2,-397.95C965.57,-404.07 1048.45,-437.67 1094.83,-443.79"/>
<polygon fill="none" stroke="black" stroke-width="3" points="921.01,-398.09 914.73,-401.63 909.04,-397.2 915.32,-393.66 921.01,-398.09"/>
<polygon fill="none" stroke="black" stroke-width="3" points="1093.03,-443.66 1099.31,-440.12 1105,-444.55 1098.72,-448.09 1093.03,-443.66"/>
</g>
<!-- n4 -->
<g id="node65" class="node">
<title>n4</title>
<ellipse fill="black" stroke="black" cx="1410.3" cy="-418" rx="1.8" ry="1.8"/>
</g>
<!-- x11&#45;&gt;n4 -->
<g id="edge73" class="edge">
<title>x11:e&#45;&gt;n4:w</title>
<path fill="none" stroke="black" stroke-width="3" d="M1326.18,-455.25C1361.57,-455.25 1366.68,-425.44 1395.68,-419.16"/>
<polygon fill="black" stroke="black" stroke-width="3" points="1392.91,-422.96 1402.51,-418.46 1392.2,-415.99 1392.91,-422.96"/>
</g>
<!-- c32&#45;&gt;x15 -->
<g id="edge81" class="edge">
<title>c32:e&#45;&gt;x15:w</title>
<path fill="none" stroke="black" stroke-width="3" d="M3051.44,-469.25C3064.33,-469.25 3068.23,-478.01 3076.35,-482.67"/>
<polygon fill="black" stroke="black" stroke-width="3" points="3072.48,-485.29 3083.04,-484.38 3074.22,-478.51 3072.48,-485.29"/>
</g>
<!-- x12&#45;&gt;c32 -->
<g id="edge13" class="edge">
<title>x12:e&#45;&gt;c32:w</title>
<path fill="none" stroke="black" stroke-width="3" d="M2930.41,-481.05C2936.07,-481.09 2940.57,-481.16 2946.23,-481.2"/>
<polygon fill="none" stroke="black" stroke-width="3" points="2932.14,-481.05 2926.13,-485.03 2920.14,-481.01 2926.16,-477.03 2932.14,-481.05"/>
<polygon fill="none" stroke="black" stroke-width="3" points="2944.48,-481.2 2950.5,-477.22 2956.48,-481.24 2950.47,-485.22 2944.48,-481.2"/>
</g>
<!-- n6 -->
<g id="node66" class="node">
<title>n6</title>
<ellipse fill="black" stroke="black" cx="1773.55" cy="-369" rx="1.8" ry="1.8"/>
</g>
<!-- c33&#45;&gt;n6 -->
<g id="edge77" class="edge">
<title>c33:e&#45;&gt;n6:w</title>
<path fill="none" stroke="black" stroke-width="3" d="M1456.05,-305.25C1594.65,-305.25 1626.09,-365.56 1758.83,-368.86"/>
<polygon fill="black" stroke="black" stroke-width="3" points="1755.69,-372.32 1765.73,-368.94 1755.78,-365.32 1755.69,-372.32"/>
</g>
<!-- c34&#45;&gt;x9 -->
<g id="edge82" class="edge">
<title>c34:e&#45;&gt;x9:w</title>
<path fill="none" stroke="black" stroke-width="3" d="M922.09,-459.25C940.46,-459.25 947.48,-462.55 961.59,-463.79"/>
<polygon fill="black" stroke="black" stroke-width="3" points="958.04,-467.14 968.18,-464.06 958.33,-460.15 958.04,-467.14"/>
</g>
<!-- x14 -->
<g id="node35" class="node">
<title>x14</title>
<path fill="none" stroke="black" d="M1747.55,-413.5C1747.55,-413.5 1799.55,-413.5 1799.55,-413.5 1805.55,-413.5 1811.55,-419.5 1811.55,-425.5 1811.55,-425.5 1811.55,-450.5 1811.55,-450.5 1811.55,-456.5 1805.55,-462.5 1799.55,-462.5 1799.55,-462.5 1747.55,-462.5 1747.55,-462.5 1741.55,-462.5 1735.55,-456.5 1735.55,-450.5 1735.55,-450.5 1735.55,-425.5 1735.55,-425.5 1735.55,-419.5 1741.55,-413.5 1747.55,-413.5"/>
<text text-anchor="middle" x="1773.55" y="-445.2" font-family="Times,serif" font-size="14.00">12:6 &#45; 12:6</text>
<polyline fill="none" stroke="black" points="1735.55,-438 1811.55,-438"/>
<text text-anchor="middle" x="1773.55" y="-420.7" font-family="Times,serif" font-size="14.00">5:0 &#45; 5:0</text>
</g>
<!-- c35&#45;&gt;x14 -->
<g id="edge15" class="edge">
<title>c35:e&#45;&gt;x14:w</title>
<path fill="none" stroke="black" stroke-width="3" d="M1703.5,-421.16C1710.7,-424.94 1715.07,-431.48 1722.33,-435.2"/>
<polygon fill="none" stroke="black" stroke-width="3" points="1705.37,-421.6 1698.61,-424.13 1693.68,-418.87 1700.44,-416.34 1705.37,-421.6"/>
<polygon fill="none" stroke="black" stroke-width="3" points="1720.22,-434.72 1726.96,-432.16 1731.92,-437.4 1725.17,-439.96 1720.22,-434.72"/>
</g>
<!-- x13 -->
<g id="node34" class="node">
<title>x13</title>
<path fill="none" stroke="black" d="M1504.05,-405.5C1504.05,-405.5 1547.05,-405.5 1547.05,-405.5 1553.05,-405.5 1559.05,-411.5 1559.05,-417.5 1559.05,-417.5 1559.05,-442.5 1559.05,-442.5 1559.05,-448.5 1553.05,-454.5 1547.05,-454.5 1547.05,-454.5 1504.05,-454.5 1504.05,-454.5 1498.05,-454.5 1492.05,-448.5 1492.05,-442.5 1492.05,-442.5 1492.05,-417.5 1492.05,-417.5 1492.05,-411.5 1498.05,-405.5 1504.05,-405.5"/>
<text text-anchor="middle" x="1525.55" y="-437.2" font-family="Times,serif" font-size="14.00">0 &#45;&gt; 11:2</text>
<polyline fill="none" stroke="black" points="1492.05,-430 1559.05,-430"/>
<text text-anchor="middle" x="1525.55" y="-412.7" font-family="Times,serif" font-size="14.00">1:0 &#45; 1:0</text>
</g>
<!-- x13&#45;&gt;c35 -->
<g id="edge14" class="edge">
<title>x13:e&#45;&gt;c35:w</title>
<path fill="none" stroke="black" stroke-width="3" d="M1571.77,-430.06C1575.37,-430.1 1578.5,-430.15 1582.08,-430.18"/>
<polygon fill="none" stroke="black" stroke-width="3" points="1573.76,-430.07 1567.74,-434.04 1561.76,-430.01 1567.78,-426.04 1573.76,-430.07"/>
<polygon fill="none" stroke="black" stroke-width="3" points="1580.35,-430.18 1586.37,-426.21 1592.35,-430.24 1586.33,-434.21 1580.35,-430.18"/>
</g>
<!-- x14&#45;&gt;n3 -->
<g id="edge69" class="edge">
<title>x14:e&#45;&gt;n3:w</title>
<path fill="none" stroke="black" stroke-width="3" d="M1812.55,-450.25C1846.49,-450.25 1831.52,-489.55 1856.05,-513 1864.11,-520.71 1867.94,-526.97 1875.01,-530.01"/>
<polygon fill="black" stroke="black" stroke-width="3" points="1871.35,-532.92 1881.8,-531.21 1872.56,-526.02 1871.35,-532.92"/>
</g>
<!-- n9 -->
<g id="node67" class="node">
<title>n9</title>
<ellipse fill="black" stroke="black" cx="2312.24" cy="-503" rx="1.8" ry="1.8"/>
</g>
<!-- x14&#45;&gt;n9 -->
<g id="edge83" class="edge">
<title>x14:e&#45;&gt;n9:w</title>
<path fill="none" stroke="black" stroke-width="3" d="M1812.55,-425.75C1919.67,-425.75 1946.91,-428.85 2052.8,-445 2164.37,-462.01 2190.54,-500.34 2297.64,-502.87"/>
<polygon fill="black" stroke="black" stroke-width="3" points="2294.39,-506.33 2304.43,-502.95 2294.47,-499.33 2294.39,-506.33"/>
</g>
<!-- c36 -->
<g id="node36" class="node">
<title>c36</title>
<polygon fill="none" stroke="black" points="3230.19,-442.5 3230.19,-491.5 3326.19,-491.5 3326.19,-442.5 3230.19,-442.5"/>
<text text-anchor="middle" x="3243.06" y="-474.2" font-family="Times,serif" font-size="14.00">A</text>
<polyline fill="none" stroke="black" points="3230.19,-467 3255.94,-467"/>
<text text-anchor="middle" x="3243.06" y="-449.7" font-family="Times,serif" font-size="14.00">B</text>
<polyline fill="none" stroke="black" points="3255.94,-442.5 3255.94,-491.5"/>
<text text-anchor="middle" x="3278.19" y="-470.2" font-family="Times,serif" font-size="14.00">$66</text>
<text text-anchor="middle" x="3278.19" y="-453.7" font-family="Times,serif" font-size="14.00">$mul</text>
<polyline fill="none" stroke="black" points="3300.44,-442.5 3300.44,-491.5"/>
<text text-anchor="middle" x="3313.31" y="-462.2" font-family="Times,serif" font-size="14.00">Y</text>
</g>
<!-- c36&#45;&gt;n14 -->
<g id="edge45" class="edge">
<title>c36:e&#45;&gt;n14:w</title>
<path fill="none" stroke="black" stroke-width="3" d="M3326.19,-467.25C3337.56,-467.25 3342.87,-467.12 3350.74,-467.05"/>
<polygon fill="black" stroke="black" stroke-width="3" points="3347.66,-470.56 3357.65,-467.02 3347.63,-463.56 3347.66,-470.56"/>
</g>
<!-- x15&#45;&gt;c36 -->
<g id="edge16" class="edge">
<title>x15:e&#45;&gt;c36:w</title>
<path fill="none" stroke="black" stroke-width="3" d="M3205.98,-504.92C3211.18,-499.19 3213.25,-489.93 3218.48,-484.23"/>
<polygon fill="none" stroke="black" stroke-width="3" points="3207.69,-504.19 3203.76,-510.23 3196.67,-508.93 3200.6,-502.88 3207.69,-504.19"/>
<polygon fill="none" stroke="black" stroke-width="3" points="3216.66,-485.01 3220.61,-478.98 3227.7,-480.31 3223.75,-486.34 3216.66,-485.01"/>
</g>
<!-- x16 -->
<g id="node38" class="node">
<title>x16</title>
<path fill="none" stroke="black" d="M3119.31,-399.5C3119.31,-399.5 3162.31,-399.5 3162.31,-399.5 3168.31,-399.5 3174.31,-405.5 3174.31,-411.5 3174.31,-411.5 3174.31,-436.5 3174.31,-436.5 3174.31,-442.5 3168.31,-448.5 3162.31,-448.5 3162.31,-448.5 3119.31,-448.5 3119.31,-448.5 3113.31,-448.5 3107.31,-442.5 3107.31,-436.5 3107.31,-436.5 3107.31,-411.5 3107.31,-411.5 3107.31,-405.5 3113.31,-399.5 3119.31,-399.5"/>
<text text-anchor="middle" x="3140.81" y="-431.2" font-family="Times,serif" font-size="14.00">1 &#45;&gt; 13:6</text>
<polyline fill="none" stroke="black" points="3107.31,-424 3174.31,-424"/>
<text text-anchor="middle" x="3140.81" y="-406.7" font-family="Times,serif" font-size="14.00">5:0 &#45; 5:0</text>
</g>
<!-- x16&#45;&gt;c36 -->
<g id="edge17" class="edge">
<title>x16:e&#45;&gt;c36:w</title>
<path fill="none" stroke="black" stroke-width="3" d="M3187.91,-426.62C3200.35,-432.43 3205.16,-446.33 3217.6,-452.13"/>
<polygon fill="none" stroke="black" stroke-width="3" points="3189.71,-427 3183.02,-429.69 3177.96,-424.55 3184.65,-421.86 3189.71,-427"/>
<polygon fill="none" stroke="black" stroke-width="3" points="3215.79,-451.76 3222.48,-449.06 3227.54,-454.2 3220.85,-456.9 3215.79,-451.76"/>
</g>
<!-- c37 -->
<g id="node39" class="node">
<title>c37</title>
<polygon fill="none" stroke="black" points="283.09,-174.5 283.09,-215.5 374.59,-215.5 374.59,-174.5 283.09,-174.5"/>
<text text-anchor="middle" x="295.97" y="-190.2" font-family="Times,serif" font-size="14.00">A</text>
<polyline fill="none" stroke="black" points="308.84,-174.5 308.84,-215.5"/>
<text text-anchor="middle" x="328.84" y="-198.2" font-family="Times,serif" font-size="14.00">$20</text>
<text text-anchor="middle" x="328.84" y="-181.7" font-family="Times,serif" font-size="14.00">$not</text>
<polyline fill="none" stroke="black" points="348.84,-174.5 348.84,-215.5"/>
<text text-anchor="middle" x="361.72" y="-190.2" font-family="Times,serif" font-size="14.00">Y</text>
</g>
<!-- x18 -->
<g id="node41" class="node">
<title>x18</title>
<path fill="none" stroke="black" d="M447.72,-177C447.72,-177 486.22,-177 486.22,-177 492.22,-177 498.22,-183 498.22,-189 498.22,-189 498.22,-201 498.22,-201 498.22,-207 492.22,-213 486.22,-213 486.22,-213 447.72,-213 447.72,-213 441.72,-213 435.72,-207 435.72,-201 435.72,-201 435.72,-189 435.72,-189 435.72,-183 441.72,-177 447.72,-177"/>
<text text-anchor="middle" x="466.97" y="-190.2" font-family="Times,serif" font-size="14.00">2:0 &#45; 2:0</text>
</g>
<!-- c37&#45;&gt;x18 -->
<g id="edge19" class="edge">
<title>c37:e&#45;&gt;x18:w</title>
<path fill="none" stroke="black" stroke-width="3" d="M388.55,-195.23C401.29,-195.18 409.17,-195.07 421.96,-195.02"/>
<polygon fill="none" stroke="black" stroke-width="3" points="390.3,-195.22 384.3,-199.23 378.3,-195.25 384.29,-191.23 390.3,-195.22"/>
<polygon fill="none" stroke="black" stroke-width="3" points="420.01,-195.03 426.01,-191.02 432.01,-195 426.02,-199.02 420.01,-195.03"/>
</g>
<!-- x17&#45;&gt;c37 -->
<g id="edge18" class="edge">
<title>x17:e&#45;&gt;c37:w</title>
<path fill="none" stroke="black" stroke-width="3" d="M235.93,-195.02C248.67,-195.07 256.54,-195.18 269.34,-195.23"/>
<polygon fill="none" stroke="black" stroke-width="3" points="237.67,-195.03 231.66,-199.02 225.67,-195 231.68,-191.02 237.67,-195.03"/>
<polygon fill="none" stroke="black" stroke-width="3" points="267.39,-195.22 273.39,-191.23 279.39,-195.25 273.38,-199.23 267.39,-195.22"/>
</g>
<!-- x18&#45;&gt;x6 -->
<g id="edge30" class="edge">
<title>x18:e&#45;&gt;x6:w</title>
<path fill="none" stroke="black" stroke-width="3" d="M499.22,-195.25C527.06,-195.25 531.54,-218.56 553.17,-224.75"/>
<polygon fill="black" stroke="black" stroke-width="3" points="549.59,-227.81 559.97,-225.65 550.51,-220.87 549.59,-227.81"/>
</g>
<!-- x20 -->
<g id="node44" class="node">
<title>x20</title>
<path fill="none" stroke="black" d="M1274.68,-176C1274.68,-176 1313.18,-176 1313.18,-176 1319.18,-176 1325.18,-182 1325.18,-188 1325.18,-188 1325.18,-200 1325.18,-200 1325.18,-206 1319.18,-212 1313.18,-212 1313.18,-212 1274.68,-212 1274.68,-212 1268.68,-212 1262.68,-206 1262.68,-200 1262.68,-200 1262.68,-188 1262.68,-188 1262.68,-182 1268.68,-176 1274.68,-176"/>
<text text-anchor="middle" x="1293.93" y="-189.2" font-family="Times,serif" font-size="14.00">2:0 &#45; 2:0</text>
</g>
<!-- c38&#45;&gt;x20 -->
<g id="edge21" class="edge">
<title>c38:e&#45;&gt;x20:w</title>
<path fill="none" stroke="black" stroke-width="3" d="M1213.39,-196.97C1226.97,-196.36 1235.16,-194.89 1248.75,-194.28"/>
<polygon fill="none" stroke="black" stroke-width="3" points="1215.15,-196.94 1209.24,-201.06 1203.15,-197.19 1209.06,-193.06 1215.15,-196.94"/>
<polygon fill="none" stroke="black" stroke-width="3" points="1246.98,-194.31 1252.89,-190.19 1258.97,-194.06 1253.06,-198.19 1246.98,-194.31"/>
</g>
<!-- x19&#45;&gt;c38 -->
<g id="edge20" class="edge">
<title>x19:e&#45;&gt;c38:w</title>
<path fill="none" stroke="black" stroke-width="3" d="M1050.07,-155.57C1070.23,-160.85 1077.77,-178 1098,-183.22"/>
<polygon fill="none" stroke="black" stroke-width="3" points="1051.81,-155.78 1045.37,-159.02 1039.9,-154.33 1046.34,-151.08 1051.81,-155.78"/>
<polygon fill="none" stroke="black" stroke-width="3" points="1096.1,-182.99 1102.53,-179.74 1108.01,-184.43 1101.58,-187.68 1096.1,-182.99"/>
</g>
<!-- n11 -->
<g id="node62" class="node">
<title>n11</title>
<ellipse fill="black" stroke="black" cx="1410.3" cy="-137" rx="1.8" ry="1.8"/>
</g>
<!-- x20&#45;&gt;n11 -->
<g id="edge31" class="edge">
<title>x20:e&#45;&gt;n11:w</title>
<path fill="none" stroke="black" stroke-width="3" d="M1326.18,-194.25C1366.08,-194.25 1363.9,-147.23 1395.91,-138.42"/>
<polygon fill="black" stroke="black" stroke-width="3" points="1393.04,-142.31 1402.52,-137.57 1392.16,-135.36 1393.04,-142.31"/>
</g>
<!-- x22 -->
<g id="node47" class="node">
<title>x22</title>
<path fill="none" stroke="black" d="M1870.3,-170C1870.3,-170 1908.8,-170 1908.8,-170 1914.8,-170 1920.8,-176 1920.8,-182 1920.8,-182 1920.8,-194 1920.8,-194 1920.8,-200 1914.8,-206 1908.8,-206 1908.8,-206 1870.3,-206 1870.3,-206 1864.3,-206 1858.3,-200 1858.3,-194 1858.3,-194 1858.3,-182 1858.3,-182 1858.3,-176 1864.3,-170 1870.3,-170"/>
<text text-anchor="middle" x="1889.55" y="-183.2" font-family="Times,serif" font-size="14.00">2:0 &#45; 2:0</text>
</g>
<!-- c39&#45;&gt;x22 -->
<g id="edge23" class="edge">
<title>c39:e&#45;&gt;x22:w</title>
<path fill="none" stroke="black" stroke-width="3" d="M1832.39,-106.39C1848.21,-120.97 1829.02,-169.9 1845.23,-184.1"/>
<polygon fill="none" stroke="black" stroke-width="3" points="1833.99,-106.92 1827.03,-108.81 1822.62,-103.11 1829.58,-101.22 1833.99,-106.92"/>
<polygon fill="none" stroke="black" stroke-width="3" points="1843.31,-183.48 1850.25,-181.52 1854.73,-187.17 1847.79,-189.13 1843.31,-183.48"/>
</g>
<!-- x21&#45;&gt;c39 -->
<g id="edge22" class="edge">
<title>x21:e&#45;&gt;c39:w</title>
<path fill="none" stroke="black" stroke-width="3" d="M779.95,-43.03C874.74,-43.41 903.09,-48 1003.97,-48 1003.97,-48 1003.97,-48 1526.55,-48 1601.03,-48 1618.5,-63.14 1691.05,-80 1701.9,-82.52 1706.94,-86.06 1714.11,-88.1"/>
<polygon fill="none" stroke="black" stroke-width="3" points="781.8,-43.03 775.79,-47.02 769.8,-43.01 775.8,-39.02 781.8,-43.03"/>
<polygon fill="none" stroke="black" stroke-width="3" points="1712.46,-87.9 1718.92,-84.68 1724.37,-89.41 1717.91,-92.62 1712.46,-87.9"/>
</g>
<!-- n12 -->
<g id="node63" class="node">
<title>n12</title>
<ellipse fill="black" stroke="black" cx="2005.93" cy="-192" rx="1.8" ry="1.8"/>
</g>
<!-- x22&#45;&gt;n12 -->
<g id="edge34" class="edge">
<title>x22:e&#45;&gt;n12:w</title>
<path fill="none" stroke="black" stroke-width="3" d="M1921.8,-188.25C1953.7,-188.25 1964.31,-191.2 1991.39,-191.87"/>
<polygon fill="black" stroke="black" stroke-width="3" points="1988.07,-195.33 1998.11,-191.95 1988.15,-188.33 1988.07,-195.33"/>
</g>
<!-- v23 -->
<g id="node48" class="node">
<title>v23</title>
<ellipse fill="none" stroke="black" cx="2312.24" cy="-686" rx="76.94" ry="18"/>
<text text-anchor="middle" x="2312.24" y="-680.95" font-family="Times,serif" font-size="14.00">12&#39;101010111111</text>
</g>
<!-- c40 -->
<g id="node49" class="node">
<title>c40</title>
<polygon fill="none" stroke="black" points="2425.19,-618.5 2425.19,-667.5 2518.19,-667.5 2518.19,-618.5 2425.19,-618.5"/>
<text text-anchor="middle" x="2438.06" y="-650.2" font-family="Times,serif" font-size="14.00">A</text>
<polyline fill="none" stroke="black" points="2425.19,-643 2450.94,-643"/>
<text text-anchor="middle" x="2438.06" y="-625.7" font-family="Times,serif" font-size="14.00">B</text>
<polyline fill="none" stroke="black" points="2450.94,-618.5 2450.94,-667.5"/>
<text text-anchor="middle" x="2471.69" y="-646.2" font-family="Times,serif" font-size="14.00">$32</text>
<text text-anchor="middle" x="2471.69" y="-629.7" font-family="Times,serif" font-size="14.00">$sub</text>
<polyline fill="none" stroke="black" points="2492.44,-618.5 2492.44,-667.5"/>
<text text-anchor="middle" x="2505.31" y="-638.2" font-family="Times,serif" font-size="14.00">Y</text>
</g>
<!-- v23&#45;&gt;c40 -->
<g id="edge86" class="edge">
<title>v23:e&#45;&gt;c40:w</title>
<path fill="none" stroke="black" stroke-width="3" d="M2389.19,-686C2405.46,-686 2405.51,-667.61 2414.43,-659.27"/>
<polygon fill="black" stroke="black" stroke-width="3" points="2412.79,-663.62 2420.93,-656.84 2410.34,-657.06 2412.79,-663.62"/>
</g>
<!-- x25 -->
<g id="node51" class="node">
<title>x25</title>
<path fill="none" stroke="black" d="M2576.69,-612.5C2576.69,-612.5 2642.19,-612.5 2642.19,-612.5 2648.19,-612.5 2654.19,-618.5 2654.19,-624.5 2654.19,-624.5 2654.19,-649.5 2654.19,-649.5 2654.19,-655.5 2648.19,-661.5 2642.19,-661.5 2642.19,-661.5 2576.69,-661.5 2576.69,-661.5 2570.69,-661.5 2564.69,-655.5 2564.69,-649.5 2564.69,-649.5 2564.69,-624.5 2564.69,-624.5 2564.69,-618.5 2570.69,-612.5 2576.69,-612.5"/>
<text text-anchor="middle" x="2609.44" y="-644.2" font-family="Times,serif" font-size="14.00">12:12 &#45; 13:13</text>
<polyline fill="none" stroke="black" points="2564.69,-637 2654.19,-637"/>
<text text-anchor="middle" x="2609.44" y="-619.7" font-family="Times,serif" font-size="14.00">11:0 &#45; 11:0</text>
</g>
<!-- c40&#45;&gt;x25 -->
<g id="edge25" class="edge">
<title>c40:e&#45;&gt;x25:w</title>
<path fill="none" stroke="black" stroke-width="3" d="M2531.04,-642.27C2538.26,-641.11 2543.54,-639.16 2550.75,-637.99"/>
<polygon fill="none" stroke="black" stroke-width="3" points="2532.85,-642.14 2527.17,-646.58 2520.88,-643.05 2526.56,-638.6 2532.85,-642.14"/>
<polygon fill="none" stroke="black" stroke-width="3" points="2549.03,-638.12 2554.7,-633.68 2560.99,-637.21 2555.31,-641.65 2549.03,-638.12"/>
</g>
<!-- x24&#45;&gt;c40 -->
<g id="edge24" class="edge">
<title>x24:e&#45;&gt;c40:w</title>
<path fill="none" stroke="black" stroke-width="3" d="M2360.65,-630.99C2381.15,-630.94 2391.81,-630.81 2412.27,-630.76"/>
<polygon fill="none" stroke="black" stroke-width="3" points="2362.57,-630.99 2356.58,-634.99 2350.57,-631 2356.57,-626.99 2362.57,-630.99"/>
<polygon fill="none" stroke="black" stroke-width="3" points="2410.48,-630.76 2416.48,-626.76 2422.48,-630.75 2416.49,-634.76 2410.48,-630.76"/>
</g>
<!-- x25&#45;&gt;n19 -->
<g id="edge61" class="edge">
<title>x25:e&#45;&gt;n19:w</title>
<path fill="none" stroke="black" stroke-width="3" d="M2655.19,-624.75C2671.01,-624.75 2677.52,-623.07 2689.27,-622.34"/>
<polygon fill="black" stroke="black" stroke-width="3" points="2686.26,-625.93 2696.15,-622.13 2686.05,-618.93 2686.26,-625.93"/>
</g>
<!-- x25&#45;&gt;n19 -->
<g id="edge62" class="edge">
<title>x25:e&#45;&gt;n19:w</title>
<path fill="none" stroke="black" d="M2655.19,-649.25C2674.34,-649.25 2676.85,-631.26 2689.76,-624.51"/>
<polygon fill="black" stroke="black" points="2690.25,-627.99 2699.21,-622.34 2688.68,-621.17 2690.25,-627.99"/>
</g>
<!-- v26 -->
<g id="node52" class="node">
<title>v26</title>
<ellipse fill="none" stroke="black" cx="1155.57" cy="-396" rx="67.73" ry="18"/>
<text text-anchor="middle" x="1155.57" y="-390.95" font-family="Times,serif" font-size="14.00">10&#39;0000000000</text>
</g>
<!-- x27 -->
<g id="node53" class="node">
<title>x27</title>
<path fill="none" stroke="black" d="M1271.3,-381C1271.3,-381 1316.55,-381 1316.55,-381 1322.55,-381 1328.55,-387 1328.55,-393 1328.55,-393 1328.55,-405 1328.55,-405 1328.55,-411 1322.55,-417 1316.55,-417 1316.55,-417 1271.3,-417 1271.3,-417 1265.3,-417 1259.3,-411 1259.3,-405 1259.3,-405 1259.3,-393 1259.3,-393 1259.3,-387 1265.3,-381 1271.3,-381"/>
<text text-anchor="middle" x="1293.93" y="-394.2" font-family="Times,serif" font-size="14.00">9:0 &#45; 11:2</text>
</g>
<!-- v26&#45;&gt;x27 -->
<g id="edge87" class="edge">
<title>v26:e&#45;&gt;x27:w</title>
<path fill="none" stroke="black" stroke-width="3" d="M1223.3,-396C1234.72,-396 1239.98,-397.52 1247.84,-398.39"/>
<polygon fill="black" stroke="black" stroke-width="3" points="1244.6,-401.73 1254.77,-398.76 1244.97,-394.74 1244.6,-401.73"/>
</g>
<!-- x27&#45;&gt;n4 -->
<g id="edge74" class="edge">
<title>x27:e&#45;&gt;n4:w</title>
<path fill="none" stroke="black" stroke-width="3" d="M1328.55,-399.25C1360.35,-399.25 1369.26,-413.99 1395.87,-417.33"/>
<polygon fill="black" stroke="black" stroke-width="3" points="1392.3,-420.62 1402.49,-417.73 1392.72,-413.64 1392.3,-420.62"/>
</g>
<!-- x28 -->
<g id="node54" class="node">
<title>x28</title>
<path fill="none" stroke="black" d="M1983.3,-523C1983.3,-523 2028.55,-523 2028.55,-523 2034.55,-523 2040.55,-529 2040.55,-535 2040.55,-535 2040.55,-547 2040.55,-547 2040.55,-553 2034.55,-559 2028.55,-559 2028.55,-559 1983.3,-559 1983.3,-559 1977.3,-559 1971.3,-553 1971.3,-547 1971.3,-547 1971.3,-535 1971.3,-535 1971.3,-529 1977.3,-523 1983.3,-523"/>
<text text-anchor="middle" x="2005.93" y="-536.2" font-family="Times,serif" font-size="14.00">10:6 &#45; 4:0</text>
</g>
<!-- x29 -->
<g id="node55" class="node">
<title>x29</title>
<path fill="none" stroke="black" d="M2121.43,-507C2121.43,-507 2166.68,-507 2166.68,-507 2172.68,-507 2178.68,-513 2178.68,-519 2178.68,-519 2178.68,-531 2178.68,-531 2178.68,-537 2172.68,-543 2166.68,-543 2166.68,-543 2121.43,-543 2121.43,-543 2115.43,-543 2109.43,-537 2109.43,-531 2109.43,-531 2109.43,-519 2109.43,-519 2109.43,-513 2115.43,-507 2121.43,-507"/>
<text text-anchor="middle" x="2144.05" y="-520.2" font-family="Times,serif" font-size="14.00">4:0 &#45; 10:6</text>
</g>
<!-- x28&#45;&gt;x29 -->
<g id="edge26" class="edge">
<title>x28:e&#45;&gt;x29:w</title>
<path fill="none" stroke="black" stroke-width="3" d="M2054.53,-539.9C2070.83,-536.96 2079.28,-528.96 2095.64,-526.07"/>
<polygon fill="none" stroke="black" stroke-width="3" points="2056.2,-539.76 2050.56,-544.25 2044.25,-540.77 2049.89,-536.28 2056.2,-539.76"/>
<polygon fill="none" stroke="black" stroke-width="3" points="2093.77,-526.22 2099.42,-521.74 2105.73,-525.22 2100.09,-529.71 2093.77,-526.22"/>
</g>
<!-- x29&#45;&gt;n9 -->
<g id="edge84" class="edge">
<title>x29:e&#45;&gt;n9:w</title>
<path fill="none" stroke="black" stroke-width="3" d="M2179.68,-525.25C2234,-525.25 2248.71,-505.94 2297.62,-503.3"/>
<polygon fill="black" stroke="black" stroke-width="3" points="2294.52,-506.88 2304.43,-503.12 2294.34,-499.88 2294.52,-506.88"/>
</g>
<!-- v30 -->
<g id="node56" class="node">
<title>v30</title>
<ellipse fill="none" stroke="black" cx="1155.57" cy="-136" rx="27" ry="18"/>
<text text-anchor="middle" x="1155.57" y="-130.95" font-family="Times,serif" font-size="14.00">2&#39;00</text>
</g>
<!-- x31 -->
<g id="node57" class="node">
<title>x31</title>
<path fill="none" stroke="black" d="M1274.68,-119C1274.68,-119 1313.18,-119 1313.18,-119 1319.18,-119 1325.18,-125 1325.18,-131 1325.18,-131 1325.18,-143 1325.18,-143 1325.18,-149 1319.18,-155 1313.18,-155 1313.18,-155 1274.68,-155 1274.68,-155 1268.68,-155 1262.68,-149 1262.68,-143 1262.68,-143 1262.68,-131 1262.68,-131 1262.68,-125 1268.68,-119 1274.68,-119"/>
<text text-anchor="middle" x="1293.93" y="-132.2" font-family="Times,serif" font-size="14.00">1:0 &#45; 8:7</text>
</g>
<!-- v30&#45;&gt;x31 -->
<g id="edge88" class="edge">
<title>v30:e&#45;&gt;x31:w</title>
<path fill="none" stroke="black" stroke-width="3" d="M1183.83,-136C1214.37,-136 1224.69,-136.78 1250.5,-136.96"/>
<polygon fill="black" stroke="black" stroke-width="3" points="1247.12,-140.45 1257.14,-136.98 1247.15,-133.45 1247.12,-140.45"/>
</g>
<!-- x31&#45;&gt;n11 -->
<g id="edge32" class="edge">
<title>x31:e&#45;&gt;n11:w</title>
<path fill="none" stroke="black" stroke-width="3" d="M1326.18,-137.25C1358.04,-137.25 1368.71,-137.05 1395.77,-137.01"/>
<polygon fill="black" stroke="black" stroke-width="3" points="1392.49,-140.51 1402.48,-137 1392.48,-133.51 1392.49,-140.51"/>
</g>
<!-- x32 -->
<g id="node58" class="node">
<title>x32</title>
<path fill="none" stroke="black" d="M2124.8,-140C2124.8,-140 2163.3,-140 2163.3,-140 2169.3,-140 2175.3,-146 2175.3,-152 2175.3,-152 2175.3,-164 2175.3,-164 2175.3,-170 2169.3,-176 2163.3,-176 2163.3,-176 2124.8,-176 2124.8,-176 2118.8,-176 2112.8,-170 2112.8,-164 2112.8,-164 2112.8,-152 2112.8,-152 2112.8,-146 2118.8,-140 2124.8,-140"/>
<text text-anchor="middle" x="2144.05" y="-153.2" font-family="Times,serif" font-size="14.00">8:8 &#45; 0:0</text>
</g>
<!-- x33 -->
<g id="node59" class="node">
<title>x33</title>
<path fill="none" stroke="black" d="M2292.99,-164C2292.99,-164 2331.49,-164 2331.49,-164 2337.49,-164 2343.49,-170 2343.49,-176 2343.49,-176 2343.49,-188 2343.49,-188 2343.49,-194 2337.49,-200 2331.49,-200 2331.49,-200 2292.99,-200 2292.99,-200 2286.99,-200 2280.99,-194 2280.99,-188 2280.99,-188 2280.99,-176 2280.99,-176 2280.99,-170 2286.99,-164 2292.99,-164"/>
<text text-anchor="middle" x="2312.24" y="-177.2" font-family="Times,serif" font-size="14.00">0:0 &#45; 7:7</text>
</g>
<!-- x32&#45;&gt;x33 -->
<g id="edge27" class="edge">
<title>x32:e&#45;&gt;x33:w</title>
<path fill="none" stroke="black" d="M2189.14,-158.64C2221.74,-162.04 2234.48,-177.91 2267.03,-181.34"/>
<polygon fill="none" stroke="black" points="2189.19,-158.64 2182.99,-162.34 2177.2,-158.05 2183.39,-154.35 2189.19,-158.64"/>
<polygon fill="none" stroke="black" points="2267.11,-181.35 2273.3,-177.66 2279.09,-181.95 2272.9,-185.65 2267.11,-181.35"/>
</g>
<!-- x33&#45;&gt;n12 -->
<g id="edge35" class="edge">
<title>x33:e&#45;&gt;n12:w</title>
<path fill="none" stroke="black" d="M2344.49,-182.25C2352.62,-182.25 2349.39,-194.92 2343.49,-200.5 2323.32,-219.6 2308.77,-200.84 2280.99,-200.5 2161.56,-199.06 2112.26,-254 2012.47,-197.79"/>
<polygon fill="black" stroke="black" points="2014.34,-194.84 2003.95,-192.77 2010.79,-200.86 2014.34,-194.84"/>
</g>
<!-- x35 -->
<g id="node61" class="node">
<title>x35</title>
<path fill="none" stroke="black" d="M2979.31,-576C2979.31,-576 3031.31,-576 3031.31,-576 3037.31,-576 3043.31,-582 3043.31,-588 3043.31,-588 3043.31,-600 3043.31,-600 3043.31,-606 3037.31,-612 3031.31,-612 3031.31,-612 2979.31,-612 2979.31,-612 2973.31,-612 2967.31,-606 2967.31,-600 2967.31,-600 2967.31,-588 2967.31,-588 2967.31,-582 2973.31,-576 2979.31,-576"/>
<text text-anchor="middle" x="3005.31" y="-589.2" font-family="Times,serif" font-size="14.00">0:0 &#45; 12:12</text>
</g>
<!-- x34&#45;&gt;x35 -->
<g id="edge28" class="edge">
<title>x34:e&#45;&gt;x35:w</title>
<path fill="none" stroke="black" d="M2935.82,-577.97C2942.65,-581.56 2946.97,-587.56 2953.84,-591.11"/>
<polygon fill="none" stroke="black" points="2935.75,-577.95 2928.99,-580.47 2924.07,-575.21 2930.82,-572.69 2935.75,-577.95"/>
<polygon fill="none" stroke="black" points="2953.74,-591.09 2960.49,-588.55 2965.44,-593.8 2958.69,-596.34 2953.74,-591.09"/>
</g>
<!-- x35&#45;&gt;n19 -->
<g id="edge63" class="edge">
<title>x35:e&#45;&gt;n19:w</title>
<path fill="none" stroke="black" d="M3044.31,-594.25C3052.44,-594.25 3048.87,-606.58 3043.31,-612.5 3007.76,-650.37 2863.04,-636.94 2811.19,-640 2761.55,-642.93 2735.43,-674.17 2699.31,-640 2697.31,-638.11 2695.62,-635.39 2694.59,-632.64"/>
<polygon fill="black" stroke="black" points="2697.81,-634.02 2697.81,-623.43 2691.2,-631.71 2697.81,-634.02"/>
</g>
<!-- n11&#45;&gt;x3 -->
<g id="edge33" class="edge">
<title>n11:e&#45;&gt;x3:w</title>
<path fill="none" stroke="black" stroke-width="3" d="M1413.58,-137C1444.86,-137 1455.43,-137.19 1481.85,-137.24"/>
<polygon fill="black" stroke="black" stroke-width="3" points="1478.76,-140.74 1488.76,-137.25 1478.76,-133.74 1478.76,-140.74"/>
</g>
<!-- n12&#45;&gt;x5 -->
<g id="edge37" class="edge">
<title>n12:e&#45;&gt;x5:w</title>
<path fill="none" stroke="black" stroke-width="3" d="M2009.2,-192C2072.39,-192 2048.04,-290.19 2100.63,-302.08"/>
<polygon fill="black" stroke="black" stroke-width="3" points="2096.98,-305.21 2107.29,-302.78 2097.71,-298.25 2096.98,-305.21"/>
</g>
<!-- n12&#45;&gt;x32 -->
<g id="edge36" class="edge">
<title>n12:e&#45;&gt;x32:w</title>
<path fill="none" stroke="black" d="M2009.2,-192C2053.27,-192 2062.44,-163.56 2100.78,-158.89"/>
<polygon fill="black" stroke="black" points="2100.51,-162.42 2110.29,-158.34 2100.1,-155.43 2100.51,-162.42"/>
</g>
<!-- n3&#45;&gt;c23 -->
<g id="edge71" class="edge">
<title>n3:e&#45;&gt;c23:w</title>
<path fill="none" stroke="black" stroke-width="3" d="M1892.83,-532C1923.07,-532 1924.63,-500.8 1947.7,-493"/>
<polygon fill="black" stroke="black" stroke-width="3" points="1945.21,-496.93 1954.56,-491.94 1944.15,-490.01 1945.21,-496.93"/>
</g>
<!-- n3&#45;&gt;x28 -->
<g id="edge72" class="edge">
<title>n3:e&#45;&gt;x28:w</title>
<path fill="none" stroke="black" stroke-width="3" d="M1892.83,-532C1923.44,-532 1933.36,-539.21 1959.12,-540.9"/>
<polygon fill="black" stroke="black" stroke-width="3" points="1955.66,-544.29 1965.76,-541.11 1955.88,-537.3 1955.66,-544.29"/>
</g>
<!-- n4&#45;&gt;x13 -->
<g id="edge75" class="edge">
<title>n4:e&#45;&gt;x13:w</title>
<path fill="none" stroke="black" stroke-width="3" d="M1413.58,-418C1444.37,-418 1454.77,-417.81 1480.78,-417.76"/>
<polygon fill="black" stroke="black" stroke-width="3" points="1477.51,-421.26 1487.51,-417.75 1477.51,-414.26 1477.51,-421.26"/>
</g>
<!-- n6&#45;&gt;x0 -->
<g id="edge79" class="edge">
<title>n6:e&#45;&gt;x0:w</title>
<path fill="none" stroke="black" stroke-width="3" d="M1776.83,-369C1801.55,-369 1804.02,-385.18 1820.05,-404 1837.97,-425.04 1827.93,-456.26 1845.16,-464.62"/>
<polygon fill="black" stroke="black" stroke-width="3" points="1841.11,-467.4 1851.59,-465.88 1842.45,-460.53 1841.11,-467.4"/>
</g>
<!-- n6&#45;&gt;c30 -->
<g id="edge78" class="edge">
<title>n6:e&#45;&gt;c30:w</title>
<path fill="none" stroke="black" stroke-width="3" d="M1776.83,-369C1878.56,-369 1903.2,-388 2004.93,-388 2004.93,-388 2004.93,-388 2313.24,-388 2426.69,-388 2442.85,-472.82 2549.83,-478.46"/>
<polygon fill="black" stroke="black" stroke-width="3" points="2546.56,-481.87 2556.65,-478.63 2546.74,-474.88 2546.56,-481.87"/>
</g>
<!-- n6&#45;&gt;x16 -->
<g id="edge80" class="edge">
<title>n6:e&#45;&gt;x16:w</title>
<path fill="none" stroke="black" stroke-width="3" d="M1776.83,-369C1878.56,-369 1903.2,-350 2004.93,-350 2004.93,-350 2004.93,-350 2886.19,-350 2983.93,-350 3003.29,-407.14 3095.06,-411.49"/>
<polygon fill="black" stroke="black" stroke-width="3" points="3091.7,-414.91 3101.77,-411.64 3091.86,-407.91 3091.7,-414.91"/>
</g>
<!-- n9&#45;&gt;x7 -->
<g id="edge85" class="edge">
<title>n9:e&#45;&gt;x7:w</title>
<path fill="none" stroke="black" stroke-width="3" d="M2315.52,-503C2366.62,-503 2382.16,-503.22 2428.11,-503.25"/>
<polygon fill="black" stroke="black" stroke-width="3" points="2424.89,-506.75 2434.9,-503.25 2424.9,-499.75 2424.89,-506.75"/>
</g>
</g>
</svg>
