<?xml version="1.0" encoding="UTF-8" standalone="no"?>
<!DOCTYPE svg PUBLIC "-//W3C//DTD SVG 1.1//EN"
 "http://www.w3.org/Graphics/SVG/1.1/DTD/svg11.dtd">
<!-- Generated by graphviz version 12.2.1 (20241206.2353)
 -->
<!-- Title: top Pages: 1 -->
<svg width="2426pt" height="415pt"
 viewBox="0.00 0.00 2426.44 414.76" xmlns="http://www.w3.org/2000/svg" xmlns:xlink="http://www.w3.org/1999/xlink">
<g id="graph0" class="graph" transform="scale(1 1) rotate(0) translate(4 410.76)">
<title>top</title>
<polygon fill="white" stroke="none" points="-4,4 -4,-410.76 2422.44,-410.76 2422.44,4 -4,4"/>
<text text-anchor="middle" x="1209.22" y="-7.2" font-family="Times,serif" font-size="14.00">top</text>
<!-- n4 -->
<g id="node1" class="node">
<title>n4</title>
<polygon fill="none" stroke="black" points="893.57,-141.5 809.37,-123.5 893.57,-105.5 977.78,-123.5 893.57,-141.5"/>
<text text-anchor="middle" x="893.57" y="-118.45" font-family="Times,serif" font-size="14.00">expr_554950</text>
</g>
<!-- x9 -->
<g id="node24" class="node">
<title>x9</title>
<path fill="none" stroke="black" d="M1025.78,-111C1025.78,-111 1064.28,-111 1064.28,-111 1070.28,-111 1076.28,-117 1076.28,-123 1076.28,-123 1076.28,-148 1076.28,-148 1076.28,-154 1070.28,-160 1064.28,-160 1064.28,-160 1025.78,-160 1025.78,-160 1019.78,-160 1013.78,-154 1013.78,-148 1013.78,-148 1013.78,-123 1013.78,-123 1013.78,-117 1019.78,-111 1025.78,-111"/>
<text text-anchor="middle" x="1045.03" y="-142.7" font-family="Times,serif" font-size="14.00">0 &#45;&gt; 4:4</text>
<polyline fill="none" stroke="black" points="1013.78,-135.5 1076.28,-135.5"/>
<text text-anchor="middle" x="1045.03" y="-118.2" font-family="Times,serif" font-size="14.00">3:0 &#45; 3:0</text>
</g>
<!-- n4&#45;&gt;x9 -->
<g id="edge26" class="edge">
<title>n4:e&#45;&gt;x9:w</title>
<path fill="none" stroke="black" stroke-width="3" d="M977.78,-123.5C989.15,-123.5 994.46,-123.37 1002.33,-123.3"/>
<polygon fill="black" stroke="black" stroke-width="3" points="999.25,-126.81 1009.24,-123.27 999.22,-119.81 999.25,-126.81"/>
</g>
<!-- n5 -->
<g id="node2" class="node">
<title>n5</title>
<polygon fill="none" stroke="black" points="107.84,-201.04 107.84,-215.96 76.26,-226.5 31.59,-226.5 0,-215.96 0,-201.04 31.59,-190.5 76.26,-190.5 107.84,-201.04"/>
<text text-anchor="middle" x="53.92" y="-203.45" font-family="Times,serif" font-size="14.00">input_data</text>
</g>
<!-- x1 -->
<g id="node11" class="node">
<title>x1</title>
<path fill="none" stroke="black" d="M1985.88,-190.25C1985.88,-190.25 2024.38,-190.25 2024.38,-190.25 2030.38,-190.25 2036.38,-196.25 2036.38,-202.25 2036.38,-202.25 2036.38,-300.75 2036.38,-300.75 2036.38,-306.75 2030.38,-312.75 2024.38,-312.75 2024.38,-312.75 1985.88,-312.75 1985.88,-312.75 1979.88,-312.75 1973.88,-306.75 1973.88,-300.75 1973.88,-300.75 1973.88,-202.25 1973.88,-202.25 1973.88,-196.25 1979.88,-190.25 1985.88,-190.25"/>
<text text-anchor="middle" x="2005.13" y="-295.45" font-family="Times,serif" font-size="14.00">0 &#45;&gt; 6:6</text>
<polyline fill="none" stroke="black" points="1973.88,-288.25 2036.38,-288.25"/>
<text text-anchor="middle" x="2005.13" y="-270.95" font-family="Times,serif" font-size="14.00">5:5 &#45; 5:5</text>
<polyline fill="none" stroke="black" points="1973.88,-263.75 2036.38,-263.75"/>
<text text-anchor="middle" x="2005.13" y="-246.45" font-family="Times,serif" font-size="14.00">4:4 &#45; 4:4</text>
<polyline fill="none" stroke="black" points="1973.88,-239.25 2036.38,-239.25"/>
<text text-anchor="middle" x="2005.13" y="-221.95" font-family="Times,serif" font-size="14.00">3:1 &#45; 3:1</text>
<polyline fill="none" stroke="black" points="1973.88,-214.75 2036.38,-214.75"/>
<text text-anchor="middle" x="2005.13" y="-197.45" font-family="Times,serif" font-size="14.00">0:0 &#45; 0:0</text>
</g>
<!-- n5&#45;&gt;x1 -->
<g id="edge29" class="edge">
<title>n5:e&#45;&gt;x1:w</title>
<path fill="none" stroke="black" d="M107.84,-208.5C182.9,-208.5 90.46,-320.73 143.84,-373.5 190.8,-419.92 223.31,-403.5 289.34,-403.5 289.34,-403.5 289.34,-403.5 1868.03,-403.5 1937.51,-403.5 1904.55,-290.03 1962.43,-277.18"/>
<polygon fill="black" stroke="black" points="1962.78,-280.66 1972.37,-276.16 1962.07,-273.7 1962.78,-280.66"/>
</g>
<!-- x4 -->
<g id="node15" class="node">
<title>x4</title>
<path fill="none" stroke="black" d="M155.84,-300.5C155.84,-300.5 194.34,-300.5 194.34,-300.5 200.34,-300.5 206.34,-306.5 206.34,-312.5 206.34,-312.5 206.34,-324.5 206.34,-324.5 206.34,-330.5 200.34,-336.5 194.34,-336.5 194.34,-336.5 155.84,-336.5 155.84,-336.5 149.84,-336.5 143.84,-330.5 143.84,-324.5 143.84,-324.5 143.84,-312.5 143.84,-312.5 143.84,-306.5 149.84,-300.5 155.84,-300.5"/>
<text text-anchor="middle" x="175.09" y="-313.7" font-family="Times,serif" font-size="14.00">4:0 &#45; 4:0</text>
</g>
<!-- n5&#45;&gt;x4 -->
<g id="edge30" class="edge">
<title>n5:e&#45;&gt;x4:w</title>
<path fill="none" stroke="black" stroke-width="3" d="M107.84,-208.5C154.76,-208.5 103.39,-299.83 132.65,-316.24"/>
<polygon fill="black" stroke="black" stroke-width="3" points="128.89,-318.98 139.41,-317.76 130.42,-312.15 128.89,-318.98"/>
</g>
<!-- x5 -->
<g id="node16" class="node">
<title>x5</title>
<path fill="none" stroke="black" d="M155.84,-245.5C155.84,-245.5 194.34,-245.5 194.34,-245.5 200.34,-245.5 206.34,-251.5 206.34,-257.5 206.34,-257.5 206.34,-269.5 206.34,-269.5 206.34,-275.5 200.34,-281.5 194.34,-281.5 194.34,-281.5 155.84,-281.5 155.84,-281.5 149.84,-281.5 143.84,-275.5 143.84,-269.5 143.84,-269.5 143.84,-257.5 143.84,-257.5 143.84,-251.5 149.84,-245.5 155.84,-245.5"/>
<text text-anchor="middle" x="175.09" y="-258.7" font-family="Times,serif" font-size="14.00">4:0 &#45; 4:0</text>
</g>
<!-- n5&#45;&gt;x5 -->
<g id="edge31" class="edge">
<title>n5:e&#45;&gt;x5:w</title>
<path fill="none" stroke="black" stroke-width="3" d="M107.84,-208.5C132.34,-208.5 120.56,-247.11 133.15,-259.78"/>
<polygon fill="black" stroke="black" stroke-width="3" points="128.99,-261.96 139.58,-262.17 131.43,-255.4 128.99,-261.96"/>
</g>
<!-- c17 -->
<g id="node17" class="node">
<title>c17</title>
<polygon fill="none" stroke="black" points="246.84,-70 246.84,-119 333.84,-119 333.84,-70 246.84,-70"/>
<text text-anchor="middle" x="259.72" y="-101.7" font-family="Times,serif" font-size="14.00">A</text>
<polyline fill="none" stroke="black" points="246.84,-94.5 272.59,-94.5"/>
<text text-anchor="middle" x="259.72" y="-77.2" font-family="Times,serif" font-size="14.00">B</text>
<polyline fill="none" stroke="black" points="272.59,-70 272.59,-119"/>
<text text-anchor="middle" x="290.34" y="-97.7" font-family="Times,serif" font-size="14.00">$5</text>
<text text-anchor="middle" x="290.34" y="-81.2" font-family="Times,serif" font-size="14.00">$ge</text>
<polyline fill="none" stroke="black" points="308.09,-70 308.09,-119"/>
<text text-anchor="middle" x="320.97" y="-89.7" font-family="Times,serif" font-size="14.00">Y</text>
</g>
<!-- n5&#45;&gt;c17 -->
<g id="edge27" class="edge">
<title>n5:e&#45;&gt;c17:w</title>
<path fill="none" stroke="black" stroke-width="3" d="M107.84,-208.5C147.64,-208.5 112.75,-151.35 143.84,-126.5 176.81,-100.15 196.15,-105.47 234.49,-106.58"/>
<polygon fill="black" stroke="black" stroke-width="3" points="231.25,-110.03 241.3,-106.68 231.35,-103.03 231.25,-110.03"/>
</g>
<!-- x6 -->
<g id="node18" class="node">
<title>x6</title>
<path fill="none" stroke="black" d="M155.84,-29C155.84,-29 194.34,-29 194.34,-29 200.34,-29 206.34,-35 206.34,-41 206.34,-41 206.34,-66 206.34,-66 206.34,-72 200.34,-78 194.34,-78 194.34,-78 155.84,-78 155.84,-78 149.84,-78 143.84,-72 143.84,-66 143.84,-66 143.84,-41 143.84,-41 143.84,-35 149.84,-29 155.84,-29"/>
<text text-anchor="middle" x="175.09" y="-60.7" font-family="Times,serif" font-size="14.00">5:5 &#45; 6:6</text>
<polyline fill="none" stroke="black" points="143.84,-53.5 206.34,-53.5"/>
<text text-anchor="middle" x="175.09" y="-36.2" font-family="Times,serif" font-size="14.00">5:0 &#45; 5:0</text>
</g>
<!-- n5&#45;&gt;x6 -->
<g id="edge32" class="edge">
<title>n5:e&#45;&gt;x6:w</title>
<path fill="none" stroke="black" stroke-width="3" d="M107.84,-208.5C179.57,-208.5 80.34,-59.66 132.7,-42.8"/>
<polygon fill="black" stroke="black" stroke-width="3" points="129.92,-46.72 139.34,-41.88 128.96,-39.79 129.92,-46.72"/>
</g>
<!-- n5&#45;&gt;x6 -->
<g id="edge33" class="edge">
<title>n5:e&#45;&gt;x6:w</title>
<path fill="none" stroke="black" d="M107.84,-208.5C168.8,-208.5 90.63,-84.6 132.57,-67.66"/>
<polygon fill="black" stroke="black" points="133.07,-71.12 142.35,-66 131.9,-64.22 133.07,-71.12"/>
</g>
<!-- x7 -->
<g id="node20" class="node">
<title>x7</title>
<path fill="none" stroke="black" d="M155.84,-190.5C155.84,-190.5 194.34,-190.5 194.34,-190.5 200.34,-190.5 206.34,-196.5 206.34,-202.5 206.34,-202.5 206.34,-214.5 206.34,-214.5 206.34,-220.5 200.34,-226.5 194.34,-226.5 194.34,-226.5 155.84,-226.5 155.84,-226.5 149.84,-226.5 143.84,-220.5 143.84,-214.5 143.84,-214.5 143.84,-202.5 143.84,-202.5 143.84,-196.5 149.84,-190.5 155.84,-190.5"/>
<text text-anchor="middle" x="175.09" y="-203.7" font-family="Times,serif" font-size="14.00">4:0 &#45; 4:0</text>
</g>
<!-- n5&#45;&gt;x7 -->
<g id="edge34" class="edge">
<title>n5:e&#45;&gt;x7:w</title>
<path fill="none" stroke="black" stroke-width="3" d="M107.84,-208.5C119.22,-208.5 124.53,-208.63 132.39,-208.7"/>
<polygon fill="black" stroke="black" stroke-width="3" points="129.28,-212.19 139.3,-208.73 129.32,-205.19 129.28,-212.19"/>
</g>
<!-- x8 -->
<g id="node21" class="node">
<title>x8</title>
<path fill="none" stroke="black" d="M155.84,-135.5C155.84,-135.5 194.34,-135.5 194.34,-135.5 200.34,-135.5 206.34,-141.5 206.34,-147.5 206.34,-147.5 206.34,-159.5 206.34,-159.5 206.34,-165.5 200.34,-171.5 194.34,-171.5 194.34,-171.5 155.84,-171.5 155.84,-171.5 149.84,-171.5 143.84,-165.5 143.84,-159.5 143.84,-159.5 143.84,-147.5 143.84,-147.5 143.84,-141.5 149.84,-135.5 155.84,-135.5"/>
<text text-anchor="middle" x="175.09" y="-148.7" font-family="Times,serif" font-size="14.00">3:0 &#45; 3:0</text>
</g>
<!-- n5&#45;&gt;x8 -->
<g id="edge35" class="edge">
<title>n5:e&#45;&gt;x8:w</title>
<path fill="none" stroke="black" stroke-width="3" d="M107.84,-208.5C132.19,-208.5 120.63,-170.24 133.2,-157.69"/>
<polygon fill="black" stroke="black" stroke-width="3" points="131.42,-162.08 139.58,-155.33 128.99,-155.51 131.42,-162.08"/>
</g>
<!-- x13 -->
<g id="node28" class="node">
<title>x13</title>
<path fill="none" stroke="black" d="M1749.28,-163.5C1749.28,-163.5 1787.78,-163.5 1787.78,-163.5 1793.78,-163.5 1799.78,-169.5 1799.78,-175.5 1799.78,-175.5 1799.78,-249.5 1799.78,-249.5 1799.78,-255.5 1793.78,-261.5 1787.78,-261.5 1787.78,-261.5 1749.28,-261.5 1749.28,-261.5 1743.28,-261.5 1737.28,-255.5 1737.28,-249.5 1737.28,-249.5 1737.28,-175.5 1737.28,-175.5 1737.28,-169.5 1743.28,-163.5 1749.28,-163.5"/>
<text text-anchor="middle" x="1768.53" y="-244.2" font-family="Times,serif" font-size="14.00">0 &#45;&gt; 5:5</text>
<polyline fill="none" stroke="black" points="1737.28,-237 1799.78,-237"/>
<text text-anchor="middle" x="1768.53" y="-219.7" font-family="Times,serif" font-size="14.00">5:5 &#45; 4:4</text>
<polyline fill="none" stroke="black" points="1737.28,-212.5 1799.78,-212.5"/>
<text text-anchor="middle" x="1768.53" y="-195.2" font-family="Times,serif" font-size="14.00">3:1 &#45; 3:1</text>
<polyline fill="none" stroke="black" points="1737.28,-188 1799.78,-188"/>
<text text-anchor="middle" x="1768.53" y="-170.7" font-family="Times,serif" font-size="14.00">0:0 &#45; 0:0</text>
</g>
<!-- n5&#45;&gt;x13 -->
<g id="edge28" class="edge">
<title>n5:e&#45;&gt;x13:w</title>
<path fill="none" stroke="black" d="M107.84,-208.5C171.23,-208.5 96.3,-304.57 143.84,-346.5 192.75,-389.64 224.13,-365.5 289.34,-365.5 289.34,-365.5 289.34,-365.5 1524.53,-365.5 1633.92,-365.5 1624.73,-234.47 1725.78,-225.26"/>
<polygon fill="black" stroke="black" points="1725.93,-228.76 1735.77,-224.82 1725.62,-221.76 1725.93,-228.76"/>
</g>
<!-- n6 -->
<g id="node3" class="node">
<title>n6</title>
<polygon fill="none" stroke="black" points="2418.44,-154.04 2418.44,-168.96 2383.93,-179.5 2335.13,-179.5 2300.63,-168.96 2300.63,-154.04 2335.13,-143.5 2383.93,-143.5 2418.44,-154.04"/>
<text text-anchor="middle" x="2359.53" y="-156.45" font-family="Times,serif" font-size="14.00">output_data</text>
</g>
<!-- n7 -->
<g id="node4" class="node">
<title>n7</title>
<polygon fill="none" stroke="black" points="436.11,-195.5 380.86,-177.5 436.11,-159.5 491.36,-177.5 436.11,-195.5"/>
<text text-anchor="middle" x="436.11" y="-172.45" font-family="Times,serif" font-size="14.00">temp_1</text>
</g>
<!-- x0 -->
<g id="node9" class="node">
<title>x0</title>
<path fill="none" stroke="black" d="M545.87,-123.5C545.87,-123.5 584.37,-123.5 584.37,-123.5 590.37,-123.5 596.37,-129.5 596.37,-135.5 596.37,-135.5 596.37,-147.5 596.37,-147.5 596.37,-153.5 590.37,-159.5 584.37,-159.5 584.37,-159.5 545.87,-159.5 545.87,-159.5 539.87,-159.5 533.87,-153.5 533.87,-147.5 533.87,-147.5 533.87,-135.5 533.87,-135.5 533.87,-129.5 539.87,-123.5 545.87,-123.5"/>
<text text-anchor="middle" x="565.12" y="-136.7" font-family="Times,serif" font-size="14.00">2:0 &#45; 2:0</text>
</g>
<!-- n7&#45;&gt;x0 -->
<g id="edge40" class="edge">
<title>n7:e&#45;&gt;x0:w</title>
<path fill="none" stroke="black" stroke-width="3" d="M493.73,-177.5C512.96,-177.5 511.76,-154.35 523.01,-145.31"/>
<polygon fill="black" stroke="black" stroke-width="3" points="521.14,-149.6 529.56,-143.16 518.96,-142.95 521.14,-149.6"/>
</g>
<!-- c19 -->
<g id="node22" class="node">
<title>c19</title>
<polygon fill="none" stroke="black" points="632.37,-168 632.37,-209 773.37,-209 773.37,-168 632.37,-168"/>
<text text-anchor="middle" x="645.25" y="-183.7" font-family="Times,serif" font-size="14.00">A</text>
<polyline fill="none" stroke="black" points="658.12,-168 658.12,-209"/>
<text text-anchor="middle" x="702.87" y="-191.7" font-family="Times,serif" font-size="14.00">$8</text>
<text text-anchor="middle" x="702.87" y="-175.2" font-family="Times,serif" font-size="14.00">$reduce_bool</text>
<polyline fill="none" stroke="black" points="747.62,-168 747.62,-209"/>
<text text-anchor="middle" x="760.5" y="-183.7" font-family="Times,serif" font-size="14.00">Y</text>
</g>
<!-- n7&#45;&gt;c19 -->
<g id="edge39" class="edge">
<title>n7:e&#45;&gt;c19:w</title>
<path fill="none" stroke="black" stroke-width="3" d="M493.73,-177.5C551.57,-177.5 568.42,-187.35 620.98,-188.62"/>
<polygon fill="black" stroke="black" stroke-width="3" points="617.79,-192.08 627.83,-188.7 617.87,-185.08 617.79,-192.08"/>
</g>
<!-- n8 -->
<g id="node5" class="node">
<title>n8</title>
<polygon fill="none" stroke="black" points="436.11,-112.5 374.34,-94.5 436.11,-76.5 497.87,-94.5 436.11,-112.5"/>
<text text-anchor="middle" x="436.11" y="-89.45" font-family="Times,serif" font-size="14.00">temp_10</text>
</g>
<!-- c14 -->
<g id="node8" class="node">
<title>c14</title>
<polygon fill="none" stroke="black" points="656,-99 656,-148 749.75,-148 749.75,-99 656,-99"/>
<text text-anchor="middle" x="668.87" y="-130.7" font-family="Times,serif" font-size="14.00">A</text>
<polyline fill="none" stroke="black" points="656,-123.5 681.75,-123.5"/>
<text text-anchor="middle" x="668.87" y="-106.2" font-family="Times,serif" font-size="14.00">B</text>
<polyline fill="none" stroke="black" points="681.75,-99 681.75,-148"/>
<text text-anchor="middle" x="702.87" y="-126.7" font-family="Times,serif" font-size="14.00">$6</text>
<text text-anchor="middle" x="702.87" y="-110.2" font-family="Times,serif" font-size="14.00">$add</text>
<polyline fill="none" stroke="black" points="724,-99 724,-148"/>
<text text-anchor="middle" x="736.87" y="-118.7" font-family="Times,serif" font-size="14.00">Y</text>
</g>
<!-- n8&#45;&gt;c14 -->
<g id="edge42" class="edge">
<title>n8:e&#45;&gt;c14:w</title>
<path fill="none" stroke="black" d="M497.87,-94.5C564.12,-94.5 582.71,-109.41 643.56,-111.09"/>
<polygon fill="black" stroke="black" points="643.44,-114.59 653.48,-111.23 643.53,-107.59 643.44,-114.59"/>
</g>
<!-- n9 -->
<g id="node6" class="node">
<title>n9</title>
<polygon fill="none" stroke="black" points="1401.03,-118.5 1345.78,-100.5 1401.03,-82.5 1456.28,-100.5 1401.03,-118.5"/>
<text text-anchor="middle" x="1401.03" y="-95.45" font-family="Times,serif" font-size="14.00">temp_5</text>
</g>
<!-- n9&#45;&gt;x1 -->
<g id="edge46" class="edge">
<title>n9:e&#45;&gt;x1:w</title>
<path fill="none" stroke="black" d="M1456.28,-100.5C1609.38,-100.5 1651.19,-89.58 1799.78,-126.5 1877.87,-145.91 1888.56,-197.36 1962.5,-202.14"/>
<polygon fill="black" stroke="black" points="1962.26,-205.64 1972.37,-202.45 1962.48,-198.64 1962.26,-205.64"/>
</g>
<!-- x2 -->
<g id="node12" class="node">
<title>x2</title>
<path fill="none" stroke="black" d="M1985.88,-97.75C1985.88,-97.75 2024.38,-97.75 2024.38,-97.75 2030.38,-97.75 2036.38,-103.75 2036.38,-109.75 2036.38,-109.75 2036.38,-159.25 2036.38,-159.25 2036.38,-165.25 2030.38,-171.25 2024.38,-171.25 2024.38,-171.25 1985.88,-171.25 1985.88,-171.25 1979.88,-171.25 1973.88,-165.25 1973.88,-159.25 1973.88,-159.25 1973.88,-109.75 1973.88,-109.75 1973.88,-103.75 1979.88,-97.75 1985.88,-97.75"/>
<text text-anchor="middle" x="2005.13" y="-153.95" font-family="Times,serif" font-size="14.00">4:4 &#45; 4:4</text>
<polyline fill="none" stroke="black" points="1973.88,-146.75 2036.38,-146.75"/>
<text text-anchor="middle" x="2005.13" y="-129.45" font-family="Times,serif" font-size="14.00">3:1 &#45; 3:1</text>
<polyline fill="none" stroke="black" points="1973.88,-122.25 2036.38,-122.25"/>
<text text-anchor="middle" x="2005.13" y="-104.95" font-family="Times,serif" font-size="14.00">0:0 &#45; 0:0</text>
</g>
<!-- n9&#45;&gt;x2 -->
<g id="edge47" class="edge">
<title>n9:e&#45;&gt;x2:w</title>
<path fill="none" stroke="black" d="M1456.28,-100.5C1546.71,-100.5 1554.59,-24.5 1645.03,-24.5 1645.03,-24.5 1645.03,-24.5 1868.03,-24.5 1874.35,-24.5 1938.79,-84.25 1964.18,-103.85"/>
<polygon fill="black" stroke="black" points="1962.28,-106.79 1972.6,-109.19 1966.03,-100.88 1962.28,-106.79"/>
</g>
<!-- n9&#45;&gt;x13 -->
<g id="edge44" class="edge">
<title>n9:e&#45;&gt;x13:w</title>
<path fill="none" stroke="black" d="M1456.28,-100.5C1517.39,-100.5 1656.3,-167.74 1725.92,-175.1"/>
<polygon fill="black" stroke="black" points="1725.58,-178.59 1735.77,-175.66 1725.98,-171.6 1725.58,-178.59"/>
</g>
<!-- x15 -->
<g id="node30" class="node">
<title>x15</title>
<path fill="none" stroke="black" d="M1504.28,-137.5C1504.28,-137.5 1542.78,-137.5 1542.78,-137.5 1548.78,-137.5 1554.78,-143.5 1554.78,-149.5 1554.78,-149.5 1554.78,-161.5 1554.78,-161.5 1554.78,-167.5 1548.78,-173.5 1542.78,-173.5 1542.78,-173.5 1504.28,-173.5 1504.28,-173.5 1498.28,-173.5 1492.28,-167.5 1492.28,-161.5 1492.28,-161.5 1492.28,-149.5 1492.28,-149.5 1492.28,-143.5 1498.28,-137.5 1504.28,-137.5"/>
<text text-anchor="middle" x="1523.53" y="-150.7" font-family="Times,serif" font-size="14.00">0:0 &#45; 0:0</text>
</g>
<!-- n9&#45;&gt;x15 -->
<g id="edge45" class="edge">
<title>n9:e&#45;&gt;x15:w</title>
<path fill="none" stroke="black" d="M1456.28,-100.5C1480.7,-100.5 1469.03,-138.93 1481.61,-151.54"/>
<polygon fill="black" stroke="black" points="1480.26,-154.78 1490.86,-154.97 1482.7,-148.21 1480.26,-154.78"/>
</g>
<!-- n10 -->
<g id="node7" class="node">
<title>n10</title>
<polygon fill="none" stroke="black" points="1646.03,-218.5 1590.78,-200.5 1646.03,-182.5 1701.28,-200.5 1646.03,-218.5"/>
<text text-anchor="middle" x="1646.03" y="-195.45" font-family="Times,serif" font-size="14.00">temp_9</text>
</g>
<!-- n10&#45;&gt;x1 -->
<g id="edge21" class="edge">
<title>n10:e&#45;&gt;x1:w</title>
<path fill="none" stroke="black" stroke-width="3" d="M1701.28,-200.5C1736.66,-200.5 1707.13,-252.98 1737.28,-271.5 1813.75,-318.46 1855.39,-283.83 1937.88,-248.5 1950.73,-243 1954.07,-233.65 1962.8,-229.33"/>
<polygon fill="black" stroke="black" stroke-width="3" points="1960.37,-233.42 1969.43,-227.93 1958.93,-226.56 1960.37,-233.42"/>
</g>
<!-- n10&#45;&gt;x2 -->
<g id="edge22" class="edge">
<title>n10:e&#45;&gt;x2:w</title>
<path fill="none" stroke="black" stroke-width="3" d="M1701.28,-200.5C1727.24,-200.5 1714.44,-166.84 1737.28,-154.5 1826.67,-106.18 1865.43,-132.37 1962.4,-134.38"/>
<polygon fill="black" stroke="black" stroke-width="3" points="1959.3,-137.85 1969.34,-134.45 1959.37,-130.85 1959.3,-137.85"/>
</g>
<!-- n10&#45;&gt;x13 -->
<g id="edge20" class="edge">
<title>n10:e&#45;&gt;x13:w</title>
<path fill="none" stroke="black" stroke-width="3" d="M1701.28,-200.5C1712.65,-200.5 1717.96,-200.37 1725.83,-200.3"/>
<polygon fill="black" stroke="black" stroke-width="3" points="1722.75,-203.81 1732.74,-200.27 1722.72,-196.81 1722.75,-203.81"/>
</g>
<!-- c14&#45;&gt;n4 -->
<g id="edge25" class="edge">
<title>c14:e&#45;&gt;n4:w</title>
<path fill="none" stroke="black" stroke-width="3" d="M750.75,-123.75C772.53,-123.75 780.65,-123.58 797.95,-123.52"/>
<polygon fill="black" stroke="black" stroke-width="3" points="794.84,-127.02 804.83,-123.51 794.82,-120.02 794.84,-127.02"/>
</g>
<!-- x0&#45;&gt;c14 -->
<g id="edge1" class="edge">
<title>x0:e&#45;&gt;c14:w</title>
<path fill="none" stroke="black" stroke-width="3" d="M609.26,-140.97C621.9,-139.87 629.62,-137.35 642.31,-136.26"/>
<polygon fill="none" stroke="black" stroke-width="3" points="611.06,-140.9 605.23,-145.14 599.07,-141.39 604.9,-137.15 611.06,-140.9"/>
<polygon fill="none" stroke="black" stroke-width="3" points="640.3,-136.34 646.14,-132.11 652.29,-135.86 646.46,-140.1 640.3,-136.34"/>
</g>
<!-- c15 -->
<g id="node10" class="node">
<title>c15</title>
<polygon fill="none" stroke="black" points="2072.38,-168 2072.38,-217 2166.13,-217 2166.13,-168 2072.38,-168"/>
<text text-anchor="middle" x="2085.25" y="-199.7" font-family="Times,serif" font-size="14.00">A</text>
<polyline fill="none" stroke="black" points="2072.38,-192.5 2098.13,-192.5"/>
<text text-anchor="middle" x="2085.25" y="-175.2" font-family="Times,serif" font-size="14.00">B</text>
<polyline fill="none" stroke="black" points="2098.13,-168 2098.13,-217"/>
<text text-anchor="middle" x="2119.25" y="-195.7" font-family="Times,serif" font-size="14.00">$19</text>
<text text-anchor="middle" x="2119.25" y="-179.2" font-family="Times,serif" font-size="14.00">$add</text>
<polyline fill="none" stroke="black" points="2140.38,-168 2140.38,-217"/>
<text text-anchor="middle" x="2153.25" y="-187.7" font-family="Times,serif" font-size="14.00">Y</text>
</g>
<!-- x3 -->
<g id="node13" class="node">
<title>x3</title>
<path fill="none" stroke="black" d="M2214.13,-172.5C2214.13,-172.5 2252.63,-172.5 2252.63,-172.5 2258.63,-172.5 2264.63,-178.5 2264.63,-184.5 2264.63,-184.5 2264.63,-196.5 2264.63,-196.5 2264.63,-202.5 2258.63,-208.5 2252.63,-208.5 2252.63,-208.5 2214.13,-208.5 2214.13,-208.5 2208.13,-208.5 2202.13,-202.5 2202.13,-196.5 2202.13,-196.5 2202.13,-184.5 2202.13,-184.5 2202.13,-178.5 2208.13,-172.5 2214.13,-172.5"/>
<text text-anchor="middle" x="2233.38" y="-185.7" font-family="Times,serif" font-size="14.00">7:0 &#45; 7:0</text>
</g>
<!-- c15&#45;&gt;x3 -->
<g id="edge4" class="edge">
<title>c15:e&#45;&gt;x3:w</title>
<path fill="none" stroke="black" stroke-width="3" d="M2178.86,-192.18C2182.45,-191.85 2185.58,-191.43 2189.15,-191.09"/>
<polygon fill="none" stroke="black" stroke-width="3" points="2180.82,-192.09 2175,-196.36 2168.83,-192.63 2174.65,-188.37 2180.82,-192.09"/>
<polygon fill="none" stroke="black" stroke-width="3" points="2187.44,-191.17 2193.25,-186.9 2199.43,-190.62 2193.61,-194.89 2187.44,-191.17"/>
</g>
<!-- x1&#45;&gt;c15 -->
<g id="edge2" class="edge">
<title>x1:e&#45;&gt;c15:w</title>
<path fill="none" stroke="black" stroke-width="3" d="M2048.08,-246.14C2055.04,-237.12 2053.72,-219.03 2060.73,-210.05"/>
<polygon fill="none" stroke="black" stroke-width="3" points="2049.74,-245.37 2045.96,-251.51 2038.84,-250.37 2042.62,-244.24 2049.74,-245.37"/>
<polygon fill="none" stroke="black" stroke-width="3" points="2058.99,-210.84 2062.8,-204.71 2069.92,-205.87 2066.11,-212 2058.99,-210.84"/>
</g>
<!-- x2&#45;&gt;c15 -->
<g id="edge3" class="edge">
<title>x2:e&#45;&gt;c15:w</title>
<path fill="none" stroke="black" stroke-width="3" d="M2047.98,-139.75C2054.87,-148.48 2053.85,-165.9 2060.61,-174.78"/>
<polygon fill="none" stroke="black" stroke-width="3" points="2049.77,-140.56 2042.66,-141.73 2038.84,-135.61 2045.96,-134.44 2049.77,-140.56"/>
<polygon fill="none" stroke="black" stroke-width="3" points="2059.04,-174.05 2066.17,-172.95 2069.93,-179.11 2062.8,-180.21 2059.04,-174.05"/>
</g>
<!-- x3&#45;&gt;n6 -->
<g id="edge37" class="edge">
<title>x3:e&#45;&gt;n6:w</title>
<path fill="none" stroke="black" stroke-width="3" d="M2264.63,-190.75C2280.57,-190.75 2281.06,-173.25 2289.99,-165.32"/>
<polygon fill="black" stroke="black" stroke-width="3" points="2288.13,-169.71 2296.36,-163.04 2285.76,-163.13 2288.13,-169.71"/>
</g>
<!-- c16 -->
<g id="node14" class="node">
<title>c16</title>
<polygon fill="none" stroke="black" points="243.47,-251 243.47,-300 337.22,-300 337.22,-251 243.47,-251"/>
<text text-anchor="middle" x="256.34" y="-282.7" font-family="Times,serif" font-size="14.00">A</text>
<polyline fill="none" stroke="black" points="243.47,-275.5 269.22,-275.5"/>
<text text-anchor="middle" x="256.34" y="-258.2" font-family="Times,serif" font-size="14.00">B</text>
<polyline fill="none" stroke="black" points="269.22,-251 269.22,-300"/>
<text text-anchor="middle" x="290.34" y="-278.7" font-family="Times,serif" font-size="14.00">$7</text>
<text text-anchor="middle" x="290.34" y="-262.2" font-family="Times,serif" font-size="14.00">$and</text>
<polyline fill="none" stroke="black" points="311.47,-251 311.47,-300"/>
<text text-anchor="middle" x="324.34" y="-270.7" font-family="Times,serif" font-size="14.00">Y</text>
</g>
<!-- c21 -->
<g id="node23" class="node">
<title>c21</title>
<polygon fill="none" stroke="black" points="1112.28,-172.75 1112.28,-246.25 1211.28,-246.25 1211.28,-172.75 1112.28,-172.75"/>
<text text-anchor="middle" x="1125.15" y="-228.95" font-family="Times,serif" font-size="14.00">A</text>
<polyline fill="none" stroke="black" points="1112.28,-221.75 1138.03,-221.75"/>
<text text-anchor="middle" x="1125.15" y="-204.45" font-family="Times,serif" font-size="14.00">B</text>
<polyline fill="none" stroke="black" points="1112.28,-197.25 1138.03,-197.25"/>
<text text-anchor="middle" x="1125.15" y="-179.95" font-family="Times,serif" font-size="14.00">S</text>
<polyline fill="none" stroke="black" points="1138.03,-172.75 1138.03,-246.25"/>
<text text-anchor="middle" x="1161.78" y="-212.7" font-family="Times,serif" font-size="14.00">$10</text>
<text text-anchor="middle" x="1161.78" y="-196.2" font-family="Times,serif" font-size="14.00">$mux</text>
<polyline fill="none" stroke="black" points="1185.53,-172.75 1185.53,-246.25"/>
<text text-anchor="middle" x="1198.4" y="-204.45" font-family="Times,serif" font-size="14.00">Y</text>
</g>
<!-- c16&#45;&gt;c21 -->
<g id="edge23" class="edge">
<title>c16:e&#45;&gt;c21:w</title>
<path fill="none" stroke="black" stroke-width="3" d="M338.22,-275.75C438.98,-275.75 463.35,-256.5 564.12,-256.5 564.12,-256.5 564.12,-256.5 894.57,-256.5 987.95,-256.5 1013.03,-235.77 1100.94,-234.11"/>
<polygon fill="black" stroke="black" stroke-width="3" points="1097.77,-237.64 1107.74,-234.04 1097.7,-230.64 1097.77,-237.64"/>
</g>
<!-- x4&#45;&gt;c16 -->
<g id="edge5" class="edge">
<title>x4:e&#45;&gt;c16:w</title>
<path fill="none" stroke="black" stroke-width="3" d="M218.17,-313.42C223.38,-307.69 225.48,-298.43 230.72,-292.73"/>
<polygon fill="none" stroke="black" stroke-width="3" points="219.85,-312.7 215.92,-318.74 208.83,-317.43 212.76,-311.39 219.85,-312.7"/>
<polygon fill="none" stroke="black" stroke-width="3" points="228.93,-293.49 232.89,-287.47 239.98,-288.81 236.02,-294.83 228.93,-293.49"/>
</g>
<!-- x5&#45;&gt;c16 -->
<g id="edge6" class="edge">
<title>x5:e&#45;&gt;c16:w</title>
<path fill="none" stroke="black" stroke-width="3" d="M219.36,-263.43C222.91,-263.4 226.02,-263.35 229.57,-263.31"/>
<polygon fill="none" stroke="black" stroke-width="3" points="221.04,-263.43 215.07,-267.46 209.05,-263.49 215.02,-259.46 221.04,-263.43"/>
<polygon fill="none" stroke="black" stroke-width="3" points="227.76,-263.32 233.74,-259.29 239.76,-263.26 233.78,-267.29 227.76,-263.32"/>
</g>
<!-- c17&#45;&gt;n8 -->
<g id="edge41" class="edge">
<title>c17:e&#45;&gt;n8:w</title>
<path fill="none" stroke="black" d="M334.84,-94.75C347.87,-94.75 353.65,-94.61 362.94,-94.54"/>
<polygon fill="black" stroke="black" points="362.84,-98.04 372.83,-94.51 362.81,-91.04 362.84,-98.04"/>
</g>
<!-- x6&#45;&gt;c17 -->
<g id="edge7" class="edge">
<title>x6:e&#45;&gt;c17:w</title>
<path fill="none" stroke="black" stroke-width="3" d="M218.33,-57.74C224.6,-63.12 227.43,-72.33 233.61,-77.8"/>
<polygon fill="none" stroke="black" stroke-width="3" points="220.2,-58.4 213.21,-60.17 208.89,-54.4 215.88,-52.63 220.2,-58.4"/>
<polygon fill="none" stroke="black" stroke-width="3" points="232.02,-77.22 239.03,-75.52 243.3,-81.33 236.29,-83.03 232.02,-77.22"/>
</g>
<!-- c18 -->
<g id="node19" class="node">
<title>c18</title>
<polygon fill="none" stroke="black" points="242.34,-153 242.34,-202 338.34,-202 338.34,-153 242.34,-153"/>
<text text-anchor="middle" x="255.22" y="-184.7" font-family="Times,serif" font-size="14.00">A</text>
<polyline fill="none" stroke="black" points="242.34,-177.5 268.09,-177.5"/>
<text text-anchor="middle" x="255.22" y="-160.2" font-family="Times,serif" font-size="14.00">B</text>
<polyline fill="none" stroke="black" points="268.09,-153 268.09,-202"/>
<text text-anchor="middle" x="290.34" y="-180.7" font-family="Times,serif" font-size="14.00">$1</text>
<text text-anchor="middle" x="290.34" y="-164.2" font-family="Times,serif" font-size="14.00">$mul</text>
<polyline fill="none" stroke="black" points="312.59,-153 312.59,-202"/>
<text text-anchor="middle" x="325.47" y="-172.7" font-family="Times,serif" font-size="14.00">Y</text>
</g>
<!-- c18&#45;&gt;n7 -->
<g id="edge38" class="edge">
<title>c18:e&#45;&gt;n7:w</title>
<path fill="none" stroke="black" stroke-width="3" d="M338.34,-177.75C351.72,-177.75 357.57,-177.61 367.19,-177.54"/>
<polygon fill="black" stroke="black" stroke-width="3" points="363.95,-181.05 373.94,-177.52 363.93,-174.05 363.95,-181.05"/>
</g>
<!-- x7&#45;&gt;c18 -->
<g id="edge8" class="edge">
<title>x7:e&#45;&gt;c18:w</title>
<path fill="none" stroke="black" stroke-width="3" d="M218.56,-204.52C222.82,-201.34 225.86,-196.9 230.12,-193.72"/>
<polygon fill="none" stroke="black" stroke-width="3" points="220.32,-203.95 215.86,-209.61 208.91,-207.66 213.38,-202 220.32,-203.95"/>
<polygon fill="none" stroke="black" stroke-width="3" points="228.36,-194.3 232.83,-188.64 239.77,-190.59 235.3,-196.24 228.36,-194.3"/>
</g>
<!-- x8&#45;&gt;c18 -->
<g id="edge9" class="edge">
<title>x8:e&#45;&gt;c18:w</title>
<path fill="none" stroke="black" stroke-width="3" d="M218.76,-156.23C222.63,-158.07 225.78,-160.5 229.61,-162.38"/>
<polygon fill="none" stroke="black" stroke-width="3" points="220.7,-156.65 213.99,-159.27 208.98,-154.08 215.7,-151.46 220.7,-156.65"/>
<polygon fill="none" stroke="black" stroke-width="3" points="228,-162.01 234.73,-159.43 239.7,-164.65 232.97,-167.23 228,-162.01"/>
</g>
<!-- c19&#45;&gt;c21 -->
<g id="edge24" class="edge">
<title>c19:e&#45;&gt;c21:w</title>
<path fill="none" stroke="black" d="M773.37,-188.75C920.18,-188.75 959.66,-185.19 1101.02,-185.01"/>
<polygon fill="black" stroke="black" points="1100.76,-188.51 1110.76,-185 1100.76,-181.51 1100.76,-188.51"/>
</g>
<!-- x10 -->
<g id="node25" class="node">
<title>x10</title>
<path fill="none" stroke="black" d="M1259.28,-170.75C1259.28,-170.75 1297.78,-170.75 1297.78,-170.75 1303.78,-170.75 1309.78,-176.75 1309.78,-182.75 1309.78,-182.75 1309.78,-232.25 1309.78,-232.25 1309.78,-238.25 1303.78,-244.25 1297.78,-244.25 1297.78,-244.25 1259.28,-244.25 1259.28,-244.25 1253.28,-244.25 1247.28,-238.25 1247.28,-232.25 1247.28,-232.25 1247.28,-182.75 1247.28,-182.75 1247.28,-176.75 1253.28,-170.75 1259.28,-170.75"/>
<text text-anchor="middle" x="1278.53" y="-226.95" font-family="Times,serif" font-size="14.00">4:4 &#45; 4:4</text>
<polyline fill="none" stroke="black" points="1247.28,-219.75 1309.78,-219.75"/>
<text text-anchor="middle" x="1278.53" y="-202.45" font-family="Times,serif" font-size="14.00">3:1 &#45; 3:1</text>
<polyline fill="none" stroke="black" points="1247.28,-195.25 1309.78,-195.25"/>
<text text-anchor="middle" x="1278.53" y="-177.95" font-family="Times,serif" font-size="14.00">0:0 &#45; 0:0</text>
</g>
<!-- c21&#45;&gt;x10 -->
<g id="edge11" class="edge">
<title>c21:e&#45;&gt;x10:w</title>
<path fill="none" stroke="black" stroke-width="3" d="M1224,-209C1227.6,-208.7 1230.72,-208.33 1234.3,-208.03"/>
<polygon fill="none" stroke="black" stroke-width="3" points="1225.97,-208.92 1220.13,-213.15 1213.98,-209.39 1219.81,-205.16 1225.97,-208.92"/>
<polygon fill="none" stroke="black" stroke-width="3" points="1232.58,-208.1 1238.42,-203.86 1244.57,-207.61 1238.74,-211.85 1232.58,-208.1"/>
</g>
<!-- x9&#45;&gt;c21 -->
<g id="edge10" class="edge">
<title>x9:e&#45;&gt;c21:w</title>
<path fill="none" stroke="black" stroke-width="3" d="M1088.17,-139.91C1100.7,-152.98 1087.94,-191.43 1100.14,-204.83"/>
<polygon fill="none" stroke="black" stroke-width="3" points="1090.06,-140.61 1083.05,-142.27 1078.81,-136.44 1085.83,-134.77 1090.06,-140.61"/>
<polygon fill="none" stroke="black" stroke-width="3" points="1098.55,-204.22 1105.59,-202.64 1109.75,-208.53 1102.72,-210.11 1098.55,-204.22"/>
</g>
<!-- x10&#45;&gt;n9 -->
<g id="edge43" class="edge">
<title>x10:e&#45;&gt;n9:w</title>
<path fill="none" stroke="black" d="M1309.78,-183C1345.09,-183 1314.93,-118.7 1334.9,-103.63"/>
<polygon fill="black" stroke="black" points="1335.68,-107.05 1344.32,-100.92 1333.74,-100.32 1335.68,-107.05"/>
</g>
<!-- x10&#45;&gt;n10 -->
<g id="edge18" class="edge">
<title>x10:e&#45;&gt;n10:w</title>
<path fill="none" stroke="black" stroke-width="3" d="M1309.78,-207.5C1430.8,-207.5 1463.81,-200.93 1579.33,-200.52"/>
<polygon fill="black" stroke="black" stroke-width="3" points="1576.24,-204.03 1586.24,-200.51 1576.23,-197.03 1576.24,-204.03"/>
</g>
<!-- n1 -->
<g id="node31" class="node">
<title>n1</title>
<ellipse fill="black" stroke="black" cx="1936.08" cy="-237.5" rx="1.8" ry="1.8"/>
</g>
<!-- x10&#45;&gt;n1 -->
<g id="edge13" class="edge">
<title>x10:e&#45;&gt;n1:w</title>
<path fill="none" stroke="black" d="M1309.78,-232C1528.26,-232 1581.69,-284.74 1799.78,-271.5 1843.8,-268.83 1856.63,-273.99 1898.28,-259.5 1911.56,-254.88 1914.62,-244.81 1923.23,-240.07"/>
<polygon fill="black" stroke="black" points="1923.86,-243.52 1932.8,-237.84 1922.27,-236.7 1923.86,-243.52"/>
</g>
<!-- v11 -->
<g id="node26" class="node">
<title>v11</title>
<ellipse fill="none" stroke="black" cx="2119.25" cy="-131.5" rx="27" ry="18"/>
<text text-anchor="middle" x="2119.25" y="-126.45" font-family="Times,serif" font-size="14.00">2&#39;00</text>
</g>
<!-- x12 -->
<g id="node27" class="node">
<title>x12</title>
<path fill="none" stroke="black" d="M2214.13,-116.5C2214.13,-116.5 2252.63,-116.5 2252.63,-116.5 2258.63,-116.5 2264.63,-122.5 2264.63,-128.5 2264.63,-128.5 2264.63,-140.5 2264.63,-140.5 2264.63,-146.5 2258.63,-152.5 2252.63,-152.5 2252.63,-152.5 2214.13,-152.5 2214.13,-152.5 2208.13,-152.5 2202.13,-146.5 2202.13,-140.5 2202.13,-140.5 2202.13,-128.5 2202.13,-128.5 2202.13,-122.5 2208.13,-116.5 2214.13,-116.5"/>
<text text-anchor="middle" x="2233.38" y="-129.7" font-family="Times,serif" font-size="14.00">1:0 &#45; 9:8</text>
</g>
<!-- v11&#45;&gt;x12 -->
<g id="edge48" class="edge">
<title>v11:e&#45;&gt;x12:w</title>
<path fill="none" stroke="black" stroke-width="3" d="M2147.51,-131.5C2167.64,-131.5 2175.21,-133.56 2191.03,-134.26"/>
<polygon fill="black" stroke="black" stroke-width="3" points="2187.52,-137.69 2197.59,-134.4 2187.66,-130.69 2187.52,-137.69"/>
</g>
<!-- x12&#45;&gt;n6 -->
<g id="edge36" class="edge">
<title>x12:e&#45;&gt;n6:w</title>
<path fill="none" stroke="black" stroke-width="3" d="M2264.63,-134.75C2279.89,-134.75 2281.2,-150.43 2289.92,-157.78"/>
<polygon fill="black" stroke="black" stroke-width="3" points="2285.74,-160.03 2296.34,-160.01 2288.04,-153.42 2285.74,-160.03"/>
</g>
<!-- x14 -->
<g id="node29" class="node">
<title>x14</title>
<path fill="none" stroke="black" d="M1847.78,-201C1847.78,-201 1886.28,-201 1886.28,-201 1892.28,-201 1898.28,-207 1898.28,-213 1898.28,-213 1898.28,-238 1898.28,-238 1898.28,-244 1892.28,-250 1886.28,-250 1886.28,-250 1847.78,-250 1847.78,-250 1841.78,-250 1835.78,-244 1835.78,-238 1835.78,-238 1835.78,-213 1835.78,-213 1835.78,-207 1841.78,-201 1847.78,-201"/>
<text text-anchor="middle" x="1867.03" y="-232.7" font-family="Times,serif" font-size="14.00">5:4 &#45; 6:5</text>
<polyline fill="none" stroke="black" points="1835.78,-225.5 1898.28,-225.5"/>
<text text-anchor="middle" x="1867.03" y="-208.2" font-family="Times,serif" font-size="14.00">3:0 &#45; 3:0</text>
</g>
<!-- x13&#45;&gt;x14 -->
<g id="edge12" class="edge">
<title>x13:e&#45;&gt;x14:w</title>
<path fill="none" stroke="black" stroke-width="3" d="M1812.24,-215.52C1816.21,-217.62 1819.38,-220.4 1823.35,-222.5"/>
<polygon fill="none" stroke="black" stroke-width="3" points="1814.07,-215.96 1807.3,-218.43 1802.41,-213.14 1809.18,-210.66 1814.07,-215.96"/>
<polygon fill="none" stroke="black" stroke-width="3" points="1821.48,-222.05 1828.25,-219.57 1833.15,-224.87 1826.38,-227.35 1821.48,-222.05"/>
</g>
<!-- x14&#45;&gt;n1 -->
<g id="edge14" class="edge">
<title>x14:e&#45;&gt;n1:w</title>
<path fill="none" stroke="black" stroke-width="3" d="M1898.28,-213.25C1912.9,-213.25 1914.95,-227.18 1923.49,-233.92"/>
<polygon fill="black" stroke="black" stroke-width="3" points="1919.37,-236.24 1929.97,-236.07 1921.58,-229.6 1919.37,-236.24"/>
</g>
<!-- x14&#45;&gt;n1 -->
<g id="edge15" class="edge">
<title>x14:e&#45;&gt;n1:w</title>
<path fill="none" stroke="black" stroke-width="3" d="M1898.28,-237.75C1909.65,-237.75 1914.96,-237.62 1922.83,-237.55"/>
<polygon fill="black" stroke="black" stroke-width="3" points="1919.75,-241.06 1929.74,-237.52 1919.72,-234.06 1919.75,-241.06"/>
</g>
<!-- x15&#45;&gt;n10 -->
<g id="edge19" class="edge">
<title>x15:e&#45;&gt;n10:w</title>
<path fill="none" stroke="black" d="M1554.78,-155.75C1575.52,-155.75 1569.47,-185.29 1580.16,-196.37"/>
<polygon fill="black" stroke="black" points="1578.78,-199.59 1589.37,-199.95 1581.32,-193.06 1578.78,-199.59"/>
</g>
<!-- n1&#45;&gt;x1 -->
<g id="edge16" class="edge">
<title>n1:e&#45;&gt;x1:w</title>
<path fill="none" stroke="black" d="M1937.88,-237.5C1950.49,-237.5 1954.73,-245.05 1962.9,-249.06"/>
<polygon fill="black" stroke="black" points="1961.88,-252.42 1972.4,-251.17 1963.4,-245.59 1961.88,-252.42"/>
</g>
<!-- n1&#45;&gt;x2 -->
<g id="edge17" class="edge">
<title>n1:e&#45;&gt;x2:w</title>
<path fill="none" stroke="black" d="M1937.88,-237.5C1971.46,-237.5 1944.45,-177.4 1962.89,-162.37"/>
<polygon fill="black" stroke="black" points="1963.9,-165.72 1972.43,-159.44 1961.84,-159.03 1963.9,-165.72"/>
</g>
</g>
</svg>
