<?xml version="1.0" encoding="UTF-8" standalone="no"?>
<!DOCTYPE svg PUBLIC "-//W3C//DTD SVG 1.1//EN"
 "http://www.w3.org/Graphics/SVG/1.1/DTD/svg11.dtd">
<!-- Generated by graphviz version 12.2.1 (20241206.2353)
 -->
<!-- Title: top Pages: 1 -->
<svg width="4937pt" height="346pt"
 viewBox="0.00 0.00 4936.97 346.00" xmlns="http://www.w3.org/2000/svg" xmlns:xlink="http://www.w3.org/1999/xlink">
<g id="graph0" class="graph" transform="scale(1 1) rotate(0) translate(4 342)">
<title>top</title>
<polygon fill="white" stroke="none" points="-4,4 -4,-342 4932.97,-342 4932.97,4 -4,4"/>
<text text-anchor="middle" x="2464.48" y="-7.2" font-family="Times,serif" font-size="14.00">top</text>
<!-- n13 -->
<g id="node1" class="node">
<title>n13</title>
<polygon fill="none" stroke="black" points="107.84,-116.04 107.84,-130.96 76.26,-141.5 31.59,-141.5 0,-130.96 0,-116.04 31.59,-105.5 76.26,-105.5 107.84,-116.04"/>
<text text-anchor="middle" x="53.92" y="-118.45" font-family="Times,serif" font-size="14.00">input_data</text>
</g>
<!-- c21 -->
<g id="node7" class="node">
<title>c21</title>
<polygon fill="none" stroke="black" points="143.84,-222 143.84,-271 237.59,-271 237.59,-222 143.84,-222"/>
<text text-anchor="middle" x="156.72" y="-253.7" font-family="Times,serif" font-size="14.00">A</text>
<polyline fill="none" stroke="black" points="143.84,-246.5 169.59,-246.5"/>
<text text-anchor="middle" x="156.72" y="-229.2" font-family="Times,serif" font-size="14.00">B</text>
<polyline fill="none" stroke="black" points="169.59,-222 169.59,-271"/>
<text text-anchor="middle" x="190.72" y="-249.7" font-family="Times,serif" font-size="14.00">$1</text>
<text text-anchor="middle" x="190.72" y="-233.2" font-family="Times,serif" font-size="14.00">$add</text>
<polyline fill="none" stroke="black" points="211.84,-222 211.84,-271"/>
<text text-anchor="middle" x="224.72" y="-241.7" font-family="Times,serif" font-size="14.00">Y</text>
</g>
<!-- n13&#45;&gt;c21 -->
<g id="edge30" class="edge">
<title>n13:e&#45;&gt;c21:w</title>
<path fill="none" stroke="black" stroke-width="3" d="M107.84,-123.5C155.15,-123.5 102.81,-216.03 132.99,-231.94"/>
<polygon fill="black" stroke="black" stroke-width="3" points="128.89,-234.64 139.4,-233.3 130.35,-227.8 128.89,-234.64"/>
</g>
<!-- c23 -->
<g id="node9" class="node">
<title>c23</title>
<polygon fill="none" stroke="black" points="1177.99,-143 1177.99,-192 1270.24,-192 1270.24,-143 1177.99,-143"/>
<text text-anchor="middle" x="1190.87" y="-174.7" font-family="Times,serif" font-size="14.00">A</text>
<polyline fill="none" stroke="black" points="1177.99,-167.5 1203.74,-167.5"/>
<text text-anchor="middle" x="1190.87" y="-150.2" font-family="Times,serif" font-size="14.00">B</text>
<polyline fill="none" stroke="black" points="1203.74,-143 1203.74,-192"/>
<text text-anchor="middle" x="1224.12" y="-170.7" font-family="Times,serif" font-size="14.00">$38</text>
<text text-anchor="middle" x="1224.12" y="-154.2" font-family="Times,serif" font-size="14.00">$xor</text>
<polyline fill="none" stroke="black" points="1244.49,-143 1244.49,-192"/>
<text text-anchor="middle" x="1257.37" y="-162.7" font-family="Times,serif" font-size="14.00">Y</text>
</g>
<!-- n13&#45;&gt;c23 -->
<g id="edge31" class="edge">
<title>n13:e&#45;&gt;c23:w</title>
<path fill="none" stroke="black" stroke-width="3" d="M107.84,-123.5C182.34,-123.5 199.89,-142.5 274.39,-142.5 274.39,-142.5 274.39,-142.5 1042.69,-142.5 1099.08,-142.5 1115.46,-153.61 1166.54,-155.09"/>
<polygon fill="black" stroke="black" stroke-width="3" points="1163.4,-158.54 1173.45,-155.19 1163.5,-151.55 1163.4,-158.54"/>
</g>
<!-- c25 -->
<g id="node13" class="node">
<title>c25</title>
<polygon fill="none" stroke="black" points="3019.94,-100 3019.94,-149 3113.69,-149 3113.69,-100 3019.94,-100"/>
<text text-anchor="middle" x="3032.81" y="-131.7" font-family="Times,serif" font-size="14.00">A</text>
<polyline fill="none" stroke="black" points="3019.94,-124.5 3045.69,-124.5"/>
<text text-anchor="middle" x="3032.81" y="-107.2" font-family="Times,serif" font-size="14.00">B</text>
<polyline fill="none" stroke="black" points="3045.69,-100 3045.69,-149"/>
<text text-anchor="middle" x="3066.81" y="-127.7" font-family="Times,serif" font-size="14.00">$57</text>
<text text-anchor="middle" x="3066.81" y="-111.2" font-family="Times,serif" font-size="14.00">$and</text>
<polyline fill="none" stroke="black" points="3087.94,-100 3087.94,-149"/>
<text text-anchor="middle" x="3100.81" y="-119.7" font-family="Times,serif" font-size="14.00">Y</text>
</g>
<!-- n13&#45;&gt;c25 -->
<g id="edge32" class="edge">
<title>n13:e&#45;&gt;c25:w</title>
<path fill="none" stroke="black" stroke-width="3" d="M107.84,-123.5C138.18,-123.5 119.87,-84.1 143.84,-65.5 191.89,-28.22 213.57,-24.5 274.39,-24.5 274.39,-24.5 274.39,-24.5 2839.56,-24.5 2924.88,-24.5 2930.45,-104.87 3008.91,-111.78"/>
<polygon fill="black" stroke="black" stroke-width="3" points="3005.26,-115.12 3015.4,-112.06 3005.56,-108.13 3005.26,-115.12"/>
</g>
<!-- c30 -->
<g id="node28" class="node">
<title>c30</title>
<polygon fill="none" stroke="black" points="677.29,-181 677.29,-230 767.29,-230 767.29,-181 677.29,-181"/>
<text text-anchor="middle" x="690.17" y="-212.7" font-family="Times,serif" font-size="14.00">A</text>
<polyline fill="none" stroke="black" points="677.29,-205.5 703.04,-205.5"/>
<text text-anchor="middle" x="690.17" y="-188.2" font-family="Times,serif" font-size="14.00">B</text>
<polyline fill="none" stroke="black" points="703.04,-181 703.04,-230"/>
<text text-anchor="middle" x="722.29" y="-208.7" font-family="Times,serif" font-size="14.00">$3</text>
<text text-anchor="middle" x="722.29" y="-192.2" font-family="Times,serif" font-size="14.00">$shl</text>
<polyline fill="none" stroke="black" points="741.54,-181 741.54,-230"/>
<text text-anchor="middle" x="754.42" y="-200.7" font-family="Times,serif" font-size="14.00">Y</text>
</g>
<!-- n13&#45;&gt;c30 -->
<g id="edge33" class="edge">
<title>n13:e&#45;&gt;c30:w</title>
<path fill="none" stroke="black" stroke-width="3" d="M107.84,-123.5C129.55,-123.5 124.41,-146.83 143.84,-156.5 196.65,-182.79 215.4,-180.5 274.39,-180.5 274.39,-180.5 274.39,-180.5 541.99,-180.5 598.38,-180.5 614.76,-191.61 665.84,-193.09"/>
<polygon fill="black" stroke="black" stroke-width="3" points="662.7,-196.54 672.75,-193.19 662.8,-189.55 662.7,-196.54"/>
</g>
<!-- c31 -->
<g id="node31" class="node">
<title>c31</title>
<polygon fill="none" stroke="black" points="1404.74,-102 1404.74,-151 1494.74,-151 1494.74,-102 1404.74,-102"/>
<text text-anchor="middle" x="1417.62" y="-133.7" font-family="Times,serif" font-size="14.00">A</text>
<polyline fill="none" stroke="black" points="1404.74,-126.5 1430.49,-126.5"/>
<text text-anchor="middle" x="1417.62" y="-109.2" font-family="Times,serif" font-size="14.00">B</text>
<polyline fill="none" stroke="black" points="1430.49,-102 1430.49,-151"/>
<text text-anchor="middle" x="1449.74" y="-129.7" font-family="Times,serif" font-size="14.00">$5</text>
<text text-anchor="middle" x="1449.74" y="-113.2" font-family="Times,serif" font-size="14.00">$shl</text>
<polyline fill="none" stroke="black" points="1468.99,-102 1468.99,-151"/>
<text text-anchor="middle" x="1481.87" y="-121.7" font-family="Times,serif" font-size="14.00">Y</text>
</g>
<!-- n13&#45;&gt;c31 -->
<g id="edge34" class="edge">
<title>n13:e&#45;&gt;c31:w</title>
<path fill="none" stroke="black" stroke-width="3" d="M107.84,-123.5C145.09,-123.5 237.14,-104.5 274.39,-104.5 274.39,-104.5 274.39,-104.5 1225.12,-104.5 1301.16,-104.5 1322.72,-113.32 1393.45,-114.18"/>
<polygon fill="black" stroke="black" stroke-width="3" points="1390.18,-117.66 1400.2,-114.22 1390.22,-110.66 1390.18,-117.66"/>
</g>
<!-- c32 -->
<g id="node33" class="node">
<title>c32</title>
<polygon fill="none" stroke="black" points="1530.74,-90 1530.74,-139 1623.74,-139 1623.74,-90 1530.74,-90"/>
<text text-anchor="middle" x="1543.62" y="-121.7" font-family="Times,serif" font-size="14.00">A</text>
<polyline fill="none" stroke="black" points="1530.74,-114.5 1556.49,-114.5"/>
<text text-anchor="middle" x="1543.62" y="-97.2" font-family="Times,serif" font-size="14.00">B</text>
<polyline fill="none" stroke="black" points="1556.49,-90 1556.49,-139"/>
<text text-anchor="middle" x="1577.24" y="-117.7" font-family="Times,serif" font-size="14.00">$6</text>
<text text-anchor="middle" x="1577.24" y="-101.2" font-family="Times,serif" font-size="14.00">$sub</text>
<polyline fill="none" stroke="black" points="1597.99,-90 1597.99,-139"/>
<text text-anchor="middle" x="1610.87" y="-109.7" font-family="Times,serif" font-size="14.00">Y</text>
</g>
<!-- n13&#45;&gt;c32 -->
<g id="edge35" class="edge">
<title>n13:e&#45;&gt;c32:w</title>
<path fill="none" stroke="black" stroke-width="3" d="M107.84,-123.5C126.14,-123.5 126.92,-110.49 143.84,-103.5 199.58,-80.48 214.08,-66.5 274.39,-66.5 274.39,-66.5 274.39,-66.5 1338.49,-66.5 1408.89,-66.5 1425.96,-77.5 1494.74,-92.5 1506.38,-95.04 1511.32,-98.96 1519.34,-100.97"/>
<polygon fill="black" stroke="black" stroke-width="3" points="1515.9,-104.11 1526.23,-101.74 1516.68,-97.15 1515.9,-104.11"/>
</g>
<!-- n14 -->
<g id="node2" class="node">
<title>n14</title>
<polygon fill="none" stroke="black" points="4928.97,-169.04 4928.97,-183.96 4894.46,-194.5 4845.66,-194.5 4811.15,-183.96 4811.15,-169.04 4845.66,-158.5 4894.46,-158.5 4928.97,-169.04"/>
<text text-anchor="middle" x="4870.06" y="-171.45" font-family="Times,serif" font-size="14.00">output_data</text>
</g>
<!-- n15 -->
<g id="node3" class="node">
<title>n15</title>
<polygon fill="none" stroke="black" points="1714.99,-136.5 1659.74,-118.5 1714.99,-100.5 1770.24,-118.5 1714.99,-136.5"/>
<text text-anchor="middle" x="1714.99" y="-113.45" font-family="Times,serif" font-size="14.00">temp_0</text>
</g>
<!-- c22 -->
<g id="node8" class="node">
<title>c22</title>
<polygon fill="none" stroke="black" points="2791.69,-112 2791.69,-161 2885.44,-161 2885.44,-112 2791.69,-112"/>
<text text-anchor="middle" x="2804.56" y="-143.7" font-family="Times,serif" font-size="14.00">A</text>
<polyline fill="none" stroke="black" points="2791.69,-136.5 2817.44,-136.5"/>
<text text-anchor="middle" x="2804.56" y="-119.2" font-family="Times,serif" font-size="14.00">B</text>
<polyline fill="none" stroke="black" points="2817.44,-112 2817.44,-161"/>
<text text-anchor="middle" x="2838.56" y="-139.7" font-family="Times,serif" font-size="14.00">$19</text>
<text text-anchor="middle" x="2838.56" y="-123.2" font-family="Times,serif" font-size="14.00">$add</text>
<polyline fill="none" stroke="black" points="2859.69,-112 2859.69,-161"/>
<text text-anchor="middle" x="2872.56" y="-131.7" font-family="Times,serif" font-size="14.00">Y</text>
</g>
<!-- n15&#45;&gt;c22 -->
<g id="edge38" class="edge">
<title>n15:e&#45;&gt;c22:w</title>
<path fill="none" stroke="black" stroke-width="3" d="M1770.24,-118.5C1903.46,-118.5 1936.76,-118.5 2069.98,-118.5 2069.98,-118.5 2069.98,-118.5 2578.38,-118.5 2669.33,-118.5 2694.79,-123.79 2780.37,-124.22"/>
<polygon fill="black" stroke="black" stroke-width="3" points="2777.14,-127.71 2787.14,-124.24 2777.15,-120.71 2777.14,-127.71"/>
</g>
<!-- c24 -->
<g id="node11" class="node">
<title>c24</title>
<polygon fill="none" stroke="black" points="1855.86,-149 1855.86,-190 1947.36,-190 1947.36,-149 1855.86,-149"/>
<text text-anchor="middle" x="1868.73" y="-164.7" font-family="Times,serif" font-size="14.00">A</text>
<polyline fill="none" stroke="black" points="1881.61,-149 1881.61,-190"/>
<text text-anchor="middle" x="1901.61" y="-172.7" font-family="Times,serif" font-size="14.00">$45</text>
<text text-anchor="middle" x="1901.61" y="-156.2" font-family="Times,serif" font-size="14.00">$not</text>
<polyline fill="none" stroke="black" points="1921.61,-149 1921.61,-190"/>
<text text-anchor="middle" x="1934.48" y="-164.7" font-family="Times,serif" font-size="14.00">Y</text>
</g>
<!-- n15&#45;&gt;c24 -->
<g id="edge39" class="edge">
<title>n15:e&#45;&gt;c24:w</title>
<path fill="none" stroke="black" stroke-width="3" d="M1770.24,-118.5C1810.09,-118.5 1811.1,-160.59 1843.66,-168.48"/>
<polygon fill="black" stroke="black" stroke-width="3" points="1840.02,-171.59 1850.35,-169.24 1840.8,-164.64 1840.02,-171.59"/>
</g>
<!-- x7 -->
<g id="node21" class="node">
<title>x7</title>
<path fill="none" stroke="black" d="M2303.48,-279.5C2303.48,-279.5 2341.98,-279.5 2341.98,-279.5 2347.98,-279.5 2353.98,-285.5 2353.98,-291.5 2353.98,-291.5 2353.98,-303.5 2353.98,-303.5 2353.98,-309.5 2347.98,-315.5 2341.98,-315.5 2341.98,-315.5 2303.48,-315.5 2303.48,-315.5 2297.48,-315.5 2291.48,-309.5 2291.48,-303.5 2291.48,-303.5 2291.48,-291.5 2291.48,-291.5 2291.48,-285.5 2297.48,-279.5 2303.48,-279.5"/>
<text text-anchor="middle" x="2322.73" y="-292.7" font-family="Times,serif" font-size="14.00">2:0 &#45; 2:0</text>
</g>
<!-- n15&#45;&gt;x7 -->
<g id="edge41" class="edge">
<title>n15:e&#45;&gt;x7:w</title>
<path fill="none" stroke="black" stroke-width="3" d="M1770.24,-118.5C1837.94,-118.5 1754.39,-222.98 1806.24,-266.5 1968.86,-402.99 2071.71,-301.46 2280.18,-297.85"/>
<polygon fill="black" stroke="black" stroke-width="3" points="2276.97,-301.38 2286.94,-297.79 2276.91,-294.38 2276.97,-301.38"/>
</g>
<!-- x11 -->
<g id="node26" class="node">
<title>x11</title>
<path fill="none" stroke="black" d="M2180.98,-53.5C2180.98,-53.5 2219.48,-53.5 2219.48,-53.5 2225.48,-53.5 2231.48,-59.5 2231.48,-65.5 2231.48,-65.5 2231.48,-77.5 2231.48,-77.5 2231.48,-83.5 2225.48,-89.5 2219.48,-89.5 2219.48,-89.5 2180.98,-89.5 2180.98,-89.5 2174.98,-89.5 2168.98,-83.5 2168.98,-77.5 2168.98,-77.5 2168.98,-65.5 2168.98,-65.5 2168.98,-59.5 2174.98,-53.5 2180.98,-53.5"/>
<text text-anchor="middle" x="2200.23" y="-66.7" font-family="Times,serif" font-size="14.00">2:0 &#45; 2:0</text>
</g>
<!-- n15&#45;&gt;x11 -->
<g id="edge40" class="edge">
<title>n15:e&#45;&gt;x11:w</title>
<path fill="none" stroke="black" stroke-width="3" d="M1770.24,-118.5C1787.41,-118.5 1789.53,-108.42 1806.24,-104.5 1959.71,-68.47 2004.46,-71.58 2156.82,-71.74"/>
<polygon fill="black" stroke="black" stroke-width="3" points="2153.43,-75.24 2163.44,-71.75 2153.44,-68.24 2153.43,-75.24"/>
</g>
<!-- n16 -->
<g id="node4" class="node">
<title>n16</title>
<polygon fill="none" stroke="black" points="2200.23,-245.5 2144.98,-227.5 2200.23,-209.5 2255.48,-227.5 2200.23,-245.5"/>
<text text-anchor="middle" x="2200.23" y="-222.45" font-family="Times,serif" font-size="14.00">temp_1</text>
</g>
<!-- x17 -->
<g id="node36" class="node">
<title>x17</title>
<path fill="none" stroke="black" d="M2549.51,-152C2549.51,-152 2605.26,-152 2605.26,-152 2611.26,-152 2617.26,-158 2617.26,-164 2617.26,-164 2617.26,-189 2617.26,-189 2617.26,-195 2611.26,-201 2605.26,-201 2605.26,-201 2549.51,-201 2549.51,-201 2543.51,-201 2537.51,-195 2537.51,-189 2537.51,-189 2537.51,-164 2537.51,-164 2537.51,-158 2543.51,-152 2549.51,-152"/>
<text text-anchor="middle" x="2577.38" y="-183.7" font-family="Times,serif" font-size="14.00">4x 4:4 &#45; 7:4</text>
<polyline fill="none" stroke="black" points="2537.51,-176.5 2617.26,-176.5"/>
<text text-anchor="middle" x="2577.38" y="-159.2" font-family="Times,serif" font-size="14.00">3:0 &#45; 3:0</text>
</g>
<!-- n16&#45;&gt;x17 -->
<g id="edge45" class="edge">
<title>n16:e&#45;&gt;x17:w</title>
<path fill="none" stroke="black" stroke-width="3" d="M2255.48,-227.5C2271.58,-227.5 2275.4,-230.61 2291.48,-231.5 2362.92,-235.46 2382.89,-248.18 2452.48,-231.5 2489.24,-222.68 2493.96,-194.97 2525.32,-189.64"/>
<polygon fill="black" stroke="black" stroke-width="3" points="2522.29,-193.39 2531.98,-189.11 2521.73,-186.42 2522.29,-193.39"/>
</g>
<!-- x19 -->
<g id="node39" class="node">
<title>x19</title>
<path fill="none" stroke="black" d="M2303.48,-185.5C2303.48,-185.5 2341.98,-185.5 2341.98,-185.5 2347.98,-185.5 2353.98,-191.5 2353.98,-197.5 2353.98,-197.5 2353.98,-209.5 2353.98,-209.5 2353.98,-215.5 2347.98,-221.5 2341.98,-221.5 2341.98,-221.5 2303.48,-221.5 2303.48,-221.5 2297.48,-221.5 2291.48,-215.5 2291.48,-209.5 2291.48,-209.5 2291.48,-197.5 2291.48,-197.5 2291.48,-191.5 2297.48,-185.5 2303.48,-185.5"/>
<text text-anchor="middle" x="2322.73" y="-198.7" font-family="Times,serif" font-size="14.00">4:4 &#45; 0:0</text>
</g>
<!-- n16&#45;&gt;x19 -->
<g id="edge46" class="edge">
<title>n16:e&#45;&gt;x19:w</title>
<path fill="none" stroke="black" d="M2255.48,-227.5C2270,-227.5 2272.18,-213.86 2280.72,-207.25"/>
<polygon fill="black" stroke="black" points="2281.61,-210.65 2290.04,-204.22 2279.45,-203.99 2281.61,-210.65"/>
</g>
<!-- n17 -->
<g id="node5" class="node">
<title>n17</title>
<polygon fill="none" stroke="black" points="3303.44,-196.5 3248.19,-178.5 3303.44,-160.5 3358.69,-178.5 3303.44,-196.5"/>
<text text-anchor="middle" x="3303.44" y="-173.45" font-family="Times,serif" font-size="14.00">temp_3</text>
</g>
<!-- x6 -->
<g id="node19" class="node">
<title>x6</title>
<path fill="none" stroke="black" d="M3406.69,-132.5C3406.69,-132.5 3445.19,-132.5 3445.19,-132.5 3451.19,-132.5 3457.19,-138.5 3457.19,-144.5 3457.19,-144.5 3457.19,-156.5 3457.19,-156.5 3457.19,-162.5 3451.19,-168.5 3445.19,-168.5 3445.19,-168.5 3406.69,-168.5 3406.69,-168.5 3400.69,-168.5 3394.69,-162.5 3394.69,-156.5 3394.69,-156.5 3394.69,-144.5 3394.69,-144.5 3394.69,-138.5 3400.69,-132.5 3406.69,-132.5"/>
<text text-anchor="middle" x="3425.94" y="-145.7" font-family="Times,serif" font-size="14.00">2:0 &#45; 2:0</text>
</g>
<!-- n17&#45;&gt;x6 -->
<g id="edge49" class="edge">
<title>n17:e&#45;&gt;x6:w</title>
<path fill="none" stroke="black" stroke-width="3" d="M3358.69,-178.5C3374.15,-178.5 3375.2,-162.23 3383.9,-154.61"/>
<polygon fill="black" stroke="black" stroke-width="3" points="3382.17,-158.94 3390.41,-152.28 3379.82,-152.35 3382.17,-158.94"/>
</g>
<!-- x8 -->
<g id="node22" class="node">
<title>x8</title>
<path fill="none" stroke="black" d="M3406.69,-187.5C3406.69,-187.5 3445.19,-187.5 3445.19,-187.5 3451.19,-187.5 3457.19,-193.5 3457.19,-199.5 3457.19,-199.5 3457.19,-211.5 3457.19,-211.5 3457.19,-217.5 3451.19,-223.5 3445.19,-223.5 3445.19,-223.5 3406.69,-223.5 3406.69,-223.5 3400.69,-223.5 3394.69,-217.5 3394.69,-211.5 3394.69,-211.5 3394.69,-199.5 3394.69,-199.5 3394.69,-193.5 3400.69,-187.5 3406.69,-187.5"/>
<text text-anchor="middle" x="3425.94" y="-200.7" font-family="Times,serif" font-size="14.00">2:0 &#45; 2:0</text>
</g>
<!-- n17&#45;&gt;x8 -->
<g id="edge50" class="edge">
<title>n17:e&#45;&gt;x8:w</title>
<path fill="none" stroke="black" stroke-width="3" d="M3358.69,-178.5C3374.05,-178.5 3375.23,-194.47 3383.94,-201.96"/>
<polygon fill="black" stroke="black" stroke-width="3" points="3379.81,-204.21 3390.4,-204.24 3382.14,-197.61 3379.81,-204.21"/>
</g>
<!-- v0 -->
<g id="node6" class="node">
<title>v0</title>
<ellipse fill="none" stroke="black" cx="53.92" cy="-258.5" rx="40.09" ry="18"/>
<text text-anchor="middle" x="53.92" y="-253.45" font-family="Times,serif" font-size="14.00">5&#39;11011</text>
</g>
<!-- v0&#45;&gt;c21 -->
<g id="edge67" class="edge">
<title>v0:e&#45;&gt;c21:w</title>
<path fill="none" stroke="black" stroke-width="3" d="M95.39,-258.5C112.55,-258.5 119.45,-258.66 132.45,-258.72"/>
<polygon fill="black" stroke="black" stroke-width="3" points="129.29,-262.22 139.3,-258.74 129.31,-255.22 129.29,-262.22"/>
</g>
<!-- n1 -->
<g id="node50" class="node">
<title>n1</title>
<ellipse fill="black" stroke="black" cx="275.39" cy="-252.5" rx="1.8" ry="1.8"/>
</g>
<!-- c21&#45;&gt;n1 -->
<g id="edge19" class="edge">
<title>c21:e&#45;&gt;n1:w</title>
<path fill="none" stroke="black" stroke-width="3" d="M237.59,-246.75C249.24,-246.75 254.37,-249.72 262.35,-251.39"/>
<polygon fill="black" stroke="black" stroke-width="3" points="258.78,-254.56 269.07,-252.05 259.46,-247.59 258.78,-254.56"/>
</g>
<!-- x3 -->
<g id="node14" class="node">
<title>x3</title>
<path fill="none" stroke="black" d="M2933.44,-118.5C2933.44,-118.5 2971.94,-118.5 2971.94,-118.5 2977.94,-118.5 2983.94,-124.5 2983.94,-130.5 2983.94,-130.5 2983.94,-142.5 2983.94,-142.5 2983.94,-148.5 2977.94,-154.5 2971.94,-154.5 2971.94,-154.5 2933.44,-154.5 2933.44,-154.5 2927.44,-154.5 2921.44,-148.5 2921.44,-142.5 2921.44,-142.5 2921.44,-130.5 2921.44,-130.5 2921.44,-124.5 2927.44,-118.5 2933.44,-118.5"/>
<text text-anchor="middle" x="2952.69" y="-131.7" font-family="Times,serif" font-size="14.00">3:0 &#45; 3:0</text>
</g>
<!-- c22&#45;&gt;x3 -->
<g id="edge51" class="edge">
<title>c22:e&#45;&gt;x3:w</title>
<path fill="none" stroke="black" stroke-width="3" d="M2885.44,-136.75C2896.81,-136.75 2902.12,-136.75 2909.99,-136.75"/>
<polygon fill="black" stroke="black" stroke-width="3" points="2906.89,-140.25 2916.89,-136.75 2906.89,-133.25 2906.89,-140.25"/>
</g>
<!-- x15 -->
<g id="node32" class="node">
<title>x15</title>
<path fill="none" stroke="black" d="M1318.24,-155C1318.24,-155 1356.74,-155 1356.74,-155 1362.74,-155 1368.74,-161 1368.74,-167 1368.74,-167 1368.74,-192 1368.74,-192 1368.74,-198 1362.74,-204 1356.74,-204 1356.74,-204 1318.24,-204 1318.24,-204 1312.24,-204 1306.24,-198 1306.24,-192 1306.24,-192 1306.24,-167 1306.24,-167 1306.24,-161 1312.24,-155 1318.24,-155"/>
<text text-anchor="middle" x="1337.49" y="-186.7" font-family="Times,serif" font-size="14.00">0:0 &#45; 4:4</text>
<polyline fill="none" stroke="black" points="1306.24,-179.5 1368.74,-179.5"/>
<text text-anchor="middle" x="1337.49" y="-162.2" font-family="Times,serif" font-size="14.00">3:0 &#45; 3:0</text>
</g>
<!-- c23&#45;&gt;x15 -->
<g id="edge52" class="edge">
<title>c23:e&#45;&gt;x15:w</title>
<path fill="none" stroke="black" stroke-width="3" d="M1270.24,-167.75C1281.62,-167.75 1286.93,-167.5 1294.79,-167.35"/>
<polygon fill="black" stroke="black" stroke-width="3" points="1291.73,-170.88 1301.7,-167.29 1291.67,-163.88 1291.73,-170.88"/>
</g>
<!-- x1 -->
<g id="node10" class="node">
<title>x1</title>
<path fill="none" stroke="black" d="M1091.49,-171.5C1091.49,-171.5 1129.99,-171.5 1129.99,-171.5 1135.99,-171.5 1141.99,-177.5 1141.99,-183.5 1141.99,-183.5 1141.99,-195.5 1141.99,-195.5 1141.99,-201.5 1135.99,-207.5 1129.99,-207.5 1129.99,-207.5 1091.49,-207.5 1091.49,-207.5 1085.49,-207.5 1079.49,-201.5 1079.49,-195.5 1079.49,-195.5 1079.49,-183.5 1079.49,-183.5 1079.49,-177.5 1085.49,-171.5 1091.49,-171.5"/>
<text text-anchor="middle" x="1110.74" y="-184.7" font-family="Times,serif" font-size="14.00">3:0 &#45; 3:0</text>
</g>
<!-- x1&#45;&gt;c23 -->
<g id="edge1" class="edge">
<title>x1:e&#45;&gt;c23:w</title>
<path fill="none" stroke="black" stroke-width="3" d="M1154.35,-187.24C1158.25,-185.71 1161.46,-183.69 1165.32,-182.14"/>
<polygon fill="none" stroke="black" stroke-width="3" points="1156.45,-186.85 1151.27,-191.87 1144.65,-189.01 1149.83,-184 1156.45,-186.85"/>
<polygon fill="none" stroke="black" stroke-width="3" points="1163.54,-182.47 1168.7,-177.43 1175.33,-180.25 1170.18,-185.29 1163.54,-182.47"/>
</g>
<!-- x2 -->
<g id="node12" class="node">
<title>x2</title>
<path fill="none" stroke="black" d="M2051.73,-147C2051.73,-147 2090.23,-147 2090.23,-147 2096.23,-147 2102.23,-153 2102.23,-159 2102.23,-159 2102.23,-184 2102.23,-184 2102.23,-190 2096.23,-196 2090.23,-196 2090.23,-196 2051.73,-196 2051.73,-196 2045.73,-196 2039.73,-190 2039.73,-184 2039.73,-184 2039.73,-159 2039.73,-159 2039.73,-153 2045.73,-147 2051.73,-147"/>
<text text-anchor="middle" x="2070.98" y="-178.7" font-family="Times,serif" font-size="14.00">4:4 &#45; 4:4</text>
<polyline fill="none" stroke="black" points="2039.73,-171.5 2102.23,-171.5"/>
<text text-anchor="middle" x="2070.98" y="-154.2" font-family="Times,serif" font-size="14.00">3:0 &#45; 3:0</text>
</g>
<!-- c24&#45;&gt;x2 -->
<g id="edge2" class="edge">
<title>c24:e&#45;&gt;x2:w</title>
<path fill="none" stroke="black" stroke-width="3" d="M1961.34,-169.82C1987.31,-170.09 1999.77,-171.16 2025.74,-171.43"/>
<polygon fill="none" stroke="black" stroke-width="3" points="1963.06,-169.83 1957.04,-173.79 1951.06,-169.76 1957.08,-165.79 1963.06,-169.83"/>
<polygon fill="none" stroke="black" stroke-width="3" points="2024.02,-171.42 2030.04,-167.46 2036.02,-171.49 2030,-175.46 2024.02,-171.42"/>
</g>
<!-- x2&#45;&gt;n16 -->
<g id="edge44" class="edge">
<title>x2:e&#45;&gt;n16:w</title>
<path fill="none" stroke="black" d="M2103.23,-183.75C2125.48,-183.75 2121.08,-213.75 2134.17,-224.07"/>
<polygon fill="black" stroke="black" points="2132.94,-227.35 2143.53,-227.04 2135.06,-220.68 2132.94,-227.35"/>
</g>
<!-- n5 -->
<g id="node54" class="node">
<title>n5</title>
<ellipse fill="black" stroke="black" cx="2490.28" cy="-164.5" rx="1.8" ry="1.8"/>
</g>
<!-- x2&#45;&gt;n5 -->
<g id="edge57" class="edge">
<title>x2:e&#45;&gt;n5:w</title>
<path fill="none" stroke="black" stroke-width="3" d="M2103.23,-159.25C2270.62,-159.25 2315.25,-164.27 2477.13,-164.49"/>
<polygon fill="black" stroke="black" stroke-width="3" points="2473.93,-167.99 2483.94,-164.5 2473.94,-160.99 2473.93,-167.99"/>
</g>
<!-- x4 -->
<g id="node15" class="node">
<title>x4</title>
<path fill="none" stroke="black" d="M3161.69,-108.5C3161.69,-108.5 3200.19,-108.5 3200.19,-108.5 3206.19,-108.5 3212.19,-114.5 3212.19,-120.5 3212.19,-120.5 3212.19,-132.5 3212.19,-132.5 3212.19,-138.5 3206.19,-144.5 3200.19,-144.5 3200.19,-144.5 3161.69,-144.5 3161.69,-144.5 3155.69,-144.5 3149.69,-138.5 3149.69,-132.5 3149.69,-132.5 3149.69,-120.5 3149.69,-120.5 3149.69,-114.5 3155.69,-108.5 3161.69,-108.5"/>
<text text-anchor="middle" x="3180.94" y="-121.7" font-family="Times,serif" font-size="14.00">3:0 &#45; 3:0</text>
</g>
<!-- c25&#45;&gt;x4 -->
<g id="edge4" class="edge">
<title>c25:e&#45;&gt;x4:w</title>
<path fill="none" stroke="black" stroke-width="3" d="M3126.41,-125.19C3130.01,-125.45 3133.13,-125.78 3136.71,-126.04"/>
<polygon fill="none" stroke="black" stroke-width="3" points="3128.38,-125.26 3122.25,-129.05 3116.39,-124.84 3122.52,-121.05 3128.38,-125.26"/>
<polygon fill="none" stroke="black" stroke-width="3" points="3134.99,-125.98 3141.13,-122.19 3146.98,-126.4 3140.84,-130.19 3134.99,-125.98"/>
</g>
<!-- x3&#45;&gt;c25 -->
<g id="edge3" class="edge">
<title>x3:e&#45;&gt;c25:w</title>
<path fill="none" stroke="black" stroke-width="3" d="M2996.66,-136.56C3000.25,-136.6 3003.39,-136.65 3006.96,-136.68"/>
<polygon fill="none" stroke="black" stroke-width="3" points="2998.64,-136.57 2992.62,-140.54 2986.64,-136.51 2992.66,-132.54 2998.64,-136.57"/>
<polygon fill="none" stroke="black" stroke-width="3" points="3005.23,-136.68 3011.25,-132.71 3017.23,-136.74 3011.21,-140.71 3005.23,-136.68"/>
</g>
<!-- x4&#45;&gt;n17 -->
<g id="edge48" class="edge">
<title>x4:e&#45;&gt;n17:w</title>
<path fill="none" stroke="black" stroke-width="3" d="M3212.19,-126.75C3235.39,-126.75 3225.64,-162.24 3237.51,-174.44"/>
<polygon fill="black" stroke="black" stroke-width="3" points="3233.35,-176.6 3243.94,-176.89 3235.84,-170.06 3233.35,-176.6"/>
</g>
<!-- c26 -->
<g id="node16" class="node">
<title>c26</title>
<polygon fill="none" stroke="black" points="411.69,-250 411.69,-291 503.19,-291 503.19,-250 411.69,-250"/>
<text text-anchor="middle" x="424.57" y="-265.7" font-family="Times,serif" font-size="14.00">A</text>
<polyline fill="none" stroke="black" points="437.44,-250 437.44,-291"/>
<text text-anchor="middle" x="457.44" y="-273.7" font-family="Times,serif" font-size="14.00">$27</text>
<text text-anchor="middle" x="457.44" y="-257.2" font-family="Times,serif" font-size="14.00">$not</text>
<polyline fill="none" stroke="black" points="477.44,-250 477.44,-291"/>
<text text-anchor="middle" x="490.32" y="-265.7" font-family="Times,serif" font-size="14.00">Y</text>
</g>
<!-- n6 -->
<g id="node55" class="node">
<title>n6</title>
<ellipse fill="black" stroke="black" cx="540.99" cy="-269.5" rx="1.8" ry="1.8"/>
</g>
<!-- c26&#45;&gt;n6 -->
<g id="edge59" class="edge">
<title>c26:e&#45;&gt;n6:w</title>
<path fill="none" stroke="black" stroke-width="3" d="M503.19,-270.75C514.57,-270.75 519.87,-270.12 527.74,-269.75"/>
<polygon fill="black" stroke="black" stroke-width="3" points="524.73,-273.32 534.65,-269.6 524.58,-266.32 524.73,-273.32"/>
</g>
<!-- x5 -->
<g id="node17" class="node">
<title>x5</title>
<path fill="none" stroke="black" d="M325.19,-247C325.19,-247 363.69,-247 363.69,-247 369.69,-247 375.69,-253 375.69,-259 375.69,-259 375.69,-284 375.69,-284 375.69,-290 369.69,-296 363.69,-296 363.69,-296 325.19,-296 325.19,-296 319.19,-296 313.19,-290 313.19,-284 313.19,-284 313.19,-259 313.19,-259 313.19,-253 319.19,-247 325.19,-247"/>
<text text-anchor="middle" x="344.44" y="-278.7" font-family="Times,serif" font-size="14.00">4:4 &#45; 3:3</text>
<polyline fill="none" stroke="black" points="313.19,-271.5 375.69,-271.5"/>
<text text-anchor="middle" x="344.44" y="-254.2" font-family="Times,serif" font-size="14.00">2:0 &#45; 2:0</text>
</g>
<!-- x5&#45;&gt;c26 -->
<g id="edge5" class="edge">
<title>x5:e&#45;&gt;c26:w</title>
<path fill="none" stroke="black" stroke-width="3" d="M388.41,-271.31C392.01,-271.2 395.14,-271.06 398.72,-270.95"/>
<polygon fill="none" stroke="black" stroke-width="3" points="390.39,-271.28 384.45,-275.37 378.39,-271.46 384.33,-267.37 390.39,-271.28"/>
<polygon fill="none" stroke="black" stroke-width="3" points="396.99,-270.97 402.93,-266.88 408.99,-270.79 403.05,-274.88 396.99,-270.97"/>
</g>
<!-- c27 -->
<g id="node18" class="node">
<title>c27</title>
<polygon fill="none" stroke="black" points="3905.62,-130 3905.62,-171 3997.12,-171 3997.12,-130 3905.62,-130"/>
<text text-anchor="middle" x="3918.5" y="-145.7" font-family="Times,serif" font-size="14.00">A</text>
<polyline fill="none" stroke="black" points="3931.37,-130 3931.37,-171"/>
<text text-anchor="middle" x="3951.37" y="-153.7" font-family="Times,serif" font-size="14.00">$24</text>
<text text-anchor="middle" x="3951.37" y="-137.2" font-family="Times,serif" font-size="14.00">$not</text>
<polyline fill="none" stroke="black" points="3971.37,-130 3971.37,-171"/>
<text text-anchor="middle" x="3984.25" y="-145.7" font-family="Times,serif" font-size="14.00">Y</text>
</g>
<!-- c34 -->
<g id="node37" class="node">
<title>c34</title>
<polygon fill="none" stroke="black" points="4682.15,-152 4682.15,-201 4775.15,-201 4775.15,-152 4682.15,-152"/>
<text text-anchor="middle" x="4695.03" y="-183.7" font-family="Times,serif" font-size="14.00">A</text>
<polyline fill="none" stroke="black" points="4682.15,-176.5 4707.9,-176.5"/>
<text text-anchor="middle" x="4695.03" y="-159.2" font-family="Times,serif" font-size="14.00">B</text>
<polyline fill="none" stroke="black" points="4707.9,-152 4707.9,-201"/>
<text text-anchor="middle" x="4728.65" y="-179.7" font-family="Times,serif" font-size="14.00">$25</text>
<text text-anchor="middle" x="4728.65" y="-163.2" font-family="Times,serif" font-size="14.00">$sub</text>
<polyline fill="none" stroke="black" points="4749.4,-152 4749.4,-201"/>
<text text-anchor="middle" x="4762.28" y="-171.7" font-family="Times,serif" font-size="14.00">Y</text>
</g>
<!-- c27&#45;&gt;c34 -->
<g id="edge62" class="edge">
<title>c27:e&#45;&gt;c34:w</title>
<path fill="none" stroke="black" stroke-width="3" d="M3997.12,-150.75C4115.22,-150.75 4144.74,-150.5 4262.84,-150.5 4262.84,-150.5 4262.84,-150.5 4546.85,-150.5 4603.28,-150.5 4619.59,-162.48 4670.7,-164.08"/>
<polygon fill="black" stroke="black" stroke-width="3" points="4667.56,-167.53 4677.61,-164.18 4667.67,-160.53 4667.56,-167.53"/>
</g>
<!-- x6&#45;&gt;c27 -->
<g id="edge6" class="edge">
<title>x6:e&#45;&gt;c27:w</title>
<path fill="none" stroke="black" stroke-width="3" d="M3470.11,-150.5C3654.52,-150.51 3708.29,-150.74 3892.7,-150.75"/>
<polygon fill="none" stroke="black" stroke-width="3" points="3471.89,-150.5 3465.89,-154.5 3459.89,-150.5 3465.89,-146.5 3471.89,-150.5"/>
<polygon fill="none" stroke="black" stroke-width="3" points="3890.92,-150.75 3896.92,-146.75 3902.92,-150.75 3896.92,-154.75 3890.92,-150.75"/>
</g>
<!-- c28 -->
<g id="node20" class="node">
<title>c28</title>
<polygon fill="none" stroke="black" points="3581.53,-193 3581.53,-242 3669.28,-242 3669.28,-193 3581.53,-193"/>
<text text-anchor="middle" x="3594.4" y="-224.7" font-family="Times,serif" font-size="14.00">A</text>
<polyline fill="none" stroke="black" points="3581.53,-217.5 3607.28,-217.5"/>
<text text-anchor="middle" x="3594.4" y="-200.2" font-family="Times,serif" font-size="14.00">B</text>
<polyline fill="none" stroke="black" points="3607.28,-193 3607.28,-242"/>
<text text-anchor="middle" x="3625.4" y="-220.7" font-family="Times,serif" font-size="14.00">$21</text>
<text text-anchor="middle" x="3625.4" y="-204.2" font-family="Times,serif" font-size="14.00">$or</text>
<polyline fill="none" stroke="black" points="3643.53,-193 3643.53,-242"/>
<text text-anchor="middle" x="3656.4" y="-212.7" font-family="Times,serif" font-size="14.00">Y</text>
</g>
<!-- x9 -->
<g id="node23" class="node">
<title>x9</title>
<path fill="none" stroke="black" d="M3812.37,-199.5C3812.37,-199.5 3850.87,-199.5 3850.87,-199.5 3856.87,-199.5 3862.87,-205.5 3862.87,-211.5 3862.87,-211.5 3862.87,-223.5 3862.87,-223.5 3862.87,-229.5 3856.87,-235.5 3850.87,-235.5 3850.87,-235.5 3812.37,-235.5 3812.37,-235.5 3806.37,-235.5 3800.37,-229.5 3800.37,-223.5 3800.37,-223.5 3800.37,-211.5 3800.37,-211.5 3800.37,-205.5 3806.37,-199.5 3812.37,-199.5"/>
<text text-anchor="middle" x="3831.62" y="-212.7" font-family="Times,serif" font-size="14.00">2:0 &#45; 2:0</text>
</g>
<!-- c28&#45;&gt;x9 -->
<g id="edge9" class="edge">
<title>c28:e&#45;&gt;x9:w</title>
<path fill="none" stroke="black" stroke-width="3" d="M3683.28,-217.75C3726.19,-217.71 3743.55,-217.54 3786.53,-217.5"/>
<polygon fill="none" stroke="black" stroke-width="3" points="3684.98,-217.74 3678.98,-221.75 3672.98,-217.75 3678.98,-213.75 3684.98,-217.74"/>
<polygon fill="none" stroke="black" stroke-width="3" points="3784.67,-217.51 3790.66,-213.5 3796.67,-217.5 3790.67,-221.5 3784.67,-217.51"/>
</g>
<!-- x7&#45;&gt;c28 -->
<g id="edge7" class="edge">
<title>x7:e&#45;&gt;c28:w</title>
<path fill="none" stroke="black" stroke-width="3" d="M2366.98,-297.42C2416.69,-296.77 2433.69,-292.5 2489.28,-292.5 2489.28,-292.5 2489.28,-292.5 3304.44,-292.5 3425.85,-292.5 3452.85,-234.08 3567.62,-229.98"/>
<polygon fill="none" stroke="black" stroke-width="3" points="2368.68,-297.41 2362.71,-301.44 2356.68,-297.48 2362.66,-293.44 2368.68,-297.41"/>
<polygon fill="none" stroke="black" stroke-width="3" points="3565.83,-230.01 3571.76,-225.9 3577.82,-229.8 3571.9,-233.9 3565.83,-230.01"/>
</g>
<!-- x8&#45;&gt;c28 -->
<g id="edge8" class="edge">
<title>x8:e&#45;&gt;c28:w</title>
<path fill="none" stroke="black" stroke-width="3" d="M3470.18,-205.5C3510.52,-205.46 3527.19,-205.29 3567.52,-205.26"/>
<polygon fill="none" stroke="black" stroke-width="3" points="3471.89,-205.49 3465.89,-209.5 3459.89,-205.5 3465.89,-201.5 3471.89,-205.49"/>
<polygon fill="none" stroke="black" stroke-width="3" points="3565.82,-205.26 3571.82,-201.25 3577.82,-205.25 3571.83,-209.25 3565.82,-205.26"/>
</g>
<!-- n9 -->
<g id="node56" class="node">
<title>n9</title>
<ellipse fill="black" stroke="black" cx="3951.37" cy="-217.5" rx="1.8" ry="1.8"/>
</g>
<!-- x9&#45;&gt;n9 -->
<g id="edge65" class="edge">
<title>x9:e&#45;&gt;n9:w</title>
<path fill="none" stroke="black" stroke-width="3" d="M3863.87,-217.75C3897.21,-217.75 3908.28,-217.55 3936.74,-217.51"/>
<polygon fill="black" stroke="black" stroke-width="3" points="3933.55,-221.01 3943.55,-217.5 3933.55,-214.01 3933.55,-221.01"/>
</g>
<!-- c29 -->
<g id="node24" class="node">
<title>c29</title>
<polygon fill="none" stroke="black" points="4219.96,-179 4219.96,-228 4307.71,-228 4307.71,-179 4219.96,-179"/>
<text text-anchor="middle" x="4232.84" y="-210.7" font-family="Times,serif" font-size="14.00">A</text>
<polyline fill="none" stroke="black" points="4219.96,-203.5 4245.71,-203.5"/>
<text text-anchor="middle" x="4232.84" y="-186.2" font-family="Times,serif" font-size="14.00">B</text>
<polyline fill="none" stroke="black" points="4245.71,-179 4245.71,-228"/>
<text text-anchor="middle" x="4263.84" y="-206.7" font-family="Times,serif" font-size="14.00">$22</text>
<text text-anchor="middle" x="4263.84" y="-190.2" font-family="Times,serif" font-size="14.00">$or</text>
<polyline fill="none" stroke="black" points="4281.96,-179 4281.96,-228"/>
<text text-anchor="middle" x="4294.84" y="-198.7" font-family="Times,serif" font-size="14.00">Y</text>
</g>
<!-- x12 -->
<g id="node27" class="node">
<title>x12</title>
<path fill="none" stroke="black" d="M4450.8,-185.5C4450.8,-185.5 4489.3,-185.5 4489.3,-185.5 4495.3,-185.5 4501.3,-191.5 4501.3,-197.5 4501.3,-197.5 4501.3,-209.5 4501.3,-209.5 4501.3,-215.5 4495.3,-221.5 4489.3,-221.5 4489.3,-221.5 4450.8,-221.5 4450.8,-221.5 4444.8,-221.5 4438.8,-215.5 4438.8,-209.5 4438.8,-209.5 4438.8,-197.5 4438.8,-197.5 4438.8,-191.5 4444.8,-185.5 4450.8,-185.5"/>
<text text-anchor="middle" x="4470.05" y="-198.7" font-family="Times,serif" font-size="14.00">2:0 &#45; 2:0</text>
</g>
<!-- c29&#45;&gt;x12 -->
<g id="edge12" class="edge">
<title>c29:e&#45;&gt;x12:w</title>
<path fill="none" stroke="black" stroke-width="3" d="M4321.71,-203.75C4364.63,-203.71 4381.99,-203.54 4424.96,-203.5"/>
<polygon fill="none" stroke="black" stroke-width="3" points="4323.42,-203.74 4317.42,-207.75 4311.42,-203.75 4317.42,-199.75 4323.42,-203.74"/>
<polygon fill="none" stroke="black" stroke-width="3" points="4423.1,-203.51 4429.1,-199.5 4435.1,-203.5 4429.1,-207.5 4423.1,-203.51"/>
</g>
<!-- x10 -->
<g id="node25" class="node">
<title>x10</title>
<path fill="none" stroke="black" d="M4045.12,-198.5C4045.12,-198.5 4083.62,-198.5 4083.62,-198.5 4089.62,-198.5 4095.62,-204.5 4095.62,-210.5 4095.62,-210.5 4095.62,-222.5 4095.62,-222.5 4095.62,-228.5 4089.62,-234.5 4083.62,-234.5 4083.62,-234.5 4045.12,-234.5 4045.12,-234.5 4039.12,-234.5 4033.12,-228.5 4033.12,-222.5 4033.12,-222.5 4033.12,-210.5 4033.12,-210.5 4033.12,-204.5 4039.12,-198.5 4045.12,-198.5"/>
<text text-anchor="middle" x="4064.37" y="-211.7" font-family="Times,serif" font-size="14.00">2:0 &#45; 2:0</text>
</g>
<!-- x10&#45;&gt;c29 -->
<g id="edge10" class="edge">
<title>x10:e&#45;&gt;c29:w</title>
<path fill="none" stroke="black" stroke-width="3" d="M4108.61,-216.49C4148.95,-216.39 4165.62,-215.86 4205.96,-215.77"/>
<polygon fill="none" stroke="black" stroke-width="3" points="4110.32,-216.48 4104.33,-220.49 4098.32,-216.5 4104.32,-212.49 4110.32,-216.48"/>
<polygon fill="none" stroke="black" stroke-width="3" points="4204.26,-215.77 4210.25,-211.76 4216.26,-215.75 4210.26,-219.76 4204.26,-215.77"/>
</g>
<!-- x11&#45;&gt;c29 -->
<g id="edge11" class="edge">
<title>x11:e&#45;&gt;c29:w</title>
<path fill="none" stroke="black" stroke-width="3" d="M2245.17,-71.5C2318.3,-71.5 2341.18,-71.5 2420.23,-71.5 2420.23,-71.5 2420.23,-71.5 3952.37,-71.5 4077.82,-71.5 4088.46,-183.2 4206.07,-190.84"/>
<polygon fill="none" stroke="black" stroke-width="3" points="2247.18,-71.5 2241.18,-75.5 2235.18,-71.5 2241.18,-67.5 2247.18,-71.5"/>
<polygon fill="none" stroke="black" stroke-width="3" points="4204.27,-190.78 4210.39,-186.98 4216.26,-191.16 4210.14,-194.97 4204.27,-190.78"/>
</g>
<!-- n10 -->
<g id="node51" class="node">
<title>n10</title>
<ellipse fill="black" stroke="black" cx="4545.85" cy="-203.5" rx="1.8" ry="1.8"/>
</g>
<!-- x12&#45;&gt;n10 -->
<g id="edge23" class="edge">
<title>x12:e&#45;&gt;n10:w</title>
<path fill="none" stroke="black" stroke-width="3" d="M4502.3,-203.75C4516.37,-203.75 4522.44,-203.61 4532.63,-203.54"/>
<polygon fill="black" stroke="black" stroke-width="3" points="4529.53,-207.05 4539.51,-203.51 4529.5,-200.05 4529.53,-207.05"/>
</g>
<!-- x14 -->
<g id="node30" class="node">
<title>x14</title>
<path fill="none" stroke="black" d="M815.29,-181C815.29,-181 853.79,-181 853.79,-181 859.79,-181 865.79,-187 865.79,-193 865.79,-193 865.79,-218 865.79,-218 865.79,-224 859.79,-230 853.79,-230 853.79,-230 815.29,-230 815.29,-230 809.29,-230 803.29,-224 803.29,-218 803.29,-218 803.29,-193 803.29,-193 803.29,-187 809.29,-181 815.29,-181"/>
<text text-anchor="middle" x="834.54" y="-212.7" font-family="Times,serif" font-size="14.00">4:4 &#45; 0:0</text>
<polyline fill="none" stroke="black" points="803.29,-205.5 865.79,-205.5"/>
<text text-anchor="middle" x="834.54" y="-188.2" font-family="Times,serif" font-size="14.00">3:0 &#45; 3:0</text>
</g>
<!-- c30&#45;&gt;x14 -->
<g id="edge14" class="edge">
<title>c30:e&#45;&gt;x14:w</title>
<path fill="none" stroke="black" stroke-width="3" d="M780.01,-205.69C783.61,-205.65 786.74,-205.6 790.32,-205.57"/>
<polygon fill="none" stroke="black" stroke-width="3" points="781.99,-205.68 776.01,-209.71 770,-205.74 775.98,-201.71 781.99,-205.68"/>
<polygon fill="none" stroke="black" stroke-width="3" points="788.59,-205.57 794.57,-201.54 800.59,-205.51 794.61,-209.54 788.59,-205.57"/>
</g>
<!-- x13 -->
<g id="node29" class="node">
<title>x13</title>
<path fill="none" stroke="black" d="M590.79,-208.75C590.79,-208.75 629.29,-208.75 629.29,-208.75 635.29,-208.75 641.29,-214.75 641.29,-220.75 641.29,-220.75 641.29,-270.25 641.29,-270.25 641.29,-276.25 635.29,-282.25 629.29,-282.25 629.29,-282.25 590.79,-282.25 590.79,-282.25 584.79,-282.25 578.79,-276.25 578.79,-270.25 578.79,-270.25 578.79,-220.75 578.79,-220.75 578.79,-214.75 584.79,-208.75 590.79,-208.75"/>
<text text-anchor="middle" x="610.04" y="-264.95" font-family="Times,serif" font-size="14.00">3:3 &#45; 4:4</text>
<polyline fill="none" stroke="black" points="578.79,-257.75 641.29,-257.75"/>
<text text-anchor="middle" x="610.04" y="-240.45" font-family="Times,serif" font-size="14.00">3:3 &#45; 3:3</text>
<polyline fill="none" stroke="black" points="578.79,-233.25 641.29,-233.25"/>
<text text-anchor="middle" x="610.04" y="-215.95" font-family="Times,serif" font-size="14.00">2:0 &#45; 2:0</text>
</g>
<!-- x13&#45;&gt;c30 -->
<g id="edge13" class="edge">
<title>x13:e&#45;&gt;c30:w</title>
<path fill="none" stroke="black" stroke-width="3" d="M653.1,-240.67C658.09,-235.57 660.53,-227.6 665.53,-222.53"/>
<polygon fill="none" stroke="black" stroke-width="3" points="654.9,-239.93 650.86,-245.91 643.79,-244.48 647.83,-238.5 654.9,-239.93"/>
<polygon fill="none" stroke="black" stroke-width="3" points="663.67,-223.29 667.72,-217.32 674.79,-218.77 670.73,-224.73 663.67,-223.29"/>
</g>
<!-- n11 -->
<g id="node52" class="node">
<title>n11</title>
<ellipse fill="black" stroke="black" cx="1041.69" cy="-189.5" rx="1.8" ry="1.8"/>
</g>
<!-- x14&#45;&gt;n11 -->
<g id="edge26" class="edge">
<title>x14:e&#45;&gt;n11:w</title>
<path fill="none" stroke="black" stroke-width="3" d="M865.79,-193.25C939.26,-193.25 960.38,-189.87 1028.53,-189.53"/>
<polygon fill="black" stroke="black" stroke-width="3" points="1025.36,-193.04 1035.35,-189.51 1025.34,-186.04 1025.36,-193.04"/>
</g>
<!-- n4 -->
<g id="node53" class="node">
<title>n4</title>
<ellipse fill="black" stroke="black" cx="903.59" cy="-227.5" rx="1.8" ry="1.8"/>
</g>
<!-- x14&#45;&gt;n4 -->
<g id="edge53" class="edge">
<title>x14:e&#45;&gt;n4:w</title>
<path fill="none" stroke="black" d="M865.79,-217.75C877.71,-217.75 882.53,-222.79 890.45,-225.62"/>
<polygon fill="black" stroke="black" points="889.86,-229.07 900.3,-227.25 891,-222.16 889.86,-229.07"/>
</g>
<!-- c31&#45;&gt;c32 -->
<g id="edge29" class="edge">
<title>c31:e&#45;&gt;c32:w</title>
<path fill="none" stroke="black" stroke-width="3" d="M1494.74,-126.75C1506.12,-126.75 1511.43,-126.75 1519.29,-126.75"/>
<polygon fill="black" stroke="black" stroke-width="3" points="1516.2,-130.25 1526.2,-126.75 1516.2,-123.25 1516.2,-130.25"/>
</g>
<!-- x15&#45;&gt;c31 -->
<g id="edge15" class="edge">
<title>x15:e&#45;&gt;c31:w</title>
<path fill="none" stroke="black" stroke-width="3" d="M1380.39,-174.17C1386.58,-166.41 1386.86,-152.05 1392.98,-144.21"/>
<polygon fill="none" stroke="black" stroke-width="3" points="1382.11,-173.39 1378.32,-179.52 1371.2,-178.38 1374.99,-172.24 1382.11,-173.39"/>
<polygon fill="none" stroke="black" stroke-width="3" points="1391.4,-144.94 1395.16,-138.79 1402.29,-139.89 1398.53,-146.04 1391.4,-144.94"/>
</g>
<!-- c32&#45;&gt;n15 -->
<g id="edge37" class="edge">
<title>c32:e&#45;&gt;n15:w</title>
<path fill="none" stroke="black" stroke-width="3" d="M1623.74,-114.75C1635.18,-114.75 1640.42,-116.65 1648.27,-117.74"/>
<polygon fill="black" stroke="black" stroke-width="3" points="1645,-121.03 1655.21,-118.2 1645.46,-114.05 1645,-121.03"/>
</g>
<!-- v16 -->
<g id="node34" class="node">
<title>v16</title>
<ellipse fill="none" stroke="black" cx="2577.38" cy="-237.5" rx="49.3" ry="18"/>
<text text-anchor="middle" x="2577.38" y="-232.45" font-family="Times,serif" font-size="14.00">7&#39;1111111</text>
</g>
<!-- c33 -->
<g id="node35" class="node">
<title>c33</title>
<polygon fill="none" stroke="black" points="2662.69,-164 2662.69,-213 2755.69,-213 2755.69,-164 2662.69,-164"/>
<text text-anchor="middle" x="2675.56" y="-195.7" font-family="Times,serif" font-size="14.00">A</text>
<polyline fill="none" stroke="black" points="2662.69,-188.5 2688.44,-188.5"/>
<text text-anchor="middle" x="2675.56" y="-171.2" font-family="Times,serif" font-size="14.00">B</text>
<polyline fill="none" stroke="black" points="2688.44,-164 2688.44,-213"/>
<text text-anchor="middle" x="2709.19" y="-191.7" font-family="Times,serif" font-size="14.00">$18</text>
<text text-anchor="middle" x="2709.19" y="-175.2" font-family="Times,serif" font-size="14.00">$sub</text>
<polyline fill="none" stroke="black" points="2729.94,-164 2729.94,-213"/>
<text text-anchor="middle" x="2742.81" y="-183.7" font-family="Times,serif" font-size="14.00">Y</text>
</g>
<!-- v16&#45;&gt;c33 -->
<g id="edge68" class="edge">
<title>v16:e&#45;&gt;c33:w</title>
<path fill="none" stroke="black" stroke-width="3" d="M2626.69,-237.5C2644.91,-237.5 2642.43,-214.16 2652.24,-204.68"/>
<polygon fill="black" stroke="black" stroke-width="3" points="2650.31,-209.15 2658.44,-202.35 2647.84,-202.6 2650.31,-209.15"/>
</g>
<!-- c33&#45;&gt;c22 -->
<g id="edge63" class="edge">
<title>c33:e&#45;&gt;c22:w</title>
<path fill="none" stroke="black" stroke-width="3" d="M2755.69,-188.75C2774.93,-188.75 2771.03,-162.85 2781.23,-152.73"/>
<polygon fill="black" stroke="black" stroke-width="3" points="2779.34,-157.2 2787.44,-150.37 2776.85,-150.65 2779.34,-157.2"/>
</g>
<!-- x17&#45;&gt;c33 -->
<g id="edge16" class="edge">
<title>x17:e&#45;&gt;c33:w</title>
<path fill="none" stroke="black" stroke-width="3" d="M2631.08,-176.46C2637.94,-176.41 2643.1,-176.34 2649.97,-176.29"/>
<polygon fill="none" stroke="black" stroke-width="3" points="2632.96,-176.45 2626.97,-180.47 2620.96,-176.49 2626.95,-172.47 2632.96,-176.45"/>
<polygon fill="none" stroke="black" stroke-width="3" points="2647.98,-176.3 2653.97,-172.28 2659.98,-176.26 2653.99,-180.28 2647.98,-176.3"/>
</g>
<!-- c34&#45;&gt;n14 -->
<g id="edge36" class="edge">
<title>c34:e&#45;&gt;n14:w</title>
<path fill="none" stroke="black" stroke-width="3" d="M4775.15,-176.75C4786.53,-176.75 4791.84,-176.62 4799.71,-176.55"/>
<polygon fill="black" stroke="black" stroke-width="3" points="4796.63,-180.06 4806.61,-176.52 4796.6,-173.06 4796.63,-180.06"/>
</g>
<!-- x18 -->
<g id="node38" class="node">
<title>x18</title>
<path fill="none" stroke="black" d="M4595.65,-182.5C4595.65,-182.5 4634.15,-182.5 4634.15,-182.5 4640.15,-182.5 4646.15,-188.5 4646.15,-194.5 4646.15,-194.5 4646.15,-206.5 4646.15,-206.5 4646.15,-212.5 4640.15,-218.5 4634.15,-218.5 4634.15,-218.5 4595.65,-218.5 4595.65,-218.5 4589.65,-218.5 4583.65,-212.5 4583.65,-206.5 4583.65,-206.5 4583.65,-194.5 4583.65,-194.5 4583.65,-188.5 4589.65,-182.5 4595.65,-182.5"/>
<text text-anchor="middle" x="4614.9" y="-195.7" font-family="Times,serif" font-size="14.00">2:0 &#45; 2:0</text>
</g>
<!-- x18&#45;&gt;c34 -->
<g id="edge17" class="edge">
<title>x18:e&#45;&gt;c34:w</title>
<path fill="none" stroke="black" stroke-width="3" d="M4658.57,-197.77C4662.44,-195.93 4665.59,-193.5 4669.43,-191.62"/>
<polygon fill="none" stroke="black" stroke-width="3" points="4660.52,-197.35 4655.51,-202.54 4648.8,-199.92 4653.8,-194.73 4660.52,-197.35"/>
<polygon fill="none" stroke="black" stroke-width="3" points="4667.81,-191.99 4672.78,-186.77 4679.52,-189.35 4674.55,-194.57 4667.81,-191.99"/>
</g>
<!-- x20 -->
<g id="node40" class="node">
<title>x20</title>
<path fill="none" stroke="black" d="M2401.98,-185.5C2401.98,-185.5 2440.48,-185.5 2440.48,-185.5 2446.48,-185.5 2452.48,-191.5 2452.48,-197.5 2452.48,-197.5 2452.48,-209.5 2452.48,-209.5 2452.48,-215.5 2446.48,-221.5 2440.48,-221.5 2440.48,-221.5 2401.98,-221.5 2401.98,-221.5 2395.98,-221.5 2389.98,-215.5 2389.98,-209.5 2389.98,-209.5 2389.98,-197.5 2389.98,-197.5 2389.98,-191.5 2395.98,-185.5 2401.98,-185.5"/>
<text text-anchor="middle" x="2421.23" y="-198.7" font-family="Times,serif" font-size="14.00">0:0 &#45; 4:4</text>
</g>
<!-- x19&#45;&gt;x20 -->
<g id="edge18" class="edge">
<title>x19:e&#45;&gt;x20:w</title>
<path fill="none" stroke="black" d="M2366.7,-203.5C2370.3,-203.5 2373.43,-203.5 2377,-203.5"/>
<polygon fill="none" stroke="black" points="2366.88,-203.5 2360.88,-207.5 2354.88,-203.5 2360.88,-199.5 2366.88,-203.5"/>
<polygon fill="none" stroke="black" points="2377.08,-203.5 2383.08,-199.5 2389.08,-203.5 2383.08,-207.5 2377.08,-203.5"/>
</g>
<!-- x20&#45;&gt;n5 -->
<g id="edge56" class="edge">
<title>x20:e&#45;&gt;n5:w</title>
<path fill="none" stroke="black" d="M2452.48,-203.75C2471.34,-203.75 2467.97,-178.83 2477.8,-168.7"/>
<polygon fill="black" stroke="black" points="2479.04,-171.97 2487.07,-165.05 2476.48,-165.46 2479.04,-171.97"/>
</g>
<!-- v21 -->
<g id="node41" class="node">
<title>v21</title>
<ellipse fill="none" stroke="black" cx="3625.4" cy="-278.5" rx="132.22" ry="18"/>
<text text-anchor="middle" x="3625.4" y="-273.45" font-family="Times,serif" font-size="14.00">24&#39;000000000000000000000000</text>
</g>
<!-- x22 -->
<g id="node42" class="node">
<title>x22</title>
<path fill="none" stroke="black" d="M3805.62,-257.5C3805.62,-257.5 3857.62,-257.5 3857.62,-257.5 3863.62,-257.5 3869.62,-263.5 3869.62,-269.5 3869.62,-269.5 3869.62,-281.5 3869.62,-281.5 3869.62,-287.5 3863.62,-293.5 3857.62,-293.5 3857.62,-293.5 3805.62,-293.5 3805.62,-293.5 3799.62,-293.5 3793.62,-287.5 3793.62,-281.5 3793.62,-281.5 3793.62,-269.5 3793.62,-269.5 3793.62,-263.5 3799.62,-257.5 3805.62,-257.5"/>
<text text-anchor="middle" x="3831.62" y="-270.7" font-family="Times,serif" font-size="14.00">23:0 &#45; 31:8</text>
</g>
<!-- v21&#45;&gt;x22 -->
<g id="edge69" class="edge">
<title>v21:e&#45;&gt;x22:w</title>
<path fill="none" stroke="black" stroke-width="3" d="M3757.62,-278.5C3769.03,-278.5 3774.3,-276.98 3782.16,-276.11"/>
<polygon fill="black" stroke="black" stroke-width="3" points="3779.29,-279.76 3789.09,-275.74 3778.91,-272.77 3779.29,-279.76"/>
</g>
<!-- x22&#45;&gt;n9 -->
<g id="edge64" class="edge">
<title>x22:e&#45;&gt;n9:w</title>
<path fill="none" stroke="black" stroke-width="3" d="M3869.62,-275.75C3908.81,-275.75 3905.8,-228.32 3936.75,-219.06"/>
<polygon fill="black" stroke="black" stroke-width="3" points="3934.16,-222.95 3943.59,-218.12 3933.21,-216.01 3934.16,-222.95"/>
</g>
<!-- v23 -->
<g id="node43" class="node">
<title>v23</title>
<ellipse fill="none" stroke="black" cx="4263.84" cy="-264.5" rx="132.22" ry="18"/>
<text text-anchor="middle" x="4263.84" y="-259.45" font-family="Times,serif" font-size="14.00">24&#39;000000000000000000000000</text>
</g>
<!-- x24 -->
<g id="node44" class="node">
<title>x24</title>
<path fill="none" stroke="black" d="M4444.05,-243.5C4444.05,-243.5 4496.05,-243.5 4496.05,-243.5 4502.05,-243.5 4508.05,-249.5 4508.05,-255.5 4508.05,-255.5 4508.05,-267.5 4508.05,-267.5 4508.05,-273.5 4502.05,-279.5 4496.05,-279.5 4496.05,-279.5 4444.05,-279.5 4444.05,-279.5 4438.05,-279.5 4432.05,-273.5 4432.05,-267.5 4432.05,-267.5 4432.05,-255.5 4432.05,-255.5 4432.05,-249.5 4438.05,-243.5 4444.05,-243.5"/>
<text text-anchor="middle" x="4470.05" y="-256.7" font-family="Times,serif" font-size="14.00">23:0 &#45; 31:8</text>
</g>
<!-- v23&#45;&gt;x24 -->
<g id="edge70" class="edge">
<title>v23:e&#45;&gt;x24:w</title>
<path fill="none" stroke="black" stroke-width="3" d="M4396.05,-264.5C4407.47,-264.5 4412.73,-262.98 4420.59,-262.11"/>
<polygon fill="black" stroke="black" stroke-width="3" points="4417.72,-265.76 4427.52,-261.74 4417.35,-258.77 4417.72,-265.76"/>
</g>
<!-- x24&#45;&gt;n10 -->
<g id="edge24" class="edge">
<title>x24:e&#45;&gt;n10:w</title>
<path fill="none" stroke="black" stroke-width="3" d="M4508.05,-261.75C4533.73,-261.75 4520.04,-220.28 4533.42,-207.32"/>
<polygon fill="black" stroke="black" stroke-width="3" points="4531.55,-211.71 4539.78,-205.04 4529.19,-205.12 4531.55,-211.71"/>
</g>
<!-- x25 -->
<g id="node45" class="node">
<title>x25</title>
<path fill="none" stroke="black" d="M953.39,-209.5C953.39,-209.5 991.89,-209.5 991.89,-209.5 997.89,-209.5 1003.89,-215.5 1003.89,-221.5 1003.89,-221.5 1003.89,-233.5 1003.89,-233.5 1003.89,-239.5 997.89,-245.5 991.89,-245.5 991.89,-245.5 953.39,-245.5 953.39,-245.5 947.39,-245.5 941.39,-239.5 941.39,-233.5 941.39,-233.5 941.39,-221.5 941.39,-221.5 941.39,-215.5 947.39,-209.5 953.39,-209.5"/>
<text text-anchor="middle" x="972.64" y="-222.7" font-family="Times,serif" font-size="14.00">0:0 &#45; 4:4</text>
</g>
<!-- x25&#45;&gt;n11 -->
<g id="edge27" class="edge">
<title>x25:e&#45;&gt;n11:w</title>
<path fill="none" stroke="black" d="M1003.89,-227.75C1022.49,-227.75 1019.48,-203.46 1029.31,-193.59"/>
<polygon fill="black" stroke="black" points="1030.42,-196.92 1038.48,-190.05 1027.89,-190.39 1030.42,-196.92"/>
</g>
<!-- v26 -->
<g id="node46" class="node">
<title>v26</title>
<ellipse fill="none" stroke="black" cx="1901.61" cy="-239.5" rx="95.37" ry="18"/>
<text text-anchor="middle" x="1901.61" y="-234.45" font-family="Times,serif" font-size="14.00">16&#39;111111111111xxxx</text>
</g>
<!-- x27 -->
<g id="node47" class="node">
<title>x27</title>
<path fill="none" stroke="black" d="M2044.98,-215C2044.98,-215 2096.98,-215 2096.98,-215 2102.98,-215 2108.98,-221 2108.98,-227 2108.98,-227 2108.98,-252 2108.98,-252 2108.98,-258 2102.98,-264 2096.98,-264 2096.98,-264 2044.98,-264 2044.98,-264 2038.98,-264 2032.98,-258 2032.98,-252 2032.98,-252 2032.98,-227 2032.98,-227 2032.98,-221 2038.98,-215 2044.98,-215"/>
<text text-anchor="middle" x="2070.98" y="-246.7" font-family="Times,serif" font-size="14.00">15:4 &#45; 16:5</text>
<polyline fill="none" stroke="black" points="2032.98,-239.5 2108.98,-239.5"/>
<text text-anchor="middle" x="2070.98" y="-222.2" font-family="Times,serif" font-size="14.00">3:0 &#45; 3:0</text>
</g>
<!-- v26&#45;&gt;x27 -->
<g id="edge71" class="edge">
<title>v26:e&#45;&gt;x27:w</title>
<path fill="none" stroke="black" stroke-width="3" d="M1996.98,-239.5C2008.35,-239.5 2013.66,-239.5 2021.53,-239.5"/>
<polygon fill="black" stroke="black" stroke-width="3" points="2018.44,-243 2028.44,-239.5 2018.44,-236 2018.44,-243"/>
</g>
<!-- x27&#45;&gt;n16 -->
<g id="edge42" class="edge">
<title>x27:e&#45;&gt;n16:w</title>
<path fill="none" stroke="black" stroke-width="3" d="M2108.98,-227.25C2120.35,-227.25 2125.66,-227.38 2133.53,-227.45"/>
<polygon fill="black" stroke="black" stroke-width="3" points="2130.42,-230.94 2140.44,-227.48 2130.45,-223.94 2130.42,-230.94"/>
</g>
<!-- x27&#45;&gt;n16 -->
<g id="edge43" class="edge">
<title>x27:e&#45;&gt;n16:w</title>
<path fill="none" stroke="black" stroke-width="3" d="M2108.98,-251.75C2123.6,-251.75 2125.65,-237.82 2134.19,-231.08"/>
<polygon fill="black" stroke="black" stroke-width="3" points="2132.28,-235.4 2140.67,-228.93 2130.07,-228.76 2132.28,-235.4"/>
</g>
<!-- v28 -->
<g id="node48" class="node">
<title>v28</title>
<ellipse fill="none" stroke="black" cx="3066.81" cy="-185.5" rx="35.49" ry="18"/>
<text text-anchor="middle" x="3066.81" y="-180.45" font-family="Times,serif" font-size="14.00">4&#39;0000</text>
</g>
<!-- x29 -->
<g id="node49" class="node">
<title>x29</title>
<path fill="none" stroke="black" d="M3161.69,-165.5C3161.69,-165.5 3200.19,-165.5 3200.19,-165.5 3206.19,-165.5 3212.19,-171.5 3212.19,-177.5 3212.19,-177.5 3212.19,-189.5 3212.19,-189.5 3212.19,-195.5 3206.19,-201.5 3200.19,-201.5 3200.19,-201.5 3161.69,-201.5 3161.69,-201.5 3155.69,-201.5 3149.69,-195.5 3149.69,-189.5 3149.69,-189.5 3149.69,-177.5 3149.69,-177.5 3149.69,-171.5 3155.69,-165.5 3161.69,-165.5"/>
<text text-anchor="middle" x="3180.94" y="-178.7" font-family="Times,serif" font-size="14.00">3:0 &#45; 7:4</text>
</g>
<!-- v28&#45;&gt;x29 -->
<g id="edge72" class="edge">
<title>v28:e&#45;&gt;x29:w</title>
<path fill="none" stroke="black" stroke-width="3" d="M3103.63,-185.5C3119.8,-185.5 3126.37,-184.25 3138.49,-183.73"/>
<polygon fill="black" stroke="black" stroke-width="3" points="3135.22,-187.3 3145.15,-183.59 3135.08,-180.3 3135.22,-187.3"/>
</g>
<!-- x29&#45;&gt;n17 -->
<g id="edge47" class="edge">
<title>x29:e&#45;&gt;n17:w</title>
<path fill="none" stroke="black" stroke-width="3" d="M3212.19,-183.75C3223.81,-183.75 3228.97,-181.04 3236.95,-179.51"/>
<polygon fill="black" stroke="black" stroke-width="3" points="3234.02,-183.29 3243.66,-178.91 3233.39,-176.32 3234.02,-183.29"/>
</g>
<!-- n1&#45;&gt;x5 -->
<g id="edge21" class="edge">
<title>n1:e&#45;&gt;x5:w</title>
<path fill="none" stroke="black" stroke-width="3" d="M277.19,-252.5C288.89,-252.5 293.96,-255.99 301.93,-257.95"/>
<polygon fill="black" stroke="black" stroke-width="3" points="298.34,-261.06 308.68,-258.73 299.15,-254.1 298.34,-261.06"/>
</g>
<!-- n1&#45;&gt;x5 -->
<g id="edge22" class="edge">
<title>n1:e&#45;&gt;x5:w</title>
<path fill="none" stroke="black" d="M277.19,-252.5C293.74,-252.5 293.47,-271.57 302.67,-279.92"/>
<polygon fill="black" stroke="black" points="301.17,-283.1 311.77,-283.23 303.57,-276.52 301.17,-283.1"/>
</g>
<!-- n1&#45;&gt;x13 -->
<g id="edge20" class="edge">
<title>n1:e&#45;&gt;x13:w</title>
<path fill="none" stroke="black" d="M277.19,-252.5C294.52,-252.5 296.19,-240.9 313.19,-237.5 330.39,-234.06 450.36,-238.13 503.19,-240.5 532.76,-241.82 542.74,-244.68 567.58,-245.36"/>
<polygon fill="black" stroke="black" points="567.23,-248.85 577.28,-245.48 567.32,-241.85 567.23,-248.85"/>
</g>
<!-- n10&#45;&gt;x18 -->
<g id="edge25" class="edge">
<title>n10:e&#45;&gt;x18:w</title>
<path fill="none" stroke="black" stroke-width="3" d="M4547.65,-203.5C4559.06,-203.5 4564.33,-202.11 4572.2,-201.31"/>
<polygon fill="black" stroke="black" stroke-width="3" points="4569.3,-204.95 4579.12,-200.97 4568.96,-197.96 4569.3,-204.95"/>
</g>
<!-- n11&#45;&gt;x1 -->
<g id="edge28" class="edge">
<title>n11:e&#45;&gt;x1:w</title>
<path fill="none" stroke="black" stroke-width="3" d="M1043.49,-189.5C1054.87,-189.5 1060.18,-189.63 1068.04,-189.7"/>
<polygon fill="black" stroke="black" stroke-width="3" points="1064.93,-193.19 1074.95,-189.73 1064.97,-186.19 1064.93,-193.19"/>
</g>
<!-- n4&#45;&gt;x15 -->
<g id="edge54" class="edge">
<title>n4:e&#45;&gt;x15:w</title>
<path fill="none" stroke="black" d="M905.39,-227.5C925.66,-227.5 922.92,-247.14 941.39,-255.5 982.33,-274.03 995.76,-274.5 1040.69,-274.5 1040.69,-274.5 1040.69,-274.5 1111.74,-274.5 1132.8,-274.5 1253.54,-208 1295.24,-194.23"/>
<polygon fill="black" stroke="black" points="1295.78,-197.69 1304.76,-192.08 1294.24,-190.86 1295.78,-197.69"/>
</g>
<!-- n4&#45;&gt;x25 -->
<g id="edge55" class="edge">
<title>n4:e&#45;&gt;x25:w</title>
<path fill="none" stroke="black" d="M905.39,-227.5C916.77,-227.5 922.08,-227.5 929.94,-227.5"/>
<polygon fill="black" stroke="black" points="929.88,-231 939.88,-227.5 929.88,-224 929.88,-231"/>
</g>
<!-- n5&#45;&gt;x17 -->
<g id="edge58" class="edge">
<title>n5:e&#45;&gt;x17:w</title>
<path fill="none" stroke="black" stroke-width="3" d="M2492.08,-164.5C2507.35,-164.5 2513.76,-164.35 2525.02,-164.28"/>
<polygon fill="black" stroke="black" stroke-width="3" points="2521.98,-167.79 2531.97,-164.26 2521.96,-160.79 2521.98,-167.79"/>
</g>
<!-- n6&#45;&gt;x13 -->
<g id="edge60" class="edge">
<title>n6:e&#45;&gt;x13:w</title>
<path fill="none" stroke="black" stroke-width="3" d="M542.79,-269.5C564.81,-269.5 556.87,-236.86 568.12,-225.14"/>
<polygon fill="black" stroke="black" stroke-width="3" points="566.5,-229.52 574.56,-222.64 563.97,-222.99 566.5,-229.52"/>
</g>
<!-- n6&#45;&gt;x13 -->
<g id="edge61" class="edge">
<title>n6:e&#45;&gt;x13:w</title>
<path fill="none" stroke="black" d="M542.79,-269.5C554.17,-269.5 559.48,-269.75 567.34,-269.9"/>
<polygon fill="black" stroke="black" points="567.25,-273.4 577.28,-269.99 567.31,-266.4 567.25,-273.4"/>
</g>
<!-- n9&#45;&gt;x10 -->
<g id="edge66" class="edge">
<title>n9:e&#45;&gt;x10:w</title>
<path fill="none" stroke="black" stroke-width="3" d="M3954.65,-217.5C3985.44,-217.5 3995.84,-216.92 4021.85,-216.78"/>
<polygon fill="black" stroke="black" stroke-width="3" points="4018.59,-220.29 4028.58,-216.76 4018.57,-213.29 4018.59,-220.29"/>
</g>
</g>
</svg>
