<?xml version="1.0" encoding="UTF-8" standalone="no"?>
<!DOCTYPE svg PUBLIC "-//W3C//DTD SVG 1.1//EN"
 "http://www.w3.org/Graphics/SVG/1.1/DTD/svg11.dtd">
<!-- Generated by graphviz version 12.2.1 (20241206.2353)
 -->
<!-- Title: top Pages: 1 -->
<svg width="5956pt" height="523pt"
 viewBox="0.00 0.00 5956.10 522.96" xmlns="http://www.w3.org/2000/svg" xmlns:xlink="http://www.w3.org/1999/xlink">
<g id="graph0" class="graph" transform="scale(1 1) rotate(0) translate(4 518.96)">
<title>top</title>
<polygon fill="white" stroke="none" points="-4,4 -4,-518.96 5952.1,-518.96 5952.1,4 -4,4"/>
<text text-anchor="middle" x="2974.05" y="-7.2" font-family="Times,serif" font-size="14.00">top</text>
<!-- n18 -->
<g id="node1" class="node">
<title>n18</title>
<polygon fill="none" stroke="black" points="107.84,-424.04 107.84,-438.96 76.26,-449.5 31.59,-449.5 0,-438.96 0,-424.04 31.59,-413.5 76.26,-413.5 107.84,-424.04"/>
<text text-anchor="middle" x="53.92" y="-426.45" font-family="Times,serif" font-size="14.00">input_data</text>
</g>
<!-- c29 -->
<g id="node10" class="node">
<title>c29</title>
<polygon fill="none" stroke="black" points="2180.94,-186 2180.94,-235 2274.69,-235 2274.69,-186 2180.94,-186"/>
<text text-anchor="middle" x="2193.82" y="-217.7" font-family="Times,serif" font-size="14.00">A</text>
<polyline fill="none" stroke="black" points="2180.94,-210.5 2206.69,-210.5"/>
<text text-anchor="middle" x="2193.82" y="-193.2" font-family="Times,serif" font-size="14.00">B</text>
<polyline fill="none" stroke="black" points="2206.69,-186 2206.69,-235"/>
<text text-anchor="middle" x="2227.82" y="-213.7" font-family="Times,serif" font-size="14.00">$10</text>
<text text-anchor="middle" x="2227.82" y="-197.2" font-family="Times,serif" font-size="14.00">$add</text>
<polyline fill="none" stroke="black" points="2248.94,-186 2248.94,-235"/>
<text text-anchor="middle" x="2261.82" y="-205.7" font-family="Times,serif" font-size="14.00">Y</text>
</g>
<!-- n18&#45;&gt;c29 -->
<g id="edge46" class="edge">
<title>n18:e&#45;&gt;c29:w</title>
<path fill="none" stroke="black" stroke-width="3" d="M107.84,-431.5C155.37,-431.5 270.81,-469.5 318.34,-469.5 318.34,-469.5 318.34,-469.5 1310.84,-469.5 1318.69,-469.5 1506.24,-276.31 1513.09,-272.5 1625.38,-210.18 1666.31,-219.81 1793.69,-203.5 1960.59,-182.13 2006.76,-197.52 2169.54,-198.23"/>
<polygon fill="black" stroke="black" stroke-width="3" points="2166.39,-201.72 2176.4,-198.24 2166.41,-194.72 2166.39,-201.72"/>
</g>
<!-- c40 -->
<g id="node37" class="node">
<title>c40</title>
<polygon fill="none" stroke="black" points="271.34,-370 271.34,-419 367.34,-419 367.34,-370 271.34,-370"/>
<text text-anchor="middle" x="284.22" y="-401.7" font-family="Times,serif" font-size="14.00">A</text>
<polyline fill="none" stroke="black" points="271.34,-394.5 297.09,-394.5"/>
<text text-anchor="middle" x="284.22" y="-377.2" font-family="Times,serif" font-size="14.00">B</text>
<polyline fill="none" stroke="black" points="297.09,-370 297.09,-419"/>
<text text-anchor="middle" x="319.34" y="-397.7" font-family="Times,serif" font-size="14.00">$2</text>
<text text-anchor="middle" x="319.34" y="-381.2" font-family="Times,serif" font-size="14.00">$mul</text>
<polyline fill="none" stroke="black" points="341.59,-370 341.59,-419"/>
<text text-anchor="middle" x="354.47" y="-389.7" font-family="Times,serif" font-size="14.00">Y</text>
</g>
<!-- n18&#45;&gt;c40 -->
<g id="edge47" class="edge">
<title>n18:e&#45;&gt;c40:w</title>
<path fill="none" stroke="black" stroke-width="3" d="M107.84,-431.5C165.13,-431.5 178.72,-421.24 235.34,-412.5 246.85,-410.72 252.04,-408.53 260.07,-407.44"/>
<polygon fill="black" stroke="black" stroke-width="3" points="257.04,-411.13 266.81,-407.03 256.61,-404.14 257.04,-411.13"/>
</g>
<!-- c41 -->
<g id="node38" class="node">
<title>c41</title>
<polygon fill="none" stroke="black" points="143.84,-362 143.84,-403 235.34,-403 235.34,-362 143.84,-362"/>
<text text-anchor="middle" x="156.72" y="-377.7" font-family="Times,serif" font-size="14.00">A</text>
<polyline fill="none" stroke="black" points="169.59,-362 169.59,-403"/>
<text text-anchor="middle" x="189.59" y="-385.7" font-family="Times,serif" font-size="14.00">$1</text>
<text text-anchor="middle" x="189.59" y="-369.2" font-family="Times,serif" font-size="14.00">$not</text>
<polyline fill="none" stroke="black" points="209.59,-362 209.59,-403"/>
<text text-anchor="middle" x="222.47" y="-377.7" font-family="Times,serif" font-size="14.00">Y</text>
</g>
<!-- n18&#45;&gt;c41 -->
<g id="edge48" class="edge">
<title>n18:e&#45;&gt;c41:w</title>
<path fill="none" stroke="black" stroke-width="3" d="M107.84,-431.5C129.94,-431.5 121.88,-398.7 133.14,-386.91"/>
<polygon fill="black" stroke="black" stroke-width="3" points="131.55,-391.28 139.61,-384.39 129.02,-384.75 131.55,-391.28"/>
</g>
<!-- c46 -->
<g id="node51" class="node">
<title>c46</title>
<polygon fill="none" stroke="black" points="1513.09,-282 1513.09,-331 1606.09,-331 1606.09,-282 1513.09,-282"/>
<text text-anchor="middle" x="1525.97" y="-313.7" font-family="Times,serif" font-size="14.00">A</text>
<polyline fill="none" stroke="black" points="1513.09,-306.5 1538.84,-306.5"/>
<text text-anchor="middle" x="1525.97" y="-289.2" font-family="Times,serif" font-size="14.00">B</text>
<polyline fill="none" stroke="black" points="1538.84,-282 1538.84,-331"/>
<text text-anchor="middle" x="1559.59" y="-309.7" font-family="Times,serif" font-size="14.00">$8</text>
<text text-anchor="middle" x="1559.59" y="-293.2" font-family="Times,serif" font-size="14.00">$sub</text>
<polyline fill="none" stroke="black" points="1580.34,-282 1580.34,-331"/>
<text text-anchor="middle" x="1593.22" y="-301.7" font-family="Times,serif" font-size="14.00">Y</text>
</g>
<!-- n18&#45;&gt;c46 -->
<g id="edge49" class="edge">
<title>n18:e&#45;&gt;c46:w</title>
<path fill="none" stroke="black" stroke-width="3" d="M107.84,-431.5C135.95,-431.5 119.89,-468.78 143.84,-483.5 210.54,-524.48 240.06,-507.5 318.34,-507.5 318.34,-507.5 318.34,-507.5 1310.84,-507.5 1385.5,-507.5 1423.14,-535.1 1477.09,-483.5 1535.95,-427.21 1437.95,-306.78 1501.92,-295.16"/>
<polygon fill="black" stroke="black" stroke-width="3" points="1498.88,-298.91 1508.57,-294.62 1498.32,-291.94 1498.88,-298.91"/>
</g>
<!-- c50 -->
<g id="node58" class="node">
<title>c50</title>
<polygon fill="none" stroke="black" points="403.34,-321 403.34,-370 495.59,-370 495.59,-321 403.34,-321"/>
<text text-anchor="middle" x="416.22" y="-352.7" font-family="Times,serif" font-size="14.00">A</text>
<polyline fill="none" stroke="black" points="403.34,-345.5 429.09,-345.5"/>
<text text-anchor="middle" x="416.22" y="-328.2" font-family="Times,serif" font-size="14.00">B</text>
<polyline fill="none" stroke="black" points="429.09,-321 429.09,-370"/>
<text text-anchor="middle" x="449.47" y="-348.7" font-family="Times,serif" font-size="14.00">$3</text>
<text text-anchor="middle" x="449.47" y="-332.2" font-family="Times,serif" font-size="14.00">$xor</text>
<polyline fill="none" stroke="black" points="469.84,-321 469.84,-370"/>
<text text-anchor="middle" x="482.72" y="-340.7" font-family="Times,serif" font-size="14.00">Y</text>
</g>
<!-- n18&#45;&gt;c50 -->
<g id="edge50" class="edge">
<title>n18:e&#45;&gt;c50:w</title>
<path fill="none" stroke="black" stroke-width="3" d="M107.84,-431.5C146.43,-431.5 112.18,-374.56 143.84,-352.5 235.57,-288.57 284.39,-330.26 392.04,-333.1"/>
<polygon fill="black" stroke="black" stroke-width="3" points="388.76,-336.56 398.8,-333.19 388.85,-329.56 388.76,-336.56"/>
</g>
<!-- n19 -->
<g id="node2" class="node">
<title>n19</title>
<polygon fill="none" stroke="black" points="3598.24,-278.04 3598.24,-292.96 3563.73,-303.5 3514.93,-303.5 3480.42,-292.96 3480.42,-278.04 3514.93,-267.5 3563.73,-267.5 3598.24,-278.04"/>
<text text-anchor="middle" x="3539.33" y="-280.45" font-family="Times,serif" font-size="14.00">output_data</text>
</g>
<!-- x18 -->
<g id="node41" class="node">
<title>x18</title>
<path fill="none" stroke="black" d="M3882.84,-231C3882.84,-231 3921.34,-231 3921.34,-231 3927.34,-231 3933.34,-237 3933.34,-243 3933.34,-243 3933.34,-268 3933.34,-268 3933.34,-274 3927.34,-280 3921.34,-280 3921.34,-280 3882.84,-280 3882.84,-280 3876.84,-280 3870.84,-274 3870.84,-268 3870.84,-268 3870.84,-243 3870.84,-243 3870.84,-237 3876.84,-231 3882.84,-231"/>
<text text-anchor="middle" x="3902.09" y="-262.7" font-family="Times,serif" font-size="14.00">1:1 &#45; 1:1</text>
<polyline fill="none" stroke="black" points="3870.84,-255.5 3933.34,-255.5"/>
<text text-anchor="middle" x="3902.09" y="-238.2" font-family="Times,serif" font-size="14.00">0:0 &#45; 0:0</text>
</g>
<!-- n19&#45;&gt;x18 -->
<g id="edge54" class="edge">
<title>n19:e&#45;&gt;x18:w</title>
<path fill="none" stroke="black" d="M3598.24,-285.5C3715.74,-285.5 3747.41,-268.88 3859.38,-267.8"/>
<polygon fill="black" stroke="black" points="3859.34,-271.3 3869.32,-267.76 3859.31,-264.3 3859.34,-271.3"/>
</g>
<!-- x29 -->
<g id="node59" class="node">
<title>x29</title>
<path fill="none" stroke="black" d="M3646.24,-212C3646.24,-212 3684.74,-212 3684.74,-212 3690.74,-212 3696.74,-218 3696.74,-224 3696.74,-224 3696.74,-249 3696.74,-249 3696.74,-255 3690.74,-261 3684.74,-261 3684.74,-261 3646.24,-261 3646.24,-261 3640.24,-261 3634.24,-255 3634.24,-249 3634.24,-249 3634.24,-224 3634.24,-224 3634.24,-218 3640.24,-212 3646.24,-212"/>
<text text-anchor="middle" x="3665.49" y="-243.7" font-family="Times,serif" font-size="14.00">1 &#45;&gt; 8:1</text>
<polyline fill="none" stroke="black" points="3634.24,-236.5 3696.74,-236.5"/>
<text text-anchor="middle" x="3665.49" y="-219.2" font-family="Times,serif" font-size="14.00">1:1 &#45; 0:0</text>
</g>
<!-- n19&#45;&gt;x29 -->
<g id="edge55" class="edge">
<title>n19:e&#45;&gt;x29:w</title>
<path fill="none" stroke="black" d="M3598.24,-285.5C3625.13,-285.5 3609.43,-241.08 3623.67,-227.9"/>
<polygon fill="black" stroke="black" points="3624.5,-231.32 3632.81,-224.74 3622.21,-224.7 3624.5,-231.32"/>
</g>
<!-- n20 -->
<g id="node3" class="node">
<title>n20</title>
<polygon fill="none" stroke="black" points="586.84,-350.5 531.59,-332.5 586.84,-314.5 642.09,-332.5 586.84,-350.5"/>
<text text-anchor="middle" x="586.84" y="-327.45" font-family="Times,serif" font-size="14.00">temp_0</text>
</g>
<!-- c31 -->
<g id="node15" class="node">
<title>c31</title>
<polygon fill="none" stroke="black" points="678.09,-252 678.09,-293 769.59,-293 769.59,-252 678.09,-252"/>
<text text-anchor="middle" x="690.97" y="-267.7" font-family="Times,serif" font-size="14.00">A</text>
<polyline fill="none" stroke="black" points="703.84,-252 703.84,-293"/>
<text text-anchor="middle" x="723.84" y="-275.7" font-family="Times,serif" font-size="14.00">$58</text>
<text text-anchor="middle" x="723.84" y="-259.2" font-family="Times,serif" font-size="14.00">$not</text>
<polyline fill="none" stroke="black" points="743.84,-252 743.84,-293"/>
<text text-anchor="middle" x="756.72" y="-267.7" font-family="Times,serif" font-size="14.00">Y</text>
</g>
<!-- n20&#45;&gt;c31 -->
<g id="edge58" class="edge">
<title>n20:e&#45;&gt;c31:w</title>
<path fill="none" stroke="black" stroke-width="3" d="M642.09,-332.5C668.25,-332.5 653.82,-289.96 667.3,-276.67"/>
<polygon fill="black" stroke="black" stroke-width="3" points="665.62,-281 673.82,-274.3 663.23,-274.43 665.62,-281"/>
</g>
<!-- c32 -->
<g id="node16" class="node">
<title>c32</title>
<polygon fill="none" stroke="black" points="1929.69,-364 1929.69,-413 2017.44,-413 2017.44,-364 1929.69,-364"/>
<text text-anchor="middle" x="1942.57" y="-395.7" font-family="Times,serif" font-size="14.00">A</text>
<polyline fill="none" stroke="black" points="1929.69,-388.5 1955.44,-388.5"/>
<text text-anchor="middle" x="1942.57" y="-371.2" font-family="Times,serif" font-size="14.00">B</text>
<polyline fill="none" stroke="black" points="1955.44,-364 1955.44,-413"/>
<text text-anchor="middle" x="1973.57" y="-391.7" font-family="Times,serif" font-size="14.00">$62</text>
<text text-anchor="middle" x="1973.57" y="-375.2" font-family="Times,serif" font-size="14.00">$or</text>
<polyline fill="none" stroke="black" points="1991.69,-364 1991.69,-413"/>
<text text-anchor="middle" x="2004.57" y="-383.7" font-family="Times,serif" font-size="14.00">Y</text>
</g>
<!-- n20&#45;&gt;c32 -->
<g id="edge59" class="edge">
<title>n20:e&#45;&gt;c32:w</title>
<path fill="none" stroke="black" stroke-width="3" d="M642.09,-332.5C659.26,-332.5 661.58,-341.82 678.09,-346.5 746.67,-365.95 764.56,-375.5 835.84,-375.5 835.84,-375.5 835.84,-375.5 938.59,-375.5 1318.89,-375.5 1413.46,-399.61 1793.69,-406.5 1838.13,-407.31 1851.93,-421.72 1893.69,-406.5 1908.88,-400.97 1909.61,-385.9 1918.83,-379.35"/>
<polygon fill="black" stroke="black" stroke-width="3" points="1916.67,-383.61 1925.33,-377.5 1914.75,-376.88 1916.67,-383.61"/>
</g>
<!-- x7 -->
<g id="node22" class="node">
<title>x7</title>
<path fill="none" stroke="black" d="M817.59,-91.5C817.59,-91.5 856.09,-91.5 856.09,-91.5 862.09,-91.5 868.09,-97.5 868.09,-103.5 868.09,-103.5 868.09,-115.5 868.09,-115.5 868.09,-121.5 862.09,-127.5 856.09,-127.5 856.09,-127.5 817.59,-127.5 817.59,-127.5 811.59,-127.5 805.59,-121.5 805.59,-115.5 805.59,-115.5 805.59,-103.5 805.59,-103.5 805.59,-97.5 811.59,-91.5 817.59,-91.5"/>
<text text-anchor="middle" x="836.84" y="-104.7" font-family="Times,serif" font-size="14.00">2:1 &#45; 1:0</text>
</g>
<!-- n20&#45;&gt;x7 -->
<g id="edge63" class="edge">
<title>n20:e&#45;&gt;x7:w</title>
<path fill="none" stroke="black" stroke-width="3" d="M642.09,-332.5C685.17,-332.5 654.74,-278.7 678.09,-242.5 720.27,-177.11 723.55,-116.01 794.17,-110.2"/>
<polygon fill="black" stroke="black" stroke-width="3" points="791.2,-113.82 801.05,-109.93 790.92,-106.83 791.2,-113.82"/>
</g>
<!-- c38 -->
<g id="node33" class="node">
<title>c38</title>
<polygon fill="none" stroke="black" points="1007.09,-267 1007.09,-316 1088.84,-316 1088.84,-267 1007.09,-267"/>
<text text-anchor="middle" x="1019.97" y="-298.7" font-family="Times,serif" font-size="14.00">A</text>
<polyline fill="none" stroke="black" points="1007.09,-291.5 1032.84,-291.5"/>
<text text-anchor="middle" x="1019.97" y="-274.2" font-family="Times,serif" font-size="14.00">B</text>
<polyline fill="none" stroke="black" points="1032.84,-267 1032.84,-316"/>
<text text-anchor="middle" x="1047.97" y="-294.7" font-family="Times,serif" font-size="14.00">$5</text>
<text text-anchor="middle" x="1047.97" y="-278.2" font-family="Times,serif" font-size="14.00">$lt</text>
<polyline fill="none" stroke="black" points="1063.09,-267 1063.09,-316"/>
<text text-anchor="middle" x="1075.97" y="-286.7" font-family="Times,serif" font-size="14.00">Y</text>
</g>
<!-- n20&#45;&gt;c38 -->
<g id="edge60" class="edge">
<title>n20:e&#45;&gt;c38:w</title>
<path fill="none" stroke="black" stroke-width="3" d="M642.09,-332.5C788.56,-332.5 826.52,-336.99 971.09,-313.5 982.85,-311.59 987.74,-307.39 995.72,-305.18"/>
<polygon fill="black" stroke="black" stroke-width="3" points="993.1,-309.03 1002.59,-304.31 992.23,-302.09 993.1,-309.03"/>
</g>
<!-- x17 -->
<g id="node40" class="node">
<title>x17</title>
<path fill="none" stroke="black" d="M1028.72,-404.5C1028.72,-404.5 1067.22,-404.5 1067.22,-404.5 1073.22,-404.5 1079.22,-410.5 1079.22,-416.5 1079.22,-416.5 1079.22,-428.5 1079.22,-428.5 1079.22,-434.5 1073.22,-440.5 1067.22,-440.5 1067.22,-440.5 1028.72,-440.5 1028.72,-440.5 1022.72,-440.5 1016.72,-434.5 1016.72,-428.5 1016.72,-428.5 1016.72,-416.5 1016.72,-416.5 1016.72,-410.5 1022.72,-404.5 1028.72,-404.5"/>
<text text-anchor="middle" x="1047.97" y="-417.7" font-family="Times,serif" font-size="14.00">1:0 &#45; 1:0</text>
</g>
<!-- n20&#45;&gt;x17 -->
<g id="edge62" class="edge">
<title>n20:e&#45;&gt;x17:w</title>
<path fill="none" stroke="black" stroke-width="3" d="M642.09,-332.5C672.05,-332.5 652.59,-373.77 678.09,-389.5 803.16,-466.66 861.92,-425 1004.41,-422.84"/>
<polygon fill="black" stroke="black" stroke-width="3" points="1001.2,-426.36 1011.18,-422.78 1001.15,-419.36 1001.2,-426.36"/>
</g>
<!-- c47 -->
<g id="node54" class="node">
<title>c47</title>
<polygon fill="none" stroke="black" points="3181.34,-131 3181.34,-180 3274.34,-180 3274.34,-131 3181.34,-131"/>
<text text-anchor="middle" x="3194.22" y="-162.7" font-family="Times,serif" font-size="14.00">A</text>
<polyline fill="none" stroke="black" points="3181.34,-155.5 3207.09,-155.5"/>
<text text-anchor="middle" x="3194.22" y="-138.2" font-family="Times,serif" font-size="14.00">B</text>
<polyline fill="none" stroke="black" points="3207.09,-131 3207.09,-180"/>
<text text-anchor="middle" x="3227.84" y="-158.7" font-family="Times,serif" font-size="14.00">$15</text>
<text text-anchor="middle" x="3227.84" y="-142.2" font-family="Times,serif" font-size="14.00">$sub</text>
<polyline fill="none" stroke="black" points="3248.59,-131 3248.59,-180"/>
<text text-anchor="middle" x="3261.47" y="-150.7" font-family="Times,serif" font-size="14.00">Y</text>
</g>
<!-- n20&#45;&gt;c47 -->
<g id="edge61" class="edge">
<title>n20:e&#45;&gt;c47:w</title>
<path fill="none" stroke="black" stroke-width="3" d="M642.09,-332.5C691.85,-332.5 649.42,-152.17 678.09,-111.5 724.23,-46.06 755.78,-24.5 835.84,-24.5 835.84,-24.5 835.84,-24.5 2690.85,-24.5 2849.32,-24.5 2870.75,-112.22 3024.76,-149.5 3088.6,-164.95 3108.49,-167.49 3168.99,-167.73"/>
<polygon fill="black" stroke="black" stroke-width="3" points="3165.8,-171.22 3175.8,-167.74 3165.81,-164.22 3165.8,-171.22"/>
</g>
<!-- n21 -->
<g id="node4" class="node">
<title>n21</title>
<polygon fill="none" stroke="black" points="1309.84,-221.5 1254.59,-203.5 1309.84,-185.5 1365.09,-203.5 1309.84,-221.5"/>
<text text-anchor="middle" x="1309.84" y="-198.45" font-family="Times,serif" font-size="14.00">temp_2</text>
</g>
<!-- x3 -->
<g id="node14" class="node">
<title>x3</title>
<path fill="none" stroke="black" d="M1654.09,-91.5C1654.09,-91.5 1706.09,-91.5 1706.09,-91.5 1712.09,-91.5 1718.09,-97.5 1718.09,-103.5 1718.09,-103.5 1718.09,-115.5 1718.09,-115.5 1718.09,-121.5 1712.09,-127.5 1706.09,-127.5 1706.09,-127.5 1654.09,-127.5 1654.09,-127.5 1648.09,-127.5 1642.09,-121.5 1642.09,-115.5 1642.09,-115.5 1642.09,-103.5 1642.09,-103.5 1642.09,-97.5 1648.09,-91.5 1654.09,-91.5"/>
<text text-anchor="middle" x="1680.09" y="-104.7" font-family="Times,serif" font-size="14.00">19:18 &#45; 1:0</text>
</g>
<!-- n21&#45;&gt;x3 -->
<g id="edge66" class="edge">
<title>n21:e&#45;&gt;x3:w</title>
<path fill="none" stroke="black" stroke-width="3" d="M1365.09,-203.5C1388.04,-203.5 1381.13,-177.8 1401.09,-166.5 1493.48,-114.19 1529.5,-109.99 1630.76,-109.76"/>
<polygon fill="black" stroke="black" stroke-width="3" points="1627.56,-113.26 1637.55,-109.75 1627.55,-106.26 1627.56,-113.26"/>
</g>
<!-- x5 -->
<g id="node19" class="node">
<title>x5</title>
<path fill="none" stroke="black" d="M1413.09,-175.5C1413.09,-175.5 1465.09,-175.5 1465.09,-175.5 1471.09,-175.5 1477.09,-181.5 1477.09,-187.5 1477.09,-187.5 1477.09,-199.5 1477.09,-199.5 1477.09,-205.5 1471.09,-211.5 1465.09,-211.5 1465.09,-211.5 1413.09,-211.5 1413.09,-211.5 1407.09,-211.5 1401.09,-205.5 1401.09,-199.5 1401.09,-199.5 1401.09,-187.5 1401.09,-187.5 1401.09,-181.5 1407.09,-175.5 1413.09,-175.5"/>
<text text-anchor="middle" x="1439.09" y="-188.7" font-family="Times,serif" font-size="14.00">25:20 &#45; 5:0</text>
</g>
<!-- n21&#45;&gt;x5 -->
<g id="edge67" class="edge">
<title>n21:e&#45;&gt;x5:w</title>
<path fill="none" stroke="black" stroke-width="3" d="M1365.09,-203.5C1377.01,-203.5 1381.83,-198.46 1389.75,-195.63"/>
<polygon fill="black" stroke="black" stroke-width="3" points="1387.32,-199.58 1396.61,-194.49 1386.18,-192.68 1387.32,-199.58"/>
</g>
<!-- x25 -->
<g id="node52" class="node">
<title>x25</title>
<path fill="none" stroke="black" d="M1419.84,-261.5C1419.84,-261.5 1458.34,-261.5 1458.34,-261.5 1464.34,-261.5 1470.34,-267.5 1470.34,-273.5 1470.34,-273.5 1470.34,-285.5 1470.34,-285.5 1470.34,-291.5 1464.34,-297.5 1458.34,-297.5 1458.34,-297.5 1419.84,-297.5 1419.84,-297.5 1413.84,-297.5 1407.84,-291.5 1407.84,-285.5 1407.84,-285.5 1407.84,-273.5 1407.84,-273.5 1407.84,-267.5 1413.84,-261.5 1419.84,-261.5"/>
<text text-anchor="middle" x="1439.09" y="-274.7" font-family="Times,serif" font-size="14.00">9:0 &#45; 9:0</text>
</g>
<!-- n21&#45;&gt;x25 -->
<g id="edge65" class="edge">
<title>n21:e&#45;&gt;x25:w</title>
<path fill="none" stroke="black" stroke-width="3" d="M1365.09,-203.5C1399.05,-203.5 1375.72,-262.4 1395.81,-276.67"/>
<polygon fill="black" stroke="black" stroke-width="3" points="1391.9,-279.21 1402.47,-278.53 1393.78,-272.47 1391.9,-279.21"/>
</g>
<!-- n22 -->
<g id="node5" class="node">
<title>n22</title>
<polygon fill="none" stroke="black" points="2933.51,-192.5 2878.26,-174.5 2933.51,-156.5 2988.76,-174.5 2933.51,-192.5"/>
<text text-anchor="middle" x="2933.51" y="-169.45" font-family="Times,serif" font-size="14.00">temp_3</text>
</g>
<!-- x13 -->
<g id="node31" class="node">
<title>x13</title>
<path fill="none" stroke="black" d="M3036.76,-199.5C3036.76,-199.5 3075.26,-199.5 3075.26,-199.5 3081.26,-199.5 3087.26,-205.5 3087.26,-211.5 3087.26,-211.5 3087.26,-223.5 3087.26,-223.5 3087.26,-229.5 3081.26,-235.5 3075.26,-235.5 3075.26,-235.5 3036.76,-235.5 3036.76,-235.5 3030.76,-235.5 3024.76,-229.5 3024.76,-223.5 3024.76,-223.5 3024.76,-211.5 3024.76,-211.5 3024.76,-205.5 3030.76,-199.5 3036.76,-199.5"/>
<text text-anchor="middle" x="3056.01" y="-212.7" font-family="Times,serif" font-size="14.00">1:0 &#45; 1:0</text>
</g>
<!-- n22&#45;&gt;x13 -->
<g id="edge70" class="edge">
<title>n22:e&#45;&gt;x13:w</title>
<path fill="none" stroke="black" stroke-width="3" d="M2988.76,-174.5C3009.09,-174.5 3003.64,-203.05 3014.3,-213.76"/>
<polygon fill="black" stroke="black" stroke-width="3" points="3009.93,-215.84 3020.52,-216.13 3012.43,-209.3 3009.93,-215.84"/>
</g>
<!-- x16 -->
<g id="node36" class="node">
<title>x16</title>
<path fill="none" stroke="black" d="M3520.08,-374C3520.08,-374 3558.58,-374 3558.58,-374 3564.58,-374 3570.58,-380 3570.58,-386 3570.58,-386 3570.58,-411 3570.58,-411 3570.58,-417 3564.58,-423 3558.58,-423 3558.58,-423 3520.08,-423 3520.08,-423 3514.08,-423 3508.08,-417 3508.08,-411 3508.08,-411 3508.08,-386 3508.08,-386 3508.08,-380 3514.08,-374 3520.08,-374"/>
<text text-anchor="middle" x="3539.33" y="-405.7" font-family="Times,serif" font-size="14.00">0 &#45;&gt; 9:2</text>
<polyline fill="none" stroke="black" points="3508.08,-398.5 3570.58,-398.5"/>
<text text-anchor="middle" x="3539.33" y="-381.2" font-family="Times,serif" font-size="14.00">1:0 &#45; 1:0</text>
</g>
<!-- n22&#45;&gt;x16 -->
<g id="edge71" class="edge">
<title>n22:e&#45;&gt;x16:w</title>
<path fill="none" stroke="black" stroke-width="3" d="M2988.76,-174.5C3024.15,-174.5 3001.4,-218.93 3024.76,-245.5 3059.73,-285.26 3074.37,-292.2 3123.26,-312.5 3280.24,-377.68 3331.19,-385.92 3496.05,-386.24"/>
<polygon fill="black" stroke="black" stroke-width="3" points="3492.54,-389.74 3502.54,-386.25 3492.54,-382.74 3492.54,-389.74"/>
</g>
<!-- x27 -->
<g id="node55" class="node">
<title>x27</title>
<path fill="none" stroke="black" d="M3036.76,-91C3036.76,-91 3075.26,-91 3075.26,-91 3081.26,-91 3087.26,-97 3087.26,-103 3087.26,-103 3087.26,-128 3087.26,-128 3087.26,-134 3081.26,-140 3075.26,-140 3075.26,-140 3036.76,-140 3036.76,-140 3030.76,-140 3024.76,-134 3024.76,-128 3024.76,-128 3024.76,-103 3024.76,-103 3024.76,-97 3030.76,-91 3036.76,-91"/>
<text text-anchor="middle" x="3056.01" y="-122.7" font-family="Times,serif" font-size="14.00">0 &#45;&gt; 5:2</text>
<polyline fill="none" stroke="black" points="3024.76,-115.5 3087.26,-115.5"/>
<text text-anchor="middle" x="3056.01" y="-98.2" font-family="Times,serif" font-size="14.00">1:0 &#45; 1:0</text>
</g>
<!-- n22&#45;&gt;x27 -->
<g id="edge72" class="edge">
<title>n22:e&#45;&gt;x27:w</title>
<path fill="none" stroke="black" stroke-width="3" d="M2988.76,-174.5C3019.53,-174.5 2997.33,-120.92 3014.03,-106.69"/>
<polygon fill="black" stroke="black" stroke-width="3" points="3011.98,-111.02 3020.44,-104.63 3009.85,-104.35 3011.98,-111.02"/>
</g>
<!-- n23 -->
<g id="node6" class="node">
<title>n23</title>
<polygon fill="none" stroke="black" points="4148.34,-174.5 4093.09,-156.5 4148.34,-138.5 4203.59,-156.5 4148.34,-174.5"/>
<text text-anchor="middle" x="4148.34" y="-151.45" font-family="Times,serif" font-size="14.00">temp_4</text>
</g>
<!-- c39 -->
<g id="node35" class="node">
<title>c39</title>
<polygon fill="none" stroke="black" points="4239.59,-250 4239.59,-299 4327.34,-299 4327.34,-250 4239.59,-250"/>
<text text-anchor="middle" x="4252.46" y="-281.7" font-family="Times,serif" font-size="14.00">A</text>
<polyline fill="none" stroke="black" points="4239.59,-274.5 4265.34,-274.5"/>
<text text-anchor="middle" x="4252.46" y="-257.2" font-family="Times,serif" font-size="14.00">B</text>
<polyline fill="none" stroke="black" points="4265.34,-250 4265.34,-299"/>
<text text-anchor="middle" x="4283.46" y="-277.7" font-family="Times,serif" font-size="14.00">$29</text>
<text text-anchor="middle" x="4283.46" y="-261.2" font-family="Times,serif" font-size="14.00">$lt</text>
<polyline fill="none" stroke="black" points="4301.59,-250 4301.59,-299"/>
<text text-anchor="middle" x="4314.46" y="-269.7" font-family="Times,serif" font-size="14.00">Y</text>
</g>
<!-- n23&#45;&gt;c39 -->
<g id="edge74" class="edge">
<title>n23:e&#45;&gt;c39:w</title>
<path fill="none" stroke="black" stroke-width="3" d="M4203.59,-156.5C4259.19,-156.5 4191.22,-268.13 4228.48,-284.7"/>
<polygon fill="black" stroke="black" stroke-width="3" points="4224.65,-287.56 4235.12,-285.93 4225.92,-280.67 4224.65,-287.56"/>
</g>
<!-- x21 -->
<g id="node45" class="node">
<title>x21</title>
<path fill="none" stroke="black" d="M4264.21,-139.5C4264.21,-139.5 4302.71,-139.5 4302.71,-139.5 4308.71,-139.5 4314.71,-145.5 4314.71,-151.5 4314.71,-151.5 4314.71,-163.5 4314.71,-163.5 4314.71,-169.5 4308.71,-175.5 4302.71,-175.5 4302.71,-175.5 4264.21,-175.5 4264.21,-175.5 4258.21,-175.5 4252.21,-169.5 4252.21,-163.5 4252.21,-163.5 4252.21,-151.5 4252.21,-151.5 4252.21,-145.5 4258.21,-139.5 4264.21,-139.5"/>
<text text-anchor="middle" x="4283.46" y="-152.7" font-family="Times,serif" font-size="14.00">2:1 &#45; 1:0</text>
</g>
<!-- n23&#45;&gt;x21 -->
<g id="edge76" class="edge">
<title>n23:e&#45;&gt;x21:w</title>
<path fill="none" stroke="black" stroke-width="3" d="M4203.59,-156.5C4220.46,-156.5 4227.24,-157.29 4240.01,-157.62"/>
<polygon fill="black" stroke="black" stroke-width="3" points="4236.63,-161.08 4246.67,-157.7 4236.71,-154.08 4236.63,-161.08"/>
</g>
<!-- c45 -->
<g id="node50" class="node">
<title>c45</title>
<polygon fill="none" stroke="black" points="4363.34,-91 4363.34,-132 4504.34,-132 4504.34,-91 4363.34,-91"/>
<text text-anchor="middle" x="4376.21" y="-106.7" font-family="Times,serif" font-size="14.00">A</text>
<polyline fill="none" stroke="black" points="4389.09,-91 4389.09,-132"/>
<text text-anchor="middle" x="4433.84" y="-114.7" font-family="Times,serif" font-size="14.00">$27</text>
<text text-anchor="middle" x="4433.84" y="-98.2" font-family="Times,serif" font-size="14.00">$reduce_bool</text>
<polyline fill="none" stroke="black" points="4478.59,-91 4478.59,-132"/>
<text text-anchor="middle" x="4491.46" y="-106.7" font-family="Times,serif" font-size="14.00">Y</text>
</g>
<!-- n23&#45;&gt;c45 -->
<g id="edge75" class="edge">
<title>n23:e&#45;&gt;c45:w</title>
<path fill="none" stroke="black" stroke-width="3" d="M4203.59,-156.5C4223.32,-156.5 4221.32,-137.97 4239.59,-130.5 4287.36,-110.98 4305.12,-111.54 4351.86,-111.72"/>
<polygon fill="black" stroke="black" stroke-width="3" points="4348.79,-115.22 4358.8,-111.74 4348.8,-108.22 4348.79,-115.22"/>
</g>
<!-- n24 -->
<g id="node7" class="node">
<title>n24</title>
<polygon fill="none" stroke="black" points="5057.34,-182.5 5002.09,-164.5 5057.34,-146.5 5112.59,-164.5 5057.34,-182.5"/>
<text text-anchor="middle" x="5057.34" y="-159.45" font-family="Times,serif" font-size="14.00">temp_6</text>
</g>
<!-- x23 -->
<g id="node48" class="node">
<title>x23</title>
<path fill="none" stroke="black" d="M5160.59,-166.5C5160.59,-166.5 5199.09,-166.5 5199.09,-166.5 5205.09,-166.5 5211.09,-172.5 5211.09,-178.5 5211.09,-178.5 5211.09,-190.5 5211.09,-190.5 5211.09,-196.5 5205.09,-202.5 5199.09,-202.5 5199.09,-202.5 5160.59,-202.5 5160.59,-202.5 5154.59,-202.5 5148.59,-196.5 5148.59,-190.5 5148.59,-190.5 5148.59,-178.5 5148.59,-178.5 5148.59,-172.5 5154.59,-166.5 5160.59,-166.5"/>
<text text-anchor="middle" x="5179.84" y="-179.7" font-family="Times,serif" font-size="14.00">1:1 &#45; 0:0</text>
</g>
<!-- n24&#45;&gt;x23 -->
<g id="edge78" class="edge">
<title>n24:e&#45;&gt;x23:w</title>
<path fill="none" stroke="black" d="M5112.59,-164.5C5126.36,-164.5 5129.4,-175.89 5137.8,-181.59"/>
<polygon fill="black" stroke="black" points="5136.56,-184.87 5147.14,-184.32 5138.53,-178.15 5136.56,-184.87"/>
</g>
<!-- c28 -->
<g id="node8" class="node">
<title>c28</title>
<polygon fill="none" stroke="black" points="1124.84,-199 1124.84,-248 1218.59,-248 1218.59,-199 1124.84,-199"/>
<text text-anchor="middle" x="1137.72" y="-230.7" font-family="Times,serif" font-size="14.00">A</text>
<polyline fill="none" stroke="black" points="1124.84,-223.5 1150.59,-223.5"/>
<text text-anchor="middle" x="1137.72" y="-206.2" font-family="Times,serif" font-size="14.00">B</text>
<polyline fill="none" stroke="black" points="1150.59,-199 1150.59,-248"/>
<text text-anchor="middle" x="1171.72" y="-226.7" font-family="Times,serif" font-size="14.00">$7</text>
<text text-anchor="middle" x="1171.72" y="-210.2" font-family="Times,serif" font-size="14.00">$add</text>
<polyline fill="none" stroke="black" points="1192.84,-199 1192.84,-248"/>
<text text-anchor="middle" x="1205.72" y="-218.7" font-family="Times,serif" font-size="14.00">Y</text>
</g>
<!-- c28&#45;&gt;n21 -->
<g id="edge64" class="edge">
<title>c28:e&#45;&gt;n21:w</title>
<path fill="none" stroke="black" stroke-width="3" d="M1218.59,-223.75C1232.36,-223.75 1235.4,-212.36 1243.8,-206.66"/>
<polygon fill="black" stroke="black" stroke-width="3" points="1241.62,-210.95 1250.23,-204.78 1239.65,-204.23 1241.62,-210.95"/>
</g>
<!-- x0 -->
<g id="node9" class="node">
<title>x0</title>
<path fill="none" stroke="black" d="M916.09,-187C916.09,-187 959.09,-187 959.09,-187 965.09,-187 971.09,-193 971.09,-199 971.09,-199 971.09,-224 971.09,-224 971.09,-230 965.09,-236 959.09,-236 959.09,-236 916.09,-236 916.09,-236 910.09,-236 904.09,-230 904.09,-224 904.09,-224 904.09,-199 904.09,-199 904.09,-193 910.09,-187 916.09,-187"/>
<text text-anchor="middle" x="937.59" y="-218.7" font-family="Times,serif" font-size="14.00">1 &#45;&gt; 25:3</text>
<polyline fill="none" stroke="black" points="904.09,-211.5 971.09,-211.5"/>
<text text-anchor="middle" x="937.59" y="-194.2" font-family="Times,serif" font-size="14.00">2:0 &#45; 2:0</text>
</g>
<!-- x0&#45;&gt;c28 -->
<g id="edge1" class="edge">
<title>x0:e&#45;&gt;c28:w</title>
<path fill="none" stroke="black" stroke-width="3" d="M984.06,-211.5C1037.85,-211.47 1058.17,-211.28 1112.02,-211.25"/>
<polygon fill="none" stroke="black" stroke-width="3" points="985.8,-211.5 979.8,-215.5 973.8,-211.5 979.8,-207.5 985.8,-211.5"/>
<polygon fill="none" stroke="black" stroke-width="3" points="1110.14,-211.25 1116.14,-207.25 1122.14,-211.25 1116.14,-215.25 1110.14,-211.25"/>
</g>
<!-- x12 -->
<g id="node29" class="node">
<title>x12</title>
<path fill="none" stroke="black" d="M2322.69,-185.5C2322.69,-185.5 2361.19,-185.5 2361.19,-185.5 2367.19,-185.5 2373.19,-191.5 2373.19,-197.5 2373.19,-197.5 2373.19,-209.5 2373.19,-209.5 2373.19,-215.5 2367.19,-221.5 2361.19,-221.5 2361.19,-221.5 2322.69,-221.5 2322.69,-221.5 2316.69,-221.5 2310.69,-215.5 2310.69,-209.5 2310.69,-209.5 2310.69,-197.5 2310.69,-197.5 2310.69,-191.5 2316.69,-185.5 2322.69,-185.5"/>
<text text-anchor="middle" x="2341.94" y="-198.7" font-family="Times,serif" font-size="14.00">5:0 &#45; 5:0</text>
</g>
<!-- c29&#45;&gt;x12 -->
<g id="edge31" class="edge">
<title>c29:e&#45;&gt;x12:w</title>
<path fill="none" stroke="black" stroke-width="3" d="M2274.69,-210.75C2286.41,-210.75 2291.46,-207.13 2299.43,-205.1"/>
<polygon fill="black" stroke="black" stroke-width="3" points="2296.67,-208.95 2306.18,-204.29 2295.84,-202 2296.67,-208.95"/>
</g>
<!-- x1 -->
<g id="node11" class="node">
<title>x1</title>
<path fill="none" stroke="black" d="M2079.94,-376C2079.94,-376 2118.44,-376 2118.44,-376 2124.44,-376 2130.44,-382 2130.44,-388 2130.44,-388 2130.44,-413 2130.44,-413 2130.44,-419 2124.44,-425 2118.44,-425 2118.44,-425 2079.94,-425 2079.94,-425 2073.94,-425 2067.94,-419 2067.94,-413 2067.94,-413 2067.94,-388 2067.94,-388 2067.94,-382 2073.94,-376 2079.94,-376"/>
<text text-anchor="middle" x="2099.19" y="-407.7" font-family="Times,serif" font-size="14.00">6:0 &#45; 9:3</text>
<polyline fill="none" stroke="black" points="2067.94,-400.5 2130.44,-400.5"/>
<text text-anchor="middle" x="2099.19" y="-383.2" font-family="Times,serif" font-size="14.00">2:0 &#45; 2:0</text>
</g>
<!-- x1&#45;&gt;c29 -->
<g id="edge2" class="edge">
<title>x1:e&#45;&gt;c29:w</title>
<path fill="none" stroke="black" stroke-width="3" d="M2144.26,-398.62C2196.69,-380.85 2115.7,-242.4 2168.12,-224.63"/>
<polygon fill="none" stroke="black" stroke-width="3" points="2145.99,-398.37 2140.63,-403.2 2134.12,-400.11 2139.48,-395.28 2145.99,-398.37"/>
<polygon fill="none" stroke="black" stroke-width="3" points="2166.39,-224.88 2171.75,-220.05 2178.27,-223.14 2172.91,-227.97 2166.39,-224.88"/>
</g>
<!-- c30 -->
<g id="node12" class="node">
<title>c30</title>
<polygon fill="none" stroke="black" points="4737.34,-180 4737.34,-229 4831.09,-229 4831.09,-180 4737.34,-180"/>
<text text-anchor="middle" x="4750.21" y="-211.7" font-family="Times,serif" font-size="14.00">A</text>
<polyline fill="none" stroke="black" points="4737.34,-204.5 4763.09,-204.5"/>
<text text-anchor="middle" x="4750.21" y="-187.2" font-family="Times,serif" font-size="14.00">B</text>
<polyline fill="none" stroke="black" points="4763.09,-180 4763.09,-229"/>
<text text-anchor="middle" x="4784.21" y="-207.7" font-family="Times,serif" font-size="14.00">$26</text>
<text text-anchor="middle" x="4784.21" y="-191.2" font-family="Times,serif" font-size="14.00">$add</text>
<polyline fill="none" stroke="black" points="4805.34,-180 4805.34,-229"/>
<text text-anchor="middle" x="4818.21" y="-199.7" font-family="Times,serif" font-size="14.00">Y</text>
</g>
<!-- c49 -->
<g id="node57" class="node">
<title>c49</title>
<polygon fill="none" stroke="black" points="4867.09,-125.75 4867.09,-199.25 4966.09,-199.25 4966.09,-125.75 4867.09,-125.75"/>
<text text-anchor="middle" x="4879.96" y="-181.95" font-family="Times,serif" font-size="14.00">A</text>
<polyline fill="none" stroke="black" points="4867.09,-174.75 4892.84,-174.75"/>
<text text-anchor="middle" x="4879.96" y="-157.45" font-family="Times,serif" font-size="14.00">B</text>
<polyline fill="none" stroke="black" points="4867.09,-150.25 4892.84,-150.25"/>
<text text-anchor="middle" x="4879.96" y="-132.95" font-family="Times,serif" font-size="14.00">S</text>
<polyline fill="none" stroke="black" points="4892.84,-125.75 4892.84,-199.25"/>
<text text-anchor="middle" x="4916.59" y="-165.7" font-family="Times,serif" font-size="14.00">$28</text>
<text text-anchor="middle" x="4916.59" y="-149.2" font-family="Times,serif" font-size="14.00">$mux</text>
<polyline fill="none" stroke="black" points="4940.34,-125.75 4940.34,-199.25"/>
<text text-anchor="middle" x="4953.21" y="-157.45" font-family="Times,serif" font-size="14.00">Y</text>
</g>
<!-- c30&#45;&gt;c49 -->
<g id="edge56" class="edge">
<title>c30:e&#45;&gt;c49:w</title>
<path fill="none" stroke="black" stroke-width="3" d="M4831.09,-204.75C4844.33,-204.75 4847.92,-194.97 4856.18,-189.93"/>
<polygon fill="black" stroke="black" stroke-width="3" points="4853.95,-194.15 4862.7,-188.18 4852.14,-187.39 4853.95,-194.15"/>
</g>
<!-- x2 -->
<g id="node13" class="node">
<title>x2</title>
<path fill="none" stroke="black" d="M4650.84,-193.5C4650.84,-193.5 4689.34,-193.5 4689.34,-193.5 4695.34,-193.5 4701.34,-199.5 4701.34,-205.5 4701.34,-205.5 4701.34,-217.5 4701.34,-217.5 4701.34,-223.5 4695.34,-229.5 4689.34,-229.5 4689.34,-229.5 4650.84,-229.5 4650.84,-229.5 4644.84,-229.5 4638.84,-223.5 4638.84,-217.5 4638.84,-217.5 4638.84,-205.5 4638.84,-205.5 4638.84,-199.5 4644.84,-193.5 4650.84,-193.5"/>
<text text-anchor="middle" x="4670.09" y="-206.7" font-family="Times,serif" font-size="14.00">1:0 &#45; 1:0</text>
</g>
<!-- x2&#45;&gt;c30 -->
<g id="edge3" class="edge">
<title>x2:e&#45;&gt;c30:w</title>
<path fill="none" stroke="black" stroke-width="3" d="M4714.1,-212.82C4717.79,-213.63 4720.96,-214.65 4724.66,-215.44"/>
<polygon fill="none" stroke="black" stroke-width="3" points="4715.96,-213.02 4709.58,-216.38 4704.03,-211.78 4710.41,-208.42 4715.96,-213.02"/>
<polygon fill="none" stroke="black" stroke-width="3" points="4722.71,-215.24 4729.09,-211.88 4734.65,-216.47 4728.27,-219.84 4722.71,-215.24"/>
</g>
<!-- x3&#45;&gt;c30 -->
<g id="edge4" class="edge">
<title>x3:e&#45;&gt;c30:w</title>
<path fill="none" stroke="black" stroke-width="3" d="M1730.96,-109.33C1776.12,-108.08 1791.73,-100.5 1842.69,-100.5 1842.69,-100.5 1842.69,-100.5 2342.94,-100.5 2497.61,-100.5 2534.19,-62.5 2688.85,-62.5 2688.85,-62.5 2688.85,-62.5 4434.84,-62.5 4466.86,-62.5 4474.31,-70.36 4504.34,-81.5 4528.53,-90.48 4674.81,-173.07 4724.64,-189.44"/>
<polygon fill="none" stroke="black" stroke-width="3" points="1732.8,-109.3 1726.85,-113.38 1720.8,-109.46 1726.74,-105.38 1732.8,-109.3"/>
<polygon fill="none" stroke="black" stroke-width="3" points="4722.98,-189.07 4729.7,-186.46 4734.7,-191.67 4727.97,-194.27 4722.98,-189.07"/>
</g>
<!-- n3 -->
<g id="node71" class="node">
<title>n3</title>
<ellipse fill="black" stroke="black" cx="836.84" cy="-267.5" rx="1.8" ry="1.8"/>
</g>
<!-- c31&#45;&gt;n3 -->
<g id="edge79" class="edge">
<title>c31:e&#45;&gt;n3:w</title>
<path fill="none" stroke="black" stroke-width="3" d="M769.59,-272.75C793.88,-272.75 802.51,-268.94 822.15,-267.81"/>
<polygon fill="black" stroke="black" stroke-width="3" points="819.12,-271.4 829.02,-267.62 818.93,-264.4 819.12,-271.4"/>
</g>
<!-- c32&#45;&gt;x1 -->
<g id="edge82" class="edge">
<title>c32:e&#45;&gt;x1:w</title>
<path fill="none" stroke="black" stroke-width="3" d="M2017.44,-388.75C2035.15,-388.75 2042.16,-388.43 2055.69,-388.3"/>
<polygon fill="black" stroke="black" stroke-width="3" points="2052.42,-391.81 2062.4,-388.27 2052.39,-384.81 2052.42,-391.81"/>
</g>
<!-- x4 -->
<g id="node17" class="node">
<title>x4</title>
<path fill="none" stroke="black" d="M1824.44,-360.5C1824.44,-360.5 1862.94,-360.5 1862.94,-360.5 1868.94,-360.5 1874.94,-366.5 1874.94,-372.5 1874.94,-372.5 1874.94,-384.5 1874.94,-384.5 1874.94,-390.5 1868.94,-396.5 1862.94,-396.5 1862.94,-396.5 1824.44,-396.5 1824.44,-396.5 1818.44,-396.5 1812.44,-390.5 1812.44,-384.5 1812.44,-384.5 1812.44,-372.5 1812.44,-372.5 1812.44,-366.5 1818.44,-360.5 1824.44,-360.5"/>
<text text-anchor="middle" x="1843.69" y="-373.7" font-family="Times,serif" font-size="14.00">2:0 &#45; 2:0</text>
</g>
<!-- x4&#45;&gt;c32 -->
<g id="edge5" class="edge">
<title>x4:e&#45;&gt;c32:w</title>
<path fill="none" stroke="black" stroke-width="3" d="M1888.72,-380.71C1899.92,-384.98 1905.73,-394.29 1916.94,-398.54"/>
<polygon fill="none" stroke="black" stroke-width="3" points="1890.43,-381.01 1883.84,-383.93 1878.61,-378.96 1885.2,-376.05 1890.43,-381.01"/>
<polygon fill="none" stroke="black" stroke-width="3" points="1915.2,-398.24 1921.8,-395.33 1927.03,-400.29 1920.43,-403.21 1915.2,-398.24"/>
</g>
<!-- c33 -->
<g id="node18" class="node">
<title>c33</title>
<polygon fill="none" stroke="black" points="2053.44,-129 2053.44,-170 2144.94,-170 2144.94,-129 2053.44,-129"/>
<text text-anchor="middle" x="2066.32" y="-144.7" font-family="Times,serif" font-size="14.00">A</text>
<polyline fill="none" stroke="black" points="2079.19,-129 2079.19,-170"/>
<text text-anchor="middle" x="2099.19" y="-152.7" font-family="Times,serif" font-size="14.00">$65</text>
<text text-anchor="middle" x="2099.19" y="-136.2" font-family="Times,serif" font-size="14.00">$not</text>
<polyline fill="none" stroke="black" points="2119.19,-129 2119.19,-170"/>
<text text-anchor="middle" x="2132.07" y="-144.7" font-family="Times,serif" font-size="14.00">Y</text>
</g>
<!-- c36 -->
<g id="node28" class="node">
<title>c36</title>
<polygon fill="none" stroke="black" points="2409.19,-162 2409.19,-211 2501.44,-211 2501.44,-162 2409.19,-162"/>
<text text-anchor="middle" x="2422.07" y="-193.7" font-family="Times,serif" font-size="14.00">A</text>
<polyline fill="none" stroke="black" points="2409.19,-186.5 2434.94,-186.5"/>
<text text-anchor="middle" x="2422.07" y="-169.2" font-family="Times,serif" font-size="14.00">B</text>
<polyline fill="none" stroke="black" points="2434.94,-162 2434.94,-211"/>
<text text-anchor="middle" x="2455.32" y="-189.7" font-family="Times,serif" font-size="14.00">$87</text>
<text text-anchor="middle" x="2455.32" y="-173.2" font-family="Times,serif" font-size="14.00">$xor</text>
<polyline fill="none" stroke="black" points="2475.69,-162 2475.69,-211"/>
<text text-anchor="middle" x="2488.57" y="-181.7" font-family="Times,serif" font-size="14.00">Y</text>
</g>
<!-- c33&#45;&gt;c36 -->
<g id="edge86" class="edge">
<title>c33:e&#45;&gt;c36:w</title>
<path fill="none" stroke="black" stroke-width="3" d="M2144.94,-149.75C2258.97,-149.75 2289.26,-172.65 2397.73,-174.17"/>
<polygon fill="black" stroke="black" stroke-width="3" points="2394.63,-177.65 2404.65,-174.22 2394.68,-170.65 2394.63,-177.65"/>
</g>
<!-- x5&#45;&gt;c33 -->
<g id="edge6" class="edge">
<title>x5:e&#45;&gt;c33:w</title>
<path fill="none" stroke="black" stroke-width="3" d="M1490.1,-193.46C1731.98,-192.04 1798.67,-151.18 2040.66,-149.79"/>
<polygon fill="none" stroke="black" stroke-width="3" points="1491.8,-193.46 1485.81,-197.47 1479.8,-193.49 1485.79,-189.47 1491.8,-193.46"/>
<polygon fill="none" stroke="black" stroke-width="3" points="2038.74,-149.79 2044.73,-145.78 2050.74,-149.76 2044.75,-153.77 2038.74,-149.79"/>
</g>
<!-- c34 -->
<g id="node20" class="node">
<title>c34</title>
<polygon fill="none" stroke="black" points="2642.98,-150 2642.98,-199 2736.73,-199 2736.73,-150 2642.98,-150"/>
<text text-anchor="middle" x="2655.85" y="-181.7" font-family="Times,serif" font-size="14.00">A</text>
<polyline fill="none" stroke="black" points="2642.98,-174.5 2668.73,-174.5"/>
<text text-anchor="middle" x="2655.85" y="-157.2" font-family="Times,serif" font-size="14.00">B</text>
<polyline fill="none" stroke="black" points="2668.73,-150 2668.73,-199"/>
<text text-anchor="middle" x="2689.85" y="-177.7" font-family="Times,serif" font-size="14.00">$69</text>
<text text-anchor="middle" x="2689.85" y="-161.2" font-family="Times,serif" font-size="14.00">$and</text>
<polyline fill="none" stroke="black" points="2710.98,-150 2710.98,-199"/>
<text text-anchor="middle" x="2723.85" y="-169.7" font-family="Times,serif" font-size="14.00">Y</text>
</g>
<!-- x8 -->
<g id="node23" class="node">
<title>x8</title>
<path fill="none" stroke="black" d="M2791.76,-156.5C2791.76,-156.5 2830.26,-156.5 2830.26,-156.5 2836.26,-156.5 2842.26,-162.5 2842.26,-168.5 2842.26,-168.5 2842.26,-180.5 2842.26,-180.5 2842.26,-186.5 2836.26,-192.5 2830.26,-192.5 2830.26,-192.5 2791.76,-192.5 2791.76,-192.5 2785.76,-192.5 2779.76,-186.5 2779.76,-180.5 2779.76,-180.5 2779.76,-168.5 2779.76,-168.5 2779.76,-162.5 2785.76,-156.5 2791.76,-156.5"/>
<text text-anchor="middle" x="2811.01" y="-169.7" font-family="Times,serif" font-size="14.00">1:0 &#45; 1:0</text>
</g>
<!-- c34&#45;&gt;x8 -->
<g id="edge9" class="edge">
<title>c34:e&#45;&gt;x8:w</title>
<path fill="none" stroke="black" stroke-width="3" d="M2750.48,-174.7C2756.44,-174.66 2761.09,-174.59 2767.05,-174.55"/>
<polygon fill="none" stroke="black" stroke-width="3" points="2752.43,-174.7 2746.45,-178.72 2740.43,-174.74 2746.42,-170.72 2752.43,-174.7"/>
<polygon fill="none" stroke="black" stroke-width="3" points="2765.06,-174.55 2771.05,-170.53 2777.06,-174.51 2771.07,-178.53 2765.06,-174.55"/>
</g>
<!-- x6 -->
<g id="node21" class="node">
<title>x6</title>
<path fill="none" stroke="black" d="M2549.44,-168.5C2549.44,-168.5 2587.94,-168.5 2587.94,-168.5 2593.94,-168.5 2599.94,-174.5 2599.94,-180.5 2599.94,-180.5 2599.94,-192.5 2599.94,-192.5 2599.94,-198.5 2593.94,-204.5 2587.94,-204.5 2587.94,-204.5 2549.44,-204.5 2549.44,-204.5 2543.44,-204.5 2537.44,-198.5 2537.44,-192.5 2537.44,-192.5 2537.44,-180.5 2537.44,-180.5 2537.44,-174.5 2543.44,-168.5 2549.44,-168.5"/>
<text text-anchor="middle" x="2568.69" y="-181.7" font-family="Times,serif" font-size="14.00">1:0 &#45; 1:0</text>
</g>
<!-- x6&#45;&gt;c34 -->
<g id="edge7" class="edge">
<title>x6:e&#45;&gt;c34:w</title>
<path fill="none" stroke="black" stroke-width="3" d="M2612.7,-186.55C2618.65,-186.59 2623.3,-186.66 2629.26,-186.7"/>
<polygon fill="none" stroke="black" stroke-width="3" points="2614.65,-186.55 2608.63,-190.53 2602.65,-186.51 2608.66,-182.53 2614.65,-186.55"/>
<polygon fill="none" stroke="black" stroke-width="3" points="2627.27,-186.7 2633.29,-182.72 2639.27,-186.74 2633.26,-190.72 2627.27,-186.7"/>
</g>
<!-- x7&#45;&gt;c34 -->
<g id="edge8" class="edge">
<title>x7:e&#45;&gt;c34:w</title>
<path fill="none" stroke="black" stroke-width="3" d="M880.99,-109.09C952.08,-104.5 969.26,-62.5 1046.97,-62.5 1046.97,-62.5 1046.97,-62.5 2342.94,-62.5 2478.67,-62.5 2500.58,-156.11 2629.19,-161.96"/>
<polygon fill="none" stroke="black" stroke-width="3" points="882.79,-109.04 876.92,-113.22 870.79,-109.41 876.67,-105.23 882.79,-109.04"/>
<polygon fill="none" stroke="black" stroke-width="3" points="2627.28,-161.92 2633.37,-158.06 2639.27,-162.19 2633.19,-166.05 2627.28,-161.92"/>
</g>
<!-- x8&#45;&gt;n22 -->
<g id="edge69" class="edge">
<title>x8:e&#45;&gt;n22:w</title>
<path fill="none" stroke="black" stroke-width="3" d="M2842.26,-174.75C2853.64,-174.75 2858.95,-174.62 2866.82,-174.55"/>
<polygon fill="black" stroke="black" stroke-width="3" points="2863.74,-178.06 2873.72,-174.52 2863.71,-171.06 2863.74,-178.06"/>
</g>
<!-- c35 -->
<g id="node24" class="node">
<title>c35</title>
<polygon fill="none" stroke="black" points="5751.56,-161 5751.56,-210 5843.81,-210 5843.81,-161 5751.56,-161"/>
<text text-anchor="middle" x="5764.43" y="-192.7" font-family="Times,serif" font-size="14.00">A</text>
<polyline fill="none" stroke="black" points="5751.56,-185.5 5777.31,-185.5"/>
<text text-anchor="middle" x="5764.43" y="-168.2" font-family="Times,serif" font-size="14.00">B</text>
<polyline fill="none" stroke="black" points="5777.31,-161 5777.31,-210"/>
<text text-anchor="middle" x="5797.68" y="-188.7" font-family="Times,serif" font-size="14.00">$84</text>
<text text-anchor="middle" x="5797.68" y="-172.2" font-family="Times,serif" font-size="14.00">$xor</text>
<polyline fill="none" stroke="black" points="5818.06,-161 5818.06,-210"/>
<text text-anchor="middle" x="5830.93" y="-180.7" font-family="Times,serif" font-size="14.00">Y</text>
</g>
<!-- x11 -->
<g id="node27" class="node">
<title>x11</title>
<path fill="none" stroke="black" d="M5891.81,-224.5C5891.81,-224.5 5930.31,-224.5 5930.31,-224.5 5936.31,-224.5 5942.31,-230.5 5942.31,-236.5 5942.31,-236.5 5942.31,-248.5 5942.31,-248.5 5942.31,-254.5 5936.31,-260.5 5930.31,-260.5 5930.31,-260.5 5891.81,-260.5 5891.81,-260.5 5885.81,-260.5 5879.81,-254.5 5879.81,-248.5 5879.81,-248.5 5879.81,-236.5 5879.81,-236.5 5879.81,-230.5 5885.81,-224.5 5891.81,-224.5"/>
<text text-anchor="middle" x="5911.06" y="-237.7" font-family="Times,serif" font-size="14.00">0:0 &#45; 0:0</text>
</g>
<!-- c35&#45;&gt;x11 -->
<g id="edge12" class="edge">
<title>c35:e&#45;&gt;x11:w</title>
<path fill="none" stroke="black" d="M5855.66,-190.99C5864.17,-201.85 5859.44,-226.73 5868.1,-237.44"/>
<polygon fill="none" stroke="black" points="5855.61,-190.96 5848.51,-192.2 5844.63,-186.11 5851.74,-184.88 5855.61,-190.96"/>
<polygon fill="none" stroke="black" points="5867.97,-237.38 5875.06,-236.09 5878.98,-242.14 5871.89,-243.43 5867.97,-237.38"/>
</g>
<!-- x9 -->
<g id="node25" class="node">
<title>x9</title>
<path fill="none" stroke="black" d="M5665.06,-179.5C5665.06,-179.5 5703.56,-179.5 5703.56,-179.5 5709.56,-179.5 5715.56,-185.5 5715.56,-191.5 5715.56,-191.5 5715.56,-203.5 5715.56,-203.5 5715.56,-209.5 5709.56,-215.5 5703.56,-215.5 5703.56,-215.5 5665.06,-215.5 5665.06,-215.5 5659.06,-215.5 5653.06,-209.5 5653.06,-203.5 5653.06,-203.5 5653.06,-191.5 5653.06,-191.5 5653.06,-185.5 5659.06,-179.5 5665.06,-179.5"/>
<text text-anchor="middle" x="5684.31" y="-192.7" font-family="Times,serif" font-size="14.00">0:0 &#45; 0:0</text>
</g>
<!-- x9&#45;&gt;c35 -->
<g id="edge10" class="edge">
<title>x9:e&#45;&gt;c35:w</title>
<path fill="none" stroke="black" d="M5728.28,-197.56C5731.88,-197.6 5735.01,-197.65 5738.59,-197.68"/>
<polygon fill="none" stroke="black" points="5728.46,-197.56 5722.44,-201.53 5716.46,-197.5 5722.48,-193.53 5728.46,-197.56"/>
<polygon fill="none" stroke="black" points="5738.66,-197.68 5744.68,-193.72 5750.66,-197.75 5744.64,-201.71 5738.66,-197.68"/>
</g>
<!-- x10 -->
<g id="node26" class="node">
<title>x10</title>
<path fill="none" stroke="black" d="M3993.96,-91.5C3993.96,-91.5 4032.46,-91.5 4032.46,-91.5 4038.46,-91.5 4044.46,-97.5 4044.46,-103.5 4044.46,-103.5 4044.46,-115.5 4044.46,-115.5 4044.46,-121.5 4038.46,-127.5 4032.46,-127.5 4032.46,-127.5 3993.96,-127.5 3993.96,-127.5 3987.96,-127.5 3981.96,-121.5 3981.96,-115.5 3981.96,-115.5 3981.96,-103.5 3981.96,-103.5 3981.96,-97.5 3987.96,-91.5 3993.96,-91.5"/>
<text text-anchor="middle" x="4013.21" y="-104.7" font-family="Times,serif" font-size="14.00">0:0 &#45; 0:0</text>
</g>
<!-- x10&#45;&gt;c35 -->
<g id="edge11" class="edge">
<title>x10:e&#45;&gt;c35:w</title>
<path fill="none" stroke="black" d="M4058.44,-109.1C4158.58,-102.83 4175.04,-24.5 4282.46,-24.5 4282.46,-24.5 4282.46,-24.5 5616.26,-24.5 5701.09,-24.5 5666.26,-158.53 5738.94,-172.14"/>
<polygon fill="none" stroke="black" points="4058.36,-109.1 4052.48,-113.29 4046.36,-109.47 4052.24,-105.29 4058.36,-109.1"/>
<polygon fill="none" stroke="black" points="5738.71,-172.12 5745.04,-168.66 5750.66,-173.17 5744.33,-176.63 5738.71,-172.12"/>
</g>
<!-- x11&#45;&gt;n19 -->
<g id="edge51" class="edge">
<title>x11:e&#45;&gt;n19:w</title>
<path fill="none" stroke="black" d="M5943.31,-242.75C5951.43,-242.75 5947.46,-254.72 5942.31,-261 5867.56,-352.28 5803.29,-327.5 5685.31,-327.5 3762.99,-327.5 3762.99,-327.5 3762.99,-327.5 3636.84,-327.5 3568.06,-393.99 3480.18,-303.5 3478.34,-301.61 3476.74,-299.03 3475.7,-296.4"/>
<polygon fill="black" stroke="black" points="3479.02,-297.53 3478.72,-286.94 3472.35,-295.41 3479.02,-297.53"/>
</g>
<!-- c36&#45;&gt;x6 -->
<g id="edge91" class="edge">
<title>c36:e&#45;&gt;x6:w</title>
<path fill="none" stroke="black" stroke-width="3" d="M2501.44,-186.75C2512.82,-186.75 2518.13,-186.75 2526,-186.75"/>
<polygon fill="black" stroke="black" stroke-width="3" points="2522.9,-190.25 2532.9,-186.75 2522.9,-183.25 2522.9,-190.25"/>
</g>
<!-- x12&#45;&gt;c36 -->
<g id="edge13" class="edge">
<title>x12:e&#45;&gt;c36:w</title>
<path fill="none" stroke="black" stroke-width="3" d="M2385.95,-202.3C2389.64,-201.58 2392.82,-200.65 2396.53,-199.93"/>
<polygon fill="none" stroke="black" stroke-width="3" points="2387.83,-202.12 2382.23,-206.67 2375.89,-203.25 2381.48,-198.7 2387.83,-202.12"/>
<polygon fill="none" stroke="black" stroke-width="3" points="2394.55,-200.12 2400.15,-195.58 2406.5,-199 2400.9,-203.54 2394.55,-200.12"/>
</g>
<!-- c37 -->
<g id="node30" class="node">
<title>c37</title>
<polygon fill="none" stroke="black" points="3182.09,-199 3182.09,-240 3273.59,-240 3273.59,-199 3182.09,-199"/>
<text text-anchor="middle" x="3194.97" y="-214.7" font-family="Times,serif" font-size="14.00">A</text>
<polyline fill="none" stroke="black" points="3207.84,-199 3207.84,-240"/>
<text text-anchor="middle" x="3227.84" y="-222.7" font-family="Times,serif" font-size="14.00">$98</text>
<text text-anchor="middle" x="3227.84" y="-206.2" font-family="Times,serif" font-size="14.00">$not</text>
<polyline fill="none" stroke="black" points="3247.84,-199 3247.84,-240"/>
<text text-anchor="middle" x="3260.72" y="-214.7" font-family="Times,serif" font-size="14.00">Y</text>
</g>
<!-- x14 -->
<g id="node32" class="node">
<title>x14</title>
<path fill="none" stroke="black" d="M3387.17,-195C3387.17,-195 3425.67,-195 3425.67,-195 3431.67,-195 3437.67,-201 3437.67,-207 3437.67,-207 3437.67,-232 3437.67,-232 3437.67,-238 3431.67,-244 3425.67,-244 3425.67,-244 3387.17,-244 3387.17,-244 3381.17,-244 3375.17,-238 3375.17,-232 3375.17,-232 3375.17,-207 3375.17,-207 3375.17,-201 3381.17,-195 3387.17,-195"/>
<text text-anchor="middle" x="3406.42" y="-226.7" font-family="Times,serif" font-size="14.00">1:1 &#45; 1:1</text>
<polyline fill="none" stroke="black" points="3375.17,-219.5 3437.67,-219.5"/>
<text text-anchor="middle" x="3406.42" y="-202.2" font-family="Times,serif" font-size="14.00">0:0 &#45; 0:0</text>
</g>
<!-- c37&#45;&gt;x14 -->
<g id="edge15" class="edge">
<title>c37:e&#45;&gt;x14:w</title>
<path fill="none" stroke="black" stroke-width="3" d="M3287.57,-219.74C3317.57,-219.7 3331.24,-219.54 3361.27,-219.51"/>
<polygon fill="none" stroke="black" stroke-width="3" points="3289.3,-219.74 3283.3,-223.74 3277.3,-219.75 3283.3,-215.74 3289.3,-219.74"/>
<polygon fill="none" stroke="black" stroke-width="3" points="3359.47,-219.51 3365.47,-215.51 3371.47,-219.5 3365.47,-223.51 3359.47,-219.51"/>
</g>
<!-- x13&#45;&gt;c37 -->
<g id="edge14" class="edge">
<title>x13:e&#45;&gt;c37:w</title>
<path fill="none" stroke="black" stroke-width="3" d="M3099.91,-217.57C3127.66,-217.92 3140.56,-219.33 3168.24,-219.67"/>
<polygon fill="none" stroke="black" stroke-width="3" points="3101.97,-217.59 3095.95,-221.55 3089.97,-217.52 3095.99,-213.55 3101.97,-217.59"/>
<polygon fill="none" stroke="black" stroke-width="3" points="3166.39,-219.66 3172.41,-215.7 3178.39,-219.73 3172.37,-223.7 3166.39,-219.66"/>
</g>
<!-- x14&#45;&gt;n19 -->
<g id="edge52" class="edge">
<title>x14:e&#45;&gt;n19:w</title>
<path fill="none" stroke="black" d="M3438.67,-231.75C3464.43,-231.75 3454.66,-270.73 3469.87,-282.3"/>
<polygon fill="black" stroke="black" points="3468.39,-285.51 3478.98,-285.06 3470.42,-278.81 3468.39,-285.51"/>
</g>
<!-- n7 -->
<g id="node73" class="node">
<title>n7</title>
<ellipse fill="black" stroke="black" cx="3833.04" cy="-219.5" rx="1.8" ry="1.8"/>
</g>
<!-- x14&#45;&gt;n7 -->
<g id="edge87" class="edge">
<title>x14:e&#45;&gt;n7:w</title>
<path fill="none" stroke="black" d="M3438.67,-207.25C3553.39,-207.25 3582.23,-195.55 3696.74,-202.5 3740.76,-205.17 3751.5,-208.8 3795.24,-214.5 3806.75,-216 3811.97,-217.93 3819.99,-218.89"/>
<polygon fill="black" stroke="black" points="3819.55,-222.37 3829.72,-219.42 3819.93,-215.38 3819.55,-222.37"/>
</g>
<!-- c38&#45;&gt;c28 -->
<g id="edge92" class="edge">
<title>c38:e&#45;&gt;c28:w</title>
<path fill="none" stroke="black" d="M1088.84,-291.75C1113.58,-291.75 1101.44,-252.62 1114.07,-239.78"/>
<polygon fill="black" stroke="black" points="1115.28,-243.06 1123.42,-236.28 1112.83,-236.51 1115.28,-243.06"/>
</g>
<!-- x15 -->
<g id="node34" class="node">
<title>x15</title>
<path fill="none" stroke="black" d="M916.09,-255C916.09,-255 959.09,-255 959.09,-255 965.09,-255 971.09,-261 971.09,-267 971.09,-267 971.09,-292 971.09,-292 971.09,-298 965.09,-304 959.09,-304 959.09,-304 916.09,-304 916.09,-304 910.09,-304 904.09,-298 904.09,-292 904.09,-292 904.09,-267 904.09,-267 904.09,-261 910.09,-255 916.09,-255"/>
<text text-anchor="middle" x="937.59" y="-286.7" font-family="Times,serif" font-size="14.00">1 &#45;&gt; 25:3</text>
<polyline fill="none" stroke="black" points="904.09,-279.5 971.09,-279.5"/>
<text text-anchor="middle" x="937.59" y="-262.2" font-family="Times,serif" font-size="14.00">2:0 &#45; 2:0</text>
</g>
<!-- x15&#45;&gt;c38 -->
<g id="edge16" class="edge">
<title>x15:e&#45;&gt;c38:w</title>
<path fill="none" stroke="black" stroke-width="3" d="M983.81,-279.44C987.41,-279.4 990.54,-279.35 994.12,-279.32"/>
<polygon fill="none" stroke="black" stroke-width="3" points="985.8,-279.43 979.82,-283.46 973.8,-279.49 979.78,-275.46 985.8,-279.43"/>
<polygon fill="none" stroke="black" stroke-width="3" points="992.39,-279.32 998.37,-275.29 1004.39,-279.26 998.41,-283.29 992.39,-279.32"/>
</g>
<!-- c44 -->
<g id="node47" class="node">
<title>c44</title>
<polygon fill="none" stroke="black" points="5312.4,-204 5312.4,-253 5400.15,-253 5400.15,-204 5312.4,-204"/>
<text text-anchor="middle" x="5325.27" y="-235.7" font-family="Times,serif" font-size="14.00">A</text>
<polyline fill="none" stroke="black" points="5312.4,-228.5 5338.15,-228.5"/>
<text text-anchor="middle" x="5325.27" y="-211.2" font-family="Times,serif" font-size="14.00">B</text>
<polyline fill="none" stroke="black" points="5338.15,-204 5338.15,-253"/>
<text text-anchor="middle" x="5356.27" y="-231.7" font-family="Times,serif" font-size="14.00">$30</text>
<text text-anchor="middle" x="5356.27" y="-215.2" font-family="Times,serif" font-size="14.00">$or</text>
<polyline fill="none" stroke="black" points="5374.4,-204 5374.4,-253"/>
<text text-anchor="middle" x="5387.27" y="-223.7" font-family="Times,serif" font-size="14.00">Y</text>
</g>
<!-- c39&#45;&gt;c44 -->
<g id="edge42" class="edge">
<title>c39:e&#45;&gt;c44:w</title>
<path fill="none" stroke="black" d="M4327.34,-274.75C4435.46,-274.75 4462.47,-271.5 4570.59,-271.5 4570.59,-271.5 4570.59,-271.5 5058.34,-271.5 5167.76,-271.5 5196.19,-242.82 5300.08,-240.86"/>
<polygon fill="black" stroke="black" points="5299.92,-244.36 5309.89,-240.76 5299.85,-237.36 5299.92,-244.36"/>
</g>
<!-- x16&#45;&gt;c39 -->
<g id="edge17" class="edge">
<title>x16:e&#45;&gt;c39:w</title>
<path fill="none" stroke="black" stroke-width="3" d="M3584.2,-398.95C3662.75,-404.69 3677.53,-463.5 3762.99,-463.5 3762.99,-463.5 3762.99,-463.5 4014.21,-463.5 4077.29,-463.5 4161.5,-285.88 4227.14,-264.37"/>
<polygon fill="none" stroke="black" stroke-width="3" points="3586.27,-399.02 3580.14,-402.81 3574.28,-398.6 3580.42,-394.81 3586.27,-399.02"/>
<polygon fill="none" stroke="black" stroke-width="3" points="4225.09,-264.72 4230.33,-259.77 4236.92,-262.7 4231.68,-267.66 4225.09,-264.72"/>
</g>
<!-- c40&#45;&gt;c50 -->
<g id="edge43" class="edge">
<title>c40:e&#45;&gt;c50:w</title>
<path fill="none" stroke="black" stroke-width="3" d="M367.34,-394.75C385.62,-394.75 383.06,-371.25 392.87,-361.71"/>
<polygon fill="black" stroke="black" stroke-width="3" points="390.98,-366.17 399.09,-359.36 388.5,-359.62 390.98,-366.17"/>
</g>
<!-- c41&#45;&gt;c40 -->
<g id="edge44" class="edge">
<title>c41:e&#45;&gt;c40:w</title>
<path fill="none" stroke="black" stroke-width="3" d="M235.34,-382.75C246.72,-382.75 252.03,-382.5 259.89,-382.35"/>
<polygon fill="black" stroke="black" stroke-width="3" points="256.83,-385.88 266.8,-382.29 256.77,-378.88 256.83,-385.88"/>
</g>
<!-- c42 -->
<g id="node39" class="node">
<title>c42</title>
<polygon fill="none" stroke="black" points="3969.34,-243 3969.34,-292 4057.09,-292 4057.09,-243 3969.34,-243"/>
<text text-anchor="middle" x="3982.21" y="-274.7" font-family="Times,serif" font-size="14.00">A</text>
<polyline fill="none" stroke="black" points="3969.34,-267.5 3995.09,-267.5"/>
<text text-anchor="middle" x="3982.21" y="-250.2" font-family="Times,serif" font-size="14.00">B</text>
<polyline fill="none" stroke="black" points="3995.09,-243 3995.09,-292"/>
<text text-anchor="middle" x="4013.21" y="-270.7" font-family="Times,serif" font-size="14.00">$24</text>
<text text-anchor="middle" x="4013.21" y="-254.2" font-family="Times,serif" font-size="14.00">$or</text>
<polyline fill="none" stroke="black" points="4031.34,-243 4031.34,-292"/>
<text text-anchor="middle" x="4044.21" y="-262.7" font-family="Times,serif" font-size="14.00">Y</text>
</g>
<!-- x19 -->
<g id="node42" class="node">
<title>x19</title>
<path fill="none" stroke="black" d="M4129.09,-222.5C4129.09,-222.5 4167.59,-222.5 4167.59,-222.5 4173.59,-222.5 4179.59,-228.5 4179.59,-234.5 4179.59,-234.5 4179.59,-246.5 4179.59,-246.5 4179.59,-252.5 4173.59,-258.5 4167.59,-258.5 4167.59,-258.5 4129.09,-258.5 4129.09,-258.5 4123.09,-258.5 4117.09,-252.5 4117.09,-246.5 4117.09,-246.5 4117.09,-234.5 4117.09,-234.5 4117.09,-228.5 4123.09,-222.5 4129.09,-222.5"/>
<text text-anchor="middle" x="4148.34" y="-235.7" font-family="Times,serif" font-size="14.00">1:0 &#45; 1:0</text>
</g>
<!-- c42&#45;&gt;x19 -->
<g id="edge20" class="edge">
<title>c42:e&#45;&gt;x19:w</title>
<path fill="none" stroke="black" stroke-width="3" d="M4069.81,-265.61C4083.68,-260.49 4089.64,-247.59 4103.59,-242.55"/>
<polygon fill="none" stroke="black" stroke-width="3" points="4071.59,-265.31 4066.33,-270.25 4059.75,-267.3 4065.01,-262.36 4071.59,-265.31"/>
<polygon fill="none" stroke="black" stroke-width="3" points="4101.58,-242.89 4106.85,-237.97 4113.42,-240.94 4108.15,-245.86 4101.58,-242.89"/>
</g>
<!-- x17&#45;&gt;c42 -->
<g id="edge18" class="edge">
<title>x17:e&#45;&gt;c42:w</title>
<path fill="none" stroke="black" stroke-width="3" d="M1093.23,-422.53C1480.52,-424.23 1578.79,-501.5 1972.57,-501.5 1972.57,-501.5 1972.57,-501.5 3764.99,-501.5 3827.81,-501.5 3893.55,-306.6 3956.73,-282.24"/>
<polygon fill="none" stroke="black" stroke-width="3" points="1094.92,-422.53 1088.91,-426.52 1082.92,-422.51 1088.93,-418.52 1094.92,-422.53"/>
<polygon fill="none" stroke="black" stroke-width="3" points="3954.91,-282.6 3960.02,-277.51 3966.68,-280.27 3961.57,-285.36 3954.91,-282.6"/>
</g>
<!-- x18&#45;&gt;c42 -->
<g id="edge19" class="edge">
<title>x18:e&#45;&gt;c42:w</title>
<path fill="none" stroke="black" stroke-width="3" d="M3946.06,-255.44C3949.66,-255.4 3952.79,-255.35 3956.36,-255.32"/>
<polygon fill="none" stroke="black" stroke-width="3" points="3948.04,-255.43 3942.06,-259.46 3936.04,-255.49 3942.02,-251.46 3948.04,-255.43"/>
<polygon fill="none" stroke="black" stroke-width="3" points="3954.63,-255.32 3960.61,-251.29 3966.63,-255.26 3960.65,-259.29 3954.63,-255.32"/>
</g>
<!-- x20 -->
<g id="node44" class="node">
<title>x20</title>
<path fill="none" stroke="black" d="M4264.21,-194.5C4264.21,-194.5 4302.71,-194.5 4302.71,-194.5 4308.71,-194.5 4314.71,-200.5 4314.71,-206.5 4314.71,-206.5 4314.71,-218.5 4314.71,-218.5 4314.71,-224.5 4308.71,-230.5 4302.71,-230.5 4302.71,-230.5 4264.21,-230.5 4264.21,-230.5 4258.21,-230.5 4252.21,-224.5 4252.21,-218.5 4252.21,-218.5 4252.21,-206.5 4252.21,-206.5 4252.21,-200.5 4258.21,-194.5 4264.21,-194.5"/>
<text text-anchor="middle" x="4283.46" y="-207.7" font-family="Times,serif" font-size="14.00">1:0 &#45; 1:0</text>
</g>
<!-- x19&#45;&gt;x20 -->
<g id="edge32" class="edge">
<title>x19:e&#45;&gt;x20:w</title>
<path fill="none" stroke="black" stroke-width="3" d="M4180.59,-240.75C4210.13,-240.75 4216.19,-219.31 4239.87,-213.95"/>
<polygon fill="black" stroke="black" stroke-width="3" points="4237.12,-217.76 4246.7,-213.23 4236.38,-210.8 4237.12,-217.76"/>
</g>
<!-- c43 -->
<g id="node43" class="node">
<title>c43</title>
<polygon fill="none" stroke="black" points="4389.96,-176 4389.96,-225 4477.71,-225 4477.71,-176 4389.96,-176"/>
<text text-anchor="middle" x="4402.84" y="-207.7" font-family="Times,serif" font-size="14.00">A</text>
<polyline fill="none" stroke="black" points="4389.96,-200.5 4415.71,-200.5"/>
<text text-anchor="middle" x="4402.84" y="-183.2" font-family="Times,serif" font-size="14.00">B</text>
<polyline fill="none" stroke="black" points="4415.71,-176 4415.71,-225"/>
<text text-anchor="middle" x="4433.84" y="-203.7" font-family="Times,serif" font-size="14.00">$25</text>
<text text-anchor="middle" x="4433.84" y="-187.2" font-family="Times,serif" font-size="14.00">$or</text>
<polyline fill="none" stroke="black" points="4451.96,-176 4451.96,-225"/>
<text text-anchor="middle" x="4464.84" y="-195.7" font-family="Times,serif" font-size="14.00">Y</text>
</g>
<!-- x22 -->
<g id="node46" class="node">
<title>x22</title>
<path fill="none" stroke="black" d="M4552.34,-184.5C4552.34,-184.5 4590.84,-184.5 4590.84,-184.5 4596.84,-184.5 4602.84,-190.5 4602.84,-196.5 4602.84,-196.5 4602.84,-208.5 4602.84,-208.5 4602.84,-214.5 4596.84,-220.5 4590.84,-220.5 4590.84,-220.5 4552.34,-220.5 4552.34,-220.5 4546.34,-220.5 4540.34,-214.5 4540.34,-208.5 4540.34,-208.5 4540.34,-196.5 4540.34,-196.5 4540.34,-190.5 4546.34,-184.5 4552.34,-184.5"/>
<text text-anchor="middle" x="4571.59" y="-197.7" font-family="Times,serif" font-size="14.00">1:0 &#45; 1:0</text>
</g>
<!-- c43&#45;&gt;x22 -->
<g id="edge23" class="edge">
<title>c43:e&#45;&gt;x22:w</title>
<path fill="none" stroke="black" stroke-width="3" d="M4491.73,-200.9C4505.4,-201.23 4513.66,-202.02 4527.34,-202.35"/>
<polygon fill="none" stroke="black" stroke-width="3" points="4493.42,-200.92 4487.37,-204.85 4481.42,-200.78 4487.46,-196.85 4493.42,-200.92"/>
<polygon fill="none" stroke="black" stroke-width="3" points="4525.63,-202.33 4531.68,-198.4 4537.63,-202.47 4531.59,-206.4 4525.63,-202.33"/>
</g>
<!-- x20&#45;&gt;c43 -->
<g id="edge21" class="edge">
<title>x20:e&#45;&gt;c43:w</title>
<path fill="none" stroke="black" stroke-width="3" d="M4328.76,-212.51C4347.36,-212.56 4357.43,-212.69 4376.08,-212.74"/>
<polygon fill="none" stroke="black" stroke-width="3" points="4330.42,-212.52 4324.41,-216.51 4318.42,-212.5 4324.42,-208.51 4330.42,-212.52"/>
<polygon fill="none" stroke="black" stroke-width="3" points="4374.26,-212.73 4380.26,-208.74 4386.26,-212.75 4380.25,-216.74 4374.26,-212.73"/>
</g>
<!-- x21&#45;&gt;c43 -->
<g id="edge22" class="edge">
<title>x21:e&#45;&gt;c43:w</title>
<path fill="none" stroke="black" stroke-width="3" d="M4328.53,-159.07C4348.54,-164.33 4356.06,-181.34 4376.02,-186.65"/>
<polygon fill="none" stroke="black" stroke-width="3" points="4330.31,-159.28 4323.87,-162.53 4318.4,-157.83 4324.84,-154.59 4330.31,-159.28"/>
<polygon fill="none" stroke="black" stroke-width="3" points="4374.37,-186.45 4380.81,-183.21 4386.28,-187.92 4379.83,-191.15 4374.37,-186.45"/>
</g>
<!-- x22&#45;&gt;x2 -->
<g id="edge33" class="edge">
<title>x22:e&#45;&gt;x2:w</title>
<path fill="none" stroke="black" stroke-width="3" d="M4602.84,-202.75C4614.69,-202.75 4619.58,-207.4 4627.52,-210.01"/>
<polygon fill="black" stroke="black" stroke-width="3" points="4623.93,-213.01 4634.35,-211.06 4625,-206.09 4623.93,-213.01"/>
</g>
<!-- x24 -->
<g id="node49" class="node">
<title>x24</title>
<path fill="none" stroke="black" d="M5520.21,-207.5C5520.21,-207.5 5558.71,-207.5 5558.71,-207.5 5564.71,-207.5 5570.71,-213.5 5570.71,-219.5 5570.71,-219.5 5570.71,-231.5 5570.71,-231.5 5570.71,-237.5 5564.71,-243.5 5558.71,-243.5 5558.71,-243.5 5520.21,-243.5 5520.21,-243.5 5514.21,-243.5 5508.21,-237.5 5508.21,-231.5 5508.21,-231.5 5508.21,-219.5 5508.21,-219.5 5508.21,-213.5 5514.21,-207.5 5520.21,-207.5"/>
<text text-anchor="middle" x="5539.46" y="-220.7" font-family="Times,serif" font-size="14.00">0:0 &#45; 0:0</text>
</g>
<!-- c44&#45;&gt;x24 -->
<g id="edge25" class="edge">
<title>c44:e&#45;&gt;x24:w</title>
<path fill="none" stroke="black" d="M5414.02,-228.66C5446.9,-228.2 5461.38,-226.05 5494.21,-225.59"/>
<polygon fill="none" stroke="black" points="5414.05,-228.66 5408.08,-232.7 5402.05,-228.74 5408.02,-224.7 5414.05,-228.66"/>
<polygon fill="none" stroke="black" points="5494.31,-225.59 5500.28,-221.55 5506.31,-225.51 5500.34,-229.55 5494.31,-225.59"/>
</g>
<!-- x23&#45;&gt;c44 -->
<g id="edge24" class="edge">
<title>x23:e&#45;&gt;c44:w</title>
<path fill="none" stroke="black" d="M5223.66,-186.49C5245.23,-192.16 5276.85,-208.41 5298.52,-214.18"/>
<polygon fill="none" stroke="black" points="5223.83,-186.51 5217.28,-189.53 5211.98,-184.64 5218.53,-181.63 5223.83,-186.51"/>
<polygon fill="none" stroke="black" points="5298.66,-214.21 5305.22,-211.21 5310.51,-216.11 5303.95,-219.11 5298.66,-214.21"/>
</g>
<!-- n12 -->
<g id="node69" class="node">
<title>n12</title>
<ellipse fill="black" stroke="black" cx="5615.26" cy="-197.5" rx="1.8" ry="1.8"/>
</g>
<!-- x24&#45;&gt;n12 -->
<g id="edge34" class="edge">
<title>x24:e&#45;&gt;n12:w</title>
<path fill="none" stroke="black" d="M5571.71,-225.75C5589.56,-225.75 5591.25,-207.81 5602.53,-200.52"/>
<polygon fill="black" stroke="black" points="5603.3,-203.94 5612,-197.9 5601.43,-197.2 5603.3,-203.94"/>
</g>
<!-- c45&#45;&gt;c49 -->
<g id="edge45" class="edge">
<title>c45:e&#45;&gt;c49:w</title>
<path fill="none" stroke="black" d="M4504.34,-111.75C4649.57,-111.75 4691.36,-76.86 4831.09,-116.5 4844.53,-120.32 4847.58,-130.5 4856.12,-135.36"/>
<polygon fill="black" stroke="black" points="4855.07,-138.7 4865.62,-137.65 4856.71,-131.9 4855.07,-138.7"/>
</g>
<!-- x26 -->
<g id="node53" class="node">
<title>x26</title>
<path fill="none" stroke="black" d="M1660.84,-282C1660.84,-282 1699.34,-282 1699.34,-282 1705.34,-282 1711.34,-288 1711.34,-294 1711.34,-294 1711.34,-319 1711.34,-319 1711.34,-325 1705.34,-331 1699.34,-331 1699.34,-331 1660.84,-331 1660.84,-331 1654.84,-331 1648.84,-325 1648.84,-319 1648.84,-319 1648.84,-294 1648.84,-294 1648.84,-288 1654.84,-282 1660.84,-282"/>
<text text-anchor="middle" x="1680.09" y="-313.7" font-family="Times,serif" font-size="14.00">9:3 &#45; 6:0</text>
<polyline fill="none" stroke="black" points="1648.84,-306.5 1711.34,-306.5"/>
<text text-anchor="middle" x="1680.09" y="-289.2" font-family="Times,serif" font-size="14.00">2:0 &#45; 2:0</text>
</g>
<!-- c46&#45;&gt;x26 -->
<g id="edge27" class="edge">
<title>c46:e&#45;&gt;x26:w</title>
<path fill="none" stroke="black" stroke-width="3" d="M1619.07,-306.7C1624.73,-306.66 1629.22,-306.59 1634.89,-306.55"/>
<polygon fill="none" stroke="black" stroke-width="3" points="1620.8,-306.7 1614.81,-310.72 1608.8,-306.74 1614.78,-302.72 1620.8,-306.7"/>
<polygon fill="none" stroke="black" stroke-width="3" points="1633.14,-306.55 1639.12,-302.53 1645.14,-306.51 1639.15,-310.53 1633.14,-306.55"/>
</g>
<!-- x25&#45;&gt;c46 -->
<g id="edge26" class="edge">
<title>x25:e&#45;&gt;c46:w</title>
<path fill="none" stroke="black" stroke-width="3" d="M1483.48,-284C1491.56,-291.57 1492.9,-306.76 1501.01,-314.3"/>
<polygon fill="none" stroke="black" stroke-width="3" points="1485.13,-284.61 1478.11,-286.28 1473.88,-280.44 1480.89,-278.78 1485.13,-284.61"/>
<polygon fill="none" stroke="black" stroke-width="3" points="1499.29,-313.67 1506.31,-311.99 1510.56,-317.82 1503.54,-319.5 1499.29,-313.67"/>
</g>
<!-- n13 -->
<g id="node70" class="node">
<title>n13</title>
<ellipse fill="black" stroke="black" cx="1755.89" cy="-294.5" rx="1.8" ry="1.8"/>
</g>
<!-- x26&#45;&gt;n13 -->
<g id="edge37" class="edge">
<title>x26:e&#45;&gt;n13:w</title>
<path fill="none" stroke="black" stroke-width="3" d="M1712.34,-294.25C1726.4,-294.25 1732.47,-294.39 1742.66,-294.46"/>
<polygon fill="black" stroke="black" stroke-width="3" points="1739.54,-297.95 1749.55,-294.49 1739.56,-290.95 1739.54,-297.95"/>
</g>
<!-- n5 -->
<g id="node72" class="node">
<title>n5</title>
<ellipse fill="black" stroke="black" cx="1755.89" cy="-318.5" rx="1.8" ry="1.8"/>
</g>
<!-- x26&#45;&gt;n5 -->
<g id="edge83" class="edge">
<title>x26:e&#45;&gt;n5:w</title>
<path fill="none" stroke="black" stroke-width="3" d="M1712.34,-318.75C1726.4,-318.75 1732.47,-318.61 1742.66,-318.54"/>
<polygon fill="black" stroke="black" stroke-width="3" points="1739.56,-322.05 1749.55,-318.51 1739.54,-315.05 1739.56,-322.05"/>
</g>
<!-- c47&#45;&gt;n23 -->
<g id="edge73" class="edge">
<title>c47:e&#45;&gt;n23:w</title>
<path fill="none" stroke="black" stroke-width="3" d="M3275.34,-155.75C3522.76,-155.75 3584.62,-156.5 3832.04,-156.5 3832.04,-156.5 3832.04,-156.5 3903.09,-156.5 3983.57,-156.5 4006.52,-156.5 4081.62,-156.5"/>
<polygon fill="black" stroke="black" stroke-width="3" points="4078.55,-160 4088.55,-156.5 4078.55,-153 4078.55,-160"/>
</g>
<!-- x27&#45;&gt;c47 -->
<g id="edge28" class="edge">
<title>x27:e&#45;&gt;c47:w</title>
<path fill="none" stroke="black" stroke-width="3" d="M3100.22,-116.42C3128.45,-120.66 3139.25,-138.17 3167.56,-142.35"/>
<polygon fill="none" stroke="black" stroke-width="3" points="3101.93,-116.55 3095.66,-120.11 3089.96,-115.69 3096.23,-112.13 3101.93,-116.55"/>
<polygon fill="none" stroke="black" stroke-width="3" points="3165.68,-142.22 3171.94,-138.65 3177.65,-143.06 3171.38,-146.63 3165.68,-142.22"/>
</g>
<!-- v28 -->
<g id="node56" class="node">
<title>v28</title>
<ellipse fill="none" stroke="black" cx="4784.21" cy="-143.5" rx="27" ry="18"/>
<text text-anchor="middle" x="4784.21" y="-138.45" font-family="Times,serif" font-size="14.00">2&#39;00</text>
</g>
<!-- v28&#45;&gt;c49 -->
<g id="edge93" class="edge">
<title>v28:e&#45;&gt;c49:w</title>
<path fill="none" stroke="black" stroke-width="3" d="M4812.47,-143.5C4833.95,-143.5 4839.72,-156.78 4856.05,-161.13"/>
<polygon fill="black" stroke="black" stroke-width="3" points="4852.23,-164.19 4862.58,-161.94 4853.09,-157.24 4852.23,-164.19"/>
</g>
<!-- c49&#45;&gt;n24 -->
<g id="edge77" class="edge">
<title>c49:e&#45;&gt;n24:w</title>
<path fill="none" stroke="black" stroke-width="3" d="M4966.09,-162.5C4977.48,-162.5 4982.77,-163.51 4990.63,-164.1"/>
<polygon fill="black" stroke="black" stroke-width="3" points="4987.43,-167.48 4997.55,-164.34 4987.68,-160.49 4987.43,-167.48"/>
</g>
<!-- c50&#45;&gt;n20 -->
<g id="edge57" class="edge">
<title>c50:e&#45;&gt;n20:w</title>
<path fill="none" stroke="black" stroke-width="3" d="M495.59,-345.75C507.98,-345.75 512.37,-338.76 520.38,-334.93"/>
<polygon fill="black" stroke="black" stroke-width="3" points="518.12,-339 527.15,-333.46 516.64,-332.16 518.12,-339"/>
</g>
<!-- x30 -->
<g id="node60" class="node">
<title>x30</title>
<path fill="none" stroke="black" d="M3744.74,-223.5C3744.74,-223.5 3783.24,-223.5 3783.24,-223.5 3789.24,-223.5 3795.24,-229.5 3795.24,-235.5 3795.24,-235.5 3795.24,-247.5 3795.24,-247.5 3795.24,-253.5 3789.24,-259.5 3783.24,-259.5 3783.24,-259.5 3744.74,-259.5 3744.74,-259.5 3738.74,-259.5 3732.74,-253.5 3732.74,-247.5 3732.74,-247.5 3732.74,-235.5 3732.74,-235.5 3732.74,-229.5 3738.74,-223.5 3744.74,-223.5"/>
<text text-anchor="middle" x="3763.99" y="-236.7" font-family="Times,serif" font-size="14.00">8:0 &#45; 9:1</text>
</g>
<!-- x29&#45;&gt;x30 -->
<g id="edge29" class="edge">
<title>x29:e&#45;&gt;x30:w</title>
<path fill="none" stroke="black" stroke-width="3" d="M3709.49,-237.76C3713.19,-238.53 3716.36,-239.5 3720.07,-240.26"/>
<polygon fill="none" stroke="black" stroke-width="3" points="3711.37,-237.95 3705,-241.34 3699.43,-236.77 3705.79,-233.38 3711.37,-237.95"/>
<polygon fill="none" stroke="black" stroke-width="3" points="3718.1,-240.06 3724.46,-236.67 3730.05,-241.24 3723.68,-244.63 3718.1,-240.06"/>
</g>
<!-- x30&#45;&gt;n7 -->
<g id="edge88" class="edge">
<title>x30:e&#45;&gt;n7:w</title>
<path fill="none" stroke="black" stroke-width="3" d="M3795.24,-241.75C3809.34,-241.75 3811.96,-229.23 3820.32,-222.98"/>
<polygon fill="black" stroke="black" stroke-width="3" points="3818.44,-227.25 3826.91,-220.88 3816.32,-220.58 3818.44,-227.25"/>
</g>
<!-- v31 -->
<g id="node61" class="node">
<title>v31</title>
<ellipse fill="none" stroke="black" cx="5356.27" cy="-167.5" rx="109.19" ry="18"/>
<text text-anchor="middle" x="5356.27" y="-162.45" font-family="Times,serif" font-size="14.00">19&#39;0000000000000000000</text>
</g>
<!-- x32 -->
<g id="node62" class="node">
<title>x32</title>
<path fill="none" stroke="black" d="M5513.46,-151.5C5513.46,-151.5 5565.46,-151.5 5565.46,-151.5 5571.46,-151.5 5577.46,-157.5 5577.46,-163.5 5577.46,-163.5 5577.46,-175.5 5577.46,-175.5 5577.46,-181.5 5571.46,-187.5 5565.46,-187.5 5565.46,-187.5 5513.46,-187.5 5513.46,-187.5 5507.46,-187.5 5501.46,-181.5 5501.46,-175.5 5501.46,-175.5 5501.46,-163.5 5501.46,-163.5 5501.46,-157.5 5507.46,-151.5 5513.46,-151.5"/>
<text text-anchor="middle" x="5539.46" y="-164.7" font-family="Times,serif" font-size="14.00">18:0 &#45; 19:1</text>
</g>
<!-- v31&#45;&gt;x32 -->
<g id="edge94" class="edge">
<title>v31:e&#45;&gt;x32:w</title>
<path fill="none" stroke="black" stroke-width="3" d="M5465.46,-167.5C5476.85,-167.5 5482.14,-168.51 5490.01,-169.1"/>
<polygon fill="black" stroke="black" stroke-width="3" points="5486.8,-172.48 5496.92,-169.34 5487.05,-165.49 5486.8,-172.48"/>
</g>
<!-- x32&#45;&gt;n12 -->
<g id="edge35" class="edge">
<title>x32:e&#45;&gt;n12:w</title>
<path fill="none" stroke="black" stroke-width="3" d="M5577.46,-169.75C5592.93,-169.75 5593.97,-186.02 5602.68,-193.64"/>
<polygon fill="black" stroke="black" stroke-width="3" points="5598.59,-195.9 5609.18,-195.97 5600.95,-189.31 5598.59,-195.9"/>
</g>
<!-- x33 -->
<g id="node63" class="node">
<title>x33</title>
<path fill="none" stroke="black" d="M1805.69,-254C1805.69,-254 1881.69,-254 1881.69,-254 1887.69,-254 1893.69,-260 1893.69,-266 1893.69,-266 1893.69,-291 1893.69,-291 1893.69,-297 1887.69,-303 1881.69,-303 1881.69,-303 1805.69,-303 1805.69,-303 1799.69,-303 1793.69,-297 1793.69,-291 1793.69,-291 1793.69,-266 1793.69,-266 1793.69,-260 1799.69,-254 1805.69,-254"/>
<text text-anchor="middle" x="1843.69" y="-285.7" font-family="Times,serif" font-size="14.00">4x 30:30 &#45; 10:7</text>
<polyline fill="none" stroke="black" points="1793.69,-278.5 1893.69,-278.5"/>
<text text-anchor="middle" x="1843.69" y="-261.2" font-family="Times,serif" font-size="14.00">6:0 &#45; 6:0</text>
</g>
<!-- x34 -->
<g id="node64" class="node">
<title>x34</title>
<path fill="none" stroke="black" d="M1944.19,-254C1944.19,-254 2002.94,-254 2002.94,-254 2008.94,-254 2014.94,-260 2014.94,-266 2014.94,-266 2014.94,-291 2014.94,-291 2014.94,-297 2008.94,-303 2002.94,-303 2002.94,-303 1944.19,-303 1944.19,-303 1938.19,-303 1932.19,-297 1932.19,-291 1932.19,-291 1932.19,-266 1932.19,-266 1932.19,-260 1938.19,-254 1944.19,-254"/>
<text text-anchor="middle" x="1973.57" y="-285.7" font-family="Times,serif" font-size="14.00">10:7 &#45; 29:26</text>
<polyline fill="none" stroke="black" points="1932.19,-278.5 2014.94,-278.5"/>
<text text-anchor="middle" x="1973.57" y="-261.2" font-family="Times,serif" font-size="14.00">6:0 &#45; 9:3</text>
</g>
<!-- x33&#45;&gt;x34 -->
<g id="edge30" class="edge">
<title>x33:e&#45;&gt;x34:w</title>
<path fill="none" stroke="black" stroke-width="3" d="M1906.68,-278.5C1910.74,-278.5 1914.2,-278.5 1918.26,-278.5"/>
<polygon fill="none" stroke="black" stroke-width="3" points="1908.4,-278.5 1902.4,-282.5 1896.4,-278.5 1902.4,-274.5 1908.4,-278.5"/>
<polygon fill="none" stroke="black" stroke-width="3" points="1916.49,-278.5 1922.49,-274.5 1928.49,-278.5 1922.49,-282.5 1916.49,-278.5"/>
</g>
<!-- x34&#45;&gt;n13 -->
<g id="edge38" class="edge">
<title>x34:e&#45;&gt;n13:w</title>
<path fill="none" stroke="black" stroke-width="3" d="M2015.94,-266.25C2021.63,-266.25 2018.97,-257.51 2014.94,-253.5 1945.21,-184.06 1880.91,-198.9 1793.69,-244.5 1768.85,-257.49 1782.54,-283.31 1757.69,-296.3 1757.59,-296.35 1757.49,-296.4 1757.4,-296.45"/>
<polygon fill="black" stroke="black" stroke-width="3" points="1767.4,-296.74 1756.82,-296.21 1764.76,-303.22 1767.4,-296.74"/>
</g>
<!-- x34&#45;&gt;n13 -->
<g id="edge39" class="edge">
<title>x34:e&#45;&gt;n13:w</title>
<path fill="none" stroke="black" stroke-width="3" d="M2015.94,-290.75C2021.63,-290.75 2018.97,-299.49 2014.94,-303.5 1945.21,-372.94 1890.3,-331.29 1793.69,-312.5 1784.52,-310.72 1770.54,-306.65 1760.33,-302.83"/>
<polygon fill="black" stroke="black" stroke-width="3" points="1765.06,-302.79 1755.7,-297.83 1759.93,-307.55 1765.06,-302.79"/>
</g>
<!-- v35 -->
<g id="node65" class="node">
<title>v35</title>
<ellipse fill="none" stroke="black" cx="3227.84" cy="-285.5" rx="104.58" ry="18"/>
<text text-anchor="middle" x="3227.84" y="-280.45" font-family="Times,serif" font-size="14.00">18&#39;111111111111111111</text>
</g>
<!-- x36 -->
<g id="node66" class="node">
<title>x36</title>
<path fill="none" stroke="black" d="M3380.42,-267.5C3380.42,-267.5 3432.42,-267.5 3432.42,-267.5 3438.42,-267.5 3444.42,-273.5 3444.42,-279.5 3444.42,-279.5 3444.42,-291.5 3444.42,-291.5 3444.42,-297.5 3438.42,-303.5 3432.42,-303.5 3432.42,-303.5 3380.42,-303.5 3380.42,-303.5 3374.42,-303.5 3368.42,-297.5 3368.42,-291.5 3368.42,-291.5 3368.42,-279.5 3368.42,-279.5 3368.42,-273.5 3374.42,-267.5 3380.42,-267.5"/>
<text text-anchor="middle" x="3406.42" y="-280.7" font-family="Times,serif" font-size="14.00">17:0 &#45; 19:2</text>
</g>
<!-- v35&#45;&gt;x36 -->
<g id="edge95" class="edge">
<title>v35:e&#45;&gt;x36:w</title>
<path fill="none" stroke="black" stroke-width="3" d="M3332.42,-285.5C3343.8,-285.5 3349.11,-285.5 3356.98,-285.5"/>
<polygon fill="black" stroke="black" stroke-width="3" points="3353.88,-289 3363.88,-285.5 3353.88,-282 3353.88,-289"/>
</g>
<!-- x36&#45;&gt;n19 -->
<g id="edge53" class="edge">
<title>x36:e&#45;&gt;n19:w</title>
<path fill="none" stroke="black" stroke-width="3" d="M3444.42,-285.75C3455.8,-285.75 3461.11,-285.62 3468.98,-285.55"/>
<polygon fill="black" stroke="black" stroke-width="3" points="3465.9,-289.06 3475.88,-285.52 3465.87,-282.06 3465.9,-289.06"/>
</g>
<!-- v37 -->
<g id="node67" class="node">
<title>v37</title>
<ellipse fill="none" stroke="black" cx="2689.85" cy="-113.5" rx="53.91" ry="18"/>
<text text-anchor="middle" x="2689.85" y="-108.45" font-family="Times,serif" font-size="14.00">8&#39;00000000</text>
</g>
<!-- x38 -->
<g id="node68" class="node">
<title>x38</title>
<path fill="none" stroke="black" d="M2791.76,-98.5C2791.76,-98.5 2830.26,-98.5 2830.26,-98.5 2836.26,-98.5 2842.26,-104.5 2842.26,-110.5 2842.26,-110.5 2842.26,-122.5 2842.26,-122.5 2842.26,-128.5 2836.26,-134.5 2830.26,-134.5 2830.26,-134.5 2791.76,-134.5 2791.76,-134.5 2785.76,-134.5 2779.76,-128.5 2779.76,-122.5 2779.76,-122.5 2779.76,-110.5 2779.76,-110.5 2779.76,-104.5 2785.76,-98.5 2791.76,-98.5"/>
<text text-anchor="middle" x="2811.01" y="-111.7" font-family="Times,serif" font-size="14.00">7:0 &#45; 9:2</text>
</g>
<!-- v37&#45;&gt;x38 -->
<g id="edge96" class="edge">
<title>v37:e&#45;&gt;x38:w</title>
<path fill="none" stroke="black" stroke-width="3" d="M2743.76,-113.5C2755.18,-113.5 2760.44,-115.02 2768.3,-115.89"/>
<polygon fill="black" stroke="black" stroke-width="3" points="2765.06,-119.23 2775.23,-116.26 2765.43,-112.24 2765.06,-119.23"/>
</g>
<!-- x38&#45;&gt;n22 -->
<g id="edge68" class="edge">
<title>x38:e&#45;&gt;n22:w</title>
<path fill="none" stroke="black" stroke-width="3" d="M2842.26,-116.75C2867.78,-116.75 2854.34,-157.86 2867.68,-170.71"/>
<polygon fill="black" stroke="black" stroke-width="3" points="2863.39,-172.9 2873.99,-172.97 2865.75,-166.3 2863.39,-172.9"/>
</g>
<!-- n12&#45;&gt;x9 -->
<g id="edge36" class="edge">
<title>n12:e&#45;&gt;x9:w</title>
<path fill="none" stroke="black" d="M5617.06,-197.5C5628.44,-197.5 5633.74,-197.63 5641.61,-197.7"/>
<polygon fill="black" stroke="black" points="5641.53,-201.2 5651.55,-197.74 5641.56,-194.2 5641.53,-201.2"/>
</g>
<!-- n13&#45;&gt;x4 -->
<g id="edge41" class="edge">
<title>n13:e&#45;&gt;x4:w</title>
<path fill="none" stroke="black" stroke-width="3" d="M1757.69,-294.5C1797.6,-294.5 1773.33,-362.51 1800.2,-376.32"/>
<polygon fill="black" stroke="black" stroke-width="3" points="1796.49,-379.1 1807,-377.79 1797.97,-372.26 1796.49,-379.1"/>
</g>
<!-- n13&#45;&gt;x33 -->
<g id="edge40" class="edge">
<title>n13:e&#45;&gt;x33:w</title>
<path fill="none" stroke="black" stroke-width="3" d="M1757.69,-294.5C1769.13,-294.5 1774.37,-292.6 1782.22,-291.51"/>
<polygon fill="black" stroke="black" stroke-width="3" points="1779.42,-295.2 1789.16,-291.05 1778.95,-288.22 1779.42,-295.2"/>
</g>
<!-- n3&#45;&gt;x0 -->
<g id="edge80" class="edge">
<title>n3:e&#45;&gt;x0:w</title>
<path fill="none" stroke="black" stroke-width="3" d="M840.12,-267.5C877.31,-267.5 865.89,-212.89 892.82,-201.37"/>
<polygon fill="black" stroke="black" stroke-width="3" points="890.45,-205.37 899.63,-200.09 889.16,-198.5 890.45,-205.37"/>
</g>
<!-- n3&#45;&gt;x15 -->
<g id="edge81" class="edge">
<title>n3:e&#45;&gt;x15:w</title>
<path fill="none" stroke="black" stroke-width="3" d="M840.12,-267.5C864.33,-267.5 873.08,-267.32 892.7,-267.26"/>
<polygon fill="black" stroke="black" stroke-width="3" points="889.56,-270.77 899.55,-267.26 889.55,-263.77 889.56,-270.77"/>
</g>
<!-- n5&#45;&gt;x1 -->
<g id="edge84" class="edge">
<title>n5:e&#45;&gt;x1:w</title>
<path fill="none" stroke="black" stroke-width="3" d="M1757.69,-318.5C1799.95,-318.5 1760.05,-380.93 1793.69,-406.5 1873.07,-466.82 1918.22,-432.18 2017.44,-422.5 2035.4,-420.75 2041.99,-415.5 2055.56,-413.52"/>
<polygon fill="black" stroke="black" stroke-width="3" points="2052.67,-417.22 2062.41,-413.06 2052.2,-410.24 2052.67,-417.22"/>
</g>
<!-- n5&#45;&gt;x33 -->
<g id="edge85" class="edge">
<title>n5:e&#45;&gt;x33:w</title>
<path fill="none" stroke="black" stroke-width="3" d="M1757.69,-318.5C1781.05,-318.5 1771.07,-282.67 1782.97,-270.35"/>
<polygon fill="black" stroke="black" stroke-width="3" points="1781.36,-274.71 1789.45,-267.87 1778.86,-268.17 1781.36,-274.71"/>
</g>
<!-- n7&#45;&gt;x10 -->
<g id="edge89" class="edge">
<title>n7:e&#45;&gt;x10:w</title>
<path fill="none" stroke="black" d="M3834.84,-219.5C3912.09,-219.5 3901.1,-120.21 3969.74,-110.51"/>
<polygon fill="black" stroke="black" points="3969.71,-114.02 3979.45,-109.85 3969.24,-107.04 3969.71,-114.02"/>
</g>
<!-- n7&#45;&gt;x18 -->
<g id="edge90" class="edge">
<title>n7:e&#45;&gt;x18:w</title>
<path fill="none" stroke="black" d="M3834.84,-219.5C3849.36,-219.5 3851.54,-233.14 3860.08,-239.75"/>
<polygon fill="black" stroke="black" points="3858.8,-243.01 3869.4,-242.78 3860.97,-236.35 3858.8,-243.01"/>
</g>
</g>
</svg>
