<?xml version="1.0" encoding="UTF-8" standalone="no"?>
<!DOCTYPE svg PUBLIC "-//W3C//DTD SVG 1.1//EN"
 "http://www.w3.org/Graphics/SVG/1.1/DTD/svg11.dtd">
<!-- Generated by graphviz version 12.2.1 (20241206.2353)
 -->
<!-- Title: top Pages: 1 -->
<svg width="1659pt" height="206pt"
 viewBox="0.00 0.00 1659.18 206.49" xmlns="http://www.w3.org/2000/svg" xmlns:xlink="http://www.w3.org/1999/xlink">
<g id="graph0" class="graph" transform="scale(1 1) rotate(0) translate(4 202.49)">
<title>top</title>
<polygon fill="white" stroke="none" points="-4,4 -4,-202.49 1655.18,-202.49 1655.18,4 -4,4"/>
<text text-anchor="middle" x="825.59" y="-7.2" font-family="Times,serif" font-size="14.00">top</text>
<!-- n1 -->
<g id="node1" class="node">
<title>n1</title>
<polygon fill="none" stroke="black" points="107.84,-106.04 107.84,-120.96 76.26,-131.5 31.59,-131.5 0,-120.96 0,-106.04 31.59,-95.5 76.26,-95.5 107.84,-106.04"/>
<text text-anchor="middle" x="53.92" y="-108.45" font-family="Times,serif" font-size="14.00">input_data</text>
</g>
<!-- x0 -->
<g id="node6" class="node">
<title>x0</title>
<path fill="none" stroke="black" d="M276.34,-28.5C276.34,-28.5 328.34,-28.5 328.34,-28.5 334.34,-28.5 340.34,-34.5 340.34,-40.5 340.34,-40.5 340.34,-52.5 340.34,-52.5 340.34,-58.5 334.34,-64.5 328.34,-64.5 328.34,-64.5 276.34,-64.5 276.34,-64.5 270.34,-64.5 264.34,-58.5 264.34,-52.5 264.34,-52.5 264.34,-40.5 264.34,-40.5 264.34,-34.5 270.34,-28.5 276.34,-28.5"/>
<text text-anchor="middle" x="302.34" y="-41.7" font-family="Times,serif" font-size="14.00">10:0 &#45; 10:0</text>
</g>
<!-- n1&#45;&gt;x0 -->
<g id="edge9" class="edge">
<title>n1:e&#45;&gt;x0:w</title>
<path fill="none" stroke="black" stroke-width="3" d="M107.84,-113.5C136.69,-113.5 119.17,-74.44 143.84,-59.5 186.14,-33.88 206.76,-44.77 251.97,-46.53"/>
<polygon fill="black" stroke="black" stroke-width="3" points="248.73,-49.96 258.8,-46.66 248.87,-42.97 248.73,-49.96"/>
</g>
<!-- x2 -->
<g id="node9" class="node">
<title>x2</title>
<path fill="none" stroke="black" d="M162.59,-123.5C162.59,-123.5 201.09,-123.5 201.09,-123.5 207.09,-123.5 213.09,-129.5 213.09,-135.5 213.09,-135.5 213.09,-147.5 213.09,-147.5 213.09,-153.5 207.09,-159.5 201.09,-159.5 201.09,-159.5 162.59,-159.5 162.59,-159.5 156.59,-159.5 150.59,-153.5 150.59,-147.5 150.59,-147.5 150.59,-135.5 150.59,-135.5 150.59,-129.5 156.59,-123.5 162.59,-123.5"/>
<text text-anchor="middle" x="181.84" y="-136.7" font-family="Times,serif" font-size="14.00">8:7 &#45; 1:0</text>
</g>
<!-- n1&#45;&gt;x2 -->
<g id="edge10" class="edge">
<title>n1:e&#45;&gt;x2:w</title>
<path fill="none" stroke="black" stroke-width="3" d="M107.84,-113.5C125.69,-113.5 127.38,-131.44 138.66,-138.73"/>
<polygon fill="black" stroke="black" stroke-width="3" points="134.64,-141.25 145.21,-140.54 136.51,-134.5 134.64,-141.25"/>
</g>
<!-- x3 -->
<g id="node10" class="node">
<title>x3</title>
<path fill="none" stroke="black" d="M155.84,-68.5C155.84,-68.5 207.84,-68.5 207.84,-68.5 213.84,-68.5 219.84,-74.5 219.84,-80.5 219.84,-80.5 219.84,-92.5 219.84,-92.5 219.84,-98.5 213.84,-104.5 207.84,-104.5 207.84,-104.5 155.84,-104.5 155.84,-104.5 149.84,-104.5 143.84,-98.5 143.84,-92.5 143.84,-92.5 143.84,-80.5 143.84,-80.5 143.84,-74.5 149.84,-68.5 155.84,-68.5"/>
<text text-anchor="middle" x="181.84" y="-81.7" font-family="Times,serif" font-size="14.00">10:0 &#45; 10:0</text>
</g>
<!-- n1&#45;&gt;x3 -->
<g id="edge11" class="edge">
<title>n1:e&#45;&gt;x3:w</title>
<path fill="none" stroke="black" stroke-width="3" d="M107.84,-113.5C123.1,-113.5 124.41,-97.82 133.13,-90.47"/>
<polygon fill="black" stroke="black" stroke-width="3" points="131.25,-94.83 139.55,-88.24 128.96,-88.22 131.25,-94.83"/>
</g>
<!-- x4 -->
<g id="node12" class="node">
<title>x4</title>
<path fill="none" stroke="black" d="M420.84,-161.5C420.84,-161.5 459.34,-161.5 459.34,-161.5 465.34,-161.5 471.34,-167.5 471.34,-173.5 471.34,-173.5 471.34,-185.5 471.34,-185.5 471.34,-191.5 465.34,-197.5 459.34,-197.5 459.34,-197.5 420.84,-197.5 420.84,-197.5 414.84,-197.5 408.84,-191.5 408.84,-185.5 408.84,-185.5 408.84,-173.5 408.84,-173.5 408.84,-167.5 414.84,-161.5 420.84,-161.5"/>
<text text-anchor="middle" x="440.09" y="-174.7" font-family="Times,serif" font-size="14.00">8:7 &#45; 1:0</text>
</g>
<!-- n1&#45;&gt;x4 -->
<g id="edge12" class="edge">
<title>n1:e&#45;&gt;x4:w</title>
<path fill="none" stroke="black" stroke-width="3" d="M107.84,-113.5C137.43,-113.5 118.15,-154.82 143.84,-169.5 242.41,-225.82 287.39,-182.82 396.38,-179.9"/>
<polygon fill="black" stroke="black" stroke-width="3" points="393.35,-183.44 403.3,-179.81 393.26,-176.44 393.35,-183.44"/>
</g>
<!-- n2 -->
<g id="node2" class="node">
<title>n2</title>
<polygon fill="none" stroke="black" points="1403.91,-140.04 1403.91,-154.96 1369.4,-165.5 1320.6,-165.5 1286.09,-154.96 1286.09,-140.04 1320.6,-129.5 1369.4,-129.5 1403.91,-140.04"/>
<text text-anchor="middle" x="1345" y="-142.45" font-family="Times,serif" font-size="14.00">output_data</text>
</g>
<!-- x9 -->
<g id="node17" class="node">
<title>x9</title>
<path fill="none" stroke="black" d="M1451.91,-105.5C1451.91,-105.5 1521.16,-105.5 1521.16,-105.5 1527.16,-105.5 1533.16,-111.5 1533.16,-117.5 1533.16,-117.5 1533.16,-129.5 1533.16,-129.5 1533.16,-135.5 1527.16,-141.5 1521.16,-141.5 1521.16,-141.5 1451.91,-141.5 1451.91,-141.5 1445.91,-141.5 1439.91,-135.5 1439.91,-129.5 1439.91,-129.5 1439.91,-117.5 1439.91,-117.5 1439.91,-111.5 1445.91,-105.5 1451.91,-105.5"/>
<text text-anchor="middle" x="1486.53" y="-118.7" font-family="Times,serif" font-size="14.00">4x 16:16 &#45; 3:0</text>
</g>
<!-- n2&#45;&gt;x9 -->
<g id="edge16" class="edge">
<title>n2:e&#45;&gt;x9:w</title>
<path fill="none" stroke="black" stroke-width="3" d="M1403.91,-147.5C1418.43,-147.5 1420.61,-133.86 1429.15,-127.25"/>
<polygon fill="black" stroke="black" stroke-width="3" points="1427.16,-131.58 1435.59,-125.16 1425,-124.93 1427.16,-131.58"/>
</g>
<!-- n3 -->
<g id="node3" class="node">
<title>n3</title>
<polygon fill="none" stroke="black" points="440.09,-133.5 384.84,-115.5 440.09,-97.5 495.34,-115.5 440.09,-133.5"/>
<text text-anchor="middle" x="440.09" y="-110.45" font-family="Times,serif" font-size="14.00">temp_5</text>
</g>
<!-- c8 -->
<g id="node5" class="node">
<title>c8</title>
<polygon fill="none" stroke="black" points="531.34,-79 531.34,-128 625.09,-128 625.09,-79 531.34,-79"/>
<text text-anchor="middle" x="544.22" y="-110.7" font-family="Times,serif" font-size="14.00">A</text>
<polyline fill="none" stroke="black" points="531.34,-103.5 557.09,-103.5"/>
<text text-anchor="middle" x="544.22" y="-86.2" font-family="Times,serif" font-size="14.00">B</text>
<polyline fill="none" stroke="black" points="557.09,-79 557.09,-128"/>
<text text-anchor="middle" x="578.22" y="-106.7" font-family="Times,serif" font-size="14.00">$8</text>
<text text-anchor="middle" x="578.22" y="-90.2" font-family="Times,serif" font-size="14.00">$and</text>
<polyline fill="none" stroke="black" points="599.34,-79 599.34,-128"/>
<text text-anchor="middle" x="612.22" y="-98.7" font-family="Times,serif" font-size="14.00">Y</text>
</g>
<!-- n3&#45;&gt;c8 -->
<g id="edge18" class="edge">
<title>n3:e&#45;&gt;c8:w</title>
<path fill="none" stroke="black" stroke-width="3" d="M495.34,-115.5C506.72,-115.5 512.03,-115.63 519.9,-115.7"/>
<polygon fill="black" stroke="black" stroke-width="3" points="516.79,-119.19 526.8,-115.73 516.82,-112.19 516.79,-119.19"/>
</g>
<!-- n4 -->
<g id="node4" class="node">
<title>n4</title>
<polygon fill="none" stroke="black" points="828.34,-121.5 773.09,-103.5 828.34,-85.5 883.59,-103.5 828.34,-121.5"/>
<text text-anchor="middle" x="828.34" y="-98.45" font-family="Times,serif" font-size="14.00">temp_7</text>
</g>
<!-- x5 -->
<g id="node13" class="node">
<title>x5</title>
<path fill="none" stroke="black" d="M931.59,-96C931.59,-96 983.59,-96 983.59,-96 989.59,-96 995.59,-102 995.59,-108 995.59,-108 995.59,-133 995.59,-133 995.59,-139 989.59,-145 983.59,-145 983.59,-145 931.59,-145 931.59,-145 925.59,-145 919.59,-139 919.59,-133 919.59,-133 919.59,-108 919.59,-108 919.59,-102 925.59,-96 931.59,-96"/>
<text text-anchor="middle" x="957.59" y="-127.7" font-family="Times,serif" font-size="14.00">0 &#45;&gt; 11:11</text>
<polyline fill="none" stroke="black" points="919.59,-120.5 995.59,-120.5"/>
<text text-anchor="middle" x="957.59" y="-103.2" font-family="Times,serif" font-size="14.00">10:0 &#45; 10:0</text>
</g>
<!-- n4&#45;&gt;x5 -->
<g id="edge21" class="edge">
<title>n4:e&#45;&gt;x5:w</title>
<path fill="none" stroke="black" stroke-width="3" d="M883.59,-103.5C895.19,-103.5 900.38,-105.95 908.37,-107.33"/>
<polygon fill="black" stroke="black" stroke-width="3" points="904.82,-110.56 915.07,-107.88 905.39,-103.58 904.82,-110.56"/>
</g>
<!-- x1 -->
<g id="node7" class="node">
<title>x1</title>
<path fill="none" stroke="black" d="M673.09,-85.5C673.09,-85.5 725.09,-85.5 725.09,-85.5 731.09,-85.5 737.09,-91.5 737.09,-97.5 737.09,-97.5 737.09,-109.5 737.09,-109.5 737.09,-115.5 731.09,-121.5 725.09,-121.5 725.09,-121.5 673.09,-121.5 673.09,-121.5 667.09,-121.5 661.09,-115.5 661.09,-109.5 661.09,-109.5 661.09,-97.5 661.09,-97.5 661.09,-91.5 667.09,-85.5 673.09,-85.5"/>
<text text-anchor="middle" x="699.09" y="-98.7" font-family="Times,serif" font-size="14.00">10:0 &#45; 10:0</text>
</g>
<!-- c8&#45;&gt;x1 -->
<g id="edge2" class="edge">
<title>c8:e&#45;&gt;x1:w</title>
<path fill="none" stroke="black" stroke-width="3" d="M637.81,-103.69C641.41,-103.65 644.54,-103.6 648.12,-103.57"/>
<polygon fill="none" stroke="black" stroke-width="3" points="639.8,-103.68 633.82,-107.71 627.8,-103.74 633.78,-99.71 639.8,-103.68"/>
<polygon fill="none" stroke="black" stroke-width="3" points="646.39,-103.57 652.37,-99.54 658.39,-103.51 652.41,-107.54 646.39,-103.57"/>
</g>
<!-- x0&#45;&gt;c8 -->
<g id="edge1" class="edge">
<title>x0:e&#45;&gt;c8:w</title>
<path fill="none" stroke="black" stroke-width="3" d="M354.03,-46.83C425.8,-50.71 446.74,-86.95 518.38,-90.9"/>
<polygon fill="none" stroke="black" stroke-width="3" points="356.04,-46.89 349.94,-50.73 344.04,-46.57 350.15,-42.73 356.04,-46.89"/>
<polygon fill="none" stroke="black" stroke-width="3" points="516.64,-90.85 522.75,-87.02 528.64,-91.18 522.53,-95.01 516.64,-90.85"/>
</g>
<!-- x1&#45;&gt;n4 -->
<g id="edge19" class="edge">
<title>x1:e&#45;&gt;n4:w</title>
<path fill="none" stroke="black" stroke-width="3" d="M737.09,-103.75C748.47,-103.75 753.78,-103.62 761.65,-103.55"/>
<polygon fill="black" stroke="black" stroke-width="3" points="758.57,-107.06 768.55,-103.52 758.54,-100.06 758.57,-107.06"/>
</g>
<!-- c9 -->
<g id="node8" class="node">
<title>c9</title>
<polygon fill="none" stroke="black" points="255.84,-91 255.84,-140 348.84,-140 348.84,-91 255.84,-91"/>
<text text-anchor="middle" x="268.72" y="-122.7" font-family="Times,serif" font-size="14.00">A</text>
<polyline fill="none" stroke="black" points="255.84,-115.5 281.59,-115.5"/>
<text text-anchor="middle" x="268.72" y="-98.2" font-family="Times,serif" font-size="14.00">B</text>
<polyline fill="none" stroke="black" points="281.59,-91 281.59,-140"/>
<text text-anchor="middle" x="302.34" y="-118.7" font-family="Times,serif" font-size="14.00">$1</text>
<text text-anchor="middle" x="302.34" y="-102.2" font-family="Times,serif" font-size="14.00">$sub</text>
<polyline fill="none" stroke="black" points="323.09,-91 323.09,-140"/>
<text text-anchor="middle" x="335.97" y="-110.7" font-family="Times,serif" font-size="14.00">Y</text>
</g>
<!-- c9&#45;&gt;n3 -->
<g id="edge17" class="edge">
<title>c9:e&#45;&gt;n3:w</title>
<path fill="none" stroke="black" stroke-width="3" d="M348.84,-115.75C360.22,-115.75 365.53,-115.62 373.39,-115.55"/>
<polygon fill="black" stroke="black" stroke-width="3" points="370.32,-119.06 380.3,-115.52 370.28,-112.06 370.32,-119.06"/>
</g>
<!-- x2&#45;&gt;c9 -->
<g id="edge3" class="edge">
<title>x2:e&#45;&gt;c9:w</title>
<path fill="none" stroke="black" stroke-width="3" d="M226.72,-139.1C232.82,-136.58 237.17,-132.63 243.28,-130.12"/>
<polygon fill="none" stroke="black" stroke-width="3" points="228.54,-138.76 223.39,-143.81 216.75,-141 221.9,-135.95 228.54,-138.76"/>
<polygon fill="none" stroke="black" stroke-width="3" points="241.39,-130.47 246.55,-125.43 253.18,-128.25 248.03,-133.29 241.39,-130.47"/>
</g>
<!-- x3&#45;&gt;c9 -->
<g id="edge4" class="edge">
<title>x3:e&#45;&gt;c9:w</title>
<path fill="none" stroke="black" stroke-width="3" d="M232.21,-90.22C236.31,-92.99 239.39,-96.77 243.49,-99.54"/>
<polygon fill="none" stroke="black" stroke-width="3" points="233.92,-90.73 227.03,-92.84 222.43,-87.28 229.33,-85.17 233.92,-90.73"/>
<polygon fill="none" stroke="black" stroke-width="3" points="241.76,-99.02 248.65,-96.92 253.25,-102.47 246.35,-104.58 241.76,-99.02"/>
</g>
<!-- c10 -->
<g id="node11" class="node">
<title>c10</title>
<polygon fill="none" stroke="black" points="1031.59,-123 1031.59,-172 1124.59,-172 1124.59,-123 1031.59,-123"/>
<text text-anchor="middle" x="1044.47" y="-154.7" font-family="Times,serif" font-size="14.00">A</text>
<polyline fill="none" stroke="black" points="1031.59,-147.5 1057.34,-147.5"/>
<text text-anchor="middle" x="1044.47" y="-130.2" font-family="Times,serif" font-size="14.00">B</text>
<polyline fill="none" stroke="black" points="1057.34,-123 1057.34,-172"/>
<text text-anchor="middle" x="1078.09" y="-150.7" font-family="Times,serif" font-size="14.00">$4</text>
<text text-anchor="middle" x="1078.09" y="-134.2" font-family="Times,serif" font-size="14.00">$sub</text>
<polyline fill="none" stroke="black" points="1098.84,-123 1098.84,-172"/>
<text text-anchor="middle" x="1111.72" y="-142.7" font-family="Times,serif" font-size="14.00">Y</text>
</g>
<!-- x6 -->
<g id="node14" class="node">
<title>x6</title>
<path fill="none" stroke="black" d="M1172.59,-123C1172.59,-123 1238.09,-123 1238.09,-123 1244.09,-123 1250.09,-129 1250.09,-135 1250.09,-135 1250.09,-160 1250.09,-160 1250.09,-166 1244.09,-172 1238.09,-172 1238.09,-172 1172.59,-172 1172.59,-172 1166.59,-172 1160.59,-166 1160.59,-160 1160.59,-160 1160.59,-135 1160.59,-135 1160.59,-129 1166.59,-123 1172.59,-123"/>
<text text-anchor="middle" x="1205.34" y="-154.7" font-family="Times,serif" font-size="14.00">12:12 &#45; 16:16</text>
<polyline fill="none" stroke="black" points="1160.59,-147.5 1250.09,-147.5"/>
<text text-anchor="middle" x="1205.34" y="-130.2" font-family="Times,serif" font-size="14.00">11:0 &#45; 11:0</text>
</g>
<!-- c10&#45;&gt;x6 -->
<g id="edge7" class="edge">
<title>c10:e&#45;&gt;x6:w</title>
<path fill="none" stroke="black" stroke-width="3" d="M1137.31,-147.69C1140.91,-147.65 1144.04,-147.6 1147.62,-147.57"/>
<polygon fill="none" stroke="black" stroke-width="3" points="1139.3,-147.68 1133.32,-151.71 1127.3,-147.74 1133.28,-143.71 1139.3,-147.68"/>
<polygon fill="none" stroke="black" stroke-width="3" points="1145.89,-147.57 1151.87,-143.54 1157.89,-147.51 1151.91,-151.54 1145.89,-147.57"/>
</g>
<!-- x4&#45;&gt;c10 -->
<g id="edge5" class="edge">
<title>x4:e&#45;&gt;c10:w</title>
<path fill="none" stroke="black" stroke-width="3" d="M485.15,-179.47C575.05,-179.07 602.14,-174.5 698.09,-174.5 698.09,-174.5 698.09,-174.5 829.34,-174.5 915.07,-174.5 939.15,-161.16 1018.86,-159.85"/>
<polygon fill="none" stroke="black" stroke-width="3" points="487.05,-179.47 481.05,-183.48 475.05,-179.49 481.04,-175.48 487.05,-179.47"/>
<polygon fill="none" stroke="black" stroke-width="3" points="1016.89,-159.87 1022.86,-155.82 1028.89,-159.77 1022.92,-163.82 1016.89,-159.87"/>
</g>
<!-- x5&#45;&gt;c10 -->
<g id="edge6" class="edge">
<title>x5:e&#45;&gt;c10:w</title>
<path fill="none" stroke="black" stroke-width="3" d="M1008.12,-123.92C1012.06,-126.3 1015.15,-129.47 1019.09,-131.85"/>
<polygon fill="none" stroke="black" stroke-width="3" points="1009.78,-124.37 1002.94,-126.65 998.2,-121.21 1005.04,-118.93 1009.78,-124.37"/>
<polygon fill="none" stroke="black" stroke-width="3" points="1017.41,-131.39 1024.25,-129.1 1028.98,-134.54 1022.14,-136.82 1017.41,-131.39"/>
</g>
<!-- x6&#45;&gt;n2 -->
<g id="edge14" class="edge">
<title>x6:e&#45;&gt;n2:w</title>
<path fill="none" stroke="black" stroke-width="3" d="M1250.09,-135.25C1262.37,-135.25 1266.89,-141.72 1274.93,-145.25"/>
<polygon fill="black" stroke="black" stroke-width="3" points="1271.15,-148.06 1281.64,-146.6 1272.53,-141.2 1271.15,-148.06"/>
</g>
<!-- x6&#45;&gt;n2 -->
<g id="edge15" class="edge">
<title>x6:e&#45;&gt;n2:w</title>
<path fill="none" stroke="black" d="M1250.09,-159.75C1262.37,-159.75 1266.89,-153.28 1274.93,-149.75"/>
<polygon fill="black" stroke="black" points="1275.5,-153.2 1284.61,-147.8 1274.12,-146.34 1275.5,-153.2"/>
</g>
<!-- v7 -->
<g id="node15" class="node">
<title>v7</title>
<ellipse fill="none" stroke="black" cx="578.22" cy="-42.5" rx="27" ry="18"/>
<text text-anchor="middle" x="578.22" y="-37.45" font-family="Times,serif" font-size="14.00">1&#39;0</text>
</g>
<!-- x8 -->
<g id="node16" class="node">
<title>x8</title>
<path fill="none" stroke="black" d="M673.09,-27.5C673.09,-27.5 725.09,-27.5 725.09,-27.5 731.09,-27.5 737.09,-33.5 737.09,-39.5 737.09,-39.5 737.09,-51.5 737.09,-51.5 737.09,-57.5 731.09,-63.5 725.09,-63.5 725.09,-63.5 673.09,-63.5 673.09,-63.5 667.09,-63.5 661.09,-57.5 661.09,-51.5 661.09,-51.5 661.09,-39.5 661.09,-39.5 661.09,-33.5 667.09,-27.5 673.09,-27.5"/>
<text text-anchor="middle" x="699.09" y="-40.7" font-family="Times,serif" font-size="14.00">0:0 &#45; 11:11</text>
</g>
<!-- v7&#45;&gt;x8 -->
<g id="edge22" class="edge">
<title>v7:e&#45;&gt;x8:w</title>
<path fill="none" stroke="black" d="M606.47,-42.5C626.6,-42.5 634.18,-44.56 649.99,-45.26"/>
<polygon fill="black" stroke="black" points="649.51,-48.75 659.58,-45.47 649.66,-41.76 649.51,-48.75"/>
</g>
<!-- x8&#45;&gt;n4 -->
<g id="edge20" class="edge">
<title>x8:e&#45;&gt;n4:w</title>
<path fill="none" stroke="black" d="M737.09,-45.75C762.61,-45.75 749.16,-86.86 762.51,-99.71"/>
<polygon fill="black" stroke="black" points="761.07,-102.92 771.67,-102.99 763.43,-96.32 761.07,-102.92"/>
</g>
<!-- x10 -->
<g id="node18" class="node">
<title>x10</title>
<path fill="none" stroke="black" d="M1581.16,-128.5C1581.16,-128.5 1633.16,-128.5 1633.16,-128.5 1639.16,-128.5 1645.16,-134.5 1645.16,-140.5 1645.16,-140.5 1645.16,-152.5 1645.16,-152.5 1645.16,-158.5 1639.16,-164.5 1633.16,-164.5 1633.16,-164.5 1581.16,-164.5 1581.16,-164.5 1575.16,-164.5 1569.16,-158.5 1569.16,-152.5 1569.16,-152.5 1569.16,-140.5 1569.16,-140.5 1569.16,-134.5 1575.16,-128.5 1581.16,-128.5"/>
<text text-anchor="middle" x="1607.16" y="-141.7" font-family="Times,serif" font-size="14.00">3:0 &#45; 15:12</text>
</g>
<!-- x9&#45;&gt;x10 -->
<g id="edge8" class="edge">
<title>x9:e&#45;&gt;x10:w</title>
<path fill="none" stroke="black" stroke-width="3" d="M1545.13,-127.93C1549.74,-132.01 1552.58,-138.01 1557.19,-142.08"/>
<polygon fill="none" stroke="black" stroke-width="3" points="1546.94,-128.61 1539.93,-130.27 1535.69,-124.44 1542.71,-122.77 1546.94,-128.61"/>
<polygon fill="none" stroke="black" stroke-width="3" points="1555.36,-141.4 1562.38,-139.73 1566.62,-145.56 1559.6,-147.23 1555.36,-141.4"/>
</g>
<!-- x10&#45;&gt;n2 -->
<g id="edge13" class="edge">
<title>x10:e&#45;&gt;n2:w</title>
<path fill="none" stroke="black" stroke-width="3" d="M1646.16,-146.75C1654.28,-146.75 1651.05,-159.41 1645.16,-165 1567.37,-238.8 1511.13,-165.39 1403.91,-165.5 1351.43,-165.55 1323.96,-201.56 1285.85,-165.5 1283.84,-163.61 1282.15,-160.89 1281.12,-158.14"/>
<polygon fill="black" stroke="black" stroke-width="3" points="1283.35,-162.38 1283.35,-151.79 1276.74,-160.07 1283.35,-162.38"/>
</g>
</g>
</svg>
