<?xml version="1.0" encoding="UTF-8" standalone="no"?>
<!DOCTYPE svg PUBLIC "-//W3C//DTD SVG 1.1//EN"
 "http://www.w3.org/Graphics/SVG/1.1/DTD/svg11.dtd">
<!-- Generated by graphviz version 12.2.1 (20241206.2353)
 -->
<!-- Title: top Pages: 1 -->
<svg width="5625pt" height="651pt"
 viewBox="0.00 0.00 5624.91 650.84" xmlns="http://www.w3.org/2000/svg" xmlns:xlink="http://www.w3.org/1999/xlink">
<g id="graph0" class="graph" transform="scale(1 1) rotate(0) translate(4 646.84)">
<title>top</title>
<polygon fill="white" stroke="none" points="-4,4 -4,-646.84 5620.91,-646.84 5620.91,4 -4,4"/>
<text text-anchor="middle" x="2808.45" y="-7.2" font-family="Times,serif" font-size="14.00">top</text>
<!-- n21 -->
<g id="node1" class="node">
<title>n21</title>
<polygon fill="none" stroke="black" points="107.84,-466.54 107.84,-481.46 76.26,-492 31.59,-492 0,-481.46 0,-466.54 31.59,-456 76.26,-456 107.84,-466.54"/>
<text text-anchor="middle" x="53.92" y="-468.95" font-family="Times,serif" font-size="14.00">input_data</text>
</g>
<!-- c30 -->
<g id="node9" class="node">
<title>c30</title>
<polygon fill="none" stroke="black" points="144.59,-355.5 144.59,-396.5 239.09,-396.5 239.09,-355.5 144.59,-355.5"/>
<text text-anchor="middle" x="157.47" y="-371.2" font-family="Times,serif" font-size="14.00">A</text>
<polyline fill="none" stroke="black" points="170.34,-355.5 170.34,-396.5"/>
<text text-anchor="middle" x="191.84" y="-379.2" font-family="Times,serif" font-size="14.00">$158</text>
<text text-anchor="middle" x="191.84" y="-362.7" font-family="Times,serif" font-size="14.00">$not</text>
<polyline fill="none" stroke="black" points="213.34,-355.5 213.34,-396.5"/>
<text text-anchor="middle" x="226.22" y="-371.2" font-family="Times,serif" font-size="14.00">Y</text>
</g>
<!-- n21&#45;&gt;c30 -->
<g id="edge54" class="edge">
<title>n21:e&#45;&gt;c30:w</title>
<path fill="none" stroke="black" stroke-width="3" d="M107.84,-474C149.44,-474 107.98,-395.1 132.7,-379.07"/>
<polygon fill="black" stroke="black" stroke-width="3" points="130.6,-383.21 139.44,-377.36 128.89,-376.43 130.6,-383.21"/>
</g>
<!-- c34 -->
<g id="node19" class="node">
<title>c34</title>
<polygon fill="none" stroke="black" points="3134.69,-247.5 3134.69,-296.5 3222.44,-296.5 3222.44,-247.5 3134.69,-247.5"/>
<text text-anchor="middle" x="3147.56" y="-279.2" font-family="Times,serif" font-size="14.00">A</text>
<polyline fill="none" stroke="black" points="3134.69,-272 3160.44,-272"/>
<text text-anchor="middle" x="3147.56" y="-254.7" font-family="Times,serif" font-size="14.00">B</text>
<polyline fill="none" stroke="black" points="3160.44,-247.5 3160.44,-296.5"/>
<text text-anchor="middle" x="3178.56" y="-275.2" font-family="Times,serif" font-size="14.00">$17</text>
<text text-anchor="middle" x="3178.56" y="-258.7" font-family="Times,serif" font-size="14.00">$gt</text>
<polyline fill="none" stroke="black" points="3196.69,-247.5 3196.69,-296.5"/>
<text text-anchor="middle" x="3209.56" y="-267.2" font-family="Times,serif" font-size="14.00">Y</text>
</g>
<!-- n21&#45;&gt;c34 -->
<g id="edge55" class="edge">
<title>n21:e&#45;&gt;c34:w</title>
<path fill="none" stroke="black" stroke-width="3" d="M107.84,-474C166.94,-474 114.49,-397.29 143.84,-346 199.84,-248.12 206.82,-163 319.59,-163 319.59,-163 319.59,-163 2590.53,-163 2832.34,-163 2887.35,-256.75 3123.31,-259.68"/>
<polygon fill="black" stroke="black" stroke-width="3" points="3120.13,-263.16 3130.15,-259.72 3120.17,-256.16 3120.13,-263.16"/>
</g>
<!-- c39 -->
<g id="node29" class="node">
<title>c39</title>
<polygon fill="none" stroke="black" points="143.84,-502.5 143.84,-551.5 239.84,-551.5 239.84,-502.5 143.84,-502.5"/>
<text text-anchor="middle" x="156.72" y="-534.2" font-family="Times,serif" font-size="14.00">A</text>
<polyline fill="none" stroke="black" points="143.84,-527 169.59,-527"/>
<text text-anchor="middle" x="156.72" y="-509.7" font-family="Times,serif" font-size="14.00">B</text>
<polyline fill="none" stroke="black" points="169.59,-502.5 169.59,-551.5"/>
<text text-anchor="middle" x="191.84" y="-530.2" font-family="Times,serif" font-size="14.00">$6</text>
<text text-anchor="middle" x="191.84" y="-513.7" font-family="Times,serif" font-size="14.00">$mul</text>
<polyline fill="none" stroke="black" points="214.09,-502.5 214.09,-551.5"/>
<text text-anchor="middle" x="226.97" y="-522.2" font-family="Times,serif" font-size="14.00">Y</text>
</g>
<!-- n21&#45;&gt;c39 -->
<g id="edge56" class="edge">
<title>n21:e&#45;&gt;c39:w</title>
<path fill="none" stroke="black" stroke-width="3" d="M107.84,-474C136.3,-474 117.97,-522.19 133.27,-535.74"/>
<polygon fill="black" stroke="black" stroke-width="3" points="128.94,-537.99 139.53,-537.82 131.14,-531.35 128.94,-537.99"/>
</g>
<!-- n21&#45;&gt;c39 -->
<g id="edge57" class="edge">
<title>n21:e&#45;&gt;c39:w</title>
<path fill="none" stroke="black" stroke-width="3" d="M107.84,-474C127.29,-474 123.1,-500.39 133.31,-510.69"/>
<polygon fill="black" stroke="black" stroke-width="3" points="129.01,-512.79 139.6,-513.12 131.53,-506.26 129.01,-512.79"/>
</g>
<!-- c45 -->
<g id="node42" class="node">
<title>c45</title>
<polygon fill="none" stroke="black" points="1365.66,-453.5 1365.66,-502.5 1455.66,-502.5 1455.66,-453.5 1365.66,-453.5"/>
<text text-anchor="middle" x="1378.54" y="-485.2" font-family="Times,serif" font-size="14.00">A</text>
<polyline fill="none" stroke="black" points="1365.66,-478 1391.41,-478"/>
<text text-anchor="middle" x="1378.54" y="-460.7" font-family="Times,serif" font-size="14.00">B</text>
<polyline fill="none" stroke="black" points="1391.41,-453.5 1391.41,-502.5"/>
<text text-anchor="middle" x="1410.66" y="-481.2" font-family="Times,serif" font-size="14.00">$9</text>
<text text-anchor="middle" x="1410.66" y="-464.7" font-family="Times,serif" font-size="14.00">$shl</text>
<polyline fill="none" stroke="black" points="1429.91,-453.5 1429.91,-502.5"/>
<text text-anchor="middle" x="1442.79" y="-473.2" font-family="Times,serif" font-size="14.00">Y</text>
</g>
<!-- n21&#45;&gt;c45 -->
<g id="edge58" class="edge">
<title>n21:e&#45;&gt;c45:w</title>
<path fill="none" stroke="black" stroke-width="3" d="M107.84,-474C201.95,-474 225.48,-474 319.59,-474 319.59,-474 319.59,-474 1030.16,-474 1175.53,-474 1214.55,-466.16 1354.51,-465.77"/>
<polygon fill="black" stroke="black" stroke-width="3" points="1351.13,-469.27 1361.12,-465.76 1351.12,-462.27 1351.13,-469.27"/>
</g>
<!-- n22 -->
<g id="node2" class="node">
<title>n22</title>
<polygon fill="none" stroke="black" points="5273.41,-38.54 5273.41,-53.46 5238.9,-64 5190.1,-64 5155.6,-53.46 5155.6,-38.54 5190.1,-28 5238.9,-28 5273.41,-38.54"/>
<text text-anchor="middle" x="5214.5" y="-40.95" font-family="Times,serif" font-size="14.00">output_data</text>
</g>
<!-- x37 -->
<g id="node62" class="node">
<title>x37</title>
<path fill="none" stroke="black" d="M5321.41,-28C5321.41,-28 5359.91,-28 5359.91,-28 5365.91,-28 5371.91,-34 5371.91,-40 5371.91,-40 5371.91,-52 5371.91,-52 5371.91,-58 5365.91,-64 5359.91,-64 5359.91,-64 5321.41,-64 5321.41,-64 5315.41,-64 5309.41,-58 5309.41,-52 5309.41,-52 5309.41,-40 5309.41,-40 5309.41,-34 5315.41,-28 5321.41,-28"/>
<text text-anchor="middle" x="5340.66" y="-41.2" font-family="Times,serif" font-size="14.00">1:0 &#45; 1:0</text>
</g>
<!-- n22&#45;&gt;x37 -->
<g id="edge61" class="edge">
<title>n22:e&#45;&gt;x37:w</title>
<path fill="none" stroke="black" stroke-width="3" d="M5273.41,-46C5284.78,-46 5290.09,-46.13 5297.96,-46.2"/>
<polygon fill="black" stroke="black" stroke-width="3" points="5294.85,-49.69 5304.87,-46.23 5294.88,-42.69 5294.85,-49.69"/>
</g>
<!-- n23 -->
<g id="node3" class="node">
<title>n23</title>
<polygon fill="none" stroke="black" points="1029.16,-369 973.91,-351 1029.16,-333 1084.41,-351 1029.16,-369"/>
<text text-anchor="middle" x="1029.16" y="-345.95" font-family="Times,serif" font-size="14.00">temp_0</text>
</g>
<!-- x3 -->
<g id="node12" class="node">
<title>x3</title>
<path fill="none" stroke="black" d="M1513.79,-385C1513.79,-385 1552.29,-385 1552.29,-385 1558.29,-385 1564.29,-391 1564.29,-397 1564.29,-397 1564.29,-409 1564.29,-409 1564.29,-415 1558.29,-421 1552.29,-421 1552.29,-421 1513.79,-421 1513.79,-421 1507.79,-421 1501.79,-415 1501.79,-409 1501.79,-409 1501.79,-397 1501.79,-397 1501.79,-391 1507.79,-385 1513.79,-385"/>
<text text-anchor="middle" x="1533.04" y="-398.2" font-family="Times,serif" font-size="14.00">9:0 &#45; 9:0</text>
</g>
<!-- n23&#45;&gt;x3 -->
<g id="edge71" class="edge">
<title>n23:e&#45;&gt;x3:w</title>
<path fill="none" stroke="black" stroke-width="3" d="M1084.41,-351C1104.68,-351 1101.46,-371.81 1120.41,-379 1275.25,-437.7 1328.97,-404.81 1489.55,-403.3"/>
<polygon fill="black" stroke="black" stroke-width="3" points="1486.26,-406.82 1496.25,-403.27 1486.23,-399.82 1486.26,-406.82"/>
</g>
<!-- x5 -->
<g id="node16" class="node">
<title>x5</title>
<path fill="none" stroke="black" d="M1391.41,-555C1391.41,-555 1429.91,-555 1429.91,-555 1435.91,-555 1441.91,-561 1441.91,-567 1441.91,-567 1441.91,-579 1441.91,-579 1441.91,-585 1435.91,-591 1429.91,-591 1429.91,-591 1391.41,-591 1391.41,-591 1385.41,-591 1379.41,-585 1379.41,-579 1379.41,-579 1379.41,-567 1379.41,-567 1379.41,-561 1385.41,-555 1391.41,-555"/>
<text text-anchor="middle" x="1410.66" y="-568.2" font-family="Times,serif" font-size="14.00">8:0 &#45; 8:0</text>
</g>
<!-- n23&#45;&gt;x5 -->
<g id="edge72" class="edge">
<title>n23:e&#45;&gt;x5:w</title>
<path fill="none" stroke="black" stroke-width="3" d="M1084.41,-351C1139.67,-351 1088.07,-425.2 1120.41,-470 1190.45,-567.01 1251.01,-572.96 1367.01,-573.24"/>
<polygon fill="black" stroke="black" stroke-width="3" points="1363.87,-576.73 1373.87,-573.25 1363.88,-569.73 1363.87,-576.73"/>
</g>
<!-- c35 -->
<g id="node21" class="node">
<title>c35</title>
<polygon fill="none" stroke="black" points="1241.54,-494.5 1241.54,-543.5 1326.29,-543.5 1326.29,-494.5 1241.54,-494.5"/>
<text text-anchor="middle" x="1254.41" y="-526.2" font-family="Times,serif" font-size="14.00">A</text>
<polyline fill="none" stroke="black" points="1241.54,-519 1267.29,-519"/>
<text text-anchor="middle" x="1254.41" y="-501.7" font-family="Times,serif" font-size="14.00">B</text>
<polyline fill="none" stroke="black" points="1267.29,-494.5 1267.29,-543.5"/>
<text text-anchor="middle" x="1283.91" y="-522.2" font-family="Times,serif" font-size="14.00">$8</text>
<text text-anchor="middle" x="1283.91" y="-505.7" font-family="Times,serif" font-size="14.00">$gt</text>
<polyline fill="none" stroke="black" points="1300.54,-494.5 1300.54,-543.5"/>
<text text-anchor="middle" x="1313.41" y="-514.2" font-family="Times,serif" font-size="14.00">Y</text>
</g>
<!-- n23&#45;&gt;c35 -->
<g id="edge63" class="edge">
<title>n23:e&#45;&gt;c35:w</title>
<path fill="none" stroke="black" stroke-width="3" d="M1084.41,-351C1115.89,-351 1099.7,-388.29 1120.41,-412 1162.53,-460.21 1171.55,-501.62 1229.19,-506.31"/>
<polygon fill="black" stroke="black" stroke-width="3" points="1225.87,-509.68 1236,-506.57 1226.14,-502.69 1225.87,-509.68"/>
</g>
<!-- c38 -->
<g id="node27" class="node">
<title>c38</title>
<polygon fill="none" stroke="black" points="1120.41,-569.5 1120.41,-618.5 1202.16,-618.5 1202.16,-569.5 1120.41,-569.5"/>
<text text-anchor="middle" x="1133.29" y="-601.2" font-family="Times,serif" font-size="14.00">A</text>
<polyline fill="none" stroke="black" points="1120.41,-594 1146.16,-594"/>
<text text-anchor="middle" x="1133.29" y="-576.7" font-family="Times,serif" font-size="14.00">B</text>
<polyline fill="none" stroke="black" points="1146.16,-569.5 1146.16,-618.5"/>
<text text-anchor="middle" x="1161.29" y="-597.2" font-family="Times,serif" font-size="14.00">$7</text>
<text text-anchor="middle" x="1161.29" y="-580.7" font-family="Times,serif" font-size="14.00">$lt</text>
<polyline fill="none" stroke="black" points="1176.41,-569.5 1176.41,-618.5"/>
<text text-anchor="middle" x="1189.29" y="-589.2" font-family="Times,serif" font-size="14.00">Y</text>
</g>
<!-- n23&#45;&gt;c38 -->
<g id="edge64" class="edge">
<title>n23:e&#45;&gt;c38:w</title>
<path fill="none" stroke="black" stroke-width="3" d="M1084.41,-351C1183.95,-351 1030.23,-563.21 1108.99,-580.62"/>
<polygon fill="black" stroke="black" stroke-width="3" points="1105.6,-583.8 1115.9,-581.3 1106.29,-576.83 1105.6,-583.8"/>
</g>
<!-- c40 -->
<g id="node31" class="node">
<title>c40</title>
<polygon fill="none" stroke="black" points="4255.52,-156.5 4255.52,-205.5 4351.52,-205.5 4351.52,-156.5 4255.52,-156.5"/>
<text text-anchor="middle" x="4268.4" y="-188.2" font-family="Times,serif" font-size="14.00">A</text>
<polyline fill="none" stroke="black" points="4255.52,-181 4281.27,-181"/>
<text text-anchor="middle" x="4268.4" y="-163.7" font-family="Times,serif" font-size="14.00">B</text>
<polyline fill="none" stroke="black" points="4281.27,-156.5 4281.27,-205.5"/>
<text text-anchor="middle" x="4303.52" y="-184.2" font-family="Times,serif" font-size="14.00">$22</text>
<text text-anchor="middle" x="4303.52" y="-167.7" font-family="Times,serif" font-size="14.00">$mul</text>
<polyline fill="none" stroke="black" points="4325.77,-156.5 4325.77,-205.5"/>
<text text-anchor="middle" x="4338.65" y="-176.2" font-family="Times,serif" font-size="14.00">Y</text>
</g>
<!-- n23&#45;&gt;c40 -->
<g id="edge65" class="edge">
<title>n23:e&#45;&gt;c40:w</title>
<path fill="none" stroke="black" stroke-width="3" d="M1084.41,-351C1151.68,-351 1078.16,-256.34 1120.41,-204 1170.86,-141.52 1202.61,-125 1282.91,-125 1282.91,-125 1282.91,-125 4115.72,-125 4176.89,-125 4189.05,-163.61 4244.28,-168.29"/>
<polygon fill="black" stroke="black" stroke-width="3" points="4240.85,-171.65 4250.99,-168.56 4241.14,-164.66 4240.85,-171.65"/>
</g>
<!-- x16 -->
<g id="node35" class="node">
<title>x16</title>
<path fill="none" stroke="black" d="M1135.29,-333C1135.29,-333 1187.29,-333 1187.29,-333 1193.29,-333 1199.29,-339 1199.29,-345 1199.29,-345 1199.29,-357 1199.29,-357 1199.29,-363 1193.29,-369 1187.29,-369 1187.29,-369 1135.29,-369 1135.29,-369 1129.29,-369 1123.29,-363 1123.29,-357 1123.29,-357 1123.29,-345 1123.29,-345 1123.29,-339 1129.29,-333 1135.29,-333"/>
<text text-anchor="middle" x="1161.29" y="-346.2" font-family="Times,serif" font-size="14.00">22:0 &#45; 22:0</text>
</g>
<!-- n23&#45;&gt;x16 -->
<g id="edge67" class="edge">
<title>n23:e&#45;&gt;x16:w</title>
<path fill="none" stroke="black" stroke-width="3" d="M1084.41,-351C1096.64,-351 1102.21,-351.13 1110.8,-351.2"/>
<polygon fill="black" stroke="black" stroke-width="3" points="1107.73,-354.69 1117.75,-351.23 1107.76,-347.69 1107.73,-354.69"/>
</g>
<!-- x17 -->
<g id="node37" class="node">
<title>x17</title>
<path fill="none" stroke="black" d="M1135.29,-278C1135.29,-278 1187.29,-278 1187.29,-278 1193.29,-278 1199.29,-284 1199.29,-290 1199.29,-290 1199.29,-302 1199.29,-302 1199.29,-308 1193.29,-314 1187.29,-314 1187.29,-314 1135.29,-314 1135.29,-314 1129.29,-314 1123.29,-308 1123.29,-302 1123.29,-302 1123.29,-290 1123.29,-290 1123.29,-284 1129.29,-278 1135.29,-278"/>
<text text-anchor="middle" x="1161.29" y="-291.2" font-family="Times,serif" font-size="14.00">13:0 &#45; 13:0</text>
</g>
<!-- n23&#45;&gt;x17 -->
<g id="edge68" class="edge">
<title>n23:e&#45;&gt;x17:w</title>
<path fill="none" stroke="black" stroke-width="3" d="M1084.41,-351C1109.38,-351 1098.11,-312.02 1111.76,-299.84"/>
<polygon fill="black" stroke="black" stroke-width="3" points="1109.66,-304.26 1117.99,-297.72 1107.4,-297.63 1109.66,-304.26"/>
</g>
<!-- c43 -->
<g id="node38" class="node">
<title>c43</title>
<polygon fill="none" stroke="black" points="1238.16,-236.5 1238.16,-277.5 1329.66,-277.5 1329.66,-236.5 1238.16,-236.5"/>
<text text-anchor="middle" x="1251.04" y="-252.2" font-family="Times,serif" font-size="14.00">A</text>
<polyline fill="none" stroke="black" points="1263.91,-236.5 1263.91,-277.5"/>
<text text-anchor="middle" x="1283.91" y="-260.2" font-family="Times,serif" font-size="14.00">$18</text>
<text text-anchor="middle" x="1283.91" y="-243.7" font-family="Times,serif" font-size="14.00">$not</text>
<polyline fill="none" stroke="black" points="1303.91,-236.5 1303.91,-277.5"/>
<text text-anchor="middle" x="1316.79" y="-252.2" font-family="Times,serif" font-size="14.00">Y</text>
</g>
<!-- n23&#45;&gt;c43 -->
<g id="edge66" class="edge">
<title>n23:e&#45;&gt;c43:w</title>
<path fill="none" stroke="black" stroke-width="3" d="M1084.41,-351C1124.62,-351 1087.84,-291.57 1120.41,-268 1159.83,-239.48 1182.14,-254.55 1226.94,-256.95"/>
<polygon fill="black" stroke="black" stroke-width="3" points="1223.53,-260.36 1233.62,-257.13 1223.72,-253.36 1223.53,-260.36"/>
</g>
<!-- x22 -->
<g id="node46" class="node">
<title>x22</title>
<path fill="none" stroke="black" d="M1622.41,-192C1622.41,-192 1674.41,-192 1674.41,-192 1680.41,-192 1686.41,-198 1686.41,-204 1686.41,-204 1686.41,-216 1686.41,-216 1686.41,-222 1680.41,-228 1674.41,-228 1674.41,-228 1622.41,-228 1622.41,-228 1616.41,-228 1610.41,-222 1610.41,-216 1610.41,-216 1610.41,-204 1610.41,-204 1610.41,-198 1616.41,-192 1622.41,-192"/>
<text text-anchor="middle" x="1648.41" y="-205.2" font-family="Times,serif" font-size="14.00">24:19 &#45; 5:0</text>
</g>
<!-- n23&#45;&gt;x22 -->
<g id="edge69" class="edge">
<title>n23:e&#45;&gt;x22:w</title>
<path fill="none" stroke="black" stroke-width="3" d="M1084.41,-351C1133.33,-351 1084.18,-279.86 1120.41,-247 1175.43,-197.11 1208.64,-208 1282.91,-208 1282.91,-208 1282.91,-208 1411.66,-208 1496.21,-208 1520.06,-210.06 1599.38,-210.24"/>
<polygon fill="black" stroke="black" stroke-width="3" points="1595.87,-213.73 1605.87,-210.24 1595.88,-206.73 1595.87,-213.73"/>
</g>
<!-- x24 -->
<g id="node49" class="node">
<title>x24</title>
<path fill="none" stroke="black" d="M1737.79,-60C1737.79,-60 1789.79,-60 1789.79,-60 1795.79,-60 1801.79,-66 1801.79,-72 1801.79,-72 1801.79,-84 1801.79,-84 1801.79,-90 1795.79,-96 1789.79,-96 1789.79,-96 1737.79,-96 1737.79,-96 1731.79,-96 1725.79,-90 1725.79,-84 1725.79,-84 1725.79,-72 1725.79,-72 1725.79,-66 1731.79,-60 1737.79,-60"/>
<text text-anchor="middle" x="1763.79" y="-73.2" font-family="Times,serif" font-size="14.00">12:0 &#45; 12:0</text>
</g>
<!-- n23&#45;&gt;x24 -->
<g id="edge70" class="edge">
<title>n23:e&#45;&gt;x24:w</title>
<path fill="none" stroke="black" stroke-width="3" d="M1084.41,-351C1138.34,-351 1082.7,-149.55 1120.41,-111 1171.67,-58.62 1209.63,-83 1282.91,-83 1282.91,-83 1282.91,-83 1534.04,-83 1615.03,-83 1637.96,-78.67 1713.73,-78.28"/>
<polygon fill="black" stroke="black" stroke-width="3" points="1710.26,-81.79 1720.25,-78.26 1710.24,-74.79 1710.26,-81.79"/>
</g>
<!-- n24 -->
<g id="node4" class="node">
<title>n24</title>
<polygon fill="none" stroke="black" points="3682.94,-200 3627.69,-182 3682.94,-164 3738.19,-182 3682.94,-200"/>
<text text-anchor="middle" x="3682.94" y="-176.95" font-family="Times,serif" font-size="14.00">temp_1</text>
</g>
<!-- c33 -->
<g id="node15" class="node">
<title>c33</title>
<polygon fill="none" stroke="black" points="3822.31,-169.5 3822.31,-218.5 3916.81,-218.5 3916.81,-169.5 3822.31,-169.5"/>
<text text-anchor="middle" x="3835.18" y="-201.2" font-family="Times,serif" font-size="14.00">A</text>
<polyline fill="none" stroke="black" points="3822.31,-194 3848.06,-194"/>
<text text-anchor="middle" x="3835.18" y="-176.7" font-family="Times,serif" font-size="14.00">B</text>
<polyline fill="none" stroke="black" points="3848.06,-169.5 3848.06,-218.5"/>
<text text-anchor="middle" x="3869.56" y="-197.2" font-family="Times,serif" font-size="14.00">$168</text>
<text text-anchor="middle" x="3869.56" y="-180.7" font-family="Times,serif" font-size="14.00">$and</text>
<polyline fill="none" stroke="black" points="3891.06,-169.5 3891.06,-218.5"/>
<text text-anchor="middle" x="3903.93" y="-189.2" font-family="Times,serif" font-size="14.00">Y</text>
</g>
<!-- n24&#45;&gt;c33 -->
<g id="edge74" class="edge">
<title>n24:e&#45;&gt;c33:w</title>
<path fill="none" stroke="black" stroke-width="3" d="M3738.19,-182C3771.09,-182 3782.01,-181.8 3810.11,-181.76"/>
<polygon fill="black" stroke="black" stroke-width="3" points="3806.77,-185.26 3816.77,-181.75 3806.76,-178.26 3806.77,-185.26"/>
</g>
<!-- n25 -->
<g id="node5" class="node">
<title>n25</title>
<polygon fill="none" stroke="black" points="5561.66,-87 5506.41,-69 5561.66,-51 5616.91,-69 5561.66,-87"/>
<text text-anchor="middle" x="5561.66" y="-63.95" font-family="Times,serif" font-size="14.00">temp_2</text>
</g>
<!-- v0 -->
<g id="node6" class="node">
<title>v0</title>
<ellipse fill="none" stroke="black" cx="680.55" cy="-406" rx="127.61" ry="18"/>
<text text-anchor="middle" x="680.55" y="-400.95" font-family="Times,serif" font-size="14.00">23&#39;10000001001101001010001</text>
</g>
<!-- c29 -->
<g id="node7" class="node">
<title>c29</title>
<polygon fill="none" stroke="black" points="844.16,-347.5 844.16,-396.5 937.91,-396.5 937.91,-347.5 844.16,-347.5"/>
<text text-anchor="middle" x="857.04" y="-379.2" font-family="Times,serif" font-size="14.00">A</text>
<polyline fill="none" stroke="black" points="844.16,-372 869.91,-372"/>
<text text-anchor="middle" x="857.04" y="-354.7" font-family="Times,serif" font-size="14.00">B</text>
<polyline fill="none" stroke="black" points="869.91,-347.5 869.91,-396.5"/>
<text text-anchor="middle" x="891.04" y="-375.2" font-family="Times,serif" font-size="14.00">$5</text>
<text text-anchor="middle" x="891.04" y="-358.7" font-family="Times,serif" font-size="14.00">$add</text>
<polyline fill="none" stroke="black" points="912.16,-347.5 912.16,-396.5"/>
<text text-anchor="middle" x="925.04" y="-367.2" font-family="Times,serif" font-size="14.00">Y</text>
</g>
<!-- v0&#45;&gt;c29 -->
<g id="edge90" class="edge">
<title>v0:e&#45;&gt;c29:w</title>
<path fill="none" stroke="black" stroke-width="3" d="M808.16,-406C822.18,-406 824.91,-393.77 833.28,-387.65"/>
<polygon fill="black" stroke="black" stroke-width="3" points="831.33,-391.93 839.83,-385.6 829.24,-385.24 831.33,-391.93"/>
</g>
<!-- c29&#45;&gt;n23 -->
<g id="edge62" class="edge">
<title>c29:e&#45;&gt;n23:w</title>
<path fill="none" stroke="black" stroke-width="3" d="M937.91,-372.25C951.85,-372.25 954.68,-360.3 963.06,-354.32"/>
<polygon fill="black" stroke="black" stroke-width="3" points="961.03,-358.6 969.57,-352.33 958.98,-351.91 961.03,-358.6"/>
</g>
<!-- x1 -->
<g id="node8" class="node">
<title>x1</title>
<path fill="none" stroke="black" d="M299.09,-349.5C299.09,-349.5 342.09,-349.5 342.09,-349.5 348.09,-349.5 354.09,-355.5 354.09,-361.5 354.09,-361.5 354.09,-386.5 354.09,-386.5 354.09,-392.5 348.09,-398.5 342.09,-398.5 342.09,-398.5 299.09,-398.5 299.09,-398.5 293.09,-398.5 287.09,-392.5 287.09,-386.5 287.09,-386.5 287.09,-361.5 287.09,-361.5 287.09,-355.5 293.09,-349.5 299.09,-349.5"/>
<text text-anchor="middle" x="320.59" y="-381.2" font-family="Times,serif" font-size="14.00">1 &#45;&gt; 24:6</text>
<polyline fill="none" stroke="black" points="287.09,-374 354.09,-374"/>
<text text-anchor="middle" x="320.59" y="-356.7" font-family="Times,serif" font-size="14.00">5:0 &#45; 5:0</text>
</g>
<!-- x1&#45;&gt;c29 -->
<g id="edge1" class="edge">
<title>x1:e&#45;&gt;c29:w</title>
<path fill="none" stroke="black" stroke-width="3" d="M367.96,-373.98C570.54,-373.45 628.69,-360.31 831.25,-359.77"/>
<polygon fill="none" stroke="black" stroke-width="3" points="369.8,-373.98 363.8,-377.99 357.8,-374 363.79,-369.99 369.8,-373.98"/>
<polygon fill="none" stroke="black" stroke-width="3" points="829.46,-359.77 835.45,-355.76 841.46,-359.75 835.46,-363.76 829.46,-359.77"/>
</g>
<!-- c30&#45;&gt;x1 -->
<g id="edge50" class="edge">
<title>c30:e&#45;&gt;x1:w</title>
<path fill="none" stroke="black" stroke-width="3" d="M239.84,-376.25C257.01,-376.25 262.5,-367.04 274.93,-363.3"/>
<polygon fill="black" stroke="black" stroke-width="3" points="272.17,-367.22 281.59,-362.38 271.21,-360.29 272.17,-367.22"/>
</g>
<!-- c31 -->
<g id="node10" class="node">
<title>c31</title>
<polygon fill="none" stroke="black" points="2096.16,-413.5 2096.16,-462.5 2190.66,-462.5 2190.66,-413.5 2096.16,-413.5"/>
<text text-anchor="middle" x="2109.04" y="-445.2" font-family="Times,serif" font-size="14.00">A</text>
<polyline fill="none" stroke="black" points="2096.16,-438 2121.91,-438"/>
<text text-anchor="middle" x="2109.04" y="-420.7" font-family="Times,serif" font-size="14.00">B</text>
<polyline fill="none" stroke="black" points="2121.91,-413.5 2121.91,-462.5"/>
<text text-anchor="middle" x="2143.41" y="-441.2" font-family="Times,serif" font-size="14.00">$162</text>
<text text-anchor="middle" x="2143.41" y="-424.7" font-family="Times,serif" font-size="14.00">$or</text>
<polyline fill="none" stroke="black" points="2164.91,-413.5 2164.91,-462.5"/>
<text text-anchor="middle" x="2177.79" y="-433.2" font-family="Times,serif" font-size="14.00">Y</text>
</g>
<!-- x9 -->
<g id="node23" class="node">
<title>x9</title>
<path fill="none" stroke="black" d="M2238.66,-425.5C2238.66,-425.5 2297.41,-425.5 2297.41,-425.5 2303.41,-425.5 2309.41,-431.5 2309.41,-437.5 2309.41,-437.5 2309.41,-462.5 2309.41,-462.5 2309.41,-468.5 2303.41,-474.5 2297.41,-474.5 2297.41,-474.5 2238.66,-474.5 2238.66,-474.5 2232.66,-474.5 2226.66,-468.5 2226.66,-462.5 2226.66,-462.5 2226.66,-437.5 2226.66,-437.5 2226.66,-431.5 2232.66,-425.5 2238.66,-425.5"/>
<text text-anchor="middle" x="2268.04" y="-457.2" font-family="Times,serif" font-size="14.00">12:0 &#45; 22:10</text>
<polyline fill="none" stroke="black" points="2226.66,-450 2309.41,-450"/>
<text text-anchor="middle" x="2268.04" y="-432.7" font-family="Times,serif" font-size="14.00">9:0 &#45; 9:0</text>
</g>
<!-- c31&#45;&gt;x9 -->
<g id="edge77" class="edge">
<title>c31:e&#45;&gt;x9:w</title>
<path fill="none" stroke="black" stroke-width="3" d="M2190.66,-438.25C2202.04,-438.25 2207.35,-438 2215.22,-437.85"/>
<polygon fill="black" stroke="black" stroke-width="3" points="2212.15,-441.38 2222.12,-437.79 2212.09,-434.38 2212.15,-441.38"/>
</g>
<!-- x2 -->
<g id="node11" class="node">
<title>x2</title>
<path fill="none" stroke="black" d="M1995.16,-433C1995.16,-433 2033.66,-433 2033.66,-433 2039.66,-433 2045.66,-439 2045.66,-445 2045.66,-445 2045.66,-457 2045.66,-457 2045.66,-463 2039.66,-469 2033.66,-469 2033.66,-469 1995.16,-469 1995.16,-469 1989.16,-469 1983.16,-463 1983.16,-457 1983.16,-457 1983.16,-445 1983.16,-445 1983.16,-439 1989.16,-433 1995.16,-433"/>
<text text-anchor="middle" x="2014.41" y="-446.2" font-family="Times,serif" font-size="14.00">9:0 &#45; 9:0</text>
</g>
<!-- x2&#45;&gt;c31 -->
<g id="edge2" class="edge">
<title>x2:e&#45;&gt;c31:w</title>
<path fill="none" stroke="black" stroke-width="3" d="M2059.46,-450.9C2068.28,-450.76 2074.43,-450.49 2083.22,-450.35"/>
<polygon fill="none" stroke="black" stroke-width="3" points="2061.37,-450.89 2055.4,-454.93 2049.37,-450.98 2055.34,-446.93 2061.37,-450.89"/>
<polygon fill="none" stroke="black" stroke-width="3" points="2081.46,-450.36 2087.43,-446.32 2093.46,-450.27 2087.49,-454.32 2081.46,-450.36"/>
</g>
<!-- x3&#45;&gt;c31 -->
<g id="edge3" class="edge">
<title>x3:e&#45;&gt;c31:w</title>
<path fill="none" stroke="black" stroke-width="3" d="M1578.17,-403.01C1655.47,-403.1 1679.47,-404 1762.79,-404 1762.79,-404 1762.79,-404 1887.91,-404 1930.63,-404 2031.2,-422.33 2083.4,-425.33"/>
<polygon fill="none" stroke="black" stroke-width="3" points="1579.99,-403.01 1573.99,-407.01 1567.99,-403 1574,-399.01 1579.99,-403.01"/>
<polygon fill="none" stroke="black" stroke-width="3" points="2081.47,-425.27 2087.59,-421.47 2093.46,-425.66 2087.33,-429.46 2081.47,-425.27"/>
</g>
<!-- c32 -->
<g id="node13" class="node">
<title>c32</title>
<polygon fill="none" stroke="black" points="3258.44,-216.5 3258.44,-265.5 3352.94,-265.5 3352.94,-216.5 3258.44,-216.5"/>
<text text-anchor="middle" x="3271.31" y="-248.2" font-family="Times,serif" font-size="14.00">A</text>
<polyline fill="none" stroke="black" points="3258.44,-241 3284.19,-241"/>
<text text-anchor="middle" x="3271.31" y="-223.7" font-family="Times,serif" font-size="14.00">B</text>
<polyline fill="none" stroke="black" points="3284.19,-216.5 3284.19,-265.5"/>
<text text-anchor="middle" x="3305.69" y="-244.2" font-family="Times,serif" font-size="14.00">$165</text>
<text text-anchor="middle" x="3305.69" y="-227.7" font-family="Times,serif" font-size="14.00">$xor</text>
<polyline fill="none" stroke="black" points="3327.19,-216.5 3327.19,-265.5"/>
<text text-anchor="middle" x="3340.06" y="-236.2" font-family="Times,serif" font-size="14.00">Y</text>
</g>
<!-- x21 -->
<g id="node45" class="node">
<title>x21</title>
<path fill="none" stroke="black" d="M3400.94,-228.5C3400.94,-228.5 3452.94,-228.5 3452.94,-228.5 3458.94,-228.5 3464.94,-234.5 3464.94,-240.5 3464.94,-240.5 3464.94,-265.5 3464.94,-265.5 3464.94,-271.5 3458.94,-277.5 3452.94,-277.5 3452.94,-277.5 3400.94,-277.5 3400.94,-277.5 3394.94,-277.5 3388.94,-271.5 3388.94,-265.5 3388.94,-265.5 3388.94,-240.5 3388.94,-240.5 3388.94,-234.5 3394.94,-228.5 3400.94,-228.5"/>
<text text-anchor="middle" x="3426.94" y="-260.2" font-family="Times,serif" font-size="14.00">23:0 &#45; 24:1</text>
<polyline fill="none" stroke="black" points="3388.94,-253 3464.94,-253"/>
<text text-anchor="middle" x="3426.94" y="-235.7" font-family="Times,serif" font-size="14.00">0:0 &#45; 0:0</text>
</g>
<!-- c32&#45;&gt;x21 -->
<g id="edge81" class="edge">
<title>c32:e&#45;&gt;x21:w</title>
<path fill="none" stroke="black" d="M3352.94,-241.25C3364.31,-241.25 3369.62,-241 3377.49,-240.85"/>
<polygon fill="black" stroke="black" points="3377.46,-244.35 3387.43,-240.76 3377.39,-237.35 3377.46,-244.35"/>
</g>
<!-- x4 -->
<g id="node14" class="node">
<title>x4</title>
<path fill="none" stroke="black" d="M3159.31,-192C3159.31,-192 3197.81,-192 3197.81,-192 3203.81,-192 3209.81,-198 3209.81,-204 3209.81,-204 3209.81,-216 3209.81,-216 3209.81,-222 3203.81,-228 3197.81,-228 3197.81,-228 3159.31,-228 3159.31,-228 3153.31,-228 3147.31,-222 3147.31,-216 3147.31,-216 3147.31,-204 3147.31,-204 3147.31,-198 3153.31,-192 3159.31,-192"/>
<text text-anchor="middle" x="3178.56" y="-205.2" font-family="Times,serif" font-size="14.00">0:0 &#45; 0:0</text>
</g>
<!-- x4&#45;&gt;c32 -->
<g id="edge4" class="edge">
<title>x4:e&#45;&gt;c32:w</title>
<path fill="none" stroke="black" d="M3223.58,-212.45C3232.11,-216.06 3237.24,-222.78 3245.81,-226.36"/>
<polygon fill="none" stroke="black" points="3223.48,-212.43 3216.84,-215.23 3211.7,-210.17 3218.35,-207.37 3223.48,-212.43"/>
<polygon fill="none" stroke="black" points="3245.76,-226.35 3252.4,-223.54 3257.55,-228.58 3250.91,-231.4 3245.76,-226.35"/>
</g>
<!-- x6 -->
<g id="node17" class="node">
<title>x6</title>
<path fill="none" stroke="black" d="M4019.67,-176C4019.67,-176 4058.17,-176 4058.17,-176 4064.17,-176 4070.17,-182 4070.17,-188 4070.17,-188 4070.17,-200 4070.17,-200 4070.17,-206 4064.17,-212 4058.17,-212 4058.17,-212 4019.67,-212 4019.67,-212 4013.67,-212 4007.67,-206 4007.67,-200 4007.67,-200 4007.67,-188 4007.67,-188 4007.67,-182 4013.67,-176 4019.67,-176"/>
<text text-anchor="middle" x="4038.92" y="-189.2" font-family="Times,serif" font-size="14.00">8:0 &#45; 8:0</text>
</g>
<!-- c33&#45;&gt;x6 -->
<g id="edge6" class="edge">
<title>c33:e&#45;&gt;x6:w</title>
<path fill="none" stroke="black" stroke-width="3" d="M3930.57,-194.24C3956.11,-194.2 3968.36,-194.05 3993.91,-194.01"/>
<polygon fill="none" stroke="black" stroke-width="3" points="3932.51,-194.24 3926.51,-198.24 3920.51,-194.25 3926.51,-190.24 3932.51,-194.24"/>
<polygon fill="none" stroke="black" stroke-width="3" points="3991.97,-194.01 3997.97,-190.01 4003.97,-194 3997.97,-198.01 3991.97,-194.01"/>
</g>
<!-- x5&#45;&gt;c33 -->
<g id="edge5" class="edge">
<title>x5:e&#45;&gt;c33:w</title>
<path fill="none" stroke="black" stroke-width="3" d="M1455.76,-573.01C1536.18,-573.1 1560.96,-574 1647.41,-574 1647.41,-574 1647.41,-574 3547.31,-574 3746.66,-574 3623.2,-222.23 3808.35,-206.77"/>
<polygon fill="none" stroke="black" stroke-width="3" points="1457.62,-573.01 1451.62,-577 1445.62,-573 1451.62,-569 1457.62,-573.01"/>
<polygon fill="none" stroke="black" stroke-width="3" points="3806.61,-206.85 3812.45,-202.61 3818.6,-206.36 3812.77,-210.6 3806.61,-206.85"/>
</g>
<!-- n1 -->
<g id="node64" class="node">
<title>n1</title>
<ellipse fill="black" stroke="black" cx="4114.72" cy="-194" rx="1.8" ry="1.8"/>
</g>
<!-- x6&#45;&gt;n1 -->
<g id="edge27" class="edge">
<title>x6:e&#45;&gt;n1:w</title>
<path fill="none" stroke="black" stroke-width="3" d="M4071.17,-194.25C4085.24,-194.25 4091.3,-194.11 4101.5,-194.04"/>
<polygon fill="black" stroke="black" stroke-width="3" points="4098.39,-197.55 4108.38,-194.01 4098.37,-190.55 4098.39,-197.55"/>
</g>
<!-- v8 -->
<g id="node18" class="node">
<title>v8</title>
<ellipse fill="none" stroke="black" cx="2946.28" cy="-410" rx="53.91" ry="18"/>
<text text-anchor="middle" x="2946.28" y="-404.95" font-family="Times,serif" font-size="14.00">8&#39;10111000</text>
</g>
<!-- x7 -->
<g id="node20" class="node">
<title>x7</title>
<path fill="none" stroke="black" d="M3048.19,-336.5C3048.19,-336.5 3086.69,-336.5 3086.69,-336.5 3092.69,-336.5 3098.69,-342.5 3098.69,-348.5 3098.69,-348.5 3098.69,-373.5 3098.69,-373.5 3098.69,-379.5 3092.69,-385.5 3086.69,-385.5 3086.69,-385.5 3048.19,-385.5 3048.19,-385.5 3042.19,-385.5 3036.19,-379.5 3036.19,-373.5 3036.19,-373.5 3036.19,-348.5 3036.19,-348.5 3036.19,-342.5 3042.19,-336.5 3048.19,-336.5"/>
<text text-anchor="middle" x="3067.44" y="-368.2" font-family="Times,serif" font-size="14.00">7:0 &#45; 8:1</text>
<polyline fill="none" stroke="black" points="3036.19,-361 3098.69,-361"/>
<text text-anchor="middle" x="3067.44" y="-343.7" font-family="Times,serif" font-size="14.00">0:0 &#45; 0:0</text>
</g>
<!-- v8&#45;&gt;x7 -->
<g id="edge95" class="edge">
<title>v8:e&#45;&gt;x7:w</title>
<path fill="none" stroke="black" stroke-width="3" d="M3000.19,-410C3018.41,-410 3015.93,-386.66 3025.74,-377.18"/>
<polygon fill="black" stroke="black" stroke-width="3" points="3023.81,-381.65 3031.94,-374.85 3021.35,-375.1 3023.81,-381.65"/>
</g>
<!-- c34&#45;&gt;c32 -->
<g id="edge85" class="edge">
<title>c34:e&#45;&gt;c32:w</title>
<path fill="none" stroke="black" d="M3222.44,-272.25C3235.87,-272.25 3239.23,-261.78 3247.46,-256.39"/>
<polygon fill="black" stroke="black" points="3248.33,-259.78 3256.98,-253.67 3246.41,-253.05 3248.33,-259.78"/>
</g>
<!-- x7&#45;&gt;c34 -->
<g id="edge7" class="edge">
<title>x7:e&#45;&gt;c34:w</title>
<path fill="none" stroke="black" stroke-width="3" d="M3110.88,-356.43C3123.72,-342.75 3109.62,-302.23 3122.61,-288.7"/>
<polygon fill="none" stroke="black" stroke-width="3" points="3112.46,-355.84 3108.24,-361.69 3101.22,-360.05 3105.43,-354.2 3112.46,-355.84"/>
<polygon fill="none" stroke="black" stroke-width="3" points="3120.89,-289.34 3125.14,-283.51 3132.15,-285.19 3127.91,-291.01 3120.89,-289.34"/>
</g>
<!-- c35&#45;&gt;c45 -->
<g id="edge86" class="edge">
<title>c35:e&#45;&gt;c45:w</title>
<path fill="none" stroke="black" d="M1327.29,-519.25C1343.99,-519.25 1344.97,-501.55 1354.79,-493.81"/>
<polygon fill="black" stroke="black" points="1355.81,-497.16 1364.23,-490.72 1353.63,-490.5 1355.81,-497.16"/>
</g>
<!-- c36 -->
<g id="node22" class="node">
<title>c36</title>
<polygon fill="none" stroke="black" points="2355.45,-400.5 2355.45,-449.5 2443.2,-449.5 2443.2,-400.5 2355.45,-400.5"/>
<text text-anchor="middle" x="2368.32" y="-432.2" font-family="Times,serif" font-size="14.00">A</text>
<polyline fill="none" stroke="black" points="2355.45,-425 2381.2,-425"/>
<text text-anchor="middle" x="2368.32" y="-407.7" font-family="Times,serif" font-size="14.00">B</text>
<polyline fill="none" stroke="black" points="2381.2,-400.5 2381.2,-449.5"/>
<text text-anchor="middle" x="2399.32" y="-428.2" font-family="Times,serif" font-size="14.00">$12</text>
<text text-anchor="middle" x="2399.32" y="-411.7" font-family="Times,serif" font-size="14.00">$lt</text>
<polyline fill="none" stroke="black" points="2417.45,-400.5 2417.45,-449.5"/>
<text text-anchor="middle" x="2430.32" y="-420.2" font-family="Times,serif" font-size="14.00">Y</text>
</g>
<!-- x10 -->
<g id="node24" class="node">
<title>x10</title>
<path fill="none" stroke="black" d="M2501.23,-407C2501.23,-407 2539.73,-407 2539.73,-407 2545.73,-407 2551.73,-413 2551.73,-419 2551.73,-419 2551.73,-431 2551.73,-431 2551.73,-437 2545.73,-443 2539.73,-443 2539.73,-443 2501.23,-443 2501.23,-443 2495.23,-443 2489.23,-437 2489.23,-431 2489.23,-431 2489.23,-419 2489.23,-419 2489.23,-413 2495.23,-407 2501.23,-407"/>
<text text-anchor="middle" x="2520.48" y="-420.2" font-family="Times,serif" font-size="14.00">0:0 &#45; 0:0</text>
</g>
<!-- c36&#45;&gt;x10 -->
<g id="edge9" class="edge">
<title>c36:e&#45;&gt;x10:w</title>
<path fill="none" stroke="black" d="M2457.2,-425.21C2464.15,-425.16 2469.38,-425.09 2476.35,-425.04"/>
<polygon fill="none" stroke="black" points="2457.1,-425.21 2451.11,-429.23 2445.1,-425.25 2451.09,-421.23 2457.1,-425.21"/>
<polygon fill="none" stroke="black" points="2476.33,-425.04 2482.32,-421.02 2488.33,-425 2482.35,-429.02 2476.33,-425.04"/>
</g>
<!-- x9&#45;&gt;c36 -->
<g id="edge8" class="edge">
<title>x9:e&#45;&gt;c36:w</title>
<path fill="none" stroke="black" stroke-width="3" d="M2322.3,-448.01C2329.5,-445.6 2334.5,-441.57 2341.73,-439.19"/>
<polygon fill="none" stroke="black" stroke-width="3" points="2323.95,-447.75 2318.63,-452.62 2312.09,-449.59 2317.4,-444.72 2323.95,-447.75"/>
<polygon fill="none" stroke="black" stroke-width="3" points="2339.91,-439.46 2345.24,-434.61 2351.78,-437.66 2346.45,-442.51 2339.91,-439.46"/>
</g>
<!-- n9 -->
<g id="node73" class="node">
<title>n9</title>
<ellipse fill="black" stroke="black" cx="2589.53" cy="-380" rx="1.8" ry="1.8"/>
</g>
<!-- x10&#45;&gt;n9 -->
<g id="edge87" class="edge">
<title>x10:e&#45;&gt;n9:w</title>
<path fill="none" stroke="black" d="M2551.73,-425.25C2572.62,-425.25 2566.36,-395.38 2577.07,-384.18"/>
<polygon fill="black" stroke="black" points="2578.29,-387.46 2586.33,-380.55 2575.74,-380.94 2578.29,-387.46"/>
</g>
<!-- v11 -->
<g id="node25" class="node">
<title>v11</title>
<ellipse fill="none" stroke="black" cx="2797.85" cy="-285" rx="58.52" ry="18"/>
<text text-anchor="middle" x="2797.85" y="-279.95" font-family="Times,serif" font-size="14.00">9&#39;110100000</text>
</g>
<!-- c37 -->
<g id="node26" class="node">
<title>c37</title>
<polygon fill="none" stroke="black" points="2902.4,-324.5 2902.4,-373.5 2990.15,-373.5 2990.15,-324.5 2902.4,-324.5"/>
<text text-anchor="middle" x="2915.28" y="-356.2" font-family="Times,serif" font-size="14.00">A</text>
<polyline fill="none" stroke="black" points="2902.4,-349 2928.15,-349"/>
<text text-anchor="middle" x="2915.28" y="-331.7" font-family="Times,serif" font-size="14.00">B</text>
<polyline fill="none" stroke="black" points="2928.15,-324.5 2928.15,-373.5"/>
<text text-anchor="middle" x="2946.28" y="-352.2" font-family="Times,serif" font-size="14.00">$15</text>
<text text-anchor="middle" x="2946.28" y="-335.7" font-family="Times,serif" font-size="14.00">$lt</text>
<polyline fill="none" stroke="black" points="2964.4,-324.5 2964.4,-373.5"/>
<text text-anchor="middle" x="2977.28" y="-344.2" font-family="Times,serif" font-size="14.00">Y</text>
</g>
<!-- v11&#45;&gt;c37 -->
<g id="edge91" class="edge">
<title>v11:e&#45;&gt;c37:w</title>
<path fill="none" stroke="black" stroke-width="3" d="M2856.37,-285C2882.33,-285 2874.62,-322.53 2890.59,-333.67"/>
<polygon fill="black" stroke="black" stroke-width="3" points="2886.46,-336.13 2897.04,-335.51 2888.38,-329.4 2886.46,-336.13"/>
</g>
<!-- c37&#45;&gt;x7 -->
<g id="edge29" class="edge">
<title>c37:e&#45;&gt;x7:w</title>
<path fill="none" stroke="black" d="M2991.15,-349.25C3006.79,-349.25 3013.27,-348.94 3024.89,-348.81"/>
<polygon fill="black" stroke="black" points="3024.69,-352.31 3034.68,-348.76 3024.66,-345.31 3024.69,-352.31"/>
</g>
<!-- c38&#45;&gt;c35 -->
<g id="edge30" class="edge">
<title>c38:e&#45;&gt;c35:w</title>
<path fill="none" stroke="black" d="M1202.16,-594.25C1230.34,-594.25 1214.22,-547.72 1229.93,-534.64"/>
<polygon fill="black" stroke="black" points="1230.64,-538.09 1239.1,-531.71 1228.51,-531.42 1230.64,-538.09"/>
</g>
<!-- x12 -->
<g id="node28" class="node">
<title>x12</title>
<path fill="none" stroke="black" d="M996.41,-560.5C996.41,-560.5 1061.91,-560.5 1061.91,-560.5 1067.91,-560.5 1073.91,-566.5 1073.91,-572.5 1073.91,-572.5 1073.91,-597.5 1073.91,-597.5 1073.91,-603.5 1067.91,-609.5 1061.91,-609.5 1061.91,-609.5 996.41,-609.5 996.41,-609.5 990.41,-609.5 984.41,-603.5 984.41,-597.5 984.41,-597.5 984.41,-572.5 984.41,-572.5 984.41,-566.5 990.41,-560.5 996.41,-560.5"/>
<text text-anchor="middle" x="1029.16" y="-592.2" font-family="Times,serif" font-size="14.00">11:11 &#45; 11:11</text>
<polyline fill="none" stroke="black" points="984.41,-585 1073.91,-585"/>
<text text-anchor="middle" x="1029.16" y="-567.7" font-family="Times,serif" font-size="14.00">10:0 &#45; 10:0</text>
</g>
<!-- x12&#45;&gt;c38 -->
<g id="edge10" class="edge">
<title>x12:e&#45;&gt;c38:w</title>
<path fill="none" stroke="black" stroke-width="3" d="M1087.62,-587.95C1095.4,-592.01 1099.96,-599.27 1107.75,-603.32"/>
<polygon fill="none" stroke="black" stroke-width="3" points="1089.24,-588.33 1082.49,-590.87 1077.55,-585.61 1084.3,-583.07 1089.24,-588.33"/>
<polygon fill="none" stroke="black" stroke-width="3" points="1106.09,-602.94 1112.84,-600.39 1117.78,-605.64 1111.03,-608.18 1106.09,-602.94"/>
</g>
<!-- x13 -->
<g id="node30" class="node">
<title>x13</title>
<path fill="none" stroke="black" d="M287.84,-541.5C287.84,-541.5 353.34,-541.5 353.34,-541.5 359.34,-541.5 365.34,-547.5 365.34,-553.5 365.34,-553.5 365.34,-578.5 365.34,-578.5 365.34,-584.5 359.34,-590.5 353.34,-590.5 353.34,-590.5 287.84,-590.5 287.84,-590.5 281.84,-590.5 275.84,-584.5 275.84,-578.5 275.84,-578.5 275.84,-553.5 275.84,-553.5 275.84,-547.5 281.84,-541.5 287.84,-541.5"/>
<text text-anchor="middle" x="320.59" y="-573.2" font-family="Times,serif" font-size="14.00">11:11 &#45; 11:11</text>
<polyline fill="none" stroke="black" points="275.84,-566 365.34,-566"/>
<text text-anchor="middle" x="320.59" y="-548.7" font-family="Times,serif" font-size="14.00">10:0 &#45; 10:0</text>
</g>
<!-- c39&#45;&gt;x13 -->
<g id="edge11" class="edge">
<title>c39:e&#45;&gt;x13:w</title>
<path fill="none" stroke="black" stroke-width="3" d="M251.57,-532.64C257.55,-540.12 258.22,-553.58 264.35,-560.9"/>
<polygon fill="none" stroke="black" stroke-width="3" points="253.2,-533.39 246.08,-534.52 242.3,-528.38 249.42,-527.25 253.2,-533.39"/>
<polygon fill="none" stroke="black" stroke-width="3" points="262.4,-560.04 269.51,-558.81 273.37,-564.9 266.26,-566.13 262.4,-560.04"/>
</g>
<!-- n12 -->
<g id="node65" class="node">
<title>n12</title>
<ellipse fill="black" stroke="black" cx="403.14" cy="-554" rx="1.8" ry="1.8"/>
</g>
<!-- x13&#45;&gt;n12 -->
<g id="edge31" class="edge">
<title>x13:e&#45;&gt;n12:w</title>
<path fill="none" stroke="black" stroke-width="3" d="M365.34,-553.75C376.72,-553.75 382.03,-553.88 389.89,-553.95"/>
<polygon fill="black" stroke="black" stroke-width="3" points="386.78,-557.44 396.8,-553.98 386.82,-550.44 386.78,-557.44"/>
</g>
<!-- n16 -->
<g id="node67" class="node">
<title>n16</title>
<ellipse fill="black" stroke="black" cx="891.04" cy="-597" rx="1.8" ry="1.8"/>
</g>
<!-- x13&#45;&gt;n16 -->
<g id="edge39" class="edge">
<title>x13:e&#45;&gt;n16:w</title>
<path fill="none" stroke="black" d="M365.34,-578.25C403.51,-578.25 403.93,-609.66 440.94,-619 599.19,-658.93 646.43,-640.94 808.16,-619 840.41,-614.63 849.2,-600.71 876.36,-597.61"/>
<polygon fill="black" stroke="black" points="876.45,-601.11 886.25,-597.08 876.07,-594.13 876.45,-601.11"/>
</g>
<!-- x15 -->
<g id="node33" class="node">
<title>x15</title>
<path fill="none" stroke="black" d="M4399.52,-156.5C4399.52,-156.5 4451.52,-156.5 4451.52,-156.5 4457.52,-156.5 4463.52,-162.5 4463.52,-168.5 4463.52,-168.5 4463.52,-193.5 4463.52,-193.5 4463.52,-199.5 4457.52,-205.5 4451.52,-205.5 4451.52,-205.5 4399.52,-205.5 4399.52,-205.5 4393.52,-205.5 4387.52,-199.5 4387.52,-193.5 4387.52,-193.5 4387.52,-168.5 4387.52,-168.5 4387.52,-162.5 4393.52,-156.5 4399.52,-156.5"/>
<text text-anchor="middle" x="4425.52" y="-188.2" font-family="Times,serif" font-size="14.00">12:7 &#45; 12:7</text>
<polyline fill="none" stroke="black" points="4387.52,-181 4463.52,-181"/>
<text text-anchor="middle" x="4425.52" y="-163.7" font-family="Times,serif" font-size="14.00">6:0 &#45; 6:0</text>
</g>
<!-- c40&#45;&gt;x15 -->
<g id="edge13" class="edge">
<title>c40:e&#45;&gt;x15:w</title>
<path fill="none" stroke="black" stroke-width="3" d="M4364.25,-181.19C4367.84,-181.15 4370.98,-181.1 4374.55,-181.07"/>
<polygon fill="none" stroke="black" stroke-width="3" points="4366.23,-181.18 4360.25,-185.21 4354.23,-181.24 4360.21,-177.21 4366.23,-181.18"/>
<polygon fill="none" stroke="black" stroke-width="3" points="4372.82,-181.07 4378.8,-177.04 4384.82,-181.01 4378.84,-185.04 4372.82,-181.07"/>
</g>
<!-- x14 -->
<g id="node32" class="node">
<title>x14</title>
<path fill="none" stroke="black" d="M4164.52,-177.5C4164.52,-177.5 4207.52,-177.5 4207.52,-177.5 4213.52,-177.5 4219.52,-183.5 4219.52,-189.5 4219.52,-189.5 4219.52,-214.5 4219.52,-214.5 4219.52,-220.5 4213.52,-226.5 4207.52,-226.5 4207.52,-226.5 4164.52,-226.5 4164.52,-226.5 4158.52,-226.5 4152.52,-220.5 4152.52,-214.5 4152.52,-214.5 4152.52,-189.5 4152.52,-189.5 4152.52,-183.5 4158.52,-177.5 4164.52,-177.5"/>
<text text-anchor="middle" x="4186.02" y="-209.2" font-family="Times,serif" font-size="14.00">0 &#45;&gt; 24:9</text>
<polyline fill="none" stroke="black" points="4152.52,-202 4219.52,-202"/>
<text text-anchor="middle" x="4186.02" y="-184.7" font-family="Times,serif" font-size="14.00">8:0 &#45; 8:0</text>
</g>
<!-- x14&#45;&gt;c40 -->
<g id="edge12" class="edge">
<title>x14:e&#45;&gt;c40:w</title>
<path fill="none" stroke="black" stroke-width="3" d="M4232.35,-199.79C4236.01,-198.46 4239.11,-196.76 4242.78,-195.43"/>
<polygon fill="none" stroke="black" stroke-width="3" points="4234.01,-199.51 4228.78,-204.47 4222.19,-201.54 4227.42,-196.58 4234.01,-199.51"/>
<polygon fill="none" stroke="black" stroke-width="3" points="4241.03,-195.73 4246.27,-190.77 4252.86,-193.71 4247.62,-198.66 4241.03,-195.73"/>
</g>
<!-- n13 -->
<g id="node66" class="node">
<title>n13</title>
<ellipse fill="black" stroke="black" cx="4501.32" cy="-164" rx="1.8" ry="1.8"/>
</g>
<!-- x15&#45;&gt;n13 -->
<g id="edge34" class="edge">
<title>x15:e&#45;&gt;n13:w</title>
<path fill="none" stroke="black" stroke-width="3" d="M4463.52,-168.75C4475.12,-168.75 4480.31,-166.3 4488.3,-164.92"/>
<polygon fill="black" stroke="black" stroke-width="3" points="4485.32,-168.67 4495,-164.37 4484.75,-161.69 4485.32,-168.67"/>
</g>
<!-- n17 -->
<g id="node68" class="node">
<title>n17</title>
<ellipse fill="black" stroke="black" cx="4639.42" cy="-164" rx="1.8" ry="1.8"/>
</g>
<!-- x15&#45;&gt;n17 -->
<g id="edge43" class="edge">
<title>x15:e&#45;&gt;n17:w</title>
<path fill="none" stroke="black" stroke-width="3" d="M4463.52,-193.25C4524.91,-193.25 4543.55,-210.89 4601.62,-191 4616.11,-186.04 4617.79,-172.85 4626.76,-166.94"/>
<polygon fill="black" stroke="black" stroke-width="3" points="4624.5,-171.17 4633.24,-165.19 4622.67,-164.42 4624.5,-171.17"/>
</g>
<!-- c41 -->
<g id="node34" class="node">
<title>c41</title>
<polygon fill="none" stroke="black" points="1968.66,-334.5 1968.66,-375.5 2060.16,-375.5 2060.16,-334.5 1968.66,-334.5"/>
<text text-anchor="middle" x="1981.54" y="-350.2" font-family="Times,serif" font-size="14.00">A</text>
<polyline fill="none" stroke="black" points="1994.41,-334.5 1994.41,-375.5"/>
<text text-anchor="middle" x="2014.41" y="-358.2" font-family="Times,serif" font-size="14.00">$11</text>
<text text-anchor="middle" x="2014.41" y="-341.7" font-family="Times,serif" font-size="14.00">$not</text>
<polyline fill="none" stroke="black" points="2034.41,-334.5 2034.41,-375.5"/>
<text text-anchor="middle" x="2047.29" y="-350.2" font-family="Times,serif" font-size="14.00">Y</text>
</g>
<!-- c41&#45;&gt;c36 -->
<g id="edge37" class="edge">
<title>c41:e&#45;&gt;c36:w</title>
<path fill="none" stroke="black" stroke-width="3" d="M2060.16,-355.25C2189.53,-355.25 2219.47,-409.43 2343,-412.6"/>
<polygon fill="black" stroke="black" stroke-width="3" points="2339.87,-416.07 2349.91,-412.69 2339.95,-409.07 2339.87,-416.07"/>
</g>
<!-- x16&#45;&gt;c41 -->
<g id="edge14" class="edge">
<title>x16:e&#45;&gt;c41:w</title>
<path fill="none" stroke="black" stroke-width="3" d="M1213.19,-351.03C1295.74,-351.37 1321.04,-355 1409.66,-355 1409.66,-355 1409.66,-355 1764.79,-355 1850.98,-355 1875.68,-355.23 1955.86,-355.25"/>
<polygon fill="none" stroke="black" stroke-width="3" points="1214.99,-351.03 1208.98,-355.02 1202.99,-351.01 1209,-347.02 1214.99,-351.03"/>
<polygon fill="none" stroke="black" stroke-width="3" points="1953.96,-355.25 1959.96,-351.25 1965.96,-355.25 1959.96,-359.25 1953.96,-355.25"/>
</g>
<!-- c42 -->
<g id="node36" class="node">
<title>c42</title>
<polygon fill="none" stroke="black" points="1841.16,-285.5 1841.16,-326.5 1932.66,-326.5 1932.66,-285.5 1841.16,-285.5"/>
<text text-anchor="middle" x="1854.04" y="-301.2" font-family="Times,serif" font-size="14.00">A</text>
<polyline fill="none" stroke="black" points="1866.91,-285.5 1866.91,-326.5"/>
<text text-anchor="middle" x="1886.91" y="-309.2" font-family="Times,serif" font-size="14.00">$13</text>
<text text-anchor="middle" x="1886.91" y="-292.7" font-family="Times,serif" font-size="14.00">$not</text>
<polyline fill="none" stroke="black" points="1906.91,-285.5 1906.91,-326.5"/>
<text text-anchor="middle" x="1919.79" y="-301.2" font-family="Times,serif" font-size="14.00">Y</text>
</g>
<!-- c44 -->
<g id="node40" class="node">
<title>c44</title>
<polygon fill="none" stroke="black" points="2752.85,-343.5 2752.85,-392.5 2842.85,-392.5 2842.85,-343.5 2752.85,-343.5"/>
<text text-anchor="middle" x="2765.73" y="-375.2" font-family="Times,serif" font-size="14.00">A</text>
<polyline fill="none" stroke="black" points="2752.85,-368 2778.6,-368"/>
<text text-anchor="middle" x="2765.73" y="-350.7" font-family="Times,serif" font-size="14.00">B</text>
<polyline fill="none" stroke="black" points="2778.6,-343.5 2778.6,-392.5"/>
<text text-anchor="middle" x="2797.85" y="-371.2" font-family="Times,serif" font-size="14.00">$14</text>
<text text-anchor="middle" x="2797.85" y="-354.7" font-family="Times,serif" font-size="14.00">$shl</text>
<polyline fill="none" stroke="black" points="2817.1,-343.5 2817.1,-392.5"/>
<text text-anchor="middle" x="2829.98" y="-363.2" font-family="Times,serif" font-size="14.00">Y</text>
</g>
<!-- c42&#45;&gt;c44 -->
<g id="edge46" class="edge">
<title>c42:e&#45;&gt;c44:w</title>
<path fill="none" stroke="black" stroke-width="3" d="M1932.66,-306.25C2025.89,-306.25 2049.19,-306 2142.41,-306 2142.41,-306 2142.41,-306 2521.48,-306 2622.34,-306 2645.44,-352.13 2740.53,-355.55"/>
<polygon fill="black" stroke="black" stroke-width="3" points="2737.25,-358.99 2747.31,-355.67 2737.37,-351.99 2737.25,-358.99"/>
</g>
<!-- x17&#45;&gt;c42 -->
<g id="edge15" class="edge">
<title>x17:e&#45;&gt;c42:w</title>
<path fill="none" stroke="black" stroke-width="3" d="M1213.2,-296.07C1295.82,-296.93 1320.96,-306 1409.66,-306 1409.66,-306 1409.66,-306 1649.41,-306 1730.14,-306 1753.52,-306.22 1828.2,-306.25"/>
<polygon fill="none" stroke="black" stroke-width="3" points="1214.99,-296.08 1208.97,-300.04 1202.99,-296.01 1209.01,-292.04 1214.99,-296.08"/>
<polygon fill="none" stroke="black" stroke-width="3" points="1826.46,-306.25 1832.46,-302.25 1838.46,-306.25 1832.46,-310.25 1826.46,-306.25"/>
</g>
<!-- x18 -->
<g id="node39" class="node">
<title>x18</title>
<path fill="none" stroke="black" d="M2639.33,-229.5C2639.33,-229.5 2691.33,-229.5 2691.33,-229.5 2697.33,-229.5 2703.33,-235.5 2703.33,-241.5 2703.33,-241.5 2703.33,-266.5 2703.33,-266.5 2703.33,-272.5 2697.33,-278.5 2691.33,-278.5 2691.33,-278.5 2639.33,-278.5 2639.33,-278.5 2633.33,-278.5 2627.33,-272.5 2627.33,-266.5 2627.33,-266.5 2627.33,-241.5 2627.33,-241.5 2627.33,-235.5 2633.33,-229.5 2639.33,-229.5"/>
<text text-anchor="middle" x="2665.33" y="-261.2" font-family="Times,serif" font-size="14.00">24:1 &#45; 23:0</text>
<polyline fill="none" stroke="black" points="2627.33,-254 2703.33,-254"/>
<text text-anchor="middle" x="2665.33" y="-236.7" font-family="Times,serif" font-size="14.00">0:0 &#45; 0:0</text>
</g>
<!-- c43&#45;&gt;x18 -->
<g id="edge16" class="edge">
<title>c43:e&#45;&gt;x18:w</title>
<path fill="none" stroke="black" stroke-width="3" d="M1342.37,-257.25C1421.96,-257.23 1446.49,-257 1532.04,-257 1532.04,-257 1532.04,-257 2521.48,-257 2563.95,-257 2577.64,-254.56 2614.49,-254.08"/>
<polygon fill="none" stroke="black" stroke-width="3" points="1344.37,-257.25 1338.37,-261.25 1332.37,-257.25 1338.37,-253.25 1344.37,-257.25"/>
<polygon fill="none" stroke="black" stroke-width="3" points="2612.63,-254.09 2618.61,-250.05 2624.63,-254.02 2618.66,-258.05 2612.63,-254.09"/>
</g>
<!-- n19 -->
<g id="node69" class="node">
<title>n19</title>
<ellipse fill="black" stroke="black" cx="3067.44" cy="-210" rx="1.8" ry="1.8"/>
</g>
<!-- x18&#45;&gt;n19 -->
<g id="edge47" class="edge">
<title>x18:e&#45;&gt;n19:w</title>
<path fill="none" stroke="black" d="M2703.33,-241.75C2860.55,-241.75 2901.29,-211.47 3053.04,-210.05"/>
<polygon fill="black" stroke="black" points="3052.66,-213.55 3062.65,-210.01 3052.63,-206.55 3052.66,-213.55"/>
</g>
<!-- n6 -->
<g id="node72" class="node">
<title>n6</title>
<ellipse fill="black" stroke="black" cx="2797.85" cy="-323" rx="1.8" ry="1.8"/>
</g>
<!-- x18&#45;&gt;n6 -->
<g id="edge82" class="edge">
<title>x18:e&#45;&gt;n6:w</title>
<path fill="none" stroke="black" stroke-width="3" d="M2703.33,-266.25C2729.21,-266.25 2717.28,-298.47 2739.33,-312 2757.17,-322.94 2766.29,-323.28 2783.43,-323.09"/>
<polygon fill="black" stroke="black" stroke-width="3" points="2780.06,-326.62 2790.03,-323.04 2780,-319.62 2780.06,-326.62"/>
</g>
<!-- c44&#45;&gt;c37 -->
<g id="edge38" class="edge">
<title>c44:e&#45;&gt;c37:w</title>
<path fill="none" stroke="black" stroke-width="3" d="M2843.85,-368.25C2865.39,-368.25 2873.13,-363.36 2890.14,-361.75"/>
<polygon fill="black" stroke="black" stroke-width="3" points="2887.03,-365.4 2896.87,-361.45 2886.72,-358.4 2887.03,-365.4"/>
</g>
<!-- x19 -->
<g id="node41" class="node">
<title>x19</title>
<path fill="none" stroke="black" d="M2646.08,-362C2646.08,-362 2684.58,-362 2684.58,-362 2690.58,-362 2696.58,-368 2696.58,-374 2696.58,-374 2696.58,-386 2696.58,-386 2696.58,-392 2690.58,-398 2684.58,-398 2684.58,-398 2646.08,-398 2646.08,-398 2640.08,-398 2634.08,-392 2634.08,-386 2634.08,-386 2634.08,-374 2634.08,-374 2634.08,-368 2640.08,-362 2646.08,-362"/>
<text text-anchor="middle" x="2665.33" y="-375.2" font-family="Times,serif" font-size="14.00">0:0 &#45; 0:0</text>
</g>
<!-- x19&#45;&gt;c44 -->
<g id="edge17" class="edge">
<title>x19:e&#45;&gt;c44:w</title>
<path fill="none" stroke="black" d="M2710.35,-380.03C2721.15,-380.07 2728.19,-380.17 2738.96,-380.22"/>
<polygon fill="none" stroke="black" points="2710.49,-380.03 2704.48,-384.01 2698.49,-380 2704.49,-376.01 2710.49,-380.03"/>
<polygon fill="none" stroke="black" points="2738.95,-380.22 2744.96,-376.24 2750.95,-380.25 2744.94,-384.24 2738.95,-380.22"/>
</g>
<!-- x20 -->
<g id="node43" class="node">
<title>x20</title>
<path fill="none" stroke="black" d="M1503.66,-453.5C1503.66,-453.5 1562.41,-453.5 1562.41,-453.5 1568.41,-453.5 1574.41,-459.5 1574.41,-465.5 1574.41,-465.5 1574.41,-490.5 1574.41,-490.5 1574.41,-496.5 1568.41,-502.5 1562.41,-502.5 1562.41,-502.5 1503.66,-502.5 1503.66,-502.5 1497.66,-502.5 1491.66,-496.5 1491.66,-490.5 1491.66,-490.5 1491.66,-465.5 1491.66,-465.5 1491.66,-459.5 1497.66,-453.5 1503.66,-453.5"/>
<text text-anchor="middle" x="1533.04" y="-485.2" font-family="Times,serif" font-size="14.00">22:10 &#45; 12:0</text>
<polyline fill="none" stroke="black" points="1491.66,-478 1574.41,-478"/>
<text text-anchor="middle" x="1533.04" y="-460.7" font-family="Times,serif" font-size="14.00">9:0 &#45; 9:0</text>
</g>
<!-- c45&#45;&gt;x20 -->
<g id="edge18" class="edge">
<title>c45:e&#45;&gt;x20:w</title>
<path fill="none" stroke="black" stroke-width="3" d="M1468.39,-478.19C1471.98,-478.15 1475.11,-478.1 1478.69,-478.07"/>
<polygon fill="none" stroke="black" stroke-width="3" points="1470.37,-478.18 1464.39,-482.21 1458.37,-478.24 1464.35,-474.21 1470.37,-478.18"/>
<polygon fill="none" stroke="black" stroke-width="3" points="1476.96,-478.07 1482.94,-474.04 1488.96,-478.01 1482.98,-482.04 1476.96,-478.07"/>
</g>
<!-- n20 -->
<g id="node70" class="node">
<title>n20</title>
<ellipse fill="black" stroke="black" cx="1886.91" cy="-451" rx="1.8" ry="1.8"/>
</g>
<!-- x20&#45;&gt;n20 -->
<g id="edge51" class="edge">
<title>x20:e&#45;&gt;n20:w</title>
<path fill="none" stroke="black" stroke-width="3" d="M1574.41,-465.75C1708.11,-465.75 1744.04,-451.82 1872.19,-451.03"/>
<polygon fill="black" stroke="black" stroke-width="3" points="1869.11,-454.54 1879.09,-451.01 1869.08,-447.54 1869.11,-454.54"/>
</g>
<!-- n4 -->
<g id="node71" class="node">
<title>n4</title>
<ellipse fill="black" stroke="black" cx="1648.41" cy="-490" rx="1.8" ry="1.8"/>
</g>
<!-- x20&#45;&gt;n4 -->
<g id="edge78" class="edge">
<title>x20:e&#45;&gt;n4:w</title>
<path fill="none" stroke="black" stroke-width="3" d="M1574.41,-490.25C1601.67,-490.25 1611.2,-490.06 1633.75,-490.01"/>
<polygon fill="black" stroke="black" stroke-width="3" points="1630.6,-493.52 1640.59,-490 1630.59,-486.52 1630.6,-493.52"/>
</g>
<!-- c46 -->
<g id="node44" class="node">
<title>c46</title>
<polygon fill="none" stroke="black" points="3500.94,-157.5 3500.94,-206.5 3591.69,-206.5 3591.69,-157.5 3500.94,-157.5"/>
<text text-anchor="middle" x="3513.81" y="-189.2" font-family="Times,serif" font-size="14.00">A</text>
<polyline fill="none" stroke="black" points="3500.94,-182 3526.69,-182"/>
<text text-anchor="middle" x="3513.81" y="-164.7" font-family="Times,serif" font-size="14.00">B</text>
<polyline fill="none" stroke="black" points="3526.69,-157.5 3526.69,-206.5"/>
<text text-anchor="middle" x="3546.31" y="-185.2" font-family="Times,serif" font-size="14.00">$20</text>
<text text-anchor="middle" x="3546.31" y="-168.7" font-family="Times,serif" font-size="14.00">$shr</text>
<polyline fill="none" stroke="black" points="3565.94,-157.5 3565.94,-206.5"/>
<text text-anchor="middle" x="3578.81" y="-177.2" font-family="Times,serif" font-size="14.00">Y</text>
</g>
<!-- c46&#45;&gt;n24 -->
<g id="edge73" class="edge">
<title>c46:e&#45;&gt;n24:w</title>
<path fill="none" stroke="black" stroke-width="3" d="M3591.69,-182.25C3603.06,-182.25 3608.37,-182.12 3616.24,-182.05"/>
<polygon fill="black" stroke="black" stroke-width="3" points="3613.16,-185.56 3623.15,-182.02 3613.13,-178.56 3613.16,-185.56"/>
</g>
<!-- x21&#45;&gt;c46 -->
<g id="edge19" class="edge">
<title>x21:e&#45;&gt;c46:w</title>
<path fill="none" stroke="black" stroke-width="3" d="M3476.68,-247.99C3485.75,-236.89 3480.12,-210.33 3489.2,-199.25"/>
<polygon fill="none" stroke="black" stroke-width="3" points="3478.46,-247.23 3474.51,-253.26 3467.43,-251.94 3471.38,-245.91 3478.46,-247.23"/>
<polygon fill="none" stroke="black" stroke-width="3" points="3487.41,-200.01 3491.36,-193.98 3498.45,-195.31 3494.5,-201.34 3487.41,-200.01"/>
</g>
<!-- x22&#45;&gt;c46 -->
<g id="edge20" class="edge">
<title>x22:e&#45;&gt;c46:w</title>
<path fill="none" stroke="black" stroke-width="3" d="M1699.44,-209.93C1777.58,-209.11 1801.66,-201 1885.91,-201 1885.91,-201 1885.91,-201 2590.53,-201 2749.1,-201 2786.71,-163 2945.28,-163 2945.28,-163 2945.28,-163 3306.69,-163 3388.69,-163 3412.2,-169.08 3488.26,-169.7"/>
<polygon fill="none" stroke="black" stroke-width="3" points="1701.12,-209.92 1695.14,-213.95 1689.12,-209.99 1695.1,-205.96 1701.12,-209.92"/>
<polygon fill="none" stroke="black" stroke-width="3" points="3486.23,-169.69 3492.25,-165.72 3498.23,-169.74 3492.22,-173.72 3486.23,-169.69"/>
</g>
<!-- c47 -->
<g id="node47" class="node">
<title>c47</title>
<polygon fill="none" stroke="black" points="4852.28,-80.5 4852.28,-129.5 4944.53,-129.5 4944.53,-80.5 4852.28,-80.5"/>
<text text-anchor="middle" x="4865.16" y="-112.2" font-family="Times,serif" font-size="14.00">A</text>
<polyline fill="none" stroke="black" points="4852.28,-105 4878.03,-105"/>
<text text-anchor="middle" x="4865.16" y="-87.7" font-family="Times,serif" font-size="14.00">B</text>
<polyline fill="none" stroke="black" points="4878.03,-80.5 4878.03,-129.5"/>
<text text-anchor="middle" x="4898.41" y="-108.2" font-family="Times,serif" font-size="14.00">$23</text>
<text text-anchor="middle" x="4898.41" y="-91.7" font-family="Times,serif" font-size="14.00">$xor</text>
<polyline fill="none" stroke="black" points="4918.78,-80.5 4918.78,-129.5"/>
<text text-anchor="middle" x="4931.66" y="-100.2" font-family="Times,serif" font-size="14.00">Y</text>
</g>
<!-- x25 -->
<g id="node50" class="node">
<title>x25</title>
<path fill="none" stroke="black" d="M5058.97,-80.5C5058.97,-80.5 5104.22,-80.5 5104.22,-80.5 5110.22,-80.5 5116.22,-86.5 5116.22,-92.5 5116.22,-92.5 5116.22,-117.5 5116.22,-117.5 5116.22,-123.5 5110.22,-129.5 5104.22,-129.5 5104.22,-129.5 5058.97,-129.5 5058.97,-129.5 5052.97,-129.5 5046.97,-123.5 5046.97,-117.5 5046.97,-117.5 5046.97,-92.5 5046.97,-92.5 5046.97,-86.5 5052.97,-80.5 5058.97,-80.5"/>
<text text-anchor="middle" x="5081.6" y="-112.2" font-family="Times,serif" font-size="14.00">12:8 &#45; 4:0</text>
<polyline fill="none" stroke="black" points="5046.97,-105 5116.22,-105"/>
<text text-anchor="middle" x="5081.6" y="-87.7" font-family="Times,serif" font-size="14.00">7:0 &#45; 7:0</text>
</g>
<!-- c47&#45;&gt;x25 -->
<g id="edge23" class="edge">
<title>c47:e&#45;&gt;x25:w</title>
<path fill="none" stroke="black" stroke-width="3" d="M4958.17,-105.24C4988.86,-105.21 5002.63,-105.04 5033.31,-105.01"/>
<polygon fill="none" stroke="black" stroke-width="3" points="4960.24,-105.24 4954.24,-109.24 4948.24,-105.25 4954.24,-101.24 4960.24,-105.24"/>
<polygon fill="none" stroke="black" stroke-width="3" points="5031.27,-105.01 5037.26,-101.01 5043.27,-105 5037.27,-109.01 5031.27,-105.01"/>
</g>
<!-- x23 -->
<g id="node48" class="node">
<title>x23</title>
<path fill="none" stroke="black" d="M4689.22,-106.5C4689.22,-106.5 4741.22,-106.5 4741.22,-106.5 4747.22,-106.5 4753.22,-112.5 4753.22,-118.5 4753.22,-118.5 4753.22,-143.5 4753.22,-143.5 4753.22,-149.5 4747.22,-155.5 4741.22,-155.5 4741.22,-155.5 4689.22,-155.5 4689.22,-155.5 4683.22,-155.5 4677.22,-149.5 4677.22,-143.5 4677.22,-143.5 4677.22,-118.5 4677.22,-118.5 4677.22,-112.5 4683.22,-106.5 4689.22,-106.5"/>
<text text-anchor="middle" x="4715.22" y="-138.2" font-family="Times,serif" font-size="14.00">12:7 &#45; 12:7</text>
<polyline fill="none" stroke="black" points="4677.22,-131 4753.22,-131"/>
<text text-anchor="middle" x="4715.22" y="-113.7" font-family="Times,serif" font-size="14.00">6:0 &#45; 6:0</text>
</g>
<!-- x23&#45;&gt;c47 -->
<g id="edge21" class="edge">
<title>x23:e&#45;&gt;c47:w</title>
<path fill="none" stroke="black" stroke-width="3" d="M4766.09,-130.57C4795.79,-128.52 4808.77,-119.71 4838.49,-117.67"/>
<polygon fill="none" stroke="black" stroke-width="3" points="4767.92,-130.51 4762.06,-134.71 4755.93,-130.91 4761.79,-126.71 4767.92,-130.51"/>
<polygon fill="none" stroke="black" stroke-width="3" points="4836.59,-117.73 4842.45,-113.54 4848.58,-117.34 4842.72,-121.53 4836.59,-117.73"/>
</g>
<!-- x24&#45;&gt;c47 -->
<g id="edge22" class="edge">
<title>x24:e&#45;&gt;c47:w</title>
<path fill="none" stroke="black" stroke-width="3" d="M1815.76,-78C1898.8,-78 1924.28,-78 2013.41,-78 2013.41,-78 2013.41,-78 4640.42,-78 4729.87,-78 4754.98,-91.37 4838.27,-92.65"/>
<polygon fill="none" stroke="black" stroke-width="3" points="1817.49,-78 1811.49,-82 1805.49,-78 1811.49,-74 1817.49,-78"/>
<polygon fill="none" stroke="black" stroke-width="3" points="4836.58,-92.64 4842.61,-88.68 4848.58,-92.73 4842.55,-96.68 4836.58,-92.64"/>
</g>
<!-- x25&#45;&gt;n22 -->
<g id="edge59" class="edge">
<title>x25:e&#45;&gt;n22:w</title>
<path fill="none" stroke="black" stroke-width="3" d="M5117.22,-117.25C5148.41,-117.25 5127.32,-63.67 5144.62,-49.44"/>
<polygon fill="black" stroke="black" stroke-width="3" points="5142.76,-53.68 5151.26,-47.36 5140.67,-47 5142.76,-53.68"/>
</g>
<!-- x25&#45;&gt;n25 -->
<g id="edge75" class="edge">
<title>x25:e&#45;&gt;n25:w</title>
<path fill="none" stroke="black" stroke-width="3" d="M5117.22,-92.75C5274.44,-92.75 5313.73,-86.07 5470.41,-73 5481.81,-72.05 5487.06,-70.43 5494.93,-69.57"/>
<polygon fill="black" stroke="black" stroke-width="3" points="5492.06,-73.22 5501.87,-69.23 5491.71,-66.23 5492.06,-73.22"/>
</g>
<!-- v26 -->
<g id="node51" class="node">
<title>v26</title>
<ellipse fill="none" stroke="black" cx="2399.32" cy="-364" rx="53.91" ry="18"/>
<text text-anchor="middle" x="2399.32" y="-358.95" font-family="Times,serif" font-size="14.00">8&#39;00000000</text>
</g>
<!-- x27 -->
<g id="node52" class="node">
<title>x27</title>
<path fill="none" stroke="black" d="M2501.23,-350C2501.23,-350 2539.73,-350 2539.73,-350 2545.73,-350 2551.73,-356 2551.73,-362 2551.73,-362 2551.73,-374 2551.73,-374 2551.73,-380 2545.73,-386 2539.73,-386 2539.73,-386 2501.23,-386 2501.23,-386 2495.23,-386 2489.23,-380 2489.23,-374 2489.23,-374 2489.23,-362 2489.23,-362 2489.23,-356 2495.23,-350 2501.23,-350"/>
<text text-anchor="middle" x="2520.48" y="-363.2" font-family="Times,serif" font-size="14.00">7:0 &#45; 8:1</text>
</g>
<!-- v26&#45;&gt;x27 -->
<g id="edge92" class="edge">
<title>v26:e&#45;&gt;x27:w</title>
<path fill="none" stroke="black" stroke-width="3" d="M2453.23,-364C2464.68,-364 2469.91,-366.02 2477.76,-367.19"/>
<polygon fill="black" stroke="black" stroke-width="3" points="2474.48,-370.47 2484.71,-367.68 2474.98,-363.49 2474.48,-370.47"/>
</g>
<!-- x27&#45;&gt;n9 -->
<g id="edge88" class="edge">
<title>x27:e&#45;&gt;n9:w</title>
<path fill="none" stroke="black" stroke-width="3" d="M2551.73,-368.25C2563.96,-368.25 2568.54,-374.45 2576.59,-377.84"/>
<polygon fill="black" stroke="black" stroke-width="3" points="2572.79,-380.68 2583.28,-379.14 2574.12,-373.8 2572.79,-380.68"/>
</g>
<!-- x28 -->
<g id="node53" class="node">
<title>x28</title>
<path fill="none" stroke="black" d="M452.94,-560.5C452.94,-560.5 504.94,-560.5 504.94,-560.5 510.94,-560.5 516.94,-566.5 516.94,-572.5 516.94,-572.5 516.94,-597.5 516.94,-597.5 516.94,-603.5 510.94,-609.5 504.94,-609.5 504.94,-609.5 452.94,-609.5 452.94,-609.5 446.94,-609.5 440.94,-603.5 440.94,-597.5 440.94,-597.5 440.94,-572.5 440.94,-572.5 440.94,-566.5 446.94,-560.5 452.94,-560.5"/>
<text text-anchor="middle" x="478.94" y="-592.2" font-family="Times,serif" font-size="14.00">0 &#45;&gt; 23:11</text>
<polyline fill="none" stroke="black" points="440.94,-585 516.94,-585"/>
<text text-anchor="middle" x="478.94" y="-567.7" font-family="Times,serif" font-size="14.00">10:0 &#45; 10:0</text>
</g>
<!-- x29 -->
<g id="node54" class="node">
<title>x29</title>
<path fill="none" stroke="black" d="M647.8,-560.5C647.8,-560.5 713.3,-560.5 713.3,-560.5 719.3,-560.5 725.3,-566.5 725.3,-572.5 725.3,-572.5 725.3,-597.5 725.3,-597.5 725.3,-603.5 719.3,-609.5 713.3,-609.5 713.3,-609.5 647.8,-609.5 647.8,-609.5 641.8,-609.5 635.8,-603.5 635.8,-597.5 635.8,-597.5 635.8,-572.5 635.8,-572.5 635.8,-566.5 641.8,-560.5 647.8,-560.5"/>
<text text-anchor="middle" x="680.55" y="-592.2" font-family="Times,serif" font-size="14.00">23:11 &#45; 24:12</text>
<polyline fill="none" stroke="black" points="635.8,-585 725.3,-585"/>
<text text-anchor="middle" x="680.55" y="-567.7" font-family="Times,serif" font-size="14.00">10:0 &#45; 10:0</text>
</g>
<!-- x28&#45;&gt;x29 -->
<g id="edge24" class="edge">
<title>x28:e&#45;&gt;x29:w</title>
<path fill="none" stroke="black" stroke-width="3" d="M529.9,-585C567.99,-585 583.96,-585 622.18,-585"/>
<polygon fill="none" stroke="black" stroke-width="3" points="531.65,-585 525.65,-589 519.65,-585 525.65,-581 531.65,-585"/>
<polygon fill="none" stroke="black" stroke-width="3" points="620.1,-585 626.1,-581 632.1,-585 626.1,-589 620.1,-585"/>
</g>
<!-- x29&#45;&gt;n16 -->
<g id="edge40" class="edge">
<title>x29:e&#45;&gt;n16:w</title>
<path fill="none" stroke="black" stroke-width="3" d="M726.3,-572.75C794.9,-572.75 813.24,-594.42 876.34,-596.79"/>
<polygon fill="black" stroke="black" stroke-width="3" points="873.16,-600.23 883.22,-596.92 873.29,-593.23 873.16,-600.23"/>
</g>
<!-- x29&#45;&gt;n16 -->
<g id="edge41" class="edge">
<title>x29:e&#45;&gt;n16:w</title>
<path fill="none" stroke="black" stroke-width="3" d="M726.3,-597.25C794.14,-597.25 813.88,-597.03 876.45,-597"/>
<polygon fill="black" stroke="black" stroke-width="3" points="873.22,-600.5 883.22,-597 873.22,-593.5 873.22,-600.5"/>
</g>
<!-- x30 -->
<g id="node55" class="node">
<title>x30</title>
<path fill="none" stroke="black" d="M4551.12,-146C4551.12,-146 4589.62,-146 4589.62,-146 4595.62,-146 4601.62,-152 4601.62,-158 4601.62,-158 4601.62,-170 4601.62,-170 4601.62,-176 4595.62,-182 4589.62,-182 4589.62,-182 4551.12,-182 4551.12,-182 4545.12,-182 4539.12,-176 4539.12,-170 4539.12,-170 4539.12,-158 4539.12,-158 4539.12,-152 4545.12,-146 4551.12,-146"/>
<text text-anchor="middle" x="4570.37" y="-159.2" font-family="Times,serif" font-size="14.00">6:0 &#45; 6:0</text>
</g>
<!-- x30&#45;&gt;n17 -->
<g id="edge44" class="edge">
<title>x30:e&#45;&gt;n17:w</title>
<path fill="none" stroke="black" stroke-width="3" d="M4601.62,-164.25C4613,-164.25 4618.31,-164.12 4626.18,-164.05"/>
<polygon fill="black" stroke="black" stroke-width="3" points="4623.1,-167.56 4633.08,-164.02 4623.07,-160.56 4623.1,-167.56"/>
</g>
<!-- x31 -->
<g id="node56" class="node">
<title>x31</title>
<path fill="none" stroke="black" d="M2920.28,-269C2920.28,-269 2972.28,-269 2972.28,-269 2978.28,-269 2984.28,-275 2984.28,-281 2984.28,-281 2984.28,-293 2984.28,-293 2984.28,-299 2978.28,-305 2972.28,-305 2972.28,-305 2920.28,-305 2920.28,-305 2914.28,-305 2908.28,-299 2908.28,-293 2908.28,-293 2908.28,-281 2908.28,-281 2908.28,-275 2914.28,-269 2920.28,-269"/>
<text text-anchor="middle" x="2946.28" y="-282.2" font-family="Times,serif" font-size="14.00">23:0 &#45; 24:1</text>
</g>
<!-- x31&#45;&gt;n19 -->
<g id="edge48" class="edge">
<title>x31:e&#45;&gt;n19:w</title>
<path fill="none" stroke="black" stroke-width="3" d="M2985.28,-287.25C3030.13,-287.25 3017.9,-222.71 3052.94,-211.61"/>
<polygon fill="black" stroke="black" stroke-width="3" points="3050.27,-215.53 3059.67,-210.65 3049.27,-208.6 3050.27,-215.53"/>
</g>
<!-- x32 -->
<g id="node57" class="node">
<title>x32</title>
<path fill="none" stroke="black" d="M1734.41,-471C1734.41,-471 1793.16,-471 1793.16,-471 1799.16,-471 1805.16,-477 1805.16,-483 1805.16,-483 1805.16,-495 1805.16,-495 1805.16,-501 1799.16,-507 1793.16,-507 1793.16,-507 1734.41,-507 1734.41,-507 1728.41,-507 1722.41,-501 1722.41,-495 1722.41,-495 1722.41,-483 1722.41,-483 1722.41,-477 1728.41,-471 1734.41,-471"/>
<text text-anchor="middle" x="1763.79" y="-484.2" font-family="Times,serif" font-size="14.00">12:0 &#45; 22:10</text>
</g>
<!-- x32&#45;&gt;n20 -->
<g id="edge52" class="edge">
<title>x32:e&#45;&gt;n20:w</title>
<path fill="none" stroke="black" stroke-width="3" d="M1805.16,-489.25C1839.87,-489.25 1844.23,-458.64 1872.54,-452.19"/>
<polygon fill="black" stroke="black" stroke-width="3" points="1869.55,-456.03 1879.12,-451.48 1868.81,-449.07 1869.55,-456.03"/>
</g>
<!-- v33 -->
<g id="node58" class="node">
<title>v33</title>
<ellipse fill="none" stroke="black" cx="4898.41" cy="-43" rx="109.19" ry="18"/>
<text text-anchor="middle" x="4898.41" y="-37.95" font-family="Times,serif" font-size="14.00">19&#39;0000000000000000000</text>
</g>
<!-- x34 -->
<g id="node59" class="node">
<title>x34</title>
<path fill="none" stroke="black" d="M5055.6,-25C5055.6,-25 5107.6,-25 5107.6,-25 5113.6,-25 5119.6,-31 5119.6,-37 5119.6,-37 5119.6,-49 5119.6,-49 5119.6,-55 5113.6,-61 5107.6,-61 5107.6,-61 5055.6,-61 5055.6,-61 5049.6,-61 5043.6,-55 5043.6,-49 5043.6,-49 5043.6,-37 5043.6,-37 5043.6,-31 5049.6,-25 5055.6,-25"/>
<text text-anchor="middle" x="5081.6" y="-38.2" font-family="Times,serif" font-size="14.00">18:0 &#45; 23:5</text>
</g>
<!-- v33&#45;&gt;x34 -->
<g id="edge93" class="edge">
<title>v33:e&#45;&gt;x34:w</title>
<path fill="none" stroke="black" stroke-width="3" d="M5007.6,-43C5018.97,-43 5024.28,-43 5032.15,-43"/>
<polygon fill="black" stroke="black" stroke-width="3" points="5029.05,-46.5 5039.05,-43 5029.05,-39.5 5029.05,-46.5"/>
</g>
<!-- x34&#45;&gt;n22 -->
<g id="edge60" class="edge">
<title>x34:e&#45;&gt;n22:w</title>
<path fill="none" stroke="black" stroke-width="3" d="M5119.6,-43.25C5131,-43.25 5136.28,-44.64 5144.14,-45.44"/>
<polygon fill="black" stroke="black" stroke-width="3" points="5140.9,-48.79 5151.06,-45.78 5141.24,-41.8 5140.9,-48.79"/>
</g>
<!-- v35 -->
<g id="node60" class="node">
<title>v35</title>
<ellipse fill="none" stroke="black" cx="3869.56" cy="-255" rx="95.37" ry="18"/>
<text text-anchor="middle" x="3869.56" y="-249.95" font-family="Times,serif" font-size="14.00">16&#39;0000000000000000</text>
</g>
<!-- x36 -->
<g id="node61" class="node">
<title>x36</title>
<path fill="none" stroke="black" d="M4012.92,-234C4012.92,-234 4064.92,-234 4064.92,-234 4070.92,-234 4076.92,-240 4076.92,-246 4076.92,-246 4076.92,-258 4076.92,-258 4076.92,-264 4070.92,-270 4064.92,-270 4064.92,-270 4012.92,-270 4012.92,-270 4006.92,-270 4000.92,-264 4000.92,-258 4000.92,-258 4000.92,-246 4000.92,-246 4000.92,-240 4006.92,-234 4012.92,-234"/>
<text text-anchor="middle" x="4038.92" y="-247.2" font-family="Times,serif" font-size="14.00">15:0 &#45; 24:9</text>
</g>
<!-- v35&#45;&gt;x36 -->
<g id="edge94" class="edge">
<title>v35:e&#45;&gt;x36:w</title>
<path fill="none" stroke="black" stroke-width="3" d="M3964.92,-255C3976.34,-255 3981.6,-253.48 3989.46,-252.61"/>
<polygon fill="black" stroke="black" stroke-width="3" points="3986.59,-256.26 3996.39,-252.24 3986.22,-249.27 3986.59,-256.26"/>
</g>
<!-- x36&#45;&gt;n1 -->
<g id="edge26" class="edge">
<title>x36:e&#45;&gt;n1:w</title>
<path fill="none" stroke="black" stroke-width="3" d="M4076.92,-252.25C4102.6,-252.25 4088.91,-210.78 4102.29,-197.82"/>
<polygon fill="black" stroke="black" stroke-width="3" points="4100.42,-202.21 4108.65,-195.54 4098.06,-195.62 4100.42,-202.21"/>
</g>
<!-- x38 -->
<g id="node63" class="node">
<title>x38</title>
<path fill="none" stroke="black" d="M5419.91,-28C5419.91,-28 5458.41,-28 5458.41,-28 5464.41,-28 5470.41,-34 5470.41,-40 5470.41,-40 5470.41,-52 5470.41,-52 5470.41,-58 5464.41,-64 5458.41,-64 5458.41,-64 5419.91,-64 5419.91,-64 5413.91,-64 5407.91,-58 5407.91,-52 5407.91,-52 5407.91,-40 5407.91,-40 5407.91,-34 5413.91,-28 5419.91,-28"/>
<text text-anchor="middle" x="5439.16" y="-41.2" font-family="Times,serif" font-size="14.00">1:0 &#45; 9:8</text>
</g>
<!-- x37&#45;&gt;x38 -->
<g id="edge25" class="edge">
<title>x37:e&#45;&gt;x38:w</title>
<path fill="none" stroke="black" stroke-width="3" d="M5384.63,-46C5388.23,-46 5391.36,-46 5394.94,-46"/>
<polygon fill="none" stroke="black" stroke-width="3" points="5386.61,-46 5380.61,-50 5374.61,-46 5380.61,-42 5386.61,-46"/>
<polygon fill="none" stroke="black" stroke-width="3" points="5393.2,-46 5399.2,-42 5405.2,-46 5399.2,-50 5393.2,-46"/>
</g>
<!-- x38&#45;&gt;n25 -->
<g id="edge76" class="edge">
<title>x38:e&#45;&gt;n25:w</title>
<path fill="none" stroke="black" stroke-width="3" d="M5470.41,-46.25C5484.6,-46.25 5487.11,-59.05 5495.46,-65.45"/>
<polygon fill="black" stroke="black" stroke-width="3" points="5491.5,-67.84 5502.09,-67.6 5493.66,-61.18 5491.5,-67.84"/>
</g>
<!-- n1&#45;&gt;x14 -->
<g id="edge28" class="edge">
<title>n1:e&#45;&gt;x14:w</title>
<path fill="none" stroke="black" stroke-width="3" d="M4116.52,-194C4127.98,-194 4133.2,-191.85 4141.05,-190.61"/>
<polygon fill="black" stroke="black" stroke-width="3" points="4138.29,-194.33 4148,-190.09 4137.76,-187.35 4138.29,-194.33"/>
</g>
<!-- n12&#45;&gt;x12 -->
<g id="edge32" class="edge">
<title>n12:e&#45;&gt;x12:w</title>
<path fill="none" stroke="black" stroke-width="3" d="M404.94,-554C421,-554 424.9,-551.67 440.94,-551 604.01,-544.22 645.26,-540.93 808.16,-551 882.52,-555.6 902.9,-571.06 971.91,-572.62"/>
<polygon fill="black" stroke="black" stroke-width="3" points="968.83,-576.09 978.87,-572.7 968.91,-569.09 968.83,-576.09"/>
</g>
<!-- n12&#45;&gt;x28 -->
<g id="edge33" class="edge">
<title>n12:e&#45;&gt;x28:w</title>
<path fill="none" stroke="black" stroke-width="3" d="M404.94,-554C418.33,-554 421.74,-564.33 429.98,-569.65"/>
<polygon fill="black" stroke="black" stroke-width="3" points="426,-572.17 436.57,-571.52 427.9,-565.43 426,-572.17"/>
</g>
<!-- n13&#45;&gt;x23 -->
<g id="edge35" class="edge">
<title>n13:e&#45;&gt;x23:w</title>
<path fill="none" stroke="black" stroke-width="3" d="M4503.12,-164C4523.39,-164 4520.4,-143.76 4539.12,-136 4592.59,-113.86 4612.75,-118.05 4665.77,-118.68"/>
<polygon fill="black" stroke="black" stroke-width="3" points="4662.66,-122.16 4672.68,-118.72 4662.7,-115.16 4662.66,-122.16"/>
</g>
<!-- n13&#45;&gt;x30 -->
<g id="edge36" class="edge">
<title>n13:e&#45;&gt;x30:w</title>
<path fill="none" stroke="black" stroke-width="3" d="M4503.12,-164C4514.5,-164 4519.81,-164 4527.68,-164"/>
<polygon fill="black" stroke="black" stroke-width="3" points="4524.58,-167.5 4534.58,-164 4524.58,-160.5 4524.58,-167.5"/>
</g>
<!-- n16&#45;&gt;x12 -->
<g id="edge42" class="edge">
<title>n16:e&#45;&gt;x12:w</title>
<path fill="none" stroke="black" d="M894.32,-597C929.89,-597 941.5,-597.2 972.2,-597.24"/>
<polygon fill="black" stroke="black" points="971.9,-600.74 981.9,-597.25 971.9,-593.74 971.9,-600.74"/>
</g>
<!-- n17&#45;&gt;x23 -->
<g id="edge45" class="edge">
<title>n17:e&#45;&gt;x23:w</title>
<path fill="none" stroke="black" stroke-width="3" d="M4641.22,-164C4655.07,-164 4658.01,-152.33 4666.4,-146.49"/>
<polygon fill="black" stroke="black" stroke-width="3" points="4664.3,-150.78 4672.87,-144.55 4662.29,-144.07 4664.3,-150.78"/>
</g>
<!-- n19&#45;&gt;x4 -->
<g id="edge49" class="edge">
<title>n19:e&#45;&gt;x4:w</title>
<path fill="none" stroke="black" d="M3070.72,-210C3100.25,-210 3110.31,-210.19 3135.13,-210.24"/>
<polygon fill="black" stroke="black" points="3134.8,-213.74 3144.8,-210.25 3134.8,-206.74 3134.8,-213.74"/>
</g>
<!-- n20&#45;&gt;x2 -->
<g id="edge53" class="edge">
<title>n20:e&#45;&gt;x2:w</title>
<path fill="none" stroke="black" stroke-width="3" d="M1890.19,-451C1927.08,-451 1939,-451.2 1971.01,-451.24"/>
<polygon fill="black" stroke="black" stroke-width="3" points="1967.62,-454.74 1977.62,-451.25 1967.63,-447.74 1967.62,-454.74"/>
</g>
<!-- n4&#45;&gt;x9 -->
<g id="edge80" class="edge">
<title>n4:e&#45;&gt;x9:w</title>
<path fill="none" stroke="black" stroke-width="3" d="M1651.69,-490C1685.34,-490 1689.73,-509 1722.41,-517 1793.47,-534.4 1812.76,-536 1885.91,-536 1885.91,-536 1885.91,-536 2015.41,-536 2037.8,-536 2170.98,-476.21 2215.44,-464.3"/>
<polygon fill="black" stroke="black" stroke-width="3" points="2212.99,-468.3 2222.2,-463.07 2211.73,-461.42 2212.99,-468.3"/>
</g>
<!-- n4&#45;&gt;x32 -->
<g id="edge79" class="edge">
<title>n4:e&#45;&gt;x32:w</title>
<path fill="none" stroke="black" stroke-width="3" d="M1651.69,-490C1678.95,-490 1688.48,-489.25 1711.03,-489.05"/>
<polygon fill="black" stroke="black" stroke-width="3" points="1707.89,-492.56 1717.87,-489.02 1707.86,-485.56 1707.89,-492.56"/>
</g>
<!-- n6&#45;&gt;x21 -->
<g id="edge83" class="edge">
<title>n6:e&#45;&gt;x21:w</title>
<path fill="none" stroke="black" stroke-width="3" d="M2801.13,-323C2826.16,-323 2837.48,-317.58 2856.37,-334 2892.97,-365.81 2854.41,-406.82 2892.37,-437 2953.29,-485.43 2988.61,-456 3066.44,-456 3066.44,-456 3066.44,-456 3179.56,-456 3238.82,-456 3316.28,-286.95 3377.67,-267.14"/>
<polygon fill="black" stroke="black" stroke-width="3" points="3375.18,-271.1 3384.46,-266 3374.02,-264.2 3375.18,-271.1"/>
</g>
<!-- n6&#45;&gt;x31 -->
<g id="edge84" class="edge">
<title>n6:e&#45;&gt;x31:w</title>
<path fill="none" stroke="black" stroke-width="3" d="M2801.13,-323C2826.16,-323 2832.66,-320.03 2856.37,-312 2876.14,-305.3 2880.79,-292.55 2896.12,-288.37"/>
<polygon fill="black" stroke="black" stroke-width="3" points="2893.27,-292.24 2902.77,-287.55 2892.42,-285.3 2893.27,-292.24"/>
</g>
<!-- n9&#45;&gt;x19 -->
<g id="edge89" class="edge">
<title>n9:e&#45;&gt;x19:w</title>
<path fill="none" stroke="black" d="M2591.33,-380C2605.4,-380 2611.47,-380.14 2621.66,-380.21"/>
<polygon fill="black" stroke="black" points="2621.56,-383.71 2631.57,-380.25 2621.58,-376.71 2621.56,-383.71"/>
</g>
</g>
</svg>
