<?xml version="1.0" encoding="UTF-8" standalone="no"?>
<!DOCTYPE svg PUBLIC "-//W3C//DTD SVG 1.1//EN"
 "http://www.w3.org/Graphics/SVG/1.1/DTD/svg11.dtd">
<!-- Generated by graphviz version 12.2.1 (20241206.2353)
 -->
<!-- Title: top Pages: 1 -->
<svg width="2078pt" height="331pt"
 viewBox="0.00 0.00 2078.31 331.00" xmlns="http://www.w3.org/2000/svg" xmlns:xlink="http://www.w3.org/1999/xlink">
<g id="graph0" class="graph" transform="scale(1 1) rotate(0) translate(4 327)">
<title>top</title>
<polygon fill="white" stroke="none" points="-4,4 -4,-327 2074.31,-327 2074.31,4 -4,4"/>
<text text-anchor="middle" x="1035.16" y="-7.2" font-family="Times,serif" font-size="14.00">top</text>
<!-- n5 -->
<g id="node1" class="node">
<title>n5</title>
<polygon fill="none" stroke="black" points="107.84,-136.54 107.84,-151.46 76.26,-162 31.59,-162 0,-151.46 0,-136.54 31.59,-126 76.26,-126 107.84,-136.54"/>
<text text-anchor="middle" x="53.92" y="-138.95" font-family="Times,serif" font-size="14.00">input_data</text>
</g>
<!-- c12 -->
<g id="node5" class="node">
<title>c12</title>
<polygon fill="none" stroke="black" points="143.84,-131.5 143.84,-180.5 237.59,-180.5 237.59,-131.5 143.84,-131.5"/>
<text text-anchor="middle" x="156.72" y="-163.2" font-family="Times,serif" font-size="14.00">A</text>
<polyline fill="none" stroke="black" points="143.84,-156 169.59,-156"/>
<text text-anchor="middle" x="156.72" y="-138.7" font-family="Times,serif" font-size="14.00">B</text>
<polyline fill="none" stroke="black" points="169.59,-131.5 169.59,-180.5"/>
<text text-anchor="middle" x="190.72" y="-159.2" font-family="Times,serif" font-size="14.00">$1</text>
<text text-anchor="middle" x="190.72" y="-142.7" font-family="Times,serif" font-size="14.00">$add</text>
<polyline fill="none" stroke="black" points="211.84,-131.5 211.84,-180.5"/>
<text text-anchor="middle" x="224.72" y="-151.2" font-family="Times,serif" font-size="14.00">Y</text>
</g>
<!-- n5&#45;&gt;c12 -->
<g id="edge15" class="edge">
<title>n5:e&#45;&gt;c12:w</title>
<path fill="none" stroke="black" stroke-width="3" d="M107.84,-144C119.22,-144 124.53,-143.87 132.39,-143.8"/>
<polygon fill="black" stroke="black" stroke-width="3" points="129.32,-147.31 139.3,-143.77 129.28,-140.31 129.32,-147.31"/>
</g>
<!-- n5&#45;&gt;c12 -->
<g id="edge16" class="edge">
<title>n5:e&#45;&gt;c12:w</title>
<path fill="none" stroke="black" stroke-width="3" d="M107.84,-144C122.46,-144 124.52,-157.93 133.05,-164.67"/>
<polygon fill="black" stroke="black" stroke-width="3" points="128.94,-166.99 139.53,-166.82 131.14,-160.35 128.94,-166.99"/>
</g>
<!-- x1 -->
<g id="node8" class="node">
<title>x1</title>
<path fill="none" stroke="black" d="M309.59,-25C309.59,-25 348.09,-25 348.09,-25 354.09,-25 360.09,-31 360.09,-37 360.09,-37 360.09,-49 360.09,-49 360.09,-55 354.09,-61 348.09,-61 348.09,-61 309.59,-61 309.59,-61 303.59,-61 297.59,-55 297.59,-49 297.59,-49 297.59,-37 297.59,-37 297.59,-31 303.59,-25 309.59,-25"/>
<text text-anchor="middle" x="328.84" y="-38.2" font-family="Times,serif" font-size="14.00">1:0 &#45; 1:0</text>
</g>
<!-- n5&#45;&gt;x1 -->
<g id="edge19" class="edge">
<title>n5:e&#45;&gt;x1:w</title>
<path fill="none" stroke="black" stroke-width="3" d="M107.84,-144C142.04,-144 116.57,-96.63 143.84,-76 196.08,-36.49 223.91,-42.38 285.18,-43.17"/>
<polygon fill="black" stroke="black" stroke-width="3" points="282.03,-46.65 292.05,-43.22 282.07,-39.65 282.03,-46.65"/>
</g>
<!-- c16 -->
<g id="node13" class="node">
<title>c16</title>
<polygon fill="none" stroke="black" points="420.09,-273.5 420.09,-322.5 516.09,-322.5 516.09,-273.5 420.09,-273.5"/>
<text text-anchor="middle" x="432.97" y="-305.2" font-family="Times,serif" font-size="14.00">A</text>
<polyline fill="none" stroke="black" points="420.09,-298 445.84,-298"/>
<text text-anchor="middle" x="432.97" y="-280.7" font-family="Times,serif" font-size="14.00">B</text>
<polyline fill="none" stroke="black" points="445.84,-273.5 445.84,-322.5"/>
<text text-anchor="middle" x="468.09" y="-301.2" font-family="Times,serif" font-size="14.00">$4</text>
<text text-anchor="middle" x="468.09" y="-284.7" font-family="Times,serif" font-size="14.00">$mul</text>
<polyline fill="none" stroke="black" points="490.34,-273.5 490.34,-322.5"/>
<text text-anchor="middle" x="503.22" y="-293.2" font-family="Times,serif" font-size="14.00">Y</text>
</g>
<!-- n5&#45;&gt;c16 -->
<g id="edge17" class="edge">
<title>n5:e&#45;&gt;c16:w</title>
<path fill="none" stroke="black" stroke-width="3" d="M107.84,-144C133.8,-144 122.71,-174.91 143.84,-190 246.49,-263.31 287.72,-284.52 408.9,-285.7"/>
<polygon fill="black" stroke="black" stroke-width="3" points="405.53,-289.18 415.55,-285.73 405.57,-282.18 405.53,-289.18"/>
</g>
<!-- c17 -->
<g id="node15" class="node">
<title>c17</title>
<polygon fill="none" stroke="black" points="976.59,-210.5 976.59,-259.5 1072.59,-259.5 1072.59,-210.5 976.59,-210.5"/>
<text text-anchor="middle" x="989.47" y="-242.2" font-family="Times,serif" font-size="14.00">A</text>
<polyline fill="none" stroke="black" points="976.59,-235 1002.34,-235"/>
<text text-anchor="middle" x="989.47" y="-217.7" font-family="Times,serif" font-size="14.00">B</text>
<polyline fill="none" stroke="black" points="1002.34,-210.5 1002.34,-259.5"/>
<text text-anchor="middle" x="1024.59" y="-238.2" font-family="Times,serif" font-size="14.00">$7</text>
<text text-anchor="middle" x="1024.59" y="-221.7" font-family="Times,serif" font-size="14.00">$mul</text>
<polyline fill="none" stroke="black" points="1046.84,-210.5 1046.84,-259.5"/>
<text text-anchor="middle" x="1059.72" y="-230.2" font-family="Times,serif" font-size="14.00">Y</text>
</g>
<!-- n5&#45;&gt;c17 -->
<g id="edge18" class="edge">
<title>n5:e&#45;&gt;c17:w</title>
<path fill="none" stroke="black" stroke-width="3" d="M107.84,-144C126.59,-144 126.29,-128.61 143.84,-122 221.51,-92.73 244.84,-90 327.84,-90 327.84,-90 327.84,-90 781.34,-90 830.22,-90 911.95,-205.22 965.33,-220.97"/>
<polygon fill="black" stroke="black" stroke-width="3" points="961.68,-223.94 972.11,-222.04 962.77,-217.03 961.68,-223.94"/>
</g>
<!-- n6 -->
<g id="node2" class="node">
<title>n6</title>
<polygon fill="none" stroke="black" points="2070.31,-116.54 2070.31,-131.46 2035.81,-142 1987.01,-142 1952.5,-131.46 1952.5,-116.54 1987.01,-106 2035.81,-106 2070.31,-116.54"/>
<text text-anchor="middle" x="2011.41" y="-118.95" font-family="Times,serif" font-size="14.00">output_data</text>
</g>
<!-- n7 -->
<g id="node3" class="node">
<title>n7</title>
<polygon fill="none" stroke="black" points="328.84,-181 273.59,-163 328.84,-145 384.09,-163 328.84,-181"/>
<text text-anchor="middle" x="328.84" y="-157.95" font-family="Times,serif" font-size="14.00">temp_0</text>
</g>
<!-- x2 -->
<g id="node10" class="node">
<title>x2</title>
<path fill="none" stroke="black" d="M662.59,-119C662.59,-119 701.09,-119 701.09,-119 707.09,-119 713.09,-125 713.09,-131 713.09,-131 713.09,-143 713.09,-143 713.09,-149 707.09,-155 701.09,-155 701.09,-155 662.59,-155 662.59,-155 656.59,-155 650.59,-149 650.59,-143 650.59,-143 650.59,-131 650.59,-131 650.59,-125 656.59,-119 662.59,-119"/>
<text text-anchor="middle" x="681.84" y="-132.2" font-family="Times,serif" font-size="14.00">1:0 &#45; 1:0</text>
</g>
<!-- n7&#45;&gt;x2 -->
<g id="edge25" class="edge">
<title>n7:e&#45;&gt;x2:w</title>
<path fill="none" stroke="black" stroke-width="3" d="M384.09,-163C401.1,-163 403.42,-153.39 420.09,-150 516.8,-130.31 545.8,-136.7 639.19,-137.22"/>
<polygon fill="black" stroke="black" stroke-width="3" points="636.04,-140.71 646.05,-137.24 636.06,-133.71 636.04,-140.71"/>
</g>
<!-- c15 -->
<g id="node12" class="node">
<title>c15</title>
<polygon fill="none" stroke="black" points="422.34,-159.5 422.34,-200.5 513.84,-200.5 513.84,-159.5 422.34,-159.5"/>
<text text-anchor="middle" x="435.22" y="-175.2" font-family="Times,serif" font-size="14.00">A</text>
<polyline fill="none" stroke="black" points="448.09,-159.5 448.09,-200.5"/>
<text text-anchor="middle" x="468.09" y="-183.2" font-family="Times,serif" font-size="14.00">$35</text>
<text text-anchor="middle" x="468.09" y="-166.7" font-family="Times,serif" font-size="14.00">$not</text>
<polyline fill="none" stroke="black" points="488.09,-159.5 488.09,-200.5"/>
<text text-anchor="middle" x="500.97" y="-175.2" font-family="Times,serif" font-size="14.00">Y</text>
</g>
<!-- n7&#45;&gt;c15 -->
<g id="edge23" class="edge">
<title>n7:e&#45;&gt;c15:w</title>
<path fill="none" stroke="black" stroke-width="3" d="M384.09,-163C397.78,-163 401.62,-172.7 410.39,-177.55"/>
<polygon fill="black" stroke="black" stroke-width="3" points="406.39,-180.17 416.93,-179.16 408.06,-173.38 406.39,-180.17"/>
</g>
<!-- n7&#45;&gt;c16 -->
<g id="edge24" class="edge">
<title>n7:e&#45;&gt;c16:w</title>
<path fill="none" stroke="black" stroke-width="3" d="M384.09,-163C446.99,-163 365.1,-291.34 408.77,-308.39"/>
<polygon fill="black" stroke="black" stroke-width="3" points="405.18,-311.34 415.61,-309.51 406.31,-304.44 405.18,-311.34"/>
</g>
<!-- n8 -->
<g id="node4" class="node">
<title>n8</title>
<polygon fill="none" stroke="black" points="1275.84,-211 1220.59,-193 1275.84,-175 1331.09,-193 1275.84,-211"/>
<text text-anchor="middle" x="1275.84" y="-187.95" font-family="Times,serif" font-size="14.00">temp_2</text>
</g>
<!-- x0 -->
<g id="node7" class="node">
<title>x0</title>
<path fill="none" stroke="black" d="M1379.09,-175C1379.09,-175 1417.59,-175 1417.59,-175 1423.59,-175 1429.59,-181 1429.59,-187 1429.59,-187 1429.59,-199 1429.59,-199 1429.59,-205 1423.59,-211 1417.59,-211 1417.59,-211 1379.09,-211 1379.09,-211 1373.09,-211 1367.09,-205 1367.09,-199 1367.09,-199 1367.09,-187 1367.09,-187 1367.09,-181 1373.09,-175 1379.09,-175"/>
<text text-anchor="middle" x="1398.34" y="-188.2" font-family="Times,serif" font-size="14.00">1:0 &#45; 1:0</text>
</g>
<!-- n8&#45;&gt;x0 -->
<g id="edge28" class="edge">
<title>n8:e&#45;&gt;x0:w</title>
<path fill="none" stroke="black" stroke-width="3" d="M1331.09,-193C1342.47,-193 1347.78,-193.13 1355.65,-193.2"/>
<polygon fill="black" stroke="black" stroke-width="3" points="1352.54,-196.69 1362.55,-193.23 1352.57,-189.69 1352.54,-196.69"/>
</g>
<!-- c12&#45;&gt;n7 -->
<g id="edge22" class="edge">
<title>c12:e&#45;&gt;n7:w</title>
<path fill="none" stroke="black" stroke-width="3" d="M237.59,-156.25C249.29,-156.25 254.36,-159.74 262.33,-161.7"/>
<polygon fill="black" stroke="black" stroke-width="3" points="258.74,-164.81 269.08,-162.48 259.55,-157.85 258.74,-164.81"/>
</g>
<!-- c13 -->
<g id="node6" class="node">
<title>c13</title>
<polygon fill="none" stroke="black" points="1465.59,-156.5 1465.59,-205.5 1559.34,-205.5 1559.34,-156.5 1465.59,-156.5"/>
<text text-anchor="middle" x="1478.47" y="-188.2" font-family="Times,serif" font-size="14.00">A</text>
<polyline fill="none" stroke="black" points="1465.59,-181 1491.34,-181"/>
<text text-anchor="middle" x="1478.47" y="-163.7" font-family="Times,serif" font-size="14.00">B</text>
<polyline fill="none" stroke="black" points="1491.34,-156.5 1491.34,-205.5"/>
<text text-anchor="middle" x="1512.47" y="-184.2" font-family="Times,serif" font-size="14.00">$13</text>
<text text-anchor="middle" x="1512.47" y="-167.7" font-family="Times,serif" font-size="14.00">$add</text>
<polyline fill="none" stroke="black" points="1533.59,-156.5 1533.59,-205.5"/>
<text text-anchor="middle" x="1546.47" y="-176.2" font-family="Times,serif" font-size="14.00">Y</text>
</g>
<!-- c14 -->
<g id="node9" class="node">
<title>c14</title>
<polygon fill="none" stroke="black" points="1653.05,-130.5 1653.05,-179.5 1746.8,-179.5 1746.8,-130.5 1653.05,-130.5"/>
<text text-anchor="middle" x="1665.92" y="-162.2" font-family="Times,serif" font-size="14.00">A</text>
<polyline fill="none" stroke="black" points="1653.05,-155 1678.8,-155"/>
<text text-anchor="middle" x="1665.92" y="-137.7" font-family="Times,serif" font-size="14.00">B</text>
<polyline fill="none" stroke="black" points="1678.8,-130.5 1678.8,-179.5"/>
<text text-anchor="middle" x="1699.92" y="-158.2" font-family="Times,serif" font-size="14.00">$14</text>
<text text-anchor="middle" x="1699.92" y="-141.7" font-family="Times,serif" font-size="14.00">$and</text>
<polyline fill="none" stroke="black" points="1721.05,-130.5 1721.05,-179.5"/>
<text text-anchor="middle" x="1733.92" y="-150.2" font-family="Times,serif" font-size="14.00">Y</text>
</g>
<!-- c13&#45;&gt;c14 -->
<g id="edge9" class="edge">
<title>c13:e&#45;&gt;c14:w</title>
<path fill="none" stroke="black" stroke-width="3" d="M1559.34,-181.25C1596.94,-181.25 1608.24,-169.85 1640.7,-167.62"/>
<polygon fill="black" stroke="black" stroke-width="3" points="1637.63,-171.23 1647.51,-167.4 1637.4,-164.23 1637.63,-171.23"/>
</g>
<!-- x0&#45;&gt;c13 -->
<g id="edge1" class="edge">
<title>x0:e&#45;&gt;c13:w</title>
<path fill="none" stroke="black" stroke-width="3" d="M1442.31,-193.06C1445.91,-193.1 1449.04,-193.15 1452.62,-193.18"/>
<polygon fill="none" stroke="black" stroke-width="3" points="1444.3,-193.07 1438.28,-197.04 1432.3,-193.01 1438.32,-189.04 1444.3,-193.07"/>
<polygon fill="none" stroke="black" stroke-width="3" points="1450.89,-193.18 1456.91,-189.21 1462.89,-193.24 1456.87,-197.21 1450.89,-193.18"/>
</g>
<!-- x1&#45;&gt;c13 -->
<g id="edge2" class="edge">
<title>x1:e&#45;&gt;c13:w</title>
<path fill="none" stroke="black" stroke-width="3" d="M373.91,-43.03C461.8,-43.44 488.4,-48 582.34,-48 582.34,-48 582.34,-48 1276.84,-48 1371.96,-48 1366.72,-158.15 1452.82,-168.04"/>
<polygon fill="none" stroke="black" stroke-width="3" points="375.8,-43.03 369.79,-47.02 363.8,-43.01 369.8,-39.02 375.8,-43.03"/>
<polygon fill="none" stroke="black" stroke-width="3" points="1450.91,-167.93 1457.12,-164.27 1462.89,-168.6 1456.68,-172.26 1450.91,-167.93"/>
</g>
<!-- x3 -->
<g id="node11" class="node">
<title>x3</title>
<path fill="none" stroke="black" d="M1859.25,-135C1859.25,-135 1897.75,-135 1897.75,-135 1903.75,-135 1909.75,-141 1909.75,-147 1909.75,-147 1909.75,-159 1909.75,-159 1909.75,-165 1903.75,-171 1897.75,-171 1897.75,-171 1859.25,-171 1859.25,-171 1853.25,-171 1847.25,-165 1847.25,-159 1847.25,-159 1847.25,-147 1847.25,-147 1847.25,-141 1853.25,-135 1859.25,-135"/>
<text text-anchor="middle" x="1878.5" y="-148.2" font-family="Times,serif" font-size="14.00">1:0 &#45; 1:0</text>
</g>
<!-- c14&#45;&gt;x3 -->
<g id="edge4" class="edge">
<title>c14:e&#45;&gt;x3:w</title>
<path fill="none" stroke="black" stroke-width="3" d="M1760.63,-155.18C1790.3,-154.84 1803.8,-153.4 1833.49,-153.07"/>
<polygon fill="none" stroke="black" stroke-width="3" points="1762.5,-155.17 1756.52,-159.2 1750.5,-155.24 1756.48,-151.2 1762.5,-155.17"/>
<polygon fill="none" stroke="black" stroke-width="3" points="1831.55,-153.08 1837.53,-149.05 1843.55,-153.01 1837.57,-157.05 1831.55,-153.08"/>
</g>
<!-- x2&#45;&gt;c14 -->
<g id="edge3" class="edge">
<title>x2:e&#45;&gt;c14:w</title>
<path fill="none" stroke="black" stroke-width="3" d="M726.14,-136.92C795.63,-136.01 817.53,-128 893.09,-128 893.09,-128 893.09,-128 1399.34,-128 1507.45,-128 1537.25,-141.62 1639.24,-142.68"/>
<polygon fill="none" stroke="black" stroke-width="3" points="727.8,-136.91 721.82,-140.94 715.8,-136.98 721.77,-132.94 727.8,-136.91"/>
<polygon fill="none" stroke="black" stroke-width="3" points="1637.34,-142.67 1643.36,-138.71 1649.34,-142.74 1643.32,-146.71 1637.34,-142.67"/>
</g>
<!-- x3&#45;&gt;n6 -->
<g id="edge20" class="edge">
<title>x3:e&#45;&gt;n6:w</title>
<path fill="none" stroke="black" stroke-width="3" d="M1910.75,-153.25C1928.81,-153.25 1930.21,-134.68 1941.5,-127.13"/>
<polygon fill="black" stroke="black" stroke-width="3" points="1939.47,-131.35 1948.13,-125.24 1937.56,-124.61 1939.47,-131.35"/>
</g>
<!-- x7 -->
<g id="node19" class="node">
<title>x7</title>
<path fill="none" stroke="black" d="M761.09,-171.5C761.09,-171.5 799.59,-171.5 799.59,-171.5 805.59,-171.5 811.59,-177.5 811.59,-183.5 811.59,-183.5 811.59,-208.5 811.59,-208.5 811.59,-214.5 805.59,-220.5 799.59,-220.5 799.59,-220.5 761.09,-220.5 761.09,-220.5 755.09,-220.5 749.09,-214.5 749.09,-208.5 749.09,-208.5 749.09,-183.5 749.09,-183.5 749.09,-177.5 755.09,-171.5 761.09,-171.5"/>
<text text-anchor="middle" x="780.34" y="-203.2" font-family="Times,serif" font-size="14.00">1 &#45;&gt; 6:3</text>
<polyline fill="none" stroke="black" points="749.09,-196 811.59,-196"/>
<text text-anchor="middle" x="780.34" y="-178.7" font-family="Times,serif" font-size="14.00">2:0 &#45; 2:0</text>
</g>
<!-- c15&#45;&gt;x7 -->
<g id="edge10" class="edge">
<title>c15:e&#45;&gt;x7:w</title>
<path fill="none" stroke="black" stroke-width="3" d="M514.84,-180.25C615.1,-180.25 642.93,-183.5 737.81,-183.74"/>
<polygon fill="black" stroke="black" stroke-width="3" points="734.55,-187.23 744.55,-183.74 734.56,-180.23 734.55,-187.23"/>
</g>
<!-- x4 -->
<g id="node14" class="node">
<title>x4</title>
<path fill="none" stroke="black" d="M564.09,-278C564.09,-278 602.59,-278 602.59,-278 608.59,-278 614.59,-284 614.59,-290 614.59,-290 614.59,-302 614.59,-302 614.59,-308 608.59,-314 602.59,-314 602.59,-314 564.09,-314 564.09,-314 558.09,-314 552.09,-308 552.09,-302 552.09,-302 552.09,-290 552.09,-290 552.09,-284 558.09,-278 564.09,-278"/>
<text text-anchor="middle" x="583.34" y="-291.2" font-family="Times,serif" font-size="14.00">5:0 &#45; 5:0</text>
</g>
<!-- c16&#45;&gt;x4 -->
<g id="edge5" class="edge">
<title>c16:e&#45;&gt;x4:w</title>
<path fill="none" stroke="black" stroke-width="3" d="M528.82,-297.68C532.42,-297.35 535.54,-296.93 539.11,-296.59"/>
<polygon fill="none" stroke="black" stroke-width="3" points="530.78,-297.59 524.97,-301.86 518.79,-298.13 524.61,-293.87 530.78,-297.59"/>
<polygon fill="none" stroke="black" stroke-width="3" points="537.4,-296.67 543.21,-292.4 549.39,-296.12 543.58,-300.39 537.4,-296.67"/>
</g>
<!-- n3 -->
<g id="node26" class="node">
<title>n3</title>
<ellipse fill="black" stroke="black" cx="681.84" cy="-258" rx="1.8" ry="1.8"/>
</g>
<!-- x4&#45;&gt;n3 -->
<g id="edge12" class="edge">
<title>x4:e&#45;&gt;n3:w</title>
<path fill="none" stroke="black" stroke-width="3" d="M614.59,-296.25C643.45,-296.25 645.44,-267.23 667.37,-259.74"/>
<polygon fill="black" stroke="black" stroke-width="3" points="664.73,-263.69 674.08,-258.7 663.66,-256.78 664.73,-263.69"/>
</g>
<!-- x5 -->
<g id="node16" class="node">
<title>x5</title>
<path fill="none" stroke="black" d="M1127.34,-215C1127.34,-215 1165.84,-215 1165.84,-215 1171.84,-215 1177.84,-221 1177.84,-227 1177.84,-227 1177.84,-239 1177.84,-239 1177.84,-245 1171.84,-251 1165.84,-251 1165.84,-251 1127.34,-251 1127.34,-251 1121.34,-251 1115.34,-245 1115.34,-239 1115.34,-239 1115.34,-227 1115.34,-227 1115.34,-221 1121.34,-215 1127.34,-215"/>
<text text-anchor="middle" x="1146.59" y="-228.2" font-family="Times,serif" font-size="14.00">1:0 &#45; 1:0</text>
</g>
<!-- c17&#45;&gt;x5 -->
<g id="edge6" class="edge">
<title>c17:e&#45;&gt;x5:w</title>
<path fill="none" stroke="black" stroke-width="3" d="M1085.57,-234.82C1091.23,-234.42 1095.72,-233.83 1101.38,-233.43"/>
<polygon fill="none" stroke="black" stroke-width="3" points="1087.29,-234.76 1081.42,-238.96 1075.29,-235.16 1081.16,-230.96 1087.29,-234.76"/>
<polygon fill="none" stroke="black" stroke-width="3" points="1099.65,-233.49 1105.51,-229.29 1111.64,-233.09 1105.78,-237.29 1099.65,-233.49"/>
</g>
<!-- x5&#45;&gt;n8 -->
<g id="edge27" class="edge">
<title>x5:e&#45;&gt;n8:w</title>
<path fill="none" stroke="black" stroke-width="3" d="M1178.84,-233.25C1199.99,-233.25 1197.19,-206.17 1209.73,-196.43"/>
<polygon fill="black" stroke="black" stroke-width="3" points="1207.78,-200.72 1216.26,-194.37 1205.67,-194.04 1207.78,-200.72"/>
</g>
<!-- c18 -->
<g id="node17" class="node">
<title>c18</title>
<polygon fill="none" stroke="black" points="847.59,-221.5 847.59,-270.5 940.59,-270.5 940.59,-221.5 847.59,-221.5"/>
<text text-anchor="middle" x="860.47" y="-253.2" font-family="Times,serif" font-size="14.00">A</text>
<polyline fill="none" stroke="black" points="847.59,-246 873.34,-246"/>
<text text-anchor="middle" x="860.47" y="-228.7" font-family="Times,serif" font-size="14.00">B</text>
<polyline fill="none" stroke="black" points="873.34,-221.5 873.34,-270.5"/>
<text text-anchor="middle" x="894.09" y="-249.2" font-family="Times,serif" font-size="14.00">$6</text>
<text text-anchor="middle" x="894.09" y="-232.7" font-family="Times,serif" font-size="14.00">$sub</text>
<polyline fill="none" stroke="black" points="914.84,-221.5 914.84,-270.5"/>
<text text-anchor="middle" x="927.72" y="-241.2" font-family="Times,serif" font-size="14.00">Y</text>
</g>
<!-- c18&#45;&gt;c17 -->
<g id="edge14" class="edge">
<title>c18:e&#45;&gt;c17:w</title>
<path fill="none" stroke="black" stroke-width="3" d="M940.59,-246.25C951.97,-246.25 957.28,-246.76 965.14,-247.05"/>
<polygon fill="black" stroke="black" stroke-width="3" points="961.99,-250.49 972.05,-247.17 962.12,-243.49 961.99,-250.49"/>
</g>
<!-- x6 -->
<g id="node18" class="node">
<title>x6</title>
<path fill="none" stroke="black" d="M761.09,-240C761.09,-240 799.59,-240 799.59,-240 805.59,-240 811.59,-246 811.59,-252 811.59,-252 811.59,-264 811.59,-264 811.59,-270 805.59,-276 799.59,-276 799.59,-276 761.09,-276 761.09,-276 755.09,-276 749.09,-270 749.09,-264 749.09,-264 749.09,-252 749.09,-252 749.09,-246 755.09,-240 761.09,-240"/>
<text text-anchor="middle" x="780.34" y="-253.2" font-family="Times,serif" font-size="14.00">5:0 &#45; 5:0</text>
</g>
<!-- x6&#45;&gt;c18 -->
<g id="edge7" class="edge">
<title>x6:e&#45;&gt;c18:w</title>
<path fill="none" stroke="black" stroke-width="3" d="M824.31,-258.06C827.91,-258.1 831.04,-258.15 834.62,-258.18"/>
<polygon fill="none" stroke="black" stroke-width="3" points="826.3,-258.07 820.28,-262.04 814.3,-258.01 820.32,-254.04 826.3,-258.07"/>
<polygon fill="none" stroke="black" stroke-width="3" points="832.89,-258.18 838.91,-254.21 844.89,-258.24 838.87,-262.21 832.89,-258.18"/>
</g>
<!-- x7&#45;&gt;c18 -->
<g id="edge8" class="edge">
<title>x7:e&#45;&gt;c18:w</title>
<path fill="none" stroke="black" stroke-width="3" d="M823.23,-201.25C829.09,-208.38 830.02,-221.07 835.79,-228.3"/>
<polygon fill="none" stroke="black" stroke-width="3" points="825,-202.05 817.88,-203.23 814.06,-197.11 821.17,-195.93 825,-202.05"/>
<polygon fill="none" stroke="black" stroke-width="3" points="834.24,-227.58 841.37,-226.47 845.14,-232.62 838.01,-233.73 834.24,-227.58"/>
</g>
<!-- v8 -->
<g id="node20" class="node">
<title>v8</title>
<ellipse fill="none" stroke="black" cx="1699.92" cy="-94" rx="104.58" ry="18"/>
<text text-anchor="middle" x="1699.92" y="-88.95" font-family="Times,serif" font-size="14.00">18&#39;000000000000000000</text>
</g>
<!-- x9 -->
<g id="node21" class="node">
<title>x9</title>
<path fill="none" stroke="black" d="M1852.5,-79C1852.5,-79 1904.5,-79 1904.5,-79 1910.5,-79 1916.5,-85 1916.5,-91 1916.5,-91 1916.5,-103 1916.5,-103 1916.5,-109 1910.5,-115 1904.5,-115 1904.5,-115 1852.5,-115 1852.5,-115 1846.5,-115 1840.5,-109 1840.5,-103 1840.5,-103 1840.5,-91 1840.5,-91 1840.5,-85 1846.5,-79 1852.5,-79"/>
<text text-anchor="middle" x="1878.5" y="-92.2" font-family="Times,serif" font-size="14.00">17:0 &#45; 19:2</text>
</g>
<!-- v8&#45;&gt;x9 -->
<g id="edge31" class="edge">
<title>v8:e&#45;&gt;x9:w</title>
<path fill="none" stroke="black" stroke-width="3" d="M1804.5,-94C1815.92,-94 1821.18,-95.52 1829.04,-96.39"/>
<polygon fill="black" stroke="black" stroke-width="3" points="1825.8,-99.73 1835.97,-96.76 1826.17,-92.74 1825.8,-99.73"/>
</g>
<!-- x9&#45;&gt;n6 -->
<g id="edge21" class="edge">
<title>x9:e&#45;&gt;n6:w</title>
<path fill="none" stroke="black" stroke-width="3" d="M1916.5,-97.25C1931.76,-97.25 1933.07,-112.93 1941.8,-120.28"/>
<polygon fill="black" stroke="black" stroke-width="3" points="1937.62,-122.53 1948.21,-122.51 1939.92,-115.92 1937.62,-122.53"/>
</g>
<!-- v10 -->
<g id="node22" class="node">
<title>v10</title>
<ellipse fill="none" stroke="black" cx="1024.59" cy="-174" rx="27" ry="18"/>
<text text-anchor="middle" x="1024.59" y="-168.95" font-family="Times,serif" font-size="14.00">29&#39;x</text>
</g>
<!-- x11 -->
<g id="node23" class="node">
<title>x11</title>
<path fill="none" stroke="black" d="M1120.59,-159C1120.59,-159 1172.59,-159 1172.59,-159 1178.59,-159 1184.59,-165 1184.59,-171 1184.59,-171 1184.59,-183 1184.59,-183 1184.59,-189 1178.59,-195 1172.59,-195 1172.59,-195 1120.59,-195 1120.59,-195 1114.59,-195 1108.59,-189 1108.59,-183 1108.59,-183 1108.59,-171 1108.59,-171 1108.59,-165 1114.59,-159 1120.59,-159"/>
<text text-anchor="middle" x="1146.59" y="-172.2" font-family="Times,serif" font-size="14.00">28:0 &#45; 30:2</text>
</g>
<!-- v10&#45;&gt;x11 -->
<g id="edge29" class="edge">
<title>v10:e&#45;&gt;x11:w</title>
<path fill="none" stroke="black" stroke-width="3" d="M1052.84,-174C1073.39,-174 1081.12,-176.06 1097.26,-176.76"/>
<polygon fill="black" stroke="black" stroke-width="3" points="1093.98,-180.2 1104.05,-176.91 1094.13,-173.2 1093.98,-180.2"/>
</g>
<!-- x11&#45;&gt;n8 -->
<g id="edge26" class="edge">
<title>x11:e&#45;&gt;n8:w</title>
<path fill="none" stroke="black" stroke-width="3" d="M1184.59,-177.25C1197.42,-177.25 1201.4,-185.74 1209.53,-190.26"/>
<polygon fill="black" stroke="black" stroke-width="3" points="1205.64,-192.9 1216.18,-191.91 1207.32,-186.1 1205.64,-192.9"/>
</g>
<!-- v12 -->
<g id="node24" class="node">
<title>v12</title>
<ellipse fill="none" stroke="black" cx="468.09" cy="-237" rx="27" ry="18"/>
<text text-anchor="middle" x="468.09" y="-231.95" font-family="Times,serif" font-size="14.00">1&#39;0</text>
</g>
<!-- x13 -->
<g id="node25" class="node">
<title>x13</title>
<path fill="none" stroke="black" d="M564.09,-220C564.09,-220 602.59,-220 602.59,-220 608.59,-220 614.59,-226 614.59,-232 614.59,-232 614.59,-244 614.59,-244 614.59,-250 608.59,-256 602.59,-256 602.59,-256 564.09,-256 564.09,-256 558.09,-256 552.09,-250 552.09,-244 552.09,-244 552.09,-232 552.09,-232 552.09,-226 558.09,-220 564.09,-220"/>
<text text-anchor="middle" x="583.34" y="-233.2" font-family="Times,serif" font-size="14.00">0:0 &#45; 6:6</text>
</g>
<!-- v12&#45;&gt;x13 -->
<g id="edge30" class="edge">
<title>v12:e&#45;&gt;x13:w</title>
<path fill="none" stroke="black" d="M496.34,-237C516.87,-237 524.64,-237.69 540.77,-237.92"/>
<polygon fill="black" stroke="black" points="540.55,-241.42 550.58,-237.99 540.6,-234.42 540.55,-241.42"/>
</g>
<!-- x13&#45;&gt;n3 -->
<g id="edge11" class="edge">
<title>x13:e&#45;&gt;n3:w</title>
<path fill="none" stroke="black" d="M614.59,-238.25C640.16,-238.25 647.05,-252.84 667.37,-256.94"/>
<polygon fill="black" stroke="black" points="666.77,-260.4 677.06,-257.86 667.43,-253.43 666.77,-260.4"/>
</g>
<!-- n3&#45;&gt;x6 -->
<g id="edge13" class="edge">
<title>n3:e&#45;&gt;x6:w</title>
<path fill="none" stroke="black" stroke-width="3" d="M685.12,-258C709.33,-258 718.08,-258.18 737.7,-258.24"/>
<polygon fill="black" stroke="black" stroke-width="3" points="734.55,-261.73 744.55,-258.24 734.56,-254.73 734.55,-261.73"/>
</g>
</g>
</svg>
