<?xml version="1.0" encoding="UTF-8" standalone="no"?>
<!DOCTYPE svg PUBLIC "-//W3C//DTD SVG 1.1//EN"
 "http://www.w3.org/Graphics/SVG/1.1/DTD/svg11.dtd">
<!-- Generated by graphviz version 12.2.1 (20241206.2353)
 -->
<!-- Title: top Pages: 1 -->
<svg width="4402pt" height="1106pt"
 viewBox="0.00 0.00 4402.43 1106.00" xmlns="http://www.w3.org/2000/svg" xmlns:xlink="http://www.w3.org/1999/xlink">
<g id="graph0" class="graph" transform="scale(1 1) rotate(0) translate(4 1102)">
<title>top</title>
<polygon fill="white" stroke="none" points="-4,4 -4,-1102 4398.43,-1102 4398.43,4 -4,4"/>
<text text-anchor="middle" x="2197.21" y="-7.2" font-family="Times,serif" font-size="14.00">top</text>
<!-- n18 -->
<g id="node1" class="node">
<title>n18</title>
<polygon fill="none" stroke="black" points="107.84,-411.04 107.84,-425.96 76.26,-436.5 31.59,-436.5 0,-425.96 0,-411.04 31.59,-400.5 76.26,-400.5 107.84,-411.04"/>
<text text-anchor="middle" x="53.92" y="-413.45" font-family="Times,serif" font-size="14.00">input_data</text>
</g>
<!-- c27 -->
<g id="node7" class="node">
<title>c27</title>
<polygon fill="none" stroke="black" points="143.84,-406 143.84,-455 237.59,-455 237.59,-406 143.84,-406"/>
<text text-anchor="middle" x="156.72" y="-437.7" font-family="Times,serif" font-size="14.00">A</text>
<polyline fill="none" stroke="black" points="143.84,-430.5 169.59,-430.5"/>
<text text-anchor="middle" x="156.72" y="-413.2" font-family="Times,serif" font-size="14.00">B</text>
<polyline fill="none" stroke="black" points="169.59,-406 169.59,-455"/>
<text text-anchor="middle" x="190.72" y="-433.7" font-family="Times,serif" font-size="14.00">$1</text>
<text text-anchor="middle" x="190.72" y="-417.2" font-family="Times,serif" font-size="14.00">$add</text>
<polyline fill="none" stroke="black" points="211.84,-406 211.84,-455"/>
<text text-anchor="middle" x="224.72" y="-425.7" font-family="Times,serif" font-size="14.00">Y</text>
</g>
<!-- n18&#45;&gt;c27 -->
<g id="edge48" class="edge">
<title>n18:e&#45;&gt;c27:w</title>
<path fill="none" stroke="black" stroke-width="3" d="M107.84,-418.5C122.46,-418.5 124.52,-432.43 133.05,-439.17"/>
<polygon fill="black" stroke="black" stroke-width="3" points="128.94,-441.49 139.53,-441.32 131.14,-434.85 128.94,-441.49"/>
</g>
<!-- n18&#45;&gt;c27 -->
<g id="edge49" class="edge">
<title>n18:e&#45;&gt;c27:w</title>
<path fill="none" stroke="black" stroke-width="3" d="M107.84,-418.5C119.22,-418.5 124.53,-418.37 132.39,-418.3"/>
<polygon fill="black" stroke="black" stroke-width="3" points="129.32,-421.81 139.3,-418.27 129.28,-414.81 129.32,-421.81"/>
</g>
<!-- x2 -->
<g id="node13" class="node">
<title>x2</title>
<path fill="none" stroke="black" d="M171.47,-1061.5C171.47,-1061.5 209.97,-1061.5 209.97,-1061.5 215.97,-1061.5 221.97,-1067.5 221.97,-1073.5 221.97,-1073.5 221.97,-1085.5 221.97,-1085.5 221.97,-1091.5 215.97,-1097.5 209.97,-1097.5 209.97,-1097.5 171.47,-1097.5 171.47,-1097.5 165.47,-1097.5 159.47,-1091.5 159.47,-1085.5 159.47,-1085.5 159.47,-1073.5 159.47,-1073.5 159.47,-1067.5 165.47,-1061.5 171.47,-1061.5"/>
<text text-anchor="middle" x="190.72" y="-1074.7" font-family="Times,serif" font-size="14.00">4:2 &#45; 2:0</text>
</g>
<!-- n18&#45;&gt;x2 -->
<g id="edge61" class="edge">
<title>n18:e&#45;&gt;x2:w</title>
<path fill="none" stroke="black" stroke-width="3" d="M107.84,-418.5C177.79,-418.5 94.17,-1014.3 148.51,-1074.81"/>
<polygon fill="black" stroke="black" stroke-width="3" points="143.89,-1076.42 154.4,-1077.73 147,-1070.15 143.89,-1076.42"/>
</g>
<!-- c31 -->
<g id="node16" class="node">
<title>c31</title>
<polygon fill="none" stroke="black" points="3127.34,-91 3127.34,-140 3221.09,-140 3221.09,-91 3127.34,-91"/>
<text text-anchor="middle" x="3140.22" y="-122.7" font-family="Times,serif" font-size="14.00">A</text>
<polyline fill="none" stroke="black" points="3127.34,-115.5 3153.09,-115.5"/>
<text text-anchor="middle" x="3140.22" y="-98.2" font-family="Times,serif" font-size="14.00">B</text>
<polyline fill="none" stroke="black" points="3153.09,-91 3153.09,-140"/>
<text text-anchor="middle" x="3174.22" y="-118.7" font-family="Times,serif" font-size="14.00">$27</text>
<text text-anchor="middle" x="3174.22" y="-102.2" font-family="Times,serif" font-size="14.00">$add</text>
<polyline fill="none" stroke="black" points="3195.34,-91 3195.34,-140"/>
<text text-anchor="middle" x="3208.22" y="-110.7" font-family="Times,serif" font-size="14.00">Y</text>
</g>
<!-- n18&#45;&gt;c31 -->
<g id="edge50" class="edge">
<title>n18:e&#45;&gt;c31:w</title>
<path fill="none" stroke="black" stroke-width="3" d="M107.84,-418.5C174.99,-418.5 97.15,-166.76 143.84,-118.5 198.75,-61.74 240.49,-91.5 319.47,-91.5 319.47,-91.5 319.47,-91.5 2962.59,-91.5 3032.13,-91.5 3051.89,-102.04 3116.18,-103.16"/>
<polygon fill="black" stroke="black" stroke-width="3" points="3112.77,-106.63 3122.8,-103.21 3112.83,-99.63 3112.77,-106.63"/>
</g>
<!-- c34 -->
<g id="node22" class="node">
<title>c34</title>
<polygon fill="none" stroke="black" points="2428.09,-196 2428.09,-245 2520.34,-245 2520.34,-196 2428.09,-196"/>
<text text-anchor="middle" x="2440.97" y="-227.7" font-family="Times,serif" font-size="14.00">A</text>
<polyline fill="none" stroke="black" points="2428.09,-220.5 2453.84,-220.5"/>
<text text-anchor="middle" x="2440.97" y="-203.2" font-family="Times,serif" font-size="14.00">B</text>
<polyline fill="none" stroke="black" points="2453.84,-196 2453.84,-245"/>
<text text-anchor="middle" x="2474.22" y="-223.7" font-family="Times,serif" font-size="14.00">$92</text>
<text text-anchor="middle" x="2474.22" y="-207.2" font-family="Times,serif" font-size="14.00">$xor</text>
<polyline fill="none" stroke="black" points="2494.59,-196 2494.59,-245"/>
<text text-anchor="middle" x="2507.47" y="-215.7" font-family="Times,serif" font-size="14.00">Y</text>
</g>
<!-- n18&#45;&gt;c34 -->
<g id="edge51" class="edge">
<title>n18:e&#45;&gt;c34:w</title>
<path fill="none" stroke="black" stroke-width="3" d="M107.84,-418.5C183.33,-418.5 91.75,-307.15 143.84,-252.5 199.59,-194.01 238.66,-205.5 319.47,-205.5 319.47,-205.5 319.47,-205.5 2233.59,-205.5 2316.16,-205.5 2339.57,-208.01 2416.82,-208.23"/>
<polygon fill="black" stroke="black" stroke-width="3" points="2413.55,-211.73 2423.55,-208.24 2413.56,-204.73 2413.55,-211.73"/>
</g>
<!-- c35 -->
<g id="node24" class="node">
<title>c35</title>
<polygon fill="none" stroke="black" points="2567.72,-171 2567.72,-220 2655.47,-220 2655.47,-171 2567.72,-171"/>
<text text-anchor="middle" x="2580.59" y="-202.7" font-family="Times,serif" font-size="14.00">A</text>
<polyline fill="none" stroke="black" points="2567.72,-195.5 2593.47,-195.5"/>
<text text-anchor="middle" x="2580.59" y="-178.2" font-family="Times,serif" font-size="14.00">B</text>
<polyline fill="none" stroke="black" points="2593.47,-171 2593.47,-220"/>
<text text-anchor="middle" x="2611.59" y="-198.7" font-family="Times,serif" font-size="14.00">$95</text>
<text text-anchor="middle" x="2611.59" y="-182.2" font-family="Times,serif" font-size="14.00">$or</text>
<polyline fill="none" stroke="black" points="2629.72,-171 2629.72,-220"/>
<text text-anchor="middle" x="2642.59" y="-190.7" font-family="Times,serif" font-size="14.00">Y</text>
</g>
<!-- n18&#45;&gt;c35 -->
<g id="edge52" class="edge">
<title>n18:e&#45;&gt;c35:w</title>
<path fill="none" stroke="black" stroke-width="3" d="M107.84,-418.5C156.72,-418.5 109.74,-236.52 143.84,-201.5 199.3,-144.53 239.96,-167.5 319.47,-167.5 319.47,-167.5 319.47,-167.5 2346.97,-167.5 2440.96,-167.5 2466.77,-182.01 2555.3,-183.18"/>
<polygon fill="black" stroke="black" stroke-width="3" points="2552.16,-186.66 2562.18,-183.22 2552.2,-179.66 2552.16,-186.66"/>
</g>
<!-- c36 -->
<g id="node25" class="node">
<title>c36</title>
<polygon fill="none" stroke="black" points="3355.59,-79 3355.59,-128 3449.34,-128 3449.34,-79 3355.59,-79"/>
<text text-anchor="middle" x="3368.47" y="-110.7" font-family="Times,serif" font-size="14.00">A</text>
<polyline fill="none" stroke="black" points="3355.59,-103.5 3381.34,-103.5"/>
<text text-anchor="middle" x="3368.47" y="-86.2" font-family="Times,serif" font-size="14.00">B</text>
<polyline fill="none" stroke="black" points="3381.34,-79 3381.34,-128"/>
<text text-anchor="middle" x="3402.47" y="-106.7" font-family="Times,serif" font-size="14.00">$98</text>
<text text-anchor="middle" x="3402.47" y="-90.2" font-family="Times,serif" font-size="14.00">$and</text>
<polyline fill="none" stroke="black" points="3423.59,-79 3423.59,-128"/>
<text text-anchor="middle" x="3436.47" y="-98.7" font-family="Times,serif" font-size="14.00">Y</text>
</g>
<!-- n18&#45;&gt;c36 -->
<g id="edge53" class="edge">
<title>n18:e&#45;&gt;c36:w</title>
<path fill="none" stroke="black" stroke-width="3" d="M107.84,-418.5C183.6,-418.5 91.39,-134.16 143.84,-79.5 198.48,-22.57 240.56,-53.5 319.47,-53.5 319.47,-53.5 319.47,-53.5 3175.22,-53.5 3253.28,-53.5 3271.99,-87.79 3344.49,-91.01"/>
<polygon fill="black" stroke="black" stroke-width="3" points="3340.98,-94.43 3351.05,-91.15 3341.13,-87.43 3340.98,-94.43"/>
</g>
<!-- x14 -->
<g id="node33" class="node">
<title>x14</title>
<path fill="none" stroke="black" d="M719.09,-965C719.09,-965 757.59,-965 757.59,-965 763.59,-965 769.59,-971 769.59,-977 769.59,-977 769.59,-1002 769.59,-1002 769.59,-1008 763.59,-1014 757.59,-1014 757.59,-1014 719.09,-1014 719.09,-1014 713.09,-1014 707.09,-1008 707.09,-1002 707.09,-1002 707.09,-977 707.09,-977 707.09,-971 713.09,-965 719.09,-965"/>
<text text-anchor="middle" x="738.34" y="-996.7" font-family="Times,serif" font-size="14.00">3:1 &#45; 3:1</text>
<polyline fill="none" stroke="black" points="707.09,-989.5 769.59,-989.5"/>
<text text-anchor="middle" x="738.34" y="-972.2" font-family="Times,serif" font-size="14.00">1:1 &#45; 0:0</text>
</g>
<!-- n18&#45;&gt;x14 -->
<g id="edge57" class="edge">
<title>n18:e&#45;&gt;x14:w</title>
<path fill="none" stroke="black" d="M107.84,-418.5C158.22,-418.5 112.11,-831.36 143.84,-870.5 195.1,-933.74 238.06,-922.5 319.47,-922.5 319.47,-922.5 319.47,-922.5 459.59,-922.5 567.87,-922.5 592.2,-973.47 694.58,-977.05"/>
<polygon fill="black" stroke="black" points="694.52,-980.55 704.58,-977.22 694.64,-973.55 694.52,-980.55"/>
</g>
<!-- x16 -->
<g id="node36" class="node">
<title>x16</title>
<path fill="none" stroke="black" d="M439.34,-857.5C439.34,-857.5 477.84,-857.5 477.84,-857.5 483.84,-857.5 489.84,-863.5 489.84,-869.5 489.84,-869.5 489.84,-881.5 489.84,-881.5 489.84,-887.5 483.84,-893.5 477.84,-893.5 477.84,-893.5 439.34,-893.5 439.34,-893.5 433.34,-893.5 427.34,-887.5 427.34,-881.5 427.34,-881.5 427.34,-869.5 427.34,-869.5 427.34,-863.5 433.34,-857.5 439.34,-857.5"/>
<text text-anchor="middle" x="458.59" y="-870.7" font-family="Times,serif" font-size="14.00">4:1 &#45; 3:0</text>
</g>
<!-- n18&#45;&gt;x16 -->
<g id="edge58" class="edge">
<title>n18:e&#45;&gt;x16:w</title>
<path fill="none" stroke="black" stroke-width="3" d="M107.84,-418.5C153.46,-418.5 113.78,-793.18 143.84,-827.5 225.23,-920.41 294.64,-878.5 414.93,-875.88"/>
<polygon fill="black" stroke="black" stroke-width="3" points="411.84,-879.41 421.8,-875.8 411.76,-872.41 411.84,-879.41"/>
</g>
<!-- x17 -->
<g id="node38" class="node">
<title>x17</title>
<path fill="none" stroke="black" d="M301.22,-810.5C301.22,-810.5 339.72,-810.5 339.72,-810.5 345.72,-810.5 351.72,-816.5 351.72,-822.5 351.72,-822.5 351.72,-834.5 351.72,-834.5 351.72,-840.5 345.72,-846.5 339.72,-846.5 339.72,-846.5 301.22,-846.5 301.22,-846.5 295.22,-846.5 289.22,-840.5 289.22,-834.5 289.22,-834.5 289.22,-822.5 289.22,-822.5 289.22,-816.5 295.22,-810.5 301.22,-810.5"/>
<text text-anchor="middle" x="320.47" y="-823.7" font-family="Times,serif" font-size="14.00">4:1 &#45; 3:0</text>
</g>
<!-- n18&#45;&gt;x17 -->
<g id="edge59" class="edge">
<title>n18:e&#45;&gt;x17:w</title>
<path fill="none" stroke="black" stroke-width="3" d="M107.84,-418.5C192,-418.5 88.36,-732.22 143.84,-795.5 184.71,-842.11 218.23,-830.43 276.95,-828.9"/>
<polygon fill="black" stroke="black" stroke-width="3" points="273.72,-832.44 283.68,-828.81 273.63,-825.45 273.72,-832.44"/>
</g>
<!-- c41 -->
<g id="node39" class="node">
<title>c41</title>
<polygon fill="none" stroke="black" points="1181.34,-418 1181.34,-467 1274.34,-467 1274.34,-418 1181.34,-418"/>
<text text-anchor="middle" x="1194.22" y="-449.7" font-family="Times,serif" font-size="14.00">A</text>
<polyline fill="none" stroke="black" points="1181.34,-442.5 1207.09,-442.5"/>
<text text-anchor="middle" x="1194.22" y="-425.2" font-family="Times,serif" font-size="14.00">B</text>
<polyline fill="none" stroke="black" points="1207.09,-418 1207.09,-467"/>
<text text-anchor="middle" x="1227.84" y="-445.7" font-family="Times,serif" font-size="14.00">$21</text>
<text text-anchor="middle" x="1227.84" y="-429.2" font-family="Times,serif" font-size="14.00">$sub</text>
<polyline fill="none" stroke="black" points="1248.59,-418 1248.59,-467"/>
<text text-anchor="middle" x="1261.47" y="-437.7" font-family="Times,serif" font-size="14.00">Y</text>
</g>
<!-- n18&#45;&gt;c41 -->
<g id="edge54" class="edge">
<title>n18:e&#45;&gt;c41:w</title>
<path fill="none" stroke="black" stroke-width="3" d="M107.84,-418.5C114.84,-418.5 312.46,-281.5 319.47,-281.5 319.47,-281.5 319.47,-281.5 966.22,-281.5 1078.13,-281.5 1065.51,-420.26 1168.92,-429.74"/>
<polygon fill="black" stroke="black" stroke-width="3" points="1165.66,-433.1 1175.81,-430.05 1165.97,-426.11 1165.66,-433.1"/>
</g>
<!-- c42 -->
<g id="node41" class="node">
<title>c42</title>
<polygon fill="none" stroke="black" points="1715.84,-244 1715.84,-293 1808.84,-293 1808.84,-244 1715.84,-244"/>
<text text-anchor="middle" x="1728.72" y="-275.7" font-family="Times,serif" font-size="14.00">A</text>
<polyline fill="none" stroke="black" points="1715.84,-268.5 1741.59,-268.5"/>
<text text-anchor="middle" x="1728.72" y="-251.2" font-family="Times,serif" font-size="14.00">B</text>
<polyline fill="none" stroke="black" points="1741.59,-244 1741.59,-293"/>
<text text-anchor="middle" x="1762.34" y="-271.7" font-family="Times,serif" font-size="14.00">$23</text>
<text text-anchor="middle" x="1762.34" y="-255.2" font-family="Times,serif" font-size="14.00">$sub</text>
<polyline fill="none" stroke="black" points="1783.09,-244 1783.09,-293"/>
<text text-anchor="middle" x="1795.97" y="-263.7" font-family="Times,serif" font-size="14.00">Y</text>
</g>
<!-- n18&#45;&gt;c42 -->
<g id="edge55" class="edge">
<title>n18:e&#45;&gt;c42:w</title>
<path fill="none" stroke="black" stroke-width="3" d="M107.84,-418.5C148.87,-418.5 115.91,-363.55 143.84,-333.5 203.56,-269.26 231.76,-243.5 319.47,-243.5 319.47,-243.5 319.47,-243.5 1505.47,-243.5 1595.21,-243.5 1620.11,-255.2 1704.41,-256.18"/>
<polygon fill="black" stroke="black" stroke-width="3" points="1701.28,-259.67 1711.3,-256.22 1701.32,-252.67 1701.28,-259.67"/>
</g>
<!-- c43 -->
<g id="node44" class="node">
<title>c43</title>
<polygon fill="none" stroke="black" points="2801.34,-120 2801.34,-169 2894.34,-169 2894.34,-120 2801.34,-120"/>
<text text-anchor="middle" x="2814.22" y="-151.7" font-family="Times,serif" font-size="14.00">A</text>
<polyline fill="none" stroke="black" points="2801.34,-144.5 2827.09,-144.5"/>
<text text-anchor="middle" x="2814.22" y="-127.2" font-family="Times,serif" font-size="14.00">B</text>
<polyline fill="none" stroke="black" points="2827.09,-120 2827.09,-169"/>
<text text-anchor="middle" x="2847.84" y="-147.7" font-family="Times,serif" font-size="14.00">$26</text>
<text text-anchor="middle" x="2847.84" y="-131.2" font-family="Times,serif" font-size="14.00">$sub</text>
<polyline fill="none" stroke="black" points="2868.59,-120 2868.59,-169"/>
<text text-anchor="middle" x="2881.47" y="-139.7" font-family="Times,serif" font-size="14.00">Y</text>
</g>
<!-- n18&#45;&gt;c43 -->
<g id="edge56" class="edge">
<title>n18:e&#45;&gt;c43:w</title>
<path fill="none" stroke="black" stroke-width="3" d="M107.84,-418.5C166.17,-418.5 103.14,-200.28 143.84,-158.5 199.05,-101.83 240.35,-129.5 319.47,-129.5 319.47,-129.5 319.47,-129.5 2612.59,-129.5 2692.56,-129.5 2715.34,-132 2789.95,-132.23"/>
<polygon fill="black" stroke="black" stroke-width="3" points="2786.8,-135.73 2796.8,-132.24 2786.81,-128.73 2786.8,-135.73"/>
</g>
<!-- x25 -->
<g id="node51" class="node">
<title>x25</title>
<path fill="none" stroke="black" d="M1347.84,-676.5C1347.84,-676.5 1386.34,-676.5 1386.34,-676.5 1392.34,-676.5 1398.34,-682.5 1398.34,-688.5 1398.34,-688.5 1398.34,-700.5 1398.34,-700.5 1398.34,-706.5 1392.34,-712.5 1386.34,-712.5 1386.34,-712.5 1347.84,-712.5 1347.84,-712.5 1341.84,-712.5 1335.84,-706.5 1335.84,-700.5 1335.84,-700.5 1335.84,-688.5 1335.84,-688.5 1335.84,-682.5 1341.84,-676.5 1347.84,-676.5"/>
<text text-anchor="middle" x="1367.09" y="-689.7" font-family="Times,serif" font-size="14.00">4:1 &#45; 3:0</text>
</g>
<!-- n18&#45;&gt;x25 -->
<g id="edge60" class="edge">
<title>n18:e&#45;&gt;x25:w</title>
<path fill="none" stroke="black" stroke-width="3" d="M107.84,-418.5C133.8,-418.5 125.76,-445.87 143.84,-464.5 300.45,-625.9 335.41,-698.73 549.84,-766.5 595.08,-780.8 609.21,-769 656.59,-766.5 955.45,-750.74 1029.84,-696.16 1323.41,-694.78"/>
<polygon fill="black" stroke="black" stroke-width="3" points="1320.31,-698.28 1330.3,-694.76 1320.29,-691.28 1320.31,-698.28"/>
</g>
<!-- x31 -->
<g id="node59" class="node">
<title>x31</title>
<path fill="none" stroke="black" d="M171.47,-951.5C171.47,-951.5 209.97,-951.5 209.97,-951.5 215.97,-951.5 221.97,-957.5 221.97,-963.5 221.97,-963.5 221.97,-975.5 221.97,-975.5 221.97,-981.5 215.97,-987.5 209.97,-987.5 209.97,-987.5 171.47,-987.5 171.47,-987.5 165.47,-987.5 159.47,-981.5 159.47,-975.5 159.47,-975.5 159.47,-963.5 159.47,-963.5 159.47,-957.5 165.47,-951.5 171.47,-951.5"/>
<text text-anchor="middle" x="190.72" y="-964.7" font-family="Times,serif" font-size="14.00">1:1 &#45; 0:0</text>
</g>
<!-- n18&#45;&gt;x31 -->
<g id="edge62" class="edge">
<title>n18:e&#45;&gt;x31:w</title>
<path fill="none" stroke="black" d="M107.84,-418.5C165.62,-418.5 105.23,-905.02 148.71,-963.93"/>
<polygon fill="black" stroke="black" points="146.78,-966.86 157.17,-968.97 150.37,-960.85 146.78,-966.86"/>
</g>
<!-- n19 -->
<g id="node2" class="node">
<title>n19</title>
<polygon fill="none" stroke="black" points="4174.16,-279.04 4174.16,-293.96 4139.65,-304.5 4090.85,-304.5 4056.35,-293.96 4056.35,-279.04 4090.85,-268.5 4139.65,-268.5 4174.16,-279.04"/>
<text text-anchor="middle" x="4115.25" y="-281.45" font-family="Times,serif" font-size="14.00">output_data</text>
</g>
<!-- x36 -->
<g id="node64" class="node">
<title>x36</title>
<path fill="none" stroke="black" d="M4222.16,-244.5C4222.16,-244.5 4277.91,-244.5 4277.91,-244.5 4283.91,-244.5 4289.91,-250.5 4289.91,-256.5 4289.91,-256.5 4289.91,-268.5 4289.91,-268.5 4289.91,-274.5 4283.91,-280.5 4277.91,-280.5 4277.91,-280.5 4222.16,-280.5 4222.16,-280.5 4216.16,-280.5 4210.16,-274.5 4210.16,-268.5 4210.16,-268.5 4210.16,-256.5 4210.16,-256.5 4210.16,-250.5 4216.16,-244.5 4222.16,-244.5"/>
<text text-anchor="middle" x="4250.03" y="-257.7" font-family="Times,serif" font-size="14.00">2x 9:9 &#45; 1:0</text>
</g>
<!-- n19&#45;&gt;x36 -->
<g id="edge66" class="edge">
<title>n19:e&#45;&gt;x36:w</title>
<path fill="none" stroke="black" stroke-width="3" d="M4174.16,-286.5C4188.68,-286.5 4190.86,-272.86 4199.4,-266.25"/>
<polygon fill="black" stroke="black" stroke-width="3" points="4197.42,-270.58 4205.84,-264.16 4195.25,-263.93 4197.42,-270.58"/>
</g>
<!-- n20 -->
<g id="node3" class="node">
<title>n20</title>
<polygon fill="none" stroke="black" points="458.59,-568.5 403.34,-550.5 458.59,-532.5 513.84,-550.5 458.59,-568.5"/>
<text text-anchor="middle" x="458.59" y="-545.45" font-family="Times,serif" font-size="14.00">temp_0</text>
</g>
<!-- x6 -->
<g id="node19" class="node">
<title>x6</title>
<path fill="none" stroke="black" d="M577.22,-708C577.22,-708 629.22,-708 629.22,-708 635.22,-708 641.22,-714 641.22,-720 641.22,-720 641.22,-745 641.22,-745 641.22,-751 635.22,-757 629.22,-757 629.22,-757 577.22,-757 577.22,-757 571.22,-757 565.22,-751 565.22,-745 565.22,-745 565.22,-720 565.22,-720 565.22,-714 571.22,-708 577.22,-708"/>
<text text-anchor="middle" x="603.22" y="-739.7" font-family="Times,serif" font-size="14.00">25:25 &#45; 4:4</text>
<polyline fill="none" stroke="black" points="565.22,-732.5 641.22,-732.5"/>
<text text-anchor="middle" x="603.22" y="-715.2" font-family="Times,serif" font-size="14.00">3:0 &#45; 3:0</text>
</g>
<!-- n20&#45;&gt;x6 -->
<g id="edge79" class="edge">
<title>n20:e&#45;&gt;x6:w</title>
<path fill="none" stroke="black" stroke-width="3" d="M513.84,-550.5C588.23,-550.5 496.67,-702.19 552.91,-718.78"/>
<polygon fill="black" stroke="black" stroke-width="3" points="549.35,-721.85 559.71,-719.67 550.25,-714.91 549.35,-721.85"/>
</g>
<!-- n20&#45;&gt;x6 -->
<g id="edge80" class="edge">
<title>n20:e&#45;&gt;x6:w</title>
<path fill="none" stroke="black" d="M513.84,-550.5C598.85,-550.5 486.55,-726.97 553.06,-743.51"/>
<polygon fill="black" stroke="black" points="552.39,-746.96 562.71,-744.58 553.16,-740 552.39,-746.96"/>
</g>
<!-- x7 -->
<g id="node21" class="node">
<title>x7</title>
<path fill="none" stroke="black" d="M577.22,-526C577.22,-526 629.22,-526 629.22,-526 635.22,-526 641.22,-532 641.22,-538 641.22,-538 641.22,-563 641.22,-563 641.22,-569 635.22,-575 629.22,-575 629.22,-575 577.22,-575 577.22,-575 571.22,-575 565.22,-569 565.22,-563 565.22,-563 565.22,-538 565.22,-538 565.22,-532 571.22,-526 577.22,-526"/>
<text text-anchor="middle" x="603.22" y="-557.7" font-family="Times,serif" font-size="14.00">25:25 &#45; 4:4</text>
<polyline fill="none" stroke="black" points="565.22,-550.5 641.22,-550.5"/>
<text text-anchor="middle" x="603.22" y="-533.2" font-family="Times,serif" font-size="14.00">3:0 &#45; 3:0</text>
</g>
<!-- n20&#45;&gt;x7 -->
<g id="edge81" class="edge">
<title>n20:e&#45;&gt;x7:w</title>
<path fill="none" stroke="black" stroke-width="3" d="M513.84,-550.5C532.56,-550.5 538.91,-542.41 552.99,-539.38"/>
<polygon fill="black" stroke="black" stroke-width="3" points="550.1,-543.19 559.7,-538.7 549.4,-536.22 550.1,-543.19"/>
</g>
<!-- n20&#45;&gt;x7 -->
<g id="edge82" class="edge">
<title>n20:e&#45;&gt;x7:w</title>
<path fill="none" stroke="black" d="M513.84,-550.5C532.56,-550.5 538.91,-558.59 552.99,-561.62"/>
<polygon fill="black" stroke="black" points="552.41,-565.08 562.71,-562.6 553.11,-558.11 552.41,-565.08"/>
</g>
<!-- x12 -->
<g id="node30" class="node">
<title>x12</title>
<path fill="none" stroke="black" d="M561.84,-404C561.84,-404 644.59,-404 644.59,-404 650.59,-404 656.59,-410 656.59,-416 656.59,-416 656.59,-441 656.59,-441 656.59,-447 650.59,-453 644.59,-453 644.59,-453 561.84,-453 561.84,-453 555.84,-453 549.84,-447 549.84,-441 549.84,-441 549.84,-416 549.84,-416 549.84,-410 555.84,-404 561.84,-404"/>
<text text-anchor="middle" x="603.22" y="-435.7" font-family="Times,serif" font-size="14.00">22x 25:25 &#45; 25:4</text>
<polyline fill="none" stroke="black" points="549.84,-428.5 656.59,-428.5"/>
<text text-anchor="middle" x="603.22" y="-411.2" font-family="Times,serif" font-size="14.00">3:0 &#45; 3:0</text>
</g>
<!-- n20&#45;&gt;x12 -->
<g id="edge73" class="edge">
<title>n20:e&#45;&gt;x12:w</title>
<path fill="none" stroke="black" stroke-width="3" d="M513.84,-550.5C571.27,-550.5 499.64,-434.47 538.92,-418.15"/>
<polygon fill="black" stroke="black" stroke-width="3" points="536.12,-422.19 545.37,-417.03 534.92,-415.29 536.12,-422.19"/>
</g>
<!-- n20&#45;&gt;x12 -->
<g id="edge74" class="edge">
<title>n20:e&#45;&gt;x12:w</title>
<path fill="none" stroke="black" stroke-width="3" d="M513.84,-550.5C560.56,-550.5 509.53,-459.58 538.69,-443.25"/>
<polygon fill="black" stroke="black" stroke-width="3" points="536.42,-447.34 545.41,-441.74 534.89,-440.51 536.42,-447.34"/>
</g>
<!-- x19 -->
<g id="node42" class="node">
<title>x19</title>
<path fill="none" stroke="black" d="M1598.59,-515C1598.59,-515 1667.84,-515 1667.84,-515 1673.84,-515 1679.84,-521 1679.84,-527 1679.84,-527 1679.84,-552 1679.84,-552 1679.84,-558 1673.84,-564 1667.84,-564 1667.84,-564 1598.59,-564 1598.59,-564 1592.59,-564 1586.59,-558 1586.59,-552 1586.59,-552 1586.59,-527 1586.59,-527 1586.59,-521 1592.59,-515 1598.59,-515"/>
<text text-anchor="middle" x="1633.22" y="-546.7" font-family="Times,serif" font-size="14.00">2x 25:25 &#45; 6:5</text>
<polyline fill="none" stroke="black" points="1586.59,-539.5 1679.84,-539.5"/>
<text text-anchor="middle" x="1633.22" y="-522.2" font-family="Times,serif" font-size="14.00">4:0 &#45; 4:0</text>
</g>
<!-- n20&#45;&gt;x19 -->
<g id="edge75" class="edge">
<title>n20:e&#45;&gt;x19:w</title>
<path fill="none" stroke="black" stroke-width="3" d="M513.84,-550.5C535.85,-550.5 529.83,-575.35 549.84,-584.5 626.01,-619.33 653.58,-603.5 737.34,-603.5 737.34,-603.5 737.34,-603.5 1368.09,-603.5 1451.32,-603.5 1469.85,-581.72 1550.59,-561.5 1562.15,-558.61 1567.13,-554.84 1575.17,-552.94"/>
<polygon fill="black" stroke="black" stroke-width="3" points="1572.49,-556.74 1582.08,-552.22 1571.77,-549.78 1572.49,-556.74"/>
</g>
<!-- x28 -->
<g id="node55" class="node">
<title>x28</title>
<path fill="none" stroke="black" d="M1485.22,-632.5C1485.22,-632.5 1523.72,-632.5 1523.72,-632.5 1529.72,-632.5 1535.72,-638.5 1535.72,-644.5 1535.72,-644.5 1535.72,-656.5 1535.72,-656.5 1535.72,-662.5 1529.72,-668.5 1523.72,-668.5 1523.72,-668.5 1485.22,-668.5 1485.22,-668.5 1479.22,-668.5 1473.22,-662.5 1473.22,-656.5 1473.22,-656.5 1473.22,-644.5 1473.22,-644.5 1473.22,-638.5 1479.22,-632.5 1485.22,-632.5"/>
<text text-anchor="middle" x="1504.47" y="-645.7" font-family="Times,serif" font-size="14.00">3:0 &#45; 3:0</text>
</g>
<!-- n20&#45;&gt;x28 -->
<g id="edge76" class="edge">
<title>n20:e&#45;&gt;x28:w</title>
<path fill="none" stroke="black" stroke-width="3" d="M513.84,-550.5C547.65,-550.5 521.99,-598.34 549.84,-617.5 619.06,-665.11 653.33,-641.5 737.34,-641.5 737.34,-641.5 737.34,-641.5 1228.84,-641.5 1333.18,-641.5 1361.92,-650.09 1460.8,-650.71"/>
<polygon fill="black" stroke="black" stroke-width="3" points="1457.67,-654.2 1467.68,-650.74 1457.69,-647.2 1457.67,-654.2"/>
</g>
<!-- x29 -->
<g id="node57" class="node">
<title>x29</title>
<path fill="none" stroke="black" d="M832.09,-684.5C832.09,-684.5 870.59,-684.5 870.59,-684.5 876.59,-684.5 882.59,-690.5 882.59,-696.5 882.59,-696.5 882.59,-708.5 882.59,-708.5 882.59,-714.5 876.59,-720.5 870.59,-720.5 870.59,-720.5 832.09,-720.5 832.09,-720.5 826.09,-720.5 820.09,-714.5 820.09,-708.5 820.09,-708.5 820.09,-696.5 820.09,-696.5 820.09,-690.5 826.09,-684.5 832.09,-684.5"/>
<text text-anchor="middle" x="851.34" y="-697.7" font-family="Times,serif" font-size="14.00">3:0 &#45; 3:0</text>
</g>
<!-- n20&#45;&gt;x29 -->
<g id="edge77" class="edge">
<title>n20:e&#45;&gt;x29:w</title>
<path fill="none" stroke="black" stroke-width="3" d="M513.84,-550.5C563.18,-550.5 512.33,-623.46 549.84,-655.5 593.58,-692.85 741.04,-701.78 808.79,-702.67"/>
<polygon fill="black" stroke="black" stroke-width="3" points="805.53,-706.15 815.55,-702.72 805.58,-699.15 805.53,-706.15"/>
</g>
<!-- x38 -->
<g id="node66" class="node">
<title>x38</title>
<path fill="none" stroke="black" d="M561.84,-310.5C561.84,-310.5 644.59,-310.5 644.59,-310.5 650.59,-310.5 656.59,-316.5 656.59,-322.5 656.59,-322.5 656.59,-334.5 656.59,-334.5 656.59,-340.5 650.59,-346.5 644.59,-346.5 644.59,-346.5 561.84,-346.5 561.84,-346.5 555.84,-346.5 549.84,-340.5 549.84,-334.5 549.84,-334.5 549.84,-322.5 549.84,-322.5 549.84,-316.5 555.84,-310.5 561.84,-310.5"/>
<text text-anchor="middle" x="603.22" y="-323.7" font-family="Times,serif" font-size="14.00">21x 25:25 &#45; 20:0</text>
</g>
<!-- n20&#45;&gt;x38 -->
<g id="edge78" class="edge">
<title>n20:e&#45;&gt;x38:w</title>
<path fill="none" stroke="black" stroke-width="3" d="M513.84,-550.5C609.59,-550.5 462.98,-346.57 538.85,-329.84"/>
<polygon fill="black" stroke="black" stroke-width="3" points="535.72,-333.67 545.32,-329.2 535.03,-326.7 535.72,-333.67"/>
</g>
<!-- n21 -->
<g id="node4" class="node">
<title>n21</title>
<polygon fill="none" stroke="black" points="2611.59,-471.5 2556.34,-453.5 2611.59,-435.5 2666.84,-453.5 2611.59,-471.5"/>
<text text-anchor="middle" x="2611.59" y="-448.45" font-family="Times,serif" font-size="14.00">temp_1</text>
</g>
<!-- c44 -->
<g id="node47" class="node">
<title>c44</title>
<polygon fill="none" stroke="black" points="3828.85,-262 3828.85,-311 3921.85,-311 3921.85,-262 3828.85,-262"/>
<text text-anchor="middle" x="3841.72" y="-293.7" font-family="Times,serif" font-size="14.00">A</text>
<polyline fill="none" stroke="black" points="3828.85,-286.5 3854.6,-286.5"/>
<text text-anchor="middle" x="3841.72" y="-269.2" font-family="Times,serif" font-size="14.00">B</text>
<polyline fill="none" stroke="black" points="3854.6,-262 3854.6,-311"/>
<text text-anchor="middle" x="3875.35" y="-289.7" font-family="Times,serif" font-size="14.00">$64</text>
<text text-anchor="middle" x="3875.35" y="-273.2" font-family="Times,serif" font-size="14.00">$sub</text>
<polyline fill="none" stroke="black" points="3896.1,-262 3896.1,-311"/>
<text text-anchor="middle" x="3908.97" y="-281.7" font-family="Times,serif" font-size="14.00">Y</text>
</g>
<!-- n21&#45;&gt;c44 -->
<g id="edge84" class="edge">
<title>n21:e&#45;&gt;c44:w</title>
<path fill="none" stroke="black" stroke-width="3" d="M2666.84,-453.5C2764.24,-453.5 2749.45,-328.5 2846.84,-328.5 2846.84,-328.5 2846.84,-328.5 3640.09,-328.5 3721.2,-328.5 3742.09,-301.36 3817.79,-298.92"/>
<polygon fill="black" stroke="black" stroke-width="3" points="3814.36,-302.48 3824.3,-298.82 3814.25,-295.48 3814.36,-302.48"/>
</g>
<!-- n22 -->
<g id="node5" class="node">
<title>n22</title>
<polygon fill="none" stroke="black" points="1367.09,-484.5 1311.84,-466.5 1367.09,-448.5 1422.34,-466.5 1367.09,-484.5"/>
<text text-anchor="middle" x="1367.09" y="-461.45" font-family="Times,serif" font-size="14.00">temp_2</text>
</g>
<!-- c33 -->
<g id="node20" class="node">
<title>c33</title>
<polygon fill="none" stroke="black" points="1458.34,-503 1458.34,-552 1550.59,-552 1550.59,-503 1458.34,-503"/>
<text text-anchor="middle" x="1471.22" y="-534.7" font-family="Times,serif" font-size="14.00">A</text>
<polyline fill="none" stroke="black" points="1458.34,-527.5 1484.09,-527.5"/>
<text text-anchor="middle" x="1471.22" y="-510.2" font-family="Times,serif" font-size="14.00">B</text>
<polyline fill="none" stroke="black" points="1484.09,-503 1484.09,-552"/>
<text text-anchor="middle" x="1504.47" y="-530.7" font-family="Times,serif" font-size="14.00">$89</text>
<text text-anchor="middle" x="1504.47" y="-514.2" font-family="Times,serif" font-size="14.00">$xor</text>
<polyline fill="none" stroke="black" points="1524.84,-503 1524.84,-552"/>
<text text-anchor="middle" x="1537.72" y="-522.7" font-family="Times,serif" font-size="14.00">Y</text>
</g>
<!-- n22&#45;&gt;c33 -->
<g id="edge86" class="edge">
<title>n22:e&#45;&gt;c33:w</title>
<path fill="none" stroke="black" stroke-width="3" d="M1422.34,-466.5C1444.44,-466.5 1436.38,-499.3 1447.64,-511.09"/>
<polygon fill="black" stroke="black" stroke-width="3" points="1443.52,-513.25 1454.11,-513.61 1446.06,-506.72 1443.52,-513.25"/>
</g>
<!-- n23 -->
<g id="node6" class="node">
<title>n23</title>
<polygon fill="none" stroke="black" points="3639.09,-121.5 3583.84,-103.5 3639.09,-85.5 3694.35,-103.5 3639.09,-121.5"/>
<text text-anchor="middle" x="3639.09" y="-98.45" font-family="Times,serif" font-size="14.00">temp_3</text>
</g>
<!-- x23 -->
<g id="node48" class="node">
<title>x23</title>
<path fill="none" stroke="black" d="M3742.35,-220C3742.35,-220 3780.85,-220 3780.85,-220 3786.85,-220 3792.85,-226 3792.85,-232 3792.85,-232 3792.85,-257 3792.85,-257 3792.85,-263 3786.85,-269 3780.85,-269 3780.85,-269 3742.35,-269 3742.35,-269 3736.35,-269 3730.35,-263 3730.35,-257 3730.35,-257 3730.35,-232 3730.35,-232 3730.35,-226 3736.35,-220 3742.35,-220"/>
<text text-anchor="middle" x="3761.6" y="-251.7" font-family="Times,serif" font-size="14.00">0 &#45;&gt; 6:5</text>
<polyline fill="none" stroke="black" points="3730.35,-244.5 3792.85,-244.5"/>
<text text-anchor="middle" x="3761.6" y="-227.2" font-family="Times,serif" font-size="14.00">4:0 &#45; 4:0</text>
</g>
<!-- n23&#45;&gt;x23 -->
<g id="edge89" class="edge">
<title>n23:e&#45;&gt;x23:w</title>
<path fill="none" stroke="black" stroke-width="3" d="M3694.35,-103.5C3749.35,-103.5 3682.44,-213.85 3719.35,-230.23"/>
<polygon fill="black" stroke="black" stroke-width="3" points="3715.41,-233.06 3725.88,-231.43 3716.68,-226.18 3715.41,-233.06"/>
</g>
<!-- x0 -->
<g id="node8" class="node">
<title>x0</title>
<path fill="none" stroke="black" d="M294.47,-514C294.47,-514 346.47,-514 346.47,-514 352.47,-514 358.47,-520 358.47,-526 358.47,-526 358.47,-551 358.47,-551 358.47,-557 352.47,-563 346.47,-563 346.47,-563 294.47,-563 294.47,-563 288.47,-563 282.47,-557 282.47,-551 282.47,-551 282.47,-526 282.47,-526 282.47,-520 288.47,-514 294.47,-514"/>
<text text-anchor="middle" x="320.47" y="-545.7" font-family="Times,serif" font-size="14.00">4:4 &#45; 25:25</text>
<polyline fill="none" stroke="black" points="282.47,-538.5 358.47,-538.5"/>
<text text-anchor="middle" x="320.47" y="-521.2" font-family="Times,serif" font-size="14.00">3:0 &#45; 3:0</text>
</g>
<!-- c27&#45;&gt;x0 -->
<g id="edge1" class="edge">
<title>c27:e&#45;&gt;x0:w</title>
<path fill="none" stroke="black" stroke-width="3" d="M250.14,-433.86C275.16,-449.52 243.91,-519.68 268.9,-535.38"/>
<polygon fill="none" stroke="black" stroke-width="3" points="251.86,-434.29 245.08,-436.73 240.22,-431.4 247,-428.96 251.86,-434.29"/>
<polygon fill="none" stroke="black" stroke-width="3" points="267.2,-534.96 273.98,-532.52 278.84,-537.85 272.05,-540.28 267.2,-534.96"/>
</g>
<!-- x0&#45;&gt;n20 -->
<g id="edge70" class="edge">
<title>x0:e&#45;&gt;n20:w</title>
<path fill="none" stroke="black" stroke-width="3" d="M359.47,-526.25C377.22,-526.25 380.39,-541.65 392.22,-547.9"/>
<polygon fill="black" stroke="black" stroke-width="3" points="388.39,-550.6 398.92,-549.47 389.98,-543.79 388.39,-550.6"/>
</g>
<!-- x0&#45;&gt;n20 -->
<g id="edge71" class="edge">
<title>x0:e&#45;&gt;n20:w</title>
<path fill="none" stroke="black" d="M359.47,-550.75C374.55,-550.75 380.88,-550.6 392,-550.53"/>
<polygon fill="black" stroke="black" points="391.84,-554.03 401.83,-550.5 391.82,-547.03 391.84,-554.03"/>
</g>
<!-- c28 -->
<g id="node9" class="node">
<title>c28</title>
<polygon fill="none" stroke="black" points="1844.84,-729 1844.84,-778 1938.59,-778 1938.59,-729 1844.84,-729"/>
<text text-anchor="middle" x="1857.72" y="-760.7" font-family="Times,serif" font-size="14.00">A</text>
<polyline fill="none" stroke="black" points="1844.84,-753.5 1870.59,-753.5"/>
<text text-anchor="middle" x="1857.72" y="-736.2" font-family="Times,serif" font-size="14.00">B</text>
<polyline fill="none" stroke="black" points="1870.59,-729 1870.59,-778"/>
<text text-anchor="middle" x="1891.72" y="-756.7" font-family="Times,serif" font-size="14.00">$12</text>
<text text-anchor="middle" x="1891.72" y="-740.2" font-family="Times,serif" font-size="14.00">$add</text>
<polyline fill="none" stroke="black" points="1912.84,-729 1912.84,-778"/>
<text text-anchor="middle" x="1925.72" y="-748.7" font-family="Times,serif" font-size="14.00">Y</text>
</g>
<!-- c45 -->
<g id="node50" class="node">
<title>c45</title>
<polygon fill="none" stroke="black" points="1974.59,-685 1974.59,-734 2066.84,-734 2066.84,-685 1974.59,-685"/>
<text text-anchor="middle" x="1987.47" y="-716.7" font-family="Times,serif" font-size="14.00">A</text>
<polyline fill="none" stroke="black" points="1974.59,-709.5 2000.34,-709.5"/>
<text text-anchor="middle" x="1987.47" y="-692.2" font-family="Times,serif" font-size="14.00">B</text>
<polyline fill="none" stroke="black" points="2000.34,-685 2000.34,-734"/>
<text text-anchor="middle" x="2020.72" y="-712.7" font-family="Times,serif" font-size="14.00">$13</text>
<text text-anchor="middle" x="2020.72" y="-696.2" font-family="Times,serif" font-size="14.00">$xor</text>
<polyline fill="none" stroke="black" points="2041.09,-685 2041.09,-734"/>
<text text-anchor="middle" x="2053.97" y="-704.7" font-family="Times,serif" font-size="14.00">Y</text>
</g>
<!-- c28&#45;&gt;c45 -->
<g id="edge33" class="edge">
<title>c28:e&#45;&gt;c45:w</title>
<path fill="none" stroke="black" stroke-width="3" d="M1938.59,-753.75C1955.32,-753.75 1954.82,-734.22 1964,-725.67"/>
<polygon fill="black" stroke="black" stroke-width="3" points="1962.17,-730.08 1970.34,-723.33 1959.74,-723.52 1962.17,-730.08"/>
</g>
<!-- x1 -->
<g id="node10" class="node">
<title>x1</title>
<path fill="none" stroke="black" d="M1743.09,-771.5C1743.09,-771.5 1781.59,-771.5 1781.59,-771.5 1787.59,-771.5 1793.59,-777.5 1793.59,-783.5 1793.59,-783.5 1793.59,-795.5 1793.59,-795.5 1793.59,-801.5 1787.59,-807.5 1781.59,-807.5 1781.59,-807.5 1743.09,-807.5 1743.09,-807.5 1737.09,-807.5 1731.09,-801.5 1731.09,-795.5 1731.09,-795.5 1731.09,-783.5 1731.09,-783.5 1731.09,-777.5 1737.09,-771.5 1743.09,-771.5"/>
<text text-anchor="middle" x="1762.34" y="-784.7" font-family="Times,serif" font-size="14.00">3:0 &#45; 3:0</text>
</g>
<!-- x1&#45;&gt;c28 -->
<g id="edge2" class="edge">
<title>x1:e&#45;&gt;c28:w</title>
<path fill="none" stroke="black" stroke-width="3" d="M1807.09,-786.96C1817.13,-782.41 1822.22,-772.93 1832.23,-768.35"/>
<polygon fill="none" stroke="black" stroke-width="3" points="1809,-786.57 1803.92,-791.69 1797.24,-788.96 1802.33,-783.85 1809,-786.57"/>
<polygon fill="none" stroke="black" stroke-width="3" points="1830.44,-768.71 1835.51,-763.59 1842.19,-766.29 1837.12,-771.42 1830.44,-768.71"/>
</g>
<!-- v3 -->
<g id="node11" class="node">
<title>v3</title>
<ellipse fill="none" stroke="black" cx="190.72" cy="-1024.5" rx="30.88" ry="18"/>
<text text-anchor="middle" x="190.72" y="-1019.45" font-family="Times,serif" font-size="14.00">3&#39;111</text>
</g>
<!-- c29 -->
<g id="node12" class="node">
<title>c29</title>
<polygon fill="none" stroke="black" points="273.59,-1012 273.59,-1061 367.34,-1061 367.34,-1012 273.59,-1012"/>
<text text-anchor="middle" x="286.47" y="-1043.7" font-family="Times,serif" font-size="14.00">A</text>
<polyline fill="none" stroke="black" points="273.59,-1036.5 299.34,-1036.5"/>
<text text-anchor="middle" x="286.47" y="-1019.2" font-family="Times,serif" font-size="14.00">B</text>
<polyline fill="none" stroke="black" points="299.34,-1012 299.34,-1061"/>
<text text-anchor="middle" x="320.47" y="-1039.7" font-family="Times,serif" font-size="14.00">$2</text>
<text text-anchor="middle" x="320.47" y="-1023.2" font-family="Times,serif" font-size="14.00">$add</text>
<polyline fill="none" stroke="black" points="341.59,-1012 341.59,-1061"/>
<text text-anchor="middle" x="354.47" y="-1031.7" font-family="Times,serif" font-size="14.00">Y</text>
</g>
<!-- v3&#45;&gt;c29 -->
<g id="edge102" class="edge">
<title>v3:e&#45;&gt;c29:w</title>
<path fill="none" stroke="black" stroke-width="3" d="M222.88,-1024.5C241.2,-1024.5 248.35,-1024.33 262.47,-1024.27"/>
<polygon fill="black" stroke="black" stroke-width="3" points="259.06,-1027.78 269.05,-1024.26 259.04,-1020.78 259.06,-1027.78"/>
</g>
<!-- x4 -->
<g id="node14" class="node">
<title>x4</title>
<path fill="none" stroke="black" d="M439.34,-1013.5C439.34,-1013.5 477.84,-1013.5 477.84,-1013.5 483.84,-1013.5 489.84,-1019.5 489.84,-1025.5 489.84,-1025.5 489.84,-1037.5 489.84,-1037.5 489.84,-1043.5 483.84,-1049.5 477.84,-1049.5 477.84,-1049.5 439.34,-1049.5 439.34,-1049.5 433.34,-1049.5 427.34,-1043.5 427.34,-1037.5 427.34,-1037.5 427.34,-1025.5 427.34,-1025.5 427.34,-1019.5 433.34,-1013.5 439.34,-1013.5"/>
<text text-anchor="middle" x="458.59" y="-1026.7" font-family="Times,serif" font-size="14.00">2:0 &#45; 3:1</text>
</g>
<!-- c29&#45;&gt;x4 -->
<g id="edge4" class="edge">
<title>c29:e&#45;&gt;x4:w</title>
<path fill="none" stroke="black" stroke-width="3" d="M380.31,-1036.27C393.02,-1035.26 400.81,-1032.96 413.58,-1031.97"/>
<polygon fill="none" stroke="black" stroke-width="3" points="382.03,-1036.2 376.19,-1040.42 370.04,-1036.65 375.89,-1032.43 382.03,-1036.2"/>
<polygon fill="none" stroke="black" stroke-width="3" points="411.65,-1032.04 417.5,-1027.82 423.64,-1031.6 417.79,-1035.82 411.65,-1032.04"/>
</g>
<!-- x2&#45;&gt;c29 -->
<g id="edge3" class="edge">
<title>x2:e&#45;&gt;c29:w</title>
<path fill="none" stroke="black" stroke-width="3" d="M235.57,-1076.44C246.19,-1070.54 250.38,-1057.68 261.01,-1051.8"/>
<polygon fill="none" stroke="black" stroke-width="3" points="237.25,-1076.03 232.37,-1081.33 225.59,-1078.86 230.48,-1073.56 237.25,-1076.03"/>
<polygon fill="none" stroke="black" stroke-width="3" points="259.3,-1052.21 264.19,-1046.91 270.96,-1049.39 266.07,-1054.69 259.3,-1052.21"/>
</g>
<!-- n2 -->
<g id="node73" class="node">
<title>n2</title>
<ellipse fill="black" stroke="black" cx="603.22" cy="-1001.5" rx="1.8" ry="1.8"/>
</g>
<!-- x4&#45;&gt;n2 -->
<g id="edge68" class="edge">
<title>x4:e&#45;&gt;n2:w</title>
<path fill="none" stroke="black" stroke-width="3" d="M490.84,-1031.75C537.13,-1031.75 548,-1006.15 588.61,-1002.05"/>
<polygon fill="black" stroke="black" stroke-width="3" points="585.59,-1005.7 595.4,-1001.72 585.25,-998.71 585.59,-1005.7"/>
</g>
<!-- c30 -->
<g id="node15" class="node">
<title>c30</title>
<polygon fill="none" stroke="black" points="1320.22,-810 1320.22,-859 1413.97,-859 1413.97,-810 1320.22,-810"/>
<text text-anchor="middle" x="1333.09" y="-841.7" font-family="Times,serif" font-size="14.00">A</text>
<polyline fill="none" stroke="black" points="1320.22,-834.5 1345.97,-834.5"/>
<text text-anchor="middle" x="1333.09" y="-817.2" font-family="Times,serif" font-size="14.00">B</text>
<polyline fill="none" stroke="black" points="1345.97,-810 1345.97,-859"/>
<text text-anchor="middle" x="1367.09" y="-837.7" font-family="Times,serif" font-size="14.00">$8</text>
<text text-anchor="middle" x="1367.09" y="-821.2" font-family="Times,serif" font-size="14.00">$add</text>
<polyline fill="none" stroke="black" points="1388.22,-810 1388.22,-859"/>
<text text-anchor="middle" x="1401.09" y="-829.7" font-family="Times,serif" font-size="14.00">Y</text>
</g>
<!-- c47 -->
<g id="node56" class="node">
<title>c47</title>
<polygon fill="none" stroke="black" points="1458.34,-770 1458.34,-819 1550.59,-819 1550.59,-770 1458.34,-770"/>
<text text-anchor="middle" x="1471.22" y="-801.7" font-family="Times,serif" font-size="14.00">A</text>
<polyline fill="none" stroke="black" points="1458.34,-794.5 1484.09,-794.5"/>
<text text-anchor="middle" x="1471.22" y="-777.2" font-family="Times,serif" font-size="14.00">B</text>
<polyline fill="none" stroke="black" points="1484.09,-770 1484.09,-819"/>
<text text-anchor="middle" x="1504.47" y="-797.7" font-family="Times,serif" font-size="14.00">$9</text>
<text text-anchor="middle" x="1504.47" y="-781.2" font-family="Times,serif" font-size="14.00">$xor</text>
<polyline fill="none" stroke="black" points="1524.84,-770 1524.84,-819"/>
<text text-anchor="middle" x="1537.72" y="-789.7" font-family="Times,serif" font-size="14.00">Y</text>
</g>
<!-- c30&#45;&gt;c47 -->
<g id="edge90" class="edge">
<title>c30:e&#45;&gt;c47:w</title>
<path fill="none" stroke="black" stroke-width="3" d="M1414.97,-834.75C1433.43,-834.75 1435.41,-816.62 1447.43,-809.54"/>
<polygon fill="black" stroke="black" stroke-width="3" points="1445.12,-813.74 1453.94,-807.87 1443.39,-806.96 1445.12,-813.74"/>
</g>
<!-- x9 -->
<g id="node26" class="node">
<title>x9</title>
<path fill="none" stroke="black" d="M3269.09,-97.5C3269.09,-97.5 3307.59,-97.5 3307.59,-97.5 3313.59,-97.5 3319.59,-103.5 3319.59,-109.5 3319.59,-109.5 3319.59,-121.5 3319.59,-121.5 3319.59,-127.5 3313.59,-133.5 3307.59,-133.5 3307.59,-133.5 3269.09,-133.5 3269.09,-133.5 3263.09,-133.5 3257.09,-127.5 3257.09,-121.5 3257.09,-121.5 3257.09,-109.5 3257.09,-109.5 3257.09,-103.5 3263.09,-97.5 3269.09,-97.5"/>
<text text-anchor="middle" x="3288.34" y="-110.7" font-family="Times,serif" font-size="14.00">4:0 &#45; 4:0</text>
</g>
<!-- c31&#45;&gt;x9 -->
<g id="edge91" class="edge">
<title>c31:e&#45;&gt;x9:w</title>
<path fill="none" stroke="black" stroke-width="3" d="M3221.09,-115.75C3232.47,-115.75 3237.78,-115.75 3245.65,-115.75"/>
<polygon fill="black" stroke="black" stroke-width="3" points="3242.55,-119.25 3252.55,-115.75 3242.55,-112.25 3242.55,-119.25"/>
</g>
<!-- x5 -->
<g id="node17" class="node">
<title>x5</title>
<path fill="none" stroke="black" d="M3040.84,-122.5C3040.84,-122.5 3079.34,-122.5 3079.34,-122.5 3085.34,-122.5 3091.34,-128.5 3091.34,-134.5 3091.34,-134.5 3091.34,-146.5 3091.34,-146.5 3091.34,-152.5 3085.34,-158.5 3079.34,-158.5 3079.34,-158.5 3040.84,-158.5 3040.84,-158.5 3034.84,-158.5 3028.84,-152.5 3028.84,-146.5 3028.84,-146.5 3028.84,-134.5 3028.84,-134.5 3028.84,-128.5 3034.84,-122.5 3040.84,-122.5"/>
<text text-anchor="middle" x="3060.09" y="-135.7" font-family="Times,serif" font-size="14.00">6:0 &#45; 6:0</text>
</g>
<!-- x5&#45;&gt;c31 -->
<g id="edge5" class="edge">
<title>x5:e&#45;&gt;c31:w</title>
<path fill="none" stroke="black" stroke-width="3" d="M3103.8,-137.54C3107.77,-135.48 3110.95,-132.75 3114.92,-130.69"/>
<polygon fill="none" stroke="black" stroke-width="3" points="3105.65,-137.1 3100.74,-142.38 3093.97,-139.88 3098.89,-134.6 3105.65,-137.1"/>
<polygon fill="none" stroke="black" stroke-width="3" points="3113.04,-131.14 3117.95,-125.86 3124.71,-128.37 3119.8,-133.65 3113.04,-131.14"/>
</g>
<!-- c32 -->
<g id="node18" class="node">
<title>c32</title>
<polygon fill="none" stroke="black" points="692.59,-905 692.59,-946 784.09,-946 784.09,-905 692.59,-905"/>
<text text-anchor="middle" x="705.47" y="-920.7" font-family="Times,serif" font-size="14.00">A</text>
<polyline fill="none" stroke="black" points="718.34,-905 718.34,-946"/>
<text text-anchor="middle" x="738.34" y="-928.7" font-family="Times,serif" font-size="14.00">$87</text>
<text text-anchor="middle" x="738.34" y="-912.2" font-family="Times,serif" font-size="14.00">$not</text>
<polyline fill="none" stroke="black" points="758.34,-905 758.34,-946"/>
<text text-anchor="middle" x="771.22" y="-920.7" font-family="Times,serif" font-size="14.00">Y</text>
</g>
<!-- n5 -->
<g id="node74" class="node">
<title>n5</title>
<ellipse fill="black" stroke="black" cx="851.34" cy="-925.5" rx="1.8" ry="1.8"/>
</g>
<!-- c32&#45;&gt;n5 -->
<g id="edge92" class="edge">
<title>c32:e&#45;&gt;n5:w</title>
<path fill="none" stroke="black" stroke-width="3" d="M784.09,-925.75C808.3,-925.75 817.05,-925.57 836.67,-925.51"/>
<polygon fill="black" stroke="black" stroke-width="3" points="833.53,-929.02 843.52,-925.51 833.52,-922.02 833.53,-929.02"/>
</g>
<!-- x6&#45;&gt;c32 -->
<g id="edge6" class="edge">
<title>x6:e&#45;&gt;c32:w</title>
<path fill="none" stroke="black" stroke-width="3" d="M654.91,-734.17C714.04,-751.95 620.87,-906.04 679.76,-924.04"/>
<polygon fill="none" stroke="black" stroke-width="3" points="656.8,-734.42 650.32,-737.6 644.9,-732.85 651.37,-729.67 656.8,-734.42"/>
<polygon fill="none" stroke="black" stroke-width="3" points="678.02,-923.8 684.49,-920.63 689.91,-925.39 683.44,-928.56 678.02,-923.8"/>
</g>
<!-- c33&#45;&gt;x19 -->
<g id="edge95" class="edge">
<title>c33:e&#45;&gt;x19:w</title>
<path fill="none" stroke="black" stroke-width="3" d="M1550.59,-527.75C1561.97,-527.75 1567.28,-527.5 1575.15,-527.35"/>
<polygon fill="black" stroke="black" stroke-width="3" points="1572.08,-530.88 1582.05,-527.29 1572.02,-523.88 1572.08,-530.88"/>
</g>
<!-- x7&#45;&gt;c33 -->
<g id="edge7" class="edge">
<title>x7:e&#45;&gt;c33:w</title>
<path fill="none" stroke="black" stroke-width="3" d="M655.03,-550.49C737.09,-550.41 762.27,-549.5 850.34,-549.5 850.34,-549.5 850.34,-549.5 1228.84,-549.5 1326.45,-549.5 1353.88,-540.59 1445.32,-539.8"/>
<polygon fill="none" stroke="black" stroke-width="3" points="656.92,-550.49 650.92,-554.5 644.92,-550.5 650.92,-546.5 656.92,-550.49"/>
<polygon fill="none" stroke="black" stroke-width="3" points="1443.64,-539.81 1449.62,-535.79 1455.64,-539.76 1449.66,-543.79 1443.64,-539.81"/>
</g>
<!-- c34&#45;&gt;c35 -->
<g id="edge96" class="edge">
<title>c34:e&#45;&gt;c35:w</title>
<path fill="none" stroke="black" stroke-width="3" d="M2520.34,-220.75C2537.4,-220.75 2543.13,-212.49 2555.58,-209.14"/>
<polygon fill="black" stroke="black" stroke-width="3" points="2552.72,-213.03 2562.21,-208.31 2551.86,-206.08 2552.72,-213.03"/>
</g>
<!-- x8 -->
<g id="node23" class="node">
<title>x8</title>
<path fill="none" stroke="black" d="M2326.72,-234.5C2326.72,-234.5 2365.22,-234.5 2365.22,-234.5 2371.22,-234.5 2377.22,-240.5 2377.22,-246.5 2377.22,-246.5 2377.22,-258.5 2377.22,-258.5 2377.22,-264.5 2371.22,-270.5 2365.22,-270.5 2365.22,-270.5 2326.72,-270.5 2326.72,-270.5 2320.72,-270.5 2314.72,-264.5 2314.72,-258.5 2314.72,-258.5 2314.72,-246.5 2314.72,-246.5 2314.72,-240.5 2320.72,-234.5 2326.72,-234.5"/>
<text text-anchor="middle" x="2345.97" y="-247.7" font-family="Times,serif" font-size="14.00">4:0 &#45; 4:0</text>
</g>
<!-- x8&#45;&gt;c34 -->
<g id="edge8" class="edge">
<title>x8:e&#45;&gt;c34:w</title>
<path fill="none" stroke="black" stroke-width="3" d="M2390.82,-250.23C2400.46,-246.42 2405.9,-238.78 2415.56,-234.99"/>
<polygon fill="none" stroke="black" stroke-width="3" points="2392.69,-249.9 2387.49,-254.9 2380.88,-252.02 2386.08,-247.02 2392.69,-249.9"/>
<polygon fill="none" stroke="black" stroke-width="3" points="2413.62,-235.34 2418.82,-230.34 2425.43,-233.23 2420.23,-238.22 2413.62,-235.34"/>
</g>
<!-- x21 -->
<g id="node45" class="node">
<title>x21</title>
<path fill="none" stroke="black" d="M2714.84,-183C2714.84,-183 2753.34,-183 2753.34,-183 2759.34,-183 2765.34,-189 2765.34,-195 2765.34,-195 2765.34,-220 2765.34,-220 2765.34,-226 2759.34,-232 2753.34,-232 2753.34,-232 2714.84,-232 2714.84,-232 2708.84,-232 2702.84,-226 2702.84,-220 2702.84,-220 2702.84,-195 2702.84,-195 2702.84,-189 2708.84,-183 2714.84,-183"/>
<text text-anchor="middle" x="2734.09" y="-214.7" font-family="Times,serif" font-size="14.00">1:0 &#45; 6:5</text>
<polyline fill="none" stroke="black" points="2702.84,-207.5 2765.34,-207.5"/>
<text text-anchor="middle" x="2734.09" y="-190.2" font-family="Times,serif" font-size="14.00">4:0 &#45; 4:0</text>
</g>
<!-- c35&#45;&gt;x21 -->
<g id="edge100" class="edge">
<title>c35:e&#45;&gt;x21:w</title>
<path fill="none" stroke="black" stroke-width="3" d="M2656.47,-195.75C2672.73,-195.75 2679.37,-195.44 2691.57,-195.31"/>
<polygon fill="black" stroke="black" stroke-width="3" points="2688.32,-198.82 2698.3,-195.27 2688.29,-191.82 2688.32,-198.82"/>
</g>
<!-- x10 -->
<g id="node27" class="node">
<title>x10</title>
<path fill="none" stroke="black" d="M3497.34,-85.5C3497.34,-85.5 3535.84,-85.5 3535.84,-85.5 3541.84,-85.5 3547.84,-91.5 3547.84,-97.5 3547.84,-97.5 3547.84,-109.5 3547.84,-109.5 3547.84,-115.5 3541.84,-121.5 3535.84,-121.5 3535.84,-121.5 3497.34,-121.5 3497.34,-121.5 3491.34,-121.5 3485.34,-115.5 3485.34,-109.5 3485.34,-109.5 3485.34,-97.5 3485.34,-97.5 3485.34,-91.5 3491.34,-85.5 3497.34,-85.5"/>
<text text-anchor="middle" x="3516.59" y="-98.7" font-family="Times,serif" font-size="14.00">4:0 &#45; 4:0</text>
</g>
<!-- c36&#45;&gt;x10 -->
<g id="edge10" class="edge">
<title>c36:e&#45;&gt;x10:w</title>
<path fill="none" stroke="black" stroke-width="3" d="M3462.07,-103.69C3465.66,-103.65 3468.8,-103.6 3472.37,-103.57"/>
<polygon fill="none" stroke="black" stroke-width="3" points="3464.05,-103.68 3458.07,-107.71 3452.05,-103.74 3458.03,-99.71 3464.05,-103.68"/>
<polygon fill="none" stroke="black" stroke-width="3" points="3470.64,-103.57 3476.62,-99.54 3482.64,-103.51 3476.66,-107.54 3470.64,-103.57"/>
</g>
<!-- x9&#45;&gt;c36 -->
<g id="edge9" class="edge">
<title>x9:e&#45;&gt;c36:w</title>
<path fill="none" stroke="black" stroke-width="3" d="M3332.32,-115.56C3335.91,-115.6 3339.05,-115.65 3342.62,-115.68"/>
<polygon fill="none" stroke="black" stroke-width="3" points="3334.3,-115.57 3328.28,-119.54 3322.3,-115.51 3328.32,-111.54 3334.3,-115.57"/>
<polygon fill="none" stroke="black" stroke-width="3" points="3340.89,-115.68 3346.91,-111.71 3352.89,-115.74 3346.87,-119.71 3340.89,-115.68"/>
</g>
<!-- x10&#45;&gt;n23 -->
<g id="edge87" class="edge">
<title>x10:e&#45;&gt;n23:w</title>
<path fill="none" stroke="black" stroke-width="3" d="M3547.84,-103.75C3559.22,-103.75 3564.53,-103.62 3572.4,-103.55"/>
<polygon fill="black" stroke="black" stroke-width="3" points="3569.32,-107.06 3579.3,-103.52 3569.29,-100.06 3569.32,-107.06"/>
</g>
<!-- v11 -->
<g id="node28" class="node">
<title>v11</title>
<ellipse fill="none" stroke="black" cx="603.22" cy="-489.5" rx="27" ry="18"/>
<text text-anchor="middle" x="603.22" y="-484.45" font-family="Times,serif" font-size="14.00">1&#39;0</text>
</g>
<!-- c37 -->
<g id="node29" class="node">
<title>c37</title>
<polygon fill="none" stroke="black" points="694.47,-417 694.47,-466 782.22,-466 782.22,-417 694.47,-417"/>
<text text-anchor="middle" x="707.34" y="-448.7" font-family="Times,serif" font-size="14.00">A</text>
<polyline fill="none" stroke="black" points="694.47,-441.5 720.22,-441.5"/>
<text text-anchor="middle" x="707.34" y="-424.2" font-family="Times,serif" font-size="14.00">B</text>
<polyline fill="none" stroke="black" points="720.22,-417 720.22,-466"/>
<text text-anchor="middle" x="738.34" y="-444.7" font-family="Times,serif" font-size="14.00">$20</text>
<text text-anchor="middle" x="738.34" y="-428.2" font-family="Times,serif" font-size="14.00">$ge</text>
<polyline fill="none" stroke="black" points="756.47,-417 756.47,-466"/>
<text text-anchor="middle" x="769.34" y="-436.7" font-family="Times,serif" font-size="14.00">Y</text>
</g>
<!-- v11&#45;&gt;c37 -->
<g id="edge101" class="edge">
<title>v11:e&#45;&gt;c37:w</title>
<path fill="none" stroke="black" d="M631.47,-489.5C658.93,-489.5 661.48,-462.86 682.12,-455.57"/>
<polygon fill="black" stroke="black" points="682.65,-459.03 691.97,-453.99 681.54,-452.12 682.65,-459.03"/>
</g>
<!-- x13 -->
<g id="node31" class="node">
<title>x13</title>
<path fill="none" stroke="black" d="M832.09,-424.5C832.09,-424.5 870.59,-424.5 870.59,-424.5 876.59,-424.5 882.59,-430.5 882.59,-436.5 882.59,-436.5 882.59,-448.5 882.59,-448.5 882.59,-454.5 876.59,-460.5 870.59,-460.5 870.59,-460.5 832.09,-460.5 832.09,-460.5 826.09,-460.5 820.09,-454.5 820.09,-448.5 820.09,-448.5 820.09,-436.5 820.09,-436.5 820.09,-430.5 826.09,-424.5 832.09,-424.5"/>
<text text-anchor="middle" x="851.34" y="-437.7" font-family="Times,serif" font-size="14.00">0:0 &#45; 0:0</text>
</g>
<!-- c37&#45;&gt;x13 -->
<g id="edge12" class="edge">
<title>c37:e&#45;&gt;x13:w</title>
<path fill="none" stroke="black" d="M796.25,-441.94C800.05,-442.05 803.34,-442.2 807.15,-442.31"/>
<polygon fill="none" stroke="black" points="796.12,-441.94 790.06,-445.85 784.12,-441.76 790.18,-437.85 796.12,-441.94"/>
<polygon fill="none" stroke="black" points="807.19,-442.31 813.25,-438.4 819.19,-442.49 813.13,-446.4 807.19,-442.31"/>
</g>
<!-- x12&#45;&gt;c37 -->
<g id="edge11" class="edge">
<title>x12:e&#45;&gt;c37:w</title>
<path fill="none" stroke="black" stroke-width="3" d="M669.62,-428.69C673.42,-428.8 676.72,-428.95 680.52,-429.06"/>
<polygon fill="none" stroke="black" stroke-width="3" points="671.29,-428.71 665.24,-432.63 659.3,-428.54 665.35,-424.63 671.29,-428.71"/>
<polygon fill="none" stroke="black" stroke-width="3" points="678.76,-429.04 684.82,-425.12 690.76,-429.21 684.71,-433.12 678.76,-429.04"/>
</g>
<!-- n10 -->
<g id="node70" class="node">
<title>n10</title>
<ellipse fill="black" stroke="black" cx="965.22" cy="-454.5" rx="1.8" ry="1.8"/>
</g>
<!-- x13&#45;&gt;n10 -->
<g id="edge34" class="edge">
<title>x13:e&#45;&gt;n10:w</title>
<path fill="none" stroke="black" d="M882.59,-442.75C914.06,-442.75 924.02,-451.91 950.45,-454.05"/>
<polygon fill="black" stroke="black" points="950.3,-457.55 960.43,-454.44 950.57,-450.56 950.3,-457.55"/>
</g>
<!-- c38 -->
<g id="node32" class="node">
<title>c38</title>
<polygon fill="none" stroke="black" points="1047.84,-920 1047.84,-969 1143.84,-969 1143.84,-920 1047.84,-920"/>
<text text-anchor="middle" x="1060.72" y="-951.7" font-family="Times,serif" font-size="14.00">A</text>
<polyline fill="none" stroke="black" points="1047.84,-944.5 1073.59,-944.5"/>
<text text-anchor="middle" x="1060.72" y="-927.2" font-family="Times,serif" font-size="14.00">B</text>
<polyline fill="none" stroke="black" points="1073.59,-920 1073.59,-969"/>
<text text-anchor="middle" x="1095.84" y="-947.7" font-family="Times,serif" font-size="14.00">$4</text>
<text text-anchor="middle" x="1095.84" y="-931.2" font-family="Times,serif" font-size="14.00">$mul</text>
<polyline fill="none" stroke="black" points="1118.09,-920 1118.09,-969"/>
<text text-anchor="middle" x="1130.97" y="-939.7" font-family="Times,serif" font-size="14.00">Y</text>
</g>
<!-- c39 -->
<g id="node35" class="node">
<title>c39</title>
<polygon fill="none" stroke="black" points="1179.84,-865 1179.84,-914 1275.84,-914 1275.84,-865 1179.84,-865"/>
<text text-anchor="middle" x="1192.72" y="-896.7" font-family="Times,serif" font-size="14.00">A</text>
<polyline fill="none" stroke="black" points="1179.84,-889.5 1205.59,-889.5"/>
<text text-anchor="middle" x="1192.72" y="-872.2" font-family="Times,serif" font-size="14.00">B</text>
<polyline fill="none" stroke="black" points="1205.59,-865 1205.59,-914"/>
<text text-anchor="middle" x="1227.84" y="-892.7" font-family="Times,serif" font-size="14.00">$5</text>
<text text-anchor="middle" x="1227.84" y="-876.2" font-family="Times,serif" font-size="14.00">$mul</text>
<polyline fill="none" stroke="black" points="1250.09,-865 1250.09,-914"/>
<text text-anchor="middle" x="1262.97" y="-884.7" font-family="Times,serif" font-size="14.00">Y</text>
</g>
<!-- c38&#45;&gt;c39 -->
<g id="edge47" class="edge">
<title>c38:e&#45;&gt;c39:w</title>
<path fill="none" stroke="black" stroke-width="3" d="M1143.84,-944.75C1164.09,-944.75 1158.75,-916.36 1169.4,-905.72"/>
<polygon fill="black" stroke="black" stroke-width="3" points="1167.49,-910.19 1175.6,-903.36 1165.01,-903.64 1167.49,-910.19"/>
</g>
<!-- x14&#45;&gt;c38 -->
<g id="edge13" class="edge">
<title>x14:e&#45;&gt;c38:w</title>
<path fill="none" stroke="black" stroke-width="3" d="M783.45,-989.48C880.69,-989.17 910.22,-984.97 1011.84,-966.5 1022.8,-964.51 1027.8,-960.79 1034.93,-958.57"/>
<polygon fill="none" stroke="black" stroke-width="3" points="785.3,-989.48 779.3,-993.49 773.3,-989.5 779.29,-985.49 785.3,-989.48"/>
<polygon fill="none" stroke="black" stroke-width="3" points="1033.28,-958.8 1038.67,-954 1045.16,-957.13 1039.78,-961.92 1033.28,-958.8"/>
</g>
<!-- x15 -->
<g id="node34" class="node">
<title>x15</title>
<path fill="none" stroke="black" d="M930.59,-908C930.59,-908 999.84,-908 999.84,-908 1005.84,-908 1011.84,-914 1011.84,-920 1011.84,-920 1011.84,-945 1011.84,-945 1011.84,-951 1005.84,-957 999.84,-957 999.84,-957 930.59,-957 930.59,-957 924.59,-957 918.59,-951 918.59,-945 918.59,-945 918.59,-920 918.59,-920 918.59,-914 924.59,-908 930.59,-908"/>
<text text-anchor="middle" x="965.22" y="-939.7" font-family="Times,serif" font-size="14.00">21x 4:4 &#45; 25:5</text>
<polyline fill="none" stroke="black" points="918.59,-932.5 1011.84,-932.5"/>
<text text-anchor="middle" x="965.22" y="-915.2" font-family="Times,serif" font-size="14.00">4:0 &#45; 4:0</text>
</g>
<!-- x15&#45;&gt;c38 -->
<g id="edge14" class="edge">
<title>x15:e&#45;&gt;c38:w</title>
<path fill="none" stroke="black" stroke-width="3" d="M1024.56,-932.44C1028.16,-932.4 1031.29,-932.35 1034.87,-932.32"/>
<polygon fill="none" stroke="black" stroke-width="3" points="1026.55,-932.43 1020.57,-936.46 1014.55,-932.49 1020.53,-928.46 1026.55,-932.43"/>
<polygon fill="none" stroke="black" stroke-width="3" points="1033.14,-932.32 1039.12,-928.29 1045.14,-932.26 1039.16,-936.29 1033.14,-932.32"/>
</g>
<!-- c39&#45;&gt;c30 -->
<g id="edge37" class="edge">
<title>c39:e&#45;&gt;c30:w</title>
<path fill="none" stroke="black" stroke-width="3" d="M1275.84,-889.75C1298.53,-889.75 1294.63,-859.7 1308.59,-849.84"/>
<polygon fill="black" stroke="black" stroke-width="3" points="1306.23,-854.17 1314.86,-848.02 1304.28,-847.45 1306.23,-854.17"/>
</g>
<!-- x16&#45;&gt;c39 -->
<g id="edge15" class="edge">
<title>x16:e&#45;&gt;c39:w</title>
<path fill="none" stroke="black" stroke-width="3" d="M503.71,-875.5C795.09,-875.55 875.68,-877.2 1167.15,-877.25"/>
<polygon fill="none" stroke="black" stroke-width="3" points="505.55,-875.5 499.55,-879.5 493.55,-875.5 499.55,-871.5 505.55,-875.5"/>
<polygon fill="none" stroke="black" stroke-width="3" points="1165.14,-877.25 1171.14,-873.25 1177.14,-877.25 1171.14,-881.25 1165.14,-877.25"/>
</g>
<!-- c40 -->
<g id="node37" class="node">
<title>c40</title>
<polygon fill="none" stroke="black" points="919.47,-808 919.47,-849 1010.97,-849 1010.97,-808 919.47,-808"/>
<text text-anchor="middle" x="932.34" y="-823.7" font-family="Times,serif" font-size="14.00">A</text>
<polyline fill="none" stroke="black" points="945.22,-808 945.22,-849"/>
<text text-anchor="middle" x="965.22" y="-831.7" font-family="Times,serif" font-size="14.00">$11</text>
<text text-anchor="middle" x="965.22" y="-815.2" font-family="Times,serif" font-size="14.00">$not</text>
<polyline fill="none" stroke="black" points="985.22,-808 985.22,-849"/>
<text text-anchor="middle" x="998.09" y="-823.7" font-family="Times,serif" font-size="14.00">Y</text>
</g>
<!-- n12 -->
<g id="node71" class="node">
<title>n12</title>
<ellipse fill="black" stroke="black" cx="1227.84" cy="-822.5" rx="1.8" ry="1.8"/>
</g>
<!-- c40&#45;&gt;n12 -->
<g id="edge38" class="edge">
<title>c40:e&#45;&gt;n12:w</title>
<path fill="none" stroke="black" stroke-width="3" d="M1011.84,-828.75C1102.55,-828.75 1127.93,-823 1213.27,-822.53"/>
<polygon fill="black" stroke="black" stroke-width="3" points="1210.03,-826.04 1220.02,-822.51 1210.01,-819.04 1210.03,-826.04"/>
</g>
<!-- x17&#45;&gt;c40 -->
<g id="edge16" class="edge">
<title>x17:e&#45;&gt;c40:w</title>
<path fill="none" stroke="black" stroke-width="3" d="M365.65,-828.5C465.96,-828.5 495.77,-828.5 602.22,-828.5 602.22,-828.5 602.22,-828.5 739.34,-828.5 814.5,-828.5 836.48,-828.72 905.61,-828.75"/>
<polygon fill="none" stroke="black" stroke-width="3" points="367.42,-828.5 361.42,-832.5 355.42,-828.5 361.42,-824.5 367.42,-828.5"/>
<polygon fill="none" stroke="black" stroke-width="3" points="903.89,-828.75 909.89,-824.75 915.89,-828.75 909.89,-832.75 903.89,-828.75"/>
</g>
<!-- c41&#45;&gt;n22 -->
<g id="edge85" class="edge">
<title>c41:e&#45;&gt;n22:w</title>
<path fill="none" stroke="black" stroke-width="3" d="M1275.34,-442.75C1290.01,-442.75 1292.29,-456.39 1300.96,-463"/>
<polygon fill="black" stroke="black" stroke-width="3" points="1296.93,-465.37 1307.52,-465.11 1299.07,-458.71 1296.93,-465.37"/>
</g>
<!-- x18 -->
<g id="node40" class="node">
<title>x18</title>
<path fill="none" stroke="black" d="M1076.59,-436.5C1076.59,-436.5 1115.09,-436.5 1115.09,-436.5 1121.09,-436.5 1127.09,-442.5 1127.09,-448.5 1127.09,-448.5 1127.09,-460.5 1127.09,-460.5 1127.09,-466.5 1121.09,-472.5 1115.09,-472.5 1115.09,-472.5 1076.59,-472.5 1076.59,-472.5 1070.59,-472.5 1064.59,-466.5 1064.59,-460.5 1064.59,-460.5 1064.59,-448.5 1064.59,-448.5 1064.59,-442.5 1070.59,-436.5 1076.59,-436.5"/>
<text text-anchor="middle" x="1095.84" y="-449.7" font-family="Times,serif" font-size="14.00">0:0 &#45; 0:0</text>
</g>
<!-- x18&#45;&gt;c41 -->
<g id="edge17" class="edge">
<title>x18:e&#45;&gt;c41:w</title>
<path fill="none" stroke="black" d="M1140.79,-454.53C1150.78,-454.58 1157.46,-454.67 1167.39,-454.72"/>
<polygon fill="none" stroke="black" points="1140.99,-454.53 1134.98,-458.52 1128.99,-454.5 1135,-450.52 1140.99,-454.53"/>
<polygon fill="none" stroke="black" points="1167.44,-454.72 1173.45,-450.73 1179.44,-454.75 1173.43,-458.73 1167.44,-454.72"/>
</g>
<!-- x20 -->
<g id="node43" class="node">
<title>x20</title>
<path fill="none" stroke="black" d="M1872.47,-244C1872.47,-244 1910.97,-244 1910.97,-244 1916.97,-244 1922.97,-250 1922.97,-256 1922.97,-256 1922.97,-281 1922.97,-281 1922.97,-287 1916.97,-293 1910.97,-293 1910.97,-293 1872.47,-293 1872.47,-293 1866.47,-293 1860.47,-287 1860.47,-281 1860.47,-281 1860.47,-256 1860.47,-256 1860.47,-250 1866.47,-244 1872.47,-244"/>
<text text-anchor="middle" x="1891.72" y="-275.7" font-family="Times,serif" font-size="14.00">6:5 &#45; 1:0</text>
<polyline fill="none" stroke="black" points="1860.47,-268.5 1922.97,-268.5"/>
<text text-anchor="middle" x="1891.72" y="-251.2" font-family="Times,serif" font-size="14.00">4:0 &#45; 4:0</text>
</g>
<!-- c42&#45;&gt;x20 -->
<g id="edge19" class="edge">
<title>c42:e&#45;&gt;x20:w</title>
<path fill="none" stroke="black" stroke-width="3" d="M1821.54,-268.72C1830.83,-268.67 1837.2,-268.58 1846.42,-268.53"/>
<polygon fill="none" stroke="black" stroke-width="3" points="1823.55,-268.71 1817.56,-272.73 1811.55,-268.74 1817.54,-264.73 1823.55,-268.71"/>
<polygon fill="none" stroke="black" stroke-width="3" points="1844.76,-268.54 1850.75,-264.52 1856.76,-268.51 1850.77,-272.52 1844.76,-268.54"/>
</g>
<!-- x19&#45;&gt;c42 -->
<g id="edge18" class="edge">
<title>x19:e&#45;&gt;c42:w</title>
<path fill="none" stroke="black" stroke-width="3" d="M1692.6,-538.23C1776.61,-519.55 1619.13,-300.8 1703.04,-282.03"/>
<polygon fill="none" stroke="black" stroke-width="3" points="1694.47,-538.04 1688.9,-542.62 1682.53,-539.23 1688.11,-534.66 1694.47,-538.04"/>
<polygon fill="none" stroke="black" stroke-width="3" points="1701.21,-282.21 1706.78,-277.64 1713.15,-281.02 1707.58,-285.6 1701.21,-282.21"/>
</g>
<!-- n13 -->
<g id="node72" class="node">
<title>n13</title>
<ellipse fill="black" stroke="black" cx="2232.59" cy="-252.5" rx="1.8" ry="1.8"/>
</g>
<!-- x20&#45;&gt;n13 -->
<g id="edge41" class="edge">
<title>x20:e&#45;&gt;n13:w</title>
<path fill="none" stroke="black" stroke-width="3" d="M1923.97,-256.25C2055.84,-256.25 2091.59,-252.71 2218.02,-252.51"/>
<polygon fill="black" stroke="black" stroke-width="3" points="2214.78,-256.01 2224.77,-252.5 2214.77,-249.01 2214.78,-256.01"/>
</g>
<!-- n8 -->
<g id="node75" class="node">
<title>n8</title>
<ellipse fill="black" stroke="black" cx="2020.72" cy="-290.5" rx="1.8" ry="1.8"/>
</g>
<!-- x20&#45;&gt;n8 -->
<g id="edge97" class="edge">
<title>x20:e&#45;&gt;n8:w</title>
<path fill="none" stroke="black" stroke-width="3" d="M1923.97,-280.75C1961.66,-280.75 1973.43,-288.69 2006.05,-290.24"/>
<polygon fill="black" stroke="black" stroke-width="3" points="2002.82,-293.67 2012.9,-290.4 2002.98,-286.67 2002.82,-293.67"/>
</g>
<!-- x22 -->
<g id="node46" class="node">
<title>x22</title>
<path fill="none" stroke="black" d="M2942.34,-123.5C2942.34,-123.5 2980.84,-123.5 2980.84,-123.5 2986.84,-123.5 2992.84,-129.5 2992.84,-135.5 2992.84,-135.5 2992.84,-147.5 2992.84,-147.5 2992.84,-153.5 2986.84,-159.5 2980.84,-159.5 2980.84,-159.5 2942.34,-159.5 2942.34,-159.5 2936.34,-159.5 2930.34,-153.5 2930.34,-147.5 2930.34,-147.5 2930.34,-135.5 2930.34,-135.5 2930.34,-129.5 2936.34,-123.5 2942.34,-123.5"/>
<text text-anchor="middle" x="2961.59" y="-136.7" font-family="Times,serif" font-size="14.00">6:0 &#45; 6:0</text>
</g>
<!-- c43&#45;&gt;x22 -->
<g id="edge21" class="edge">
<title>c43:e&#45;&gt;x22:w</title>
<path fill="none" stroke="black" stroke-width="3" d="M2907.08,-143.93C2910.67,-143.45 2913.79,-142.84 2917.36,-142.35"/>
<polygon fill="none" stroke="black" stroke-width="3" points="2909.02,-143.81 2903.29,-148.18 2897.04,-144.58 2902.77,-140.2 2909.02,-143.81"/>
<polygon fill="none" stroke="black" stroke-width="3" points="2915.67,-142.46 2921.4,-138.08 2927.65,-141.68 2921.92,-146.06 2915.67,-142.46"/>
</g>
<!-- x21&#45;&gt;c43 -->
<g id="edge20" class="edge">
<title>x21:e&#45;&gt;c43:w</title>
<path fill="none" stroke="black" stroke-width="3" d="M2777.17,-202.07C2784.61,-192.25 2782.09,-171.67 2789.67,-161.99"/>
<polygon fill="none" stroke="black" stroke-width="3" points="2778.71,-201.36 2774.92,-207.5 2767.8,-206.37 2771.58,-200.23 2778.71,-201.36"/>
<polygon fill="none" stroke="black" stroke-width="3" points="2787.93,-162.77 2791.77,-156.66 2798.88,-157.86 2795.04,-163.96 2787.93,-162.77"/>
</g>
<!-- x22&#45;&gt;x5 -->
<g id="edge44" class="edge">
<title>x22:e&#45;&gt;x5:w</title>
<path fill="none" stroke="black" stroke-width="3" d="M2992.84,-141.75C3004.22,-141.75 3009.53,-141.24 3017.4,-140.95"/>
<polygon fill="black" stroke="black" stroke-width="3" points="3014.37,-144.51 3024.3,-140.83 3014.24,-137.51 3014.37,-144.51"/>
</g>
<!-- x24 -->
<g id="node49" class="node">
<title>x24</title>
<path fill="none" stroke="black" d="M3969.85,-262C3969.85,-262 4008.35,-262 4008.35,-262 4014.35,-262 4020.35,-268 4020.35,-274 4020.35,-274 4020.35,-299 4020.35,-299 4020.35,-305 4014.35,-311 4008.35,-311 4008.35,-311 3969.85,-311 3969.85,-311 3963.85,-311 3957.85,-305 3957.85,-299 3957.85,-299 3957.85,-274 3957.85,-274 3957.85,-268 3963.85,-262 3969.85,-262"/>
<text text-anchor="middle" x="3989.1" y="-293.7" font-family="Times,serif" font-size="14.00">7:7 &#45; 9:9</text>
<polyline fill="none" stroke="black" points="3957.85,-286.5 4020.35,-286.5"/>
<text text-anchor="middle" x="3989.1" y="-269.2" font-family="Times,serif" font-size="14.00">6:0 &#45; 6:0</text>
</g>
<!-- c44&#45;&gt;x24 -->
<g id="edge23" class="edge">
<title>c44:e&#45;&gt;x24:w</title>
<path fill="none" stroke="black" stroke-width="3" d="M3934.57,-286.69C3938.16,-286.65 3941.3,-286.6 3944.87,-286.57"/>
<polygon fill="none" stroke="black" stroke-width="3" points="3936.55,-286.68 3930.57,-290.71 3924.55,-286.74 3930.53,-282.71 3936.55,-286.68"/>
<polygon fill="none" stroke="black" stroke-width="3" points="3943.14,-286.57 3949.12,-282.54 3955.14,-286.51 3949.16,-290.54 3943.14,-286.57"/>
</g>
<!-- x23&#45;&gt;c44 -->
<g id="edge22" class="edge">
<title>x23:e&#45;&gt;c44:w</title>
<path fill="none" stroke="black" stroke-width="3" d="M3804.81,-249.68C3809.75,-255.14 3811.97,-263.69 3816.93,-269.13"/>
<polygon fill="none" stroke="black" stroke-width="3" points="3806.34,-250.34 3799.24,-251.63 3795.33,-245.57 3802.42,-244.29 3806.34,-250.34"/>
<polygon fill="none" stroke="black" stroke-width="3" points="3815.34,-268.44 3822.43,-267.14 3826.36,-273.18 3819.27,-274.49 3815.34,-268.44"/>
</g>
<!-- x24&#45;&gt;n19 -->
<g id="edge63" class="edge">
<title>x24:e&#45;&gt;n19:w</title>
<path fill="none" stroke="black" stroke-width="3" d="M4020.35,-274.25C4032.62,-274.25 4037.14,-280.72 4045.18,-284.25"/>
<polygon fill="black" stroke="black" stroke-width="3" points="4041.4,-287.06 4051.89,-285.6 4042.78,-280.2 4041.4,-287.06"/>
</g>
<!-- x24&#45;&gt;n19 -->
<g id="edge64" class="edge">
<title>x24:e&#45;&gt;n19:w</title>
<path fill="none" stroke="black" d="M4020.35,-298.75C4032.62,-298.75 4037.14,-292.28 4045.18,-288.75"/>
<polygon fill="black" stroke="black" points="4045.75,-292.2 4054.86,-286.8 4044.37,-285.34 4045.75,-292.2"/>
</g>
<!-- x26 -->
<g id="node52" class="node">
<title>x26</title>
<path fill="none" stroke="black" d="M2114.84,-688.5C2114.84,-688.5 2153.34,-688.5 2153.34,-688.5 2159.34,-688.5 2165.34,-694.5 2165.34,-700.5 2165.34,-700.5 2165.34,-712.5 2165.34,-712.5 2165.34,-718.5 2159.34,-724.5 2153.34,-724.5 2153.34,-724.5 2114.84,-724.5 2114.84,-724.5 2108.84,-724.5 2102.84,-718.5 2102.84,-712.5 2102.84,-712.5 2102.84,-700.5 2102.84,-700.5 2102.84,-694.5 2108.84,-688.5 2114.84,-688.5"/>
<text text-anchor="middle" x="2134.09" y="-701.7" font-family="Times,serif" font-size="14.00">3:0 &#45; 3:0</text>
</g>
<!-- c45&#45;&gt;x26 -->
<g id="edge25" class="edge">
<title>c45:e&#45;&gt;x26:w</title>
<path fill="none" stroke="black" stroke-width="3" d="M2079.58,-708.93C2083.17,-708.45 2086.29,-707.84 2089.86,-707.35"/>
<polygon fill="none" stroke="black" stroke-width="3" points="2081.52,-708.81 2075.79,-713.18 2069.54,-709.58 2075.27,-705.2 2081.52,-708.81"/>
<polygon fill="none" stroke="black" stroke-width="3" points="2088.17,-707.46 2093.9,-703.08 2100.14,-706.68 2094.42,-711.06 2088.17,-707.46"/>
</g>
<!-- x25&#45;&gt;c45 -->
<g id="edge24" class="edge">
<title>x25:e&#45;&gt;c45:w</title>
<path fill="none" stroke="black" stroke-width="3" d="M1412.27,-694.52C1505.22,-694.75 1533.16,-697.5 1632.22,-697.5 1632.22,-697.5 1632.22,-697.5 1763.34,-697.5 1852.74,-697.5 1878.3,-697.27 1961.58,-697.25"/>
<polygon fill="none" stroke="black" stroke-width="3" points="1414.05,-694.52 1408.04,-698.51 1402.05,-694.5 1408.05,-690.51 1414.05,-694.52"/>
<polygon fill="none" stroke="black" stroke-width="3" points="1959.89,-697.25 1965.89,-693.25 1971.89,-697.25 1965.89,-701.25 1959.89,-697.25"/>
</g>
<!-- x27 -->
<g id="node54" class="node">
<title>x27</title>
<path fill="none" stroke="black" d="M2213.34,-685.5C2213.34,-685.5 2251.84,-685.5 2251.84,-685.5 2257.84,-685.5 2263.84,-691.5 2263.84,-697.5 2263.84,-697.5 2263.84,-709.5 2263.84,-709.5 2263.84,-715.5 2257.84,-721.5 2251.84,-721.5 2251.84,-721.5 2213.34,-721.5 2213.34,-721.5 2207.34,-721.5 2201.34,-715.5 2201.34,-709.5 2201.34,-709.5 2201.34,-697.5 2201.34,-697.5 2201.34,-691.5 2207.34,-685.5 2213.34,-685.5"/>
<text text-anchor="middle" x="2232.59" y="-698.7" font-family="Times,serif" font-size="14.00">3:0 &#45; 3:0</text>
</g>
<!-- x26&#45;&gt;x27 -->
<g id="edge45" class="edge">
<title>x26:e&#45;&gt;x27:w</title>
<path fill="none" stroke="black" stroke-width="3" d="M2165.34,-706.75C2176.76,-706.75 2182.02,-705.23 2189.88,-704.36"/>
<polygon fill="black" stroke="black" stroke-width="3" points="2187.01,-708.01 2196.81,-703.99 2186.64,-701.02 2187.01,-708.01"/>
</g>
<!-- c46 -->
<g id="node53" class="node">
<title>c46</title>
<polygon fill="none" stroke="black" points="2299.84,-638 2299.84,-687 2392.09,-687 2392.09,-638 2299.84,-638"/>
<text text-anchor="middle" x="2312.72" y="-669.7" font-family="Times,serif" font-size="14.00">A</text>
<polyline fill="none" stroke="black" points="2299.84,-662.5 2325.59,-662.5"/>
<text text-anchor="middle" x="2312.72" y="-645.2" font-family="Times,serif" font-size="14.00">B</text>
<polyline fill="none" stroke="black" points="2325.59,-638 2325.59,-687"/>
<text text-anchor="middle" x="2345.97" y="-665.7" font-family="Times,serif" font-size="14.00">$14</text>
<text text-anchor="middle" x="2345.97" y="-649.2" font-family="Times,serif" font-size="14.00">$xor</text>
<polyline fill="none" stroke="black" points="2366.34,-638 2366.34,-687"/>
<text text-anchor="middle" x="2379.22" y="-657.7" font-family="Times,serif" font-size="14.00">Y</text>
</g>
<!-- c46&#45;&gt;n21 -->
<g id="edge83" class="edge">
<title>c46:e&#45;&gt;n21:w</title>
<path fill="none" stroke="black" stroke-width="3" d="M2392.09,-662.75C2506.28,-662.75 2442.83,-467.56 2544.87,-454.22"/>
<polygon fill="black" stroke="black" stroke-width="3" points="2542.05,-457.9 2551.81,-453.78 2541.61,-450.91 2542.05,-457.9"/>
</g>
<!-- x27&#45;&gt;c46 -->
<g id="edge26" class="edge">
<title>x27:e&#45;&gt;c46:w</title>
<path fill="none" stroke="black" stroke-width="3" d="M2275.73,-698.49C2280.7,-693.22 2283.02,-684.96 2288.01,-679.7"/>
<polygon fill="none" stroke="black" stroke-width="3" points="2277.39,-697.79 2273.42,-703.81 2266.34,-702.45 2270.31,-696.43 2277.39,-697.79"/>
<polygon fill="none" stroke="black" stroke-width="3" points="2286.28,-680.42 2290.27,-674.42 2297.35,-675.79 2293.36,-681.8 2286.28,-680.42"/>
</g>
<!-- x28&#45;&gt;c46 -->
<g id="edge27" class="edge">
<title>x28:e&#45;&gt;c46:w</title>
<path fill="none" stroke="black" stroke-width="3" d="M1549.73,-650.5C1638.94,-650.5 1665.99,-650.5 1761.34,-650.5 1761.34,-650.5 1761.34,-650.5 2135.09,-650.5 2203.88,-650.5 2224.2,-650.28 2287.12,-650.25"/>
<polygon fill="none" stroke="black" stroke-width="3" points="1551.42,-650.5 1545.42,-654.5 1539.42,-650.5 1545.42,-646.5 1551.42,-650.5"/>
<polygon fill="none" stroke="black" stroke-width="3" points="2285.14,-650.25 2291.14,-646.25 2297.14,-650.25 2291.14,-654.25 2285.14,-650.25"/>
</g>
<!-- x30 -->
<g id="node58" class="node">
<title>x30</title>
<path fill="none" stroke="black" d="M1613.97,-774.5C1613.97,-774.5 1652.47,-774.5 1652.47,-774.5 1658.47,-774.5 1664.47,-780.5 1664.47,-786.5 1664.47,-786.5 1664.47,-798.5 1664.47,-798.5 1664.47,-804.5 1658.47,-810.5 1652.47,-810.5 1652.47,-810.5 1613.97,-810.5 1613.97,-810.5 1607.97,-810.5 1601.97,-804.5 1601.97,-798.5 1601.97,-798.5 1601.97,-786.5 1601.97,-786.5 1601.97,-780.5 1607.97,-774.5 1613.97,-774.5"/>
<text text-anchor="middle" x="1633.22" y="-787.7" font-family="Times,serif" font-size="14.00">3:0 &#45; 3:0</text>
</g>
<!-- c47&#45;&gt;x30 -->
<g id="edge29" class="edge">
<title>c47:e&#45;&gt;x30:w</title>
<path fill="none" stroke="black" stroke-width="3" d="M1563.62,-794.46C1572.7,-794.02 1578.98,-793.22 1588.09,-792.79"/>
<polygon fill="none" stroke="black" stroke-width="3" points="1565.29,-794.42 1559.39,-798.55 1553.3,-794.69 1559.2,-790.55 1565.29,-794.42"/>
<polygon fill="none" stroke="black" stroke-width="3" points="1586.27,-792.83 1592.18,-788.7 1598.26,-792.56 1592.36,-796.69 1586.27,-792.83"/>
</g>
<!-- x29&#45;&gt;c47 -->
<g id="edge28" class="edge">
<title>x29:e&#45;&gt;c47:w</title>
<path fill="none" stroke="black" stroke-width="3" d="M895.59,-702.95C984.16,-709.26 999,-779.5 1094.84,-779.5 1094.84,-779.5 1094.84,-779.5 1228.84,-779.5 1326.37,-779.5 1353.95,-782.01 1445.33,-782.23"/>
<polygon fill="none" stroke="black" stroke-width="3" points="897.29,-703.01 891.15,-706.8 885.29,-702.59 891.43,-698.81 897.29,-703.01"/>
<polygon fill="none" stroke="black" stroke-width="3" points="1443.64,-782.23 1449.64,-778.24 1455.64,-782.25 1449.63,-786.24 1443.64,-782.23"/>
</g>
<!-- x30&#45;&gt;x1 -->
<g id="edge46" class="edge">
<title>x30:e&#45;&gt;x1:w</title>
<path fill="none" stroke="black" stroke-width="3" d="M1665.47,-792.75C1690.07,-792.75 1698.83,-790.55 1718.85,-789.92"/>
<polygon fill="black" stroke="black" stroke-width="3" points="1715.61,-793.47 1725.55,-789.82 1715.5,-786.47 1715.61,-793.47"/>
</g>
<!-- x32 -->
<g id="node60" class="node">
<title>x32</title>
<path fill="none" stroke="black" d="M301.22,-954.5C301.22,-954.5 339.72,-954.5 339.72,-954.5 345.72,-954.5 351.72,-960.5 351.72,-966.5 351.72,-966.5 351.72,-978.5 351.72,-978.5 351.72,-984.5 345.72,-990.5 339.72,-990.5 339.72,-990.5 301.22,-990.5 301.22,-990.5 295.22,-990.5 289.22,-984.5 289.22,-978.5 289.22,-978.5 289.22,-966.5 289.22,-966.5 289.22,-960.5 295.22,-954.5 301.22,-954.5"/>
<text text-anchor="middle" x="320.47" y="-967.7" font-family="Times,serif" font-size="14.00">0:0 &#45; 0:0</text>
</g>
<!-- x31&#45;&gt;x32 -->
<g id="edge30" class="edge">
<title>x31:e&#45;&gt;x32:w</title>
<path fill="none" stroke="black" d="M235.95,-969.73C251.3,-970.29 260.15,-971.74 275.61,-972.29"/>
<polygon fill="none" stroke="black" points="235.87,-969.72 229.8,-973.62 223.87,-969.52 229.94,-965.62 235.87,-969.72"/>
<polygon fill="none" stroke="black" points="275.32,-972.28 281.38,-968.38 287.31,-972.48 281.25,-976.38 275.32,-972.28"/>
</g>
<!-- x32&#45;&gt;n2 -->
<g id="edge67" class="edge">
<title>x32:e&#45;&gt;n2:w</title>
<path fill="none" stroke="black" d="M352.72,-972.75C459.44,-972.75 487.39,-999.51 588.58,-1001.4"/>
<polygon fill="black" stroke="black" points="588.39,-1004.89 598.43,-1001.49 588.46,-997.89 588.39,-1004.89"/>
</g>
<!-- v33 -->
<g id="node61" class="node">
<title>v33</title>
<ellipse fill="none" stroke="black" cx="738.34" cy="-502.5" rx="35.49" ry="18"/>
<text text-anchor="middle" x="738.34" y="-497.45" font-family="Times,serif" font-size="14.00">4&#39;0000</text>
</g>
<!-- x34 -->
<g id="node62" class="node">
<title>x34</title>
<path fill="none" stroke="black" d="M832.09,-481.5C832.09,-481.5 870.59,-481.5 870.59,-481.5 876.59,-481.5 882.59,-487.5 882.59,-493.5 882.59,-493.5 882.59,-505.5 882.59,-505.5 882.59,-511.5 876.59,-517.5 870.59,-517.5 870.59,-517.5 832.09,-517.5 832.09,-517.5 826.09,-517.5 820.09,-511.5 820.09,-505.5 820.09,-505.5 820.09,-493.5 820.09,-493.5 820.09,-487.5 826.09,-481.5 832.09,-481.5"/>
<text text-anchor="middle" x="851.34" y="-494.7" font-family="Times,serif" font-size="14.00">3:0 &#45; 4:1</text>
</g>
<!-- v33&#45;&gt;x34 -->
<g id="edge103" class="edge">
<title>v33:e&#45;&gt;x34:w</title>
<path fill="none" stroke="black" stroke-width="3" d="M775.16,-502.5C790.8,-502.5 797.21,-500.67 808.81,-499.87"/>
<polygon fill="black" stroke="black" stroke-width="3" points="805.67,-503.47 815.55,-499.65 805.44,-496.48 805.67,-503.47"/>
</g>
<!-- x34&#45;&gt;n10 -->
<g id="edge35" class="edge">
<title>x34:e&#45;&gt;n10:w</title>
<path fill="none" stroke="black" stroke-width="3" d="M882.59,-499.75C919.07,-499.75 921.28,-463.22 950.79,-455.81"/>
<polygon fill="black" stroke="black" stroke-width="3" points="947.9,-459.67 957.43,-455.03 947.09,-452.72 947.9,-459.67"/>
</g>
<!-- x35 -->
<g id="node63" class="node">
<title>x35</title>
<path fill="none" stroke="black" d="M2114.84,-272.5C2114.84,-272.5 2153.34,-272.5 2153.34,-272.5 2159.34,-272.5 2165.34,-278.5 2165.34,-284.5 2165.34,-284.5 2165.34,-296.5 2165.34,-296.5 2165.34,-302.5 2159.34,-308.5 2153.34,-308.5 2153.34,-308.5 2114.84,-308.5 2114.84,-308.5 2108.84,-308.5 2102.84,-302.5 2102.84,-296.5 2102.84,-296.5 2102.84,-284.5 2102.84,-284.5 2102.84,-278.5 2108.84,-272.5 2114.84,-272.5"/>
<text text-anchor="middle" x="2134.09" y="-285.7" font-family="Times,serif" font-size="14.00">1:0 &#45; 6:5</text>
</g>
<!-- x35&#45;&gt;n13 -->
<g id="edge42" class="edge">
<title>x35:e&#45;&gt;n13:w</title>
<path fill="none" stroke="black" stroke-width="3" d="M2165.34,-290.75C2194.2,-290.75 2196.19,-261.73 2218.12,-254.24"/>
<polygon fill="black" stroke="black" stroke-width="3" points="2215.49,-258.19 2224.83,-253.2 2214.41,-251.28 2215.49,-258.19"/>
</g>
<!-- x37 -->
<g id="node65" class="node">
<title>x37</title>
<path fill="none" stroke="black" d="M4337.91,-267.5C4337.91,-267.5 4376.41,-267.5 4376.41,-267.5 4382.41,-267.5 4388.41,-273.5 4388.41,-279.5 4388.41,-279.5 4388.41,-291.5 4388.41,-291.5 4388.41,-297.5 4382.41,-303.5 4376.41,-303.5 4376.41,-303.5 4337.91,-303.5 4337.91,-303.5 4331.91,-303.5 4325.91,-297.5 4325.91,-291.5 4325.91,-291.5 4325.91,-279.5 4325.91,-279.5 4325.91,-273.5 4331.91,-267.5 4337.91,-267.5"/>
<text text-anchor="middle" x="4357.16" y="-280.7" font-family="Times,serif" font-size="14.00">1:0 &#45; 8:7</text>
</g>
<!-- x36&#45;&gt;x37 -->
<g id="edge31" class="edge">
<title>x36:e&#45;&gt;x37:w</title>
<path fill="none" stroke="black" stroke-width="3" d="M4301.89,-266.93C4306.49,-271.01 4309.34,-277.01 4313.94,-281.08"/>
<polygon fill="none" stroke="black" stroke-width="3" points="4303.7,-267.61 4296.68,-269.27 4292.44,-263.44 4299.46,-261.77 4303.7,-267.61"/>
<polygon fill="none" stroke="black" stroke-width="3" points="4312.12,-280.4 4319.13,-278.73 4323.37,-284.56 4316.36,-286.23 4312.12,-280.4"/>
</g>
<!-- x37&#45;&gt;n19 -->
<g id="edge65" class="edge">
<title>x37:e&#45;&gt;n19:w</title>
<path fill="none" stroke="black" stroke-width="3" d="M4389.41,-285.75C4397.53,-285.75 4394.3,-298.41 4388.41,-304 4319.33,-369.55 4269.38,-304.39 4174.16,-304.5 4121.69,-304.56 4094.22,-340.56 4056.1,-304.5 4054.1,-302.61 4052.41,-299.89 4051.38,-297.14"/>
<polygon fill="black" stroke="black" stroke-width="3" points="4053.6,-301.38 4053.6,-290.79 4046.99,-299.07 4053.6,-301.38"/>
</g>
<!-- x39 -->
<g id="node67" class="node">
<title>x39</title>
<path fill="none" stroke="black" d="M712.34,-334.5C712.34,-334.5 764.34,-334.5 764.34,-334.5 770.34,-334.5 776.34,-340.5 776.34,-346.5 776.34,-346.5 776.34,-358.5 776.34,-358.5 776.34,-364.5 770.34,-370.5 764.34,-370.5 764.34,-370.5 712.34,-370.5 712.34,-370.5 706.34,-370.5 700.34,-364.5 700.34,-358.5 700.34,-358.5 700.34,-346.5 700.34,-346.5 700.34,-340.5 706.34,-334.5 712.34,-334.5"/>
<text text-anchor="middle" x="738.34" y="-347.7" font-family="Times,serif" font-size="14.00">20:0 &#45; 24:4</text>
</g>
<!-- x38&#45;&gt;x39 -->
<g id="edge32" class="edge">
<title>x38:e&#45;&gt;x39:w</title>
<path fill="none" stroke="black" stroke-width="3" d="M669.09,-332.04C676.11,-336.63 679.97,-344.58 687.07,-349.1"/>
<polygon fill="none" stroke="black" stroke-width="3" points="670.74,-332.51 663.88,-334.72 659.19,-329.24 666.06,-327.03 670.74,-332.51"/>
<polygon fill="none" stroke="black" stroke-width="3" points="685.17,-348.57 692.02,-346.32 696.74,-351.78 689.89,-354.03 685.17,-348.57"/>
</g>
<!-- x39&#45;&gt;n20 -->
<g id="edge72" class="edge">
<title>x39:e&#45;&gt;n20:w</title>
<path fill="none" stroke="black" stroke-width="3" d="M777.34,-352.75C785.47,-352.75 781.94,-365.12 776.34,-371 706.54,-444.28 624.91,-326.63 549.84,-394.5 491.26,-447.46 575.08,-518.64 513.84,-568.5 475.28,-599.9 438.09,-602.67 401.96,-568.5 399.96,-566.61 398.27,-563.89 397.24,-561.14"/>
<polygon fill="black" stroke="black" stroke-width="3" points="399.47,-565.38 399.46,-554.79 392.86,-563.07 399.47,-565.38"/>
</g>
<!-- v40 -->
<g id="node68" class="node">
<title>v40</title>
<ellipse fill="none" stroke="black" cx="3402.47" cy="-42.5" rx="27" ry="18"/>
<text text-anchor="middle" x="3402.47" y="-37.45" font-family="Times,serif" font-size="14.00">2&#39;00</text>
</g>
<!-- x41 -->
<g id="node69" class="node">
<title>x41</title>
<path fill="none" stroke="black" d="M3497.34,-27.5C3497.34,-27.5 3535.84,-27.5 3535.84,-27.5 3541.84,-27.5 3547.84,-33.5 3547.84,-39.5 3547.84,-39.5 3547.84,-51.5 3547.84,-51.5 3547.84,-57.5 3541.84,-63.5 3535.84,-63.5 3535.84,-63.5 3497.34,-63.5 3497.34,-63.5 3491.34,-63.5 3485.34,-57.5 3485.34,-51.5 3485.34,-51.5 3485.34,-39.5 3485.34,-39.5 3485.34,-33.5 3491.34,-27.5 3497.34,-27.5"/>
<text text-anchor="middle" x="3516.59" y="-40.7" font-family="Times,serif" font-size="14.00">1:0 &#45; 6:5</text>
</g>
<!-- v40&#45;&gt;x41 -->
<g id="edge104" class="edge">
<title>v40:e&#45;&gt;x41:w</title>
<path fill="none" stroke="black" stroke-width="3" d="M3430.72,-42.5C3450.86,-42.5 3458.43,-44.56 3474.24,-45.26"/>
<polygon fill="black" stroke="black" stroke-width="3" points="3470.73,-48.69 3480.8,-45.4 3470.88,-41.69 3470.73,-48.69"/>
</g>
<!-- x41&#45;&gt;n23 -->
<g id="edge88" class="edge">
<title>x41:e&#45;&gt;n23:w</title>
<path fill="none" stroke="black" stroke-width="3" d="M3547.84,-45.75C3573.36,-45.75 3559.92,-86.86 3573.26,-99.71"/>
<polygon fill="black" stroke="black" stroke-width="3" points="3568.97,-101.9 3579.57,-101.97 3571.33,-95.3 3568.97,-101.9"/>
</g>
<!-- n10&#45;&gt;x18 -->
<g id="edge36" class="edge">
<title>n10:e&#45;&gt;x18:w</title>
<path fill="none" stroke="black" d="M968.5,-454.5C1006.8,-454.5 1019.07,-454.71 1052.49,-454.74"/>
<polygon fill="black" stroke="black" points="1052.08,-458.24 1062.08,-454.75 1052.08,-451.24 1052.08,-458.24"/>
</g>
<!-- n12&#45;&gt;c28 -->
<g id="edge39" class="edge">
<title>n12:e&#45;&gt;c28:w</title>
<path fill="none" stroke="black" stroke-width="3" d="M1231.12,-822.5C1262.69,-822.5 1471.9,-741.5 1503.47,-741.5 1503.47,-741.5 1503.47,-741.5 1634.22,-741.5 1723.9,-741.5 1749.14,-741.27 1833.41,-741.25"/>
<polygon fill="black" stroke="black" stroke-width="3" points="1830.3,-744.75 1840.3,-741.25 1830.3,-737.75 1830.3,-744.75"/>
</g>
<!-- n12&#45;&gt;c30 -->
<g id="edge40" class="edge">
<title>n12:e&#45;&gt;c30:w</title>
<path fill="none" stroke="black" stroke-width="3" d="M1231.12,-822.5C1266.15,-822.5 1277.67,-822.3 1307.74,-822.26"/>
<polygon fill="black" stroke="black" stroke-width="3" points="1304.68,-825.76 1314.68,-822.25 1304.67,-818.76 1304.68,-825.76"/>
</g>
<!-- n13&#45;&gt;x8 -->
<g id="edge43" class="edge">
<title>n13:e&#45;&gt;x8:w</title>
<path fill="none" stroke="black" stroke-width="3" d="M2235.87,-252.5C2266.42,-252.5 2276.74,-252.69 2302.54,-252.74"/>
<polygon fill="black" stroke="black" stroke-width="3" points="2299.17,-256.24 2309.18,-252.75 2299.18,-249.24 2299.17,-256.24"/>
</g>
<!-- n2&#45;&gt;x14 -->
<g id="edge69" class="edge">
<title>n2:e&#45;&gt;x14:w</title>
<path fill="none" stroke="black" stroke-width="3" d="M606.5,-1001.5C646.78,-1001.5 659.57,-1001.71 694.92,-1001.74"/>
<polygon fill="black" stroke="black" stroke-width="3" points="691.55,-1005.24 701.55,-1001.75 691.55,-998.24 691.55,-1005.24"/>
</g>
<!-- n5&#45;&gt;x15 -->
<g id="edge93" class="edge">
<title>n5:e&#45;&gt;x15:w</title>
<path fill="none" stroke="black" stroke-width="3" d="M854.62,-925.5C878.91,-925.5 887.53,-921.69 907.18,-920.56"/>
<polygon fill="black" stroke="black" stroke-width="3" points="904.15,-924.15 914.05,-920.37 903.96,-917.15 904.15,-924.15"/>
</g>
<!-- n5&#45;&gt;x15 -->
<g id="edge94" class="edge">
<title>n5:e&#45;&gt;x15:w</title>
<path fill="none" stroke="black" stroke-width="3" d="M854.62,-925.5C880.02,-925.5 887.05,-939.59 907.14,-943.66"/>
<polygon fill="black" stroke="black" stroke-width="3" points="903.79,-946.86 914.07,-944.32 904.45,-939.89 903.79,-946.86"/>
</g>
<!-- n8&#45;&gt;x21 -->
<g id="edge98" class="edge">
<title>n8:e&#45;&gt;x21:w</title>
<path fill="none" stroke="black" stroke-width="3" d="M2024,-290.5C2061.18,-290.5 2066.76,-309.52 2102.84,-318.5 2158.97,-332.47 2173.75,-337.5 2231.59,-337.5 2231.59,-337.5 2231.59,-337.5 2475.22,-337.5 2528.61,-337.5 2631.9,-234.01 2691.53,-221.07"/>
<polygon fill="black" stroke="black" stroke-width="3" points="2688.81,-224.91 2698.33,-220.28 2688,-217.96 2688.81,-224.91"/>
</g>
<!-- n8&#45;&gt;x35 -->
<g id="edge99" class="edge">
<title>n8:e&#45;&gt;x35:w</title>
<path fill="none" stroke="black" stroke-width="3" d="M2024,-290.5C2054.93,-290.5 2065.39,-290.5 2091.52,-290.5"/>
<polygon fill="black" stroke="black" stroke-width="3" points="2088.3,-294 2098.3,-290.5 2088.3,-287 2088.3,-294"/>
</g>
</g>
</svg>
