<?xml version="1.0" encoding="UTF-8" standalone="no"?>
<!DOCTYPE svg PUBLIC "-//W3C//DTD SVG 1.1//EN"
 "http://www.w3.org/Graphics/SVG/1.1/DTD/svg11.dtd">
<!-- Generated by graphviz version 12.2.1 (20241206.2353)
 -->
<!-- Title: top Pages: 1 -->
<svg width="4174pt" height="597pt"
 viewBox="0.00 0.00 4174.30 596.87" xmlns="http://www.w3.org/2000/svg" xmlns:xlink="http://www.w3.org/1999/xlink">
<g id="graph0" class="graph" transform="scale(1 1) rotate(0) translate(4 592.87)">
<title>top</title>
<polygon fill="white" stroke="none" points="-4,4 -4,-592.87 4170.3,-592.87 4170.3,4 -4,4"/>
<text text-anchor="middle" x="2083.15" y="-7.2" font-family="Times,serif" font-size="14.00">top</text>
<!-- n11 -->
<g id="node1" class="node">
<title>n11</title>
<polygon fill="none" stroke="black" points="107.84,-291.04 107.84,-305.96 76.26,-316.5 31.59,-316.5 0,-305.96 0,-291.04 31.59,-280.5 76.26,-280.5 107.84,-291.04"/>
<text text-anchor="middle" x="53.92" y="-293.45" font-family="Times,serif" font-size="14.00">input_data</text>
</g>
<!-- c28 -->
<g id="node32" class="node">
<title>c28</title>
<polygon fill="none" stroke="black" points="143.84,-262 143.84,-311 229.34,-311 229.34,-262 143.84,-262"/>
<text text-anchor="middle" x="156.72" y="-293.7" font-family="Times,serif" font-size="14.00">A</text>
<polyline fill="none" stroke="black" points="143.84,-286.5 169.59,-286.5"/>
<text text-anchor="middle" x="156.72" y="-269.2" font-family="Times,serif" font-size="14.00">B</text>
<polyline fill="none" stroke="black" points="169.59,-262 169.59,-311"/>
<text text-anchor="middle" x="186.59" y="-289.7" font-family="Times,serif" font-size="14.00">$1</text>
<text text-anchor="middle" x="186.59" y="-273.2" font-family="Times,serif" font-size="14.00">$or</text>
<polyline fill="none" stroke="black" points="203.59,-262 203.59,-311"/>
<text text-anchor="middle" x="216.47" y="-281.7" font-family="Times,serif" font-size="14.00">Y</text>
</g>
<!-- n11&#45;&gt;c28 -->
<g id="edge35" class="edge">
<title>n11:e&#45;&gt;c28:w</title>
<path fill="none" stroke="black" stroke-width="3" d="M107.84,-298.5C119.22,-298.5 124.53,-298.63 132.39,-298.7"/>
<polygon fill="black" stroke="black" stroke-width="3" points="129.28,-302.19 139.3,-298.73 129.32,-295.19 129.28,-302.19"/>
</g>
<!-- n11&#45;&gt;c28 -->
<g id="edge36" class="edge">
<title>n11:e&#45;&gt;c28:w</title>
<path fill="none" stroke="black" stroke-width="3" d="M107.84,-298.5C122.46,-298.5 124.52,-284.57 133.05,-277.83"/>
<polygon fill="black" stroke="black" stroke-width="3" points="131.14,-282.15 139.53,-275.68 128.94,-275.51 131.14,-282.15"/>
</g>
<!-- x18 -->
<g id="node35" class="node">
<title>x18</title>
<path fill="none" stroke="black" d="M167.34,-342.5C167.34,-342.5 205.84,-342.5 205.84,-342.5 211.84,-342.5 217.84,-348.5 217.84,-354.5 217.84,-354.5 217.84,-366.5 217.84,-366.5 217.84,-372.5 211.84,-378.5 205.84,-378.5 205.84,-378.5 167.34,-378.5 167.34,-378.5 161.34,-378.5 155.34,-372.5 155.34,-366.5 155.34,-366.5 155.34,-354.5 155.34,-354.5 155.34,-348.5 161.34,-342.5 167.34,-342.5"/>
<text text-anchor="middle" x="186.59" y="-355.7" font-family="Times,serif" font-size="14.00">1:0 &#45; 1:0</text>
</g>
<!-- n11&#45;&gt;x18 -->
<g id="edge37" class="edge">
<title>n11:e&#45;&gt;x18:w</title>
<path fill="none" stroke="black" stroke-width="3" d="M107.84,-298.5C137.79,-298.5 124.79,-345.31 143.34,-357.75"/>
<polygon fill="black" stroke="black" stroke-width="3" points="139.39,-360.3 149.96,-359.55 141.23,-353.55 139.39,-360.3"/>
</g>
<!-- n12 -->
<g id="node2" class="node">
<title>n12</title>
<polygon fill="none" stroke="black" points="3531.02,-195.04 3531.02,-209.96 3496.51,-220.5 3447.71,-220.5 3413.2,-209.96 3413.2,-195.04 3447.71,-184.5 3496.51,-184.5 3531.02,-195.04"/>
<text text-anchor="middle" x="3472.11" y="-197.45" font-family="Times,serif" font-size="14.00">output_data</text>
</g>
<!-- x36 -->
<g id="node56" class="node">
<title>x36</title>
<path fill="none" stroke="black" d="M3579.02,-161.5C3579.02,-161.5 3637.77,-161.5 3637.77,-161.5 3643.77,-161.5 3649.77,-167.5 3649.77,-173.5 3649.77,-173.5 3649.77,-185.5 3649.77,-185.5 3649.77,-191.5 3643.77,-197.5 3637.77,-197.5 3637.77,-197.5 3579.02,-197.5 3579.02,-197.5 3573.02,-197.5 3567.02,-191.5 3567.02,-185.5 3567.02,-185.5 3567.02,-173.5 3567.02,-173.5 3567.02,-167.5 3573.02,-161.5 3579.02,-161.5"/>
<text text-anchor="middle" x="3608.39" y="-174.7" font-family="Times,serif" font-size="14.00">47:30 &#45; 17:0</text>
</g>
<!-- n12&#45;&gt;x36 -->
<g id="edge40" class="edge">
<title>n12:e&#45;&gt;x36:w</title>
<path fill="none" stroke="black" stroke-width="3" d="M3531.02,-202.5C3545.21,-202.5 3547.72,-189.7 3556.07,-183.3"/>
<polygon fill="black" stroke="black" stroke-width="3" points="3554.27,-187.57 3562.7,-181.15 3552.1,-180.91 3554.27,-187.57"/>
</g>
<!-- n13 -->
<g id="node3" class="node">
<title>n13</title>
<polygon fill="none" stroke="black" points="320.59,-301.5 265.34,-283.5 320.59,-265.5 375.84,-283.5 320.59,-301.5"/>
<text text-anchor="middle" x="320.59" y="-278.45" font-family="Times,serif" font-size="14.00">temp_0</text>
</g>
<!-- c19 -->
<g id="node6" class="node">
<title>c19</title>
<polygon fill="none" stroke="black" points="1180.34,-171 1180.34,-220 1274.09,-220 1274.09,-171 1180.34,-171"/>
<text text-anchor="middle" x="1193.22" y="-202.7" font-family="Times,serif" font-size="14.00">A</text>
<polyline fill="none" stroke="black" points="1180.34,-195.5 1206.09,-195.5"/>
<text text-anchor="middle" x="1193.22" y="-178.2" font-family="Times,serif" font-size="14.00">B</text>
<polyline fill="none" stroke="black" points="1206.09,-171 1206.09,-220"/>
<text text-anchor="middle" x="1227.22" y="-198.7" font-family="Times,serif" font-size="14.00">$11</text>
<text text-anchor="middle" x="1227.22" y="-182.2" font-family="Times,serif" font-size="14.00">$add</text>
<polyline fill="none" stroke="black" points="1248.34,-171 1248.34,-220"/>
<text text-anchor="middle" x="1261.22" y="-190.7" font-family="Times,serif" font-size="14.00">Y</text>
</g>
<!-- n13&#45;&gt;c19 -->
<g id="edge42" class="edge">
<title>n13:e&#45;&gt;c19:w</title>
<path fill="none" stroke="black" stroke-width="3" d="M375.84,-283.5C403.22,-283.5 389.43,-249.23 411.84,-233.5 485.03,-182.15 515.94,-178.5 605.34,-178.5 605.34,-178.5 605.34,-178.5 984.34,-178.5 1067.57,-178.5 1091.12,-182.83 1168.98,-183.22"/>
<polygon fill="black" stroke="black" stroke-width="3" points="1165.79,-186.71 1175.8,-183.24 1165.81,-179.71 1165.79,-186.71"/>
</g>
<!-- x4 -->
<g id="node13" class="node">
<title>x4</title>
<path fill="none" stroke="black" d="M447.84,-490.5C447.84,-490.5 486.34,-490.5 486.34,-490.5 492.34,-490.5 498.34,-496.5 498.34,-502.5 498.34,-502.5 498.34,-514.5 498.34,-514.5 498.34,-520.5 492.34,-526.5 486.34,-526.5 486.34,-526.5 447.84,-526.5 447.84,-526.5 441.84,-526.5 435.84,-520.5 435.84,-514.5 435.84,-514.5 435.84,-502.5 435.84,-502.5 435.84,-496.5 441.84,-490.5 447.84,-490.5"/>
<text text-anchor="middle" x="467.09" y="-503.7" font-family="Times,serif" font-size="14.00">1:0 &#45; 1:0</text>
</g>
<!-- n13&#45;&gt;x4 -->
<g id="edge48" class="edge">
<title>n13:e&#45;&gt;x4:w</title>
<path fill="none" stroke="black" stroke-width="3" d="M375.84,-283.5C423.54,-283.5 389.46,-474.93 424.39,-504.84"/>
<polygon fill="black" stroke="black" stroke-width="3" points="420,-506.94 430.59,-507.16 422.45,-500.38 420,-506.94"/>
</g>
<!-- x10 -->
<g id="node22" class="node">
<title>x10</title>
<path fill="none" stroke="black" d="M447.84,-242.5C447.84,-242.5 486.34,-242.5 486.34,-242.5 492.34,-242.5 498.34,-248.5 498.34,-254.5 498.34,-254.5 498.34,-266.5 498.34,-266.5 498.34,-272.5 492.34,-278.5 486.34,-278.5 486.34,-278.5 447.84,-278.5 447.84,-278.5 441.84,-278.5 435.84,-272.5 435.84,-266.5 435.84,-266.5 435.84,-254.5 435.84,-254.5 435.84,-248.5 441.84,-242.5 447.84,-242.5"/>
<text text-anchor="middle" x="467.09" y="-255.7" font-family="Times,serif" font-size="14.00">1:0 &#45; 1:0</text>
</g>
<!-- n13&#45;&gt;x10 -->
<g id="edge46" class="edge">
<title>n13:e&#45;&gt;x10:w</title>
<path fill="none" stroke="black" stroke-width="3" d="M375.84,-283.5C399.66,-283.5 405.3,-267.15 423.58,-262.17"/>
<polygon fill="black" stroke="black" stroke-width="3" points="420.86,-266.05 430.34,-261.32 419.98,-259.1 420.86,-266.05"/>
</g>
<!-- x15 -->
<g id="node29" class="node">
<title>x15</title>
<path fill="none" stroke="black" d="M717.97,-536C717.97,-536 756.47,-536 756.47,-536 762.47,-536 768.47,-542 768.47,-548 768.47,-548 768.47,-573 768.47,-573 768.47,-579 762.47,-585 756.47,-585 756.47,-585 717.97,-585 717.97,-585 711.97,-585 705.97,-579 705.97,-573 705.97,-573 705.97,-548 705.97,-548 705.97,-542 711.97,-536 717.97,-536"/>
<text text-anchor="middle" x="737.22" y="-567.7" font-family="Times,serif" font-size="14.00">2:2 &#45; 2:2</text>
<polyline fill="none" stroke="black" points="705.97,-560.5 768.47,-560.5"/>
<text text-anchor="middle" x="737.22" y="-543.2" font-family="Times,serif" font-size="14.00">1:0 &#45; 1:0</text>
</g>
<!-- n13&#45;&gt;x15 -->
<g id="edge47" class="edge">
<title>n13:e&#45;&gt;x15:w</title>
<path fill="none" stroke="black" d="M375.84,-283.5C432.63,-283.5 374.28,-493.91 411.84,-536.5 484.1,-618.42 545.18,-580.54 654.34,-576.5 672.66,-575.82 679.74,-573.77 693.85,-573.02"/>
<polygon fill="black" stroke="black" points="693.54,-576.53 703.45,-572.79 693.37,-569.54 693.54,-576.53"/>
</g>
<!-- c30 -->
<g id="node36" class="node">
<title>c30</title>
<polygon fill="none" stroke="black" points="1551.09,-342 1551.09,-391 1644.09,-391 1644.09,-342 1551.09,-342"/>
<text text-anchor="middle" x="1563.97" y="-373.7" font-family="Times,serif" font-size="14.00">A</text>
<polyline fill="none" stroke="black" points="1551.09,-366.5 1576.84,-366.5"/>
<text text-anchor="middle" x="1563.97" y="-349.2" font-family="Times,serif" font-size="14.00">B</text>
<polyline fill="none" stroke="black" points="1576.84,-342 1576.84,-391"/>
<text text-anchor="middle" x="1597.59" y="-369.7" font-family="Times,serif" font-size="14.00">$6</text>
<text text-anchor="middle" x="1597.59" y="-353.2" font-family="Times,serif" font-size="14.00">$sub</text>
<polyline fill="none" stroke="black" points="1618.34,-342 1618.34,-391"/>
<text text-anchor="middle" x="1631.22" y="-361.7" font-family="Times,serif" font-size="14.00">Y</text>
</g>
<!-- n13&#45;&gt;c30 -->
<g id="edge43" class="edge">
<title>n13:e&#45;&gt;c30:w</title>
<path fill="none" stroke="black" stroke-width="3" d="M375.84,-283.5C392,-283.5 395.81,-286.5 411.84,-288.5 535.42,-303.96 566.54,-305.96 690.34,-319.5 768.88,-328.09 788.08,-338.5 867.09,-338.5 867.09,-338.5 867.09,-338.5 1098.47,-338.5 1295.92,-338.5 1347.84,-353.66 1539.76,-354.23"/>
<polygon fill="black" stroke="black" stroke-width="3" points="1536.55,-357.73 1546.55,-354.24 1536.56,-350.73 1536.55,-357.73"/>
</g>
<!-- c31 -->
<g id="node39" class="node">
<title>c31</title>
<polygon fill="none" stroke="black" points="2614.2,-110 2614.2,-159 2707.2,-159 2707.2,-110 2614.2,-110"/>
<text text-anchor="middle" x="2627.08" y="-141.7" font-family="Times,serif" font-size="14.00">A</text>
<polyline fill="none" stroke="black" points="2614.2,-134.5 2639.95,-134.5"/>
<text text-anchor="middle" x="2627.08" y="-117.2" font-family="Times,serif" font-size="14.00">B</text>
<polyline fill="none" stroke="black" points="2639.95,-110 2639.95,-159"/>
<text text-anchor="middle" x="2660.7" y="-137.7" font-family="Times,serif" font-size="14.00">$8</text>
<text text-anchor="middle" x="2660.7" y="-121.2" font-family="Times,serif" font-size="14.00">$sub</text>
<polyline fill="none" stroke="black" points="2681.45,-110 2681.45,-159"/>
<text text-anchor="middle" x="2694.33" y="-129.7" font-family="Times,serif" font-size="14.00">Y</text>
</g>
<!-- n13&#45;&gt;c31 -->
<g id="edge44" class="edge">
<title>n13:e&#45;&gt;c31:w</title>
<path fill="none" stroke="black" stroke-width="3" d="M375.84,-283.5C444.4,-283.5 361.54,-180.09 411.84,-133.5 475.74,-74.32 518.25,-102.5 605.34,-102.5 605.34,-102.5 605.34,-102.5 2474.4,-102.5 2533.23,-102.5 2549.48,-119.86 2602.98,-122.03"/>
<polygon fill="black" stroke="black" stroke-width="3" points="2599.6,-125.46 2609.66,-122.16 2599.73,-118.46 2599.6,-125.46"/>
</g>
<!-- c32 -->
<g id="node42" class="node">
<title>c32</title>
<polygon fill="none" stroke="black" points="1310.09,-159 1310.09,-208 1403.09,-208 1403.09,-159 1310.09,-159"/>
<text text-anchor="middle" x="1322.97" y="-190.7" font-family="Times,serif" font-size="14.00">A</text>
<polyline fill="none" stroke="black" points="1310.09,-183.5 1335.84,-183.5"/>
<text text-anchor="middle" x="1322.97" y="-166.2" font-family="Times,serif" font-size="14.00">B</text>
<polyline fill="none" stroke="black" points="1335.84,-159 1335.84,-208"/>
<text text-anchor="middle" x="1356.59" y="-186.7" font-family="Times,serif" font-size="14.00">$12</text>
<text text-anchor="middle" x="1356.59" y="-170.2" font-family="Times,serif" font-size="14.00">$sub</text>
<polyline fill="none" stroke="black" points="1377.34,-159 1377.34,-208"/>
<text text-anchor="middle" x="1390.22" y="-178.7" font-family="Times,serif" font-size="14.00">Y</text>
</g>
<!-- n13&#45;&gt;c32 -->
<g id="edge45" class="edge">
<title>n13:e&#45;&gt;c32:w</title>
<path fill="none" stroke="black" stroke-width="3" d="M375.84,-283.5C424.76,-283.5 375.01,-211.69 411.84,-179.5 477.9,-121.77 517.61,-140.5 605.34,-140.5 605.34,-140.5 605.34,-140.5 1098.47,-140.5 1177.08,-140.5 1196.92,-146.52 1274.09,-161.5 1285.79,-163.77 1290.71,-167.81 1298.7,-169.91"/>
<polygon fill="black" stroke="black" stroke-width="3" points="1295.24,-173.03 1305.58,-170.72 1296.06,-166.07 1295.24,-173.03"/>
</g>
<!-- n14 -->
<g id="node4" class="node">
<title>n14</title>
<polygon fill="none" stroke="black" points="467.09,-431.5 411.84,-413.5 467.09,-395.5 522.34,-413.5 467.09,-431.5"/>
<text text-anchor="middle" x="467.09" y="-408.45" font-family="Times,serif" font-size="14.00">temp_1</text>
</g>
<!-- c21 -->
<g id="node12" class="node">
<title>c21</title>
<polygon fill="none" stroke="black" points="562.47,-518 562.47,-567 650.22,-567 650.22,-518 562.47,-518"/>
<text text-anchor="middle" x="575.34" y="-549.7" font-family="Times,serif" font-size="14.00">A</text>
<polyline fill="none" stroke="black" points="562.47,-542.5 588.22,-542.5"/>
<text text-anchor="middle" x="575.34" y="-525.2" font-family="Times,serif" font-size="14.00">B</text>
<polyline fill="none" stroke="black" points="588.22,-518 588.22,-567"/>
<text text-anchor="middle" x="606.34" y="-545.7" font-family="Times,serif" font-size="14.00">$23</text>
<text text-anchor="middle" x="606.34" y="-529.2" font-family="Times,serif" font-size="14.00">$or</text>
<polyline fill="none" stroke="black" points="624.47,-518 624.47,-567"/>
<text text-anchor="middle" x="637.34" y="-537.7" font-family="Times,serif" font-size="14.00">Y</text>
</g>
<!-- n14&#45;&gt;c21 -->
<g id="edge50" class="edge">
<title>n14:e&#45;&gt;c21:w</title>
<path fill="none" stroke="black" stroke-width="3" d="M522.34,-413.5C572.58,-413.5 517.44,-511.88 550.39,-528.02"/>
<polygon fill="black" stroke="black" stroke-width="3" points="546.52,-530.82 557.02,-529.35 547.9,-523.95 546.52,-530.82"/>
</g>
<!-- c22 -->
<g id="node14" class="node">
<title>c22</title>
<polygon fill="none" stroke="black" points="1050.59,-459 1050.59,-508 1144.34,-508 1144.34,-459 1050.59,-459"/>
<text text-anchor="middle" x="1063.47" y="-490.7" font-family="Times,serif" font-size="14.00">A</text>
<polyline fill="none" stroke="black" points="1050.59,-483.5 1076.34,-483.5"/>
<text text-anchor="middle" x="1063.47" y="-466.2" font-family="Times,serif" font-size="14.00">B</text>
<polyline fill="none" stroke="black" points="1076.34,-459 1076.34,-508"/>
<text text-anchor="middle" x="1097.47" y="-486.7" font-family="Times,serif" font-size="14.00">$26</text>
<text text-anchor="middle" x="1097.47" y="-470.2" font-family="Times,serif" font-size="14.00">$and</text>
<polyline fill="none" stroke="black" points="1118.59,-459 1118.59,-508"/>
<text text-anchor="middle" x="1131.47" y="-478.7" font-family="Times,serif" font-size="14.00">Y</text>
</g>
<!-- n14&#45;&gt;c22 -->
<g id="edge51" class="edge">
<title>n14:e&#45;&gt;c22:w</title>
<path fill="none" stroke="black" stroke-width="3" d="M522.34,-413.5C539.21,-413.5 541.93,-421.6 558.34,-425.5 636.07,-443.98 656.32,-451.5 736.22,-451.5 736.22,-451.5 736.22,-451.5 869.09,-451.5 946.27,-451.5 967.43,-469.37 1039.14,-471.11"/>
<polygon fill="black" stroke="black" stroke-width="3" points="1036.01,-474.58 1046.05,-471.2 1036.1,-467.58 1036.01,-474.58"/>
</g>
<!-- x8 -->
<g id="node19" class="node">
<title>x8</title>
<path fill="none" stroke="black" d="M964.09,-378.5C964.09,-378.5 1002.59,-378.5 1002.59,-378.5 1008.59,-378.5 1014.59,-384.5 1014.59,-390.5 1014.59,-390.5 1014.59,-402.5 1014.59,-402.5 1014.59,-408.5 1008.59,-414.5 1002.59,-414.5 1002.59,-414.5 964.09,-414.5 964.09,-414.5 958.09,-414.5 952.09,-408.5 952.09,-402.5 952.09,-402.5 952.09,-390.5 952.09,-390.5 952.09,-384.5 958.09,-378.5 964.09,-378.5"/>
<text text-anchor="middle" x="983.34" y="-391.7" font-family="Times,serif" font-size="14.00">1:1 &#45; 0:0</text>
</g>
<!-- n14&#45;&gt;x8 -->
<g id="edge55" class="edge">
<title>n14:e&#45;&gt;x8:w</title>
<path fill="none" stroke="black" d="M522.34,-413.5C709.66,-413.5 758.99,-397.41 940.78,-396.77"/>
<polygon fill="black" stroke="black" points="940.59,-400.27 950.58,-396.75 940.57,-393.27 940.59,-400.27"/>
</g>
<!-- x16 -->
<g id="node30" class="node">
<title>x16</title>
<path fill="none" stroke="black" d="M717.97,-480.5C717.97,-480.5 756.47,-480.5 756.47,-480.5 762.47,-480.5 768.47,-486.5 768.47,-492.5 768.47,-492.5 768.47,-504.5 768.47,-504.5 768.47,-510.5 762.47,-516.5 756.47,-516.5 756.47,-516.5 717.97,-516.5 717.97,-516.5 711.97,-516.5 705.97,-510.5 705.97,-504.5 705.97,-504.5 705.97,-492.5 705.97,-492.5 705.97,-486.5 711.97,-480.5 717.97,-480.5"/>
<text text-anchor="middle" x="737.22" y="-493.7" font-family="Times,serif" font-size="14.00">1:1 &#45; 0:0</text>
</g>
<!-- n14&#45;&gt;x16 -->
<g id="edge54" class="edge">
<title>n14:e&#45;&gt;x16:w</title>
<path fill="none" stroke="black" d="M522.34,-413.5C550.45,-413.5 535.05,-449.76 558.34,-465.5 610.47,-500.71 635.18,-499.09 693.64,-498.78"/>
<polygon fill="black" stroke="black" points="693.46,-502.28 703.45,-498.75 693.44,-495.28 693.46,-502.28"/>
</g>
<!-- c27 -->
<g id="node31" class="node">
<title>c27</title>
<polygon fill="none" stroke="black" points="558.34,-336 558.34,-385 654.34,-385 654.34,-336 558.34,-336"/>
<text text-anchor="middle" x="571.22" y="-367.7" font-family="Times,serif" font-size="14.00">A</text>
<polyline fill="none" stroke="black" points="558.34,-360.5 584.09,-360.5"/>
<text text-anchor="middle" x="571.22" y="-343.2" font-family="Times,serif" font-size="14.00">B</text>
<polyline fill="none" stroke="black" points="584.09,-336 584.09,-385"/>
<text text-anchor="middle" x="606.34" y="-363.7" font-family="Times,serif" font-size="14.00">$9</text>
<text text-anchor="middle" x="606.34" y="-347.2" font-family="Times,serif" font-size="14.00">$mul</text>
<polyline fill="none" stroke="black" points="628.59,-336 628.59,-385"/>
<text text-anchor="middle" x="641.47" y="-355.7" font-family="Times,serif" font-size="14.00">Y</text>
</g>
<!-- n14&#45;&gt;c27 -->
<g id="edge52" class="edge">
<title>n14:e&#45;&gt;c27:w</title>
<path fill="none" stroke="black" stroke-width="3" d="M522.34,-413.5C541.79,-413.5 537.6,-387.11 547.82,-376.81"/>
<polygon fill="black" stroke="black" stroke-width="3" points="546.03,-381.24 554.11,-374.38 543.52,-374.71 546.03,-381.24"/>
</g>
<!-- n14&#45;&gt;c27 -->
<g id="edge53" class="edge">
<title>n14:e&#45;&gt;c27:w</title>
<path fill="none" stroke="black" stroke-width="3" d="M522.34,-413.5C550.81,-413.5 532.47,-365.31 547.78,-351.76"/>
<polygon fill="black" stroke="black" stroke-width="3" points="545.65,-356.15 554.03,-349.68 543.44,-349.51 545.65,-356.15"/>
</g>
<!-- n15 -->
<g id="node5" class="node">
<title>n15</title>
<polygon fill="none" stroke="black" points="2923.95,-144.5 2868.7,-126.5 2923.95,-108.5 2979.2,-126.5 2923.95,-144.5"/>
<text text-anchor="middle" x="2923.95" y="-121.45" font-family="Times,serif" font-size="14.00">temp_2</text>
</g>
<!-- x2 -->
<g id="node10" class="node">
<title>x2</title>
<path fill="none" stroke="black" d="M3027.2,-187C3027.2,-187 3109.95,-187 3109.95,-187 3115.95,-187 3121.95,-193 3121.95,-199 3121.95,-199 3121.95,-224 3121.95,-224 3121.95,-230 3115.95,-236 3109.95,-236 3109.95,-236 3027.2,-236 3027.2,-236 3021.2,-236 3015.2,-230 3015.2,-224 3015.2,-224 3015.2,-199 3015.2,-199 3015.2,-193 3021.2,-187 3027.2,-187"/>
<text text-anchor="middle" x="3068.58" y="-218.7" font-family="Times,serif" font-size="14.00">7x 29:29 &#45; 29:23</text>
<polyline fill="none" stroke="black" points="3015.2,-211.5 3121.95,-211.5"/>
<text text-anchor="middle" x="3068.58" y="-194.2" font-family="Times,serif" font-size="14.00">22:0 &#45; 22:0</text>
</g>
<!-- n15&#45;&gt;x2 -->
<g id="edge61" class="edge">
<title>n15:e&#45;&gt;x2:w</title>
<path fill="none" stroke="black" stroke-width="3" d="M2979.2,-126.5C3010.49,-126.5 2987.46,-181.21 3004.31,-195.74"/>
<polygon fill="black" stroke="black" stroke-width="3" points="3000.29,-198.12 3010.88,-197.86 3002.44,-191.46 3000.29,-198.12"/>
</g>
<!-- n15&#45;&gt;x2 -->
<g id="edge62" class="edge">
<title>n15:e&#45;&gt;x2:w</title>
<path fill="none" stroke="black" stroke-width="3" d="M2979.2,-126.5C3020.61,-126.5 2979.47,-205 3004.11,-220.94"/>
<polygon fill="black" stroke="black" stroke-width="3" points="3000.25,-223.58 3010.8,-222.64 3001.96,-216.79 3000.25,-223.58"/>
</g>
<!-- x13 -->
<g id="node26" class="node">
<title>x13</title>
<path fill="none" stroke="black" d="M3027.2,-25C3027.2,-25 3109.95,-25 3109.95,-25 3115.95,-25 3121.95,-31 3121.95,-37 3121.95,-37 3121.95,-62 3121.95,-62 3121.95,-68 3115.95,-74 3109.95,-74 3109.95,-74 3027.2,-74 3027.2,-74 3021.2,-74 3015.2,-68 3015.2,-62 3015.2,-62 3015.2,-37 3015.2,-37 3015.2,-31 3021.2,-25 3027.2,-25"/>
<text text-anchor="middle" x="3068.58" y="-56.7" font-family="Times,serif" font-size="14.00">7x 29:29 &#45; 29:23</text>
<polyline fill="none" stroke="black" points="3015.2,-49.5 3121.95,-49.5"/>
<text text-anchor="middle" x="3068.58" y="-32.2" font-family="Times,serif" font-size="14.00">22:0 &#45; 22:0</text>
</g>
<!-- n15&#45;&gt;x13 -->
<g id="edge59" class="edge">
<title>n15:e&#45;&gt;x13:w</title>
<path fill="none" stroke="black" stroke-width="3" d="M2979.2,-126.5C3017.3,-126.5 2982.16,-55.71 3004.24,-40.22"/>
<polygon fill="black" stroke="black" stroke-width="3" points="3002.08,-44.43 3010.82,-38.44 3000.25,-37.67 3002.08,-44.43"/>
</g>
<!-- n15&#45;&gt;x13 -->
<g id="edge60" class="edge">
<title>n15:e&#45;&gt;x13:w</title>
<path fill="none" stroke="black" stroke-width="3" d="M2979.2,-126.5C3007.5,-126.5 2989.43,-78.68 3004.69,-65.23"/>
<polygon fill="black" stroke="black" stroke-width="3" points="3002.5,-69.64 3010.89,-63.18 3000.3,-63 3002.5,-69.64"/>
</g>
<!-- x34 -->
<g id="node54" class="node">
<title>x34</title>
<path fill="none" stroke="black" d="M3033.95,-93.5C3033.95,-93.5 3103.2,-93.5 3103.2,-93.5 3109.2,-93.5 3115.2,-99.5 3115.2,-105.5 3115.2,-105.5 3115.2,-117.5 3115.2,-117.5 3115.2,-123.5 3109.2,-129.5 3103.2,-129.5 3103.2,-129.5 3033.95,-129.5 3033.95,-129.5 3027.95,-129.5 3021.95,-123.5 3021.95,-117.5 3021.95,-117.5 3021.95,-105.5 3021.95,-105.5 3021.95,-99.5 3027.95,-93.5 3033.95,-93.5"/>
<text text-anchor="middle" x="3068.58" y="-106.7" font-family="Times,serif" font-size="14.00">6x 29:29 &#45; 5:0</text>
</g>
<!-- n15&#45;&gt;x34 -->
<g id="edge63" class="edge">
<title>n15:e&#45;&gt;x34:w</title>
<path fill="none" stroke="black" stroke-width="3" d="M2979.2,-126.5C2994.42,-126.5 2999.3,-117.68 3009.84,-113.68"/>
<polygon fill="black" stroke="black" stroke-width="3" points="3007.22,-117.68 3016.48,-112.53 3006.03,-110.79 3007.22,-117.68"/>
</g>
<!-- c19&#45;&gt;c32 -->
<g id="edge28" class="edge">
<title>c19:e&#45;&gt;c32:w</title>
<path fill="none" stroke="black" stroke-width="3" d="M1274.09,-195.75C1285.47,-195.75 1290.78,-195.75 1298.65,-195.75"/>
<polygon fill="black" stroke="black" stroke-width="3" points="1295.55,-199.25 1305.55,-195.75 1295.55,-192.25 1295.55,-199.25"/>
</g>
<!-- x0 -->
<g id="node7" class="node">
<title>x0</title>
<path fill="none" stroke="black" d="M1078.22,-210C1078.22,-210 1116.72,-210 1116.72,-210 1122.72,-210 1128.72,-216 1128.72,-222 1128.72,-222 1128.72,-247 1128.72,-247 1128.72,-253 1122.72,-259 1116.72,-259 1116.72,-259 1078.22,-259 1078.22,-259 1072.22,-259 1066.22,-253 1066.22,-247 1066.22,-247 1066.22,-222 1066.22,-222 1066.22,-216 1072.22,-210 1078.22,-210"/>
<text text-anchor="middle" x="1097.47" y="-241.7" font-family="Times,serif" font-size="14.00">0 &#45;&gt; 2:2</text>
<polyline fill="none" stroke="black" points="1066.22,-234.5 1128.72,-234.5"/>
<text text-anchor="middle" x="1097.47" y="-217.2" font-family="Times,serif" font-size="14.00">1:0 &#45; 1:0</text>
</g>
<!-- x0&#45;&gt;c19 -->
<g id="edge1" class="edge">
<title>x0:e&#45;&gt;c19:w</title>
<path fill="none" stroke="black" stroke-width="3" d="M1142.07,-231.84C1152.55,-226.76 1157.32,-215.75 1167.69,-210.56"/>
<polygon fill="none" stroke="black" stroke-width="3" points="1144.09,-231.4 1139.07,-236.58 1132.36,-233.93 1137.38,-228.76 1144.09,-231.4"/>
<polygon fill="none" stroke="black" stroke-width="3" points="1165.99,-210.94 1170.98,-205.73 1177.7,-208.34 1172.71,-213.54 1165.99,-210.94"/>
</g>
<!-- c20 -->
<g id="node8" class="node">
<title>c20</title>
<polygon fill="none" stroke="black" points="3157.95,-199 3157.95,-248 3251.7,-248 3251.7,-199 3157.95,-199"/>
<text text-anchor="middle" x="3170.83" y="-230.7" font-family="Times,serif" font-size="14.00">A</text>
<polyline fill="none" stroke="black" points="3157.95,-223.5 3183.7,-223.5"/>
<text text-anchor="middle" x="3170.83" y="-206.2" font-family="Times,serif" font-size="14.00">B</text>
<polyline fill="none" stroke="black" points="3183.7,-199 3183.7,-248"/>
<text text-anchor="middle" x="3204.83" y="-226.7" font-family="Times,serif" font-size="14.00">$13</text>
<text text-anchor="middle" x="3204.83" y="-210.2" font-family="Times,serif" font-size="14.00">$add</text>
<polyline fill="none" stroke="black" points="3225.95,-199 3225.95,-248"/>
<text text-anchor="middle" x="3238.83" y="-218.7" font-family="Times,serif" font-size="14.00">Y</text>
</g>
<!-- x3 -->
<g id="node11" class="node">
<title>x3</title>
<path fill="none" stroke="black" d="M3299.7,-166C3299.7,-166 3365.2,-166 3365.2,-166 3371.2,-166 3377.2,-172 3377.2,-178 3377.2,-178 3377.2,-203 3377.2,-203 3377.2,-209 3371.2,-215 3365.2,-215 3365.2,-215 3299.7,-215 3299.7,-215 3293.7,-215 3287.7,-209 3287.7,-203 3287.7,-203 3287.7,-178 3287.7,-178 3287.7,-172 3293.7,-166 3299.7,-166"/>
<text text-anchor="middle" x="3332.45" y="-197.7" font-family="Times,serif" font-size="14.00">47:30 &#45; 47:30</text>
<polyline fill="none" stroke="black" points="3287.7,-190.5 3377.2,-190.5"/>
<text text-anchor="middle" x="3332.45" y="-173.2" font-family="Times,serif" font-size="14.00">29:0 &#45; 29:0</text>
</g>
<!-- c20&#45;&gt;x3 -->
<g id="edge4" class="edge">
<title>c20:e&#45;&gt;x3:w</title>
<path fill="none" stroke="black" stroke-width="3" d="M3263.45,-218.55C3268.88,-212.27 3270.59,-201.77 3276.08,-195.55"/>
<polygon fill="none" stroke="black" stroke-width="3" points="3265.15,-217.8 3261.28,-223.89 3254.18,-222.66 3258.05,-216.57 3265.15,-217.8"/>
<polygon fill="none" stroke="black" stroke-width="3" points="3274.22,-196.36 3278.13,-190.3 3285.22,-191.58 3281.31,-197.64 3274.22,-196.36"/>
</g>
<!-- x1 -->
<g id="node9" class="node">
<title>x1</title>
<path fill="none" stroke="black" d="M1692.09,-225C1692.09,-225 1774.84,-225 1774.84,-225 1780.84,-225 1786.84,-231 1786.84,-237 1786.84,-237 1786.84,-262 1786.84,-262 1786.84,-268 1780.84,-274 1774.84,-274 1774.84,-274 1692.09,-274 1692.09,-274 1686.09,-274 1680.09,-268 1680.09,-262 1680.09,-262 1680.09,-237 1680.09,-237 1680.09,-231 1686.09,-225 1692.09,-225"/>
<text text-anchor="middle" x="1733.47" y="-256.7" font-family="Times,serif" font-size="14.00">44x 47:47 &#45; 47:4</text>
<polyline fill="none" stroke="black" points="1680.09,-249.5 1786.84,-249.5"/>
<text text-anchor="middle" x="1733.47" y="-232.2" font-family="Times,serif" font-size="14.00">3:0 &#45; 3:0</text>
</g>
<!-- x1&#45;&gt;c20 -->
<g id="edge2" class="edge">
<title>x1:e&#45;&gt;c20:w</title>
<path fill="none" stroke="black" stroke-width="3" d="M1799.46,-249.6C1878.43,-250.93 1902.27,-264.5 1987.22,-264.5 1987.22,-264.5 1987.22,-264.5 2924.95,-264.5 3012.91,-264.5 3035.42,-261.28 3121.95,-245.5 3132.91,-243.5 3137.91,-239.79 3145.04,-237.57"/>
<polygon fill="none" stroke="black" stroke-width="3" points="1801.55,-249.62 1795.51,-253.57 1789.55,-249.52 1795.58,-245.57 1801.55,-249.62"/>
<polygon fill="none" stroke="black" stroke-width="3" points="3143.39,-237.8 3148.78,-233 3155.28,-236.13 3149.89,-240.92 3143.39,-237.8"/>
</g>
<!-- x2&#45;&gt;c20 -->
<g id="edge3" class="edge">
<title>x2:e&#45;&gt;c20:w</title>
<path fill="none" stroke="black" stroke-width="3" d="M3134.68,-211.44C3138.27,-211.4 3141.4,-211.35 3144.98,-211.32"/>
<polygon fill="none" stroke="black" stroke-width="3" points="3136.66,-211.43 3130.68,-215.46 3124.66,-211.49 3130.64,-207.46 3136.66,-211.43"/>
<polygon fill="none" stroke="black" stroke-width="3" points="3143.25,-211.32 3149.23,-207.29 3155.25,-211.26 3149.27,-215.29 3143.25,-211.32"/>
</g>
<!-- x3&#45;&gt;n12 -->
<g id="edge39" class="edge">
<title>x3:e&#45;&gt;n12:w</title>
<path fill="none" stroke="black" stroke-width="3" d="M3377.2,-202.75C3388.58,-202.75 3393.89,-202.62 3401.76,-202.55"/>
<polygon fill="black" stroke="black" stroke-width="3" points="3398.68,-206.06 3408.66,-202.52 3398.65,-199.06 3398.68,-206.06"/>
</g>
<!-- n2 -->
<g id="node59" class="node">
<title>n2</title>
<ellipse fill="black" stroke="black" cx="3806.32" cy="-146.5" rx="1.8" ry="1.8"/>
</g>
<!-- x3&#45;&gt;n2 -->
<g id="edge65" class="edge">
<title>x3:e&#45;&gt;n2:w</title>
<path fill="none" stroke="black" stroke-width="3" d="M3377.2,-178.25C3419.77,-178.25 3524.58,-155.9 3567.02,-152.5 3668.36,-144.37 3696.84,-146.33 3793.08,-146.49"/>
<polygon fill="black" stroke="black" stroke-width="3" points="3789.97,-149.99 3799.97,-146.5 3789.98,-142.99 3789.97,-149.99"/>
</g>
<!-- c21&#45;&gt;x15 -->
<g id="edge76" class="edge">
<title>c21:e&#45;&gt;x15:w</title>
<path fill="none" stroke="black" stroke-width="3" d="M651.22,-542.75C670.92,-542.75 678.31,-546.45 693.58,-547.78"/>
<polygon fill="black" stroke="black" stroke-width="3" points="690.3,-551.15 700.43,-548.06 690.58,-544.15 690.3,-551.15"/>
</g>
<!-- x4&#45;&gt;c21 -->
<g id="edge5" class="edge">
<title>x4:e&#45;&gt;c21:w</title>
<path fill="none" stroke="black" stroke-width="3" d="M511.94,-511.12C529.28,-519.3 531.66,-544.29 549.18,-552.27"/>
<polygon fill="none" stroke="black" stroke-width="3" points="513.74,-511.49 507.05,-514.19 501.99,-509.05 508.68,-506.36 513.74,-511.49"/>
<polygon fill="none" stroke="black" stroke-width="3" points="547.05,-551.84 553.73,-549.11 558.82,-554.22 552.14,-556.95 547.05,-551.84"/>
</g>
<!-- x6 -->
<g id="node16" class="node">
<title>x6</title>
<path fill="none" stroke="black" d="M1207.97,-462.5C1207.97,-462.5 1246.47,-462.5 1246.47,-462.5 1252.47,-462.5 1258.47,-468.5 1258.47,-474.5 1258.47,-474.5 1258.47,-486.5 1258.47,-486.5 1258.47,-492.5 1252.47,-498.5 1246.47,-498.5 1246.47,-498.5 1207.97,-498.5 1207.97,-498.5 1201.97,-498.5 1195.97,-492.5 1195.97,-486.5 1195.97,-486.5 1195.97,-474.5 1195.97,-474.5 1195.97,-468.5 1201.97,-462.5 1207.97,-462.5"/>
<text text-anchor="middle" x="1227.22" y="-475.7" font-family="Times,serif" font-size="14.00">1:0 &#45; 1:0</text>
</g>
<!-- c22&#45;&gt;x6 -->
<g id="edge7" class="edge">
<title>c22:e&#45;&gt;x6:w</title>
<path fill="none" stroke="black" stroke-width="3" d="M1157.05,-483.35C1166.45,-482.73 1172.82,-481.53 1182.21,-480.9"/>
<polygon fill="none" stroke="black" stroke-width="3" points="1159.04,-483.29 1153.17,-487.48 1147.05,-483.67 1152.92,-479.48 1159.04,-483.29"/>
<polygon fill="none" stroke="black" stroke-width="3" points="1180.27,-480.96 1186.14,-476.78 1192.27,-480.59 1186.39,-484.77 1180.27,-480.96"/>
</g>
<!-- x5 -->
<g id="node15" class="node">
<title>x5</title>
<path fill="none" stroke="black" d="M964.09,-484.5C964.09,-484.5 1002.59,-484.5 1002.59,-484.5 1008.59,-484.5 1014.59,-490.5 1014.59,-496.5 1014.59,-496.5 1014.59,-508.5 1014.59,-508.5 1014.59,-514.5 1008.59,-520.5 1002.59,-520.5 1002.59,-520.5 964.09,-520.5 964.09,-520.5 958.09,-520.5 952.09,-514.5 952.09,-508.5 952.09,-508.5 952.09,-496.5 952.09,-496.5 952.09,-490.5 958.09,-484.5 964.09,-484.5"/>
<text text-anchor="middle" x="983.34" y="-497.7" font-family="Times,serif" font-size="14.00">1:0 &#45; 1:0</text>
</g>
<!-- x5&#45;&gt;c22 -->
<g id="edge6" class="edge">
<title>x5:e&#45;&gt;c22:w</title>
<path fill="none" stroke="black" stroke-width="3" d="M1027.38,-500.8C1031.06,-499.77 1034.21,-498.46 1037.89,-497.43"/>
<polygon fill="none" stroke="black" stroke-width="3" points="1029.17,-500.56 1023.75,-505.32 1017.27,-502.14 1022.69,-497.39 1029.17,-500.56"/>
<polygon fill="none" stroke="black" stroke-width="3" points="1036.02,-497.68 1041.44,-492.93 1047.91,-496.1 1042.49,-500.86 1036.02,-497.68"/>
</g>
<!-- n3 -->
<g id="node60" class="node">
<title>n3</title>
<ellipse fill="black" stroke="black" cx="1356.59" cy="-423.5" rx="1.8" ry="1.8"/>
</g>
<!-- x6&#45;&gt;n3 -->
<g id="edge68" class="edge">
<title>x6:e&#45;&gt;n3:w</title>
<path fill="none" stroke="black" stroke-width="3" d="M1259.47,-480.75C1304.32,-480.75 1304.74,-432.51 1342.3,-424.59"/>
<polygon fill="black" stroke="black" stroke-width="3" points="1339.19,-428.42 1348.8,-423.95 1338.5,-421.45 1339.19,-428.42"/>
</g>
<!-- c23 -->
<g id="node17" class="node">
<title>c23</title>
<polygon fill="none" stroke="black" points="2153.72,-133 2153.72,-182 2247.47,-182 2247.47,-133 2153.72,-133"/>
<text text-anchor="middle" x="2166.6" y="-164.7" font-family="Times,serif" font-size="14.00">A</text>
<polyline fill="none" stroke="black" points="2153.72,-157.5 2179.47,-157.5"/>
<text text-anchor="middle" x="2166.6" y="-140.2" font-family="Times,serif" font-size="14.00">B</text>
<polyline fill="none" stroke="black" points="2179.47,-133 2179.47,-182"/>
<text text-anchor="middle" x="2200.6" y="-160.7" font-family="Times,serif" font-size="14.00">$30</text>
<text text-anchor="middle" x="2200.6" y="-144.2" font-family="Times,serif" font-size="14.00">$and</text>
<polyline fill="none" stroke="black" points="2221.72,-133 2221.72,-182"/>
<text text-anchor="middle" x="2234.6" y="-152.7" font-family="Times,serif" font-size="14.00">Y</text>
</g>
<!-- x9 -->
<g id="node20" class="node">
<title>x9</title>
<path fill="none" stroke="black" d="M2378.35,-139.5C2378.35,-139.5 2416.85,-139.5 2416.85,-139.5 2422.85,-139.5 2428.85,-145.5 2428.85,-151.5 2428.85,-151.5 2428.85,-163.5 2428.85,-163.5 2428.85,-169.5 2422.85,-175.5 2416.85,-175.5 2416.85,-175.5 2378.35,-175.5 2378.35,-175.5 2372.35,-175.5 2366.35,-169.5 2366.35,-163.5 2366.35,-163.5 2366.35,-151.5 2366.35,-151.5 2366.35,-145.5 2372.35,-139.5 2378.35,-139.5"/>
<text text-anchor="middle" x="2397.6" y="-152.7" font-family="Times,serif" font-size="14.00">0:0 &#45; 0:0</text>
</g>
<!-- c23&#45;&gt;x9 -->
<g id="edge10" class="edge">
<title>c23:e&#45;&gt;x9:w</title>
<path fill="none" stroke="black" d="M2261.32,-157.74C2298.93,-157.71 2314.79,-157.54 2352.34,-157.51"/>
<polygon fill="none" stroke="black" points="2261.37,-157.74 2255.38,-161.75 2249.37,-157.75 2255.37,-153.75 2261.37,-157.74"/>
<polygon fill="none" stroke="black" points="2352.45,-157.51 2358.45,-153.5 2364.45,-157.5 2358.45,-161.5 2352.45,-157.51"/>
</g>
<!-- x7 -->
<g id="node18" class="node">
<title>x7</title>
<path fill="none" stroke="black" d="M1968.97,-293.5C1968.97,-293.5 2007.47,-293.5 2007.47,-293.5 2013.47,-293.5 2019.47,-299.5 2019.47,-305.5 2019.47,-305.5 2019.47,-317.5 2019.47,-317.5 2019.47,-323.5 2013.47,-329.5 2007.47,-329.5 2007.47,-329.5 1968.97,-329.5 1968.97,-329.5 1962.97,-329.5 1956.97,-323.5 1956.97,-317.5 1956.97,-317.5 1956.97,-305.5 1956.97,-305.5 1956.97,-299.5 1962.97,-293.5 1968.97,-293.5"/>
<text text-anchor="middle" x="1988.22" y="-306.7" font-family="Times,serif" font-size="14.00">0:0 &#45; 0:0</text>
</g>
<!-- x7&#45;&gt;c23 -->
<g id="edge8" class="edge">
<title>x7:e&#45;&gt;c23:w</title>
<path fill="none" stroke="black" d="M2032.97,-309.92C2072.45,-298.38 2036.27,-226.6 2077.59,-191.5 2100.57,-171.98 2114.05,-169.96 2139.9,-169.77"/>
<polygon fill="none" stroke="black" points="2033.27,-309.88 2027.82,-314.6 2021.36,-311.39 2026.81,-306.67 2033.27,-309.88"/>
<polygon fill="none" stroke="black" points="2139.82,-169.77 2145.82,-165.76 2151.82,-169.75 2145.83,-173.76 2139.82,-169.77"/>
</g>
<!-- x8&#45;&gt;c23 -->
<g id="edge9" class="edge">
<title>x8:e&#45;&gt;c23:w</title>
<path fill="none" stroke="black" d="M1027.52,-396.08C1138.73,-389.3 1375.52,-302.5 1476.09,-302.5 1476.09,-302.5 1476.09,-302.5 1734.47,-302.5 1928.7,-302.5 1953.12,-152.08 2139.88,-145.47"/>
<polygon fill="none" stroke="black" points="1027.49,-396.08 1021.62,-400.27 1015.49,-396.47 1021.36,-392.28 1027.49,-396.08"/>
<polygon fill="none" stroke="black" points="2139.82,-145.48 2145.75,-141.37 2151.82,-145.27 2145.89,-149.37 2139.82,-145.48"/>
</g>
<!-- n4 -->
<g id="node61" class="node">
<title>n4</title>
<ellipse fill="black" stroke="black" cx="2473.4" cy="-157.5" rx="1.8" ry="1.8"/>
</g>
<!-- x9&#45;&gt;n4 -->
<g id="edge71" class="edge">
<title>x9:e&#45;&gt;n4:w</title>
<path fill="none" stroke="black" d="M2429.85,-157.75C2443.91,-157.75 2449.98,-157.61 2460.17,-157.54"/>
<polygon fill="black" stroke="black" points="2460.1,-161.04 2470.09,-157.5 2460.08,-154.04 2460.1,-161.04"/>
</g>
<!-- c24 -->
<g id="node21" class="node">
<title>c24</title>
<polygon fill="none" stroke="black" points="690.34,-261 690.34,-310 784.09,-310 784.09,-261 690.34,-261"/>
<text text-anchor="middle" x="703.22" y="-292.7" font-family="Times,serif" font-size="14.00">A</text>
<polyline fill="none" stroke="black" points="690.34,-285.5 716.09,-285.5"/>
<text text-anchor="middle" x="703.22" y="-268.2" font-family="Times,serif" font-size="14.00">B</text>
<polyline fill="none" stroke="black" points="716.09,-261 716.09,-310"/>
<text text-anchor="middle" x="737.22" y="-288.7" font-family="Times,serif" font-size="14.00">$34</text>
<text text-anchor="middle" x="737.22" y="-272.2" font-family="Times,serif" font-size="14.00">$and</text>
<polyline fill="none" stroke="black" points="758.34,-261 758.34,-310"/>
<text text-anchor="middle" x="771.22" y="-280.7" font-family="Times,serif" font-size="14.00">Y</text>
</g>
<!-- x11 -->
<g id="node23" class="node">
<title>x11</title>
<path fill="none" stroke="black" d="M848.84,-264.5C848.84,-264.5 887.34,-264.5 887.34,-264.5 893.34,-264.5 899.34,-270.5 899.34,-276.5 899.34,-276.5 899.34,-288.5 899.34,-288.5 899.34,-294.5 893.34,-300.5 887.34,-300.5 887.34,-300.5 848.84,-300.5 848.84,-300.5 842.84,-300.5 836.84,-294.5 836.84,-288.5 836.84,-288.5 836.84,-276.5 836.84,-276.5 836.84,-270.5 842.84,-264.5 848.84,-264.5"/>
<text text-anchor="middle" x="868.09" y="-277.7" font-family="Times,serif" font-size="14.00">1:0 &#45; 1:0</text>
</g>
<!-- c24&#45;&gt;x11 -->
<g id="edge12" class="edge">
<title>c24:e&#45;&gt;x11:w</title>
<path fill="none" stroke="black" stroke-width="3" d="M797.08,-285.35C806.69,-284.73 813.21,-283.53 822.8,-282.9"/>
<polygon fill="none" stroke="black" stroke-width="3" points="798.79,-285.3 792.92,-289.48 786.8,-285.67 792.67,-281.48 798.79,-285.3"/>
<polygon fill="none" stroke="black" stroke-width="3" points="821.15,-282.95 827.02,-278.77 833.14,-282.58 827.27,-286.77 821.15,-282.95"/>
</g>
<!-- x10&#45;&gt;c24 -->
<g id="edge11" class="edge">
<title>x10:e&#45;&gt;c24:w</title>
<path fill="none" stroke="black" stroke-width="3" d="M512.29,-260.6C582.72,-261.74 607.09,-272.03 677.62,-273.15"/>
<polygon fill="none" stroke="black" stroke-width="3" points="514.05,-260.62 508.01,-264.57 502.05,-260.52 508.08,-256.57 514.05,-260.62"/>
<polygon fill="none" stroke="black" stroke-width="3" points="675.64,-273.14 681.67,-269.18 687.64,-273.23 681.61,-277.18 675.64,-273.14"/>
</g>
<!-- n5 -->
<g id="node62" class="node">
<title>n5</title>
<ellipse fill="black" stroke="black" cx="983.34" cy="-225.5" rx="1.8" ry="1.8"/>
</g>
<!-- x11&#45;&gt;n5 -->
<g id="edge73" class="edge">
<title>x11:e&#45;&gt;n5:w</title>
<path fill="none" stroke="black" stroke-width="3" d="M900.34,-282.75C939.88,-282.75 937.4,-235.73 969.06,-226.92"/>
<polygon fill="black" stroke="black" stroke-width="3" points="966.09,-230.83 975.56,-226.08 965.2,-223.88 966.09,-230.83"/>
</g>
<!-- c25 -->
<g id="node24" class="node">
<title>c25</title>
<polygon fill="none" stroke="black" points="3956.12,-110 3956.12,-159 4048.37,-159 4048.37,-110 3956.12,-110"/>
<text text-anchor="middle" x="3968.99" y="-141.7" font-family="Times,serif" font-size="14.00">A</text>
<polyline fill="none" stroke="black" points="3956.12,-134.5 3981.87,-134.5"/>
<text text-anchor="middle" x="3968.99" y="-117.2" font-family="Times,serif" font-size="14.00">B</text>
<polyline fill="none" stroke="black" points="3981.87,-110 3981.87,-159"/>
<text text-anchor="middle" x="4002.24" y="-137.7" font-family="Times,serif" font-size="14.00">$38</text>
<text text-anchor="middle" x="4002.24" y="-121.2" font-family="Times,serif" font-size="14.00">$xor</text>
<polyline fill="none" stroke="black" points="4022.62,-110 4022.62,-159"/>
<text text-anchor="middle" x="4035.49" y="-129.7" font-family="Times,serif" font-size="14.00">Y</text>
</g>
<!-- x14 -->
<g id="node27" class="node">
<title>x14</title>
<path fill="none" stroke="black" d="M4096.37,-162.5C4096.37,-162.5 4148.37,-162.5 4148.37,-162.5 4154.37,-162.5 4160.37,-168.5 4160.37,-174.5 4160.37,-174.5 4160.37,-186.5 4160.37,-186.5 4160.37,-192.5 4154.37,-198.5 4148.37,-198.5 4148.37,-198.5 4096.37,-198.5 4096.37,-198.5 4090.37,-198.5 4084.37,-192.5 4084.37,-186.5 4084.37,-186.5 4084.37,-174.5 4084.37,-174.5 4084.37,-168.5 4090.37,-162.5 4096.37,-162.5"/>
<text text-anchor="middle" x="4122.37" y="-175.7" font-family="Times,serif" font-size="14.00">29:0 &#45; 29:0</text>
</g>
<!-- c25&#45;&gt;x14 -->
<g id="edge15" class="edge">
<title>c25:e&#45;&gt;x14:w</title>
<path fill="none" stroke="black" stroke-width="3" d="M4059.96,-140C4066.85,-148.73 4065.84,-166.15 4072.59,-175.03"/>
<polygon fill="none" stroke="black" stroke-width="3" points="4061.76,-140.81 4054.65,-141.98 4050.83,-135.86 4057.94,-134.69 4061.76,-140.81"/>
<polygon fill="none" stroke="black" stroke-width="3" points="4071.03,-174.3 4078.16,-173.2 4081.91,-179.36 4074.79,-180.46 4071.03,-174.3"/>
</g>
<!-- x12 -->
<g id="node25" class="node">
<title>x12</title>
<path fill="none" stroke="black" d="M3856.12,-128.5C3856.12,-128.5 3908.12,-128.5 3908.12,-128.5 3914.12,-128.5 3920.12,-134.5 3920.12,-140.5 3920.12,-140.5 3920.12,-152.5 3920.12,-152.5 3920.12,-158.5 3914.12,-164.5 3908.12,-164.5 3908.12,-164.5 3856.12,-164.5 3856.12,-164.5 3850.12,-164.5 3844.12,-158.5 3844.12,-152.5 3844.12,-152.5 3844.12,-140.5 3844.12,-140.5 3844.12,-134.5 3850.12,-128.5 3856.12,-128.5"/>
<text text-anchor="middle" x="3882.12" y="-141.7" font-family="Times,serif" font-size="14.00">29:0 &#45; 29:0</text>
</g>
<!-- x12&#45;&gt;c25 -->
<g id="edge13" class="edge">
<title>x12:e&#45;&gt;c25:w</title>
<path fill="none" stroke="black" stroke-width="3" d="M3932.84,-146.56C3936.44,-146.6 3939.57,-146.65 3943.14,-146.68"/>
<polygon fill="none" stroke="black" stroke-width="3" points="3934.82,-146.57 3928.8,-150.54 3922.82,-146.51 3928.84,-142.54 3934.82,-146.57"/>
<polygon fill="none" stroke="black" stroke-width="3" points="3941.41,-146.68 3947.43,-142.71 3953.41,-146.74 3947.39,-150.71 3941.41,-146.68"/>
</g>
<!-- x13&#45;&gt;c25 -->
<g id="edge14" class="edge">
<title>x13:e&#45;&gt;c25:w</title>
<path fill="none" stroke="black" stroke-width="3" d="M3134.98,-49.71C3218.28,-52.4 3241.83,-80.5 3331.45,-80.5 3331.45,-80.5 3331.45,-80.5 3807.32,-80.5 3871.44,-80.5 3885.66,-116.89 3943.16,-121.72"/>
<polygon fill="none" stroke="black" stroke-width="3" points="3136.66,-49.73 3130.59,-53.64 3124.66,-49.54 3130.72,-45.64 3136.66,-49.73"/>
<polygon fill="none" stroke="black" stroke-width="3" points="3941.42,-121.65 3947.58,-117.9 3953.41,-122.14 3947.26,-125.89 3941.42,-121.65"/>
</g>
<!-- x14&#45;&gt;n12 -->
<g id="edge38" class="edge">
<title>x14:e&#45;&gt;n12:w</title>
<path fill="none" stroke="black" stroke-width="3" d="M4161.37,-180.75C4169.49,-180.75 4165.98,-193.13 4160.37,-199 4074.76,-288.47 4006.94,-226.5 3883.12,-226.5 3726.14,-226.5 3726.14,-226.5 3726.14,-226.5 3586.92,-226.5 3513.17,-317.14 3412.96,-220.5 3410.97,-218.59 3409.29,-215.86 3408.26,-213.11"/>
<polygon fill="black" stroke="black" stroke-width="3" points="3410.47,-217.38 3410.46,-206.79 3403.86,-215.08 3410.47,-217.38"/>
</g>
<!-- c26 -->
<g id="node28" class="node">
<title>c26</title>
<polygon fill="none" stroke="black" points="820.09,-486 820.09,-535 916.09,-535 916.09,-486 820.09,-486"/>
<text text-anchor="middle" x="832.97" y="-517.7" font-family="Times,serif" font-size="14.00">A</text>
<polyline fill="none" stroke="black" points="820.09,-510.5 845.84,-510.5"/>
<text text-anchor="middle" x="832.97" y="-493.2" font-family="Times,serif" font-size="14.00">B</text>
<polyline fill="none" stroke="black" points="845.84,-486 845.84,-535"/>
<text text-anchor="middle" x="868.09" y="-513.7" font-family="Times,serif" font-size="14.00">$4</text>
<text text-anchor="middle" x="868.09" y="-497.2" font-family="Times,serif" font-size="14.00">$mul</text>
<polyline fill="none" stroke="black" points="890.34,-486 890.34,-535"/>
<text text-anchor="middle" x="903.22" y="-505.7" font-family="Times,serif" font-size="14.00">Y</text>
</g>
<!-- c26&#45;&gt;x5 -->
<g id="edge77" class="edge">
<title>c26:e&#45;&gt;x5:w</title>
<path fill="none" stroke="black" stroke-width="3" d="M916.09,-510.75C927.87,-510.75 932.85,-506.62 940.8,-504.29"/>
<polygon fill="black" stroke="black" stroke-width="3" points="938.16,-508.19 947.59,-503.36 937.21,-501.25 938.16,-508.19"/>
</g>
<!-- x15&#45;&gt;c26 -->
<g id="edge16" class="edge">
<title>x15:e&#45;&gt;c26:w</title>
<path fill="none" stroke="black" stroke-width="3" d="M781.74,-557.28C793.38,-550.15 796.19,-533.08 807.84,-525.96"/>
<polygon fill="none" stroke="black" stroke-width="3" points="783.69,-556.77 778.9,-562.16 772.08,-559.81 776.87,-554.42 783.69,-556.77"/>
<polygon fill="none" stroke="black" stroke-width="3" points="805.87,-526.48 810.66,-521.09 817.48,-523.44 812.69,-528.83 805.87,-526.48"/>
</g>
<!-- x16&#45;&gt;c26 -->
<g id="edge17" class="edge">
<title>x16:e&#45;&gt;c26:w</title>
<path fill="none" stroke="black" d="M782.16,-498.47C791.46,-498.42 797.82,-498.33 807.04,-498.28"/>
<polygon fill="none" stroke="black" points="782.37,-498.47 776.38,-502.48 770.37,-498.5 776.36,-494.48 782.37,-498.47"/>
<polygon fill="none" stroke="black" points="807.19,-498.28 813.18,-494.27 819.19,-498.25 813.2,-502.27 807.19,-498.28"/>
</g>
<!-- c27&#45;&gt;c24 -->
<g id="edge78" class="edge">
<title>c27:e&#45;&gt;c24:w</title>
<path fill="none" stroke="black" stroke-width="3" d="M654.34,-360.75C681.81,-360.75 665.22,-315.07 679.6,-301.5"/>
<polygon fill="black" stroke="black" stroke-width="3" points="677.77,-305.85 686.06,-299.25 675.46,-299.24 677.77,-305.85"/>
</g>
<!-- c28&#45;&gt;n13 -->
<g id="edge41" class="edge">
<title>c28:e&#45;&gt;n13:w</title>
<path fill="none" stroke="black" stroke-width="3" d="M229.34,-286.75C240.76,-286.75 246.02,-285.11 253.88,-284.16"/>
<polygon fill="black" stroke="black" stroke-width="3" points="251.02,-287.83 260.81,-283.76 250.62,-280.84 251.02,-287.83"/>
</g>
<!-- v17 -->
<g id="node33" class="node">
<title>v17</title>
<ellipse fill="none" stroke="black" cx="186.59" cy="-421.5" rx="27" ry="18"/>
<text text-anchor="middle" x="186.59" y="-416.45" font-family="Times,serif" font-size="14.00">1&#39;0</text>
</g>
<!-- c29 -->
<g id="node34" class="node">
<title>c29</title>
<polygon fill="none" stroke="black" points="274.09,-385 274.09,-434 367.09,-434 367.09,-385 274.09,-385"/>
<text text-anchor="middle" x="286.97" y="-416.7" font-family="Times,serif" font-size="14.00">A</text>
<polyline fill="none" stroke="black" points="274.09,-409.5 299.84,-409.5"/>
<text text-anchor="middle" x="286.97" y="-392.2" font-family="Times,serif" font-size="14.00">B</text>
<polyline fill="none" stroke="black" points="299.84,-385 299.84,-434"/>
<text text-anchor="middle" x="320.59" y="-412.7" font-family="Times,serif" font-size="14.00">$2</text>
<text text-anchor="middle" x="320.59" y="-396.2" font-family="Times,serif" font-size="14.00">$sub</text>
<polyline fill="none" stroke="black" points="341.34,-385 341.34,-434"/>
<text text-anchor="middle" x="354.22" y="-404.7" font-family="Times,serif" font-size="14.00">Y</text>
</g>
<!-- v17&#45;&gt;c29 -->
<g id="edge84" class="edge">
<title>v17:e&#45;&gt;c29:w</title>
<path fill="none" stroke="black" d="M214.84,-421.5C236.48,-421.5 244.56,-421.67 261.75,-421.73"/>
<polygon fill="black" stroke="black" points="261.57,-425.23 271.58,-421.75 261.58,-418.23 261.57,-425.23"/>
</g>
<!-- c29&#45;&gt;n14 -->
<g id="edge49" class="edge">
<title>c29:e&#45;&gt;n14:w</title>
<path fill="none" stroke="black" stroke-width="3" d="M368.09,-409.75C383.19,-409.75 389.43,-411.99 400.51,-413.01"/>
<polygon fill="black" stroke="black" stroke-width="3" points="397.16,-416.37 407.31,-413.3 397.47,-409.37 397.16,-416.37"/>
</g>
<!-- x18&#45;&gt;c29 -->
<g id="edge18" class="edge">
<title>x18:e&#45;&gt;c29:w</title>
<path fill="none" stroke="black" stroke-width="3" d="M231.26,-363.38C244.13,-370.22 247.72,-387.35 260.51,-394.28"/>
<polygon fill="none" stroke="black" stroke-width="3" points="233.16,-363.83 226.41,-366.37 221.47,-361.11 228.22,-358.57 233.16,-363.83"/>
<polygon fill="none" stroke="black" stroke-width="3" points="258.78,-393.87 265.54,-391.36 270.46,-396.63 263.7,-399.14 258.78,-393.87"/>
</g>
<!-- x20 -->
<g id="node38" class="node">
<title>x20</title>
<path fill="none" stroke="black" d="M1707.47,-342C1707.47,-342 1759.47,-342 1759.47,-342 1765.47,-342 1771.47,-348 1771.47,-354 1771.47,-354 1771.47,-379 1771.47,-379 1771.47,-385 1765.47,-391 1759.47,-391 1759.47,-391 1707.47,-391 1707.47,-391 1701.47,-391 1695.47,-385 1695.47,-379 1695.47,-379 1695.47,-354 1695.47,-354 1695.47,-348 1701.47,-342 1707.47,-342"/>
<text text-anchor="middle" x="1733.47" y="-373.7" font-family="Times,serif" font-size="14.00">4:4 &#45; 22:22</text>
<polyline fill="none" stroke="black" points="1695.47,-366.5 1771.47,-366.5"/>
<text text-anchor="middle" x="1733.47" y="-349.2" font-family="Times,serif" font-size="14.00">3:0 &#45; 3:0</text>
</g>
<!-- c30&#45;&gt;x20 -->
<g id="edge20" class="edge">
<title>c30:e&#45;&gt;x20:w</title>
<path fill="none" stroke="black" stroke-width="3" d="M1657.12,-366.72C1666.19,-366.67 1672.49,-366.58 1681.59,-366.53"/>
<polygon fill="none" stroke="black" stroke-width="3" points="1658.8,-366.71 1652.81,-370.73 1646.8,-366.74 1652.79,-362.73 1658.8,-366.71"/>
<polygon fill="none" stroke="black" stroke-width="3" points="1679.76,-366.54 1685.75,-362.52 1691.76,-366.51 1685.77,-370.52 1679.76,-366.54"/>
</g>
<!-- x19 -->
<g id="node37" class="node">
<title>x19</title>
<path fill="none" stroke="black" d="M1457.84,-390C1457.84,-390 1496.34,-390 1496.34,-390 1502.34,-390 1508.34,-396 1508.34,-402 1508.34,-402 1508.34,-427 1508.34,-427 1508.34,-433 1502.34,-439 1496.34,-439 1496.34,-439 1457.84,-439 1457.84,-439 1451.84,-439 1445.84,-433 1445.84,-427 1445.84,-427 1445.84,-402 1445.84,-402 1445.84,-396 1451.84,-390 1457.84,-390"/>
<text text-anchor="middle" x="1477.09" y="-421.7" font-family="Times,serif" font-size="14.00">0 &#45;&gt; 3:2</text>
<polyline fill="none" stroke="black" points="1445.84,-414.5 1508.34,-414.5"/>
<text text-anchor="middle" x="1477.09" y="-397.2" font-family="Times,serif" font-size="14.00">1:0 &#45; 1:0</text>
</g>
<!-- x19&#45;&gt;c30 -->
<g id="edge19" class="edge">
<title>x19:e&#45;&gt;c30:w</title>
<path fill="none" stroke="black" stroke-width="3" d="M1521.51,-410.12C1529.17,-403.25 1531.24,-390.05 1538.89,-383.17"/>
<polygon fill="none" stroke="black" stroke-width="3" points="1523.18,-409.51 1518.89,-415.31 1511.89,-413.58 1516.18,-407.79 1523.18,-409.51"/>
<polygon fill="none" stroke="black" stroke-width="3" points="1537.27,-383.76 1541.55,-377.95 1548.55,-379.67 1544.27,-385.47 1537.27,-383.76"/>
</g>
<!-- n9 -->
<g id="node63" class="node">
<title>n9</title>
<ellipse fill="black" stroke="black" cx="1860.84" cy="-366.5" rx="1.8" ry="1.8"/>
</g>
<!-- x20&#45;&gt;n9 -->
<g id="edge79" class="edge">
<title>x20:e&#45;&gt;n9:w</title>
<path fill="none" stroke="black" stroke-width="3" d="M1772.47,-354.25C1806.65,-354.25 1817.2,-364.05 1846.39,-366.12"/>
<polygon fill="black" stroke="black" stroke-width="3" points="1842.91,-369.5 1853.03,-366.35 1843.15,-362.51 1842.91,-369.5"/>
</g>
<!-- x20&#45;&gt;n9 -->
<g id="edge80" class="edge">
<title>x20:e&#45;&gt;n9:w</title>
<path fill="none" stroke="black" d="M1772.47,-378.75C1806.65,-378.75 1817.2,-368.95 1846.39,-366.88"/>
<polygon fill="black" stroke="black" points="1846.18,-370.39 1856.05,-366.55 1845.94,-363.39 1846.18,-370.39"/>
</g>
<!-- x22 -->
<g id="node41" class="node">
<title>x22</title>
<path fill="none" stroke="black" d="M2755.2,-110C2755.2,-110 2820.7,-110 2820.7,-110 2826.7,-110 2832.7,-116 2832.7,-122 2832.7,-122 2832.7,-147 2832.7,-147 2832.7,-153 2826.7,-159 2820.7,-159 2820.7,-159 2755.2,-159 2755.2,-159 2749.2,-159 2743.2,-153 2743.2,-147 2743.2,-147 2743.2,-122 2743.2,-122 2743.2,-116 2749.2,-110 2755.2,-110"/>
<text text-anchor="middle" x="2787.95" y="-141.7" font-family="Times,serif" font-size="14.00">23:23 &#45; 29:29</text>
<polyline fill="none" stroke="black" points="2743.2,-134.5 2832.7,-134.5"/>
<text text-anchor="middle" x="2787.95" y="-117.2" font-family="Times,serif" font-size="14.00">22:0 &#45; 22:0</text>
</g>
<!-- c31&#45;&gt;x22 -->
<g id="edge22" class="edge">
<title>c31:e&#45;&gt;x22:w</title>
<path fill="none" stroke="black" stroke-width="3" d="M2719.92,-134.69C2723.52,-134.65 2726.65,-134.6 2730.23,-134.57"/>
<polygon fill="none" stroke="black" stroke-width="3" points="2721.91,-134.68 2715.93,-138.71 2709.91,-134.74 2715.89,-130.71 2721.91,-134.68"/>
<polygon fill="none" stroke="black" stroke-width="3" points="2728.5,-134.57 2734.48,-130.54 2740.5,-134.51 2734.52,-138.54 2728.5,-134.57"/>
</g>
<!-- x21 -->
<g id="node40" class="node">
<title>x21</title>
<path fill="none" stroke="black" d="M2523.2,-138C2523.2,-138 2566.2,-138 2566.2,-138 2572.2,-138 2578.2,-144 2578.2,-150 2578.2,-150 2578.2,-175 2578.2,-175 2578.2,-181 2572.2,-187 2566.2,-187 2566.2,-187 2523.2,-187 2523.2,-187 2517.2,-187 2511.2,-181 2511.2,-175 2511.2,-175 2511.2,-150 2511.2,-150 2511.2,-144 2517.2,-138 2523.2,-138"/>
<text text-anchor="middle" x="2544.7" y="-169.7" font-family="Times,serif" font-size="14.00">0 &#45;&gt; 22:1</text>
<polyline fill="none" stroke="black" points="2511.2,-162.5 2578.2,-162.5"/>
<text text-anchor="middle" x="2544.7" y="-145.2" font-family="Times,serif" font-size="14.00">0:0 &#45; 0:0</text>
</g>
<!-- x21&#45;&gt;c31 -->
<g id="edge21" class="edge">
<title>x21:e&#45;&gt;c31:w</title>
<path fill="none" stroke="black" stroke-width="3" d="M2590.53,-159C2594.64,-156.39 2597.78,-152.84 2601.89,-150.24"/>
<polygon fill="none" stroke="black" stroke-width="3" points="2592.35,-158.49 2587.67,-163.97 2580.8,-161.76 2585.48,-156.28 2592.35,-158.49"/>
<polygon fill="none" stroke="black" stroke-width="3" points="2600.05,-150.76 2604.74,-145.27 2611.6,-147.49 2606.92,-152.97 2600.05,-150.76"/>
</g>
<!-- x22&#45;&gt;n15 -->
<g id="edge56" class="edge">
<title>x22:e&#45;&gt;n15:w</title>
<path fill="none" stroke="black" stroke-width="3" d="M2832.7,-122.25C2844.16,-122.25 2849.38,-124.4 2857.23,-125.64"/>
<polygon fill="black" stroke="black" stroke-width="3" points="2853.94,-128.9 2864.17,-126.16 2854.46,-121.92 2853.94,-128.9"/>
</g>
<!-- x22&#45;&gt;n15 -->
<g id="edge57" class="edge">
<title>x22:e&#45;&gt;n15:w</title>
<path fill="none" stroke="black" d="M2832.7,-146.75C2846.47,-146.75 2849.51,-135.36 2857.91,-129.66"/>
<polygon fill="black" stroke="black" points="2858.64,-133.1 2867.25,-126.93 2856.67,-126.38 2858.64,-133.1"/>
</g>
<!-- x23 -->
<g id="node43" class="node">
<title>x23</title>
<path fill="none" stroke="black" d="M1451.09,-160C1451.09,-160 1503.09,-160 1503.09,-160 1509.09,-160 1515.09,-166 1515.09,-172 1515.09,-172 1515.09,-197 1515.09,-197 1515.09,-203 1509.09,-209 1503.09,-209 1503.09,-209 1451.09,-209 1451.09,-209 1445.09,-209 1439.09,-203 1439.09,-197 1439.09,-197 1439.09,-172 1439.09,-172 1439.09,-166 1445.09,-160 1451.09,-160"/>
<text text-anchor="middle" x="1477.09" y="-191.7" font-family="Times,serif" font-size="14.00">4:4 &#45; 47:47</text>
<polyline fill="none" stroke="black" points="1439.09,-184.5 1515.09,-184.5"/>
<text text-anchor="middle" x="1477.09" y="-167.2" font-family="Times,serif" font-size="14.00">3:0 &#45; 3:0</text>
</g>
<!-- c32&#45;&gt;x23 -->
<g id="edge23" class="edge">
<title>c32:e&#45;&gt;x23:w</title>
<path fill="none" stroke="black" stroke-width="3" d="M1415.82,-183.94C1419.41,-184.05 1422.54,-184.19 1426.12,-184.3"/>
<polygon fill="none" stroke="black" stroke-width="3" points="1417.8,-183.97 1411.74,-187.88 1405.8,-183.79 1411.86,-179.88 1417.8,-183.97"/>
<polygon fill="none" stroke="black" stroke-width="3" points="1424.39,-184.28 1430.45,-180.37 1436.39,-184.46 1430.33,-188.37 1424.39,-184.28"/>
</g>
<!-- n10 -->
<g id="node58" class="node">
<title>n10</title>
<ellipse fill="black" stroke="black" cx="1597.59" cy="-196.5" rx="1.8" ry="1.8"/>
</g>
<!-- x23&#45;&gt;n10 -->
<g id="edge29" class="edge">
<title>x23:e&#45;&gt;n10:w</title>
<path fill="none" stroke="black" stroke-width="3" d="M1515.09,-172.25C1547.74,-172.25 1555.83,-191.32 1582.91,-195.64"/>
<polygon fill="black" stroke="black" stroke-width="3" points="1579.55,-198.89 1589.79,-196.16 1580.08,-191.91 1579.55,-198.89"/>
</g>
<!-- x23&#45;&gt;n10 -->
<g id="edge30" class="edge">
<title>x23:e&#45;&gt;n10:w</title>
<path fill="none" stroke="black" d="M1515.09,-196.75C1546.18,-196.75 1556.68,-196.56 1582.94,-196.51"/>
<polygon fill="black" stroke="black" points="1582.8,-200.01 1592.8,-196.5 1582.8,-193.01 1582.8,-200.01"/>
</g>
<!-- v24 -->
<g id="node44" class="node">
<title>v24</title>
<ellipse fill="none" stroke="black" cx="1097.47" cy="-422.5" rx="27" ry="18"/>
<text text-anchor="middle" x="1097.47" y="-417.45" font-family="Times,serif" font-size="14.00">2&#39;00</text>
</g>
<!-- x25 -->
<g id="node45" class="node">
<title>x25</title>
<path fill="none" stroke="black" d="M1207.97,-405.5C1207.97,-405.5 1246.47,-405.5 1246.47,-405.5 1252.47,-405.5 1258.47,-411.5 1258.47,-417.5 1258.47,-417.5 1258.47,-429.5 1258.47,-429.5 1258.47,-435.5 1252.47,-441.5 1246.47,-441.5 1246.47,-441.5 1207.97,-441.5 1207.97,-441.5 1201.97,-441.5 1195.97,-435.5 1195.97,-429.5 1195.97,-429.5 1195.97,-417.5 1195.97,-417.5 1195.97,-411.5 1201.97,-405.5 1207.97,-405.5"/>
<text text-anchor="middle" x="1227.22" y="-418.7" font-family="Times,serif" font-size="14.00">1:0 &#45; 3:2</text>
</g>
<!-- v24&#45;&gt;x25 -->
<g id="edge85" class="edge">
<title>v24:e&#45;&gt;x25:w</title>
<path fill="none" stroke="black" stroke-width="3" d="M1125.72,-422.5C1152.29,-422.5 1161.65,-423.25 1183.52,-423.45"/>
<polygon fill="black" stroke="black" stroke-width="3" points="1180.41,-426.94 1190.43,-423.48 1180.44,-419.94 1180.41,-426.94"/>
</g>
<!-- x25&#45;&gt;n3 -->
<g id="edge67" class="edge">
<title>x25:e&#45;&gt;n3:w</title>
<path fill="none" stroke="black" stroke-width="3" d="M1259.47,-423.75C1297.1,-423.75 1309.27,-423.55 1341.93,-423.51"/>
<polygon fill="black" stroke="black" stroke-width="3" points="1338.78,-427.01 1348.77,-423.5 1338.77,-420.01 1338.78,-427.01"/>
</g>
<!-- v26 -->
<g id="node46" class="node">
<title>v26</title>
<ellipse fill="none" stroke="black" cx="2200.6" cy="-218.5" rx="123" ry="18"/>
<text text-anchor="middle" x="2200.6" y="-213.45" font-family="Times,serif" font-size="14.00">22&#39;0000000000000000000000</text>
</g>
<!-- x27 -->
<g id="node47" class="node">
<title>x27</title>
<path fill="none" stroke="black" d="M2371.6,-197.5C2371.6,-197.5 2423.6,-197.5 2423.6,-197.5 2429.6,-197.5 2435.6,-203.5 2435.6,-209.5 2435.6,-209.5 2435.6,-221.5 2435.6,-221.5 2435.6,-227.5 2429.6,-233.5 2423.6,-233.5 2423.6,-233.5 2371.6,-233.5 2371.6,-233.5 2365.6,-233.5 2359.6,-227.5 2359.6,-221.5 2359.6,-221.5 2359.6,-209.5 2359.6,-209.5 2359.6,-203.5 2365.6,-197.5 2371.6,-197.5"/>
<text text-anchor="middle" x="2397.6" y="-210.7" font-family="Times,serif" font-size="14.00">21:0 &#45; 22:1</text>
</g>
<!-- v26&#45;&gt;x27 -->
<g id="edge86" class="edge">
<title>v26:e&#45;&gt;x27:w</title>
<path fill="none" stroke="black" stroke-width="3" d="M2323.6,-218.5C2335.02,-218.5 2340.28,-216.98 2348.14,-216.11"/>
<polygon fill="black" stroke="black" stroke-width="3" points="2345.27,-219.76 2355.07,-215.74 2344.9,-212.77 2345.27,-219.76"/>
</g>
<!-- x27&#45;&gt;n4 -->
<g id="edge70" class="edge">
<title>x27:e&#45;&gt;n4:w</title>
<path fill="none" stroke="black" stroke-width="3" d="M2435.6,-215.75C2461.28,-215.75 2447.59,-174.28 2460.96,-161.32"/>
<polygon fill="black" stroke="black" stroke-width="3" points="2459.1,-165.71 2467.33,-159.04 2456.73,-159.12 2459.1,-165.71"/>
</g>
<!-- v28 -->
<g id="node48" class="node">
<title>v28</title>
<ellipse fill="none" stroke="black" cx="737.22" cy="-224.5" rx="27" ry="18"/>
<text text-anchor="middle" x="737.22" y="-219.45" font-family="Times,serif" font-size="14.00">1&#39;0</text>
</g>
<!-- x29 -->
<g id="node49" class="node">
<title>x29</title>
<path fill="none" stroke="black" d="M848.84,-207.5C848.84,-207.5 887.34,-207.5 887.34,-207.5 893.34,-207.5 899.34,-213.5 899.34,-219.5 899.34,-219.5 899.34,-231.5 899.34,-231.5 899.34,-237.5 893.34,-243.5 887.34,-243.5 887.34,-243.5 848.84,-243.5 848.84,-243.5 842.84,-243.5 836.84,-237.5 836.84,-231.5 836.84,-231.5 836.84,-219.5 836.84,-219.5 836.84,-213.5 842.84,-207.5 848.84,-207.5"/>
<text text-anchor="middle" x="868.09" y="-220.7" font-family="Times,serif" font-size="14.00">0:0 &#45; 2:2</text>
</g>
<!-- v28&#45;&gt;x29 -->
<g id="edge87" class="edge">
<title>v28:e&#45;&gt;x29:w</title>
<path fill="none" stroke="black" d="M765.47,-224.5C792.6,-224.5 802.07,-225.25 824.51,-225.45"/>
<polygon fill="black" stroke="black" points="824.31,-228.95 834.33,-225.49 824.34,-221.95 824.31,-228.95"/>
</g>
<!-- x29&#45;&gt;n5 -->
<g id="edge74" class="edge">
<title>x29:e&#45;&gt;n5:w</title>
<path fill="none" stroke="black" d="M900.34,-225.75C931.62,-225.75 942.19,-225.56 968.62,-225.51"/>
<polygon fill="black" stroke="black" points="968.55,-229.01 978.55,-225.5 968.55,-222.01 968.55,-229.01"/>
</g>
<!-- x30 -->
<g id="node50" class="node">
<title>x30</title>
<path fill="none" stroke="black" d="M1946.84,-348.5C1946.84,-348.5 2029.59,-348.5 2029.59,-348.5 2035.59,-348.5 2041.59,-354.5 2041.59,-360.5 2041.59,-360.5 2041.59,-372.5 2041.59,-372.5 2041.59,-378.5 2035.59,-384.5 2029.59,-384.5 2029.59,-384.5 1946.84,-384.5 1946.84,-384.5 1940.84,-384.5 1934.84,-378.5 1934.84,-372.5 1934.84,-372.5 1934.84,-360.5 1934.84,-360.5 1934.84,-354.5 1940.84,-348.5 1946.84,-348.5"/>
<text text-anchor="middle" x="1988.22" y="-361.7" font-family="Times,serif" font-size="14.00">18x 22:22 &#45; 17:0</text>
</g>
<!-- x31 -->
<g id="node51" class="node">
<title>x31</title>
<path fill="none" stroke="black" d="M2174.6,-371.5C2174.6,-371.5 2226.6,-371.5 2226.6,-371.5 2232.6,-371.5 2238.6,-377.5 2238.6,-383.5 2238.6,-383.5 2238.6,-395.5 2238.6,-395.5 2238.6,-401.5 2232.6,-407.5 2226.6,-407.5 2226.6,-407.5 2174.6,-407.5 2174.6,-407.5 2168.6,-407.5 2162.6,-401.5 2162.6,-395.5 2162.6,-395.5 2162.6,-383.5 2162.6,-383.5 2162.6,-377.5 2168.6,-371.5 2174.6,-371.5"/>
<text text-anchor="middle" x="2200.6" y="-384.7" font-family="Times,serif" font-size="14.00">17:0 &#45; 21:4</text>
</g>
<!-- x30&#45;&gt;x31 -->
<g id="edge24" class="edge">
<title>x30:e&#45;&gt;x31:w</title>
<path fill="none" stroke="black" stroke-width="3" d="M2054.42,-366.96C2094.1,-369.9 2109.08,-386.09 2148.76,-389.04"/>
<polygon fill="none" stroke="black" stroke-width="3" points="2056.29,-367.03 2050.15,-370.81 2044.3,-366.6 2050.43,-362.81 2056.29,-367.03"/>
<polygon fill="none" stroke="black" stroke-width="3" points="2146.9,-388.97 2153.04,-385.19 2158.9,-389.4 2152.76,-393.19 2146.9,-388.97"/>
</g>
<!-- x31&#45;&gt;n9 -->
<g id="edge81" class="edge">
<title>x31:e&#45;&gt;n9:w</title>
<path fill="none" stroke="black" stroke-width="3" d="M2239.6,-389.75C2247.72,-389.75 2244.5,-402.42 2238.6,-408 2214.07,-431.22 2196.36,-409 2162.6,-408 2061.24,-405 2034.32,-414.15 1934.84,-394.5 1915.1,-390.6 1882.58,-382.5 1863.45,-376.01"/>
<polygon fill="black" stroke="black" stroke-width="3" points="1868.19,-377.02 1859.95,-370.36 1862.24,-380.71 1868.19,-377.02"/>
</g>
<!-- x32 -->
<g id="node52" class="node">
<title>x32</title>
<path fill="none" stroke="black" d="M1692.09,-131.5C1692.09,-131.5 1774.84,-131.5 1774.84,-131.5 1780.84,-131.5 1786.84,-137.5 1786.84,-143.5 1786.84,-143.5 1786.84,-155.5 1786.84,-155.5 1786.84,-161.5 1780.84,-167.5 1774.84,-167.5 1774.84,-167.5 1692.09,-167.5 1692.09,-167.5 1686.09,-167.5 1680.09,-161.5 1680.09,-155.5 1680.09,-155.5 1680.09,-143.5 1680.09,-143.5 1680.09,-137.5 1686.09,-131.5 1692.09,-131.5"/>
<text text-anchor="middle" x="1733.47" y="-144.7" font-family="Times,serif" font-size="14.00">43x 47:47 &#45; 42:0</text>
</g>
<!-- x33 -->
<g id="node53" class="node">
<title>x33</title>
<path fill="none" stroke="black" d="M1834.84,-155.5C1834.84,-155.5 1886.84,-155.5 1886.84,-155.5 1892.84,-155.5 1898.84,-161.5 1898.84,-167.5 1898.84,-167.5 1898.84,-179.5 1898.84,-179.5 1898.84,-185.5 1892.84,-191.5 1886.84,-191.5 1886.84,-191.5 1834.84,-191.5 1834.84,-191.5 1828.84,-191.5 1822.84,-185.5 1822.84,-179.5 1822.84,-179.5 1822.84,-167.5 1822.84,-167.5 1822.84,-161.5 1828.84,-155.5 1834.84,-155.5"/>
<text text-anchor="middle" x="1860.84" y="-168.7" font-family="Times,serif" font-size="14.00">42:0 &#45; 46:4</text>
</g>
<!-- x32&#45;&gt;x33 -->
<g id="edge25" class="edge">
<title>x32:e&#45;&gt;x33:w</title>
<path fill="none" stroke="black" stroke-width="3" d="M1798.89,-154.13C1803.47,-158.38 1806.23,-164.64 1810.82,-168.89"/>
<polygon fill="none" stroke="black" stroke-width="3" points="1800.57,-154.77 1793.53,-156.36 1789.37,-150.47 1796.4,-148.89 1800.57,-154.77"/>
<polygon fill="none" stroke="black" stroke-width="3" points="1809.11,-168.23 1816.15,-166.65 1820.32,-172.53 1813.28,-174.12 1809.11,-168.23"/>
</g>
<!-- x33&#45;&gt;n10 -->
<g id="edge31" class="edge">
<title>x33:e&#45;&gt;n10:w</title>
<path fill="none" stroke="black" stroke-width="3" d="M1899.84,-173.75C1907.97,-173.75 1904.68,-186.35 1898.84,-192 1861.88,-227.74 1666.23,-211.77 1604.04,-202.03"/>
<polygon fill="black" stroke="black" stroke-width="3" points="1608.68,-200.65 1598.26,-198.75 1605.22,-206.73 1608.68,-200.65"/>
</g>
<!-- x35 -->
<g id="node55" class="node">
<title>x35</title>
<path fill="none" stroke="black" d="M3178.83,-116.5C3178.83,-116.5 3230.83,-116.5 3230.83,-116.5 3236.83,-116.5 3242.83,-122.5 3242.83,-128.5 3242.83,-128.5 3242.83,-140.5 3242.83,-140.5 3242.83,-146.5 3236.83,-152.5 3230.83,-152.5 3230.83,-152.5 3178.83,-152.5 3178.83,-152.5 3172.83,-152.5 3166.83,-146.5 3166.83,-140.5 3166.83,-140.5 3166.83,-128.5 3166.83,-128.5 3166.83,-122.5 3172.83,-116.5 3178.83,-116.5"/>
<text text-anchor="middle" x="3204.83" y="-129.7" font-family="Times,serif" font-size="14.00">5:0 &#45; 28:23</text>
</g>
<!-- x34&#45;&gt;x35 -->
<g id="edge26" class="edge">
<title>x34:e&#45;&gt;x35:w</title>
<path fill="none" stroke="black" stroke-width="3" d="M3128.91,-114.14C3138.5,-118.58 3143.57,-127.48 3153.18,-131.89"/>
<polygon fill="none" stroke="black" stroke-width="3" points="3130.6,-114.49 3123.91,-117.19 3118.85,-112.05 3125.54,-109.35 3130.6,-114.49"/>
<polygon fill="none" stroke="black" stroke-width="3" points="3151.43,-131.53 3158.11,-128.82 3163.18,-133.95 3156.5,-136.66 3151.43,-131.53"/>
</g>
<!-- x35&#45;&gt;n15 -->
<g id="edge58" class="edge">
<title>x35:e&#45;&gt;n15:w</title>
<path fill="none" stroke="black" stroke-width="3" d="M3243.83,-134.75C3251.95,-134.75 3248.73,-147.42 3242.83,-153 3218.3,-176.22 3200.6,-153.48 3166.83,-153 3100.25,-152.06 2915.04,-190.94 2867.33,-144.5 2865.35,-142.58 2863.67,-139.85 2862.64,-137.1"/>
<polygon fill="black" stroke="black" stroke-width="3" points="2864.85,-141.38 2864.83,-130.79 2858.24,-139.08 2864.85,-141.38"/>
</g>
<!-- x37 -->
<g id="node57" class="node">
<title>x37</title>
<path fill="none" stroke="black" d="M3697.77,-161.5C3697.77,-161.5 3756.52,-161.5 3756.52,-161.5 3762.52,-161.5 3768.52,-167.5 3768.52,-173.5 3768.52,-173.5 3768.52,-185.5 3768.52,-185.5 3768.52,-191.5 3762.52,-197.5 3756.52,-197.5 3756.52,-197.5 3697.77,-197.5 3697.77,-197.5 3691.77,-197.5 3685.77,-191.5 3685.77,-185.5 3685.77,-185.5 3685.77,-173.5 3685.77,-173.5 3685.77,-167.5 3691.77,-161.5 3697.77,-161.5"/>
<text text-anchor="middle" x="3727.14" y="-174.7" font-family="Times,serif" font-size="14.00">17:0 &#45; 47:30</text>
</g>
<!-- x36&#45;&gt;x37 -->
<g id="edge27" class="edge">
<title>x36:e&#45;&gt;x37:w</title>
<path fill="none" stroke="black" stroke-width="3" d="M3662.49,-179.5C3666.09,-179.5 3669.22,-179.5 3672.79,-179.5"/>
<polygon fill="none" stroke="black" stroke-width="3" points="3664.47,-179.5 3658.47,-183.5 3652.47,-179.5 3658.47,-175.5 3664.47,-179.5"/>
<polygon fill="none" stroke="black" stroke-width="3" points="3671.06,-179.5 3677.06,-175.5 3683.06,-179.5 3677.06,-183.5 3671.06,-179.5"/>
</g>
<!-- x37&#45;&gt;n2 -->
<g id="edge64" class="edge">
<title>x37:e&#45;&gt;n2:w</title>
<path fill="none" stroke="black" stroke-width="3" d="M3768.52,-179.75C3785.53,-179.75 3784.64,-159.46 3793.82,-150.58"/>
<polygon fill="black" stroke="black" stroke-width="3" points="3792.18,-154.95 3800.27,-148.12 3789.68,-148.41 3792.18,-154.95"/>
</g>
<!-- n10&#45;&gt;x1 -->
<g id="edge32" class="edge">
<title>n10:e&#45;&gt;x1:w</title>
<path fill="none" stroke="black" stroke-width="3" d="M1600.87,-196.5C1636.29,-196.5 1640.05,-229.11 1668.79,-235.99"/>
<polygon fill="black" stroke="black" stroke-width="3" points="1665.25,-239.11 1675.58,-236.75 1666.03,-232.15 1665.25,-239.11"/>
</g>
<!-- n10&#45;&gt;x1 -->
<g id="edge33" class="edge">
<title>n10:e&#45;&gt;x1:w</title>
<path fill="none" stroke="black" stroke-width="3" d="M1600.87,-196.5C1642.39,-196.5 1636.17,-250.55 1669.11,-260.26"/>
<polygon fill="black" stroke="black" stroke-width="3" points="1665.21,-263.27 1675.59,-261.14 1666.15,-256.33 1665.21,-263.27"/>
</g>
<!-- n10&#45;&gt;x32 -->
<g id="edge34" class="edge">
<title>n10:e&#45;&gt;x32:w</title>
<path fill="none" stroke="black" stroke-width="3" d="M1600.87,-196.5C1637.6,-196.5 1639.28,-158.76 1668.89,-151.1"/>
<polygon fill="black" stroke="black" stroke-width="3" points="1666.07,-154.96 1675.58,-150.29 1665.24,-148.01 1666.07,-154.96"/>
</g>
<!-- n2&#45;&gt;x12 -->
<g id="edge66" class="edge">
<title>n2:e&#45;&gt;x12:w</title>
<path fill="none" stroke="black" stroke-width="3" d="M3808.12,-146.5C3819.49,-146.5 3824.8,-146.63 3832.67,-146.7"/>
<polygon fill="black" stroke="black" stroke-width="3" points="3829.56,-150.19 3839.57,-146.73 3829.59,-143.19 3829.56,-150.19"/>
</g>
<!-- n3&#45;&gt;x19 -->
<g id="edge69" class="edge">
<title>n3:e&#45;&gt;x19:w</title>
<path fill="none" stroke="black" stroke-width="3" d="M1359.87,-423.5C1394.69,-423.5 1404.06,-406.5 1433.51,-402.91"/>
<polygon fill="black" stroke="black" stroke-width="3" points="1430.53,-406.59 1440.31,-402.51 1430.12,-399.6 1430.53,-406.59"/>
</g>
<!-- n4&#45;&gt;x21 -->
<g id="edge72" class="edge">
<title>n4:e&#45;&gt;x21:w</title>
<path fill="none" stroke="black" d="M2475.2,-157.5C2486.93,-157.5 2491.97,-153.75 2499.93,-151.65"/>
<polygon fill="black" stroke="black" points="2500.21,-155.14 2509.7,-150.44 2499.35,-148.19 2500.21,-155.14"/>
</g>
<!-- n5&#45;&gt;x0 -->
<g id="edge75" class="edge">
<title>n5:e&#45;&gt;x0:w</title>
<path fill="none" stroke="black" stroke-width="3" d="M986.62,-225.5C1017.49,-225.5 1027.86,-222.97 1053.93,-222.37"/>
<polygon fill="black" stroke="black" stroke-width="3" points="1050.72,-225.91 1060.68,-222.3 1050.64,-218.91 1050.72,-225.91"/>
</g>
<!-- n9&#45;&gt;x7 -->
<g id="edge83" class="edge">
<title>n9:e&#45;&gt;x7:w</title>
<path fill="none" stroke="black" d="M1864.12,-366.5C1907.56,-366.5 1908.62,-320.76 1944.78,-312.89"/>
<polygon fill="black" stroke="black" points="1944.87,-316.4 1954.46,-311.9 1944.16,-309.44 1944.87,-316.4"/>
</g>
<!-- n9&#45;&gt;x30 -->
<g id="edge82" class="edge">
<title>n9:e&#45;&gt;x30:w</title>
<path fill="none" stroke="black" stroke-width="3" d="M1864.12,-366.5C1891.38,-366.5 1900.91,-366.69 1923.46,-366.74"/>
<polygon fill="black" stroke="black" stroke-width="3" points="1920.3,-370.23 1930.3,-366.75 1920.31,-363.23 1920.3,-370.23"/>
</g>
</g>
</svg>
