<?xml version="1.0" encoding="UTF-8" standalone="no"?>
<!DOCTYPE svg PUBLIC "-//W3C//DTD SVG 1.1//EN"
 "http://www.w3.org/Graphics/SVG/1.1/DTD/svg11.dtd">
<!-- Generated by graphviz version 12.2.1 (20241206.2353)
 -->
<!-- Title: top Pages: 1 -->
<svg width="1798pt" height="722pt"
 viewBox="0.00 0.00 1797.95 722.00" xmlns="http://www.w3.org/2000/svg" xmlns:xlink="http://www.w3.org/1999/xlink">
<g id="graph0" class="graph" transform="scale(1 1) rotate(0) translate(4 718)">
<title>top</title>
<polygon fill="white" stroke="none" points="-4,4 -4,-718 1793.95,-718 1793.95,4 -4,4"/>
<text text-anchor="middle" x="894.98" y="-7.2" font-family="Times,serif" font-size="14.00">top</text>
<!-- n5 -->
<g id="node1" class="node">
<title>n5</title>
<polygon fill="none" stroke="black" points="107.84,-211.04 107.84,-225.96 76.26,-236.5 31.59,-236.5 0,-225.96 0,-211.04 31.59,-200.5 76.26,-200.5 107.84,-211.04"/>
<text text-anchor="middle" x="53.92" y="-213.45" font-family="Times,serif" font-size="14.00">input_data</text>
</g>
<!-- c13 -->
<g id="node11" class="node">
<title>c13</title>
<polygon fill="none" stroke="black" points="143.84,-241 143.84,-290 236.84,-290 236.84,-241 143.84,-241"/>
<text text-anchor="middle" x="156.72" y="-272.7" font-family="Times,serif" font-size="14.00">A</text>
<polyline fill="none" stroke="black" points="143.84,-265.5 169.59,-265.5"/>
<text text-anchor="middle" x="156.72" y="-248.2" font-family="Times,serif" font-size="14.00">B</text>
<polyline fill="none" stroke="black" points="169.59,-241 169.59,-290"/>
<text text-anchor="middle" x="190.34" y="-268.7" font-family="Times,serif" font-size="14.00">$2</text>
<text text-anchor="middle" x="190.34" y="-252.2" font-family="Times,serif" font-size="14.00">$sub</text>
<polyline fill="none" stroke="black" points="211.09,-241 211.09,-290"/>
<text text-anchor="middle" x="223.97" y="-260.7" font-family="Times,serif" font-size="14.00">Y</text>
</g>
<!-- n5&#45;&gt;c13 -->
<g id="edge37" class="edge">
<title>n5:e&#45;&gt;c13:w</title>
<path fill="none" stroke="black" stroke-width="3" d="M107.84,-218.5C125.39,-218.5 123.81,-240.14 133.29,-249.26"/>
<polygon fill="black" stroke="black" stroke-width="3" points="129,-251.38 139.59,-251.64 131.48,-244.84 129,-251.38"/>
</g>
<!-- c14 -->
<g id="node13" class="node">
<title>c14</title>
<polygon fill="none" stroke="black" points="567.19,-144 567.19,-193 660.19,-193 660.19,-144 567.19,-144"/>
<text text-anchor="middle" x="580.07" y="-175.7" font-family="Times,serif" font-size="14.00">A</text>
<polyline fill="none" stroke="black" points="567.19,-168.5 592.94,-168.5"/>
<text text-anchor="middle" x="580.07" y="-151.2" font-family="Times,serif" font-size="14.00">B</text>
<polyline fill="none" stroke="black" points="592.94,-144 592.94,-193"/>
<text text-anchor="middle" x="613.69" y="-171.7" font-family="Times,serif" font-size="14.00">$4</text>
<text text-anchor="middle" x="613.69" y="-155.2" font-family="Times,serif" font-size="14.00">$sub</text>
<polyline fill="none" stroke="black" points="634.44,-144 634.44,-193"/>
<text text-anchor="middle" x="647.32" y="-163.7" font-family="Times,serif" font-size="14.00">Y</text>
</g>
<!-- n5&#45;&gt;c14 -->
<g id="edge38" class="edge">
<title>n5:e&#45;&gt;c14:w</title>
<path fill="none" stroke="black" stroke-width="3" d="M107.84,-218.5C212.27,-218.5 205.42,-98.5 309.84,-98.5 309.84,-98.5 309.84,-98.5 387.64,-98.5 452,-98.5 474.01,-87.96 531.19,-117.5 547.83,-126.1 545.88,-145.6 556.3,-153.17"/>
<polygon fill="black" stroke="black" stroke-width="3" points="552.25,-155.66 562.82,-155.01 554.15,-148.92 552.25,-155.66"/>
</g>
<!-- n6 -->
<g id="node2" class="node">
<title>n6</title>
<polygon fill="none" stroke="black" points="1789.95,-99.04 1789.95,-113.96 1755.45,-124.5 1706.65,-124.5 1672.14,-113.96 1672.14,-99.04 1706.65,-88.5 1755.45,-88.5 1789.95,-99.04"/>
<text text-anchor="middle" x="1731.05" y="-101.45" font-family="Times,serif" font-size="14.00">output_data</text>
</g>
<!-- n7 -->
<g id="node3" class="node">
<title>n7</title>
<polygon fill="none" stroke="black" points="876.94,-144.5 821.69,-126.5 876.94,-108.5 932.19,-126.5 876.94,-144.5"/>
<text text-anchor="middle" x="876.94" y="-121.45" font-family="Times,serif" font-size="14.00">temp_0</text>
</g>
<!-- x0 -->
<g id="node5" class="node">
<title>x0</title>
<path fill="none" stroke="black" d="M1131.79,-161C1131.79,-161 1197.29,-161 1197.29,-161 1203.29,-161 1209.29,-167 1209.29,-173 1209.29,-173 1209.29,-198 1209.29,-198 1209.29,-204 1203.29,-210 1197.29,-210 1197.29,-210 1131.79,-210 1131.79,-210 1125.79,-210 1119.79,-204 1119.79,-198 1119.79,-198 1119.79,-173 1119.79,-173 1119.79,-167 1125.79,-161 1131.79,-161"/>
<text text-anchor="middle" x="1164.54" y="-192.7" font-family="Times,serif" font-size="14.00">23:21 &#45; 23:21</text>
<polyline fill="none" stroke="black" points="1119.79,-185.5 1209.29,-185.5"/>
<text text-anchor="middle" x="1164.54" y="-168.2" font-family="Times,serif" font-size="14.00">20:0 &#45; 20:0</text>
</g>
<!-- n7&#45;&gt;x0 -->
<g id="edge41" class="edge">
<title>n7:e&#45;&gt;x0:w</title>
<path fill="none" stroke="black" stroke-width="3" d="M932.19,-126.5C952.19,-126.5 949.67,-145.96 968.19,-153.5 1027.44,-177.61 1049.27,-173.83 1108.32,-173.3"/>
<polygon fill="black" stroke="black" stroke-width="3" points="1105.27,-176.82 1115.25,-173.27 1105.24,-169.82 1105.27,-176.82"/>
</g>
<!-- x1 -->
<g id="node6" class="node">
<title>x1</title>
<path fill="none" stroke="black" d="M1131.79,-93C1131.79,-93 1197.29,-93 1197.29,-93 1203.29,-93 1209.29,-99 1209.29,-105 1209.29,-105 1209.29,-130 1209.29,-130 1209.29,-136 1203.29,-142 1197.29,-142 1197.29,-142 1131.79,-142 1131.79,-142 1125.79,-142 1119.79,-136 1119.79,-130 1119.79,-130 1119.79,-105 1119.79,-105 1119.79,-99 1125.79,-93 1131.79,-93"/>
<text text-anchor="middle" x="1164.54" y="-124.7" font-family="Times,serif" font-size="14.00">23:21 &#45; 23:21</text>
<polyline fill="none" stroke="black" points="1119.79,-117.5 1209.29,-117.5"/>
<text text-anchor="middle" x="1164.54" y="-100.2" font-family="Times,serif" font-size="14.00">20:0 &#45; 20:0</text>
</g>
<!-- n7&#45;&gt;x1 -->
<g id="edge42" class="edge">
<title>n7:e&#45;&gt;x1:w</title>
<path fill="none" stroke="black" stroke-width="3" d="M932.19,-126.5C952.46,-126.5 949.02,-105.08 968.19,-98.5 1028.25,-77.89 1049.81,-102.07 1108.4,-104.97"/>
<polygon fill="black" stroke="black" stroke-width="3" points="1105.17,-108.39 1115.25,-105.14 1105.34,-101.39 1105.17,-108.39"/>
</g>
<!-- x3 -->
<g id="node9" class="node">
<title>x3</title>
<path fill="none" stroke="black" d="M1131.79,-25C1131.79,-25 1197.29,-25 1197.29,-25 1203.29,-25 1209.29,-31 1209.29,-37 1209.29,-37 1209.29,-62 1209.29,-62 1209.29,-68 1203.29,-74 1197.29,-74 1197.29,-74 1131.79,-74 1131.79,-74 1125.79,-74 1119.79,-68 1119.79,-62 1119.79,-62 1119.79,-37 1119.79,-37 1119.79,-31 1125.79,-25 1131.79,-25"/>
<text text-anchor="middle" x="1164.54" y="-56.7" font-family="Times,serif" font-size="14.00">23:21 &#45; 23:21</text>
<polyline fill="none" stroke="black" points="1119.79,-49.5 1209.29,-49.5"/>
<text text-anchor="middle" x="1164.54" y="-32.2" font-family="Times,serif" font-size="14.00">20:0 &#45; 20:0</text>
</g>
<!-- n7&#45;&gt;x3 -->
<g id="edge43" class="edge">
<title>n7:e&#45;&gt;x3:w</title>
<path fill="none" stroke="black" stroke-width="3" d="M932.19,-126.5C956.11,-126.5 948.13,-99.53 968.19,-86.5 1024.35,-50.02 1046.5,-38.5 1108.6,-37.35"/>
<polygon fill="black" stroke="black" stroke-width="3" points="1105.28,-40.88 1115.25,-37.29 1105.22,-33.88 1105.28,-40.88"/>
</g>
<!-- x8 -->
<g id="node16" class="node">
<title>x8</title>
<path fill="none" stroke="black" d="M980.19,-108.5C980.19,-108.5 1032.19,-108.5 1032.19,-108.5 1038.19,-108.5 1044.19,-114.5 1044.19,-120.5 1044.19,-120.5 1044.19,-132.5 1044.19,-132.5 1044.19,-138.5 1038.19,-144.5 1032.19,-144.5 1032.19,-144.5 980.19,-144.5 980.19,-144.5 974.19,-144.5 968.19,-138.5 968.19,-132.5 968.19,-132.5 968.19,-120.5 968.19,-120.5 968.19,-114.5 974.19,-108.5 980.19,-108.5"/>
<text text-anchor="middle" x="1006.19" y="-121.7" font-family="Times,serif" font-size="14.00">20:0 &#45; 20:0</text>
</g>
<!-- n7&#45;&gt;x8 -->
<g id="edge44" class="edge">
<title>n7:e&#45;&gt;x8:w</title>
<path fill="none" stroke="black" stroke-width="3" d="M932.19,-126.5C943.57,-126.5 948.88,-126.5 956.75,-126.5"/>
<polygon fill="black" stroke="black" stroke-width="3" points="953.65,-130 963.65,-126.5 953.65,-123 953.65,-130"/>
</g>
<!-- c11 -->
<g id="node4" class="node">
<title>c11</title>
<polygon fill="none" stroke="black" points="1245.29,-132 1245.29,-181 1339.04,-181 1339.04,-132 1245.29,-132"/>
<text text-anchor="middle" x="1258.17" y="-163.7" font-family="Times,serif" font-size="14.00">A</text>
<polyline fill="none" stroke="black" points="1245.29,-156.5 1271.04,-156.5"/>
<text text-anchor="middle" x="1258.17" y="-139.2" font-family="Times,serif" font-size="14.00">B</text>
<polyline fill="none" stroke="black" points="1271.04,-132 1271.04,-181"/>
<text text-anchor="middle" x="1292.17" y="-159.7" font-family="Times,serif" font-size="14.00">$13</text>
<text text-anchor="middle" x="1292.17" y="-143.2" font-family="Times,serif" font-size="14.00">$add</text>
<polyline fill="none" stroke="black" points="1313.29,-132 1313.29,-181"/>
<text text-anchor="middle" x="1326.17" y="-151.7" font-family="Times,serif" font-size="14.00">Y</text>
</g>
<!-- n1 -->
<g id="node21" class="node">
<title>n1</title>
<ellipse fill="black" stroke="black" cx="1376.84" cy="-156.5" rx="1.8" ry="1.8"/>
</g>
<!-- c11&#45;&gt;n1 -->
<g id="edge10" class="edge">
<title>c11:e&#45;&gt;n1:w</title>
<path fill="none" stroke="black" stroke-width="3" d="M1339.04,-156.75C1350.42,-156.75 1355.73,-156.62 1363.6,-156.55"/>
<polygon fill="black" stroke="black" stroke-width="3" points="1360.52,-160.06 1370.5,-156.52 1360.49,-153.06 1360.52,-160.06"/>
</g>
<!-- x0&#45;&gt;c11 -->
<g id="edge1" class="edge">
<title>x0:e&#45;&gt;c11:w</title>
<path fill="none" stroke="black" stroke-width="3" d="M1221.66,-181.78C1225.76,-179.01 1228.84,-175.23 1232.94,-172.46"/>
<polygon fill="none" stroke="black" stroke-width="3" points="1223.37,-181.27 1218.78,-186.83 1211.88,-184.72 1216.48,-179.16 1223.37,-181.27"/>
<polygon fill="none" stroke="black" stroke-width="3" points="1231.21,-172.98 1235.81,-167.42 1242.7,-169.53 1238.1,-175.08 1231.21,-172.98"/>
</g>
<!-- x1&#45;&gt;c11 -->
<g id="edge2" class="edge">
<title>x1:e&#45;&gt;c11:w</title>
<path fill="none" stroke="black" stroke-width="3" d="M1221.03,-122.16C1225.92,-126.95 1228.45,-134.38 1233.24,-139.28"/>
<polygon fill="none" stroke="black" stroke-width="3" points="1222.96,-122.92 1215.91,-124.43 1211.81,-118.5 1218.86,-116.99 1222.96,-122.92"/>
<polygon fill="none" stroke="black" stroke-width="3" points="1231.7,-138.64 1238.77,-137.23 1242.79,-143.22 1235.72,-144.63 1231.7,-138.64"/>
</g>
<!-- c12 -->
<g id="node7" class="node">
<title>c12</title>
<polygon fill="none" stroke="black" points="1540.14,-82 1540.14,-131 1636.14,-131 1636.14,-82 1540.14,-82"/>
<text text-anchor="middle" x="1553.02" y="-113.7" font-family="Times,serif" font-size="14.00">A</text>
<polyline fill="none" stroke="black" points="1540.14,-106.5 1565.89,-106.5"/>
<text text-anchor="middle" x="1553.02" y="-89.2" font-family="Times,serif" font-size="14.00">B</text>
<polyline fill="none" stroke="black" points="1565.89,-82 1565.89,-131"/>
<text text-anchor="middle" x="1588.14" y="-109.7" font-family="Times,serif" font-size="14.00">$15</text>
<text text-anchor="middle" x="1588.14" y="-93.2" font-family="Times,serif" font-size="14.00">$mul</text>
<polyline fill="none" stroke="black" points="1610.39,-82 1610.39,-131"/>
<text text-anchor="middle" x="1623.27" y="-101.7" font-family="Times,serif" font-size="14.00">Y</text>
</g>
<!-- c12&#45;&gt;n6 -->
<g id="edge39" class="edge">
<title>c12:e&#45;&gt;n6:w</title>
<path fill="none" stroke="black" stroke-width="3" d="M1636.14,-106.75C1647.52,-106.75 1652.83,-106.62 1660.7,-106.55"/>
<polygon fill="black" stroke="black" stroke-width="3" points="1657.62,-110.06 1667.6,-106.52 1657.59,-103.06 1657.62,-110.06"/>
</g>
<!-- x2 -->
<g id="node8" class="node">
<title>x2</title>
<path fill="none" stroke="black" d="M1426.64,-77.75C1426.64,-77.75 1492.14,-77.75 1492.14,-77.75 1498.14,-77.75 1504.14,-83.75 1504.14,-89.75 1504.14,-89.75 1504.14,-237.25 1504.14,-237.25 1504.14,-243.25 1498.14,-249.25 1492.14,-249.25 1492.14,-249.25 1426.64,-249.25 1426.64,-249.25 1420.64,-249.25 1414.64,-243.25 1414.64,-237.25 1414.64,-237.25 1414.64,-89.75 1414.64,-89.75 1414.64,-83.75 1420.64,-77.75 1426.64,-77.75"/>
<text text-anchor="middle" x="1459.39" y="-231.95" font-family="Times,serif" font-size="14.00">24:18 &#45; 24:18</text>
<polyline fill="none" stroke="black" points="1414.64,-224.75 1504.14,-224.75"/>
<text text-anchor="middle" x="1459.39" y="-207.45" font-family="Times,serif" font-size="14.00">1 &#45;&gt; 17:13</text>
<polyline fill="none" stroke="black" points="1414.64,-200.25 1504.14,-200.25"/>
<text text-anchor="middle" x="1459.39" y="-182.95" font-family="Times,serif" font-size="14.00">12:12 &#45; 12:12</text>
<polyline fill="none" stroke="black" points="1414.64,-175.75 1504.14,-175.75"/>
<text text-anchor="middle" x="1459.39" y="-158.45" font-family="Times,serif" font-size="14.00">1 &#45;&gt; 11:8</text>
<polyline fill="none" stroke="black" points="1414.64,-151.25 1504.14,-151.25"/>
<text text-anchor="middle" x="1459.39" y="-133.95" font-family="Times,serif" font-size="14.00">7:3 &#45; 7:3</text>
<polyline fill="none" stroke="black" points="1414.64,-126.75 1504.14,-126.75"/>
<text text-anchor="middle" x="1459.39" y="-109.45" font-family="Times,serif" font-size="14.00">1 &#45;&gt; 2:1</text>
<polyline fill="none" stroke="black" points="1414.64,-102.25 1504.14,-102.25"/>
<text text-anchor="middle" x="1459.39" y="-84.95" font-family="Times,serif" font-size="14.00">0:0 &#45; 0:0</text>
</g>
<!-- x2&#45;&gt;c12 -->
<g id="edge3" class="edge">
<title>x2:e&#45;&gt;c12:w</title>
<path fill="none" stroke="black" stroke-width="3" d="M1515.92,-158.01C1522.46,-149.42 1521.81,-132.9 1528.33,-124.28"/>
<polygon fill="none" stroke="black" stroke-width="3" points="1517.47,-157.29 1513.72,-163.45 1506.59,-162.36 1510.34,-156.2 1517.47,-157.29"/>
<polygon fill="none" stroke="black" stroke-width="3" points="1526.83,-124.99 1530.56,-118.82 1537.69,-119.9 1533.96,-126.06 1526.83,-124.99"/>
</g>
<!-- x3&#45;&gt;c12 -->
<g id="edge4" class="edge">
<title>x3:e&#45;&gt;c12:w</title>
<path fill="none" stroke="black" stroke-width="3" d="M1222.08,-49.42C1343.35,-47.91 1384.57,-25.85 1504.14,-68.5 1517.46,-73.25 1520.07,-84.47 1527.79,-90.41"/>
<polygon fill="none" stroke="black" stroke-width="3" points="1224,-49.41 1218.02,-53.45 1212,-49.48 1217.97,-45.45 1224,-49.41"/>
<polygon fill="none" stroke="black" stroke-width="3" points="1526.1,-89.89 1533.02,-87.85 1537.56,-93.45 1530.64,-95.49 1526.1,-89.89"/>
</g>
<!-- v4 -->
<g id="node10" class="node">
<title>v4</title>
<ellipse fill="none" stroke="black" cx="53.92" cy="-277.5" rx="30.88" ry="18"/>
<text text-anchor="middle" x="53.92" y="-272.45" font-family="Times,serif" font-size="14.00">3&#39;000</text>
</g>
<!-- v4&#45;&gt;c13 -->
<g id="edge45" class="edge">
<title>v4:e&#45;&gt;c13:w</title>
<path fill="none" stroke="black" stroke-width="3" d="M86.09,-277.5C107.55,-277.5 115.55,-277.67 132.59,-277.73"/>
<polygon fill="black" stroke="black" stroke-width="3" points="129.29,-281.23 139.3,-277.74 129.31,-274.23 129.29,-281.23"/>
</g>
<!-- x5 -->
<g id="node12" class="node">
<title>x5</title>
<path fill="none" stroke="black" d="M284.84,-390.75C284.84,-390.75 336.84,-390.75 336.84,-390.75 342.84,-390.75 348.84,-396.75 348.84,-402.75 348.84,-402.75 348.84,-452.25 348.84,-452.25 348.84,-458.25 342.84,-464.25 336.84,-464.25 336.84,-464.25 284.84,-464.25 284.84,-464.25 278.84,-464.25 272.84,-458.25 272.84,-452.25 272.84,-452.25 272.84,-402.75 272.84,-402.75 272.84,-396.75 278.84,-390.75 284.84,-390.75"/>
<text text-anchor="middle" x="310.84" y="-446.95" font-family="Times,serif" font-size="14.00">3:3 &#45; 23:23</text>
<polyline fill="none" stroke="black" points="272.84,-439.75 348.84,-439.75"/>
<text text-anchor="middle" x="310.84" y="-422.45" font-family="Times,serif" font-size="14.00">2:2 &#45; 2:2</text>
<polyline fill="none" stroke="black" points="272.84,-415.25 348.84,-415.25"/>
<text text-anchor="middle" x="310.84" y="-397.95" font-family="Times,serif" font-size="14.00">1:0 &#45; 1:0</text>
</g>
<!-- c13&#45;&gt;x5 -->
<g id="edge5" class="edge">
<title>c13:e&#45;&gt;x5:w</title>
<path fill="none" stroke="black" stroke-width="3" d="M249.47,-267.91C292.67,-285.68 217.11,-407.33 260.09,-425.29"/>
<polygon fill="none" stroke="black" stroke-width="3" points="251.33,-268.23 244.74,-271.16 239.51,-266.21 246.1,-263.28 251.33,-268.23"/>
<polygon fill="none" stroke="black" stroke-width="3" points="258.35,-424.98 264.95,-422.07 270.18,-427.04 263.58,-429.95 258.35,-424.98"/>
</g>
<!-- n2 -->
<g id="node22" class="node">
<title>n2</title>
<ellipse fill="black" stroke="black" cx="386.64" cy="-427.5" rx="1.8" ry="1.8"/>
</g>
<!-- x5&#45;&gt;n2 -->
<g id="edge16" class="edge">
<title>x5:e&#45;&gt;n2:w</title>
<path fill="none" stroke="black" stroke-width="3" d="M348.84,-403C363.51,-403 365.5,-417.07 374.03,-423.88"/>
<polygon fill="black" stroke="black" stroke-width="3" points="369.94,-426.21 380.53,-426.06 372.16,-419.57 369.94,-426.21"/>
</g>
<!-- x5&#45;&gt;n2 -->
<g id="edge17" class="edge">
<title>x5:e&#45;&gt;n2:w</title>
<path fill="none" stroke="black" d="M348.84,-452C363.51,-452 365.5,-437.93 374.03,-431.12"/>
<polygon fill="black" stroke="black" points="375.03,-434.47 383.41,-427.98 372.81,-427.83 375.03,-434.47"/>
</g>
<!-- n4 -->
<g id="node24" class="node">
<title>n4</title>
<polygon fill="none" stroke="black" points="740.94,-674.5 696.55,-656.5 740.94,-638.5 785.33,-656.5 740.94,-674.5"/>
<text text-anchor="middle" x="740.94" y="-651.45" font-family="Times,serif" font-size="14.00">$2_Y</text>
</g>
<!-- x5&#45;&gt;n4 -->
<g id="edge36" class="edge">
<title>x5:e&#45;&gt;n4:w</title>
<path fill="none" stroke="black" d="M348.84,-427.5C407.09,-427.5 377.69,-643.75 424.44,-678.5 508.54,-741 559.33,-706.88 660.19,-678.5 673.73,-674.69 676.66,-664.22 685.19,-659.22"/>
<polygon fill="black" stroke="black" points="685.86,-662.67 694.72,-656.86 684.17,-655.87 685.86,-662.67"/>
</g>
<!-- x7 -->
<g id="node15" class="node">
<title>x7</title>
<path fill="none" stroke="black" d="M708.19,-144C708.19,-144 773.69,-144 773.69,-144 779.69,-144 785.69,-150 785.69,-156 785.69,-156 785.69,-181 785.69,-181 785.69,-187 779.69,-193 773.69,-193 773.69,-193 708.19,-193 708.19,-193 702.19,-193 696.19,-187 696.19,-181 696.19,-181 696.19,-156 696.19,-156 696.19,-150 702.19,-144 708.19,-144"/>
<text text-anchor="middle" x="740.94" y="-175.7" font-family="Times,serif" font-size="14.00">23:21 &#45; 23:21</text>
<polyline fill="none" stroke="black" points="696.19,-168.5 785.69,-168.5"/>
<text text-anchor="middle" x="740.94" y="-151.2" font-family="Times,serif" font-size="14.00">20:0 &#45; 20:0</text>
</g>
<!-- c14&#45;&gt;x7 -->
<g id="edge7" class="edge">
<title>c14:e&#45;&gt;x7:w</title>
<path fill="none" stroke="black" stroke-width="3" d="M672.91,-168.69C676.51,-168.65 679.64,-168.6 683.22,-168.57"/>
<polygon fill="none" stroke="black" stroke-width="3" points="674.89,-168.68 668.91,-172.71 662.9,-168.74 668.88,-164.71 674.89,-168.68"/>
<polygon fill="none" stroke="black" stroke-width="3" points="681.49,-168.57 687.47,-164.54 693.49,-168.51 687.51,-172.54 681.49,-168.57"/>
</g>
<!-- x6 -->
<g id="node14" class="node">
<title>x6</title>
<path fill="none" stroke="black" d="M436.44,-127.25C436.44,-127.25 519.19,-127.25 519.19,-127.25 525.19,-127.25 531.19,-133.25 531.19,-139.25 531.19,-139.25 531.19,-335.75 531.19,-335.75 531.19,-341.75 525.19,-347.75 519.19,-347.75 519.19,-347.75 436.44,-347.75 436.44,-347.75 430.44,-347.75 424.44,-341.75 424.44,-335.75 424.44,-335.75 424.44,-139.25 424.44,-139.25 424.44,-133.25 430.44,-127.25 436.44,-127.25"/>
<text text-anchor="middle" x="477.82" y="-330.45" font-family="Times,serif" font-size="14.00">2x 23:23 &#45; 23:22</text>
<polyline fill="none" stroke="black" points="424.44,-323.25 531.19,-323.25"/>
<text text-anchor="middle" x="477.82" y="-305.95" font-family="Times,serif" font-size="14.00">1 &#45;&gt; 21:20</text>
<polyline fill="none" stroke="black" points="424.44,-298.75 531.19,-298.75"/>
<text text-anchor="middle" x="477.82" y="-281.45" font-family="Times,serif" font-size="14.00">23:23 &#45; 19:19</text>
<polyline fill="none" stroke="black" points="424.44,-274.25 531.19,-274.25"/>
<text text-anchor="middle" x="477.82" y="-256.95" font-family="Times,serif" font-size="14.00">1 &#45;&gt; 18:18</text>
<polyline fill="none" stroke="black" points="424.44,-249.75 531.19,-249.75"/>
<text text-anchor="middle" x="477.82" y="-232.45" font-family="Times,serif" font-size="14.00">6x 23:23 &#45; 17:12</text>
<polyline fill="none" stroke="black" points="424.44,-225.25 531.19,-225.25"/>
<text text-anchor="middle" x="477.82" y="-207.95" font-family="Times,serif" font-size="14.00">1 &#45;&gt; 11:9</text>
<polyline fill="none" stroke="black" points="424.44,-200.75 531.19,-200.75"/>
<text text-anchor="middle" x="477.82" y="-183.45" font-family="Times,serif" font-size="14.00">6x 23:23 &#45; 8:3</text>
<polyline fill="none" stroke="black" points="424.44,-176.25 531.19,-176.25"/>
<text text-anchor="middle" x="477.82" y="-158.95" font-family="Times,serif" font-size="14.00">1 &#45;&gt; 2:2</text>
<polyline fill="none" stroke="black" points="424.44,-151.75 531.19,-151.75"/>
<text text-anchor="middle" x="477.82" y="-134.45" font-family="Times,serif" font-size="14.00">1:0 &#45; 1:0</text>
</g>
<!-- x6&#45;&gt;c14 -->
<g id="edge6" class="edge">
<title>x6:e&#45;&gt;c14:w</title>
<path fill="none" stroke="black" stroke-width="3" d="M543.05,-232.26C551.55,-221.4 546.83,-196.52 555.48,-185.81"/>
<polygon fill="none" stroke="black" stroke-width="3" points="544.64,-231.56 540.77,-237.64 533.66,-236.41 537.54,-230.32 544.64,-231.56"/>
<polygon fill="none" stroke="black" stroke-width="3" points="553.69,-186.58 557.61,-180.53 564.71,-181.82 560.79,-187.87 553.69,-186.58"/>
</g>
<!-- x7&#45;&gt;n7 -->
<g id="edge40" class="edge">
<title>x7:e&#45;&gt;n7:w</title>
<path fill="none" stroke="black" stroke-width="3" d="M785.69,-156.25C801.74,-156.25 802.08,-138.45 811.02,-130.39"/>
<polygon fill="black" stroke="black" stroke-width="3" points="809.23,-134.77 817.42,-128.05 806.83,-128.19 809.23,-134.77"/>
</g>
<!-- n3 -->
<g id="node23" class="node">
<title>n3</title>
<ellipse fill="black" stroke="black" cx="1081.99" cy="-129.5" rx="1.8" ry="1.8"/>
</g>
<!-- x7&#45;&gt;n3 -->
<g id="edge29" class="edge">
<title>x7:e&#45;&gt;n3:w</title>
<path fill="none" stroke="black" stroke-width="3" d="M785.69,-180.75C901.22,-180.75 935.53,-192.74 1044.19,-153.5 1057.9,-148.55 1060.46,-137.32 1069.27,-132.17"/>
<polygon fill="black" stroke="black" stroke-width="3" points="1066.9,-136.35 1075.78,-130.58 1065.24,-129.55 1066.9,-136.35"/>
</g>
<!-- x8&#45;&gt;n3 -->
<g id="edge30" class="edge">
<title>x8:e&#45;&gt;n3:w</title>
<path fill="none" stroke="black" stroke-width="3" d="M1044.19,-126.75C1055.6,-126.75 1060.87,-128.14 1068.73,-128.94"/>
<polygon fill="black" stroke="black" stroke-width="3" points="1065.5,-132.29 1075.66,-129.28 1065.84,-125.3 1065.5,-132.29"/>
</g>
<!-- x9 -->
<g id="node17" class="node">
<title>x9</title>
<path fill="none" stroke="black" d="M436.44,-620C436.44,-620 519.19,-620 519.19,-620 525.19,-620 531.19,-626 531.19,-632 531.19,-632 531.19,-657 531.19,-657 531.19,-663 525.19,-669 519.19,-669 519.19,-669 436.44,-669 436.44,-669 430.44,-669 424.44,-663 424.44,-657 424.44,-657 424.44,-632 424.44,-632 424.44,-626 430.44,-620 436.44,-620"/>
<text text-anchor="middle" x="477.82" y="-651.7" font-family="Times,serif" font-size="14.00">21x 23:23 &#45; 22:2</text>
<polyline fill="none" stroke="black" points="424.44,-644.5 531.19,-644.5"/>
<text text-anchor="middle" x="477.82" y="-627.2" font-family="Times,serif" font-size="14.00">1:0 &#45; 1:0</text>
</g>
<!-- x10 -->
<g id="node18" class="node">
<title>x10</title>
<path fill="none" stroke="black" d="M587.69,-620C587.69,-620 639.69,-620 639.69,-620 645.69,-620 651.69,-626 651.69,-632 651.69,-632 651.69,-657 651.69,-657 651.69,-663 645.69,-669 639.69,-669 639.69,-669 587.69,-669 587.69,-669 581.69,-669 575.69,-663 575.69,-657 575.69,-657 575.69,-632 575.69,-632 575.69,-626 581.69,-620 587.69,-620"/>
<text text-anchor="middle" x="613.69" y="-651.7" font-family="Times,serif" font-size="14.00">22:2 &#45; 23:3</text>
<polyline fill="none" stroke="black" points="575.69,-644.5 651.69,-644.5"/>
<text text-anchor="middle" x="613.69" y="-627.2" font-family="Times,serif" font-size="14.00">1:0 &#45; 1:0</text>
</g>
<!-- x9&#45;&gt;x10 -->
<g id="edge8" class="edge">
<title>x9:e&#45;&gt;x10:w</title>
<path fill="none" stroke="black" stroke-width="3" d="M544.07,-644.5C550.51,-644.5 555.44,-644.5 561.88,-644.5"/>
<polygon fill="none" stroke="black" stroke-width="3" points="545.9,-644.5 539.9,-648.5 533.9,-644.5 539.9,-640.5 545.9,-644.5"/>
<polygon fill="none" stroke="black" stroke-width="3" points="559.99,-644.5 565.99,-640.5 571.99,-644.5 565.99,-648.5 559.99,-644.5"/>
</g>
<!-- x10&#45;&gt;n4 -->
<g id="edge34" class="edge">
<title>x10:e&#45;&gt;n4:w</title>
<path fill="none" stroke="black" stroke-width="3" d="M652.69,-632.25C670.33,-632.25 673.42,-647.65 685.15,-653.9"/>
<polygon fill="black" stroke="black" stroke-width="3" points="681.24,-656.58 691.77,-655.46 682.84,-649.76 681.24,-656.58"/>
</g>
<!-- x10&#45;&gt;n4 -->
<g id="edge35" class="edge">
<title>x10:e&#45;&gt;n4:w</title>
<path fill="none" stroke="black" stroke-width="3" d="M652.69,-656.75C667.64,-656.75 673.92,-656.6 684.95,-656.53"/>
<polygon fill="black" stroke="black" stroke-width="3" points="681.66,-660.04 691.65,-656.51 681.64,-653.04 681.66,-660.04"/>
</g>
<!-- x11 -->
<g id="node19" class="node">
<title>x11</title>
<path fill="none" stroke="black" d="M436.44,-366.5C436.44,-366.5 519.19,-366.5 519.19,-366.5 525.19,-366.5 531.19,-372.5 531.19,-378.5 531.19,-378.5 531.19,-550.5 531.19,-550.5 531.19,-556.5 525.19,-562.5 519.19,-562.5 519.19,-562.5 436.44,-562.5 436.44,-562.5 430.44,-562.5 424.44,-556.5 424.44,-550.5 424.44,-550.5 424.44,-378.5 424.44,-378.5 424.44,-372.5 430.44,-366.5 436.44,-366.5"/>
<text text-anchor="middle" x="477.82" y="-545.2" font-family="Times,serif" font-size="14.00">23:23 &#45; 20:20</text>
<polyline fill="none" stroke="black" points="424.44,-538 531.19,-538"/>
<text text-anchor="middle" x="477.82" y="-520.7" font-family="Times,serif" font-size="14.00">1 &#45;&gt; 19:18</text>
<polyline fill="none" stroke="black" points="424.44,-513.5 531.19,-513.5"/>
<text text-anchor="middle" x="477.82" y="-496.2" font-family="Times,serif" font-size="14.00">23:23 &#45; 17:17</text>
<polyline fill="none" stroke="black" points="424.44,-489 531.19,-489"/>
<text text-anchor="middle" x="477.82" y="-471.7" font-family="Times,serif" font-size="14.00">1 &#45;&gt; 16:16</text>
<polyline fill="none" stroke="black" points="424.44,-464.5 531.19,-464.5"/>
<text text-anchor="middle" x="477.82" y="-447.2" font-family="Times,serif" font-size="14.00">6x 23:23 &#45; 15:10</text>
<polyline fill="none" stroke="black" points="424.44,-440 531.19,-440"/>
<text text-anchor="middle" x="477.82" y="-422.7" font-family="Times,serif" font-size="14.00">1 &#45;&gt; 9:7</text>
<polyline fill="none" stroke="black" points="424.44,-415.5 531.19,-415.5"/>
<text text-anchor="middle" x="477.82" y="-398.2" font-family="Times,serif" font-size="14.00">6x 23:23 &#45; 6:1</text>
<polyline fill="none" stroke="black" points="424.44,-391 531.19,-391"/>
<text text-anchor="middle" x="477.82" y="-373.7" font-family="Times,serif" font-size="14.00">1 &#45;&gt; 0:0</text>
</g>
<!-- x12 -->
<g id="node20" class="node">
<title>x12</title>
<path fill="none" stroke="black" d="M587.69,-505.5C587.69,-505.5 639.69,-505.5 639.69,-505.5 645.69,-505.5 651.69,-511.5 651.69,-517.5 651.69,-517.5 651.69,-529.5 651.69,-529.5 651.69,-535.5 645.69,-541.5 639.69,-541.5 639.69,-541.5 587.69,-541.5 587.69,-541.5 581.69,-541.5 575.69,-535.5 575.69,-529.5 575.69,-529.5 575.69,-517.5 575.69,-517.5 575.69,-511.5 581.69,-505.5 587.69,-505.5"/>
<text text-anchor="middle" x="613.69" y="-518.7" font-family="Times,serif" font-size="14.00">20:0 &#45; 22:2</text>
</g>
<!-- x11&#45;&gt;x12 -->
<g id="edge9" class="edge">
<title>x11:e&#45;&gt;x12:w</title>
<path fill="none" stroke="black" stroke-width="3" d="M543.33,-468.74C555.23,-479.63 550.65,-508.45 562.6,-519.3"/>
<polygon fill="none" stroke="black" stroke-width="3" points="545.07,-469.35 538.09,-471.15 533.74,-465.39 540.73,-463.6 545.07,-469.35"/>
<polygon fill="none" stroke="black" stroke-width="3" points="560.8,-518.67 567.78,-516.86 572.14,-522.61 565.16,-524.42 560.8,-518.67"/>
</g>
<!-- x12&#45;&gt;n2 -->
<g id="edge15" class="edge">
<title>x12:e&#45;&gt;n2:w</title>
<path fill="none" stroke="black" stroke-width="3" d="M652.69,-523.75C660.81,-523.75 656.85,-535.73 651.69,-542 619.3,-581.34 465.08,-603.23 424.44,-572.5 401.38,-555.06 362.56,-459.67 373.93,-433.91"/>
<polygon fill="black" stroke="black" stroke-width="3" points="373.3,-438.57 379.61,-430.05 369.37,-432.78 373.3,-438.57"/>
</g>
<!-- n1&#45;&gt;x2 -->
<g id="edge11" class="edge">
<title>n1:e&#45;&gt;x2:w</title>
<path fill="none" stroke="black" d="M1378.64,-156.5C1407.52,-156.5 1388.53,-107.39 1403.95,-93.58"/>
<polygon fill="black" stroke="black" points="1404.83,-96.97 1413.21,-90.48 1402.61,-90.33 1404.83,-96.97"/>
</g>
<!-- n1&#45;&gt;x2 -->
<g id="edge12" class="edge">
<title>n1:e&#45;&gt;x2:w</title>
<path fill="none" stroke="black" stroke-width="3" d="M1378.64,-156.5C1391.85,-156.5 1395.48,-146.86 1403.75,-141.89"/>
<polygon fill="black" stroke="black" stroke-width="3" points="1401.49,-146.11 1410.25,-140.16 1399.69,-139.35 1401.49,-146.11"/>
</g>
<!-- n1&#45;&gt;x2 -->
<g id="edge13" class="edge">
<title>n1:e&#45;&gt;x2:w</title>
<path fill="none" stroke="black" d="M1378.64,-156.5C1395.25,-156.5 1394.91,-175.73 1404.1,-184.14"/>
<polygon fill="black" stroke="black" points="1402.63,-187.33 1413.22,-187.48 1405.03,-180.75 1402.63,-187.33"/>
</g>
<!-- n1&#45;&gt;x2 -->
<g id="edge14" class="edge">
<title>n1:e&#45;&gt;x2:w</title>
<path fill="none" stroke="black" stroke-width="3" d="M1378.64,-156.5C1413.09,-156.5 1384.52,-218.68 1403.7,-233.74"/>
<polygon fill="black" stroke="black" stroke-width="3" points="1399.71,-236.21 1410.29,-235.7 1401.7,-229.5 1399.71,-236.21"/>
</g>
<!-- n2&#45;&gt;x6 -->
<g id="edge22" class="edge">
<title>n2:e&#45;&gt;x6:w</title>
<path fill="none" stroke="black" stroke-width="3" d="M388.44,-427.5C448.66,-427.5 371.6,-176.48 413.58,-143.14"/>
<polygon fill="black" stroke="black" stroke-width="3" points="411.77,-147.44 420.14,-140.94 409.54,-140.81 411.77,-147.44"/>
</g>
<!-- n2&#45;&gt;x6 -->
<g id="edge23" class="edge">
<title>n2:e&#45;&gt;x6:w</title>
<path fill="none" stroke="black" stroke-width="3" d="M388.44,-427.5C470.19,-427.5 351.24,-255.6 413.39,-238.81"/>
<polygon fill="black" stroke="black" stroke-width="3" points="410.42,-242.69 419.93,-238.04 409.59,-235.74 410.42,-242.69"/>
</g>
<!-- n2&#45;&gt;x6 -->
<g id="edge24" class="edge">
<title>n2:e&#45;&gt;x6:w</title>
<path fill="none" stroke="black" d="M388.44,-427.5C448.7,-427.5 371.79,-305.12 413.29,-288.39"/>
<polygon fill="black" stroke="black" points="413.67,-291.87 422.95,-286.75 412.5,-284.97 413.67,-291.87"/>
</g>
<!-- n2&#45;&gt;x6 -->
<g id="edge25" class="edge">
<title>n2:e&#45;&gt;x6:w</title>
<path fill="none" stroke="black" stroke-width="3" d="M388.44,-427.5C427.72,-427.5 390.4,-353.88 413.52,-338.35"/>
<polygon fill="black" stroke="black" stroke-width="3" points="411.26,-342.56 420.05,-336.65 409.49,-335.79 411.26,-342.56"/>
</g>
<!-- n2&#45;&gt;x6 -->
<g id="edge26" class="edge">
<title>n2:e&#45;&gt;x6:w</title>
<path fill="none" stroke="black" stroke-width="3" d="M388.44,-427.5C491.67,-427.5 330.56,-206.81 413.13,-189.57"/>
<polygon fill="black" stroke="black" stroke-width="3" points="410.29,-193.35 419.92,-188.93 409.64,-186.38 410.29,-193.35"/>
</g>
<!-- n2&#45;&gt;x9 -->
<g id="edge27" class="edge">
<title>n2:e&#45;&gt;x9:w</title>
<path fill="none" stroke="black" stroke-width="3" d="M388.44,-427.5C476.69,-427.5 344.93,-614.27 413.41,-631.05"/>
<polygon fill="black" stroke="black" stroke-width="3" points="409.61,-634.15 419.93,-631.76 410.36,-627.2 409.61,-634.15"/>
</g>
<!-- n2&#45;&gt;x9 -->
<g id="edge28" class="edge">
<title>n2:e&#45;&gt;x9:w</title>
<path fill="none" stroke="black" stroke-width="3" d="M388.44,-427.5C487.35,-427.5 334.81,-638.33 413.09,-655.62"/>
<polygon fill="black" stroke="black" stroke-width="3" points="409.63,-658.8 419.92,-656.3 410.32,-651.83 409.63,-658.8"/>
</g>
<!-- n2&#45;&gt;x11 -->
<g id="edge18" class="edge">
<title>n2:e&#45;&gt;x11:w</title>
<path fill="none" stroke="black" stroke-width="3" d="M388.44,-427.5C403.15,-427.5 405.09,-441.71 413.62,-448.6"/>
<polygon fill="black" stroke="black" stroke-width="3" points="409.54,-450.92 420.14,-450.8 411.78,-444.29 409.54,-450.92"/>
</g>
<!-- n2&#45;&gt;x11 -->
<g id="edge19" class="edge">
<title>n2:e&#45;&gt;x11:w</title>
<path fill="none" stroke="black" d="M388.44,-427.5C420.36,-427.5 396.06,-483.96 413.92,-498.08"/>
<polygon fill="black" stroke="black" points="412.41,-501.28 422.99,-500.81 414.43,-494.58 412.41,-501.28"/>
</g>
<!-- n2&#45;&gt;x11 -->
<g id="edge20" class="edge">
<title>n2:e&#45;&gt;x11:w</title>
<path fill="none" stroke="black" d="M388.44,-427.5C440.85,-427.5 378.91,-531.82 413.45,-548.12"/>
<polygon fill="black" stroke="black" points="412.47,-551.49 422.96,-549.96 413.8,-544.62 412.47,-551.49"/>
</g>
<!-- n2&#45;&gt;x11 -->
<g id="edge21" class="edge">
<title>n2:e&#45;&gt;x11:w</title>
<path fill="none" stroke="black" stroke-width="3" d="M388.44,-427.5C403.06,-427.5 405.12,-413.57 413.65,-406.83"/>
<polygon fill="black" stroke="black" stroke-width="3" points="411.74,-411.15 420.13,-404.68 409.54,-404.51 411.74,-411.15"/>
</g>
<!-- n3&#45;&gt;x0 -->
<g id="edge31" class="edge">
<title>n3:e&#45;&gt;x0:w</title>
<path fill="none" stroke="black" stroke-width="3" d="M1083.79,-129.5C1113.26,-129.5 1093.34,-179.9 1108.92,-194.08"/>
<polygon fill="black" stroke="black" stroke-width="3" points="1104.9,-196.42 1115.49,-196.3 1107.13,-189.78 1104.9,-196.42"/>
</g>
<!-- n3&#45;&gt;x1 -->
<g id="edge32" class="edge">
<title>n3:e&#45;&gt;x1:w</title>
<path fill="none" stroke="black" stroke-width="3" d="M1083.79,-129.5C1095.17,-129.5 1100.48,-129.63 1108.35,-129.7"/>
<polygon fill="black" stroke="black" stroke-width="3" points="1105.24,-133.19 1115.25,-129.73 1105.27,-126.19 1105.24,-133.19"/>
</g>
<!-- n3&#45;&gt;x3 -->
<g id="edge33" class="edge">
<title>n3:e&#45;&gt;x3:w</title>
<path fill="none" stroke="black" stroke-width="3" d="M1083.79,-129.5C1113.09,-129.5 1093.44,-79.46 1108.97,-65.39"/>
<polygon fill="black" stroke="black" stroke-width="3" points="1107.13,-69.71 1115.49,-63.2 1104.89,-63.07 1107.13,-69.71"/>
</g>
</g>
</svg>
