<?xml version="1.0" encoding="UTF-8" standalone="no"?>
<!DOCTYPE svg PUBLIC "-//W3C//DTD SVG 1.1//EN"
 "http://www.w3.org/Graphics/SVG/1.1/DTD/svg11.dtd">
<!-- Generated by graphviz version 12.2.1 (20241206.2353)
 -->
<!-- Title: top Pages: 1 -->
<svg width="1419pt" height="329pt"
 viewBox="0.00 0.00 1419.35 329.00" xmlns="http://www.w3.org/2000/svg" xmlns:xlink="http://www.w3.org/1999/xlink">
<g id="graph0" class="graph" transform="scale(1 1) rotate(0) translate(4 325)">
<title>top</title>
<polygon fill="white" stroke="none" points="-4,4 -4,-325 1415.35,-325 1415.35,4 -4,4"/>
<text text-anchor="middle" x="705.68" y="-7.2" font-family="Times,serif" font-size="14.00">top</text>
<!-- n5 -->
<g id="node1" class="node">
<title>n5</title>
<polygon fill="none" stroke="black" points="107.84,-174.04 107.84,-188.96 76.26,-199.5 31.59,-199.5 0,-188.96 0,-174.04 31.59,-163.5 76.26,-163.5 107.84,-174.04"/>
<text text-anchor="middle" x="53.92" y="-176.45" font-family="Times,serif" font-size="14.00">input_data</text>
</g>
<!-- x0 -->
<g id="node4" class="node">
<title>x0</title>
<path fill="none" stroke="black" d="M269.97,-149.5C269.97,-149.5 308.47,-149.5 308.47,-149.5 314.47,-149.5 320.47,-155.5 320.47,-161.5 320.47,-161.5 320.47,-173.5 320.47,-173.5 320.47,-179.5 314.47,-185.5 308.47,-185.5 308.47,-185.5 269.97,-185.5 269.97,-185.5 263.97,-185.5 257.97,-179.5 257.97,-173.5 257.97,-173.5 257.97,-161.5 257.97,-161.5 257.97,-155.5 263.97,-149.5 269.97,-149.5"/>
<text text-anchor="middle" x="289.22" y="-162.7" font-family="Times,serif" font-size="14.00">5:3 &#45; 2:0</text>
</g>
<!-- n5&#45;&gt;x0 -->
<g id="edge12" class="edge">
<title>n5:e&#45;&gt;x0:w</title>
<path fill="none" stroke="black" stroke-width="3" d="M107.84,-181.5C170.5,-181.5 188.36,-169.31 245.77,-167.89"/>
<polygon fill="black" stroke="black" stroke-width="3" points="242.47,-171.43 252.43,-167.81 242.38,-164.43 242.47,-171.43"/>
</g>
<!-- x1 -->
<g id="node6" class="node">
<title>x1</title>
<path fill="none" stroke="black" d="M529.47,-102.5C529.47,-102.5 567.97,-102.5 567.97,-102.5 573.97,-102.5 579.97,-108.5 579.97,-114.5 579.97,-114.5 579.97,-126.5 579.97,-126.5 579.97,-132.5 573.97,-138.5 567.97,-138.5 567.97,-138.5 529.47,-138.5 529.47,-138.5 523.47,-138.5 517.47,-132.5 517.47,-126.5 517.47,-126.5 517.47,-114.5 517.47,-114.5 517.47,-108.5 523.47,-102.5 529.47,-102.5"/>
<text text-anchor="middle" x="548.72" y="-115.7" font-family="Times,serif" font-size="14.00">9:7 &#45; 2:0</text>
</g>
<!-- n5&#45;&gt;x1 -->
<g id="edge13" class="edge">
<title>n5:e&#45;&gt;x1:w</title>
<path fill="none" stroke="black" stroke-width="3" d="M107.84,-181.5C125.01,-181.5 127.54,-172.89 143.84,-167.5 186.94,-153.25 197.6,-148.17 242.34,-140.5 358.97,-120.51 392.26,-120.72 505.27,-120.75"/>
<polygon fill="black" stroke="black" stroke-width="3" points="501.92,-124.25 511.93,-120.75 501.93,-117.25 501.92,-124.25"/>
</g>
<!-- x2 -->
<g id="node8" class="node">
<title>x2</title>
<path fill="none" stroke="black" d="M155.84,-284.5C155.84,-284.5 194.34,-284.5 194.34,-284.5 200.34,-284.5 206.34,-290.5 206.34,-296.5 206.34,-296.5 206.34,-308.5 206.34,-308.5 206.34,-314.5 200.34,-320.5 194.34,-320.5 194.34,-320.5 155.84,-320.5 155.84,-320.5 149.84,-320.5 143.84,-314.5 143.84,-308.5 143.84,-308.5 143.84,-296.5 143.84,-296.5 143.84,-290.5 149.84,-284.5 155.84,-284.5"/>
<text text-anchor="middle" x="175.09" y="-297.7" font-family="Times,serif" font-size="14.00">2:0 &#45; 2:0</text>
</g>
<!-- n5&#45;&gt;x2 -->
<g id="edge14" class="edge">
<title>n5:e&#45;&gt;x2:w</title>
<path fill="none" stroke="black" stroke-width="3" d="M107.84,-181.5C159.66,-181.5 98.76,-284.54 132.97,-300.65"/>
<polygon fill="black" stroke="black" stroke-width="3" points="128.9,-303.42 139.38,-301.89 130.23,-296.55 128.9,-303.42"/>
</g>
<!-- x3 -->
<g id="node9" class="node">
<title>x3</title>
<path fill="none" stroke="black" d="M155.84,-229.5C155.84,-229.5 194.34,-229.5 194.34,-229.5 200.34,-229.5 206.34,-235.5 206.34,-241.5 206.34,-241.5 206.34,-253.5 206.34,-253.5 206.34,-259.5 200.34,-265.5 194.34,-265.5 194.34,-265.5 155.84,-265.5 155.84,-265.5 149.84,-265.5 143.84,-259.5 143.84,-253.5 143.84,-253.5 143.84,-241.5 143.84,-241.5 143.84,-235.5 149.84,-229.5 155.84,-229.5"/>
<text text-anchor="middle" x="175.09" y="-242.7" font-family="Times,serif" font-size="14.00">2:0 &#45; 2:0</text>
</g>
<!-- n5&#45;&gt;x3 -->
<g id="edge15" class="edge">
<title>n5:e&#45;&gt;x3:w</title>
<path fill="none" stroke="black" stroke-width="3" d="M107.84,-181.5C136.64,-181.5 117.78,-230.43 133.17,-244.19"/>
<polygon fill="black" stroke="black" stroke-width="3" points="128.94,-246.46 139.53,-246.31 131.16,-239.83 128.94,-246.46"/>
</g>
<!-- x4 -->
<g id="node11" class="node">
<title>x4</title>
<path fill="none" stroke="black" d="M269.97,-204.5C269.97,-204.5 308.47,-204.5 308.47,-204.5 314.47,-204.5 320.47,-210.5 320.47,-216.5 320.47,-216.5 320.47,-228.5 320.47,-228.5 320.47,-234.5 314.47,-240.5 308.47,-240.5 308.47,-240.5 269.97,-240.5 269.97,-240.5 263.97,-240.5 257.97,-234.5 257.97,-228.5 257.97,-228.5 257.97,-216.5 257.97,-216.5 257.97,-210.5 263.97,-204.5 269.97,-204.5"/>
<text text-anchor="middle" x="289.22" y="-217.7" font-family="Times,serif" font-size="14.00">5:3 &#45; 2:0</text>
</g>
<!-- n5&#45;&gt;x4 -->
<g id="edge16" class="edge">
<title>n5:e&#45;&gt;x4:w</title>
<path fill="none" stroke="black" stroke-width="3" d="M107.84,-181.5C138.87,-181.5 207.33,-215.09 245.66,-221.65"/>
<polygon fill="black" stroke="black" stroke-width="3" points="242.15,-224.82 252.45,-222.31 242.83,-217.85 242.15,-224.82"/>
</g>
<!-- x5 -->
<g id="node13" class="node">
<title>x5</title>
<path fill="none" stroke="black" d="M399.72,-55.5C399.72,-55.5 438.22,-55.5 438.22,-55.5 444.22,-55.5 450.22,-61.5 450.22,-67.5 450.22,-67.5 450.22,-79.5 450.22,-79.5 450.22,-85.5 444.22,-91.5 438.22,-91.5 438.22,-91.5 399.72,-91.5 399.72,-91.5 393.72,-91.5 387.72,-85.5 387.72,-79.5 387.72,-79.5 387.72,-67.5 387.72,-67.5 387.72,-61.5 393.72,-55.5 399.72,-55.5"/>
<text text-anchor="middle" x="418.97" y="-68.7" font-family="Times,serif" font-size="14.00">2:0 &#45; 2:0</text>
</g>
<!-- n5&#45;&gt;x5 -->
<g id="edge17" class="edge">
<title>n5:e&#45;&gt;x5:w</title>
<path fill="none" stroke="black" stroke-width="3" d="M107.84,-181.5C144.82,-181.5 113.94,-128.24 143.84,-106.5 228.84,-44.7 274.52,-71.67 375.46,-73.64"/>
<polygon fill="black" stroke="black" stroke-width="3" points="372.14,-77.11 382.18,-73.71 372.21,-70.11 372.14,-77.11"/>
</g>
<!-- n6 -->
<g id="node2" class="node">
<title>n6</title>
<polygon fill="none" stroke="black" points="1411.35,-65.04 1411.35,-79.96 1376.84,-90.5 1328.04,-90.5 1293.54,-79.96 1293.54,-65.04 1328.04,-54.5 1376.84,-54.5 1411.35,-65.04"/>
<text text-anchor="middle" x="1352.44" y="-67.45" font-family="Times,serif" font-size="14.00">output_data</text>
</g>
<!-- c10 -->
<g id="node3" class="node">
<title>c10</title>
<polygon fill="none" stroke="black" points="501.84,-158 501.84,-207 595.59,-207 595.59,-158 501.84,-158"/>
<text text-anchor="middle" x="514.72" y="-189.7" font-family="Times,serif" font-size="14.00">A</text>
<polyline fill="none" stroke="black" points="501.84,-182.5 527.59,-182.5"/>
<text text-anchor="middle" x="514.72" y="-165.2" font-family="Times,serif" font-size="14.00">B</text>
<polyline fill="none" stroke="black" points="527.59,-158 527.59,-207"/>
<text text-anchor="middle" x="548.72" y="-185.7" font-family="Times,serif" font-size="14.00">$25</text>
<text text-anchor="middle" x="548.72" y="-169.2" font-family="Times,serif" font-size="14.00">$add</text>
<polyline fill="none" stroke="black" points="569.84,-158 569.84,-207"/>
<text text-anchor="middle" x="582.72" y="-177.7" font-family="Times,serif" font-size="14.00">Y</text>
</g>
<!-- c11 -->
<g id="node5" class="node">
<title>c11</title>
<polygon fill="none" stroke="black" points="631.59,-108 631.59,-157 725.34,-157 725.34,-108 631.59,-108"/>
<text text-anchor="middle" x="644.47" y="-139.7" font-family="Times,serif" font-size="14.00">A</text>
<polyline fill="none" stroke="black" points="631.59,-132.5 657.34,-132.5"/>
<text text-anchor="middle" x="644.47" y="-115.2" font-family="Times,serif" font-size="14.00">B</text>
<polyline fill="none" stroke="black" points="657.34,-108 657.34,-157"/>
<text text-anchor="middle" x="678.47" y="-135.7" font-family="Times,serif" font-size="14.00">$26</text>
<text text-anchor="middle" x="678.47" y="-119.2" font-family="Times,serif" font-size="14.00">$add</text>
<polyline fill="none" stroke="black" points="699.59,-108 699.59,-157"/>
<text text-anchor="middle" x="712.47" y="-127.7" font-family="Times,serif" font-size="14.00">Y</text>
</g>
<!-- c10&#45;&gt;c11 -->
<g id="edge8" class="edge">
<title>c10:e&#45;&gt;c11:w</title>
<path fill="none" stroke="black" stroke-width="3" d="M595.59,-182.75C614.13,-182.75 611.21,-158.62 621.03,-148.82"/>
<polygon fill="black" stroke="black" stroke-width="3" points="619.28,-153.24 627.35,-146.38 616.76,-146.71 619.28,-153.24"/>
</g>
<!-- x0&#45;&gt;c10 -->
<g id="edge1" class="edge">
<title>x0:e&#45;&gt;c10:w</title>
<path fill="none" stroke="black" stroke-width="3" d="M334.1,-167.52C399.92,-167.78 423.3,-169.97 489.05,-170.23"/>
<polygon fill="none" stroke="black" stroke-width="3" points="336.17,-167.53 330.16,-171.52 324.17,-167.51 330.18,-163.52 336.17,-167.53"/>
<polygon fill="none" stroke="black" stroke-width="3" points="487.14,-170.22 493.14,-166.23 499.14,-170.24 493.13,-174.23 487.14,-170.22"/>
</g>
<!-- c14 -->
<g id="node12" class="node">
<title>c14</title>
<polygon fill="none" stroke="black" points="906.94,-79 906.94,-128 999.94,-128 999.94,-79 906.94,-79"/>
<text text-anchor="middle" x="919.81" y="-110.7" font-family="Times,serif" font-size="14.00">A</text>
<polyline fill="none" stroke="black" points="906.94,-103.5 932.69,-103.5"/>
<text text-anchor="middle" x="919.81" y="-86.2" font-family="Times,serif" font-size="14.00">B</text>
<polyline fill="none" stroke="black" points="932.69,-79 932.69,-128"/>
<text text-anchor="middle" x="953.44" y="-106.7" font-family="Times,serif" font-size="14.00">$27</text>
<text text-anchor="middle" x="953.44" y="-90.2" font-family="Times,serif" font-size="14.00">$sub</text>
<polyline fill="none" stroke="black" points="974.19,-79 974.19,-128"/>
<text text-anchor="middle" x="987.06" y="-98.7" font-family="Times,serif" font-size="14.00">Y</text>
</g>
<!-- c11&#45;&gt;c14 -->
<g id="edge9" class="edge">
<title>c11:e&#45;&gt;c14:w</title>
<path fill="none" stroke="black" stroke-width="3" d="M725.34,-132.75C802.03,-132.75 823.28,-117.37 894.55,-115.87"/>
<polygon fill="black" stroke="black" stroke-width="3" points="891.44,-119.4 901.4,-115.8 891.36,-112.4 891.44,-119.4"/>
</g>
<!-- x1&#45;&gt;c11 -->
<g id="edge2" class="edge">
<title>x1:e&#45;&gt;c11:w</title>
<path fill="none" stroke="black" stroke-width="3" d="M593.66,-120.47C602.96,-120.42 609.32,-120.33 618.54,-120.28"/>
<polygon fill="none" stroke="black" stroke-width="3" points="595.67,-120.46 589.68,-124.48 583.67,-120.49 589.66,-116.48 595.67,-120.46"/>
<polygon fill="none" stroke="black" stroke-width="3" points="616.89,-120.29 622.88,-116.27 628.89,-120.26 622.9,-124.27 616.89,-120.29"/>
</g>
<!-- c12 -->
<g id="node7" class="node">
<title>c12</title>
<polygon fill="none" stroke="black" points="242.34,-260 242.34,-309 336.09,-309 336.09,-260 242.34,-260"/>
<text text-anchor="middle" x="255.22" y="-291.7" font-family="Times,serif" font-size="14.00">A</text>
<polyline fill="none" stroke="black" points="242.34,-284.5 268.09,-284.5"/>
<text text-anchor="middle" x="255.22" y="-267.2" font-family="Times,serif" font-size="14.00">B</text>
<polyline fill="none" stroke="black" points="268.09,-260 268.09,-309"/>
<text text-anchor="middle" x="289.22" y="-287.7" font-family="Times,serif" font-size="14.00">$23</text>
<text text-anchor="middle" x="289.22" y="-271.2" font-family="Times,serif" font-size="14.00">$and</text>
<polyline fill="none" stroke="black" points="310.34,-260 310.34,-309"/>
<text text-anchor="middle" x="323.22" y="-279.7" font-family="Times,serif" font-size="14.00">Y</text>
</g>
<!-- c13 -->
<g id="node10" class="node">
<title>c13</title>
<polygon fill="none" stroke="black" points="372.09,-210 372.09,-259 465.84,-259 465.84,-210 372.09,-210"/>
<text text-anchor="middle" x="384.97" y="-241.7" font-family="Times,serif" font-size="14.00">A</text>
<polyline fill="none" stroke="black" points="372.09,-234.5 397.84,-234.5"/>
<text text-anchor="middle" x="384.97" y="-217.2" font-family="Times,serif" font-size="14.00">B</text>
<polyline fill="none" stroke="black" points="397.84,-210 397.84,-259"/>
<text text-anchor="middle" x="418.97" y="-237.7" font-family="Times,serif" font-size="14.00">$24</text>
<text text-anchor="middle" x="418.97" y="-221.2" font-family="Times,serif" font-size="14.00">$and</text>
<polyline fill="none" stroke="black" points="440.09,-210 440.09,-259"/>
<text text-anchor="middle" x="452.97" y="-229.7" font-family="Times,serif" font-size="14.00">Y</text>
</g>
<!-- c12&#45;&gt;c13 -->
<g id="edge10" class="edge">
<title>c12:e&#45;&gt;c13:w</title>
<path fill="none" stroke="black" stroke-width="3" d="M336.09,-284.75C354.63,-284.75 351.71,-260.62 361.53,-250.82"/>
<polygon fill="black" stroke="black" stroke-width="3" points="359.78,-255.24 367.85,-248.38 357.26,-248.71 359.78,-255.24"/>
</g>
<!-- x2&#45;&gt;c12 -->
<g id="edge3" class="edge">
<title>x2:e&#45;&gt;c12:w</title>
<path fill="none" stroke="black" stroke-width="3" d="M219.11,-301.05C222.8,-300.17 225.96,-299.06 229.66,-298.18"/>
<polygon fill="none" stroke="black" stroke-width="3" points="220.95,-300.84 215.44,-305.49 209.03,-302.19 214.54,-297.54 220.95,-300.84"/>
<polygon fill="none" stroke="black" stroke-width="3" points="227.73,-298.4 233.24,-293.75 239.65,-297.05 234.14,-301.7 227.73,-298.4"/>
</g>
<!-- x3&#45;&gt;c12 -->
<g id="edge4" class="edge">
<title>x3:e&#45;&gt;c12:w</title>
<path fill="none" stroke="black" stroke-width="3" d="M218.43,-252.27C223,-256.65 225.69,-263.11 230.26,-267.49"/>
<polygon fill="none" stroke="black" stroke-width="3" points="220.02,-252.9 212.97,-254.42 208.86,-248.49 215.91,-246.97 220.02,-252.9"/>
<polygon fill="none" stroke="black" stroke-width="3" points="228.66,-266.86 235.71,-265.34 239.82,-271.26 232.78,-272.78 228.66,-266.86"/>
</g>
<!-- c13&#45;&gt;c10 -->
<g id="edge11" class="edge">
<title>c13:e&#45;&gt;c10:w</title>
<path fill="none" stroke="black" stroke-width="3" d="M465.84,-234.75C485.09,-234.75 481.18,-208.85 491.39,-198.73"/>
<polygon fill="black" stroke="black" stroke-width="3" points="489.5,-203.2 497.6,-196.37 487.01,-196.65 489.5,-203.2"/>
</g>
<!-- x4&#45;&gt;c13 -->
<g id="edge5" class="edge">
<title>x4:e&#45;&gt;c13:w</title>
<path fill="none" stroke="black" stroke-width="3" d="M334.16,-222.47C343.46,-222.42 349.82,-222.33 359.04,-222.28"/>
<polygon fill="none" stroke="black" stroke-width="3" points="336.17,-222.46 330.18,-226.48 324.17,-222.49 330.16,-218.48 336.17,-222.46"/>
<polygon fill="none" stroke="black" stroke-width="3" points="357.39,-222.29 363.38,-218.27 369.39,-222.26 363.4,-226.27 357.39,-222.29"/>
</g>
<!-- x6 -->
<g id="node14" class="node">
<title>x6</title>
<path fill="none" stroke="black" d="M1200.29,-83.5C1200.29,-83.5 1238.79,-83.5 1238.79,-83.5 1244.79,-83.5 1250.79,-89.5 1250.79,-95.5 1250.79,-95.5 1250.79,-107.5 1250.79,-107.5 1250.79,-113.5 1244.79,-119.5 1238.79,-119.5 1238.79,-119.5 1200.29,-119.5 1200.29,-119.5 1194.29,-119.5 1188.29,-113.5 1188.29,-107.5 1188.29,-107.5 1188.29,-95.5 1188.29,-95.5 1188.29,-89.5 1194.29,-83.5 1200.29,-83.5"/>
<text text-anchor="middle" x="1219.54" y="-96.7" font-family="Times,serif" font-size="14.00">2:0 &#45; 2:0</text>
</g>
<!-- c14&#45;&gt;x6 -->
<g id="edge7" class="edge">
<title>c14:e&#45;&gt;x6:w</title>
<path fill="none" stroke="black" stroke-width="3" d="M1013.99,-103.73C1082.13,-103.52 1106.25,-101.72 1174.5,-101.52"/>
<polygon fill="none" stroke="black" stroke-width="3" points="1015.64,-103.73 1009.65,-107.74 1003.64,-103.75 1009.64,-99.74 1015.64,-103.73"/>
<polygon fill="none" stroke="black" stroke-width="3" points="1172.58,-101.52 1178.58,-97.51 1184.58,-101.5 1178.59,-105.51 1172.58,-101.52"/>
</g>
<!-- x5&#45;&gt;c14 -->
<g id="edge6" class="edge">
<title>x5:e&#45;&gt;c14:w</title>
<path fill="none" stroke="black" stroke-width="3" d="M464.04,-73.52C651.49,-74.24 705.66,-90.51 893.1,-91.23"/>
<polygon fill="none" stroke="black" stroke-width="3" points="465.92,-73.53 459.91,-77.52 453.92,-73.51 459.93,-69.52 465.92,-73.53"/>
<polygon fill="none" stroke="black" stroke-width="3" points="891.24,-91.22 897.24,-87.23 903.24,-91.24 897.23,-95.23 891.24,-91.22"/>
</g>
<!-- x6&#45;&gt;n6 -->
<g id="edge18" class="edge">
<title>x6:e&#45;&gt;n6:w</title>
<path fill="none" stroke="black" stroke-width="3" d="M1251.79,-101.75C1269.84,-101.75 1271.25,-83.18 1282.54,-75.63"/>
<polygon fill="black" stroke="black" stroke-width="3" points="1280.51,-79.85 1289.17,-73.74 1278.59,-73.11 1280.51,-79.85"/>
</g>
<!-- v7 -->
<g id="node15" class="node">
<title>v7</title>
<ellipse fill="none" stroke="black" cx="953.44" cy="-42.5" rx="192.1" ry="18"/>
<text text-anchor="middle" x="953.44" y="-37.45" font-family="Times,serif" font-size="14.00">37&#39;0000000000000000000000000000000000000</text>
</g>
<!-- x8 -->
<g id="node16" class="node">
<title>x8</title>
<path fill="none" stroke="black" d="M1193.54,-27.5C1193.54,-27.5 1245.54,-27.5 1245.54,-27.5 1251.54,-27.5 1257.54,-33.5 1257.54,-39.5 1257.54,-39.5 1257.54,-51.5 1257.54,-51.5 1257.54,-57.5 1251.54,-63.5 1245.54,-63.5 1245.54,-63.5 1193.54,-63.5 1193.54,-63.5 1187.54,-63.5 1181.54,-57.5 1181.54,-51.5 1181.54,-51.5 1181.54,-39.5 1181.54,-39.5 1181.54,-33.5 1187.54,-27.5 1193.54,-27.5"/>
<text text-anchor="middle" x="1219.54" y="-40.7" font-family="Times,serif" font-size="14.00">36:0 &#45; 39:3</text>
</g>
<!-- v7&#45;&gt;x8 -->
<g id="edge20" class="edge">
<title>v7:e&#45;&gt;x8:w</title>
<path fill="none" stroke="black" stroke-width="3" d="M1145.54,-42.5C1156.95,-42.5 1162.22,-44.02 1170.08,-44.89"/>
<polygon fill="black" stroke="black" stroke-width="3" points="1166.83,-48.23 1177,-45.26 1167.2,-41.24 1166.83,-48.23"/>
</g>
<!-- x8&#45;&gt;n6 -->
<g id="edge19" class="edge">
<title>x8:e&#45;&gt;n6:w</title>
<path fill="none" stroke="black" stroke-width="3" d="M1257.54,-45.75C1272.8,-45.75 1274.11,-61.43 1282.83,-68.78"/>
<polygon fill="black" stroke="black" stroke-width="3" points="1278.65,-71.03 1289.25,-71.01 1280.95,-64.42 1278.65,-71.03"/>
</g>
</g>
</svg>
