<?xml version="1.0" encoding="UTF-8" standalone="no"?>
<!DOCTYPE svg PUBLIC "-//W3C//DTD SVG 1.1//EN"
 "http://www.w3.org/Graphics/SVG/1.1/DTD/svg11.dtd">
<!-- Generated by graphviz version 12.2.1 (20241206.2353)
 -->
<!-- Title: top Pages: 1 -->
<svg width="1879pt" height="366pt"
 viewBox="0.00 0.00 1878.60 366.14" xmlns="http://www.w3.org/2000/svg" xmlns:xlink="http://www.w3.org/1999/xlink">
<g id="graph0" class="graph" transform="scale(1 1) rotate(0) translate(4 362.14)">
<title>top</title>
<polygon fill="white" stroke="none" points="-4,4 -4,-362.14 1874.6,-362.14 1874.6,4 -4,4"/>
<text text-anchor="middle" x="935.3" y="-7.2" font-family="Times,serif" font-size="14.00">top</text>
<!-- n5 -->
<g id="node1" class="node">
<title>n5</title>
<polygon fill="none" stroke="black" points="107.84,-181.18 107.84,-196.09 76.26,-206.64 31.59,-206.64 0,-196.09 0,-181.18 31.59,-170.64 76.26,-170.64 107.84,-181.18"/>
<text text-anchor="middle" x="53.92" y="-183.59" font-family="Times,serif" font-size="14.00">input_data</text>
</g>
<!-- x0 -->
<g id="node6" class="node">
<title>x0</title>
<path fill="none" stroke="black" d="M294.84,-252.14C294.84,-252.14 333.34,-252.14 333.34,-252.14 339.34,-252.14 345.34,-258.14 345.34,-264.14 345.34,-264.14 345.34,-289.14 345.34,-289.14 345.34,-295.14 339.34,-301.14 333.34,-301.14 333.34,-301.14 294.84,-301.14 294.84,-301.14 288.84,-301.14 282.84,-295.14 282.84,-289.14 282.84,-289.14 282.84,-264.14 282.84,-264.14 282.84,-258.14 288.84,-252.14 294.84,-252.14"/>
<text text-anchor="middle" x="314.09" y="-283.84" font-family="Times,serif" font-size="14.00">5:5 &#45; 6:6</text>
<polyline fill="none" stroke="black" points="282.84,-276.64 345.34,-276.64"/>
<text text-anchor="middle" x="314.09" y="-259.34" font-family="Times,serif" font-size="14.00">5:0 &#45; 5:0</text>
</g>
<!-- n5&#45;&gt;x0 -->
<g id="edge16" class="edge">
<title>n5:e&#45;&gt;x0:w</title>
<path fill="none" stroke="black" d="M107.84,-188.64C155.91,-188.64 104.6,-262.87 143.84,-290.64 190.69,-323.78 216.98,-293.38 270.4,-289.32"/>
<polygon fill="black" stroke="black" points="270.47,-292.82 280.33,-288.95 270.2,-285.83 270.47,-292.82"/>
</g>
<!-- c13 -->
<g id="node8" class="node">
<title>c13</title>
<polygon fill="none" stroke="black" points="143.84,-232.14 143.84,-281.14 231.59,-281.14 231.59,-232.14 143.84,-232.14"/>
<text text-anchor="middle" x="156.72" y="-263.84" font-family="Times,serif" font-size="14.00">A</text>
<polyline fill="none" stroke="black" points="143.84,-256.64 169.59,-256.64"/>
<text text-anchor="middle" x="156.72" y="-239.34" font-family="Times,serif" font-size="14.00">B</text>
<polyline fill="none" stroke="black" points="169.59,-232.14 169.59,-281.14"/>
<text text-anchor="middle" x="187.72" y="-259.84" font-family="Times,serif" font-size="14.00">$59</text>
<text text-anchor="middle" x="187.72" y="-243.34" font-family="Times,serif" font-size="14.00">$or</text>
<polyline fill="none" stroke="black" points="205.84,-232.14 205.84,-281.14"/>
<text text-anchor="middle" x="218.72" y="-251.84" font-family="Times,serif" font-size="14.00">Y</text>
</g>
<!-- n5&#45;&gt;c13 -->
<g id="edge12" class="edge">
<title>n5:e&#45;&gt;c13:w</title>
<path fill="none" stroke="black" stroke-width="3" d="M107.84,-188.64C132.5,-188.64 120.48,-227.6 133.1,-240.38"/>
<polygon fill="black" stroke="black" stroke-width="3" points="128.99,-242.58 139.59,-242.8 131.44,-236.03 128.99,-242.58"/>
</g>
<!-- n5&#45;&gt;c13 -->
<g id="edge13" class="edge">
<title>n5:e&#45;&gt;c13:w</title>
<path fill="none" stroke="black" stroke-width="3" d="M107.84,-188.64C142.2,-188.64 113.77,-250.63 132.93,-265.64"/>
<polygon fill="black" stroke="black" stroke-width="3" points="128.91,-268.1 139.49,-267.59 130.9,-261.39 128.91,-268.1"/>
</g>
<!-- x2 -->
<g id="node11" class="node">
<title>x2</title>
<path fill="none" stroke="black" d="M425.34,-321.64C425.34,-321.64 463.84,-321.64 463.84,-321.64 469.84,-321.64 475.84,-327.64 475.84,-333.64 475.84,-333.64 475.84,-345.64 475.84,-345.64 475.84,-351.64 469.84,-357.64 463.84,-357.64 463.84,-357.64 425.34,-357.64 425.34,-357.64 419.34,-357.64 413.34,-351.64 413.34,-345.64 413.34,-345.64 413.34,-333.64 413.34,-333.64 413.34,-327.64 419.34,-321.64 425.34,-321.64"/>
<text text-anchor="middle" x="444.59" y="-334.84" font-family="Times,serif" font-size="14.00">2:0 &#45; 2:0</text>
</g>
<!-- n5&#45;&gt;x2 -->
<g id="edge17" class="edge">
<title>n5:e&#45;&gt;x2:w</title>
<path fill="none" stroke="black" stroke-width="3" d="M107.84,-188.64C165.23,-188.64 99.75,-275.9 143.84,-312.64 233.02,-386.95 288.72,-342.95 400.94,-340.04"/>
<polygon fill="black" stroke="black" stroke-width="3" points="397.85,-343.58 407.8,-339.95 397.76,-336.58 397.85,-343.58"/>
</g>
<!-- c16 -->
<g id="node14" class="node">
<title>c16</title>
<polygon fill="none" stroke="black" points="396.59,-77.14 396.59,-126.14 492.59,-126.14 492.59,-77.14 396.59,-77.14"/>
<text text-anchor="middle" x="409.47" y="-108.84" font-family="Times,serif" font-size="14.00">A</text>
<polyline fill="none" stroke="black" points="396.59,-101.64 422.34,-101.64"/>
<text text-anchor="middle" x="409.47" y="-84.34" font-family="Times,serif" font-size="14.00">B</text>
<polyline fill="none" stroke="black" points="422.34,-77.14 422.34,-126.14"/>
<text text-anchor="middle" x="444.59" y="-104.84" font-family="Times,serif" font-size="14.00">$11</text>
<text text-anchor="middle" x="444.59" y="-88.34" font-family="Times,serif" font-size="14.00">$mul</text>
<polyline fill="none" stroke="black" points="466.84,-77.14 466.84,-126.14"/>
<text text-anchor="middle" x="479.72" y="-96.84" font-family="Times,serif" font-size="14.00">Y</text>
</g>
<!-- n5&#45;&gt;c16 -->
<g id="edge14" class="edge">
<title>n5:e&#45;&gt;c16:w</title>
<path fill="none" stroke="black" stroke-width="3" d="M107.84,-188.64C155.91,-188.64 104.6,-114.4 143.84,-86.64 175.68,-64.11 192.59,-86.31 231.59,-86.64 301.06,-87.22 321.16,-89.17 385.43,-89.37"/>
<polygon fill="black" stroke="black" stroke-width="3" points="382.04,-92.87 392.05,-89.38 382.06,-85.87 382.04,-92.87"/>
</g>
<!-- x5 -->
<g id="node16" class="node">
<title>x5</title>
<path fill="none" stroke="black" d="M168.47,-164.14C168.47,-164.14 206.97,-164.14 206.97,-164.14 212.97,-164.14 218.97,-170.14 218.97,-176.14 218.97,-176.14 218.97,-201.14 218.97,-201.14 218.97,-207.14 212.97,-213.14 206.97,-213.14 206.97,-213.14 168.47,-213.14 168.47,-213.14 162.47,-213.14 156.47,-207.14 156.47,-201.14 156.47,-201.14 156.47,-176.14 156.47,-176.14 156.47,-170.14 162.47,-164.14 168.47,-164.14"/>
<text text-anchor="middle" x="187.72" y="-195.84" font-family="Times,serif" font-size="14.00">5:5 &#45; 6:6</text>
<polyline fill="none" stroke="black" points="156.47,-188.64 218.97,-188.64"/>
<text text-anchor="middle" x="187.72" y="-171.34" font-family="Times,serif" font-size="14.00">5:0 &#45; 5:0</text>
</g>
<!-- n5&#45;&gt;x5 -->
<g id="edge18" class="edge">
<title>n5:e&#45;&gt;x5:w</title>
<path fill="none" stroke="black" stroke-width="3" d="M107.84,-188.64C125.26,-188.64 131.28,-180.86 144.07,-177.7"/>
<polygon fill="black" stroke="black" stroke-width="3" points="141.42,-181.53 150.95,-176.91 140.62,-174.57 141.42,-181.53"/>
</g>
<!-- n5&#45;&gt;x5 -->
<g id="edge19" class="edge">
<title>n5:e&#45;&gt;x5:w</title>
<path fill="none" stroke="black" d="M107.84,-188.64C125.26,-188.64 131.28,-196.42 144.07,-199.58"/>
<polygon fill="black" stroke="black" points="143.63,-203.05 153.96,-200.72 144.43,-196.1 143.63,-203.05"/>
</g>
<!-- x6 -->
<g id="node17" class="node">
<title>x6</title>
<path fill="none" stroke="black" d="M168.47,-96.14C168.47,-96.14 206.97,-96.14 206.97,-96.14 212.97,-96.14 218.97,-102.14 218.97,-108.14 218.97,-108.14 218.97,-133.14 218.97,-133.14 218.97,-139.14 212.97,-145.14 206.97,-145.14 206.97,-145.14 168.47,-145.14 168.47,-145.14 162.47,-145.14 156.47,-139.14 156.47,-133.14 156.47,-133.14 156.47,-108.14 156.47,-108.14 156.47,-102.14 162.47,-96.14 168.47,-96.14"/>
<text text-anchor="middle" x="187.72" y="-127.84" font-family="Times,serif" font-size="14.00">5:5 &#45; 3:3</text>
<polyline fill="none" stroke="black" points="156.47,-120.64 218.97,-120.64"/>
<text text-anchor="middle" x="187.72" y="-103.34" font-family="Times,serif" font-size="14.00">5:3 &#45; 2:0</text>
</g>
<!-- n5&#45;&gt;x6 -->
<g id="edge20" class="edge">
<title>n5:e&#45;&gt;x6:w</title>
<path fill="none" stroke="black" stroke-width="3" d="M107.84,-188.64C144.78,-188.64 120.8,-124.98 144.41,-111.06"/>
<polygon fill="black" stroke="black" stroke-width="3" points="142.15,-115.21 151.05,-109.45 140.51,-108.4 142.15,-115.21"/>
</g>
<!-- n5&#45;&gt;x6 -->
<g id="edge21" class="edge">
<title>n5:e&#45;&gt;x6:w</title>
<path fill="none" stroke="black" d="M107.84,-188.64C135.85,-188.64 126.82,-147.47 144.41,-135.89"/>
<polygon fill="black" stroke="black" points="145.27,-139.28 154.01,-133.28 143.44,-132.52 145.27,-139.28"/>
</g>
<!-- c18 -->
<g id="node18" class="node">
<title>c18</title>
<polygon fill="none" stroke="black" points="528.59,-65.14 528.59,-114.14 621.59,-114.14 621.59,-65.14 528.59,-65.14"/>
<text text-anchor="middle" x="541.47" y="-96.84" font-family="Times,serif" font-size="14.00">A</text>
<polyline fill="none" stroke="black" points="528.59,-89.64 554.34,-89.64"/>
<text text-anchor="middle" x="541.47" y="-72.34" font-family="Times,serif" font-size="14.00">B</text>
<polyline fill="none" stroke="black" points="554.34,-65.14 554.34,-114.14"/>
<text text-anchor="middle" x="575.09" y="-92.84" font-family="Times,serif" font-size="14.00">$12</text>
<text text-anchor="middle" x="575.09" y="-76.34" font-family="Times,serif" font-size="14.00">$sub</text>
<polyline fill="none" stroke="black" points="595.84,-65.14 595.84,-114.14"/>
<text text-anchor="middle" x="608.72" y="-84.84" font-family="Times,serif" font-size="14.00">Y</text>
</g>
<!-- n5&#45;&gt;c18 -->
<g id="edge15" class="edge">
<title>n5:e&#45;&gt;c18:w</title>
<path fill="none" stroke="black" stroke-width="3" d="M107.84,-188.64C161.82,-188.64 100.7,-105.08 143.84,-72.64 267.73,20.54 338.93,-47.2 492.59,-67.64 504.4,-69.21 509.27,-73.56 517.23,-75.88"/>
<polygon fill="black" stroke="black" stroke-width="3" points="513.72,-78.95 524.09,-76.79 514.64,-72.01 513.72,-78.95"/>
</g>
<!-- n6 -->
<g id="node2" class="node">
<title>n6</title>
<polygon fill="none" stroke="black" points="1870.6,-265.18 1870.6,-280.09 1836.1,-290.64 1787.3,-290.64 1752.79,-280.09 1752.79,-265.18 1787.3,-254.64 1836.1,-254.64 1870.6,-265.18"/>
<text text-anchor="middle" x="1811.7" y="-267.59" font-family="Times,serif" font-size="14.00">output_data</text>
</g>
<!-- n7 -->
<g id="node3" class="node">
<title>n7</title>
<polygon fill="none" stroke="black" points="712.84,-130.64 657.59,-112.64 712.84,-94.64 768.09,-112.64 712.84,-130.64"/>
<text text-anchor="middle" x="712.84" y="-107.59" font-family="Times,serif" font-size="14.00">temp_2</text>
</g>
<!-- c14 -->
<g id="node9" class="node">
<title>c14</title>
<polygon fill="none" stroke="black" points="804.09,-149.14 804.09,-190.14 895.59,-190.14 895.59,-149.14 804.09,-149.14"/>
<text text-anchor="middle" x="816.97" y="-164.84" font-family="Times,serif" font-size="14.00">A</text>
<polyline fill="none" stroke="black" points="829.84,-149.14 829.84,-190.14"/>
<text text-anchor="middle" x="849.84" y="-172.84" font-family="Times,serif" font-size="14.00">$62</text>
<text text-anchor="middle" x="849.84" y="-156.34" font-family="Times,serif" font-size="14.00">$not</text>
<polyline fill="none" stroke="black" points="869.84,-149.14 869.84,-190.14"/>
<text text-anchor="middle" x="882.72" y="-164.84" font-family="Times,serif" font-size="14.00">Y</text>
</g>
<!-- n7&#45;&gt;c14 -->
<g id="edge25" class="edge">
<title>n7:e&#45;&gt;c14:w</title>
<path fill="none" stroke="black" stroke-width="3" d="M768.09,-112.64C793.45,-112.64 780.25,-153.4 793.56,-166.13"/>
<polygon fill="black" stroke="black" stroke-width="3" points="789.22,-168.3 799.82,-168.36 791.57,-161.71 789.22,-168.3"/>
</g>
<!-- n8 -->
<g id="node4" class="node">
<title>n8</title>
<polygon fill="none" stroke="black" points="1215.09,-290.64 1159.84,-272.64 1215.09,-254.64 1270.34,-272.64 1215.09,-290.64"/>
<text text-anchor="middle" x="1215.09" y="-267.59" font-family="Times,serif" font-size="14.00">temp_3</text>
</g>
<!-- x3 -->
<g id="node12" class="node">
<title>x3</title>
<path fill="none" stroke="black" d="M1318.34,-259.64C1318.34,-259.64 1356.84,-259.64 1356.84,-259.64 1362.84,-259.64 1368.84,-265.64 1368.84,-271.64 1368.84,-271.64 1368.84,-283.64 1368.84,-283.64 1368.84,-289.64 1362.84,-295.64 1356.84,-295.64 1356.84,-295.64 1318.34,-295.64 1318.34,-295.64 1312.34,-295.64 1306.34,-289.64 1306.34,-283.64 1306.34,-283.64 1306.34,-271.64 1306.34,-271.64 1306.34,-265.64 1312.34,-259.64 1318.34,-259.64"/>
<text text-anchor="middle" x="1337.59" y="-272.84" font-family="Times,serif" font-size="14.00">9:7 &#45; 2:0</text>
</g>
<!-- n8&#45;&gt;x3 -->
<g id="edge27" class="edge">
<title>n8:e&#45;&gt;x3:w</title>
<path fill="none" stroke="black" stroke-width="3" d="M1270.34,-272.64C1281.96,-272.64 1287.12,-275.35 1295.11,-276.88"/>
<polygon fill="black" stroke="black" stroke-width="3" points="1291.55,-280.07 1301.82,-277.48 1292.18,-273.1 1291.55,-280.07"/>
</g>
<!-- c12 -->
<g id="node5" class="node">
<title>c12</title>
<polygon fill="none" stroke="black" points="1030.09,-240.14 1030.09,-289.14 1123.84,-289.14 1123.84,-240.14 1030.09,-240.14"/>
<text text-anchor="middle" x="1042.97" y="-271.84" font-family="Times,serif" font-size="14.00">A</text>
<polyline fill="none" stroke="black" points="1030.09,-264.64 1055.84,-264.64"/>
<text text-anchor="middle" x="1042.97" y="-247.34" font-family="Times,serif" font-size="14.00">B</text>
<polyline fill="none" stroke="black" points="1055.84,-240.14 1055.84,-289.14"/>
<text text-anchor="middle" x="1076.97" y="-267.84" font-family="Times,serif" font-size="14.00">$15</text>
<text text-anchor="middle" x="1076.97" y="-251.34" font-family="Times,serif" font-size="14.00">$add</text>
<polyline fill="none" stroke="black" points="1098.09,-240.14 1098.09,-289.14"/>
<text text-anchor="middle" x="1110.97" y="-259.84" font-family="Times,serif" font-size="14.00">Y</text>
</g>
<!-- c12&#45;&gt;n8 -->
<g id="edge26" class="edge">
<title>c12:e&#45;&gt;n8:w</title>
<path fill="none" stroke="black" stroke-width="3" d="M1123.84,-264.89C1135.61,-264.89 1140.6,-268.89 1148.56,-271.14"/>
<polygon fill="black" stroke="black" stroke-width="3" points="1144.97,-274.2 1155.34,-272.04 1145.89,-267.26 1144.97,-274.2"/>
</g>
<!-- x0&#45;&gt;c12 -->
<g id="edge1" class="edge">
<title>x0:e&#45;&gt;c12:w</title>
<path fill="none" stroke="black" stroke-width="3" d="M359.26,-276.64C449.93,-276.64 477.32,-276.64 574.09,-276.64 574.09,-276.64 574.09,-276.64 850.84,-276.64 926,-276.64 947.98,-276.86 1017.11,-276.89"/>
<polygon fill="none" stroke="black" stroke-width="3" points="361.05,-276.64 355.05,-280.64 349.05,-276.64 355.05,-272.64 361.05,-276.64"/>
<polygon fill="none" stroke="black" stroke-width="3" points="1015.39,-276.89 1021.39,-272.89 1027.39,-276.89 1021.39,-280.89 1015.39,-276.89"/>
</g>
<!-- x1 -->
<g id="node7" class="node">
<title>x1</title>
<path fill="none" stroke="black" d="M943.59,-185.14C943.59,-185.14 982.09,-185.14 982.09,-185.14 988.09,-185.14 994.09,-191.14 994.09,-197.14 994.09,-197.14 994.09,-222.14 994.09,-222.14 994.09,-228.14 988.09,-234.14 982.09,-234.14 982.09,-234.14 943.59,-234.14 943.59,-234.14 937.59,-234.14 931.59,-228.14 931.59,-222.14 931.59,-222.14 931.59,-197.14 931.59,-197.14 931.59,-191.14 937.59,-185.14 943.59,-185.14"/>
<text text-anchor="middle" x="962.84" y="-216.84" font-family="Times,serif" font-size="14.00">1 &#45;&gt; 9:7</text>
<polyline fill="none" stroke="black" points="931.59,-209.64 994.09,-209.64"/>
<text text-anchor="middle" x="962.84" y="-192.34" font-family="Times,serif" font-size="14.00">6:0 &#45; 6:0</text>
</g>
<!-- x1&#45;&gt;c12 -->
<g id="edge2" class="edge">
<title>x1:e&#45;&gt;c12:w</title>
<path fill="none" stroke="black" stroke-width="3" d="M1005.67,-214.88C1012.22,-223.09 1011.95,-238.87 1018.48,-247.1"/>
<polygon fill="none" stroke="black" stroke-width="3" points="1007.49,-215.7 1000.37,-216.87 996.56,-210.75 1003.67,-209.58 1007.49,-215.7"/>
<polygon fill="none" stroke="black" stroke-width="3" points="1016.71,-246.3 1023.83,-245.14 1027.63,-251.27 1020.51,-252.42 1016.71,-246.3"/>
</g>
<!-- c13&#45;&gt;x0 -->
<g id="edge8" class="edge">
<title>c13:e&#45;&gt;x0:w</title>
<path fill="none" stroke="black" stroke-width="3" d="M231.59,-256.89C249.94,-256.89 256.74,-261.84 270.75,-263.7"/>
<polygon fill="black" stroke="black" stroke-width="3" points="267.11,-266.98 277.31,-264.11 267.55,-259.99 267.11,-266.98"/>
</g>
<!-- c14&#45;&gt;x1 -->
<g id="edge9" class="edge">
<title>c14:e&#45;&gt;x1:w</title>
<path fill="none" stroke="black" stroke-width="3" d="M895.59,-169.89C911.01,-169.89 912.12,-186.01 920.83,-193.56"/>
<polygon fill="black" stroke="black" stroke-width="3" points="916.72,-195.82 927.31,-195.87 919.06,-189.22 916.72,-195.82"/>
</g>
<!-- c15 -->
<g id="node10" class="node">
<title>c15</title>
<polygon fill="none" stroke="black" points="1457.94,-279.14 1457.94,-328.14 1551.69,-328.14 1551.69,-279.14 1457.94,-279.14"/>
<text text-anchor="middle" x="1470.82" y="-310.84" font-family="Times,serif" font-size="14.00">A</text>
<polyline fill="none" stroke="black" points="1457.94,-303.64 1483.69,-303.64"/>
<text text-anchor="middle" x="1470.82" y="-286.34" font-family="Times,serif" font-size="14.00">B</text>
<polyline fill="none" stroke="black" points="1483.69,-279.14 1483.69,-328.14"/>
<text text-anchor="middle" x="1504.82" y="-306.84" font-family="Times,serif" font-size="14.00">$66</text>
<text text-anchor="middle" x="1504.82" y="-290.34" font-family="Times,serif" font-size="14.00">$and</text>
<polyline fill="none" stroke="black" points="1525.94,-279.14 1525.94,-328.14"/>
<text text-anchor="middle" x="1538.82" y="-298.84" font-family="Times,serif" font-size="14.00">Y</text>
</g>
<!-- x4 -->
<g id="node13" class="node">
<title>x4</title>
<path fill="none" stroke="black" d="M1659.54,-283.64C1659.54,-283.64 1698.04,-283.64 1698.04,-283.64 1704.04,-283.64 1710.04,-289.64 1710.04,-295.64 1710.04,-295.64 1710.04,-307.64 1710.04,-307.64 1710.04,-313.64 1704.04,-319.64 1698.04,-319.64 1698.04,-319.64 1659.54,-319.64 1659.54,-319.64 1653.54,-319.64 1647.54,-313.64 1647.54,-307.64 1647.54,-307.64 1647.54,-295.64 1647.54,-295.64 1647.54,-289.64 1653.54,-283.64 1659.54,-283.64"/>
<text text-anchor="middle" x="1678.79" y="-296.84" font-family="Times,serif" font-size="14.00">2:0 &#45; 2:0</text>
</g>
<!-- c15&#45;&gt;x4 -->
<g id="edge5" class="edge">
<title>c15:e&#45;&gt;x4:w</title>
<path fill="none" stroke="black" stroke-width="3" d="M1565.34,-303.81C1593.1,-303.47 1606,-302.06 1633.68,-301.72"/>
<polygon fill="none" stroke="black" stroke-width="3" points="1567.4,-303.8 1561.42,-307.84 1555.4,-303.87 1561.37,-299.84 1567.4,-303.8"/>
<polygon fill="none" stroke="black" stroke-width="3" points="1631.84,-301.73 1637.81,-297.69 1643.84,-301.65 1637.86,-305.69 1631.84,-301.73"/>
</g>
<!-- x2&#45;&gt;c15 -->
<g id="edge3" class="edge">
<title>x2:e&#45;&gt;c15:w</title>
<path fill="none" stroke="black" stroke-width="3" d="M489.61,-339.58C583.71,-338.73 611.67,-328.64 711.84,-328.64 711.84,-328.64 711.84,-328.64 1216.09,-328.64 1318.89,-328.64 1347.44,-316.91 1444.15,-315.95"/>
<polygon fill="none" stroke="black" stroke-width="3" points="491.54,-339.57 485.56,-343.6 479.55,-339.63 485.53,-335.6 491.54,-339.57"/>
<polygon fill="none" stroke="black" stroke-width="3" points="1442.24,-315.96 1448.22,-311.93 1454.24,-315.9 1448.26,-319.93 1442.24,-315.96"/>
</g>
<!-- x3&#45;&gt;c15 -->
<g id="edge4" class="edge">
<title>x3:e&#45;&gt;c15:w</title>
<path fill="none" stroke="black" stroke-width="3" d="M1381.61,-278.16C1407.07,-280.34 1418.71,-288.69 1444.17,-290.87"/>
<polygon fill="none" stroke="black" stroke-width="3" points="1383.53,-278.24 1377.38,-281.99 1371.54,-277.75 1377.7,-274 1383.53,-278.24"/>
<polygon fill="none" stroke="black" stroke-width="3" points="1442.25,-290.79 1448.41,-287.04 1454.24,-291.28 1448.08,-295.03 1442.25,-290.79"/>
</g>
<!-- x4&#45;&gt;n6 -->
<g id="edge22" class="edge">
<title>x4:e&#45;&gt;n6:w</title>
<path fill="none" stroke="black" stroke-width="3" d="M1711.04,-301.89C1729.09,-301.89 1730.5,-283.31 1741.79,-275.77"/>
<polygon fill="black" stroke="black" stroke-width="3" points="1739.76,-279.98 1748.42,-273.88 1737.85,-273.25 1739.76,-279.98"/>
</g>
<!-- c16&#45;&gt;c18 -->
<g id="edge10" class="edge">
<title>c16:e&#45;&gt;c18:w</title>
<path fill="none" stroke="black" stroke-width="3" d="M492.59,-101.89C503.97,-101.89 509.28,-101.89 517.14,-101.89"/>
<polygon fill="black" stroke="black" stroke-width="3" points="514.05,-105.39 524.05,-101.89 514.05,-98.39 514.05,-105.39"/>
</g>
<!-- c17 -->
<g id="node15" class="node">
<title>c17</title>
<polygon fill="none" stroke="black" points="267.59,-108.14 267.59,-157.14 360.59,-157.14 360.59,-108.14 267.59,-108.14"/>
<text text-anchor="middle" x="280.47" y="-139.84" font-family="Times,serif" font-size="14.00">A</text>
<polyline fill="none" stroke="black" points="267.59,-132.64 293.34,-132.64"/>
<text text-anchor="middle" x="280.47" y="-115.34" font-family="Times,serif" font-size="14.00">B</text>
<polyline fill="none" stroke="black" points="293.34,-108.14 293.34,-157.14"/>
<text text-anchor="middle" x="314.09" y="-135.84" font-family="Times,serif" font-size="14.00">$10</text>
<text text-anchor="middle" x="314.09" y="-119.34" font-family="Times,serif" font-size="14.00">$sub</text>
<polyline fill="none" stroke="black" points="334.84,-108.14 334.84,-157.14"/>
<text text-anchor="middle" x="347.72" y="-127.84" font-family="Times,serif" font-size="14.00">Y</text>
</g>
<!-- c17&#45;&gt;c16 -->
<g id="edge11" class="edge">
<title>c17:e&#45;&gt;c16:w</title>
<path fill="none" stroke="black" stroke-width="3" d="M360.59,-132.89C374.02,-132.89 377.38,-122.42 385.62,-117.03"/>
<polygon fill="black" stroke="black" stroke-width="3" points="383.57,-121.25 392.23,-115.14 381.65,-114.52 383.57,-121.25"/>
</g>
<!-- x5&#45;&gt;c17 -->
<g id="edge6" class="edge">
<title>x5:e&#45;&gt;c17:w</title>
<path fill="none" stroke="black" stroke-width="3" d="M232.17,-184.91C243.3,-176.64 244.27,-156.87 255.4,-148.61"/>
<polygon fill="none" stroke="black" stroke-width="3" points="234.03,-184.34 229.46,-189.92 222.55,-187.85 227.12,-182.27 234.03,-184.34"/>
<polygon fill="none" stroke="black" stroke-width="3" points="253.53,-149.18 258.1,-143.6 265,-145.68 260.43,-151.26 253.53,-149.18"/>
</g>
<!-- x6&#45;&gt;c17 -->
<g id="edge7" class="edge">
<title>x6:e&#45;&gt;c17:w</title>
<path fill="none" stroke="black" stroke-width="3" d="M233,-120.6C240.99,-120.55 246.76,-120.47 254.8,-120.42"/>
<polygon fill="none" stroke="black" stroke-width="3" points="234.67,-120.6 228.68,-124.61 222.67,-120.63 228.66,-116.61 234.67,-120.6"/>
<polygon fill="none" stroke="black" stroke-width="3" points="252.89,-120.43 258.88,-116.41 264.89,-120.4 258.9,-124.41 252.89,-120.43"/>
</g>
<!-- c18&#45;&gt;n7 -->
<g id="edge24" class="edge">
<title>c18:e&#45;&gt;n7:w</title>
<path fill="none" stroke="black" stroke-width="3" d="M621.59,-89.89C635.79,-89.89 638.29,-102.69 646.64,-109.08"/>
<polygon fill="black" stroke="black" stroke-width="3" points="642.68,-111.48 653.27,-111.24 644.84,-104.82 642.68,-111.48"/>
</g>
<!-- v7 -->
<g id="node19" class="node">
<title>v7</title>
<ellipse fill="none" stroke="black" cx="1504.82" cy="-242.64" rx="99.97" ry="18"/>
<text text-anchor="middle" x="1504.82" y="-237.59" font-family="Times,serif" font-size="14.00">17&#39;00000000000000000</text>
</g>
<!-- x8 -->
<g id="node20" class="node">
<title>x8</title>
<path fill="none" stroke="black" d="M1652.79,-227.64C1652.79,-227.64 1704.79,-227.64 1704.79,-227.64 1710.79,-227.64 1716.79,-233.64 1716.79,-239.64 1716.79,-239.64 1716.79,-251.64 1716.79,-251.64 1716.79,-257.64 1710.79,-263.64 1704.79,-263.64 1704.79,-263.64 1652.79,-263.64 1652.79,-263.64 1646.79,-263.64 1640.79,-257.64 1640.79,-251.64 1640.79,-251.64 1640.79,-239.64 1640.79,-239.64 1640.79,-233.64 1646.79,-227.64 1652.79,-227.64"/>
<text text-anchor="middle" x="1678.79" y="-240.84" font-family="Times,serif" font-size="14.00">16:0 &#45; 19:3</text>
</g>
<!-- v7&#45;&gt;x8 -->
<g id="edge28" class="edge">
<title>v7:e&#45;&gt;x8:w</title>
<path fill="none" stroke="black" stroke-width="3" d="M1604.79,-242.64C1616.2,-242.64 1621.47,-244.15 1629.33,-245.03"/>
<polygon fill="black" stroke="black" stroke-width="3" points="1626.08,-248.36 1636.26,-245.4 1626.45,-241.37 1626.08,-248.36"/>
</g>
<!-- x8&#45;&gt;n6 -->
<g id="edge23" class="edge">
<title>x8:e&#45;&gt;n6:w</title>
<path fill="none" stroke="black" stroke-width="3" d="M1716.79,-245.89C1732.05,-245.89 1733.36,-261.57 1742.08,-268.92"/>
<polygon fill="black" stroke="black" stroke-width="3" points="1737.91,-271.17 1748.5,-271.15 1740.2,-264.56 1737.91,-271.17"/>
</g>
</g>
</svg>
