<?xml version="1.0" encoding="UTF-8" standalone="no"?>
<!DOCTYPE svg PUBLIC "-//W3C//DTD SVG 1.1//EN"
 "http://www.w3.org/Graphics/SVG/1.1/DTD/svg11.dtd">
<!-- Generated by graphviz version 12.2.1 (20241206.2353)
 -->
<!-- Title: top Pages: 1 -->
<svg width="1057pt" height="150pt"
 viewBox="0.00 0.00 1057.16 149.50" xmlns="http://www.w3.org/2000/svg" xmlns:xlink="http://www.w3.org/1999/xlink">
<g id="graph0" class="graph" transform="scale(1 1) rotate(0) translate(4 145.5)">
<title>top</title>
<polygon fill="white" stroke="none" points="-4,4 -4,-145.5 1053.16,-145.5 1053.16,4 -4,4"/>
<text text-anchor="middle" x="524.58" y="-7.2" font-family="Times,serif" font-size="14.00">top</text>
<!-- n2 -->
<g id="node1" class="node">
<title>n2</title>
<polygon fill="none" stroke="black" points="107.84,-76.04 107.84,-90.96 76.26,-101.5 31.59,-101.5 0,-90.96 0,-76.04 31.59,-65.5 76.26,-65.5 107.84,-76.04"/>
<text text-anchor="middle" x="53.92" y="-78.45" font-family="Times,serif" font-size="14.00">input_data</text>
</g>
<!-- c9 -->
<g id="node5" class="node">
<title>c9</title>
<polygon fill="none" stroke="black" points="143.84,-92 143.84,-141 237.59,-141 237.59,-92 143.84,-92"/>
<text text-anchor="middle" x="156.72" y="-123.7" font-family="Times,serif" font-size="14.00">A</text>
<polyline fill="none" stroke="black" points="143.84,-116.5 169.59,-116.5"/>
<text text-anchor="middle" x="156.72" y="-99.2" font-family="Times,serif" font-size="14.00">B</text>
<polyline fill="none" stroke="black" points="169.59,-92 169.59,-141"/>
<text text-anchor="middle" x="190.72" y="-119.7" font-family="Times,serif" font-size="14.00">$1</text>
<text text-anchor="middle" x="190.72" y="-103.2" font-family="Times,serif" font-size="14.00">$add</text>
<polyline fill="none" stroke="black" points="211.84,-92 211.84,-141"/>
<text text-anchor="middle" x="224.72" y="-111.7" font-family="Times,serif" font-size="14.00">Y</text>
</g>
<!-- n2&#45;&gt;c9 -->
<g id="edge4" class="edge">
<title>n2:e&#45;&gt;c9:w</title>
<path fill="none" stroke="black" stroke-width="3" d="M107.84,-83.5C128.72,-83.5 122.47,-113.37 133.18,-124.57"/>
<polygon fill="black" stroke="black" stroke-width="3" points="129.03,-126.71 139.61,-127.09 131.58,-120.19 129.03,-126.71"/>
</g>
<!-- n2&#45;&gt;c9 -->
<g id="edge5" class="edge">
<title>n2:e&#45;&gt;c9:w</title>
<path fill="none" stroke="black" stroke-width="3" d="M107.84,-83.5C121.69,-83.5 124.63,-95.17 133.02,-101.01"/>
<polygon fill="black" stroke="black" stroke-width="3" points="128.91,-103.43 139.49,-102.95 130.92,-96.72 128.91,-103.43"/>
</g>
<!-- c10 -->
<g id="node6" class="node">
<title>c10</title>
<polygon fill="none" stroke="black" points="552.09,-25 552.09,-74 645.84,-74 645.84,-25 552.09,-25"/>
<text text-anchor="middle" x="564.97" y="-56.7" font-family="Times,serif" font-size="14.00">A</text>
<polyline fill="none" stroke="black" points="552.09,-49.5 577.84,-49.5"/>
<text text-anchor="middle" x="564.97" y="-32.2" font-family="Times,serif" font-size="14.00">B</text>
<polyline fill="none" stroke="black" points="577.84,-25 577.84,-74"/>
<text text-anchor="middle" x="598.97" y="-52.7" font-family="Times,serif" font-size="14.00">$3</text>
<text text-anchor="middle" x="598.97" y="-36.2" font-family="Times,serif" font-size="14.00">$add</text>
<polyline fill="none" stroke="black" points="620.09,-25 620.09,-74"/>
<text text-anchor="middle" x="632.97" y="-44.7" font-family="Times,serif" font-size="14.00">Y</text>
</g>
<!-- n2&#45;&gt;c10 -->
<g id="edge2" class="edge">
<title>n2:e&#45;&gt;c10:w</title>
<path fill="none" stroke="black" stroke-width="3" d="M107.84,-83.5C125.93,-83.5 126.66,-70.18 143.84,-64.5 199.24,-46.19 215.48,-49.71 273.59,-44.5 393.06,-33.78 426.22,-37.03 540.75,-37.24"/>
<polygon fill="black" stroke="black" stroke-width="3" points="537.55,-40.74 547.55,-37.25 537.55,-33.74 537.55,-40.74"/>
</g>
<!-- c11 -->
<g id="node7" class="node">
<title>c11</title>
<polygon fill="none" stroke="black" points="273.59,-54 273.59,-103 369.59,-103 369.59,-54 273.59,-54"/>
<text text-anchor="middle" x="286.47" y="-85.7" font-family="Times,serif" font-size="14.00">A</text>
<polyline fill="none" stroke="black" points="273.59,-78.5 299.34,-78.5"/>
<text text-anchor="middle" x="286.47" y="-61.2" font-family="Times,serif" font-size="14.00">B</text>
<polyline fill="none" stroke="black" points="299.34,-54 299.34,-103"/>
<text text-anchor="middle" x="321.59" y="-81.7" font-family="Times,serif" font-size="14.00">$2</text>
<text text-anchor="middle" x="321.59" y="-65.2" font-family="Times,serif" font-size="14.00">$mul</text>
<polyline fill="none" stroke="black" points="343.84,-54 343.84,-103"/>
<text text-anchor="middle" x="356.72" y="-73.7" font-family="Times,serif" font-size="14.00">Y</text>
</g>
<!-- n2&#45;&gt;c11 -->
<g id="edge3" class="edge">
<title>n2:e&#45;&gt;c11:w</title>
<path fill="none" stroke="black" stroke-width="3" d="M107.84,-83.5C178,-83.5 197.51,-68.02 262.33,-66.39"/>
<polygon fill="black" stroke="black" stroke-width="3" points="259.09,-69.93 269.05,-66.31 259.01,-62.93 259.09,-69.93"/>
</g>
<!-- n3 -->
<g id="node2" class="node">
<title>n3</title>
<polygon fill="none" stroke="black" points="1049.16,-54.04 1049.16,-68.96 1014.65,-79.5 965.85,-79.5 931.34,-68.96 931.34,-54.04 965.85,-43.5 1014.65,-43.5 1049.16,-54.04"/>
<text text-anchor="middle" x="990.25" y="-56.45" font-family="Times,serif" font-size="14.00">output_data</text>
</g>
<!-- n4 -->
<g id="node3" class="node">
<title>n4</title>
<polygon fill="none" stroke="black" points="460.84,-92.5 405.59,-74.5 460.84,-56.5 516.09,-74.5 460.84,-92.5"/>
<text text-anchor="middle" x="460.84" y="-69.45" font-family="Times,serif" font-size="14.00">temp_0</text>
</g>
<!-- n4&#45;&gt;c10 -->
<g id="edge8" class="edge">
<title>n4:e&#45;&gt;c10:w</title>
<path fill="none" stroke="black" stroke-width="3" d="M516.09,-74.5C528.42,-74.5 532.88,-67.77 540.9,-64.09"/>
<polygon fill="black" stroke="black" stroke-width="3" points="538.58,-68.15 547.65,-62.68 537.14,-61.3 538.58,-68.15"/>
</g>
<!-- n5 -->
<g id="node4" class="node">
<title>n5</title>
<polygon fill="none" stroke="black" points="737.09,-67.5 681.84,-49.5 737.09,-31.5 792.34,-49.5 737.09,-67.5"/>
<text text-anchor="middle" x="737.09" y="-44.45" font-family="Times,serif" font-size="14.00">temp_2</text>
</g>
<!-- x0 -->
<g id="node8" class="node">
<title>x0</title>
<path fill="none" stroke="black" d="M840.34,-37C840.34,-37 883.34,-37 883.34,-37 889.34,-37 895.34,-43 895.34,-49 895.34,-49 895.34,-74 895.34,-74 895.34,-80 889.34,-86 883.34,-86 883.34,-86 840.34,-86 840.34,-86 834.34,-86 828.34,-80 828.34,-74 828.34,-74 828.34,-49 828.34,-49 828.34,-43 834.34,-37 840.34,-37"/>
<text text-anchor="middle" x="861.84" y="-68.7" font-family="Times,serif" font-size="14.00">0 &#45;&gt; 19:8</text>
<polyline fill="none" stroke="black" points="828.34,-61.5 895.34,-61.5"/>
<text text-anchor="middle" x="861.84" y="-44.2" font-family="Times,serif" font-size="14.00">7:0 &#45; 7:0</text>
</g>
<!-- n5&#45;&gt;x0 -->
<g id="edge10" class="edge">
<title>n5:e&#45;&gt;x0:w</title>
<path fill="none" stroke="black" stroke-width="3" d="M792.34,-49.5C803.72,-49.5 809.03,-49.37 816.9,-49.3"/>
<polygon fill="black" stroke="black" stroke-width="3" points="813.82,-52.81 823.8,-49.27 813.79,-45.81 813.82,-52.81"/>
</g>
<!-- c9&#45;&gt;c11 -->
<g id="edge1" class="edge">
<title>c9:e&#45;&gt;c11:w</title>
<path fill="none" stroke="black" stroke-width="3" d="M237.59,-116.75C252.7,-116.75 254.21,-101.51 262.94,-94.37"/>
<polygon fill="black" stroke="black" stroke-width="3" points="260.95,-98.74 269.29,-92.21 258.7,-92.11 260.95,-98.74"/>
</g>
<!-- c10&#45;&gt;n5 -->
<g id="edge9" class="edge">
<title>c10:e&#45;&gt;n5:w</title>
<path fill="none" stroke="black" stroke-width="3" d="M645.84,-49.75C657.22,-49.75 662.53,-49.62 670.4,-49.55"/>
<polygon fill="black" stroke="black" stroke-width="3" points="667.32,-53.06 677.3,-49.52 667.29,-46.06 667.32,-53.06"/>
</g>
<!-- c11&#45;&gt;n4 -->
<g id="edge7" class="edge">
<title>c11:e&#45;&gt;n4:w</title>
<path fill="none" stroke="black" stroke-width="3" d="M369.59,-78.75C381.04,-78.75 386.27,-76.6 394.12,-75.36"/>
<polygon fill="black" stroke="black" stroke-width="3" points="391.35,-79.08 401.06,-74.84 390.83,-72.1 391.35,-79.08"/>
</g>
<!-- x0&#45;&gt;n3 -->
<g id="edge6" class="edge">
<title>x0:e&#45;&gt;n3:w</title>
<path fill="none" stroke="black" stroke-width="3" d="M895.34,-61.5C906.72,-61.5 912.03,-61.5 919.9,-61.5"/>
<polygon fill="black" stroke="black" stroke-width="3" points="916.8,-65 926.8,-61.5 916.8,-58 916.8,-65"/>
</g>
</g>
</svg>
