<?xml version="1.0" encoding="UTF-8" standalone="no"?>
<!DOCTYPE svg PUBLIC "-//W3C//DTD SVG 1.1//EN"
 "http://www.w3.org/Graphics/SVG/1.1/DTD/svg11.dtd">
<!-- Generated by graphviz version 12.2.1 (20241206.2353)
 -->
<!-- Title: top Pages: 1 -->
<svg width="457pt" height="123pt"
 viewBox="0.00 0.00 456.63 122.50" xmlns="http://www.w3.org/2000/svg" xmlns:xlink="http://www.w3.org/1999/xlink">
<g id="graph0" class="graph" transform="scale(1 1) rotate(0) translate(4 118.5)">
<title>top</title>
<polygon fill="white" stroke="none" points="-4,4 -4,-118.5 452.63,-118.5 452.63,4 -4,4"/>
<text text-anchor="middle" x="224.32" y="-7.2" font-family="Times,serif" font-size="14.00">top</text>
<!-- n1 -->
<g id="node1" class="node">
<title>n1</title>
<polygon fill="none" stroke="black" points="181.53,-35.04 181.53,-49.96 149.95,-60.5 105.28,-60.5 73.69,-49.96 73.69,-35.04 105.28,-24.5 149.95,-24.5 181.53,-35.04"/>
<text text-anchor="middle" x="127.61" y="-37.45" font-family="Times,serif" font-size="14.00">input_data</text>
</g>
<!-- n2 -->
<g id="node2" class="node">
<title>n2</title>
<polygon fill="none" stroke="black" points="448.63,-89.04 448.63,-103.96 414.13,-114.5 365.33,-114.5 330.82,-103.96 330.82,-89.04 365.33,-78.5 414.13,-78.5 448.63,-89.04"/>
<text text-anchor="middle" x="389.73" y="-91.45" font-family="Times,serif" font-size="14.00">output_data</text>
</g>
<!-- v0 -->
<g id="node3" class="node">
<title>v0</title>
<ellipse fill="none" stroke="black" cx="127.61" cy="-96.5" rx="127.61" ry="18"/>
<text text-anchor="middle" x="127.61" y="-91.45" font-family="Times,serif" font-size="14.00">23&#39;00000000000000000000000</text>
</g>
<!-- x1 -->
<g id="node4" class="node">
<title>x1</title>
<ellipse fill="black" stroke="black" cx="293.02" cy="-96.5" rx="1.8" ry="1.8"/>
</g>
<!-- v0&#45;&gt;x1 -->
<g id="edge2" class="edge">
<title>v0:e&#45;&gt;x1:w</title>
<path fill="none" stroke="black" stroke-width="3" d="M255.22,-96.5C266.6,-96.5 271.91,-96.5 279.78,-96.5"/>
<polygon fill="black" stroke="black" stroke-width="3" points="276.68,-100 286.68,-96.5 276.68,-93 276.68,-100"/>
</g>
<!-- x1&#45;&gt;n2 -->
<g id="edge1" class="edge">
<title>x1:e&#45;&gt;n2:w</title>
<path fill="none" stroke="black" stroke-width="3" d="M294.82,-96.5C306.2,-96.5 311.51,-96.5 319.38,-96.5"/>
<polygon fill="black" stroke="black" stroke-width="3" points="316.28,-100 326.28,-96.5 316.28,-93 316.28,-100"/>
</g>
</g>
</svg>
