<?xml version="1.0" encoding="UTF-8" standalone="no"?>
<!DOCTYPE svg PUBLIC "-//W3C//DTD SVG 1.1//EN"
 "http://www.w3.org/Graphics/SVG/1.1/DTD/svg11.dtd">
<!-- Generated by graphviz version 12.2.1 (20241206.2353)
 -->
<!-- Title: top Pages: 1 -->
<svg width="3119pt" height="651pt"
 viewBox="0.00 0.00 3119.43 650.50" xmlns="http://www.w3.org/2000/svg" xmlns:xlink="http://www.w3.org/1999/xlink">
<g id="graph0" class="graph" transform="scale(1 1) rotate(0) translate(4 646.5)">
<title>top</title>
<polygon fill="white" stroke="none" points="-4,4 -4,-646.5 3115.43,-646.5 3115.43,4 -4,4"/>
<text text-anchor="middle" x="1555.71" y="-7.2" font-family="Times,serif" font-size="14.00">top</text>
<!-- n6 -->
<g id="node1" class="node">
<title>n6</title>
<polygon fill="none" stroke="black" points="107.84,-443.04 107.84,-457.96 76.26,-468.5 31.59,-468.5 0,-457.96 0,-443.04 31.59,-432.5 76.26,-432.5 107.84,-443.04"/>
<text text-anchor="middle" x="53.92" y="-445.45" font-family="Times,serif" font-size="14.00">input_data</text>
</g>
<!-- c14 -->
<g id="node6" class="node">
<title>c14</title>
<polygon fill="none" stroke="black" points="633.59,-527 633.59,-576 727.34,-576 727.34,-527 633.59,-527"/>
<text text-anchor="middle" x="646.47" y="-558.7" font-family="Times,serif" font-size="14.00">A</text>
<polyline fill="none" stroke="black" points="633.59,-551.5 659.34,-551.5"/>
<text text-anchor="middle" x="646.47" y="-534.2" font-family="Times,serif" font-size="14.00">B</text>
<polyline fill="none" stroke="black" points="659.34,-527 659.34,-576"/>
<text text-anchor="middle" x="680.47" y="-554.7" font-family="Times,serif" font-size="14.00">$4</text>
<text text-anchor="middle" x="680.47" y="-538.2" font-family="Times,serif" font-size="14.00">$add</text>
<polyline fill="none" stroke="black" points="701.59,-527 701.59,-576"/>
<text text-anchor="middle" x="714.47" y="-546.7" font-family="Times,serif" font-size="14.00">Y</text>
</g>
<!-- n6&#45;&gt;c14 -->
<g id="edge38" class="edge">
<title>n6:e&#45;&gt;c14:w</title>
<path fill="none" stroke="black" stroke-width="3" d="M107.84,-450.5C167.79,-450.5 103.64,-536.02 143.84,-580.5 194.76,-636.85 227.14,-642.5 303.09,-642.5 303.09,-642.5 303.09,-642.5 427.59,-642.5 508.02,-642.5 523.29,-611.27 597.59,-580.5 609.57,-575.54 613.85,-568.83 622.27,-565.62"/>
<polygon fill="black" stroke="black" stroke-width="3" points="619.82,-569.57 629.11,-564.49 618.68,-562.66 619.82,-569.57"/>
</g>
<!-- c18 -->
<g id="node20" class="node">
<title>c18</title>
<polygon fill="none" stroke="black" points="763.34,-486 763.34,-535 859.34,-535 859.34,-486 763.34,-486"/>
<text text-anchor="middle" x="776.22" y="-517.7" font-family="Times,serif" font-size="14.00">A</text>
<polyline fill="none" stroke="black" points="763.34,-510.5 789.09,-510.5"/>
<text text-anchor="middle" x="776.22" y="-493.2" font-family="Times,serif" font-size="14.00">B</text>
<polyline fill="none" stroke="black" points="789.09,-486 789.09,-535"/>
<text text-anchor="middle" x="811.34" y="-513.7" font-family="Times,serif" font-size="14.00">$5</text>
<text text-anchor="middle" x="811.34" y="-497.2" font-family="Times,serif" font-size="14.00">$mul</text>
<polyline fill="none" stroke="black" points="833.59,-486 833.59,-535"/>
<text text-anchor="middle" x="846.47" y="-505.7" font-family="Times,serif" font-size="14.00">Y</text>
</g>
<!-- n6&#45;&gt;c18 -->
<g id="edge39" class="edge">
<title>n6:e&#45;&gt;c18:w</title>
<path fill="none" stroke="black" stroke-width="3" d="M107.84,-450.5C126.59,-450.5 127.77,-462.85 143.84,-472.5 214.3,-514.82 220.9,-566.5 303.09,-566.5 303.09,-566.5 303.09,-566.5 427.59,-566.5 503.62,-566.5 527.66,-577.32 597.59,-547.5 616.75,-539.33 614.58,-526.01 633.59,-517.5 683.16,-495.3 702.39,-497.76 751.92,-498.2"/>
<polygon fill="black" stroke="black" stroke-width="3" points="748.78,-501.68 758.8,-498.23 748.82,-494.68 748.78,-501.68"/>
</g>
<!-- c19 -->
<g id="node21" class="node">
<title>c19</title>
<polygon fill="none" stroke="black" points="2230.79,-163 2230.79,-212 2317.79,-212 2317.79,-163 2230.79,-163"/>
<text text-anchor="middle" x="2243.67" y="-194.7" font-family="Times,serif" font-size="14.00">A</text>
<polyline fill="none" stroke="black" points="2230.79,-187.5 2256.54,-187.5"/>
<text text-anchor="middle" x="2243.67" y="-170.2" font-family="Times,serif" font-size="14.00">B</text>
<polyline fill="none" stroke="black" points="2256.54,-163 2256.54,-212"/>
<text text-anchor="middle" x="2274.29" y="-190.7" font-family="Times,serif" font-size="14.00">$9</text>
<text text-anchor="middle" x="2274.29" y="-174.2" font-family="Times,serif" font-size="14.00">$ne</text>
<polyline fill="none" stroke="black" points="2292.04,-163 2292.04,-212"/>
<text text-anchor="middle" x="2304.92" y="-182.7" font-family="Times,serif" font-size="14.00">Y</text>
</g>
<!-- n6&#45;&gt;c19 -->
<g id="edge40" class="edge">
<title>n6:e&#45;&gt;c19:w</title>
<path fill="none" stroke="black" stroke-width="3" d="M107.84,-450.5C133.47,-450.5 277.46,-32.5 303.09,-32.5 303.09,-32.5 303.09,-32.5 427.59,-32.5 1006.7,-32.5 1149.54,-103.5 1728.64,-103.5 1728.64,-103.5 1728.64,-103.5 1799.69,-103.5 1990.04,-103.5 2034.79,-172.41 2219.31,-175.16"/>
<polygon fill="black" stroke="black" stroke-width="3" points="2216.23,-178.64 2226.25,-175.22 2216.28,-171.64 2216.23,-178.64"/>
</g>
<!-- c20 -->
<g id="node24" class="node">
<title>c20</title>
<polygon fill="none" stroke="black" points="143.84,-414 143.84,-463 236.84,-463 236.84,-414 143.84,-414"/>
<text text-anchor="middle" x="156.72" y="-445.7" font-family="Times,serif" font-size="14.00">A</text>
<polyline fill="none" stroke="black" points="143.84,-438.5 169.59,-438.5"/>
<text text-anchor="middle" x="156.72" y="-421.2" font-family="Times,serif" font-size="14.00">B</text>
<polyline fill="none" stroke="black" points="169.59,-414 169.59,-463"/>
<text text-anchor="middle" x="190.34" y="-441.7" font-family="Times,serif" font-size="14.00">$1</text>
<text text-anchor="middle" x="190.34" y="-425.2" font-family="Times,serif" font-size="14.00">$sub</text>
<polyline fill="none" stroke="black" points="211.09,-414 211.09,-463"/>
<text text-anchor="middle" x="223.97" y="-433.7" font-family="Times,serif" font-size="14.00">Y</text>
</g>
<!-- n6&#45;&gt;c20 -->
<g id="edge41" class="edge">
<title>n6:e&#45;&gt;c20:w</title>
<path fill="none" stroke="black" stroke-width="3" d="M107.84,-450.5C119.22,-450.5 124.53,-450.63 132.39,-450.7"/>
<polygon fill="black" stroke="black" stroke-width="3" points="129.28,-454.19 139.3,-450.73 129.32,-447.19 129.28,-454.19"/>
</g>
<!-- n6&#45;&gt;c20 -->
<g id="edge42" class="edge">
<title>n6:e&#45;&gt;c20:w</title>
<path fill="none" stroke="black" stroke-width="3" d="M107.84,-450.5C122.46,-450.5 124.52,-436.57 133.05,-429.83"/>
<polygon fill="black" stroke="black" stroke-width="3" points="131.14,-434.15 139.53,-427.68 128.94,-427.51 131.14,-434.15"/>
</g>
<!-- n7 -->
<g id="node2" class="node">
<title>n7</title>
<polygon fill="none" stroke="black" points="3111.43,-65.04 3111.43,-79.96 3076.92,-90.5 3028.12,-90.5 2993.62,-79.96 2993.62,-65.04 3028.12,-54.5 3076.92,-54.5 3111.43,-65.04"/>
<text text-anchor="middle" x="3052.52" y="-67.45" font-family="Times,serif" font-size="14.00">output_data</text>
</g>
<!-- n8 -->
<g id="node3" class="node">
<title>n8</title>
<polygon fill="none" stroke="black" points="426.59,-370.5 371.34,-352.5 426.59,-334.5 481.84,-352.5 426.59,-370.5"/>
<text text-anchor="middle" x="426.59" y="-347.45" font-family="Times,serif" font-size="14.00">temp_1</text>
</g>
<!-- x0 -->
<g id="node7" class="node">
<title>x0</title>
<path fill="none" stroke="black" d="M529.84,-489C529.84,-489 585.59,-489 585.59,-489 591.59,-489 597.59,-495 597.59,-501 597.59,-501 597.59,-526 597.59,-526 597.59,-532 591.59,-538 585.59,-538 585.59,-538 529.84,-538 529.84,-538 523.84,-538 517.84,-532 517.84,-526 517.84,-526 517.84,-501 517.84,-501 517.84,-495 523.84,-489 529.84,-489"/>
<text text-anchor="middle" x="557.72" y="-520.7" font-family="Times,serif" font-size="14.00">6x 8:8 &#45; 8:3</text>
<polyline fill="none" stroke="black" points="517.84,-513.5 597.59,-513.5"/>
<text text-anchor="middle" x="557.72" y="-496.2" font-family="Times,serif" font-size="14.00">2:0 &#45; 2:0</text>
</g>
<!-- n8&#45;&gt;x0 -->
<g id="edge48" class="edge">
<title>n8:e&#45;&gt;x0:w</title>
<path fill="none" stroke="black" stroke-width="3" d="M481.84,-352.5C545.48,-352.5 462.02,-482.69 506.69,-499.48"/>
<polygon fill="black" stroke="black" stroke-width="3" points="502.93,-502.42 513.36,-500.54 504.03,-495.51 502.93,-502.42"/>
</g>
<!-- n8&#45;&gt;x0 -->
<g id="edge49" class="edge">
<title>n8:e&#45;&gt;x0:w</title>
<path fill="none" stroke="black" stroke-width="3" d="M481.84,-352.5C556.19,-352.5 451.87,-507.32 506.67,-524.25"/>
<polygon fill="black" stroke="black" stroke-width="3" points="502.97,-527.29 513.34,-525.15 503.9,-520.35 502.97,-527.29"/>
</g>
<!-- x1 -->
<g id="node9" class="node">
<title>x1</title>
<path fill="none" stroke="black" d="M538.47,-303.75C538.47,-303.75 576.97,-303.75 576.97,-303.75 582.97,-303.75 588.97,-309.75 588.97,-315.75 588.97,-315.75 588.97,-365.25 588.97,-365.25 588.97,-371.25 582.97,-377.25 576.97,-377.25 576.97,-377.25 538.47,-377.25 538.47,-377.25 532.47,-377.25 526.47,-371.25 526.47,-365.25 526.47,-365.25 526.47,-315.75 526.47,-315.75 526.47,-309.75 532.47,-303.75 538.47,-303.75"/>
<text text-anchor="middle" x="557.72" y="-359.95" font-family="Times,serif" font-size="14.00">0:0 &#45; 3:3</text>
<polyline fill="none" stroke="black" points="526.47,-352.75 588.97,-352.75"/>
<text text-anchor="middle" x="557.72" y="-335.45" font-family="Times,serif" font-size="14.00">8:8 &#45; 2:2</text>
<polyline fill="none" stroke="black" points="526.47,-328.25 588.97,-328.25"/>
<text text-anchor="middle" x="557.72" y="-310.95" font-family="Times,serif" font-size="14.00">2:1 &#45; 1:0</text>
</g>
<!-- n8&#45;&gt;x1 -->
<g id="edge52" class="edge">
<title>n8:e&#45;&gt;x1:w</title>
<path fill="none" stroke="black" stroke-width="3" d="M481.84,-352.5C502.58,-352.5 501.64,-327.94 514.59,-319.11"/>
<polygon fill="black" stroke="black" stroke-width="3" points="512.45,-323.36 521.1,-317.25 510.52,-316.63 512.45,-323.36"/>
</g>
<!-- n8&#45;&gt;x1 -->
<g id="edge53" class="edge">
<title>n8:e&#45;&gt;x1:w</title>
<path fill="none" stroke="black" d="M481.84,-352.5C497.55,-352.5 503.07,-345.18 514.32,-341.97"/>
<polygon fill="black" stroke="black" points="514.51,-345.48 523.97,-340.7 513.59,-338.54 514.51,-345.48"/>
</g>
<!-- n8&#45;&gt;x1 -->
<g id="edge54" class="edge">
<title>n8:e&#45;&gt;x1:w</title>
<path fill="none" stroke="black" d="M481.84,-352.5C497.6,-352.5 503.05,-360.13 514.3,-363.47"/>
<polygon fill="black" stroke="black" points="513.58,-366.9 523.97,-364.79 514.54,-359.97 513.58,-366.9"/>
</g>
<!-- x2 -->
<g id="node10" class="node">
<title>x2</title>
<path fill="none" stroke="black" d="M538.47,-210.75C538.47,-210.75 576.97,-210.75 576.97,-210.75 582.97,-210.75 588.97,-216.75 588.97,-222.75 588.97,-222.75 588.97,-272.25 588.97,-272.25 588.97,-278.25 582.97,-284.25 576.97,-284.25 576.97,-284.25 538.47,-284.25 538.47,-284.25 532.47,-284.25 526.47,-278.25 526.47,-272.25 526.47,-272.25 526.47,-222.75 526.47,-222.75 526.47,-216.75 532.47,-210.75 538.47,-210.75"/>
<text text-anchor="middle" x="557.72" y="-266.95" font-family="Times,serif" font-size="14.00">0:0 &#45; 3:3</text>
<polyline fill="none" stroke="black" points="526.47,-259.75 588.97,-259.75"/>
<text text-anchor="middle" x="557.72" y="-242.45" font-family="Times,serif" font-size="14.00">8:8 &#45; 2:2</text>
<polyline fill="none" stroke="black" points="526.47,-235.25 588.97,-235.25"/>
<text text-anchor="middle" x="557.72" y="-217.95" font-family="Times,serif" font-size="14.00">2:1 &#45; 1:0</text>
</g>
<!-- n8&#45;&gt;x2 -->
<g id="edge56" class="edge">
<title>n8:e&#45;&gt;x2:w</title>
<path fill="none" stroke="black" stroke-width="3" d="M481.84,-352.5C538.31,-352.5 474.99,-240.57 514.61,-224.83"/>
<polygon fill="black" stroke="black" stroke-width="3" points="511.71,-228.87 520.99,-223.76 510.55,-221.97 511.71,-228.87"/>
</g>
<!-- n8&#45;&gt;x2 -->
<g id="edge57" class="edge">
<title>n8:e&#45;&gt;x2:w</title>
<path fill="none" stroke="black" d="M481.84,-352.5C527.84,-352.5 484.38,-265.52 514.3,-249.89"/>
<polygon fill="black" stroke="black" points="514.94,-253.33 523.99,-247.82 513.48,-246.49 514.94,-253.33"/>
</g>
<!-- n8&#45;&gt;x2 -->
<g id="edge58" class="edge">
<title>n8:e&#45;&gt;x2:w</title>
<path fill="none" stroke="black" d="M481.84,-352.5C517.93,-352.5 492.32,-289.21 514.43,-274.87"/>
<polygon fill="black" stroke="black" points="515.2,-278.28 524,-272.38 513.44,-271.51 515.2,-278.28"/>
</g>
<!-- x5 -->
<g id="node14" class="node">
<title>x5</title>
<path fill="none" stroke="black" d="M529.84,-396.75C529.84,-396.75 585.59,-396.75 585.59,-396.75 591.59,-396.75 597.59,-402.75 597.59,-408.75 597.59,-408.75 597.59,-458.25 597.59,-458.25 597.59,-464.25 591.59,-470.25 585.59,-470.25 585.59,-470.25 529.84,-470.25 529.84,-470.25 523.84,-470.25 517.84,-464.25 517.84,-458.25 517.84,-458.25 517.84,-408.75 517.84,-408.75 517.84,-402.75 523.84,-396.75 529.84,-396.75"/>
<text text-anchor="middle" x="557.72" y="-452.95" font-family="Times,serif" font-size="14.00">0:0 &#45; 5:5</text>
<polyline fill="none" stroke="black" points="517.84,-445.75 597.59,-445.75"/>
<text text-anchor="middle" x="557.72" y="-428.45" font-family="Times,serif" font-size="14.00">3x 8:8 &#45; 4:2</text>
<polyline fill="none" stroke="black" points="517.84,-421.25 597.59,-421.25"/>
<text text-anchor="middle" x="557.72" y="-403.95" font-family="Times,serif" font-size="14.00">2:1 &#45; 1:0</text>
</g>
<!-- n8&#45;&gt;x5 -->
<g id="edge59" class="edge">
<title>n8:e&#45;&gt;x5:w</title>
<path fill="none" stroke="black" stroke-width="3" d="M481.84,-352.5C506.96,-352.5 494.12,-392.72 507.38,-405.29"/>
<polygon fill="black" stroke="black" stroke-width="3" points="502.97,-407.44 513.56,-407.48 505.31,-400.84 502.97,-407.44"/>
</g>
<!-- n8&#45;&gt;x5 -->
<g id="edge60" class="edge">
<title>n8:e&#45;&gt;x5:w</title>
<path fill="none" stroke="black" stroke-width="3" d="M481.84,-352.5C516.47,-352.5 487.6,-415.07 506.85,-430.22"/>
<polygon fill="black" stroke="black" stroke-width="3" points="502.91,-432.7 513.49,-432.2 504.91,-425.99 502.91,-432.7"/>
</g>
<!-- n8&#45;&gt;x5 -->
<g id="edge61" class="edge">
<title>n8:e&#45;&gt;x5:w</title>
<path fill="none" stroke="black" d="M481.84,-352.5C526.74,-352.5 479.14,-439.15 506.69,-455.39"/>
<polygon fill="black" stroke="black" points="505.83,-458.79 516.37,-457.66 507.43,-451.97 505.83,-458.79"/>
</g>
<!-- x10 -->
<g id="node22" class="node">
<title>x10</title>
<path fill="none" stroke="black" d="M2144.29,-264C2144.29,-264 2182.79,-264 2182.79,-264 2188.79,-264 2194.79,-270 2194.79,-276 2194.79,-276 2194.79,-301 2194.79,-301 2194.79,-307 2188.79,-313 2182.79,-313 2182.79,-313 2144.29,-313 2144.29,-313 2138.29,-313 2132.29,-307 2132.29,-301 2132.29,-301 2132.29,-276 2132.29,-276 2132.29,-270 2138.29,-264 2144.29,-264"/>
<text text-anchor="middle" x="2163.54" y="-295.7" font-family="Times,serif" font-size="14.00">8:8 &#45; 6:6</text>
<polyline fill="none" stroke="black" points="2132.29,-288.5 2194.79,-288.5"/>
<text text-anchor="middle" x="2163.54" y="-271.2" font-family="Times,serif" font-size="14.00">5:0 &#45; 5:0</text>
</g>
<!-- n8&#45;&gt;x10 -->
<g id="edge50" class="edge">
<title>n8:e&#45;&gt;x10:w</title>
<path fill="none" stroke="black" d="M481.84,-352.5C569.97,-352.5 460.59,-480.5 517.84,-547.5 567.33,-605.41 603.3,-604.5 679.47,-604.5 679.47,-604.5 679.47,-604.5 2026.44,-604.5 2165.36,-604.5 1999.27,-317.71 2120.91,-301.47"/>
<polygon fill="black" stroke="black" points="2121.02,-304.97 2130.78,-300.85 2120.58,-297.98 2121.02,-304.97"/>
</g>
<!-- x19 -->
<g id="node33" class="node">
<title>x19</title>
<path fill="none" stroke="black" d="M529.84,-61.5C529.84,-61.5 585.59,-61.5 585.59,-61.5 591.59,-61.5 597.59,-67.5 597.59,-73.5 597.59,-73.5 597.59,-85.5 597.59,-85.5 597.59,-91.5 591.59,-97.5 585.59,-97.5 585.59,-97.5 529.84,-97.5 529.84,-97.5 523.84,-97.5 517.84,-91.5 517.84,-85.5 517.84,-85.5 517.84,-73.5 517.84,-73.5 517.84,-67.5 523.84,-61.5 529.84,-61.5"/>
<text text-anchor="middle" x="557.72" y="-74.7" font-family="Times,serif" font-size="14.00">5x 8:8 &#45; 4:0</text>
</g>
<!-- n8&#45;&gt;x19 -->
<g id="edge51" class="edge">
<title>n8:e&#45;&gt;x19:w</title>
<path fill="none" stroke="black" stroke-width="3" d="M481.84,-352.5C538.68,-352.5 468.11,-116.76 507.03,-83.61"/>
<polygon fill="black" stroke="black" stroke-width="3" points="505.32,-87.93 513.57,-81.28 502.97,-81.34 505.32,-87.93"/>
</g>
<!-- x23 -->
<g id="node37" class="node">
<title>x23</title>
<path fill="none" stroke="black" d="M538.47,-155.5C538.47,-155.5 576.97,-155.5 576.97,-155.5 582.97,-155.5 588.97,-161.5 588.97,-167.5 588.97,-167.5 588.97,-179.5 588.97,-179.5 588.97,-185.5 582.97,-191.5 576.97,-191.5 576.97,-191.5 538.47,-191.5 538.47,-191.5 532.47,-191.5 526.47,-185.5 526.47,-179.5 526.47,-179.5 526.47,-167.5 526.47,-167.5 526.47,-161.5 532.47,-155.5 538.47,-155.5"/>
<text text-anchor="middle" x="557.72" y="-168.7" font-family="Times,serif" font-size="14.00">8:8 &#45; 0:0</text>
</g>
<!-- n8&#45;&gt;x23 -->
<g id="edge55" class="edge">
<title>n8:e&#45;&gt;x23:w</title>
<path fill="none" stroke="black" d="M481.84,-352.5C559.31,-352.5 455.78,-192.11 514.15,-175.19"/>
<polygon fill="black" stroke="black" points="514.49,-178.67 523.97,-173.94 513.6,-171.73 514.49,-178.67"/>
</g>
<!-- n9 -->
<g id="node4" class="node">
<title>n9</title>
<polygon fill="none" stroke="black" points="950.59,-293.5 895.34,-275.5 950.59,-257.5 1005.84,-275.5 950.59,-293.5"/>
<text text-anchor="middle" x="950.59" y="-270.45" font-family="Times,serif" font-size="14.00">temp_5</text>
</g>
<!-- x13 -->
<g id="node27" class="node">
<title>x13</title>
<path fill="none" stroke="black" d="M1053.84,-278C1053.84,-278 1109.59,-278 1109.59,-278 1115.59,-278 1121.59,-284 1121.59,-290 1121.59,-290 1121.59,-315 1121.59,-315 1121.59,-321 1115.59,-327 1109.59,-327 1109.59,-327 1053.84,-327 1053.84,-327 1047.84,-327 1041.84,-321 1041.84,-315 1041.84,-315 1041.84,-290 1041.84,-290 1041.84,-284 1047.84,-278 1053.84,-278"/>
<text text-anchor="middle" x="1081.72" y="-309.7" font-family="Times,serif" font-size="14.00">3x 5:5 &#45; 5:3</text>
<polyline fill="none" stroke="black" points="1041.84,-302.5 1121.59,-302.5"/>
<text text-anchor="middle" x="1081.72" y="-285.2" font-family="Times,serif" font-size="14.00">2:0 &#45; 2:0</text>
</g>
<!-- n9&#45;&gt;x13 -->
<g id="edge66" class="edge">
<title>n9:e&#45;&gt;x13:w</title>
<path fill="none" stroke="black" stroke-width="3" d="M1005.84,-275.5C1018.54,-275.5 1022.68,-283.45 1030.83,-287.68"/>
<polygon fill="black" stroke="black" stroke-width="3" points="1026.89,-290.36 1037.42,-289.22 1028.48,-283.54 1026.89,-290.36"/>
</g>
<!-- n9&#45;&gt;x13 -->
<g id="edge67" class="edge">
<title>n9:e&#45;&gt;x13:w</title>
<path fill="none" stroke="black" stroke-width="3" d="M1005.84,-275.5C1024.71,-275.5 1021.34,-300.42 1031.17,-310.55"/>
<polygon fill="black" stroke="black" stroke-width="3" points="1027.03,-312.68 1037.62,-313.09 1029.59,-306.17 1027.03,-312.68"/>
</g>
<!-- x25 -->
<g id="node39" class="node">
<title>x25</title>
<path fill="none" stroke="black" d="M1053.84,-184.5C1053.84,-184.5 1109.59,-184.5 1109.59,-184.5 1115.59,-184.5 1121.59,-190.5 1121.59,-196.5 1121.59,-196.5 1121.59,-208.5 1121.59,-208.5 1121.59,-214.5 1115.59,-220.5 1109.59,-220.5 1109.59,-220.5 1053.84,-220.5 1053.84,-220.5 1047.84,-220.5 1041.84,-214.5 1041.84,-208.5 1041.84,-208.5 1041.84,-196.5 1041.84,-196.5 1041.84,-190.5 1047.84,-184.5 1053.84,-184.5"/>
<text text-anchor="middle" x="1081.72" y="-197.7" font-family="Times,serif" font-size="14.00">2x 5:5 &#45; 1:0</text>
</g>
<!-- n9&#45;&gt;x25 -->
<g id="edge68" class="edge">
<title>n9:e&#45;&gt;x25:w</title>
<path fill="none" stroke="black" stroke-width="3" d="M1005.84,-275.5C1037.13,-275.5 1014.1,-220.79 1030.95,-206.26"/>
<polygon fill="black" stroke="black" stroke-width="3" points="1029.08,-210.54 1037.52,-204.14 1026.93,-203.88 1029.08,-210.54"/>
</g>
<!-- n10 -->
<g id="node5" class="node">
<title>n10</title>
<polygon fill="none" stroke="black" points="1439.59,-499.5 1384.34,-481.5 1439.59,-463.5 1494.84,-481.5 1439.59,-499.5"/>
<text text-anchor="middle" x="1439.59" y="-476.45" font-family="Times,serif" font-size="14.00">temp_6</text>
</g>
<!-- x4 -->
<g id="node13" class="node">
<title>x4</title>
<path fill="none" stroke="black" d="M1779.44,-451.75C1779.44,-451.75 1817.94,-451.75 1817.94,-451.75 1823.94,-451.75 1829.94,-457.75 1829.94,-463.75 1829.94,-463.75 1829.94,-513.25 1829.94,-513.25 1829.94,-519.25 1823.94,-525.25 1817.94,-525.25 1817.94,-525.25 1779.44,-525.25 1779.44,-525.25 1773.44,-525.25 1767.44,-519.25 1767.44,-513.25 1767.44,-513.25 1767.44,-463.75 1767.44,-463.75 1767.44,-457.75 1773.44,-451.75 1779.44,-451.75"/>
<text text-anchor="middle" x="1798.69" y="-507.95" font-family="Times,serif" font-size="14.00">0:0 &#45; 5:5</text>
<polyline fill="none" stroke="black" points="1767.44,-500.75 1829.94,-500.75"/>
<text text-anchor="middle" x="1798.69" y="-483.45" font-family="Times,serif" font-size="14.00">4:3 &#45; 4:3</text>
<polyline fill="none" stroke="black" points="1767.44,-476.25 1829.94,-476.25"/>
<text text-anchor="middle" x="1798.69" y="-458.95" font-family="Times,serif" font-size="14.00">3:1 &#45; 2:0</text>
</g>
<!-- n10&#45;&gt;x4 -->
<g id="edge23" class="edge">
<title>n10:e&#45;&gt;x4:w</title>
<path fill="none" stroke="black" stroke-width="3" d="M1494.84,-481.5C1515.11,-481.5 1511.67,-460.08 1530.84,-453.5 1598.53,-430.28 1620.46,-448.57 1691.84,-453.5 1721.59,-455.56 1731.24,-462.11 1756.18,-463.67"/>
<polygon fill="black" stroke="black" stroke-width="3" points="1752.81,-467.07 1762.91,-463.87 1753.01,-460.07 1752.81,-467.07"/>
</g>
<!-- n10&#45;&gt;x4 -->
<g id="edge24" class="edge">
<title>n10:e&#45;&gt;x4:w</title>
<path fill="none" stroke="black" d="M1494.84,-481.5C1515.11,-481.5 1511.72,-502.78 1530.84,-509.5 1626.38,-543.07 1659.79,-515.24 1756.03,-513.12"/>
<polygon fill="black" stroke="black" points="1755.97,-516.63 1765.93,-513.02 1755.89,-509.63 1755.97,-516.63"/>
</g>
<!-- x8 -->
<g id="node18" class="node">
<title>x8</title>
<path fill="none" stroke="black" d="M1779.44,-384C1779.44,-384 1817.94,-384 1817.94,-384 1823.94,-384 1829.94,-390 1829.94,-396 1829.94,-396 1829.94,-421 1829.94,-421 1829.94,-427 1823.94,-433 1817.94,-433 1817.94,-433 1779.44,-433 1779.44,-433 1773.44,-433 1767.44,-427 1767.44,-421 1767.44,-421 1767.44,-396 1767.44,-396 1767.44,-390 1773.44,-384 1779.44,-384"/>
<text text-anchor="middle" x="1798.69" y="-415.7" font-family="Times,serif" font-size="14.00">4:3 &#45; 5:4</text>
<polyline fill="none" stroke="black" points="1767.44,-408.5 1829.94,-408.5"/>
<text text-anchor="middle" x="1798.69" y="-391.2" font-family="Times,serif" font-size="14.00">3:0 &#45; 3:0</text>
</g>
<!-- n10&#45;&gt;x8 -->
<g id="edge25" class="edge">
<title>n10:e&#45;&gt;x8:w</title>
<path fill="none" stroke="black" stroke-width="3" d="M1494.84,-481.5C1520.11,-481.5 1509.03,-450.25 1530.84,-437.5 1619.67,-385.59 1657.91,-395.43 1756.14,-396.2"/>
<polygon fill="black" stroke="black" stroke-width="3" points="1752.89,-399.69 1762.9,-396.23 1752.92,-392.69 1752.89,-399.69"/>
</g>
<!-- x21 -->
<g id="node35" class="node">
<title>x21</title>
<path fill="none" stroke="black" d="M1542.84,-463.5C1542.84,-463.5 1581.34,-463.5 1581.34,-463.5 1587.34,-463.5 1593.34,-469.5 1593.34,-475.5 1593.34,-475.5 1593.34,-487.5 1593.34,-487.5 1593.34,-493.5 1587.34,-499.5 1581.34,-499.5 1581.34,-499.5 1542.84,-499.5 1542.84,-499.5 1536.84,-499.5 1530.84,-493.5 1530.84,-487.5 1530.84,-487.5 1530.84,-475.5 1530.84,-475.5 1530.84,-469.5 1536.84,-463.5 1542.84,-463.5"/>
<text text-anchor="middle" x="1562.09" y="-476.7" font-family="Times,serif" font-size="14.00">3:1 &#45; 2:0</text>
</g>
<!-- n10&#45;&gt;x21 -->
<g id="edge22" class="edge">
<title>n10:e&#45;&gt;x21:w</title>
<path fill="none" stroke="black" stroke-width="3" d="M1494.84,-481.5C1506.22,-481.5 1511.53,-481.63 1519.4,-481.7"/>
<polygon fill="black" stroke="black" stroke-width="3" points="1516.29,-485.19 1526.3,-481.73 1516.32,-478.19 1516.29,-485.19"/>
</g>
<!-- c14&#45;&gt;c18 -->
<g id="edge20" class="edge">
<title>c14:e&#45;&gt;c18:w</title>
<path fill="none" stroke="black" stroke-width="3" d="M727.34,-551.75C743.23,-551.75 743.79,-534.4 752.73,-526.54"/>
<polygon fill="black" stroke="black" stroke-width="3" points="750.83,-530.94 759.07,-524.28 748.47,-524.35 750.83,-530.94"/>
</g>
<!-- x0&#45;&gt;c14 -->
<g id="edge1" class="edge">
<title>x0:e&#45;&gt;c14:w</title>
<path fill="none" stroke="black" stroke-width="3" d="M609.26,-517.99C614.17,-522.6 616.8,-529.75 621.61,-534.47"/>
<polygon fill="none" stroke="black" stroke-width="3" points="611.32,-518.78 604.28,-520.36 600.12,-514.47 607.15,-512.89 611.32,-518.78"/>
<polygon fill="none" stroke="black" stroke-width="3" points="619.94,-533.8 626.99,-532.31 631.08,-538.25 624.02,-539.74 619.94,-533.8"/>
</g>
<!-- c15 -->
<g id="node8" class="node">
<title>c15</title>
<polygon fill="none" stroke="black" points="636.59,-251 636.59,-300 724.34,-300 724.34,-251 636.59,-251"/>
<text text-anchor="middle" x="649.47" y="-282.7" font-family="Times,serif" font-size="14.00">A</text>
<polyline fill="none" stroke="black" points="636.59,-275.5 662.34,-275.5"/>
<text text-anchor="middle" x="649.47" y="-258.2" font-family="Times,serif" font-size="14.00">B</text>
<polyline fill="none" stroke="black" points="662.34,-251 662.34,-300"/>
<text text-anchor="middle" x="680.47" y="-278.7" font-family="Times,serif" font-size="14.00">$30</text>
<text text-anchor="middle" x="680.47" y="-262.2" font-family="Times,serif" font-size="14.00">$or</text>
<polyline fill="none" stroke="black" points="698.59,-251 698.59,-300"/>
<text text-anchor="middle" x="711.47" y="-270.7" font-family="Times,serif" font-size="14.00">Y</text>
</g>
<!-- x3 -->
<g id="node11" class="node">
<title>x3</title>
<path fill="none" stroke="black" d="M792.09,-238.75C792.09,-238.75 830.59,-238.75 830.59,-238.75 836.59,-238.75 842.59,-244.75 842.59,-250.75 842.59,-250.75 842.59,-300.25 842.59,-300.25 842.59,-306.25 836.59,-312.25 830.59,-312.25 830.59,-312.25 792.09,-312.25 792.09,-312.25 786.09,-312.25 780.09,-306.25 780.09,-300.25 780.09,-300.25 780.09,-250.75 780.09,-250.75 780.09,-244.75 786.09,-238.75 792.09,-238.75"/>
<text text-anchor="middle" x="811.34" y="-294.95" font-family="Times,serif" font-size="14.00">3:3 &#45; 0:0</text>
<polyline fill="none" stroke="black" points="780.09,-287.75 842.59,-287.75"/>
<text text-anchor="middle" x="811.34" y="-270.45" font-family="Times,serif" font-size="14.00">2:2 &#45; 5:5</text>
<polyline fill="none" stroke="black" points="780.09,-263.25 842.59,-263.25"/>
<text text-anchor="middle" x="811.34" y="-245.95" font-family="Times,serif" font-size="14.00">1:0 &#45; 2:1</text>
</g>
<!-- c15&#45;&gt;x3 -->
<g id="edge4" class="edge">
<title>c15:e&#45;&gt;x3:w</title>
<path fill="none" stroke="black" stroke-width="3" d="M737.98,-275.72C748.68,-275.68 755.66,-275.58 766.33,-275.53"/>
<polygon fill="none" stroke="black" stroke-width="3" points="740.05,-275.72 734.05,-279.73 728.05,-275.74 734.04,-271.73 740.05,-275.72"/>
<polygon fill="none" stroke="black" stroke-width="3" points="764.39,-275.53 770.38,-271.52 776.39,-275.51 770.4,-279.52 764.39,-275.53"/>
</g>
<!-- x1&#45;&gt;c15 -->
<g id="edge2" class="edge">
<title>x1:e&#45;&gt;c15:w</title>
<path fill="none" stroke="black" stroke-width="3" d="M602.23,-336.36C613.79,-326.45 611.81,-301.47 623.52,-291.73"/>
<polygon fill="none" stroke="black" stroke-width="3" points="603.9,-335.8 599.49,-341.51 592.53,-339.64 596.94,-333.93 603.9,-335.8"/>
<polygon fill="none" stroke="black" stroke-width="3" points="621.63,-292.35 626.07,-286.67 633.02,-288.6 628.58,-294.27 621.63,-292.35"/>
</g>
<!-- x2&#45;&gt;c15 -->
<g id="edge3" class="edge">
<title>x2:e&#45;&gt;c15:w</title>
<path fill="none" stroke="black" stroke-width="3" d="M602.79,-249.82C610.38,-252.84 615.36,-258.05 623.01,-261.02"/>
<polygon fill="none" stroke="black" stroke-width="3" points="604.44,-250.12 597.82,-252.99 592.63,-247.98 599.24,-245.12 604.44,-250.12"/>
<polygon fill="none" stroke="black" stroke-width="3" points="621.11,-260.68 627.72,-257.79 632.93,-262.78 626.32,-265.67 621.11,-260.68"/>
</g>
<!-- x3&#45;&gt;n9 -->
<g id="edge63" class="edge">
<title>x3:e&#45;&gt;n9:w</title>
<path fill="none" stroke="black" stroke-width="3" d="M843.59,-251C864.67,-251 868.87,-267.8 884.15,-273.58"/>
<polygon fill="black" stroke="black" stroke-width="3" points="880.42,-276.49 890.87,-274.73 881.6,-269.59 880.42,-276.49"/>
</g>
<!-- x3&#45;&gt;n9 -->
<g id="edge64" class="edge">
<title>x3:e&#45;&gt;n9:w</title>
<path fill="none" stroke="black" d="M843.59,-275.5C862.28,-275.5 869.58,-275.5 884,-275.5"/>
<polygon fill="black" stroke="black" points="883.83,-279 893.83,-275.5 883.83,-272 883.83,-279"/>
</g>
<!-- x3&#45;&gt;n9 -->
<g id="edge65" class="edge">
<title>x3:e&#45;&gt;n9:w</title>
<path fill="none" stroke="black" d="M843.59,-300C864.67,-300 868.87,-283.2 884.15,-277.42"/>
<polygon fill="black" stroke="black" points="884.59,-280.9 893.85,-275.76 883.4,-274 884.59,-280.9"/>
</g>
<!-- c16 -->
<g id="node12" class="node">
<title>c16</title>
<polygon fill="none" stroke="black" points="1865.94,-343 1865.94,-392 1958.19,-392 1958.19,-343 1865.94,-343"/>
<text text-anchor="middle" x="1878.82" y="-374.7" font-family="Times,serif" font-size="14.00">A</text>
<polyline fill="none" stroke="black" points="1865.94,-367.5 1891.69,-367.5"/>
<text text-anchor="middle" x="1878.82" y="-350.2" font-family="Times,serif" font-size="14.00">B</text>
<polyline fill="none" stroke="black" points="1891.69,-343 1891.69,-392"/>
<text text-anchor="middle" x="1912.07" y="-370.7" font-family="Times,serif" font-size="14.00">$32</text>
<text text-anchor="middle" x="1912.07" y="-354.2" font-family="Times,serif" font-size="14.00">$xor</text>
<polyline fill="none" stroke="black" points="1932.44,-343 1932.44,-392"/>
<text text-anchor="middle" x="1945.32" y="-362.7" font-family="Times,serif" font-size="14.00">Y</text>
</g>
<!-- x6 -->
<g id="node15" class="node">
<title>x6</title>
<path fill="none" stroke="black" d="M2006.19,-264C2006.19,-264 2044.69,-264 2044.69,-264 2050.69,-264 2056.69,-270 2056.69,-276 2056.69,-276 2056.69,-301 2056.69,-301 2056.69,-307 2050.69,-313 2044.69,-313 2044.69,-313 2006.19,-313 2006.19,-313 2000.19,-313 1994.19,-307 1994.19,-301 1994.19,-301 1994.19,-276 1994.19,-276 1994.19,-270 2000.19,-264 2006.19,-264"/>
<text text-anchor="middle" x="2025.44" y="-295.7" font-family="Times,serif" font-size="14.00">5:5 &#45; 0:0</text>
<polyline fill="none" stroke="black" points="1994.19,-288.5 2056.69,-288.5"/>
<text text-anchor="middle" x="2025.44" y="-271.2" font-family="Times,serif" font-size="14.00">4:0 &#45; 5:1</text>
</g>
<!-- c16&#45;&gt;x6 -->
<g id="edge7" class="edge">
<title>c16:e&#45;&gt;x6:w</title>
<path fill="none" stroke="black" stroke-width="3" d="M1970.21,-363.49C1984.1,-349.73 1968.3,-306.57 1982.16,-292.78"/>
<polygon fill="none" stroke="black" stroke-width="3" points="1972.05,-362.84 1967.73,-368.61 1960.74,-366.85 1965.06,-361.07 1972.05,-362.84"/>
<polygon fill="none" stroke="black" stroke-width="3" points="1980.34,-293.43 1984.65,-287.65 1991.65,-289.41 1987.33,-295.19 1980.34,-293.43"/>
</g>
<!-- x4&#45;&gt;c16 -->
<g id="edge5" class="edge">
<title>x4:e&#45;&gt;c16:w</title>
<path fill="none" stroke="black" stroke-width="3" d="M1842.43,-485.13C1865.24,-468.92 1830.61,-399.2 1853.51,-383.08"/>
<polygon fill="none" stroke="black" stroke-width="3" points="1844.14,-484.66 1839.39,-490.09 1832.55,-487.79 1837.3,-482.37 1844.14,-484.66"/>
<polygon fill="none" stroke="black" stroke-width="3" points="1851.74,-383.56 1856.5,-378.14 1863.33,-380.45 1858.57,-385.87 1851.74,-383.56"/>
</g>
<!-- x5&#45;&gt;c16 -->
<g id="edge6" class="edge">
<title>x5:e&#45;&gt;c16:w</title>
<path fill="none" stroke="black" stroke-width="3" d="M610.37,-433.06C699.47,-426.8 714.06,-355.5 810.34,-355.5 810.34,-355.5 810.34,-355.5 1730.64,-355.5 1786.2,-355.5 1803.26,-355.29 1852.95,-355.25"/>
<polygon fill="none" stroke="black" stroke-width="3" points="612.29,-433 606.43,-437.2 600.29,-433.41 606.15,-429.2 612.29,-433"/>
<polygon fill="none" stroke="black" stroke-width="3" points="1851.24,-355.25 1857.24,-351.25 1863.24,-355.25 1857.24,-359.25 1851.24,-355.25"/>
</g>
<!-- n2 -->
<g id="node41" class="node">
<title>n2</title>
<ellipse fill="black" stroke="black" cx="2094.49" cy="-276.5" rx="1.8" ry="1.8"/>
</g>
<!-- x6&#45;&gt;n2 -->
<g id="edge27" class="edge">
<title>x6:e&#45;&gt;n2:w</title>
<path fill="none" stroke="black" stroke-width="3" d="M2056.69,-276.25C2068.07,-276.25 2073.38,-276.38 2081.25,-276.45"/>
<polygon fill="black" stroke="black" stroke-width="3" points="2078.14,-279.94 2088.15,-276.48 2078.17,-272.94 2078.14,-279.94"/>
</g>
<!-- x6&#45;&gt;n2 -->
<g id="edge28" class="edge">
<title>x6:e&#45;&gt;n2:w</title>
<path fill="none" stroke="black" d="M2056.69,-300.75C2071.31,-300.75 2073.37,-286.82 2081.91,-280.08"/>
<polygon fill="black" stroke="black" points="2082.87,-283.45 2091.26,-276.98 2080.66,-276.8 2082.87,-283.45"/>
</g>
<!-- c17 -->
<g id="node16" class="node">
<title>c17</title>
<polygon fill="none" stroke="black" points="2674.13,-79 2674.13,-128 2761.88,-128 2761.88,-79 2674.13,-79"/>
<text text-anchor="middle" x="2687" y="-110.7" font-family="Times,serif" font-size="14.00">A</text>
<polyline fill="none" stroke="black" points="2674.13,-103.5 2699.88,-103.5"/>
<text text-anchor="middle" x="2687" y="-86.2" font-family="Times,serif" font-size="14.00">B</text>
<polyline fill="none" stroke="black" points="2699.88,-79 2699.88,-128"/>
<text text-anchor="middle" x="2718" y="-106.7" font-family="Times,serif" font-size="14.00">$10</text>
<text text-anchor="middle" x="2718" y="-90.2" font-family="Times,serif" font-size="14.00">$ge</text>
<polyline fill="none" stroke="black" points="2736.13,-79 2736.13,-128"/>
<text text-anchor="middle" x="2749" y="-98.7" font-family="Times,serif" font-size="14.00">Y</text>
</g>
<!-- x9 -->
<g id="node19" class="node">
<title>x9</title>
<path fill="none" stroke="black" d="M2900.37,-83.5C2900.37,-83.5 2938.87,-83.5 2938.87,-83.5 2944.87,-83.5 2950.87,-89.5 2950.87,-95.5 2950.87,-95.5 2950.87,-107.5 2950.87,-107.5 2950.87,-113.5 2944.87,-119.5 2938.87,-119.5 2938.87,-119.5 2900.37,-119.5 2900.37,-119.5 2894.37,-119.5 2888.37,-113.5 2888.37,-107.5 2888.37,-107.5 2888.37,-95.5 2888.37,-95.5 2888.37,-89.5 2894.37,-83.5 2900.37,-83.5"/>
<text text-anchor="middle" x="2919.62" y="-96.7" font-family="Times,serif" font-size="14.00">0:0 &#45; 0:0</text>
</g>
<!-- c17&#45;&gt;x9 -->
<g id="edge10" class="edge">
<title>c17:e&#45;&gt;x9:w</title>
<path fill="none" stroke="black" d="M2775.71,-103.71C2816.71,-103.42 2833.49,-101.83 2874.48,-101.54"/>
<polygon fill="none" stroke="black" points="2775.78,-103.71 2769.79,-107.73 2763.78,-103.75 2769.77,-99.73 2775.78,-103.71"/>
<polygon fill="none" stroke="black" points="2874.46,-101.54 2880.45,-97.52 2886.46,-101.5 2880.48,-105.52 2874.46,-101.54"/>
</g>
<!-- x7 -->
<g id="node17" class="node">
<title>x7</title>
<path fill="none" stroke="black" d="M2503.89,-108.5C2503.89,-108.5 2542.39,-108.5 2542.39,-108.5 2548.39,-108.5 2554.39,-114.5 2554.39,-120.5 2554.39,-120.5 2554.39,-132.5 2554.39,-132.5 2554.39,-138.5 2548.39,-144.5 2542.39,-144.5 2542.39,-144.5 2503.89,-144.5 2503.89,-144.5 2497.89,-144.5 2491.89,-138.5 2491.89,-132.5 2491.89,-132.5 2491.89,-120.5 2491.89,-120.5 2491.89,-114.5 2497.89,-108.5 2503.89,-108.5"/>
<text text-anchor="middle" x="2523.14" y="-121.7" font-family="Times,serif" font-size="14.00">0:0 &#45; 0:0</text>
</g>
<!-- x7&#45;&gt;c17 -->
<g id="edge8" class="edge">
<title>x7:e&#45;&gt;c17:w</title>
<path fill="none" stroke="black" d="M2567.21,-126.28C2605.87,-124.88 2621.67,-117.37 2660.34,-115.97"/>
<polygon fill="none" stroke="black" points="2567.29,-126.27 2561.36,-130.38 2555.3,-126.48 2561.22,-122.38 2567.29,-126.27"/>
<polygon fill="none" stroke="black" points="2660.23,-115.98 2666.16,-111.87 2672.23,-115.77 2666.3,-119.87 2660.23,-115.98"/>
</g>
<!-- x8&#45;&gt;c17 -->
<g id="edge9" class="edge">
<title>x8:e&#45;&gt;c17:w</title>
<path fill="none" stroke="black" stroke-width="3" d="M1842.61,-405.9C1861.58,-395.99 1848.37,-359.8 1865.94,-333.5 1950.15,-207.48 1941.93,-79.5 2093.49,-79.5 2093.49,-79.5 2093.49,-79.5 2455.09,-79.5 2547.69,-79.5 2573.73,-90.2 2660.21,-91.18"/>
<polygon fill="none" stroke="black" stroke-width="3" points="1844.35,-405.55 1839.27,-410.67 1832.59,-407.96 1837.67,-402.83 1844.35,-405.55"/>
<polygon fill="none" stroke="black" stroke-width="3" points="2658.43,-91.17 2664.45,-87.2 2670.43,-91.23 2664.4,-95.2 2658.43,-91.17"/>
</g>
<!-- x9&#45;&gt;n7 -->
<g id="edge44" class="edge">
<title>x9:e&#45;&gt;n7:w</title>
<path fill="none" stroke="black" d="M2951.87,-101.75C2969.92,-101.75 2971.32,-83.18 2982.62,-75.63"/>
<polygon fill="black" stroke="black" points="2983.5,-79.02 2992.16,-72.91 2981.58,-72.28 2983.5,-79.02"/>
</g>
<!-- c21 -->
<g id="node26" class="node">
<title>c21</title>
<polygon fill="none" stroke="black" points="1157.59,-470 1157.59,-519 1249.84,-519 1249.84,-470 1157.59,-470"/>
<text text-anchor="middle" x="1170.47" y="-501.7" font-family="Times,serif" font-size="14.00">A</text>
<polyline fill="none" stroke="black" points="1157.59,-494.5 1183.34,-494.5"/>
<text text-anchor="middle" x="1170.47" y="-477.2" font-family="Times,serif" font-size="14.00">B</text>
<polyline fill="none" stroke="black" points="1183.34,-470 1183.34,-519"/>
<text text-anchor="middle" x="1203.72" y="-497.7" font-family="Times,serif" font-size="14.00">$6</text>
<text text-anchor="middle" x="1203.72" y="-481.2" font-family="Times,serif" font-size="14.00">$xor</text>
<polyline fill="none" stroke="black" points="1224.09,-470 1224.09,-519"/>
<text text-anchor="middle" x="1236.97" y="-489.7" font-family="Times,serif" font-size="14.00">Y</text>
</g>
<!-- c18&#45;&gt;c21 -->
<g id="edge34" class="edge">
<title>c18:e&#45;&gt;c21:w</title>
<path fill="none" stroke="black" stroke-width="3" d="M859.34,-510.75C988.03,-510.75 1023,-506.98 1146.19,-506.76"/>
<polygon fill="black" stroke="black" stroke-width="3" points="1143.06,-510.26 1153.05,-506.75 1143.05,-503.26 1143.06,-510.26"/>
</g>
<!-- x11 -->
<g id="node23" class="node">
<title>x11</title>
<path fill="none" stroke="black" d="M2365.79,-166.5C2365.79,-166.5 2404.29,-166.5 2404.29,-166.5 2410.29,-166.5 2416.29,-172.5 2416.29,-178.5 2416.29,-178.5 2416.29,-190.5 2416.29,-190.5 2416.29,-196.5 2410.29,-202.5 2404.29,-202.5 2404.29,-202.5 2365.79,-202.5 2365.79,-202.5 2359.79,-202.5 2353.79,-196.5 2353.79,-190.5 2353.79,-190.5 2353.79,-178.5 2353.79,-178.5 2353.79,-172.5 2359.79,-166.5 2365.79,-166.5"/>
<text text-anchor="middle" x="2385.04" y="-179.7" font-family="Times,serif" font-size="14.00">0:0 &#45; 0:0</text>
</g>
<!-- c19&#45;&gt;x11 -->
<g id="edge12" class="edge">
<title>c19:e&#45;&gt;x11:w</title>
<path fill="none" stroke="black" d="M2330.53,-186.93C2334.12,-186.45 2337.24,-185.84 2340.81,-185.35"/>
<polygon fill="none" stroke="black" points="2330.67,-186.92 2324.94,-191.3 2318.69,-187.69 2324.42,-183.31 2330.67,-186.92"/>
<polygon fill="none" stroke="black" points="2340.92,-185.35 2346.65,-180.96 2352.89,-184.56 2347.17,-188.94 2340.92,-185.35"/>
</g>
<!-- x10&#45;&gt;c19 -->
<g id="edge11" class="edge">
<title>x10:e&#45;&gt;c19:w</title>
<path fill="none" stroke="black" stroke-width="3" d="M2206.82,-284.69C2223.59,-270.22 2202.17,-218.8 2218.45,-203.85"/>
<polygon fill="none" stroke="black" stroke-width="3" points="2208.81,-284.05 2204.3,-289.68 2197.37,-287.68 2201.88,-282.06 2208.81,-284.05"/>
<polygon fill="none" stroke="black" stroke-width="3" points="2216.84,-204.39 2221.27,-198.7 2228.23,-200.6 2223.8,-206.29 2216.84,-204.39"/>
</g>
<!-- n5 -->
<g id="node43" class="node">
<title>n5</title>
<ellipse fill="black" stroke="black" cx="2454.09" cy="-126.5" rx="1.8" ry="1.8"/>
</g>
<!-- x11&#45;&gt;n5 -->
<g id="edge35" class="edge">
<title>x11:e&#45;&gt;n5:w</title>
<path fill="none" stroke="black" d="M2416.29,-184.75C2441.97,-184.75 2428.28,-143.28 2441.66,-130.32"/>
<polygon fill="black" stroke="black" points="2442.64,-133.69 2450.87,-127.01 2440.28,-127.1 2442.64,-133.69"/>
</g>
<!-- x12 -->
<g id="node25" class="node">
<title>x12</title>
<path fill="none" stroke="black" d="M284.84,-340C284.84,-340 323.34,-340 323.34,-340 329.34,-340 335.34,-346 335.34,-352 335.34,-352 335.34,-377 335.34,-377 335.34,-383 329.34,-389 323.34,-389 323.34,-389 284.84,-389 284.84,-389 278.84,-389 272.84,-383 272.84,-377 272.84,-377 272.84,-352 272.84,-352 272.84,-346 278.84,-340 284.84,-340"/>
<text text-anchor="middle" x="304.09" y="-371.7" font-family="Times,serif" font-size="14.00">3:3 &#45; 8:8</text>
<polyline fill="none" stroke="black" points="272.84,-364.5 335.34,-364.5"/>
<text text-anchor="middle" x="304.09" y="-347.2" font-family="Times,serif" font-size="14.00">2:0 &#45; 2:0</text>
</g>
<!-- c20&#45;&gt;x12 -->
<g id="edge13" class="edge">
<title>c20:e&#45;&gt;x12:w</title>
<path fill="none" stroke="black" stroke-width="3" d="M248.76,-434.33C261.31,-421.22 248.46,-382.63 260.67,-369.18"/>
<polygon fill="none" stroke="black" stroke-width="3" points="250.63,-433.64 246.39,-439.47 239.38,-437.81 243.61,-431.97 250.63,-433.64"/>
<polygon fill="none" stroke="black" stroke-width="3" points="259.12,-369.78 263.28,-363.89 270.32,-365.47 266.15,-371.36 259.12,-369.78"/>
</g>
<!-- x12&#45;&gt;n8 -->
<g id="edge45" class="edge">
<title>x12:e&#45;&gt;n8:w</title>
<path fill="none" stroke="black" stroke-width="3" d="M335.34,-352.25C346.72,-352.25 352.03,-352.38 359.89,-352.45"/>
<polygon fill="black" stroke="black" stroke-width="3" points="356.78,-355.94 366.8,-352.48 356.82,-348.94 356.78,-355.94"/>
</g>
<!-- x12&#45;&gt;n8 -->
<g id="edge46" class="edge">
<title>x12:e&#45;&gt;n8:w</title>
<path fill="none" stroke="black" d="M335.34,-376.75C349.96,-376.75 352.02,-362.82 360.55,-356.08"/>
<polygon fill="black" stroke="black" points="361.51,-359.45 369.9,-352.98 359.31,-352.8 361.51,-359.45"/>
</g>
<!-- x14 -->
<g id="node28" class="node">
<title>x14</title>
<path fill="none" stroke="black" d="M1297.84,-470C1297.84,-470 1336.34,-470 1336.34,-470 1342.34,-470 1348.34,-476 1348.34,-482 1348.34,-482 1348.34,-507 1348.34,-507 1348.34,-513 1342.34,-519 1336.34,-519 1336.34,-519 1297.84,-519 1297.84,-519 1291.84,-519 1285.84,-513 1285.84,-507 1285.84,-507 1285.84,-482 1285.84,-482 1285.84,-476 1291.84,-470 1297.84,-470"/>
<text text-anchor="middle" x="1317.09" y="-501.7" font-family="Times,serif" font-size="14.00">5:4 &#45; 4:3</text>
<polyline fill="none" stroke="black" points="1285.84,-494.5 1348.34,-494.5"/>
<text text-anchor="middle" x="1317.09" y="-477.2" font-family="Times,serif" font-size="14.00">3:0 &#45; 3:0</text>
</g>
<!-- c21&#45;&gt;x14 -->
<g id="edge15" class="edge">
<title>c21:e&#45;&gt;x14:w</title>
<path fill="none" stroke="black" stroke-width="3" d="M1262.56,-494.69C1266.16,-494.65 1269.29,-494.6 1272.87,-494.57"/>
<polygon fill="none" stroke="black" stroke-width="3" points="1264.55,-494.68 1258.57,-498.71 1252.55,-494.74 1258.53,-490.71 1264.55,-494.68"/>
<polygon fill="none" stroke="black" stroke-width="3" points="1271.14,-494.57 1277.12,-490.54 1283.14,-494.51 1277.16,-498.54 1271.14,-494.57"/>
</g>
<!-- x13&#45;&gt;c21 -->
<g id="edge14" class="edge">
<title>x13:e&#45;&gt;c21:w</title>
<path fill="none" stroke="black" stroke-width="3" d="M1134.19,-304.4C1184.96,-322.37 1094.22,-462.38 1144.99,-480.35"/>
<polygon fill="none" stroke="black" stroke-width="3" points="1136.13,-304.69 1129.6,-307.75 1124.27,-302.9 1130.8,-299.84 1136.13,-304.69"/>
<polygon fill="none" stroke="black" stroke-width="3" points="1143.05,-480.06 1149.58,-477 1154.92,-481.85 1148.39,-484.91 1143.05,-480.06"/>
</g>
<!-- x14&#45;&gt;n10 -->
<g id="edge21" class="edge">
<title>x14:e&#45;&gt;n10:w</title>
<path fill="none" stroke="black" stroke-width="3" d="M1348.34,-482.25C1359.72,-482.25 1365.03,-481.87 1372.9,-481.65"/>
<polygon fill="black" stroke="black" stroke-width="3" points="1369.85,-485.19 1379.8,-481.56 1369.76,-478.19 1369.85,-485.19"/>
</g>
<!-- n3 -->
<g id="node42" class="node">
<title>n3</title>
<ellipse fill="black" stroke="black" cx="1729.64" cy="-484.5" rx="1.8" ry="1.8"/>
</g>
<!-- x14&#45;&gt;n3 -->
<g id="edge30" class="edge">
<title>x14:e&#45;&gt;n3:w</title>
<path fill="none" stroke="black" stroke-width="3" d="M1348.34,-506.75C1364.36,-506.75 1368.33,-508.06 1384.34,-508.5 1520.96,-512.29 1561.42,-550.34 1691.84,-509.5 1705.93,-505.09 1708.15,-493.01 1716.88,-487.41"/>
<polygon fill="black" stroke="black" stroke-width="3" points="1714.69,-491.62 1723.46,-485.67 1712.89,-484.85 1714.69,-491.62"/>
</g>
<!-- v15 -->
<g id="node29" class="node">
<title>v15</title>
<ellipse fill="none" stroke="black" cx="2274.29" cy="-126.5" rx="40.09" ry="18"/>
<text text-anchor="middle" x="2274.29" y="-121.45" font-family="Times,serif" font-size="14.00">5&#39;00000</text>
</g>
<!-- x16 -->
<g id="node30" class="node">
<title>x16</title>
<path fill="none" stroke="black" d="M2365.79,-108.5C2365.79,-108.5 2404.29,-108.5 2404.29,-108.5 2410.29,-108.5 2416.29,-114.5 2416.29,-120.5 2416.29,-120.5 2416.29,-132.5 2416.29,-132.5 2416.29,-138.5 2410.29,-144.5 2404.29,-144.5 2404.29,-144.5 2365.79,-144.5 2365.79,-144.5 2359.79,-144.5 2353.79,-138.5 2353.79,-132.5 2353.79,-132.5 2353.79,-120.5 2353.79,-120.5 2353.79,-114.5 2359.79,-108.5 2365.79,-108.5"/>
<text text-anchor="middle" x="2385.04" y="-121.7" font-family="Times,serif" font-size="14.00">4:0 &#45; 5:1</text>
</g>
<!-- v15&#45;&gt;x16 -->
<g id="edge69" class="edge">
<title>v15:e&#45;&gt;x16:w</title>
<path fill="none" stroke="black" stroke-width="3" d="M2315.76,-126.5C2328.17,-126.5 2333.75,-126.5 2342.53,-126.5"/>
<polygon fill="black" stroke="black" stroke-width="3" points="2339.25,-130 2349.25,-126.5 2339.25,-123 2339.25,-130"/>
</g>
<!-- x16&#45;&gt;n5 -->
<g id="edge36" class="edge">
<title>x16:e&#45;&gt;n5:w</title>
<path fill="none" stroke="black" stroke-width="3" d="M2416.29,-126.75C2427.67,-126.75 2432.98,-126.62 2440.85,-126.55"/>
<polygon fill="black" stroke="black" stroke-width="3" points="2437.77,-130.06 2447.75,-126.52 2437.74,-123.06 2437.77,-130.06"/>
</g>
<!-- v17 -->
<g id="node31" class="node">
<title>v17</title>
<ellipse fill="none" stroke="black" cx="2718" cy="-42.5" rx="127.61" ry="18"/>
<text text-anchor="middle" x="2718" y="-37.45" font-family="Times,serif" font-size="14.00">23&#39;00000000000000000000000</text>
</g>
<!-- x18 -->
<g id="node32" class="node">
<title>x18</title>
<path fill="none" stroke="black" d="M2893.62,-27.5C2893.62,-27.5 2945.62,-27.5 2945.62,-27.5 2951.62,-27.5 2957.62,-33.5 2957.62,-39.5 2957.62,-39.5 2957.62,-51.5 2957.62,-51.5 2957.62,-57.5 2951.62,-63.5 2945.62,-63.5 2945.62,-63.5 2893.62,-63.5 2893.62,-63.5 2887.62,-63.5 2881.62,-57.5 2881.62,-51.5 2881.62,-51.5 2881.62,-39.5 2881.62,-39.5 2881.62,-33.5 2887.62,-27.5 2893.62,-27.5"/>
<text text-anchor="middle" x="2919.62" y="-40.7" font-family="Times,serif" font-size="14.00">22:0 &#45; 23:1</text>
</g>
<!-- v17&#45;&gt;x18 -->
<g id="edge70" class="edge">
<title>v17:e&#45;&gt;x18:w</title>
<path fill="none" stroke="black" stroke-width="3" d="M2845.62,-42.5C2857.03,-42.5 2862.3,-44.02 2870.15,-44.89"/>
<polygon fill="black" stroke="black" stroke-width="3" points="2866.91,-48.23 2877.08,-45.26 2867.28,-41.24 2866.91,-48.23"/>
</g>
<!-- x18&#45;&gt;n7 -->
<g id="edge43" class="edge">
<title>x18:e&#45;&gt;n7:w</title>
<path fill="none" stroke="black" stroke-width="3" d="M2957.62,-45.75C2972.88,-45.75 2974.19,-61.43 2982.91,-68.78"/>
<polygon fill="black" stroke="black" stroke-width="3" points="2978.73,-71.03 2989.33,-71.01 2981.03,-64.42 2978.73,-71.03"/>
</g>
<!-- x20 -->
<g id="node34" class="node">
<title>x20</title>
<path fill="none" stroke="black" d="M661.22,-90.5C661.22,-90.5 699.72,-90.5 699.72,-90.5 705.72,-90.5 711.72,-96.5 711.72,-102.5 711.72,-102.5 711.72,-114.5 711.72,-114.5 711.72,-120.5 705.72,-126.5 699.72,-126.5 699.72,-126.5 661.22,-126.5 661.22,-126.5 655.22,-126.5 649.22,-120.5 649.22,-114.5 649.22,-114.5 649.22,-102.5 649.22,-102.5 649.22,-96.5 655.22,-90.5 661.22,-90.5"/>
<text text-anchor="middle" x="680.47" y="-103.7" font-family="Times,serif" font-size="14.00">4:0 &#45; 7:3</text>
</g>
<!-- x19&#45;&gt;x20 -->
<g id="edge16" class="edge">
<title>x19:e&#45;&gt;x20:w</title>
<path fill="none" stroke="black" stroke-width="3" d="M610.08,-82.39C620.69,-87.95 625.14,-100.08 635.75,-105.63"/>
<polygon fill="none" stroke="black" stroke-width="3" points="611.92,-82.81 605.17,-85.36 600.23,-80.11 606.97,-77.56 611.92,-82.81"/>
<polygon fill="none" stroke="black" stroke-width="3" points="633.89,-105.2 640.63,-102.65 645.58,-107.89 638.84,-110.44 633.89,-105.2"/>
</g>
<!-- x20&#45;&gt;n8 -->
<g id="edge47" class="edge">
<title>x20:e&#45;&gt;n8:w</title>
<path fill="none" stroke="black" stroke-width="3" d="M712.72,-108.75C720.84,-108.75 717.34,-121.14 711.72,-127 651.76,-189.43 580.96,-86.27 517.84,-145.5 443.99,-214.8 558.9,-304.79 481.84,-370.5 444.01,-402.76 406.09,-404.67 369.96,-370.5 367.96,-368.61 366.27,-365.89 365.24,-363.14"/>
<polygon fill="black" stroke="black" stroke-width="3" points="367.47,-367.38 367.46,-356.79 360.86,-365.07 367.47,-367.38"/>
</g>
<!-- x22 -->
<g id="node36" class="node">
<title>x22</title>
<path fill="none" stroke="black" d="M1641.34,-463.5C1641.34,-463.5 1679.84,-463.5 1679.84,-463.5 1685.84,-463.5 1691.84,-469.5 1691.84,-475.5 1691.84,-475.5 1691.84,-487.5 1691.84,-487.5 1691.84,-493.5 1685.84,-499.5 1679.84,-499.5 1679.84,-499.5 1641.34,-499.5 1641.34,-499.5 1635.34,-499.5 1629.34,-493.5 1629.34,-487.5 1629.34,-487.5 1629.34,-475.5 1629.34,-475.5 1629.34,-469.5 1635.34,-463.5 1641.34,-463.5"/>
<text text-anchor="middle" x="1660.59" y="-476.7" font-family="Times,serif" font-size="14.00">2:0 &#45; 2:0</text>
</g>
<!-- x21&#45;&gt;x22 -->
<g id="edge17" class="edge">
<title>x21:e&#45;&gt;x22:w</title>
<path fill="none" stroke="black" stroke-width="3" d="M1606.07,-481.5C1609.66,-481.5 1612.8,-481.5 1616.37,-481.5"/>
<polygon fill="none" stroke="black" stroke-width="3" points="1608.05,-481.5 1602.05,-485.5 1596.05,-481.5 1602.05,-477.5 1608.05,-481.5"/>
<polygon fill="none" stroke="black" stroke-width="3" points="1614.64,-481.5 1620.64,-477.5 1626.64,-481.5 1620.64,-485.5 1614.64,-481.5"/>
</g>
<!-- x22&#45;&gt;n3 -->
<g id="edge31" class="edge">
<title>x22:e&#45;&gt;n3:w</title>
<path fill="none" stroke="black" stroke-width="3" d="M1691.84,-481.75C1703.25,-481.75 1708.52,-483.14 1716.39,-483.94"/>
<polygon fill="black" stroke="black" stroke-width="3" points="1713.15,-487.29 1723.31,-484.28 1713.49,-480.3 1713.15,-487.29"/>
</g>
<!-- x24 -->
<g id="node38" class="node">
<title>x24</title>
<path fill="none" stroke="black" d="M931.34,-142.5C931.34,-142.5 969.84,-142.5 969.84,-142.5 975.84,-142.5 981.84,-148.5 981.84,-154.5 981.84,-154.5 981.84,-166.5 981.84,-166.5 981.84,-172.5 975.84,-178.5 969.84,-178.5 969.84,-178.5 931.34,-178.5 931.34,-178.5 925.34,-178.5 919.34,-172.5 919.34,-166.5 919.34,-166.5 919.34,-154.5 919.34,-154.5 919.34,-148.5 925.34,-142.5 931.34,-142.5"/>
<text text-anchor="middle" x="950.59" y="-155.7" font-family="Times,serif" font-size="14.00">0:0 &#45; 6:6</text>
</g>
<!-- x23&#45;&gt;x24 -->
<g id="edge18" class="edge">
<title>x23:e&#45;&gt;x24:w</title>
<path fill="none" stroke="black" d="M602.94,-173.46C734.09,-172.75 774.21,-161.25 905.36,-160.54"/>
<polygon fill="none" stroke="black" points="602.87,-173.47 596.88,-177.48 590.87,-173.5 596.86,-169.48 602.87,-173.47"/>
<polygon fill="none" stroke="black" points="905.44,-160.53 911.43,-156.52 917.44,-160.5 911.45,-164.52 905.44,-160.53"/>
</g>
<!-- x24&#45;&gt;n2 -->
<g id="edge26" class="edge">
<title>x24:e&#45;&gt;n2:w</title>
<path fill="none" stroke="black" d="M982.84,-160.75C1080.59,-160.75 1104.97,-155.5 1202.72,-155.5 1202.72,-155.5 1202.72,-155.5 1913.07,-155.5 1923.64,-155.5 2045.09,-248.97 2082.52,-271.61"/>
<polygon fill="black" stroke="black" points="2080.8,-274.66 2091.33,-275.84 2083.83,-268.36 2080.8,-274.66"/>
</g>
<!-- x26 -->
<g id="node40" class="node">
<title>x26</title>
<path fill="none" stroke="black" d="M1184.47,-208.5C1184.47,-208.5 1222.97,-208.5 1222.97,-208.5 1228.97,-208.5 1234.97,-214.5 1234.97,-220.5 1234.97,-220.5 1234.97,-232.5 1234.97,-232.5 1234.97,-238.5 1228.97,-244.5 1222.97,-244.5 1222.97,-244.5 1184.47,-244.5 1184.47,-244.5 1178.47,-244.5 1172.47,-238.5 1172.47,-232.5 1172.47,-232.5 1172.47,-220.5 1172.47,-220.5 1172.47,-214.5 1178.47,-208.5 1184.47,-208.5"/>
<text text-anchor="middle" x="1203.72" y="-221.7" font-family="Times,serif" font-size="14.00">1:0 &#45; 4:3</text>
</g>
<!-- x25&#45;&gt;x26 -->
<g id="edge19" class="edge">
<title>x25:e&#45;&gt;x26:w</title>
<path fill="none" stroke="black" stroke-width="3" d="M1134.02,-205.07C1143.99,-209.66 1148.99,-219.24 1158.92,-223.88"/>
<polygon fill="none" stroke="black" stroke-width="3" points="1135.99,-205.48 1129.31,-208.18 1124.24,-203.05 1130.93,-200.34 1135.99,-205.48"/>
<polygon fill="none" stroke="black" stroke-width="3" points="1157.07,-223.49 1163.77,-220.8 1168.82,-225.95 1162.13,-228.63 1157.07,-223.49"/>
</g>
<!-- x26&#45;&gt;n9 -->
<g id="edge62" class="edge">
<title>x26:e&#45;&gt;n9:w</title>
<path fill="none" stroke="black" stroke-width="3" d="M1235.97,-226.75C1244.09,-226.75 1240.52,-239.07 1234.97,-245 1175.89,-308.14 1122.64,-237.71 1041.84,-268.5 1023.64,-275.44 1024.43,-287.68 1005.84,-293.5 958.39,-308.36 930.09,-327.67 893.97,-293.5 891.97,-291.61 890.27,-288.89 889.24,-286.14"/>
<polygon fill="black" stroke="black" stroke-width="3" points="891.47,-290.38 891.47,-279.79 884.86,-288.07 891.47,-290.38"/>
</g>
<!-- n2&#45;&gt;x10 -->
<g id="edge29" class="edge">
<title>n2:e&#45;&gt;x10:w</title>
<path fill="none" stroke="black" stroke-width="3" d="M2096.29,-276.5C2107.67,-276.5 2112.98,-276.37 2120.85,-276.3"/>
<polygon fill="black" stroke="black" stroke-width="3" points="2117.77,-279.81 2127.75,-276.27 2117.74,-272.81 2117.77,-279.81"/>
</g>
<!-- n3&#45;&gt;x4 -->
<g id="edge32" class="edge">
<title>n3:e&#45;&gt;x4:w</title>
<path fill="none" stroke="black" stroke-width="3" d="M1731.44,-484.5C1742.89,-484.5 1748.12,-486.52 1755.97,-487.69"/>
<polygon fill="black" stroke="black" stroke-width="3" points="1752.69,-490.97 1762.91,-488.18 1753.19,-483.99 1752.69,-490.97"/>
</g>
<!-- n3&#45;&gt;x8 -->
<g id="edge33" class="edge">
<title>n3:e&#45;&gt;x8:w</title>
<path fill="none" stroke="black" stroke-width="3" d="M1731.44,-484.5C1759.15,-484.5 1742.18,-438.27 1756.62,-424.55"/>
<polygon fill="black" stroke="black" stroke-width="3" points="1754.88,-428.87 1763.16,-422.25 1752.56,-422.26 1754.88,-428.87"/>
</g>
<!-- n5&#45;&gt;x7 -->
<g id="edge37" class="edge">
<title>n5:e&#45;&gt;x7:w</title>
<path fill="none" stroke="black" d="M2455.89,-126.5C2467.27,-126.5 2472.58,-126.63 2480.45,-126.7"/>
<polygon fill="black" stroke="black" points="2480.37,-130.2 2490.38,-126.74 2480.4,-123.2 2480.37,-130.2"/>
</g>
</g>
</svg>
