<?xml version="1.0" encoding="UTF-8" standalone="no"?>
<!DOCTYPE svg PUBLIC "-//W3C//DTD SVG 1.1//EN"
 "http://www.w3.org/Graphics/SVG/1.1/DTD/svg11.dtd">
<!-- Generated by graphviz version 12.2.1 (20241206.2353)
 -->
<!-- Title: top Pages: 1 -->
<svg width="5731pt" height="907pt"
 viewBox="0.00 0.00 5730.57 907.15" xmlns="http://www.w3.org/2000/svg" xmlns:xlink="http://www.w3.org/1999/xlink">
<g id="graph0" class="graph" transform="scale(1 1) rotate(0) translate(4 903.15)">
<title>top</title>
<polygon fill="white" stroke="none" points="-4,4 -4,-903.15 5726.57,-903.15 5726.57,4 -4,4"/>
<text text-anchor="middle" x="2861.29" y="-7.2" font-family="Times,serif" font-size="14.00">top</text>
<!-- n23 -->
<g id="node1" class="node">
<title>n23</title>
<polygon fill="none" stroke="black" points="107.84,-637.04 107.84,-651.96 76.26,-662.5 31.59,-662.5 0,-651.96 0,-637.04 31.59,-626.5 76.26,-626.5 107.84,-637.04"/>
<text text-anchor="middle" x="53.92" y="-639.45" font-family="Times,serif" font-size="14.00">input_data</text>
</g>
<!-- c32 -->
<g id="node7" class="node">
<title>c32</title>
<polygon fill="none" stroke="black" points="534.59,-535 534.59,-584 628.34,-584 628.34,-535 534.59,-535"/>
<text text-anchor="middle" x="547.47" y="-566.7" font-family="Times,serif" font-size="14.00">A</text>
<polyline fill="none" stroke="black" points="534.59,-559.5 560.34,-559.5"/>
<text text-anchor="middle" x="547.47" y="-542.2" font-family="Times,serif" font-size="14.00">B</text>
<polyline fill="none" stroke="black" points="560.34,-535 560.34,-584"/>
<text text-anchor="middle" x="581.47" y="-562.7" font-family="Times,serif" font-size="14.00">$4</text>
<text text-anchor="middle" x="581.47" y="-546.2" font-family="Times,serif" font-size="14.00">$add</text>
<polyline fill="none" stroke="black" points="602.59,-535 602.59,-584"/>
<text text-anchor="middle" x="615.47" y="-554.7" font-family="Times,serif" font-size="14.00">Y</text>
</g>
<!-- n23&#45;&gt;c32 -->
<g id="edge67" class="edge">
<title>n23:e&#45;&gt;c32:w</title>
<path fill="none" stroke="black" stroke-width="3" d="M107.84,-644.5C135.22,-644.5 120.26,-608.43 143.84,-594.5 291.22,-507.44 356.82,-545.52 523.47,-547.19"/>
<polygon fill="black" stroke="black" stroke-width="3" points="520.03,-550.68 530.05,-547.23 520.07,-543.68 520.03,-550.68"/>
</g>
<!-- c34 -->
<g id="node10" class="node">
<title>c34</title>
<polygon fill="none" stroke="black" points="5102.24,-69 5102.24,-118 5195.99,-118 5195.99,-69 5102.24,-69"/>
<text text-anchor="middle" x="5115.11" y="-100.7" font-family="Times,serif" font-size="14.00">A</text>
<polyline fill="none" stroke="black" points="5102.24,-93.5 5127.99,-93.5"/>
<text text-anchor="middle" x="5115.11" y="-76.2" font-family="Times,serif" font-size="14.00">B</text>
<polyline fill="none" stroke="black" points="5127.99,-69 5127.99,-118"/>
<text text-anchor="middle" x="5149.11" y="-96.7" font-family="Times,serif" font-size="14.00">$26</text>
<text text-anchor="middle" x="5149.11" y="-80.2" font-family="Times,serif" font-size="14.00">$add</text>
<polyline fill="none" stroke="black" points="5170.24,-69 5170.24,-118"/>
<text text-anchor="middle" x="5183.11" y="-88.7" font-family="Times,serif" font-size="14.00">Y</text>
</g>
<!-- n23&#45;&gt;c34 -->
<g id="edge68" class="edge">
<title>n23:e&#45;&gt;c34:w</title>
<path fill="none" stroke="black" stroke-width="3" d="M107.84,-644.5C141.74,-644.5 133.39,-373.75 143.84,-341.5 193.58,-188.05 159.28,-24.5 320.59,-24.5 320.59,-24.5 320.59,-24.5 4922.69,-24.5 5002.46,-24.5 5017.25,-76.05 5090.93,-80.89"/>
<polygon fill="black" stroke="black" stroke-width="3" points="5087.59,-84.28 5097.7,-81.1 5087.82,-77.29 5087.59,-84.28"/>
</g>
<!-- c35 -->
<g id="node13" class="node">
<title>c35</title>
<polygon fill="none" stroke="black" points="143.84,-653 143.84,-702 237.59,-702 237.59,-653 143.84,-653"/>
<text text-anchor="middle" x="156.72" y="-684.7" font-family="Times,serif" font-size="14.00">A</text>
<polyline fill="none" stroke="black" points="143.84,-677.5 169.59,-677.5"/>
<text text-anchor="middle" x="156.72" y="-660.2" font-family="Times,serif" font-size="14.00">B</text>
<polyline fill="none" stroke="black" points="169.59,-653 169.59,-702"/>
<text text-anchor="middle" x="190.72" y="-680.7" font-family="Times,serif" font-size="14.00">$1</text>
<text text-anchor="middle" x="190.72" y="-664.2" font-family="Times,serif" font-size="14.00">$and</text>
<polyline fill="none" stroke="black" points="211.84,-653 211.84,-702"/>
<text text-anchor="middle" x="224.72" y="-672.7" font-family="Times,serif" font-size="14.00">Y</text>
</g>
<!-- n23&#45;&gt;c35 -->
<g id="edge69" class="edge">
<title>n23:e&#45;&gt;c35:w</title>
<path fill="none" stroke="black" stroke-width="3" d="M107.84,-644.5C128.72,-644.5 122.47,-674.37 133.18,-685.57"/>
<polygon fill="black" stroke="black" stroke-width="3" points="129.03,-687.71 139.61,-688.09 131.58,-681.19 129.03,-687.71"/>
</g>
<!-- n23&#45;&gt;c35 -->
<g id="edge70" class="edge">
<title>n23:e&#45;&gt;c35:w</title>
<path fill="none" stroke="black" stroke-width="3" d="M107.84,-644.5C121.69,-644.5 124.63,-656.17 133.02,-662.01"/>
<polygon fill="black" stroke="black" stroke-width="3" points="128.91,-664.43 139.49,-663.95 130.92,-657.72 128.91,-664.43"/>
</g>
<!-- c41 -->
<g id="node22" class="node">
<title>c41</title>
<polygon fill="none" stroke="black" points="2211.34,-652 2211.34,-701 2299.09,-701 2299.09,-652 2211.34,-652"/>
<text text-anchor="middle" x="2224.22" y="-683.7" font-family="Times,serif" font-size="14.00">A</text>
<polyline fill="none" stroke="black" points="2211.34,-676.5 2237.09,-676.5"/>
<text text-anchor="middle" x="2224.22" y="-659.2" font-family="Times,serif" font-size="14.00">B</text>
<polyline fill="none" stroke="black" points="2237.09,-652 2237.09,-701"/>
<text text-anchor="middle" x="2255.22" y="-679.7" font-family="Times,serif" font-size="14.00">$59</text>
<text text-anchor="middle" x="2255.22" y="-663.2" font-family="Times,serif" font-size="14.00">$or</text>
<polyline fill="none" stroke="black" points="2273.34,-652 2273.34,-701"/>
<text text-anchor="middle" x="2286.22" y="-671.7" font-family="Times,serif" font-size="14.00">Y</text>
</g>
<!-- n23&#45;&gt;c41 -->
<g id="edge71" class="edge">
<title>n23:e&#45;&gt;c41:w</title>
<path fill="none" stroke="black" stroke-width="3" d="M107.84,-644.5C141.64,-644.5 117.93,-689.79 143.84,-711.5 207.21,-764.6 237.91,-769.5 320.59,-769.5 320.59,-769.5 320.59,-769.5 1907.84,-769.5 1924.02,-769.5 2145.48,-683.06 2200.14,-666.85"/>
<polygon fill="black" stroke="black" stroke-width="3" points="2197.97,-670.95 2206.92,-665.28 2196.39,-664.13 2197.97,-670.95"/>
</g>
<!-- c42 -->
<g id="node24" class="node">
<title>c42</title>
<polygon fill="none" stroke="black" points="273.59,-615 273.59,-664 369.59,-664 369.59,-615 273.59,-615"/>
<text text-anchor="middle" x="286.47" y="-646.7" font-family="Times,serif" font-size="14.00">A</text>
<polyline fill="none" stroke="black" points="273.59,-639.5 299.34,-639.5"/>
<text text-anchor="middle" x="286.47" y="-622.2" font-family="Times,serif" font-size="14.00">B</text>
<polyline fill="none" stroke="black" points="299.34,-615 299.34,-664"/>
<text text-anchor="middle" x="321.59" y="-642.7" font-family="Times,serif" font-size="14.00">$2</text>
<text text-anchor="middle" x="321.59" y="-626.2" font-family="Times,serif" font-size="14.00">$mul</text>
<polyline fill="none" stroke="black" points="343.84,-615 343.84,-664"/>
<text text-anchor="middle" x="356.72" y="-634.7" font-family="Times,serif" font-size="14.00">Y</text>
</g>
<!-- n23&#45;&gt;c42 -->
<g id="edge72" class="edge">
<title>n23:e&#45;&gt;c42:w</title>
<path fill="none" stroke="black" stroke-width="3" d="M107.84,-644.5C178,-644.5 197.51,-629.02 262.33,-627.39"/>
<polygon fill="black" stroke="black" stroke-width="3" points="259.09,-630.93 269.05,-627.31 259.01,-623.93 259.09,-630.93"/>
</g>
<!-- c44 -->
<g id="node27" class="node">
<title>c44</title>
<polygon fill="none" stroke="black" points="1076.84,-798 1076.84,-847 1172.84,-847 1172.84,-798 1076.84,-798"/>
<text text-anchor="middle" x="1089.72" y="-829.7" font-family="Times,serif" font-size="14.00">A</text>
<polyline fill="none" stroke="black" points="1076.84,-822.5 1102.59,-822.5"/>
<text text-anchor="middle" x="1089.72" y="-805.2" font-family="Times,serif" font-size="14.00">B</text>
<polyline fill="none" stroke="black" points="1102.59,-798 1102.59,-847"/>
<text text-anchor="middle" x="1124.84" y="-825.7" font-family="Times,serif" font-size="14.00">$12</text>
<text text-anchor="middle" x="1124.84" y="-809.2" font-family="Times,serif" font-size="14.00">$mul</text>
<polyline fill="none" stroke="black" points="1147.09,-798 1147.09,-847"/>
<text text-anchor="middle" x="1159.97" y="-817.7" font-family="Times,serif" font-size="14.00">Y</text>
</g>
<!-- n23&#45;&gt;c44 -->
<g id="edge73" class="edge">
<title>n23:e&#45;&gt;c44:w</title>
<path fill="none" stroke="black" stroke-width="3" d="M107.84,-644.5C188.12,-644.5 82.39,-769.85 143.84,-821.5 339.46,-985.93 463.05,-837.5 718.59,-837.5 718.59,-837.5 718.59,-837.5 858.34,-837.5 951.86,-837.5 976.49,-812.39 1064.49,-810.38"/>
<polygon fill="black" stroke="black" stroke-width="3" points="1061.34,-813.91 1071.3,-810.3 1061.26,-806.91 1061.34,-813.91"/>
</g>
<!-- c50 -->
<g id="node41" class="node">
<title>c50</title>
<polygon fill="none" stroke="black" points="1358.84,-798 1358.84,-847 1449.59,-847 1449.59,-798 1358.84,-798"/>
<text text-anchor="middle" x="1371.72" y="-829.7" font-family="Times,serif" font-size="14.00">A</text>
<polyline fill="none" stroke="black" points="1358.84,-822.5 1384.59,-822.5"/>
<text text-anchor="middle" x="1371.72" y="-805.2" font-family="Times,serif" font-size="14.00">B</text>
<polyline fill="none" stroke="black" points="1384.59,-798 1384.59,-847"/>
<text text-anchor="middle" x="1404.22" y="-825.7" font-family="Times,serif" font-size="14.00">$14</text>
<text text-anchor="middle" x="1404.22" y="-809.2" font-family="Times,serif" font-size="14.00">$shr</text>
<polyline fill="none" stroke="black" points="1423.84,-798 1423.84,-847"/>
<text text-anchor="middle" x="1436.72" y="-817.7" font-family="Times,serif" font-size="14.00">Y</text>
</g>
<!-- n23&#45;&gt;c50 -->
<g id="edge74" class="edge">
<title>n23:e&#45;&gt;c50:w</title>
<path fill="none" stroke="black" stroke-width="3" d="M107.84,-644.5C171.66,-644.5 96.63,-740.56 143.84,-783.5 191.69,-827.02 653.92,-875.5 718.59,-875.5 718.59,-875.5 718.59,-875.5 1125.84,-875.5 1213.8,-875.5 1245.77,-898.88 1322.84,-856.5 1341.39,-846.3 1336.37,-822.14 1347.8,-813.44"/>
<polygon fill="black" stroke="black" stroke-width="3" points="1345.85,-817.65 1354.48,-811.51 1343.9,-810.93 1345.85,-817.65"/>
</g>
<!-- c53 -->
<g id="node48" class="node">
<title>c53</title>
<polygon fill="none" stroke="black" points="405.59,-576 405.59,-625 498.59,-625 498.59,-576 405.59,-576"/>
<text text-anchor="middle" x="418.47" y="-607.7" font-family="Times,serif" font-size="14.00">A</text>
<polyline fill="none" stroke="black" points="405.59,-600.5 431.34,-600.5"/>
<text text-anchor="middle" x="418.47" y="-583.2" font-family="Times,serif" font-size="14.00">B</text>
<polyline fill="none" stroke="black" points="431.34,-576 431.34,-625"/>
<text text-anchor="middle" x="452.09" y="-603.7" font-family="Times,serif" font-size="14.00">$3</text>
<text text-anchor="middle" x="452.09" y="-587.2" font-family="Times,serif" font-size="14.00">$sub</text>
<polyline fill="none" stroke="black" points="472.84,-576 472.84,-625"/>
<text text-anchor="middle" x="485.72" y="-595.7" font-family="Times,serif" font-size="14.00">Y</text>
</g>
<!-- n23&#45;&gt;c53 -->
<g id="edge75" class="edge">
<title>n23:e&#45;&gt;c53:w</title>
<path fill="none" stroke="black" stroke-width="3" d="M107.84,-644.5C125.93,-644.5 126.66,-631.18 143.84,-625.5 251.7,-589.84 285.83,-588.31 394.16,-588.25"/>
<polygon fill="black" stroke="black" stroke-width="3" points="391.05,-591.75 401.05,-588.25 391.05,-584.75 391.05,-591.75"/>
</g>
<!-- c55 -->
<g id="node50" class="node">
<title>c55</title>
<polygon fill="none" stroke="black" points="810.84,-147 810.84,-196 903.84,-196 903.84,-147 810.84,-147"/>
<text text-anchor="middle" x="823.72" y="-178.7" font-family="Times,serif" font-size="14.00">A</text>
<polyline fill="none" stroke="black" points="810.84,-171.5 836.59,-171.5"/>
<text text-anchor="middle" x="823.72" y="-154.2" font-family="Times,serif" font-size="14.00">B</text>
<polyline fill="none" stroke="black" points="836.59,-147 836.59,-196"/>
<text text-anchor="middle" x="857.34" y="-174.7" font-family="Times,serif" font-size="14.00">$20</text>
<text text-anchor="middle" x="857.34" y="-158.2" font-family="Times,serif" font-size="14.00">$sub</text>
<polyline fill="none" stroke="black" points="878.09,-147 878.09,-196"/>
<text text-anchor="middle" x="890.97" y="-166.7" font-family="Times,serif" font-size="14.00">Y</text>
</g>
<!-- n23&#45;&gt;c55 -->
<g id="edge76" class="edge">
<title>n23:e&#45;&gt;c55:w</title>
<path fill="none" stroke="black" stroke-width="3" d="M107.84,-644.5C153.41,-644.5 121.8,-588.38 143.84,-548.5 206.54,-435.05 190.96,-316.5 320.59,-316.5 320.59,-316.5 320.59,-316.5 582.47,-316.5 701.73,-316.5 688.63,-169.22 799.36,-159.73"/>
<polygon fill="black" stroke="black" stroke-width="3" points="796.46,-163.35 806.31,-159.44 796.17,-156.36 796.46,-163.35"/>
</g>
<!-- n24 -->
<g id="node2" class="node">
<title>n24</title>
<polygon fill="none" stroke="black" points="5475.3,-86.04 5475.3,-100.96 5440.79,-111.5 5391.99,-111.5 5357.49,-100.96 5357.49,-86.04 5391.99,-75.5 5440.79,-75.5 5475.3,-86.04"/>
<text text-anchor="middle" x="5416.39" y="-88.45" font-family="Times,serif" font-size="14.00">output_data</text>
</g>
<!-- x35 -->
<g id="node68" class="node">
<title>x35</title>
<path fill="none" stroke="black" d="M5523.3,-51.5C5523.3,-51.5 5592.55,-51.5 5592.55,-51.5 5598.55,-51.5 5604.55,-57.5 5604.55,-63.5 5604.55,-63.5 5604.55,-75.5 5604.55,-75.5 5604.55,-81.5 5598.55,-87.5 5592.55,-87.5 5592.55,-87.5 5523.3,-87.5 5523.3,-87.5 5517.3,-87.5 5511.3,-81.5 5511.3,-75.5 5511.3,-75.5 5511.3,-63.5 5511.3,-63.5 5511.3,-57.5 5517.3,-51.5 5523.3,-51.5"/>
<text text-anchor="middle" x="5557.93" y="-64.7" font-family="Times,serif" font-size="14.00">8x 31:31 &#45; 7:0</text>
</g>
<!-- n24&#45;&gt;x35 -->
<g id="edge80" class="edge">
<title>n24:e&#45;&gt;x35:w</title>
<path fill="none" stroke="black" stroke-width="3" d="M5475.3,-93.5C5489.83,-93.5 5492,-79.86 5500.55,-73.25"/>
<polygon fill="black" stroke="black" stroke-width="3" points="5498.56,-77.58 5506.98,-71.16 5496.39,-70.93 5498.56,-77.58"/>
</g>
<!-- n25 -->
<g id="node3" class="node">
<title>n25</title>
<polygon fill="none" stroke="black" points="719.59,-538.5 664.34,-520.5 719.59,-502.5 774.84,-520.5 719.59,-538.5"/>
<text text-anchor="middle" x="719.59" y="-515.45" font-family="Times,serif" font-size="14.00">temp_1</text>
</g>
<!-- c36 -->
<g id="node14" class="node">
<title>c36</title>
<polygon fill="none" stroke="black" points="939.84,-443 939.84,-492 1033.59,-492 1033.59,-443 939.84,-443"/>
<text text-anchor="middle" x="952.72" y="-474.7" font-family="Times,serif" font-size="14.00">A</text>
<polyline fill="none" stroke="black" points="939.84,-467.5 965.59,-467.5"/>
<text text-anchor="middle" x="952.72" y="-450.2" font-family="Times,serif" font-size="14.00">B</text>
<polyline fill="none" stroke="black" points="965.59,-443 965.59,-492"/>
<text text-anchor="middle" x="986.72" y="-470.7" font-family="Times,serif" font-size="14.00">$6</text>
<text text-anchor="middle" x="986.72" y="-454.2" font-family="Times,serif" font-size="14.00">$and</text>
<polyline fill="none" stroke="black" points="1007.84,-443 1007.84,-492"/>
<text text-anchor="middle" x="1020.72" y="-462.7" font-family="Times,serif" font-size="14.00">Y</text>
</g>
<!-- n25&#45;&gt;c36 -->
<g id="edge82" class="edge">
<title>n25:e&#45;&gt;c36:w</title>
<path fill="none" stroke="black" stroke-width="3" d="M774.84,-520.5C800.8,-520.5 788.41,-487.57 810.84,-474.5 857.51,-447.32 878.87,-454.08 928.45,-455.13"/>
<polygon fill="black" stroke="black" stroke-width="3" points="925.26,-458.59 935.3,-455.2 925.34,-451.59 925.26,-458.59"/>
</g>
<!-- x4 -->
<g id="node18" class="node">
<title>x4</title>
<path fill="none" stroke="black" d="M967.47,-364.5C967.47,-364.5 1005.97,-364.5 1005.97,-364.5 1011.97,-364.5 1017.97,-370.5 1017.97,-376.5 1017.97,-376.5 1017.97,-388.5 1017.97,-388.5 1017.97,-394.5 1011.97,-400.5 1005.97,-400.5 1005.97,-400.5 967.47,-400.5 967.47,-400.5 961.47,-400.5 955.47,-394.5 955.47,-388.5 955.47,-388.5 955.47,-376.5 955.47,-376.5 955.47,-370.5 961.47,-364.5 967.47,-364.5"/>
<text text-anchor="middle" x="986.72" y="-377.7" font-family="Times,serif" font-size="14.00">0:0 &#45; 0:0</text>
</g>
<!-- n25&#45;&gt;x4 -->
<g id="edge92" class="edge">
<title>n25:e&#45;&gt;x4:w</title>
<path fill="none" stroke="black" d="M774.84,-520.5C810.22,-520.5 785.4,-474.09 810.84,-449.5 858.69,-403.26 881.52,-384.79 943.33,-382.91"/>
<polygon fill="black" stroke="black" points="943.01,-386.42 952.95,-382.77 942.9,-379.42 943.01,-386.42"/>
</g>
<!-- x5 -->
<g id="node20" class="node">
<title>x5</title>
<path fill="none" stroke="black" d="M1511.72,-291.5C1511.72,-291.5 1550.22,-291.5 1550.22,-291.5 1556.22,-291.5 1562.22,-297.5 1562.22,-303.5 1562.22,-303.5 1562.22,-315.5 1562.22,-315.5 1562.22,-321.5 1556.22,-327.5 1550.22,-327.5 1550.22,-327.5 1511.72,-327.5 1511.72,-327.5 1505.72,-327.5 1499.72,-321.5 1499.72,-315.5 1499.72,-315.5 1499.72,-303.5 1499.72,-303.5 1499.72,-297.5 1505.72,-291.5 1511.72,-291.5"/>
<text text-anchor="middle" x="1530.97" y="-304.7" font-family="Times,serif" font-size="14.00">0:0 &#45; 0:0</text>
</g>
<!-- n25&#45;&gt;x5 -->
<g id="edge93" class="edge">
<title>n25:e&#45;&gt;x5:w</title>
<path fill="none" stroke="black" d="M774.84,-520.5C837.8,-520.5 769.28,-430.79 810.84,-383.5 866.22,-320.49 901.83,-312.5 985.72,-312.5 985.72,-312.5 985.72,-312.5 1270.47,-312.5 1368.06,-312.5 1395.23,-309.96 1487.45,-309.76"/>
<polygon fill="black" stroke="black" points="1487.21,-313.26 1497.2,-309.75 1487.2,-306.26 1487.21,-313.26"/>
</g>
<!-- c48 -->
<g id="node38" class="node">
<title>c48</title>
<polygon fill="none" stroke="black" points="814.59,-484 814.59,-533 900.09,-533 900.09,-484 814.59,-484"/>
<text text-anchor="middle" x="827.47" y="-515.7" font-family="Times,serif" font-size="14.00">A</text>
<polyline fill="none" stroke="black" points="814.59,-508.5 840.34,-508.5"/>
<text text-anchor="middle" x="827.47" y="-491.2" font-family="Times,serif" font-size="14.00">B</text>
<polyline fill="none" stroke="black" points="840.34,-484 840.34,-533"/>
<text text-anchor="middle" x="857.34" y="-511.7" font-family="Times,serif" font-size="14.00">$5</text>
<text text-anchor="middle" x="857.34" y="-495.2" font-family="Times,serif" font-size="14.00">$or</text>
<polyline fill="none" stroke="black" points="874.34,-484 874.34,-533"/>
<text text-anchor="middle" x="887.22" y="-503.7" font-family="Times,serif" font-size="14.00">Y</text>
</g>
<!-- n25&#45;&gt;c48 -->
<g id="edge83" class="edge">
<title>n25:e&#45;&gt;c48:w</title>
<path fill="none" stroke="black" stroke-width="3" d="M774.84,-520.5C787.49,-520.5 793.17,-520.63 802.12,-520.71"/>
<polygon fill="black" stroke="black" stroke-width="3" points="799.04,-524.19 809.05,-520.73 799.06,-517.19 799.04,-524.19"/>
</g>
<!-- n25&#45;&gt;c48 -->
<g id="edge84" class="edge">
<title>n25:e&#45;&gt;c48:w</title>
<path fill="none" stroke="black" stroke-width="3" d="M774.84,-520.5C790.56,-520.5 792.99,-505.99 802.69,-499.42"/>
<polygon fill="black" stroke="black" stroke-width="3" points="800.61,-503.67 809.23,-497.52 798.65,-496.95 800.61,-503.67"/>
</g>
<!-- c49 -->
<g id="node39" class="node">
<title>c49</title>
<polygon fill="none" stroke="black" points="941.34,-686 941.34,-735 1032.09,-735 1032.09,-686 941.34,-686"/>
<text text-anchor="middle" x="954.22" y="-717.7" font-family="Times,serif" font-size="14.00">A</text>
<polyline fill="none" stroke="black" points="941.34,-710.5 967.09,-710.5"/>
<text text-anchor="middle" x="954.22" y="-693.2" font-family="Times,serif" font-size="14.00">B</text>
<polyline fill="none" stroke="black" points="967.09,-686 967.09,-735"/>
<text text-anchor="middle" x="986.72" y="-713.7" font-family="Times,serif" font-size="14.00">$11</text>
<text text-anchor="middle" x="986.72" y="-697.2" font-family="Times,serif" font-size="14.00">$shr</text>
<polyline fill="none" stroke="black" points="1006.34,-686 1006.34,-735"/>
<text text-anchor="middle" x="1019.22" y="-705.7" font-family="Times,serif" font-size="14.00">Y</text>
</g>
<!-- n25&#45;&gt;c49 -->
<g id="edge85" class="edge">
<title>n25:e&#45;&gt;c49:w</title>
<path fill="none" stroke="black" stroke-width="3" d="M774.84,-520.5C835.22,-520.5 769.85,-607.17 810.84,-651.5 829.42,-671.59 893.9,-693.15 929.2,-697.47"/>
<polygon fill="black" stroke="black" stroke-width="3" points="925.59,-700.73 935.81,-697.93 926.08,-693.74 925.59,-700.73"/>
</g>
<!-- x15 -->
<g id="node40" class="node">
<title>x15</title>
<path fill="none" stroke="black" d="M838.09,-704.5C838.09,-704.5 876.59,-704.5 876.59,-704.5 882.59,-704.5 888.59,-710.5 888.59,-716.5 888.59,-716.5 888.59,-728.5 888.59,-728.5 888.59,-734.5 882.59,-740.5 876.59,-740.5 876.59,-740.5 838.09,-740.5 838.09,-740.5 832.09,-740.5 826.09,-734.5 826.09,-728.5 826.09,-728.5 826.09,-716.5 826.09,-716.5 826.09,-710.5 832.09,-704.5 838.09,-704.5"/>
<text text-anchor="middle" x="857.34" y="-717.7" font-family="Times,serif" font-size="14.00">0:0 &#45; 0:0</text>
</g>
<!-- n25&#45;&gt;x15 -->
<g id="edge89" class="edge">
<title>n25:e&#45;&gt;x15:w</title>
<path fill="none" stroke="black" d="M774.84,-520.5C863.3,-520.5 744.14,-704.99 813.95,-721.56"/>
<polygon fill="black" stroke="black" points="813.27,-725.01 823.59,-722.59 814.01,-718.05 813.27,-725.01"/>
</g>
<!-- x19 -->
<g id="node47" class="node">
<title>x19</title>
<path fill="none" stroke="black" d="M2235.97,-592.5C2235.97,-592.5 2274.47,-592.5 2274.47,-592.5 2280.47,-592.5 2286.47,-598.5 2286.47,-604.5 2286.47,-604.5 2286.47,-616.5 2286.47,-616.5 2286.47,-622.5 2280.47,-628.5 2274.47,-628.5 2274.47,-628.5 2235.97,-628.5 2235.97,-628.5 2229.97,-628.5 2223.97,-622.5 2223.97,-616.5 2223.97,-616.5 2223.97,-604.5 2223.97,-604.5 2223.97,-598.5 2229.97,-592.5 2235.97,-592.5"/>
<text text-anchor="middle" x="2255.22" y="-605.7" font-family="Times,serif" font-size="14.00">0:0 &#45; 0:0</text>
</g>
<!-- n25&#45;&gt;x19 -->
<g id="edge90" class="edge">
<title>n25:e&#45;&gt;x19:w</title>
<path fill="none" stroke="black" d="M774.84,-520.5C804.06,-520.5 786.15,-559.89 810.84,-575.5 877.15,-617.42 907.27,-599.5 985.72,-599.5 985.72,-599.5 985.72,-599.5 2029.84,-599.5 2111.96,-599.5 2134.96,-609.76 2211.76,-610.68"/>
<polygon fill="black" stroke="black" points="2211.43,-614.18 2221.45,-610.74 2211.48,-607.18 2211.43,-614.18"/>
</g>
<!-- c54 -->
<g id="node49" class="node">
<title>c54</title>
<polygon fill="none" stroke="black" points="1222.97,-798 1222.97,-847 1315.97,-847 1315.97,-798 1222.97,-798"/>
<text text-anchor="middle" x="1235.84" y="-829.7" font-family="Times,serif" font-size="14.00">A</text>
<polyline fill="none" stroke="black" points="1222.97,-822.5 1248.72,-822.5"/>
<text text-anchor="middle" x="1235.84" y="-805.2" font-family="Times,serif" font-size="14.00">B</text>
<polyline fill="none" stroke="black" points="1248.72,-798 1248.72,-847"/>
<text text-anchor="middle" x="1269.47" y="-825.7" font-family="Times,serif" font-size="14.00">$13</text>
<text text-anchor="middle" x="1269.47" y="-809.2" font-family="Times,serif" font-size="14.00">$sub</text>
<polyline fill="none" stroke="black" points="1290.22,-798 1290.22,-847"/>
<text text-anchor="middle" x="1303.09" y="-817.7" font-family="Times,serif" font-size="14.00">Y</text>
</g>
<!-- n25&#45;&gt;c54 -->
<g id="edge86" class="edge">
<title>n25:e&#45;&gt;c54:w</title>
<path fill="none" stroke="black" stroke-width="3" d="M774.84,-520.5C819.16,-520.5 778.07,-583.66 810.84,-613.5 848.88,-648.13 987.19,-654.29 1033.59,-676.5 1054.44,-686.48 1169.65,-786.92 1211.13,-806.83"/>
<polygon fill="black" stroke="black" stroke-width="3" points="1207.05,-809.21 1217.64,-808.88 1209.16,-802.54 1207.05,-809.21"/>
</g>
<!-- n25&#45;&gt;c55 -->
<g id="edge87" class="edge">
<title>n25:e&#45;&gt;c55:w</title>
<path fill="none" stroke="black" stroke-width="3" d="M774.84,-520.5C845.84,-520.5 747.95,-220.82 799.81,-186.87"/>
<polygon fill="black" stroke="black" stroke-width="3" points="797.8,-191.07 806.47,-184.99 795.9,-184.34 797.8,-191.07"/>
</g>
<!-- c56 -->
<g id="node52" class="node">
<title>c56</title>
<polygon fill="none" stroke="black" points="4665.39,-212 4665.39,-261 4758.39,-261 4758.39,-212 4665.39,-212"/>
<text text-anchor="middle" x="4678.26" y="-243.7" font-family="Times,serif" font-size="14.00">A</text>
<polyline fill="none" stroke="black" points="4665.39,-236.5 4691.14,-236.5"/>
<text text-anchor="middle" x="4678.26" y="-219.2" font-family="Times,serif" font-size="14.00">B</text>
<polyline fill="none" stroke="black" points="4691.14,-212 4691.14,-261"/>
<text text-anchor="middle" x="4711.89" y="-239.7" font-family="Times,serif" font-size="14.00">$25</text>
<text text-anchor="middle" x="4711.89" y="-223.2" font-family="Times,serif" font-size="14.00">$sub</text>
<polyline fill="none" stroke="black" points="4732.64,-212 4732.64,-261"/>
<text text-anchor="middle" x="4745.51" y="-231.7" font-family="Times,serif" font-size="14.00">Y</text>
</g>
<!-- n25&#45;&gt;c56 -->
<g id="edge88" class="edge">
<title>n25:e&#45;&gt;c56:w</title>
<path fill="none" stroke="black" stroke-width="3" d="M774.84,-520.5C820.88,-520.5 783.7,-353.68 810.84,-316.5 862.62,-245.57 897.9,-224.5 985.72,-224.5 985.72,-224.5 985.72,-224.5 4437.01,-224.5 4534.65,-224.5 4561.84,-224.27 4654.11,-224.25"/>
<polygon fill="black" stroke="black" stroke-width="3" points="4650.85,-227.75 4660.85,-224.25 4650.85,-220.75 4650.85,-227.75"/>
</g>
<!-- x23 -->
<g id="node56" class="node">
<title>x23</title>
<path fill="none" stroke="black" d="M2353.84,-496.5C2353.84,-496.5 2392.34,-496.5 2392.34,-496.5 2398.34,-496.5 2404.34,-502.5 2404.34,-508.5 2404.34,-508.5 2404.34,-520.5 2404.34,-520.5 2404.34,-526.5 2398.34,-532.5 2392.34,-532.5 2392.34,-532.5 2353.84,-532.5 2353.84,-532.5 2347.84,-532.5 2341.84,-526.5 2341.84,-520.5 2341.84,-520.5 2341.84,-508.5 2341.84,-508.5 2341.84,-502.5 2347.84,-496.5 2353.84,-496.5"/>
<text text-anchor="middle" x="2373.09" y="-509.7" font-family="Times,serif" font-size="14.00">0:0 &#45; 0:0</text>
</g>
<!-- n25&#45;&gt;x23 -->
<g id="edge91" class="edge">
<title>n25:e&#45;&gt;x23:w</title>
<path fill="none" stroke="black" d="M774.84,-520.5C793.59,-520.5 793.09,-536.45 810.84,-542.5 884.84,-567.71 907.54,-561.5 985.72,-561.5 985.72,-561.5 985.72,-561.5 1270.47,-561.5 1742.81,-561.5 1862.74,-515.5 2329.4,-514.76"/>
<polygon fill="black" stroke="black" points="2329.33,-518.26 2339.33,-514.75 2329.33,-511.26 2329.33,-518.26"/>
</g>
<!-- n26 -->
<g id="node4" class="node">
<title>n26</title>
<polygon fill="none" stroke="black" points="1124.84,-456.5 1069.59,-438.5 1124.84,-420.5 1180.09,-438.5 1124.84,-456.5"/>
<text text-anchor="middle" x="1124.84" y="-433.45" font-family="Times,serif" font-size="14.00">temp_3</text>
</g>
<!-- c37 -->
<g id="node15" class="node">
<title>c37</title>
<polygon fill="none" stroke="black" points="1222.59,-382 1222.59,-431 1316.34,-431 1316.34,-382 1222.59,-382"/>
<text text-anchor="middle" x="1235.47" y="-413.7" font-family="Times,serif" font-size="14.00">A</text>
<polyline fill="none" stroke="black" points="1222.59,-406.5 1248.34,-406.5"/>
<text text-anchor="middle" x="1235.47" y="-389.2" font-family="Times,serif" font-size="14.00">B</text>
<polyline fill="none" stroke="black" points="1248.34,-382 1248.34,-431"/>
<text text-anchor="middle" x="1269.47" y="-409.7" font-family="Times,serif" font-size="14.00">$7</text>
<text text-anchor="middle" x="1269.47" y="-393.2" font-family="Times,serif" font-size="14.00">$and</text>
<polyline fill="none" stroke="black" points="1290.59,-382 1290.59,-431"/>
<text text-anchor="middle" x="1303.47" y="-401.7" font-family="Times,serif" font-size="14.00">Y</text>
</g>
<!-- n26&#45;&gt;c37 -->
<g id="edge95" class="edge">
<title>n26:e&#45;&gt;c37:w</title>
<path fill="none" stroke="black" stroke-width="3" d="M1180.09,-438.5C1196.05,-438.5 1199.94,-426.45 1210.61,-421.17"/>
<polygon fill="black" stroke="black" stroke-width="3" points="1208.15,-425.3 1217.16,-419.73 1206.64,-418.46 1208.15,-425.3"/>
</g>
<!-- n26&#45;&gt;c37 -->
<g id="edge96" class="edge">
<title>n26:e&#45;&gt;c37:w</title>
<path fill="none" stroke="black" stroke-width="3" d="M1180.09,-438.5C1202.42,-438.5 1197.74,-408.15 1210.78,-397.72"/>
<polygon fill="black" stroke="black" stroke-width="3" points="1208.82,-402.03 1217.27,-395.64 1206.68,-395.36 1208.82,-402.03"/>
</g>
<!-- c40 -->
<g id="node21" class="node">
<title>c40</title>
<polygon fill="none" stroke="black" points="1223.72,-488 1223.72,-529 1315.22,-529 1315.22,-488 1223.72,-488"/>
<text text-anchor="middle" x="1236.59" y="-503.7" font-family="Times,serif" font-size="14.00">A</text>
<polyline fill="none" stroke="black" points="1249.47,-488 1249.47,-529"/>
<text text-anchor="middle" x="1269.47" y="-511.7" font-family="Times,serif" font-size="14.00">$55</text>
<text text-anchor="middle" x="1269.47" y="-495.2" font-family="Times,serif" font-size="14.00">$not</text>
<polyline fill="none" stroke="black" points="1289.47,-488 1289.47,-529"/>
<text text-anchor="middle" x="1302.34" y="-503.7" font-family="Times,serif" font-size="14.00">Y</text>
</g>
<!-- n26&#45;&gt;c40 -->
<g id="edge97" class="edge">
<title>n26:e&#45;&gt;c40:w</title>
<path fill="none" stroke="black" stroke-width="3" d="M1180.09,-438.5C1212.05,-438.5 1192.76,-492.29 1211.9,-505.73"/>
<polygon fill="black" stroke="black" stroke-width="3" points="1207.77,-508.21 1218.34,-507.53 1209.65,-501.47 1207.77,-508.21"/>
</g>
<!-- c43 -->
<g id="node25" class="node">
<title>c43</title>
<polygon fill="none" stroke="black" points="1980.84,-347 1980.84,-396 2076.84,-396 2076.84,-347 1980.84,-347"/>
<text text-anchor="middle" x="1993.72" y="-378.7" font-family="Times,serif" font-size="14.00">A</text>
<polyline fill="none" stroke="black" points="1980.84,-371.5 2006.59,-371.5"/>
<text text-anchor="middle" x="1993.72" y="-354.2" font-family="Times,serif" font-size="14.00">B</text>
<polyline fill="none" stroke="black" points="2006.59,-347 2006.59,-396"/>
<text text-anchor="middle" x="2028.84" y="-374.7" font-family="Times,serif" font-size="14.00">$10</text>
<text text-anchor="middle" x="2028.84" y="-358.2" font-family="Times,serif" font-size="14.00">$mul</text>
<polyline fill="none" stroke="black" points="2051.09,-347 2051.09,-396"/>
<text text-anchor="middle" x="2063.97" y="-366.7" font-family="Times,serif" font-size="14.00">Y</text>
</g>
<!-- n26&#45;&gt;c43 -->
<g id="edge98" class="edge">
<title>n26:e&#45;&gt;c43:w</title>
<path fill="none" stroke="black" stroke-width="3" d="M1180.09,-438.5C1213.51,-438.5 1192.85,-396.5 1216.09,-372.5 1283.21,-303.2 1306.75,-262.5 1403.22,-262.5 1403.22,-262.5 1403.22,-262.5 1787.72,-262.5 1832.25,-262.5 1919.06,-345.77 1969.7,-357.81"/>
<polygon fill="black" stroke="black" stroke-width="3" points="1965.97,-360.85 1976.34,-358.67 1966.87,-353.91 1965.97,-360.85"/>
</g>
<!-- c47 -->
<g id="node35" class="node">
<title>c47</title>
<polygon fill="none" stroke="black" points="3899.31,-578 3899.31,-627 3987.06,-627 3987.06,-578 3899.31,-578"/>
<text text-anchor="middle" x="3912.18" y="-609.7" font-family="Times,serif" font-size="14.00">A</text>
<polyline fill="none" stroke="black" points="3899.31,-602.5 3925.06,-602.5"/>
<text text-anchor="middle" x="3912.18" y="-585.2" font-family="Times,serif" font-size="14.00">B</text>
<polyline fill="none" stroke="black" points="3925.06,-578 3925.06,-627"/>
<text text-anchor="middle" x="3943.18" y="-605.7" font-family="Times,serif" font-size="14.00">$23</text>
<text text-anchor="middle" x="3943.18" y="-589.2" font-family="Times,serif" font-size="14.00">$ne</text>
<polyline fill="none" stroke="black" points="3961.31,-578 3961.31,-627"/>
<text text-anchor="middle" x="3974.18" y="-597.7" font-family="Times,serif" font-size="14.00">Y</text>
</g>
<!-- n26&#45;&gt;c47 -->
<g id="edge99" class="edge">
<title>n26:e&#45;&gt;c47:w</title>
<path fill="none" stroke="black" stroke-width="3" d="M1180.09,-438.5C1196.12,-438.5 1200.08,-439.91 1216.09,-440.5 1335.81,-444.93 1365.8,-444.39 1485.59,-445.5 1525.92,-445.87 1536.03,-446.76 1576.34,-445.5 1740.51,-440.38 1781.21,-431.75 1944.84,-417.5 2003.53,-412.39 2018.25,-411.57 2076.84,-405.5 2494.08,-362.29 2594.87,-296.5 3014.34,-296.5 3014.34,-296.5 3014.34,-296.5 3648.03,-296.5 3783.05,-296.5 3675.68,-486.99 3783.33,-568.5 3821.63,-597.5 3842.91,-591.48 3886.93,-590.4"/>
<polygon fill="black" stroke="black" stroke-width="3" points="3883.81,-593.94 3893.77,-590.31 3883.72,-586.94 3883.81,-593.94"/>
</g>
<!-- n27 -->
<g id="node5" class="node">
<title>n27</title>
<polygon fill="none" stroke="black" points="2764.09,-533.5 2708.84,-515.5 2764.09,-497.5 2819.34,-515.5 2764.09,-533.5"/>
<text text-anchor="middle" x="2764.09" y="-510.45" font-family="Times,serif" font-size="14.00">temp_4</text>
</g>
<!-- c33 -->
<g id="node8" class="node">
<title>c33</title>
<polygon fill="none" stroke="black" points="4389.14,-483 4389.14,-532 4482.89,-532 4482.89,-483 4389.14,-483"/>
<text text-anchor="middle" x="4402.01" y="-514.7" font-family="Times,serif" font-size="14.00">A</text>
<polyline fill="none" stroke="black" points="4389.14,-507.5 4414.89,-507.5"/>
<text text-anchor="middle" x="4402.01" y="-490.2" font-family="Times,serif" font-size="14.00">B</text>
<polyline fill="none" stroke="black" points="4414.89,-483 4414.89,-532"/>
<text text-anchor="middle" x="4436.01" y="-510.7" font-family="Times,serif" font-size="14.00">$24</text>
<text text-anchor="middle" x="4436.01" y="-494.2" font-family="Times,serif" font-size="14.00">$add</text>
<polyline fill="none" stroke="black" points="4457.14,-483 4457.14,-532"/>
<text text-anchor="middle" x="4470.01" y="-502.7" font-family="Times,serif" font-size="14.00">Y</text>
</g>
<!-- n27&#45;&gt;c33 -->
<g id="edge101" class="edge">
<title>n27:e&#45;&gt;c33:w</title>
<path fill="none" stroke="black" stroke-width="3" d="M2819.34,-515.5C2830.23,-515.5 3003.46,-496.5 3014.34,-496.5 3014.34,-496.5 3014.34,-496.5 3227.64,-496.5 3382.9,-496.5 3421.72,-495.5 3576.98,-495.5 3576.98,-495.5 3576.98,-495.5 4253.84,-495.5 4309.98,-495.5 4326.81,-495.28 4377.73,-495.25"/>
<polygon fill="black" stroke="black" stroke-width="3" points="4374.6,-498.75 4384.6,-495.25 4374.6,-491.75 4374.6,-498.75"/>
</g>
<!-- x9 -->
<g id="node30" class="node">
<title>x9</title>
<path fill="none" stroke="black" d="M2867.34,-325C2867.34,-325 2919.34,-325 2919.34,-325 2925.34,-325 2931.34,-331 2931.34,-337 2931.34,-337 2931.34,-362 2931.34,-362 2931.34,-368 2925.34,-374 2919.34,-374 2919.34,-374 2867.34,-374 2867.34,-374 2861.34,-374 2855.34,-368 2855.34,-362 2855.34,-362 2855.34,-337 2855.34,-337 2855.34,-331 2861.34,-325 2867.34,-325"/>
<text text-anchor="middle" x="2893.34" y="-356.7" font-family="Times,serif" font-size="14.00">0 &#45;&gt; 17:17</text>
<polyline fill="none" stroke="black" points="2855.34,-349.5 2931.34,-349.5"/>
<text text-anchor="middle" x="2893.34" y="-332.2" font-family="Times,serif" font-size="14.00">16:0 &#45; 16:0</text>
</g>
<!-- n27&#45;&gt;x9 -->
<g id="edge103" class="edge">
<title>n27:e&#45;&gt;x9:w</title>
<path fill="none" stroke="black" stroke-width="3" d="M2819.34,-515.5C2895.9,-515.5 2787.2,-355.55 2844.22,-338.68"/>
<polygon fill="black" stroke="black" stroke-width="3" points="2841.37,-342.58 2850.84,-337.83 2840.48,-335.64 2841.37,-342.58"/>
</g>
<!-- c46 -->
<g id="node32" class="node">
<title>c46</title>
<polygon fill="none" stroke="black" points="3408.34,-524 3408.34,-573 3496.09,-573 3496.09,-524 3408.34,-524"/>
<text text-anchor="middle" x="3421.21" y="-555.7" font-family="Times,serif" font-size="14.00">A</text>
<polyline fill="none" stroke="black" points="3408.34,-548.5 3434.09,-548.5"/>
<text text-anchor="middle" x="3421.21" y="-531.2" font-family="Times,serif" font-size="14.00">B</text>
<polyline fill="none" stroke="black" points="3434.09,-524 3434.09,-573"/>
<text text-anchor="middle" x="3452.21" y="-551.7" font-family="Times,serif" font-size="14.00">$22</text>
<text text-anchor="middle" x="3452.21" y="-535.2" font-family="Times,serif" font-size="14.00">$ne</text>
<polyline fill="none" stroke="black" points="3470.34,-524 3470.34,-573"/>
<text text-anchor="middle" x="3483.21" y="-543.7" font-family="Times,serif" font-size="14.00">Y</text>
</g>
<!-- n27&#45;&gt;c46 -->
<g id="edge102" class="edge">
<title>n27:e&#45;&gt;c46:w</title>
<path fill="none" stroke="black" stroke-width="3" d="M2819.34,-515.5C2906.47,-515.5 2927.22,-535.5 3014.34,-535.5 3014.34,-535.5 3014.34,-535.5 3227.64,-535.5 3303.61,-535.5 3325.38,-536.18 3396.05,-536.24"/>
<polygon fill="black" stroke="black" stroke-width="3" points="3392.79,-539.74 3402.8,-536.25 3392.8,-532.74 3392.79,-539.74"/>
</g>
<!-- n28 -->
<g id="node6" class="node">
<title>n28</title>
<polygon fill="none" stroke="black" points="4574.14,-388.5 4518.89,-370.5 4574.14,-352.5 4629.39,-370.5 4574.14,-388.5"/>
<text text-anchor="middle" x="4574.14" y="-365.45" font-family="Times,serif" font-size="14.00">temp_5</text>
</g>
<!-- n28&#45;&gt;c56 -->
<g id="edge105" class="edge">
<title>n28:e&#45;&gt;c56:w</title>
<path fill="none" stroke="black" stroke-width="3" d="M4629.39,-370.5C4681.41,-370.5 4620.16,-267.03 4654.48,-250.86"/>
<polygon fill="black" stroke="black" stroke-width="3" points="4651.78,-254.95 4660.93,-249.61 4650.45,-248.08 4651.78,-254.95"/>
</g>
<!-- c32&#45;&gt;n25 -->
<g id="edge81" class="edge">
<title>c32:e&#45;&gt;n25:w</title>
<path fill="none" stroke="black" stroke-width="3" d="M628.34,-559.75C647.2,-559.75 643.83,-534.83 653.66,-524.7"/>
<polygon fill="black" stroke="black" stroke-width="3" points="652.09,-529.08 660.12,-522.16 649.53,-522.57 652.09,-529.08"/>
</g>
<!-- c33&#45;&gt;n28 -->
<g id="edge104" class="edge">
<title>c33:e&#45;&gt;n28:w</title>
<path fill="none" stroke="black" stroke-width="3" d="M4482.89,-507.75C4541.52,-507.75 4467.74,-389.12 4507.75,-372.44"/>
<polygon fill="black" stroke="black" stroke-width="3" points="4505.16,-376.44 4514.41,-371.28 4503.96,-369.55 4505.16,-376.44"/>
</g>
<!-- x0 -->
<g id="node9" class="node">
<title>x0</title>
<path fill="none" stroke="black" d="M4302.64,-524.5C4302.64,-524.5 4341.14,-524.5 4341.14,-524.5 4347.14,-524.5 4353.14,-530.5 4353.14,-536.5 4353.14,-536.5 4353.14,-548.5 4353.14,-548.5 4353.14,-554.5 4347.14,-560.5 4341.14,-560.5 4341.14,-560.5 4302.64,-560.5 4302.64,-560.5 4296.64,-560.5 4290.64,-554.5 4290.64,-548.5 4290.64,-548.5 4290.64,-536.5 4290.64,-536.5 4290.64,-530.5 4296.64,-524.5 4302.64,-524.5"/>
<text text-anchor="middle" x="4321.89" y="-537.7" font-family="Times,serif" font-size="14.00">0:0 &#45; 0:0</text>
</g>
<!-- x0&#45;&gt;c33 -->
<g id="edge1" class="edge">
<title>x0:e&#45;&gt;c33:w</title>
<path fill="none" stroke="black" d="M4365.1,-538.11C4369.71,-534.09 4372.58,-528.15 4377.19,-524.12"/>
<polygon fill="none" stroke="black" points="4365.25,-538.06 4360.99,-543.88 4353.98,-542.19 4358.24,-536.37 4365.25,-538.06"/>
<polygon fill="none" stroke="black" points="4377.02,-524.18 4381.28,-518.37 4388.29,-520.06 4384.03,-525.88 4377.02,-524.18"/>
</g>
<!-- x2 -->
<g id="node12" class="node">
<title>x2</title>
<path fill="none" stroke="black" d="M5243.99,-69C5243.99,-69 5309.49,-69 5309.49,-69 5315.49,-69 5321.49,-75 5321.49,-81 5321.49,-81 5321.49,-106 5321.49,-106 5321.49,-112 5315.49,-118 5309.49,-118 5309.49,-118 5243.99,-118 5243.99,-118 5237.99,-118 5231.99,-112 5231.99,-106 5231.99,-106 5231.99,-81 5231.99,-81 5231.99,-75 5237.99,-69 5243.99,-69"/>
<text text-anchor="middle" x="5276.74" y="-100.7" font-family="Times,serif" font-size="14.00">23:23 &#45; 31:31</text>
<polyline fill="none" stroke="black" points="5231.99,-93.5 5321.49,-93.5"/>
<text text-anchor="middle" x="5276.74" y="-76.2" font-family="Times,serif" font-size="14.00">22:0 &#45; 22:0</text>
</g>
<!-- c34&#45;&gt;x2 -->
<g id="edge3" class="edge">
<title>c34:e&#45;&gt;x2:w</title>
<path fill="none" stroke="black" stroke-width="3" d="M5208.71,-93.69C5212.31,-93.65 5215.44,-93.6 5219.02,-93.57"/>
<polygon fill="none" stroke="black" stroke-width="3" points="5210.69,-93.68 5204.71,-97.71 5198.69,-93.74 5204.67,-89.71 5210.69,-93.68"/>
<polygon fill="none" stroke="black" stroke-width="3" points="5217.28,-93.57 5223.26,-89.54 5229.28,-93.51 5223.3,-97.54 5217.28,-93.57"/>
</g>
<!-- x1 -->
<g id="node11" class="node">
<title>x1</title>
<path fill="none" stroke="black" d="M4971.49,-95C4971.49,-95 5054.24,-95 5054.24,-95 5060.24,-95 5066.24,-101 5066.24,-107 5066.24,-107 5066.24,-132 5066.24,-132 5066.24,-138 5060.24,-144 5054.24,-144 5054.24,-144 4971.49,-144 4971.49,-144 4965.49,-144 4959.49,-138 4959.49,-132 4959.49,-132 4959.49,-107 4959.49,-107 4959.49,-101 4965.49,-95 4971.49,-95"/>
<text text-anchor="middle" x="5012.86" y="-126.7" font-family="Times,serif" font-size="14.00">6x 23:23 &#45; 23:18</text>
<polyline fill="none" stroke="black" points="4959.49,-119.5 5066.24,-119.5"/>
<text text-anchor="middle" x="5012.86" y="-102.2" font-family="Times,serif" font-size="14.00">17:0 &#45; 17:0</text>
</g>
<!-- x1&#45;&gt;c34 -->
<g id="edge2" class="edge">
<title>x1:e&#45;&gt;c34:w</title>
<path fill="none" stroke="black" stroke-width="3" d="M5078.73,-116.31C5082.68,-114.09 5085.82,-111.14 5089.78,-108.92"/>
<polygon fill="none" stroke="black" stroke-width="3" points="5080.49,-115.86 5075.66,-121.22 5068.86,-118.83 5073.68,-113.47 5080.49,-115.86"/>
<polygon fill="none" stroke="black" stroke-width="3" points="5087.99,-109.38 5092.82,-104.02 5099.62,-106.42 5094.79,-111.77 5087.99,-109.38"/>
</g>
<!-- x2&#45;&gt;n24 -->
<g id="edge77" class="edge">
<title>x2:e&#45;&gt;n24:w</title>
<path fill="none" stroke="black" stroke-width="3" d="M5321.49,-81.25C5333.77,-81.25 5338.29,-87.72 5346.32,-91.25"/>
<polygon fill="black" stroke="black" stroke-width="3" points="5342.54,-94.06 5353.04,-92.6 5343.92,-87.2 5342.54,-94.06"/>
</g>
<!-- x2&#45;&gt;n24 -->
<g id="edge78" class="edge">
<title>x2:e&#45;&gt;n24:w</title>
<path fill="none" stroke="black" d="M5321.49,-105.75C5333.77,-105.75 5338.29,-99.28 5346.32,-95.75"/>
<polygon fill="black" stroke="black" points="5346.89,-99.2 5356,-93.8 5345.51,-92.34 5346.89,-99.2"/>
</g>
<!-- c35&#45;&gt;c42 -->
<g id="edge29" class="edge">
<title>c35:e&#45;&gt;c42:w</title>
<path fill="none" stroke="black" stroke-width="3" d="M237.59,-677.75C252.7,-677.75 254.21,-662.51 262.94,-655.37"/>
<polygon fill="black" stroke="black" stroke-width="3" points="260.95,-659.74 269.29,-653.21 258.7,-653.11 260.95,-659.74"/>
</g>
<!-- c36&#45;&gt;n26 -->
<g id="edge94" class="edge">
<title>c36:e&#45;&gt;n26:w</title>
<path fill="none" stroke="black" stroke-width="3" d="M1033.59,-467.75C1049.54,-467.75 1050.02,-450.25 1058.96,-442.32"/>
<polygon fill="black" stroke="black" stroke-width="3" points="1057.09,-446.71 1065.32,-440.04 1054.72,-440.13 1057.09,-446.71"/>
</g>
<!-- n2 -->
<g id="node74" class="node">
<title>n2</title>
<ellipse fill="black" stroke="black" cx="1404.22" cy="-406.5" rx="1.8" ry="1.8"/>
</g>
<!-- c37&#45;&gt;n2 -->
<g id="edge51" class="edge">
<title>c37:e&#45;&gt;n2:w</title>
<path fill="none" stroke="black" stroke-width="3" d="M1317.34,-406.75C1350.43,-406.75 1361.42,-406.55 1389.68,-406.51"/>
<polygon fill="black" stroke="black" stroke-width="3" points="1386.4,-410.01 1396.4,-406.5 1386.4,-403.01 1386.4,-410.01"/>
</g>
<!-- c38 -->
<g id="node16" class="node">
<title>c38</title>
<polygon fill="none" stroke="black" points="1612.34,-349 1612.34,-398 1704.59,-398 1704.59,-349 1612.34,-349"/>
<text text-anchor="middle" x="1625.22" y="-380.7" font-family="Times,serif" font-size="14.00">A</text>
<polyline fill="none" stroke="black" points="1612.34,-373.5 1638.09,-373.5"/>
<text text-anchor="middle" x="1625.22" y="-356.2" font-family="Times,serif" font-size="14.00">B</text>
<polyline fill="none" stroke="black" points="1638.09,-349 1638.09,-398"/>
<text text-anchor="middle" x="1658.47" y="-376.7" font-family="Times,serif" font-size="14.00">$49</text>
<text text-anchor="middle" x="1658.47" y="-360.2" font-family="Times,serif" font-size="14.00">$xor</text>
<polyline fill="none" stroke="black" points="1678.84,-349 1678.84,-398"/>
<text text-anchor="middle" x="1691.72" y="-368.7" font-family="Times,serif" font-size="14.00">Y</text>
</g>
<!-- c39 -->
<g id="node19" class="node">
<title>c39</title>
<polygon fill="none" stroke="black" points="1740.59,-337 1740.59,-386 1832.84,-386 1832.84,-337 1740.59,-337"/>
<text text-anchor="middle" x="1753.47" y="-368.7" font-family="Times,serif" font-size="14.00">A</text>
<polyline fill="none" stroke="black" points="1740.59,-361.5 1766.34,-361.5"/>
<text text-anchor="middle" x="1753.47" y="-344.2" font-family="Times,serif" font-size="14.00">B</text>
<polyline fill="none" stroke="black" points="1766.34,-337 1766.34,-386"/>
<text text-anchor="middle" x="1786.72" y="-364.7" font-family="Times,serif" font-size="14.00">$52</text>
<text text-anchor="middle" x="1786.72" y="-348.2" font-family="Times,serif" font-size="14.00">$xor</text>
<polyline fill="none" stroke="black" points="1807.09,-337 1807.09,-386"/>
<text text-anchor="middle" x="1819.97" y="-356.7" font-family="Times,serif" font-size="14.00">Y</text>
</g>
<!-- c38&#45;&gt;c39 -->
<g id="edge106" class="edge">
<title>c38:e&#45;&gt;c39:w</title>
<path fill="none" stroke="black" d="M1704.59,-373.75C1715.97,-373.75 1721.28,-373.75 1729.15,-373.75"/>
<polygon fill="black" stroke="black" points="1729.08,-377.25 1739.08,-373.75 1729.08,-370.25 1729.08,-377.25"/>
</g>
<!-- x3 -->
<g id="node17" class="node">
<title>x3</title>
<path fill="none" stroke="black" d="M1511.72,-385.5C1511.72,-385.5 1550.22,-385.5 1550.22,-385.5 1556.22,-385.5 1562.22,-391.5 1562.22,-397.5 1562.22,-397.5 1562.22,-409.5 1562.22,-409.5 1562.22,-415.5 1556.22,-421.5 1550.22,-421.5 1550.22,-421.5 1511.72,-421.5 1511.72,-421.5 1505.72,-421.5 1499.72,-415.5 1499.72,-409.5 1499.72,-409.5 1499.72,-397.5 1499.72,-397.5 1499.72,-391.5 1505.72,-385.5 1511.72,-385.5"/>
<text text-anchor="middle" x="1530.97" y="-398.7" font-family="Times,serif" font-size="14.00">0:0 &#45; 0:0</text>
</g>
<!-- x3&#45;&gt;c38 -->
<g id="edge4" class="edge">
<title>x3:e&#45;&gt;c38:w</title>
<path fill="none" stroke="black" d="M1575.94,-401.32C1585.03,-397.92 1590.49,-391.36 1599.58,-387.94"/>
<polygon fill="none" stroke="black" points="1575.93,-401.32 1570.7,-406.28 1564.11,-403.35 1569.35,-398.39 1575.93,-401.32"/>
<polygon fill="none" stroke="black" points="1599.63,-387.94 1604.86,-382.98 1611.45,-385.9 1606.22,-390.86 1599.63,-387.94"/>
</g>
<!-- x4&#45;&gt;c38 -->
<g id="edge5" class="edge">
<title>x4:e&#45;&gt;c38:w</title>
<path fill="none" stroke="black" d="M1031.84,-382.45C1109.07,-381.84 1132.89,-375.79 1216.09,-372.5 1387.84,-365.71 1433.93,-361.46 1599.67,-361.26"/>
<polygon fill="none" stroke="black" points="1031.87,-382.45 1025.88,-386.47 1019.87,-382.5 1025.85,-378.47 1031.87,-382.45"/>
<polygon fill="none" stroke="black" points="1599.44,-361.26 1605.44,-357.25 1611.44,-361.25 1605.44,-365.25 1599.44,-361.26"/>
</g>
<!-- x7 -->
<g id="node26" class="node">
<title>x7</title>
<path fill="none" stroke="black" d="M1887.59,-359C1887.59,-359 1926.09,-359 1926.09,-359 1932.09,-359 1938.09,-365 1938.09,-371 1938.09,-371 1938.09,-396 1938.09,-396 1938.09,-402 1932.09,-408 1926.09,-408 1926.09,-408 1887.59,-408 1887.59,-408 1881.59,-408 1875.59,-402 1875.59,-396 1875.59,-396 1875.59,-371 1875.59,-371 1875.59,-365 1881.59,-359 1887.59,-359"/>
<text text-anchor="middle" x="1906.84" y="-390.7" font-family="Times,serif" font-size="14.00">2:1 &#45; 2:1</text>
<polyline fill="none" stroke="black" points="1875.59,-383.5 1938.09,-383.5"/>
<text text-anchor="middle" x="1906.84" y="-366.2" font-family="Times,serif" font-size="14.00">0:0 &#45; 0:0</text>
</g>
<!-- c39&#45;&gt;x7 -->
<g id="edge107" class="edge">
<title>c39:e&#45;&gt;x7:w</title>
<path fill="none" stroke="black" d="M1832.84,-361.75C1847.41,-361.75 1852.99,-367.32 1863.35,-369.93"/>
<polygon fill="black" stroke="black" points="1862.75,-373.38 1873.09,-371.07 1863.57,-366.43 1862.75,-373.38"/>
</g>
<!-- x5&#45;&gt;c39 -->
<g id="edge6" class="edge">
<title>x5:e&#45;&gt;c39:w</title>
<path fill="none" stroke="black" d="M1576.07,-309.72C1629.75,-311.6 1646.54,-325.49 1704.59,-339.5 1715.67,-342.17 1720.7,-345.78 1728.14,-347.77"/>
<polygon fill="none" stroke="black" points="1576.12,-309.72 1570.05,-313.62 1564.12,-309.52 1570.19,-305.62 1576.12,-309.72"/>
<polygon fill="none" stroke="black" points="1727.78,-347.73 1734.21,-344.46 1739.7,-349.14 1733.27,-352.41 1727.78,-347.73"/>
</g>
<!-- x16 -->
<g id="node43" class="node">
<title>x16</title>
<path fill="none" stroke="black" d="M1384.97,-484C1384.97,-484 1423.47,-484 1423.47,-484 1429.47,-484 1435.47,-490 1435.47,-496 1435.47,-496 1435.47,-521 1435.47,-521 1435.47,-527 1429.47,-533 1423.47,-533 1423.47,-533 1384.97,-533 1384.97,-533 1378.97,-533 1372.97,-527 1372.97,-521 1372.97,-521 1372.97,-496 1372.97,-496 1372.97,-490 1378.97,-484 1384.97,-484"/>
<text text-anchor="middle" x="1404.22" y="-515.7" font-family="Times,serif" font-size="14.00">1 &#45;&gt; 9:3</text>
<polyline fill="none" stroke="black" points="1372.97,-508.5 1435.47,-508.5"/>
<text text-anchor="middle" x="1404.22" y="-491.2" font-family="Times,serif" font-size="14.00">2:0 &#45; 2:0</text>
</g>
<!-- c40&#45;&gt;x16 -->
<g id="edge108" class="edge">
<title>c40:e&#45;&gt;x16:w</title>
<path fill="none" stroke="black" stroke-width="3" d="M1316.22,-508.75C1337.44,-508.75 1344.4,-500.02 1360.94,-497.15"/>
<polygon fill="black" stroke="black" stroke-width="3" points="1357.76,-500.92 1367.44,-496.62 1357.19,-493.94 1357.76,-500.92"/>
</g>
<!-- x18 -->
<g id="node46" class="node">
<title>x18</title>
<path fill="none" stroke="black" d="M2347.09,-664C2347.09,-664 2399.09,-664 2399.09,-664 2405.09,-664 2411.09,-670 2411.09,-676 2411.09,-676 2411.09,-701 2411.09,-701 2411.09,-707 2405.09,-713 2399.09,-713 2399.09,-713 2347.09,-713 2347.09,-713 2341.09,-713 2335.09,-707 2335.09,-701 2335.09,-701 2335.09,-676 2335.09,-676 2335.09,-670 2341.09,-664 2347.09,-664"/>
<text text-anchor="middle" x="2373.09" y="-695.7" font-family="Times,serif" font-size="14.00">13:0 &#45; 16:3</text>
<polyline fill="none" stroke="black" points="2335.09,-688.5 2411.09,-688.5"/>
<text text-anchor="middle" x="2373.09" y="-671.2" font-family="Times,serif" font-size="14.00">2:0 &#45; 2:0</text>
</g>
<!-- c41&#45;&gt;x18 -->
<g id="edge109" class="edge">
<title>c41:e&#45;&gt;x18:w</title>
<path fill="none" stroke="black" stroke-width="3" d="M2299.09,-676.75C2310.47,-676.75 2315.78,-676.5 2323.65,-676.35"/>
<polygon fill="black" stroke="black" stroke-width="3" points="2320.58,-679.88 2330.55,-676.29 2320.52,-672.88 2320.58,-679.88"/>
</g>
<!-- x6 -->
<g id="node23" class="node">
<title>x6</title>
<path fill="none" stroke="black" d="M2124.84,-628.5C2124.84,-628.5 2163.34,-628.5 2163.34,-628.5 2169.34,-628.5 2175.34,-634.5 2175.34,-640.5 2175.34,-640.5 2175.34,-652.5 2175.34,-652.5 2175.34,-658.5 2169.34,-664.5 2163.34,-664.5 2163.34,-664.5 2124.84,-664.5 2124.84,-664.5 2118.84,-664.5 2112.84,-658.5 2112.84,-652.5 2112.84,-652.5 2112.84,-640.5 2112.84,-640.5 2112.84,-634.5 2118.84,-628.5 2124.84,-628.5"/>
<text text-anchor="middle" x="2144.09" y="-641.7" font-family="Times,serif" font-size="14.00">2:0 &#45; 2:0</text>
</g>
<!-- x6&#45;&gt;c41 -->
<g id="edge7" class="edge">
<title>x6:e&#45;&gt;c41:w</title>
<path fill="none" stroke="black" stroke-width="3" d="M2187.14,-652.02C2193.38,-660.17 2193.34,-675.29 2199.65,-683.36"/>
<polygon fill="none" stroke="black" stroke-width="3" points="2188.66,-652.73 2181.53,-653.81 2177.79,-647.65 2184.92,-646.57 2188.66,-652.73"/>
<polygon fill="none" stroke="black" stroke-width="3" points="2197.99,-682.59 2205.11,-681.47 2208.89,-687.62 2201.76,-688.74 2197.99,-682.59"/>
</g>
<!-- c42&#45;&gt;c53 -->
<g id="edge113" class="edge">
<title>c42:e&#45;&gt;c53:w</title>
<path fill="none" stroke="black" stroke-width="3" d="M369.59,-639.75C384.9,-639.75 386.15,-623.92 394.87,-616.5"/>
<polygon fill="black" stroke="black" stroke-width="3" points="393.02,-620.86 401.31,-614.25 390.71,-614.25 393.02,-620.86"/>
</g>
<!-- x22 -->
<g id="node55" class="node">
<title>x22</title>
<path fill="none" stroke="black" d="M2470.97,-543C2470.97,-543 2513.97,-543 2513.97,-543 2519.97,-543 2525.97,-549 2525.97,-555 2525.97,-555 2525.97,-580 2525.97,-580 2525.97,-586 2519.97,-592 2513.97,-592 2513.97,-592 2470.97,-592 2470.97,-592 2464.97,-592 2458.97,-586 2458.97,-580 2458.97,-580 2458.97,-555 2458.97,-555 2458.97,-549 2464.97,-543 2470.97,-543"/>
<text text-anchor="middle" x="2492.47" y="-574.7" font-family="Times,serif" font-size="14.00">0 &#45;&gt; 16:6</text>
<polyline fill="none" stroke="black" points="2458.97,-567.5 2525.97,-567.5"/>
<text text-anchor="middle" x="2492.47" y="-550.2" font-family="Times,serif" font-size="14.00">5:0 &#45; 5:0</text>
</g>
<!-- c43&#45;&gt;x22 -->
<g id="edge114" class="edge">
<title>c43:e&#45;&gt;x22:w</title>
<path fill="none" stroke="black" stroke-width="3" d="M2076.84,-371.75C2214.44,-371.75 2205.55,-496.12 2335.09,-542.5 2383.05,-559.67 2400.53,-555.96 2446.64,-555.33"/>
<polygon fill="black" stroke="black" stroke-width="3" points="2443.45,-558.85 2453.43,-555.28 2443.4,-551.85 2443.45,-558.85"/>
</g>
<!-- x7&#45;&gt;c43 -->
<g id="edge8" class="edge">
<title>x7:e&#45;&gt;c43:w</title>
<path fill="none" stroke="black" stroke-width="3" d="M1952.07,-383.55C1957.73,-383.59 1962.22,-383.66 1967.89,-383.7"/>
<polygon fill="none" stroke="black" stroke-width="3" points="1953.8,-383.55 1947.78,-387.53 1941.8,-383.51 1947.81,-379.53 1953.8,-383.55"/>
<polygon fill="none" stroke="black" stroke-width="3" points="1966.14,-383.7 1972.15,-379.72 1978.14,-383.74 1972.12,-387.72 1966.14,-383.7"/>
</g>
<!-- c44&#45;&gt;c54 -->
<g id="edge47" class="edge">
<title>c44:e&#45;&gt;c54:w</title>
<path fill="none" stroke="black" stroke-width="3" d="M1173.84,-822.75C1191.58,-822.75 1197.66,-830.52 1210.84,-833.56"/>
<polygon fill="black" stroke="black" stroke-width="3" points="1207.14,-836.68 1217.45,-834.27 1207.88,-829.72 1207.14,-836.68"/>
</g>
<!-- c45 -->
<g id="node28" class="node">
<title>c45</title>
<polygon fill="none" stroke="black" points="2967.34,-363 2967.34,-412 3063.34,-412 3063.34,-363 2967.34,-363"/>
<text text-anchor="middle" x="2980.22" y="-394.7" font-family="Times,serif" font-size="14.00">A</text>
<polyline fill="none" stroke="black" points="2967.34,-387.5 2993.09,-387.5"/>
<text text-anchor="middle" x="2980.22" y="-370.2" font-family="Times,serif" font-size="14.00">B</text>
<polyline fill="none" stroke="black" points="2993.09,-363 2993.09,-412"/>
<text text-anchor="middle" x="3015.34" y="-390.7" font-family="Times,serif" font-size="14.00">$21</text>
<text text-anchor="middle" x="3015.34" y="-374.2" font-family="Times,serif" font-size="14.00">$mul</text>
<polyline fill="none" stroke="black" points="3037.59,-363 3037.59,-412"/>
<text text-anchor="middle" x="3050.47" y="-382.7" font-family="Times,serif" font-size="14.00">Y</text>
</g>
<!-- x10 -->
<g id="node31" class="node">
<title>x10</title>
<path fill="none" stroke="black" d="M3111.34,-363C3111.34,-363 3176.84,-363 3176.84,-363 3182.84,-363 3188.84,-369 3188.84,-375 3188.84,-375 3188.84,-400 3188.84,-400 3188.84,-406 3182.84,-412 3176.84,-412 3176.84,-412 3111.34,-412 3111.34,-412 3105.34,-412 3099.34,-406 3099.34,-400 3099.34,-400 3099.34,-375 3099.34,-375 3099.34,-369 3105.34,-363 3111.34,-363"/>
<text text-anchor="middle" x="3144.09" y="-394.7" font-family="Times,serif" font-size="14.00">21:21 &#45; 30:30</text>
<polyline fill="none" stroke="black" points="3099.34,-387.5 3188.84,-387.5"/>
<text text-anchor="middle" x="3144.09" y="-370.2" font-family="Times,serif" font-size="14.00">20:0 &#45; 20:0</text>
</g>
<!-- c45&#45;&gt;x10 -->
<g id="edge11" class="edge">
<title>c45:e&#45;&gt;x10:w</title>
<path fill="none" stroke="black" stroke-width="3" d="M3076.07,-387.69C3079.66,-387.65 3082.8,-387.6 3086.37,-387.57"/>
<polygon fill="none" stroke="black" stroke-width="3" points="3078.05,-387.68 3072.07,-391.71 3066.05,-387.74 3072.03,-383.71 3078.05,-387.68"/>
<polygon fill="none" stroke="black" stroke-width="3" points="3084.64,-387.57 3090.62,-383.54 3096.64,-387.51 3090.66,-391.54 3084.64,-387.57"/>
</g>
<!-- x8 -->
<g id="node29" class="node">
<title>x8</title>
<path fill="none" stroke="black" d="M1243.47,-147C1243.47,-147 1295.47,-147 1295.47,-147 1301.47,-147 1307.47,-153 1307.47,-159 1307.47,-159 1307.47,-184 1307.47,-184 1307.47,-190 1301.47,-196 1295.47,-196 1295.47,-196 1243.47,-196 1243.47,-196 1237.47,-196 1231.47,-190 1231.47,-184 1231.47,-184 1231.47,-159 1231.47,-159 1231.47,-153 1237.47,-147 1243.47,-147"/>
<text text-anchor="middle" x="1269.47" y="-178.7" font-family="Times,serif" font-size="14.00">30:30 &#45; 3:3</text>
<polyline fill="none" stroke="black" points="1231.47,-171.5 1307.47,-171.5"/>
<text text-anchor="middle" x="1269.47" y="-154.2" font-family="Times,serif" font-size="14.00">2:0 &#45; 2:0</text>
</g>
<!-- x8&#45;&gt;c45 -->
<g id="edge9" class="edge">
<title>x8:e&#45;&gt;c45:w</title>
<path fill="none" stroke="black" stroke-width="3" d="M1321.33,-171.59C1409.46,-172.82 1435.73,-186.5 1529.97,-186.5 1529.97,-186.5 1529.97,-186.5 2256.22,-186.5 2581.83,-186.5 2635.98,-394.16 2954.44,-399.64"/>
<polygon fill="none" stroke="black" stroke-width="3" points="1323.17,-171.6 1317.14,-175.56 1311.17,-171.52 1317.2,-167.56 1323.17,-171.6"/>
<polygon fill="none" stroke="black" stroke-width="3" points="2952.64,-399.62 2958.67,-395.68 2964.64,-399.73 2958.61,-403.68 2952.64,-399.62"/>
</g>
<!-- x9&#45;&gt;c45 -->
<g id="edge10" class="edge">
<title>x9:e&#45;&gt;c45:w</title>
<path fill="none" stroke="black" stroke-width="3" d="M2943.01,-353.99C2947.92,-358.6 2950.55,-365.75 2955.37,-370.47"/>
<polygon fill="none" stroke="black" stroke-width="3" points="2945.07,-354.78 2938.03,-356.36 2933.87,-350.47 2940.9,-348.89 2945.07,-354.78"/>
<polygon fill="none" stroke="black" stroke-width="3" points="2953.69,-369.8 2960.74,-368.31 2964.83,-374.25 2957.78,-375.74 2953.69,-369.8"/>
</g>
<!-- n10 -->
<g id="node70" class="node">
<title>n10</title>
<ellipse fill="black" stroke="black" cx="3226.64" cy="-396.5" rx="1.8" ry="1.8"/>
</g>
<!-- x10&#45;&gt;n10 -->
<g id="edge30" class="edge">
<title>x10:e&#45;&gt;n10:w</title>
<path fill="none" stroke="black" stroke-width="3" d="M3188.84,-375.25C3202.78,-375.25 3205.61,-387.2 3213.99,-393.18"/>
<polygon fill="black" stroke="black" stroke-width="3" points="3209.92,-395.59 3220.5,-395.17 3211.96,-388.9 3209.92,-395.59"/>
</g>
<!-- x10&#45;&gt;n10 -->
<g id="edge31" class="edge">
<title>x10:e&#45;&gt;n10:w</title>
<path fill="none" stroke="black" d="M3188.84,-399.75C3200.27,-399.75 3205.52,-398.11 3213.38,-397.16"/>
<polygon fill="black" stroke="black" points="3213.55,-400.65 3223.33,-396.59 3213.15,-393.67 3213.55,-400.65"/>
</g>
<!-- x12 -->
<g id="node34" class="node">
<title>x12</title>
<path fill="none" stroke="black" d="M3558.73,-534.5C3558.73,-534.5 3597.23,-534.5 3597.23,-534.5 3603.23,-534.5 3609.23,-540.5 3609.23,-546.5 3609.23,-546.5 3609.23,-558.5 3609.23,-558.5 3609.23,-564.5 3603.23,-570.5 3597.23,-570.5 3597.23,-570.5 3558.73,-570.5 3558.73,-570.5 3552.73,-570.5 3546.73,-564.5 3546.73,-558.5 3546.73,-558.5 3546.73,-546.5 3546.73,-546.5 3546.73,-540.5 3552.73,-534.5 3558.73,-534.5"/>
<text text-anchor="middle" x="3577.98" y="-547.7" font-family="Times,serif" font-size="14.00">0:0 &#45; 0:0</text>
</g>
<!-- c46&#45;&gt;x12 -->
<g id="edge13" class="edge">
<title>c46:e&#45;&gt;x12:w</title>
<path fill="none" stroke="black" d="M3509.94,-549.24C3518.78,-549.95 3524.92,-551.28 3533.73,-552"/>
<polygon fill="none" stroke="black" points="3509.98,-549.24 3503.83,-553.01 3497.99,-548.78 3504.13,-545.02 3509.98,-549.24"/>
<polygon fill="none" stroke="black" points="3533.84,-552 3539.99,-548.24 3545.83,-552.47 3539.68,-556.23 3533.84,-552"/>
</g>
<!-- x11 -->
<g id="node33" class="node">
<title>x11</title>
<path fill="none" stroke="black" d="M3278.32,-419C3278.32,-419 3343.82,-419 3343.82,-419 3349.82,-419 3355.82,-425 3355.82,-431 3355.82,-431 3355.82,-456 3355.82,-456 3355.82,-462 3349.82,-468 3343.82,-468 3343.82,-468 3278.32,-468 3278.32,-468 3272.32,-468 3266.32,-462 3266.32,-456 3266.32,-456 3266.32,-431 3266.32,-431 3266.32,-425 3272.32,-419 3278.32,-419"/>
<text text-anchor="middle" x="3311.07" y="-450.7" font-family="Times,serif" font-size="14.00">30:30 &#45; 21:21</text>
<polyline fill="none" stroke="black" points="3266.32,-443.5 3355.82,-443.5"/>
<text text-anchor="middle" x="3311.07" y="-426.2" font-family="Times,serif" font-size="14.00">20:0 &#45; 20:0</text>
</g>
<!-- x11&#45;&gt;c46 -->
<g id="edge12" class="edge">
<title>x11:e&#45;&gt;c46:w</title>
<path fill="none" stroke="black" stroke-width="3" d="M3369.39,-446.17C3399.91,-461.92 3364.2,-542.54 3394.87,-558.14"/>
<polygon fill="none" stroke="black" stroke-width="3" points="3371.2,-446.55 3364.5,-449.22 3359.46,-444.06 3366.16,-441.4 3371.2,-446.55"/>
<polygon fill="none" stroke="black" stroke-width="3" points="3392.94,-557.73 3399.64,-555.05 3404.69,-560.19 3398,-562.88 3392.94,-557.73"/>
</g>
<!-- n14 -->
<g id="node72" class="node">
<title>n14</title>
<ellipse fill="black" stroke="black" cx="3647.03" cy="-610.5" rx="1.8" ry="1.8"/>
</g>
<!-- x12&#45;&gt;n14 -->
<g id="edge41" class="edge">
<title>x12:e&#45;&gt;n14:w</title>
<path fill="none" stroke="black" d="M3609.23,-552.75C3634.75,-552.75 3621.3,-593.86 3634.64,-606.71"/>
<polygon fill="black" stroke="black" points="3633.21,-609.92 3643.8,-609.99 3635.57,-603.32 3633.21,-609.92"/>
</g>
<!-- x14 -->
<g id="node37" class="node">
<title>x14</title>
<path fill="none" stroke="black" d="M4157.79,-581.5C4157.79,-581.5 4196.29,-581.5 4196.29,-581.5 4202.29,-581.5 4208.29,-587.5 4208.29,-593.5 4208.29,-593.5 4208.29,-605.5 4208.29,-605.5 4208.29,-611.5 4202.29,-617.5 4196.29,-617.5 4196.29,-617.5 4157.79,-617.5 4157.79,-617.5 4151.79,-617.5 4145.79,-611.5 4145.79,-605.5 4145.79,-605.5 4145.79,-593.5 4145.79,-593.5 4145.79,-587.5 4151.79,-581.5 4157.79,-581.5"/>
<text text-anchor="middle" x="4177.04" y="-594.7" font-family="Times,serif" font-size="14.00">0:0 &#45; 0:0</text>
</g>
<!-- c47&#45;&gt;x14 -->
<g id="edge15" class="edge">
<title>c47:e&#45;&gt;x14:w</title>
<path fill="none" stroke="black" d="M4000.91,-602.71C4056.14,-602.37 4076.76,-599.88 4132.03,-599.54"/>
<polygon fill="none" stroke="black" points="4000.96,-602.71 3994.97,-606.73 3988.96,-602.75 3994.95,-598.73 4000.96,-602.71"/>
<polygon fill="none" stroke="black" points="4131.89,-599.54 4137.87,-595.52 4143.89,-599.5 4137.9,-603.52 4131.89,-599.54"/>
</g>
<!-- x13 -->
<g id="node36" class="node">
<title>x13</title>
<path fill="none" stroke="black" d="M3696.83,-594.5C3696.83,-594.5 3735.33,-594.5 3735.33,-594.5 3741.33,-594.5 3747.33,-600.5 3747.33,-606.5 3747.33,-606.5 3747.33,-618.5 3747.33,-618.5 3747.33,-624.5 3741.33,-630.5 3735.33,-630.5 3735.33,-630.5 3696.83,-630.5 3696.83,-630.5 3690.83,-630.5 3684.83,-624.5 3684.83,-618.5 3684.83,-618.5 3684.83,-606.5 3684.83,-606.5 3684.83,-600.5 3690.83,-594.5 3696.83,-594.5"/>
<text text-anchor="middle" x="3716.08" y="-607.7" font-family="Times,serif" font-size="14.00">0:0 &#45; 0:0</text>
</g>
<!-- x13&#45;&gt;c47 -->
<g id="edge14" class="edge">
<title>x13:e&#45;&gt;c47:w</title>
<path fill="none" stroke="black" d="M3760.06,-612.53C3812.78,-612.77 3832.74,-614.48 3885.38,-614.72"/>
<polygon fill="none" stroke="black" points="3760.23,-612.53 3754.22,-616.52 3748.23,-612.5 3754.24,-608.52 3760.23,-612.53"/>
<polygon fill="none" stroke="black" points="3885.41,-614.72 3891.41,-610.73 3897.41,-614.75 3891.4,-618.73 3885.41,-614.72"/>
</g>
<!-- n15 -->
<g id="node73" class="node">
<title>n15</title>
<ellipse fill="black" stroke="black" cx="4252.84" cy="-542.5" rx="1.8" ry="1.8"/>
</g>
<!-- x14&#45;&gt;n15 -->
<g id="edge44" class="edge">
<title>x14:e&#45;&gt;n15:w</title>
<path fill="none" stroke="black" d="M4209.29,-599.75C4236.1,-599.75 4224.69,-558.23 4240.15,-545.91"/>
<polygon fill="black" stroke="black" points="4241.1,-549.28 4249.59,-542.95 4239,-542.6 4241.1,-549.28"/>
</g>
<!-- c48&#45;&gt;c36 -->
<g id="edge36" class="edge">
<title>c48:e&#45;&gt;c36:w</title>
<path fill="none" stroke="black" stroke-width="3" d="M901.09,-508.75C918.07,-508.75 918.99,-490.69 929.19,-483.08"/>
<polygon fill="black" stroke="black" stroke-width="3" points="927.01,-487.42 935.51,-481.1 924.92,-480.74 927.01,-487.42"/>
</g>
<!-- c49&#45;&gt;c44 -->
<g id="edge48" class="edge">
<title>c49:e&#45;&gt;c44:w</title>
<path fill="none" stroke="black" stroke-width="3" d="M1033.09,-710.75C1087.06,-710.75 1027.78,-817.03 1064.94,-832.8"/>
<polygon fill="black" stroke="black" stroke-width="3" points="1060.91,-835.64 1071.37,-833.95 1062.14,-828.75 1060.91,-835.64"/>
</g>
<!-- x15&#45;&gt;c49 -->
<g id="edge16" class="edge">
<title>x15:e&#45;&gt;c49:w</title>
<path fill="none" stroke="black" d="M902.32,-722.53C911.74,-722.58 918.16,-722.67 927.56,-722.72"/>
<polygon fill="none" stroke="black" points="902.49,-722.53 896.48,-726.52 890.49,-722.5 896.5,-718.52 902.49,-722.53"/>
<polygon fill="none" stroke="black" points="927.44,-722.72 933.45,-718.73 939.44,-722.75 933.43,-726.73 927.44,-722.72"/>
</g>
<!-- c51 -->
<g id="node42" class="node">
<title>c51</title>
<polygon fill="none" stroke="black" points="1485.59,-638 1485.59,-687 1576.34,-687 1576.34,-638 1485.59,-638"/>
<text text-anchor="middle" x="1498.47" y="-669.7" font-family="Times,serif" font-size="14.00">A</text>
<polyline fill="none" stroke="black" points="1485.59,-662.5 1511.34,-662.5"/>
<text text-anchor="middle" x="1498.47" y="-645.2" font-family="Times,serif" font-size="14.00">B</text>
<polyline fill="none" stroke="black" points="1511.34,-638 1511.34,-687"/>
<text text-anchor="middle" x="1530.97" y="-665.7" font-family="Times,serif" font-size="14.00">$16</text>
<text text-anchor="middle" x="1530.97" y="-649.2" font-family="Times,serif" font-size="14.00">$shr</text>
<polyline fill="none" stroke="black" points="1550.59,-638 1550.59,-687"/>
<text text-anchor="middle" x="1563.47" y="-657.7" font-family="Times,serif" font-size="14.00">Y</text>
</g>
<!-- c50&#45;&gt;c51 -->
<g id="edge49" class="edge">
<title>c50:e&#45;&gt;c51:w</title>
<path fill="none" stroke="black" stroke-width="3" d="M1449.59,-822.75C1512.93,-822.75 1430.02,-693.21 1474.5,-676.52"/>
<polygon fill="black" stroke="black" stroke-width="3" points="1471.78,-680.49 1481.11,-675.46 1470.68,-673.58 1471.78,-680.49"/>
</g>
<!-- x17 -->
<g id="node44" class="node">
<title>x17</title>
<path fill="none" stroke="black" d="M1632.47,-638C1632.47,-638 1684.47,-638 1684.47,-638 1690.47,-638 1696.47,-644 1696.47,-650 1696.47,-650 1696.47,-675 1696.47,-675 1696.47,-681 1690.47,-687 1684.47,-687 1684.47,-687 1632.47,-687 1632.47,-687 1626.47,-687 1620.47,-681 1620.47,-675 1620.47,-675 1620.47,-650 1620.47,-650 1620.47,-644 1626.47,-638 1632.47,-638"/>
<text text-anchor="middle" x="1658.47" y="-669.7" font-family="Times,serif" font-size="14.00">16:3 &#45; 13:0</text>
<polyline fill="none" stroke="black" points="1620.47,-662.5 1696.47,-662.5"/>
<text text-anchor="middle" x="1658.47" y="-645.2" font-family="Times,serif" font-size="14.00">2:0 &#45; 2:0</text>
</g>
<!-- c51&#45;&gt;x17 -->
<g id="edge18" class="edge">
<title>c51:e&#45;&gt;x17:w</title>
<path fill="none" stroke="black" stroke-width="3" d="M1589.11,-662.71C1595.49,-662.66 1600.38,-662.59 1606.77,-662.54"/>
<polygon fill="none" stroke="black" stroke-width="3" points="1591.05,-662.7 1585.06,-666.72 1579.05,-662.74 1585.03,-658.72 1591.05,-662.7"/>
<polygon fill="none" stroke="black" stroke-width="3" points="1604.76,-662.55 1610.75,-658.53 1616.76,-662.51 1610.78,-666.53 1604.76,-662.55"/>
</g>
<!-- x16&#45;&gt;c51 -->
<g id="edge17" class="edge">
<title>x16:e&#45;&gt;c51:w</title>
<path fill="none" stroke="black" stroke-width="3" d="M1449.21,-510.84C1487.74,-527.76 1434.28,-631.09 1472.9,-647.93"/>
<polygon fill="none" stroke="black" stroke-width="3" points="1450.93,-511.16 1444.31,-514.01 1439.13,-508.99 1445.75,-506.14 1450.93,-511.16"/>
<polygon fill="none" stroke="black" stroke-width="3" points="1471.13,-647.61 1477.75,-644.75 1482.93,-649.76 1476.31,-652.62 1471.13,-647.61"/>
</g>
<!-- n12 -->
<g id="node71" class="node">
<title>n12</title>
<ellipse fill="black" stroke="black" cx="2028.84" cy="-646.5" rx="1.8" ry="1.8"/>
</g>
<!-- x17&#45;&gt;n12 -->
<g id="edge37" class="edge">
<title>x17:e&#45;&gt;n12:w</title>
<path fill="none" stroke="black" stroke-width="3" d="M1697.47,-650.25C1839.45,-650.25 1877.74,-646.7 2014.25,-646.51"/>
<polygon fill="black" stroke="black" stroke-width="3" points="2011.03,-650.01 2021.02,-646.5 2011.02,-643.01 2011.03,-650.01"/>
</g>
<!-- n7 -->
<g id="node77" class="node">
<title>n7</title>
<ellipse fill="black" stroke="black" cx="1786.72" cy="-684.5" rx="1.8" ry="1.8"/>
</g>
<!-- x17&#45;&gt;n7 -->
<g id="edge110" class="edge">
<title>x17:e&#45;&gt;n7:w</title>
<path fill="none" stroke="black" stroke-width="3" d="M1697.47,-674.75C1731.87,-674.75 1742.75,-682.55 1772.18,-684.2"/>
<polygon fill="black" stroke="black" stroke-width="3" points="1768.81,-687.61 1778.9,-684.38 1769,-680.61 1768.81,-687.61"/>
</g>
<!-- c52 -->
<g id="node45" class="node">
<title>c52</title>
<polygon fill="none" stroke="black" points="2447.09,-611 2447.09,-660 2537.84,-660 2537.84,-611 2447.09,-611"/>
<text text-anchor="middle" x="2459.97" y="-642.7" font-family="Times,serif" font-size="14.00">A</text>
<polyline fill="none" stroke="black" points="2447.09,-635.5 2472.84,-635.5"/>
<text text-anchor="middle" x="2459.97" y="-618.2" font-family="Times,serif" font-size="14.00">B</text>
<polyline fill="none" stroke="black" points="2472.84,-611 2472.84,-660"/>
<text text-anchor="middle" x="2492.47" y="-638.7" font-family="Times,serif" font-size="14.00">$18</text>
<text text-anchor="middle" x="2492.47" y="-622.2" font-family="Times,serif" font-size="14.00">$shr</text>
<polyline fill="none" stroke="black" points="2512.09,-611 2512.09,-660"/>
<text text-anchor="middle" x="2524.97" y="-630.7" font-family="Times,serif" font-size="14.00">Y</text>
</g>
<!-- c58 -->
<g id="node54" class="node">
<title>c58</title>
<polygon fill="none" stroke="black" points="2573.84,-515.75 2573.84,-589.25 2672.84,-589.25 2672.84,-515.75 2573.84,-515.75"/>
<text text-anchor="middle" x="2586.72" y="-571.95" font-family="Times,serif" font-size="14.00">A</text>
<polyline fill="none" stroke="black" points="2573.84,-564.75 2599.59,-564.75"/>
<text text-anchor="middle" x="2586.72" y="-547.45" font-family="Times,serif" font-size="14.00">B</text>
<polyline fill="none" stroke="black" points="2573.84,-540.25 2599.59,-540.25"/>
<text text-anchor="middle" x="2586.72" y="-522.95" font-family="Times,serif" font-size="14.00">S</text>
<polyline fill="none" stroke="black" points="2599.59,-515.75 2599.59,-589.25"/>
<text text-anchor="middle" x="2623.34" y="-555.7" font-family="Times,serif" font-size="14.00">$19</text>
<text text-anchor="middle" x="2623.34" y="-539.2" font-family="Times,serif" font-size="14.00">$mux</text>
<polyline fill="none" stroke="black" points="2647.09,-515.75 2647.09,-589.25"/>
<text text-anchor="middle" x="2659.97" y="-547.45" font-family="Times,serif" font-size="14.00">Y</text>
</g>
<!-- c52&#45;&gt;c58 -->
<g id="edge50" class="edge">
<title>c52:e&#45;&gt;c58:w</title>
<path fill="none" stroke="black" stroke-width="3" d="M2537.84,-635.75C2563.68,-635.75 2549.75,-593.93 2563.15,-580.85"/>
<polygon fill="black" stroke="black" stroke-width="3" points="2561.35,-585.23 2569.57,-578.54 2558.98,-578.64 2561.35,-585.23"/>
</g>
<!-- x18&#45;&gt;c52 -->
<g id="edge19" class="edge">
<title>x18:e&#45;&gt;c52:w</title>
<path fill="none" stroke="black" stroke-width="3" d="M2422.75,-683.17C2428.93,-675.41 2429.22,-661.05 2435.34,-653.21"/>
<polygon fill="none" stroke="black" stroke-width="3" points="2424.47,-682.39 2420.67,-688.52 2413.55,-687.38 2417.35,-681.24 2424.47,-682.39"/>
<polygon fill="none" stroke="black" stroke-width="3" points="2433.76,-653.94 2437.51,-647.79 2444.64,-648.89 2440.88,-655.04 2433.76,-653.94"/>
</g>
<!-- x19&#45;&gt;c52 -->
<g id="edge20" class="edge">
<title>x19:e&#45;&gt;c52:w</title>
<path fill="none" stroke="black" d="M2300.21,-610.64C2356.85,-611.95 2377.53,-621.76 2434.05,-623.1"/>
<polygon fill="none" stroke="black" points="2300.37,-610.65 2294.32,-614.58 2288.37,-610.51 2294.41,-606.58 2300.37,-610.65"/>
<polygon fill="none" stroke="black" points="2434.19,-623.1 2440.24,-619.17 2446.19,-623.24 2440.15,-627.17 2434.19,-623.1"/>
</g>
<!-- c53&#45;&gt;c32 -->
<g id="edge40" class="edge">
<title>c53:e&#45;&gt;c32:w</title>
<path fill="none" stroke="black" stroke-width="3" d="M498.59,-600.75C514.48,-600.75 515.04,-583.4 523.98,-575.54"/>
<polygon fill="black" stroke="black" stroke-width="3" points="522.08,-579.94 530.31,-573.28 519.72,-573.35 522.08,-579.94"/>
</g>
<!-- c54&#45;&gt;c50 -->
<g id="edge54" class="edge">
<title>c54:e&#45;&gt;c50:w</title>
<path fill="none" stroke="black" stroke-width="3" d="M1316.97,-822.75C1331.79,-822.75 1337.11,-829.78 1347.48,-833.08"/>
<polygon fill="black" stroke="black" stroke-width="3" points="1343.95,-836.1 1354.35,-834.09 1344.97,-829.17 1343.95,-836.1"/>
</g>
<!-- x20 -->
<g id="node51" class="node">
<title>x20</title>
<path fill="none" stroke="black" d="M960.72,-147C960.72,-147 1012.72,-147 1012.72,-147 1018.72,-147 1024.72,-153 1024.72,-159 1024.72,-159 1024.72,-184 1024.72,-184 1024.72,-190 1018.72,-196 1012.72,-196 1012.72,-196 960.72,-196 960.72,-196 954.72,-196 948.72,-190 948.72,-184 948.72,-184 948.72,-159 948.72,-159 948.72,-153 954.72,-147 960.72,-147"/>
<text text-anchor="middle" x="986.72" y="-178.7" font-family="Times,serif" font-size="14.00">3:3 &#45; 30:30</text>
<polyline fill="none" stroke="black" points="948.72,-171.5 1024.72,-171.5"/>
<text text-anchor="middle" x="986.72" y="-154.2" font-family="Times,serif" font-size="14.00">2:0 &#45; 2:0</text>
</g>
<!-- c55&#45;&gt;x20 -->
<g id="edge21" class="edge">
<title>c55:e&#45;&gt;x20:w</title>
<path fill="none" stroke="black" stroke-width="3" d="M916.83,-171.71C923.32,-171.66 928.3,-171.59 934.8,-171.54"/>
<polygon fill="none" stroke="black" stroke-width="3" points="918.55,-171.7 912.56,-175.72 906.55,-171.74 912.53,-167.72 918.55,-171.7"/>
<polygon fill="none" stroke="black" stroke-width="3" points="933.01,-171.55 939,-167.53 945.01,-171.51 939.03,-175.53 933.01,-171.55"/>
</g>
<!-- n21 -->
<g id="node75" class="node">
<title>n21</title>
<ellipse fill="black" stroke="black" cx="1124.84" cy="-159.5" rx="1.8" ry="1.8"/>
</g>
<!-- x20&#45;&gt;n21 -->
<g id="edge55" class="edge">
<title>x20:e&#45;&gt;n21:w</title>
<path fill="none" stroke="black" stroke-width="3" d="M1025.72,-159.25C1064.32,-159.25 1076.69,-159.46 1110.37,-159.49"/>
<polygon fill="black" stroke="black" stroke-width="3" points="1107.02,-162.99 1117.02,-159.5 1107.03,-155.99 1107.02,-162.99"/>
</g>
<!-- x20&#45;&gt;n21 -->
<g id="edge56" class="edge">
<title>x20:e&#45;&gt;n21:w</title>
<path fill="none" stroke="black" d="M1025.72,-183.75C1065.54,-183.75 1075.81,-163.83 1110.1,-160.1"/>
<polygon fill="black" stroke="black" points="1110.25,-163.6 1120.05,-159.58 1109.88,-156.61 1110.25,-163.6"/>
</g>
<!-- x21 -->
<g id="node53" class="node">
<title>x21</title>
<path fill="none" stroke="black" d="M4806.39,-169C4806.39,-169 4871.89,-169 4871.89,-169 4877.89,-169 4883.89,-175 4883.89,-181 4883.89,-181 4883.89,-206 4883.89,-206 4883.89,-212 4877.89,-218 4871.89,-218 4871.89,-218 4806.39,-218 4806.39,-218 4800.39,-218 4794.39,-212 4794.39,-206 4794.39,-206 4794.39,-181 4794.39,-181 4794.39,-175 4800.39,-169 4806.39,-169"/>
<text text-anchor="middle" x="4839.14" y="-200.7" font-family="Times,serif" font-size="14.00">18:18 &#45; 23:23</text>
<polyline fill="none" stroke="black" points="4794.39,-193.5 4883.89,-193.5"/>
<text text-anchor="middle" x="4839.14" y="-176.2" font-family="Times,serif" font-size="14.00">17:0 &#45; 17:0</text>
</g>
<!-- c56&#45;&gt;x21 -->
<g id="edge22" class="edge">
<title>c56:e&#45;&gt;x21:w</title>
<path fill="none" stroke="black" stroke-width="3" d="M4770.01,-231.45C4776.57,-223.15 4776.2,-207.17 4782.73,-198.85"/>
<polygon fill="none" stroke="black" stroke-width="3" points="4771.77,-230.65 4767.97,-236.78 4760.85,-235.63 4764.65,-229.5 4771.77,-230.65"/>
<polygon fill="none" stroke="black" stroke-width="3" points="4781.02,-199.63 4784.81,-193.49 4791.93,-194.63 4788.14,-200.76 4781.02,-199.63"/>
</g>
<!-- n22 -->
<g id="node76" class="node">
<title>n22</title>
<ellipse fill="black" stroke="black" cx="4921.69" cy="-181.5" rx="1.8" ry="1.8"/>
</g>
<!-- x21&#45;&gt;n22 -->
<g id="edge61" class="edge">
<title>x21:e&#45;&gt;n22:w</title>
<path fill="none" stroke="black" stroke-width="3" d="M4883.89,-181.25C4895.26,-181.25 4900.57,-181.38 4908.44,-181.45"/>
<polygon fill="black" stroke="black" stroke-width="3" points="4905.33,-184.94 4915.35,-181.48 4905.36,-177.94 4905.33,-184.94"/>
</g>
<!-- x21&#45;&gt;n22 -->
<g id="edge62" class="edge">
<title>x21:e&#45;&gt;n22:w</title>
<path fill="none" stroke="black" d="M4883.89,-205.75C4898.51,-205.75 4900.56,-191.82 4909.1,-185.08"/>
<polygon fill="black" stroke="black" points="4910.06,-188.45 4918.45,-181.98 4907.86,-181.8 4910.06,-188.45"/>
</g>
<!-- c58&#45;&gt;n27 -->
<g id="edge100" class="edge">
<title>c58:e&#45;&gt;n27:w</title>
<path fill="none" stroke="black" stroke-width="3" d="M2672.84,-552.5C2691.13,-552.5 2688.56,-529 2698.38,-519.46"/>
<polygon fill="black" stroke="black" stroke-width="3" points="2696.48,-523.92 2704.6,-517.11 2694,-517.37 2696.48,-523.92"/>
</g>
<!-- x22&#45;&gt;c58 -->
<g id="edge23" class="edge">
<title>x22:e&#45;&gt;c58:w</title>
<path fill="none" stroke="black" stroke-width="3" d="M2539.74,-565.41C2547.8,-562.55 2553.04,-557.42 2561.12,-554.57"/>
<polygon fill="none" stroke="black" stroke-width="3" points="2541.48,-565.13 2536.2,-570.05 2529.64,-567.06 2534.91,-562.15 2541.48,-565.13"/>
<polygon fill="none" stroke="black" stroke-width="3" points="2559.33,-554.86 2564.61,-549.95 2571.17,-552.93 2565.89,-557.84 2559.33,-554.86"/>
</g>
<!-- x23&#45;&gt;c58 -->
<g id="edge24" class="edge">
<title>x23:e&#45;&gt;c58:w</title>
<path fill="none" stroke="black" d="M2418.39,-514.64C2478.73,-515.99 2500.45,-526.51 2560.8,-527.86"/>
<polygon fill="none" stroke="black" points="2418.24,-514.64 2412.2,-518.58 2406.24,-514.51 2412.29,-510.58 2418.24,-514.64"/>
<polygon fill="none" stroke="black" points="2560.94,-527.86 2566.99,-523.92 2572.94,-527.99 2566.9,-531.92 2560.94,-527.86"/>
</g>
<!-- x24 -->
<g id="node57" class="node">
<title>x24</title>
<path fill="none" stroke="black" d="M3276.44,-325.5C3276.44,-325.5 3345.69,-325.5 3345.69,-325.5 3351.69,-325.5 3357.69,-331.5 3357.69,-337.5 3357.69,-337.5 3357.69,-349.5 3357.69,-349.5 3357.69,-355.5 3351.69,-361.5 3345.69,-361.5 3345.69,-361.5 3276.44,-361.5 3276.44,-361.5 3270.44,-361.5 3264.44,-355.5 3264.44,-349.5 3264.44,-349.5 3264.44,-337.5 3264.44,-337.5 3264.44,-331.5 3270.44,-325.5 3276.44,-325.5"/>
<text text-anchor="middle" x="3311.07" y="-338.7" font-family="Times,serif" font-size="14.00">9x 30:30 &#45; 8:0</text>
</g>
<!-- x25 -->
<g id="node58" class="node">
<title>x25</title>
<path fill="none" stroke="black" d="M3426.21,-348.5C3426.21,-348.5 3478.21,-348.5 3478.21,-348.5 3484.21,-348.5 3490.21,-354.5 3490.21,-360.5 3490.21,-360.5 3490.21,-372.5 3490.21,-372.5 3490.21,-378.5 3484.21,-384.5 3478.21,-384.5 3478.21,-384.5 3426.21,-384.5 3426.21,-384.5 3420.21,-384.5 3414.21,-378.5 3414.21,-372.5 3414.21,-372.5 3414.21,-360.5 3414.21,-360.5 3414.21,-354.5 3420.21,-348.5 3426.21,-348.5"/>
<text text-anchor="middle" x="3452.21" y="-361.7" font-family="Times,serif" font-size="14.00">8:0 &#45; 29:21</text>
</g>
<!-- x24&#45;&gt;x25 -->
<g id="edge25" class="edge">
<title>x24:e&#45;&gt;x25:w</title>
<path fill="none" stroke="black" stroke-width="3" d="M3370.45,-345.62C3382.52,-350.03 3388.52,-360.11 3400.66,-364.45"/>
<polygon fill="none" stroke="black" stroke-width="3" points="3372.2,-345.91 3365.62,-348.87 3360.36,-343.94 3366.94,-340.98 3372.2,-345.91"/>
<polygon fill="none" stroke="black" stroke-width="3" points="3398.7,-364.13 3405.27,-361.15 3410.54,-366.06 3403.98,-369.04 3398.7,-364.13"/>
</g>
<!-- x25&#45;&gt;n10 -->
<g id="edge32" class="edge">
<title>x25:e&#45;&gt;n10:w</title>
<path fill="none" stroke="black" stroke-width="3" d="M3491.21,-366.75C3499.33,-366.75 3495.97,-379.27 3490.21,-385 3458.67,-416.41 3290.95,-407.18 3234.11,-400.59"/>
<polygon fill="black" stroke="black" stroke-width="3" points="3238.2,-398.41 3227.61,-398.12 3235.71,-404.95 3238.2,-398.41"/>
</g>
<!-- x26 -->
<g id="node59" class="node">
<title>x26</title>
<path fill="none" stroke="black" d="M1880.84,-666.5C1880.84,-666.5 1932.84,-666.5 1932.84,-666.5 1938.84,-666.5 1944.84,-672.5 1944.84,-678.5 1944.84,-678.5 1944.84,-690.5 1944.84,-690.5 1944.84,-696.5 1938.84,-702.5 1932.84,-702.5 1932.84,-702.5 1880.84,-702.5 1880.84,-702.5 1874.84,-702.5 1868.84,-696.5 1868.84,-690.5 1868.84,-690.5 1868.84,-678.5 1868.84,-678.5 1868.84,-672.5 1874.84,-666.5 1880.84,-666.5"/>
<text text-anchor="middle" x="1906.84" y="-679.7" font-family="Times,serif" font-size="14.00">13:0 &#45; 16:3</text>
</g>
<!-- x26&#45;&gt;n12 -->
<g id="edge38" class="edge">
<title>x26:e&#45;&gt;n12:w</title>
<path fill="none" stroke="black" stroke-width="3" d="M1944.84,-684.75C1980.36,-684.75 1985.16,-654.14 2014.19,-647.69"/>
<polygon fill="black" stroke="black" stroke-width="3" points="2011.47,-651.49 2021.05,-646.97 2010.74,-644.53 2011.47,-651.49"/>
</g>
<!-- v27 -->
<g id="node60" class="node">
<title>v27</title>
<ellipse fill="none" stroke="black" cx="3452.21" cy="-610.5" rx="58.52" ry="18"/>
<text text-anchor="middle" x="3452.21" y="-605.45" font-family="Times,serif" font-size="14.00">9&#39;000000000</text>
</g>
<!-- x28 -->
<g id="node61" class="node">
<title>x28</title>
<path fill="none" stroke="black" d="M3558.73,-592.5C3558.73,-592.5 3597.23,-592.5 3597.23,-592.5 3603.23,-592.5 3609.23,-598.5 3609.23,-604.5 3609.23,-604.5 3609.23,-616.5 3609.23,-616.5 3609.23,-622.5 3603.23,-628.5 3597.23,-628.5 3597.23,-628.5 3558.73,-628.5 3558.73,-628.5 3552.73,-628.5 3546.73,-622.5 3546.73,-616.5 3546.73,-616.5 3546.73,-604.5 3546.73,-604.5 3546.73,-598.5 3552.73,-592.5 3558.73,-592.5"/>
<text text-anchor="middle" x="3577.98" y="-605.7" font-family="Times,serif" font-size="14.00">8:0 &#45; 9:1</text>
</g>
<!-- v27&#45;&gt;x28 -->
<g id="edge115" class="edge">
<title>v27:e&#45;&gt;x28:w</title>
<path fill="none" stroke="black" stroke-width="3" d="M3510.73,-610.5C3522.1,-610.5 3527.41,-610.5 3535.28,-610.5"/>
<polygon fill="black" stroke="black" stroke-width="3" points="3532.19,-614 3542.19,-610.5 3532.19,-607 3532.19,-614"/>
</g>
<!-- x28&#45;&gt;n14 -->
<g id="edge42" class="edge">
<title>x28:e&#45;&gt;n14:w</title>
<path fill="none" stroke="black" stroke-width="3" d="M3609.23,-610.75C3620.6,-610.75 3625.91,-610.62 3633.78,-610.55"/>
<polygon fill="black" stroke="black" stroke-width="3" points="3630.7,-614.06 3640.69,-610.52 3630.67,-607.06 3630.7,-614.06"/>
</g>
<!-- v29 -->
<g id="node62" class="node">
<title>v29</title>
<ellipse fill="none" stroke="black" cx="3943.18" cy="-541.5" rx="159.85" ry="18"/>
<text text-anchor="middle" x="3943.18" y="-536.45" font-family="Times,serif" font-size="14.00">30&#39;000000000000000000000000000000</text>
</g>
<!-- x30 -->
<g id="node63" class="node">
<title>x30</title>
<path fill="none" stroke="black" d="M4151.04,-524.5C4151.04,-524.5 4203.04,-524.5 4203.04,-524.5 4209.04,-524.5 4215.04,-530.5 4215.04,-536.5 4215.04,-536.5 4215.04,-548.5 4215.04,-548.5 4215.04,-554.5 4209.04,-560.5 4203.04,-560.5 4203.04,-560.5 4151.04,-560.5 4151.04,-560.5 4145.04,-560.5 4139.04,-554.5 4139.04,-548.5 4139.04,-548.5 4139.04,-536.5 4139.04,-536.5 4139.04,-530.5 4145.04,-524.5 4151.04,-524.5"/>
<text text-anchor="middle" x="4177.04" y="-537.7" font-family="Times,serif" font-size="14.00">29:0 &#45; 30:1</text>
</g>
<!-- v29&#45;&gt;x30 -->
<g id="edge116" class="edge">
<title>v29:e&#45;&gt;x30:w</title>
<path fill="none" stroke="black" stroke-width="3" d="M4103.04,-541.5C4114.42,-541.5 4119.72,-542.01 4127.59,-542.3"/>
<polygon fill="black" stroke="black" stroke-width="3" points="4124.44,-545.74 4134.5,-542.42 4124.56,-538.74 4124.44,-545.74"/>
</g>
<!-- x30&#45;&gt;n15 -->
<g id="edge45" class="edge">
<title>x30:e&#45;&gt;n15:w</title>
<path fill="none" stroke="black" stroke-width="3" d="M4215.04,-542.75C4226.41,-542.75 4231.72,-542.62 4239.59,-542.55"/>
<polygon fill="black" stroke="black" stroke-width="3" points="4236.51,-546.06 4246.5,-542.52 4236.48,-539.06 4236.51,-546.06"/>
</g>
<!-- x31 -->
<g id="node64" class="node">
<title>x31</title>
<path fill="none" stroke="black" d="M1228.09,-53.5C1228.09,-53.5 1310.84,-53.5 1310.84,-53.5 1316.84,-53.5 1322.84,-59.5 1322.84,-65.5 1322.84,-65.5 1322.84,-77.5 1322.84,-77.5 1322.84,-83.5 1316.84,-89.5 1310.84,-89.5 1310.84,-89.5 1228.09,-89.5 1228.09,-89.5 1222.09,-89.5 1216.09,-83.5 1216.09,-77.5 1216.09,-77.5 1216.09,-65.5 1216.09,-65.5 1216.09,-59.5 1222.09,-53.5 1228.09,-53.5"/>
<text text-anchor="middle" x="1269.47" y="-66.7" font-family="Times,serif" font-size="14.00">27x 30:30 &#45; 26:0</text>
</g>
<!-- x32 -->
<g id="node65" class="node">
<title>x32</title>
<path fill="none" stroke="black" d="M1378.22,-77.5C1378.22,-77.5 1430.22,-77.5 1430.22,-77.5 1436.22,-77.5 1442.22,-83.5 1442.22,-89.5 1442.22,-89.5 1442.22,-101.5 1442.22,-101.5 1442.22,-107.5 1436.22,-113.5 1430.22,-113.5 1430.22,-113.5 1378.22,-113.5 1378.22,-113.5 1372.22,-113.5 1366.22,-107.5 1366.22,-101.5 1366.22,-101.5 1366.22,-89.5 1366.22,-89.5 1366.22,-83.5 1372.22,-77.5 1378.22,-77.5"/>
<text text-anchor="middle" x="1404.22" y="-90.7" font-family="Times,serif" font-size="14.00">26:0 &#45; 29:3</text>
</g>
<!-- x31&#45;&gt;x32 -->
<g id="edge26" class="edge">
<title>x31:e&#45;&gt;x32:w</title>
<path fill="none" stroke="black" stroke-width="3" d="M1335.24,-75.04C1342.2,-79.63 1346.01,-87.58 1353.04,-92.1"/>
<polygon fill="none" stroke="black" stroke-width="3" points="1336.98,-75.54 1330.11,-77.74 1325.44,-72.24 1332.31,-70.04 1336.98,-75.54"/>
<polygon fill="none" stroke="black" stroke-width="3" points="1351.06,-91.55 1357.91,-89.31 1362.61,-94.77 1355.76,-97.01 1351.06,-91.55"/>
</g>
<!-- x32&#45;&gt;n21 -->
<g id="edge57" class="edge">
<title>x32:e&#45;&gt;n21:w</title>
<path fill="none" stroke="black" stroke-width="3" d="M1443.22,-95.75C1451.34,-95.75 1447.82,-108.12 1442.22,-114 1407.38,-150.58 1265.78,-128.37 1216.09,-137.5 1175.63,-144.94 1167.43,-155.97 1126.64,-161.3 1126.53,-161.31 1126.42,-161.33 1126.32,-161.35"/>
<polygon fill="black" stroke="black" stroke-width="3" points="1136.38,-161.51 1125.8,-161.15 1133.85,-168.03 1136.38,-161.51"/>
</g>
<!-- x33 -->
<g id="node66" class="node">
<title>x33</title>
<path fill="none" stroke="black" d="M4978.24,-163.5C4978.24,-163.5 5047.49,-163.5 5047.49,-163.5 5053.49,-163.5 5059.49,-169.5 5059.49,-175.5 5059.49,-175.5 5059.49,-187.5 5059.49,-187.5 5059.49,-193.5 5053.49,-199.5 5047.49,-199.5 5047.49,-199.5 4978.24,-199.5 4978.24,-199.5 4972.24,-199.5 4966.24,-193.5 4966.24,-187.5 4966.24,-187.5 4966.24,-175.5 4966.24,-175.5 4966.24,-169.5 4972.24,-163.5 4978.24,-163.5"/>
<text text-anchor="middle" x="5012.86" y="-176.7" font-family="Times,serif" font-size="14.00">5x 23:23 &#45; 4:0</text>
</g>
<!-- x34 -->
<g id="node67" class="node">
<title>x34</title>
<path fill="none" stroke="black" d="M5123.11,-186.5C5123.11,-186.5 5175.11,-186.5 5175.11,-186.5 5181.11,-186.5 5187.11,-192.5 5187.11,-198.5 5187.11,-198.5 5187.11,-210.5 5187.11,-210.5 5187.11,-216.5 5181.11,-222.5 5175.11,-222.5 5175.11,-222.5 5123.11,-222.5 5123.11,-222.5 5117.11,-222.5 5111.11,-216.5 5111.11,-210.5 5111.11,-210.5 5111.11,-198.5 5111.11,-198.5 5111.11,-192.5 5117.11,-186.5 5123.11,-186.5"/>
<text text-anchor="middle" x="5149.11" y="-199.7" font-family="Times,serif" font-size="14.00">4:0 &#45; 22:18</text>
</g>
<!-- x33&#45;&gt;x34 -->
<g id="edge27" class="edge">
<title>x33:e&#45;&gt;x34:w</title>
<path fill="none" stroke="black" stroke-width="3" d="M5073.2,-184.14C5082.79,-188.58 5087.86,-197.48 5097.47,-201.89"/>
<polygon fill="none" stroke="black" stroke-width="3" points="5074.89,-184.49 5068.2,-187.19 5063.14,-182.05 5069.82,-179.35 5074.89,-184.49"/>
<polygon fill="none" stroke="black" stroke-width="3" points="5095.71,-201.53 5102.4,-198.82 5107.46,-203.95 5100.78,-206.66 5095.71,-201.53"/>
</g>
<!-- x34&#45;&gt;n22 -->
<g id="edge63" class="edge">
<title>x34:e&#45;&gt;n22:w</title>
<path fill="none" stroke="black" stroke-width="3" d="M5188.11,-204.75C5196.24,-204.75 5193.01,-217.42 5187.11,-223 5162.58,-246.22 5144.85,-224.61 5111.11,-223 5043.49,-219.77 5023.57,-230.33 4959.49,-208.5 4948.99,-204.92 4932.92,-198.02 4922.52,-192.08"/>
<polygon fill="black" stroke="black" stroke-width="3" points="4926.93,-193.79 4920.05,-185.73 4920.41,-196.32 4926.93,-193.79"/>
</g>
<!-- x36 -->
<g id="node69" class="node">
<title>x36</title>
<path fill="none" stroke="black" d="M5652.55,-74.5C5652.55,-74.5 5704.55,-74.5 5704.55,-74.5 5710.55,-74.5 5716.55,-80.5 5716.55,-86.5 5716.55,-86.5 5716.55,-98.5 5716.55,-98.5 5716.55,-104.5 5710.55,-110.5 5704.55,-110.5 5704.55,-110.5 5652.55,-110.5 5652.55,-110.5 5646.55,-110.5 5640.55,-104.5 5640.55,-98.5 5640.55,-98.5 5640.55,-86.5 5640.55,-86.5 5640.55,-80.5 5646.55,-74.5 5652.55,-74.5"/>
<text text-anchor="middle" x="5678.55" y="-87.7" font-family="Times,serif" font-size="14.00">7:0 &#45; 30:23</text>
</g>
<!-- x35&#45;&gt;x36 -->
<g id="edge28" class="edge">
<title>x35:e&#45;&gt;x36:w</title>
<path fill="none" stroke="black" stroke-width="3" d="M5616.53,-73.93C5621.13,-78.01 5623.98,-84.01 5628.59,-88.08"/>
<polygon fill="none" stroke="black" stroke-width="3" points="5618.34,-74.61 5611.32,-76.27 5607.09,-70.44 5614.1,-68.77 5618.34,-74.61"/>
<polygon fill="none" stroke="black" stroke-width="3" points="5626.76,-87.4 5633.77,-85.73 5638.01,-91.56 5631,-93.23 5626.76,-87.4"/>
</g>
<!-- x36&#45;&gt;n24 -->
<g id="edge79" class="edge">
<title>x36:e&#45;&gt;n24:w</title>
<path fill="none" stroke="black" stroke-width="3" d="M5717.55,-92.75C5725.67,-92.75 5722.44,-105.41 5716.55,-111 5638.76,-184.8 5582.52,-111.39 5475.3,-111.5 5422.83,-111.55 5395.36,-147.56 5357.24,-111.5 5355.24,-109.61 5353.55,-106.89 5352.52,-104.14"/>
<polygon fill="black" stroke="black" stroke-width="3" points="5354.74,-108.38 5354.74,-97.79 5348.13,-106.07 5354.74,-108.38"/>
</g>
<!-- n10&#45;&gt;x11 -->
<g id="edge33" class="edge">
<title>n10:e&#45;&gt;x11:w</title>
<path fill="none" stroke="black" stroke-width="3" d="M3228.44,-396.5C3246.21,-396.5 3244.88,-418.14 3254.59,-427.26"/>
<polygon fill="black" stroke="black" stroke-width="3" points="3250.47,-429.47 3261.06,-429.67 3252.91,-422.91 3250.47,-429.47"/>
</g>
<!-- n10&#45;&gt;x11 -->
<g id="edge34" class="edge">
<title>n10:e&#45;&gt;x11:w</title>
<path fill="none" stroke="black" d="M3228.44,-396.5C3254.86,-396.5 3240.53,-439.47 3254.85,-452.22"/>
<polygon fill="black" stroke="black" points="3253.29,-455.39 3263.88,-455.27 3255.53,-448.75 3253.29,-455.39"/>
</g>
<!-- n10&#45;&gt;x24 -->
<g id="edge35" class="edge">
<title>n10:e&#45;&gt;x24:w</title>
<path fill="none" stroke="black" stroke-width="3" d="M3228.44,-396.5C3252.17,-396.5 3241.55,-359.64 3254.01,-347.54"/>
<polygon fill="black" stroke="black" stroke-width="3" points="3251.97,-352.01 3260.18,-345.3 3249.58,-345.43 3251.97,-352.01"/>
</g>
<!-- n12&#45;&gt;x6 -->
<g id="edge39" class="edge">
<title>n12:e&#45;&gt;x6:w</title>
<path fill="none" stroke="black" stroke-width="3" d="M2032.12,-646.5C2063.93,-646.5 2074.59,-646.7 2101.61,-646.74"/>
<polygon fill="black" stroke="black" stroke-width="3" points="2098.3,-650.24 2108.3,-646.75 2098.31,-643.24 2098.3,-650.24"/>
</g>
<!-- n14&#45;&gt;x13 -->
<g id="edge43" class="edge">
<title>n14:e&#45;&gt;x13:w</title>
<path fill="none" stroke="black" d="M3648.83,-610.5C3660.22,-610.5 3665.51,-611.64 3673.37,-612.29"/>
<polygon fill="black" stroke="black" points="3673.18,-615.79 3683.32,-612.69 3673.46,-608.8 3673.18,-615.79"/>
</g>
<!-- n15&#45;&gt;x0 -->
<g id="edge46" class="edge">
<title>n15:e&#45;&gt;x0:w</title>
<path fill="none" stroke="black" d="M4254.64,-542.5C4266.01,-542.5 4271.32,-542.63 4279.19,-542.7"/>
<polygon fill="black" stroke="black" points="4279.11,-546.2 4289.12,-542.74 4279.14,-539.2 4279.11,-546.2"/>
</g>
<!-- n2&#45;&gt;x3 -->
<g id="edge52" class="edge">
<title>n2:e&#45;&gt;x3:w</title>
<path fill="none" stroke="black" d="M1407.5,-406.5C1443.94,-406.5 1455.79,-404.28 1487.24,-403.83"/>
<polygon fill="black" stroke="black" points="1487.23,-407.33 1497.2,-403.76 1487.18,-400.33 1487.23,-407.33"/>
</g>
<!-- n2&#45;&gt;x7 -->
<g id="edge53" class="edge">
<title>n2:e&#45;&gt;x7:w</title>
<path fill="none" stroke="black" stroke-width="3" d="M1407.5,-406.5C1443.81,-406.5 1449.68,-425.11 1485.59,-430.5 1582.81,-445.1 1786.93,-400.86 1863.1,-396.15"/>
<polygon fill="black" stroke="black" stroke-width="3" points="1860.18,-399.76 1870.06,-395.91 1859.94,-392.76 1860.18,-399.76"/>
</g>
<!-- n21&#45;&gt;x8 -->
<g id="edge59" class="edge">
<title>n21:e&#45;&gt;x8:w</title>
<path fill="none" stroke="black" stroke-width="3" d="M1128.12,-159.5C1169.52,-159.5 1182.66,-159.29 1218.98,-159.26"/>
<polygon fill="black" stroke="black" stroke-width="3" points="1215.93,-162.76 1225.93,-159.25 1215.93,-155.76 1215.93,-162.76"/>
</g>
<!-- n21&#45;&gt;x8 -->
<g id="edge60" class="edge">
<title>n21:e&#45;&gt;x8:w</title>
<path fill="none" stroke="black" d="M1128.12,-159.5C1170.85,-159.5 1181.92,-179.76 1219.21,-183.24"/>
<polygon fill="black" stroke="black" points="1218.81,-186.73 1228.96,-183.68 1219.12,-179.74 1218.81,-186.73"/>
</g>
<!-- n21&#45;&gt;x31 -->
<g id="edge58" class="edge">
<title>n21:e&#45;&gt;x31:w</title>
<path fill="none" stroke="black" stroke-width="3" d="M1128.12,-159.5C1179.14,-159.5 1163.84,-84.61 1204.76,-73.2"/>
<polygon fill="black" stroke="black" stroke-width="3" points="1202.11,-77.07 1211.59,-72.33 1201.23,-70.12 1202.11,-77.07"/>
</g>
<!-- n22&#45;&gt;x1 -->
<g id="edge64" class="edge">
<title>n22:e&#45;&gt;x1:w</title>
<path fill="none" stroke="black" stroke-width="3" d="M4923.49,-181.5C4955.58,-181.5 4930.99,-124.65 4948.92,-110.44"/>
<polygon fill="black" stroke="black" stroke-width="3" points="4946.58,-114.8 4955.14,-108.56 4944.56,-108.1 4946.58,-114.8"/>
</g>
<!-- n22&#45;&gt;x1 -->
<g id="edge65" class="edge">
<title>n22:e&#45;&gt;x1:w</title>
<path fill="none" stroke="black" stroke-width="3" d="M4923.49,-181.5C4946.09,-181.5 4937.23,-147.38 4949.02,-135.65"/>
<polygon fill="black" stroke="black" stroke-width="3" points="4947.09,-140.11 4955.23,-133.34 4944.64,-133.55 4947.09,-140.11"/>
</g>
<!-- n22&#45;&gt;x33 -->
<g id="edge66" class="edge">
<title>n22:e&#45;&gt;x33:w</title>
<path fill="none" stroke="black" stroke-width="3" d="M4923.49,-181.5C4937.55,-181.5 4943.62,-181.64 4953.81,-181.71"/>
<polygon fill="black" stroke="black" stroke-width="3" points="4950.69,-185.2 4960.7,-181.74 4950.71,-178.2 4950.69,-185.2"/>
</g>
<!-- n7&#45;&gt;x18 -->
<g id="edge111" class="edge">
<title>n7:e&#45;&gt;x18:w</title>
<path fill="none" stroke="black" stroke-width="3" d="M1790,-684.5C1827.18,-684.5 1832.64,-704.02 1868.84,-712.5 1938.14,-728.73 1956.67,-731.5 2027.84,-731.5 2027.84,-731.5 2027.84,-731.5 2145.09,-731.5 2214.17,-731.5 2231.39,-724.22 2299.09,-710.5 2310.77,-708.13 2315.7,-704.13 2323.7,-702.07"/>
<polygon fill="black" stroke="black" stroke-width="3" points="2321.05,-705.9 2330.58,-701.27 2320.25,-698.94 2321.05,-705.9"/>
</g>
<!-- n7&#45;&gt;x26 -->
<g id="edge112" class="edge">
<title>n7:e&#45;&gt;x26:w</title>
<path fill="none" stroke="black" stroke-width="3" d="M1790,-684.5C1820.93,-684.5 1831.39,-684.5 1857.52,-684.5"/>
<polygon fill="black" stroke="black" stroke-width="3" points="1854.3,-688 1864.3,-684.5 1854.3,-681 1854.3,-688"/>
</g>
</g>
</svg>
