<?xml version="1.0" encoding="UTF-8" standalone="no"?>
<!DOCTYPE svg PUBLIC "-//W3C//DTD SVG 1.1//EN"
 "http://www.w3.org/Graphics/SVG/1.1/DTD/svg11.dtd">
<!-- Generated by graphviz version 12.2.1 (20241206.2353)
 -->
<!-- Title: top Pages: 1 -->
<svg width="1492pt" height="324pt"
 viewBox="0.00 0.00 1491.88 324.24" xmlns="http://www.w3.org/2000/svg" xmlns:xlink="http://www.w3.org/1999/xlink">
<g id="graph0" class="graph" transform="scale(1 1) rotate(0) translate(4 320.24)">
<title>top</title>
<polygon fill="white" stroke="none" points="-4,4 -4,-320.24 1487.88,-320.24 1487.88,4 -4,4"/>
<text text-anchor="middle" x="741.94" y="-7.2" font-family="Times,serif" font-size="14.00">top</text>
<!-- n1 -->
<g id="node1" class="node">
<title>n1</title>
<polygon fill="none" stroke="black" points="554.79,-210.24 470.59,-192.24 554.79,-174.24 639,-192.24 554.79,-210.24"/>
<text text-anchor="middle" x="554.79" y="-187.19" font-family="Times,serif" font-size="14.00">expr_876272</text>
</g>
<!-- x3 -->
<g id="node10" class="node">
<title>x3</title>
<path fill="none" stroke="black" d="M1030.5,-164.49C1030.5,-164.49 1069,-164.49 1069,-164.49 1075,-164.49 1081,-170.49 1081,-176.49 1081,-176.49 1081,-225.99 1081,-225.99 1081,-231.99 1075,-237.99 1069,-237.99 1069,-237.99 1030.5,-237.99 1030.5,-237.99 1024.5,-237.99 1018.5,-231.99 1018.5,-225.99 1018.5,-225.99 1018.5,-176.49 1018.5,-176.49 1018.5,-170.49 1024.5,-164.49 1030.5,-164.49"/>
<text text-anchor="middle" x="1049.75" y="-220.69" font-family="Times,serif" font-size="14.00">3:3 &#45; 3:3</text>
<polyline fill="none" stroke="black" points="1018.5,-213.49 1081,-213.49"/>
<text text-anchor="middle" x="1049.75" y="-196.19" font-family="Times,serif" font-size="14.00">2:1 &#45; 2:1</text>
<polyline fill="none" stroke="black" points="1018.5,-188.99 1081,-188.99"/>
<text text-anchor="middle" x="1049.75" y="-171.69" font-family="Times,serif" font-size="14.00">0:0 &#45; 0:0</text>
</g>
<!-- n1&#45;&gt;x3 -->
<g id="edge11" class="edge">
<title>n1:e&#45;&gt;x3:w</title>
<path fill="none" stroke="black" stroke-width="3" d="M639,-192.24C803.92,-192.24 847.83,-200.84 1007.32,-201.23"/>
<polygon fill="black" stroke="black" stroke-width="3" points="1003.95,-204.72 1013.96,-201.23 1003.96,-197.72 1003.95,-204.72"/>
</g>
<!-- x4 -->
<g id="node11" class="node">
<title>x4</title>
<path fill="none" stroke="black" d="M1030.5,-71.49C1030.5,-71.49 1069,-71.49 1069,-71.49 1075,-71.49 1081,-77.49 1081,-83.49 1081,-83.49 1081,-132.99 1081,-132.99 1081,-138.99 1075,-144.99 1069,-144.99 1069,-144.99 1030.5,-144.99 1030.5,-144.99 1024.5,-144.99 1018.5,-138.99 1018.5,-132.99 1018.5,-132.99 1018.5,-83.49 1018.5,-83.49 1018.5,-77.49 1024.5,-71.49 1030.5,-71.49"/>
<text text-anchor="middle" x="1049.75" y="-127.69" font-family="Times,serif" font-size="14.00">3:3 &#45; 3:3</text>
<polyline fill="none" stroke="black" points="1018.5,-120.49 1081,-120.49"/>
<text text-anchor="middle" x="1049.75" y="-103.19" font-family="Times,serif" font-size="14.00">2:1 &#45; 2:1</text>
<polyline fill="none" stroke="black" points="1018.5,-95.99 1081,-95.99"/>
<text text-anchor="middle" x="1049.75" y="-78.69" font-family="Times,serif" font-size="14.00">0:0 &#45; 0:0</text>
</g>
<!-- n1&#45;&gt;x4 -->
<g id="edge12" class="edge">
<title>n1:e&#45;&gt;x4:w</title>
<path fill="none" stroke="black" stroke-width="3" d="M639,-192.24C679.4,-192.24 938.56,-118.72 1007.17,-109.24"/>
<polygon fill="black" stroke="black" stroke-width="3" points="1004.32,-113.01 1013.97,-108.64 1003.71,-106.03 1004.32,-113.01"/>
</g>
<!-- x8 -->
<g id="node15" class="node">
<title>x8</title>
<path fill="none" stroke="black" d="M687,-266.74C687,-266.74 725.5,-266.74 725.5,-266.74 731.5,-266.74 737.5,-272.74 737.5,-278.74 737.5,-278.74 737.5,-303.74 737.5,-303.74 737.5,-309.74 731.5,-315.74 725.5,-315.74 725.5,-315.74 687,-315.74 687,-315.74 681,-315.74 675,-309.74 675,-303.74 675,-303.74 675,-278.74 675,-278.74 675,-272.74 681,-266.74 687,-266.74"/>
<text text-anchor="middle" x="706.25" y="-298.44" font-family="Times,serif" font-size="14.00">2:1 &#45; 2:1</text>
<polyline fill="none" stroke="black" points="675,-291.24 737.5,-291.24"/>
<text text-anchor="middle" x="706.25" y="-273.94" font-family="Times,serif" font-size="14.00">0:0 &#45; 0:0</text>
</g>
<!-- n1&#45;&gt;x8 -->
<g id="edge13" class="edge">
<title>n1:e&#45;&gt;x8:w</title>
<path fill="none" stroke="black" stroke-width="3" d="M639,-192.24C686.5,-192.24 633.82,-285.19 664.1,-301.16"/>
<polygon fill="black" stroke="black" stroke-width="3" points="660.05,-303.88 670.56,-302.54 661.51,-297.03 660.05,-303.88"/>
</g>
<!-- n2 -->
<g id="node2" class="node">
<title>n2</title>
<polygon fill="none" stroke="black" points="107.84,-139.78 107.84,-154.69 76.26,-165.24 31.59,-165.24 0,-154.69 0,-139.78 31.59,-129.24 76.26,-129.24 107.84,-139.78"/>
<text text-anchor="middle" x="53.92" y="-142.19" font-family="Times,serif" font-size="14.00">input_data</text>
</g>
<!-- x0 -->
<g id="node6" class="node">
<title>x0</title>
<path fill="none" stroke="black" d="M155.84,-208.24C155.84,-208.24 194.34,-208.24 194.34,-208.24 200.34,-208.24 206.34,-214.24 206.34,-220.24 206.34,-220.24 206.34,-232.24 206.34,-232.24 206.34,-238.24 200.34,-244.24 194.34,-244.24 194.34,-244.24 155.84,-244.24 155.84,-244.24 149.84,-244.24 143.84,-238.24 143.84,-232.24 143.84,-232.24 143.84,-220.24 143.84,-220.24 143.84,-214.24 149.84,-208.24 155.84,-208.24"/>
<text text-anchor="middle" x="175.09" y="-221.44" font-family="Times,serif" font-size="14.00">1:1 &#45; 0:0</text>
</g>
<!-- n2&#45;&gt;x0 -->
<g id="edge14" class="edge">
<title>n2:e&#45;&gt;x0:w</title>
<path fill="none" stroke="black" d="M107.84,-147.24C141.84,-147.24 114,-208.46 133.02,-223.28"/>
<polygon fill="black" stroke="black" points="131.81,-226.57 142.39,-226.06 133.8,-219.86 131.81,-226.57"/>
</g>
<!-- x1 -->
<g id="node7" class="node">
<title>x1</title>
<path fill="none" stroke="black" d="M155.84,-153.24C155.84,-153.24 194.34,-153.24 194.34,-153.24 200.34,-153.24 206.34,-159.24 206.34,-165.24 206.34,-165.24 206.34,-177.24 206.34,-177.24 206.34,-183.24 200.34,-189.24 194.34,-189.24 194.34,-189.24 155.84,-189.24 155.84,-189.24 149.84,-189.24 143.84,-183.24 143.84,-177.24 143.84,-177.24 143.84,-165.24 143.84,-165.24 143.84,-159.24 149.84,-153.24 155.84,-153.24"/>
<text text-anchor="middle" x="175.09" y="-166.44" font-family="Times,serif" font-size="14.00">2:1 &#45; 1:0</text>
</g>
<!-- n2&#45;&gt;x1 -->
<g id="edge16" class="edge">
<title>n2:e&#45;&gt;x1:w</title>
<path fill="none" stroke="black" stroke-width="3" d="M107.84,-147.24C122.46,-147.24 124.52,-161.16 133.05,-167.91"/>
<polygon fill="black" stroke="black" stroke-width="3" points="128.94,-170.23 139.53,-170.06 131.14,-163.59 128.94,-170.23"/>
</g>
<!-- n2&#45;&gt;x3 -->
<g id="edge17" class="edge">
<title>n2:e&#45;&gt;x3:w</title>
<path fill="none" stroke="black" d="M107.84,-147.24C123.9,-147.24 127.83,-145.43 143.84,-144.24 325.93,-130.66 371.2,-117.24 553.79,-117.24 553.79,-117.24 553.79,-117.24 707.25,-117.24 844.23,-117.24 875.96,-173.53 1007.19,-176.61"/>
<polygon fill="black" stroke="black" points="1006.94,-180.1 1016.98,-176.72 1007.03,-173.11 1006.94,-180.1"/>
</g>
<!-- n2&#45;&gt;x4 -->
<g id="edge18" class="edge">
<title>n2:e&#45;&gt;x4:w</title>
<path fill="none" stroke="black" d="M107.84,-147.24C154.24,-147.24 107.61,-78.23 143.84,-49.24 194.38,-8.81 223.5,-30.24 288.22,-30.24 288.22,-30.24 288.22,-30.24 805.75,-30.24 899.34,-30.24 919.45,-79.54 1007.16,-83.49"/>
<polygon fill="black" stroke="black" points="1006.91,-86.98 1016.98,-83.71 1007.06,-79.99 1006.91,-86.98"/>
</g>
<!-- n2&#45;&gt;x8 -->
<g id="edge19" class="edge">
<title>n2:e&#45;&gt;x8:w</title>
<path fill="none" stroke="black" d="M107.84,-147.24C158.02,-147.24 105.75,-221.58 143.84,-254.24 193.28,-296.63 223.09,-279.24 288.22,-279.24 288.22,-279.24 288.22,-279.24 404.34,-279.24 520.76,-279.24 552.67,-279 663.64,-278.99"/>
<polygon fill="black" stroke="black" points="663.48,-282.49 673.48,-278.99 663.48,-275.49 663.48,-282.49"/>
</g>
<!-- x10 -->
<g id="node17" class="node">
<title>x10</title>
<path fill="none" stroke="black" d="M155.84,-59.24C155.84,-59.24 194.34,-59.24 194.34,-59.24 200.34,-59.24 206.34,-65.24 206.34,-71.24 206.34,-71.24 206.34,-83.24 206.34,-83.24 206.34,-89.24 200.34,-95.24 194.34,-95.24 194.34,-95.24 155.84,-95.24 155.84,-95.24 149.84,-95.24 143.84,-89.24 143.84,-83.24 143.84,-83.24 143.84,-71.24 143.84,-71.24 143.84,-65.24 149.84,-59.24 155.84,-59.24"/>
<text text-anchor="middle" x="175.09" y="-72.44" font-family="Times,serif" font-size="14.00">0:0 &#45; 0:0</text>
</g>
<!-- n2&#45;&gt;x10 -->
<g id="edge15" class="edge">
<title>n2:e&#45;&gt;x10:w</title>
<path fill="none" stroke="black" d="M107.84,-147.24C138.09,-147.24 116.71,-94.79 133.25,-80.85"/>
<polygon fill="black" stroke="black" points="133.93,-84.31 142.4,-77.95 131.81,-77.64 133.93,-84.31"/>
</g>
<!-- n3 -->
<g id="node3" class="node">
<title>n3</title>
<polygon fill="none" stroke="black" points="1483.88,-115.78 1483.88,-130.69 1449.37,-141.24 1400.57,-141.24 1366.07,-130.69 1366.07,-115.78 1400.57,-105.24 1449.37,-105.24 1483.88,-115.78"/>
<text text-anchor="middle" x="1424.97" y="-118.19" font-family="Times,serif" font-size="14.00">output_data</text>
</g>
<!-- n4 -->
<g id="node4" class="node">
<title>n4</title>
<polygon fill="none" stroke="black" points="927.25,-257.24 872,-239.24 927.25,-221.24 982.5,-239.24 927.25,-257.24"/>
<text text-anchor="middle" x="927.25" y="-234.19" font-family="Times,serif" font-size="14.00">temp_5</text>
</g>
<!-- n4&#45;&gt;x3 -->
<g id="edge24" class="edge">
<title>n4:e&#45;&gt;x3:w</title>
<path fill="none" stroke="black" d="M982.5,-239.24C994.91,-239.24 999.27,-232.11 1007.28,-228.21"/>
<polygon fill="black" stroke="black" points="1008.01,-231.64 1017.02,-226.06 1006.5,-224.8 1008.01,-231.64"/>
</g>
<!-- n4&#45;&gt;x4 -->
<g id="edge25" class="edge">
<title>n4:e&#45;&gt;x4:w</title>
<path fill="none" stroke="black" d="M982.5,-239.24C1027.97,-239.24 979.1,-151.02 1007.62,-135.16"/>
<polygon fill="black" stroke="black" points="1008.02,-138.66 1017.02,-133.07 1006.5,-131.83 1008.02,-138.66"/>
</g>
<!-- c8 -->
<g id="node5" class="node">
<title>c8</title>
<polygon fill="none" stroke="black" points="242.34,-189.74 242.34,-238.74 336.09,-238.74 336.09,-189.74 242.34,-189.74"/>
<text text-anchor="middle" x="255.22" y="-221.44" font-family="Times,serif" font-size="14.00">A</text>
<polyline fill="none" stroke="black" points="242.34,-214.24 268.09,-214.24"/>
<text text-anchor="middle" x="255.22" y="-196.94" font-family="Times,serif" font-size="14.00">B</text>
<polyline fill="none" stroke="black" points="268.09,-189.74 268.09,-238.74"/>
<text text-anchor="middle" x="289.22" y="-217.44" font-family="Times,serif" font-size="14.00">$6</text>
<text text-anchor="middle" x="289.22" y="-200.94" font-family="Times,serif" font-size="14.00">$add</text>
<polyline fill="none" stroke="black" points="310.34,-189.74 310.34,-238.74"/>
<text text-anchor="middle" x="323.22" y="-209.44" font-family="Times,serif" font-size="14.00">Y</text>
</g>
<!-- x2 -->
<g id="node8" class="node">
<title>x2</title>
<path fill="none" stroke="black" d="M384.09,-201.74C384.09,-201.74 422.59,-201.74 422.59,-201.74 428.59,-201.74 434.59,-207.74 434.59,-213.74 434.59,-213.74 434.59,-238.74 434.59,-238.74 434.59,-244.74 428.59,-250.74 422.59,-250.74 422.59,-250.74 384.09,-250.74 384.09,-250.74 378.09,-250.74 372.09,-244.74 372.09,-238.74 372.09,-238.74 372.09,-213.74 372.09,-213.74 372.09,-207.74 378.09,-201.74 384.09,-201.74"/>
<text text-anchor="middle" x="403.34" y="-233.44" font-family="Times,serif" font-size="14.00">2:2 &#45; 3:3</text>
<polyline fill="none" stroke="black" points="372.09,-226.24 434.59,-226.24"/>
<text text-anchor="middle" x="403.34" y="-208.94" font-family="Times,serif" font-size="14.00">1:0 &#45; 2:1</text>
</g>
<!-- c8&#45;&gt;x2 -->
<g id="edge3" class="edge">
<title>c8:e&#45;&gt;x2:w</title>
<path fill="none" stroke="black" stroke-width="3" d="M348.51,-217.21C352.38,-219.06 355.53,-221.49 359.36,-223.36"/>
<polygon fill="none" stroke="black" stroke-width="3" points="350.45,-217.64 343.74,-220.26 338.73,-215.07 345.45,-212.45 350.45,-217.64"/>
<polygon fill="none" stroke="black" stroke-width="3" points="357.75,-223 364.48,-220.42 369.45,-225.64 362.72,-228.22 357.75,-223"/>
</g>
<!-- x0&#45;&gt;c8 -->
<g id="edge1" class="edge">
<title>x0:e&#45;&gt;c8:w</title>
<path fill="none" stroke="black" d="M219.06,-226.3C222.66,-226.34 225.79,-226.39 229.37,-226.42"/>
<polygon fill="none" stroke="black" points="219.24,-226.3 213.22,-230.27 207.24,-226.24 213.26,-222.27 219.24,-226.3"/>
<polygon fill="none" stroke="black" points="229.44,-226.42 235.46,-222.45 241.44,-226.48 235.42,-230.45 229.44,-226.42"/>
</g>
<!-- x1&#45;&gt;c8 -->
<g id="edge2" class="edge">
<title>x1:e&#45;&gt;c8:w</title>
<path fill="none" stroke="black" stroke-width="3" d="M218.14,-176.32C223.33,-182.05 225.4,-191.31 230.63,-197.01"/>
<polygon fill="none" stroke="black" stroke-width="3" points="219.85,-177.05 212.75,-178.35 208.82,-172.31 215.92,-171.01 219.85,-177.05"/>
<polygon fill="none" stroke="black" stroke-width="3" points="228.81,-196.23 235.9,-194.9 239.85,-200.93 232.77,-202.26 228.81,-196.23"/>
</g>
<!-- x2&#45;&gt;n1 -->
<g id="edge10" class="edge">
<title>x2:e&#45;&gt;n1:w</title>
<path fill="none" stroke="black" stroke-width="3" d="M434.59,-213.99C448.61,-213.99 451.34,-201.75 459.71,-195.64"/>
<polygon fill="black" stroke="black" stroke-width="3" points="457.75,-199.91 466.26,-193.59 455.67,-193.23 457.75,-199.91"/>
</g>
<!-- x2&#45;&gt;n4 -->
<g id="edge22" class="edge">
<title>x2:e&#45;&gt;n4:w</title>
<path fill="none" stroke="black" d="M434.59,-238.49C625.1,-238.49 675.59,-239.21 860.49,-239.24"/>
<polygon fill="black" stroke="black" points="860.48,-242.74 870.48,-239.24 860.48,-235.74 860.48,-242.74"/>
</g>
<!-- c9 -->
<g id="node9" class="node">
<title>c9</title>
<polygon fill="none" stroke="black" points="1124.03,-129.74 1124.03,-178.74 1217.78,-178.74 1217.78,-129.74 1124.03,-129.74"/>
<text text-anchor="middle" x="1136.91" y="-161.44" font-family="Times,serif" font-size="14.00">A</text>
<polyline fill="none" stroke="black" points="1124.03,-154.24 1149.78,-154.24"/>
<text text-anchor="middle" x="1136.91" y="-136.94" font-family="Times,serif" font-size="14.00">B</text>
<polyline fill="none" stroke="black" points="1149.78,-129.74 1149.78,-178.74"/>
<text text-anchor="middle" x="1170.91" y="-157.44" font-family="Times,serif" font-size="14.00">$33</text>
<text text-anchor="middle" x="1170.91" y="-140.94" font-family="Times,serif" font-size="14.00">$and</text>
<polyline fill="none" stroke="black" points="1192.03,-129.74 1192.03,-178.74"/>
<text text-anchor="middle" x="1204.91" y="-149.44" font-family="Times,serif" font-size="14.00">Y</text>
</g>
<!-- x5 -->
<g id="node12" class="node">
<title>x5</title>
<path fill="none" stroke="black" d="M1276.19,-134.24C1276.19,-134.24 1314.69,-134.24 1314.69,-134.24 1320.69,-134.24 1326.69,-140.24 1326.69,-146.24 1326.69,-146.24 1326.69,-158.24 1326.69,-158.24 1326.69,-164.24 1320.69,-170.24 1314.69,-170.24 1314.69,-170.24 1276.19,-170.24 1276.19,-170.24 1270.19,-170.24 1264.19,-164.24 1264.19,-158.24 1264.19,-158.24 1264.19,-146.24 1264.19,-146.24 1264.19,-140.24 1270.19,-134.24 1276.19,-134.24"/>
<text text-anchor="middle" x="1295.44" y="-147.44" font-family="Times,serif" font-size="14.00">3:0 &#45; 3:0</text>
</g>
<!-- c9&#45;&gt;x5 -->
<g id="edge6" class="edge">
<title>c9:e&#45;&gt;x5:w</title>
<path fill="none" stroke="black" stroke-width="3" d="M1231.61,-154.12C1238.46,-153.7 1243.61,-153.02 1250.48,-152.6"/>
<polygon fill="none" stroke="black" stroke-width="3" points="1233.48,-154.06 1227.6,-158.23 1221.49,-154.41 1227.37,-150.24 1233.48,-154.06"/>
<polygon fill="none" stroke="black" stroke-width="3" points="1248.5,-152.66 1254.38,-148.49 1260.49,-152.32 1254.61,-156.49 1248.5,-152.66"/>
</g>
<!-- x3&#45;&gt;c9 -->
<g id="edge4" class="edge">
<title>x3:e&#45;&gt;c9:w</title>
<path fill="none" stroke="black" stroke-width="3" d="M1093.14,-196.98C1100.86,-190.31 1103.14,-177.48 1110.85,-170.78"/>
<polygon fill="none" stroke="black" stroke-width="3" points="1094.87,-196.37 1090.54,-202.13 1083.55,-200.34 1087.89,-194.58 1094.87,-196.37"/>
<polygon fill="none" stroke="black" stroke-width="3" points="1109.17,-171.38 1113.49,-165.61 1120.48,-167.39 1116.15,-173.16 1109.17,-171.38"/>
</g>
<!-- x4&#45;&gt;c9 -->
<g id="edge5" class="edge">
<title>x4:e&#45;&gt;c9:w</title>
<path fill="none" stroke="black" stroke-width="3" d="M1093.06,-112.38C1100.79,-118.85 1103.22,-131.32 1110.93,-137.82"/>
<polygon fill="none" stroke="black" stroke-width="3" points="1094.91,-113.01 1087.93,-114.85 1083.56,-109.12 1090.53,-107.28 1094.91,-113.01"/>
<polygon fill="none" stroke="black" stroke-width="3" points="1109.13,-137.2 1116.11,-135.37 1120.48,-141.11 1113.5,-142.93 1109.13,-137.2"/>
</g>
<!-- x5&#45;&gt;n3 -->
<g id="edge20" class="edge">
<title>x5:e&#45;&gt;n3:w</title>
<path fill="none" stroke="black" stroke-width="3" d="M1327.69,-152.49C1344.45,-152.49 1345.36,-134.64 1355.18,-126.83"/>
<polygon fill="black" stroke="black" stroke-width="3" points="1353.35,-131.11 1361.76,-124.66 1351.16,-124.46 1353.35,-131.11"/>
</g>
<!-- v6 -->
<g id="node13" class="node">
<title>v6</title>
<ellipse fill="none" stroke="black" cx="1170.91" cy="-93.24" rx="53.91" ry="18"/>
<text text-anchor="middle" x="1170.91" y="-88.19" font-family="Times,serif" font-size="14.00">8&#39;00000000</text>
</g>
<!-- x7 -->
<g id="node14" class="node">
<title>x7</title>
<path fill="none" stroke="black" d="M1272.82,-78.24C1272.82,-78.24 1318.07,-78.24 1318.07,-78.24 1324.07,-78.24 1330.07,-84.24 1330.07,-90.24 1330.07,-90.24 1330.07,-102.24 1330.07,-102.24 1330.07,-108.24 1324.07,-114.24 1318.07,-114.24 1318.07,-114.24 1272.82,-114.24 1272.82,-114.24 1266.82,-114.24 1260.82,-108.24 1260.82,-102.24 1260.82,-102.24 1260.82,-90.24 1260.82,-90.24 1260.82,-84.24 1266.82,-78.24 1272.82,-78.24"/>
<text text-anchor="middle" x="1295.44" y="-91.44" font-family="Times,serif" font-size="14.00">7:0 &#45; 11:4</text>
</g>
<!-- v6&#45;&gt;x7 -->
<g id="edge26" class="edge">
<title>v6:e&#45;&gt;x7:w</title>
<path fill="none" stroke="black" stroke-width="3" d="M1224.82,-93.24C1236.23,-93.24 1241.5,-94.75 1249.36,-95.63"/>
<polygon fill="black" stroke="black" stroke-width="3" points="1246.11,-98.96 1256.28,-96 1246.48,-91.97 1246.11,-98.96"/>
</g>
<!-- x7&#45;&gt;n3 -->
<g id="edge21" class="edge">
<title>x7:e&#45;&gt;n3:w</title>
<path fill="none" stroke="black" stroke-width="3" d="M1330.07,-96.49C1345.33,-96.49 1346.64,-112.17 1355.36,-119.52"/>
<polygon fill="black" stroke="black" stroke-width="3" points="1351.18,-121.77 1361.78,-121.75 1353.48,-115.16 1351.18,-121.77"/>
</g>
<!-- x9 -->
<g id="node16" class="node">
<title>x9</title>
<path fill="none" stroke="black" d="M785.5,-270.24C785.5,-270.24 824,-270.24 824,-270.24 830,-270.24 836,-276.24 836,-282.24 836,-282.24 836,-294.24 836,-294.24 836,-300.24 830,-306.24 824,-306.24 824,-306.24 785.5,-306.24 785.5,-306.24 779.5,-306.24 773.5,-300.24 773.5,-294.24 773.5,-294.24 773.5,-282.24 773.5,-282.24 773.5,-276.24 779.5,-270.24 785.5,-270.24"/>
<text text-anchor="middle" x="804.75" y="-283.44" font-family="Times,serif" font-size="14.00">2:0 &#45; 2:0</text>
</g>
<!-- x8&#45;&gt;x9 -->
<g id="edge7" class="edge">
<title>x8:e&#45;&gt;x9:w</title>
<path fill="none" stroke="black" stroke-width="3" d="M750.23,-290.48C753.82,-290.04 756.94,-289.48 760.51,-289.03"/>
<polygon fill="none" stroke="black" stroke-width="3" points="752.17,-290.37 746.42,-294.71 740.2,-291.08 745.95,-286.73 752.17,-290.37"/>
<polygon fill="none" stroke="black" stroke-width="3" points="758.82,-289.13 764.57,-284.77 770.8,-288.4 765.05,-292.76 758.82,-289.13"/>
</g>
<!-- x9&#45;&gt;n4 -->
<g id="edge23" class="edge">
<title>x9:e&#45;&gt;n4:w</title>
<path fill="none" stroke="black" stroke-width="3" d="M836,-288.49C858.45,-288.49 849.81,-254.71 861.57,-243.1"/>
<polygon fill="black" stroke="black" stroke-width="3" points="859.58,-247.58 867.74,-240.82 857.15,-241.01 859.58,-247.58"/>
</g>
<!-- x11 -->
<g id="node18" class="node">
<title>x11</title>
<path fill="none" stroke="black" d="M384.09,-146.24C384.09,-146.24 422.59,-146.24 422.59,-146.24 428.59,-146.24 434.59,-152.24 434.59,-158.24 434.59,-158.24 434.59,-170.24 434.59,-170.24 434.59,-176.24 428.59,-182.24 422.59,-182.24 422.59,-182.24 384.09,-182.24 384.09,-182.24 378.09,-182.24 372.09,-176.24 372.09,-170.24 372.09,-170.24 372.09,-158.24 372.09,-158.24 372.09,-152.24 378.09,-146.24 384.09,-146.24"/>
<text text-anchor="middle" x="403.34" y="-159.44" font-family="Times,serif" font-size="14.00">0:0 &#45; 0:0</text>
</g>
<!-- x10&#45;&gt;x11 -->
<g id="edge8" class="edge">
<title>x10:e&#45;&gt;x11:w</title>
<path fill="none" stroke="black" d="M219.27,-77.99C285.73,-86.01 292.81,-155.65 359.42,-163.52"/>
<polygon fill="none" stroke="black" points="219.22,-77.99 213,-81.63 207.24,-77.29 213.46,-73.65 219.22,-77.99"/>
<polygon fill="none" stroke="black" points="359.21,-163.5 365.43,-159.85 371.19,-164.19 364.97,-167.84 359.21,-163.5"/>
</g>
<!-- x11&#45;&gt;n1 -->
<g id="edge9" class="edge">
<title>x11:e&#45;&gt;n1:w</title>
<path fill="none" stroke="black" d="M434.59,-164.49C450.06,-164.49 451.1,-180.76 459.81,-188.38"/>
<polygon fill="black" stroke="black" points="458.57,-191.65 469.17,-191.73 460.93,-185.06 458.57,-191.65"/>
</g>
</g>
</svg>
