<?xml version="1.0" encoding="UTF-8" standalone="no"?>
<!DOCTYPE svg PUBLIC "-//W3C//DTD SVG 1.1//EN"
 "http://www.w3.org/Graphics/SVG/1.1/DTD/svg11.dtd">
<!-- Generated by graphviz version 12.2.1 (20241206.2353)
 -->
<!-- Title: top Pages: 1 -->
<svg width="1319pt" height="274pt"
 viewBox="0.00 0.00 1318.90 274.18" xmlns="http://www.w3.org/2000/svg" xmlns:xlink="http://www.w3.org/1999/xlink">
<g id="graph0" class="graph" transform="scale(1 1) rotate(0) translate(4 270.18)">
<title>top</title>
<polygon fill="white" stroke="none" points="-4,4 -4,-270.18 1314.9,-270.18 1314.9,4 -4,4"/>
<text text-anchor="middle" x="655.45" y="-7.2" font-family="Times,serif" font-size="14.00">top</text>
<!-- n6 -->
<g id="node1" class="node">
<title>n6</title>
<polygon fill="none" stroke="black" points="107.84,-136.04 107.84,-150.96 76.26,-161.5 31.59,-161.5 0,-150.96 0,-136.04 31.59,-125.5 76.26,-125.5 107.84,-136.04"/>
<text text-anchor="middle" x="53.92" y="-138.45" font-family="Times,serif" font-size="14.00">input_data</text>
</g>
<!-- c13 -->
<g id="node6" class="node">
<title>c13</title>
<polygon fill="none" stroke="black" points="143.84,-66 143.84,-115 239.84,-115 239.84,-66 143.84,-66"/>
<text text-anchor="middle" x="156.72" y="-97.7" font-family="Times,serif" font-size="14.00">A</text>
<polyline fill="none" stroke="black" points="143.84,-90.5 169.59,-90.5"/>
<text text-anchor="middle" x="156.72" y="-73.2" font-family="Times,serif" font-size="14.00">B</text>
<polyline fill="none" stroke="black" points="169.59,-66 169.59,-115"/>
<text text-anchor="middle" x="191.84" y="-93.7" font-family="Times,serif" font-size="14.00">$2</text>
<text text-anchor="middle" x="191.84" y="-77.2" font-family="Times,serif" font-size="14.00">$mul</text>
<polyline fill="none" stroke="black" points="214.09,-66 214.09,-115"/>
<text text-anchor="middle" x="226.97" y="-85.7" font-family="Times,serif" font-size="14.00">Y</text>
</g>
<!-- n6&#45;&gt;c13 -->
<g id="edge13" class="edge">
<title>n6:e&#45;&gt;c13:w</title>
<path fill="none" stroke="black" stroke-width="3" d="M107.84,-143.5C136.3,-143.5 117.97,-95.31 133.27,-81.76"/>
<polygon fill="black" stroke="black" stroke-width="3" points="131.14,-86.15 139.53,-79.68 128.94,-79.51 131.14,-86.15"/>
</g>
<!-- n6&#45;&gt;c13 -->
<g id="edge14" class="edge">
<title>n6:e&#45;&gt;c13:w</title>
<path fill="none" stroke="black" stroke-width="3" d="M107.84,-143.5C127.29,-143.5 123.1,-117.11 133.31,-106.81"/>
<polygon fill="black" stroke="black" stroke-width="3" points="131.53,-111.24 139.6,-104.38 129.01,-104.71 131.53,-111.24"/>
</g>
<!-- c14 -->
<g id="node7" class="node">
<title>c14</title>
<polygon fill="none" stroke="black" points="422.34,-83 422.34,-132 518.34,-132 518.34,-83 422.34,-83"/>
<text text-anchor="middle" x="435.22" y="-114.7" font-family="Times,serif" font-size="14.00">A</text>
<polyline fill="none" stroke="black" points="422.34,-107.5 448.09,-107.5"/>
<text text-anchor="middle" x="435.22" y="-90.2" font-family="Times,serif" font-size="14.00">B</text>
<polyline fill="none" stroke="black" points="448.09,-83 448.09,-132"/>
<text text-anchor="middle" x="470.34" y="-110.7" font-family="Times,serif" font-size="14.00">$3</text>
<text text-anchor="middle" x="470.34" y="-94.2" font-family="Times,serif" font-size="14.00">$mul</text>
<polyline fill="none" stroke="black" points="492.59,-83 492.59,-132"/>
<text text-anchor="middle" x="505.47" y="-102.7" font-family="Times,serif" font-size="14.00">Y</text>
</g>
<!-- n6&#45;&gt;c14 -->
<g id="edge15" class="edge">
<title>n6:e&#45;&gt;c14:w</title>
<path fill="none" stroke="black" stroke-width="3" d="M107.84,-143.5C244.18,-143.5 280.22,-121.03 411.08,-119.8"/>
<polygon fill="black" stroke="black" stroke-width="3" points="407.82,-123.32 417.8,-119.77 407.79,-116.32 407.82,-123.32"/>
</g>
<!-- c15 -->
<g id="node8" class="node">
<title>c15</title>
<polygon fill="none" stroke="black" points="146.09,-174 146.09,-215 237.59,-215 237.59,-174 146.09,-174"/>
<text text-anchor="middle" x="158.97" y="-189.7" font-family="Times,serif" font-size="14.00">A</text>
<polyline fill="none" stroke="black" points="171.84,-174 171.84,-215"/>
<text text-anchor="middle" x="191.84" y="-197.7" font-family="Times,serif" font-size="14.00">$5</text>
<text text-anchor="middle" x="191.84" y="-181.2" font-family="Times,serif" font-size="14.00">$not</text>
<polyline fill="none" stroke="black" points="211.84,-174 211.84,-215"/>
<text text-anchor="middle" x="224.72" y="-189.7" font-family="Times,serif" font-size="14.00">Y</text>
</g>
<!-- n6&#45;&gt;c15 -->
<g id="edge16" class="edge">
<title>n6:e&#45;&gt;c15:w</title>
<path fill="none" stroke="black" stroke-width="3" d="M107.84,-143.5C131.38,-143.5 121.92,-179.31 134.63,-191.06"/>
<polygon fill="black" stroke="black" stroke-width="3" points="130.21,-193.22 140.81,-193.24 132.54,-186.62 130.21,-193.22"/>
</g>
<!-- c18 -->
<g id="node12" class="node">
<title>c18</title>
<polygon fill="none" stroke="black" points="1058.09,-92.75 1058.09,-166.25 1157.09,-166.25 1157.09,-92.75 1058.09,-92.75"/>
<text text-anchor="middle" x="1070.97" y="-148.95" font-family="Times,serif" font-size="14.00">A</text>
<polyline fill="none" stroke="black" points="1058.09,-141.75 1083.84,-141.75"/>
<text text-anchor="middle" x="1070.97" y="-124.45" font-family="Times,serif" font-size="14.00">B</text>
<polyline fill="none" stroke="black" points="1058.09,-117.25 1083.84,-117.25"/>
<text text-anchor="middle" x="1070.97" y="-99.95" font-family="Times,serif" font-size="14.00">S</text>
<polyline fill="none" stroke="black" points="1083.84,-92.75 1083.84,-166.25"/>
<text text-anchor="middle" x="1107.59" y="-132.7" font-family="Times,serif" font-size="14.00">$9</text>
<text text-anchor="middle" x="1107.59" y="-116.2" font-family="Times,serif" font-size="14.00">$mux</text>
<polyline fill="none" stroke="black" points="1131.34,-92.75 1131.34,-166.25"/>
<text text-anchor="middle" x="1144.22" y="-124.45" font-family="Times,serif" font-size="14.00">Y</text>
</g>
<!-- n6&#45;&gt;c18 -->
<g id="edge17" class="edge">
<title>n6:e&#45;&gt;c18:w</title>
<path fill="none" stroke="black" stroke-width="3" d="M107.84,-143.5C147.24,-143.5 113.26,-199.67 143.84,-224.5 209.56,-277.87 245.43,-264.5 330.09,-264.5 330.09,-264.5 330.09,-264.5 862.09,-264.5 908.58,-264.5 994.82,-168.99 1046.89,-155.56"/>
<polygon fill="black" stroke="black" stroke-width="3" points="1044.17,-159.48 1053.59,-154.63 1043.21,-152.54 1044.17,-159.48"/>
</g>
<!-- n7 -->
<g id="node2" class="node">
<title>n7</title>
<polygon fill="none" stroke="black" points="1310.9,-122.04 1310.9,-136.96 1276.4,-147.5 1227.6,-147.5 1193.09,-136.96 1193.09,-122.04 1227.6,-111.5 1276.4,-111.5 1310.9,-122.04"/>
<text text-anchor="middle" x="1252" y="-124.45" font-family="Times,serif" font-size="14.00">output_data</text>
</g>
<!-- n8 -->
<g id="node3" class="node">
<title>n8</title>
<polygon fill="none" stroke="black" points="331.09,-108.5 275.84,-90.5 331.09,-72.5 386.34,-90.5 331.09,-108.5"/>
<text text-anchor="middle" x="331.09" y="-85.45" font-family="Times,serif" font-size="14.00">temp_1</text>
</g>
<!-- n8&#45;&gt;c14 -->
<g id="edge20" class="edge">
<title>n8:e&#45;&gt;c14:w</title>
<path fill="none" stroke="black" stroke-width="3" d="M386.34,-90.5C397.94,-90.5 403.13,-92.95 411.12,-94.33"/>
<polygon fill="black" stroke="black" stroke-width="3" points="407.56,-97.56 417.82,-94.88 408.13,-90.58 407.56,-97.56"/>
</g>
<!-- x2 -->
<g id="node11" class="node">
<title>x2</title>
<path fill="none" stroke="black" d="M451.09,-27.5C451.09,-27.5 489.59,-27.5 489.59,-27.5 495.59,-27.5 501.59,-33.5 501.59,-39.5 501.59,-39.5 501.59,-51.5 501.59,-51.5 501.59,-57.5 495.59,-63.5 489.59,-63.5 489.59,-63.5 451.09,-63.5 451.09,-63.5 445.09,-63.5 439.09,-57.5 439.09,-51.5 439.09,-51.5 439.09,-39.5 439.09,-39.5 439.09,-33.5 445.09,-27.5 451.09,-27.5"/>
<text text-anchor="middle" x="470.34" y="-40.7" font-family="Times,serif" font-size="14.00">3:0 &#45; 3:0</text>
</g>
<!-- n8&#45;&gt;x2 -->
<g id="edge21" class="edge">
<title>n8:e&#45;&gt;x2:w</title>
<path fill="none" stroke="black" stroke-width="3" d="M386.34,-90.5C412.24,-90.5 409.51,-58.05 426.9,-48.42"/>
<polygon fill="black" stroke="black" stroke-width="3" points="424.76,-52.52 433.67,-46.8 423.14,-45.71 424.76,-52.52"/>
</g>
<!-- c12 -->
<g id="node4" class="node">
<title>c12</title>
<polygon fill="none" stroke="black" points="928.34,-105 928.34,-154 1022.09,-154 1022.09,-105 928.34,-105"/>
<text text-anchor="middle" x="941.22" y="-136.7" font-family="Times,serif" font-size="14.00">A</text>
<polyline fill="none" stroke="black" points="928.34,-129.5 954.09,-129.5"/>
<text text-anchor="middle" x="941.22" y="-112.2" font-family="Times,serif" font-size="14.00">B</text>
<polyline fill="none" stroke="black" points="954.09,-105 954.09,-154"/>
<text text-anchor="middle" x="975.22" y="-132.7" font-family="Times,serif" font-size="14.00">$6</text>
<text text-anchor="middle" x="975.22" y="-116.2" font-family="Times,serif" font-size="14.00">$and</text>
<polyline fill="none" stroke="black" points="996.34,-105 996.34,-154"/>
<text text-anchor="middle" x="1009.22" y="-124.7" font-family="Times,serif" font-size="14.00">Y</text>
</g>
<!-- c12&#45;&gt;c18 -->
<g id="edge4" class="edge">
<title>c12:e&#45;&gt;c18:w</title>
<path fill="none" stroke="black" stroke-width="3" d="M1022.09,-129.75C1033.47,-129.75 1038.78,-129.62 1046.65,-129.55"/>
<polygon fill="black" stroke="black" stroke-width="3" points="1043.57,-133.06 1053.55,-129.52 1043.54,-126.06 1043.57,-133.06"/>
</g>
<!-- x0 -->
<g id="node5" class="node">
<title>x0</title>
<path fill="none" stroke="black" d="M841.84,-123C841.84,-123 880.34,-123 880.34,-123 886.34,-123 892.34,-129 892.34,-135 892.34,-135 892.34,-160 892.34,-160 892.34,-166 886.34,-172 880.34,-172 880.34,-172 841.84,-172 841.84,-172 835.84,-172 829.84,-166 829.84,-160 829.84,-160 829.84,-135 829.84,-135 829.84,-129 835.84,-123 841.84,-123"/>
<text text-anchor="middle" x="861.09" y="-154.7" font-family="Times,serif" font-size="14.00">4:4 &#45; 4:4</text>
<polyline fill="none" stroke="black" points="829.84,-147.5 892.34,-147.5"/>
<text text-anchor="middle" x="861.09" y="-130.2" font-family="Times,serif" font-size="14.00">3:0 &#45; 3:0</text>
</g>
<!-- x0&#45;&gt;c12 -->
<g id="edge1" class="edge">
<title>x0:e&#45;&gt;c12:w</title>
<path fill="none" stroke="black" stroke-width="3" d="M904.1,-142.5C909.3,-136.87 911.44,-127.75 916.67,-122.15"/>
<polygon fill="none" stroke="black" stroke-width="3" points="905.87,-141.75 901.92,-147.78 894.83,-146.44 898.79,-140.41 905.87,-141.75"/>
<polygon fill="none" stroke="black" stroke-width="3" points="914.79,-122.95 918.77,-116.93 925.85,-118.3 921.87,-124.31 914.79,-122.95"/>
</g>
<!-- c13&#45;&gt;n8 -->
<g id="edge19" class="edge">
<title>c13:e&#45;&gt;n8:w</title>
<path fill="none" stroke="black" stroke-width="3" d="M239.84,-90.75C251.22,-90.75 256.53,-90.62 264.39,-90.55"/>
<polygon fill="black" stroke="black" stroke-width="3" points="261.32,-94.06 271.3,-90.52 261.28,-87.06 261.32,-94.06"/>
</g>
<!-- c14&#45;&gt;c12 -->
<g id="edge5" class="edge">
<title>c14:e&#45;&gt;c12:w</title>
<path fill="none" stroke="black" stroke-width="3" d="M518.34,-107.75C684.58,-107.75 735.64,-58 892.34,-113.5 907.02,-118.7 908.4,-132.5 917.37,-138.68"/>
<polygon fill="black" stroke="black" stroke-width="3" points="913.4,-141.2 923.97,-140.53 915.28,-134.46 913.4,-141.2"/>
</g>
<!-- x1 -->
<g id="node9" class="node">
<title>x1</title>
<path fill="none" stroke="black" d="M311.84,-172C311.84,-172 350.34,-172 350.34,-172 356.34,-172 362.34,-178 362.34,-184 362.34,-184 362.34,-209 362.34,-209 362.34,-215 356.34,-221 350.34,-221 350.34,-221 311.84,-221 311.84,-221 305.84,-221 299.84,-215 299.84,-209 299.84,-209 299.84,-184 299.84,-184 299.84,-178 305.84,-172 311.84,-172"/>
<text text-anchor="middle" x="331.09" y="-203.7" font-family="Times,serif" font-size="14.00">4:4 &#45; 4:4</text>
<polyline fill="none" stroke="black" points="299.84,-196.5 362.34,-196.5"/>
<text text-anchor="middle" x="331.09" y="-179.2" font-family="Times,serif" font-size="14.00">3:0 &#45; 3:0</text>
</g>
<!-- c15&#45;&gt;x1 -->
<g id="edge2" class="edge">
<title>c15:e&#45;&gt;x1:w</title>
<path fill="none" stroke="black" stroke-width="3" d="M251.32,-194.9C264.68,-195.23 272.76,-196.02 286.13,-196.35"/>
<polygon fill="none" stroke="black" stroke-width="3" points="253.29,-194.92 247.25,-198.85 241.29,-194.78 247.34,-190.85 253.29,-194.92"/>
<polygon fill="none" stroke="black" stroke-width="3" points="284.14,-196.33 290.18,-192.4 296.14,-196.47 290.09,-200.4 284.14,-196.33"/>
</g>
<!-- n3 -->
<g id="node14" class="node">
<title>n3</title>
<ellipse fill="black" stroke="black" cx="470.34" cy="-179.5" rx="1.8" ry="1.8"/>
</g>
<!-- x1&#45;&gt;n3 -->
<g id="edge6" class="edge">
<title>x1:e&#45;&gt;n3:w</title>
<path fill="none" stroke="black" stroke-width="3" d="M363.34,-184.25C405.52,-184.25 418.7,-180.28 455.89,-179.6"/>
<polygon fill="black" stroke="black" stroke-width="3" points="452.55,-183.13 462.52,-179.54 452.49,-176.13 452.55,-183.13"/>
</g>
<!-- n4 -->
<g id="node15" class="node">
<title>n4</title>
<ellipse fill="black" stroke="black" cx="723.34" cy="-179.5" rx="1.8" ry="1.8"/>
</g>
<!-- x1&#45;&gt;n4 -->
<g id="edge9" class="edge">
<title>x1:e&#45;&gt;n4:w</title>
<path fill="none" stroke="black" d="M363.34,-208.75C476.01,-208.75 505.2,-222.65 616.84,-207.5 659.9,-201.66 670.77,-183.1 708.62,-179.96"/>
<polygon fill="black" stroke="black" points="708.7,-183.46 718.55,-179.56 708.42,-176.46 708.7,-183.46"/>
</g>
<!-- c16 -->
<g id="node10" class="node">
<title>c16</title>
<polygon fill="none" stroke="black" points="652.84,-25 652.84,-66 793.84,-66 793.84,-25 652.84,-25"/>
<text text-anchor="middle" x="665.72" y="-40.7" font-family="Times,serif" font-size="14.00">A</text>
<polyline fill="none" stroke="black" points="678.59,-25 678.59,-66"/>
<text text-anchor="middle" x="723.34" y="-48.7" font-family="Times,serif" font-size="14.00">$7</text>
<text text-anchor="middle" x="723.34" y="-32.2" font-family="Times,serif" font-size="14.00">$reduce_bool</text>
<polyline fill="none" stroke="black" points="768.09,-25 768.09,-66"/>
<text text-anchor="middle" x="780.97" y="-40.7" font-family="Times,serif" font-size="14.00">Y</text>
</g>
<!-- c16&#45;&gt;c18 -->
<g id="edge12" class="edge">
<title>c16:e&#45;&gt;c18:w</title>
<path fill="none" stroke="black" d="M793.84,-45.75C897.67,-45.75 921.15,-71.19 1022.09,-95.5 1033.66,-98.28 1038.65,-101.97 1046.68,-103.83"/>
<polygon fill="black" stroke="black" points="1046.28,-107.31 1056.59,-104.85 1047,-100.34 1046.28,-107.31"/>
</g>
<!-- x2&#45;&gt;c16 -->
<g id="edge3" class="edge">
<title>x2:e&#45;&gt;c16:w</title>
<path fill="none" stroke="black" stroke-width="3" d="M515.62,-45.5C567.82,-45.53 587.72,-45.72 640,-45.75"/>
<polygon fill="none" stroke="black" stroke-width="3" points="517.3,-45.5 511.3,-49.5 505.3,-45.5 511.3,-41.5 517.3,-45.5"/>
<polygon fill="none" stroke="black" stroke-width="3" points="638.14,-45.75 644.14,-41.75 650.14,-45.75 644.14,-49.75 638.14,-45.75"/>
</g>
<!-- c18&#45;&gt;n7 -->
<g id="edge18" class="edge">
<title>c18:e&#45;&gt;n7:w</title>
<path fill="none" stroke="black" stroke-width="3" d="M1157.09,-129.5C1168.47,-129.5 1173.78,-129.5 1181.65,-129.5"/>
<polygon fill="black" stroke="black" stroke-width="3" points="1178.55,-133 1188.55,-129.5 1178.55,-126 1178.55,-133"/>
</g>
<!-- x3 -->
<g id="node13" class="node">
<title>x3</title>
<path fill="none" stroke="black" d="M566.34,-161.5C566.34,-161.5 604.84,-161.5 604.84,-161.5 610.84,-161.5 616.84,-167.5 616.84,-173.5 616.84,-173.5 616.84,-185.5 616.84,-185.5 616.84,-191.5 610.84,-197.5 604.84,-197.5 604.84,-197.5 566.34,-197.5 566.34,-197.5 560.34,-197.5 554.34,-191.5 554.34,-185.5 554.34,-185.5 554.34,-173.5 554.34,-173.5 554.34,-167.5 560.34,-161.5 566.34,-161.5"/>
<text text-anchor="middle" x="585.59" y="-174.7" font-family="Times,serif" font-size="14.00">3:0 &#45; 3:0</text>
</g>
<!-- x3&#45;&gt;n4 -->
<g id="edge10" class="edge">
<title>x3:e&#45;&gt;n4:w</title>
<path fill="none" stroke="black" stroke-width="3" d="M616.84,-179.75C658.78,-179.75 671.96,-179.54 708.95,-179.51"/>
<polygon fill="black" stroke="black" stroke-width="3" points="705.52,-183.01 715.52,-179.5 705.52,-176.01 705.52,-183.01"/>
</g>
<!-- n3&#45;&gt;x0 -->
<g id="edge7" class="edge">
<title>n3:e&#45;&gt;x0:w</title>
<path fill="none" stroke="black" stroke-width="3" d="M473.62,-179.5C511.45,-179.5 517.21,-159.74 554.34,-152.5 670.99,-129.74 705.05,-134.89 818.6,-135.23"/>
<polygon fill="black" stroke="black" stroke-width="3" points="815.3,-138.73 825.3,-135.24 815.31,-131.73 815.3,-138.73"/>
</g>
<!-- n3&#45;&gt;x3 -->
<g id="edge8" class="edge">
<title>n3:e&#45;&gt;x3:w</title>
<path fill="none" stroke="black" stroke-width="3" d="M473.62,-179.5C505.43,-179.5 516.09,-179.5 543.11,-179.5"/>
<polygon fill="black" stroke="black" stroke-width="3" points="539.8,-183 549.8,-179.5 539.8,-176 539.8,-183"/>
</g>
<!-- n4&#45;&gt;x0 -->
<g id="edge11" class="edge">
<title>n4:e&#45;&gt;x0:w</title>
<path fill="none" stroke="black" d="M726.62,-179.5C769.31,-179.5 781.18,-163 818.57,-160.16"/>
<polygon fill="black" stroke="black" points="818.46,-163.67 828.33,-159.81 818.21,-156.67 818.46,-163.67"/>
</g>
</g>
</svg>
