<?xml version="1.0" encoding="UTF-8" standalone="no"?>
<!DOCTYPE svg PUBLIC "-//W3C//DTD SVG 1.1//EN"
 "http://www.w3.org/Graphics/SVG/1.1/DTD/svg11.dtd">
<!-- Generated by graphviz version 12.2.1 (20241206.2353)
 -->
<!-- Title: top Pages: 1 -->
<svg width="5630pt" height="752pt"
 viewBox="0.00 0.00 5629.55 752.43" xmlns="http://www.w3.org/2000/svg" xmlns:xlink="http://www.w3.org/1999/xlink">
<g id="graph0" class="graph" transform="scale(1 1) rotate(0) translate(4 748.43)">
<title>top</title>
<polygon fill="white" stroke="none" points="-4,4 -4,-748.43 5625.55,-748.43 5625.55,4 -4,4"/>
<text text-anchor="middle" x="2810.78" y="-7.2" font-family="Times,serif" font-size="14.00">top</text>
<!-- n21 -->
<g id="node1" class="node">
<title>n21</title>
<polygon fill="none" stroke="black" points="107.84,-290.97 107.84,-305.88 76.26,-316.43 31.59,-316.43 0,-305.88 0,-290.97 31.59,-280.43 76.26,-280.43 107.84,-290.97"/>
<text text-anchor="middle" x="53.92" y="-293.38" font-family="Times,serif" font-size="14.00">input_data</text>
</g>
<!-- c31 -->
<g id="node8" class="node">
<title>c31</title>
<polygon fill="none" stroke="black" points="783.34,-628.93 783.34,-677.93 877.09,-677.93 877.09,-628.93 783.34,-628.93"/>
<text text-anchor="middle" x="796.22" y="-660.63" font-family="Times,serif" font-size="14.00">A</text>
<polyline fill="none" stroke="black" points="783.34,-653.43 809.09,-653.43"/>
<text text-anchor="middle" x="796.22" y="-636.13" font-family="Times,serif" font-size="14.00">B</text>
<polyline fill="none" stroke="black" points="809.09,-628.93 809.09,-677.93"/>
<text text-anchor="middle" x="830.22" y="-656.63" font-family="Times,serif" font-size="14.00">$5</text>
<text text-anchor="middle" x="830.22" y="-640.13" font-family="Times,serif" font-size="14.00">$add</text>
<polyline fill="none" stroke="black" points="851.34,-628.93 851.34,-677.93"/>
<text text-anchor="middle" x="864.22" y="-648.63" font-family="Times,serif" font-size="14.00">Y</text>
</g>
<!-- n21&#45;&gt;c31 -->
<g id="edge38" class="edge">
<title>n21:e&#45;&gt;c31:w</title>
<path fill="none" stroke="black" stroke-width="3" d="M107.84,-298.43C174.24,-298.43 108.76,-387.05 143.84,-443.43 198.84,-531.79 218.76,-594.43 322.84,-594.43 322.84,-594.43 322.84,-594.43 570.59,-594.43 666.41,-594.43 682.45,-660.22 772.04,-665.36"/>
<polygon fill="black" stroke="black" stroke-width="3" points="768.71,-668.77 778.8,-665.55 768.91,-661.77 768.71,-668.77"/>
</g>
<!-- c33 -->
<g id="node10" class="node">
<title>c33</title>
<polygon fill="none" stroke="black" points="407.84,-393.93 407.84,-442.93 502.34,-442.93 502.34,-393.93 407.84,-393.93"/>
<text text-anchor="middle" x="420.72" y="-425.63" font-family="Times,serif" font-size="14.00">A</text>
<polyline fill="none" stroke="black" points="407.84,-418.43 433.59,-418.43"/>
<text text-anchor="middle" x="420.72" y="-401.13" font-family="Times,serif" font-size="14.00">B</text>
<polyline fill="none" stroke="black" points="433.59,-393.93 433.59,-442.93"/>
<text text-anchor="middle" x="455.09" y="-421.63" font-family="Times,serif" font-size="14.00">$102</text>
<text text-anchor="middle" x="455.09" y="-405.13" font-family="Times,serif" font-size="14.00">$or</text>
<polyline fill="none" stroke="black" points="476.59,-393.93 476.59,-442.93"/>
<text text-anchor="middle" x="489.47" y="-413.63" font-family="Times,serif" font-size="14.00">Y</text>
</g>
<!-- n21&#45;&gt;c33 -->
<g id="edge39" class="edge">
<title>n21:e&#45;&gt;c33:w</title>
<path fill="none" stroke="black" stroke-width="3" d="M107.84,-298.43C165.65,-298.43 97.65,-388.66 143.84,-423.43 177.93,-449.08 197.23,-425.61 239.84,-423.43 310.85,-419.79 330.73,-407.56 396.43,-406.29"/>
<polygon fill="black" stroke="black" stroke-width="3" points="393.33,-409.81 403.3,-406.22 393.27,-402.82 393.33,-409.81"/>
</g>
<!-- c34 -->
<g id="node13" class="node">
<title>c34</title>
<polygon fill="none" stroke="black" points="1810.59,-298.93 1810.59,-347.93 1905.09,-347.93 1905.09,-298.93 1810.59,-298.93"/>
<text text-anchor="middle" x="1823.47" y="-330.63" font-family="Times,serif" font-size="14.00">A</text>
<polyline fill="none" stroke="black" points="1810.59,-323.43 1836.34,-323.43"/>
<text text-anchor="middle" x="1823.47" y="-306.13" font-family="Times,serif" font-size="14.00">B</text>
<polyline fill="none" stroke="black" points="1836.34,-298.93 1836.34,-347.93"/>
<text text-anchor="middle" x="1857.84" y="-326.63" font-family="Times,serif" font-size="14.00">$105</text>
<text text-anchor="middle" x="1857.84" y="-310.13" font-family="Times,serif" font-size="14.00">$or</text>
<polyline fill="none" stroke="black" points="1879.34,-298.93 1879.34,-347.93"/>
<text text-anchor="middle" x="1892.22" y="-318.63" font-family="Times,serif" font-size="14.00">Y</text>
</g>
<!-- n21&#45;&gt;c34 -->
<g id="edge40" class="edge">
<title>n21:e&#45;&gt;c34:w</title>
<path fill="none" stroke="black" stroke-width="3" d="M107.84,-298.43C132.1,-298.43 298.58,-260.43 322.84,-260.43 322.84,-260.43 322.84,-260.43 1092.59,-260.43 1266.36,-260.43 1307.95,-298.43 1481.72,-298.43 1481.72,-298.43 1481.72,-298.43 1621.84,-298.43 1701.98,-298.43 1724.44,-310.01 1799.17,-311.1"/>
<polygon fill="black" stroke="black" stroke-width="3" points="1796.03,-314.57 1806.05,-311.14 1796.08,-307.57 1796.03,-314.57"/>
</g>
<!-- c35 -->
<g id="node15" class="node">
<title>c35</title>
<polygon fill="none" stroke="black" points="2751.6,-336.93 2751.6,-385.93 2846.1,-385.93 2846.1,-336.93 2751.6,-336.93"/>
<text text-anchor="middle" x="2764.47" y="-368.63" font-family="Times,serif" font-size="14.00">A</text>
<polyline fill="none" stroke="black" points="2751.6,-361.43 2777.35,-361.43"/>
<text text-anchor="middle" x="2764.47" y="-344.13" font-family="Times,serif" font-size="14.00">B</text>
<polyline fill="none" stroke="black" points="2777.35,-336.93 2777.35,-385.93"/>
<text text-anchor="middle" x="2798.85" y="-364.63" font-family="Times,serif" font-size="14.00">$108</text>
<text text-anchor="middle" x="2798.85" y="-348.13" font-family="Times,serif" font-size="14.00">$and</text>
<polyline fill="none" stroke="black" points="2820.35,-336.93 2820.35,-385.93"/>
<text text-anchor="middle" x="2833.22" y="-356.63" font-family="Times,serif" font-size="14.00">Y</text>
</g>
<!-- n21&#45;&gt;c35 -->
<g id="edge41" class="edge">
<title>n21:e&#45;&gt;c35:w</title>
<path fill="none" stroke="black" stroke-width="3" d="M107.84,-298.43C178.96,-298.43 108.95,-554.46 143.84,-616.43 191.83,-701.65 225.04,-744.43 322.84,-744.43 322.84,-744.43 322.84,-744.43 962.09,-744.43 1432.3,-744.43 1545.22,-663.3 2003.59,-558.43 2335.92,-482.39 2404.3,-352.14 2739.09,-349.23"/>
<polygon fill="black" stroke="black" stroke-width="3" points="2736.07,-352.74 2746.06,-349.2 2736.04,-345.74 2736.07,-352.74"/>
</g>
<!-- c37 -->
<g id="node20" class="node">
<title>c37</title>
<polygon fill="none" stroke="black" points="4144.59,-190.93 4144.59,-239.93 4239.09,-239.93 4239.09,-190.93 4144.59,-190.93"/>
<text text-anchor="middle" x="4157.47" y="-222.63" font-family="Times,serif" font-size="14.00">A</text>
<polyline fill="none" stroke="black" points="4144.59,-215.43 4170.34,-215.43"/>
<text text-anchor="middle" x="4157.47" y="-198.13" font-family="Times,serif" font-size="14.00">B</text>
<polyline fill="none" stroke="black" points="4170.34,-190.93 4170.34,-239.93"/>
<text text-anchor="middle" x="4191.84" y="-218.63" font-family="Times,serif" font-size="14.00">$115</text>
<text text-anchor="middle" x="4191.84" y="-202.13" font-family="Times,serif" font-size="14.00">$and</text>
<polyline fill="none" stroke="black" points="4213.34,-190.93 4213.34,-239.93"/>
<text text-anchor="middle" x="4226.22" y="-210.63" font-family="Times,serif" font-size="14.00">Y</text>
</g>
<!-- n21&#45;&gt;c37 -->
<g id="edge42" class="edge">
<title>n21:e&#45;&gt;c37:w</title>
<path fill="none" stroke="black" stroke-width="3" d="M107.84,-298.43C180.73,-298.43 90.9,-188.52 143.84,-138.43 202.43,-82.99 242.18,-108.43 322.84,-108.43 322.84,-108.43 322.84,-108.43 3510.58,-108.43 3631.86,-108.43 3659.52,-146.43 3780.8,-146.43 3780.8,-146.43 3780.8,-146.43 3897.3,-146.43 4005.79,-146.43 4029.68,-199.36 4132.39,-202.98"/>
<polygon fill="black" stroke="black" stroke-width="3" points="4128.99,-206.42 4139.05,-203.1 4129.12,-199.42 4128.99,-206.42"/>
</g>
<!-- c39 -->
<g id="node24" class="node">
<title>c39</title>
<polygon fill="none" stroke="black" points="143.84,-364.93 143.84,-413.93 239.84,-413.93 239.84,-364.93 143.84,-364.93"/>
<text text-anchor="middle" x="156.72" y="-396.63" font-family="Times,serif" font-size="14.00">A</text>
<polyline fill="none" stroke="black" points="143.84,-389.43 169.59,-389.43"/>
<text text-anchor="middle" x="156.72" y="-372.13" font-family="Times,serif" font-size="14.00">B</text>
<polyline fill="none" stroke="black" points="169.59,-364.93 169.59,-413.93"/>
<text text-anchor="middle" x="191.84" y="-392.63" font-family="Times,serif" font-size="14.00">$1</text>
<text text-anchor="middle" x="191.84" y="-376.13" font-family="Times,serif" font-size="14.00">$mul</text>
<polyline fill="none" stroke="black" points="214.09,-364.93 214.09,-413.93"/>
<text text-anchor="middle" x="226.97" y="-384.63" font-family="Times,serif" font-size="14.00">Y</text>
</g>
<!-- n21&#45;&gt;c39 -->
<g id="edge43" class="edge">
<title>n21:e&#45;&gt;c39:w</title>
<path fill="none" stroke="black" stroke-width="3" d="M107.84,-298.43C151.88,-298.43 105.75,-383.22 132.89,-399.12"/>
<polygon fill="black" stroke="black" stroke-width="3" points="128.89,-401.79 139.42,-400.65 130.47,-394.97 128.89,-401.79"/>
</g>
<!-- n21&#45;&gt;c39 -->
<g id="edge44" class="edge">
<title>n21:e&#45;&gt;c39:w</title>
<path fill="none" stroke="black" stroke-width="3" d="M107.84,-298.43C141.66,-298.43 114.11,-359.26 133.07,-373.99"/>
<polygon fill="black" stroke="black" stroke-width="3" points="128.9,-376.41 139.49,-375.89 130.89,-369.7 128.9,-376.41"/>
</g>
<!-- c40 -->
<g id="node25" class="node">
<title>c40</title>
<polygon fill="none" stroke="black" points="275.84,-326.93 275.84,-375.93 371.84,-375.93 371.84,-326.93 275.84,-326.93"/>
<text text-anchor="middle" x="288.72" y="-358.63" font-family="Times,serif" font-size="14.00">A</text>
<polyline fill="none" stroke="black" points="275.84,-351.43 301.59,-351.43"/>
<text text-anchor="middle" x="288.72" y="-334.13" font-family="Times,serif" font-size="14.00">B</text>
<polyline fill="none" stroke="black" points="301.59,-326.93 301.59,-375.93"/>
<text text-anchor="middle" x="323.84" y="-354.63" font-family="Times,serif" font-size="14.00">$2</text>
<text text-anchor="middle" x="323.84" y="-338.13" font-family="Times,serif" font-size="14.00">$mul</text>
<polyline fill="none" stroke="black" points="346.09,-326.93 346.09,-375.93"/>
<text text-anchor="middle" x="358.97" y="-346.63" font-family="Times,serif" font-size="14.00">Y</text>
</g>
<!-- n21&#45;&gt;c40 -->
<g id="edge45" class="edge">
<title>n21:e&#45;&gt;c40:w</title>
<path fill="none" stroke="black" stroke-width="3" d="M107.84,-298.43C125.01,-298.43 127.37,-307.59 143.84,-312.43 197.46,-328.16 213.84,-337.83 264.49,-339.05"/>
<polygon fill="black" stroke="black" stroke-width="3" points="261.26,-342.51 271.3,-339.12 261.34,-335.51 261.26,-342.51"/>
</g>
<!-- c42 -->
<g id="node28" class="node">
<title>c42</title>
<polygon fill="none" stroke="black" points="1174.09,-553.93 1174.09,-602.93 1270.09,-602.93 1270.09,-553.93 1174.09,-553.93"/>
<text text-anchor="middle" x="1186.97" y="-585.63" font-family="Times,serif" font-size="14.00">A</text>
<polyline fill="none" stroke="black" points="1174.09,-578.43 1199.84,-578.43"/>
<text text-anchor="middle" x="1186.97" y="-561.13" font-family="Times,serif" font-size="14.00">B</text>
<polyline fill="none" stroke="black" points="1199.84,-553.93 1199.84,-602.93"/>
<text text-anchor="middle" x="1222.09" y="-581.63" font-family="Times,serif" font-size="14.00">$8</text>
<text text-anchor="middle" x="1222.09" y="-565.13" font-family="Times,serif" font-size="14.00">$mul</text>
<polyline fill="none" stroke="black" points="1244.34,-553.93 1244.34,-602.93"/>
<text text-anchor="middle" x="1257.22" y="-573.63" font-family="Times,serif" font-size="14.00">Y</text>
</g>
<!-- n21&#45;&gt;c42 -->
<g id="edge46" class="edge">
<title>n21:e&#45;&gt;c42:w</title>
<path fill="none" stroke="black" stroke-width="3" d="M107.84,-298.43C158.04,-298.43 121.35,-476.55 143.84,-521.43 195.09,-623.71 208.43,-706.43 322.84,-706.43 322.84,-706.43 322.84,-706.43 962.09,-706.43 1048.39,-706.43 1073.59,-681.76 1138.09,-624.43 1157.28,-607.37 1148.05,-577.63 1162.98,-568.75"/>
<polygon fill="black" stroke="black" stroke-width="3" points="1160.72,-572.87 1169.67,-567.2 1159.14,-566.05 1160.72,-572.87"/>
</g>
<!-- c43 -->
<g id="node29" class="node">
<title>c43</title>
<polygon fill="none" stroke="black" points="2039.59,-250.93 2039.59,-299.93 2135.59,-299.93 2135.59,-250.93 2039.59,-250.93"/>
<text text-anchor="middle" x="2052.47" y="-282.63" font-family="Times,serif" font-size="14.00">A</text>
<polyline fill="none" stroke="black" points="2039.59,-275.43 2065.34,-275.43"/>
<text text-anchor="middle" x="2052.47" y="-258.13" font-family="Times,serif" font-size="14.00">B</text>
<polyline fill="none" stroke="black" points="2065.34,-250.93 2065.34,-299.93"/>
<text text-anchor="middle" x="2087.59" y="-278.63" font-family="Times,serif" font-size="14.00">$19</text>
<text text-anchor="middle" x="2087.59" y="-262.13" font-family="Times,serif" font-size="14.00">$mul</text>
<polyline fill="none" stroke="black" points="2109.84,-250.93 2109.84,-299.93"/>
<text text-anchor="middle" x="2122.72" y="-270.63" font-family="Times,serif" font-size="14.00">Y</text>
</g>
<!-- n21&#45;&gt;c43 -->
<g id="edge47" class="edge">
<title>n21:e&#45;&gt;c43:w</title>
<path fill="none" stroke="black" stroke-width="3" d="M107.84,-298.43C128.11,-298.43 125.69,-279.45 143.84,-270.43 217.59,-233.75 240.47,-222.43 322.84,-222.43 322.84,-222.43 322.84,-222.43 1353.97,-222.43 1527.4,-222.43 1568.91,-260.43 1742.34,-260.43 1742.34,-260.43 1742.34,-260.43 1858.84,-260.43 1935.26,-260.43 1957.15,-262.91 2028.24,-263.16"/>
<polygon fill="black" stroke="black" stroke-width="3" points="2025.05,-266.65 2035.05,-263.17 2025.06,-259.65 2025.05,-266.65"/>
</g>
<!-- c44 -->
<g id="node31" class="node">
<title>c44</title>
<polygon fill="none" stroke="black" points="2171.59,-225.93 2171.59,-274.93 2267.59,-274.93 2267.59,-225.93 2171.59,-225.93"/>
<text text-anchor="middle" x="2184.47" y="-257.63" font-family="Times,serif" font-size="14.00">A</text>
<polyline fill="none" stroke="black" points="2171.59,-250.43 2197.34,-250.43"/>
<text text-anchor="middle" x="2184.47" y="-233.13" font-family="Times,serif" font-size="14.00">B</text>
<polyline fill="none" stroke="black" points="2197.34,-225.93 2197.34,-274.93"/>
<text text-anchor="middle" x="2219.59" y="-253.63" font-family="Times,serif" font-size="14.00">$20</text>
<text text-anchor="middle" x="2219.59" y="-237.13" font-family="Times,serif" font-size="14.00">$mul</text>
<polyline fill="none" stroke="black" points="2241.84,-225.93 2241.84,-274.93"/>
<text text-anchor="middle" x="2254.72" y="-245.63" font-family="Times,serif" font-size="14.00">Y</text>
</g>
<!-- n21&#45;&gt;c44 -->
<g id="edge48" class="edge">
<title>n21:e&#45;&gt;c44:w</title>
<path fill="none" stroke="black" stroke-width="3" d="M107.84,-298.43C143.62,-298.43 115.77,-248.61 143.84,-226.43 207.95,-175.76 241.12,-184.43 322.84,-184.43 322.84,-184.43 322.84,-184.43 1483.72,-184.43 1650.41,-184.43 1690.15,-222.43 1856.84,-222.43 1856.84,-222.43 1856.84,-222.43 1973.34,-222.43 2057.93,-222.43 2081.24,-236.85 2160.56,-238.09"/>
<polygon fill="black" stroke="black" stroke-width="3" points="2157.03,-241.56 2167.05,-238.14 2157.08,-234.56 2157.03,-241.56"/>
</g>
<!-- c45 -->
<g id="node32" class="node">
<title>c45</title>
<polygon fill="none" stroke="black" points="2303.59,-213.93 2303.59,-262.93 2399.59,-262.93 2399.59,-213.93 2303.59,-213.93"/>
<text text-anchor="middle" x="2316.47" y="-245.63" font-family="Times,serif" font-size="14.00">A</text>
<polyline fill="none" stroke="black" points="2303.59,-238.43 2329.34,-238.43"/>
<text text-anchor="middle" x="2316.47" y="-221.13" font-family="Times,serif" font-size="14.00">B</text>
<polyline fill="none" stroke="black" points="2329.34,-213.93 2329.34,-262.93"/>
<text text-anchor="middle" x="2351.59" y="-241.63" font-family="Times,serif" font-size="14.00">$21</text>
<text text-anchor="middle" x="2351.59" y="-225.13" font-family="Times,serif" font-size="14.00">$mul</text>
<polyline fill="none" stroke="black" points="2373.84,-213.93 2373.84,-262.93"/>
<text text-anchor="middle" x="2386.72" y="-233.63" font-family="Times,serif" font-size="14.00">Y</text>
</g>
<!-- n21&#45;&gt;c45 -->
<g id="edge49" class="edge">
<title>n21:e&#45;&gt;c45:w</title>
<path fill="none" stroke="black" stroke-width="3" d="M107.84,-298.43C162.67,-298.43 103.03,-217.04 143.84,-180.43 204.12,-126.35 241.86,-146.43 322.84,-146.43 322.84,-146.43 322.84,-146.43 1621.84,-146.43 1778.09,-146.43 1815.09,-184.43 1971.34,-184.43 1971.34,-184.43 1971.34,-184.43 2088.59,-184.43 2169.41,-184.43 2188.74,-198.74 2267.59,-216.43 2279.22,-219.03 2284.17,-222.93 2292.19,-224.92"/>
<polygon fill="black" stroke="black" stroke-width="3" points="2288.76,-228.06 2299.08,-225.68 2289.52,-221.1 2288.76,-228.06"/>
</g>
<!-- c46 -->
<g id="node34" class="node">
<title>c46</title>
<polygon fill="none" stroke="black" points="4596.24,-98.93 4596.24,-147.93 4692.24,-147.93 4692.24,-98.93 4596.24,-98.93"/>
<text text-anchor="middle" x="4609.11" y="-130.63" font-family="Times,serif" font-size="14.00">A</text>
<polyline fill="none" stroke="black" points="4596.24,-123.43 4621.99,-123.43"/>
<text text-anchor="middle" x="4609.11" y="-106.13" font-family="Times,serif" font-size="14.00">B</text>
<polyline fill="none" stroke="black" points="4621.99,-98.93 4621.99,-147.93"/>
<text text-anchor="middle" x="4644.24" y="-126.63" font-family="Times,serif" font-size="14.00">$26</text>
<text text-anchor="middle" x="4644.24" y="-110.13" font-family="Times,serif" font-size="14.00">$mul</text>
<polyline fill="none" stroke="black" points="4666.49,-98.93 4666.49,-147.93"/>
<text text-anchor="middle" x="4679.36" y="-118.63" font-family="Times,serif" font-size="14.00">Y</text>
</g>
<!-- n21&#45;&gt;c46 -->
<g id="edge50" class="edge">
<title>n21:e&#45;&gt;c46:w</title>
<path fill="none" stroke="black" stroke-width="3" d="M107.84,-298.43C198.16,-298.43 79.25,-161.55 143.84,-98.43 201.43,-42.14 242.32,-70.43 322.84,-70.43 322.84,-70.43 322.84,-70.43 3897.3,-70.43 4111.89,-70.43 4164.04,-108.43 4378.64,-108.43 4378.64,-108.43 4378.64,-108.43 4456.44,-108.43 4514.58,-108.43 4531.9,-110.83 4584.78,-111.14"/>
<polygon fill="black" stroke="black" stroke-width="3" points="4581.69,-114.63 4591.7,-111.16 4581.71,-107.63 4581.69,-114.63"/>
</g>
<!-- c47 -->
<g id="node36" class="node">
<title>c47</title>
<polygon fill="none" stroke="black" points="4728.24,-73.93 4728.24,-122.93 4824.24,-122.93 4824.24,-73.93 4728.24,-73.93"/>
<text text-anchor="middle" x="4741.11" y="-105.63" font-family="Times,serif" font-size="14.00">A</text>
<polyline fill="none" stroke="black" points="4728.24,-98.43 4753.99,-98.43"/>
<text text-anchor="middle" x="4741.11" y="-81.13" font-family="Times,serif" font-size="14.00">B</text>
<polyline fill="none" stroke="black" points="4753.99,-73.93 4753.99,-122.93"/>
<text text-anchor="middle" x="4776.24" y="-101.63" font-family="Times,serif" font-size="14.00">$27</text>
<text text-anchor="middle" x="4776.24" y="-85.13" font-family="Times,serif" font-size="14.00">$mul</text>
<polyline fill="none" stroke="black" points="4798.49,-73.93 4798.49,-122.93"/>
<text text-anchor="middle" x="4811.36" y="-93.63" font-family="Times,serif" font-size="14.00">Y</text>
</g>
<!-- n21&#45;&gt;c47 -->
<g id="edge51" class="edge">
<title>n21:e&#45;&gt;c47:w</title>
<path fill="none" stroke="black" stroke-width="3" d="M107.84,-298.43C161.55,-298.43 105.87,-97.41 143.84,-59.43 200.73,-2.53 242.39,-32.43 322.84,-32.43 322.84,-32.43 322.84,-32.43 4011.8,-32.43 4209.25,-32.43 4256.99,-70.43 4454.44,-70.43 4454.44,-70.43 4454.44,-70.43 4527.74,-70.43 4613.28,-70.43 4636.86,-84.85 4717.08,-86.09"/>
<polygon fill="black" stroke="black" stroke-width="3" points="4713.67,-89.57 4723.7,-86.14 4713.72,-82.57 4713.67,-89.57"/>
</g>
<!-- c49 -->
<g id="node38" class="node">
<title>c49</title>
<polygon fill="none" stroke="black" points="408.59,-292.93 408.59,-341.93 501.59,-341.93 501.59,-292.93 408.59,-292.93"/>
<text text-anchor="middle" x="421.47" y="-324.63" font-family="Times,serif" font-size="14.00">A</text>
<polyline fill="none" stroke="black" points="408.59,-317.43 434.34,-317.43"/>
<text text-anchor="middle" x="421.47" y="-300.13" font-family="Times,serif" font-size="14.00">B</text>
<polyline fill="none" stroke="black" points="434.34,-292.93 434.34,-341.93"/>
<text text-anchor="middle" x="455.09" y="-320.63" font-family="Times,serif" font-size="14.00">$3</text>
<text text-anchor="middle" x="455.09" y="-304.13" font-family="Times,serif" font-size="14.00">$sub</text>
<polyline fill="none" stroke="black" points="475.84,-292.93 475.84,-341.93"/>
<text text-anchor="middle" x="488.72" y="-312.63" font-family="Times,serif" font-size="14.00">Y</text>
</g>
<!-- n21&#45;&gt;c49 -->
<g id="edge52" class="edge">
<title>n21:e&#45;&gt;c49:w</title>
<path fill="none" stroke="black" stroke-width="3" d="M107.84,-298.43C237.3,-298.43 272.44,-304.79 396.37,-305.16"/>
<polygon fill="black" stroke="black" stroke-width="3" points="393.3,-308.65 403.3,-305.17 393.31,-301.65 393.3,-308.65"/>
</g>
<!-- n22 -->
<g id="node2" class="node">
<title>n22</title>
<polygon fill="none" stroke="black" points="5621.55,-68.97 5621.55,-83.88 5587.04,-94.43 5538.24,-94.43 5503.74,-83.88 5503.74,-68.97 5538.24,-58.43 5587.04,-58.43 5621.55,-68.97"/>
<text text-anchor="middle" x="5562.64" y="-71.38" font-family="Times,serif" font-size="14.00">output_data</text>
</g>
<!-- n23 -->
<g id="node3" class="node">
<title>n23</title>
<polygon fill="none" stroke="black" points="692.09,-494.43 636.84,-476.43 692.09,-458.43 747.34,-476.43 692.09,-494.43"/>
<text text-anchor="middle" x="692.09" y="-471.38" font-family="Times,serif" font-size="14.00">temp_0</text>
</g>
<!-- c30 -->
<g id="node7" class="node">
<title>c30</title>
<polygon fill="none" stroke="black" points="1435.84,-455.93 1435.84,-504.93 1529.59,-504.93 1529.59,-455.93 1435.84,-455.93"/>
<text text-anchor="middle" x="1448.72" y="-487.63" font-family="Times,serif" font-size="14.00">A</text>
<polyline fill="none" stroke="black" points="1435.84,-480.43 1461.59,-480.43"/>
<text text-anchor="middle" x="1448.72" y="-463.13" font-family="Times,serif" font-size="14.00">B</text>
<polyline fill="none" stroke="black" points="1461.59,-455.93 1461.59,-504.93"/>
<text text-anchor="middle" x="1482.72" y="-483.63" font-family="Times,serif" font-size="14.00">$10</text>
<text text-anchor="middle" x="1482.72" y="-467.13" font-family="Times,serif" font-size="14.00">$add</text>
<polyline fill="none" stroke="black" points="1503.84,-455.93 1503.84,-504.93"/>
<text text-anchor="middle" x="1516.72" y="-475.63" font-family="Times,serif" font-size="14.00">Y</text>
</g>
<!-- n23&#45;&gt;c30 -->
<g id="edge56" class="edge">
<title>n23:e&#45;&gt;c30:w</title>
<path fill="none" stroke="black" stroke-width="3" d="M747.34,-476.43C841.96,-476.43 865.47,-468.43 960.09,-468.43 960.09,-468.43 960.09,-468.43 1223.09,-468.43 1313.77,-468.43 1339.23,-468.2 1424.56,-468.18"/>
<polygon fill="black" stroke="black" stroke-width="3" points="1421.3,-471.68 1431.3,-468.18 1421.3,-464.68 1421.3,-471.68"/>
</g>
<!-- n23&#45;&gt;c31 -->
<g id="edge57" class="edge">
<title>n23:e&#45;&gt;c31:w</title>
<path fill="none" stroke="black" stroke-width="3" d="M747.34,-476.43C817.9,-476.43 721.09,-622.44 772.04,-639.55"/>
<polygon fill="black" stroke="black" stroke-width="3" points="768.45,-642.57 778.85,-640.53 769.45,-635.64 768.45,-642.57"/>
</g>
<!-- c32 -->
<g id="node9" class="node">
<title>c32</title>
<polygon fill="none" stroke="black" points="1306.09,-496.93 1306.09,-545.93 1399.84,-545.93 1399.84,-496.93 1306.09,-496.93"/>
<text text-anchor="middle" x="1318.97" y="-528.63" font-family="Times,serif" font-size="14.00">A</text>
<polyline fill="none" stroke="black" points="1306.09,-521.43 1331.84,-521.43"/>
<text text-anchor="middle" x="1318.97" y="-504.13" font-family="Times,serif" font-size="14.00">B</text>
<polyline fill="none" stroke="black" points="1331.84,-496.93 1331.84,-545.93"/>
<text text-anchor="middle" x="1352.97" y="-524.63" font-family="Times,serif" font-size="14.00">$9</text>
<text text-anchor="middle" x="1352.97" y="-508.13" font-family="Times,serif" font-size="14.00">$add</text>
<polyline fill="none" stroke="black" points="1374.09,-496.93 1374.09,-545.93"/>
<text text-anchor="middle" x="1386.97" y="-516.63" font-family="Times,serif" font-size="14.00">Y</text>
</g>
<!-- n23&#45;&gt;c32 -->
<g id="edge58" class="edge">
<title>n23:e&#45;&gt;c32:w</title>
<path fill="none" stroke="black" stroke-width="3" d="M747.34,-476.43C763.56,-476.43 767.3,-480 783.34,-482.43 861.73,-494.28 880.82,-506.43 960.09,-506.43 960.09,-506.43 960.09,-506.43 1092.59,-506.43 1183.6,-506.43 1209.13,-508.96 1294.76,-509.16"/>
<polygon fill="black" stroke="black" stroke-width="3" points="1291.55,-512.66 1301.55,-509.17 1291.56,-505.66 1291.55,-512.66"/>
</g>
<!-- c36 -->
<g id="node18" class="node">
<title>c36</title>
<polygon fill="none" stroke="black" points="3849.05,-202.93 3849.05,-251.93 3943.55,-251.93 3943.55,-202.93 3849.05,-202.93"/>
<text text-anchor="middle" x="3861.93" y="-234.63" font-family="Times,serif" font-size="14.00">A</text>
<polyline fill="none" stroke="black" points="3849.05,-227.43 3874.8,-227.43"/>
<text text-anchor="middle" x="3861.93" y="-210.13" font-family="Times,serif" font-size="14.00">B</text>
<polyline fill="none" stroke="black" points="3874.8,-202.93 3874.8,-251.93"/>
<text text-anchor="middle" x="3896.3" y="-230.63" font-family="Times,serif" font-size="14.00">$112</text>
<text text-anchor="middle" x="3896.3" y="-214.13" font-family="Times,serif" font-size="14.00">$or</text>
<polyline fill="none" stroke="black" points="3917.8,-202.93 3917.8,-251.93"/>
<text text-anchor="middle" x="3930.68" y="-222.63" font-family="Times,serif" font-size="14.00">Y</text>
</g>
<!-- n23&#45;&gt;c36 -->
<g id="edge59" class="edge">
<title>n23:e&#45;&gt;c36:w</title>
<path fill="none" stroke="black" stroke-width="3" d="M747.34,-476.43C803.02,-476.43 741.74,-393.44 783.34,-356.43 833.41,-311.87 1904.32,-146.43 1971.34,-146.43 1971.34,-146.43 1971.34,-146.43 2088.59,-146.43 2508.87,-146.43 2613.52,-174.43 3033.8,-174.43 3033.8,-174.43 3033.8,-174.43 3343.6,-174.43 3473.61,-174.43 3505.94,-184.43 3635.95,-184.43 3635.95,-184.43 3635.95,-184.43 3713.75,-184.43 3771.44,-184.43 3785.64,-211.34 3837.72,-214.81"/>
<polygon fill="black" stroke="black" stroke-width="3" points="3834.41,-218.2 3844.51,-215.03 3834.63,-211.21 3834.41,-218.2"/>
</g>
<!-- x8 -->
<g id="node27" class="node">
<title>x8</title>
<path fill="none" stroke="black" d="M810.97,-573.43C810.97,-573.43 849.47,-573.43 849.47,-573.43 855.47,-573.43 861.47,-579.43 861.47,-585.43 861.47,-585.43 861.47,-597.43 861.47,-597.43 861.47,-603.43 855.47,-609.43 849.47,-609.43 849.47,-609.43 810.97,-609.43 810.97,-609.43 804.97,-609.43 798.97,-603.43 798.97,-597.43 798.97,-597.43 798.97,-585.43 798.97,-585.43 798.97,-579.43 804.97,-573.43 810.97,-573.43"/>
<text text-anchor="middle" x="830.22" y="-586.63" font-family="Times,serif" font-size="14.00">2:0 &#45; 2:0</text>
</g>
<!-- n23&#45;&gt;x8 -->
<g id="edge62" class="edge">
<title>n23:e&#45;&gt;x8:w</title>
<path fill="none" stroke="black" stroke-width="3" d="M747.34,-476.43C798.92,-476.43 750.88,-574.37 786.89,-589.68"/>
<polygon fill="black" stroke="black" stroke-width="3" points="783.04,-592.54 793.5,-590.87 784.28,-585.65 783.04,-592.54"/>
</g>
<!-- c50 -->
<g id="node40" class="node">
<title>c50</title>
<polygon fill="none" stroke="black" points="1045.09,-565.93 1045.09,-614.93 1138.09,-614.93 1138.09,-565.93 1045.09,-565.93"/>
<text text-anchor="middle" x="1057.97" y="-597.63" font-family="Times,serif" font-size="14.00">A</text>
<polyline fill="none" stroke="black" points="1045.09,-590.43 1070.84,-590.43"/>
<text text-anchor="middle" x="1057.97" y="-573.13" font-family="Times,serif" font-size="14.00">B</text>
<polyline fill="none" stroke="black" points="1070.84,-565.93 1070.84,-614.93"/>
<text text-anchor="middle" x="1091.59" y="-593.63" font-family="Times,serif" font-size="14.00">$7</text>
<text text-anchor="middle" x="1091.59" y="-577.13" font-family="Times,serif" font-size="14.00">$sub</text>
<polyline fill="none" stroke="black" points="1112.34,-565.93 1112.34,-614.93"/>
<text text-anchor="middle" x="1125.22" y="-585.63" font-family="Times,serif" font-size="14.00">Y</text>
</g>
<!-- n23&#45;&gt;c50 -->
<g id="edge60" class="edge">
<title>n23:e&#45;&gt;c50:w</title>
<path fill="none" stroke="black" stroke-width="3" d="M747.34,-476.43C772.61,-476.43 761.79,-507.23 783.34,-520.43 870.9,-574.04 909.04,-546.41 1009.09,-569.43 1020.63,-572.08 1025.67,-575.44 1033.71,-577.12"/>
<polygon fill="black" stroke="black" stroke-width="3" points="1030.29,-580.32 1040.57,-577.76 1030.94,-573.35 1030.29,-580.32"/>
</g>
<!-- x21 -->
<g id="node50" class="node">
<title>x21</title>
<path fill="none" stroke="black" d="M810.97,-365.43C810.97,-365.43 849.47,-365.43 849.47,-365.43 855.47,-365.43 861.47,-371.43 861.47,-377.43 861.47,-377.43 861.47,-389.43 861.47,-389.43 861.47,-395.43 855.47,-401.43 849.47,-401.43 849.47,-401.43 810.97,-401.43 810.97,-401.43 804.97,-401.43 798.97,-395.43 798.97,-389.43 798.97,-389.43 798.97,-377.43 798.97,-377.43 798.97,-371.43 804.97,-365.43 810.97,-365.43"/>
<text text-anchor="middle" x="830.22" y="-378.63" font-family="Times,serif" font-size="14.00">6:6 &#45; 0:0</text>
</g>
<!-- n23&#45;&gt;x21 -->
<g id="edge61" class="edge">
<title>n23:e&#45;&gt;x21:w</title>
<path fill="none" stroke="black" d="M747.34,-476.43C789.9,-476.43 758.33,-400.25 786.99,-385.97"/>
<polygon fill="black" stroke="black" points="787.41,-389.46 796.49,-383.99 785.98,-382.6 787.41,-389.46"/>
</g>
<!-- n24 -->
<g id="node4" class="node">
<title>n24</title>
<polygon fill="none" stroke="black" points="1620.84,-467.43 1565.59,-449.43 1620.84,-431.43 1676.09,-449.43 1620.84,-467.43"/>
<text text-anchor="middle" x="1620.84" y="-444.38" font-family="Times,serif" font-size="14.00">temp_1</text>
</g>
<!-- x2 -->
<g id="node14" class="node">
<title>x2</title>
<path fill="none" stroke="black" d="M1724.09,-327.43C1724.09,-327.43 1762.59,-327.43 1762.59,-327.43 1768.59,-327.43 1774.59,-333.43 1774.59,-339.43 1774.59,-339.43 1774.59,-351.43 1774.59,-351.43 1774.59,-357.43 1768.59,-363.43 1762.59,-363.43 1762.59,-363.43 1724.09,-363.43 1724.09,-363.43 1718.09,-363.43 1712.09,-357.43 1712.09,-351.43 1712.09,-351.43 1712.09,-339.43 1712.09,-339.43 1712.09,-333.43 1718.09,-327.43 1724.09,-327.43"/>
<text text-anchor="middle" x="1743.34" y="-340.63" font-family="Times,serif" font-size="14.00">5:0 &#45; 5:0</text>
</g>
<!-- n24&#45;&gt;x2 -->
<g id="edge67" class="edge">
<title>n24:e&#45;&gt;x2:w</title>
<path fill="none" stroke="black" stroke-width="3" d="M1676.09,-449.43C1720.33,-449.43 1673.87,-364.22 1701.1,-348.24"/>
<polygon fill="black" stroke="black" stroke-width="3" points="1698.73,-352.39 1707.67,-346.71 1697.14,-345.57 1698.73,-352.39"/>
</g>
<!-- c38 -->
<g id="node23" class="node">
<title>c38</title>
<polygon fill="none" stroke="black" points="5130.49,-39.93 5130.49,-88.93 5218.24,-88.93 5218.24,-39.93 5130.49,-39.93"/>
<text text-anchor="middle" x="5143.36" y="-71.63" font-family="Times,serif" font-size="14.00">A</text>
<polyline fill="none" stroke="black" points="5130.49,-64.43 5156.24,-64.43"/>
<text text-anchor="middle" x="5143.36" y="-47.13" font-family="Times,serif" font-size="14.00">B</text>
<polyline fill="none" stroke="black" points="5156.24,-39.93 5156.24,-88.93"/>
<text text-anchor="middle" x="5174.36" y="-67.63" font-family="Times,serif" font-size="14.00">$52</text>
<text text-anchor="middle" x="5174.36" y="-51.13" font-family="Times,serif" font-size="14.00">$lt</text>
<polyline fill="none" stroke="black" points="5192.49,-39.93 5192.49,-88.93"/>
<text text-anchor="middle" x="5205.36" y="-59.63" font-family="Times,serif" font-size="14.00">Y</text>
</g>
<!-- n24&#45;&gt;c38 -->
<g id="edge64" class="edge">
<title>n24:e&#45;&gt;c38:w</title>
<path fill="none" stroke="black" stroke-width="3" d="M1676.09,-449.43C1743.94,-449.43 2818.02,-287.2 2885,-276.43 2934.93,-268.4 2948.43,-270.48 2997,-256.43 3046.83,-242.01 3053.23,-212.43 3105.1,-212.43 3105.1,-212.43 3105.1,-212.43 3343.6,-212.43 3543.33,-212.43 3581.07,-108.43 3780.8,-108.43 3780.8,-108.43 3780.8,-108.43 3897.3,-108.43 4147.21,-108.43 4204.53,-32.43 4454.44,-32.43 4454.44,-32.43 4454.44,-32.43 4916.49,-32.43 5008.08,-32.43 5032.96,-50.59 5119.09,-52.08"/>
<polygon fill="black" stroke="black" stroke-width="3" points="5115.92,-55.55 5125.95,-52.14 5115.98,-48.55 5115.92,-55.55"/>
</g>
<!-- x9 -->
<g id="node30" class="node">
<title>x9</title>
<path fill="none" stroke="black" d="M1953.09,-310.93C1953.09,-310.93 1991.59,-310.93 1991.59,-310.93 1997.59,-310.93 2003.59,-316.93 2003.59,-322.93 2003.59,-322.93 2003.59,-347.93 2003.59,-347.93 2003.59,-353.93 1997.59,-359.93 1991.59,-359.93 1991.59,-359.93 1953.09,-359.93 1953.09,-359.93 1947.09,-359.93 1941.09,-353.93 1941.09,-347.93 1941.09,-347.93 1941.09,-322.93 1941.09,-322.93 1941.09,-316.93 1947.09,-310.93 1953.09,-310.93"/>
<text text-anchor="middle" x="1972.34" y="-342.63" font-family="Times,serif" font-size="14.00">7:6 &#45; 7:6</text>
<polyline fill="none" stroke="black" points="1941.09,-335.43 2003.59,-335.43"/>
<text text-anchor="middle" x="1972.34" y="-318.13" font-family="Times,serif" font-size="14.00">5:0 &#45; 5:0</text>
</g>
<!-- n24&#45;&gt;x9 -->
<g id="edge68" class="edge">
<title>n24:e&#45;&gt;x9:w</title>
<path fill="none" stroke="black" stroke-width="3" d="M1676.09,-449.43C1697.8,-449.43 1693.22,-427.15 1712.09,-416.43 1717.17,-413.54 1885.09,-362.62 1930.19,-350.33"/>
<polygon fill="black" stroke="black" stroke-width="3" points="1927.79,-354.52 1936.68,-348.75 1926.14,-347.71 1927.79,-354.52"/>
</g>
<!-- c48 -->
<g id="node37" class="node">
<title>c48</title>
<polygon fill="none" stroke="black" points="5006.74,-85.93 5006.74,-134.93 5094.49,-134.93 5094.49,-85.93 5006.74,-85.93"/>
<text text-anchor="middle" x="5019.61" y="-117.63" font-family="Times,serif" font-size="14.00">A</text>
<polyline fill="none" stroke="black" points="5006.74,-110.43 5032.49,-110.43"/>
<text text-anchor="middle" x="5019.61" y="-93.13" font-family="Times,serif" font-size="14.00">B</text>
<polyline fill="none" stroke="black" points="5032.49,-85.93 5032.49,-134.93"/>
<text text-anchor="middle" x="5050.61" y="-113.63" font-family="Times,serif" font-size="14.00">$51</text>
<text text-anchor="middle" x="5050.61" y="-97.13" font-family="Times,serif" font-size="14.00">$ne</text>
<polyline fill="none" stroke="black" points="5068.74,-85.93 5068.74,-134.93"/>
<text text-anchor="middle" x="5081.61" y="-105.63" font-family="Times,serif" font-size="14.00">Y</text>
</g>
<!-- n24&#45;&gt;c48 -->
<g id="edge65" class="edge">
<title>n24:e&#45;&gt;c48:w</title>
<path fill="none" stroke="black" stroke-width="3" d="M1676.09,-449.43C1694.4,-449.43 1695.97,-460.77 1712.09,-469.43 1775.94,-503.69 1784.39,-544.43 1856.84,-544.43 1856.84,-544.43 1856.84,-544.43 4777.24,-544.43 4986.68,-544.43 4800.52,-138.18 4995.28,-123.11"/>
<polygon fill="black" stroke="black" stroke-width="3" points="4992.34,-126.72 5002.2,-122.85 4992.08,-119.72 4992.34,-126.72"/>
</g>
<!-- c51 -->
<g id="node41" class="node">
<title>c51</title>
<polygon fill="none" stroke="black" points="3175.6,-361.93 3175.6,-410.93 3268.6,-410.93 3268.6,-361.93 3175.6,-361.93"/>
<text text-anchor="middle" x="3188.48" y="-393.63" font-family="Times,serif" font-size="14.00">A</text>
<polyline fill="none" stroke="black" points="3175.6,-386.43 3201.35,-386.43"/>
<text text-anchor="middle" x="3188.48" y="-369.13" font-family="Times,serif" font-size="14.00">B</text>
<polyline fill="none" stroke="black" points="3201.35,-361.93 3201.35,-410.93"/>
<text text-anchor="middle" x="3222.1" y="-389.63" font-family="Times,serif" font-size="14.00">$23</text>
<text text-anchor="middle" x="3222.1" y="-373.13" font-family="Times,serif" font-size="14.00">$sub</text>
<polyline fill="none" stroke="black" points="3242.85,-361.93 3242.85,-410.93"/>
<text text-anchor="middle" x="3255.73" y="-381.63" font-family="Times,serif" font-size="14.00">Y</text>
</g>
<!-- n24&#45;&gt;c51 -->
<g id="edge66" class="edge">
<title>n24:e&#45;&gt;c51:w</title>
<path fill="none" stroke="black" stroke-width="3" d="M1676.09,-449.43C1756.87,-449.43 1776.07,-468.43 1856.84,-468.43 1856.84,-468.43 1856.84,-468.43 3035.8,-468.43 3084.63,-468.43 3101.5,-462.96 3139.6,-432.43 3159.64,-416.37 3149.83,-385.94 3164.55,-376.82"/>
<polygon fill="black" stroke="black" stroke-width="3" points="3162.28,-380.97 3171.19,-375.23 3160.65,-374.16 3162.28,-380.97"/>
</g>
<!-- n25 -->
<g id="node5" class="node">
<title>n25</title>
<polygon fill="none" stroke="black" points="4915.49,-116.43 4860.24,-98.43 4915.49,-80.43 4970.74,-98.43 4915.49,-116.43"/>
<text text-anchor="middle" x="4915.49" y="-93.38" font-family="Times,serif" font-size="14.00">temp_3</text>
</g>
<!-- n25&#45;&gt;c48 -->
<g id="edge70" class="edge">
<title>n25:e&#45;&gt;c48:w</title>
<path fill="none" stroke="black" stroke-width="3" d="M4970.74,-98.43C4982.11,-98.43 4987.42,-98.3 4995.29,-98.23"/>
<polygon fill="black" stroke="black" stroke-width="3" points="4992.21,-101.74 5002.2,-98.2 4992.18,-94.74 4992.21,-101.74"/>
</g>
<!-- n26 -->
<g id="node6" class="node">
<title>n26</title>
<polygon fill="none" stroke="black" points="5309.49,-82.43 5254.24,-64.43 5309.49,-46.43 5364.74,-64.43 5309.49,-82.43"/>
<text text-anchor="middle" x="5309.49" y="-59.38" font-family="Times,serif" font-size="14.00">temp_6</text>
</g>
<!-- x25 -->
<g id="node54" class="node">
<title>x25</title>
<path fill="none" stroke="black" d="M5412.74,-51.93C5412.74,-51.93 5455.74,-51.93 5455.74,-51.93 5461.74,-51.93 5467.74,-57.93 5467.74,-63.93 5467.74,-63.93 5467.74,-88.93 5467.74,-88.93 5467.74,-94.93 5461.74,-100.93 5455.74,-100.93 5455.74,-100.93 5412.74,-100.93 5412.74,-100.93 5406.74,-100.93 5400.74,-94.93 5400.74,-88.93 5400.74,-88.93 5400.74,-63.93 5400.74,-63.93 5400.74,-57.93 5406.74,-51.93 5412.74,-51.93"/>
<text text-anchor="middle" x="5434.24" y="-83.63" font-family="Times,serif" font-size="14.00">0 &#45;&gt; 19:1</text>
<polyline fill="none" stroke="black" points="5400.74,-76.43 5467.74,-76.43"/>
<text text-anchor="middle" x="5434.24" y="-59.13" font-family="Times,serif" font-size="14.00">0:0 &#45; 0:0</text>
</g>
<!-- n26&#45;&gt;x25 -->
<g id="edge72" class="edge">
<title>n26:e&#45;&gt;x25:w</title>
<path fill="none" stroke="black" d="M5364.74,-64.43C5376.11,-64.43 5381.42,-64.3 5389.29,-64.23"/>
<polygon fill="black" stroke="black" points="5389.24,-67.73 5399.22,-64.18 5389.21,-60.73 5389.24,-67.73"/>
</g>
<!-- c30&#45;&gt;n24 -->
<g id="edge63" class="edge">
<title>c30:e&#45;&gt;n24:w</title>
<path fill="none" stroke="black" stroke-width="3" d="M1529.59,-480.68C1546.14,-480.68 1545.87,-461.6 1555.07,-453.26"/>
<polygon fill="black" stroke="black" stroke-width="3" points="1553.13,-457.69 1561.33,-450.98 1550.73,-451.11 1553.13,-457.69"/>
</g>
<!-- c41 -->
<g id="node26" class="node">
<title>c41</title>
<polygon fill="none" stroke="black" points="913.09,-578.93 913.09,-627.93 1009.09,-627.93 1009.09,-578.93 913.09,-578.93"/>
<text text-anchor="middle" x="925.97" y="-610.63" font-family="Times,serif" font-size="14.00">A</text>
<polyline fill="none" stroke="black" points="913.09,-603.43 938.84,-603.43"/>
<text text-anchor="middle" x="925.97" y="-586.13" font-family="Times,serif" font-size="14.00">B</text>
<polyline fill="none" stroke="black" points="938.84,-578.93 938.84,-627.93"/>
<text text-anchor="middle" x="961.09" y="-606.63" font-family="Times,serif" font-size="14.00">$6</text>
<text text-anchor="middle" x="961.09" y="-590.13" font-family="Times,serif" font-size="14.00">$mul</text>
<polyline fill="none" stroke="black" points="983.34,-578.93 983.34,-627.93"/>
<text text-anchor="middle" x="996.22" y="-598.63" font-family="Times,serif" font-size="14.00">Y</text>
</g>
<!-- c31&#45;&gt;c41 -->
<g id="edge19" class="edge">
<title>c31:e&#45;&gt;c41:w</title>
<path fill="none" stroke="black" stroke-width="3" d="M877.09,-653.68C895.63,-653.68 892.71,-629.55 902.53,-619.74"/>
<polygon fill="black" stroke="black" stroke-width="3" points="900.78,-624.17 908.85,-617.31 898.26,-617.64 900.78,-624.17"/>
</g>
<!-- c32&#45;&gt;c30 -->
<g id="edge34" class="edge">
<title>c32:e&#45;&gt;c30:w</title>
<path fill="none" stroke="black" stroke-width="3" d="M1399.84,-521.68C1415.73,-521.68 1416.29,-504.33 1425.23,-496.47"/>
<polygon fill="black" stroke="black" stroke-width="3" points="1423.33,-500.86 1431.57,-494.2 1420.97,-494.27 1423.33,-500.86"/>
</g>
<!-- x1 -->
<g id="node12" class="node">
<title>x1</title>
<path fill="none" stroke="black" d="M550.34,-365.43C550.34,-365.43 588.84,-365.43 588.84,-365.43 594.84,-365.43 600.84,-371.43 600.84,-377.43 600.84,-377.43 600.84,-389.43 600.84,-389.43 600.84,-395.43 594.84,-401.43 588.84,-401.43 588.84,-401.43 550.34,-401.43 550.34,-401.43 544.34,-401.43 538.34,-395.43 538.34,-389.43 538.34,-389.43 538.34,-377.43 538.34,-377.43 538.34,-371.43 544.34,-365.43 550.34,-365.43"/>
<text text-anchor="middle" x="569.59" y="-378.63" font-family="Times,serif" font-size="14.00">5:0 &#45; 5:0</text>
</g>
<!-- c33&#45;&gt;x1 -->
<g id="edge2" class="edge">
<title>c33:e&#45;&gt;x1:w</title>
<path fill="none" stroke="black" stroke-width="3" d="M514.01,-413.48C519.71,-406.73 521.05,-395.06 526.85,-388.42"/>
<polygon fill="none" stroke="black" stroke-width="3" points="515.77,-412.69 511.92,-418.79 504.81,-417.58 508.66,-411.48 515.77,-412.69"/>
<polygon fill="none" stroke="black" stroke-width="3" points="524.86,-389.29 528.76,-383.23 535.86,-384.5 531.95,-390.56 524.86,-389.29"/>
</g>
<!-- x0 -->
<g id="node11" class="node">
<title>x0</title>
<path fill="none" stroke="black" d="M1202.84,-384.43C1202.84,-384.43 1241.34,-384.43 1241.34,-384.43 1247.34,-384.43 1253.34,-390.43 1253.34,-396.43 1253.34,-396.43 1253.34,-408.43 1253.34,-408.43 1253.34,-414.43 1247.34,-420.43 1241.34,-420.43 1241.34,-420.43 1202.84,-420.43 1202.84,-420.43 1196.84,-420.43 1190.84,-414.43 1190.84,-408.43 1190.84,-408.43 1190.84,-396.43 1190.84,-396.43 1190.84,-390.43 1196.84,-384.43 1202.84,-384.43"/>
<text text-anchor="middle" x="1222.09" y="-397.63" font-family="Times,serif" font-size="14.00">5:0 &#45; 5:0</text>
</g>
<!-- x0&#45;&gt;c33 -->
<g id="edge1" class="edge">
<title>x0:e&#45;&gt;c33:w</title>
<path fill="none" stroke="black" stroke-width="3" d="M1257.5,-414.85C1256.45,-417.13 1255,-419.31 1253.34,-420.93 1207.06,-466.22 1026.85,-430.43 962.09,-430.43 691.09,-430.43 691.09,-430.43 691.09,-430.43 607,-430.43 586.38,-440.54 502.34,-443.43 464.14,-444.74 442.74,-467.28 415.2,-440.21"/>
<polygon fill="none" stroke="black" stroke-width="3" points="1257.97,-416.68 1252.61,-411.85 1255.01,-405.05 1260.37,-409.88 1257.97,-416.68"/>
<polygon fill="none" stroke="black" stroke-width="3" points="416.53,-441.73 409.57,-439.86 408.62,-432.71 415.59,-434.59 416.53,-441.73"/>
</g>
<!-- x1&#45;&gt;n23 -->
<g id="edge55" class="edge">
<title>x1:e&#45;&gt;n23:w</title>
<path fill="none" stroke="black" stroke-width="3" d="M600.84,-383.68C640.4,-383.68 602.61,-457.89 625.85,-473.55"/>
<polygon fill="black" stroke="black" stroke-width="3" points="621.89,-476.13 632.45,-475.28 623.66,-469.36 621.89,-476.13"/>
</g>
<!-- c34&#45;&gt;x9 -->
<g id="edge79" class="edge">
<title>c34:e&#45;&gt;x9:w</title>
<path fill="none" stroke="black" stroke-width="3" d="M1905.09,-323.68C1916.47,-323.68 1921.78,-323.42 1929.65,-323.28"/>
<polygon fill="black" stroke="black" stroke-width="3" points="1926.58,-326.81 1936.55,-323.22 1926.52,-319.81 1926.58,-326.81"/>
</g>
<!-- x2&#45;&gt;c34 -->
<g id="edge3" class="edge">
<title>x2:e&#45;&gt;c34:w</title>
<path fill="none" stroke="black" stroke-width="3" d="M1786.95,-343.17C1790.85,-341.64 1794.06,-339.62 1797.93,-338.06"/>
<polygon fill="none" stroke="black" stroke-width="3" points="1789.06,-342.78 1783.88,-347.79 1777.25,-344.94 1782.43,-339.93 1789.06,-342.78"/>
<polygon fill="none" stroke="black" stroke-width="3" points="1796.14,-338.4 1801.3,-333.36 1807.94,-336.18 1802.78,-341.22 1796.14,-338.4"/>
</g>
<!-- x4 -->
<g id="node17" class="node">
<title>x4</title>
<path fill="none" stroke="black" d="M2939.75,-345.43C2939.75,-345.43 2978.25,-345.43 2978.25,-345.43 2984.25,-345.43 2990.25,-351.43 2990.25,-357.43 2990.25,-357.43 2990.25,-369.43 2990.25,-369.43 2990.25,-375.43 2984.25,-381.43 2978.25,-381.43 2978.25,-381.43 2939.75,-381.43 2939.75,-381.43 2933.75,-381.43 2927.75,-375.43 2927.75,-369.43 2927.75,-369.43 2927.75,-357.43 2927.75,-357.43 2927.75,-351.43 2933.75,-345.43 2939.75,-345.43"/>
<text text-anchor="middle" x="2959" y="-358.63" font-family="Times,serif" font-size="14.00">5:0 &#45; 5:0</text>
</g>
<!-- c35&#45;&gt;x4 -->
<g id="edge5" class="edge">
<title>c35:e&#45;&gt;x4:w</title>
<path fill="none" stroke="black" stroke-width="3" d="M2859.92,-361.76C2881.45,-362.06 2892.44,-363.05 2913.99,-363.34"/>
<polygon fill="none" stroke="black" stroke-width="3" points="2861.8,-361.77 2855.77,-365.73 2849.8,-361.69 2855.83,-357.73 2861.8,-361.77"/>
<polygon fill="none" stroke="black" stroke-width="3" points="2912.05,-363.33 2918.07,-359.37 2924.05,-363.41 2918.02,-367.37 2912.05,-363.33"/>
</g>
<!-- x3 -->
<g id="node16" class="node">
<title>x3</title>
<path fill="none" stroke="black" d="M2619.44,-403.43C2619.44,-403.43 2657.94,-403.43 2657.94,-403.43 2663.94,-403.43 2669.94,-409.43 2669.94,-415.43 2669.94,-415.43 2669.94,-427.43 2669.94,-427.43 2669.94,-433.43 2663.94,-439.43 2657.94,-439.43 2657.94,-439.43 2619.44,-439.43 2619.44,-439.43 2613.44,-439.43 2607.44,-433.43 2607.44,-427.43 2607.44,-427.43 2607.44,-415.43 2607.44,-415.43 2607.44,-409.43 2613.44,-403.43 2619.44,-403.43"/>
<text text-anchor="middle" x="2638.69" y="-416.63" font-family="Times,serif" font-size="14.00">5:0 &#45; 5:0</text>
</g>
<!-- x3&#45;&gt;c35 -->
<g id="edge4" class="edge">
<title>x3:e&#45;&gt;c35:w</title>
<path fill="none" stroke="black" stroke-width="3" d="M2683.78,-419.61C2708.38,-412.05 2713.16,-383.06 2737.76,-375.49"/>
<polygon fill="none" stroke="black" stroke-width="3" points="2685.5,-419.37 2680.12,-424.17 2673.62,-421.05 2679,-416.25 2685.5,-419.37"/>
<polygon fill="none" stroke="black" stroke-width="3" points="2736.04,-375.74 2741.42,-370.93 2747.92,-374.06 2742.54,-378.86 2736.04,-375.74"/>
</g>
<!-- n3 -->
<g id="node58" class="node">
<title>n3</title>
<ellipse fill="black" stroke="black" cx="3034.8" cy="-386.43" rx="1.8" ry="1.8"/>
</g>
<!-- x4&#45;&gt;n3 -->
<g id="edge74" class="edge">
<title>x4:e&#45;&gt;n3:w</title>
<path fill="none" stroke="black" stroke-width="3" d="M2991.25,-363.68C3007.93,-363.68 3011.12,-377.84 3022.11,-383.82"/>
<polygon fill="black" stroke="black" stroke-width="3" points="3018.05,-386.44 3028.59,-385.37 3019.68,-379.63 3018.05,-386.44"/>
</g>
<!-- x6 -->
<g id="node21" class="node">
<title>x6</title>
<path fill="none" stroke="black" d="M3991.55,-209.43C3991.55,-209.43 4030.05,-209.43 4030.05,-209.43 4036.05,-209.43 4042.05,-215.43 4042.05,-221.43 4042.05,-221.43 4042.05,-233.43 4042.05,-233.43 4042.05,-239.43 4036.05,-245.43 4030.05,-245.43 4030.05,-245.43 3991.55,-245.43 3991.55,-245.43 3985.55,-245.43 3979.55,-239.43 3979.55,-233.43 3979.55,-233.43 3979.55,-221.43 3979.55,-221.43 3979.55,-215.43 3985.55,-209.43 3991.55,-209.43"/>
<text text-anchor="middle" x="4010.8" y="-222.63" font-family="Times,serif" font-size="14.00">5:0 &#45; 5:0</text>
</g>
<!-- c36&#45;&gt;x6 -->
<g id="edge80" class="edge">
<title>c36:e&#45;&gt;x6:w</title>
<path fill="none" stroke="black" stroke-width="3" d="M3943.55,-227.68C3954.93,-227.68 3960.24,-227.68 3968.11,-227.68"/>
<polygon fill="black" stroke="black" stroke-width="3" points="3965.01,-231.18 3975.01,-227.68 3965.01,-224.18 3965.01,-231.18"/>
</g>
<!-- x5 -->
<g id="node19" class="node">
<title>x5</title>
<path fill="none" stroke="black" d="M3762.55,-230.43C3762.55,-230.43 3801.05,-230.43 3801.05,-230.43 3807.05,-230.43 3813.05,-236.43 3813.05,-242.43 3813.05,-242.43 3813.05,-254.43 3813.05,-254.43 3813.05,-260.43 3807.05,-266.43 3801.05,-266.43 3801.05,-266.43 3762.55,-266.43 3762.55,-266.43 3756.55,-266.43 3750.55,-260.43 3750.55,-254.43 3750.55,-254.43 3750.55,-242.43 3750.55,-242.43 3750.55,-236.43 3756.55,-230.43 3762.55,-230.43"/>
<text text-anchor="middle" x="3781.8" y="-243.63" font-family="Times,serif" font-size="14.00">6:0 &#45; 6:0</text>
</g>
<!-- x5&#45;&gt;c36 -->
<g id="edge6" class="edge">
<title>x5:e&#45;&gt;c36:w</title>
<path fill="none" stroke="black" stroke-width="3" d="M3825.88,-246.22C3829.54,-244.88 3832.64,-243.18 3836.31,-241.85"/>
<polygon fill="none" stroke="black" stroke-width="3" points="3827.54,-245.93 3822.31,-250.89 3815.72,-247.97 3820.95,-243.01 3827.54,-245.93"/>
<polygon fill="none" stroke="black" stroke-width="3" points="3834.56,-242.15 3839.8,-237.2 3846.39,-240.13 3841.15,-245.09 3834.56,-242.15"/>
</g>
<!-- x7 -->
<g id="node22" class="node">
<title>x7</title>
<path fill="none" stroke="black" d="M4360.39,-194.43C4360.39,-194.43 4398.89,-194.43 4398.89,-194.43 4404.89,-194.43 4410.89,-200.43 4410.89,-206.43 4410.89,-206.43 4410.89,-218.43 4410.89,-218.43 4410.89,-224.43 4404.89,-230.43 4398.89,-230.43 4398.89,-230.43 4360.39,-230.43 4360.39,-230.43 4354.39,-230.43 4348.39,-224.43 4348.39,-218.43 4348.39,-218.43 4348.39,-206.43 4348.39,-206.43 4348.39,-200.43 4354.39,-194.43 4360.39,-194.43"/>
<text text-anchor="middle" x="4379.64" y="-207.63" font-family="Times,serif" font-size="14.00">5:0 &#45; 5:0</text>
</g>
<!-- c37&#45;&gt;x7 -->
<g id="edge8" class="edge">
<title>c37:e&#45;&gt;x7:w</title>
<path fill="none" stroke="black" stroke-width="3" d="M4253.11,-215.59C4286.52,-215.13 4301.15,-212.96 4334.68,-212.51"/>
<polygon fill="none" stroke="black" stroke-width="3" points="4254.8,-215.58 4248.82,-219.62 4242.8,-215.66 4248.77,-211.62 4254.8,-215.58"/>
<polygon fill="none" stroke="black" stroke-width="3" points="4332.68,-212.52 4338.66,-208.48 4344.68,-212.44 4338.71,-216.48 4332.68,-212.52"/>
</g>
<!-- x6&#45;&gt;c37 -->
<g id="edge7" class="edge">
<title>x6:e&#45;&gt;c37:w</title>
<path fill="none" stroke="black" stroke-width="3" d="M4054.83,-227.43C4085.86,-227.47 4099.77,-227.63 4130.79,-227.67"/>
<polygon fill="none" stroke="black" stroke-width="3" points="4056.76,-227.44 4050.75,-231.43 4044.76,-227.43 4050.76,-223.43 4056.76,-227.44"/>
<polygon fill="none" stroke="black" stroke-width="3" points="4128.89,-227.67 4134.89,-223.67 4140.89,-227.68 4134.89,-231.67 4128.89,-227.67"/>
</g>
<!-- n4 -->
<g id="node59" class="node">
<title>n4</title>
<ellipse fill="black" stroke="black" cx="4455.44" cy="-155.43" rx="1.8" ry="1.8"/>
</g>
<!-- x7&#45;&gt;n4 -->
<g id="edge77" class="edge">
<title>x7:e&#45;&gt;n4:w</title>
<path fill="none" stroke="black" stroke-width="3" d="M4411.89,-212.68C4438.7,-212.68 4427.29,-171.16 4442.75,-158.84"/>
<polygon fill="black" stroke="black" stroke-width="3" points="4440.81,-163.11 4449.3,-156.78 4438.71,-156.43 4440.81,-163.11"/>
</g>
<!-- c38&#45;&gt;n26 -->
<g id="edge71" class="edge">
<title>c38:e&#45;&gt;n26:w</title>
<path fill="none" stroke="black" d="M5218.24,-64.68C5229.61,-64.68 5234.92,-64.55 5242.79,-64.48"/>
<polygon fill="black" stroke="black" points="5242.74,-67.98 5252.72,-64.43 5242.71,-60.98 5242.74,-67.98"/>
</g>
<!-- c39&#45;&gt;c40 -->
<g id="edge23" class="edge">
<title>c39:e&#45;&gt;c40:w</title>
<path fill="none" stroke="black" stroke-width="3" d="M239.84,-389.68C254.95,-389.68 256.46,-374.44 265.19,-367.29"/>
<polygon fill="black" stroke="black" stroke-width="3" points="263.2,-371.66 271.54,-365.14 260.95,-365.04 263.2,-371.66"/>
</g>
<!-- c40&#45;&gt;c49 -->
<g id="edge24" class="edge">
<title>c40:e&#45;&gt;c49:w</title>
<path fill="none" stroke="black" stroke-width="3" d="M371.84,-351.68C385.9,-351.68 388.58,-339.3 396.94,-333.11"/>
<polygon fill="black" stroke="black" stroke-width="3" points="395.03,-337.39 403.51,-331.04 392.92,-330.71 395.03,-337.39"/>
</g>
<!-- c41&#45;&gt;c50 -->
<g id="edge25" class="edge">
<title>c41:e&#45;&gt;c50:w</title>
<path fill="none" stroke="black" stroke-width="3" d="M1009.09,-603.68C1020.47,-603.68 1025.78,-603.17 1033.64,-602.88"/>
<polygon fill="black" stroke="black" stroke-width="3" points="1030.62,-606.43 1040.55,-602.76 1030.49,-599.43 1030.62,-606.43"/>
</g>
<!-- x8&#45;&gt;c41 -->
<g id="edge9" class="edge">
<title>x8:e&#45;&gt;c41:w</title>
<path fill="none" stroke="black" stroke-width="3" d="M875.16,-591.4C884.46,-591.35 890.82,-591.26 900.04,-591.21"/>
<polygon fill="none" stroke="black" stroke-width="3" points="877.17,-591.39 871.18,-595.41 865.17,-591.42 871.16,-587.41 877.17,-591.39"/>
<polygon fill="none" stroke="black" stroke-width="3" points="898.39,-591.21 904.38,-587.2 910.39,-591.18 904.4,-595.2 898.39,-591.21"/>
</g>
<!-- c42&#45;&gt;c32 -->
<g id="edge26" class="edge">
<title>c42:e&#45;&gt;c32:w</title>
<path fill="none" stroke="black" stroke-width="3" d="M1270.09,-578.68C1290.9,-578.68 1284.75,-548.97 1295.45,-537.83"/>
<polygon fill="black" stroke="black" stroke-width="3" points="1293.82,-542.22 1301.86,-535.33 1291.27,-535.7 1293.82,-542.22"/>
</g>
<!-- c43&#45;&gt;c44 -->
<g id="edge27" class="edge">
<title>c43:e&#45;&gt;c44:w</title>
<path fill="none" stroke="black" stroke-width="3" d="M2135.59,-275.68C2147.95,-275.68 2152.38,-268.81 2160.4,-265.06"/>
<polygon fill="black" stroke="black" stroke-width="3" points="2158.1,-269.13 2167.15,-263.62 2156.64,-262.28 2158.1,-269.13"/>
</g>
<!-- x9&#45;&gt;c43 -->
<g id="edge10" class="edge">
<title>x9:e&#45;&gt;c43:w</title>
<path fill="none" stroke="black" stroke-width="3" d="M2015.39,-329.95C2022.36,-320.74 2020.84,-302.26 2027.84,-293.09"/>
<polygon fill="none" stroke="black" stroke-width="3" points="2016.93,-329.24 2013.17,-335.39 2006.05,-334.29 2009.8,-328.13 2016.93,-329.24"/>
<polygon fill="none" stroke="black" stroke-width="3" points="2026.24,-293.83 2030.01,-287.69 2037.14,-288.81 2033.36,-294.95 2026.24,-293.83"/>
</g>
<!-- c44&#45;&gt;c45 -->
<g id="edge84" class="edge">
<title>c44:e&#45;&gt;c45:w</title>
<path fill="none" stroke="black" stroke-width="3" d="M2267.59,-250.68C2278.97,-250.68 2284.28,-250.68 2292.15,-250.68"/>
<polygon fill="black" stroke="black" stroke-width="3" points="2289.05,-254.18 2299.05,-250.68 2289.05,-247.18 2289.05,-254.18"/>
</g>
<!-- x10 -->
<g id="node33" class="node">
<title>x10</title>
<path fill="none" stroke="black" d="M2447.59,-220.93C2447.59,-220.93 2513.09,-220.93 2513.09,-220.93 2519.09,-220.93 2525.09,-226.93 2525.09,-232.93 2525.09,-232.93 2525.09,-257.93 2525.09,-257.93 2525.09,-263.93 2519.09,-269.93 2513.09,-269.93 2513.09,-269.93 2447.59,-269.93 2447.59,-269.93 2441.59,-269.93 2435.59,-263.93 2435.59,-257.93 2435.59,-257.93 2435.59,-232.93 2435.59,-232.93 2435.59,-226.93 2441.59,-220.93 2447.59,-220.93"/>
<text text-anchor="middle" x="2480.34" y="-252.63" font-family="Times,serif" font-size="14.00">19:16 &#45; 19:16</text>
<polyline fill="none" stroke="black" points="2435.59,-245.43 2525.09,-245.43"/>
<text text-anchor="middle" x="2480.34" y="-228.13" font-family="Times,serif" font-size="14.00">15:0 &#45; 15:0</text>
</g>
<!-- c45&#45;&gt;x10 -->
<g id="edge11" class="edge">
<title>c45:e&#45;&gt;x10:w</title>
<path fill="none" stroke="black" stroke-width="3" d="M2412.38,-240.38C2416.06,-241.41 2419.21,-242.72 2422.89,-243.75"/>
<polygon fill="none" stroke="black" stroke-width="3" points="2414.17,-240.62 2407.69,-243.79 2402.27,-239.03 2408.75,-235.86 2414.17,-240.62"/>
<polygon fill="none" stroke="black" stroke-width="3" points="2421.02,-243.5 2427.49,-240.32 2432.91,-245.07 2426.44,-248.25 2421.02,-243.5"/>
</g>
<!-- n10 -->
<g id="node55" class="node">
<title>n10</title>
<polygon fill="none" stroke="black" points="2959,-247.43 2924.02,-229.43 2959,-211.43 2993.99,-229.43 2959,-247.43"/>
<text text-anchor="middle" x="2959" y="-224.38" font-family="Times,serif" font-size="14.00">$98</text>
</g>
<!-- x10&#45;&gt;n10 -->
<g id="edge20" class="edge">
<title>x10:e&#45;&gt;n10:w</title>
<path fill="none" stroke="black" stroke-width="3" d="M2525.09,-257.68C2685.08,-257.68 2731.12,-295.2 2885,-251.43 2898.94,-247.46 2902,-236.87 2910.99,-231.98"/>
<polygon fill="black" stroke="black" stroke-width="3" points="2908.59,-236.12 2917.54,-230.45 2907.01,-229.31 2908.59,-236.12"/>
</g>
<!-- n9 -->
<g id="node61" class="node">
<title>n9</title>
<ellipse fill="black" stroke="black" cx="2562.89" cy="-233.43" rx="1.8" ry="1.8"/>
</g>
<!-- x10&#45;&gt;n9 -->
<g id="edge85" class="edge">
<title>x10:e&#45;&gt;n9:w</title>
<path fill="none" stroke="black" stroke-width="3" d="M2525.09,-233.18C2536.47,-233.18 2541.78,-233.3 2549.65,-233.38"/>
<polygon fill="black" stroke="black" stroke-width="3" points="2546.54,-236.86 2556.55,-233.41 2546.57,-229.86 2546.54,-236.86"/>
</g>
<!-- c46&#45;&gt;c47 -->
<g id="edge28" class="edge">
<title>c46:e&#45;&gt;c47:w</title>
<path fill="none" stroke="black" stroke-width="3" d="M4692.24,-123.68C4704.6,-123.68 4709.02,-116.81 4717.04,-113.06"/>
<polygon fill="black" stroke="black" stroke-width="3" points="4714.74,-117.13 4723.79,-111.62 4713.28,-110.28 4714.74,-117.13"/>
</g>
<!-- x11 -->
<g id="node35" class="node">
<title>x11</title>
<path fill="none" stroke="black" d="M4505.24,-139.93C4505.24,-139.93 4548.24,-139.93 4548.24,-139.93 4554.24,-139.93 4560.24,-145.93 4560.24,-151.93 4560.24,-151.93 4560.24,-176.93 4560.24,-176.93 4560.24,-182.93 4554.24,-188.93 4548.24,-188.93 4548.24,-188.93 4505.24,-188.93 4505.24,-188.93 4499.24,-188.93 4493.24,-182.93 4493.24,-176.93 4493.24,-176.93 4493.24,-151.93 4493.24,-151.93 4493.24,-145.93 4499.24,-139.93 4505.24,-139.93"/>
<text text-anchor="middle" x="4526.74" y="-171.63" font-family="Times,serif" font-size="14.00">0 &#45;&gt; 25:6</text>
<polyline fill="none" stroke="black" points="4493.24,-164.43 4560.24,-164.43"/>
<text text-anchor="middle" x="4526.74" y="-147.13" font-family="Times,serif" font-size="14.00">5:0 &#45; 5:0</text>
</g>
<!-- x11&#45;&gt;c46 -->
<g id="edge12" class="edge">
<title>x11:e&#45;&gt;c46:w</title>
<path fill="none" stroke="black" stroke-width="3" d="M4572.12,-159.42C4577.09,-154.14 4579.42,-145.88 4584.4,-140.63"/>
<polygon fill="none" stroke="black" stroke-width="3" points="4573.79,-158.72 4569.81,-164.73 4562.73,-163.38 4566.7,-157.36 4573.79,-158.72"/>
<polygon fill="none" stroke="black" stroke-width="3" points="4582.67,-141.35 4586.66,-135.35 4593.74,-136.72 4589.75,-142.73 4582.67,-141.35"/>
</g>
<!-- c47&#45;&gt;n25 -->
<g id="edge69" class="edge">
<title>c47:e&#45;&gt;n25:w</title>
<path fill="none" stroke="black" stroke-width="3" d="M4824.24,-98.68C4835.61,-98.68 4840.92,-98.55 4848.79,-98.48"/>
<polygon fill="black" stroke="black" stroke-width="3" points="4845.71,-101.99 4855.7,-98.45 4845.68,-94.99 4845.71,-101.99"/>
</g>
<!-- c48&#45;&gt;c38 -->
<g id="edge29" class="edge">
<title>c48:e&#45;&gt;c38:w</title>
<path fill="none" stroke="black" d="M5094.49,-110.68C5111.85,-110.68 5110.52,-89.51 5120,-80.58"/>
<polygon fill="black" stroke="black" points="5120.92,-83.97 5129.07,-77.2 5118.48,-77.41 5120.92,-83.97"/>
</g>
<!-- x12 -->
<g id="node39" class="node">
<title>x12</title>
<path fill="none" stroke="black" d="M550.34,-292.93C550.34,-292.93 588.84,-292.93 588.84,-292.93 594.84,-292.93 600.84,-298.93 600.84,-304.93 600.84,-304.93 600.84,-329.93 600.84,-329.93 600.84,-335.93 594.84,-341.93 588.84,-341.93 588.84,-341.93 550.34,-341.93 550.34,-341.93 544.34,-341.93 538.34,-335.93 538.34,-329.93 538.34,-329.93 538.34,-304.93 538.34,-304.93 538.34,-298.93 544.34,-292.93 550.34,-292.93"/>
<text text-anchor="middle" x="569.59" y="-324.63" font-family="Times,serif" font-size="14.00">6:6 &#45; 6:6</text>
<polyline fill="none" stroke="black" points="538.34,-317.43 600.84,-317.43"/>
<text text-anchor="middle" x="569.59" y="-300.13" font-family="Times,serif" font-size="14.00">5:0 &#45; 5:0</text>
</g>
<!-- c49&#45;&gt;x12 -->
<g id="edge13" class="edge">
<title>c49:e&#45;&gt;x12:w</title>
<path fill="none" stroke="black" stroke-width="3" d="M515.06,-317.61C518.66,-317.58 521.79,-317.53 525.37,-317.49"/>
<polygon fill="none" stroke="black" stroke-width="3" points="517.04,-317.6 511.06,-321.63 505.05,-317.66 511.03,-313.63 517.04,-317.6"/>
<polygon fill="none" stroke="black" stroke-width="3" points="523.64,-317.5 529.62,-313.47 535.64,-317.44 529.66,-321.47 523.64,-317.5"/>
</g>
<!-- x12&#45;&gt;n23 -->
<g id="edge54" class="edge">
<title>x12:e&#45;&gt;n23:w</title>
<path fill="none" stroke="black" d="M600.84,-329.68C663.54,-329.68 582.01,-457.58 625.55,-474.57"/>
<polygon fill="black" stroke="black" points="624.91,-478.01 635.35,-476.18 626.05,-471.11 624.91,-478.01"/>
</g>
<!-- n18 -->
<g id="node56" class="node">
<title>n18</title>
<ellipse fill="black" stroke="black" cx="1091.59" cy="-383.43" rx="1.8" ry="1.8"/>
</g>
<!-- x12&#45;&gt;n18 -->
<g id="edge30" class="edge">
<title>x12:e&#45;&gt;n18:w</title>
<path fill="none" stroke="black" stroke-width="3" d="M600.84,-305.18C783.71,-305.18 830.9,-315.33 1009.09,-356.43 1041.37,-363.87 1049.49,-379.47 1077.15,-382.8"/>
<polygon fill="black" stroke="black" stroke-width="3" points="1073.6,-386.1 1083.78,-383.17 1073.99,-379.11 1073.6,-386.1"/>
</g>
<!-- c50&#45;&gt;c42 -->
<g id="edge33" class="edge">
<title>c50:e&#45;&gt;c42:w</title>
<path fill="none" stroke="black" stroke-width="3" d="M1138.09,-590.68C1149.47,-590.68 1154.78,-590.68 1162.65,-590.68"/>
<polygon fill="black" stroke="black" stroke-width="3" points="1159.55,-594.18 1169.55,-590.68 1159.55,-587.18 1159.55,-594.18"/>
</g>
<!-- x14 -->
<g id="node43" class="node">
<title>x14</title>
<path fill="none" stroke="black" d="M3316.6,-327.93C3316.6,-327.93 3368.6,-327.93 3368.6,-327.93 3374.6,-327.93 3380.6,-333.93 3380.6,-339.93 3380.6,-339.93 3380.6,-364.93 3380.6,-364.93 3380.6,-370.93 3374.6,-376.93 3368.6,-376.93 3368.6,-376.93 3316.6,-376.93 3316.6,-376.93 3310.6,-376.93 3304.6,-370.93 3304.6,-364.93 3304.6,-364.93 3304.6,-339.93 3304.6,-339.93 3304.6,-333.93 3310.6,-327.93 3316.6,-327.93"/>
<text text-anchor="middle" x="3342.6" y="-359.63" font-family="Times,serif" font-size="14.00">20:7 &#45; 13:0</text>
<polyline fill="none" stroke="black" points="3304.6,-352.43 3380.6,-352.43"/>
<text text-anchor="middle" x="3342.6" y="-335.13" font-family="Times,serif" font-size="14.00">6:0 &#45; 6:0</text>
</g>
<!-- c51&#45;&gt;x14 -->
<g id="edge15" class="edge">
<title>c51:e&#45;&gt;x14:w</title>
<path fill="none" stroke="black" stroke-width="3" d="M3280.44,-381.33C3285.85,-374.85 3287.42,-364.03 3292.89,-357.63"/>
<polygon fill="none" stroke="black" stroke-width="3" points="3282,-380.62 3278.18,-386.74 3271.07,-385.56 3274.88,-379.45 3282,-380.62"/>
<polygon fill="none" stroke="black" stroke-width="3" points="3291.16,-358.4 3295.02,-352.3 3302.13,-353.52 3298.27,-359.62 3291.16,-358.4"/>
</g>
<!-- x13 -->
<g id="node42" class="node">
<title>x13</title>
<path fill="none" stroke="black" d="M3084.6,-373.93C3084.6,-373.93 3127.6,-373.93 3127.6,-373.93 3133.6,-373.93 3139.6,-379.93 3139.6,-385.93 3139.6,-385.93 3139.6,-410.93 3139.6,-410.93 3139.6,-416.93 3133.6,-422.93 3127.6,-422.93 3127.6,-422.93 3084.6,-422.93 3084.6,-422.93 3078.6,-422.93 3072.6,-416.93 3072.6,-410.93 3072.6,-410.93 3072.6,-385.93 3072.6,-385.93 3072.6,-379.93 3078.6,-373.93 3084.6,-373.93"/>
<text text-anchor="middle" x="3106.1" y="-405.63" font-family="Times,serif" font-size="14.00">0 &#45;&gt; 19:6</text>
<polyline fill="none" stroke="black" points="3072.6,-398.43 3139.6,-398.43"/>
<text text-anchor="middle" x="3106.1" y="-381.13" font-family="Times,serif" font-size="14.00">5:0 &#45; 5:0</text>
</g>
<!-- x13&#45;&gt;c51 -->
<g id="edge14" class="edge">
<title>x13:e&#45;&gt;c51:w</title>
<path fill="none" stroke="black" stroke-width="3" d="M3152.32,-398.49C3155.92,-398.53 3159.05,-398.57 3162.63,-398.61"/>
<polygon fill="none" stroke="black" stroke-width="3" points="3154.31,-398.5 3148.29,-402.47 3142.31,-398.44 3148.33,-394.47 3154.31,-398.5"/>
<polygon fill="none" stroke="black" stroke-width="3" points="3160.9,-398.6 3166.92,-394.63 3172.9,-398.66 3166.88,-402.63 3160.9,-398.6"/>
</g>
<!-- n20 -->
<g id="node57" class="node">
<title>n20</title>
<ellipse fill="black" stroke="black" cx="3712.75" cy="-315.43" rx="1.8" ry="1.8"/>
</g>
<!-- x14&#45;&gt;n20 -->
<g id="edge35" class="edge">
<title>x14:e&#45;&gt;n20:w</title>
<path fill="none" stroke="black" stroke-width="3" d="M3380.6,-340.18C3414.3,-340.18 3422.6,-336.96 3456.2,-334.43 3565.55,-326.19 3595.4,-316.14 3699.6,-315.46"/>
<polygon fill="black" stroke="black" stroke-width="3" points="3696.42,-318.97 3706.41,-315.44 3696.4,-311.97 3696.42,-318.97"/>
</g>
<!-- n7 -->
<g id="node60" class="node">
<title>n7</title>
<ellipse fill="black" stroke="black" cx="3418.4" cy="-364.43" rx="1.8" ry="1.8"/>
</g>
<!-- x14&#45;&gt;n7 -->
<g id="edge81" class="edge">
<title>x14:e&#45;&gt;n7:w</title>
<path fill="none" stroke="black" stroke-width="3" d="M3380.6,-364.68C3391.98,-364.68 3397.29,-364.55 3405.15,-364.48"/>
<polygon fill="black" stroke="black" stroke-width="3" points="3402.08,-367.99 3412.06,-364.45 3402.05,-360.99 3402.08,-367.99"/>
</g>
<!-- v15 -->
<g id="node44" class="node">
<title>v15</title>
<ellipse fill="none" stroke="black" cx="2798.85" cy="-422.43" rx="86.15" ry="18"/>
<text text-anchor="middle" x="2798.85" y="-417.38" font-family="Times,serif" font-size="14.00">14&#39;00000000000000</text>
</g>
<!-- x16 -->
<g id="node45" class="node">
<title>x16</title>
<path fill="none" stroke="black" d="M2933,-402.43C2933,-402.43 2985,-402.43 2985,-402.43 2991,-402.43 2997,-408.43 2997,-414.43 2997,-414.43 2997,-426.43 2997,-426.43 2997,-432.43 2991,-438.43 2985,-438.43 2985,-438.43 2933,-438.43 2933,-438.43 2927,-438.43 2921,-432.43 2921,-426.43 2921,-426.43 2921,-414.43 2921,-414.43 2921,-408.43 2927,-402.43 2933,-402.43"/>
<text text-anchor="middle" x="2959" y="-415.63" font-family="Times,serif" font-size="14.00">13:0 &#45; 19:6</text>
</g>
<!-- v15&#45;&gt;x16 -->
<g id="edge88" class="edge">
<title>v15:e&#45;&gt;x16:w</title>
<path fill="none" stroke="black" stroke-width="3" d="M2885,-422.43C2896.39,-422.43 2901.68,-421.42 2909.55,-420.83"/>
<polygon fill="black" stroke="black" stroke-width="3" points="2906.59,-424.44 2916.46,-420.59 2906.35,-417.44 2906.59,-424.44"/>
</g>
<!-- x16&#45;&gt;n3 -->
<g id="edge73" class="edge">
<title>x16:e&#45;&gt;n3:w</title>
<path fill="none" stroke="black" stroke-width="3" d="M2997,-420.68C3014.43,-420.68 3013.02,-399.35 3022.5,-390.36"/>
<polygon fill="black" stroke="black" stroke-width="3" points="3020.61,-394.8 3028.75,-388.02 3018.16,-388.24 3020.61,-394.8"/>
</g>
<!-- v17 -->
<g id="node46" class="node">
<title>v17</title>
<ellipse fill="none" stroke="black" cx="4191.84" cy="-154.43" rx="113.79" ry="18"/>
<text text-anchor="middle" x="4191.84" y="-149.38" font-family="Times,serif" font-size="14.00">20&#39;00000000000000000000</text>
</g>
<!-- x18 -->
<g id="node47" class="node">
<title>x18</title>
<path fill="none" stroke="black" d="M4353.64,-137.43C4353.64,-137.43 4405.64,-137.43 4405.64,-137.43 4411.64,-137.43 4417.64,-143.43 4417.64,-149.43 4417.64,-149.43 4417.64,-161.43 4417.64,-161.43 4417.64,-167.43 4411.64,-173.43 4405.64,-173.43 4405.64,-173.43 4353.64,-173.43 4353.64,-173.43 4347.64,-173.43 4341.64,-167.43 4341.64,-161.43 4341.64,-161.43 4341.64,-149.43 4341.64,-149.43 4341.64,-143.43 4347.64,-137.43 4353.64,-137.43"/>
<text text-anchor="middle" x="4379.64" y="-150.63" font-family="Times,serif" font-size="14.00">19:0 &#45; 25:6</text>
</g>
<!-- v17&#45;&gt;x18 -->
<g id="edge89" class="edge">
<title>v17:e&#45;&gt;x18:w</title>
<path fill="none" stroke="black" stroke-width="3" d="M4305.64,-154.43C4317.02,-154.43 4322.32,-154.93 4330.19,-155.22"/>
<polygon fill="black" stroke="black" stroke-width="3" points="4327.04,-158.67 4337.1,-155.35 4327.16,-151.67 4327.04,-158.67"/>
</g>
<!-- x18&#45;&gt;n4 -->
<g id="edge76" class="edge">
<title>x18:e&#45;&gt;n4:w</title>
<path fill="none" stroke="black" stroke-width="3" d="M4417.64,-155.68C4429.01,-155.68 4434.32,-155.55 4442.19,-155.48"/>
<polygon fill="black" stroke="black" stroke-width="3" points="4439.11,-158.99 4449.1,-155.45 4439.08,-151.99 4439.11,-158.99"/>
</g>
<!-- x19 -->
<g id="node48" class="node">
<title>x19</title>
<path fill="none" stroke="black" d="M2612.69,-192.93C2612.69,-192.93 2664.69,-192.93 2664.69,-192.93 2670.69,-192.93 2676.69,-198.93 2676.69,-204.93 2676.69,-204.93 2676.69,-229.93 2676.69,-229.93 2676.69,-235.93 2670.69,-241.93 2664.69,-241.93 2664.69,-241.93 2612.69,-241.93 2612.69,-241.93 2606.69,-241.93 2600.69,-235.93 2600.69,-229.93 2600.69,-229.93 2600.69,-204.93 2600.69,-204.93 2600.69,-198.93 2606.69,-192.93 2612.69,-192.93"/>
<text text-anchor="middle" x="2638.69" y="-224.63" font-family="Times,serif" font-size="14.00">0 &#45;&gt; 21:16</text>
<polyline fill="none" stroke="black" points="2600.69,-217.43 2676.69,-217.43"/>
<text text-anchor="middle" x="2638.69" y="-200.13" font-family="Times,serif" font-size="14.00">15:0 &#45; 15:0</text>
</g>
<!-- x20 -->
<g id="node49" class="node">
<title>x20</title>
<path fill="none" stroke="black" d="M2766.1,-192.93C2766.1,-192.93 2831.6,-192.93 2831.6,-192.93 2837.6,-192.93 2843.6,-198.93 2843.6,-204.93 2843.6,-204.93 2843.6,-229.93 2843.6,-229.93 2843.6,-235.93 2837.6,-241.93 2831.6,-241.93 2831.6,-241.93 2766.1,-241.93 2766.1,-241.93 2760.1,-241.93 2754.1,-235.93 2754.1,-229.93 2754.1,-229.93 2754.1,-204.93 2754.1,-204.93 2754.1,-198.93 2760.1,-192.93 2766.1,-192.93"/>
<text text-anchor="middle" x="2798.85" y="-224.63" font-family="Times,serif" font-size="14.00">21:16 &#45; 25:20</text>
<polyline fill="none" stroke="black" points="2754.1,-217.43 2843.6,-217.43"/>
<text text-anchor="middle" x="2798.85" y="-200.13" font-family="Times,serif" font-size="14.00">15:0 &#45; 15:0</text>
</g>
<!-- x19&#45;&gt;x20 -->
<g id="edge16" class="edge">
<title>x19:e&#45;&gt;x20:w</title>
<path fill="none" stroke="black" stroke-width="3" d="M2689.65,-217.43C2709.62,-217.43 2720.15,-217.43 2740.11,-217.43"/>
<polygon fill="none" stroke="black" stroke-width="3" points="2691.4,-217.43 2685.4,-221.43 2679.4,-217.43 2685.4,-213.43 2691.4,-217.43"/>
<polygon fill="none" stroke="black" stroke-width="3" points="2738.39,-217.43 2744.39,-213.43 2750.39,-217.43 2744.39,-221.43 2738.39,-217.43"/>
</g>
<!-- x20&#45;&gt;n10 -->
<g id="edge21" class="edge">
<title>x20:e&#45;&gt;n10:w</title>
<path fill="none" stroke="black" stroke-width="3" d="M2844.6,-205.18C2876.55,-205.18 2884.34,-224.24 2910.81,-228.56"/>
<polygon fill="black" stroke="black" stroke-width="3" points="2907.2,-231.79 2917.44,-229.08 2907.74,-224.82 2907.2,-231.79"/>
</g>
<!-- x20&#45;&gt;n10 -->
<g id="edge22" class="edge">
<title>x20:e&#45;&gt;n10:w</title>
<path fill="none" stroke="black" stroke-width="3" d="M2844.6,-229.68C2874.82,-229.68 2885.12,-229.48 2910.52,-229.44"/>
<polygon fill="black" stroke="black" stroke-width="3" points="2907.43,-232.94 2917.42,-229.43 2907.42,-225.94 2907.43,-232.94"/>
</g>
<!-- x22 -->
<g id="node51" class="node">
<title>x22</title>
<path fill="none" stroke="black" d="M941.84,-365.43C941.84,-365.43 980.34,-365.43 980.34,-365.43 986.34,-365.43 992.34,-371.43 992.34,-377.43 992.34,-377.43 992.34,-389.43 992.34,-389.43 992.34,-395.43 986.34,-401.43 980.34,-401.43 980.34,-401.43 941.84,-401.43 941.84,-401.43 935.84,-401.43 929.84,-395.43 929.84,-389.43 929.84,-389.43 929.84,-377.43 929.84,-377.43 929.84,-371.43 935.84,-365.43 941.84,-365.43"/>
<text text-anchor="middle" x="961.09" y="-378.63" font-family="Times,serif" font-size="14.00">0:0 &#45; 6:6</text>
</g>
<!-- x21&#45;&gt;x22 -->
<g id="edge17" class="edge">
<title>x21:e&#45;&gt;x22:w</title>
<path fill="none" stroke="black" d="M875.4,-383.43C891.16,-383.43 900.19,-383.43 915.97,-383.43"/>
<polygon fill="none" stroke="black" points="875.37,-383.43 869.37,-387.43 863.37,-383.43 869.37,-379.43 875.37,-383.43"/>
<polygon fill="none" stroke="black" points="915.94,-383.43 921.94,-379.43 927.94,-383.43 921.94,-387.43 915.94,-383.43"/>
</g>
<!-- x22&#45;&gt;n18 -->
<g id="edge31" class="edge">
<title>x22:e&#45;&gt;n18:w</title>
<path fill="none" stroke="black" d="M993.34,-383.68C1031.59,-383.68 1043.85,-383.47 1077.22,-383.43"/>
<polygon fill="black" stroke="black" points="1076.8,-386.93 1086.8,-383.43 1076.8,-379.93 1076.8,-386.93"/>
</g>
<!-- x23 -->
<g id="node52" class="node">
<title>x23</title>
<path fill="none" stroke="black" d="M3468.2,-343.93C3468.2,-343.93 3550.95,-343.93 3550.95,-343.93 3556.95,-343.93 3562.95,-349.93 3562.95,-355.93 3562.95,-355.93 3562.95,-380.93 3562.95,-380.93 3562.95,-386.93 3556.95,-392.93 3550.95,-392.93 3550.95,-392.93 3468.2,-392.93 3468.2,-392.93 3462.2,-392.93 3456.2,-386.93 3456.2,-380.93 3456.2,-380.93 3456.2,-355.93 3456.2,-355.93 3456.2,-349.93 3462.2,-343.93 3468.2,-343.93"/>
<text text-anchor="middle" x="3509.58" y="-375.63" font-family="Times,serif" font-size="14.00">5x 13:13 &#45; 18:14</text>
<polyline fill="none" stroke="black" points="3456.2,-368.43 3562.95,-368.43"/>
<text text-anchor="middle" x="3509.58" y="-351.13" font-family="Times,serif" font-size="14.00">13:0 &#45; 13:0</text>
</g>
<!-- x24 -->
<g id="node53" class="node">
<title>x24</title>
<path fill="none" stroke="black" d="M3610.95,-347.43C3610.95,-347.43 3662.95,-347.43 3662.95,-347.43 3668.95,-347.43 3674.95,-353.43 3674.95,-359.43 3674.95,-359.43 3674.95,-371.43 3674.95,-371.43 3674.95,-377.43 3668.95,-383.43 3662.95,-383.43 3662.95,-383.43 3610.95,-383.43 3610.95,-383.43 3604.95,-383.43 3598.95,-377.43 3598.95,-371.43 3598.95,-371.43 3598.95,-359.43 3598.95,-359.43 3598.95,-353.43 3604.95,-347.43 3610.95,-347.43"/>
<text text-anchor="middle" x="3636.95" y="-360.63" font-family="Times,serif" font-size="14.00">18:0 &#45; 25:7</text>
</g>
<!-- x23&#45;&gt;x24 -->
<g id="edge18" class="edge">
<title>x23:e&#45;&gt;x24:w</title>
<path fill="none" stroke="black" stroke-width="3" d="M3575.69,-367.67C3579.28,-367.23 3582.4,-366.66 3585.97,-366.21"/>
<polygon fill="none" stroke="black" stroke-width="3" points="3577.63,-367.55 3571.88,-371.9 3565.65,-368.27 3571.4,-363.92 3577.63,-367.55"/>
<polygon fill="none" stroke="black" stroke-width="3" points="3584.27,-366.32 3590.02,-361.96 3596.25,-365.59 3590.51,-369.95 3584.27,-366.32"/>
</g>
<!-- x24&#45;&gt;n20 -->
<g id="edge36" class="edge">
<title>x24:e&#45;&gt;n20:w</title>
<path fill="none" stroke="black" stroke-width="3" d="M3674.95,-365.68C3697.7,-365.68 3688.62,-331.22 3700.43,-319.37"/>
<polygon fill="black" stroke="black" stroke-width="3" points="3698.56,-323.81 3706.7,-317.02 3696.11,-317.25 3698.56,-323.81"/>
</g>
<!-- x25&#45;&gt;n22 -->
<g id="edge53" class="edge">
<title>x25:e&#45;&gt;n22:w</title>
<path fill="none" stroke="black" stroke-width="3" d="M5467.74,-76.43C5479.11,-76.43 5484.42,-76.43 5492.29,-76.43"/>
<polygon fill="black" stroke="black" stroke-width="3" points="5489.2,-79.93 5499.2,-76.43 5489.2,-72.93 5489.2,-79.93"/>
</g>
<!-- n18&#45;&gt;x0 -->
<g id="edge32" class="edge">
<title>n18:e&#45;&gt;x0:w</title>
<path fill="none" stroke="black" stroke-width="3" d="M1094.87,-383.43C1133.9,-383.43 1144.82,-399.24 1178.58,-402.2"/>
<polygon fill="black" stroke="black" stroke-width="3" points="1175.17,-405.56 1185.31,-402.49 1175.46,-398.57 1175.17,-405.56"/>
</g>
<!-- n20&#45;&gt;x5 -->
<g id="edge37" class="edge">
<title>n20:e&#45;&gt;x5:w</title>
<path fill="none" stroke="black" stroke-width="3" d="M3714.55,-315.43C3743.52,-315.43 3724.39,-266.13 3739.83,-252.27"/>
<polygon fill="black" stroke="black" stroke-width="3" points="3737.87,-256.61 3746.25,-250.12 3735.65,-249.97 3737.87,-256.61"/>
</g>
<!-- n3&#45;&gt;x13 -->
<g id="edge75" class="edge">
<title>n3:e&#45;&gt;x13:w</title>
<path fill="none" stroke="black" stroke-width="3" d="M3036.6,-386.43C3047.98,-386.43 3053.29,-386.3 3061.15,-386.23"/>
<polygon fill="black" stroke="black" stroke-width="3" points="3058.08,-389.74 3068.06,-386.2 3058.05,-382.74 3058.08,-389.74"/>
</g>
<!-- n4&#45;&gt;x11 -->
<g id="edge78" class="edge">
<title>n4:e&#45;&gt;x11:w</title>
<path fill="none" stroke="black" stroke-width="3" d="M4457.24,-155.43C4468.66,-155.43 4473.91,-153.78 4481.77,-152.83"/>
<polygon fill="black" stroke="black" stroke-width="3" points="4478.92,-156.5 4488.7,-152.44 4478.52,-149.52 4478.92,-156.5"/>
</g>
<!-- n7&#45;&gt;x23 -->
<g id="edge82" class="edge">
<title>n7:e&#45;&gt;x23:w</title>
<path fill="none" stroke="black" stroke-width="3" d="M3420.2,-364.43C3432,-364.43 3436.96,-360.16 3444.91,-357.77"/>
<polygon fill="black" stroke="black" stroke-width="3" points="3442.29,-361.67 3451.71,-356.81 3441.32,-354.74 3442.29,-361.67"/>
</g>
<!-- n7&#45;&gt;x23 -->
<g id="edge83" class="edge">
<title>n7:e&#45;&gt;x23:w</title>
<path fill="none" stroke="black" stroke-width="3" d="M3420.2,-364.43C3433.09,-364.43 3437,-373.19 3445.12,-377.85"/>
<polygon fill="black" stroke="black" stroke-width="3" points="3441.25,-380.47 3451.8,-379.55 3442.98,-373.69 3441.25,-380.47"/>
</g>
<!-- n9&#45;&gt;x3 -->
<g id="edge87" class="edge">
<title>n9:e&#45;&gt;x3:w</title>
<path fill="none" stroke="black" stroke-width="3" d="M2564.69,-233.43C2646.21,-233.43 2532.89,-403.74 2595.38,-420.37"/>
<polygon fill="black" stroke="black" stroke-width="3" points="2591.59,-423.45 2601.93,-421.15 2592.41,-416.5 2591.59,-423.45"/>
</g>
<!-- n9&#45;&gt;x19 -->
<g id="edge86" class="edge">
<title>n9:e&#45;&gt;x19:w</title>
<path fill="none" stroke="black" stroke-width="3" d="M2564.69,-233.43C2580.26,-233.43 2581.17,-216.87 2589.87,-209.1"/>
<polygon fill="black" stroke="black" stroke-width="3" points="2588.22,-213.43 2596.42,-206.73 2585.83,-206.85 2588.22,-213.43"/>
</g>
</g>
</svg>
