<?xml version="1.0" encoding="UTF-8" standalone="no"?>
<!DOCTYPE svg PUBLIC "-//W3C//DTD SVG 1.1//EN"
 "http://www.w3.org/Graphics/SVG/1.1/DTD/svg11.dtd">
<!-- Generated by graphviz version 12.2.1 (20241206.2353)
 -->
<!-- Title: top Pages: 1 -->
<svg width="2695pt" height="339pt"
 viewBox="0.00 0.00 2694.98 338.60" xmlns="http://www.w3.org/2000/svg" xmlns:xlink="http://www.w3.org/1999/xlink">
<g id="graph0" class="graph" transform="scale(1 1) rotate(0) translate(4 334.6)">
<title>top</title>
<polygon fill="white" stroke="none" points="-4,4 -4,-334.6 2690.98,-334.6 2690.98,4 -4,4"/>
<text text-anchor="middle" x="1343.49" y="-7.2" font-family="Times,serif" font-size="14.00">top</text>
<!-- n4 -->
<g id="node1" class="node">
<title>n4</title>
<polygon fill="none" stroke="black" points="107.84,-180.04 107.84,-194.96 76.26,-205.5 31.59,-205.5 0,-194.96 0,-180.04 31.59,-169.5 76.26,-169.5 107.84,-180.04"/>
<text text-anchor="middle" x="53.92" y="-182.45" font-family="Times,serif" font-size="14.00">input_data</text>
</g>
<!-- x4 -->
<g id="node14" class="node">
<title>x4</title>
<path fill="none" stroke="black" d="M440.09,-78.5C440.09,-78.5 478.59,-78.5 478.59,-78.5 484.59,-78.5 490.59,-84.5 490.59,-90.5 490.59,-90.5 490.59,-102.5 490.59,-102.5 490.59,-108.5 484.59,-114.5 478.59,-114.5 478.59,-114.5 440.09,-114.5 440.09,-114.5 434.09,-114.5 428.09,-108.5 428.09,-102.5 428.09,-102.5 428.09,-90.5 428.09,-90.5 428.09,-84.5 434.09,-78.5 440.09,-78.5"/>
<text text-anchor="middle" x="459.34" y="-91.7" font-family="Times,serif" font-size="14.00">0:0 &#45; 0:0</text>
</g>
<!-- n4&#45;&gt;x4 -->
<g id="edge20" class="edge">
<title>n4:e&#45;&gt;x4:w</title>
<path fill="none" stroke="black" d="M107.84,-187.5C131.76,-187.5 123,-159.23 143.84,-147.5 155.09,-141.17 364.43,-106.61 415.8,-98.47"/>
<polygon fill="black" stroke="black" points="416.24,-101.94 425.6,-96.98 415.18,-95.02 416.24,-101.94"/>
</g>
<!-- c17 -->
<g id="node17" class="node">
<title>c17</title>
<polygon fill="none" stroke="black" points="550.59,-266 550.59,-315 638.34,-315 638.34,-266 550.59,-266"/>
<text text-anchor="middle" x="563.47" y="-297.7" font-family="Times,serif" font-size="14.00">A</text>
<polyline fill="none" stroke="black" points="550.59,-290.5 576.34,-290.5"/>
<text text-anchor="middle" x="563.47" y="-273.2" font-family="Times,serif" font-size="14.00">B</text>
<polyline fill="none" stroke="black" points="576.34,-266 576.34,-315"/>
<text text-anchor="middle" x="594.47" y="-293.7" font-family="Times,serif" font-size="14.00">$14</text>
<text text-anchor="middle" x="594.47" y="-277.2" font-family="Times,serif" font-size="14.00">$le</text>
<polyline fill="none" stroke="black" points="612.59,-266 612.59,-315"/>
<text text-anchor="middle" x="625.47" y="-285.7" font-family="Times,serif" font-size="14.00">Y</text>
</g>
<!-- n4&#45;&gt;c17 -->
<g id="edge15" class="edge">
<title>n4:e&#45;&gt;c17:w</title>
<path fill="none" stroke="black" stroke-width="3" d="M107.84,-187.5C149.69,-187.5 109.88,-250.05 143.84,-274.5 287.83,-378.14 366.05,-305.93 539.31,-302.85"/>
<polygon fill="black" stroke="black" stroke-width="3" points="536.08,-306.38 546.05,-302.79 536.02,-299.38 536.08,-306.38"/>
</g>
<!-- c18 -->
<g id="node18" class="node">
<title>c18</title>
<polygon fill="none" stroke="black" points="143.84,-216 143.84,-265 239.84,-265 239.84,-216 143.84,-216"/>
<text text-anchor="middle" x="156.72" y="-247.7" font-family="Times,serif" font-size="14.00">A</text>
<polyline fill="none" stroke="black" points="143.84,-240.5 169.59,-240.5"/>
<text text-anchor="middle" x="156.72" y="-223.2" font-family="Times,serif" font-size="14.00">B</text>
<polyline fill="none" stroke="black" points="169.59,-216 169.59,-265"/>
<text text-anchor="middle" x="191.84" y="-243.7" font-family="Times,serif" font-size="14.00">$1</text>
<text text-anchor="middle" x="191.84" y="-227.2" font-family="Times,serif" font-size="14.00">$mul</text>
<polyline fill="none" stroke="black" points="214.09,-216 214.09,-265"/>
<text text-anchor="middle" x="226.97" y="-235.7" font-family="Times,serif" font-size="14.00">Y</text>
</g>
<!-- n4&#45;&gt;c18 -->
<g id="edge16" class="edge">
<title>n4:e&#45;&gt;c18:w</title>
<path fill="none" stroke="black" stroke-width="3" d="M107.84,-187.5C136.3,-187.5 117.97,-235.69 133.27,-249.24"/>
<polygon fill="black" stroke="black" stroke-width="3" points="128.94,-251.49 139.53,-251.32 131.14,-244.85 128.94,-251.49"/>
</g>
<!-- n4&#45;&gt;c18 -->
<g id="edge17" class="edge">
<title>n4:e&#45;&gt;c18:w</title>
<path fill="none" stroke="black" stroke-width="3" d="M107.84,-187.5C127.29,-187.5 123.1,-213.89 133.31,-224.19"/>
<polygon fill="black" stroke="black" stroke-width="3" points="129.01,-226.29 139.6,-226.62 131.53,-219.76 129.01,-226.29"/>
</g>
<!-- x7 -->
<g id="node21" class="node">
<title>x7</title>
<path fill="none" stroke="black" d="M302.72,-131.5C302.72,-131.5 341.22,-131.5 341.22,-131.5 347.22,-131.5 353.22,-137.5 353.22,-143.5 353.22,-143.5 353.22,-155.5 353.22,-155.5 353.22,-161.5 347.22,-167.5 341.22,-167.5 341.22,-167.5 302.72,-167.5 302.72,-167.5 296.72,-167.5 290.72,-161.5 290.72,-155.5 290.72,-155.5 290.72,-143.5 290.72,-143.5 290.72,-137.5 296.72,-131.5 302.72,-131.5"/>
<text text-anchor="middle" x="321.97" y="-144.7" font-family="Times,serif" font-size="14.00">1:1 &#45; 0:0</text>
</g>
<!-- n4&#45;&gt;x7 -->
<g id="edge21" class="edge">
<title>n4:e&#45;&gt;x7:w</title>
<path fill="none" stroke="black" d="M107.84,-187.5C125.01,-187.5 127.28,-178.02 143.84,-173.5 203.38,-157.27 221.82,-150.57 278.3,-149.82"/>
<polygon fill="black" stroke="black" points="278.22,-153.32 288.2,-149.76 278.18,-146.32 278.22,-153.32"/>
</g>
<!-- c20 -->
<g id="node22" class="node">
<title>c20</title>
<polygon fill="none" stroke="black" points="275.84,-204 275.84,-253 368.09,-253 368.09,-204 275.84,-204"/>
<text text-anchor="middle" x="288.72" y="-235.7" font-family="Times,serif" font-size="14.00">A</text>
<polyline fill="none" stroke="black" points="275.84,-228.5 301.59,-228.5"/>
<text text-anchor="middle" x="288.72" y="-211.2" font-family="Times,serif" font-size="14.00">B</text>
<polyline fill="none" stroke="black" points="301.59,-204 301.59,-253"/>
<text text-anchor="middle" x="321.97" y="-231.7" font-family="Times,serif" font-size="14.00">$2</text>
<text text-anchor="middle" x="321.97" y="-215.2" font-family="Times,serif" font-size="14.00">$xor</text>
<polyline fill="none" stroke="black" points="342.34,-204 342.34,-253"/>
<text text-anchor="middle" x="355.22" y="-223.7" font-family="Times,serif" font-size="14.00">Y</text>
</g>
<!-- n4&#45;&gt;c20 -->
<g id="edge18" class="edge">
<title>n4:e&#45;&gt;c20:w</title>
<path fill="none" stroke="black" stroke-width="3" d="M107.84,-187.5C167.11,-187.5 181.8,-194.51 239.84,-206.5 251.51,-208.91 256.44,-212.89 264.44,-214.94"/>
<polygon fill="black" stroke="black" stroke-width="3" points="261,-218.07 271.33,-215.73 261.79,-211.12 261,-218.07"/>
</g>
<!-- x10 -->
<g id="node25" class="node">
<title>x10</title>
<path fill="none" stroke="black" d="M170.34,-25C170.34,-25 213.34,-25 213.34,-25 219.34,-25 225.34,-31 225.34,-37 225.34,-37 225.34,-62 225.34,-62 225.34,-68 219.34,-74 213.34,-74 213.34,-74 170.34,-74 170.34,-74 164.34,-74 158.34,-68 158.34,-62 158.34,-62 158.34,-37 158.34,-37 158.34,-31 164.34,-25 170.34,-25"/>
<text text-anchor="middle" x="191.84" y="-56.7" font-family="Times,serif" font-size="14.00">0 &#45;&gt; 36:2</text>
<polyline fill="none" stroke="black" points="158.34,-49.5 225.34,-49.5"/>
<text text-anchor="middle" x="191.84" y="-32.2" font-family="Times,serif" font-size="14.00">2:1 &#45; 1:0</text>
</g>
<!-- n4&#45;&gt;x10 -->
<g id="edge19" class="edge">
<title>n4:e&#45;&gt;x10:w</title>
<path fill="none" stroke="black" stroke-width="3" d="M107.84,-187.5C173.76,-187.5 97.79,-55.44 145.97,-38.94"/>
<polygon fill="black" stroke="black" stroke-width="3" points="143.47,-42.85 152.85,-37.92 142.44,-35.92 143.47,-42.85"/>
</g>
<!-- n5 -->
<g id="node2" class="node">
<title>n5</title>
<polygon fill="none" stroke="black" points="2686.98,-68.04 2686.98,-82.96 2652.48,-93.5 2603.68,-93.5 2569.17,-82.96 2569.17,-68.04 2603.68,-57.5 2652.48,-57.5 2686.98,-68.04"/>
<text text-anchor="middle" x="2628.08" y="-70.45" font-family="Times,serif" font-size="14.00">output_data</text>
</g>
<!-- n6 -->
<g id="node3" class="node">
<title>n6</title>
<polygon fill="none" stroke="black" points="459.34,-250.5 404.09,-232.5 459.34,-214.5 514.59,-232.5 459.34,-250.5"/>
<text text-anchor="middle" x="459.34" y="-227.45" font-family="Times,serif" font-size="14.00">temp_0</text>
</g>
<!-- c16 -->
<g id="node16" class="node">
<title>c16</title>
<polygon fill="none" stroke="black" points="676.97,-227 676.97,-276 764.72,-276 764.72,-227 676.97,-227"/>
<text text-anchor="middle" x="689.84" y="-258.7" font-family="Times,serif" font-size="14.00">A</text>
<polyline fill="none" stroke="black" points="676.97,-251.5 702.72,-251.5"/>
<text text-anchor="middle" x="689.84" y="-234.2" font-family="Times,serif" font-size="14.00">B</text>
<polyline fill="none" stroke="black" points="702.72,-227 702.72,-276"/>
<text text-anchor="middle" x="720.84" y="-254.7" font-family="Times,serif" font-size="14.00">$15</text>
<text text-anchor="middle" x="720.84" y="-238.2" font-family="Times,serif" font-size="14.00">$gt</text>
<polyline fill="none" stroke="black" points="738.97,-227 738.97,-276"/>
<text text-anchor="middle" x="751.84" y="-246.7" font-family="Times,serif" font-size="14.00">Y</text>
</g>
<!-- n6&#45;&gt;c16 -->
<g id="edge25" class="edge">
<title>n6:e&#45;&gt;c16:w</title>
<path fill="none" stroke="black" stroke-width="3" d="M514.59,-232.5C582.45,-232.5 602.07,-238.53 664.66,-239.19"/>
<polygon fill="black" stroke="black" stroke-width="3" points="661.41,-242.67 671.43,-239.23 661.44,-235.67 661.41,-242.67"/>
</g>
<!-- n6&#45;&gt;c17 -->
<g id="edge26" class="edge">
<title>n6:e&#45;&gt;c17:w</title>
<path fill="none" stroke="black" stroke-width="3" d="M514.59,-232.5C535.82,-232.5 529.03,-263.29 540.19,-274.35"/>
<polygon fill="black" stroke="black" stroke-width="3" points="535.75,-276.42 546.34,-276.66 538.21,-269.87 535.75,-276.42"/>
</g>
<!-- x6 -->
<g id="node20" class="node">
<title>x6</title>
<path fill="none" stroke="black" d="M575.22,-172.5C575.22,-172.5 613.72,-172.5 613.72,-172.5 619.72,-172.5 625.72,-178.5 625.72,-184.5 625.72,-184.5 625.72,-196.5 625.72,-196.5 625.72,-202.5 619.72,-208.5 613.72,-208.5 613.72,-208.5 575.22,-208.5 575.22,-208.5 569.22,-208.5 563.22,-202.5 563.22,-196.5 563.22,-196.5 563.22,-184.5 563.22,-184.5 563.22,-178.5 569.22,-172.5 575.22,-172.5"/>
<text text-anchor="middle" x="594.47" y="-185.7" font-family="Times,serif" font-size="14.00">0:0 &#45; 0:0</text>
</g>
<!-- n6&#45;&gt;x6 -->
<g id="edge27" class="edge">
<title>n6:e&#45;&gt;x6:w</title>
<path fill="none" stroke="black" d="M514.59,-232.5C538.34,-232.5 535.88,-202.78 551.44,-193.49"/>
<polygon fill="black" stroke="black" points="551.92,-196.98 560.75,-191.12 550.2,-190.19 551.92,-196.98"/>
</g>
<!-- n7 -->
<g id="node4" class="node">
<title>n7</title>
<polygon fill="none" stroke="black" points="1479.32,-214.5 1417.55,-196.5 1479.32,-178.5 1541.08,-196.5 1479.32,-214.5"/>
<text text-anchor="middle" x="1479.32" y="-191.45" font-family="Times,serif" font-size="14.00">temp_10</text>
</g>
<!-- x1 -->
<g id="node10" class="node">
<title>x1</title>
<path fill="none" stroke="black" d="M1619.6,-178.5C1619.6,-178.5 1658.1,-178.5 1658.1,-178.5 1664.1,-178.5 1670.1,-184.5 1670.1,-190.5 1670.1,-190.5 1670.1,-202.5 1670.1,-202.5 1670.1,-208.5 1664.1,-214.5 1658.1,-214.5 1658.1,-214.5 1619.6,-214.5 1619.6,-214.5 1613.6,-214.5 1607.6,-208.5 1607.6,-202.5 1607.6,-202.5 1607.6,-190.5 1607.6,-190.5 1607.6,-184.5 1613.6,-178.5 1619.6,-178.5"/>
<text text-anchor="middle" x="1638.85" y="-191.7" font-family="Times,serif" font-size="14.00">0:0 &#45; 0:0</text>
</g>
<!-- n7&#45;&gt;x1 -->
<g id="edge30" class="edge">
<title>n7:e&#45;&gt;x1:w</title>
<path fill="none" stroke="black" d="M1541.08,-196.5C1565.99,-196.5 1574.92,-196.68 1595.21,-196.74"/>
<polygon fill="black" stroke="black" points="1595.08,-200.24 1605.08,-196.75 1595.09,-193.24 1595.08,-200.24"/>
</g>
<!-- n8 -->
<g id="node5" class="node">
<title>n8</title>
<polygon fill="none" stroke="black" points="1638.85,-269.5 1577.08,-251.5 1638.85,-233.5 1700.61,-251.5 1638.85,-269.5"/>
<text text-anchor="middle" x="1638.85" y="-246.45" font-family="Times,serif" font-size="14.00">temp_12</text>
</g>
<!-- c14 -->
<g id="node9" class="node">
<title>c14</title>
<polygon fill="none" stroke="black" points="1849.59,-184 1849.59,-233 1943.34,-233 1943.34,-184 1849.59,-184"/>
<text text-anchor="middle" x="1862.47" y="-215.7" font-family="Times,serif" font-size="14.00">A</text>
<polyline fill="none" stroke="black" points="1849.59,-208.5 1875.34,-208.5"/>
<text text-anchor="middle" x="1862.47" y="-191.2" font-family="Times,serif" font-size="14.00">B</text>
<polyline fill="none" stroke="black" points="1875.34,-184 1875.34,-233"/>
<text text-anchor="middle" x="1896.47" y="-211.7" font-family="Times,serif" font-size="14.00">$30</text>
<text text-anchor="middle" x="1896.47" y="-195.2" font-family="Times,serif" font-size="14.00">$and</text>
<polyline fill="none" stroke="black" points="1917.59,-184 1917.59,-233"/>
<text text-anchor="middle" x="1930.47" y="-203.7" font-family="Times,serif" font-size="14.00">Y</text>
</g>
<!-- n8&#45;&gt;c14 -->
<g id="edge32" class="edge">
<title>n8:e&#45;&gt;c14:w</title>
<path fill="none" stroke="black" d="M1700.61,-251.5C1763.85,-251.5 1779.64,-224.25 1837.31,-221.05"/>
<polygon fill="black" stroke="black" points="1837.18,-224.56 1847.08,-220.79 1836.99,-217.56 1837.18,-224.56"/>
</g>
<!-- n9 -->
<g id="node6" class="node">
<title>n9</title>
<polygon fill="none" stroke="black" points="858.59,-170.5 803.34,-152.5 858.59,-134.5 913.84,-152.5 858.59,-170.5"/>
<text text-anchor="middle" x="858.59" y="-147.45" font-family="Times,serif" font-size="14.00">temp_4</text>
</g>
<!-- c12 -->
<g id="node7" class="node">
<title>c12</title>
<polygon fill="none" stroke="black" points="1063.95,-128 1063.95,-169 1155.45,-169 1155.45,-128 1063.95,-128"/>
<text text-anchor="middle" x="1076.82" y="-143.7" font-family="Times,serif" font-size="14.00">A</text>
<polyline fill="none" stroke="black" points="1089.7,-128 1089.7,-169"/>
<text text-anchor="middle" x="1109.7" y="-151.7" font-family="Times,serif" font-size="14.00">$26</text>
<text text-anchor="middle" x="1109.7" y="-135.2" font-family="Times,serif" font-size="14.00">$not</text>
<polyline fill="none" stroke="black" points="1129.7,-128 1129.7,-169"/>
<text text-anchor="middle" x="1142.57" y="-143.7" font-family="Times,serif" font-size="14.00">Y</text>
</g>
<!-- n9&#45;&gt;c12 -->
<g id="edge34" class="edge">
<title>n9:e&#45;&gt;c12:w</title>
<path fill="none" stroke="black" d="M913.84,-152.5C976.25,-152.5 994.55,-149.18 1051.79,-148.79"/>
<polygon fill="black" stroke="black" points="1051.45,-152.29 1061.43,-148.76 1051.42,-145.29 1051.45,-152.29"/>
</g>
<!-- x0 -->
<g id="node8" class="node">
<title>x0</title>
<path fill="none" stroke="black" d="M1324.3,-130.5C1324.3,-130.5 1362.8,-130.5 1362.8,-130.5 1368.8,-130.5 1374.8,-136.5 1374.8,-142.5 1374.8,-142.5 1374.8,-154.5 1374.8,-154.5 1374.8,-160.5 1368.8,-166.5 1362.8,-166.5 1362.8,-166.5 1324.3,-166.5 1324.3,-166.5 1318.3,-166.5 1312.3,-160.5 1312.3,-154.5 1312.3,-154.5 1312.3,-142.5 1312.3,-142.5 1312.3,-136.5 1318.3,-130.5 1324.3,-130.5"/>
<text text-anchor="middle" x="1343.55" y="-143.7" font-family="Times,serif" font-size="14.00">0:0 &#45; 0:0</text>
</g>
<!-- c12&#45;&gt;x0 -->
<g id="edge1" class="edge">
<title>c12:e&#45;&gt;x0:w</title>
<path fill="none" stroke="black" d="M1169.14,-148.75C1223.59,-148.72 1244.02,-148.53 1298.36,-148.5"/>
<polygon fill="none" stroke="black" points="1169.35,-148.75 1163.35,-152.75 1157.35,-148.75 1163.35,-144.75 1169.35,-148.75"/>
<polygon fill="none" stroke="black" points="1298.4,-148.5 1304.4,-144.5 1310.4,-148.5 1304.4,-152.5 1298.4,-148.5"/>
</g>
<!-- x0&#45;&gt;n7 -->
<g id="edge28" class="edge">
<title>x0:e&#45;&gt;n7:w</title>
<path fill="none" stroke="black" d="M1375.8,-148.75C1399.37,-148.75 1393.01,-182.12 1406.76,-193.07"/>
<polygon fill="black" stroke="black" points="1405.52,-196.35 1416.11,-196.04 1407.64,-189.67 1405.52,-196.35"/>
</g>
<!-- x2 -->
<g id="node11" class="node">
<title>x2</title>
<path fill="none" stroke="black" d="M2111.07,-184.5C2111.07,-184.5 2149.57,-184.5 2149.57,-184.5 2155.57,-184.5 2161.57,-190.5 2161.57,-196.5 2161.57,-196.5 2161.57,-208.5 2161.57,-208.5 2161.57,-214.5 2155.57,-220.5 2149.57,-220.5 2149.57,-220.5 2111.07,-220.5 2111.07,-220.5 2105.07,-220.5 2099.07,-214.5 2099.07,-208.5 2099.07,-208.5 2099.07,-196.5 2099.07,-196.5 2099.07,-190.5 2105.07,-184.5 2111.07,-184.5"/>
<text text-anchor="middle" x="2130.32" y="-197.7" font-family="Times,serif" font-size="14.00">0:0 &#45; 0:0</text>
</g>
<!-- c14&#45;&gt;x2 -->
<g id="edge3" class="edge">
<title>c14:e&#45;&gt;x2:w</title>
<path fill="none" stroke="black" d="M1957.31,-208.67C2011.13,-208 2031.36,-203.24 2085.24,-202.58"/>
<polygon fill="none" stroke="black" points="1957.24,-208.67 1951.27,-212.71 1945.24,-208.74 1951.22,-204.71 1957.24,-208.67"/>
<polygon fill="none" stroke="black" points="2085.17,-202.58 2091.15,-198.54 2097.17,-202.51 2091.19,-206.54 2085.17,-202.58"/>
</g>
<!-- x1&#45;&gt;c14 -->
<g id="edge2" class="edge">
<title>x1:e&#45;&gt;c14:w</title>
<path fill="none" stroke="black" d="M1683.95,-196.5C1748.26,-196.47 1771.37,-196.28 1835.63,-196.25"/>
<polygon fill="none" stroke="black" points="1684,-196.5 1678,-200.5 1672,-196.5 1678,-192.5 1684,-196.5"/>
<polygon fill="none" stroke="black" points="1835.69,-196.25 1841.69,-192.25 1847.69,-196.25 1841.69,-200.25 1835.69,-196.25"/>
</g>
<!-- n1 -->
<g id="node29" class="node">
<title>n1</title>
<ellipse fill="black" stroke="black" cx="2206.12" cy="-144.5" rx="1.8" ry="1.8"/>
</g>
<!-- x2&#45;&gt;n1 -->
<g id="edge11" class="edge">
<title>x2:e&#45;&gt;n1:w</title>
<path fill="none" stroke="black" d="M2162.57,-202.75C2189.94,-202.75 2177.58,-159.73 2193.78,-147.63"/>
<polygon fill="black" stroke="black" points="2194.28,-151.13 2202.87,-144.93 2192.29,-144.42 2194.28,-151.13"/>
</g>
<!-- c15 -->
<g id="node12" class="node">
<title>c15</title>
<polygon fill="none" stroke="black" points="2342.42,-84 2342.42,-133 2434.67,-133 2434.67,-84 2342.42,-84"/>
<text text-anchor="middle" x="2355.3" y="-115.7" font-family="Times,serif" font-size="14.00">A</text>
<polyline fill="none" stroke="black" points="2342.42,-108.5 2368.17,-108.5"/>
<text text-anchor="middle" x="2355.3" y="-91.2" font-family="Times,serif" font-size="14.00">B</text>
<polyline fill="none" stroke="black" points="2368.17,-84 2368.17,-133"/>
<text text-anchor="middle" x="2388.55" y="-111.7" font-family="Times,serif" font-size="14.00">$37</text>
<text text-anchor="middle" x="2388.55" y="-95.2" font-family="Times,serif" font-size="14.00">$xor</text>
<polyline fill="none" stroke="black" points="2408.92,-84 2408.92,-133"/>
<text text-anchor="middle" x="2421.8" y="-103.7" font-family="Times,serif" font-size="14.00">Y</text>
</g>
<!-- x5 -->
<g id="node15" class="node">
<title>x5</title>
<path fill="none" stroke="black" d="M2482.67,-84.5C2482.67,-84.5 2521.17,-84.5 2521.17,-84.5 2527.17,-84.5 2533.17,-90.5 2533.17,-96.5 2533.17,-96.5 2533.17,-108.5 2533.17,-108.5 2533.17,-114.5 2527.17,-120.5 2521.17,-120.5 2521.17,-120.5 2482.67,-120.5 2482.67,-120.5 2476.67,-120.5 2470.67,-114.5 2470.67,-108.5 2470.67,-108.5 2470.67,-96.5 2470.67,-96.5 2470.67,-90.5 2476.67,-84.5 2482.67,-84.5"/>
<text text-anchor="middle" x="2501.92" y="-97.7" font-family="Times,serif" font-size="14.00">0:0 &#45; 0:0</text>
</g>
<!-- c15&#45;&gt;x5 -->
<g id="edge6" class="edge">
<title>c15:e&#45;&gt;x5:w</title>
<path fill="none" stroke="black" d="M2447.45,-107.17C2451.13,-106.22 2454.29,-105.01 2457.98,-104.05"/>
<polygon fill="none" stroke="black" points="2447.48,-107.17 2442.01,-111.87 2435.57,-108.64 2441.03,-103.93 2447.48,-107.17"/>
<polygon fill="none" stroke="black" points="2457.87,-104.07 2463.33,-99.37 2469.78,-102.61 2464.31,-107.31 2457.87,-104.07"/>
</g>
<!-- x3 -->
<g id="node13" class="node">
<title>x3</title>
<path fill="none" stroke="black" d="M2255.92,-126.5C2255.92,-126.5 2294.42,-126.5 2294.42,-126.5 2300.42,-126.5 2306.42,-132.5 2306.42,-138.5 2306.42,-138.5 2306.42,-150.5 2306.42,-150.5 2306.42,-156.5 2300.42,-162.5 2294.42,-162.5 2294.42,-162.5 2255.92,-162.5 2255.92,-162.5 2249.92,-162.5 2243.92,-156.5 2243.92,-150.5 2243.92,-150.5 2243.92,-138.5 2243.92,-138.5 2243.92,-132.5 2249.92,-126.5 2255.92,-126.5"/>
<text text-anchor="middle" x="2275.17" y="-139.7" font-family="Times,serif" font-size="14.00">0:0 &#45; 0:0</text>
</g>
<!-- x3&#45;&gt;c15 -->
<g id="edge4" class="edge">
<title>x3:e&#45;&gt;c15:w</title>
<path fill="none" stroke="black" d="M2318.45,-139.92C2323.04,-135.72 2325.82,-129.52 2330.41,-125.32"/>
<polygon fill="none" stroke="black" points="2318.48,-139.91 2314.29,-145.78 2307.26,-144.18 2311.45,-138.31 2318.48,-139.91"/>
<polygon fill="none" stroke="black" points="2330.36,-125.33 2334.55,-119.46 2341.58,-121.07 2337.39,-126.94 2330.36,-125.33"/>
</g>
<!-- x4&#45;&gt;c15 -->
<g id="edge5" class="edge">
<title>x4:e&#45;&gt;c15:w</title>
<path fill="none" stroke="black" d="M504.54,-96.5C595.41,-96.5 622.86,-96.5 719.84,-96.5 719.84,-96.5 719.84,-96.5 2207.12,-96.5 2262.67,-96.5 2279.74,-96.29 2329.42,-96.25"/>
<polygon fill="none" stroke="black" points="504.49,-96.5 498.49,-100.5 492.49,-96.5 498.49,-92.5 504.49,-96.5"/>
<polygon fill="none" stroke="black" points="2329.52,-96.25 2335.52,-92.25 2341.52,-96.25 2335.52,-100.25 2329.52,-96.25"/>
</g>
<!-- x5&#45;&gt;n5 -->
<g id="edge23" class="edge">
<title>x5:e&#45;&gt;n5:w</title>
<path fill="none" stroke="black" d="M2533.17,-102.75C2548.53,-102.75 2549.71,-86.78 2558.43,-79.29"/>
<polygon fill="black" stroke="black" points="2559.48,-82.63 2567.74,-76 2557.15,-76.03 2559.48,-82.63"/>
</g>
<!-- c16&#45;&gt;n8 -->
<g id="edge31" class="edge">
<title>c16:e&#45;&gt;n8:w</title>
<path fill="none" stroke="black" d="M765.72,-251.75C918.15,-251.75 956.26,-251.5 1108.7,-251.5 1108.7,-251.5 1108.7,-251.5 1344.55,-251.5 1443.96,-251.5 1471.66,-251.5 1565.6,-251.5"/>
<polygon fill="black" stroke="black" points="1565.57,-255 1575.57,-251.5 1565.57,-248 1565.57,-255"/>
</g>
<!-- c17&#45;&gt;c16 -->
<g id="edge13" class="edge">
<title>c17:e&#45;&gt;c16:w</title>
<path fill="none" stroke="black" d="M638.34,-290.75C654.26,-290.75 655.75,-274.6 665.13,-267.28"/>
<polygon fill="black" stroke="black" points="666.1,-270.64 674.53,-264.22 663.94,-263.99 666.1,-270.64"/>
</g>
<!-- c18&#45;&gt;c20 -->
<g id="edge14" class="edge">
<title>c18:e&#45;&gt;c20:w</title>
<path fill="none" stroke="black" stroke-width="3" d="M239.84,-240.75C251.22,-240.75 256.53,-240.75 264.39,-240.75"/>
<polygon fill="black" stroke="black" stroke-width="3" points="261.3,-244.25 271.3,-240.75 261.3,-237.25 261.3,-244.25"/>
</g>
<!-- c19 -->
<g id="node19" class="node">
<title>c19</title>
<polygon fill="none" stroke="black" points="674.34,-131 674.34,-180 767.34,-180 767.34,-131 674.34,-131"/>
<text text-anchor="middle" x="687.22" y="-162.7" font-family="Times,serif" font-size="14.00">A</text>
<polyline fill="none" stroke="black" points="674.34,-155.5 700.09,-155.5"/>
<text text-anchor="middle" x="687.22" y="-138.2" font-family="Times,serif" font-size="14.00">B</text>
<polyline fill="none" stroke="black" points="700.09,-131 700.09,-180"/>
<text text-anchor="middle" x="720.84" y="-158.7" font-family="Times,serif" font-size="14.00">$5</text>
<text text-anchor="middle" x="720.84" y="-142.2" font-family="Times,serif" font-size="14.00">$sub</text>
<polyline fill="none" stroke="black" points="741.59,-131 741.59,-180"/>
<text text-anchor="middle" x="754.47" y="-150.7" font-family="Times,serif" font-size="14.00">Y</text>
</g>
<!-- c19&#45;&gt;n9 -->
<g id="edge33" class="edge">
<title>c19:e&#45;&gt;n9:w</title>
<path fill="none" stroke="black" d="M767.34,-155.75C778.76,-155.75 784.02,-154.11 791.88,-153.16"/>
<polygon fill="black" stroke="black" points="792.05,-156.65 801.83,-152.59 791.65,-149.67 792.05,-156.65"/>
</g>
<!-- x6&#45;&gt;c19 -->
<g id="edge7" class="edge">
<title>x6:e&#45;&gt;c19:w</title>
<path fill="none" stroke="black" d="M639.32,-187.71C648.13,-183.34 652.9,-174.94 661.69,-170.56"/>
<polygon fill="none" stroke="black" points="639.31,-187.71 634.32,-192.91 627.6,-190.31 632.59,-185.1 639.31,-187.71"/>
<polygon fill="none" stroke="black" points="661.75,-170.55 666.74,-165.34 673.46,-167.95 668.47,-173.15 661.75,-170.55"/>
</g>
<!-- x7&#45;&gt;c19 -->
<g id="edge8" class="edge">
<title>x7:e&#45;&gt;c19:w</title>
<path fill="none" stroke="black" d="M367.25,-149.48C494.6,-149.13 533.96,-143.62 661.32,-143.27"/>
<polygon fill="none" stroke="black" points="367.12,-149.48 361.12,-153.49 355.12,-149.5 361.11,-145.49 367.12,-149.48"/>
<polygon fill="none" stroke="black" points="661.44,-143.27 667.44,-139.26 673.44,-143.25 667.45,-147.26 661.44,-143.27"/>
</g>
<!-- c20&#45;&gt;n6 -->
<g id="edge24" class="edge">
<title>c20:e&#45;&gt;n6:w</title>
<path fill="none" stroke="black" stroke-width="3" d="M368.09,-228.75C379.53,-228.75 384.77,-230.65 392.62,-231.74"/>
<polygon fill="black" stroke="black" stroke-width="3" points="389.35,-235.03 399.56,-232.2 389.81,-228.05 389.35,-235.03"/>
</g>
<!-- v8 -->
<g id="node23" class="node">
<title>v8</title>
<ellipse fill="none" stroke="black" cx="1109.7" cy="-205.5" rx="159.85" ry="18"/>
<text text-anchor="middle" x="1109.7" y="-200.45" font-family="Times,serif" font-size="14.00">30&#39;111111111111111111111111111111</text>
</g>
<!-- x9 -->
<g id="node24" class="node">
<title>x9</title>
<path fill="none" stroke="black" d="M1317.55,-186.5C1317.55,-186.5 1369.55,-186.5 1369.55,-186.5 1375.55,-186.5 1381.55,-192.5 1381.55,-198.5 1381.55,-198.5 1381.55,-210.5 1381.55,-210.5 1381.55,-216.5 1375.55,-222.5 1369.55,-222.5 1369.55,-222.5 1317.55,-222.5 1317.55,-222.5 1311.55,-222.5 1305.55,-216.5 1305.55,-210.5 1305.55,-210.5 1305.55,-198.5 1305.55,-198.5 1305.55,-192.5 1311.55,-186.5 1317.55,-186.5"/>
<text text-anchor="middle" x="1343.55" y="-199.7" font-family="Times,serif" font-size="14.00">29:0 &#45; 30:1</text>
</g>
<!-- v8&#45;&gt;x9 -->
<g id="edge36" class="edge">
<title>v8:e&#45;&gt;x9:w</title>
<path fill="none" stroke="black" stroke-width="3" d="M1269.55,-205.5C1280.93,-205.5 1286.24,-204.99 1294.1,-204.7"/>
<polygon fill="black" stroke="black" stroke-width="3" points="1291.08,-208.26 1301.01,-204.58 1290.95,-201.26 1291.08,-208.26"/>
</g>
<!-- x9&#45;&gt;n7 -->
<g id="edge29" class="edge">
<title>x9:e&#45;&gt;n7:w</title>
<path fill="none" stroke="black" stroke-width="3" d="M1381.55,-204.75C1393.35,-204.75 1398.31,-200.49 1406.26,-198.09"/>
<polygon fill="black" stroke="black" stroke-width="3" points="1403.64,-201.99 1413.06,-197.13 1402.67,-195.06 1403.64,-201.99"/>
</g>
<!-- x11 -->
<g id="node26" class="node">
<title>x11</title>
<path fill="none" stroke="black" d="M1453.32,-31.5C1453.32,-31.5 1505.32,-31.5 1505.32,-31.5 1511.32,-31.5 1517.32,-37.5 1517.32,-43.5 1517.32,-43.5 1517.32,-55.5 1517.32,-55.5 1517.32,-61.5 1511.32,-67.5 1505.32,-67.5 1505.32,-67.5 1453.32,-67.5 1453.32,-67.5 1447.32,-67.5 1441.32,-61.5 1441.32,-55.5 1441.32,-55.5 1441.32,-43.5 1441.32,-43.5 1441.32,-37.5 1447.32,-31.5 1453.32,-31.5"/>
<text text-anchor="middle" x="1479.32" y="-44.7" font-family="Times,serif" font-size="14.00">36:0 &#45; 37:1</text>
</g>
<!-- x10&#45;&gt;x11 -->
<g id="edge9" class="edge">
<title>x10:e&#45;&gt;x11:w</title>
<path fill="none" stroke="black" stroke-width="3" d="M239.22,-49.5C331.81,-49.5 359.66,-49.5 458.34,-49.5 458.34,-49.5 458.34,-49.5 1110.7,-49.5 1252.76,-49.5 1291.5,-49.5 1427.31,-49.5"/>
<polygon fill="none" stroke="black" stroke-width="3" points="241.05,-49.5 235.05,-53.5 229.05,-49.5 235.05,-45.5 241.05,-49.5"/>
<polygon fill="none" stroke="black" stroke-width="3" points="1425.61,-49.5 1431.61,-45.5 1437.61,-49.5 1431.61,-53.5 1425.61,-49.5"/>
</g>
<!-- x11&#45;&gt;n5 -->
<g id="edge22" class="edge">
<title>x11:e&#45;&gt;n5:w</title>
<path fill="none" stroke="black" stroke-width="3" d="M1518.32,-49.75C1685.94,-49.75 1727.84,-52.5 1895.47,-52.5 1895.47,-52.5 1895.47,-52.5 2389.55,-52.5 2466.1,-52.5 2486.72,-73.31 2557.81,-75.34"/>
<polygon fill="black" stroke="black" stroke-width="3" points="2554.58,-78.8 2564.63,-75.44 2554.68,-71.8 2554.58,-78.8"/>
</g>
<!-- v12 -->
<g id="node27" class="node">
<title>v12</title>
<ellipse fill="none" stroke="black" cx="1896.47" cy="-144.5" rx="159.85" ry="18"/>
<text text-anchor="middle" x="1896.47" y="-139.45" font-family="Times,serif" font-size="14.00">30&#39;000000000000000000000000000000</text>
</g>
<!-- x13 -->
<g id="node28" class="node">
<title>x13</title>
<path fill="none" stroke="black" d="M2104.32,-126.5C2104.32,-126.5 2156.32,-126.5 2156.32,-126.5 2162.32,-126.5 2168.32,-132.5 2168.32,-138.5 2168.32,-138.5 2168.32,-150.5 2168.32,-150.5 2168.32,-156.5 2162.32,-162.5 2156.32,-162.5 2156.32,-162.5 2104.32,-162.5 2104.32,-162.5 2098.32,-162.5 2092.32,-156.5 2092.32,-150.5 2092.32,-150.5 2092.32,-138.5 2092.32,-138.5 2092.32,-132.5 2098.32,-126.5 2104.32,-126.5"/>
<text text-anchor="middle" x="2130.32" y="-139.7" font-family="Times,serif" font-size="14.00">29:0 &#45; 30:1</text>
</g>
<!-- v12&#45;&gt;x13 -->
<g id="edge35" class="edge">
<title>v12:e&#45;&gt;x13:w</title>
<path fill="none" stroke="black" stroke-width="3" d="M2056.32,-144.5C2067.7,-144.5 2073.01,-144.5 2080.87,-144.5"/>
<polygon fill="black" stroke="black" stroke-width="3" points="2077.78,-148 2087.78,-144.5 2077.78,-141 2077.78,-148"/>
</g>
<!-- x13&#45;&gt;n1 -->
<g id="edge10" class="edge">
<title>x13:e&#45;&gt;n1:w</title>
<path fill="none" stroke="black" stroke-width="3" d="M2168.32,-144.75C2179.7,-144.75 2185.01,-144.62 2192.87,-144.55"/>
<polygon fill="black" stroke="black" stroke-width="3" points="2189.8,-148.06 2199.78,-144.52 2189.77,-141.06 2189.8,-148.06"/>
</g>
<!-- n1&#45;&gt;x3 -->
<g id="edge12" class="edge">
<title>n1:e&#45;&gt;x3:w</title>
<path fill="none" stroke="black" d="M2207.92,-144.5C2219.3,-144.5 2224.61,-144.63 2232.47,-144.7"/>
<polygon fill="black" stroke="black" points="2232.39,-148.2 2242.41,-144.74 2232.42,-141.2 2232.39,-148.2"/>
</g>
</g>
</svg>
