<?xml version="1.0" encoding="UTF-8" standalone="no"?>
<!DOCTYPE svg PUBLIC "-//W3C//DTD SVG 1.1//EN"
 "http://www.w3.org/Graphics/SVG/1.1/DTD/svg11.dtd">
<!-- Generated by graphviz version 12.2.1 (20241206.2353)
 -->
<!-- Title: top Pages: 1 -->
<svg width="4820pt" height="706pt"
 viewBox="0.00 0.00 4819.82 706.00" xmlns="http://www.w3.org/2000/svg" xmlns:xlink="http://www.w3.org/1999/xlink">
<g id="graph0" class="graph" transform="scale(1 1) rotate(0) translate(4 702)">
<title>top</title>
<polygon fill="white" stroke="none" points="-4,4 -4,-702 4815.82,-702 4815.82,4 -4,4"/>
<text text-anchor="middle" x="2405.91" y="-7.2" font-family="Times,serif" font-size="14.00">top</text>
<!-- n21 -->
<g id="node1" class="node">
<title>n21</title>
<polygon fill="none" stroke="black" points="3435,-215 3350.79,-197 3435,-179 3519.2,-197 3435,-215"/>
<text text-anchor="middle" x="3435" y="-191.95" font-family="Times,serif" font-size="14.00">expr_983701</text>
</g>
<!-- c38 -->
<g id="node18" class="node">
<title>c38</title>
<polygon fill="none" stroke="black" points="3667.2,-215.5 3667.2,-264.5 3760.95,-264.5 3760.95,-215.5 3667.2,-215.5"/>
<text text-anchor="middle" x="3680.07" y="-247.2" font-family="Times,serif" font-size="14.00">A</text>
<polyline fill="none" stroke="black" points="3667.2,-240 3692.95,-240"/>
<text text-anchor="middle" x="3680.07" y="-222.7" font-family="Times,serif" font-size="14.00">B</text>
<polyline fill="none" stroke="black" points="3692.95,-215.5 3692.95,-264.5"/>
<text text-anchor="middle" x="3714.07" y="-243.2" font-family="Times,serif" font-size="14.00">$27</text>
<text text-anchor="middle" x="3714.07" y="-226.7" font-family="Times,serif" font-size="14.00">$add</text>
<polyline fill="none" stroke="black" points="3735.2,-215.5 3735.2,-264.5"/>
<text text-anchor="middle" x="3748.07" y="-235.2" font-family="Times,serif" font-size="14.00">Y</text>
</g>
<!-- n21&#45;&gt;c38 -->
<g id="edge59" class="edge">
<title>n21:e&#45;&gt;c38:w</title>
<path fill="none" stroke="black" stroke-width="3" d="M3519.2,-197C3582.45,-197 3598.24,-224.25 3655.92,-227.45"/>
<polygon fill="black" stroke="black" stroke-width="3" points="3652.57,-230.86 3662.66,-227.63 3652.76,-223.86 3652.57,-230.86"/>
</g>
<!-- n22 -->
<g id="node2" class="node">
<title>n22</title>
<polygon fill="none" stroke="black" points="107.84,-309.54 107.84,-324.46 76.26,-335 31.59,-335 0,-324.46 0,-309.54 31.59,-299 76.26,-299 107.84,-309.54"/>
<text text-anchor="middle" x="53.92" y="-311.95" font-family="Times,serif" font-size="14.00">input_data</text>
</g>
<!-- c34 -->
<g id="node11" class="node">
<title>c34</title>
<polygon fill="none" stroke="black" points="1457.85,-143.5 1457.85,-192.5 1551.6,-192.5 1551.6,-143.5 1457.85,-143.5"/>
<text text-anchor="middle" x="1470.73" y="-175.2" font-family="Times,serif" font-size="14.00">A</text>
<polyline fill="none" stroke="black" points="1457.85,-168 1483.6,-168"/>
<text text-anchor="middle" x="1470.73" y="-150.7" font-family="Times,serif" font-size="14.00">B</text>
<polyline fill="none" stroke="black" points="1483.6,-143.5 1483.6,-192.5"/>
<text text-anchor="middle" x="1504.73" y="-171.2" font-family="Times,serif" font-size="14.00">$3</text>
<text text-anchor="middle" x="1504.73" y="-154.7" font-family="Times,serif" font-size="14.00">$add</text>
<polyline fill="none" stroke="black" points="1525.85,-143.5 1525.85,-192.5"/>
<text text-anchor="middle" x="1538.73" y="-163.2" font-family="Times,serif" font-size="14.00">Y</text>
</g>
<!-- n22&#45;&gt;c34 -->
<g id="edge60" class="edge">
<title>n22:e&#45;&gt;c34:w</title>
<path fill="none" stroke="black" stroke-width="3" d="M107.84,-317C169.9,-317 265.03,-144 327.09,-144 327.09,-144 327.09,-144 1067.73,-144 1236.86,-144 1281.83,-155.23 1445.39,-155.73"/>
<polygon fill="black" stroke="black" stroke-width="3" points="1442.3,-159.23 1452.31,-155.74 1442.32,-152.23 1442.3,-159.23"/>
</g>
<!-- x2 -->
<g id="node17" class="node">
<title>x2</title>
<path fill="none" stroke="black" d="M1641.48,-25C1641.48,-25 1679.98,-25 1679.98,-25 1685.98,-25 1691.98,-31 1691.98,-37 1691.98,-37 1691.98,-49 1691.98,-49 1691.98,-55 1685.98,-61 1679.98,-61 1679.98,-61 1641.48,-61 1641.48,-61 1635.48,-61 1629.48,-55 1629.48,-49 1629.48,-49 1629.48,-37 1629.48,-37 1629.48,-31 1635.48,-25 1641.48,-25"/>
<text text-anchor="middle" x="1660.73" y="-38.2" font-family="Times,serif" font-size="14.00">5:3 &#45; 2:0</text>
</g>
<!-- n22&#45;&gt;x2 -->
<g id="edge67" class="edge">
<title>n22:e&#45;&gt;x2:w</title>
<path fill="none" stroke="black" stroke-width="3" d="M107.84,-317C164.85,-317 103.21,-102.99 143.84,-63 202.34,-5.42 245.01,-40 327.09,-40 327.09,-40 327.09,-40 1345.85,-40 1467.54,-40 1500.8,-43.05 1616.97,-43.24"/>
<polygon fill="black" stroke="black" stroke-width="3" points="1613.93,-46.74 1623.93,-43.25 1613.94,-39.74 1613.93,-46.74"/>
</g>
<!-- c40 -->
<g id="node22" class="node">
<title>c40</title>
<polygon fill="none" stroke="black" points="144.59,-72.5 144.59,-113.5 236.09,-113.5 236.09,-72.5 144.59,-72.5"/>
<text text-anchor="middle" x="157.47" y="-88.2" font-family="Times,serif" font-size="14.00">A</text>
<polyline fill="none" stroke="black" points="170.34,-72.5 170.34,-113.5"/>
<text text-anchor="middle" x="190.34" y="-96.2" font-family="Times,serif" font-size="14.00">$53</text>
<text text-anchor="middle" x="190.34" y="-79.7" font-family="Times,serif" font-size="14.00">$not</text>
<polyline fill="none" stroke="black" points="210.34,-72.5 210.34,-113.5"/>
<text text-anchor="middle" x="223.22" y="-88.2" font-family="Times,serif" font-size="14.00">Y</text>
</g>
<!-- n22&#45;&gt;c40 -->
<g id="edge61" class="edge">
<title>n22:e&#45;&gt;c40:w</title>
<path fill="none" stroke="black" stroke-width="3" d="M107.84,-317C204.43,-317 56.24,-111.23 132.75,-94.35"/>
<polygon fill="black" stroke="black" stroke-width="3" points="129.72,-98.17 139.32,-93.7 129.03,-91.2 129.72,-98.17"/>
</g>
<!-- c43 -->
<g id="node26" class="node">
<title>c43</title>
<polygon fill="none" stroke="black" points="1159.48,-577.5 1159.48,-626.5 1255.48,-626.5 1255.48,-577.5 1159.48,-577.5"/>
<text text-anchor="middle" x="1172.35" y="-609.2" font-family="Times,serif" font-size="14.00">A</text>
<polyline fill="none" stroke="black" points="1159.48,-602 1185.23,-602"/>
<text text-anchor="middle" x="1172.35" y="-584.7" font-family="Times,serif" font-size="14.00">B</text>
<polyline fill="none" stroke="black" points="1185.23,-577.5 1185.23,-626.5"/>
<text text-anchor="middle" x="1207.48" y="-605.2" font-family="Times,serif" font-size="14.00">$10</text>
<text text-anchor="middle" x="1207.48" y="-588.7" font-family="Times,serif" font-size="14.00">$mul</text>
<polyline fill="none" stroke="black" points="1229.73,-577.5 1229.73,-626.5"/>
<text text-anchor="middle" x="1242.6" y="-597.2" font-family="Times,serif" font-size="14.00">Y</text>
</g>
<!-- n22&#45;&gt;c43 -->
<g id="edge62" class="edge">
<title>n22:e&#45;&gt;c43:w</title>
<path fill="none" stroke="black" stroke-width="3" d="M107.84,-317C184.2,-317 109.89,-416.6 143.84,-485 199.37,-596.86 202.21,-698 327.09,-698 327.09,-698 327.09,-698 921.6,-698 1015.08,-698 1046.96,-692.7 1123.48,-639 1141.85,-626.1 1135.89,-600.79 1148.69,-592.47"/>
<polygon fill="black" stroke="black" stroke-width="3" points="1146.23,-596.7 1155.07,-590.86 1144.52,-589.91 1146.23,-596.7"/>
</g>
<!-- x12 -->
<g id="node37" class="node">
<title>x12</title>
<path fill="none" stroke="black" d="M308.84,-556C308.84,-556 347.34,-556 347.34,-556 353.34,-556 359.34,-562 359.34,-568 359.34,-568 359.34,-580 359.34,-580 359.34,-586 353.34,-592 347.34,-592 347.34,-592 308.84,-592 308.84,-592 302.84,-592 296.84,-586 296.84,-580 296.84,-580 296.84,-568 296.84,-568 296.84,-562 302.84,-556 308.84,-556"/>
<text text-anchor="middle" x="328.09" y="-569.2" font-family="Times,serif" font-size="14.00">9:1 &#45; 8:0</text>
</g>
<!-- n22&#45;&gt;x12 -->
<g id="edge66" class="edge">
<title>n22:e&#45;&gt;x12:w</title>
<path fill="none" stroke="black" stroke-width="3" d="M107.84,-317C141.64,-317 125.21,-355.79 143.84,-384 201.32,-471.05 188.66,-567.04 284.59,-573.86"/>
<polygon fill="black" stroke="black" stroke-width="3" points="281.19,-577.25 291.3,-574.09 281.43,-570.25 281.19,-577.25"/>
</g>
<!-- c51 -->
<g id="node44" class="node">
<title>c51</title>
<polygon fill="none" stroke="black" points="143.84,-325.5 143.84,-374.5 236.84,-374.5 236.84,-325.5 143.84,-325.5"/>
<text text-anchor="middle" x="156.72" y="-357.2" font-family="Times,serif" font-size="14.00">A</text>
<polyline fill="none" stroke="black" points="143.84,-350 169.59,-350"/>
<text text-anchor="middle" x="156.72" y="-332.7" font-family="Times,serif" font-size="14.00">B</text>
<polyline fill="none" stroke="black" points="169.59,-325.5 169.59,-374.5"/>
<text text-anchor="middle" x="190.34" y="-353.2" font-family="Times,serif" font-size="14.00">$1</text>
<text text-anchor="middle" x="190.34" y="-336.7" font-family="Times,serif" font-size="14.00">$sub</text>
<polyline fill="none" stroke="black" points="211.09,-325.5 211.09,-374.5"/>
<text text-anchor="middle" x="223.97" y="-345.2" font-family="Times,serif" font-size="14.00">Y</text>
</g>
<!-- n22&#45;&gt;c51 -->
<g id="edge63" class="edge">
<title>n22:e&#45;&gt;c51:w</title>
<path fill="none" stroke="black" stroke-width="3" d="M107.84,-317C128.72,-317 122.47,-346.87 133.18,-358.07"/>
<polygon fill="black" stroke="black" stroke-width="3" points="129.03,-360.21 139.61,-360.59 131.58,-353.69 129.03,-360.21"/>
</g>
<!-- n22&#45;&gt;c51 -->
<g id="edge64" class="edge">
<title>n22:e&#45;&gt;c51:w</title>
<path fill="none" stroke="black" stroke-width="3" d="M107.84,-317C121.69,-317 124.63,-328.67 133.02,-334.51"/>
<polygon fill="black" stroke="black" stroke-width="3" points="128.91,-336.93 139.49,-336.45 130.92,-330.22 128.91,-336.93"/>
</g>
<!-- c52 -->
<g id="node45" class="node">
<title>c52</title>
<polygon fill="none" stroke="black" points="419.34,-260.5 419.34,-309.5 512.34,-309.5 512.34,-260.5 419.34,-260.5"/>
<text text-anchor="middle" x="432.22" y="-292.2" font-family="Times,serif" font-size="14.00">A</text>
<polyline fill="none" stroke="black" points="419.34,-285 445.09,-285"/>
<text text-anchor="middle" x="432.22" y="-267.7" font-family="Times,serif" font-size="14.00">B</text>
<polyline fill="none" stroke="black" points="445.09,-260.5 445.09,-309.5"/>
<text text-anchor="middle" x="465.84" y="-288.2" font-family="Times,serif" font-size="14.00">$2</text>
<text text-anchor="middle" x="465.84" y="-271.7" font-family="Times,serif" font-size="14.00">$sub</text>
<polyline fill="none" stroke="black" points="486.59,-260.5 486.59,-309.5"/>
<text text-anchor="middle" x="499.47" y="-280.2" font-family="Times,serif" font-size="14.00">Y</text>
</g>
<!-- n22&#45;&gt;c52 -->
<g id="edge65" class="edge">
<title>n22:e&#45;&gt;c52:w</title>
<path fill="none" stroke="black" stroke-width="3" d="M107.84,-317C173.68,-317 332.7,-299.2 408,-297.4"/>
<polygon fill="black" stroke="black" stroke-width="3" points="404.85,-300.94 414.8,-297.31 404.76,-293.94 404.85,-300.94"/>
</g>
<!-- n23 -->
<g id="node3" class="node">
<title>n23</title>
<polygon fill="none" stroke="black" points="4811.82,-133.54 4811.82,-148.46 4777.32,-159 4728.52,-159 4694.01,-148.46 4694.01,-133.54 4728.52,-123 4777.32,-123 4811.82,-133.54"/>
<text text-anchor="middle" x="4752.92" y="-135.95" font-family="Times,serif" font-size="14.00">output_data</text>
</g>
<!-- n24 -->
<g id="node4" class="node">
<title>n24</title>
<polygon fill="none" stroke="black" points="328.09,-427 272.84,-409 328.09,-391 383.34,-409 328.09,-427"/>
<text text-anchor="middle" x="328.09" y="-403.95" font-family="Times,serif" font-size="14.00">temp_0</text>
</g>
<!-- c39 -->
<g id="node21" class="node">
<title>c39</title>
<polygon fill="none" stroke="black" points="549.09,-371.5 549.09,-412.5 640.59,-412.5 640.59,-371.5 549.09,-371.5"/>
<text text-anchor="middle" x="561.97" y="-387.2" font-family="Times,serif" font-size="14.00">A</text>
<polyline fill="none" stroke="black" points="574.84,-371.5 574.84,-412.5"/>
<text text-anchor="middle" x="594.84" y="-395.2" font-family="Times,serif" font-size="14.00">$49</text>
<text text-anchor="middle" x="594.84" y="-378.7" font-family="Times,serif" font-size="14.00">$not</text>
<polyline fill="none" stroke="black" points="614.84,-371.5 614.84,-412.5"/>
<text text-anchor="middle" x="627.72" y="-387.2" font-family="Times,serif" font-size="14.00">Y</text>
</g>
<!-- n24&#45;&gt;c39 -->
<g id="edge71" class="edge">
<title>n24:e&#45;&gt;c39:w</title>
<path fill="none" stroke="black" stroke-width="3" d="M383.34,-409C409.65,-409 395.75,-373.65 419.34,-362 456.4,-343.7 473.51,-347.85 512.34,-362 527.53,-367.53 528.26,-382.6 537.48,-389.15"/>
<polygon fill="black" stroke="black" stroke-width="3" points="533.4,-391.62 543.98,-391 535.32,-384.89 533.4,-391.62"/>
</g>
<!-- x11 -->
<g id="node36" class="node">
<title>x11</title>
<path fill="none" stroke="black" d="M446.59,-595C446.59,-595 485.09,-595 485.09,-595 491.09,-595 497.09,-601 497.09,-607 497.09,-607 497.09,-619 497.09,-619 497.09,-625 491.09,-631 485.09,-631 485.09,-631 446.59,-631 446.59,-631 440.59,-631 434.59,-625 434.59,-619 434.59,-619 434.59,-607 434.59,-607 434.59,-601 440.59,-595 446.59,-595"/>
<text text-anchor="middle" x="465.84" y="-608.2" font-family="Times,serif" font-size="14.00">8:0 &#45; 8:0</text>
</g>
<!-- n24&#45;&gt;x11 -->
<g id="edge74" class="edge">
<title>n24:e&#45;&gt;x11:w</title>
<path fill="none" stroke="black" stroke-width="3" d="M383.34,-409C472.63,-409 351.93,-595.31 422.35,-612.05"/>
<polygon fill="black" stroke="black" stroke-width="3" points="418.76,-615.19 429.08,-612.77 419.5,-608.23 418.76,-615.19"/>
</g>
<!-- n24&#45;&gt;c52 -->
<g id="edge72" class="edge">
<title>n24:e&#45;&gt;c52:w</title>
<path fill="none" stroke="black" stroke-width="3" d="M383.34,-409C441.57,-409 368.51,-291.24 408.28,-274.68"/>
<polygon fill="black" stroke="black" stroke-width="3" points="405.62,-278.69 414.87,-273.53 404.42,-271.8 405.62,-278.69"/>
</g>
<!-- c54 -->
<g id="node50" class="node">
<title>c54</title>
<polygon fill="none" stroke="black" points="548.34,-453.5 548.34,-502.5 641.34,-502.5 641.34,-453.5 548.34,-453.5"/>
<text text-anchor="middle" x="561.22" y="-485.2" font-family="Times,serif" font-size="14.00">A</text>
<polyline fill="none" stroke="black" points="548.34,-478 574.09,-478"/>
<text text-anchor="middle" x="561.22" y="-460.7" font-family="Times,serif" font-size="14.00">B</text>
<polyline fill="none" stroke="black" points="574.09,-453.5 574.09,-502.5"/>
<text text-anchor="middle" x="594.84" y="-481.2" font-family="Times,serif" font-size="14.00">$9</text>
<text text-anchor="middle" x="594.84" y="-464.7" font-family="Times,serif" font-size="14.00">$sub</text>
<polyline fill="none" stroke="black" points="615.59,-453.5 615.59,-502.5"/>
<text text-anchor="middle" x="628.47" y="-473.2" font-family="Times,serif" font-size="14.00">Y</text>
</g>
<!-- n24&#45;&gt;c54 -->
<g id="edge73" class="edge">
<title>n24:e&#45;&gt;c54:w</title>
<path fill="none" stroke="black" stroke-width="3" d="M383.34,-409C400.51,-409 402.47,-398.17 419.34,-395 459.97,-387.38 477.11,-373.39 512.34,-395 538.42,-410.99 519.81,-452.45 537.41,-463.18"/>
<polygon fill="black" stroke="black" stroke-width="3" points="533.39,-465.83 543.92,-464.71 534.99,-459.02 533.39,-465.83"/>
</g>
<!-- x19 -->
<g id="node51" class="node">
<title>x19</title>
<path fill="none" stroke="black" d="M440.97,-404.25C440.97,-404.25 490.72,-404.25 490.72,-404.25 496.72,-404.25 502.72,-410.25 502.72,-416.25 502.72,-416.25 502.72,-563.75 502.72,-563.75 502.72,-569.75 496.72,-575.75 490.72,-575.75 490.72,-575.75 440.97,-575.75 440.97,-575.75 434.97,-575.75 428.97,-569.75 428.97,-563.75 428.97,-563.75 428.97,-416.25 428.97,-416.25 428.97,-410.25 434.97,-404.25 440.97,-404.25"/>
<text text-anchor="middle" x="465.84" y="-558.45" font-family="Times,serif" font-size="14.00">1 &#45;&gt; 11:10</text>
<polyline fill="none" stroke="black" points="428.97,-551.25 502.72,-551.25"/>
<text text-anchor="middle" x="465.84" y="-533.95" font-family="Times,serif" font-size="14.00">9:9 &#45; 9:9</text>
<polyline fill="none" stroke="black" points="428.97,-526.75 502.72,-526.75"/>
<text text-anchor="middle" x="465.84" y="-509.45" font-family="Times,serif" font-size="14.00">1 &#45;&gt; 8:7</text>
<polyline fill="none" stroke="black" points="428.97,-502.25 502.72,-502.25"/>
<text text-anchor="middle" x="465.84" y="-484.95" font-family="Times,serif" font-size="14.00">6:6 &#45; 6:6</text>
<polyline fill="none" stroke="black" points="428.97,-477.75 502.72,-477.75"/>
<text text-anchor="middle" x="465.84" y="-460.45" font-family="Times,serif" font-size="14.00">1 &#45;&gt; 5:4</text>
<polyline fill="none" stroke="black" points="428.97,-453.25 502.72,-453.25"/>
<text text-anchor="middle" x="465.84" y="-435.95" font-family="Times,serif" font-size="14.00">3:3 &#45; 3:3</text>
<polyline fill="none" stroke="black" points="428.97,-428.75 502.72,-428.75"/>
<text text-anchor="middle" x="465.84" y="-411.45" font-family="Times,serif" font-size="14.00">1 &#45;&gt; 2:0</text>
</g>
<!-- n24&#45;&gt;x19 -->
<g id="edge75" class="edge">
<title>n24:e&#45;&gt;x19:w</title>
<path fill="none" stroke="black" d="M383.34,-409C403.17,-409 404.13,-430.12 416.88,-438.05"/>
<polygon fill="black" stroke="black" points="415.94,-441.42 426.5,-440.61 417.74,-434.66 415.94,-441.42"/>
</g>
<!-- n24&#45;&gt;x19 -->
<g id="edge76" class="edge">
<title>n24:e&#45;&gt;x19:w</title>
<path fill="none" stroke="black" d="M383.34,-409C419.95,-409 394.14,-473.25 417.1,-487.3"/>
<polygon fill="black" stroke="black" points="415.95,-490.63 426.5,-489.64 417.63,-483.83 415.95,-490.63"/>
</g>
<!-- n24&#45;&gt;x19 -->
<g id="edge77" class="edge">
<title>n24:e&#45;&gt;x19:w</title>
<path fill="none" stroke="black" d="M383.34,-409C440.13,-409 377.1,-521.36 417.04,-537.16"/>
<polygon fill="black" stroke="black" points="416.03,-540.54 426.47,-538.75 417.19,-533.64 416.03,-540.54"/>
</g>
<!-- n25 -->
<g id="node5" class="node">
<title>n25</title>
<polygon fill="none" stroke="black" points="1801.48,-186 1746.23,-168 1801.48,-150 1856.73,-168 1801.48,-186"/>
<text text-anchor="middle" x="1801.48" y="-162.95" font-family="Times,serif" font-size="14.00">temp_1</text>
</g>
<!-- x13 -->
<g id="node41" class="node">
<title>x13</title>
<path fill="none" stroke="black" d="M1930.23,-160C1930.23,-160 1968.73,-160 1968.73,-160 1974.73,-160 1980.73,-166 1980.73,-172 1980.73,-172 1980.73,-184 1980.73,-184 1980.73,-190 1974.73,-196 1968.73,-196 1968.73,-196 1930.23,-196 1930.23,-196 1924.23,-196 1918.23,-190 1918.23,-184 1918.23,-184 1918.23,-172 1918.23,-172 1918.23,-166 1924.23,-160 1930.23,-160"/>
<text text-anchor="middle" x="1949.48" y="-173.2" font-family="Times,serif" font-size="14.00">2:0 &#45; 2:0</text>
</g>
<!-- n25&#45;&gt;x13 -->
<g id="edge80" class="edge">
<title>n25:e&#45;&gt;x13:w</title>
<path fill="none" stroke="black" stroke-width="3" d="M1856.73,-168C1879.74,-168 1887.57,-175.3 1905.84,-177.58"/>
<polygon fill="black" stroke="black" stroke-width="3" points="1902.5,-180.89 1912.69,-177.98 1902.92,-173.9 1902.5,-180.89"/>
</g>
<!-- c55 -->
<g id="node53" class="node">
<title>c55</title>
<polygon fill="none" stroke="black" points="2419.23,-171.5 2419.23,-220.5 2512.23,-220.5 2512.23,-171.5 2419.23,-171.5"/>
<text text-anchor="middle" x="2432.1" y="-203.2" font-family="Times,serif" font-size="14.00">A</text>
<polyline fill="none" stroke="black" points="2419.23,-196 2444.98,-196"/>
<text text-anchor="middle" x="2432.1" y="-178.7" font-family="Times,serif" font-size="14.00">B</text>
<polyline fill="none" stroke="black" points="2444.98,-171.5 2444.98,-220.5"/>
<text text-anchor="middle" x="2465.73" y="-199.2" font-family="Times,serif" font-size="14.00">$14</text>
<text text-anchor="middle" x="2465.73" y="-182.7" font-family="Times,serif" font-size="14.00">$sub</text>
<polyline fill="none" stroke="black" points="2486.48,-171.5 2486.48,-220.5"/>
<text text-anchor="middle" x="2499.35" y="-191.2" font-family="Times,serif" font-size="14.00">Y</text>
</g>
<!-- n25&#45;&gt;c55 -->
<g id="edge79" class="edge">
<title>n25:e&#45;&gt;c55:w</title>
<path fill="none" stroke="black" stroke-width="3" d="M1856.73,-168C1874.62,-168 1875.53,-154.94 1892.73,-150 1977.05,-125.75 2001.49,-131 2089.23,-131 2089.23,-131 2089.23,-131 2206.48,-131 2300,-131 2320.25,-179.61 2407.9,-183.5"/>
<polygon fill="black" stroke="black" stroke-width="3" points="2404.61,-186.93 2414.69,-183.65 2404.77,-179.93 2404.61,-186.93"/>
</g>
<!-- n26 -->
<g id="node6" class="node">
<title>n26</title>
<polygon fill="none" stroke="black" points="754.28,-664 699.03,-646 754.28,-628 809.53,-646 754.28,-664"/>
<text text-anchor="middle" x="754.28" y="-640.95" font-family="Times,serif" font-size="14.00">temp_2</text>
</g>
<!-- c48 -->
<g id="node38" class="node">
<title>c48</title>
<polygon fill="none" stroke="black" points="1434.23,-634.5 1434.23,-675.5 1575.23,-675.5 1575.23,-634.5 1434.23,-634.5"/>
<text text-anchor="middle" x="1447.1" y="-650.2" font-family="Times,serif" font-size="14.00">A</text>
<polyline fill="none" stroke="black" points="1459.98,-634.5 1459.98,-675.5"/>
<text text-anchor="middle" x="1504.73" y="-658.2" font-family="Times,serif" font-size="14.00">$11</text>
<text text-anchor="middle" x="1504.73" y="-641.7" font-family="Times,serif" font-size="14.00">$reduce_bool</text>
<polyline fill="none" stroke="black" points="1549.48,-634.5 1549.48,-675.5"/>
<text text-anchor="middle" x="1562.35" y="-650.2" font-family="Times,serif" font-size="14.00">Y</text>
</g>
<!-- n26&#45;&gt;c48 -->
<g id="edge82" class="edge">
<title>n26:e&#45;&gt;c48:w</title>
<path fill="none" stroke="black" stroke-width="3" d="M811.91,-646C924.84,-646 952.79,-658 1065.73,-658 1065.73,-658 1065.73,-658 1208.48,-658 1304.9,-658 1331.81,-655.46 1422.8,-655.26"/>
<polygon fill="black" stroke="black" stroke-width="3" points="1419.69,-658.77 1429.68,-655.25 1419.68,-651.77 1419.69,-658.77"/>
</g>
<!-- c53 -->
<g id="node48" class="node">
<title>c53</title>
<polygon fill="none" stroke="black" points="874.1,-580.5 874.1,-629.5 967.1,-629.5 967.1,-580.5 874.1,-580.5"/>
<text text-anchor="middle" x="886.98" y="-612.2" font-family="Times,serif" font-size="14.00">A</text>
<polyline fill="none" stroke="black" points="874.1,-605 899.85,-605"/>
<text text-anchor="middle" x="886.98" y="-587.7" font-family="Times,serif" font-size="14.00">B</text>
<polyline fill="none" stroke="black" points="899.85,-580.5 899.85,-629.5"/>
<text text-anchor="middle" x="920.6" y="-608.2" font-family="Times,serif" font-size="14.00">$5</text>
<text text-anchor="middle" x="920.6" y="-591.7" font-family="Times,serif" font-size="14.00">$sub</text>
<polyline fill="none" stroke="black" points="941.35,-580.5 941.35,-629.5"/>
<text text-anchor="middle" x="954.23" y="-600.2" font-family="Times,serif" font-size="14.00">Y</text>
</g>
<!-- n26&#45;&gt;c53 -->
<g id="edge83" class="edge">
<title>n26:e&#45;&gt;c53:w</title>
<path fill="none" stroke="black" stroke-width="3" d="M811.91,-646C837.62,-646 842.13,-624.96 861.71,-618.88"/>
<polygon fill="black" stroke="black" stroke-width="3" points="859.2,-622.77 868.61,-617.89 858.21,-615.84 859.2,-622.77"/>
</g>
<!-- n27 -->
<g id="node7" class="node">
<title>n27</title>
<polygon fill="none" stroke="black" points="1801.48,-581 1746.23,-563 1801.48,-545 1856.73,-563 1801.48,-581"/>
<text text-anchor="middle" x="1801.48" y="-557.95" font-family="Times,serif" font-size="14.00">temp_3</text>
</g>
<!-- c44 -->
<g id="node28" class="node">
<title>c44</title>
<polygon fill="none" stroke="black" points="2686.04,-331.5 2686.04,-380.5 2782.04,-380.5 2782.04,-331.5 2686.04,-331.5"/>
<text text-anchor="middle" x="2698.92" y="-363.2" font-family="Times,serif" font-size="14.00">A</text>
<polyline fill="none" stroke="black" points="2686.04,-356 2711.79,-356"/>
<text text-anchor="middle" x="2698.92" y="-338.7" font-family="Times,serif" font-size="14.00">B</text>
<polyline fill="none" stroke="black" points="2711.79,-331.5 2711.79,-380.5"/>
<text text-anchor="middle" x="2734.04" y="-359.2" font-family="Times,serif" font-size="14.00">$23</text>
<text text-anchor="middle" x="2734.04" y="-342.7" font-family="Times,serif" font-size="14.00">$mul</text>
<polyline fill="none" stroke="black" points="2756.29,-331.5 2756.29,-380.5"/>
<text text-anchor="middle" x="2769.17" y="-351.2" font-family="Times,serif" font-size="14.00">Y</text>
</g>
<!-- n27&#45;&gt;c44 -->
<g id="edge85" class="edge">
<title>n27:e&#45;&gt;c44:w</title>
<path fill="none" stroke="black" stroke-width="3" d="M1856.73,-563C1882.9,-563 2063.05,-525 2089.23,-525 2089.23,-525 2089.23,-525 2466.73,-525 2549.93,-525 2589.99,-544.59 2650.04,-487 2694.28,-444.58 2630.08,-356.51 2674.77,-345"/>
<polygon fill="black" stroke="black" stroke-width="3" points="2671.98,-348.83 2681.53,-344.25 2671.21,-341.87 2671.98,-348.83"/>
</g>
<!-- c45 -->
<g id="node29" class="node">
<title>c45</title>
<polygon fill="none" stroke="black" points="2042.23,-553.5 2042.23,-602.5 2138.23,-602.5 2138.23,-553.5 2042.23,-553.5"/>
<text text-anchor="middle" x="2055.1" y="-585.2" font-family="Times,serif" font-size="14.00">A</text>
<polyline fill="none" stroke="black" points="2042.23,-578 2067.98,-578"/>
<text text-anchor="middle" x="2055.1" y="-560.7" font-family="Times,serif" font-size="14.00">B</text>
<polyline fill="none" stroke="black" points="2067.98,-553.5 2067.98,-602.5"/>
<text text-anchor="middle" x="2090.23" y="-581.2" font-family="Times,serif" font-size="14.00">$25</text>
<text text-anchor="middle" x="2090.23" y="-564.7" font-family="Times,serif" font-size="14.00">$mul</text>
<polyline fill="none" stroke="black" points="2112.48,-553.5 2112.48,-602.5"/>
<text text-anchor="middle" x="2125.35" y="-573.2" font-family="Times,serif" font-size="14.00">Y</text>
</g>
<!-- n27&#45;&gt;c45 -->
<g id="edge86" class="edge">
<title>n27:e&#45;&gt;c45:w</title>
<path fill="none" stroke="black" stroke-width="3" d="M1856.73,-563C1935.32,-563 1957.71,-565.5 2031.03,-565.73"/>
<polygon fill="black" stroke="black" stroke-width="3" points="2027.68,-569.23 2037.69,-565.74 2027.69,-562.23 2027.68,-569.23"/>
</g>
<!-- x7 -->
<g id="node30" class="node">
<title>x7</title>
<path fill="none" stroke="black" d="M1904.73,-591.5C1904.73,-591.5 1994.23,-591.5 1994.23,-591.5 2000.23,-591.5 2006.23,-597.5 2006.23,-603.5 2006.23,-603.5 2006.23,-628.5 2006.23,-628.5 2006.23,-634.5 2000.23,-640.5 1994.23,-640.5 1994.23,-640.5 1904.73,-640.5 1904.73,-640.5 1898.73,-640.5 1892.73,-634.5 1892.73,-628.5 1892.73,-628.5 1892.73,-603.5 1892.73,-603.5 1892.73,-597.5 1898.73,-591.5 1904.73,-591.5"/>
<text text-anchor="middle" x="1949.48" y="-623.2" font-family="Times,serif" font-size="14.00">10x 11:11 &#45; 21:12</text>
<polyline fill="none" stroke="black" points="1892.73,-616 2006.23,-616"/>
<text text-anchor="middle" x="1949.48" y="-598.7" font-family="Times,serif" font-size="14.00">11:0 &#45; 11:0</text>
</g>
<!-- n27&#45;&gt;x7 -->
<g id="edge89" class="edge">
<title>n27:e&#45;&gt;x7:w</title>
<path fill="none" stroke="black" stroke-width="3" d="M1856.73,-563C1876.17,-563 1871.99,-589.39 1882.2,-599.69"/>
<polygon fill="black" stroke="black" stroke-width="3" points="1877.9,-601.79 1888.49,-602.12 1880.42,-595.26 1877.9,-601.79"/>
</g>
<!-- n27&#45;&gt;x7 -->
<g id="edge90" class="edge">
<title>n27:e&#45;&gt;x7:w</title>
<path fill="none" stroke="black" stroke-width="3" d="M1856.73,-563C1885.19,-563 1866.86,-611.19 1882.16,-624.74"/>
<polygon fill="black" stroke="black" stroke-width="3" points="1877.82,-626.99 1888.42,-626.82 1880.03,-620.35 1877.82,-626.99"/>
</g>
<!-- x14 -->
<g id="node42" class="node">
<title>x14</title>
<path fill="none" stroke="black" d="M1926.85,-418C1926.85,-418 1972.1,-418 1972.1,-418 1978.1,-418 1984.1,-424 1984.1,-430 1984.1,-430 1984.1,-442 1984.1,-442 1984.1,-448 1978.1,-454 1972.1,-454 1972.1,-454 1926.85,-454 1926.85,-454 1920.85,-454 1914.85,-448 1914.85,-442 1914.85,-442 1914.85,-430 1914.85,-430 1914.85,-424 1920.85,-418 1926.85,-418"/>
<text text-anchor="middle" x="1949.48" y="-431.2" font-family="Times,serif" font-size="14.00">11:6 &#45; 5:0</text>
</g>
<!-- n27&#45;&gt;x14 -->
<g id="edge88" class="edge">
<title>n27:e&#45;&gt;x14:w</title>
<path fill="none" stroke="black" stroke-width="3" d="M1856.73,-563C1914.17,-563 1860.77,-453.45 1902.63,-438.04"/>
<polygon fill="black" stroke="black" stroke-width="3" points="1900.04,-442 1909.37,-436.97 1898.94,-435.09 1900.04,-442"/>
</g>
<!-- c58 -->
<g id="node60" class="node">
<title>c58</title>
<polygon fill="none" stroke="black" points="4431.78,-147.5 4431.78,-196.5 4524.78,-196.5 4524.78,-147.5 4431.78,-147.5"/>
<text text-anchor="middle" x="4444.65" y="-179.2" font-family="Times,serif" font-size="14.00">A</text>
<polyline fill="none" stroke="black" points="4431.78,-172 4457.53,-172"/>
<text text-anchor="middle" x="4444.65" y="-154.7" font-family="Times,serif" font-size="14.00">B</text>
<polyline fill="none" stroke="black" points="4457.53,-147.5 4457.53,-196.5"/>
<text text-anchor="middle" x="4478.28" y="-175.2" font-family="Times,serif" font-size="14.00">$30</text>
<text text-anchor="middle" x="4478.28" y="-158.7" font-family="Times,serif" font-size="14.00">$sub</text>
<polyline fill="none" stroke="black" points="4499.03,-147.5 4499.03,-196.5"/>
<text text-anchor="middle" x="4511.9" y="-167.2" font-family="Times,serif" font-size="14.00">Y</text>
</g>
<!-- n27&#45;&gt;c58 -->
<g id="edge87" class="edge">
<title>n27:e&#45;&gt;c58:w</title>
<path fill="none" stroke="black" stroke-width="3" d="M1856.73,-563C1927.02,-563 1848.48,-463.62 1892.73,-409 2103.65,-148.65 2263.07,-143 2598.14,-143 2598.14,-143 2598.14,-143 4212.3,-143 4305.79,-143 4331.38,-158.44 4419.43,-159.67"/>
<polygon fill="black" stroke="black" stroke-width="3" points="4416.22,-163.15 4426.24,-159.72 4416.26,-156.15 4416.22,-163.15"/>
</g>
<!-- n28 -->
<g id="node8" class="node">
<title>n28</title>
<polygon fill="none" stroke="black" points="2327.98,-343 2272.73,-325 2327.98,-307 2383.23,-325 2327.98,-343"/>
<text text-anchor="middle" x="2327.98" y="-319.95" font-family="Times,serif" font-size="14.00">temp_4</text>
</g>
<!-- c35 -->
<g id="node13" class="node">
<title>c35</title>
<polygon fill="none" stroke="black" points="2687.17,-252.5 2687.17,-301.5 2780.92,-301.5 2780.92,-252.5 2687.17,-252.5"/>
<text text-anchor="middle" x="2700.04" y="-284.2" font-family="Times,serif" font-size="14.00">A</text>
<polyline fill="none" stroke="black" points="2687.17,-277 2712.92,-277"/>
<text text-anchor="middle" x="2700.04" y="-259.7" font-family="Times,serif" font-size="14.00">B</text>
<polyline fill="none" stroke="black" points="2712.92,-252.5 2712.92,-301.5"/>
<text text-anchor="middle" x="2734.04" y="-280.2" font-family="Times,serif" font-size="14.00">$16</text>
<text text-anchor="middle" x="2734.04" y="-263.7" font-family="Times,serif" font-size="14.00">$add</text>
<polyline fill="none" stroke="black" points="2755.17,-252.5 2755.17,-301.5"/>
<text text-anchor="middle" x="2768.04" y="-272.2" font-family="Times,serif" font-size="14.00">Y</text>
</g>
<!-- n28&#45;&gt;c35 -->
<g id="edge92" class="edge">
<title>n28:e&#45;&gt;c35:w</title>
<path fill="none" stroke="black" d="M2383.23,-325C2407.15,-325 2398.15,-296.3 2419.23,-285 2520.71,-230.59 2564.35,-262.53 2674.9,-264.64"/>
<polygon fill="black" stroke="black" points="2674.62,-268.14 2684.65,-264.74 2674.69,-261.14 2674.62,-268.14"/>
</g>
<!-- c36 -->
<g id="node14" class="node">
<title>c36</title>
<polygon fill="none" stroke="black" points="2552.26,-343.5 2552.26,-392.5 2646.01,-392.5 2646.01,-343.5 2552.26,-343.5"/>
<text text-anchor="middle" x="2565.14" y="-375.2" font-family="Times,serif" font-size="14.00">A</text>
<polyline fill="none" stroke="black" points="2552.26,-368 2578.01,-368"/>
<text text-anchor="middle" x="2565.14" y="-350.7" font-family="Times,serif" font-size="14.00">B</text>
<polyline fill="none" stroke="black" points="2578.01,-343.5 2578.01,-392.5"/>
<text text-anchor="middle" x="2599.14" y="-371.2" font-family="Times,serif" font-size="14.00">$22</text>
<text text-anchor="middle" x="2599.14" y="-354.7" font-family="Times,serif" font-size="14.00">$add</text>
<polyline fill="none" stroke="black" points="2620.26,-343.5 2620.26,-392.5"/>
<text text-anchor="middle" x="2633.14" y="-363.2" font-family="Times,serif" font-size="14.00">Y</text>
</g>
<!-- n28&#45;&gt;c36 -->
<g id="edge93" class="edge">
<title>n28:e&#45;&gt;c36:w</title>
<path fill="none" stroke="black" d="M2383.23,-325C2441.18,-325 2455.66,-331.39 2512.23,-344 2525.49,-346.96 2530.62,-352.09 2540.01,-354.47"/>
<polygon fill="black" stroke="black" points="2539.42,-357.92 2549.76,-355.58 2540.22,-350.97 2539.42,-357.92"/>
</g>
<!-- x1 -->
<g id="node15" class="node">
<title>x1</title>
<path fill="none" stroke="black" d="M2444.23,-353.5C2444.23,-353.5 2487.23,-353.5 2487.23,-353.5 2493.23,-353.5 2499.23,-359.5 2499.23,-365.5 2499.23,-365.5 2499.23,-390.5 2499.23,-390.5 2499.23,-396.5 2493.23,-402.5 2487.23,-402.5 2487.23,-402.5 2444.23,-402.5 2444.23,-402.5 2438.23,-402.5 2432.23,-396.5 2432.23,-390.5 2432.23,-390.5 2432.23,-365.5 2432.23,-365.5 2432.23,-359.5 2438.23,-353.5 2444.23,-353.5"/>
<text text-anchor="middle" x="2465.73" y="-385.2" font-family="Times,serif" font-size="14.00">0 &#45;&gt; 11:1</text>
<polyline fill="none" stroke="black" points="2432.23,-378 2499.23,-378"/>
<text text-anchor="middle" x="2465.73" y="-360.7" font-family="Times,serif" font-size="14.00">0:0 &#45; 0:0</text>
</g>
<!-- n28&#45;&gt;x1 -->
<g id="edge96" class="edge">
<title>n28:e&#45;&gt;x1:w</title>
<path fill="none" stroke="black" d="M2383.23,-325C2406.84,-325 2404.86,-354.01 2420.47,-363.08"/>
<polygon fill="black" stroke="black" points="2419.21,-366.37 2429.76,-365.38 2420.9,-359.58 2419.21,-366.37"/>
</g>
<!-- c49 -->
<g id="node39" class="node">
<title>c49</title>
<polygon fill="none" stroke="black" points="2554.14,-275.5 2554.14,-324.5 2644.14,-324.5 2644.14,-275.5 2554.14,-275.5"/>
<text text-anchor="middle" x="2567.01" y="-307.2" font-family="Times,serif" font-size="14.00">A</text>
<polyline fill="none" stroke="black" points="2554.14,-300 2579.89,-300"/>
<text text-anchor="middle" x="2567.01" y="-282.7" font-family="Times,serif" font-size="14.00">B</text>
<polyline fill="none" stroke="black" points="2579.89,-275.5 2579.89,-324.5"/>
<text text-anchor="middle" x="2599.14" y="-303.2" font-family="Times,serif" font-size="14.00">$15</text>
<text text-anchor="middle" x="2599.14" y="-286.7" font-family="Times,serif" font-size="14.00">$shl</text>
<polyline fill="none" stroke="black" points="2618.39,-275.5 2618.39,-324.5"/>
<text text-anchor="middle" x="2631.26" y="-295.2" font-family="Times,serif" font-size="14.00">Y</text>
</g>
<!-- n28&#45;&gt;c49 -->
<g id="edge94" class="edge">
<title>n28:e&#45;&gt;c49:w</title>
<path fill="none" stroke="black" d="M2383.23,-325C2400.39,-325 2402.69,-315.6 2419.23,-311 2473.56,-295.88 2490.51,-288.73 2541.67,-287.84"/>
<polygon fill="black" stroke="black" points="2541.65,-291.34 2551.62,-287.76 2541.59,-284.34 2541.65,-291.34"/>
</g>
<!-- n28&#45;&gt;c55 -->
<g id="edge95" class="edge">
<title>n28:e&#45;&gt;c55:w</title>
<path fill="none" stroke="black" d="M2383.23,-325C2433.07,-325 2375.98,-226.62 2408.29,-210.48"/>
<polygon fill="black" stroke="black" points="2408.64,-213.98 2417.74,-208.55 2407.25,-207.12 2408.64,-213.98"/>
</g>
<!-- x30 -->
<g id="node67" class="node">
<title>x30</title>
<path fill="none" stroke="black" d="M2446.48,-422C2446.48,-422 2484.98,-422 2484.98,-422 2490.98,-422 2496.98,-428 2496.98,-434 2496.98,-434 2496.98,-446 2496.98,-446 2496.98,-452 2490.98,-458 2484.98,-458 2484.98,-458 2446.48,-458 2446.48,-458 2440.48,-458 2434.48,-452 2434.48,-446 2434.48,-446 2434.48,-434 2434.48,-434 2434.48,-428 2440.48,-422 2446.48,-422"/>
<text text-anchor="middle" x="2465.73" y="-435.2" font-family="Times,serif" font-size="14.00">0:0 &#45; 0:0</text>
</g>
<!-- n28&#45;&gt;x30 -->
<g id="edge97" class="edge">
<title>n28:e&#45;&gt;x30:w</title>
<path fill="none" stroke="black" d="M2383.23,-325C2434.65,-325 2386.56,-422.73 2422.44,-438"/>
<polygon fill="black" stroke="black" points="2421.53,-441.4 2431.99,-439.73 2422.77,-434.51 2421.53,-441.4"/>
</g>
<!-- n29 -->
<g id="node9" class="node">
<title>n29</title>
<polygon fill="none" stroke="black" points="3003.04,-283 2947.79,-265 3003.04,-247 3058.29,-265 3003.04,-283"/>
<text text-anchor="middle" x="3003.04" y="-259.95" font-family="Times,serif" font-size="14.00">temp_6</text>
</g>
<!-- c41 -->
<g id="node23" class="node">
<title>c41</title>
<polygon fill="none" stroke="black" points="3094.29,-283.5 3094.29,-324.5 3185.79,-324.5 3185.79,-283.5 3094.29,-283.5"/>
<text text-anchor="middle" x="3107.17" y="-299.2" font-family="Times,serif" font-size="14.00">A</text>
<polyline fill="none" stroke="black" points="3120.04,-283.5 3120.04,-324.5"/>
<text text-anchor="middle" x="3140.04" y="-307.2" font-family="Times,serif" font-size="14.00">$62</text>
<text text-anchor="middle" x="3140.04" y="-290.7" font-family="Times,serif" font-size="14.00">$not</text>
<polyline fill="none" stroke="black" points="3160.04,-283.5 3160.04,-324.5"/>
<text text-anchor="middle" x="3172.92" y="-299.2" font-family="Times,serif" font-size="14.00">Y</text>
</g>
<!-- n29&#45;&gt;c41 -->
<g id="edge99" class="edge">
<title>n29:e&#45;&gt;c41:w</title>
<path fill="none" stroke="black" stroke-width="3" d="M3058.29,-265C3077.16,-265 3073.79,-289.92 3083.62,-300.05"/>
<polygon fill="black" stroke="black" stroke-width="3" points="3079.48,-302.18 3090.07,-302.59 3082.04,-295.67 3079.48,-302.18"/>
</g>
<!-- x23 -->
<g id="node58" class="node">
<title>x23</title>
<path fill="none" stroke="black" d="M3120.79,-227C3120.79,-227 3159.29,-227 3159.29,-227 3165.29,-227 3171.29,-233 3171.29,-239 3171.29,-239 3171.29,-251 3171.29,-251 3171.29,-257 3165.29,-263 3159.29,-263 3159.29,-263 3120.79,-263 3120.79,-263 3114.79,-263 3108.79,-257 3108.79,-251 3108.79,-251 3108.79,-239 3108.79,-239 3108.79,-233 3114.79,-227 3120.79,-227"/>
<text text-anchor="middle" x="3140.04" y="-240.2" font-family="Times,serif" font-size="14.00">2:0 &#45; 2:0</text>
</g>
<!-- n29&#45;&gt;x23 -->
<g id="edge100" class="edge">
<title>n29:e&#45;&gt;x23:w</title>
<path fill="none" stroke="black" stroke-width="3" d="M3058.29,-265C3077.54,-265 3082.55,-251.96 3096.46,-247.07"/>
<polygon fill="black" stroke="black" stroke-width="3" points="3093.99,-251.01 3103.31,-245.97 3092.88,-244.1 3093.99,-251.01"/>
</g>
<!-- n30 -->
<g id="node10" class="node">
<title>n30</title>
<polygon fill="none" stroke="black" points="3950.7,-246 3895.45,-228 3950.7,-210 4005.95,-228 3950.7,-246"/>
<text text-anchor="middle" x="3950.7" y="-222.95" font-family="Times,serif" font-size="14.00">temp_9</text>
</g>
<!-- x9 -->
<g id="node33" class="node">
<title>x9</title>
<path fill="none" stroke="black" d="M4192.05,-187.5C4192.05,-187.5 4230.55,-187.5 4230.55,-187.5 4236.55,-187.5 4242.55,-193.5 4242.55,-199.5 4242.55,-199.5 4242.55,-224.5 4242.55,-224.5 4242.55,-230.5 4236.55,-236.5 4230.55,-236.5 4230.55,-236.5 4192.05,-236.5 4192.05,-236.5 4186.05,-236.5 4180.05,-230.5 4180.05,-224.5 4180.05,-224.5 4180.05,-199.5 4180.05,-199.5 4180.05,-193.5 4186.05,-187.5 4192.05,-187.5"/>
<text text-anchor="middle" x="4211.3" y="-219.2" font-family="Times,serif" font-size="14.00">2:2 &#45; 2:2</text>
<polyline fill="none" stroke="black" points="4180.05,-212 4242.55,-212"/>
<text text-anchor="middle" x="4211.3" y="-194.7" font-family="Times,serif" font-size="14.00">1:0 &#45; 1:0</text>
</g>
<!-- n30&#45;&gt;x9 -->
<g id="edge104" class="edge">
<title>n30:e&#45;&gt;x9:w</title>
<path fill="none" stroke="black" stroke-width="3" d="M4005.95,-228C4025.95,-228 4023.01,-207.41 4041.95,-201 4096.35,-182.59 4116.11,-197.53 4168.69,-199.54"/>
<polygon fill="black" stroke="black" stroke-width="3" points="4165.45,-202.97 4175.51,-199.66 4165.58,-195.98 4165.45,-202.97"/>
</g>
<!-- x29 -->
<g id="node66" class="node">
<title>x29</title>
<path fill="none" stroke="black" d="M4053.95,-210C4053.95,-210 4092.45,-210 4092.45,-210 4098.45,-210 4104.45,-216 4104.45,-222 4104.45,-222 4104.45,-234 4104.45,-234 4104.45,-240 4098.45,-246 4092.45,-246 4092.45,-246 4053.95,-246 4053.95,-246 4047.95,-246 4041.95,-240 4041.95,-234 4041.95,-234 4041.95,-222 4041.95,-222 4041.95,-216 4047.95,-210 4053.95,-210"/>
<text text-anchor="middle" x="4073.2" y="-223.2" font-family="Times,serif" font-size="14.00">1:0 &#45; 1:0</text>
</g>
<!-- n30&#45;&gt;x29 -->
<g id="edge103" class="edge">
<title>n30:e&#45;&gt;x29:w</title>
<path fill="none" stroke="black" stroke-width="3" d="M4005.95,-228C4017.33,-228 4022.64,-228 4030.5,-228"/>
<polygon fill="black" stroke="black" stroke-width="3" points="4027.41,-231.5 4037.41,-228 4027.41,-224.5 4027.41,-231.5"/>
</g>
<!-- c34&#45;&gt;n25 -->
<g id="edge78" class="edge">
<title>c34:e&#45;&gt;n25:w</title>
<path fill="none" stroke="black" stroke-width="3" d="M1552.6,-168.25C1634.79,-168.25 1658.11,-168.02 1735.01,-168"/>
<polygon fill="black" stroke="black" stroke-width="3" points="1731.69,-171.5 1741.68,-168 1731.68,-164.5 1731.69,-171.5"/>
</g>
<!-- x0 -->
<g id="node12" class="node">
<title>x0</title>
<path fill="none" stroke="black" d="M1303.48,-180.25C1303.48,-180.25 1386.23,-180.25 1386.23,-180.25 1392.23,-180.25 1398.23,-186.25 1398.23,-192.25 1398.23,-192.25 1398.23,-241.75 1398.23,-241.75 1398.23,-247.75 1392.23,-253.75 1386.23,-253.75 1386.23,-253.75 1303.48,-253.75 1303.48,-253.75 1297.48,-253.75 1291.48,-247.75 1291.48,-241.75 1291.48,-241.75 1291.48,-192.25 1291.48,-192.25 1291.48,-186.25 1297.48,-180.25 1303.48,-180.25"/>
<text text-anchor="middle" x="1344.85" y="-236.45" font-family="Times,serif" font-size="14.00">8x 23:23 &#45; 17:10</text>
<polyline fill="none" stroke="black" points="1291.48,-229.25 1398.23,-229.25"/>
<text text-anchor="middle" x="1344.85" y="-211.95" font-family="Times,serif" font-size="14.00">9:8 &#45; 9:8</text>
<polyline fill="none" stroke="black" points="1291.48,-204.75 1398.23,-204.75"/>
<text text-anchor="middle" x="1344.85" y="-187.45" font-family="Times,serif" font-size="14.00">7:0 &#45; 7:0</text>
</g>
<!-- x0&#45;&gt;c34 -->
<g id="edge1" class="edge">
<title>x0:e&#45;&gt;c34:w</title>
<path fill="none" stroke="black" stroke-width="3" d="M1410.94,-214.36C1425.42,-207.58 1429.68,-189.62 1444.18,-182.87"/>
<polygon fill="none" stroke="black" stroke-width="3" points="1412.62,-214.01 1407.56,-219.15 1400.87,-216.45 1405.93,-211.31 1412.62,-214.01"/>
<polygon fill="none" stroke="black" stroke-width="3" points="1442.45,-183.23 1447.52,-178.1 1454.2,-180.8 1449.14,-185.93 1442.45,-183.23"/>
</g>
<!-- c56 -->
<g id="node54" class="node">
<title>c56</title>
<polygon fill="none" stroke="black" points="2818.42,-240.5 2818.42,-289.5 2911.42,-289.5 2911.42,-240.5 2818.42,-240.5"/>
<text text-anchor="middle" x="2831.29" y="-272.2" font-family="Times,serif" font-size="14.00">A</text>
<polyline fill="none" stroke="black" points="2818.42,-265 2844.17,-265"/>
<text text-anchor="middle" x="2831.29" y="-247.7" font-family="Times,serif" font-size="14.00">B</text>
<polyline fill="none" stroke="black" points="2844.17,-240.5 2844.17,-289.5"/>
<text text-anchor="middle" x="2864.92" y="-268.2" font-family="Times,serif" font-size="14.00">$19</text>
<text text-anchor="middle" x="2864.92" y="-251.7" font-family="Times,serif" font-size="14.00">$sub</text>
<polyline fill="none" stroke="black" points="2885.67,-240.5 2885.67,-289.5"/>
<text text-anchor="middle" x="2898.54" y="-260.2" font-family="Times,serif" font-size="14.00">Y</text>
</g>
<!-- c35&#45;&gt;c56 -->
<g id="edge29" class="edge">
<title>c35:e&#45;&gt;c56:w</title>
<path fill="none" stroke="black" stroke-width="3" d="M2781.92,-277.25C2793.33,-277.25 2798.66,-277.25 2806.56,-277.25"/>
<polygon fill="black" stroke="black" stroke-width="3" points="2803.5,-280.75 2813.5,-277.25 2803.5,-273.75 2803.5,-280.75"/>
</g>
<!-- c36&#45;&gt;c44 -->
<g id="edge56" class="edge">
<title>c36:e&#45;&gt;c44:w</title>
<path fill="none" stroke="black" stroke-width="3" d="M2647.01,-368.25C2659.89,-368.25 2665.59,-368.25 2674.77,-368.25"/>
<polygon fill="black" stroke="black" stroke-width="3" points="2671.5,-371.75 2681.5,-368.25 2671.5,-364.75 2671.5,-371.75"/>
</g>
<!-- x1&#45;&gt;c36 -->
<g id="edge2" class="edge">
<title>x1:e&#45;&gt;c36:w</title>
<path fill="none" stroke="black" stroke-width="3" d="M2513.03,-378.28C2522.5,-378.71 2528.95,-379.54 2538.41,-379.97"/>
<polygon fill="none" stroke="black" stroke-width="3" points="2514.93,-378.32 2508.84,-382.19 2502.93,-378.06 2509.02,-374.19 2514.93,-378.32"/>
<polygon fill="none" stroke="black" stroke-width="3" points="2536.56,-379.93 2542.64,-376.06 2548.56,-380.19 2542.47,-384.06 2536.56,-379.93"/>
</g>
<!-- c37 -->
<g id="node16" class="node">
<title>c37</title>
<polygon fill="none" stroke="black" points="2818.04,-172.5 2818.04,-221.5 2911.79,-221.5 2911.79,-172.5 2818.04,-172.5"/>
<text text-anchor="middle" x="2830.92" y="-204.2" font-family="Times,serif" font-size="14.00">A</text>
<polyline fill="none" stroke="black" points="2818.04,-197 2843.79,-197"/>
<text text-anchor="middle" x="2830.92" y="-179.7" font-family="Times,serif" font-size="14.00">B</text>
<polyline fill="none" stroke="black" points="2843.79,-172.5 2843.79,-221.5"/>
<text text-anchor="middle" x="2864.92" y="-200.2" font-family="Times,serif" font-size="14.00">$24</text>
<text text-anchor="middle" x="2864.92" y="-183.7" font-family="Times,serif" font-size="14.00">$add</text>
<polyline fill="none" stroke="black" points="2886.04,-172.5 2886.04,-221.5"/>
<text text-anchor="middle" x="2898.92" y="-192.2" font-family="Times,serif" font-size="14.00">Y</text>
</g>
<!-- c37&#45;&gt;n21 -->
<g id="edge58" class="edge">
<title>c37:e&#45;&gt;n21:w</title>
<path fill="none" stroke="black" stroke-width="3" d="M2911.79,-197.25C3103.09,-197.25 3153.72,-197.01 3339.53,-197"/>
<polygon fill="black" stroke="black" stroke-width="3" points="3336.25,-200.5 3346.25,-197 3336.25,-193.5 3336.25,-200.5"/>
</g>
<!-- x2&#45;&gt;c37 -->
<g id="edge3" class="edge">
<title>x2:e&#45;&gt;c37:w</title>
<path fill="none" stroke="black" stroke-width="3" d="M1705.91,-43.03C1808.91,-43.46 1839.33,-49 1948.48,-49 1948.48,-49 1948.48,-49 2600.14,-49 2682.08,-49 2719.53,-26.02 2782.04,-79 2815.92,-107.72 2778.27,-169.68 2805.49,-182.43"/>
<polygon fill="none" stroke="black" stroke-width="3" points="1707.68,-43.03 1701.67,-47.02 1695.68,-43.01 1701.69,-39.02 1707.68,-43.03"/>
<polygon fill="none" stroke="black" stroke-width="3" points="2803.58,-182.08 2810.21,-179.23 2815.38,-184.26 2808.76,-187.1 2803.58,-182.08"/>
</g>
<!-- x4 -->
<g id="node20" class="node">
<title>x4</title>
<path fill="none" stroke="black" d="M3808.95,-215.5C3808.95,-215.5 3847.45,-215.5 3847.45,-215.5 3853.45,-215.5 3859.45,-221.5 3859.45,-227.5 3859.45,-227.5 3859.45,-252.5 3859.45,-252.5 3859.45,-258.5 3853.45,-264.5 3847.45,-264.5 3847.45,-264.5 3808.95,-264.5 3808.95,-264.5 3802.95,-264.5 3796.95,-258.5 3796.95,-252.5 3796.95,-252.5 3796.95,-227.5 3796.95,-227.5 3796.95,-221.5 3802.95,-215.5 3808.95,-215.5"/>
<text text-anchor="middle" x="3828.2" y="-247.2" font-family="Times,serif" font-size="14.00">2:2 &#45; 2:2</text>
<polyline fill="none" stroke="black" points="3796.95,-240 3859.45,-240"/>
<text text-anchor="middle" x="3828.2" y="-222.7" font-family="Times,serif" font-size="14.00">1:0 &#45; 1:0</text>
</g>
<!-- c38&#45;&gt;x4 -->
<g id="edge5" class="edge">
<title>c38:e&#45;&gt;x4:w</title>
<path fill="none" stroke="black" stroke-width="3" d="M3773.67,-240.19C3777.27,-240.15 3780.4,-240.1 3783.98,-240.07"/>
<polygon fill="none" stroke="black" stroke-width="3" points="3775.65,-240.18 3769.67,-244.21 3763.65,-240.24 3769.63,-236.21 3775.65,-240.18"/>
<polygon fill="none" stroke="black" stroke-width="3" points="3782.25,-240.07 3788.23,-236.04 3794.25,-240.01 3788.27,-244.04 3782.25,-240.07"/>
</g>
<!-- x3 -->
<g id="node19" class="node">
<title>x3</title>
<path fill="none" stroke="black" d="M3573.95,-234C3573.95,-234 3612.45,-234 3612.45,-234 3618.45,-234 3624.45,-240 3624.45,-246 3624.45,-246 3624.45,-258 3624.45,-258 3624.45,-264 3618.45,-270 3612.45,-270 3612.45,-270 3573.95,-270 3573.95,-270 3567.95,-270 3561.95,-264 3561.95,-258 3561.95,-258 3561.95,-246 3561.95,-246 3561.95,-240 3567.95,-234 3573.95,-234"/>
<text text-anchor="middle" x="3593.2" y="-247.2" font-family="Times,serif" font-size="14.00">2:0 &#45; 2:0</text>
</g>
<!-- x3&#45;&gt;c38 -->
<g id="edge4" class="edge">
<title>x3:e&#45;&gt;c38:w</title>
<path fill="none" stroke="black" stroke-width="3" d="M3638.42,-252.05C3644.09,-252.09 3648.58,-252.16 3654.25,-252.2"/>
<polygon fill="none" stroke="black" stroke-width="3" points="3640.15,-252.05 3634.14,-256.03 3628.15,-252.01 3634.17,-248.03 3640.15,-252.05"/>
<polygon fill="none" stroke="black" stroke-width="3" points="3652.5,-252.2 3658.51,-248.22 3664.5,-252.24 3658.48,-256.22 3652.5,-252.2"/>
</g>
<!-- x4&#45;&gt;n30 -->
<g id="edge102" class="edge">
<title>x4:e&#45;&gt;n30:w</title>
<path fill="none" stroke="black" stroke-width="3" d="M3859.45,-227.75C3870.82,-227.75 3876.13,-227.88 3884,-227.95"/>
<polygon fill="black" stroke="black" stroke-width="3" points="3880.89,-231.44 3890.91,-227.98 3880.92,-224.44 3880.89,-231.44"/>
</g>
<!-- n14 -->
<g id="node74" class="node">
<title>n14</title>
<ellipse fill="black" stroke="black" cx="4142.25" cy="-228" rx="1.8" ry="1.8"/>
</g>
<!-- x4&#45;&gt;n14 -->
<g id="edge43" class="edge">
<title>x4:e&#45;&gt;n14:w</title>
<path fill="none" stroke="black" d="M3859.45,-252.25C3875.5,-252.25 3879.42,-254.33 3895.45,-255 3960.51,-257.7 3976.84,-255.78 4041.95,-256 4069.73,-256.09 4078.18,-265.01 4104.45,-256 4119.13,-250.96 4120.55,-237.23 4129.51,-231.06"/>
<polygon fill="black" stroke="black" points="4130.31,-234.47 4138.99,-228.41 4128.42,-227.73 4130.31,-234.47"/>
</g>
<!-- c42 -->
<g id="node24" class="node">
<title>c42</title>
<polygon fill="none" stroke="black" points="1300.98,-503.5 1300.98,-552.5 1388.73,-552.5 1388.73,-503.5 1300.98,-503.5"/>
<text text-anchor="middle" x="1313.85" y="-535.2" font-family="Times,serif" font-size="14.00">A</text>
<polyline fill="none" stroke="black" points="1300.98,-528 1326.73,-528"/>
<text text-anchor="middle" x="1313.85" y="-510.7" font-family="Times,serif" font-size="14.00">B</text>
<polyline fill="none" stroke="black" points="1326.73,-503.5 1326.73,-552.5"/>
<text text-anchor="middle" x="1344.85" y="-531.2" font-family="Times,serif" font-size="14.00">$66</text>
<text text-anchor="middle" x="1344.85" y="-514.7" font-family="Times,serif" font-size="14.00">$or</text>
<polyline fill="none" stroke="black" points="1362.98,-503.5 1362.98,-552.5"/>
<text text-anchor="middle" x="1375.85" y="-523.2" font-family="Times,serif" font-size="14.00">Y</text>
</g>
<!-- c39&#45;&gt;c42 -->
<g id="edge101" class="edge">
<title>c39:e&#45;&gt;c42:w</title>
<path fill="none" stroke="black" stroke-width="3" d="M641.34,-392.25C765.09,-392.25 795.85,-402 919.6,-402 919.6,-402 919.6,-402 1067.73,-402 1152.77,-402 1186.25,-389.59 1255.48,-439 1283.93,-459.31 1265.91,-503.95 1288.95,-513.8"/>
<polygon fill="black" stroke="black" stroke-width="3" points="1285.05,-516.66 1295.5,-514.96 1286.27,-509.77 1285.05,-516.66"/>
</g>
<!-- x21 -->
<g id="node55" class="node">
<title>x21</title>
<path fill="none" stroke="black" d="M1319.98,-68.5C1319.98,-68.5 1369.73,-68.5 1369.73,-68.5 1375.73,-68.5 1381.73,-74.5 1381.73,-80.5 1381.73,-80.5 1381.73,-105.5 1381.73,-105.5 1381.73,-111.5 1375.73,-117.5 1369.73,-117.5 1369.73,-117.5 1319.98,-117.5 1319.98,-117.5 1313.98,-117.5 1307.98,-111.5 1307.98,-105.5 1307.98,-105.5 1307.98,-80.5 1307.98,-80.5 1307.98,-74.5 1313.98,-68.5 1319.98,-68.5"/>
<text text-anchor="middle" x="1344.85" y="-100.2" font-family="Times,serif" font-size="14.00">1 &#45;&gt; 17:10</text>
<polyline fill="none" stroke="black" points="1307.98,-93 1381.73,-93"/>
<text text-anchor="middle" x="1344.85" y="-75.7" font-family="Times,serif" font-size="14.00">9:0 &#45; 9:0</text>
</g>
<!-- c40&#45;&gt;x21 -->
<g id="edge105" class="edge">
<title>c40:e&#45;&gt;x21:w</title>
<path fill="none" stroke="black" stroke-width="3" d="M236.84,-93.25C338.21,-93.25 363.47,-87 464.84,-87 464.84,-87 464.84,-87 1067.73,-87 1170.25,-87 1198.59,-81.19 1295.75,-80.77"/>
<polygon fill="black" stroke="black" stroke-width="3" points="1292.44,-84.28 1302.43,-80.76 1292.43,-77.28 1292.44,-84.28"/>
</g>
<!-- x10 -->
<g id="node34" class="node">
<title>x10</title>
<path fill="none" stroke="black" d="M3567.2,-290.5C3567.2,-290.5 3619.2,-290.5 3619.2,-290.5 3625.2,-290.5 3631.2,-296.5 3631.2,-302.5 3631.2,-302.5 3631.2,-327.5 3631.2,-327.5 3631.2,-333.5 3625.2,-339.5 3619.2,-339.5 3619.2,-339.5 3567.2,-339.5 3567.2,-339.5 3561.2,-339.5 3555.2,-333.5 3555.2,-327.5 3555.2,-327.5 3555.2,-302.5 3555.2,-302.5 3555.2,-296.5 3561.2,-290.5 3567.2,-290.5"/>
<text text-anchor="middle" x="3593.2" y="-322.2" font-family="Times,serif" font-size="14.00">1 &#45;&gt; 29:18</text>
<polyline fill="none" stroke="black" points="3555.2,-315 3631.2,-315"/>
<text text-anchor="middle" x="3593.2" y="-297.7" font-family="Times,serif" font-size="14.00">17:0 &#45; 17:0</text>
</g>
<!-- c41&#45;&gt;x10 -->
<g id="edge106" class="edge">
<title>c41:e&#45;&gt;x10:w</title>
<path fill="none" stroke="black" stroke-width="3" d="M3185.79,-304.25C3346.13,-304.25 3389.03,-302.82 3543.86,-302.75"/>
<polygon fill="black" stroke="black" stroke-width="3" points="3540.66,-306.25 3550.66,-302.75 3540.66,-299.25 3540.66,-306.25"/>
</g>
<!-- x26 -->
<g id="node63" class="node">
<title>x26</title>
<path fill="none" stroke="black" d="M1479.85,-518.5C1479.85,-518.5 1529.6,-518.5 1529.6,-518.5 1535.6,-518.5 1541.6,-524.5 1541.6,-530.5 1541.6,-530.5 1541.6,-555.5 1541.6,-555.5 1541.6,-561.5 1535.6,-567.5 1529.6,-567.5 1529.6,-567.5 1479.85,-567.5 1479.85,-567.5 1473.85,-567.5 1467.85,-561.5 1467.85,-555.5 1467.85,-555.5 1467.85,-530.5 1467.85,-530.5 1467.85,-524.5 1473.85,-518.5 1479.85,-518.5"/>
<text text-anchor="middle" x="1504.73" y="-550.2" font-family="Times,serif" font-size="14.00">1 &#45;&gt; 11:10</text>
<polyline fill="none" stroke="black" points="1467.85,-543 1541.6,-543"/>
<text text-anchor="middle" x="1504.73" y="-525.7" font-family="Times,serif" font-size="14.00">9:0 &#45; 9:0</text>
</g>
<!-- c42&#45;&gt;x26 -->
<g id="edge107" class="edge">
<title>c42:e&#45;&gt;x26:w</title>
<path fill="none" stroke="black" stroke-width="3" d="M1389.73,-528.25C1419.87,-528.25 1430.11,-530.18 1455.43,-530.65"/>
<polygon fill="black" stroke="black" stroke-width="3" points="1452.28,-534.12 1462.31,-530.71 1452.34,-527.12 1452.28,-534.12"/>
</g>
<!-- x5 -->
<g id="node25" class="node">
<title>x5</title>
<path fill="none" stroke="black" d="M1188.23,-522C1188.23,-522 1226.73,-522 1226.73,-522 1232.73,-522 1238.73,-528 1238.73,-534 1238.73,-534 1238.73,-546 1238.73,-546 1238.73,-552 1232.73,-558 1226.73,-558 1226.73,-558 1188.23,-558 1188.23,-558 1182.23,-558 1176.23,-552 1176.23,-546 1176.23,-546 1176.23,-534 1176.23,-534 1176.23,-528 1182.23,-522 1188.23,-522"/>
<text text-anchor="middle" x="1207.48" y="-535.2" font-family="Times,serif" font-size="14.00">9:0 &#45; 9:0</text>
</g>
<!-- x5&#45;&gt;c42 -->
<g id="edge6" class="edge">
<title>x5:e&#45;&gt;c42:w</title>
<path fill="none" stroke="black" stroke-width="3" d="M1252.45,-540.02C1265.81,-540.07 1273.9,-540.18 1287.27,-540.23"/>
<polygon fill="none" stroke="black" stroke-width="3" points="1254.43,-540.02 1248.42,-544.01 1242.43,-540 1248.44,-536.01 1254.43,-540.02"/>
<polygon fill="none" stroke="black" stroke-width="3" points="1285.27,-540.23 1291.28,-536.24 1297.27,-540.25 1291.26,-544.24 1285.27,-540.23"/>
</g>
<!-- c60 -->
<g id="node62" class="node">
<title>c60</title>
<polygon fill="none" stroke="black" points="1611.23,-532.25 1611.23,-605.75 1710.23,-605.75 1710.23,-532.25 1611.23,-532.25"/>
<text text-anchor="middle" x="1624.1" y="-588.45" font-family="Times,serif" font-size="14.00">A</text>
<polyline fill="none" stroke="black" points="1611.23,-581.25 1636.98,-581.25"/>
<text text-anchor="middle" x="1624.1" y="-563.95" font-family="Times,serif" font-size="14.00">B</text>
<polyline fill="none" stroke="black" points="1611.23,-556.75 1636.98,-556.75"/>
<text text-anchor="middle" x="1624.1" y="-539.45" font-family="Times,serif" font-size="14.00">S</text>
<polyline fill="none" stroke="black" points="1636.98,-532.25 1636.98,-605.75"/>
<text text-anchor="middle" x="1660.73" y="-572.2" font-family="Times,serif" font-size="14.00">$12</text>
<text text-anchor="middle" x="1660.73" y="-555.7" font-family="Times,serif" font-size="14.00">$mux</text>
<polyline fill="none" stroke="black" points="1684.48,-532.25 1684.48,-605.75"/>
<text text-anchor="middle" x="1697.35" y="-563.95" font-family="Times,serif" font-size="14.00">Y</text>
</g>
<!-- c43&#45;&gt;c60 -->
<g id="edge108" class="edge">
<title>c43:e&#45;&gt;c60:w</title>
<path fill="none" stroke="black" stroke-width="3" d="M1255.48,-602.25C1409.77,-602.25 1451.07,-593.92 1599.85,-593.52"/>
<polygon fill="black" stroke="black" stroke-width="3" points="1596.69,-597.02 1606.68,-593.51 1596.68,-590.02 1596.69,-597.02"/>
</g>
<!-- x6 -->
<g id="node27" class="node">
<title>x6</title>
<path fill="none" stroke="black" d="M1021.98,-524.5C1021.98,-524.5 1111.48,-524.5 1111.48,-524.5 1117.48,-524.5 1123.48,-530.5 1123.48,-536.5 1123.48,-536.5 1123.48,-561.5 1123.48,-561.5 1123.48,-567.5 1117.48,-573.5 1111.48,-573.5 1111.48,-573.5 1021.98,-573.5 1021.98,-573.5 1015.98,-573.5 1009.98,-567.5 1009.98,-561.5 1009.98,-561.5 1009.98,-536.5 1009.98,-536.5 1009.98,-530.5 1015.98,-524.5 1021.98,-524.5"/>
<text text-anchor="middle" x="1066.73" y="-556.2" font-family="Times,serif" font-size="14.00">12x 23:23 &#45; 23:12</text>
<polyline fill="none" stroke="black" points="1009.98,-549 1123.48,-549"/>
<text text-anchor="middle" x="1066.73" y="-531.7" font-family="Times,serif" font-size="14.00">11:0 &#45; 11:0</text>
</g>
<!-- x6&#45;&gt;c43 -->
<g id="edge7" class="edge">
<title>x6:e&#45;&gt;c43:w</title>
<path fill="none" stroke="black" stroke-width="3" d="M1135.22,-553.69C1145.71,-565.61 1137.3,-596.99 1147.46,-609.25"/>
<polygon fill="none" stroke="black" stroke-width="3" points="1137.13,-554.46 1130.07,-555.94 1125.99,-550 1133.04,-548.52 1137.13,-554.46"/>
<polygon fill="none" stroke="black" stroke-width="3" points="1145.9,-608.59 1152.98,-607.21 1156.98,-613.21 1149.9,-614.59 1145.9,-608.59"/>
</g>
<!-- c44&#45;&gt;c37 -->
<g id="edge109" class="edge">
<title>c44:e&#45;&gt;c37:w</title>
<path fill="none" stroke="black" stroke-width="3" d="M2782.04,-356.25C2844.84,-356.25 2763.13,-228.13 2806.74,-211.11"/>
<polygon fill="black" stroke="black" stroke-width="3" points="2804.26,-215.06 2813.56,-209.99 2803.13,-208.16 2804.26,-215.06"/>
</g>
<!-- x8 -->
<g id="node31" class="node">
<title>x8</title>
<path fill="none" stroke="black" d="M2186.23,-557C2186.23,-557 2224.73,-557 2224.73,-557 2230.73,-557 2236.73,-563 2236.73,-569 2236.73,-569 2236.73,-581 2236.73,-581 2236.73,-587 2230.73,-593 2224.73,-593 2224.73,-593 2186.23,-593 2186.23,-593 2180.23,-593 2174.23,-587 2174.23,-581 2174.23,-581 2174.23,-569 2174.23,-569 2174.23,-563 2180.23,-557 2186.23,-557"/>
<text text-anchor="middle" x="2205.48" y="-570.2" font-family="Times,serif" font-size="14.00">2:0 &#45; 2:0</text>
</g>
<!-- c45&#45;&gt;x8 -->
<g id="edge9" class="edge">
<title>c45:e&#45;&gt;x8:w</title>
<path fill="none" stroke="black" stroke-width="3" d="M2150.96,-577.43C2154.55,-576.95 2157.67,-576.34 2161.24,-575.85"/>
<polygon fill="none" stroke="black" stroke-width="3" points="2152.9,-577.31 2147.17,-581.68 2140.93,-578.08 2146.66,-573.7 2152.9,-577.31"/>
<polygon fill="none" stroke="black" stroke-width="3" points="2159.55,-575.96 2165.28,-571.58 2171.53,-575.18 2165.8,-579.56 2159.55,-575.96"/>
</g>
<!-- x7&#45;&gt;c45 -->
<g id="edge8" class="edge">
<title>x7:e&#45;&gt;c45:w</title>
<path fill="none" stroke="black" stroke-width="3" d="M2017.89,-611.51C2022.8,-606.9 2025.44,-599.75 2030.25,-595.03"/>
<polygon fill="none" stroke="black" stroke-width="3" points="2019.95,-610.72 2015.79,-616.61 2008.75,-615.03 2012.92,-609.14 2019.95,-610.72"/>
<polygon fill="none" stroke="black" stroke-width="3" points="2028.57,-595.7 2032.66,-589.76 2039.72,-591.25 2035.63,-597.19 2028.57,-595.7"/>
</g>
<!-- x22 -->
<g id="node57" class="node">
<title>x22</title>
<path fill="none" stroke="black" d="M2308.73,-554C2308.73,-554 2347.23,-554 2347.23,-554 2353.23,-554 2359.23,-560 2359.23,-566 2359.23,-566 2359.23,-578 2359.23,-578 2359.23,-584 2353.23,-590 2347.23,-590 2347.23,-590 2308.73,-590 2308.73,-590 2302.73,-590 2296.73,-584 2296.73,-578 2296.73,-578 2296.73,-566 2296.73,-566 2296.73,-560 2302.73,-554 2308.73,-554"/>
<text text-anchor="middle" x="2327.98" y="-567.2" font-family="Times,serif" font-size="14.00">2:0 &#45; 2:0</text>
</g>
<!-- x8&#45;&gt;x22 -->
<g id="edge110" class="edge">
<title>x8:e&#45;&gt;x22:w</title>
<path fill="none" stroke="black" stroke-width="3" d="M2236.73,-575.25C2258.68,-575.25 2266.81,-573.15 2284.23,-572.47"/>
<polygon fill="black" stroke="black" stroke-width="3" points="2281.25,-576.02 2291.19,-572.34 2281.12,-569.02 2281.25,-576.02"/>
</g>
<!-- c46 -->
<g id="node32" class="node">
<title>c46</title>
<polygon fill="none" stroke="black" points="4278.55,-175.5 4278.55,-224.5 4374.55,-224.5 4374.55,-175.5 4278.55,-175.5"/>
<text text-anchor="middle" x="4291.43" y="-207.2" font-family="Times,serif" font-size="14.00">A</text>
<polyline fill="none" stroke="black" points="4278.55,-200 4304.3,-200"/>
<text text-anchor="middle" x="4291.43" y="-182.7" font-family="Times,serif" font-size="14.00">B</text>
<polyline fill="none" stroke="black" points="4304.3,-175.5 4304.3,-224.5"/>
<text text-anchor="middle" x="4326.55" y="-203.2" font-family="Times,serif" font-size="14.00">$29</text>
<text text-anchor="middle" x="4326.55" y="-186.7" font-family="Times,serif" font-size="14.00">$mul</text>
<polyline fill="none" stroke="black" points="4348.8,-175.5 4348.8,-224.5"/>
<text text-anchor="middle" x="4361.68" y="-195.2" font-family="Times,serif" font-size="14.00">Y</text>
</g>
<!-- c46&#45;&gt;c58 -->
<g id="edge45" class="edge">
<title>c46:e&#45;&gt;c58:w</title>
<path fill="none" stroke="black" stroke-width="3" d="M4374.55,-200.25C4396.27,-200.25 4402.81,-189.07 4419.55,-185.4"/>
<polygon fill="black" stroke="black" stroke-width="3" points="4416.67,-189.21 4426.26,-184.71 4415.96,-182.25 4416.67,-189.21"/>
</g>
<!-- x9&#45;&gt;c46 -->
<g id="edge10" class="edge">
<title>x9:e&#45;&gt;c46:w</title>
<path fill="none" stroke="black" stroke-width="3" d="M4255.27,-212.06C4258.87,-212.1 4262,-212.15 4265.58,-212.18"/>
<polygon fill="none" stroke="black" stroke-width="3" points="4257.25,-212.07 4251.23,-216.04 4245.25,-212.01 4251.27,-208.04 4257.25,-212.07"/>
<polygon fill="none" stroke="black" stroke-width="3" points="4263.85,-212.18 4269.87,-208.21 4275.85,-212.24 4269.83,-216.21 4263.85,-212.18"/>
</g>
<!-- x10&#45;&gt;c46 -->
<g id="edge11" class="edge">
<title>x10:e&#45;&gt;c46:w</title>
<path fill="none" stroke="black" stroke-width="3" d="M3643.98,-314.99C3720.69,-314.8 3744.51,-313 3827.2,-313 3827.2,-313 3827.2,-313 4143.25,-313 4196.49,-313 4205.66,-284.39 4242.55,-246 4259.85,-228 4252.51,-200.33 4266.12,-190.97"/>
<polygon fill="none" stroke="black" stroke-width="3" points="3645.9,-314.98 3639.91,-318.99 3633.9,-315 3639.9,-310.99 3645.9,-314.98"/>
<polygon fill="none" stroke="black" stroke-width="3" points="4264.32,-191.44 4269.12,-186.06 4275.93,-188.43 4271.13,-193.81 4264.32,-191.44"/>
</g>
<!-- c47 -->
<g id="node35" class="node">
<title>c47</title>
<polygon fill="none" stroke="black" points="552.09,-620.5 552.09,-669.5 637.59,-669.5 637.59,-620.5 552.09,-620.5"/>
<text text-anchor="middle" x="564.97" y="-652.2" font-family="Times,serif" font-size="14.00">A</text>
<polyline fill="none" stroke="black" points="552.09,-645 577.84,-645"/>
<text text-anchor="middle" x="564.97" y="-627.7" font-family="Times,serif" font-size="14.00">B</text>
<polyline fill="none" stroke="black" points="577.84,-620.5 577.84,-669.5"/>
<text text-anchor="middle" x="594.84" y="-648.2" font-family="Times,serif" font-size="14.00">$4</text>
<text text-anchor="middle" x="594.84" y="-631.7" font-family="Times,serif" font-size="14.00">$or</text>
<polyline fill="none" stroke="black" points="611.84,-620.5 611.84,-669.5"/>
<text text-anchor="middle" x="624.72" y="-640.2" font-family="Times,serif" font-size="14.00">Y</text>
</g>
<!-- c47&#45;&gt;n26 -->
<g id="edge81" class="edge">
<title>c47:e&#45;&gt;n26:w</title>
<path fill="none" stroke="black" stroke-width="3" d="M638.59,-645.25C660.17,-645.25 668.21,-645.77 685.35,-645.95"/>
<polygon fill="black" stroke="black" stroke-width="3" points="682.1,-649.43 692.12,-645.98 682.13,-642.43 682.1,-649.43"/>
</g>
<!-- x11&#45;&gt;c47 -->
<g id="edge12" class="edge">
<title>x11:e&#45;&gt;c47:w</title>
<path fill="none" stroke="black" stroke-width="3" d="M510.39,-616.18C523.82,-624.35 525.38,-645.96 538.85,-654.1"/>
<polygon fill="none" stroke="black" stroke-width="3" points="512.33,-616.68 505.52,-619.05 500.71,-613.68 507.52,-611.31 512.33,-616.68"/>
<polygon fill="none" stroke="black" stroke-width="3" points="536.85,-653.58 543.66,-651.21 548.47,-656.58 541.67,-658.95 536.85,-653.58"/>
</g>
<!-- x12&#45;&gt;c47 -->
<g id="edge13" class="edge">
<title>x12:e&#45;&gt;c47:w</title>
<path fill="none" stroke="black" stroke-width="3" d="M373.1,-576.34C396.56,-586.49 387.85,-626.77 419.34,-641 457.01,-658.02 471.24,-645.33 512.34,-641 524.65,-639.7 530.1,-636.15 538.38,-634.16"/>
<polygon fill="none" stroke="black" stroke-width="3" points="374.8,-576.66 368.18,-579.51 363,-574.49 369.62,-571.64 374.8,-576.66"/>
<polygon fill="none" stroke="black" stroke-width="3" points="536.48,-634.37 542,-629.73 548.4,-633.05 542.88,-637.68 536.48,-634.37"/>
</g>
<!-- c48&#45;&gt;c60 -->
<g id="edge46" class="edge">
<title>c48:e&#45;&gt;c60:w</title>
<path fill="none" stroke="black" d="M1575.23,-655.25C1622.54,-655.25 1570.19,-562.72 1600.37,-546.81"/>
<polygon fill="black" stroke="black" points="1600.69,-550.32 1609.75,-544.82 1599.24,-543.48 1600.69,-550.32"/>
</g>
<!-- c49&#45;&gt;c35 -->
<g id="edge47" class="edge">
<title>c49:e&#45;&gt;c35:w</title>
<path fill="none" stroke="black" stroke-width="3" d="M2645.14,-300.25C2659.59,-300.25 2664.9,-293.8 2675.06,-290.78"/>
<polygon fill="black" stroke="black" stroke-width="3" points="2672.24,-294.7 2681.67,-289.87 2671.29,-287.77 2672.24,-294.7"/>
</g>
<!-- c50 -->
<g id="node40" class="node">
<title>c50</title>
<polygon fill="none" stroke="black" points="2044.85,-380.5 2044.85,-429.5 2135.6,-429.5 2135.6,-380.5 2044.85,-380.5"/>
<text text-anchor="middle" x="2057.73" y="-412.2" font-family="Times,serif" font-size="14.00">A</text>
<polyline fill="none" stroke="black" points="2044.85,-405 2070.6,-405"/>
<text text-anchor="middle" x="2057.73" y="-387.7" font-family="Times,serif" font-size="14.00">B</text>
<polyline fill="none" stroke="black" points="2070.6,-380.5 2070.6,-429.5"/>
<text text-anchor="middle" x="2090.23" y="-408.2" font-family="Times,serif" font-size="14.00">$13</text>
<text text-anchor="middle" x="2090.23" y="-391.7" font-family="Times,serif" font-size="14.00">$shr</text>
<polyline fill="none" stroke="black" points="2109.85,-380.5 2109.85,-429.5"/>
<text text-anchor="middle" x="2122.73" y="-400.2" font-family="Times,serif" font-size="14.00">Y</text>
</g>
<!-- x15 -->
<g id="node43" class="node">
<title>x15</title>
<path fill="none" stroke="black" d="M2186.23,-380.5C2186.23,-380.5 2224.73,-380.5 2224.73,-380.5 2230.73,-380.5 2236.73,-386.5 2236.73,-392.5 2236.73,-392.5 2236.73,-417.5 2236.73,-417.5 2236.73,-423.5 2230.73,-429.5 2224.73,-429.5 2224.73,-429.5 2186.23,-429.5 2186.23,-429.5 2180.23,-429.5 2174.23,-423.5 2174.23,-417.5 2174.23,-417.5 2174.23,-392.5 2174.23,-392.5 2174.23,-386.5 2180.23,-380.5 2186.23,-380.5"/>
<text text-anchor="middle" x="2205.48" y="-412.2" font-family="Times,serif" font-size="14.00">2:1 &#45; 2:1</text>
<polyline fill="none" stroke="black" points="2174.23,-405 2236.73,-405"/>
<text text-anchor="middle" x="2205.48" y="-387.7" font-family="Times,serif" font-size="14.00">0:0 &#45; 0:0</text>
</g>
<!-- c50&#45;&gt;x15 -->
<g id="edge16" class="edge">
<title>c50:e&#45;&gt;x15:w</title>
<path fill="none" stroke="black" stroke-width="3" d="M2149.63,-405.19C2153.7,-405.15 2157.18,-405.1 2161.25,-405.06"/>
<polygon fill="none" stroke="black" stroke-width="3" points="2151.31,-405.18 2145.32,-409.21 2139.31,-405.24 2145.29,-401.21 2151.31,-405.18"/>
<polygon fill="none" stroke="black" stroke-width="3" points="2159.52,-405.07 2165.5,-401.04 2171.52,-405.01 2165.54,-409.04 2159.52,-405.07"/>
</g>
<!-- x13&#45;&gt;c50 -->
<g id="edge14" class="edge">
<title>x13:e&#45;&gt;c50:w</title>
<path fill="none" stroke="black" stroke-width="3" d="M1994.71,-179.35C2074.5,-197.7 1950.9,-398.01 2031.13,-415.96"/>
<polygon fill="none" stroke="black" stroke-width="3" points="1996.35,-179.52 1989.97,-182.88 1984.42,-178.28 1990.8,-174.92 1996.35,-179.52"/>
<polygon fill="none" stroke="black" stroke-width="3" points="2029.22,-415.77 2035.59,-412.39 2041.16,-416.98 2034.79,-420.35 2029.22,-415.77"/>
</g>
<!-- x14&#45;&gt;c50 -->
<g id="edge15" class="edge">
<title>x14:e&#45;&gt;c50:w</title>
<path fill="none" stroke="black" stroke-width="3" d="M1997.77,-433.16C2013.18,-425.27 2015.91,-403.13 2031.49,-395.43"/>
<polygon fill="none" stroke="black" stroke-width="3" points="1999.45,-432.79 1994.47,-438 1987.74,-435.41 1992.72,-430.19 1999.45,-432.79"/>
<polygon fill="none" stroke="black" stroke-width="3" points="2029.48,-395.87 2034.5,-390.69 2041.21,-393.32 2036.19,-398.5 2029.48,-395.87"/>
</g>
<!-- x15&#45;&gt;n28 -->
<g id="edge91" class="edge">
<title>x15:e&#45;&gt;n28:w</title>
<path fill="none" stroke="black" d="M2236.73,-392.75C2266.03,-392.75 2246.37,-342.71 2261.91,-328.64"/>
<polygon fill="black" stroke="black" points="2262.93,-331.99 2271.29,-325.48 2260.7,-325.36 2262.93,-331.99"/>
</g>
<!-- n18 -->
<g id="node75" class="node">
<title>n18</title>
<polygon fill="none" stroke="black" points="2599.14,-478 2548.23,-460 2599.14,-442 2650.04,-460 2599.14,-478"/>
<text text-anchor="middle" x="2599.14" y="-454.95" font-family="Times,serif" font-size="14.00">$13_Y</text>
</g>
<!-- x15&#45;&gt;n18 -->
<g id="edge48" class="edge">
<title>x15:e&#45;&gt;n18:w</title>
<path fill="none" stroke="black" stroke-width="3" d="M2236.73,-417.25C2320.92,-417.25 2335.81,-456.62 2419.23,-468 2460.18,-473.59 2471.14,-472.51 2512.23,-468 2523.94,-466.71 2528.95,-463.14 2536.92,-461.24"/>
<polygon fill="black" stroke="black" stroke-width="3" points="2534.15,-465.06 2543.71,-460.49 2533.39,-458.1 2534.15,-465.06"/>
</g>
<!-- c51&#45;&gt;n24 -->
<g id="edge70" class="edge">
<title>c51:e&#45;&gt;n24:w</title>
<path fill="none" stroke="black" stroke-width="3" d="M236.84,-350.25C262.68,-350.25 248.74,-392.07 262.15,-405.15"/>
<polygon fill="black" stroke="black" stroke-width="3" points="257.98,-407.36 268.57,-407.46 260.35,-400.77 257.98,-407.36"/>
</g>
<!-- x16 -->
<g id="node46" class="node">
<title>x16</title>
<path fill="none" stroke="black" d="M562.09,-269.25C562.09,-269.25 627.59,-269.25 627.59,-269.25 633.59,-269.25 639.59,-275.25 639.59,-281.25 639.59,-281.25 639.59,-330.75 639.59,-330.75 639.59,-336.75 633.59,-342.75 627.59,-342.75 627.59,-342.75 562.09,-342.75 562.09,-342.75 556.09,-342.75 550.09,-336.75 550.09,-330.75 550.09,-330.75 550.09,-281.25 550.09,-281.25 550.09,-275.25 556.09,-269.25 562.09,-269.25"/>
<text text-anchor="middle" x="594.84" y="-325.45" font-family="Times,serif" font-size="14.00">10:10 &#45; 23:23</text>
<polyline fill="none" stroke="black" points="550.09,-318.25 639.59,-318.25"/>
<text text-anchor="middle" x="594.84" y="-300.95" font-family="Times,serif" font-size="14.00">9:8 &#45; 9:8</text>
<polyline fill="none" stroke="black" points="550.09,-293.75 639.59,-293.75"/>
<text text-anchor="middle" x="594.84" y="-276.45" font-family="Times,serif" font-size="14.00">7:0 &#45; 7:0</text>
</g>
<!-- c52&#45;&gt;x16 -->
<g id="edge17" class="edge">
<title>c52:e&#45;&gt;x16:w</title>
<path fill="none" stroke="black" stroke-width="3" d="M524.66,-289.45C529.19,-293.05 532.25,-298.21 536.78,-301.81"/>
<polygon fill="none" stroke="black" stroke-width="3" points="526.26,-290 519.29,-291.85 514.9,-286.12 521.87,-284.27 526.26,-290"/>
<polygon fill="none" stroke="black" stroke-width="3" points="535.17,-301.26 542.14,-299.41 546.53,-305.13 539.56,-306.98 535.17,-301.26"/>
</g>
<!-- n10 -->
<g id="node72" class="node">
<title>n10</title>
<ellipse fill="black" stroke="black" cx="754.28" cy="-242" rx="1.8" ry="1.8"/>
</g>
<!-- x16&#45;&gt;n10 -->
<g id="edge30" class="edge">
<title>x16:e&#45;&gt;n10:w</title>
<path fill="none" stroke="black" stroke-width="3" d="M640.59,-281.5C688.64,-281.5 697.64,-247.93 739.59,-242.69"/>
<polygon fill="black" stroke="black" stroke-width="3" points="736.7,-246.37 746.47,-242.27 736.28,-239.38 736.7,-246.37"/>
</g>
<!-- n12 -->
<g id="node73" class="node">
<title>n12</title>
<ellipse fill="black" stroke="black" cx="1207.48" cy="-247" rx="1.8" ry="1.8"/>
</g>
<!-- x16&#45;&gt;n12 -->
<g id="edge34" class="edge">
<title>x16:e&#45;&gt;n12:w</title>
<path fill="none" stroke="black" stroke-width="3" d="M640.59,-306C855.36,-306 915.58,-341.88 1123.48,-288 1158.47,-278.93 1163.26,-253.06 1193.06,-247.9"/>
<polygon fill="black" stroke="black" stroke-width="3" points="1189.99,-251.66 1199.67,-247.37 1189.42,-244.68 1189.99,-251.66"/>
</g>
<!-- x16&#45;&gt;n12 -->
<g id="edge35" class="edge">
<title>x16:e&#45;&gt;n12:w</title>
<path fill="none" stroke="black" d="M640.59,-330.5C855.35,-330.5 925.61,-396.49 1123.48,-313 1162.34,-296.6 1158.94,-255.38 1192.95,-248.11"/>
<polygon fill="black" stroke="black" points="1193.08,-251.61 1202.69,-247.15 1192.4,-244.64 1193.08,-251.61"/>
</g>
<!-- v17 -->
<g id="node47" class="node">
<title>v17</title>
<ellipse fill="none" stroke="black" cx="754.28" cy="-592" rx="76.94" ry="18"/>
<text text-anchor="middle" x="754.28" y="-586.95" font-family="Times,serif" font-size="14.00">12&#39;110100111001</text>
</g>
<!-- v17&#45;&gt;c53 -->
<g id="edge111" class="edge">
<title>v17:e&#45;&gt;c53:w</title>
<path fill="none" stroke="black" stroke-width="3" d="M831.23,-592C845.33,-592 851.42,-592.43 861.64,-592.64"/>
<polygon fill="black" stroke="black" stroke-width="3" points="858.53,-596.11 868.56,-592.71 858.59,-589.11 858.53,-596.11"/>
</g>
<!-- x18 -->
<g id="node49" class="node">
<title>x18</title>
<path fill="none" stroke="black" d="M1040.73,-593C1040.73,-593 1092.73,-593 1092.73,-593 1098.73,-593 1104.73,-599 1104.73,-605 1104.73,-605 1104.73,-617 1104.73,-617 1104.73,-623 1098.73,-629 1092.73,-629 1092.73,-629 1040.73,-629 1040.73,-629 1034.73,-629 1028.73,-623 1028.73,-617 1028.73,-617 1028.73,-605 1028.73,-605 1028.73,-599 1034.73,-593 1040.73,-593"/>
<text text-anchor="middle" x="1066.73" y="-606.2" font-family="Times,serif" font-size="14.00">11:0 &#45; 11:0</text>
</g>
<!-- c53&#45;&gt;x18 -->
<g id="edge18" class="edge">
<title>c53:e&#45;&gt;x18:w</title>
<path fill="none" stroke="black" stroke-width="3" d="M980.73,-605.74C993.83,-606.82 1001.72,-609.37 1014.72,-610.48"/>
<polygon fill="none" stroke="black" stroke-width="3" points="982.79,-605.82 976.64,-609.58 970.8,-605.35 976.95,-601.59 982.79,-605.82"/>
<polygon fill="none" stroke="black" stroke-width="3" points="1013.03,-610.41 1019.19,-606.65 1025.02,-610.89 1018.87,-614.65 1013.03,-610.41"/>
</g>
<!-- x18&#45;&gt;x5 -->
<g id="edge41" class="edge">
<title>x18:e&#45;&gt;x5:w</title>
<path fill="none" stroke="black" stroke-width="3" d="M1105.73,-611.25C1145.57,-611.25 1134.14,-553.44 1163.97,-542.15"/>
<polygon fill="black" stroke="black" stroke-width="3" points="1161.47,-546.12 1170.75,-541.01 1160.31,-539.22 1161.47,-546.12"/>
</g>
<!-- x20 -->
<g id="node52" class="node">
<title>x20</title>
<path fill="none" stroke="black" d="M721.53,-459.5C721.53,-459.5 787.03,-459.5 787.03,-459.5 793.03,-459.5 799.03,-465.5 799.03,-471.5 799.03,-471.5 799.03,-496.5 799.03,-496.5 799.03,-502.5 793.03,-508.5 787.03,-508.5 787.03,-508.5 721.53,-508.5 721.53,-508.5 715.53,-508.5 709.53,-502.5 709.53,-496.5 709.53,-496.5 709.53,-471.5 709.53,-471.5 709.53,-465.5 715.53,-459.5 721.53,-459.5"/>
<text text-anchor="middle" x="754.28" y="-491.2" font-family="Times,serif" font-size="14.00">12:12 &#45; 23:23</text>
<polyline fill="none" stroke="black" points="709.53,-484 799.03,-484"/>
<text text-anchor="middle" x="754.28" y="-466.7" font-family="Times,serif" font-size="14.00">11:0 &#45; 11:0</text>
</g>
<!-- c54&#45;&gt;x20 -->
<g id="edge20" class="edge">
<title>c54:e&#45;&gt;x20:w</title>
<path fill="none" stroke="black" stroke-width="3" d="M654.18,-478.65C670.46,-479.7 679.55,-482.58 695.89,-483.62"/>
<polygon fill="none" stroke="black" stroke-width="3" points="656.04,-478.7 649.92,-482.52 644.04,-478.33 650.17,-474.52 656.04,-478.7"/>
<polygon fill="none" stroke="black" stroke-width="3" points="693.84,-483.55 699.95,-479.74 705.83,-483.92 699.71,-487.73 693.84,-483.55"/>
</g>
<!-- x19&#45;&gt;c54 -->
<g id="edge19" class="edge">
<title>x19:e&#45;&gt;c54:w</title>
<path fill="none" stroke="black" stroke-width="3" d="M516.6,-490.04C523.49,-490.09 528.67,-490.16 535.57,-490.21"/>
<polygon fill="none" stroke="black" stroke-width="3" points="518.42,-490.05 512.41,-494.03 506.42,-490.01 512.43,-486.03 518.42,-490.05"/>
<polygon fill="none" stroke="black" stroke-width="3" points="533.64,-490.2 539.65,-486.22 545.64,-490.24 539.63,-494.22 533.64,-490.2"/>
</g>
<!-- n19 -->
<g id="node76" class="node">
<title>n19</title>
<ellipse fill="black" stroke="black" cx="920.6" cy="-496" rx="1.8" ry="1.8"/>
</g>
<!-- x20&#45;&gt;n19 -->
<g id="edge50" class="edge">
<title>x20:e&#45;&gt;n19:w</title>
<path fill="none" stroke="black" stroke-width="3" d="M800.03,-471.75C849.21,-471.75 862.2,-492.45 905.86,-495.6"/>
<polygon fill="black" stroke="black" stroke-width="3" points="902.67,-498.99 912.78,-495.84 902.91,-491.99 902.67,-498.99"/>
</g>
<!-- x20&#45;&gt;n19 -->
<g id="edge51" class="edge">
<title>x20:e&#45;&gt;n19:w</title>
<path fill="none" stroke="black" d="M800.03,-496.25C848.19,-496.25 862.98,-496.04 906.06,-496"/>
<polygon fill="black" stroke="black" points="905.81,-499.5 915.81,-496 905.81,-492.5 905.81,-499.5"/>
</g>
<!-- c55&#45;&gt;c49 -->
<g id="edge57" class="edge">
<title>c55:e&#45;&gt;c49:w</title>
<path fill="none" stroke="black" stroke-width="3" d="M2512.23,-196.25C2562.41,-196.25 2508.87,-294 2542.03,-310.04"/>
<polygon fill="black" stroke="black" stroke-width="3" points="2538.19,-312.84 2548.68,-311.36 2539.56,-305.97 2538.19,-312.84"/>
</g>
<!-- c56&#45;&gt;n29 -->
<g id="edge98" class="edge">
<title>c56:e&#45;&gt;n29:w</title>
<path fill="none" stroke="black" stroke-width="3" d="M2911.79,-265.25C2923.17,-265.25 2928.48,-265.12 2936.35,-265.05"/>
<polygon fill="black" stroke="black" stroke-width="3" points="2933.27,-268.56 2943.25,-265.02 2933.24,-261.56 2933.27,-268.56"/>
</g>
<!-- x21&#45;&gt;c56 -->
<g id="edge21" class="edge">
<title>x21:e&#45;&gt;c56:w</title>
<path fill="none" stroke="black" stroke-width="3" d="M1395.72,-93C1508.18,-93 1541.06,-93 1659.73,-93 1659.73,-93 1659.73,-93 2600.14,-93 2656.07,-93 2744.8,-231.66 2805.22,-250.61"/>
<polygon fill="none" stroke="black" stroke-width="3" points="1397.43,-93 1391.43,-97 1385.43,-93 1391.43,-89 1397.43,-93"/>
<polygon fill="none" stroke="black" stroke-width="3" points="2803.54,-250.33 2810.12,-247.37 2815.38,-252.31 2808.8,-255.26 2803.54,-250.33"/>
</g>
<!-- c57 -->
<g id="node56" class="node">
<title>c57</title>
<polygon fill="none" stroke="black" points="3221.79,-227.5 3221.79,-276.5 3314.79,-276.5 3314.79,-227.5 3221.79,-227.5"/>
<text text-anchor="middle" x="3234.67" y="-259.2" font-family="Times,serif" font-size="14.00">A</text>
<polyline fill="none" stroke="black" points="3221.79,-252 3247.54,-252"/>
<text text-anchor="middle" x="3234.67" y="-234.7" font-family="Times,serif" font-size="14.00">B</text>
<polyline fill="none" stroke="black" points="3247.54,-227.5 3247.54,-276.5"/>
<text text-anchor="middle" x="3268.29" y="-255.2" font-family="Times,serif" font-size="14.00">$26</text>
<text text-anchor="middle" x="3268.29" y="-238.7" font-family="Times,serif" font-size="14.00">$sub</text>
<polyline fill="none" stroke="black" points="3289.04,-227.5 3289.04,-276.5"/>
<text text-anchor="middle" x="3301.92" y="-247.2" font-family="Times,serif" font-size="14.00">Y</text>
</g>
<!-- x24 -->
<g id="node59" class="node">
<title>x24</title>
<path fill="none" stroke="black" d="M3415.75,-234C3415.75,-234 3454.25,-234 3454.25,-234 3460.25,-234 3466.25,-240 3466.25,-246 3466.25,-246 3466.25,-258 3466.25,-258 3466.25,-264 3460.25,-270 3454.25,-270 3454.25,-270 3415.75,-270 3415.75,-270 3409.75,-270 3403.75,-264 3403.75,-258 3403.75,-258 3403.75,-246 3403.75,-246 3403.75,-240 3409.75,-234 3415.75,-234"/>
<text text-anchor="middle" x="3435" y="-247.2" font-family="Times,serif" font-size="14.00">2:0 &#45; 2:0</text>
</g>
<!-- c57&#45;&gt;x24 -->
<g id="edge24" class="edge">
<title>c57:e&#45;&gt;x24:w</title>
<path fill="none" stroke="black" stroke-width="3" d="M3327.81,-252.24C3352.73,-252.2 3364.87,-252.05 3389.82,-252.01"/>
<polygon fill="none" stroke="black" stroke-width="3" points="3329.5,-252.24 3323.5,-256.24 3317.5,-252.25 3323.5,-248.24 3329.5,-252.24"/>
<polygon fill="none" stroke="black" stroke-width="3" points="3388.04,-252.01 3394.04,-248.01 3400.04,-252 3394.05,-256.01 3388.04,-252.01"/>
</g>
<!-- x22&#45;&gt;c57 -->
<g id="edge22" class="edge">
<title>x22:e&#45;&gt;c57:w</title>
<path fill="none" stroke="black" stroke-width="3" d="M2373.14,-571.97C2468.34,-571.59 2496.82,-567 2598.14,-567 2598.14,-567 2598.14,-567 3004.04,-567 3135.38,-567 3114.98,-444.61 3185.79,-334 3201.74,-309.1 3191.45,-276.3 3209.2,-266.88"/>
<polygon fill="none" stroke="black" stroke-width="3" points="2374.93,-571.97 2368.94,-575.98 2362.93,-571.99 2368.92,-567.98 2374.93,-571.97"/>
<polygon fill="none" stroke="black" stroke-width="3" points="3207.4,-267.25 3212.46,-262.11 3219.15,-264.8 3214.09,-269.94 3207.4,-267.25"/>
</g>
<!-- x23&#45;&gt;c57 -->
<g id="edge23" class="edge">
<title>x23:e&#45;&gt;c57:w</title>
<path fill="none" stroke="black" stroke-width="3" d="M3185.13,-244.31C3193.94,-243.31 3200.03,-241.46 3208.81,-240.45"/>
<polygon fill="none" stroke="black" stroke-width="3" points="3186.98,-244.21 3181.2,-248.53 3174.99,-244.86 3180.77,-240.54 3186.98,-244.21"/>
<polygon fill="none" stroke="black" stroke-width="3" points="3207.11,-240.55 3212.89,-236.23 3219.09,-239.9 3213.32,-244.22 3207.11,-240.55"/>
</g>
<!-- x24&#45;&gt;x3 -->
<g id="edge33" class="edge">
<title>x24:e&#45;&gt;x3:w</title>
<path fill="none" stroke="black" stroke-width="3" d="M3467.25,-252.25C3504.83,-252.25 3516.97,-252.25 3549.58,-252.25"/>
<polygon fill="black" stroke="black" stroke-width="3" points="3546.41,-255.75 3556.41,-252.25 3546.41,-248.75 3546.41,-255.75"/>
</g>
<!-- x25 -->
<g id="node61" class="node">
<title>x25</title>
<path fill="none" stroke="black" d="M4594.01,-152C4594.01,-152 4646.01,-152 4646.01,-152 4652.01,-152 4658.01,-158 4658.01,-164 4658.01,-164 4658.01,-176 4658.01,-176 4658.01,-182 4652.01,-188 4646.01,-188 4646.01,-188 4594.01,-188 4594.01,-188 4588.01,-188 4582.01,-182 4582.01,-176 4582.01,-176 4582.01,-164 4582.01,-164 4582.01,-158 4588.01,-152 4594.01,-152"/>
<text text-anchor="middle" x="4620.01" y="-165.2" font-family="Times,serif" font-size="14.00">29:0 &#45; 29:0</text>
</g>
<!-- c58&#45;&gt;x25 -->
<g id="edge25" class="edge">
<title>c58:e&#45;&gt;x25:w</title>
<path fill="none" stroke="black" stroke-width="3" d="M4538.56,-172.03C4550.21,-171.59 4557.6,-170.65 4569.25,-170.22"/>
<polygon fill="none" stroke="black" stroke-width="3" points="4540.48,-171.99 4534.55,-176.1 4528.48,-172.2 4534.41,-168.1 4540.48,-171.99"/>
<polygon fill="none" stroke="black" stroke-width="3" points="4567.31,-170.26 4573.24,-166.15 4579.31,-170.05 4573.38,-174.15 4567.31,-170.26"/>
</g>
<!-- x25&#45;&gt;n23 -->
<g id="edge68" class="edge">
<title>x25:e&#45;&gt;n23:w</title>
<path fill="none" stroke="black" stroke-width="3" d="M4658.01,-170.25C4673.95,-170.25 4674.44,-152.75 4683.38,-144.82"/>
<polygon fill="black" stroke="black" stroke-width="3" points="4681.51,-149.21 4689.74,-142.54 4679.14,-142.63 4681.51,-149.21"/>
</g>
<!-- c60&#45;&gt;n27 -->
<g id="edge84" class="edge">
<title>c60:e&#45;&gt;n27:w</title>
<path fill="none" stroke="black" stroke-width="3" d="M1710.23,-569C1721.88,-569 1727,-565.9 1734.98,-564.16"/>
<polygon fill="black" stroke="black" stroke-width="3" points="1732.12,-567.97 1741.71,-563.46 1731.4,-561.01 1732.12,-567.97"/>
</g>
<!-- x26&#45;&gt;c60 -->
<g id="edge26" class="edge">
<title>x26:e&#45;&gt;c60:w</title>
<path fill="none" stroke="black" stroke-width="3" d="M1555.38,-544.55C1573.09,-549.16 1580.68,-562.78 1598.35,-567.43"/>
<polygon fill="none" stroke="black" stroke-width="3" points="1557.2,-544.77 1550.76,-548.02 1545.29,-543.33 1551.72,-540.08 1557.2,-544.77"/>
<polygon fill="none" stroke="black" stroke-width="3" points="1596.63,-567.22 1603.07,-563.97 1608.54,-568.67 1602.1,-571.91 1596.63,-567.22"/>
</g>
<!-- x27 -->
<g id="node64" class="node">
<title>x27</title>
<path fill="none" stroke="black" d="M879.23,-229.5C879.23,-229.5 961.98,-229.5 961.98,-229.5 967.98,-229.5 973.98,-235.5 973.98,-241.5 973.98,-241.5 973.98,-266.5 973.98,-266.5 973.98,-272.5 967.98,-278.5 961.98,-278.5 961.98,-278.5 879.23,-278.5 879.23,-278.5 873.23,-278.5 867.23,-272.5 867.23,-266.5 867.23,-266.5 867.23,-241.5 867.23,-241.5 867.23,-235.5 873.23,-229.5 879.23,-229.5"/>
<text text-anchor="middle" x="920.6" y="-261.2" font-family="Times,serif" font-size="14.00">13x 23:23 &#45; 20:8</text>
<polyline fill="none" stroke="black" points="867.23,-254 973.98,-254"/>
<text text-anchor="middle" x="920.6" y="-236.7" font-family="Times,serif" font-size="14.00">7:0 &#45; 7:0</text>
</g>
<!-- x28 -->
<g id="node65" class="node">
<title>x28</title>
<path fill="none" stroke="black" d="M1037.35,-210.5C1037.35,-210.5 1096.1,-210.5 1096.1,-210.5 1102.1,-210.5 1108.1,-216.5 1108.1,-222.5 1108.1,-222.5 1108.1,-247.5 1108.1,-247.5 1108.1,-253.5 1102.1,-259.5 1096.1,-259.5 1096.1,-259.5 1037.35,-259.5 1037.35,-259.5 1031.35,-259.5 1025.35,-253.5 1025.35,-247.5 1025.35,-247.5 1025.35,-222.5 1025.35,-222.5 1025.35,-216.5 1031.35,-210.5 1037.35,-210.5"/>
<text text-anchor="middle" x="1066.73" y="-242.2" font-family="Times,serif" font-size="14.00">20:8 &#45; 22:10</text>
<polyline fill="none" stroke="black" points="1025.35,-235 1108.1,-235"/>
<text text-anchor="middle" x="1066.73" y="-217.7" font-family="Times,serif" font-size="14.00">7:0 &#45; 7:0</text>
</g>
<!-- x27&#45;&gt;x28 -->
<g id="edge27" class="edge">
<title>x27:e&#45;&gt;x28:w</title>
<path fill="none" stroke="black" stroke-width="3" d="M986.66,-251.82C996.4,-248.16 1001.98,-240.8 1011.73,-237.15"/>
<polygon fill="none" stroke="black" stroke-width="3" points="988.47,-251.51 983.23,-256.47 976.64,-253.54 981.88,-248.58 988.47,-251.51"/>
<polygon fill="none" stroke="black" stroke-width="3" points="1009.86,-237.47 1015.1,-232.52 1021.68,-235.46 1016.44,-240.41 1009.86,-237.47"/>
</g>
<!-- x28&#45;&gt;n12 -->
<g id="edge36" class="edge">
<title>x28:e&#45;&gt;n12:w</title>
<path fill="none" stroke="black" stroke-width="3" d="M1109.1,-222.75C1148.63,-222.75 1158.79,-242.67 1192.81,-246.4"/>
<polygon fill="black" stroke="black" stroke-width="3" points="1189.49,-249.73 1199.66,-246.76 1189.86,-242.74 1189.49,-249.73"/>
</g>
<!-- x28&#45;&gt;n12 -->
<g id="edge37" class="edge">
<title>x28:e&#45;&gt;n12:w</title>
<path fill="none" stroke="black" stroke-width="3" d="M1109.1,-247.25C1147.4,-247.25 1159.67,-247.04 1193.09,-247.01"/>
<polygon fill="black" stroke="black" stroke-width="3" points="1189.66,-250.51 1199.66,-247 1189.65,-243.51 1189.66,-250.51"/>
</g>
<!-- x29&#45;&gt;n14 -->
<g id="edge42" class="edge">
<title>x29:e&#45;&gt;n14:w</title>
<path fill="none" stroke="black" stroke-width="3" d="M4104.45,-228.25C4115.83,-228.25 4121.14,-228.12 4129,-228.05"/>
<polygon fill="black" stroke="black" stroke-width="3" points="4125.93,-231.56 4135.91,-228.02 4125.89,-224.56 4125.93,-231.56"/>
</g>
<!-- x30&#45;&gt;n18 -->
<g id="edge49" class="edge">
<title>x30:e&#45;&gt;n18:w</title>
<path fill="none" stroke="black" d="M2497.98,-440.25C2517.66,-440.25 2522.72,-453.54 2537.15,-458.32"/>
<polygon fill="black" stroke="black" points="2536.32,-461.73 2546.73,-459.77 2537.37,-454.81 2536.32,-461.73"/>
</g>
<!-- x31 -->
<g id="node68" class="node">
<title>x31</title>
<path fill="none" stroke="black" d="M1025.35,-431C1025.35,-431 1108.1,-431 1108.1,-431 1114.1,-431 1120.1,-437 1120.1,-443 1120.1,-443 1120.1,-455 1120.1,-455 1120.1,-461 1114.1,-467 1108.1,-467 1108.1,-467 1025.35,-467 1025.35,-467 1019.35,-467 1013.35,-461 1013.35,-455 1013.35,-455 1013.35,-443 1013.35,-443 1013.35,-437 1019.35,-431 1025.35,-431"/>
<text text-anchor="middle" x="1066.73" y="-444.2" font-family="Times,serif" font-size="14.00">11x 23:23 &#45; 10:0</text>
</g>
<!-- x32 -->
<g id="node69" class="node">
<title>x32</title>
<path fill="none" stroke="black" d="M1178.1,-448C1178.1,-448 1236.85,-448 1236.85,-448 1242.85,-448 1248.85,-454 1248.85,-460 1248.85,-460 1248.85,-472 1248.85,-472 1248.85,-478 1242.85,-484 1236.85,-484 1236.85,-484 1178.1,-484 1178.1,-484 1172.1,-484 1166.1,-478 1166.1,-472 1166.1,-472 1166.1,-460 1166.1,-460 1166.1,-454 1172.1,-448 1178.1,-448"/>
<text text-anchor="middle" x="1207.48" y="-461.2" font-family="Times,serif" font-size="14.00">10:0 &#45; 22:12</text>
</g>
<!-- x31&#45;&gt;x32 -->
<g id="edge28" class="edge">
<title>x31:e&#45;&gt;x32:w</title>
<path fill="none" stroke="black" stroke-width="3" d="M1133.87,-451.66C1140.87,-454.87 1145.46,-460.24 1152.49,-463.42"/>
<polygon fill="none" stroke="black" stroke-width="3" points="1135.5,-451.99 1128.81,-454.69 1123.75,-449.55 1130.44,-446.86 1135.5,-451.99"/>
<polygon fill="none" stroke="black" stroke-width="3" points="1150.7,-463.05 1157.38,-460.34 1162.45,-465.46 1155.77,-468.17 1150.7,-463.05"/>
</g>
<!-- x32&#45;&gt;n19 -->
<g id="edge52" class="edge">
<title>x32:e&#45;&gt;n19:w</title>
<path fill="none" stroke="black" stroke-width="3" d="M1249.85,-466.25C1257.97,-466.25 1254.63,-478.8 1248.85,-484.5 1208.87,-523.93 994.67,-509.96 927.44,-501.07"/>
<polygon fill="black" stroke="black" stroke-width="3" points="931.89,-499.38 921.38,-498.03 928.75,-505.64 931.89,-499.38"/>
</g>
<!-- v33 -->
<g id="node70" class="node">
<title>v33</title>
<ellipse fill="none" stroke="black" cx="4478.28" cy="-111" rx="67.73" ry="18"/>
<text text-anchor="middle" x="4478.28" y="-105.95" font-family="Times,serif" font-size="14.00">10&#39;0000000000</text>
</g>
<!-- x34 -->
<g id="node71" class="node">
<title>x34</title>
<path fill="none" stroke="black" d="M4594.01,-96C4594.01,-96 4646.01,-96 4646.01,-96 4652.01,-96 4658.01,-102 4658.01,-108 4658.01,-108 4658.01,-120 4658.01,-120 4658.01,-126 4652.01,-132 4646.01,-132 4646.01,-132 4594.01,-132 4594.01,-132 4588.01,-132 4582.01,-126 4582.01,-120 4582.01,-120 4582.01,-108 4582.01,-108 4582.01,-102 4588.01,-96 4594.01,-96"/>
<text text-anchor="middle" x="4620.01" y="-109.2" font-family="Times,serif" font-size="14.00">9:0 &#45; 39:30</text>
</g>
<!-- v33&#45;&gt;x34 -->
<g id="edge112" class="edge">
<title>v33:e&#45;&gt;x34:w</title>
<path fill="none" stroke="black" stroke-width="3" d="M4546.01,-111C4557.42,-111 4562.69,-112.52 4570.55,-113.39"/>
<polygon fill="black" stroke="black" stroke-width="3" points="4567.3,-116.73 4577.47,-113.76 4567.67,-109.74 4567.3,-116.73"/>
</g>
<!-- x34&#45;&gt;n23 -->
<g id="edge69" class="edge">
<title>x34:e&#45;&gt;n23:w</title>
<path fill="none" stroke="black" stroke-width="3" d="M4658.01,-114.25C4673.27,-114.25 4674.58,-129.93 4683.3,-137.28"/>
<polygon fill="black" stroke="black" stroke-width="3" points="4679.13,-139.53 4689.72,-139.51 4681.42,-132.92 4679.13,-139.53"/>
</g>
<!-- n10&#45;&gt;x0 -->
<g id="edge31" class="edge">
<title>n10:e&#45;&gt;x0:w</title>
<path fill="none" stroke="black" stroke-width="3" d="M757.56,-242C807.27,-242 818.19,-228.17 867.23,-220 1049.78,-189.57 1100.46,-192.37 1280.02,-192.5"/>
<polygon fill="black" stroke="black" stroke-width="3" points="1276.93,-195.99 1286.93,-192.5 1276.94,-188.99 1276.93,-195.99"/>
</g>
<!-- n10&#45;&gt;x27 -->
<g id="edge32" class="edge">
<title>n10:e&#45;&gt;x27:w</title>
<path fill="none" stroke="black" stroke-width="3" d="M757.56,-242C802.3,-242 816.24,-241.79 855.93,-241.75"/>
<polygon fill="black" stroke="black" stroke-width="3" points="852.69,-245.26 862.68,-241.75 852.68,-238.26 852.69,-245.26"/>
</g>
<!-- n12&#45;&gt;x0 -->
<g id="edge38" class="edge">
<title>n12:e&#45;&gt;x0:w</title>
<path fill="none" stroke="black" stroke-width="3" d="M1210.75,-247C1244.84,-247 1251.88,-223.2 1280.05,-218"/>
<polygon fill="black" stroke="black" stroke-width="3" points="1277.29,-221.75 1286.95,-217.4 1276.69,-214.78 1277.29,-221.75"/>
</g>
<!-- n12&#45;&gt;x0 -->
<g id="edge39" class="edge">
<title>n12:e&#45;&gt;x0:w</title>
<path fill="none" stroke="black" stroke-width="3" d="M1210.75,-247C1242.64,-247 1253.17,-242.68 1280.22,-241.7"/>
<polygon fill="black" stroke="black" stroke-width="3" points="1277,-245.25 1286.94,-241.58 1276.88,-238.25 1277,-245.25"/>
</g>
<!-- n12&#45;&gt;x27 -->
<g id="edge40" class="edge">
<title>n12:e&#45;&gt;x27:w</title>
<path fill="none" stroke="black" stroke-width="3" d="M1210.75,-247C1250.76,-247 1163.04,-263.09 1123.48,-269 1057.61,-278.85 1040.53,-276.78 973.98,-279 926.56,-280.58 902.06,-311.21 867.23,-279 866.7,-278.52 866.21,-277.96 865.75,-277.34"/>
<polygon fill="black" stroke="black" stroke-width="3" points="869.1,-280.93 866.03,-270.79 862.11,-280.63 869.1,-280.93"/>
</g>
<!-- n14&#45;&gt;x9 -->
<g id="edge44" class="edge">
<title>n14:e&#45;&gt;x9:w</title>
<path fill="none" stroke="black" d="M4144.05,-228C4155.49,-228 4160.73,-226.1 4168.58,-225.01"/>
<polygon fill="black" stroke="black" points="4168.79,-228.5 4178.54,-224.35 4168.33,-221.52 4168.79,-228.5"/>
</g>
<!-- n19&#45;&gt;x6 -->
<g id="edge54" class="edge">
<title>n19:e&#45;&gt;x6:w</title>
<path fill="none" stroke="black" stroke-width="3" d="M923.88,-496C962.08,-496 966.97,-529.18 998.67,-535.66"/>
<polygon fill="black" stroke="black" stroke-width="3" points="995.17,-538.84 1005.46,-536.31 995.84,-531.87 995.17,-538.84"/>
</g>
<!-- n19&#45;&gt;x6 -->
<g id="edge55" class="edge">
<title>n19:e&#45;&gt;x6:w</title>
<path fill="none" stroke="black" stroke-width="3" d="M923.88,-496C967.77,-496 963.24,-550.52 998.81,-559.89"/>
<polygon fill="black" stroke="black" stroke-width="3" points="995.12,-562.96 1005.47,-560.7 995.97,-556.01 995.12,-562.96"/>
</g>
<!-- n19&#45;&gt;x31 -->
<g id="edge53" class="edge">
<title>n19:e&#45;&gt;x31:w</title>
<path fill="none" stroke="black" stroke-width="3" d="M923.88,-496C964.18,-496 967.57,-457.6 1000.95,-450.41"/>
<polygon fill="black" stroke="black" stroke-width="3" points="998.24,-454.2 1007.83,-449.71 997.53,-447.23 998.24,-454.2"/>
</g>
</g>
</svg>
