<?xml version="1.0" encoding="UTF-8" standalone="no"?>
<!DOCTYPE svg PUBLIC "-//W3C//DTD SVG 1.1//EN"
 "http://www.w3.org/Graphics/SVG/1.1/DTD/svg11.dtd">
<!-- Generated by graphviz version 12.2.1 (20241206.2353)
 -->
<!-- Title: top Pages: 1 -->
<svg width="1396pt" height="291pt"
 viewBox="0.00 0.00 1395.64 291.05" xmlns="http://www.w3.org/2000/svg" xmlns:xlink="http://www.w3.org/1999/xlink">
<g id="graph0" class="graph" transform="scale(1 1) rotate(0) translate(4 287.05)">
<title>top</title>
<polygon fill="white" stroke="none" points="-4,4 -4,-287.05 1391.64,-287.05 1391.64,4 -4,4"/>
<text text-anchor="middle" x="693.82" y="-7.2" font-family="Times,serif" font-size="14.00">top</text>
<!-- n4 -->
<g id="node1" class="node">
<title>n4</title>
<polygon fill="none" stroke="black" points="107.84,-142.29 107.84,-157.21 76.26,-167.75 31.59,-167.75 0,-157.21 0,-142.29 31.59,-131.75 76.26,-131.75 107.84,-142.29"/>
<text text-anchor="middle" x="53.92" y="-144.7" font-family="Times,serif" font-size="14.00">input_data</text>
</g>
<!-- x0 -->
<g id="node4" class="node">
<title>x0</title>
<path fill="none" stroke="black" d="M155.84,-60.75C155.84,-60.75 194.34,-60.75 194.34,-60.75 200.34,-60.75 206.34,-66.75 206.34,-72.75 206.34,-72.75 206.34,-84.75 206.34,-84.75 206.34,-90.75 200.34,-96.75 194.34,-96.75 194.34,-96.75 155.84,-96.75 155.84,-96.75 149.84,-96.75 143.84,-90.75 143.84,-84.75 143.84,-84.75 143.84,-72.75 143.84,-72.75 143.84,-66.75 149.84,-60.75 155.84,-60.75"/>
<text text-anchor="middle" x="175.09" y="-73.95" font-family="Times,serif" font-size="14.00">4:0 &#45; 4:0</text>
</g>
<!-- n4&#45;&gt;x0 -->
<g id="edge21" class="edge">
<title>n4:e&#45;&gt;x0:w</title>
<path fill="none" stroke="black" stroke-width="3" d="M107.84,-149.75C138.44,-149.75 116.51,-96.54 133.15,-82.41"/>
<polygon fill="black" stroke="black" stroke-width="3" points="131.05,-86.76 139.52,-80.38 128.92,-80.09 131.05,-86.76"/>
</g>
<!-- x1 -->
<g id="node6" class="node">
<title>x1</title>
<path fill="none" stroke="black" d="M155.84,-210.75C155.84,-210.75 194.34,-210.75 194.34,-210.75 200.34,-210.75 206.34,-216.75 206.34,-222.75 206.34,-222.75 206.34,-234.75 206.34,-234.75 206.34,-240.75 200.34,-246.75 194.34,-246.75 194.34,-246.75 155.84,-246.75 155.84,-246.75 149.84,-246.75 143.84,-240.75 143.84,-234.75 143.84,-234.75 143.84,-222.75 143.84,-222.75 143.84,-216.75 149.84,-210.75 155.84,-210.75"/>
<text text-anchor="middle" x="175.09" y="-223.95" font-family="Times,serif" font-size="14.00">4:0 &#45; 4:0</text>
</g>
<!-- n4&#45;&gt;x1 -->
<g id="edge22" class="edge">
<title>n4:e&#45;&gt;x1:w</title>
<path fill="none" stroke="black" stroke-width="3" d="M107.84,-149.75C141.84,-149.75 114,-210.97 133.02,-225.8"/>
<polygon fill="black" stroke="black" stroke-width="3" points="128.91,-228.22 139.49,-227.71 130.89,-221.51 128.91,-228.22"/>
</g>
<!-- x2 -->
<g id="node7" class="node">
<title>x2</title>
<path fill="none" stroke="black" d="M155.84,-155.75C155.84,-155.75 194.34,-155.75 194.34,-155.75 200.34,-155.75 206.34,-161.75 206.34,-167.75 206.34,-167.75 206.34,-179.75 206.34,-179.75 206.34,-185.75 200.34,-191.75 194.34,-191.75 194.34,-191.75 155.84,-191.75 155.84,-191.75 149.84,-191.75 143.84,-185.75 143.84,-179.75 143.84,-179.75 143.84,-167.75 143.84,-167.75 143.84,-161.75 149.84,-155.75 155.84,-155.75"/>
<text text-anchor="middle" x="175.09" y="-168.95" font-family="Times,serif" font-size="14.00">4:0 &#45; 4:0</text>
</g>
<!-- n4&#45;&gt;x2 -->
<g id="edge23" class="edge">
<title>n4:e&#45;&gt;x2:w</title>
<path fill="none" stroke="black" stroke-width="3" d="M107.84,-149.75C122.46,-149.75 124.52,-163.68 133.05,-170.42"/>
<polygon fill="black" stroke="black" stroke-width="3" points="128.94,-172.74 139.53,-172.57 131.14,-166.1 128.94,-172.74"/>
</g>
<!-- x6 -->
<g id="node12" class="node">
<title>x6</title>
<path fill="none" stroke="black" d="M602.47,-96.75C602.47,-96.75 640.97,-96.75 640.97,-96.75 646.97,-96.75 652.97,-102.75 652.97,-108.75 652.97,-108.75 652.97,-120.75 652.97,-120.75 652.97,-126.75 646.97,-132.75 640.97,-132.75 640.97,-132.75 602.47,-132.75 602.47,-132.75 596.47,-132.75 590.47,-126.75 590.47,-120.75 590.47,-120.75 590.47,-108.75 590.47,-108.75 590.47,-102.75 596.47,-96.75 602.47,-96.75"/>
<text text-anchor="middle" x="621.72" y="-109.95" font-family="Times,serif" font-size="14.00">4:4 &#45; 0:0</text>
</g>
<!-- n4&#45;&gt;x6 -->
<g id="edge24" class="edge">
<title>n4:e&#45;&gt;x6:w</title>
<path fill="none" stroke="black" d="M107.84,-149.75C148.17,-149.75 247.52,-126.75 287.84,-126.75 287.84,-126.75 287.84,-126.75 403.59,-126.75 482.49,-126.75 504.65,-116.08 578.22,-115.08"/>
<polygon fill="black" stroke="black" points="577.98,-118.58 587.95,-115.01 577.93,-111.58 577.98,-118.58"/>
</g>
<!-- n5 -->
<g id="node2" class="node">
<title>n5</title>
<polygon fill="none" stroke="black" points="1387.64,-79.29 1387.64,-94.21 1353.13,-104.75 1304.33,-104.75 1269.82,-94.21 1269.82,-79.29 1304.33,-68.75 1353.13,-68.75 1387.64,-79.29"/>
<text text-anchor="middle" x="1328.73" y="-81.7" font-family="Times,serif" font-size="14.00">output_data</text>
</g>
<!-- c8 -->
<g id="node3" class="node">
<title>c8</title>
<polygon fill="none" stroke="black" points="243.09,-57.25 243.09,-98.25 334.59,-98.25 334.59,-57.25 243.09,-57.25"/>
<text text-anchor="middle" x="255.97" y="-72.95" font-family="Times,serif" font-size="14.00">A</text>
<polyline fill="none" stroke="black" points="268.84,-57.25 268.84,-98.25"/>
<text text-anchor="middle" x="288.84" y="-80.95" font-family="Times,serif" font-size="14.00">$2</text>
<text text-anchor="middle" x="288.84" y="-64.45" font-family="Times,serif" font-size="14.00">$not</text>
<polyline fill="none" stroke="black" points="308.84,-57.25 308.84,-98.25"/>
<text text-anchor="middle" x="321.72" y="-72.95" font-family="Times,serif" font-size="14.00">Y</text>
</g>
<!-- n1 -->
<g id="node18" class="node">
<title>n1</title>
<ellipse fill="black" stroke="black" cx="402.59" cy="-77.75" rx="1.8" ry="1.8"/>
</g>
<!-- c8&#45;&gt;n1 -->
<g id="edge10" class="edge">
<title>c8:e&#45;&gt;n1:w</title>
<path fill="none" stroke="black" stroke-width="3" d="M335.34,-78C359.55,-78 368.3,-77.82 387.92,-77.76"/>
<polygon fill="black" stroke="black" stroke-width="3" points="384.78,-81.27 394.77,-77.76 384.77,-74.27 384.78,-81.27"/>
</g>
<!-- x0&#45;&gt;c8 -->
<g id="edge1" class="edge">
<title>x0:e&#45;&gt;c8:w</title>
<path fill="none" stroke="black" stroke-width="3" d="M219.06,-78.56C222.66,-78.45 225.79,-78.31 229.37,-78.2"/>
<polygon fill="none" stroke="black" stroke-width="3" points="221.04,-78.53 215.1,-82.62 209.04,-78.71 214.98,-74.62 221.04,-78.53"/>
<polygon fill="none" stroke="black" stroke-width="3" points="227.64,-78.22 233.58,-74.13 239.64,-78.04 233.7,-82.13 227.64,-78.22"/>
</g>
<!-- c10 -->
<g id="node5" class="node">
<title>c10</title>
<polygon fill="none" stroke="black" points="242.34,-191.25 242.34,-240.25 335.34,-240.25 335.34,-191.25 242.34,-191.25"/>
<text text-anchor="middle" x="255.22" y="-222.95" font-family="Times,serif" font-size="14.00">A</text>
<polyline fill="none" stroke="black" points="242.34,-215.75 268.09,-215.75"/>
<text text-anchor="middle" x="255.22" y="-198.45" font-family="Times,serif" font-size="14.00">B</text>
<polyline fill="none" stroke="black" points="268.09,-191.25 268.09,-240.25"/>
<text text-anchor="middle" x="288.84" y="-218.95" font-family="Times,serif" font-size="14.00">$4</text>
<text text-anchor="middle" x="288.84" y="-202.45" font-family="Times,serif" font-size="14.00">$sub</text>
<polyline fill="none" stroke="black" points="309.59,-191.25 309.59,-240.25"/>
<text text-anchor="middle" x="322.47" y="-210.95" font-family="Times,serif" font-size="14.00">Y</text>
</g>
<!-- x3 -->
<g id="node8" class="node">
<title>x3</title>
<path fill="none" stroke="black" d="M383.34,-191.25C383.34,-191.25 421.84,-191.25 421.84,-191.25 427.84,-191.25 433.84,-197.25 433.84,-203.25 433.84,-203.25 433.84,-228.25 433.84,-228.25 433.84,-234.25 427.84,-240.25 421.84,-240.25 421.84,-240.25 383.34,-240.25 383.34,-240.25 377.34,-240.25 371.34,-234.25 371.34,-228.25 371.34,-228.25 371.34,-203.25 371.34,-203.25 371.34,-197.25 377.34,-191.25 383.34,-191.25"/>
<text text-anchor="middle" x="402.59" y="-222.95" font-family="Times,serif" font-size="14.00">4:4 &#45; 4:4</text>
<polyline fill="none" stroke="black" points="371.34,-215.75 433.84,-215.75"/>
<text text-anchor="middle" x="402.59" y="-198.45" font-family="Times,serif" font-size="14.00">3:0 &#45; 3:0</text>
</g>
<!-- c10&#45;&gt;x3 -->
<g id="edge4" class="edge">
<title>c10:e&#45;&gt;x3:w</title>
<path fill="none" stroke="black" stroke-width="3" d="M348.06,-215.94C351.66,-215.9 354.79,-215.85 358.37,-215.82"/>
<polygon fill="none" stroke="black" stroke-width="3" points="350.04,-215.93 344.06,-219.96 338.05,-215.99 344.03,-211.96 350.04,-215.93"/>
<polygon fill="none" stroke="black" stroke-width="3" points="356.64,-215.82 362.62,-211.79 368.64,-215.76 362.66,-219.79 356.64,-215.82"/>
</g>
<!-- x1&#45;&gt;c10 -->
<g id="edge2" class="edge">
<title>x1:e&#45;&gt;c10:w</title>
<path fill="none" stroke="black" stroke-width="3" d="M219.06,-228.56C222.66,-228.45 225.79,-228.31 229.37,-228.2"/>
<polygon fill="none" stroke="black" stroke-width="3" points="221.04,-228.53 215.1,-232.62 209.04,-228.71 214.98,-224.62 221.04,-228.53"/>
<polygon fill="none" stroke="black" stroke-width="3" points="227.64,-228.22 233.58,-224.13 239.64,-228.04 233.7,-232.13 227.64,-228.22"/>
</g>
<!-- x2&#45;&gt;c10 -->
<g id="edge3" class="edge">
<title>x2:e&#45;&gt;c10:w</title>
<path fill="none" stroke="black" stroke-width="3" d="M218.31,-178.93C223.25,-184.39 225.47,-192.94 230.43,-198.38"/>
<polygon fill="none" stroke="black" stroke-width="3" points="219.83,-179.59 212.74,-180.88 208.82,-174.82 215.92,-173.54 219.83,-179.59"/>
<polygon fill="none" stroke="black" stroke-width="3" points="228.83,-197.69 235.93,-196.39 239.86,-202.43 232.76,-203.74 228.83,-197.69"/>
</g>
<!-- n2 -->
<g id="node19" class="node">
<title>n2</title>
<ellipse fill="black" stroke="black" cx="501.09" cy="-203.75" rx="1.8" ry="1.8"/>
</g>
<!-- x3&#45;&gt;n2 -->
<g id="edge13" class="edge">
<title>x3:e&#45;&gt;n2:w</title>
<path fill="none" stroke="black" stroke-width="3" d="M433.84,-203.5C458.05,-203.5 466.8,-203.68 486.42,-203.74"/>
<polygon fill="black" stroke="black" stroke-width="3" points="483.27,-207.23 493.27,-203.74 483.28,-200.23 483.27,-207.23"/>
</g>
<!-- n3 -->
<g id="node20" class="node">
<title>n3</title>
<ellipse fill="black" stroke="black" cx="831.64" cy="-227.75" rx="1.8" ry="1.8"/>
</g>
<!-- x3&#45;&gt;n3 -->
<g id="edge18" class="edge">
<title>x3:e&#45;&gt;n3:w</title>
<path fill="none" stroke="black" d="M433.84,-228C449.46,-228 695.53,-273.45 711.09,-274.75 747.74,-277.82 760.86,-291.03 793.84,-274.75 813.2,-265.2 807.32,-239.69 819.1,-230.83"/>
<polygon fill="black" stroke="black" points="819.74,-234.29 828.39,-228.17 817.81,-227.56 819.74,-234.29"/>
</g>
<!-- c12 -->
<g id="node9" class="node">
<title>c12</title>
<polygon fill="none" stroke="black" points="995.38,-87 995.38,-160.5 1094.38,-160.5 1094.38,-87 995.38,-87"/>
<text text-anchor="middle" x="1008.26" y="-143.2" font-family="Times,serif" font-size="14.00">A</text>
<polyline fill="none" stroke="black" points="995.38,-136 1021.13,-136"/>
<text text-anchor="middle" x="1008.26" y="-118.7" font-family="Times,serif" font-size="14.00">B</text>
<polyline fill="none" stroke="black" points="995.38,-111.5 1021.13,-111.5"/>
<text text-anchor="middle" x="1008.26" y="-94.2" font-family="Times,serif" font-size="14.00">S</text>
<polyline fill="none" stroke="black" points="1021.13,-87 1021.13,-160.5"/>
<text text-anchor="middle" x="1044.88" y="-126.95" font-family="Times,serif" font-size="14.00">$5</text>
<text text-anchor="middle" x="1044.88" y="-110.45" font-family="Times,serif" font-size="14.00">$mux</text>
<polyline fill="none" stroke="black" points="1068.63,-87 1068.63,-160.5"/>
<text text-anchor="middle" x="1081.51" y="-118.7" font-family="Times,serif" font-size="14.00">Y</text>
</g>
<!-- x7 -->
<g id="node13" class="node">
<title>x7</title>
<path fill="none" stroke="black" d="M1176.57,-100.75C1176.57,-100.75 1215.07,-100.75 1215.07,-100.75 1221.07,-100.75 1227.07,-106.75 1227.07,-112.75 1227.07,-112.75 1227.07,-124.75 1227.07,-124.75 1227.07,-130.75 1221.07,-136.75 1215.07,-136.75 1215.07,-136.75 1176.57,-136.75 1176.57,-136.75 1170.57,-136.75 1164.57,-130.75 1164.57,-124.75 1164.57,-124.75 1164.57,-112.75 1164.57,-112.75 1164.57,-106.75 1170.57,-100.75 1176.57,-100.75"/>
<text text-anchor="middle" x="1195.82" y="-113.95" font-family="Times,serif" font-size="14.00">4:0 &#45; 4:0</text>
</g>
<!-- c12&#45;&gt;x7 -->
<g id="edge8" class="edge">
<title>c12:e&#45;&gt;x7:w</title>
<path fill="none" stroke="black" stroke-width="3" d="M1108.4,-123.41C1124.92,-122.49 1134.17,-119.99 1150.75,-119.08"/>
<polygon fill="none" stroke="black" stroke-width="3" points="1110.08,-123.36 1104.19,-127.52 1098.09,-123.68 1103.98,-119.52 1110.08,-123.36"/>
<polygon fill="none" stroke="black" stroke-width="3" points="1148.88,-119.13 1154.77,-114.98 1160.87,-118.82 1154.98,-122.97 1148.88,-119.13"/>
</g>
<!-- x4 -->
<g id="node10" class="node">
<title>x4</title>
<path fill="none" stroke="black" d="M881.44,-152.25C881.44,-152.25 919.94,-152.25 919.94,-152.25 925.94,-152.25 931.94,-158.25 931.94,-164.25 931.94,-164.25 931.94,-189.25 931.94,-189.25 931.94,-195.25 925.94,-201.25 919.94,-201.25 919.94,-201.25 881.44,-201.25 881.44,-201.25 875.44,-201.25 869.44,-195.25 869.44,-189.25 869.44,-189.25 869.44,-164.25 869.44,-164.25 869.44,-158.25 875.44,-152.25 881.44,-152.25"/>
<text text-anchor="middle" x="900.69" y="-183.95" font-family="Times,serif" font-size="14.00">4:4 &#45; 4:4</text>
<polyline fill="none" stroke="black" points="869.44,-176.75 931.94,-176.75"/>
<text text-anchor="middle" x="900.69" y="-159.45" font-family="Times,serif" font-size="14.00">3:0 &#45; 3:0</text>
</g>
<!-- x4&#45;&gt;c12 -->
<g id="edge5" class="edge">
<title>x4:e&#45;&gt;c12:w</title>
<path fill="none" stroke="black" stroke-width="3" d="M944.6,-174.79C960.08,-169.56 966.36,-155.31 981.91,-150.15"/>
<polygon fill="none" stroke="black" stroke-width="3" points="946.47,-174.5 941.15,-179.37 934.61,-176.34 939.93,-171.47 946.47,-174.5"/>
<polygon fill="none" stroke="black" stroke-width="3" points="979.85,-150.46 985.18,-145.6 991.71,-148.66 986.38,-153.51 979.85,-150.46"/>
</g>
<!-- x5 -->
<g id="node11" class="node">
<title>x5</title>
<path fill="none" stroke="black" d="M481.84,-25C481.84,-25 520.34,-25 520.34,-25 526.34,-25 532.34,-31 532.34,-37 532.34,-37 532.34,-86.5 532.34,-86.5 532.34,-92.5 526.34,-98.5 520.34,-98.5 520.34,-98.5 481.84,-98.5 481.84,-98.5 475.84,-98.5 469.84,-92.5 469.84,-86.5 469.84,-86.5 469.84,-37 469.84,-37 469.84,-31 475.84,-25 481.84,-25"/>
<text text-anchor="middle" x="501.09" y="-81.2" font-family="Times,serif" font-size="14.00">4:2 &#45; 4:2</text>
<polyline fill="none" stroke="black" points="469.84,-74 532.34,-74"/>
<text text-anchor="middle" x="501.09" y="-56.7" font-family="Times,serif" font-size="14.00">1 &#45;&gt; 1:1</text>
<polyline fill="none" stroke="black" points="469.84,-49.5 532.34,-49.5"/>
<text text-anchor="middle" x="501.09" y="-32.2" font-family="Times,serif" font-size="14.00">0:0 &#45; 0:0</text>
</g>
<!-- x5&#45;&gt;c12 -->
<g id="edge6" class="edge">
<title>x5:e&#45;&gt;c12:w</title>
<path fill="none" stroke="black" stroke-width="3" d="M545.18,-61.83C737.38,-64.27 789.33,-121.22 981.52,-123.67"/>
<polygon fill="none" stroke="black" stroke-width="3" points="547.04,-61.84 541.02,-65.8 535.04,-61.77 541.07,-57.8 547.04,-61.84"/>
<polygon fill="none" stroke="black" stroke-width="3" points="979.68,-123.66 985.7,-119.7 991.68,-123.73 985.65,-127.69 979.68,-123.66"/>
</g>
<!-- x6&#45;&gt;c12 -->
<g id="edge7" class="edge">
<title>x6:e&#45;&gt;c12:w</title>
<path fill="none" stroke="black" d="M666.99,-114.71C803.59,-113.88 844.96,-100.09 981.73,-99.29"/>
<polygon fill="none" stroke="black" points="666.87,-114.71 660.88,-118.73 654.87,-114.75 660.86,-110.73 666.87,-114.71"/>
<polygon fill="none" stroke="black" points="981.48,-99.29 987.47,-95.27 993.48,-99.25 987.49,-103.27 981.48,-99.29"/>
</g>
<!-- x7&#45;&gt;n5 -->
<g id="edge25" class="edge">
<title>x7:e&#45;&gt;n5:w</title>
<path fill="none" stroke="black" stroke-width="3" d="M1228.07,-119C1246.94,-119 1247.3,-98.12 1258.93,-89.96"/>
<polygon fill="black" stroke="black" stroke-width="3" points="1256.87,-94.22 1265.47,-88.03 1254.89,-87.5 1256.87,-94.22"/>
</g>
<!-- v8 -->
<g id="node14" class="node">
<title>v8</title>
<ellipse fill="none" stroke="black" cx="1044.88" cy="-50.75" rx="76.94" ry="18"/>
<text text-anchor="middle" x="1044.88" y="-45.7" font-family="Times,serif" font-size="14.00">12&#39;000000000000</text>
</g>
<!-- x9 -->
<g id="node15" class="node">
<title>x9</title>
<path fill="none" stroke="black" d="M1169.82,-41.75C1169.82,-41.75 1221.82,-41.75 1221.82,-41.75 1227.82,-41.75 1233.82,-47.75 1233.82,-53.75 1233.82,-53.75 1233.82,-65.75 1233.82,-65.75 1233.82,-71.75 1227.82,-77.75 1221.82,-77.75 1221.82,-77.75 1169.82,-77.75 1169.82,-77.75 1163.82,-77.75 1157.82,-71.75 1157.82,-65.75 1157.82,-65.75 1157.82,-53.75 1157.82,-53.75 1157.82,-47.75 1163.82,-41.75 1169.82,-41.75"/>
<text text-anchor="middle" x="1195.82" y="-54.95" font-family="Times,serif" font-size="14.00">11:0 &#45; 16:5</text>
</g>
<!-- v8&#45;&gt;x9 -->
<g id="edge27" class="edge">
<title>v8:e&#45;&gt;x9:w</title>
<path fill="none" stroke="black" stroke-width="3" d="M1121.82,-50.75C1133.68,-50.75 1138.57,-55.4 1146.51,-58.01"/>
<polygon fill="black" stroke="black" stroke-width="3" points="1142.92,-61.01 1153.34,-59.06 1143.98,-54.09 1142.92,-61.01"/>
</g>
<!-- x9&#45;&gt;n5 -->
<g id="edge26" class="edge">
<title>x9:e&#45;&gt;n5:w</title>
<path fill="none" stroke="black" stroke-width="3" d="M1233.82,-60C1249.09,-60 1250.4,-75.68 1259.12,-83.03"/>
<polygon fill="black" stroke="black" stroke-width="3" points="1254.94,-85.28 1265.54,-85.26 1257.24,-78.67 1254.94,-85.28"/>
</g>
<!-- x10 -->
<g id="node16" class="node">
<title>x10</title>
<path fill="none" stroke="black" d="M580.34,-191.25C580.34,-191.25 663.09,-191.25 663.09,-191.25 669.09,-191.25 675.09,-197.25 675.09,-203.25 675.09,-203.25 675.09,-228.25 675.09,-228.25 675.09,-234.25 669.09,-240.25 663.09,-240.25 663.09,-240.25 580.34,-240.25 580.34,-240.25 574.34,-240.25 568.34,-234.25 568.34,-228.25 568.34,-228.25 568.34,-203.25 568.34,-203.25 568.34,-197.25 574.34,-191.25 580.34,-191.25"/>
<text text-anchor="middle" x="621.72" y="-222.95" font-family="Times,serif" font-size="14.00">10x 22:22 &#45; 13:4</text>
<polyline fill="none" stroke="black" points="568.34,-215.75 675.09,-215.75"/>
<text text-anchor="middle" x="621.72" y="-198.45" font-family="Times,serif" font-size="14.00">3:0 &#45; 3:0</text>
</g>
<!-- x11 -->
<g id="node17" class="node">
<title>x11</title>
<path fill="none" stroke="black" d="M723.09,-191.25C723.09,-191.25 781.84,-191.25 781.84,-191.25 787.84,-191.25 793.84,-197.25 793.84,-203.25 793.84,-203.25 793.84,-228.25 793.84,-228.25 793.84,-234.25 787.84,-240.25 781.84,-240.25 781.84,-240.25 723.09,-240.25 723.09,-240.25 717.09,-240.25 711.09,-234.25 711.09,-228.25 711.09,-228.25 711.09,-203.25 711.09,-203.25 711.09,-197.25 717.09,-191.25 723.09,-191.25"/>
<text text-anchor="middle" x="752.47" y="-222.95" font-family="Times,serif" font-size="14.00">13:4 &#45; 21:12</text>
<polyline fill="none" stroke="black" points="711.09,-215.75 793.84,-215.75"/>
<text text-anchor="middle" x="752.47" y="-198.45" font-family="Times,serif" font-size="14.00">3:0 &#45; 3:0</text>
</g>
<!-- x10&#45;&gt;x11 -->
<g id="edge9" class="edge">
<title>x10:e&#45;&gt;x11:w</title>
<path fill="none" stroke="black" stroke-width="3" d="M687.81,-215.75C691.41,-215.75 694.54,-215.75 698.12,-215.75"/>
<polygon fill="none" stroke="black" stroke-width="3" points="689.8,-215.75 683.8,-219.75 677.8,-215.75 683.8,-211.75 689.8,-215.75"/>
<polygon fill="none" stroke="black" stroke-width="3" points="696.39,-215.75 702.39,-211.75 708.39,-215.75 702.39,-219.75 696.39,-215.75"/>
</g>
<!-- x11&#45;&gt;n3 -->
<g id="edge16" class="edge">
<title>x11:e&#45;&gt;n3:w</title>
<path fill="none" stroke="black" stroke-width="3" d="M793.84,-203.5C808.46,-203.5 810.52,-217.43 819.05,-224.17"/>
<polygon fill="black" stroke="black" stroke-width="3" points="814.94,-226.49 825.53,-226.32 817.14,-219.85 814.94,-226.49"/>
</g>
<!-- x11&#45;&gt;n3 -->
<g id="edge17" class="edge">
<title>x11:e&#45;&gt;n3:w</title>
<path fill="none" stroke="black" stroke-width="3" d="M793.84,-228C805.22,-228 810.53,-227.87 818.39,-227.8"/>
<polygon fill="black" stroke="black" stroke-width="3" points="815.32,-231.31 825.3,-227.77 815.28,-224.31 815.32,-231.31"/>
</g>
<!-- n1&#45;&gt;x5 -->
<g id="edge11" class="edge">
<title>n1:e&#45;&gt;x5:w</title>
<path fill="none" stroke="black" d="M405.87,-77.75C435.18,-77.75 436.43,-47.02 458.51,-39.1"/>
<polygon fill="black" stroke="black" points="459.04,-42.56 468.35,-37.49 457.91,-35.65 459.04,-42.56"/>
</g>
<!-- n1&#45;&gt;x5 -->
<g id="edge12" class="edge">
<title>n1:e&#45;&gt;x5:w</title>
<path fill="none" stroke="black" stroke-width="3" d="M405.87,-77.75C430.29,-77.75 438.71,-83.91 458.38,-85.74"/>
<polygon fill="black" stroke="black" stroke-width="3" points="455.16,-89.1 465.3,-86.05 455.47,-82.11 455.16,-89.1"/>
</g>
<!-- n2&#45;&gt;x4 -->
<g id="edge15" class="edge">
<title>n2:e&#45;&gt;x4:w</title>
<path fill="none" stroke="black" stroke-width="3" d="M504.37,-203.75C534.44,-203.75 538.84,-187.55 568.34,-181.75 696.14,-156.61 733.31,-164.04 858.29,-164.48"/>
<polygon fill="black" stroke="black" stroke-width="3" points="854.89,-167.97 864.9,-164.49 854.91,-160.97 854.89,-167.97"/>
</g>
<!-- n2&#45;&gt;x10 -->
<g id="edge14" class="edge">
<title>n2:e&#45;&gt;x10:w</title>
<path fill="none" stroke="black" stroke-width="3" d="M504.37,-203.75C528.58,-203.75 537.33,-203.57 556.95,-203.51"/>
<polygon fill="black" stroke="black" stroke-width="3" points="553.8,-207.02 563.8,-203.51 553.8,-200.02 553.8,-207.02"/>
</g>
<!-- n3&#45;&gt;x4 -->
<g id="edge20" class="edge">
<title>n3:e&#45;&gt;x4:w</title>
<path fill="none" stroke="black" d="M833.44,-227.75C852.17,-227.75 848.98,-203.14 858.81,-193.15"/>
<polygon fill="black" stroke="black" points="859.99,-196.45 868.03,-189.55 857.44,-189.92 859.99,-196.45"/>
</g>
<!-- n3&#45;&gt;x10 -->
<g id="edge19" class="edge">
<title>n3:e&#45;&gt;x10:w</title>
<path fill="none" stroke="black" stroke-width="3" d="M834.92,-227.75C855.63,-227.75 813.99,-244.96 793.84,-249.75 696.26,-272.95 639.81,-311.13 568.34,-240.75 567.83,-240.25 567.35,-239.68 566.9,-239.06"/>
<polygon fill="black" stroke="black" stroke-width="3" points="570.26,-242.67 567.16,-232.54 563.27,-242.39 570.26,-242.67"/>
</g>
</g>
</svg>
