<?xml version="1.0" encoding="UTF-8" standalone="no"?>
<!DOCTYPE svg PUBLIC "-//W3C//DTD SVG 1.1//EN"
 "http://www.w3.org/Graphics/SVG/1.1/DTD/svg11.dtd">
<!-- Generated by graphviz version 12.2.1 (20241206.2353)
 -->
<!-- Title: top Pages: 1 -->
<svg width="1337pt" height="187pt"
 viewBox="0.00 0.00 1336.94 186.50" xmlns="http://www.w3.org/2000/svg" xmlns:xlink="http://www.w3.org/1999/xlink">
<g id="graph0" class="graph" transform="scale(1 1) rotate(0) translate(4 182.5)">
<title>top</title>
<polygon fill="white" stroke="none" points="-4,4 -4,-182.5 1332.94,-182.5 1332.94,4 -4,4"/>
<text text-anchor="middle" x="664.47" y="-7.2" font-family="Times,serif" font-size="14.00">top</text>
<!-- n5 -->
<g id="node1" class="node">
<title>n5</title>
<polygon fill="none" stroke="black" points="107.84,-79.04 107.84,-93.96 76.26,-104.5 31.59,-104.5 0,-93.96 0,-79.04 31.59,-68.5 76.26,-68.5 107.84,-79.04"/>
<text text-anchor="middle" x="53.92" y="-81.45" font-family="Times,serif" font-size="14.00">input_data</text>
</g>
<!-- c11 -->
<g id="node4" class="node">
<title>c11</title>
<polygon fill="none" stroke="black" points="689.69,-44 689.69,-93 783.44,-93 783.44,-44 689.69,-44"/>
<text text-anchor="middle" x="702.57" y="-75.7" font-family="Times,serif" font-size="14.00">A</text>
<polyline fill="none" stroke="black" points="689.69,-68.5 715.44,-68.5"/>
<text text-anchor="middle" x="702.57" y="-51.2" font-family="Times,serif" font-size="14.00">B</text>
<polyline fill="none" stroke="black" points="715.44,-44 715.44,-93"/>
<text text-anchor="middle" x="736.57" y="-71.7" font-family="Times,serif" font-size="14.00">$6</text>
<text text-anchor="middle" x="736.57" y="-55.2" font-family="Times,serif" font-size="14.00">$add</text>
<polyline fill="none" stroke="black" points="757.69,-44 757.69,-93"/>
<text text-anchor="middle" x="770.57" y="-63.7" font-family="Times,serif" font-size="14.00">Y</text>
</g>
<!-- n5&#45;&gt;c11 -->
<g id="edge8" class="edge">
<title>n5:e&#45;&gt;c11:w</title>
<path fill="none" stroke="black" stroke-width="3" d="M107.84,-86.5C117.6,-86.5 262.38,-24.5 272.14,-24.5 272.14,-24.5 272.14,-24.5 479.94,-24.5 570.27,-24.5 593.5,-53.64 678.19,-56.09"/>
<polygon fill="black" stroke="black" stroke-width="3" points="675.1,-59.54 685.15,-56.19 675.2,-52.54 675.1,-59.54"/>
</g>
<!-- c12 -->
<g id="node5" class="node">
<title>c12</title>
<polygon fill="none" stroke="black" points="143.84,-91 143.84,-132 235.34,-132 235.34,-91 143.84,-91"/>
<text text-anchor="middle" x="156.72" y="-106.7" font-family="Times,serif" font-size="14.00">A</text>
<polyline fill="none" stroke="black" points="169.59,-91 169.59,-132"/>
<text text-anchor="middle" x="189.59" y="-114.7" font-family="Times,serif" font-size="14.00">$1</text>
<text text-anchor="middle" x="189.59" y="-98.2" font-family="Times,serif" font-size="14.00">$not</text>
<polyline fill="none" stroke="black" points="209.59,-91 209.59,-132"/>
<text text-anchor="middle" x="222.47" y="-106.7" font-family="Times,serif" font-size="14.00">Y</text>
</g>
<!-- n5&#45;&gt;c12 -->
<g id="edge9" class="edge">
<title>n5:e&#45;&gt;c12:w</title>
<path fill="none" stroke="black" stroke-width="3" d="M107.84,-86.5C122.65,-86.5 124.47,-101 132.98,-108.02"/>
<polygon fill="black" stroke="black" stroke-width="3" points="128.95,-110.34 139.55,-110.28 131.22,-103.72 128.95,-110.34"/>
</g>
<!-- c13 -->
<g id="node6" class="node">
<title>c13</title>
<polygon fill="none" stroke="black" points="310.94,-129 310.94,-178 396.44,-178 396.44,-129 310.94,-129"/>
<text text-anchor="middle" x="323.82" y="-160.7" font-family="Times,serif" font-size="14.00">A</text>
<polyline fill="none" stroke="black" points="310.94,-153.5 336.69,-153.5"/>
<text text-anchor="middle" x="323.82" y="-136.2" font-family="Times,serif" font-size="14.00">B</text>
<polyline fill="none" stroke="black" points="336.69,-129 336.69,-178"/>
<text text-anchor="middle" x="353.69" y="-156.7" font-family="Times,serif" font-size="14.00">$2</text>
<text text-anchor="middle" x="353.69" y="-140.2" font-family="Times,serif" font-size="14.00">$or</text>
<polyline fill="none" stroke="black" points="370.69,-129 370.69,-178"/>
<text text-anchor="middle" x="383.57" y="-148.7" font-family="Times,serif" font-size="14.00">Y</text>
</g>
<!-- n5&#45;&gt;c13 -->
<g id="edge10" class="edge">
<title>n5:e&#45;&gt;c13:w</title>
<path fill="none" stroke="black" stroke-width="3" d="M107.84,-86.5C137.06,-86.5 119.21,-125.79 143.84,-141.5 203.78,-179.72 232.76,-167.29 299.44,-165.87"/>
<polygon fill="black" stroke="black" stroke-width="3" points="296.44,-169.41 306.4,-165.8 296.36,-162.41 296.44,-169.41"/>
</g>
<!-- c14 -->
<g id="node7" class="node">
<title>c14</title>
<polygon fill="none" stroke="black" points="432.44,-129 432.44,-178 525.44,-178 525.44,-129 432.44,-129"/>
<text text-anchor="middle" x="445.32" y="-160.7" font-family="Times,serif" font-size="14.00">A</text>
<polyline fill="none" stroke="black" points="432.44,-153.5 458.19,-153.5"/>
<text text-anchor="middle" x="445.32" y="-136.2" font-family="Times,serif" font-size="14.00">B</text>
<polyline fill="none" stroke="black" points="458.19,-129 458.19,-178"/>
<text text-anchor="middle" x="478.94" y="-156.7" font-family="Times,serif" font-size="14.00">$3</text>
<text text-anchor="middle" x="478.94" y="-140.2" font-family="Times,serif" font-size="14.00">$sub</text>
<polyline fill="none" stroke="black" points="499.69,-129 499.69,-178"/>
<text text-anchor="middle" x="512.57" y="-148.7" font-family="Times,serif" font-size="14.00">Y</text>
</g>
<!-- n5&#45;&gt;c14 -->
<g id="edge11" class="edge">
<title>n5:e&#45;&gt;c14:w</title>
<path fill="none" stroke="black" stroke-width="3" d="M107.84,-86.5C123.99,-86.5 127.73,-82.61 143.84,-81.5 184.41,-78.7 194.95,-76.8 235.34,-81.5 308.41,-90 328.33,-91.7 396.44,-119.5 409.42,-124.8 412.67,-134.38 421.36,-138.85"/>
<polygon fill="black" stroke="black" stroke-width="3" points="417.49,-141.59 428,-140.29 418.97,-134.74 417.49,-141.59"/>
</g>
<!-- n6 -->
<g id="node2" class="node">
<title>n6</title>
<polygon fill="none" stroke="black" points="1328.94,-88.04 1328.94,-102.96 1294.43,-113.5 1245.63,-113.5 1211.13,-102.96 1211.13,-88.04 1245.63,-77.5 1294.43,-77.5 1328.94,-88.04"/>
<text text-anchor="middle" x="1270.03" y="-90.45" font-family="Times,serif" font-size="14.00">output_data</text>
</g>
<!-- n7 -->
<g id="node3" class="node">
<title>n7</title>
<polygon fill="none" stroke="black" points="874.69,-86.5 819.44,-68.5 874.69,-50.5 929.94,-68.5 874.69,-86.5"/>
<text text-anchor="middle" x="874.69" y="-63.45" font-family="Times,serif" font-size="14.00">temp_0</text>
</g>
<!-- x1 -->
<g id="node10" class="node">
<title>x1</title>
<path fill="none" stroke="black" d="M986.78,-50.5C986.78,-50.5 1025.28,-50.5 1025.28,-50.5 1031.28,-50.5 1037.28,-56.5 1037.28,-62.5 1037.28,-62.5 1037.28,-74.5 1037.28,-74.5 1037.28,-80.5 1031.28,-86.5 1025.28,-86.5 1025.28,-86.5 986.78,-86.5 986.78,-86.5 980.78,-86.5 974.78,-80.5 974.78,-74.5 974.78,-74.5 974.78,-62.5 974.78,-62.5 974.78,-56.5 980.78,-50.5 986.78,-50.5"/>
<text text-anchor="middle" x="1006.03" y="-63.7" font-family="Times,serif" font-size="14.00">4:0 &#45; 4:0</text>
</g>
<!-- n7&#45;&gt;x1 -->
<g id="edge14" class="edge">
<title>n7:e&#45;&gt;x1:w</title>
<path fill="none" stroke="black" stroke-width="3" d="M929.94,-68.5C945.01,-68.5 951.34,-68.65 962.45,-68.72"/>
<polygon fill="black" stroke="black" stroke-width="3" points="959.23,-72.21 969.24,-68.74 959.25,-65.21 959.23,-72.21"/>
</g>
<!-- c11&#45;&gt;n7 -->
<g id="edge13" class="edge">
<title>c11:e&#45;&gt;n7:w</title>
<path fill="none" stroke="black" stroke-width="3" d="M783.44,-68.75C794.82,-68.75 800.13,-68.62 807.99,-68.55"/>
<polygon fill="black" stroke="black" stroke-width="3" points="804.92,-72.06 814.9,-68.52 804.88,-65.06 804.92,-72.06"/>
</g>
<!-- n1 -->
<g id="node12" class="node">
<title>n1</title>
<ellipse fill="black" stroke="black" cx="273.14" cy="-111.5" rx="1.8" ry="1.8"/>
</g>
<!-- c12&#45;&gt;n1 -->
<g id="edge2" class="edge">
<title>c12:e&#45;&gt;n1:w</title>
<path fill="none" stroke="black" stroke-width="3" d="M235.34,-111.75C246.72,-111.75 252.03,-111.62 259.89,-111.55"/>
<polygon fill="black" stroke="black" stroke-width="3" points="256.82,-115.06 266.8,-111.52 256.78,-108.06 256.82,-115.06"/>
</g>
<!-- c13&#45;&gt;c14 -->
<g id="edge5" class="edge">
<title>c13:e&#45;&gt;c14:w</title>
<path fill="none" stroke="black" stroke-width="3" d="M396.44,-153.75C408.69,-153.75 413.24,-160.08 421.28,-163.55"/>
<polygon fill="black" stroke="black" stroke-width="3" points="417.5,-166.37 427.99,-164.87 418.85,-159.5 417.5,-166.37"/>
</g>
<!-- c16 -->
<g id="node11" class="node">
<title>c16</title>
<polygon fill="none" stroke="black" points="561.44,-88 561.44,-137 653.69,-137 653.69,-88 561.44,-88"/>
<text text-anchor="middle" x="574.32" y="-119.7" font-family="Times,serif" font-size="14.00">A</text>
<polyline fill="none" stroke="black" points="561.44,-112.5 587.19,-112.5"/>
<text text-anchor="middle" x="574.32" y="-95.2" font-family="Times,serif" font-size="14.00">B</text>
<polyline fill="none" stroke="black" points="587.19,-88 587.19,-137"/>
<text text-anchor="middle" x="607.57" y="-115.7" font-family="Times,serif" font-size="14.00">$5</text>
<text text-anchor="middle" x="607.57" y="-99.2" font-family="Times,serif" font-size="14.00">$xor</text>
<polyline fill="none" stroke="black" points="627.94,-88 627.94,-137"/>
<text text-anchor="middle" x="640.82" y="-107.7" font-family="Times,serif" font-size="14.00">Y</text>
</g>
<!-- c14&#45;&gt;c16 -->
<g id="edge6" class="edge">
<title>c14:e&#45;&gt;c16:w</title>
<path fill="none" stroke="black" stroke-width="3" d="M525.44,-153.75C541.33,-153.75 541.89,-136.4 550.83,-128.54"/>
<polygon fill="black" stroke="black" stroke-width="3" points="548.93,-132.94 557.16,-126.28 546.57,-126.35 548.93,-132.94"/>
</g>
<!-- v0 -->
<g id="node8" class="node">
<title>v0</title>
<ellipse fill="none" stroke="black" cx="1006.03" cy="-123.5" rx="40.09" ry="18"/>
<text text-anchor="middle" x="1006.03" y="-118.45" font-family="Times,serif" font-size="14.00">5&#39;00000</text>
</g>
<!-- c15 -->
<g id="node9" class="node">
<title>c15</title>
<polygon fill="none" stroke="black" points="1082.13,-71 1082.13,-120 1175.13,-120 1175.13,-71 1082.13,-71"/>
<text text-anchor="middle" x="1095" y="-102.7" font-family="Times,serif" font-size="14.00">A</text>
<polyline fill="none" stroke="black" points="1082.13,-95.5 1107.88,-95.5"/>
<text text-anchor="middle" x="1095" y="-78.2" font-family="Times,serif" font-size="14.00">B</text>
<polyline fill="none" stroke="black" points="1107.88,-71 1107.88,-120"/>
<text text-anchor="middle" x="1128.63" y="-98.7" font-family="Times,serif" font-size="14.00">$45</text>
<text text-anchor="middle" x="1128.63" y="-82.2" font-family="Times,serif" font-size="14.00">$sub</text>
<polyline fill="none" stroke="black" points="1149.38,-71 1149.38,-120"/>
<text text-anchor="middle" x="1162.25" y="-90.7" font-family="Times,serif" font-size="14.00">Y</text>
</g>
<!-- v0&#45;&gt;c15 -->
<g id="edge15" class="edge">
<title>v0:e&#45;&gt;c15:w</title>
<path fill="none" stroke="black" stroke-width="3" d="M1046.13,-123.5C1058.95,-123.5 1062.94,-115.01 1071.06,-110.49"/>
<polygon fill="black" stroke="black" stroke-width="3" points="1068.85,-114.65 1077.72,-108.84 1067.17,-107.85 1068.85,-114.65"/>
</g>
<!-- c15&#45;&gt;n6 -->
<g id="edge12" class="edge">
<title>c15:e&#45;&gt;n6:w</title>
<path fill="none" stroke="black" stroke-width="3" d="M1175.13,-95.75C1186.5,-95.75 1191.81,-95.62 1199.68,-95.55"/>
<polygon fill="black" stroke="black" stroke-width="3" points="1196.6,-99.06 1206.58,-95.52 1196.57,-92.06 1196.6,-99.06"/>
</g>
<!-- x1&#45;&gt;c15 -->
<g id="edge1" class="edge">
<title>x1:e&#45;&gt;c15:w</title>
<path fill="none" stroke="black" stroke-width="3" d="M1050.92,-70.8C1057.91,-73.59 1062.63,-78.25 1069.66,-81.01"/>
<polygon fill="none" stroke="black" stroke-width="3" points="1052.75,-71.14 1046.13,-74 1040.94,-68.99 1047.56,-66.13 1052.75,-71.14"/>
<polygon fill="none" stroke="black" stroke-width="3" points="1067.65,-80.65 1074.27,-77.77 1079.46,-82.77 1072.85,-85.65 1067.65,-80.65"/>
</g>
<!-- c16&#45;&gt;c11 -->
<g id="edge7" class="edge">
<title>c16:e&#45;&gt;c11:w</title>
<path fill="none" stroke="black" stroke-width="3" d="M653.69,-112.75C670.42,-112.75 669.91,-93.22 679.1,-84.67"/>
<polygon fill="black" stroke="black" stroke-width="3" points="677.27,-89.08 685.43,-82.33 674.84,-82.52 677.27,-89.08"/>
</g>
<!-- n1&#45;&gt;c13 -->
<g id="edge3" class="edge">
<title>n1:e&#45;&gt;c13:w</title>
<path fill="none" stroke="black" stroke-width="3" d="M274.94,-111.5C290.99,-111.5 291.33,-129.3 300.27,-137.36"/>
<polygon fill="black" stroke="black" stroke-width="3" points="296.08,-139.56 306.67,-139.7 298.48,-132.98 296.08,-139.56"/>
</g>
<!-- n1&#45;&gt;c16 -->
<g id="edge4" class="edge">
<title>n1:e&#45;&gt;c16:w</title>
<path fill="none" stroke="black" stroke-width="3" d="M274.94,-111.5C398.51,-111.5 432.01,-100.92 550.13,-100.28"/>
<polygon fill="black" stroke="black" stroke-width="3" points="546.91,-103.79 556.9,-100.26 546.89,-96.79 546.91,-103.79"/>
</g>
</g>
</svg>
