<?xml version="1.0" encoding="UTF-8" standalone="no"?>
<!DOCTYPE svg PUBLIC "-//W3C//DTD SVG 1.1//EN"
 "http://www.w3.org/Graphics/SVG/1.1/DTD/svg11.dtd">
<!-- Generated by graphviz version 12.2.1 (20241206.2353)
 -->
<!-- Title: top Pages: 1 -->
<svg width="3233pt" height="817pt"
 viewBox="0.00 0.00 3233.34 817.25" xmlns="http://www.w3.org/2000/svg" xmlns:xlink="http://www.w3.org/1999/xlink">
<g id="graph0" class="graph" transform="scale(1 1) rotate(0) translate(4 813.25)">
<title>top</title>
<polygon fill="white" stroke="none" points="-4,4 -4,-813.25 3229.34,-813.25 3229.34,4 -4,4"/>
<text text-anchor="middle" x="1612.67" y="-7.2" font-family="Times,serif" font-size="14.00">top</text>
<!-- n11 -->
<g id="node1" class="node">
<title>n11</title>
<polygon fill="none" stroke="black" points="107.84,-303.04 107.84,-317.96 76.26,-328.5 31.59,-328.5 0,-317.96 0,-303.04 31.59,-292.5 76.26,-292.5 107.84,-303.04"/>
<text text-anchor="middle" x="53.92" y="-305.45" font-family="Times,serif" font-size="14.00">input_data</text>
</g>
<!-- c20 -->
<g id="node7" class="node">
<title>c20</title>
<polygon fill="none" stroke="black" points="411.72,-275 411.72,-324 505.47,-324 505.47,-275 411.72,-275"/>
<text text-anchor="middle" x="424.59" y="-306.7" font-family="Times,serif" font-size="14.00">A</text>
<polyline fill="none" stroke="black" points="411.72,-299.5 437.47,-299.5"/>
<text text-anchor="middle" x="424.59" y="-282.2" font-family="Times,serif" font-size="14.00">B</text>
<polyline fill="none" stroke="black" points="437.47,-275 437.47,-324"/>
<text text-anchor="middle" x="458.59" y="-302.7" font-family="Times,serif" font-size="14.00">$3</text>
<text text-anchor="middle" x="458.59" y="-286.2" font-family="Times,serif" font-size="14.00">$add</text>
<polyline fill="none" stroke="black" points="479.72,-275 479.72,-324"/>
<text text-anchor="middle" x="492.59" y="-294.7" font-family="Times,serif" font-size="14.00">Y</text>
</g>
<!-- n11&#45;&gt;c20 -->
<g id="edge38" class="edge">
<title>n11:e&#45;&gt;c20:w</title>
<path fill="none" stroke="black" stroke-width="3" d="M107.84,-310.5C125.01,-310.5 127.24,-300.88 143.84,-296.5 240.23,-271.05 268.26,-266.5 367.34,-277.5 382.53,-279.19 388.35,-284.1 399.35,-286.23"/>
<polygon fill="black" stroke="black" stroke-width="3" points="395.92,-289.44 406.19,-286.85 396.54,-282.47 395.92,-289.44"/>
</g>
<!-- x2 -->
<g id="node11" class="node">
<title>x2</title>
<path fill="none" stroke="black" d="M159.47,-93C159.47,-93 221.97,-93 221.97,-93 227.97,-93 233.97,-99 233.97,-105 233.97,-105 233.97,-130 233.97,-130 233.97,-136 227.97,-142 221.97,-142 221.97,-142 159.47,-142 159.47,-142 153.47,-142 147.47,-136 147.47,-130 147.47,-130 147.47,-105 147.47,-105 147.47,-99 153.47,-93 159.47,-93"/>
<text text-anchor="middle" x="190.72" y="-124.7" font-family="Times,serif" font-size="14.00">7x 5:5 &#45; 12:6</text>
<polyline fill="none" stroke="black" points="147.47,-117.5 233.97,-117.5"/>
<text text-anchor="middle" x="190.72" y="-100.2" font-family="Times,serif" font-size="14.00">5:0 &#45; 5:0</text>
</g>
<!-- n11&#45;&gt;x2 -->
<g id="edge51" class="edge">
<title>n11:e&#45;&gt;x2:w</title>
<path fill="none" stroke="black" stroke-width="3" d="M107.84,-310.5C196.49,-310.5 66.37,-123.28 135.36,-106.46"/>
<polygon fill="black" stroke="black" stroke-width="3" points="132.39,-110.3 141.95,-105.74 131.63,-103.34 132.39,-110.3"/>
</g>
<!-- n11&#45;&gt;x2 -->
<g id="edge52" class="edge">
<title>n11:e&#45;&gt;x2:w</title>
<path fill="none" stroke="black" stroke-width="3" d="M107.84,-310.5C185.66,-310.5 77,-148.31 135.14,-131.2"/>
<polygon fill="black" stroke="black" stroke-width="3" points="132.49,-135.07 141.96,-130.33 131.6,-128.13 132.49,-135.07"/>
</g>
<!-- c22 -->
<g id="node12" class="node">
<title>c22</title>
<polygon fill="none" stroke="black" points="143.84,-319 143.84,-368 237.59,-368 237.59,-319 143.84,-319"/>
<text text-anchor="middle" x="156.72" y="-350.7" font-family="Times,serif" font-size="14.00">A</text>
<polyline fill="none" stroke="black" points="143.84,-343.5 169.59,-343.5"/>
<text text-anchor="middle" x="156.72" y="-326.2" font-family="Times,serif" font-size="14.00">B</text>
<polyline fill="none" stroke="black" points="169.59,-319 169.59,-368"/>
<text text-anchor="middle" x="190.72" y="-346.7" font-family="Times,serif" font-size="14.00">$1</text>
<text text-anchor="middle" x="190.72" y="-330.2" font-family="Times,serif" font-size="14.00">$and</text>
<polyline fill="none" stroke="black" points="211.84,-319 211.84,-368"/>
<text text-anchor="middle" x="224.72" y="-338.7" font-family="Times,serif" font-size="14.00">Y</text>
</g>
<!-- n11&#45;&gt;c22 -->
<g id="edge39" class="edge">
<title>n11:e&#45;&gt;c22:w</title>
<path fill="none" stroke="black" stroke-width="3" d="M107.84,-310.5C128.72,-310.5 122.47,-340.37 133.18,-351.57"/>
<polygon fill="black" stroke="black" stroke-width="3" points="129.03,-353.71 139.61,-354.09 131.58,-347.19 129.03,-353.71"/>
</g>
<!-- n11&#45;&gt;c22 -->
<g id="edge40" class="edge">
<title>n11:e&#45;&gt;c22:w</title>
<path fill="none" stroke="black" stroke-width="3" d="M107.84,-310.5C121.69,-310.5 124.63,-322.17 133.02,-328.01"/>
<polygon fill="black" stroke="black" stroke-width="3" points="128.91,-330.43 139.49,-329.95 130.92,-323.72 128.91,-330.43"/>
</g>
<!-- c23 -->
<g id="node13" class="node">
<title>c23</title>
<polygon fill="none" stroke="black" points="273.59,-287 273.59,-336 367.34,-336 367.34,-287 273.59,-287"/>
<text text-anchor="middle" x="286.47" y="-318.7" font-family="Times,serif" font-size="14.00">A</text>
<polyline fill="none" stroke="black" points="273.59,-311.5 299.34,-311.5"/>
<text text-anchor="middle" x="286.47" y="-294.2" font-family="Times,serif" font-size="14.00">B</text>
<polyline fill="none" stroke="black" points="299.34,-287 299.34,-336"/>
<text text-anchor="middle" x="320.47" y="-314.7" font-family="Times,serif" font-size="14.00">$2</text>
<text text-anchor="middle" x="320.47" y="-298.2" font-family="Times,serif" font-size="14.00">$and</text>
<polyline fill="none" stroke="black" points="341.59,-287 341.59,-336"/>
<text text-anchor="middle" x="354.47" y="-306.7" font-family="Times,serif" font-size="14.00">Y</text>
</g>
<!-- n11&#45;&gt;c23 -->
<g id="edge41" class="edge">
<title>n11:e&#45;&gt;c23:w</title>
<path fill="none" stroke="black" stroke-width="3" d="M107.84,-310.5C177.78,-310.5 197.69,-300.41 262.36,-299.34"/>
<polygon fill="black" stroke="black" stroke-width="3" points="259.08,-302.87 269.05,-299.29 259.02,-295.87 259.08,-302.87"/>
</g>
<!-- x4 -->
<g id="node16" class="node">
<title>x4</title>
<path fill="none" stroke="black" d="M301.22,-531.5C301.22,-531.5 339.72,-531.5 339.72,-531.5 345.72,-531.5 351.72,-537.5 351.72,-543.5 351.72,-543.5 351.72,-555.5 351.72,-555.5 351.72,-561.5 345.72,-567.5 339.72,-567.5 339.72,-567.5 301.22,-567.5 301.22,-567.5 295.22,-567.5 289.22,-561.5 289.22,-555.5 289.22,-555.5 289.22,-543.5 289.22,-543.5 289.22,-537.5 295.22,-531.5 301.22,-531.5"/>
<text text-anchor="middle" x="320.47" y="-544.7" font-family="Times,serif" font-size="14.00">0:0 &#45; 0:0</text>
</g>
<!-- n11&#45;&gt;x4 -->
<g id="edge53" class="edge">
<title>n11:e&#45;&gt;x4:w</title>
<path fill="none" stroke="black" d="M107.84,-310.5C188.55,-310.5 92.8,-425.97 143.84,-488.5 185.42,-539.44 215,-548.78 276.74,-549.67"/>
<polygon fill="black" stroke="black" points="276.68,-553.17 286.7,-549.74 276.73,-546.17 276.68,-553.17"/>
</g>
<!-- c25 -->
<g id="node17" class="node">
<title>c25</title>
<polygon fill="none" stroke="black" points="952.22,-225 952.22,-274 1045.97,-274 1045.97,-225 952.22,-225"/>
<text text-anchor="middle" x="965.09" y="-256.7" font-family="Times,serif" font-size="14.00">A</text>
<polyline fill="none" stroke="black" points="952.22,-249.5 977.97,-249.5"/>
<text text-anchor="middle" x="965.09" y="-232.2" font-family="Times,serif" font-size="14.00">B</text>
<polyline fill="none" stroke="black" points="977.97,-225 977.97,-274"/>
<text text-anchor="middle" x="999.09" y="-252.7" font-family="Times,serif" font-size="14.00">$39</text>
<text text-anchor="middle" x="999.09" y="-236.2" font-family="Times,serif" font-size="14.00">$and</text>
<polyline fill="none" stroke="black" points="1020.22,-225 1020.22,-274"/>
<text text-anchor="middle" x="1033.09" y="-244.7" font-family="Times,serif" font-size="14.00">Y</text>
</g>
<!-- n11&#45;&gt;c25 -->
<g id="edge42" class="edge">
<title>n11:e&#45;&gt;c25:w</title>
<path fill="none" stroke="black" stroke-width="3" d="M107.84,-310.5C131.43,-310.5 124.17,-284.52 143.84,-271.5 212.98,-225.72 236.54,-208.5 319.47,-208.5 319.47,-208.5 319.47,-208.5 718.09,-208.5 806.05,-208.5 828.55,-211.76 915.09,-227.5 926.85,-229.64 931.78,-233.74 939.79,-235.88"/>
<polygon fill="black" stroke="black" stroke-width="3" points="936.36,-238.99 946.71,-236.71 937.2,-232.04 936.36,-238.99"/>
</g>
<!-- c26 -->
<g id="node20" class="node">
<title>c26</title>
<polygon fill="none" stroke="black" points="1456.34,-187 1456.34,-236 1548.59,-236 1548.59,-187 1456.34,-187"/>
<text text-anchor="middle" x="1469.22" y="-218.7" font-family="Times,serif" font-size="14.00">A</text>
<polyline fill="none" stroke="black" points="1456.34,-211.5 1482.09,-211.5"/>
<text text-anchor="middle" x="1469.22" y="-194.2" font-family="Times,serif" font-size="14.00">B</text>
<polyline fill="none" stroke="black" points="1482.09,-187 1482.09,-236"/>
<text text-anchor="middle" x="1502.47" y="-214.7" font-family="Times,serif" font-size="14.00">$43</text>
<text text-anchor="middle" x="1502.47" y="-198.2" font-family="Times,serif" font-size="14.00">$xor</text>
<polyline fill="none" stroke="black" points="1522.84,-187 1522.84,-236"/>
<text text-anchor="middle" x="1535.72" y="-206.7" font-family="Times,serif" font-size="14.00">Y</text>
</g>
<!-- n11&#45;&gt;c26 -->
<g id="edge43" class="edge">
<title>n11:e&#45;&gt;c26:w</title>
<path fill="none" stroke="black" stroke-width="3" d="M107.84,-310.5C152.99,-310.5 110.19,-245.6 143.84,-215.5 203.9,-161.78 238.89,-170.5 319.47,-170.5 319.47,-170.5 319.47,-170.5 1244.09,-170.5 1322.88,-170.5 1342.91,-174.93 1420.34,-189.5 1432.05,-191.7 1436.96,-195.78 1444.96,-197.89"/>
<polygon fill="black" stroke="black" stroke-width="3" points="1441.49,-201 1451.83,-198.71 1442.32,-194.05 1441.49,-201"/>
</g>
<!-- c29 -->
<g id="node29" class="node">
<title>c29</title>
<polygon fill="none" stroke="black" points="2608.7,-741 2608.7,-790 2700.95,-790 2700.95,-741 2608.7,-741"/>
<text text-anchor="middle" x="2621.58" y="-772.7" font-family="Times,serif" font-size="14.00">A</text>
<polyline fill="none" stroke="black" points="2608.7,-765.5 2634.45,-765.5"/>
<text text-anchor="middle" x="2621.58" y="-748.2" font-family="Times,serif" font-size="14.00">B</text>
<polyline fill="none" stroke="black" points="2634.45,-741 2634.45,-790"/>
<text text-anchor="middle" x="2654.83" y="-768.7" font-family="Times,serif" font-size="14.00">$53</text>
<text text-anchor="middle" x="2654.83" y="-752.2" font-family="Times,serif" font-size="14.00">$xor</text>
<polyline fill="none" stroke="black" points="2675.2,-741 2675.2,-790"/>
<text text-anchor="middle" x="2688.08" y="-760.7" font-family="Times,serif" font-size="14.00">Y</text>
</g>
<!-- n11&#45;&gt;c29 -->
<g id="edge44" class="edge">
<title>n11:e&#45;&gt;c29:w</title>
<path fill="none" stroke="black" stroke-width="3" d="M107.84,-310.5C182.05,-310.5 110.64,-576.13 143.84,-642.5 191.62,-738.01 212.67,-806.5 319.47,-806.5 319.47,-806.5 319.47,-806.5 2415.45,-806.5 2485.85,-806.5 2509.02,-817.51 2572.7,-787.5 2588.31,-780.15 2588.03,-763.38 2597.68,-756.39"/>
<polygon fill="black" stroke="black" stroke-width="3" points="2595.68,-760.61 2604.34,-754.5 2593.76,-753.87 2595.68,-760.61"/>
</g>
<!-- x14 -->
<g id="node32" class="node">
<title>x14</title>
<path fill="none" stroke="black" d="M830.47,-585.75C830.47,-585.75 892.97,-585.75 892.97,-585.75 898.97,-585.75 904.97,-591.75 904.97,-597.75 904.97,-597.75 904.97,-647.25 904.97,-647.25 904.97,-653.25 898.97,-659.25 892.97,-659.25 892.97,-659.25 830.47,-659.25 830.47,-659.25 824.47,-659.25 818.47,-653.25 818.47,-647.25 818.47,-647.25 818.47,-597.75 818.47,-597.75 818.47,-591.75 824.47,-585.75 830.47,-585.75"/>
<text text-anchor="middle" x="861.72" y="-641.95" font-family="Times,serif" font-size="14.00">7x 5:5 &#45; 12:6</text>
<polyline fill="none" stroke="black" points="818.47,-634.75 904.97,-634.75"/>
<text text-anchor="middle" x="861.72" y="-617.45" font-family="Times,serif" font-size="14.00">5:1 &#45; 5:1</text>
<polyline fill="none" stroke="black" points="818.47,-610.25 904.97,-610.25"/>
<text text-anchor="middle" x="861.72" y="-592.95" font-family="Times,serif" font-size="14.00">0:0 &#45; 0:0</text>
</g>
<!-- n11&#45;&gt;x14 -->
<g id="edge45" class="edge">
<title>n11:e&#45;&gt;x14:w</title>
<path fill="none" stroke="black" stroke-width="3" d="M107.84,-310.5C157.6,-310.5 115.97,-490.28 143.84,-531.5 194.91,-607.02 228.3,-637.5 319.47,-637.5 319.47,-637.5 319.47,-637.5 588.84,-637.5 686.79,-637.5 713.62,-623.62 806.16,-622.56"/>
<polygon fill="black" stroke="black" stroke-width="3" points="802.95,-626.08 812.93,-622.53 802.91,-619.08 802.95,-626.08"/>
</g>
<!-- n11&#45;&gt;x14 -->
<g id="edge46" class="edge">
<title>n11:e&#45;&gt;x14:w</title>
<path fill="none" stroke="black" stroke-width="3" d="M107.84,-310.5C170.8,-310.5 106.95,-540.48 143.84,-591.5 194.54,-661.62 232.94,-675.5 319.47,-675.5 319.47,-675.5 319.47,-675.5 588.84,-675.5 687.34,-675.5 713.14,-649.13 806.1,-647.12"/>
<polygon fill="black" stroke="black" stroke-width="3" points="802.97,-650.65 812.93,-647.05 802.89,-643.65 802.97,-650.65"/>
</g>
<!-- x22 -->
<g id="node43" class="node">
<title>x22</title>
<path fill="none" stroke="black" d="M171.47,-442.5C171.47,-442.5 209.97,-442.5 209.97,-442.5 215.97,-442.5 221.97,-448.5 221.97,-454.5 221.97,-454.5 221.97,-466.5 221.97,-466.5 221.97,-472.5 215.97,-478.5 209.97,-478.5 209.97,-478.5 171.47,-478.5 171.47,-478.5 165.47,-478.5 159.47,-472.5 159.47,-466.5 159.47,-466.5 159.47,-454.5 159.47,-454.5 159.47,-448.5 165.47,-442.5 171.47,-442.5"/>
<text text-anchor="middle" x="190.72" y="-455.7" font-family="Times,serif" font-size="14.00">2:0 &#45; 2:0</text>
</g>
<!-- n11&#45;&gt;x22 -->
<g id="edge47" class="edge">
<title>n11:e&#45;&gt;x22:w</title>
<path fill="none" stroke="black" stroke-width="3" d="M107.84,-310.5C174.04,-310.5 98.35,-443.11 147.36,-459.16"/>
<polygon fill="black" stroke="black" stroke-width="3" points="143.58,-462.16 153.97,-460.11 144.57,-455.23 143.58,-462.16"/>
</g>
<!-- x23 -->
<g id="node44" class="node">
<title>x23</title>
<path fill="none" stroke="black" d="M171.47,-387.5C171.47,-387.5 209.97,-387.5 209.97,-387.5 215.97,-387.5 221.97,-393.5 221.97,-399.5 221.97,-399.5 221.97,-411.5 221.97,-411.5 221.97,-417.5 215.97,-423.5 209.97,-423.5 209.97,-423.5 171.47,-423.5 171.47,-423.5 165.47,-423.5 159.47,-417.5 159.47,-411.5 159.47,-411.5 159.47,-399.5 159.47,-399.5 159.47,-393.5 165.47,-387.5 171.47,-387.5"/>
<text text-anchor="middle" x="190.72" y="-400.7" font-family="Times,serif" font-size="14.00">4:2 &#45; 2:0</text>
</g>
<!-- n11&#45;&gt;x23 -->
<g id="edge48" class="edge">
<title>n11:e&#45;&gt;x23:w</title>
<path fill="none" stroke="black" stroke-width="3" d="M107.84,-310.5C151.29,-310.5 118.19,-388.73 147.29,-403.4"/>
<polygon fill="black" stroke="black" stroke-width="3" points="143.52,-406.18 154.02,-404.81 144.96,-399.33 143.52,-406.18"/>
</g>
<!-- x25 -->
<g id="node47" class="node">
<title>x25</title>
<path fill="none" stroke="black" d="M159.47,-25C159.47,-25 221.97,-25 221.97,-25 227.97,-25 233.97,-31 233.97,-37 233.97,-37 233.97,-62 233.97,-62 233.97,-68 227.97,-74 221.97,-74 221.97,-74 159.47,-74 159.47,-74 153.47,-74 147.47,-68 147.47,-62 147.47,-62 147.47,-37 147.47,-37 147.47,-31 153.47,-25 159.47,-25"/>
<text text-anchor="middle" x="190.72" y="-56.7" font-family="Times,serif" font-size="14.00">7x 5:5 &#45; 11:5</text>
<polyline fill="none" stroke="black" points="147.47,-49.5 233.97,-49.5"/>
<text text-anchor="middle" x="190.72" y="-32.2" font-family="Times,serif" font-size="14.00">5:1 &#45; 4:0</text>
</g>
<!-- n11&#45;&gt;x25 -->
<g id="edge49" class="edge">
<title>n11:e&#45;&gt;x25:w</title>
<path fill="none" stroke="black" stroke-width="3" d="M107.84,-310.5C164.97,-310.5 95.95,-73.33 135.83,-40.91"/>
<polygon fill="black" stroke="black" stroke-width="3" points="133.85,-45.29 142.17,-38.73 131.58,-38.67 133.85,-45.29"/>
</g>
<!-- n11&#45;&gt;x25 -->
<g id="edge50" class="edge">
<title>n11:e&#45;&gt;x25:w</title>
<path fill="none" stroke="black" stroke-width="3" d="M107.84,-310.5C159.63,-310.5 100.69,-97.3 136.04,-65.66"/>
<polygon fill="black" stroke="black" stroke-width="3" points="134.08,-70.13 142.21,-63.34 131.62,-63.58 134.08,-70.13"/>
</g>
<!-- n12 -->
<g id="node2" class="node">
<title>n12</title>
<polygon fill="none" stroke="black" points="3225.34,-714.04 3225.34,-728.96 3190.83,-739.5 3142.03,-739.5 3107.52,-728.96 3107.52,-714.04 3142.03,-703.5 3190.83,-703.5 3225.34,-714.04"/>
<text text-anchor="middle" x="3166.43" y="-716.45" font-family="Times,serif" font-size="14.00">output_data</text>
</g>
<!-- n13 -->
<g id="node3" class="node">
<title>n13</title>
<polygon fill="none" stroke="black" points="717.09,-341.5 661.84,-323.5 717.09,-305.5 772.34,-323.5 717.09,-341.5"/>
<text text-anchor="middle" x="717.09" y="-318.45" font-family="Times,serif" font-size="14.00">temp_0</text>
</g>
<!-- x5 -->
<g id="node18" class="node">
<title>x5</title>
<path fill="none" stroke="black" d="M835.72,-237C835.72,-237 887.72,-237 887.72,-237 893.72,-237 899.72,-243 899.72,-249 899.72,-249 899.72,-274 899.72,-274 899.72,-280 893.72,-286 887.72,-286 887.72,-286 835.72,-286 835.72,-286 829.72,-286 823.72,-280 823.72,-274 823.72,-274 823.72,-249 823.72,-249 823.72,-243 829.72,-237 835.72,-237"/>
<text text-anchor="middle" x="861.72" y="-268.7" font-family="Times,serif" font-size="14.00">24:24 &#45; 5:5</text>
<polyline fill="none" stroke="black" points="823.72,-261.5 899.72,-261.5"/>
<text text-anchor="middle" x="861.72" y="-244.2" font-family="Times,serif" font-size="14.00">4:0 &#45; 4:0</text>
</g>
<!-- n13&#45;&gt;x5 -->
<g id="edge62" class="edge">
<title>n13:e&#45;&gt;x5:w</title>
<path fill="none" stroke="black" stroke-width="3" d="M772.34,-323.5C807.7,-323.5 788.61,-265.12 811.63,-251.89"/>
<polygon fill="black" stroke="black" stroke-width="3" points="809.39,-256.03 818.3,-250.3 807.76,-249.22 809.39,-256.03"/>
</g>
<!-- n13&#45;&gt;x5 -->
<g id="edge63" class="edge">
<title>n13:e&#45;&gt;x5:w</title>
<path fill="none" stroke="black" d="M772.34,-323.5C799.38,-323.5 793.91,-286.76 811.81,-276.42"/>
<polygon fill="black" stroke="black" points="812.37,-279.89 821.25,-274.11 810.7,-273.09 812.37,-279.89"/>
</g>
<!-- x17 -->
<g id="node36" class="node">
<title>x17</title>
<path fill="none" stroke="black" d="M835.72,-399C835.72,-399 887.72,-399 887.72,-399 893.72,-399 899.72,-405 899.72,-411 899.72,-411 899.72,-436 899.72,-436 899.72,-442 893.72,-448 887.72,-448 887.72,-448 835.72,-448 835.72,-448 829.72,-448 823.72,-442 823.72,-436 823.72,-436 823.72,-411 823.72,-411 823.72,-405 829.72,-399 835.72,-399"/>
<text text-anchor="middle" x="861.72" y="-430.7" font-family="Times,serif" font-size="14.00">24:24 &#45; 5:5</text>
<polyline fill="none" stroke="black" points="823.72,-423.5 899.72,-423.5"/>
<text text-anchor="middle" x="861.72" y="-406.2" font-family="Times,serif" font-size="14.00">4:0 &#45; 4:0</text>
</g>
<!-- n13&#45;&gt;x17 -->
<g id="edge59" class="edge">
<title>n13:e&#45;&gt;x17:w</title>
<path fill="none" stroke="black" stroke-width="3" d="M772.34,-323.5C812.92,-323.5 784.67,-394.95 811.8,-408.9"/>
<polygon fill="black" stroke="black" stroke-width="3" points="807.77,-411.61 818.28,-410.3 809.24,-404.77 807.77,-411.61"/>
</g>
<!-- n13&#45;&gt;x17 -->
<g id="edge60" class="edge">
<title>n13:e&#45;&gt;x17:w</title>
<path fill="none" stroke="black" d="M772.34,-323.5C822.54,-323.5 776.95,-418.09 811.43,-433.61"/>
<polygon fill="black" stroke="black" points="810.75,-437.04 821.23,-435.47 812.06,-430.16 810.75,-437.04"/>
</g>
<!-- x32 -->
<g id="node54" class="node">
<title>x32</title>
<path fill="none" stroke="black" d="M820.34,-305.5C820.34,-305.5 903.09,-305.5 903.09,-305.5 909.09,-305.5 915.09,-311.5 915.09,-317.5 915.09,-317.5 915.09,-329.5 915.09,-329.5 915.09,-335.5 909.09,-341.5 903.09,-341.5 903.09,-341.5 820.34,-341.5 820.34,-341.5 814.34,-341.5 808.34,-335.5 808.34,-329.5 808.34,-329.5 808.34,-317.5 808.34,-317.5 808.34,-311.5 814.34,-305.5 820.34,-305.5"/>
<text text-anchor="middle" x="861.72" y="-318.7" font-family="Times,serif" font-size="14.00">19x 24:24 &#45; 18:0</text>
</g>
<!-- n13&#45;&gt;x32 -->
<g id="edge61" class="edge">
<title>n13:e&#45;&gt;x32:w</title>
<path fill="none" stroke="black" stroke-width="3" d="M772.34,-323.5C783.72,-323.5 789.03,-323.63 796.9,-323.7"/>
<polygon fill="black" stroke="black" stroke-width="3" points="793.79,-327.19 803.8,-323.73 793.82,-320.19 793.79,-327.19"/>
</g>
<!-- n14 -->
<g id="node4" class="node">
<title>n14</title>
<polygon fill="none" stroke="black" points="458.59,-504.5 403.34,-486.5 458.59,-468.5 513.84,-486.5 458.59,-504.5"/>
<text text-anchor="middle" x="458.59" y="-481.45" font-family="Times,serif" font-size="14.00">temp_3</text>
</g>
<!-- x3 -->
<g id="node15" class="node">
<title>x3</title>
<path fill="none" stroke="black" d="M568.59,-534.5C568.59,-534.5 607.09,-534.5 607.09,-534.5 613.09,-534.5 619.09,-540.5 619.09,-546.5 619.09,-546.5 619.09,-558.5 619.09,-558.5 619.09,-564.5 613.09,-570.5 607.09,-570.5 607.09,-570.5 568.59,-570.5 568.59,-570.5 562.59,-570.5 556.59,-564.5 556.59,-558.5 556.59,-558.5 556.59,-546.5 556.59,-546.5 556.59,-540.5 562.59,-534.5 568.59,-534.5"/>
<text text-anchor="middle" x="587.84" y="-547.7" font-family="Times,serif" font-size="14.00">2:2 &#45; 0:0</text>
</g>
<!-- n14&#45;&gt;x3 -->
<g id="edge67" class="edge">
<title>n14:e&#45;&gt;x3:w</title>
<path fill="none" stroke="black" d="M513.84,-486.5C544.02,-486.5 527.08,-536.32 544.75,-549.55"/>
<polygon fill="black" stroke="black" points="543.56,-552.85 554.14,-552.32 545.54,-546.14 543.56,-552.85"/>
</g>
<!-- c28 -->
<g id="node26" class="node">
<title>c28</title>
<polygon fill="none" stroke="black" points="2983.77,-497 2983.77,-546 3071.52,-546 3071.52,-497 2983.77,-497"/>
<text text-anchor="middle" x="2996.65" y="-528.7" font-family="Times,serif" font-size="14.00">A</text>
<polyline fill="none" stroke="black" points="2983.77,-521.5 3009.52,-521.5"/>
<text text-anchor="middle" x="2996.65" y="-504.2" font-family="Times,serif" font-size="14.00">B</text>
<polyline fill="none" stroke="black" points="3009.52,-497 3009.52,-546"/>
<text text-anchor="middle" x="3027.65" y="-524.7" font-family="Times,serif" font-size="14.00">$50</text>
<text text-anchor="middle" x="3027.65" y="-508.2" font-family="Times,serif" font-size="14.00">$or</text>
<polyline fill="none" stroke="black" points="3045.77,-497 3045.77,-546"/>
<text text-anchor="middle" x="3058.65" y="-516.7" font-family="Times,serif" font-size="14.00">Y</text>
</g>
<!-- n14&#45;&gt;c28 -->
<g id="edge65" class="edge">
<title>n14:e&#45;&gt;c28:w</title>
<path fill="none" stroke="black" stroke-width="3" d="M513.84,-486.5C530.69,-486.5 1103.24,-465.5 1120.09,-465.5 1120.09,-465.5 1120.09,-465.5 2771.45,-465.5 2816.15,-465.5 2919.19,-503.16 2972.32,-508.6"/>
<polygon fill="black" stroke="black" stroke-width="3" points="2969.06,-511.92 2979.24,-508.99 2969.46,-504.93 2969.06,-511.92"/>
</g>
<!-- x15 -->
<g id="node33" class="node">
<title>x15</title>
<path fill="none" stroke="black" d="M697.84,-500.5C697.84,-500.5 736.34,-500.5 736.34,-500.5 742.34,-500.5 748.34,-506.5 748.34,-512.5 748.34,-512.5 748.34,-524.5 748.34,-524.5 748.34,-530.5 742.34,-536.5 736.34,-536.5 736.34,-536.5 697.84,-536.5 697.84,-536.5 691.84,-536.5 685.84,-530.5 685.84,-524.5 685.84,-524.5 685.84,-512.5 685.84,-512.5 685.84,-506.5 691.84,-500.5 697.84,-500.5"/>
<text text-anchor="middle" x="717.09" y="-513.7" font-family="Times,serif" font-size="14.00">2:1 &#45; 1:0</text>
</g>
<!-- n14&#45;&gt;x15 -->
<g id="edge66" class="edge">
<title>n14:e&#45;&gt;x15:w</title>
<path fill="none" stroke="black" stroke-width="3" d="M513.84,-486.5C587.25,-486.5 605.69,-515.56 673.52,-518.51"/>
<polygon fill="black" stroke="black" stroke-width="3" points="670.23,-521.94 680.3,-518.65 670.38,-514.94 670.23,-521.94"/>
</g>
<!-- n15 -->
<g id="node5" class="node">
<title>n15</title>
<polygon fill="none" stroke="black" points="1912.34,-361.5 1857.09,-343.5 1912.34,-325.5 1967.59,-343.5 1912.34,-361.5"/>
<text text-anchor="middle" x="1912.34" y="-338.45" font-family="Times,serif" font-size="14.00">temp_4</text>
</g>
<!-- x9 -->
<g id="node24" class="node">
<title>x9</title>
<path fill="none" stroke="black" d="M2015.59,-319C2015.59,-319 2071.34,-319 2071.34,-319 2077.34,-319 2083.34,-325 2083.34,-331 2083.34,-331 2083.34,-356 2083.34,-356 2083.34,-362 2077.34,-368 2071.34,-368 2071.34,-368 2015.59,-368 2015.59,-368 2009.59,-368 2003.59,-362 2003.59,-356 2003.59,-356 2003.59,-331 2003.59,-331 2003.59,-325 2009.59,-319 2015.59,-319"/>
<text text-anchor="middle" x="2043.47" y="-350.7" font-family="Times,serif" font-size="14.00">3x 5:5 &#45; 8:6</text>
<polyline fill="none" stroke="black" points="2003.59,-343.5 2083.34,-343.5"/>
<text text-anchor="middle" x="2043.47" y="-326.2" font-family="Times,serif" font-size="14.00">5:0 &#45; 5:0</text>
</g>
<!-- n15&#45;&gt;x9 -->
<g id="edge69" class="edge">
<title>n15:e&#45;&gt;x9:w</title>
<path fill="none" stroke="black" stroke-width="3" d="M1967.59,-343.5C1979.87,-343.5 1984.39,-337.03 1992.43,-333.5"/>
<polygon fill="black" stroke="black" stroke-width="3" points="1990.03,-337.55 1999.14,-332.15 1988.65,-330.69 1990.03,-337.55"/>
</g>
<!-- n15&#45;&gt;x9 -->
<g id="edge70" class="edge">
<title>n15:e&#45;&gt;x9:w</title>
<path fill="none" stroke="black" stroke-width="3" d="M1967.59,-343.5C1979.87,-343.5 1984.39,-349.97 1992.43,-353.5"/>
<polygon fill="black" stroke="black" stroke-width="3" points="1988.65,-356.31 1999.14,-354.85 1990.03,-349.45 1988.65,-356.31"/>
</g>
<!-- n16 -->
<g id="node6" class="node">
<title>n16</title>
<polygon fill="none" stroke="black" points="2414.45,-646.5 2359.2,-628.5 2414.45,-610.5 2469.7,-628.5 2414.45,-646.5"/>
<text text-anchor="middle" x="2414.45" y="-623.45" font-family="Times,serif" font-size="14.00">temp_6</text>
</g>
<!-- x13 -->
<g id="node30" class="node">
<title>x13</title>
<path fill="none" stroke="black" d="M2519.95,-741.5C2519.95,-741.5 2558.45,-741.5 2558.45,-741.5 2564.45,-741.5 2570.45,-747.5 2570.45,-753.5 2570.45,-753.5 2570.45,-765.5 2570.45,-765.5 2570.45,-771.5 2564.45,-777.5 2558.45,-777.5 2558.45,-777.5 2519.95,-777.5 2519.95,-777.5 2513.95,-777.5 2507.95,-771.5 2507.95,-765.5 2507.95,-765.5 2507.95,-753.5 2507.95,-753.5 2507.95,-747.5 2513.95,-741.5 2519.95,-741.5"/>
<text text-anchor="middle" x="2539.2" y="-754.7" font-family="Times,serif" font-size="14.00">5:0 &#45; 5:0</text>
</g>
<!-- n16&#45;&gt;x13 -->
<g id="edge74" class="edge">
<title>n16:e&#45;&gt;x13:w</title>
<path fill="none" stroke="black" stroke-width="3" d="M2469.7,-628.5C2525.84,-628.5 2457.99,-740.99 2495.72,-757.69"/>
<polygon fill="black" stroke="black" stroke-width="3" points="2492.02,-760.57 2502.49,-758.93 2493.28,-753.68 2492.02,-760.57"/>
</g>
<!-- x19 -->
<g id="node39" class="node">
<title>x19</title>
<path fill="none" stroke="black" d="M2748.95,-687.75C2748.95,-687.75 2791.95,-687.75 2791.95,-687.75 2797.95,-687.75 2803.95,-693.75 2803.95,-699.75 2803.95,-699.75 2803.95,-749.25 2803.95,-749.25 2803.95,-755.25 2797.95,-761.25 2791.95,-761.25 2791.95,-761.25 2748.95,-761.25 2748.95,-761.25 2742.95,-761.25 2736.95,-755.25 2736.95,-749.25 2736.95,-749.25 2736.95,-699.75 2736.95,-699.75 2736.95,-693.75 2742.95,-687.75 2748.95,-687.75"/>
<text text-anchor="middle" x="2770.45" y="-743.95" font-family="Times,serif" font-size="14.00">0 &#45;&gt; 15:9</text>
<polyline fill="none" stroke="black" points="2736.95,-736.75 2803.95,-736.75"/>
<text text-anchor="middle" x="2770.45" y="-719.45" font-family="Times,serif" font-size="14.00">8:6 &#45; 8:6</text>
<polyline fill="none" stroke="black" points="2736.95,-712.25 2803.95,-712.25"/>
<text text-anchor="middle" x="2770.45" y="-694.95" font-family="Times,serif" font-size="14.00">5:0 &#45; 5:0</text>
</g>
<!-- n16&#45;&gt;x19 -->
<g id="edge75" class="edge">
<title>n16:e&#45;&gt;x19:w</title>
<path fill="none" stroke="black" stroke-width="3" d="M2469.7,-628.5C2488.69,-628.5 2488.84,-642.77 2505.7,-651.5 2597.95,-699.27 2627.08,-722.77 2725.58,-724.41"/>
<polygon fill="black" stroke="black" stroke-width="3" points="2722.38,-727.88 2732.41,-724.46 2722.44,-720.88 2722.38,-727.88"/>
</g>
<!-- x20 -->
<g id="node40" class="node">
<title>x20</title>
<path fill="none" stroke="black" d="M2633.33,-635C2633.33,-635 2676.33,-635 2676.33,-635 2682.33,-635 2688.33,-641 2688.33,-647 2688.33,-647 2688.33,-672 2688.33,-672 2688.33,-678 2682.33,-684 2676.33,-684 2676.33,-684 2633.33,-684 2633.33,-684 2627.33,-684 2621.33,-678 2621.33,-672 2621.33,-672 2621.33,-647 2621.33,-647 2621.33,-641 2627.33,-635 2633.33,-635"/>
<text text-anchor="middle" x="2654.83" y="-666.7" font-family="Times,serif" font-size="14.00">0 &#45;&gt; 15:9</text>
<polyline fill="none" stroke="black" points="2621.33,-659.5 2688.33,-659.5"/>
<text text-anchor="middle" x="2654.83" y="-642.2" font-family="Times,serif" font-size="14.00">8:0 &#45; 8:0</text>
</g>
<!-- n16&#45;&gt;x20 -->
<g id="edge76" class="edge">
<title>n16:e&#45;&gt;x20:w</title>
<path fill="none" stroke="black" stroke-width="3" d="M2469.7,-628.5C2533.21,-628.5 2550.85,-645.12 2608.98,-647.06"/>
<polygon fill="black" stroke="black" stroke-width="3" points="2605.73,-650.51 2615.79,-647.18 2605.85,-643.51 2605.73,-650.51"/>
</g>
<!-- x26 -->
<g id="node48" class="node">
<title>x26</title>
<path fill="none" stroke="black" d="M2517.7,-532C2517.7,-532 2560.7,-532 2560.7,-532 2566.7,-532 2572.7,-538 2572.7,-544 2572.7,-544 2572.7,-569 2572.7,-569 2572.7,-575 2566.7,-581 2560.7,-581 2560.7,-581 2517.7,-581 2517.7,-581 2511.7,-581 2505.7,-575 2505.7,-569 2505.7,-569 2505.7,-544 2505.7,-544 2505.7,-538 2511.7,-532 2517.7,-532"/>
<text text-anchor="middle" x="2539.2" y="-563.7" font-family="Times,serif" font-size="14.00">0 &#45;&gt; 12:6</text>
<polyline fill="none" stroke="black" points="2505.7,-556.5 2572.7,-556.5"/>
<text text-anchor="middle" x="2539.2" y="-539.2" font-family="Times,serif" font-size="14.00">8:3 &#45; 5:0</text>
</g>
<!-- n16&#45;&gt;x26 -->
<g id="edge77" class="edge">
<title>n16:e&#45;&gt;x26:w</title>
<path fill="none" stroke="black" stroke-width="3" d="M2469.7,-628.5C2505.65,-628.5 2474.45,-562.84 2494.66,-547.45"/>
<polygon fill="black" stroke="black" stroke-width="3" points="2492.71,-551.66 2501.34,-545.51 2490.76,-544.94 2492.71,-551.66"/>
</g>
<!-- x0 -->
<g id="node8" class="node">
<title>x0</title>
<path fill="none" stroke="black" d="M561.84,-287C561.84,-287 613.84,-287 613.84,-287 619.84,-287 625.84,-293 625.84,-299 625.84,-299 625.84,-324 625.84,-324 625.84,-330 619.84,-336 613.84,-336 613.84,-336 561.84,-336 561.84,-336 555.84,-336 549.84,-330 549.84,-324 549.84,-324 549.84,-299 549.84,-299 549.84,-293 555.84,-287 561.84,-287"/>
<text text-anchor="middle" x="587.84" y="-318.7" font-family="Times,serif" font-size="14.00">5:5 &#45; 24:24</text>
<polyline fill="none" stroke="black" points="549.84,-311.5 625.84,-311.5"/>
<text text-anchor="middle" x="587.84" y="-294.2" font-family="Times,serif" font-size="14.00">4:0 &#45; 4:0</text>
</g>
<!-- c20&#45;&gt;x0 -->
<g id="edge1" class="edge">
<title>c20:e&#45;&gt;x0:w</title>
<path fill="none" stroke="black" stroke-width="3" d="M519.18,-301.69C525.83,-303.88 530.57,-307.42 537.24,-309.6"/>
<polygon fill="none" stroke="black" stroke-width="3" points="521,-301.97 514.47,-305.02 509.14,-300.16 515.67,-297.11 521,-301.97"/>
<polygon fill="none" stroke="black" stroke-width="3" points="535.3,-309.3 541.83,-306.24 547.17,-311.1 540.64,-314.16 535.3,-309.3"/>
</g>
<!-- x0&#45;&gt;n13 -->
<g id="edge56" class="edge">
<title>x0:e&#45;&gt;n13:w</title>
<path fill="none" stroke="black" stroke-width="3" d="M625.84,-299.25C640.46,-299.25 642.52,-313.18 651.05,-319.92"/>
<polygon fill="black" stroke="black" stroke-width="3" points="646.94,-322.24 657.53,-322.07 649.14,-315.6 646.94,-322.24"/>
</g>
<!-- x0&#45;&gt;n13 -->
<g id="edge57" class="edge">
<title>x0:e&#45;&gt;n13:w</title>
<path fill="none" stroke="black" d="M625.84,-323.75C637.22,-323.75 642.53,-323.62 650.4,-323.55"/>
<polygon fill="black" stroke="black" points="650.34,-327.05 660.33,-323.51 650.31,-320.05 650.34,-327.05"/>
</g>
<!-- c21 -->
<g id="node9" class="node">
<title>c21</title>
<polygon fill="none" stroke="black" points="1727.34,-213 1727.34,-262 1821.09,-262 1821.09,-213 1727.34,-213"/>
<text text-anchor="middle" x="1740.22" y="-244.7" font-family="Times,serif" font-size="14.00">A</text>
<polyline fill="none" stroke="black" points="1727.34,-237.5 1753.09,-237.5"/>
<text text-anchor="middle" x="1740.22" y="-220.2" font-family="Times,serif" font-size="14.00">B</text>
<polyline fill="none" stroke="black" points="1753.09,-213 1753.09,-262"/>
<text text-anchor="middle" x="1774.22" y="-240.7" font-family="Times,serif" font-size="14.00">$16</text>
<text text-anchor="middle" x="1774.22" y="-224.2" font-family="Times,serif" font-size="14.00">$add</text>
<polyline fill="none" stroke="black" points="1795.34,-213 1795.34,-262"/>
<text text-anchor="middle" x="1808.22" y="-232.7" font-family="Times,serif" font-size="14.00">Y</text>
</g>
<!-- x8 -->
<g id="node23" class="node">
<title>x8</title>
<path fill="none" stroke="black" d="M2024.22,-255.5C2024.22,-255.5 2062.72,-255.5 2062.72,-255.5 2068.72,-255.5 2074.72,-261.5 2074.72,-267.5 2074.72,-267.5 2074.72,-279.5 2074.72,-279.5 2074.72,-285.5 2068.72,-291.5 2062.72,-291.5 2062.72,-291.5 2024.22,-291.5 2024.22,-291.5 2018.22,-291.5 2012.22,-285.5 2012.22,-279.5 2012.22,-279.5 2012.22,-267.5 2012.22,-267.5 2012.22,-261.5 2018.22,-255.5 2024.22,-255.5"/>
<text text-anchor="middle" x="2043.47" y="-268.7" font-family="Times,serif" font-size="14.00">8:0 &#45; 8:0</text>
</g>
<!-- c21&#45;&gt;x8 -->
<g id="edge31" class="edge">
<title>c21:e&#45;&gt;x8:w</title>
<path fill="none" stroke="black" stroke-width="3" d="M1821.09,-237.75C1903.23,-237.75 1923.45,-270.59 2000.03,-273.54"/>
<polygon fill="black" stroke="black" stroke-width="3" points="1996.61,-276.97 2006.68,-273.66 1996.75,-269.98 1996.61,-276.97"/>
</g>
<!-- x1 -->
<g id="node10" class="node">
<title>x1</title>
<path fill="none" stroke="black" d="M1599.97,-212.75C1599.97,-212.75 1675.97,-212.75 1675.97,-212.75 1681.97,-212.75 1687.97,-218.75 1687.97,-224.75 1687.97,-224.75 1687.97,-274.25 1687.97,-274.25 1687.97,-280.25 1681.97,-286.25 1675.97,-286.25 1675.97,-286.25 1599.97,-286.25 1599.97,-286.25 1593.97,-286.25 1587.97,-280.25 1587.97,-274.25 1587.97,-274.25 1587.97,-224.75 1587.97,-224.75 1587.97,-218.75 1593.97,-212.75 1599.97,-212.75"/>
<text text-anchor="middle" x="1637.97" y="-268.95" font-family="Times,serif" font-size="14.00">0 &#45;&gt; 15:13</text>
<polyline fill="none" stroke="black" points="1587.97,-261.75 1687.97,-261.75"/>
<text text-anchor="middle" x="1637.97" y="-244.45" font-family="Times,serif" font-size="14.00">7x 12:12 &#45; 12:6</text>
<polyline fill="none" stroke="black" points="1587.97,-237.25 1687.97,-237.25"/>
<text text-anchor="middle" x="1637.97" y="-219.95" font-family="Times,serif" font-size="14.00">5:0 &#45; 5:0</text>
</g>
<!-- x1&#45;&gt;c21 -->
<g id="edge2" class="edge">
<title>x1:e&#45;&gt;c21:w</title>
<path fill="none" stroke="black" stroke-width="3" d="M1701.99,-249.56C1706.34,-249.6 1710,-249.65 1714.35,-249.69"/>
<polygon fill="none" stroke="black" stroke-width="3" points="1703.67,-249.57 1697.65,-253.54 1691.67,-249.51 1697.69,-245.54 1703.67,-249.57"/>
<polygon fill="none" stroke="black" stroke-width="3" points="1712.64,-249.68 1718.66,-245.71 1724.64,-249.74 1718.62,-253.71 1712.64,-249.68"/>
</g>
<!-- x2&#45;&gt;c21 -->
<g id="edge3" class="edge">
<title>x2:e&#45;&gt;c21:w</title>
<path fill="none" stroke="black" stroke-width="3" d="M247.86,-117.48C515.48,-116.79 586.77,-94.5 860.72,-94.5 860.72,-94.5 860.72,-94.5 1503.47,-94.5 1587.65,-94.5 1626.22,-65.16 1691.34,-118.5 1725.99,-146.88 1687.39,-209.91 1714.71,-222.89"/>
<polygon fill="none" stroke="black" stroke-width="3" points="249.67,-117.48 243.68,-121.49 237.67,-117.5 243.66,-113.49 249.67,-117.48"/>
<polygon fill="none" stroke="black" stroke-width="3" points="1712.89,-222.55 1719.52,-219.72 1724.68,-224.75 1718.05,-227.58 1712.89,-222.55"/>
</g>
<!-- c22&#45;&gt;c23 -->
<g id="edge78" class="edge">
<title>c22:e&#45;&gt;c23:w</title>
<path fill="none" stroke="black" stroke-width="3" d="M237.59,-343.75C251.32,-343.75 254.41,-332.5 262.82,-326.88"/>
<polygon fill="black" stroke="black" stroke-width="3" points="260.6,-331.16 269.23,-325.02 258.65,-324.44 260.6,-331.16"/>
</g>
<!-- c23&#45;&gt;c20 -->
<g id="edge79" class="edge">
<title>c23:e&#45;&gt;c20:w</title>
<path fill="none" stroke="black" stroke-width="3" d="M367.34,-311.75C382.25,-311.75 388.51,-311.75 399.5,-311.75"/>
<polygon fill="black" stroke="black" stroke-width="3" points="396.18,-315.25 406.18,-311.75 396.18,-308.25 396.18,-315.25"/>
</g>
<!-- c24 -->
<g id="node14" class="node">
<title>c24</title>
<polygon fill="none" stroke="black" points="670.97,-560 670.97,-609 763.22,-609 763.22,-560 670.97,-560"/>
<text text-anchor="middle" x="683.84" y="-591.7" font-family="Times,serif" font-size="14.00">A</text>
<polyline fill="none" stroke="black" points="670.97,-584.5 696.72,-584.5"/>
<text text-anchor="middle" x="683.84" y="-567.2" font-family="Times,serif" font-size="14.00">B</text>
<polyline fill="none" stroke="black" points="696.72,-560 696.72,-609"/>
<text text-anchor="middle" x="717.09" y="-587.7" font-family="Times,serif" font-size="14.00">$36</text>
<text text-anchor="middle" x="717.09" y="-571.2" font-family="Times,serif" font-size="14.00">$xor</text>
<polyline fill="none" stroke="black" points="737.47,-560 737.47,-609"/>
<text text-anchor="middle" x="750.34" y="-579.7" font-family="Times,serif" font-size="14.00">Y</text>
</g>
<!-- c24&#45;&gt;x14 -->
<g id="edge91" class="edge">
<title>c24:e&#45;&gt;x14:w</title>
<path fill="none" stroke="black" d="M764.22,-584.75C784.22,-584.75 790.83,-593.67 806.02,-596.87"/>
<polygon fill="black" stroke="black" points="805.67,-600.35 815.96,-597.85 806.35,-593.39 805.67,-600.35"/>
</g>
<!-- x3&#45;&gt;c24 -->
<g id="edge4" class="edge">
<title>x3:e&#45;&gt;c24:w</title>
<path fill="none" stroke="black" d="M632.31,-555.97C644.41,-564.2 645.58,-584.83 657.59,-593.17"/>
<polygon fill="none" stroke="black" points="632.5,-556.03 625.64,-558.23 620.96,-552.75 627.82,-550.54 632.5,-556.03"/>
<polygon fill="none" stroke="black" points="657.57,-593.17 664.45,-590.99 669.1,-596.5 662.23,-598.67 657.57,-593.17"/>
</g>
<!-- x4&#45;&gt;c24 -->
<g id="edge5" class="edge">
<title>x4:e&#45;&gt;c24:w</title>
<path fill="none" stroke="black" d="M365.6,-549.66C477.12,-552.49 508.59,-591.37 625.84,-580.5 640.59,-579.13 646.76,-575.25 657.12,-573.34"/>
<polygon fill="none" stroke="black" points="365.62,-549.66 359.57,-553.59 353.62,-549.51 359.67,-545.59 365.62,-549.66"/>
<polygon fill="none" stroke="black" points="657.11,-573.34 662.75,-568.85 669.07,-572.33 663.43,-576.82 657.11,-573.34"/>
</g>
<!-- x6 -->
<g id="node19" class="node">
<title>x6</title>
<path fill="none" stroke="black" d="M1095.09,-240C1095.09,-240 1147.09,-240 1147.09,-240 1153.09,-240 1159.09,-246 1159.09,-252 1159.09,-252 1159.09,-277 1159.09,-277 1159.09,-283 1153.09,-289 1147.09,-289 1147.09,-289 1095.09,-289 1095.09,-289 1089.09,-289 1083.09,-283 1083.09,-277 1083.09,-277 1083.09,-252 1083.09,-252 1083.09,-246 1089.09,-240 1095.09,-240"/>
<text text-anchor="middle" x="1121.09" y="-271.7" font-family="Times,serif" font-size="14.00">5:5 &#45; 12:12</text>
<polyline fill="none" stroke="black" points="1083.09,-264.5 1159.09,-264.5"/>
<text text-anchor="middle" x="1121.09" y="-247.2" font-family="Times,serif" font-size="14.00">4:0 &#45; 4:0</text>
</g>
<!-- c25&#45;&gt;x6 -->
<g id="edge7" class="edge">
<title>c25:e&#45;&gt;x6:w</title>
<path fill="none" stroke="black" stroke-width="3" d="M1059.54,-253.17C1063.49,-255.55 1066.6,-258.72 1070.55,-261.1"/>
<polygon fill="none" stroke="black" stroke-width="3" points="1061.16,-253.61 1054.32,-255.9 1049.58,-250.46 1056.42,-248.18 1061.16,-253.61"/>
<polygon fill="none" stroke="black" stroke-width="3" points="1068.9,-260.65 1075.74,-258.36 1080.48,-263.79 1073.65,-266.08 1068.9,-260.65"/>
</g>
<!-- x5&#45;&gt;c25 -->
<g id="edge6" class="edge">
<title>x5:e&#45;&gt;c25:w</title>
<path fill="none" stroke="black" stroke-width="3" d="M913.38,-261.53C922.65,-261.58 929,-261.67 938.2,-261.72"/>
<polygon fill="none" stroke="black" stroke-width="3" points="915.42,-261.54 909.41,-265.52 903.42,-261.51 909.43,-257.52 915.42,-261.54"/>
<polygon fill="none" stroke="black" stroke-width="3" points="936.51,-261.71 942.52,-257.73 948.51,-261.74 942.5,-265.73 936.51,-261.71"/>
</g>
<!-- n4 -->
<g id="node61" class="node">
<title>n4</title>
<ellipse fill="black" stroke="black" cx="1243.09" cy="-276.5" rx="1.8" ry="1.8"/>
</g>
<!-- x6&#45;&gt;n4 -->
<g id="edge82" class="edge">
<title>x6:e&#45;&gt;n4:w</title>
<path fill="none" stroke="black" stroke-width="3" d="M1159.09,-252.25C1192.46,-252.25 1200.71,-271.49 1228.58,-275.69"/>
<polygon fill="black" stroke="black" stroke-width="3" points="1225.06,-278.95 1235.29,-276.17 1225.56,-271.97 1225.06,-278.95"/>
</g>
<!-- x6&#45;&gt;n4 -->
<g id="edge83" class="edge">
<title>x6:e&#45;&gt;n4:w</title>
<path fill="none" stroke="black" d="M1159.09,-276.75C1190.91,-276.75 1201.56,-276.55 1228.58,-276.51"/>
<polygon fill="black" stroke="black" points="1228.3,-280.01 1238.3,-276.5 1228.3,-273.01 1228.3,-280.01"/>
</g>
<!-- c26&#45;&gt;x1 -->
<g id="edge92" class="edge">
<title>c26:e&#45;&gt;x1:w</title>
<path fill="none" stroke="black" stroke-width="3" d="M1548.59,-211.75C1562.13,-211.75 1566.8,-219.2 1575.9,-222.93"/>
<polygon fill="black" stroke="black" stroke-width="3" points="1572.03,-225.77 1582.5,-224.17 1573.32,-218.89 1572.03,-225.77"/>
</g>
<!-- x7 -->
<g id="node21" class="node">
<title>x7</title>
<path fill="none" stroke="black" d="M1347.72,-199C1347.72,-199 1399.72,-199 1399.72,-199 1405.72,-199 1411.72,-205 1411.72,-211 1411.72,-211 1411.72,-236 1411.72,-236 1411.72,-242 1405.72,-248 1399.72,-248 1399.72,-248 1347.72,-248 1347.72,-248 1341.72,-248 1335.72,-242 1335.72,-236 1335.72,-236 1335.72,-211 1335.72,-211 1335.72,-205 1341.72,-199 1347.72,-199"/>
<text text-anchor="middle" x="1373.72" y="-230.7" font-family="Times,serif" font-size="14.00">12:12 &#45; 5:5</text>
<polyline fill="none" stroke="black" points="1335.72,-223.5 1411.72,-223.5"/>
<text text-anchor="middle" x="1373.72" y="-206.2" font-family="Times,serif" font-size="14.00">4:0 &#45; 4:0</text>
</g>
<!-- x7&#45;&gt;c26 -->
<g id="edge8" class="edge">
<title>x7:e&#45;&gt;c26:w</title>
<path fill="none" stroke="black" stroke-width="3" d="M1425.64,-223.54C1432.09,-223.59 1437.03,-223.66 1443.5,-223.71"/>
<polygon fill="none" stroke="black" stroke-width="3" points="1427.42,-223.55 1421.41,-227.53 1415.42,-223.51 1421.44,-219.53 1427.42,-223.55"/>
<polygon fill="none" stroke="black" stroke-width="3" points="1441.64,-223.7 1447.65,-219.72 1453.64,-223.74 1447.63,-227.72 1441.64,-223.7"/>
</g>
<!-- c27 -->
<g id="node22" class="node">
<title>c27</title>
<polygon fill="none" stroke="black" points="2121.77,-331 2121.77,-380 2215.52,-380 2215.52,-331 2121.77,-331"/>
<text text-anchor="middle" x="2134.65" y="-362.7" font-family="Times,serif" font-size="14.00">A</text>
<polyline fill="none" stroke="black" points="2121.77,-355.5 2147.52,-355.5"/>
<text text-anchor="middle" x="2134.65" y="-338.2" font-family="Times,serif" font-size="14.00">B</text>
<polyline fill="none" stroke="black" points="2147.52,-331 2147.52,-380"/>
<text text-anchor="middle" x="2168.65" y="-358.7" font-family="Times,serif" font-size="14.00">$46</text>
<text text-anchor="middle" x="2168.65" y="-342.2" font-family="Times,serif" font-size="14.00">$and</text>
<polyline fill="none" stroke="black" points="2189.77,-331 2189.77,-380"/>
<text text-anchor="middle" x="2202.65" y="-350.7" font-family="Times,serif" font-size="14.00">Y</text>
</g>
<!-- x10 -->
<g id="node25" class="node">
<title>x10</title>
<path fill="none" stroke="black" d="M2269.33,-494C2269.33,-494 2307.83,-494 2307.83,-494 2313.83,-494 2319.83,-500 2319.83,-506 2319.83,-506 2319.83,-531 2319.83,-531 2319.83,-537 2313.83,-543 2307.83,-543 2307.83,-543 2269.33,-543 2269.33,-543 2263.33,-543 2257.33,-537 2257.33,-531 2257.33,-531 2257.33,-506 2257.33,-506 2257.33,-500 2263.33,-494 2269.33,-494"/>
<text text-anchor="middle" x="2288.58" y="-525.7" font-family="Times,serif" font-size="14.00">8:3 &#45; 8:3</text>
<polyline fill="none" stroke="black" points="2257.33,-518.5 2319.83,-518.5"/>
<text text-anchor="middle" x="2288.58" y="-501.2" font-family="Times,serif" font-size="14.00">2:0 &#45; 2:0</text>
</g>
<!-- c27&#45;&gt;x10 -->
<g id="edge11" class="edge">
<title>c27:e&#45;&gt;x10:w</title>
<path fill="none" stroke="black" stroke-width="3" d="M2229.34,-357.93C2273.49,-375.84 2199.24,-498.72 2243.67,-516.39"/>
<polygon fill="none" stroke="black" stroke-width="3" points="2231.02,-358.21 2224.43,-361.15 2219.19,-356.2 2225.77,-353.26 2231.02,-358.21"/>
<polygon fill="none" stroke="black" stroke-width="3" points="2241.82,-516.08 2248.4,-513.12 2253.66,-518.05 2247.08,-521.01 2241.82,-516.08"/>
</g>
<!-- x8&#45;&gt;c27 -->
<g id="edge9" class="edge">
<title>x8:e&#45;&gt;c27:w</title>
<path fill="none" stroke="black" stroke-width="3" d="M2088.14,-276.85C2109.38,-291.48 2087.14,-349.6 2108.26,-364.34"/>
<polygon fill="none" stroke="black" stroke-width="3" points="2089.91,-277.33 2083.08,-279.63 2078.33,-274.2 2085.16,-271.91 2089.91,-277.33"/>
<polygon fill="none" stroke="black" stroke-width="3" points="2106.59,-363.88 2113.43,-361.6 2118.16,-367.04 2111.32,-369.32 2106.59,-363.88"/>
</g>
<!-- x9&#45;&gt;c27 -->
<g id="edge10" class="edge">
<title>x9:e&#45;&gt;c27:w</title>
<path fill="none" stroke="black" stroke-width="3" d="M2096.31,-343.44C2100.35,-343.4 2103.81,-343.35 2107.87,-343.31"/>
<polygon fill="none" stroke="black" stroke-width="3" points="2098.05,-343.43 2092.07,-347.46 2086.05,-343.49 2092.03,-339.46 2098.05,-343.43"/>
<polygon fill="none" stroke="black" stroke-width="3" points="2106.07,-343.32 2112.05,-339.29 2118.07,-343.26 2112.09,-347.29 2106.07,-343.32"/>
</g>
<!-- x10&#45;&gt;n16 -->
<g id="edge71" class="edge">
<title>x10:e&#45;&gt;n16:w</title>
<path fill="none" stroke="black" stroke-width="3" d="M2320.83,-530.75C2362.94,-530.75 2322.3,-610.34 2348.25,-625.89"/>
<polygon fill="black" stroke="black" stroke-width="3" points="2344.25,-628.53 2354.79,-627.45 2345.87,-621.72 2344.25,-628.53"/>
</g>
<!-- n5 -->
<g id="node62" class="node">
<title>n5</title>
<ellipse fill="black" stroke="black" cx="2770.45" cy="-533.5" rx="1.8" ry="1.8"/>
</g>
<!-- x10&#45;&gt;n5 -->
<g id="edge88" class="edge">
<title>x10:e&#45;&gt;n5:w</title>
<path fill="none" stroke="black" stroke-width="3" d="M2320.83,-506.25C2490.01,-506.25 2532.3,-513.1 2700.95,-526.5 2726.31,-528.51 2735.13,-532.24 2755.9,-533.24"/>
<polygon fill="black" stroke="black" stroke-width="3" points="2752.56,-536.67 2762.64,-533.4 2752.72,-529.67 2752.56,-536.67"/>
</g>
<!-- x12 -->
<g id="node28" class="node">
<title>x12</title>
<path fill="none" stroke="black" d="M3147.18,-557.5C3147.18,-557.5 3185.68,-557.5 3185.68,-557.5 3191.68,-557.5 3197.68,-563.5 3197.68,-569.5 3197.68,-569.5 3197.68,-581.5 3197.68,-581.5 3197.68,-587.5 3191.68,-593.5 3185.68,-593.5 3185.68,-593.5 3147.18,-593.5 3147.18,-593.5 3141.18,-593.5 3135.18,-587.5 3135.18,-581.5 3135.18,-581.5 3135.18,-569.5 3135.18,-569.5 3135.18,-563.5 3141.18,-557.5 3147.18,-557.5"/>
<text text-anchor="middle" x="3166.43" y="-570.7" font-family="Times,serif" font-size="14.00">2:0 &#45; 2:0</text>
</g>
<!-- c28&#45;&gt;x12 -->
<g id="edge13" class="edge">
<title>c28:e&#45;&gt;x12:w</title>
<path fill="none" stroke="black" stroke-width="3" d="M3084.16,-524.49C3102.73,-533.73 3103.02,-563.69 3121.69,-572.83"/>
<polygon fill="none" stroke="black" stroke-width="3" points="3085.89,-524.87 3079.18,-527.5 3074.17,-522.32 3080.88,-519.69 3085.89,-524.87"/>
<polygon fill="none" stroke="black" stroke-width="3" points="3119.8,-572.43 3126.5,-569.77 3131.54,-574.93 3124.83,-577.59 3119.8,-572.43"/>
</g>
<!-- x11 -->
<g id="node27" class="node">
<title>x11</title>
<path fill="none" stroke="black" d="M2874.61,-515.5C2874.61,-515.5 2913.11,-515.5 2913.11,-515.5 2919.11,-515.5 2925.11,-521.5 2925.11,-527.5 2925.11,-527.5 2925.11,-539.5 2925.11,-539.5 2925.11,-545.5 2919.11,-551.5 2913.11,-551.5 2913.11,-551.5 2874.61,-551.5 2874.61,-551.5 2868.61,-551.5 2862.61,-545.5 2862.61,-539.5 2862.61,-539.5 2862.61,-527.5 2862.61,-527.5 2862.61,-521.5 2868.61,-515.5 2874.61,-515.5"/>
<text text-anchor="middle" x="2893.86" y="-528.7" font-family="Times,serif" font-size="14.00">2:0 &#45; 2:0</text>
</g>
<!-- x11&#45;&gt;c28 -->
<g id="edge12" class="edge">
<title>x11:e&#45;&gt;c28:w</title>
<path fill="none" stroke="black" stroke-width="3" d="M2938.76,-533.52C2951.05,-533.57 2958.7,-533.68 2970.96,-533.73"/>
<polygon fill="none" stroke="black" stroke-width="3" points="2940.82,-533.53 2934.81,-537.52 2928.82,-533.5 2934.83,-529.52 2940.82,-533.53"/>
<polygon fill="none" stroke="black" stroke-width="3" points="2969.07,-533.72 2975.08,-529.73 2981.07,-533.74 2975.06,-537.73 2969.07,-533.72"/>
</g>
<!-- x12&#45;&gt;n16 -->
<g id="edge72" class="edge">
<title>x12:e&#45;&gt;n16:w</title>
<path fill="none" stroke="black" stroke-width="3" d="M3198.68,-575.75C3206.8,-575.75 3203.46,-588.29 3197.68,-594 3101.79,-688.6 3029.56,-606.5 2894.86,-606.5 2769.45,-606.5 2769.45,-606.5 2769.45,-606.5 2651.89,-606.5 2618.31,-592.73 2505.7,-626.5 2488.17,-631.76 2487.42,-641.91 2469.7,-646.5 2421.57,-658.97 2393.95,-680.67 2357.83,-646.5 2355.83,-644.61 2354.14,-641.89 2353.1,-639.14"/>
<polygon fill="black" stroke="black" stroke-width="3" points="2355.33,-643.38 2355.33,-632.79 2348.72,-641.07 2355.33,-643.38"/>
</g>
<!-- c29&#45;&gt;x19 -->
<g id="edge93" class="edge">
<title>c29:e&#45;&gt;x19:w</title>
<path fill="none" stroke="black" stroke-width="3" d="M2700.95,-765.75C2729.58,-765.75 2710.99,-717.19 2726.34,-703.54"/>
<polygon fill="black" stroke="black" stroke-width="3" points="2724.26,-707.91 2732.65,-701.43 2722.05,-701.27 2724.26,-707.91"/>
</g>
<!-- x13&#45;&gt;c29 -->
<g id="edge14" class="edge">
<title>x13:e&#45;&gt;c29:w</title>
<path fill="none" stroke="black" stroke-width="3" d="M2583.79,-763.19C2588.44,-766.36 2591.73,-770.9 2596.38,-774.06"/>
<polygon fill="none" stroke="black" stroke-width="3" points="2585.54,-763.72 2578.64,-765.83 2574.04,-760.28 2580.94,-758.17 2585.54,-763.72"/>
<polygon fill="none" stroke="black" stroke-width="3" points="2594.62,-773.54 2601.51,-771.42 2606.11,-776.97 2599.22,-779.09 2594.62,-773.54"/>
</g>
<!-- c30 -->
<g id="node31" class="node">
<title>c30</title>
<polygon fill="none" stroke="black" points="951.09,-532 951.09,-581 1047.09,-581 1047.09,-532 951.09,-532"/>
<text text-anchor="middle" x="963.97" y="-563.7" font-family="Times,serif" font-size="14.00">A</text>
<polyline fill="none" stroke="black" points="951.09,-556.5 976.84,-556.5"/>
<text text-anchor="middle" x="963.97" y="-539.2" font-family="Times,serif" font-size="14.00">B</text>
<polyline fill="none" stroke="black" points="976.84,-532 976.84,-581"/>
<text text-anchor="middle" x="999.09" y="-559.7" font-family="Times,serif" font-size="14.00">$11</text>
<text text-anchor="middle" x="999.09" y="-543.2" font-family="Times,serif" font-size="14.00">$mul</text>
<polyline fill="none" stroke="black" points="1021.34,-532 1021.34,-581"/>
<text text-anchor="middle" x="1034.22" y="-551.7" font-family="Times,serif" font-size="14.00">Y</text>
</g>
<!-- x16 -->
<g id="node35" class="node">
<title>x16</title>
<path fill="none" stroke="black" d="M1095.09,-538C1095.09,-538 1147.09,-538 1147.09,-538 1153.09,-538 1159.09,-544 1159.09,-550 1159.09,-550 1159.09,-575 1159.09,-575 1159.09,-581 1153.09,-587 1147.09,-587 1147.09,-587 1095.09,-587 1095.09,-587 1089.09,-587 1083.09,-581 1083.09,-575 1083.09,-575 1083.09,-550 1083.09,-550 1083.09,-544 1089.09,-538 1095.09,-538"/>
<text text-anchor="middle" x="1121.09" y="-569.7" font-family="Times,serif" font-size="14.00">0 &#45;&gt; 13:13</text>
<polyline fill="none" stroke="black" points="1083.09,-562.5 1159.09,-562.5"/>
<text text-anchor="middle" x="1121.09" y="-545.2" font-family="Times,serif" font-size="14.00">12:0 &#45; 12:0</text>
</g>
<!-- c30&#45;&gt;x16 -->
<g id="edge94" class="edge">
<title>c30:e&#45;&gt;x16:w</title>
<path fill="none" stroke="black" stroke-width="3" d="M1047.09,-556.75C1058.78,-556.75 1063.86,-553.39 1071.84,-551.5"/>
<polygon fill="black" stroke="black" stroke-width="3" points="1069.03,-555.34 1078.58,-550.75 1068.25,-548.38 1069.03,-555.34"/>
</g>
<!-- x14&#45;&gt;c30 -->
<g id="edge15" class="edge">
<title>x14:e&#45;&gt;c30:w</title>
<path fill="none" stroke="black" stroke-width="3" d="M918.25,-618.28C929.73,-608.19 927.37,-582.73 939,-572.8"/>
<polygon fill="none" stroke="black" stroke-width="3" points="919.87,-617.72 915.5,-623.46 908.53,-621.62 912.9,-615.89 919.87,-617.72"/>
<polygon fill="none" stroke="black" stroke-width="3" points="937.15,-573.42 941.57,-567.72 948.53,-569.61 944.11,-575.31 937.15,-573.42"/>
</g>
<!-- x15&#45;&gt;c30 -->
<g id="edge16" class="edge">
<title>x15:e&#45;&gt;c30:w</title>
<path fill="none" stroke="black" stroke-width="3" d="M762.1,-518.68C837.89,-520.84 862.61,-541.94 938.46,-544.08"/>
<polygon fill="none" stroke="black" stroke-width="3" points="764.05,-518.71 757.99,-522.62 752.05,-518.54 758.1,-514.62 764.05,-518.71"/>
<polygon fill="none" stroke="black" stroke-width="3" points="936.39,-544.05 942.44,-540.13 948.39,-544.21 942.33,-548.13 936.39,-544.05"/>
</g>
<!-- c31 -->
<g id="node34" class="node">
<title>c31</title>
<polygon fill="none" stroke="black" points="1195.09,-513 1195.09,-562 1291.09,-562 1291.09,-513 1195.09,-513"/>
<text text-anchor="middle" x="1207.97" y="-544.7" font-family="Times,serif" font-size="14.00">A</text>
<polyline fill="none" stroke="black" points="1195.09,-537.5 1220.84,-537.5"/>
<text text-anchor="middle" x="1207.97" y="-520.2" font-family="Times,serif" font-size="14.00">B</text>
<polyline fill="none" stroke="black" points="1220.84,-513 1220.84,-562"/>
<text text-anchor="middle" x="1243.09" y="-540.7" font-family="Times,serif" font-size="14.00">$12</text>
<text text-anchor="middle" x="1243.09" y="-524.2" font-family="Times,serif" font-size="14.00">$mul</text>
<polyline fill="none" stroke="black" points="1265.34,-513 1265.34,-562"/>
<text text-anchor="middle" x="1278.22" y="-532.7" font-family="Times,serif" font-size="14.00">Y</text>
</g>
<!-- x18 -->
<g id="node37" class="node">
<title>x18</title>
<path fill="none" stroke="black" d="M1340.97,-513C1340.97,-513 1406.47,-513 1406.47,-513 1412.47,-513 1418.47,-519 1418.47,-525 1418.47,-525 1418.47,-550 1418.47,-550 1418.47,-556 1412.47,-562 1406.47,-562 1406.47,-562 1340.97,-562 1340.97,-562 1334.97,-562 1328.97,-556 1328.97,-550 1328.97,-550 1328.97,-525 1328.97,-525 1328.97,-519 1334.97,-513 1340.97,-513"/>
<text text-anchor="middle" x="1373.72" y="-544.7" font-family="Times,serif" font-size="14.00">19:19 &#45; 24:24</text>
<polyline fill="none" stroke="black" points="1328.97,-537.5 1418.47,-537.5"/>
<text text-anchor="middle" x="1373.72" y="-520.2" font-family="Times,serif" font-size="14.00">18:0 &#45; 18:0</text>
</g>
<!-- c31&#45;&gt;x18 -->
<g id="edge19" class="edge">
<title>c31:e&#45;&gt;x18:w</title>
<path fill="none" stroke="black" stroke-width="3" d="M1304.12,-537.69C1307.92,-537.65 1311.22,-537.6 1315.03,-537.56"/>
<polygon fill="none" stroke="black" stroke-width="3" points="1305.8,-537.68 1299.82,-541.71 1293.8,-537.74 1299.78,-533.71 1305.8,-537.68"/>
<polygon fill="none" stroke="black" stroke-width="3" points="1313.26,-537.57 1319.24,-533.54 1325.26,-537.51 1319.28,-541.54 1313.26,-537.57"/>
</g>
<!-- x16&#45;&gt;c31 -->
<g id="edge17" class="edge">
<title>x16:e&#45;&gt;c31:w</title>
<path fill="none" stroke="black" stroke-width="3" d="M1171.55,-559.54C1175.52,-557.48 1178.7,-554.75 1182.67,-552.69"/>
<polygon fill="none" stroke="black" stroke-width="3" points="1173.4,-559.1 1168.49,-564.38 1161.72,-561.88 1166.64,-556.6 1173.4,-559.1"/>
<polygon fill="none" stroke="black" stroke-width="3" points="1180.78,-553.14 1185.7,-547.86 1192.46,-550.37 1187.54,-555.65 1180.78,-553.14"/>
</g>
<!-- x17&#45;&gt;c31 -->
<g id="edge18" class="edge">
<title>x17:e&#45;&gt;c31:w</title>
<path fill="none" stroke="black" stroke-width="3" d="M913.73,-423.81C1036.2,-429.75 1059.63,-519.02 1182.12,-524.94"/>
<polygon fill="none" stroke="black" stroke-width="3" points="915.42,-423.85 909.32,-427.71 903.42,-423.56 909.52,-419.71 915.42,-423.85"/>
<polygon fill="none" stroke="black" stroke-width="3" points="1180.39,-524.9 1186.49,-521.04 1192.39,-525.19 1186.3,-529.04 1180.39,-524.9"/>
</g>
<!-- n10 -->
<g id="node60" class="node">
<title>n10</title>
<ellipse fill="black" stroke="black" cx="1502.47" cy="-540.5" rx="1.8" ry="1.8"/>
</g>
<!-- x18&#45;&gt;n10 -->
<g id="edge32" class="edge">
<title>x18:e&#45;&gt;n10:w</title>
<path fill="none" stroke="black" stroke-width="3" d="M1419.47,-525.25C1451.46,-525.25 1461.03,-537.24 1487.94,-539.96"/>
<polygon fill="black" stroke="black" stroke-width="3" points="1484.5,-543.29 1494.65,-540.28 1484.83,-536.3 1484.5,-543.29"/>
</g>
<!-- x18&#45;&gt;n10 -->
<g id="edge33" class="edge">
<title>x18:e&#45;&gt;n10:w</title>
<path fill="none" stroke="black" d="M1419.47,-549.75C1450.96,-549.75 1461.18,-542.54 1487.69,-540.85"/>
<polygon fill="black" stroke="black" points="1487.79,-544.35 1497.68,-540.55 1487.57,-537.35 1487.79,-544.35"/>
</g>
<!-- c32 -->
<g id="node38" class="node">
<title>c32</title>
<polygon fill="none" stroke="black" points="2845.86,-667 2845.86,-716 2941.86,-716 2941.86,-667 2845.86,-667"/>
<text text-anchor="middle" x="2858.74" y="-698.7" font-family="Times,serif" font-size="14.00">A</text>
<polyline fill="none" stroke="black" points="2845.86,-691.5 2871.61,-691.5"/>
<text text-anchor="middle" x="2858.74" y="-674.2" font-family="Times,serif" font-size="14.00">B</text>
<polyline fill="none" stroke="black" points="2871.61,-667 2871.61,-716"/>
<text text-anchor="middle" x="2893.86" y="-694.7" font-family="Times,serif" font-size="14.00">$29</text>
<text text-anchor="middle" x="2893.86" y="-678.2" font-family="Times,serif" font-size="14.00">$mul</text>
<polyline fill="none" stroke="black" points="2916.11,-667 2916.11,-716"/>
<text text-anchor="middle" x="2928.99" y="-686.7" font-family="Times,serif" font-size="14.00">Y</text>
</g>
<!-- x21 -->
<g id="node41" class="node">
<title>x21</title>
<path fill="none" stroke="black" d="M3001.65,-674.5C3001.65,-674.5 3053.65,-674.5 3053.65,-674.5 3059.65,-674.5 3065.65,-680.5 3065.65,-686.5 3065.65,-686.5 3065.65,-698.5 3065.65,-698.5 3065.65,-704.5 3059.65,-710.5 3053.65,-710.5 3053.65,-710.5 3001.65,-710.5 3001.65,-710.5 2995.65,-710.5 2989.65,-704.5 2989.65,-698.5 2989.65,-698.5 2989.65,-686.5 2989.65,-686.5 2989.65,-680.5 2995.65,-674.5 3001.65,-674.5"/>
<text text-anchor="middle" x="3027.65" y="-687.7" font-family="Times,serif" font-size="14.00">15:0 &#45; 15:0</text>
</g>
<!-- c32&#45;&gt;x21 -->
<g id="edge22" class="edge">
<title>c32:e&#45;&gt;x21:w</title>
<path fill="none" stroke="black" stroke-width="3" d="M2955.74,-691.87C2963.03,-692.01 2968.42,-692.24 2975.69,-692.38"/>
<polygon fill="none" stroke="black" stroke-width="3" points="2957.57,-691.88 2951.53,-695.83 2945.57,-691.77 2951.6,-687.83 2957.57,-691.88"/>
<polygon fill="none" stroke="black" stroke-width="3" points="2973.95,-692.37 2979.98,-688.42 2985.95,-692.48 2979.91,-696.42 2973.95,-692.37"/>
</g>
<!-- x19&#45;&gt;c32 -->
<g id="edge20" class="edge">
<title>x19:e&#45;&gt;c32:w</title>
<path fill="none" stroke="black" stroke-width="3" d="M2816.38,-721.07C2822.53,-717.21 2826.36,-710.95 2832.54,-707.11"/>
<polygon fill="none" stroke="black" stroke-width="3" points="2818.13,-720.59 2813.41,-726.04 2806.56,-723.78 2811.28,-718.33 2818.13,-720.59"/>
<polygon fill="none" stroke="black" stroke-width="3" points="2830.68,-707.62 2835.41,-702.18 2842.26,-704.46 2837.52,-709.9 2830.68,-707.62"/>
</g>
<!-- x20&#45;&gt;c32 -->
<g id="edge21" class="edge">
<title>x20:e&#45;&gt;c32:w</title>
<path fill="none" stroke="black" stroke-width="3" d="M2702.16,-659.74C2757.27,-661.81 2776.97,-676.96 2832.12,-679.02"/>
<polygon fill="none" stroke="black" stroke-width="3" points="2704.03,-659.77 2697.96,-663.66 2692.03,-659.55 2698.1,-655.66 2704.03,-659.77"/>
<polygon fill="none" stroke="black" stroke-width="3" points="2830.16,-678.98 2836.23,-675.09 2842.16,-679.2 2836.09,-683.09 2830.16,-678.98"/>
</g>
<!-- x21&#45;&gt;n12 -->
<g id="edge54" class="edge">
<title>x21:e&#45;&gt;n12:w</title>
<path fill="none" stroke="black" stroke-width="3" d="M3066.65,-692.75C3084.35,-692.75 3085.69,-711.01 3096.75,-718.42"/>
<polygon fill="black" stroke="black" stroke-width="3" points="3092.58,-720.87 3103.16,-720.25 3094.5,-714.14 3092.58,-720.87"/>
</g>
<!-- c33 -->
<g id="node42" class="node">
<title>c33</title>
<polygon fill="none" stroke="black" points="277.72,-424 277.72,-473 363.22,-473 363.22,-424 277.72,-424"/>
<text text-anchor="middle" x="290.59" y="-455.7" font-family="Times,serif" font-size="14.00">A</text>
<polyline fill="none" stroke="black" points="277.72,-448.5 303.47,-448.5"/>
<text text-anchor="middle" x="290.59" y="-431.2" font-family="Times,serif" font-size="14.00">B</text>
<polyline fill="none" stroke="black" points="303.47,-424 303.47,-473"/>
<text text-anchor="middle" x="320.47" y="-451.7" font-family="Times,serif" font-size="14.00">$9</text>
<text text-anchor="middle" x="320.47" y="-435.2" font-family="Times,serif" font-size="14.00">$or</text>
<polyline fill="none" stroke="black" points="337.47,-424 337.47,-473"/>
<text text-anchor="middle" x="350.34" y="-443.7" font-family="Times,serif" font-size="14.00">Y</text>
</g>
<!-- c33&#45;&gt;n14 -->
<g id="edge64" class="edge">
<title>c33:e&#45;&gt;n14:w</title>
<path fill="none" stroke="black" stroke-width="3" d="M364.22,-448.75C383.66,-448.75 381.5,-473.19 392.5,-482.74"/>
<polygon fill="black" stroke="black" stroke-width="3" points="388.46,-485.04 399.05,-485.01 390.75,-478.43 388.46,-485.04"/>
</g>
<!-- x22&#45;&gt;c33 -->
<g id="edge23" class="edge">
<title>x22:e&#45;&gt;c33:w</title>
<path fill="none" stroke="black" stroke-width="3" d="M235.61,-460.53C246.3,-460.57 253.28,-460.67 263.95,-460.72"/>
<polygon fill="none" stroke="black" stroke-width="3" points="237.67,-460.53 231.66,-464.52 225.67,-460.51 231.68,-456.52 237.67,-460.53"/>
<polygon fill="none" stroke="black" stroke-width="3" points="262.01,-460.72 268.02,-456.73 274.01,-460.74 268,-464.73 262.01,-460.72"/>
</g>
<!-- x23&#45;&gt;c33 -->
<g id="edge24" class="edge">
<title>x23:e&#45;&gt;c33:w</title>
<path fill="none" stroke="black" stroke-width="3" d="M235.35,-408.12C247.42,-413.87 252.06,-427.55 263.99,-433.46"/>
<polygon fill="none" stroke="black" stroke-width="3" points="237.35,-408.55 230.65,-411.22 225.61,-406.06 232.31,-403.39 237.35,-408.55"/>
<polygon fill="none" stroke="black" stroke-width="3" points="262.35,-433.1 269.07,-430.48 274.07,-435.67 267.36,-438.29 262.35,-433.1"/>
</g>
<!-- c34 -->
<g id="node45" class="node">
<title>c34</title>
<polygon fill="none" stroke="black" points="1728.84,-319 1728.84,-368 1819.59,-368 1819.59,-319 1728.84,-319"/>
<text text-anchor="middle" x="1741.72" y="-350.7" font-family="Times,serif" font-size="14.00">A</text>
<polyline fill="none" stroke="black" points="1728.84,-343.5 1754.59,-343.5"/>
<text text-anchor="middle" x="1741.72" y="-326.2" font-family="Times,serif" font-size="14.00">B</text>
<polyline fill="none" stroke="black" points="1754.59,-319 1754.59,-368"/>
<text text-anchor="middle" x="1774.22" y="-346.7" font-family="Times,serif" font-size="14.00">$13</text>
<text text-anchor="middle" x="1774.22" y="-330.2" font-family="Times,serif" font-size="14.00">$shr</text>
<polyline fill="none" stroke="black" points="1793.84,-319 1793.84,-368"/>
<text text-anchor="middle" x="1806.72" y="-338.7" font-family="Times,serif" font-size="14.00">Y</text>
</g>
<!-- c34&#45;&gt;n15 -->
<g id="edge68" class="edge">
<title>c34:e&#45;&gt;n15:w</title>
<path fill="none" stroke="black" stroke-width="3" d="M1820.59,-343.75C1832.25,-343.75 1837.63,-343.62 1845.75,-343.55"/>
<polygon fill="black" stroke="black" stroke-width="3" points="1842.57,-347.06 1852.55,-343.52 1842.54,-340.06 1842.57,-347.06"/>
</g>
<!-- x24 -->
<g id="node46" class="node">
<title>x24</title>
<path fill="none" stroke="black" d="M1596.59,-494C1596.59,-494 1679.34,-494 1679.34,-494 1685.34,-494 1691.34,-500 1691.34,-506 1691.34,-506 1691.34,-531 1691.34,-531 1691.34,-537 1685.34,-543 1679.34,-543 1679.34,-543 1596.59,-543 1596.59,-543 1590.59,-543 1584.59,-537 1584.59,-531 1584.59,-531 1584.59,-506 1584.59,-506 1584.59,-500 1590.59,-494 1596.59,-494"/>
<text text-anchor="middle" x="1637.97" y="-525.7" font-family="Times,serif" font-size="14.00">6x 24:24 &#45; 24:19</text>
<polyline fill="none" stroke="black" points="1584.59,-518.5 1691.34,-518.5"/>
<text text-anchor="middle" x="1637.97" y="-501.2" font-family="Times,serif" font-size="14.00">18:0 &#45; 18:0</text>
</g>
<!-- x24&#45;&gt;c34 -->
<g id="edge25" class="edge">
<title>x24:e&#45;&gt;c34:w</title>
<path fill="none" stroke="black" stroke-width="3" d="M1704.06,-516.32C1747.57,-498.44 1671.71,-376.05 1715.01,-357.98"/>
<polygon fill="none" stroke="black" stroke-width="3" points="1705.84,-516.02 1700.6,-520.97 1694.01,-518.04 1699.25,-513.09 1705.84,-516.02"/>
<polygon fill="none" stroke="black" stroke-width="3" points="1713.36,-358.26 1718.58,-353.3 1725.18,-356.21 1719.95,-361.18 1713.36,-358.26"/>
</g>
<!-- x25&#45;&gt;c34 -->
<g id="edge26" class="edge">
<title>x25:e&#45;&gt;c34:w</title>
<path fill="none" stroke="black" stroke-width="3" d="M247.96,-49.56C517.59,-52.07 584.55,-132.5 860.72,-132.5 860.72,-132.5 860.72,-132.5 1503.47,-132.5 1592.73,-132.5 1630.9,-137.82 1691.34,-203.5 1727.89,-243.22 1678.78,-317.06 1715.17,-329.46"/>
<polygon fill="none" stroke="black" stroke-width="3" points="249.67,-49.57 243.65,-53.54 237.67,-49.51 243.69,-45.54 249.67,-49.57"/>
<polygon fill="none" stroke="black" stroke-width="3" points="1713.28,-329.2 1719.78,-326.07 1725.17,-330.87 1718.67,-333.99 1713.28,-329.2"/>
</g>
<!-- x27 -->
<g id="node49" class="node">
<title>x27</title>
<path fill="none" stroke="black" d="M2628.83,-535.5C2628.83,-535.5 2680.83,-535.5 2680.83,-535.5 2686.83,-535.5 2692.83,-541.5 2692.83,-547.5 2692.83,-547.5 2692.83,-559.5 2692.83,-559.5 2692.83,-565.5 2686.83,-571.5 2680.83,-571.5 2680.83,-571.5 2628.83,-571.5 2628.83,-571.5 2622.83,-571.5 2616.83,-565.5 2616.83,-559.5 2616.83,-559.5 2616.83,-547.5 2616.83,-547.5 2616.83,-541.5 2622.83,-535.5 2628.83,-535.5"/>
<text text-anchor="middle" x="2654.83" y="-548.7" font-family="Times,serif" font-size="14.00">12:0 &#45; 15:3</text>
</g>
<!-- x26&#45;&gt;x27 -->
<g id="edge27" class="edge">
<title>x26:e&#45;&gt;x27:w</title>
<path fill="none" stroke="black" stroke-width="3" d="M2585.49,-555.98C2591.86,-555.43 2596.73,-554.56 2603.12,-554.02"/>
<polygon fill="none" stroke="black" stroke-width="3" points="2587.4,-555.9 2581.56,-560.14 2575.41,-556.39 2581.24,-552.15 2587.4,-555.9"/>
<polygon fill="none" stroke="black" stroke-width="3" points="2601.14,-554.1 2606.97,-549.86 2613.13,-553.61 2607.29,-557.85 2601.14,-554.1"/>
</g>
<!-- x27&#45;&gt;n5 -->
<g id="edge89" class="edge">
<title>x27:e&#45;&gt;n5:w</title>
<path fill="none" stroke="black" stroke-width="3" d="M2693.83,-553.75C2723.42,-553.75 2731.49,-538.25 2755.7,-534.37"/>
<polygon fill="black" stroke="black" stroke-width="3" points="2752.94,-538.09 2762.65,-533.84 2752.41,-531.11 2752.94,-538.09"/>
</g>
<!-- x28 -->
<g id="node50" class="node">
<title>x28</title>
<path fill="none" stroke="black" d="M1603.34,-562.5C1603.34,-562.5 1672.59,-562.5 1672.59,-562.5 1678.59,-562.5 1684.59,-568.5 1684.59,-574.5 1684.59,-574.5 1684.59,-586.5 1684.59,-586.5 1684.59,-592.5 1678.59,-598.5 1672.59,-598.5 1672.59,-598.5 1603.34,-598.5 1603.34,-598.5 1597.34,-598.5 1591.34,-592.5 1591.34,-586.5 1591.34,-586.5 1591.34,-574.5 1591.34,-574.5 1591.34,-568.5 1597.34,-562.5 1603.34,-562.5"/>
<text text-anchor="middle" x="1637.97" y="-575.7" font-family="Times,serif" font-size="14.00">5x 24:24 &#45; 4:0</text>
</g>
<!-- x29 -->
<g id="node51" class="node">
<title>x29</title>
<path fill="none" stroke="black" d="M1748.22,-586.5C1748.22,-586.5 1800.22,-586.5 1800.22,-586.5 1806.22,-586.5 1812.22,-592.5 1812.22,-598.5 1812.22,-598.5 1812.22,-610.5 1812.22,-610.5 1812.22,-616.5 1806.22,-622.5 1800.22,-622.5 1800.22,-622.5 1748.22,-622.5 1748.22,-622.5 1742.22,-622.5 1736.22,-616.5 1736.22,-610.5 1736.22,-610.5 1736.22,-598.5 1736.22,-598.5 1736.22,-592.5 1742.22,-586.5 1748.22,-586.5"/>
<text text-anchor="middle" x="1774.22" y="-599.7" font-family="Times,serif" font-size="14.00">4:0 &#45; 23:19</text>
</g>
<!-- x28&#45;&gt;x29 -->
<g id="edge28" class="edge">
<title>x28:e&#45;&gt;x29:w</title>
<path fill="none" stroke="black" stroke-width="3" d="M1697.97,-583.07C1707.89,-587.66 1712.85,-597.24 1722.73,-601.88"/>
<polygon fill="none" stroke="black" stroke-width="3" points="1699.99,-583.49 1693.3,-586.19 1688.24,-581.05 1694.93,-578.35 1699.99,-583.49"/>
<polygon fill="none" stroke="black" stroke-width="3" points="1720.83,-601.48 1727.52,-598.8 1732.57,-603.94 1725.88,-606.63 1720.83,-601.48"/>
</g>
<!-- x29&#45;&gt;n10 -->
<g id="edge34" class="edge">
<title>x29:e&#45;&gt;n10:w</title>
<path fill="none" stroke="black" stroke-width="3" d="M1813.22,-604.75C1821.34,-604.75 1818.12,-617.42 1812.22,-623 1787.69,-646.22 1769.96,-624.61 1736.22,-623 1668.6,-619.77 1647.45,-633.62 1584.59,-608.5 1544.47,-592.46 1469.59,-551.05 1487.96,-542.19"/>
<polygon fill="black" stroke="black" stroke-width="3" points="1485.33,-546.12 1494.7,-541.17 1484.29,-539.2 1485.33,-546.12"/>
</g>
<!-- v30 -->
<g id="node52" class="node">
<title>v30</title>
<ellipse fill="none" stroke="black" cx="2893.86" cy="-752.5" rx="53.91" ry="18"/>
<text text-anchor="middle" x="2893.86" y="-747.45" font-family="Times,serif" font-size="14.00">8&#39;00000000</text>
</g>
<!-- x31 -->
<g id="node53" class="node">
<title>x31</title>
<path fill="none" stroke="black" d="M3001.65,-732.5C3001.65,-732.5 3053.65,-732.5 3053.65,-732.5 3059.65,-732.5 3065.65,-738.5 3065.65,-744.5 3065.65,-744.5 3065.65,-756.5 3065.65,-756.5 3065.65,-762.5 3059.65,-768.5 3053.65,-768.5 3053.65,-768.5 3001.65,-768.5 3001.65,-768.5 2995.65,-768.5 2989.65,-762.5 2989.65,-756.5 2989.65,-756.5 2989.65,-744.5 2989.65,-744.5 2989.65,-738.5 2995.65,-732.5 3001.65,-732.5"/>
<text text-anchor="middle" x="3027.65" y="-745.7" font-family="Times,serif" font-size="14.00">7:0 &#45; 23:16</text>
</g>
<!-- v30&#45;&gt;x31 -->
<g id="edge95" class="edge">
<title>v30:e&#45;&gt;x31:w</title>
<path fill="none" stroke="black" stroke-width="3" d="M2947.77,-752.5C2961.42,-752.5 2967.36,-751.38 2977.15,-750.81"/>
<polygon fill="black" stroke="black" stroke-width="3" points="2974.21,-754.39 2984.11,-750.62 2974.02,-747.4 2974.21,-754.39"/>
</g>
<!-- x31&#45;&gt;n12 -->
<g id="edge55" class="edge">
<title>x31:e&#45;&gt;n12:w</title>
<path fill="none" stroke="black" stroke-width="3" d="M3066.65,-750.75C3084.45,-750.75 3085.65,-732.18 3096.71,-724.63"/>
<polygon fill="black" stroke="black" stroke-width="3" points="3094.53,-728.9 3103.16,-722.76 3092.58,-722.18 3094.53,-728.9"/>
</g>
<!-- x33 -->
<g id="node55" class="node">
<title>x33</title>
<path fill="none" stroke="black" d="M973.09,-328.5C973.09,-328.5 1025.09,-328.5 1025.09,-328.5 1031.09,-328.5 1037.09,-334.5 1037.09,-340.5 1037.09,-340.5 1037.09,-352.5 1037.09,-352.5 1037.09,-358.5 1031.09,-364.5 1025.09,-364.5 1025.09,-364.5 973.09,-364.5 973.09,-364.5 967.09,-364.5 961.09,-358.5 961.09,-352.5 961.09,-352.5 961.09,-340.5 961.09,-340.5 961.09,-334.5 967.09,-328.5 973.09,-328.5"/>
<text text-anchor="middle" x="999.09" y="-341.7" font-family="Times,serif" font-size="14.00">18:0 &#45; 23:5</text>
</g>
<!-- x32&#45;&gt;x33 -->
<g id="edge29" class="edge">
<title>x32:e&#45;&gt;x33:w</title>
<path fill="none" stroke="black" stroke-width="3" d="M927.43,-326.51C935.38,-330.89 939.71,-338.99 947.62,-343.42"/>
<polygon fill="none" stroke="black" stroke-width="3" points="929.38,-326.98 922.6,-329.45 917.72,-324.14 924.5,-321.67 929.38,-326.98"/>
<polygon fill="none" stroke="black" stroke-width="3" points="945.82,-342.97 952.6,-340.53 957.47,-345.85 950.68,-348.3 945.82,-342.97"/>
</g>
<!-- x33&#45;&gt;n13 -->
<g id="edge58" class="edge">
<title>x33:e&#45;&gt;n13:w</title>
<path fill="none" stroke="black" stroke-width="3" d="M1038.09,-346.75C1046.22,-346.75 1042.99,-359.42 1037.09,-365 1012.56,-388.22 994.85,-366.32 961.09,-365 827.18,-359.77 754.16,-437.33 660.47,-341.5 658.63,-339.62 657.03,-337.04 655.99,-334.41"/>
<polygon fill="black" stroke="black" stroke-width="3" points="658.38,-338.42 658.09,-327.83 651.71,-336.29 658.38,-338.42"/>
</g>
<!-- x34 -->
<g id="node56" class="node">
<title>x34</title>
<path fill="none" stroke="black" d="M1339.09,-305C1339.09,-305 1408.34,-305 1408.34,-305 1414.34,-305 1420.34,-311 1420.34,-317 1420.34,-317 1420.34,-342 1420.34,-342 1420.34,-348 1414.34,-354 1408.34,-354 1408.34,-354 1339.09,-354 1339.09,-354 1333.09,-354 1327.09,-348 1327.09,-342 1327.09,-342 1327.09,-317 1327.09,-317 1327.09,-311 1333.09,-305 1339.09,-305"/>
<text text-anchor="middle" x="1373.72" y="-336.7" font-family="Times,serif" font-size="14.00">0 &#45;&gt; 9:7</text>
<polyline fill="none" stroke="black" points="1327.09,-329.5 1420.34,-329.5"/>
<text text-anchor="middle" x="1373.72" y="-312.2" font-family="Times,serif" font-size="14.00">7x 12:12 &#45; 6:0</text>
</g>
<!-- x35 -->
<g id="node57" class="node">
<title>x35</title>
<path fill="none" stroke="black" d="M1476.47,-305C1476.47,-305 1528.47,-305 1528.47,-305 1534.47,-305 1540.47,-311 1540.47,-317 1540.47,-317 1540.47,-342 1540.47,-342 1540.47,-348 1534.47,-354 1528.47,-354 1528.47,-354 1476.47,-354 1476.47,-354 1470.47,-354 1464.47,-348 1464.47,-342 1464.47,-342 1464.47,-317 1464.47,-317 1464.47,-311 1470.47,-305 1476.47,-305"/>
<text text-anchor="middle" x="1502.47" y="-336.7" font-family="Times,serif" font-size="14.00">9:7 &#45; 15:13</text>
<polyline fill="none" stroke="black" points="1464.47,-329.5 1540.47,-329.5"/>
<text text-anchor="middle" x="1502.47" y="-312.2" font-family="Times,serif" font-size="14.00">6:0 &#45; 11:5</text>
</g>
<!-- x34&#45;&gt;x35 -->
<g id="edge30" class="edge">
<title>x34:e&#45;&gt;x35:w</title>
<path fill="none" stroke="black" stroke-width="3" d="M1433.11,-329.5C1439.49,-329.5 1444.38,-329.5 1450.77,-329.5"/>
<polygon fill="none" stroke="black" stroke-width="3" points="1435.05,-329.5 1429.05,-333.5 1423.05,-329.5 1429.05,-325.5 1435.05,-329.5"/>
<polygon fill="none" stroke="black" stroke-width="3" points="1448.76,-329.5 1454.76,-325.5 1460.76,-329.5 1454.76,-333.5 1448.76,-329.5"/>
</g>
<!-- x35&#45;&gt;n4 -->
<g id="edge80" class="edge">
<title>x35:e&#45;&gt;n4:w</title>
<path fill="none" stroke="black" stroke-width="3" d="M1541.47,-317.25C1547.15,-317.25 1544.47,-308.54 1540.47,-304.5 1495.9,-259.53 1317.2,-308.89 1249.97,-281.77"/>
<polygon fill="black" stroke="black" stroke-width="3" points="1254.33,-280.09 1243.84,-278.59 1251.11,-286.31 1254.33,-280.09"/>
</g>
<!-- x35&#45;&gt;n4 -->
<g id="edge81" class="edge">
<title>x35:e&#45;&gt;n4:w</title>
<path fill="none" stroke="black" stroke-width="3" d="M1541.47,-341.75C1547.15,-341.75 1544.49,-350.49 1540.47,-354.5 1473.23,-421.5 1414.9,-399.55 1327.09,-363.5 1307.8,-355.58 1251.37,-309.25 1237.67,-287.62"/>
<polygon fill="black" stroke="black" stroke-width="3" points="1240.5,-291.44 1238.96,-280.96 1233.63,-290.12 1240.5,-291.44"/>
</g>
<!-- v36 -->
<g id="node58" class="node">
<title>v36</title>
<ellipse fill="none" stroke="black" cx="2168.65" cy="-628.5" rx="49.3" ry="18"/>
<text text-anchor="middle" x="2168.65" y="-623.45" font-family="Times,serif" font-size="14.00">7&#39;0000000</text>
</g>
<!-- x37 -->
<g id="node59" class="node">
<title>x37</title>
<path fill="none" stroke="black" d="M2265.95,-610.5C2265.95,-610.5 2311.2,-610.5 2311.2,-610.5 2317.2,-610.5 2323.2,-616.5 2323.2,-622.5 2323.2,-622.5 2323.2,-634.5 2323.2,-634.5 2323.2,-640.5 2317.2,-646.5 2311.2,-646.5 2311.2,-646.5 2265.95,-646.5 2265.95,-646.5 2259.95,-646.5 2253.95,-640.5 2253.95,-634.5 2253.95,-634.5 2253.95,-622.5 2253.95,-622.5 2253.95,-616.5 2259.95,-610.5 2265.95,-610.5"/>
<text text-anchor="middle" x="2288.58" y="-623.7" font-family="Times,serif" font-size="14.00">6:0 &#45; 15:9</text>
</g>
<!-- v36&#45;&gt;x37 -->
<g id="edge96" class="edge">
<title>v36:e&#45;&gt;x37:w</title>
<path fill="none" stroke="black" stroke-width="3" d="M2217.95,-628.5C2229.33,-628.5 2234.64,-628.5 2242.51,-628.5"/>
<polygon fill="black" stroke="black" stroke-width="3" points="2239.41,-632 2249.41,-628.5 2239.41,-625 2239.41,-632"/>
</g>
<!-- x37&#45;&gt;n16 -->
<g id="edge73" class="edge">
<title>x37:e&#45;&gt;n16:w</title>
<path fill="none" stroke="black" stroke-width="3" d="M2323.2,-628.75C2334.58,-628.75 2339.89,-628.62 2347.76,-628.55"/>
<polygon fill="black" stroke="black" stroke-width="3" points="2344.68,-632.06 2354.66,-628.52 2344.65,-625.06 2344.68,-632.06"/>
</g>
<!-- n10&#45;&gt;x24 -->
<g id="edge35" class="edge">
<title>n10:e&#45;&gt;x24:w</title>
<path fill="none" stroke="black" stroke-width="3" d="M1505.75,-540.5C1539.77,-540.5 1545.43,-513.33 1573.25,-507.39"/>
<polygon fill="black" stroke="black" stroke-width="3" points="1570.47,-511.19 1580.08,-506.7 1569.78,-504.22 1570.47,-511.19"/>
</g>
<!-- n10&#45;&gt;x24 -->
<g id="edge36" class="edge">
<title>n10:e&#45;&gt;x24:w</title>
<path fill="none" stroke="black" stroke-width="3" d="M1505.75,-540.5C1536.92,-540.5 1546.98,-532.9 1573.21,-531.12"/>
<polygon fill="black" stroke="black" stroke-width="3" points="1570.17,-534.72 1580.05,-530.9 1569.95,-527.72 1570.17,-534.72"/>
</g>
<!-- n10&#45;&gt;x28 -->
<g id="edge37" class="edge">
<title>n10:e&#45;&gt;x28:w</title>
<path fill="none" stroke="black" stroke-width="3" d="M1505.75,-540.5C1543.32,-540.5 1548.06,-573.27 1579.22,-579.67"/>
<polygon fill="black" stroke="black" stroke-width="3" points="1575.53,-582.83 1585.82,-580.31 1576.21,-575.86 1575.53,-582.83"/>
</g>
<!-- n4&#45;&gt;x1 -->
<g id="edge84" class="edge">
<title>n4:e&#45;&gt;x1:w</title>
<path fill="none" stroke="black" stroke-width="3" d="M1246.37,-276.5C1309.55,-276.5 1271.16,-364.13 1327.09,-393.5 1363.79,-412.76 1379.17,-398.25 1420.34,-393.5 1478.5,-386.79 1505.28,-402.88 1548.59,-363.5 1584.9,-330.48 1541.84,-262.02 1575.88,-251.01"/>
<polygon fill="black" stroke="black" stroke-width="3" points="1573.03,-254.93 1582.47,-250.11 1572.09,-247.99 1573.03,-254.93"/>
</g>
<!-- n4&#45;&gt;x7 -->
<g id="edge86" class="edge">
<title>n4:e&#45;&gt;x7:w</title>
<path fill="none" stroke="black" stroke-width="3" d="M1246.37,-276.5C1290.99,-276.5 1287.07,-221.98 1323.35,-212.61"/>
<polygon fill="black" stroke="black" stroke-width="3" points="1320.7,-216.46 1330.21,-211.79 1319.86,-209.51 1320.7,-216.46"/>
</g>
<!-- n4&#45;&gt;x7 -->
<g id="edge87" class="edge">
<title>n4:e&#45;&gt;x7:w</title>
<path fill="none" stroke="black" d="M1246.37,-276.5C1285.56,-276.5 1290.76,-243.03 1323.58,-236.76"/>
<polygon fill="black" stroke="black" points="1323.57,-240.27 1333.21,-235.89 1322.94,-233.3 1323.57,-240.27"/>
</g>
<!-- n4&#45;&gt;x34 -->
<g id="edge85" class="edge">
<title>n4:e&#45;&gt;x34:w</title>
<path fill="none" stroke="black" stroke-width="3" d="M1246.37,-276.5C1282.48,-276.5 1286.42,-309.39 1316,-316.07"/>
<polygon fill="black" stroke="black" stroke-width="3" points="1312.26,-319.2 1322.58,-316.77 1313,-312.24 1312.26,-319.2"/>
</g>
<!-- n5&#45;&gt;x11 -->
<g id="edge90" class="edge">
<title>n5:e&#45;&gt;x11:w</title>
<path fill="none" stroke="black" stroke-width="3" d="M2773.73,-533.5C2808.67,-533.5 2820.17,-533.7 2850.16,-533.74"/>
<polygon fill="black" stroke="black" stroke-width="3" points="2847.07,-537.24 2857.07,-533.75 2847.08,-530.24 2847.07,-537.24"/>
</g>
</g>
</svg>
