<?xml version="1.0" encoding="UTF-8" standalone="no"?>
<!DOCTYPE svg PUBLIC "-//W3C//DTD SVG 1.1//EN"
 "http://www.w3.org/Graphics/SVG/1.1/DTD/svg11.dtd">
<!-- Generated by graphviz version 12.2.1 (20241206.2353)
 -->
<!-- Title: top Pages: 1 -->
<svg width="1522pt" height="220pt"
 viewBox="0.00 0.00 1522.16 219.50" xmlns="http://www.w3.org/2000/svg" xmlns:xlink="http://www.w3.org/1999/xlink">
<g id="graph0" class="graph" transform="scale(1 1) rotate(0) translate(4 215.5)">
<title>top</title>
<polygon fill="white" stroke="none" points="-4,4 -4,-215.5 1518.16,-215.5 1518.16,4 -4,4"/>
<text text-anchor="middle" x="757.08" y="-7.2" font-family="Times,serif" font-size="14.00">top</text>
<!-- n1 -->
<g id="node1" class="node">
<title>n1</title>
<polygon fill="none" stroke="black" points="107.84,-119.04 107.84,-133.96 76.26,-144.5 31.59,-144.5 0,-133.96 0,-119.04 31.59,-108.5 76.26,-108.5 107.84,-119.04"/>
<text text-anchor="middle" x="53.92" y="-121.45" font-family="Times,serif" font-size="14.00">input_data</text>
</g>
<!-- c9 -->
<g id="node6" class="node">
<title>c9</title>
<polygon fill="none" stroke="black" points="143.84,-102 143.84,-151 237.59,-151 237.59,-102 143.84,-102"/>
<text text-anchor="middle" x="156.72" y="-133.7" font-family="Times,serif" font-size="14.00">A</text>
<polyline fill="none" stroke="black" points="143.84,-126.5 169.59,-126.5"/>
<text text-anchor="middle" x="156.72" y="-109.2" font-family="Times,serif" font-size="14.00">B</text>
<polyline fill="none" stroke="black" points="169.59,-102 169.59,-151"/>
<text text-anchor="middle" x="190.72" y="-129.7" font-family="Times,serif" font-size="14.00">$2</text>
<text text-anchor="middle" x="190.72" y="-113.2" font-family="Times,serif" font-size="14.00">$add</text>
<polyline fill="none" stroke="black" points="211.84,-102 211.84,-151"/>
<text text-anchor="middle" x="224.72" y="-121.7" font-family="Times,serif" font-size="14.00">Y</text>
</g>
<!-- n1&#45;&gt;c9 -->
<g id="edge7" class="edge">
<title>n1:e&#45;&gt;c9:w</title>
<path fill="none" stroke="black" stroke-width="3" d="M107.84,-126.5C120.12,-126.5 124.64,-132.97 132.67,-136.5"/>
<polygon fill="black" stroke="black" stroke-width="3" points="128.9,-139.31 139.39,-137.85 130.28,-132.45 128.9,-139.31"/>
</g>
<!-- n1&#45;&gt;c9 -->
<g id="edge8" class="edge">
<title>n1:e&#45;&gt;c9:w</title>
<path fill="none" stroke="black" stroke-width="3" d="M107.84,-126.5C120.12,-126.5 124.64,-120.03 132.67,-116.5"/>
<polygon fill="black" stroke="black" stroke-width="3" points="130.28,-120.55 139.39,-115.15 128.9,-113.69 130.28,-120.55"/>
</g>
<!-- c11 -->
<g id="node8" class="node">
<title>c11</title>
<polygon fill="none" stroke="black" points="1266.59,-160 1266.59,-209 1360.34,-209 1360.34,-160 1266.59,-160"/>
<text text-anchor="middle" x="1279.47" y="-191.7" font-family="Times,serif" font-size="14.00">A</text>
<polyline fill="none" stroke="black" points="1266.59,-184.5 1292.34,-184.5"/>
<text text-anchor="middle" x="1279.47" y="-167.2" font-family="Times,serif" font-size="14.00">B</text>
<polyline fill="none" stroke="black" points="1292.34,-160 1292.34,-209"/>
<text text-anchor="middle" x="1313.47" y="-187.7" font-family="Times,serif" font-size="14.00">$11</text>
<text text-anchor="middle" x="1313.47" y="-171.2" font-family="Times,serif" font-size="14.00">$add</text>
<polyline fill="none" stroke="black" points="1334.59,-160 1334.59,-209"/>
<text text-anchor="middle" x="1347.47" y="-179.7" font-family="Times,serif" font-size="14.00">Y</text>
</g>
<!-- n1&#45;&gt;c11 -->
<g id="edge5" class="edge">
<title>n1:e&#45;&gt;c11:w</title>
<path fill="none" stroke="black" stroke-width="3" d="M107.84,-126.5C129.85,-126.5 124.67,-149.69 143.84,-160.5 217.75,-202.19 242.98,-211.5 327.84,-211.5 327.84,-211.5 327.84,-211.5 1077.84,-211.5 1158.04,-211.5 1180.39,-198.1 1255.17,-196.84"/>
<polygon fill="black" stroke="black" stroke-width="3" points="1252.08,-200.37 1262.05,-196.79 1252.02,-193.37 1252.08,-200.37"/>
</g>
<!-- c12 -->
<g id="node10" class="node">
<title>c12</title>
<polygon fill="none" stroke="black" points="794.84,-35 794.84,-84 887.09,-84 887.09,-35 794.84,-35"/>
<text text-anchor="middle" x="807.72" y="-66.7" font-family="Times,serif" font-size="14.00">A</text>
<polyline fill="none" stroke="black" points="794.84,-59.5 820.59,-59.5"/>
<text text-anchor="middle" x="807.72" y="-42.2" font-family="Times,serif" font-size="14.00">B</text>
<polyline fill="none" stroke="black" points="820.59,-35 820.59,-84"/>
<text text-anchor="middle" x="840.97" y="-62.7" font-family="Times,serif" font-size="14.00">$19</text>
<text text-anchor="middle" x="840.97" y="-46.2" font-family="Times,serif" font-size="14.00">$xor</text>
<polyline fill="none" stroke="black" points="861.34,-35 861.34,-84"/>
<text text-anchor="middle" x="874.22" y="-54.7" font-family="Times,serif" font-size="14.00">Y</text>
</g>
<!-- n1&#45;&gt;c12 -->
<g id="edge6" class="edge">
<title>n1:e&#45;&gt;c12:w</title>
<path fill="none" stroke="black" stroke-width="3" d="M107.84,-126.5C129.85,-126.5 125.14,-104.1 143.84,-92.5 217.92,-46.53 240.66,-24.5 327.84,-24.5 327.84,-24.5 327.84,-24.5 606.09,-24.5 615.29,-24.5 743.67,-41.76 783.6,-46.21"/>
<polygon fill="black" stroke="black" stroke-width="3" points="780.04,-49.4 790.32,-46.83 780.69,-42.43 780.04,-49.4"/>
</g>
<!-- n2 -->
<g id="node2" class="node">
<title>n2</title>
<polygon fill="none" stroke="black" points="1514.16,-177.04 1514.16,-191.96 1479.65,-202.5 1430.85,-202.5 1396.34,-191.96 1396.34,-177.04 1430.85,-166.5 1479.65,-166.5 1514.16,-177.04"/>
<text text-anchor="middle" x="1455.25" y="-179.45" font-family="Times,serif" font-size="14.00">output_data</text>
</g>
<!-- n3 -->
<g id="node3" class="node">
<title>n3</title>
<polygon fill="none" stroke="black" points="328.84,-144.5 273.59,-126.5 328.84,-108.5 384.09,-126.5 328.84,-144.5"/>
<text text-anchor="middle" x="328.84" y="-121.45" font-family="Times,serif" font-size="14.00">temp_1</text>
</g>
<!-- c10 -->
<g id="node7" class="node">
<title>c10</title>
<polygon fill="none" stroke="black" points="420.09,-102 420.09,-151 513.84,-151 513.84,-102 420.09,-102"/>
<text text-anchor="middle" x="432.97" y="-133.7" font-family="Times,serif" font-size="14.00">A</text>
<polyline fill="none" stroke="black" points="420.09,-126.5 445.84,-126.5"/>
<text text-anchor="middle" x="432.97" y="-109.2" font-family="Times,serif" font-size="14.00">B</text>
<polyline fill="none" stroke="black" points="445.84,-102 445.84,-151"/>
<text text-anchor="middle" x="466.97" y="-129.7" font-family="Times,serif" font-size="14.00">$3</text>
<text text-anchor="middle" x="466.97" y="-113.2" font-family="Times,serif" font-size="14.00">$add</text>
<polyline fill="none" stroke="black" points="488.09,-102 488.09,-151"/>
<text text-anchor="middle" x="500.97" y="-121.7" font-family="Times,serif" font-size="14.00">Y</text>
</g>
<!-- n3&#45;&gt;c10 -->
<g id="edge11" class="edge">
<title>n3:e&#45;&gt;c10:w</title>
<path fill="none" stroke="black" stroke-width="3" d="M384.09,-126.5C396.37,-126.5 400.89,-132.97 408.92,-136.5"/>
<polygon fill="black" stroke="black" stroke-width="3" points="405.15,-139.31 415.64,-137.85 406.53,-132.45 405.15,-139.31"/>
</g>
<!-- n3&#45;&gt;c10 -->
<g id="edge12" class="edge">
<title>n3:e&#45;&gt;c10:w</title>
<path fill="none" stroke="black" stroke-width="3" d="M384.09,-126.5C396.37,-126.5 400.89,-120.03 408.92,-116.5"/>
<polygon fill="black" stroke="black" stroke-width="3" points="406.53,-120.55 415.64,-115.15 405.15,-113.69 406.53,-120.55"/>
</g>
<!-- n4 -->
<g id="node4" class="node">
<title>n4</title>
<polygon fill="none" stroke="black" points="605.09,-144.5 549.84,-126.5 605.09,-108.5 660.34,-126.5 605.09,-144.5"/>
<text text-anchor="middle" x="605.09" y="-121.45" font-family="Times,serif" font-size="14.00">temp_2</text>
</g>
<!-- x0 -->
<g id="node9" class="node">
<title>x0</title>
<path fill="none" stroke="black" d="M1180.09,-134C1180.09,-134 1218.59,-134 1218.59,-134 1224.59,-134 1230.59,-140 1230.59,-146 1230.59,-146 1230.59,-171 1230.59,-171 1230.59,-177 1224.59,-183 1218.59,-183 1218.59,-183 1180.09,-183 1180.09,-183 1174.09,-183 1168.09,-177 1168.09,-171 1168.09,-171 1168.09,-146 1168.09,-146 1168.09,-140 1174.09,-134 1180.09,-134"/>
<text text-anchor="middle" x="1199.34" y="-165.7" font-family="Times,serif" font-size="14.00">4:4 &#45; 4:4</text>
<polyline fill="none" stroke="black" points="1168.09,-158.5 1230.59,-158.5"/>
<text text-anchor="middle" x="1199.34" y="-141.2" font-family="Times,serif" font-size="14.00">3:0 &#45; 3:0</text>
</g>
<!-- n4&#45;&gt;x0 -->
<g id="edge14" class="edge">
<title>n4:e&#45;&gt;x0:w</title>
<path fill="none" stroke="black" d="M660.34,-126.5C680.61,-126.5 677.64,-146.68 696.34,-154.5 755.74,-179.35 775.58,-173.5 839.97,-173.5 839.97,-173.5 839.97,-173.5 955.34,-173.5 1046.03,-173.5 1071.47,-170.97 1156.81,-170.76"/>
<polygon fill="black" stroke="black" points="1156.58,-174.26 1166.58,-170.75 1156.58,-167.26 1156.58,-174.26"/>
</g>
<!-- x1 -->
<g id="node11" class="node">
<title>x1</title>
<path fill="none" stroke="black" d="M708.34,-53.5C708.34,-53.5 746.84,-53.5 746.84,-53.5 752.84,-53.5 758.84,-59.5 758.84,-65.5 758.84,-65.5 758.84,-77.5 758.84,-77.5 758.84,-83.5 752.84,-89.5 746.84,-89.5 746.84,-89.5 708.34,-89.5 708.34,-89.5 702.34,-89.5 696.34,-83.5 696.34,-77.5 696.34,-77.5 696.34,-65.5 696.34,-65.5 696.34,-59.5 702.34,-53.5 708.34,-53.5"/>
<text text-anchor="middle" x="727.59" y="-66.7" font-family="Times,serif" font-size="14.00">3:0 &#45; 3:0</text>
</g>
<!-- n4&#45;&gt;x1 -->
<g id="edge15" class="edge">
<title>n4:e&#45;&gt;x1:w</title>
<path fill="none" stroke="black" stroke-width="3" d="M660.34,-126.5C684.69,-126.5 673.14,-88.24 685.7,-75.69"/>
<polygon fill="black" stroke="black" stroke-width="3" points="683.92,-80.08 692.08,-73.33 681.49,-73.51 683.92,-80.08"/>
</g>
<!-- x3 -->
<g id="node13" class="node">
<title>x3</title>
<path fill="none" stroke="black" d="M708.34,-108.5C708.34,-108.5 746.84,-108.5 746.84,-108.5 752.84,-108.5 758.84,-114.5 758.84,-120.5 758.84,-120.5 758.84,-132.5 758.84,-132.5 758.84,-138.5 752.84,-144.5 746.84,-144.5 746.84,-144.5 708.34,-144.5 708.34,-144.5 702.34,-144.5 696.34,-138.5 696.34,-132.5 696.34,-132.5 696.34,-120.5 696.34,-120.5 696.34,-114.5 702.34,-108.5 708.34,-108.5"/>
<text text-anchor="middle" x="727.59" y="-121.7" font-family="Times,serif" font-size="14.00">4:4 &#45; 0:0</text>
</g>
<!-- n4&#45;&gt;x3 -->
<g id="edge16" class="edge">
<title>n4:e&#45;&gt;x3:w</title>
<path fill="none" stroke="black" d="M660.34,-126.5C671.72,-126.5 677.03,-126.63 684.9,-126.7"/>
<polygon fill="black" stroke="black" points="684.81,-130.2 694.83,-126.74 684.85,-123.2 684.81,-130.2"/>
</g>
<!-- n5 -->
<g id="node5" class="node">
<title>n5</title>
<polygon fill="none" stroke="black" points="1076.84,-144.5 1021.59,-126.5 1076.84,-108.5 1132.09,-126.5 1076.84,-144.5"/>
<text text-anchor="middle" x="1076.84" y="-121.45" font-family="Times,serif" font-size="14.00">temp_4</text>
</g>
<!-- n5&#45;&gt;x0 -->
<g id="edge19" class="edge">
<title>n5:e&#45;&gt;x0:w</title>
<path fill="none" stroke="black" stroke-width="3" d="M1132.09,-126.5C1145.64,-126.5 1148.86,-137.38 1157.08,-142.99"/>
<polygon fill="black" stroke="black" stroke-width="3" points="1153.16,-145.48 1163.74,-144.96 1155.14,-138.77 1153.16,-145.48"/>
</g>
<!-- c9&#45;&gt;n3 -->
<g id="edge10" class="edge">
<title>c9:e&#45;&gt;n3:w</title>
<path fill="none" stroke="black" stroke-width="3" d="M237.59,-126.75C248.97,-126.75 254.28,-126.62 262.14,-126.55"/>
<polygon fill="black" stroke="black" stroke-width="3" points="259.07,-130.06 269.05,-126.52 259.03,-123.06 259.07,-130.06"/>
</g>
<!-- c10&#45;&gt;n4 -->
<g id="edge13" class="edge">
<title>c10:e&#45;&gt;n4:w</title>
<path fill="none" stroke="black" stroke-width="3" d="M513.84,-126.75C525.22,-126.75 530.53,-126.62 538.4,-126.55"/>
<polygon fill="black" stroke="black" stroke-width="3" points="535.32,-130.06 545.3,-126.52 535.29,-123.06 535.32,-130.06"/>
</g>
<!-- c11&#45;&gt;n2 -->
<g id="edge9" class="edge">
<title>c11:e&#45;&gt;n2:w</title>
<path fill="none" stroke="black" stroke-width="3" d="M1360.34,-184.75C1371.72,-184.75 1377.03,-184.62 1384.9,-184.55"/>
<polygon fill="black" stroke="black" stroke-width="3" points="1381.82,-188.06 1391.8,-184.52 1381.79,-181.06 1381.82,-188.06"/>
</g>
<!-- x0&#45;&gt;c11 -->
<g id="edge1" class="edge">
<title>x0:e&#45;&gt;c11:w</title>
<path fill="none" stroke="black" stroke-width="3" d="M1243.08,-161.69C1247.04,-163.91 1250.18,-166.86 1254.14,-169.08"/>
<polygon fill="none" stroke="black" stroke-width="3" points="1244.84,-162.14 1238.04,-164.53 1233.21,-159.17 1240.02,-156.78 1244.84,-162.14"/>
<polygon fill="none" stroke="black" stroke-width="3" points="1252.34,-168.62 1259.15,-166.23 1263.97,-171.58 1257.17,-173.98 1252.34,-168.62"/>
</g>
<!-- x2 -->
<g id="node12" class="node">
<title>x2</title>
<path fill="none" stroke="black" d="M935.09,-47.5C935.09,-47.5 973.59,-47.5 973.59,-47.5 979.59,-47.5 985.59,-53.5 985.59,-59.5 985.59,-59.5 985.59,-71.5 985.59,-71.5 985.59,-77.5 979.59,-83.5 973.59,-83.5 973.59,-83.5 935.09,-83.5 935.09,-83.5 929.09,-83.5 923.09,-77.5 923.09,-71.5 923.09,-71.5 923.09,-59.5 923.09,-59.5 923.09,-53.5 929.09,-47.5 935.09,-47.5"/>
<text text-anchor="middle" x="954.34" y="-60.7" font-family="Times,serif" font-size="14.00">3:0 &#45; 3:0</text>
</g>
<!-- c12&#45;&gt;x2 -->
<g id="edge3" class="edge">
<title>c12:e&#45;&gt;x2:w</title>
<path fill="none" stroke="black" stroke-width="3" d="M899.86,-61.2C903.55,-62.08 906.72,-63.19 910.41,-64.07"/>
<polygon fill="none" stroke="black" stroke-width="3" points="901.7,-61.41 895.29,-64.71 889.78,-60.06 896.19,-56.76 901.7,-61.41"/>
<polygon fill="none" stroke="black" stroke-width="3" points="908.48,-63.85 914.89,-60.55 920.41,-65.2 914,-68.5 908.48,-63.85"/>
</g>
<!-- x1&#45;&gt;c12 -->
<g id="edge2" class="edge">
<title>x1:e&#45;&gt;c12:w</title>
<path fill="none" stroke="black" stroke-width="3" d="M771.56,-71.56C775.16,-71.6 778.29,-71.65 781.87,-71.68"/>
<polygon fill="none" stroke="black" stroke-width="3" points="773.55,-71.57 767.53,-75.54 761.55,-71.51 767.57,-67.54 773.55,-71.57"/>
<polygon fill="none" stroke="black" stroke-width="3" points="780.14,-71.68 786.16,-67.71 792.14,-71.74 786.12,-75.71 780.14,-71.68"/>
</g>
<!-- x2&#45;&gt;n5 -->
<g id="edge17" class="edge">
<title>x2:e&#45;&gt;n5:w</title>
<path fill="none" stroke="black" stroke-width="3" d="M985.59,-65.75C1012.32,-65.75 996.87,-109.8 1011.08,-122.88"/>
<polygon fill="black" stroke="black" stroke-width="3" points="1006.7,-125.08 1017.3,-125.02 1008.98,-118.46 1006.7,-125.08"/>
</g>
<!-- x4 -->
<g id="node14" class="node">
<title>x4</title>
<path fill="none" stroke="black" d="M935.09,-108.5C935.09,-108.5 973.59,-108.5 973.59,-108.5 979.59,-108.5 985.59,-114.5 985.59,-120.5 985.59,-120.5 985.59,-132.5 985.59,-132.5 985.59,-138.5 979.59,-144.5 973.59,-144.5 973.59,-144.5 935.09,-144.5 935.09,-144.5 929.09,-144.5 923.09,-138.5 923.09,-132.5 923.09,-132.5 923.09,-120.5 923.09,-120.5 923.09,-114.5 929.09,-108.5 935.09,-108.5"/>
<text text-anchor="middle" x="954.34" y="-121.7" font-family="Times,serif" font-size="14.00">0:0 &#45; 4:4</text>
</g>
<!-- x3&#45;&gt;x4 -->
<g id="edge4" class="edge">
<title>x3:e&#45;&gt;x4:w</title>
<path fill="none" stroke="black" d="M771.52,-126.5C830.09,-126.5 851.63,-126.5 910.04,-126.5"/>
<polygon fill="none" stroke="black" points="771.74,-126.5 765.74,-130.5 759.74,-126.5 765.74,-122.5 771.74,-126.5"/>
<polygon fill="none" stroke="black" points="910.19,-126.5 916.19,-122.5 922.19,-126.5 916.19,-130.5 910.19,-126.5"/>
</g>
<!-- x4&#45;&gt;n5 -->
<g id="edge18" class="edge">
<title>x4:e&#45;&gt;n5:w</title>
<path fill="none" stroke="black" d="M985.59,-126.75C996.97,-126.75 1002.28,-126.62 1010.15,-126.55"/>
<polygon fill="black" stroke="black" points="1010.1,-130.05 1020.08,-126.51 1010.06,-123.05 1010.1,-130.05"/>
</g>
</g>
</svg>
