<?xml version="1.0" encoding="UTF-8" standalone="no"?>
<!DOCTYPE svg PUBLIC "-//W3C//DTD SVG 1.1//EN"
 "http://www.w3.org/Graphics/SVG/1.1/DTD/svg11.dtd">
<!-- Generated by graphviz version 12.2.1 (20241206.2353)
 -->
<!-- Title: top Pages: 1 -->
<svg width="1252pt" height="194pt"
 viewBox="0.00 0.00 1251.51 194.00" xmlns="http://www.w3.org/2000/svg" xmlns:xlink="http://www.w3.org/1999/xlink">
<g id="graph0" class="graph" transform="scale(1 1) rotate(0) translate(4 190)">
<title>top</title>
<polygon fill="white" stroke="none" points="-4,4 -4,-190 1247.51,-190 1247.51,4 -4,4"/>
<text text-anchor="middle" x="621.76" y="-7.2" font-family="Times,serif" font-size="14.00">top</text>
<!-- n1 -->
<g id="node1" class="node">
<title>n1</title>
<polygon fill="none" stroke="black" points="107.84,-113.04 107.84,-127.96 76.26,-138.5 31.59,-138.5 0,-127.96 0,-113.04 31.59,-102.5 76.26,-102.5 107.84,-113.04"/>
<text text-anchor="middle" x="53.92" y="-115.45" font-family="Times,serif" font-size="14.00">input_data</text>
</g>
<!-- x0 -->
<g id="node6" class="node">
<title>x0</title>
<path fill="none" stroke="black" d="M155.84,-102.5C155.84,-102.5 194.34,-102.5 194.34,-102.5 200.34,-102.5 206.34,-108.5 206.34,-114.5 206.34,-114.5 206.34,-126.5 206.34,-126.5 206.34,-132.5 200.34,-138.5 194.34,-138.5 194.34,-138.5 155.84,-138.5 155.84,-138.5 149.84,-138.5 143.84,-132.5 143.84,-126.5 143.84,-126.5 143.84,-114.5 143.84,-114.5 143.84,-108.5 149.84,-102.5 155.84,-102.5"/>
<text text-anchor="middle" x="175.09" y="-115.7" font-family="Times,serif" font-size="14.00">1:0 &#45; 1:0</text>
</g>
<!-- n1&#45;&gt;x0 -->
<g id="edge6" class="edge">
<title>n1:e&#45;&gt;x0:w</title>
<path fill="none" stroke="black" stroke-width="3" d="M107.84,-120.5C119.22,-120.5 124.53,-120.63 132.39,-120.7"/>
<polygon fill="black" stroke="black" stroke-width="3" points="129.28,-124.19 139.3,-120.73 129.32,-117.19 129.28,-124.19"/>
</g>
<!-- x1 -->
<g id="node7" class="node">
<title>x1</title>
<path fill="none" stroke="black" d="M155.84,-47.5C155.84,-47.5 194.34,-47.5 194.34,-47.5 200.34,-47.5 206.34,-53.5 206.34,-59.5 206.34,-59.5 206.34,-71.5 206.34,-71.5 206.34,-77.5 200.34,-83.5 194.34,-83.5 194.34,-83.5 155.84,-83.5 155.84,-83.5 149.84,-83.5 143.84,-77.5 143.84,-71.5 143.84,-71.5 143.84,-59.5 143.84,-59.5 143.84,-53.5 149.84,-47.5 155.84,-47.5"/>
<text text-anchor="middle" x="175.09" y="-60.7" font-family="Times,serif" font-size="14.00">1:0 &#45; 1:0</text>
</g>
<!-- n1&#45;&gt;x1 -->
<g id="edge7" class="edge">
<title>n1:e&#45;&gt;x1:w</title>
<path fill="none" stroke="black" stroke-width="3" d="M107.84,-120.5C132.19,-120.5 120.63,-82.24 133.2,-69.69"/>
<polygon fill="black" stroke="black" stroke-width="3" points="131.42,-74.08 139.58,-67.33 128.99,-67.51 131.42,-74.08"/>
</g>
<!-- x2 -->
<g id="node9" class="node">
<title>x2</title>
<path fill="none" stroke="black" d="M269.97,-149.5C269.97,-149.5 308.47,-149.5 308.47,-149.5 314.47,-149.5 320.47,-155.5 320.47,-161.5 320.47,-161.5 320.47,-173.5 320.47,-173.5 320.47,-179.5 314.47,-185.5 308.47,-185.5 308.47,-185.5 269.97,-185.5 269.97,-185.5 263.97,-185.5 257.97,-179.5 257.97,-173.5 257.97,-173.5 257.97,-161.5 257.97,-161.5 257.97,-155.5 263.97,-149.5 269.97,-149.5"/>
<text text-anchor="middle" x="289.22" y="-162.7" font-family="Times,serif" font-size="14.00">1:0 &#45; 1:0</text>
</g>
<!-- n1&#45;&gt;x2 -->
<g id="edge8" class="edge">
<title>n1:e&#45;&gt;x2:w</title>
<path fill="none" stroke="black" stroke-width="3" d="M107.84,-120.5C128.11,-120.5 125.29,-140.33 143.84,-148.5 186.87,-167.45 203.36,-167.82 245.63,-167.76"/>
<polygon fill="black" stroke="black" stroke-width="3" points="242.43,-171.27 252.43,-167.76 242.42,-164.27 242.43,-171.27"/>
</g>
<!-- n2 -->
<g id="node2" class="node">
<title>n2</title>
<polygon fill="none" stroke="black" points="1243.51,-68.04 1243.51,-82.96 1209.01,-93.5 1160.21,-93.5 1125.7,-82.96 1125.7,-68.04 1160.21,-57.5 1209.01,-57.5 1243.51,-68.04"/>
<text text-anchor="middle" x="1184.61" y="-70.45" font-family="Times,serif" font-size="14.00">output_data</text>
</g>
<!-- n3 -->
<g id="node3" class="node">
<title>n3</title>
<polygon fill="none" stroke="black" points="427.34,-121.5 372.09,-103.5 427.34,-85.5 482.59,-103.5 427.34,-121.5"/>
<text text-anchor="middle" x="427.34" y="-98.45" font-family="Times,serif" font-size="14.00">temp_1</text>
</g>
<!-- c9 -->
<g id="node8" class="node">
<title>c9</title>
<polygon fill="none" stroke="black" points="521.02,-131 521.02,-180 614.77,-180 614.77,-131 521.02,-131"/>
<text text-anchor="middle" x="533.9" y="-162.7" font-family="Times,serif" font-size="14.00">A</text>
<polyline fill="none" stroke="black" points="521.02,-155.5 546.77,-155.5"/>
<text text-anchor="middle" x="533.9" y="-138.2" font-family="Times,serif" font-size="14.00">B</text>
<polyline fill="none" stroke="black" points="546.77,-131 546.77,-180"/>
<text text-anchor="middle" x="567.9" y="-158.7" font-family="Times,serif" font-size="14.00">$13</text>
<text text-anchor="middle" x="567.9" y="-142.2" font-family="Times,serif" font-size="14.00">$and</text>
<polyline fill="none" stroke="black" points="589.02,-131 589.02,-180"/>
<text text-anchor="middle" x="601.9" y="-150.7" font-family="Times,serif" font-size="14.00">Y</text>
</g>
<!-- n3&#45;&gt;c9 -->
<g id="edge12" class="edge">
<title>n3:e&#45;&gt;c9:w</title>
<path fill="none" stroke="black" stroke-width="3" d="M482.59,-103.5C502.12,-103.5 498.74,-129.24 509.32,-139.29"/>
<polygon fill="black" stroke="black" stroke-width="3" points="505.17,-141.49 515.76,-141.67 507.6,-134.92 505.17,-141.49"/>
</g>
<!-- c10 -->
<g id="node11" class="node">
<title>c10</title>
<polygon fill="none" stroke="black" points="996.7,-51 996.7,-100 1089.7,-100 1089.7,-51 996.7,-51"/>
<text text-anchor="middle" x="1009.58" y="-82.7" font-family="Times,serif" font-size="14.00">A</text>
<polyline fill="none" stroke="black" points="996.7,-75.5 1022.45,-75.5"/>
<text text-anchor="middle" x="1009.58" y="-58.2" font-family="Times,serif" font-size="14.00">B</text>
<polyline fill="none" stroke="black" points="1022.45,-51 1022.45,-100"/>
<text text-anchor="middle" x="1043.2" y="-78.7" font-family="Times,serif" font-size="14.00">$10</text>
<text text-anchor="middle" x="1043.2" y="-62.2" font-family="Times,serif" font-size="14.00">$sub</text>
<polyline fill="none" stroke="black" points="1063.95,-51 1063.95,-100"/>
<text text-anchor="middle" x="1076.83" y="-70.7" font-family="Times,serif" font-size="14.00">Y</text>
</g>
<!-- n3&#45;&gt;c10 -->
<g id="edge11" class="edge">
<title>n3:e&#45;&gt;c10:w</title>
<path fill="none" stroke="black" stroke-width="3" d="M482.59,-103.5C571.86,-103.5 594.18,-102.5 683.45,-102.5 683.45,-102.5 683.45,-102.5 807.95,-102.5 888.15,-102.5 910.5,-89.1 985.28,-87.84"/>
<polygon fill="black" stroke="black" stroke-width="3" points="982.19,-91.37 992.16,-87.79 982.13,-84.37 982.19,-91.37"/>
</g>
<!-- n4 -->
<g id="node4" class="node">
<title>n4</title>
<polygon fill="none" stroke="black" points="806.95,-64.5 751.7,-46.5 806.95,-28.5 862.2,-46.5 806.95,-64.5"/>
<text text-anchor="middle" x="806.95" y="-41.45" font-family="Times,serif" font-size="14.00">temp_9</text>
</g>
<!-- x4 -->
<g id="node12" class="node">
<title>x4</title>
<path fill="none" stroke="black" d="M910.2,-25C910.2,-25 948.7,-25 948.7,-25 954.7,-25 960.7,-31 960.7,-37 960.7,-37 960.7,-62 960.7,-62 960.7,-68 954.7,-74 948.7,-74 948.7,-74 910.2,-74 910.2,-74 904.2,-74 898.2,-68 898.2,-62 898.2,-62 898.2,-37 898.2,-37 898.2,-31 904.2,-25 910.2,-25"/>
<text text-anchor="middle" x="929.45" y="-56.7" font-family="Times,serif" font-size="14.00">0 &#45;&gt; 8:2</text>
<polyline fill="none" stroke="black" points="898.2,-49.5 960.7,-49.5"/>
<text text-anchor="middle" x="929.45" y="-32.2" font-family="Times,serif" font-size="14.00">1:0 &#45; 1:0</text>
</g>
<!-- n4&#45;&gt;x4 -->
<g id="edge15" class="edge">
<title>n4:e&#45;&gt;x4:w</title>
<path fill="none" stroke="black" stroke-width="3" d="M862.2,-46.5C874.07,-46.5 878.94,-41.72 886.88,-39.03"/>
<polygon fill="black" stroke="black" stroke-width="3" points="884.38,-42.97 893.72,-37.96 883.29,-36.05 884.38,-42.97"/>
</g>
<!-- c8 -->
<g id="node5" class="node">
<title>c8</title>
<polygon fill="none" stroke="black" points="242.34,-79 242.34,-128 336.09,-128 336.09,-79 242.34,-79"/>
<text text-anchor="middle" x="255.22" y="-110.7" font-family="Times,serif" font-size="14.00">A</text>
<polyline fill="none" stroke="black" points="242.34,-103.5 268.09,-103.5"/>
<text text-anchor="middle" x="255.22" y="-86.2" font-family="Times,serif" font-size="14.00">B</text>
<polyline fill="none" stroke="black" points="268.09,-79 268.09,-128"/>
<text text-anchor="middle" x="289.22" y="-106.7" font-family="Times,serif" font-size="14.00">$1</text>
<text text-anchor="middle" x="289.22" y="-90.2" font-family="Times,serif" font-size="14.00">$add</text>
<polyline fill="none" stroke="black" points="310.34,-79 310.34,-128"/>
<text text-anchor="middle" x="323.22" y="-98.7" font-family="Times,serif" font-size="14.00">Y</text>
</g>
<!-- c8&#45;&gt;n3 -->
<g id="edge10" class="edge">
<title>c8:e&#45;&gt;n3:w</title>
<path fill="none" stroke="black" stroke-width="3" d="M336.09,-103.75C347.47,-103.75 352.78,-103.62 360.64,-103.55"/>
<polygon fill="black" stroke="black" stroke-width="3" points="357.57,-107.06 367.55,-103.52 357.53,-100.06 357.57,-107.06"/>
</g>
<!-- x0&#45;&gt;c8 -->
<g id="edge1" class="edge">
<title>x0:e&#45;&gt;c8:w</title>
<path fill="none" stroke="black" stroke-width="3" d="M219.09,-119.3C222.79,-118.58 225.97,-117.65 229.67,-116.93"/>
<polygon fill="none" stroke="black" stroke-width="3" points="220.98,-119.12 215.38,-123.67 209.03,-120.25 214.63,-115.7 220.98,-119.12"/>
<polygon fill="none" stroke="black" stroke-width="3" points="227.7,-117.12 233.3,-112.58 239.65,-116 234.05,-120.54 227.7,-117.12"/>
</g>
<!-- x1&#45;&gt;c8 -->
<g id="edge2" class="edge">
<title>x1:e&#45;&gt;c8:w</title>
<path fill="none" stroke="black" stroke-width="3" d="M218.01,-69.99C222.92,-74.6 225.55,-81.75 230.36,-86.47"/>
<polygon fill="none" stroke="black" stroke-width="3" points="220.07,-70.78 213.03,-72.36 208.86,-66.47 215.9,-64.89 220.07,-70.78"/>
<polygon fill="none" stroke="black" stroke-width="3" points="228.69,-85.8 235.74,-84.31 239.83,-90.25 232.77,-91.74 228.69,-85.8"/>
</g>
<!-- x3 -->
<g id="node10" class="node">
<title>x3</title>
<path fill="none" stroke="black" d="M665.2,-134.5C665.2,-134.5 703.7,-134.5 703.7,-134.5 709.7,-134.5 715.7,-140.5 715.7,-146.5 715.7,-146.5 715.7,-158.5 715.7,-158.5 715.7,-164.5 709.7,-170.5 703.7,-170.5 703.7,-170.5 665.2,-170.5 665.2,-170.5 659.2,-170.5 653.2,-164.5 653.2,-158.5 653.2,-158.5 653.2,-146.5 653.2,-146.5 653.2,-140.5 659.2,-134.5 665.2,-134.5"/>
<text text-anchor="middle" x="684.45" y="-147.7" font-family="Times,serif" font-size="14.00">1:0 &#45; 1:0</text>
</g>
<!-- c9&#45;&gt;x3 -->
<g id="edge4" class="edge">
<title>c9:e&#45;&gt;x3:w</title>
<path fill="none" stroke="black" stroke-width="3" d="M628.75,-154.96C632.79,-154.45 636.23,-153.79 640.28,-153.28"/>
<polygon fill="none" stroke="black" stroke-width="3" points="630.45,-154.86 624.7,-159.22 618.47,-155.59 624.22,-151.23 630.45,-154.86"/>
<polygon fill="none" stroke="black" stroke-width="3" points="638.52,-153.39 644.27,-149.03 650.5,-152.66 644.75,-157.02 638.52,-153.39"/>
</g>
<!-- x2&#45;&gt;c9 -->
<g id="edge3" class="edge">
<title>x2:e&#45;&gt;c9:w</title>
<path fill="none" stroke="black" stroke-width="3" d="M334.42,-167.5C408.03,-167.52 433.56,-167.73 507.25,-167.75"/>
<polygon fill="none" stroke="black" stroke-width="3" points="336.17,-167.5 330.17,-171.5 324.17,-167.5 330.17,-163.5 336.17,-167.5"/>
<polygon fill="none" stroke="black" stroke-width="3" points="505.32,-167.75 511.32,-163.75 517.32,-167.75 511.32,-171.75 505.32,-167.75"/>
</g>
<!-- x3&#45;&gt;n4 -->
<g id="edge13" class="edge">
<title>x3:e&#45;&gt;n4:w</title>
<path fill="none" stroke="black" stroke-width="3" d="M715.7,-152.75C761.08,-152.75 712.37,-64.73 740.85,-48.92"/>
<polygon fill="black" stroke="black" stroke-width="3" points="738.27,-53.08 747.27,-47.49 736.75,-46.25 738.27,-53.08"/>
</g>
<!-- c10&#45;&gt;n2 -->
<g id="edge9" class="edge">
<title>c10:e&#45;&gt;n2:w</title>
<path fill="none" stroke="black" stroke-width="3" d="M1089.7,-75.75C1101.08,-75.75 1106.39,-75.62 1114.25,-75.55"/>
<polygon fill="black" stroke="black" stroke-width="3" points="1111.18,-79.06 1121.16,-75.52 1111.15,-72.06 1111.18,-79.06"/>
</g>
<!-- x4&#45;&gt;c10 -->
<g id="edge5" class="edge">
<title>x4:e&#45;&gt;c10:w</title>
<path fill="none" stroke="black" stroke-width="3" d="M973.19,-52.69C977.15,-54.91 980.28,-57.86 984.24,-60.08"/>
<polygon fill="none" stroke="black" stroke-width="3" points="974.95,-53.14 968.15,-55.53 963.32,-50.17 970.12,-47.78 974.95,-53.14"/>
<polygon fill="none" stroke="black" stroke-width="3" points="982.45,-59.62 989.25,-57.23 994.08,-62.58 987.28,-64.98 982.45,-59.62"/>
</g>
<!-- v5 -->
<g id="node13" class="node">
<title>v5</title>
<ellipse fill="none" stroke="black" cx="567.9" cy="-46.5" rx="49.3" ry="18"/>
<text text-anchor="middle" x="567.9" y="-41.45" font-family="Times,serif" font-size="14.00">7&#39;0000000</text>
</g>
<!-- x6 -->
<g id="node14" class="node">
<title>x6</title>
<path fill="none" stroke="black" d="M665.2,-28.5C665.2,-28.5 703.7,-28.5 703.7,-28.5 709.7,-28.5 715.7,-34.5 715.7,-40.5 715.7,-40.5 715.7,-52.5 715.7,-52.5 715.7,-58.5 709.7,-64.5 703.7,-64.5 703.7,-64.5 665.2,-64.5 665.2,-64.5 659.2,-64.5 653.2,-58.5 653.2,-52.5 653.2,-52.5 653.2,-40.5 653.2,-40.5 653.2,-34.5 659.2,-28.5 665.2,-28.5"/>
<text text-anchor="middle" x="684.45" y="-41.7" font-family="Times,serif" font-size="14.00">6:0 &#45; 8:2</text>
</g>
<!-- v5&#45;&gt;x6 -->
<g id="edge16" class="edge">
<title>v5:e&#45;&gt;x6:w</title>
<path fill="none" stroke="black" stroke-width="3" d="M617.2,-46.5C628.58,-46.5 633.89,-46.5 641.75,-46.5"/>
<polygon fill="black" stroke="black" stroke-width="3" points="638.66,-50 648.66,-46.5 638.66,-43 638.66,-50"/>
</g>
<!-- x6&#45;&gt;n4 -->
<g id="edge14" class="edge">
<title>x6:e&#45;&gt;n4:w</title>
<path fill="none" stroke="black" stroke-width="3" d="M715.7,-46.75C727.08,-46.75 732.39,-46.62 740.25,-46.55"/>
<polygon fill="black" stroke="black" stroke-width="3" points="737.18,-50.06 747.16,-46.52 737.14,-43.06 737.18,-50.06"/>
</g>
</g>
</svg>
