<?xml version="1.0" encoding="UTF-8" standalone="no"?>
<!DOCTYPE svg PUBLIC "-//W3C//DTD SVG 1.1//EN"
 "http://www.w3.org/Graphics/SVG/1.1/DTD/svg11.dtd">
<!-- Generated by graphviz version 12.2.1 (20241206.2353)
 -->
<!-- Title: top Pages: 1 -->
<svg width="2889pt" height="387pt"
 viewBox="0.00 0.00 2888.83 387.35" xmlns="http://www.w3.org/2000/svg" xmlns:xlink="http://www.w3.org/1999/xlink">
<g id="graph0" class="graph" transform="scale(1 1) rotate(0) translate(4 383.35)">
<title>top</title>
<polygon fill="white" stroke="none" points="-4,4 -4,-383.35 2884.83,-383.35 2884.83,4 -4,4"/>
<text text-anchor="middle" x="1440.41" y="-7.2" font-family="Times,serif" font-size="14.00">top</text>
<!-- n9 -->
<g id="node1" class="node">
<title>n9</title>
<polygon fill="none" stroke="black" points="107.84,-165.04 107.84,-179.96 76.26,-190.5 31.59,-190.5 0,-179.96 0,-165.04 31.59,-154.5 76.26,-154.5 107.84,-165.04"/>
<text text-anchor="middle" x="53.92" y="-167.45" font-family="Times,serif" font-size="14.00">input_data</text>
</g>
<!-- c17 -->
<g id="node6" class="node">
<title>c17</title>
<polygon fill="none" stroke="black" points="143.84,-181 143.84,-230 237.59,-230 237.59,-181 143.84,-181"/>
<text text-anchor="middle" x="156.72" y="-212.7" font-family="Times,serif" font-size="14.00">A</text>
<polyline fill="none" stroke="black" points="143.84,-205.5 169.59,-205.5"/>
<text text-anchor="middle" x="156.72" y="-188.2" font-family="Times,serif" font-size="14.00">B</text>
<polyline fill="none" stroke="black" points="169.59,-181 169.59,-230"/>
<text text-anchor="middle" x="190.72" y="-208.7" font-family="Times,serif" font-size="14.00">$1</text>
<text text-anchor="middle" x="190.72" y="-192.2" font-family="Times,serif" font-size="14.00">$add</text>
<polyline fill="none" stroke="black" points="211.84,-181 211.84,-230"/>
<text text-anchor="middle" x="224.72" y="-200.7" font-family="Times,serif" font-size="14.00">Y</text>
</g>
<!-- n9&#45;&gt;c17 -->
<g id="edge35" class="edge">
<title>n9:e&#45;&gt;c17:w</title>
<path fill="none" stroke="black" stroke-width="3" d="M107.84,-172.5C128.72,-172.5 122.47,-202.37 133.18,-213.57"/>
<polygon fill="black" stroke="black" stroke-width="3" points="129.03,-215.71 139.61,-216.09 131.58,-209.19 129.03,-215.71"/>
</g>
<!-- n9&#45;&gt;c17 -->
<g id="edge36" class="edge">
<title>n9:e&#45;&gt;c17:w</title>
<path fill="none" stroke="black" stroke-width="3" d="M107.84,-172.5C121.69,-172.5 124.63,-184.17 133.02,-190.01"/>
<polygon fill="black" stroke="black" stroke-width="3" points="128.91,-192.43 139.49,-191.95 130.92,-185.72 128.91,-192.43"/>
</g>
<!-- c18 -->
<g id="node7" class="node">
<title>c18</title>
<polygon fill="none" stroke="black" points="273.59,-165 273.59,-214 367.34,-214 367.34,-165 273.59,-165"/>
<text text-anchor="middle" x="286.47" y="-196.7" font-family="Times,serif" font-size="14.00">A</text>
<polyline fill="none" stroke="black" points="273.59,-189.5 299.34,-189.5"/>
<text text-anchor="middle" x="286.47" y="-172.2" font-family="Times,serif" font-size="14.00">B</text>
<polyline fill="none" stroke="black" points="299.34,-165 299.34,-214"/>
<text text-anchor="middle" x="320.47" y="-192.7" font-family="Times,serif" font-size="14.00">$2</text>
<text text-anchor="middle" x="320.47" y="-176.2" font-family="Times,serif" font-size="14.00">$add</text>
<polyline fill="none" stroke="black" points="341.59,-165 341.59,-214"/>
<text text-anchor="middle" x="354.47" y="-184.7" font-family="Times,serif" font-size="14.00">Y</text>
</g>
<!-- n9&#45;&gt;c18 -->
<g id="edge37" class="edge">
<title>n9:e&#45;&gt;c18:w</title>
<path fill="none" stroke="black" stroke-width="3" d="M107.84,-172.5C123.85,-172.5 127.84,-171.72 143.84,-171.5 185.5,-170.92 196.05,-168.2 237.59,-171.5 249.2,-172.42 254.35,-174.99 262.34,-176.36"/>
<polygon fill="black" stroke="black" stroke-width="3" points="258.82,-179.59 269.06,-176.89 259.37,-172.61 258.82,-179.59"/>
</g>
<!-- x2 -->
<g id="node13" class="node">
<title>x2</title>
<path fill="none" stroke="black" d="M805.72,-316.5C805.72,-316.5 844.22,-316.5 844.22,-316.5 850.22,-316.5 856.22,-322.5 856.22,-328.5 856.22,-328.5 856.22,-340.5 856.22,-340.5 856.22,-346.5 850.22,-352.5 844.22,-352.5 844.22,-352.5 805.72,-352.5 805.72,-352.5 799.72,-352.5 793.72,-346.5 793.72,-340.5 793.72,-340.5 793.72,-328.5 793.72,-328.5 793.72,-322.5 799.72,-316.5 805.72,-316.5"/>
<text text-anchor="middle" x="824.97" y="-329.7" font-family="Times,serif" font-size="14.00">7:7 &#45; 0:0</text>
</g>
<!-- n9&#45;&gt;x2 -->
<g id="edge42" class="edge">
<title>n9:e&#45;&gt;x2:w</title>
<path fill="none" stroke="black" d="M107.84,-172.5C188.12,-172.5 84.5,-295.43 143.84,-349.5 201.87,-402.38 240.95,-368.5 319.47,-368.5 319.47,-368.5 319.47,-368.5 589.34,-368.5 677.03,-368.5 699.23,-337.59 781.29,-334.93"/>
<polygon fill="black" stroke="black" points="781.26,-338.43 791.2,-334.77 781.15,-331.43 781.26,-338.43"/>
</g>
<!-- c24 -->
<g id="node20" class="node">
<title>c24</title>
<polygon fill="none" stroke="black" points="1694.44,-79 1694.44,-128 1782.19,-128 1782.19,-79 1694.44,-79"/>
<text text-anchor="middle" x="1707.32" y="-110.7" font-family="Times,serif" font-size="14.00">A</text>
<polyline fill="none" stroke="black" points="1694.44,-103.5 1720.19,-103.5"/>
<text text-anchor="middle" x="1707.32" y="-86.2" font-family="Times,serif" font-size="14.00">B</text>
<polyline fill="none" stroke="black" points="1720.19,-79 1720.19,-128"/>
<text text-anchor="middle" x="1738.32" y="-106.7" font-family="Times,serif" font-size="14.00">$77</text>
<text text-anchor="middle" x="1738.32" y="-90.2" font-family="Times,serif" font-size="14.00">$or</text>
<polyline fill="none" stroke="black" points="1756.44,-79 1756.44,-128"/>
<text text-anchor="middle" x="1769.32" y="-98.7" font-family="Times,serif" font-size="14.00">Y</text>
</g>
<!-- n9&#45;&gt;c24 -->
<g id="edge38" class="edge">
<title>n9:e&#45;&gt;c24:w</title>
<path fill="none" stroke="black" stroke-width="3" d="M107.84,-172.5C152.16,-172.5 110.39,-108.57 143.84,-79.5 204.34,-26.92 239.31,-38.5 319.47,-38.5 319.47,-38.5 319.47,-38.5 1559.14,-38.5 1619.65,-38.5 1628.9,-84.86 1683,-90.66"/>
<polygon fill="black" stroke="black" stroke-width="3" points="1679.74,-93.99 1689.91,-91.02 1680.1,-87 1679.74,-93.99"/>
</g>
<!-- c25 -->
<g id="node23" class="node">
<title>c25</title>
<polygon fill="none" stroke="black" points="1182.59,-147 1182.59,-196 1278.59,-196 1278.59,-147 1182.59,-147"/>
<text text-anchor="middle" x="1195.47" y="-178.7" font-family="Times,serif" font-size="14.00">A</text>
<polyline fill="none" stroke="black" points="1182.59,-171.5 1208.34,-171.5"/>
<text text-anchor="middle" x="1195.47" y="-154.2" font-family="Times,serif" font-size="14.00">B</text>
<polyline fill="none" stroke="black" points="1208.34,-147 1208.34,-196"/>
<text text-anchor="middle" x="1230.59" y="-174.7" font-family="Times,serif" font-size="14.00">$14</text>
<text text-anchor="middle" x="1230.59" y="-158.2" font-family="Times,serif" font-size="14.00">$mul</text>
<polyline fill="none" stroke="black" points="1252.84,-147 1252.84,-196"/>
<text text-anchor="middle" x="1265.72" y="-166.7" font-family="Times,serif" font-size="14.00">Y</text>
</g>
<!-- n9&#45;&gt;c25 -->
<g id="edge39" class="edge">
<title>n9:e&#45;&gt;c25:w</title>
<path fill="none" stroke="black" stroke-width="3" d="M107.84,-172.5C132.77,-172.5 123.04,-143.23 143.84,-129.5 211.89,-84.58 237.93,-76.5 319.47,-76.5 319.47,-76.5 319.47,-76.5 954.97,-76.5 1058.72,-76.5 1073.93,-153.38 1171.29,-158.93"/>
<polygon fill="black" stroke="black" stroke-width="3" points="1167.96,-162.34 1178.05,-159.12 1168.16,-155.34 1167.96,-162.34"/>
</g>
<!-- c26 -->
<g id="node24" class="node">
<title>c26</title>
<polygon fill="none" stroke="black" points="274.72,-105 274.72,-146 366.22,-146 366.22,-105 274.72,-105"/>
<text text-anchor="middle" x="287.59" y="-120.7" font-family="Times,serif" font-size="14.00">A</text>
<polyline fill="none" stroke="black" points="300.47,-105 300.47,-146"/>
<text text-anchor="middle" x="320.47" y="-128.7" font-family="Times,serif" font-size="14.00">$3</text>
<text text-anchor="middle" x="320.47" y="-112.2" font-family="Times,serif" font-size="14.00">$not</text>
<polyline fill="none" stroke="black" points="340.47,-105 340.47,-146"/>
<text text-anchor="middle" x="353.34" y="-120.7" font-family="Times,serif" font-size="14.00">Y</text>
</g>
<!-- n9&#45;&gt;c26 -->
<g id="edge40" class="edge">
<title>n9:e&#45;&gt;c26:w</title>
<path fill="none" stroke="black" stroke-width="3" d="M107.84,-172.5C142.77,-172.5 220.12,-133.61 262.51,-126.77"/>
<polygon fill="black" stroke="black" stroke-width="3" points="259.55,-130.55 269.19,-126.16 258.92,-123.58 259.55,-130.55"/>
</g>
<!-- x10 -->
<g id="node27" class="node">
<title>x10</title>
<path fill="none" stroke="black" d="M171.47,-249.5C171.47,-249.5 209.97,-249.5 209.97,-249.5 215.97,-249.5 221.97,-255.5 221.97,-261.5 221.97,-261.5 221.97,-273.5 221.97,-273.5 221.97,-279.5 215.97,-285.5 209.97,-285.5 209.97,-285.5 171.47,-285.5 171.47,-285.5 165.47,-285.5 159.47,-279.5 159.47,-273.5 159.47,-273.5 159.47,-261.5 159.47,-261.5 159.47,-255.5 165.47,-249.5 171.47,-249.5"/>
<text text-anchor="middle" x="190.72" y="-262.7" font-family="Times,serif" font-size="14.00">6:0 &#45; 6:0</text>
</g>
<!-- n9&#45;&gt;x10 -->
<g id="edge41" class="edge">
<title>n9:e&#45;&gt;x10:w</title>
<path fill="none" stroke="black" stroke-width="3" d="M107.84,-172.5C151.29,-172.5 118.19,-250.73 147.29,-265.4"/>
<polygon fill="black" stroke="black" stroke-width="3" points="143.52,-268.18 154.02,-266.81 144.96,-261.33 143.52,-268.18"/>
</g>
<!-- n10 -->
<g id="node2" class="node">
<title>n10</title>
<polygon fill="none" stroke="black" points="2880.83,-111.04 2880.83,-125.96 2846.32,-136.5 2797.52,-136.5 2763.02,-125.96 2763.02,-111.04 2797.52,-100.5 2846.32,-100.5 2880.83,-111.04"/>
<text text-anchor="middle" x="2821.92" y="-113.45" font-family="Times,serif" font-size="14.00">output_data</text>
</g>
<!-- n11 -->
<g id="node3" class="node">
<title>n11</title>
<polygon fill="none" stroke="black" points="588.34,-184.5 533.09,-166.5 588.34,-148.5 643.59,-166.5 588.34,-184.5"/>
<text text-anchor="middle" x="588.34" y="-161.45" font-family="Times,serif" font-size="14.00">temp_0</text>
</g>
<!-- x1 -->
<g id="node11" class="node">
<title>x1</title>
<path fill="none" stroke="black" d="M691.59,-203.5C691.59,-203.5 730.09,-203.5 730.09,-203.5 736.09,-203.5 742.09,-209.5 742.09,-215.5 742.09,-215.5 742.09,-227.5 742.09,-227.5 742.09,-233.5 736.09,-239.5 730.09,-239.5 730.09,-239.5 691.59,-239.5 691.59,-239.5 685.59,-239.5 679.59,-233.5 679.59,-227.5 679.59,-227.5 679.59,-215.5 679.59,-215.5 679.59,-209.5 685.59,-203.5 691.59,-203.5"/>
<text text-anchor="middle" x="710.84" y="-216.7" font-family="Times,serif" font-size="14.00">6:0 &#45; 6:0</text>
</g>
<!-- n11&#45;&gt;x1 -->
<g id="edge19" class="edge">
<title>n11:e&#45;&gt;x1:w</title>
<path fill="none" stroke="black" stroke-width="3" d="M643.59,-166.5C668.09,-166.5 656.31,-205.11 668.9,-217.78"/>
<polygon fill="black" stroke="black" stroke-width="3" points="664.74,-219.96 675.34,-220.17 667.18,-213.4 664.74,-219.96"/>
</g>
<!-- c23 -->
<g id="node18" class="node">
<title>c23</title>
<polygon fill="none" stroke="black" points="1314.59,-126 1314.59,-175 1408.34,-175 1408.34,-126 1314.59,-126"/>
<text text-anchor="middle" x="1327.47" y="-157.7" font-family="Times,serif" font-size="14.00">A</text>
<polyline fill="none" stroke="black" points="1314.59,-150.5 1340.34,-150.5"/>
<text text-anchor="middle" x="1327.47" y="-133.2" font-family="Times,serif" font-size="14.00">B</text>
<polyline fill="none" stroke="black" points="1340.34,-126 1340.34,-175"/>
<text text-anchor="middle" x="1361.47" y="-153.7" font-family="Times,serif" font-size="14.00">$15</text>
<text text-anchor="middle" x="1361.47" y="-137.2" font-family="Times,serif" font-size="14.00">$and</text>
<polyline fill="none" stroke="black" points="1382.59,-126 1382.59,-175"/>
<text text-anchor="middle" x="1395.47" y="-145.7" font-family="Times,serif" font-size="14.00">Y</text>
</g>
<!-- n11&#45;&gt;c23 -->
<g id="edge17" class="edge">
<title>n11:e&#45;&gt;c23:w</title>
<path fill="none" stroke="black" stroke-width="3" d="M643.59,-166.5C663.59,-166.5 661.12,-147.18 679.59,-139.5 739.47,-114.61 759.13,-118.5 823.97,-118.5 823.97,-118.5 823.97,-118.5 1092.34,-118.5 1187.64,-118.5 1213.44,-136.74 1303.31,-138.16"/>
<polygon fill="black" stroke="black" stroke-width="3" points="1300.03,-141.64 1310.05,-138.21 1300.08,-134.64 1300.03,-141.64"/>
</g>
<!-- x12 -->
<g id="node30" class="node">
<title>x12</title>
<path fill="none" stroke="black" d="M691.59,-148.5C691.59,-148.5 730.09,-148.5 730.09,-148.5 736.09,-148.5 742.09,-154.5 742.09,-160.5 742.09,-160.5 742.09,-172.5 742.09,-172.5 742.09,-178.5 736.09,-184.5 730.09,-184.5 730.09,-184.5 691.59,-184.5 691.59,-184.5 685.59,-184.5 679.59,-178.5 679.59,-172.5 679.59,-172.5 679.59,-160.5 679.59,-160.5 679.59,-154.5 685.59,-148.5 691.59,-148.5"/>
<text text-anchor="middle" x="710.84" y="-161.7" font-family="Times,serif" font-size="14.00">6:0 &#45; 6:0</text>
</g>
<!-- n11&#45;&gt;x12 -->
<g id="edge18" class="edge">
<title>n11:e&#45;&gt;x12:w</title>
<path fill="none" stroke="black" stroke-width="3" d="M643.59,-166.5C654.97,-166.5 660.28,-166.63 668.15,-166.7"/>
<polygon fill="black" stroke="black" stroke-width="3" points="665.04,-170.19 675.05,-166.73 665.07,-163.19 665.04,-170.19"/>
</g>
<!-- n12 -->
<g id="node4" class="node">
<title>n12</title>
<polygon fill="none" stroke="black" points="1091.34,-201.5 1036.09,-183.5 1091.34,-165.5 1146.59,-183.5 1091.34,-201.5"/>
<text text-anchor="middle" x="1091.34" y="-178.45" font-family="Times,serif" font-size="14.00">temp_1</text>
</g>
<!-- n12&#45;&gt;c25 -->
<g id="edge21" class="edge">
<title>n12:e&#45;&gt;c25:w</title>
<path fill="none" stroke="black" stroke-width="3" d="M1146.59,-183.5C1157.97,-183.5 1163.28,-183.63 1171.15,-183.7"/>
<polygon fill="black" stroke="black" stroke-width="3" points="1168.04,-187.19 1178.05,-183.73 1168.07,-180.19 1168.04,-187.19"/>
</g>
<!-- n13 -->
<g id="node5" class="node">
<title>n13</title>
<polygon fill="none" stroke="black" points="1985.44,-121.5 1930.19,-103.5 1985.44,-85.5 2040.69,-103.5 1985.44,-121.5"/>
<text text-anchor="middle" x="1985.44" y="-98.45" font-family="Times,serif" font-size="14.00">temp_3</text>
</g>
<!-- x3 -->
<g id="node14" class="node">
<title>x3</title>
<path fill="none" stroke="black" d="M2088.69,-139C2088.69,-139 2138.44,-139 2138.44,-139 2144.44,-139 2150.44,-145 2150.44,-151 2150.44,-151 2150.44,-176 2150.44,-176 2150.44,-182 2144.44,-188 2138.44,-188 2138.44,-188 2088.69,-188 2088.69,-188 2082.69,-188 2076.69,-182 2076.69,-176 2076.69,-176 2076.69,-151 2076.69,-151 2076.69,-145 2082.69,-139 2088.69,-139"/>
<text text-anchor="middle" x="2113.57" y="-170.7" font-family="Times,serif" font-size="14.00">0 &#45;&gt; 10:10</text>
<polyline fill="none" stroke="black" points="2076.69,-163.5 2150.44,-163.5"/>
<text text-anchor="middle" x="2113.57" y="-146.2" font-family="Times,serif" font-size="14.00">9:0 &#45; 9:0</text>
</g>
<!-- n13&#45;&gt;x3 -->
<g id="edge24" class="edge">
<title>n13:e&#45;&gt;x3:w</title>
<path fill="none" stroke="black" stroke-width="3" d="M2040.69,-103.5C2062.5,-103.5 2054.87,-135.63 2066.1,-147.18"/>
<polygon fill="black" stroke="black" stroke-width="3" points="2061.87,-149.3 2072.46,-149.62 2064.38,-142.77 2061.87,-149.3"/>
</g>
<!-- x4 -->
<g id="node16" class="node">
<title>x4</title>
<path fill="none" stroke="black" d="M2214.07,-91C2214.07,-91 2252.57,-91 2252.57,-91 2258.57,-91 2264.57,-97 2264.57,-103 2264.57,-103 2264.57,-128 2264.57,-128 2264.57,-134 2258.57,-140 2252.57,-140 2252.57,-140 2214.07,-140 2214.07,-140 2208.07,-140 2202.07,-134 2202.07,-128 2202.07,-128 2202.07,-103 2202.07,-103 2202.07,-97 2208.07,-91 2214.07,-91"/>
<text text-anchor="middle" x="2233.32" y="-122.7" font-family="Times,serif" font-size="14.00">0 &#45;&gt; 5:5</text>
<polyline fill="none" stroke="black" points="2202.07,-115.5 2264.57,-115.5"/>
<text text-anchor="middle" x="2233.32" y="-98.2" font-family="Times,serif" font-size="14.00">9:5 &#45; 4:0</text>
</g>
<!-- n13&#45;&gt;x4 -->
<g id="edge25" class="edge">
<title>n13:e&#45;&gt;x4:w</title>
<path fill="none" stroke="black" stroke-width="3" d="M2040.69,-103.5C2108.07,-103.5 2127.68,-103.28 2189.84,-103.25"/>
<polygon fill="black" stroke="black" stroke-width="3" points="2186.53,-106.75 2196.53,-103.25 2186.53,-99.75 2186.53,-106.75"/>
</g>
<!-- c17&#45;&gt;c18 -->
<g id="edge13" class="edge">
<title>c17:e&#45;&gt;c18:w</title>
<path fill="none" stroke="black" stroke-width="3" d="M237.59,-205.75C249.04,-205.75 254.27,-203.73 262.12,-202.56"/>
<polygon fill="black" stroke="black" stroke-width="3" points="259.33,-206.26 269.06,-202.07 258.84,-199.28 259.33,-206.26"/>
</g>
<!-- c19 -->
<g id="node8" class="node">
<title>c19</title>
<polygon fill="none" stroke="black" points="403.34,-142 403.34,-191 497.09,-191 497.09,-142 403.34,-142"/>
<text text-anchor="middle" x="416.22" y="-173.7" font-family="Times,serif" font-size="14.00">A</text>
<polyline fill="none" stroke="black" points="403.34,-166.5 429.09,-166.5"/>
<text text-anchor="middle" x="416.22" y="-149.2" font-family="Times,serif" font-size="14.00">B</text>
<polyline fill="none" stroke="black" points="429.09,-142 429.09,-191"/>
<text text-anchor="middle" x="450.22" y="-169.7" font-family="Times,serif" font-size="14.00">$4</text>
<text text-anchor="middle" x="450.22" y="-153.2" font-family="Times,serif" font-size="14.00">$add</text>
<polyline fill="none" stroke="black" points="471.34,-142 471.34,-191"/>
<text text-anchor="middle" x="484.22" y="-161.7" font-family="Times,serif" font-size="14.00">Y</text>
</g>
<!-- c18&#45;&gt;c19 -->
<g id="edge26" class="edge">
<title>c18:e&#45;&gt;c19:w</title>
<path fill="none" stroke="black" stroke-width="3" d="M367.34,-189.75C379.5,-189.75 384.16,-183.94 392.22,-180.77"/>
<polygon fill="black" stroke="black" stroke-width="3" points="389.66,-184.79 398.87,-179.56 388.41,-177.9 389.66,-184.79"/>
</g>
<!-- c19&#45;&gt;n11 -->
<g id="edge16" class="edge">
<title>c19:e&#45;&gt;n11:w</title>
<path fill="none" stroke="black" stroke-width="3" d="M497.09,-166.75C508.47,-166.75 513.78,-166.62 521.64,-166.55"/>
<polygon fill="black" stroke="black" stroke-width="3" points="518.57,-170.06 528.55,-166.52 518.53,-163.06 518.57,-170.06"/>
</g>
<!-- c20 -->
<g id="node9" class="node">
<title>c20</title>
<polygon fill="none" stroke="black" points="778.09,-209 778.09,-258 871.84,-258 871.84,-209 778.09,-209"/>
<text text-anchor="middle" x="790.97" y="-240.7" font-family="Times,serif" font-size="14.00">A</text>
<polyline fill="none" stroke="black" points="778.09,-233.5 803.84,-233.5"/>
<text text-anchor="middle" x="790.97" y="-216.2" font-family="Times,serif" font-size="14.00">B</text>
<polyline fill="none" stroke="black" points="803.84,-209 803.84,-258"/>
<text text-anchor="middle" x="824.97" y="-236.7" font-family="Times,serif" font-size="14.00">$6</text>
<text text-anchor="middle" x="824.97" y="-220.2" font-family="Times,serif" font-size="14.00">$add</text>
<polyline fill="none" stroke="black" points="846.09,-209 846.09,-258"/>
<text text-anchor="middle" x="858.97" y="-228.7" font-family="Times,serif" font-size="14.00">Y</text>
</g>
<!-- c28 -->
<g id="node29" class="node">
<title>c28</title>
<polygon fill="none" stroke="black" points="907.84,-159 907.84,-208 1000.09,-208 1000.09,-159 907.84,-159"/>
<text text-anchor="middle" x="920.72" y="-190.7" font-family="Times,serif" font-size="14.00">A</text>
<polyline fill="none" stroke="black" points="907.84,-183.5 933.59,-183.5"/>
<text text-anchor="middle" x="920.72" y="-166.2" font-family="Times,serif" font-size="14.00">B</text>
<polyline fill="none" stroke="black" points="933.59,-159 933.59,-208"/>
<text text-anchor="middle" x="953.97" y="-186.7" font-family="Times,serif" font-size="14.00">$7</text>
<text text-anchor="middle" x="953.97" y="-170.2" font-family="Times,serif" font-size="14.00">$xor</text>
<polyline fill="none" stroke="black" points="974.34,-159 974.34,-208"/>
<text text-anchor="middle" x="987.22" y="-178.7" font-family="Times,serif" font-size="14.00">Y</text>
</g>
<!-- c20&#45;&gt;c28 -->
<g id="edge27" class="edge">
<title>c20:e&#45;&gt;c28:w</title>
<path fill="none" stroke="black" stroke-width="3" d="M871.84,-233.75C890.38,-233.75 887.46,-209.62 897.28,-199.82"/>
<polygon fill="black" stroke="black" stroke-width="3" points="895.53,-204.24 903.6,-197.38 893.01,-197.71 895.53,-204.24"/>
</g>
<!-- x0 -->
<g id="node10" class="node">
<title>x0</title>
<path fill="none" stroke="black" d="M569.09,-253.5C569.09,-253.5 607.59,-253.5 607.59,-253.5 613.59,-253.5 619.59,-259.5 619.59,-265.5 619.59,-265.5 619.59,-277.5 619.59,-277.5 619.59,-283.5 613.59,-289.5 607.59,-289.5 607.59,-289.5 569.09,-289.5 569.09,-289.5 563.09,-289.5 557.09,-283.5 557.09,-277.5 557.09,-277.5 557.09,-265.5 557.09,-265.5 557.09,-259.5 563.09,-253.5 569.09,-253.5"/>
<text text-anchor="middle" x="588.34" y="-266.7" font-family="Times,serif" font-size="14.00">6:0 &#45; 6:0</text>
</g>
<!-- x0&#45;&gt;c20 -->
<g id="edge1" class="edge">
<title>x0:e&#45;&gt;c20:w</title>
<path fill="none" stroke="black" stroke-width="3" d="M633.4,-270.7C669.02,-266.86 729.79,-250.36 765.37,-246.54"/>
<polygon fill="none" stroke="black" stroke-width="3" points="635.27,-270.58 629.53,-274.95 623.29,-271.33 629.03,-266.97 635.27,-270.58"/>
<polygon fill="none" stroke="black" stroke-width="3" points="763.42,-246.66 769.16,-242.3 775.39,-245.92 769.65,-250.28 763.42,-246.66"/>
</g>
<!-- x1&#45;&gt;c20 -->
<g id="edge2" class="edge">
<title>x1:e&#45;&gt;c20:w</title>
<path fill="none" stroke="black" stroke-width="3" d="M754.81,-221.44C758.41,-221.4 761.54,-221.35 765.12,-221.32"/>
<polygon fill="none" stroke="black" stroke-width="3" points="756.8,-221.43 750.82,-225.46 744.8,-221.49 750.78,-217.46 756.8,-221.43"/>
<polygon fill="none" stroke="black" stroke-width="3" points="763.39,-221.32 769.37,-217.29 775.39,-221.26 769.41,-225.29 763.39,-221.32"/>
</g>
<!-- c21 -->
<g id="node12" class="node">
<title>c21</title>
<polygon fill="none" stroke="black" points="2186.44,-159 2186.44,-208 2280.19,-208 2280.19,-159 2186.44,-159"/>
<text text-anchor="middle" x="2199.32" y="-190.7" font-family="Times,serif" font-size="14.00">A</text>
<polyline fill="none" stroke="black" points="2186.44,-183.5 2212.19,-183.5"/>
<text text-anchor="middle" x="2199.32" y="-166.2" font-family="Times,serif" font-size="14.00">B</text>
<polyline fill="none" stroke="black" points="2212.19,-159 2212.19,-208"/>
<text text-anchor="middle" x="2233.32" y="-186.7" font-family="Times,serif" font-size="14.00">$51</text>
<text text-anchor="middle" x="2233.32" y="-170.2" font-family="Times,serif" font-size="14.00">$add</text>
<polyline fill="none" stroke="black" points="2254.44,-159 2254.44,-208"/>
<text text-anchor="middle" x="2267.32" y="-178.7" font-family="Times,serif" font-size="14.00">Y</text>
</g>
<!-- c22 -->
<g id="node15" class="node">
<title>c22</title>
<polygon fill="none" stroke="black" points="2415.35,-125 2415.35,-174 2509.1,-174 2509.1,-125 2415.35,-125"/>
<text text-anchor="middle" x="2428.23" y="-156.7" font-family="Times,serif" font-size="14.00">A</text>
<polyline fill="none" stroke="black" points="2415.35,-149.5 2441.1,-149.5"/>
<text text-anchor="middle" x="2428.23" y="-132.2" font-family="Times,serif" font-size="14.00">B</text>
<polyline fill="none" stroke="black" points="2441.1,-125 2441.1,-174"/>
<text text-anchor="middle" x="2462.23" y="-152.7" font-family="Times,serif" font-size="14.00">$52</text>
<text text-anchor="middle" x="2462.23" y="-136.2" font-family="Times,serif" font-size="14.00">$add</text>
<polyline fill="none" stroke="black" points="2483.35,-125 2483.35,-174"/>
<text text-anchor="middle" x="2496.23" y="-144.7" font-family="Times,serif" font-size="14.00">Y</text>
</g>
<!-- c21&#45;&gt;c22 -->
<g id="edge31" class="edge">
<title>c21:e&#45;&gt;c22:w</title>
<path fill="none" stroke="black" stroke-width="3" d="M2280.19,-183.75C2336.6,-183.75 2351.96,-164.57 2402.91,-162.03"/>
<polygon fill="black" stroke="black" stroke-width="3" points="2399.9,-165.6 2409.82,-161.86 2399.73,-158.6 2399.9,-165.6"/>
</g>
<!-- x2&#45;&gt;c21 -->
<g id="edge3" class="edge">
<title>x2:e&#45;&gt;c21:w</title>
<path fill="none" stroke="black" d="M870.19,-334.05C970.16,-326.97 982.78,-238.5 1090.34,-238.5 1090.34,-238.5 1090.34,-238.5 1986.44,-238.5 2072.9,-238.5 2093.6,-199.82 2173.63,-196.05"/>
<polygon fill="none" stroke="black" points="870.11,-334.05 864.25,-338.26 858.12,-334.47 863.98,-330.26 870.11,-334.05"/>
<polygon fill="none" stroke="black" points="2173.55,-196.05 2179.45,-191.91 2185.54,-195.77 2179.64,-199.91 2173.55,-196.05"/>
</g>
<!-- x3&#45;&gt;c21 -->
<g id="edge4" class="edge">
<title>x3:e&#45;&gt;c21:w</title>
<path fill="none" stroke="black" stroke-width="3" d="M2163.25,-165.46C2166.92,-166.64 2170.05,-168.14 2173.72,-169.32"/>
<polygon fill="none" stroke="black" stroke-width="3" points="2164.98,-165.72 2158.44,-168.77 2153.12,-163.91 2159.65,-160.86 2164.98,-165.72"/>
<polygon fill="none" stroke="black" stroke-width="3" points="2171.91,-169.05 2178.44,-165.99 2183.77,-170.84 2177.24,-173.9 2171.91,-169.05"/>
</g>
<!-- x5 -->
<g id="node17" class="node">
<title>x5</title>
<path fill="none" stroke="black" d="M2659.64,-129.5C2659.64,-129.5 2711.64,-129.5 2711.64,-129.5 2717.64,-129.5 2723.64,-135.5 2723.64,-141.5 2723.64,-141.5 2723.64,-153.5 2723.64,-153.5 2723.64,-159.5 2717.64,-165.5 2711.64,-165.5 2711.64,-165.5 2659.64,-165.5 2659.64,-165.5 2653.64,-165.5 2647.64,-159.5 2647.64,-153.5 2647.64,-153.5 2647.64,-141.5 2647.64,-141.5 2647.64,-135.5 2653.64,-129.5 2659.64,-129.5"/>
<text text-anchor="middle" x="2685.64" y="-142.7" font-family="Times,serif" font-size="14.00">12:0 &#45; 12:0</text>
</g>
<!-- c22&#45;&gt;x5 -->
<g id="edge6" class="edge">
<title>c22:e&#45;&gt;x5:w</title>
<path fill="none" stroke="black" stroke-width="3" d="M2522.9,-149.71C2569.26,-149.45 2587.49,-147.8 2633.86,-147.54"/>
<polygon fill="none" stroke="black" stroke-width="3" points="2524.81,-149.71 2518.82,-153.73 2512.81,-149.74 2518.8,-145.73 2524.81,-149.71"/>
<polygon fill="none" stroke="black" stroke-width="3" points="2631.94,-147.54 2637.93,-143.52 2643.94,-147.51 2637.95,-151.52 2631.94,-147.54"/>
</g>
<!-- x4&#45;&gt;c22 -->
<g id="edge5" class="edge">
<title>x4:e&#45;&gt;c22:w</title>
<path fill="none" stroke="black" stroke-width="3" d="M2278.58,-115.79C2330.65,-118.19 2349.38,-134.61 2401.53,-136.97"/>
<polygon fill="none" stroke="black" stroke-width="3" points="2280.27,-115.83 2274.18,-119.69 2268.27,-115.56 2274.36,-111.7 2280.27,-115.83"/>
<polygon fill="none" stroke="black" stroke-width="3" points="2399.65,-136.93 2405.74,-133.06 2411.65,-137.19 2405.56,-141.06 2399.65,-136.93"/>
</g>
<!-- x5&#45;&gt;n10 -->
<g id="edge15" class="edge">
<title>x5:e&#45;&gt;n10:w</title>
<path fill="none" stroke="black" stroke-width="3" d="M2724.64,-147.75C2741.39,-147.75 2742.3,-129.9 2752.13,-122.09"/>
<polygon fill="black" stroke="black" stroke-width="3" points="2750.3,-126.37 2758.7,-119.92 2748.11,-119.72 2750.3,-126.37"/>
</g>
<!-- x6 -->
<g id="node19" class="node">
<title>x6</title>
<path fill="none" stroke="black" d="M1463.09,-130.5C1463.09,-130.5 1501.59,-130.5 1501.59,-130.5 1507.59,-130.5 1513.59,-136.5 1513.59,-142.5 1513.59,-142.5 1513.59,-154.5 1513.59,-154.5 1513.59,-160.5 1507.59,-166.5 1501.59,-166.5 1501.59,-166.5 1463.09,-166.5 1463.09,-166.5 1457.09,-166.5 1451.09,-160.5 1451.09,-154.5 1451.09,-154.5 1451.09,-142.5 1451.09,-142.5 1451.09,-136.5 1457.09,-130.5 1463.09,-130.5"/>
<text text-anchor="middle" x="1482.34" y="-143.7" font-family="Times,serif" font-size="14.00">9:0 &#45; 9:0</text>
</g>
<!-- c23&#45;&gt;x6 -->
<g id="edge7" class="edge">
<title>c23:e&#45;&gt;x6:w</title>
<path fill="none" stroke="black" stroke-width="3" d="M1421.32,-150.32C1426.98,-149.92 1431.47,-149.33 1437.13,-148.93"/>
<polygon fill="none" stroke="black" stroke-width="3" points="1423.04,-150.26 1417.18,-154.46 1411.05,-150.66 1416.91,-146.46 1423.04,-150.26"/>
<polygon fill="none" stroke="black" stroke-width="3" points="1435.4,-148.99 1441.26,-144.79 1447.39,-148.59 1441.53,-152.79 1435.4,-148.99"/>
</g>
<!-- n4 -->
<g id="node37" class="node">
<title>n4</title>
<ellipse fill="black" stroke="black" cx="1558.14" cy="-115.5" rx="1.8" ry="1.8"/>
</g>
<!-- x6&#45;&gt;n4 -->
<g id="edge29" class="edge">
<title>x6:e&#45;&gt;n4:w</title>
<path fill="none" stroke="black" stroke-width="3" d="M1514.59,-148.75C1533.68,-148.75 1533.72,-127.22 1545.37,-118.81"/>
<polygon fill="black" stroke="black" stroke-width="3" points="1543.43,-123.05 1552,-116.81 1541.41,-116.35 1543.43,-123.05"/>
</g>
<!-- x8 -->
<g id="node22" class="node">
<title>x8</title>
<path fill="none" stroke="black" d="M1836.94,-85.5C1836.94,-85.5 1875.44,-85.5 1875.44,-85.5 1881.44,-85.5 1887.44,-91.5 1887.44,-97.5 1887.44,-97.5 1887.44,-109.5 1887.44,-109.5 1887.44,-115.5 1881.44,-121.5 1875.44,-121.5 1875.44,-121.5 1836.94,-121.5 1836.94,-121.5 1830.94,-121.5 1824.94,-115.5 1824.94,-109.5 1824.94,-109.5 1824.94,-97.5 1824.94,-97.5 1824.94,-91.5 1830.94,-85.5 1836.94,-85.5"/>
<text text-anchor="middle" x="1856.19" y="-98.7" font-family="Times,serif" font-size="14.00">9:0 &#45; 9:0</text>
</g>
<!-- c24&#45;&gt;x8 -->
<g id="edge9" class="edge">
<title>c24:e&#45;&gt;x8:w</title>
<path fill="none" stroke="black" stroke-width="3" d="M1795.17,-103.7C1800.83,-103.66 1805.32,-103.59 1810.99,-103.55"/>
<polygon fill="none" stroke="black" stroke-width="3" points="1796.9,-103.7 1790.91,-107.72 1784.9,-103.74 1790.88,-99.72 1796.9,-103.7"/>
<polygon fill="none" stroke="black" stroke-width="3" points="1809.24,-103.55 1815.22,-99.53 1821.24,-103.51 1815.25,-107.53 1809.24,-103.55"/>
</g>
<!-- x7 -->
<g id="node21" class="node">
<title>x7</title>
<path fill="none" stroke="black" d="M1607.94,-97.5C1607.94,-97.5 1646.44,-97.5 1646.44,-97.5 1652.44,-97.5 1658.44,-103.5 1658.44,-109.5 1658.44,-109.5 1658.44,-121.5 1658.44,-121.5 1658.44,-127.5 1652.44,-133.5 1646.44,-133.5 1646.44,-133.5 1607.94,-133.5 1607.94,-133.5 1601.94,-133.5 1595.94,-127.5 1595.94,-121.5 1595.94,-121.5 1595.94,-109.5 1595.94,-109.5 1595.94,-103.5 1601.94,-97.5 1607.94,-97.5"/>
<text text-anchor="middle" x="1627.19" y="-110.7" font-family="Times,serif" font-size="14.00">9:0 &#45; 9:0</text>
</g>
<!-- x7&#45;&gt;c24 -->
<g id="edge8" class="edge">
<title>x7:e&#45;&gt;c24:w</title>
<path fill="none" stroke="black" stroke-width="3" d="M1671.16,-115.56C1674.76,-115.6 1677.89,-115.65 1681.47,-115.68"/>
<polygon fill="none" stroke="black" stroke-width="3" points="1673.15,-115.57 1667.13,-119.54 1661.15,-115.51 1667.17,-111.54 1673.15,-115.57"/>
<polygon fill="none" stroke="black" stroke-width="3" points="1679.74,-115.68 1685.76,-111.71 1691.74,-115.74 1685.72,-119.71 1679.74,-115.68"/>
</g>
<!-- x8&#45;&gt;n13 -->
<g id="edge23" class="edge">
<title>x8:e&#45;&gt;n13:w</title>
<path fill="none" stroke="black" stroke-width="3" d="M1888.44,-103.75C1902.5,-103.75 1908.57,-103.61 1918.76,-103.54"/>
<polygon fill="black" stroke="black" stroke-width="3" points="1915.66,-107.05 1925.65,-103.51 1915.64,-100.05 1915.66,-107.05"/>
</g>
<!-- c25&#45;&gt;c23 -->
<g id="edge32" class="edge">
<title>c25:e&#45;&gt;c23:w</title>
<path fill="none" stroke="black" stroke-width="3" d="M1278.59,-171.75C1290.45,-171.75 1295.34,-167.1 1303.28,-164.49"/>
<polygon fill="black" stroke="black" stroke-width="3" points="1300.75,-168.41 1310.1,-163.44 1299.69,-161.49 1300.75,-168.41"/>
</g>
<!-- c26&#45;&gt;c19 -->
<g id="edge33" class="edge">
<title>c26:e&#45;&gt;c19:w</title>
<path fill="none" stroke="black" stroke-width="3" d="M367.22,-125.75C383.03,-125.75 383.76,-142.8 392.74,-150.52"/>
<polygon fill="black" stroke="black" stroke-width="3" points="388.46,-152.73 399.06,-152.74 390.78,-146.13 388.46,-152.73"/>
</g>
<!-- v9 -->
<g id="node25" class="node">
<title>v9</title>
<ellipse fill="none" stroke="black" cx="190.72" cy="-322.5" rx="27" ry="18"/>
<text text-anchor="middle" x="190.72" y="-317.45" font-family="Times,serif" font-size="14.00">1&#39;0</text>
</g>
<!-- c27 -->
<g id="node26" class="node">
<title>c27</title>
<polygon fill="none" stroke="black" points="273.97,-255 273.97,-304 366.97,-304 366.97,-255 273.97,-255"/>
<text text-anchor="middle" x="286.84" y="-286.7" font-family="Times,serif" font-size="14.00">A</text>
<polyline fill="none" stroke="black" points="273.97,-279.5 299.72,-279.5"/>
<text text-anchor="middle" x="286.84" y="-262.2" font-family="Times,serif" font-size="14.00">B</text>
<polyline fill="none" stroke="black" points="299.72,-255 299.72,-304"/>
<text text-anchor="middle" x="320.47" y="-282.7" font-family="Times,serif" font-size="14.00">$5</text>
<text text-anchor="middle" x="320.47" y="-266.2" font-family="Times,serif" font-size="14.00">$sub</text>
<polyline fill="none" stroke="black" points="341.22,-255 341.22,-304"/>
<text text-anchor="middle" x="354.09" y="-274.7" font-family="Times,serif" font-size="14.00">Y</text>
</g>
<!-- v9&#45;&gt;c27 -->
<g id="edge46" class="edge">
<title>v9:e&#45;&gt;c27:w</title>
<path fill="none" stroke="black" d="M218.97,-322.5C242.47,-322.5 245.37,-300.61 262.43,-293.77"/>
<polygon fill="black" stroke="black" points="262.88,-297.24 272.1,-292.02 261.64,-290.35 262.88,-297.24"/>
</g>
<!-- x11 -->
<g id="node28" class="node">
<title>x11</title>
<path fill="none" stroke="black" d="M430.97,-256.5C430.97,-256.5 469.47,-256.5 469.47,-256.5 475.47,-256.5 481.47,-262.5 481.47,-268.5 481.47,-268.5 481.47,-280.5 481.47,-280.5 481.47,-286.5 475.47,-292.5 469.47,-292.5 469.47,-292.5 430.97,-292.5 430.97,-292.5 424.97,-292.5 418.97,-286.5 418.97,-280.5 418.97,-280.5 418.97,-268.5 418.97,-268.5 418.97,-262.5 424.97,-256.5 430.97,-256.5"/>
<text text-anchor="middle" x="450.22" y="-269.7" font-family="Times,serif" font-size="14.00">6:0 &#45; 6:0</text>
</g>
<!-- c27&#45;&gt;x11 -->
<g id="edge11" class="edge">
<title>c27:e&#45;&gt;x11:w</title>
<path fill="none" stroke="black" stroke-width="3" d="M380.07,-279.11C389.47,-278.1 395.8,-276.16 405.19,-275.15"/>
<polygon fill="none" stroke="black" stroke-width="3" points="382.03,-279.01 376.24,-283.31 370.04,-279.61 375.83,-275.32 382.03,-279.01"/>
<polygon fill="none" stroke="black" stroke-width="3" points="403.28,-275.25 409.07,-270.95 415.27,-274.64 409.48,-278.94 403.28,-275.25"/>
</g>
<!-- x10&#45;&gt;c27 -->
<g id="edge10" class="edge">
<title>x10:e&#45;&gt;c27:w</title>
<path fill="none" stroke="black" stroke-width="3" d="M235.66,-267.47C244.96,-267.42 251.32,-267.33 260.54,-267.28"/>
<polygon fill="none" stroke="black" stroke-width="3" points="237.67,-267.46 231.68,-271.48 225.67,-267.49 231.66,-263.48 237.67,-267.46"/>
<polygon fill="none" stroke="black" stroke-width="3" points="258.89,-267.29 264.88,-263.27 270.89,-267.26 264.9,-271.27 258.89,-267.29"/>
</g>
<!-- x11&#45;&gt;x0 -->
<g id="edge34" class="edge">
<title>x11:e&#45;&gt;x0:w</title>
<path fill="none" stroke="black" stroke-width="3" d="M482.47,-274.75C511.12,-274.75 520.93,-272.45 544.87,-271.88"/>
<polygon fill="black" stroke="black" stroke-width="3" points="541.59,-275.42 551.55,-271.8 541.51,-268.42 541.59,-275.42"/>
</g>
<!-- c28&#45;&gt;n12 -->
<g id="edge20" class="edge">
<title>c28:e&#45;&gt;n12:w</title>
<path fill="none" stroke="black" stroke-width="3" d="M1000.09,-183.75C1011.47,-183.75 1016.78,-183.62 1024.65,-183.55"/>
<polygon fill="black" stroke="black" stroke-width="3" points="1021.57,-187.06 1031.55,-183.52 1021.54,-180.06 1021.57,-187.06"/>
</g>
<!-- x12&#45;&gt;c28 -->
<g id="edge12" class="edge">
<title>x12:e&#45;&gt;c28:w</title>
<path fill="none" stroke="black" stroke-width="3" d="M754.89,-166.55C814.13,-167.03 835.8,-170.72 895.04,-171.2"/>
<polygon fill="none" stroke="black" stroke-width="3" points="756.8,-166.56 750.78,-170.53 744.8,-166.51 750.81,-162.53 756.8,-166.56"/>
<polygon fill="none" stroke="black" stroke-width="3" points="893.14,-171.19 899.15,-167.22 905.14,-171.24 899.12,-175.22 893.14,-171.19"/>
</g>
<!-- v13 -->
<g id="node31" class="node">
<title>v13</title>
<ellipse fill="none" stroke="black" cx="2462.23" cy="-88.5" rx="146.04" ry="18"/>
<text text-anchor="middle" x="2462.23" y="-83.45" font-family="Times,serif" font-size="14.00">27&#39;000000000000000000000000000</text>
</g>
<!-- x14 -->
<g id="node32" class="node">
<title>x14</title>
<path fill="none" stroke="black" d="M2656.27,-73.5C2656.27,-73.5 2715.02,-73.5 2715.02,-73.5 2721.02,-73.5 2727.02,-79.5 2727.02,-85.5 2727.02,-85.5 2727.02,-97.5 2727.02,-97.5 2727.02,-103.5 2721.02,-109.5 2715.02,-109.5 2715.02,-109.5 2656.27,-109.5 2656.27,-109.5 2650.27,-109.5 2644.27,-103.5 2644.27,-97.5 2644.27,-97.5 2644.27,-85.5 2644.27,-85.5 2644.27,-79.5 2650.27,-73.5 2656.27,-73.5"/>
<text text-anchor="middle" x="2685.64" y="-86.7" font-family="Times,serif" font-size="14.00">26:0 &#45; 39:13</text>
</g>
<!-- v13&#45;&gt;x14 -->
<g id="edge43" class="edge">
<title>v13:e&#45;&gt;x14:w</title>
<path fill="none" stroke="black" stroke-width="3" d="M2608.27,-88.5C2619.68,-88.5 2624.95,-90.02 2632.8,-90.89"/>
<polygon fill="black" stroke="black" stroke-width="3" points="2629.56,-94.23 2639.73,-91.26 2629.93,-87.24 2629.56,-94.23"/>
</g>
<!-- x14&#45;&gt;n10 -->
<g id="edge14" class="edge">
<title>x14:e&#45;&gt;n10:w</title>
<path fill="none" stroke="black" stroke-width="3" d="M2727.02,-91.75C2742.28,-91.75 2743.59,-107.43 2752.31,-114.78"/>
<polygon fill="black" stroke="black" stroke-width="3" points="2748.13,-117.03 2758.73,-117.01 2750.43,-110.42 2748.13,-117.03"/>
</g>
<!-- v15 -->
<g id="node33" class="node">
<title>v15</title>
<ellipse fill="none" stroke="black" cx="1361.47" cy="-89.5" rx="27" ry="18"/>
<text text-anchor="middle" x="1361.47" y="-84.45" font-family="Times,serif" font-size="14.00">1&#39;0</text>
</g>
<!-- x16 -->
<g id="node34" class="node">
<title>x16</title>
<path fill="none" stroke="black" d="M1456.34,-74.5C1456.34,-74.5 1508.34,-74.5 1508.34,-74.5 1514.34,-74.5 1520.34,-80.5 1520.34,-86.5 1520.34,-86.5 1520.34,-98.5 1520.34,-98.5 1520.34,-104.5 1514.34,-110.5 1508.34,-110.5 1508.34,-110.5 1456.34,-110.5 1456.34,-110.5 1450.34,-110.5 1444.34,-104.5 1444.34,-98.5 1444.34,-98.5 1444.34,-86.5 1444.34,-86.5 1444.34,-80.5 1450.34,-74.5 1456.34,-74.5"/>
<text text-anchor="middle" x="1482.34" y="-87.7" font-family="Times,serif" font-size="14.00">0:0 &#45; 10:10</text>
</g>
<!-- v15&#45;&gt;x16 -->
<g id="edge44" class="edge">
<title>v15:e&#45;&gt;x16:w</title>
<path fill="none" stroke="black" d="M1389.72,-89.5C1409.86,-89.5 1417.43,-91.56 1433.24,-92.26"/>
<polygon fill="black" stroke="black" points="1432.76,-95.75 1442.83,-92.47 1432.91,-88.76 1432.76,-95.75"/>
</g>
<!-- x16&#45;&gt;n4 -->
<g id="edge28" class="edge">
<title>x16:e&#45;&gt;n4:w</title>
<path fill="none" stroke="black" d="M1520.34,-92.75C1534.54,-92.75 1537.04,-105.55 1545.39,-111.95"/>
<polygon fill="black" stroke="black" points="1544.31,-115.27 1554.9,-115.03 1546.47,-108.62 1544.31,-115.27"/>
</g>
<!-- v17 -->
<g id="node35" class="node">
<title>v17</title>
<ellipse fill="none" stroke="black" cx="1738.32" cy="-42.5" rx="27" ry="18"/>
<text text-anchor="middle" x="1738.32" y="-37.45" font-family="Times,serif" font-size="14.00">1&#39;0</text>
</g>
<!-- x18 -->
<g id="node36" class="node">
<title>x18</title>
<path fill="none" stroke="black" d="M1830.19,-27.5C1830.19,-27.5 1882.19,-27.5 1882.19,-27.5 1888.19,-27.5 1894.19,-33.5 1894.19,-39.5 1894.19,-39.5 1894.19,-51.5 1894.19,-51.5 1894.19,-57.5 1888.19,-63.5 1882.19,-63.5 1882.19,-63.5 1830.19,-63.5 1830.19,-63.5 1824.19,-63.5 1818.19,-57.5 1818.19,-51.5 1818.19,-51.5 1818.19,-39.5 1818.19,-39.5 1818.19,-33.5 1824.19,-27.5 1830.19,-27.5"/>
<text text-anchor="middle" x="1856.19" y="-40.7" font-family="Times,serif" font-size="14.00">0:0 &#45; 10:10</text>
</g>
<!-- v17&#45;&gt;x18 -->
<g id="edge45" class="edge">
<title>v17:e&#45;&gt;x18:w</title>
<path fill="none" stroke="black" d="M1766.57,-42.5C1785.24,-42.5 1792.48,-44.48 1806.86,-45.22"/>
<polygon fill="black" stroke="black" points="1806.6,-48.72 1816.68,-45.46 1806.77,-41.72 1806.6,-48.72"/>
</g>
<!-- x18&#45;&gt;n13 -->
<g id="edge22" class="edge">
<title>x18:e&#45;&gt;n13:w</title>
<path fill="none" stroke="black" d="M1894.19,-45.75C1919.71,-45.75 1906.26,-86.86 1919.61,-99.71"/>
<polygon fill="black" stroke="black" points="1918.17,-102.92 1928.77,-102.99 1920.53,-96.32 1918.17,-102.92"/>
</g>
<!-- n4&#45;&gt;x7 -->
<g id="edge30" class="edge">
<title>n4:e&#45;&gt;x7:w</title>
<path fill="none" stroke="black" stroke-width="3" d="M1559.94,-115.5C1571.32,-115.5 1576.63,-115.63 1584.5,-115.7"/>
<polygon fill="black" stroke="black" stroke-width="3" points="1581.39,-119.19 1591.4,-115.73 1581.42,-112.19 1581.39,-119.19"/>
</g>
</g>
</svg>
