<?xml version="1.0" encoding="UTF-8" standalone="no"?>
<!DOCTYPE svg PUBLIC "-//W3C//DTD SVG 1.1//EN"
 "http://www.w3.org/Graphics/SVG/1.1/DTD/svg11.dtd">
<!-- Generated by graphviz version 12.2.1 (20241206.2353)
 -->
<!-- Title: top Pages: 1 -->
<svg width="3472pt" height="558pt"
 viewBox="0.00 0.00 3471.74 558.45" xmlns="http://www.w3.org/2000/svg" xmlns:xlink="http://www.w3.org/1999/xlink">
<g id="graph0" class="graph" transform="scale(1 1) rotate(0) translate(4 554.45)">
<title>top</title>
<polygon fill="white" stroke="none" points="-4,4 -4,-554.45 3467.74,-554.45 3467.74,4 -4,4"/>
<text text-anchor="middle" x="1731.87" y="-7.2" font-family="Times,serif" font-size="14.00">top</text>
<!-- n12 -->
<g id="node1" class="node">
<title>n12</title>
<polygon fill="none" stroke="black" points="107.84,-276.54 107.84,-291.46 76.26,-302 31.59,-302 0,-291.46 0,-276.54 31.59,-266 76.26,-266 107.84,-276.54"/>
<text text-anchor="middle" x="53.92" y="-278.95" font-family="Times,serif" font-size="14.00">input_data</text>
</g>
<!-- x0 -->
<g id="node7" class="node">
<title>x0</title>
<path fill="none" stroke="black" d="M297.84,-275C297.84,-275 343.09,-275 343.09,-275 349.09,-275 355.09,-281 355.09,-287 355.09,-287 355.09,-299 355.09,-299 355.09,-305 349.09,-311 343.09,-311 343.09,-311 297.84,-311 297.84,-311 291.84,-311 285.84,-305 285.84,-299 285.84,-299 285.84,-287 285.84,-287 285.84,-281 291.84,-275 297.84,-275"/>
<text text-anchor="middle" x="320.47" y="-288.2" font-family="Times,serif" font-size="14.00">10:5 &#45; 5:0</text>
</g>
<!-- n12&#45;&gt;x0 -->
<g id="edge27" class="edge">
<title>n12:e&#45;&gt;x0:w</title>
<path fill="none" stroke="black" stroke-width="3" d="M107.84,-284C182.77,-284 204.03,-292.37 273.71,-293.19"/>
<polygon fill="black" stroke="black" stroke-width="3" points="270.28,-296.67 280.3,-293.22 270.32,-289.67 270.28,-296.67"/>
</g>
<!-- c21 -->
<g id="node8" class="node">
<title>c21</title>
<polygon fill="none" stroke="black" points="1049.59,-127.5 1049.59,-176.5 1143.34,-176.5 1143.34,-127.5 1049.59,-127.5"/>
<text text-anchor="middle" x="1062.47" y="-159.2" font-family="Times,serif" font-size="14.00">A</text>
<polyline fill="none" stroke="black" points="1049.59,-152 1075.34,-152"/>
<text text-anchor="middle" x="1062.47" y="-134.7" font-family="Times,serif" font-size="14.00">B</text>
<polyline fill="none" stroke="black" points="1075.34,-127.5 1075.34,-176.5"/>
<text text-anchor="middle" x="1096.47" y="-155.2" font-family="Times,serif" font-size="14.00">$5</text>
<text text-anchor="middle" x="1096.47" y="-138.7" font-family="Times,serif" font-size="14.00">$add</text>
<polyline fill="none" stroke="black" points="1117.59,-127.5 1117.59,-176.5"/>
<text text-anchor="middle" x="1130.47" y="-147.2" font-family="Times,serif" font-size="14.00">Y</text>
</g>
<!-- n12&#45;&gt;c21 -->
<g id="edge22" class="edge">
<title>n12:e&#45;&gt;c21:w</title>
<path fill="none" stroke="black" stroke-width="3" d="M107.84,-284C171.66,-284 95.32,-186.45 143.84,-145 203.47,-94.07 241.05,-128 319.47,-128 319.47,-128 319.47,-128 856.47,-128 938.6,-128 961.57,-138.72 1038.38,-139.68"/>
<polygon fill="black" stroke="black" stroke-width="3" points="1035.03,-143.16 1045.05,-139.72 1035.07,-136.16 1035.03,-143.16"/>
</g>
<!-- x1 -->
<g id="node9" class="node">
<title>x1</title>
<path fill="none" stroke="black" d="M949.59,-168.5C949.59,-168.5 1001.59,-168.5 1001.59,-168.5 1007.59,-168.5 1013.59,-174.5 1013.59,-180.5 1013.59,-180.5 1013.59,-205.5 1013.59,-205.5 1013.59,-211.5 1007.59,-217.5 1001.59,-217.5 1001.59,-217.5 949.59,-217.5 949.59,-217.5 943.59,-217.5 937.59,-211.5 937.59,-205.5 937.59,-205.5 937.59,-180.5 937.59,-180.5 937.59,-174.5 943.59,-168.5 949.59,-168.5"/>
<text text-anchor="middle" x="975.59" y="-200.2" font-family="Times,serif" font-size="14.00">14:6 &#45; 14:6</text>
<polyline fill="none" stroke="black" points="937.59,-193 1013.59,-193"/>
<text text-anchor="middle" x="975.59" y="-175.7" font-family="Times,serif" font-size="14.00">5:0 &#45; 5:0</text>
</g>
<!-- n12&#45;&gt;x1 -->
<g id="edge31" class="edge">
<title>n12:e&#45;&gt;x1:w</title>
<path fill="none" stroke="black" stroke-width="3" d="M107.84,-284C125.73,-284 126.78,-271.36 143.84,-266 255.04,-231.05 287.21,-237.98 403.34,-228 624.05,-209.03 682.41,-247.07 901.59,-215 913.38,-213.28 918.26,-208.99 926.22,-206.72"/>
<polygon fill="black" stroke="black" stroke-width="3" points="923.62,-210.59 933.09,-205.83 922.72,-203.64 923.62,-210.59"/>
</g>
<!-- c22 -->
<g id="node10" class="node">
<title>c22</title>
<polygon fill="none" stroke="black" points="273.59,-420.5 273.59,-469.5 367.34,-469.5 367.34,-420.5 273.59,-420.5"/>
<text text-anchor="middle" x="286.47" y="-452.2" font-family="Times,serif" font-size="14.00">A</text>
<polyline fill="none" stroke="black" points="273.59,-445 299.34,-445"/>
<text text-anchor="middle" x="286.47" y="-427.7" font-family="Times,serif" font-size="14.00">B</text>
<polyline fill="none" stroke="black" points="299.34,-420.5 299.34,-469.5"/>
<text text-anchor="middle" x="320.47" y="-448.2" font-family="Times,serif" font-size="14.00">$8</text>
<text text-anchor="middle" x="320.47" y="-431.7" font-family="Times,serif" font-size="14.00">$add</text>
<polyline fill="none" stroke="black" points="341.59,-420.5 341.59,-469.5"/>
<text text-anchor="middle" x="354.47" y="-440.2" font-family="Times,serif" font-size="14.00">Y</text>
</g>
<!-- n12&#45;&gt;c22 -->
<g id="edge23" class="edge">
<title>n12:e&#45;&gt;c22:w</title>
<path fill="none" stroke="black" stroke-width="3" d="M107.84,-284C167.79,-284 98.85,-374.37 143.84,-414 184.66,-449.95 211.57,-435.12 262.37,-432.99"/>
<polygon fill="black" stroke="black" stroke-width="3" points="259.13,-436.56 269.05,-432.85 258.98,-429.56 259.13,-436.56"/>
</g>
<!-- x2 -->
<g id="node12" class="node">
<title>x2</title>
<path fill="none" stroke="black" d="M427.59,-237C427.59,-237 472.84,-237 472.84,-237 478.84,-237 484.84,-243 484.84,-249 484.84,-249 484.84,-261 484.84,-261 484.84,-267 478.84,-273 472.84,-273 472.84,-273 427.59,-273 427.59,-273 421.59,-273 415.59,-267 415.59,-261 415.59,-261 415.59,-249 415.59,-249 415.59,-243 421.59,-237 427.59,-237"/>
<text text-anchor="middle" x="450.22" y="-250.2" font-family="Times,serif" font-size="14.00">12:7 &#45; 5:0</text>
</g>
<!-- n12&#45;&gt;x2 -->
<g id="edge32" class="edge">
<title>n12:e&#45;&gt;x2:w</title>
<path fill="none" stroke="black" stroke-width="3" d="M107.84,-284C126.37,-284 255.14,-267.7 273.59,-266 332.26,-260.58 349.61,-255.87 403.34,-255.31"/>
<polygon fill="black" stroke="black" stroke-width="3" points="400.07,-258.82 410.05,-255.27 400.03,-251.82 400.07,-258.82"/>
</g>
<!-- c24 -->
<g id="node13" class="node">
<title>c24</title>
<polygon fill="none" stroke="black" points="143.84,-461.5 143.84,-510.5 237.59,-510.5 237.59,-461.5 143.84,-461.5"/>
<text text-anchor="middle" x="156.72" y="-493.2" font-family="Times,serif" font-size="14.00">A</text>
<polyline fill="none" stroke="black" points="143.84,-486 169.59,-486"/>
<text text-anchor="middle" x="156.72" y="-468.7" font-family="Times,serif" font-size="14.00">B</text>
<polyline fill="none" stroke="black" points="169.59,-461.5 169.59,-510.5"/>
<text text-anchor="middle" x="190.72" y="-489.2" font-family="Times,serif" font-size="14.00">$7</text>
<text text-anchor="middle" x="190.72" y="-472.7" font-family="Times,serif" font-size="14.00">$and</text>
<polyline fill="none" stroke="black" points="211.84,-461.5 211.84,-510.5"/>
<text text-anchor="middle" x="224.72" y="-481.2" font-family="Times,serif" font-size="14.00">Y</text>
</g>
<!-- n12&#45;&gt;c24 -->
<g id="edge24" class="edge">
<title>n12:e&#45;&gt;c24:w</title>
<path fill="none" stroke="black" stroke-width="3" d="M107.84,-284C200.25,-284 60.32,-480.23 132.76,-497.1"/>
<polygon fill="black" stroke="black" stroke-width="3" points="129.02,-500.23 139.32,-497.78 129.74,-493.26 129.02,-500.23"/>
</g>
<!-- n12&#45;&gt;c24 -->
<g id="edge25" class="edge">
<title>n12:e&#45;&gt;c24:w</title>
<path fill="none" stroke="black" stroke-width="3" d="M107.84,-284C189.32,-284 71.21,-454.97 132.42,-472.33"/>
<polygon fill="black" stroke="black" stroke-width="3" points="128.98,-475.43 139.33,-473.19 129.84,-468.48 128.98,-475.43"/>
</g>
<!-- x3 -->
<g id="node16" class="node">
<title>x3</title>
<path fill="none" stroke="black" d="M560.72,-157C560.72,-157 599.22,-157 599.22,-157 605.22,-157 611.22,-163 611.22,-169 611.22,-169 611.22,-181 611.22,-181 611.22,-187 605.22,-193 599.22,-193 599.22,-193 560.72,-193 560.72,-193 554.72,-193 548.72,-187 548.72,-181 548.72,-181 548.72,-169 548.72,-169 548.72,-163 554.72,-157 560.72,-157"/>
<text text-anchor="middle" x="579.97" y="-170.2" font-family="Times,serif" font-size="14.00">5:0 &#45; 5:0</text>
</g>
<!-- n12&#45;&gt;x3 -->
<g id="edge33" class="edge">
<title>n12:e&#45;&gt;x3:w</title>
<path fill="none" stroke="black" stroke-width="3" d="M107.84,-284C150.92,-284 108.74,-218.97 143.84,-194 287.12,-92.07 364.65,-171.67 536.27,-175.13"/>
<polygon fill="black" stroke="black" stroke-width="3" points="533.14,-178.6 543.18,-175.2 533.21,-171.6 533.14,-178.6"/>
</g>
<!-- x6 -->
<g id="node21" class="node">
<title>x6</title>
<path fill="none" stroke="black" d="M1070.47,-434C1070.47,-434 1122.47,-434 1122.47,-434 1128.47,-434 1134.47,-440 1134.47,-446 1134.47,-446 1134.47,-458 1134.47,-458 1134.47,-464 1128.47,-470 1122.47,-470 1122.47,-470 1070.47,-470 1070.47,-470 1064.47,-470 1058.47,-464 1058.47,-458 1058.47,-458 1058.47,-446 1058.47,-446 1058.47,-440 1064.47,-434 1070.47,-434"/>
<text text-anchor="middle" x="1096.47" y="-447.2" font-family="Times,serif" font-size="14.00">12:10 &#45; 2:0</text>
</g>
<!-- n12&#45;&gt;x6 -->
<g id="edge34" class="edge">
<title>n12:e&#45;&gt;x6:w</title>
<path fill="none" stroke="black" stroke-width="3" d="M107.84,-284C160.89,-284 105.52,-483.31 143.84,-520 200.55,-574.29 240.95,-539 319.47,-539 319.47,-539 319.47,-539 856.47,-539 949.87,-539 959.51,-459.06 1046.21,-452.66"/>
<polygon fill="black" stroke="black" stroke-width="3" points="1043.06,-456.27 1052.93,-452.41 1042.81,-449.28 1043.06,-456.27"/>
</g>
<!-- x11 -->
<g id="node28" class="node">
<title>x11</title>
<path fill="none" stroke="black" d="M430.97,-25C430.97,-25 469.47,-25 469.47,-25 475.47,-25 481.47,-31 481.47,-37 481.47,-37 481.47,-49 481.47,-49 481.47,-55 475.47,-61 469.47,-61 469.47,-61 430.97,-61 430.97,-61 424.97,-61 418.97,-55 418.97,-49 418.97,-49 418.97,-37 418.97,-37 418.97,-31 424.97,-25 430.97,-25"/>
<text text-anchor="middle" x="450.22" y="-38.2" font-family="Times,serif" font-size="14.00">2:0 &#45; 2:0</text>
</g>
<!-- n12&#45;&gt;x11 -->
<g id="edge28" class="edge">
<title>n12:e&#45;&gt;x11:w</title>
<path fill="none" stroke="black" stroke-width="3" d="M107.84,-284C154.75,-284 109.81,-108.29 143.84,-76 230.07,5.82 291.34,-40.15 406.64,-43.1"/>
<polygon fill="black" stroke="black" stroke-width="3" points="403.38,-46.56 413.43,-43.19 403.47,-39.56 403.38,-46.56"/>
</g>
<!-- x12 -->
<g id="node30" class="node">
<title>x12</title>
<path fill="none" stroke="black" d="M168.09,-368C168.09,-368 213.34,-368 213.34,-368 219.34,-368 225.34,-374 225.34,-380 225.34,-380 225.34,-392 225.34,-392 225.34,-398 219.34,-404 213.34,-404 213.34,-404 168.09,-404 168.09,-404 162.09,-404 156.09,-398 156.09,-392 156.09,-392 156.09,-380 156.09,-380 156.09,-374 162.09,-368 168.09,-368"/>
<text text-anchor="middle" x="190.72" y="-381.2" font-family="Times,serif" font-size="14.00">14:9 &#45; 5:0</text>
</g>
<!-- n12&#45;&gt;x12 -->
<g id="edge29" class="edge">
<title>n12:e&#45;&gt;x12:w</title>
<path fill="none" stroke="black" stroke-width="3" d="M107.84,-284C153.41,-284 113.7,-368.7 143.94,-383.92"/>
<polygon fill="black" stroke="black" stroke-width="3" points="140.14,-386.7 150.65,-385.32 141.57,-379.85 140.14,-386.7"/>
</g>
<!-- x13 -->
<g id="node31" class="node">
<title>x13</title>
<path fill="none" stroke="black" d="M171.47,-313C171.47,-313 209.97,-313 209.97,-313 215.97,-313 221.97,-319 221.97,-325 221.97,-325 221.97,-337 221.97,-337 221.97,-343 215.97,-349 209.97,-349 209.97,-349 171.47,-349 171.47,-349 165.47,-349 159.47,-343 159.47,-337 159.47,-337 159.47,-325 159.47,-325 159.47,-319 165.47,-313 171.47,-313"/>
<text text-anchor="middle" x="190.72" y="-326.2" font-family="Times,serif" font-size="14.00">9:4 &#45; 5:0</text>
</g>
<!-- n12&#45;&gt;x13 -->
<g id="edge30" class="edge">
<title>n12:e&#45;&gt;x13:w</title>
<path fill="none" stroke="black" stroke-width="3" d="M107.84,-284C134.29,-284 129.94,-318.9 147.72,-328.71"/>
<polygon fill="black" stroke="black" stroke-width="3" points="143.51,-331.31 154.05,-330.2 145.12,-324.5 143.51,-331.31"/>
</g>
<!-- c35 -->
<g id="node36" class="node">
<title>c35</title>
<polygon fill="none" stroke="black" points="1233.19,-115.5 1233.19,-164.5 1325.44,-164.5 1325.44,-115.5 1233.19,-115.5"/>
<text text-anchor="middle" x="1246.07" y="-147.2" font-family="Times,serif" font-size="14.00">A</text>
<polyline fill="none" stroke="black" points="1233.19,-140 1258.94,-140"/>
<text text-anchor="middle" x="1246.07" y="-122.7" font-family="Times,serif" font-size="14.00">B</text>
<polyline fill="none" stroke="black" points="1258.94,-115.5 1258.94,-164.5"/>
<text text-anchor="middle" x="1279.32" y="-143.2" font-family="Times,serif" font-size="14.00">$6</text>
<text text-anchor="middle" x="1279.32" y="-126.7" font-family="Times,serif" font-size="14.00">$xor</text>
<polyline fill="none" stroke="black" points="1299.69,-115.5 1299.69,-164.5"/>
<text text-anchor="middle" x="1312.57" y="-135.2" font-family="Times,serif" font-size="14.00">Y</text>
</g>
<!-- n12&#45;&gt;c35 -->
<g id="edge26" class="edge">
<title>n12:e&#45;&gt;c35:w</title>
<path fill="none" stroke="black" stroke-width="3" d="M107.84,-284C185.51,-284 86.84,-165.76 143.84,-113 201.61,-59.53 240.74,-90 319.47,-90 319.47,-90 319.47,-90 976.59,-90 1030.53,-90 1158.03,-123.32 1220.88,-127.35"/>
<polygon fill="black" stroke="black" stroke-width="3" points="1217.54,-130.74 1227.65,-127.59 1217.78,-123.74 1217.54,-130.74"/>
</g>
<!-- n13 -->
<g id="node2" class="node">
<title>n13</title>
<polygon fill="none" stroke="black" points="3463.74,-225.54 3463.74,-240.46 3429.23,-251 3380.43,-251 3345.92,-240.46 3345.92,-225.54 3380.43,-215 3429.23,-215 3463.74,-225.54"/>
<text text-anchor="middle" x="3404.83" y="-227.95" font-family="Times,serif" font-size="14.00">output_data</text>
</g>
<!-- n14 -->
<g id="node3" class="node">
<title>n14</title>
<polygon fill="none" stroke="black" points="718.09,-292 662.84,-274 718.09,-256 773.34,-274 718.09,-292"/>
<text text-anchor="middle" x="718.09" y="-268.95" font-family="Times,serif" font-size="14.00">temp_0</text>
</g>
<!-- c26 -->
<g id="node15" class="node">
<title>c26</title>
<polygon fill="none" stroke="black" points="809.34,-156.5 809.34,-205.5 901.59,-205.5 901.59,-156.5 809.34,-156.5"/>
<text text-anchor="middle" x="822.22" y="-188.2" font-family="Times,serif" font-size="14.00">A</text>
<polyline fill="none" stroke="black" points="809.34,-181 835.09,-181"/>
<text text-anchor="middle" x="822.22" y="-163.7" font-family="Times,serif" font-size="14.00">B</text>
<polyline fill="none" stroke="black" points="835.09,-156.5 835.09,-205.5"/>
<text text-anchor="middle" x="855.47" y="-184.2" font-family="Times,serif" font-size="14.00">$43</text>
<text text-anchor="middle" x="855.47" y="-167.7" font-family="Times,serif" font-size="14.00">$xor</text>
<polyline fill="none" stroke="black" points="875.84,-156.5 875.84,-205.5"/>
<text text-anchor="middle" x="888.72" y="-176.2" font-family="Times,serif" font-size="14.00">Y</text>
</g>
<!-- n14&#45;&gt;c26 -->
<g id="edge38" class="edge">
<title>n14:e&#45;&gt;c26:w</title>
<path fill="none" stroke="black" stroke-width="3" d="M773.34,-274C818.15,-274 770.71,-187.56 798.21,-171.35"/>
<polygon fill="black" stroke="black" stroke-width="3" points="795.98,-175.47 804.92,-169.78 794.39,-168.65 795.98,-175.47"/>
</g>
<!-- c27 -->
<g id="node17" class="node">
<title>c27</title>
<polygon fill="none" stroke="black" points="811.59,-301.5 811.59,-350.5 899.34,-350.5 899.34,-301.5 811.59,-301.5"/>
<text text-anchor="middle" x="824.47" y="-333.2" font-family="Times,serif" font-size="14.00">A</text>
<polyline fill="none" stroke="black" points="811.59,-326 837.34,-326"/>
<text text-anchor="middle" x="824.47" y="-308.7" font-family="Times,serif" font-size="14.00">B</text>
<polyline fill="none" stroke="black" points="837.34,-301.5 837.34,-350.5"/>
<text text-anchor="middle" x="855.47" y="-329.2" font-family="Times,serif" font-size="14.00">$46</text>
<text text-anchor="middle" x="855.47" y="-312.7" font-family="Times,serif" font-size="14.00">$or</text>
<polyline fill="none" stroke="black" points="873.59,-301.5 873.59,-350.5"/>
<text text-anchor="middle" x="886.47" y="-321.2" font-family="Times,serif" font-size="14.00">Y</text>
</g>
<!-- n14&#45;&gt;c27 -->
<g id="edge39" class="edge">
<title>n14:e&#45;&gt;c27:w</title>
<path fill="none" stroke="black" stroke-width="3" d="M773.34,-274C792.82,-274 789.4,-299.74 799.93,-309.79"/>
<polygon fill="black" stroke="black" stroke-width="3" points="795.74,-311.97 806.33,-312.17 798.18,-305.41 795.74,-311.97"/>
</g>
<!-- c32 -->
<g id="node32" class="node">
<title>c32</title>
<polygon fill="none" stroke="black" points="1534.04,-252.5 1534.04,-293.5 1675.04,-293.5 1675.04,-252.5 1534.04,-252.5"/>
<text text-anchor="middle" x="1546.91" y="-268.2" font-family="Times,serif" font-size="14.00">A</text>
<polyline fill="none" stroke="black" points="1559.79,-252.5 1559.79,-293.5"/>
<text text-anchor="middle" x="1604.54" y="-276.2" font-family="Times,serif" font-size="14.00">$10</text>
<text text-anchor="middle" x="1604.54" y="-259.7" font-family="Times,serif" font-size="14.00">$reduce_bool</text>
<polyline fill="none" stroke="black" points="1649.29,-252.5 1649.29,-293.5"/>
<text text-anchor="middle" x="1662.16" y="-268.2" font-family="Times,serif" font-size="14.00">Y</text>
</g>
<!-- n14&#45;&gt;c32 -->
<g id="edge40" class="edge">
<title>n14:e&#45;&gt;c32:w</title>
<path fill="none" stroke="black" stroke-width="3" d="M773.34,-274C862.79,-274 885.15,-273 974.59,-273 974.59,-273 974.59,-273 1280.32,-273 1389.23,-273 1419.25,-273.23 1522.77,-273.25"/>
<polygon fill="black" stroke="black" stroke-width="3" points="1519.5,-276.75 1529.5,-273.25 1519.5,-269.75 1519.5,-276.75"/>
</g>
<!-- n15 -->
<g id="node4" class="node">
<title>n15</title>
<polygon fill="none" stroke="black" points="2013.29,-315 1958.04,-297 2013.29,-279 2068.54,-297 2013.29,-315"/>
<text text-anchor="middle" x="2013.29" y="-291.95" font-family="Times,serif" font-size="14.00">temp_1</text>
</g>
<!-- c25 -->
<g id="node14" class="node">
<title>c25</title>
<polygon fill="none" stroke="black" points="2104.54,-287.5 2104.54,-336.5 2198.29,-336.5 2198.29,-287.5 2104.54,-287.5"/>
<text text-anchor="middle" x="2117.41" y="-319.2" font-family="Times,serif" font-size="14.00">A</text>
<polyline fill="none" stroke="black" points="2104.54,-312 2130.29,-312"/>
<text text-anchor="middle" x="2117.41" y="-294.7" font-family="Times,serif" font-size="14.00">B</text>
<polyline fill="none" stroke="black" points="2130.29,-287.5 2130.29,-336.5"/>
<text text-anchor="middle" x="2151.41" y="-315.2" font-family="Times,serif" font-size="14.00">$12</text>
<text text-anchor="middle" x="2151.41" y="-298.7" font-family="Times,serif" font-size="14.00">$and</text>
<polyline fill="none" stroke="black" points="2172.54,-287.5 2172.54,-336.5"/>
<text text-anchor="middle" x="2185.41" y="-307.2" font-family="Times,serif" font-size="14.00">Y</text>
</g>
<!-- n15&#45;&gt;c25 -->
<g id="edge42" class="edge">
<title>n15:e&#45;&gt;c25:w</title>
<path fill="none" stroke="black" stroke-width="3" d="M2068.54,-297C2083.9,-297 2085.08,-312.97 2093.79,-320.46"/>
<polygon fill="black" stroke="black" stroke-width="3" points="2089.66,-322.71 2100.26,-322.74 2091.99,-316.11 2089.66,-322.71"/>
</g>
<!-- n15&#45;&gt;c25 -->
<g id="edge43" class="edge">
<title>n15:e&#45;&gt;c25:w</title>
<path fill="none" stroke="black" stroke-width="3" d="M2068.54,-297C2079.95,-297 2085.22,-298.39 2093.08,-299.19"/>
<polygon fill="black" stroke="black" stroke-width="3" points="2089.85,-302.54 2100,-299.53 2090.19,-295.55 2089.85,-302.54"/>
</g>
<!-- x8 -->
<g id="node24" class="node">
<title>x8</title>
<path fill="none" stroke="black" d="M2646.67,-239C2646.67,-239 2685.17,-239 2685.17,-239 2691.17,-239 2697.17,-245 2697.17,-251 2697.17,-251 2697.17,-263 2697.17,-263 2697.17,-269 2691.17,-275 2685.17,-275 2685.17,-275 2646.67,-275 2646.67,-275 2640.67,-275 2634.67,-269 2634.67,-263 2634.67,-263 2634.67,-251 2634.67,-251 2634.67,-245 2640.67,-239 2646.67,-239"/>
<text text-anchor="middle" x="2665.92" y="-252.2" font-family="Times,serif" font-size="14.00">8:6 &#45; 2:0</text>
</g>
<!-- n15&#45;&gt;x8 -->
<g id="edge45" class="edge">
<title>n15:e&#45;&gt;x8:w</title>
<path fill="none" stroke="black" stroke-width="3" d="M2068.54,-297C2086.63,-297 2087.27,-283.38 2104.54,-278 2172.91,-256.71 2192.93,-259 2264.54,-259 2264.54,-259 2264.54,-259 2410.73,-259 2506.38,-259 2533.08,-257.38 2623.34,-257.26"/>
<polygon fill="black" stroke="black" stroke-width="3" points="2620.13,-260.76 2630.13,-257.25 2620.13,-253.76 2620.13,-260.76"/>
</g>
<!-- x21 -->
<g id="node42" class="node">
<title>x21</title>
<path fill="none" stroke="black" d="M2128.79,-181.5C2128.79,-181.5 2174.04,-181.5 2174.04,-181.5 2180.04,-181.5 2186.04,-187.5 2186.04,-193.5 2186.04,-193.5 2186.04,-218.5 2186.04,-218.5 2186.04,-224.5 2180.04,-230.5 2174.04,-230.5 2174.04,-230.5 2128.79,-230.5 2128.79,-230.5 2122.79,-230.5 2116.79,-224.5 2116.79,-218.5 2116.79,-218.5 2116.79,-193.5 2116.79,-193.5 2116.79,-187.5 2122.79,-181.5 2128.79,-181.5"/>
<text text-anchor="middle" x="2151.41" y="-213.2" font-family="Times,serif" font-size="14.00">0 &#45;&gt; 33:6</text>
<polyline fill="none" stroke="black" points="2116.79,-206 2186.04,-206"/>
<text text-anchor="middle" x="2151.41" y="-188.7" font-family="Times,serif" font-size="14.00">14:9 &#45; 5:0</text>
</g>
<!-- n15&#45;&gt;x21 -->
<g id="edge44" class="edge">
<title>n15:e&#45;&gt;x21:w</title>
<path fill="none" stroke="black" stroke-width="3" d="M2068.54,-297C2114.47,-297 2074.13,-211.47 2104.56,-196.1"/>
<polygon fill="black" stroke="black" stroke-width="3" points="2102.27,-200.15 2111.34,-194.68 2100.84,-193.3 2102.27,-200.15"/>
</g>
<!-- n16 -->
<g id="node5" class="node">
<title>n16</title>
<polygon fill="none" stroke="black" points="3032.42,-321 2977.17,-303 3032.42,-285 3087.67,-303 3032.42,-321"/>
<text text-anchor="middle" x="3032.42" y="-297.95" font-family="Times,serif" font-size="14.00">temp_3</text>
</g>
<!-- c29 -->
<g id="node23" class="node">
<title>c29</title>
<polygon fill="none" stroke="black" points="3123.67,-241.5 3123.67,-290.5 3211.42,-290.5 3211.42,-241.5 3123.67,-241.5"/>
<text text-anchor="middle" x="3136.55" y="-273.2" font-family="Times,serif" font-size="14.00">A</text>
<polyline fill="none" stroke="black" points="3123.67,-266 3149.42,-266"/>
<text text-anchor="middle" x="3136.55" y="-248.7" font-family="Times,serif" font-size="14.00">B</text>
<polyline fill="none" stroke="black" points="3149.42,-241.5 3149.42,-290.5"/>
<text text-anchor="middle" x="3167.55" y="-269.2" font-family="Times,serif" font-size="14.00">$53</text>
<text text-anchor="middle" x="3167.55" y="-252.7" font-family="Times,serif" font-size="14.00">$or</text>
<polyline fill="none" stroke="black" points="3185.67,-241.5 3185.67,-290.5"/>
<text text-anchor="middle" x="3198.55" y="-261.2" font-family="Times,serif" font-size="14.00">Y</text>
</g>
<!-- n16&#45;&gt;c29 -->
<g id="edge47" class="edge">
<title>n16:e&#45;&gt;c29:w</title>
<path fill="none" stroke="black" stroke-width="3" d="M3087.67,-303C3102.39,-303 3104.32,-288.79 3112.85,-281.9"/>
<polygon fill="black" stroke="black" stroke-width="3" points="3111.02,-286.21 3119.37,-279.7 3108.78,-279.58 3111.02,-286.21"/>
</g>
<!-- c20 -->
<g id="node6" class="node">
<title>c20</title>
<polygon fill="none" stroke="black" points="403.34,-292.5 403.34,-341.5 497.09,-341.5 497.09,-292.5 403.34,-292.5"/>
<text text-anchor="middle" x="416.22" y="-324.2" font-family="Times,serif" font-size="14.00">A</text>
<polyline fill="none" stroke="black" points="403.34,-317 429.09,-317"/>
<text text-anchor="middle" x="416.22" y="-299.7" font-family="Times,serif" font-size="14.00">B</text>
<polyline fill="none" stroke="black" points="429.09,-292.5 429.09,-341.5"/>
<text text-anchor="middle" x="450.22" y="-320.2" font-family="Times,serif" font-size="14.00">$2</text>
<text text-anchor="middle" x="450.22" y="-303.7" font-family="Times,serif" font-size="14.00">$add</text>
<polyline fill="none" stroke="black" points="471.34,-292.5 471.34,-341.5"/>
<text text-anchor="middle" x="484.22" y="-312.2" font-family="Times,serif" font-size="14.00">Y</text>
</g>
<!-- c23 -->
<g id="node11" class="node">
<title>c23</title>
<polygon fill="none" stroke="black" points="533.09,-250.5 533.09,-299.5 626.84,-299.5 626.84,-250.5 533.09,-250.5"/>
<text text-anchor="middle" x="545.97" y="-282.2" font-family="Times,serif" font-size="14.00">A</text>
<polyline fill="none" stroke="black" points="533.09,-275 558.84,-275"/>
<text text-anchor="middle" x="545.97" y="-257.7" font-family="Times,serif" font-size="14.00">B</text>
<polyline fill="none" stroke="black" points="558.84,-250.5 558.84,-299.5"/>
<text text-anchor="middle" x="579.97" y="-278.2" font-family="Times,serif" font-size="14.00">$3</text>
<text text-anchor="middle" x="579.97" y="-261.7" font-family="Times,serif" font-size="14.00">$and</text>
<polyline fill="none" stroke="black" points="601.09,-250.5 601.09,-299.5"/>
<text text-anchor="middle" x="613.97" y="-270.2" font-family="Times,serif" font-size="14.00">Y</text>
</g>
<!-- c20&#45;&gt;c23 -->
<g id="edge19" class="edge">
<title>c20:e&#45;&gt;c23:w</title>
<path fill="none" stroke="black" stroke-width="3" d="M497.09,-317.25C513.2,-317.25 513.47,-299.3 522.4,-291.17"/>
<polygon fill="black" stroke="black" stroke-width="3" points="520.64,-295.54 528.83,-288.81 518.23,-288.97 520.64,-295.54"/>
</g>
<!-- x0&#45;&gt;c20 -->
<g id="edge1" class="edge">
<title>x0:e&#45;&gt;c20:w</title>
<path fill="none" stroke="black" stroke-width="3" d="M368.85,-294.63C376.99,-296.88 382.48,-300.89 390.63,-303.13"/>
<polygon fill="none" stroke="black" stroke-width="3" points="370.68,-294.87 364.22,-298.07 358.77,-293.34 365.23,-290.14 370.68,-294.87"/>
<polygon fill="none" stroke="black" stroke-width="3" points="388.75,-302.89 395.21,-299.68 400.66,-304.41 394.2,-307.62 388.75,-302.89"/>
</g>
<!-- c21&#45;&gt;c35 -->
<g id="edge48" class="edge">
<title>c21:e&#45;&gt;c35:w</title>
<path fill="none" stroke="black" stroke-width="3" d="M1143.34,-152.25C1178.82,-152.25 1190.39,-152.25 1221.01,-152.25"/>
<polygon fill="black" stroke="black" stroke-width="3" points="1217.65,-155.75 1227.65,-152.25 1217.65,-148.75 1217.65,-155.75"/>
</g>
<!-- x1&#45;&gt;c21 -->
<g id="edge2" class="edge">
<title>x1:e&#45;&gt;c21:w</title>
<path fill="none" stroke="black" stroke-width="3" d="M1025.48,-187.99C1030.45,-182.72 1032.77,-174.46 1037.76,-169.2"/>
<polygon fill="none" stroke="black" stroke-width="3" points="1027.14,-187.29 1023.17,-193.31 1016.08,-191.95 1020.06,-185.93 1027.14,-187.29"/>
<polygon fill="none" stroke="black" stroke-width="3" points="1036.03,-169.92 1040.02,-163.92 1047.1,-165.29 1043.11,-171.3 1036.03,-169.92"/>
</g>
<!-- n3 -->
<g id="node44" class="node">
<title>n3</title>
<ellipse fill="black" stroke="black" cx="579.97" cy="-385" rx="1.8" ry="1.8"/>
</g>
<!-- c22&#45;&gt;n3 -->
<g id="edge49" class="edge">
<title>c22:e&#45;&gt;n3:w</title>
<path fill="none" stroke="black" stroke-width="3" d="M367.34,-445.25C460.28,-445.25 478.48,-389.73 565.44,-385.28"/>
<polygon fill="black" stroke="black" stroke-width="3" points="562.24,-388.86 572.15,-385.11 562.06,-381.87 562.24,-388.86"/>
</g>
<!-- c23&#45;&gt;n14 -->
<g id="edge37" class="edge">
<title>c23:e&#45;&gt;n14:w</title>
<path fill="none" stroke="black" stroke-width="3" d="M626.84,-275.25C638.22,-275.25 643.52,-274.62 651.39,-274.25"/>
<polygon fill="black" stroke="black" stroke-width="3" points="648.38,-277.82 658.3,-274.1 648.23,-270.82 648.38,-277.82"/>
</g>
<!-- x2&#45;&gt;c23 -->
<g id="edge3" class="edge">
<title>x2:e&#45;&gt;c23:w</title>
<path fill="none" stroke="black" stroke-width="3" d="M498.5,-256.08C506.56,-257.54 512.19,-260.15 520.21,-261.63"/>
<polygon fill="none" stroke="black" stroke-width="3" points="500.49,-256.25 494.17,-259.72 488.54,-255.23 494.85,-251.75 500.49,-256.25"/>
<polygon fill="none" stroke="black" stroke-width="3" points="518.44,-261.48 524.77,-258.01 530.4,-262.52 524.07,-265.98 518.44,-261.48"/>
</g>
<!-- c24&#45;&gt;c22 -->
<g id="edge52" class="edge">
<title>c24:e&#45;&gt;c22:w</title>
<path fill="none" stroke="black" stroke-width="3" d="M237.59,-486.25C253.48,-486.25 254.04,-468.9 262.98,-461.04"/>
<polygon fill="black" stroke="black" stroke-width="3" points="261.08,-465.44 269.31,-458.78 258.72,-458.85 261.08,-465.44"/>
</g>
<!-- x5 -->
<g id="node20" class="node">
<title>x5</title>
<path fill="none" stroke="black" d="M2246.29,-394C2246.29,-394 2284.79,-394 2284.79,-394 2290.79,-394 2296.79,-400 2296.79,-406 2296.79,-406 2296.79,-418 2296.79,-418 2296.79,-424 2290.79,-430 2284.79,-430 2284.79,-430 2246.29,-430 2246.29,-430 2240.29,-430 2234.29,-424 2234.29,-418 2234.29,-418 2234.29,-406 2234.29,-406 2234.29,-400 2240.29,-394 2246.29,-394"/>
<text text-anchor="middle" x="2265.54" y="-407.2" font-family="Times,serif" font-size="14.00">2:0 &#45; 2:0</text>
</g>
<!-- c25&#45;&gt;x5 -->
<g id="edge53" class="edge">
<title>c25:e&#45;&gt;x5:w</title>
<path fill="none" stroke="black" stroke-width="3" d="M2198.29,-312.25C2240.91,-312.25 2197.47,-393.67 2223.28,-409.58"/>
<polygon fill="black" stroke="black" stroke-width="3" points="2219.33,-412.22 2229.88,-411.18 2220.99,-405.42 2219.33,-412.22"/>
</g>
<!-- c26&#45;&gt;x1 -->
<g id="edge57" class="edge">
<title>c26:e&#45;&gt;x1:w</title>
<path fill="none" stroke="black" stroke-width="3" d="M901.59,-181.25C912.97,-181.25 918.28,-181 926.14,-180.85"/>
<polygon fill="black" stroke="black" stroke-width="3" points="923.08,-184.38 933.05,-180.79 923.02,-177.38 923.08,-184.38"/>
</g>
<!-- x3&#45;&gt;c26 -->
<g id="edge4" class="edge">
<title>x3:e&#45;&gt;c26:w</title>
<path fill="none" stroke="black" stroke-width="3" d="M625.12,-175.14C698.44,-176.72 723.22,-191.56 796.61,-193.12"/>
<polygon fill="none" stroke="black" stroke-width="3" points="626.92,-175.16 620.88,-179.09 614.92,-175.03 620.96,-171.09 626.92,-175.16"/>
<polygon fill="none" stroke="black" stroke-width="3" points="794.64,-193.1 800.68,-189.16 806.64,-193.22 800.6,-197.16 794.64,-193.1"/>
</g>
<!-- x14 -->
<g id="node34" class="node">
<title>x14</title>
<path fill="none" stroke="black" d="M949.59,-313.5C949.59,-313.5 1001.59,-313.5 1001.59,-313.5 1007.59,-313.5 1013.59,-319.5 1013.59,-325.5 1013.59,-325.5 1013.59,-350.5 1013.59,-350.5 1013.59,-356.5 1007.59,-362.5 1001.59,-362.5 1001.59,-362.5 949.59,-362.5 949.59,-362.5 943.59,-362.5 937.59,-356.5 937.59,-350.5 937.59,-350.5 937.59,-325.5 937.59,-325.5 937.59,-319.5 943.59,-313.5 949.59,-313.5"/>
<text text-anchor="middle" x="975.59" y="-345.2" font-family="Times,serif" font-size="14.00">14:6 &#45; 14:6</text>
<polyline fill="none" stroke="black" points="937.59,-338 1013.59,-338"/>
<text text-anchor="middle" x="975.59" y="-320.7" font-family="Times,serif" font-size="14.00">5:0 &#45; 5:0</text>
</g>
<!-- c27&#45;&gt;x14 -->
<g id="edge58" class="edge">
<title>c27:e&#45;&gt;x14:w</title>
<path fill="none" stroke="black" stroke-width="3" d="M900.34,-326.25C912.37,-326.25 917.84,-325.99 926.29,-325.84"/>
<polygon fill="black" stroke="black" stroke-width="3" points="923.08,-329.37 933.05,-325.79 923.02,-322.37 923.08,-329.37"/>
</g>
<!-- x4 -->
<g id="node18" class="node">
<title>x4</title>
<path fill="none" stroke="black" d="M698.84,-320C698.84,-320 737.34,-320 737.34,-320 743.34,-320 749.34,-326 749.34,-332 749.34,-332 749.34,-344 749.34,-344 749.34,-350 743.34,-356 737.34,-356 737.34,-356 698.84,-356 698.84,-356 692.84,-356 686.84,-350 686.84,-344 686.84,-344 686.84,-332 686.84,-332 686.84,-326 692.84,-320 698.84,-320"/>
<text text-anchor="middle" x="718.09" y="-333.2" font-family="Times,serif" font-size="14.00">5:0 &#45; 5:0</text>
</g>
<!-- x4&#45;&gt;c27 -->
<g id="edge5" class="edge">
<title>x4:e&#45;&gt;c27:w</title>
<path fill="none" stroke="black" stroke-width="3" d="M763.06,-338.02C776.43,-338.07 784.51,-338.18 797.88,-338.23"/>
<polygon fill="none" stroke="black" stroke-width="3" points="765.05,-338.02 759.04,-342.01 753.05,-338 759.05,-334.01 765.05,-338.02"/>
<polygon fill="none" stroke="black" stroke-width="3" points="795.89,-338.23 801.89,-334.24 807.89,-338.25 801.88,-342.24 795.89,-338.23"/>
</g>
<!-- c28 -->
<g id="node19" class="node">
<title>c28</title>
<polygon fill="none" stroke="black" points="2362.86,-352.5 2362.86,-401.5 2456.61,-401.5 2456.61,-352.5 2362.86,-352.5"/>
<text text-anchor="middle" x="2375.73" y="-384.2" font-family="Times,serif" font-size="14.00">A</text>
<polyline fill="none" stroke="black" points="2362.86,-377 2388.61,-377"/>
<text text-anchor="middle" x="2375.73" y="-359.7" font-family="Times,serif" font-size="14.00">B</text>
<polyline fill="none" stroke="black" points="2388.61,-352.5 2388.61,-401.5"/>
<text text-anchor="middle" x="2409.73" y="-380.2" font-family="Times,serif" font-size="14.00">$49</text>
<text text-anchor="middle" x="2409.73" y="-363.7" font-family="Times,serif" font-size="14.00">$and</text>
<polyline fill="none" stroke="black" points="2430.86,-352.5 2430.86,-401.5"/>
<text text-anchor="middle" x="2443.73" y="-372.2" font-family="Times,serif" font-size="14.00">Y</text>
</g>
<!-- x7 -->
<g id="node22" class="node">
<title>x7</title>
<path fill="none" stroke="black" d="M2541.42,-353C2541.42,-353 2579.92,-353 2579.92,-353 2585.92,-353 2591.92,-359 2591.92,-365 2591.92,-365 2591.92,-377 2591.92,-377 2591.92,-383 2585.92,-389 2579.92,-389 2579.92,-389 2541.42,-389 2541.42,-389 2535.42,-389 2529.42,-383 2529.42,-377 2529.42,-377 2529.42,-365 2529.42,-365 2529.42,-359 2535.42,-353 2541.42,-353"/>
<text text-anchor="middle" x="2560.67" y="-366.2" font-family="Times,serif" font-size="14.00">2:0 &#45; 2:0</text>
</g>
<!-- c28&#45;&gt;x7 -->
<g id="edge8" class="edge">
<title>c28:e&#45;&gt;x7:w</title>
<path fill="none" stroke="black" stroke-width="3" d="M2470.55,-376.86C2488.21,-375.74 2497.82,-372.51 2515.48,-371.39"/>
<polygon fill="none" stroke="black" stroke-width="3" points="2472.3,-376.81 2466.43,-380.99 2460.31,-377.17 2466.19,-372.99 2472.3,-376.81"/>
<polygon fill="none" stroke="black" stroke-width="3" points="2513.73,-371.44 2519.6,-367.26 2525.72,-371.08 2519.84,-375.26 2513.73,-371.44"/>
</g>
<!-- x5&#45;&gt;c28 -->
<g id="edge6" class="edge">
<title>x5:e&#45;&gt;c28:w</title>
<path fill="none" stroke="black" stroke-width="3" d="M2309.66,-410.44C2325.64,-406.26 2333.13,-394.88 2349.17,-390.76"/>
<polygon fill="none" stroke="black" stroke-width="3" points="2311.39,-410.23 2305.91,-414.92 2299.47,-411.67 2304.95,-406.98 2311.39,-410.23"/>
<polygon fill="none" stroke="black" stroke-width="3" points="2347.26,-390.99 2352.74,-386.31 2359.17,-389.57 2353.69,-394.25 2347.26,-390.99"/>
</g>
<!-- x6&#45;&gt;c28 -->
<g id="edge7" class="edge">
<title>x6:e&#45;&gt;c28:w</title>
<path fill="none" stroke="black" stroke-width="3" d="M1148.12,-451.78C1284.52,-446.98 1312.51,-365 1455.66,-365 1455.66,-365 1455.66,-365 2152.41,-365 2241.05,-365 2266.38,-364.77 2348.96,-364.75"/>
<polygon fill="none" stroke="black" stroke-width="3" points="1150.17,-451.74 1144.24,-455.85 1138.17,-451.95 1144.1,-447.85 1150.17,-451.74"/>
<polygon fill="none" stroke="black" stroke-width="3" points="2347.15,-364.75 2353.15,-360.75 2359.15,-364.75 2353.15,-368.75 2347.15,-364.75"/>
</g>
<!-- n6 -->
<g id="node45" class="node">
<title>n6</title>
<ellipse fill="black" stroke="black" cx="2665.92" cy="-311" rx="1.8" ry="1.8"/>
</g>
<!-- x7&#45;&gt;n6 -->
<g id="edge55" class="edge">
<title>x7:e&#45;&gt;n6:w</title>
<path fill="none" stroke="black" stroke-width="3" d="M2592.92,-371.25C2629.56,-371.25 2623.67,-323.04 2651.34,-312.87"/>
<polygon fill="black" stroke="black" stroke-width="3" points="2648.87,-316.82 2658.16,-311.74 2647.73,-309.92 2648.87,-316.82"/>
</g>
<!-- x9 -->
<g id="node25" class="node">
<title>x9</title>
<path fill="none" stroke="black" d="M3259.42,-242C3259.42,-242 3297.92,-242 3297.92,-242 3303.92,-242 3309.92,-248 3309.92,-254 3309.92,-254 3309.92,-266 3309.92,-266 3309.92,-272 3303.92,-278 3297.92,-278 3297.92,-278 3259.42,-278 3259.42,-278 3253.42,-278 3247.42,-272 3247.42,-266 3247.42,-266 3247.42,-254 3247.42,-254 3247.42,-248 3253.42,-242 3259.42,-242"/>
<text text-anchor="middle" x="3278.67" y="-255.2" font-family="Times,serif" font-size="14.00">2:0 &#45; 2:0</text>
</g>
<!-- c29&#45;&gt;x9 -->
<g id="edge10" class="edge">
<title>c29:e&#45;&gt;x9:w</title>
<path fill="none" stroke="black" stroke-width="3" d="M3224.2,-264.67C3227.88,-263.72 3231.04,-262.51 3234.73,-261.55"/>
<polygon fill="none" stroke="black" stroke-width="3" points="3226.02,-264.45 3220.55,-269.15 3214.11,-265.92 3219.57,-261.21 3226.02,-264.45"/>
<polygon fill="none" stroke="black" stroke-width="3" points="3232.83,-261.79 3238.3,-257.09 3244.74,-260.33 3239.27,-265.03 3232.83,-261.79"/>
</g>
<!-- x8&#45;&gt;c29 -->
<g id="edge9" class="edge">
<title>x8:e&#45;&gt;c29:w</title>
<path fill="none" stroke="black" stroke-width="3" d="M2710,-256.99C2884.79,-256.86 2936.07,-253.89 3110.87,-253.76"/>
<polygon fill="none" stroke="black" stroke-width="3" points="2711.88,-256.99 2705.88,-261 2699.88,-257 2705.88,-253 2711.88,-256.99"/>
<polygon fill="none" stroke="black" stroke-width="3" points="3108.97,-253.76 3114.97,-249.75 3120.97,-253.75 3114.97,-257.75 3108.97,-253.76"/>
</g>
<!-- x9&#45;&gt;n13 -->
<g id="edge36" class="edge">
<title>x9:e&#45;&gt;n13:w</title>
<path fill="none" stroke="black" stroke-width="3" d="M3309.92,-260.25C3325.29,-260.25 3326.47,-244.28 3335.18,-236.79"/>
<polygon fill="black" stroke="black" stroke-width="3" points="3333.38,-241.14 3341.64,-234.51 3331.05,-234.54 3333.38,-241.14"/>
</g>
<!-- c30 -->
<g id="node26" class="node">
<title>c30</title>
<polygon fill="none" stroke="black" points="2845.17,-282.5 2845.17,-331.5 2941.17,-331.5 2941.17,-282.5 2845.17,-282.5"/>
<text text-anchor="middle" x="2858.05" y="-314.2" font-family="Times,serif" font-size="14.00">A</text>
<polyline fill="none" stroke="black" points="2845.17,-307 2870.92,-307"/>
<text text-anchor="middle" x="2858.05" y="-289.7" font-family="Times,serif" font-size="14.00">B</text>
<polyline fill="none" stroke="black" points="2870.92,-282.5 2870.92,-331.5"/>
<text text-anchor="middle" x="2893.17" y="-310.2" font-family="Times,serif" font-size="14.00">$14</text>
<text text-anchor="middle" x="2893.17" y="-293.7" font-family="Times,serif" font-size="14.00">$mul</text>
<polyline fill="none" stroke="black" points="2915.42,-282.5 2915.42,-331.5"/>
<text text-anchor="middle" x="2928.3" y="-302.2" font-family="Times,serif" font-size="14.00">Y</text>
</g>
<!-- c30&#45;&gt;n16 -->
<g id="edge46" class="edge">
<title>c30:e&#45;&gt;n16:w</title>
<path fill="none" stroke="black" stroke-width="3" d="M2941.17,-307.25C2952.63,-307.25 2957.85,-305.1 2965.7,-303.86"/>
<polygon fill="black" stroke="black" stroke-width="3" points="2962.93,-307.58 2972.65,-303.34 2962.41,-300.6 2962.93,-307.58"/>
</g>
<!-- x10 -->
<g id="node27" class="node">
<title>x10</title>
<path fill="none" stroke="black" d="M2749.67,-296.5C2749.67,-296.5 2792.67,-296.5 2792.67,-296.5 2798.67,-296.5 2804.67,-302.5 2804.67,-308.5 2804.67,-308.5 2804.67,-333.5 2804.67,-333.5 2804.67,-339.5 2798.67,-345.5 2792.67,-345.5 2792.67,-345.5 2749.67,-345.5 2749.67,-345.5 2743.67,-345.5 2737.67,-339.5 2737.67,-333.5 2737.67,-333.5 2737.67,-308.5 2737.67,-308.5 2737.67,-302.5 2743.67,-296.5 2749.67,-296.5"/>
<text text-anchor="middle" x="2771.17" y="-328.2" font-family="Times,serif" font-size="14.00">0 &#45;&gt; 14:3</text>
<polyline fill="none" stroke="black" points="2737.67,-321 2804.67,-321"/>
<text text-anchor="middle" x="2771.17" y="-303.7" font-family="Times,serif" font-size="14.00">2:0 &#45; 2:0</text>
</g>
<!-- x10&#45;&gt;c30 -->
<g id="edge11" class="edge">
<title>x10:e&#45;&gt;c30:w</title>
<path fill="none" stroke="black" stroke-width="3" d="M2818.52,-320.63C2823.42,-320.33 2827.43,-319.92 2832.33,-319.62"/>
<polygon fill="none" stroke="black" stroke-width="3" points="2820.37,-320.58 2814.49,-324.75 2808.38,-320.92 2814.26,-316.75 2820.37,-320.58"/>
<polygon fill="none" stroke="black" stroke-width="3" points="2830.47,-319.67 2836.36,-315.5 2842.47,-319.33 2836.59,-323.5 2830.47,-319.67"/>
</g>
<!-- x11&#45;&gt;c30 -->
<g id="edge12" class="edge">
<title>x11:e&#45;&gt;c30:w</title>
<path fill="none" stroke="black" stroke-width="3" d="M495.49,-43.03C589.15,-43.42 617.27,-48 717.09,-48 717.09,-48 717.09,-48 2666.92,-48 2753.17,-48 2763.11,-107.08 2809.17,-180 2835.04,-220.95 2799.69,-281.92 2832.62,-292.99"/>
<polygon fill="none" stroke="black" stroke-width="3" points="497.17,-43.03 491.16,-47.02 485.17,-43.01 491.18,-39.02 497.17,-43.03"/>
<polygon fill="none" stroke="black" stroke-width="3" points="2830.61,-292.71 2837.11,-289.58 2842.49,-294.38 2836,-297.51 2830.61,-292.71"/>
</g>
<!-- c31 -->
<g id="node29" class="node">
<title>c31</title>
<polygon fill="none" stroke="black" points="277.72,-330.5 277.72,-379.5 363.22,-379.5 363.22,-330.5 277.72,-330.5"/>
<text text-anchor="middle" x="290.59" y="-362.2" font-family="Times,serif" font-size="14.00">A</text>
<polyline fill="none" stroke="black" points="277.72,-355 303.47,-355"/>
<text text-anchor="middle" x="290.59" y="-337.7" font-family="Times,serif" font-size="14.00">B</text>
<polyline fill="none" stroke="black" points="303.47,-330.5 303.47,-379.5"/>
<text text-anchor="middle" x="320.47" y="-358.2" font-family="Times,serif" font-size="14.00">$1</text>
<text text-anchor="middle" x="320.47" y="-341.7" font-family="Times,serif" font-size="14.00">$or</text>
<polyline fill="none" stroke="black" points="337.47,-330.5 337.47,-379.5"/>
<text text-anchor="middle" x="350.34" y="-350.2" font-family="Times,serif" font-size="14.00">Y</text>
</g>
<!-- c31&#45;&gt;c20 -->
<g id="edge20" class="edge">
<title>c31:e&#45;&gt;c20:w</title>
<path fill="none" stroke="black" stroke-width="3" d="M364.22,-355.25C380.53,-355.25 382.49,-339.38 392.52,-332.44"/>
<polygon fill="black" stroke="black" stroke-width="3" points="390.38,-336.72 398.99,-330.53 388.4,-330 390.38,-336.72"/>
</g>
<!-- x12&#45;&gt;c31 -->
<g id="edge13" class="edge">
<title>x12:e&#45;&gt;c31:w</title>
<path fill="none" stroke="black" stroke-width="3" d="M239.02,-383.85C248.75,-380.23 254.35,-372.98 264.11,-369.38"/>
<polygon fill="none" stroke="black" stroke-width="3" points="240.84,-383.54 235.59,-388.49 229.01,-385.55 234.25,-380.6 240.84,-383.54"/>
<polygon fill="none" stroke="black" stroke-width="3" points="262.22,-369.69 267.47,-364.75 274.05,-367.7 268.8,-372.64 262.22,-369.69"/>
</g>
<!-- x13&#45;&gt;c31 -->
<g id="edge14" class="edge">
<title>x13:e&#45;&gt;c31:w</title>
<path fill="none" stroke="black" stroke-width="3" d="M235.77,-332.26C246.48,-334.51 253.11,-339.2 263.79,-341.47"/>
<polygon fill="none" stroke="black" stroke-width="3" points="237.6,-332.44 231.24,-335.83 225.66,-331.26 232.02,-327.87 237.6,-332.44"/>
<polygon fill="none" stroke="black" stroke-width="3" points="262.08,-341.3 268.45,-337.91 274.02,-342.48 267.66,-345.87 262.08,-341.3"/>
</g>
<!-- c34 -->
<g id="node33" class="node">
<title>c34</title>
<polygon fill="none" stroke="black" points="1823.04,-260.25 1823.04,-333.75 1922.04,-333.75 1922.04,-260.25 1823.04,-260.25"/>
<text text-anchor="middle" x="1835.91" y="-316.45" font-family="Times,serif" font-size="14.00">A</text>
<polyline fill="none" stroke="black" points="1823.04,-309.25 1848.79,-309.25"/>
<text text-anchor="middle" x="1835.91" y="-291.95" font-family="Times,serif" font-size="14.00">B</text>
<polyline fill="none" stroke="black" points="1823.04,-284.75 1848.79,-284.75"/>
<text text-anchor="middle" x="1835.91" y="-267.45" font-family="Times,serif" font-size="14.00">S</text>
<polyline fill="none" stroke="black" points="1848.79,-260.25 1848.79,-333.75"/>
<text text-anchor="middle" x="1872.54" y="-300.2" font-family="Times,serif" font-size="14.00">$11</text>
<text text-anchor="middle" x="1872.54" y="-283.7" font-family="Times,serif" font-size="14.00">$mux</text>
<polyline fill="none" stroke="black" points="1896.29,-260.25 1896.29,-333.75"/>
<text text-anchor="middle" x="1909.16" y="-291.95" font-family="Times,serif" font-size="14.00">Y</text>
</g>
<!-- c32&#45;&gt;c34 -->
<g id="edge21" class="edge">
<title>c32:e&#45;&gt;c34:w</title>
<path fill="none" stroke="black" d="M1675.04,-273.25C1736.83,-273.25 1755.09,-272.59 1811.61,-272.51"/>
<polygon fill="black" stroke="black" points="1811.53,-276.01 1821.52,-272.5 1811.52,-269.01 1811.53,-276.01"/>
</g>
<!-- c34&#45;&gt;n15 -->
<g id="edge41" class="edge">
<title>c34:e&#45;&gt;n15:w</title>
<path fill="none" stroke="black" stroke-width="3" d="M1922.04,-297C1933.41,-297 1938.72,-297 1946.59,-297"/>
<polygon fill="black" stroke="black" stroke-width="3" points="1943.5,-300.5 1953.5,-297 1943.5,-293.5 1943.5,-300.5"/>
</g>
<!-- x14&#45;&gt;c34 -->
<g id="edge15" class="edge">
<title>x14:e&#45;&gt;c34:w</title>
<path fill="none" stroke="black" stroke-width="3" d="M1026.35,-337.94C1133.69,-336.98 1164.87,-324 1278.32,-324 1278.32,-324 1278.32,-324 1605.54,-324 1697.77,-324 1724,-321.72 1810.17,-321.52"/>
<polygon fill="none" stroke="black" stroke-width="3" points="1028.3,-337.93 1022.31,-341.96 1016.3,-337.99 1022.28,-333.96 1028.3,-337.93"/>
<polygon fill="none" stroke="black" stroke-width="3" points="1808.33,-321.52 1814.33,-317.51 1820.33,-321.5 1814.34,-325.51 1808.33,-321.52"/>
</g>
<!-- x15 -->
<g id="node35" class="node">
<title>x15</title>
<path fill="none" stroke="black" d="M1723.04,-205C1723.04,-205 1775.04,-205 1775.04,-205 1781.04,-205 1787.04,-211 1787.04,-217 1787.04,-217 1787.04,-229 1787.04,-229 1787.04,-235 1781.04,-241 1775.04,-241 1775.04,-241 1723.04,-241 1723.04,-241 1717.04,-241 1711.04,-235 1711.04,-229 1711.04,-229 1711.04,-217 1711.04,-217 1711.04,-211 1717.04,-205 1723.04,-205"/>
<text text-anchor="middle" x="1749.04" y="-218.2" font-family="Times,serif" font-size="14.00">14:0 &#45; 14:0</text>
</g>
<!-- x15&#45;&gt;c34 -->
<g id="edge16" class="edge">
<title>x15:e&#45;&gt;c34:w</title>
<path fill="none" stroke="black" stroke-width="3" d="M1798.93,-227.41C1811.46,-240.48 1798.7,-278.93 1810.9,-292.33"/>
<polygon fill="none" stroke="black" stroke-width="3" points="1800.83,-228.11 1793.81,-229.77 1789.57,-223.94 1796.59,-222.27 1800.83,-228.11"/>
<polygon fill="none" stroke="black" stroke-width="3" points="1809.31,-291.72 1816.35,-290.14 1820.51,-296.03 1813.48,-297.61 1809.31,-291.72"/>
</g>
<!-- x16 -->
<g id="node37" class="node">
<title>x16</title>
<path fill="none" stroke="black" d="M1430.66,-134C1430.66,-134 1482.66,-134 1482.66,-134 1488.66,-134 1494.66,-140 1494.66,-146 1494.66,-146 1494.66,-158 1494.66,-158 1494.66,-164 1488.66,-170 1482.66,-170 1482.66,-170 1430.66,-170 1430.66,-170 1424.66,-170 1418.66,-164 1418.66,-158 1418.66,-158 1418.66,-146 1418.66,-146 1418.66,-140 1424.66,-134 1430.66,-134"/>
<text text-anchor="middle" x="1456.66" y="-147.2" font-family="Times,serif" font-size="14.00">14:0 &#45; 14:0</text>
</g>
<!-- c35&#45;&gt;x16 -->
<g id="edge17" class="edge">
<title>c35:e&#45;&gt;x16:w</title>
<path fill="none" stroke="black" stroke-width="3" d="M1339.21,-140.67C1365.92,-142.49 1378.12,-149.74 1404.78,-151.57"/>
<polygon fill="none" stroke="black" stroke-width="3" points="1341.14,-140.73 1335.01,-144.53 1329.14,-140.34 1335.27,-136.54 1341.14,-140.73"/>
<polygon fill="none" stroke="black" stroke-width="3" points="1402.97,-151.51 1409.1,-147.71 1414.96,-151.91 1408.83,-155.71 1402.97,-151.51"/>
</g>
<!-- n9 -->
<g id="node46" class="node">
<title>n9</title>
<ellipse fill="black" stroke="black" cx="1604.54" cy="-219" rx="1.8" ry="1.8"/>
</g>
<!-- x16&#45;&gt;n9 -->
<g id="edge59" class="edge">
<title>x16:e&#45;&gt;n9:w</title>
<path fill="none" stroke="black" stroke-width="3" d="M1495.66,-152.25C1547.06,-152.25 1546.21,-209.46 1589.86,-217.95"/>
<polygon fill="black" stroke="black" stroke-width="3" points="1586.46,-221.15 1596.74,-218.58 1587.1,-214.18 1586.46,-221.15"/>
</g>
<!-- v17 -->
<g id="node38" class="node">
<title>v17</title>
<ellipse fill="none" stroke="black" cx="2409.73" cy="-311" rx="76.94" ry="18"/>
<text text-anchor="middle" x="2409.73" y="-305.95" font-family="Times,serif" font-size="14.00">12&#39;000000000000</text>
</g>
<!-- x18 -->
<g id="node39" class="node">
<title>x18</title>
<path fill="none" stroke="black" d="M2534.67,-293C2534.67,-293 2586.67,-293 2586.67,-293 2592.67,-293 2598.67,-299 2598.67,-305 2598.67,-305 2598.67,-317 2598.67,-317 2598.67,-323 2592.67,-329 2586.67,-329 2586.67,-329 2534.67,-329 2534.67,-329 2528.67,-329 2522.67,-323 2522.67,-317 2522.67,-317 2522.67,-305 2522.67,-305 2522.67,-299 2528.67,-293 2534.67,-293"/>
<text text-anchor="middle" x="2560.67" y="-306.2" font-family="Times,serif" font-size="14.00">11:0 &#45; 14:3</text>
</g>
<!-- v17&#45;&gt;x18 -->
<g id="edge62" class="edge">
<title>v17:e&#45;&gt;x18:w</title>
<path fill="none" stroke="black" stroke-width="3" d="M2486.67,-311C2498.05,-311 2503.36,-311 2511.23,-311"/>
<polygon fill="black" stroke="black" stroke-width="3" points="2508.13,-314.5 2518.13,-311 2508.13,-307.5 2508.13,-314.5"/>
</g>
<!-- x18&#45;&gt;n6 -->
<g id="edge54" class="edge">
<title>x18:e&#45;&gt;n6:w</title>
<path fill="none" stroke="black" stroke-width="3" d="M2598.67,-311.25C2622.88,-311.25 2631.63,-311.07 2651.25,-311.01"/>
<polygon fill="black" stroke="black" stroke-width="3" points="2648.11,-314.52 2658.1,-311.01 2648.1,-307.52 2648.11,-314.52"/>
</g>
<!-- v19 -->
<g id="node40" class="node">
<title>v19</title>
<ellipse fill="none" stroke="black" cx="1279.32" cy="-219" rx="99.97" ry="18"/>
<text text-anchor="middle" x="1279.32" y="-213.95" font-family="Times,serif" font-size="14.00">17&#39;00000000000000000</text>
</g>
<!-- x20 -->
<g id="node41" class="node">
<title>x20</title>
<path fill="none" stroke="black" d="M1427.29,-201C1427.29,-201 1486.04,-201 1486.04,-201 1492.04,-201 1498.04,-207 1498.04,-213 1498.04,-213 1498.04,-225 1498.04,-225 1498.04,-231 1492.04,-237 1486.04,-237 1486.04,-237 1427.29,-237 1427.29,-237 1421.29,-237 1415.29,-231 1415.29,-225 1415.29,-225 1415.29,-213 1415.29,-213 1415.29,-207 1421.29,-201 1427.29,-201"/>
<text text-anchor="middle" x="1456.66" y="-214.2" font-family="Times,serif" font-size="14.00">16:0 &#45; 31:15</text>
</g>
<!-- v19&#45;&gt;x20 -->
<g id="edge63" class="edge">
<title>v19:e&#45;&gt;x20:w</title>
<path fill="none" stroke="black" stroke-width="3" d="M1379.29,-219C1390.66,-219 1395.97,-219 1403.84,-219"/>
<polygon fill="black" stroke="black" stroke-width="3" points="1400.75,-222.5 1410.75,-219 1400.75,-215.5 1400.75,-222.5"/>
</g>
<!-- x20&#45;&gt;n9 -->
<g id="edge60" class="edge">
<title>x20:e&#45;&gt;n9:w</title>
<path fill="none" stroke="black" stroke-width="3" d="M1498.04,-219.25C1539.97,-219.25 1553.16,-219.04 1590.15,-219.01"/>
<polygon fill="black" stroke="black" stroke-width="3" points="1586.72,-222.51 1596.72,-219 1586.72,-215.51 1586.72,-222.51"/>
</g>
<!-- x22 -->
<g id="node43" class="node">
<title>x22</title>
<path fill="none" stroke="black" d="M2745.17,-189C2745.17,-189 2797.17,-189 2797.17,-189 2803.17,-189 2809.17,-195 2809.17,-201 2809.17,-201 2809.17,-213 2809.17,-213 2809.17,-219 2803.17,-225 2797.17,-225 2797.17,-225 2745.17,-225 2745.17,-225 2739.17,-225 2733.17,-219 2733.17,-213 2733.17,-213 2733.17,-201 2733.17,-201 2733.17,-195 2739.17,-189 2745.17,-189"/>
<text text-anchor="middle" x="2771.17" y="-202.2" font-family="Times,serif" font-size="14.00">33:0 &#45; 36:3</text>
</g>
<!-- x21&#45;&gt;x22 -->
<g id="edge18" class="edge">
<title>x21:e&#45;&gt;x22:w</title>
<path fill="none" stroke="black" stroke-width="3" d="M2199.88,-206.01C2287.93,-206.09 2314.63,-207 2408.73,-207 2408.73,-207 2408.73,-207 2561.67,-207 2633.43,-207 2654.52,-207 2720.34,-207"/>
<polygon fill="none" stroke="black" stroke-width="3" points="2201.74,-206.01 2195.74,-210 2189.74,-206 2195.75,-202 2201.74,-206.01"/>
<polygon fill="none" stroke="black" stroke-width="3" points="2718.47,-207 2724.47,-203 2730.47,-207 2724.47,-211 2718.47,-207"/>
</g>
<!-- x22&#45;&gt;n13 -->
<g id="edge35" class="edge">
<title>x22:e&#45;&gt;n13:w</title>
<path fill="none" stroke="black" stroke-width="3" d="M2809.17,-207.25C2907.96,-207.25 2932.64,-210 3031.42,-210 3031.42,-210 3031.42,-210 3168.55,-210 3244.16,-210 3264.49,-230.81 3334.7,-232.84"/>
<polygon fill="black" stroke="black" stroke-width="3" points="3331.34,-236.29 3341.38,-232.94 3331.43,-229.29 3331.34,-236.29"/>
</g>
<!-- n3&#45;&gt;x4 -->
<g id="edge51" class="edge">
<title>n3:e&#45;&gt;x4:w</title>
<path fill="none" stroke="black" stroke-width="3" d="M583.24,-385C629.24,-385 635.02,-345.61 674.42,-339.14"/>
<polygon fill="black" stroke="black" stroke-width="3" points="671.62,-342.87 681.31,-338.6 671.07,-335.89 671.62,-342.87"/>
</g>
<!-- n3&#45;&gt;x14 -->
<g id="edge50" class="edge">
<title>n3:e&#45;&gt;x14:w</title>
<path fill="none" stroke="black" stroke-width="3" d="M583.24,-385C725.17,-385 761.75,-384.21 901.59,-360 913.33,-357.97 918.23,-353.82 926.21,-351.65"/>
<polygon fill="black" stroke="black" stroke-width="3" points="923.59,-355.5 933.09,-350.8 922.73,-348.55 923.59,-355.5"/>
</g>
<!-- n6&#45;&gt;x10 -->
<g id="edge56" class="edge">
<title>n6:e&#45;&gt;x10:w</title>
<path fill="none" stroke="black" stroke-width="3" d="M2669.2,-311C2694.99,-311 2704.12,-309.34 2725.23,-308.87"/>
<polygon fill="black" stroke="black" stroke-width="3" points="2722.17,-312.4 2732.13,-308.8 2722.1,-305.4 2722.17,-312.4"/>
</g>
<!-- n9&#45;&gt;x15 -->
<g id="edge61" class="edge">
<title>n9:e&#45;&gt;x15:w</title>
<path fill="none" stroke="black" stroke-width="3" d="M1607.82,-219C1649.79,-219 1662.91,-222.55 1699.92,-223.16"/>
<polygon fill="black" stroke="black" stroke-width="3" points="1696.47,-226.63 1706.5,-223.21 1696.53,-219.63 1696.47,-226.63"/>
</g>
</g>
</svg>
