<?xml version="1.0" encoding="UTF-8" standalone="no"?>
<!DOCTYPE svg PUBLIC "-//W3C//DTD SVG 1.1//EN"
 "http://www.w3.org/Graphics/SVG/1.1/DTD/svg11.dtd">
<!-- Generated by graphviz version 12.2.1 (20241206.2353)
 -->
<!-- Title: top Pages: 1 -->
<svg width="3838pt" height="431pt"
 viewBox="0.00 0.00 3837.97 430.75" xmlns="http://www.w3.org/2000/svg" xmlns:xlink="http://www.w3.org/1999/xlink">
<g id="graph0" class="graph" transform="scale(1 1) rotate(0) translate(4 426.75)">
<title>top</title>
<polygon fill="white" stroke="none" points="-4,4 -4,-426.75 3833.97,-426.75 3833.97,4 -4,4"/>
<text text-anchor="middle" x="1914.99" y="-7.2" font-family="Times,serif" font-size="14.00">top</text>
<!-- n10 -->
<g id="node1" class="node">
<title>n10</title>
<polygon fill="none" stroke="black" points="107.84,-150.29 107.84,-165.21 76.26,-175.75 31.59,-175.75 0,-165.21 0,-150.29 31.59,-139.75 76.26,-139.75 107.84,-150.29"/>
<text text-anchor="middle" x="53.92" y="-152.7" font-family="Times,serif" font-size="14.00">input_data</text>
</g>
<!-- c21 -->
<g id="node13" class="node">
<title>c21</title>
<polygon fill="none" stroke="black" points="143.84,-205.25 143.84,-254.25 237.59,-254.25 237.59,-205.25 143.84,-205.25"/>
<text text-anchor="middle" x="156.72" y="-236.95" font-family="Times,serif" font-size="14.00">A</text>
<polyline fill="none" stroke="black" points="143.84,-229.75 169.59,-229.75"/>
<text text-anchor="middle" x="156.72" y="-212.45" font-family="Times,serif" font-size="14.00">B</text>
<polyline fill="none" stroke="black" points="169.59,-205.25 169.59,-254.25"/>
<text text-anchor="middle" x="190.72" y="-232.95" font-family="Times,serif" font-size="14.00">$1</text>
<text text-anchor="middle" x="190.72" y="-216.45" font-family="Times,serif" font-size="14.00">$and</text>
<polyline fill="none" stroke="black" points="211.84,-205.25 211.84,-254.25"/>
<text text-anchor="middle" x="224.72" y="-224.95" font-family="Times,serif" font-size="14.00">Y</text>
</g>
<!-- n10&#45;&gt;c21 -->
<g id="edge19" class="edge">
<title>n10:e&#45;&gt;c21:w</title>
<path fill="none" stroke="black" stroke-width="3" d="M107.84,-157.75C143.79,-157.75 112.59,-223.41 132.8,-238.8"/>
<polygon fill="black" stroke="black" stroke-width="3" points="128.9,-241.31 139.48,-240.74 130.85,-234.59 128.9,-241.31"/>
</g>
<!-- n10&#45;&gt;c21 -->
<g id="edge20" class="edge">
<title>n10:e&#45;&gt;c21:w</title>
<path fill="none" stroke="black" stroke-width="3" d="M107.84,-157.75C134,-157.75 119.57,-200.29 133.05,-213.58"/>
<polygon fill="black" stroke="black" stroke-width="3" points="128.98,-215.82 139.57,-215.95 131.37,-209.25 128.98,-215.82"/>
</g>
<!-- c23 -->
<g id="node16" class="node">
<title>c23</title>
<polygon fill="none" stroke="black" points="1386.27,-121.25 1386.27,-170.25 1480.02,-170.25 1480.02,-121.25 1386.27,-121.25"/>
<text text-anchor="middle" x="1399.15" y="-152.95" font-family="Times,serif" font-size="14.00">A</text>
<polyline fill="none" stroke="black" points="1386.27,-145.75 1412.02,-145.75"/>
<text text-anchor="middle" x="1399.15" y="-128.45" font-family="Times,serif" font-size="14.00">B</text>
<polyline fill="none" stroke="black" points="1412.02,-121.25 1412.02,-170.25"/>
<text text-anchor="middle" x="1433.15" y="-148.95" font-family="Times,serif" font-size="14.00">$77</text>
<text text-anchor="middle" x="1433.15" y="-132.45" font-family="Times,serif" font-size="14.00">$and</text>
<polyline fill="none" stroke="black" points="1454.27,-121.25 1454.27,-170.25"/>
<text text-anchor="middle" x="1467.15" y="-140.95" font-family="Times,serif" font-size="14.00">Y</text>
</g>
<!-- n10&#45;&gt;c23 -->
<g id="edge21" class="edge">
<title>n10:e&#45;&gt;c23:w</title>
<path fill="none" stroke="black" stroke-width="3" d="M107.84,-157.75C126.14,-157.75 126.92,-144.74 143.84,-137.75 199.58,-114.73 214.08,-100.75 274.39,-100.75 274.39,-100.75 274.39,-100.75 1139.67,-100.75 1245.92,-100.75 1273.26,-131.24 1373.97,-133.38"/>
<polygon fill="black" stroke="black" stroke-width="3" points="1370.7,-136.85 1380.73,-133.45 1370.77,-129.85 1370.7,-136.85"/>
</g>
<!-- x12 -->
<g id="node29" class="node">
<title>x12</title>
<path fill="none" stroke="black" d="M164.72,-34.75C164.72,-34.75 216.72,-34.75 216.72,-34.75 222.72,-34.75 228.72,-40.75 228.72,-46.75 228.72,-46.75 228.72,-58.75 228.72,-58.75 228.72,-64.75 222.72,-70.75 216.72,-70.75 216.72,-70.75 164.72,-70.75 164.72,-70.75 158.72,-70.75 152.72,-64.75 152.72,-58.75 152.72,-58.75 152.72,-46.75 152.72,-46.75 152.72,-40.75 158.72,-34.75 164.72,-34.75"/>
<text text-anchor="middle" x="190.72" y="-47.95" font-family="Times,serif" font-size="14.00">12:10 &#45; 2:0</text>
</g>
<!-- n10&#45;&gt;x12 -->
<g id="edge24" class="edge">
<title>n10:e&#45;&gt;x12:w</title>
<path fill="none" stroke="black" stroke-width="3" d="M107.84,-157.75C153.78,-157.75 110.63,-70.98 140.56,-55.38"/>
<polygon fill="black" stroke="black" stroke-width="3" points="138.23,-59.46 147.28,-53.95 136.76,-52.62 138.23,-59.46"/>
</g>
<!-- c29 -->
<g id="node31" class="node">
<title>c29</title>
<polygon fill="none" stroke="black" points="963.17,-167.25 963.17,-216.25 1056.17,-216.25 1056.17,-167.25 963.17,-167.25"/>
<text text-anchor="middle" x="976.05" y="-198.95" font-family="Times,serif" font-size="14.00">A</text>
<polyline fill="none" stroke="black" points="963.17,-191.75 988.92,-191.75"/>
<text text-anchor="middle" x="976.05" y="-174.45" font-family="Times,serif" font-size="14.00">B</text>
<polyline fill="none" stroke="black" points="988.92,-167.25 988.92,-216.25"/>
<text text-anchor="middle" x="1009.67" y="-194.95" font-family="Times,serif" font-size="14.00">$3</text>
<text text-anchor="middle" x="1009.67" y="-178.45" font-family="Times,serif" font-size="14.00">$sub</text>
<polyline fill="none" stroke="black" points="1030.42,-167.25 1030.42,-216.25"/>
<text text-anchor="middle" x="1043.3" y="-186.95" font-family="Times,serif" font-size="14.00">Y</text>
</g>
<!-- n10&#45;&gt;c29 -->
<g id="edge22" class="edge">
<title>n10:e&#45;&gt;c29:w</title>
<path fill="none" stroke="black" stroke-width="3" d="M107.84,-157.75C182.34,-157.75 199.89,-176.75 274.39,-176.75 274.39,-176.75 274.39,-176.75 714.06,-176.75 820.89,-176.75 850.4,-179.31 951.8,-179.49"/>
<polygon fill="black" stroke="black" stroke-width="3" points="948.63,-182.99 958.63,-179.5 948.64,-175.99 948.63,-182.99"/>
</g>
<!-- c30 -->
<g id="node33" class="node">
<title>c30</title>
<polygon fill="none" stroke="black" points="1092.17,-133.25 1092.17,-182.25 1185.17,-182.25 1185.17,-133.25 1092.17,-133.25"/>
<text text-anchor="middle" x="1105.05" y="-164.95" font-family="Times,serif" font-size="14.00">A</text>
<polyline fill="none" stroke="black" points="1092.17,-157.75 1117.92,-157.75"/>
<text text-anchor="middle" x="1105.05" y="-140.45" font-family="Times,serif" font-size="14.00">B</text>
<polyline fill="none" stroke="black" points="1117.92,-133.25 1117.92,-182.25"/>
<text text-anchor="middle" x="1138.67" y="-160.95" font-family="Times,serif" font-size="14.00">$4</text>
<text text-anchor="middle" x="1138.67" y="-144.45" font-family="Times,serif" font-size="14.00">$sub</text>
<polyline fill="none" stroke="black" points="1159.42,-133.25 1159.42,-182.25"/>
<text text-anchor="middle" x="1172.3" y="-152.95" font-family="Times,serif" font-size="14.00">Y</text>
</g>
<!-- n10&#45;&gt;c30 -->
<g id="edge23" class="edge">
<title>n10:e&#45;&gt;c30:w</title>
<path fill="none" stroke="black" stroke-width="3" d="M107.84,-157.75C145.09,-157.75 237.14,-138.75 274.39,-138.75 274.39,-138.75 274.39,-138.75 886.8,-138.75 974.2,-138.75 998.77,-144.93 1080.77,-145.46"/>
<polygon fill="black" stroke="black" stroke-width="3" points="1077.62,-148.95 1087.63,-145.49 1077.65,-141.95 1077.62,-148.95"/>
</g>
<!-- n11 -->
<g id="node2" class="node">
<title>n11</title>
<polygon fill="none" stroke="black" points="3829.97,-201.29 3829.97,-216.21 3795.46,-226.75 3746.67,-226.75 3712.16,-216.21 3712.16,-201.29 3746.67,-190.75 3795.46,-190.75 3829.97,-201.29"/>
<text text-anchor="middle" x="3771.07" y="-203.7" font-family="Times,serif" font-size="14.00">output_data</text>
</g>
<!-- n12 -->
<g id="node3" class="node">
<title>n12</title>
<polygon fill="none" stroke="black" points="1743.12,-233.75 1687.87,-215.75 1743.12,-197.75 1798.37,-215.75 1743.12,-233.75"/>
<text text-anchor="middle" x="1743.12" y="-210.7" font-family="Times,serif" font-size="14.00">temp_0</text>
</g>
<!-- x0 -->
<g id="node8" class="node">
<title>x0</title>
<path fill="none" stroke="black" d="M2426.63,-154.25C2426.63,-154.25 2478.63,-154.25 2478.63,-154.25 2484.63,-154.25 2490.63,-160.25 2490.63,-166.25 2490.63,-166.25 2490.63,-191.25 2490.63,-191.25 2490.63,-197.25 2484.63,-203.25 2478.63,-203.25 2478.63,-203.25 2426.63,-203.25 2426.63,-203.25 2420.63,-203.25 2414.63,-197.25 2414.63,-191.25 2414.63,-191.25 2414.63,-166.25 2414.63,-166.25 2414.63,-160.25 2420.63,-154.25 2426.63,-154.25"/>
<text text-anchor="middle" x="2452.63" y="-185.95" font-family="Times,serif" font-size="14.00">0 &#45;&gt; 16:15</text>
<polyline fill="none" stroke="black" points="2414.63,-178.75 2490.63,-178.75"/>
<text text-anchor="middle" x="2452.63" y="-161.45" font-family="Times,serif" font-size="14.00">14:0 &#45; 14:0</text>
</g>
<!-- n12&#45;&gt;x0 -->
<g id="edge28" class="edge">
<title>n12:e&#45;&gt;x0:w</title>
<path fill="none" stroke="black" stroke-width="3" d="M1798.37,-215.75C1814.47,-215.75 1818.35,-213.27 1834.37,-211.75 2087.69,-187.79 2153.48,-167.11 2402.4,-166.51"/>
<polygon fill="black" stroke="black" stroke-width="3" points="2399.09,-170.02 2409.09,-166.51 2399.08,-163.02 2399.09,-170.02"/>
</g>
<!-- x7 -->
<g id="node20" class="node">
<title>x7</title>
<path fill="none" stroke="black" d="M1899.13,-302.75C1899.13,-302.75 1951.13,-302.75 1951.13,-302.75 1957.13,-302.75 1963.13,-308.75 1963.13,-314.75 1963.13,-314.75 1963.13,-326.75 1963.13,-326.75 1963.13,-332.75 1957.13,-338.75 1951.13,-338.75 1951.13,-338.75 1899.13,-338.75 1899.13,-338.75 1893.13,-338.75 1887.13,-332.75 1887.13,-326.75 1887.13,-326.75 1887.13,-314.75 1887.13,-314.75 1887.13,-308.75 1893.13,-302.75 1899.13,-302.75"/>
<text text-anchor="middle" x="1925.13" y="-315.95" font-family="Times,serif" font-size="14.00">14:0 &#45; 14:0</text>
</g>
<!-- n12&#45;&gt;x7 -->
<g id="edge31" class="edge">
<title>n12:e&#45;&gt;x7:w</title>
<path fill="none" stroke="black" stroke-width="3" d="M1798.37,-215.75C1836.55,-215.75 1808.09,-266.06 1834.37,-293.75 1849.33,-309.51 1857.28,-317.96 1874.68,-320.31"/>
<polygon fill="black" stroke="black" stroke-width="3" points="1871.41,-323.62 1881.6,-320.73 1871.83,-316.64 1871.41,-323.62"/>
</g>
<!-- x8 -->
<g id="node21" class="node">
<title>x8</title>
<path fill="none" stroke="black" d="M1899.13,-247.75C1899.13,-247.75 1951.13,-247.75 1951.13,-247.75 1957.13,-247.75 1963.13,-253.75 1963.13,-259.75 1963.13,-259.75 1963.13,-271.75 1963.13,-271.75 1963.13,-277.75 1957.13,-283.75 1951.13,-283.75 1951.13,-283.75 1899.13,-283.75 1899.13,-283.75 1893.13,-283.75 1887.13,-277.75 1887.13,-271.75 1887.13,-271.75 1887.13,-259.75 1887.13,-259.75 1887.13,-253.75 1893.13,-247.75 1899.13,-247.75"/>
<text text-anchor="middle" x="1925.13" y="-260.95" font-family="Times,serif" font-size="14.00">14:0 &#45; 14:0</text>
</g>
<!-- n12&#45;&gt;x8 -->
<g id="edge32" class="edge">
<title>n12:e&#45;&gt;x8:w</title>
<path fill="none" stroke="black" stroke-width="3" d="M1798.37,-215.75C1817.6,-215.75 1851.71,-252.52 1875.24,-263.15"/>
<polygon fill="black" stroke="black" stroke-width="3" points="1871.18,-265.71 1881.74,-264.85 1872.95,-258.94 1871.18,-265.71"/>
</g>
<!-- x11 -->
<g id="node27" class="node">
<title>x11</title>
<path fill="none" stroke="black" d="M2426.63,-222.25C2426.63,-222.25 2478.63,-222.25 2478.63,-222.25 2484.63,-222.25 2490.63,-228.25 2490.63,-234.25 2490.63,-234.25 2490.63,-259.25 2490.63,-259.25 2490.63,-265.25 2484.63,-271.25 2478.63,-271.25 2478.63,-271.25 2426.63,-271.25 2426.63,-271.25 2420.63,-271.25 2414.63,-265.25 2414.63,-259.25 2414.63,-259.25 2414.63,-234.25 2414.63,-234.25 2414.63,-228.25 2420.63,-222.25 2426.63,-222.25"/>
<text text-anchor="middle" x="2452.63" y="-253.95" font-family="Times,serif" font-size="14.00">0 &#45;&gt; 31:15</text>
<polyline fill="none" stroke="black" points="2414.63,-246.75 2490.63,-246.75"/>
<text text-anchor="middle" x="2452.63" y="-229.45" font-family="Times,serif" font-size="14.00">14:0 &#45; 14:0</text>
</g>
<!-- n12&#45;&gt;x11 -->
<g id="edge29" class="edge">
<title>n12:e&#45;&gt;x11:w</title>
<path fill="none" stroke="black" stroke-width="3" d="M1798.37,-215.75C2068.07,-215.75 2138.08,-233.97 2402.13,-234.49"/>
<polygon fill="black" stroke="black" stroke-width="3" points="2399.08,-237.99 2409.09,-234.5 2399.09,-230.99 2399.08,-237.99"/>
</g>
<!-- x15 -->
<g id="node36" class="node">
<title>x15</title>
<path fill="none" stroke="black" d="M1899.13,-115.75C1899.13,-115.75 1951.13,-115.75 1951.13,-115.75 1957.13,-115.75 1963.13,-121.75 1963.13,-127.75 1963.13,-127.75 1963.13,-139.75 1963.13,-139.75 1963.13,-145.75 1957.13,-151.75 1951.13,-151.75 1951.13,-151.75 1899.13,-151.75 1899.13,-151.75 1893.13,-151.75 1887.13,-145.75 1887.13,-139.75 1887.13,-139.75 1887.13,-127.75 1887.13,-127.75 1887.13,-121.75 1893.13,-115.75 1899.13,-115.75"/>
<text text-anchor="middle" x="1925.13" y="-128.95" font-family="Times,serif" font-size="14.00">14:0 &#45; 14:0</text>
</g>
<!-- n12&#45;&gt;x15 -->
<g id="edge30" class="edge">
<title>n12:e&#45;&gt;x15:w</title>
<path fill="none" stroke="black" stroke-width="3" d="M1798.37,-215.75C1825.4,-215.75 1814.61,-185.18 1834.37,-166.75 1851.17,-151.08 1857.09,-138.54 1874.88,-135"/>
<polygon fill="black" stroke="black" stroke-width="3" points="1871.96,-138.78 1881.61,-134.4 1871.34,-131.8 1871.96,-138.78"/>
</g>
<!-- n13 -->
<g id="node4" class="node">
<title>n13</title>
<polygon fill="none" stroke="black" points="3387.64,-188.75 3325.88,-170.75 3387.64,-152.75 3449.41,-170.75 3387.64,-188.75"/>
<text text-anchor="middle" x="3387.64" y="-165.7" font-family="Times,serif" font-size="14.00">temp_10</text>
</g>
<!-- x18 -->
<g id="node39" class="node">
<title>x18</title>
<path fill="none" stroke="black" d="M3497.41,-162.75C3497.41,-162.75 3535.91,-162.75 3535.91,-162.75 3541.91,-162.75 3547.91,-168.75 3547.91,-174.75 3547.91,-174.75 3547.91,-186.75 3547.91,-186.75 3547.91,-192.75 3541.91,-198.75 3535.91,-198.75 3535.91,-198.75 3497.41,-198.75 3497.41,-198.75 3491.41,-198.75 3485.41,-192.75 3485.41,-186.75 3485.41,-186.75 3485.41,-174.75 3485.41,-174.75 3485.41,-168.75 3491.41,-162.75 3497.41,-162.75"/>
<text text-anchor="middle" x="3516.66" y="-175.95" font-family="Times,serif" font-size="14.00">8:6 &#45; 2:0</text>
</g>
<!-- n13&#45;&gt;x18 -->
<g id="edge34" class="edge">
<title>n13:e&#45;&gt;x18:w</title>
<path fill="none" stroke="black" stroke-width="3" d="M3449.41,-170.75C3461.5,-170.75 3466.24,-176.16 3474.31,-179.12"/>
<polygon fill="black" stroke="black" stroke-width="3" points="3470.49,-182.02 3480.93,-180.24 3471.66,-175.12 3470.49,-182.02"/>
</g>
<!-- n14 -->
<g id="node5" class="node">
<title>n14</title>
<polygon fill="none" stroke="black" points="2452.63,-113.75 2397.38,-95.75 2452.63,-77.75 2507.88,-95.75 2452.63,-113.75"/>
<text text-anchor="middle" x="2452.63" y="-90.7" font-family="Times,serif" font-size="14.00">temp_5</text>
</g>
<!-- x3 -->
<g id="node12" class="node">
<title>x3</title>
<path fill="none" stroke="black" d="M2562.63,-132.75C2562.63,-132.75 2601.13,-132.75 2601.13,-132.75 2607.13,-132.75 2613.13,-138.75 2613.13,-144.75 2613.13,-144.75 2613.13,-156.75 2613.13,-156.75 2613.13,-162.75 2607.13,-168.75 2601.13,-168.75 2601.13,-168.75 2562.63,-168.75 2562.63,-168.75 2556.63,-168.75 2550.63,-162.75 2550.63,-156.75 2550.63,-156.75 2550.63,-144.75 2550.63,-144.75 2550.63,-138.75 2556.63,-132.75 2562.63,-132.75"/>
<text text-anchor="middle" x="2581.88" y="-145.95" font-family="Times,serif" font-size="14.00">7:0 &#45; 7:0</text>
</g>
<!-- n14&#45;&gt;x3 -->
<g id="edge38" class="edge">
<title>n14:e&#45;&gt;x3:w</title>
<path fill="none" stroke="black" stroke-width="3" d="M2507.88,-95.75C2534.09,-95.75 2523.62,-135.82 2538.94,-147.71"/>
<polygon fill="black" stroke="black" stroke-width="3" points="2534.7,-150.07 2545.29,-149.66 2536.76,-143.38 2534.7,-150.07"/>
</g>
<!-- x9 -->
<g id="node23" class="node">
<title>x9</title>
<path fill="none" stroke="black" d="M2555.88,-77.75C2555.88,-77.75 2607.88,-77.75 2607.88,-77.75 2613.88,-77.75 2619.88,-83.75 2619.88,-89.75 2619.88,-89.75 2619.88,-101.75 2619.88,-101.75 2619.88,-107.75 2613.88,-113.75 2607.88,-113.75 2607.88,-113.75 2555.88,-113.75 2555.88,-113.75 2549.88,-113.75 2543.88,-107.75 2543.88,-101.75 2543.88,-101.75 2543.88,-89.75 2543.88,-89.75 2543.88,-83.75 2549.88,-77.75 2555.88,-77.75"/>
<text text-anchor="middle" x="2581.88" y="-90.95" font-family="Times,serif" font-size="14.00">14:0 &#45; 14:0</text>
</g>
<!-- n14&#45;&gt;x9 -->
<g id="edge39" class="edge">
<title>n14:e&#45;&gt;x9:w</title>
<path fill="none" stroke="black" stroke-width="3" d="M2507.88,-95.75C2519.25,-95.75 2524.56,-95.88 2532.43,-95.95"/>
<polygon fill="black" stroke="black" stroke-width="3" points="2529.32,-99.44 2539.34,-95.98 2529.35,-92.44 2529.32,-99.44"/>
</g>
<!-- x10 -->
<g id="node25" class="node">
<title>x10</title>
<path fill="none" stroke="black" d="M2938.5,-57.25C2938.5,-57.25 2990.5,-57.25 2990.5,-57.25 2996.5,-57.25 3002.5,-63.25 3002.5,-69.25 3002.5,-69.25 3002.5,-94.25 3002.5,-94.25 3002.5,-100.25 2996.5,-106.25 2990.5,-106.25 2990.5,-106.25 2938.5,-106.25 2938.5,-106.25 2932.5,-106.25 2926.5,-100.25 2926.5,-94.25 2926.5,-94.25 2926.5,-69.25 2926.5,-69.25 2926.5,-63.25 2932.5,-57.25 2938.5,-57.25"/>
<text text-anchor="middle" x="2964.5" y="-88.95" font-family="Times,serif" font-size="14.00">0 &#45;&gt; 30:15</text>
<polyline fill="none" stroke="black" points="2926.5,-81.75 3002.5,-81.75"/>
<text text-anchor="middle" x="2964.5" y="-64.45" font-family="Times,serif" font-size="14.00">14:0 &#45; 14:0</text>
</g>
<!-- n14&#45;&gt;x10 -->
<g id="edge37" class="edge">
<title>n14:e&#45;&gt;x10:w</title>
<path fill="none" stroke="black" stroke-width="3" d="M2507.88,-95.75C2528.15,-95.75 2524.71,-74.33 2543.88,-67.75 2575.83,-56.79 2586.1,-67.65 2619.88,-67.75 2751.87,-68.13 2787.66,-69.42 2914.2,-69.5"/>
<polygon fill="black" stroke="black" stroke-width="3" points="2910.96,-73 2920.96,-69.5 2910.96,-66 2910.96,-73"/>
</g>
<!-- n15 -->
<g id="node6" class="node">
<title>n15</title>
<polygon fill="none" stroke="black" points="3102.63,-181.75 3047.38,-163.75 3102.63,-145.75 3157.88,-163.75 3102.63,-181.75"/>
<text text-anchor="middle" x="3102.63" y="-158.7" font-family="Times,serif" font-size="14.00">temp_7</text>
</g>
<!-- c26 -->
<g id="node24" class="node">
<title>c26</title>
<polygon fill="none" stroke="black" points="3193.88,-127.25 3193.88,-176.25 3289.88,-176.25 3289.88,-127.25 3193.88,-127.25"/>
<text text-anchor="middle" x="3206.75" y="-158.95" font-family="Times,serif" font-size="14.00">A</text>
<polyline fill="none" stroke="black" points="3193.88,-151.75 3219.63,-151.75"/>
<text text-anchor="middle" x="3206.75" y="-134.45" font-family="Times,serif" font-size="14.00">B</text>
<polyline fill="none" stroke="black" points="3219.63,-127.25 3219.63,-176.25"/>
<text text-anchor="middle" x="3241.88" y="-154.95" font-family="Times,serif" font-size="14.00">$38</text>
<text text-anchor="middle" x="3241.88" y="-138.45" font-family="Times,serif" font-size="14.00">$mul</text>
<polyline fill="none" stroke="black" points="3264.13,-127.25 3264.13,-176.25"/>
<text text-anchor="middle" x="3277" y="-146.95" font-family="Times,serif" font-size="14.00">Y</text>
</g>
<!-- n15&#45;&gt;c26 -->
<g id="edge41" class="edge">
<title>n15:e&#45;&gt;c26:w</title>
<path fill="none" stroke="black" stroke-width="3" d="M3157.88,-163.75C3169.25,-163.75 3174.56,-163.88 3182.43,-163.95"/>
<polygon fill="black" stroke="black" stroke-width="3" points="3179.32,-167.44 3189.34,-163.98 3179.35,-160.44 3179.32,-167.44"/>
</g>
<!-- c19 -->
<g id="node7" class="node">
<title>c19</title>
<polygon fill="none" stroke="black" points="2917.63,-139.25 2917.63,-188.25 3011.38,-188.25 3011.38,-139.25 2917.63,-139.25"/>
<text text-anchor="middle" x="2930.5" y="-170.95" font-family="Times,serif" font-size="14.00">A</text>
<polyline fill="none" stroke="black" points="2917.63,-163.75 2943.38,-163.75"/>
<text text-anchor="middle" x="2930.5" y="-146.45" font-family="Times,serif" font-size="14.00">B</text>
<polyline fill="none" stroke="black" points="2943.38,-139.25 2943.38,-188.25"/>
<text text-anchor="middle" x="2964.5" y="-166.95" font-family="Times,serif" font-size="14.00">$29</text>
<text text-anchor="middle" x="2964.5" y="-150.45" font-family="Times,serif" font-size="14.00">$add</text>
<polyline fill="none" stroke="black" points="2985.63,-139.25 2985.63,-188.25"/>
<text text-anchor="middle" x="2998.5" y="-158.95" font-family="Times,serif" font-size="14.00">Y</text>
</g>
<!-- c19&#45;&gt;n15 -->
<g id="edge40" class="edge">
<title>c19:e&#45;&gt;n15:w</title>
<path fill="none" stroke="black" stroke-width="3" d="M3011.38,-164C3022.75,-164 3028.06,-163.87 3035.93,-163.8"/>
<polygon fill="black" stroke="black" stroke-width="3" points="3032.85,-167.31 3042.84,-163.77 3032.82,-160.31 3032.85,-167.31"/>
</g>
<!-- x0&#45;&gt;c19 -->
<g id="edge1" class="edge">
<title>x0:e&#45;&gt;c19:w</title>
<path fill="none" stroke="black" stroke-width="3" d="M2504.54,-178.75C2551.18,-178.79 2567.44,-178.99 2619.88,-178.75 2747.82,-178.16 2782.98,-176.14 2904.77,-176.01"/>
<polygon fill="none" stroke="black" stroke-width="3" points="2506.33,-178.76 2500.33,-182.75 2494.33,-178.75 2500.33,-174.75 2506.33,-178.76"/>
<polygon fill="none" stroke="black" stroke-width="3" points="2902.92,-176.01 2908.92,-172 2914.92,-176 2908.93,-180 2902.92,-176.01"/>
</g>
<!-- x1 -->
<g id="node9" class="node">
<title>x1</title>
<path fill="none" stroke="black" d="M2807.63,-113.25C2807.63,-113.25 2859.63,-113.25 2859.63,-113.25 2865.63,-113.25 2871.63,-119.25 2871.63,-125.25 2871.63,-125.25 2871.63,-150.25 2871.63,-150.25 2871.63,-156.25 2865.63,-162.25 2859.63,-162.25 2859.63,-162.25 2807.63,-162.25 2807.63,-162.25 2801.63,-162.25 2795.63,-156.25 2795.63,-150.25 2795.63,-150.25 2795.63,-125.25 2795.63,-125.25 2795.63,-119.25 2801.63,-113.25 2807.63,-113.25"/>
<text text-anchor="middle" x="2833.63" y="-144.95" font-family="Times,serif" font-size="14.00">1 &#45;&gt; 20:15</text>
<polyline fill="none" stroke="black" points="2795.63,-137.75 2871.63,-137.75"/>
<text text-anchor="middle" x="2833.63" y="-120.45" font-family="Times,serif" font-size="14.00">14:0 &#45; 14:0</text>
</g>
<!-- x1&#45;&gt;c19 -->
<g id="edge2" class="edge">
<title>x1:e&#45;&gt;c19:w</title>
<path fill="none" stroke="black" stroke-width="3" d="M2885.21,-139.78C2892.54,-142.35 2897.5,-146.76 2904.77,-149.37"/>
<polygon fill="none" stroke="black" stroke-width="3" points="2887.14,-140.09 2880.58,-143.09 2875.3,-138.18 2881.86,-135.19 2887.14,-140.09"/>
<polygon fill="none" stroke="black" stroke-width="3" points="2903.12,-149.1 2909.69,-146.13 2914.96,-151.06 2908.39,-154.02 2903.12,-149.1"/>
</g>
<!-- c20 -->
<g id="node10" class="node">
<title>c20</title>
<polygon fill="none" stroke="black" points="2655.88,-266.25 2655.88,-315.25 2749.63,-315.25 2749.63,-266.25 2655.88,-266.25"/>
<text text-anchor="middle" x="2668.75" y="-297.95" font-family="Times,serif" font-size="14.00">A</text>
<polyline fill="none" stroke="black" points="2655.88,-290.75 2681.63,-290.75"/>
<text text-anchor="middle" x="2668.75" y="-273.45" font-family="Times,serif" font-size="14.00">B</text>
<polyline fill="none" stroke="black" points="2681.63,-266.25 2681.63,-315.25"/>
<text text-anchor="middle" x="2702.75" y="-293.95" font-family="Times,serif" font-size="14.00">$55</text>
<text text-anchor="middle" x="2702.75" y="-277.45" font-family="Times,serif" font-size="14.00">$add</text>
<polyline fill="none" stroke="black" points="2723.88,-266.25 2723.88,-315.25"/>
<text text-anchor="middle" x="2736.75" y="-285.95" font-family="Times,serif" font-size="14.00">Y</text>
</g>
<!-- c27 -->
<g id="node26" class="node">
<title>c27</title>
<polygon fill="none" stroke="black" points="2785.63,-226.25 2785.63,-275.25 2881.63,-275.25 2881.63,-226.25 2785.63,-226.25"/>
<text text-anchor="middle" x="2798.5" y="-257.95" font-family="Times,serif" font-size="14.00">A</text>
<polyline fill="none" stroke="black" points="2785.63,-250.75 2811.38,-250.75"/>
<text text-anchor="middle" x="2798.5" y="-233.45" font-family="Times,serif" font-size="14.00">B</text>
<polyline fill="none" stroke="black" points="2811.38,-226.25 2811.38,-275.25"/>
<text text-anchor="middle" x="2833.63" y="-253.95" font-family="Times,serif" font-size="14.00">$56</text>
<text text-anchor="middle" x="2833.63" y="-237.45" font-family="Times,serif" font-size="14.00">$mul</text>
<polyline fill="none" stroke="black" points="2855.88,-226.25 2855.88,-275.25"/>
<text text-anchor="middle" x="2868.75" y="-245.95" font-family="Times,serif" font-size="14.00">Y</text>
</g>
<!-- c20&#45;&gt;c27 -->
<g id="edge18" class="edge">
<title>c20:e&#45;&gt;c27:w</title>
<path fill="none" stroke="black" stroke-width="3" d="M2749.63,-291C2765.15,-291 2766.12,-274.59 2774.83,-266.89"/>
<polygon fill="black" stroke="black" stroke-width="3" points="2773.14,-271.22 2781.36,-264.54 2770.76,-264.64 2773.14,-271.22"/>
</g>
<!-- x2 -->
<g id="node11" class="node">
<title>x2</title>
<path fill="none" stroke="black" d="M2294,-278.25C2294,-278.25 2346,-278.25 2346,-278.25 2352,-278.25 2358,-284.25 2358,-290.25 2358,-290.25 2358,-315.25 2358,-315.25 2358,-321.25 2352,-327.25 2346,-327.25 2346,-327.25 2294,-327.25 2294,-327.25 2288,-327.25 2282,-321.25 2282,-315.25 2282,-315.25 2282,-290.25 2282,-290.25 2282,-284.25 2288,-278.25 2294,-278.25"/>
<text text-anchor="middle" x="2320" y="-309.95" font-family="Times,serif" font-size="14.00">0 &#45;&gt; 31:15</text>
<polyline fill="none" stroke="black" points="2282,-302.75 2358,-302.75"/>
<text text-anchor="middle" x="2320" y="-285.45" font-family="Times,serif" font-size="14.00">14:0 &#45; 14:0</text>
</g>
<!-- x2&#45;&gt;c20 -->
<g id="edge3" class="edge">
<title>x2:e&#45;&gt;c20:w</title>
<path fill="none" stroke="black" stroke-width="3" d="M2371.83,-302.75C2489.1,-302.77 2525.82,-302.98 2643.11,-303"/>
<polygon fill="none" stroke="black" stroke-width="3" points="2373.71,-302.75 2367.71,-306.75 2361.71,-302.75 2367.71,-298.75 2373.71,-302.75"/>
<polygon fill="none" stroke="black" stroke-width="3" points="2641.17,-303 2647.17,-299 2653.17,-303 2647.17,-307 2641.17,-303"/>
</g>
<!-- x3&#45;&gt;c20 -->
<g id="edge4" class="edge">
<title>x3:e&#45;&gt;c20:w</title>
<path fill="none" stroke="black" stroke-width="3" d="M2626.66,-153.42C2658.25,-170.04 2611.74,-259.26 2643.38,-275.85"/>
<polygon fill="none" stroke="black" stroke-width="3" points="2628.51,-153.81 2621.81,-156.48 2616.77,-151.31 2623.47,-148.65 2628.51,-153.81"/>
<polygon fill="none" stroke="black" stroke-width="3" points="2641.49,-275.45 2648.19,-272.78 2653.23,-277.94 2646.53,-280.61 2641.49,-275.45"/>
</g>
<!-- n2 -->
<g id="node44" class="node">
<title>n2</title>
<ellipse fill="black" stroke="black" cx="275.39" cy="-272.75" rx="1.8" ry="1.8"/>
</g>
<!-- c21&#45;&gt;n2 -->
<g id="edge42" class="edge">
<title>c21:e&#45;&gt;n2:w</title>
<path fill="none" stroke="black" stroke-width="3" d="M237.59,-230C257.77,-230 252.53,-258.22 263.17,-268.8"/>
<polygon fill="black" stroke="black" stroke-width="3" points="258.75,-270.87 269.34,-271.14 261.23,-264.33 258.75,-270.87"/>
</g>
<!-- c22 -->
<g id="node14" class="node">
<title>c22</title>
<polygon fill="none" stroke="black" points="490.19,-283.25 490.19,-324.25 581.69,-324.25 581.69,-283.25 490.19,-283.25"/>
<text text-anchor="middle" x="503.07" y="-298.95" font-family="Times,serif" font-size="14.00">A</text>
<polyline fill="none" stroke="black" points="515.94,-283.25 515.94,-324.25"/>
<text text-anchor="middle" x="535.94" y="-306.95" font-family="Times,serif" font-size="14.00">$73</text>
<text text-anchor="middle" x="535.94" y="-290.45" font-family="Times,serif" font-size="14.00">$not</text>
<polyline fill="none" stroke="black" points="555.94,-283.25 555.94,-324.25"/>
<text text-anchor="middle" x="568.82" y="-298.95" font-family="Times,serif" font-size="14.00">Y</text>
</g>
<!-- n3 -->
<g id="node45" class="node">
<title>n3</title>
<ellipse fill="black" stroke="black" cx="713.06" cy="-296.75" rx="1.8" ry="1.8"/>
</g>
<!-- c22&#45;&gt;n3 -->
<g id="edge48" class="edge">
<title>c22:e&#45;&gt;n3:w</title>
<path fill="none" stroke="black" stroke-width="3" d="M581.69,-304C634.7,-304 650.57,-297.73 698.36,-296.85"/>
<polygon fill="black" stroke="black" stroke-width="3" points="695.27,-300.38 705.24,-296.79 695.21,-293.38 695.27,-300.38"/>
</g>
<!-- x4 -->
<g id="node15" class="node">
<title>x4</title>
<path fill="none" stroke="black" d="M364.44,-281.25C364.44,-281.25 402.94,-281.25 402.94,-281.25 408.94,-281.25 414.94,-287.25 414.94,-293.25 414.94,-293.25 414.94,-318.25 414.94,-318.25 414.94,-324.25 408.94,-330.25 402.94,-330.25 402.94,-330.25 364.44,-330.25 364.44,-330.25 358.44,-330.25 352.44,-324.25 352.44,-318.25 352.44,-318.25 352.44,-293.25 352.44,-293.25 352.44,-287.25 358.44,-281.25 364.44,-281.25"/>
<text text-anchor="middle" x="383.69" y="-312.95" font-family="Times,serif" font-size="14.00">8:7 &#45; 2:1</text>
<polyline fill="none" stroke="black" points="352.44,-305.75 414.94,-305.75"/>
<text text-anchor="middle" x="383.69" y="-288.45" font-family="Times,serif" font-size="14.00">3:3 &#45; 0:0</text>
</g>
<!-- x4&#45;&gt;c22 -->
<g id="edge5" class="edge">
<title>x4:e&#45;&gt;c22:w</title>
<path fill="none" stroke="black" stroke-width="3" d="M428.85,-305.65C447.98,-305.34 458.19,-304.4 477.35,-304.1"/>
<polygon fill="none" stroke="black" stroke-width="3" points="430.64,-305.64 424.68,-309.68 418.64,-305.73 424.61,-301.68 430.64,-305.64"/>
<polygon fill="none" stroke="black" stroke-width="3" points="475.49,-304.11 481.46,-300.07 487.49,-304.02 481.52,-308.07 475.49,-304.11"/>
</g>
<!-- x6 -->
<g id="node18" class="node">
<title>x6</title>
<path fill="none" stroke="black" d="M1584.5,-139.75C1584.5,-139.75 1636.5,-139.75 1636.5,-139.75 1642.5,-139.75 1648.5,-145.75 1648.5,-151.75 1648.5,-151.75 1648.5,-163.75 1648.5,-163.75 1648.5,-169.75 1642.5,-175.75 1636.5,-175.75 1636.5,-175.75 1584.5,-175.75 1584.5,-175.75 1578.5,-175.75 1572.5,-169.75 1572.5,-163.75 1572.5,-163.75 1572.5,-151.75 1572.5,-151.75 1572.5,-145.75 1578.5,-139.75 1584.5,-139.75"/>
<text text-anchor="middle" x="1610.5" y="-152.95" font-family="Times,serif" font-size="14.00">14:0 &#45; 14:0</text>
</g>
<!-- c23&#45;&gt;x6 -->
<g id="edge7" class="edge">
<title>c23:e&#45;&gt;x6:w</title>
<path fill="none" stroke="black" stroke-width="3" d="M1493.69,-146.42C1520.18,-148.24 1532.28,-155.49 1558.72,-157.32"/>
<polygon fill="none" stroke="black" stroke-width="3" points="1495.72,-146.49 1489.59,-150.29 1483.73,-146.09 1489.85,-142.29 1495.72,-146.49"/>
<polygon fill="none" stroke="black" stroke-width="3" points="1556.8,-157.26 1562.93,-153.46 1568.79,-157.66 1562.66,-161.46 1556.8,-157.26"/>
</g>
<!-- x5 -->
<g id="node17" class="node">
<title>x5</title>
<path fill="none" stroke="black" d="M1233.17,-139.75C1233.17,-139.75 1285.17,-139.75 1285.17,-139.75 1291.17,-139.75 1297.17,-145.75 1297.17,-151.75 1297.17,-151.75 1297.17,-163.75 1297.17,-163.75 1297.17,-169.75 1291.17,-175.75 1285.17,-175.75 1285.17,-175.75 1233.17,-175.75 1233.17,-175.75 1227.17,-175.75 1221.17,-169.75 1221.17,-163.75 1221.17,-163.75 1221.17,-151.75 1221.17,-151.75 1221.17,-145.75 1227.17,-139.75 1233.17,-139.75"/>
<text text-anchor="middle" x="1259.17" y="-152.95" font-family="Times,serif" font-size="14.00">14:0 &#45; 14:0</text>
</g>
<!-- x5&#45;&gt;c23 -->
<g id="edge6" class="edge">
<title>x5:e&#45;&gt;c23:w</title>
<path fill="none" stroke="black" stroke-width="3" d="M1310.21,-157.76C1335.18,-157.8 1347.33,-157.95 1372.33,-157.99"/>
<polygon fill="none" stroke="black" stroke-width="3" points="1311.88,-157.76 1305.88,-161.76 1299.88,-157.75 1305.88,-153.76 1311.88,-157.76"/>
<polygon fill="none" stroke="black" stroke-width="3" points="1370.57,-157.99 1376.57,-153.99 1382.57,-158 1376.57,-161.99 1370.57,-157.99"/>
</g>
<!-- x6&#45;&gt;n12 -->
<g id="edge27" class="edge">
<title>x6:e&#45;&gt;n12:w</title>
<path fill="none" stroke="black" stroke-width="3" d="M1649.5,-158C1675.74,-158 1662.77,-199.88 1677.37,-212.31"/>
<polygon fill="black" stroke="black" stroke-width="3" points="1672.96,-214.55 1683.56,-214.34 1675.14,-207.9 1672.96,-214.55"/>
</g>
<!-- c24 -->
<g id="node19" class="node">
<title>c24</title>
<polygon fill="none" stroke="black" points="2103.39,-266.25 2103.39,-315.25 2191.14,-315.25 2191.14,-266.25 2103.39,-266.25"/>
<text text-anchor="middle" x="2116.26" y="-297.95" font-family="Times,serif" font-size="14.00">A</text>
<polyline fill="none" stroke="black" points="2103.39,-290.75 2129.14,-290.75"/>
<text text-anchor="middle" x="2116.26" y="-273.45" font-family="Times,serif" font-size="14.00">B</text>
<polyline fill="none" stroke="black" points="2129.14,-266.25 2129.14,-315.25"/>
<text text-anchor="middle" x="2147.26" y="-293.95" font-family="Times,serif" font-size="14.00">$90</text>
<text text-anchor="middle" x="2147.26" y="-277.45" font-family="Times,serif" font-size="14.00">$or</text>
<polyline fill="none" stroke="black" points="2165.39,-266.25 2165.39,-315.25"/>
<text text-anchor="middle" x="2178.26" y="-285.95" font-family="Times,serif" font-size="14.00">Y</text>
</g>
<!-- c24&#45;&gt;x2 -->
<g id="edge51" class="edge">
<title>c24:e&#45;&gt;x2:w</title>
<path fill="none" stroke="black" stroke-width="3" d="M2192.14,-291C2227.62,-291 2239.19,-290.6 2269.82,-290.51"/>
<polygon fill="black" stroke="black" stroke-width="3" points="2266.47,-294.02 2276.46,-290.51 2266.46,-287.02 2266.47,-294.02"/>
</g>
<!-- x7&#45;&gt;c24 -->
<g id="edge8" class="edge">
<title>x7:e&#45;&gt;c24:w</title>
<path fill="none" stroke="black" stroke-width="3" d="M1977.18,-320.47C2024.37,-318.39 2042.16,-305.35 2089.35,-303.28"/>
<polygon fill="none" stroke="black" stroke-width="3" points="1978.83,-320.44 1972.92,-324.56 1966.84,-320.69 1972.75,-316.56 1978.83,-320.44"/>
<polygon fill="none" stroke="black" stroke-width="3" points="2087.68,-303.31 2093.6,-299.19 2099.68,-303.06 2093.77,-307.18 2087.68,-303.31"/>
</g>
<!-- x8&#45;&gt;c24 -->
<g id="edge9" class="edge">
<title>x8:e&#45;&gt;c24:w</title>
<path fill="none" stroke="black" stroke-width="3" d="M1977.14,-265.95C2024.2,-267.44 2042.32,-276.81 2089.4,-278.3"/>
<polygon fill="none" stroke="black" stroke-width="3" points="1978.84,-265.98 1972.77,-269.88 1966.84,-265.79 1972.9,-261.88 1978.84,-265.98"/>
<polygon fill="none" stroke="black" stroke-width="3" points="2087.68,-278.27 2093.74,-274.37 2099.68,-278.46 2093.62,-282.37 2087.68,-278.27"/>
</g>
<!-- c25 -->
<g id="node22" class="node">
<title>c25</title>
<polygon fill="none" stroke="black" points="2657,-91.25 2657,-132.25 2748.5,-132.25 2748.5,-91.25 2657,-91.25"/>
<text text-anchor="middle" x="2669.88" y="-106.95" font-family="Times,serif" font-size="14.00">A</text>
<polyline fill="none" stroke="black" points="2682.75,-91.25 2682.75,-132.25"/>
<text text-anchor="middle" x="2702.75" y="-114.95" font-family="Times,serif" font-size="14.00">$94</text>
<text text-anchor="middle" x="2702.75" y="-98.45" font-family="Times,serif" font-size="14.00">$not</text>
<polyline fill="none" stroke="black" points="2722.75,-91.25 2722.75,-132.25"/>
<text text-anchor="middle" x="2735.63" y="-106.95" font-family="Times,serif" font-size="14.00">Y</text>
</g>
<!-- c25&#45;&gt;x1 -->
<g id="edge52" class="edge">
<title>c25:e&#45;&gt;x1:w</title>
<path fill="none" stroke="black" stroke-width="3" d="M2749.5,-112C2766.02,-112 2771.53,-120.41 2783.41,-123.95"/>
<polygon fill="black" stroke="black" stroke-width="3" points="2779.75,-126.98 2790.13,-124.88 2780.7,-120.04 2779.75,-126.98"/>
</g>
<!-- x9&#45;&gt;c25 -->
<g id="edge10" class="edge">
<title>x9:e&#45;&gt;c25:w</title>
<path fill="none" stroke="black" stroke-width="3" d="M2632.27,-99.36C2636.39,-102.05 2639.51,-105.71 2643.63,-108.4"/>
<polygon fill="none" stroke="black" stroke-width="3" points="2634,-99.86 2627.12,-102.02 2622.47,-96.51 2629.35,-94.34 2634,-99.86"/>
<polygon fill="none" stroke="black" stroke-width="3" points="2641.88,-107.9 2648.76,-105.73 2653.41,-111.25 2646.53,-113.41 2641.88,-107.9"/>
</g>
<!-- c26&#45;&gt;n13 -->
<g id="edge33" class="edge">
<title>c26:e&#45;&gt;n13:w</title>
<path fill="none" stroke="black" stroke-width="3" d="M3289.88,-152C3303.27,-152 3306.68,-162.33 3314.92,-167.65"/>
<polygon fill="black" stroke="black" stroke-width="3" points="3310.93,-170.17 3321.51,-169.52 3312.84,-163.43 3310.93,-170.17"/>
</g>
<!-- x10&#45;&gt;c26 -->
<g id="edge11" class="edge">
<title>x10:e&#45;&gt;c26:w</title>
<path fill="none" stroke="black" stroke-width="3" d="M3016.41,-82.18C3089.43,-87.19 3108.05,-134.14 3181.15,-139.08"/>
<polygon fill="none" stroke="black" stroke-width="3" points="3018.2,-82.24 3012.07,-86.04 3006.21,-81.84 3012.34,-78.04 3018.2,-82.24"/>
<polygon fill="none" stroke="black" stroke-width="3" points="3179.18,-139.02 3185.31,-135.22 3191.18,-139.41 3185.05,-143.21 3179.18,-139.02"/>
</g>
<!-- c33 -->
<g id="node38" class="node">
<title>c33</title>
<polygon fill="none" stroke="black" points="3583.91,-184.25 3583.91,-233.25 3676.16,-233.25 3676.16,-184.25 3583.91,-184.25"/>
<text text-anchor="middle" x="3596.78" y="-215.95" font-family="Times,serif" font-size="14.00">A</text>
<polyline fill="none" stroke="black" points="3583.91,-208.75 3609.66,-208.75"/>
<text text-anchor="middle" x="3596.78" y="-191.45" font-family="Times,serif" font-size="14.00">B</text>
<polyline fill="none" stroke="black" points="3609.66,-184.25 3609.66,-233.25"/>
<text text-anchor="middle" x="3630.03" y="-211.95" font-family="Times,serif" font-size="14.00">$57</text>
<text text-anchor="middle" x="3630.03" y="-195.45" font-family="Times,serif" font-size="14.00">$xor</text>
<polyline fill="none" stroke="black" points="3650.41,-184.25 3650.41,-233.25"/>
<text text-anchor="middle" x="3663.28" y="-203.95" font-family="Times,serif" font-size="14.00">Y</text>
</g>
<!-- c27&#45;&gt;c33 -->
<g id="edge53" class="edge">
<title>c27:e&#45;&gt;c33:w</title>
<path fill="none" stroke="black" stroke-width="3" d="M2881.63,-251C2979.61,-251 3003.65,-236.75 3101.63,-236.75 3101.63,-236.75 3101.63,-236.75 3388.64,-236.75 3471.8,-236.75 3494.81,-222.38 3572.56,-221.09"/>
<polygon fill="black" stroke="black" stroke-width="3" points="3569.4,-224.62 3579.37,-221.04 3569.34,-217.62 3569.4,-224.62"/>
</g>
<!-- x11&#45;&gt;c27 -->
<g id="edge12" class="edge">
<title>x11:e&#45;&gt;c27:w</title>
<path fill="none" stroke="black" stroke-width="3" d="M2504.33,-246.72C2620.39,-246.23 2656.71,-239.03 2772.63,-238.53"/>
<polygon fill="none" stroke="black" stroke-width="3" points="2506.33,-246.72 2500.34,-250.73 2494.33,-246.74 2500.32,-242.73 2506.33,-246.72"/>
<polygon fill="none" stroke="black" stroke-width="3" points="2770.92,-238.53 2776.92,-234.52 2782.92,-238.51 2776.93,-242.52 2770.92,-238.53"/>
</g>
<!-- c28 -->
<g id="node28" class="node">
<title>c28</title>
<polygon fill="none" stroke="black" points="313.19,-29.25 313.19,-70.25 454.19,-70.25 454.19,-29.25 313.19,-29.25"/>
<text text-anchor="middle" x="326.07" y="-44.95" font-family="Times,serif" font-size="14.00">A</text>
<polyline fill="none" stroke="black" points="338.94,-29.25 338.94,-70.25"/>
<text text-anchor="middle" x="383.69" y="-52.95" font-family="Times,serif" font-size="14.00">$14</text>
<text text-anchor="middle" x="383.69" y="-36.45" font-family="Times,serif" font-size="14.00">$reduce_bool</text>
<polyline fill="none" stroke="black" points="428.44,-29.25 428.44,-70.25"/>
<text text-anchor="middle" x="441.32" y="-44.95" font-family="Times,serif" font-size="14.00">Y</text>
</g>
<!-- c32 -->
<g id="node35" class="node">
<title>c32</title>
<polygon fill="none" stroke="black" points="2097.76,-25 2097.76,-98.5 2196.76,-98.5 2196.76,-25 2097.76,-25"/>
<text text-anchor="middle" x="2110.64" y="-81.2" font-family="Times,serif" font-size="14.00">A</text>
<polyline fill="none" stroke="black" points="2097.76,-74 2123.51,-74"/>
<text text-anchor="middle" x="2110.64" y="-56.7" font-family="Times,serif" font-size="14.00">B</text>
<polyline fill="none" stroke="black" points="2097.76,-49.5 2123.51,-49.5"/>
<text text-anchor="middle" x="2110.64" y="-32.2" font-family="Times,serif" font-size="14.00">S</text>
<polyline fill="none" stroke="black" points="2123.51,-25 2123.51,-98.5"/>
<text text-anchor="middle" x="2147.26" y="-64.95" font-family="Times,serif" font-size="14.00">$16</text>
<text text-anchor="middle" x="2147.26" y="-48.45" font-family="Times,serif" font-size="14.00">$mux</text>
<polyline fill="none" stroke="black" points="2171.01,-25 2171.01,-98.5"/>
<text text-anchor="middle" x="2183.89" y="-56.7" font-family="Times,serif" font-size="14.00">Y</text>
</g>
<!-- c28&#45;&gt;c32 -->
<g id="edge55" class="edge">
<title>c28:e&#45;&gt;c32:w</title>
<path fill="none" stroke="black" d="M454.19,-50C569.05,-50 597.19,-32.75 712.06,-32.75 712.06,-32.75 712.06,-32.75 1744.12,-32.75 1897.04,-32.75 1938.04,-37.03 2085.49,-37.24"/>
<polygon fill="black" stroke="black" points="2085.24,-40.74 2095.25,-37.25 2085.25,-33.74 2085.24,-40.74"/>
</g>
<!-- x12&#45;&gt;c28 -->
<g id="edge13" class="edge">
<title>x12:e&#45;&gt;c28:w</title>
<path fill="none" stroke="black" stroke-width="3" d="M242.44,-52.63C265.66,-52.18 277.16,-50.58 300.33,-50.12"/>
<polygon fill="none" stroke="black" stroke-width="3" points="244.42,-52.61 238.46,-56.67 232.42,-52.72 238.38,-48.67 244.42,-52.61"/>
<polygon fill="none" stroke="black" stroke-width="3" points="298.49,-50.14 304.45,-46.08 310.49,-50.03 304.52,-54.08 298.49,-50.14"/>
</g>
<!-- v14 -->
<g id="node30" class="node">
<title>v14</title>
<ellipse fill="none" stroke="black" cx="713.06" cy="-404.75" rx="95.37" ry="18"/>
<text text-anchor="middle" x="713.06" y="-399.7" font-family="Times,serif" font-size="14.00">16&#39;1001010100010110</text>
</g>
<!-- x13 -->
<g id="node32" class="node">
<title>x13</title>
<path fill="none" stroke="black" d="M856.42,-211.25C856.42,-211.25 915.17,-211.25 915.17,-211.25 921.17,-211.25 927.17,-217.25 927.17,-223.25 927.17,-223.25 927.17,-346.25 927.17,-346.25 927.17,-352.25 921.17,-358.25 915.17,-358.25 915.17,-358.25 856.42,-358.25 856.42,-358.25 850.42,-358.25 844.42,-352.25 844.42,-346.25 844.42,-346.25 844.42,-223.25 844.42,-223.25 844.42,-217.25 850.42,-211.25 856.42,-211.25"/>
<text text-anchor="middle" x="885.8" y="-340.95" font-family="Times,serif" font-size="14.00">15:0 &#45; 30:15</text>
<polyline fill="none" stroke="black" points="844.42,-333.75 927.17,-333.75"/>
<text text-anchor="middle" x="885.8" y="-316.45" font-family="Times,serif" font-size="14.00">14:9 &#45; 14:9</text>
<polyline fill="none" stroke="black" points="844.42,-309.25 927.17,-309.25"/>
<text text-anchor="middle" x="885.8" y="-291.95" font-family="Times,serif" font-size="14.00">2:1 &#45; 8:7</text>
<polyline fill="none" stroke="black" points="844.42,-284.75 927.17,-284.75"/>
<text text-anchor="middle" x="885.8" y="-267.45" font-family="Times,serif" font-size="14.00">6:4 &#45; 6:4</text>
<polyline fill="none" stroke="black" points="844.42,-260.25 927.17,-260.25"/>
<text text-anchor="middle" x="885.8" y="-242.95" font-family="Times,serif" font-size="14.00">0:0 &#45; 3:3</text>
<polyline fill="none" stroke="black" points="844.42,-235.75 927.17,-235.75"/>
<text text-anchor="middle" x="885.8" y="-218.45" font-family="Times,serif" font-size="14.00">2:0 &#45; 2:0</text>
</g>
<!-- v14&#45;&gt;x13 -->
<g id="edge57" class="edge">
<title>v14:e&#45;&gt;x13:w</title>
<path fill="none" stroke="black" stroke-width="3" d="M808.42,-404.75C834.26,-404.75 820.33,-362.93 833.74,-349.85"/>
<polygon fill="black" stroke="black" stroke-width="3" points="831.93,-354.23 840.15,-347.54 829.56,-347.64 831.93,-354.23"/>
</g>
<!-- c29&#45;&gt;c30 -->
<g id="edge54" class="edge">
<title>c29:e&#45;&gt;c30:w</title>
<path fill="none" stroke="black" stroke-width="3" d="M1056.17,-192C1070.24,-192 1072.91,-179.62 1081.28,-173.44"/>
<polygon fill="black" stroke="black" stroke-width="3" points="1079.36,-177.71 1087.84,-171.37 1077.25,-171.04 1079.36,-177.71"/>
</g>
<!-- x13&#45;&gt;c29 -->
<g id="edge14" class="edge">
<title>x13:e&#45;&gt;c29:w</title>
<path fill="none" stroke="black" stroke-width="3" d="M939.35,-280.41C953.36,-266.39 937,-222.41 950.98,-208.36"/>
<polygon fill="none" stroke="black" stroke-width="3" points="941.02,-279.81 936.72,-285.59 929.72,-283.84 934.03,-278.06 941.02,-279.81"/>
<polygon fill="none" stroke="black" stroke-width="3" points="949.33,-208.95 953.63,-203.17 960.63,-204.91 956.33,-210.7 949.33,-208.95"/>
</g>
<!-- c30&#45;&gt;x5 -->
<g id="edge56" class="edge">
<title>c30:e&#45;&gt;x5:w</title>
<path fill="none" stroke="black" stroke-width="3" d="M1185.17,-158C1196.55,-158 1201.86,-158 1209.73,-158"/>
<polygon fill="black" stroke="black" stroke-width="3" points="1206.63,-161.5 1216.63,-158 1206.63,-154.5 1206.63,-161.5"/>
</g>
<!-- v16 -->
<g id="node34" class="node">
<title>v16</title>
<ellipse fill="none" stroke="black" cx="1925.13" cy="-78.75" rx="90.76" ry="18"/>
<text text-anchor="middle" x="1925.13" y="-73.7" font-family="Times,serif" font-size="14.00">15&#39;000000000000000</text>
</g>
<!-- v16&#45;&gt;c32 -->
<g id="edge58" class="edge">
<title>v16:e&#45;&gt;c32:w</title>
<path fill="none" stroke="black" stroke-width="3" d="M2015.89,-78.75C2048.46,-78.75 2057.98,-65.38 2085.32,-62.36"/>
<polygon fill="black" stroke="black" stroke-width="3" points="2082.42,-66.01 2092.23,-61.99 2082.06,-59.02 2082.42,-66.01"/>
</g>
<!-- x17 -->
<g id="node37" class="node">
<title>x17</title>
<path fill="none" stroke="black" d="M2294,-48.75C2294,-48.75 2346,-48.75 2346,-48.75 2352,-48.75 2358,-54.75 2358,-60.75 2358,-60.75 2358,-72.75 2358,-72.75 2358,-78.75 2352,-84.75 2346,-84.75 2346,-84.75 2294,-84.75 2294,-84.75 2288,-84.75 2282,-78.75 2282,-72.75 2282,-72.75 2282,-60.75 2282,-60.75 2282,-54.75 2288,-48.75 2294,-48.75"/>
<text text-anchor="middle" x="2320" y="-61.95" font-family="Times,serif" font-size="14.00">14:0 &#45; 14:0</text>
</g>
<!-- c32&#45;&gt;x17 -->
<g id="edge16" class="edge">
<title>c32:e&#45;&gt;x17:w</title>
<path fill="none" stroke="black" stroke-width="3" d="M2210.46,-61.96C2233.62,-62.78 2245.05,-65.7 2268.17,-66.53"/>
<polygon fill="none" stroke="black" stroke-width="3" points="2212.46,-62 2206.4,-65.9 2200.46,-61.8 2206.53,-57.9 2212.46,-62"/>
<polygon fill="none" stroke="black" stroke-width="3" points="2266.3,-66.5 2272.37,-62.6 2278.3,-66.7 2272.23,-70.6 2266.3,-66.5"/>
</g>
<!-- x15&#45;&gt;c32 -->
<g id="edge15" class="edge">
<title>x15:e&#45;&gt;c32:w</title>
<path fill="none" stroke="black" stroke-width="3" d="M1976.88,-133.04C2024.1,-127.59 2036.77,-92.42 2083.97,-86.96"/>
<polygon fill="none" stroke="black" stroke-width="3" points="1978.81,-132.93 1973.05,-137.26 1966.83,-133.6 1972.6,-129.27 1978.81,-132.93"/>
<polygon fill="none" stroke="black" stroke-width="3" points="2082.08,-87.07 2087.85,-82.74 2094.06,-86.4 2088.29,-90.73 2082.08,-87.07"/>
</g>
<!-- x17&#45;&gt;n14 -->
<g id="edge35" class="edge">
<title>x17:e&#45;&gt;n14:w</title>
<path fill="none" stroke="black" stroke-width="3" d="M2359,-67C2375.65,-67 2376.7,-84.55 2386.53,-92.22"/>
<polygon fill="black" stroke="black" stroke-width="3" points="2382.47,-94.59 2393.06,-94.35 2384.63,-87.93 2382.47,-94.59"/>
</g>
<!-- c33&#45;&gt;n11 -->
<g id="edge25" class="edge">
<title>c33:e&#45;&gt;n11:w</title>
<path fill="none" stroke="black" stroke-width="3" d="M3676.16,-209C3687.53,-209 3692.84,-208.87 3700.71,-208.8"/>
<polygon fill="black" stroke="black" stroke-width="3" points="3697.63,-212.31 3707.62,-208.77 3697.6,-205.31 3697.63,-212.31"/>
</g>
<!-- x18&#45;&gt;c33 -->
<g id="edge17" class="edge">
<title>x18:e&#45;&gt;c33:w</title>
<path fill="none" stroke="black" stroke-width="3" d="M3560.23,-184.25C3564.35,-186.86 3567.48,-190.41 3571.6,-193.01"/>
<polygon fill="none" stroke="black" stroke-width="3" points="3562.06,-184.76 3555.19,-186.97 3550.51,-181.49 3557.37,-179.28 3562.06,-184.76"/>
<polygon fill="none" stroke="black" stroke-width="3" points="3569.76,-192.49 3576.62,-190.28 3581.31,-195.76 3574.44,-197.98 3569.76,-192.49"/>
</g>
<!-- v19 -->
<g id="node40" class="node">
<title>v19</title>
<ellipse fill="none" stroke="black" cx="1433.15" cy="-215.75" rx="99.97" ry="18"/>
<text text-anchor="middle" x="1433.15" y="-210.7" font-family="Times,serif" font-size="14.00">17&#39;00000000000000000</text>
</g>
<!-- x20 -->
<g id="node41" class="node">
<title>x20</title>
<path fill="none" stroke="black" d="M1581.12,-197.75C1581.12,-197.75 1639.87,-197.75 1639.87,-197.75 1645.87,-197.75 1651.87,-203.75 1651.87,-209.75 1651.87,-209.75 1651.87,-221.75 1651.87,-221.75 1651.87,-227.75 1645.87,-233.75 1639.87,-233.75 1639.87,-233.75 1581.12,-233.75 1581.12,-233.75 1575.12,-233.75 1569.12,-227.75 1569.12,-221.75 1569.12,-221.75 1569.12,-209.75 1569.12,-209.75 1569.12,-203.75 1575.12,-197.75 1581.12,-197.75"/>
<text text-anchor="middle" x="1610.5" y="-210.95" font-family="Times,serif" font-size="14.00">16:0 &#45; 31:15</text>
</g>
<!-- v19&#45;&gt;x20 -->
<g id="edge59" class="edge">
<title>v19:e&#45;&gt;x20:w</title>
<path fill="none" stroke="black" stroke-width="3" d="M1533.12,-215.75C1544.5,-215.75 1549.81,-215.75 1557.67,-215.75"/>
<polygon fill="black" stroke="black" stroke-width="3" points="1554.58,-219.25 1564.58,-215.75 1554.58,-212.25 1554.58,-219.25"/>
</g>
<!-- x20&#45;&gt;n12 -->
<g id="edge26" class="edge">
<title>x20:e&#45;&gt;n12:w</title>
<path fill="none" stroke="black" stroke-width="3" d="M1651.87,-216C1663.25,-216 1668.56,-215.87 1676.42,-215.8"/>
<polygon fill="black" stroke="black" stroke-width="3" points="1673.35,-219.31 1683.33,-215.77 1673.32,-212.31 1673.35,-219.31"/>
</g>
<!-- v21 -->
<g id="node42" class="node">
<title>v21</title>
<ellipse fill="none" stroke="black" cx="2147.26" cy="-134.75" rx="95.37" ry="18"/>
<text text-anchor="middle" x="2147.26" y="-129.7" font-family="Times,serif" font-size="14.00">16&#39;0000000000000000</text>
</g>
<!-- x22 -->
<g id="node43" class="node">
<title>x22</title>
<path fill="none" stroke="black" d="M2290.63,-111.75C2290.63,-111.75 2349.38,-111.75 2349.38,-111.75 2355.38,-111.75 2361.38,-117.75 2361.38,-123.75 2361.38,-123.75 2361.38,-135.75 2361.38,-135.75 2361.38,-141.75 2355.38,-147.75 2349.38,-147.75 2349.38,-147.75 2290.63,-147.75 2290.63,-147.75 2284.63,-147.75 2278.63,-141.75 2278.63,-135.75 2278.63,-135.75 2278.63,-123.75 2278.63,-123.75 2278.63,-117.75 2284.63,-111.75 2290.63,-111.75"/>
<text text-anchor="middle" x="2320" y="-124.95" font-family="Times,serif" font-size="14.00">15:0 &#45; 30:15</text>
</g>
<!-- v21&#45;&gt;x22 -->
<g id="edge60" class="edge">
<title>v21:e&#45;&gt;x22:w</title>
<path fill="none" stroke="black" stroke-width="3" d="M2242.63,-134.75C2254.24,-134.75 2259.41,-132.17 2267.4,-130.71"/>
<polygon fill="black" stroke="black" stroke-width="3" points="2264.44,-134.48 2274.1,-130.14 2263.84,-127.51 2264.44,-134.48"/>
</g>
<!-- x22&#45;&gt;n14 -->
<g id="edge36" class="edge">
<title>x22:e&#45;&gt;n14:w</title>
<path fill="none" stroke="black" stroke-width="3" d="M2361.38,-130C2378.8,-130 2377.39,-108.68 2386.87,-99.68"/>
<polygon fill="black" stroke="black" stroke-width="3" points="2384.98,-104.12 2393.12,-97.34 2382.53,-97.57 2384.98,-104.12"/>
</g>
<!-- n2&#45;&gt;x4 -->
<g id="edge46" class="edge">
<title>n2:e&#45;&gt;x4:w</title>
<path fill="none" stroke="black" d="M277.19,-272.75C307.31,-272.75 315.37,-288.78 340.15,-292.66"/>
<polygon fill="black" stroke="black" points="339.7,-296.14 349.93,-293.39 340.22,-289.16 339.7,-296.14"/>
</g>
<!-- n2&#45;&gt;x4 -->
<g id="edge47" class="edge">
<title>n2:e&#45;&gt;x4:w</title>
<path fill="none" stroke="black" stroke-width="3" d="M277.19,-272.75C311.61,-272.75 312.96,-308.64 340.15,-316.49"/>
<polygon fill="black" stroke="black" stroke-width="3" points="336.57,-319.55 346.94,-317.4 337.49,-312.61 336.57,-319.55"/>
</g>
<!-- n2&#45;&gt;x13 -->
<g id="edge43" class="edge">
<title>n2:e&#45;&gt;x13:w</title>
<path fill="none" stroke="black" stroke-width="3" d="M277.19,-272.75C299.2,-272.75 292.86,-247.17 313.19,-238.75 527.89,-149.8 605.71,-221.12 833.13,-223.44"/>
<polygon fill="black" stroke="black" stroke-width="3" points="829.87,-226.93 839.88,-223.48 829.9,-219.93 829.87,-226.93"/>
</g>
<!-- n2&#45;&gt;x13 -->
<g id="edge44" class="edge">
<title>n2:e&#45;&gt;x13:w</title>
<path fill="none" stroke="black" stroke-width="3" d="M277.19,-272.75C293.2,-272.75 297.19,-271.97 313.19,-271.75 375.85,-270.88 391.52,-271.69 454.19,-271.75 623.73,-271.91 668.97,-272.47 832.93,-272.5"/>
<polygon fill="black" stroke="black" stroke-width="3" points="829.88,-276 839.88,-272.5 829.88,-269 829.88,-276"/>
</g>
<!-- n2&#45;&gt;x13 -->
<g id="edge45" class="edge">
<title>n2:e&#45;&gt;x13:w</title>
<path fill="none" stroke="black" stroke-width="3" d="M277.19,-272.75C310.99,-272.75 284.18,-322.4 313.19,-339.75 366.98,-371.91 391.54,-341.21 454.19,-339.75 623.87,-335.78 668.8,-322.13 832.92,-321.52"/>
<polygon fill="black" stroke="black" stroke-width="3" points="829.89,-325.03 839.88,-321.51 829.88,-318.03 829.89,-325.03"/>
</g>
<!-- n3&#45;&gt;x13 -->
<g id="edge49" class="edge">
<title>n3:e&#45;&gt;x13:w</title>
<path fill="none" stroke="black" d="M716.34,-296.75C759.38,-296.75 768.74,-283.42 808.42,-266.75 820.77,-261.57 824.68,-253.75 833.26,-250.06"/>
<polygon fill="black" stroke="black" points="833.74,-253.53 842.94,-248.27 832.47,-246.65 833.74,-253.53"/>
</g>
<!-- n3&#45;&gt;x13 -->
<g id="edge50" class="edge">
<title>n3:e&#45;&gt;x13:w</title>
<path fill="none" stroke="black" stroke-width="3" d="M716.34,-296.75C769.26,-296.75 785.28,-296.97 833.02,-297"/>
<polygon fill="black" stroke="black" stroke-width="3" points="829.88,-300.5 839.88,-297 829.89,-293.5 829.88,-300.5"/>
</g>
</g>
</svg>
