<?xml version="1.0" encoding="UTF-8" standalone="no"?>
<!DOCTYPE svg PUBLIC "-//W3C//DTD SVG 1.1//EN"
 "http://www.w3.org/Graphics/SVG/1.1/DTD/svg11.dtd">
<!-- Generated by graphviz version 12.2.1 (20241206.2353)
 -->
<!-- Title: top Pages: 1 -->
<svg width="2246pt" height="497pt"
 viewBox="0.00 0.00 2246.03 497.48" xmlns="http://www.w3.org/2000/svg" xmlns:xlink="http://www.w3.org/1999/xlink">
<g id="graph0" class="graph" transform="scale(1 1) rotate(0) translate(4 493.48)">
<title>top</title>
<polygon fill="white" stroke="none" points="-4,4 -4,-493.48 2242.03,-493.48 2242.03,4 -4,4"/>
<text text-anchor="middle" x="1119.01" y="-7.2" font-family="Times,serif" font-size="14.00">top</text>
<!-- n8 -->
<g id="node1" class="node">
<title>n8</title>
<polygon fill="none" stroke="black" points="107.84,-245.04 107.84,-259.96 76.26,-270.5 31.59,-270.5 0,-259.96 0,-245.04 31.59,-234.5 76.26,-234.5 107.84,-245.04"/>
<text text-anchor="middle" x="53.92" y="-247.45" font-family="Times,serif" font-size="14.00">input_data</text>
</g>
<!-- c17 -->
<g id="node9" class="node">
<title>c17</title>
<polygon fill="none" stroke="black" points="143.84,-232 143.84,-273 235.34,-273 235.34,-232 143.84,-232"/>
<text text-anchor="middle" x="156.72" y="-247.7" font-family="Times,serif" font-size="14.00">A</text>
<polyline fill="none" stroke="black" points="169.59,-232 169.59,-273"/>
<text text-anchor="middle" x="189.59" y="-255.7" font-family="Times,serif" font-size="14.00">$25</text>
<text text-anchor="middle" x="189.59" y="-239.2" font-family="Times,serif" font-size="14.00">$not</text>
<polyline fill="none" stroke="black" points="209.59,-232 209.59,-273"/>
<text text-anchor="middle" x="222.47" y="-247.7" font-family="Times,serif" font-size="14.00">Y</text>
</g>
<!-- n8&#45;&gt;c17 -->
<g id="edge34" class="edge">
<title>n8:e&#45;&gt;c17:w</title>
<path fill="none" stroke="black" stroke-width="3" d="M107.84,-252.5C119.22,-252.5 124.53,-252.63 132.39,-252.7"/>
<polygon fill="black" stroke="black" stroke-width="3" points="129.28,-256.19 139.3,-252.73 129.32,-249.19 129.28,-256.19"/>
</g>
<!-- c18 -->
<g id="node10" class="node">
<title>c18</title>
<polygon fill="none" stroke="black" points="333.65,-265 333.65,-314 427.4,-314 427.4,-265 333.65,-265"/>
<text text-anchor="middle" x="346.53" y="-296.7" font-family="Times,serif" font-size="14.00">A</text>
<polyline fill="none" stroke="black" points="333.65,-289.5 359.4,-289.5"/>
<text text-anchor="middle" x="346.53" y="-272.2" font-family="Times,serif" font-size="14.00">B</text>
<polyline fill="none" stroke="black" points="359.4,-265 359.4,-314"/>
<text text-anchor="middle" x="380.53" y="-292.7" font-family="Times,serif" font-size="14.00">$29</text>
<text text-anchor="middle" x="380.53" y="-276.2" font-family="Times,serif" font-size="14.00">$and</text>
<polyline fill="none" stroke="black" points="401.65,-265 401.65,-314"/>
<text text-anchor="middle" x="414.53" y="-284.7" font-family="Times,serif" font-size="14.00">Y</text>
</g>
<!-- n8&#45;&gt;c18 -->
<g id="edge35" class="edge">
<title>n8:e&#45;&gt;c18:w</title>
<path fill="none" stroke="black" stroke-width="3" d="M107.84,-252.5C128.67,-252.5 124.64,-274.42 143.84,-282.5 217.95,-313.67 245.68,-302.91 321.16,-301.83"/>
<polygon fill="black" stroke="black" stroke-width="3" points="318.14,-305.35 328.11,-301.78 318.09,-298.35 318.14,-305.35"/>
</g>
<!-- x4 -->
<g id="node14" class="node">
<title>x4</title>
<path fill="none" stroke="black" d="M673.71,-432.5C673.71,-432.5 712.21,-432.5 712.21,-432.5 718.21,-432.5 724.21,-438.5 724.21,-444.5 724.21,-444.5 724.21,-456.5 724.21,-456.5 724.21,-462.5 718.21,-468.5 712.21,-468.5 712.21,-468.5 673.71,-468.5 673.71,-468.5 667.71,-468.5 661.71,-462.5 661.71,-456.5 661.71,-456.5 661.71,-444.5 661.71,-444.5 661.71,-438.5 667.71,-432.5 673.71,-432.5"/>
<text text-anchor="middle" x="692.96" y="-445.7" font-family="Times,serif" font-size="14.00">3:1 &#45; 2:0</text>
</g>
<!-- n8&#45;&gt;x4 -->
<g id="edge37" class="edge">
<title>n8:e&#45;&gt;x4:w</title>
<path fill="none" stroke="black" stroke-width="3" d="M107.84,-252.5C137.06,-252.5 120.25,-290.27 143.84,-307.5 333.24,-445.83 419.53,-450.63 649.31,-450.75"/>
<polygon fill="black" stroke="black" stroke-width="3" points="646.17,-454.25 656.17,-450.75 646.17,-447.25 646.17,-454.25"/>
</g>
<!-- x5 -->
<g id="node16" class="node">
<title>x5</title>
<path fill="none" stroke="black" d="M170.34,-105.5C170.34,-105.5 208.84,-105.5 208.84,-105.5 214.84,-105.5 220.84,-111.5 220.84,-117.5 220.84,-117.5 220.84,-129.5 220.84,-129.5 220.84,-135.5 214.84,-141.5 208.84,-141.5 208.84,-141.5 170.34,-141.5 170.34,-141.5 164.34,-141.5 158.34,-135.5 158.34,-129.5 158.34,-129.5 158.34,-117.5 158.34,-117.5 158.34,-111.5 164.34,-105.5 170.34,-105.5"/>
<text text-anchor="middle" x="189.59" y="-118.7" font-family="Times,serif" font-size="14.00">3:1 &#45; 2:0</text>
</g>
<!-- n8&#45;&gt;x5 -->
<g id="edge38" class="edge">
<title>n8:e&#45;&gt;x5:w</title>
<path fill="none" stroke="black" stroke-width="3" d="M107.84,-252.5C164.72,-252.5 105.9,-141.69 146.05,-125.67"/>
<polygon fill="black" stroke="black" stroke-width="3" points="143.59,-129.64 152.86,-124.51 142.42,-122.74 143.59,-129.64"/>
</g>
<!-- x11 -->
<g id="node27" class="node">
<title>x11</title>
<path fill="none" stroke="black" d="M673.71,-128.5C673.71,-128.5 712.21,-128.5 712.21,-128.5 718.21,-128.5 724.21,-134.5 724.21,-140.5 724.21,-140.5 724.21,-152.5 724.21,-152.5 724.21,-158.5 718.21,-164.5 712.21,-164.5 712.21,-164.5 673.71,-164.5 673.71,-164.5 667.71,-164.5 661.71,-158.5 661.71,-152.5 661.71,-152.5 661.71,-140.5 661.71,-140.5 661.71,-134.5 667.71,-128.5 673.71,-128.5"/>
<text text-anchor="middle" x="692.96" y="-141.7" font-family="Times,serif" font-size="14.00">3:1 &#45; 2:0</text>
</g>
<!-- n8&#45;&gt;x11 -->
<g id="edge36" class="edge">
<title>n8:e&#45;&gt;x11:w</title>
<path fill="none" stroke="black" stroke-width="3" d="M107.84,-252.5C128.67,-252.5 124.9,-231.16 143.84,-222.5 196.07,-198.61 214.57,-210.17 271.34,-201.5 440.39,-175.7 484.1,-147.97 649.63,-146.79"/>
<polygon fill="black" stroke="black" stroke-width="3" points="646.18,-150.3 656.17,-146.77 646.16,-143.3 646.18,-150.3"/>
</g>
<!-- n9 -->
<g id="node2" class="node">
<title>n9</title>
<polygon fill="none" stroke="black" points="2238.03,-65.04 2238.03,-79.96 2203.52,-90.5 2154.72,-90.5 2120.22,-79.96 2120.22,-65.04 2154.72,-54.5 2203.52,-54.5 2238.03,-65.04"/>
<text text-anchor="middle" x="2179.12" y="-67.45" font-family="Times,serif" font-size="14.00">output_data</text>
</g>
<!-- n10 -->
<g id="node3" class="node">
<title>n10</title>
<polygon fill="none" stroke="black" points="692.96,-307.5 637.71,-289.5 692.96,-271.5 748.21,-289.5 692.96,-307.5"/>
<text text-anchor="middle" x="692.96" y="-284.45" font-family="Times,serif" font-size="14.00">temp_0</text>
</g>
<!-- x3 -->
<g id="node13" class="node">
<title>x3</title>
<path fill="none" stroke="black" d="M798.46,-434.5C798.46,-434.5 836.96,-434.5 836.96,-434.5 842.96,-434.5 848.96,-440.5 848.96,-446.5 848.96,-446.5 848.96,-458.5 848.96,-458.5 848.96,-464.5 842.96,-470.5 836.96,-470.5 836.96,-470.5 798.46,-470.5 798.46,-470.5 792.46,-470.5 786.46,-464.5 786.46,-458.5 786.46,-458.5 786.46,-446.5 786.46,-446.5 786.46,-440.5 792.46,-434.5 798.46,-434.5"/>
<text text-anchor="middle" x="817.71" y="-447.7" font-family="Times,serif" font-size="14.00">2:0 &#45; 2:0</text>
</g>
<!-- n10&#45;&gt;x3 -->
<g id="edge19" class="edge">
<title>n10:e&#45;&gt;x3:w</title>
<path fill="none" stroke="black" stroke-width="3" d="M748.21,-289.5C818.27,-289.5 723.48,-434.18 774.22,-451.13"/>
<polygon fill="black" stroke="black" stroke-width="3" points="770.57,-454.15 780.97,-452.1 771.57,-447.22 770.57,-454.15"/>
</g>
<!-- x6 -->
<g id="node18" class="node">
<title>x6</title>
<path fill="none" stroke="black" d="M913.71,-255C913.71,-255 956.71,-255 956.71,-255 962.71,-255 968.71,-261 968.71,-267 968.71,-267 968.71,-292 968.71,-292 968.71,-298 962.71,-304 956.71,-304 956.71,-304 913.71,-304 913.71,-304 907.71,-304 901.71,-298 901.71,-292 901.71,-292 901.71,-267 901.71,-267 901.71,-261 907.71,-255 913.71,-255"/>
<text text-anchor="middle" x="935.21" y="-286.7" font-family="Times,serif" font-size="14.00">0 &#45;&gt; 24:6</text>
<polyline fill="none" stroke="black" points="901.71,-279.5 968.71,-279.5"/>
<text text-anchor="middle" x="935.21" y="-262.2" font-family="Times,serif" font-size="14.00">5:0 &#45; 5:0</text>
</g>
<!-- n10&#45;&gt;x6 -->
<g id="edge20" class="edge">
<title>n10:e&#45;&gt;x6:w</title>
<path fill="none" stroke="black" stroke-width="3" d="M748.21,-289.5C812.83,-289.5 830.29,-269.7 889.57,-267.46"/>
<polygon fill="black" stroke="black" stroke-width="3" points="886.24,-271.02 896.17,-267.33 886.11,-264.02 886.24,-271.02"/>
</g>
<!-- x7 -->
<g id="node20" class="node">
<title>x7</title>
<path fill="none" stroke="black" d="M796.21,-366C796.21,-366 839.21,-366 839.21,-366 845.21,-366 851.21,-372 851.21,-378 851.21,-378 851.21,-403 851.21,-403 851.21,-409 845.21,-415 839.21,-415 839.21,-415 796.21,-415 796.21,-415 790.21,-415 784.21,-409 784.21,-403 784.21,-403 784.21,-378 784.21,-378 784.21,-372 790.21,-366 796.21,-366"/>
<text text-anchor="middle" x="817.71" y="-397.7" font-family="Times,serif" font-size="14.00">0 &#45;&gt; 24:6</text>
<polyline fill="none" stroke="black" points="784.21,-390.5 851.21,-390.5"/>
<text text-anchor="middle" x="817.71" y="-373.2" font-family="Times,serif" font-size="14.00">5:0 &#45; 5:0</text>
</g>
<!-- n10&#45;&gt;x7 -->
<g id="edge21" class="edge">
<title>n10:e&#45;&gt;x7:w</title>
<path fill="none" stroke="black" stroke-width="3" d="M748.21,-289.5C786.12,-289.5 751.3,-359.9 773.3,-375.3"/>
<polygon fill="black" stroke="black" stroke-width="3" points="769.26,-377.83 779.83,-377.06 771.09,-371.07 769.26,-377.83"/>
</g>
<!-- x8 -->
<g id="node21" class="node">
<title>x8</title>
<path fill="none" stroke="black" d="M796.21,-298C796.21,-298 839.21,-298 839.21,-298 845.21,-298 851.21,-304 851.21,-310 851.21,-310 851.21,-335 851.21,-335 851.21,-341 845.21,-347 839.21,-347 839.21,-347 796.21,-347 796.21,-347 790.21,-347 784.21,-341 784.21,-335 784.21,-335 784.21,-310 784.21,-310 784.21,-304 790.21,-298 796.21,-298"/>
<text text-anchor="middle" x="817.71" y="-329.7" font-family="Times,serif" font-size="14.00">0 &#45;&gt; 24:6</text>
<polyline fill="none" stroke="black" points="784.21,-322.5 851.21,-322.5"/>
<text text-anchor="middle" x="817.71" y="-305.2" font-family="Times,serif" font-size="14.00">5:0 &#45; 5:0</text>
</g>
<!-- n10&#45;&gt;x8 -->
<g id="edge22" class="edge">
<title>n10:e&#45;&gt;x8:w</title>
<path fill="none" stroke="black" stroke-width="3" d="M748.21,-289.5C762.06,-289.5 765,-301.17 773.39,-307.01"/>
<polygon fill="black" stroke="black" stroke-width="3" points="769.28,-309.43 779.86,-308.95 771.29,-302.72 769.28,-309.43"/>
</g>
<!-- x9 -->
<g id="node24" class="node">
<title>x9</title>
<path fill="none" stroke="black" d="M798.46,-204.5C798.46,-204.5 836.96,-204.5 836.96,-204.5 842.96,-204.5 848.96,-210.5 848.96,-216.5 848.96,-216.5 848.96,-228.5 848.96,-228.5 848.96,-234.5 842.96,-240.5 836.96,-240.5 836.96,-240.5 798.46,-240.5 798.46,-240.5 792.46,-240.5 786.46,-234.5 786.46,-228.5 786.46,-228.5 786.46,-216.5 786.46,-216.5 786.46,-210.5 792.46,-204.5 798.46,-204.5"/>
<text text-anchor="middle" x="817.71" y="-217.7" font-family="Times,serif" font-size="14.00">5:0 &#45; 5:0</text>
</g>
<!-- n10&#45;&gt;x9 -->
<g id="edge23" class="edge">
<title>n10:e&#45;&gt;x9:w</title>
<path fill="none" stroke="black" stroke-width="3" d="M748.21,-289.5C777.41,-289.5 758.84,-240.2 774.61,-226.34"/>
<polygon fill="black" stroke="black" stroke-width="3" points="772.76,-230.64 781.15,-224.18 770.56,-223.99 772.76,-230.64"/>
</g>
<!-- x10 -->
<g id="node25" class="node">
<title>x10</title>
<path fill="none" stroke="black" d="M798.46,-149.5C798.46,-149.5 836.96,-149.5 836.96,-149.5 842.96,-149.5 848.96,-155.5 848.96,-161.5 848.96,-161.5 848.96,-173.5 848.96,-173.5 848.96,-179.5 842.96,-185.5 836.96,-185.5 836.96,-185.5 798.46,-185.5 798.46,-185.5 792.46,-185.5 786.46,-179.5 786.46,-173.5 786.46,-173.5 786.46,-161.5 786.46,-161.5 786.46,-155.5 792.46,-149.5 798.46,-149.5"/>
<text text-anchor="middle" x="817.71" y="-162.7" font-family="Times,serif" font-size="14.00">5:0 &#45; 5:0</text>
</g>
<!-- n10&#45;&gt;x10 -->
<g id="edge17" class="edge">
<title>n10:e&#45;&gt;x10:w</title>
<path fill="none" stroke="black" stroke-width="3" d="M748.21,-289.5C800.38,-289.5 739.93,-186.03 774.5,-169.86"/>
<polygon fill="black" stroke="black" stroke-width="3" points="771.85,-173.94 781,-168.61 770.52,-167.07 771.85,-173.94"/>
</g>
<!-- x12 -->
<g id="node29" class="node">
<title>x12</title>
<path fill="none" stroke="black" d="M1047.96,-431C1047.96,-431 1086.46,-431 1086.46,-431 1092.46,-431 1098.46,-437 1098.46,-443 1098.46,-443 1098.46,-468 1098.46,-468 1098.46,-474 1092.46,-480 1086.46,-480 1086.46,-480 1047.96,-480 1047.96,-480 1041.96,-480 1035.96,-474 1035.96,-468 1035.96,-468 1035.96,-443 1035.96,-443 1035.96,-437 1041.96,-431 1047.96,-431"/>
<text text-anchor="middle" x="1067.21" y="-462.7" font-family="Times,serif" font-size="14.00">5:3 &#45; 5:3</text>
<polyline fill="none" stroke="black" points="1035.96,-455.5 1098.46,-455.5"/>
<text text-anchor="middle" x="1067.21" y="-438.2" font-family="Times,serif" font-size="14.00">2:0 &#45; 2:0</text>
</g>
<!-- n10&#45;&gt;x12 -->
<g id="edge18" class="edge">
<title>n10:e&#45;&gt;x12:w</title>
<path fill="none" stroke="black" stroke-width="3" d="M748.21,-289.5C834.6,-289.5 717.71,-425.36 784.21,-480.5 807.14,-499.51 821.44,-480.84 851.21,-480.5 909.89,-479.83 924.85,-483.62 983.21,-477.5 1002.13,-475.52 1009.02,-470.32 1023.49,-468.44"/>
<polygon fill="black" stroke="black" stroke-width="3" points="1020.66,-472.12 1030.43,-468.02 1020.24,-465.13 1020.66,-472.12"/>
</g>
<!-- n11 -->
<g id="node4" class="node">
<title>n11</title>
<polygon fill="none" stroke="black" points="1206.46,-302.5 1151.21,-284.5 1206.46,-266.5 1261.71,-284.5 1206.46,-302.5"/>
<text text-anchor="middle" x="1206.46" y="-279.45" font-family="Times,serif" font-size="14.00">temp_2</text>
</g>
<!-- c23 -->
<g id="node22" class="node">
<title>c23</title>
<polygon fill="none" stroke="black" points="1297.71,-156 1297.71,-197 1438.71,-197 1438.71,-156 1297.71,-156"/>
<text text-anchor="middle" x="1310.59" y="-171.7" font-family="Times,serif" font-size="14.00">A</text>
<polyline fill="none" stroke="black" points="1323.46,-156 1323.46,-197"/>
<text text-anchor="middle" x="1368.21" y="-179.7" font-family="Times,serif" font-size="14.00">$13</text>
<text text-anchor="middle" x="1368.21" y="-163.2" font-family="Times,serif" font-size="14.00">$reduce_bool</text>
<polyline fill="none" stroke="black" points="1412.96,-156 1412.96,-197"/>
<text text-anchor="middle" x="1425.84" y="-171.7" font-family="Times,serif" font-size="14.00">Y</text>
</g>
<!-- n11&#45;&gt;c23 -->
<g id="edge25" class="edge">
<title>n11:e&#45;&gt;c23:w</title>
<path fill="none" stroke="black" stroke-width="3" d="M1261.71,-284.5C1307.67,-284.5 1257.97,-195.24 1286.73,-179.2"/>
<polygon fill="black" stroke="black" stroke-width="3" points="1284.29,-183.34 1293.28,-177.74 1282.76,-176.5 1284.29,-183.34"/>
</g>
<!-- n12 -->
<g id="node5" class="node">
<title>n12</title>
<polygon fill="none" stroke="black" points="1664.96,-197.5 1609.71,-179.5 1664.96,-161.5 1720.22,-179.5 1664.96,-197.5"/>
<text text-anchor="middle" x="1664.96" y="-174.45" font-family="Times,serif" font-size="14.00">temp_4</text>
</g>
<!-- c25 -->
<g id="node26" class="node">
<title>c25</title>
<polygon fill="none" stroke="black" points="1756.22,-108 1756.22,-157 1849.22,-157 1849.22,-108 1756.22,-108"/>
<text text-anchor="middle" x="1769.09" y="-139.7" font-family="Times,serif" font-size="14.00">A</text>
<polyline fill="none" stroke="black" points="1756.22,-132.5 1781.97,-132.5"/>
<text text-anchor="middle" x="1769.09" y="-115.2" font-family="Times,serif" font-size="14.00">B</text>
<polyline fill="none" stroke="black" points="1781.97,-108 1781.97,-157"/>
<text text-anchor="middle" x="1802.72" y="-135.7" font-family="Times,serif" font-size="14.00">$15</text>
<text text-anchor="middle" x="1802.72" y="-119.2" font-family="Times,serif" font-size="14.00">$sub</text>
<polyline fill="none" stroke="black" points="1823.47,-108 1823.47,-157"/>
<text text-anchor="middle" x="1836.34" y="-127.7" font-family="Times,serif" font-size="14.00">Y</text>
</g>
<!-- n12&#45;&gt;c25 -->
<g id="edge27" class="edge">
<title>n12:e&#45;&gt;c25:w</title>
<path fill="none" stroke="black" stroke-width="3" d="M1720.22,-179.5C1737.76,-179.5 1736.19,-157.86 1745.67,-148.74"/>
<polygon fill="black" stroke="black" stroke-width="3" points="1743.85,-153.16 1751.97,-146.36 1741.38,-146.62 1743.85,-153.16"/>
</g>
<!-- c16 -->
<g id="node6" class="node">
<title>c16</title>
<polygon fill="none" stroke="black" points="1885.22,-79 1885.22,-128 1978.97,-128 1978.97,-79 1885.22,-79"/>
<text text-anchor="middle" x="1898.09" y="-110.7" font-family="Times,serif" font-size="14.00">A</text>
<polyline fill="none" stroke="black" points="1885.22,-103.5 1910.97,-103.5"/>
<text text-anchor="middle" x="1898.09" y="-86.2" font-family="Times,serif" font-size="14.00">B</text>
<polyline fill="none" stroke="black" points="1910.97,-79 1910.97,-128"/>
<text text-anchor="middle" x="1932.09" y="-106.7" font-family="Times,serif" font-size="14.00">$18</text>
<text text-anchor="middle" x="1932.09" y="-90.2" font-family="Times,serif" font-size="14.00">$add</text>
<polyline fill="none" stroke="black" points="1953.22,-79 1953.22,-128"/>
<text text-anchor="middle" x="1966.09" y="-98.7" font-family="Times,serif" font-size="14.00">Y</text>
</g>
<!-- x1 -->
<g id="node8" class="node">
<title>x1</title>
<path fill="none" stroke="black" d="M2030.34,-83.5C2030.34,-83.5 2068.84,-83.5 2068.84,-83.5 2074.84,-83.5 2080.84,-89.5 2080.84,-95.5 2080.84,-95.5 2080.84,-107.5 2080.84,-107.5 2080.84,-113.5 2074.84,-119.5 2068.84,-119.5 2068.84,-119.5 2030.34,-119.5 2030.34,-119.5 2024.34,-119.5 2018.34,-113.5 2018.34,-107.5 2018.34,-107.5 2018.34,-95.5 2018.34,-95.5 2018.34,-89.5 2024.34,-83.5 2030.34,-83.5"/>
<text text-anchor="middle" x="2049.59" y="-96.7" font-family="Times,serif" font-size="14.00">5:0 &#45; 5:0</text>
</g>
<!-- c16&#45;&gt;x1 -->
<g id="edge2" class="edge">
<title>c16:e&#45;&gt;x1:w</title>
<path fill="none" stroke="black" stroke-width="3" d="M1992,-103.23C1996.34,-102.86 2000,-102.38 2004.34,-102.02"/>
<polygon fill="none" stroke="black" stroke-width="3" points="1993.66,-103.16 1987.82,-107.4 1981.67,-103.64 1987.5,-99.4 1993.66,-103.16"/>
<polygon fill="none" stroke="black" stroke-width="3" points="2002.65,-102.09 2008.48,-97.85 2014.64,-101.61 2008.8,-105.84 2002.65,-102.09"/>
</g>
<!-- x0 -->
<g id="node7" class="node">
<title>x0</title>
<path fill="none" stroke="black" d="M1187.21,-43C1187.21,-43 1225.71,-43 1225.71,-43 1231.71,-43 1237.71,-49 1237.71,-55 1237.71,-55 1237.71,-80 1237.71,-80 1237.71,-86 1231.71,-92 1225.71,-92 1225.71,-92 1187.21,-92 1187.21,-92 1181.21,-92 1175.21,-86 1175.21,-80 1175.21,-80 1175.21,-55 1175.21,-55 1175.21,-49 1181.21,-43 1187.21,-43"/>
<text text-anchor="middle" x="1206.46" y="-74.7" font-family="Times,serif" font-size="14.00">1 &#45;&gt; 5:3</text>
<polyline fill="none" stroke="black" points="1175.21,-67.5 1237.71,-67.5"/>
<text text-anchor="middle" x="1206.46" y="-50.2" font-family="Times,serif" font-size="14.00">2:0 &#45; 2:0</text>
</g>
<!-- x0&#45;&gt;c16 -->
<g id="edge1" class="edge">
<title>x0:e&#45;&gt;c16:w</title>
<path fill="none" stroke="black" stroke-width="3" d="M1251.71,-67.52C1367.52,-67.91 1401.19,-73.5 1523.21,-73.5 1523.21,-73.5 1523.21,-73.5 1665.96,-73.5 1759.24,-73.5 1785.12,-89.66 1872.21,-91.14"/>
<polygon fill="none" stroke="black" stroke-width="3" points="1253.42,-67.52 1247.41,-71.51 1241.42,-67.5 1247.42,-63.51 1253.42,-67.52"/>
<polygon fill="none" stroke="black" stroke-width="3" points="1870.51,-91.13 1876.55,-87.18 1882.51,-91.23 1876.48,-95.18 1870.51,-91.13"/>
</g>
<!-- x1&#45;&gt;n9 -->
<g id="edge40" class="edge">
<title>x1:e&#45;&gt;n9:w</title>
<path fill="none" stroke="black" stroke-width="3" d="M2081.84,-101.75C2098.59,-101.75 2099.5,-83.9 2109.33,-76.09"/>
<polygon fill="black" stroke="black" stroke-width="3" points="2107.5,-80.37 2115.9,-73.92 2105.31,-73.72 2107.5,-80.37"/>
</g>
<!-- c17&#45;&gt;c18 -->
<g id="edge14" class="edge">
<title>c17:e&#45;&gt;c18:w</title>
<path fill="none" stroke="black" stroke-width="3" d="M235.34,-252.75C275.93,-252.75 286.3,-273.05 321.46,-276.69"/>
<polygon fill="black" stroke="black" stroke-width="3" points="317.95,-280.02 328.12,-277.02 318.3,-273.03 317.95,-280.02"/>
</g>
<!-- x2 -->
<g id="node11" class="node">
<title>x2</title>
<path fill="none" stroke="black" d="M544.46,-271.5C544.46,-271.5 582.96,-271.5 582.96,-271.5 588.96,-271.5 594.96,-277.5 594.96,-283.5 594.96,-283.5 594.96,-295.5 594.96,-295.5 594.96,-301.5 588.96,-307.5 582.96,-307.5 582.96,-307.5 544.46,-307.5 544.46,-307.5 538.46,-307.5 532.46,-301.5 532.46,-295.5 532.46,-295.5 532.46,-283.5 532.46,-283.5 532.46,-277.5 538.46,-271.5 544.46,-271.5"/>
<text text-anchor="middle" x="563.71" y="-284.7" font-family="Times,serif" font-size="14.00">5:0 &#45; 5:0</text>
</g>
<!-- c18&#45;&gt;x2 -->
<g id="edge3" class="edge">
<title>c18:e&#45;&gt;x2:w</title>
<path fill="none" stroke="black" stroke-width="3" d="M441.37,-289.74C472.86,-289.71 486.98,-289.54 518.47,-289.51"/>
<polygon fill="none" stroke="black" stroke-width="3" points="443.11,-289.74 437.11,-293.75 431.11,-289.75 437.1,-285.75 443.11,-289.74"/>
<polygon fill="none" stroke="black" stroke-width="3" points="516.76,-289.51 522.76,-285.5 528.76,-289.5 522.76,-293.5 516.76,-289.51"/>
</g>
<!-- x2&#45;&gt;n10 -->
<g id="edge16" class="edge">
<title>x2:e&#45;&gt;n10:w</title>
<path fill="none" stroke="black" stroke-width="3" d="M595.96,-289.75C610.02,-289.75 616.09,-289.61 626.28,-289.54"/>
<polygon fill="black" stroke="black" stroke-width="3" points="623.18,-293.05 633.17,-289.51 623.16,-286.05 623.18,-293.05"/>
</g>
<!-- c19 -->
<g id="node12" class="node">
<title>c19</title>
<polygon fill="none" stroke="black" points="889.09,-419 889.09,-468 981.34,-468 981.34,-419 889.09,-419"/>
<text text-anchor="middle" x="901.96" y="-450.7" font-family="Times,serif" font-size="14.00">A</text>
<polyline fill="none" stroke="black" points="889.09,-443.5 914.84,-443.5"/>
<text text-anchor="middle" x="901.96" y="-426.2" font-family="Times,serif" font-size="14.00">B</text>
<polyline fill="none" stroke="black" points="914.84,-419 914.84,-468"/>
<text text-anchor="middle" x="935.21" y="-446.7" font-family="Times,serif" font-size="14.00">$33</text>
<text text-anchor="middle" x="935.21" y="-430.2" font-family="Times,serif" font-size="14.00">$xor</text>
<polyline fill="none" stroke="black" points="955.59,-419 955.59,-468"/>
<text text-anchor="middle" x="968.46" y="-438.7" font-family="Times,serif" font-size="14.00">Y</text>
</g>
<!-- c19&#45;&gt;x12 -->
<g id="edge28" class="edge">
<title>c19:e&#45;&gt;x12:w</title>
<path fill="none" stroke="black" stroke-width="3" d="M982.34,-443.75C1001.53,-443.75 1008.91,-443.41 1023.85,-443.29"/>
<polygon fill="black" stroke="black" stroke-width="3" points="1020.44,-446.81 1030.42,-443.27 1020.41,-439.81 1020.44,-446.81"/>
</g>
<!-- x3&#45;&gt;c19 -->
<g id="edge4" class="edge">
<title>x3:e&#45;&gt;c19:w</title>
<path fill="none" stroke="black" stroke-width="3" d="M862.92,-453.25C867.23,-453.78 870.85,-454.48 875.17,-455"/>
<polygon fill="none" stroke="black" stroke-width="3" points="864.64,-453.35 858.42,-457 852.66,-452.66 858.89,-449.01 864.64,-453.35"/>
<polygon fill="none" stroke="black" stroke-width="3" points="873.41,-454.9 879.63,-451.25 885.39,-455.59 879.17,-459.24 873.41,-454.9"/>
</g>
<!-- x4&#45;&gt;c19 -->
<g id="edge5" class="edge">
<title>x4:e&#45;&gt;c19:w</title>
<path fill="none" stroke="black" stroke-width="3" d="M737.89,-452.27C755.74,-457.82 760.41,-474.8 784.21,-480.5 813.17,-487.44 824.58,-493.83 851.21,-480.5 870.7,-470.75 865.18,-445.26 875.97,-435.31"/>
<polygon fill="none" stroke="black" stroke-width="3" points="739.78,-452.53 733.28,-455.67 727.89,-450.87 734.39,-447.74 739.78,-452.53"/>
<polygon fill="none" stroke="black" stroke-width="3" points="874.15,-435.93 878.56,-430.23 885.52,-432.11 881.11,-437.81 874.15,-435.93"/>
</g>
<!-- c20 -->
<g id="node15" class="node">
<title>c20</title>
<polygon fill="none" stroke="black" points="334.78,-80 334.78,-121 426.28,-121 426.28,-80 334.78,-80"/>
<text text-anchor="middle" x="347.65" y="-95.7" font-family="Times,serif" font-size="14.00">A</text>
<polyline fill="none" stroke="black" points="360.53,-80 360.53,-121"/>
<text text-anchor="middle" x="380.53" y="-103.7" font-family="Times,serif" font-size="14.00">$36</text>
<text text-anchor="middle" x="380.53" y="-87.2" font-family="Times,serif" font-size="14.00">$not</text>
<polyline fill="none" stroke="black" points="400.53,-80 400.53,-121"/>
<text text-anchor="middle" x="413.4" y="-95.7" font-family="Times,serif" font-size="14.00">Y</text>
</g>
<!-- c20&#45;&gt;x0 -->
<g id="edge29" class="edge">
<title>c20:e&#45;&gt;x0:w</title>
<path fill="none" stroke="black" stroke-width="3" d="M427.28,-100.75C545.78,-100.75 573.45,-68.5 691.96,-68.5 691.96,-68.5 691.96,-68.5 936.21,-68.5 1038.22,-68.5 1066.22,-56.22 1162.74,-55.3"/>
<polygon fill="black" stroke="black" stroke-width="3" points="1159.69,-58.82 1169.67,-55.27 1159.66,-51.82 1159.69,-58.82"/>
</g>
<!-- x5&#45;&gt;c20 -->
<g id="edge6" class="edge">
<title>x5:e&#45;&gt;c20:w</title>
<path fill="none" stroke="black" stroke-width="3" d="M234.86,-122.96C270.95,-119.85 284.91,-104.27 321.17,-101.26"/>
<polygon fill="none" stroke="black" stroke-width="3" points="236.53,-122.89 230.7,-127.14 224.54,-123.39 230.37,-119.14 236.53,-122.89"/>
<polygon fill="none" stroke="black" stroke-width="3" points="319.08,-101.34 324.92,-97.1 331.07,-100.86 325.24,-105.1 319.08,-101.34"/>
</g>
<!-- c21 -->
<g id="node17" class="node">
<title>c21</title>
<polygon fill="none" stroke="black" points="1019.21,-267 1019.21,-316 1115.21,-316 1115.21,-267 1019.21,-267"/>
<text text-anchor="middle" x="1032.09" y="-298.7" font-family="Times,serif" font-size="14.00">A</text>
<polyline fill="none" stroke="black" points="1019.21,-291.5 1044.96,-291.5"/>
<text text-anchor="middle" x="1032.09" y="-274.2" font-family="Times,serif" font-size="14.00">B</text>
<polyline fill="none" stroke="black" points="1044.96,-267 1044.96,-316"/>
<text text-anchor="middle" x="1067.21" y="-294.7" font-family="Times,serif" font-size="14.00">$10</text>
<text text-anchor="middle" x="1067.21" y="-278.2" font-family="Times,serif" font-size="14.00">$mul</text>
<polyline fill="none" stroke="black" points="1089.46,-267 1089.46,-316"/>
<text text-anchor="middle" x="1102.34" y="-286.7" font-family="Times,serif" font-size="14.00">Y</text>
</g>
<!-- c21&#45;&gt;n11 -->
<g id="edge24" class="edge">
<title>c21:e&#45;&gt;n11:w</title>
<path fill="none" stroke="black" stroke-width="3" d="M1115.21,-291.75C1126.94,-291.75 1131.98,-288 1139.94,-285.9"/>
<polygon fill="black" stroke="black" stroke-width="3" points="1137.21,-289.76 1146.71,-285.06 1136.35,-282.82 1137.21,-289.76"/>
</g>
<!-- x6&#45;&gt;c21 -->
<g id="edge7" class="edge">
<title>x6:e&#45;&gt;c21:w</title>
<path fill="none" stroke="black" stroke-width="3" d="M982.51,-279.47C991.33,-279.42 997.48,-279.33 1006.27,-279.28"/>
<polygon fill="none" stroke="black" stroke-width="3" points="984.42,-279.46 978.43,-283.48 972.42,-279.49 978.41,-275.48 984.42,-279.46"/>
<polygon fill="none" stroke="black" stroke-width="3" points="1004.51,-279.29 1010.5,-275.27 1016.51,-279.26 1010.52,-283.27 1004.51,-279.29"/>
</g>
<!-- c22 -->
<g id="node19" class="node">
<title>c22</title>
<polygon fill="none" stroke="black" points="887.21,-323 887.21,-372 983.21,-372 983.21,-323 887.21,-323"/>
<text text-anchor="middle" x="900.09" y="-354.7" font-family="Times,serif" font-size="14.00">A</text>
<polyline fill="none" stroke="black" points="887.21,-347.5 912.96,-347.5"/>
<text text-anchor="middle" x="900.09" y="-330.2" font-family="Times,serif" font-size="14.00">B</text>
<polyline fill="none" stroke="black" points="912.96,-323 912.96,-372"/>
<text text-anchor="middle" x="935.21" y="-350.7" font-family="Times,serif" font-size="14.00">$9</text>
<text text-anchor="middle" x="935.21" y="-334.2" font-family="Times,serif" font-size="14.00">$mul</text>
<polyline fill="none" stroke="black" points="957.46,-323 957.46,-372"/>
<text text-anchor="middle" x="970.34" y="-342.7" font-family="Times,serif" font-size="14.00">Y</text>
</g>
<!-- c22&#45;&gt;c21 -->
<g id="edge31" class="edge">
<title>c22:e&#45;&gt;c21:w</title>
<path fill="none" stroke="black" stroke-width="3" d="M983.21,-347.75C1003.74,-347.75 998,-318.7 1008.67,-307.81"/>
<polygon fill="black" stroke="black" stroke-width="3" points="1006.9,-312.24 1014.98,-305.38 1004.39,-305.71 1006.9,-312.24"/>
</g>
<!-- x7&#45;&gt;c22 -->
<g id="edge8" class="edge">
<title>x7:e&#45;&gt;c22:w</title>
<path fill="none" stroke="black" stroke-width="3" d="M863.01,-385.42C868.2,-379.69 870.28,-370.43 875.5,-364.73"/>
<polygon fill="none" stroke="black" stroke-width="3" points="864.72,-384.69 860.79,-390.73 853.7,-389.43 857.63,-383.38 864.72,-384.69"/>
<polygon fill="none" stroke="black" stroke-width="3" points="873.68,-365.51 877.64,-359.48 884.73,-360.81 880.77,-366.84 873.68,-365.51"/>
</g>
<!-- x8&#45;&gt;c22 -->
<g id="edge9" class="edge">
<title>x8:e&#45;&gt;c22:w</title>
<path fill="none" stroke="black" stroke-width="3" d="M863.67,-325.46C867.64,-327.52 870.82,-330.25 874.79,-332.31"/>
<polygon fill="none" stroke="black" stroke-width="3" points="865.52,-325.9 858.76,-328.4 853.84,-323.12 860.61,-320.62 865.52,-325.9"/>
<polygon fill="none" stroke="black" stroke-width="3" points="872.9,-331.86 879.67,-329.35 884.58,-334.63 877.82,-337.14 872.9,-331.86"/>
</g>
<!-- c27 -->
<g id="node28" class="node">
<title>c27</title>
<polygon fill="none" stroke="black" points="1474.71,-175.75 1474.71,-249.25 1573.71,-249.25 1573.71,-175.75 1474.71,-175.75"/>
<text text-anchor="middle" x="1487.59" y="-231.95" font-family="Times,serif" font-size="14.00">A</text>
<polyline fill="none" stroke="black" points="1474.71,-224.75 1500.46,-224.75"/>
<text text-anchor="middle" x="1487.59" y="-207.45" font-family="Times,serif" font-size="14.00">B</text>
<polyline fill="none" stroke="black" points="1474.71,-200.25 1500.46,-200.25"/>
<text text-anchor="middle" x="1487.59" y="-182.95" font-family="Times,serif" font-size="14.00">S</text>
<polyline fill="none" stroke="black" points="1500.46,-175.75 1500.46,-249.25"/>
<text text-anchor="middle" x="1524.21" y="-215.7" font-family="Times,serif" font-size="14.00">$14</text>
<text text-anchor="middle" x="1524.21" y="-199.2" font-family="Times,serif" font-size="14.00">$mux</text>
<polyline fill="none" stroke="black" points="1547.96,-175.75 1547.96,-249.25"/>
<text text-anchor="middle" x="1560.84" y="-207.45" font-family="Times,serif" font-size="14.00">Y</text>
</g>
<!-- c23&#45;&gt;c27 -->
<g id="edge32" class="edge">
<title>c23:e&#45;&gt;c27:w</title>
<path fill="none" stroke="black" d="M1438.71,-176.75C1450.89,-176.75 1455.53,-182.69 1463.58,-185.94"/>
<polygon fill="black" stroke="black" points="1462.76,-189.34 1473.23,-187.72 1464.03,-182.46 1462.76,-189.34"/>
</g>
<!-- c24 -->
<g id="node23" class="node">
<title>c24</title>
<polygon fill="none" stroke="black" points="888.71,-186 888.71,-235 981.71,-235 981.71,-186 888.71,-186"/>
<text text-anchor="middle" x="901.59" y="-217.7" font-family="Times,serif" font-size="14.00">A</text>
<polyline fill="none" stroke="black" points="888.71,-210.5 914.46,-210.5"/>
<text text-anchor="middle" x="901.59" y="-193.2" font-family="Times,serif" font-size="14.00">B</text>
<polyline fill="none" stroke="black" points="914.46,-186 914.46,-235"/>
<text text-anchor="middle" x="935.21" y="-213.7" font-family="Times,serif" font-size="14.00">$11</text>
<text text-anchor="middle" x="935.21" y="-197.2" font-family="Times,serif" font-size="14.00">$sub</text>
<polyline fill="none" stroke="black" points="955.96,-186 955.96,-235"/>
<text text-anchor="middle" x="968.84" y="-205.7" font-family="Times,serif" font-size="14.00">Y</text>
</g>
<!-- c24&#45;&gt;c27 -->
<g id="edge30" class="edge">
<title>c24:e&#45;&gt;c27:w</title>
<path fill="none" stroke="black" stroke-width="3" d="M982.71,-210.75C1197.54,-210.75 1254.07,-212.44 1463.33,-212.5"/>
<polygon fill="black" stroke="black" stroke-width="3" points="1460.17,-216 1470.17,-212.5 1460.17,-209 1460.17,-216"/>
</g>
<!-- x9&#45;&gt;c24 -->
<g id="edge10" class="edge">
<title>x9:e&#45;&gt;c24:w</title>
<path fill="none" stroke="black" stroke-width="3" d="M862.77,-222.56C867.05,-222.6 870.66,-222.65 874.94,-222.69"/>
<polygon fill="none" stroke="black" stroke-width="3" points="864.67,-222.57 858.65,-226.54 852.67,-222.51 858.69,-218.54 864.67,-222.57"/>
<polygon fill="none" stroke="black" stroke-width="3" points="873.01,-222.68 879.03,-218.71 885.01,-222.74 878.99,-226.71 873.01,-222.68"/>
</g>
<!-- x10&#45;&gt;c24 -->
<g id="edge11" class="edge">
<title>x10:e&#45;&gt;c24:w</title>
<path fill="none" stroke="black" stroke-width="3" d="M861.95,-172.3C867.72,-178.12 870.04,-187.83 875.86,-193.58"/>
<polygon fill="none" stroke="black" stroke-width="3" points="863.61,-172.97 856.55,-174.45 852.47,-168.51 859.53,-167.03 863.61,-172.97"/>
<polygon fill="none" stroke="black" stroke-width="3" points="874.03,-192.86 881.08,-191.34 885.2,-197.26 878.15,-198.78 874.03,-192.86"/>
</g>
<!-- c25&#45;&gt;c16 -->
<g id="edge33" class="edge">
<title>c25:e&#45;&gt;c16:w</title>
<path fill="none" stroke="black" stroke-width="3" d="M1849.22,-132.75C1862.21,-132.75 1865.99,-123.58 1874.09,-118.71"/>
<polygon fill="black" stroke="black" stroke-width="3" points="1872.06,-122.87 1880.83,-116.92 1870.26,-116.11 1872.06,-122.87"/>
</g>
<!-- x11&#45;&gt;c25 -->
<g id="edge12" class="edge">
<title>x11:e&#45;&gt;c25:w</title>
<path fill="none" stroke="black" stroke-width="3" d="M737.96,-145.28C782.51,-140.14 924.04,-120.5 934.21,-120.5 934.21,-120.5 934.21,-120.5 1525.21,-120.5 1623.47,-120.5 1651.2,-120.27 1743.4,-120.25"/>
<polygon fill="none" stroke="black" stroke-width="3" points="739.85,-145.1 734.26,-149.65 727.9,-146.24 733.5,-141.69 739.85,-145.1"/>
<polygon fill="none" stroke="black" stroke-width="3" points="1741.51,-120.25 1747.51,-116.25 1753.51,-120.25 1747.51,-124.25 1741.51,-120.25"/>
</g>
<!-- c27&#45;&gt;n12 -->
<g id="edge26" class="edge">
<title>c27:e&#45;&gt;n12:w</title>
<path fill="none" stroke="black" stroke-width="3" d="M1573.71,-212.5C1590.67,-212.5 1589.86,-192.36 1599.04,-183.55"/>
<polygon fill="black" stroke="black" stroke-width="3" points="1597.36,-187.93 1605.47,-181.11 1594.88,-181.38 1597.36,-187.93"/>
</g>
<!-- x12&#45;&gt;c27 -->
<g id="edge13" class="edge">
<title>x12:e&#45;&gt;c27:w</title>
<path fill="none" stroke="black" stroke-width="3" d="M1112.43,-455.16C1287.86,-445.81 1286.33,-246.67 1461.77,-237.34"/>
<polygon fill="none" stroke="black" stroke-width="3" points="1114.16,-455.11 1108.27,-459.27 1102.17,-455.43 1108.06,-451.27 1114.16,-455.11"/>
<polygon fill="none" stroke="black" stroke-width="3" points="1460.02,-237.38 1465.91,-233.23 1472.01,-237.07 1466.12,-241.23 1460.02,-237.38"/>
</g>
<!-- v13 -->
<g id="node30" class="node">
<title>v13</title>
<ellipse fill="none" stroke="black" cx="1932.09" cy="-42.5" rx="44.7" ry="18"/>
<text text-anchor="middle" x="1932.09" y="-37.45" font-family="Times,serif" font-size="14.00">6&#39;000000</text>
</g>
<!-- x14 -->
<g id="node31" class="node">
<title>x14</title>
<path fill="none" stroke="black" d="M2026.97,-27.5C2026.97,-27.5 2072.22,-27.5 2072.22,-27.5 2078.22,-27.5 2084.22,-33.5 2084.22,-39.5 2084.22,-39.5 2084.22,-51.5 2084.22,-51.5 2084.22,-57.5 2078.22,-63.5 2072.22,-63.5 2072.22,-63.5 2026.97,-63.5 2026.97,-63.5 2020.97,-63.5 2014.97,-57.5 2014.97,-51.5 2014.97,-51.5 2014.97,-39.5 2014.97,-39.5 2014.97,-33.5 2020.97,-27.5 2026.97,-27.5"/>
<text text-anchor="middle" x="2049.59" y="-40.7" font-family="Times,serif" font-size="14.00">5:0 &#45; 11:6</text>
</g>
<!-- v13&#45;&gt;x14 -->
<g id="edge41" class="edge">
<title>v13:e&#45;&gt;x14:w</title>
<path fill="none" stroke="black" stroke-width="3" d="M1978.21,-42.5C1989.99,-42.5 1995.36,-44.05 2003.53,-44.92"/>
<polygon fill="black" stroke="black" stroke-width="3" points="2000.27,-48.26 2010.43,-45.27 2000.62,-41.27 2000.27,-48.26"/>
</g>
<!-- x14&#45;&gt;n9 -->
<g id="edge39" class="edge">
<title>x14:e&#45;&gt;n9:w</title>
<path fill="none" stroke="black" stroke-width="3" d="M2084.22,-45.75C2099.48,-45.75 2100.79,-61.43 2109.51,-68.78"/>
<polygon fill="black" stroke="black" stroke-width="3" points="2105.33,-71.03 2115.93,-71.01 2107.63,-64.42 2105.33,-71.03"/>
</g>
<!-- v15 -->
<g id="node32" class="node">
<title>v15</title>
<ellipse fill="none" stroke="black" cx="380.53" cy="-228.5" rx="109.19" ry="18"/>
<text text-anchor="middle" x="380.53" y="-223.45" font-family="Times,serif" font-size="14.00">19&#39;0000000000000000000</text>
</g>
<!-- x16 -->
<g id="node33" class="node">
<title>x16</title>
<path fill="none" stroke="black" d="M537.71,-214.5C537.71,-214.5 589.71,-214.5 589.71,-214.5 595.71,-214.5 601.71,-220.5 601.71,-226.5 601.71,-226.5 601.71,-238.5 601.71,-238.5 601.71,-244.5 595.71,-250.5 589.71,-250.5 589.71,-250.5 537.71,-250.5 537.71,-250.5 531.71,-250.5 525.71,-244.5 525.71,-238.5 525.71,-238.5 525.71,-226.5 525.71,-226.5 525.71,-220.5 531.71,-214.5 537.71,-214.5"/>
<text text-anchor="middle" x="563.71" y="-227.7" font-family="Times,serif" font-size="14.00">18:0 &#45; 24:6</text>
</g>
<!-- v15&#45;&gt;x16 -->
<g id="edge42" class="edge">
<title>v15:e&#45;&gt;x16:w</title>
<path fill="none" stroke="black" stroke-width="3" d="M489.71,-228.5C501.16,-228.5 506.39,-230.52 514.24,-231.69"/>
<polygon fill="black" stroke="black" stroke-width="3" points="510.96,-234.97 521.18,-232.18 511.45,-227.99 510.96,-234.97"/>
</g>
<!-- x16&#45;&gt;n10 -->
<g id="edge15" class="edge">
<title>x16:e&#45;&gt;n10:w</title>
<path fill="none" stroke="black" stroke-width="3" d="M601.71,-232.75C626.91,-232.75 613.95,-273.15 627.23,-285.78"/>
<polygon fill="black" stroke="black" stroke-width="3" points="622.84,-287.93 633.43,-287.98 625.18,-281.34 622.84,-287.93"/>
</g>
</g>
</svg>
