<?xml version="1.0" encoding="UTF-8" standalone="no"?>
<!DOCTYPE svg PUBLIC "-//W3C//DTD SVG 1.1//EN"
 "http://www.w3.org/Graphics/SVG/1.1/DTD/svg11.dtd">
<!-- Generated by graphviz version 12.2.1 (20241206.2353)
 -->
<!-- Title: top Pages: 1 -->
<svg width="2106pt" height="293pt"
 viewBox="0.00 0.00 2105.96 292.50" xmlns="http://www.w3.org/2000/svg" xmlns:xlink="http://www.w3.org/1999/xlink">
<g id="graph0" class="graph" transform="scale(1 1) rotate(0) translate(4 288.5)">
<title>top</title>
<polygon fill="white" stroke="none" points="-4,4 -4,-288.5 2101.96,-288.5 2101.96,4 -4,4"/>
<text text-anchor="middle" x="1048.98" y="-7.2" font-family="Times,serif" font-size="14.00">top</text>
<!-- n9 -->
<g id="node1" class="node">
<title>n9</title>
<polygon fill="none" stroke="black" points="107.84,-146.04 107.84,-160.96 76.26,-171.5 31.59,-171.5 0,-160.96 0,-146.04 31.59,-135.5 76.26,-135.5 107.84,-146.04"/>
<text text-anchor="middle" x="53.92" y="-148.45" font-family="Times,serif" font-size="14.00">input_data</text>
</g>
<!-- c16 -->
<g id="node5" class="node">
<title>c16</title>
<polygon fill="none" stroke="black" points="143.84,-129 143.84,-178 237.59,-178 237.59,-129 143.84,-129"/>
<text text-anchor="middle" x="156.72" y="-160.7" font-family="Times,serif" font-size="14.00">A</text>
<polyline fill="none" stroke="black" points="143.84,-153.5 169.59,-153.5"/>
<text text-anchor="middle" x="156.72" y="-136.2" font-family="Times,serif" font-size="14.00">B</text>
<polyline fill="none" stroke="black" points="169.59,-129 169.59,-178"/>
<text text-anchor="middle" x="190.72" y="-156.7" font-family="Times,serif" font-size="14.00">$1</text>
<text text-anchor="middle" x="190.72" y="-140.2" font-family="Times,serif" font-size="14.00">$add</text>
<polyline fill="none" stroke="black" points="211.84,-129 211.84,-178"/>
<text text-anchor="middle" x="224.72" y="-148.7" font-family="Times,serif" font-size="14.00">Y</text>
</g>
<!-- n9&#45;&gt;c16 -->
<g id="edge24" class="edge">
<title>n9:e&#45;&gt;c16:w</title>
<path fill="none" stroke="black" stroke-width="3" d="M107.84,-153.5C120.12,-153.5 124.64,-159.97 132.67,-163.5"/>
<polygon fill="black" stroke="black" stroke-width="3" points="128.9,-166.31 139.39,-164.85 130.28,-159.45 128.9,-166.31"/>
</g>
<!-- n9&#45;&gt;c16 -->
<g id="edge25" class="edge">
<title>n9:e&#45;&gt;c16:w</title>
<path fill="none" stroke="black" stroke-width="3" d="M107.84,-153.5C120.12,-153.5 124.64,-147.03 132.67,-143.5"/>
<polygon fill="black" stroke="black" stroke-width="3" points="130.28,-147.55 139.39,-142.15 128.9,-140.69 130.28,-147.55"/>
</g>
<!-- c17 -->
<g id="node6" class="node">
<title>c17</title>
<polygon fill="none" stroke="black" points="441.44,-91 441.44,-140 535.19,-140 535.19,-91 441.44,-91"/>
<text text-anchor="middle" x="454.32" y="-122.7" font-family="Times,serif" font-size="14.00">A</text>
<polyline fill="none" stroke="black" points="441.44,-115.5 467.19,-115.5"/>
<text text-anchor="middle" x="454.32" y="-98.2" font-family="Times,serif" font-size="14.00">B</text>
<polyline fill="none" stroke="black" points="467.19,-91 467.19,-140"/>
<text text-anchor="middle" x="488.32" y="-118.7" font-family="Times,serif" font-size="14.00">$4</text>
<text text-anchor="middle" x="488.32" y="-102.2" font-family="Times,serif" font-size="14.00">$add</text>
<polyline fill="none" stroke="black" points="509.44,-91 509.44,-140"/>
<text text-anchor="middle" x="522.32" y="-110.7" font-family="Times,serif" font-size="14.00">Y</text>
</g>
<!-- n9&#45;&gt;c17 -->
<g id="edge26" class="edge">
<title>n9:e&#45;&gt;c17:w</title>
<path fill="none" stroke="black" stroke-width="3" d="M107.84,-153.5C129.85,-153.5 123.62,-128.19 143.84,-119.5 261.99,-68.75 306.37,-101.21 430.02,-103.16"/>
<polygon fill="black" stroke="black" stroke-width="3" points="426.87,-106.64 436.9,-103.21 426.93,-99.64 426.87,-106.64"/>
</g>
<!-- c18 -->
<g id="node7" class="node">
<title>c18</title>
<polygon fill="none" stroke="black" points="839.19,-235 839.19,-284 932.94,-284 932.94,-235 839.19,-235"/>
<text text-anchor="middle" x="852.07" y="-266.7" font-family="Times,serif" font-size="14.00">A</text>
<polyline fill="none" stroke="black" points="839.19,-259.5 864.94,-259.5"/>
<text text-anchor="middle" x="852.07" y="-242.2" font-family="Times,serif" font-size="14.00">B</text>
<polyline fill="none" stroke="black" points="864.94,-235 864.94,-284"/>
<text text-anchor="middle" x="886.07" y="-262.7" font-family="Times,serif" font-size="14.00">$15</text>
<text text-anchor="middle" x="886.07" y="-246.2" font-family="Times,serif" font-size="14.00">$and</text>
<polyline fill="none" stroke="black" points="907.19,-235 907.19,-284"/>
<text text-anchor="middle" x="920.07" y="-254.7" font-family="Times,serif" font-size="14.00">Y</text>
</g>
<!-- n9&#45;&gt;c18 -->
<g id="edge27" class="edge">
<title>n9:e&#45;&gt;c18:w</title>
<path fill="none" stroke="black" stroke-width="3" d="M107.84,-153.5C141.64,-153.5 116.67,-200.39 143.84,-220.5 191.39,-255.7 215.23,-246.5 274.39,-246.5 274.39,-246.5 274.39,-246.5 614.94,-246.5 710.72,-246.5 737.46,-247.19 827.85,-247.25"/>
<polygon fill="black" stroke="black" stroke-width="3" points="824.65,-250.75 834.65,-247.25 824.65,-243.75 824.65,-250.75"/>
</g>
<!-- c20 -->
<g id="node10" class="node">
<title>c20</title>
<polygon fill="none" stroke="black" points="144.97,-31 144.97,-72 236.47,-72 236.47,-31 144.97,-31"/>
<text text-anchor="middle" x="157.84" y="-46.7" font-family="Times,serif" font-size="14.00">A</text>
<polyline fill="none" stroke="black" points="170.72,-31 170.72,-72"/>
<text text-anchor="middle" x="190.72" y="-54.7" font-family="Times,serif" font-size="14.00">$2</text>
<text text-anchor="middle" x="190.72" y="-38.2" font-family="Times,serif" font-size="14.00">$not</text>
<polyline fill="none" stroke="black" points="210.72,-31 210.72,-72"/>
<text text-anchor="middle" x="223.59" y="-46.7" font-family="Times,serif" font-size="14.00">Y</text>
</g>
<!-- n9&#45;&gt;c20 -->
<g id="edge28" class="edge">
<title>n9:e&#45;&gt;c20:w</title>
<path fill="none" stroke="black" stroke-width="3" d="M107.84,-153.5C151.14,-153.5 106.64,-70.65 132.79,-54.47"/>
<polygon fill="black" stroke="black" stroke-width="3" points="130.67,-58.59 139.55,-52.82 129.01,-51.79 130.67,-58.59"/>
</g>
<!-- c22 -->
<g id="node12" class="node">
<title>c22</title>
<polygon fill="none" stroke="black" points="968.94,-204 968.94,-253 1061.94,-253 1061.94,-204 968.94,-204"/>
<text text-anchor="middle" x="981.82" y="-235.7" font-family="Times,serif" font-size="14.00">A</text>
<polyline fill="none" stroke="black" points="968.94,-228.5 994.69,-228.5"/>
<text text-anchor="middle" x="981.82" y="-211.2" font-family="Times,serif" font-size="14.00">B</text>
<polyline fill="none" stroke="black" points="994.69,-204 994.69,-253"/>
<text text-anchor="middle" x="1015.44" y="-231.7" font-family="Times,serif" font-size="14.00">$16</text>
<text text-anchor="middle" x="1015.44" y="-215.2" font-family="Times,serif" font-size="14.00">$sub</text>
<polyline fill="none" stroke="black" points="1036.19,-204 1036.19,-253"/>
<text text-anchor="middle" x="1049.07" y="-223.7" font-family="Times,serif" font-size="14.00">Y</text>
</g>
<!-- n9&#45;&gt;c22 -->
<g id="edge29" class="edge">
<title>n9:e&#45;&gt;c22:w</title>
<path fill="none" stroke="black" stroke-width="3" d="M107.84,-153.5C129.85,-153.5 124.03,-177.91 143.84,-187.5 196.62,-213.04 215.76,-206.5 274.39,-206.5 274.39,-206.5 274.39,-206.5 748.94,-206.5 842.9,-206.5 869.01,-215.48 957.53,-216.2"/>
<polygon fill="black" stroke="black" stroke-width="3" points="954.39,-219.69 964.4,-216.23 954.42,-212.69 954.39,-219.69"/>
</g>
<!-- n10 -->
<g id="node2" class="node">
<title>n10</title>
<polygon fill="none" stroke="black" points="2097.96,-131.04 2097.96,-145.96 2063.45,-156.5 2014.65,-156.5 1980.14,-145.96 1980.14,-131.04 2014.65,-120.5 2063.45,-120.5 2097.96,-131.04"/>
<text text-anchor="middle" x="2039.05" y="-133.45" font-family="Times,serif" font-size="14.00">output_data</text>
</g>
<!-- n11 -->
<g id="node3" class="node">
<title>n11</title>
<polygon fill="none" stroke="black" points="747.94,-119.5 692.69,-101.5 747.94,-83.5 803.19,-101.5 747.94,-119.5"/>
<text text-anchor="middle" x="747.94" y="-96.45" font-family="Times,serif" font-size="14.00">temp_0</text>
</g>
<!-- n11&#45;&gt;c18 -->
<g id="edge6" class="edge">
<title>n11:e&#45;&gt;c18:w</title>
<path fill="none" stroke="black" stroke-width="3" d="M803.19,-101.5C876.15,-101.5 774.67,-253.01 827.87,-270.17"/>
<polygon fill="black" stroke="black" stroke-width="3" points="824.31,-273.21 834.69,-271.12 825.27,-266.28 824.31,-273.21"/>
</g>
<!-- c24 -->
<g id="node15" class="node">
<title>c24</title>
<polygon fill="none" stroke="black" points="1602.39,-102 1602.39,-151 1694.64,-151 1694.64,-102 1602.39,-102"/>
<text text-anchor="middle" x="1615.27" y="-133.7" font-family="Times,serif" font-size="14.00">A</text>
<polyline fill="none" stroke="black" points="1602.39,-126.5 1628.14,-126.5"/>
<text text-anchor="middle" x="1615.27" y="-109.2" font-family="Times,serif" font-size="14.00">B</text>
<polyline fill="none" stroke="black" points="1628.14,-102 1628.14,-151"/>
<text text-anchor="middle" x="1648.52" y="-129.7" font-family="Times,serif" font-size="14.00">$20</text>
<text text-anchor="middle" x="1648.52" y="-113.2" font-family="Times,serif" font-size="14.00">$xor</text>
<polyline fill="none" stroke="black" points="1668.89,-102 1668.89,-151"/>
<text text-anchor="middle" x="1681.77" y="-121.7" font-family="Times,serif" font-size="14.00">Y</text>
</g>
<!-- n11&#45;&gt;c24 -->
<g id="edge7" class="edge">
<title>n11:e&#45;&gt;c24:w</title>
<path fill="none" stroke="black" stroke-width="3" d="M803.19,-101.5C897.08,-101.5 920.55,-100.5 1014.44,-100.5 1014.44,-100.5 1014.44,-100.5 1406.39,-100.5 1489.79,-100.5 1513.02,-113.04 1591.01,-114.17"/>
<polygon fill="black" stroke="black" stroke-width="3" points="1587.83,-117.65 1597.85,-114.22 1587.88,-110.65 1587.83,-117.65"/>
</g>
<!-- n12 -->
<g id="node4" class="node">
<title>n12</title>
<polygon fill="none" stroke="black" points="1785.89,-144.5 1730.64,-126.5 1785.89,-108.5 1841.14,-126.5 1785.89,-144.5"/>
<text text-anchor="middle" x="1785.89" y="-121.45" font-family="Times,serif" font-size="14.00">temp_4</text>
</g>
<!-- x3 -->
<g id="node17" class="node">
<title>x3</title>
<path fill="none" stroke="black" d="M1889.14,-114C1889.14,-114 1932.14,-114 1932.14,-114 1938.14,-114 1944.14,-120 1944.14,-126 1944.14,-126 1944.14,-151 1944.14,-151 1944.14,-157 1938.14,-163 1932.14,-163 1932.14,-163 1889.14,-163 1889.14,-163 1883.14,-163 1877.14,-157 1877.14,-151 1877.14,-151 1877.14,-126 1877.14,-126 1877.14,-120 1883.14,-114 1889.14,-114"/>
<text text-anchor="middle" x="1910.64" y="-145.7" font-family="Times,serif" font-size="14.00">0 &#45;&gt; 23:6</text>
<polyline fill="none" stroke="black" points="1877.14,-138.5 1944.14,-138.5"/>
<text text-anchor="middle" x="1910.64" y="-121.2" font-family="Times,serif" font-size="14.00">5:0 &#45; 5:0</text>
</g>
<!-- n12&#45;&gt;x3 -->
<g id="edge9" class="edge">
<title>n12:e&#45;&gt;x3:w</title>
<path fill="none" stroke="black" stroke-width="3" d="M1841.14,-126.5C1852.52,-126.5 1857.83,-126.37 1865.7,-126.3"/>
<polygon fill="black" stroke="black" stroke-width="3" points="1862.62,-129.81 1872.6,-126.27 1862.59,-122.81 1862.62,-129.81"/>
</g>
<!-- c23 -->
<g id="node14" class="node">
<title>c23</title>
<polygon fill="none" stroke="black" points="313.19,-129 313.19,-178 405.44,-178 405.44,-129 313.19,-129"/>
<text text-anchor="middle" x="326.07" y="-160.7" font-family="Times,serif" font-size="14.00">A</text>
<polyline fill="none" stroke="black" points="313.19,-153.5 338.94,-153.5"/>
<text text-anchor="middle" x="326.07" y="-136.2" font-family="Times,serif" font-size="14.00">B</text>
<polyline fill="none" stroke="black" points="338.94,-129 338.94,-178"/>
<text text-anchor="middle" x="359.32" y="-156.7" font-family="Times,serif" font-size="14.00">$3</text>
<text text-anchor="middle" x="359.32" y="-140.2" font-family="Times,serif" font-size="14.00">$xor</text>
<polyline fill="none" stroke="black" points="379.69,-129 379.69,-178"/>
<text text-anchor="middle" x="392.57" y="-148.7" font-family="Times,serif" font-size="14.00">Y</text>
</g>
<!-- c16&#45;&gt;c23 -->
<g id="edge3" class="edge">
<title>c16:e&#45;&gt;c23:w</title>
<path fill="none" stroke="black" stroke-width="3" d="M237.59,-153.75C267.49,-153.75 276.95,-163.02 301.9,-165.26"/>
<polygon fill="black" stroke="black" stroke-width="3" points="298.51,-168.62 308.65,-165.55 298.81,-161.63 298.51,-168.62"/>
</g>
<!-- c21 -->
<g id="node11" class="node">
<title>c21</title>
<polygon fill="none" stroke="black" points="571.19,-77 571.19,-126 656.69,-126 656.69,-77 571.19,-77"/>
<text text-anchor="middle" x="584.07" y="-108.7" font-family="Times,serif" font-size="14.00">A</text>
<polyline fill="none" stroke="black" points="571.19,-101.5 596.94,-101.5"/>
<text text-anchor="middle" x="584.07" y="-84.2" font-family="Times,serif" font-size="14.00">B</text>
<polyline fill="none" stroke="black" points="596.94,-77 596.94,-126"/>
<text text-anchor="middle" x="613.94" y="-104.7" font-family="Times,serif" font-size="14.00">$7</text>
<text text-anchor="middle" x="613.94" y="-88.2" font-family="Times,serif" font-size="14.00">$or</text>
<polyline fill="none" stroke="black" points="630.94,-77 630.94,-126"/>
<text text-anchor="middle" x="643.82" y="-96.7" font-family="Times,serif" font-size="14.00">Y</text>
</g>
<!-- c17&#45;&gt;c21 -->
<g id="edge10" class="edge">
<title>c17:e&#45;&gt;c21:w</title>
<path fill="none" stroke="black" stroke-width="3" d="M535.19,-115.75C546.58,-115.75 551.87,-114.74 559.74,-114.15"/>
<polygon fill="black" stroke="black" stroke-width="3" points="556.78,-117.76 566.65,-113.91 556.54,-110.77 556.78,-117.76"/>
</g>
<!-- c18&#45;&gt;c22 -->
<g id="edge11" class="edge">
<title>c18:e&#45;&gt;c22:w</title>
<path fill="none" stroke="black" stroke-width="3" d="M932.94,-259.75C946.37,-259.75 949.73,-249.28 957.97,-243.89"/>
<polygon fill="black" stroke="black" stroke-width="3" points="955.92,-248.11 964.58,-242 954,-241.38 955.92,-248.11"/>
</g>
<!-- c19 -->
<g id="node8" class="node">
<title>c19</title>
<polygon fill="none" stroke="black" points="1472.64,-129 1472.64,-178 1566.39,-178 1566.39,-129 1472.64,-129"/>
<text text-anchor="middle" x="1485.52" y="-160.7" font-family="Times,serif" font-size="14.00">A</text>
<polyline fill="none" stroke="black" points="1472.64,-153.5 1498.39,-153.5"/>
<text text-anchor="middle" x="1485.52" y="-136.2" font-family="Times,serif" font-size="14.00">B</text>
<polyline fill="none" stroke="black" points="1498.39,-129 1498.39,-178"/>
<text text-anchor="middle" x="1519.52" y="-156.7" font-family="Times,serif" font-size="14.00">$19</text>
<text text-anchor="middle" x="1519.52" y="-140.2" font-family="Times,serif" font-size="14.00">$and</text>
<polyline fill="none" stroke="black" points="1540.64,-129 1540.64,-178"/>
<text text-anchor="middle" x="1553.52" y="-148.7" font-family="Times,serif" font-size="14.00">Y</text>
</g>
<!-- c19&#45;&gt;c24 -->
<g id="edge12" class="edge">
<title>c19:e&#45;&gt;c24:w</title>
<path fill="none" stroke="black" stroke-width="3" d="M1566.39,-153.75C1579.12,-153.75 1583.22,-145.66 1591.37,-141.36"/>
<polygon fill="black" stroke="black" stroke-width="3" points="1589.05,-145.51 1597.97,-139.8 1587.44,-138.7 1589.05,-145.51"/>
</g>
<!-- x0 -->
<g id="node9" class="node">
<title>x0</title>
<path fill="none" stroke="black" d="M1386.14,-141C1386.14,-141 1424.64,-141 1424.64,-141 1430.64,-141 1436.64,-147 1436.64,-153 1436.64,-153 1436.64,-178 1436.64,-178 1436.64,-184 1430.64,-190 1424.64,-190 1424.64,-190 1386.14,-190 1386.14,-190 1380.14,-190 1374.14,-184 1374.14,-178 1374.14,-178 1374.14,-153 1374.14,-153 1374.14,-147 1380.14,-141 1386.14,-141"/>
<text text-anchor="middle" x="1405.39" y="-172.7" font-family="Times,serif" font-size="14.00">5:4 &#45; 5:4</text>
<polyline fill="none" stroke="black" points="1374.14,-165.5 1436.64,-165.5"/>
<text text-anchor="middle" x="1405.39" y="-148.2" font-family="Times,serif" font-size="14.00">3:0 &#45; 3:0</text>
</g>
<!-- x0&#45;&gt;c19 -->
<g id="edge1" class="edge">
<title>x0:e&#45;&gt;c19:w</title>
<path fill="none" stroke="black" stroke-width="3" d="M1449.36,-165.56C1452.96,-165.6 1456.09,-165.65 1459.67,-165.68"/>
<polygon fill="none" stroke="black" stroke-width="3" points="1451.35,-165.57 1445.33,-169.54 1439.35,-165.51 1445.37,-161.54 1451.35,-165.57"/>
<polygon fill="none" stroke="black" stroke-width="3" points="1457.94,-165.68 1463.96,-161.71 1469.94,-165.74 1463.92,-169.71 1457.94,-165.68"/>
</g>
<!-- n5 -->
<g id="node18" class="node">
<title>n5</title>
<ellipse fill="black" stroke="black" cx="275.39" cy="-56.5" rx="1.8" ry="1.8"/>
</g>
<!-- c20&#45;&gt;n5 -->
<g id="edge13" class="edge">
<title>c20:e&#45;&gt;n5:w</title>
<path fill="none" stroke="black" stroke-width="3" d="M237.47,-51.75C249.11,-51.75 254.31,-54.2 262.33,-55.58"/>
<polygon fill="black" stroke="black" stroke-width="3" points="258.81,-58.81 269.07,-56.13 259.38,-51.83 258.81,-58.81"/>
</g>
<!-- c21&#45;&gt;n11 -->
<g id="edge5" class="edge">
<title>c21:e&#45;&gt;n11:w</title>
<path fill="none" stroke="black" stroke-width="3" d="M656.69,-101.75C668.07,-101.75 673.38,-101.62 681.24,-101.55"/>
<polygon fill="black" stroke="black" stroke-width="3" points="678.17,-105.06 688.15,-101.52 678.13,-98.06 678.17,-105.06"/>
</g>
<!-- x1 -->
<g id="node13" class="node">
<title>x1</title>
<path fill="none" stroke="black" d="M1109.94,-204C1109.94,-204 1148.44,-204 1148.44,-204 1154.44,-204 1160.44,-210 1160.44,-216 1160.44,-216 1160.44,-241 1160.44,-241 1160.44,-247 1154.44,-253 1148.44,-253 1148.44,-253 1109.94,-253 1109.94,-253 1103.94,-253 1097.94,-247 1097.94,-241 1097.94,-241 1097.94,-216 1097.94,-216 1097.94,-210 1103.94,-204 1109.94,-204"/>
<text text-anchor="middle" x="1129.19" y="-235.7" font-family="Times,serif" font-size="14.00">5:4 &#45; 5:4</text>
<polyline fill="none" stroke="black" points="1097.94,-228.5 1160.44,-228.5"/>
<text text-anchor="middle" x="1129.19" y="-211.2" font-family="Times,serif" font-size="14.00">3:0 &#45; 3:0</text>
</g>
<!-- c22&#45;&gt;x1 -->
<g id="edge2" class="edge">
<title>c22:e&#45;&gt;x1:w</title>
<path fill="none" stroke="black" stroke-width="3" d="M1074.66,-228.69C1078.26,-228.65 1081.39,-228.6 1084.97,-228.57"/>
<polygon fill="none" stroke="black" stroke-width="3" points="1076.65,-228.68 1070.67,-232.71 1064.65,-228.74 1070.63,-224.71 1076.65,-228.68"/>
<polygon fill="none" stroke="black" stroke-width="3" points="1083.24,-228.57 1089.22,-224.54 1095.24,-228.51 1089.26,-232.54 1083.24,-228.57"/>
</g>
<!-- n6 -->
<g id="node19" class="node">
<title>n6</title>
<ellipse fill="black" stroke="black" cx="1198.24" cy="-195.5" rx="1.8" ry="1.8"/>
</g>
<!-- x1&#45;&gt;n6 -->
<g id="edge17" class="edge">
<title>x1:e&#45;&gt;n6:w</title>
<path fill="none" stroke="black" stroke-width="3" d="M1160.44,-216.25C1174.29,-216.25 1177.23,-204.58 1185.62,-198.74"/>
<polygon fill="black" stroke="black" stroke-width="3" points="1183.52,-203.03 1192.09,-196.8 1181.51,-196.32 1183.52,-203.03"/>
</g>
<!-- n7 -->
<g id="node20" class="node">
<title>n7</title>
<ellipse fill="black" stroke="black" cx="1336.34" cy="-195.5" rx="1.8" ry="1.8"/>
</g>
<!-- x1&#45;&gt;n7 -->
<g id="edge20" class="edge">
<title>x1:e&#45;&gt;n7:w</title>
<path fill="none" stroke="black" stroke-width="3" d="M1160.44,-240.75C1222.3,-240.75 1241.39,-247.17 1298.54,-223.5 1312.88,-217.56 1314.48,-204.3 1323.54,-198.41"/>
<polygon fill="black" stroke="black" stroke-width="3" points="1321.38,-202.61 1330.15,-196.66 1319.59,-195.84 1321.38,-202.61"/>
</g>
<!-- c23&#45;&gt;c17 -->
<g id="edge23" class="edge">
<title>c23:e&#45;&gt;c17:w</title>
<path fill="none" stroke="black" stroke-width="3" d="M405.44,-153.75C420.55,-153.75 422.06,-138.51 430.79,-131.37"/>
<polygon fill="black" stroke="black" stroke-width="3" points="428.8,-135.74 437.14,-129.21 426.55,-129.11 428.8,-135.74"/>
</g>
<!-- c24&#45;&gt;n12 -->
<g id="edge8" class="edge">
<title>c24:e&#45;&gt;n12:w</title>
<path fill="none" stroke="black" stroke-width="3" d="M1694.64,-126.75C1706.02,-126.75 1711.33,-126.62 1719.2,-126.55"/>
<polygon fill="black" stroke="black" stroke-width="3" points="1716.12,-130.06 1726.1,-126.52 1716.09,-123.06 1716.12,-130.06"/>
</g>
<!-- x2 -->
<g id="node16" class="node">
<title>x2</title>
<path fill="none" stroke="black" d="M1248.04,-177.5C1248.04,-177.5 1286.54,-177.5 1286.54,-177.5 1292.54,-177.5 1298.54,-183.5 1298.54,-189.5 1298.54,-189.5 1298.54,-201.5 1298.54,-201.5 1298.54,-207.5 1292.54,-213.5 1286.54,-213.5 1286.54,-213.5 1248.04,-213.5 1248.04,-213.5 1242.04,-213.5 1236.04,-207.5 1236.04,-201.5 1236.04,-201.5 1236.04,-189.5 1236.04,-189.5 1236.04,-183.5 1242.04,-177.5 1248.04,-177.5"/>
<text text-anchor="middle" x="1267.29" y="-190.7" font-family="Times,serif" font-size="14.00">3:0 &#45; 3:0</text>
</g>
<!-- x2&#45;&gt;n7 -->
<g id="edge21" class="edge">
<title>x2:e&#45;&gt;n7:w</title>
<path fill="none" stroke="black" stroke-width="3" d="M1298.54,-195.75C1309.92,-195.75 1315.23,-195.62 1323.1,-195.55"/>
<polygon fill="black" stroke="black" stroke-width="3" points="1320.02,-199.06 1330,-195.52 1319.99,-192.06 1320.02,-199.06"/>
</g>
<!-- x3&#45;&gt;n10 -->
<g id="edge4" class="edge">
<title>x3:e&#45;&gt;n10:w</title>
<path fill="none" stroke="black" stroke-width="3" d="M1944.14,-138.5C1955.52,-138.5 1960.83,-138.5 1968.7,-138.5"/>
<polygon fill="black" stroke="black" stroke-width="3" points="1965.6,-142 1975.6,-138.5 1965.6,-135 1965.6,-142"/>
</g>
<!-- n5&#45;&gt;c19 -->
<g id="edge14" class="edge">
<title>n5:e&#45;&gt;c19:w</title>
<path fill="none" stroke="black" stroke-width="3" d="M277.19,-56.5C300.81,-56.5 463.7,-24.5 487.32,-24.5 487.32,-24.5 487.32,-24.5 1337.34,-24.5 1412.73,-24.5 1395.34,-129.69 1461.31,-140.38"/>
<polygon fill="black" stroke="black" stroke-width="3" points="1457.88,-143.62 1468.11,-140.9 1458.41,-136.64 1457.88,-143.62"/>
</g>
<!-- n5&#45;&gt;c21 -->
<g id="edge15" class="edge">
<title>n5:e&#45;&gt;c21:w</title>
<path fill="none" stroke="black" stroke-width="3" d="M277.19,-56.5C392.39,-56.5 421.36,-63.79 535.19,-81.5 546.81,-83.31 551.87,-86.52 559.87,-88.18"/>
<polygon fill="black" stroke="black" stroke-width="3" points="556.39,-91.37 566.67,-88.82 557.04,-84.4 556.39,-91.37"/>
</g>
<!-- n5&#45;&gt;c23 -->
<g id="edge16" class="edge">
<title>n5:e&#45;&gt;c23:w</title>
<path fill="none" stroke="black" stroke-width="3" d="M277.19,-56.5C313.48,-56.5 281.54,-123.14 302.37,-138.23"/>
<polygon fill="black" stroke="black" stroke-width="3" points="298.24,-140.72 308.82,-140.03 300.12,-133.97 298.24,-140.72"/>
</g>
<!-- n6&#45;&gt;x0 -->
<g id="edge18" class="edge">
<title>n6:e&#45;&gt;x0:w</title>
<path fill="none" stroke="black" stroke-width="3" d="M1200.04,-195.5C1220.04,-195.5 1217.44,-175.86 1236.04,-168.5 1289.76,-147.25 1309.79,-152.41 1362.71,-153.17"/>
<polygon fill="black" stroke="black" stroke-width="3" points="1359.58,-156.64 1369.6,-153.22 1359.63,-149.64 1359.58,-156.64"/>
</g>
<!-- n6&#45;&gt;x2 -->
<g id="edge19" class="edge">
<title>n6:e&#45;&gt;x2:w</title>
<path fill="none" stroke="black" stroke-width="3" d="M1200.04,-195.5C1211.42,-195.5 1216.73,-195.5 1224.6,-195.5"/>
<polygon fill="black" stroke="black" stroke-width="3" points="1221.5,-199 1231.5,-195.5 1221.5,-192 1221.5,-199"/>
</g>
<!-- n7&#45;&gt;x0 -->
<g id="edge22" class="edge">
<title>n7:e&#45;&gt;x0:w</title>
<path fill="none" stroke="black" stroke-width="3" d="M1338.14,-195.5C1351.38,-195.5 1354.97,-185.72 1363.24,-180.68"/>
<polygon fill="black" stroke="black" stroke-width="3" points="1361.01,-184.9 1369.76,-178.93 1359.19,-178.14 1361.01,-184.9"/>
</g>
</g>
</svg>
