<?xml version="1.0" encoding="UTF-8" standalone="no"?>
<!DOCTYPE svg PUBLIC "-//W3C//DTD SVG 1.1//EN"
 "http://www.w3.org/Graphics/SVG/1.1/DTD/svg11.dtd">
<!-- Generated by graphviz version 12.2.1 (20241206.2353)
 -->
<!-- Title: top Pages: 1 -->
<svg width="1050pt" height="150pt"
 viewBox="0.00 0.00 1049.66 149.50" xmlns="http://www.w3.org/2000/svg" xmlns:xlink="http://www.w3.org/1999/xlink">
<g id="graph0" class="graph" transform="scale(1 1) rotate(0) translate(4 145.5)">
<title>top</title>
<polygon fill="white" stroke="none" points="-4,4 -4,-145.5 1045.66,-145.5 1045.66,4 -4,4"/>
<text text-anchor="middle" x="520.83" y="-7.2" font-family="Times,serif" font-size="14.00">top</text>
<!-- n2 -->
<g id="node1" class="node">
<title>n2</title>
<polygon fill="none" stroke="black" points="107.84,-76.04 107.84,-90.96 76.26,-101.5 31.59,-101.5 0,-90.96 0,-76.04 31.59,-65.5 76.26,-65.5 107.84,-76.04"/>
<text text-anchor="middle" x="53.92" y="-78.45" font-family="Times,serif" font-size="14.00">input_data</text>
</g>
<!-- c9 -->
<g id="node5" class="node">
<title>c9</title>
<polygon fill="none" stroke="black" points="272.84,-54 272.84,-103 366.59,-103 366.59,-54 272.84,-54"/>
<text text-anchor="middle" x="285.72" y="-85.7" font-family="Times,serif" font-size="14.00">A</text>
<polyline fill="none" stroke="black" points="272.84,-78.5 298.59,-78.5"/>
<text text-anchor="middle" x="285.72" y="-61.2" font-family="Times,serif" font-size="14.00">B</text>
<polyline fill="none" stroke="black" points="298.59,-54 298.59,-103"/>
<text text-anchor="middle" x="319.72" y="-81.7" font-family="Times,serif" font-size="14.00">$2</text>
<text text-anchor="middle" x="319.72" y="-65.2" font-family="Times,serif" font-size="14.00">$add</text>
<polyline fill="none" stroke="black" points="340.84,-54 340.84,-103"/>
<text text-anchor="middle" x="353.72" y="-73.7" font-family="Times,serif" font-size="14.00">Y</text>
</g>
<!-- n2&#45;&gt;c9 -->
<g id="edge5" class="edge">
<title>n2:e&#45;&gt;c9:w</title>
<path fill="none" stroke="black" stroke-width="3" d="M107.84,-83.5C177.69,-83.5 197.1,-68.02 261.63,-66.39"/>
<polygon fill="black" stroke="black" stroke-width="3" points="258.34,-69.93 268.3,-66.31 258.26,-62.93 258.34,-69.93"/>
</g>
<!-- c10 -->
<g id="node6" class="node">
<title>c10</title>
<polygon fill="none" stroke="black" points="549.09,-25 549.09,-74 642.84,-74 642.84,-25 549.09,-25"/>
<text text-anchor="middle" x="561.97" y="-56.7" font-family="Times,serif" font-size="14.00">A</text>
<polyline fill="none" stroke="black" points="549.09,-49.5 574.84,-49.5"/>
<text text-anchor="middle" x="561.97" y="-32.2" font-family="Times,serif" font-size="14.00">B</text>
<polyline fill="none" stroke="black" points="574.84,-25 574.84,-74"/>
<text text-anchor="middle" x="595.97" y="-52.7" font-family="Times,serif" font-size="14.00">$3</text>
<text text-anchor="middle" x="595.97" y="-36.2" font-family="Times,serif" font-size="14.00">$add</text>
<polyline fill="none" stroke="black" points="617.09,-25 617.09,-74"/>
<text text-anchor="middle" x="629.97" y="-44.7" font-family="Times,serif" font-size="14.00">Y</text>
</g>
<!-- n2&#45;&gt;c10 -->
<g id="edge2" class="edge">
<title>n2:e&#45;&gt;c10:w</title>
<path fill="none" stroke="black" stroke-width="3" d="M107.84,-83.5C125.93,-83.5 126.67,-70.19 143.84,-64.5 198.92,-46.26 215.06,-49.72 272.84,-44.5 391.34,-33.8 424.24,-37.03 537.84,-37.24"/>
<polygon fill="black" stroke="black" stroke-width="3" points="534.55,-40.74 544.55,-37.25 534.55,-33.74 534.55,-40.74"/>
</g>
<!-- c11 -->
<g id="node7" class="node">
<title>c11</title>
<polygon fill="none" stroke="black" points="143.84,-92 143.84,-141 236.84,-141 236.84,-92 143.84,-92"/>
<text text-anchor="middle" x="156.72" y="-123.7" font-family="Times,serif" font-size="14.00">A</text>
<polyline fill="none" stroke="black" points="143.84,-116.5 169.59,-116.5"/>
<text text-anchor="middle" x="156.72" y="-99.2" font-family="Times,serif" font-size="14.00">B</text>
<polyline fill="none" stroke="black" points="169.59,-92 169.59,-141"/>
<text text-anchor="middle" x="190.34" y="-119.7" font-family="Times,serif" font-size="14.00">$1</text>
<text text-anchor="middle" x="190.34" y="-103.2" font-family="Times,serif" font-size="14.00">$sub</text>
<polyline fill="none" stroke="black" points="211.09,-92 211.09,-141"/>
<text text-anchor="middle" x="223.97" y="-111.7" font-family="Times,serif" font-size="14.00">Y</text>
</g>
<!-- n2&#45;&gt;c11 -->
<g id="edge3" class="edge">
<title>n2:e&#45;&gt;c11:w</title>
<path fill="none" stroke="black" stroke-width="3" d="M107.84,-83.5C128.72,-83.5 122.47,-113.37 133.18,-124.57"/>
<polygon fill="black" stroke="black" stroke-width="3" points="129.03,-126.71 139.61,-127.09 131.58,-120.19 129.03,-126.71"/>
</g>
<!-- n2&#45;&gt;c11 -->
<g id="edge4" class="edge">
<title>n2:e&#45;&gt;c11:w</title>
<path fill="none" stroke="black" stroke-width="3" d="M107.84,-83.5C121.69,-83.5 124.63,-95.17 133.02,-101.01"/>
<polygon fill="black" stroke="black" stroke-width="3" points="128.91,-103.43 139.49,-102.95 130.92,-96.72 128.91,-103.43"/>
</g>
<!-- n3 -->
<g id="node2" class="node">
<title>n3</title>
<polygon fill="none" stroke="black" points="1041.66,-54.04 1041.66,-68.96 1007.15,-79.5 958.35,-79.5 923.84,-68.96 923.84,-54.04 958.35,-43.5 1007.15,-43.5 1041.66,-54.04"/>
<text text-anchor="middle" x="982.75" y="-56.45" font-family="Times,serif" font-size="14.00">output_data</text>
</g>
<!-- n4 -->
<g id="node3" class="node">
<title>n4</title>
<polygon fill="none" stroke="black" points="457.84,-92.5 402.59,-74.5 457.84,-56.5 513.09,-74.5 457.84,-92.5"/>
<text text-anchor="middle" x="457.84" y="-69.45" font-family="Times,serif" font-size="14.00">temp_0</text>
</g>
<!-- n4&#45;&gt;c10 -->
<g id="edge8" class="edge">
<title>n4:e&#45;&gt;c10:w</title>
<path fill="none" stroke="black" stroke-width="3" d="M513.09,-74.5C525.42,-74.5 529.88,-67.77 537.9,-64.09"/>
<polygon fill="black" stroke="black" stroke-width="3" points="535.58,-68.15 544.65,-62.68 534.14,-61.3 535.58,-68.15"/>
</g>
<!-- n5 -->
<g id="node4" class="node">
<title>n5</title>
<polygon fill="none" stroke="black" points="734.09,-67.5 678.84,-49.5 734.09,-31.5 789.34,-49.5 734.09,-67.5"/>
<text text-anchor="middle" x="734.09" y="-44.45" font-family="Times,serif" font-size="14.00">temp_1</text>
</g>
<!-- x0 -->
<g id="node8" class="node">
<title>x0</title>
<path fill="none" stroke="black" d="M837.34,-37C837.34,-37 875.84,-37 875.84,-37 881.84,-37 887.84,-43 887.84,-49 887.84,-49 887.84,-74 887.84,-74 887.84,-80 881.84,-86 875.84,-86 875.84,-86 837.34,-86 837.34,-86 831.34,-86 825.34,-80 825.34,-74 825.34,-74 825.34,-49 825.34,-49 825.34,-43 831.34,-37 837.34,-37"/>
<text text-anchor="middle" x="856.59" y="-68.7" font-family="Times,serif" font-size="14.00">0 &#45;&gt; 9:4</text>
<polyline fill="none" stroke="black" points="825.34,-61.5 887.84,-61.5"/>
<text text-anchor="middle" x="856.59" y="-44.2" font-family="Times,serif" font-size="14.00">3:0 &#45; 3:0</text>
</g>
<!-- n5&#45;&gt;x0 -->
<g id="edge10" class="edge">
<title>n5:e&#45;&gt;x0:w</title>
<path fill="none" stroke="black" stroke-width="3" d="M789.34,-49.5C800.72,-49.5 806.03,-49.37 813.9,-49.3"/>
<polygon fill="black" stroke="black" stroke-width="3" points="810.82,-52.81 820.8,-49.27 810.79,-45.81 810.82,-52.81"/>
</g>
<!-- c9&#45;&gt;n4 -->
<g id="edge7" class="edge">
<title>c9:e&#45;&gt;n4:w</title>
<path fill="none" stroke="black" stroke-width="3" d="M366.59,-78.75C378.04,-78.75 383.27,-76.6 391.12,-75.36"/>
<polygon fill="black" stroke="black" stroke-width="3" points="388.35,-79.08 398.06,-74.84 387.83,-72.1 388.35,-79.08"/>
</g>
<!-- c10&#45;&gt;n5 -->
<g id="edge9" class="edge">
<title>c10:e&#45;&gt;n5:w</title>
<path fill="none" stroke="black" stroke-width="3" d="M642.84,-49.75C654.22,-49.75 659.53,-49.62 667.4,-49.55"/>
<polygon fill="black" stroke="black" stroke-width="3" points="664.32,-53.06 674.3,-49.52 664.29,-46.06 664.32,-53.06"/>
</g>
<!-- c11&#45;&gt;c9 -->
<g id="edge1" class="edge">
<title>c11:e&#45;&gt;c9:w</title>
<path fill="none" stroke="black" stroke-width="3" d="M236.84,-116.75C251.95,-116.75 253.46,-101.51 262.19,-94.37"/>
<polygon fill="black" stroke="black" stroke-width="3" points="260.2,-98.74 268.54,-92.21 257.95,-92.11 260.2,-98.74"/>
</g>
<!-- x0&#45;&gt;n3 -->
<g id="edge6" class="edge">
<title>x0:e&#45;&gt;n3:w</title>
<path fill="none" stroke="black" stroke-width="3" d="M887.84,-61.5C899.22,-61.5 904.53,-61.5 912.4,-61.5"/>
<polygon fill="black" stroke="black" stroke-width="3" points="909.3,-65 919.3,-61.5 909.3,-58 909.3,-65"/>
</g>
</g>
</svg>
