<?xml version="1.0" encoding="UTF-8" standalone="no"?>
<!DOCTYPE svg PUBLIC "-//W3C//DTD SVG 1.1//EN"
 "http://www.w3.org/Graphics/SVG/1.1/DTD/svg11.dtd">
<!-- Generated by graphviz version 12.2.1 (20241206.2353)
 -->
<!-- Title: top Pages: 1 -->
<svg width="4536pt" height="656pt"
 viewBox="0.00 0.00 4536.12 655.84" xmlns="http://www.w3.org/2000/svg" xmlns:xlink="http://www.w3.org/1999/xlink">
<g id="graph0" class="graph" transform="scale(1 1) rotate(0) translate(4 651.84)">
<title>top</title>
<polygon fill="white" stroke="none" points="-4,4 -4,-651.84 4532.12,-651.84 4532.12,4 -4,4"/>
<text text-anchor="middle" x="2264.06" y="-7.2" font-family="Times,serif" font-size="14.00">top</text>
<!-- n11 -->
<g id="node1" class="node">
<title>n11</title>
<polygon fill="none" stroke="black" points="1987.3,-474.5 1903.09,-456.5 1987.3,-438.5 2071.5,-456.5 1987.3,-474.5"/>
<text text-anchor="middle" x="1987.3" y="-451.45" font-family="Times,serif" font-size="14.00">expr_268110</text>
</g>
<!-- x13 -->
<g id="node29" class="node">
<title>x13</title>
<path fill="none" stroke="black" d="M2126.25,-174.5C2126.25,-174.5 2164.75,-174.5 2164.75,-174.5 2170.75,-174.5 2176.75,-180.5 2176.75,-186.5 2176.75,-186.5 2176.75,-198.5 2176.75,-198.5 2176.75,-204.5 2170.75,-210.5 2164.75,-210.5 2164.75,-210.5 2126.25,-210.5 2126.25,-210.5 2120.25,-210.5 2114.25,-204.5 2114.25,-198.5 2114.25,-198.5 2114.25,-186.5 2114.25,-186.5 2114.25,-180.5 2120.25,-174.5 2126.25,-174.5"/>
<text text-anchor="middle" x="2145.5" y="-187.7" font-family="Times,serif" font-size="14.00">0:0 &#45; 0:0</text>
</g>
<!-- n11&#45;&gt;x13 -->
<g id="edge47" class="edge">
<title>n11:e&#45;&gt;x13:w</title>
<path fill="none" stroke="black" d="M2071.5,-456.5C2126.67,-456.5 2064.05,-228.54 2102.66,-196.48"/>
<polygon fill="black" stroke="black" points="2103.55,-199.87 2111.82,-193.25 2101.23,-193.27 2103.55,-199.87"/>
</g>
<!-- x32 -->
<g id="node54" class="node">
<title>x32</title>
<path fill="none" stroke="black" d="M2126.25,-485.5C2126.25,-485.5 2164.75,-485.5 2164.75,-485.5 2170.75,-485.5 2176.75,-491.5 2176.75,-497.5 2176.75,-497.5 2176.75,-509.5 2176.75,-509.5 2176.75,-515.5 2170.75,-521.5 2164.75,-521.5 2164.75,-521.5 2126.25,-521.5 2126.25,-521.5 2120.25,-521.5 2114.25,-515.5 2114.25,-509.5 2114.25,-509.5 2114.25,-497.5 2114.25,-497.5 2114.25,-491.5 2120.25,-485.5 2126.25,-485.5"/>
<text text-anchor="middle" x="2145.5" y="-498.7" font-family="Times,serif" font-size="14.00">1:1 &#45; 0:0</text>
</g>
<!-- n11&#45;&gt;x32 -->
<g id="edge48" class="edge">
<title>n11:e&#45;&gt;x32:w</title>
<path fill="none" stroke="black" d="M2071.5,-456.5C2094.93,-456.5 2088.78,-489.52 2102.5,-500.35"/>
<polygon fill="black" stroke="black" points="2101.22,-503.62 2111.81,-503.29 2103.33,-496.94 2101.22,-503.62"/>
</g>
<!-- x46 -->
<g id="node68" class="node">
<title>x46</title>
<path fill="none" stroke="black" d="M2119.5,-391.5C2119.5,-391.5 2171.5,-391.5 2171.5,-391.5 2177.5,-391.5 2183.5,-397.5 2183.5,-403.5 2183.5,-403.5 2183.5,-415.5 2183.5,-415.5 2183.5,-421.5 2177.5,-427.5 2171.5,-427.5 2171.5,-427.5 2119.5,-427.5 2119.5,-427.5 2113.5,-427.5 2107.5,-421.5 2107.5,-415.5 2107.5,-415.5 2107.5,-403.5 2107.5,-403.5 2107.5,-397.5 2113.5,-391.5 2119.5,-391.5"/>
<text text-anchor="middle" x="2145.5" y="-404.7" font-family="Times,serif" font-size="14.00">10:10 &#45; 0:0</text>
</g>
<!-- n11&#45;&gt;x46 -->
<g id="edge49" class="edge">
<title>n11:e&#45;&gt;x46:w</title>
<path fill="none" stroke="black" d="M2071.5,-456.5C2093.01,-456.5 2085.81,-425.04 2097,-413.74"/>
<polygon fill="black" stroke="black" points="2097.98,-417.11 2106.08,-410.29 2095.49,-410.56 2097.98,-417.11"/>
</g>
<!-- n12 -->
<g id="node2" class="node">
<title>n12</title>
<polygon fill="none" stroke="black" points="107.84,-365.04 107.84,-379.96 76.26,-390.5 31.59,-390.5 0,-379.96 0,-365.04 31.59,-354.5 76.26,-354.5 107.84,-365.04"/>
<text text-anchor="middle" x="53.92" y="-367.45" font-family="Times,serif" font-size="14.00">input_data</text>
</g>
<!-- c22 -->
<g id="node14" class="node">
<title>c22</title>
<polygon fill="none" stroke="black" points="161.09,-420 161.09,-469 254.84,-469 254.84,-420 161.09,-420"/>
<text text-anchor="middle" x="173.97" y="-451.7" font-family="Times,serif" font-size="14.00">A</text>
<polyline fill="none" stroke="black" points="161.09,-444.5 186.84,-444.5"/>
<text text-anchor="middle" x="173.97" y="-427.2" font-family="Times,serif" font-size="14.00">B</text>
<polyline fill="none" stroke="black" points="186.84,-420 186.84,-469"/>
<text text-anchor="middle" x="207.97" y="-447.7" font-family="Times,serif" font-size="14.00">$5</text>
<text text-anchor="middle" x="207.97" y="-431.2" font-family="Times,serif" font-size="14.00">$and</text>
<polyline fill="none" stroke="black" points="229.09,-420 229.09,-469"/>
<text text-anchor="middle" x="241.97" y="-439.7" font-family="Times,serif" font-size="14.00">Y</text>
</g>
<!-- n12&#45;&gt;c22 -->
<g id="edge50" class="edge">
<title>n12:e&#45;&gt;c22:w</title>
<path fill="none" stroke="black" stroke-width="3" d="M107.84,-372.5C147.43,-372.5 122.49,-440.51 148.97,-454.32"/>
<polygon fill="black" stroke="black" stroke-width="3" points="145.14,-457.06 155.66,-455.78 146.63,-450.23 145.14,-457.06"/>
</g>
<!-- n12&#45;&gt;c22 -->
<g id="edge51" class="edge">
<title>n12:e&#45;&gt;c22:w</title>
<path fill="none" stroke="black" stroke-width="3" d="M107.84,-372.5C138.71,-372.5 128.55,-418.25 149.16,-429.68"/>
<polygon fill="black" stroke="black" stroke-width="3" points="145.14,-432.33 155.67,-431.21 146.74,-425.52 145.14,-432.33"/>
</g>
<!-- c23 -->
<g id="node15" class="node">
<title>c23</title>
<polygon fill="none" stroke="black" points="143.84,-256 143.84,-297 272.09,-297 272.09,-256 143.84,-256"/>
<text text-anchor="middle" x="156.72" y="-271.7" font-family="Times,serif" font-size="14.00">A</text>
<polyline fill="none" stroke="black" points="169.59,-256 169.59,-297"/>
<text text-anchor="middle" x="207.97" y="-279.7" font-family="Times,serif" font-size="14.00">$61</text>
<text text-anchor="middle" x="207.97" y="-263.2" font-family="Times,serif" font-size="14.00">$reduce_or</text>
<polyline fill="none" stroke="black" points="246.34,-256 246.34,-297"/>
<text text-anchor="middle" x="259.22" y="-271.7" font-family="Times,serif" font-size="14.00">Y</text>
</g>
<!-- n12&#45;&gt;c23 -->
<g id="edge52" class="edge">
<title>n12:e&#45;&gt;c23:w</title>
<path fill="none" stroke="black" stroke-width="3" d="M107.84,-372.5C148.69,-372.5 108.5,-295.21 132.88,-279.51"/>
<polygon fill="black" stroke="black" stroke-width="3" points="130.6,-283.7 139.44,-277.86 128.89,-276.91 130.6,-283.7"/>
</g>
<!-- c24 -->
<g id="node17" class="node">
<title>c24</title>
<polygon fill="none" stroke="black" points="927.93,-411 927.93,-460 1020.18,-460 1020.18,-411 927.93,-411"/>
<text text-anchor="middle" x="940.81" y="-442.7" font-family="Times,serif" font-size="14.00">A</text>
<polyline fill="none" stroke="black" points="927.93,-435.5 953.68,-435.5"/>
<text text-anchor="middle" x="940.81" y="-418.2" font-family="Times,serif" font-size="14.00">B</text>
<polyline fill="none" stroke="black" points="953.68,-411 953.68,-460"/>
<text text-anchor="middle" x="974.06" y="-438.7" font-family="Times,serif" font-size="14.00">$42</text>
<text text-anchor="middle" x="974.06" y="-422.2" font-family="Times,serif" font-size="14.00">$xor</text>
<polyline fill="none" stroke="black" points="994.43,-411 994.43,-460"/>
<text text-anchor="middle" x="1007.31" y="-430.7" font-family="Times,serif" font-size="14.00">Y</text>
</g>
<!-- n12&#45;&gt;c24 -->
<g id="edge53" class="edge">
<title>n12:e&#45;&gt;c24:w</title>
<path fill="none" stroke="black" stroke-width="3" d="M107.84,-372.5C123.9,-372.5 127.83,-370.65 143.84,-369.5 262.78,-360.99 292.42,-353.5 411.67,-353.5 411.67,-353.5 411.67,-353.5 721.5,-353.5 814.37,-353.5 829.9,-417.65 916.43,-422.91"/>
<polygon fill="black" stroke="black" stroke-width="3" points="913.3,-426.32 923.4,-423.11 913.5,-419.32 913.3,-426.32"/>
</g>
<!-- c30 -->
<g id="node35" class="node">
<title>c30</title>
<polygon fill="none" stroke="black" points="364.67,-395 364.67,-444 460.67,-444 460.67,-395 364.67,-395"/>
<text text-anchor="middle" x="377.55" y="-426.7" font-family="Times,serif" font-size="14.00">A</text>
<polyline fill="none" stroke="black" points="364.67,-419.5 390.42,-419.5"/>
<text text-anchor="middle" x="377.55" y="-402.2" font-family="Times,serif" font-size="14.00">B</text>
<polyline fill="none" stroke="black" points="390.42,-395 390.42,-444"/>
<text text-anchor="middle" x="412.67" y="-422.7" font-family="Times,serif" font-size="14.00">$6</text>
<text text-anchor="middle" x="412.67" y="-406.2" font-family="Times,serif" font-size="14.00">$mul</text>
<polyline fill="none" stroke="black" points="434.92,-395 434.92,-444"/>
<text text-anchor="middle" x="447.8" y="-414.7" font-family="Times,serif" font-size="14.00">Y</text>
</g>
<!-- n12&#45;&gt;c30 -->
<g id="edge54" class="edge">
<title>n12:e&#45;&gt;c30:w</title>
<path fill="none" stroke="black" stroke-width="3" d="M107.84,-372.5C218.67,-372.5 247.02,-404.92 352.21,-407.13"/>
<polygon fill="black" stroke="black" stroke-width="3" points="349.09,-410.6 359.13,-407.2 349.17,-403.6 349.09,-410.6"/>
</g>
<!-- x27 -->
<g id="node48" class="node">
<title>x27</title>
<path fill="none" stroke="black" d="M701.25,-71.5C701.25,-71.5 739.75,-71.5 739.75,-71.5 745.75,-71.5 751.75,-77.5 751.75,-83.5 751.75,-83.5 751.75,-95.5 751.75,-95.5 751.75,-101.5 745.75,-107.5 739.75,-107.5 739.75,-107.5 701.25,-107.5 701.25,-107.5 695.25,-107.5 689.25,-101.5 689.25,-95.5 689.25,-95.5 689.25,-83.5 689.25,-83.5 689.25,-77.5 695.25,-71.5 701.25,-71.5"/>
<text text-anchor="middle" x="720.5" y="-84.7" font-family="Times,serif" font-size="14.00">2:2 &#45; 0:0</text>
</g>
<!-- n12&#45;&gt;x27 -->
<g id="edge55" class="edge">
<title>n12:e&#45;&gt;x27:w</title>
<path fill="none" stroke="black" d="M107.84,-372.5C166.08,-372.5 103.36,-288.37 143.84,-246.5 195.91,-192.64 496.95,-94 676.85,-89.88"/>
<polygon fill="black" stroke="black" points="676.78,-93.38 686.74,-89.77 676.7,-86.38 676.78,-93.38"/>
</g>
<!-- n13 -->
<g id="node3" class="node">
<title>n13</title>
<polygon fill="none" stroke="black" points="4528.12,-246.04 4528.12,-260.96 4493.62,-271.5 4444.82,-271.5 4410.31,-260.96 4410.31,-246.04 4444.82,-235.5 4493.62,-235.5 4528.12,-246.04"/>
<text text-anchor="middle" x="4469.22" y="-248.45" font-family="Times,serif" font-size="14.00">output_data</text>
</g>
<!-- n14 -->
<g id="node4" class="node">
<title>n14</title>
<polygon fill="none" stroke="black" points="1111.43,-286.5 1056.18,-268.5 1111.43,-250.5 1166.69,-268.5 1111.43,-286.5"/>
<text text-anchor="middle" x="1111.43" y="-263.45" font-family="Times,serif" font-size="14.00">temp_0</text>
</g>
<!-- x4 -->
<g id="node13" class="node">
<title>x4</title>
<path fill="none" stroke="black" d="M3503.81,-259.5C3503.81,-259.5 3542.31,-259.5 3542.31,-259.5 3548.31,-259.5 3554.31,-265.5 3554.31,-271.5 3554.31,-271.5 3554.31,-283.5 3554.31,-283.5 3554.31,-289.5 3548.31,-295.5 3542.31,-295.5 3542.31,-295.5 3503.81,-295.5 3503.81,-295.5 3497.81,-295.5 3491.81,-289.5 3491.81,-283.5 3491.81,-283.5 3491.81,-271.5 3491.81,-271.5 3491.81,-265.5 3497.81,-259.5 3503.81,-259.5"/>
<text text-anchor="middle" x="3523.06" y="-272.7" font-family="Times,serif" font-size="14.00">0:0 &#45; 0:0</text>
</g>
<!-- n14&#45;&gt;x4 -->
<g id="edge61" class="edge">
<title>n14:e&#45;&gt;x4:w</title>
<path fill="none" stroke="black" d="M1166.69,-268.5C1246.62,-268.5 1266.38,-277.5 1346.31,-277.5 1346.31,-277.5 1346.31,-277.5 3311.81,-277.5 3387.9,-277.5 3409.71,-277.73 3480.51,-277.75"/>
<polygon fill="black" stroke="black" points="3480.3,-281.25 3490.3,-277.75 3480.3,-274.25 3480.3,-281.25"/>
</g>
<!-- x8 -->
<g id="node21" class="node">
<title>x8</title>
<path fill="none" stroke="black" d="M1214.69,-399.5C1214.69,-399.5 1253.19,-399.5 1253.19,-399.5 1259.19,-399.5 1265.19,-405.5 1265.19,-411.5 1265.19,-411.5 1265.19,-423.5 1265.19,-423.5 1265.19,-429.5 1259.19,-435.5 1253.19,-435.5 1253.19,-435.5 1214.69,-435.5 1214.69,-435.5 1208.69,-435.5 1202.69,-429.5 1202.69,-423.5 1202.69,-423.5 1202.69,-411.5 1202.69,-411.5 1202.69,-405.5 1208.69,-399.5 1214.69,-399.5"/>
<text text-anchor="middle" x="1233.94" y="-412.7" font-family="Times,serif" font-size="14.00">0:0 &#45; 0:0</text>
</g>
<!-- n14&#45;&gt;x8 -->
<g id="edge62" class="edge">
<title>n14:e&#45;&gt;x8:w</title>
<path fill="none" stroke="black" d="M1166.69,-268.5C1230.52,-268.5 1146.7,-399.13 1191.5,-415.97"/>
<polygon fill="black" stroke="black" points="1190.76,-419.4 1201.19,-417.51 1191.87,-412.48 1190.76,-419.4"/>
</g>
<!-- x9 -->
<g id="node23" class="node">
<title>x9</title>
<path fill="none" stroke="black" d="M1214.69,-344.5C1214.69,-344.5 1253.19,-344.5 1253.19,-344.5 1259.19,-344.5 1265.19,-350.5 1265.19,-356.5 1265.19,-356.5 1265.19,-368.5 1265.19,-368.5 1265.19,-374.5 1259.19,-380.5 1253.19,-380.5 1253.19,-380.5 1214.69,-380.5 1214.69,-380.5 1208.69,-380.5 1202.69,-374.5 1202.69,-368.5 1202.69,-368.5 1202.69,-356.5 1202.69,-356.5 1202.69,-350.5 1208.69,-344.5 1214.69,-344.5"/>
<text text-anchor="middle" x="1233.94" y="-357.7" font-family="Times,serif" font-size="14.00">0:0 &#45; 0:0</text>
</g>
<!-- n14&#45;&gt;x9 -->
<g id="edge63" class="edge">
<title>n14:e&#45;&gt;x9:w</title>
<path fill="none" stroke="black" d="M1166.69,-268.5C1206.8,-268.5 1168.07,-343.92 1191.55,-359.83"/>
<polygon fill="black" stroke="black" points="1190.66,-363.21 1201.22,-362.37 1192.44,-356.44 1190.66,-363.21"/>
</g>
<!-- x14 -->
<g id="node30" class="node">
<title>x14</title>
<path fill="none" stroke="black" d="M1328.06,-150.5C1328.06,-150.5 1366.56,-150.5 1366.56,-150.5 1372.56,-150.5 1378.56,-156.5 1378.56,-162.5 1378.56,-162.5 1378.56,-174.5 1378.56,-174.5 1378.56,-180.5 1372.56,-186.5 1366.56,-186.5 1366.56,-186.5 1328.06,-186.5 1328.06,-186.5 1322.06,-186.5 1316.06,-180.5 1316.06,-174.5 1316.06,-174.5 1316.06,-162.5 1316.06,-162.5 1316.06,-156.5 1322.06,-150.5 1328.06,-150.5"/>
<text text-anchor="middle" x="1347.31" y="-163.7" font-family="Times,serif" font-size="14.00">0:0 &#45; 0:0</text>
</g>
<!-- n14&#45;&gt;x14 -->
<g id="edge59" class="edge">
<title>n14:e&#45;&gt;x14:w</title>
<path fill="none" stroke="black" d="M1166.69,-268.5C1193.35,-268.5 1181.94,-237.26 1202.69,-220.5 1242.37,-188.45 1257.82,-171.33 1303.75,-169.02"/>
<polygon fill="black" stroke="black" points="1303.63,-172.52 1313.55,-168.79 1303.47,-165.53 1303.63,-172.52"/>
</g>
<!-- x22 -->
<g id="node42" class="node">
<title>x22</title>
<path fill="none" stroke="black" d="M1443.69,-212.5C1443.69,-212.5 1482.19,-212.5 1482.19,-212.5 1488.19,-212.5 1494.19,-218.5 1494.19,-224.5 1494.19,-224.5 1494.19,-236.5 1494.19,-236.5 1494.19,-242.5 1488.19,-248.5 1482.19,-248.5 1482.19,-248.5 1443.69,-248.5 1443.69,-248.5 1437.69,-248.5 1431.69,-242.5 1431.69,-236.5 1431.69,-236.5 1431.69,-224.5 1431.69,-224.5 1431.69,-218.5 1437.69,-212.5 1443.69,-212.5"/>
<text text-anchor="middle" x="1462.94" y="-225.7" font-family="Times,serif" font-size="14.00">0:0 &#45; 0:0</text>
</g>
<!-- n14&#45;&gt;x22 -->
<g id="edge60" class="edge">
<title>n14:e&#45;&gt;x22:w</title>
<path fill="none" stroke="black" d="M1166.69,-268.5C1169.95,-268.5 1369.43,-239.21 1419.45,-232.23"/>
<polygon fill="black" stroke="black" points="1419.73,-235.72 1429.18,-230.95 1418.81,-228.78 1419.73,-235.72"/>
</g>
<!-- n15 -->
<g id="node5" class="node">
<title>n15</title>
<polygon fill="none" stroke="black" points="720.5,-465.5 665.25,-447.5 720.5,-429.5 775.75,-447.5 720.5,-465.5"/>
<text text-anchor="middle" x="720.5" y="-442.45" font-family="Times,serif" font-size="14.00">temp_1</text>
</g>
<!-- x0 -->
<g id="node8" class="node">
<title>x0</title>
<path fill="none" stroke="black" d="M1443.69,-464.75C1443.69,-464.75 1482.19,-464.75 1482.19,-464.75 1488.19,-464.75 1494.19,-470.75 1494.19,-476.75 1494.19,-476.75 1494.19,-526.25 1494.19,-526.25 1494.19,-532.25 1488.19,-538.25 1482.19,-538.25 1482.19,-538.25 1443.69,-538.25 1443.69,-538.25 1437.69,-538.25 1431.69,-532.25 1431.69,-526.25 1431.69,-526.25 1431.69,-476.75 1431.69,-476.75 1431.69,-470.75 1437.69,-464.75 1443.69,-464.75"/>
<text text-anchor="middle" x="1462.94" y="-520.95" font-family="Times,serif" font-size="14.00">5:3 &#45; 5:3</text>
<polyline fill="none" stroke="black" points="1431.69,-513.75 1494.19,-513.75"/>
<text text-anchor="middle" x="1462.94" y="-496.45" font-family="Times,serif" font-size="14.00">2:1 &#45; 2:1</text>
<polyline fill="none" stroke="black" points="1431.69,-489.25 1494.19,-489.25"/>
<text text-anchor="middle" x="1462.94" y="-471.95" font-family="Times,serif" font-size="14.00">0:0 &#45; 0:0</text>
</g>
<!-- n15&#45;&gt;x0 -->
<g id="edge66" class="edge">
<title>n15:e&#45;&gt;x0:w</title>
<path fill="none" stroke="black" stroke-width="3" d="M775.75,-447.5C796.02,-447.5 794.64,-464.64 811.75,-475.5 879.65,-518.61 892.64,-557.5 973.06,-557.5 973.06,-557.5 973.06,-557.5 1234.94,-557.5 1319.1,-557.5 1340.67,-528.77 1419.21,-526.18"/>
<polygon fill="black" stroke="black" stroke-width="3" points="1416.2,-529.73 1426.15,-526.07 1416.09,-522.74 1416.2,-529.73"/>
</g>
<!-- x6 -->
<g id="node18" class="node">
<title>x6</title>
<path fill="none" stroke="black" d="M832.59,-429.5C832.59,-429.5 871.09,-429.5 871.09,-429.5 877.09,-429.5 883.09,-435.5 883.09,-441.5 883.09,-441.5 883.09,-453.5 883.09,-453.5 883.09,-459.5 877.09,-465.5 871.09,-465.5 871.09,-465.5 832.59,-465.5 832.59,-465.5 826.59,-465.5 820.59,-459.5 820.59,-453.5 820.59,-453.5 820.59,-441.5 820.59,-441.5 820.59,-435.5 826.59,-429.5 832.59,-429.5"/>
<text text-anchor="middle" x="851.84" y="-442.7" font-family="Times,serif" font-size="14.00">2:0 &#45; 2:0</text>
</g>
<!-- n15&#45;&gt;x6 -->
<g id="edge70" class="edge">
<title>n15:e&#45;&gt;x6:w</title>
<path fill="none" stroke="black" stroke-width="3" d="M775.75,-447.5C790.82,-447.5 797.15,-447.65 808.26,-447.72"/>
<polygon fill="black" stroke="black" stroke-width="3" points="805.04,-451.21 815.05,-447.74 805.06,-444.21 805.04,-451.21"/>
</g>
<!-- x11 -->
<g id="node26" class="node">
<title>x11</title>
<path fill="none" stroke="black" d="M1968.05,-306.5C1968.05,-306.5 2006.55,-306.5 2006.55,-306.5 2012.55,-306.5 2018.55,-312.5 2018.55,-318.5 2018.55,-318.5 2018.55,-330.5 2018.55,-330.5 2018.55,-336.5 2012.55,-342.5 2006.55,-342.5 2006.55,-342.5 1968.05,-342.5 1968.05,-342.5 1962.05,-342.5 1956.05,-336.5 1956.05,-330.5 1956.05,-330.5 1956.05,-318.5 1956.05,-318.5 1956.05,-312.5 1962.05,-306.5 1968.05,-306.5"/>
<text text-anchor="middle" x="1987.3" y="-319.7" font-family="Times,serif" font-size="14.00">5:0 &#45; 5:0</text>
</g>
<!-- n15&#45;&gt;x11 -->
<g id="edge67" class="edge">
<title>n15:e&#45;&gt;x11:w</title>
<path fill="none" stroke="black" stroke-width="3" d="M775.75,-447.5C795.75,-447.5 795.36,-431.96 811.75,-420.5 881.85,-371.48 887.52,-315.5 973.06,-315.5 973.06,-315.5 973.06,-315.5 1638.01,-315.5 1775.12,-315.5 1812.08,-324.25 1943.72,-324.73"/>
<polygon fill="black" stroke="black" stroke-width="3" points="1940.5,-328.22 1950.51,-324.74 1940.51,-321.22 1940.5,-328.22"/>
</g>
<!-- x20 -->
<g id="node39" class="node">
<title>x20</title>
<path fill="none" stroke="black" d="M3405.31,-540.5C3405.31,-540.5 3443.81,-540.5 3443.81,-540.5 3449.81,-540.5 3455.81,-546.5 3455.81,-552.5 3455.81,-552.5 3455.81,-564.5 3455.81,-564.5 3455.81,-570.5 3449.81,-576.5 3443.81,-576.5 3443.81,-576.5 3405.31,-576.5 3405.31,-576.5 3399.31,-576.5 3393.31,-570.5 3393.31,-564.5 3393.31,-564.5 3393.31,-552.5 3393.31,-552.5 3393.31,-546.5 3399.31,-540.5 3405.31,-540.5"/>
<text text-anchor="middle" x="3424.56" y="-553.7" font-family="Times,serif" font-size="14.00">5:0 &#45; 5:0</text>
</g>
<!-- n15&#45;&gt;x20 -->
<g id="edge68" class="edge">
<title>n15:e&#45;&gt;x20:w</title>
<path fill="none" stroke="black" stroke-width="3" d="M775.75,-447.5C811.13,-447.5 789.32,-491.14 811.75,-518.5 869.59,-589.07 881.81,-645.5 973.06,-645.5 973.06,-645.5 973.06,-645.5 3183.56,-645.5 3261.92,-645.5 3292.12,-658.98 3357.31,-615.5 3378.28,-601.52 3368.23,-570.73 3382.52,-561.45"/>
<polygon fill="black" stroke="black" stroke-width="3" points="3380.05,-565.67 3388.9,-559.85 3378.35,-558.88 3380.05,-565.67"/>
</g>
<!-- x26 -->
<g id="node47" class="node">
<title>x26</title>
<path fill="none" stroke="black" d="M1092.18,-127C1092.18,-127 1130.68,-127 1130.68,-127 1136.68,-127 1142.68,-133 1142.68,-139 1142.68,-139 1142.68,-164 1142.68,-164 1142.68,-170 1136.68,-176 1130.68,-176 1130.68,-176 1092.18,-176 1092.18,-176 1086.18,-176 1080.18,-170 1080.18,-164 1080.18,-164 1080.18,-139 1080.18,-139 1080.18,-133 1086.18,-127 1092.18,-127"/>
<text text-anchor="middle" x="1111.43" y="-158.7" font-family="Times,serif" font-size="14.00">5:1 &#45; 5:1</text>
<polyline fill="none" stroke="black" points="1080.18,-151.5 1142.68,-151.5"/>
<text text-anchor="middle" x="1111.43" y="-134.2" font-family="Times,serif" font-size="14.00">1 &#45;&gt; 0:0</text>
</g>
<!-- n15&#45;&gt;x26 -->
<g id="edge69" class="edge">
<title>n15:e&#45;&gt;x26:w</title>
<path fill="none" stroke="black" stroke-width="3" d="M775.75,-447.5C822.22,-447.5 780.75,-276.12 811.75,-241.5 891.76,-152.18 951.57,-162.95 1067.76,-163.71"/>
<polygon fill="black" stroke="black" stroke-width="3" points="1064.63,-167.2 1074.64,-163.73 1064.66,-160.2 1064.63,-167.2"/>
</g>
<!-- n16 -->
<g id="node6" class="node">
<title>n16</title>
<polygon fill="none" stroke="black" points="3045.56,-149.5 2990.31,-131.5 3045.56,-113.5 3100.81,-131.5 3045.56,-149.5"/>
<text text-anchor="middle" x="3045.56" y="-126.45" font-family="Times,serif" font-size="14.00">temp_3</text>
</g>
<!-- x23 -->
<g id="node43" class="node">
<title>x23</title>
<path fill="none" stroke="black" d="M3163.31,-172.5C3163.31,-172.5 3201.81,-172.5 3201.81,-172.5 3207.81,-172.5 3213.81,-178.5 3213.81,-184.5 3213.81,-184.5 3213.81,-196.5 3213.81,-196.5 3213.81,-202.5 3207.81,-208.5 3201.81,-208.5 3201.81,-208.5 3163.31,-208.5 3163.31,-208.5 3157.31,-208.5 3151.31,-202.5 3151.31,-196.5 3151.31,-196.5 3151.31,-184.5 3151.31,-184.5 3151.31,-178.5 3157.31,-172.5 3163.31,-172.5"/>
<text text-anchor="middle" x="3182.56" y="-185.7" font-family="Times,serif" font-size="14.00">5:0 &#45; 5:0</text>
</g>
<!-- n16&#45;&gt;x23 -->
<g id="edge73" class="edge">
<title>n16:e&#45;&gt;x23:w</title>
<path fill="none" stroke="black" stroke-width="3" d="M3100.81,-131.5C3130.57,-131.5 3120.13,-176.06 3139.22,-187.89"/>
<polygon fill="black" stroke="black" stroke-width="3" points="3135.36,-190.51 3145.91,-189.62 3137.1,-183.73 3135.36,-190.51"/>
</g>
<!-- x29 -->
<g id="node51" class="node">
<title>x29</title>
<path fill="none" stroke="black" d="M3967.31,-164.5C3967.31,-164.5 4005.81,-164.5 4005.81,-164.5 4011.81,-164.5 4017.81,-170.5 4017.81,-176.5 4017.81,-176.5 4017.81,-188.5 4017.81,-188.5 4017.81,-194.5 4011.81,-200.5 4005.81,-200.5 4005.81,-200.5 3967.31,-200.5 3967.31,-200.5 3961.31,-200.5 3955.31,-194.5 3955.31,-188.5 3955.31,-188.5 3955.31,-176.5 3955.31,-176.5 3955.31,-170.5 3961.31,-164.5 3967.31,-164.5"/>
<text text-anchor="middle" x="3986.56" y="-177.7" font-family="Times,serif" font-size="14.00">5:0 &#45; 5:0</text>
</g>
<!-- n16&#45;&gt;x29 -->
<g id="edge74" class="edge">
<title>n16:e&#45;&gt;x29:w</title>
<path fill="none" stroke="black" stroke-width="3" d="M3100.81,-131.5C3193.77,-131.5 3216.85,-139.5 3309.81,-139.5 3309.81,-139.5 3309.81,-139.5 3764.43,-139.5 3847.51,-139.5 3866.67,-178.95 3944,-182.5"/>
<polygon fill="black" stroke="black" stroke-width="3" points="3940.69,-185.92 3950.77,-182.65 3940.85,-178.92 3940.69,-185.92"/>
</g>
<!-- c20 -->
<g id="node7" class="node">
<title>c20</title>
<polygon fill="none" stroke="black" points="1590.14,-369 1590.14,-418 1683.89,-418 1683.89,-369 1590.14,-369"/>
<text text-anchor="middle" x="1603.01" y="-400.7" font-family="Times,serif" font-size="14.00">A</text>
<polyline fill="none" stroke="black" points="1590.14,-393.5 1615.89,-393.5"/>
<text text-anchor="middle" x="1603.01" y="-376.2" font-family="Times,serif" font-size="14.00">B</text>
<polyline fill="none" stroke="black" points="1615.89,-369 1615.89,-418"/>
<text text-anchor="middle" x="1637.01" y="-396.7" font-family="Times,serif" font-size="14.00">$11</text>
<text text-anchor="middle" x="1637.01" y="-380.2" font-family="Times,serif" font-size="14.00">$add</text>
<polyline fill="none" stroke="black" points="1658.14,-369 1658.14,-418"/>
<text text-anchor="middle" x="1671.01" y="-388.7" font-family="Times,serif" font-size="14.00">Y</text>
</g>
<!-- x2 -->
<g id="node10" class="node">
<title>x2</title>
<path fill="none" stroke="black" d="M1789.59,-369C1789.59,-369 1855.09,-369 1855.09,-369 1861.09,-369 1867.09,-375 1867.09,-381 1867.09,-381 1867.09,-406 1867.09,-406 1867.09,-412 1861.09,-418 1855.09,-418 1855.09,-418 1789.59,-418 1789.59,-418 1783.59,-418 1777.59,-412 1777.59,-406 1777.59,-406 1777.59,-381 1777.59,-381 1777.59,-375 1783.59,-369 1789.59,-369"/>
<text text-anchor="middle" x="1822.34" y="-400.7" font-family="Times,serif" font-size="14.00">10:10 &#45; 10:10</text>
<polyline fill="none" stroke="black" points="1777.59,-393.5 1867.09,-393.5"/>
<text text-anchor="middle" x="1822.34" y="-376.2" font-family="Times,serif" font-size="14.00">9:0 &#45; 9:0</text>
</g>
<!-- c20&#45;&gt;x2 -->
<g id="edge3" class="edge">
<title>c20:e&#45;&gt;x2:w</title>
<path fill="none" stroke="black" stroke-width="3" d="M1697.79,-393.74C1724.82,-393.7 1737.59,-393.55 1764.58,-393.51"/>
<polygon fill="none" stroke="black" stroke-width="3" points="1699.59,-393.74 1693.6,-397.74 1687.59,-393.75 1693.59,-389.74 1699.59,-393.74"/>
<polygon fill="none" stroke="black" stroke-width="3" points="1762.89,-393.51 1768.89,-389.51 1774.89,-393.5 1768.89,-397.51 1762.89,-393.51"/>
</g>
<!-- x0&#45;&gt;c20 -->
<g id="edge1" class="edge">
<title>x0:e&#45;&gt;c20:w</title>
<path fill="none" stroke="black" stroke-width="3" d="M1507.55,-498.59C1524.85,-487.89 1509.88,-450.3 1532.44,-429.5 1548.99,-414.23 1558.21,-408 1576.25,-406.28"/>
<polygon fill="none" stroke="black" stroke-width="3" points="1509.5,-498.13 1504.57,-503.4 1497.82,-500.88 1502.74,-495.61 1509.5,-498.13"/>
<polygon fill="none" stroke="black" stroke-width="3" points="1574.45,-406.35 1580.28,-402.11 1586.44,-405.86 1580.61,-410.1 1574.45,-406.35"/>
</g>
<!-- x1 -->
<g id="node9" class="node">
<title>x1</title>
<path fill="none" stroke="black" d="M1441.44,-356C1441.44,-356 1484.44,-356 1484.44,-356 1490.44,-356 1496.44,-362 1496.44,-368 1496.44,-368 1496.44,-393 1496.44,-393 1496.44,-399 1490.44,-405 1484.44,-405 1484.44,-405 1441.44,-405 1441.44,-405 1435.44,-405 1429.44,-399 1429.44,-393 1429.44,-393 1429.44,-368 1429.44,-368 1429.44,-362 1435.44,-356 1441.44,-356"/>
<text text-anchor="middle" x="1462.94" y="-387.7" font-family="Times,serif" font-size="14.00">1 &#45;&gt; 10:1</text>
<polyline fill="none" stroke="black" points="1429.44,-380.5 1496.44,-380.5"/>
<text text-anchor="middle" x="1462.94" y="-363.2" font-family="Times,serif" font-size="14.00">0:0 &#45; 0:0</text>
</g>
<!-- x1&#45;&gt;c20 -->
<g id="edge2" class="edge">
<title>x1:e&#45;&gt;c20:w</title>
<path fill="none" stroke="black" stroke-width="3" d="M1509.34,-380.53C1536.37,-380.64 1549.14,-381.11 1576.13,-381.22"/>
<polygon fill="none" stroke="black" stroke-width="3" points="1511.14,-380.53 1505.13,-384.52 1499.14,-380.51 1505.15,-376.52 1511.14,-380.53"/>
<polygon fill="none" stroke="black" stroke-width="3" points="1574.44,-381.22 1580.44,-377.23 1586.44,-381.24 1580.43,-385.23 1574.44,-381.22"/>
</g>
<!-- x2&#45;&gt;n11 -->
<g id="edge45" class="edge">
<title>x2:e&#45;&gt;n11:w</title>
<path fill="none" stroke="black" d="M1867.09,-405.75C1890,-405.75 1880.69,-440.55 1892.52,-452.52"/>
<polygon fill="black" stroke="black" points="1891.09,-455.72 1901.68,-455.97 1893.55,-449.17 1891.09,-455.72"/>
</g>
<!-- n1 -->
<g id="node70" class="node">
<title>n1</title>
<ellipse fill="black" stroke="black" cx="2380.5" cy="-400.5" rx="1.8" ry="1.8"/>
</g>
<!-- x2&#45;&gt;n1 -->
<g id="edge34" class="edge">
<title>x2:e&#45;&gt;n1:w</title>
<path fill="none" stroke="black" stroke-width="3" d="M1867.09,-381.25C2065.39,-381.25 2116.86,-355.12 2313.25,-382.5 2338.27,-385.99 2345.68,-396.68 2365.79,-399.7"/>
<polygon fill="black" stroke="black" stroke-width="3" points="2362.47,-402.97 2372.69,-400.18 2362.96,-395.99 2362.47,-402.97"/>
</g>
<!-- c21 -->
<g id="node11" class="node">
<title>c21</title>
<polygon fill="none" stroke="black" points="4152.31,-259 4152.31,-308 4246.06,-308 4246.06,-259 4152.31,-259"/>
<text text-anchor="middle" x="4165.18" y="-290.7" font-family="Times,serif" font-size="14.00">A</text>
<polyline fill="none" stroke="black" points="4152.31,-283.5 4178.06,-283.5"/>
<text text-anchor="middle" x="4165.18" y="-266.2" font-family="Times,serif" font-size="14.00">B</text>
<polyline fill="none" stroke="black" points="4178.06,-259 4178.06,-308"/>
<text text-anchor="middle" x="4199.18" y="-286.7" font-family="Times,serif" font-size="14.00">$23</text>
<text text-anchor="middle" x="4199.18" y="-270.2" font-family="Times,serif" font-size="14.00">$add</text>
<polyline fill="none" stroke="black" points="4220.31,-259 4220.31,-308"/>
<text text-anchor="middle" x="4233.18" y="-278.7" font-family="Times,serif" font-size="14.00">Y</text>
</g>
<!-- c35 -->
<g id="node50" class="node">
<title>c35</title>
<polygon fill="none" stroke="black" points="4282.06,-229 4282.06,-278 4374.31,-278 4374.31,-229 4282.06,-229"/>
<text text-anchor="middle" x="4294.93" y="-260.7" font-family="Times,serif" font-size="14.00">A</text>
<polyline fill="none" stroke="black" points="4282.06,-253.5 4307.81,-253.5"/>
<text text-anchor="middle" x="4294.93" y="-236.2" font-family="Times,serif" font-size="14.00">B</text>
<polyline fill="none" stroke="black" points="4307.81,-229 4307.81,-278"/>
<text text-anchor="middle" x="4328.18" y="-256.7" font-family="Times,serif" font-size="14.00">$24</text>
<text text-anchor="middle" x="4328.18" y="-240.2" font-family="Times,serif" font-size="14.00">$xor</text>
<polyline fill="none" stroke="black" points="4348.56,-229 4348.56,-278"/>
<text text-anchor="middle" x="4361.43" y="-248.7" font-family="Times,serif" font-size="14.00">Y</text>
</g>
<!-- c21&#45;&gt;c35 -->
<g id="edge75" class="edge">
<title>c21:e&#45;&gt;c35:w</title>
<path fill="none" stroke="black" stroke-width="3" d="M4246.06,-283.75C4259.34,-283.75 4262.88,-273.83 4271.14,-268.72"/>
<polygon fill="black" stroke="black" stroke-width="3" points="4268.95,-272.95 4277.68,-266.94 4267.11,-266.19 4268.95,-272.95"/>
</g>
<!-- x3 -->
<g id="node12" class="node">
<title>x3</title>
<path fill="none" stroke="black" d="M4065.81,-303.5C4065.81,-303.5 4104.31,-303.5 4104.31,-303.5 4110.31,-303.5 4116.31,-309.5 4116.31,-315.5 4116.31,-315.5 4116.31,-327.5 4116.31,-327.5 4116.31,-333.5 4110.31,-339.5 4104.31,-339.5 4104.31,-339.5 4065.81,-339.5 4065.81,-339.5 4059.81,-339.5 4053.81,-333.5 4053.81,-327.5 4053.81,-327.5 4053.81,-315.5 4053.81,-315.5 4053.81,-309.5 4059.81,-303.5 4065.81,-303.5"/>
<text text-anchor="middle" x="4085.06" y="-316.7" font-family="Times,serif" font-size="14.00">5:0 &#45; 5:0</text>
</g>
<!-- x3&#45;&gt;c21 -->
<g id="edge4" class="edge">
<title>x3:e&#45;&gt;c21:w</title>
<path fill="none" stroke="black" stroke-width="3" d="M4127.98,-317.01C4132.88,-312.4 4135.52,-305.25 4140.33,-300.53"/>
<polygon fill="none" stroke="black" stroke-width="3" points="4130.03,-316.22 4125.87,-322.11 4118.83,-320.53 4123,-314.64 4130.03,-316.22"/>
<polygon fill="none" stroke="black" stroke-width="3" points="4138.65,-301.2 4142.74,-295.26 4149.8,-296.75 4145.71,-302.69 4138.65,-301.2"/>
</g>
<!-- x4&#45;&gt;c21 -->
<g id="edge5" class="edge">
<title>x4:e&#45;&gt;c21:w</title>
<path fill="none" stroke="black" d="M3567.13,-277.46C3649.21,-276.94 3674.32,-271.5 3762.43,-271.5 3762.43,-271.5 3762.43,-271.5 3987.56,-271.5 4056.35,-271.5 4076.67,-271.28 4139.59,-271.25"/>
<polygon fill="none" stroke="black" points="3567.21,-277.46 3561.22,-281.48 3555.21,-277.5 3561.2,-273.48 3567.21,-277.46"/>
<polygon fill="none" stroke="black" points="4139.41,-271.25 4145.41,-267.25 4151.41,-271.25 4145.41,-275.25 4139.41,-271.25"/>
</g>
<!-- c22&#45;&gt;c30 -->
<g id="edge76" class="edge">
<title>c22:e&#45;&gt;c30:w</title>
<path fill="none" stroke="black" stroke-width="3" d="M255.84,-444.75C300.15,-444.75 313.3,-433.8 352.5,-432"/>
<polygon fill="black" stroke="black" stroke-width="3" points="349.21,-435.57 359.13,-431.85 349.06,-428.57 349.21,-435.57"/>
</g>
<!-- x5 -->
<g id="node16" class="node">
<title>x5</title>
<path fill="none" stroke="black" d="M393.42,-202.5C393.42,-202.5 431.92,-202.5 431.92,-202.5 437.92,-202.5 443.92,-208.5 443.92,-214.5 443.92,-214.5 443.92,-226.5 443.92,-226.5 443.92,-232.5 437.92,-238.5 431.92,-238.5 431.92,-238.5 393.42,-238.5 393.42,-238.5 387.42,-238.5 381.42,-232.5 381.42,-226.5 381.42,-226.5 381.42,-214.5 381.42,-214.5 381.42,-208.5 387.42,-202.5 393.42,-202.5"/>
<text text-anchor="middle" x="412.67" y="-215.7" font-family="Times,serif" font-size="14.00">0:0 &#45; 0:0</text>
</g>
<!-- c23&#45;&gt;x5 -->
<g id="edge6" class="edge">
<title>c23:e&#45;&gt;x5:w</title>
<path fill="none" stroke="black" d="M284.94,-275.58C322.8,-268.25 329.73,-228.97 367.6,-221.67"/>
<polygon fill="none" stroke="black" points="284.94,-275.58 279.33,-280.1 272.99,-276.67 278.6,-272.14 284.94,-275.58"/>
<polygon fill="none" stroke="black" points="367.57,-221.67 373.18,-217.14 379.52,-220.58 373.91,-225.11 367.57,-221.67"/>
</g>
<!-- x5&#45;&gt;n14 -->
<g id="edge58" class="edge">
<title>x5:e&#45;&gt;n14:w</title>
<path fill="none" stroke="black" d="M444.92,-220.75C568.07,-220.75 596.35,-183.5 719.5,-183.5 719.5,-183.5 719.5,-183.5 852.84,-183.5 931.56,-183.5 950.68,-204.55 1020.18,-241.5 1033.71,-248.69 1035.9,-260.7 1045.16,-265.93"/>
<polygon fill="black" stroke="black" points="1044.18,-269.29 1054.71,-268.16 1045.77,-262.48 1044.18,-269.29"/>
</g>
<!-- n5 -->
<g id="node73" class="node">
<title>n5</title>
<ellipse fill="black" stroke="black" cx="1111.43" cy="-472.5" rx="1.8" ry="1.8"/>
</g>
<!-- c24&#45;&gt;n5 -->
<g id="edge80" class="edge">
<title>c24:e&#45;&gt;n5:w</title>
<path fill="none" stroke="black" stroke-width="3" d="M1020.18,-435.75C1058.42,-435.75 1064.78,-465.67 1096.79,-471.52"/>
<polygon fill="black" stroke="black" stroke-width="3" points="1093.37,-474.73 1103.63,-472.11 1093.97,-467.76 1093.37,-474.73"/>
</g>
<!-- x6&#45;&gt;c24 -->
<g id="edge7" class="edge">
<title>x6:e&#45;&gt;c24:w</title>
<path fill="none" stroke="black" stroke-width="3" d="M897.07,-447.54C903.56,-447.59 908.53,-447.66 915.02,-447.71"/>
<polygon fill="none" stroke="black" stroke-width="3" points="898.8,-447.55 892.78,-451.53 886.8,-447.51 892.81,-443.53 898.8,-447.55"/>
<polygon fill="none" stroke="black" stroke-width="3" points="913.23,-447.7 919.24,-443.72 925.23,-447.74 919.22,-451.72 913.23,-447.7"/>
</g>
<!-- c25 -->
<g id="node19" class="node">
<title>c25</title>
<polygon fill="none" stroke="black" points="1301.19,-436 1301.19,-485 1393.44,-485 1393.44,-436 1301.19,-436"/>
<text text-anchor="middle" x="1314.06" y="-467.7" font-family="Times,serif" font-size="14.00">A</text>
<polyline fill="none" stroke="black" points="1301.19,-460.5 1326.94,-460.5"/>
<text text-anchor="middle" x="1314.06" y="-443.2" font-family="Times,serif" font-size="14.00">B</text>
<polyline fill="none" stroke="black" points="1326.94,-436 1326.94,-485"/>
<text text-anchor="middle" x="1347.31" y="-463.7" font-family="Times,serif" font-size="14.00">$45</text>
<text text-anchor="middle" x="1347.31" y="-447.2" font-family="Times,serif" font-size="14.00">$xor</text>
<polyline fill="none" stroke="black" points="1367.69,-436 1367.69,-485"/>
<text text-anchor="middle" x="1380.56" y="-455.7" font-family="Times,serif" font-size="14.00">Y</text>
</g>
<!-- c25&#45;&gt;x0 -->
<g id="edge83" class="edge">
<title>c25:e&#45;&gt;x0:w</title>
<path fill="none" stroke="black" d="M1393.44,-460.75C1406.84,-460.75 1410.92,-469.7 1419.51,-474.32"/>
<polygon fill="black" stroke="black" points="1418.67,-477.71 1429.21,-476.65 1420.31,-470.91 1418.67,-477.71"/>
</g>
<!-- x7 -->
<g id="node20" class="node">
<title>x7</title>
<path fill="none" stroke="black" d="M1214.69,-454.5C1214.69,-454.5 1253.19,-454.5 1253.19,-454.5 1259.19,-454.5 1265.19,-460.5 1265.19,-466.5 1265.19,-466.5 1265.19,-478.5 1265.19,-478.5 1265.19,-484.5 1259.19,-490.5 1253.19,-490.5 1253.19,-490.5 1214.69,-490.5 1214.69,-490.5 1208.69,-490.5 1202.69,-484.5 1202.69,-478.5 1202.69,-478.5 1202.69,-466.5 1202.69,-466.5 1202.69,-460.5 1208.69,-454.5 1214.69,-454.5"/>
<text text-anchor="middle" x="1233.94" y="-467.7" font-family="Times,serif" font-size="14.00">0:0 &#45; 0:0</text>
</g>
<!-- x7&#45;&gt;c25 -->
<g id="edge8" class="edge">
<title>x7:e&#45;&gt;c25:w</title>
<path fill="none" stroke="black" d="M1277.91,-472.56C1281.5,-472.6 1284.64,-472.65 1288.21,-472.68"/>
<polygon fill="none" stroke="black" points="1278.09,-472.56 1272.07,-476.53 1266.09,-472.5 1272.11,-468.53 1278.09,-472.56"/>
<polygon fill="none" stroke="black" points="1288.28,-472.68 1294.3,-468.72 1300.28,-472.75 1294.26,-476.71 1288.28,-472.68"/>
</g>
<!-- x8&#45;&gt;c25 -->
<g id="edge9" class="edge">
<title>x8:e&#45;&gt;c25:w</title>
<path fill="none" stroke="black" d="M1276.98,-422.58C1282.17,-428.31 1284.25,-437.57 1289.48,-443.27"/>
<polygon fill="none" stroke="black" points="1277.04,-422.6 1269.94,-423.9 1266.01,-417.86 1273.11,-416.55 1277.04,-422.6"/>
<polygon fill="none" stroke="black" points="1289.31,-443.2 1296.4,-441.87 1300.36,-447.9 1293.27,-449.23 1289.31,-443.2"/>
</g>
<!-- c26 -->
<g id="node22" class="node">
<title>c26</title>
<polygon fill="none" stroke="black" points="1301.56,-347 1301.56,-388 1393.06,-388 1393.06,-347 1301.56,-347"/>
<text text-anchor="middle" x="1314.44" y="-362.7" font-family="Times,serif" font-size="14.00">A</text>
<polyline fill="none" stroke="black" points="1327.31,-347 1327.31,-388"/>
<text text-anchor="middle" x="1347.31" y="-370.7" font-family="Times,serif" font-size="14.00">$48</text>
<text text-anchor="middle" x="1347.31" y="-354.2" font-family="Times,serif" font-size="14.00">$not</text>
<polyline fill="none" stroke="black" points="1367.31,-347 1367.31,-388"/>
<text text-anchor="middle" x="1380.19" y="-362.7" font-family="Times,serif" font-size="14.00">Y</text>
</g>
<!-- c26&#45;&gt;x1 -->
<g id="edge84" class="edge">
<title>c26:e&#45;&gt;x1:w</title>
<path fill="none" stroke="black" d="M1393.44,-367.75C1404.81,-367.75 1410.12,-368 1417.99,-368.15"/>
<polygon fill="black" stroke="black" points="1417.89,-371.65 1427.92,-368.24 1417.95,-364.65 1417.89,-371.65"/>
</g>
<!-- x9&#45;&gt;c26 -->
<g id="edge10" class="edge">
<title>x9:e&#45;&gt;c26:w</title>
<path fill="none" stroke="black" d="M1277.95,-363.82C1281.64,-364.63 1284.81,-365.65 1288.51,-366.44"/>
<polygon fill="none" stroke="black" points="1278.02,-363.83 1271.64,-367.19 1266.08,-362.59 1272.46,-359.23 1278.02,-363.83"/>
<polygon fill="none" stroke="black" points="1288.35,-366.43 1294.73,-363.06 1300.29,-367.66 1293.91,-371.02 1288.35,-366.43"/>
</g>
<!-- c27 -->
<g id="node24" class="node">
<title>c27</title>
<polygon fill="none" stroke="black" points="2546.25,-354 2546.25,-403 2634,-403 2634,-354 2546.25,-354"/>
<text text-anchor="middle" x="2559.12" y="-385.7" font-family="Times,serif" font-size="14.00">A</text>
<polyline fill="none" stroke="black" points="2546.25,-378.5 2572,-378.5"/>
<text text-anchor="middle" x="2559.12" y="-361.2" font-family="Times,serif" font-size="14.00">B</text>
<polyline fill="none" stroke="black" points="2572,-354 2572,-403"/>
<text text-anchor="middle" x="2590.12" y="-381.7" font-family="Times,serif" font-size="14.00">$52</text>
<text text-anchor="middle" x="2590.12" y="-365.2" font-family="Times,serif" font-size="14.00">$or</text>
<polyline fill="none" stroke="black" points="2608.25,-354 2608.25,-403"/>
<text text-anchor="middle" x="2621.12" y="-373.7" font-family="Times,serif" font-size="14.00">Y</text>
</g>
<!-- x12 -->
<g id="node27" class="node">
<title>x12</title>
<path fill="none" stroke="black" d="M2736.9,-386.75C2736.9,-386.75 2775.4,-386.75 2775.4,-386.75 2781.4,-386.75 2787.4,-392.75 2787.4,-398.75 2787.4,-398.75 2787.4,-448.25 2787.4,-448.25 2787.4,-454.25 2781.4,-460.25 2775.4,-460.25 2775.4,-460.25 2736.9,-460.25 2736.9,-460.25 2730.9,-460.25 2724.9,-454.25 2724.9,-448.25 2724.9,-448.25 2724.9,-398.75 2724.9,-398.75 2724.9,-392.75 2730.9,-386.75 2736.9,-386.75"/>
<text text-anchor="middle" x="2756.15" y="-442.95" font-family="Times,serif" font-size="14.00">5:2 &#45; 5:2</text>
<polyline fill="none" stroke="black" points="2724.9,-435.75 2787.4,-435.75"/>
<text text-anchor="middle" x="2756.15" y="-418.45" font-family="Times,serif" font-size="14.00">1:1 &#45; 1:1</text>
<polyline fill="none" stroke="black" points="2724.9,-411.25 2787.4,-411.25"/>
<text text-anchor="middle" x="2756.15" y="-393.95" font-family="Times,serif" font-size="14.00">0:0 &#45; 0:0</text>
</g>
<!-- c27&#45;&gt;x12 -->
<g id="edge13" class="edge">
<title>c27:e&#45;&gt;x12:w</title>
<path fill="none" stroke="black" stroke-width="3" d="M2646.76,-380.14C2675.45,-386.81 2682.49,-415.5 2711.22,-422.13"/>
<polygon fill="none" stroke="black" stroke-width="3" points="2648.62,-380.34 2642.22,-383.67 2636.69,-379.04 2643.09,-375.72 2648.62,-380.34"/>
<polygon fill="none" stroke="black" stroke-width="3" points="2709.29,-421.92 2715.68,-418.59 2721.22,-423.21 2714.82,-426.54 2709.29,-421.92"/>
</g>
<!-- x10 -->
<g id="node25" class="node">
<title>x10</title>
<path fill="none" stroke="black" d="M2459.75,-372.5C2459.75,-372.5 2498.25,-372.5 2498.25,-372.5 2504.25,-372.5 2510.25,-378.5 2510.25,-384.5 2510.25,-384.5 2510.25,-396.5 2510.25,-396.5 2510.25,-402.5 2504.25,-408.5 2498.25,-408.5 2498.25,-408.5 2459.75,-408.5 2459.75,-408.5 2453.75,-408.5 2447.75,-402.5 2447.75,-396.5 2447.75,-396.5 2447.75,-384.5 2447.75,-384.5 2447.75,-378.5 2453.75,-372.5 2459.75,-372.5"/>
<text text-anchor="middle" x="2479" y="-385.7" font-family="Times,serif" font-size="14.00">5:0 &#45; 5:0</text>
</g>
<!-- x10&#45;&gt;c27 -->
<g id="edge11" class="edge">
<title>x10:e&#45;&gt;c27:w</title>
<path fill="none" stroke="black" stroke-width="3" d="M2522.97,-390.56C2526.57,-390.6 2529.7,-390.65 2533.28,-390.68"/>
<polygon fill="none" stroke="black" stroke-width="3" points="2524.95,-390.57 2518.93,-394.54 2512.95,-390.51 2518.97,-386.54 2524.95,-390.57"/>
<polygon fill="none" stroke="black" stroke-width="3" points="2531.55,-390.68 2537.57,-386.71 2543.55,-390.74 2537.53,-394.71 2531.55,-390.68"/>
</g>
<!-- x11&#45;&gt;c27 -->
<g id="edge12" class="edge">
<title>x11:e&#45;&gt;c27:w</title>
<path fill="none" stroke="black" stroke-width="3" d="M2032.59,-324.5C2131.18,-324.5 2160.6,-324.5 2265.37,-324.5 2265.37,-324.5 2265.37,-324.5 2381.5,-324.5 2452.61,-324.5 2468.9,-361.5 2533.58,-365.84"/>
<polygon fill="none" stroke="black" stroke-width="3" points="2034.25,-324.5 2028.25,-328.5 2022.25,-324.5 2028.25,-320.5 2034.25,-324.5"/>
<polygon fill="none" stroke="black" stroke-width="3" points="2531.55,-365.77 2537.68,-361.97 2543.55,-366.16 2537.42,-369.96 2531.55,-365.77"/>
</g>
<!-- x12&#45;&gt;n11 -->
<g id="edge42" class="edge">
<title>x12:e&#45;&gt;n11:w</title>
<path fill="none" stroke="black" d="M2788.4,-423.5C2804.97,-423.5 2799.27,-449.2 2787.4,-460.75 2767.5,-480.13 2752.68,-460.96 2724.9,-460.75 2629.49,-460.03 2605.66,-458.22 2510.25,-457.5 2482.47,-457.29 2475.52,-456.87 2447.75,-457.5 2280.4,-461.28 2238.85,-470.72 2071.5,-474.5 1995.74,-476.21 1956.05,-526.58 1901,-474.5 1899,-472.61 1897.31,-469.89 1896.27,-467.14"/>
<polygon fill="black" stroke="black" points="1899.5,-468.52 1899.5,-457.93 1892.89,-466.21 1899.5,-468.52"/>
</g>
<!-- n8 -->
<g id="node74" class="node">
<title>n8</title>
<ellipse fill="black" stroke="black" cx="2916.31" cy="-480.5" rx="1.8" ry="1.8"/>
</g>
<!-- x12&#45;&gt;n8 -->
<g id="edge85" class="edge">
<title>x12:e&#45;&gt;n8:w</title>
<path fill="none" stroke="black" d="M2788.4,-399C2850.58,-399 2847.51,-470.93 2901.79,-479.64"/>
<polygon fill="black" stroke="black" points="2901.28,-483.11 2911.52,-480.38 2901.82,-476.13 2901.28,-483.11"/>
</g>
<!-- x12&#45;&gt;n8 -->
<g id="edge86" class="edge">
<title>x12:e&#45;&gt;n8:w</title>
<path fill="none" stroke="black" stroke-width="3" d="M2788.4,-448C2841.62,-448 2854.13,-476.09 2901.62,-480.04"/>
<polygon fill="black" stroke="black" stroke-width="3" points="2898.36,-483.41 2908.49,-480.32 2898.64,-476.42 2898.36,-483.41"/>
</g>
<!-- c28 -->
<g id="node28" class="node">
<title>c28</title>
<polygon fill="none" stroke="black" points="2219.5,-162 2219.5,-211 2313.25,-211 2313.25,-162 2219.5,-162"/>
<text text-anchor="middle" x="2232.37" y="-193.7" font-family="Times,serif" font-size="14.00">A</text>
<polyline fill="none" stroke="black" points="2219.5,-186.5 2245.25,-186.5"/>
<text text-anchor="middle" x="2232.37" y="-169.2" font-family="Times,serif" font-size="14.00">B</text>
<polyline fill="none" stroke="black" points="2245.25,-162 2245.25,-211"/>
<text text-anchor="middle" x="2266.37" y="-189.7" font-family="Times,serif" font-size="14.00">$58</text>
<text text-anchor="middle" x="2266.37" y="-173.2" font-family="Times,serif" font-size="14.00">$and</text>
<polyline fill="none" stroke="black" points="2287.5,-162 2287.5,-211"/>
<text text-anchor="middle" x="2300.37" y="-181.7" font-family="Times,serif" font-size="14.00">Y</text>
</g>
<!-- x15 -->
<g id="node31" class="node">
<title>x15</title>
<path fill="none" stroke="black" d="M2361.25,-166.5C2361.25,-166.5 2399.75,-166.5 2399.75,-166.5 2405.75,-166.5 2411.75,-172.5 2411.75,-178.5 2411.75,-178.5 2411.75,-190.5 2411.75,-190.5 2411.75,-196.5 2405.75,-202.5 2399.75,-202.5 2399.75,-202.5 2361.25,-202.5 2361.25,-202.5 2355.25,-202.5 2349.25,-196.5 2349.25,-190.5 2349.25,-190.5 2349.25,-178.5 2349.25,-178.5 2349.25,-172.5 2355.25,-166.5 2361.25,-166.5"/>
<text text-anchor="middle" x="2380.5" y="-179.7" font-family="Times,serif" font-size="14.00">0:0 &#45; 0:0</text>
</g>
<!-- c28&#45;&gt;x15 -->
<g id="edge16" class="edge">
<title>c28:e&#45;&gt;x15:w</title>
<path fill="none" stroke="black" d="M2325.98,-186.18C2329.57,-185.85 2332.7,-185.43 2336.27,-185.09"/>
<polygon fill="none" stroke="black" points="2326.14,-186.18 2320.32,-190.44 2314.15,-186.71 2319.97,-182.45 2326.14,-186.18"/>
<polygon fill="none" stroke="black" points="2336.36,-185.09 2342.17,-180.82 2348.35,-184.54 2342.54,-188.81 2336.36,-185.09"/>
</g>
<!-- x13&#45;&gt;c28 -->
<g id="edge14" class="edge">
<title>x13:e&#45;&gt;c28:w</title>
<path fill="none" stroke="black" d="M2190.47,-193.65C2196.37,-194.77 2200.91,-196.49 2206.81,-197.61"/>
<polygon fill="none" stroke="black" points="2190.6,-193.66 2184.26,-197.1 2178.65,-192.58 2184.98,-189.14 2190.6,-193.66"/>
<polygon fill="none" stroke="black" points="2206.65,-197.6 2212.98,-194.15 2218.6,-198.67 2212.27,-202.12 2206.65,-197.6"/>
</g>
<!-- x14&#45;&gt;c28 -->
<g id="edge15" class="edge">
<title>x14:e&#45;&gt;c28:w</title>
<path fill="none" stroke="black" d="M1392.58,-168.4C1496.28,-166.74 1526.05,-145.5 1636.01,-145.5 1636.01,-145.5 1636.01,-145.5 1988.3,-145.5 2075.51,-145.5 2097.55,-150.72 2183.5,-165.5 2194.4,-167.37 2199.47,-170.68 2206.62,-172.65"/>
<polygon fill="none" stroke="black" points="1392.46,-168.4 1386.49,-172.45 1380.46,-168.49 1386.43,-164.45 1392.46,-168.4"/>
<polygon fill="none" stroke="black" points="2206.7,-172.66 2213.14,-169.43 2218.61,-174.14 2212.16,-177.37 2206.7,-172.66"/>
</g>
<!-- n4 -->
<g id="node72" class="node">
<title>n4</title>
<ellipse fill="black" stroke="black" cx="2479" cy="-127.5" rx="1.8" ry="1.8"/>
</g>
<!-- x15&#45;&gt;n4 -->
<g id="edge77" class="edge">
<title>x15:e&#45;&gt;n4:w</title>
<path fill="none" stroke="black" d="M2411.75,-184.75C2445.58,-184.75 2439.71,-139.74 2464.55,-129.54"/>
<polygon fill="black" stroke="black" points="2465.02,-133.01 2474.23,-127.77 2463.77,-126.12 2465.02,-133.01"/>
</g>
<!-- c29 -->
<g id="node32" class="node">
<title>c29</title>
<polygon fill="none" stroke="black" points="3136.81,-492 3136.81,-533 3228.31,-533 3228.31,-492 3136.81,-492"/>
<text text-anchor="middle" x="3149.68" y="-507.7" font-family="Times,serif" font-size="14.00">A</text>
<polyline fill="none" stroke="black" points="3162.56,-492 3162.56,-533"/>
<text text-anchor="middle" x="3182.56" y="-515.7" font-family="Times,serif" font-size="14.00">$25</text>
<text text-anchor="middle" x="3182.56" y="-499.2" font-family="Times,serif" font-size="14.00">$not</text>
<polyline fill="none" stroke="black" points="3202.56,-492 3202.56,-533"/>
<text text-anchor="middle" x="3215.43" y="-507.7" font-family="Times,serif" font-size="14.00">Y</text>
</g>
<!-- x17 -->
<g id="node34" class="node">
<title>x17</title>
<path fill="none" stroke="black" d="M3291.56,-557C3291.56,-557 3330.06,-557 3330.06,-557 3336.06,-557 3342.06,-563 3342.06,-569 3342.06,-569 3342.06,-594 3342.06,-594 3342.06,-600 3336.06,-606 3330.06,-606 3330.06,-606 3291.56,-606 3291.56,-606 3285.56,-606 3279.56,-600 3279.56,-594 3279.56,-594 3279.56,-569 3279.56,-569 3279.56,-563 3285.56,-557 3291.56,-557"/>
<text text-anchor="middle" x="3310.81" y="-588.7" font-family="Times,serif" font-size="14.00">8:1 &#45; 9:2</text>
<polyline fill="none" stroke="black" points="3279.56,-581.5 3342.06,-581.5"/>
<text text-anchor="middle" x="3310.81" y="-564.2" font-family="Times,serif" font-size="14.00">0:0 &#45; 0:0</text>
</g>
<!-- c29&#45;&gt;x17 -->
<g id="edge18" class="edge">
<title>c29:e&#45;&gt;x17:w</title>
<path fill="none" stroke="black" stroke-width="3" d="M3240.61,-516.25C3257.29,-528.07 3249.58,-566.4 3266.39,-578.08"/>
<polygon fill="none" stroke="black" stroke-width="3" points="3242.45,-516.78 3235.58,-518.98 3230.91,-513.49 3237.78,-511.29 3242.45,-516.78"/>
<polygon fill="none" stroke="black" stroke-width="3" points="3264.4,-577.53 3271.26,-575.3 3275.96,-580.77 3269.1,-583 3264.4,-577.53"/>
</g>
<!-- x16 -->
<g id="node33" class="node">
<title>x16</title>
<path fill="none" stroke="black" d="M3026.31,-467.75C3026.31,-467.75 3064.81,-467.75 3064.81,-467.75 3070.81,-467.75 3076.81,-473.75 3076.81,-479.75 3076.81,-479.75 3076.81,-529.25 3076.81,-529.25 3076.81,-535.25 3070.81,-541.25 3064.81,-541.25 3064.81,-541.25 3026.31,-541.25 3026.31,-541.25 3020.31,-541.25 3014.31,-535.25 3014.31,-529.25 3014.31,-529.25 3014.31,-479.75 3014.31,-479.75 3014.31,-473.75 3020.31,-467.75 3026.31,-467.75"/>
<text text-anchor="middle" x="3045.56" y="-523.95" font-family="Times,serif" font-size="14.00">9:6 &#45; 8:5</text>
<polyline fill="none" stroke="black" points="3014.31,-516.75 3076.81,-516.75"/>
<text text-anchor="middle" x="3045.56" y="-499.45" font-family="Times,serif" font-size="14.00">5:2 &#45; 4:1</text>
<polyline fill="none" stroke="black" points="3014.31,-492.25 3076.81,-492.25"/>
<text text-anchor="middle" x="3045.56" y="-474.95" font-family="Times,serif" font-size="14.00">0:0 &#45; 0:0</text>
</g>
<!-- x16&#45;&gt;c29 -->
<g id="edge17" class="edge">
<title>x16:e&#45;&gt;c29:w</title>
<path fill="none" stroke="black" stroke-width="3" d="M3090.82,-505.26C3103.54,-506.84 3111.23,-510.46 3124.01,-512.01"/>
<polygon fill="none" stroke="black" stroke-width="3" points="3092.49,-505.36 3086.26,-509 3080.51,-504.66 3086.73,-501.02 3092.49,-505.36"/>
<polygon fill="none" stroke="black" stroke-width="3" points="3122.13,-511.91 3128.35,-508.26 3134.11,-512.59 3127.89,-516.24 3122.13,-511.91"/>
</g>
<!-- x17&#45;&gt;n11 -->
<g id="edge43" class="edge">
<title>x17:e&#45;&gt;n11:w</title>
<path fill="none" stroke="black" d="M3343.06,-569.25C3348.74,-569.25 3346.23,-560.36 3342.06,-556.5 3321.66,-537.64 3307.33,-555.73 3279.56,-556.5 3175.88,-559.39 3150.28,-569.5 3046.56,-569.5 2265.37,-569.5 2265.37,-569.5 2265.37,-569.5 2098.02,-569.5 2006.03,-604.79 1901,-474.5 1899.43,-472.55 1897.96,-470.06 1896.92,-467.56"/>
<polygon fill="black" stroke="black" points="1900.29,-468.53 1899.59,-457.96 1893.54,-466.66 1900.29,-468.53"/>
</g>
<!-- x17&#45;&gt;n11 -->
<g id="edge44" class="edge">
<title>x17:e&#45;&gt;n11:w</title>
<path fill="none" stroke="black" stroke-width="3" d="M3343.06,-593.75C3348.74,-593.75 3346.23,-602.63 3342.06,-606.5 3293.92,-651.16 3112.23,-607.5 3046.56,-607.5 2265.37,-607.5 2265.37,-607.5 2265.37,-607.5 2194.59,-607.5 2174.81,-608.4 2107.5,-586.5 2008.22,-554.19 1956.87,-562.7 1901,-474.5 1899.72,-472.49 1898.41,-470.09 1897.41,-467.7"/>
<polygon fill="black" stroke="black" stroke-width="3" points="1900.13,-471.46 1898.97,-460.92 1893.31,-469.88 1900.13,-471.46"/>
</g>
<!-- x18 -->
<g id="node36" class="node">
<title>x18</title>
<path fill="none" stroke="black" d="M572,-402.5C572,-402.5 610.5,-402.5 610.5,-402.5 616.5,-402.5 622.5,-408.5 622.5,-414.5 622.5,-414.5 622.5,-426.5 622.5,-426.5 622.5,-432.5 616.5,-438.5 610.5,-438.5 610.5,-438.5 572,-438.5 572,-438.5 566,-438.5 560,-432.5 560,-426.5 560,-426.5 560,-414.5 560,-414.5 560,-408.5 566,-402.5 572,-402.5"/>
<text text-anchor="middle" x="591.25" y="-415.7" font-family="Times,serif" font-size="14.00">5:0 &#45; 5:0</text>
</g>
<!-- c30&#45;&gt;x18 -->
<g id="edge19" class="edge">
<title>c30:e&#45;&gt;x18:w</title>
<path fill="none" stroke="black" stroke-width="3" d="M474.35,-419.77C503.55,-419.88 516.92,-420.36 546,-420.48"/>
<polygon fill="none" stroke="black" stroke-width="3" points="476.37,-419.78 470.37,-423.77 464.37,-419.75 470.38,-415.77 476.37,-419.78"/>
<polygon fill="none" stroke="black" stroke-width="3" points="544.3,-420.47 550.3,-416.48 556.3,-420.49 550.29,-424.48 544.3,-420.47"/>
</g>
<!-- x18&#45;&gt;n15 -->
<g id="edge64" class="edge">
<title>x18:e&#45;&gt;n15:w</title>
<path fill="none" stroke="black" stroke-width="3" d="M623.5,-420.75C641.06,-420.75 643.15,-437.74 654.43,-444.64"/>
<polygon fill="black" stroke="black" stroke-width="3" points="650.3,-447.16 660.86,-446.34 652.09,-440.4 650.3,-447.16"/>
</g>
<!-- c31 -->
<g id="node37" class="node">
<title>c31</title>
<polygon fill="none" stroke="black" points="3719.56,-300 3719.56,-349 3807.31,-349 3807.31,-300 3719.56,-300"/>
<text text-anchor="middle" x="3732.43" y="-331.7" font-family="Times,serif" font-size="14.00">A</text>
<polyline fill="none" stroke="black" points="3719.56,-324.5 3745.31,-324.5"/>
<text text-anchor="middle" x="3732.43" y="-307.2" font-family="Times,serif" font-size="14.00">B</text>
<polyline fill="none" stroke="black" points="3745.31,-300 3745.31,-349"/>
<text text-anchor="middle" x="3763.43" y="-327.7" font-family="Times,serif" font-size="14.00">$22</text>
<text text-anchor="middle" x="3763.43" y="-311.2" font-family="Times,serif" font-size="14.00">$or</text>
<polyline fill="none" stroke="black" points="3781.56,-300 3781.56,-349"/>
<text text-anchor="middle" x="3794.43" y="-319.7" font-family="Times,serif" font-size="14.00">Y</text>
</g>
<!-- x21 -->
<g id="node40" class="node">
<title>x21</title>
<path fill="none" stroke="black" d="M3862.06,-306.5C3862.06,-306.5 3900.56,-306.5 3900.56,-306.5 3906.56,-306.5 3912.56,-312.5 3912.56,-318.5 3912.56,-318.5 3912.56,-330.5 3912.56,-330.5 3912.56,-336.5 3906.56,-342.5 3900.56,-342.5 3900.56,-342.5 3862.06,-342.5 3862.06,-342.5 3856.06,-342.5 3850.06,-336.5 3850.06,-330.5 3850.06,-330.5 3850.06,-318.5 3850.06,-318.5 3850.06,-312.5 3856.06,-306.5 3862.06,-306.5"/>
<text text-anchor="middle" x="3881.31" y="-319.7" font-family="Times,serif" font-size="14.00">5:0 &#45; 5:0</text>
</g>
<!-- c31&#45;&gt;x21 -->
<g id="edge22" class="edge">
<title>c31:e&#45;&gt;x21:w</title>
<path fill="none" stroke="black" stroke-width="3" d="M3820.28,-324.7C3825.95,-324.66 3830.44,-324.59 3836.11,-324.55"/>
<polygon fill="none" stroke="black" stroke-width="3" points="3822.01,-324.7 3816.03,-328.72 3810.01,-324.74 3816,-320.72 3822.01,-324.7"/>
<polygon fill="none" stroke="black" stroke-width="3" points="3834.36,-324.55 3840.34,-320.53 3846.36,-324.51 3840.37,-328.53 3834.36,-324.55"/>
</g>
<!-- x19 -->
<g id="node38" class="node">
<title>x19</title>
<path fill="none" stroke="black" d="M3617.68,-309.5C3617.68,-309.5 3656.18,-309.5 3656.18,-309.5 3662.18,-309.5 3668.18,-315.5 3668.18,-321.5 3668.18,-321.5 3668.18,-333.5 3668.18,-333.5 3668.18,-339.5 3662.18,-345.5 3656.18,-345.5 3656.18,-345.5 3617.68,-345.5 3617.68,-345.5 3611.68,-345.5 3605.68,-339.5 3605.68,-333.5 3605.68,-333.5 3605.68,-321.5 3605.68,-321.5 3605.68,-315.5 3611.68,-309.5 3617.68,-309.5"/>
<text text-anchor="middle" x="3636.93" y="-322.7" font-family="Times,serif" font-size="14.00">5:0 &#45; 5:0</text>
</g>
<!-- x19&#45;&gt;c31 -->
<g id="edge20" class="edge">
<title>x19:e&#45;&gt;c31:w</title>
<path fill="none" stroke="black" stroke-width="3" d="M3681.93,-328.63C3691.27,-330.41 3697.44,-333.83 3706.77,-335.61"/>
<polygon fill="none" stroke="black" stroke-width="3" points="3683.83,-328.8 3677.5,-332.26 3671.88,-327.74 3678.21,-324.29 3683.83,-328.8"/>
<polygon fill="none" stroke="black" stroke-width="3" points="3704.91,-335.44 3711.25,-331.99 3716.87,-336.51 3710.53,-339.96 3704.91,-335.44"/>
</g>
<!-- x20&#45;&gt;c31 -->
<g id="edge21" class="edge">
<title>x20:e&#45;&gt;c31:w</title>
<path fill="none" stroke="black" stroke-width="3" d="M3468.5,-558.18C3591.37,-551.71 3592.35,-449.85 3683.56,-355.5 3697.14,-341.45 3696.21,-322.96 3707.08,-315.54"/>
<polygon fill="none" stroke="black" stroke-width="3" points="3470.51,-558.12 3464.61,-562.28 3458.51,-558.43 3464.41,-554.28 3470.51,-558.12"/>
<polygon fill="none" stroke="black" stroke-width="3" points="3705.34,-315.99 3710.12,-310.6 3716.94,-312.94 3712.16,-318.33 3705.34,-315.99"/>
</g>
<!-- n9 -->
<g id="node75" class="node">
<title>n9</title>
<ellipse fill="black" stroke="black" cx="3986.56" cy="-324.5" rx="1.8" ry="1.8"/>
</g>
<!-- x21&#45;&gt;n9 -->
<g id="edge90" class="edge">
<title>x21:e&#45;&gt;n9:w</title>
<path fill="none" stroke="black" stroke-width="3" d="M3913.56,-324.75C3940.43,-324.75 3949.83,-324.56 3972.06,-324.51"/>
<polygon fill="black" stroke="black" stroke-width="3" points="3968.74,-328.02 3978.74,-324.5 3968.74,-321.02 3968.74,-328.02"/>
</g>
<!-- c32 -->
<g id="node41" class="node">
<title>c32</title>
<polygon fill="none" stroke="black" points="3264.31,-200 3264.31,-249 3357.31,-249 3357.31,-200 3264.31,-200"/>
<text text-anchor="middle" x="3277.18" y="-231.7" font-family="Times,serif" font-size="14.00">A</text>
<polyline fill="none" stroke="black" points="3264.31,-224.5 3290.06,-224.5"/>
<text text-anchor="middle" x="3277.18" y="-207.2" font-family="Times,serif" font-size="14.00">B</text>
<polyline fill="none" stroke="black" points="3290.06,-200 3290.06,-249"/>
<text text-anchor="middle" x="3310.81" y="-227.7" font-family="Times,serif" font-size="14.00">$21</text>
<text text-anchor="middle" x="3310.81" y="-211.2" font-family="Times,serif" font-size="14.00">$sub</text>
<polyline fill="none" stroke="black" points="3331.56,-200 3331.56,-249"/>
<text text-anchor="middle" x="3344.43" y="-219.7" font-family="Times,serif" font-size="14.00">Y</text>
</g>
<!-- x24 -->
<g id="node44" class="node">
<title>x24</title>
<path fill="none" stroke="black" d="M3405.31,-209.5C3405.31,-209.5 3443.81,-209.5 3443.81,-209.5 3449.81,-209.5 3455.81,-215.5 3455.81,-221.5 3455.81,-221.5 3455.81,-233.5 3455.81,-233.5 3455.81,-239.5 3449.81,-245.5 3443.81,-245.5 3443.81,-245.5 3405.31,-245.5 3405.31,-245.5 3399.31,-245.5 3393.31,-239.5 3393.31,-233.5 3393.31,-233.5 3393.31,-221.5 3393.31,-221.5 3393.31,-215.5 3399.31,-209.5 3405.31,-209.5"/>
<text text-anchor="middle" x="3424.56" y="-222.7" font-family="Times,serif" font-size="14.00">5:0 &#45; 5:0</text>
</g>
<!-- c32&#45;&gt;x24 -->
<g id="edge25" class="edge">
<title>c32:e&#45;&gt;x24:w</title>
<path fill="none" stroke="black" stroke-width="3" d="M3370.04,-225.44C3373.63,-225.85 3376.76,-226.37 3380.33,-226.78"/>
<polygon fill="none" stroke="black" stroke-width="3" points="3371.99,-225.55 3365.78,-229.22 3360.01,-224.9 3366.22,-221.23 3371.99,-225.55"/>
<polygon fill="none" stroke="black" stroke-width="3" points="3378.63,-226.68 3384.84,-223.02 3390.61,-227.35 3384.4,-231.01 3378.63,-226.68"/>
</g>
<!-- x22&#45;&gt;c32 -->
<g id="edge23" class="edge">
<title>x22:e&#45;&gt;c32:w</title>
<path fill="none" stroke="black" d="M1508.06,-230.52C1642.49,-231.04 1680.72,-239.5 1821.34,-239.5 1821.34,-239.5 1821.34,-239.5 3046.56,-239.5 3138.9,-239.5 3165.15,-237 3251.43,-236.77"/>
<polygon fill="none" stroke="black" points="1508.09,-230.52 1502.08,-234.51 1496.09,-230.5 1502.09,-226.51 1508.09,-230.52"/>
<polygon fill="none" stroke="black" points="3251.41,-236.77 3257.4,-232.76 3263.41,-236.75 3257.41,-240.76 3251.41,-236.77"/>
</g>
<!-- x23&#45;&gt;c32 -->
<g id="edge24" class="edge">
<title>x23:e&#45;&gt;c32:w</title>
<path fill="none" stroke="black" stroke-width="3" d="M3227.42,-193C3236.99,-197.19 3242.17,-205.61 3251.76,-209.78"/>
<polygon fill="none" stroke="black" stroke-width="3" points="3229.23,-193.35 3222.57,-196.11 3217.46,-191.02 3224.12,-188.26 3229.23,-193.35"/>
<polygon fill="none" stroke="black" stroke-width="3" points="3249.88,-209.41 3256.54,-206.65 3261.66,-211.73 3255,-214.5 3249.88,-209.41"/>
</g>
<!-- n10 -->
<g id="node71" class="node">
<title>n10</title>
<ellipse fill="black" stroke="black" cx="3523.06" cy="-230.5" rx="1.8" ry="1.8"/>
</g>
<!-- x24&#45;&gt;n10 -->
<g id="edge38" class="edge">
<title>x24:e&#45;&gt;n10:w</title>
<path fill="none" stroke="black" stroke-width="3" d="M3455.81,-227.75C3480.04,-227.75 3488.76,-229.74 3508.38,-230.34"/>
<polygon fill="black" stroke="black" stroke-width="3" points="3505.19,-233.79 3515.24,-230.43 3505.29,-226.79 3505.19,-233.79"/>
</g>
<!-- c34 -->
<g id="node45" class="node">
<title>c34</title>
<polygon fill="none" stroke="black" points="2706.65,-78.75 2706.65,-152.25 2805.65,-152.25 2805.65,-78.75 2706.65,-78.75"/>
<text text-anchor="middle" x="2719.53" y="-134.95" font-family="Times,serif" font-size="14.00">A</text>
<polyline fill="none" stroke="black" points="2706.65,-127.75 2732.4,-127.75"/>
<text text-anchor="middle" x="2719.53" y="-110.45" font-family="Times,serif" font-size="14.00">B</text>
<polyline fill="none" stroke="black" points="2706.65,-103.25 2732.4,-103.25"/>
<text text-anchor="middle" x="2719.53" y="-85.95" font-family="Times,serif" font-size="14.00">S</text>
<polyline fill="none" stroke="black" points="2732.4,-78.75 2732.4,-152.25"/>
<text text-anchor="middle" x="2756.15" y="-118.7" font-family="Times,serif" font-size="14.00">$20</text>
<text text-anchor="middle" x="2756.15" y="-102.2" font-family="Times,serif" font-size="14.00">$mux</text>
<polyline fill="none" stroke="black" points="2779.9,-78.75 2779.9,-152.25"/>
<text text-anchor="middle" x="2792.78" y="-110.45" font-family="Times,serif" font-size="14.00">Y</text>
</g>
<!-- x28 -->
<g id="node49" class="node">
<title>x28</title>
<path fill="none" stroke="black" d="M2897.06,-98.5C2897.06,-98.5 2935.56,-98.5 2935.56,-98.5 2941.56,-98.5 2947.56,-104.5 2947.56,-110.5 2947.56,-110.5 2947.56,-122.5 2947.56,-122.5 2947.56,-128.5 2941.56,-134.5 2935.56,-134.5 2935.56,-134.5 2897.06,-134.5 2897.06,-134.5 2891.06,-134.5 2885.06,-128.5 2885.06,-122.5 2885.06,-122.5 2885.06,-110.5 2885.06,-110.5 2885.06,-104.5 2891.06,-98.5 2897.06,-98.5"/>
<text text-anchor="middle" x="2916.31" y="-111.7" font-family="Times,serif" font-size="14.00">5:0 &#45; 5:0</text>
</g>
<!-- c34&#45;&gt;x28 -->
<g id="edge29" class="edge">
<title>c34:e&#45;&gt;x28:w</title>
<path fill="none" stroke="black" stroke-width="3" d="M2819.45,-115.55C2839.98,-115.72 2850.65,-116.28 2871.13,-116.45"/>
<polygon fill="none" stroke="black" stroke-width="3" points="2821.36,-115.56 2815.34,-119.53 2809.36,-115.51 2815.37,-111.53 2821.36,-115.56"/>
<polygon fill="none" stroke="black" stroke-width="3" points="2869.35,-116.44 2875.37,-112.46 2881.35,-116.49 2875.34,-120.46 2869.35,-116.44"/>
</g>
<!-- x25 -->
<g id="node46" class="node">
<title>x25</title>
<path fill="none" stroke="black" d="M2570.87,-115C2570.87,-115 2609.37,-115 2609.37,-115 2615.37,-115 2621.37,-121 2621.37,-127 2621.37,-127 2621.37,-152 2621.37,-152 2621.37,-158 2615.37,-164 2609.37,-164 2609.37,-164 2570.87,-164 2570.87,-164 2564.87,-164 2558.87,-158 2558.87,-152 2558.87,-152 2558.87,-127 2558.87,-127 2558.87,-121 2564.87,-115 2570.87,-115"/>
<text text-anchor="middle" x="2590.12" y="-146.7" font-family="Times,serif" font-size="14.00">0 &#45;&gt; 5:1</text>
<polyline fill="none" stroke="black" points="2558.87,-139.5 2621.37,-139.5"/>
<text text-anchor="middle" x="2590.12" y="-122.2" font-family="Times,serif" font-size="14.00">0:0 &#45; 0:0</text>
</g>
<!-- x25&#45;&gt;c34 -->
<g id="edge26" class="edge">
<title>x25:e&#45;&gt;c34:w</title>
<path fill="none" stroke="black" stroke-width="3" d="M2635.42,-139.52C2658.36,-139.61 2669.85,-139.9 2692.88,-139.98"/>
<polygon fill="none" stroke="black" stroke-width="3" points="2637.08,-139.53 2631.07,-143.52 2625.08,-139.5 2631.09,-135.52 2637.08,-139.53"/>
<polygon fill="none" stroke="black" stroke-width="3" points="2690.95,-139.97 2696.96,-135.99 2702.95,-140 2696.94,-143.99 2690.95,-139.97"/>
</g>
<!-- x26&#45;&gt;c34 -->
<g id="edge27" class="edge">
<title>x26:e&#45;&gt;c34:w</title>
<path fill="none" stroke="black" stroke-width="3" d="M1156.59,-151.04C1240.52,-144.91 1255.22,-79.5 1346.31,-79.5 1346.31,-79.5 1346.31,-79.5 2480,-79.5 2502.66,-79.5 2644.42,-108.18 2692.67,-114.34"/>
<polygon fill="none" stroke="black" stroke-width="3" points="1158.38,-150.98 1152.53,-155.19 1146.39,-151.4 1152.24,-147.19 1158.38,-150.98"/>
<polygon fill="none" stroke="black" stroke-width="3" points="2691.01,-114.2 2697.34,-110.74 2702.96,-115.26 2696.63,-118.71 2691.01,-114.2"/>
</g>
<!-- x27&#45;&gt;c34 -->
<g id="edge28" class="edge">
<title>x27:e&#45;&gt;c34:w</title>
<path fill="none" stroke="black" d="M765.78,-89.22C854.91,-85.28 877.35,-41.5 973.06,-41.5 973.06,-41.5 973.06,-41.5 2480,-41.5 2578.26,-41.5 2601.08,-86.84 2692.86,-90.73"/>
<polygon fill="none" stroke="black" points="765.65,-89.22 759.74,-93.35 753.65,-89.48 759.56,-85.35 765.65,-89.22"/>
<polygon fill="none" stroke="black" points="2692.76,-90.73 2698.84,-86.86 2704.75,-90.98 2698.67,-94.86 2692.76,-90.73"/>
</g>
<!-- x28&#45;&gt;n16 -->
<g id="edge71" class="edge">
<title>x28:e&#45;&gt;n16:w</title>
<path fill="none" stroke="black" stroke-width="3" d="M2948.56,-116.75C2963.78,-116.75 2968.66,-125.57 2979.19,-129.57"/>
<polygon fill="black" stroke="black" stroke-width="3" points="2975.38,-132.46 2985.83,-130.72 2976.58,-125.57 2975.38,-132.46"/>
</g>
<!-- c35&#45;&gt;n13 -->
<g id="edge56" class="edge">
<title>c35:e&#45;&gt;n13:w</title>
<path fill="none" stroke="black" stroke-width="3" d="M4374.31,-253.75C4385.68,-253.75 4390.99,-253.62 4398.86,-253.55"/>
<polygon fill="black" stroke="black" stroke-width="3" points="4395.78,-257.06 4405.77,-253.52 4395.75,-250.06 4395.78,-257.06"/>
</g>
<!-- x29&#45;&gt;c35 -->
<g id="edge30" class="edge">
<title>x29:e&#45;&gt;c35:w</title>
<path fill="none" stroke="black" stroke-width="3" d="M4030.81,-182.74C4135.85,-186.63 4164.1,-237.17 4269.2,-241.02"/>
<polygon fill="none" stroke="black" stroke-width="3" points="4032.51,-182.77 4026.44,-186.66 4020.51,-182.55 4026.58,-178.66 4032.51,-182.77"/>
<polygon fill="none" stroke="black" stroke-width="3" points="4267.36,-240.99 4273.43,-237.09 4279.36,-241.2 4273.28,-245.09 4267.36,-240.99"/>
</g>
<!-- v30 -->
<g id="node52" class="node">
<title>v30</title>
<ellipse fill="none" stroke="black" cx="2266.37" cy="-125.5" rx="40.09" ry="18"/>
<text text-anchor="middle" x="2266.37" y="-120.45" font-family="Times,serif" font-size="14.00">5&#39;00000</text>
</g>
<!-- x31 -->
<g id="node53" class="node">
<title>x31</title>
<path fill="none" stroke="black" d="M2361.25,-109.5C2361.25,-109.5 2399.75,-109.5 2399.75,-109.5 2405.75,-109.5 2411.75,-115.5 2411.75,-121.5 2411.75,-121.5 2411.75,-133.5 2411.75,-133.5 2411.75,-139.5 2405.75,-145.5 2399.75,-145.5 2399.75,-145.5 2361.25,-145.5 2361.25,-145.5 2355.25,-145.5 2349.25,-139.5 2349.25,-133.5 2349.25,-133.5 2349.25,-121.5 2349.25,-121.5 2349.25,-115.5 2355.25,-109.5 2361.25,-109.5"/>
<text text-anchor="middle" x="2380.5" y="-122.7" font-family="Times,serif" font-size="14.00">4:0 &#45; 5:1</text>
</g>
<!-- v30&#45;&gt;x31 -->
<g id="edge93" class="edge">
<title>v30:e&#45;&gt;x31:w</title>
<path fill="none" stroke="black" stroke-width="3" d="M2307.84,-125.5C2321.8,-125.5 2327.8,-126.65 2337.91,-127.2"/>
<polygon fill="black" stroke="black" stroke-width="3" points="2334.62,-130.62 2344.71,-127.38 2334.8,-123.62 2334.62,-130.62"/>
</g>
<!-- x31&#45;&gt;n4 -->
<g id="edge78" class="edge">
<title>x31:e&#45;&gt;n4:w</title>
<path fill="none" stroke="black" stroke-width="3" d="M2411.75,-127.75C2435.96,-127.75 2444.71,-127.57 2464.33,-127.51"/>
<polygon fill="black" stroke="black" stroke-width="3" points="2461.19,-131.02 2471.18,-127.51 2461.18,-124.02 2461.19,-131.02"/>
</g>
<!-- x33 -->
<g id="node55" class="node">
<title>x33</title>
<path fill="none" stroke="black" d="M2459.75,-466.5C2459.75,-466.5 2498.25,-466.5 2498.25,-466.5 2504.25,-466.5 2510.25,-472.5 2510.25,-478.5 2510.25,-478.5 2510.25,-490.5 2510.25,-490.5 2510.25,-496.5 2504.25,-502.5 2498.25,-502.5 2498.25,-502.5 2459.75,-502.5 2459.75,-502.5 2453.75,-502.5 2447.75,-496.5 2447.75,-490.5 2447.75,-490.5 2447.75,-478.5 2447.75,-478.5 2447.75,-472.5 2453.75,-466.5 2459.75,-466.5"/>
<text text-anchor="middle" x="2479" y="-479.7" font-family="Times,serif" font-size="14.00">0:0 &#45; 1:1</text>
</g>
<!-- x32&#45;&gt;x33 -->
<g id="edge31" class="edge">
<title>x32:e&#45;&gt;x33:w</title>
<path fill="none" stroke="black" d="M2190.78,-503.42C2296.18,-502.17 2329.4,-485.82 2434.87,-484.57"/>
<polygon fill="none" stroke="black" points="2190.65,-503.42 2184.67,-507.46 2178.65,-503.49 2184.63,-499.46 2190.65,-503.42"/>
<polygon fill="none" stroke="black" points="2434.85,-484.58 2440.83,-480.54 2446.85,-484.51 2440.87,-488.54 2434.85,-484.58"/>
</g>
<!-- x33&#45;&gt;n8 -->
<g id="edge87" class="edge">
<title>x33:e&#45;&gt;n8:w</title>
<path fill="none" stroke="black" d="M2510.25,-484.75C2685.43,-484.75 2732.02,-480.68 2901.67,-480.51"/>
<polygon fill="black" stroke="black" points="2901.52,-484.01 2911.52,-480.5 2901.51,-477.01 2901.52,-484.01"/>
</g>
<!-- v34 -->
<g id="node56" class="node">
<title>v34</title>
<ellipse fill="none" stroke="black" cx="3763.43" cy="-385.5" rx="35.49" ry="18"/>
<text text-anchor="middle" x="3763.43" y="-380.45" font-family="Times,serif" font-size="14.00">4&#39;0000</text>
</g>
<!-- x35 -->
<g id="node57" class="node">
<title>x35</title>
<path fill="none" stroke="black" d="M3855.31,-364.5C3855.31,-364.5 3907.31,-364.5 3907.31,-364.5 3913.31,-364.5 3919.31,-370.5 3919.31,-376.5 3919.31,-376.5 3919.31,-388.5 3919.31,-388.5 3919.31,-394.5 3913.31,-400.5 3907.31,-400.5 3907.31,-400.5 3855.31,-400.5 3855.31,-400.5 3849.31,-400.5 3843.31,-394.5 3843.31,-388.5 3843.31,-388.5 3843.31,-376.5 3843.31,-376.5 3843.31,-370.5 3849.31,-364.5 3855.31,-364.5"/>
<text text-anchor="middle" x="3881.31" y="-377.7" font-family="Times,serif" font-size="14.00">3:0 &#45; 23:20</text>
</g>
<!-- v34&#45;&gt;x35 -->
<g id="edge94" class="edge">
<title>v34:e&#45;&gt;x35:w</title>
<path fill="none" stroke="black" stroke-width="3" d="M3800.25,-385.5C3814.94,-385.5 3821.13,-383.74 3831.84,-382.92"/>
<polygon fill="black" stroke="black" stroke-width="3" points="3828.91,-386.53 3838.77,-382.67 3828.65,-379.53 3828.91,-386.53"/>
</g>
<!-- x35&#45;&gt;n9 -->
<g id="edge91" class="edge">
<title>x35:e&#45;&gt;n9:w</title>
<path fill="none" stroke="black" stroke-width="3" d="M3919.31,-382.75C3953.41,-382.75 3947.1,-336.95 3972.04,-326.57"/>
<polygon fill="black" stroke="black" stroke-width="3" points="3969.62,-330.58 3978.82,-325.32 3968.35,-323.7 3969.62,-330.58"/>
</g>
<!-- x36 -->
<g id="node58" class="node">
<title>x36</title>
<path fill="none" stroke="black" d="M3602.31,-168.5C3602.31,-168.5 3671.56,-168.5 3671.56,-168.5 3677.56,-168.5 3683.56,-174.5 3683.56,-180.5 3683.56,-180.5 3683.56,-192.5 3683.56,-192.5 3683.56,-198.5 3677.56,-204.5 3671.56,-204.5 3671.56,-204.5 3602.31,-204.5 3602.31,-204.5 3596.31,-204.5 3590.31,-198.5 3590.31,-192.5 3590.31,-192.5 3590.31,-180.5 3590.31,-180.5 3590.31,-174.5 3596.31,-168.5 3602.31,-168.5"/>
<text text-anchor="middle" x="3636.93" y="-181.7" font-family="Times,serif" font-size="14.00">8x 19:19 &#45; 7:0</text>
</g>
<!-- x37 -->
<g id="node59" class="node">
<title>x37</title>
<path fill="none" stroke="black" d="M3737.43,-187.5C3737.43,-187.5 3789.43,-187.5 3789.43,-187.5 3795.43,-187.5 3801.43,-193.5 3801.43,-199.5 3801.43,-199.5 3801.43,-211.5 3801.43,-211.5 3801.43,-217.5 3795.43,-223.5 3789.43,-223.5 3789.43,-223.5 3737.43,-223.5 3737.43,-223.5 3731.43,-223.5 3725.43,-217.5 3725.43,-211.5 3725.43,-211.5 3725.43,-199.5 3725.43,-199.5 3725.43,-193.5 3731.43,-187.5 3737.43,-187.5"/>
<text text-anchor="middle" x="3763.43" y="-200.7" font-family="Times,serif" font-size="14.00">7:0 &#45; 18:11</text>
</g>
<!-- x36&#45;&gt;x37 -->
<g id="edge32" class="edge">
<title>x36:e&#45;&gt;x37:w</title>
<path fill="none" stroke="black" stroke-width="3" d="M3696.17,-189.81C3702.07,-193.3 3705.97,-198.76 3711.88,-202.23"/>
<polygon fill="none" stroke="black" stroke-width="3" points="3697.78,-190.23 3690.96,-192.58 3686.18,-187.19 3692.99,-184.84 3697.78,-190.23"/>
<polygon fill="none" stroke="black" stroke-width="3" points="3710.21,-201.79 3717.02,-199.43 3721.82,-204.82 3715,-207.18 3710.21,-201.79"/>
</g>
<!-- x37&#45;&gt;n10 -->
<g id="edge39" class="edge">
<title>x37:e&#45;&gt;n10:w</title>
<path fill="none" stroke="black" stroke-width="3" d="M3802.43,-205.75C3810.56,-205.75 3807.25,-218.33 3801.43,-224 3767.65,-256.96 3589.14,-243.92 3530.15,-235.5"/>
<polygon fill="black" stroke="black" stroke-width="3" points="3534.4,-233.66 3523.87,-232.47 3531.36,-239.97 3534.4,-233.66"/>
</g>
<!-- v38 -->
<g id="node60" class="node">
<title>v38</title>
<ellipse fill="none" stroke="black" cx="1637.01" cy="-456.5" rx="104.58" ry="18"/>
<text text-anchor="middle" x="1637.01" y="-451.45" font-family="Times,serif" font-size="14.00">18&#39;00000xxxxxxxxxxxxx</text>
</g>
<!-- x39 -->
<g id="node61" class="node">
<title>x39</title>
<path fill="none" stroke="black" d="M1792.97,-438.5C1792.97,-438.5 1851.72,-438.5 1851.72,-438.5 1857.72,-438.5 1863.72,-444.5 1863.72,-450.5 1863.72,-450.5 1863.72,-462.5 1863.72,-462.5 1863.72,-468.5 1857.72,-474.5 1851.72,-474.5 1851.72,-474.5 1792.97,-474.5 1792.97,-474.5 1786.97,-474.5 1780.97,-468.5 1780.97,-462.5 1780.97,-462.5 1780.97,-450.5 1780.97,-450.5 1780.97,-444.5 1786.97,-438.5 1792.97,-438.5"/>
<text text-anchor="middle" x="1822.34" y="-451.7" font-family="Times,serif" font-size="14.00">17:0 &#45; 28:11</text>
</g>
<!-- v38&#45;&gt;x39 -->
<g id="edge95" class="edge">
<title>v38:e&#45;&gt;x39:w</title>
<path fill="none" stroke="black" stroke-width="3" d="M1741.59,-456.5C1754.12,-456.5 1759.75,-456.5 1768.61,-456.5"/>
<polygon fill="black" stroke="black" stroke-width="3" points="1765.43,-460 1775.43,-456.5 1765.43,-453 1765.43,-460"/>
</g>
<!-- x39&#45;&gt;n11 -->
<g id="edge46" class="edge">
<title>x39:e&#45;&gt;n11:w</title>
<path fill="none" stroke="black" stroke-width="3" d="M1864.72,-456.75C1877.24,-456.75 1882.87,-456.62 1891.73,-456.54"/>
<polygon fill="black" stroke="black" stroke-width="3" points="1888.57,-460.06 1898.55,-456.52 1888.54,-453.06 1888.57,-460.06"/>
</g>
<!-- v40 -->
<g id="node62" class="node">
<title>v40</title>
<ellipse fill="none" stroke="black" cx="851.84" cy="-268.5" rx="40.09" ry="18"/>
<text text-anchor="middle" x="851.84" y="-263.45" font-family="Times,serif" font-size="14.00">5&#39;00000</text>
</g>
<!-- x41 -->
<g id="node63" class="node">
<title>x41</title>
<path fill="none" stroke="black" d="M954.81,-250.5C954.81,-250.5 993.31,-250.5 993.31,-250.5 999.31,-250.5 1005.31,-256.5 1005.31,-262.5 1005.31,-262.5 1005.31,-274.5 1005.31,-274.5 1005.31,-280.5 999.31,-286.5 993.31,-286.5 993.31,-286.5 954.81,-286.5 954.81,-286.5 948.81,-286.5 942.81,-280.5 942.81,-274.5 942.81,-274.5 942.81,-262.5 942.81,-262.5 942.81,-256.5 948.81,-250.5 954.81,-250.5"/>
<text text-anchor="middle" x="974.06" y="-263.7" font-family="Times,serif" font-size="14.00">4:0 &#45; 5:1</text>
</g>
<!-- v40&#45;&gt;x41 -->
<g id="edge96" class="edge">
<title>v40:e&#45;&gt;x41:w</title>
<path fill="none" stroke="black" stroke-width="3" d="M891.93,-268.5C909.77,-268.5 916.84,-268.5 930.48,-268.5"/>
<polygon fill="black" stroke="black" stroke-width="3" points="927.27,-272 937.27,-268.5 927.27,-265 927.27,-272"/>
</g>
<!-- x41&#45;&gt;n14 -->
<g id="edge57" class="edge">
<title>x41:e&#45;&gt;n14:w</title>
<path fill="none" stroke="black" stroke-width="3" d="M1006.31,-268.75C1024.15,-268.75 1031.22,-268.59 1044.85,-268.52"/>
<polygon fill="black" stroke="black" stroke-width="3" points="1041.65,-272.03 1051.64,-268.51 1041.64,-265.03 1041.65,-272.03"/>
</g>
<!-- v42 -->
<g id="node64" class="node">
<title>v42</title>
<ellipse fill="none" stroke="black" cx="412.67" cy="-480.5" rx="104.58" ry="18"/>
<text text-anchor="middle" x="412.67" y="-475.45" font-family="Times,serif" font-size="14.00">18&#39;000000000000000000</text>
</g>
<!-- x43 -->
<g id="node65" class="node">
<title>x43</title>
<path fill="none" stroke="black" d="M565.25,-460.5C565.25,-460.5 617.25,-460.5 617.25,-460.5 623.25,-460.5 629.25,-466.5 629.25,-472.5 629.25,-472.5 629.25,-484.5 629.25,-484.5 629.25,-490.5 623.25,-496.5 617.25,-496.5 617.25,-496.5 565.25,-496.5 565.25,-496.5 559.25,-496.5 553.25,-490.5 553.25,-484.5 553.25,-484.5 553.25,-472.5 553.25,-472.5 553.25,-466.5 559.25,-460.5 565.25,-460.5"/>
<text text-anchor="middle" x="591.25" y="-473.7" font-family="Times,serif" font-size="14.00">17:0 &#45; 23:6</text>
</g>
<!-- v42&#45;&gt;x43 -->
<g id="edge97" class="edge">
<title>v42:e&#45;&gt;x43:w</title>
<path fill="none" stroke="black" stroke-width="3" d="M517.25,-480.5C528.64,-480.5 533.93,-479.49 541.8,-478.9"/>
<polygon fill="black" stroke="black" stroke-width="3" points="538.84,-482.51 548.71,-478.66 538.59,-475.52 538.84,-482.51"/>
</g>
<!-- x43&#45;&gt;n15 -->
<g id="edge65" class="edge">
<title>x43:e&#45;&gt;n15:w</title>
<path fill="none" stroke="black" stroke-width="3" d="M629.25,-478.75C645.8,-478.75 645.53,-459.68 654.73,-451.33"/>
<polygon fill="black" stroke="black" stroke-width="3" points="652.78,-455.76 660.98,-449.05 650.39,-449.19 652.78,-455.76"/>
</g>
<!-- v44 -->
<g id="node66" class="node">
<title>v44</title>
<ellipse fill="none" stroke="black" cx="2756.15" cy="-42.5" rx="86.15" ry="18"/>
<text text-anchor="middle" x="2756.15" y="-37.45" font-family="Times,serif" font-size="14.00">14&#39;000000000xxxxx</text>
</g>
<!-- x45 -->
<g id="node67" class="node">
<title>x45</title>
<path fill="none" stroke="black" d="M2890.31,-33.5C2890.31,-33.5 2942.31,-33.5 2942.31,-33.5 2948.31,-33.5 2954.31,-39.5 2954.31,-45.5 2954.31,-45.5 2954.31,-57.5 2954.31,-57.5 2954.31,-63.5 2948.31,-69.5 2942.31,-69.5 2942.31,-69.5 2890.31,-69.5 2890.31,-69.5 2884.31,-69.5 2878.31,-63.5 2878.31,-57.5 2878.31,-57.5 2878.31,-45.5 2878.31,-45.5 2878.31,-39.5 2884.31,-33.5 2890.31,-33.5"/>
<text text-anchor="middle" x="2916.31" y="-46.7" font-family="Times,serif" font-size="14.00">13:0 &#45; 19:6</text>
</g>
<!-- v44&#45;&gt;x45 -->
<g id="edge98" class="edge">
<title>v44:e&#45;&gt;x45:w</title>
<path fill="none" stroke="black" stroke-width="3" d="M2842.31,-42.5C2854.16,-42.5 2859.05,-47.15 2866.99,-49.76"/>
<polygon fill="black" stroke="black" stroke-width="3" points="2863.41,-52.76 2873.82,-50.81 2864.47,-45.84 2863.41,-52.76"/>
</g>
<!-- x45&#45;&gt;n16 -->
<g id="edge72" class="edge">
<title>x45:e&#45;&gt;n16:w</title>
<path fill="none" stroke="black" stroke-width="3" d="M2954.31,-51.75C2988.49,-51.75 2960.35,-113.35 2979.44,-128.27"/>
<polygon fill="black" stroke="black" stroke-width="3" points="2975.37,-130.72 2985.96,-130.21 2977.36,-124.01 2975.37,-130.72"/>
</g>
<!-- x47 -->
<g id="node69" class="node">
<title>x47</title>
<path fill="none" stroke="black" d="M2240.37,-391.5C2240.37,-391.5 2292.37,-391.5 2292.37,-391.5 2298.37,-391.5 2304.37,-397.5 2304.37,-403.5 2304.37,-403.5 2304.37,-415.5 2304.37,-415.5 2304.37,-421.5 2298.37,-427.5 2292.37,-427.5 2292.37,-427.5 2240.37,-427.5 2240.37,-427.5 2234.37,-427.5 2228.37,-421.5 2228.37,-415.5 2228.37,-415.5 2228.37,-403.5 2228.37,-403.5 2228.37,-397.5 2234.37,-391.5 2240.37,-391.5"/>
<text text-anchor="middle" x="2266.37" y="-404.7" font-family="Times,serif" font-size="14.00">0:0 &#45; 10:10</text>
</g>
<!-- x46&#45;&gt;x47 -->
<g id="edge33" class="edge">
<title>x46:e&#45;&gt;x47:w</title>
<path fill="none" stroke="black" d="M2196.49,-409.5C2202.98,-409.5 2207.95,-409.5 2214.45,-409.5"/>
<polygon fill="none" stroke="black" points="2196.4,-409.5 2190.4,-413.5 2184.4,-409.5 2190.4,-405.5 2196.4,-409.5"/>
<polygon fill="none" stroke="black" points="2214.47,-409.5 2220.47,-405.5 2226.47,-409.5 2220.47,-413.5 2214.47,-409.5"/>
</g>
<!-- x47&#45;&gt;n1 -->
<g id="edge35" class="edge">
<title>x47:e&#45;&gt;n1:w</title>
<path fill="none" stroke="black" d="M2305.37,-409.75C2333.42,-409.75 2342.69,-402.73 2365.9,-400.92"/>
<polygon fill="black" stroke="black" points="2365.85,-404.43 2375.71,-400.56 2365.59,-397.43 2365.85,-404.43"/>
</g>
<!-- n1&#45;&gt;x10 -->
<g id="edge36" class="edge">
<title>n1:e&#45;&gt;x10:w</title>
<path fill="none" stroke="black" stroke-width="3" d="M2383.78,-400.5C2408.27,-400.5 2416.58,-393.43 2436.27,-391.33"/>
<polygon fill="black" stroke="black" stroke-width="3" points="2433.4,-394.98 2443.21,-390.98 2433.05,-387.99 2433.4,-394.98"/>
</g>
<!-- n1&#45;&gt;x16 -->
<g id="edge37" class="edge">
<title>n1:e&#45;&gt;x16:w</title>
<path fill="none" stroke="black" stroke-width="3" d="M2383.78,-400.5C2441.1,-400.5 2400.2,-480.48 2447.75,-512.5 2500.33,-547.92 2525.73,-531.5 2589.12,-531.5 2589.12,-531.5 2589.12,-531.5 2757.15,-531.5 2867.11,-531.5 2897.41,-529.17 3001.93,-529.01"/>
<polygon fill="black" stroke="black" stroke-width="3" points="2998.77,-532.51 3008.77,-529 2998.77,-525.51 2998.77,-532.51"/>
</g>
<!-- n10&#45;&gt;x19 -->
<g id="edge40" class="edge">
<title>n10:e&#45;&gt;x19:w</title>
<path fill="none" stroke="black" stroke-width="3" d="M3526.34,-230.5C3577.61,-230.5 3553.64,-313.5 3593.46,-326.14"/>
<polygon fill="black" stroke="black" stroke-width="3" points="3589.79,-329.15 3600.19,-327.11 3590.79,-322.23 3589.79,-329.15"/>
</g>
<!-- n10&#45;&gt;x36 -->
<g id="edge41" class="edge">
<title>n10:e&#45;&gt;x36:w</title>
<path fill="none" stroke="black" stroke-width="3" d="M3526.34,-230.5C3556.48,-230.5 3556.48,-197 3579.08,-188.63"/>
<polygon fill="black" stroke="black" stroke-width="3" points="3576.55,-192.6 3585.83,-187.5 3575.39,-185.7 3576.55,-192.6"/>
</g>
<!-- n4&#45;&gt;x25 -->
<g id="edge79" class="edge">
<title>n4:e&#45;&gt;x25:w</title>
<path fill="none" stroke="black" d="M2482.28,-127.5C2511.81,-127.5 2521.87,-127.31 2546.69,-127.26"/>
<polygon fill="black" stroke="black" points="2546.36,-130.76 2556.36,-127.25 2546.36,-123.76 2546.36,-130.76"/>
</g>
<!-- n5&#45;&gt;x0 -->
<g id="edge81" class="edge">
<title>n5:e&#45;&gt;x0:w</title>
<path fill="none" stroke="black" stroke-width="3" d="M1114.71,-472.5C1155.74,-472.5 1162.15,-494.11 1202.69,-500.5 1298.97,-515.67 1327.22,-502.58 1419.42,-501.56"/>
<polygon fill="black" stroke="black" stroke-width="3" points="1416.16,-505.08 1426.14,-501.52 1416.13,-498.08 1416.16,-505.08"/>
</g>
<!-- n5&#45;&gt;x7 -->
<g id="edge82" class="edge">
<title>n5:e&#45;&gt;x7:w</title>
<path fill="none" stroke="black" d="M1114.71,-472.5C1149.69,-472.5 1161.2,-472.7 1191.22,-472.74"/>
<polygon fill="black" stroke="black" points="1191.17,-476.24 1201.17,-472.75 1191.17,-469.24 1191.17,-476.24"/>
</g>
<!-- n8&#45;&gt;x16 -->
<g id="edge88" class="edge">
<title>n8:e&#45;&gt;x16:w</title>
<path fill="none" stroke="black" d="M2919.59,-480.5C2957.17,-480.5 2969.32,-480.09 3001.94,-480.01"/>
<polygon fill="black" stroke="black" points="3001.8,-483.51 3011.8,-480 3001.79,-476.51 3001.8,-483.51"/>
</g>
<!-- n8&#45;&gt;x16 -->
<g id="edge89" class="edge">
<title>n8:e&#45;&gt;x16:w</title>
<path fill="none" stroke="black" stroke-width="3" d="M2919.59,-480.5C2958.55,-480.5 2968.55,-500.21 3002.09,-503.91"/>
<polygon fill="black" stroke="black" stroke-width="3" points="2998.6,-507.23 3008.77,-504.26 2998.97,-500.24 2998.6,-507.23"/>
</g>
<!-- n9&#45;&gt;x3 -->
<g id="edge92" class="edge">
<title>n9:e&#45;&gt;x3:w</title>
<path fill="none" stroke="black" stroke-width="3" d="M3989.84,-324.5C4014.07,-324.5 4022.78,-322.51 4042.41,-321.91"/>
<polygon fill="black" stroke="black" stroke-width="3" points="4039.32,-325.46 4049.27,-321.82 4039.22,-318.46 4039.32,-325.46"/>
</g>
</g>
</svg>
