<?xml version="1.0" encoding="UTF-8" standalone="no"?>
<!DOCTYPE svg PUBLIC "-//W3C//DTD SVG 1.1//EN"
 "http://www.w3.org/Graphics/SVG/1.1/DTD/svg11.dtd">
<!-- Generated by graphviz version 12.2.1 (20241206.2353)
 -->
<!-- Title: top Pages: 1 -->
<svg width="1810pt" height="354pt"
 viewBox="0.00 0.00 1810.41 353.69" xmlns="http://www.w3.org/2000/svg" xmlns:xlink="http://www.w3.org/1999/xlink">
<g id="graph0" class="graph" transform="scale(1 1) rotate(0) translate(4 349.69)">
<title>top</title>
<polygon fill="white" stroke="none" points="-4,4 -4,-349.69 1806.41,-349.69 1806.41,4 -4,4"/>
<text text-anchor="middle" x="901.21" y="-7.2" font-family="Times,serif" font-size="14.00">top</text>
<!-- n3 -->
<g id="node1" class="node">
<title>n3</title>
<polygon fill="none" stroke="black" points="107.84,-82.54 107.84,-97.46 76.26,-108 31.59,-108 0,-97.46 0,-82.54 31.59,-72 76.26,-72 107.84,-82.54"/>
<text text-anchor="middle" x="53.92" y="-84.95" font-family="Times,serif" font-size="14.00">input_data</text>
</g>
<!-- x0 -->
<g id="node7" class="node">
<title>x0</title>
<path fill="none" stroke="black" d="M262.84,-25C262.84,-25 314.84,-25 314.84,-25 320.84,-25 326.84,-31 326.84,-37 326.84,-37 326.84,-49 326.84,-49 326.84,-55 320.84,-61 314.84,-61 314.84,-61 262.84,-61 262.84,-61 256.84,-61 250.84,-55 250.84,-49 250.84,-49 250.84,-37 250.84,-37 250.84,-31 256.84,-25 262.84,-25"/>
<text text-anchor="middle" x="288.84" y="-38.2" font-family="Times,serif" font-size="14.00">11:1 &#45; 10:0</text>
</g>
<!-- n3&#45;&gt;x0 -->
<g id="edge20" class="edge">
<title>n3:e&#45;&gt;x0:w</title>
<path fill="none" stroke="black" stroke-width="3" d="M107.84,-90C128.11,-90 125.32,-70.23 143.84,-62 183.89,-44.21 199.37,-43.28 238.46,-43.25"/>
<polygon fill="black" stroke="black" stroke-width="3" points="235.3,-46.75 245.3,-43.25 235.3,-39.75 235.3,-46.75"/>
</g>
<!-- x5 -->
<g id="node16" class="node">
<title>x5</title>
<path fill="none" stroke="black" d="M155.84,-127C155.84,-127 194.34,-127 194.34,-127 200.34,-127 206.34,-133 206.34,-139 206.34,-139 206.34,-151 206.34,-151 206.34,-157 200.34,-163 194.34,-163 194.34,-163 155.84,-163 155.84,-163 149.84,-163 143.84,-157 143.84,-151 143.84,-151 143.84,-139 143.84,-139 143.84,-133 149.84,-127 155.84,-127"/>
<text text-anchor="middle" x="175.09" y="-140.2" font-family="Times,serif" font-size="14.00">2:1 &#45; 1:0</text>
</g>
<!-- n3&#45;&gt;x5 -->
<g id="edge21" class="edge">
<title>n3:e&#45;&gt;x5:w</title>
<path fill="none" stroke="black" stroke-width="3" d="M107.84,-90C132.34,-90 120.56,-128.61 133.15,-141.28"/>
<polygon fill="black" stroke="black" stroke-width="3" points="128.99,-143.46 139.58,-143.67 131.43,-136.9 128.99,-143.46"/>
</g>
<!-- x6 -->
<g id="node17" class="node">
<title>x6</title>
<path fill="none" stroke="black" d="M155.84,-72C155.84,-72 194.34,-72 194.34,-72 200.34,-72 206.34,-78 206.34,-84 206.34,-84 206.34,-96 206.34,-96 206.34,-102 200.34,-108 194.34,-108 194.34,-108 155.84,-108 155.84,-108 149.84,-108 143.84,-102 143.84,-96 143.84,-96 143.84,-84 143.84,-84 143.84,-78 149.84,-72 155.84,-72"/>
<text text-anchor="middle" x="175.09" y="-85.2" font-family="Times,serif" font-size="14.00">3:2 &#45; 1:0</text>
</g>
<!-- n3&#45;&gt;x6 -->
<g id="edge22" class="edge">
<title>n3:e&#45;&gt;x6:w</title>
<path fill="none" stroke="black" stroke-width="3" d="M107.84,-90C119.22,-90 124.53,-90.13 132.39,-90.2"/>
<polygon fill="black" stroke="black" stroke-width="3" points="129.28,-93.69 139.3,-90.23 129.32,-86.69 129.28,-93.69"/>
</g>
<!-- n4 -->
<g id="node2" class="node">
<title>n4</title>
<polygon fill="none" stroke="black" points="1186.66,-200.54 1186.66,-215.46 1152.15,-226 1103.35,-226 1068.84,-215.46 1068.84,-200.54 1103.35,-190 1152.15,-190 1186.66,-200.54"/>
<text text-anchor="middle" x="1127.75" y="-202.95" font-family="Times,serif" font-size="14.00">output_data</text>
</g>
<!-- x11 -->
<g id="node23" class="node">
<title>x11</title>
<path fill="none" stroke="black" d="M1234.66,-190C1234.66,-190 1273.16,-190 1273.16,-190 1279.16,-190 1285.16,-196 1285.16,-202 1285.16,-202 1285.16,-214 1285.16,-214 1285.16,-220 1279.16,-226 1273.16,-226 1273.16,-226 1234.66,-226 1234.66,-226 1228.66,-226 1222.66,-220 1222.66,-214 1222.66,-214 1222.66,-202 1222.66,-202 1222.66,-196 1228.66,-190 1234.66,-190"/>
<text text-anchor="middle" x="1253.91" y="-203.2" font-family="Times,serif" font-size="14.00">8:4 &#45; 4:0</text>
</g>
<!-- n4&#45;&gt;x11 -->
<g id="edge25" class="edge">
<title>n4:e&#45;&gt;x11:w</title>
<path fill="none" stroke="black" stroke-width="3" d="M1186.66,-208C1198.03,-208 1203.34,-208.13 1211.21,-208.2"/>
<polygon fill="black" stroke="black" stroke-width="3" points="1208.1,-211.69 1218.11,-208.23 1208.13,-204.69 1208.1,-211.69"/>
</g>
<!-- n5 -->
<g id="node3" class="node">
<title>n5</title>
<polygon fill="none" stroke="black" points="426.59,-126 371.34,-108 426.59,-90 481.84,-108 426.59,-126"/>
<text text-anchor="middle" x="426.59" y="-102.95" font-family="Times,serif" font-size="14.00">temp_1</text>
</g>
<!-- c11 -->
<g id="node6" class="node">
<title>c11</title>
<polygon fill="none" stroke="black" points="517.84,-30.5 517.84,-79.5 611.59,-79.5 611.59,-30.5 517.84,-30.5"/>
<text text-anchor="middle" x="530.72" y="-62.2" font-family="Times,serif" font-size="14.00">A</text>
<polyline fill="none" stroke="black" points="517.84,-55 543.59,-55"/>
<text text-anchor="middle" x="530.72" y="-37.7" font-family="Times,serif" font-size="14.00">B</text>
<polyline fill="none" stroke="black" points="543.59,-30.5 543.59,-79.5"/>
<text text-anchor="middle" x="564.72" y="-58.2" font-family="Times,serif" font-size="14.00">$9</text>
<text text-anchor="middle" x="564.72" y="-41.7" font-family="Times,serif" font-size="14.00">$add</text>
<polyline fill="none" stroke="black" points="585.84,-30.5 585.84,-79.5"/>
<text text-anchor="middle" x="598.72" y="-50.2" font-family="Times,serif" font-size="14.00">Y</text>
</g>
<!-- n5&#45;&gt;c11 -->
<g id="edge27" class="edge">
<title>n5:e&#45;&gt;c11:w</title>
<path fill="none" stroke="black" stroke-width="3" d="M481.84,-108C501.29,-108 497.1,-81.61 507.32,-71.31"/>
<polygon fill="black" stroke="black" stroke-width="3" points="505.53,-75.74 513.6,-68.88 503.02,-69.21 505.53,-75.74"/>
</g>
<!-- c13 -->
<g id="node11" class="node">
<title>c13</title>
<polygon fill="none" stroke="black" points="1079.75,-83.5 1079.75,-132.5 1175.75,-132.5 1175.75,-83.5 1079.75,-83.5"/>
<text text-anchor="middle" x="1092.62" y="-115.2" font-family="Times,serif" font-size="14.00">A</text>
<polyline fill="none" stroke="black" points="1079.75,-108 1105.5,-108"/>
<text text-anchor="middle" x="1092.62" y="-90.7" font-family="Times,serif" font-size="14.00">B</text>
<polyline fill="none" stroke="black" points="1105.5,-83.5 1105.5,-132.5"/>
<text text-anchor="middle" x="1127.75" y="-111.2" font-family="Times,serif" font-size="14.00">$8</text>
<text text-anchor="middle" x="1127.75" y="-94.7" font-family="Times,serif" font-size="14.00">$mul</text>
<polyline fill="none" stroke="black" points="1150,-83.5 1150,-132.5"/>
<text text-anchor="middle" x="1162.87" y="-103.2" font-family="Times,serif" font-size="14.00">Y</text>
</g>
<!-- n5&#45;&gt;c13 -->
<g id="edge28" class="edge">
<title>n5:e&#45;&gt;c13:w</title>
<path fill="none" stroke="black" stroke-width="3" d="M481.84,-108C579.62,-108 604.06,-108 701.84,-108 701.84,-108 701.84,-108 843.09,-108 944.08,-108 971.84,-96.64 1067.39,-95.8"/>
<polygon fill="black" stroke="black" stroke-width="3" points="1064.22,-99.31 1074.21,-95.77 1064.19,-92.31 1064.22,-99.31"/>
</g>
<!-- c16 -->
<g id="node19" class="node">
<title>c16</title>
<polygon fill="none" stroke="black" points="518.22,-171.5 518.22,-220.5 611.22,-220.5 611.22,-171.5 518.22,-171.5"/>
<text text-anchor="middle" x="531.09" y="-203.2" font-family="Times,serif" font-size="14.00">A</text>
<polyline fill="none" stroke="black" points="518.22,-196 543.97,-196"/>
<text text-anchor="middle" x="531.09" y="-178.7" font-family="Times,serif" font-size="14.00">B</text>
<polyline fill="none" stroke="black" points="543.97,-171.5 543.97,-220.5"/>
<text text-anchor="middle" x="564.72" y="-199.2" font-family="Times,serif" font-size="14.00">$7</text>
<text text-anchor="middle" x="564.72" y="-182.7" font-family="Times,serif" font-size="14.00">$sub</text>
<polyline fill="none" stroke="black" points="585.47,-171.5 585.47,-220.5"/>
<text text-anchor="middle" x="598.34" y="-191.2" font-family="Times,serif" font-size="14.00">Y</text>
</g>
<!-- n5&#45;&gt;c16 -->
<g id="edge29" class="edge">
<title>n5:e&#45;&gt;c16:w</title>
<path fill="none" stroke="black" stroke-width="3" d="M481.84,-108C514.46,-108 489.02,-166 507.12,-180.5"/>
<polygon fill="black" stroke="black" stroke-width="3" points="502.91,-182.87 513.5,-182.43 504.95,-176.18 502.91,-182.87"/>
</g>
<!-- n6 -->
<g id="node4" class="node">
<title>n6</title>
<polygon fill="none" stroke="black" points="1376.41,-131 1321.16,-113 1376.41,-95 1431.66,-113 1376.41,-131"/>
<text text-anchor="middle" x="1376.41" y="-107.95" font-family="Times,serif" font-size="14.00">temp_4</text>
</g>
<!-- c12 -->
<g id="node8" class="node">
<title>c12</title>
<polygon fill="none" stroke="black" points="1605.76,-125.5 1605.76,-174.5 1698.01,-174.5 1698.01,-125.5 1605.76,-125.5"/>
<text text-anchor="middle" x="1618.63" y="-157.2" font-family="Times,serif" font-size="14.00">A</text>
<polyline fill="none" stroke="black" points="1605.76,-150 1631.51,-150"/>
<text text-anchor="middle" x="1618.63" y="-132.7" font-family="Times,serif" font-size="14.00">B</text>
<polyline fill="none" stroke="black" points="1631.51,-125.5 1631.51,-174.5"/>
<text text-anchor="middle" x="1651.88" y="-153.2" font-family="Times,serif" font-size="14.00">$16</text>
<text text-anchor="middle" x="1651.88" y="-136.7" font-family="Times,serif" font-size="14.00">$xor</text>
<polyline fill="none" stroke="black" points="1672.26,-125.5 1672.26,-174.5"/>
<text text-anchor="middle" x="1685.13" y="-145.2" font-family="Times,serif" font-size="14.00">Y</text>
</g>
<!-- n6&#45;&gt;c12 -->
<g id="edge31" class="edge">
<title>n6:e&#45;&gt;c12:w</title>
<path fill="none" stroke="black" stroke-width="3" d="M1431.66,-113C1467.38,-113 1550.61,-133.68 1594.49,-137.23"/>
<polygon fill="black" stroke="black" stroke-width="3" points="1591.07,-140.58 1601.22,-137.54 1591.39,-133.59 1591.07,-140.58"/>
</g>
<!-- n7 -->
<g id="node5" class="node">
<title>n7</title>
<polygon fill="none" stroke="black" points="702.84,-172 647.59,-154 702.84,-136 758.09,-154 702.84,-172"/>
<text text-anchor="middle" x="702.84" y="-148.95" font-family="Times,serif" font-size="14.00">temp_5</text>
</g>
<!-- c14 -->
<g id="node13" class="node">
<title>c14</title>
<polygon fill="none" stroke="black" points="794.09,-138.5 794.09,-187.5 890.09,-187.5 890.09,-138.5 794.09,-138.5"/>
<text text-anchor="middle" x="806.97" y="-170.2" font-family="Times,serif" font-size="14.00">A</text>
<polyline fill="none" stroke="black" points="794.09,-163 819.84,-163"/>
<text text-anchor="middle" x="806.97" y="-145.7" font-family="Times,serif" font-size="14.00">B</text>
<polyline fill="none" stroke="black" points="819.84,-138.5 819.84,-187.5"/>
<text text-anchor="middle" x="842.09" y="-166.2" font-family="Times,serif" font-size="14.00">$11</text>
<text text-anchor="middle" x="842.09" y="-149.7" font-family="Times,serif" font-size="14.00">$mul</text>
<polyline fill="none" stroke="black" points="864.34,-138.5 864.34,-187.5"/>
<text text-anchor="middle" x="877.22" y="-158.2" font-family="Times,serif" font-size="14.00">Y</text>
</g>
<!-- n7&#45;&gt;c14 -->
<g id="edge33" class="edge">
<title>n7:e&#45;&gt;c14:w</title>
<path fill="none" stroke="black" stroke-width="3" d="M758.09,-154C772.03,-154 774.86,-165.95 783.24,-171.93"/>
<polygon fill="black" stroke="black" stroke-width="3" points="779.16,-174.34 789.75,-173.92 781.21,-167.65 779.16,-174.34"/>
</g>
<!-- n7&#45;&gt;c14 -->
<g id="edge34" class="edge">
<title>n7:e&#45;&gt;c14:w</title>
<path fill="none" stroke="black" stroke-width="3" d="M758.09,-154C769.51,-154 774.77,-152.36 782.63,-151.41"/>
<polygon fill="black" stroke="black" stroke-width="3" points="779.78,-155.08 789.56,-151.01 779.38,-148.09 779.78,-155.08"/>
</g>
<!-- c11&#45;&gt;n7 -->
<g id="edge32" class="edge">
<title>c11:e&#45;&gt;n7:w</title>
<path fill="none" stroke="black" stroke-width="3" d="M611.59,-55.25C653.74,-55.25 611.1,-135.65 636.69,-151.36"/>
<polygon fill="black" stroke="black" stroke-width="3" points="632.64,-153.98 643.18,-152.93 634.28,-147.17 632.64,-153.98"/>
</g>
<!-- x0&#45;&gt;c11 -->
<g id="edge1" class="edge">
<title>x0:e&#45;&gt;c11:w</title>
<path fill="none" stroke="black" stroke-width="3" d="M340.69,-43C410.64,-42.98 435.16,-42.77 505.21,-42.75"/>
<polygon fill="none" stroke="black" stroke-width="3" points="342.55,-43 336.55,-47 330.55,-43 336.54,-39 342.55,-43"/>
<polygon fill="none" stroke="black" stroke-width="3" points="503.14,-42.75 509.14,-38.75 515.14,-42.75 509.14,-46.75 503.14,-42.75"/>
</g>
<!-- x2 -->
<g id="node10" class="node">
<title>x2</title>
<path fill="none" stroke="black" d="M1746.01,-185C1746.01,-185 1784.51,-185 1784.51,-185 1790.51,-185 1796.51,-191 1796.51,-197 1796.51,-197 1796.51,-209 1796.51,-209 1796.51,-215 1790.51,-221 1784.51,-221 1784.51,-221 1746.01,-221 1746.01,-221 1740.01,-221 1734.01,-215 1734.01,-209 1734.01,-209 1734.01,-197 1734.01,-197 1734.01,-191 1740.01,-185 1746.01,-185"/>
<text text-anchor="middle" x="1765.26" y="-198.2" font-family="Times,serif" font-size="14.00">3:0 &#45; 3:0</text>
</g>
<!-- c12&#45;&gt;x2 -->
<g id="edge3" class="edge">
<title>c12:e&#45;&gt;x2:w</title>
<path fill="none" stroke="black" stroke-width="3" d="M1709.75,-155.5C1717.63,-165.61 1714.38,-187.68 1722.28,-197.77"/>
<polygon fill="none" stroke="black" stroke-width="3" points="1711.43,-156.25 1704.32,-157.46 1700.47,-151.35 1707.59,-150.15 1711.43,-156.25"/>
<polygon fill="none" stroke="black" stroke-width="3" points="1720.58,-197.01 1727.69,-195.8 1731.54,-201.9 1724.43,-203.11 1720.58,-197.01"/>
</g>
<!-- x1 -->
<g id="node9" class="node">
<title>x1</title>
<path fill="none" stroke="black" d="M1519.26,-144C1519.26,-144 1557.76,-144 1557.76,-144 1563.76,-144 1569.76,-150 1569.76,-156 1569.76,-156 1569.76,-168 1569.76,-168 1569.76,-174 1563.76,-180 1557.76,-180 1557.76,-180 1519.26,-180 1519.26,-180 1513.26,-180 1507.26,-174 1507.26,-168 1507.26,-168 1507.26,-156 1507.26,-156 1507.26,-150 1513.26,-144 1519.26,-144"/>
<text text-anchor="middle" x="1538.51" y="-157.2" font-family="Times,serif" font-size="14.00">3:0 &#45; 3:0</text>
</g>
<!-- x1&#45;&gt;c12 -->
<g id="edge2" class="edge">
<title>x1:e&#45;&gt;c12:w</title>
<path fill="none" stroke="black" stroke-width="3" d="M1582.48,-162.06C1586.08,-162.1 1589.21,-162.15 1592.78,-162.18"/>
<polygon fill="none" stroke="black" stroke-width="3" points="1584.46,-162.07 1578.44,-166.04 1572.46,-162.01 1578.48,-158.04 1584.46,-162.07"/>
<polygon fill="none" stroke="black" stroke-width="3" points="1591.05,-162.18 1597.07,-158.21 1603.05,-162.24 1597.03,-166.21 1591.05,-162.18"/>
</g>
<!-- x2&#45;&gt;n4 -->
<g id="edge23" class="edge">
<title>x2:e&#45;&gt;n4:w</title>
<path fill="none" stroke="black" stroke-width="3" d="M1797.51,-203.25C1805.63,-203.25 1802.03,-215.54 1796.51,-221.5 1718.16,-305.94 1654.69,-255 1539.51,-255 1375.41,-255 1375.41,-255 1375.41,-255 1238.44,-255 1163.55,-324.71 1068.6,-226 1066.77,-224.11 1065.18,-221.52 1064.14,-218.89"/>
<polygon fill="black" stroke="black" stroke-width="3" points="1066.53,-222.92 1066.22,-212.33 1059.86,-220.8 1066.53,-222.92"/>
</g>
<!-- c13&#45;&gt;n6 -->
<g id="edge30" class="edge">
<title>c13:e&#45;&gt;n6:w</title>
<path fill="none" stroke="black" stroke-width="3" d="M1176.75,-108.25C1236.95,-108.25 1254.75,-112.42 1309.66,-112.95"/>
<polygon fill="black" stroke="black" stroke-width="3" points="1306.6,-116.43 1316.61,-112.98 1306.63,-109.43 1306.6,-116.43"/>
</g>
<!-- x3 -->
<g id="node12" class="node">
<title>x3</title>
<path fill="none" stroke="black" d="M938.09,-206.5C938.09,-206.5 1020.84,-206.5 1020.84,-206.5 1026.84,-206.5 1032.84,-212.5 1032.84,-218.5 1032.84,-218.5 1032.84,-243.5 1032.84,-243.5 1032.84,-249.5 1026.84,-255.5 1020.84,-255.5 1020.84,-255.5 938.09,-255.5 938.09,-255.5 932.09,-255.5 926.09,-249.5 926.09,-243.5 926.09,-243.5 926.09,-218.5 926.09,-218.5 926.09,-212.5 932.09,-206.5 938.09,-206.5"/>
<text text-anchor="middle" x="979.47" y="-238.2" font-family="Times,serif" font-size="14.00">28x 29:29 &#45; 29:2</text>
<polyline fill="none" stroke="black" points="926.09,-231 1032.84,-231"/>
<text text-anchor="middle" x="979.47" y="-213.7" font-family="Times,serif" font-size="14.00">1:0 &#45; 1:0</text>
</g>
<!-- x3&#45;&gt;c13 -->
<g id="edge4" class="edge">
<title>x3:e&#45;&gt;c13:w</title>
<path fill="none" stroke="black" stroke-width="3" d="M1045.41,-228.04C1072.09,-212.35 1039.55,-139.11 1066.08,-123.27"/>
<polygon fill="none" stroke="black" stroke-width="3" points="1047.15,-227.63 1042.23,-232.9 1035.47,-230.38 1040.4,-225.11 1047.15,-227.63"/>
<polygon fill="none" stroke="black" stroke-width="3" points="1064.45,-123.66 1069.35,-118.38 1076.12,-120.88 1071.21,-126.16 1064.45,-123.66"/>
</g>
<!-- x4 -->
<g id="node14" class="node">
<title>x4</title>
<path fill="none" stroke="black" d="M960.22,-138.5C960.22,-138.5 998.72,-138.5 998.72,-138.5 1004.72,-138.5 1010.72,-144.5 1010.72,-150.5 1010.72,-150.5 1010.72,-175.5 1010.72,-175.5 1010.72,-181.5 1004.72,-187.5 998.72,-187.5 998.72,-187.5 960.22,-187.5 960.22,-187.5 954.22,-187.5 948.22,-181.5 948.22,-175.5 948.22,-175.5 948.22,-150.5 948.22,-150.5 948.22,-144.5 954.22,-138.5 960.22,-138.5"/>
<text text-anchor="middle" x="979.47" y="-170.2" font-family="Times,serif" font-size="14.00">8:4 &#45; 8:4</text>
<polyline fill="none" stroke="black" points="948.22,-163 1010.72,-163"/>
<text text-anchor="middle" x="979.47" y="-145.7" font-family="Times,serif" font-size="14.00">3:0 &#45; 3:0</text>
</g>
<!-- c14&#45;&gt;x4 -->
<g id="edge5" class="edge">
<title>c14:e&#45;&gt;x4:w</title>
<path fill="none" stroke="black" stroke-width="3" d="M903.07,-163.23C914.91,-163.18 922.42,-163.07 934.26,-163.02"/>
<polygon fill="none" stroke="black" stroke-width="3" points="904.8,-163.22 898.8,-167.23 892.8,-163.24 898.79,-159.23 904.8,-163.22"/>
<polygon fill="none" stroke="black" stroke-width="3" points="932.51,-163.03 938.51,-159.02 944.51,-163.01 938.52,-167.02 932.51,-163.03"/>
</g>
<!-- x4&#45;&gt;n4 -->
<g id="edge24" class="edge">
<title>x4:e&#45;&gt;n4:w</title>
<path fill="none" stroke="black" stroke-width="3" d="M1011.72,-175.25C1036.64,-175.25 1039.32,-199 1057.64,-206.05"/>
<polygon fill="black" stroke="black" stroke-width="3" points="1053.92,-208.95 1064.37,-207.22 1055.12,-202.06 1053.92,-208.95"/>
</g>
<!-- n1 -->
<g id="node25" class="node">
<title>n1</title>
<ellipse fill="black" stroke="black" cx="1469.46" cy="-162" rx="1.8" ry="1.8"/>
</g>
<!-- x4&#45;&gt;n1 -->
<g id="edge12" class="edge">
<title>x4:e&#45;&gt;n1:w</title>
<path fill="none" stroke="black" stroke-width="3" d="M1011.72,-150.75C1210.56,-150.75 1262.98,-161.58 1456.24,-161.99"/>
<polygon fill="black" stroke="black" stroke-width="3" points="1453.11,-165.48 1463.12,-162 1453.12,-158.48 1453.11,-165.48"/>
</g>
<!-- c15 -->
<g id="node15" class="node">
<title>c15</title>
<polygon fill="none" stroke="black" points="242.34,-83.5 242.34,-132.5 335.34,-132.5 335.34,-83.5 242.34,-83.5"/>
<text text-anchor="middle" x="255.22" y="-115.2" font-family="Times,serif" font-size="14.00">A</text>
<polyline fill="none" stroke="black" points="242.34,-108 268.09,-108"/>
<text text-anchor="middle" x="255.22" y="-90.7" font-family="Times,serif" font-size="14.00">B</text>
<polyline fill="none" stroke="black" points="268.09,-83.5 268.09,-132.5"/>
<text text-anchor="middle" x="288.84" y="-111.2" font-family="Times,serif" font-size="14.00">$1</text>
<text text-anchor="middle" x="288.84" y="-94.7" font-family="Times,serif" font-size="14.00">$sub</text>
<polyline fill="none" stroke="black" points="309.59,-83.5 309.59,-132.5"/>
<text text-anchor="middle" x="322.47" y="-103.2" font-family="Times,serif" font-size="14.00">Y</text>
</g>
<!-- c15&#45;&gt;n5 -->
<g id="edge26" class="edge">
<title>c15:e&#45;&gt;n5:w</title>
<path fill="none" stroke="black" stroke-width="3" d="M335.34,-108.25C346.72,-108.25 352.03,-108.12 359.89,-108.05"/>
<polygon fill="black" stroke="black" stroke-width="3" points="356.82,-111.56 366.8,-108.02 356.78,-104.56 356.82,-111.56"/>
</g>
<!-- x5&#45;&gt;c15 -->
<g id="edge6" class="edge">
<title>x5:e&#45;&gt;c15:w</title>
<path fill="none" stroke="black" stroke-width="3" d="M218.43,-140.23C223,-135.85 225.69,-129.39 230.26,-125.01"/>
<polygon fill="none" stroke="black" stroke-width="3" points="220.02,-139.6 215.91,-145.53 208.86,-144.01 212.97,-138.08 220.02,-139.6"/>
<polygon fill="none" stroke="black" stroke-width="3" points="228.66,-125.64 232.78,-119.72 239.82,-121.24 235.71,-127.16 228.66,-125.64"/>
</g>
<!-- x6&#45;&gt;c15 -->
<g id="edge7" class="edge">
<title>x6:e&#45;&gt;c15:w</title>
<path fill="none" stroke="black" stroke-width="3" d="M219.11,-91.45C222.8,-92.33 225.96,-93.44 229.66,-94.32"/>
<polygon fill="none" stroke="black" stroke-width="3" points="220.95,-91.66 214.54,-94.96 209.03,-90.31 215.44,-87.01 220.95,-91.66"/>
<polygon fill="none" stroke="black" stroke-width="3" points="227.73,-94.1 234.14,-90.8 239.65,-95.45 233.24,-98.75 227.73,-94.1"/>
</g>
<!-- v7 -->
<g id="node18" class="node">
<title>v7</title>
<ellipse fill="none" stroke="black" cx="426.59" cy="-208" rx="27" ry="18"/>
<text text-anchor="middle" x="426.59" y="-202.95" font-family="Times,serif" font-size="14.00">2&#39;10</text>
</g>
<!-- v7&#45;&gt;c16 -->
<g id="edge35" class="edge">
<title>v7:e&#45;&gt;c16:w</title>
<path fill="none" stroke="black" stroke-width="3" d="M454.84,-208C478.58,-208 487.22,-208.18 506.36,-208.23"/>
<polygon fill="black" stroke="black" stroke-width="3" points="503.3,-211.73 513.3,-208.24 503.31,-204.73 503.3,-211.73"/>
</g>
<!-- x8 -->
<g id="node20" class="node">
<title>x8</title>
<path fill="none" stroke="black" d="M676.84,-206.5C676.84,-206.5 728.84,-206.5 728.84,-206.5 734.84,-206.5 740.84,-212.5 740.84,-218.5 740.84,-218.5 740.84,-243.5 740.84,-243.5 740.84,-249.5 734.84,-255.5 728.84,-255.5 728.84,-255.5 676.84,-255.5 676.84,-255.5 670.84,-255.5 664.84,-249.5 664.84,-243.5 664.84,-243.5 664.84,-218.5 664.84,-218.5 664.84,-212.5 670.84,-206.5 676.84,-206.5"/>
<text text-anchor="middle" x="702.84" y="-238.2" font-family="Times,serif" font-size="14.00">2:2 &#45; 29:29</text>
<polyline fill="none" stroke="black" points="664.84,-231 740.84,-231"/>
<text text-anchor="middle" x="702.84" y="-213.7" font-family="Times,serif" font-size="14.00">1:0 &#45; 1:0</text>
</g>
<!-- c16&#45;&gt;x8 -->
<g id="edge8" class="edge">
<title>c16:e&#45;&gt;x8:w</title>
<path fill="none" stroke="black" stroke-width="3" d="M623.95,-199.21C635.89,-205.78 639.56,-221.49 651.5,-228.04"/>
<polygon fill="none" stroke="black" stroke-width="3" points="625.89,-199.68 619.12,-202.17 614.22,-196.88 620.99,-194.39 625.89,-199.68"/>
<polygon fill="none" stroke="black" stroke-width="3" points="649.54,-227.58 656.31,-225.08 661.21,-230.37 654.45,-232.86 649.54,-227.58"/>
</g>
<!-- n2 -->
<g id="node26" class="node">
<title>n2</title>
<ellipse fill="black" stroke="black" cx="842.09" cy="-243" rx="1.8" ry="1.8"/>
</g>
<!-- x8&#45;&gt;n2 -->
<g id="edge15" class="edge">
<title>x8:e&#45;&gt;n2:w</title>
<path fill="none" stroke="black" stroke-width="3" d="M741.84,-218.75C782.28,-218.75 792.64,-238.84 827.67,-242.45"/>
<polygon fill="black" stroke="black" stroke-width="3" points="824.12,-245.78 834.28,-242.78 824.47,-238.78 824.12,-245.78"/>
</g>
<!-- x8&#45;&gt;n2 -->
<g id="edge16" class="edge">
<title>x8:e&#45;&gt;n2:w</title>
<path fill="none" stroke="black" d="M741.84,-243.25C780.9,-243.25 793.41,-243.04 827.49,-243.01"/>
<polygon fill="black" stroke="black" points="827.3,-246.51 837.3,-243 827.3,-239.51 827.3,-246.51"/>
</g>
<!-- x9 -->
<g id="node21" class="node">
<title>x9</title>
<path fill="none" stroke="black" d="M938.09,-275C938.09,-275 1020.84,-275 1020.84,-275 1026.84,-275 1032.84,-281 1032.84,-287 1032.84,-287 1032.84,-299 1032.84,-299 1032.84,-305 1026.84,-311 1020.84,-311 1020.84,-311 938.09,-311 938.09,-311 932.09,-311 926.09,-305 926.09,-299 926.09,-299 926.09,-287 926.09,-287 926.09,-281 932.09,-275 938.09,-275"/>
<text text-anchor="middle" x="979.47" y="-288.2" font-family="Times,serif" font-size="14.00">27x 29:29 &#45; 26:0</text>
</g>
<!-- x10 -->
<g id="node22" class="node">
<title>x10</title>
<path fill="none" stroke="black" d="M1101.75,-298C1101.75,-298 1153.75,-298 1153.75,-298 1159.75,-298 1165.75,-304 1165.75,-310 1165.75,-310 1165.75,-322 1165.75,-322 1165.75,-328 1159.75,-334 1153.75,-334 1153.75,-334 1101.75,-334 1101.75,-334 1095.75,-334 1089.75,-328 1089.75,-322 1089.75,-322 1089.75,-310 1089.75,-310 1089.75,-304 1095.75,-298 1101.75,-298"/>
<text text-anchor="middle" x="1127.75" y="-311.2" font-family="Times,serif" font-size="14.00">26:0 &#45; 28:2</text>
</g>
<!-- x9&#45;&gt;x10 -->
<g id="edge9" class="edge">
<title>x9:e&#45;&gt;x10:w</title>
<path fill="none" stroke="black" stroke-width="3" d="M1045.68,-295.12C1057.83,-299.53 1063.89,-309.61 1076.11,-313.95"/>
<polygon fill="none" stroke="black" stroke-width="3" points="1047.35,-295.4 1040.78,-298.37 1035.51,-293.44 1042.08,-290.47 1047.35,-295.4"/>
<polygon fill="none" stroke="black" stroke-width="3" points="1074.24,-313.64 1080.8,-310.66 1086.08,-315.57 1079.52,-318.55 1074.24,-313.64"/>
</g>
<!-- x10&#45;&gt;n2 -->
<g id="edge14" class="edge">
<title>x10:e&#45;&gt;n2:w</title>
<path fill="none" stroke="black" stroke-width="3" d="M1166.75,-316.25C1174.87,-316.25 1171.65,-328.92 1165.75,-334.5 1141.22,-357.72 1123.5,-335.89 1089.75,-334.5 1016.83,-331.5 993.23,-349.61 926.09,-321 882.91,-302.6 804.24,-253.9 827.5,-244.56"/>
<polygon fill="black" stroke="black" stroke-width="3" points="824.89,-248.45 834.32,-243.62 823.93,-241.52 824.89,-248.45"/>
</g>
<!-- x12 -->
<g id="node24" class="node">
<title>x12</title>
<path fill="none" stroke="black" d="M1357.16,-190C1357.16,-190 1395.66,-190 1395.66,-190 1401.66,-190 1407.66,-196 1407.66,-202 1407.66,-202 1407.66,-214 1407.66,-214 1407.66,-220 1401.66,-226 1395.66,-226 1395.66,-226 1357.16,-226 1357.16,-226 1351.16,-226 1345.16,-220 1345.16,-214 1345.16,-214 1345.16,-202 1345.16,-202 1345.16,-196 1351.16,-190 1357.16,-190"/>
<text text-anchor="middle" x="1376.41" y="-203.2" font-family="Times,serif" font-size="14.00">4:0 &#45; 8:4</text>
</g>
<!-- x11&#45;&gt;x12 -->
<g id="edge10" class="edge">
<title>x11:e&#45;&gt;x12:w</title>
<path fill="none" stroke="black" stroke-width="3" d="M1298.09,-208C1310.8,-208 1318.66,-208 1331.43,-208"/>
<polygon fill="none" stroke="black" stroke-width="3" points="1299.86,-208 1293.86,-212 1287.86,-208 1293.86,-204 1299.86,-208"/>
<polygon fill="none" stroke="black" stroke-width="3" points="1329.45,-208 1335.45,-204 1341.45,-208 1335.45,-212 1329.45,-208"/>
</g>
<!-- x12&#45;&gt;n1 -->
<g id="edge11" class="edge">
<title>x12:e&#45;&gt;n1:w</title>
<path fill="none" stroke="black" stroke-width="3" d="M1408.66,-208.25C1437.68,-208.25 1435.63,-173.16 1456.64,-164.11"/>
<polygon fill="black" stroke="black" stroke-width="3" points="1454.03,-168.17 1463.2,-162.85 1452.72,-161.29 1454.03,-168.17"/>
</g>
<!-- n1&#45;&gt;x1 -->
<g id="edge13" class="edge">
<title>n1:e&#45;&gt;x1:w</title>
<path fill="none" stroke="black" stroke-width="3" d="M1471.26,-162C1482.63,-162 1487.94,-162.13 1495.81,-162.2"/>
<polygon fill="black" stroke="black" stroke-width="3" points="1492.7,-165.69 1502.72,-162.23 1492.73,-158.69 1492.7,-165.69"/>
</g>
<!-- n2&#45;&gt;x3 -->
<g id="edge17" class="edge">
<title>n2:e&#45;&gt;x3:w</title>
<path fill="none" stroke="black" stroke-width="3" d="M845.37,-243C878.73,-243 886.98,-223.76 914.85,-219.56"/>
<polygon fill="black" stroke="black" stroke-width="3" points="911.84,-223.28 921.56,-219.08 911.34,-216.3 911.84,-223.28"/>
</g>
<!-- n2&#45;&gt;x3 -->
<g id="edge18" class="edge">
<title>n2:e&#45;&gt;x3:w</title>
<path fill="none" stroke="black" stroke-width="3" d="M845.37,-243C877.18,-243 887.84,-243.2 914.86,-243.24"/>
<polygon fill="black" stroke="black" stroke-width="3" points="911.55,-246.74 921.55,-243.25 911.56,-239.74 911.55,-246.74"/>
</g>
<!-- n2&#45;&gt;x9 -->
<g id="edge19" class="edge">
<title>n2:e&#45;&gt;x9:w</title>
<path fill="none" stroke="black" stroke-width="3" d="M845.37,-243C883.5,-243 884.14,-283.91 914.94,-291.91"/>
<polygon fill="black" stroke="black" stroke-width="3" points="911.24,-294.98 921.58,-292.71 912.08,-288.03 911.24,-294.98"/>
</g>
</g>
</svg>
