<?xml version="1.0" encoding="UTF-8" standalone="no"?>
<!DOCTYPE svg PUBLIC "-//W3C//DTD SVG 1.1//EN"
 "http://www.w3.org/Graphics/SVG/1.1/DTD/svg11.dtd">
<!-- Generated by graphviz version 12.2.1 (20241206.2353)
 -->
<!-- Title: top Pages: 1 -->
<svg width="4371pt" height="688pt"
 viewBox="0.00 0.00 4370.69 688.00" xmlns="http://www.w3.org/2000/svg" xmlns:xlink="http://www.w3.org/1999/xlink">
<g id="graph0" class="graph" transform="scale(1 1) rotate(0) translate(4 684)">
<title>top</title>
<polygon fill="white" stroke="none" points="-4,4 -4,-684 4366.69,-684 4366.69,4 -4,4"/>
<text text-anchor="middle" x="2181.35" y="-7.2" font-family="Times,serif" font-size="14.00">top</text>
<!-- n14 -->
<g id="node1" class="node">
<title>n14</title>
<polygon fill="none" stroke="black" points="107.84,-211.54 107.84,-226.46 76.26,-237 31.59,-237 0,-226.46 0,-211.54 31.59,-201 76.26,-201 107.84,-211.54"/>
<text text-anchor="middle" x="53.92" y="-213.95" font-family="Times,serif" font-size="14.00">input_data</text>
</g>
<!-- x0 -->
<g id="node10" class="node">
<title>x0</title>
<path fill="none" stroke="black" d="M1430.52,-104.5C1430.52,-104.5 1469.02,-104.5 1469.02,-104.5 1475.02,-104.5 1481.02,-110.5 1481.02,-116.5 1481.02,-116.5 1481.02,-141.5 1481.02,-141.5 1481.02,-147.5 1475.02,-153.5 1469.02,-153.5 1469.02,-153.5 1430.52,-153.5 1430.52,-153.5 1424.52,-153.5 1418.52,-147.5 1418.52,-141.5 1418.52,-141.5 1418.52,-116.5 1418.52,-116.5 1418.52,-110.5 1424.52,-104.5 1430.52,-104.5"/>
<text text-anchor="middle" x="1449.77" y="-136.2" font-family="Times,serif" font-size="14.00">5:1 &#45; 5:1</text>
<polyline fill="none" stroke="black" points="1418.52,-129 1481.02,-129"/>
<text text-anchor="middle" x="1449.77" y="-111.7" font-family="Times,serif" font-size="14.00">0:0 &#45; 0:0</text>
</g>
<!-- n14&#45;&gt;x0 -->
<g id="edge41" class="edge">
<title>n14:e&#45;&gt;x0:w</title>
<path fill="none" stroke="black" stroke-width="3" d="M107.84,-219C135.95,-219 119.93,-181.78 143.84,-167 207.76,-127.47 236.07,-143 311.22,-143 311.22,-143 311.22,-143 925.7,-143 1140.44,-143 1196.96,-141.31 1406.14,-141.25"/>
<polygon fill="black" stroke="black" stroke-width="3" points="1402.98,-144.75 1412.98,-141.25 1402.98,-137.75 1402.98,-144.75"/>
</g>
<!-- x6 -->
<g id="node21" class="node">
<title>x6</title>
<path fill="none" stroke="black" d="M292.97,-77C292.97,-77 331.47,-77 331.47,-77 337.47,-77 343.47,-83 343.47,-89 343.47,-89 343.47,-101 343.47,-101 343.47,-107 337.47,-113 331.47,-113 331.47,-113 292.97,-113 292.97,-113 286.97,-113 280.97,-107 280.97,-101 280.97,-101 280.97,-89 280.97,-89 280.97,-83 286.97,-77 292.97,-77"/>
<text text-anchor="middle" x="312.22" y="-90.2" font-family="Times,serif" font-size="14.00">0:0 &#45; 0:0</text>
</g>
<!-- n14&#45;&gt;x6 -->
<g id="edge44" class="edge">
<title>n14:e&#45;&gt;x6:w</title>
<path fill="none" stroke="black" d="M107.84,-219C150.92,-219 111.36,-157.3 143.84,-129 187.9,-90.62 214.21,-94.54 268.68,-95.18"/>
<polygon fill="black" stroke="black" points="268.43,-98.68 278.45,-95.24 268.47,-91.68 268.43,-98.68"/>
</g>
<!-- c31 -->
<g id="node22" class="node">
<title>c31</title>
<polygon fill="none" stroke="black" points="2963.48,-237.5 2963.48,-286.5 3051.23,-286.5 3051.23,-237.5 2963.48,-237.5"/>
<text text-anchor="middle" x="2976.36" y="-269.2" font-family="Times,serif" font-size="14.00">A</text>
<polyline fill="none" stroke="black" points="2963.48,-262 2989.23,-262"/>
<text text-anchor="middle" x="2976.36" y="-244.7" font-family="Times,serif" font-size="14.00">B</text>
<polyline fill="none" stroke="black" points="2989.23,-237.5 2989.23,-286.5"/>
<text text-anchor="middle" x="3007.36" y="-265.2" font-family="Times,serif" font-size="14.00">$91</text>
<text text-anchor="middle" x="3007.36" y="-248.7" font-family="Times,serif" font-size="14.00">$or</text>
<polyline fill="none" stroke="black" points="3025.48,-237.5 3025.48,-286.5"/>
<text text-anchor="middle" x="3038.36" y="-257.2" font-family="Times,serif" font-size="14.00">Y</text>
</g>
<!-- n14&#45;&gt;c31 -->
<g id="edge36" class="edge">
<title>n14:e&#45;&gt;c31:w</title>
<path fill="none" stroke="black" stroke-width="3" d="M107.84,-219C153.82,-219 265.24,-181 311.22,-181 311.22,-181 311.22,-181 925.7,-181 1192.75,-181 1257.03,-226.1 1523.77,-239 1572.83,-241.37 1585.16,-239.58 1634.27,-239 1804.28,-237 1846.79,-235.74 2016.72,-230 2238.78,-222.5 2293.97,-208 2516.16,-208 2516.16,-208 2516.16,-208 2781.11,-208 2859.95,-208 2878.12,-245.93 2951.27,-249.48"/>
<polygon fill="black" stroke="black" stroke-width="3" points="2947.86,-252.9 2957.94,-249.64 2948.03,-245.91 2947.86,-252.9"/>
</g>
<!-- c33 -->
<g id="node28" class="node">
<title>c33</title>
<polygon fill="none" stroke="black" points="641.84,-233.5 641.84,-282.5 728.84,-282.5 728.84,-233.5 641.84,-233.5"/>
<text text-anchor="middle" x="654.72" y="-265.2" font-family="Times,serif" font-size="14.00">A</text>
<polyline fill="none" stroke="black" points="641.84,-258 667.59,-258"/>
<text text-anchor="middle" x="654.72" y="-240.7" font-family="Times,serif" font-size="14.00">B</text>
<polyline fill="none" stroke="black" points="667.59,-233.5 667.59,-282.5"/>
<text text-anchor="middle" x="685.34" y="-261.2" font-family="Times,serif" font-size="14.00">$7</text>
<text text-anchor="middle" x="685.34" y="-244.7" font-family="Times,serif" font-size="14.00">$eq</text>
<polyline fill="none" stroke="black" points="703.09,-233.5 703.09,-282.5"/>
<text text-anchor="middle" x="715.97" y="-253.2" font-family="Times,serif" font-size="14.00">Y</text>
</g>
<!-- n14&#45;&gt;c33 -->
<g id="edge37" class="edge">
<title>n14:e&#45;&gt;c33:w</title>
<path fill="none" stroke="black" stroke-width="3" d="M107.84,-219C198.23,-219 220.83,-219 311.22,-219 311.22,-219 311.22,-219 432.47,-219 509.98,-219 529.32,-225.6 605.84,-238 617.45,-239.88 622.52,-243.06 630.52,-244.7"/>
<polygon fill="black" stroke="black" stroke-width="3" points="627.04,-247.89 637.32,-245.33 627.68,-240.92 627.04,-247.89"/>
</g>
<!-- c35 -->
<g id="node30" class="node">
<title>c35</title>
<polygon fill="none" stroke="black" points="271.34,-342.5 271.34,-391.5 353.09,-391.5 353.09,-342.5 271.34,-342.5"/>
<text text-anchor="middle" x="284.22" y="-374.2" font-family="Times,serif" font-size="14.00">A</text>
<polyline fill="none" stroke="black" points="271.34,-367 297.09,-367"/>
<text text-anchor="middle" x="284.22" y="-349.7" font-family="Times,serif" font-size="14.00">B</text>
<polyline fill="none" stroke="black" points="297.09,-342.5 297.09,-391.5"/>
<text text-anchor="middle" x="312.22" y="-370.2" font-family="Times,serif" font-size="14.00">$3</text>
<text text-anchor="middle" x="312.22" y="-353.7" font-family="Times,serif" font-size="14.00">$lt</text>
<polyline fill="none" stroke="black" points="327.34,-342.5 327.34,-391.5"/>
<text text-anchor="middle" x="340.22" y="-362.2" font-family="Times,serif" font-size="14.00">Y</text>
</g>
<!-- n14&#45;&gt;c35 -->
<g id="edge38" class="edge">
<title>n14:e&#45;&gt;c35:w</title>
<path fill="none" stroke="black" stroke-width="3" d="M107.84,-219C162.25,-219 102.55,-300.57 143.84,-336 184.34,-370.75 210.33,-357.02 260.01,-354.99"/>
<polygon fill="black" stroke="black" stroke-width="3" points="256.88,-358.55 266.8,-354.84 256.73,-351.55 256.88,-358.55"/>
</g>
<!-- x11 -->
<g id="node31" class="node">
<title>x11</title>
<path fill="none" stroke="black" d="M170.34,-383.5C170.34,-383.5 208.84,-383.5 208.84,-383.5 214.84,-383.5 220.84,-389.5 220.84,-395.5 220.84,-395.5 220.84,-420.5 220.84,-420.5 220.84,-426.5 214.84,-432.5 208.84,-432.5 208.84,-432.5 170.34,-432.5 170.34,-432.5 164.34,-432.5 158.34,-426.5 158.34,-420.5 158.34,-420.5 158.34,-395.5 158.34,-395.5 158.34,-389.5 164.34,-383.5 170.34,-383.5"/>
<text text-anchor="middle" x="189.59" y="-415.2" font-family="Times,serif" font-size="14.00">5:1 &#45; 5:1</text>
<polyline fill="none" stroke="black" points="158.34,-408 220.84,-408"/>
<text text-anchor="middle" x="189.59" y="-390.7" font-family="Times,serif" font-size="14.00">1 &#45;&gt; 0:0</text>
</g>
<!-- n14&#45;&gt;x11 -->
<g id="edge42" class="edge">
<title>n14:e&#45;&gt;x11:w</title>
<path fill="none" stroke="black" stroke-width="3" d="M107.84,-219C195.81,-219 76.88,-402.58 146.26,-419.07"/>
<polygon fill="black" stroke="black" stroke-width="3" points="142.51,-422.19 152.83,-419.77 143.25,-415.23 142.51,-422.19"/>
</g>
<!-- c36 -->
<g id="node32" class="node">
<title>c36</title>
<polygon fill="none" stroke="black" points="509.84,-247.5 509.84,-296.5 605.84,-296.5 605.84,-247.5 509.84,-247.5"/>
<text text-anchor="middle" x="522.72" y="-279.2" font-family="Times,serif" font-size="14.00">A</text>
<polyline fill="none" stroke="black" points="509.84,-272 535.59,-272"/>
<text text-anchor="middle" x="522.72" y="-254.7" font-family="Times,serif" font-size="14.00">B</text>
<polyline fill="none" stroke="black" points="535.59,-247.5 535.59,-296.5"/>
<text text-anchor="middle" x="557.84" y="-275.2" font-family="Times,serif" font-size="14.00">$6</text>
<text text-anchor="middle" x="557.84" y="-258.7" font-family="Times,serif" font-size="14.00">$mul</text>
<polyline fill="none" stroke="black" points="580.09,-247.5 580.09,-296.5"/>
<text text-anchor="middle" x="592.97" y="-267.2" font-family="Times,serif" font-size="14.00">Y</text>
</g>
<!-- n14&#45;&gt;c36 -->
<g id="edge39" class="edge">
<title>n14:e&#45;&gt;c36:w</title>
<path fill="none" stroke="black" stroke-width="3" d="M107.84,-219C125.01,-219 127.09,-229.22 143.84,-233 299.21,-268.06 344.62,-260.15 498.57,-259.76"/>
<polygon fill="black" stroke="black" stroke-width="3" points="495.3,-263.27 505.3,-259.76 495.3,-256.27 495.3,-263.27"/>
</g>
<!-- x17 -->
<g id="node41" class="node">
<title>x17</title>
<path fill="none" stroke="black" d="M412.22,-25C412.22,-25 450.72,-25 450.72,-25 456.72,-25 462.72,-31 462.72,-37 462.72,-37 462.72,-49 462.72,-49 462.72,-55 456.72,-61 450.72,-61 450.72,-61 412.22,-61 412.22,-61 406.22,-61 400.22,-55 400.22,-49 400.22,-49 400.22,-37 400.22,-37 400.22,-31 406.22,-25 412.22,-25"/>
<text text-anchor="middle" x="431.47" y="-38.2" font-family="Times,serif" font-size="14.00">3:3 &#45; 0:0</text>
</g>
<!-- n14&#45;&gt;x17 -->
<g id="edge43" class="edge">
<title>n14:e&#45;&gt;x17:w</title>
<path fill="none" stroke="black" d="M107.84,-219C166.94,-219 100.23,-130.88 143.84,-91 226.22,-15.67 280.08,-41.37 387.91,-43.16"/>
<polygon fill="black" stroke="black" points="387.67,-46.65 397.7,-43.24 387.73,-39.65 387.67,-46.65"/>
</g>
<!-- c40 -->
<g id="node42" class="node">
<title>c40</title>
<polygon fill="none" stroke="black" points="143.84,-285.5 143.84,-326.5 235.34,-326.5 235.34,-285.5 143.84,-285.5"/>
<text text-anchor="middle" x="156.72" y="-301.2" font-family="Times,serif" font-size="14.00">A</text>
<polyline fill="none" stroke="black" points="169.59,-285.5 169.59,-326.5"/>
<text text-anchor="middle" x="189.59" y="-309.2" font-family="Times,serif" font-size="14.00">$4</text>
<text text-anchor="middle" x="189.59" y="-292.7" font-family="Times,serif" font-size="14.00">$not</text>
<polyline fill="none" stroke="black" points="209.59,-285.5 209.59,-326.5"/>
<text text-anchor="middle" x="222.47" y="-301.2" font-family="Times,serif" font-size="14.00">Y</text>
</g>
<!-- n14&#45;&gt;c40 -->
<g id="edge40" class="edge">
<title>n14:e&#45;&gt;c40:w</title>
<path fill="none" stroke="black" stroke-width="3" d="M107.84,-219C145.04,-219 111.59,-287.6 132.78,-303.14"/>
<polygon fill="black" stroke="black" stroke-width="3" points="128.9,-305.69 139.47,-305.02 130.79,-298.95 128.9,-305.69"/>
</g>
<!-- n15 -->
<g id="node2" class="node">
<title>n15</title>
<polygon fill="none" stroke="black" points="4115.42,-490.54 4115.42,-505.46 4080.91,-516 4032.11,-516 3997.61,-505.46 3997.61,-490.54 4032.11,-480 4080.91,-480 4115.42,-490.54"/>
<text text-anchor="middle" x="4056.51" y="-492.95" font-family="Times,serif" font-size="14.00">output_data</text>
</g>
<!-- x33 -->
<g id="node61" class="node">
<title>x33</title>
<path fill="none" stroke="black" d="M4163.42,-456C4163.42,-456 4232.67,-456 4232.67,-456 4238.67,-456 4244.67,-462 4244.67,-468 4244.67,-468 4244.67,-480 4244.67,-480 4244.67,-486 4238.67,-492 4232.67,-492 4232.67,-492 4163.42,-492 4163.42,-492 4157.42,-492 4151.42,-486 4151.42,-480 4151.42,-480 4151.42,-468 4151.42,-468 4151.42,-462 4157.42,-456 4163.42,-456"/>
<text text-anchor="middle" x="4198.04" y="-469.2" font-family="Times,serif" font-size="14.00">6x 37:37 &#45; 5:0</text>
</g>
<!-- n15&#45;&gt;x33 -->
<g id="edge48" class="edge">
<title>n15:e&#45;&gt;x33:w</title>
<path fill="none" stroke="black" stroke-width="3" d="M4115.42,-498C4129.95,-498 4132.12,-484.36 4140.67,-477.75"/>
<polygon fill="black" stroke="black" stroke-width="3" points="4138.68,-482.08 4147.1,-475.66 4136.51,-475.43 4138.68,-482.08"/>
</g>
<!-- n16 -->
<g id="node3" class="node">
<title>n16</title>
<polygon fill="none" stroke="black" points="924.7,-276 869.45,-258 924.7,-240 979.95,-258 924.7,-276"/>
<text text-anchor="middle" x="924.7" y="-252.95" font-family="Times,serif" font-size="14.00">temp_0</text>
</g>
<!-- c25 -->
<g id="node9" class="node">
<title>c25</title>
<polygon fill="none" stroke="black" points="1532.15,-180.5 1532.15,-229.5 1625.9,-229.5 1625.9,-180.5 1532.15,-180.5"/>
<text text-anchor="middle" x="1545.02" y="-212.2" font-family="Times,serif" font-size="14.00">A</text>
<polyline fill="none" stroke="black" points="1532.15,-205 1557.9,-205"/>
<text text-anchor="middle" x="1545.02" y="-187.7" font-family="Times,serif" font-size="14.00">B</text>
<polyline fill="none" stroke="black" points="1557.9,-180.5 1557.9,-229.5"/>
<text text-anchor="middle" x="1579.02" y="-208.2" font-family="Times,serif" font-size="14.00">$13</text>
<text text-anchor="middle" x="1579.02" y="-191.7" font-family="Times,serif" font-size="14.00">$add</text>
<polyline fill="none" stroke="black" points="1600.15,-180.5 1600.15,-229.5"/>
<text text-anchor="middle" x="1613.02" y="-200.2" font-family="Times,serif" font-size="14.00">Y</text>
</g>
<!-- n16&#45;&gt;c25 -->
<g id="edge50" class="edge">
<title>n16:e&#45;&gt;c25:w</title>
<path fill="none" stroke="black" d="M982.32,-258C1157.54,-258 1202.75,-260.65 1375.77,-233 1442.36,-222.36 1458.15,-195.87 1519.94,-193"/>
<polygon fill="black" stroke="black" points="1519.72,-196.51 1529.63,-192.78 1519.56,-189.51 1519.72,-196.51"/>
</g>
<!-- c28 -->
<g id="node16" class="node">
<title>c28</title>
<polygon fill="none" stroke="black" points="3189.86,-557.5 3189.86,-606.5 3284.36,-606.5 3284.36,-557.5 3189.86,-557.5"/>
<text text-anchor="middle" x="3202.73" y="-589.2" font-family="Times,serif" font-size="14.00">A</text>
<polyline fill="none" stroke="black" points="3189.86,-582 3215.61,-582"/>
<text text-anchor="middle" x="3202.73" y="-564.7" font-family="Times,serif" font-size="14.00">B</text>
<polyline fill="none" stroke="black" points="3215.61,-557.5 3215.61,-606.5"/>
<text text-anchor="middle" x="3237.11" y="-585.2" font-family="Times,serif" font-size="14.00">$107</text>
<text text-anchor="middle" x="3237.11" y="-568.7" font-family="Times,serif" font-size="14.00">$or</text>
<polyline fill="none" stroke="black" points="3258.61,-557.5 3258.61,-606.5"/>
<text text-anchor="middle" x="3271.48" y="-577.2" font-family="Times,serif" font-size="14.00">Y</text>
</g>
<!-- n16&#45;&gt;c28 -->
<g id="edge51" class="edge">
<title>n16:e&#45;&gt;c28:w</title>
<path fill="none" stroke="black" d="M982.32,-258C1166.31,-258 1614.1,-399.08 1780.77,-477 1798.42,-485.25 1798.35,-495.68 1816.77,-502 1906.63,-532.82 2575.49,-548 2670.48,-548 2670.48,-548 2670.48,-548 3008.36,-548 3045.57,-548 3132.81,-566.25 3178.43,-569.32"/>
<polygon fill="black" stroke="black" points="3178.22,-572.81 3188.34,-569.69 3178.48,-565.81 3178.22,-572.81"/>
</g>
<!-- c29 -->
<g id="node18" class="node">
<title>c29</title>
<polygon fill="none" stroke="black" points="1202.41,-480.5 1202.41,-521.5 1293.91,-521.5 1293.91,-480.5 1202.41,-480.5"/>
<text text-anchor="middle" x="1215.29" y="-496.2" font-family="Times,serif" font-size="14.00">A</text>
<polyline fill="none" stroke="black" points="1228.16,-480.5 1228.16,-521.5"/>
<text text-anchor="middle" x="1248.16" y="-504.2" font-family="Times,serif" font-size="14.00">$74</text>
<text text-anchor="middle" x="1248.16" y="-487.7" font-family="Times,serif" font-size="14.00">$not</text>
<polyline fill="none" stroke="black" points="1268.16,-480.5 1268.16,-521.5"/>
<text text-anchor="middle" x="1281.04" y="-496.2" font-family="Times,serif" font-size="14.00">Y</text>
</g>
<!-- n16&#45;&gt;c29 -->
<g id="edge52" class="edge">
<title>n16:e&#45;&gt;c29:w</title>
<path fill="none" stroke="black" d="M982.32,-258C1038.75,-258 1076.55,-435.67 1120.55,-471 1147.31,-492.49 1160.2,-499.74 1190.08,-501.03"/>
<polygon fill="black" stroke="black" points="1189.83,-504.52 1199.9,-501.22 1189.97,-497.53 1189.83,-504.52"/>
</g>
<!-- c30 -->
<g id="node20" class="node">
<title>c30</title>
<polygon fill="none" stroke="black" points="1204.29,-65.5 1204.29,-114.5 1292.04,-114.5 1292.04,-65.5 1204.29,-65.5"/>
<text text-anchor="middle" x="1217.16" y="-97.2" font-family="Times,serif" font-size="14.00">A</text>
<polyline fill="none" stroke="black" points="1204.29,-90 1230.04,-90"/>
<text text-anchor="middle" x="1217.16" y="-72.7" font-family="Times,serif" font-size="14.00">B</text>
<polyline fill="none" stroke="black" points="1230.04,-65.5 1230.04,-114.5"/>
<text text-anchor="middle" x="1248.16" y="-93.2" font-family="Times,serif" font-size="14.00">$81</text>
<text text-anchor="middle" x="1248.16" y="-76.7" font-family="Times,serif" font-size="14.00">$or</text>
<polyline fill="none" stroke="black" points="1266.29,-65.5 1266.29,-114.5"/>
<text text-anchor="middle" x="1279.16" y="-85.2" font-family="Times,serif" font-size="14.00">Y</text>
</g>
<!-- n16&#45;&gt;c30 -->
<g id="edge53" class="edge">
<title>n16:e&#45;&gt;c30:w</title>
<path fill="none" stroke="black" d="M982.32,-258C1098.6,-258 1084.24,-112.13 1192.1,-102.72"/>
<polygon fill="black" stroke="black" points="1191.93,-106.24 1201.77,-102.31 1191.63,-99.24 1191.93,-106.24"/>
</g>
<!-- x14 -->
<g id="node37" class="node">
<title>x14</title>
<path fill="none" stroke="black" d="M1559.77,-91.5C1559.77,-91.5 1598.27,-91.5 1598.27,-91.5 1604.27,-91.5 1610.27,-97.5 1610.27,-103.5 1610.27,-103.5 1610.27,-128.5 1610.27,-128.5 1610.27,-134.5 1604.27,-140.5 1598.27,-140.5 1598.27,-140.5 1559.77,-140.5 1559.77,-140.5 1553.77,-140.5 1547.77,-134.5 1547.77,-128.5 1547.77,-128.5 1547.77,-103.5 1547.77,-103.5 1547.77,-97.5 1553.77,-91.5 1559.77,-91.5"/>
<text text-anchor="middle" x="1579.02" y="-123.2" font-family="Times,serif" font-size="14.00">0 &#45;&gt; 4:1</text>
<polyline fill="none" stroke="black" points="1547.77,-116 1610.27,-116"/>
<text text-anchor="middle" x="1579.02" y="-98.7" font-family="Times,serif" font-size="14.00">0:0 &#45; 0:0</text>
</g>
<!-- n16&#45;&gt;x14 -->
<g id="edge54" class="edge">
<title>n16:e&#45;&gt;x14:w</title>
<path fill="none" stroke="black" d="M982.32,-258C985.89,-258 1484.62,-164.67 1487.77,-163 1516.77,-147.66 1511.59,-113.23 1535.54,-105.37"/>
<polygon fill="black" stroke="black" points="1535.88,-108.86 1545.27,-103.97 1534.88,-101.93 1535.88,-108.86"/>
</g>
<!-- x20 -->
<g id="node48" class="node">
<title>x20</title>
<path fill="none" stroke="black" d="M1222.16,-412.5C1222.16,-412.5 1274.16,-412.5 1274.16,-412.5 1280.16,-412.5 1286.16,-418.5 1286.16,-424.5 1286.16,-424.5 1286.16,-449.5 1286.16,-449.5 1286.16,-455.5 1280.16,-461.5 1274.16,-461.5 1274.16,-461.5 1222.16,-461.5 1222.16,-461.5 1216.16,-461.5 1210.16,-455.5 1210.16,-449.5 1210.16,-449.5 1210.16,-424.5 1210.16,-424.5 1210.16,-418.5 1216.16,-412.5 1222.16,-412.5"/>
<text text-anchor="middle" x="1248.16" y="-444.2" font-family="Times,serif" font-size="14.00">29:0 &#45; 30:1</text>
<polyline fill="none" stroke="black" points="1210.16,-437 1286.16,-437"/>
<text text-anchor="middle" x="1248.16" y="-419.7" font-family="Times,serif" font-size="14.00">0:0 &#45; 0:0</text>
</g>
<!-- n16&#45;&gt;x20 -->
<g id="edge55" class="edge">
<title>n16:e&#45;&gt;x20:w</title>
<path fill="none" stroke="black" d="M982.32,-258C1069.76,-258 1045.66,-352.86 1120.55,-398 1152.34,-417.16 1165.41,-423.52 1197.89,-424.58"/>
<polygon fill="black" stroke="black" points="1197.6,-428.08 1207.65,-424.73 1197.7,-421.08 1197.6,-428.08"/>
</g>
<!-- n17 -->
<g id="node4" class="node">
<title>n17</title>
<polygon fill="none" stroke="black" points="1579.02,-519 1523.77,-501 1579.02,-483 1634.27,-501 1579.02,-519"/>
<text text-anchor="middle" x="1579.02" y="-495.95" font-family="Times,serif" font-size="14.00">temp_1</text>
</g>
<!-- x1 -->
<g id="node12" class="node">
<title>x1</title>
<path fill="none" stroke="black" d="M1704.02,-486.5C1704.02,-486.5 1747.02,-486.5 1747.02,-486.5 1753.02,-486.5 1759.02,-492.5 1759.02,-498.5 1759.02,-498.5 1759.02,-523.5 1759.02,-523.5 1759.02,-529.5 1753.02,-535.5 1747.02,-535.5 1747.02,-535.5 1704.02,-535.5 1704.02,-535.5 1698.02,-535.5 1692.02,-529.5 1692.02,-523.5 1692.02,-523.5 1692.02,-498.5 1692.02,-498.5 1692.02,-492.5 1698.02,-486.5 1704.02,-486.5"/>
<text text-anchor="middle" x="1725.52" y="-518.2" font-family="Times,serif" font-size="14.00">1 &#45;&gt; 23:1</text>
<polyline fill="none" stroke="black" points="1692.02,-511 1759.02,-511"/>
<text text-anchor="middle" x="1725.52" y="-493.7" font-family="Times,serif" font-size="14.00">0:0 &#45; 0:0</text>
</g>
<!-- n17&#45;&gt;x1 -->
<g id="edge59" class="edge">
<title>n17:e&#45;&gt;x1:w</title>
<path fill="none" stroke="black" d="M1634.27,-501C1655.37,-501 1663.21,-499.43 1679.96,-498.91"/>
<polygon fill="black" stroke="black" points="1679.56,-502.42 1689.51,-498.77 1679.46,-495.42 1679.56,-502.42"/>
</g>
<!-- x18 -->
<g id="node44" class="node">
<title>x18</title>
<path fill="none" stroke="black" d="M2198.22,-552.5C2198.22,-552.5 2241.22,-552.5 2241.22,-552.5 2247.22,-552.5 2253.22,-558.5 2253.22,-564.5 2253.22,-564.5 2253.22,-589.5 2253.22,-589.5 2253.22,-595.5 2247.22,-601.5 2241.22,-601.5 2241.22,-601.5 2198.22,-601.5 2198.22,-601.5 2192.22,-601.5 2186.22,-595.5 2186.22,-589.5 2186.22,-589.5 2186.22,-564.5 2186.22,-564.5 2186.22,-558.5 2192.22,-552.5 2198.22,-552.5"/>
<text text-anchor="middle" x="2219.72" y="-584.2" font-family="Times,serif" font-size="14.00">1 &#45;&gt; 20:1</text>
<polyline fill="none" stroke="black" points="2186.22,-577 2253.22,-577"/>
<text text-anchor="middle" x="2219.72" y="-559.7" font-family="Times,serif" font-size="14.00">0:0 &#45; 0:0</text>
</g>
<!-- n17&#45;&gt;x18 -->
<g id="edge58" class="edge">
<title>n17:e&#45;&gt;x18:w</title>
<path fill="none" stroke="black" d="M1634.27,-501C1659.54,-501 1647.65,-533.74 1670.27,-545 1871.92,-645.33 1953.47,-567.43 2173.93,-564.82"/>
<polygon fill="black" stroke="black" points="2173.73,-568.32 2183.71,-564.76 2173.69,-561.32 2173.73,-568.32"/>
</g>
<!-- n18 -->
<g id="node5" class="node">
<title>n18</title>
<polygon fill="none" stroke="black" points="1725.52,-225 1670.27,-207 1725.52,-189 1780.77,-207 1725.52,-225"/>
<text text-anchor="middle" x="1725.52" y="-201.95" font-family="Times,serif" font-size="14.00">temp_2</text>
</g>
<!-- c26 -->
<g id="node11" class="node">
<title>c26</title>
<polygon fill="none" stroke="black" points="1869.87,-443.5 1869.87,-492.5 1963.62,-492.5 1963.62,-443.5 1869.87,-443.5"/>
<text text-anchor="middle" x="1882.75" y="-475.2" font-family="Times,serif" font-size="14.00">A</text>
<polyline fill="none" stroke="black" points="1869.87,-468 1895.62,-468"/>
<text text-anchor="middle" x="1882.75" y="-450.7" font-family="Times,serif" font-size="14.00">B</text>
<polyline fill="none" stroke="black" points="1895.62,-443.5 1895.62,-492.5"/>
<text text-anchor="middle" x="1916.75" y="-471.2" font-family="Times,serif" font-size="14.00">$19</text>
<text text-anchor="middle" x="1916.75" y="-454.7" font-family="Times,serif" font-size="14.00">$add</text>
<polyline fill="none" stroke="black" points="1937.87,-443.5 1937.87,-492.5"/>
<text text-anchor="middle" x="1950.75" y="-463.2" font-family="Times,serif" font-size="14.00">Y</text>
</g>
<!-- n18&#45;&gt;c26 -->
<g id="edge61" class="edge">
<title>n18:e&#45;&gt;c26:w</title>
<path fill="none" stroke="black" stroke-width="3" d="M1780.77,-207C1835.41,-207 1813.81,-422.9 1858.02,-452.42"/>
<polygon fill="black" stroke="black" stroke-width="3" points="1853.94,-454.83 1864.53,-454.42 1856,-448.14 1853.94,-454.83"/>
</g>
<!-- c37 -->
<g id="node33" class="node">
<title>c37</title>
<polygon fill="none" stroke="black" points="1868.75,-171.5 1868.75,-220.5 1964.75,-220.5 1964.75,-171.5 1868.75,-171.5"/>
<text text-anchor="middle" x="1881.62" y="-203.2" font-family="Times,serif" font-size="14.00">A</text>
<polyline fill="none" stroke="black" points="1868.75,-196 1894.5,-196"/>
<text text-anchor="middle" x="1881.62" y="-178.7" font-family="Times,serif" font-size="14.00">B</text>
<polyline fill="none" stroke="black" points="1894.5,-171.5 1894.5,-220.5"/>
<text text-anchor="middle" x="1916.75" y="-199.2" font-family="Times,serif" font-size="14.00">$16</text>
<text text-anchor="middle" x="1916.75" y="-182.7" font-family="Times,serif" font-size="14.00">$mul</text>
<polyline fill="none" stroke="black" points="1939,-171.5 1939,-220.5"/>
<text text-anchor="middle" x="1951.87" y="-191.2" font-family="Times,serif" font-size="14.00">Y</text>
</g>
<!-- n18&#45;&gt;c37 -->
<g id="edge62" class="edge">
<title>n18:e&#45;&gt;c37:w</title>
<path fill="none" stroke="black" stroke-width="3" d="M1780.77,-207C1815.36,-207 1826.73,-208 1856.42,-208.21"/>
<polygon fill="black" stroke="black" stroke-width="3" points="1853.19,-211.7 1863.21,-208.23 1853.22,-204.7 1853.19,-211.7"/>
</g>
<!-- n18&#45;&gt;c37 -->
<g id="edge63" class="edge">
<title>n18:e&#45;&gt;c37:w</title>
<path fill="none" stroke="black" stroke-width="3" d="M1780.77,-207C1816.72,-207 1825.98,-188.23 1856.51,-184.42"/>
<polygon fill="black" stroke="black" stroke-width="3" points="1853.44,-188.11 1863.21,-184.02 1853.02,-181.12 1853.44,-188.11"/>
</g>
<!-- n19 -->
<g id="node6" class="node">
<title>n19</title>
<polygon fill="none" stroke="black" points="3375.61,-245 3320.36,-227 3375.61,-209 3430.86,-227 3375.61,-245"/>
<text text-anchor="middle" x="3375.61" y="-221.95" font-family="Times,serif" font-size="14.00">temp_4</text>
</g>
<!-- c32 -->
<g id="node25" class="node">
<title>c32</title>
<polygon fill="none" stroke="black" points="3467.61,-313.5 3467.61,-362.5 3559.86,-362.5 3559.86,-313.5 3467.61,-313.5"/>
<text text-anchor="middle" x="3480.48" y="-345.2" font-family="Times,serif" font-size="14.00">A</text>
<polyline fill="none" stroke="black" points="3467.61,-338 3493.36,-338"/>
<text text-anchor="middle" x="3480.48" y="-320.7" font-family="Times,serif" font-size="14.00">B</text>
<polyline fill="none" stroke="black" points="3493.36,-313.5 3493.36,-362.5"/>
<text text-anchor="middle" x="3513.73" y="-341.2" font-family="Times,serif" font-size="14.00">$94</text>
<text text-anchor="middle" x="3513.73" y="-324.7" font-family="Times,serif" font-size="14.00">$xor</text>
<polyline fill="none" stroke="black" points="3534.11,-313.5 3534.11,-362.5"/>
<text text-anchor="middle" x="3546.98" y="-333.2" font-family="Times,serif" font-size="14.00">Y</text>
</g>
<!-- n19&#45;&gt;c32 -->
<g id="edge65" class="edge">
<title>n19:e&#45;&gt;c32:w</title>
<path fill="none" stroke="black" d="M3430.86,-227C3473.01,-227 3430.37,-307.4 3455.96,-323.11"/>
<polygon fill="black" stroke="black" points="3454.84,-326.44 3465.39,-325.39 3456.49,-319.64 3454.84,-326.44"/>
</g>
<!-- n20 -->
<g id="node7" class="node">
<title>n20</title>
<polygon fill="none" stroke="black" points="2348.97,-452 2293.72,-434 2348.97,-416 2404.22,-434 2348.97,-452"/>
<text text-anchor="middle" x="2348.97" y="-428.95" font-family="Times,serif" font-size="14.00">temp_5</text>
</g>
<!-- x3 -->
<g id="node15" class="node">
<title>x3</title>
<path fill="none" stroke="black" d="M3211.11,-501C3211.11,-501 3263.11,-501 3263.11,-501 3269.11,-501 3275.11,-507 3275.11,-513 3275.11,-513 3275.11,-525 3275.11,-525 3275.11,-531 3269.11,-537 3263.11,-537 3263.11,-537 3211.11,-537 3211.11,-537 3205.11,-537 3199.11,-531 3199.11,-525 3199.11,-525 3199.11,-513 3199.11,-513 3199.11,-507 3205.11,-501 3211.11,-501"/>
<text text-anchor="middle" x="3237.11" y="-514.2" font-family="Times,serif" font-size="14.00">16:0 &#45; 16:0</text>
</g>
<!-- n20&#45;&gt;x3 -->
<g id="edge74" class="edge">
<title>n20:e&#45;&gt;x3:w</title>
<path fill="none" stroke="black" stroke-width="3" d="M2404.22,-434C2432.33,-434 2416.03,-471.68 2440.22,-486 2528.76,-538.42 2567.59,-510 2670.48,-510 2670.48,-510 2670.48,-510 3008.36,-510 3088.83,-510 3111.57,-518.4 3186.64,-519.19"/>
<polygon fill="black" stroke="black" stroke-width="3" points="3183.55,-522.67 3193.56,-519.23 3183.58,-515.68 3183.55,-522.67"/>
</g>
<!-- c41 -->
<g id="node43" class="node">
<title>c41</title>
<polygon fill="none" stroke="black" points="2472.16,-576.5 2472.16,-625.5 2562.16,-625.5 2562.16,-576.5 2472.16,-576.5"/>
<text text-anchor="middle" x="2485.04" y="-608.2" font-family="Times,serif" font-size="14.00">A</text>
<polyline fill="none" stroke="black" points="2472.16,-601 2497.91,-601"/>
<text text-anchor="middle" x="2485.04" y="-583.7" font-family="Times,serif" font-size="14.00">B</text>
<polyline fill="none" stroke="black" points="2497.91,-576.5 2497.91,-625.5"/>
<text text-anchor="middle" x="2517.16" y="-604.2" font-family="Times,serif" font-size="14.00">$25</text>
<text text-anchor="middle" x="2517.16" y="-587.7" font-family="Times,serif" font-size="14.00">$shl</text>
<polyline fill="none" stroke="black" points="2536.41,-576.5 2536.41,-625.5"/>
<text text-anchor="middle" x="2549.29" y="-596.2" font-family="Times,serif" font-size="14.00">Y</text>
</g>
<!-- n20&#45;&gt;c41 -->
<g id="edge70" class="edge">
<title>n20:e&#45;&gt;c41:w</title>
<path fill="none" stroke="black" stroke-width="3" d="M2404.22,-434C2474.91,-434 2405.11,-571.72 2459.89,-587.32"/>
<polygon fill="black" stroke="black" stroke-width="3" points="2456.3,-590.39 2466.66,-588.18 2457.18,-583.44 2456.3,-590.39"/>
</g>
<!-- c43 -->
<g id="node50" class="node">
<title>c43</title>
<polygon fill="none" stroke="black" points="3743.11,-473.5 3743.11,-522.5 3836.11,-522.5 3836.11,-473.5 3743.11,-473.5"/>
<text text-anchor="middle" x="3755.98" y="-505.2" font-family="Times,serif" font-size="14.00">A</text>
<polyline fill="none" stroke="black" points="3743.11,-498 3768.86,-498"/>
<text text-anchor="middle" x="3755.98" y="-480.7" font-family="Times,serif" font-size="14.00">B</text>
<polyline fill="none" stroke="black" points="3768.86,-473.5 3768.86,-522.5"/>
<text text-anchor="middle" x="3789.61" y="-501.2" font-family="Times,serif" font-size="14.00">$53</text>
<text text-anchor="middle" x="3789.61" y="-484.7" font-family="Times,serif" font-size="14.00">$sub</text>
<polyline fill="none" stroke="black" points="3810.36,-473.5 3810.36,-522.5"/>
<text text-anchor="middle" x="3823.23" y="-493.2" font-family="Times,serif" font-size="14.00">Y</text>
</g>
<!-- n20&#45;&gt;c43 -->
<g id="edge71" class="edge">
<title>n20:e&#45;&gt;c43:w</title>
<path fill="none" stroke="black" stroke-width="3" d="M2404.22,-434C2423.21,-434 2422.18,-451.09 2440.22,-457 2537.67,-488.95 2567.93,-472 2670.48,-472 2670.48,-472 2670.48,-472 3514.73,-472 3612.54,-472 3639.41,-484.72 3731.81,-485.69"/>
<polygon fill="black" stroke="black" stroke-width="3" points="3728.55,-489.17 3738.57,-485.73 3728.58,-482.17 3728.55,-489.17"/>
</g>
<!-- x24 -->
<g id="node52" class="node">
<title>x24</title>
<path fill="none" stroke="black" d="M2497.91,-369C2497.91,-369 2536.41,-369 2536.41,-369 2542.41,-369 2548.41,-375 2548.41,-381 2548.41,-381 2548.41,-393 2548.41,-393 2548.41,-399 2542.41,-405 2536.41,-405 2536.41,-405 2497.91,-405 2497.91,-405 2491.91,-405 2485.91,-399 2485.91,-393 2485.91,-393 2485.91,-381 2485.91,-381 2485.91,-375 2491.91,-369 2497.91,-369"/>
<text text-anchor="middle" x="2517.16" y="-382.2" font-family="Times,serif" font-size="14.00">5:1 &#45; 4:0</text>
</g>
<!-- n20&#45;&gt;x24 -->
<g id="edge72" class="edge">
<title>n20:e&#45;&gt;x24:w</title>
<path fill="none" stroke="black" stroke-width="3" d="M2404.22,-434C2441.46,-434 2443.46,-396.26 2473.54,-388.6"/>
<polygon fill="black" stroke="black" stroke-width="3" points="2470.89,-392.44 2480.4,-387.78 2470.06,-385.49 2470.89,-392.44"/>
</g>
<!-- x31 -->
<g id="node59" class="node">
<title>x31</title>
<path fill="none" stroke="black" d="M2491.16,-275C2491.16,-275 2543.16,-275 2543.16,-275 2549.16,-275 2555.16,-281 2555.16,-287 2555.16,-287 2555.16,-299 2555.16,-299 2555.16,-305 2549.16,-311 2543.16,-311 2543.16,-311 2491.16,-311 2491.16,-311 2485.16,-311 2479.16,-305 2479.16,-299 2479.16,-299 2479.16,-287 2479.16,-287 2479.16,-281 2485.16,-275 2491.16,-275"/>
<text text-anchor="middle" x="2517.16" y="-288.2" font-family="Times,serif" font-size="14.00">30:6 &#45; 24:0</text>
</g>
<!-- n20&#45;&gt;x31 -->
<g id="edge73" class="edge">
<title>n20:e&#45;&gt;x31:w</title>
<path fill="none" stroke="black" stroke-width="3" d="M2404.22,-434C2454.82,-434 2412.06,-368.04 2440.22,-326 2450.2,-311.11 2454.26,-298.98 2467.08,-294.81"/>
<polygon fill="black" stroke="black" stroke-width="3" points="2464.25,-298.74 2473.67,-293.88 2463.28,-291.8 2464.25,-298.74"/>
</g>
<!-- n21 -->
<g id="node8" class="node">
<title>n21</title>
<polygon fill="none" stroke="black" points="3651.86,-542 3596.61,-524 3651.86,-506 3707.11,-524 3651.86,-542"/>
<text text-anchor="middle" x="3651.86" y="-518.95" font-family="Times,serif" font-size="14.00">temp_6</text>
</g>
<!-- n21&#45;&gt;c43 -->
<g id="edge76" class="edge">
<title>n21:e&#45;&gt;c43:w</title>
<path fill="none" stroke="black" stroke-width="3" d="M3707.11,-524C3719.55,-524 3723.88,-516.74 3731.88,-512.77"/>
<polygon fill="black" stroke="black" stroke-width="3" points="3729.69,-516.85 3738.68,-511.25 3728.15,-510.02 3729.69,-516.85"/>
</g>
<!-- c25&#45;&gt;n18 -->
<g id="edge60" class="edge">
<title>c25:e&#45;&gt;n18:w</title>
<path fill="none" stroke="black" stroke-width="3" d="M1626.9,-205.25C1641.82,-205.25 1648.07,-206.3 1659.06,-206.77"/>
<polygon fill="black" stroke="black" stroke-width="3" points="1655.66,-210.2 1665.73,-206.91 1655.81,-203.2 1655.66,-210.2"/>
</g>
<!-- x0&#45;&gt;c25 -->
<g id="edge1" class="edge">
<title>x0:e&#45;&gt;c25:w</title>
<path fill="none" stroke="black" stroke-width="3" d="M1494.55,-132.35C1515.37,-146.33 1497.8,-199.91 1518.61,-213.89"/>
<polygon fill="none" stroke="black" stroke-width="3" points="1496.23,-132.8 1489.4,-135.11 1484.63,-129.7 1491.46,-127.38 1496.23,-132.8"/>
<polygon fill="none" stroke="black" stroke-width="3" points="1516.94,-213.45 1523.77,-211.14 1528.54,-216.55 1521.71,-218.86 1516.94,-213.45"/>
</g>
<!-- c42 -->
<g id="node47" class="node">
<title>c42</title>
<polygon fill="none" stroke="black" points="2052.72,-402.5 2052.72,-451.5 2145.72,-451.5 2145.72,-402.5 2052.72,-402.5"/>
<text text-anchor="middle" x="2065.6" y="-434.2" font-family="Times,serif" font-size="14.00">A</text>
<polyline fill="none" stroke="black" points="2052.72,-427 2078.47,-427"/>
<text text-anchor="middle" x="2065.6" y="-409.7" font-family="Times,serif" font-size="14.00">B</text>
<polyline fill="none" stroke="black" points="2078.47,-402.5 2078.47,-451.5"/>
<text text-anchor="middle" x="2099.22" y="-430.2" font-family="Times,serif" font-size="14.00">$22</text>
<text text-anchor="middle" x="2099.22" y="-413.7" font-family="Times,serif" font-size="14.00">$sub</text>
<polyline fill="none" stroke="black" points="2119.97,-402.5 2119.97,-451.5"/>
<text text-anchor="middle" x="2132.85" y="-422.2" font-family="Times,serif" font-size="14.00">Y</text>
</g>
<!-- c26&#45;&gt;c42 -->
<g id="edge27" class="edge">
<title>c26:e&#45;&gt;c42:w</title>
<path fill="none" stroke="black" stroke-width="3" d="M1964.62,-468.25C2001.82,-468.25 2010.06,-444.64 2041.6,-440.03"/>
<polygon fill="black" stroke="black" stroke-width="3" points="2038.46,-443.75 2048.19,-439.57 2037.97,-436.77 2038.46,-443.75"/>
</g>
<!-- x1&#45;&gt;c26 -->
<g id="edge2" class="edge">
<title>x1:e&#45;&gt;c26:w</title>
<path fill="none" stroke="black" stroke-width="3" d="M1772.87,-510.27C1808.18,-506.09 1820.68,-485.19 1855.97,-480.99"/>
<polygon fill="none" stroke="black" stroke-width="3" points="1774.7,-510.17 1768.94,-514.5 1762.72,-510.85 1768.49,-506.51 1774.7,-510.17"/>
<polygon fill="none" stroke="black" stroke-width="3" points="1854.19,-481.09 1859.95,-476.75 1866.17,-480.4 1860.41,-484.74 1854.19,-481.09"/>
</g>
<!-- c27 -->
<g id="node13" class="node">
<title>c27</title>
<polygon fill="none" stroke="black" points="3466.86,-506.5 3466.86,-555.5 3560.61,-555.5 3560.61,-506.5 3466.86,-506.5"/>
<text text-anchor="middle" x="3479.73" y="-538.2" font-family="Times,serif" font-size="14.00">A</text>
<polyline fill="none" stroke="black" points="3466.86,-531 3492.61,-531"/>
<text text-anchor="middle" x="3479.73" y="-513.7" font-family="Times,serif" font-size="14.00">B</text>
<polyline fill="none" stroke="black" points="3492.61,-506.5 3492.61,-555.5"/>
<text text-anchor="middle" x="3513.73" y="-534.2" font-family="Times,serif" font-size="14.00">$29</text>
<text text-anchor="middle" x="3513.73" y="-517.7" font-family="Times,serif" font-size="14.00">$and</text>
<polyline fill="none" stroke="black" points="3534.86,-506.5 3534.86,-555.5"/>
<text text-anchor="middle" x="3547.73" y="-526.2" font-family="Times,serif" font-size="14.00">Y</text>
</g>
<!-- c27&#45;&gt;n21 -->
<g id="edge75" class="edge">
<title>c27:e&#45;&gt;n21:w</title>
<path fill="none" stroke="black" stroke-width="3" d="M3560.61,-531.25C3572.34,-531.25 3577.37,-527.5 3585.33,-525.4"/>
<polygon fill="black" stroke="black" stroke-width="3" points="3582.61,-529.26 3592.1,-524.56 3581.75,-522.32 3582.61,-529.26"/>
</g>
<!-- x2 -->
<g id="node14" class="node">
<title>x2</title>
<path fill="none" stroke="black" d="M3349.61,-569.5C3349.61,-569.5 3401.61,-569.5 3401.61,-569.5 3407.61,-569.5 3413.61,-575.5 3413.61,-581.5 3413.61,-581.5 3413.61,-606.5 3413.61,-606.5 3413.61,-612.5 3407.61,-618.5 3401.61,-618.5 3401.61,-618.5 3349.61,-618.5 3349.61,-618.5 3343.61,-618.5 3337.61,-612.5 3337.61,-606.5 3337.61,-606.5 3337.61,-581.5 3337.61,-581.5 3337.61,-575.5 3343.61,-569.5 3349.61,-569.5"/>
<text text-anchor="middle" x="3375.61" y="-601.2" font-family="Times,serif" font-size="14.00">15:0 &#45; 16:1</text>
<polyline fill="none" stroke="black" points="3337.61,-594 3413.61,-594"/>
<text text-anchor="middle" x="3375.61" y="-576.7" font-family="Times,serif" font-size="14.00">0:0 &#45; 0:0</text>
</g>
<!-- x2&#45;&gt;c27 -->
<g id="edge3" class="edge">
<title>x2:e&#45;&gt;c27:w</title>
<path fill="none" stroke="black" stroke-width="3" d="M3426.84,-590.67C3440.92,-581.5 3440.5,-555.93 3454.51,-546.66"/>
<polygon fill="none" stroke="black" stroke-width="3" points="3428.79,-590.14 3424.05,-595.57 3417.21,-593.29 3421.95,-587.85 3428.79,-590.14"/>
<polygon fill="none" stroke="black" stroke-width="3" points="3452.68,-547.16 3457.4,-541.71 3464.25,-543.97 3459.53,-549.42 3452.68,-547.16"/>
</g>
<!-- x3&#45;&gt;c27 -->
<g id="edge4" class="edge">
<title>x3:e&#45;&gt;c27:w</title>
<path fill="none" stroke="black" stroke-width="3" d="M3289.01,-519C3359.23,-518.98 3383.85,-518.77 3454.17,-518.75"/>
<polygon fill="none" stroke="black" stroke-width="3" points="3290.81,-519 3284.81,-523 3278.81,-519 3284.81,-515 3290.81,-519"/>
<polygon fill="none" stroke="black" stroke-width="3" points="3452.15,-518.75 3458.15,-514.75 3464.15,-518.75 3458.15,-522.75 3452.15,-518.75"/>
</g>
<!-- c28&#45;&gt;x2 -->
<g id="edge66" class="edge">
<title>c28:e&#45;&gt;x2:w</title>
<path fill="none" stroke="black" d="M3284.36,-582.25C3303.22,-582.25 3310.59,-581.92 3325.15,-581.8"/>
<polygon fill="black" stroke="black" points="3325.11,-585.3 3335.09,-581.76 3325.08,-578.3 3325.11,-585.3"/>
</g>
<!-- x4 -->
<g id="node17" class="node">
<title>x4</title>
<path fill="none" stroke="black" d="M3103.36,-577C3103.36,-577 3141.86,-577 3141.86,-577 3147.86,-577 3153.86,-583 3153.86,-589 3153.86,-589 3153.86,-601 3153.86,-601 3153.86,-607 3147.86,-613 3141.86,-613 3141.86,-613 3103.36,-613 3103.36,-613 3097.36,-613 3091.36,-607 3091.36,-601 3091.36,-601 3091.36,-589 3091.36,-589 3091.36,-583 3097.36,-577 3103.36,-577"/>
<text text-anchor="middle" x="3122.61" y="-590.2" font-family="Times,serif" font-size="14.00">0:0 &#45; 0:0</text>
</g>
<!-- x4&#45;&gt;c28 -->
<g id="edge5" class="edge">
<title>x4:e&#45;&gt;c28:w</title>
<path fill="none" stroke="black" d="M3166.58,-594.81C3170.17,-594.7 3173.31,-594.56 3176.88,-594.45"/>
<polygon fill="none" stroke="black" points="3166.76,-594.81 3160.82,-598.9 3154.76,-594.99 3160.7,-590.9 3166.76,-594.81"/>
<polygon fill="none" stroke="black" points="3176.96,-594.45 3182.89,-590.36 3188.95,-594.26 3183.02,-598.35 3176.96,-594.45"/>
</g>
<!-- x5 -->
<g id="node19" class="node">
<title>x5</title>
<path fill="none" stroke="black" d="M1430.52,-483C1430.52,-483 1469.02,-483 1469.02,-483 1475.02,-483 1481.02,-489 1481.02,-495 1481.02,-495 1481.02,-507 1481.02,-507 1481.02,-513 1475.02,-519 1469.02,-519 1469.02,-519 1430.52,-519 1430.52,-519 1424.52,-519 1418.52,-513 1418.52,-507 1418.52,-507 1418.52,-495 1418.52,-495 1418.52,-489 1424.52,-483 1430.52,-483"/>
<text text-anchor="middle" x="1449.77" y="-496.2" font-family="Times,serif" font-size="14.00">0:0 &#45; 0:0</text>
</g>
<!-- c29&#45;&gt;x5 -->
<g id="edge6" class="edge">
<title>c29:e&#45;&gt;x5:w</title>
<path fill="none" stroke="black" d="M1307.82,-501.25C1347.93,-501.21 1364.5,-501.04 1404.59,-501.01"/>
<polygon fill="none" stroke="black" points="1307.81,-501.24 1301.81,-505.25 1295.81,-501.25 1301.81,-497.25 1307.81,-501.24"/>
<polygon fill="none" stroke="black" points="1404.62,-501.01 1410.62,-497 1416.62,-501 1410.62,-505 1404.62,-501.01"/>
</g>
<!-- x5&#45;&gt;n17 -->
<g id="edge57" class="edge">
<title>x5:e&#45;&gt;n17:w</title>
<path fill="none" stroke="black" d="M1482.02,-501.25C1496.08,-501.25 1502.15,-501.11 1512.34,-501.04"/>
<polygon fill="black" stroke="black" points="1512.27,-504.54 1522.26,-501 1512.25,-497.54 1512.27,-504.54"/>
</g>
<!-- c30&#45;&gt;x0 -->
<g id="edge80" class="edge">
<title>c30:e&#45;&gt;x0:w</title>
<path fill="none" stroke="black" d="M1293.04,-90.25C1345.63,-90.25 1359.14,-113.15 1406.23,-116.38"/>
<polygon fill="black" stroke="black" points="1405.9,-119.87 1416.01,-116.7 1406.13,-112.87 1405.9,-119.87"/>
</g>
<!-- x6&#45;&gt;c30 -->
<g id="edge7" class="edge">
<title>x6:e&#45;&gt;c30:w</title>
<path fill="none" stroke="black" d="M357.29,-94.99C441.23,-94.82 466.87,-93 556.84,-93 556.84,-93 556.84,-93 686.34,-93 911.82,-93 971.19,-78.33 1190.34,-77.77"/>
<polygon fill="none" stroke="black" points="357.37,-94.99 351.37,-98.99 345.37,-95 351.36,-90.99 357.37,-94.99"/>
<polygon fill="none" stroke="black" points="1190.38,-77.77 1196.38,-73.76 1202.38,-77.75 1196.39,-81.76 1190.38,-77.77"/>
</g>
<!-- x8 -->
<g id="node24" class="node">
<title>x8</title>
<path fill="none" stroke="black" d="M3103.36,-303.5C3103.36,-303.5 3141.86,-303.5 3141.86,-303.5 3147.86,-303.5 3153.86,-309.5 3153.86,-315.5 3153.86,-315.5 3153.86,-340.5 3153.86,-340.5 3153.86,-346.5 3147.86,-352.5 3141.86,-352.5 3141.86,-352.5 3103.36,-352.5 3103.36,-352.5 3097.36,-352.5 3091.36,-346.5 3091.36,-340.5 3091.36,-340.5 3091.36,-315.5 3091.36,-315.5 3091.36,-309.5 3097.36,-303.5 3103.36,-303.5"/>
<text text-anchor="middle" x="3122.61" y="-335.2" font-family="Times,serif" font-size="14.00">5:1 &#45; 5:1</text>
<polyline fill="none" stroke="black" points="3091.36,-328 3153.86,-328"/>
<text text-anchor="middle" x="3122.61" y="-310.7" font-family="Times,serif" font-size="14.00">0:0 &#45; 0:0</text>
</g>
<!-- c31&#45;&gt;x8 -->
<g id="edge9" class="edge">
<title>c31:e&#45;&gt;x8:w</title>
<path fill="none" stroke="black" stroke-width="3" d="M3064.04,-266.56C3075.99,-278.45 3067.61,-311.58 3079.44,-323.58"/>
<polygon fill="none" stroke="black" stroke-width="3" points="3066.04,-267.29 3059.03,-268.99 3054.77,-263.18 3061.78,-261.48 3066.04,-267.29"/>
<polygon fill="none" stroke="black" stroke-width="3" points="3077.57,-322.89 3084.58,-321.22 3088.82,-327.06 3081.8,-328.73 3077.57,-322.89"/>
</g>
<!-- x7 -->
<g id="node23" class="node">
<title>x7</title>
<path fill="none" stroke="black" d="M2866.11,-256C2866.11,-256 2904.61,-256 2904.61,-256 2910.61,-256 2916.61,-262 2916.61,-268 2916.61,-268 2916.61,-280 2916.61,-280 2916.61,-286 2910.61,-292 2904.61,-292 2904.61,-292 2866.11,-292 2866.11,-292 2860.11,-292 2854.11,-286 2854.11,-280 2854.11,-280 2854.11,-268 2854.11,-268 2854.11,-262 2860.11,-256 2866.11,-256"/>
<text text-anchor="middle" x="2885.36" y="-269.2" font-family="Times,serif" font-size="14.00">5:0 &#45; 5:0</text>
</g>
<!-- x7&#45;&gt;c31 -->
<g id="edge8" class="edge">
<title>x7:e&#45;&gt;c31:w</title>
<path fill="none" stroke="black" stroke-width="3" d="M2930.56,-274.04C2937.49,-274.09 2942.69,-274.16 2949.64,-274.21"/>
<polygon fill="none" stroke="black" stroke-width="3" points="2932.31,-274.05 2926.3,-278.03 2920.31,-274.01 2926.32,-270.03 2932.31,-274.05"/>
<polygon fill="none" stroke="black" stroke-width="3" points="2947.78,-274.2 2953.79,-270.22 2959.78,-274.24 2953.76,-278.22 2947.78,-274.2"/>
</g>
<!-- x8&#45;&gt;n20 -->
<g id="edge69" class="edge">
<title>x8:e&#45;&gt;n20:w</title>
<path fill="none" stroke="black" stroke-width="3" d="M3154.86,-340.25C3160.54,-340.25 3158.03,-349.14 3153.86,-353 3143.66,-362.43 3105.24,-353.44 3091.36,-353 3000.11,-350.11 2977.65,-340 2886.36,-340 2670.48,-340 2670.48,-340 2670.48,-340 2567.76,-340 2522.48,-298.47 2440.22,-360 2405.06,-386.3 2440.49,-427.25 2404.22,-452 2363.15,-480.03 2328.47,-486.17 2292.34,-452 2290.34,-450.11 2288.65,-447.39 2287.62,-444.64"/>
<polygon fill="black" stroke="black" stroke-width="3" points="2289.84,-448.88 2289.84,-438.29 2283.24,-446.57 2289.84,-448.88"/>
</g>
<!-- n5 -->
<g id="node68" class="node">
<title>n5</title>
<ellipse fill="black" stroke="black" cx="3237.11" cy="-350" rx="1.8" ry="1.8"/>
</g>
<!-- x8&#45;&gt;n5 -->
<g id="edge82" class="edge">
<title>x8:e&#45;&gt;n5:w</title>
<path fill="none" stroke="black" d="M3153.86,-315.75C3188.44,-315.75 3194.2,-343.16 3222.71,-348.94"/>
<polygon fill="black" stroke="black" points="3222.03,-352.39 3232.32,-349.86 3222.7,-345.42 3222.03,-352.39"/>
</g>
<!-- x10 -->
<g id="node27" class="node">
<title>x10</title>
<path fill="none" stroke="black" d="M3632.61,-382C3632.61,-382 3671.11,-382 3671.11,-382 3677.11,-382 3683.11,-388 3683.11,-394 3683.11,-394 3683.11,-406 3683.11,-406 3683.11,-412 3677.11,-418 3671.11,-418 3671.11,-418 3632.61,-418 3632.61,-418 3626.61,-418 3620.61,-412 3620.61,-406 3620.61,-406 3620.61,-394 3620.61,-394 3620.61,-388 3626.61,-382 3632.61,-382"/>
<text text-anchor="middle" x="3651.86" y="-395.2" font-family="Times,serif" font-size="14.00">0:0 &#45; 0:0</text>
</g>
<!-- c32&#45;&gt;x10 -->
<g id="edge11" class="edge">
<title>c32:e&#45;&gt;x10:w</title>
<path fill="none" stroke="black" d="M3573.08,-341.23C3591.61,-351.64 3588.56,-386.32 3606.93,-396.91"/>
<polygon fill="none" stroke="black" points="3573.16,-341.25 3566.39,-343.74 3561.48,-338.46 3568.25,-335.96 3573.16,-341.25"/>
<polygon fill="none" stroke="black" points="3607.07,-396.94 3613.85,-394.48 3618.73,-399.79 3611.95,-402.25 3607.07,-396.94"/>
</g>
<!-- x9 -->
<g id="node26" class="node">
<title>x9</title>
<path fill="none" stroke="black" d="M3356.36,-332C3356.36,-332 3394.86,-332 3394.86,-332 3400.86,-332 3406.86,-338 3406.86,-344 3406.86,-344 3406.86,-356 3406.86,-356 3406.86,-362 3400.86,-368 3394.86,-368 3394.86,-368 3356.36,-368 3356.36,-368 3350.36,-368 3344.36,-362 3344.36,-356 3344.36,-356 3344.36,-344 3344.36,-344 3344.36,-338 3350.36,-332 3356.36,-332"/>
<text text-anchor="middle" x="3375.61" y="-345.2" font-family="Times,serif" font-size="14.00">0:0 &#45; 0:0</text>
</g>
<!-- x9&#45;&gt;c32 -->
<g id="edge10" class="edge">
<title>x9:e&#45;&gt;c32:w</title>
<path fill="none" stroke="black" d="M3420.79,-350.02C3433.5,-350.07 3441.36,-350.18 3454.13,-350.23"/>
<polygon fill="none" stroke="black" points="3420.76,-350.02 3414.75,-354.01 3408.76,-350 3414.76,-346.01 3420.76,-350.02"/>
<polygon fill="none" stroke="black" points="3453.95,-350.23 3459.96,-346.24 3465.95,-350.25 3459.95,-354.24 3453.95,-350.23"/>
</g>
<!-- x10&#45;&gt;n20 -->
<g id="edge67" class="edge">
<title>x10:e&#45;&gt;n20:w</title>
<path fill="none" stroke="black" d="M3684.11,-400.25C3692.23,-400.25 3688.86,-412.77 3683.11,-418.5 3634.78,-466.62 3444.8,-434 3376.61,-434 2670.48,-434 2670.48,-434 2670.48,-434 2551.87,-434 2522.76,-448 2404.22,-452 2354.53,-453.68 2328.47,-486.17 2292.34,-452 2290.34,-450.11 2288.65,-447.39 2287.62,-444.64"/>
<polygon fill="black" stroke="black" points="2290.84,-446.02 2290.84,-435.43 2284.24,-443.71 2290.84,-446.02"/>
</g>
<!-- c33&#45;&gt;n16 -->
<g id="edge49" class="edge">
<title>c33:e&#45;&gt;n16:w</title>
<path fill="none" stroke="black" d="M728.84,-258.25C786.32,-258.25 803.46,-258.03 855.74,-258"/>
<polygon fill="black" stroke="black" points="855.56,-261.5 865.56,-258 855.55,-254.5 855.56,-261.5"/>
</g>
<!-- c34 -->
<g id="node29" class="node">
<title>c34</title>
<polygon fill="none" stroke="black" points="389.09,-293.5 389.09,-342.5 473.84,-342.5 473.84,-293.5 389.09,-293.5"/>
<text text-anchor="middle" x="401.97" y="-325.2" font-family="Times,serif" font-size="14.00">A</text>
<polyline fill="none" stroke="black" points="389.09,-318 414.84,-318"/>
<text text-anchor="middle" x="401.97" y="-300.7" font-family="Times,serif" font-size="14.00">B</text>
<polyline fill="none" stroke="black" points="414.84,-293.5 414.84,-342.5"/>
<text text-anchor="middle" x="431.47" y="-321.2" font-family="Times,serif" font-size="14.00">$5</text>
<text text-anchor="middle" x="431.47" y="-304.7" font-family="Times,serif" font-size="14.00">$gt</text>
<polyline fill="none" stroke="black" points="448.09,-293.5 448.09,-342.5"/>
<text text-anchor="middle" x="460.97" y="-313.2" font-family="Times,serif" font-size="14.00">Y</text>
</g>
<!-- c34&#45;&gt;c36 -->
<g id="edge84" class="edge">
<title>c34:e&#45;&gt;c36:w</title>
<path fill="none" stroke="black" d="M473.84,-318.25C491.21,-318.25 489.88,-297.08 499.36,-288.15"/>
<polygon fill="black" stroke="black" points="500.27,-291.55 508.42,-284.78 497.83,-284.98 500.27,-291.55"/>
</g>
<!-- c35&#45;&gt;c34 -->
<g id="edge85" class="edge">
<title>c35:e&#45;&gt;c34:w</title>
<path fill="none" stroke="black" d="M353.09,-367.25C371.37,-367.25 368.81,-343.75 378.62,-334.21"/>
<polygon fill="black" stroke="black" points="379.56,-337.6 387.68,-330.79 377.08,-331.05 379.56,-337.6"/>
</g>
<!-- x11&#45;&gt;c35 -->
<g id="edge12" class="edge">
<title>x11:e&#45;&gt;c35:w</title>
<path fill="none" stroke="black" stroke-width="3" d="M234.47,-404.92C244.49,-399.36 248.82,-387.7 258.91,-382.22"/>
<polygon fill="none" stroke="black" stroke-width="3" points="236.13,-404.52 231.24,-409.83 224.47,-407.36 229.35,-402.05 236.13,-404.52"/>
<polygon fill="none" stroke="black" stroke-width="3" points="257.04,-382.66 261.95,-377.38 268.71,-379.88 263.8,-385.16 257.04,-382.66"/>
</g>
<!-- c36&#45;&gt;c33 -->
<g id="edge32" class="edge">
<title>c36:e&#45;&gt;c33:w</title>
<path fill="none" stroke="black" stroke-width="3" d="M605.84,-272.25C617.23,-272.25 622.52,-271.24 630.39,-270.65"/>
<polygon fill="black" stroke="black" stroke-width="3" points="627.43,-274.26 637.3,-270.41 627.19,-267.27 627.43,-274.26"/>
</g>
<!-- x12 -->
<g id="node34" class="node">
<title>x12</title>
<path fill="none" stroke="black" d="M2073.22,-175C2073.22,-175 2125.22,-175 2125.22,-175 2131.22,-175 2137.22,-181 2137.22,-187 2137.22,-187 2137.22,-199 2137.22,-199 2137.22,-205 2131.22,-211 2125.22,-211 2125.22,-211 2073.22,-211 2073.22,-211 2067.22,-211 2061.22,-205 2061.22,-199 2061.22,-199 2061.22,-187 2061.22,-187 2061.22,-181 2067.22,-175 2073.22,-175"/>
<text text-anchor="middle" x="2099.22" y="-188.2" font-family="Times,serif" font-size="14.00">13:0 &#45; 13:0</text>
</g>
<!-- c37&#45;&gt;x12 -->
<g id="edge13" class="edge">
<title>c37:e&#45;&gt;x12:w</title>
<path fill="none" stroke="black" stroke-width="3" d="M1978.48,-196.14C2006.43,-195.65 2019.4,-193.61 2047.28,-193.11"/>
<polygon fill="none" stroke="black" stroke-width="3" points="1980.45,-196.13 1974.49,-200.18 1968.45,-196.23 1974.42,-192.18 1980.45,-196.13"/>
<polygon fill="none" stroke="black" stroke-width="3" points="2045.52,-193.13 2051.48,-189.08 2057.52,-193.02 2051.55,-197.08 2045.52,-193.13"/>
</g>
<!-- n8 -->
<g id="node69" class="node">
<title>n8</title>
<ellipse fill="black" stroke="black" cx="2219.72" cy="-136" rx="1.8" ry="1.8"/>
</g>
<!-- x12&#45;&gt;n8 -->
<g id="edge86" class="edge">
<title>x12:e&#45;&gt;n8:w</title>
<path fill="none" stroke="black" stroke-width="3" d="M2138.22,-193.25C2177.1,-193.25 2174.43,-146.64 2205.19,-137.53"/>
<polygon fill="black" stroke="black" stroke-width="3" points="2202.51,-141.43 2211.94,-136.61 2201.56,-134.49 2202.51,-141.43"/>
</g>
<!-- c38 -->
<g id="node35" class="node">
<title>c38</title>
<polygon fill="none" stroke="black" points="2469.16,-76.5 2469.16,-125.5 2565.16,-125.5 2565.16,-76.5 2469.16,-76.5"/>
<text text-anchor="middle" x="2482.04" y="-108.2" font-family="Times,serif" font-size="14.00">A</text>
<polyline fill="none" stroke="black" points="2469.16,-101 2494.91,-101"/>
<text text-anchor="middle" x="2482.04" y="-83.7" font-family="Times,serif" font-size="14.00">B</text>
<polyline fill="none" stroke="black" points="2494.91,-76.5 2494.91,-125.5"/>
<text text-anchor="middle" x="2517.16" y="-104.2" font-family="Times,serif" font-size="14.00">$17</text>
<text text-anchor="middle" x="2517.16" y="-87.7" font-family="Times,serif" font-size="14.00">$mul</text>
<polyline fill="none" stroke="black" points="2539.41,-76.5 2539.41,-125.5"/>
<text text-anchor="middle" x="2552.29" y="-96.2" font-family="Times,serif" font-size="14.00">Y</text>
</g>
<!-- x15 -->
<g id="node38" class="node">
<title>x15</title>
<path fill="none" stroke="black" d="M2645.48,-84C2645.48,-84 2697.48,-84 2697.48,-84 2703.48,-84 2709.48,-90 2709.48,-96 2709.48,-96 2709.48,-108 2709.48,-108 2709.48,-114 2703.48,-120 2697.48,-120 2697.48,-120 2645.48,-120 2645.48,-120 2639.48,-120 2633.48,-114 2633.48,-108 2633.48,-108 2633.48,-96 2633.48,-96 2633.48,-90 2639.48,-84 2645.48,-84"/>
<text text-anchor="middle" x="2671.48" y="-97.2" font-family="Times,serif" font-size="14.00">18:0 &#45; 18:0</text>
</g>
<!-- c38&#45;&gt;x15 -->
<g id="edge16" class="edge">
<title>c38:e&#45;&gt;x15:w</title>
<path fill="none" stroke="black" stroke-width="3" d="M2579.08,-101.3C2594.83,-101.44 2603.85,-101.81 2619.62,-101.95"/>
<polygon fill="none" stroke="black" stroke-width="3" points="2580.87,-101.31 2574.85,-105.29 2568.87,-101.26 2574.88,-97.29 2580.87,-101.31"/>
<polygon fill="none" stroke="black" stroke-width="3" points="2617.78,-101.94 2623.79,-97.96 2629.78,-101.99 2623.76,-105.96 2617.78,-101.94"/>
</g>
<!-- x13 -->
<g id="node36" class="node">
<title>x13</title>
<path fill="none" stroke="black" d="M2322.97,-118C2322.97,-118 2374.97,-118 2374.97,-118 2380.97,-118 2386.97,-124 2386.97,-130 2386.97,-130 2386.97,-142 2386.97,-142 2386.97,-148 2380.97,-154 2374.97,-154 2374.97,-154 2322.97,-154 2322.97,-154 2316.97,-154 2310.97,-148 2310.97,-142 2310.97,-142 2310.97,-130 2310.97,-130 2310.97,-124 2316.97,-118 2322.97,-118"/>
<text text-anchor="middle" x="2348.97" y="-131.2" font-family="Times,serif" font-size="14.00">13:0 &#45; 13:0</text>
</g>
<!-- x13&#45;&gt;c38 -->
<g id="edge14" class="edge">
<title>x13:e&#45;&gt;c38:w</title>
<path fill="none" stroke="black" stroke-width="3" d="M2400.89,-134.96C2423.21,-131.17 2432.9,-118.09 2455.21,-114.29"/>
<polygon fill="none" stroke="black" stroke-width="3" points="2402.63,-134.82 2396.97,-139.29 2390.67,-135.78 2396.33,-131.32 2402.63,-134.82"/>
<polygon fill="none" stroke="black" stroke-width="3" points="2453.51,-114.43 2459.17,-109.96 2465.47,-113.47 2459.81,-117.94 2453.51,-114.43"/>
</g>
<!-- x14&#45;&gt;c38 -->
<g id="edge15" class="edge">
<title>x14:e&#45;&gt;c38:w</title>
<path fill="none" stroke="black" stroke-width="3" d="M1624.09,-115.92C1749.34,-114.29 1784.27,-89 1915.75,-89 1915.75,-89 1915.75,-89 2220.72,-89 2326.29,-89 2355.85,-88.77 2455.34,-88.75"/>
<polygon fill="none" stroke="black" stroke-width="3" points="1625.98,-115.91 1620,-119.94 1613.98,-115.98 1619.95,-111.94 1625.98,-115.91"/>
<polygon fill="none" stroke="black" stroke-width="3" points="2453.46,-88.75 2459.46,-84.75 2465.46,-88.75 2459.46,-92.75 2453.46,-88.75"/>
</g>
<!-- n9 -->
<g id="node70" class="node">
<title>n9</title>
<ellipse fill="black" stroke="black" cx="2780.11" cy="-129" rx="1.8" ry="1.8"/>
</g>
<!-- x15&#45;&gt;n9 -->
<g id="edge89" class="edge">
<title>x15:e&#45;&gt;n9:w</title>
<path fill="none" stroke="black" stroke-width="3" d="M2710.48,-102.25C2738.05,-102.25 2743.79,-122.37 2765.56,-127.71"/>
<polygon fill="black" stroke="black" stroke-width="3" points="2761.98,-130.82 2772.32,-128.48 2762.78,-123.87 2761.98,-130.82"/>
</g>
<!-- c39 -->
<g id="node39" class="node">
<title>c39</title>
<polygon fill="none" stroke="black" points="2959.36,-92.5 2959.36,-141.5 3055.36,-141.5 3055.36,-92.5 2959.36,-92.5"/>
<text text-anchor="middle" x="2972.23" y="-124.2" font-family="Times,serif" font-size="14.00">A</text>
<polyline fill="none" stroke="black" points="2959.36,-117 2985.11,-117"/>
<text text-anchor="middle" x="2972.23" y="-99.7" font-family="Times,serif" font-size="14.00">B</text>
<polyline fill="none" stroke="black" points="2985.11,-92.5 2985.11,-141.5"/>
<text text-anchor="middle" x="3007.36" y="-120.2" font-family="Times,serif" font-size="14.00">$18</text>
<text text-anchor="middle" x="3007.36" y="-103.7" font-family="Times,serif" font-size="14.00">$mul</text>
<polyline fill="none" stroke="black" points="3029.61,-92.5 3029.61,-141.5"/>
<text text-anchor="middle" x="3042.48" y="-112.2" font-family="Times,serif" font-size="14.00">Y</text>
</g>
<!-- c39&#45;&gt;n19 -->
<g id="edge64" class="edge">
<title>c39:e&#45;&gt;n19:w</title>
<path fill="none" stroke="black" d="M3055.36,-117.25C3178.97,-117.25 3192.16,-220.46 3309.09,-226.7"/>
<polygon fill="black" stroke="black" points="3308.75,-230.2 3318.84,-226.96 3308.94,-223.2 3308.75,-230.2"/>
</g>
<!-- x16 -->
<g id="node40" class="node">
<title>x16</title>
<path fill="none" stroke="black" d="M2859.36,-111C2859.36,-111 2911.36,-111 2911.36,-111 2917.36,-111 2923.36,-117 2923.36,-123 2923.36,-123 2923.36,-135 2923.36,-135 2923.36,-141 2917.36,-147 2911.36,-147 2911.36,-147 2859.36,-147 2859.36,-147 2853.36,-147 2847.36,-141 2847.36,-135 2847.36,-135 2847.36,-123 2847.36,-123 2847.36,-117 2853.36,-111 2859.36,-111"/>
<text text-anchor="middle" x="2885.36" y="-124.2" font-family="Times,serif" font-size="14.00">18:0 &#45; 18:0</text>
</g>
<!-- x16&#45;&gt;c39 -->
<g id="edge17" class="edge">
<title>x16:e&#45;&gt;c39:w</title>
<path fill="none" stroke="black" stroke-width="3" d="M2936.08,-129.06C2939.67,-129.1 2942.81,-129.15 2946.38,-129.18"/>
<polygon fill="none" stroke="black" stroke-width="3" points="2938.06,-129.07 2932.04,-133.04 2926.06,-129.01 2932.08,-125.04 2938.06,-129.07"/>
<polygon fill="none" stroke="black" stroke-width="3" points="2944.65,-129.18 2950.67,-125.21 2956.65,-129.24 2950.63,-133.21 2944.65,-129.18"/>
</g>
<!-- x17&#45;&gt;c39 -->
<g id="edge18" class="edge">
<title>x17:e&#45;&gt;c39:w</title>
<path fill="none" stroke="black" d="M476.5,-42.96C564.15,-42.47 590.66,-37 684.34,-37 684.34,-37 684.34,-37 2781.11,-37 2861.39,-37 2873.47,-97.79 2946.56,-104.2"/>
<polygon fill="none" stroke="black" points="476.62,-42.96 470.63,-46.98 464.62,-43 470.61,-38.98 476.62,-42.96"/>
<polygon fill="none" stroke="black" points="2946.47,-104.2 2952.63,-100.46 2958.45,-104.71 2952.29,-108.45 2946.47,-104.2"/>
</g>
<!-- c40&#45;&gt;c34 -->
<g id="edge28" class="edge">
<title>c40:e&#45;&gt;c34:w</title>
<path fill="none" stroke="black" stroke-width="3" d="M235.34,-306.25C299.67,-306.25 318.58,-305.81 377.59,-305.75"/>
<polygon fill="black" stroke="black" stroke-width="3" points="374.55,-309.26 384.55,-305.75 374.55,-302.26 374.55,-309.26"/>
</g>
<!-- x19 -->
<g id="node45" class="node">
<title>x19</title>
<path fill="none" stroke="black" d="M2645.48,-576.5C2645.48,-576.5 2697.48,-576.5 2697.48,-576.5 2703.48,-576.5 2709.48,-582.5 2709.48,-588.5 2709.48,-588.5 2709.48,-613.5 2709.48,-613.5 2709.48,-619.5 2703.48,-625.5 2697.48,-625.5 2697.48,-625.5 2645.48,-625.5 2645.48,-625.5 2639.48,-625.5 2633.48,-619.5 2633.48,-613.5 2633.48,-613.5 2633.48,-588.5 2633.48,-588.5 2633.48,-582.5 2639.48,-576.5 2645.48,-576.5"/>
<text text-anchor="middle" x="2671.48" y="-608.2" font-family="Times,serif" font-size="14.00">16:1 &#45; 15:0</text>
<polyline fill="none" stroke="black" points="2633.48,-601 2709.48,-601"/>
<text text-anchor="middle" x="2671.48" y="-583.7" font-family="Times,serif" font-size="14.00">0:0 &#45; 0:0</text>
</g>
<!-- c41&#45;&gt;x19 -->
<g id="edge20" class="edge">
<title>c41:e&#45;&gt;x19:w</title>
<path fill="none" stroke="black" stroke-width="3" d="M2576.09,-601.23C2593.19,-601.19 2602.69,-601.06 2619.9,-601.02"/>
<polygon fill="none" stroke="black" stroke-width="3" points="2577.87,-601.23 2571.87,-605.24 2565.87,-601.25 2571.86,-597.24 2577.87,-601.23"/>
<polygon fill="none" stroke="black" stroke-width="3" points="2617.78,-601.02 2623.77,-597.01 2629.78,-601 2623.78,-605.01 2617.78,-601.02"/>
</g>
<!-- x18&#45;&gt;c41 -->
<g id="edge19" class="edge">
<title>x18:e&#45;&gt;c41:w</title>
<path fill="none" stroke="black" stroke-width="3" d="M2267.21,-577.22C2349.95,-580.11 2375.47,-610.16 2458.24,-613.03"/>
<polygon fill="none" stroke="black" stroke-width="3" points="2268.92,-577.25 2262.85,-581.15 2256.92,-577.05 2262.99,-573.15 2268.92,-577.25"/>
<polygon fill="none" stroke="black" stroke-width="3" points="2456.46,-613 2462.53,-609.1 2468.46,-613.2 2462.39,-617.1 2456.46,-613"/>
</g>
<!-- n11 -->
<g id="node65" class="node">
<title>n11</title>
<ellipse fill="black" stroke="black" cx="3007.36" cy="-595" rx="1.8" ry="1.8"/>
</g>
<!-- x19&#45;&gt;n11 -->
<g id="edge29" class="edge">
<title>x19:e&#45;&gt;n11:w</title>
<path fill="none" stroke="black" d="M2710.48,-588.75C2837.17,-588.75 2871.57,-594.64 2992.85,-594.98"/>
<polygon fill="black" stroke="black" points="2992.56,-598.48 3002.56,-595 2992.57,-591.48 2992.56,-598.48"/>
</g>
<!-- n3 -->
<g id="node67" class="node">
<title>n3</title>
<ellipse fill="black" stroke="black" cx="2780.11" cy="-633" rx="1.8" ry="1.8"/>
</g>
<!-- x19&#45;&gt;n3 -->
<g id="edge77" class="edge">
<title>x19:e&#45;&gt;n3:w</title>
<path fill="none" stroke="black" stroke-width="3" d="M2710.48,-613.25C2737.04,-613.25 2744.26,-627.97 2765.53,-631.99"/>
<polygon fill="black" stroke="black" stroke-width="3" points="2762.03,-635.2 2772.3,-632.6 2762.65,-628.22 2762.03,-635.2"/>
</g>
<!-- v21 -->
<g id="node46" class="node">
<title>v21</title>
<ellipse fill="none" stroke="black" cx="924.7" cy="-449" rx="159.85" ry="18"/>
<text text-anchor="middle" x="924.7" y="-443.95" font-family="Times,serif" font-size="14.00">30&#39;111111100000000000000000000000</text>
</g>
<!-- v21&#45;&gt;x20 -->
<g id="edge92" class="edge">
<title>v21:e&#45;&gt;x20:w</title>
<path fill="none" stroke="black" stroke-width="3" d="M1084.55,-449C1135.93,-449 1151.56,-449.22 1197.77,-449.25"/>
<polygon fill="black" stroke="black" stroke-width="3" points="1194.62,-452.75 1204.62,-449.25 1194.62,-445.75 1194.62,-452.75"/>
</g>
<!-- x22 -->
<g id="node49" class="node">
<title>x22</title>
<path fill="none" stroke="black" d="M2193.72,-397.5C2193.72,-397.5 2245.72,-397.5 2245.72,-397.5 2251.72,-397.5 2257.72,-403.5 2257.72,-409.5 2257.72,-409.5 2257.72,-434.5 2257.72,-434.5 2257.72,-440.5 2251.72,-446.5 2245.72,-446.5 2245.72,-446.5 2193.72,-446.5 2193.72,-446.5 2187.72,-446.5 2181.72,-440.5 2181.72,-434.5 2181.72,-434.5 2181.72,-409.5 2181.72,-409.5 2181.72,-403.5 2187.72,-397.5 2193.72,-397.5"/>
<text text-anchor="middle" x="2219.72" y="-429.2" font-family="Times,serif" font-size="14.00">30:6 &#45; 30:6</text>
<polyline fill="none" stroke="black" points="2181.72,-422 2257.72,-422"/>
<text text-anchor="middle" x="2219.72" y="-404.7" font-family="Times,serif" font-size="14.00">5:0 &#45; 5:0</text>
</g>
<!-- c42&#45;&gt;x22 -->
<g id="edge22" class="edge">
<title>c42:e&#45;&gt;x22:w</title>
<path fill="none" stroke="black" stroke-width="3" d="M2158.48,-425.93C2162.17,-425.12 2165.35,-424.1 2169.05,-423.31"/>
<polygon fill="none" stroke="black" stroke-width="3" points="2160.35,-425.73 2154.79,-430.33 2148.41,-426.97 2153.96,-422.37 2160.35,-425.73"/>
<polygon fill="none" stroke="black" stroke-width="3" points="2167.09,-423.51 2172.65,-418.91 2179.03,-422.28 2173.47,-426.87 2167.09,-423.51"/>
</g>
<!-- x20&#45;&gt;c42 -->
<g id="edge21" class="edge">
<title>x20:e&#45;&gt;c42:w</title>
<path fill="none" stroke="black" stroke-width="3" d="M1300.12,-436.92C1419.08,-435.52 1452.81,-415 1578.02,-415 1578.02,-415 1578.02,-415 1726.52,-415 1867.11,-415 1905.45,-414.76 2039.85,-414.75"/>
<polygon fill="none" stroke="black" stroke-width="3" points="1301.87,-436.91 1295.89,-440.95 1289.87,-436.98 1295.84,-432.95 1301.87,-436.91"/>
<polygon fill="none" stroke="black" stroke-width="3" points="2038.02,-414.75 2044.02,-410.75 2050.02,-414.75 2044.02,-418.75 2038.02,-414.75"/>
</g>
<!-- x22&#45;&gt;n20 -->
<g id="edge68" class="edge">
<title>x22:e&#45;&gt;n20:w</title>
<path fill="none" stroke="black" stroke-width="3" d="M2257.72,-434.25C2269.1,-434.25 2274.41,-434.12 2282.27,-434.05"/>
<polygon fill="black" stroke="black" stroke-width="3" points="2279.2,-437.56 2289.18,-434.02 2279.16,-430.56 2279.2,-437.56"/>
</g>
<!-- n13 -->
<g id="node66" class="node">
<title>n13</title>
<ellipse fill="black" stroke="black" cx="2780.11" cy="-274" rx="1.8" ry="1.8"/>
</g>
<!-- x22&#45;&gt;n13 -->
<g id="edge33" class="edge">
<title>x22:e&#45;&gt;n13:w</title>
<path fill="none" stroke="black" stroke-width="3" d="M2257.72,-409.75C2360.97,-409.75 2342.66,-299.81 2440.22,-266 2554.71,-226.32 2591.92,-258.47 2712.86,-266 2737.21,-267.52 2745.7,-272.25 2765.37,-273.62"/>
<polygon fill="black" stroke="black" stroke-width="3" points="2762.18,-277.02 2772.29,-273.85 2762.41,-270.02 2762.18,-277.02"/>
</g>
<!-- x23 -->
<g id="node51" class="node">
<title>x23</title>
<path fill="none" stroke="black" d="M3884.11,-473.5C3884.11,-473.5 3949.61,-473.5 3949.61,-473.5 3955.61,-473.5 3961.61,-479.5 3961.61,-485.5 3961.61,-485.5 3961.61,-510.5 3961.61,-510.5 3961.61,-516.5 3955.61,-522.5 3949.61,-522.5 3949.61,-522.5 3884.11,-522.5 3884.11,-522.5 3878.11,-522.5 3872.11,-516.5 3872.11,-510.5 3872.11,-510.5 3872.11,-485.5 3872.11,-485.5 3872.11,-479.5 3878.11,-473.5 3884.11,-473.5"/>
<text text-anchor="middle" x="3916.86" y="-505.2" font-family="Times,serif" font-size="14.00">31:31 &#45; 37:37</text>
<polyline fill="none" stroke="black" points="3872.11,-498 3961.61,-498"/>
<text text-anchor="middle" x="3916.86" y="-480.7" font-family="Times,serif" font-size="14.00">30:0 &#45; 30:0</text>
</g>
<!-- c43&#45;&gt;x23 -->
<g id="edge23" class="edge">
<title>c43:e&#45;&gt;x23:w</title>
<path fill="none" stroke="black" stroke-width="3" d="M3848.83,-498.19C3852.43,-498.15 3855.56,-498.1 3859.13,-498.07"/>
<polygon fill="none" stroke="black" stroke-width="3" points="3850.81,-498.18 3844.83,-502.21 3838.81,-498.24 3844.79,-494.21 3850.81,-498.18"/>
<polygon fill="none" stroke="black" stroke-width="3" points="3857.4,-498.07 3863.38,-494.04 3869.4,-498.01 3863.42,-502.04 3857.4,-498.07"/>
</g>
<!-- x23&#45;&gt;n15 -->
<g id="edge45" class="edge">
<title>x23:e&#45;&gt;n15:w</title>
<path fill="none" stroke="black" stroke-width="3" d="M3961.61,-485.75C3973.89,-485.75 3978.4,-492.22 3986.44,-495.75"/>
<polygon fill="black" stroke="black" stroke-width="3" points="3982.66,-498.56 3993.16,-497.1 3984.04,-491.7 3982.66,-498.56"/>
</g>
<!-- x23&#45;&gt;n15 -->
<g id="edge46" class="edge">
<title>x23:e&#45;&gt;n15:w</title>
<path fill="none" stroke="black" d="M3961.61,-510.25C3973.89,-510.25 3978.4,-503.78 3986.44,-500.25"/>
<polygon fill="black" stroke="black" points="3987.01,-503.7 3996.12,-498.3 3985.63,-496.84 3987.01,-503.7"/>
</g>
<!-- x25 -->
<g id="node53" class="node">
<title>x25</title>
<path fill="none" stroke="black" d="M2760.86,-369C2760.86,-369 2799.36,-369 2799.36,-369 2805.36,-369 2811.36,-375 2811.36,-381 2811.36,-381 2811.36,-393 2811.36,-393 2811.36,-399 2805.36,-405 2799.36,-405 2799.36,-405 2760.86,-405 2760.86,-405 2754.86,-405 2748.86,-399 2748.86,-393 2748.86,-393 2748.86,-381 2748.86,-381 2748.86,-375 2754.86,-369 2760.86,-369"/>
<text text-anchor="middle" x="2780.11" y="-382.2" font-family="Times,serif" font-size="14.00">4:0 &#45; 5:1</text>
</g>
<!-- x24&#45;&gt;x25 -->
<g id="edge24" class="edge">
<title>x24:e&#45;&gt;x25:w</title>
<path fill="none" stroke="black" stroke-width="3" d="M2562.42,-387C2636.36,-387 2662.01,-387 2736.03,-387"/>
<polygon fill="none" stroke="black" stroke-width="3" points="2564.12,-387 2558.12,-391 2552.12,-387 2558.12,-383 2564.12,-387"/>
<polygon fill="none" stroke="black" stroke-width="3" points="2734.15,-387 2740.15,-383 2746.15,-387 2740.15,-391 2734.15,-387"/>
</g>
<!-- x25&#45;&gt;n5 -->
<g id="edge81" class="edge">
<title>x25:e&#45;&gt;n5:w</title>
<path fill="none" stroke="black" stroke-width="3" d="M2811.36,-387.25C2963.99,-387.25 3002.16,-378.95 3153.86,-362 3185.53,-358.46 3195.65,-351.76 3222.6,-350.29"/>
<polygon fill="black" stroke="black" stroke-width="3" points="3219.38,-353.88 3229.29,-350.12 3219.2,-346.88 3219.38,-353.88"/>
</g>
<!-- v26 -->
<g id="node54" class="node">
<title>v26</title>
<ellipse fill="none" stroke="black" cx="1916.75" cy="-135" rx="99.97" ry="18"/>
<text text-anchor="middle" x="1916.75" y="-129.95" font-family="Times,serif" font-size="14.00">17&#39;00000000000000000</text>
</g>
<!-- x27 -->
<g id="node55" class="node">
<title>x27</title>
<path fill="none" stroke="black" d="M2069.85,-118C2069.85,-118 2128.6,-118 2128.6,-118 2134.6,-118 2140.6,-124 2140.6,-130 2140.6,-130 2140.6,-142 2140.6,-142 2140.6,-148 2134.6,-154 2128.6,-154 2128.6,-154 2069.85,-154 2069.85,-154 2063.85,-154 2057.85,-148 2057.85,-142 2057.85,-142 2057.85,-130 2057.85,-130 2057.85,-124 2063.85,-118 2069.85,-118"/>
<text text-anchor="middle" x="2099.22" y="-131.2" font-family="Times,serif" font-size="14.00">16:0 &#45; 30:14</text>
</g>
<!-- v26&#45;&gt;x27 -->
<g id="edge93" class="edge">
<title>v26:e&#45;&gt;x27:w</title>
<path fill="none" stroke="black" stroke-width="3" d="M2016.72,-135C2030.1,-135 2035.95,-135.56 2045.56,-135.84"/>
<polygon fill="black" stroke="black" stroke-width="3" points="2042.26,-139.3 2052.31,-135.94 2042.35,-132.3 2042.26,-139.3"/>
</g>
<!-- x27&#45;&gt;n8 -->
<g id="edge87" class="edge">
<title>x27:e&#45;&gt;n8:w</title>
<path fill="none" stroke="black" stroke-width="3" d="M2141.6,-136.25C2170.7,-136.25 2180.71,-136.06 2205.04,-136.01"/>
<polygon fill="black" stroke="black" stroke-width="3" points="2201.91,-139.51 2211.9,-136 2201.9,-132.51 2201.91,-139.51"/>
</g>
<!-- v28 -->
<g id="node56" class="node">
<title>v28</title>
<ellipse fill="none" stroke="black" cx="2517.16" cy="-162" rx="76.94" ry="18"/>
<text text-anchor="middle" x="2517.16" y="-156.95" font-family="Times,serif" font-size="14.00">12&#39;000000000000</text>
</g>
<!-- x29 -->
<g id="node57" class="node">
<title>x29</title>
<path fill="none" stroke="black" d="M2642.11,-141C2642.11,-141 2700.86,-141 2700.86,-141 2706.86,-141 2712.86,-147 2712.86,-153 2712.86,-153 2712.86,-165 2712.86,-165 2712.86,-171 2706.86,-177 2700.86,-177 2700.86,-177 2642.11,-177 2642.11,-177 2636.11,-177 2630.11,-171 2630.11,-165 2630.11,-165 2630.11,-153 2630.11,-153 2630.11,-147 2636.11,-141 2642.11,-141"/>
<text text-anchor="middle" x="2671.48" y="-154.2" font-family="Times,serif" font-size="14.00">11:0 &#45; 30:19</text>
</g>
<!-- v28&#45;&gt;x29 -->
<g id="edge94" class="edge">
<title>v28:e&#45;&gt;x29:w</title>
<path fill="none" stroke="black" stroke-width="3" d="M2594.11,-162C2605.52,-162 2610.78,-160.48 2618.64,-159.61"/>
<polygon fill="black" stroke="black" stroke-width="3" points="2615.77,-163.26 2625.57,-159.24 2615.4,-156.27 2615.77,-163.26"/>
</g>
<!-- x29&#45;&gt;n9 -->
<g id="edge90" class="edge">
<title>x29:e&#45;&gt;n9:w</title>
<path fill="none" stroke="black" stroke-width="3" d="M2712.86,-159.25C2740.01,-159.25 2744.52,-136.71 2765.48,-130.54"/>
<polygon fill="black" stroke="black" stroke-width="3" points="2762.89,-134.43 2772.33,-129.61 2761.95,-127.49 2762.89,-134.43"/>
</g>
<!-- x30 -->
<g id="node58" class="node">
<title>x30</title>
<path fill="none" stroke="black" d="M2859.36,-615C2859.36,-615 2911.36,-615 2911.36,-615 2917.36,-615 2923.36,-621 2923.36,-627 2923.36,-627 2923.36,-639 2923.36,-639 2923.36,-645 2917.36,-651 2911.36,-651 2911.36,-651 2859.36,-651 2859.36,-651 2853.36,-651 2847.36,-645 2847.36,-639 2847.36,-639 2847.36,-627 2847.36,-627 2847.36,-621 2853.36,-615 2859.36,-615"/>
<text text-anchor="middle" x="2885.36" y="-628.2" font-family="Times,serif" font-size="14.00">15:0 &#45; 16:1</text>
</g>
<!-- x30&#45;&gt;n11 -->
<g id="edge30" class="edge">
<title>x30:e&#45;&gt;n11:w</title>
<path fill="none" stroke="black" stroke-width="3" d="M2923.36,-633.25C2958.87,-633.25 2963.67,-602.64 2992.71,-596.19"/>
<polygon fill="black" stroke="black" stroke-width="3" points="2989.98,-599.99 2999.56,-595.47 2989.25,-593.03 2989.98,-599.99"/>
</g>
<!-- x32 -->
<g id="node60" class="node">
<title>x32</title>
<path fill="none" stroke="black" d="M2645.48,-275C2645.48,-275 2697.48,-275 2697.48,-275 2703.48,-275 2709.48,-281 2709.48,-287 2709.48,-287 2709.48,-299 2709.48,-299 2709.48,-305 2703.48,-311 2697.48,-311 2697.48,-311 2645.48,-311 2645.48,-311 2639.48,-311 2633.48,-305 2633.48,-299 2633.48,-299 2633.48,-287 2633.48,-287 2633.48,-281 2639.48,-275 2645.48,-275"/>
<text text-anchor="middle" x="2671.48" y="-288.2" font-family="Times,serif" font-size="14.00">24:0 &#45; 30:6</text>
</g>
<!-- x31&#45;&gt;x32 -->
<g id="edge25" class="edge">
<title>x31:e&#45;&gt;x32:w</title>
<path fill="none" stroke="black" stroke-width="3" d="M2569.1,-293C2589.05,-293 2599.57,-293 2619.51,-293"/>
<polygon fill="none" stroke="black" stroke-width="3" points="2570.87,-293 2564.87,-297 2558.87,-293 2564.87,-289 2570.87,-293"/>
<polygon fill="none" stroke="black" stroke-width="3" points="2617.78,-293 2623.78,-289 2629.78,-293 2623.78,-297 2617.78,-293"/>
</g>
<!-- x32&#45;&gt;n13 -->
<g id="edge34" class="edge">
<title>x32:e&#45;&gt;n13:w</title>
<path fill="none" stroke="black" stroke-width="3" d="M2710.48,-293.25C2736.99,-293.25 2744.29,-278.9 2765.55,-274.98"/>
<polygon fill="black" stroke="black" stroke-width="3" points="2762.64,-278.75 2772.3,-274.39 2762.04,-271.77 2762.64,-278.75"/>
</g>
<!-- x34 -->
<g id="node62" class="node">
<title>x34</title>
<path fill="none" stroke="black" d="M4292.67,-479C4292.67,-479 4344.67,-479 4344.67,-479 4350.67,-479 4356.67,-485 4356.67,-491 4356.67,-491 4356.67,-503 4356.67,-503 4356.67,-509 4350.67,-515 4344.67,-515 4344.67,-515 4292.67,-515 4292.67,-515 4286.67,-515 4280.67,-509 4280.67,-503 4280.67,-503 4280.67,-491 4280.67,-491 4280.67,-485 4286.67,-479 4292.67,-479"/>
<text text-anchor="middle" x="4318.67" y="-492.2" font-family="Times,serif" font-size="14.00">5:0 &#45; 36:31</text>
</g>
<!-- x33&#45;&gt;x34 -->
<g id="edge26" class="edge">
<title>x33:e&#45;&gt;x34:w</title>
<path fill="none" stroke="black" stroke-width="3" d="M4256.65,-478.43C4261.25,-482.51 4264.1,-488.51 4268.71,-492.58"/>
<polygon fill="none" stroke="black" stroke-width="3" points="4258.46,-479.11 4251.44,-480.77 4247.21,-474.94 4254.22,-473.27 4258.46,-479.11"/>
<polygon fill="none" stroke="black" stroke-width="3" points="4266.88,-491.9 4273.89,-490.23 4278.13,-496.06 4271.12,-497.73 4266.88,-491.9"/>
</g>
<!-- x34&#45;&gt;n15 -->
<g id="edge47" class="edge">
<title>x34:e&#45;&gt;n15:w</title>
<path fill="none" stroke="black" stroke-width="3" d="M4357.67,-497.25C4365.79,-497.25 4362.56,-509.91 4356.67,-515.5 4278.88,-589.3 4222.64,-515.89 4115.42,-516 4062.95,-516.05 4035.48,-552.06 3997.36,-516 3995.36,-514.11 3993.67,-511.39 3992.64,-508.64"/>
<polygon fill="black" stroke="black" stroke-width="3" points="3994.86,-512.88 3994.86,-502.29 3988.25,-510.57 3994.86,-512.88"/>
</g>
<!-- v35 -->
<g id="node63" class="node">
<title>v35</title>
<ellipse fill="none" stroke="black" cx="1248.16" cy="-558" rx="127.61" ry="18"/>
<text text-anchor="middle" x="1248.16" y="-552.95" font-family="Times,serif" font-size="14.00">23&#39;11111111111111111111111</text>
</g>
<!-- x36 -->
<g id="node64" class="node">
<title>x36</title>
<path fill="none" stroke="black" d="M1423.77,-539C1423.77,-539 1475.77,-539 1475.77,-539 1481.77,-539 1487.77,-545 1487.77,-551 1487.77,-551 1487.77,-563 1487.77,-563 1487.77,-569 1481.77,-575 1475.77,-575 1475.77,-575 1423.77,-575 1423.77,-575 1417.77,-575 1411.77,-569 1411.77,-563 1411.77,-563 1411.77,-551 1411.77,-551 1411.77,-545 1417.77,-539 1423.77,-539"/>
<text text-anchor="middle" x="1449.77" y="-552.2" font-family="Times,serif" font-size="14.00">22:0 &#45; 23:1</text>
</g>
<!-- v35&#45;&gt;x36 -->
<g id="edge95" class="edge">
<title>v35:e&#45;&gt;x36:w</title>
<path fill="none" stroke="black" stroke-width="3" d="M1375.77,-558C1387.15,-558 1392.46,-557.49 1400.32,-557.2"/>
<polygon fill="black" stroke="black" stroke-width="3" points="1397.3,-560.76 1407.23,-557.08 1397.17,-553.76 1397.3,-560.76"/>
</g>
<!-- x36&#45;&gt;n17 -->
<g id="edge56" class="edge">
<title>x36:e&#45;&gt;n17:w</title>
<path fill="none" stroke="black" stroke-width="3" d="M1487.77,-557.25C1512.82,-557.25 1500.1,-517.2 1513.34,-504.69"/>
<polygon fill="black" stroke="black" stroke-width="3" points="1511.23,-509.15 1519.49,-502.51 1508.9,-502.55 1511.23,-509.15"/>
</g>
<!-- n11&#45;&gt;x4 -->
<g id="edge31" class="edge">
<title>n11:e&#45;&gt;x4:w</title>
<path fill="none" stroke="black" d="M3010.63,-595C3042.45,-595 3053.1,-595.2 3080.12,-595.24"/>
<polygon fill="black" stroke="black" points="3079.84,-598.74 3089.84,-595.25 3079.84,-591.74 3079.84,-598.74"/>
</g>
<!-- n13&#45;&gt;x7 -->
<g id="edge35" class="edge">
<title>n13:e&#45;&gt;x7:w</title>
<path fill="none" stroke="black" stroke-width="3" d="M2783.38,-274C2810.26,-274 2819.65,-274.19 2841.88,-274.24"/>
<polygon fill="black" stroke="black" stroke-width="3" points="2838.56,-277.73 2848.56,-274.25 2838.57,-270.73 2838.56,-277.73"/>
</g>
<!-- n3&#45;&gt;x2 -->
<g id="edge78" class="edge">
<title>n3:e&#45;&gt;x2:w</title>
<path fill="none" stroke="black" stroke-width="3" d="M2783.38,-633C2814.42,-633 2817.41,-652.85 2847.36,-661 2916.03,-679.69 2935.19,-680 3006.36,-680 3006.36,-680 3006.36,-680 3123.61,-680 3170.17,-680 3270.96,-616.26 3325.15,-607.29"/>
<polygon fill="black" stroke="black" stroke-width="3" points="3322.44,-611.05 3332.08,-606.66 3321.81,-604.08 3322.44,-611.05"/>
</g>
<!-- n3&#45;&gt;x30 -->
<g id="edge79" class="edge">
<title>n3:e&#45;&gt;x30:w</title>
<path fill="none" stroke="black" stroke-width="3" d="M2783.38,-633C2807.59,-633 2816.34,-633 2835.96,-633"/>
<polygon fill="black" stroke="black" stroke-width="3" points="2832.81,-636.5 2842.81,-633 2832.81,-629.5 2832.81,-636.5"/>
</g>
<!-- n5&#45;&gt;x9 -->
<g id="edge83" class="edge">
<title>n5:e&#45;&gt;x9:w</title>
<path fill="none" stroke="black" d="M3240.38,-350C3282.22,-350 3295.37,-350.21 3332.27,-350.24"/>
<polygon fill="black" stroke="black" points="3331.84,-353.74 3341.84,-350.25 3331.84,-346.74 3331.84,-353.74"/>
</g>
<!-- n8&#45;&gt;x13 -->
<g id="edge88" class="edge">
<title>n8:e&#45;&gt;x13:w</title>
<path fill="none" stroke="black" stroke-width="3" d="M2223,-136C2257.58,-136 2268.96,-136.2 2298.64,-136.24"/>
<polygon fill="black" stroke="black" stroke-width="3" points="2295.43,-139.74 2305.43,-136.25 2295.43,-132.74 2295.43,-139.74"/>
</g>
<!-- n9&#45;&gt;x16 -->
<g id="edge91" class="edge">
<title>n9:e&#45;&gt;x16:w</title>
<path fill="none" stroke="black" stroke-width="3" d="M2783.38,-129C2807.6,-129 2816.34,-129.18 2835.96,-129.24"/>
<polygon fill="black" stroke="black" stroke-width="3" points="2832.81,-132.73 2842.81,-129.24 2832.82,-125.73 2832.81,-132.73"/>
</g>
</g>
</svg>
