<?xml version="1.0" encoding="UTF-8" standalone="no"?>
<!DOCTYPE svg PUBLIC "-//W3C//DTD SVG 1.1//EN"
 "http://www.w3.org/Graphics/SVG/1.1/DTD/svg11.dtd">
<!-- Generated by graphviz version 12.2.1 (20241206.2353)
 -->
<!-- Title: top Pages: 1 -->
<svg width="5085pt" height="585pt"
 viewBox="0.00 0.00 5084.90 585.00" xmlns="http://www.w3.org/2000/svg" xmlns:xlink="http://www.w3.org/1999/xlink">
<g id="graph0" class="graph" transform="scale(1 1) rotate(0) translate(4 581)">
<title>top</title>
<polygon fill="white" stroke="none" points="-4,4 -4,-581 5080.9,-581 5080.9,4 -4,4"/>
<text text-anchor="middle" x="2538.45" y="-7.2" font-family="Times,serif" font-size="14.00">top</text>
<!-- n22 -->
<g id="node1" class="node">
<title>n22</title>
<polygon fill="none" stroke="black" points="107.84,-279.54 107.84,-294.46 76.26,-305 31.59,-305 0,-294.46 0,-279.54 31.59,-269 76.26,-269 107.84,-279.54"/>
<text text-anchor="middle" x="53.92" y="-281.95" font-family="Times,serif" font-size="14.00">input_data</text>
</g>
<!-- c42 -->
<g id="node27" class="node">
<title>c42</title>
<polygon fill="none" stroke="black" points="718.3,-426.5 718.3,-475.5 814.3,-475.5 814.3,-426.5 718.3,-426.5"/>
<text text-anchor="middle" x="731.18" y="-458.2" font-family="Times,serif" font-size="14.00">A</text>
<polyline fill="none" stroke="black" points="718.3,-451 744.05,-451"/>
<text text-anchor="middle" x="731.18" y="-433.7" font-family="Times,serif" font-size="14.00">B</text>
<polyline fill="none" stroke="black" points="744.05,-426.5 744.05,-475.5"/>
<text text-anchor="middle" x="766.3" y="-454.2" font-family="Times,serif" font-size="14.00">$29</text>
<text text-anchor="middle" x="766.3" y="-437.7" font-family="Times,serif" font-size="14.00">$mul</text>
<polyline fill="none" stroke="black" points="788.55,-426.5 788.55,-475.5"/>
<text text-anchor="middle" x="801.43" y="-446.2" font-family="Times,serif" font-size="14.00">Y</text>
</g>
<!-- n22&#45;&gt;c42 -->
<g id="edge53" class="edge">
<title>n22:e&#45;&gt;c42:w</title>
<path fill="none" stroke="black" stroke-width="3" d="M107.84,-287C161.82,-287 102.69,-368.07 143.84,-403 203.02,-453.24 239.22,-427 316.84,-427 316.84,-427 316.84,-427 456.59,-427 569.16,-427 599.86,-437.98 706.99,-438.71"/>
<polygon fill="black" stroke="black" stroke-width="3" points="703.75,-442.2 713.76,-438.73 703.77,-435.2 703.75,-442.2"/>
</g>
<!-- c46 -->
<g id="node36" class="node">
<title>c46</title>
<polygon fill="none" stroke="black" points="143.84,-154.5 143.84,-195.5 235.34,-195.5 235.34,-154.5 143.84,-154.5"/>
<text text-anchor="middle" x="156.72" y="-170.2" font-family="Times,serif" font-size="14.00">A</text>
<polyline fill="none" stroke="black" points="169.59,-154.5 169.59,-195.5"/>
<text text-anchor="middle" x="189.59" y="-178.2" font-family="Times,serif" font-size="14.00">$1</text>
<text text-anchor="middle" x="189.59" y="-161.7" font-family="Times,serif" font-size="14.00">$not</text>
<polyline fill="none" stroke="black" points="209.59,-154.5 209.59,-195.5"/>
<text text-anchor="middle" x="222.47" y="-170.2" font-family="Times,serif" font-size="14.00">Y</text>
</g>
<!-- n22&#45;&gt;c46 -->
<g id="edge54" class="edge">
<title>n22:e&#45;&gt;c46:w</title>
<path fill="none" stroke="black" stroke-width="3" d="M107.84,-287C155.54,-287 102.52,-193.63 132.91,-177.58"/>
<polygon fill="black" stroke="black" stroke-width="3" points="130.35,-181.71 139.4,-176.2 128.89,-174.86 130.35,-181.71"/>
</g>
<!-- x14 -->
<g id="node38" class="node">
<title>x14</title>
<path fill="none" stroke="black" d="M170.34,-324C170.34,-324 208.84,-324 208.84,-324 214.84,-324 220.84,-330 220.84,-336 220.84,-336 220.84,-348 220.84,-348 220.84,-354 214.84,-360 208.84,-360 208.84,-360 170.34,-360 170.34,-360 164.34,-360 158.34,-354 158.34,-348 158.34,-348 158.34,-336 158.34,-336 158.34,-330 164.34,-324 170.34,-324"/>
<text text-anchor="middle" x="189.59" y="-337.2" font-family="Times,serif" font-size="14.00">2:1 &#45; 1:0</text>
</g>
<!-- n22&#45;&gt;x14 -->
<g id="edge56" class="edge">
<title>n22:e&#45;&gt;x14:w</title>
<path fill="none" stroke="black" stroke-width="3" d="M107.84,-287C136.43,-287 127.87,-328.55 146.59,-339.59"/>
<polygon fill="black" stroke="black" stroke-width="3" points="142.39,-342.15 152.93,-341.16 144.07,-335.36 142.39,-342.15"/>
</g>
<!-- x15 -->
<g id="node39" class="node">
<title>x15</title>
<path fill="none" stroke="black" d="M170.34,-269C170.34,-269 208.84,-269 208.84,-269 214.84,-269 220.84,-275 220.84,-281 220.84,-281 220.84,-293 220.84,-293 220.84,-299 214.84,-305 208.84,-305 208.84,-305 170.34,-305 170.34,-305 164.34,-305 158.34,-299 158.34,-293 158.34,-293 158.34,-281 158.34,-281 158.34,-275 164.34,-269 170.34,-269"/>
<text text-anchor="middle" x="189.59" y="-282.2" font-family="Times,serif" font-size="14.00">2:1 &#45; 1:0</text>
</g>
<!-- n22&#45;&gt;x15 -->
<g id="edge57" class="edge">
<title>n22:e&#45;&gt;x15:w</title>
<path fill="none" stroke="black" stroke-width="3" d="M107.84,-287C125.54,-287 132.56,-287.16 146.09,-287.23"/>
<polygon fill="black" stroke="black" stroke-width="3" points="142.79,-290.72 152.8,-287.24 142.81,-283.72 142.79,-290.72"/>
</g>
<!-- x18 -->
<g id="node45" class="node">
<title>x18</title>
<path fill="none" stroke="black" d="M436.34,-25C436.34,-25 474.84,-25 474.84,-25 480.84,-25 486.84,-31 486.84,-37 486.84,-37 486.84,-49 486.84,-49 486.84,-55 480.84,-61 474.84,-61 474.84,-61 436.34,-61 436.34,-61 430.34,-61 424.34,-55 424.34,-49 424.34,-49 424.34,-37 424.34,-37 424.34,-31 430.34,-25 436.34,-25"/>
<text text-anchor="middle" x="455.59" y="-38.2" font-family="Times,serif" font-size="14.00">1:1 &#45; 0:0</text>
</g>
<!-- n22&#45;&gt;x18 -->
<g id="edge58" class="edge">
<title>n22:e&#45;&gt;x18:w</title>
<path fill="none" stroke="black" d="M107.84,-287C192.48,-287 84.3,-160.15 143.84,-100 230.32,-12.64 292.71,-41.34 412,-43.16"/>
<polygon fill="black" stroke="black" points="411.8,-46.66 421.83,-43.24 411.86,-39.66 411.8,-46.66"/>
</g>
<!-- c51 -->
<g id="node46" class="node">
<title>c51</title>
<polygon fill="none" stroke="black" points="1688.8,-473.5 1688.8,-522.5 1781.8,-522.5 1781.8,-473.5 1688.8,-473.5"/>
<text text-anchor="middle" x="1701.68" y="-505.2" font-family="Times,serif" font-size="14.00">A</text>
<polyline fill="none" stroke="black" points="1688.8,-498 1714.55,-498"/>
<text text-anchor="middle" x="1701.68" y="-480.7" font-family="Times,serif" font-size="14.00">B</text>
<polyline fill="none" stroke="black" points="1714.55,-473.5 1714.55,-522.5"/>
<text text-anchor="middle" x="1735.3" y="-501.2" font-family="Times,serif" font-size="14.00">$31</text>
<text text-anchor="middle" x="1735.3" y="-484.7" font-family="Times,serif" font-size="14.00">$sub</text>
<polyline fill="none" stroke="black" points="1756.05,-473.5 1756.05,-522.5"/>
<text text-anchor="middle" x="1768.93" y="-493.2" font-family="Times,serif" font-size="14.00">Y</text>
</g>
<!-- n22&#45;&gt;c51 -->
<g id="edge55" class="edge">
<title>n22:e&#45;&gt;c51:w</title>
<path fill="none" stroke="black" stroke-width="3" d="M107.84,-287C148.05,-287 111.48,-346.13 143.84,-370 206.09,-415.91 239.49,-389 316.84,-389 316.84,-389 316.84,-389 1499.3,-389 1542.89,-389 1626.98,-471.92 1676.58,-484.23"/>
<polygon fill="black" stroke="black" stroke-width="3" points="1672.92,-487.27 1683.3,-485.14 1673.86,-480.33 1672.92,-487.27"/>
</g>
<!-- x25 -->
<g id="node58" class="node">
<title>x25</title>
<path fill="none" stroke="black" d="M298.59,-86C298.59,-86 337.09,-86 337.09,-86 343.09,-86 349.09,-92 349.09,-98 349.09,-98 349.09,-110 349.09,-110 349.09,-116 343.09,-122 337.09,-122 337.09,-122 298.59,-122 298.59,-122 292.59,-122 286.59,-116 286.59,-110 286.59,-110 286.59,-98 286.59,-98 286.59,-92 292.59,-86 298.59,-86"/>
<text text-anchor="middle" x="317.84" y="-99.2" font-family="Times,serif" font-size="14.00">2:2 &#45; 0:0</text>
</g>
<!-- n22&#45;&gt;x25 -->
<g id="edge59" class="edge">
<title>n22:e&#45;&gt;x25:w</title>
<path fill="none" stroke="black" d="M107.84,-287C172.95,-287 98.54,-191.76 143.84,-145 186.78,-100.68 216.4,-103.69 274.42,-104.2"/>
<polygon fill="black" stroke="black" points="274.06,-107.7 284.08,-104.24 274.09,-100.7 274.06,-107.7"/>
</g>
<!-- n23 -->
<g id="node2" class="node">
<title>n23</title>
<polygon fill="none" stroke="black" points="4506.82,-422.54 4506.82,-437.46 4472.31,-448 4423.51,-448 4389,-437.46 4389,-422.54 4423.51,-412 4472.31,-412 4506.82,-422.54"/>
<text text-anchor="middle" x="4447.91" y="-424.95" font-family="Times,serif" font-size="14.00">output_data</text>
</g>
<!-- x29 -->
<g id="node62" class="node">
<title>x29</title>
<path fill="none" stroke="black" d="M4554.82,-411C4554.82,-411 4593.32,-411 4593.32,-411 4599.32,-411 4605.32,-417 4605.32,-423 4605.32,-423 4605.32,-435 4605.32,-435 4605.32,-441 4599.32,-447 4593.32,-447 4593.32,-447 4554.82,-447 4554.82,-447 4548.82,-447 4542.82,-441 4542.82,-435 4542.82,-435 4542.82,-423 4542.82,-423 4542.82,-417 4548.82,-411 4554.82,-411"/>
<text text-anchor="middle" x="4574.07" y="-424.2" font-family="Times,serif" font-size="14.00">3:1 &#45; 2:0</text>
</g>
<!-- n23&#45;&gt;x29 -->
<g id="edge62" class="edge">
<title>n23:e&#45;&gt;x29:w</title>
<path fill="none" stroke="black" stroke-width="3" d="M4506.82,-430C4518.19,-430 4523.5,-429.62 4531.37,-429.4"/>
<polygon fill="black" stroke="black" stroke-width="3" points="4528.32,-432.94 4538.28,-429.31 4528.23,-425.94 4528.32,-432.94"/>
</g>
<!-- n24 -->
<g id="node3" class="node">
<title>n24</title>
<polygon fill="none" stroke="black" points="455.59,-241 400.34,-223 455.59,-205 510.84,-223 455.59,-241"/>
<text text-anchor="middle" x="455.59" y="-217.95" font-family="Times,serif" font-size="14.00">temp_1</text>
</g>
<!-- c36 -->
<g id="node13" class="node">
<title>c36</title>
<polygon fill="none" stroke="black" points="719.05,-254.5 719.05,-295.5 813.55,-295.5 813.55,-254.5 719.05,-254.5"/>
<text text-anchor="middle" x="731.93" y="-270.2" font-family="Times,serif" font-size="14.00">A</text>
<polyline fill="none" stroke="black" points="744.8,-254.5 744.8,-295.5"/>
<text text-anchor="middle" x="766.3" y="-278.2" font-family="Times,serif" font-size="14.00">$124</text>
<text text-anchor="middle" x="766.3" y="-261.7" font-family="Times,serif" font-size="14.00">$not</text>
<polyline fill="none" stroke="black" points="787.8,-254.5 787.8,-295.5"/>
<text text-anchor="middle" x="800.68" y="-270.2" font-family="Times,serif" font-size="14.00">Y</text>
</g>
<!-- n24&#45;&gt;c36 -->
<g id="edge64" class="edge">
<title>n24:e&#45;&gt;c36:w</title>
<path fill="none" stroke="black" stroke-width="3" d="M510.84,-223C528.54,-223 530.06,-234.4 546.84,-240 616.89,-263.37 638.35,-274.13 706.88,-275.17"/>
<polygon fill="black" stroke="black" stroke-width="3" points="703.73,-278.64 713.76,-275.22 703.79,-271.64 703.73,-278.64"/>
</g>
<!-- x2 -->
<g id="node17" class="node">
<title>x2</title>
<path fill="none" stroke="black" d="M2261.3,-141C2261.3,-141 2299.8,-141 2299.8,-141 2305.8,-141 2311.8,-147 2311.8,-153 2311.8,-153 2311.8,-165 2311.8,-165 2311.8,-171 2305.8,-177 2299.8,-177 2299.8,-177 2261.3,-177 2261.3,-177 2255.3,-177 2249.3,-171 2249.3,-165 2249.3,-165 2249.3,-153 2249.3,-153 2249.3,-147 2255.3,-141 2261.3,-141"/>
<text text-anchor="middle" x="2280.55" y="-154.2" font-family="Times,serif" font-size="14.00">1:0 &#45; 1:0</text>
</g>
<!-- n24&#45;&gt;x2 -->
<g id="edge67" class="edge">
<title>n24:e&#45;&gt;x2:w</title>
<path fill="none" stroke="black" stroke-width="3" d="M510.84,-223C527.57,-223 530.46,-215.37 546.84,-212 642.51,-192.31 667.62,-188 765.3,-188 765.3,-188 765.3,-188 1499.3,-188 1666.16,-188 1705.95,-150 1872.8,-150 1872.8,-150 1872.8,-150 2013.3,-150 2113.95,-150 2141.74,-158.58 2236.98,-159.21"/>
<polygon fill="black" stroke="black" stroke-width="3" points="2233.75,-162.7 2243.76,-159.24 2233.77,-155.7 2233.75,-162.7"/>
</g>
<!-- x7 -->
<g id="node25" class="node">
<title>x7</title>
<path fill="none" stroke="black" d="M595.32,-122C595.32,-122 633.82,-122 633.82,-122 639.82,-122 645.82,-128 645.82,-134 645.82,-134 645.82,-146 645.82,-146 645.82,-152 639.82,-158 633.82,-158 633.82,-158 595.32,-158 595.32,-158 589.32,-158 583.32,-152 583.32,-146 583.32,-146 583.32,-134 583.32,-134 583.32,-128 589.32,-122 595.32,-122"/>
<text text-anchor="middle" x="614.57" y="-135.2" font-family="Times,serif" font-size="14.00">0:0 &#45; 0:0</text>
</g>
<!-- n24&#45;&gt;x7 -->
<g id="edge68" class="edge">
<title>n24:e&#45;&gt;x7:w</title>
<path fill="none" stroke="black" d="M510.84,-223C537.87,-223 528.98,-194.28 546.84,-174 558.19,-161.11 560.17,-147.55 571.19,-142.4"/>
<polygon fill="black" stroke="black" points="571.68,-145.87 580.84,-140.54 570.35,-139 571.68,-145.87"/>
</g>
<!-- x10 -->
<g id="node31" class="node">
<title>x10</title>
<path fill="none" stroke="black" d="M2391.8,-261C2391.8,-261 2430.3,-261 2430.3,-261 2436.3,-261 2442.3,-267 2442.3,-273 2442.3,-273 2442.3,-285 2442.3,-285 2442.3,-291 2436.3,-297 2430.3,-297 2430.3,-297 2391.8,-297 2391.8,-297 2385.8,-297 2379.8,-291 2379.8,-285 2379.8,-285 2379.8,-273 2379.8,-273 2379.8,-267 2385.8,-261 2391.8,-261"/>
<text text-anchor="middle" x="2411.05" y="-274.2" font-family="Times,serif" font-size="14.00">2:1 &#45; 1:0</text>
</g>
<!-- n24&#45;&gt;x10 -->
<g id="edge66" class="edge">
<title>n24:e&#45;&gt;x10:w</title>
<path fill="none" stroke="black" stroke-width="3" d="M510.84,-223C623.94,-223 652.2,-226 765.3,-226 765.3,-226 765.3,-226 1613.8,-226 1708.73,-226 1731.71,-211.23 1826.55,-207 1868.51,-205.13 1879.15,-204.12 1921.05,-207 2044.37,-215.46 2074.56,-225.14 2196.55,-245 2274.09,-257.62 2294.51,-277.3 2367.62,-279.11"/>
<polygon fill="black" stroke="black" stroke-width="3" points="2364.22,-282.57 2374.26,-279.19 2364.31,-275.57 2364.22,-282.57"/>
</g>
<!-- c48 -->
<g id="node40" class="node">
<title>c48</title>
<polygon fill="none" stroke="black" points="569.2,-293.5 569.2,-342.5 659.95,-342.5 659.95,-293.5 569.2,-293.5"/>
<text text-anchor="middle" x="582.07" y="-325.2" font-family="Times,serif" font-size="14.00">A</text>
<polyline fill="none" stroke="black" points="569.2,-318 594.95,-318"/>
<text text-anchor="middle" x="582.07" y="-300.7" font-family="Times,serif" font-size="14.00">B</text>
<polyline fill="none" stroke="black" points="594.95,-293.5 594.95,-342.5"/>
<text text-anchor="middle" x="614.57" y="-321.2" font-family="Times,serif" font-size="14.00">$45</text>
<text text-anchor="middle" x="614.57" y="-304.7" font-family="Times,serif" font-size="14.00">$shr</text>
<polyline fill="none" stroke="black" points="634.2,-293.5 634.2,-342.5"/>
<text text-anchor="middle" x="647.07" y="-313.2" font-family="Times,serif" font-size="14.00">Y</text>
</g>
<!-- n24&#45;&gt;c48 -->
<g id="edge65" class="edge">
<title>n24:e&#45;&gt;c48:w</title>
<path fill="none" stroke="black" stroke-width="3" d="M510.84,-223C551.22,-223 528.99,-290.38 557.14,-303.54"/>
<polygon fill="black" stroke="black" stroke-width="3" points="553.25,-306.33 563.74,-304.86 554.63,-299.46 553.25,-306.33"/>
</g>
<!-- n25 -->
<g id="node4" class="node">
<title>n25</title>
<polygon fill="none" stroke="black" points="1359.8,-130 1304.55,-112 1359.8,-94 1415.05,-112 1359.8,-130"/>
<text text-anchor="middle" x="1359.8" y="-106.95" font-family="Times,serif" font-size="14.00">temp_2</text>
</g>
<!-- c35 -->
<g id="node11" class="node">
<title>c35</title>
<polygon fill="none" stroke="black" points="1451.05,-428.5 1451.05,-477.5 1545.55,-477.5 1545.55,-428.5 1451.05,-428.5"/>
<text text-anchor="middle" x="1463.93" y="-460.2" font-family="Times,serif" font-size="14.00">A</text>
<polyline fill="none" stroke="black" points="1451.05,-453 1476.8,-453"/>
<text text-anchor="middle" x="1463.93" y="-435.7" font-family="Times,serif" font-size="14.00">B</text>
<polyline fill="none" stroke="black" points="1476.8,-428.5 1476.8,-477.5"/>
<text text-anchor="middle" x="1498.3" y="-456.2" font-family="Times,serif" font-size="14.00">$121</text>
<text text-anchor="middle" x="1498.3" y="-439.7" font-family="Times,serif" font-size="14.00">$xor</text>
<polyline fill="none" stroke="black" points="1519.8,-428.5 1519.8,-477.5"/>
<text text-anchor="middle" x="1532.68" y="-448.2" font-family="Times,serif" font-size="14.00">Y</text>
</g>
<!-- n25&#45;&gt;c35 -->
<g id="edge70" class="edge">
<title>n25:e&#45;&gt;c35:w</title>
<path fill="none" stroke="black" d="M1415.05,-112C1484.38,-112 1389.54,-404.56 1440.27,-437.71"/>
<polygon fill="black" stroke="black" points="1439.02,-440.99 1449.59,-440.34 1440.92,-434.25 1439.02,-440.99"/>
</g>
<!-- c40 -->
<g id="node21" class="node">
<title>c40</title>
<polygon fill="none" stroke="black" points="4877.92,-368.5 4877.92,-417.5 4972.42,-417.5 4972.42,-368.5 4877.92,-368.5"/>
<text text-anchor="middle" x="4890.79" y="-400.2" font-family="Times,serif" font-size="14.00">A</text>
<polyline fill="none" stroke="black" points="4877.92,-393 4903.67,-393"/>
<text text-anchor="middle" x="4890.79" y="-375.7" font-family="Times,serif" font-size="14.00">B</text>
<polyline fill="none" stroke="black" points="4903.67,-368.5 4903.67,-417.5"/>
<text text-anchor="middle" x="4925.17" y="-396.2" font-family="Times,serif" font-size="14.00">$142</text>
<text text-anchor="middle" x="4925.17" y="-379.7" font-family="Times,serif" font-size="14.00">$xor</text>
<polyline fill="none" stroke="black" points="4946.67,-368.5 4946.67,-417.5"/>
<text text-anchor="middle" x="4959.54" y="-388.2" font-family="Times,serif" font-size="14.00">Y</text>
</g>
<!-- n25&#45;&gt;c40 -->
<g id="edge71" class="edge">
<title>n25:e&#45;&gt;c40:w</title>
<path fill="none" stroke="black" d="M1415.05,-112C1459.58,-112 1567.27,-74 1611.8,-74 1611.8,-74 1611.8,-74 4742.62,-74 4887.69,-74 4737.27,-364.79 4866.77,-380.12"/>
<polygon fill="black" stroke="black" points="4866.22,-383.6 4876.41,-380.66 4866.62,-376.61 4866.22,-383.6"/>
</g>
<!-- c43 -->
<g id="node29" class="node">
<title>c43</title>
<polygon fill="none" stroke="black" points="2232.55,-398.5 2232.55,-447.5 2328.55,-447.5 2328.55,-398.5 2232.55,-398.5"/>
<text text-anchor="middle" x="2245.43" y="-430.2" font-family="Times,serif" font-size="14.00">A</text>
<polyline fill="none" stroke="black" points="2232.55,-423 2258.3,-423"/>
<text text-anchor="middle" x="2245.43" y="-405.7" font-family="Times,serif" font-size="14.00">B</text>
<polyline fill="none" stroke="black" points="2258.3,-398.5 2258.3,-447.5"/>
<text text-anchor="middle" x="2280.55" y="-426.2" font-family="Times,serif" font-size="14.00">$49</text>
<text text-anchor="middle" x="2280.55" y="-409.7" font-family="Times,serif" font-size="14.00">$mul</text>
<polyline fill="none" stroke="black" points="2302.8,-398.5 2302.8,-447.5"/>
<text text-anchor="middle" x="2315.68" y="-418.2" font-family="Times,serif" font-size="14.00">Y</text>
</g>
<!-- n25&#45;&gt;c43 -->
<g id="edge72" class="edge">
<title>n25:e&#45;&gt;c43:w</title>
<path fill="none" stroke="black" d="M1415.05,-112C1416.59,-112 1825.11,-274.47 1826.55,-275 1836.76,-278.73 2157.59,-389.06 2221.74,-408"/>
<polygon fill="black" stroke="black" points="2220.53,-411.3 2231.09,-410.38 2222.26,-404.52 2220.53,-411.3"/>
</g>
<!-- c55 -->
<g id="node54" class="node">
<title>c55</title>
<polygon fill="none" stroke="black" points="3511.5,-237.5 3511.5,-286.5 3604.5,-286.5 3604.5,-237.5 3511.5,-237.5"/>
<text text-anchor="middle" x="3524.38" y="-269.2" font-family="Times,serif" font-size="14.00">A</text>
<polyline fill="none" stroke="black" points="3511.5,-262 3537.25,-262"/>
<text text-anchor="middle" x="3524.38" y="-244.7" font-family="Times,serif" font-size="14.00">B</text>
<polyline fill="none" stroke="black" points="3537.25,-237.5 3537.25,-286.5"/>
<text text-anchor="middle" x="3558" y="-265.2" font-family="Times,serif" font-size="14.00">$56</text>
<text text-anchor="middle" x="3558" y="-248.7" font-family="Times,serif" font-size="14.00">$sub</text>
<polyline fill="none" stroke="black" points="3578.75,-237.5 3578.75,-286.5"/>
<text text-anchor="middle" x="3591.63" y="-257.2" font-family="Times,serif" font-size="14.00">Y</text>
</g>
<!-- n25&#45;&gt;c55 -->
<g id="edge73" class="edge">
<title>n25:e&#45;&gt;c55:w</title>
<path fill="none" stroke="black" d="M1415.05,-112C1502.5,-112 1524.36,-112 1611.8,-112 1611.8,-112 1611.8,-112 2151.05,-112 2323.67,-112 2366.82,-113 2539.43,-113 2539.43,-113 2539.43,-113 3133.7,-113 3154.24,-113 3437.82,-228.73 3500.48,-247.26"/>
<polygon fill="black" stroke="black" points="3499.5,-250.63 3510.03,-249.42 3501.04,-243.8 3499.5,-250.63"/>
</g>
<!-- n26 -->
<g id="node5" class="node">
<title>n26</title>
<polygon fill="none" stroke="black" points="2012.3,-502 1957.05,-484 2012.3,-466 2067.55,-484 2012.3,-502"/>
<text text-anchor="middle" x="2012.3" y="-478.95" font-family="Times,serif" font-size="14.00">temp_3</text>
</g>
<!-- x12 -->
<g id="node34" class="node">
<title>x12</title>
<path fill="none" stroke="black" d="M2521.18,-446C2521.18,-446 2559.68,-446 2559.68,-446 2565.68,-446 2571.68,-452 2571.68,-458 2571.68,-458 2571.68,-470 2571.68,-470 2571.68,-476 2565.68,-482 2559.68,-482 2559.68,-482 2521.18,-482 2521.18,-482 2515.18,-482 2509.18,-476 2509.18,-470 2509.18,-470 2509.18,-458 2509.18,-458 2509.18,-452 2515.18,-446 2521.18,-446"/>
<text text-anchor="middle" x="2540.43" y="-459.2" font-family="Times,serif" font-size="14.00">9:5 &#45; 4:0</text>
</g>
<!-- n26&#45;&gt;x12 -->
<g id="edge76" class="edge">
<title>n26:e&#45;&gt;x12:w</title>
<path fill="none" stroke="black" stroke-width="3" d="M2067.55,-484C2259.75,-484 2310.2,-465.01 2496.86,-464.27"/>
<polygon fill="black" stroke="black" stroke-width="3" points="2493.64,-467.78 2503.64,-464.26 2493.63,-460.78 2493.64,-467.78"/>
</g>
<!-- c53 -->
<g id="node50" class="node">
<title>c53</title>
<polygon fill="none" stroke="black" points="2103.55,-410.5 2103.55,-459.5 2196.55,-459.5 2196.55,-410.5 2103.55,-410.5"/>
<text text-anchor="middle" x="2116.43" y="-442.2" font-family="Times,serif" font-size="14.00">A</text>
<polyline fill="none" stroke="black" points="2103.55,-435 2129.3,-435"/>
<text text-anchor="middle" x="2116.43" y="-417.7" font-family="Times,serif" font-size="14.00">B</text>
<polyline fill="none" stroke="black" points="2129.3,-410.5 2129.3,-459.5"/>
<text text-anchor="middle" x="2150.05" y="-438.2" font-family="Times,serif" font-size="14.00">$48</text>
<text text-anchor="middle" x="2150.05" y="-421.7" font-family="Times,serif" font-size="14.00">$sub</text>
<polyline fill="none" stroke="black" points="2170.8,-410.5 2170.8,-459.5"/>
<text text-anchor="middle" x="2183.68" y="-430.2" font-family="Times,serif" font-size="14.00">Y</text>
</g>
<!-- n26&#45;&gt;c53 -->
<g id="edge75" class="edge">
<title>n26:e&#45;&gt;c53:w</title>
<path fill="none" stroke="black" stroke-width="3" d="M2067.55,-484C2085.77,-484 2083.3,-460.66 2093.11,-451.18"/>
<polygon fill="black" stroke="black" stroke-width="3" points="2091.18,-455.65 2099.3,-448.85 2088.71,-449.1 2091.18,-455.65"/>
</g>
<!-- n27 -->
<g id="node6" class="node">
<title>n27</title>
<polygon fill="none" stroke="black" points="1735.3,-387 1680.05,-369 1735.3,-351 1790.55,-369 1735.3,-387"/>
<text text-anchor="middle" x="1735.3" y="-363.95" font-family="Times,serif" font-size="14.00">temp_7</text>
</g>
<!-- c32 -->
<g id="node8" class="node">
<title>c32</title>
<polygon fill="none" stroke="black" points="2493.55,-357.5 2493.55,-406.5 2587.3,-406.5 2587.3,-357.5 2493.55,-357.5"/>
<text text-anchor="middle" x="2506.43" y="-389.2" font-family="Times,serif" font-size="14.00">A</text>
<polyline fill="none" stroke="black" points="2493.55,-382 2519.3,-382"/>
<text text-anchor="middle" x="2506.43" y="-364.7" font-family="Times,serif" font-size="14.00">B</text>
<polyline fill="none" stroke="black" points="2519.3,-357.5 2519.3,-406.5"/>
<text text-anchor="middle" x="2540.43" y="-385.2" font-family="Times,serif" font-size="14.00">$53</text>
<text text-anchor="middle" x="2540.43" y="-368.7" font-family="Times,serif" font-size="14.00">$add</text>
<polyline fill="none" stroke="black" points="2561.55,-357.5 2561.55,-406.5"/>
<text text-anchor="middle" x="2574.43" y="-377.2" font-family="Times,serif" font-size="14.00">Y</text>
</g>
<!-- n27&#45;&gt;c32 -->
<g id="edge78" class="edge">
<title>n27:e&#45;&gt;c32:w</title>
<path fill="none" stroke="black" stroke-width="3" d="M1790.55,-369C1888.66,-369 1913.19,-370 2011.3,-370 2011.3,-370 2011.3,-370 2281.55,-370 2371.82,-370 2397.23,-369.77 2482.05,-369.75"/>
<polygon fill="black" stroke="black" stroke-width="3" points="2479.01,-373.25 2489.01,-369.75 2479.01,-366.25 2479.01,-373.25"/>
</g>
<!-- c33 -->
<g id="node9" class="node">
<title>c33</title>
<polygon fill="none" stroke="black" points="3899,-472.5 3899,-521.5 3992.75,-521.5 3992.75,-472.5 3899,-472.5"/>
<text text-anchor="middle" x="3911.88" y="-504.2" font-family="Times,serif" font-size="14.00">A</text>
<polyline fill="none" stroke="black" points="3899,-497 3924.75,-497"/>
<text text-anchor="middle" x="3911.88" y="-479.7" font-family="Times,serif" font-size="14.00">B</text>
<polyline fill="none" stroke="black" points="3924.75,-472.5 3924.75,-521.5"/>
<text text-anchor="middle" x="3945.88" y="-500.2" font-family="Times,serif" font-size="14.00">$65</text>
<text text-anchor="middle" x="3945.88" y="-483.7" font-family="Times,serif" font-size="14.00">$add</text>
<polyline fill="none" stroke="black" points="3967,-472.5 3967,-521.5"/>
<text text-anchor="middle" x="3979.88" y="-492.2" font-family="Times,serif" font-size="14.00">Y</text>
</g>
<!-- n27&#45;&gt;c33 -->
<g id="edge79" class="edge">
<title>n27:e&#45;&gt;c33:w</title>
<path fill="none" stroke="black" stroke-width="3" d="M1790.55,-369C1829.54,-369 1799.27,-421.15 1826.55,-449 1929.97,-554.57 2001.27,-530 2149.05,-530 2149.05,-530 2149.05,-530 3679.5,-530 3773.57,-530 3799.01,-510.88 3887.58,-509.35"/>
<polygon fill="black" stroke="black" stroke-width="3" points="3884.49,-512.87 3894.46,-509.29 3884.43,-505.87 3884.49,-512.87"/>
</g>
<!-- c37 -->
<g id="node14" class="node">
<title>c37</title>
<polygon fill="none" stroke="black" points="1826.55,-398.5 1826.55,-439.5 1921.05,-439.5 1921.05,-398.5 1826.55,-398.5"/>
<text text-anchor="middle" x="1839.43" y="-414.2" font-family="Times,serif" font-size="14.00">A</text>
<polyline fill="none" stroke="black" points="1852.3,-398.5 1852.3,-439.5"/>
<text text-anchor="middle" x="1873.8" y="-422.2" font-family="Times,serif" font-size="14.00">$128</text>
<text text-anchor="middle" x="1873.8" y="-405.7" font-family="Times,serif" font-size="14.00">$not</text>
<polyline fill="none" stroke="black" points="1895.3,-398.5 1895.3,-439.5"/>
<text text-anchor="middle" x="1908.18" y="-414.2" font-family="Times,serif" font-size="14.00">Y</text>
</g>
<!-- n27&#45;&gt;c37 -->
<g id="edge80" class="edge">
<title>n27:e&#45;&gt;c37:w</title>
<path fill="none" stroke="black" stroke-width="3" d="M1790.55,-369C1813.3,-369 1804.22,-403.46 1816.03,-415.31"/>
<polygon fill="black" stroke="black" stroke-width="3" points="1811.71,-417.43 1822.3,-417.66 1814.16,-410.87 1811.71,-417.43"/>
</g>
<!-- c39 -->
<g id="node18" class="node">
<title>c39</title>
<polygon fill="none" stroke="black" points="4400.66,-236.5 4400.66,-285.5 4495.16,-285.5 4495.16,-236.5 4400.66,-236.5"/>
<text text-anchor="middle" x="4413.54" y="-268.2" font-family="Times,serif" font-size="14.00">A</text>
<polyline fill="none" stroke="black" points="4400.66,-261 4426.41,-261"/>
<text text-anchor="middle" x="4413.54" y="-243.7" font-family="Times,serif" font-size="14.00">B</text>
<polyline fill="none" stroke="black" points="4426.41,-236.5 4426.41,-285.5"/>
<text text-anchor="middle" x="4447.91" y="-264.2" font-family="Times,serif" font-size="14.00">$139</text>
<text text-anchor="middle" x="4447.91" y="-247.7" font-family="Times,serif" font-size="14.00">$xor</text>
<polyline fill="none" stroke="black" points="4469.41,-236.5 4469.41,-285.5"/>
<text text-anchor="middle" x="4482.29" y="-256.2" font-family="Times,serif" font-size="14.00">Y</text>
</g>
<!-- n27&#45;&gt;c39 -->
<g id="edge81" class="edge">
<title>n27:e&#45;&gt;c39:w</title>
<path fill="none" stroke="black" stroke-width="3" d="M1790.55,-369C1806.65,-369 1810.54,-366.63 1826.55,-365 2106.74,-336.56 2180.82,-359.29 2457.55,-307 2532.91,-292.76 2547.8,-272.49 2623.3,-259 2763.93,-233.88 2801.05,-236 2943.9,-236 2943.9,-236 2943.9,-236 3057.9,-236 3177.16,-236 3195.99,-160 3315.25,-160 3315.25,-160 3315.25,-160 4207.5,-160 4297.63,-160 4305.09,-241.45 4388.27,-248.29"/>
<polygon fill="black" stroke="black" stroke-width="3" points="4384.99,-251.66 4395.12,-248.57 4385.27,-244.67 4384.99,-251.66"/>
</g>
<!-- n28 -->
<g id="node7" class="node">
<title>n28</title>
<polygon fill="none" stroke="black" points="3807.75,-362 3752.5,-344 3807.75,-326 3863,-344 3807.75,-362"/>
<text text-anchor="middle" x="3807.75" y="-338.95" font-family="Times,serif" font-size="14.00">temp_8</text>
</g>
<!-- n28&#45;&gt;c33 -->
<g id="edge84" class="edge">
<title>n28:e&#45;&gt;c33:w</title>
<path fill="none" stroke="black" stroke-width="3" d="M3863,-344C3923.16,-344 3846.43,-466.16 3887.87,-482.87"/>
<polygon fill="black" stroke="black" stroke-width="3" points="3884.08,-485.78 3894.53,-483.99 3885.25,-478.87 3884.08,-485.78"/>
</g>
<!-- c34 -->
<g id="node10" class="node">
<title>c34</title>
<polygon fill="none" stroke="black" points="4028.75,-434.5 4028.75,-483.5 4122.5,-483.5 4122.5,-434.5 4028.75,-434.5"/>
<text text-anchor="middle" x="4041.63" y="-466.2" font-family="Times,serif" font-size="14.00">A</text>
<polyline fill="none" stroke="black" points="4028.75,-459 4054.5,-459"/>
<text text-anchor="middle" x="4041.63" y="-441.7" font-family="Times,serif" font-size="14.00">B</text>
<polyline fill="none" stroke="black" points="4054.5,-434.5 4054.5,-483.5"/>
<text text-anchor="middle" x="4075.63" y="-462.2" font-family="Times,serif" font-size="14.00">$66</text>
<text text-anchor="middle" x="4075.63" y="-445.7" font-family="Times,serif" font-size="14.00">$and</text>
<polyline fill="none" stroke="black" points="4096.75,-434.5 4096.75,-483.5"/>
<text text-anchor="middle" x="4109.63" y="-454.2" font-family="Times,serif" font-size="14.00">Y</text>
</g>
<!-- n28&#45;&gt;c34 -->
<g id="edge85" class="edge">
<title>n28:e&#45;&gt;c34:w</title>
<path fill="none" stroke="black" stroke-width="3" d="M3863,-344C3902.87,-344 3972.98,-430.95 4017.69,-444.88"/>
<polygon fill="black" stroke="black" stroke-width="3" points="4013.83,-447.78 4024.28,-445.99 4015,-440.87 4013.83,-447.78"/>
</g>
<!-- x31 -->
<g id="node64" class="node">
<title>x31</title>
<path fill="none" stroke="black" d="M3919.88,-279C3919.88,-279 3971.88,-279 3971.88,-279 3977.88,-279 3983.88,-285 3983.88,-291 3983.88,-291 3983.88,-303 3983.88,-303 3983.88,-309 3977.88,-315 3971.88,-315 3971.88,-315 3919.88,-315 3919.88,-315 3913.88,-315 3907.88,-309 3907.88,-303 3907.88,-303 3907.88,-291 3907.88,-291 3907.88,-285 3913.88,-279 3919.88,-279"/>
<text text-anchor="middle" x="3945.88" y="-292.2" font-family="Times,serif" font-size="14.00">17:2 &#45; 15:0</text>
</g>
<!-- n28&#45;&gt;x31 -->
<g id="edge86" class="edge">
<title>n28:e&#45;&gt;x31:w</title>
<path fill="none" stroke="black" stroke-width="3" d="M3863,-344C3887.05,-344 3881.47,-310.72 3896.25,-300.32"/>
<polygon fill="black" stroke="black" stroke-width="3" points="3893.88,-304.65 3902.52,-298.51 3891.94,-297.92 3893.88,-304.65"/>
</g>
<!-- c44 -->
<g id="node30" class="node">
<title>c44</title>
<polygon fill="none" stroke="black" points="2623.3,-268.5 2623.3,-317.5 2719.3,-317.5 2719.3,-268.5 2623.3,-268.5"/>
<text text-anchor="middle" x="2636.18" y="-300.2" font-family="Times,serif" font-size="14.00">A</text>
<polyline fill="none" stroke="black" points="2623.3,-293 2649.05,-293"/>
<text text-anchor="middle" x="2636.18" y="-275.7" font-family="Times,serif" font-size="14.00">B</text>
<polyline fill="none" stroke="black" points="2649.05,-268.5 2649.05,-317.5"/>
<text text-anchor="middle" x="2671.3" y="-296.2" font-family="Times,serif" font-size="14.00">$54</text>
<text text-anchor="middle" x="2671.3" y="-279.7" font-family="Times,serif" font-size="14.00">$mul</text>
<polyline fill="none" stroke="black" points="2693.55,-268.5 2693.55,-317.5"/>
<text text-anchor="middle" x="2706.43" y="-288.2" font-family="Times,serif" font-size="14.00">Y</text>
</g>
<!-- c32&#45;&gt;c44 -->
<g id="edge29" class="edge">
<title>c32:e&#45;&gt;c44:w</title>
<path fill="none" stroke="black" stroke-width="3" d="M2587.3,-382.25C2620.36,-382.25 2594.21,-323.3 2612.46,-308.56"/>
<polygon fill="black" stroke="black" stroke-width="3" points="2610.42,-312.84 2618.96,-306.58 2608.37,-306.15 2610.42,-312.84"/>
</g>
<!-- c33&#45;&gt;c34 -->
<g id="edge50" class="edge">
<title>c33:e&#45;&gt;c34:w</title>
<path fill="none" stroke="black" stroke-width="3" d="M3992.75,-497.25C4007.87,-497.25 4009.37,-482.01 4018.1,-474.87"/>
<polygon fill="black" stroke="black" stroke-width="3" points="4016.11,-479.24 4024.45,-472.71 4013.86,-472.61 4016.11,-479.24"/>
</g>
<!-- c45 -->
<g id="node33" class="node">
<title>c45</title>
<polygon fill="none" stroke="black" points="4158.5,-393.5 4158.5,-442.5 4254.5,-442.5 4254.5,-393.5 4158.5,-393.5"/>
<text text-anchor="middle" x="4171.38" y="-425.2" font-family="Times,serif" font-size="14.00">A</text>
<polyline fill="none" stroke="black" points="4158.5,-418 4184.25,-418"/>
<text text-anchor="middle" x="4171.38" y="-400.7" font-family="Times,serif" font-size="14.00">B</text>
<polyline fill="none" stroke="black" points="4184.25,-393.5 4184.25,-442.5"/>
<text text-anchor="middle" x="4206.5" y="-421.2" font-family="Times,serif" font-size="14.00">$67</text>
<text text-anchor="middle" x="4206.5" y="-404.7" font-family="Times,serif" font-size="14.00">$mul</text>
<polyline fill="none" stroke="black" points="4228.75,-393.5 4228.75,-442.5"/>
<text text-anchor="middle" x="4241.63" y="-413.2" font-family="Times,serif" font-size="14.00">Y</text>
</g>
<!-- c34&#45;&gt;c45 -->
<g id="edge88" class="edge">
<title>c34:e&#45;&gt;c45:w</title>
<path fill="none" stroke="black" stroke-width="3" d="M4122.5,-459.25C4138.4,-459.25 4138.95,-441.9 4147.89,-434.04"/>
<polygon fill="black" stroke="black" stroke-width="3" points="4145.99,-438.44 4154.23,-431.78 4143.63,-431.85 4145.99,-438.44"/>
</g>
<!-- x19 -->
<g id="node47" class="node">
<title>x19</title>
<path fill="none" stroke="black" d="M1593.55,-485.5C1593.55,-485.5 1632.05,-485.5 1632.05,-485.5 1638.05,-485.5 1644.05,-491.5 1644.05,-497.5 1644.05,-497.5 1644.05,-522.5 1644.05,-522.5 1644.05,-528.5 1638.05,-534.5 1632.05,-534.5 1632.05,-534.5 1593.55,-534.5 1593.55,-534.5 1587.55,-534.5 1581.55,-528.5 1581.55,-522.5 1581.55,-522.5 1581.55,-497.5 1581.55,-497.5 1581.55,-491.5 1587.55,-485.5 1593.55,-485.5"/>
<text text-anchor="middle" x="1612.8" y="-517.2" font-family="Times,serif" font-size="14.00">8:0 &#45; 9:1</text>
<polyline fill="none" stroke="black" points="1581.55,-510 1644.05,-510"/>
<text text-anchor="middle" x="1612.8" y="-492.7" font-family="Times,serif" font-size="14.00">0:0 &#45; 0:0</text>
</g>
<!-- c35&#45;&gt;x19 -->
<g id="edge89" class="edge">
<title>c35:e&#45;&gt;x19:w</title>
<path fill="none" stroke="black" d="M1545.55,-453.25C1566.22,-453.25 1560.27,-482.63 1570.96,-493.64"/>
<polygon fill="black" stroke="black" points="1569.55,-496.85 1580.14,-497.2 1572.08,-490.32 1569.55,-496.85"/>
</g>
<!-- x0 -->
<g id="node12" class="node">
<title>x0</title>
<path fill="none" stroke="black" d="M1340.55,-447C1340.55,-447 1379.05,-447 1379.05,-447 1385.05,-447 1391.05,-453 1391.05,-459 1391.05,-459 1391.05,-471 1391.05,-471 1391.05,-477 1385.05,-483 1379.05,-483 1379.05,-483 1340.55,-483 1340.55,-483 1334.55,-483 1328.55,-477 1328.55,-471 1328.55,-471 1328.55,-459 1328.55,-459 1328.55,-453 1334.55,-447 1340.55,-447"/>
<text text-anchor="middle" x="1359.8" y="-460.2" font-family="Times,serif" font-size="14.00">0:0 &#45; 0:0</text>
</g>
<!-- x0&#45;&gt;c35 -->
<g id="edge1" class="edge">
<title>x0:e&#45;&gt;c35:w</title>
<path fill="none" stroke="black" d="M1404.99,-465.02C1417.7,-465.07 1425.56,-465.18 1438.32,-465.23"/>
<polygon fill="none" stroke="black" points="1404.95,-465.02 1398.95,-469.01 1392.95,-465 1398.96,-461.01 1404.95,-465.02"/>
<polygon fill="none" stroke="black" points="1438.15,-465.23 1444.16,-461.24 1450.15,-465.25 1444.14,-469.24 1438.15,-465.23"/>
</g>
<!-- n7 -->
<g id="node73" class="node">
<title>n7</title>
<ellipse fill="black" stroke="black" cx="1612.8" cy="-275" rx="1.8" ry="1.8"/>
</g>
<!-- c36&#45;&gt;n7 -->
<g id="edge93" class="edge">
<title>c36:e&#45;&gt;n7:w</title>
<path fill="none" stroke="black" stroke-width="3" d="M814.3,-275.25C900.74,-275.25 922.36,-275 1008.8,-275 1008.8,-275 1008.8,-275 1360.8,-275 1467.46,-275 1496.93,-275 1598.16,-275"/>
<polygon fill="black" stroke="black" stroke-width="3" points="1594.98,-278.5 1604.98,-275 1594.98,-271.5 1594.98,-278.5"/>
</g>
<!-- x21 -->
<g id="node51" class="node">
<title>x21</title>
<path fill="none" stroke="black" d="M1993.05,-398.5C1993.05,-398.5 2031.55,-398.5 2031.55,-398.5 2037.55,-398.5 2043.55,-404.5 2043.55,-410.5 2043.55,-410.5 2043.55,-435.5 2043.55,-435.5 2043.55,-441.5 2037.55,-447.5 2031.55,-447.5 2031.55,-447.5 1993.05,-447.5 1993.05,-447.5 1987.05,-447.5 1981.05,-441.5 1981.05,-435.5 1981.05,-435.5 1981.05,-410.5 1981.05,-410.5 1981.05,-404.5 1987.05,-398.5 1993.05,-398.5"/>
<text text-anchor="middle" x="2012.3" y="-430.2" font-family="Times,serif" font-size="14.00">1 &#45;&gt; 9:2</text>
<polyline fill="none" stroke="black" points="1981.05,-423 2043.55,-423"/>
<text text-anchor="middle" x="2012.3" y="-405.7" font-family="Times,serif" font-size="14.00">1:0 &#45; 1:0</text>
</g>
<!-- c37&#45;&gt;x21 -->
<g id="edge96" class="edge">
<title>c37:e&#45;&gt;x21:w</title>
<path fill="none" stroke="black" stroke-width="3" d="M1921.05,-419.25C1943.41,-419.25 1951.18,-413.2 1968.98,-411.31"/>
<polygon fill="black" stroke="black" stroke-width="3" points="1965.71,-414.98 1975.52,-410.98 1965.35,-407.99 1965.71,-414.98"/>
</g>
<!-- c38 -->
<g id="node15" class="node">
<title>c38</title>
<polygon fill="none" stroke="black" points="3269,-237.5 3269,-286.5 3363.5,-286.5 3363.5,-237.5 3269,-237.5"/>
<text text-anchor="middle" x="3281.88" y="-269.2" font-family="Times,serif" font-size="14.00">A</text>
<polyline fill="none" stroke="black" points="3269,-262 3294.75,-262"/>
<text text-anchor="middle" x="3281.88" y="-244.7" font-family="Times,serif" font-size="14.00">B</text>
<polyline fill="none" stroke="black" points="3294.75,-237.5 3294.75,-286.5"/>
<text text-anchor="middle" x="3316.25" y="-265.2" font-family="Times,serif" font-size="14.00">$136</text>
<text text-anchor="middle" x="3316.25" y="-248.7" font-family="Times,serif" font-size="14.00">$xor</text>
<polyline fill="none" stroke="black" points="3337.75,-237.5 3337.75,-286.5"/>
<text text-anchor="middle" x="3350.63" y="-257.2" font-family="Times,serif" font-size="14.00">Y</text>
</g>
<!-- x23 -->
<g id="node55" class="node">
<title>x23</title>
<path fill="none" stroke="black" d="M3411.5,-249.5C3411.5,-249.5 3463.5,-249.5 3463.5,-249.5 3469.5,-249.5 3475.5,-255.5 3475.5,-261.5 3475.5,-261.5 3475.5,-286.5 3475.5,-286.5 3475.5,-292.5 3469.5,-298.5 3463.5,-298.5 3463.5,-298.5 3411.5,-298.5 3411.5,-298.5 3405.5,-298.5 3399.5,-292.5 3399.5,-286.5 3399.5,-286.5 3399.5,-261.5 3399.5,-261.5 3399.5,-255.5 3405.5,-249.5 3411.5,-249.5"/>
<text text-anchor="middle" x="3437.5" y="-281.2" font-family="Times,serif" font-size="14.00">15:0 &#45; 17:2</text>
<polyline fill="none" stroke="black" points="3399.5,-274 3475.5,-274"/>
<text text-anchor="middle" x="3437.5" y="-256.7" font-family="Times,serif" font-size="14.00">1:0 &#45; 1:0</text>
</g>
<!-- c38&#45;&gt;x23 -->
<g id="edge97" class="edge">
<title>c38:e&#45;&gt;x23:w</title>
<path fill="none" stroke="black" stroke-width="3" d="M3363.5,-262.25C3374.88,-262.25 3380.19,-262 3388.06,-261.85"/>
<polygon fill="black" stroke="black" stroke-width="3" points="3384.99,-265.38 3394.96,-261.79 3384.93,-258.38 3384.99,-265.38"/>
</g>
<!-- x1 -->
<g id="node16" class="node">
<title>x1</title>
<path fill="none" stroke="black" d="M3182.5,-256C3182.5,-256 3221,-256 3221,-256 3227,-256 3233,-262 3233,-268 3233,-268 3233,-280 3233,-280 3233,-286 3227,-292 3221,-292 3221,-292 3182.5,-292 3182.5,-292 3176.5,-292 3170.5,-286 3170.5,-280 3170.5,-280 3170.5,-268 3170.5,-268 3170.5,-262 3176.5,-256 3182.5,-256"/>
<text text-anchor="middle" x="3201.75" y="-269.2" font-family="Times,serif" font-size="14.00">1:0 &#45; 1:0</text>
</g>
<!-- x1&#45;&gt;c38 -->
<g id="edge2" class="edge">
<title>x1:e&#45;&gt;c38:w</title>
<path fill="none" stroke="black" stroke-width="3" d="M3245.73,-274.06C3249.32,-274.1 3252.46,-274.15 3256.03,-274.18"/>
<polygon fill="none" stroke="black" stroke-width="3" points="3247.71,-274.07 3241.69,-278.04 3235.71,-274.01 3241.73,-270.04 3247.71,-274.07"/>
<polygon fill="none" stroke="black" stroke-width="3" points="3254.3,-274.18 3260.32,-270.21 3266.3,-274.24 3260.28,-278.21 3254.3,-274.18"/>
</g>
<!-- x2&#45;&gt;c38 -->
<g id="edge3" class="edge">
<title>x2:e&#45;&gt;c38:w</title>
<path fill="none" stroke="black" stroke-width="3" d="M2325.83,-159.22C2417.11,-162.35 2441.72,-198 2539.43,-198 2539.43,-198 2539.43,-198 3133.7,-198 3193.56,-198 3203.42,-242.73 3256.24,-249.02"/>
<polygon fill="none" stroke="black" stroke-width="3" points="2327.51,-159.25 2321.44,-163.15 2315.51,-159.05 2321.57,-155.15 2327.51,-159.25"/>
<polygon fill="none" stroke="black" stroke-width="3" points="3254.32,-248.91 3260.54,-245.26 3266.3,-249.6 3260.08,-253.25 3254.32,-248.91"/>
</g>
<!-- x4 -->
<g id="node20" class="node">
<title>x4</title>
<path fill="none" stroke="black" d="M4554.82,-280C4554.82,-280 4593.32,-280 4593.32,-280 4599.32,-280 4605.32,-286 4605.32,-292 4605.32,-292 4605.32,-304 4605.32,-304 4605.32,-310 4599.32,-316 4593.32,-316 4593.32,-316 4554.82,-316 4554.82,-316 4548.82,-316 4542.82,-310 4542.82,-304 4542.82,-304 4542.82,-292 4542.82,-292 4542.82,-286 4548.82,-280 4554.82,-280"/>
<text text-anchor="middle" x="4574.07" y="-293.2" font-family="Times,serif" font-size="14.00">1:0 &#45; 1:0</text>
</g>
<!-- c39&#45;&gt;x4 -->
<g id="edge5" class="edge">
<title>c39:e&#45;&gt;x4:w</title>
<path fill="none" stroke="black" stroke-width="3" d="M4508.39,-264.91C4518.25,-271.95 4520.74,-287.32 4530.61,-294.36"/>
<polygon fill="none" stroke="black" stroke-width="3" points="4510.25,-265.46 4503.35,-267.58 4498.75,-262.03 4505.65,-259.91 4510.25,-265.46"/>
<polygon fill="none" stroke="black" stroke-width="3" points="4528.73,-293.79 4535.62,-291.68 4540.23,-297.23 4533.33,-299.34 4528.73,-293.79"/>
</g>
<!-- x3 -->
<g id="node19" class="node">
<title>x3</title>
<path fill="none" stroke="black" d="M4302.5,-255C4302.5,-255 4341,-255 4341,-255 4347,-255 4353,-261 4353,-267 4353,-267 4353,-279 4353,-279 4353,-285 4347,-291 4341,-291 4341,-291 4302.5,-291 4302.5,-291 4296.5,-291 4290.5,-285 4290.5,-279 4290.5,-279 4290.5,-267 4290.5,-267 4290.5,-261 4296.5,-255 4302.5,-255"/>
<text text-anchor="middle" x="4321.75" y="-268.2" font-family="Times,serif" font-size="14.00">1:0 &#45; 1:0</text>
</g>
<!-- x3&#45;&gt;c39 -->
<g id="edge4" class="edge">
<title>x3:e&#45;&gt;c39:w</title>
<path fill="none" stroke="black" stroke-width="3" d="M4365.78,-273.04C4373.52,-273.08 4379.13,-273.17 4386.86,-273.21"/>
<polygon fill="none" stroke="black" stroke-width="3" points="4367.71,-273.04 4361.7,-277.03 4355.71,-273.01 4361.72,-269.03 4367.71,-273.04"/>
<polygon fill="none" stroke="black" stroke-width="3" points="4384.96,-273.21 4390.97,-269.22 4396.96,-273.24 4390.95,-277.22 4384.96,-273.21"/>
</g>
<!-- x4&#45;&gt;n28 -->
<g id="edge83" class="edge">
<title>x4:e&#45;&gt;n28:w</title>
<path fill="none" stroke="black" stroke-width="3" d="M4606.32,-298.25C4614.44,-298.25 4610.94,-310.64 4605.32,-316.5 4518,-407.59 4448.93,-344 4322.75,-344 4074.63,-344 4074.63,-344 4074.63,-344 3980.23,-344 3957.31,-358 3863,-362 3813.33,-364.11 3787.25,-396.17 3751.13,-362 3749.13,-360.11 3747.44,-357.39 3746.41,-354.64"/>
<polygon fill="black" stroke="black" stroke-width="3" points="3748.63,-358.88 3748.63,-348.29 3742.02,-356.57 3748.63,-358.88"/>
</g>
<!-- x6 -->
<g id="node23" class="node">
<title>x6</title>
<path fill="none" stroke="black" d="M5020.42,-428C5020.42,-428 5058.92,-428 5058.92,-428 5064.92,-428 5070.92,-434 5070.92,-440 5070.92,-440 5070.92,-452 5070.92,-452 5070.92,-458 5064.92,-464 5058.92,-464 5058.92,-464 5020.42,-464 5020.42,-464 5014.42,-464 5008.42,-458 5008.42,-452 5008.42,-452 5008.42,-440 5008.42,-440 5008.42,-434 5014.42,-428 5020.42,-428"/>
<text text-anchor="middle" x="5039.67" y="-441.2" font-family="Times,serif" font-size="14.00">0:0 &#45; 0:0</text>
</g>
<!-- c40&#45;&gt;x6 -->
<g id="edge7" class="edge">
<title>c40:e&#45;&gt;x6:w</title>
<path fill="none" stroke="black" d="M4984.16,-398.5C4992.04,-408.61 4988.79,-430.68 4996.7,-440.77"/>
<polygon fill="none" stroke="black" points="4984.19,-398.52 4977.08,-399.72 4973.24,-393.62 4980.35,-392.42 4984.19,-398.52"/>
<polygon fill="none" stroke="black" points="4996.64,-440.74 5003.74,-439.54 5007.59,-445.63 5000.48,-446.84 4996.64,-440.74"/>
</g>
<!-- x5 -->
<g id="node22" class="node">
<title>x5</title>
<path fill="none" stroke="black" d="M4791.42,-387C4791.42,-387 4829.92,-387 4829.92,-387 4835.92,-387 4841.92,-393 4841.92,-399 4841.92,-399 4841.92,-411 4841.92,-411 4841.92,-417 4835.92,-423 4829.92,-423 4829.92,-423 4791.42,-423 4791.42,-423 4785.42,-423 4779.42,-417 4779.42,-411 4779.42,-411 4779.42,-399 4779.42,-399 4779.42,-393 4785.42,-387 4791.42,-387"/>
<text text-anchor="middle" x="4810.67" y="-400.2" font-family="Times,serif" font-size="14.00">0:0 &#45; 0:0</text>
</g>
<!-- x5&#45;&gt;c40 -->
<g id="edge6" class="edge">
<title>x5:e&#45;&gt;c40:w</title>
<path fill="none" stroke="black" d="M4854.64,-405.06C4858.24,-405.1 4861.37,-405.15 4864.94,-405.18"/>
<polygon fill="none" stroke="black" points="4854.82,-405.06 4848.8,-409.03 4842.82,-405 4848.84,-401.03 4854.82,-405.06"/>
<polygon fill="none" stroke="black" points="4865.02,-405.18 4871.04,-401.22 4877.02,-405.25 4871,-409.21 4865.02,-405.18"/>
</g>
<!-- x6&#45;&gt;n23 -->
<g id="edge61" class="edge">
<title>x6:e&#45;&gt;n23:w</title>
<path fill="none" stroke="black" d="M5071.92,-446.25C5080.04,-446.25 5076.69,-458.79 5070.92,-464.5 4988.94,-545.63 4927,-476 4811.67,-476 4671.57,-476 4671.57,-476 4671.57,-476 4545.26,-476 4476.12,-539.22 4388.76,-448 4386.94,-446.1 4385.34,-443.51 4384.3,-440.89"/>
<polygon fill="black" stroke="black" points="4387.61,-442.03 4387.3,-431.44 4380.94,-439.92 4387.61,-442.03"/>
</g>
<!-- c41 -->
<g id="node24" class="node">
<title>c41</title>
<polygon fill="none" stroke="black" points="720.55,-118.5 720.55,-159.5 812.05,-159.5 812.05,-118.5 720.55,-118.5"/>
<text text-anchor="middle" x="733.43" y="-134.2" font-family="Times,serif" font-size="14.00">A</text>
<polyline fill="none" stroke="black" points="746.3,-118.5 746.3,-159.5"/>
<text text-anchor="middle" x="766.3" y="-142.2" font-family="Times,serif" font-size="14.00">$82</text>
<text text-anchor="middle" x="766.3" y="-125.7" font-family="Times,serif" font-size="14.00">$not</text>
<polyline fill="none" stroke="black" points="786.3,-118.5 786.3,-159.5"/>
<text text-anchor="middle" x="799.18" y="-134.2" font-family="Times,serif" font-size="14.00">Y</text>
</g>
<!-- c56 -->
<g id="node57" class="node">
<title>c56</title>
<polygon fill="none" stroke="black" points="850.3,-88.5 850.3,-137.5 942.55,-137.5 942.55,-88.5 850.3,-88.5"/>
<text text-anchor="middle" x="863.18" y="-120.2" font-family="Times,serif" font-size="14.00">A</text>
<polyline fill="none" stroke="black" points="850.3,-113 876.05,-113"/>
<text text-anchor="middle" x="863.18" y="-95.7" font-family="Times,serif" font-size="14.00">B</text>
<polyline fill="none" stroke="black" points="876.05,-88.5 876.05,-137.5"/>
<text text-anchor="middle" x="896.43" y="-116.2" font-family="Times,serif" font-size="14.00">$27</text>
<text text-anchor="middle" x="896.43" y="-99.7" font-family="Times,serif" font-size="14.00">$xor</text>
<polyline fill="none" stroke="black" points="916.8,-88.5 916.8,-137.5"/>
<text text-anchor="middle" x="929.68" y="-108.2" font-family="Times,serif" font-size="14.00">Y</text>
</g>
<!-- c41&#45;&gt;c56 -->
<g id="edge87" class="edge">
<title>c41:e&#45;&gt;c56:w</title>
<path fill="none" stroke="black" d="M813.05,-139.25C826.18,-139.25 830.6,-131.54 839.23,-127.56"/>
<polygon fill="black" stroke="black" points="839.75,-131.03 848.82,-125.56 838.31,-124.18 839.75,-131.03"/>
</g>
<!-- x7&#45;&gt;c41 -->
<g id="edge8" class="edge">
<title>x7:e&#45;&gt;c41:w</title>
<path fill="none" stroke="black" d="M659.77,-139.96C678.16,-139.82 688.15,-139.43 706.5,-139.3"/>
<polygon fill="none" stroke="black" points="659.72,-139.96 653.74,-143.98 647.72,-140 653.71,-135.98 659.72,-139.96"/>
<polygon fill="none" stroke="black" points="706.65,-139.29 712.64,-135.27 718.65,-139.25 712.66,-143.27 706.65,-139.29"/>
</g>
<!-- v8 -->
<g id="node26" class="node">
<title>v8</title>
<ellipse fill="none" stroke="black" cx="614.57" cy="-473" rx="67.73" ry="18"/>
<text text-anchor="middle" x="614.57" y="-467.95" font-family="Times,serif" font-size="14.00">10&#39;1000111101</text>
</g>
<!-- v8&#45;&gt;c42 -->
<g id="edge99" class="edge">
<title>v8:e&#45;&gt;c42:w</title>
<path fill="none" stroke="black" stroke-width="3" d="M682.3,-473C694.21,-473 699.04,-467.96 706.96,-465.13"/>
<polygon fill="black" stroke="black" stroke-width="3" points="704.53,-469.08 713.82,-463.99 703.38,-462.18 704.53,-469.08"/>
</g>
<!-- x9 -->
<g id="node28" class="node">
<title>x9</title>
<path fill="none" stroke="black" d="M877.18,-426.5C877.18,-426.5 915.68,-426.5 915.68,-426.5 921.68,-426.5 927.68,-432.5 927.68,-438.5 927.68,-438.5 927.68,-463.5 927.68,-463.5 927.68,-469.5 921.68,-475.5 915.68,-475.5 915.68,-475.5 877.18,-475.5 877.18,-475.5 871.18,-475.5 865.18,-469.5 865.18,-463.5 865.18,-463.5 865.18,-438.5 865.18,-438.5 865.18,-432.5 871.18,-426.5 877.18,-426.5"/>
<text text-anchor="middle" x="896.43" y="-458.2" font-family="Times,serif" font-size="14.00">9:1 &#45; 8:0</text>
<polyline fill="none" stroke="black" points="865.18,-451 927.68,-451"/>
<text text-anchor="middle" x="896.43" y="-433.7" font-family="Times,serif" font-size="14.00">0:0 &#45; 0:0</text>
</g>
<!-- c42&#45;&gt;x9 -->
<g id="edge9" class="edge">
<title>c42:e&#45;&gt;x9:w</title>
<path fill="none" stroke="black" stroke-width="3" d="M827.19,-451.22C836.08,-451.17 842.28,-451.08 851.13,-451.03"/>
<polygon fill="none" stroke="black" stroke-width="3" points="829,-451.21 823.01,-455.23 817,-451.24 822.99,-447.23 829,-451.21"/>
<polygon fill="none" stroke="black" stroke-width="3" points="849.47,-451.04 855.46,-447.02 861.47,-451.01 855.48,-455.02 849.47,-451.04"/>
</g>
<!-- n18 -->
<g id="node71" class="node">
<title>n18</title>
<ellipse fill="black" stroke="black" cx="1222.05" cy="-465" rx="1.8" ry="1.8"/>
</g>
<!-- x9&#45;&gt;n18 -->
<g id="edge47" class="edge">
<title>x9:e&#45;&gt;n18:w</title>
<path fill="none" stroke="black" d="M928.68,-438.75C1022.49,-438.75 1046.5,-436.06 1139.55,-448 1171.22,-452.06 1180.7,-462.29 1207.55,-464.55"/>
<polygon fill="black" stroke="black" points="1207.13,-468.04 1217.26,-464.94 1207.41,-461.04 1207.13,-468.04"/>
</g>
<!-- n6 -->
<g id="node72" class="node">
<title>n6</title>
<ellipse fill="black" stroke="black" cx="1009.8" cy="-475" rx="1.8" ry="1.8"/>
</g>
<!-- x9&#45;&gt;n6 -->
<g id="edge90" class="edge">
<title>x9:e&#45;&gt;n6:w</title>
<path fill="none" stroke="black" stroke-width="3" d="M928.68,-463.25C959.57,-463.25 969.32,-472.41 995.25,-474.55"/>
<polygon fill="black" stroke="black" stroke-width="3" points="991.85,-477.92 1001.99,-474.82 992.13,-470.93 991.85,-477.92"/>
</g>
<!-- c54 -->
<g id="node52" class="node">
<title>c54</title>
<polygon fill="none" stroke="black" points="2364.55,-398.5 2364.55,-447.5 2457.55,-447.5 2457.55,-398.5 2364.55,-398.5"/>
<text text-anchor="middle" x="2377.43" y="-430.2" font-family="Times,serif" font-size="14.00">A</text>
<polyline fill="none" stroke="black" points="2364.55,-423 2390.3,-423"/>
<text text-anchor="middle" x="2377.43" y="-405.7" font-family="Times,serif" font-size="14.00">B</text>
<polyline fill="none" stroke="black" points="2390.3,-398.5 2390.3,-447.5"/>
<text text-anchor="middle" x="2411.05" y="-426.2" font-family="Times,serif" font-size="14.00">$52</text>
<text text-anchor="middle" x="2411.05" y="-409.7" font-family="Times,serif" font-size="14.00">$sub</text>
<polyline fill="none" stroke="black" points="2431.8,-398.5 2431.8,-447.5"/>
<text text-anchor="middle" x="2444.68" y="-418.2" font-family="Times,serif" font-size="14.00">Y</text>
</g>
<!-- c43&#45;&gt;c54 -->
<g id="edge34" class="edge">
<title>c43:e&#45;&gt;c54:w</title>
<path fill="none" stroke="black" stroke-width="3" d="M2328.55,-423.25C2340.81,-423.25 2345.36,-429.58 2353.4,-433.05"/>
<polygon fill="black" stroke="black" stroke-width="3" points="2349.61,-435.87 2360.1,-434.37 2350.97,-429 2349.61,-435.87"/>
</g>
<!-- x11 -->
<g id="node32" class="node">
<title>x11</title>
<path fill="none" stroke="black" d="M2767.3,-268.5C2767.3,-268.5 2819.3,-268.5 2819.3,-268.5 2825.3,-268.5 2831.3,-274.5 2831.3,-280.5 2831.3,-280.5 2831.3,-305.5 2831.3,-305.5 2831.3,-311.5 2825.3,-317.5 2819.3,-317.5 2819.3,-317.5 2767.3,-317.5 2767.3,-317.5 2761.3,-317.5 2755.3,-311.5 2755.3,-305.5 2755.3,-305.5 2755.3,-280.5 2755.3,-280.5 2755.3,-274.5 2761.3,-268.5 2767.3,-268.5"/>
<text text-anchor="middle" x="2793.3" y="-300.2" font-family="Times,serif" font-size="14.00">17:2 &#45; 15:0</text>
<polyline fill="none" stroke="black" points="2755.3,-293 2831.3,-293"/>
<text text-anchor="middle" x="2793.3" y="-275.7" font-family="Times,serif" font-size="14.00">1:0 &#45; 1:0</text>
</g>
<!-- c44&#45;&gt;x11 -->
<g id="edge11" class="edge">
<title>c44:e&#45;&gt;x11:w</title>
<path fill="none" stroke="black" stroke-width="3" d="M2732.03,-293.19C2735.62,-293.15 2738.76,-293.1 2742.33,-293.07"/>
<polygon fill="none" stroke="black" stroke-width="3" points="2734.01,-293.18 2728.03,-297.21 2722.01,-293.24 2727.99,-289.21 2734.01,-293.18"/>
<polygon fill="none" stroke="black" stroke-width="3" points="2740.6,-293.07 2746.58,-289.04 2752.6,-293.01 2746.62,-297.04 2740.6,-293.07"/>
</g>
<!-- x10&#45;&gt;c44 -->
<g id="edge10" class="edge">
<title>x10:e&#45;&gt;c44:w</title>
<path fill="none" stroke="black" stroke-width="3" d="M2456.34,-279.02C2521.7,-279.18 2545.08,-280.57 2610.57,-280.73"/>
<polygon fill="none" stroke="black" stroke-width="3" points="2458.01,-279.02 2452,-283.01 2446.01,-279 2452.01,-275.01 2458.01,-279.02"/>
<polygon fill="none" stroke="black" stroke-width="3" points="2608.6,-280.73 2614.6,-276.74 2620.6,-280.75 2614.59,-284.74 2608.6,-280.73"/>
</g>
<!-- n10 -->
<g id="node67" class="node">
<title>n10</title>
<ellipse fill="black" stroke="black" cx="2869.1" cy="-321" rx="1.8" ry="1.8"/>
</g>
<!-- x11&#45;&gt;n10 -->
<g id="edge30" class="edge">
<title>x11:e&#45;&gt;n10:w</title>
<path fill="none" stroke="black" stroke-width="3" d="M2831.3,-305.25C2844.13,-305.25 2848.11,-313.74 2856.24,-318.26"/>
<polygon fill="black" stroke="black" stroke-width="3" points="2852.35,-320.9 2862.9,-319.91 2854.03,-314.1 2852.35,-320.9"/>
</g>
<!-- n13 -->
<g id="node68" class="node">
<title>n13</title>
<ellipse fill="black" stroke="black" cx="3132.7" cy="-274" rx="1.8" ry="1.8"/>
</g>
<!-- x11&#45;&gt;n13 -->
<g id="edge35" class="edge">
<title>x11:e&#45;&gt;n13:w</title>
<path fill="none" stroke="black" stroke-width="3" d="M2831.3,-280.75C2960.59,-280.75 2995.68,-274.39 3119.45,-274.02"/>
<polygon fill="black" stroke="black" stroke-width="3" points="3116.37,-277.52 3126.36,-274.01 3116.36,-270.52 3116.37,-277.52"/>
</g>
<!-- x13 -->
<g id="node35" class="node">
<title>x13</title>
<path fill="none" stroke="black" d="M4302.5,-393.5C4302.5,-393.5 4341,-393.5 4341,-393.5 4347,-393.5 4353,-399.5 4353,-405.5 4353,-405.5 4353,-430.5 4353,-430.5 4353,-436.5 4347,-442.5 4341,-442.5 4341,-442.5 4302.5,-442.5 4302.5,-442.5 4296.5,-442.5 4290.5,-436.5 4290.5,-430.5 4290.5,-430.5 4290.5,-405.5 4290.5,-405.5 4290.5,-399.5 4296.5,-393.5 4302.5,-393.5"/>
<text text-anchor="middle" x="4321.75" y="-425.2" font-family="Times,serif" font-size="14.00">3:1 &#45; 3:1</text>
<polyline fill="none" stroke="black" points="4290.5,-418 4353,-418"/>
<text text-anchor="middle" x="4321.75" y="-400.7" font-family="Times,serif" font-size="14.00">0:0 &#45; 0:0</text>
</g>
<!-- c45&#45;&gt;x13 -->
<g id="edge13" class="edge">
<title>c45:e&#45;&gt;x13:w</title>
<path fill="none" stroke="black" stroke-width="3" d="M4267.23,-418.19C4270.82,-418.15 4273.96,-418.1 4277.53,-418.07"/>
<polygon fill="none" stroke="black" stroke-width="3" points="4269.21,-418.18 4263.23,-422.21 4257.21,-418.24 4263.19,-414.21 4269.21,-418.18"/>
<polygon fill="none" stroke="black" stroke-width="3" points="4275.8,-418.07 4281.78,-414.04 4287.8,-418.01 4281.82,-422.04 4275.8,-418.07"/>
</g>
<!-- x12&#45;&gt;c45 -->
<g id="edge12" class="edge">
<title>x12:e&#45;&gt;c45:w</title>
<path fill="none" stroke="black" stroke-width="3" d="M2585.52,-463.67C2675.35,-459.01 2695.78,-406 2792.3,-406 2792.3,-406 2792.3,-406 3946.88,-406 4036.43,-406 4062.04,-405.77 4145.47,-405.75"/>
<polygon fill="none" stroke="black" stroke-width="3" points="2587.38,-463.63 2581.48,-467.78 2575.38,-463.93 2581.28,-459.78 2587.38,-463.63"/>
<polygon fill="none" stroke="black" stroke-width="3" points="4143.8,-405.75 4149.8,-401.75 4155.8,-405.75 4149.8,-409.75 4143.8,-405.75"/>
</g>
<!-- x13&#45;&gt;n23 -->
<g id="edge60" class="edge">
<title>x13:e&#45;&gt;n23:w</title>
<path fill="none" stroke="black" stroke-width="3" d="M4353,-430.25C4364.38,-430.25 4369.69,-430.12 4377.56,-430.05"/>
<polygon fill="black" stroke="black" stroke-width="3" points="4374.48,-433.56 4384.46,-430.02 4374.45,-426.56 4374.48,-433.56"/>
</g>
<!-- n14 -->
<g id="node69" class="node">
<title>n14</title>
<ellipse fill="black" stroke="black" cx="4741.62" cy="-405" rx="1.8" ry="1.8"/>
</g>
<!-- x13&#45;&gt;n14 -->
<g id="edge38" class="edge">
<title>x13:e&#45;&gt;n14:w</title>
<path fill="none" stroke="black" d="M4353,-405.75C4369.05,-405.75 4372.97,-403.66 4389,-403 4528.8,-397.21 4564.02,-396.19 4703.82,-402 4715.22,-402.47 4720.49,-403.79 4728.35,-404.51"/>
<polygon fill="black" stroke="black" points="4728.17,-408.01 4738.3,-404.94 4728.46,-401.01 4728.17,-408.01"/>
</g>
<!-- c49 -->
<g id="node42" class="node">
<title>c49</title>
<polygon fill="none" stroke="black" points="271.34,-195.5 271.34,-244.5 364.34,-244.5 364.34,-195.5 271.34,-195.5"/>
<text text-anchor="middle" x="284.22" y="-227.2" font-family="Times,serif" font-size="14.00">A</text>
<polyline fill="none" stroke="black" points="271.34,-220 297.09,-220"/>
<text text-anchor="middle" x="284.22" y="-202.7" font-family="Times,serif" font-size="14.00">B</text>
<polyline fill="none" stroke="black" points="297.09,-195.5 297.09,-244.5"/>
<text text-anchor="middle" x="317.84" y="-223.2" font-family="Times,serif" font-size="14.00">$22</text>
<text text-anchor="middle" x="317.84" y="-206.7" font-family="Times,serif" font-size="14.00">$sub</text>
<polyline fill="none" stroke="black" points="338.59,-195.5 338.59,-244.5"/>
<text text-anchor="middle" x="351.47" y="-215.2" font-family="Times,serif" font-size="14.00">Y</text>
</g>
<!-- c46&#45;&gt;c49 -->
<g id="edge33" class="edge">
<title>c46:e&#45;&gt;c49:w</title>
<path fill="none" stroke="black" stroke-width="3" d="M235.34,-175.25C252.18,-175.25 251.52,-195.09 260.71,-203.76"/>
<polygon fill="black" stroke="black" stroke-width="3" points="256.5,-205.92 267.09,-206.16 258.95,-199.37 256.5,-205.92"/>
</g>
<!-- c47 -->
<g id="node37" class="node">
<title>c47</title>
<polygon fill="none" stroke="black" points="272.47,-305.5 272.47,-354.5 363.22,-354.5 363.22,-305.5 272.47,-305.5"/>
<text text-anchor="middle" x="285.34" y="-337.2" font-family="Times,serif" font-size="14.00">A</text>
<polyline fill="none" stroke="black" points="272.47,-330 298.22,-330"/>
<text text-anchor="middle" x="285.34" y="-312.7" font-family="Times,serif" font-size="14.00">B</text>
<polyline fill="none" stroke="black" points="298.22,-305.5 298.22,-354.5"/>
<text text-anchor="middle" x="317.84" y="-333.2" font-family="Times,serif" font-size="14.00">$44</text>
<text text-anchor="middle" x="317.84" y="-316.7" font-family="Times,serif" font-size="14.00">$shr</text>
<polyline fill="none" stroke="black" points="337.47,-305.5 337.47,-354.5"/>
<text text-anchor="middle" x="350.34" y="-325.2" font-family="Times,serif" font-size="14.00">Y</text>
</g>
<!-- c47&#45;&gt;c48 -->
<g id="edge49" class="edge">
<title>c47:e&#45;&gt;c48:w</title>
<path fill="none" stroke="black" stroke-width="3" d="M364.22,-330.25C450.98,-330.25 475.47,-330.25 556.88,-330.25"/>
<polygon fill="black" stroke="black" stroke-width="3" points="553.66,-333.75 563.66,-330.25 553.66,-326.75 553.66,-333.75"/>
</g>
<!-- x14&#45;&gt;c47 -->
<g id="edge14" class="edge">
<title>x14:e&#45;&gt;c47:w</title>
<path fill="none" stroke="black" stroke-width="3" d="M234.67,-342.03C243.51,-342.08 249.68,-342.17 258.49,-342.22"/>
<polygon fill="none" stroke="black" stroke-width="3" points="236.54,-342.04 230.53,-346.02 224.55,-342.01 230.56,-338.02 236.54,-342.04"/>
<polygon fill="none" stroke="black" stroke-width="3" points="256.76,-342.21 262.77,-338.23 268.76,-342.24 262.75,-346.23 256.76,-342.21"/>
</g>
<!-- x15&#45;&gt;c47 -->
<g id="edge15" class="edge">
<title>x15:e&#45;&gt;c47:w</title>
<path fill="none" stroke="black" stroke-width="3" d="M234.24,-290.06C244.65,-295.96 248.67,-308.82 259.09,-314.7"/>
<polygon fill="none" stroke="black" stroke-width="3" points="236.12,-290.53 229.33,-292.97 224.47,-287.65 231.25,-285.2 236.12,-290.53"/>
<polygon fill="none" stroke="black" stroke-width="3" points="257.19,-314.23 263.97,-311.78 268.84,-317.1 262.06,-319.55 257.19,-314.23"/>
</g>
<!-- c48&#45;&gt;n27 -->
<g id="edge77" class="edge">
<title>c48:e&#45;&gt;n27:w</title>
<path fill="none" stroke="black" stroke-width="3" d="M660.95,-318.25C765.53,-318.25 790.84,-338 895.43,-338 895.43,-338 895.43,-338 1499.3,-338 1576.83,-338 1596.66,-366.05 1668.55,-368.79"/>
<polygon fill="black" stroke="black" stroke-width="3" points="1665.45,-372.23 1675.51,-368.92 1665.58,-365.23 1665.45,-372.23"/>
</g>
<!-- v16 -->
<g id="node41" class="node">
<title>v16</title>
<ellipse fill="none" stroke="black" cx="189.59" cy="-232" rx="30.88" ry="18"/>
<text text-anchor="middle" x="189.59" y="-226.95" font-family="Times,serif" font-size="14.00">3&#39;000</text>
</g>
<!-- v16&#45;&gt;c49 -->
<g id="edge98" class="edge">
<title>v16:e&#45;&gt;c49:w</title>
<path fill="none" stroke="black" stroke-width="3" d="M221.76,-232C239.49,-232 246.52,-232.16 260.07,-232.23"/>
<polygon fill="black" stroke="black" stroke-width="3" points="256.79,-235.72 266.8,-232.24 256.81,-228.72 256.79,-235.72"/>
</g>
<!-- c49&#45;&gt;n24 -->
<g id="edge63" class="edge">
<title>c49:e&#45;&gt;n24:w</title>
<path fill="none" stroke="black" stroke-width="3" d="M364.34,-220.25C375.75,-220.25 381.02,-221.64 388.88,-222.44"/>
<polygon fill="black" stroke="black" stroke-width="3" points="385.65,-225.79 395.81,-222.78 385.99,-218.8 385.65,-225.79"/>
</g>
<!-- c50 -->
<g id="node43" class="node">
<title>c50</title>
<polygon fill="none" stroke="black" points="1175.55,-76.5 1175.55,-125.5 1268.55,-125.5 1268.55,-76.5 1175.55,-76.5"/>
<text text-anchor="middle" x="1188.43" y="-108.2" font-family="Times,serif" font-size="14.00">A</text>
<polyline fill="none" stroke="black" points="1175.55,-101 1201.3,-101"/>
<text text-anchor="middle" x="1188.43" y="-83.7" font-family="Times,serif" font-size="14.00">B</text>
<polyline fill="none" stroke="black" points="1201.3,-76.5 1201.3,-125.5"/>
<text text-anchor="middle" x="1222.05" y="-104.2" font-family="Times,serif" font-size="14.00">$28</text>
<text text-anchor="middle" x="1222.05" y="-87.7" font-family="Times,serif" font-size="14.00">$sub</text>
<polyline fill="none" stroke="black" points="1242.8,-76.5 1242.8,-125.5"/>
<text text-anchor="middle" x="1255.68" y="-96.2" font-family="Times,serif" font-size="14.00">Y</text>
</g>
<!-- c50&#45;&gt;n25 -->
<g id="edge69" class="edge">
<title>c50:e&#45;&gt;n25:w</title>
<path fill="none" stroke="black" d="M1268.55,-101.25C1280.68,-101.25 1285.37,-106.92 1293.44,-110.03"/>
<polygon fill="black" stroke="black" points="1292.6,-113.43 1303.06,-111.74 1293.83,-106.54 1292.6,-113.43"/>
</g>
<!-- x17 -->
<g id="node44" class="node">
<title>x17</title>
<path fill="none" stroke="black" d="M1089.05,-95C1089.05,-95 1127.55,-95 1127.55,-95 1133.55,-95 1139.55,-101 1139.55,-107 1139.55,-107 1139.55,-119 1139.55,-119 1139.55,-125 1133.55,-131 1127.55,-131 1127.55,-131 1089.05,-131 1089.05,-131 1083.05,-131 1077.05,-125 1077.05,-119 1077.05,-119 1077.05,-107 1077.05,-107 1077.05,-101 1083.05,-95 1089.05,-95"/>
<text text-anchor="middle" x="1108.3" y="-108.2" font-family="Times,serif" font-size="14.00">0:0 &#45; 0:0</text>
</g>
<!-- x17&#45;&gt;c50 -->
<g id="edge16" class="edge">
<title>x17:e&#45;&gt;c50:w</title>
<path fill="none" stroke="black" d="M1152.27,-113.06C1155.87,-113.1 1159,-113.15 1162.58,-113.18"/>
<polygon fill="none" stroke="black" points="1152.45,-113.06 1146.43,-117.03 1140.45,-113 1146.47,-109.03 1152.45,-113.06"/>
<polygon fill="none" stroke="black" points="1162.65,-113.18 1168.67,-109.22 1174.65,-113.25 1168.63,-117.21 1162.65,-113.18"/>
</g>
<!-- x18&#45;&gt;c50 -->
<g id="edge17" class="edge">
<title>x18:e&#45;&gt;c50:w</title>
<path fill="none" stroke="black" d="M500.86,-43.02C613.52,-43.35 646.42,-48 765.3,-48 765.3,-48 765.3,-48 1010.8,-48 1044.68,-48 1120.23,-80.89 1162.57,-87.57"/>
<polygon fill="none" stroke="black" points="500.74,-43.02 494.74,-47.01 488.74,-43 494.75,-39.01 500.74,-43.02"/>
<polygon fill="none" stroke="black" points="1162.7,-87.59 1169.04,-84.14 1174.65,-88.67 1168.32,-92.11 1162.7,-87.59"/>
</g>
<!-- c52 -->
<g id="node48" class="node">
<title>c52</title>
<polygon fill="none" stroke="black" points="1827.3,-527.5 1827.3,-576.5 1920.3,-576.5 1920.3,-527.5 1827.3,-527.5"/>
<text text-anchor="middle" x="1840.18" y="-559.2" font-family="Times,serif" font-size="14.00">A</text>
<polyline fill="none" stroke="black" points="1827.3,-552 1853.05,-552"/>
<text text-anchor="middle" x="1840.18" y="-534.7" font-family="Times,serif" font-size="14.00">B</text>
<polyline fill="none" stroke="black" points="1853.05,-527.5 1853.05,-576.5"/>
<text text-anchor="middle" x="1873.8" y="-555.2" font-family="Times,serif" font-size="14.00">$34</text>
<text text-anchor="middle" x="1873.8" y="-538.7" font-family="Times,serif" font-size="14.00">$sub</text>
<polyline fill="none" stroke="black" points="1894.55,-527.5 1894.55,-576.5"/>
<text text-anchor="middle" x="1907.43" y="-547.2" font-family="Times,serif" font-size="14.00">Y</text>
</g>
<!-- c51&#45;&gt;c52 -->
<g id="edge51" class="edge">
<title>c51:e&#45;&gt;c52:w</title>
<path fill="none" stroke="black" stroke-width="3" d="M1782.8,-498.25C1813.32,-498.25 1797.34,-547.88 1815.51,-561.07"/>
<polygon fill="black" stroke="black" stroke-width="3" points="1811.61,-563.58 1822.19,-562.99 1813.55,-556.86 1811.61,-563.58"/>
</g>
<!-- x19&#45;&gt;c51 -->
<g id="edge18" class="edge">
<title>x19:e&#45;&gt;c51:w</title>
<path fill="none" stroke="black" stroke-width="3" d="M1657.01,-510.04C1663.48,-510.09 1668.44,-510.16 1674.92,-510.21"/>
<polygon fill="none" stroke="black" stroke-width="3" points="1658.76,-510.05 1652.74,-514.03 1646.76,-510.01 1652.77,-506.03 1658.76,-510.05"/>
<polygon fill="none" stroke="black" stroke-width="3" points="1673.1,-510.2 1679.11,-506.22 1685.1,-510.24 1679.08,-514.22 1673.1,-510.2"/>
</g>
<!-- c52&#45;&gt;n26 -->
<g id="edge74" class="edge">
<title>c52:e&#45;&gt;n26:w</title>
<path fill="none" stroke="black" stroke-width="3" d="M1921.05,-552.25C1950.52,-552.25 1930.6,-501.85 1946.18,-487.67"/>
<polygon fill="black" stroke="black" stroke-width="3" points="1944.39,-491.97 1952.75,-485.45 1942.16,-485.33 1944.39,-491.97"/>
</g>
<!-- x20 -->
<g id="node49" class="node">
<title>x20</title>
<path fill="none" stroke="black" d="M1716.05,-405.5C1716.05,-405.5 1754.55,-405.5 1754.55,-405.5 1760.55,-405.5 1766.55,-411.5 1766.55,-417.5 1766.55,-417.5 1766.55,-442.5 1766.55,-442.5 1766.55,-448.5 1760.55,-454.5 1754.55,-454.5 1754.55,-454.5 1716.05,-454.5 1716.05,-454.5 1710.05,-454.5 1704.05,-448.5 1704.05,-442.5 1704.05,-442.5 1704.05,-417.5 1704.05,-417.5 1704.05,-411.5 1710.05,-405.5 1716.05,-405.5"/>
<text text-anchor="middle" x="1735.3" y="-437.2" font-family="Times,serif" font-size="14.00">1 &#45;&gt; 9:3</text>
<polyline fill="none" stroke="black" points="1704.05,-430 1766.55,-430"/>
<text text-anchor="middle" x="1735.3" y="-412.7" font-family="Times,serif" font-size="14.00">2:0 &#45; 2:0</text>
</g>
<!-- x20&#45;&gt;c52 -->
<g id="edge19" class="edge">
<title>x20:e&#45;&gt;c52:w</title>
<path fill="none" stroke="black" stroke-width="3" d="M1780.04,-432.5C1811,-447.18 1783.19,-522.05 1813.77,-537.11"/>
<polygon fill="none" stroke="black" stroke-width="3" points="1781.97,-432.88 1775.3,-435.63 1770.2,-430.53 1776.87,-427.79 1781.97,-432.88"/>
<polygon fill="none" stroke="black" stroke-width="3" points="1812.15,-536.78 1818.84,-534.07 1823.9,-539.2 1817.22,-541.91 1812.15,-536.78"/>
</g>
<!-- c53&#45;&gt;c43 -->
<g id="edge41" class="edge">
<title>c53:e&#45;&gt;c43:w</title>
<path fill="none" stroke="black" stroke-width="3" d="M2196.55,-435.25C2207.93,-435.25 2213.24,-435.25 2221.11,-435.25"/>
<polygon fill="black" stroke="black" stroke-width="3" points="2218.01,-438.75 2228.01,-435.25 2218.01,-431.75 2218.01,-438.75"/>
</g>
<!-- x21&#45;&gt;c53 -->
<g id="edge20" class="edge">
<title>x21:e&#45;&gt;c53:w</title>
<path fill="none" stroke="black" stroke-width="3" d="M2057.49,-422.98C2070.2,-422.93 2078.06,-422.82 2090.83,-422.77"/>
<polygon fill="none" stroke="black" stroke-width="3" points="2059.26,-422.97 2053.26,-426.98 2047.26,-423 2053.25,-418.98 2059.26,-422.97"/>
<polygon fill="none" stroke="black" stroke-width="3" points="2088.85,-422.78 2094.84,-418.77 2100.85,-422.75 2094.86,-426.77 2088.85,-422.78"/>
</g>
<!-- c54&#45;&gt;c32 -->
<g id="edge52" class="edge">
<title>c54:e&#45;&gt;c32:w</title>
<path fill="none" stroke="black" stroke-width="3" d="M2457.55,-423.25C2473.44,-423.25 2474,-405.9 2482.94,-398.04"/>
<polygon fill="black" stroke="black" stroke-width="3" points="2481.04,-402.44 2489.28,-395.78 2478.68,-395.85 2481.04,-402.44"/>
</g>
<!-- x22 -->
<g id="node53" class="node">
<title>x22</title>
<path fill="none" stroke="black" d="M1852.3,-216.5C1852.3,-216.5 1895.3,-216.5 1895.3,-216.5 1901.3,-216.5 1907.3,-222.5 1907.3,-228.5 1907.3,-228.5 1907.3,-253.5 1907.3,-253.5 1907.3,-259.5 1901.3,-265.5 1895.3,-265.5 1895.3,-265.5 1852.3,-265.5 1852.3,-265.5 1846.3,-265.5 1840.3,-259.5 1840.3,-253.5 1840.3,-253.5 1840.3,-228.5 1840.3,-228.5 1840.3,-222.5 1846.3,-216.5 1852.3,-216.5"/>
<text text-anchor="middle" x="1873.8" y="-248.2" font-family="Times,serif" font-size="14.00">1 &#45;&gt; 23:3</text>
<polyline fill="none" stroke="black" points="1840.3,-241 1907.3,-241"/>
<text text-anchor="middle" x="1873.8" y="-223.7" font-family="Times,serif" font-size="14.00">2:0 &#45; 2:0</text>
</g>
<!-- x22&#45;&gt;c54 -->
<g id="edge21" class="edge">
<title>x22:e&#45;&gt;c54:w</title>
<path fill="none" stroke="black" stroke-width="3" d="M1921.25,-240.96C2040.39,-240.31 2081.45,-231.62 2196.55,-280 2205.99,-283.97 2316.01,-378.95 2353.16,-404.48"/>
<polygon fill="none" stroke="black" stroke-width="3" points="1923.01,-240.96 1917.02,-244.98 1911.01,-240.99 1917,-236.98 1923.01,-240.96"/>
<polygon fill="none" stroke="black" stroke-width="3" points="2351.67,-403.66 2358.85,-403.05 2362.18,-409.45 2355,-410.06 2351.67,-403.66"/>
</g>
<!-- x24 -->
<g id="node56" class="node">
<title>x24</title>
<path fill="none" stroke="black" d="M3652.5,-237.5C3652.5,-237.5 3704.5,-237.5 3704.5,-237.5 3710.5,-237.5 3716.5,-243.5 3716.5,-249.5 3716.5,-249.5 3716.5,-274.5 3716.5,-274.5 3716.5,-280.5 3710.5,-286.5 3704.5,-286.5 3704.5,-286.5 3652.5,-286.5 3652.5,-286.5 3646.5,-286.5 3640.5,-280.5 3640.5,-274.5 3640.5,-274.5 3640.5,-249.5 3640.5,-249.5 3640.5,-243.5 3646.5,-237.5 3652.5,-237.5"/>
<text text-anchor="middle" x="3678.5" y="-269.2" font-family="Times,serif" font-size="14.00">17:2 &#45; 17:2</text>
<polyline fill="none" stroke="black" points="3640.5,-262 3716.5,-262"/>
<text text-anchor="middle" x="3678.5" y="-244.7" font-family="Times,serif" font-size="14.00">1:0 &#45; 1:0</text>
</g>
<!-- c55&#45;&gt;x24 -->
<g id="edge23" class="edge">
<title>c55:e&#45;&gt;x24:w</title>
<path fill="none" stroke="black" stroke-width="3" d="M3617.23,-262.19C3620.82,-262.15 3623.96,-262.1 3627.53,-262.07"/>
<polygon fill="none" stroke="black" stroke-width="3" points="3619.21,-262.18 3613.23,-266.21 3607.21,-262.24 3613.19,-258.21 3619.21,-262.18"/>
<polygon fill="none" stroke="black" stroke-width="3" points="3625.8,-262.07 3631.78,-258.04 3637.8,-262.01 3631.82,-266.04 3625.8,-262.07"/>
</g>
<!-- x23&#45;&gt;c55 -->
<g id="edge22" class="edge">
<title>x23:e&#45;&gt;c55:w</title>
<path fill="none" stroke="black" stroke-width="3" d="M3488.23,-274.06C3491.82,-274.1 3494.96,-274.15 3498.53,-274.18"/>
<polygon fill="none" stroke="black" stroke-width="3" points="3490.21,-274.07 3484.19,-278.04 3478.21,-274.01 3484.23,-270.04 3490.21,-274.07"/>
<polygon fill="none" stroke="black" stroke-width="3" points="3496.8,-274.18 3502.82,-270.21 3508.8,-274.24 3502.78,-278.21 3496.8,-274.18"/>
</g>
<!-- x24&#45;&gt;n28 -->
<g id="edge82" class="edge">
<title>x24:e&#45;&gt;n28:w</title>
<path fill="none" stroke="black" stroke-width="3" d="M3716.5,-274.25C3746.76,-274.25 3725.38,-326.7 3741.92,-340.64"/>
<polygon fill="black" stroke="black" stroke-width="3" points="3737.59,-342.93 3748.18,-342.63 3739.71,-336.26 3737.59,-342.93"/>
</g>
<!-- n16 -->
<g id="node70" class="node">
<title>n16</title>
<ellipse fill="black" stroke="black" cx="4206.5" cy="-273" rx="1.8" ry="1.8"/>
</g>
<!-- x24&#45;&gt;n16 -->
<g id="edge42" class="edge">
<title>x24:e&#45;&gt;n16:w</title>
<path fill="none" stroke="black" stroke-width="3" d="M3716.5,-249.75C3767.74,-249.75 4109.37,-270.57 4191.8,-272.81"/>
<polygon fill="black" stroke="black" stroke-width="3" points="4188.63,-276.25 4198.69,-272.92 4188.75,-269.25 4188.63,-276.25"/>
</g>
<!-- x26 -->
<g id="node59" class="node">
<title>x26</title>
<path fill="none" stroke="black" d="M990.55,-95C990.55,-95 1029.05,-95 1029.05,-95 1035.05,-95 1041.05,-101 1041.05,-107 1041.05,-107 1041.05,-119 1041.05,-119 1041.05,-125 1035.05,-131 1029.05,-131 1029.05,-131 990.55,-131 990.55,-131 984.55,-131 978.55,-125 978.55,-119 978.55,-119 978.55,-107 978.55,-107 978.55,-101 984.55,-95 990.55,-95"/>
<text text-anchor="middle" x="1009.8" y="-108.2" font-family="Times,serif" font-size="14.00">0:0 &#45; 0:0</text>
</g>
<!-- c56&#45;&gt;x26 -->
<g id="edge25" class="edge">
<title>c56:e&#45;&gt;x26:w</title>
<path fill="none" stroke="black" d="M955.27,-113.19C958.87,-113.15 962,-113.1 965.58,-113.07"/>
<polygon fill="none" stroke="black" points="955.45,-113.19 949.47,-117.22 943.45,-113.25 949.43,-109.22 955.45,-113.19"/>
<polygon fill="none" stroke="black" points="965.65,-113.07 971.63,-109.04 977.65,-113 971.67,-117.03 965.65,-113.07"/>
</g>
<!-- x25&#45;&gt;c56 -->
<g id="edge24" class="edge">
<title>x25:e&#45;&gt;c56:w</title>
<path fill="none" stroke="black" d="M362.93,-104C570.41,-103.88 629.95,-100.87 837.4,-100.75"/>
<polygon fill="none" stroke="black" points="362.99,-104 356.99,-108 350.99,-104 356.99,-100 362.99,-104"/>
<polygon fill="none" stroke="black" points="837.4,-100.75 843.4,-96.75 849.4,-100.75 843.4,-104.75 837.4,-100.75"/>
</g>
<!-- x26&#45;&gt;x17 -->
<g id="edge45" class="edge">
<title>x26:e&#45;&gt;x17:w</title>
<path fill="none" stroke="black" d="M1041.05,-113.25C1052.43,-113.25 1057.74,-113.25 1065.6,-113.25"/>
<polygon fill="black" stroke="black" points="1065.54,-116.75 1075.54,-113.25 1065.54,-109.75 1065.54,-116.75"/>
</g>
<!-- x27 -->
<g id="node60" class="node">
<title>x27</title>
<path fill="none" stroke="black" d="M2918.9,-303C2918.9,-303 2970.9,-303 2970.9,-303 2976.9,-303 2982.9,-309 2982.9,-315 2982.9,-315 2982.9,-327 2982.9,-327 2982.9,-333 2976.9,-339 2970.9,-339 2970.9,-339 2918.9,-339 2918.9,-339 2912.9,-339 2906.9,-333 2906.9,-327 2906.9,-327 2906.9,-315 2906.9,-315 2906.9,-309 2912.9,-303 2918.9,-303"/>
<text text-anchor="middle" x="2944.9" y="-316.2" font-family="Times,serif" font-size="14.00">12:0 &#45; 12:0</text>
</g>
<!-- x28 -->
<g id="node61" class="node">
<title>x28</title>
<path fill="none" stroke="black" d="M3030.9,-303C3030.9,-303 3082.9,-303 3082.9,-303 3088.9,-303 3094.9,-309 3094.9,-315 3094.9,-315 3094.9,-327 3094.9,-327 3094.9,-333 3088.9,-339 3082.9,-339 3082.9,-339 3030.9,-339 3030.9,-339 3024.9,-339 3018.9,-333 3018.9,-327 3018.9,-327 3018.9,-315 3018.9,-315 3018.9,-309 3024.9,-303 3030.9,-303"/>
<text text-anchor="middle" x="3056.9" y="-316.2" font-family="Times,serif" font-size="14.00">12:0 &#45; 14:2</text>
</g>
<!-- x27&#45;&gt;x28 -->
<g id="edge26" class="edge">
<title>x27:e&#45;&gt;x28:w</title>
<path fill="none" stroke="black" stroke-width="3" d="M2995.63,-321C2999.22,-321 3002.36,-321 3005.93,-321"/>
<polygon fill="none" stroke="black" stroke-width="3" points="2997.61,-321 2991.61,-325 2985.61,-321 2991.61,-317 2997.61,-321"/>
<polygon fill="none" stroke="black" stroke-width="3" points="3004.2,-321 3010.2,-317 3016.2,-321 3010.2,-325 3004.2,-321"/>
</g>
<!-- x28&#45;&gt;n13 -->
<g id="edge36" class="edge">
<title>x28:e&#45;&gt;n13:w</title>
<path fill="none" stroke="black" stroke-width="3" d="M3094.9,-321.25C3116.56,-321.25 3109.15,-289.45 3120.36,-278.03"/>
<polygon fill="black" stroke="black" stroke-width="3" points="3118.57,-282.46 3126.66,-275.62 3116.07,-275.92 3118.57,-282.46"/>
</g>
<!-- x30 -->
<g id="node63" class="node">
<title>x30</title>
<path fill="none" stroke="black" d="M4653.32,-411C4653.32,-411 4691.82,-411 4691.82,-411 4697.82,-411 4703.82,-417 4703.82,-423 4703.82,-423 4703.82,-435 4703.82,-435 4703.82,-441 4697.82,-447 4691.82,-447 4691.82,-447 4653.32,-447 4653.32,-447 4647.32,-447 4641.32,-441 4641.32,-435 4641.32,-435 4641.32,-423 4641.32,-423 4641.32,-417 4647.32,-411 4653.32,-411"/>
<text text-anchor="middle" x="4672.57" y="-424.2" font-family="Times,serif" font-size="14.00">2:0 &#45; 3:1</text>
</g>
<!-- x29&#45;&gt;x30 -->
<g id="edge27" class="edge">
<title>x29:e&#45;&gt;x30:w</title>
<path fill="none" stroke="black" stroke-width="3" d="M4618.04,-429C4621.64,-429 4624.77,-429 4628.34,-429"/>
<polygon fill="none" stroke="black" stroke-width="3" points="4620.02,-429 4614.02,-433 4608.02,-429 4614.02,-425 4620.02,-429"/>
<polygon fill="none" stroke="black" stroke-width="3" points="4626.61,-429 4632.61,-425 4638.61,-429 4632.61,-433 4626.61,-429"/>
</g>
<!-- x30&#45;&gt;n14 -->
<g id="edge39" class="edge">
<title>x30:e&#45;&gt;n14:w</title>
<path fill="none" stroke="black" stroke-width="3" d="M4703.82,-429.25C4718.44,-429.25 4720.49,-415.32 4729.03,-408.58"/>
<polygon fill="black" stroke="black" stroke-width="3" points="4727.12,-412.9 4735.51,-406.43 4724.91,-406.26 4727.12,-412.9"/>
</g>
<!-- x32 -->
<g id="node65" class="node">
<title>x32</title>
<path fill="none" stroke="black" d="M4049.63,-279C4049.63,-279 4101.63,-279 4101.63,-279 4107.63,-279 4113.63,-285 4113.63,-291 4113.63,-291 4113.63,-303 4113.63,-303 4113.63,-309 4107.63,-315 4101.63,-315 4101.63,-315 4049.63,-315 4049.63,-315 4043.63,-315 4037.63,-309 4037.63,-303 4037.63,-303 4037.63,-291 4037.63,-291 4037.63,-285 4043.63,-279 4049.63,-279"/>
<text text-anchor="middle" x="4075.63" y="-292.2" font-family="Times,serif" font-size="14.00">15:0 &#45; 17:2</text>
</g>
<!-- x31&#45;&gt;x32 -->
<g id="edge28" class="edge">
<title>x31:e&#45;&gt;x32:w</title>
<path fill="none" stroke="black" stroke-width="3" d="M3997.86,-297C4007.46,-297 4014.01,-297 4023.6,-297"/>
<polygon fill="none" stroke="black" stroke-width="3" points="3999.58,-297 3993.58,-301 3987.58,-297 3993.58,-293 3999.58,-297"/>
<polygon fill="none" stroke="black" stroke-width="3" points="4021.93,-297 4027.93,-293 4033.93,-297 4027.93,-301 4021.93,-297"/>
</g>
<!-- x32&#45;&gt;n16 -->
<g id="edge43" class="edge">
<title>x32:e&#45;&gt;n16:w</title>
<path fill="none" stroke="black" stroke-width="3" d="M4114.63,-297.25C4151.31,-297.25 4160.64,-277.68 4191.77,-273.7"/>
<polygon fill="black" stroke="black" stroke-width="3" points="4188.93,-277.38 4198.69,-273.28 4188.5,-270.39 4188.93,-277.38"/>
</g>
<!-- x33 -->
<g id="node66" class="node">
<title>x33</title>
<path fill="none" stroke="black" d="M1089.05,-457C1089.05,-457 1127.55,-457 1127.55,-457 1133.55,-457 1139.55,-463 1139.55,-469 1139.55,-469 1139.55,-481 1139.55,-481 1139.55,-487 1133.55,-493 1127.55,-493 1127.55,-493 1089.05,-493 1089.05,-493 1083.05,-493 1077.05,-487 1077.05,-481 1077.05,-481 1077.05,-469 1077.05,-469 1077.05,-463 1083.05,-457 1089.05,-457"/>
<text text-anchor="middle" x="1108.3" y="-470.2" font-family="Times,serif" font-size="14.00">8:0 &#45; 9:1</text>
</g>
<!-- x33&#45;&gt;n18 -->
<g id="edge46" class="edge">
<title>x33:e&#45;&gt;n18:w</title>
<path fill="none" stroke="black" stroke-width="3" d="M1139.55,-475.25C1170.89,-475.25 1180.97,-467.26 1207.33,-465.39"/>
<polygon fill="black" stroke="black" stroke-width="3" points="1204.36,-468.99 1214.23,-465.15 1204.12,-462 1204.36,-468.99"/>
</g>
<!-- n10&#45;&gt;x23 -->
<g id="edge31" class="edge">
<title>n10:e&#45;&gt;x23:w</title>
<path fill="none" stroke="black" stroke-width="3" d="M2870.9,-321C2891.17,-321 2888.19,-341.22 2906.9,-349 2968.55,-374.62 2989.15,-368 3055.9,-368 3055.9,-368 3055.9,-368 3202.75,-368 3223.98,-368 3346.25,-302.3 3388.39,-288.7"/>
<polygon fill="black" stroke="black" stroke-width="3" points="3386.06,-292.79 3395.07,-287.23 3384.55,-285.96 3386.06,-292.79"/>
</g>
<!-- n10&#45;&gt;x27 -->
<g id="edge32" class="edge">
<title>n10:e&#45;&gt;x27:w</title>
<path fill="none" stroke="black" stroke-width="3" d="M2870.9,-321C2882.28,-321 2887.59,-321.13 2895.46,-321.2"/>
<polygon fill="black" stroke="black" stroke-width="3" points="2892.35,-324.69 2902.36,-321.23 2892.38,-317.69 2892.35,-324.69"/>
</g>
<!-- n13&#45;&gt;x1 -->
<g id="edge37" class="edge">
<title>n13:e&#45;&gt;x1:w</title>
<path fill="none" stroke="black" stroke-width="3" d="M3134.5,-274C3145.88,-274 3151.19,-274.13 3159.06,-274.2"/>
<polygon fill="black" stroke="black" stroke-width="3" points="3155.95,-277.69 3165.96,-274.23 3155.98,-270.69 3155.95,-277.69"/>
</g>
<!-- n14&#45;&gt;x5 -->
<g id="edge40" class="edge">
<title>n14:e&#45;&gt;x5:w</title>
<path fill="none" stroke="black" d="M4743.42,-405C4754.79,-405 4760.1,-405.13 4767.97,-405.2"/>
<polygon fill="black" stroke="black" points="4767.89,-408.7 4777.9,-405.24 4767.92,-401.7 4767.89,-408.7"/>
</g>
<!-- n16&#45;&gt;x3 -->
<g id="edge44" class="edge">
<title>n16:e&#45;&gt;x3:w</title>
<path fill="none" stroke="black" stroke-width="3" d="M4209.78,-273C4241.6,-273 4252.25,-273.2 4279.27,-273.24"/>
<polygon fill="black" stroke="black" stroke-width="3" points="4275.96,-276.74 4285.96,-273.25 4275.97,-269.74 4275.96,-276.74"/>
</g>
<!-- n18&#45;&gt;x0 -->
<g id="edge48" class="edge">
<title>n18:e&#45;&gt;x0:w</title>
<path fill="none" stroke="black" d="M1225.33,-465C1266.68,-465 1279.8,-465.21 1316.08,-465.24"/>
<polygon fill="black" stroke="black" points="1316.04,-468.74 1326.04,-465.25 1316.04,-461.74 1316.04,-468.74"/>
</g>
<!-- n6&#45;&gt;x19 -->
<g id="edge91" class="edge">
<title>n6:e&#45;&gt;x19:w</title>
<path fill="none" stroke="black" stroke-width="3" d="M1013.08,-475C1044.11,-475 1047.15,-494.67 1077.05,-503 1139.23,-520.34 1156.5,-522 1221.05,-522 1221.05,-522 1221.05,-522 1360.8,-522 1454.98,-522 1481.36,-522.23 1570.11,-522.25"/>
<polygon fill="black" stroke="black" stroke-width="3" points="1567.01,-525.75 1577.01,-522.25 1567.01,-518.75 1567.01,-525.75"/>
</g>
<!-- n6&#45;&gt;x33 -->
<g id="edge92" class="edge">
<title>n6:e&#45;&gt;x33:w</title>
<path fill="none" stroke="black" stroke-width="3" d="M1013.08,-475C1037.29,-475 1046.04,-475 1065.66,-475"/>
<polygon fill="black" stroke="black" stroke-width="3" points="1062.51,-478.5 1072.51,-475 1062.51,-471.5 1062.51,-478.5"/>
</g>
<!-- n7&#45;&gt;x20 -->
<g id="edge94" class="edge">
<title>n7:e&#45;&gt;x20:w</title>
<path fill="none" stroke="black" stroke-width="3" d="M1616.08,-275C1686.16,-275 1635.3,-402.04 1691.69,-416.43"/>
<polygon fill="black" stroke="black" stroke-width="3" points="1688.2,-419.55 1698.54,-417.23 1689.01,-412.59 1688.2,-419.55"/>
</g>
<!-- n7&#45;&gt;x22 -->
<g id="edge95" class="edge">
<title>n7:e&#45;&gt;x22:w</title>
<path fill="none" stroke="black" stroke-width="3" d="M1616.08,-275C1695.17,-275 1713.24,-256.67 1790.55,-240 1808.04,-236.23 1814.55,-231.24 1828.02,-229.44"/>
<polygon fill="black" stroke="black" stroke-width="3" points="1825,-233.13 1834.77,-229.03 1824.58,-226.14 1825,-233.13"/>
</g>
</g>
</svg>
