<?xml version="1.0" encoding="UTF-8" standalone="no"?>
<!DOCTYPE svg PUBLIC "-//W3C//DTD SVG 1.1//EN"
 "http://www.w3.org/Graphics/SVG/1.1/DTD/svg11.dtd">
<!-- Generated by graphviz version 12.2.1 (20241206.2353)
 -->
<!-- Title: top Pages: 1 -->
<svg width="337pt" height="123pt"
 viewBox="0.00 0.00 336.87 122.50" xmlns="http://www.w3.org/2000/svg" xmlns:xlink="http://www.w3.org/1999/xlink">
<g id="graph0" class="graph" transform="scale(1 1) rotate(0) translate(4 118.5)">
<title>top</title>
<polygon fill="white" stroke="none" points="-4,4 -4,-118.5 332.87,-118.5 332.87,4 -4,4"/>
<text text-anchor="middle" x="164.44" y="-7.2" font-family="Times,serif" font-size="14.00">top</text>
<!-- n1 -->
<g id="node1" class="node">
<title>n1</title>
<polygon fill="none" stroke="black" points="121.65,-35.04 121.65,-49.96 90.06,-60.5 45.39,-60.5 13.81,-49.96 13.81,-35.04 45.39,-24.5 90.06,-24.5 121.65,-35.04"/>
<text text-anchor="middle" x="67.73" y="-37.45" font-family="Times,serif" font-size="14.00">input_data</text>
</g>
<!-- n2 -->
<g id="node2" class="node">
<title>n2</title>
<polygon fill="none" stroke="black" points="328.87,-89.04 328.87,-103.96 294.36,-114.5 245.57,-114.5 211.06,-103.96 211.06,-89.04 245.57,-78.5 294.36,-78.5 328.87,-89.04"/>
<text text-anchor="middle" x="269.96" y="-91.45" font-family="Times,serif" font-size="14.00">output_data</text>
</g>
<!-- v0 -->
<g id="node3" class="node">
<title>v0</title>
<ellipse fill="none" stroke="black" cx="67.73" cy="-96.5" rx="67.73" ry="18"/>
<text text-anchor="middle" x="67.73" y="-91.45" font-family="Times,serif" font-size="14.00">10&#39;0000000001</text>
</g>
<!-- x1 -->
<g id="node4" class="node">
<title>x1</title>
<ellipse fill="black" stroke="black" cx="173.26" cy="-96.5" rx="1.8" ry="1.8"/>
</g>
<!-- v0&#45;&gt;x1 -->
<g id="edge2" class="edge">
<title>v0:e&#45;&gt;x1:w</title>
<path fill="none" stroke="black" stroke-width="3" d="M135.46,-96.5C146.83,-96.5 152.14,-96.5 160.01,-96.5"/>
<polygon fill="black" stroke="black" stroke-width="3" points="156.92,-100 166.92,-96.5 156.92,-93 156.92,-100"/>
</g>
<!-- x1&#45;&gt;n2 -->
<g id="edge1" class="edge">
<title>x1:e&#45;&gt;n2:w</title>
<path fill="none" stroke="black" stroke-width="3" d="M175.06,-96.5C186.43,-96.5 191.74,-96.5 199.61,-96.5"/>
<polygon fill="black" stroke="black" stroke-width="3" points="196.52,-100 206.52,-96.5 196.52,-93 196.52,-100"/>
</g>
</g>
</svg>
