<?xml version="1.0" encoding="UTF-8" standalone="no"?>
<!DOCTYPE svg PUBLIC "-//W3C//DTD SVG 1.1//EN"
 "http://www.w3.org/Graphics/SVG/1.1/DTD/svg11.dtd">
<!-- Generated by graphviz version 12.2.1 (20241206.2353)
 -->
<!-- Title: top Pages: 1 -->
<svg width="1290pt" height="255pt"
 viewBox="0.00 0.00 1290.33 254.50" xmlns="http://www.w3.org/2000/svg" xmlns:xlink="http://www.w3.org/1999/xlink">
<g id="graph0" class="graph" transform="scale(1 1) rotate(0) translate(4 250.5)">
<title>top</title>
<polygon fill="white" stroke="none" points="-4,4 -4,-250.5 1286.33,-250.5 1286.33,4 -4,4"/>
<text text-anchor="middle" x="641.17" y="-7.2" font-family="Times,serif" font-size="14.00">top</text>
<!-- n3 -->
<g id="node1" class="node">
<title>n3</title>
<polygon fill="none" stroke="black" points="107.84,-107.04 107.84,-121.96 76.26,-132.5 31.59,-132.5 0,-121.96 0,-107.04 31.59,-96.5 76.26,-96.5 107.84,-107.04"/>
<text text-anchor="middle" x="53.92" y="-109.45" font-family="Times,serif" font-size="14.00">input_data</text>
</g>
<!-- c8 -->
<g id="node3" class="node">
<title>c8</title>
<polygon fill="none" stroke="black" points="576.28,-105 576.28,-154 663.28,-154 663.28,-105 576.28,-105"/>
<text text-anchor="middle" x="589.15" y="-136.7" font-family="Times,serif" font-size="14.00">A</text>
<polyline fill="none" stroke="black" points="576.28,-129.5 602.03,-129.5"/>
<text text-anchor="middle" x="589.15" y="-112.2" font-family="Times,serif" font-size="14.00">B</text>
<polyline fill="none" stroke="black" points="602.03,-105 602.03,-154"/>
<text text-anchor="middle" x="619.78" y="-132.7" font-family="Times,serif" font-size="14.00">$8</text>
<text text-anchor="middle" x="619.78" y="-116.2" font-family="Times,serif" font-size="14.00">$ge</text>
<polyline fill="none" stroke="black" points="637.53,-105 637.53,-154"/>
<text text-anchor="middle" x="650.4" y="-124.7" font-family="Times,serif" font-size="14.00">Y</text>
</g>
<!-- n3&#45;&gt;c8 -->
<g id="edge6" class="edge">
<title>n3:e&#45;&gt;c8:w</title>
<path fill="none" stroke="black" stroke-width="3" d="M107.84,-114.5C312.17,-114.5 366.09,-117.15 564.85,-117.25"/>
<polygon fill="black" stroke="black" stroke-width="3" points="561.73,-120.75 571.73,-117.25 561.74,-113.75 561.73,-120.75"/>
</g>
<!-- x0 -->
<g id="node6" class="node">
<title>x0</title>
<path fill="none" stroke="black" d="M251.18,-197C251.18,-197 300.93,-197 300.93,-197 306.93,-197 312.93,-203 312.93,-209 312.93,-209 312.93,-234 312.93,-234 312.93,-240 306.93,-246 300.93,-246 300.93,-246 251.18,-246 251.18,-246 245.18,-246 239.18,-240 239.18,-234 239.18,-234 239.18,-209 239.18,-209 239.18,-203 245.18,-197 251.18,-197"/>
<text text-anchor="middle" x="276.06" y="-228.7" font-family="Times,serif" font-size="14.00">0 &#45;&gt; 10:10</text>
<polyline fill="none" stroke="black" points="239.18,-221.5 312.93,-221.5"/>
<text text-anchor="middle" x="276.06" y="-204.2" font-family="Times,serif" font-size="14.00">9:0 &#45; 9:0</text>
</g>
<!-- n3&#45;&gt;x0 -->
<g id="edge7" class="edge">
<title>n3:e&#45;&gt;x0:w</title>
<path fill="none" stroke="black" stroke-width="3" d="M107.84,-114.5C144.02,-114.5 115.48,-165.05 143.84,-187.5 174.42,-211.7 191.72,-209.9 226.72,-209.35"/>
<polygon fill="black" stroke="black" stroke-width="3" points="223.67,-212.88 233.64,-209.29 223.61,-205.88 223.67,-212.88"/>
</g>
<!-- c10 -->
<g id="node7" class="node">
<title>c10</title>
<polygon fill="none" stroke="black" points="806.52,-79 806.52,-128 902.52,-128 902.52,-79 806.52,-79"/>
<text text-anchor="middle" x="819.4" y="-110.7" font-family="Times,serif" font-size="14.00">A</text>
<polyline fill="none" stroke="black" points="806.52,-103.5 832.27,-103.5"/>
<text text-anchor="middle" x="819.4" y="-86.2" font-family="Times,serif" font-size="14.00">B</text>
<polyline fill="none" stroke="black" points="832.27,-79 832.27,-128"/>
<text text-anchor="middle" x="854.52" y="-106.7" font-family="Times,serif" font-size="14.00">$9</text>
<text text-anchor="middle" x="854.52" y="-90.2" font-family="Times,serif" font-size="14.00">$mul</text>
<polyline fill="none" stroke="black" points="876.77,-79 876.77,-128"/>
<text text-anchor="middle" x="889.65" y="-98.7" font-family="Times,serif" font-size="14.00">Y</text>
</g>
<!-- n3&#45;&gt;c10 -->
<g id="edge5" class="edge">
<title>n3:e&#45;&gt;c10:w</title>
<path fill="none" stroke="black" stroke-width="3" d="M107.84,-114.5C123.94,-114.5 127.78,-111.67 143.84,-110.5 335.64,-96.54 384.03,-100.62 576.28,-95.5 674.26,-92.89 701.57,-91.37 794.2,-91.26"/>
<polygon fill="black" stroke="black" stroke-width="3" points="790.98,-94.76 800.98,-91.25 790.98,-87.76 790.98,-94.76"/>
</g>
<!-- n4 -->
<g id="node2" class="node">
<title>n4</title>
<polygon fill="none" stroke="black" points="1282.33,-65.04 1282.33,-79.96 1247.83,-90.5 1199.03,-90.5 1164.52,-79.96 1164.52,-65.04 1199.03,-54.5 1247.83,-54.5 1282.33,-65.04"/>
<text text-anchor="middle" x="1223.43" y="-67.45" font-family="Times,serif" font-size="14.00">output_data</text>
</g>
<!-- c8&#45;&gt;c10 -->
<g id="edge3" class="edge">
<title>c8:e&#45;&gt;c10:w</title>
<path fill="none" stroke="black" d="M663.28,-129.75C722.83,-129.75 739.91,-117.45 794.16,-115.91"/>
<polygon fill="black" stroke="black" points="794.06,-119.41 804.01,-115.77 793.96,-112.41 794.06,-119.41"/>
</g>
<!-- v1 -->
<g id="node4" class="node">
<title>v1</title>
<ellipse fill="none" stroke="black" cx="276.06" cy="-160.5" rx="132.22" ry="18"/>
<text text-anchor="middle" x="276.06" y="-155.45" font-family="Times,serif" font-size="14.00">24&#39;110001101010000111011111</text>
</g>
<!-- c9 -->
<g id="node5" class="node">
<title>c9</title>
<polygon fill="none" stroke="black" points="444.28,-148 444.28,-197 540.28,-197 540.28,-148 444.28,-148"/>
<text text-anchor="middle" x="457.15" y="-179.7" font-family="Times,serif" font-size="14.00">A</text>
<polyline fill="none" stroke="black" points="444.28,-172.5 470.03,-172.5"/>
<text text-anchor="middle" x="457.15" y="-155.2" font-family="Times,serif" font-size="14.00">B</text>
<polyline fill="none" stroke="black" points="470.03,-148 470.03,-197"/>
<text text-anchor="middle" x="492.28" y="-175.7" font-family="Times,serif" font-size="14.00">$7</text>
<text text-anchor="middle" x="492.28" y="-159.2" font-family="Times,serif" font-size="14.00">$mul</text>
<polyline fill="none" stroke="black" points="514.53,-148 514.53,-197"/>
<text text-anchor="middle" x="527.4" y="-167.7" font-family="Times,serif" font-size="14.00">Y</text>
</g>
<!-- v1&#45;&gt;c9 -->
<g id="edge10" class="edge">
<title>v1:e&#45;&gt;c9:w</title>
<path fill="none" stroke="black" stroke-width="3" d="M408.28,-160.5C419.65,-160.5 424.96,-160.37 432.83,-160.3"/>
<polygon fill="black" stroke="black" stroke-width="3" points="429.75,-163.81 439.73,-160.27 429.72,-156.81 429.75,-163.81"/>
</g>
<!-- c9&#45;&gt;c8 -->
<g id="edge4" class="edge">
<title>c9:e&#45;&gt;c8:w</title>
<path fill="none" stroke="black" stroke-width="3" d="M540.28,-172.75C556.61,-172.75 556.58,-154.21 565.5,-145.8"/>
<polygon fill="black" stroke="black" stroke-width="3" points="563.9,-150.14 572.03,-143.35 561.43,-143.59 563.9,-150.14"/>
</g>
<!-- x0&#45;&gt;c9 -->
<g id="edge1" class="edge">
<title>x0:e&#45;&gt;c9:w</title>
<path fill="none" stroke="black" stroke-width="3" d="M326.86,-220.89C371.91,-216.51 386.34,-189.72 431.41,-185.35"/>
<polygon fill="none" stroke="black" stroke-width="3" points="328.62,-220.81 322.82,-225.09 316.63,-221.37 322.44,-217.1 328.62,-220.81"/>
<polygon fill="none" stroke="black" stroke-width="3" points="429.59,-185.44 435.39,-181.16 441.57,-184.88 435.77,-189.15 429.59,-185.44"/>
</g>
<!-- x2 -->
<g id="node8" class="node">
<title>x2</title>
<path fill="none" stroke="black" d="M1061.15,-83.5C1061.15,-83.5 1113.15,-83.5 1113.15,-83.5 1119.15,-83.5 1125.15,-89.5 1125.15,-95.5 1125.15,-95.5 1125.15,-107.5 1125.15,-107.5 1125.15,-113.5 1119.15,-119.5 1113.15,-119.5 1113.15,-119.5 1061.15,-119.5 1061.15,-119.5 1055.15,-119.5 1049.15,-113.5 1049.15,-107.5 1049.15,-107.5 1049.15,-95.5 1049.15,-95.5 1049.15,-89.5 1055.15,-83.5 1061.15,-83.5"/>
<text text-anchor="middle" x="1087.15" y="-96.7" font-family="Times,serif" font-size="14.00">10:0 &#45; 10:0</text>
</g>
<!-- c10&#45;&gt;x2 -->
<g id="edge2" class="edge">
<title>c10:e&#45;&gt;x2:w</title>
<path fill="none" stroke="black" stroke-width="3" d="M916.4,-103.72C966.2,-103.47 985.42,-101.79 1035.18,-101.53"/>
<polygon fill="none" stroke="black" stroke-width="3" points="918.23,-103.71 912.24,-107.73 906.23,-103.74 912.22,-99.73 918.23,-103.71"/>
<polygon fill="none" stroke="black" stroke-width="3" points="1033.44,-101.54 1039.43,-97.52 1045.44,-101.51 1039.45,-105.52 1033.44,-101.54"/>
</g>
<!-- x2&#45;&gt;n4 -->
<g id="edge8" class="edge">
<title>x2:e&#45;&gt;n4:w</title>
<path fill="none" stroke="black" stroke-width="3" d="M1126.15,-101.75C1142.9,-101.75 1143.81,-83.9 1153.63,-76.09"/>
<polygon fill="black" stroke="black" stroke-width="3" points="1151.81,-80.37 1160.21,-73.92 1149.62,-73.72 1151.81,-80.37"/>
</g>
<!-- v3 -->
<g id="node9" class="node">
<title>v3</title>
<ellipse fill="none" stroke="black" cx="854.52" cy="-42.5" rx="155.25" ry="18"/>
<text text-anchor="middle" x="854.52" y="-37.45" font-family="Times,serif" font-size="14.00">29&#39;00000000000000000000000000000</text>
</g>
<!-- x4 -->
<g id="node10" class="node">
<title>x4</title>
<path fill="none" stroke="black" d="M1057.77,-27.5C1057.77,-27.5 1116.52,-27.5 1116.52,-27.5 1122.52,-27.5 1128.52,-33.5 1128.52,-39.5 1128.52,-39.5 1128.52,-51.5 1128.52,-51.5 1128.52,-57.5 1122.52,-63.5 1116.52,-63.5 1116.52,-63.5 1057.77,-63.5 1057.77,-63.5 1051.77,-63.5 1045.77,-57.5 1045.77,-51.5 1045.77,-51.5 1045.77,-39.5 1045.77,-39.5 1045.77,-33.5 1051.77,-27.5 1057.77,-27.5"/>
<text text-anchor="middle" x="1087.15" y="-40.7" font-family="Times,serif" font-size="14.00">28:0 &#45; 39:11</text>
</g>
<!-- v3&#45;&gt;x4 -->
<g id="edge11" class="edge">
<title>v3:e&#45;&gt;x4:w</title>
<path fill="none" stroke="black" stroke-width="3" d="M1009.77,-42.5C1021.19,-42.5 1026.45,-44.02 1034.31,-44.89"/>
<polygon fill="black" stroke="black" stroke-width="3" points="1031.07,-48.23 1041.24,-45.26 1031.44,-41.24 1031.07,-48.23"/>
</g>
<!-- x4&#45;&gt;n4 -->
<g id="edge9" class="edge">
<title>x4:e&#45;&gt;n4:w</title>
<path fill="none" stroke="black" stroke-width="3" d="M1128.52,-45.75C1143.78,-45.75 1145.09,-61.43 1153.82,-68.78"/>
<polygon fill="black" stroke="black" stroke-width="3" points="1149.64,-71.03 1160.23,-71.01 1151.94,-64.42 1149.64,-71.03"/>
</g>
</g>
</svg>
