<?xml version="1.0" encoding="UTF-8" standalone="no"?>
<!DOCTYPE svg PUBLIC "-//W3C//DTD SVG 1.1//EN"
 "http://www.w3.org/Graphics/SVG/1.1/DTD/svg11.dtd">
<!-- Generated by graphviz version 12.2.1 (20241206.2353)
 -->
<!-- Title: top Pages: 1 -->
<svg width="1147pt" height="228pt"
 viewBox="0.00 0.00 1146.65 228.00" xmlns="http://www.w3.org/2000/svg" xmlns:xlink="http://www.w3.org/1999/xlink">
<g id="graph0" class="graph" transform="scale(1 1) rotate(0) translate(4 224)">
<title>top</title>
<polygon fill="white" stroke="none" points="-4,4 -4,-224 1142.65,-224 1142.65,4 -4,4"/>
<text text-anchor="middle" x="569.33" y="-7.2" font-family="Times,serif" font-size="14.00">top</text>
<!-- n3 -->
<g id="node1" class="node">
<title>n3</title>
<polygon fill="none" stroke="black" points="107.84,-54.04 107.84,-68.96 76.26,-79.5 31.59,-79.5 0,-68.96 0,-54.04 31.59,-43.5 76.26,-43.5 107.84,-54.04"/>
<text text-anchor="middle" x="53.92" y="-56.45" font-family="Times,serif" font-size="14.00">input_data</text>
</g>
<!-- c9 -->
<g id="node4" class="node">
<title>c9</title>
<polygon fill="none" stroke="black" points="272.84,-52 272.84,-101 366.59,-101 366.59,-52 272.84,-52"/>
<text text-anchor="middle" x="285.72" y="-83.7" font-family="Times,serif" font-size="14.00">A</text>
<polyline fill="none" stroke="black" points="272.84,-76.5 298.59,-76.5"/>
<text text-anchor="middle" x="285.72" y="-59.2" font-family="Times,serif" font-size="14.00">B</text>
<polyline fill="none" stroke="black" points="298.59,-52 298.59,-101"/>
<text text-anchor="middle" x="319.72" y="-79.7" font-family="Times,serif" font-size="14.00">$3</text>
<text text-anchor="middle" x="319.72" y="-63.2" font-family="Times,serif" font-size="14.00">$add</text>
<polyline fill="none" stroke="black" points="340.84,-52 340.84,-101"/>
<text text-anchor="middle" x="353.72" y="-71.7" font-family="Times,serif" font-size="14.00">Y</text>
</g>
<!-- n3&#45;&gt;c9 -->
<g id="edge8" class="edge">
<title>n3:e&#45;&gt;c9:w</title>
<path fill="none" stroke="black" stroke-width="3" d="M107.84,-61.5C177.32,-61.5 197.41,-63.97 261.68,-64.23"/>
<polygon fill="black" stroke="black" stroke-width="3" points="258.29,-67.72 268.3,-64.24 258.31,-60.72 258.29,-67.72"/>
</g>
<!-- c10 -->
<g id="node5" class="node">
<title>c10</title>
<polygon fill="none" stroke="black" points="402.59,-25 402.59,-74 498.59,-74 498.59,-25 402.59,-25"/>
<text text-anchor="middle" x="415.47" y="-56.7" font-family="Times,serif" font-size="14.00">A</text>
<polyline fill="none" stroke="black" points="402.59,-49.5 428.34,-49.5"/>
<text text-anchor="middle" x="415.47" y="-32.2" font-family="Times,serif" font-size="14.00">B</text>
<polyline fill="none" stroke="black" points="428.34,-25 428.34,-74"/>
<text text-anchor="middle" x="450.59" y="-52.7" font-family="Times,serif" font-size="14.00">$4</text>
<text text-anchor="middle" x="450.59" y="-36.2" font-family="Times,serif" font-size="14.00">$mul</text>
<polyline fill="none" stroke="black" points="472.84,-25 472.84,-74"/>
<text text-anchor="middle" x="485.72" y="-44.7" font-family="Times,serif" font-size="14.00">Y</text>
</g>
<!-- n3&#45;&gt;c10 -->
<g id="edge6" class="edge">
<title>n3:e&#45;&gt;c10:w</title>
<path fill="none" stroke="black" stroke-width="3" d="M107.84,-61.5C110.15,-61.5 270.54,-42.68 272.84,-42.5 326.45,-38.33 342.69,-37.37 391.33,-37.26"/>
<polygon fill="black" stroke="black" stroke-width="3" points="388.05,-40.77 398.05,-37.25 388.05,-33.77 388.05,-40.77"/>
</g>
<!-- c11 -->
<g id="node8" class="node">
<title>c11</title>
<polygon fill="none" stroke="black" points="143.84,-90 143.84,-139 236.84,-139 236.84,-90 143.84,-90"/>
<text text-anchor="middle" x="156.72" y="-121.7" font-family="Times,serif" font-size="14.00">A</text>
<polyline fill="none" stroke="black" points="143.84,-114.5 169.59,-114.5"/>
<text text-anchor="middle" x="156.72" y="-97.2" font-family="Times,serif" font-size="14.00">B</text>
<polyline fill="none" stroke="black" points="169.59,-90 169.59,-139"/>
<text text-anchor="middle" x="190.34" y="-117.7" font-family="Times,serif" font-size="14.00">$2</text>
<text text-anchor="middle" x="190.34" y="-101.2" font-family="Times,serif" font-size="14.00">$sub</text>
<polyline fill="none" stroke="black" points="211.09,-90 211.09,-139"/>
<text text-anchor="middle" x="223.97" y="-109.7" font-family="Times,serif" font-size="14.00">Y</text>
</g>
<!-- n3&#45;&gt;c11 -->
<g id="edge7" class="edge">
<title>n3:e&#45;&gt;c11:w</title>
<path fill="none" stroke="black" stroke-width="3" d="M107.84,-61.5C127.29,-61.5 123.1,-87.89 133.31,-98.19"/>
<polygon fill="black" stroke="black" stroke-width="3" points="129.01,-100.29 139.6,-100.62 131.53,-93.76 129.01,-100.29"/>
</g>
<!-- n4 -->
<g id="node2" class="node">
<title>n4</title>
<polygon fill="none" stroke="black" points="750.9,-82.04 750.9,-96.96 716.4,-107.5 667.6,-107.5 633.09,-96.96 633.09,-82.04 667.6,-71.5 716.4,-71.5 750.9,-82.04"/>
<text text-anchor="middle" x="692" y="-84.45" font-family="Times,serif" font-size="14.00">output_data</text>
</g>
<!-- x2 -->
<g id="node9" class="node">
<title>x2</title>
<path fill="none" stroke="black" d="M805.65,-77C805.65,-77 861.4,-77 861.4,-77 867.4,-77 873.4,-83 873.4,-89 873.4,-89 873.4,-114 873.4,-114 873.4,-120 867.4,-126 861.4,-126 861.4,-126 805.65,-126 805.65,-126 799.65,-126 793.65,-120 793.65,-114 793.65,-114 793.65,-89 793.65,-89 793.65,-83 799.65,-77 805.65,-77"/>
<text text-anchor="middle" x="833.53" y="-108.7" font-family="Times,serif" font-size="14.00">0 &#45;&gt; 18:8</text>
<polyline fill="none" stroke="black" points="793.65,-101.5 873.4,-101.5"/>
<text text-anchor="middle" x="833.53" y="-84.2" font-family="Times,serif" font-size="14.00">8x 8:8 &#45; 7:0</text>
</g>
<!-- n4&#45;&gt;x2 -->
<g id="edge12" class="edge">
<title>n4:e&#45;&gt;x2:w</title>
<path fill="none" stroke="black" stroke-width="3" d="M750.9,-89.5C764.97,-89.5 771.03,-89.36 781.22,-89.29"/>
<polygon fill="black" stroke="black" stroke-width="3" points="778.12,-92.8 788.11,-89.26 778.1,-85.8 778.12,-92.8"/>
</g>
<!-- x4 -->
<g id="node11" class="node">
<title>x4</title>
<path fill="none" stroke="black" d="M798.9,-183.5C798.9,-183.5 868.15,-183.5 868.15,-183.5 874.15,-183.5 880.15,-189.5 880.15,-195.5 880.15,-195.5 880.15,-207.5 880.15,-207.5 880.15,-213.5 874.15,-219.5 868.15,-219.5 868.15,-219.5 798.9,-219.5 798.9,-219.5 792.9,-219.5 786.9,-213.5 786.9,-207.5 786.9,-207.5 786.9,-195.5 786.9,-195.5 786.9,-189.5 792.9,-183.5 798.9,-183.5"/>
<text text-anchor="middle" x="833.53" y="-196.7" font-family="Times,serif" font-size="14.00">22x 8:8 &#45; 21:0</text>
</g>
<!-- n4&#45;&gt;x4 -->
<g id="edge13" class="edge">
<title>n4:e&#45;&gt;x4:w</title>
<path fill="none" stroke="black" stroke-width="3" d="M750.9,-89.5C798.79,-89.5 745.44,-183.29 775.93,-199.41"/>
<polygon fill="black" stroke="black" stroke-width="3" points="771.95,-202.14 782.46,-200.8 773.41,-195.29 771.95,-202.14"/>
</g>
<!-- n5 -->
<g id="node3" class="node">
<title>n5</title>
<polygon fill="none" stroke="black" points="1083.4,-104.5 1028.15,-86.5 1083.4,-68.5 1138.65,-86.5 1083.4,-104.5"/>
<text text-anchor="middle" x="1083.4" y="-81.45" font-family="Times,serif" font-size="14.00">temp_0</text>
</g>
<!-- c9&#45;&gt;c10 -->
<g id="edge4" class="edge">
<title>c9:e&#45;&gt;c10:w</title>
<path fill="none" stroke="black" stroke-width="3" d="M366.59,-76.75C379.32,-76.75 383.42,-68.66 391.57,-64.36"/>
<polygon fill="black" stroke="black" stroke-width="3" points="389.25,-68.51 398.17,-62.8 387.64,-61.7 389.25,-68.51"/>
</g>
<!-- x0 -->
<g id="node6" class="node">
<title>x0</title>
<path fill="none" stroke="black" d="M546.59,-25C546.59,-25 585.09,-25 585.09,-25 591.09,-25 597.09,-31 597.09,-37 597.09,-37 597.09,-62 597.09,-62 597.09,-68 591.09,-74 585.09,-74 585.09,-74 546.59,-74 546.59,-74 540.59,-74 534.59,-68 534.59,-62 534.59,-62 534.59,-37 534.59,-37 534.59,-31 540.59,-25 546.59,-25"/>
<text text-anchor="middle" x="565.84" y="-56.7" font-family="Times,serif" font-size="14.00">2:2 &#45; 8:8</text>
<polyline fill="none" stroke="black" points="534.59,-49.5 597.09,-49.5"/>
<text text-anchor="middle" x="565.84" y="-32.2" font-family="Times,serif" font-size="14.00">1:0 &#45; 1:0</text>
</g>
<!-- c10&#45;&gt;x0 -->
<g id="edge1" class="edge">
<title>c10:e&#45;&gt;x0:w</title>
<path fill="none" stroke="black" stroke-width="3" d="M511.31,-49.69C514.91,-49.65 518.04,-49.6 521.62,-49.57"/>
<polygon fill="none" stroke="black" stroke-width="3" points="513.29,-49.68 507.31,-53.71 501.3,-49.74 507.28,-45.71 513.29,-49.68"/>
<polygon fill="none" stroke="black" stroke-width="3" points="519.89,-49.57 525.87,-45.54 531.89,-49.51 525.91,-53.54 519.89,-49.57"/>
</g>
<!-- x0&#45;&gt;n4 -->
<g id="edge9" class="edge">
<title>x0:e&#45;&gt;n4:w</title>
<path fill="none" stroke="black" d="M597.09,-61.75C612.56,-61.75 613.6,-78.02 622.31,-85.64"/>
<polygon fill="black" stroke="black" points="621.07,-88.92 631.67,-88.99 623.43,-82.33 621.07,-88.92"/>
</g>
<!-- x0&#45;&gt;n5 -->
<g id="edge14" class="edge">
<title>x0:e&#45;&gt;n5:w</title>
<path fill="none" stroke="black" stroke-width="3" d="M597.09,-37.25C773.19,-37.25 823.72,-16.1 992.15,-67.5 1005,-71.42 1008.64,-79.99 1017.06,-84.14"/>
<polygon fill="black" stroke="black" stroke-width="3" points="1013.2,-86.9 1023.71,-85.56 1014.66,-80.06 1013.2,-86.9"/>
</g>
<!-- v1 -->
<g id="node7" class="node">
<title>v1</title>
<ellipse fill="none" stroke="black" cx="53.92" cy="-126.5" rx="30.88" ry="18"/>
<text text-anchor="middle" x="53.92" y="-121.45" font-family="Times,serif" font-size="14.00">3&#39;000</text>
</g>
<!-- v1&#45;&gt;c11 -->
<g id="edge16" class="edge">
<title>v1:e&#45;&gt;c11:w</title>
<path fill="none" stroke="black" stroke-width="3" d="M86.09,-126.5C107.55,-126.5 115.55,-126.67 132.59,-126.73"/>
<polygon fill="black" stroke="black" stroke-width="3" points="129.29,-130.23 139.3,-126.74 129.31,-123.23 129.29,-130.23"/>
</g>
<!-- c11&#45;&gt;c9 -->
<g id="edge5" class="edge">
<title>c11:e&#45;&gt;c9:w</title>
<path fill="none" stroke="black" stroke-width="3" d="M236.84,-114.75C251.95,-114.75 253.46,-99.51 262.19,-92.37"/>
<polygon fill="black" stroke="black" stroke-width="3" points="260.2,-96.74 268.54,-90.21 257.95,-90.11 260.2,-96.74"/>
</g>
<!-- x3 -->
<g id="node10" class="node">
<title>x3</title>
<path fill="none" stroke="black" d="M928.15,-77C928.15,-77 980.15,-77 980.15,-77 986.15,-77 992.15,-83 992.15,-89 992.15,-89 992.15,-114 992.15,-114 992.15,-120 986.15,-126 980.15,-126 980.15,-126 928.15,-126 928.15,-126 922.15,-126 916.15,-120 916.15,-114 916.15,-114 916.15,-89 916.15,-89 916.15,-83 922.15,-77 928.15,-77"/>
<text text-anchor="middle" x="954.15" y="-108.7" font-family="Times,serif" font-size="14.00">18:8 &#45; 19:9</text>
<polyline fill="none" stroke="black" points="916.15,-101.5 992.15,-101.5"/>
<text text-anchor="middle" x="954.15" y="-84.2" font-family="Times,serif" font-size="14.00">7:0 &#45; 7:0</text>
</g>
<!-- x2&#45;&gt;x3 -->
<g id="edge2" class="edge">
<title>x2:e&#45;&gt;x3:w</title>
<path fill="none" stroke="black" stroke-width="3" d="M887.38,-101.5C893.04,-101.5 897.53,-101.5 903.2,-101.5"/>
<polygon fill="none" stroke="black" stroke-width="3" points="889.11,-101.5 883.11,-105.5 877.11,-101.5 883.11,-97.5 889.11,-101.5"/>
<polygon fill="none" stroke="black" stroke-width="3" points="901.45,-101.5 907.45,-97.5 913.45,-101.5 907.45,-105.5 901.45,-101.5"/>
</g>
<!-- x3&#45;&gt;n4 -->
<g id="edge10" class="edge">
<title>x3:e&#45;&gt;n4:w</title>
<path fill="none" stroke="black" stroke-width="3" d="M993.15,-89.25C998.84,-89.25 996.17,-80.52 992.15,-76.5 956.88,-41.15 930.05,-69.5 880.15,-67.5 838.74,-65.84 824.76,-50.64 786.9,-67.5 765.05,-77.23 772.75,-97.77 750.9,-107.5 702.97,-128.85 670.96,-143.56 632.84,-107.5 630.84,-105.61 629.15,-102.89 628.12,-100.14"/>
<polygon fill="black" stroke="black" stroke-width="3" points="630.34,-104.38 630.34,-93.79 623.74,-102.07 630.34,-104.38"/>
</g>
<!-- x3&#45;&gt;n4 -->
<g id="edge11" class="edge">
<title>x3:e&#45;&gt;n4:w</title>
<path fill="none" stroke="black" stroke-width="3" d="M993.15,-113.75C998.84,-113.75 996.17,-122.48 992.15,-126.5 956.88,-161.85 930.05,-133.5 880.15,-135.5 769.62,-139.93 706.05,-190.43 632.84,-107.5 631.1,-105.53 629.53,-102.91 628.5,-100.29"/>
<polygon fill="black" stroke="black" stroke-width="3" points="630.88,-104.42 630.5,-93.84 624.19,-102.35 630.88,-104.42"/>
</g>
<!-- x5 -->
<g id="node12" class="node">
<title>x5</title>
<path fill="none" stroke="black" d="M928.15,-164.5C928.15,-164.5 980.15,-164.5 980.15,-164.5 986.15,-164.5 992.15,-170.5 992.15,-176.5 992.15,-176.5 992.15,-188.5 992.15,-188.5 992.15,-194.5 986.15,-200.5 980.15,-200.5 980.15,-200.5 928.15,-200.5 928.15,-200.5 922.15,-200.5 916.15,-194.5 916.15,-188.5 916.15,-188.5 916.15,-176.5 916.15,-176.5 916.15,-170.5 922.15,-164.5 928.15,-164.5"/>
<text text-anchor="middle" x="954.15" y="-177.7" font-family="Times,serif" font-size="14.00">21:0 &#45; 23:2</text>
</g>
<!-- x4&#45;&gt;x5 -->
<g id="edge3" class="edge">
<title>x4:e&#45;&gt;x5:w</title>
<path fill="none" stroke="black" stroke-width="3" d="M892.39,-197.47C896.64,-194.25 899.67,-189.75 903.92,-186.52"/>
<polygon fill="none" stroke="black" stroke-width="3" points="894.12,-196.9 889.67,-202.58 882.72,-200.65 887.17,-194.98 894.12,-196.9"/>
<polygon fill="none" stroke="black" stroke-width="3" points="902.19,-187.1 906.64,-181.42 913.58,-183.35 909.14,-189.02 902.19,-187.1"/>
</g>
<!-- x5&#45;&gt;n5 -->
<g id="edge15" class="edge">
<title>x5:e&#45;&gt;n5:w</title>
<path fill="none" stroke="black" stroke-width="3" d="M992.15,-182.75C1033.19,-182.75 992.68,-105.06 1017.15,-89.28"/>
<polygon fill="black" stroke="black" stroke-width="3" points="1014.91,-93.45 1023.75,-87.61 1013.2,-86.66 1014.91,-93.45"/>
</g>
</g>
</svg>
