<?xml version="1.0" encoding="UTF-8" standalone="no"?>
<!DOCTYPE svg PUBLIC "-//W3C//DTD SVG 1.1//EN"
 "http://www.w3.org/Graphics/SVG/1.1/DTD/svg11.dtd">
<!-- Generated by graphviz version 12.2.1 (20241206.2353)
 -->
<!-- Title: top Pages: 1 -->
<svg width="1031pt" height="324pt"
 viewBox="0.00 0.00 1031.15 324.03" xmlns="http://www.w3.org/2000/svg" xmlns:xlink="http://www.w3.org/1999/xlink">
<g id="graph0" class="graph" transform="scale(1 1) rotate(0) translate(4 320.03)">
<title>top</title>
<polygon fill="white" stroke="none" points="-4,4 -4,-320.03 1027.15,-320.03 1027.15,4 -4,4"/>
<text text-anchor="middle" x="511.58" y="-7.2" font-family="Times,serif" font-size="14.00">top</text>
<!-- n1 -->
<g id="node1" class="node">
<title>n1</title>
<polygon fill="none" stroke="black" points="107.84,-183.07 107.84,-197.99 76.26,-208.53 31.59,-208.53 0,-197.99 0,-183.07 31.59,-172.53 76.26,-172.53 107.84,-183.07"/>
<text text-anchor="middle" x="53.92" y="-185.48" font-family="Times,serif" font-size="14.00">input_data</text>
</g>
<!-- c7 -->
<g id="node4" class="node">
<title>c7</title>
<polygon fill="none" stroke="black" points="144.22,-238.03 144.22,-287.03 236.47,-287.03 236.47,-238.03 144.22,-238.03"/>
<text text-anchor="middle" x="157.09" y="-269.73" font-family="Times,serif" font-size="14.00">A</text>
<polyline fill="none" stroke="black" points="144.22,-262.53 169.97,-262.53"/>
<text text-anchor="middle" x="157.09" y="-245.23" font-family="Times,serif" font-size="14.00">B</text>
<polyline fill="none" stroke="black" points="169.97,-238.03 169.97,-287.03"/>
<text text-anchor="middle" x="190.34" y="-265.73" font-family="Times,serif" font-size="14.00">$40</text>
<text text-anchor="middle" x="190.34" y="-249.23" font-family="Times,serif" font-size="14.00">$xor</text>
<polyline fill="none" stroke="black" points="210.72,-238.03 210.72,-287.03"/>
<text text-anchor="middle" x="223.59" y="-257.73" font-family="Times,serif" font-size="14.00">Y</text>
</g>
<!-- n1&#45;&gt;c7 -->
<g id="edge6" class="edge">
<title>n1:e&#45;&gt;c7:w</title>
<path fill="none" stroke="black" stroke-width="3" d="M107.84,-190.53C143.79,-190.53 112.59,-256.19 132.8,-271.58"/>
<polygon fill="black" stroke="black" stroke-width="3" points="128.9,-274.09 139.48,-273.52 130.85,-267.37 128.9,-274.09"/>
</g>
<!-- c8 -->
<g id="node7" class="node">
<title>c8</title>
<polygon fill="none" stroke="black" points="143.84,-154.03 143.84,-203.03 236.84,-203.03 236.84,-154.03 143.84,-154.03"/>
<text text-anchor="middle" x="156.72" y="-185.73" font-family="Times,serif" font-size="14.00">A</text>
<polyline fill="none" stroke="black" points="143.84,-178.53 169.59,-178.53"/>
<text text-anchor="middle" x="156.72" y="-161.23" font-family="Times,serif" font-size="14.00">B</text>
<polyline fill="none" stroke="black" points="169.59,-154.03 169.59,-203.03"/>
<text text-anchor="middle" x="190.34" y="-181.73" font-family="Times,serif" font-size="14.00">$1</text>
<text text-anchor="middle" x="190.34" y="-165.23" font-family="Times,serif" font-size="14.00">$sub</text>
<polyline fill="none" stroke="black" points="211.09,-154.03 211.09,-203.03"/>
<text text-anchor="middle" x="223.97" y="-173.73" font-family="Times,serif" font-size="14.00">Y</text>
</g>
<!-- n1&#45;&gt;c8 -->
<g id="edge7" class="edge">
<title>n1:e&#45;&gt;c8:w</title>
<path fill="none" stroke="black" stroke-width="3" d="M107.84,-190.53C119.22,-190.53 124.53,-190.66 132.39,-190.73"/>
<polygon fill="black" stroke="black" stroke-width="3" points="129.28,-194.22 139.3,-190.76 129.32,-187.22 129.28,-194.22"/>
</g>
<!-- n1&#45;&gt;c8 -->
<g id="edge8" class="edge">
<title>n1:e&#45;&gt;c8:w</title>
<path fill="none" stroke="black" stroke-width="3" d="M107.84,-190.53C122.46,-190.53 124.52,-176.6 133.05,-169.86"/>
<polygon fill="black" stroke="black" stroke-width="3" points="131.14,-174.18 139.53,-167.71 128.94,-167.54 131.14,-174.18"/>
</g>
<!-- n2 -->
<g id="node2" class="node">
<title>n2</title>
<polygon fill="none" stroke="black" points="502.65,-167.07 502.65,-181.99 468.15,-192.53 419.35,-192.53 384.84,-181.99 384.84,-167.07 419.35,-156.53 468.15,-156.53 502.65,-167.07"/>
<text text-anchor="middle" x="443.75" y="-169.48" font-family="Times,serif" font-size="14.00">output_data</text>
</g>
<!-- x0 -->
<g id="node5" class="node">
<title>x0</title>
<path fill="none" stroke="black" d="M951.9,-176.03C951.9,-176.03 1003.9,-176.03 1003.9,-176.03 1009.9,-176.03 1015.9,-182.03 1015.9,-188.03 1015.9,-188.03 1015.9,-213.03 1015.9,-213.03 1015.9,-219.03 1009.9,-225.03 1003.9,-225.03 1003.9,-225.03 951.9,-225.03 951.9,-225.03 945.9,-225.03 939.9,-219.03 939.9,-213.03 939.9,-213.03 939.9,-188.03 939.9,-188.03 939.9,-182.03 945.9,-176.03 951.9,-176.03"/>
<text text-anchor="middle" x="977.9" y="-207.73" font-family="Times,serif" font-size="14.00">16:16 &#45; 6:6</text>
<polyline fill="none" stroke="black" points="939.9,-200.53 1015.9,-200.53"/>
<text text-anchor="middle" x="977.9" y="-183.23" font-family="Times,serif" font-size="14.00">5:0 &#45; 5:0</text>
</g>
<!-- n2&#45;&gt;x0 -->
<g id="edge12" class="edge">
<title>n2:e&#45;&gt;x0:w</title>
<path fill="none" stroke="black" d="M502.65,-174.53C521.88,-174.53 520.35,-192.63 538.65,-198.53 704.85,-252.09 759.13,-214.48 928.57,-212.83"/>
<polygon fill="black" stroke="black" points="928.41,-216.34 938.39,-212.79 928.37,-209.34 928.41,-216.34"/>
</g>
<!-- x3 -->
<g id="node9" class="node">
<title>x3</title>
<path fill="none" stroke="black" d="M557.4,-109.53C557.4,-109.53 626.65,-109.53 626.65,-109.53 632.65,-109.53 638.65,-115.53 638.65,-121.53 638.65,-121.53 638.65,-133.53 638.65,-133.53 638.65,-139.53 632.65,-145.53 626.65,-145.53 626.65,-145.53 557.4,-145.53 557.4,-145.53 551.4,-145.53 545.4,-139.53 545.4,-133.53 545.4,-133.53 545.4,-121.53 545.4,-121.53 545.4,-115.53 551.4,-109.53 557.4,-109.53"/>
<text text-anchor="middle" x="592.03" y="-122.73" font-family="Times,serif" font-size="14.00">9x 16:16 &#45; 8:0</text>
</g>
<!-- n2&#45;&gt;x3 -->
<g id="edge13" class="edge">
<title>n2:e&#45;&gt;x3:w</title>
<path fill="none" stroke="black" stroke-width="3" d="M502.65,-174.53C525.94,-174.53 520,-141.86 533.7,-131.14"/>
<polygon fill="black" stroke="black" stroke-width="3" points="531.58,-135.48 540.07,-129.14 529.48,-128.8 531.58,-135.48"/>
</g>
<!-- x5 -->
<g id="node11" class="node">
<title>x5</title>
<path fill="none" stroke="black" d="M550.65,-54.53C550.65,-54.53 633.4,-54.53 633.4,-54.53 639.4,-54.53 645.4,-60.53 645.4,-66.53 645.4,-66.53 645.4,-78.53 645.4,-78.53 645.4,-84.53 639.4,-90.53 633.4,-90.53 633.4,-90.53 550.65,-90.53 550.65,-90.53 544.65,-90.53 538.65,-84.53 538.65,-78.53 538.65,-78.53 538.65,-66.53 538.65,-66.53 538.65,-60.53 544.65,-54.53 550.65,-54.53"/>
<text text-anchor="middle" x="592.03" y="-67.73" font-family="Times,serif" font-size="14.00">17x 16:16 &#45; 16:0</text>
</g>
<!-- n2&#45;&gt;x5 -->
<g id="edge14" class="edge">
<title>n2:e&#45;&gt;x5:w</title>
<path fill="none" stroke="black" stroke-width="3" d="M502.65,-174.53C545.94,-174.53 501.36,-91.68 527.49,-75.5"/>
<polygon fill="black" stroke="black" stroke-width="3" points="525.35,-79.62 534.24,-73.86 523.7,-72.82 525.35,-79.62"/>
</g>
<!-- n3 -->
<g id="node3" class="node">
<title>n3</title>
<polygon fill="none" stroke="black" points="848.65,-90.53 793.4,-72.53 848.65,-54.53 903.9,-72.53 848.65,-90.53"/>
<text text-anchor="middle" x="848.65" y="-67.48" font-family="Times,serif" font-size="14.00">temp_0</text>
</g>
<!-- n3&#45;&gt;x0 -->
<g id="edge17" class="edge">
<title>n3:e&#45;&gt;x0:w</title>
<path fill="none" stroke="black" stroke-width="3" d="M903.9,-72.53C953.36,-72.53 896.96,-170.07 929.04,-186.07"/>
<polygon fill="black" stroke="black" stroke-width="3" points="924.96,-188.81 935.45,-187.38 926.35,-181.95 924.96,-188.81"/>
</g>
<!-- x1 -->
<g id="node6" class="node">
<title>x1</title>
<path fill="none" stroke="black" d="M291.59,-279.53C291.59,-279.53 330.09,-279.53 330.09,-279.53 336.09,-279.53 342.09,-285.53 342.09,-291.53 342.09,-291.53 342.09,-303.53 342.09,-303.53 342.09,-309.53 336.09,-315.53 330.09,-315.53 330.09,-315.53 291.59,-315.53 291.59,-315.53 285.59,-315.53 279.59,-309.53 279.59,-303.53 279.59,-303.53 279.59,-291.53 279.59,-291.53 279.59,-285.53 285.59,-279.53 291.59,-279.53"/>
<text text-anchor="middle" x="310.84" y="-292.73" font-family="Times,serif" font-size="14.00">6:0 &#45; 6:0</text>
</g>
<!-- c7&#45;&gt;x1 -->
<g id="edge2" class="edge">
<title>c7:e&#45;&gt;x1:w</title>
<path fill="none" stroke="black" stroke-width="3" d="M248.92,-267.04C256.59,-273.71 258.82,-286.54 266.47,-293.23"/>
<polygon fill="none" stroke="black" stroke-width="3" points="250.71,-267.67 243.72,-269.45 239.39,-263.68 246.38,-261.9 250.71,-267.67"/>
<polygon fill="none" stroke="black" stroke-width="3" points="264.73,-292.62 271.72,-290.85 276.04,-296.63 269.05,-298.39 264.73,-292.62"/>
</g>
<!-- x0&#45;&gt;c7 -->
<g id="edge1" class="edge">
<title>x0:e&#45;&gt;c7:w</title>
<path fill="none" stroke="black" stroke-width="3" d="M1023.15,-211.77C1022.11,-216.6 1019.33,-221.95 1015.9,-225.53 924.8,-320.78 852.21,-250.53 720.4,-250.53 442.75,-250.53 442.75,-250.53 442.75,-250.53 350.88,-250.53 328.28,-240.42 236.47,-237.53 199.33,-236.36 178.46,-214.45 151.73,-240.56"/>
<polygon fill="none" stroke="black" stroke-width="3" points="1024.05,-213.38 1017.64,-210.08 1018.22,-202.89 1024.63,-206.19 1024.05,-213.38"/>
<polygon fill="none" stroke="black" stroke-width="3" points="152.9,-239.22 151.96,-246.37 145,-248.25 145.94,-241.1 152.9,-239.22"/>
</g>
<!-- x1&#45;&gt;n2 -->
<g id="edge9" class="edge">
<title>x1:e&#45;&gt;n2:w</title>
<path fill="none" stroke="black" stroke-width="3" d="M343.09,-297.78C396.41,-297.78 337.75,-193.04 373.57,-176.67"/>
<polygon fill="black" stroke="black" stroke-width="3" points="371.21,-180.68 380.38,-175.38 369.9,-173.8 371.21,-180.68"/>
</g>
<!-- x2 -->
<g id="node8" class="node">
<title>x2</title>
<path fill="none" stroke="black" d="M284.84,-138.03C284.84,-138.03 336.84,-138.03 336.84,-138.03 342.84,-138.03 348.84,-144.03 348.84,-150.03 348.84,-150.03 348.84,-175.03 348.84,-175.03 348.84,-181.03 342.84,-187.03 336.84,-187.03 336.84,-187.03 284.84,-187.03 284.84,-187.03 278.84,-187.03 272.84,-181.03 272.84,-175.03 272.84,-175.03 272.84,-150.03 272.84,-150.03 272.84,-144.03 278.84,-138.03 284.84,-138.03"/>
<text text-anchor="middle" x="310.84" y="-169.73" font-family="Times,serif" font-size="14.00">6:6 &#45; 16:16</text>
<polyline fill="none" stroke="black" points="272.84,-162.53 348.84,-162.53"/>
<text text-anchor="middle" x="310.84" y="-145.23" font-family="Times,serif" font-size="14.00">5:0 &#45; 5:0</text>
</g>
<!-- c8&#45;&gt;x2 -->
<g id="edge3" class="edge">
<title>c8:e&#45;&gt;x2:w</title>
<path fill="none" stroke="black" stroke-width="3" d="M249.19,-175.17C253.29,-172.48 256.4,-168.82 260.51,-166.13"/>
<polygon fill="none" stroke="black" stroke-width="3" points="250.96,-174.66 246.32,-180.18 239.44,-178.02 244.07,-172.5 250.96,-174.66"/>
<polygon fill="none" stroke="black" stroke-width="3" points="258.72,-166.65 263.36,-161.13 270.24,-163.29 265.6,-168.81 258.72,-166.65"/>
</g>
<!-- x2&#45;&gt;n2 -->
<g id="edge10" class="edge">
<title>x2:e&#45;&gt;n2:w</title>
<path fill="none" stroke="black" d="M348.84,-174.78C360.22,-174.78 365.53,-174.65 373.39,-174.58"/>
<polygon fill="black" stroke="black" points="373.34,-178.08 383.33,-174.54 373.31,-171.08 373.34,-178.08"/>
</g>
<!-- x2&#45;&gt;n3 -->
<g id="edge15" class="edge">
<title>x2:e&#45;&gt;n3:w</title>
<path fill="none" stroke="black" stroke-width="3" d="M348.84,-150.28C445.2,-150.28 445.35,-69.57 538.65,-45.53 632.8,-21.28 665.17,-14.79 757.4,-45.53 771.93,-50.37 773.59,-63.63 782.55,-69.57"/>
<polygon fill="black" stroke="black" stroke-width="3" points="778.45,-72.09 789.02,-71.34 780.29,-65.33 778.45,-72.09"/>
</g>
<!-- x4 -->
<g id="node10" class="node">
<title>x4</title>
<path fill="none" stroke="black" d="M696.78,-128.53C696.78,-128.53 742.03,-128.53 742.03,-128.53 748.03,-128.53 754.03,-134.53 754.03,-140.53 754.03,-140.53 754.03,-152.53 754.03,-152.53 754.03,-158.53 748.03,-164.53 742.03,-164.53 742.03,-164.53 696.78,-164.53 696.78,-164.53 690.78,-164.53 684.78,-158.53 684.78,-152.53 684.78,-152.53 684.78,-140.53 684.78,-140.53 684.78,-134.53 690.78,-128.53 696.78,-128.53"/>
<text text-anchor="middle" x="719.4" y="-141.73" font-family="Times,serif" font-size="14.00">8:0 &#45; 15:7</text>
</g>
<!-- x3&#45;&gt;x4 -->
<g id="edge4" class="edge">
<title>x3:e&#45;&gt;x4:w</title>
<path fill="none" stroke="black" stroke-width="3" d="M652.23,-130.33C659.54,-133.97 664.06,-140.26 671.43,-143.84"/>
<polygon fill="none" stroke="black" stroke-width="3" points="654.01,-130.73 647.28,-133.33 642.29,-128.12 649.02,-125.52 654.01,-130.73"/>
<polygon fill="none" stroke="black" stroke-width="3" points="669.41,-143.4 676.13,-140.77 681.14,-145.95 674.42,-148.58 669.41,-143.4"/>
</g>
<!-- x4&#45;&gt;n2 -->
<g id="edge11" class="edge">
<title>x4:e&#45;&gt;n2:w</title>
<path fill="none" stroke="black" stroke-width="3" d="M755.03,-146.78C763.15,-146.78 759.61,-159.13 754.03,-165.03 715.38,-205.83 558.76,-189.47 502.65,-192.53 450.26,-195.39 422.71,-228.59 384.59,-192.53 382.59,-190.64 380.9,-187.92 379.87,-185.17"/>
<polygon fill="black" stroke="black" stroke-width="3" points="382.09,-189.41 382.09,-178.82 375.49,-187.1 382.09,-189.41"/>
</g>
<!-- x6 -->
<g id="node12" class="node">
<title>x6</title>
<path fill="none" stroke="black" d="M693.4,-54.53C693.4,-54.53 745.4,-54.53 745.4,-54.53 751.4,-54.53 757.4,-60.53 757.4,-66.53 757.4,-66.53 757.4,-78.53 757.4,-78.53 757.4,-84.53 751.4,-90.53 745.4,-90.53 745.4,-90.53 693.4,-90.53 693.4,-90.53 687.4,-90.53 681.4,-84.53 681.4,-78.53 681.4,-78.53 681.4,-66.53 681.4,-66.53 681.4,-60.53 687.4,-54.53 693.4,-54.53"/>
<text text-anchor="middle" x="719.4" y="-67.73" font-family="Times,serif" font-size="14.00">16:0 &#45; 22:6</text>
</g>
<!-- x5&#45;&gt;x6 -->
<g id="edge5" class="edge">
<title>x5:e&#45;&gt;x6:w</title>
<path fill="none" stroke="black" stroke-width="3" d="M658.13,-72.53C661.72,-72.53 664.85,-72.53 668.43,-72.53"/>
<polygon fill="none" stroke="black" stroke-width="3" points="660.11,-72.53 654.11,-76.53 648.11,-72.53 654.11,-68.53 660.11,-72.53"/>
<polygon fill="none" stroke="black" stroke-width="3" points="666.7,-72.53 672.7,-68.53 678.7,-72.53 672.7,-76.53 666.7,-72.53"/>
</g>
<!-- x6&#45;&gt;n3 -->
<g id="edge16" class="edge">
<title>x6:e&#45;&gt;n3:w</title>
<path fill="none" stroke="black" stroke-width="3" d="M757.4,-72.78C768.78,-72.78 774.09,-72.65 781.96,-72.58"/>
<polygon fill="black" stroke="black" stroke-width="3" points="778.88,-76.09 788.86,-72.55 778.85,-69.09 778.88,-76.09"/>
</g>
</g>
</svg>
