<?xml version="1.0" encoding="UTF-8" standalone="no"?>
<!DOCTYPE svg PUBLIC "-//W3C//DTD SVG 1.1//EN"
 "http://www.w3.org/Graphics/SVG/1.1/DTD/svg11.dtd">
<!-- Generated by graphviz version 12.2.1 (20241206.2353)
 -->
<!-- Title: top Pages: 1 -->
<svg width="1172pt" height="199pt"
 viewBox="0.00 0.00 1172.15 199.16" xmlns="http://www.w3.org/2000/svg" xmlns:xlink="http://www.w3.org/1999/xlink">
<g id="graph0" class="graph" transform="scale(1 1) rotate(0) translate(4 195.16)">
<title>top</title>
<polygon fill="white" stroke="none" points="-4,4 -4,-195.16 1168.15,-195.16 1168.15,4 -4,4"/>
<text text-anchor="middle" x="582.08" y="-7.2" font-family="Times,serif" font-size="14.00">top</text>
<!-- n3 -->
<g id="node1" class="node">
<title>n3</title>
<polygon fill="none" stroke="black" points="107.84,-74.04 107.84,-88.96 76.26,-99.5 31.59,-99.5 0,-88.96 0,-74.04 31.59,-63.5 76.26,-63.5 107.84,-74.04"/>
<text text-anchor="middle" x="53.92" y="-76.45" font-family="Times,serif" font-size="14.00">input_data</text>
</g>
<!-- c9 -->
<g id="node4" class="node">
<title>c9</title>
<polygon fill="none" stroke="black" points="143.84,-90 143.84,-139 237.59,-139 237.59,-90 143.84,-90"/>
<text text-anchor="middle" x="156.72" y="-121.7" font-family="Times,serif" font-size="14.00">A</text>
<polyline fill="none" stroke="black" points="143.84,-114.5 169.59,-114.5"/>
<text text-anchor="middle" x="156.72" y="-97.2" font-family="Times,serif" font-size="14.00">B</text>
<polyline fill="none" stroke="black" points="169.59,-90 169.59,-139"/>
<text text-anchor="middle" x="190.72" y="-117.7" font-family="Times,serif" font-size="14.00">$1</text>
<text text-anchor="middle" x="190.72" y="-101.2" font-family="Times,serif" font-size="14.00">$add</text>
<polyline fill="none" stroke="black" points="211.84,-90 211.84,-139"/>
<text text-anchor="middle" x="224.72" y="-109.7" font-family="Times,serif" font-size="14.00">Y</text>
</g>
<!-- n3&#45;&gt;c9 -->
<g id="edge8" class="edge">
<title>n3:e&#45;&gt;c9:w</title>
<path fill="none" stroke="black" stroke-width="3" d="M107.84,-81.5C128.72,-81.5 122.47,-111.37 133.18,-122.57"/>
<polygon fill="black" stroke="black" stroke-width="3" points="129.03,-124.71 139.61,-125.09 131.58,-118.19 129.03,-124.71"/>
</g>
<!-- n3&#45;&gt;c9 -->
<g id="edge9" class="edge">
<title>n3:e&#45;&gt;c9:w</title>
<path fill="none" stroke="black" stroke-width="3" d="M107.84,-81.5C121.69,-81.5 124.63,-93.17 133.02,-99.01"/>
<polygon fill="black" stroke="black" stroke-width="3" points="128.91,-101.43 139.49,-100.95 130.92,-94.72 128.91,-101.43"/>
</g>
<!-- c10 -->
<g id="node5" class="node">
<title>c10</title>
<polygon fill="none" stroke="black" points="403.34,-25 403.34,-74 497.09,-74 497.09,-25 403.34,-25"/>
<text text-anchor="middle" x="416.22" y="-56.7" font-family="Times,serif" font-size="14.00">A</text>
<polyline fill="none" stroke="black" points="403.34,-49.5 429.09,-49.5"/>
<text text-anchor="middle" x="416.22" y="-32.2" font-family="Times,serif" font-size="14.00">B</text>
<polyline fill="none" stroke="black" points="429.09,-25 429.09,-74"/>
<text text-anchor="middle" x="450.22" y="-52.7" font-family="Times,serif" font-size="14.00">$3</text>
<text text-anchor="middle" x="450.22" y="-36.2" font-family="Times,serif" font-size="14.00">$add</text>
<polyline fill="none" stroke="black" points="471.34,-25 471.34,-74"/>
<text text-anchor="middle" x="484.22" y="-44.7" font-family="Times,serif" font-size="14.00">Y</text>
</g>
<!-- n3&#45;&gt;c10 -->
<g id="edge6" class="edge">
<title>n3:e&#45;&gt;c10:w</title>
<path fill="none" stroke="black" stroke-width="3" d="M107.84,-81.5C125.93,-81.5 126.66,-68.18 143.84,-62.5 250.21,-27.34 285.15,-36.56 392.06,-37.22"/>
<polygon fill="black" stroke="black" stroke-width="3" points="388.79,-40.71 398.8,-37.24 388.81,-33.71 388.79,-40.71"/>
</g>
<!-- c11 -->
<g id="node7" class="node">
<title>c11</title>
<polygon fill="none" stroke="black" points="273.59,-52 273.59,-101 367.34,-101 367.34,-52 273.59,-52"/>
<text text-anchor="middle" x="286.47" y="-83.7" font-family="Times,serif" font-size="14.00">A</text>
<polyline fill="none" stroke="black" points="273.59,-76.5 299.34,-76.5"/>
<text text-anchor="middle" x="286.47" y="-59.2" font-family="Times,serif" font-size="14.00">B</text>
<polyline fill="none" stroke="black" points="299.34,-52 299.34,-101"/>
<text text-anchor="middle" x="320.47" y="-79.7" font-family="Times,serif" font-size="14.00">$2</text>
<text text-anchor="middle" x="320.47" y="-63.2" font-family="Times,serif" font-size="14.00">$and</text>
<polyline fill="none" stroke="black" points="341.59,-52 341.59,-101"/>
<text text-anchor="middle" x="354.47" y="-71.7" font-family="Times,serif" font-size="14.00">Y</text>
</g>
<!-- n3&#45;&gt;c11 -->
<g id="edge7" class="edge">
<title>n3:e&#45;&gt;c11:w</title>
<path fill="none" stroke="black" stroke-width="3" d="M107.84,-81.5C178,-81.5 197.51,-66.02 262.33,-64.39"/>
<polygon fill="black" stroke="black" stroke-width="3" points="259.09,-67.93 269.05,-64.31 259.01,-60.93 259.09,-67.93"/>
</g>
<!-- n4 -->
<g id="node2" class="node">
<title>n4</title>
<polygon fill="none" stroke="black" points="762.9,-103.04 762.9,-117.96 728.4,-128.5 679.6,-128.5 645.09,-117.96 645.09,-103.04 679.6,-92.5 728.4,-92.5 762.9,-103.04"/>
<text text-anchor="middle" x="704" y="-105.45" font-family="Times,serif" font-size="14.00">output_data</text>
</g>
<!-- x1 -->
<g id="node8" class="node">
<title>x1</title>
<path fill="none" stroke="black" d="M810.9,-111C810.9,-111 893.65,-111 893.65,-111 899.65,-111 905.65,-117 905.65,-123 905.65,-123 905.65,-148 905.65,-148 905.65,-154 899.65,-160 893.65,-160 893.65,-160 810.9,-160 810.9,-160 804.9,-160 798.9,-154 798.9,-148 798.9,-148 798.9,-123 798.9,-123 798.9,-117 804.9,-111 810.9,-111"/>
<text text-anchor="middle" x="852.28" y="-142.7" font-family="Times,serif" font-size="14.00">9x 23:23 &#45; 22:14</text>
<polyline fill="none" stroke="black" points="798.9,-135.5 905.65,-135.5"/>
<text text-anchor="middle" x="852.28" y="-118.2" font-family="Times,serif" font-size="14.00">0 &#45;&gt; 13:0</text>
</g>
<!-- n4&#45;&gt;x1 -->
<g id="edge12" class="edge">
<title>n4:e&#45;&gt;x1:w</title>
<path fill="none" stroke="black" stroke-width="3" d="M762.9,-110.5C781.25,-110.5 778.6,-134.15 788.41,-143.76"/>
<polygon fill="black" stroke="black" stroke-width="3" points="784.07,-145.86 794.66,-146.14 786.55,-139.31 784.07,-145.86"/>
</g>
<!-- x3 -->
<g id="node10" class="node">
<title>x3</title>
<path fill="none" stroke="black" d="M810.9,-55.5C810.9,-55.5 893.65,-55.5 893.65,-55.5 899.65,-55.5 905.65,-61.5 905.65,-67.5 905.65,-67.5 905.65,-79.5 905.65,-79.5 905.65,-85.5 899.65,-91.5 893.65,-91.5 893.65,-91.5 810.9,-91.5 810.9,-91.5 804.9,-91.5 798.9,-85.5 798.9,-79.5 798.9,-79.5 798.9,-67.5 798.9,-67.5 798.9,-61.5 804.9,-55.5 810.9,-55.5"/>
<text text-anchor="middle" x="852.28" y="-68.7" font-family="Times,serif" font-size="14.00">22x 23:23 &#45; 21:0</text>
</g>
<!-- n4&#45;&gt;x3 -->
<g id="edge13" class="edge">
<title>n4:e&#45;&gt;x3:w</title>
<path fill="none" stroke="black" stroke-width="3" d="M762.9,-110.5C781.12,-110.5 778.65,-87.16 788.46,-77.68"/>
<polygon fill="black" stroke="black" stroke-width="3" points="786.53,-82.15 794.65,-75.35 784.06,-75.6 786.53,-82.15"/>
</g>
<!-- n5 -->
<g id="node3" class="node">
<title>n5</title>
<polygon fill="none" stroke="black" points="1108.9,-67.5 1053.65,-49.5 1108.9,-31.5 1164.15,-49.5 1108.9,-67.5"/>
<text text-anchor="middle" x="1108.9" y="-44.45" font-family="Times,serif" font-size="14.00">temp_0</text>
</g>
<!-- c9&#45;&gt;c11 -->
<g id="edge4" class="edge">
<title>c9:e&#45;&gt;c11:w</title>
<path fill="none" stroke="black" stroke-width="3" d="M237.59,-114.75C252.7,-114.75 254.21,-99.51 262.94,-92.37"/>
<polygon fill="black" stroke="black" stroke-width="3" points="260.95,-96.74 269.29,-90.21 258.7,-90.11 260.95,-96.74"/>
</g>
<!-- x0 -->
<g id="node6" class="node">
<title>x0</title>
<path fill="none" stroke="black" d="M545.09,-25C545.09,-25 597.09,-25 597.09,-25 603.09,-25 609.09,-31 609.09,-37 609.09,-37 609.09,-62 609.09,-62 609.09,-68 603.09,-74 597.09,-74 597.09,-74 545.09,-74 545.09,-74 539.09,-74 533.09,-68 533.09,-62 533.09,-62 533.09,-37 533.09,-37 533.09,-31 539.09,-25 545.09,-25"/>
<text text-anchor="middle" x="571.09" y="-56.7" font-family="Times,serif" font-size="14.00">3:3 &#45; 23:23</text>
<polyline fill="none" stroke="black" points="533.09,-49.5 609.09,-49.5"/>
<text text-anchor="middle" x="571.09" y="-32.2" font-family="Times,serif" font-size="14.00">2:0 &#45; 2:0</text>
</g>
<!-- c10&#45;&gt;x0 -->
<g id="edge1" class="edge">
<title>c10:e&#45;&gt;x0:w</title>
<path fill="none" stroke="black" stroke-width="3" d="M509.81,-49.69C513.41,-49.65 516.54,-49.6 520.12,-49.57"/>
<polygon fill="none" stroke="black" stroke-width="3" points="511.79,-49.68 505.81,-53.71 499.8,-49.74 505.78,-45.71 511.79,-49.68"/>
<polygon fill="none" stroke="black" stroke-width="3" points="518.39,-49.57 524.37,-45.54 530.39,-49.51 524.41,-53.54 518.39,-49.57"/>
</g>
<!-- x0&#45;&gt;n4 -->
<g id="edge10" class="edge">
<title>x0:e&#45;&gt;n4:w</title>
<path fill="none" stroke="black" d="M609.09,-61.75C631.19,-61.75 623.13,-94.55 634.39,-106.34"/>
<polygon fill="black" stroke="black" points="633.09,-109.59 643.68,-109.95 635.63,-103.07 633.09,-109.59"/>
</g>
<!-- x0&#45;&gt;n5 -->
<g id="edge14" class="edge">
<title>x0:e&#45;&gt;n5:w</title>
<path fill="none" stroke="black" stroke-width="3" d="M609.09,-37.25C790.72,-37.25 836.28,-36.9 1017.65,-46.5 1029.05,-47.1 1034.32,-48.37 1042.19,-49.04"/>
<polygon fill="black" stroke="black" stroke-width="3" points="1038.99,-52.42 1049.12,-49.32 1039.26,-45.42 1038.99,-52.42"/>
</g>
<!-- c11&#45;&gt;c10 -->
<g id="edge5" class="edge">
<title>c11:e&#45;&gt;c10:w</title>
<path fill="none" stroke="black" stroke-width="3" d="M367.34,-76.75C380.07,-76.75 384.17,-68.66 392.32,-64.36"/>
<polygon fill="black" stroke="black" stroke-width="3" points="390,-68.51 398.92,-62.8 388.39,-61.7 390,-68.51"/>
</g>
<!-- x2 -->
<g id="node9" class="node">
<title>x2</title>
<path fill="none" stroke="black" d="M953.65,-143.5C953.65,-143.5 1005.65,-143.5 1005.65,-143.5 1011.65,-143.5 1017.65,-149.5 1017.65,-155.5 1017.65,-155.5 1017.65,-167.5 1017.65,-167.5 1017.65,-173.5 1011.65,-179.5 1005.65,-179.5 1005.65,-179.5 953.65,-179.5 953.65,-179.5 947.65,-179.5 941.65,-173.5 941.65,-167.5 941.65,-167.5 941.65,-155.5 941.65,-155.5 941.65,-149.5 947.65,-143.5 953.65,-143.5"/>
<text text-anchor="middle" x="979.65" y="-156.7" font-family="Times,serif" font-size="14.00">22:0 &#45; 22:0</text>
</g>
<!-- x1&#45;&gt;x2 -->
<g id="edge2" class="edge">
<title>x1:e&#45;&gt;x2:w</title>
<path fill="none" stroke="black" stroke-width="3" d="M917.34,-140.03C922.24,-144.68 924.85,-151.91 929.66,-156.67"/>
<polygon fill="none" stroke="black" stroke-width="3" points="919.36,-140.81 912.32,-142.38 908.17,-136.48 915.21,-134.92 919.36,-140.81"/>
<polygon fill="none" stroke="black" stroke-width="3" points="928.01,-156.01 935.07,-154.54 939.14,-160.49 932.09,-161.96 928.01,-156.01"/>
</g>
<!-- x2&#45;&gt;n4 -->
<g id="edge11" class="edge">
<title>x2:e&#45;&gt;n4:w</title>
<path fill="none" stroke="black" stroke-width="3" d="M1018.65,-161.75C1026.78,-161.75 1023.55,-174.42 1017.65,-180 993.12,-203.22 975.41,-181.24 941.65,-180 878.08,-177.67 861.64,-180.06 798.9,-169.5 729.03,-157.74 689.57,-183.46 644.84,-128.5 643.26,-126.56 641.79,-124.07 640.76,-121.57"/>
<polygon fill="black" stroke="black" stroke-width="3" points="643.31,-125.45 642.62,-114.87 636.57,-123.57 643.31,-125.45"/>
</g>
<!-- x4 -->
<g id="node11" class="node">
<title>x4</title>
<path fill="none" stroke="black" d="M953.65,-55.5C953.65,-55.5 1005.65,-55.5 1005.65,-55.5 1011.65,-55.5 1017.65,-61.5 1017.65,-67.5 1017.65,-67.5 1017.65,-79.5 1017.65,-79.5 1017.65,-85.5 1011.65,-91.5 1005.65,-91.5 1005.65,-91.5 953.65,-91.5 953.65,-91.5 947.65,-91.5 941.65,-85.5 941.65,-79.5 941.65,-79.5 941.65,-67.5 941.65,-67.5 941.65,-61.5 947.65,-55.5 953.65,-55.5"/>
<text text-anchor="middle" x="979.65" y="-68.7" font-family="Times,serif" font-size="14.00">21:0 &#45; 24:3</text>
</g>
<!-- x3&#45;&gt;x4 -->
<g id="edge3" class="edge">
<title>x3:e&#45;&gt;x4:w</title>
<path fill="none" stroke="black" stroke-width="3" d="M918.38,-73.5C921.97,-73.5 925.1,-73.5 928.68,-73.5"/>
<polygon fill="none" stroke="black" stroke-width="3" points="920.36,-73.5 914.36,-77.5 908.36,-73.5 914.36,-69.5 920.36,-73.5"/>
<polygon fill="none" stroke="black" stroke-width="3" points="926.95,-73.5 932.95,-69.5 938.95,-73.5 932.95,-77.5 926.95,-73.5"/>
</g>
<!-- x4&#45;&gt;n5 -->
<g id="edge15" class="edge">
<title>x4:e&#45;&gt;n5:w</title>
<path fill="none" stroke="black" stroke-width="3" d="M1017.65,-73.75C1032.27,-73.75 1034.33,-59.82 1042.86,-53.08"/>
<polygon fill="black" stroke="black" stroke-width="3" points="1040.95,-57.4 1049.34,-50.93 1038.75,-50.76 1040.95,-57.4"/>
</g>
</g>
</svg>
