<?xml version="1.0" encoding="UTF-8" standalone="no"?>
<!DOCTYPE svg PUBLIC "-//W3C//DTD SVG 1.1//EN"
 "http://www.w3.org/Graphics/SVG/1.1/DTD/svg11.dtd">
<!-- Generated by graphviz version 12.2.1 (20241206.2353)
 -->
<!-- Title: top Pages: 1 -->
<svg width="4057pt" height="725pt"
 viewBox="0.00 0.00 4056.66 724.50" xmlns="http://www.w3.org/2000/svg" xmlns:xlink="http://www.w3.org/1999/xlink">
<g id="graph0" class="graph" transform="scale(1 1) rotate(0) translate(4 720.5)">
<title>top</title>
<polygon fill="white" stroke="none" points="-4,4 -4,-720.5 4052.66,-720.5 4052.66,4 -4,4"/>
<text text-anchor="middle" x="2024.33" y="-7.2" font-family="Times,serif" font-size="14.00">top</text>
<!-- n12 -->
<g id="node1" class="node">
<title>n12</title>
<polygon fill="none" stroke="black" points="107.84,-261.54 107.84,-276.46 76.26,-287 31.59,-287 0,-276.46 0,-261.54 31.59,-251 76.26,-251 107.84,-261.54"/>
<text text-anchor="middle" x="53.92" y="-263.95" font-family="Times,serif" font-size="14.00">input_data</text>
</g>
<!-- c23 -->
<g id="node10" class="node">
<title>c23</title>
<polygon fill="none" stroke="black" points="2506.09,-236.5 2506.09,-285.5 2599.84,-285.5 2599.84,-236.5 2506.09,-236.5"/>
<text text-anchor="middle" x="2518.97" y="-268.2" font-family="Times,serif" font-size="14.00">A</text>
<polyline fill="none" stroke="black" points="2506.09,-261 2531.84,-261"/>
<text text-anchor="middle" x="2518.97" y="-243.7" font-family="Times,serif" font-size="14.00">B</text>
<polyline fill="none" stroke="black" points="2531.84,-236.5 2531.84,-285.5"/>
<text text-anchor="middle" x="2552.97" y="-264.2" font-family="Times,serif" font-size="14.00">$13</text>
<text text-anchor="middle" x="2552.97" y="-247.7" font-family="Times,serif" font-size="14.00">$add</text>
<polyline fill="none" stroke="black" points="2574.09,-236.5 2574.09,-285.5"/>
<text text-anchor="middle" x="2586.97" y="-256.2" font-family="Times,serif" font-size="14.00">Y</text>
</g>
<!-- n12&#45;&gt;c23 -->
<g id="edge29" class="edge">
<title>n12:e&#45;&gt;c23:w</title>
<path fill="none" stroke="black" stroke-width="3" d="M107.84,-269C150.92,-269 111.25,-207.17 143.84,-179 204.44,-126.62 239,-137 319.09,-137 319.09,-137 319.09,-137 2304.09,-137 2402.79,-137 2403.58,-240.4 2494.82,-248.28"/>
<polygon fill="black" stroke="black" stroke-width="3" points="2491.42,-251.64 2501.56,-248.56 2491.71,-244.64 2491.42,-251.64"/>
</g>
<!-- c24 -->
<g id="node12" class="node">
<title>c24</title>
<polygon fill="none" stroke="black" points="143.84,-335.5 143.84,-384.5 237.59,-384.5 237.59,-335.5 143.84,-335.5"/>
<text text-anchor="middle" x="156.72" y="-367.2" font-family="Times,serif" font-size="14.00">A</text>
<polyline fill="none" stroke="black" points="143.84,-360 169.59,-360"/>
<text text-anchor="middle" x="156.72" y="-342.7" font-family="Times,serif" font-size="14.00">B</text>
<polyline fill="none" stroke="black" points="169.59,-335.5 169.59,-384.5"/>
<text text-anchor="middle" x="190.72" y="-363.2" font-family="Times,serif" font-size="14.00">$1</text>
<text text-anchor="middle" x="190.72" y="-346.7" font-family="Times,serif" font-size="14.00">$and</text>
<polyline fill="none" stroke="black" points="211.84,-335.5 211.84,-384.5"/>
<text text-anchor="middle" x="224.72" y="-355.2" font-family="Times,serif" font-size="14.00">Y</text>
</g>
<!-- n12&#45;&gt;c24 -->
<g id="edge30" class="edge">
<title>n12:e&#45;&gt;c24:w</title>
<path fill="none" stroke="black" stroke-width="3" d="M107.84,-269C151.88,-269 105.75,-353.8 132.89,-369.7"/>
<polygon fill="black" stroke="black" stroke-width="3" points="128.89,-372.36 139.42,-371.22 130.47,-365.54 128.89,-372.36"/>
</g>
<!-- n12&#45;&gt;c24 -->
<g id="edge31" class="edge">
<title>n12:e&#45;&gt;c24:w</title>
<path fill="none" stroke="black" stroke-width="3" d="M107.84,-269C141.66,-269 114.11,-329.83 133.07,-344.57"/>
<polygon fill="black" stroke="black" stroke-width="3" points="128.9,-346.98 139.49,-346.46 130.89,-340.27 128.9,-346.98"/>
</g>
<!-- c25 -->
<g id="node13" class="node">
<title>c25</title>
<polygon fill="none" stroke="black" points="1721.47,-223.5 1721.47,-272.5 1813.72,-272.5 1813.72,-223.5 1721.47,-223.5"/>
<text text-anchor="middle" x="1734.34" y="-255.2" font-family="Times,serif" font-size="14.00">A</text>
<polyline fill="none" stroke="black" points="1721.47,-248 1747.22,-248"/>
<text text-anchor="middle" x="1734.34" y="-230.7" font-family="Times,serif" font-size="14.00">B</text>
<polyline fill="none" stroke="black" points="1747.22,-223.5 1747.22,-272.5"/>
<text text-anchor="middle" x="1767.59" y="-251.2" font-family="Times,serif" font-size="14.00">$43</text>
<text text-anchor="middle" x="1767.59" y="-234.7" font-family="Times,serif" font-size="14.00">$xor</text>
<polyline fill="none" stroke="black" points="1787.97,-223.5 1787.97,-272.5"/>
<text text-anchor="middle" x="1800.84" y="-243.2" font-family="Times,serif" font-size="14.00">Y</text>
</g>
<!-- n12&#45;&gt;c25 -->
<g id="edge32" class="edge">
<title>n12:e&#45;&gt;c25:w</title>
<path fill="none" stroke="black" stroke-width="3" d="M107.84,-269C131.43,-269 123.91,-242.62 143.84,-230 212.8,-186.31 237.46,-175 319.09,-175 319.09,-175 319.09,-175 1093.59,-175 1109.89,-175 1624.74,-227.73 1709.19,-234.94"/>
<polygon fill="black" stroke="black" stroke-width="3" points="1705.71,-238.2 1715.94,-235.42 1706.22,-231.21 1705.71,-238.2"/>
</g>
<!-- x5 -->
<g id="node18" class="node">
<title>x5</title>
<path fill="none" stroke="black" d="M297.47,-72C297.47,-72 342.72,-72 342.72,-72 348.72,-72 354.72,-78 354.72,-84 354.72,-84 354.72,-96 354.72,-96 354.72,-102 348.72,-108 342.72,-108 342.72,-108 297.47,-108 297.47,-108 291.47,-108 285.47,-102 285.47,-96 285.47,-96 285.47,-84 285.47,-84 285.47,-78 291.47,-72 297.47,-72"/>
<text text-anchor="middle" x="320.09" y="-85.2" font-family="Times,serif" font-size="14.00">10:7 &#45; 3:0</text>
</g>
<!-- n12&#45;&gt;x5 -->
<g id="edge38" class="edge">
<title>n12:e&#45;&gt;x5:w</title>
<path fill="none" stroke="black" stroke-width="3" d="M107.84,-269C174.67,-269 96.28,-169.95 143.84,-123 186.75,-80.65 216.51,-88.97 273.17,-90.13"/>
<polygon fill="black" stroke="black" stroke-width="3" points="269.89,-93.6 279.93,-90.2 269.96,-86.6 269.89,-93.6"/>
</g>
<!-- c29 -->
<g id="node21" class="node">
<title>c29</title>
<polygon fill="none" stroke="black" points="1851.59,-438.5 1851.59,-487.5 1947.59,-487.5 1947.59,-438.5 1851.59,-438.5"/>
<text text-anchor="middle" x="1864.47" y="-470.2" font-family="Times,serif" font-size="14.00">A</text>
<polyline fill="none" stroke="black" points="1851.59,-463 1877.34,-463"/>
<text text-anchor="middle" x="1864.47" y="-445.7" font-family="Times,serif" font-size="14.00">B</text>
<polyline fill="none" stroke="black" points="1877.34,-438.5 1877.34,-487.5"/>
<text text-anchor="middle" x="1899.59" y="-466.2" font-family="Times,serif" font-size="14.00">$9</text>
<text text-anchor="middle" x="1899.59" y="-449.7" font-family="Times,serif" font-size="14.00">$mul</text>
<polyline fill="none" stroke="black" points="1921.84,-438.5 1921.84,-487.5"/>
<text text-anchor="middle" x="1934.72" y="-458.2" font-family="Times,serif" font-size="14.00">Y</text>
</g>
<!-- n12&#45;&gt;c29 -->
<g id="edge33" class="edge">
<title>n12:e&#45;&gt;c29:w</title>
<path fill="none" stroke="black" stroke-width="3" d="M107.84,-269C165.65,-269 117.26,-342.66 143.84,-394 201.15,-504.71 194.43,-613 319.09,-613 319.09,-613 319.09,-613 1629.34,-613 1724.15,-613 1747.08,-574.54 1815.59,-509 1834.15,-491.25 1825.35,-461.98 1840.43,-453.27"/>
<polygon fill="black" stroke="black" stroke-width="3" points="1838.18,-457.37 1847.16,-451.75 1836.64,-450.54 1838.18,-457.37"/>
</g>
<!-- x9 -->
<g id="node28" class="node">
<title>x9</title>
<path fill="none" stroke="black" d="M540.09,-25C540.09,-25 585.34,-25 585.34,-25 591.34,-25 597.34,-31 597.34,-37 597.34,-37 597.34,-49 597.34,-49 597.34,-55 591.34,-61 585.34,-61 585.34,-61 540.09,-61 540.09,-61 534.09,-61 528.09,-55 528.09,-49 528.09,-49 528.09,-37 528.09,-37 528.09,-31 534.09,-25 540.09,-25"/>
<text text-anchor="middle" x="562.72" y="-38.2" font-family="Times,serif" font-size="14.00">10:7 &#45; 3:0</text>
</g>
<!-- n12&#45;&gt;x9 -->
<g id="edge39" class="edge">
<title>n12:e&#45;&gt;x9:w</title>
<path fill="none" stroke="black" stroke-width="3" d="M107.84,-269C191.17,-269 84.18,-143.17 143.84,-85 175.76,-53.88 417.63,-44.02 516.74,-43.29"/>
<polygon fill="black" stroke="black" stroke-width="3" points="513.56,-46.81 523.55,-43.27 513.54,-39.81 513.56,-46.81"/>
</g>
<!-- c33 -->
<g id="node29" class="node">
<title>c33</title>
<polygon fill="none" stroke="black" points="273.59,-310.5 273.59,-359.5 366.59,-359.5 366.59,-310.5 273.59,-310.5"/>
<text text-anchor="middle" x="286.47" y="-342.2" font-family="Times,serif" font-size="14.00">A</text>
<polyline fill="none" stroke="black" points="273.59,-335 299.34,-335"/>
<text text-anchor="middle" x="286.47" y="-317.7" font-family="Times,serif" font-size="14.00">B</text>
<polyline fill="none" stroke="black" points="299.34,-310.5 299.34,-359.5"/>
<text text-anchor="middle" x="320.09" y="-338.2" font-family="Times,serif" font-size="14.00">$2</text>
<text text-anchor="middle" x="320.09" y="-321.7" font-family="Times,serif" font-size="14.00">$sub</text>
<polyline fill="none" stroke="black" points="340.84,-310.5 340.84,-359.5"/>
<text text-anchor="middle" x="353.72" y="-330.2" font-family="Times,serif" font-size="14.00">Y</text>
</g>
<!-- n12&#45;&gt;c33 -->
<g id="edge34" class="edge">
<title>n12:e&#45;&gt;c33:w</title>
<path fill="none" stroke="black" stroke-width="3" d="M107.84,-269C125.01,-269 127.62,-277.37 143.84,-283 197.03,-301.46 211.43,-320.1 262.18,-322.49"/>
<polygon fill="black" stroke="black" stroke-width="3" points="258.97,-325.92 269.05,-322.65 259.13,-318.92 258.97,-325.92"/>
</g>
<!-- c34 -->
<g id="node31" class="node">
<title>c34</title>
<polygon fill="none" stroke="black" points="782.84,-270.5 782.84,-319.5 875.84,-319.5 875.84,-270.5 782.84,-270.5"/>
<text text-anchor="middle" x="795.72" y="-302.2" font-family="Times,serif" font-size="14.00">A</text>
<polyline fill="none" stroke="black" points="782.84,-295 808.59,-295"/>
<text text-anchor="middle" x="795.72" y="-277.7" font-family="Times,serif" font-size="14.00">B</text>
<polyline fill="none" stroke="black" points="808.59,-270.5 808.59,-319.5"/>
<text text-anchor="middle" x="829.34" y="-298.2" font-family="Times,serif" font-size="14.00">$3</text>
<text text-anchor="middle" x="829.34" y="-281.7" font-family="Times,serif" font-size="14.00">$sub</text>
<polyline fill="none" stroke="black" points="850.09,-270.5 850.09,-319.5"/>
<text text-anchor="middle" x="862.97" y="-290.2" font-family="Times,serif" font-size="14.00">Y</text>
</g>
<!-- n12&#45;&gt;c34 -->
<g id="edge35" class="edge">
<title>n12:e&#45;&gt;c34:w</title>
<path fill="none" stroke="black" stroke-width="3" d="M107.84,-269C201.73,-269 225.2,-269 319.09,-269 319.09,-269 319.09,-269 563.72,-269 657.39,-269 683.22,-281.67 771.46,-282.69"/>
<polygon fill="black" stroke="black" stroke-width="3" points="768.28,-286.17 778.3,-282.72 768.32,-279.17 768.28,-286.17"/>
</g>
<!-- c35 -->
<g id="node34" class="node">
<title>c35</title>
<polygon fill="none" stroke="black" points="2377.09,-638.5 2377.09,-687.5 2470.09,-687.5 2470.09,-638.5 2377.09,-638.5"/>
<text text-anchor="middle" x="2389.97" y="-670.2" font-family="Times,serif" font-size="14.00">A</text>
<polyline fill="none" stroke="black" points="2377.09,-663 2402.84,-663"/>
<text text-anchor="middle" x="2389.97" y="-645.7" font-family="Times,serif" font-size="14.00">B</text>
<polyline fill="none" stroke="black" points="2402.84,-638.5 2402.84,-687.5"/>
<text text-anchor="middle" x="2423.59" y="-666.2" font-family="Times,serif" font-size="14.00">$12</text>
<text text-anchor="middle" x="2423.59" y="-649.7" font-family="Times,serif" font-size="14.00">$sub</text>
<polyline fill="none" stroke="black" points="2444.34,-638.5 2444.34,-687.5"/>
<text text-anchor="middle" x="2457.22" y="-658.2" font-family="Times,serif" font-size="14.00">Y</text>
</g>
<!-- n12&#45;&gt;c35 -->
<g id="edge36" class="edge">
<title>n12:e&#45;&gt;c35:w</title>
<path fill="none" stroke="black" stroke-width="3" d="M107.84,-269C160.67,-269 119.06,-457.34 143.84,-504 191.53,-593.78 217.43,-651 319.09,-651 319.09,-651 319.09,-651 2174.84,-651 2260.87,-651 2285.15,-650.77 2365.87,-650.75"/>
<polygon fill="black" stroke="black" stroke-width="3" points="2362.55,-654.25 2372.55,-650.75 2362.55,-647.25 2362.55,-654.25"/>
</g>
<!-- x15 -->
<g id="node38" class="node">
<title>x15</title>
<path fill="none" stroke="black" d="M428.09,-204C428.09,-204 466.59,-204 466.59,-204 472.59,-204 478.59,-210 478.59,-216 478.59,-216 478.59,-228 478.59,-228 478.59,-234 472.59,-240 466.59,-240 466.59,-240 428.09,-240 428.09,-240 422.09,-240 416.09,-234 416.09,-228 416.09,-228 416.09,-216 416.09,-216 416.09,-210 422.09,-204 428.09,-204"/>
<text text-anchor="middle" x="447.34" y="-217.2" font-family="Times,serif" font-size="14.00">9:9 &#45; 0:0</text>
</g>
<!-- n12&#45;&gt;x15 -->
<g id="edge37" class="edge">
<title>n12:e&#45;&gt;x15:w</title>
<path fill="none" stroke="black" d="M107.84,-269C125.01,-269 127.19,-259.17 143.84,-255 257.83,-226.44 291.51,-222.49 403.62,-222.26"/>
<polygon fill="black" stroke="black" points="403.58,-225.76 413.58,-222.25 403.57,-218.76 403.58,-225.76"/>
</g>
<!-- n13 -->
<g id="node2" class="node">
<title>n13</title>
<polygon fill="none" stroke="black" points="4048.66,-70.54 4048.66,-85.46 4014.15,-96 3965.35,-96 3930.85,-85.46 3930.85,-70.54 3965.35,-60 4014.15,-60 4048.66,-70.54"/>
<text text-anchor="middle" x="3989.75" y="-72.95" font-family="Times,serif" font-size="14.00">output_data</text>
</g>
<!-- n14 -->
<g id="node3" class="node">
<title>n14</title>
<polygon fill="none" stroke="black" points="1092.59,-420 1037.34,-402 1092.59,-384 1147.84,-402 1092.59,-420"/>
<text text-anchor="middle" x="1092.59" y="-396.95" font-family="Times,serif" font-size="14.00">temp_0</text>
</g>
<!-- c22 -->
<g id="node8" class="node">
<title>c22</title>
<polygon fill="none" stroke="black" points="1311.34,-517.5 1311.34,-566.5 1405.09,-566.5 1405.09,-517.5 1311.34,-517.5"/>
<text text-anchor="middle" x="1324.22" y="-549.2" font-family="Times,serif" font-size="14.00">A</text>
<polyline fill="none" stroke="black" points="1311.34,-542 1337.09,-542"/>
<text text-anchor="middle" x="1324.22" y="-524.7" font-family="Times,serif" font-size="14.00">B</text>
<polyline fill="none" stroke="black" points="1337.09,-517.5 1337.09,-566.5"/>
<text text-anchor="middle" x="1358.22" y="-545.2" font-family="Times,serif" font-size="14.00">$5</text>
<text text-anchor="middle" x="1358.22" y="-528.7" font-family="Times,serif" font-size="14.00">$add</text>
<polyline fill="none" stroke="black" points="1379.34,-517.5 1379.34,-566.5"/>
<text text-anchor="middle" x="1392.22" y="-537.2" font-family="Times,serif" font-size="14.00">Y</text>
</g>
<!-- n14&#45;&gt;c22 -->
<g id="edge43" class="edge">
<title>n14:e&#45;&gt;c22:w</title>
<path fill="none" stroke="black" stroke-width="3" d="M1147.84,-402C1218.13,-402 1128.77,-512.32 1183.84,-556 1225.21,-588.81 1250.97,-558.97 1300.13,-554.73"/>
<polygon fill="black" stroke="black" stroke-width="3" points="1296.97,-558.37 1306.81,-554.45 1296.66,-551.38 1296.97,-558.37"/>
</g>
<!-- x0 -->
<g id="node9" class="node">
<title>x0</title>
<path fill="none" stroke="black" d="M1203.59,-510C1203.59,-510 1255.59,-510 1255.59,-510 1261.59,-510 1267.59,-516 1267.59,-522 1267.59,-522 1267.59,-534 1267.59,-534 1267.59,-540 1261.59,-546 1255.59,-546 1255.59,-546 1203.59,-546 1203.59,-546 1197.59,-546 1191.59,-540 1191.59,-534 1191.59,-534 1191.59,-522 1191.59,-522 1191.59,-516 1197.59,-510 1203.59,-510"/>
<text text-anchor="middle" x="1229.59" y="-523.2" font-family="Times,serif" font-size="14.00">12:0 &#45; 12:0</text>
</g>
<!-- n14&#45;&gt;x0 -->
<g id="edge46" class="edge">
<title>n14:e&#45;&gt;x0:w</title>
<path fill="none" stroke="black" stroke-width="3" d="M1147.84,-402C1202.69,-402 1141.85,-510.21 1179.52,-526.27"/>
<polygon fill="black" stroke="black" stroke-width="3" points="1175.66,-529.13 1186.12,-527.45 1176.9,-522.24 1175.66,-529.13"/>
</g>
<!-- c28 -->
<g id="node20" class="node">
<title>c28</title>
<polygon fill="none" stroke="black" points="1719.59,-450.5 1719.59,-499.5 1815.59,-499.5 1815.59,-450.5 1719.59,-450.5"/>
<text text-anchor="middle" x="1732.47" y="-482.2" font-family="Times,serif" font-size="14.00">A</text>
<polyline fill="none" stroke="black" points="1719.59,-475 1745.34,-475"/>
<text text-anchor="middle" x="1732.47" y="-457.7" font-family="Times,serif" font-size="14.00">B</text>
<polyline fill="none" stroke="black" points="1745.34,-450.5 1745.34,-499.5"/>
<text text-anchor="middle" x="1767.59" y="-478.2" font-family="Times,serif" font-size="14.00">$8</text>
<text text-anchor="middle" x="1767.59" y="-461.7" font-family="Times,serif" font-size="14.00">$mul</text>
<polyline fill="none" stroke="black" points="1789.84,-450.5 1789.84,-499.5"/>
<text text-anchor="middle" x="1802.72" y="-470.2" font-family="Times,serif" font-size="14.00">Y</text>
</g>
<!-- n14&#45;&gt;c28 -->
<g id="edge44" class="edge">
<title>n14:e&#45;&gt;c28:w</title>
<path fill="none" stroke="black" stroke-width="3" d="M1147.84,-402C1166.31,-402 1293.02,-429.64 1311.34,-432 1488.02,-454.8 1535.65,-462.43 1708.31,-462.74"/>
<polygon fill="black" stroke="black" stroke-width="3" points="1705.05,-466.24 1715.05,-462.75 1705.06,-459.24 1705.05,-466.24"/>
</g>
<!-- c31 -->
<g id="node25" class="node">
<title>c31</title>
<polygon fill="none" stroke="black" points="1183.84,-449.5 1183.84,-490.5 1275.34,-490.5 1275.34,-449.5 1183.84,-449.5"/>
<text text-anchor="middle" x="1196.72" y="-465.2" font-family="Times,serif" font-size="14.00">A</text>
<polyline fill="none" stroke="black" points="1209.59,-449.5 1209.59,-490.5"/>
<text text-anchor="middle" x="1229.59" y="-473.2" font-family="Times,serif" font-size="14.00">$6</text>
<text text-anchor="middle" x="1229.59" y="-456.7" font-family="Times,serif" font-size="14.00">$not</text>
<polyline fill="none" stroke="black" points="1249.59,-449.5 1249.59,-490.5"/>
<text text-anchor="middle" x="1262.47" y="-465.2" font-family="Times,serif" font-size="14.00">Y</text>
</g>
<!-- n14&#45;&gt;c31 -->
<g id="edge45" class="edge">
<title>n14:e&#45;&gt;c31:w</title>
<path fill="none" stroke="black" stroke-width="3" d="M1147.84,-402C1177.31,-402 1157.39,-452.4 1172.97,-466.58"/>
<polygon fill="black" stroke="black" stroke-width="3" points="1168.95,-468.92 1179.54,-468.8 1171.18,-462.28 1168.95,-468.92"/>
</g>
<!-- x14 -->
<g id="node37" class="node">
<title>x14</title>
<path fill="none" stroke="black" d="M1336.72,-373.5C1336.72,-373.5 1379.72,-373.5 1379.72,-373.5 1385.72,-373.5 1391.72,-379.5 1391.72,-385.5 1391.72,-385.5 1391.72,-410.5 1391.72,-410.5 1391.72,-416.5 1385.72,-422.5 1379.72,-422.5 1379.72,-422.5 1336.72,-422.5 1336.72,-422.5 1330.72,-422.5 1324.72,-416.5 1324.72,-410.5 1324.72,-410.5 1324.72,-385.5 1324.72,-385.5 1324.72,-379.5 1330.72,-373.5 1336.72,-373.5"/>
<text text-anchor="middle" x="1358.22" y="-405.2" font-family="Times,serif" font-size="14.00">0 &#45;&gt; 29:9</text>
<polyline fill="none" stroke="black" points="1324.72,-398 1391.72,-398"/>
<text text-anchor="middle" x="1358.22" y="-380.7" font-family="Times,serif" font-size="14.00">8:0 &#45; 8:0</text>
</g>
<!-- n14&#45;&gt;x14 -->
<g id="edge47" class="edge">
<title>n14:e&#45;&gt;x14:w</title>
<path fill="none" stroke="black" stroke-width="3" d="M1147.84,-402C1222.51,-402 1243.23,-387.3 1312.63,-385.86"/>
<polygon fill="black" stroke="black" stroke-width="3" points="1309.21,-389.4 1319.18,-385.8 1309.14,-382.4 1309.21,-389.4"/>
</g>
<!-- x19 -->
<g id="node42" class="node">
<title>x19</title>
<path fill="none" stroke="black" d="M1200.22,-318C1200.22,-318 1258.97,-318 1258.97,-318 1264.97,-318 1270.97,-324 1270.97,-330 1270.97,-330 1270.97,-342 1270.97,-342 1270.97,-348 1264.97,-354 1258.97,-354 1258.97,-354 1200.22,-354 1200.22,-354 1194.22,-354 1188.22,-348 1188.22,-342 1188.22,-342 1188.22,-330 1188.22,-330 1188.22,-324 1194.22,-318 1200.22,-318"/>
<text text-anchor="middle" x="1229.59" y="-331.2" font-family="Times,serif" font-size="14.00">22:12 &#45; 10:0</text>
</g>
<!-- n14&#45;&gt;x19 -->
<g id="edge48" class="edge">
<title>n14:e&#45;&gt;x19:w</title>
<path fill="none" stroke="black" stroke-width="3" d="M1147.84,-402C1177.38,-402 1159.68,-352.56 1176.67,-339.42"/>
<polygon fill="black" stroke="black" stroke-width="3" points="1174.3,-343.79 1182.87,-337.56 1172.28,-337.09 1174.3,-343.79"/>
</g>
<!-- n15 -->
<g id="node4" class="node">
<title>n15</title>
<polygon fill="none" stroke="black" points="1628.34,-519 1573.09,-501 1628.34,-483 1683.59,-501 1628.34,-519"/>
<text text-anchor="middle" x="1628.34" y="-495.95" font-family="Times,serif" font-size="14.00">temp_1</text>
</g>
<!-- n15&#45;&gt;c28 -->
<g id="edge50" class="edge">
<title>n15:e&#45;&gt;c28:w</title>
<path fill="none" stroke="black" stroke-width="3" d="M1683.59,-501C1696.04,-501 1700.36,-493.74 1708.36,-489.77"/>
<polygon fill="black" stroke="black" stroke-width="3" points="1706.17,-493.85 1715.16,-488.25 1704.64,-487.02 1706.17,-493.85"/>
</g>
<!-- n16 -->
<g id="node5" class="node">
<title>n16</title>
<polygon fill="none" stroke="black" points="2173.84,-416 2118.59,-398 2173.84,-380 2229.09,-398 2173.84,-416"/>
<text text-anchor="middle" x="2173.84" y="-392.95" font-family="Times,serif" font-size="14.00">temp_2</text>
</g>
<!-- c30 -->
<g id="node22" class="node">
<title>c30</title>
<polygon fill="none" stroke="black" points="3228.6,-71.5 3228.6,-120.5 3324.6,-120.5 3324.6,-71.5 3228.6,-71.5"/>
<text text-anchor="middle" x="3241.47" y="-103.2" font-family="Times,serif" font-size="14.00">A</text>
<polyline fill="none" stroke="black" points="3228.6,-96 3254.35,-96"/>
<text text-anchor="middle" x="3241.47" y="-78.7" font-family="Times,serif" font-size="14.00">B</text>
<polyline fill="none" stroke="black" points="3254.35,-71.5 3254.35,-120.5"/>
<text text-anchor="middle" x="3276.6" y="-99.2" font-family="Times,serif" font-size="14.00">$15</text>
<text text-anchor="middle" x="3276.6" y="-82.7" font-family="Times,serif" font-size="14.00">$mul</text>
<polyline fill="none" stroke="black" points="3298.85,-71.5 3298.85,-120.5"/>
<text text-anchor="middle" x="3311.72" y="-91.2" font-family="Times,serif" font-size="14.00">Y</text>
</g>
<!-- n16&#45;&gt;c30 -->
<g id="edge52" class="edge">
<title>n16:e&#45;&gt;c30:w</title>
<path fill="none" stroke="black" stroke-width="3" d="M2229.09,-398C2373.77,-398 2379.42,-296.91 2506.09,-227 2634.35,-156.22 2655.6,-82 2802.09,-82 2802.09,-82 2802.09,-82 3037.72,-82 3118.75,-82 3141.72,-83.6 3217.54,-83.74"/>
<polygon fill="black" stroke="black" stroke-width="3" points="3214.05,-87.24 3224.05,-83.75 3214.06,-80.24 3214.05,-87.24"/>
</g>
<!-- x13 -->
<g id="node35" class="node">
<title>x13</title>
<path fill="none" stroke="black" d="M2277.09,-680C2277.09,-680 2329.09,-680 2329.09,-680 2335.09,-680 2341.09,-686 2341.09,-692 2341.09,-692 2341.09,-704 2341.09,-704 2341.09,-710 2335.09,-716 2329.09,-716 2329.09,-716 2277.09,-716 2277.09,-716 2271.09,-716 2265.09,-710 2265.09,-704 2265.09,-704 2265.09,-692 2265.09,-692 2265.09,-686 2271.09,-680 2277.09,-680"/>
<text text-anchor="middle" x="2303.09" y="-693.2" font-family="Times,serif" font-size="14.00">15:0 &#45; 15:0</text>
</g>
<!-- n16&#45;&gt;x13 -->
<g id="edge53" class="edge">
<title>n16:e&#45;&gt;x13:w</title>
<path fill="none" stroke="black" stroke-width="3" d="M2229.09,-398C2359.43,-398 2144.45,-680.35 2253.88,-697.44"/>
<polygon fill="black" stroke="black" stroke-width="3" points="2250.34,-700.7 2260.57,-697.92 2250.84,-693.71 2250.34,-700.7"/>
</g>
<!-- n17 -->
<g id="node6" class="node">
<title>n17</title>
<polygon fill="none" stroke="black" points="2803.09,-249 2747.84,-231 2803.09,-213 2858.35,-231 2803.09,-249"/>
<text text-anchor="middle" x="2803.09" y="-225.95" font-family="Times,serif" font-size="14.00">temp_3</text>
</g>
<!-- x4 -->
<g id="node17" class="node">
<title>x4</title>
<path fill="none" stroke="black" d="M2906.35,-149C2906.35,-149 2944.85,-149 2944.85,-149 2950.85,-149 2956.85,-155 2956.85,-161 2956.85,-161 2956.85,-173 2956.85,-173 2956.85,-179 2950.85,-185 2944.85,-185 2944.85,-185 2906.35,-185 2906.35,-185 2900.35,-185 2894.35,-179 2894.35,-173 2894.35,-173 2894.35,-161 2894.35,-161 2894.35,-155 2900.35,-149 2906.35,-149"/>
<text text-anchor="middle" x="2925.6" y="-162.2" font-family="Times,serif" font-size="14.00">3:0 &#45; 3:0</text>
</g>
<!-- n17&#45;&gt;x4 -->
<g id="edge56" class="edge">
<title>n17:e&#45;&gt;x4:w</title>
<path fill="none" stroke="black" stroke-width="3" d="M2858.35,-231C2886.05,-231 2869.08,-184.77 2883.52,-171.05"/>
<polygon fill="black" stroke="black" stroke-width="3" points="2881.78,-175.37 2890.06,-168.75 2879.47,-168.76 2881.78,-175.37"/>
</g>
<!-- x6 -->
<g id="node23" class="node">
<title>x6</title>
<path fill="none" stroke="black" d="M3128.6,-159.25C3128.6,-159.25 3180.6,-159.25 3180.6,-159.25 3186.6,-159.25 3192.6,-165.25 3192.6,-171.25 3192.6,-171.25 3192.6,-220.75 3192.6,-220.75 3192.6,-226.75 3186.6,-232.75 3180.6,-232.75 3180.6,-232.75 3128.6,-232.75 3128.6,-232.75 3122.6,-232.75 3116.6,-226.75 3116.6,-220.75 3116.6,-220.75 3116.6,-171.25 3116.6,-171.25 3116.6,-165.25 3122.6,-159.25 3128.6,-159.25"/>
<text text-anchor="middle" x="3154.6" y="-215.45" font-family="Times,serif" font-size="14.00">15:9 &#45; 15:9</text>
<polyline fill="none" stroke="black" points="3116.6,-208.25 3192.6,-208.25"/>
<text text-anchor="middle" x="3154.6" y="-190.95" font-family="Times,serif" font-size="14.00">8:4 &#45; 8:4</text>
<polyline fill="none" stroke="black" points="3116.6,-183.75 3192.6,-183.75"/>
<text text-anchor="middle" x="3154.6" y="-166.45" font-family="Times,serif" font-size="14.00">3:0 &#45; 3:0</text>
</g>
<!-- n17&#45;&gt;x6 -->
<g id="edge57" class="edge">
<title>n17:e&#45;&gt;x6:w</title>
<path fill="none" stroke="black" stroke-width="3" d="M2858.35,-231C2970.33,-231 2998.9,-198.29 3105.35,-196.11"/>
<polygon fill="black" stroke="black" stroke-width="3" points="3102.09,-199.65 3112.05,-196.05 3102.02,-192.65 3102.09,-199.65"/>
</g>
<!-- x16 -->
<g id="node39" class="node">
<title>x16</title>
<path fill="none" stroke="black" d="M2906.35,-243C2906.35,-243 2944.85,-243 2944.85,-243 2950.85,-243 2956.85,-249 2956.85,-255 2956.85,-255 2956.85,-267 2956.85,-267 2956.85,-273 2950.85,-279 2944.85,-279 2944.85,-279 2906.35,-279 2906.35,-279 2900.35,-279 2894.35,-273 2894.35,-267 2894.35,-267 2894.35,-255 2894.35,-255 2894.35,-249 2900.35,-243 2906.35,-243"/>
<text text-anchor="middle" x="2925.6" y="-256.2" font-family="Times,serif" font-size="14.00">8:0 &#45; 8:0</text>
</g>
<!-- n17&#45;&gt;x16 -->
<g id="edge55" class="edge">
<title>n17:e&#45;&gt;x16:w</title>
<path fill="none" stroke="black" stroke-width="3" d="M2858.35,-231C2874.45,-231 2874.72,-248.95 2883.65,-257.08"/>
<polygon fill="black" stroke="black" stroke-width="3" points="2879.49,-259.28 2890.08,-259.44 2881.9,-252.71 2879.49,-259.28"/>
</g>
<!-- n18 -->
<g id="node7" class="node">
<title>n18</title>
<polygon fill="none" stroke="black" points="3736.6,-84 3681.35,-66 3736.6,-48 3791.85,-66 3736.6,-84"/>
<text text-anchor="middle" x="3736.6" y="-60.95" font-family="Times,serif" font-size="14.00">temp_4</text>
</g>
<!-- x21 -->
<g id="node44" class="node">
<title>x21</title>
<path fill="none" stroke="black" d="M3839.85,-53.5C3839.85,-53.5 3882.85,-53.5 3882.85,-53.5 3888.85,-53.5 3894.85,-59.5 3894.85,-65.5 3894.85,-65.5 3894.85,-90.5 3894.85,-90.5 3894.85,-96.5 3888.85,-102.5 3882.85,-102.5 3882.85,-102.5 3839.85,-102.5 3839.85,-102.5 3833.85,-102.5 3827.85,-96.5 3827.85,-90.5 3827.85,-90.5 3827.85,-65.5 3827.85,-65.5 3827.85,-59.5 3833.85,-53.5 3839.85,-53.5"/>
<text text-anchor="middle" x="3861.35" y="-85.2" font-family="Times,serif" font-size="14.00">0 &#45;&gt; 16:4</text>
<polyline fill="none" stroke="black" points="3827.85,-78 3894.85,-78"/>
<text text-anchor="middle" x="3861.35" y="-60.7" font-family="Times,serif" font-size="14.00">3:0 &#45; 3:0</text>
</g>
<!-- n18&#45;&gt;x21 -->
<g id="edge59" class="edge">
<title>n18:e&#45;&gt;x21:w</title>
<path fill="none" stroke="black" stroke-width="3" d="M3791.85,-66C3803.22,-66 3808.53,-65.87 3816.4,-65.8"/>
<polygon fill="black" stroke="black" stroke-width="3" points="3813.32,-69.31 3823.31,-65.77 3813.29,-62.31 3813.32,-69.31"/>
</g>
<!-- c27 -->
<g id="node19" class="node">
<title>c27</title>
<polygon fill="none" stroke="black" points="1441.09,-479.5 1441.09,-528.5 1537.09,-528.5 1537.09,-479.5 1441.09,-479.5"/>
<text text-anchor="middle" x="1453.97" y="-511.2" font-family="Times,serif" font-size="14.00">A</text>
<polyline fill="none" stroke="black" points="1441.09,-504 1466.84,-504"/>
<text text-anchor="middle" x="1453.97" y="-486.7" font-family="Times,serif" font-size="14.00">B</text>
<polyline fill="none" stroke="black" points="1466.84,-479.5 1466.84,-528.5"/>
<text text-anchor="middle" x="1489.09" y="-507.2" font-family="Times,serif" font-size="14.00">$7</text>
<text text-anchor="middle" x="1489.09" y="-490.7" font-family="Times,serif" font-size="14.00">$mul</text>
<polyline fill="none" stroke="black" points="1511.34,-479.5 1511.34,-528.5"/>
<text text-anchor="middle" x="1524.22" y="-499.2" font-family="Times,serif" font-size="14.00">Y</text>
</g>
<!-- c22&#45;&gt;c27 -->
<g id="edge19" class="edge">
<title>c22:e&#45;&gt;c27:w</title>
<path fill="none" stroke="black" stroke-width="3" d="M1405.09,-542.25C1420.2,-542.25 1421.71,-527.01 1430.44,-519.87"/>
<polygon fill="black" stroke="black" stroke-width="3" points="1428.45,-524.24 1436.79,-517.71 1426.2,-517.61 1428.45,-524.24"/>
</g>
<!-- x0&#45;&gt;c22 -->
<g id="edge1" class="edge">
<title>x0:e&#45;&gt;c22:w</title>
<path fill="none" stroke="black" stroke-width="3" d="M1281.57,-528.32C1287.62,-528.64 1292.34,-529.12 1298.4,-529.43"/>
<polygon fill="none" stroke="black" stroke-width="3" points="1283.29,-528.36 1277.19,-532.21 1271.3,-528.07 1277.39,-524.22 1283.29,-528.36"/>
<polygon fill="none" stroke="black" stroke-width="3" points="1296.64,-529.39 1302.74,-525.54 1308.64,-529.68 1302.54,-533.53 1296.64,-529.39"/>
</g>
<!-- x1 -->
<g id="node11" class="node">
<title>x1</title>
<path fill="none" stroke="black" d="M2647.84,-236.5C2647.84,-236.5 2699.84,-236.5 2699.84,-236.5 2705.84,-236.5 2711.84,-242.5 2711.84,-248.5 2711.84,-248.5 2711.84,-273.5 2711.84,-273.5 2711.84,-279.5 2705.84,-285.5 2699.84,-285.5 2699.84,-285.5 2647.84,-285.5 2647.84,-285.5 2641.84,-285.5 2635.84,-279.5 2635.84,-273.5 2635.84,-273.5 2635.84,-248.5 2635.84,-248.5 2635.84,-242.5 2641.84,-236.5 2647.84,-236.5"/>
<text text-anchor="middle" x="2673.84" y="-268.2" font-family="Times,serif" font-size="14.00">15:9 &#45; 15:9</text>
<polyline fill="none" stroke="black" points="2635.84,-261 2711.84,-261"/>
<text text-anchor="middle" x="2673.84" y="-243.7" font-family="Times,serif" font-size="14.00">8:0 &#45; 8:0</text>
</g>
<!-- c23&#45;&gt;x1 -->
<g id="edge2" class="edge">
<title>c23:e&#45;&gt;x1:w</title>
<path fill="none" stroke="black" stroke-width="3" d="M2612.57,-261.19C2616.16,-261.15 2619.3,-261.1 2622.87,-261.07"/>
<polygon fill="none" stroke="black" stroke-width="3" points="2614.55,-261.18 2608.57,-265.21 2602.55,-261.24 2608.53,-257.21 2614.55,-261.18"/>
<polygon fill="none" stroke="black" stroke-width="3" points="2621.14,-261.07 2627.12,-257.04 2633.14,-261.01 2627.16,-265.04 2621.14,-261.07"/>
</g>
<!-- x1&#45;&gt;n17 -->
<g id="edge54" class="edge">
<title>x1:e&#45;&gt;n17:w</title>
<path fill="none" stroke="black" stroke-width="3" d="M2711.84,-248.75C2725.08,-248.75 2728.67,-238.97 2736.94,-233.93"/>
<polygon fill="black" stroke="black" stroke-width="3" points="2734.71,-238.15 2743.46,-232.18 2732.89,-231.39 2734.71,-238.15"/>
</g>
<!-- n2 -->
<g id="node47" class="node">
<title>n2</title>
<ellipse fill="black" stroke="black" cx="3036.72" cy="-261" rx="1.8" ry="1.8"/>
</g>
<!-- x1&#45;&gt;n2 -->
<g id="edge61" class="edge">
<title>x1:e&#45;&gt;n2:w</title>
<path fill="none" stroke="black" stroke-width="3" d="M2711.84,-273.25C2820.96,-273.25 2849.4,-308.02 2956.85,-289 2988.49,-283.4 2995.74,-265.71 3022.25,-261.78"/>
<polygon fill="black" stroke="black" stroke-width="3" points="3019.18,-265.5 3028.91,-261.32 3018.69,-258.52 3019.18,-265.5"/>
</g>
<!-- c24&#45;&gt;c33 -->
<g id="edge63" class="edge">
<title>c24:e&#45;&gt;c33:w</title>
<path fill="none" stroke="black" stroke-width="3" d="M237.59,-360.25C249.95,-360.25 254.37,-353.39 262.39,-349.63"/>
<polygon fill="black" stroke="black" stroke-width="3" points="260.1,-353.7 269.15,-348.2 258.64,-346.86 260.1,-353.7"/>
</g>
<!-- x3 -->
<g id="node15" class="node">
<title>x3</title>
<path fill="none" stroke="black" d="M1873.59,-260C1873.59,-260 1925.59,-260 1925.59,-260 1931.59,-260 1937.59,-266 1937.59,-272 1937.59,-272 1937.59,-284 1937.59,-284 1937.59,-290 1931.59,-296 1925.59,-296 1925.59,-296 1873.59,-296 1873.59,-296 1867.59,-296 1861.59,-290 1861.59,-284 1861.59,-284 1861.59,-272 1861.59,-272 1861.59,-266 1867.59,-260 1873.59,-260"/>
<text text-anchor="middle" x="1899.59" y="-273.2" font-family="Times,serif" font-size="14.00">11:0 &#45; 11:0</text>
</g>
<!-- c25&#45;&gt;x3 -->
<g id="edge4" class="edge">
<title>c25:e&#45;&gt;x3:w</title>
<path fill="none" stroke="black" stroke-width="3" d="M1827,-251.66C1835.77,-257.34 1839.41,-268.67 1848.1,-274.44"/>
<polygon fill="none" stroke="black" stroke-width="3" points="1828.89,-252.19 1822.03,-254.44 1817.32,-248.97 1824.18,-246.73 1828.89,-252.19"/>
<polygon fill="none" stroke="black" stroke-width="3" points="1846.45,-273.97 1853.32,-271.77 1857.99,-277.26 1851.13,-279.46 1846.45,-273.97"/>
</g>
<!-- x2 -->
<g id="node14" class="node">
<title>x2</title>
<path fill="none" stroke="black" d="M1602.34,-242C1602.34,-242 1654.34,-242 1654.34,-242 1660.34,-242 1666.34,-248 1666.34,-254 1666.34,-254 1666.34,-266 1666.34,-266 1666.34,-272 1660.34,-278 1654.34,-278 1654.34,-278 1602.34,-278 1602.34,-278 1596.34,-278 1590.34,-272 1590.34,-266 1590.34,-266 1590.34,-254 1590.34,-254 1590.34,-248 1596.34,-242 1602.34,-242"/>
<text text-anchor="middle" x="1628.34" y="-255.2" font-family="Times,serif" font-size="14.00">11:0 &#45; 11:0</text>
</g>
<!-- x2&#45;&gt;c25 -->
<g id="edge3" class="edge">
<title>x2:e&#45;&gt;c25:w</title>
<path fill="none" stroke="black" stroke-width="3" d="M1680.25,-260.03C1690.52,-260.08 1697.35,-260.17 1707.63,-260.22"/>
<polygon fill="none" stroke="black" stroke-width="3" points="1682.05,-260.03 1676.04,-264.02 1670.05,-260.01 1676.06,-256.02 1682.05,-260.03"/>
<polygon fill="none" stroke="black" stroke-width="3" points="1705.76,-260.22 1711.77,-256.23 1717.76,-260.24 1711.75,-264.23 1705.76,-260.22"/>
</g>
<!-- x3&#45;&gt;n14 -->
<g id="edge42" class="edge">
<title>x3:e&#45;&gt;n14:w</title>
<path fill="none" stroke="black" stroke-width="3" d="M1938.59,-278.25C1946.72,-278.25 1943.45,-290.87 1937.59,-296.5 1816.9,-412.68 1318.52,-209.38 1183.84,-309 1142.15,-339.84 1189.79,-389.5 1147.84,-420 1107.62,-449.24 1072.09,-454.17 1035.96,-420 1033.96,-418.11 1032.27,-415.39 1031.24,-412.64"/>
<polygon fill="black" stroke="black" stroke-width="3" points="1033.47,-416.88 1033.46,-406.29 1026.86,-414.57 1033.47,-416.88"/>
</g>
<!-- c26 -->
<g id="node16" class="node">
<title>c26</title>
<polygon fill="none" stroke="black" points="2992.85,-130.5 2992.85,-179.5 3080.6,-179.5 3080.6,-130.5 2992.85,-130.5"/>
<text text-anchor="middle" x="3005.72" y="-162.2" font-family="Times,serif" font-size="14.00">A</text>
<polyline fill="none" stroke="black" points="2992.85,-155 3018.6,-155"/>
<text text-anchor="middle" x="3005.72" y="-137.7" font-family="Times,serif" font-size="14.00">B</text>
<polyline fill="none" stroke="black" points="3018.6,-130.5 3018.6,-179.5"/>
<text text-anchor="middle" x="3036.72" y="-158.2" font-family="Times,serif" font-size="14.00">$46</text>
<text text-anchor="middle" x="3036.72" y="-141.7" font-family="Times,serif" font-size="14.00">$or</text>
<polyline fill="none" stroke="black" points="3054.85,-130.5 3054.85,-179.5"/>
<text text-anchor="middle" x="3067.72" y="-150.2" font-family="Times,serif" font-size="14.00">Y</text>
</g>
<!-- c26&#45;&gt;x6 -->
<g id="edge64" class="edge">
<title>c26:e&#45;&gt;x6:w</title>
<path fill="none" stroke="black" stroke-width="3" d="M3080.6,-155.25C3093.49,-155.25 3097.39,-164.01 3105.51,-168.67"/>
<polygon fill="black" stroke="black" stroke-width="3" points="3101.64,-171.29 3112.2,-170.38 3103.37,-164.51 3101.64,-171.29"/>
</g>
<!-- x4&#45;&gt;c26 -->
<g id="edge5" class="edge">
<title>x4:e&#45;&gt;c26:w</title>
<path fill="none" stroke="black" stroke-width="3" d="M2969.57,-167.06C2973.16,-167.1 2976.3,-167.15 2979.87,-167.18"/>
<polygon fill="none" stroke="black" stroke-width="3" points="2971.55,-167.07 2965.53,-171.04 2959.55,-167.01 2965.57,-163.04 2971.55,-167.07"/>
<polygon fill="none" stroke="black" stroke-width="3" points="2978.14,-167.18 2984.16,-163.21 2990.14,-167.24 2984.12,-171.21 2978.14,-167.18"/>
</g>
<!-- x5&#45;&gt;c26 -->
<g id="edge6" class="edge">
<title>x5:e&#45;&gt;c26:w</title>
<path fill="none" stroke="black" stroke-width="3" d="M368.66,-90.06C449.74,-90.86 474.55,-99 561.72,-99 561.72,-99 561.72,-99 2304.09,-99 2594.78,-99 2666.86,-119.82 2956.85,-140 2967.6,-140.75 2972.91,-141.73 2980.1,-142.3"/>
<polygon fill="none" stroke="black" stroke-width="3" points="370.42,-90.07 364.4,-94.04 358.42,-90.01 364.44,-86.04 370.42,-90.07"/>
<polygon fill="none" stroke="black" stroke-width="3" points="2978.15,-142.23 2984.29,-138.44 2990.14,-142.65 2984,-146.44 2978.15,-142.23"/>
</g>
<!-- c27&#45;&gt;n15 -->
<g id="edge49" class="edge">
<title>c27:e&#45;&gt;n15:w</title>
<path fill="none" stroke="black" stroke-width="3" d="M1537.09,-504.25C1548.51,-504.25 1553.77,-502.61 1561.63,-501.66"/>
<polygon fill="black" stroke="black" stroke-width="3" points="1558.78,-505.33 1568.56,-501.26 1558.37,-498.34 1558.78,-505.33"/>
</g>
<!-- c28&#45;&gt;c29 -->
<g id="edge65" class="edge">
<title>c28:e&#45;&gt;c29:w</title>
<path fill="none" stroke="black" stroke-width="3" d="M1815.59,-475.25C1826.97,-475.25 1832.28,-475.25 1840.15,-475.25"/>
<polygon fill="black" stroke="black" stroke-width="3" points="1837.05,-478.75 1847.05,-475.25 1837.05,-471.75 1837.05,-478.75"/>
</g>
<!-- c37 -->
<g id="node36" class="node">
<title>c37</title>
<polygon fill="none" stroke="black" points="1983.59,-361.25 1983.59,-434.75 2082.59,-434.75 2082.59,-361.25 1983.59,-361.25"/>
<text text-anchor="middle" x="1996.47" y="-417.45" font-family="Times,serif" font-size="14.00">A</text>
<polyline fill="none" stroke="black" points="1983.59,-410.25 2009.34,-410.25"/>
<text text-anchor="middle" x="1996.47" y="-392.95" font-family="Times,serif" font-size="14.00">B</text>
<polyline fill="none" stroke="black" points="1983.59,-385.75 2009.34,-385.75"/>
<text text-anchor="middle" x="1996.47" y="-368.45" font-family="Times,serif" font-size="14.00">S</text>
<polyline fill="none" stroke="black" points="2009.34,-361.25 2009.34,-434.75"/>
<text text-anchor="middle" x="2033.09" y="-401.2" font-family="Times,serif" font-size="14.00">$11</text>
<text text-anchor="middle" x="2033.09" y="-384.7" font-family="Times,serif" font-size="14.00">$mux</text>
<polyline fill="none" stroke="black" points="2056.84,-361.25 2056.84,-434.75"/>
<text text-anchor="middle" x="2069.72" y="-392.95" font-family="Times,serif" font-size="14.00">Y</text>
</g>
<!-- c29&#45;&gt;c37 -->
<g id="edge68" class="edge">
<title>c29:e&#45;&gt;c37:w</title>
<path fill="none" stroke="black" stroke-width="3" d="M1947.59,-463.25C1967.04,-463.25 1962.85,-436.86 1973.07,-426.56"/>
<polygon fill="black" stroke="black" stroke-width="3" points="1971.28,-430.99 1979.36,-424.13 1968.77,-424.46 1971.28,-430.99"/>
</g>
<!-- x7 -->
<g id="node24" class="node">
<title>x7</title>
<path fill="none" stroke="black" d="M3372.6,-76C3372.6,-76 3411.1,-76 3411.1,-76 3417.1,-76 3423.1,-82 3423.1,-88 3423.1,-88 3423.1,-100 3423.1,-100 3423.1,-106 3417.1,-112 3411.1,-112 3411.1,-112 3372.6,-112 3372.6,-112 3366.6,-112 3360.6,-106 3360.6,-100 3360.6,-100 3360.6,-88 3360.6,-88 3360.6,-82 3366.6,-76 3372.6,-76"/>
<text text-anchor="middle" x="3391.85" y="-89.2" font-family="Times,serif" font-size="14.00">3:0 &#45; 3:0</text>
</g>
<!-- c30&#45;&gt;x7 -->
<g id="edge8" class="edge">
<title>c30:e&#45;&gt;x7:w</title>
<path fill="none" stroke="black" stroke-width="3" d="M3337.32,-95.68C3340.92,-95.35 3344.04,-94.93 3347.62,-94.59"/>
<polygon fill="none" stroke="black" stroke-width="3" points="3339.28,-95.59 3333.47,-99.86 3327.3,-96.13 3333.11,-91.87 3339.28,-95.59"/>
<polygon fill="none" stroke="black" stroke-width="3" points="3345.91,-94.67 3351.72,-90.4 3357.89,-94.12 3352.08,-98.39 3345.91,-94.67"/>
</g>
<!-- x6&#45;&gt;c30 -->
<g id="edge7" class="edge">
<title>x6:e&#45;&gt;c30:w</title>
<path fill="none" stroke="black" stroke-width="3" d="M3204.52,-192.23C3221.18,-177.93 3200.18,-127.08 3216.35,-112.31"/>
<polygon fill="none" stroke="black" stroke-width="3" points="3206.61,-191.57 3202.1,-197.19 3195.17,-195.18 3199.69,-189.56 3206.61,-191.57"/>
<polygon fill="none" stroke="black" stroke-width="3" points="3214.64,-112.87 3219.07,-107.19 3226.03,-109.1 3221.59,-114.78 3214.64,-112.87"/>
</g>
<!-- x8 -->
<g id="node27" class="node">
<title>x8</title>
<path fill="none" stroke="black" d="M3471.1,-75C3471.1,-75 3509.6,-75 3509.6,-75 3515.6,-75 3521.6,-81 3521.6,-87 3521.6,-87 3521.6,-99 3521.6,-99 3521.6,-105 3515.6,-111 3509.6,-111 3509.6,-111 3471.1,-111 3471.1,-111 3465.1,-111 3459.1,-105 3459.1,-99 3459.1,-99 3459.1,-87 3459.1,-87 3459.1,-81 3465.1,-75 3471.1,-75"/>
<text text-anchor="middle" x="3490.35" y="-88.2" font-family="Times,serif" font-size="14.00">3:0 &#45; 3:0</text>
</g>
<!-- x7&#45;&gt;x8 -->
<g id="edge66" class="edge">
<title>x7:e&#45;&gt;x8:w</title>
<path fill="none" stroke="black" stroke-width="3" d="M3423.1,-94.25C3434.47,-94.25 3439.78,-93.74 3447.65,-93.45"/>
<polygon fill="black" stroke="black" stroke-width="3" points="3444.62,-97.01 3454.56,-93.33 3444.49,-90.01 3444.62,-97.01"/>
</g>
<!-- c31&#45;&gt;c27 -->
<g id="edge69" class="edge">
<title>c31:e&#45;&gt;c27:w</title>
<path fill="none" stroke="black" stroke-width="3" d="M1275.34,-470.25C1345.71,-470.25 1364.84,-489.54 1429.8,-491.58"/>
<polygon fill="black" stroke="black" stroke-width="3" points="1426.5,-495.03 1436.55,-491.68 1426.61,-488.03 1426.5,-495.03"/>
</g>
<!-- c32 -->
<g id="node26" class="node">
<title>c32</title>
<polygon fill="none" stroke="black" points="3557.6,-41.5 3557.6,-90.5 3645.35,-90.5 3645.35,-41.5 3557.6,-41.5"/>
<text text-anchor="middle" x="3570.47" y="-73.2" font-family="Times,serif" font-size="14.00">A</text>
<polyline fill="none" stroke="black" points="3557.6,-66 3583.35,-66"/>
<text text-anchor="middle" x="3570.47" y="-48.7" font-family="Times,serif" font-size="14.00">B</text>
<polyline fill="none" stroke="black" points="3583.35,-41.5 3583.35,-90.5"/>
<text text-anchor="middle" x="3601.47" y="-69.2" font-family="Times,serif" font-size="14.00">$16</text>
<text text-anchor="middle" x="3601.47" y="-52.7" font-family="Times,serif" font-size="14.00">$or</text>
<polyline fill="none" stroke="black" points="3619.6,-41.5 3619.6,-90.5"/>
<text text-anchor="middle" x="3632.47" y="-61.2" font-family="Times,serif" font-size="14.00">Y</text>
</g>
<!-- c32&#45;&gt;n18 -->
<g id="edge58" class="edge">
<title>c32:e&#45;&gt;n18:w</title>
<path fill="none" stroke="black" stroke-width="3" d="M3645.35,-66.25C3656.72,-66.25 3662.03,-66.12 3669.9,-66.05"/>
<polygon fill="black" stroke="black" stroke-width="3" points="3666.82,-69.56 3676.8,-66.02 3666.79,-62.56 3666.82,-69.56"/>
</g>
<!-- x8&#45;&gt;c32 -->
<g id="edge9" class="edge">
<title>x8:e&#45;&gt;c32:w</title>
<path fill="none" stroke="black" stroke-width="3" d="M3534.12,-89.58C3538.06,-87.2 3541.16,-84.03 3545.1,-81.65"/>
<polygon fill="none" stroke="black" stroke-width="3" points="3535.78,-89.13 3531.05,-94.57 3524.2,-92.29 3528.94,-86.85 3535.78,-89.13"/>
<polygon fill="none" stroke="black" stroke-width="3" points="3543.41,-82.11 3548.15,-76.68 3554.99,-78.96 3550.25,-84.4 3543.41,-82.11"/>
</g>
<!-- x9&#45;&gt;c32 -->
<g id="edge10" class="edge">
<title>x9:e&#45;&gt;c32:w</title>
<path fill="none" stroke="black" stroke-width="3" d="M610.16,-43C702.36,-43 730.09,-43 828.34,-43 828.34,-43 828.34,-43 3392.85,-43 3461.78,-43 3481.84,-52.49 3544.85,-53.64"/>
<polygon fill="none" stroke="black" stroke-width="3" points="612.05,-43 606.05,-47 600.05,-43 606.05,-39 612.05,-43"/>
<polygon fill="none" stroke="black" stroke-width="3" points="3542.89,-53.62 3548.93,-49.67 3554.89,-53.73 3548.86,-57.67 3542.89,-53.62"/>
</g>
<!-- x10 -->
<g id="node30" class="node">
<title>x10</title>
<path fill="none" stroke="black" d="M414.59,-310.5C414.59,-310.5 480.09,-310.5 480.09,-310.5 486.09,-310.5 492.09,-316.5 492.09,-322.5 492.09,-322.5 492.09,-347.5 492.09,-347.5 492.09,-353.5 486.09,-359.5 480.09,-359.5 480.09,-359.5 414.59,-359.5 414.59,-359.5 408.59,-359.5 402.59,-353.5 402.59,-347.5 402.59,-347.5 402.59,-322.5 402.59,-322.5 402.59,-316.5 408.59,-310.5 414.59,-310.5"/>
<text text-anchor="middle" x="447.34" y="-342.2" font-family="Times,serif" font-size="14.00">12:12 &#45; 22:22</text>
<polyline fill="none" stroke="black" points="402.59,-335 492.09,-335"/>
<text text-anchor="middle" x="447.34" y="-317.7" font-family="Times,serif" font-size="14.00">11:0 &#45; 11:0</text>
</g>
<!-- c33&#45;&gt;x10 -->
<g id="edge11" class="edge">
<title>c33:e&#45;&gt;x10:w</title>
<path fill="none" stroke="black" stroke-width="3" d="M379.31,-335.19C382.91,-335.15 386.04,-335.1 389.62,-335.07"/>
<polygon fill="none" stroke="black" stroke-width="3" points="381.29,-335.18 375.31,-339.21 369.3,-335.24 375.28,-331.21 381.29,-335.18"/>
<polygon fill="none" stroke="black" stroke-width="3" points="387.89,-335.07 393.87,-331.04 399.89,-335.01 393.91,-339.04 387.89,-335.07"/>
</g>
<!-- n10 -->
<g id="node45" class="node">
<title>n10</title>
<ellipse fill="black" stroke="black" cx="562.72" cy="-341" rx="1.8" ry="1.8"/>
</g>
<!-- x10&#45;&gt;n10 -->
<g id="edge20" class="edge">
<title>x10:e&#45;&gt;n10:w</title>
<path fill="none" stroke="black" stroke-width="3" d="M492.09,-322.75C518.86,-322.75 526.49,-336.35 548.03,-340.07"/>
<polygon fill="black" stroke="black" stroke-width="3" points="544.66,-343.31 554.91,-340.63 545.23,-336.33 544.66,-343.31"/>
</g>
<!-- x10&#45;&gt;n10 -->
<g id="edge21" class="edge">
<title>x10:e&#45;&gt;n10:w</title>
<path fill="none" stroke="black" d="M492.09,-347.25C517.92,-347.25 526.89,-342.63 547.98,-341.34"/>
<polygon fill="black" stroke="black" points="548.03,-344.84 557.92,-341.04 547.83,-337.84 548.03,-344.84"/>
</g>
<!-- x12 -->
<g id="node33" class="node">
<title>x12</title>
<path fill="none" stroke="black" d="M923.84,-270.5C923.84,-270.5 989.34,-270.5 989.34,-270.5 995.34,-270.5 1001.34,-276.5 1001.34,-282.5 1001.34,-282.5 1001.34,-307.5 1001.34,-307.5 1001.34,-313.5 995.34,-319.5 989.34,-319.5 989.34,-319.5 923.84,-319.5 923.84,-319.5 917.84,-319.5 911.84,-313.5 911.84,-307.5 911.84,-307.5 911.84,-282.5 911.84,-282.5 911.84,-276.5 917.84,-270.5 923.84,-270.5"/>
<text text-anchor="middle" x="956.59" y="-302.2" font-family="Times,serif" font-size="14.00">22:12 &#45; 22:12</text>
<polyline fill="none" stroke="black" points="911.84,-295 1001.34,-295"/>
<text text-anchor="middle" x="956.59" y="-277.7" font-family="Times,serif" font-size="14.00">11:0 &#45; 11:0</text>
</g>
<!-- c34&#45;&gt;x12 -->
<g id="edge13" class="edge">
<title>c34:e&#45;&gt;x12:w</title>
<path fill="none" stroke="black" stroke-width="3" d="M888.56,-295.19C892.16,-295.15 895.29,-295.1 898.87,-295.07"/>
<polygon fill="none" stroke="black" stroke-width="3" points="890.54,-295.18 884.56,-299.21 878.55,-295.24 884.53,-291.21 890.54,-295.18"/>
<polygon fill="none" stroke="black" stroke-width="3" points="897.14,-295.07 903.12,-291.04 909.14,-295.01 903.16,-299.04 897.14,-295.07"/>
</g>
<!-- x11 -->
<g id="node32" class="node">
<title>x11</title>
<path fill="none" stroke="black" d="M645.34,-297.5C645.34,-297.5 734.84,-297.5 734.84,-297.5 740.84,-297.5 746.84,-303.5 746.84,-309.5 746.84,-309.5 746.84,-334.5 746.84,-334.5 746.84,-340.5 740.84,-346.5 734.84,-346.5 734.84,-346.5 645.34,-346.5 645.34,-346.5 639.34,-346.5 633.34,-340.5 633.34,-334.5 633.34,-334.5 633.34,-309.5 633.34,-309.5 633.34,-303.5 639.34,-297.5 645.34,-297.5"/>
<text text-anchor="middle" x="690.09" y="-329.2" font-family="Times,serif" font-size="14.00">11x 22:22 &#45; 22:12</text>
<polyline fill="none" stroke="black" points="633.34,-322 746.84,-322"/>
<text text-anchor="middle" x="690.09" y="-304.7" font-family="Times,serif" font-size="14.00">11:0 &#45; 11:0</text>
</g>
<!-- x11&#45;&gt;c34 -->
<g id="edge12" class="edge">
<title>x11:e&#45;&gt;c34:w</title>
<path fill="none" stroke="black" stroke-width="3" d="M759.37,-318.58C763.31,-316.2 766.4,-313.03 770.34,-310.65"/>
<polygon fill="none" stroke="black" stroke-width="3" points="761.03,-318.13 756.29,-323.57 749.45,-321.29 754.18,-315.85 761.03,-318.13"/>
<polygon fill="none" stroke="black" stroke-width="3" points="768.65,-311.11 773.39,-305.68 780.23,-307.96 775.49,-313.4 768.65,-311.11"/>
</g>
<!-- x12&#45;&gt;n14 -->
<g id="edge41" class="edge">
<title>x12:e&#45;&gt;n14:w</title>
<path fill="none" stroke="black" stroke-width="3" d="M1001.34,-307.25C1041.81,-307.25 1002.26,-383.73 1026.48,-399.27"/>
<polygon fill="black" stroke="black" stroke-width="3" points="1022.39,-401.85 1032.94,-400.89 1024.09,-395.06 1022.39,-401.85"/>
</g>
<!-- n11 -->
<g id="node46" class="node">
<title>n11</title>
<ellipse fill="black" stroke="black" cx="1489.09" cy="-260" rx="1.8" ry="1.8"/>
</g>
<!-- x12&#45;&gt;n11 -->
<g id="edge26" class="edge">
<title>x12:e&#45;&gt;n11:w</title>
<path fill="none" stroke="black" stroke-width="3" d="M1001.34,-282.75C1105.54,-282.75 1360.35,-261.49 1474.56,-260.07"/>
<polygon fill="black" stroke="black" stroke-width="3" points="1471.3,-263.6 1481.27,-260.03 1471.25,-256.6 1471.3,-263.6"/>
</g>
<!-- c35&#45;&gt;c23 -->
<g id="edge67" class="edge">
<title>c35:e&#45;&gt;c23:w</title>
<path fill="none" stroke="black" stroke-width="3" d="M2470.09,-663.25C2640.08,-663.25 2346.39,-291.32 2494.64,-273.88"/>
<polygon fill="black" stroke="black" stroke-width="3" points="2491.77,-277.55 2501.56,-273.5 2491.38,-270.56 2491.77,-277.55"/>
</g>
<!-- x13&#45;&gt;c35 -->
<g id="edge14" class="edge">
<title>x13:e&#45;&gt;c35:w</title>
<path fill="none" stroke="black" stroke-width="3" d="M2353.06,-693.61C2357.67,-689.59 2360.53,-683.65 2365.15,-679.62"/>
<polygon fill="none" stroke="black" stroke-width="3" points="2354.9,-692.94 2350.64,-698.76 2343.63,-697.07 2347.89,-691.25 2354.9,-692.94"/>
<polygon fill="none" stroke="black" stroke-width="3" points="2363.29,-680.3 2367.55,-674.49 2374.55,-676.18 2370.3,-682 2363.29,-680.3"/>
</g>
<!-- c37&#45;&gt;n16 -->
<g id="edge51" class="edge">
<title>c37:e&#45;&gt;n16:w</title>
<path fill="none" stroke="black" stroke-width="3" d="M2082.59,-398C2093.97,-398 2099.28,-398 2107.15,-398"/>
<polygon fill="black" stroke="black" stroke-width="3" points="2104.05,-401.5 2114.05,-398 2104.05,-394.5 2104.05,-401.5"/>
</g>
<!-- x14&#45;&gt;c37 -->
<g id="edge15" class="edge">
<title>x14:e&#45;&gt;c37:w</title>
<path fill="none" stroke="black" stroke-width="3" d="M1405.74,-398C1499.38,-398 1527.55,-398 1627.34,-398 1627.34,-398 1627.34,-398 1768.59,-398 1859.67,-398 1885.64,-398 1970.61,-398"/>
<polygon fill="none" stroke="black" stroke-width="3" points="1407.42,-398 1401.42,-402 1395.42,-398 1401.42,-394 1407.42,-398"/>
<polygon fill="none" stroke="black" stroke-width="3" points="1968.89,-398 1974.89,-394 1980.89,-398 1974.89,-402 1968.89,-398"/>
</g>
<!-- x15&#45;&gt;c37 -->
<g id="edge16" class="edge">
<title>x15:e&#45;&gt;c37:w</title>
<path fill="none" stroke="black" d="M492.5,-221.94C575.16,-221.16 600.35,-213 689.09,-213 689.09,-213 689.09,-213 1093.59,-213 1269.74,-213 1311.95,-175 1488.09,-175 1488.09,-175 1488.09,-175 1768.59,-175 1855.02,-175 1890.11,-186.45 1947.59,-251 1981.94,-289.57 1936.58,-359.41 1970.94,-371.65"/>
<polygon fill="none" stroke="black" points="492.49,-221.94 486.51,-225.97 480.49,-222 486.47,-217.97 492.49,-221.94"/>
<polygon fill="none" stroke="black" points="1970.83,-371.63 1977.34,-368.54 1982.7,-373.37 1976.18,-376.46 1970.83,-371.63"/>
</g>
<!-- x16&#45;&gt;n2 -->
<g id="edge60" class="edge">
<title>x16:e&#45;&gt;n2:w</title>
<path fill="none" stroke="black" stroke-width="3" d="M2956.85,-261.25C2986.77,-261.25 2996.96,-261.06 3022.11,-261.01"/>
<polygon fill="black" stroke="black" stroke-width="3" points="3018.9,-264.51 3028.9,-261 3018.9,-257.51 3018.9,-264.51"/>
</g>
<!-- x17 -->
<g id="node40" class="node">
<title>x17</title>
<path fill="none" stroke="black" d="M652.09,-366C652.09,-366 728.09,-366 728.09,-366 734.09,-366 740.09,-372 740.09,-378 740.09,-378 740.09,-390 740.09,-390 740.09,-396 734.09,-402 728.09,-402 728.09,-402 652.09,-402 652.09,-402 646.09,-402 640.09,-396 640.09,-390 640.09,-390 640.09,-378 640.09,-378 640.09,-372 646.09,-366 652.09,-366"/>
<text text-anchor="middle" x="690.09" y="-379.2" font-family="Times,serif" font-size="14.00">10x 22:22 &#45; 9:0</text>
</g>
<!-- x18 -->
<g id="node41" class="node">
<title>x18</title>
<path fill="none" stroke="black" d="M803.34,-389C803.34,-389 855.34,-389 855.34,-389 861.34,-389 867.34,-395 867.34,-401 867.34,-401 867.34,-413 867.34,-413 867.34,-419 861.34,-425 855.34,-425 855.34,-425 803.34,-425 803.34,-425 797.34,-425 791.34,-419 791.34,-413 791.34,-413 791.34,-401 791.34,-401 791.34,-395 797.34,-389 803.34,-389"/>
<text text-anchor="middle" x="829.34" y="-402.2" font-family="Times,serif" font-size="14.00">9:0 &#45; 21:12</text>
</g>
<!-- x17&#45;&gt;x18 -->
<g id="edge17" class="edge">
<title>x17:e&#45;&gt;x18:w</title>
<path fill="none" stroke="black" stroke-width="3" d="M753.71,-386.64C763.23,-391.08 768.24,-399.98 777.78,-404.39"/>
<polygon fill="none" stroke="black" stroke-width="3" points="755.48,-387.01 748.79,-389.7 743.74,-384.55 750.43,-381.87 755.48,-387.01"/>
<polygon fill="none" stroke="black" stroke-width="3" points="775.94,-404.01 782.63,-401.31 787.69,-406.45 781.01,-409.15 775.94,-404.01"/>
</g>
<!-- x18&#45;&gt;n10 -->
<g id="edge22" class="edge">
<title>x18:e&#45;&gt;n10:w</title>
<path fill="none" stroke="black" stroke-width="3" d="M868.34,-407.25C876.46,-407.25 873.24,-419.92 867.34,-425.5 842.81,-448.72 825.09,-426.94 791.34,-425.5 720.93,-422.5 697.63,-440.89 633.34,-412 596.66,-395.52 531.65,-352.8 548.25,-343.02"/>
<polygon fill="black" stroke="black" stroke-width="3" points="545.75,-347.03 554.97,-341.81 544.51,-340.14 545.75,-347.03"/>
</g>
<!-- x20 -->
<g id="node43" class="node">
<title>x20</title>
<path fill="none" stroke="black" d="M1328.84,-318C1328.84,-318 1387.59,-318 1387.59,-318 1393.59,-318 1399.59,-324 1399.59,-330 1399.59,-330 1399.59,-342 1399.59,-342 1399.59,-348 1393.59,-354 1387.59,-354 1387.59,-354 1328.84,-354 1328.84,-354 1322.84,-354 1316.84,-348 1316.84,-342 1316.84,-342 1316.84,-330 1316.84,-330 1316.84,-324 1322.84,-318 1328.84,-318"/>
<text text-anchor="middle" x="1358.22" y="-331.2" font-family="Times,serif" font-size="14.00">10:0 &#45; 22:12</text>
</g>
<!-- x19&#45;&gt;x20 -->
<g id="edge18" class="edge">
<title>x19:e&#45;&gt;x20:w</title>
<path fill="none" stroke="black" stroke-width="3" d="M1284.96,-336C1291.45,-336 1296.42,-336 1302.92,-336"/>
<polygon fill="none" stroke="black" stroke-width="3" points="1286.67,-336 1280.67,-340 1274.67,-336 1280.67,-332 1286.67,-336"/>
<polygon fill="none" stroke="black" stroke-width="3" points="1301.14,-336 1307.14,-332 1313.14,-336 1307.14,-340 1301.14,-336"/>
</g>
<!-- x20&#45;&gt;n11 -->
<g id="edge27" class="edge">
<title>x20:e&#45;&gt;n11:w</title>
<path fill="none" stroke="black" stroke-width="3" d="M1400.59,-336.25C1447.25,-336.25 1437.23,-272 1474.59,-261.46"/>
<polygon fill="black" stroke="black" stroke-width="3" points="1471.84,-265.34 1481.31,-260.58 1470.94,-258.4 1471.84,-265.34"/>
</g>
<!-- x21&#45;&gt;n13 -->
<g id="edge40" class="edge">
<title>x21:e&#45;&gt;n13:w</title>
<path fill="none" stroke="black" stroke-width="3" d="M3894.85,-78C3906.22,-78 3911.53,-78 3919.4,-78"/>
<polygon fill="black" stroke="black" stroke-width="3" points="3916.31,-81.5 3926.31,-78 3916.31,-74.5 3916.31,-81.5"/>
</g>
<!-- n10&#45;&gt;x11 -->
<g id="edge23" class="edge">
<title>n10:e&#45;&gt;x11:w</title>
<path fill="none" stroke="black" stroke-width="3" d="M565.99,-341C594.74,-341 599.47,-317.29 622.02,-311.17"/>
<polygon fill="black" stroke="black" stroke-width="3" points="619.35,-315.04 628.84,-310.32 618.48,-308.09 619.35,-315.04"/>
</g>
<!-- n10&#45;&gt;x11 -->
<g id="edge24" class="edge">
<title>n10:e&#45;&gt;x11:w</title>
<path fill="none" stroke="black" stroke-width="3" d="M565.99,-341C591.85,-341 600.79,-336.01 621.88,-334.61"/>
<polygon fill="black" stroke="black" stroke-width="3" points="618.92,-338.21 628.8,-334.39 618.7,-331.21 618.92,-338.21"/>
</g>
<!-- n10&#45;&gt;x17 -->
<g id="edge25" class="edge">
<title>n10:e&#45;&gt;x17:w</title>
<path fill="none" stroke="black" stroke-width="3" d="M565.99,-341C599.47,-341 601.37,-375.01 627.69,-382.71"/>
<polygon fill="black" stroke="black" stroke-width="3" points="624.21,-385.77 634.59,-383.64 625.15,-378.84 624.21,-385.77"/>
</g>
<!-- n11&#45;&gt;x2 -->
<g id="edge28" class="edge">
<title>n11:e&#45;&gt;x2:w</title>
<path fill="none" stroke="black" stroke-width="3" d="M1492.37,-260C1531.43,-260 1543.94,-260.21 1578.02,-260.24"/>
<polygon fill="black" stroke="black" stroke-width="3" points="1574.8,-263.74 1584.8,-260.25 1574.8,-256.74 1574.8,-263.74"/>
</g>
<!-- n2&#45;&gt;x6 -->
<g id="edge62" class="edge">
<title>n2:e&#45;&gt;x6:w</title>
<path fill="none" stroke="black" stroke-width="3" d="M3040,-261C3074.3,-261 3077.71,-228.87 3105.25,-221.85"/>
<polygon fill="black" stroke="black" stroke-width="3" points="3102.57,-225.69 3112.09,-221.04 3101.74,-218.74 3102.57,-225.69"/>
</g>
</g>
</svg>
