<?xml version="1.0" encoding="UTF-8" standalone="no"?>
<!DOCTYPE svg PUBLIC "-//W3C//DTD SVG 1.1//EN"
 "http://www.w3.org/Graphics/SVG/1.1/DTD/svg11.dtd">
<!-- Generated by graphviz version 12.2.1 (20241206.2353)
 -->
<!-- Title: top Pages: 1 -->
<svg width="1420pt" height="252pt"
 viewBox="0.00 0.00 1420.41 252.00" xmlns="http://www.w3.org/2000/svg" xmlns:xlink="http://www.w3.org/1999/xlink">
<g id="graph0" class="graph" transform="scale(1 1) rotate(0) translate(4 248)">
<title>top</title>
<polygon fill="white" stroke="none" points="-4,4 -4,-248 1416.41,-248 1416.41,4 -4,4"/>
<text text-anchor="middle" x="706.2" y="-7.2" font-family="Times,serif" font-size="14.00">top</text>
<!-- n3 -->
<g id="node1" class="node">
<title>n3</title>
<polygon fill="none" stroke="black" points="107.84,-139.54 107.84,-154.46 76.26,-165 31.59,-165 0,-154.46 0,-139.54 31.59,-129 76.26,-129 107.84,-139.54"/>
<text text-anchor="middle" x="53.92" y="-141.95" font-family="Times,serif" font-size="14.00">input_data</text>
</g>
<!-- c10 -->
<g id="node5" class="node">
<title>c10</title>
<polygon fill="none" stroke="black" points="143.84,-194.5 143.84,-243.5 237.59,-243.5 237.59,-194.5 143.84,-194.5"/>
<text text-anchor="middle" x="156.72" y="-226.2" font-family="Times,serif" font-size="14.00">A</text>
<polyline fill="none" stroke="black" points="143.84,-219 169.59,-219"/>
<text text-anchor="middle" x="156.72" y="-201.7" font-family="Times,serif" font-size="14.00">B</text>
<polyline fill="none" stroke="black" points="169.59,-194.5 169.59,-243.5"/>
<text text-anchor="middle" x="190.72" y="-222.2" font-family="Times,serif" font-size="14.00">$1</text>
<text text-anchor="middle" x="190.72" y="-205.7" font-family="Times,serif" font-size="14.00">$add</text>
<polyline fill="none" stroke="black" points="211.84,-194.5 211.84,-243.5"/>
<text text-anchor="middle" x="224.72" y="-214.2" font-family="Times,serif" font-size="14.00">Y</text>
</g>
<!-- n3&#45;&gt;c10 -->
<g id="edge7" class="edge">
<title>n3:e&#45;&gt;c10:w</title>
<path fill="none" stroke="black" stroke-width="3" d="M107.84,-147C143.79,-147 112.59,-212.66 132.8,-228.05"/>
<polygon fill="black" stroke="black" stroke-width="3" points="128.9,-230.56 139.48,-229.99 130.85,-223.84 128.9,-230.56"/>
</g>
<!-- n3&#45;&gt;c10 -->
<g id="edge8" class="edge">
<title>n3:e&#45;&gt;c10:w</title>
<path fill="none" stroke="black" stroke-width="3" d="M107.84,-147C134,-147 119.57,-189.54 133.05,-202.83"/>
<polygon fill="black" stroke="black" stroke-width="3" points="128.98,-205.07 139.57,-205.2 131.37,-198.5 128.98,-205.07"/>
</g>
<!-- c11 -->
<g id="node6" class="node">
<title>c11</title>
<polygon fill="none" stroke="black" points="273.59,-156.5 273.59,-205.5 367.34,-205.5 367.34,-156.5 273.59,-156.5"/>
<text text-anchor="middle" x="286.47" y="-188.2" font-family="Times,serif" font-size="14.00">A</text>
<polyline fill="none" stroke="black" points="273.59,-181 299.34,-181"/>
<text text-anchor="middle" x="286.47" y="-163.7" font-family="Times,serif" font-size="14.00">B</text>
<polyline fill="none" stroke="black" points="299.34,-156.5 299.34,-205.5"/>
<text text-anchor="middle" x="320.47" y="-184.2" font-family="Times,serif" font-size="14.00">$2</text>
<text text-anchor="middle" x="320.47" y="-167.7" font-family="Times,serif" font-size="14.00">$and</text>
<polyline fill="none" stroke="black" points="341.59,-156.5 341.59,-205.5"/>
<text text-anchor="middle" x="354.47" y="-176.2" font-family="Times,serif" font-size="14.00">Y</text>
</g>
<!-- n3&#45;&gt;c11 -->
<g id="edge9" class="edge">
<title>n3:e&#45;&gt;c11:w</title>
<path fill="none" stroke="black" stroke-width="3" d="M107.84,-147C178.22,-147 197.32,-166.52 262.3,-168.57"/>
<polygon fill="black" stroke="black" stroke-width="3" points="259,-172.02 269.05,-168.68 259.11,-165.02 259,-172.02"/>
</g>
<!-- c12 -->
<g id="node7" class="node">
<title>c12</title>
<polygon fill="none" stroke="black" points="403.34,-118.5 403.34,-167.5 497.09,-167.5 497.09,-118.5 403.34,-118.5"/>
<text text-anchor="middle" x="416.22" y="-150.2" font-family="Times,serif" font-size="14.00">A</text>
<polyline fill="none" stroke="black" points="403.34,-143 429.09,-143"/>
<text text-anchor="middle" x="416.22" y="-125.7" font-family="Times,serif" font-size="14.00">B</text>
<polyline fill="none" stroke="black" points="429.09,-118.5 429.09,-167.5"/>
<text text-anchor="middle" x="450.22" y="-146.2" font-family="Times,serif" font-size="14.00">$3</text>
<text text-anchor="middle" x="450.22" y="-129.7" font-family="Times,serif" font-size="14.00">$and</text>
<polyline fill="none" stroke="black" points="471.34,-118.5 471.34,-167.5"/>
<text text-anchor="middle" x="484.22" y="-138.2" font-family="Times,serif" font-size="14.00">Y</text>
</g>
<!-- n3&#45;&gt;c12 -->
<g id="edge10" class="edge">
<title>n3:e&#45;&gt;c12:w</title>
<path fill="none" stroke="black" stroke-width="3" d="M107.84,-147C123.87,-147 127.84,-145.88 143.84,-145 255.34,-138.84 285.83,-131.27 392.12,-130.78"/>
<polygon fill="black" stroke="black" stroke-width="3" points="388.81,-134.28 398.8,-130.76 388.79,-127.28 388.81,-134.28"/>
</g>
<!-- c13 -->
<g id="node8" class="node">
<title>c13</title>
<polygon fill="none" stroke="black" points="679.59,-88.5 679.59,-137.5 773.34,-137.5 773.34,-88.5 679.59,-88.5"/>
<text text-anchor="middle" x="692.47" y="-120.2" font-family="Times,serif" font-size="14.00">A</text>
<polyline fill="none" stroke="black" points="679.59,-113 705.34,-113"/>
<text text-anchor="middle" x="692.47" y="-95.7" font-family="Times,serif" font-size="14.00">B</text>
<polyline fill="none" stroke="black" points="705.34,-88.5 705.34,-137.5"/>
<text text-anchor="middle" x="726.47" y="-116.2" font-family="Times,serif" font-size="14.00">$4</text>
<text text-anchor="middle" x="726.47" y="-99.7" font-family="Times,serif" font-size="14.00">$and</text>
<polyline fill="none" stroke="black" points="747.59,-88.5 747.59,-137.5"/>
<text text-anchor="middle" x="760.47" y="-108.2" font-family="Times,serif" font-size="14.00">Y</text>
</g>
<!-- n3&#45;&gt;c13 -->
<g id="edge11" class="edge">
<title>n3:e&#45;&gt;c13:w</title>
<path fill="none" stroke="black" stroke-width="3" d="M107.84,-147C124.71,-147 127.66,-139.76 143.84,-135 221.14,-112.25 238.89,-90 319.47,-90 319.47,-90 319.47,-90 451.22,-90 548.96,-90 575.95,-99.95 668.31,-100.7"/>
<polygon fill="black" stroke="black" stroke-width="3" points="665.04,-104.19 675.05,-100.73 665.07,-97.19 665.04,-104.19"/>
</g>
<!-- x0 -->
<g id="node10" class="node">
<title>x0</title>
<path fill="none" stroke="black" d="M301.22,-25C301.22,-25 339.72,-25 339.72,-25 345.72,-25 351.72,-31 351.72,-37 351.72,-37 351.72,-49 351.72,-49 351.72,-55 345.72,-61 339.72,-61 339.72,-61 301.22,-61 301.22,-61 295.22,-61 289.22,-55 289.22,-49 289.22,-49 289.22,-37 289.22,-37 289.22,-31 295.22,-25 301.22,-25"/>
<text text-anchor="middle" x="320.47" y="-38.2" font-family="Times,serif" font-size="14.00">2:0 &#45; 2:0</text>
</g>
<!-- n3&#45;&gt;x0 -->
<g id="edge12" class="edge">
<title>n3:e&#45;&gt;x0:w</title>
<path fill="none" stroke="black" stroke-width="3" d="M107.84,-147C143.22,-147 115.94,-97.76 143.84,-76 192.69,-37.91 219.2,-42.51 277.04,-43.18"/>
<polygon fill="black" stroke="black" stroke-width="3" points="273.65,-46.66 283.68,-43.22 273.7,-39.66 273.65,-46.66"/>
</g>
<!-- n4 -->
<g id="node2" class="node">
<title>n4</title>
<polygon fill="none" stroke="black" points="1412.41,-116.54 1412.41,-131.46 1377.9,-142 1329.1,-142 1294.59,-131.46 1294.59,-116.54 1329.1,-106 1377.9,-106 1412.41,-116.54"/>
<text text-anchor="middle" x="1353.5" y="-118.95" font-family="Times,serif" font-size="14.00">output_data</text>
</g>
<!-- n5 -->
<g id="node3" class="node">
<title>n5</title>
<polygon fill="none" stroke="black" points="588.34,-157 533.09,-139 588.34,-121 643.59,-139 588.34,-157"/>
<text text-anchor="middle" x="588.34" y="-133.95" font-family="Times,serif" font-size="14.00">temp_0</text>
</g>
<!-- n5&#45;&gt;c13 -->
<g id="edge16" class="edge">
<title>n5:e&#45;&gt;c13:w</title>
<path fill="none" stroke="black" stroke-width="3" d="M643.59,-139C656.04,-139 660.36,-131.74 668.36,-127.77"/>
<polygon fill="black" stroke="black" stroke-width="3" points="666.17,-131.85 675.16,-126.25 664.64,-125.02 666.17,-131.85"/>
</g>
<!-- n6 -->
<g id="node4" class="node">
<title>n6</title>
<polygon fill="none" stroke="black" points="864.59,-131 809.34,-113 864.59,-95 919.84,-113 864.59,-131"/>
<text text-anchor="middle" x="864.59" y="-107.95" font-family="Times,serif" font-size="14.00">temp_1</text>
</g>
<!-- x1 -->
<g id="node11" class="node">
<title>x1</title>
<path fill="none" stroke="black" d="M970.09,-72C970.09,-72 1008.59,-72 1008.59,-72 1014.59,-72 1020.59,-78 1020.59,-84 1020.59,-84 1020.59,-96 1020.59,-96 1020.59,-102 1014.59,-108 1008.59,-108 1008.59,-108 970.09,-108 970.09,-108 964.09,-108 958.09,-102 958.09,-96 958.09,-96 958.09,-84 958.09,-84 958.09,-78 964.09,-72 970.09,-72"/>
<text text-anchor="middle" x="989.34" y="-85.2" font-family="Times,serif" font-size="14.00">2:0 &#45; 2:0</text>
</g>
<!-- n6&#45;&gt;x1 -->
<g id="edge18" class="edge">
<title>n6:e&#45;&gt;x1:w</title>
<path fill="none" stroke="black" stroke-width="3" d="M919.84,-113C934.54,-113 937.22,-99.94 946.09,-93.61"/>
<polygon fill="black" stroke="black" stroke-width="3" points="944.21,-97.84 952.75,-91.57 942.16,-91.15 944.21,-97.84"/>
</g>
<!-- x3 -->
<g id="node13" class="node">
<title>x3</title>
<path fill="none" stroke="black" d="M967.84,-127.5C967.84,-127.5 1010.84,-127.5 1010.84,-127.5 1016.84,-127.5 1022.84,-133.5 1022.84,-139.5 1022.84,-139.5 1022.84,-164.5 1022.84,-164.5 1022.84,-170.5 1016.84,-176.5 1010.84,-176.5 1010.84,-176.5 967.84,-176.5 967.84,-176.5 961.84,-176.5 955.84,-170.5 955.84,-164.5 955.84,-164.5 955.84,-139.5 955.84,-139.5 955.84,-133.5 961.84,-127.5 967.84,-127.5"/>
<text text-anchor="middle" x="989.34" y="-159.2" font-family="Times,serif" font-size="14.00">0 &#45;&gt; 20:1</text>
<polyline fill="none" stroke="black" points="955.84,-152 1022.84,-152"/>
<text text-anchor="middle" x="989.34" y="-134.7" font-family="Times,serif" font-size="14.00">3:3 &#45; 0:0</text>
</g>
<!-- n6&#45;&gt;x3 -->
<g id="edge19" class="edge">
<title>n6:e&#45;&gt;x3:w</title>
<path fill="none" stroke="black" d="M919.84,-113C935.1,-113 936.41,-128.68 945.14,-136.03"/>
<polygon fill="black" stroke="black" points="943.82,-139.28 954.41,-139.25 946.12,-132.67 943.82,-139.28"/>
</g>
<!-- c10&#45;&gt;c11 -->
<g id="edge5" class="edge">
<title>c10:e&#45;&gt;c11:w</title>
<path fill="none" stroke="black" stroke-width="3" d="M237.59,-219.25C252.7,-219.25 254.21,-204.01 262.94,-196.87"/>
<polygon fill="black" stroke="black" stroke-width="3" points="260.95,-201.24 269.29,-194.71 258.7,-194.61 260.95,-201.24"/>
</g>
<!-- c11&#45;&gt;c12 -->
<g id="edge6" class="edge">
<title>c11:e&#45;&gt;c12:w</title>
<path fill="none" stroke="black" stroke-width="3" d="M367.34,-181.25C382.45,-181.25 383.96,-166.01 392.69,-158.87"/>
<polygon fill="black" stroke="black" stroke-width="3" points="390.7,-163.24 399.04,-156.71 388.45,-156.61 390.7,-163.24"/>
</g>
<!-- c12&#45;&gt;n5 -->
<g id="edge15" class="edge">
<title>c12:e&#45;&gt;n5:w</title>
<path fill="none" stroke="black" stroke-width="3" d="M497.09,-143.25C508.54,-143.25 513.77,-141.1 521.62,-139.86"/>
<polygon fill="black" stroke="black" stroke-width="3" points="518.85,-143.58 528.56,-139.34 518.33,-136.6 518.85,-143.58"/>
</g>
<!-- c13&#45;&gt;n6 -->
<g id="edge17" class="edge">
<title>c13:e&#45;&gt;n6:w</title>
<path fill="none" stroke="black" stroke-width="3" d="M773.34,-113.25C784.72,-113.25 790.03,-113.12 797.9,-113.05"/>
<polygon fill="black" stroke="black" stroke-width="3" points="794.82,-116.56 804.8,-113.02 794.79,-109.56 794.82,-116.56"/>
</g>
<!-- c14 -->
<g id="node9" class="node">
<title>c14</title>
<polygon fill="none" stroke="black" points="1058.84,-72.5 1058.84,-121.5 1146.59,-121.5 1146.59,-72.5 1058.84,-72.5"/>
<text text-anchor="middle" x="1071.72" y="-104.2" font-family="Times,serif" font-size="14.00">A</text>
<polyline fill="none" stroke="black" points="1058.84,-97 1084.59,-97"/>
<text text-anchor="middle" x="1071.72" y="-79.7" font-family="Times,serif" font-size="14.00">B</text>
<polyline fill="none" stroke="black" points="1084.59,-72.5 1084.59,-121.5"/>
<text text-anchor="middle" x="1102.72" y="-100.2" font-family="Times,serif" font-size="14.00">$33</text>
<text text-anchor="middle" x="1102.72" y="-83.7" font-family="Times,serif" font-size="14.00">$or</text>
<polyline fill="none" stroke="black" points="1120.84,-72.5 1120.84,-121.5"/>
<text text-anchor="middle" x="1133.72" y="-92.2" font-family="Times,serif" font-size="14.00">Y</text>
</g>
<!-- x2 -->
<g id="node12" class="node">
<title>x2</title>
<path fill="none" stroke="black" d="M1201.34,-79C1201.34,-79 1239.84,-79 1239.84,-79 1245.84,-79 1251.84,-85 1251.84,-91 1251.84,-91 1251.84,-103 1251.84,-103 1251.84,-109 1245.84,-115 1239.84,-115 1239.84,-115 1201.34,-115 1201.34,-115 1195.34,-115 1189.34,-109 1189.34,-103 1189.34,-103 1189.34,-91 1189.34,-91 1189.34,-85 1195.34,-79 1201.34,-79"/>
<text text-anchor="middle" x="1220.59" y="-92.2" font-family="Times,serif" font-size="14.00">2:0 &#45; 2:0</text>
</g>
<!-- c14&#45;&gt;x2 -->
<g id="edge3" class="edge">
<title>c14:e&#45;&gt;x2:w</title>
<path fill="none" stroke="black" stroke-width="3" d="M1159.57,-97.2C1165.23,-97.16 1169.72,-97.09 1175.39,-97.05"/>
<polygon fill="none" stroke="black" stroke-width="3" points="1161.3,-97.2 1155.31,-101.22 1149.3,-97.24 1155.28,-93.22 1161.3,-97.2"/>
<polygon fill="none" stroke="black" stroke-width="3" points="1173.64,-97.05 1179.62,-93.03 1185.64,-97.01 1179.65,-101.03 1173.64,-97.05"/>
</g>
<!-- x0&#45;&gt;c14 -->
<g id="edge1" class="edge">
<title>x0:e&#45;&gt;c14:w</title>
<path fill="none" stroke="black" stroke-width="3" d="M365.74,-43C459.38,-43 487.54,-43 587.34,-43 587.34,-43 587.34,-43 865.59,-43 936.04,-43 961.63,-28.12 1022.84,-63 1040.52,-73.08 1036.65,-95.64 1046.53,-105.03"/>
<polygon fill="none" stroke="black" stroke-width="3" points="367.42,-43 361.42,-47 355.42,-43 361.42,-39 367.42,-43"/>
<polygon fill="none" stroke="black" stroke-width="3" points="1044.94,-104.48 1051.91,-102.64 1056.29,-108.37 1049.31,-110.21 1044.94,-104.48"/>
</g>
<!-- x1&#45;&gt;c14 -->
<g id="edge2" class="edge">
<title>x1:e&#45;&gt;c14:w</title>
<path fill="none" stroke="black" stroke-width="3" d="M1034.53,-88.73C1038.54,-87.9 1041.94,-86.83 1045.96,-86.01"/>
<polygon fill="none" stroke="black" stroke-width="3" points="1036.23,-88.56 1030.65,-93.13 1024.28,-89.74 1029.86,-85.17 1036.23,-88.56"/>
<polygon fill="none" stroke="black" stroke-width="3" points="1044.21,-86.18 1049.79,-81.62 1056.15,-85.01 1050.57,-89.58 1044.21,-86.18"/>
</g>
<!-- x2&#45;&gt;n4 -->
<g id="edge13" class="edge">
<title>x2:e&#45;&gt;n4:w</title>
<path fill="none" stroke="black" stroke-width="3" d="M1252.84,-97.25C1270.4,-97.25 1272.49,-114.24 1283.77,-121.14"/>
<polygon fill="black" stroke="black" stroke-width="3" points="1279.64,-123.66 1290.2,-122.84 1281.43,-116.9 1279.64,-123.66"/>
</g>
<!-- x4 -->
<g id="node14" class="node">
<title>x4</title>
<path fill="none" stroke="black" d="M1194.59,-134C1194.59,-134 1246.59,-134 1246.59,-134 1252.59,-134 1258.59,-140 1258.59,-146 1258.59,-146 1258.59,-158 1258.59,-158 1258.59,-164 1252.59,-170 1246.59,-170 1246.59,-170 1194.59,-170 1194.59,-170 1188.59,-170 1182.59,-164 1182.59,-158 1182.59,-158 1182.59,-146 1182.59,-146 1182.59,-140 1188.59,-134 1194.59,-134"/>
<text text-anchor="middle" x="1220.59" y="-147.2" font-family="Times,serif" font-size="14.00">20:0 &#45; 23:3</text>
</g>
<!-- x3&#45;&gt;x4 -->
<g id="edge4" class="edge">
<title>x3:e&#45;&gt;x4:w</title>
<path fill="none" stroke="black" stroke-width="3" d="M1035.56,-152C1092.12,-152 1113.14,-152 1169.57,-152"/>
<polygon fill="none" stroke="black" stroke-width="3" points="1037.55,-152 1031.55,-156 1025.55,-152 1031.55,-148 1037.55,-152"/>
<polygon fill="none" stroke="black" stroke-width="3" points="1167.89,-152 1173.89,-148 1179.89,-152 1173.89,-156 1167.89,-152"/>
</g>
<!-- x4&#45;&gt;n4 -->
<g id="edge14" class="edge">
<title>x4:e&#45;&gt;n4:w</title>
<path fill="none" stroke="black" stroke-width="3" d="M1258.59,-152.25C1274.16,-152.25 1275.07,-135.69 1283.77,-127.93"/>
<polygon fill="black" stroke="black" stroke-width="3" points="1282.12,-132.25 1290.32,-125.55 1279.73,-125.67 1282.12,-132.25"/>
</g>
</g>
</svg>
