<?xml version="1.0" encoding="UTF-8" standalone="no"?>
<!DOCTYPE svg PUBLIC "-//W3C//DTD SVG 1.1//EN"
 "http://www.w3.org/Graphics/SVG/1.1/DTD/svg11.dtd">
<!-- Generated by graphviz version 12.2.1 (20241206.2353)
 -->
<!-- Title: top Pages: 1 -->
<svg width="3606pt" height="451pt"
 viewBox="0.00 0.00 3605.52 450.86" xmlns="http://www.w3.org/2000/svg" xmlns:xlink="http://www.w3.org/1999/xlink">
<g id="graph0" class="graph" transform="scale(1 1) rotate(0) translate(4 446.86)">
<title>top</title>
<polygon fill="white" stroke="none" points="-4,4 -4,-446.86 3601.52,-446.86 3601.52,4 -4,4"/>
<text text-anchor="middle" x="1798.76" y="-7.2" font-family="Times,serif" font-size="14.00">top</text>
<!-- n10 -->
<g id="node1" class="node">
<title>n10</title>
<polygon fill="none" stroke="black" points="107.84,-225.41 107.84,-240.32 76.26,-250.86 31.59,-250.86 0,-240.32 0,-225.41 31.59,-214.86 76.26,-214.86 107.84,-225.41"/>
<text text-anchor="middle" x="53.92" y="-227.81" font-family="Times,serif" font-size="14.00">input_data</text>
</g>
<!-- c24 -->
<g id="node22" class="node">
<title>c24</title>
<polygon fill="none" stroke="black" points="265.34,-203.36 265.34,-252.36 361.34,-252.36 361.34,-203.36 265.34,-203.36"/>
<text text-anchor="middle" x="278.22" y="-235.06" font-family="Times,serif" font-size="14.00">A</text>
<polyline fill="none" stroke="black" points="265.34,-227.86 291.09,-227.86"/>
<text text-anchor="middle" x="278.22" y="-210.56" font-family="Times,serif" font-size="14.00">B</text>
<polyline fill="none" stroke="black" points="291.09,-203.36 291.09,-252.36"/>
<text text-anchor="middle" x="313.34" y="-231.06" font-family="Times,serif" font-size="14.00">$2</text>
<text text-anchor="middle" x="313.34" y="-214.56" font-family="Times,serif" font-size="14.00">$mul</text>
<polyline fill="none" stroke="black" points="335.59,-203.36 335.59,-252.36"/>
<text text-anchor="middle" x="348.47" y="-223.06" font-family="Times,serif" font-size="14.00">Y</text>
</g>
<!-- n10&#45;&gt;c24 -->
<g id="edge22" class="edge">
<title>n10:e&#45;&gt;c24:w</title>
<path fill="none" stroke="black" stroke-width="3" d="M107.84,-232.86C174.27,-232.86 192.86,-217.51 253.87,-215.77"/>
<polygon fill="black" stroke="black" stroke-width="3" points="250.85,-219.32 260.8,-215.68 250.75,-212.32 250.85,-219.32"/>
</g>
<!-- c25 -->
<g id="node23" class="node">
<title>c25</title>
<polygon fill="none" stroke="black" points="398.65,-177.36 398.65,-226.36 494.65,-226.36 494.65,-177.36 398.65,-177.36"/>
<text text-anchor="middle" x="411.52" y="-209.06" font-family="Times,serif" font-size="14.00">A</text>
<polyline fill="none" stroke="black" points="398.65,-201.86 424.4,-201.86"/>
<text text-anchor="middle" x="411.52" y="-184.56" font-family="Times,serif" font-size="14.00">B</text>
<polyline fill="none" stroke="black" points="424.4,-177.36 424.4,-226.36"/>
<text text-anchor="middle" x="446.65" y="-205.06" font-family="Times,serif" font-size="14.00">$3</text>
<text text-anchor="middle" x="446.65" y="-188.56" font-family="Times,serif" font-size="14.00">$mul</text>
<polyline fill="none" stroke="black" points="468.9,-177.36 468.9,-226.36"/>
<text text-anchor="middle" x="481.77" y="-197.06" font-family="Times,serif" font-size="14.00">Y</text>
</g>
<!-- n10&#45;&gt;c25 -->
<g id="edge23" class="edge">
<title>n10:e&#45;&gt;c25:w</title>
<path fill="none" stroke="black" stroke-width="3" d="M107.84,-232.86C125.93,-232.86 126.69,-219.63 143.84,-213.86 247.58,-178.98 281.98,-188.86 386.3,-189.58"/>
<polygon fill="black" stroke="black" stroke-width="3" points="383.09,-193.06 393.1,-189.6 383.12,-186.06 383.09,-193.06"/>
</g>
<!-- c28 -->
<g id="node27" class="node">
<title>c28</title>
<polygon fill="none" stroke="black" points="143.84,-241.36 143.84,-290.36 229.34,-290.36 229.34,-241.36 143.84,-241.36"/>
<text text-anchor="middle" x="156.72" y="-273.06" font-family="Times,serif" font-size="14.00">A</text>
<polyline fill="none" stroke="black" points="143.84,-265.86 169.59,-265.86"/>
<text text-anchor="middle" x="156.72" y="-248.56" font-family="Times,serif" font-size="14.00">B</text>
<polyline fill="none" stroke="black" points="169.59,-241.36 169.59,-290.36"/>
<text text-anchor="middle" x="186.59" y="-269.06" font-family="Times,serif" font-size="14.00">$1</text>
<text text-anchor="middle" x="186.59" y="-252.56" font-family="Times,serif" font-size="14.00">$or</text>
<polyline fill="none" stroke="black" points="203.59,-241.36 203.59,-290.36"/>
<text text-anchor="middle" x="216.47" y="-261.06" font-family="Times,serif" font-size="14.00">Y</text>
</g>
<!-- n10&#45;&gt;c28 -->
<g id="edge24" class="edge">
<title>n10:e&#45;&gt;c28:w</title>
<path fill="none" stroke="black" stroke-width="3" d="M107.84,-232.86C128.72,-232.86 122.47,-262.74 133.18,-273.94"/>
<polygon fill="black" stroke="black" stroke-width="3" points="129.03,-276.07 139.61,-276.46 131.58,-269.55 129.03,-276.07"/>
</g>
<!-- n10&#45;&gt;c28 -->
<g id="edge25" class="edge">
<title>n10:e&#45;&gt;c28:w</title>
<path fill="none" stroke="black" stroke-width="3" d="M107.84,-232.86C121.69,-232.86 124.63,-244.54 133.02,-250.37"/>
<polygon fill="black" stroke="black" stroke-width="3" points="128.91,-252.79 139.49,-252.31 130.92,-246.09 128.91,-252.79"/>
</g>
<!-- n11 -->
<g id="node2" class="node">
<title>n11</title>
<polygon fill="none" stroke="black" points="3034.22,-306.41 3034.22,-321.32 2999.72,-331.86 2950.92,-331.86 2916.41,-321.32 2916.41,-306.41 2950.92,-295.86 2999.72,-295.86 3034.22,-306.41"/>
<text text-anchor="middle" x="2975.32" y="-308.81" font-family="Times,serif" font-size="14.00">output_data</text>
</g>
<!-- x23 -->
<g id="node44" class="node">
<title>x23</title>
<path fill="none" stroke="black" d="M3082.22,-270.86C3082.22,-270.86 3120.72,-270.86 3120.72,-270.86 3126.72,-270.86 3132.72,-276.86 3132.72,-282.86 3132.72,-282.86 3132.72,-294.86 3132.72,-294.86 3132.72,-300.86 3126.72,-306.86 3120.72,-306.86 3120.72,-306.86 3082.22,-306.86 3082.22,-306.86 3076.22,-306.86 3070.22,-300.86 3070.22,-294.86 3070.22,-294.86 3070.22,-282.86 3070.22,-282.86 3070.22,-276.86 3076.22,-270.86 3082.22,-270.86"/>
<text text-anchor="middle" x="3101.47" y="-284.06" font-family="Times,serif" font-size="14.00">9:7 &#45; 2:0</text>
</g>
<!-- n11&#45;&gt;x23 -->
<g id="edge29" class="edge">
<title>n11:e&#45;&gt;x23:w</title>
<path fill="none" stroke="black" stroke-width="3" d="M3034.22,-313.86C3048.94,-313.86 3050.88,-299.65 3059.4,-292.77"/>
<polygon fill="black" stroke="black" stroke-width="3" points="3057.57,-297.08 3065.92,-290.57 3055.33,-290.45 3057.57,-297.08"/>
</g>
<!-- n12 -->
<g id="node3" class="node">
<title>n12</title>
<polygon fill="none" stroke="black" points="719.2,-188.86 663.95,-170.86 719.2,-152.86 774.45,-170.86 719.2,-188.86"/>
<text text-anchor="middle" x="719.2" y="-165.81" font-family="Times,serif" font-size="14.00">temp_0</text>
</g>
<!-- x1 -->
<g id="node9" class="node">
<title>x1</title>
<path fill="none" stroke="black" d="M1078.95,-180.86C1078.95,-180.86 1117.45,-180.86 1117.45,-180.86 1123.45,-180.86 1129.45,-186.86 1129.45,-192.86 1129.45,-192.86 1129.45,-204.86 1129.45,-204.86 1129.45,-210.86 1123.45,-216.86 1117.45,-216.86 1117.45,-216.86 1078.95,-216.86 1078.95,-216.86 1072.95,-216.86 1066.95,-210.86 1066.95,-204.86 1066.95,-204.86 1066.95,-192.86 1066.95,-192.86 1066.95,-186.86 1072.95,-180.86 1078.95,-180.86"/>
<text text-anchor="middle" x="1098.2" y="-194.06" font-family="Times,serif" font-size="14.00">4:0 &#45; 4:0</text>
</g>
<!-- n12&#45;&gt;x1 -->
<g id="edge35" class="edge">
<title>n12:e&#45;&gt;x1:w</title>
<path fill="none" stroke="black" stroke-width="3" d="M774.45,-170.86C901.23,-170.86 934.43,-197.48 1055.72,-199.04"/>
<polygon fill="black" stroke="black" stroke-width="3" points="1052.39,-202.52 1062.41,-199.09 1052.43,-195.52 1052.39,-202.52"/>
</g>
<!-- x2 -->
<g id="node11" class="node">
<title>x2</title>
<path fill="none" stroke="black" d="M1177.45,-133.86C1177.45,-133.86 1215.95,-133.86 1215.95,-133.86 1221.95,-133.86 1227.95,-139.86 1227.95,-145.86 1227.95,-145.86 1227.95,-157.86 1227.95,-157.86 1227.95,-163.86 1221.95,-169.86 1215.95,-169.86 1215.95,-169.86 1177.45,-169.86 1177.45,-169.86 1171.45,-169.86 1165.45,-163.86 1165.45,-157.86 1165.45,-157.86 1165.45,-145.86 1165.45,-145.86 1165.45,-139.86 1171.45,-133.86 1177.45,-133.86"/>
<text text-anchor="middle" x="1196.7" y="-147.06" font-family="Times,serif" font-size="14.00">4:0 &#45; 4:0</text>
</g>
<!-- n12&#45;&gt;x2 -->
<g id="edge36" class="edge">
<title>n12:e&#45;&gt;x2:w</title>
<path fill="none" stroke="black" stroke-width="3" d="M774.45,-170.86C790.51,-170.86 794.43,-168.89 810.45,-167.86 964.21,-158.05 1005.52,-152.39 1154.09,-152.12"/>
<polygon fill="black" stroke="black" stroke-width="3" points="1150.91,-155.63 1160.91,-152.12 1150.91,-148.63 1150.91,-155.63"/>
</g>
<!-- c27 -->
<g id="node26" class="node">
<title>c27</title>
<polygon fill="none" stroke="black" points="810.45,-218.36 810.45,-259.36 901.95,-259.36 901.95,-218.36 810.45,-218.36"/>
<text text-anchor="middle" x="823.33" y="-234.06" font-family="Times,serif" font-size="14.00">A</text>
<polyline fill="none" stroke="black" points="836.2,-218.36 836.2,-259.36"/>
<text text-anchor="middle" x="856.2" y="-242.06" font-family="Times,serif" font-size="14.00">$5</text>
<text text-anchor="middle" x="856.2" y="-225.56" font-family="Times,serif" font-size="14.00">$not</text>
<polyline fill="none" stroke="black" points="876.2,-218.36 876.2,-259.36"/>
<text text-anchor="middle" x="889.08" y="-234.06" font-family="Times,serif" font-size="14.00">Y</text>
</g>
<!-- n12&#45;&gt;c27 -->
<g id="edge31" class="edge">
<title>n12:e&#45;&gt;c27:w</title>
<path fill="none" stroke="black" stroke-width="3" d="M774.45,-170.86C803.92,-170.86 784,-221.27 799.58,-235.44"/>
<polygon fill="black" stroke="black" stroke-width="3" points="795.55,-237.78 806.15,-237.66 797.79,-231.15 795.55,-237.78"/>
</g>
<!-- c29 -->
<g id="node28" class="node">
<title>c29</title>
<polygon fill="none" stroke="black" points="939.45,-229.36 939.45,-278.36 1029.45,-278.36 1029.45,-229.36 939.45,-229.36"/>
<text text-anchor="middle" x="952.33" y="-261.06" font-family="Times,serif" font-size="14.00">A</text>
<polyline fill="none" stroke="black" points="939.45,-253.86 965.2,-253.86"/>
<text text-anchor="middle" x="952.33" y="-236.56" font-family="Times,serif" font-size="14.00">B</text>
<polyline fill="none" stroke="black" points="965.2,-229.36 965.2,-278.36"/>
<text text-anchor="middle" x="984.45" y="-257.06" font-family="Times,serif" font-size="14.00">$6</text>
<text text-anchor="middle" x="984.45" y="-240.56" font-family="Times,serif" font-size="14.00">$shl</text>
<polyline fill="none" stroke="black" points="1003.7,-229.36 1003.7,-278.36"/>
<text text-anchor="middle" x="1016.58" y="-249.06" font-family="Times,serif" font-size="14.00">Y</text>
</g>
<!-- n12&#45;&gt;c29 -->
<g id="edge32" class="edge">
<title>n12:e&#45;&gt;c29:w</title>
<path fill="none" stroke="black" stroke-width="3" d="M774.45,-170.86C820.85,-170.86 772.4,-242.31 810.45,-268.86 853.92,-299.21 878.1,-270.63 927.22,-266.58"/>
<polygon fill="black" stroke="black" stroke-width="3" points="924.07,-270.21 933.91,-266.3 923.78,-263.22 924.07,-270.21"/>
</g>
<!-- c30 -->
<g id="node30" class="node">
<title>c30</title>
<polygon fill="none" stroke="black" points="937.95,-62.36 937.95,-111.36 1030.95,-111.36 1030.95,-62.36 937.95,-62.36"/>
<text text-anchor="middle" x="950.83" y="-94.06" font-family="Times,serif" font-size="14.00">A</text>
<polyline fill="none" stroke="black" points="937.95,-86.86 963.7,-86.86"/>
<text text-anchor="middle" x="950.83" y="-69.56" font-family="Times,serif" font-size="14.00">B</text>
<polyline fill="none" stroke="black" points="963.7,-62.36 963.7,-111.36"/>
<text text-anchor="middle" x="984.45" y="-90.06" font-family="Times,serif" font-size="14.00">$12</text>
<text text-anchor="middle" x="984.45" y="-73.56" font-family="Times,serif" font-size="14.00">$sub</text>
<polyline fill="none" stroke="black" points="1005.2,-62.36 1005.2,-111.36"/>
<text text-anchor="middle" x="1018.08" y="-82.06" font-family="Times,serif" font-size="14.00">Y</text>
</g>
<!-- n12&#45;&gt;c30 -->
<g id="edge33" class="edge">
<title>n12:e&#45;&gt;c30:w</title>
<path fill="none" stroke="black" stroke-width="3" d="M774.45,-170.86C796.16,-170.86 791.6,-148.62 810.45,-137.86 858.48,-110.46 876.34,-100.45 926.69,-99.24"/>
<polygon fill="black" stroke="black" stroke-width="3" points="923.45,-102.78 933.41,-99.17 923.37,-95.78 923.45,-102.78"/>
</g>
<!-- x12 -->
<g id="node31" class="node">
<title>x12</title>
<path fill="none" stroke="black" d="M836.95,-48.86C836.95,-48.86 875.45,-48.86 875.45,-48.86 881.45,-48.86 887.45,-54.86 887.45,-60.86 887.45,-60.86 887.45,-72.86 887.45,-72.86 887.45,-78.86 881.45,-84.86 875.45,-84.86 875.45,-84.86 836.95,-84.86 836.95,-84.86 830.95,-84.86 824.95,-78.86 824.95,-72.86 824.95,-72.86 824.95,-60.86 824.95,-60.86 824.95,-54.86 830.95,-48.86 836.95,-48.86"/>
<text text-anchor="middle" x="856.2" y="-62.06" font-family="Times,serif" font-size="14.00">2:0 &#45; 2:0</text>
</g>
<!-- n12&#45;&gt;x12 -->
<g id="edge34" class="edge">
<title>n12:e&#45;&gt;x12:w</title>
<path fill="none" stroke="black" stroke-width="3" d="M774.45,-170.86C821.15,-170.86 781.15,-84.18 812.95,-69.28"/>
<polygon fill="black" stroke="black" stroke-width="3" points="810.36,-73.36 819.5,-67.99 809.01,-66.49 810.36,-73.36"/>
</g>
<!-- n13 -->
<g id="node4" class="node">
<title>n13</title>
<polygon fill="none" stroke="black" points="1578.7,-188.86 1523.45,-170.86 1578.7,-152.86 1633.95,-170.86 1578.7,-188.86"/>
<text text-anchor="middle" x="1578.7" y="-165.81" font-family="Times,serif" font-size="14.00">temp_1</text>
</g>
<!-- c21 -->
<g id="node12" class="node">
<title>c21</title>
<polygon fill="none" stroke="black" points="1672.58,-128.36 1672.58,-177.36 1760.33,-177.36 1760.33,-128.36 1672.58,-128.36"/>
<text text-anchor="middle" x="1685.45" y="-160.06" font-family="Times,serif" font-size="14.00">A</text>
<polyline fill="none" stroke="black" points="1672.58,-152.86 1698.33,-152.86"/>
<text text-anchor="middle" x="1685.45" y="-135.56" font-family="Times,serif" font-size="14.00">B</text>
<polyline fill="none" stroke="black" points="1698.33,-128.36 1698.33,-177.36"/>
<text text-anchor="middle" x="1716.45" y="-156.06" font-family="Times,serif" font-size="14.00">$36</text>
<text text-anchor="middle" x="1716.45" y="-139.56" font-family="Times,serif" font-size="14.00">$or</text>
<polyline fill="none" stroke="black" points="1734.58,-128.36 1734.58,-177.36"/>
<text text-anchor="middle" x="1747.45" y="-148.06" font-family="Times,serif" font-size="14.00">Y</text>
</g>
<!-- n13&#45;&gt;c21 -->
<g id="edge38" class="edge">
<title>n13:e&#45;&gt;c21:w</title>
<path fill="none" stroke="black" stroke-width="3" d="M1633.95,-170.86C1650.71,-170.86 1651.15,-152.4 1660.77,-144.32"/>
<polygon fill="black" stroke="black" stroke-width="3" points="1658.96,-148.65 1667.28,-142.09 1656.69,-142.03 1658.96,-148.65"/>
</g>
<!-- c31 -->
<g id="node34" class="node">
<title>c31</title>
<polygon fill="none" stroke="black" points="1669.95,-197.36 1669.95,-246.36 1762.95,-246.36 1762.95,-197.36 1669.95,-197.36"/>
<text text-anchor="middle" x="1682.83" y="-229.06" font-family="Times,serif" font-size="14.00">A</text>
<polyline fill="none" stroke="black" points="1669.95,-221.86 1695.7,-221.86"/>
<text text-anchor="middle" x="1682.83" y="-204.56" font-family="Times,serif" font-size="14.00">B</text>
<polyline fill="none" stroke="black" points="1695.7,-197.36 1695.7,-246.36"/>
<text text-anchor="middle" x="1716.45" y="-225.06" font-family="Times,serif" font-size="14.00">$18</text>
<text text-anchor="middle" x="1716.45" y="-208.56" font-family="Times,serif" font-size="14.00">$sub</text>
<polyline fill="none" stroke="black" points="1737.2,-197.36 1737.2,-246.36"/>
<text text-anchor="middle" x="1750.08" y="-217.06" font-family="Times,serif" font-size="14.00">Y</text>
</g>
<!-- n13&#45;&gt;c31 -->
<g id="edge39" class="edge">
<title>n13:e&#45;&gt;c31:w</title>
<path fill="none" stroke="black" stroke-width="3" d="M1633.95,-170.86C1652.68,-170.86 1649.49,-195.47 1659.32,-205.47"/>
<polygon fill="black" stroke="black" stroke-width="3" points="1655.13,-207.59 1665.72,-207.96 1657.68,-201.07 1655.13,-207.59"/>
</g>
<!-- n14 -->
<g id="node5" class="node">
<title>n14</title>
<polygon fill="none" stroke="black" points="1952.7,-170.86 1897.45,-152.86 1952.7,-134.86 2007.95,-152.86 1952.7,-170.86"/>
<text text-anchor="middle" x="1952.7" y="-147.81" font-family="Times,serif" font-size="14.00">temp_3</text>
</g>
<!-- x5 -->
<g id="node16" class="node">
<title>x5</title>
<path fill="none" stroke="black" d="M2064.58,-244.86C2064.58,-244.86 2103.08,-244.86 2103.08,-244.86 2109.08,-244.86 2115.08,-250.86 2115.08,-256.86 2115.08,-256.86 2115.08,-268.86 2115.08,-268.86 2115.08,-274.86 2109.08,-280.86 2103.08,-280.86 2103.08,-280.86 2064.58,-280.86 2064.58,-280.86 2058.58,-280.86 2052.58,-274.86 2052.58,-268.86 2052.58,-268.86 2052.58,-256.86 2052.58,-256.86 2052.58,-250.86 2058.58,-244.86 2064.58,-244.86"/>
<text text-anchor="middle" x="2083.83" y="-258.06" font-family="Times,serif" font-size="14.00">1:0 &#45; 1:0</text>
</g>
<!-- n14&#45;&gt;x5 -->
<g id="edge44" class="edge">
<title>n14:e&#45;&gt;x5:w</title>
<path fill="none" stroke="black" stroke-width="3" d="M2007.95,-152.86C2056.12,-152.86 2008.65,-244.98 2040.38,-260.81"/>
<polygon fill="black" stroke="black" stroke-width="3" points="2036.63,-263.61 2047.13,-262.2 2038.04,-256.76 2036.63,-263.61"/>
</g>
<!-- x6 -->
<g id="node17" class="node">
<title>x6</title>
<path fill="none" stroke="black" d="M2064.58,-189.86C2064.58,-189.86 2103.08,-189.86 2103.08,-189.86 2109.08,-189.86 2115.08,-195.86 2115.08,-201.86 2115.08,-201.86 2115.08,-213.86 2115.08,-213.86 2115.08,-219.86 2109.08,-225.86 2103.08,-225.86 2103.08,-225.86 2064.58,-225.86 2064.58,-225.86 2058.58,-225.86 2052.58,-219.86 2052.58,-213.86 2052.58,-213.86 2052.58,-201.86 2052.58,-201.86 2052.58,-195.86 2058.58,-189.86 2064.58,-189.86"/>
<text text-anchor="middle" x="2083.83" y="-203.06" font-family="Times,serif" font-size="14.00">6:5 &#45; 1:0</text>
</g>
<!-- n14&#45;&gt;x6 -->
<g id="edge45" class="edge">
<title>n14:e&#45;&gt;x6:w</title>
<path fill="none" stroke="black" stroke-width="3" d="M2007.95,-152.86C2034.6,-152.86 2024.81,-192.93 2040.64,-204.82"/>
<polygon fill="black" stroke="black" stroke-width="3" points="2036.64,-207.28 2047.23,-206.81 2038.66,-200.57 2036.64,-207.28"/>
</g>
<!-- c23 -->
<g id="node19" class="node">
<title>c23</title>
<polygon fill="none" stroke="black" points="3405.32,-229.36 3405.32,-278.36 3493.07,-278.36 3493.07,-229.36 3405.32,-229.36"/>
<text text-anchor="middle" x="3418.2" y="-261.06" font-family="Times,serif" font-size="14.00">A</text>
<polyline fill="none" stroke="black" points="3405.32,-253.86 3431.07,-253.86"/>
<text text-anchor="middle" x="3418.2" y="-236.56" font-family="Times,serif" font-size="14.00">B</text>
<polyline fill="none" stroke="black" points="3431.07,-229.36 3431.07,-278.36"/>
<text text-anchor="middle" x="3449.2" y="-257.06" font-family="Times,serif" font-size="14.00">$45</text>
<text text-anchor="middle" x="3449.2" y="-240.56" font-family="Times,serif" font-size="14.00">$or</text>
<polyline fill="none" stroke="black" points="3467.32,-229.36 3467.32,-278.36"/>
<text text-anchor="middle" x="3480.2" y="-249.06" font-family="Times,serif" font-size="14.00">Y</text>
</g>
<!-- n14&#45;&gt;c23 -->
<g id="edge42" class="edge">
<title>n14:e&#45;&gt;c23:w</title>
<path fill="none" stroke="black" stroke-width="3" d="M2007.95,-152.86C2028.22,-152.86 2025.2,-132.55 2043.95,-124.86 2110.88,-97.43 2133.25,-105.86 2205.58,-105.86 2205.58,-105.86 2205.58,-105.86 3270.02,-105.86 3351.21,-105.86 3323.16,-229.19 3394.11,-240.75"/>
<polygon fill="black" stroke="black" stroke-width="3" points="3390.56,-243.98 3400.8,-241.26 3391.1,-237 3390.56,-243.98"/>
</g>
<!-- x19 -->
<g id="node40" class="node">
<title>x19</title>
<path fill="none" stroke="black" d="M2064.58,-134.86C2064.58,-134.86 2103.08,-134.86 2103.08,-134.86 2109.08,-134.86 2115.08,-140.86 2115.08,-146.86 2115.08,-146.86 2115.08,-158.86 2115.08,-158.86 2115.08,-164.86 2109.08,-170.86 2103.08,-170.86 2103.08,-170.86 2064.58,-170.86 2064.58,-170.86 2058.58,-170.86 2052.58,-164.86 2052.58,-158.86 2052.58,-158.86 2052.58,-146.86 2052.58,-146.86 2052.58,-140.86 2058.58,-134.86 2064.58,-134.86"/>
<text text-anchor="middle" x="2083.83" y="-148.06" font-family="Times,serif" font-size="14.00">6:5 &#45; 1:0</text>
</g>
<!-- n14&#45;&gt;x19 -->
<g id="edge43" class="edge">
<title>n14:e&#45;&gt;x19:w</title>
<path fill="none" stroke="black" stroke-width="3" d="M2007.95,-152.86C2022.95,-152.86 2029.25,-153.01 2040.3,-153.08"/>
<polygon fill="black" stroke="black" stroke-width="3" points="2037.03,-156.57 2047.04,-153.1 2037.05,-149.57 2037.03,-156.57"/>
</g>
<!-- n15 -->
<g id="node6" class="node">
<title>n15</title>
<polygon fill="none" stroke="black" points="2443.2,-271.86 2387.95,-253.86 2443.2,-235.86 2498.45,-253.86 2443.2,-271.86"/>
<text text-anchor="middle" x="2443.2" y="-248.81" font-family="Times,serif" font-size="14.00">temp_4</text>
</g>
<!-- x17 -->
<g id="node38" class="node">
<title>x17</title>
<path fill="none" stroke="black" d="M2546.45,-241.36C2546.45,-241.36 2584.95,-241.36 2584.95,-241.36 2590.95,-241.36 2596.95,-247.36 2596.95,-253.36 2596.95,-253.36 2596.95,-278.36 2596.95,-278.36 2596.95,-284.36 2590.95,-290.36 2584.95,-290.36 2584.95,-290.36 2546.45,-290.36 2546.45,-290.36 2540.45,-290.36 2534.45,-284.36 2534.45,-278.36 2534.45,-278.36 2534.45,-253.36 2534.45,-253.36 2534.45,-247.36 2540.45,-241.36 2546.45,-241.36"/>
<text text-anchor="middle" x="2565.7" y="-273.06" font-family="Times,serif" font-size="14.00">0 &#45;&gt; 2:2</text>
<polyline fill="none" stroke="black" points="2534.45,-265.86 2596.95,-265.86"/>
<text text-anchor="middle" x="2565.7" y="-248.56" font-family="Times,serif" font-size="14.00">1:0 &#45; 1:0</text>
</g>
<!-- n15&#45;&gt;x17 -->
<g id="edge48" class="edge">
<title>n15:e&#45;&gt;x17:w</title>
<path fill="none" stroke="black" stroke-width="3" d="M2498.45,-253.86C2509.83,-253.86 2515.14,-253.74 2523.01,-253.66"/>
<polygon fill="black" stroke="black" stroke-width="3" points="2519.93,-257.18 2529.91,-253.63 2519.9,-250.18 2519.93,-257.18"/>
</g>
<!-- c19 -->
<g id="node7" class="node">
<title>c19</title>
<polygon fill="none" stroke="black" points="1263.95,-186.36 1263.95,-235.36 1357.7,-235.36 1357.7,-186.36 1263.95,-186.36"/>
<text text-anchor="middle" x="1276.83" y="-218.06" font-family="Times,serif" font-size="14.00">A</text>
<polyline fill="none" stroke="black" points="1263.95,-210.86 1289.7,-210.86"/>
<text text-anchor="middle" x="1276.83" y="-193.56" font-family="Times,serif" font-size="14.00">B</text>
<polyline fill="none" stroke="black" points="1289.7,-186.36 1289.7,-235.36"/>
<text text-anchor="middle" x="1310.83" y="-214.06" font-family="Times,serif" font-size="14.00">$7</text>
<text text-anchor="middle" x="1310.83" y="-197.56" font-family="Times,serif" font-size="14.00">$add</text>
<polyline fill="none" stroke="black" points="1331.95,-186.36 1331.95,-235.36"/>
<text text-anchor="middle" x="1344.83" y="-206.06" font-family="Times,serif" font-size="14.00">Y</text>
</g>
<!-- c20 -->
<g id="node10" class="node">
<title>c20</title>
<polygon fill="none" stroke="black" points="1393.7,-146.36 1393.7,-195.36 1487.45,-195.36 1487.45,-146.36 1393.7,-146.36"/>
<text text-anchor="middle" x="1406.58" y="-178.06" font-family="Times,serif" font-size="14.00">A</text>
<polyline fill="none" stroke="black" points="1393.7,-170.86 1419.45,-170.86"/>
<text text-anchor="middle" x="1406.58" y="-153.56" font-family="Times,serif" font-size="14.00">B</text>
<polyline fill="none" stroke="black" points="1419.45,-146.36 1419.45,-195.36"/>
<text text-anchor="middle" x="1440.58" y="-174.06" font-family="Times,serif" font-size="14.00">$8</text>
<text text-anchor="middle" x="1440.58" y="-157.56" font-family="Times,serif" font-size="14.00">$and</text>
<polyline fill="none" stroke="black" points="1461.7,-146.36 1461.7,-195.36"/>
<text text-anchor="middle" x="1474.58" y="-166.06" font-family="Times,serif" font-size="14.00">Y</text>
</g>
<!-- c19&#45;&gt;c20 -->
<g id="edge21" class="edge">
<title>c19:e&#45;&gt;c20:w</title>
<path fill="none" stroke="black" stroke-width="3" d="M1357.7,-211.11C1373.22,-211.11 1374.2,-194.7 1382.9,-187.01"/>
<polygon fill="black" stroke="black" stroke-width="3" points="1381.21,-191.34 1389.43,-184.65 1378.83,-184.75 1381.21,-191.34"/>
</g>
<!-- x0 -->
<g id="node8" class="node">
<title>x0</title>
<path fill="none" stroke="black" d="M1177.45,-231.86C1177.45,-231.86 1215.95,-231.86 1215.95,-231.86 1221.95,-231.86 1227.95,-237.86 1227.95,-243.86 1227.95,-243.86 1227.95,-255.86 1227.95,-255.86 1227.95,-261.86 1221.95,-267.86 1215.95,-267.86 1215.95,-267.86 1177.45,-267.86 1177.45,-267.86 1171.45,-267.86 1165.45,-261.86 1165.45,-255.86 1165.45,-255.86 1165.45,-243.86 1165.45,-243.86 1165.45,-237.86 1171.45,-231.86 1177.45,-231.86"/>
<text text-anchor="middle" x="1196.7" y="-245.06" font-family="Times,serif" font-size="14.00">4:0 &#45; 4:0</text>
</g>
<!-- x0&#45;&gt;c19 -->
<g id="edge1" class="edge">
<title>x0:e&#45;&gt;c19:w</title>
<path fill="none" stroke="black" stroke-width="3" d="M1239.69,-245.2C1244.58,-240.41 1247.11,-232.98 1251.9,-228.08"/>
<polygon fill="none" stroke="black" stroke-width="3" points="1241.62,-244.44 1237.52,-250.37 1230.46,-248.87 1234.56,-242.94 1241.62,-244.44"/>
<polygon fill="none" stroke="black" stroke-width="3" points="1250.36,-228.72 1254.38,-222.74 1261.45,-224.15 1257.43,-230.13 1250.36,-228.72"/>
</g>
<!-- x1&#45;&gt;c19 -->
<g id="edge2" class="edge">
<title>x1:e&#45;&gt;c19:w</title>
<path fill="none" stroke="black" stroke-width="3" d="M1142.37,-198.86C1187.71,-198.83 1205.72,-198.65 1251.09,-198.62"/>
<polygon fill="none" stroke="black" stroke-width="3" points="1144.15,-198.86 1138.16,-202.86 1132.15,-198.86 1138.15,-194.86 1144.15,-198.86"/>
<polygon fill="none" stroke="black" stroke-width="3" points="1249.25,-198.62 1255.24,-194.62 1261.25,-198.62 1255.25,-202.62 1249.25,-198.62"/>
</g>
<!-- c20&#45;&gt;n13 -->
<g id="edge37" class="edge">
<title>c20:e&#45;&gt;n13:w</title>
<path fill="none" stroke="black" stroke-width="3" d="M1487.45,-171.11C1498.83,-171.11 1504.14,-170.99 1512,-170.91"/>
<polygon fill="black" stroke="black" stroke-width="3" points="1508.93,-174.43 1518.91,-170.88 1508.89,-167.43 1508.93,-174.43"/>
</g>
<!-- x2&#45;&gt;c20 -->
<g id="edge3" class="edge">
<title>x2:e&#45;&gt;c20:w</title>
<path fill="none" stroke="black" stroke-width="3" d="M1240.76,-151.94C1300.01,-152.61 1321.64,-157.87 1380.89,-158.54"/>
<polygon fill="none" stroke="black" stroke-width="3" points="1242.65,-151.95 1236.63,-155.91 1230.65,-151.88 1236.68,-147.91 1242.65,-151.95"/>
<polygon fill="none" stroke="black" stroke-width="3" points="1379,-158.53 1385.02,-154.57 1391,-158.6 1384.97,-162.57 1379,-158.53"/>
</g>
<!-- x4 -->
<g id="node14" class="node">
<title>x4</title>
<path fill="none" stroke="black" d="M1810.95,-134.86C1810.95,-134.86 1849.45,-134.86 1849.45,-134.86 1855.45,-134.86 1861.45,-140.86 1861.45,-146.86 1861.45,-146.86 1861.45,-158.86 1861.45,-158.86 1861.45,-164.86 1855.45,-170.86 1849.45,-170.86 1849.45,-170.86 1810.95,-170.86 1810.95,-170.86 1804.95,-170.86 1798.95,-164.86 1798.95,-158.86 1798.95,-158.86 1798.95,-146.86 1798.95,-146.86 1798.95,-140.86 1804.95,-134.86 1810.95,-134.86"/>
<text text-anchor="middle" x="1830.2" y="-148.06" font-family="Times,serif" font-size="14.00">4:0 &#45; 4:0</text>
</g>
<!-- c21&#45;&gt;x4 -->
<g id="edge5" class="edge">
<title>c21:e&#45;&gt;x4:w</title>
<path fill="none" stroke="black" stroke-width="3" d="M1774.36,-153.05C1778.43,-153.01 1781.9,-152.96 1785.98,-152.92"/>
<polygon fill="none" stroke="black" stroke-width="3" points="1776.03,-153.05 1770.05,-157.07 1764.03,-153.1 1770.01,-149.07 1776.03,-153.05"/>
<polygon fill="none" stroke="black" stroke-width="3" points="1784.25,-152.93 1790.23,-148.9 1796.25,-152.88 1790.27,-156.9 1784.25,-152.93"/>
</g>
<!-- x3 -->
<g id="node13" class="node">
<title>x3</title>
<path fill="none" stroke="black" d="M2423.95,-26.86C2423.95,-26.86 2462.45,-26.86 2462.45,-26.86 2468.45,-26.86 2474.45,-32.86 2474.45,-38.86 2474.45,-38.86 2474.45,-50.86 2474.45,-50.86 2474.45,-56.86 2468.45,-62.86 2462.45,-62.86 2462.45,-62.86 2423.95,-62.86 2423.95,-62.86 2417.95,-62.86 2411.95,-56.86 2411.95,-50.86 2411.95,-50.86 2411.95,-38.86 2411.95,-38.86 2411.95,-32.86 2417.95,-26.86 2423.95,-26.86"/>
<text text-anchor="middle" x="2443.2" y="-40.06" font-family="Times,serif" font-size="14.00">4:0 &#45; 4:0</text>
</g>
<!-- x3&#45;&gt;c21 -->
<g id="edge4" class="edge">
<title>x3:e&#45;&gt;c21:w</title>
<path fill="none" stroke="black" stroke-width="3" d="M2478.66,-57.33C2477.6,-59.61 2476.13,-61.77 2474.45,-63.36 2454.29,-82.47 2439.64,-65.62 2411.95,-63.36 2320.21,-55.9 2299.62,-29.86 2207.58,-29.86 1951.7,-29.86 1951.7,-29.86 1951.7,-29.86 1883.05,-29.86 1851,-8.1 1798.95,-52.86 1754.87,-90.78 1807.12,-143.35 1760.33,-177.86 1746.84,-187.81 1702.3,-190.44 1680.32,-174.49"/>
<polygon fill="none" stroke="black" stroke-width="3" points="2479.11,-59.11 2473.74,-54.29 2476.13,-47.48 2481.49,-52.3 2479.11,-59.11"/>
<polygon fill="none" stroke="black" stroke-width="3" points="1681.61,-175.87 1674.59,-174.21 1673.42,-167.09 1680.44,-168.75 1681.61,-175.87"/>
</g>
<!-- x4&#45;&gt;n14 -->
<g id="edge41" class="edge">
<title>x4:e&#45;&gt;n14:w</title>
<path fill="none" stroke="black" stroke-width="3" d="M1861.45,-153.11C1872.83,-153.11 1878.14,-152.99 1886,-152.91"/>
<polygon fill="black" stroke="black" stroke-width="3" points="1882.93,-156.43 1892.91,-152.88 1882.9,-149.43 1882.93,-156.43"/>
</g>
<!-- c22 -->
<g id="node15" class="node">
<title>c22</title>
<polygon fill="none" stroke="black" points="2159.7,-200.36 2159.7,-249.36 2253.45,-249.36 2253.45,-200.36 2159.7,-200.36"/>
<text text-anchor="middle" x="2172.58" y="-232.06" font-family="Times,serif" font-size="14.00">A</text>
<polyline fill="none" stroke="black" points="2159.7,-224.86 2185.45,-224.86"/>
<text text-anchor="middle" x="2172.58" y="-207.56" font-family="Times,serif" font-size="14.00">B</text>
<polyline fill="none" stroke="black" points="2185.45,-200.36 2185.45,-249.36"/>
<text text-anchor="middle" x="2206.58" y="-228.06" font-family="Times,serif" font-size="14.00">$39</text>
<text text-anchor="middle" x="2206.58" y="-211.56" font-family="Times,serif" font-size="14.00">$and</text>
<polyline fill="none" stroke="black" points="2227.7,-200.36 2227.7,-249.36"/>
<text text-anchor="middle" x="2240.58" y="-220.06" font-family="Times,serif" font-size="14.00">Y</text>
</g>
<!-- x7 -->
<g id="node18" class="node">
<title>x7</title>
<path fill="none" stroke="black" d="M2301.45,-207.86C2301.45,-207.86 2339.95,-207.86 2339.95,-207.86 2345.95,-207.86 2351.95,-213.86 2351.95,-219.86 2351.95,-219.86 2351.95,-231.86 2351.95,-231.86 2351.95,-237.86 2345.95,-243.86 2339.95,-243.86 2339.95,-243.86 2301.45,-243.86 2301.45,-243.86 2295.45,-243.86 2289.45,-237.86 2289.45,-231.86 2289.45,-231.86 2289.45,-219.86 2289.45,-219.86 2289.45,-213.86 2295.45,-207.86 2301.45,-207.86"/>
<text text-anchor="middle" x="2320.7" y="-221.06" font-family="Times,serif" font-size="14.00">1:0 &#45; 1:0</text>
</g>
<!-- c22&#45;&gt;x7 -->
<g id="edge8" class="edge">
<title>c22:e&#45;&gt;x7:w</title>
<path fill="none" stroke="black" stroke-width="3" d="M2266.18,-225.3C2269.77,-225.41 2272.9,-225.55 2276.48,-225.67"/>
<polygon fill="none" stroke="black" stroke-width="3" points="2268.15,-225.33 2262.1,-229.24 2256.16,-225.15 2262.22,-221.24 2268.15,-225.33"/>
<polygon fill="none" stroke="black" stroke-width="3" points="2274.75,-225.64 2280.81,-221.73 2286.75,-225.82 2280.69,-229.73 2274.75,-225.64"/>
</g>
<!-- x5&#45;&gt;c22 -->
<g id="edge6" class="edge">
<title>x5:e&#45;&gt;c22:w</title>
<path fill="none" stroke="black" stroke-width="3" d="M2128.58,-259.28C2136,-254.36 2139.81,-245.57 2147.24,-240.66"/>
<polygon fill="none" stroke="black" stroke-width="3" points="2130.21,-258.82 2125.55,-264.31 2118.68,-262.12 2123.34,-256.62 2130.21,-258.82"/>
<polygon fill="none" stroke="black" stroke-width="3" points="2145.56,-241.14 2150.24,-235.65 2157.1,-237.86 2152.43,-243.35 2145.56,-241.14"/>
</g>
<!-- x6&#45;&gt;c22 -->
<g id="edge7" class="edge">
<title>x6:e&#45;&gt;c22:w</title>
<path fill="none" stroke="black" stroke-width="3" d="M2129.03,-208.69C2135.47,-209.56 2140.37,-210.93 2146.82,-211.8"/>
<polygon fill="none" stroke="black" stroke-width="3" points="2130.75,-208.8 2124.51,-212.41 2118.78,-208.04 2125.02,-204.43 2130.75,-208.8"/>
<polygon fill="none" stroke="black" stroke-width="3" points="2145.03,-211.68 2151.27,-208.07 2157,-212.44 2150.76,-216.05 2145.03,-211.68"/>
</g>
<!-- x7&#45;&gt;n15 -->
<g id="edge47" class="edge">
<title>x7:e&#45;&gt;n15:w</title>
<path fill="none" stroke="black" stroke-width="3" d="M2351.95,-226.11C2367.42,-226.11 2368.46,-242.38 2377.17,-250.01"/>
<polygon fill="black" stroke="black" stroke-width="3" points="2373.08,-252.26 2383.68,-252.33 2375.44,-245.67 2373.08,-252.26"/>
</g>
<!-- x9 -->
<g id="node21" class="node">
<title>x9</title>
<path fill="none" stroke="black" d="M3541.07,-276.86C3541.07,-276.86 3579.57,-276.86 3579.57,-276.86 3585.57,-276.86 3591.57,-282.86 3591.57,-288.86 3591.57,-288.86 3591.57,-300.86 3591.57,-300.86 3591.57,-306.86 3585.57,-312.86 3579.57,-312.86 3579.57,-312.86 3541.07,-312.86 3541.07,-312.86 3535.07,-312.86 3529.07,-306.86 3529.07,-300.86 3529.07,-300.86 3529.07,-288.86 3529.07,-288.86 3529.07,-282.86 3535.07,-276.86 3541.07,-276.86"/>
<text text-anchor="middle" x="3560.32" y="-290.06" font-family="Times,serif" font-size="14.00">6:0 &#45; 6:0</text>
</g>
<!-- c23&#45;&gt;x9 -->
<g id="edge10" class="edge">
<title>c23:e&#45;&gt;x9:w</title>
<path fill="none" stroke="black" stroke-width="3" d="M3504.73,-259.44C3510.91,-267.21 3511.2,-281.57 3517.32,-289.41"/>
<polygon fill="none" stroke="black" stroke-width="3" points="3506.45,-260.23 3499.33,-261.37 3495.53,-255.24 3502.65,-254.1 3506.45,-260.23"/>
<polygon fill="none" stroke="black" stroke-width="3" points="3515.74,-288.67 3522.86,-287.57 3526.62,-293.73 3519.5,-294.83 3515.74,-288.67"/>
</g>
<!-- x8 -->
<g id="node20" class="node">
<title>x8</title>
<path fill="none" stroke="black" d="M3318.82,-247.86C3318.82,-247.86 3357.32,-247.86 3357.32,-247.86 3363.32,-247.86 3369.32,-253.86 3369.32,-259.86 3369.32,-259.86 3369.32,-271.86 3369.32,-271.86 3369.32,-277.86 3363.32,-283.86 3357.32,-283.86 3357.32,-283.86 3318.82,-283.86 3318.82,-283.86 3312.82,-283.86 3306.82,-277.86 3306.82,-271.86 3306.82,-271.86 3306.82,-259.86 3306.82,-259.86 3306.82,-253.86 3312.82,-247.86 3318.82,-247.86"/>
<text text-anchor="middle" x="3338.07" y="-261.06" font-family="Times,serif" font-size="14.00">6:0 &#45; 6:0</text>
</g>
<!-- x8&#45;&gt;c23 -->
<g id="edge9" class="edge">
<title>x8:e&#45;&gt;c23:w</title>
<path fill="none" stroke="black" stroke-width="3" d="M3382.05,-265.93C3385.64,-265.96 3388.78,-266.01 3392.35,-266.05"/>
<polygon fill="none" stroke="black" stroke-width="3" points="3384.03,-265.94 3378.01,-269.91 3372.03,-265.88 3378.05,-261.91 3384.03,-265.94"/>
<polygon fill="none" stroke="black" stroke-width="3" points="3390.62,-266.04 3396.64,-262.07 3402.62,-266.1 3396.6,-270.07 3390.62,-266.04"/>
</g>
<!-- x9&#45;&gt;n11 -->
<g id="edge28" class="edge">
<title>x9:e&#45;&gt;n11:w</title>
<path fill="none" stroke="black" stroke-width="3" d="M3592.57,-295.11C3600.7,-295.11 3597.22,-307.52 3591.57,-313.36 3513.28,-394.38 3451.74,-335.86 3339.07,-335.86 3198.97,-335.86 3198.97,-335.86 3198.97,-335.86 3073.27,-335.86 3006.87,-418.89 2916.16,-331.86 2914.18,-329.96 2912.49,-327.23 2911.46,-324.48"/>
<polygon fill="black" stroke="black" stroke-width="3" points="2913.68,-328.75 2913.67,-318.15 2907.07,-326.44 2913.68,-328.75"/>
</g>
<!-- c24&#45;&gt;c25 -->
<g id="edge51" class="edge">
<title>c24:e&#45;&gt;c25:w</title>
<path fill="none" stroke="black" stroke-width="3" d="M361.34,-228.11C374.04,-228.11 378.34,-220.56 386.58,-216.55"/>
<polygon fill="black" stroke="black" stroke-width="3" points="384.2,-220.66 393.21,-215.09 382.69,-213.83 384.2,-220.66"/>
</g>
<!-- c26 -->
<g id="node25" class="node">
<title>c26</title>
<polygon fill="none" stroke="black" points="531.95,-146.36 531.95,-195.36 627.95,-195.36 627.95,-146.36 531.95,-146.36"/>
<text text-anchor="middle" x="544.82" y="-178.06" font-family="Times,serif" font-size="14.00">A</text>
<polyline fill="none" stroke="black" points="531.95,-170.86 557.7,-170.86"/>
<text text-anchor="middle" x="544.82" y="-153.56" font-family="Times,serif" font-size="14.00">B</text>
<polyline fill="none" stroke="black" points="557.7,-146.36 557.7,-195.36"/>
<text text-anchor="middle" x="579.95" y="-174.06" font-family="Times,serif" font-size="14.00">$4</text>
<text text-anchor="middle" x="579.95" y="-157.56" font-family="Times,serif" font-size="14.00">$mul</text>
<polyline fill="none" stroke="black" points="602.2,-146.36 602.2,-195.36"/>
<text text-anchor="middle" x="615.07" y="-166.06" font-family="Times,serif" font-size="14.00">Y</text>
</g>
<!-- c25&#45;&gt;c26 -->
<g id="edge49" class="edge">
<title>c25:e&#45;&gt;c26:w</title>
<path fill="none" stroke="black" stroke-width="3" d="M495.65,-202.11C509.16,-202.11 512.58,-191.65 520.89,-186.25"/>
<polygon fill="black" stroke="black" stroke-width="3" points="518.92,-190.45 527.58,-184.35 517.01,-183.72 518.92,-190.45"/>
</g>
<!-- v10 -->
<g id="node24" class="node">
<title>v10</title>
<ellipse fill="none" stroke="black" cx="446.65" cy="-140.86" rx="49.3" ry="18"/>
<text text-anchor="middle" x="446.65" y="-135.81" font-family="Times,serif" font-size="14.00">7&#39;1100011</text>
</g>
<!-- v10&#45;&gt;c26 -->
<g id="edge66" class="edge">
<title>v10:e&#45;&gt;c26:w</title>
<path fill="none" stroke="black" stroke-width="3" d="M495.95,-140.86C509.19,-140.86 512.78,-150.64 521.04,-155.68"/>
<polygon fill="black" stroke="black" stroke-width="3" points="517,-158.22 527.56,-157.44 518.82,-151.46 517,-158.22"/>
</g>
<!-- c26&#45;&gt;n12 -->
<g id="edge30" class="edge">
<title>c26:e&#45;&gt;n12:w</title>
<path fill="none" stroke="black" stroke-width="3" d="M627.95,-171.11C639.32,-171.11 644.63,-170.99 652.5,-170.91"/>
<polygon fill="black" stroke="black" stroke-width="3" points="649.42,-174.43 659.41,-170.88 649.39,-167.43 649.42,-174.43"/>
</g>
<!-- c27&#45;&gt;c29 -->
<g id="edge52" class="edge">
<title>c27:e&#45;&gt;c29:w</title>
<path fill="none" stroke="black" stroke-width="3" d="M901.95,-239.11C913.64,-239.11 918.98,-240.41 927.1,-241.13"/>
<polygon fill="black" stroke="black" stroke-width="3" points="923.77,-244.49 933.91,-241.42 924.07,-237.5 923.77,-244.49"/>
</g>
<!-- c28&#45;&gt;c24 -->
<g id="edge53" class="edge">
<title>c28:e&#45;&gt;c24:w</title>
<path fill="none" stroke="black" stroke-width="3" d="M229.34,-266.11C244.45,-266.11 245.96,-250.87 254.69,-243.73"/>
<polygon fill="black" stroke="black" stroke-width="3" points="252.7,-248.1 261.04,-241.57 250.45,-241.47 252.7,-248.1"/>
</g>
<!-- x11 -->
<g id="node29" class="node">
<title>x11</title>
<path fill="none" stroke="black" d="M1078.95,-235.86C1078.95,-235.86 1117.45,-235.86 1117.45,-235.86 1123.45,-235.86 1129.45,-241.86 1129.45,-247.86 1129.45,-247.86 1129.45,-259.86 1129.45,-259.86 1129.45,-265.86 1123.45,-271.86 1117.45,-271.86 1117.45,-271.86 1078.95,-271.86 1078.95,-271.86 1072.95,-271.86 1066.95,-265.86 1066.95,-259.86 1066.95,-259.86 1066.95,-247.86 1066.95,-247.86 1066.95,-241.86 1072.95,-235.86 1078.95,-235.86"/>
<text text-anchor="middle" x="1098.2" y="-249.06" font-family="Times,serif" font-size="14.00">4:0 &#45; 4:0</text>
</g>
<!-- c29&#45;&gt;x11 -->
<g id="edge11" class="edge">
<title>c29:e&#45;&gt;x11:w</title>
<path fill="none" stroke="black" stroke-width="3" d="M1043.35,-254.05C1047.11,-254.01 1050.37,-253.96 1054.14,-253.93"/>
<polygon fill="none" stroke="black" stroke-width="3" points="1045.15,-254.04 1039.17,-258.07 1033.15,-254.1 1039.13,-250.07 1045.15,-254.04"/>
<polygon fill="none" stroke="black" stroke-width="3" points="1052.25,-253.94 1058.23,-249.91 1064.25,-253.88 1058.27,-257.91 1052.25,-253.94"/>
</g>
<!-- x11&#45;&gt;x0 -->
<g id="edge50" class="edge">
<title>x11:e&#45;&gt;x0:w</title>
<path fill="none" stroke="black" stroke-width="3" d="M1129.45,-254.11C1140.9,-254.11 1146.13,-252.09 1153.98,-250.92"/>
<polygon fill="black" stroke="black" stroke-width="3" points="1151.19,-254.63 1160.92,-250.43 1150.7,-247.65 1151.19,-254.63"/>
</g>
<!-- x13 -->
<g id="node32" class="node">
<title>x13</title>
<path fill="none" stroke="black" d="M1810.95,-62.36C1810.95,-62.36 1849.45,-62.36 1849.45,-62.36 1855.45,-62.36 1861.45,-68.36 1861.45,-74.36 1861.45,-74.36 1861.45,-99.36 1861.45,-99.36 1861.45,-105.36 1855.45,-111.36 1849.45,-111.36 1849.45,-111.36 1810.95,-111.36 1810.95,-111.36 1804.95,-111.36 1798.95,-105.36 1798.95,-99.36 1798.95,-99.36 1798.95,-74.36 1798.95,-74.36 1798.95,-68.36 1804.95,-62.36 1810.95,-62.36"/>
<text text-anchor="middle" x="1830.2" y="-94.06" font-family="Times,serif" font-size="14.00">6:5 &#45; 6:5</text>
<polyline fill="none" stroke="black" points="1798.95,-86.86 1861.45,-86.86"/>
<text text-anchor="middle" x="1830.2" y="-69.56" font-family="Times,serif" font-size="14.00">4:0 &#45; 4:0</text>
</g>
<!-- c30&#45;&gt;x13 -->
<g id="edge13" class="edge">
<title>c30:e&#45;&gt;x13:w</title>
<path fill="none" stroke="black" stroke-width="3" d="M1043.67,-87.11C1106.59,-87.08 1126.91,-86.86 1195.7,-86.86 1195.7,-86.86 1195.7,-86.86 1579.7,-86.86 1672.67,-86.86 1699.12,-86.86 1785.98,-86.86"/>
<polygon fill="none" stroke="black" stroke-width="3" points="1045.65,-87.11 1039.66,-91.11 1033.65,-87.11 1039.65,-83.11 1045.65,-87.11"/>
<polygon fill="none" stroke="black" stroke-width="3" points="1784.25,-86.86 1790.25,-82.86 1796.25,-86.86 1790.25,-90.86 1784.25,-86.86"/>
</g>
<!-- x12&#45;&gt;c30 -->
<g id="edge12" class="edge">
<title>x12:e&#45;&gt;c30:w</title>
<path fill="none" stroke="black" stroke-width="3" d="M901.32,-67.88C910.23,-69.37 916.28,-72.15 925.22,-73.63"/>
<polygon fill="none" stroke="black" stroke-width="3" points="903.11,-68.02 896.81,-71.53 891.15,-67.08 897.44,-63.56 903.11,-68.02"/>
<polygon fill="none" stroke="black" stroke-width="3" points="923.29,-73.48 929.58,-69.95 935.25,-74.4 928.96,-77.93 923.29,-73.48"/>
</g>
<!-- x13&#45;&gt;n14 -->
<g id="edge40" class="edge">
<title>x13:e&#45;&gt;n14:w</title>
<path fill="none" stroke="black" stroke-width="3" d="M1861.45,-99.11C1885.49,-99.11 1874.4,-136.67 1886.91,-149"/>
<polygon fill="black" stroke="black" stroke-width="3" points="1882.59,-151.14 1893.19,-151.3 1885.01,-144.57 1882.59,-151.14"/>
</g>
<!-- n7 -->
<g id="node50" class="node">
<title>n7</title>
<ellipse fill="black" stroke="black" cx="2320.7" cy="-67.86" rx="1.8" ry="1.8"/>
</g>
<!-- x13&#45;&gt;n7 -->
<g id="edge54" class="edge">
<title>x13:e&#45;&gt;n7:w</title>
<path fill="none" stroke="black" stroke-width="3" d="M1861.45,-74.61C2060.27,-74.61 2112.76,-68.12 2306.01,-67.87"/>
<polygon fill="black" stroke="black" stroke-width="3" points="2302.89,-71.37 2312.88,-67.87 2302.88,-64.37 2302.89,-71.37"/>
</g>
<!-- v14 -->
<g id="node33" class="node">
<title>v14</title>
<ellipse fill="none" stroke="black" cx="1578.7" cy="-233.86" rx="40.09" ry="18"/>
<text text-anchor="middle" x="1578.7" y="-228.81" font-family="Times,serif" font-size="14.00">5&#39;00000</text>
</g>
<!-- v14&#45;&gt;c31 -->
<g id="edge67" class="edge">
<title>v14:e&#45;&gt;c31:w</title>
<path fill="none" stroke="black" stroke-width="3" d="M1620.17,-233.86C1637.97,-233.86 1645.03,-234.03 1658.64,-234.09"/>
<polygon fill="black" stroke="black" stroke-width="3" points="1655.4,-237.58 1665.41,-234.1 1655.42,-230.58 1655.4,-237.58"/>
</g>
<!-- x15 -->
<g id="node35" class="node">
<title>x15</title>
<path fill="none" stroke="black" d="M1810.95,-328.36C1810.95,-328.36 1849.45,-328.36 1849.45,-328.36 1855.45,-328.36 1861.45,-334.36 1861.45,-340.36 1861.45,-340.36 1861.45,-365.36 1861.45,-365.36 1861.45,-371.36 1855.45,-377.36 1849.45,-377.36 1849.45,-377.36 1810.95,-377.36 1810.95,-377.36 1804.95,-377.36 1798.95,-371.36 1798.95,-365.36 1798.95,-365.36 1798.95,-340.36 1798.95,-340.36 1798.95,-334.36 1804.95,-328.36 1810.95,-328.36"/>
<text text-anchor="middle" x="1830.2" y="-360.06" font-family="Times,serif" font-size="14.00">5:5 &#45; 9:9</text>
<polyline fill="none" stroke="black" points="1798.95,-352.86 1861.45,-352.86"/>
<text text-anchor="middle" x="1830.2" y="-335.56" font-family="Times,serif" font-size="14.00">4:0 &#45; 4:0</text>
</g>
<!-- c31&#45;&gt;x15 -->
<g id="edge14" class="edge">
<title>c31:e&#45;&gt;x15:w</title>
<path fill="none" stroke="black" stroke-width="3" d="M1775.47,-224.85C1806.55,-241.86 1755.33,-333.18 1786.46,-350.15"/>
<polygon fill="none" stroke="black" stroke-width="3" points="1777.32,-225.25 1770.6,-227.88 1765.59,-222.69 1772.31,-220.06 1777.32,-225.25"/>
<polygon fill="none" stroke="black" stroke-width="3" points="1784.58,-349.74 1791.3,-347.11 1796.31,-352.29 1789.6,-354.92 1784.58,-349.74"/>
</g>
<!-- n8 -->
<g id="node51" class="node">
<title>n8</title>
<ellipse fill="black" stroke="black" cx="1952.7" cy="-364.86" rx="1.8" ry="1.8"/>
</g>
<!-- x15&#45;&gt;n8 -->
<g id="edge57" class="edge">
<title>x15:e&#45;&gt;n8:w</title>
<path fill="none" stroke="black" stroke-width="3" d="M1861.45,-340.61C1897.89,-340.61 1907.13,-360.19 1938.04,-364.16"/>
<polygon fill="black" stroke="black" stroke-width="3" points="1934.7,-367.47 1944.89,-364.59 1935.13,-360.48 1934.7,-367.47"/>
</g>
<!-- x15&#45;&gt;n8 -->
<g id="edge58" class="edge">
<title>x15:e&#45;&gt;n8:w</title>
<path fill="none" stroke="black" d="M1861.45,-365.11C1896.43,-365.11 1907.94,-364.91 1937.96,-364.87"/>
<polygon fill="black" stroke="black" points="1937.91,-368.37 1947.91,-364.87 1937.91,-361.37 1937.91,-368.37"/>
</g>
<!-- c32 -->
<g id="node36" class="node">
<title>c32</title>
<polygon fill="none" stroke="black" points="2654.18,-253.36 2654.18,-302.36 2747.18,-302.36 2747.18,-253.36 2654.18,-253.36"/>
<text text-anchor="middle" x="2667.06" y="-285.06" font-family="Times,serif" font-size="14.00">A</text>
<polyline fill="none" stroke="black" points="2654.18,-277.86 2679.93,-277.86"/>
<text text-anchor="middle" x="2667.06" y="-260.56" font-family="Times,serif" font-size="14.00">B</text>
<polyline fill="none" stroke="black" points="2679.93,-253.36 2679.93,-302.36"/>
<text text-anchor="middle" x="2700.68" y="-281.06" font-family="Times,serif" font-size="14.00">$19</text>
<text text-anchor="middle" x="2700.68" y="-264.56" font-family="Times,serif" font-size="14.00">$sub</text>
<polyline fill="none" stroke="black" points="2721.43,-253.36 2721.43,-302.36"/>
<text text-anchor="middle" x="2734.31" y="-273.06" font-family="Times,serif" font-size="14.00">Y</text>
</g>
<!-- x18 -->
<g id="node39" class="node">
<title>x18</title>
<path fill="none" stroke="black" d="M2823.16,-252.36C2823.16,-252.36 2861.66,-252.36 2861.66,-252.36 2867.66,-252.36 2873.66,-258.36 2873.66,-264.36 2873.66,-264.36 2873.66,-289.36 2873.66,-289.36 2873.66,-295.36 2867.66,-301.36 2861.66,-301.36 2861.66,-301.36 2823.16,-301.36 2823.16,-301.36 2817.16,-301.36 2811.16,-295.36 2811.16,-289.36 2811.16,-289.36 2811.16,-264.36 2811.16,-264.36 2811.16,-258.36 2817.16,-252.36 2823.16,-252.36"/>
<text text-anchor="middle" x="2842.41" y="-284.06" font-family="Times,serif" font-size="14.00">9:7 &#45; 9:7</text>
<polyline fill="none" stroke="black" points="2811.16,-276.86 2873.66,-276.86"/>
<text text-anchor="middle" x="2842.41" y="-259.56" font-family="Times,serif" font-size="14.00">6:0 &#45; 6:0</text>
</g>
<!-- c32&#45;&gt;x18 -->
<g id="edge17" class="edge">
<title>c32:e&#45;&gt;x18:w</title>
<path fill="none" stroke="black" stroke-width="3" d="M2761.02,-278.01C2775.04,-277.78 2783.39,-277.2 2797.45,-276.96"/>
<polygon fill="none" stroke="black" stroke-width="3" points="2762.89,-278 2756.92,-282.04 2750.89,-278.09 2756.85,-274.04 2762.89,-278"/>
<polygon fill="none" stroke="black" stroke-width="3" points="2795.46,-276.98 2801.43,-272.93 2807.46,-276.89 2801.49,-280.93 2795.46,-276.98"/>
</g>
<!-- x16 -->
<g id="node37" class="node">
<title>x16</title>
<path fill="none" stroke="black" d="M2055.95,-393.36C2055.95,-393.36 2111.7,-393.36 2111.7,-393.36 2117.7,-393.36 2123.7,-399.36 2123.7,-405.36 2123.7,-405.36 2123.7,-430.36 2123.7,-430.36 2123.7,-436.36 2117.7,-442.36 2111.7,-442.36 2111.7,-442.36 2055.95,-442.36 2055.95,-442.36 2049.95,-442.36 2043.95,-436.36 2043.95,-430.36 2043.95,-430.36 2043.95,-405.36 2043.95,-405.36 2043.95,-399.36 2049.95,-393.36 2055.95,-393.36"/>
<text text-anchor="middle" x="2083.83" y="-425.06" font-family="Times,serif" font-size="14.00">5x 9:9 &#45; 9:5</text>
<polyline fill="none" stroke="black" points="2043.95,-417.86 2123.7,-417.86"/>
<text text-anchor="middle" x="2083.83" y="-400.56" font-family="Times,serif" font-size="14.00">4:0 &#45; 4:0</text>
</g>
<!-- x16&#45;&gt;c32 -->
<g id="edge15" class="edge">
<title>x16:e&#45;&gt;c32:w</title>
<path fill="none" stroke="black" stroke-width="3" d="M2136.49,-417.82C2213.23,-417.27 2236.98,-411.86 2319.7,-411.86 2319.7,-411.86 2319.7,-411.86 2444.2,-411.86 2547.18,-411.86 2545.99,-300.12 2640.22,-290.74"/>
<polygon fill="none" stroke="black" stroke-width="3" points="2138.41,-417.81 2132.42,-421.83 2126.41,-417.85 2132.39,-413.83 2138.41,-417.81"/>
<polygon fill="none" stroke="black" stroke-width="3" points="2638.5,-290.82 2644.3,-286.54 2650.48,-290.24 2644.68,-294.53 2638.5,-290.82"/>
</g>
<!-- x17&#45;&gt;c32 -->
<g id="edge16" class="edge">
<title>x17:e&#45;&gt;c32:w</title>
<path fill="none" stroke="black" stroke-width="3" d="M2609.73,-265.84C2621.38,-265.79 2628.78,-265.69 2640.43,-265.64"/>
<polygon fill="none" stroke="black" stroke-width="3" points="2611.66,-265.84 2605.67,-269.85 2599.66,-265.86 2605.65,-261.85 2611.66,-265.84"/>
<polygon fill="none" stroke="black" stroke-width="3" points="2638.48,-265.64 2644.47,-261.63 2650.48,-265.62 2644.49,-269.63 2638.48,-265.64"/>
</g>
<!-- x18&#45;&gt;n11 -->
<g id="edge26" class="edge">
<title>x18:e&#45;&gt;n11:w</title>
<path fill="none" stroke="black" stroke-width="3" d="M2874.66,-289.11C2891.68,-289.11 2894.41,-304.52 2905.4,-311.03"/>
<polygon fill="black" stroke="black" stroke-width="3" points="2901.46,-313.62 2912.02,-312.73 2903.2,-306.85 2901.46,-313.62"/>
</g>
<!-- n9 -->
<g id="node52" class="node">
<title>n9</title>
<ellipse fill="black" stroke="black" cx="3269.02" cy="-265.86" rx="1.8" ry="1.8"/>
</g>
<!-- x18&#45;&gt;n9 -->
<g id="edge63" class="edge">
<title>x18:e&#45;&gt;n9:w</title>
<path fill="none" stroke="black" stroke-width="3" d="M2874.66,-264.61C3033.14,-264.61 3072.99,-253.1 3231.22,-261.86 3242.65,-262.5 3247.89,-264.25 3255.75,-265.21"/>
<polygon fill="black" stroke="black" stroke-width="3" points="3252.51,-268.54 3262.69,-265.61 3252.91,-261.55 3252.51,-268.54"/>
</g>
<!-- x20 -->
<g id="node41" class="node">
<title>x20</title>
<path fill="none" stroke="black" d="M2187.33,-134.86C2187.33,-134.86 2225.83,-134.86 2225.83,-134.86 2231.83,-134.86 2237.83,-140.86 2237.83,-146.86 2237.83,-146.86 2237.83,-158.86 2237.83,-158.86 2237.83,-164.86 2231.83,-170.86 2225.83,-170.86 2225.83,-170.86 2187.33,-170.86 2187.33,-170.86 2181.33,-170.86 2175.33,-164.86 2175.33,-158.86 2175.33,-158.86 2175.33,-146.86 2175.33,-146.86 2175.33,-140.86 2181.33,-134.86 2187.33,-134.86"/>
<text text-anchor="middle" x="2206.58" y="-148.06" font-family="Times,serif" font-size="14.00">1:0 &#45; 6:5</text>
</g>
<!-- x19&#45;&gt;x20 -->
<g id="edge18" class="edge">
<title>x19:e&#45;&gt;x20:w</title>
<path fill="none" stroke="black" stroke-width="3" d="M2128.85,-152.86C2141.27,-152.86 2149,-152.86 2161.38,-152.86"/>
<polygon fill="none" stroke="black" stroke-width="3" points="2130.78,-152.86 2124.78,-156.86 2118.78,-152.86 2124.78,-148.86 2130.78,-152.86"/>
<polygon fill="none" stroke="black" stroke-width="3" points="2159.62,-152.86 2165.62,-148.86 2171.62,-152.86 2165.62,-156.86 2159.62,-152.86"/>
</g>
<!-- x20&#45;&gt;n7 -->
<g id="edge55" class="edge">
<title>x20:e&#45;&gt;n7:w</title>
<path fill="none" stroke="black" stroke-width="3" d="M2238.83,-153.11C2286.13,-153.11 2269.39,-81.28 2306.19,-69.49"/>
<polygon fill="black" stroke="black" stroke-width="3" points="2303.54,-73.41 2312.93,-68.52 2302.53,-66.48 2303.54,-73.41"/>
</g>
<!-- x21 -->
<g id="node42" class="node">
<title>x21</title>
<path fill="none" stroke="black" d="M2055.95,-299.86C2055.95,-299.86 2111.7,-299.86 2111.7,-299.86 2117.7,-299.86 2123.7,-305.86 2123.7,-311.86 2123.7,-311.86 2123.7,-323.86 2123.7,-323.86 2123.7,-329.86 2117.7,-335.86 2111.7,-335.86 2111.7,-335.86 2055.95,-335.86 2055.95,-335.86 2049.95,-335.86 2043.95,-329.86 2043.95,-323.86 2043.95,-323.86 2043.95,-311.86 2043.95,-311.86 2043.95,-305.86 2049.95,-299.86 2055.95,-299.86"/>
<text text-anchor="middle" x="2083.83" y="-313.06" font-family="Times,serif" font-size="14.00">4x 9:9 &#45; 3:0</text>
</g>
<!-- x22 -->
<g id="node43" class="node">
<title>x22</title>
<path fill="none" stroke="black" d="M2187.33,-336.86C2187.33,-336.86 2225.83,-336.86 2225.83,-336.86 2231.83,-336.86 2237.83,-342.86 2237.83,-348.86 2237.83,-348.86 2237.83,-360.86 2237.83,-360.86 2237.83,-366.86 2231.83,-372.86 2225.83,-372.86 2225.83,-372.86 2187.33,-372.86 2187.33,-372.86 2181.33,-372.86 2175.33,-366.86 2175.33,-360.86 2175.33,-360.86 2175.33,-348.86 2175.33,-348.86 2175.33,-342.86 2181.33,-336.86 2187.33,-336.86"/>
<text text-anchor="middle" x="2206.58" y="-350.06" font-family="Times,serif" font-size="14.00">3:0 &#45; 8:5</text>
</g>
<!-- x21&#45;&gt;x22 -->
<g id="edge19" class="edge">
<title>x21:e&#45;&gt;x22:w</title>
<path fill="none" stroke="black" stroke-width="3" d="M2135.91,-321.02C2147.43,-327.94 2150.43,-344.4 2161.78,-351.51"/>
<polygon fill="none" stroke="black" stroke-width="3" points="2137.94,-321.54 2131.13,-323.91 2126.32,-318.54 2133.13,-316.17 2137.94,-321.54"/>
<polygon fill="none" stroke="black" stroke-width="3" points="2160.12,-351.06 2166.95,-348.75 2171.72,-354.16 2164.88,-356.48 2160.12,-351.06"/>
</g>
<!-- x22&#45;&gt;n8 -->
<g id="edge59" class="edge">
<title>x22:e&#45;&gt;n8:w</title>
<path fill="none" stroke="black" stroke-width="3" d="M2238.83,-355.11C2246.95,-355.11 2243.73,-367.78 2237.83,-373.36 2217.66,-392.46 2203.1,-373.78 2175.33,-373.36 2128.75,-372.67 2010.83,-390.02 1959.57,-369.92"/>
<polygon fill="black" stroke="black" stroke-width="3" points="1964,-368.21 1953.49,-366.89 1960.88,-374.48 1964,-368.21"/>
</g>
<!-- x24 -->
<g id="node45" class="node">
<title>x24</title>
<path fill="none" stroke="black" d="M3180.72,-270.86C3180.72,-270.86 3219.22,-270.86 3219.22,-270.86 3225.22,-270.86 3231.22,-276.86 3231.22,-282.86 3231.22,-282.86 3231.22,-294.86 3231.22,-294.86 3231.22,-300.86 3225.22,-306.86 3219.22,-306.86 3219.22,-306.86 3180.72,-306.86 3180.72,-306.86 3174.72,-306.86 3168.72,-300.86 3168.72,-294.86 3168.72,-294.86 3168.72,-282.86 3168.72,-282.86 3168.72,-276.86 3174.72,-270.86 3180.72,-270.86"/>
<text text-anchor="middle" x="3199.97" y="-284.06" font-family="Times,serif" font-size="14.00">2:0 &#45; 9:7</text>
</g>
<!-- x23&#45;&gt;x24 -->
<g id="edge20" class="edge">
<title>x23:e&#45;&gt;x24:w</title>
<path fill="none" stroke="black" stroke-width="3" d="M3145.45,-288.86C3149.04,-288.86 3152.18,-288.86 3155.75,-288.86"/>
<polygon fill="none" stroke="black" stroke-width="3" points="3147.43,-288.86 3141.43,-292.86 3135.43,-288.86 3141.43,-284.86 3147.43,-288.86"/>
<polygon fill="none" stroke="black" stroke-width="3" points="3154.02,-288.86 3160.02,-284.86 3166.02,-288.86 3160.02,-292.86 3154.02,-288.86"/>
</g>
<!-- x24&#45;&gt;n9 -->
<g id="edge64" class="edge">
<title>x24:e&#45;&gt;n9:w</title>
<path fill="none" stroke="black" stroke-width="3" d="M3231.22,-289.11C3245.66,-289.11 3247.95,-275.76 3256.51,-269.29"/>
<polygon fill="black" stroke="black" stroke-width="3" points="3254.44,-273.63 3262.9,-267.25 3252.31,-266.96 3254.44,-273.63"/>
</g>
<!-- v25 -->
<g id="node46" class="node">
<title>v25</title>
<ellipse fill="none" stroke="black" cx="2700.68" cy="-338.86" rx="67.73" ry="18"/>
<text text-anchor="middle" x="2700.68" y="-333.81" font-family="Times,serif" font-size="14.00">10&#39;0000000000</text>
</g>
<!-- x26 -->
<g id="node47" class="node">
<title>x26</title>
<path fill="none" stroke="black" d="M2816.41,-320.86C2816.41,-320.86 2868.41,-320.86 2868.41,-320.86 2874.41,-320.86 2880.41,-326.86 2880.41,-332.86 2880.41,-332.86 2880.41,-344.86 2880.41,-344.86 2880.41,-350.86 2874.41,-356.86 2868.41,-356.86 2868.41,-356.86 2816.41,-356.86 2816.41,-356.86 2810.41,-356.86 2804.41,-350.86 2804.41,-344.86 2804.41,-344.86 2804.41,-332.86 2804.41,-332.86 2804.41,-326.86 2810.41,-320.86 2816.41,-320.86"/>
<text text-anchor="middle" x="2842.41" y="-334.06" font-family="Times,serif" font-size="14.00">9:0 &#45; 19:10</text>
</g>
<!-- v25&#45;&gt;x26 -->
<g id="edge68" class="edge">
<title>v25:e&#45;&gt;x26:w</title>
<path fill="none" stroke="black" stroke-width="3" d="M2768.41,-338.86C2779.79,-338.86 2785.1,-338.86 2792.97,-338.86"/>
<polygon fill="black" stroke="black" stroke-width="3" points="2789.87,-342.36 2799.87,-338.86 2789.87,-335.36 2789.87,-342.36"/>
</g>
<!-- x26&#45;&gt;n11 -->
<g id="edge27" class="edge">
<title>x26:e&#45;&gt;n11:w</title>
<path fill="none" stroke="black" stroke-width="3" d="M2880.41,-339.11C2895.22,-339.11 2897.04,-324.61 2905.55,-317.59"/>
<polygon fill="black" stroke="black" stroke-width="3" points="2903.79,-321.89 2912.12,-315.34 2901.52,-315.27 2903.79,-321.89"/>
</g>
<!-- v27 -->
<g id="node48" class="node">
<title>v27</title>
<ellipse fill="none" stroke="black" cx="2206.58" cy="-285.86" rx="27" ry="18"/>
<text text-anchor="middle" x="2206.58" y="-280.81" font-family="Times,serif" font-size="14.00">1&#39;0</text>
</g>
<!-- x28 -->
<g id="node49" class="node">
<title>x28</title>
<path fill="none" stroke="black" d="M2301.45,-264.86C2301.45,-264.86 2339.95,-264.86 2339.95,-264.86 2345.95,-264.86 2351.95,-270.86 2351.95,-276.86 2351.95,-276.86 2351.95,-288.86 2351.95,-288.86 2351.95,-294.86 2345.95,-300.86 2339.95,-300.86 2339.95,-300.86 2301.45,-300.86 2301.45,-300.86 2295.45,-300.86 2289.45,-294.86 2289.45,-288.86 2289.45,-288.86 2289.45,-276.86 2289.45,-276.86 2289.45,-270.86 2295.45,-264.86 2301.45,-264.86"/>
<text text-anchor="middle" x="2320.7" y="-278.06" font-family="Times,serif" font-size="14.00">0:0 &#45; 2:2</text>
</g>
<!-- v27&#45;&gt;x28 -->
<g id="edge69" class="edge">
<title>v27:e&#45;&gt;x28:w</title>
<path fill="none" stroke="black" d="M2234.83,-285.86C2254.96,-285.86 2262.54,-283.81 2278.35,-283.1"/>
<polygon fill="black" stroke="black" points="2278.02,-286.61 2287.94,-282.9 2277.87,-279.61 2278.02,-286.61"/>
</g>
<!-- x28&#45;&gt;n15 -->
<g id="edge46" class="edge">
<title>x28:e&#45;&gt;n15:w</title>
<path fill="none" stroke="black" d="M2351.95,-283.11C2367.9,-283.11 2368.38,-265.62 2377.32,-257.69"/>
<polygon fill="black" stroke="black" points="2378.3,-261.05 2386.53,-254.38 2375.93,-254.47 2378.3,-261.05"/>
</g>
<!-- n7&#45;&gt;x3 -->
<g id="edge56" class="edge">
<title>n7:e&#45;&gt;x3:w</title>
<path fill="none" stroke="black" stroke-width="3" d="M2323.98,-67.86C2359.88,-67.86 2369.22,-49.5 2399.73,-45.77"/>
<polygon fill="black" stroke="black" stroke-width="3" points="2396.64,-49.46 2406.42,-45.38 2396.23,-42.47 2396.64,-49.46"/>
</g>
<!-- n8&#45;&gt;x16 -->
<g id="edge60" class="edge">
<title>n8:e&#45;&gt;x16:w</title>
<path fill="none" stroke="black" stroke-width="3" d="M1955.98,-364.86C1995.03,-364.86 2000.16,-398.33 2032.85,-404.61"/>
<polygon fill="black" stroke="black" stroke-width="3" points="2029.15,-407.79 2039.43,-405.2 2029.79,-400.81 2029.15,-407.79"/>
</g>
<!-- n8&#45;&gt;x16 -->
<g id="edge61" class="edge">
<title>n8:e&#45;&gt;x16:w</title>
<path fill="none" stroke="black" stroke-width="3" d="M1955.98,-364.86C2000.48,-364.86 1996.46,-419.38 2032.61,-428.75"/>
<polygon fill="black" stroke="black" stroke-width="3" points="2029.1,-431.85 2039.44,-429.57 2029.93,-424.9 2029.1,-431.85"/>
</g>
<!-- n8&#45;&gt;x21 -->
<g id="edge62" class="edge">
<title>n8:e&#45;&gt;x21:w</title>
<path fill="none" stroke="black" stroke-width="3" d="M1955.98,-364.86C1996.11,-364.86 1999.39,-326.47 2032.61,-319.27"/>
<polygon fill="black" stroke="black" stroke-width="3" points="2029.84,-323.07 2039.44,-318.57 2029.13,-316.11 2029.84,-323.07"/>
</g>
<!-- n9&#45;&gt;x8 -->
<g id="edge65" class="edge">
<title>n9:e&#45;&gt;x8:w</title>
<path fill="none" stroke="black" stroke-width="3" d="M3270.82,-265.86C3282.2,-265.86 3287.51,-265.99 3295.38,-266.06"/>
<polygon fill="black" stroke="black" stroke-width="3" points="3292.27,-269.55 3302.28,-266.09 3292.3,-262.55 3292.27,-269.55"/>
</g>
</g>
</svg>
