<?xml version="1.0" encoding="UTF-8" standalone="no"?>
<!DOCTYPE svg PUBLIC "-//W3C//DTD SVG 1.1//EN"
 "http://www.w3.org/Graphics/SVG/1.1/DTD/svg11.dtd">
<!-- Generated by graphviz version 12.2.1 (20241206.2353)
 -->
<!-- Title: top Pages: 1 -->
<svg width="3930pt" height="642pt"
 viewBox="0.00 0.00 3930.36 641.93" xmlns="http://www.w3.org/2000/svg" xmlns:xlink="http://www.w3.org/1999/xlink">
<g id="graph0" class="graph" transform="scale(1 1) rotate(0) translate(4 637.93)">
<title>top</title>
<polygon fill="white" stroke="none" points="-4,4 -4,-637.93 3926.36,-637.93 3926.36,4 -4,4"/>
<text text-anchor="middle" x="1961.18" y="-7.2" font-family="Times,serif" font-size="14.00">top</text>
<!-- n14 -->
<g id="node1" class="node">
<title>n14</title>
<polygon fill="none" stroke="black" points="107.84,-344.54 107.84,-359.46 76.26,-370 31.59,-370 0,-359.46 0,-344.54 31.59,-334 76.26,-334 107.84,-344.54"/>
<text text-anchor="middle" x="53.92" y="-346.95" font-family="Times,serif" font-size="14.00">input_data</text>
</g>
<!-- c21 -->
<g id="node7" class="node">
<title>c21</title>
<polygon fill="none" stroke="black" points="144.59,-550.5 144.59,-591.5 236.09,-591.5 236.09,-550.5 144.59,-550.5"/>
<text text-anchor="middle" x="157.47" y="-566.2" font-family="Times,serif" font-size="14.00">A</text>
<polyline fill="none" stroke="black" points="170.34,-550.5 170.34,-591.5"/>
<text text-anchor="middle" x="190.34" y="-574.2" font-family="Times,serif" font-size="14.00">$59</text>
<text text-anchor="middle" x="190.34" y="-557.7" font-family="Times,serif" font-size="14.00">$not</text>
<polyline fill="none" stroke="black" points="210.34,-550.5 210.34,-591.5"/>
<text text-anchor="middle" x="223.22" y="-566.2" font-family="Times,serif" font-size="14.00">Y</text>
</g>
<!-- n14&#45;&gt;c21 -->
<g id="edge35" class="edge">
<title>n14:e&#45;&gt;c21:w</title>
<path fill="none" stroke="black" stroke-width="3" d="M107.84,-352C202.35,-352 58.49,-552.81 132.51,-570.07"/>
<polygon fill="black" stroke="black" stroke-width="3" points="129.02,-573.23 139.32,-570.78 129.74,-566.26 129.02,-573.23"/>
</g>
<!-- c22 -->
<g id="node8" class="node">
<title>c22</title>
<polygon fill="none" stroke="black" points="945.84,-481.5 945.84,-530.5 1039.59,-530.5 1039.59,-481.5 945.84,-481.5"/>
<text text-anchor="middle" x="958.72" y="-513.2" font-family="Times,serif" font-size="14.00">A</text>
<polyline fill="none" stroke="black" points="945.84,-506 971.59,-506"/>
<text text-anchor="middle" x="958.72" y="-488.7" font-family="Times,serif" font-size="14.00">B</text>
<polyline fill="none" stroke="black" points="971.59,-481.5 971.59,-530.5"/>
<text text-anchor="middle" x="992.72" y="-509.2" font-family="Times,serif" font-size="14.00">$63</text>
<text text-anchor="middle" x="992.72" y="-492.7" font-family="Times,serif" font-size="14.00">$and</text>
<polyline fill="none" stroke="black" points="1013.84,-481.5 1013.84,-530.5"/>
<text text-anchor="middle" x="1026.72" y="-501.2" font-family="Times,serif" font-size="14.00">Y</text>
</g>
<!-- n14&#45;&gt;c22 -->
<g id="edge36" class="edge">
<title>n14:e&#45;&gt;c22:w</title>
<path fill="none" stroke="black" stroke-width="3" d="M107.84,-352C156.33,-352 106.98,-423.49 143.84,-455 198.52,-501.75 231.15,-484 303.09,-484 303.09,-484 303.09,-484 764.34,-484 841.18,-484 862.97,-492.82 934.43,-493.68"/>
<polygon fill="black" stroke="black" stroke-width="3" points="931.28,-497.16 941.3,-493.72 931.32,-490.16 931.28,-497.16"/>
</g>
<!-- c23 -->
<g id="node11" class="node">
<title>c23</title>
<polygon fill="none" stroke="black" points="2825.05,-304.5 2825.05,-353.5 2917.3,-353.5 2917.3,-304.5 2825.05,-304.5"/>
<text text-anchor="middle" x="2837.92" y="-336.2" font-family="Times,serif" font-size="14.00">A</text>
<polyline fill="none" stroke="black" points="2825.05,-329 2850.8,-329"/>
<text text-anchor="middle" x="2837.92" y="-311.7" font-family="Times,serif" font-size="14.00">B</text>
<polyline fill="none" stroke="black" points="2850.8,-304.5 2850.8,-353.5"/>
<text text-anchor="middle" x="2871.17" y="-332.2" font-family="Times,serif" font-size="14.00">$70</text>
<text text-anchor="middle" x="2871.17" y="-315.7" font-family="Times,serif" font-size="14.00">$xor</text>
<polyline fill="none" stroke="black" points="2891.55,-304.5 2891.55,-353.5"/>
<text text-anchor="middle" x="2904.42" y="-324.2" font-family="Times,serif" font-size="14.00">Y</text>
</g>
<!-- n14&#45;&gt;c23 -->
<g id="edge37" class="edge">
<title>n14:e&#45;&gt;c23:w</title>
<path fill="none" stroke="black" stroke-width="3" d="M107.84,-352C152.04,-352 258.89,-314 303.09,-314 303.09,-314 303.09,-314 2689.75,-314 2745.9,-314 2762.71,-316.4 2813.64,-316.72"/>
<polygon fill="black" stroke="black" stroke-width="3" points="2810.5,-320.21 2820.51,-316.74 2810.52,-313.21 2810.5,-320.21"/>
</g>
<!-- c24 -->
<g id="node13" class="node">
<title>c24</title>
<polygon fill="none" stroke="black" points="2953.3,-263.5 2953.3,-312.5 3045.55,-312.5 3045.55,-263.5 2953.3,-263.5"/>
<text text-anchor="middle" x="2966.17" y="-295.2" font-family="Times,serif" font-size="14.00">A</text>
<polyline fill="none" stroke="black" points="2953.3,-288 2979.05,-288"/>
<text text-anchor="middle" x="2966.17" y="-270.7" font-family="Times,serif" font-size="14.00">B</text>
<polyline fill="none" stroke="black" points="2979.05,-263.5 2979.05,-312.5"/>
<text text-anchor="middle" x="2999.42" y="-291.2" font-family="Times,serif" font-size="14.00">$73</text>
<text text-anchor="middle" x="2999.42" y="-274.7" font-family="Times,serif" font-size="14.00">$xor</text>
<polyline fill="none" stroke="black" points="3019.8,-263.5 3019.8,-312.5"/>
<text text-anchor="middle" x="3032.67" y="-283.2" font-family="Times,serif" font-size="14.00">Y</text>
</g>
<!-- n14&#45;&gt;c24 -->
<g id="edge38" class="edge">
<title>n14:e&#45;&gt;c24:w</title>
<path fill="none" stroke="black" stroke-width="3" d="M107.84,-352C128.67,-352 125.44,-331.76 143.84,-322 208.91,-287.46 229.42,-276 303.09,-276 303.09,-276 303.09,-276 2758.8,-276 2841.36,-276 2864.78,-275.77 2942.03,-275.75"/>
<polygon fill="black" stroke="black" stroke-width="3" points="2938.76,-279.25 2948.76,-275.75 2938.76,-272.25 2938.76,-279.25"/>
</g>
<!-- c25 -->
<g id="node14" class="node">
<title>c25</title>
<polygon fill="none" stroke="black" points="3081.55,-158.5 3081.55,-207.5 3169.3,-207.5 3169.3,-158.5 3081.55,-158.5"/>
<text text-anchor="middle" x="3094.42" y="-190.2" font-family="Times,serif" font-size="14.00">A</text>
<polyline fill="none" stroke="black" points="3081.55,-183 3107.3,-183"/>
<text text-anchor="middle" x="3094.42" y="-165.7" font-family="Times,serif" font-size="14.00">B</text>
<polyline fill="none" stroke="black" points="3107.3,-158.5 3107.3,-207.5"/>
<text text-anchor="middle" x="3125.42" y="-186.2" font-family="Times,serif" font-size="14.00">$76</text>
<text text-anchor="middle" x="3125.42" y="-169.7" font-family="Times,serif" font-size="14.00">$or</text>
<polyline fill="none" stroke="black" points="3143.55,-158.5 3143.55,-207.5"/>
<text text-anchor="middle" x="3156.42" y="-178.2" font-family="Times,serif" font-size="14.00">Y</text>
</g>
<!-- n14&#45;&gt;c25 -->
<g id="edge39" class="edge">
<title>n14:e&#45;&gt;c25:w</title>
<path fill="none" stroke="black" stroke-width="3" d="M107.84,-352C182.03,-352 102.84,-250.83 143.84,-189 191.8,-116.67 216.31,-76 303.09,-76 303.09,-76 303.09,-76 2872.17,-76 2970.42,-76 2978.88,-163.67 3070.29,-170.35"/>
<polygon fill="black" stroke="black" stroke-width="3" points="3066.89,-173.73 3077.01,-170.59 3067.14,-166.73 3066.89,-173.73"/>
</g>
<!-- x6 -->
<g id="node17" class="node">
<title>x6</title>
<path fill="none" stroke="black" d="M383.34,-419C383.34,-419 421.84,-419 421.84,-419 427.84,-419 433.84,-425 433.84,-431 433.84,-431 433.84,-443 433.84,-443 433.84,-449 427.84,-455 421.84,-455 421.84,-455 383.34,-455 383.34,-455 377.34,-455 371.34,-449 371.34,-443 371.34,-443 371.34,-431 371.34,-431 371.34,-425 377.34,-419 383.34,-419"/>
<text text-anchor="middle" x="402.59" y="-432.2" font-family="Times,serif" font-size="14.00">5:1 &#45; 4:0</text>
</g>
<!-- n14&#45;&gt;x6 -->
<g id="edge47" class="edge">
<title>n14:e&#45;&gt;x6:w</title>
<path fill="none" stroke="black" stroke-width="3" d="M107.84,-352C144.82,-352 113,-406.61 143.84,-427 225.06,-480.69 266.88,-440.57 360.03,-437.44"/>
<polygon fill="black" stroke="black" stroke-width="3" points="356.86,-440.99 366.8,-437.33 356.74,-434 356.86,-440.99"/>
</g>
<!-- c27 -->
<g id="node19" class="node">
<title>c27</title>
<polygon fill="none" stroke="black" points="3303.8,-45.5 3303.8,-94.5 3399.8,-94.5 3399.8,-45.5 3303.8,-45.5"/>
<text text-anchor="middle" x="3316.67" y="-77.2" font-family="Times,serif" font-size="14.00">A</text>
<polyline fill="none" stroke="black" points="3303.8,-70 3329.55,-70"/>
<text text-anchor="middle" x="3316.67" y="-52.7" font-family="Times,serif" font-size="14.00">B</text>
<polyline fill="none" stroke="black" points="3329.55,-45.5 3329.55,-94.5"/>
<text text-anchor="middle" x="3351.8" y="-73.2" font-family="Times,serif" font-size="14.00">$13</text>
<text text-anchor="middle" x="3351.8" y="-56.7" font-family="Times,serif" font-size="14.00">$mul</text>
<polyline fill="none" stroke="black" points="3374.05,-45.5 3374.05,-94.5"/>
<text text-anchor="middle" x="3386.92" y="-65.2" font-family="Times,serif" font-size="14.00">Y</text>
</g>
<!-- n14&#45;&gt;c27 -->
<g id="edge40" class="edge">
<title>n14:e&#45;&gt;c27:w</title>
<path fill="none" stroke="black" stroke-width="3" d="M107.84,-352C167.93,-352 104.6,-129.51 143.84,-84 191.95,-28.21 229.42,-38 303.09,-38 303.09,-38 303.09,-38 3126.42,-38 3201.87,-38 3222.5,-55.87 3292.6,-57.61"/>
<polygon fill="black" stroke="black" stroke-width="3" points="3289.22,-61.07 3299.26,-57.69 3289.3,-54.07 3289.22,-61.07"/>
</g>
<!-- c28 -->
<g id="node21" class="node">
<title>c28</title>
<polygon fill="none" stroke="black" points="715.34,-512.5 715.34,-561.5 811.34,-561.5 811.34,-512.5 715.34,-512.5"/>
<text text-anchor="middle" x="728.22" y="-544.2" font-family="Times,serif" font-size="14.00">A</text>
<polyline fill="none" stroke="black" points="715.34,-537 741.09,-537"/>
<text text-anchor="middle" x="728.22" y="-519.7" font-family="Times,serif" font-size="14.00">B</text>
<polyline fill="none" stroke="black" points="741.09,-512.5 741.09,-561.5"/>
<text text-anchor="middle" x="763.34" y="-540.2" font-family="Times,serif" font-size="14.00">$5</text>
<text text-anchor="middle" x="763.34" y="-523.7" font-family="Times,serif" font-size="14.00">$mul</text>
<polyline fill="none" stroke="black" points="785.59,-512.5 785.59,-561.5"/>
<text text-anchor="middle" x="798.47" y="-532.2" font-family="Times,serif" font-size="14.00">Y</text>
</g>
<!-- n14&#45;&gt;c28 -->
<g id="edge41" class="edge">
<title>n14:e&#45;&gt;c28:w</title>
<path fill="none" stroke="black" stroke-width="3" d="M107.84,-352C174.67,-352 94.46,-452.97 143.84,-498 196.73,-546.23 231.51,-522 303.09,-522 303.09,-522 303.09,-522 510.72,-522 597.76,-522 622.31,-524.52 703.98,-524.74"/>
<polygon fill="black" stroke="black" stroke-width="3" points="700.8,-528.23 710.8,-524.74 700.8,-521.23 700.8,-528.23"/>
</g>
<!-- c30 -->
<g id="node26" class="node">
<title>c30</title>
<polygon fill="none" stroke="black" points="2318.35,-352.5 2318.35,-401.5 2414.35,-401.5 2414.35,-352.5 2318.35,-352.5"/>
<text text-anchor="middle" x="2331.22" y="-384.2" font-family="Times,serif" font-size="14.00">A</text>
<polyline fill="none" stroke="black" points="2318.35,-377 2344.1,-377"/>
<text text-anchor="middle" x="2331.22" y="-359.7" font-family="Times,serif" font-size="14.00">B</text>
<polyline fill="none" stroke="black" points="2344.1,-352.5 2344.1,-401.5"/>
<text text-anchor="middle" x="2366.35" y="-380.2" font-family="Times,serif" font-size="14.00">$9</text>
<text text-anchor="middle" x="2366.35" y="-363.7" font-family="Times,serif" font-size="14.00">$mul</text>
<polyline fill="none" stroke="black" points="2388.6,-352.5 2388.6,-401.5"/>
<text text-anchor="middle" x="2401.47" y="-372.2" font-family="Times,serif" font-size="14.00">Y</text>
</g>
<!-- n14&#45;&gt;c30 -->
<g id="edge42" class="edge">
<title>n14:e&#45;&gt;c30:w</title>
<path fill="none" stroke="black" stroke-width="3" d="M107.84,-352C194.62,-352 216.31,-352 303.09,-352 303.09,-352 303.09,-352 2183.05,-352 2239.44,-352 2255.82,-363.11 2306.9,-364.59"/>
<polygon fill="black" stroke="black" stroke-width="3" points="2303.76,-368.04 2313.81,-364.69 2303.86,-361.05 2303.76,-368.04"/>
</g>
<!-- x12 -->
<g id="node27" class="node">
<title>x12</title>
<path fill="none" stroke="black" d="M2231.85,-489.25C2231.85,-489.25 2270.35,-489.25 2270.35,-489.25 2276.35,-489.25 2282.35,-495.25 2282.35,-501.25 2282.35,-501.25 2282.35,-550.75 2282.35,-550.75 2282.35,-556.75 2276.35,-562.75 2270.35,-562.75 2270.35,-562.75 2231.85,-562.75 2231.85,-562.75 2225.85,-562.75 2219.85,-556.75 2219.85,-550.75 2219.85,-550.75 2219.85,-501.25 2219.85,-501.25 2219.85,-495.25 2225.85,-489.25 2231.85,-489.25"/>
<text text-anchor="middle" x="2251.1" y="-545.45" font-family="Times,serif" font-size="14.00">2:0 &#45; 8:6</text>
<polyline fill="none" stroke="black" points="2219.85,-538.25 2282.35,-538.25"/>
<text text-anchor="middle" x="2251.1" y="-520.95" font-family="Times,serif" font-size="14.00">5:1 &#45; 5:1</text>
<polyline fill="none" stroke="black" points="2219.85,-513.75 2282.35,-513.75"/>
<text text-anchor="middle" x="2251.1" y="-496.45" font-family="Times,serif" font-size="14.00">0:0 &#45; 0:0</text>
</g>
<!-- n14&#45;&gt;x12 -->
<g id="edge45" class="edge">
<title>n14:e&#45;&gt;x12:w</title>
<path fill="none" stroke="black" d="M107.84,-352C163.75,-352 104.79,-560.99 143.84,-601 193.98,-652.38 231.3,-628 303.09,-628 303.09,-628 303.09,-628 2114,-628 2152.97,-628 2159.09,-605.09 2183.85,-575 2203.98,-550.53 2188.76,-512.92 2208.54,-503.63"/>
<polygon fill="black" stroke="black" points="2209.18,-507.07 2218.36,-501.78 2207.89,-500.19 2209.18,-507.07"/>
</g>
<!-- c32 -->
<g id="node32" class="node">
<title>c32</title>
<polygon fill="none" stroke="black" points="143.84,-198.5 143.84,-247.5 236.84,-247.5 236.84,-198.5 143.84,-198.5"/>
<text text-anchor="middle" x="156.72" y="-230.2" font-family="Times,serif" font-size="14.00">A</text>
<polyline fill="none" stroke="black" points="143.84,-223 169.59,-223"/>
<text text-anchor="middle" x="156.72" y="-205.7" font-family="Times,serif" font-size="14.00">B</text>
<polyline fill="none" stroke="black" points="169.59,-198.5 169.59,-247.5"/>
<text text-anchor="middle" x="190.34" y="-226.2" font-family="Times,serif" font-size="14.00">$1</text>
<text text-anchor="middle" x="190.34" y="-209.7" font-family="Times,serif" font-size="14.00">$sub</text>
<polyline fill="none" stroke="black" points="211.09,-198.5 211.09,-247.5"/>
<text text-anchor="middle" x="223.97" y="-218.2" font-family="Times,serif" font-size="14.00">Y</text>
</g>
<!-- n14&#45;&gt;c32 -->
<g id="edge43" class="edge">
<title>n14:e&#45;&gt;c32:w</title>
<path fill="none" stroke="black" stroke-width="3" d="M107.84,-352C157.69,-352 100.6,-253.62 132.9,-237.48"/>
<polygon fill="black" stroke="black" stroke-width="3" points="130.29,-241.58 139.39,-236.16 128.89,-234.72 130.29,-241.58"/>
</g>
<!-- n14&#45;&gt;c32 -->
<g id="edge44" class="edge">
<title>n14:e&#45;&gt;c32:w</title>
<path fill="none" stroke="black" stroke-width="3" d="M107.84,-352C168.2,-352 91.11,-229.4 132.67,-212.64"/>
<polygon fill="black" stroke="black" stroke-width="3" points="130.09,-216.63 139.36,-211.51 128.92,-209.73 130.09,-216.63"/>
</g>
<!-- x17 -->
<g id="node34" class="node">
<title>x17</title>
<path fill="none" stroke="black" d="M171.09,-381C171.09,-381 209.59,-381 209.59,-381 215.59,-381 221.59,-387 221.59,-393 221.59,-393 221.59,-405 221.59,-405 221.59,-411 215.59,-417 209.59,-417 209.59,-417 171.09,-417 171.09,-417 165.09,-417 159.09,-411 159.09,-405 159.09,-405 159.09,-393 159.09,-393 159.09,-387 165.09,-381 171.09,-381"/>
<text text-anchor="middle" x="190.34" y="-394.2" font-family="Times,serif" font-size="14.00">0:0 &#45; 0:0</text>
</g>
<!-- n14&#45;&gt;x17 -->
<g id="edge46" class="edge">
<title>n14:e&#45;&gt;x17:w</title>
<path fill="none" stroke="black" d="M107.84,-352C134.19,-352 129.72,-386.9 147.4,-396.71"/>
<polygon fill="black" stroke="black" points="146.08,-399.99 156.62,-398.9 147.7,-393.18 146.08,-399.99"/>
</g>
<!-- n15 -->
<g id="node2" class="node">
<title>n15</title>
<polygon fill="none" stroke="black" points="3922.36,-62.54 3922.36,-77.46 3887.86,-88 3839.06,-88 3804.55,-77.46 3804.55,-62.54 3839.06,-52 3887.86,-52 3922.36,-62.54"/>
<text text-anchor="middle" x="3863.46" y="-64.95" font-family="Times,serif" font-size="14.00">output_data</text>
</g>
<!-- n16 -->
<g id="node3" class="node">
<title>n16</title>
<polygon fill="none" stroke="black" points="3491.05,-88 3435.8,-70 3491.05,-52 3546.3,-70 3491.05,-88"/>
<text text-anchor="middle" x="3491.05" y="-64.95" font-family="Times,serif" font-size="14.00">temp_0</text>
</g>
<!-- x14 -->
<g id="node30" class="node">
<title>x14</title>
<path fill="none" stroke="black" d="M3594.3,-80C3594.3,-80 3632.8,-80 3632.8,-80 3638.8,-80 3644.8,-86 3644.8,-92 3644.8,-92 3644.8,-104 3644.8,-104 3644.8,-110 3638.8,-116 3632.8,-116 3632.8,-116 3594.3,-116 3594.3,-116 3588.3,-116 3582.3,-110 3582.3,-104 3582.3,-104 3582.3,-92 3582.3,-92 3582.3,-86 3588.3,-80 3594.3,-80"/>
<text text-anchor="middle" x="3613.55" y="-93.2" font-family="Times,serif" font-size="14.00">2:0 &#45; 2:0</text>
</g>
<!-- n16&#45;&gt;x14 -->
<g id="edge50" class="edge">
<title>n16:e&#45;&gt;x14:w</title>
<path fill="none" stroke="black" stroke-width="3" d="M3546.3,-70C3561.87,-70 3562.78,-86.56 3571.48,-94.32"/>
<polygon fill="black" stroke="black" stroke-width="3" points="3567.44,-96.58 3578.03,-96.7 3569.83,-90 3567.44,-96.58"/>
</g>
<!-- x15 -->
<g id="node31" class="node">
<title>x15</title>
<path fill="none" stroke="black" d="M3594.3,-25C3594.3,-25 3632.8,-25 3632.8,-25 3638.8,-25 3644.8,-31 3644.8,-37 3644.8,-37 3644.8,-49 3644.8,-49 3644.8,-55 3638.8,-61 3632.8,-61 3632.8,-61 3594.3,-61 3594.3,-61 3588.3,-61 3582.3,-55 3582.3,-49 3582.3,-49 3582.3,-37 3582.3,-37 3582.3,-31 3588.3,-25 3594.3,-25"/>
<text text-anchor="middle" x="3613.55" y="-38.2" font-family="Times,serif" font-size="14.00">3:1 &#45; 2:0</text>
</g>
<!-- n16&#45;&gt;x15 -->
<g id="edge51" class="edge">
<title>n16:e&#45;&gt;x15:w</title>
<path fill="none" stroke="black" stroke-width="3" d="M3546.3,-70C3561.56,-70 3562.87,-54.32 3571.59,-46.97"/>
<polygon fill="black" stroke="black" stroke-width="3" points="3569.71,-51.33 3578.01,-44.74 3567.42,-44.72 3569.71,-51.33"/>
</g>
<!-- c20 -->
<g id="node4" class="node">
<title>c20</title>
<polygon fill="none" stroke="black" points="585.59,-550.5 585.59,-599.5 679.34,-599.5 679.34,-550.5 585.59,-550.5"/>
<text text-anchor="middle" x="598.47" y="-582.2" font-family="Times,serif" font-size="14.00">A</text>
<polyline fill="none" stroke="black" points="585.59,-575 611.34,-575"/>
<text text-anchor="middle" x="598.47" y="-557.7" font-family="Times,serif" font-size="14.00">B</text>
<polyline fill="none" stroke="black" points="611.34,-550.5 611.34,-599.5"/>
<text text-anchor="middle" x="632.47" y="-578.2" font-family="Times,serif" font-size="14.00">$4</text>
<text text-anchor="middle" x="632.47" y="-561.7" font-family="Times,serif" font-size="14.00">$add</text>
<polyline fill="none" stroke="black" points="653.59,-550.5 653.59,-599.5"/>
<text text-anchor="middle" x="666.47" y="-570.2" font-family="Times,serif" font-size="14.00">Y</text>
</g>
<!-- c20&#45;&gt;c28 -->
<g id="edge20" class="edge">
<title>c20:e&#45;&gt;c28:w</title>
<path fill="none" stroke="black" stroke-width="3" d="M679.34,-575.25C694.45,-575.25 695.96,-560.01 704.69,-552.87"/>
<polygon fill="black" stroke="black" stroke-width="3" points="702.7,-557.24 711.04,-550.71 700.45,-550.61 702.7,-557.24"/>
</g>
<!-- x0 -->
<g id="node5" class="node">
<title>x0</title>
<path fill="none" stroke="black" d="M481.84,-198.5C481.84,-198.5 537.59,-198.5 537.59,-198.5 543.59,-198.5 549.59,-204.5 549.59,-210.5 549.59,-210.5 549.59,-235.5 549.59,-235.5 549.59,-241.5 543.59,-247.5 537.59,-247.5 537.59,-247.5 481.84,-247.5 481.84,-247.5 475.84,-247.5 469.84,-241.5 469.84,-235.5 469.84,-235.5 469.84,-210.5 469.84,-210.5 469.84,-204.5 475.84,-198.5 481.84,-198.5"/>
<text text-anchor="middle" x="509.72" y="-230.2" font-family="Times,serif" font-size="14.00">3x 8:8 &#45; 8:6</text>
<polyline fill="none" stroke="black" points="469.84,-223 549.59,-223"/>
<text text-anchor="middle" x="509.72" y="-205.7" font-family="Times,serif" font-size="14.00">5:0 &#45; 5:0</text>
</g>
<!-- x0&#45;&gt;c20 -->
<g id="edge1" class="edge">
<title>x0:e&#45;&gt;c20:w</title>
<path fill="none" stroke="black" stroke-width="3" d="M561.83,-226.61C613.36,-262.07 521.85,-548.01 573.31,-583.62"/>
<polygon fill="none" stroke="black" stroke-width="3" points="563.7,-227.15 556.81,-229.3 552.18,-223.76 559.07,-221.62 563.7,-227.15"/>
<polygon fill="none" stroke="black" stroke-width="3" points="571.49,-583.08 578.38,-580.94 583,-586.48 576.11,-588.62 571.49,-583.08"/>
</g>
<!-- x1 -->
<g id="node6" class="node">
<title>x1</title>
<path fill="none" stroke="black" d="M284.84,-550.5C284.84,-550.5 323.34,-550.5 323.34,-550.5 329.34,-550.5 335.34,-556.5 335.34,-562.5 335.34,-562.5 335.34,-587.5 335.34,-587.5 335.34,-593.5 329.34,-599.5 323.34,-599.5 323.34,-599.5 284.84,-599.5 284.84,-599.5 278.84,-599.5 272.84,-593.5 272.84,-587.5 272.84,-587.5 272.84,-562.5 272.84,-562.5 272.84,-556.5 278.84,-550.5 284.84,-550.5"/>
<text text-anchor="middle" x="304.09" y="-582.2" font-family="Times,serif" font-size="14.00">1 &#45;&gt; 8:6</text>
<polyline fill="none" stroke="black" points="272.84,-575 335.34,-575"/>
<text text-anchor="middle" x="304.09" y="-557.7" font-family="Times,serif" font-size="14.00">5:0 &#45; 5:0</text>
</g>
<!-- x1&#45;&gt;c20 -->
<g id="edge2" class="edge">
<title>x1:e&#45;&gt;c20:w</title>
<path fill="none" stroke="black" stroke-width="3" d="M348.32,-574.94C444.91,-574.08 476.14,-563.66 572.82,-562.81"/>
<polygon fill="none" stroke="black" stroke-width="3" points="350.04,-574.93 344.06,-578.96 338.05,-574.99 344.03,-570.96 350.04,-574.93"/>
<polygon fill="none" stroke="black" stroke-width="3" points="570.89,-562.81 576.87,-558.79 582.89,-562.76 576.9,-566.79 570.89,-562.81"/>
</g>
<!-- c21&#45;&gt;x1 -->
<g id="edge55" class="edge">
<title>c21:e&#45;&gt;x1:w</title>
<path fill="none" stroke="black" stroke-width="3" d="M236.84,-571.25C248.66,-571.25 253.59,-566.86 261.54,-564.39"/>
<polygon fill="black" stroke="black" stroke-width="3" points="258.95,-568.3 268.35,-563.4 257.95,-561.37 258.95,-568.3"/>
</g>
<!-- x3 -->
<g id="node10" class="node">
<title>x3</title>
<path fill="none" stroke="black" d="M1087.59,-490C1087.59,-490 1126.09,-490 1126.09,-490 1132.09,-490 1138.09,-496 1138.09,-502 1138.09,-502 1138.09,-514 1138.09,-514 1138.09,-520 1132.09,-526 1126.09,-526 1126.09,-526 1087.59,-526 1087.59,-526 1081.59,-526 1075.59,-520 1075.59,-514 1075.59,-514 1075.59,-502 1075.59,-502 1075.59,-496 1081.59,-490 1087.59,-490"/>
<text text-anchor="middle" x="1106.84" y="-503.2" font-family="Times,serif" font-size="14.00">5:0 &#45; 5:0</text>
</g>
<!-- c22&#45;&gt;x3 -->
<g id="edge4" class="edge">
<title>c22:e&#45;&gt;x3:w</title>
<path fill="none" stroke="black" stroke-width="3" d="M1052.32,-506.69C1055.91,-506.95 1059.04,-507.28 1062.61,-507.54"/>
<polygon fill="none" stroke="black" stroke-width="3" points="1054.29,-506.76 1048.15,-510.55 1042.29,-506.34 1048.43,-502.55 1054.29,-506.76"/>
<polygon fill="none" stroke="black" stroke-width="3" points="1060.9,-507.48 1067.03,-503.69 1072.89,-507.9 1066.75,-511.69 1060.9,-507.48"/>
</g>
<!-- x2 -->
<g id="node9" class="node">
<title>x2</title>
<path fill="none" stroke="black" d="M859.34,-516C859.34,-516 897.84,-516 897.84,-516 903.84,-516 909.84,-522 909.84,-528 909.84,-528 909.84,-540 909.84,-540 909.84,-546 903.84,-552 897.84,-552 897.84,-552 859.34,-552 859.34,-552 853.34,-552 847.34,-546 847.34,-540 847.34,-540 847.34,-528 847.34,-528 847.34,-522 853.34,-516 859.34,-516"/>
<text text-anchor="middle" x="878.59" y="-529.2" font-family="Times,serif" font-size="14.00">5:0 &#45; 5:0</text>
</g>
<!-- x2&#45;&gt;c22 -->
<g id="edge3" class="edge">
<title>x2:e&#45;&gt;c22:w</title>
<path fill="none" stroke="black" stroke-width="3" d="M922.17,-530.5C926.28,-527.89 929.41,-524.34 933.53,-521.74"/>
<polygon fill="none" stroke="black" stroke-width="3" points="923.99,-529.99 919.31,-535.47 912.44,-533.26 917.12,-527.78 923.99,-529.99"/>
<polygon fill="none" stroke="black" stroke-width="3" points="931.69,-522.26 936.38,-516.77 943.24,-518.99 938.56,-524.47 931.69,-522.26"/>
</g>
<!-- n2 -->
<g id="node46" class="node">
<title>n2</title>
<ellipse fill="black" stroke="black" cx="1175.89" cy="-555" rx="1.8" ry="1.8"/>
</g>
<!-- x3&#45;&gt;n2 -->
<g id="edge53" class="edge">
<title>x3:e&#45;&gt;n2:w</title>
<path fill="none" stroke="black" stroke-width="3" d="M1138.09,-508.25C1159.6,-508.25 1152.4,-539.71 1163.59,-551.01"/>
<polygon fill="black" stroke="black" stroke-width="3" points="1159.25,-553.11 1169.85,-553.39 1161.74,-546.57 1159.25,-553.11"/>
</g>
<!-- c23&#45;&gt;c24 -->
<g id="edge62" class="edge">
<title>c23:e&#45;&gt;c24:w</title>
<path fill="none" stroke="black" stroke-width="3" d="M2917.3,-329.25C2933.19,-329.25 2933.74,-311.9 2942.69,-304.04"/>
<polygon fill="black" stroke="black" stroke-width="3" points="2940.78,-308.44 2949.02,-301.78 2938.43,-301.85 2940.78,-308.44"/>
</g>
<!-- x4 -->
<g id="node12" class="node">
<title>x4</title>
<path fill="none" stroke="black" d="M2738.55,-343C2738.55,-343 2777.05,-343 2777.05,-343 2783.05,-343 2789.05,-349 2789.05,-355 2789.05,-355 2789.05,-367 2789.05,-367 2789.05,-373 2783.05,-379 2777.05,-379 2777.05,-379 2738.55,-379 2738.55,-379 2732.55,-379 2726.55,-373 2726.55,-367 2726.55,-367 2726.55,-355 2726.55,-355 2726.55,-349 2732.55,-343 2738.55,-343"/>
<text text-anchor="middle" x="2757.8" y="-356.2" font-family="Times,serif" font-size="14.00">5:0 &#45; 5:0</text>
</g>
<!-- x4&#45;&gt;c23 -->
<g id="edge5" class="edge">
<title>x4:e&#45;&gt;c23:w</title>
<path fill="none" stroke="black" stroke-width="3" d="M2801.33,-356.81C2805.56,-353.46 2808.54,-348.78 2812.78,-345.43"/>
<polygon fill="none" stroke="black" stroke-width="3" points="2802.97,-356.25 2798.58,-361.98 2791.61,-360.13 2796,-354.4 2802.97,-356.25"/>
<polygon fill="none" stroke="black" stroke-width="3" points="2811.13,-345.99 2815.52,-340.27 2822.49,-342.12 2818.1,-347.84 2811.13,-345.99"/>
</g>
<!-- c24&#45;&gt;c25 -->
<g id="edge66" class="edge">
<title>c24:e&#45;&gt;c25:w</title>
<path fill="none" stroke="black" stroke-width="3" d="M3045.55,-288.25C3085.2,-288.25 3047.25,-213.83 3070.53,-198.14"/>
<polygon fill="black" stroke="black" stroke-width="3" points="3068.37,-202.32 3077.16,-196.4 3066.6,-195.55 3068.37,-202.32"/>
</g>
<!-- x8 -->
<g id="node20" class="node">
<title>x8</title>
<path fill="none" stroke="black" d="M3217.3,-170.5C3217.3,-170.5 3255.8,-170.5 3255.8,-170.5 3261.8,-170.5 3267.8,-176.5 3267.8,-182.5 3267.8,-182.5 3267.8,-207.5 3267.8,-207.5 3267.8,-213.5 3261.8,-219.5 3255.8,-219.5 3255.8,-219.5 3217.3,-219.5 3217.3,-219.5 3211.3,-219.5 3205.3,-213.5 3205.3,-207.5 3205.3,-207.5 3205.3,-182.5 3205.3,-182.5 3205.3,-176.5 3211.3,-170.5 3217.3,-170.5"/>
<text text-anchor="middle" x="3236.55" y="-202.2" font-family="Times,serif" font-size="14.00">2:0 &#45; 8:6</text>
<polyline fill="none" stroke="black" points="3205.3,-195 3267.8,-195"/>
<text text-anchor="middle" x="3236.55" y="-177.7" font-family="Times,serif" font-size="14.00">5:0 &#45; 5:0</text>
</g>
<!-- c25&#45;&gt;x8 -->
<g id="edge67" class="edge">
<title>c25:e&#45;&gt;x8:w</title>
<path fill="none" stroke="black" stroke-width="3" d="M3169.3,-183.25C3180.68,-183.25 3185.98,-183 3193.85,-182.85"/>
<polygon fill="black" stroke="black" stroke-width="3" points="3190.79,-186.38 3200.76,-182.79 3190.73,-179.38 3190.79,-186.38"/>
</g>
<!-- c26 -->
<g id="node15" class="node">
<title>c26</title>
<polygon fill="none" stroke="black" points="1953.5,-461.5 1953.5,-510.5 2045.75,-510.5 2045.75,-461.5 1953.5,-461.5"/>
<text text-anchor="middle" x="1966.37" y="-493.2" font-family="Times,serif" font-size="14.00">A</text>
<polyline fill="none" stroke="black" points="1953.5,-486 1979.25,-486"/>
<text text-anchor="middle" x="1966.37" y="-468.7" font-family="Times,serif" font-size="14.00">B</text>
<polyline fill="none" stroke="black" points="1979.25,-461.5 1979.25,-510.5"/>
<text text-anchor="middle" x="1999.62" y="-489.2" font-family="Times,serif" font-size="14.00">$79</text>
<text text-anchor="middle" x="1999.62" y="-472.7" font-family="Times,serif" font-size="14.00">$xor</text>
<polyline fill="none" stroke="black" points="2020,-461.5 2020,-510.5"/>
<text text-anchor="middle" x="2032.87" y="-481.2" font-family="Times,serif" font-size="14.00">Y</text>
</g>
<!-- x7 -->
<g id="node18" class="node">
<title>x7</title>
<path fill="none" stroke="black" d="M2093.75,-468C2093.75,-468 2132.25,-468 2132.25,-468 2138.25,-468 2144.25,-474 2144.25,-480 2144.25,-480 2144.25,-492 2144.25,-492 2144.25,-498 2138.25,-504 2132.25,-504 2132.25,-504 2093.75,-504 2093.75,-504 2087.75,-504 2081.75,-498 2081.75,-492 2081.75,-492 2081.75,-480 2081.75,-480 2081.75,-474 2087.75,-468 2093.75,-468"/>
<text text-anchor="middle" x="2113" y="-481.2" font-family="Times,serif" font-size="14.00">4:0 &#45; 5:1</text>
</g>
<!-- c26&#45;&gt;x7 -->
<g id="edge8" class="edge">
<title>c26:e&#45;&gt;x7:w</title>
<path fill="none" stroke="black" stroke-width="3" d="M2058.47,-486.19C2062.07,-486.15 2065.2,-486.1 2068.78,-486.07"/>
<polygon fill="none" stroke="black" stroke-width="3" points="2060.45,-486.18 2054.47,-490.21 2048.45,-486.24 2054.43,-482.21 2060.45,-486.18"/>
<polygon fill="none" stroke="black" stroke-width="3" points="2067.05,-486.07 2073.02,-482.04 2079.05,-486.01 2073.07,-490.04 2067.05,-486.07"/>
</g>
<!-- x5 -->
<g id="node16" class="node">
<title>x5</title>
<path fill="none" stroke="black" d="M1867,-491C1867,-491 1905.5,-491 1905.5,-491 1911.5,-491 1917.5,-497 1917.5,-503 1917.5,-503 1917.5,-515 1917.5,-515 1917.5,-521 1911.5,-527 1905.5,-527 1905.5,-527 1867,-527 1867,-527 1861,-527 1855,-521 1855,-515 1855,-515 1855,-503 1855,-503 1855,-497 1861,-491 1867,-491"/>
<text text-anchor="middle" x="1886.25" y="-504.2" font-family="Times,serif" font-size="14.00">5:1 &#45; 4:0</text>
</g>
<!-- x5&#45;&gt;c26 -->
<g id="edge6" class="edge">
<title>x5:e&#45;&gt;c26:w</title>
<path fill="none" stroke="black" stroke-width="3" d="M1929.88,-506.51C1933.77,-504.82 1936.95,-502.59 1940.8,-500.88"/>
<polygon fill="none" stroke="black" stroke-width="3" points="1931.91,-506.1 1926.82,-511.2 1920.15,-508.47 1925.24,-503.36 1931.91,-506.1"/>
<polygon fill="none" stroke="black" stroke-width="3" points="1939.1,-501.23 1944.16,-496.1 1950.85,-498.8 1945.79,-503.93 1939.1,-501.23"/>
</g>
<!-- x6&#45;&gt;c26 -->
<g id="edge7" class="edge">
<title>x6:e&#45;&gt;c26:w</title>
<path fill="none" stroke="black" stroke-width="3" d="M446.74,-437.07C524.15,-437.89 548.01,-446 631.47,-446 631.47,-446 631.47,-446 1818.2,-446 1875.03,-446 1889.99,-469.78 1940.6,-473.31"/>
<polygon fill="none" stroke="black" stroke-width="3" points="448.54,-437.08 442.52,-441.05 436.55,-437.01 442.57,-433.05 448.54,-437.08"/>
<polygon fill="none" stroke="black" stroke-width="3" points="1938.8,-473.25 1944.94,-469.46 1950.8,-473.66 1944.66,-477.45 1938.8,-473.25"/>
</g>
<!-- n4 -->
<g id="node47" class="node">
<title>n4</title>
<ellipse fill="black" stroke="black" cx="2182.05" cy="-486" rx="1.8" ry="1.8"/>
</g>
<!-- x7&#45;&gt;n4 -->
<g id="edge57" class="edge">
<title>x7:e&#45;&gt;n4:w</title>
<path fill="none" stroke="black" stroke-width="3" d="M2144.25,-486.25C2155.62,-486.25 2160.93,-486.12 2168.8,-486.05"/>
<polygon fill="black" stroke="black" stroke-width="3" points="2165.72,-489.56 2175.71,-486.02 2165.69,-482.56 2165.72,-489.56"/>
</g>
<!-- c27&#45;&gt;n16 -->
<g id="edge49" class="edge">
<title>c27:e&#45;&gt;n16:w</title>
<path fill="none" stroke="black" stroke-width="3" d="M3399.8,-70.25C3411.17,-70.25 3416.48,-70.12 3424.35,-70.05"/>
<polygon fill="black" stroke="black" stroke-width="3" points="3421.27,-73.56 3431.26,-70.02 3421.24,-66.56 3421.27,-73.56"/>
</g>
<!-- x8&#45;&gt;c27 -->
<g id="edge9" class="edge">
<title>x8:e&#45;&gt;c27:w</title>
<path fill="none" stroke="black" stroke-width="3" d="M3280.31,-191.75C3304.51,-175.35 3267.1,-101.94 3291.27,-85.52"/>
<polygon fill="none" stroke="black" stroke-width="3" points="3282.03,-191.3 3277.23,-196.68 3270.42,-194.32 3275.22,-188.94 3282.03,-191.3"/>
<polygon fill="none" stroke="black" stroke-width="3" points="3289.57,-85.96 3294.37,-80.57 3301.18,-82.93 3296.39,-88.32 3289.57,-85.96"/>
</g>
<!-- c28&#45;&gt;x2 -->
<g id="edge21" class="edge">
<title>c28:e&#45;&gt;x2:w</title>
<path fill="none" stroke="black" stroke-width="3" d="M811.34,-537.25C822.76,-537.25 828.02,-535.73 835.88,-534.86"/>
<polygon fill="black" stroke="black" stroke-width="3" points="833.01,-538.51 842.81,-534.49 832.64,-531.52 833.01,-538.51"/>
</g>
<!-- v10 -->
<g id="node22" class="node">
<title>v10</title>
<ellipse fill="none" stroke="black" cx="1263" cy="-506" rx="49.3" ry="18"/>
<text text-anchor="middle" x="1263" y="-500.95" font-family="Times,serif" font-size="14.00">7&#39;1101111</text>
</g>
<!-- c29 -->
<g id="node23" class="node">
<title>c29</title>
<polygon fill="none" stroke="black" points="1348.3,-505.5 1348.3,-554.5 1444.3,-554.5 1444.3,-505.5 1348.3,-505.5"/>
<text text-anchor="middle" x="1361.17" y="-537.2" font-family="Times,serif" font-size="14.00">A</text>
<polyline fill="none" stroke="black" points="1348.3,-530 1374.05,-530"/>
<text text-anchor="middle" x="1361.17" y="-512.7" font-family="Times,serif" font-size="14.00">B</text>
<polyline fill="none" stroke="black" points="1374.05,-505.5 1374.05,-554.5"/>
<text text-anchor="middle" x="1396.3" y="-533.2" font-family="Times,serif" font-size="14.00">$7</text>
<text text-anchor="middle" x="1396.3" y="-516.7" font-family="Times,serif" font-size="14.00">$mul</text>
<polyline fill="none" stroke="black" points="1418.55,-505.5 1418.55,-554.5"/>
<text text-anchor="middle" x="1431.42" y="-525.2" font-family="Times,serif" font-size="14.00">Y</text>
</g>
<!-- v10&#45;&gt;c29 -->
<g id="edge68" class="edge">
<title>v10:e&#45;&gt;c29:w</title>
<path fill="none" stroke="black" stroke-width="3" d="M1312.3,-506C1324.53,-506 1329.11,-512.2 1337.15,-515.59"/>
<polygon fill="black" stroke="black" stroke-width="3" points="1333.36,-518.43 1343.84,-516.89 1334.69,-511.55 1333.36,-518.43"/>
</g>
<!-- x11 -->
<g id="node25" class="node">
<title>x11</title>
<path fill="none" stroke="black" d="M1492.3,-505.5C1492.3,-505.5 1530.8,-505.5 1530.8,-505.5 1536.8,-505.5 1542.8,-511.5 1542.8,-517.5 1542.8,-517.5 1542.8,-542.5 1542.8,-542.5 1542.8,-548.5 1536.8,-554.5 1530.8,-554.5 1530.8,-554.5 1492.3,-554.5 1492.3,-554.5 1486.3,-554.5 1480.3,-548.5 1480.3,-542.5 1480.3,-542.5 1480.3,-517.5 1480.3,-517.5 1480.3,-511.5 1486.3,-505.5 1492.3,-505.5"/>
<text text-anchor="middle" x="1511.55" y="-537.2" font-family="Times,serif" font-size="14.00">7:5 &#45; 2:0</text>
<polyline fill="none" stroke="black" points="1480.3,-530 1542.8,-530"/>
<text text-anchor="middle" x="1511.55" y="-512.7" font-family="Times,serif" font-size="14.00">4:0 &#45; 5:1</text>
</g>
<!-- c29&#45;&gt;x11 -->
<g id="edge11" class="edge">
<title>c29:e&#45;&gt;x11:w</title>
<path fill="none" stroke="black" stroke-width="3" d="M1457.02,-530.19C1460.62,-530.15 1463.75,-530.1 1467.33,-530.07"/>
<polygon fill="none" stroke="black" stroke-width="3" points="1459,-530.18 1453.02,-534.21 1447,-530.24 1452.98,-526.21 1459,-530.18"/>
<polygon fill="none" stroke="black" stroke-width="3" points="1465.6,-530.07 1471.57,-526.04 1477.6,-530.01 1471.62,-534.04 1465.6,-530.07"/>
</g>
<!-- x9 -->
<g id="node24" class="node">
<title>x9</title>
<path fill="none" stroke="black" d="M1243.75,-542.5C1243.75,-542.5 1282.25,-542.5 1282.25,-542.5 1288.25,-542.5 1294.25,-548.5 1294.25,-554.5 1294.25,-554.5 1294.25,-579.5 1294.25,-579.5 1294.25,-585.5 1288.25,-591.5 1282.25,-591.5 1282.25,-591.5 1243.75,-591.5 1243.75,-591.5 1237.75,-591.5 1231.75,-585.5 1231.75,-579.5 1231.75,-579.5 1231.75,-554.5 1231.75,-554.5 1231.75,-548.5 1237.75,-542.5 1243.75,-542.5"/>
<text text-anchor="middle" x="1263" y="-574.2" font-family="Times,serif" font-size="14.00">0 &#45;&gt; 8:6</text>
<polyline fill="none" stroke="black" points="1231.75,-567 1294.25,-567"/>
<text text-anchor="middle" x="1263" y="-549.7" font-family="Times,serif" font-size="14.00">5:0 &#45; 5:0</text>
</g>
<!-- x9&#45;&gt;c29 -->
<g id="edge10" class="edge">
<title>x9:e&#45;&gt;c29:w</title>
<path fill="none" stroke="black" stroke-width="3" d="M1308,-564.54C1319.08,-559.79 1324.48,-549.44 1335.57,-544.7"/>
<polygon fill="none" stroke="black" stroke-width="3" points="1309.68,-564.21 1304.55,-569.28 1297.9,-566.49 1303.03,-561.42 1309.68,-564.21"/>
<polygon fill="none" stroke="black" stroke-width="3" points="1333.86,-545.03 1339,-539.97 1345.64,-542.76 1340.51,-547.82 1333.86,-545.03"/>
</g>
<!-- n11 -->
<g id="node43" class="node">
<title>n11</title>
<ellipse fill="black" stroke="black" cx="1817.2" cy="-517" rx="1.8" ry="1.8"/>
</g>
<!-- x11&#45;&gt;n11 -->
<g id="edge22" class="edge">
<title>x11:e&#45;&gt;n11:w</title>
<path fill="none" stroke="black" stroke-width="3" d="M1542.8,-517.75C1577.03,-517.75 1584.32,-506.29 1618.4,-503 1689.62,-496.12 1709.07,-489.81 1779.4,-503 1791.66,-505.3 1796.05,-511.65 1804.11,-514.95"/>
<polygon fill="black" stroke="black" stroke-width="3" points="1800.47,-517.84 1810.93,-516.19 1801.72,-510.96 1800.47,-517.84"/>
</g>
<!-- n5 -->
<g id="node48" class="node">
<title>n5</title>
<ellipse fill="black" stroke="black" cx="1580.6" cy="-549" rx="1.8" ry="1.8"/>
</g>
<!-- x11&#45;&gt;n5 -->
<g id="edge59" class="edge">
<title>x11:e&#45;&gt;n5:w</title>
<path fill="none" stroke="black" stroke-width="3" d="M1542.8,-542.25C1554.5,-542.25 1559.57,-545.74 1567.54,-547.7"/>
<polygon fill="black" stroke="black" stroke-width="3" points="1563.95,-550.81 1574.29,-548.48 1564.76,-543.85 1563.95,-550.81"/>
</g>
<!-- x13 -->
<g id="node28" class="node">
<title>x13</title>
<path fill="none" stroke="black" d="M2462.35,-352.5C2462.35,-352.5 2500.85,-352.5 2500.85,-352.5 2506.85,-352.5 2512.85,-358.5 2512.85,-364.5 2512.85,-364.5 2512.85,-389.5 2512.85,-389.5 2512.85,-395.5 2506.85,-401.5 2500.85,-401.5 2500.85,-401.5 2462.35,-401.5 2462.35,-401.5 2456.35,-401.5 2450.35,-395.5 2450.35,-389.5 2450.35,-389.5 2450.35,-364.5 2450.35,-364.5 2450.35,-358.5 2456.35,-352.5 2462.35,-352.5"/>
<text text-anchor="middle" x="2481.6" y="-384.2" font-family="Times,serif" font-size="14.00">8:6 &#45; 2:0</text>
<polyline fill="none" stroke="black" points="2450.35,-377 2512.85,-377"/>
<text text-anchor="middle" x="2481.6" y="-359.7" font-family="Times,serif" font-size="14.00">5:0 &#45; 5:0</text>
</g>
<!-- c30&#45;&gt;x13 -->
<g id="edge13" class="edge">
<title>c30:e&#45;&gt;x13:w</title>
<path fill="none" stroke="black" stroke-width="3" d="M2427.07,-377.19C2430.67,-377.15 2433.8,-377.1 2437.38,-377.07"/>
<polygon fill="none" stroke="black" stroke-width="3" points="2429.05,-377.18 2423.07,-381.21 2417.05,-377.24 2423.03,-373.21 2429.05,-377.18"/>
<polygon fill="none" stroke="black" stroke-width="3" points="2435.65,-377.07 2441.62,-373.04 2447.65,-377.01 2441.67,-381.04 2435.65,-377.07"/>
</g>
<!-- x12&#45;&gt;c30 -->
<g id="edge12" class="edge">
<title>x12:e&#45;&gt;c30:w</title>
<path fill="none" stroke="black" stroke-width="3" d="M2294.9,-523.39C2328.22,-506.18 2272.52,-409.18 2305.74,-391.89"/>
<polygon fill="none" stroke="black" stroke-width="3" points="2296.75,-523.01 2291.69,-528.14 2285,-525.45 2290.06,-520.31 2296.75,-523.01"/>
<polygon fill="none" stroke="black" stroke-width="3" points="2303.96,-392.26 2309.01,-387.12 2315.7,-389.8 2310.65,-394.95 2303.96,-392.26"/>
</g>
<!-- n12 -->
<g id="node44" class="node">
<title>n12</title>
<ellipse fill="black" stroke="black" cx="2688.75" cy="-361" rx="1.8" ry="1.8"/>
</g>
<!-- x13&#45;&gt;n12 -->
<g id="edge26" class="edge">
<title>x13:e&#45;&gt;n12:w</title>
<path fill="none" stroke="black" stroke-width="3" d="M2512.85,-364.75C2586.31,-364.75 2607.44,-361.37 2675.59,-361.03"/>
<polygon fill="black" stroke="black" stroke-width="3" points="2672.42,-364.54 2682.41,-361.01 2672.4,-357.54 2672.42,-364.54"/>
</g>
<!-- n7 -->
<g id="node49" class="node">
<title>n7</title>
<ellipse fill="black" stroke="black" cx="2550.65" cy="-399" rx="1.8" ry="1.8"/>
</g>
<!-- x13&#45;&gt;n7 -->
<g id="edge63" class="edge">
<title>x13:e&#45;&gt;n7:w</title>
<path fill="none" stroke="black" stroke-width="3" d="M2512.85,-389.25C2524.76,-389.25 2529.59,-394.29 2537.51,-397.12"/>
<polygon fill="black" stroke="black" stroke-width="3" points="2533.93,-400.07 2544.37,-398.26 2535.08,-393.17 2533.93,-400.07"/>
</g>
<!-- c31 -->
<g id="node29" class="node">
<title>c31</title>
<polygon fill="none" stroke="black" points="3680.8,-45.5 3680.8,-94.5 3768.55,-94.5 3768.55,-45.5 3680.8,-45.5"/>
<text text-anchor="middle" x="3693.68" y="-77.2" font-family="Times,serif" font-size="14.00">A</text>
<polyline fill="none" stroke="black" points="3680.8,-70 3706.55,-70"/>
<text text-anchor="middle" x="3693.68" y="-52.7" font-family="Times,serif" font-size="14.00">B</text>
<polyline fill="none" stroke="black" points="3706.55,-45.5 3706.55,-94.5"/>
<text text-anchor="middle" x="3724.68" y="-73.2" font-family="Times,serif" font-size="14.00">$14</text>
<text text-anchor="middle" x="3724.68" y="-56.7" font-family="Times,serif" font-size="14.00">$or</text>
<polyline fill="none" stroke="black" points="3742.8,-45.5 3742.8,-94.5"/>
<text text-anchor="middle" x="3755.68" y="-65.2" font-family="Times,serif" font-size="14.00">Y</text>
</g>
<!-- c31&#45;&gt;n15 -->
<g id="edge48" class="edge">
<title>c31:e&#45;&gt;n15:w</title>
<path fill="none" stroke="black" stroke-width="3" d="M3768.55,-70.25C3779.93,-70.25 3785.24,-70.12 3793.1,-70.05"/>
<polygon fill="black" stroke="black" stroke-width="3" points="3790.03,-73.56 3800.01,-70.02 3789.99,-66.56 3790.03,-73.56"/>
</g>
<!-- x14&#45;&gt;c31 -->
<g id="edge14" class="edge">
<title>x14:e&#45;&gt;c31:w</title>
<path fill="none" stroke="black" stroke-width="3" d="M3657.13,-94.5C3661.24,-91.89 3664.37,-88.34 3668.49,-85.74"/>
<polygon fill="none" stroke="black" stroke-width="3" points="3658.95,-93.99 3654.27,-99.47 3647.4,-97.26 3652.08,-91.78 3658.95,-93.99"/>
<polygon fill="none" stroke="black" stroke-width="3" points="3666.65,-86.26 3671.34,-80.77 3678.2,-82.99 3673.52,-88.47 3666.65,-86.26"/>
</g>
<!-- x15&#45;&gt;c31 -->
<g id="edge15" class="edge">
<title>x15:e&#45;&gt;c31:w</title>
<path fill="none" stroke="black" stroke-width="3" d="M3657.33,-46.42C3661.27,-48.8 3664.36,-51.97 3668.3,-54.35"/>
<polygon fill="none" stroke="black" stroke-width="3" points="3658.99,-46.87 3652.14,-49.15 3647.41,-43.71 3654.25,-41.43 3658.99,-46.87"/>
<polygon fill="none" stroke="black" stroke-width="3" points="3666.61,-53.89 3673.45,-51.6 3678.19,-57.04 3671.35,-59.32 3666.61,-53.89"/>
</g>
<!-- x16 -->
<g id="node33" class="node">
<title>x16</title>
<path fill="none" stroke="black" d="M284.84,-198.5C284.84,-198.5 323.34,-198.5 323.34,-198.5 329.34,-198.5 335.34,-204.5 335.34,-210.5 335.34,-210.5 335.34,-235.5 335.34,-235.5 335.34,-241.5 329.34,-247.5 323.34,-247.5 323.34,-247.5 284.84,-247.5 284.84,-247.5 278.84,-247.5 272.84,-241.5 272.84,-235.5 272.84,-235.5 272.84,-210.5 272.84,-210.5 272.84,-204.5 278.84,-198.5 284.84,-198.5"/>
<text text-anchor="middle" x="304.09" y="-230.2" font-family="Times,serif" font-size="14.00">6:6 &#45; 8:8</text>
<polyline fill="none" stroke="black" points="272.84,-223 335.34,-223"/>
<text text-anchor="middle" x="304.09" y="-205.7" font-family="Times,serif" font-size="14.00">5:0 &#45; 5:0</text>
</g>
<!-- c32&#45;&gt;x16 -->
<g id="edge16" class="edge">
<title>c32:e&#45;&gt;x16:w</title>
<path fill="none" stroke="black" stroke-width="3" d="M249.56,-223.19C253.16,-223.15 256.29,-223.1 259.87,-223.07"/>
<polygon fill="none" stroke="black" stroke-width="3" points="251.54,-223.18 245.56,-227.21 239.55,-223.24 245.53,-219.21 251.54,-223.18"/>
<polygon fill="none" stroke="black" stroke-width="3" points="258.14,-223.07 264.12,-219.04 270.14,-223.01 264.16,-227.04 258.14,-223.07"/>
</g>
<!-- n13 -->
<g id="node45" class="node">
<title>n13</title>
<ellipse fill="black" stroke="black" cx="402.59" cy="-211" rx="1.8" ry="1.8"/>
</g>
<!-- x16&#45;&gt;n13 -->
<g id="edge29" class="edge">
<title>x16:e&#45;&gt;n13:w</title>
<path fill="none" stroke="black" stroke-width="3" d="M335.34,-210.75C359.55,-210.75 368.3,-210.93 387.92,-210.99"/>
<polygon fill="black" stroke="black" stroke-width="3" points="384.77,-214.48 394.77,-210.99 384.78,-207.48 384.77,-214.48"/>
</g>
<!-- x16&#45;&gt;n13 -->
<g id="edge30" class="edge">
<title>x16:e&#45;&gt;n13:w</title>
<path fill="none" stroke="black" d="M335.34,-235.25C361.47,-235.25 367.48,-217.34 387.95,-212.3"/>
<polygon fill="black" stroke="black" points="388.27,-215.79 397.81,-211.17 387.48,-208.84 388.27,-215.79"/>
</g>
<!-- x18 -->
<g id="node35" class="node">
<title>x18</title>
<path fill="none" stroke="black" d="M744.09,-381C744.09,-381 782.59,-381 782.59,-381 788.59,-381 794.59,-387 794.59,-393 794.59,-393 794.59,-405 794.59,-405 794.59,-411 788.59,-417 782.59,-417 782.59,-417 744.09,-417 744.09,-417 738.09,-417 732.09,-411 732.09,-405 732.09,-405 732.09,-393 732.09,-393 732.09,-387 738.09,-381 744.09,-381"/>
<text text-anchor="middle" x="763.34" y="-394.2" font-family="Times,serif" font-size="14.00">0:0 &#45; 0:0</text>
</g>
<!-- x17&#45;&gt;x18 -->
<g id="edge17" class="edge">
<title>x17:e&#45;&gt;x18:w</title>
<path fill="none" stroke="black" d="M235.57,-398.92C304.67,-398.01 326.45,-390 401.59,-390 401.59,-390 401.59,-390 510.72,-390 604.24,-390 630.68,-398.19 718.04,-398.94"/>
<polygon fill="none" stroke="black" points="235.49,-398.92 229.52,-402.96 223.49,-398.99 229.47,-394.96 235.49,-398.92"/>
<polygon fill="none" stroke="black" points="718.19,-398.95 724.21,-394.97 730.19,-399 724.17,-402.97 718.19,-398.95"/>
</g>
<!-- x18&#45;&gt;n4 -->
<g id="edge56" class="edge">
<title>x18:e&#45;&gt;n4:w</title>
<path fill="none" stroke="black" d="M795.59,-399.25C882.77,-399.25 904.53,-403 991.72,-403 991.72,-403 991.72,-403 2000.62,-403 2069.14,-403 2084.38,-425.69 2144.25,-459 2157.63,-466.44 2159.9,-478.32 2169.21,-483.47"/>
<polygon fill="black" stroke="black" points="2168.25,-486.84 2178.77,-485.66 2169.81,-480.02 2168.25,-486.84"/>
</g>
<!-- x19 -->
<g id="node36" class="node">
<title>x19</title>
<path fill="none" stroke="black" d="M1630.4,-512.5C1630.4,-512.5 1668.9,-512.5 1668.9,-512.5 1674.9,-512.5 1680.9,-518.5 1680.9,-524.5 1680.9,-524.5 1680.9,-549.5 1680.9,-549.5 1680.9,-555.5 1674.9,-561.5 1668.9,-561.5 1668.9,-561.5 1630.4,-561.5 1630.4,-561.5 1624.4,-561.5 1618.4,-555.5 1618.4,-549.5 1618.4,-549.5 1618.4,-524.5 1618.4,-524.5 1618.4,-518.5 1624.4,-512.5 1630.4,-512.5"/>
<text text-anchor="middle" x="1649.65" y="-544.2" font-family="Times,serif" font-size="14.00">2:0 &#45; 3:1</text>
<polyline fill="none" stroke="black" points="1618.4,-537 1680.9,-537"/>
<text text-anchor="middle" x="1649.65" y="-519.7" font-family="Times,serif" font-size="14.00">0 &#45;&gt; 0:0</text>
</g>
<!-- x20 -->
<g id="node37" class="node">
<title>x20</title>
<path fill="none" stroke="black" d="M1728.9,-512.5C1728.9,-512.5 1767.4,-512.5 1767.4,-512.5 1773.4,-512.5 1779.4,-518.5 1779.4,-524.5 1779.4,-524.5 1779.4,-549.5 1779.4,-549.5 1779.4,-555.5 1773.4,-561.5 1767.4,-561.5 1767.4,-561.5 1728.9,-561.5 1728.9,-561.5 1722.9,-561.5 1716.9,-555.5 1716.9,-549.5 1716.9,-549.5 1716.9,-524.5 1716.9,-524.5 1716.9,-518.5 1722.9,-512.5 1728.9,-512.5"/>
<text text-anchor="middle" x="1748.15" y="-544.2" font-family="Times,serif" font-size="14.00">3:1 &#45; 8:6</text>
<polyline fill="none" stroke="black" points="1716.9,-537 1779.4,-537"/>
<text text-anchor="middle" x="1748.15" y="-519.7" font-family="Times,serif" font-size="14.00">0:0 &#45; 0:0</text>
</g>
<!-- x19&#45;&gt;x20 -->
<g id="edge18" class="edge">
<title>x19:e&#45;&gt;x20:w</title>
<path fill="none" stroke="black" stroke-width="3" d="M1693.62,-537C1697.22,-537 1700.35,-537 1703.93,-537"/>
<polygon fill="none" stroke="black" stroke-width="3" points="1695.6,-537 1689.6,-541 1683.6,-537 1689.6,-533 1695.6,-537"/>
<polygon fill="none" stroke="black" stroke-width="3" points="1702.2,-537 1708.2,-533 1714.2,-537 1708.2,-541 1702.2,-537"/>
</g>
<!-- x20&#45;&gt;n11 -->
<g id="edge23" class="edge">
<title>x20:e&#45;&gt;n11:w</title>
<path fill="none" stroke="black" d="M1779.4,-524.75C1791.16,-524.75 1796.16,-520.75 1804.12,-518.49"/>
<polygon fill="black" stroke="black" points="1804.44,-521.98 1813.9,-517.2 1803.53,-515.04 1804.44,-521.98"/>
</g>
<!-- x20&#45;&gt;n11 -->
<g id="edge24" class="edge">
<title>x20:e&#45;&gt;n11:w</title>
<path fill="none" stroke="black" stroke-width="3" d="M1779.4,-549.25C1796.18,-549.25 1795.6,-529.57 1804.79,-520.95"/>
<polygon fill="black" stroke="black" stroke-width="3" points="1803,-525.36 1811.14,-518.59 1800.55,-518.8 1803,-525.36"/>
</g>
<!-- x21 -->
<g id="node38" class="node">
<title>x21</title>
<path fill="none" stroke="black" d="M2600.45,-381C2600.45,-381 2638.95,-381 2638.95,-381 2644.95,-381 2650.95,-387 2650.95,-393 2650.95,-393 2650.95,-405 2650.95,-405 2650.95,-411 2644.95,-417 2638.95,-417 2638.95,-417 2600.45,-417 2600.45,-417 2594.45,-417 2588.45,-411 2588.45,-405 2588.45,-405 2588.45,-393 2588.45,-393 2588.45,-387 2594.45,-381 2600.45,-381"/>
<text text-anchor="middle" x="2619.7" y="-394.2" font-family="Times,serif" font-size="14.00">2:0 &#45; 8:6</text>
</g>
<!-- x21&#45;&gt;n12 -->
<g id="edge27" class="edge">
<title>x21:e&#45;&gt;n12:w</title>
<path fill="none" stroke="black" stroke-width="3" d="M2650.95,-399.25C2669.55,-399.25 2666.54,-374.96 2676.37,-365.09"/>
<polygon fill="black" stroke="black" stroke-width="3" points="2674.65,-369.51 2682.71,-362.64 2672.13,-362.98 2674.65,-369.51"/>
</g>
<!-- x22 -->
<g id="node39" class="node">
<title>x22</title>
<path fill="none" stroke="black" d="M481.84,-105C481.84,-105 537.59,-105 537.59,-105 543.59,-105 549.59,-111 549.59,-117 549.59,-117 549.59,-129 549.59,-129 549.59,-135 543.59,-141 537.59,-141 537.59,-141 481.84,-141 481.84,-141 475.84,-141 469.84,-135 469.84,-129 469.84,-129 469.84,-117 469.84,-117 469.84,-111 475.84,-105 481.84,-105"/>
<text text-anchor="middle" x="509.72" y="-118.2" font-family="Times,serif" font-size="14.00">2x 8:8 &#45; 1:0</text>
</g>
<!-- x23 -->
<g id="node40" class="node">
<title>x23</title>
<path fill="none" stroke="black" d="M613.22,-129C613.22,-129 651.72,-129 651.72,-129 657.72,-129 663.72,-135 663.72,-141 663.72,-141 663.72,-153 663.72,-153 663.72,-159 657.72,-165 651.72,-165 651.72,-165 613.22,-165 613.22,-165 607.22,-165 601.22,-159 601.22,-153 601.22,-153 601.22,-141 601.22,-141 601.22,-135 607.22,-129 613.22,-129"/>
<text text-anchor="middle" x="632.47" y="-142.2" font-family="Times,serif" font-size="14.00">1:0 &#45; 7:6</text>
</g>
<!-- x22&#45;&gt;x23 -->
<g id="edge19" class="edge">
<title>x22:e&#45;&gt;x23:w</title>
<path fill="none" stroke="black" stroke-width="3" d="M562.19,-125.57C572.31,-130.16 577.42,-139.74 587.5,-144.38"/>
<polygon fill="none" stroke="black" stroke-width="3" points="564,-125.94 557.32,-128.66 552.24,-123.54 558.92,-120.82 564,-125.94"/>
<polygon fill="none" stroke="black" stroke-width="3" points="585.81,-144.03 592.5,-141.32 597.57,-146.45 590.88,-149.16 585.81,-144.03"/>
</g>
<!-- x23&#45;&gt;n13 -->
<g id="edge31" class="edge">
<title>x23:e&#45;&gt;n13:w</title>
<path fill="none" stroke="black" stroke-width="3" d="M664.72,-147.25C672.84,-147.25 669.27,-159.57 663.72,-165.5 604.4,-228.86 554.26,-168.82 469.84,-189 439.74,-196.2 434.87,-207.43 404.39,-212.8 404.28,-212.82 404.17,-212.84 404.07,-212.86"/>
<polygon fill="black" stroke="black" stroke-width="3" points="414.13,-213.04 403.54,-212.66 411.58,-219.56 414.13,-213.04"/>
</g>
<!-- v24 -->
<g id="node41" class="node">
<title>v24</title>
<ellipse fill="none" stroke="black" cx="992.72" cy="-567" rx="30.88" ry="18"/>
<text text-anchor="middle" x="992.72" y="-561.95" font-family="Times,serif" font-size="14.00">3&#39;000</text>
</g>
<!-- x25 -->
<g id="node42" class="node">
<title>x25</title>
<path fill="none" stroke="black" d="M1087.59,-546C1087.59,-546 1126.09,-546 1126.09,-546 1132.09,-546 1138.09,-552 1138.09,-558 1138.09,-558 1138.09,-570 1138.09,-570 1138.09,-576 1132.09,-582 1126.09,-582 1126.09,-582 1087.59,-582 1087.59,-582 1081.59,-582 1075.59,-576 1075.59,-570 1075.59,-570 1075.59,-558 1075.59,-558 1075.59,-552 1081.59,-546 1087.59,-546"/>
<text text-anchor="middle" x="1106.84" y="-559.2" font-family="Times,serif" font-size="14.00">2:0 &#45; 8:6</text>
</g>
<!-- v24&#45;&gt;x25 -->
<g id="edge69" class="edge">
<title>v24:e&#45;&gt;x25:w</title>
<path fill="none" stroke="black" stroke-width="3" d="M1024.88,-567C1043.23,-567 1050.33,-565.02 1064.46,-564.28"/>
<polygon fill="black" stroke="black" stroke-width="3" points="1061.14,-567.86 1071.05,-564.11 1060.97,-560.86 1061.14,-567.86"/>
</g>
<!-- x25&#45;&gt;n2 -->
<g id="edge52" class="edge">
<title>x25:e&#45;&gt;n2:w</title>
<path fill="none" stroke="black" stroke-width="3" d="M1138.09,-564.25C1149.96,-564.25 1154.83,-559.47 1162.77,-556.78"/>
<polygon fill="black" stroke="black" stroke-width="3" points="1160.27,-560.72 1169.61,-555.71 1159.18,-553.8 1160.27,-560.72"/>
</g>
<!-- n11&#45;&gt;x5 -->
<g id="edge25" class="edge">
<title>n11:e&#45;&gt;x5:w</title>
<path fill="none" stroke="black" stroke-width="3" d="M1819,-517C1830.76,-517 1835.76,-513 1843.72,-510.74"/>
<polygon fill="black" stroke="black" stroke-width="3" points="1841.04,-514.63 1850.5,-509.85 1840.12,-507.69 1841.04,-514.63"/>
</g>
<!-- n12&#45;&gt;x4 -->
<g id="edge28" class="edge">
<title>n12:e&#45;&gt;x4:w</title>
<path fill="none" stroke="black" stroke-width="3" d="M2690.55,-361C2701.92,-361 2707.23,-361.13 2715.1,-361.2"/>
<polygon fill="black" stroke="black" stroke-width="3" points="2711.99,-364.69 2722.01,-361.23 2712.02,-357.69 2711.99,-364.69"/>
</g>
<!-- n13&#45;&gt;x0 -->
<g id="edge32" class="edge">
<title>n13:e&#45;&gt;x0:w</title>
<path fill="none" stroke="black" stroke-width="3" d="M405.87,-211C430.08,-211 438.83,-210.82 458.45,-210.76"/>
<polygon fill="black" stroke="black" stroke-width="3" points="455.3,-214.27 465.3,-210.76 455.3,-207.27 455.3,-214.27"/>
</g>
<!-- n13&#45;&gt;x0 -->
<g id="edge33" class="edge">
<title>n13:e&#45;&gt;x0:w</title>
<path fill="none" stroke="black" stroke-width="3" d="M405.87,-211C432,-211 438.01,-228.91 458.48,-233.95"/>
<polygon fill="black" stroke="black" stroke-width="3" points="455,-237.07 465.33,-234.73 455.79,-230.12 455,-237.07"/>
</g>
<!-- n13&#45;&gt;x22 -->
<g id="edge34" class="edge">
<title>n13:e&#45;&gt;x22:w</title>
<path fill="none" stroke="black" stroke-width="3" d="M405.87,-211C449.8,-211 426.77,-138.31 458.67,-125.25"/>
<polygon fill="black" stroke="black" stroke-width="3" points="456.14,-129.26 465.37,-124.05 454.91,-122.36 456.14,-129.26"/>
</g>
<!-- n2&#45;&gt;x9 -->
<g id="edge54" class="edge">
<title>n2:e&#45;&gt;x9:w</title>
<path fill="none" stroke="black" stroke-width="3" d="M1177.69,-555C1197.03,-555 1204.48,-554.83 1219.54,-554.77"/>
<polygon fill="black" stroke="black" stroke-width="3" points="1216.21,-558.28 1226.2,-554.76 1216.2,-551.28 1216.21,-558.28"/>
</g>
<!-- n4&#45;&gt;x12 -->
<g id="edge58" class="edge">
<title>n4:e&#45;&gt;x12:w</title>
<path fill="none" stroke="black" stroke-width="3" d="M2183.85,-486C2203.1,-486 2199.19,-511.9 2209.39,-522.02"/>
<polygon fill="black" stroke="black" stroke-width="3" points="2205.01,-524.1 2215.61,-524.38 2207.51,-517.55 2205.01,-524.1"/>
</g>
<!-- n5&#45;&gt;x12 -->
<g id="edge60" class="edge">
<title>n5:e&#45;&gt;x12:w</title>
<path fill="none" stroke="black" stroke-width="3" d="M1582.4,-549C1601.15,-549 1600.77,-564.61 1618.4,-571 1672.78,-590.7 1689.31,-590 1747.15,-590 1747.15,-590 1747.15,-590 2114,-590 2160.19,-590 2168.48,-556.57 2208.6,-551.22"/>
<polygon fill="black" stroke="black" stroke-width="3" points="2205.56,-554.92 2215.32,-550.79 2205.11,-547.94 2205.56,-554.92"/>
</g>
<!-- n5&#45;&gt;x19 -->
<g id="edge61" class="edge">
<title>n5:e&#45;&gt;x19:w</title>
<path fill="none" stroke="black" stroke-width="3" d="M1582.4,-549C1593.77,-549 1599.08,-549.13 1606.95,-549.2"/>
<polygon fill="black" stroke="black" stroke-width="3" points="1603.84,-552.69 1613.86,-549.23 1603.87,-545.69 1603.84,-552.69"/>
</g>
<!-- n7&#45;&gt;x8 -->
<g id="edge65" class="edge">
<title>n7:e&#45;&gt;x8:w</title>
<path fill="none" stroke="black" stroke-width="3" d="M2552.45,-399C2572.72,-399 2569.98,-418.64 2588.45,-427 2629.38,-445.53 2642.82,-446 2687.75,-446 2687.75,-446 2687.75,-446 3000.42,-446 3066.65,-446 3128.51,-231.77 3194.28,-209.17"/>
<polygon fill="black" stroke="black" stroke-width="3" points="3191.58,-213.2 3200.83,-208.03 3190.37,-206.3 3191.58,-213.2"/>
</g>
<!-- n7&#45;&gt;x21 -->
<g id="edge64" class="edge">
<title>n7:e&#45;&gt;x21:w</title>
<path fill="none" stroke="black" stroke-width="3" d="M2552.45,-399C2563.82,-399 2569.13,-399 2577,-399"/>
<polygon fill="black" stroke="black" stroke-width="3" points="2573.91,-402.5 2583.91,-399 2573.91,-395.5 2573.91,-402.5"/>
</g>
</g>
</svg>
