<?xml version="1.0" encoding="UTF-8" standalone="no"?>
<!DOCTYPE svg PUBLIC "-//W3C//DTD SVG 1.1//EN"
 "http://www.w3.org/Graphics/SVG/1.1/DTD/svg11.dtd">
<!-- Generated by graphviz version 12.2.1 (20241206.2353)
 -->
<!-- Title: top Pages: 1 -->
<svg width="3176pt" height="454pt"
 viewBox="0.00 0.00 3176.39 453.50" xmlns="http://www.w3.org/2000/svg" xmlns:xlink="http://www.w3.org/1999/xlink">
<g id="graph0" class="graph" transform="scale(1 1) rotate(0) translate(4 449.5)">
<title>top</title>
<polygon fill="white" stroke="none" points="-4,4 -4,-449.5 3172.39,-449.5 3172.39,4 -4,4"/>
<text text-anchor="middle" x="1584.2" y="-7.2" font-family="Times,serif" font-size="14.00">top</text>
<!-- n7 -->
<g id="node1" class="node">
<title>n7</title>
<polygon fill="none" stroke="black" points="552.54,-214.5 468.34,-196.5 552.54,-178.5 636.75,-196.5 552.54,-214.5"/>
<text text-anchor="middle" x="552.54" y="-191.45" font-family="Times,serif" font-size="14.00">expr_984625</text>
</g>
<!-- x0 -->
<g id="node7" class="node">
<title>x0</title>
<path fill="none" stroke="black" d="M684.75,-292C684.75,-292 723.25,-292 723.25,-292 729.25,-292 735.25,-298 735.25,-304 735.25,-304 735.25,-329 735.25,-329 735.25,-335 729.25,-341 723.25,-341 723.25,-341 684.75,-341 684.75,-341 678.75,-341 672.75,-335 672.75,-329 672.75,-329 672.75,-304 672.75,-304 672.75,-298 678.75,-292 684.75,-292"/>
<text text-anchor="middle" x="704" y="-323.7" font-family="Times,serif" font-size="14.00">1:1 &#45; 1:1</text>
<polyline fill="none" stroke="black" points="672.75,-316.5 735.25,-316.5"/>
<text text-anchor="middle" x="704" y="-299.2" font-family="Times,serif" font-size="14.00">4:4 &#45; 0:0</text>
</g>
<!-- n7&#45;&gt;x0 -->
<g id="edge40" class="edge">
<title>n7:e&#45;&gt;x0:w</title>
<path fill="none" stroke="black" d="M636.75,-196.5C693.14,-196.5 623.76,-309.85 661.49,-326.67"/>
<polygon fill="black" stroke="black" points="660.79,-330.1 671.26,-328.48 662.06,-323.22 660.79,-330.1"/>
</g>
<!-- x11 -->
<g id="node24" class="node">
<title>x11</title>
<path fill="none" stroke="black" d="M684.75,-25C684.75,-25 723.25,-25 723.25,-25 729.25,-25 735.25,-31 735.25,-37 735.25,-37 735.25,-62 735.25,-62 735.25,-68 729.25,-74 723.25,-74 723.25,-74 684.75,-74 684.75,-74 678.75,-74 672.75,-68 672.75,-62 672.75,-62 672.75,-37 672.75,-37 672.75,-31 678.75,-25 684.75,-25"/>
<text text-anchor="middle" x="704" y="-56.7" font-family="Times,serif" font-size="14.00">1:1 &#45; 1:1</text>
<polyline fill="none" stroke="black" points="672.75,-49.5 735.25,-49.5"/>
<text text-anchor="middle" x="704" y="-32.2" font-family="Times,serif" font-size="14.00">4:4 &#45; 0:0</text>
</g>
<!-- n7&#45;&gt;x11 -->
<g id="edge41" class="edge">
<title>n7:e&#45;&gt;x11:w</title>
<path fill="none" stroke="black" d="M636.75,-196.5C694.38,-196.5 622.39,-80.03 661.79,-63.65"/>
<polygon fill="black" stroke="black" points="662,-67.17 671.26,-62.01 660.8,-60.27 662,-67.17"/>
</g>
<!-- n8 -->
<g id="node2" class="node">
<title>n8</title>
<polygon fill="none" stroke="black" points="107.84,-262.04 107.84,-276.96 76.26,-287.5 31.59,-287.5 0,-276.96 0,-262.04 31.59,-251.5 76.26,-251.5 107.84,-262.04"/>
<text text-anchor="middle" x="53.92" y="-264.45" font-family="Times,serif" font-size="14.00">input_data</text>
</g>
<!-- c15 -->
<g id="node6" class="node">
<title>c15</title>
<polygon fill="none" stroke="black" points="771.25,-318 771.25,-367 865,-367 865,-318 771.25,-318"/>
<text text-anchor="middle" x="784.12" y="-349.7" font-family="Times,serif" font-size="14.00">A</text>
<polyline fill="none" stroke="black" points="771.25,-342.5 797,-342.5"/>
<text text-anchor="middle" x="784.12" y="-325.2" font-family="Times,serif" font-size="14.00">B</text>
<polyline fill="none" stroke="black" points="797,-318 797,-367"/>
<text text-anchor="middle" x="818.12" y="-345.7" font-family="Times,serif" font-size="14.00">$16</text>
<text text-anchor="middle" x="818.12" y="-329.2" font-family="Times,serif" font-size="14.00">$add</text>
<polyline fill="none" stroke="black" points="839.25,-318 839.25,-367"/>
<text text-anchor="middle" x="852.12" y="-337.7" font-family="Times,serif" font-size="14.00">Y</text>
</g>
<!-- n8&#45;&gt;c15 -->
<g id="edge42" class="edge">
<title>n8:e&#45;&gt;c15:w</title>
<path fill="none" stroke="black" stroke-width="3" d="M107.84,-269.5C140.09,-269.5 118.21,-312.93 143.84,-332.5 196.1,-372.41 221.33,-369.5 287.09,-369.5 287.09,-369.5 287.09,-369.5 553.54,-369.5 646.64,-369.5 672.25,-355.91 759.94,-354.82"/>
<polygon fill="black" stroke="black" stroke-width="3" points="756.73,-358.34 766.71,-354.78 756.68,-351.34 756.73,-358.34"/>
</g>
<!-- n8&#45;&gt;x0 -->
<g id="edge44" class="edge">
<title>n8:e&#45;&gt;x0:w</title>
<path fill="none" stroke="black" d="M107.84,-269.5C131.11,-269.5 123.31,-296.57 143.84,-307.5 200.82,-337.84 222.54,-331.5 287.09,-331.5 287.09,-331.5 287.09,-331.5 402.09,-331.5 519.09,-331.5 549.89,-305.98 661.34,-304.33"/>
<polygon fill="black" stroke="black" points="661.26,-307.83 671.23,-304.26 661.21,-300.83 661.26,-307.83"/>
</g>
<!-- c16 -->
<g id="node9" class="node">
<title>c16</title>
<polygon fill="none" stroke="black" points="2662.55,-171 2662.55,-220 2756.3,-220 2756.3,-171 2662.55,-171"/>
<text text-anchor="middle" x="2675.42" y="-202.7" font-family="Times,serif" font-size="14.00">A</text>
<polyline fill="none" stroke="black" points="2662.55,-195.5 2688.3,-195.5"/>
<text text-anchor="middle" x="2675.42" y="-178.2" font-family="Times,serif" font-size="14.00">B</text>
<polyline fill="none" stroke="black" points="2688.3,-171 2688.3,-220"/>
<text text-anchor="middle" x="2709.42" y="-198.7" font-family="Times,serif" font-size="14.00">$43</text>
<text text-anchor="middle" x="2709.42" y="-182.2" font-family="Times,serif" font-size="14.00">$add</text>
<polyline fill="none" stroke="black" points="2730.55,-171 2730.55,-220"/>
<text text-anchor="middle" x="2743.42" y="-190.7" font-family="Times,serif" font-size="14.00">Y</text>
</g>
<!-- n8&#45;&gt;c16 -->
<g id="edge43" class="edge">
<title>n8:e&#45;&gt;c16:w</title>
<path fill="none" stroke="black" stroke-width="3" d="M107.84,-269.5C166.08,-269.5 103.86,-353.15 143.84,-395.5 190.13,-444.53 219.66,-445.5 287.09,-445.5 287.09,-445.5 287.09,-445.5 2437.17,-445.5 2578.79,-445.5 2520.39,-220.57 2651.07,-208.27"/>
<polygon fill="black" stroke="black" stroke-width="3" points="2648.18,-211.91 2658.01,-207.96 2647.86,-204.92 2648.18,-211.91"/>
</g>
<!-- x3 -->
<g id="node12" class="node">
<title>x3</title>
<path fill="none" stroke="black" d="M1035.5,-245.5C1035.5,-245.5 1074,-245.5 1074,-245.5 1080,-245.5 1086,-251.5 1086,-257.5 1086,-257.5 1086,-269.5 1086,-269.5 1086,-275.5 1080,-281.5 1074,-281.5 1074,-281.5 1035.5,-281.5 1035.5,-281.5 1029.5,-281.5 1023.5,-275.5 1023.5,-269.5 1023.5,-269.5 1023.5,-257.5 1023.5,-257.5 1023.5,-251.5 1029.5,-245.5 1035.5,-245.5"/>
<text text-anchor="middle" x="1054.75" y="-258.7" font-family="Times,serif" font-size="14.00">3:3 &#45; 0:0</text>
</g>
<!-- n8&#45;&gt;x3 -->
<g id="edge48" class="edge">
<title>n8:e&#45;&gt;x3:w</title>
<path fill="none" stroke="black" d="M107.84,-269.5C123.99,-269.5 127.73,-273.39 143.84,-274.5 271.76,-283.34 304.12,-275.67 432.34,-274.5 690.82,-272.15 758.2,-263.99 1011.09,-263.76"/>
<polygon fill="black" stroke="black" points="1010.99,-267.26 1020.98,-263.75 1010.98,-260.26 1010.99,-267.26"/>
</g>
<!-- x4 -->
<g id="node14" class="node">
<title>x4</title>
<path fill="none" stroke="black" d="M155.84,-228.5C155.84,-228.5 194.34,-228.5 194.34,-228.5 200.34,-228.5 206.34,-234.5 206.34,-240.5 206.34,-240.5 206.34,-252.5 206.34,-252.5 206.34,-258.5 200.34,-264.5 194.34,-264.5 194.34,-264.5 155.84,-264.5 155.84,-264.5 149.84,-264.5 143.84,-258.5 143.84,-252.5 143.84,-252.5 143.84,-240.5 143.84,-240.5 143.84,-234.5 149.84,-228.5 155.84,-228.5"/>
<text text-anchor="middle" x="175.09" y="-241.7" font-family="Times,serif" font-size="14.00">5:5 &#45; 0:0</text>
</g>
<!-- n8&#45;&gt;x4 -->
<g id="edge49" class="edge">
<title>n8:e&#45;&gt;x4:w</title>
<path fill="none" stroke="black" d="M107.84,-269.5C122.04,-269.5 124.54,-256.7 132.89,-250.3"/>
<polygon fill="black" stroke="black" points="133.97,-253.63 142.4,-247.22 131.81,-246.98 133.97,-253.63"/>
</g>
<!-- x6 -->
<g id="node17" class="node">
<title>x6</title>
<path fill="none" stroke="black" d="M1708.85,-279C1708.85,-279 1747.35,-279 1747.35,-279 1753.35,-279 1759.35,-285 1759.35,-291 1759.35,-291 1759.35,-316 1759.35,-316 1759.35,-322 1753.35,-328 1747.35,-328 1747.35,-328 1708.85,-328 1708.85,-328 1702.85,-328 1696.85,-322 1696.85,-316 1696.85,-316 1696.85,-291 1696.85,-291 1696.85,-285 1702.85,-279 1708.85,-279"/>
<text text-anchor="middle" x="1728.1" y="-310.7" font-family="Times,serif" font-size="14.00">6:4 &#45; 3:1</text>
<polyline fill="none" stroke="black" points="1696.85,-303.5 1759.35,-303.5"/>
<text text-anchor="middle" x="1728.1" y="-286.2" font-family="Times,serif" font-size="14.00">0:0 &#45; 0:0</text>
</g>
<!-- n8&#45;&gt;x6 -->
<g id="edge50" class="edge">
<title>n8:e&#45;&gt;x6:w</title>
<path fill="none" stroke="black" stroke-width="3" d="M107.84,-269.5C152.16,-269.5 111.5,-332.19 143.84,-362.5 192.54,-408.13 220.36,-407.5 287.09,-407.5 287.09,-407.5 287.09,-407.5 1506.85,-407.5 1550.25,-407.5 1635.95,-328.86 1685.63,-317.19"/>
<polygon fill="black" stroke="black" stroke-width="3" points="1682.87,-321.07 1692.34,-316.33 1681.98,-314.13 1682.87,-321.07"/>
</g>
<!-- x7 -->
<g id="node18" class="node">
<title>x7</title>
<path fill="none" stroke="black" d="M913,-148.5C913,-148.5 951.5,-148.5 951.5,-148.5 957.5,-148.5 963.5,-154.5 963.5,-160.5 963.5,-160.5 963.5,-172.5 963.5,-172.5 963.5,-178.5 957.5,-184.5 951.5,-184.5 951.5,-184.5 913,-184.5 913,-184.5 907,-184.5 901,-178.5 901,-172.5 901,-172.5 901,-160.5 901,-160.5 901,-154.5 907,-148.5 913,-148.5"/>
<text text-anchor="middle" x="932.25" y="-161.7" font-family="Times,serif" font-size="14.00">5:2 &#45; 3:0</text>
</g>
<!-- n8&#45;&gt;x7 -->
<g id="edge51" class="edge">
<title>n8:e&#45;&gt;x7:w</title>
<path fill="none" stroke="black" stroke-width="3" d="M107.84,-269.5C163.1,-269.5 99.47,-183.43 143.84,-150.5 246.8,-74.08 304.14,-148.28 432.34,-150.5 636.86,-154.04 690.6,-166.28 889.55,-166.74"/>
<polygon fill="black" stroke="black" stroke-width="3" points="886.45,-170.23 896.46,-166.74 886.46,-163.23 886.45,-170.23"/>
</g>
<!-- x10 -->
<g id="node22" class="node">
<title>x10</title>
<path fill="none" stroke="black" d="M533.29,-75.5C533.29,-75.5 571.79,-75.5 571.79,-75.5 577.79,-75.5 583.79,-81.5 583.79,-87.5 583.79,-87.5 583.79,-99.5 583.79,-99.5 583.79,-105.5 577.79,-111.5 571.79,-111.5 571.79,-111.5 533.29,-111.5 533.29,-111.5 527.29,-111.5 521.29,-105.5 521.29,-99.5 521.29,-99.5 521.29,-87.5 521.29,-87.5 521.29,-81.5 527.29,-75.5 533.29,-75.5"/>
<text text-anchor="middle" x="552.54" y="-88.7" font-family="Times,serif" font-size="14.00">5:2 &#45; 3:0</text>
</g>
<!-- n8&#45;&gt;x10 -->
<g id="edge45" class="edge">
<title>n8:e&#45;&gt;x10:w</title>
<path fill="none" stroke="black" stroke-width="3" d="M107.84,-269.5C177.27,-269.5 90.77,-162.26 143.84,-117.5 269.12,-11.85 349,-90.06 509.13,-93.63"/>
<polygon fill="black" stroke="black" stroke-width="3" points="505.71,-97.09 515.75,-93.7 505.79,-90.09 505.71,-97.09"/>
</g>
<!-- n8&#45;&gt;x11 -->
<g id="edge46" class="edge">
<title>n8:e&#45;&gt;x11:w</title>
<path fill="none" stroke="black" d="M107.84,-269.5C195.97,-269.5 82.69,-137.97 143.84,-74.5 189.1,-27.52 221.86,-42.5 287.09,-42.5 287.09,-42.5 287.09,-42.5 402.09,-42.5 518.53,-42.5 550.4,-37.58 661.39,-37.27"/>
<polygon fill="black" stroke="black" points="661.24,-40.77 671.23,-37.25 661.23,-33.77 661.24,-40.77"/>
</g>
<!-- x18 -->
<g id="node32" class="node">
<title>x18</title>
<path fill="none" stroke="black" d="M155.84,-160C155.84,-160 194.34,-160 194.34,-160 200.34,-160 206.34,-166 206.34,-172 206.34,-172 206.34,-197 206.34,-197 206.34,-203 200.34,-209 194.34,-209 194.34,-209 155.84,-209 155.84,-209 149.84,-209 143.84,-203 143.84,-197 143.84,-197 143.84,-172 143.84,-172 143.84,-166 149.84,-160 155.84,-160"/>
<text text-anchor="middle" x="175.09" y="-191.7" font-family="Times,serif" font-size="14.00">0 &#45;&gt; 1:1</text>
<polyline fill="none" stroke="black" points="143.84,-184.5 206.34,-184.5"/>
<text text-anchor="middle" x="175.09" y="-167.2" font-family="Times,serif" font-size="14.00">4:4 &#45; 0:0</text>
</g>
<!-- n8&#45;&gt;x18 -->
<g id="edge47" class="edge">
<title>n8:e&#45;&gt;x18:w</title>
<path fill="none" stroke="black" d="M107.84,-269.5C149.25,-269.5 108.11,-191 132.75,-175.06"/>
<polygon fill="black" stroke="black" points="133.54,-178.47 142.37,-172.62 131.82,-171.68 133.54,-178.47"/>
</g>
<!-- n9 -->
<g id="node3" class="node">
<title>n9</title>
<polygon fill="none" stroke="black" points="3168.39,-83.04 3168.39,-97.96 3133.89,-108.5 3085.09,-108.5 3050.58,-97.96 3050.58,-83.04 3085.09,-72.5 3133.89,-72.5 3168.39,-83.04"/>
<text text-anchor="middle" x="3109.49" y="-85.45" font-family="Times,serif" font-size="14.00">output_data</text>
</g>
<!-- n10 -->
<g id="node4" class="node">
<title>n10</title>
<polygon fill="none" stroke="black" points="1054.75,-339.5 999.5,-321.5 1054.75,-303.5 1110,-321.5 1054.75,-339.5"/>
<text text-anchor="middle" x="1054.75" y="-316.45" font-family="Times,serif" font-size="14.00">temp_3</text>
</g>
<!-- x14 -->
<g id="node28" class="node">
<title>x14</title>
<path fill="none" stroke="black" d="M1195,-292C1195,-292 1238,-292 1238,-292 1244,-292 1250,-298 1250,-304 1250,-304 1250,-329 1250,-329 1250,-335 1244,-341 1238,-341 1238,-341 1195,-341 1195,-341 1189,-341 1183,-335 1183,-329 1183,-329 1183,-304 1183,-304 1183,-298 1189,-292 1195,-292"/>
<text text-anchor="middle" x="1216.5" y="-323.7" font-family="Times,serif" font-size="14.00">0 &#45;&gt; 14:7</text>
<polyline fill="none" stroke="black" points="1183,-316.5 1250,-316.5"/>
<text text-anchor="middle" x="1216.5" y="-299.2" font-family="Times,serif" font-size="14.00">6:0 &#45; 6:0</text>
</g>
<!-- n10&#45;&gt;x14 -->
<g id="edge20" class="edge">
<title>n10:e&#45;&gt;x14:w</title>
<path fill="none" stroke="black" stroke-width="3" d="M1110,-321.5C1138.79,-321.5 1147.13,-308.29 1170.81,-304.99"/>
<polygon fill="black" stroke="black" stroke-width="3" points="1167.72,-308.7 1177.47,-304.55 1167.26,-301.72 1167.72,-308.7"/>
</g>
<!-- n11 -->
<g id="node5" class="node">
<title>n11</title>
<polygon fill="none" stroke="black" points="2571.3,-148.5 2516.05,-130.5 2571.3,-112.5 2626.55,-130.5 2571.3,-148.5"/>
<text text-anchor="middle" x="2571.3" y="-125.45" font-family="Times,serif" font-size="14.00">temp_4</text>
</g>
<!-- n11&#45;&gt;c16 -->
<g id="edge22" class="edge">
<title>n11:e&#45;&gt;c16:w</title>
<path fill="none" stroke="black" stroke-width="3" d="M2626.55,-130.5C2650.28,-130.5 2639.66,-167.36 2652.11,-179.46"/>
<polygon fill="black" stroke="black" stroke-width="3" points="2647.69,-181.57 2658.28,-181.7 2650.08,-174.99 2647.69,-181.57"/>
</g>
<!-- x12 -->
<g id="node26" class="node">
<title>x12</title>
<path fill="none" stroke="black" d="M2690.17,-103C2690.17,-103 2728.67,-103 2728.67,-103 2734.67,-103 2740.67,-109 2740.67,-115 2740.67,-115 2740.67,-140 2740.67,-140 2740.67,-146 2734.67,-152 2728.67,-152 2728.67,-152 2690.17,-152 2690.17,-152 2684.17,-152 2678.17,-146 2678.17,-140 2678.17,-140 2678.17,-115 2678.17,-115 2678.17,-109 2684.17,-103 2690.17,-103"/>
<text text-anchor="middle" x="2709.42" y="-134.7" font-family="Times,serif" font-size="14.00">0 &#45;&gt; 7:4</text>
<polyline fill="none" stroke="black" points="2678.17,-127.5 2740.67,-127.5"/>
<text text-anchor="middle" x="2709.42" y="-110.2" font-family="Times,serif" font-size="14.00">3:0 &#45; 3:0</text>
</g>
<!-- n11&#45;&gt;x12 -->
<g id="edge23" class="edge">
<title>n11:e&#45;&gt;x12:w</title>
<path fill="none" stroke="black" stroke-width="3" d="M2626.55,-130.5C2645.64,-130.5 2651.62,-120.43 2665.79,-116.66"/>
<polygon fill="black" stroke="black" stroke-width="3" points="2663.17,-120.51 2672.67,-115.81 2662.31,-113.56 2663.17,-120.51"/>
</g>
<!-- x1 -->
<g id="node8" class="node">
<title>x1</title>
<path fill="none" stroke="black" d="M913,-318C913,-318 951.5,-318 951.5,-318 957.5,-318 963.5,-324 963.5,-330 963.5,-330 963.5,-355 963.5,-355 963.5,-361 957.5,-367 951.5,-367 951.5,-367 913,-367 913,-367 907,-367 901,-361 901,-355 901,-355 901,-330 901,-330 901,-324 907,-318 913,-318"/>
<text text-anchor="middle" x="932.25" y="-349.7" font-family="Times,serif" font-size="14.00">7:7 &#45; 7:7</text>
<polyline fill="none" stroke="black" points="901,-342.5 963.5,-342.5"/>
<text text-anchor="middle" x="932.25" y="-325.2" font-family="Times,serif" font-size="14.00">6:0 &#45; 6:0</text>
</g>
<!-- c15&#45;&gt;x1 -->
<g id="edge2" class="edge">
<title>c15:e&#45;&gt;x1:w</title>
<path fill="none" stroke="black" stroke-width="3" d="M877.72,-342.69C881.32,-342.65 884.45,-342.6 888.02,-342.57"/>
<polygon fill="none" stroke="black" stroke-width="3" points="879.7,-342.68 873.72,-346.71 867.7,-342.74 873.68,-338.71 879.7,-342.68"/>
<polygon fill="none" stroke="black" stroke-width="3" points="886.29,-342.57 892.27,-338.54 898.29,-342.51 892.31,-346.54 886.29,-342.57"/>
</g>
<!-- x0&#45;&gt;c15 -->
<g id="edge1" class="edge">
<title>x0:e&#45;&gt;c15:w</title>
<path fill="none" stroke="black" stroke-width="3" d="M747.74,-319.69C751.69,-321.91 754.83,-324.86 758.79,-327.08"/>
<polygon fill="none" stroke="black" stroke-width="3" points="749.49,-320.14 742.69,-322.53 737.87,-317.17 744.67,-314.78 749.49,-320.14"/>
<polygon fill="none" stroke="black" stroke-width="3" points="757,-326.62 763.8,-324.23 768.63,-329.58 761.82,-331.98 757,-326.62"/>
</g>
<!-- x1&#45;&gt;n10 -->
<g id="edge19" class="edge">
<title>x1:e&#45;&gt;n10:w</title>
<path fill="none" stroke="black" stroke-width="3" d="M963.5,-330.25C975.33,-330.25 980.24,-325.73 988.19,-323.19"/>
<polygon fill="black" stroke="black" stroke-width="3" points="985.63,-327.11 995.01,-322.17 984.6,-320.18 985.63,-327.11"/>
</g>
<!-- n4 -->
<g id="node37" class="node">
<title>n4</title>
<ellipse fill="black" stroke="black" cx="1436.8" cy="-323.5" rx="1.8" ry="1.8"/>
</g>
<!-- x1&#45;&gt;n4 -->
<g id="edge30" class="edge">
<title>x1:e&#45;&gt;n4:w</title>
<path fill="none" stroke="black" d="M963.5,-354.75C1157.06,-354.75 1215.67,-412.61 1399,-350.5 1413.5,-345.59 1415.17,-332.37 1424.14,-326.44"/>
<polygon fill="black" stroke="black" points="1424.8,-329.89 1433.54,-323.9 1422.97,-323.14 1424.8,-329.89"/>
</g>
<!-- c23 -->
<g id="node25" class="node">
<title>c23</title>
<polygon fill="none" stroke="black" points="2801.32,-90.75 2801.32,-164.25 2900.32,-164.25 2900.32,-90.75 2801.32,-90.75"/>
<text text-anchor="middle" x="2814.19" y="-146.95" font-family="Times,serif" font-size="14.00">A</text>
<polyline fill="none" stroke="black" points="2801.32,-139.75 2827.07,-139.75"/>
<text text-anchor="middle" x="2814.19" y="-122.45" font-family="Times,serif" font-size="14.00">B</text>
<polyline fill="none" stroke="black" points="2801.32,-115.25 2827.07,-115.25"/>
<text text-anchor="middle" x="2814.19" y="-97.95" font-family="Times,serif" font-size="14.00">S</text>
<polyline fill="none" stroke="black" points="2827.07,-90.75 2827.07,-164.25"/>
<text text-anchor="middle" x="2850.82" y="-130.7" font-family="Times,serif" font-size="14.00">$46</text>
<text text-anchor="middle" x="2850.82" y="-114.2" font-family="Times,serif" font-size="14.00">$mux</text>
<polyline fill="none" stroke="black" points="2874.57,-90.75 2874.57,-164.25"/>
<text text-anchor="middle" x="2887.44" y="-122.45" font-family="Times,serif" font-size="14.00">Y</text>
</g>
<!-- c16&#45;&gt;c23 -->
<g id="edge18" class="edge">
<title>c16:e&#45;&gt;c23:w</title>
<path fill="none" stroke="black" stroke-width="3" d="M2756.3,-195.75C2779.36,-195.75 2775.35,-165.18 2789.52,-155.15"/>
<polygon fill="black" stroke="black" stroke-width="3" points="2787.34,-159.43 2795.96,-153.27 2785.38,-152.71 2787.34,-159.43"/>
</g>
<!-- c17 -->
<g id="node10" class="node">
<title>c17</title>
<polygon fill="none" stroke="black" points="1573.1,-267 1573.1,-316 1660.85,-316 1660.85,-267 1573.1,-267"/>
<text text-anchor="middle" x="1585.97" y="-298.7" font-family="Times,serif" font-size="14.00">A</text>
<polyline fill="none" stroke="black" points="1573.1,-291.5 1598.85,-291.5"/>
<text text-anchor="middle" x="1585.97" y="-274.2" font-family="Times,serif" font-size="14.00">B</text>
<polyline fill="none" stroke="black" points="1598.85,-267 1598.85,-316"/>
<text text-anchor="middle" x="1616.97" y="-294.7" font-family="Times,serif" font-size="14.00">$58</text>
<text text-anchor="middle" x="1616.97" y="-278.2" font-family="Times,serif" font-size="14.00">$or</text>
<polyline fill="none" stroke="black" points="1635.1,-267 1635.1,-316"/>
<text text-anchor="middle" x="1647.97" y="-286.7" font-family="Times,serif" font-size="14.00">Y</text>
</g>
<!-- c17&#45;&gt;x6 -->
<g id="edge24" class="edge">
<title>c17:e&#45;&gt;x6:w</title>
<path fill="none" stroke="black" d="M1660.85,-291.75C1672.22,-291.75 1677.53,-291.5 1685.4,-291.35"/>
<polygon fill="black" stroke="black" points="1685.37,-294.85 1695.33,-291.26 1685.3,-287.85 1685.37,-294.85"/>
</g>
<!-- x2 -->
<g id="node11" class="node">
<title>x2</title>
<path fill="none" stroke="black" d="M1486.6,-301.5C1486.6,-301.5 1525.1,-301.5 1525.1,-301.5 1531.1,-301.5 1537.1,-307.5 1537.1,-313.5 1537.1,-313.5 1537.1,-325.5 1537.1,-325.5 1537.1,-331.5 1531.1,-337.5 1525.1,-337.5 1525.1,-337.5 1486.6,-337.5 1486.6,-337.5 1480.6,-337.5 1474.6,-331.5 1474.6,-325.5 1474.6,-325.5 1474.6,-313.5 1474.6,-313.5 1474.6,-307.5 1480.6,-301.5 1486.6,-301.5"/>
<text text-anchor="middle" x="1505.85" y="-314.7" font-family="Times,serif" font-size="14.00">7:7 &#45; 0:0</text>
</g>
<!-- x2&#45;&gt;c17 -->
<g id="edge3" class="edge">
<title>x2:e&#45;&gt;c17:w</title>
<path fill="none" stroke="black" d="M1549.42,-316C1553.54,-313.39 1556.67,-309.84 1560.79,-307.24"/>
<polygon fill="none" stroke="black" points="1549.51,-315.98 1544.83,-321.47 1537.96,-319.25 1542.65,-313.77 1549.51,-315.98"/>
<polygon fill="none" stroke="black" points="1560.68,-307.27 1565.37,-301.78 1572.23,-304 1567.55,-309.48 1560.68,-307.27"/>
</g>
<!-- x3&#45;&gt;c17 -->
<g id="edge4" class="edge">
<title>x3:e&#45;&gt;c17:w</title>
<path fill="none" stroke="black" d="M1099.8,-263.5C1210.64,-263.5 1243.05,-263.5 1360,-263.5 1360,-263.5 1360,-263.5 1437.8,-263.5 1493.84,-263.5 1510.19,-277 1560.35,-279"/>
<polygon fill="none" stroke="black" points="1099.9,-263.5 1093.9,-267.5 1087.9,-263.5 1093.9,-259.5 1099.9,-263.5"/>
<polygon fill="none" stroke="black" points="1560.2,-279 1566.27,-275.12 1572.2,-279.23 1566.12,-283.12 1560.2,-279"/>
</g>
<!-- c18 -->
<g id="node13" class="node">
<title>c18</title>
<polygon fill="none" stroke="black" points="242.34,-224 242.34,-265 333.84,-265 333.84,-224 242.34,-224"/>
<text text-anchor="middle" x="255.22" y="-239.7" font-family="Times,serif" font-size="14.00">A</text>
<polyline fill="none" stroke="black" points="268.09,-224 268.09,-265"/>
<text text-anchor="middle" x="288.09" y="-247.7" font-family="Times,serif" font-size="14.00">$47</text>
<text text-anchor="middle" x="288.09" y="-231.2" font-family="Times,serif" font-size="14.00">$not</text>
<polyline fill="none" stroke="black" points="308.09,-224 308.09,-265"/>
<text text-anchor="middle" x="320.97" y="-239.7" font-family="Times,serif" font-size="14.00">Y</text>
</g>
<!-- x5 -->
<g id="node15" class="node">
<title>x5</title>
<path fill="none" stroke="black" d="M381.84,-228.5C381.84,-228.5 420.34,-228.5 420.34,-228.5 426.34,-228.5 432.34,-234.5 432.34,-240.5 432.34,-240.5 432.34,-252.5 432.34,-252.5 432.34,-258.5 426.34,-264.5 420.34,-264.5 420.34,-264.5 381.84,-264.5 381.84,-264.5 375.84,-264.5 369.84,-258.5 369.84,-252.5 369.84,-252.5 369.84,-240.5 369.84,-240.5 369.84,-234.5 375.84,-228.5 381.84,-228.5"/>
<text text-anchor="middle" x="401.09" y="-241.7" font-family="Times,serif" font-size="14.00">0:0 &#45; 1:1</text>
</g>
<!-- c18&#45;&gt;x5 -->
<g id="edge6" class="edge">
<title>c18:e&#45;&gt;x5:w</title>
<path fill="none" stroke="black" d="M346.57,-245.19C350.16,-245.45 353.29,-245.78 356.86,-246.04"/>
<polygon fill="none" stroke="black" points="346.73,-245.2 340.6,-248.99 334.74,-244.78 340.88,-240.99 346.73,-245.2"/>
<polygon fill="none" stroke="black" points="356.95,-246.04 363.09,-242.26 368.94,-246.47 362.8,-250.25 356.95,-246.04"/>
</g>
<!-- x4&#45;&gt;c18 -->
<g id="edge5" class="edge">
<title>x4:e&#45;&gt;c18:w</title>
<path fill="none" stroke="black" d="M219.07,-246.06C222.66,-245.8 225.79,-245.47 229.36,-245.21"/>
<polygon fill="none" stroke="black" points="219.23,-246.05 213.38,-250.26 207.24,-246.47 213.1,-242.26 219.23,-246.05"/>
<polygon fill="none" stroke="black" points="229.45,-245.21 235.3,-241 241.44,-244.78 235.59,-248.99 229.45,-245.21"/>
</g>
<!-- x5&#45;&gt;n7 -->
<g id="edge39" class="edge">
<title>x5:e&#45;&gt;n7:w</title>
<path fill="none" stroke="black" d="M432.34,-246.75C455.09,-246.75 446.01,-212.29 457.82,-200.44"/>
<polygon fill="black" stroke="black" points="458.79,-203.82 466.92,-197.03 456.33,-197.26 458.79,-203.82"/>
</g>
<!-- c19 -->
<g id="node16" class="node">
<title>c19</title>
<polygon fill="none" stroke="black" points="1795.35,-208 1795.35,-257 1883.1,-257 1883.1,-208 1795.35,-208"/>
<text text-anchor="middle" x="1808.22" y="-239.7" font-family="Times,serif" font-size="14.00">A</text>
<polyline fill="none" stroke="black" points="1795.35,-232.5 1821.1,-232.5"/>
<text text-anchor="middle" x="1808.22" y="-215.2" font-family="Times,serif" font-size="14.00">B</text>
<polyline fill="none" stroke="black" points="1821.1,-208 1821.1,-257"/>
<text text-anchor="middle" x="1839.22" y="-235.7" font-family="Times,serif" font-size="14.00">$18</text>
<text text-anchor="middle" x="1839.22" y="-219.2" font-family="Times,serif" font-size="14.00">$or</text>
<polyline fill="none" stroke="black" points="1857.35,-208 1857.35,-257"/>
<text text-anchor="middle" x="1870.22" y="-227.7" font-family="Times,serif" font-size="14.00">Y</text>
</g>
<!-- x8 -->
<g id="node19" class="node">
<title>x8</title>
<path fill="none" stroke="black" d="M1931.1,-208C1931.1,-208 1969.6,-208 1969.6,-208 1975.6,-208 1981.6,-214 1981.6,-220 1981.6,-220 1981.6,-245 1981.6,-245 1981.6,-251 1975.6,-257 1969.6,-257 1969.6,-257 1931.1,-257 1931.1,-257 1925.1,-257 1919.1,-251 1919.1,-245 1919.1,-245 1919.1,-220 1919.1,-220 1919.1,-214 1925.1,-208 1931.1,-208"/>
<text text-anchor="middle" x="1950.35" y="-239.7" font-family="Times,serif" font-size="14.00">3:3 &#45; 3:3</text>
<polyline fill="none" stroke="black" points="1919.1,-232.5 1981.6,-232.5"/>
<text text-anchor="middle" x="1950.35" y="-215.2" font-family="Times,serif" font-size="14.00">2:0 &#45; 2:0</text>
</g>
<!-- c19&#45;&gt;x8 -->
<g id="edge9" class="edge">
<title>c19:e&#45;&gt;x8:w</title>
<path fill="none" stroke="black" stroke-width="3" d="M1895.82,-232.69C1899.42,-232.65 1902.55,-232.6 1906.13,-232.57"/>
<polygon fill="none" stroke="black" stroke-width="3" points="1897.8,-232.68 1891.82,-236.71 1885.8,-232.74 1891.78,-228.71 1897.8,-232.68"/>
<polygon fill="none" stroke="black" stroke-width="3" points="1904.39,-232.57 1910.37,-228.54 1916.39,-232.51 1910.41,-236.54 1904.39,-232.57"/>
</g>
<!-- x6&#45;&gt;c19 -->
<g id="edge7" class="edge">
<title>x6:e&#45;&gt;c19:w</title>
<path fill="none" stroke="black" stroke-width="3" d="M1771.09,-298.49C1780.16,-287.39 1774.53,-260.83 1783.61,-249.75"/>
<polygon fill="none" stroke="black" stroke-width="3" points="1772.87,-297.73 1768.92,-303.76 1761.83,-302.44 1765.78,-296.41 1772.87,-297.73"/>
<polygon fill="none" stroke="black" stroke-width="3" points="1781.82,-250.51 1785.77,-244.48 1792.86,-245.81 1788.91,-251.84 1781.82,-250.51"/>
</g>
<!-- x7&#45;&gt;c19 -->
<g id="edge8" class="edge">
<title>x7:e&#45;&gt;c19:w</title>
<path fill="none" stroke="black" stroke-width="3" d="M976.27,-166.58C1078.03,-167.8 1107.63,-183.5 1215.5,-183.5 1215.5,-183.5 1215.5,-183.5 1617.97,-183.5 1694.08,-183.5 1712.86,-216.34 1782.69,-219.93"/>
<polygon fill="none" stroke="black" stroke-width="3" points="978.2,-166.59 972.18,-170.55 966.2,-166.52 972.22,-162.55 978.2,-166.59"/>
<polygon fill="none" stroke="black" stroke-width="3" points="1780.65,-219.88 1786.75,-216.03 1792.64,-220.18 1786.55,-224.03 1780.65,-219.88"/>
</g>
<!-- n3 -->
<g id="node36" class="node">
<title>n3</title>
<ellipse fill="black" stroke="black" cx="2019.4" cy="-183.5" rx="1.8" ry="1.8"/>
</g>
<!-- x8&#45;&gt;n3 -->
<g id="edge25" class="edge">
<title>x8:e&#45;&gt;n3:w</title>
<path fill="none" stroke="black" stroke-width="3" d="M1981.6,-220.25C1999.82,-220.25 1997.34,-196.91 2007.15,-187.43"/>
<polygon fill="black" stroke="black" stroke-width="3" points="2005.22,-191.9 2013.35,-185.1 2002.76,-185.35 2005.22,-191.9"/>
</g>
<!-- n5 -->
<g id="node38" class="node">
<title>n5</title>
<ellipse fill="black" stroke="black" cx="2256" cy="-195.5" rx="1.8" ry="1.8"/>
</g>
<!-- x8&#45;&gt;n5 -->
<g id="edge34" class="edge">
<title>x8:e&#45;&gt;n5:w</title>
<path fill="none" stroke="black" d="M1981.6,-244.75C2086.97,-244.75 2121.58,-271.56 2218.2,-229.5 2233.96,-222.64 2233.63,-205.75 2243.23,-198.68"/>
<polygon fill="black" stroke="black" points="2244.12,-202.07 2252.74,-195.92 2242.16,-195.35 2244.12,-202.07"/>
</g>
<!-- c20 -->
<g id="node20" class="node">
<title>c20</title>
<polygon fill="none" stroke="black" points="2392.3,-106 2392.3,-155 2480.05,-155 2480.05,-106 2392.3,-106"/>
<text text-anchor="middle" x="2405.17" y="-137.7" font-family="Times,serif" font-size="14.00">A</text>
<polyline fill="none" stroke="black" points="2392.3,-130.5 2418.05,-130.5"/>
<text text-anchor="middle" x="2405.17" y="-113.2" font-family="Times,serif" font-size="14.00">B</text>
<polyline fill="none" stroke="black" points="2418.05,-106 2418.05,-155"/>
<text text-anchor="middle" x="2436.17" y="-133.7" font-family="Times,serif" font-size="14.00">$19</text>
<text text-anchor="middle" x="2436.17" y="-117.2" font-family="Times,serif" font-size="14.00">$or</text>
<polyline fill="none" stroke="black" points="2454.3,-106 2454.3,-155"/>
<text text-anchor="middle" x="2467.17" y="-125.7" font-family="Times,serif" font-size="14.00">Y</text>
</g>
<!-- c20&#45;&gt;n11 -->
<g id="edge21" class="edge">
<title>c20:e&#45;&gt;n11:w</title>
<path fill="none" stroke="black" stroke-width="3" d="M2480.05,-130.75C2491.42,-130.75 2496.73,-130.62 2504.6,-130.55"/>
<polygon fill="black" stroke="black" stroke-width="3" points="2501.52,-134.06 2511.51,-130.52 2501.49,-127.06 2501.52,-134.06"/>
</g>
<!-- x9 -->
<g id="node21" class="node">
<title>x9</title>
<path fill="none" stroke="black" d="M2305.8,-131C2305.8,-131 2344.3,-131 2344.3,-131 2350.3,-131 2356.3,-137 2356.3,-143 2356.3,-143 2356.3,-168 2356.3,-168 2356.3,-174 2350.3,-180 2344.3,-180 2344.3,-180 2305.8,-180 2305.8,-180 2299.8,-180 2293.8,-174 2293.8,-168 2293.8,-168 2293.8,-143 2293.8,-143 2293.8,-137 2299.8,-131 2305.8,-131"/>
<text text-anchor="middle" x="2325.05" y="-162.7" font-family="Times,serif" font-size="14.00">3:3 &#45; 3:3</text>
<polyline fill="none" stroke="black" points="2293.8,-155.5 2356.3,-155.5"/>
<text text-anchor="middle" x="2325.05" y="-138.2" font-family="Times,serif" font-size="14.00">2:0 &#45; 2:0</text>
</g>
<!-- x9&#45;&gt;c20 -->
<g id="edge10" class="edge">
<title>x9:e&#45;&gt;c20:w</title>
<path fill="none" stroke="black" stroke-width="3" d="M2368.75,-152.54C2372.72,-150.48 2375.9,-147.75 2379.88,-145.69"/>
<polygon fill="none" stroke="black" stroke-width="3" points="2370.6,-152.1 2365.69,-157.38 2358.93,-154.88 2363.84,-149.6 2370.6,-152.1"/>
<polygon fill="none" stroke="black" stroke-width="3" points="2377.99,-146.14 2382.91,-140.86 2389.67,-143.37 2384.75,-148.65 2377.99,-146.14"/>
</g>
<!-- x10&#45;&gt;c20 -->
<g id="edge11" class="edge">
<title>x10:e&#45;&gt;c20:w</title>
<path fill="none" stroke="black" stroke-width="3" d="M597.7,-93.55C690.48,-94.26 718.23,-102.5 817.12,-102.5 817.12,-102.5 817.12,-102.5 2257,-102.5 2313.04,-102.5 2329.39,-116 2379.55,-118"/>
<polygon fill="none" stroke="black" stroke-width="3" points="599.5,-93.56 593.48,-97.53 587.5,-93.51 593.51,-89.53 599.5,-93.56"/>
<polygon fill="none" stroke="black" stroke-width="3" points="2377.6,-117.96 2383.67,-114.08 2389.59,-118.2 2383.52,-122.08 2377.6,-117.96"/>
</g>
<!-- c21 -->
<g id="node23" class="node">
<title>c21</title>
<polygon fill="none" stroke="black" points="1146,-32 1146,-73 1287,-73 1287,-32 1146,-32"/>
<text text-anchor="middle" x="1158.87" y="-47.7" font-family="Times,serif" font-size="14.00">A</text>
<polyline fill="none" stroke="black" points="1171.75,-32 1171.75,-73"/>
<text text-anchor="middle" x="1216.5" y="-55.7" font-family="Times,serif" font-size="14.00">$44</text>
<text text-anchor="middle" x="1216.5" y="-39.2" font-family="Times,serif" font-size="14.00">$reduce_bool</text>
<polyline fill="none" stroke="black" points="1261.25,-32 1261.25,-73"/>
<text text-anchor="middle" x="1274.12" y="-47.7" font-family="Times,serif" font-size="14.00">Y</text>
</g>
<!-- c21&#45;&gt;c23 -->
<g id="edge36" class="edge">
<title>c21:e&#45;&gt;c23:w</title>
<path fill="none" stroke="black" d="M1287,-52.75C1353.2,-52.75 1369.6,-59.5 1435.8,-59.5 1435.8,-59.5 1435.8,-59.5 2572.3,-59.5 2655.46,-59.5 2674.76,-77.17 2756.3,-93.5 2771.63,-96.57 2777.66,-100.64 2789.1,-102.28"/>
<polygon fill="black" stroke="black" points="2788.6,-105.75 2798.8,-102.9 2789.05,-98.77 2788.6,-105.75"/>
</g>
<!-- x11&#45;&gt;c21 -->
<g id="edge12" class="edge">
<title>x11:e&#45;&gt;c21:w</title>
<path fill="none" stroke="black" stroke-width="3" d="M748.12,-49.51C915.87,-49.65 965.4,-52.6 1133.18,-52.74"/>
<polygon fill="none" stroke="black" stroke-width="3" points="749.95,-49.51 743.95,-53.5 737.95,-49.5 743.95,-45.5 749.95,-49.51"/>
<polygon fill="none" stroke="black" stroke-width="3" points="1131.29,-52.74 1137.3,-48.75 1143.29,-52.75 1137.29,-56.75 1131.29,-52.74"/>
</g>
<!-- x13 -->
<g id="node27" class="node">
<title>x13</title>
<path fill="none" stroke="black" d="M2960.71,-104.5C2960.71,-104.5 2999.21,-104.5 2999.21,-104.5 3005.21,-104.5 3011.21,-110.5 3011.21,-116.5 3011.21,-116.5 3011.21,-128.5 3011.21,-128.5 3011.21,-134.5 3005.21,-140.5 2999.21,-140.5 2999.21,-140.5 2960.71,-140.5 2960.71,-140.5 2954.71,-140.5 2948.71,-134.5 2948.71,-128.5 2948.71,-128.5 2948.71,-116.5 2948.71,-116.5 2948.71,-110.5 2954.71,-104.5 2960.71,-104.5"/>
<text text-anchor="middle" x="2979.96" y="-117.7" font-family="Times,serif" font-size="14.00">7:0 &#45; 7:0</text>
</g>
<!-- c23&#45;&gt;x13 -->
<g id="edge14" class="edge">
<title>c23:e&#45;&gt;x13:w</title>
<path fill="none" stroke="black" stroke-width="3" d="M2914.05,-126.76C2921.65,-125.83 2927.14,-124.22 2934.69,-123.27"/>
<polygon fill="none" stroke="black" stroke-width="3" points="2915.99,-126.65 2910.24,-130.99 2904.01,-127.34 2909.77,-123 2915.99,-126.65"/>
<polygon fill="none" stroke="black" stroke-width="3" points="2933.03,-123.37 2938.78,-119.02 2945.01,-122.66 2939.26,-127.01 2933.03,-123.37"/>
</g>
<!-- x12&#45;&gt;c23 -->
<g id="edge13" class="edge">
<title>x12:e&#45;&gt;c23:w</title>
<path fill="none" stroke="black" stroke-width="3" d="M2754.53,-127.5C2767.04,-127.5 2774.82,-127.5 2787.28,-127.5"/>
<polygon fill="none" stroke="black" stroke-width="3" points="2756.38,-127.5 2750.38,-131.5 2744.38,-127.5 2750.38,-123.5 2756.38,-127.5"/>
<polygon fill="none" stroke="black" stroke-width="3" points="2785.61,-127.5 2791.61,-123.5 2797.61,-127.5 2791.61,-131.5 2785.61,-127.5"/>
</g>
<!-- x13&#45;&gt;n9 -->
<g id="edge52" class="edge">
<title>x13:e&#45;&gt;n9:w</title>
<path fill="none" stroke="black" stroke-width="3" d="M3012.21,-122.75C3029.79,-122.75 3029.65,-102.67 3039.75,-94.2"/>
<polygon fill="black" stroke="black" stroke-width="3" points="3037.95,-98.51 3046.28,-91.97 3035.69,-91.89 3037.95,-98.51"/>
</g>
<!-- x15 -->
<g id="node29" class="node">
<title>x15</title>
<path fill="none" stroke="black" d="M1335,-292C1335,-292 1387,-292 1387,-292 1393,-292 1399,-298 1399,-304 1399,-304 1399,-329 1399,-329 1399,-335 1393,-341 1387,-341 1387,-341 1335,-341 1335,-341 1329,-341 1323,-335 1323,-329 1323,-329 1323,-304 1323,-304 1323,-298 1329,-292 1335,-292"/>
<text text-anchor="middle" x="1361" y="-323.7" font-family="Times,serif" font-size="14.00">14:7 &#45; 15:8</text>
<polyline fill="none" stroke="black" points="1323,-316.5 1399,-316.5"/>
<text text-anchor="middle" x="1361" y="-299.2" font-family="Times,serif" font-size="14.00">6:0 &#45; 6:0</text>
</g>
<!-- x14&#45;&gt;x15 -->
<g id="edge15" class="edge">
<title>x14:e&#45;&gt;x15:w</title>
<path fill="none" stroke="black" stroke-width="3" d="M1263.82,-316.5C1282.02,-316.5 1291.91,-316.5 1310.08,-316.5"/>
<polygon fill="none" stroke="black" stroke-width="3" points="1265.7,-316.5 1259.7,-320.5 1253.7,-316.5 1259.7,-312.5 1265.7,-316.5"/>
<polygon fill="none" stroke="black" stroke-width="3" points="1308.29,-316.5 1314.29,-312.5 1320.29,-316.5 1314.29,-320.5 1308.29,-316.5"/>
</g>
<!-- x15&#45;&gt;n4 -->
<g id="edge28" class="edge">
<title>x15:e&#45;&gt;n4:w</title>
<path fill="none" stroke="black" stroke-width="3" d="M1399,-304.25C1412.46,-304.25 1415.78,-314.85 1424.01,-320.32"/>
<polygon fill="black" stroke="black" stroke-width="3" points="1420.06,-322.82 1430.64,-322.24 1422,-316.1 1420.06,-322.82"/>
</g>
<!-- x15&#45;&gt;n4 -->
<g id="edge29" class="edge">
<title>x15:e&#45;&gt;n4:w</title>
<path fill="none" stroke="black" stroke-width="3" d="M1399,-328.75C1410.62,-328.75 1415.78,-326.04 1423.77,-324.51"/>
<polygon fill="black" stroke="black" stroke-width="3" points="1420.83,-328.29 1430.48,-323.91 1420.2,-321.32 1420.83,-328.29"/>
</g>
<!-- x16 -->
<g id="node30" class="node">
<title>x16</title>
<path fill="none" stroke="black" d="M2069.2,-171C2069.2,-171 2107.7,-171 2107.7,-171 2113.7,-171 2119.7,-177 2119.7,-183 2119.7,-183 2119.7,-208 2119.7,-208 2119.7,-214 2113.7,-220 2107.7,-220 2107.7,-220 2069.2,-220 2069.2,-220 2063.2,-220 2057.2,-214 2057.2,-208 2057.2,-208 2057.2,-183 2057.2,-183 2057.2,-177 2063.2,-171 2069.2,-171"/>
<text text-anchor="middle" x="2088.45" y="-202.7" font-family="Times,serif" font-size="14.00">0 &#45;&gt; 7:3</text>
<polyline fill="none" stroke="black" points="2057.2,-195.5 2119.7,-195.5"/>
<text text-anchor="middle" x="2088.45" y="-178.2" font-family="Times,serif" font-size="14.00">2:0 &#45; 2:0</text>
</g>
<!-- x17 -->
<g id="node31" class="node">
<title>x17</title>
<path fill="none" stroke="black" d="M2167.7,-171C2167.7,-171 2206.2,-171 2206.2,-171 2212.2,-171 2218.2,-177 2218.2,-183 2218.2,-183 2218.2,-208 2218.2,-208 2218.2,-214 2212.2,-220 2206.2,-220 2206.2,-220 2167.7,-220 2167.7,-220 2161.7,-220 2155.7,-214 2155.7,-208 2155.7,-208 2155.7,-183 2155.7,-183 2155.7,-177 2161.7,-171 2167.7,-171"/>
<text text-anchor="middle" x="2186.95" y="-202.7" font-family="Times,serif" font-size="14.00">7:3 &#45; 8:4</text>
<polyline fill="none" stroke="black" points="2155.7,-195.5 2218.2,-195.5"/>
<text text-anchor="middle" x="2186.95" y="-178.2" font-family="Times,serif" font-size="14.00">2:0 &#45; 2:0</text>
</g>
<!-- x16&#45;&gt;x17 -->
<g id="edge16" class="edge">
<title>x16:e&#45;&gt;x17:w</title>
<path fill="none" stroke="black" stroke-width="3" d="M2132.42,-195.5C2136.02,-195.5 2139.15,-195.5 2142.73,-195.5"/>
<polygon fill="none" stroke="black" stroke-width="3" points="2134.4,-195.5 2128.4,-199.5 2122.4,-195.5 2128.4,-191.5 2134.4,-195.5"/>
<polygon fill="none" stroke="black" stroke-width="3" points="2140.99,-195.5 2146.99,-191.5 2152.99,-195.5 2146.99,-199.5 2140.99,-195.5"/>
</g>
<!-- x17&#45;&gt;n5 -->
<g id="edge32" class="edge">
<title>x17:e&#45;&gt;n5:w</title>
<path fill="none" stroke="black" stroke-width="3" d="M2218.2,-183.25C2230.48,-183.25 2235,-189.72 2243.03,-193.25"/>
<polygon fill="black" stroke="black" stroke-width="3" points="2239.25,-196.06 2249.75,-194.6 2240.63,-189.2 2239.25,-196.06"/>
</g>
<!-- x17&#45;&gt;n5 -->
<g id="edge33" class="edge">
<title>x17:e&#45;&gt;n5:w</title>
<path fill="none" stroke="black" stroke-width="3" d="M2218.2,-207.75C2230.48,-207.75 2235,-201.28 2243.03,-197.75"/>
<polygon fill="black" stroke="black" stroke-width="3" points="2240.63,-201.8 2249.75,-196.4 2239.25,-194.94 2240.63,-201.8"/>
</g>
<!-- x19 -->
<g id="node33" class="node">
<title>x19</title>
<path fill="none" stroke="black" d="M381.84,-160C381.84,-160 420.34,-160 420.34,-160 426.34,-160 432.34,-166 432.34,-172 432.34,-172 432.34,-197 432.34,-197 432.34,-203 426.34,-209 420.34,-209 420.34,-209 381.84,-209 381.84,-209 375.84,-209 369.84,-203 369.84,-197 369.84,-197 369.84,-172 369.84,-172 369.84,-166 375.84,-160 381.84,-160"/>
<text text-anchor="middle" x="401.09" y="-191.7" font-family="Times,serif" font-size="14.00">1:1 &#45; 2:2</text>
<polyline fill="none" stroke="black" points="369.84,-184.5 432.34,-184.5"/>
<text text-anchor="middle" x="401.09" y="-167.2" font-family="Times,serif" font-size="14.00">0:0 &#45; 0:0</text>
</g>
<!-- x18&#45;&gt;x19 -->
<g id="edge17" class="edge">
<title>x18:e&#45;&gt;x19:w</title>
<path fill="none" stroke="black" stroke-width="3" d="M219.35,-184.5C277.36,-184.5 298.84,-184.5 356.88,-184.5"/>
<polygon fill="none" stroke="black" stroke-width="3" points="221.05,-184.5 215.05,-188.5 209.05,-184.5 215.05,-180.5 221.05,-184.5"/>
<polygon fill="none" stroke="black" stroke-width="3" points="355.14,-184.5 361.14,-180.5 367.14,-184.5 361.14,-188.5 355.14,-184.5"/>
</g>
<!-- x19&#45;&gt;n7 -->
<g id="edge37" class="edge">
<title>x19:e&#45;&gt;n7:w</title>
<path fill="none" stroke="black" d="M432.34,-172.25C446.96,-172.25 449.02,-186.18 457.55,-192.92"/>
<polygon fill="black" stroke="black" points="456.31,-196.2 466.9,-196.02 458.51,-189.55 456.31,-196.2"/>
</g>
<!-- x19&#45;&gt;n7 -->
<g id="edge38" class="edge">
<title>x19:e&#45;&gt;n7:w</title>
<path fill="none" stroke="black" d="M432.34,-196.75C443.72,-196.75 449.03,-196.62 456.89,-196.55"/>
<polygon fill="black" stroke="black" points="456.84,-200.05 466.83,-196.51 456.81,-193.05 456.84,-200.05"/>
</g>
<!-- v20 -->
<g id="node34" class="node">
<title>v20</title>
<ellipse fill="none" stroke="black" cx="2850.82" cy="-54.5" rx="58.52" ry="18"/>
<text text-anchor="middle" x="2850.82" y="-49.45" font-family="Times,serif" font-size="14.00">9&#39;000000000</text>
</g>
<!-- x21 -->
<g id="node35" class="node">
<title>x21</title>
<path fill="none" stroke="black" d="M2957.33,-45.5C2957.33,-45.5 3002.58,-45.5 3002.58,-45.5 3008.58,-45.5 3014.58,-51.5 3014.58,-57.5 3014.58,-57.5 3014.58,-69.5 3014.58,-69.5 3014.58,-75.5 3008.58,-81.5 3002.58,-81.5 3002.58,-81.5 2957.33,-81.5 2957.33,-81.5 2951.33,-81.5 2945.33,-75.5 2945.33,-69.5 2945.33,-69.5 2945.33,-57.5 2945.33,-57.5 2945.33,-51.5 2951.33,-45.5 2957.33,-45.5"/>
<text text-anchor="middle" x="2979.96" y="-58.7" font-family="Times,serif" font-size="14.00">8:0 &#45; 16:8</text>
</g>
<!-- v20&#45;&gt;x21 -->
<g id="edge54" class="edge">
<title>v20:e&#45;&gt;x21:w</title>
<path fill="none" stroke="black" stroke-width="3" d="M2909.33,-54.5C2921.19,-54.5 2926.08,-59.15 2934.02,-61.76"/>
<polygon fill="black" stroke="black" stroke-width="3" points="2930.43,-64.76 2940.84,-62.81 2931.49,-57.84 2930.43,-64.76"/>
</g>
<!-- x21&#45;&gt;n9 -->
<g id="edge53" class="edge">
<title>x21:e&#45;&gt;n9:w</title>
<path fill="none" stroke="black" stroke-width="3" d="M3014.58,-63.75C3029.84,-63.75 3031.15,-79.43 3039.88,-86.78"/>
<polygon fill="black" stroke="black" stroke-width="3" points="3035.7,-89.03 3046.29,-89.01 3038,-82.42 3035.7,-89.03"/>
</g>
<!-- n3&#45;&gt;x9 -->
<g id="edge27" class="edge">
<title>n3:e&#45;&gt;x9:w</title>
<path fill="none" stroke="black" stroke-width="3" d="M2021.2,-183.5C2039.95,-183.5 2039.36,-167.27 2057.2,-161.5 2153.82,-130.25 2185.95,-142.26 2282.36,-143.19"/>
<polygon fill="black" stroke="black" stroke-width="3" points="2279.24,-146.68 2289.26,-143.23 2279.27,-139.68 2279.24,-146.68"/>
</g>
<!-- n3&#45;&gt;x16 -->
<g id="edge26" class="edge">
<title>n3:e&#45;&gt;x16:w</title>
<path fill="none" stroke="black" stroke-width="3" d="M2021.2,-183.5C2032.57,-183.5 2037.88,-183.37 2045.75,-183.3"/>
<polygon fill="black" stroke="black" stroke-width="3" points="2042.67,-186.81 2052.66,-183.27 2042.64,-179.81 2042.67,-186.81"/>
</g>
<!-- n4&#45;&gt;x2 -->
<g id="edge31" class="edge">
<title>n4:e&#45;&gt;x2:w</title>
<path fill="none" stroke="black" d="M1438.6,-323.5C1450.03,-323.5 1455.27,-321.6 1463.13,-320.51"/>
<polygon fill="black" stroke="black" points="1463.34,-324 1473.09,-319.85 1462.88,-317.02 1463.34,-324"/>
</g>
<!-- n5&#45;&gt;x9 -->
<g id="edge35" class="edge">
<title>n5:e&#45;&gt;x9:w</title>
<path fill="none" stroke="black" d="M2257.8,-195.5C2273.26,-195.5 2274.31,-179.23 2283.01,-171.61"/>
<polygon fill="black" stroke="black" points="2284.14,-174.92 2292.37,-168.26 2281.78,-168.33 2284.14,-174.92"/>
</g>
</g>
</svg>
