<?xml version="1.0" encoding="UTF-8" standalone="no"?>
<!DOCTYPE svg PUBLIC "-//W3C//DTD SVG 1.1//EN"
 "http://www.w3.org/Graphics/SVG/1.1/DTD/svg11.dtd">
<!-- Generated by graphviz version 12.2.1 (20241206.2353)
 -->
<!-- Title: top Pages: 1 -->
<svg width="3943pt" height="539pt"
 viewBox="0.00 0.00 3943.44 538.61" xmlns="http://www.w3.org/2000/svg" xmlns:xlink="http://www.w3.org/1999/xlink">
<g id="graph0" class="graph" transform="scale(1 1) rotate(0) translate(4 534.61)">
<title>top</title>
<polygon fill="white" stroke="none" points="-4,4 -4,-534.61 3939.44,-534.61 3939.44,4 -4,4"/>
<text text-anchor="middle" x="1967.72" y="-7.2" font-family="Times,serif" font-size="14.00">top</text>
<!-- n9 -->
<g id="node1" class="node">
<title>n9</title>
<polygon fill="none" stroke="black" points="107.84,-140.04 107.84,-154.96 76.26,-165.5 31.59,-165.5 0,-154.96 0,-140.04 31.59,-129.5 76.26,-129.5 107.84,-140.04"/>
<text text-anchor="middle" x="53.92" y="-142.45" font-family="Times,serif" font-size="14.00">input_data</text>
</g>
<!-- c23 -->
<g id="node14" class="node">
<title>c23</title>
<polygon fill="none" stroke="black" points="3017.1,-124 3017.1,-173 3110.85,-173 3110.85,-124 3017.1,-124"/>
<text text-anchor="middle" x="3029.97" y="-155.7" font-family="Times,serif" font-size="14.00">A</text>
<polyline fill="none" stroke="black" points="3017.1,-148.5 3042.85,-148.5"/>
<text text-anchor="middle" x="3029.97" y="-131.2" font-family="Times,serif" font-size="14.00">B</text>
<polyline fill="none" stroke="black" points="3042.85,-124 3042.85,-173"/>
<text text-anchor="middle" x="3063.97" y="-151.7" font-family="Times,serif" font-size="14.00">$16</text>
<text text-anchor="middle" x="3063.97" y="-135.2" font-family="Times,serif" font-size="14.00">$add</text>
<polyline fill="none" stroke="black" points="3085.1,-124 3085.1,-173"/>
<text text-anchor="middle" x="3097.97" y="-143.7" font-family="Times,serif" font-size="14.00">Y</text>
</g>
<!-- n9&#45;&gt;c23 -->
<g id="edge51" class="edge">
<title>n9:e&#45;&gt;c23:w</title>
<path fill="none" stroke="black" stroke-width="3" d="M107.84,-147.5C128.39,-147.5 126.83,-130.02 143.84,-118.5 214.36,-70.73 225.67,-24.5 310.84,-24.5 310.84,-24.5 310.84,-24.5 2787.59,-24.5 2897.17,-24.5 2903.34,-128.74 3005.84,-135.87"/>
<polygon fill="black" stroke="black" stroke-width="3" points="3002.44,-139.25 3012.56,-136.1 3002.68,-132.26 3002.44,-139.25"/>
</g>
<!-- c26 -->
<g id="node21" class="node">
<title>c26</title>
<polygon fill="none" stroke="black" points="1952.09,-209 1952.09,-258 2044.34,-258 2044.34,-209 1952.09,-209"/>
<text text-anchor="middle" x="1964.97" y="-240.7" font-family="Times,serif" font-size="14.00">A</text>
<polyline fill="none" stroke="black" points="1952.09,-233.5 1977.84,-233.5"/>
<text text-anchor="middle" x="1964.97" y="-216.2" font-family="Times,serif" font-size="14.00">B</text>
<polyline fill="none" stroke="black" points="1977.84,-209 1977.84,-258"/>
<text text-anchor="middle" x="1998.22" y="-236.7" font-family="Times,serif" font-size="14.00">$54</text>
<text text-anchor="middle" x="1998.22" y="-220.2" font-family="Times,serif" font-size="14.00">$xor</text>
<polyline fill="none" stroke="black" points="2018.59,-209 2018.59,-258"/>
<text text-anchor="middle" x="2031.47" y="-228.7" font-family="Times,serif" font-size="14.00">Y</text>
</g>
<!-- n9&#45;&gt;c26 -->
<g id="edge52" class="edge">
<title>n9:e&#45;&gt;c26:w</title>
<path fill="none" stroke="black" stroke-width="3" d="M107.84,-147.5C199.63,-147.5 219.05,-109.5 310.84,-109.5 310.84,-109.5 310.84,-109.5 801.34,-109.5 973.17,-109.5 1016.02,-118.5 1187.84,-118.5 1187.84,-118.5 1187.84,-118.5 1763.34,-118.5 1831.75,-118.5 1861.4,-96.41 1916.09,-137.5 1944.82,-159.08 1919.05,-208.24 1941.09,-219.1"/>
<polygon fill="black" stroke="black" stroke-width="3" points="1937.15,-221.9 1947.64,-220.38 1938.49,-215.03 1937.15,-221.9"/>
</g>
<!-- c32 -->
<g id="node32" class="node">
<title>c32</title>
<polygon fill="none" stroke="black" points="143.84,-176 143.84,-225 229.34,-225 229.34,-176 143.84,-176"/>
<text text-anchor="middle" x="156.72" y="-207.7" font-family="Times,serif" font-size="14.00">A</text>
<polyline fill="none" stroke="black" points="143.84,-200.5 169.59,-200.5"/>
<text text-anchor="middle" x="156.72" y="-183.2" font-family="Times,serif" font-size="14.00">B</text>
<polyline fill="none" stroke="black" points="169.59,-176 169.59,-225"/>
<text text-anchor="middle" x="186.59" y="-203.7" font-family="Times,serif" font-size="14.00">$1</text>
<text text-anchor="middle" x="186.59" y="-187.2" font-family="Times,serif" font-size="14.00">$or</text>
<polyline fill="none" stroke="black" points="203.59,-176 203.59,-225"/>
<text text-anchor="middle" x="216.47" y="-195.7" font-family="Times,serif" font-size="14.00">Y</text>
</g>
<!-- n9&#45;&gt;c32 -->
<g id="edge53" class="edge">
<title>n9:e&#45;&gt;c32:w</title>
<path fill="none" stroke="black" stroke-width="3" d="M107.84,-147.5C136.3,-147.5 117.97,-195.69 133.27,-209.24"/>
<polygon fill="black" stroke="black" stroke-width="3" points="128.94,-211.49 139.53,-211.32 131.14,-204.85 128.94,-211.49"/>
</g>
<!-- n9&#45;&gt;c32 -->
<g id="edge54" class="edge">
<title>n9:e&#45;&gt;c32:w</title>
<path fill="none" stroke="black" stroke-width="3" d="M107.84,-147.5C127.29,-147.5 123.1,-173.89 133.31,-184.19"/>
<polygon fill="black" stroke="black" stroke-width="3" points="129.01,-186.29 139.6,-186.62 131.53,-179.76 129.01,-186.29"/>
</g>
<!-- c34 -->
<g id="node34" class="node">
<title>c34</title>
<polygon fill="none" stroke="black" points="265.34,-164 265.34,-213 358.34,-213 358.34,-164 265.34,-164"/>
<text text-anchor="middle" x="278.22" y="-195.7" font-family="Times,serif" font-size="14.00">A</text>
<polyline fill="none" stroke="black" points="265.34,-188.5 291.09,-188.5"/>
<text text-anchor="middle" x="278.22" y="-171.2" font-family="Times,serif" font-size="14.00">B</text>
<polyline fill="none" stroke="black" points="291.09,-164 291.09,-213"/>
<text text-anchor="middle" x="311.84" y="-191.7" font-family="Times,serif" font-size="14.00">$2</text>
<text text-anchor="middle" x="311.84" y="-175.2" font-family="Times,serif" font-size="14.00">$sub</text>
<polyline fill="none" stroke="black" points="332.59,-164 332.59,-213"/>
<text text-anchor="middle" x="345.47" y="-183.7" font-family="Times,serif" font-size="14.00">Y</text>
</g>
<!-- n9&#45;&gt;c34 -->
<g id="edge55" class="edge">
<title>n9:e&#45;&gt;c34:w</title>
<path fill="none" stroke="black" stroke-width="3" d="M107.84,-147.5C162.5,-147.5 175.88,-155.12 229.34,-166.5 240.99,-168.98 245.93,-172.93 253.94,-174.96"/>
<polygon fill="black" stroke="black" stroke-width="3" points="250.5,-178.09 260.83,-175.74 251.29,-171.14 250.5,-178.09"/>
</g>
<!-- n10 -->
<g id="node2" class="node">
<title>n10</title>
<polygon fill="none" stroke="black" points="3935.44,-400.04 3935.44,-414.96 3900.93,-425.5 3852.13,-425.5 3817.63,-414.96 3817.63,-400.04 3852.13,-389.5 3900.93,-389.5 3935.44,-400.04"/>
<text text-anchor="middle" x="3876.53" y="-402.45" font-family="Times,serif" font-size="14.00">output_data</text>
</g>
<!-- n11 -->
<g id="node3" class="node">
<title>n11</title>
<polygon fill="none" stroke="black" points="449.59,-351.5 394.34,-333.5 449.59,-315.5 504.84,-333.5 449.59,-351.5"/>
<text text-anchor="middle" x="449.59" y="-328.45" font-family="Times,serif" font-size="14.00">temp_0</text>
</g>
<!-- c21 -->
<g id="node10" class="node">
<title>c21</title>
<polygon fill="none" stroke="black" points="1577.34,-260 1577.34,-309 1671.09,-309 1671.09,-260 1577.34,-260"/>
<text text-anchor="middle" x="1590.22" y="-291.7" font-family="Times,serif" font-size="14.00">A</text>
<polyline fill="none" stroke="black" points="1577.34,-284.5 1603.09,-284.5"/>
<text text-anchor="middle" x="1590.22" y="-267.2" font-family="Times,serif" font-size="14.00">B</text>
<polyline fill="none" stroke="black" points="1603.09,-260 1603.09,-309"/>
<text text-anchor="middle" x="1624.22" y="-287.7" font-family="Times,serif" font-size="14.00">$6</text>
<text text-anchor="middle" x="1624.22" y="-271.2" font-family="Times,serif" font-size="14.00">$add</text>
<polyline fill="none" stroke="black" points="1645.34,-260 1645.34,-309"/>
<text text-anchor="middle" x="1658.22" y="-279.7" font-family="Times,serif" font-size="14.00">Y</text>
</g>
<!-- n11&#45;&gt;c21 -->
<g id="edge19" class="edge">
<title>n11:e&#45;&gt;c21:w</title>
<path fill="none" stroke="black" stroke-width="3" d="M504.84,-333.5C520.9,-333.5 524.81,-331.44 540.84,-330.5 828.07,-313.66 900.12,-308.5 1187.84,-308.5 1187.84,-308.5 1187.84,-308.5 1401.34,-308.5 1475.76,-308.5 1496.84,-297.91 1565.84,-296.84"/>
<polygon fill="black" stroke="black" stroke-width="3" points="1562.83,-300.36 1572.8,-296.78 1562.77,-293.36 1562.83,-300.36"/>
</g>
<!-- c22 -->
<g id="node12" class="node">
<title>c22</title>
<polygon fill="none" stroke="black" points="639.34,-478 639.34,-527 733.09,-527 733.09,-478 639.34,-478"/>
<text text-anchor="middle" x="652.22" y="-509.7" font-family="Times,serif" font-size="14.00">A</text>
<polyline fill="none" stroke="black" points="639.34,-502.5 665.09,-502.5"/>
<text text-anchor="middle" x="652.22" y="-485.2" font-family="Times,serif" font-size="14.00">B</text>
<polyline fill="none" stroke="black" points="665.09,-478 665.09,-527"/>
<text text-anchor="middle" x="686.22" y="-505.7" font-family="Times,serif" font-size="14.00">$13</text>
<text text-anchor="middle" x="686.22" y="-489.2" font-family="Times,serif" font-size="14.00">$add</text>
<polyline fill="none" stroke="black" points="707.34,-478 707.34,-527"/>
<text text-anchor="middle" x="720.22" y="-497.7" font-family="Times,serif" font-size="14.00">Y</text>
</g>
<!-- n11&#45;&gt;c22 -->
<g id="edge20" class="edge">
<title>n11:e&#45;&gt;c22:w</title>
<path fill="none" stroke="black" stroke-width="3" d="M504.84,-333.5C588.61,-333.5 476.2,-465.23 540.84,-518.5 571.61,-543.86 591.68,-519.95 628.06,-515.45"/>
<polygon fill="black" stroke="black" stroke-width="3" points="625.05,-519.14 634.81,-515.03 624.61,-512.16 625.05,-519.14"/>
</g>
<!-- x1 -->
<g id="node13" class="node">
<title>x1</title>
<path fill="none" stroke="black" d="M552.84,-472.5C552.84,-472.5 591.34,-472.5 591.34,-472.5 597.34,-472.5 603.34,-478.5 603.34,-484.5 603.34,-484.5 603.34,-496.5 603.34,-496.5 603.34,-502.5 597.34,-508.5 591.34,-508.5 591.34,-508.5 552.84,-508.5 552.84,-508.5 546.84,-508.5 540.84,-502.5 540.84,-496.5 540.84,-496.5 540.84,-484.5 540.84,-484.5 540.84,-478.5 546.84,-472.5 552.84,-472.5"/>
<text text-anchor="middle" x="572.09" y="-485.7" font-family="Times,serif" font-size="14.00">0:0 &#45; 0:0</text>
</g>
<!-- n11&#45;&gt;x1 -->
<g id="edge23" class="edge">
<title>n11:e&#45;&gt;x1:w</title>
<path fill="none" stroke="black" d="M504.84,-333.5C572.2,-333.5 481.49,-472.28 529.71,-489.09"/>
<polygon fill="black" stroke="black" points="528.94,-492.51 539.34,-490.53 529.97,-485.59 528.94,-492.51"/>
</g>
<!-- x2 -->
<g id="node16" class="node">
<title>x2</title>
<path fill="none" stroke="black" d="M1604.97,-53.5C1604.97,-53.5 1643.47,-53.5 1643.47,-53.5 1649.47,-53.5 1655.47,-59.5 1655.47,-65.5 1655.47,-65.5 1655.47,-77.5 1655.47,-77.5 1655.47,-83.5 1649.47,-89.5 1643.47,-89.5 1643.47,-89.5 1604.97,-89.5 1604.97,-89.5 1598.97,-89.5 1592.97,-83.5 1592.97,-77.5 1592.97,-77.5 1592.97,-65.5 1592.97,-65.5 1592.97,-59.5 1598.97,-53.5 1604.97,-53.5"/>
<text text-anchor="middle" x="1624.22" y="-66.7" font-family="Times,serif" font-size="14.00">0:0 &#45; 0:0</text>
</g>
<!-- n11&#45;&gt;x2 -->
<g id="edge24" class="edge">
<title>n11:e&#45;&gt;x2:w</title>
<path fill="none" stroke="black" d="M504.84,-333.5C572.97,-333.5 493,-233.01 540.84,-184.5 587.36,-137.34 618.98,-147.5 685.22,-147.5 685.22,-147.5 685.22,-147.5 801.34,-147.5 975.68,-147.5 1013.5,-80.5 1187.84,-80.5 1187.84,-80.5 1187.84,-80.5 1401.34,-80.5 1482.34,-80.5 1505.14,-72.52 1580.91,-71.8"/>
<polygon fill="black" stroke="black" points="1580.47,-75.3 1590.45,-71.76 1580.44,-68.3 1580.47,-75.3"/>
</g>
<!-- x3 -->
<g id="node18" class="node">
<title>x3</title>
<path fill="none" stroke="black" d="M552.84,-248.5C552.84,-248.5 591.34,-248.5 591.34,-248.5 597.34,-248.5 603.34,-254.5 603.34,-260.5 603.34,-260.5 603.34,-272.5 603.34,-272.5 603.34,-278.5 597.34,-284.5 591.34,-284.5 591.34,-284.5 552.84,-284.5 552.84,-284.5 546.84,-284.5 540.84,-278.5 540.84,-272.5 540.84,-272.5 540.84,-260.5 540.84,-260.5 540.84,-254.5 546.84,-248.5 552.84,-248.5"/>
<text text-anchor="middle" x="572.09" y="-261.7" font-family="Times,serif" font-size="14.00">9:7 &#45; 2:0</text>
</g>
<!-- n11&#45;&gt;x3 -->
<g id="edge25" class="edge">
<title>n11:e&#45;&gt;x3:w</title>
<path fill="none" stroke="black" stroke-width="3" d="M504.84,-333.5C533.81,-333.5 514.68,-284.2 530.12,-270.34"/>
<polygon fill="black" stroke="black" stroke-width="3" points="528.16,-274.69 536.54,-268.19 525.94,-268.05 528.16,-274.69"/>
</g>
<!-- x4 -->
<g id="node19" class="node">
<title>x4</title>
<path fill="none" stroke="black" d="M552.84,-193.5C552.84,-193.5 591.34,-193.5 591.34,-193.5 597.34,-193.5 603.34,-199.5 603.34,-205.5 603.34,-205.5 603.34,-217.5 603.34,-217.5 603.34,-223.5 597.34,-229.5 591.34,-229.5 591.34,-229.5 552.84,-229.5 552.84,-229.5 546.84,-229.5 540.84,-223.5 540.84,-217.5 540.84,-217.5 540.84,-205.5 540.84,-205.5 540.84,-199.5 546.84,-193.5 552.84,-193.5"/>
<text text-anchor="middle" x="572.09" y="-206.7" font-family="Times,serif" font-size="14.00">2:0 &#45; 2:0</text>
</g>
<!-- n11&#45;&gt;x4 -->
<g id="edge26" class="edge">
<title>n11:e&#45;&gt;x4:w</title>
<path fill="none" stroke="black" stroke-width="3" d="M504.84,-333.5C556.86,-333.5 495.61,-230.03 529.93,-213.86"/>
<polygon fill="black" stroke="black" stroke-width="3" points="527.23,-217.95 536.38,-212.61 525.9,-211.08 527.23,-217.95"/>
</g>
<!-- x9 -->
<g id="node27" class="node">
<title>x9</title>
<path fill="none" stroke="black" d="M1381.09,-434.5C1381.09,-434.5 1419.59,-434.5 1419.59,-434.5 1425.59,-434.5 1431.59,-440.5 1431.59,-446.5 1431.59,-446.5 1431.59,-458.5 1431.59,-458.5 1431.59,-464.5 1425.59,-470.5 1419.59,-470.5 1419.59,-470.5 1381.09,-470.5 1381.09,-470.5 1375.09,-470.5 1369.09,-464.5 1369.09,-458.5 1369.09,-458.5 1369.09,-446.5 1369.09,-446.5 1369.09,-440.5 1375.09,-434.5 1381.09,-434.5"/>
<text text-anchor="middle" x="1400.34" y="-447.7" font-family="Times,serif" font-size="14.00">0:0 &#45; 0:0</text>
</g>
<!-- n11&#45;&gt;x9 -->
<g id="edge27" class="edge">
<title>n11:e&#45;&gt;x9:w</title>
<path fill="none" stroke="black" d="M504.84,-333.5C546.28,-333.5 508.35,-393.78 540.84,-419.5 591.85,-459.87 620.17,-443.5 685.22,-443.5 685.22,-443.5 685.22,-443.5 1189.84,-443.5 1265.72,-443.5 1287.25,-451.87 1357.82,-452.69"/>
<polygon fill="black" stroke="black" points="1357.56,-456.18 1367.58,-452.74 1357.6,-449.18 1357.56,-456.18"/>
</g>
<!-- c33 -->
<g id="node33" class="node">
<title>c33</title>
<polygon fill="none" stroke="black" points="867.59,-336 867.59,-377 1008.59,-377 1008.59,-336 867.59,-336"/>
<text text-anchor="middle" x="880.47" y="-351.7" font-family="Times,serif" font-size="14.00">A</text>
<polyline fill="none" stroke="black" points="893.34,-336 893.34,-377"/>
<text text-anchor="middle" x="938.09" y="-359.7" font-family="Times,serif" font-size="14.00">$8</text>
<text text-anchor="middle" x="938.09" y="-343.2" font-family="Times,serif" font-size="14.00">$reduce_bool</text>
<polyline fill="none" stroke="black" points="982.84,-336 982.84,-377"/>
<text text-anchor="middle" x="995.72" y="-351.7" font-family="Times,serif" font-size="14.00">Y</text>
</g>
<!-- n11&#45;&gt;c33 -->
<g id="edge21" class="edge">
<title>n11:e&#45;&gt;c33:w</title>
<path fill="none" stroke="black" stroke-width="3" d="M504.84,-333.5C662.61,-333.5 704.11,-355.67 856.43,-356.71"/>
<polygon fill="black" stroke="black" stroke-width="3" points="853.04,-360.2 863.05,-356.73 853.06,-353.2 853.04,-360.2"/>
</g>
<!-- x11 -->
<g id="node36" class="node">
<title>x11</title>
<path fill="none" stroke="black" d="M1479.59,-375C1479.59,-375 1529.34,-375 1529.34,-375 1535.34,-375 1541.34,-381 1541.34,-387 1541.34,-387 1541.34,-412 1541.34,-412 1541.34,-418 1535.34,-424 1529.34,-424 1529.34,-424 1479.59,-424 1479.59,-424 1473.59,-424 1467.59,-418 1467.59,-412 1467.59,-412 1467.59,-387 1467.59,-387 1467.59,-381 1473.59,-375 1479.59,-375"/>
<text text-anchor="middle" x="1504.47" y="-406.7" font-family="Times,serif" font-size="14.00">0 &#45;&gt; 11:10</text>
<polyline fill="none" stroke="black" points="1467.59,-399.5 1541.34,-399.5"/>
<text text-anchor="middle" x="1504.47" y="-382.2" font-family="Times,serif" font-size="14.00">9:0 &#45; 9:0</text>
</g>
<!-- n11&#45;&gt;x11 -->
<g id="edge22" class="edge">
<title>n11:e&#45;&gt;x11:w</title>
<path fill="none" stroke="black" stroke-width="3" d="M504.84,-333.5C522.35,-333.5 524.68,-342.78 540.84,-349.5 604.39,-375.93 616.39,-405.5 685.22,-405.5 685.22,-405.5 685.22,-405.5 1302.84,-405.5 1372.63,-405.5 1391.93,-389.12 1456.39,-387.4"/>
<polygon fill="black" stroke="black" stroke-width="3" points="1453.1,-390.94 1463.05,-387.31 1453.01,-383.94 1453.1,-390.94"/>
</g>
<!-- n12 -->
<g id="node4" class="node">
<title>n12</title>
<polygon fill="none" stroke="black" points="938.09,-231.5 882.84,-213.5 938.09,-195.5 993.34,-213.5 938.09,-231.5"/>
<text text-anchor="middle" x="938.09" y="-208.45" font-family="Times,serif" font-size="14.00">temp_1</text>
</g>
<!-- x7 -->
<g id="node24" class="node">
<title>x7</title>
<path fill="none" stroke="black" d="M1056.59,-213.5C1056.59,-213.5 1095.09,-213.5 1095.09,-213.5 1101.09,-213.5 1107.09,-219.5 1107.09,-225.5 1107.09,-225.5 1107.09,-237.5 1107.09,-237.5 1107.09,-243.5 1101.09,-249.5 1095.09,-249.5 1095.09,-249.5 1056.59,-249.5 1056.59,-249.5 1050.59,-249.5 1044.59,-243.5 1044.59,-237.5 1044.59,-237.5 1044.59,-225.5 1044.59,-225.5 1044.59,-219.5 1050.59,-213.5 1056.59,-213.5"/>
<text text-anchor="middle" x="1075.84" y="-226.7" font-family="Times,serif" font-size="14.00">2:0 &#45; 2:0</text>
</g>
<!-- n12&#45;&gt;x7 -->
<g id="edge31" class="edge">
<title>n12:e&#45;&gt;x7:w</title>
<path fill="none" stroke="black" stroke-width="3" d="M995.72,-213.5C1014.56,-213.5 1019.74,-225.55 1033.46,-230.07"/>
<polygon fill="black" stroke="black" stroke-width="3" points="1029.69,-233.04 1040.1,-231.07 1030.74,-226.11 1029.69,-233.04"/>
</g>
<!-- x10 -->
<g id="node29" class="node">
<title>x10</title>
<path fill="none" stroke="black" d="M1865.59,-147C1865.59,-147 1904.09,-147 1904.09,-147 1910.09,-147 1916.09,-153 1916.09,-159 1916.09,-159 1916.09,-184 1916.09,-184 1916.09,-190 1910.09,-196 1904.09,-196 1904.09,-196 1865.59,-196 1865.59,-196 1859.59,-196 1853.59,-190 1853.59,-184 1853.59,-184 1853.59,-159 1853.59,-159 1853.59,-153 1859.59,-147 1865.59,-147"/>
<text text-anchor="middle" x="1884.84" y="-178.7" font-family="Times,serif" font-size="14.00">0 &#45;&gt; 8:3</text>
<polyline fill="none" stroke="black" points="1853.59,-171.5 1916.09,-171.5"/>
<text text-anchor="middle" x="1884.84" y="-154.2" font-family="Times,serif" font-size="14.00">2:0 &#45; 2:0</text>
</g>
<!-- n12&#45;&gt;x10 -->
<g id="edge30" class="edge">
<title>n12:e&#45;&gt;x10:w</title>
<path fill="none" stroke="black" stroke-width="3" d="M995.72,-213.5C1040.25,-213.5 1143.31,-156.5 1187.84,-156.5 1187.84,-156.5 1187.84,-156.5 1625.22,-156.5 1722.86,-156.5 1750.04,-159.04 1842.32,-159.24"/>
<polygon fill="black" stroke="black" stroke-width="3" points="1839.05,-162.73 1849.05,-159.25 1839.06,-155.73 1839.05,-162.73"/>
</g>
<!-- n13 -->
<g id="node5" class="node">
<title>n13</title>
<polygon fill="none" stroke="black" points="3616.86,-413.5 3555.1,-395.5 3616.86,-377.5 3678.63,-395.5 3616.86,-413.5"/>
<text text-anchor="middle" x="3616.86" y="-390.45" font-family="Times,serif" font-size="14.00">temp_18</text>
</g>
<!-- x15 -->
<g id="node40" class="node">
<title>x15</title>
<path fill="none" stroke="black" d="M3726.63,-383C3726.63,-383 3769.63,-383 3769.63,-383 3775.63,-383 3781.63,-389 3781.63,-395 3781.63,-395 3781.63,-420 3781.63,-420 3781.63,-426 3775.63,-432 3769.63,-432 3769.63,-432 3726.63,-432 3726.63,-432 3720.63,-432 3714.63,-426 3714.63,-420 3714.63,-420 3714.63,-395 3714.63,-395 3714.63,-389 3720.63,-383 3726.63,-383"/>
<text text-anchor="middle" x="3748.13" y="-414.7" font-family="Times,serif" font-size="14.00">0 &#45;&gt; 23:9</text>
<polyline fill="none" stroke="black" points="3714.63,-407.5 3781.63,-407.5"/>
<text text-anchor="middle" x="3748.13" y="-390.2" font-family="Times,serif" font-size="14.00">8:0 &#45; 8:0</text>
</g>
<!-- n13&#45;&gt;x15 -->
<g id="edge33" class="edge">
<title>n13:e&#45;&gt;x15:w</title>
<path fill="none" stroke="black" stroke-width="3" d="M3678.63,-395.5C3690,-395.5 3695.31,-395.37 3703.18,-395.3"/>
<polygon fill="black" stroke="black" stroke-width="3" points="3700.1,-398.81 3710.09,-395.27 3700.07,-391.81 3700.1,-398.81"/>
</g>
<!-- n14 -->
<g id="node6" class="node">
<title>n14</title>
<polygon fill="none" stroke="black" points="2396.09,-388.5 2340.84,-370.5 2396.09,-352.5 2451.34,-370.5 2396.09,-388.5"/>
<text text-anchor="middle" x="2396.09" y="-365.45" font-family="Times,serif" font-size="14.00">temp_2</text>
</g>
<!-- c31 -->
<g id="node31" class="node">
<title>c31</title>
<polygon fill="none" stroke="black" points="2487.34,-350 2487.34,-391 2578.84,-391 2578.84,-350 2487.34,-350"/>
<text text-anchor="middle" x="2500.22" y="-365.7" font-family="Times,serif" font-size="14.00">A</text>
<polyline fill="none" stroke="black" points="2513.09,-350 2513.09,-391"/>
<text text-anchor="middle" x="2533.09" y="-373.7" font-family="Times,serif" font-size="14.00">$10</text>
<text text-anchor="middle" x="2533.09" y="-357.2" font-family="Times,serif" font-size="14.00">$not</text>
<polyline fill="none" stroke="black" points="2553.09,-350 2553.09,-391"/>
<text text-anchor="middle" x="2565.97" y="-365.7" font-family="Times,serif" font-size="14.00">Y</text>
</g>
<!-- n14&#45;&gt;c31 -->
<g id="edge35" class="edge">
<title>n14:e&#45;&gt;c31:w</title>
<path fill="none" stroke="black" stroke-width="3" d="M2451.34,-370.5C2462.72,-370.5 2468.03,-370.63 2475.9,-370.7"/>
<polygon fill="black" stroke="black" stroke-width="3" points="2472.79,-374.19 2482.8,-370.73 2472.82,-367.19 2472.79,-374.19"/>
</g>
<!-- n15 -->
<g id="node7" class="node">
<title>n15</title>
<polygon fill="none" stroke="black" points="2925.84,-190.5 2870.59,-172.5 2925.84,-154.5 2981.1,-172.5 2925.84,-190.5"/>
<text text-anchor="middle" x="2925.84" y="-167.45" font-family="Times,serif" font-size="14.00">temp_4</text>
</g>
<!-- n15&#45;&gt;c23 -->
<g id="edge37" class="edge">
<title>n15:e&#45;&gt;c23:w</title>
<path fill="none" stroke="black" stroke-width="3" d="M2981.1,-172.5C2993.32,-172.5 2997.9,-166.3 3005.95,-162.91"/>
<polygon fill="black" stroke="black" stroke-width="3" points="3003.48,-166.95 3012.64,-161.61 3002.15,-160.07 3003.48,-166.95"/>
</g>
<!-- n16 -->
<g id="node8" class="node">
<title>n16</title>
<polygon fill="none" stroke="black" points="1762.34,-517.5 1707.09,-499.5 1762.34,-481.5 1817.59,-499.5 1762.34,-517.5"/>
<text text-anchor="middle" x="1762.34" y="-494.45" font-family="Times,serif" font-size="14.00">temp_5</text>
</g>
<!-- c30 -->
<g id="node30" class="node">
<title>c30</title>
<polygon fill="none" stroke="black" points="3423.1,-371 3423.1,-420 3519.1,-420 3519.1,-371 3423.1,-371"/>
<text text-anchor="middle" x="3435.97" y="-402.7" font-family="Times,serif" font-size="14.00">A</text>
<polyline fill="none" stroke="black" points="3423.1,-395.5 3448.85,-395.5"/>
<text text-anchor="middle" x="3435.97" y="-378.2" font-family="Times,serif" font-size="14.00">B</text>
<polyline fill="none" stroke="black" points="3448.85,-371 3448.85,-420"/>
<text text-anchor="middle" x="3471.1" y="-398.7" font-family="Times,serif" font-size="14.00">$33</text>
<text text-anchor="middle" x="3471.1" y="-382.2" font-family="Times,serif" font-size="14.00">$mul</text>
<polyline fill="none" stroke="black" points="3493.35,-371 3493.35,-420"/>
<text text-anchor="middle" x="3506.22" y="-390.7" font-family="Times,serif" font-size="14.00">Y</text>
</g>
<!-- n16&#45;&gt;c30 -->
<g id="edge39" class="edge">
<title>n16:e&#45;&gt;c30:w</title>
<path fill="none" stroke="black" stroke-width="3" d="M1817.59,-499.5C1897.46,-499.5 1917.35,-494.5 1997.22,-494.5 1997.22,-494.5 1997.22,-494.5 3194.72,-494.5 3299.37,-494.5 3313.58,-413.91 3411.7,-408.08"/>
<polygon fill="black" stroke="black" stroke-width="3" points="3408.66,-411.67 3418.56,-407.88 3408.46,-404.67 3408.66,-411.67"/>
</g>
<!-- n17 -->
<g id="node9" class="node">
<title>n17</title>
<polygon fill="none" stroke="black" points="3331.85,-314.5 3276.6,-296.5 3331.85,-278.5 3387.1,-296.5 3331.85,-314.5"/>
<text text-anchor="middle" x="3331.85" y="-291.45" font-family="Times,serif" font-size="14.00">temp_7</text>
</g>
<!-- n17&#45;&gt;c30 -->
<g id="edge41" class="edge">
<title>n17:e&#45;&gt;c30:w</title>
<path fill="none" stroke="black" stroke-width="3" d="M3387.1,-296.5C3424.11,-296.5 3390.97,-364.71 3412.09,-380.16"/>
<polygon fill="black" stroke="black" stroke-width="3" points="3408.15,-382.69 3418.72,-382.02 3410.04,-375.95 3408.15,-382.69"/>
</g>
<!-- n1 -->
<g id="node43" class="node">
<title>n1</title>
<ellipse fill="black" stroke="black" cx="1762.34" cy="-284.5" rx="1.8" ry="1.8"/>
</g>
<!-- c21&#45;&gt;n1 -->
<g id="edge14" class="edge">
<title>c21:e&#45;&gt;n1:w</title>
<path fill="none" stroke="black" stroke-width="3" d="M1671.09,-284.75C1706.07,-284.75 1717.58,-284.55 1747.6,-284.51"/>
<polygon fill="black" stroke="black" stroke-width="3" points="1744.53,-288.01 1754.52,-284.5 1744.52,-281.01 1744.53,-288.01"/>
</g>
<!-- x0 -->
<g id="node11" class="node">
<title>x0</title>
<path fill="none" stroke="black" d="M1482.97,-231C1482.97,-231 1525.97,-231 1525.97,-231 1531.97,-231 1537.97,-237 1537.97,-243 1537.97,-243 1537.97,-268 1537.97,-268 1537.97,-274 1531.97,-280 1525.97,-280 1525.97,-280 1482.97,-280 1482.97,-280 1476.97,-280 1470.97,-274 1470.97,-268 1470.97,-268 1470.97,-243 1470.97,-243 1470.97,-237 1476.97,-231 1482.97,-231"/>
<text text-anchor="middle" x="1504.47" y="-262.7" font-family="Times,serif" font-size="14.00">1 &#45;&gt; 11:3</text>
<polyline fill="none" stroke="black" points="1470.97,-255.5 1537.97,-255.5"/>
<text text-anchor="middle" x="1504.47" y="-238.2" font-family="Times,serif" font-size="14.00">2:0 &#45; 2:0</text>
</g>
<!-- x0&#45;&gt;c21 -->
<g id="edge1" class="edge">
<title>x0:e&#45;&gt;c21:w</title>
<path fill="none" stroke="black" stroke-width="3" d="M1551.3,-258.73C1556.36,-261.7 1559.96,-266.07 1565.02,-269.03"/>
<polygon fill="none" stroke="black" stroke-width="3" points="1553.19,-259.22 1546.37,-261.57 1541.58,-256.18 1548.4,-253.83 1553.19,-259.22"/>
<polygon fill="none" stroke="black" stroke-width="3" points="1563.12,-268.53 1569.93,-266.18 1574.73,-271.57 1567.91,-273.92 1563.12,-268.53"/>
</g>
<!-- c22&#45;&gt;n16 -->
<g id="edge38" class="edge">
<title>c22:e&#45;&gt;n16:w</title>
<path fill="none" stroke="black" stroke-width="3" d="M733.09,-502.75C823.76,-502.75 846.42,-500.5 937.09,-500.5 937.09,-500.5 937.09,-500.5 1505.47,-500.5 1591.23,-500.5 1615.43,-499.58 1695.9,-499.51"/>
<polygon fill="black" stroke="black" stroke-width="3" points="1692.55,-503.01 1702.55,-499.5 1692.55,-496.01 1692.55,-503.01"/>
</g>
<!-- x1&#45;&gt;c22 -->
<g id="edge2" class="edge">
<title>x1:e&#45;&gt;c22:w</title>
<path fill="none" stroke="black" d="M616.06,-490.44C619.66,-490.4 622.79,-490.35 626.37,-490.32"/>
<polygon fill="none" stroke="black" points="616.24,-490.44 610.26,-494.47 604.24,-490.5 610.22,-486.47 616.24,-490.44"/>
<polygon fill="none" stroke="black" points="626.44,-490.32 632.42,-486.29 638.44,-490.25 632.46,-494.28 626.44,-490.32"/>
</g>
<!-- c24 -->
<g id="node15" class="node">
<title>c24</title>
<polygon fill="none" stroke="black" points="3146.85,-112 3146.85,-161 3240.6,-161 3240.6,-112 3146.85,-112"/>
<text text-anchor="middle" x="3159.72" y="-143.7" font-family="Times,serif" font-size="14.00">A</text>
<polyline fill="none" stroke="black" points="3146.85,-136.5 3172.6,-136.5"/>
<text text-anchor="middle" x="3159.72" y="-119.2" font-family="Times,serif" font-size="14.00">B</text>
<polyline fill="none" stroke="black" points="3172.6,-112 3172.6,-161"/>
<text text-anchor="middle" x="3193.72" y="-139.7" font-family="Times,serif" font-size="14.00">$17</text>
<text text-anchor="middle" x="3193.72" y="-123.2" font-family="Times,serif" font-size="14.00">$add</text>
<polyline fill="none" stroke="black" points="3214.85,-112 3214.85,-161"/>
<text text-anchor="middle" x="3227.72" y="-131.7" font-family="Times,serif" font-size="14.00">Y</text>
</g>
<!-- c23&#45;&gt;c24 -->
<g id="edge42" class="edge">
<title>c23:e&#45;&gt;c24:w</title>
<path fill="none" stroke="black" stroke-width="3" d="M3110.85,-148.75C3122.22,-148.75 3127.53,-148.75 3135.4,-148.75"/>
<polygon fill="black" stroke="black" stroke-width="3" points="3132.3,-152.25 3142.3,-148.75 3132.3,-145.25 3132.3,-152.25"/>
</g>
<!-- c24&#45;&gt;n17 -->
<g id="edge40" class="edge">
<title>c24:e&#45;&gt;n17:w</title>
<path fill="none" stroke="black" stroke-width="3" d="M3240.6,-136.75C3308.97,-136.75 3216.41,-277.74 3265.3,-294.81"/>
<polygon fill="black" stroke="black" stroke-width="3" points="3261.7,-297.81 3272.1,-295.83 3262.73,-290.89 3261.7,-297.81"/>
</g>
<!-- x2&#45;&gt;c24 -->
<g id="edge3" class="edge">
<title>x2:e&#45;&gt;c24:w</title>
<path fill="none" stroke="black" d="M1669.37,-71.53C1759.91,-71.93 1787.2,-76.5 1883.84,-76.5 1883.84,-76.5 1883.84,-76.5 2926.84,-76.5 3010.35,-76.5 3029.62,-95.13 3110.85,-114.5 3121.68,-117.08 3126.72,-120.6 3133.89,-122.62"/>
<polygon fill="none" stroke="black" points="1669.37,-71.53 1663.36,-75.52 1657.37,-71.5 1663.38,-67.52 1669.37,-71.53"/>
<polygon fill="none" stroke="black" points="3134.04,-122.64 3140.5,-119.42 3145.95,-124.14 3139.5,-127.36 3134.04,-122.64"/>
</g>
<!-- c25 -->
<g id="node17" class="node">
<title>c25</title>
<polygon fill="none" stroke="black" points="639.34,-230 639.34,-279 733.09,-279 733.09,-230 639.34,-230"/>
<text text-anchor="middle" x="652.22" y="-261.7" font-family="Times,serif" font-size="14.00">A</text>
<polyline fill="none" stroke="black" points="639.34,-254.5 665.09,-254.5"/>
<text text-anchor="middle" x="652.22" y="-237.2" font-family="Times,serif" font-size="14.00">B</text>
<polyline fill="none" stroke="black" points="665.09,-230 665.09,-279"/>
<text text-anchor="middle" x="686.22" y="-257.7" font-family="Times,serif" font-size="14.00">$46</text>
<text text-anchor="middle" x="686.22" y="-241.2" font-family="Times,serif" font-size="14.00">$and</text>
<polyline fill="none" stroke="black" points="707.34,-230 707.34,-279"/>
<text text-anchor="middle" x="720.22" y="-249.7" font-family="Times,serif" font-size="14.00">Y</text>
</g>
<!-- x5 -->
<g id="node20" class="node">
<title>x5</title>
<path fill="none" stroke="black" d="M781.09,-235.5C781.09,-235.5 819.59,-235.5 819.59,-235.5 825.59,-235.5 831.59,-241.5 831.59,-247.5 831.59,-247.5 831.59,-259.5 831.59,-259.5 831.59,-265.5 825.59,-271.5 819.59,-271.5 819.59,-271.5 781.09,-271.5 781.09,-271.5 775.09,-271.5 769.09,-265.5 769.09,-259.5 769.09,-259.5 769.09,-247.5 769.09,-247.5 769.09,-241.5 775.09,-235.5 781.09,-235.5"/>
<text text-anchor="middle" x="800.34" y="-248.7" font-family="Times,serif" font-size="14.00">2:0 &#45; 2:0</text>
</g>
<!-- c25&#45;&gt;x5 -->
<g id="edge6" class="edge">
<title>c25:e&#45;&gt;x5:w</title>
<path fill="none" stroke="black" stroke-width="3" d="M745.82,-254.43C749.41,-254.25 752.54,-254.02 756.12,-253.83"/>
<polygon fill="none" stroke="black" stroke-width="3" points="747.79,-254.39 741.89,-258.53 735.8,-254.68 741.69,-250.54 747.79,-254.39"/>
<polygon fill="none" stroke="black" stroke-width="3" points="754.39,-253.87 760.29,-249.72 766.39,-253.57 760.49,-257.72 754.39,-253.87"/>
</g>
<!-- x3&#45;&gt;c25 -->
<g id="edge4" class="edge">
<title>x3:e&#45;&gt;c25:w</title>
<path fill="none" stroke="black" stroke-width="3" d="M616.06,-266.56C619.66,-266.6 622.79,-266.65 626.37,-266.68"/>
<polygon fill="none" stroke="black" stroke-width="3" points="618.05,-266.57 612.03,-270.54 606.05,-266.51 612.07,-262.54 618.05,-266.57"/>
<polygon fill="none" stroke="black" stroke-width="3" points="624.64,-266.68 630.66,-262.71 636.64,-266.74 630.62,-270.71 624.64,-266.68"/>
</g>
<!-- x4&#45;&gt;c25 -->
<g id="edge5" class="edge">
<title>x4:e&#45;&gt;c25:w</title>
<path fill="none" stroke="black" stroke-width="3" d="M615.14,-216.58C620.33,-222.31 622.41,-231.57 627.63,-237.27"/>
<polygon fill="none" stroke="black" stroke-width="3" points="616.85,-217.31 609.76,-218.62 605.83,-212.57 612.92,-211.27 616.85,-217.31"/>
<polygon fill="none" stroke="black" stroke-width="3" points="625.81,-236.49 632.9,-235.16 636.85,-241.19 629.77,-242.52 625.81,-236.49"/>
</g>
<!-- x5&#45;&gt;n12 -->
<g id="edge29" class="edge">
<title>x5:e&#45;&gt;n12:w</title>
<path fill="none" stroke="black" stroke-width="3" d="M831.59,-253.75C855.33,-253.75 853.77,-225.1 869.61,-216.14"/>
<polygon fill="black" stroke="black" stroke-width="3" points="867.16,-220.34 876.05,-214.57 865.51,-213.54 867.16,-220.34"/>
</g>
<!-- x12 -->
<g id="node37" class="node">
<title>x12</title>
<path fill="none" stroke="black" d="M2092.34,-256C2092.34,-256 2157.84,-256 2157.84,-256 2163.84,-256 2169.84,-262 2169.84,-268 2169.84,-268 2169.84,-293 2169.84,-293 2169.84,-299 2163.84,-305 2157.84,-305 2157.84,-305 2092.34,-305 2092.34,-305 2086.34,-305 2080.34,-299 2080.34,-293 2080.34,-293 2080.34,-268 2080.34,-268 2080.34,-262 2086.34,-256 2092.34,-256"/>
<text text-anchor="middle" x="2125.09" y="-287.7" font-family="Times,serif" font-size="14.00">11:10 &#45; 11:10</text>
<polyline fill="none" stroke="black" points="2080.34,-280.5 2169.84,-280.5"/>
<text text-anchor="middle" x="2125.09" y="-263.2" font-family="Times,serif" font-size="14.00">9:0 &#45; 9:0</text>
</g>
<!-- c26&#45;&gt;x12 -->
<g id="edge46" class="edge">
<title>c26:e&#45;&gt;x12:w</title>
<path fill="none" stroke="black" stroke-width="3" d="M2044.34,-233.75C2061.83,-233.75 2060.34,-255.23 2069.82,-264.29"/>
<polygon fill="black" stroke="black" stroke-width="3" points="2065.5,-266.41 2076.09,-266.65 2067.96,-259.86 2065.5,-266.41"/>
</g>
<!-- x6 -->
<g id="node22" class="node">
<title>x6</title>
<path fill="none" stroke="black" d="M1865.59,-227.5C1865.59,-227.5 1904.09,-227.5 1904.09,-227.5 1910.09,-227.5 1916.09,-233.5 1916.09,-239.5 1916.09,-239.5 1916.09,-251.5 1916.09,-251.5 1916.09,-257.5 1910.09,-263.5 1904.09,-263.5 1904.09,-263.5 1865.59,-263.5 1865.59,-263.5 1859.59,-263.5 1853.59,-257.5 1853.59,-251.5 1853.59,-251.5 1853.59,-239.5 1853.59,-239.5 1853.59,-233.5 1859.59,-227.5 1865.59,-227.5"/>
<text text-anchor="middle" x="1884.84" y="-240.7" font-family="Times,serif" font-size="14.00">9:0 &#45; 9:0</text>
</g>
<!-- x6&#45;&gt;c26 -->
<g id="edge7" class="edge">
<title>x6:e&#45;&gt;c26:w</title>
<path fill="none" stroke="black" stroke-width="3" d="M1928.81,-245.56C1932.41,-245.6 1935.54,-245.65 1939.12,-245.68"/>
<polygon fill="none" stroke="black" stroke-width="3" points="1930.8,-245.57 1924.78,-249.54 1918.8,-245.51 1924.82,-241.54 1930.8,-245.57"/>
<polygon fill="none" stroke="black" stroke-width="3" points="1937.39,-245.68 1943.41,-241.71 1949.39,-245.74 1943.37,-249.71 1937.39,-245.68"/>
</g>
<!-- c27 -->
<g id="node23" class="node">
<title>c27</title>
<polygon fill="none" stroke="black" points="1143.09,-239 1143.09,-280 1234.59,-280 1234.59,-239 1143.09,-239"/>
<text text-anchor="middle" x="1155.97" y="-254.7" font-family="Times,serif" font-size="14.00">A</text>
<polyline fill="none" stroke="black" points="1168.84,-239 1168.84,-280"/>
<text text-anchor="middle" x="1188.84" y="-262.7" font-family="Times,serif" font-size="14.00">$57</text>
<text text-anchor="middle" x="1188.84" y="-246.2" font-family="Times,serif" font-size="14.00">$not</text>
<polyline fill="none" stroke="black" points="1208.84,-239 1208.84,-280"/>
<text text-anchor="middle" x="1221.72" y="-254.7" font-family="Times,serif" font-size="14.00">Y</text>
</g>
<!-- x8 -->
<g id="node25" class="node">
<title>x8</title>
<path fill="none" stroke="black" d="M1282.59,-240.5C1282.59,-240.5 1321.09,-240.5 1321.09,-240.5 1327.09,-240.5 1333.09,-246.5 1333.09,-252.5 1333.09,-252.5 1333.09,-264.5 1333.09,-264.5 1333.09,-270.5 1327.09,-276.5 1321.09,-276.5 1321.09,-276.5 1282.59,-276.5 1282.59,-276.5 1276.59,-276.5 1270.59,-270.5 1270.59,-264.5 1270.59,-264.5 1270.59,-252.5 1270.59,-252.5 1270.59,-246.5 1276.59,-240.5 1282.59,-240.5"/>
<text text-anchor="middle" x="1301.84" y="-253.7" font-family="Times,serif" font-size="14.00">2:0 &#45; 2:0</text>
</g>
<!-- c27&#45;&gt;x8 -->
<g id="edge9" class="edge">
<title>c27:e&#45;&gt;x8:w</title>
<path fill="none" stroke="black" stroke-width="3" d="M1247.32,-259.43C1250.91,-259.25 1254.04,-259.02 1257.62,-258.83"/>
<polygon fill="none" stroke="black" stroke-width="3" points="1249.29,-259.39 1243.39,-263.53 1237.3,-259.68 1243.19,-255.54 1249.29,-259.39"/>
<polygon fill="none" stroke="black" stroke-width="3" points="1255.89,-258.87 1261.79,-254.72 1267.89,-258.57 1261.99,-262.72 1255.89,-258.87"/>
</g>
<!-- x7&#45;&gt;c27 -->
<g id="edge8" class="edge">
<title>x7:e&#45;&gt;c27:w</title>
<path fill="none" stroke="black" stroke-width="3" d="M1118.94,-236.42C1123.92,-241.61 1126.3,-249.72 1131.3,-254.89"/>
<polygon fill="none" stroke="black" stroke-width="3" points="1120.67,-237.14 1113.6,-238.53 1109.59,-232.54 1116.66,-231.14 1120.67,-237.14"/>
<polygon fill="none" stroke="black" stroke-width="3" points="1129.5,-254.14 1136.57,-252.73 1140.59,-258.72 1133.52,-260.13 1129.5,-254.14"/>
</g>
<!-- n3 -->
<g id="node44" class="node">
<title>n3</title>
<ellipse fill="black" stroke="black" cx="1400.34" cy="-243.5" rx="1.8" ry="1.8"/>
</g>
<!-- x8&#45;&gt;n3 -->
<g id="edge44" class="edge">
<title>x8:e&#45;&gt;n3:w</title>
<path fill="none" stroke="black" stroke-width="3" d="M1333.09,-258.75C1358.1,-258.75 1365.75,-247.59 1385.73,-244.36"/>
<polygon fill="black" stroke="black" stroke-width="3" points="1382.83,-248.1 1392.54,-243.85 1382.3,-241.12 1382.83,-248.1"/>
</g>
<!-- c28 -->
<g id="node26" class="node">
<title>c28</title>
<polygon fill="none" stroke="black" points="2614.84,-358 2614.84,-407 2702.59,-407 2702.59,-358 2614.84,-358"/>
<text text-anchor="middle" x="2627.72" y="-389.7" font-family="Times,serif" font-size="14.00">A</text>
<polyline fill="none" stroke="black" points="2614.84,-382.5 2640.59,-382.5"/>
<text text-anchor="middle" x="2627.72" y="-365.2" font-family="Times,serif" font-size="14.00">B</text>
<polyline fill="none" stroke="black" points="2640.59,-358 2640.59,-407"/>
<text text-anchor="middle" x="2658.72" y="-385.7" font-family="Times,serif" font-size="14.00">$11</text>
<text text-anchor="middle" x="2658.72" y="-369.2" font-family="Times,serif" font-size="14.00">$le</text>
<polyline fill="none" stroke="black" points="2676.84,-358 2676.84,-407"/>
<text text-anchor="middle" x="2689.72" y="-377.7" font-family="Times,serif" font-size="14.00">Y</text>
</g>
<!-- c29 -->
<g id="node28" class="node">
<title>c29</title>
<polygon fill="none" stroke="black" points="2738.59,-159 2738.59,-208 2834.59,-208 2834.59,-159 2738.59,-159"/>
<text text-anchor="middle" x="2751.47" y="-190.7" font-family="Times,serif" font-size="14.00">A</text>
<polyline fill="none" stroke="black" points="2738.59,-183.5 2764.34,-183.5"/>
<text text-anchor="middle" x="2751.47" y="-166.2" font-family="Times,serif" font-size="14.00">B</text>
<polyline fill="none" stroke="black" points="2764.34,-159 2764.34,-208"/>
<text text-anchor="middle" x="2786.59" y="-186.7" font-family="Times,serif" font-size="14.00">$12</text>
<text text-anchor="middle" x="2786.59" y="-170.2" font-family="Times,serif" font-size="14.00">$mul</text>
<polyline fill="none" stroke="black" points="2808.84,-159 2808.84,-208"/>
<text text-anchor="middle" x="2821.72" y="-178.7" font-family="Times,serif" font-size="14.00">Y</text>
</g>
<!-- c28&#45;&gt;c29 -->
<g id="edge48" class="edge">
<title>c28:e&#45;&gt;c29:w</title>
<path fill="none" stroke="black" d="M2702.59,-382.75C2782.93,-382.75 2666.93,-214.26 2727.33,-197.15"/>
<polygon fill="black" stroke="black" points="2727.6,-200.64 2737.09,-195.94 2726.74,-193.69 2727.6,-200.64"/>
</g>
<!-- x9&#45;&gt;c28 -->
<g id="edge10" class="edge">
<title>x9:e&#45;&gt;c28:w</title>
<path fill="none" stroke="black" d="M1444.55,-452.5C1519.18,-452.5 1542.54,-452.5 1623.22,-452.5 1623.22,-452.5 1623.22,-452.5 2397.09,-452.5 2419.44,-452.5 2555.43,-406.49 2602.19,-396.61"/>
<polygon fill="none" stroke="black" points="1444.49,-452.5 1438.49,-456.5 1432.49,-452.5 1438.49,-448.5 1444.49,-452.5"/>
<polygon fill="none" stroke="black" points="2602.08,-396.62 2607.44,-391.79 2613.95,-394.88 2608.6,-399.71 2602.08,-396.62"/>
</g>
<!-- c29&#45;&gt;n15 -->
<g id="edge36" class="edge">
<title>c29:e&#45;&gt;n15:w</title>
<path fill="none" stroke="black" stroke-width="3" d="M2834.59,-183.75C2846.77,-183.75 2851.41,-177.81 2859.46,-174.56"/>
<polygon fill="black" stroke="black" stroke-width="3" points="2856.94,-178.59 2866.13,-173.33 2855.66,-171.71 2856.94,-178.59"/>
</g>
<!-- x10&#45;&gt;c29 -->
<g id="edge11" class="edge">
<title>x10:e&#45;&gt;c29:w</title>
<path fill="none" stroke="black" stroke-width="3" d="M1928.9,-171.5C2010.91,-171.5 2036.07,-171.5 2124.09,-171.5 2124.09,-171.5 2124.09,-171.5 2534.09,-171.5 2620.55,-171.5 2645.32,-171.27 2725.75,-171.25"/>
<polygon fill="none" stroke="black" stroke-width="3" points="1930.8,-171.5 1924.8,-175.5 1918.8,-171.5 1924.8,-167.5 1930.8,-171.5"/>
<polygon fill="none" stroke="black" stroke-width="3" points="2723.89,-171.25 2729.89,-167.25 2735.89,-171.25 2729.89,-175.25 2723.89,-171.25"/>
</g>
<!-- c30&#45;&gt;n13 -->
<g id="edge32" class="edge">
<title>c30:e&#45;&gt;n13:w</title>
<path fill="none" stroke="black" stroke-width="3" d="M3519.1,-395.75C3530.47,-395.75 3535.78,-395.62 3543.65,-395.55"/>
<polygon fill="black" stroke="black" stroke-width="3" points="3540.57,-399.06 3550.56,-395.52 3540.54,-392.06 3540.57,-399.06"/>
</g>
<!-- c31&#45;&gt;c28 -->
<g id="edge47" class="edge">
<title>c31:e&#45;&gt;c28:w</title>
<path fill="none" stroke="black" stroke-width="3" d="M2578.84,-370.75C2590.22,-370.75 2595.53,-370.5 2603.4,-370.35"/>
<polygon fill="black" stroke="black" stroke-width="3" points="2600.33,-373.88 2610.3,-370.29 2600.27,-366.88 2600.33,-373.88"/>
</g>
<!-- c32&#45;&gt;c34 -->
<g id="edge49" class="edge">
<title>c32:e&#45;&gt;c34:w</title>
<path fill="none" stroke="black" stroke-width="3" d="M229.34,-200.75C240.72,-200.75 246.03,-200.75 253.89,-200.75"/>
<polygon fill="black" stroke="black" stroke-width="3" points="250.8,-204.25 260.8,-200.75 250.8,-197.25 250.8,-204.25"/>
</g>
<!-- c36 -->
<g id="node35" class="node">
<title>c36</title>
<polygon fill="none" stroke="black" points="2205.84,-333.75 2205.84,-407.25 2304.84,-407.25 2304.84,-333.75 2205.84,-333.75"/>
<text text-anchor="middle" x="2218.72" y="-389.95" font-family="Times,serif" font-size="14.00">A</text>
<polyline fill="none" stroke="black" points="2205.84,-382.75 2231.59,-382.75"/>
<text text-anchor="middle" x="2218.72" y="-365.45" font-family="Times,serif" font-size="14.00">B</text>
<polyline fill="none" stroke="black" points="2205.84,-358.25 2231.59,-358.25"/>
<text text-anchor="middle" x="2218.72" y="-340.95" font-family="Times,serif" font-size="14.00">S</text>
<polyline fill="none" stroke="black" points="2231.59,-333.75 2231.59,-407.25"/>
<text text-anchor="middle" x="2255.34" y="-373.7" font-family="Times,serif" font-size="14.00">$9</text>
<text text-anchor="middle" x="2255.34" y="-357.2" font-family="Times,serif" font-size="14.00">$mux</text>
<polyline fill="none" stroke="black" points="2279.09,-333.75 2279.09,-407.25"/>
<text text-anchor="middle" x="2291.97" y="-365.45" font-family="Times,serif" font-size="14.00">Y</text>
</g>
<!-- c33&#45;&gt;c36 -->
<g id="edge50" class="edge">
<title>c33:e&#45;&gt;c36:w</title>
<path fill="none" stroke="black" d="M1008.59,-356.75C1088.39,-356.75 1108.05,-346.5 1187.84,-346.5 1187.84,-346.5 1187.84,-346.5 1999.22,-346.5 2087.11,-346.5 2111.91,-346.04 2194.38,-346"/>
<polygon fill="black" stroke="black" points="2194.33,-349.5 2204.33,-346 2194.33,-342.5 2194.33,-349.5"/>
</g>
<!-- c34&#45;&gt;n11 -->
<g id="edge18" class="edge">
<title>c34:e&#45;&gt;n11:w</title>
<path fill="none" stroke="black" stroke-width="3" d="M358.34,-188.75C420.23,-188.75 340.16,-314.91 383.19,-331.67"/>
<polygon fill="black" stroke="black" stroke-width="3" points="379.43,-334.6 389.86,-332.76 380.56,-327.69 379.43,-334.6"/>
</g>
<!-- c36&#45;&gt;n14 -->
<g id="edge34" class="edge">
<title>c36:e&#45;&gt;n14:w</title>
<path fill="none" stroke="black" stroke-width="3" d="M2304.84,-370.5C2316.22,-370.5 2321.53,-370.5 2329.4,-370.5"/>
<polygon fill="black" stroke="black" stroke-width="3" points="2326.3,-374 2336.3,-370.5 2326.3,-367 2326.3,-374"/>
</g>
<!-- x11&#45;&gt;c36 -->
<g id="edge12" class="edge">
<title>x11:e&#45;&gt;c36:w</title>
<path fill="none" stroke="black" stroke-width="3" d="M1554.36,-399.49C1641.52,-399.32 1668.05,-397.5 1761.34,-397.5 1761.34,-397.5 1761.34,-397.5 1999.22,-397.5 2086.57,-397.5 2111.6,-395.24 2192.87,-395.02"/>
<polygon fill="none" stroke="black" stroke-width="3" points="1556.05,-399.49 1550.05,-403.49 1544.05,-399.5 1550.04,-395.49 1556.05,-399.49"/>
<polygon fill="none" stroke="black" stroke-width="3" points="2191.14,-395.02 2197.13,-391.01 2203.14,-395 2197.14,-399.01 2191.14,-395.02"/>
</g>
<!-- x12&#45;&gt;c36 -->
<g id="edge13" class="edge">
<title>x12:e&#45;&gt;c36:w</title>
<path fill="none" stroke="black" stroke-width="3" d="M2181.99,-284.37C2199.05,-299.17 2176.56,-352.14 2193.83,-366.75"/>
<polygon fill="none" stroke="black" stroke-width="3" points="2183.85,-284.96 2176.92,-286.95 2172.42,-281.32 2179.35,-279.33 2183.85,-284.96"/>
<polygon fill="none" stroke="black" stroke-width="3" points="2191.81,-366.12 2198.73,-364.09 2203.26,-369.69 2196.34,-371.72 2191.81,-366.12"/>
</g>
<!-- v13 -->
<g id="node38" class="node">
<title>v13</title>
<ellipse fill="none" stroke="black" cx="1188.84" cy="-202.5" rx="44.7" ry="18"/>
<text text-anchor="middle" x="1188.84" y="-197.45" font-family="Times,serif" font-size="14.00">6&#39;111111</text>
</g>
<!-- x14 -->
<g id="node39" class="node">
<title>x14</title>
<path fill="none" stroke="black" d="M1282.59,-185.5C1282.59,-185.5 1321.09,-185.5 1321.09,-185.5 1327.09,-185.5 1333.09,-191.5 1333.09,-197.5 1333.09,-197.5 1333.09,-209.5 1333.09,-209.5 1333.09,-215.5 1327.09,-221.5 1321.09,-221.5 1321.09,-221.5 1282.59,-221.5 1282.59,-221.5 1276.59,-221.5 1270.59,-215.5 1270.59,-209.5 1270.59,-209.5 1270.59,-197.5 1270.59,-197.5 1270.59,-191.5 1276.59,-185.5 1282.59,-185.5"/>
<text text-anchor="middle" x="1301.84" y="-198.7" font-family="Times,serif" font-size="14.00">5:0 &#45; 8:3</text>
</g>
<!-- v13&#45;&gt;x14 -->
<g id="edge56" class="edge">
<title>v13:e&#45;&gt;x14:w</title>
<path fill="none" stroke="black" stroke-width="3" d="M1234.59,-202.5C1245.97,-202.5 1251.28,-203.01 1259.14,-203.3"/>
<polygon fill="black" stroke="black" stroke-width="3" points="1255.99,-206.74 1266.05,-203.42 1256.12,-199.74 1255.99,-206.74"/>
</g>
<!-- x14&#45;&gt;n3 -->
<g id="edge43" class="edge">
<title>x14:e&#45;&gt;n3:w</title>
<path fill="none" stroke="black" stroke-width="3" d="M1333.09,-203.75C1362.25,-203.75 1363.75,-233.91 1385.78,-241.69"/>
<polygon fill="black" stroke="black" stroke-width="3" points="1382.15,-244.65 1392.58,-242.78 1383.26,-237.74 1382.15,-244.65"/>
</g>
<!-- x15&#45;&gt;n10 -->
<g id="edge17" class="edge">
<title>x15:e&#45;&gt;n10:w</title>
<path fill="none" stroke="black" stroke-width="3" d="M3781.63,-407.5C3793,-407.5 3798.31,-407.5 3806.18,-407.5"/>
<polygon fill="black" stroke="black" stroke-width="3" points="3803.09,-411 3813.09,-407.5 3803.08,-404 3803.09,-411"/>
</g>
<!-- v16 -->
<g id="node41" class="node">
<title>v16</title>
<ellipse fill="none" stroke="black" cx="686.22" cy="-193.5" rx="44.7" ry="18"/>
<text text-anchor="middle" x="686.22" y="-188.45" font-family="Times,serif" font-size="14.00">6&#39;000000</text>
</g>
<!-- x17 -->
<g id="node42" class="node">
<title>x17</title>
<path fill="none" stroke="black" d="M781.09,-178.5C781.09,-178.5 819.59,-178.5 819.59,-178.5 825.59,-178.5 831.59,-184.5 831.59,-190.5 831.59,-190.5 831.59,-202.5 831.59,-202.5 831.59,-208.5 825.59,-214.5 819.59,-214.5 819.59,-214.5 781.09,-214.5 781.09,-214.5 775.09,-214.5 769.09,-208.5 769.09,-202.5 769.09,-202.5 769.09,-190.5 769.09,-190.5 769.09,-184.5 775.09,-178.5 781.09,-178.5"/>
<text text-anchor="middle" x="800.34" y="-191.7" font-family="Times,serif" font-size="14.00">5:0 &#45; 8:3</text>
</g>
<!-- v16&#45;&gt;x17 -->
<g id="edge57" class="edge">
<title>v16:e&#45;&gt;x17:w</title>
<path fill="none" stroke="black" stroke-width="3" d="M732.33,-193.5C744.11,-193.5 749.48,-195.05 757.66,-195.92"/>
<polygon fill="black" stroke="black" stroke-width="3" points="754.39,-199.26 764.56,-196.27 754.75,-192.27 754.39,-199.26"/>
</g>
<!-- x17&#45;&gt;n12 -->
<g id="edge28" class="edge">
<title>x17:e&#45;&gt;n12:w</title>
<path fill="none" stroke="black" stroke-width="3" d="M831.59,-196.75C850.25,-196.75 855.69,-207.81 869.4,-211.95"/>
<polygon fill="black" stroke="black" stroke-width="3" points="865.58,-214.96 875.97,-212.87 866.55,-208.02 865.58,-214.96"/>
</g>
<!-- n1&#45;&gt;x6 -->
<g id="edge16" class="edge">
<title>n1:e&#45;&gt;x6:w</title>
<path fill="none" stroke="black" stroke-width="3" d="M1765.62,-284.5C1804.17,-284.5 1809.99,-252.95 1842.15,-246.79"/>
<polygon fill="black" stroke="black" stroke-width="3" points="1839.43,-250.55 1849.07,-246.16 1838.8,-243.58 1839.43,-250.55"/>
</g>
<!-- n1&#45;&gt;x12 -->
<g id="edge15" class="edge">
<title>n1:e&#45;&gt;x12:w</title>
<path fill="none" stroke="black" stroke-width="3" d="M1765.62,-284.5C1901.72,-284.5 1938.43,-292.3 2069.1,-292.73"/>
<polygon fill="black" stroke="black" stroke-width="3" points="2065.8,-296.23 2075.8,-292.74 2065.81,-289.23 2065.8,-296.23"/>
</g>
<!-- n3&#45;&gt;x0 -->
<g id="edge45" class="edge">
<title>n3:e&#45;&gt;x0:w</title>
<path fill="none" stroke="black" stroke-width="3" d="M1403.62,-243.5C1428.96,-243.5 1437.97,-243.32 1458.72,-243.26"/>
<polygon fill="black" stroke="black" stroke-width="3" points="1455.43,-246.77 1465.43,-243.26 1455.42,-239.77 1455.43,-246.77"/>
</g>
</g>
</svg>
