<?xml version="1.0" encoding="UTF-8" standalone="no"?>
<!DOCTYPE svg PUBLIC "-//W3C//DTD SVG 1.1//EN"
 "http://www.w3.org/Graphics/SVG/1.1/DTD/svg11.dtd">
<!-- Generated by graphviz version 12.2.1 (20241206.2353)
 -->
<!-- Title: top Pages: 1 -->
<svg width="2126pt" height="482pt"
 viewBox="0.00 0.00 2125.91 482.00" xmlns="http://www.w3.org/2000/svg" xmlns:xlink="http://www.w3.org/1999/xlink">
<g id="graph0" class="graph" transform="scale(1 1) rotate(0) translate(4 478)">
<title>top</title>
<polygon fill="white" stroke="none" points="-4,4 -4,-478 2121.91,-478 2121.91,4 -4,4"/>
<text text-anchor="middle" x="1058.95" y="-7.2" font-family="Times,serif" font-size="14.00">top</text>
<!-- n7 -->
<g id="node1" class="node">
<title>n7</title>
<polygon fill="none" stroke="black" points="107.84,-237.54 107.84,-252.46 76.26,-263 31.59,-263 0,-252.46 0,-237.54 31.59,-227 76.26,-227 107.84,-237.54"/>
<text text-anchor="middle" x="53.92" y="-239.95" font-family="Times,serif" font-size="14.00">input_data</text>
</g>
<!-- c16 -->
<g id="node7" class="node">
<title>c16</title>
<polygon fill="none" stroke="black" points="143.84,-232.5 143.84,-281.5 237.59,-281.5 237.59,-232.5 143.84,-232.5"/>
<text text-anchor="middle" x="156.72" y="-264.2" font-family="Times,serif" font-size="14.00">A</text>
<polyline fill="none" stroke="black" points="143.84,-257 169.59,-257"/>
<text text-anchor="middle" x="156.72" y="-239.7" font-family="Times,serif" font-size="14.00">B</text>
<polyline fill="none" stroke="black" points="169.59,-232.5 169.59,-281.5"/>
<text text-anchor="middle" x="190.72" y="-260.2" font-family="Times,serif" font-size="14.00">$1</text>
<text text-anchor="middle" x="190.72" y="-243.7" font-family="Times,serif" font-size="14.00">$add</text>
<polyline fill="none" stroke="black" points="211.84,-232.5 211.84,-281.5"/>
<text text-anchor="middle" x="224.72" y="-252.2" font-family="Times,serif" font-size="14.00">Y</text>
</g>
<!-- n7&#45;&gt;c16 -->
<g id="edge26" class="edge">
<title>n7:e&#45;&gt;c16:w</title>
<path fill="none" stroke="black" stroke-width="3" d="M107.84,-245C122.46,-245 124.52,-258.93 133.05,-265.67"/>
<polygon fill="black" stroke="black" stroke-width="3" points="128.94,-267.99 139.53,-267.82 131.14,-261.35 128.94,-267.99"/>
</g>
<!-- n7&#45;&gt;c16 -->
<g id="edge27" class="edge">
<title>n7:e&#45;&gt;c16:w</title>
<path fill="none" stroke="black" stroke-width="3" d="M107.84,-245C119.22,-245 124.53,-244.87 132.39,-244.8"/>
<polygon fill="black" stroke="black" stroke-width="3" points="129.32,-248.31 139.3,-244.77 129.28,-241.31 129.32,-248.31"/>
</g>
<!-- c17 -->
<g id="node8" class="node">
<title>c17</title>
<polygon fill="none" stroke="black" points="809.09,-156.5 809.09,-205.5 902.84,-205.5 902.84,-156.5 809.09,-156.5"/>
<text text-anchor="middle" x="821.97" y="-188.2" font-family="Times,serif" font-size="14.00">A</text>
<polyline fill="none" stroke="black" points="809.09,-181 834.84,-181"/>
<text text-anchor="middle" x="821.97" y="-163.7" font-family="Times,serif" font-size="14.00">B</text>
<polyline fill="none" stroke="black" points="834.84,-156.5 834.84,-205.5"/>
<text text-anchor="middle" x="855.97" y="-184.2" font-family="Times,serif" font-size="14.00">$6</text>
<text text-anchor="middle" x="855.97" y="-167.7" font-family="Times,serif" font-size="14.00">$add</text>
<polyline fill="none" stroke="black" points="877.09,-156.5 877.09,-205.5"/>
<text text-anchor="middle" x="889.97" y="-176.2" font-family="Times,serif" font-size="14.00">Y</text>
</g>
<!-- n7&#45;&gt;c17 -->
<g id="edge28" class="edge">
<title>n7:e&#45;&gt;c17:w</title>
<path fill="none" stroke="black" stroke-width="3" d="M107.84,-245C133.8,-245 121.15,-278.39 143.84,-291 212.32,-329.07 240.75,-310 319.09,-310 319.09,-310 319.09,-310 573.09,-310 630.45,-310 734.08,-184.82 796.86,-170.15"/>
<polygon fill="black" stroke="black" stroke-width="3" points="794.1,-174.02 803.59,-169.31 793.23,-167.07 794.1,-174.02"/>
</g>
<!-- c18 -->
<g id="node9" class="node">
<title>c18</title>
<polygon fill="none" stroke="black" points="143.84,-338.5 143.84,-387.5 237.59,-387.5 237.59,-338.5 143.84,-338.5"/>
<text text-anchor="middle" x="156.72" y="-370.2" font-family="Times,serif" font-size="14.00">A</text>
<polyline fill="none" stroke="black" points="143.84,-363 169.59,-363"/>
<text text-anchor="middle" x="156.72" y="-345.7" font-family="Times,serif" font-size="14.00">B</text>
<polyline fill="none" stroke="black" points="169.59,-338.5 169.59,-387.5"/>
<text text-anchor="middle" x="190.72" y="-366.2" font-family="Times,serif" font-size="14.00">$5</text>
<text text-anchor="middle" x="190.72" y="-349.7" font-family="Times,serif" font-size="14.00">$and</text>
<polyline fill="none" stroke="black" points="211.84,-338.5 211.84,-387.5"/>
<text text-anchor="middle" x="224.72" y="-358.2" font-family="Times,serif" font-size="14.00">Y</text>
</g>
<!-- n7&#45;&gt;c18 -->
<g id="edge29" class="edge">
<title>n7:e&#45;&gt;c18:w</title>
<path fill="none" stroke="black" stroke-width="3" d="M107.84,-245C163.44,-245 95.47,-356.63 132.73,-373.2"/>
<polygon fill="black" stroke="black" stroke-width="3" points="128.91,-376.06 139.38,-374.43 130.17,-369.17 128.91,-376.06"/>
</g>
<!-- n7&#45;&gt;c18 -->
<g id="edge30" class="edge">
<title>n7:e&#45;&gt;c18:w</title>
<path fill="none" stroke="black" stroke-width="3" d="M107.84,-245C152.84,-245 105.07,-331.85 132.67,-348.14"/>
<polygon fill="black" stroke="black" stroke-width="3" points="128.89,-350.85 139.42,-349.72 130.48,-344.03 128.89,-350.85"/>
</g>
<!-- c20 -->
<g id="node13" class="node">
<title>c20</title>
<polygon fill="none" stroke="black" points="524.09,-131.5 524.09,-180.5 620.09,-180.5 620.09,-131.5 524.09,-131.5"/>
<text text-anchor="middle" x="536.97" y="-163.2" font-family="Times,serif" font-size="14.00">A</text>
<polyline fill="none" stroke="black" points="524.09,-156 549.84,-156"/>
<text text-anchor="middle" x="536.97" y="-138.7" font-family="Times,serif" font-size="14.00">B</text>
<polyline fill="none" stroke="black" points="549.84,-131.5 549.84,-180.5"/>
<text text-anchor="middle" x="572.09" y="-159.2" font-family="Times,serif" font-size="14.00">$4</text>
<text text-anchor="middle" x="572.09" y="-142.7" font-family="Times,serif" font-size="14.00">$mul</text>
<polyline fill="none" stroke="black" points="594.34,-131.5 594.34,-180.5"/>
<text text-anchor="middle" x="607.22" y="-151.2" font-family="Times,serif" font-size="14.00">Y</text>
</g>
<!-- n7&#45;&gt;c20 -->
<g id="edge31" class="edge">
<title>n7:e&#45;&gt;c20:w</title>
<path fill="none" stroke="black" stroke-width="3" d="M107.84,-245C147.24,-245 111.53,-186.54 143.84,-164 279.53,-69.35 351.57,-140.4 512.83,-143.64"/>
<polygon fill="black" stroke="black" stroke-width="3" points="509.52,-147.1 519.55,-143.7 509.59,-140.1 509.52,-147.1"/>
</g>
<!-- c21 -->
<g id="node14" class="node">
<title>c21</title>
<polygon fill="none" stroke="black" points="1218.59,-143.5 1218.59,-192.5 1314.59,-192.5 1314.59,-143.5 1218.59,-143.5"/>
<text text-anchor="middle" x="1231.47" y="-175.2" font-family="Times,serif" font-size="14.00">A</text>
<polyline fill="none" stroke="black" points="1218.59,-168 1244.34,-168"/>
<text text-anchor="middle" x="1231.47" y="-150.7" font-family="Times,serif" font-size="14.00">B</text>
<polyline fill="none" stroke="black" points="1244.34,-143.5 1244.34,-192.5"/>
<text text-anchor="middle" x="1266.59" y="-171.2" font-family="Times,serif" font-size="14.00">$8</text>
<text text-anchor="middle" x="1266.59" y="-154.7" font-family="Times,serif" font-size="14.00">$mul</text>
<polyline fill="none" stroke="black" points="1288.84,-143.5 1288.84,-192.5"/>
<text text-anchor="middle" x="1301.72" y="-163.2" font-family="Times,serif" font-size="14.00">Y</text>
</g>
<!-- n7&#45;&gt;c21 -->
<g id="edge32" class="edge">
<title>n7:e&#45;&gt;c21:w</title>
<path fill="none" stroke="black" stroke-width="3" d="M107.84,-245C167.36,-245 99.21,-155.38 143.84,-116 202.88,-63.9 240.35,-90 319.09,-90 319.09,-90 319.09,-90 993.59,-90 1093.91,-90 1113.05,-150.96 1207.35,-155.49"/>
<polygon fill="black" stroke="black" stroke-width="3" points="1203.97,-158.91 1214.05,-155.64 1204.14,-151.91 1203.97,-158.91"/>
</g>
<!-- c22 -->
<g id="node16" class="node">
<title>c22</title>
<polygon fill="none" stroke="black" points="402.59,-156.5 402.59,-205.5 488.09,-205.5 488.09,-156.5 402.59,-156.5"/>
<text text-anchor="middle" x="415.47" y="-188.2" font-family="Times,serif" font-size="14.00">A</text>
<polyline fill="none" stroke="black" points="402.59,-181 428.34,-181"/>
<text text-anchor="middle" x="415.47" y="-163.7" font-family="Times,serif" font-size="14.00">B</text>
<polyline fill="none" stroke="black" points="428.34,-156.5 428.34,-205.5"/>
<text text-anchor="middle" x="445.34" y="-184.2" font-family="Times,serif" font-size="14.00">$3</text>
<text text-anchor="middle" x="445.34" y="-167.7" font-family="Times,serif" font-size="14.00">$or</text>
<polyline fill="none" stroke="black" points="462.34,-156.5 462.34,-205.5"/>
<text text-anchor="middle" x="475.22" y="-176.2" font-family="Times,serif" font-size="14.00">Y</text>
</g>
<!-- n7&#45;&gt;c22 -->
<g id="edge33" class="edge">
<title>n7:e&#45;&gt;c22:w</title>
<path fill="none" stroke="black" stroke-width="3" d="M107.84,-245C132.43,-245 122.27,-214.79 143.84,-203 242.26,-149.23 283.8,-167.42 391.28,-168.68"/>
<polygon fill="black" stroke="black" stroke-width="3" points="388.03,-172.16 398.05,-168.72 388.07,-165.16 388.03,-172.16"/>
</g>
<!-- c23 -->
<g id="node17" class="node">
<title>c23</title>
<polygon fill="none" stroke="black" points="273.59,-194.5 273.59,-243.5 366.59,-243.5 366.59,-194.5 273.59,-194.5"/>
<text text-anchor="middle" x="286.47" y="-226.2" font-family="Times,serif" font-size="14.00">A</text>
<polyline fill="none" stroke="black" points="273.59,-219 299.34,-219"/>
<text text-anchor="middle" x="286.47" y="-201.7" font-family="Times,serif" font-size="14.00">B</text>
<polyline fill="none" stroke="black" points="299.34,-194.5 299.34,-243.5"/>
<text text-anchor="middle" x="320.09" y="-222.2" font-family="Times,serif" font-size="14.00">$2</text>
<text text-anchor="middle" x="320.09" y="-205.7" font-family="Times,serif" font-size="14.00">$sub</text>
<polyline fill="none" stroke="black" points="340.84,-194.5 340.84,-243.5"/>
<text text-anchor="middle" x="353.72" y="-214.2" font-family="Times,serif" font-size="14.00">Y</text>
</g>
<!-- n7&#45;&gt;c23 -->
<g id="edge34" class="edge">
<title>n7:e&#45;&gt;c23:w</title>
<path fill="none" stroke="black" stroke-width="3" d="M107.84,-245C126.59,-245 126.14,-229.19 143.84,-223 194.95,-205.12 213,-206.45 262.23,-206.72"/>
<polygon fill="black" stroke="black" stroke-width="3" points="259.04,-210.21 269.05,-206.74 259.06,-203.21 259.04,-210.21"/>
</g>
<!-- n8 -->
<g id="node2" class="node">
<title>n8</title>
<polygon fill="none" stroke="black" points="2117.91,-148.54 2117.91,-163.46 2083.4,-174 2034.6,-174 2000.09,-163.46 2000.09,-148.54 2034.6,-138 2083.4,-138 2117.91,-148.54"/>
<text text-anchor="middle" x="2059" y="-150.95" font-family="Times,serif" font-size="14.00">output_data</text>
</g>
<!-- n9 -->
<g id="node3" class="node">
<title>n9</title>
<polygon fill="none" stroke="black" points="711.34,-174 656.09,-156 711.34,-138 766.59,-156 711.34,-174"/>
<text text-anchor="middle" x="711.34" y="-150.95" font-family="Times,serif" font-size="14.00">temp_0</text>
</g>
<!-- n9&#45;&gt;c17 -->
<g id="edge37" class="edge">
<title>n9:e&#45;&gt;c17:w</title>
<path fill="none" stroke="black" stroke-width="3" d="M766.59,-156C786.73,-156 785.18,-180.59 797.18,-189.81"/>
<polygon fill="black" stroke="black" stroke-width="3" points="793.17,-192.22 803.76,-191.89 795.28,-185.54 793.17,-192.22"/>
</g>
<!-- x4 -->
<g id="node21" class="node">
<title>x4</title>
<path fill="none" stroke="black" d="M1109.97,-25C1109.97,-25 1148.47,-25 1148.47,-25 1154.47,-25 1160.47,-31 1160.47,-37 1160.47,-37 1160.47,-49 1160.47,-49 1160.47,-55 1154.47,-61 1148.47,-61 1148.47,-61 1109.97,-61 1109.97,-61 1103.97,-61 1097.97,-55 1097.97,-49 1097.97,-49 1097.97,-37 1097.97,-37 1097.97,-31 1103.97,-25 1109.97,-25"/>
<text text-anchor="middle" x="1129.22" y="-38.2" font-family="Times,serif" font-size="14.00">3:0 &#45; 3:0</text>
</g>
<!-- n9&#45;&gt;x4 -->
<g id="edge38" class="edge">
<title>n9:e&#45;&gt;x4:w</title>
<path fill="none" stroke="black" stroke-width="3" d="M766.59,-156C784.28,-156 1028.42,-62.2 1085.92,-45.71"/>
<polygon fill="black" stroke="black" stroke-width="3" points="1083.53,-49.83 1092.53,-44.24 1082.01,-42.99 1083.53,-49.83"/>
</g>
<!-- n10 -->
<g id="node4" class="node">
<title>n10</title>
<polygon fill="none" stroke="black" points="711.34,-376 656.09,-358 711.34,-340 766.59,-358 711.34,-376"/>
<text text-anchor="middle" x="711.34" y="-352.95" font-family="Times,serif" font-size="14.00">temp_2</text>
</g>
<!-- x1 -->
<g id="node12" class="node">
<title>x1</title>
<path fill="none" stroke="black" d="M821.34,-224.5C821.34,-224.5 890.59,-224.5 890.59,-224.5 896.59,-224.5 902.59,-230.5 902.59,-236.5 902.59,-236.5 902.59,-261.5 902.59,-261.5 902.59,-267.5 896.59,-273.5 890.59,-273.5 890.59,-273.5 821.34,-273.5 821.34,-273.5 815.34,-273.5 809.34,-267.5 809.34,-261.5 809.34,-261.5 809.34,-236.5 809.34,-236.5 809.34,-230.5 815.34,-224.5 821.34,-224.5"/>
<text text-anchor="middle" x="855.97" y="-256.2" font-family="Times,serif" font-size="14.00">3x 30:30 &#45; 7:5</text>
<polyline fill="none" stroke="black" points="809.34,-249 902.59,-249"/>
<text text-anchor="middle" x="855.97" y="-231.7" font-family="Times,serif" font-size="14.00">4:0 &#45; 4:0</text>
</g>
<!-- n10&#45;&gt;x1 -->
<g id="edge11" class="edge">
<title>n10:e&#45;&gt;x1:w</title>
<path fill="none" stroke="black" stroke-width="3" d="M766.59,-358C819.13,-358 761.85,-254.96 797.23,-238.85"/>
<polygon fill="black" stroke="black" stroke-width="3" points="794.71,-242.89 803.88,-237.59 793.4,-236.02 794.71,-242.89"/>
</g>
<!-- n10&#45;&gt;x1 -->
<g id="edge12" class="edge">
<title>n10:e&#45;&gt;x1:w</title>
<path fill="none" stroke="black" stroke-width="3" d="M766.59,-358C808.85,-358 770.71,-279.22 797.26,-263.84"/>
<polygon fill="black" stroke="black" stroke-width="3" points="794.98,-267.97 803.92,-262.28 793.39,-261.15 794.98,-267.97"/>
</g>
<!-- x2 -->
<g id="node15" class="node">
<title>x2</title>
<path fill="none" stroke="black" d="M1087.84,-221.5C1087.84,-221.5 1170.59,-221.5 1170.59,-221.5 1176.59,-221.5 1182.59,-227.5 1182.59,-233.5 1182.59,-233.5 1182.59,-258.5 1182.59,-258.5 1182.59,-264.5 1176.59,-270.5 1170.59,-270.5 1170.59,-270.5 1087.84,-270.5 1087.84,-270.5 1081.84,-270.5 1075.84,-264.5 1075.84,-258.5 1075.84,-258.5 1075.84,-233.5 1075.84,-233.5 1075.84,-227.5 1081.84,-221.5 1087.84,-221.5"/>
<text text-anchor="middle" x="1129.22" y="-253.2" font-family="Times,serif" font-size="14.00">23x 30:30 &#45; 30:8</text>
<polyline fill="none" stroke="black" points="1075.84,-246 1182.59,-246"/>
<text text-anchor="middle" x="1129.22" y="-228.7" font-family="Times,serif" font-size="14.00">7:0 &#45; 7:0</text>
</g>
<!-- n10&#45;&gt;x2 -->
<g id="edge13" class="edge">
<title>n10:e&#45;&gt;x2:w</title>
<path fill="none" stroke="black" stroke-width="3" d="M766.59,-358C785.82,-358 784.19,-376.43 802.59,-382 904.03,-412.71 959,-426.53 1039.84,-358 1072.28,-330.5 1037.11,-271.41 1064.56,-260.13"/>
<polygon fill="black" stroke="black" stroke-width="3" points="1062.08,-264.09 1071.36,-259 1060.92,-257.19 1062.08,-264.09"/>
</g>
<!-- x3 -->
<g id="node19" class="node">
<title>x3</title>
<path fill="none" stroke="black" d="M829.97,-424.5C829.97,-424.5 881.97,-424.5 881.97,-424.5 887.97,-424.5 893.97,-430.5 893.97,-436.5 893.97,-436.5 893.97,-461.5 893.97,-461.5 893.97,-467.5 887.97,-473.5 881.97,-473.5 881.97,-473.5 829.97,-473.5 829.97,-473.5 823.97,-473.5 817.97,-467.5 817.97,-461.5 817.97,-461.5 817.97,-436.5 817.97,-436.5 817.97,-430.5 823.97,-424.5 829.97,-424.5"/>
<text text-anchor="middle" x="855.97" y="-456.2" font-family="Times,serif" font-size="14.00">30:30 &#45; 5:5</text>
<polyline fill="none" stroke="black" points="817.97,-449 893.97,-449"/>
<text text-anchor="middle" x="855.97" y="-431.7" font-family="Times,serif" font-size="14.00">4:0 &#45; 4:0</text>
</g>
<!-- n10&#45;&gt;x3 -->
<g id="edge14" class="edge">
<title>n10:e&#45;&gt;x3:w</title>
<path fill="none" stroke="black" stroke-width="3" d="M766.59,-358C803.6,-358 781.69,-420.47 805.8,-434.13"/>
<polygon fill="black" stroke="black" stroke-width="3" points="802.01,-436.83 812.55,-435.71 803.61,-430.02 802.01,-436.83"/>
</g>
<!-- n10&#45;&gt;x3 -->
<g id="edge15" class="edge">
<title>n10:e&#45;&gt;x3:w</title>
<path fill="none" stroke="black" d="M766.59,-358C813.26,-358 774.04,-444.27 805.95,-459.09"/>
<polygon fill="black" stroke="black" points="805,-462.47 815.48,-460.96 806.34,-455.6 805,-462.47"/>
</g>
<!-- x6 -->
<g id="node23" class="node">
<title>x6</title>
<path fill="none" stroke="black" d="M814.59,-293C814.59,-293 897.34,-293 897.34,-293 903.34,-293 909.34,-299 909.34,-305 909.34,-305 909.34,-317 909.34,-317 909.34,-323 903.34,-329 897.34,-329 897.34,-329 814.59,-329 814.59,-329 808.59,-329 802.59,-323 802.59,-317 802.59,-317 802.59,-305 802.59,-305 802.59,-299 808.59,-293 814.59,-293"/>
<text text-anchor="middle" x="855.97" y="-306.2" font-family="Times,serif" font-size="14.00">25x 30:30 &#45; 24:0</text>
</g>
<!-- n10&#45;&gt;x6 -->
<g id="edge16" class="edge">
<title>n10:e&#45;&gt;x6:w</title>
<path fill="none" stroke="black" stroke-width="3" d="M766.59,-358C788.1,-358 780.9,-326.54 792.09,-315.24"/>
<polygon fill="black" stroke="black" stroke-width="3" points="790.24,-319.68 798.35,-312.86 787.76,-313.14 790.24,-319.68"/>
</g>
<!-- n11 -->
<g id="node5" class="node">
<title>n11</title>
<polygon fill="none" stroke="black" points="1405.84,-186 1350.59,-168 1405.84,-150 1461.09,-168 1405.84,-186"/>
<text text-anchor="middle" x="1405.84" y="-162.95" font-family="Times,serif" font-size="14.00">temp_3</text>
</g>
<!-- c24 -->
<g id="node18" class="node">
<title>c24</title>
<polygon fill="none" stroke="black" points="1497.09,-155.5 1497.09,-204.5 1590.09,-204.5 1590.09,-155.5 1497.09,-155.5"/>
<text text-anchor="middle" x="1509.97" y="-187.2" font-family="Times,serif" font-size="14.00">A</text>
<polyline fill="none" stroke="black" points="1497.09,-180 1522.84,-180"/>
<text text-anchor="middle" x="1509.97" y="-162.7" font-family="Times,serif" font-size="14.00">B</text>
<polyline fill="none" stroke="black" points="1522.84,-155.5 1522.84,-204.5"/>
<text text-anchor="middle" x="1543.59" y="-183.2" font-family="Times,serif" font-size="14.00">$11</text>
<text text-anchor="middle" x="1543.59" y="-166.7" font-family="Times,serif" font-size="14.00">$sub</text>
<polyline fill="none" stroke="black" points="1564.34,-155.5 1564.34,-204.5"/>
<text text-anchor="middle" x="1577.22" y="-175.2" font-family="Times,serif" font-size="14.00">Y</text>
</g>
<!-- n11&#45;&gt;c24 -->
<g id="edge18" class="edge">
<title>n11:e&#45;&gt;c24:w</title>
<path fill="none" stroke="black" stroke-width="3" d="M1461.09,-168C1472.47,-168 1477.78,-167.87 1485.65,-167.8"/>
<polygon fill="black" stroke="black" stroke-width="3" points="1482.57,-171.31 1492.55,-167.77 1482.54,-164.31 1482.57,-171.31"/>
</g>
<!-- n12 -->
<g id="node6" class="node">
<title>n12</title>
<polygon fill="none" stroke="black" points="1810.34,-162 1755.09,-144 1810.34,-126 1865.59,-144 1810.34,-162"/>
<text text-anchor="middle" x="1810.34" y="-138.95" font-family="Times,serif" font-size="14.00">temp_4</text>
</g>
<!-- x5 -->
<g id="node22" class="node">
<title>x5</title>
<path fill="none" stroke="black" d="M1913.59,-131.5C1913.59,-131.5 1952.09,-131.5 1952.09,-131.5 1958.09,-131.5 1964.09,-137.5 1964.09,-143.5 1964.09,-143.5 1964.09,-168.5 1964.09,-168.5 1964.09,-174.5 1958.09,-180.5 1952.09,-180.5 1952.09,-180.5 1913.59,-180.5 1913.59,-180.5 1907.59,-180.5 1901.59,-174.5 1901.59,-168.5 1901.59,-168.5 1901.59,-143.5 1901.59,-143.5 1901.59,-137.5 1907.59,-131.5 1913.59,-131.5"/>
<text text-anchor="middle" x="1932.84" y="-163.2" font-family="Times,serif" font-size="14.00">0 &#45;&gt; 9:6</text>
<polyline fill="none" stroke="black" points="1901.59,-156 1964.09,-156"/>
<text text-anchor="middle" x="1932.84" y="-138.7" font-family="Times,serif" font-size="14.00">5:0 &#45; 5:0</text>
</g>
<!-- n12&#45;&gt;x5 -->
<g id="edge20" class="edge">
<title>n12:e&#45;&gt;x5:w</title>
<path fill="none" stroke="black" stroke-width="3" d="M1865.59,-144C1876.97,-144 1882.28,-143.87 1890.15,-143.8"/>
<polygon fill="black" stroke="black" stroke-width="3" points="1887.07,-147.31 1897.05,-143.77 1887.04,-140.31 1887.07,-147.31"/>
</g>
<!-- c16&#45;&gt;c23 -->
<g id="edge7" class="edge">
<title>c16:e&#45;&gt;c23:w</title>
<path fill="none" stroke="black" stroke-width="3" d="M237.59,-257.25C252.7,-257.25 254.21,-242.01 262.94,-234.87"/>
<polygon fill="black" stroke="black" stroke-width="3" points="260.95,-239.24 269.29,-232.71 258.7,-232.61 260.95,-239.24"/>
</g>
<!-- c19 -->
<g id="node11" class="node">
<title>c19</title>
<polygon fill="none" stroke="black" points="945.34,-209.5 945.34,-258.5 1039.84,-258.5 1039.84,-209.5 945.34,-209.5"/>
<text text-anchor="middle" x="958.22" y="-241.2" font-family="Times,serif" font-size="14.00">A</text>
<polyline fill="none" stroke="black" points="945.34,-234 971.09,-234"/>
<text text-anchor="middle" x="958.22" y="-216.7" font-family="Times,serif" font-size="14.00">B</text>
<polyline fill="none" stroke="black" points="971.09,-209.5 971.09,-258.5"/>
<text text-anchor="middle" x="992.59" y="-237.2" font-family="Times,serif" font-size="14.00">$102</text>
<text text-anchor="middle" x="992.59" y="-220.7" font-family="Times,serif" font-size="14.00">$xor</text>
<polyline fill="none" stroke="black" points="1014.09,-209.5 1014.09,-258.5"/>
<text text-anchor="middle" x="1026.97" y="-229.2" font-family="Times,serif" font-size="14.00">Y</text>
</g>
<!-- c17&#45;&gt;c19 -->
<g id="edge21" class="edge">
<title>c17:e&#45;&gt;c19:w</title>
<path fill="none" stroke="black" stroke-width="3" d="M903.84,-181.25C933.56,-181.25 917.17,-230.13 934.64,-243.11"/>
<polygon fill="black" stroke="black" stroke-width="3" points="930.4,-245.52 940.98,-244.97 932.37,-238.8 930.4,-245.52"/>
</g>
<!-- x0 -->
<g id="node10" class="node">
<title>x0</title>
<path fill="none" stroke="black" d="M546.09,-338.5C546.09,-338.5 598.09,-338.5 598.09,-338.5 604.09,-338.5 610.09,-344.5 610.09,-350.5 610.09,-350.5 610.09,-375.5 610.09,-375.5 610.09,-381.5 604.09,-387.5 598.09,-387.5 598.09,-387.5 546.09,-387.5 546.09,-387.5 540.09,-387.5 534.09,-381.5 534.09,-375.5 534.09,-375.5 534.09,-350.5 534.09,-350.5 534.09,-344.5 540.09,-338.5 546.09,-338.5"/>
<text text-anchor="middle" x="572.09" y="-370.2" font-family="Times,serif" font-size="14.00">5:5 &#45; 30:30</text>
<polyline fill="none" stroke="black" points="534.09,-363 610.09,-363"/>
<text text-anchor="middle" x="572.09" y="-345.7" font-family="Times,serif" font-size="14.00">4:0 &#45; 4:0</text>
</g>
<!-- c18&#45;&gt;x0 -->
<g id="edge1" class="edge">
<title>c18:e&#45;&gt;x0:w</title>
<path fill="none" stroke="black" stroke-width="3" d="M250.35,-363.25C367.08,-363.23 403.63,-363.02 520.39,-363"/>
<polygon fill="none" stroke="black" stroke-width="3" points="252.3,-363.25 246.3,-367.25 240.3,-363.25 246.29,-359.25 252.3,-363.25"/>
<polygon fill="none" stroke="black" stroke-width="3" points="518.39,-363 524.39,-359 530.39,-363 524.39,-367 518.39,-363"/>
</g>
<!-- x0&#45;&gt;n10 -->
<g id="edge8" class="edge">
<title>x0:e&#45;&gt;n10:w</title>
<path fill="none" stroke="black" stroke-width="3" d="M611.09,-350.75C626.92,-350.75 633.12,-355.18 644.73,-357.11"/>
<polygon fill="black" stroke="black" stroke-width="3" points="641.32,-360.35 651.56,-357.65 641.87,-353.38 641.32,-360.35"/>
</g>
<!-- x0&#45;&gt;n10 -->
<g id="edge9" class="edge">
<title>x0:e&#45;&gt;n10:w</title>
<path fill="none" stroke="black" d="M611.09,-375.25C628.16,-375.25 633,-364.3 645.1,-359.85"/>
<polygon fill="black" stroke="black" points="645.32,-363.36 654.6,-358.25 644.16,-356.46 645.32,-363.36"/>
</g>
<!-- c19&#45;&gt;x2 -->
<g id="edge22" class="edge">
<title>c19:e&#45;&gt;x2:w</title>
<path fill="none" stroke="black" stroke-width="3" d="M1039.84,-234.25C1051.22,-234.25 1056.53,-234 1064.39,-233.85"/>
<polygon fill="black" stroke="black" stroke-width="3" points="1061.33,-237.38 1071.3,-233.79 1061.27,-230.38 1061.33,-237.38"/>
</g>
<!-- x1&#45;&gt;c19 -->
<g id="edge2" class="edge">
<title>x1:e&#45;&gt;c19:w</title>
<path fill="none" stroke="black" stroke-width="3" d="M915.73,-245.21C922.73,-240.06 926.08,-230.9 933.01,-225.68"/>
<polygon fill="none" stroke="black" stroke-width="3" points="917.63,-244.62 913.09,-250.23 906.17,-248.19 910.71,-242.59 917.63,-244.62"/>
<polygon fill="none" stroke="black" stroke-width="3" points="931.33,-226.22 935.83,-220.58 942.77,-222.57 938.26,-228.21 931.33,-226.22"/>
</g>
<!-- c20&#45;&gt;n9 -->
<g id="edge36" class="edge">
<title>c20:e&#45;&gt;n9:w</title>
<path fill="none" stroke="black" stroke-width="3" d="M620.09,-156.25C631.47,-156.25 636.78,-156.12 644.64,-156.05"/>
<polygon fill="black" stroke="black" stroke-width="3" points="641.57,-159.56 651.55,-156.02 641.53,-152.56 641.57,-159.56"/>
</g>
<!-- c21&#45;&gt;n11 -->
<g id="edge17" class="edge">
<title>c21:e&#45;&gt;n11:w</title>
<path fill="none" stroke="black" stroke-width="3" d="M1314.59,-168.25C1325.97,-168.25 1331.28,-168.12 1339.15,-168.05"/>
<polygon fill="black" stroke="black" stroke-width="3" points="1336.07,-171.56 1346.05,-168.02 1336.04,-164.56 1336.07,-171.56"/>
</g>
<!-- x2&#45;&gt;c21 -->
<g id="edge3" class="edge">
<title>x2:e&#45;&gt;c21:w</title>
<path fill="none" stroke="black" stroke-width="3" d="M1194.39,-241.27C1205,-229.14 1196.17,-197.02 1206.83,-184.94"/>
<polygon fill="none" stroke="black" stroke-width="3" points="1196.24,-240.53 1192.16,-246.47 1185.1,-244.99 1189.18,-239.05 1196.24,-240.53"/>
<polygon fill="none" stroke="black" stroke-width="3" points="1204.93,-185.69 1209.03,-179.76 1216.08,-181.25 1211.99,-187.19 1204.93,-185.69"/>
</g>
<!-- c22&#45;&gt;c20 -->
<g id="edge24" class="edge">
<title>c22:e&#45;&gt;c20:w</title>
<path fill="none" stroke="black" stroke-width="3" d="M488.09,-181.25C500.45,-181.25 504.87,-174.39 512.89,-170.63"/>
<polygon fill="black" stroke="black" stroke-width="3" points="510.6,-174.7 519.65,-169.2 509.14,-167.86 510.6,-174.7"/>
</g>
<!-- c23&#45;&gt;c22 -->
<g id="edge25" class="edge">
<title>c23:e&#45;&gt;c22:w</title>
<path fill="none" stroke="black" stroke-width="3" d="M366.59,-219.25C381.7,-219.25 383.21,-204.01 391.94,-196.87"/>
<polygon fill="black" stroke="black" stroke-width="3" points="389.95,-201.24 398.29,-194.71 387.7,-194.61 389.95,-201.24"/>
</g>
<!-- c25 -->
<g id="node20" class="node">
<title>c25</title>
<polygon fill="none" stroke="black" points="1626.09,-119.5 1626.09,-168.5 1719.09,-168.5 1719.09,-119.5 1626.09,-119.5"/>
<text text-anchor="middle" x="1638.97" y="-151.2" font-family="Times,serif" font-size="14.00">A</text>
<polyline fill="none" stroke="black" points="1626.09,-144 1651.84,-144"/>
<text text-anchor="middle" x="1638.97" y="-126.7" font-family="Times,serif" font-size="14.00">B</text>
<polyline fill="none" stroke="black" points="1651.84,-119.5 1651.84,-168.5"/>
<text text-anchor="middle" x="1672.59" y="-147.2" font-family="Times,serif" font-size="14.00">$12</text>
<text text-anchor="middle" x="1672.59" y="-130.7" font-family="Times,serif" font-size="14.00">$sub</text>
<polyline fill="none" stroke="black" points="1693.34,-119.5 1693.34,-168.5"/>
<text text-anchor="middle" x="1706.22" y="-139.2" font-family="Times,serif" font-size="14.00">Y</text>
</g>
<!-- c24&#45;&gt;c25 -->
<g id="edge23" class="edge">
<title>c24:e&#45;&gt;c25:w</title>
<path fill="none" stroke="black" stroke-width="3" d="M1590.09,-180.25C1604.67,-180.25 1606.78,-166.47 1615.32,-159.79"/>
<polygon fill="black" stroke="black" stroke-width="3" points="1613.37,-164.12 1621.78,-157.67 1611.19,-157.47 1613.37,-164.12"/>
</g>
<!-- x3&#45;&gt;c24 -->
<g id="edge4" class="edge">
<title>x3:e&#45;&gt;c24:w</title>
<path fill="none" stroke="black" stroke-width="3" d="M907.92,-448.96C1001.06,-448.33 1028.95,-441 1128.22,-441 1128.22,-441 1128.22,-441 1267.59,-441 1413.61,-441 1350.66,-206.61 1484.43,-192.88"/>
<polygon fill="none" stroke="black" stroke-width="3" points="909.67,-448.95 903.68,-452.97 897.67,-448.99 903.66,-444.97 909.67,-448.95"/>
<polygon fill="none" stroke="black" stroke-width="3" points="1482.41,-192.98 1488.2,-188.69 1494.39,-192.38 1488.6,-196.68 1482.41,-192.98"/>
</g>
<!-- c25&#45;&gt;n12 -->
<g id="edge19" class="edge">
<title>c25:e&#45;&gt;n12:w</title>
<path fill="none" stroke="black" stroke-width="3" d="M1719.09,-144.25C1730.47,-144.25 1735.78,-144.12 1743.65,-144.05"/>
<polygon fill="black" stroke="black" stroke-width="3" points="1740.57,-147.56 1750.55,-144.02 1740.54,-140.56 1740.57,-147.56"/>
</g>
<!-- x4&#45;&gt;c25 -->
<g id="edge5" class="edge">
<title>x4:e&#45;&gt;c25:w</title>
<path fill="none" stroke="black" stroke-width="3" d="M1174.49,-43.12C1369.35,-46.61 1418.2,-128.13 1613.04,-131.63"/>
<polygon fill="none" stroke="black" stroke-width="3" points="1176.17,-43.13 1170.14,-47.08 1164.17,-43.02 1170.21,-39.08 1176.17,-43.13"/>
<polygon fill="none" stroke="black" stroke-width="3" points="1611.39,-131.62 1617.42,-127.67 1623.39,-131.73 1617.35,-135.67 1611.39,-131.62"/>
</g>
<!-- x5&#45;&gt;n8 -->
<g id="edge35" class="edge">
<title>x5:e&#45;&gt;n8:w</title>
<path fill="none" stroke="black" stroke-width="3" d="M1964.09,-156C1975.47,-156 1980.78,-156 1988.65,-156"/>
<polygon fill="black" stroke="black" stroke-width="3" points="1985.55,-159.5 1995.55,-156 1985.55,-152.5 1985.55,-159.5"/>
</g>
<!-- x7 -->
<g id="node24" class="node">
<title>x7</title>
<path fill="none" stroke="black" d="M966.59,-312C966.59,-312 1018.59,-312 1018.59,-312 1024.59,-312 1030.59,-318 1030.59,-324 1030.59,-324 1030.59,-336 1030.59,-336 1030.59,-342 1024.59,-348 1018.59,-348 1018.59,-348 966.59,-348 966.59,-348 960.59,-348 954.59,-342 954.59,-336 954.59,-336 954.59,-324 954.59,-324 954.59,-318 960.59,-312 966.59,-312"/>
<text text-anchor="middle" x="992.59" y="-325.2" font-family="Times,serif" font-size="14.00">24:0 &#45; 29:5</text>
</g>
<!-- x6&#45;&gt;x7 -->
<g id="edge6" class="edge">
<title>x6:e&#45;&gt;x7:w</title>
<path fill="none" stroke="black" stroke-width="3" d="M921.95,-313.8C929.28,-317.44 933.82,-323.73 941.21,-327.31"/>
<polygon fill="none" stroke="black" stroke-width="3" points="923.7,-314.19 916.97,-316.79 911.98,-311.59 918.71,-308.99 923.7,-314.19"/>
<polygon fill="none" stroke="black" stroke-width="3" points="939.22,-326.88 945.94,-324.24 950.95,-329.43 944.24,-332.06 939.22,-326.88"/>
</g>
<!-- x7&#45;&gt;n10 -->
<g id="edge10" class="edge">
<title>x7:e&#45;&gt;n10:w</title>
<path fill="none" stroke="black" stroke-width="3" d="M1031.59,-330.25C1039.72,-330.25 1036.19,-342.62 1030.59,-348.5 989.92,-391.22 825.5,-372.94 766.59,-376 716.94,-378.58 690.84,-410.17 654.71,-376 652.71,-374.11 651.02,-371.39 649.99,-368.64"/>
<polygon fill="black" stroke="black" stroke-width="3" points="652.22,-372.88 652.21,-362.29 645.61,-370.57 652.22,-372.88"/>
</g>
</g>
</svg>
