<?xml version="1.0" encoding="UTF-8" standalone="no"?>
<!DOCTYPE svg PUBLIC "-//W3C//DTD SVG 1.1//EN"
 "http://www.w3.org/Graphics/SVG/1.1/DTD/svg11.dtd">
<!-- Generated by graphviz version 12.2.1 (20241206.2353)
 -->
<!-- Title: top Pages: 1 -->
<svg width="368pt" height="88pt"
 viewBox="0.00 0.00 368.15 87.50" xmlns="http://www.w3.org/2000/svg" xmlns:xlink="http://www.w3.org/1999/xlink">
<g id="graph0" class="graph" transform="scale(1 1) rotate(0) translate(4 83.5)">
<title>top</title>
<polygon fill="white" stroke="none" points="-4,4 -4,-83.5 364.15,-83.5 364.15,4 -4,4"/>
<text text-anchor="middle" x="180.08" y="-7.2" font-family="Times,serif" font-size="14.00">top</text>
<!-- n1 -->
<g id="node1" class="node">
<title>n1</title>
<polygon fill="none" stroke="black" points="107.84,-35.04 107.84,-49.96 76.26,-60.5 31.59,-60.5 0,-49.96 0,-35.04 31.59,-24.5 76.26,-24.5 107.84,-35.04"/>
<text text-anchor="middle" x="53.92" y="-37.45" font-family="Times,serif" font-size="14.00">input_data</text>
</g>
<!-- x0 -->
<g id="node3" class="node">
<title>x0</title>
<path fill="none" stroke="black" d="M155.84,-30C155.84,-30 194.34,-30 194.34,-30 200.34,-30 206.34,-36 206.34,-42 206.34,-42 206.34,-67 206.34,-67 206.34,-73 200.34,-79 194.34,-79 194.34,-79 155.84,-79 155.84,-79 149.84,-79 143.84,-73 143.84,-67 143.84,-67 143.84,-42 143.84,-42 143.84,-36 149.84,-30 155.84,-30"/>
<text text-anchor="middle" x="175.09" y="-61.7" font-family="Times,serif" font-size="14.00">0 &#45;&gt; 9:5</text>
<polyline fill="none" stroke="black" points="143.84,-54.5 206.34,-54.5"/>
<text text-anchor="middle" x="175.09" y="-37.2" font-family="Times,serif" font-size="14.00">4:0 &#45; 4:0</text>
</g>
<!-- n1&#45;&gt;x0 -->
<g id="edge1" class="edge">
<title>n1:e&#45;&gt;x0:w</title>
<path fill="none" stroke="black" stroke-width="3" d="M107.84,-42.5C119.22,-42.5 124.53,-42.37 132.39,-42.3"/>
<polygon fill="black" stroke="black" stroke-width="3" points="129.32,-45.81 139.3,-42.27 129.28,-38.81 129.32,-45.81"/>
</g>
<!-- n2 -->
<g id="node2" class="node">
<title>n2</title>
<polygon fill="none" stroke="black" points="360.15,-47.04 360.15,-61.96 325.65,-72.5 276.85,-72.5 242.34,-61.96 242.34,-47.04 276.85,-36.5 325.65,-36.5 360.15,-47.04"/>
<text text-anchor="middle" x="301.25" y="-49.45" font-family="Times,serif" font-size="14.00">output_data</text>
</g>
<!-- x0&#45;&gt;n2 -->
<g id="edge2" class="edge">
<title>x0:e&#45;&gt;n2:w</title>
<path fill="none" stroke="black" stroke-width="3" d="M206.34,-54.5C217.72,-54.5 223.03,-54.5 230.89,-54.5"/>
<polygon fill="black" stroke="black" stroke-width="3" points="227.8,-58 237.8,-54.5 227.8,-51 227.8,-58"/>
</g>
</g>
</svg>
