<?xml version="1.0" encoding="UTF-8" standalone="no"?>
<!DOCTYPE svg PUBLIC "-//W3C//DTD SVG 1.1//EN"
 "http://www.w3.org/Graphics/SVG/1.1/DTD/svg11.dtd">
<!-- Generated by graphviz version 12.2.1 (20241206.2353)
 -->
<!-- Title: top Pages: 1 -->
<svg width="2405pt" height="472pt"
 viewBox="0.00 0.00 2404.68 472.00" xmlns="http://www.w3.org/2000/svg" xmlns:xlink="http://www.w3.org/1999/xlink">
<g id="graph0" class="graph" transform="scale(1 1) rotate(0) translate(4 468)">
<title>top</title>
<polygon fill="white" stroke="none" points="-4,4 -4,-468 2400.68,-468 2400.68,4 -4,4"/>
<text text-anchor="middle" x="1198.34" y="-7.2" font-family="Times,serif" font-size="14.00">top</text>
<!-- n10 -->
<g id="node1" class="node">
<title>n10</title>
<polygon fill="none" stroke="black" points="107.84,-245.54 107.84,-260.46 76.26,-271 31.59,-271 0,-260.46 0,-245.54 31.59,-235 76.26,-235 107.84,-245.54"/>
<text text-anchor="middle" x="53.92" y="-247.95" font-family="Times,serif" font-size="14.00">input_data</text>
</g>
<!-- c17 -->
<g id="node5" class="node">
<title>c17</title>
<polygon fill="none" stroke="black" points="143.84,-414.5 143.84,-463.5 237.59,-463.5 237.59,-414.5 143.84,-414.5"/>
<text text-anchor="middle" x="156.72" y="-446.2" font-family="Times,serif" font-size="14.00">A</text>
<polyline fill="none" stroke="black" points="143.84,-439 169.59,-439"/>
<text text-anchor="middle" x="156.72" y="-421.7" font-family="Times,serif" font-size="14.00">B</text>
<polyline fill="none" stroke="black" points="169.59,-414.5 169.59,-463.5"/>
<text text-anchor="middle" x="190.72" y="-442.2" font-family="Times,serif" font-size="14.00">$1</text>
<text text-anchor="middle" x="190.72" y="-425.7" font-family="Times,serif" font-size="14.00">$add</text>
<polyline fill="none" stroke="black" points="211.84,-414.5 211.84,-463.5"/>
<text text-anchor="middle" x="224.72" y="-434.2" font-family="Times,serif" font-size="14.00">Y</text>
</g>
<!-- n10&#45;&gt;c17 -->
<g id="edge4" class="edge">
<title>n10:e&#45;&gt;c17:w</title>
<path fill="none" stroke="black" stroke-width="3" d="M107.84,-253C193.2,-253 67.19,-433.1 132.73,-449.98"/>
<polygon fill="black" stroke="black" stroke-width="3" points="129,-453.08 139.33,-450.74 129.79,-446.13 129,-453.08"/>
</g>
<!-- n10&#45;&gt;c17 -->
<g id="edge5" class="edge">
<title>n10:e&#45;&gt;c17:w</title>
<path fill="none" stroke="black" stroke-width="3" d="M107.84,-253C182.39,-253 77.69,-408.27 132.64,-425.25"/>
<polygon fill="black" stroke="black" stroke-width="3" points="128.96,-428.29 139.34,-426.15 129.89,-421.35 128.96,-428.29"/>
</g>
<!-- c18 -->
<g id="node6" class="node">
<title>c18</title>
<polygon fill="none" stroke="black" points="1283.09,-72.5 1283.09,-121.5 1376.84,-121.5 1376.84,-72.5 1283.09,-72.5"/>
<text text-anchor="middle" x="1295.97" y="-104.2" font-family="Times,serif" font-size="14.00">A</text>
<polyline fill="none" stroke="black" points="1283.09,-97 1308.84,-97"/>
<text text-anchor="middle" x="1295.97" y="-79.7" font-family="Times,serif" font-size="14.00">B</text>
<polyline fill="none" stroke="black" points="1308.84,-72.5 1308.84,-121.5"/>
<text text-anchor="middle" x="1329.97" y="-100.2" font-family="Times,serif" font-size="14.00">$10</text>
<text text-anchor="middle" x="1329.97" y="-83.7" font-family="Times,serif" font-size="14.00">$add</text>
<polyline fill="none" stroke="black" points="1351.09,-72.5 1351.09,-121.5"/>
<text text-anchor="middle" x="1363.97" y="-92.2" font-family="Times,serif" font-size="14.00">Y</text>
</g>
<!-- n10&#45;&gt;c18 -->
<g id="edge6" class="edge">
<title>n10:e&#45;&gt;c18:w</title>
<path fill="none" stroke="black" stroke-width="3" d="M107.84,-253C171.66,-253 97.19,-157.54 143.84,-114 200.53,-61.1 237.8,-82 315.34,-82 315.34,-82 315.34,-82 1069.22,-82 1160.38,-82 1185.96,-84.53 1271.74,-84.74"/>
<polygon fill="black" stroke="black" stroke-width="3" points="1268.55,-88.23 1278.55,-84.74 1268.55,-81.23 1268.55,-88.23"/>
</g>
<!-- c19 -->
<g id="node7" class="node">
<title>c19</title>
<polygon fill="none" stroke="black" points="891.59,-186.5 891.59,-235.5 985.34,-235.5 985.34,-186.5 891.59,-186.5"/>
<text text-anchor="middle" x="904.47" y="-218.2" font-family="Times,serif" font-size="14.00">A</text>
<polyline fill="none" stroke="black" points="891.59,-211 917.34,-211"/>
<text text-anchor="middle" x="904.47" y="-193.7" font-family="Times,serif" font-size="14.00">B</text>
<polyline fill="none" stroke="black" points="917.34,-186.5 917.34,-235.5"/>
<text text-anchor="middle" x="938.47" y="-214.2" font-family="Times,serif" font-size="14.00">$7</text>
<text text-anchor="middle" x="938.47" y="-197.7" font-family="Times,serif" font-size="14.00">$add</text>
<polyline fill="none" stroke="black" points="959.59,-186.5 959.59,-235.5"/>
<text text-anchor="middle" x="972.47" y="-206.2" font-family="Times,serif" font-size="14.00">Y</text>
</g>
<!-- n10&#45;&gt;c19 -->
<g id="edge7" class="edge">
<title>n10:e&#45;&gt;c19:w</title>
<path fill="none" stroke="black" stroke-width="3" d="M107.84,-253C125.35,-253 127.26,-242.61 143.84,-237 218.07,-211.87 236.97,-196 315.34,-196 315.34,-196 315.34,-196 687.09,-196 774.08,-196 798.62,-198.52 880.24,-198.74"/>
<polygon fill="black" stroke="black" stroke-width="3" points="877.05,-202.23 887.05,-198.74 877.05,-195.23 877.05,-202.23"/>
</g>
<!-- c20 -->
<g id="node8" class="node">
<title>c20</title>
<polygon fill="none" stroke="black" points="1021.34,-148.5 1021.34,-197.5 1115.09,-197.5 1115.09,-148.5 1021.34,-148.5"/>
<text text-anchor="middle" x="1034.22" y="-180.2" font-family="Times,serif" font-size="14.00">A</text>
<polyline fill="none" stroke="black" points="1021.34,-173 1047.09,-173"/>
<text text-anchor="middle" x="1034.22" y="-155.7" font-family="Times,serif" font-size="14.00">B</text>
<polyline fill="none" stroke="black" points="1047.09,-148.5 1047.09,-197.5"/>
<text text-anchor="middle" x="1068.22" y="-176.2" font-family="Times,serif" font-size="14.00">$8</text>
<text text-anchor="middle" x="1068.22" y="-159.7" font-family="Times,serif" font-size="14.00">$add</text>
<polyline fill="none" stroke="black" points="1089.34,-148.5 1089.34,-197.5"/>
<text text-anchor="middle" x="1102.22" y="-168.2" font-family="Times,serif" font-size="14.00">Y</text>
</g>
<!-- n10&#45;&gt;c20 -->
<g id="edge8" class="edge">
<title>n10:e&#45;&gt;c20:w</title>
<path fill="none" stroke="black" stroke-width="3" d="M107.84,-253C135.95,-253 120.73,-217 143.84,-201 208.45,-156.28 236.76,-158 315.34,-158 315.34,-158 315.34,-158 813.84,-158 902.2,-158 927.05,-160.52 1010.08,-160.74"/>
<polygon fill="black" stroke="black" stroke-width="3" points="1006.8,-164.23 1016.8,-160.74 1006.8,-157.23 1006.8,-164.23"/>
</g>
<!-- c21 -->
<g id="node9" class="node">
<title>c21</title>
<polygon fill="none" stroke="black" points="638.09,-262.5 638.09,-311.5 734.09,-311.5 734.09,-262.5 638.09,-262.5"/>
<text text-anchor="middle" x="650.97" y="-294.2" font-family="Times,serif" font-size="14.00">A</text>
<polyline fill="none" stroke="black" points="638.09,-287 663.84,-287"/>
<text text-anchor="middle" x="650.97" y="-269.7" font-family="Times,serif" font-size="14.00">B</text>
<polyline fill="none" stroke="black" points="663.84,-262.5 663.84,-311.5"/>
<text text-anchor="middle" x="686.09" y="-290.2" font-family="Times,serif" font-size="14.00">$5</text>
<text text-anchor="middle" x="686.09" y="-273.7" font-family="Times,serif" font-size="14.00">$mul</text>
<polyline fill="none" stroke="black" points="708.34,-262.5 708.34,-311.5"/>
<text text-anchor="middle" x="721.22" y="-282.2" font-family="Times,serif" font-size="14.00">Y</text>
</g>
<!-- n10&#45;&gt;c21 -->
<g id="edge9" class="edge">
<title>n10:e&#45;&gt;c21:w</title>
<path fill="none" stroke="black" stroke-width="3" d="M107.84,-253C200.45,-253 222.73,-272 315.34,-272 315.34,-272 315.34,-272 438.84,-272 523.6,-272 547.5,-274.52 627.03,-274.74"/>
<polygon fill="black" stroke="black" stroke-width="3" points="623.55,-278.23 633.55,-274.74 623.55,-271.23 623.55,-278.23"/>
</g>
<!-- c22 -->
<g id="node10" class="node">
<title>c22</title>
<polygon fill="none" stroke="black" points="1151.09,-110.5 1151.09,-159.5 1247.09,-159.5 1247.09,-110.5 1151.09,-110.5"/>
<text text-anchor="middle" x="1163.97" y="-142.2" font-family="Times,serif" font-size="14.00">A</text>
<polyline fill="none" stroke="black" points="1151.09,-135 1176.84,-135"/>
<text text-anchor="middle" x="1163.97" y="-117.7" font-family="Times,serif" font-size="14.00">B</text>
<polyline fill="none" stroke="black" points="1176.84,-110.5 1176.84,-159.5"/>
<text text-anchor="middle" x="1199.09" y="-138.2" font-family="Times,serif" font-size="14.00">$9</text>
<text text-anchor="middle" x="1199.09" y="-121.7" font-family="Times,serif" font-size="14.00">$mul</text>
<polyline fill="none" stroke="black" points="1221.34,-110.5 1221.34,-159.5"/>
<text text-anchor="middle" x="1234.22" y="-130.2" font-family="Times,serif" font-size="14.00">Y</text>
</g>
<!-- n10&#45;&gt;c22 -->
<g id="edge10" class="edge">
<title>n10:e&#45;&gt;c22:w</title>
<path fill="none" stroke="black" stroke-width="3" d="M107.84,-253C153.41,-253 109.35,-186.78 143.84,-157 202.86,-106.04 237.36,-120 315.34,-120 315.34,-120 315.34,-120 939.47,-120 1029.58,-120 1054.93,-122.52 1139.6,-122.74"/>
<polygon fill="black" stroke="black" stroke-width="3" points="1136.55,-126.23 1146.55,-122.74 1136.55,-119.23 1136.55,-126.23"/>
</g>
<!-- c23 -->
<g id="node11" class="node">
<title>c23</title>
<polygon fill="none" stroke="black" points="273.59,-376.5 273.59,-425.5 359.09,-425.5 359.09,-376.5 273.59,-376.5"/>
<text text-anchor="middle" x="286.47" y="-408.2" font-family="Times,serif" font-size="14.00">A</text>
<polyline fill="none" stroke="black" points="273.59,-401 299.34,-401"/>
<text text-anchor="middle" x="286.47" y="-383.7" font-family="Times,serif" font-size="14.00">B</text>
<polyline fill="none" stroke="black" points="299.34,-376.5 299.34,-425.5"/>
<text text-anchor="middle" x="316.34" y="-404.2" font-family="Times,serif" font-size="14.00">$2</text>
<text text-anchor="middle" x="316.34" y="-387.7" font-family="Times,serif" font-size="14.00">$or</text>
<polyline fill="none" stroke="black" points="333.34,-376.5 333.34,-425.5"/>
<text text-anchor="middle" x="346.22" y="-396.2" font-family="Times,serif" font-size="14.00">Y</text>
</g>
<!-- n10&#45;&gt;c23 -->
<g id="edge11" class="edge">
<title>n10:e&#45;&gt;c23:w</title>
<path fill="none" stroke="black" stroke-width="3" d="M107.84,-253C158.86,-253 105.74,-328.07 143.84,-362 184.89,-398.56 211.06,-390.17 262.27,-388.9"/>
<polygon fill="black" stroke="black" stroke-width="3" points="259.1,-392.44 269.05,-388.81 259.01,-385.44 259.1,-392.44"/>
</g>
<!-- c24 -->
<g id="node12" class="node">
<title>c24</title>
<polygon fill="none" stroke="black" points="395.09,-338.5 395.09,-387.5 480.59,-387.5 480.59,-338.5 395.09,-338.5"/>
<text text-anchor="middle" x="407.97" y="-370.2" font-family="Times,serif" font-size="14.00">A</text>
<polyline fill="none" stroke="black" points="395.09,-363 420.84,-363"/>
<text text-anchor="middle" x="407.97" y="-345.7" font-family="Times,serif" font-size="14.00">B</text>
<polyline fill="none" stroke="black" points="420.84,-338.5 420.84,-387.5"/>
<text text-anchor="middle" x="437.84" y="-366.2" font-family="Times,serif" font-size="14.00">$3</text>
<text text-anchor="middle" x="437.84" y="-349.7" font-family="Times,serif" font-size="14.00">$or</text>
<polyline fill="none" stroke="black" points="454.84,-338.5 454.84,-387.5"/>
<text text-anchor="middle" x="467.72" y="-358.2" font-family="Times,serif" font-size="14.00">Y</text>
</g>
<!-- n10&#45;&gt;c24 -->
<g id="edge12" class="edge">
<title>n10:e&#45;&gt;c24:w</title>
<path fill="none" stroke="black" stroke-width="3" d="M107.84,-253C143.22,-253 114.72,-303.91 143.84,-324 233.12,-385.58 279.56,-353.16 383.8,-350.87"/>
<polygon fill="black" stroke="black" stroke-width="3" points="380.59,-354.41 390.55,-350.8 380.51,-347.41 380.59,-354.41"/>
</g>
<!-- c25 -->
<g id="node13" class="node">
<title>c25</title>
<polygon fill="none" stroke="black" points="516.59,-300.5 516.59,-349.5 602.09,-349.5 602.09,-300.5 516.59,-300.5"/>
<text text-anchor="middle" x="529.47" y="-332.2" font-family="Times,serif" font-size="14.00">A</text>
<polyline fill="none" stroke="black" points="516.59,-325 542.34,-325"/>
<text text-anchor="middle" x="529.47" y="-307.7" font-family="Times,serif" font-size="14.00">B</text>
<polyline fill="none" stroke="black" points="542.34,-300.5 542.34,-349.5"/>
<text text-anchor="middle" x="559.34" y="-328.2" font-family="Times,serif" font-size="14.00">$4</text>
<text text-anchor="middle" x="559.34" y="-311.7" font-family="Times,serif" font-size="14.00">$or</text>
<polyline fill="none" stroke="black" points="576.34,-300.5 576.34,-349.5"/>
<text text-anchor="middle" x="589.22" y="-320.2" font-family="Times,serif" font-size="14.00">Y</text>
</g>
<!-- n10&#45;&gt;c25 -->
<g id="edge13" class="edge">
<title>n10:e&#45;&gt;c25:w</title>
<path fill="none" stroke="black" stroke-width="3" d="M107.84,-253C129.55,-253 123.91,-277.41 143.84,-286 292.8,-350.18 347.91,-314.52 505.09,-312.81"/>
<polygon fill="black" stroke="black" stroke-width="3" points="502.07,-316.33 512.05,-312.77 502.03,-309.33 502.07,-316.33"/>
</g>
<!-- c26 -->
<g id="node14" class="node">
<title>c26</title>
<polygon fill="none" stroke="black" points="770.09,-224.5 770.09,-273.5 855.59,-273.5 855.59,-224.5 770.09,-224.5"/>
<text text-anchor="middle" x="782.97" y="-256.2" font-family="Times,serif" font-size="14.00">A</text>
<polyline fill="none" stroke="black" points="770.09,-249 795.84,-249"/>
<text text-anchor="middle" x="782.97" y="-231.7" font-family="Times,serif" font-size="14.00">B</text>
<polyline fill="none" stroke="black" points="795.84,-224.5 795.84,-273.5"/>
<text text-anchor="middle" x="812.84" y="-252.2" font-family="Times,serif" font-size="14.00">$6</text>
<text text-anchor="middle" x="812.84" y="-235.7" font-family="Times,serif" font-size="14.00">$or</text>
<polyline fill="none" stroke="black" points="829.84,-224.5 829.84,-273.5"/>
<text text-anchor="middle" x="842.72" y="-244.2" font-family="Times,serif" font-size="14.00">Y</text>
</g>
<!-- n10&#45;&gt;c26 -->
<g id="edge14" class="edge">
<title>n10:e&#45;&gt;c26:w</title>
<path fill="none" stroke="black" stroke-width="3" d="M107.84,-253C119.42,-253 303.76,-234 315.34,-234 315.34,-234 315.34,-234 560.34,-234 649.66,-234 674.78,-236.52 758.71,-236.74"/>
<polygon fill="black" stroke="black" stroke-width="3" points="755.55,-240.23 765.55,-236.74 755.55,-233.23 755.55,-240.23"/>
</g>
<!-- c27 -->
<g id="node15" class="node">
<title>c27</title>
<polygon fill="none" stroke="black" points="1559.34,-42.5 1559.34,-91.5 1647.09,-91.5 1647.09,-42.5 1559.34,-42.5"/>
<text text-anchor="middle" x="1572.22" y="-74.2" font-family="Times,serif" font-size="14.00">A</text>
<polyline fill="none" stroke="black" points="1559.34,-67 1585.09,-67"/>
<text text-anchor="middle" x="1572.22" y="-49.7" font-family="Times,serif" font-size="14.00">B</text>
<polyline fill="none" stroke="black" points="1585.09,-42.5 1585.09,-91.5"/>
<text text-anchor="middle" x="1603.22" y="-70.2" font-family="Times,serif" font-size="14.00">$22</text>
<text text-anchor="middle" x="1603.22" y="-53.7" font-family="Times,serif" font-size="14.00">$or</text>
<polyline fill="none" stroke="black" points="1621.34,-42.5 1621.34,-91.5"/>
<text text-anchor="middle" x="1634.22" y="-62.2" font-family="Times,serif" font-size="14.00">Y</text>
</g>
<!-- n10&#45;&gt;c27 -->
<g id="edge15" class="edge">
<title>n10:e&#45;&gt;c27:w</title>
<path fill="none" stroke="black" stroke-width="3" d="M107.84,-253C188.99,-253 85.74,-130.65 143.84,-74 199.24,-19.98 237.96,-44 315.34,-44 315.34,-44 315.34,-44 1330.97,-44 1428.71,-44 1455.7,-53.95 1548.06,-54.7"/>
<polygon fill="black" stroke="black" stroke-width="3" points="1544.79,-58.19 1554.8,-54.73 1544.82,-51.19 1544.79,-58.19"/>
</g>
<!-- n11 -->
<g id="node2" class="node">
<title>n11</title>
<polygon fill="none" stroke="black" points="2176.41,-59.54 2176.41,-74.46 2141.9,-85 2093.1,-85 2058.59,-74.46 2058.59,-59.54 2093.1,-49 2141.9,-49 2176.41,-59.54"/>
<text text-anchor="middle" x="2117.5" y="-61.95" font-family="Times,serif" font-size="14.00">output_data</text>
</g>
<!-- x1 -->
<g id="node18" class="node">
<title>x1</title>
<path fill="none" stroke="black" d="M2224.41,-25C2224.41,-25 2280.16,-25 2280.16,-25 2286.16,-25 2292.16,-31 2292.16,-37 2292.16,-37 2292.16,-49 2292.16,-49 2292.16,-55 2286.16,-61 2280.16,-61 2280.16,-61 2224.41,-61 2224.41,-61 2218.41,-61 2212.41,-55 2212.41,-49 2212.41,-49 2212.41,-37 2212.41,-37 2212.41,-31 2218.41,-25 2224.41,-25"/>
<text text-anchor="middle" x="2252.28" y="-38.2" font-family="Times,serif" font-size="14.00">4x 9:9 &#45; 3:0</text>
</g>
<!-- n11&#45;&gt;x1 -->
<g id="edge19" class="edge">
<title>n11:e&#45;&gt;x1:w</title>
<path fill="none" stroke="black" stroke-width="3" d="M2176.41,-67C2190.93,-67 2193.11,-53.36 2201.65,-46.75"/>
<polygon fill="black" stroke="black" stroke-width="3" points="2199.66,-51.08 2208.09,-44.66 2197.5,-44.43 2199.66,-51.08"/>
</g>
<!-- n12 -->
<g id="node3" class="node">
<title>n12</title>
<polygon fill="none" stroke="black" points="1468.09,-111 1412.84,-93 1468.09,-75 1523.34,-93 1468.09,-111"/>
<text text-anchor="middle" x="1468.09" y="-87.95" font-family="Times,serif" font-size="14.00">temp_0</text>
</g>
<!-- n12&#45;&gt;c27 -->
<g id="edge21" class="edge">
<title>n12:e&#45;&gt;c27:w</title>
<path fill="none" stroke="black" stroke-width="3" d="M1523.34,-93C1535.79,-93 1540.11,-85.74 1548.11,-81.77"/>
<polygon fill="black" stroke="black" stroke-width="3" points="1545.92,-85.85 1554.91,-80.25 1544.39,-79.02 1545.92,-85.85"/>
</g>
<!-- n13 -->
<g id="node4" class="node">
<title>n13</title>
<polygon fill="none" stroke="black" points="1738.34,-85 1683.09,-67 1738.34,-49 1793.59,-67 1738.34,-85"/>
<text text-anchor="middle" x="1738.34" y="-61.95" font-family="Times,serif" font-size="14.00">temp_2</text>
</g>
<!-- c28 -->
<g id="node16" class="node">
<title>c28</title>
<polygon fill="none" stroke="black" points="1829.59,-42.5 1829.59,-91.5 1924.09,-91.5 1924.09,-42.5 1829.59,-42.5"/>
<text text-anchor="middle" x="1842.47" y="-74.2" font-family="Times,serif" font-size="14.00">A</text>
<polyline fill="none" stroke="black" points="1829.59,-67 1855.34,-67"/>
<text text-anchor="middle" x="1842.47" y="-49.7" font-family="Times,serif" font-size="14.00">B</text>
<polyline fill="none" stroke="black" points="1855.34,-42.5 1855.34,-91.5"/>
<text text-anchor="middle" x="1876.84" y="-70.2" font-family="Times,serif" font-size="14.00">$119</text>
<text text-anchor="middle" x="1876.84" y="-53.7" font-family="Times,serif" font-size="14.00">$sub</text>
<polyline fill="none" stroke="black" points="1898.34,-42.5 1898.34,-91.5"/>
<text text-anchor="middle" x="1911.22" y="-62.2" font-family="Times,serif" font-size="14.00">Y</text>
</g>
<!-- n13&#45;&gt;c28 -->
<g id="edge23" class="edge">
<title>n13:e&#45;&gt;c28:w</title>
<path fill="none" stroke="black" stroke-width="3" d="M1793.59,-67C1805.87,-67 1810.39,-73.47 1818.43,-77"/>
<polygon fill="black" stroke="black" stroke-width="3" points="1814.65,-79.81 1825.14,-78.35 1816.03,-72.95 1814.65,-79.81"/>
</g>
<!-- n13&#45;&gt;c28 -->
<g id="edge24" class="edge">
<title>n13:e&#45;&gt;c28:w</title>
<path fill="none" stroke="black" stroke-width="3" d="M1793.59,-67C1805.87,-67 1810.39,-60.53 1818.43,-57"/>
<polygon fill="black" stroke="black" stroke-width="3" points="1816.03,-61.05 1825.14,-55.65 1814.65,-54.19 1816.03,-61.05"/>
</g>
<!-- c17&#45;&gt;c23 -->
<g id="edge3" class="edge">
<title>c17:e&#45;&gt;c23:w</title>
<path fill="none" stroke="black" stroke-width="3" d="M237.59,-439.25C252.7,-439.25 254.21,-424.01 262.94,-416.87"/>
<polygon fill="black" stroke="black" stroke-width="3" points="260.95,-421.24 269.29,-414.71 258.7,-414.61 260.95,-421.24"/>
</g>
<!-- c18&#45;&gt;n12 -->
<g id="edge20" class="edge">
<title>c18:e&#45;&gt;n12:w</title>
<path fill="none" stroke="black" stroke-width="3" d="M1376.84,-97.25C1388.29,-97.25 1393.52,-95.1 1401.37,-93.86"/>
<polygon fill="black" stroke="black" stroke-width="3" points="1398.6,-97.58 1408.31,-93.34 1398.08,-90.6 1398.6,-97.58"/>
</g>
<!-- c19&#45;&gt;c20 -->
<g id="edge25" class="edge">
<title>c19:e&#45;&gt;c20:w</title>
<path fill="none" stroke="black" stroke-width="3" d="M985.34,-211.25C1000.45,-211.25 1001.96,-196.01 1010.69,-188.87"/>
<polygon fill="black" stroke="black" stroke-width="3" points="1008.7,-193.24 1017.04,-186.71 1006.45,-186.61 1008.7,-193.24"/>
</g>
<!-- c20&#45;&gt;c22 -->
<g id="edge26" class="edge">
<title>c20:e&#45;&gt;c22:w</title>
<path fill="none" stroke="black" stroke-width="3" d="M1115.09,-173.25C1130.2,-173.25 1131.71,-158.01 1140.44,-150.87"/>
<polygon fill="black" stroke="black" stroke-width="3" points="1138.45,-155.24 1146.79,-148.71 1136.2,-148.61 1138.45,-155.24"/>
</g>
<!-- c21&#45;&gt;c26 -->
<g id="edge27" class="edge">
<title>c21:e&#45;&gt;c26:w</title>
<path fill="none" stroke="black" stroke-width="3" d="M734.09,-287.25C749.2,-287.25 750.71,-272.01 759.44,-264.87"/>
<polygon fill="black" stroke="black" stroke-width="3" points="757.45,-269.24 765.79,-262.71 755.2,-262.61 757.45,-269.24"/>
</g>
<!-- c22&#45;&gt;c18 -->
<g id="edge28" class="edge">
<title>c22:e&#45;&gt;c18:w</title>
<path fill="none" stroke="black" stroke-width="3" d="M1247.09,-135.25C1262.2,-135.25 1263.71,-120.01 1272.44,-112.87"/>
<polygon fill="black" stroke="black" stroke-width="3" points="1270.45,-117.24 1278.79,-110.71 1268.2,-110.61 1270.45,-117.24"/>
</g>
<!-- c23&#45;&gt;c24 -->
<g id="edge29" class="edge">
<title>c23:e&#45;&gt;c24:w</title>
<path fill="none" stroke="black" stroke-width="3" d="M359.09,-401.25C374.2,-401.25 375.71,-386.01 384.44,-378.87"/>
<polygon fill="black" stroke="black" stroke-width="3" points="382.45,-383.24 390.79,-376.71 380.2,-376.61 382.45,-383.24"/>
</g>
<!-- c24&#45;&gt;c25 -->
<g id="edge30" class="edge">
<title>c24:e&#45;&gt;c25:w</title>
<path fill="none" stroke="black" stroke-width="3" d="M480.59,-363.25C495.7,-363.25 497.21,-348.01 505.94,-340.87"/>
<polygon fill="black" stroke="black" stroke-width="3" points="503.95,-345.24 512.29,-338.71 501.7,-338.61 503.95,-345.24"/>
</g>
<!-- c25&#45;&gt;c21 -->
<g id="edge31" class="edge">
<title>c25:e&#45;&gt;c21:w</title>
<path fill="none" stroke="black" stroke-width="3" d="M602.09,-325.25C617.2,-325.25 618.71,-310.01 627.44,-302.87"/>
<polygon fill="black" stroke="black" stroke-width="3" points="625.45,-307.24 633.79,-300.71 623.2,-300.61 625.45,-307.24"/>
</g>
<!-- c26&#45;&gt;c19 -->
<g id="edge32" class="edge">
<title>c26:e&#45;&gt;c19:w</title>
<path fill="none" stroke="black" stroke-width="3" d="M855.59,-249.25C870.7,-249.25 872.21,-234.01 880.94,-226.87"/>
<polygon fill="black" stroke="black" stroke-width="3" points="878.95,-231.24 887.29,-224.71 876.7,-224.61 878.95,-231.24"/>
</g>
<!-- c27&#45;&gt;n13 -->
<g id="edge22" class="edge">
<title>c27:e&#45;&gt;n13:w</title>
<path fill="none" stroke="black" stroke-width="3" d="M1647.09,-67.25C1658.47,-67.25 1663.78,-67.12 1671.65,-67.05"/>
<polygon fill="black" stroke="black" stroke-width="3" points="1668.57,-70.56 1678.55,-67.02 1668.54,-63.56 1668.57,-70.56"/>
</g>
<!-- x0 -->
<g id="node17" class="node">
<title>x0</title>
<path fill="none" stroke="black" d="M1972.09,-42.5C1972.09,-42.5 2010.59,-42.5 2010.59,-42.5 2016.59,-42.5 2022.59,-48.5 2022.59,-54.5 2022.59,-54.5 2022.59,-79.5 2022.59,-79.5 2022.59,-85.5 2016.59,-91.5 2010.59,-91.5 2010.59,-91.5 1972.09,-91.5 1972.09,-91.5 1966.09,-91.5 1960.09,-85.5 1960.09,-79.5 1960.09,-79.5 1960.09,-54.5 1960.09,-54.5 1960.09,-48.5 1966.09,-42.5 1972.09,-42.5"/>
<text text-anchor="middle" x="1991.34" y="-74.2" font-family="Times,serif" font-size="14.00">5:5 &#45; 9:9</text>
<polyline fill="none" stroke="black" points="1960.09,-67 2022.59,-67"/>
<text text-anchor="middle" x="1991.34" y="-49.7" font-family="Times,serif" font-size="14.00">4:0 &#45; 4:0</text>
</g>
<!-- c28&#45;&gt;x0 -->
<g id="edge1" class="edge">
<title>c28:e&#45;&gt;x0:w</title>
<path fill="none" stroke="black" stroke-width="3" d="M1936.81,-67.19C1940.41,-67.15 1943.54,-67.1 1947.12,-67.07"/>
<polygon fill="none" stroke="black" stroke-width="3" points="1938.8,-67.18 1932.82,-71.21 1926.8,-67.24 1932.78,-63.21 1938.8,-67.18"/>
<polygon fill="none" stroke="black" stroke-width="3" points="1945.39,-67.07 1951.37,-63.04 1957.39,-67.01 1951.41,-71.04 1945.39,-67.07"/>
</g>
<!-- x0&#45;&gt;n11 -->
<g id="edge16" class="edge">
<title>x0:e&#45;&gt;n11:w</title>
<path fill="none" stroke="black" stroke-width="3" d="M2022.59,-54.75C2034.87,-54.75 2039.39,-61.22 2047.43,-64.75"/>
<polygon fill="black" stroke="black" stroke-width="3" points="2043.65,-67.56 2054.14,-66.1 2045.03,-60.7 2043.65,-67.56"/>
</g>
<!-- x0&#45;&gt;n11 -->
<g id="edge17" class="edge">
<title>x0:e&#45;&gt;n11:w</title>
<path fill="none" stroke="black" d="M2022.59,-79.25C2034.87,-79.25 2039.39,-72.78 2047.43,-69.25"/>
<polygon fill="black" stroke="black" points="2048,-72.7 2057.11,-67.3 2046.62,-65.84 2048,-72.7"/>
</g>
<!-- x2 -->
<g id="node19" class="node">
<title>x2</title>
<path fill="none" stroke="black" d="M2340.16,-48C2340.16,-48 2378.66,-48 2378.66,-48 2384.66,-48 2390.66,-54 2390.66,-60 2390.66,-60 2390.66,-72 2390.66,-72 2390.66,-78 2384.66,-84 2378.66,-84 2378.66,-84 2340.16,-84 2340.16,-84 2334.16,-84 2328.16,-78 2328.16,-72 2328.16,-72 2328.16,-60 2328.16,-60 2328.16,-54 2334.16,-48 2340.16,-48"/>
<text text-anchor="middle" x="2359.41" y="-61.2" font-family="Times,serif" font-size="14.00">3:0 &#45; 8:5</text>
</g>
<!-- x1&#45;&gt;x2 -->
<g id="edge2" class="edge">
<title>x1:e&#45;&gt;x2:w</title>
<path fill="none" stroke="black" stroke-width="3" d="M2304.13,-47.43C2308.74,-51.51 2311.58,-57.51 2316.19,-61.58"/>
<polygon fill="none" stroke="black" stroke-width="3" points="2305.94,-48.11 2298.93,-49.77 2294.69,-43.94 2301.71,-42.27 2305.94,-48.11"/>
<polygon fill="none" stroke="black" stroke-width="3" points="2314.36,-60.9 2321.38,-59.23 2325.62,-65.06 2318.6,-66.73 2314.36,-60.9"/>
</g>
<!-- x2&#45;&gt;n11 -->
<g id="edge18" class="edge">
<title>x2:e&#45;&gt;n11:w</title>
<path fill="none" stroke="black" stroke-width="3" d="M2391.66,-66.25C2399.78,-66.25 2396.55,-78.91 2390.66,-84.5 2321.58,-150.05 2271.63,-84.89 2176.41,-85 2123.93,-85.06 2096.46,-121.06 2058.35,-85 2056.34,-83.11 2054.65,-80.39 2053.62,-77.64"/>
<polygon fill="black" stroke="black" stroke-width="3" points="2055.85,-81.88 2055.85,-71.29 2049.24,-79.57 2055.85,-81.88"/>
</g>
</g>
</svg>
