<?xml version="1.0" encoding="UTF-8" standalone="no"?>
<!DOCTYPE svg PUBLIC "-//W3C//DTD SVG 1.1//EN"
 "http://www.w3.org/Graphics/SVG/1.1/DTD/svg11.dtd">
<!-- Generated by graphviz version 12.2.1 (20241206.2353)
 -->
<!-- Title: top Pages: 1 -->
<svg width="4894pt" height="911pt"
 viewBox="0.00 0.00 4894.17 910.96" xmlns="http://www.w3.org/2000/svg" xmlns:xlink="http://www.w3.org/1999/xlink">
<g id="graph0" class="graph" transform="scale(1 1) rotate(0) translate(4 906.96)">
<title>top</title>
<polygon fill="white" stroke="none" points="-4,4 -4,-906.96 4890.17,-906.96 4890.17,4 -4,4"/>
<text text-anchor="middle" x="2443.08" y="-7.2" font-family="Times,serif" font-size="14.00">top</text>
<!-- n15 -->
<g id="node1" class="node">
<title>n15</title>
<polygon fill="none" stroke="black" points="2987.9,-630.96 2903.7,-612.96 2987.9,-594.96 3072.1,-612.96 2987.9,-630.96"/>
<text text-anchor="middle" x="2987.9" y="-607.91" font-family="Times,serif" font-size="14.00">expr_268110</text>
</g>
<!-- c34 -->
<g id="node25" class="node">
<title>c34</title>
<polygon fill="none" stroke="black" points="4500.48,-566.46 4500.48,-615.46 4594.23,-615.46 4594.23,-566.46 4500.48,-566.46"/>
<text text-anchor="middle" x="4513.35" y="-598.16" font-family="Times,serif" font-size="14.00">A</text>
<polyline fill="none" stroke="black" points="4500.48,-590.96 4526.23,-590.96"/>
<text text-anchor="middle" x="4513.35" y="-573.66" font-family="Times,serif" font-size="14.00">B</text>
<polyline fill="none" stroke="black" points="4526.23,-566.46 4526.23,-615.46"/>
<text text-anchor="middle" x="4547.35" y="-594.16" font-family="Times,serif" font-size="14.00">$23</text>
<text text-anchor="middle" x="4547.35" y="-577.66" font-family="Times,serif" font-size="14.00">$and</text>
<polyline fill="none" stroke="black" points="4568.48,-566.46 4568.48,-615.46"/>
<text text-anchor="middle" x="4581.35" y="-586.16" font-family="Times,serif" font-size="14.00">Y</text>
</g>
<!-- n15&#45;&gt;c34 -->
<g id="edge44" class="edge">
<title>n15:e&#45;&gt;c34:w</title>
<path fill="none" stroke="black" stroke-width="3" d="M3072.1,-612.96C3089.43,-612.96 3091.32,-602.29 3108.1,-597.96 3182.52,-578.76 3203.12,-578.96 3279.98,-578.96 3279.98,-578.96 3279.98,-578.96 4281.23,-578.96 4374.34,-578.96 4400.42,-578.73 4488.17,-578.71"/>
<polygon fill="black" stroke="black" stroke-width="3" points="4484.94,-582.21 4494.94,-578.71 4484.94,-575.21 4484.94,-582.21"/>
</g>
<!-- x21 -->
<g id="node47" class="node">
<title>x21</title>
<path fill="none" stroke="black" d="M3135.35,-236.96C3135.35,-236.96 3173.85,-236.96 3173.85,-236.96 3179.85,-236.96 3185.85,-242.96 3185.85,-248.96 3185.85,-248.96 3185.85,-260.96 3185.85,-260.96 3185.85,-266.96 3179.85,-272.96 3173.85,-272.96 3173.85,-272.96 3135.35,-272.96 3135.35,-272.96 3129.35,-272.96 3123.35,-266.96 3123.35,-260.96 3123.35,-260.96 3123.35,-248.96 3123.35,-248.96 3123.35,-242.96 3129.35,-236.96 3135.35,-236.96"/>
<text text-anchor="middle" x="3154.6" y="-250.16" font-family="Times,serif" font-size="14.00">2:0 &#45; 2:0</text>
</g>
<!-- n15&#45;&gt;x21 -->
<g id="edge47" class="edge">
<title>n15:e&#45;&gt;x21:w</title>
<path fill="none" stroke="black" stroke-width="3" d="M3072.1,-612.96C3148.3,-612.96 3052.78,-290.62 3111.54,-257.88"/>
<polygon fill="black" stroke="black" stroke-width="3" points="3109.08,-262.1 3117.94,-256.3 3107.39,-255.3 3109.08,-262.1"/>
</g>
<!-- c50 -->
<g id="node66" class="node">
<title>c50</title>
<polygon fill="none" stroke="black" points="3108.1,-607.46 3108.1,-656.46 3201.1,-656.46 3201.1,-607.46 3108.1,-607.46"/>
<text text-anchor="middle" x="3120.98" y="-639.16" font-family="Times,serif" font-size="14.00">A</text>
<polyline fill="none" stroke="black" points="3108.1,-631.96 3133.85,-631.96"/>
<text text-anchor="middle" x="3120.98" y="-614.66" font-family="Times,serif" font-size="14.00">B</text>
<polyline fill="none" stroke="black" points="3133.85,-607.46 3133.85,-656.46"/>
<text text-anchor="middle" x="3154.6" y="-635.16" font-family="Times,serif" font-size="14.00">$19</text>
<text text-anchor="middle" x="3154.6" y="-618.66" font-family="Times,serif" font-size="14.00">$sub</text>
<polyline fill="none" stroke="black" points="3175.35,-607.46 3175.35,-656.46"/>
<text text-anchor="middle" x="3188.23" y="-627.16" font-family="Times,serif" font-size="14.00">Y</text>
</g>
<!-- n15&#45;&gt;c50 -->
<g id="edge45" class="edge">
<title>n15:e&#45;&gt;c50:w</title>
<path fill="none" stroke="black" stroke-width="3" d="M3072.1,-612.96C3088.65,-612.96 3088.38,-632.03 3097.58,-640.38"/>
<polygon fill="black" stroke="black" stroke-width="3" points="3093.24,-642.52 3103.83,-642.66 3095.63,-635.95 3093.24,-642.52"/>
</g>
<!-- n15&#45;&gt;c50 -->
<g id="edge46" class="edge">
<title>n15:e&#45;&gt;c50:w</title>
<path fill="none" stroke="black" stroke-width="3" d="M3072.1,-612.96C3083.8,-612.96 3088.87,-616.45 3096.84,-618.41"/>
<polygon fill="black" stroke="black" stroke-width="3" points="3093.25,-621.52 3103.59,-619.19 3094.06,-614.56 3093.25,-621.52"/>
</g>
<!-- n16 -->
<g id="node2" class="node">
<title>n16</title>
<polygon fill="none" stroke="black" points="107.84,-660.5 107.84,-675.42 76.26,-685.96 31.59,-685.96 0,-675.42 0,-660.5 31.59,-649.96 76.26,-649.96 107.84,-660.5"/>
<text text-anchor="middle" x="53.92" y="-662.91" font-family="Times,serif" font-size="14.00">input_data</text>
</g>
<!-- c28 -->
<g id="node11" class="node">
<title>c28</title>
<polygon fill="none" stroke="black" points="143.84,-655.46 143.84,-704.46 237.59,-704.46 237.59,-655.46 143.84,-655.46"/>
<text text-anchor="middle" x="156.72" y="-687.16" font-family="Times,serif" font-size="14.00">A</text>
<polyline fill="none" stroke="black" points="143.84,-679.96 169.59,-679.96"/>
<text text-anchor="middle" x="156.72" y="-662.66" font-family="Times,serif" font-size="14.00">B</text>
<polyline fill="none" stroke="black" points="169.59,-655.46 169.59,-704.46"/>
<text text-anchor="middle" x="190.72" y="-683.16" font-family="Times,serif" font-size="14.00">$1</text>
<text text-anchor="middle" x="190.72" y="-666.66" font-family="Times,serif" font-size="14.00">$add</text>
<polyline fill="none" stroke="black" points="211.84,-655.46 211.84,-704.46"/>
<text text-anchor="middle" x="224.72" y="-675.16" font-family="Times,serif" font-size="14.00">Y</text>
</g>
<!-- n16&#45;&gt;c28 -->
<g id="edge48" class="edge">
<title>n16:e&#45;&gt;c28:w</title>
<path fill="none" stroke="black" stroke-width="3" d="M107.84,-667.96C122.46,-667.96 124.52,-681.89 133.05,-688.63"/>
<polygon fill="black" stroke="black" stroke-width="3" points="128.94,-690.95 139.53,-690.78 131.14,-684.31 128.94,-690.95"/>
</g>
<!-- n16&#45;&gt;c28 -->
<g id="edge49" class="edge">
<title>n16:e&#45;&gt;c28:w</title>
<path fill="none" stroke="black" stroke-width="3" d="M107.84,-667.96C119.22,-667.96 124.53,-667.83 132.39,-667.76"/>
<polygon fill="black" stroke="black" stroke-width="3" points="129.32,-671.27 139.3,-667.73 129.28,-664.27 129.32,-671.27"/>
</g>
<!-- c35 -->
<g id="node27" class="node">
<title>c35</title>
<polygon fill="none" stroke="black" points="1013.84,-463.46 1013.84,-512.46 1107.59,-512.46 1107.59,-463.46 1013.84,-463.46"/>
<text text-anchor="middle" x="1026.72" y="-495.16" font-family="Times,serif" font-size="14.00">A</text>
<polyline fill="none" stroke="black" points="1013.84,-487.96 1039.59,-487.96"/>
<text text-anchor="middle" x="1026.72" y="-470.66" font-family="Times,serif" font-size="14.00">B</text>
<polyline fill="none" stroke="black" points="1039.59,-463.46 1039.59,-512.46"/>
<text text-anchor="middle" x="1060.72" y="-491.16" font-family="Times,serif" font-size="14.00">$46</text>
<text text-anchor="middle" x="1060.72" y="-474.66" font-family="Times,serif" font-size="14.00">$and</text>
<polyline fill="none" stroke="black" points="1081.84,-463.46 1081.84,-512.46"/>
<text text-anchor="middle" x="1094.72" y="-483.16" font-family="Times,serif" font-size="14.00">Y</text>
</g>
<!-- n16&#45;&gt;c35 -->
<g id="edge50" class="edge">
<title>n16:e&#45;&gt;c35:w</title>
<path fill="none" stroke="black" stroke-width="3" d="M107.84,-667.96C133.8,-667.96 121.17,-701.32 143.84,-713.96 210.82,-751.3 238.65,-732.96 315.34,-732.96 315.34,-732.96 315.34,-732.96 807.84,-732.96 883.87,-732.96 922.61,-766.2 977.84,-713.96 1009.83,-683.7 973.17,-530.17 1003.42,-504"/>
<polygon fill="black" stroke="black" stroke-width="3" points="1001.38,-508.47 1009.58,-501.76 998.98,-501.9 1001.38,-508.47"/>
</g>
<!-- c36 -->
<g id="node30" class="node">
<title>c36</title>
<polygon fill="none" stroke="black" points="1014.59,-749.46 1014.59,-798.46 1106.84,-798.46 1106.84,-749.46 1014.59,-749.46"/>
<text text-anchor="middle" x="1027.47" y="-781.16" font-family="Times,serif" font-size="14.00">A</text>
<polyline fill="none" stroke="black" points="1014.59,-773.96 1040.34,-773.96"/>
<text text-anchor="middle" x="1027.47" y="-756.66" font-family="Times,serif" font-size="14.00">B</text>
<polyline fill="none" stroke="black" points="1040.34,-749.46 1040.34,-798.46"/>
<text text-anchor="middle" x="1060.72" y="-777.16" font-family="Times,serif" font-size="14.00">$50</text>
<text text-anchor="middle" x="1060.72" y="-760.66" font-family="Times,serif" font-size="14.00">$xor</text>
<polyline fill="none" stroke="black" points="1081.09,-749.46 1081.09,-798.46"/>
<text text-anchor="middle" x="1093.97" y="-769.16" font-family="Times,serif" font-size="14.00">Y</text>
</g>
<!-- n16&#45;&gt;c36 -->
<g id="edge51" class="edge">
<title>n16:e&#45;&gt;c36:w</title>
<path fill="none" stroke="black" stroke-width="3" d="M107.84,-667.96C146.43,-667.96 119.05,-717.39 143.84,-746.96 203.29,-817.85 222.82,-864.96 315.34,-864.96 315.34,-864.96 315.34,-864.96 807.84,-864.96 887.53,-864.96 905.52,-841.43 977.84,-807.96 990.57,-802.07 993.94,-792.78 1002.72,-788.5"/>
<polygon fill="black" stroke="black" stroke-width="3" points="1000.31,-792.57 1009.39,-787.13 998.89,-785.72 1000.31,-792.57"/>
</g>
<!-- c41 -->
<g id="node44" class="node">
<title>c41</title>
<polygon fill="none" stroke="black" points="273.59,-617.46 273.59,-666.46 359.09,-666.46 359.09,-617.46 273.59,-617.46"/>
<text text-anchor="middle" x="286.47" y="-649.16" font-family="Times,serif" font-size="14.00">A</text>
<polyline fill="none" stroke="black" points="273.59,-641.96 299.34,-641.96"/>
<text text-anchor="middle" x="286.47" y="-624.66" font-family="Times,serif" font-size="14.00">B</text>
<polyline fill="none" stroke="black" points="299.34,-617.46 299.34,-666.46"/>
<text text-anchor="middle" x="316.34" y="-645.16" font-family="Times,serif" font-size="14.00">$2</text>
<text text-anchor="middle" x="316.34" y="-628.66" font-family="Times,serif" font-size="14.00">$or</text>
<polyline fill="none" stroke="black" points="333.34,-617.46 333.34,-666.46"/>
<text text-anchor="middle" x="346.22" y="-637.16" font-family="Times,serif" font-size="14.00">Y</text>
</g>
<!-- n16&#45;&gt;c41 -->
<g id="edge52" class="edge">
<title>n16:e&#45;&gt;c41:w</title>
<path fill="none" stroke="black" stroke-width="3" d="M107.84,-667.96C126.59,-667.96 126.14,-652.15 143.84,-645.96 194.95,-628.08 213,-629.41 262.23,-629.68"/>
<polygon fill="black" stroke="black" stroke-width="3" points="259.04,-633.17 269.05,-629.7 259.06,-626.17 259.04,-633.17"/>
</g>
<!-- c46 -->
<g id="node58" class="node">
<title>c46</title>
<polygon fill="none" stroke="black" points="395.09,-578.46 395.09,-627.46 488.09,-627.46 488.09,-578.46 395.09,-578.46"/>
<text text-anchor="middle" x="407.97" y="-610.16" font-family="Times,serif" font-size="14.00">A</text>
<polyline fill="none" stroke="black" points="395.09,-602.96 420.84,-602.96"/>
<text text-anchor="middle" x="407.97" y="-585.66" font-family="Times,serif" font-size="14.00">B</text>
<polyline fill="none" stroke="black" points="420.84,-578.46 420.84,-627.46"/>
<text text-anchor="middle" x="441.59" y="-606.16" font-family="Times,serif" font-size="14.00">$3</text>
<text text-anchor="middle" x="441.59" y="-589.66" font-family="Times,serif" font-size="14.00">$sub</text>
<polyline fill="none" stroke="black" points="462.34,-578.46 462.34,-627.46"/>
<text text-anchor="middle" x="475.22" y="-598.16" font-family="Times,serif" font-size="14.00">Y</text>
</g>
<!-- n16&#45;&gt;c46 -->
<g id="edge53" class="edge">
<title>n16:e&#45;&gt;c46:w</title>
<path fill="none" stroke="black" stroke-width="3" d="M107.84,-667.96C132.43,-667.96 122.27,-637.76 143.84,-625.96 239.37,-573.67 279.56,-589.5 383.78,-590.65"/>
<polygon fill="black" stroke="black" stroke-width="3" points="380.53,-594.13 390.55,-590.68 380.57,-587.13 380.53,-594.13"/>
</g>
<!-- c47 -->
<g id="node59" class="node">
<title>c47</title>
<polygon fill="none" stroke="black" points="524.09,-537.46 524.09,-586.46 617.09,-586.46 617.09,-537.46 524.09,-537.46"/>
<text text-anchor="middle" x="536.97" y="-569.16" font-family="Times,serif" font-size="14.00">A</text>
<polyline fill="none" stroke="black" points="524.09,-561.96 549.84,-561.96"/>
<text text-anchor="middle" x="536.97" y="-544.66" font-family="Times,serif" font-size="14.00">B</text>
<polyline fill="none" stroke="black" points="549.84,-537.46 549.84,-586.46"/>
<text text-anchor="middle" x="570.59" y="-565.16" font-family="Times,serif" font-size="14.00">$4</text>
<text text-anchor="middle" x="570.59" y="-548.66" font-family="Times,serif" font-size="14.00">$sub</text>
<polyline fill="none" stroke="black" points="591.34,-537.46 591.34,-586.46"/>
<text text-anchor="middle" x="604.22" y="-557.16" font-family="Times,serif" font-size="14.00">Y</text>
</g>
<!-- n16&#45;&gt;c47 -->
<g id="edge54" class="edge">
<title>n16:e&#45;&gt;c47:w</title>
<path fill="none" stroke="black" stroke-width="3" d="M107.84,-667.96C147.24,-667.96 111.9,-610.01 143.84,-586.96 278.45,-489.82 350.98,-547 512.79,-549.62"/>
<polygon fill="black" stroke="black" stroke-width="3" points="509.52,-553.09 519.55,-549.67 509.58,-546.09 509.52,-553.09"/>
</g>
<!-- n17 -->
<g id="node3" class="node">
<title>n17</title>
<polygon fill="none" stroke="black" points="4886.17,-398.5 4886.17,-413.42 4851.66,-423.96 4802.86,-423.96 4768.35,-413.42 4768.35,-398.5 4802.86,-387.96 4851.66,-387.96 4886.17,-398.5"/>
<text text-anchor="middle" x="4827.26" y="-400.91" font-family="Times,serif" font-size="14.00">output_data</text>
</g>
<!-- n18 -->
<g id="node4" class="node">
<title>n18</title>
<polygon fill="none" stroke="black" points="806.84,-498.96 751.59,-480.96 806.84,-462.96 862.09,-480.96 806.84,-498.96"/>
<text text-anchor="middle" x="806.84" y="-475.91" font-family="Times,serif" font-size="14.00">temp_0</text>
</g>
<!-- x0 -->
<g id="node13" class="node">
<title>x0</title>
<path fill="none" stroke="black" d="M910.09,-599.46C910.09,-599.46 965.84,-599.46 965.84,-599.46 971.84,-599.46 977.84,-605.46 977.84,-611.46 977.84,-611.46 977.84,-636.46 977.84,-636.46 977.84,-642.46 971.84,-648.46 965.84,-648.46 965.84,-648.46 910.09,-648.46 910.09,-648.46 904.09,-648.46 898.09,-642.46 898.09,-636.46 898.09,-636.46 898.09,-611.46 898.09,-611.46 898.09,-605.46 904.09,-599.46 910.09,-599.46"/>
<text text-anchor="middle" x="937.97" y="-631.16" font-family="Times,serif" font-size="14.00">3x 5:5 &#45; 5:3</text>
<polyline fill="none" stroke="black" points="898.09,-623.96 977.84,-623.96"/>
<text text-anchor="middle" x="937.97" y="-606.66" font-family="Times,serif" font-size="14.00">2:0 &#45; 2:0</text>
</g>
<!-- n18&#45;&gt;x0 -->
<g id="edge59" class="edge">
<title>n18:e&#45;&gt;x0:w</title>
<path fill="none" stroke="black" stroke-width="3" d="M862.09,-480.96C917.89,-480.96 849.57,-593.02 886.95,-609.66"/>
<polygon fill="black" stroke="black" stroke-width="3" points="883.16,-612.52 893.63,-610.89 884.43,-605.63 883.16,-612.52"/>
</g>
<!-- n18&#45;&gt;x0 -->
<g id="edge60" class="edge">
<title>n18:e&#45;&gt;x0:w</title>
<path fill="none" stroke="black" stroke-width="3" d="M862.09,-480.96C928.5,-480.96 839.78,-617.41 886.79,-634.47"/>
<polygon fill="black" stroke="black" stroke-width="3" points="883.19,-637.45 893.6,-635.52 884.26,-630.53 883.19,-637.45"/>
</g>
<!-- x2 -->
<g id="node16" class="node">
<title>x2</title>
<path fill="none" stroke="black" d="M918.72,-118.96C918.72,-118.96 957.22,-118.96 957.22,-118.96 963.22,-118.96 969.22,-124.96 969.22,-130.96 969.22,-130.96 969.22,-142.96 969.22,-142.96 969.22,-148.96 963.22,-154.96 957.22,-154.96 957.22,-154.96 918.72,-154.96 918.72,-154.96 912.72,-154.96 906.72,-148.96 906.72,-142.96 906.72,-142.96 906.72,-130.96 906.72,-130.96 906.72,-124.96 912.72,-118.96 918.72,-118.96"/>
<text text-anchor="middle" x="937.97" y="-132.16" font-family="Times,serif" font-size="14.00">2:0 &#45; 2:0</text>
</g>
<!-- n18&#45;&gt;x2 -->
<g id="edge68" class="edge">
<title>n18:e&#45;&gt;x2:w</title>
<path fill="none" stroke="black" stroke-width="3" d="M862.09,-480.96C934.88,-480.96 840.23,-173.78 894.7,-140.18"/>
<polygon fill="black" stroke="black" stroke-width="3" points="892.59,-144.38 901.33,-138.39 890.77,-137.62 892.59,-144.38"/>
</g>
<!-- x3 -->
<g id="node17" class="node">
<title>x3</title>
<path fill="none" stroke="black" d="M918.72,-63.96C918.72,-63.96 957.22,-63.96 957.22,-63.96 963.22,-63.96 969.22,-69.96 969.22,-75.96 969.22,-75.96 969.22,-87.96 969.22,-87.96 969.22,-93.96 963.22,-99.96 957.22,-99.96 957.22,-99.96 918.72,-99.96 918.72,-99.96 912.72,-99.96 906.72,-93.96 906.72,-87.96 906.72,-87.96 906.72,-75.96 906.72,-75.96 906.72,-69.96 912.72,-63.96 918.72,-63.96"/>
<text text-anchor="middle" x="937.97" y="-77.16" font-family="Times,serif" font-size="14.00">2:0 &#45; 2:0</text>
</g>
<!-- n18&#45;&gt;x3 -->
<g id="edge72" class="edge">
<title>n18:e&#45;&gt;x3:w</title>
<path fill="none" stroke="black" stroke-width="3" d="M862.09,-480.96C947.05,-480.96 828.71,-118.72 894.61,-84.76"/>
<polygon fill="black" stroke="black" stroke-width="3" points="892.33,-88.87 901.29,-83.22 890.76,-82.05 892.33,-88.87"/>
</g>
<!-- x7 -->
<g id="node23" class="node">
<title>x7</title>
<path fill="none" stroke="black" d="M910.09,-493.46C910.09,-493.46 965.84,-493.46 965.84,-493.46 971.84,-493.46 977.84,-499.46 977.84,-505.46 977.84,-505.46 977.84,-530.46 977.84,-530.46 977.84,-536.46 971.84,-542.46 965.84,-542.46 965.84,-542.46 910.09,-542.46 910.09,-542.46 904.09,-542.46 898.09,-536.46 898.09,-530.46 898.09,-530.46 898.09,-505.46 898.09,-505.46 898.09,-499.46 904.09,-493.46 910.09,-493.46"/>
<text text-anchor="middle" x="937.97" y="-525.16" font-family="Times,serif" font-size="14.00">3x 5:5 &#45; 5:3</text>
<polyline fill="none" stroke="black" points="898.09,-517.96 977.84,-517.96"/>
<text text-anchor="middle" x="937.97" y="-500.66" font-family="Times,serif" font-size="14.00">2:0 &#45; 2:0</text>
</g>
<!-- n18&#45;&gt;x7 -->
<g id="edge74" class="edge">
<title>n18:e&#45;&gt;x7:w</title>
<path fill="none" stroke="black" stroke-width="3" d="M862.09,-480.96C876.81,-480.96 878.74,-495.17 887.27,-502.06"/>
<polygon fill="black" stroke="black" stroke-width="3" points="883.2,-504.38 893.79,-504.26 885.43,-497.74 883.2,-504.38"/>
</g>
<!-- n18&#45;&gt;x7 -->
<g id="edge75" class="edge">
<title>n18:e&#45;&gt;x7:w</title>
<path fill="none" stroke="black" stroke-width="3" d="M862.09,-480.96C884.55,-480.96 875.9,-514.73 887.67,-526.34"/>
<polygon fill="black" stroke="black" stroke-width="3" points="883.24,-528.44 893.83,-528.63 885.68,-521.87 883.24,-528.44"/>
</g>
<!-- x9 -->
<g id="node28" class="node">
<title>x9</title>
<path fill="none" stroke="black" d="M918.72,-437.96C918.72,-437.96 957.22,-437.96 957.22,-437.96 963.22,-437.96 969.22,-443.96 969.22,-449.96 969.22,-449.96 969.22,-461.96 969.22,-461.96 969.22,-467.96 963.22,-473.96 957.22,-473.96 957.22,-473.96 918.72,-473.96 918.72,-473.96 912.72,-473.96 906.72,-467.96 906.72,-461.96 906.72,-461.96 906.72,-449.96 906.72,-449.96 906.72,-443.96 912.72,-437.96 918.72,-437.96"/>
<text text-anchor="middle" x="937.97" y="-451.16" font-family="Times,serif" font-size="14.00">2:0 &#45; 2:0</text>
</g>
<!-- n18&#45;&gt;x9 -->
<g id="edge76" class="edge">
<title>n18:e&#45;&gt;x9:w</title>
<path fill="none" stroke="black" stroke-width="3" d="M862.09,-480.96C879.86,-480.96 882.86,-465.24 894.62,-458.86"/>
<polygon fill="black" stroke="black" stroke-width="3" points="892.39,-462.99 901.3,-457.26 890.76,-456.18 892.39,-462.99"/>
</g>
<!-- x11 -->
<g id="node31" class="node">
<title>x11</title>
<path fill="none" stroke="black" d="M918.72,-761.96C918.72,-761.96 957.22,-761.96 957.22,-761.96 963.22,-761.96 969.22,-767.96 969.22,-773.96 969.22,-773.96 969.22,-785.96 969.22,-785.96 969.22,-791.96 963.22,-797.96 957.22,-797.96 957.22,-797.96 918.72,-797.96 918.72,-797.96 912.72,-797.96 906.72,-791.96 906.72,-785.96 906.72,-785.96 906.72,-773.96 906.72,-773.96 906.72,-767.96 912.72,-761.96 918.72,-761.96"/>
<text text-anchor="middle" x="937.97" y="-775.16" font-family="Times,serif" font-size="14.00">2:0 &#45; 2:0</text>
</g>
<!-- n18&#45;&gt;x11 -->
<g id="edge61" class="edge">
<title>n18:e&#45;&gt;x11:w</title>
<path fill="none" stroke="black" stroke-width="3" d="M862.09,-480.96C925.09,-480.96 849.24,-743.97 894.89,-776.85"/>
<polygon fill="black" stroke="black" stroke-width="3" points="890.79,-779.24 901.38,-778.86 892.87,-772.56 890.79,-779.24"/>
</g>
<!-- x14 -->
<g id="node35" class="node">
<title>x14</title>
<path fill="none" stroke="black" d="M1326.09,-371.96C1326.09,-371.96 1364.59,-371.96 1364.59,-371.96 1370.59,-371.96 1376.59,-377.96 1376.59,-383.96 1376.59,-383.96 1376.59,-395.96 1376.59,-395.96 1376.59,-401.96 1370.59,-407.96 1364.59,-407.96 1364.59,-407.96 1326.09,-407.96 1326.09,-407.96 1320.09,-407.96 1314.09,-401.96 1314.09,-395.96 1314.09,-395.96 1314.09,-383.96 1314.09,-383.96 1314.09,-377.96 1320.09,-371.96 1326.09,-371.96"/>
<text text-anchor="middle" x="1345.34" y="-385.16" font-family="Times,serif" font-size="14.00">2:0 &#45; 2:0</text>
</g>
<!-- n18&#45;&gt;x14 -->
<g id="edge62" class="edge">
<title>n18:e&#45;&gt;x14:w</title>
<path fill="none" stroke="black" stroke-width="3" d="M862.09,-480.96C890.2,-480.96 874.98,-444.96 898.09,-428.96 941.7,-398.78 961.32,-407.31 1013.84,-399.96 1141.77,-382.06 1177.92,-389.72 1301.65,-390.19"/>
<polygon fill="black" stroke="black" stroke-width="3" points="1298.55,-393.68 1308.55,-390.2 1298.56,-386.68 1298.55,-393.68"/>
</g>
<!-- x17 -->
<g id="node39" class="node">
<title>x17</title>
<path fill="none" stroke="black" d="M1579.97,-287.96C1579.97,-287.96 1618.47,-287.96 1618.47,-287.96 1624.47,-287.96 1630.47,-293.96 1630.47,-299.96 1630.47,-299.96 1630.47,-311.96 1630.47,-311.96 1630.47,-317.96 1624.47,-323.96 1618.47,-323.96 1618.47,-323.96 1579.97,-323.96 1579.97,-323.96 1573.97,-323.96 1567.97,-317.96 1567.97,-311.96 1567.97,-311.96 1567.97,-299.96 1567.97,-299.96 1567.97,-293.96 1573.97,-287.96 1579.97,-287.96"/>
<text text-anchor="middle" x="1599.22" y="-301.16" font-family="Times,serif" font-size="14.00">2:0 &#45; 2:0</text>
</g>
<!-- n18&#45;&gt;x17 -->
<g id="edge63" class="edge">
<title>n18:e&#45;&gt;x17:w</title>
<path fill="none" stroke="black" stroke-width="3" d="M862.09,-480.96C901.49,-480.96 867.22,-424.43 898.09,-399.96 951.23,-357.84 1130.04,-342.96 1197.84,-342.96 1197.84,-342.96 1197.84,-342.96 1346.34,-342.96 1441.87,-342.96 1465.74,-309.02 1555.67,-306.37"/>
<polygon fill="black" stroke="black" stroke-width="3" points="1552.48,-309.92 1562.43,-306.28 1552.38,-302.92 1552.48,-309.92"/>
</g>
<!-- x19 -->
<g id="node42" class="node">
<title>x19</title>
<path fill="none" stroke="black" d="M2404.6,-569.46C2404.6,-569.46 2443.1,-569.46 2443.1,-569.46 2449.1,-569.46 2455.1,-575.46 2455.1,-581.46 2455.1,-581.46 2455.1,-606.46 2455.1,-606.46 2455.1,-612.46 2449.1,-618.46 2443.1,-618.46 2443.1,-618.46 2404.6,-618.46 2404.6,-618.46 2398.6,-618.46 2392.6,-612.46 2392.6,-606.46 2392.6,-606.46 2392.6,-581.46 2392.6,-581.46 2392.6,-575.46 2398.6,-569.46 2404.6,-569.46"/>
<text text-anchor="middle" x="2423.85" y="-601.16" font-family="Times,serif" font-size="14.00">5:5 &#45; 3:3</text>
<polyline fill="none" stroke="black" points="2392.6,-593.96 2455.1,-593.96"/>
<text text-anchor="middle" x="2423.85" y="-576.66" font-family="Times,serif" font-size="14.00">2:0 &#45; 2:0</text>
</g>
<!-- n18&#45;&gt;x19 -->
<g id="edge64" class="edge">
<title>n18:e&#45;&gt;x19:w</title>
<path fill="none" stroke="black" d="M862.09,-480.96C897.47,-480.96 868.81,-532.11 898.09,-551.96 1008.82,-627.01 1064.08,-578.96 1197.84,-578.96 1197.84,-578.96 1197.84,-578.96 2165.34,-578.96 2263.19,-578.96 2288.94,-604.17 2381.3,-606.09"/>
<polygon fill="black" stroke="black" points="2381.05,-609.59 2391.08,-606.19 2381.12,-602.59 2381.05,-609.59"/>
</g>
<!-- x20 -->
<g id="node46" class="node">
<title>x20</title>
<path fill="none" stroke="black" d="M1891.09,-179.96C1891.09,-179.96 1946.84,-179.96 1946.84,-179.96 1952.84,-179.96 1958.84,-185.96 1958.84,-191.96 1958.84,-191.96 1958.84,-203.96 1958.84,-203.96 1958.84,-209.96 1952.84,-215.96 1946.84,-215.96 1946.84,-215.96 1891.09,-215.96 1891.09,-215.96 1885.09,-215.96 1879.09,-209.96 1879.09,-203.96 1879.09,-203.96 1879.09,-191.96 1879.09,-191.96 1879.09,-185.96 1885.09,-179.96 1891.09,-179.96"/>
<text text-anchor="middle" x="1918.97" y="-193.16" font-family="Times,serif" font-size="14.00">3x 5:5 &#45; 2:0</text>
</g>
<!-- n18&#45;&gt;x20 -->
<g id="edge65" class="edge">
<title>n18:e&#45;&gt;x20:w</title>
<path fill="none" stroke="black" stroke-width="3" d="M862.09,-480.96C924.17,-480.96 854.07,-247.72 898.09,-203.96 949.43,-152.94 987.34,-183.96 1059.72,-183.96 1059.72,-183.96 1059.72,-183.96 1714.34,-183.96 1783.96,-183.96 1803.57,-196.75 1867.92,-198.09"/>
<polygon fill="black" stroke="black" stroke-width="3" points="1864.52,-201.56 1874.55,-198.16 1864.59,-194.56 1864.52,-201.56"/>
</g>
<!-- x25 -->
<g id="node53" class="node">
<title>x25</title>
<path fill="none" stroke="black" d="M1448.59,-709.46C1448.59,-709.46 1504.34,-709.46 1504.34,-709.46 1510.34,-709.46 1516.34,-715.46 1516.34,-721.46 1516.34,-721.46 1516.34,-746.46 1516.34,-746.46 1516.34,-752.46 1510.34,-758.46 1504.34,-758.46 1504.34,-758.46 1448.59,-758.46 1448.59,-758.46 1442.59,-758.46 1436.59,-752.46 1436.59,-746.46 1436.59,-746.46 1436.59,-721.46 1436.59,-721.46 1436.59,-715.46 1442.59,-709.46 1448.59,-709.46"/>
<text text-anchor="middle" x="1476.47" y="-741.16" font-family="Times,serif" font-size="14.00">3x 5:5 &#45; 5:3</text>
<polyline fill="none" stroke="black" points="1436.59,-733.96 1516.34,-733.96"/>
<text text-anchor="middle" x="1476.47" y="-716.66" font-family="Times,serif" font-size="14.00">2:0 &#45; 2:0</text>
</g>
<!-- n18&#45;&gt;x25 -->
<g id="edge66" class="edge">
<title>n18:e&#45;&gt;x25:w</title>
<path fill="none" stroke="black" stroke-width="3" d="M862.09,-480.96C935.2,-480.96 846.59,-756.08 898.09,-807.96 949.05,-859.29 987.39,-826.96 1059.72,-826.96 1059.72,-826.96 1059.72,-826.96 1199.84,-826.96 1290.12,-826.96 1323.57,-843.06 1400.59,-795.96 1419.88,-784.17 1413.19,-757.79 1425.83,-749.07"/>
<polygon fill="black" stroke="black" stroke-width="3" points="1423.44,-753.32 1432.21,-747.37 1421.64,-746.56 1423.44,-753.32"/>
</g>
<!-- x27 -->
<g id="node56" class="node">
<title>x27</title>
<path fill="none" stroke="black" d="M1448.59,-777.46C1448.59,-777.46 1504.34,-777.46 1504.34,-777.46 1510.34,-777.46 1516.34,-783.46 1516.34,-789.46 1516.34,-789.46 1516.34,-814.46 1516.34,-814.46 1516.34,-820.46 1510.34,-826.46 1504.34,-826.46 1504.34,-826.46 1448.59,-826.46 1448.59,-826.46 1442.59,-826.46 1436.59,-820.46 1436.59,-814.46 1436.59,-814.46 1436.59,-789.46 1436.59,-789.46 1436.59,-783.46 1442.59,-777.46 1448.59,-777.46"/>
<text text-anchor="middle" x="1476.47" y="-809.16" font-family="Times,serif" font-size="14.00">3x 5:5 &#45; 5:3</text>
<polyline fill="none" stroke="black" points="1436.59,-801.96 1516.34,-801.96"/>
<text text-anchor="middle" x="1476.47" y="-784.66" font-family="Times,serif" font-size="14.00">2:0 &#45; 2:0</text>
</g>
<!-- n18&#45;&gt;x27 -->
<g id="edge67" class="edge">
<title>n18:e&#45;&gt;x27:w</title>
<path fill="none" stroke="black" stroke-width="3" d="M862.09,-480.96C941.61,-480.96 850.48,-773.27 898.09,-836.96 944.55,-899.11 982.13,-902.96 1059.72,-902.96 1059.72,-902.96 1059.72,-902.96 1199.84,-902.96 1206.03,-902.96 1379.57,-834.1 1425.63,-817.69"/>
<polygon fill="black" stroke="black" stroke-width="3" points="1423.79,-821.94 1432.27,-815.58 1421.68,-815.27 1423.79,-821.94"/>
</g>
<!-- x32 -->
<g id="node65" class="node">
<title>x32</title>
<path fill="none" stroke="black" d="M1792.59,-48.96C1792.59,-48.96 1831.09,-48.96 1831.09,-48.96 1837.09,-48.96 1843.09,-54.96 1843.09,-60.96 1843.09,-60.96 1843.09,-72.96 1843.09,-72.96 1843.09,-78.96 1837.09,-84.96 1831.09,-84.96 1831.09,-84.96 1792.59,-84.96 1792.59,-84.96 1786.59,-84.96 1780.59,-78.96 1780.59,-72.96 1780.59,-72.96 1780.59,-60.96 1780.59,-60.96 1780.59,-54.96 1786.59,-48.96 1792.59,-48.96"/>
<text text-anchor="middle" x="1811.84" y="-62.16" font-family="Times,serif" font-size="14.00">2:0 &#45; 2:0</text>
</g>
<!-- n18&#45;&gt;x32 -->
<g id="edge69" class="edge">
<title>n18:e&#45;&gt;x32:w</title>
<path fill="none" stroke="black" stroke-width="3" d="M862.09,-480.96C909.7,-480.96 864.98,-88.18 898.09,-53.96 948.39,-1.98 987.39,-34.96 1059.72,-34.96 1059.72,-34.96 1059.72,-34.96 1600.22,-34.96 1677.68,-34.96 1697.29,-64.14 1769.11,-66.99"/>
<polygon fill="black" stroke="black" stroke-width="3" points="1765.99,-70.43 1776.05,-67.12 1766.12,-63.43 1765.99,-70.43"/>
</g>
<!-- x36 -->
<g id="node70" class="node">
<title>x36</title>
<path fill="none" stroke="black" d="M910.09,-267.96C910.09,-267.96 965.84,-267.96 965.84,-267.96 971.84,-267.96 977.84,-273.96 977.84,-279.96 977.84,-279.96 977.84,-291.96 977.84,-291.96 977.84,-297.96 971.84,-303.96 965.84,-303.96 965.84,-303.96 910.09,-303.96 910.09,-303.96 904.09,-303.96 898.09,-297.96 898.09,-291.96 898.09,-291.96 898.09,-279.96 898.09,-279.96 898.09,-273.96 904.09,-267.96 910.09,-267.96"/>
<text text-anchor="middle" x="937.97" y="-281.16" font-family="Times,serif" font-size="14.00">2x 5:5 &#45; 1:0</text>
</g>
<!-- n18&#45;&gt;x36 -->
<g id="edge70" class="edge">
<title>n18:e&#45;&gt;x36:w</title>
<path fill="none" stroke="black" stroke-width="3" d="M862.09,-480.96C945.82,-480.96 823.2,-304.76 886.78,-287.56"/>
<polygon fill="black" stroke="black" stroke-width="3" points="884.07,-291.4 893.58,-286.75 883.24,-284.45 884.07,-291.4"/>
</g>
<!-- x38 -->
<g id="node72" class="node">
<title>x38</title>
<path fill="none" stroke="black" d="M910.09,-212.96C910.09,-212.96 965.84,-212.96 965.84,-212.96 971.84,-212.96 977.84,-218.96 977.84,-224.96 977.84,-224.96 977.84,-236.96 977.84,-236.96 977.84,-242.96 971.84,-248.96 965.84,-248.96 965.84,-248.96 910.09,-248.96 910.09,-248.96 904.09,-248.96 898.09,-242.96 898.09,-236.96 898.09,-236.96 898.09,-224.96 898.09,-224.96 898.09,-218.96 904.09,-212.96 910.09,-212.96"/>
<text text-anchor="middle" x="937.97" y="-226.16" font-family="Times,serif" font-size="14.00">3x 5:5 &#45; 2:0</text>
</g>
<!-- n18&#45;&gt;x38 -->
<g id="edge71" class="edge">
<title>n18:e&#45;&gt;x38:w</title>
<path fill="none" stroke="black" stroke-width="3" d="M862.09,-480.96C914,-480.96 852.59,-266.91 887.68,-235.13"/>
<polygon fill="black" stroke="black" stroke-width="3" points="885.72,-239.61 893.84,-232.81 883.25,-233.06 885.72,-239.61"/>
</g>
<!-- x40 -->
<g id="node74" class="node">
<title>x40</title>
<path fill="none" stroke="black" d="M910.09,-667.96C910.09,-667.96 965.84,-667.96 965.84,-667.96 971.84,-667.96 977.84,-673.96 977.84,-679.96 977.84,-679.96 977.84,-691.96 977.84,-691.96 977.84,-697.96 971.84,-703.96 965.84,-703.96 965.84,-703.96 910.09,-703.96 910.09,-703.96 904.09,-703.96 898.09,-697.96 898.09,-691.96 898.09,-691.96 898.09,-679.96 898.09,-679.96 898.09,-673.96 904.09,-667.96 910.09,-667.96"/>
<text text-anchor="middle" x="937.97" y="-681.16" font-family="Times,serif" font-size="14.00">3x 5:5 &#45; 2:0</text>
</g>
<!-- n18&#45;&gt;x40 -->
<g id="edge73" class="edge">
<title>n18:e&#45;&gt;x40:w</title>
<path fill="none" stroke="black" stroke-width="3" d="M862.09,-480.96C950.55,-480.96 818.4,-668.18 887.03,-685"/>
<polygon fill="black" stroke="black" stroke-width="3" points="883.26,-688.11 893.58,-685.72 884.02,-681.15 883.26,-688.11"/>
</g>
<!-- n19 -->
<g id="node5" class="node">
<title>n19</title>
<polygon fill="none" stroke="black" points="2301.34,-315.96 2246.09,-297.96 2301.34,-279.96 2356.6,-297.96 2301.34,-315.96"/>
<text text-anchor="middle" x="2301.34" y="-292.91" font-family="Times,serif" font-size="14.00">temp_1</text>
</g>
<!-- x5 -->
<g id="node20" class="node">
<title>x5</title>
<path fill="none" stroke="black" d="M2517.6,-263.96C2517.6,-263.96 2556.1,-263.96 2556.1,-263.96 2562.1,-263.96 2568.1,-269.96 2568.1,-275.96 2568.1,-275.96 2568.1,-287.96 2568.1,-287.96 2568.1,-293.96 2562.1,-299.96 2556.1,-299.96 2556.1,-299.96 2517.6,-299.96 2517.6,-299.96 2511.6,-299.96 2505.6,-293.96 2505.6,-287.96 2505.6,-287.96 2505.6,-275.96 2505.6,-275.96 2505.6,-269.96 2511.6,-263.96 2517.6,-263.96"/>
<text text-anchor="middle" x="2536.85" y="-277.16" font-family="Times,serif" font-size="14.00">2:0 &#45; 2:0</text>
</g>
<!-- n19&#45;&gt;x5 -->
<g id="edge80" class="edge">
<title>n19:e&#45;&gt;x5:w</title>
<path fill="none" stroke="black" stroke-width="3" d="M2356.6,-297.96C2418.74,-297.96 2436.36,-284.06 2493.11,-282.38"/>
<polygon fill="black" stroke="black" stroke-width="3" points="2490.11,-285.92 2500.05,-282.28 2490.01,-278.92 2490.11,-285.92"/>
</g>
<!-- n19&#45;&gt;x19 -->
<g id="edge79" class="edge">
<title>n19:e&#45;&gt;x19:w</title>
<path fill="none" stroke="black" stroke-width="3" d="M2356.6,-297.96C2479.62,-297.96 2279.18,-563.72 2381.36,-580.84"/>
<polygon fill="black" stroke="black" stroke-width="3" points="2377.83,-584.08 2388.07,-581.36 2378.37,-577.1 2377.83,-584.08"/>
</g>
<!-- n20 -->
<g id="node6" class="node">
<title>n20</title>
<polygon fill="none" stroke="black" points="1345.34,-786.96 1290.09,-768.96 1345.34,-750.96 1400.59,-768.96 1345.34,-786.96"/>
<text text-anchor="middle" x="1345.34" y="-763.91" font-family="Times,serif" font-size="14.00">temp_2</text>
</g>
<!-- n20&#45;&gt;x25 -->
<g id="edge84" class="edge">
<title>n20:e&#45;&gt;x25:w</title>
<path fill="none" stroke="black" stroke-width="3" d="M1400.59,-768.96C1422.25,-768.96 1414.84,-737.16 1426.05,-725.74"/>
<polygon fill="black" stroke="black" stroke-width="3" points="1424.26,-730.17 1432.35,-723.33 1421.76,-723.63 1424.26,-730.17"/>
</g>
<!-- n20&#45;&gt;x27 -->
<g id="edge85" class="edge">
<title>n20:e&#45;&gt;x27:w</title>
<path fill="none" stroke="black" stroke-width="3" d="M1400.59,-768.96C1414.44,-768.96 1417.38,-780.63 1425.78,-786.47"/>
<polygon fill="black" stroke="black" stroke-width="3" points="1421.66,-788.89 1432.24,-788.41 1423.67,-782.18 1421.66,-788.89"/>
</g>
<!-- n21 -->
<g id="node7" class="node">
<title>n21</title>
<polygon fill="none" stroke="black" points="1198.84,-149.96 1143.59,-131.96 1198.84,-113.96 1254.09,-131.96 1198.84,-149.96"/>
<text text-anchor="middle" x="1198.84" y="-126.91" font-family="Times,serif" font-size="14.00">temp_4</text>
</g>
<!-- c40 -->
<g id="node43" class="node">
<title>c40</title>
<polygon fill="none" stroke="black" points="2118.59,-136.46 2118.59,-177.46 2210.09,-177.46 2210.09,-136.46 2118.59,-136.46"/>
<text text-anchor="middle" x="2131.47" y="-152.16" font-family="Times,serif" font-size="14.00">A</text>
<polyline fill="none" stroke="black" points="2144.34,-136.46 2144.34,-177.46"/>
<text text-anchor="middle" x="2164.34" y="-160.16" font-family="Times,serif" font-size="14.00">$15</text>
<text text-anchor="middle" x="2164.34" y="-143.66" font-family="Times,serif" font-size="14.00">$not</text>
<polyline fill="none" stroke="black" points="2184.34,-136.46 2184.34,-177.46"/>
<text text-anchor="middle" x="2197.22" y="-152.16" font-family="Times,serif" font-size="14.00">Y</text>
</g>
<!-- n21&#45;&gt;c40 -->
<g id="edge87" class="edge">
<title>n21:e&#45;&gt;c40:w</title>
<path fill="none" stroke="black" stroke-width="3" d="M1254.09,-131.96C1352.63,-131.96 1376.94,-143.96 1475.47,-143.96 1475.47,-143.96 1475.47,-143.96 1919.97,-143.96 2004.64,-143.96 2028.13,-156.1 2107.55,-157.14"/>
<polygon fill="black" stroke="black" stroke-width="3" points="2104.03,-160.62 2114.05,-157.18 2104.08,-153.62 2104.03,-160.62"/>
</g>
<!-- n22 -->
<g id="node8" class="node">
<title>n22</title>
<polygon fill="none" stroke="black" points="3416.1,-291.96 3360.85,-273.96 3416.1,-255.96 3471.35,-273.96 3416.1,-291.96"/>
<text text-anchor="middle" x="3416.1" y="-268.91" font-family="Times,serif" font-size="14.00">temp_5</text>
</g>
<!-- c48 -->
<g id="node62" class="node">
<title>c48</title>
<polygon fill="none" stroke="black" points="3507.35,-265.46 3507.35,-314.46 3600.35,-314.46 3600.35,-265.46 3507.35,-265.46"/>
<text text-anchor="middle" x="3520.23" y="-297.16" font-family="Times,serif" font-size="14.00">A</text>
<polyline fill="none" stroke="black" points="3507.35,-289.96 3533.1,-289.96"/>
<text text-anchor="middle" x="3520.23" y="-272.66" font-family="Times,serif" font-size="14.00">B</text>
<polyline fill="none" stroke="black" points="3533.1,-265.46 3533.1,-314.46"/>
<text text-anchor="middle" x="3553.85" y="-293.16" font-family="Times,serif" font-size="14.00">$14</text>
<text text-anchor="middle" x="3553.85" y="-276.66" font-family="Times,serif" font-size="14.00">$sub</text>
<polyline fill="none" stroke="black" points="3574.6,-265.46 3574.6,-314.46"/>
<text text-anchor="middle" x="3587.48" y="-285.16" font-family="Times,serif" font-size="14.00">Y</text>
</g>
<!-- n22&#45;&gt;c48 -->
<g id="edge89" class="edge">
<title>n22:e&#45;&gt;c48:w</title>
<path fill="none" stroke="black" stroke-width="3" d="M3471.35,-273.96C3482.79,-273.96 3488.03,-275.85 3495.88,-276.95"/>
<polygon fill="black" stroke="black" stroke-width="3" points="3492.61,-280.24 3502.82,-277.41 3493.07,-273.26 3492.61,-280.24"/>
</g>
<!-- n23 -->
<g id="node9" class="node">
<title>n23</title>
<polygon fill="none" stroke="black" points="4547.35,-393.96 4492.1,-375.96 4547.35,-357.96 4602.6,-375.96 4547.35,-393.96"/>
<text text-anchor="middle" x="4547.35" y="-370.91" font-family="Times,serif" font-size="14.00">temp_6</text>
</g>
<!-- c33 -->
<g id="node24" class="node">
<title>c33</title>
<polygon fill="none" stroke="black" points="4638.6,-381.46 4638.6,-430.46 4732.35,-430.46 4732.35,-381.46 4638.6,-381.46"/>
<text text-anchor="middle" x="4651.48" y="-413.16" font-family="Times,serif" font-size="14.00">A</text>
<polyline fill="none" stroke="black" points="4638.6,-405.96 4664.35,-405.96"/>
<text text-anchor="middle" x="4651.48" y="-388.66" font-family="Times,serif" font-size="14.00">B</text>
<polyline fill="none" stroke="black" points="4664.35,-381.46 4664.35,-430.46"/>
<text text-anchor="middle" x="4685.48" y="-409.16" font-family="Times,serif" font-size="14.00">$24</text>
<text text-anchor="middle" x="4685.48" y="-392.66" font-family="Times,serif" font-size="14.00">$add</text>
<polyline fill="none" stroke="black" points="4706.6,-381.46 4706.6,-430.46"/>
<text text-anchor="middle" x="4719.48" y="-401.16" font-family="Times,serif" font-size="14.00">Y</text>
</g>
<!-- n23&#45;&gt;c33 -->
<g id="edge91" class="edge">
<title>n23:e&#45;&gt;c33:w</title>
<path fill="none" stroke="black" stroke-width="3" d="M4602.6,-375.96C4615.84,-375.96 4619.43,-385.74 4627.7,-390.78"/>
<polygon fill="black" stroke="black" stroke-width="3" points="4623.65,-393.31 4634.22,-392.53 4625.47,-386.55 4623.65,-393.31"/>
</g>
<!-- n24 -->
<g id="node10" class="node">
<title>n24</title>
<polygon fill="none" stroke="black" points="4018.35,-667.96 3963.1,-649.96 4018.35,-631.96 4073.6,-649.96 4018.35,-667.96"/>
<text text-anchor="middle" x="4018.35" y="-644.91" font-family="Times,serif" font-size="14.00">temp_7</text>
</g>
<!-- c45 -->
<g id="node55" class="node">
<title>c45</title>
<polygon fill="none" stroke="black" points="4109.6,-637.46 4109.6,-686.46 4197.35,-686.46 4197.35,-637.46 4109.6,-637.46"/>
<text text-anchor="middle" x="4122.48" y="-669.16" font-family="Times,serif" font-size="14.00">A</text>
<polyline fill="none" stroke="black" points="4109.6,-661.96 4135.35,-661.96"/>
<text text-anchor="middle" x="4122.48" y="-644.66" font-family="Times,serif" font-size="14.00">B</text>
<polyline fill="none" stroke="black" points="4135.35,-637.46 4135.35,-686.46"/>
<text text-anchor="middle" x="4153.48" y="-665.16" font-family="Times,serif" font-size="14.00">$22</text>
<text text-anchor="middle" x="4153.48" y="-648.66" font-family="Times,serif" font-size="14.00">$or</text>
<polyline fill="none" stroke="black" points="4171.6,-637.46 4171.6,-686.46"/>
<text text-anchor="middle" x="4184.48" y="-657.16" font-family="Times,serif" font-size="14.00">Y</text>
</g>
<!-- n24&#45;&gt;c45 -->
<g id="edge93" class="edge">
<title>n24:e&#45;&gt;c45:w</title>
<path fill="none" stroke="black" stroke-width="3" d="M4073.6,-649.96C4084.98,-649.96 4090.29,-649.83 4098.16,-649.76"/>
<polygon fill="black" stroke="black" stroke-width="3" points="4095.08,-653.27 4105.06,-649.73 4095.05,-646.27 4095.08,-653.27"/>
</g>
<!-- c28&#45;&gt;c41 -->
<g id="edge37" class="edge">
<title>c28:e&#45;&gt;c41:w</title>
<path fill="none" stroke="black" stroke-width="3" d="M237.59,-680.21C252.7,-680.21 254.21,-664.97 262.94,-657.82"/>
<polygon fill="black" stroke="black" stroke-width="3" points="260.95,-662.2 269.29,-655.67 258.7,-655.57 260.95,-662.2"/>
</g>
<!-- c29 -->
<g id="node12" class="node">
<title>c29</title>
<polygon fill="none" stroke="black" points="2773.95,-588.46 2773.95,-637.46 2867.7,-637.46 2867.7,-588.46 2773.95,-588.46"/>
<text text-anchor="middle" x="2786.82" y="-620.16" font-family="Times,serif" font-size="14.00">A</text>
<polyline fill="none" stroke="black" points="2773.95,-612.96 2799.7,-612.96"/>
<text text-anchor="middle" x="2786.82" y="-595.66" font-family="Times,serif" font-size="14.00">B</text>
<polyline fill="none" stroke="black" points="2799.7,-588.46 2799.7,-637.46"/>
<text text-anchor="middle" x="2820.82" y="-616.16" font-family="Times,serif" font-size="14.00">$11</text>
<text text-anchor="middle" x="2820.82" y="-599.66" font-family="Times,serif" font-size="14.00">$add</text>
<polyline fill="none" stroke="black" points="2841.95,-588.46 2841.95,-637.46"/>
<text text-anchor="middle" x="2854.82" y="-608.16" font-family="Times,serif" font-size="14.00">Y</text>
</g>
<!-- c29&#45;&gt;n15 -->
<g id="edge43" class="edge">
<title>c29:e&#45;&gt;n15:w</title>
<path fill="none" stroke="black" stroke-width="3" d="M2867.7,-613.21C2879.07,-613.21 2884.38,-613.08 2892.25,-613.01"/>
<polygon fill="black" stroke="black" stroke-width="3" points="2889.17,-616.52 2899.15,-612.98 2889.14,-609.52 2889.17,-616.52"/>
</g>
<!-- x0&#45;&gt;c29 -->
<g id="edge1" class="edge">
<title>x0:e&#45;&gt;c29:w</title>
<path fill="none" stroke="black" stroke-width="3" d="M990.65,-624.09C1078.4,-625.98 1103.95,-646.96 1197.84,-646.96 1197.84,-646.96 1197.84,-646.96 2621.4,-646.96 2651.89,-646.96 2721.91,-629.71 2761.05,-625.93"/>
<polygon fill="none" stroke="black" stroke-width="3" points="992.55,-624.11 986.5,-628.05 980.55,-623.99 986.59,-620.05 992.55,-624.11"/>
<polygon fill="none" stroke="black" stroke-width="3" points="2759.26,-626.03 2765.03,-621.7 2771.25,-625.36 2765.48,-629.69 2759.26,-626.03"/>
</g>
<!-- x1 -->
<g id="node14" class="node">
<title>x1</title>
<path fill="none" stroke="black" d="M2670.2,-569.46C2670.2,-569.46 2725.95,-569.46 2725.95,-569.46 2731.95,-569.46 2737.95,-575.46 2737.95,-581.46 2737.95,-581.46 2737.95,-606.46 2737.95,-606.46 2737.95,-612.46 2731.95,-618.46 2725.95,-618.46 2725.95,-618.46 2670.2,-618.46 2670.2,-618.46 2664.2,-618.46 2658.2,-612.46 2658.2,-606.46 2658.2,-606.46 2658.2,-581.46 2658.2,-581.46 2658.2,-575.46 2664.2,-569.46 2670.2,-569.46"/>
<text text-anchor="middle" x="2698.07" y="-601.16" font-family="Times,serif" font-size="14.00">2x 3:3 &#45; 5:4</text>
<polyline fill="none" stroke="black" points="2658.2,-593.96 2737.95,-593.96"/>
<text text-anchor="middle" x="2698.07" y="-576.66" font-family="Times,serif" font-size="14.00">3:0 &#45; 3:0</text>
</g>
<!-- x1&#45;&gt;c29 -->
<g id="edge2" class="edge">
<title>x1:e&#45;&gt;c29:w</title>
<path fill="none" stroke="black" stroke-width="3" d="M2750.73,-595.66C2754.41,-596.69 2757.56,-598 2761.25,-599.03"/>
<polygon fill="none" stroke="black" stroke-width="3" points="2752.52,-595.9 2746.04,-599.07 2740.63,-594.32 2747.1,-591.14 2752.52,-595.9"/>
<polygon fill="none" stroke="black" stroke-width="3" points="2759.37,-598.78 2765.84,-595.6 2771.26,-600.35 2764.79,-603.53 2759.37,-598.78"/>
</g>
<!-- c30 -->
<g id="node15" class="node">
<title>c30</title>
<polygon fill="none" stroke="black" points="1013.84,-100.46 1013.84,-149.46 1107.59,-149.46 1107.59,-100.46 1013.84,-100.46"/>
<text text-anchor="middle" x="1026.72" y="-132.16" font-family="Times,serif" font-size="14.00">A</text>
<polyline fill="none" stroke="black" points="1013.84,-124.96 1039.59,-124.96"/>
<text text-anchor="middle" x="1026.72" y="-107.66" font-family="Times,serif" font-size="14.00">B</text>
<polyline fill="none" stroke="black" points="1039.59,-100.46 1039.59,-149.46"/>
<text text-anchor="middle" x="1060.72" y="-128.16" font-family="Times,serif" font-size="14.00">$12</text>
<text text-anchor="middle" x="1060.72" y="-111.66" font-family="Times,serif" font-size="14.00">$add</text>
<polyline fill="none" stroke="black" points="1081.84,-100.46 1081.84,-149.46"/>
<text text-anchor="middle" x="1094.72" y="-120.16" font-family="Times,serif" font-size="14.00">Y</text>
</g>
<!-- c30&#45;&gt;n21 -->
<g id="edge86" class="edge">
<title>c30:e&#45;&gt;n21:w</title>
<path fill="none" stroke="black" stroke-width="3" d="M1107.59,-125.21C1119.29,-125.21 1124.36,-128.7 1132.33,-130.66"/>
<polygon fill="black" stroke="black" stroke-width="3" points="1128.75,-133.77 1139.08,-131.44 1129.55,-126.81 1128.75,-133.77"/>
</g>
<!-- x2&#45;&gt;c30 -->
<g id="edge3" class="edge">
<title>x2:e&#45;&gt;c30:w</title>
<path fill="none" stroke="black" stroke-width="3" d="M983.13,-137C989.59,-137.05 994.53,-137.12 1000.99,-137.17"/>
<polygon fill="none" stroke="black" stroke-width="3" points="984.92,-137.01 978.91,-140.99 972.92,-136.97 978.93,-132.99 984.92,-137.01"/>
<polygon fill="none" stroke="black" stroke-width="3" points="999.14,-137.16 1005.15,-133.18 1011.14,-137.2 1005.12,-141.18 999.14,-137.16"/>
</g>
<!-- x3&#45;&gt;c30 -->
<g id="edge4" class="edge">
<title>x3:e&#45;&gt;c30:w</title>
<path fill="none" stroke="black" stroke-width="3" d="M982.41,-85.73C990.44,-91.63 993.59,-102.99 1001.61,-108.91"/>
<polygon fill="none" stroke="black" stroke-width="3" points="984.26,-86.3 977.35,-88.35 972.8,-82.76 979.71,-80.71 984.26,-86.3"/>
<polygon fill="none" stroke="black" stroke-width="3" points="999.8,-108.35 1006.72,-106.31 1011.26,-111.91 1004.34,-113.95 999.8,-108.35"/>
</g>
<!-- c31 -->
<g id="node18" class="node">
<title>c31</title>
<polygon fill="none" stroke="black" points="4233.35,-204.46 4233.35,-253.46 4327.1,-253.46 4327.1,-204.46 4233.35,-204.46"/>
<text text-anchor="middle" x="4246.23" y="-236.16" font-family="Times,serif" font-size="14.00">A</text>
<polyline fill="none" stroke="black" points="4233.35,-228.96 4259.1,-228.96"/>
<text text-anchor="middle" x="4246.23" y="-211.66" font-family="Times,serif" font-size="14.00">B</text>
<polyline fill="none" stroke="black" points="4259.1,-204.46 4259.1,-253.46"/>
<text text-anchor="middle" x="4280.23" y="-232.16" font-family="Times,serif" font-size="14.00">$17</text>
<text text-anchor="middle" x="4280.23" y="-215.66" font-family="Times,serif" font-size="14.00">$add</text>
<polyline fill="none" stroke="black" points="4301.35,-204.46 4301.35,-253.46"/>
<text text-anchor="middle" x="4314.23" y="-224.16" font-family="Times,serif" font-size="14.00">Y</text>
</g>
<!-- c49 -->
<g id="node64" class="node">
<title>c49</title>
<polygon fill="none" stroke="black" points="4363.1,-192.46 4363.1,-241.46 4456.1,-241.46 4456.1,-192.46 4363.1,-192.46"/>
<text text-anchor="middle" x="4375.98" y="-224.16" font-family="Times,serif" font-size="14.00">A</text>
<polyline fill="none" stroke="black" points="4363.1,-216.96 4388.85,-216.96"/>
<text text-anchor="middle" x="4375.98" y="-199.66" font-family="Times,serif" font-size="14.00">B</text>
<polyline fill="none" stroke="black" points="4388.85,-192.46 4388.85,-241.46"/>
<text text-anchor="middle" x="4409.6" y="-220.16" font-family="Times,serif" font-size="14.00">$18</text>
<text text-anchor="middle" x="4409.6" y="-203.66" font-family="Times,serif" font-size="14.00">$sub</text>
<polyline fill="none" stroke="black" points="4430.35,-192.46 4430.35,-241.46"/>
<text text-anchor="middle" x="4443.23" y="-212.16" font-family="Times,serif" font-size="14.00">Y</text>
</g>
<!-- c31&#45;&gt;c49 -->
<g id="edge81" class="edge">
<title>c31:e&#45;&gt;c49:w</title>
<path fill="none" stroke="black" stroke-width="3" d="M4327.1,-229.21C4338.48,-229.21 4343.79,-229.21 4351.66,-229.21"/>
<polygon fill="black" stroke="black" stroke-width="3" points="4348.56,-232.71 4358.56,-229.21 4348.56,-225.71 4348.56,-232.71"/>
</g>
<!-- x4 -->
<g id="node19" class="node">
<title>x4</title>
<path fill="none" stroke="black" d="M4134.23,-235.96C4134.23,-235.96 4172.73,-235.96 4172.73,-235.96 4178.73,-235.96 4184.73,-241.96 4184.73,-247.96 4184.73,-247.96 4184.73,-259.96 4184.73,-259.96 4184.73,-265.96 4178.73,-271.96 4172.73,-271.96 4172.73,-271.96 4134.23,-271.96 4134.23,-271.96 4128.23,-271.96 4122.23,-265.96 4122.23,-259.96 4122.23,-259.96 4122.23,-247.96 4122.23,-247.96 4122.23,-241.96 4128.23,-235.96 4134.23,-235.96"/>
<text text-anchor="middle" x="4153.48" y="-249.16" font-family="Times,serif" font-size="14.00">2:0 &#45; 2:0</text>
</g>
<!-- x4&#45;&gt;c31 -->
<g id="edge5" class="edge">
<title>x4:e&#45;&gt;c31:w</title>
<path fill="none" stroke="black" stroke-width="3" d="M4198.62,-252.19C4206.82,-249.75 4212.3,-245.4 4220.51,-242.97"/>
<polygon fill="none" stroke="black" stroke-width="3" points="4200.29,-251.96 4194.9,-256.74 4188.41,-253.59 4193.81,-248.81 4200.29,-251.96"/>
<polygon fill="none" stroke="black" stroke-width="3" points="4218.78,-243.2 4224.19,-238.43 4230.67,-241.58 4225.27,-246.35 4218.78,-243.2"/>
</g>
<!-- x5&#45;&gt;c31 -->
<g id="edge6" class="edge">
<title>x5:e&#45;&gt;c31:w</title>
<path fill="none" stroke="black" stroke-width="3" d="M2581.99,-281.92C2888.86,-279.95 2966.66,-207.96 3279.98,-207.96 3279.98,-207.96 3279.98,-207.96 3554.85,-207.96 3699.02,-207.96 3735.05,-204.96 3879.23,-204.96 3879.23,-204.96 3879.23,-204.96 4019.35,-204.96 4110.14,-204.96 4135.74,-215.63 4220.42,-216.63"/>
<polygon fill="none" stroke="black" stroke-width="3" points="2583.8,-281.91 2577.81,-285.93 2571.8,-281.95 2577.79,-277.93 2583.8,-281.91"/>
<polygon fill="none" stroke="black" stroke-width="3" points="4218.65,-216.62 4224.67,-212.66 4230.65,-216.69 4224.63,-220.66 4218.65,-216.62"/>
</g>
<!-- c32 -->
<g id="node21" class="node">
<title>c32</title>
<polygon fill="none" stroke="black" points="3833.35,-625.46 3833.35,-674.46 3927.1,-674.46 3927.1,-625.46 3833.35,-625.46"/>
<text text-anchor="middle" x="3846.23" y="-657.16" font-family="Times,serif" font-size="14.00">A</text>
<polyline fill="none" stroke="black" points="3833.35,-649.96 3859.1,-649.96"/>
<text text-anchor="middle" x="3846.23" y="-632.66" font-family="Times,serif" font-size="14.00">B</text>
<polyline fill="none" stroke="black" points="3859.1,-625.46 3859.1,-674.46"/>
<text text-anchor="middle" x="3880.23" y="-653.16" font-family="Times,serif" font-size="14.00">$21</text>
<text text-anchor="middle" x="3880.23" y="-636.66" font-family="Times,serif" font-size="14.00">$add</text>
<polyline fill="none" stroke="black" points="3901.35,-625.46 3901.35,-674.46"/>
<text text-anchor="middle" x="3914.23" y="-645.16" font-family="Times,serif" font-size="14.00">Y</text>
</g>
<!-- c32&#45;&gt;n24 -->
<g id="edge92" class="edge">
<title>c32:e&#45;&gt;n24:w</title>
<path fill="none" stroke="black" stroke-width="3" d="M3927.1,-650.21C3938.48,-650.21 3943.79,-650.08 3951.65,-650.01"/>
<polygon fill="black" stroke="black" stroke-width="3" points="3948.58,-653.52 3958.56,-649.98 3948.55,-646.52 3948.58,-653.52"/>
</g>
<!-- x6 -->
<g id="node22" class="node">
<title>x6</title>
<path fill="none" stroke="black" d="M3746.85,-654.96C3746.85,-654.96 3785.35,-654.96 3785.35,-654.96 3791.35,-654.96 3797.35,-660.96 3797.35,-666.96 3797.35,-666.96 3797.35,-678.96 3797.35,-678.96 3797.35,-684.96 3791.35,-690.96 3785.35,-690.96 3785.35,-690.96 3746.85,-690.96 3746.85,-690.96 3740.85,-690.96 3734.85,-684.96 3734.85,-678.96 3734.85,-678.96 3734.85,-666.96 3734.85,-666.96 3734.85,-660.96 3740.85,-654.96 3746.85,-654.96"/>
<text text-anchor="middle" x="3766.1" y="-668.16" font-family="Times,serif" font-size="14.00">5:0 &#45; 5:0</text>
</g>
<!-- x6&#45;&gt;c32 -->
<g id="edge7" class="edge">
<title>x6:e&#45;&gt;c32:w</title>
<path fill="none" stroke="black" stroke-width="3" d="M3809.74,-670.47C3813.62,-668.78 3816.81,-666.55 3820.66,-664.84"/>
<polygon fill="none" stroke="black" stroke-width="3" points="3811.77,-670.06 3806.67,-675.16 3800,-672.43 3805.1,-667.32 3811.77,-670.06"/>
<polygon fill="none" stroke="black" stroke-width="3" points="3818.95,-665.19 3824.02,-660.06 3830.7,-662.76 3825.64,-667.89 3818.95,-665.19"/>
</g>
<!-- x7&#45;&gt;c32 -->
<g id="edge8" class="edge">
<title>x7:e&#45;&gt;c32:w</title>
<path fill="none" stroke="black" stroke-width="3" d="M990.61,-518.6C997.8,-519.4 1003.09,-520.81 1013.84,-521.96 1095.59,-530.72 1115.63,-540.96 1197.84,-540.96 1197.84,-540.96 1197.84,-540.96 3554.85,-540.96 3681.41,-540.96 3701.06,-631.21 3820.31,-637.38"/>
<polygon fill="none" stroke="black" stroke-width="3" points="992.53,-518.69 986.34,-522.39 980.54,-518.09 986.73,-514.4 992.53,-518.69"/>
<polygon fill="none" stroke="black" stroke-width="3" points="3818.65,-637.34 3824.75,-633.49 3830.65,-637.64 3824.55,-641.49 3818.65,-637.34"/>
</g>
<!-- c33&#45;&gt;n17 -->
<g id="edge55" class="edge">
<title>c33:e&#45;&gt;n17:w</title>
<path fill="none" stroke="black" stroke-width="3" d="M4732.35,-406.21C4743.73,-406.21 4749.04,-406.08 4756.91,-406.01"/>
<polygon fill="black" stroke="black" stroke-width="3" points="4753.83,-409.52 4763.81,-405.98 4753.8,-402.52 4753.83,-409.52"/>
</g>
<!-- c34&#45;&gt;c33 -->
<g id="edge100" class="edge">
<title>c34:e&#45;&gt;c33:w</title>
<path fill="none" stroke="black" stroke-width="3" d="M4595.23,-591.21C4670.16,-591.21 4571.35,-436.61 4627.28,-419.7"/>
<polygon fill="black" stroke="black" stroke-width="3" points="4624.65,-423.58 4634.1,-418.8 4623.73,-416.64 4624.65,-423.58"/>
</g>
<!-- x8 -->
<g id="node26" class="node">
<title>x8</title>
<path fill="none" stroke="black" d="M4390.35,-625.96C4390.35,-625.96 4428.85,-625.96 4428.85,-625.96 4434.85,-625.96 4440.85,-631.96 4440.85,-637.96 4440.85,-637.96 4440.85,-649.96 4440.85,-649.96 4440.85,-655.96 4434.85,-661.96 4428.85,-661.96 4428.85,-661.96 4390.35,-661.96 4390.35,-661.96 4384.35,-661.96 4378.35,-655.96 4378.35,-649.96 4378.35,-649.96 4378.35,-637.96 4378.35,-637.96 4378.35,-631.96 4384.35,-625.96 4390.35,-625.96"/>
<text text-anchor="middle" x="4409.6" y="-639.16" font-family="Times,serif" font-size="14.00">5:0 &#45; 5:0</text>
</g>
<!-- x8&#45;&gt;c34 -->
<g id="edge9" class="edge">
<title>x8:e&#45;&gt;c34:w</title>
<path fill="none" stroke="black" stroke-width="3" d="M4454.16,-641.29C4469.07,-633.92 4472.2,-613.39 4487.04,-605.95"/>
<polygon fill="none" stroke="black" stroke-width="3" points="4456.22,-640.84 4451.21,-646.02 4444.5,-643.39 4449.51,-638.2 4456.22,-640.84"/>
<polygon fill="none" stroke="black" stroke-width="3" points="4485.12,-606.37 4490.12,-601.17 4496.84,-603.79 4491.84,-608.99 4485.12,-606.37"/>
</g>
<!-- x10 -->
<g id="node29" class="node">
<title>x10</title>
<path fill="none" stroke="black" d="M1179.59,-467.96C1179.59,-467.96 1218.09,-467.96 1218.09,-467.96 1224.09,-467.96 1230.09,-473.96 1230.09,-479.96 1230.09,-479.96 1230.09,-491.96 1230.09,-491.96 1230.09,-497.96 1224.09,-503.96 1218.09,-503.96 1218.09,-503.96 1179.59,-503.96 1179.59,-503.96 1173.59,-503.96 1167.59,-497.96 1167.59,-491.96 1167.59,-491.96 1167.59,-479.96 1167.59,-479.96 1167.59,-473.96 1173.59,-467.96 1179.59,-467.96"/>
<text text-anchor="middle" x="1198.84" y="-481.16" font-family="Times,serif" font-size="14.00">2:0 &#45; 2:0</text>
</g>
<!-- c35&#45;&gt;x10 -->
<g id="edge11" class="edge">
<title>c35:e&#45;&gt;x10:w</title>
<path fill="none" stroke="black" stroke-width="3" d="M1120.53,-488C1133.25,-487.57 1141.09,-486.58 1153.86,-486.16"/>
<polygon fill="none" stroke="black" stroke-width="3" points="1122.29,-487.97 1116.36,-492.07 1110.3,-488.17 1116.23,-484.07 1122.29,-487.97"/>
<polygon fill="none" stroke="black" stroke-width="3" points="1151.89,-486.19 1157.83,-482.1 1163.89,-486 1157.95,-490.1 1151.89,-486.19"/>
</g>
<!-- x9&#45;&gt;c35 -->
<g id="edge10" class="edge">
<title>x9:e&#45;&gt;c35:w</title>
<path fill="none" stroke="black" stroke-width="3" d="M982.7,-458.87C989.92,-462.65 994.31,-469.19 1001.59,-472.91"/>
<polygon fill="none" stroke="black" stroke-width="3" points="984.54,-459.3 977.78,-461.83 972.85,-456.57 979.6,-454.04 984.54,-459.3"/>
<polygon fill="none" stroke="black" stroke-width="3" points="999.51,-472.44 1006.25,-469.87 1011.21,-475.11 1004.47,-477.67 999.51,-472.44"/>
</g>
<!-- n3 -->
<g id="node78" class="node">
<title>n3</title>
<ellipse fill="black" stroke="black" cx="1345.34" cy="-436.96" rx="1.8" ry="1.8"/>
</g>
<!-- x10&#45;&gt;n3 -->
<g id="edge94" class="edge">
<title>x10:e&#45;&gt;n3:w</title>
<path fill="none" stroke="black" stroke-width="3" d="M1231.09,-486.21C1281.05,-486.21 1287.37,-444 1330.85,-437.73"/>
<polygon fill="black" stroke="black" stroke-width="3" points="1327.8,-441.45 1337.54,-437.27 1327.32,-434.47 1327.8,-441.45"/>
</g>
<!-- x12 -->
<g id="node32" class="node">
<title>x12</title>
<path fill="none" stroke="black" d="M1179.59,-751.96C1179.59,-751.96 1218.09,-751.96 1218.09,-751.96 1224.09,-751.96 1230.09,-757.96 1230.09,-763.96 1230.09,-763.96 1230.09,-775.96 1230.09,-775.96 1230.09,-781.96 1224.09,-787.96 1218.09,-787.96 1218.09,-787.96 1179.59,-787.96 1179.59,-787.96 1173.59,-787.96 1167.59,-781.96 1167.59,-775.96 1167.59,-775.96 1167.59,-763.96 1167.59,-763.96 1167.59,-757.96 1173.59,-751.96 1179.59,-751.96"/>
<text text-anchor="middle" x="1198.84" y="-765.16" font-family="Times,serif" font-size="14.00">2:0 &#45; 2:0</text>
</g>
<!-- c36&#45;&gt;x12 -->
<g id="edge13" class="edge">
<title>c36:e&#45;&gt;x12:w</title>
<path fill="none" stroke="black" stroke-width="3" d="M1120.55,-773.82C1133.26,-773 1141.08,-771.14 1153.85,-770.34"/>
<polygon fill="none" stroke="black" stroke-width="3" points="1122.29,-773.76 1116.41,-777.94 1110.29,-774.13 1116.17,-769.95 1122.29,-773.76"/>
<polygon fill="none" stroke="black" stroke-width="3" points="1151.89,-770.4 1157.77,-766.22 1163.89,-770.04 1158.01,-774.22 1151.89,-770.4"/>
</g>
<!-- x11&#45;&gt;c36 -->
<g id="edge12" class="edge">
<title>x11:e&#45;&gt;c36:w</title>
<path fill="none" stroke="black" stroke-width="3" d="M982.94,-777.11C989.86,-773.66 994.32,-767.89 1001.28,-764.48"/>
<polygon fill="none" stroke="black" stroke-width="3" points="984.57,-776.74 979.59,-781.96 972.86,-779.37 977.84,-774.15 984.57,-776.74"/>
<polygon fill="none" stroke="black" stroke-width="3" points="999.48,-764.88 1004.48,-759.68 1011.2,-762.29 1006.2,-767.49 999.48,-764.88"/>
</g>
<!-- x12&#45;&gt;n20 -->
<g id="edge82" class="edge">
<title>x12:e&#45;&gt;n20:w</title>
<path fill="none" stroke="black" stroke-width="3" d="M1231.09,-770.21C1253.02,-770.21 1261.19,-769.34 1278.6,-769.05"/>
<polygon fill="black" stroke="black" stroke-width="3" points="1275.58,-772.57 1285.55,-768.99 1275.53,-765.57 1275.58,-772.57"/>
</g>
<!-- c37 -->
<g id="node33" class="node">
<title>c37</title>
<polygon fill="none" stroke="black" points="1552.34,-397.46 1552.34,-446.46 1646.09,-446.46 1646.09,-397.46 1552.34,-397.46"/>
<text text-anchor="middle" x="1565.22" y="-429.16" font-family="Times,serif" font-size="14.00">A</text>
<polyline fill="none" stroke="black" points="1552.34,-421.96 1578.09,-421.96"/>
<text text-anchor="middle" x="1565.22" y="-404.66" font-family="Times,serif" font-size="14.00">B</text>
<polyline fill="none" stroke="black" points="1578.09,-397.46 1578.09,-446.46"/>
<text text-anchor="middle" x="1599.22" y="-425.16" font-family="Times,serif" font-size="14.00">$53</text>
<text text-anchor="middle" x="1599.22" y="-408.66" font-family="Times,serif" font-size="14.00">$and</text>
<polyline fill="none" stroke="black" points="1620.34,-397.46 1620.34,-446.46"/>
<text text-anchor="middle" x="1633.22" y="-417.16" font-family="Times,serif" font-size="14.00">Y</text>
</g>
<!-- x15 -->
<g id="node36" class="node">
<title>x15</title>
<path fill="none" stroke="black" d="M1694.09,-400.96C1694.09,-400.96 1732.59,-400.96 1732.59,-400.96 1738.59,-400.96 1744.59,-406.96 1744.59,-412.96 1744.59,-412.96 1744.59,-424.96 1744.59,-424.96 1744.59,-430.96 1738.59,-436.96 1732.59,-436.96 1732.59,-436.96 1694.09,-436.96 1694.09,-436.96 1688.09,-436.96 1682.09,-430.96 1682.09,-424.96 1682.09,-424.96 1682.09,-412.96 1682.09,-412.96 1682.09,-406.96 1688.09,-400.96 1694.09,-400.96"/>
<text text-anchor="middle" x="1713.34" y="-414.16" font-family="Times,serif" font-size="14.00">2:0 &#45; 2:0</text>
</g>
<!-- c37&#45;&gt;x15 -->
<g id="edge16" class="edge">
<title>c37:e&#45;&gt;x15:w</title>
<path fill="none" stroke="black" stroke-width="3" d="M1658.83,-421.39C1662.42,-420.91 1665.54,-420.3 1669.11,-419.81"/>
<polygon fill="none" stroke="black" stroke-width="3" points="1660.77,-421.26 1655.04,-425.64 1648.79,-422.04 1654.52,-417.66 1660.77,-421.26"/>
<polygon fill="none" stroke="black" stroke-width="3" points="1667.42,-419.92 1673.15,-415.54 1679.4,-419.14 1673.67,-423.52 1667.42,-419.92"/>
</g>
<!-- x13 -->
<g id="node34" class="node">
<title>x13</title>
<path fill="none" stroke="black" d="M1457.22,-418.96C1457.22,-418.96 1495.72,-418.96 1495.72,-418.96 1501.72,-418.96 1507.72,-424.96 1507.72,-430.96 1507.72,-430.96 1507.72,-442.96 1507.72,-442.96 1507.72,-448.96 1501.72,-454.96 1495.72,-454.96 1495.72,-454.96 1457.22,-454.96 1457.22,-454.96 1451.22,-454.96 1445.22,-448.96 1445.22,-442.96 1445.22,-442.96 1445.22,-430.96 1445.22,-430.96 1445.22,-424.96 1451.22,-418.96 1457.22,-418.96"/>
<text text-anchor="middle" x="1476.47" y="-432.16" font-family="Times,serif" font-size="14.00">2:0 &#45; 2:0</text>
</g>
<!-- x13&#45;&gt;c37 -->
<g id="edge14" class="edge">
<title>x13:e&#45;&gt;c37:w</title>
<path fill="none" stroke="black" stroke-width="3" d="M1521.65,-436.48C1528.1,-435.98 1533.03,-435.19 1539.49,-434.68"/>
<polygon fill="none" stroke="black" stroke-width="3" points="1523.41,-436.41 1517.57,-440.63 1511.42,-436.86 1517.27,-432.64 1523.41,-436.41"/>
<polygon fill="none" stroke="black" stroke-width="3" points="1537.65,-434.75 1543.5,-430.53 1549.64,-434.31 1543.79,-438.53 1537.65,-434.75"/>
</g>
<!-- x14&#45;&gt;c37 -->
<g id="edge15" class="edge">
<title>x14:e&#45;&gt;c37:w</title>
<path fill="none" stroke="black" stroke-width="3" d="M1390.32,-390.14C1453.93,-392.01 1475.95,-407.64 1539.51,-409.52"/>
<polygon fill="none" stroke="black" stroke-width="3" points="1392.3,-390.17 1386.24,-394.08 1380.3,-390 1386.35,-386.08 1392.3,-390.17"/>
<polygon fill="none" stroke="black" stroke-width="3" points="1537.64,-409.5 1543.7,-405.58 1549.64,-409.67 1543.58,-413.58 1537.64,-409.5"/>
</g>
<!-- n4 -->
<g id="node79" class="node">
<title>n4</title>
<ellipse fill="black" stroke="black" cx="1811.84" cy="-360.96" rx="1.8" ry="1.8"/>
</g>
<!-- x15&#45;&gt;n4 -->
<g id="edge97" class="edge">
<title>x15:e&#45;&gt;n4:w</title>
<path fill="none" stroke="black" stroke-width="3" d="M1744.59,-419.21C1778.69,-419.21 1772.38,-373.41 1797.33,-363.03"/>
<polygon fill="black" stroke="black" stroke-width="3" points="1794.9,-367.04 1804.1,-361.78 1793.63,-360.16 1794.9,-367.04"/>
</g>
<!-- c38 -->
<g id="node37" class="node">
<title>c38</title>
<polygon fill="none" stroke="black" points="1994.84,-293.46 1994.84,-342.46 2082.59,-342.46 2082.59,-293.46 1994.84,-293.46"/>
<text text-anchor="middle" x="2007.72" y="-325.16" font-family="Times,serif" font-size="14.00">A</text>
<polyline fill="none" stroke="black" points="1994.84,-317.96 2020.59,-317.96"/>
<text text-anchor="middle" x="2007.72" y="-300.66" font-family="Times,serif" font-size="14.00">B</text>
<polyline fill="none" stroke="black" points="2020.59,-293.46 2020.59,-342.46"/>
<text text-anchor="middle" x="2038.72" y="-321.16" font-family="Times,serif" font-size="14.00">$57</text>
<text text-anchor="middle" x="2038.72" y="-304.66" font-family="Times,serif" font-size="14.00">$or</text>
<polyline fill="none" stroke="black" points="2056.84,-293.46 2056.84,-342.46"/>
<text text-anchor="middle" x="2069.72" y="-313.16" font-family="Times,serif" font-size="14.00">Y</text>
</g>
<!-- x18 -->
<g id="node40" class="node">
<title>x18</title>
<path fill="none" stroke="black" d="M2145.09,-294.96C2145.09,-294.96 2183.59,-294.96 2183.59,-294.96 2189.59,-294.96 2195.59,-300.96 2195.59,-306.96 2195.59,-306.96 2195.59,-318.96 2195.59,-318.96 2195.59,-324.96 2189.59,-330.96 2183.59,-330.96 2183.59,-330.96 2145.09,-330.96 2145.09,-330.96 2139.09,-330.96 2133.09,-324.96 2133.09,-318.96 2133.09,-318.96 2133.09,-306.96 2133.09,-306.96 2133.09,-300.96 2139.09,-294.96 2145.09,-294.96"/>
<text text-anchor="middle" x="2164.34" y="-308.16" font-family="Times,serif" font-size="14.00">2:0 &#45; 2:0</text>
</g>
<!-- c38&#45;&gt;x18 -->
<g id="edge19" class="edge">
<title>c38:e&#45;&gt;x18:w</title>
<path fill="none" stroke="black" stroke-width="3" d="M2095.43,-317.52C2104.24,-316.52 2110.33,-314.67 2119.11,-313.66"/>
<polygon fill="none" stroke="black" stroke-width="3" points="2097.28,-317.42 2091.5,-321.74 2085.29,-318.06 2091.07,-313.75 2097.28,-317.42"/>
<polygon fill="none" stroke="black" stroke-width="3" points="2117.41,-313.76 2123.19,-309.44 2129.39,-313.11 2123.62,-317.42 2117.41,-313.76"/>
</g>
<!-- x16 -->
<g id="node38" class="node">
<title>x16</title>
<path fill="none" stroke="black" d="M1899.72,-338.96C1899.72,-338.96 1938.22,-338.96 1938.22,-338.96 1944.22,-338.96 1950.22,-344.96 1950.22,-350.96 1950.22,-350.96 1950.22,-362.96 1950.22,-362.96 1950.22,-368.96 1944.22,-374.96 1938.22,-374.96 1938.22,-374.96 1899.72,-374.96 1899.72,-374.96 1893.72,-374.96 1887.72,-368.96 1887.72,-362.96 1887.72,-362.96 1887.72,-350.96 1887.72,-350.96 1887.72,-344.96 1893.72,-338.96 1899.72,-338.96"/>
<text text-anchor="middle" x="1918.97" y="-352.16" font-family="Times,serif" font-size="14.00">2:0 &#45; 2:0</text>
</g>
<!-- x16&#45;&gt;c38 -->
<g id="edge17" class="edge">
<title>x16:e&#45;&gt;c38:w</title>
<path fill="none" stroke="black" stroke-width="3" d="M1963.46,-353.46C1971.14,-348.36 1974.84,-338.94 1982.47,-333.79"/>
<polygon fill="none" stroke="black" stroke-width="3" points="1965.36,-352.92 1960.69,-358.41 1953.82,-356.22 1958.49,-350.72 1965.36,-352.92"/>
<polygon fill="none" stroke="black" stroke-width="3" points="1980.72,-334.3 1985.37,-328.79 1992.25,-330.96 1987.6,-336.47 1980.72,-334.3"/>
</g>
<!-- x17&#45;&gt;c38 -->
<g id="edge18" class="edge">
<title>x17:e&#45;&gt;c38:w</title>
<path fill="none" stroke="black" stroke-width="3" d="M1644.45,-305.96C1791.14,-305.95 1835.36,-305.72 1982.21,-305.71"/>
<polygon fill="none" stroke="black" stroke-width="3" points="1646.17,-305.96 1640.17,-309.96 1634.17,-305.96 1640.17,-301.96 1646.17,-305.96"/>
<polygon fill="none" stroke="black" stroke-width="3" points="1980.14,-305.71 1986.14,-301.71 1992.14,-305.71 1986.14,-309.71 1980.14,-305.71"/>
</g>
<!-- x18&#45;&gt;n19 -->
<g id="edge77" class="edge">
<title>x18:e&#45;&gt;n19:w</title>
<path fill="none" stroke="black" stroke-width="3" d="M2196.59,-313.21C2215.3,-313.21 2221.09,-303.14 2234.95,-299.37"/>
<polygon fill="black" stroke="black" stroke-width="3" points="2232.11,-303.25 2241.59,-298.53 2231.23,-296.31 2232.11,-303.25"/>
</g>
<!-- c39 -->
<g id="node41" class="node">
<title>c39</title>
<polygon fill="none" stroke="black" points="2491.1,-573.46 2491.1,-614.46 2582.6,-614.46 2582.6,-573.46 2491.1,-573.46"/>
<text text-anchor="middle" x="2503.97" y="-589.16" font-family="Times,serif" font-size="14.00">A</text>
<polyline fill="none" stroke="black" points="2516.85,-573.46 2516.85,-614.46"/>
<text text-anchor="middle" x="2536.85" y="-597.16" font-family="Times,serif" font-size="14.00">$60</text>
<text text-anchor="middle" x="2536.85" y="-580.66" font-family="Times,serif" font-size="14.00">$not</text>
<polyline fill="none" stroke="black" points="2556.85,-573.46 2556.85,-614.46"/>
<text text-anchor="middle" x="2569.72" y="-589.16" font-family="Times,serif" font-size="14.00">Y</text>
</g>
<!-- n6 -->
<g id="node80" class="node">
<title>n6</title>
<ellipse fill="black" stroke="black" cx="2620.4" cy="-593.96" rx="1.8" ry="1.8"/>
</g>
<!-- c39&#45;&gt;n6 -->
<g id="edge101" class="edge">
<title>c39:e&#45;&gt;n6:w</title>
<path fill="none" stroke="black" stroke-width="3" d="M2582.6,-594.21C2593.97,-594.21 2599.28,-594.08 2607.15,-594.01"/>
<polygon fill="black" stroke="black" stroke-width="3" points="2604.07,-597.52 2614.05,-593.98 2604.04,-590.52 2604.07,-597.52"/>
</g>
<!-- x19&#45;&gt;c39 -->
<g id="edge20" class="edge">
<title>x19:e&#45;&gt;c39:w</title>
<path fill="none" stroke="black" stroke-width="3" d="M2467.82,-594.02C2471.41,-594.06 2474.55,-594.11 2478.12,-594.14"/>
<polygon fill="none" stroke="black" stroke-width="3" points="2469.8,-594.03 2463.78,-598 2457.8,-593.97 2463.82,-590 2469.8,-594.03"/>
<polygon fill="none" stroke="black" stroke-width="3" points="2476.39,-594.13 2482.41,-590.17 2488.39,-594.2 2482.37,-598.17 2476.39,-594.13"/>
</g>
<!-- c43 -->
<g id="node48" class="node">
<title>c43</title>
<polygon fill="none" stroke="black" points="3836.35,-233.46 3836.35,-282.46 3924.1,-282.46 3924.1,-233.46 3836.35,-233.46"/>
<text text-anchor="middle" x="3849.23" y="-265.16" font-family="Times,serif" font-size="14.00">A</text>
<polyline fill="none" stroke="black" points="3836.35,-257.96 3862.1,-257.96"/>
<text text-anchor="middle" x="3849.23" y="-240.66" font-family="Times,serif" font-size="14.00">B</text>
<polyline fill="none" stroke="black" points="3862.1,-233.46 3862.1,-282.46"/>
<text text-anchor="middle" x="3880.23" y="-261.16" font-family="Times,serif" font-size="14.00">$16</text>
<text text-anchor="middle" x="3880.23" y="-244.66" font-family="Times,serif" font-size="14.00">$or</text>
<polyline fill="none" stroke="black" points="3898.35,-233.46 3898.35,-282.46"/>
<text text-anchor="middle" x="3911.23" y="-253.16" font-family="Times,serif" font-size="14.00">Y</text>
</g>
<!-- c40&#45;&gt;c43 -->
<g id="edge104" class="edge">
<title>c40:e&#45;&gt;c43:w</title>
<path fill="none" stroke="black" stroke-width="3" d="M2210.09,-157.21C2304.82,-157.21 2328.12,-169.96 2422.85,-169.96 2422.85,-169.96 2422.85,-169.96 3554.85,-169.96 3680.07,-169.96 3704.77,-241.19 3823.91,-245.51"/>
<polygon fill="black" stroke="black" stroke-width="3" points="3820.75,-248.95 3830.81,-245.63 3820.88,-241.95 3820.75,-248.95"/>
</g>
<!-- c41&#45;&gt;c46 -->
<g id="edge41" class="edge">
<title>c41:e&#45;&gt;c46:w</title>
<path fill="none" stroke="black" stroke-width="3" d="M359.09,-642.21C374.4,-642.21 375.65,-626.38 384.37,-618.96"/>
<polygon fill="black" stroke="black" stroke-width="3" points="382.52,-623.32 390.81,-616.71 380.21,-616.71 382.52,-623.32"/>
</g>
<!-- c42 -->
<g id="node45" class="node">
<title>c42</title>
<polygon fill="none" stroke="black" points="3237.1,-249.46 3237.1,-298.46 3324.85,-298.46 3324.85,-249.46 3237.1,-249.46"/>
<text text-anchor="middle" x="3249.98" y="-281.16" font-family="Times,serif" font-size="14.00">A</text>
<polyline fill="none" stroke="black" points="3237.1,-273.96 3262.85,-273.96"/>
<text text-anchor="middle" x="3249.98" y="-256.66" font-family="Times,serif" font-size="14.00">B</text>
<polyline fill="none" stroke="black" points="3262.85,-249.46 3262.85,-298.46"/>
<text text-anchor="middle" x="3280.98" y="-277.16" font-family="Times,serif" font-size="14.00">$13</text>
<text text-anchor="middle" x="3280.98" y="-260.66" font-family="Times,serif" font-size="14.00">$or</text>
<polyline fill="none" stroke="black" points="3299.1,-249.46 3299.1,-298.46"/>
<text text-anchor="middle" x="3311.98" y="-269.16" font-family="Times,serif" font-size="14.00">Y</text>
</g>
<!-- c42&#45;&gt;n22 -->
<g id="edge88" class="edge">
<title>c42:e&#45;&gt;n22:w</title>
<path fill="none" stroke="black" stroke-width="3" d="M3324.85,-274.21C3336.23,-274.21 3341.54,-274.08 3349.4,-274.01"/>
<polygon fill="black" stroke="black" stroke-width="3" points="3346.33,-277.52 3356.31,-273.98 3346.29,-270.52 3346.33,-277.52"/>
</g>
<!-- x20&#45;&gt;c42 -->
<g id="edge21" class="edge">
<title>x20:e&#45;&gt;c42:w</title>
<path fill="none" stroke="black" stroke-width="3" d="M1971.7,-198.03C2052.2,-198.91 2076.79,-207.96 2163.34,-207.96 2163.34,-207.96 2163.34,-207.96 2699.07,-207.96 2883.89,-207.96 2924.26,-263.91 3108.1,-282.96 3160.58,-288.4 3177.14,-286.58 3224.1,-286.25"/>
<polygon fill="none" stroke="black" stroke-width="3" points="1973.55,-198.04 1967.53,-202.01 1961.55,-197.97 1967.57,-194.01 1973.55,-198.04"/>
<polygon fill="none" stroke="black" stroke-width="3" points="3222.4,-286.26 3228.38,-282.24 3234.4,-286.22 3228.41,-290.24 3222.4,-286.26"/>
</g>
<!-- x21&#45;&gt;c42 -->
<g id="edge22" class="edge">
<title>x21:e&#45;&gt;c42:w</title>
<path fill="none" stroke="black" stroke-width="3" d="M3199.51,-255.79C3208.73,-257.07 3214.94,-259.52 3224.09,-260.83"/>
<polygon fill="none" stroke="black" stroke-width="3" points="3201.52,-255.92 3195.28,-259.52 3189.55,-255.14 3195.8,-251.54 3201.52,-255.92"/>
<polygon fill="none" stroke="black" stroke-width="3" points="3222.43,-260.72 3228.69,-257.13 3234.4,-261.53 3228.15,-265.11 3222.43,-260.72"/>
</g>
<!-- x23 -->
<g id="node50" class="node">
<title>x23</title>
<path fill="none" stroke="black" d="M3999.1,-236.96C3999.1,-236.96 4037.6,-236.96 4037.6,-236.96 4043.6,-236.96 4049.6,-242.96 4049.6,-248.96 4049.6,-248.96 4049.6,-260.96 4049.6,-260.96 4049.6,-266.96 4043.6,-272.96 4037.6,-272.96 4037.6,-272.96 3999.1,-272.96 3999.1,-272.96 3993.1,-272.96 3987.1,-266.96 3987.1,-260.96 3987.1,-260.96 3987.1,-248.96 3987.1,-248.96 3987.1,-242.96 3993.1,-236.96 3999.1,-236.96"/>
<text text-anchor="middle" x="4018.35" y="-250.16" font-family="Times,serif" font-size="14.00">2:0 &#45; 2:0</text>
</g>
<!-- c43&#45;&gt;x23 -->
<g id="edge24" class="edge">
<title>c43:e&#45;&gt;x23:w</title>
<path fill="none" stroke="black" stroke-width="3" d="M3937.99,-257.93C3951.53,-257.32 3959.69,-255.85 3973.23,-255.24"/>
<polygon fill="none" stroke="black" stroke-width="3" points="3939.8,-257.89 3933.89,-262.02 3927.81,-258.15 3933.72,-254.02 3939.8,-257.89"/>
<polygon fill="none" stroke="black" stroke-width="3" points="3971.4,-255.28 3977.31,-251.15 3983.4,-255.02 3977.49,-259.15 3971.4,-255.28"/>
</g>
<!-- x22 -->
<g id="node49" class="node">
<title>x22</title>
<path fill="none" stroke="black" d="M3746.85,-271.96C3746.85,-271.96 3785.35,-271.96 3785.35,-271.96 3791.35,-271.96 3797.35,-277.96 3797.35,-283.96 3797.35,-283.96 3797.35,-295.96 3797.35,-295.96 3797.35,-301.96 3791.35,-307.96 3785.35,-307.96 3785.35,-307.96 3746.85,-307.96 3746.85,-307.96 3740.85,-307.96 3734.85,-301.96 3734.85,-295.96 3734.85,-295.96 3734.85,-283.96 3734.85,-283.96 3734.85,-277.96 3740.85,-271.96 3746.85,-271.96"/>
<text text-anchor="middle" x="3766.1" y="-285.16" font-family="Times,serif" font-size="14.00">2:0 &#45; 2:0</text>
</g>
<!-- x22&#45;&gt;c43 -->
<g id="edge23" class="edge">
<title>x22:e&#45;&gt;c43:w</title>
<path fill="none" stroke="black" stroke-width="3" d="M3809.73,-286.15C3814.68,-282.65 3818.03,-277.5 3822.99,-274.01"/>
<polygon fill="none" stroke="black" stroke-width="3" points="3811.41,-285.64 3806.85,-291.22 3799.94,-289.16 3804.49,-283.58 3811.41,-285.64"/>
<polygon fill="none" stroke="black" stroke-width="3" points="3821.3,-274.53 3825.86,-268.94 3832.77,-271 3828.21,-276.59 3821.3,-274.53"/>
</g>
<!-- x23&#45;&gt;x4 -->
<g id="edge105" class="edge">
<title>x23:e&#45;&gt;x4:w</title>
<path fill="none" stroke="black" stroke-width="3" d="M4050.6,-255.21C4077.83,-255.21 4087.34,-254.46 4109.86,-254.26"/>
<polygon fill="black" stroke="black" stroke-width="3" points="4106.7,-257.77 4116.69,-254.23 4106.67,-250.77 4106.7,-257.77"/>
</g>
<!-- c44 -->
<g id="node51" class="node">
<title>c44</title>
<polygon fill="none" stroke="black" points="3509.98,-672.46 3509.98,-721.46 3597.73,-721.46 3597.73,-672.46 3509.98,-672.46"/>
<text text-anchor="middle" x="3522.85" y="-704.16" font-family="Times,serif" font-size="14.00">A</text>
<polyline fill="none" stroke="black" points="3509.98,-696.96 3535.73,-696.96"/>
<text text-anchor="middle" x="3522.85" y="-679.66" font-family="Times,serif" font-size="14.00">B</text>
<polyline fill="none" stroke="black" points="3535.73,-672.46 3535.73,-721.46"/>
<text text-anchor="middle" x="3553.85" y="-700.16" font-family="Times,serif" font-size="14.00">$20</text>
<text text-anchor="middle" x="3553.85" y="-683.66" font-family="Times,serif" font-size="14.00">$or</text>
<polyline fill="none" stroke="black" points="3571.98,-672.46 3571.98,-721.46"/>
<text text-anchor="middle" x="3584.85" y="-692.16" font-family="Times,serif" font-size="14.00">Y</text>
</g>
<!-- x26 -->
<g id="node54" class="node">
<title>x26</title>
<path fill="none" stroke="black" d="M3648.35,-662.96C3648.35,-662.96 3686.85,-662.96 3686.85,-662.96 3692.85,-662.96 3698.85,-668.96 3698.85,-674.96 3698.85,-674.96 3698.85,-686.96 3698.85,-686.96 3698.85,-692.96 3692.85,-698.96 3686.85,-698.96 3686.85,-698.96 3648.35,-698.96 3648.35,-698.96 3642.35,-698.96 3636.35,-692.96 3636.35,-686.96 3636.35,-686.96 3636.35,-674.96 3636.35,-674.96 3636.35,-668.96 3642.35,-662.96 3648.35,-662.96"/>
<text text-anchor="middle" x="3667.6" y="-676.16" font-family="Times,serif" font-size="14.00">5:0 &#45; 5:0</text>
</g>
<!-- c44&#45;&gt;x26 -->
<g id="edge27" class="edge">
<title>c44:e&#45;&gt;x26:w</title>
<path fill="none" stroke="black" stroke-width="3" d="M3611.08,-693.92C3615.81,-691.1 3619.27,-687.06 3624.01,-684.24"/>
<polygon fill="none" stroke="black" stroke-width="3" points="3612.94,-693.43 3608.17,-698.84 3601.34,-696.51 3606.11,-691.1 3612.94,-693.43"/>
<polygon fill="none" stroke="black" stroke-width="3" points="3622.14,-684.74 3626.91,-679.33 3633.74,-681.65 3628.97,-687.06 3622.14,-684.74"/>
</g>
<!-- x24 -->
<g id="node52" class="node">
<title>x24</title>
<path fill="none" stroke="black" d="M3396.85,-713.96C3396.85,-713.96 3435.35,-713.96 3435.35,-713.96 3441.35,-713.96 3447.35,-719.96 3447.35,-725.96 3447.35,-725.96 3447.35,-737.96 3447.35,-737.96 3447.35,-743.96 3441.35,-749.96 3435.35,-749.96 3435.35,-749.96 3396.85,-749.96 3396.85,-749.96 3390.85,-749.96 3384.85,-743.96 3384.85,-737.96 3384.85,-737.96 3384.85,-725.96 3384.85,-725.96 3384.85,-719.96 3390.85,-713.96 3396.85,-713.96"/>
<text text-anchor="middle" x="3416.1" y="-727.16" font-family="Times,serif" font-size="14.00">5:0 &#45; 5:0</text>
</g>
<!-- x24&#45;&gt;c44 -->
<g id="edge25" class="edge">
<title>x24:e&#45;&gt;c44:w</title>
<path fill="none" stroke="black" stroke-width="3" d="M3461.17,-730.17C3475.33,-725.9 3482.15,-715.13 3496.39,-710.92"/>
<polygon fill="none" stroke="black" stroke-width="3" points="3462.91,-729.93 3457.52,-734.72 3451.03,-731.59 3456.42,-726.8 3462.91,-729.93"/>
<polygon fill="none" stroke="black" stroke-width="3" points="3494.41,-711.19 3499.81,-706.42 3506.3,-709.57 3500.89,-714.35 3494.41,-711.19"/>
</g>
<!-- x25&#45;&gt;c44 -->
<g id="edge26" class="edge">
<title>x25:e&#45;&gt;c44:w</title>
<path fill="none" stroke="black" stroke-width="3" d="M1528.99,-733.62C1607.91,-729.29 1626.94,-684.96 1712.34,-684.96 1712.34,-684.96 1712.34,-684.96 3281.98,-684.96 3378.43,-684.96 3405.72,-684.73 3496.1,-684.71"/>
<polygon fill="none" stroke="black" stroke-width="3" points="1531.04,-733.57 1525.15,-737.72 1519.05,-733.89 1524.94,-729.73 1531.04,-733.57"/>
<polygon fill="none" stroke="black" stroke-width="3" points="3494.27,-684.71 3500.27,-680.71 3506.27,-684.71 3500.27,-688.71 3494.27,-684.71"/>
</g>
<!-- x26&#45;&gt;x6 -->
<g id="edge106" class="edge">
<title>x26:e&#45;&gt;x6:w</title>
<path fill="none" stroke="black" stroke-width="3" d="M3698.85,-681.21C3710.63,-681.21 3715.61,-677.08 3723.56,-674.75"/>
<polygon fill="black" stroke="black" stroke-width="3" points="3720.92,-678.65 3730.35,-673.82 3719.97,-671.71 3720.92,-678.65"/>
</g>
<!-- x28 -->
<g id="node57" class="node">
<title>x28</title>
<path fill="none" stroke="black" d="M4260.98,-634.96C4260.98,-634.96 4299.48,-634.96 4299.48,-634.96 4305.48,-634.96 4311.48,-640.96 4311.48,-646.96 4311.48,-646.96 4311.48,-658.96 4311.48,-658.96 4311.48,-664.96 4305.48,-670.96 4299.48,-670.96 4299.48,-670.96 4260.98,-670.96 4260.98,-670.96 4254.98,-670.96 4248.98,-664.96 4248.98,-658.96 4248.98,-658.96 4248.98,-646.96 4248.98,-646.96 4248.98,-640.96 4254.98,-634.96 4260.98,-634.96"/>
<text text-anchor="middle" x="4280.23" y="-648.16" font-family="Times,serif" font-size="14.00">5:0 &#45; 5:0</text>
</g>
<!-- c45&#45;&gt;x28 -->
<g id="edge29" class="edge">
<title>c45:e&#45;&gt;x28:w</title>
<path fill="none" stroke="black" stroke-width="3" d="M4210.16,-661.08C4219.55,-659.3 4225.75,-655.88 4235.12,-654.1"/>
<polygon fill="none" stroke="black" stroke-width="3" points="4212,-660.91 4206.38,-665.43 4200.05,-661.97 4205.67,-657.46 4212,-660.91"/>
<polygon fill="none" stroke="black" stroke-width="3" points="4233.33,-654.26 4238.95,-649.75 4245.28,-653.2 4239.66,-657.72 4233.33,-654.26"/>
</g>
<!-- x27&#45;&gt;c45 -->
<g id="edge28" class="edge">
<title>x27:e&#45;&gt;c45:w</title>
<path fill="none" stroke="black" stroke-width="3" d="M1529.16,-801.85C1606.04,-800.47 1629.41,-786.96 1712.34,-786.96 1712.34,-786.96 1712.34,-786.96 3881.23,-786.96 3990,-786.96 3996.08,-682.85 4096.83,-674.71"/>
<polygon fill="none" stroke="black" stroke-width="3" points="1531.05,-801.83 1525.08,-805.88 1519.05,-801.94 1525.01,-797.88 1531.05,-801.83"/>
<polygon fill="none" stroke="black" stroke-width="3" points="4094.91,-674.79 4100.75,-670.55 4106.9,-674.32 4101.06,-678.55 4094.91,-674.79"/>
</g>
<!-- x28&#45;&gt;x8 -->
<g id="edge38" class="edge">
<title>x28:e&#45;&gt;x8:w</title>
<path fill="none" stroke="black" stroke-width="3" d="M4312.48,-653.21C4337.38,-653.21 4345.85,-646.62 4366,-644.72"/>
<polygon fill="black" stroke="black" stroke-width="3" points="4362.98,-648.36 4372.82,-644.41 4362.67,-641.37 4362.98,-648.36"/>
</g>
<!-- c46&#45;&gt;c47 -->
<g id="edge42" class="edge">
<title>c46:e&#45;&gt;c47:w</title>
<path fill="none" stroke="black" stroke-width="3" d="M488.09,-603.21C503.98,-603.21 504.54,-585.86 513.48,-578"/>
<polygon fill="black" stroke="black" stroke-width="3" points="511.58,-582.4 519.81,-575.74 509.22,-575.8 511.58,-582.4"/>
</g>
<!-- x29 -->
<g id="node60" class="node">
<title>x29</title>
<path fill="none" stroke="black" d="M665.09,-468.46C665.09,-468.46 703.59,-468.46 703.59,-468.46 709.59,-468.46 715.59,-474.46 715.59,-480.46 715.59,-480.46 715.59,-505.46 715.59,-505.46 715.59,-511.46 709.59,-517.46 703.59,-517.46 703.59,-517.46 665.09,-517.46 665.09,-517.46 659.09,-517.46 653.09,-511.46 653.09,-505.46 653.09,-505.46 653.09,-480.46 653.09,-480.46 653.09,-474.46 659.09,-468.46 665.09,-468.46"/>
<text text-anchor="middle" x="684.34" y="-500.16" font-family="Times,serif" font-size="14.00">3:3 &#45; 5:5</text>
<polyline fill="none" stroke="black" points="653.09,-492.96 715.59,-492.96"/>
<text text-anchor="middle" x="684.34" y="-475.66" font-family="Times,serif" font-size="14.00">2:0 &#45; 2:0</text>
</g>
<!-- c47&#45;&gt;x29 -->
<g id="edge30" class="edge">
<title>c47:e&#45;&gt;x29:w</title>
<path fill="none" stroke="black" stroke-width="3" d="M628.89,-557.67C640.36,-545.15 629.85,-510.26 641.2,-497.61"/>
<polygon fill="none" stroke="black" stroke-width="3" points="630.81,-556.92 626.65,-562.81 619.61,-561.24 623.78,-555.35 630.81,-556.92"/>
<polygon fill="none" stroke="black" stroke-width="3" points="639.4,-498.32 643.53,-492.4 650.57,-493.94 646.44,-499.86 639.4,-498.32"/>
</g>
<!-- x29&#45;&gt;n18 -->
<g id="edge56" class="edge">
<title>x29:e&#45;&gt;n18:w</title>
<path fill="none" stroke="black" stroke-width="3" d="M715.59,-480.71C726.97,-480.71 732.28,-480.84 740.14,-480.91"/>
<polygon fill="black" stroke="black" stroke-width="3" points="737.03,-484.39 747.05,-480.94 737.07,-477.4 737.03,-484.39"/>
</g>
<!-- x29&#45;&gt;n18 -->
<g id="edge57" class="edge">
<title>x29:e&#45;&gt;n18:w</title>
<path fill="none" stroke="black" d="M715.59,-505.21C730.21,-505.21 732.27,-491.28 740.8,-484.54"/>
<polygon fill="black" stroke="black" points="741.76,-487.91 750.15,-481.44 739.56,-481.26 741.76,-487.91"/>
</g>
<!-- v30 -->
<g id="node61" class="node">
<title>v30</title>
<ellipse fill="none" stroke="black" cx="3416.1" cy="-327.96" rx="27" ry="18"/>
<text text-anchor="middle" x="3416.1" y="-322.91" font-family="Times,serif" font-size="14.00">1&#39;0</text>
</g>
<!-- v30&#45;&gt;c48 -->
<g id="edge107" class="edge">
<title>v30:e&#45;&gt;c48:w</title>
<path fill="none" stroke="black" d="M3444.35,-327.96C3470.35,-327.96 3475.85,-308.94 3496.08,-303.59"/>
<polygon fill="black" stroke="black" points="3496.35,-307.09 3505.85,-302.39 3495.5,-300.14 3496.35,-307.09"/>
</g>
<!-- x31 -->
<g id="node63" class="node">
<title>x31</title>
<path fill="none" stroke="black" d="M3648.35,-271.96C3648.35,-271.96 3686.85,-271.96 3686.85,-271.96 3692.85,-271.96 3698.85,-277.96 3698.85,-283.96 3698.85,-283.96 3698.85,-295.96 3698.85,-295.96 3698.85,-301.96 3692.85,-307.96 3686.85,-307.96 3686.85,-307.96 3648.35,-307.96 3648.35,-307.96 3642.35,-307.96 3636.35,-301.96 3636.35,-295.96 3636.35,-295.96 3636.35,-283.96 3636.35,-283.96 3636.35,-277.96 3642.35,-271.96 3648.35,-271.96"/>
<text text-anchor="middle" x="3667.6" y="-285.16" font-family="Times,serif" font-size="14.00">2:0 &#45; 2:0</text>
</g>
<!-- c48&#45;&gt;x31 -->
<g id="edge31" class="edge">
<title>c48:e&#45;&gt;x31:w</title>
<path fill="none" stroke="black" stroke-width="3" d="M3613.07,-290.15C3616.67,-290.11 3619.8,-290.06 3623.38,-290.03"/>
<polygon fill="none" stroke="black" stroke-width="3" points="3615.06,-290.14 3609.08,-294.17 3603.06,-290.2 3609.04,-286.17 3615.06,-290.14"/>
<polygon fill="none" stroke="black" stroke-width="3" points="3621.65,-290.03 3627.63,-286 3633.65,-289.97 3627.67,-294 3621.65,-290.03"/>
</g>
<!-- x31&#45;&gt;x22 -->
<g id="edge39" class="edge">
<title>x31:e&#45;&gt;x22:w</title>
<path fill="none" stroke="black" stroke-width="3" d="M3698.85,-290.21C3710.23,-290.21 3715.54,-290.21 3723.4,-290.21"/>
<polygon fill="black" stroke="black" stroke-width="3" points="3720.31,-293.71 3730.31,-290.21 3720.31,-286.71 3720.31,-293.71"/>
</g>
<!-- c49&#45;&gt;n23 -->
<g id="edge90" class="edge">
<title>c49:e&#45;&gt;n23:w</title>
<path fill="none" stroke="black" stroke-width="3" d="M4456.1,-217.21C4524.07,-217.21 4432.25,-357.32 4480.87,-374.28"/>
<polygon fill="black" stroke="black" stroke-width="3" points="4477.2,-377.28 4487.61,-375.29 4478.24,-370.35 4477.2,-377.28"/>
</g>
<!-- x32&#45;&gt;c49 -->
<g id="edge32" class="edge">
<title>x32:e&#45;&gt;c49:w</title>
<path fill="none" stroke="black" stroke-width="3" d="M1856,-67.24C1933.27,-70.72 1954.06,-104.96 2037.72,-104.96 2037.72,-104.96 2037.72,-104.96 4154.48,-104.96 4201.95,-104.96 4295.91,-190.09 4350.46,-203.06"/>
<polygon fill="none" stroke="black" stroke-width="3" points="1857.79,-67.28 1851.71,-71.15 1845.8,-67.02 1851.88,-63.15 1857.79,-67.28"/>
<polygon fill="none" stroke="black" stroke-width="3" points="4348.52,-202.81 4354.99,-199.62 4360.42,-204.36 4353.95,-207.55 4348.52,-202.81"/>
</g>
<!-- x33 -->
<g id="node67" class="node">
<title>x33</title>
<path fill="none" stroke="black" d="M3261.73,-616.96C3261.73,-616.96 3300.23,-616.96 3300.23,-616.96 3306.23,-616.96 3312.23,-622.96 3312.23,-628.96 3312.23,-628.96 3312.23,-640.96 3312.23,-640.96 3312.23,-646.96 3306.23,-652.96 3300.23,-652.96 3300.23,-652.96 3261.73,-652.96 3261.73,-652.96 3255.73,-652.96 3249.73,-646.96 3249.73,-640.96 3249.73,-640.96 3249.73,-628.96 3249.73,-628.96 3249.73,-622.96 3255.73,-616.96 3261.73,-616.96"/>
<text text-anchor="middle" x="3280.98" y="-630.16" font-family="Times,serif" font-size="14.00">5:0 &#45; 5:0</text>
</g>
<!-- c50&#45;&gt;x33 -->
<g id="edge33" class="edge">
<title>c50:e&#45;&gt;x33:w</title>
<path fill="none" stroke="black" stroke-width="3" d="M3213.79,-632.59C3221.93,-633.11 3227.72,-634.04 3235.81,-634.56"/>
<polygon fill="none" stroke="black" stroke-width="3" points="3215.8,-632.65 3209.68,-636.47 3203.8,-632.29 3209.92,-628.47 3215.8,-632.65"/>
<polygon fill="none" stroke="black" stroke-width="3" points="3234.03,-634.51 3240.15,-630.69 3246.02,-634.88 3239.9,-638.69 3234.03,-634.51"/>
</g>
<!-- x33&#45;&gt;x24 -->
<g id="edge40" class="edge">
<title>x33:e&#45;&gt;x24:w</title>
<path fill="none" stroke="black" stroke-width="3" d="M3313.23,-635.21C3362.39,-635.21 3335.61,-717.65 3372.9,-730.53"/>
<polygon fill="black" stroke="black" stroke-width="3" points="3368.95,-733.46 3379.36,-731.52 3370.01,-726.54 3368.95,-733.46"/>
</g>
<!-- v34 -->
<g id="node68" class="node">
<title>v34</title>
<ellipse fill="none" stroke="black" cx="1599.22" cy="-360.96" rx="30.88" ry="18"/>
<text text-anchor="middle" x="1599.22" y="-355.91" font-family="Times,serif" font-size="14.00">3&#39;000</text>
</g>
<!-- x35 -->
<g id="node69" class="node">
<title>x35</title>
<path fill="none" stroke="black" d="M1694.09,-342.96C1694.09,-342.96 1732.59,-342.96 1732.59,-342.96 1738.59,-342.96 1744.59,-348.96 1744.59,-354.96 1744.59,-354.96 1744.59,-366.96 1744.59,-366.96 1744.59,-372.96 1738.59,-378.96 1732.59,-378.96 1732.59,-378.96 1694.09,-378.96 1694.09,-378.96 1688.09,-378.96 1682.09,-372.96 1682.09,-366.96 1682.09,-366.96 1682.09,-354.96 1682.09,-354.96 1682.09,-348.96 1688.09,-342.96 1694.09,-342.96"/>
<text text-anchor="middle" x="1713.34" y="-356.16" font-family="Times,serif" font-size="14.00">2:0 &#45; 5:3</text>
</g>
<!-- v34&#45;&gt;x35 -->
<g id="edge108" class="edge">
<title>v34:e&#45;&gt;x35:w</title>
<path fill="none" stroke="black" stroke-width="3" d="M1631.39,-360.96C1649.7,-360.96 1656.85,-360.96 1670.98,-360.96"/>
<polygon fill="black" stroke="black" stroke-width="3" points="1667.55,-364.46 1677.55,-360.96 1667.55,-357.46 1667.55,-364.46"/>
</g>
<!-- x35&#45;&gt;n4 -->
<g id="edge98" class="edge">
<title>x35:e&#45;&gt;n4:w</title>
<path fill="none" stroke="black" stroke-width="3" d="M1744.59,-361.21C1768.81,-361.21 1777.55,-361.03 1797.17,-360.97"/>
<polygon fill="black" stroke="black" stroke-width="3" points="1794.03,-364.48 1804.03,-360.97 1794.02,-357.48 1794.03,-364.48"/>
</g>
<!-- x37 -->
<g id="node71" class="node">
<title>x37</title>
<path fill="none" stroke="black" d="M1041.47,-276.96C1041.47,-276.96 1079.97,-276.96 1079.97,-276.96 1085.97,-276.96 1091.97,-282.96 1091.97,-288.96 1091.97,-288.96 1091.97,-300.96 1091.97,-300.96 1091.97,-306.96 1085.97,-312.96 1079.97,-312.96 1079.97,-312.96 1041.47,-312.96 1041.47,-312.96 1035.47,-312.96 1029.47,-306.96 1029.47,-300.96 1029.47,-300.96 1029.47,-288.96 1029.47,-288.96 1029.47,-282.96 1035.47,-276.96 1041.47,-276.96"/>
<text text-anchor="middle" x="1060.72" y="-290.16" font-family="Times,serif" font-size="14.00">1:0 &#45; 4:3</text>
</g>
<!-- x36&#45;&gt;x37 -->
<g id="edge34" class="edge">
<title>x36:e&#45;&gt;x37:w</title>
<path fill="none" stroke="black" stroke-width="3" d="M990.64,-287.06C1000.03,-288.79 1006.24,-292.11 1015.62,-293.85"/>
<polygon fill="none" stroke="black" stroke-width="3" points="992.49,-287.22 986.17,-290.69 980.54,-286.19 986.86,-282.72 992.49,-287.22"/>
<polygon fill="none" stroke="black" stroke-width="3" points="1013.82,-293.69 1020.14,-290.22 1025.77,-294.73 1019.45,-298.19 1013.82,-293.69"/>
</g>
<!-- x37&#45;&gt;n18 -->
<g id="edge58" class="edge">
<title>x37:e&#45;&gt;n18:w</title>
<path fill="none" stroke="black" stroke-width="3" d="M1092.97,-295.21C1101.09,-295.21 1097.29,-307.32 1091.97,-313.46 1068.76,-340.19 1048.41,-321.35 1013.84,-328.96 962.15,-340.33 935.72,-319.74 898.09,-356.96 851.8,-402.74 913.48,-458.98 862.09,-498.96 822.85,-529.49 786.34,-533.13 750.21,-498.96 748.21,-497.07 746.52,-494.35 745.49,-491.6"/>
<polygon fill="black" stroke="black" stroke-width="3" points="747.72,-495.84 747.71,-485.25 741.11,-493.53 747.72,-495.84"/>
</g>
<!-- x39 -->
<g id="node73" class="node">
<title>x39</title>
<path fill="none" stroke="black" d="M2019.47,-236.96C2019.47,-236.96 2057.97,-236.96 2057.97,-236.96 2063.97,-236.96 2069.97,-242.96 2069.97,-248.96 2069.97,-248.96 2069.97,-260.96 2069.97,-260.96 2069.97,-266.96 2063.97,-272.96 2057.97,-272.96 2057.97,-272.96 2019.47,-272.96 2019.47,-272.96 2013.47,-272.96 2007.47,-266.96 2007.47,-260.96 2007.47,-260.96 2007.47,-248.96 2007.47,-248.96 2007.47,-242.96 2013.47,-236.96 2019.47,-236.96"/>
<text text-anchor="middle" x="2038.72" y="-250.16" font-family="Times,serif" font-size="14.00">2:0 &#45; 5:3</text>
</g>
<!-- x38&#45;&gt;x39 -->
<g id="edge35" class="edge">
<title>x38:e&#45;&gt;x39:w</title>
<path fill="none" stroke="black" stroke-width="3" d="M990.89,-231.06C1078.23,-232.39 1104.31,-246.96 1197.84,-246.96 1197.84,-246.96 1197.84,-246.96 1812.84,-246.96 1894.6,-246.96 1918,-254.17 1993.83,-254.9"/>
<polygon fill="none" stroke="black" stroke-width="3" points="992.55,-231.07 986.52,-235.02 980.55,-230.98 986.58,-227.02 992.55,-231.07"/>
<polygon fill="none" stroke="black" stroke-width="3" points="1991.77,-254.89 1997.78,-250.92 2003.76,-254.95 1997.75,-258.92 1991.77,-254.89"/>
</g>
<!-- x39&#45;&gt;n19 -->
<g id="edge78" class="edge">
<title>x39:e&#45;&gt;n19:w</title>
<path fill="none" stroke="black" stroke-width="3" d="M2070.97,-255.21C2134.29,-255.21 2149.06,-269.09 2210.09,-285.96 2221.91,-289.22 2226.65,-294.08 2234.84,-296.49"/>
<polygon fill="black" stroke="black" stroke-width="3" points="2231.22,-299.55 2241.59,-297.37 2232.13,-292.61 2231.22,-299.55"/>
</g>
<!-- x41 -->
<g id="node75" class="node">
<title>x41</title>
<path fill="none" stroke="black" d="M1179.59,-681.96C1179.59,-681.96 1218.09,-681.96 1218.09,-681.96 1224.09,-681.96 1230.09,-687.96 1230.09,-693.96 1230.09,-693.96 1230.09,-705.96 1230.09,-705.96 1230.09,-711.96 1224.09,-717.96 1218.09,-717.96 1218.09,-717.96 1179.59,-717.96 1179.59,-717.96 1173.59,-717.96 1167.59,-711.96 1167.59,-705.96 1167.59,-705.96 1167.59,-693.96 1167.59,-693.96 1167.59,-687.96 1173.59,-681.96 1179.59,-681.96"/>
<text text-anchor="middle" x="1198.84" y="-695.16" font-family="Times,serif" font-size="14.00">2:0 &#45; 5:3</text>
</g>
<!-- x40&#45;&gt;x41 -->
<g id="edge36" class="edge">
<title>x40:e&#45;&gt;x41:w</title>
<path fill="none" stroke="black" stroke-width="3" d="M990.64,-686.07C1060.13,-687.32 1084.18,-698.57 1153.58,-699.84"/>
<polygon fill="none" stroke="black" stroke-width="3" points="992.55,-686.09 986.51,-690.04 980.55,-685.98 986.58,-682.04 992.55,-686.09"/>
<polygon fill="none" stroke="black" stroke-width="3" points="1151.89,-699.83 1157.92,-695.88 1163.89,-699.94 1157.85,-703.88 1151.89,-699.83"/>
</g>
<!-- x41&#45;&gt;n20 -->
<g id="edge83" class="edge">
<title>x41:e&#45;&gt;n20:w</title>
<path fill="none" stroke="black" stroke-width="3" d="M1231.09,-700.21C1266.95,-700.21 1253.8,-754.74 1278.94,-766.67"/>
<polygon fill="black" stroke="black" stroke-width="3" points="1275.15,-769.47 1285.64,-768.05 1276.55,-762.61 1275.15,-769.47"/>
</g>
<!-- v42 -->
<g id="node76" class="node">
<title>v42</title>
<ellipse fill="none" stroke="black" cx="1060.72" cy="-426.96" rx="30.88" ry="18"/>
<text text-anchor="middle" x="1060.72" y="-421.91" font-family="Times,serif" font-size="14.00">3&#39;000</text>
</g>
<!-- x43 -->
<g id="node77" class="node">
<title>x43</title>
<path fill="none" stroke="black" d="M1179.59,-411.96C1179.59,-411.96 1218.09,-411.96 1218.09,-411.96 1224.09,-411.96 1230.09,-417.96 1230.09,-423.96 1230.09,-423.96 1230.09,-435.96 1230.09,-435.96 1230.09,-441.96 1224.09,-447.96 1218.09,-447.96 1218.09,-447.96 1179.59,-447.96 1179.59,-447.96 1173.59,-447.96 1167.59,-441.96 1167.59,-435.96 1167.59,-435.96 1167.59,-423.96 1167.59,-423.96 1167.59,-417.96 1173.59,-411.96 1179.59,-411.96"/>
<text text-anchor="middle" x="1198.84" y="-425.16" font-family="Times,serif" font-size="14.00">2:0 &#45; 5:3</text>
</g>
<!-- v42&#45;&gt;x43 -->
<g id="edge109" class="edge">
<title>v42:e&#45;&gt;x43:w</title>
<path fill="none" stroke="black" stroke-width="3" d="M1092.89,-426.96C1121.57,-426.96 1131.39,-429.26 1155.36,-429.83"/>
<polygon fill="black" stroke="black" stroke-width="3" points="1152.01,-433.29 1162.05,-429.91 1152.09,-426.29 1152.01,-433.29"/>
</g>
<!-- x43&#45;&gt;n3 -->
<g id="edge95" class="edge">
<title>x43:e&#45;&gt;n3:w</title>
<path fill="none" stroke="black" stroke-width="3" d="M1231.09,-430.21C1276.45,-430.21 1290.41,-435.9 1330.62,-436.83"/>
<polygon fill="black" stroke="black" stroke-width="3" points="1327.49,-440.3 1337.53,-436.91 1327.57,-433.3 1327.49,-440.3"/>
</g>
<!-- n3&#45;&gt;x13 -->
<g id="edge96" class="edge">
<title>n3:e&#45;&gt;x13:w</title>
<path fill="none" stroke="black" stroke-width="3" d="M1348.62,-436.96C1387.13,-436.96 1399.46,-437.16 1433.06,-437.2"/>
<polygon fill="black" stroke="black" stroke-width="3" points="1429.68,-440.7 1439.68,-437.21 1429.68,-433.7 1429.68,-440.7"/>
</g>
<!-- n4&#45;&gt;x16 -->
<g id="edge99" class="edge">
<title>n4:e&#45;&gt;x16:w</title>
<path fill="none" stroke="black" stroke-width="3" d="M1815.12,-360.96C1842.88,-360.96 1852.43,-358.11 1875.49,-357.38"/>
<polygon fill="black" stroke="black" stroke-width="3" points="1872.23,-360.93 1882.18,-357.28 1872.13,-353.93 1872.23,-360.93"/>
</g>
<!-- n6&#45;&gt;x1 -->
<g id="edge102" class="edge">
<title>n6:e&#45;&gt;x1:w</title>
<path fill="none" stroke="black" stroke-width="3" d="M2622.2,-593.96C2634.47,-593.96 2638.99,-587.49 2647.03,-583.96"/>
<polygon fill="black" stroke="black" stroke-width="3" points="2644.63,-588.01 2653.74,-582.61 2643.25,-581.15 2644.63,-588.01"/>
</g>
<!-- n6&#45;&gt;x1 -->
<g id="edge103" class="edge">
<title>n6:e&#45;&gt;x1:w</title>
<path fill="none" stroke="black" stroke-width="3" d="M2622.2,-593.96C2634.47,-593.96 2638.99,-600.43 2647.03,-603.96"/>
<polygon fill="black" stroke="black" stroke-width="3" points="2643.25,-606.77 2653.74,-605.31 2644.63,-599.91 2643.25,-606.77"/>
</g>
</g>
</svg>
