<?xml version="1.0" encoding="UTF-8" standalone="no"?>
<!DOCTYPE svg PUBLIC "-//W3C//DTD SVG 1.1//EN"
 "http://www.w3.org/Graphics/SVG/1.1/DTD/svg11.dtd">
<!-- Generated by graphviz version 12.2.1 (20241206.2353)
 -->
<!-- Title: top Pages: 1 -->
<svg width="3952pt" height="441pt"
 viewBox="0.00 0.00 3952.04 440.73" xmlns="http://www.w3.org/2000/svg" xmlns:xlink="http://www.w3.org/1999/xlink">
<g id="graph0" class="graph" transform="scale(1 1) rotate(0) translate(4 436.73)">
<title>top</title>
<polygon fill="white" stroke="none" points="-4,4 -4,-436.73 3948.04,-436.73 3948.04,4 -4,4"/>
<text text-anchor="middle" x="1972.02" y="-7.2" font-family="Times,serif" font-size="14.00">top</text>
<!-- n10 -->
<g id="node1" class="node">
<title>n10</title>
<polygon fill="none" stroke="black" points="107.84,-274.04 107.84,-288.96 76.26,-299.5 31.59,-299.5 0,-288.96 0,-274.04 31.59,-263.5 76.26,-263.5 107.84,-274.04"/>
<text text-anchor="middle" x="53.92" y="-276.45" font-family="Times,serif" font-size="14.00">input_data</text>
</g>
<!-- c19 -->
<g id="node7" class="node">
<title>c19</title>
<polygon fill="none" stroke="black" points="904.59,-335 904.59,-384 998.34,-384 998.34,-335 904.59,-335"/>
<text text-anchor="middle" x="917.47" y="-366.7" font-family="Times,serif" font-size="14.00">A</text>
<polyline fill="none" stroke="black" points="904.59,-359.5 930.34,-359.5"/>
<text text-anchor="middle" x="917.47" y="-342.2" font-family="Times,serif" font-size="14.00">B</text>
<polyline fill="none" stroke="black" points="930.34,-335 930.34,-384"/>
<text text-anchor="middle" x="951.47" y="-362.7" font-family="Times,serif" font-size="14.00">$5</text>
<text text-anchor="middle" x="951.47" y="-346.2" font-family="Times,serif" font-size="14.00">$add</text>
<polyline fill="none" stroke="black" points="972.59,-335 972.59,-384"/>
<text text-anchor="middle" x="985.47" y="-354.7" font-family="Times,serif" font-size="14.00">Y</text>
</g>
<!-- n10&#45;&gt;c19 -->
<g id="edge25" class="edge">
<title>n10:e&#45;&gt;c19:w</title>
<path fill="none" stroke="black" stroke-width="3" d="M107.84,-281.5C133.8,-281.5 122.81,-312.27 143.84,-327.5 207.38,-373.51 231.39,-387.5 309.84,-387.5 309.84,-387.5 309.84,-387.5 675.09,-387.5 773.44,-387.5 800.33,-372.93 893.24,-371.82"/>
<polygon fill="black" stroke="black" stroke-width="3" points="890.07,-375.34 900.05,-371.78 890.03,-368.34 890.07,-375.34"/>
</g>
<!-- x2 -->
<g id="node12" class="node">
<title>x2</title>
<path fill="none" stroke="black" d="M291.59,-83.5C291.59,-83.5 330.09,-83.5 330.09,-83.5 336.09,-83.5 342.09,-89.5 342.09,-95.5 342.09,-95.5 342.09,-107.5 342.09,-107.5 342.09,-113.5 336.09,-119.5 330.09,-119.5 330.09,-119.5 291.59,-119.5 291.59,-119.5 285.59,-119.5 279.59,-113.5 279.59,-107.5 279.59,-107.5 279.59,-95.5 279.59,-95.5 279.59,-89.5 285.59,-83.5 291.59,-83.5"/>
<text text-anchor="middle" x="310.84" y="-96.7" font-family="Times,serif" font-size="14.00">2:0 &#45; 2:0</text>
</g>
<!-- n10&#45;&gt;x2 -->
<g id="edge31" class="edge">
<title>n10:e&#45;&gt;x2:w</title>
<path fill="none" stroke="black" stroke-width="3" d="M107.84,-281.5C174.67,-281.5 96.67,-182.84 143.84,-135.5 184.69,-94.5 213.12,-100.71 267.38,-101.65"/>
<polygon fill="black" stroke="black" stroke-width="3" points="264.02,-105.12 274.05,-101.71 264.08,-98.12 264.02,-105.12"/>
</g>
<!-- x12 -->
<g id="node26" class="node">
<title>x12</title>
<path fill="none" stroke="black" d="M396.84,-310C396.84,-310 435.34,-310 435.34,-310 441.34,-310 447.34,-316 447.34,-322 447.34,-322 447.34,-347 447.34,-347 447.34,-353 441.34,-359 435.34,-359 435.34,-359 396.84,-359 396.84,-359 390.84,-359 384.84,-353 384.84,-347 384.84,-347 384.84,-322 384.84,-322 384.84,-316 390.84,-310 396.84,-310"/>
<text text-anchor="middle" x="416.09" y="-341.7" font-family="Times,serif" font-size="14.00">0 &#45;&gt; 5:5</text>
<polyline fill="none" stroke="black" points="384.84,-334.5 447.34,-334.5"/>
<text text-anchor="middle" x="416.09" y="-317.2" font-family="Times,serif" font-size="14.00">4:0 &#45; 4:0</text>
</g>
<!-- n10&#45;&gt;x12 -->
<g id="edge30" class="edge">
<title>n10:e&#45;&gt;x12:w</title>
<path fill="none" stroke="black" stroke-width="3" d="M107.84,-281.5C126.59,-281.5 126,-297.72 143.84,-303.5 242.36,-335.39 275.05,-323.22 373.49,-322.3"/>
<polygon fill="black" stroke="black" stroke-width="3" points="370.32,-325.82 380.3,-322.27 370.28,-318.82 370.32,-325.82"/>
</g>
<!-- c26 -->
<g id="node27" class="node">
<title>c26</title>
<polygon fill="none" stroke="black" points="143.84,-245 143.84,-294 236.84,-294 236.84,-245 143.84,-245"/>
<text text-anchor="middle" x="156.72" y="-276.7" font-family="Times,serif" font-size="14.00">A</text>
<polyline fill="none" stroke="black" points="143.84,-269.5 169.59,-269.5"/>
<text text-anchor="middle" x="156.72" y="-252.2" font-family="Times,serif" font-size="14.00">B</text>
<polyline fill="none" stroke="black" points="169.59,-245 169.59,-294"/>
<text text-anchor="middle" x="190.34" y="-272.7" font-family="Times,serif" font-size="14.00">$1</text>
<text text-anchor="middle" x="190.34" y="-256.2" font-family="Times,serif" font-size="14.00">$sub</text>
<polyline fill="none" stroke="black" points="211.09,-245 211.09,-294"/>
<text text-anchor="middle" x="223.97" y="-264.7" font-family="Times,serif" font-size="14.00">Y</text>
</g>
<!-- n10&#45;&gt;c26 -->
<g id="edge26" class="edge">
<title>n10:e&#45;&gt;c26:w</title>
<path fill="none" stroke="black" stroke-width="3" d="M107.84,-281.5C119.22,-281.5 124.53,-281.63 132.39,-281.7"/>
<polygon fill="black" stroke="black" stroke-width="3" points="129.28,-285.19 139.3,-281.73 129.32,-278.19 129.28,-285.19"/>
</g>
<!-- n10&#45;&gt;c26 -->
<g id="edge27" class="edge">
<title>n10:e&#45;&gt;c26:w</title>
<path fill="none" stroke="black" stroke-width="3" d="M107.84,-281.5C122.46,-281.5 124.52,-267.57 133.05,-260.83"/>
<polygon fill="black" stroke="black" stroke-width="3" points="131.14,-265.15 139.53,-258.68 128.94,-258.51 131.14,-265.15"/>
</g>
<!-- c28 -->
<g id="node33" class="node">
<title>c28</title>
<polygon fill="none" stroke="black" points="2950.79,-144 2950.79,-193 3043.79,-193 3043.79,-144 2950.79,-144"/>
<text text-anchor="middle" x="2963.67" y="-175.7" font-family="Times,serif" font-size="14.00">A</text>
<polyline fill="none" stroke="black" points="2950.79,-168.5 2976.54,-168.5"/>
<text text-anchor="middle" x="2963.67" y="-151.2" font-family="Times,serif" font-size="14.00">B</text>
<polyline fill="none" stroke="black" points="2976.54,-144 2976.54,-193"/>
<text text-anchor="middle" x="2997.29" y="-171.7" font-family="Times,serif" font-size="14.00">$11</text>
<text text-anchor="middle" x="2997.29" y="-155.2" font-family="Times,serif" font-size="14.00">$sub</text>
<polyline fill="none" stroke="black" points="3018.04,-144 3018.04,-193"/>
<text text-anchor="middle" x="3030.92" y="-163.7" font-family="Times,serif" font-size="14.00">Y</text>
</g>
<!-- n10&#45;&gt;c28 -->
<g id="edge28" class="edge">
<title>n10:e&#45;&gt;c28:w</title>
<path fill="none" stroke="black" stroke-width="3" d="M107.84,-281.5C133.8,-281.5 123.86,-252.07 143.84,-235.5 207.8,-182.46 226.75,-149.5 309.84,-149.5 309.84,-149.5 309.84,-149.5 417.09,-149.5 711.83,-149.5 785.48,-156.5 1080.22,-156.5 1080.22,-156.5 1080.22,-156.5 2742.67,-156.5 2831.28,-156.5 2856.23,-156.27 2939.5,-156.25"/>
<polygon fill="black" stroke="black" stroke-width="3" points="2936.25,-159.75 2946.25,-156.25 2936.25,-152.75 2936.25,-159.75"/>
</g>
<!-- c29 -->
<g id="node35" class="node">
<title>c29</title>
<polygon fill="none" stroke="black" points="2037.84,-339 2037.84,-388 2130.84,-388 2130.84,-339 2037.84,-339"/>
<text text-anchor="middle" x="2050.72" y="-370.7" font-family="Times,serif" font-size="14.00">A</text>
<polyline fill="none" stroke="black" points="2037.84,-363.5 2063.59,-363.5"/>
<text text-anchor="middle" x="2050.72" y="-346.2" font-family="Times,serif" font-size="14.00">B</text>
<polyline fill="none" stroke="black" points="2063.59,-339 2063.59,-388"/>
<text text-anchor="middle" x="2084.34" y="-366.7" font-family="Times,serif" font-size="14.00">$9</text>
<text text-anchor="middle" x="2084.34" y="-350.2" font-family="Times,serif" font-size="14.00">$sub</text>
<polyline fill="none" stroke="black" points="2105.09,-339 2105.09,-388"/>
<text text-anchor="middle" x="2117.97" y="-358.7" font-family="Times,serif" font-size="14.00">Y</text>
</g>
<!-- n10&#45;&gt;c29 -->
<g id="edge29" class="edge">
<title>n10:e&#45;&gt;c29:w</title>
<path fill="none" stroke="black" stroke-width="3" d="M107.84,-281.5C149.28,-281.5 113.67,-339.1 143.84,-367.5 200.74,-421.07 231.69,-425.5 309.84,-425.5 309.84,-425.5 309.84,-425.5 1804.84,-425.5 1892.85,-425.5 1926.5,-450.98 2001.84,-405.5 2022.55,-393 2013.57,-363.49 2026.97,-354.14"/>
<polygon fill="black" stroke="black" stroke-width="3" points="2024.69,-358.37 2033.46,-352.42 2022.89,-351.61 2024.69,-358.37"/>
</g>
<!-- n11 -->
<g id="node2" class="node">
<title>n11</title>
<polygon fill="none" stroke="black" points="3944.04,-80.04 3944.04,-94.96 3909.53,-105.5 3860.73,-105.5 3826.23,-94.96 3826.23,-80.04 3860.73,-69.5 3909.53,-69.5 3944.04,-80.04"/>
<text text-anchor="middle" x="3885.13" y="-82.45" font-family="Times,serif" font-size="14.00">output_data</text>
</g>
<!-- n12 -->
<g id="node3" class="node">
<title>n12</title>
<polygon fill="none" stroke="black" points="813.34,-299.5 758.09,-281.5 813.34,-263.5 868.59,-281.5 813.34,-299.5"/>
<text text-anchor="middle" x="813.34" y="-276.45" font-family="Times,serif" font-size="14.00">temp_1</text>
</g>
<!-- c18 -->
<g id="node6" class="node">
<title>c18</title>
<polygon fill="none" stroke="black" points="904.59,-195 904.59,-244 998.34,-244 998.34,-195 904.59,-195"/>
<text text-anchor="middle" x="917.47" y="-226.7" font-family="Times,serif" font-size="14.00">A</text>
<polyline fill="none" stroke="black" points="904.59,-219.5 930.34,-219.5"/>
<text text-anchor="middle" x="917.47" y="-202.2" font-family="Times,serif" font-size="14.00">B</text>
<polyline fill="none" stroke="black" points="930.34,-195 930.34,-244"/>
<text text-anchor="middle" x="951.47" y="-222.7" font-family="Times,serif" font-size="14.00">$3</text>
<text text-anchor="middle" x="951.47" y="-206.2" font-family="Times,serif" font-size="14.00">$add</text>
<polyline fill="none" stroke="black" points="972.59,-195 972.59,-244"/>
<text text-anchor="middle" x="985.47" y="-214.7" font-family="Times,serif" font-size="14.00">Y</text>
</g>
<!-- n12&#45;&gt;c18 -->
<g id="edge34" class="edge">
<title>n12:e&#45;&gt;c18:w</title>
<path fill="none" stroke="black" stroke-width="3" d="M868.59,-281.5C891.19,-281.5 882.33,-247.38 894.12,-235.65"/>
<polygon fill="black" stroke="black" stroke-width="3" points="892.19,-240.11 900.34,-233.34 889.74,-233.55 892.19,-240.11"/>
</g>
<!-- n12&#45;&gt;c18 -->
<g id="edge35" class="edge">
<title>n12:e&#45;&gt;c18:w</title>
<path fill="none" stroke="black" stroke-width="3" d="M868.59,-281.5C900.68,-281.5 876.1,-224.65 894.02,-210.44"/>
<polygon fill="black" stroke="black" stroke-width="3" points="891.68,-214.8 900.24,-208.56 889.66,-208.1 891.68,-214.8"/>
</g>
<!-- n12&#45;&gt;c19 -->
<g id="edge36" class="edge">
<title>n12:e&#45;&gt;c19:w</title>
<path fill="none" stroke="black" stroke-width="3" d="M868.59,-281.5C897.22,-281.5 878.63,-330.06 893.97,-343.71"/>
<polygon fill="black" stroke="black" stroke-width="3" points="889.69,-345.98 900.28,-345.82 891.9,-339.34 889.69,-345.98"/>
</g>
<!-- x5 -->
<g id="node16" class="node">
<title>x5</title>
<path fill="none" stroke="black" d="M932.22,-263.5C932.22,-263.5 970.72,-263.5 970.72,-263.5 976.72,-263.5 982.72,-269.5 982.72,-275.5 982.72,-275.5 982.72,-287.5 982.72,-287.5 982.72,-293.5 976.72,-299.5 970.72,-299.5 970.72,-299.5 932.22,-299.5 932.22,-299.5 926.22,-299.5 920.22,-293.5 920.22,-287.5 920.22,-287.5 920.22,-275.5 920.22,-275.5 920.22,-269.5 926.22,-263.5 932.22,-263.5"/>
<text text-anchor="middle" x="951.47" y="-276.7" font-family="Times,serif" font-size="14.00">1:1 &#45; 0:0</text>
</g>
<!-- n12&#45;&gt;x5 -->
<g id="edge37" class="edge">
<title>n12:e&#45;&gt;x5:w</title>
<path fill="none" stroke="black" d="M868.59,-281.5C886.7,-281.5 893.88,-281.66 907.71,-281.73"/>
<polygon fill="black" stroke="black" points="907.7,-285.22 917.7,-281.75 907.71,-278.23 907.7,-285.22"/>
</g>
<!-- n13 -->
<g id="node4" class="node">
<title>n13</title>
<polygon fill="none" stroke="black" points="1317.84,-121.5 1262.59,-103.5 1317.84,-85.5 1373.09,-103.5 1317.84,-121.5"/>
<text text-anchor="middle" x="1317.84" y="-98.45" font-family="Times,serif" font-size="14.00">temp_2</text>
</g>
<!-- x1 -->
<g id="node10" class="node">
<title>x1</title>
<path fill="none" stroke="black" d="M1534.84,-35C1534.84,-35 1573.34,-35 1573.34,-35 1579.34,-35 1585.34,-41 1585.34,-47 1585.34,-47 1585.34,-72 1585.34,-72 1585.34,-78 1579.34,-84 1573.34,-84 1573.34,-84 1534.84,-84 1534.84,-84 1528.84,-84 1522.84,-78 1522.84,-72 1522.84,-72 1522.84,-47 1522.84,-47 1522.84,-41 1528.84,-35 1534.84,-35"/>
<text text-anchor="middle" x="1554.09" y="-66.7" font-family="Times,serif" font-size="14.00">0 &#45;&gt; 4:3</text>
<polyline fill="none" stroke="black" points="1522.84,-59.5 1585.34,-59.5"/>
<text text-anchor="middle" x="1554.09" y="-42.2" font-family="Times,serif" font-size="14.00">2:0 &#45; 2:0</text>
</g>
<!-- n13&#45;&gt;x1 -->
<g id="edge41" class="edge">
<title>n13:e&#45;&gt;x1:w</title>
<path fill="none" stroke="black" stroke-width="3" d="M1373.09,-103.5C1439.77,-103.5 1450.12,-53.44 1510.42,-47.77"/>
<polygon fill="black" stroke="black" stroke-width="3" points="1507.48,-51.41 1517.31,-47.46 1507.16,-44.42 1507.48,-51.41"/>
</g>
<!-- x9 -->
<g id="node22" class="node">
<title>x9</title>
<path fill="none" stroke="black" d="M1655.34,-91.5C1655.34,-91.5 1693.84,-91.5 1693.84,-91.5 1699.84,-91.5 1705.84,-97.5 1705.84,-103.5 1705.84,-103.5 1705.84,-115.5 1705.84,-115.5 1705.84,-121.5 1699.84,-127.5 1693.84,-127.5 1693.84,-127.5 1655.34,-127.5 1655.34,-127.5 1649.34,-127.5 1643.34,-121.5 1643.34,-115.5 1643.34,-115.5 1643.34,-103.5 1643.34,-103.5 1643.34,-97.5 1649.34,-91.5 1655.34,-91.5"/>
<text text-anchor="middle" x="1674.59" y="-104.7" font-family="Times,serif" font-size="14.00">2:0 &#45; 2:0</text>
</g>
<!-- n13&#45;&gt;x9 -->
<g id="edge42" class="edge">
<title>n13:e&#45;&gt;x9:w</title>
<path fill="none" stroke="black" stroke-width="3" d="M1373.09,-103.5C1488.93,-103.5 1520.63,-109.35 1631.04,-109.73"/>
<polygon fill="black" stroke="black" stroke-width="3" points="1627.8,-113.23 1637.8,-109.74 1627.81,-106.23 1627.8,-113.23"/>
</g>
<!-- x15 -->
<g id="node31" class="node">
<title>x15</title>
<path fill="none" stroke="black" d="M1421.09,-202C1421.09,-202 1459.59,-202 1459.59,-202 1465.59,-202 1471.59,-208 1471.59,-214 1471.59,-214 1471.59,-239 1471.59,-239 1471.59,-245 1465.59,-251 1459.59,-251 1459.59,-251 1421.09,-251 1421.09,-251 1415.09,-251 1409.09,-245 1409.09,-239 1409.09,-239 1409.09,-214 1409.09,-214 1409.09,-208 1415.09,-202 1421.09,-202"/>
<text text-anchor="middle" x="1440.34" y="-233.7" font-family="Times,serif" font-size="14.00">0 &#45;&gt; 4:3</text>
<polyline fill="none" stroke="black" points="1409.09,-226.5 1471.59,-226.5"/>
<text text-anchor="middle" x="1440.34" y="-209.2" font-family="Times,serif" font-size="14.00">2:0 &#45; 2:0</text>
</g>
<!-- n13&#45;&gt;x15 -->
<g id="edge40" class="edge">
<title>n13:e&#45;&gt;x15:w</title>
<path fill="none" stroke="black" stroke-width="3" d="M1373.09,-103.5C1420.4,-103.5 1368.06,-196.03 1398.24,-211.94"/>
<polygon fill="black" stroke="black" stroke-width="3" points="1394.14,-214.64 1404.65,-213.3 1395.6,-207.8 1394.14,-214.64"/>
</g>
<!-- n14 -->
<g id="node5" class="node">
<title>n14</title>
<polygon fill="none" stroke="black" points="1803.84,-316.5 1748.59,-298.5 1803.84,-280.5 1859.09,-298.5 1803.84,-316.5"/>
<text text-anchor="middle" x="1803.84" y="-293.45" font-family="Times,serif" font-size="14.00">temp_3</text>
</g>
<!-- x7 -->
<g id="node19" class="node">
<title>x7</title>
<path fill="none" stroke="black" d="M1907.09,-279C1907.09,-279 1989.84,-279 1989.84,-279 1995.84,-279 2001.84,-285 2001.84,-291 2001.84,-291 2001.84,-316 2001.84,-316 2001.84,-322 1995.84,-328 1989.84,-328 1989.84,-328 1907.09,-328 1907.09,-328 1901.09,-328 1895.09,-322 1895.09,-316 1895.09,-316 1895.09,-291 1895.09,-291 1895.09,-285 1901.09,-279 1907.09,-279"/>
<text text-anchor="middle" x="1948.47" y="-310.7" font-family="Times,serif" font-size="14.00">10x 15:15 &#45; 15:6</text>
<polyline fill="none" stroke="black" points="1895.09,-303.5 2001.84,-303.5"/>
<text text-anchor="middle" x="1948.47" y="-286.2" font-family="Times,serif" font-size="14.00">5:0 &#45; 5:0</text>
</g>
<!-- n14&#45;&gt;x7 -->
<g id="edge49" class="edge">
<title>n14:e&#45;&gt;x7:w</title>
<path fill="none" stroke="black" stroke-width="3" d="M1859.09,-298.5C1870.82,-298.5 1875.86,-294.75 1883.82,-292.65"/>
<polygon fill="black" stroke="black" stroke-width="3" points="1881.09,-296.51 1890.59,-291.81 1880.23,-289.57 1881.09,-296.51"/>
</g>
<!-- n14&#45;&gt;x7 -->
<g id="edge50" class="edge">
<title>n14:e&#45;&gt;x7:w</title>
<path fill="none" stroke="black" stroke-width="3" d="M1859.09,-298.5C1872.26,-298.5 1875.94,-308 1884.22,-312.9"/>
<polygon fill="black" stroke="black" stroke-width="3" points="1880.14,-315.45 1890.7,-314.6 1881.91,-308.68 1880.14,-315.45"/>
</g>
<!-- x18 -->
<g id="node36" class="node">
<title>x18</title>
<path fill="none" stroke="black" d="M1907.09,-347C1907.09,-347 1989.84,-347 1989.84,-347 1995.84,-347 2001.84,-353 2001.84,-359 2001.84,-359 2001.84,-384 2001.84,-384 2001.84,-390 1995.84,-396 1989.84,-396 1989.84,-396 1907.09,-396 1907.09,-396 1901.09,-396 1895.09,-390 1895.09,-384 1895.09,-384 1895.09,-359 1895.09,-359 1895.09,-353 1901.09,-347 1907.09,-347"/>
<text text-anchor="middle" x="1948.47" y="-378.7" font-family="Times,serif" font-size="14.00">10x 15:15 &#45; 15:6</text>
<polyline fill="none" stroke="black" points="1895.09,-371.5 2001.84,-371.5"/>
<text text-anchor="middle" x="1948.47" y="-354.2" font-family="Times,serif" font-size="14.00">5:0 &#45; 5:0</text>
</g>
<!-- n14&#45;&gt;x18 -->
<g id="edge46" class="edge">
<title>n14:e&#45;&gt;x18:w</title>
<path fill="none" stroke="black" stroke-width="3" d="M1859.09,-298.5C1885.82,-298.5 1870.38,-342.55 1884.58,-355.63"/>
<polygon fill="black" stroke="black" stroke-width="3" points="1880.21,-357.83 1890.8,-357.77 1882.48,-351.21 1880.21,-357.83"/>
</g>
<!-- n14&#45;&gt;x18 -->
<g id="edge47" class="edge">
<title>n14:e&#45;&gt;x18:w</title>
<path fill="none" stroke="black" stroke-width="3" d="M1859.09,-298.5C1895.56,-298.5 1863.32,-365.53 1884.23,-380.72"/>
<polygon fill="black" stroke="black" stroke-width="3" points="1880.15,-383.21 1890.72,-382.53 1882.03,-376.47 1880.15,-383.21"/>
</g>
<!-- x28 -->
<g id="node46" class="node">
<title>x28</title>
<path fill="none" stroke="black" d="M1913.84,-185.5C1913.84,-185.5 1983.09,-185.5 1983.09,-185.5 1989.09,-185.5 1995.09,-191.5 1995.09,-197.5 1995.09,-197.5 1995.09,-209.5 1995.09,-209.5 1995.09,-215.5 1989.09,-221.5 1983.09,-221.5 1983.09,-221.5 1913.84,-221.5 1913.84,-221.5 1907.84,-221.5 1901.84,-215.5 1901.84,-209.5 1901.84,-209.5 1901.84,-197.5 1901.84,-197.5 1901.84,-191.5 1907.84,-185.5 1913.84,-185.5"/>
<text text-anchor="middle" x="1948.47" y="-198.7" font-family="Times,serif" font-size="14.00">9x 15:15 &#45; 8:0</text>
</g>
<!-- n14&#45;&gt;x28 -->
<g id="edge48" class="edge">
<title>n14:e&#45;&gt;x28:w</title>
<path fill="none" stroke="black" stroke-width="3" d="M1859.09,-298.5C1900.62,-298.5 1863.73,-221.35 1889.94,-206.28"/>
<polygon fill="black" stroke="black" stroke-width="3" points="1887.47,-210.45 1896.42,-204.78 1885.89,-203.63 1887.47,-210.45"/>
</g>
<!-- c21 -->
<g id="node11" class="node">
<title>c21</title>
<polygon fill="none" stroke="black" points="1034.34,-79 1034.34,-128 1128.09,-128 1128.09,-79 1034.34,-79"/>
<text text-anchor="middle" x="1047.22" y="-110.7" font-family="Times,serif" font-size="14.00">A</text>
<polyline fill="none" stroke="black" points="1034.34,-103.5 1060.09,-103.5"/>
<text text-anchor="middle" x="1047.22" y="-86.2" font-family="Times,serif" font-size="14.00">B</text>
<polyline fill="none" stroke="black" points="1060.09,-79 1060.09,-128"/>
<text text-anchor="middle" x="1081.22" y="-106.7" font-family="Times,serif" font-size="14.00">$22</text>
<text text-anchor="middle" x="1081.22" y="-90.2" font-family="Times,serif" font-size="14.00">$and</text>
<polyline fill="none" stroke="black" points="1102.34,-79 1102.34,-128"/>
<text text-anchor="middle" x="1115.22" y="-98.7" font-family="Times,serif" font-size="14.00">Y</text>
</g>
<!-- c18&#45;&gt;c21 -->
<g id="edge24" class="edge">
<title>c18:e&#45;&gt;c21:w</title>
<path fill="none" stroke="black" stroke-width="3" d="M998.34,-219.75C1042.67,-219.75 996.05,-134.34 1023.32,-118.32"/>
<polygon fill="black" stroke="black" stroke-width="3" points="1020.98,-122.46 1029.92,-116.78 1019.39,-115.65 1020.98,-122.46"/>
</g>
<!-- n2 -->
<g id="node48" class="node">
<title>n2</title>
<ellipse fill="black" stroke="black" cx="1081.22" cy="-359.5" rx="1.8" ry="1.8"/>
</g>
<!-- c19&#45;&gt;n2 -->
<g id="edge51" class="edge">
<title>c19:e&#45;&gt;n2:w</title>
<path fill="none" stroke="black" stroke-width="3" d="M998.34,-359.75C1029.57,-359.75 1040.13,-359.56 1066.51,-359.51"/>
<polygon fill="black" stroke="black" stroke-width="3" points="1063.4,-363.01 1073.4,-359.5 1063.4,-356.01 1063.4,-363.01"/>
</g>
<!-- c20 -->
<g id="node8" class="node">
<title>c20</title>
<polygon fill="none" stroke="black" points="3696.48,-63 3696.48,-112 3790.23,-112 3790.23,-63 3696.48,-63"/>
<text text-anchor="middle" x="3709.35" y="-94.7" font-family="Times,serif" font-size="14.00">A</text>
<polyline fill="none" stroke="black" points="3696.48,-87.5 3722.23,-87.5"/>
<text text-anchor="middle" x="3709.35" y="-70.2" font-family="Times,serif" font-size="14.00">B</text>
<polyline fill="none" stroke="black" points="3722.23,-63 3722.23,-112"/>
<text text-anchor="middle" x="3743.35" y="-90.7" font-family="Times,serif" font-size="14.00">$13</text>
<text text-anchor="middle" x="3743.35" y="-74.2" font-family="Times,serif" font-size="14.00">$add</text>
<polyline fill="none" stroke="black" points="3764.48,-63 3764.48,-112"/>
<text text-anchor="middle" x="3777.35" y="-82.7" font-family="Times,serif" font-size="14.00">Y</text>
</g>
<!-- c20&#45;&gt;n11 -->
<g id="edge32" class="edge">
<title>c20:e&#45;&gt;n11:w</title>
<path fill="none" stroke="black" stroke-width="3" d="M3790.23,-87.75C3801.6,-87.75 3806.91,-87.62 3814.78,-87.55"/>
<polygon fill="black" stroke="black" stroke-width="3" points="3811.7,-91.06 3821.69,-87.52 3811.67,-84.06 3811.7,-91.06"/>
</g>
<!-- x0 -->
<g id="node9" class="node">
<title>x0</title>
<path fill="none" stroke="black" d="M3605.48,-99C3605.48,-99 3648.48,-99 3648.48,-99 3654.48,-99 3660.48,-105 3660.48,-111 3660.48,-111 3660.48,-136 3660.48,-136 3660.48,-142 3654.48,-148 3648.48,-148 3648.48,-148 3605.48,-148 3605.48,-148 3599.48,-148 3593.48,-142 3593.48,-136 3593.48,-136 3593.48,-111 3593.48,-111 3593.48,-105 3599.48,-99 3605.48,-99"/>
<text text-anchor="middle" x="3626.98" y="-130.7" font-family="Times,serif" font-size="14.00">0 &#45;&gt; 22:3</text>
<polyline fill="none" stroke="black" points="3593.48,-123.5 3660.48,-123.5"/>
<text text-anchor="middle" x="3626.98" y="-106.2" font-family="Times,serif" font-size="14.00">2:0 &#45; 2:0</text>
</g>
<!-- x0&#45;&gt;c20 -->
<g id="edge1" class="edge">
<title>x0:e&#45;&gt;c20:w</title>
<path fill="none" stroke="black" stroke-width="3" d="M3672.5,-118.92C3677.09,-114.72 3679.87,-108.52 3684.47,-104.32"/>
<polygon fill="none" stroke="black" stroke-width="3" points="3674.22,-118.27 3670.04,-124.14 3663.01,-122.54 3667.19,-116.66 3674.22,-118.27"/>
<polygon fill="none" stroke="black" stroke-width="3" points="3682.73,-104.97 3686.92,-99.1 3693.95,-100.71 3689.76,-106.58 3682.73,-104.97"/>
</g>
<!-- x1&#45;&gt;c20 -->
<g id="edge2" class="edge">
<title>x1:e&#45;&gt;c20:w</title>
<path fill="none" stroke="black" stroke-width="3" d="M1599.15,-59.51C1684.93,-59.68 1711.03,-61.5 1802.84,-61.5 1802.84,-61.5 1802.84,-61.5 3556.68,-61.5 3614.6,-61.5 3631.64,-73.33 3683.65,-75.04"/>
<polygon fill="none" stroke="black" stroke-width="3" points="1601.05,-59.51 1595.04,-63.51 1589.05,-59.5 1595.05,-55.51 1601.05,-59.51"/>
<polygon fill="none" stroke="black" stroke-width="3" points="3681.78,-75.01 3687.84,-71.11 3693.77,-75.21 3687.71,-79.11 3681.78,-75.01"/>
</g>
<!-- x3 -->
<g id="node13" class="node">
<title>x3</title>
<path fill="none" stroke="black" d="M1176.09,-85.5C1176.09,-85.5 1214.59,-85.5 1214.59,-85.5 1220.59,-85.5 1226.59,-91.5 1226.59,-97.5 1226.59,-97.5 1226.59,-109.5 1226.59,-109.5 1226.59,-115.5 1220.59,-121.5 1214.59,-121.5 1214.59,-121.5 1176.09,-121.5 1176.09,-121.5 1170.09,-121.5 1164.09,-115.5 1164.09,-109.5 1164.09,-109.5 1164.09,-97.5 1164.09,-97.5 1164.09,-91.5 1170.09,-85.5 1176.09,-85.5"/>
<text text-anchor="middle" x="1195.34" y="-98.7" font-family="Times,serif" font-size="14.00">2:0 &#45; 2:0</text>
</g>
<!-- c21&#45;&gt;x3 -->
<g id="edge4" class="edge">
<title>c21:e&#45;&gt;x3:w</title>
<path fill="none" stroke="black" stroke-width="3" d="M1140.81,-103.69C1144.41,-103.65 1147.54,-103.6 1151.12,-103.57"/>
<polygon fill="none" stroke="black" stroke-width="3" points="1142.8,-103.68 1136.82,-107.71 1130.8,-103.74 1136.78,-99.71 1142.8,-103.68"/>
<polygon fill="none" stroke="black" stroke-width="3" points="1149.39,-103.57 1155.37,-99.54 1161.39,-103.51 1155.41,-107.54 1149.39,-103.57"/>
</g>
<!-- x2&#45;&gt;c21 -->
<g id="edge3" class="edge">
<title>x2:e&#45;&gt;c21:w</title>
<path fill="none" stroke="black" stroke-width="3" d="M356.12,-101.49C431.14,-101.4 454.62,-100.5 535.72,-100.5 535.72,-100.5 535.72,-100.5 814.34,-100.5 907.71,-100.5 934.09,-92.08 1021.32,-91.31"/>
<polygon fill="none" stroke="black" stroke-width="3" points="357.8,-101.49 351.8,-105.49 345.8,-101.5 351.79,-97.49 357.8,-101.49"/>
<polygon fill="none" stroke="black" stroke-width="3" points="1019.64,-91.31 1025.62,-87.29 1031.64,-91.26 1025.66,-95.29 1019.64,-91.31"/>
</g>
<!-- x3&#45;&gt;n13 -->
<g id="edge39" class="edge">
<title>x3:e&#45;&gt;n13:w</title>
<path fill="none" stroke="black" stroke-width="3" d="M1226.59,-103.75C1237.97,-103.75 1243.28,-103.62 1251.15,-103.55"/>
<polygon fill="black" stroke="black" stroke-width="3" points="1248.07,-107.06 1258.05,-103.52 1248.04,-100.06 1248.07,-107.06"/>
</g>
<!-- c22 -->
<g id="node14" class="node">
<title>c22</title>
<polygon fill="none" stroke="black" points="1271.72,-278 1271.72,-327 1363.97,-327 1363.97,-278 1271.72,-278"/>
<text text-anchor="middle" x="1284.59" y="-309.7" font-family="Times,serif" font-size="14.00">A</text>
<polyline fill="none" stroke="black" points="1271.72,-302.5 1297.47,-302.5"/>
<text text-anchor="middle" x="1284.59" y="-285.2" font-family="Times,serif" font-size="14.00">B</text>
<polyline fill="none" stroke="black" points="1297.47,-278 1297.47,-327"/>
<text text-anchor="middle" x="1317.84" y="-305.7" font-family="Times,serif" font-size="14.00">$26</text>
<text text-anchor="middle" x="1317.84" y="-289.2" font-family="Times,serif" font-size="14.00">$xor</text>
<polyline fill="none" stroke="black" points="1338.22,-278 1338.22,-327"/>
<text text-anchor="middle" x="1351.09" y="-297.7" font-family="Times,serif" font-size="14.00">Y</text>
</g>
<!-- x14 -->
<g id="node30" class="node">
<title>x14</title>
<path fill="none" stroke="black" d="M1421.09,-290C1421.09,-290 1459.59,-290 1459.59,-290 1465.59,-290 1471.59,-296 1471.59,-302 1471.59,-302 1471.59,-327 1471.59,-327 1471.59,-333 1465.59,-339 1459.59,-339 1459.59,-339 1421.09,-339 1421.09,-339 1415.09,-339 1409.09,-333 1409.09,-327 1409.09,-327 1409.09,-302 1409.09,-302 1409.09,-296 1415.09,-290 1421.09,-290"/>
<text text-anchor="middle" x="1440.34" y="-321.7" font-family="Times,serif" font-size="14.00">5:1 &#45; 5:1</text>
<polyline fill="none" stroke="black" points="1409.09,-314.5 1471.59,-314.5"/>
<text text-anchor="middle" x="1440.34" y="-297.2" font-family="Times,serif" font-size="14.00">0:0 &#45; 0:0</text>
</g>
<!-- c22&#45;&gt;x14 -->
<g id="edge57" class="edge">
<title>c22:e&#45;&gt;x14:w</title>
<path fill="none" stroke="black" d="M1364.97,-302.75C1380.14,-302.75 1386.5,-302.45 1397.69,-302.32"/>
<polygon fill="black" stroke="black" points="1397.6,-305.82 1407.58,-302.26 1397.56,-298.82 1397.6,-305.82"/>
</g>
<!-- x4 -->
<g id="node15" class="node">
<title>x4</title>
<path fill="none" stroke="black" d="M1176.09,-307.5C1176.09,-307.5 1214.59,-307.5 1214.59,-307.5 1220.59,-307.5 1226.59,-313.5 1226.59,-319.5 1226.59,-319.5 1226.59,-331.5 1226.59,-331.5 1226.59,-337.5 1220.59,-343.5 1214.59,-343.5 1214.59,-343.5 1176.09,-343.5 1176.09,-343.5 1170.09,-343.5 1164.09,-337.5 1164.09,-331.5 1164.09,-331.5 1164.09,-319.5 1164.09,-319.5 1164.09,-313.5 1170.09,-307.5 1176.09,-307.5"/>
<text text-anchor="middle" x="1195.34" y="-320.7" font-family="Times,serif" font-size="14.00">0:0 &#45; 0:0</text>
</g>
<!-- x4&#45;&gt;c22 -->
<g id="edge5" class="edge">
<title>x4:e&#45;&gt;c22:w</title>
<path fill="none" stroke="black" d="M1239.49,-323.72C1246.26,-321.72 1251.14,-318.48 1257.93,-316.49"/>
<polygon fill="none" stroke="black" points="1239.37,-323.74 1233.97,-328.52 1227.48,-325.38 1232.88,-320.6 1239.37,-323.74"/>
<polygon fill="none" stroke="black" points="1257.93,-316.49 1263.34,-311.72 1269.82,-314.87 1264.42,-319.65 1257.93,-316.49"/>
</g>
<!-- x5&#45;&gt;c22 -->
<g id="edge6" class="edge">
<title>x5:e&#45;&gt;c22:w</title>
<path fill="none" stroke="black" d="M996.47,-281.53C1109.38,-282.07 1144.91,-289.67 1257.7,-290.22"/>
<polygon fill="none" stroke="black" points="996.62,-281.53 990.61,-285.52 984.62,-281.5 990.63,-277.52 996.62,-281.53"/>
<polygon fill="none" stroke="black" points="1257.82,-290.22 1263.83,-286.23 1269.82,-290.25 1263.81,-294.23 1257.82,-290.22"/>
</g>
<!-- c23 -->
<g id="node17" class="node">
<title>c23</title>
<polygon fill="none" stroke="black" points="2697.79,-297 2697.79,-346 2785.54,-346 2785.54,-297 2697.79,-297"/>
<text text-anchor="middle" x="2710.67" y="-328.7" font-family="Times,serif" font-size="14.00">A</text>
<polyline fill="none" stroke="black" points="2697.79,-321.5 2723.54,-321.5"/>
<text text-anchor="middle" x="2710.67" y="-304.2" font-family="Times,serif" font-size="14.00">B</text>
<polyline fill="none" stroke="black" points="2723.54,-297 2723.54,-346"/>
<text text-anchor="middle" x="2741.67" y="-324.7" font-family="Times,serif" font-size="14.00">$29</text>
<text text-anchor="middle" x="2741.67" y="-308.2" font-family="Times,serif" font-size="14.00">$or</text>
<polyline fill="none" stroke="black" points="2759.79,-297 2759.79,-346"/>
<text text-anchor="middle" x="2772.67" y="-316.7" font-family="Times,serif" font-size="14.00">Y</text>
</g>
<!-- x17 -->
<g id="node34" class="node">
<title>x17</title>
<path fill="none" stroke="black" d="M2833.54,-309C2833.54,-309 2902.79,-309 2902.79,-309 2908.79,-309 2914.79,-315 2914.79,-321 2914.79,-321 2914.79,-346 2914.79,-346 2914.79,-352 2908.79,-358 2902.79,-358 2902.79,-358 2833.54,-358 2833.54,-358 2827.54,-358 2821.54,-352 2821.54,-346 2821.54,-346 2821.54,-321 2821.54,-321 2821.54,-315 2827.54,-309 2833.54,-309"/>
<text text-anchor="middle" x="2868.17" y="-340.7" font-family="Times,serif" font-size="14.00">7x 0:0 &#45; 22:16</text>
<polyline fill="none" stroke="black" points="2821.54,-333.5 2914.79,-333.5"/>
<text text-anchor="middle" x="2868.17" y="-316.2" font-family="Times,serif" font-size="14.00">15:0 &#45; 15:0</text>
</g>
<!-- c23&#45;&gt;x17 -->
<g id="edge58" class="edge">
<title>c23:e&#45;&gt;x17:w</title>
<path fill="none" stroke="black" stroke-width="3" d="M2785.54,-321.75C2796.92,-321.75 2802.23,-321.5 2810.1,-321.35"/>
<polygon fill="black" stroke="black" stroke-width="3" points="2807.03,-324.88 2817,-321.29 2806.97,-317.88 2807.03,-324.88"/>
</g>
<!-- x6 -->
<g id="node18" class="node">
<title>x6</title>
<path fill="none" stroke="black" d="M2597.79,-327.5C2597.79,-327.5 2649.79,-327.5 2649.79,-327.5 2655.79,-327.5 2661.79,-333.5 2661.79,-339.5 2661.79,-339.5 2661.79,-351.5 2661.79,-351.5 2661.79,-357.5 2655.79,-363.5 2649.79,-363.5 2649.79,-363.5 2597.79,-363.5 2597.79,-363.5 2591.79,-363.5 2585.79,-357.5 2585.79,-351.5 2585.79,-351.5 2585.79,-339.5 2585.79,-339.5 2585.79,-333.5 2591.79,-327.5 2597.79,-327.5"/>
<text text-anchor="middle" x="2623.79" y="-340.7" font-family="Times,serif" font-size="14.00">15:0 &#45; 15:0</text>
</g>
<!-- x6&#45;&gt;c23 -->
<g id="edge7" class="edge">
<title>x6:e&#45;&gt;c23:w</title>
<path fill="none" stroke="black" stroke-width="3" d="M2674.21,-342.77C2678.08,-340.93 2681.23,-338.5 2685.07,-336.62"/>
<polygon fill="none" stroke="black" stroke-width="3" points="2676.16,-342.35 2671.15,-347.54 2664.44,-344.92 2669.44,-339.73 2676.16,-342.35"/>
<polygon fill="none" stroke="black" stroke-width="3" points="2683.45,-336.99 2688.42,-331.77 2695.16,-334.35 2690.18,-339.57 2683.45,-336.99"/>
</g>
<!-- x7&#45;&gt;c23 -->
<g id="edge8" class="edge">
<title>x7:e&#45;&gt;c23:w</title>
<path fill="none" stroke="black" stroke-width="3" d="M2014.53,-303.47C2094,-303.02 2118.42,-298.5 2203.84,-298.5 2203.84,-298.5 2203.84,-298.5 2548.99,-298.5 2610.77,-298.5 2629.04,-307.83 2684.87,-309.11"/>
<polygon fill="none" stroke="black" stroke-width="3" points="2016.55,-303.46 2010.56,-307.48 2004.55,-303.49 2010.54,-299.48 2016.55,-303.46"/>
<polygon fill="none" stroke="black" stroke-width="3" points="2683.09,-309.09 2689.13,-305.15 2695.09,-309.22 2689.05,-313.15 2683.09,-309.09"/>
</g>
<!-- c24 -->
<g id="node20" class="node">
<title>c24</title>
<polygon fill="none" stroke="black" points="3245.21,-97 3245.21,-146 3338.96,-146 3338.96,-97 3245.21,-97"/>
<text text-anchor="middle" x="3258.09" y="-128.7" font-family="Times,serif" font-size="14.00">A</text>
<polyline fill="none" stroke="black" points="3245.21,-121.5 3270.96,-121.5"/>
<text text-anchor="middle" x="3258.09" y="-104.2" font-family="Times,serif" font-size="14.00">B</text>
<polyline fill="none" stroke="black" points="3270.96,-97 3270.96,-146"/>
<text text-anchor="middle" x="3292.09" y="-124.7" font-family="Times,serif" font-size="14.00">$36</text>
<text text-anchor="middle" x="3292.09" y="-108.2" font-family="Times,serif" font-size="14.00">$and</text>
<polyline fill="none" stroke="black" points="3313.21,-97 3313.21,-146"/>
<text text-anchor="middle" x="3326.09" y="-116.7" font-family="Times,serif" font-size="14.00">Y</text>
</g>
<!-- x10 -->
<g id="node23" class="node">
<title>x10</title>
<path fill="none" stroke="black" d="M3460.63,-103.5C3460.63,-103.5 3499.13,-103.5 3499.13,-103.5 3505.13,-103.5 3511.13,-109.5 3511.13,-115.5 3511.13,-115.5 3511.13,-127.5 3511.13,-127.5 3511.13,-133.5 3505.13,-139.5 3499.13,-139.5 3499.13,-139.5 3460.63,-139.5 3460.63,-139.5 3454.63,-139.5 3448.63,-133.5 3448.63,-127.5 3448.63,-127.5 3448.63,-115.5 3448.63,-115.5 3448.63,-109.5 3454.63,-103.5 3460.63,-103.5"/>
<text text-anchor="middle" x="3479.88" y="-116.7" font-family="Times,serif" font-size="14.00">2:0 &#45; 2:0</text>
</g>
<!-- c24&#45;&gt;x10 -->
<g id="edge11" class="edge">
<title>c24:e&#45;&gt;x10:w</title>
<path fill="none" stroke="black" stroke-width="3" d="M3352.53,-121.74C3386.38,-121.71 3401.07,-121.54 3434.83,-121.51"/>
<polygon fill="none" stroke="black" stroke-width="3" points="3354.67,-121.74 3348.67,-125.75 3342.67,-121.75 3348.66,-117.75 3354.67,-121.74"/>
<polygon fill="none" stroke="black" stroke-width="3" points="3432.92,-121.51 3438.92,-117.5 3444.92,-121.5 3438.93,-125.5 3432.92,-121.51"/>
</g>
<!-- x8 -->
<g id="node21" class="node">
<title>x8</title>
<path fill="none" stroke="black" d="M3091.79,-144.5C3091.79,-144.5 3130.29,-144.5 3130.29,-144.5 3136.29,-144.5 3142.29,-150.5 3142.29,-156.5 3142.29,-156.5 3142.29,-168.5 3142.29,-168.5 3142.29,-174.5 3136.29,-180.5 3130.29,-180.5 3130.29,-180.5 3091.79,-180.5 3091.79,-180.5 3085.79,-180.5 3079.79,-174.5 3079.79,-168.5 3079.79,-168.5 3079.79,-156.5 3079.79,-156.5 3079.79,-150.5 3085.79,-144.5 3091.79,-144.5"/>
<text text-anchor="middle" x="3111.04" y="-157.7" font-family="Times,serif" font-size="14.00">2:0 &#45; 2:0</text>
</g>
<!-- x8&#45;&gt;c24 -->
<g id="edge9" class="edge">
<title>x8:e&#45;&gt;c24:w</title>
<path fill="none" stroke="black" stroke-width="3" d="M3155.03,-161.73C3187.29,-157.66 3199.14,-138.65 3231.35,-134.53"/>
<polygon fill="none" stroke="black" stroke-width="3" points="3156.97,-161.61 3151.22,-165.97 3144.99,-162.34 3150.74,-157.98 3156.97,-161.61"/>
<polygon fill="none" stroke="black" stroke-width="3" points="3229.53,-134.65 3235.28,-130.29 3241.51,-133.91 3235.77,-138.27 3229.53,-134.65"/>
</g>
<!-- x9&#45;&gt;c24 -->
<g id="edge10" class="edge">
<title>x9:e&#45;&gt;c24:w</title>
<path fill="none" stroke="black" stroke-width="3" d="M1719.61,-109.5C1816.12,-109.5 1844.91,-109.5 1947.47,-109.5 1947.47,-109.5 1947.47,-109.5 2998.29,-109.5 3103.11,-109.5 3132.54,-109.27 3231.16,-109.25"/>
<polygon fill="none" stroke="black" stroke-width="3" points="1721.55,-109.5 1715.55,-113.5 1709.55,-109.5 1715.55,-105.5 1721.55,-109.5"/>
<polygon fill="none" stroke="black" stroke-width="3" points="3229.51,-109.25 3235.51,-105.25 3241.51,-109.25 3235.51,-113.25 3229.51,-109.25"/>
</g>
<!-- n3 -->
<g id="node49" class="node">
<title>n3</title>
<ellipse fill="black" stroke="black" cx="3555.68" cy="-121.5" rx="1.8" ry="1.8"/>
</g>
<!-- x10&#45;&gt;n3 -->
<g id="edge54" class="edge">
<title>x10:e&#45;&gt;n3:w</title>
<path fill="none" stroke="black" stroke-width="3" d="M3512.13,-121.75C3526.19,-121.75 3532.26,-121.61 3542.45,-121.54"/>
<polygon fill="black" stroke="black" stroke-width="3" points="3539.35,-125.05 3549.34,-121.51 3539.33,-118.05 3539.35,-125.05"/>
</g>
<!-- c25 -->
<g id="node24" class="node">
<title>c25</title>
<polygon fill="none" stroke="black" points="626.09,-260 626.09,-309 722.09,-309 722.09,-260 626.09,-260"/>
<text text-anchor="middle" x="638.97" y="-291.7" font-family="Times,serif" font-size="14.00">A</text>
<polyline fill="none" stroke="black" points="626.09,-284.5 651.84,-284.5"/>
<text text-anchor="middle" x="638.97" y="-267.2" font-family="Times,serif" font-size="14.00">B</text>
<polyline fill="none" stroke="black" points="651.84,-260 651.84,-309"/>
<text text-anchor="middle" x="674.09" y="-287.7" font-family="Times,serif" font-size="14.00">$2</text>
<text text-anchor="middle" x="674.09" y="-271.2" font-family="Times,serif" font-size="14.00">$mul</text>
<polyline fill="none" stroke="black" points="696.34,-260 696.34,-309"/>
<text text-anchor="middle" x="709.22" y="-279.7" font-family="Times,serif" font-size="14.00">Y</text>
</g>
<!-- c25&#45;&gt;n12 -->
<g id="edge33" class="edge">
<title>c25:e&#45;&gt;n12:w</title>
<path fill="none" stroke="black" stroke-width="3" d="M722.09,-284.75C733.51,-284.75 738.77,-283.11 746.63,-282.16"/>
<polygon fill="black" stroke="black" stroke-width="3" points="743.77,-285.83 753.56,-281.76 743.37,-278.84 743.77,-285.83"/>
</g>
<!-- x11 -->
<g id="node25" class="node">
<title>x11</title>
<path fill="none" stroke="black" d="M510.72,-272C510.72,-272 562.72,-272 562.72,-272 568.72,-272 574.72,-278 574.72,-284 574.72,-284 574.72,-309 574.72,-309 574.72,-315 568.72,-321 562.72,-321 562.72,-321 510.72,-321 510.72,-321 504.72,-321 498.72,-315 498.72,-309 498.72,-309 498.72,-284 498.72,-284 498.72,-278 504.72,-272 510.72,-272"/>
<text text-anchor="middle" x="536.72" y="-303.7" font-family="Times,serif" font-size="14.00">22:22 &#45; 5:5</text>
<polyline fill="none" stroke="black" points="498.72,-296.5 574.72,-296.5"/>
<text text-anchor="middle" x="536.72" y="-279.2" font-family="Times,serif" font-size="14.00">4:0 &#45; 4:0</text>
</g>
<!-- x11&#45;&gt;c25 -->
<g id="edge12" class="edge">
<title>x11:e&#45;&gt;c25:w</title>
<path fill="none" stroke="black" stroke-width="3" d="M588.74,-296.53C597.81,-296.58 604.11,-296.67 613.22,-296.72"/>
<polygon fill="none" stroke="black" stroke-width="3" points="590.42,-296.54 584.41,-300.52 578.42,-296.51 584.43,-292.52 590.42,-296.54"/>
<polygon fill="none" stroke="black" stroke-width="3" points="611.39,-296.71 617.4,-292.73 623.39,-296.74 617.38,-300.73 611.39,-296.71"/>
</g>
<!-- x12&#45;&gt;c25 -->
<g id="edge13" class="edge">
<title>x12:e&#45;&gt;c25:w</title>
<path fill="none" stroke="black" stroke-width="3" d="M460.17,-334.88C514.38,-338.1 538.96,-359.95 590.09,-330.5 611.52,-318.16 601.8,-287.42 613.73,-276.32"/>
<polygon fill="none" stroke="black" stroke-width="3" points="462.04,-334.94 455.92,-338.76 450.04,-334.58 456.16,-330.76 462.04,-334.94"/>
<polygon fill="none" stroke="black" stroke-width="3" points="612.13,-276.85 616.57,-271.17 623.52,-273.1 619.08,-278.77 612.13,-276.85"/>
</g>
<!-- x13 -->
<g id="node28" class="node">
<title>x13</title>
<path fill="none" stroke="black" d="M284.84,-245C284.84,-245 336.84,-245 336.84,-245 342.84,-245 348.84,-251 348.84,-257 348.84,-257 348.84,-282 348.84,-282 348.84,-288 342.84,-294 336.84,-294 336.84,-294 284.84,-294 284.84,-294 278.84,-294 272.84,-288 272.84,-282 272.84,-282 272.84,-257 272.84,-257 272.84,-251 278.84,-245 284.84,-245"/>
<text text-anchor="middle" x="310.84" y="-276.7" font-family="Times,serif" font-size="14.00">5:5 &#45; 22:22</text>
<polyline fill="none" stroke="black" points="272.84,-269.5 348.84,-269.5"/>
<text text-anchor="middle" x="310.84" y="-252.2" font-family="Times,serif" font-size="14.00">4:0 &#45; 4:0</text>
</g>
<!-- c26&#45;&gt;x13 -->
<g id="edge14" class="edge">
<title>c26:e&#45;&gt;x13:w</title>
<path fill="none" stroke="black" stroke-width="3" d="M249.56,-269.69C253.16,-269.65 256.29,-269.6 259.87,-269.57"/>
<polygon fill="none" stroke="black" stroke-width="3" points="251.54,-269.68 245.56,-273.71 239.55,-269.74 245.53,-265.71 251.54,-269.68"/>
<polygon fill="none" stroke="black" stroke-width="3" points="258.14,-269.57 264.12,-265.54 270.14,-269.51 264.16,-273.54 258.14,-269.57"/>
</g>
<!-- n8 -->
<g id="node51" class="node">
<title>n8</title>
<ellipse fill="black" stroke="black" cx="416.09" cy="-269.5" rx="1.8" ry="1.8"/>
</g>
<!-- x13&#45;&gt;n8 -->
<g id="edge63" class="edge">
<title>x13:e&#45;&gt;n8:w</title>
<path fill="none" stroke="black" stroke-width="3" d="M348.84,-257.25C373.61,-257.25 381.63,-266.21 401.56,-268.81"/>
<polygon fill="black" stroke="black" stroke-width="3" points="398.08,-272.1 408.28,-269.22 398.51,-265.11 398.08,-272.1"/>
</g>
<!-- x13&#45;&gt;n8 -->
<g id="edge64" class="edge">
<title>x13:e&#45;&gt;n8:w</title>
<path fill="none" stroke="black" d="M348.84,-281.75C373.61,-281.75 381.63,-272.79 401.56,-270.19"/>
<polygon fill="black" stroke="black" points="401.54,-273.7 411.3,-269.59 401.11,-266.71 401.54,-273.7"/>
</g>
<!-- c27 -->
<g id="node29" class="node">
<title>c27</title>
<polygon fill="none" stroke="black" points="1507.59,-274 1507.59,-323 1600.59,-323 1600.59,-274 1507.59,-274"/>
<text text-anchor="middle" x="1520.47" y="-305.7" font-family="Times,serif" font-size="14.00">A</text>
<polyline fill="none" stroke="black" points="1507.59,-298.5 1533.34,-298.5"/>
<text text-anchor="middle" x="1520.47" y="-281.2" font-family="Times,serif" font-size="14.00">B</text>
<polyline fill="none" stroke="black" points="1533.34,-274 1533.34,-323"/>
<text text-anchor="middle" x="1554.09" y="-301.7" font-family="Times,serif" font-size="14.00">$7</text>
<text text-anchor="middle" x="1554.09" y="-285.2" font-family="Times,serif" font-size="14.00">$sub</text>
<polyline fill="none" stroke="black" points="1574.84,-274 1574.84,-323"/>
<text text-anchor="middle" x="1587.72" y="-293.7" font-family="Times,serif" font-size="14.00">Y</text>
</g>
<!-- x16 -->
<g id="node32" class="node">
<title>x16</title>
<path fill="none" stroke="black" d="M1648.59,-274C1648.59,-274 1700.59,-274 1700.59,-274 1706.59,-274 1712.59,-280 1712.59,-286 1712.59,-286 1712.59,-311 1712.59,-311 1712.59,-317 1706.59,-323 1700.59,-323 1700.59,-323 1648.59,-323 1648.59,-323 1642.59,-323 1636.59,-317 1636.59,-311 1636.59,-311 1636.59,-286 1636.59,-286 1636.59,-280 1642.59,-274 1648.59,-274"/>
<text text-anchor="middle" x="1674.59" y="-305.7" font-family="Times,serif" font-size="14.00">6:6 &#45; 15:15</text>
<polyline fill="none" stroke="black" points="1636.59,-298.5 1712.59,-298.5"/>
<text text-anchor="middle" x="1674.59" y="-281.2" font-family="Times,serif" font-size="14.00">5:0 &#45; 5:0</text>
</g>
<!-- c27&#45;&gt;x16 -->
<g id="edge17" class="edge">
<title>c27:e&#45;&gt;x16:w</title>
<path fill="none" stroke="black" stroke-width="3" d="M1613.31,-298.69C1616.91,-298.65 1620.04,-298.6 1623.62,-298.57"/>
<polygon fill="none" stroke="black" stroke-width="3" points="1615.3,-298.68 1609.32,-302.71 1603.3,-298.74 1609.28,-294.71 1615.3,-298.68"/>
<polygon fill="none" stroke="black" stroke-width="3" points="1621.89,-298.57 1627.87,-294.54 1633.89,-298.51 1627.91,-302.54 1621.89,-298.57"/>
</g>
<!-- x14&#45;&gt;c27 -->
<g id="edge15" class="edge">
<title>x14:e&#45;&gt;c27:w</title>
<path fill="none" stroke="black" stroke-width="3" d="M1484.33,-313.55C1487.92,-313 1491.04,-312.3 1494.6,-311.74"/>
<polygon fill="none" stroke="black" stroke-width="3" points="1486.26,-313.41 1480.57,-317.84 1474.29,-314.3 1479.98,-309.87 1486.26,-313.41"/>
<polygon fill="none" stroke="black" stroke-width="3" points="1492.93,-311.86 1498.61,-307.42 1504.9,-310.95 1499.22,-315.4 1492.93,-311.86"/>
</g>
<!-- x15&#45;&gt;c27 -->
<g id="edge16" class="edge">
<title>x15:e&#45;&gt;c27:w</title>
<path fill="none" stroke="black" stroke-width="3" d="M1483.45,-231.59C1492.54,-242.88 1486.64,-269.89 1495.75,-281.17"/>
<polygon fill="none" stroke="black" stroke-width="3" points="1485.1,-232.31 1478.01,-233.61 1474.08,-227.57 1481.17,-226.26 1485.1,-232.31"/>
<polygon fill="none" stroke="black" stroke-width="3" points="1494.08,-280.45 1501.17,-279.14 1505.11,-285.18 1498.02,-286.49 1494.08,-280.45"/>
</g>
<!-- x16&#45;&gt;n14 -->
<g id="edge43" class="edge">
<title>x16:e&#45;&gt;n14:w</title>
<path fill="none" stroke="black" stroke-width="3" d="M1712.59,-286.25C1724.87,-286.25 1729.39,-292.72 1737.43,-296.25"/>
<polygon fill="black" stroke="black" stroke-width="3" points="1733.65,-299.06 1744.14,-297.6 1735.03,-292.2 1733.65,-299.06"/>
</g>
<!-- x16&#45;&gt;n14 -->
<g id="edge44" class="edge">
<title>x16:e&#45;&gt;n14:w</title>
<path fill="none" stroke="black" d="M1712.59,-310.75C1724.87,-310.75 1729.39,-304.28 1737.43,-300.75"/>
<polygon fill="black" stroke="black" points="1738,-304.2 1747.11,-298.8 1736.62,-297.34 1738,-304.2"/>
</g>
<!-- c28&#45;&gt;x8 -->
<g id="edge62" class="edge">
<title>c28:e&#45;&gt;x8:w</title>
<path fill="none" stroke="black" stroke-width="3" d="M3043.79,-168.75C3055.45,-168.75 3060.57,-165.65 3068.55,-163.91"/>
<polygon fill="black" stroke="black" stroke-width="3" points="3065.69,-167.72 3075.28,-163.21 3064.97,-160.76 3065.69,-167.72"/>
</g>
<!-- x17&#45;&gt;c28 -->
<g id="edge18" class="edge">
<title>x17:e&#45;&gt;c28:w</title>
<path fill="none" stroke="black" stroke-width="3" d="M2927.6,-331.1C2966.81,-313.19 2898.56,-200.53 2938.25,-183.03"/>
<polygon fill="none" stroke="black" stroke-width="3" points="2929.25,-330.79 2924.09,-335.83 2917.45,-333 2922.61,-327.97 2929.25,-330.79"/>
<polygon fill="none" stroke="black" stroke-width="3" points="2936.33,-183.38 2941.51,-178.37 2948.13,-181.23 2942.95,-186.24 2936.33,-183.38"/>
</g>
<!-- x19 -->
<g id="node37" class="node">
<title>x19</title>
<path fill="none" stroke="black" d="M2178.84,-339C2178.84,-339 2230.84,-339 2230.84,-339 2236.84,-339 2242.84,-345 2242.84,-351 2242.84,-351 2242.84,-376 2242.84,-376 2242.84,-382 2236.84,-388 2230.84,-388 2230.84,-388 2178.84,-388 2178.84,-388 2172.84,-388 2166.84,-382 2166.84,-376 2166.84,-376 2166.84,-351 2166.84,-351 2166.84,-345 2172.84,-339 2178.84,-339"/>
<text text-anchor="middle" x="2204.84" y="-370.7" font-family="Times,serif" font-size="14.00">16:16 &#45; 0:0</text>
<polyline fill="none" stroke="black" points="2166.84,-363.5 2242.84,-363.5"/>
<text text-anchor="middle" x="2204.84" y="-346.2" font-family="Times,serif" font-size="14.00">15:0 &#45; 15:0</text>
</g>
<!-- c29&#45;&gt;x19 -->
<g id="edge20" class="edge">
<title>c29:e&#45;&gt;x19:w</title>
<path fill="none" stroke="black" stroke-width="3" d="M2143.57,-363.69C2147.16,-363.65 2150.3,-363.6 2153.87,-363.57"/>
<polygon fill="none" stroke="black" stroke-width="3" points="2145.55,-363.68 2139.57,-367.71 2133.55,-363.74 2139.53,-359.71 2145.55,-363.68"/>
<polygon fill="none" stroke="black" stroke-width="3" points="2152.14,-363.57 2158.12,-359.54 2164.14,-363.51 2158.16,-367.54 2152.14,-363.57"/>
</g>
<!-- x18&#45;&gt;c29 -->
<g id="edge19" class="edge">
<title>x18:e&#45;&gt;c29:w</title>
<path fill="none" stroke="black" stroke-width="3" d="M2014.59,-372.57C2018.18,-373.2 2021.28,-374 2024.85,-374.63"/>
<polygon fill="none" stroke="black" stroke-width="3" points="2016.5,-372.73 2010.18,-376.22 2004.54,-371.73 2010.85,-368.24 2016.5,-372.73"/>
<polygon fill="none" stroke="black" stroke-width="3" points="2023.19,-374.49 2029.51,-371.02 2035.15,-375.52 2028.83,-378.99 2023.19,-374.49"/>
</g>
<!-- n6 -->
<g id="node50" class="node">
<title>n6</title>
<ellipse fill="black" stroke="black" cx="2280.64" cy="-383.5" rx="1.8" ry="1.8"/>
</g>
<!-- x19&#45;&gt;n6 -->
<g id="edge59" class="edge">
<title>x19:e&#45;&gt;n6:w</title>
<path fill="none" stroke="black" d="M2242.84,-375.75C2254.61,-375.75 2259.6,-379.75 2267.56,-382.01"/>
<polygon fill="black" stroke="black" points="2266.97,-385.46 2277.34,-383.3 2267.89,-378.52 2266.97,-385.46"/>
</g>
<!-- n9 -->
<g id="node52" class="node">
<title>n9</title>
<ellipse fill="black" stroke="black" cx="2547.99" cy="-345.5" rx="1.8" ry="1.8"/>
</g>
<!-- x19&#45;&gt;n9 -->
<g id="edge69" class="edge">
<title>x19:e&#45;&gt;n9:w</title>
<path fill="none" stroke="black" stroke-width="3" d="M2242.84,-351.25C2373.87,-351.25 2409.36,-345.82 2534.98,-345.51"/>
<polygon fill="black" stroke="black" stroke-width="3" points="2531.66,-349.02 2541.65,-345.51 2531.65,-342.02 2531.66,-349.02"/>
</g>
<!-- v20 -->
<g id="node38" class="node">
<title>v20</title>
<ellipse fill="none" stroke="black" cx="3292.09" cy="-182.5" rx="113.79" ry="18"/>
<text text-anchor="middle" x="3292.09" y="-177.45" font-family="Times,serif" font-size="14.00">20&#39;00000000000000000000</text>
</g>
<!-- x21 -->
<g id="node39" class="node">
<title>x21</title>
<path fill="none" stroke="black" d="M3453.88,-161.5C3453.88,-161.5 3505.88,-161.5 3505.88,-161.5 3511.88,-161.5 3517.88,-167.5 3517.88,-173.5 3517.88,-173.5 3517.88,-185.5 3517.88,-185.5 3517.88,-191.5 3511.88,-197.5 3505.88,-197.5 3505.88,-197.5 3453.88,-197.5 3453.88,-197.5 3447.88,-197.5 3441.88,-191.5 3441.88,-185.5 3441.88,-185.5 3441.88,-173.5 3441.88,-173.5 3441.88,-167.5 3447.88,-161.5 3453.88,-161.5"/>
<text text-anchor="middle" x="3479.88" y="-174.7" font-family="Times,serif" font-size="14.00">19:0 &#45; 22:3</text>
</g>
<!-- v20&#45;&gt;x21 -->
<g id="edge72" class="edge">
<title>v20:e&#45;&gt;x21:w</title>
<path fill="none" stroke="black" stroke-width="3" d="M3405.88,-182.5C3417.29,-182.5 3422.56,-180.98 3430.42,-180.11"/>
<polygon fill="black" stroke="black" stroke-width="3" points="3427.54,-183.76 3437.34,-179.74 3427.17,-176.77 3427.54,-183.76"/>
</g>
<!-- x21&#45;&gt;n3 -->
<g id="edge55" class="edge">
<title>x21:e&#45;&gt;n3:w</title>
<path fill="none" stroke="black" stroke-width="3" d="M3517.88,-179.75C3543.56,-179.75 3529.87,-138.28 3543.24,-125.32"/>
<polygon fill="black" stroke="black" stroke-width="3" points="3541.38,-129.71 3549.6,-123.04 3539.01,-123.12 3541.38,-129.71"/>
</g>
<!-- x22 -->
<g id="node40" class="node">
<title>x22</title>
<path fill="none" stroke="black" d="M495.34,-178.5C495.34,-178.5 578.09,-178.5 578.09,-178.5 584.09,-178.5 590.09,-184.5 590.09,-190.5 590.09,-190.5 590.09,-202.5 590.09,-202.5 590.09,-208.5 584.09,-214.5 578.09,-214.5 578.09,-214.5 495.34,-214.5 495.34,-214.5 489.34,-214.5 483.34,-208.5 483.34,-202.5 483.34,-202.5 483.34,-190.5 483.34,-190.5 483.34,-184.5 489.34,-178.5 495.34,-178.5"/>
<text text-anchor="middle" x="536.72" y="-191.7" font-family="Times,serif" font-size="14.00">17x 22:22 &#45; 16:0</text>
</g>
<!-- x23 -->
<g id="node41" class="node">
<title>x23</title>
<path fill="none" stroke="black" d="M648.09,-191.5C648.09,-191.5 700.09,-191.5 700.09,-191.5 706.09,-191.5 712.09,-197.5 712.09,-203.5 712.09,-203.5 712.09,-215.5 712.09,-215.5 712.09,-221.5 706.09,-227.5 700.09,-227.5 700.09,-227.5 648.09,-227.5 648.09,-227.5 642.09,-227.5 636.09,-221.5 636.09,-215.5 636.09,-215.5 636.09,-203.5 636.09,-203.5 636.09,-197.5 642.09,-191.5 648.09,-191.5"/>
<text text-anchor="middle" x="674.09" y="-204.7" font-family="Times,serif" font-size="14.00">16:0 &#45; 21:5</text>
</g>
<!-- x22&#45;&gt;x23 -->
<g id="edge21" class="edge">
<title>x22:e&#45;&gt;x23:w</title>
<path fill="none" stroke="black" stroke-width="3" d="M602.98,-198.53C610.17,-200.99 615.15,-205.09 622.37,-207.53"/>
<polygon fill="none" stroke="black" stroke-width="3" points="604.62,-198.79 598.07,-201.81 592.76,-196.92 599.31,-193.9 604.62,-198.79"/>
<polygon fill="none" stroke="black" stroke-width="3" points="620.56,-207.24 627.1,-204.21 632.42,-209.09 625.88,-212.12 620.56,-207.24"/>
</g>
<!-- x23&#45;&gt;n8 -->
<g id="edge65" class="edge">
<title>x23:e&#45;&gt;n8:w</title>
<path fill="none" stroke="black" stroke-width="3" d="M713.09,-209.75C721.21,-209.75 717.57,-222 712.09,-228 709.31,-231.05 422.01,-271 417.89,-271.3 417.78,-271.31 417.67,-271.32 417.56,-271.33"/>
<polygon fill="black" stroke="black" stroke-width="3" points="427.64,-271.46 417.05,-271.13 425.12,-278 427.64,-271.46"/>
</g>
<!-- x24 -->
<g id="node42" class="node">
<title>x24</title>
<path fill="none" stroke="black" d="M2330.44,-365.5C2330.44,-365.5 2386.19,-365.5 2386.19,-365.5 2392.19,-365.5 2398.19,-371.5 2398.19,-377.5 2398.19,-377.5 2398.19,-389.5 2398.19,-389.5 2398.19,-395.5 2392.19,-401.5 2386.19,-401.5 2386.19,-401.5 2330.44,-401.5 2330.44,-401.5 2324.44,-401.5 2318.44,-395.5 2318.44,-389.5 2318.44,-389.5 2318.44,-377.5 2318.44,-377.5 2318.44,-371.5 2324.44,-365.5 2330.44,-365.5"/>
<text text-anchor="middle" x="2358.32" y="-378.7" font-family="Times,serif" font-size="14.00">7x 0:0 &#45; 6:0</text>
</g>
<!-- x25 -->
<g id="node43" class="node">
<title>x25</title>
<path fill="none" stroke="black" d="M2446.19,-365.5C2446.19,-365.5 2498.19,-365.5 2498.19,-365.5 2504.19,-365.5 2510.19,-371.5 2510.19,-377.5 2510.19,-377.5 2510.19,-389.5 2510.19,-389.5 2510.19,-395.5 2504.19,-401.5 2498.19,-401.5 2498.19,-401.5 2446.19,-401.5 2446.19,-401.5 2440.19,-401.5 2434.19,-395.5 2434.19,-389.5 2434.19,-389.5 2434.19,-377.5 2434.19,-377.5 2434.19,-371.5 2440.19,-365.5 2446.19,-365.5"/>
<text text-anchor="middle" x="2472.19" y="-378.7" font-family="Times,serif" font-size="14.00">6:0 &#45; 22:16</text>
</g>
<!-- x24&#45;&gt;x25 -->
<g id="edge22" class="edge">
<title>x24:e&#45;&gt;x25:w</title>
<path fill="none" stroke="black" stroke-width="3" d="M2410.92,-383.5C2414.51,-383.5 2417.65,-383.5 2421.22,-383.5"/>
<polygon fill="none" stroke="black" stroke-width="3" points="2412.9,-383.5 2406.9,-387.5 2400.9,-383.5 2406.9,-379.5 2412.9,-383.5"/>
<polygon fill="none" stroke="black" stroke-width="3" points="2419.49,-383.5 2425.49,-379.5 2431.49,-383.5 2425.49,-387.5 2419.49,-383.5"/>
</g>
<!-- x25&#45;&gt;n9 -->
<g id="edge70" class="edge">
<title>x25:e&#45;&gt;n9:w</title>
<path fill="none" stroke="black" stroke-width="3" d="M2510.19,-383.75C2528.8,-383.75 2525.79,-359.46 2535.61,-349.59"/>
<polygon fill="black" stroke="black" stroke-width="3" points="2533.89,-354.01 2541.96,-347.14 2531.37,-347.48 2533.89,-354.01"/>
</g>
<!-- v26 -->
<g id="node44" class="node">
<title>v26</title>
<ellipse fill="none" stroke="black" cx="1081.22" cy="-42.5" rx="27" ry="18"/>
<text text-anchor="middle" x="1081.22" y="-37.45" font-family="Times,serif" font-size="14.00">2&#39;00</text>
</g>
<!-- x27 -->
<g id="node45" class="node">
<title>x27</title>
<path fill="none" stroke="black" d="M1176.09,-27.5C1176.09,-27.5 1214.59,-27.5 1214.59,-27.5 1220.59,-27.5 1226.59,-33.5 1226.59,-39.5 1226.59,-39.5 1226.59,-51.5 1226.59,-51.5 1226.59,-57.5 1220.59,-63.5 1214.59,-63.5 1214.59,-63.5 1176.09,-63.5 1176.09,-63.5 1170.09,-63.5 1164.09,-57.5 1164.09,-51.5 1164.09,-51.5 1164.09,-39.5 1164.09,-39.5 1164.09,-33.5 1170.09,-27.5 1176.09,-27.5"/>
<text text-anchor="middle" x="1195.34" y="-40.7" font-family="Times,serif" font-size="14.00">1:0 &#45; 4:3</text>
</g>
<!-- v26&#45;&gt;x27 -->
<g id="edge73" class="edge">
<title>v26:e&#45;&gt;x27:w</title>
<path fill="none" stroke="black" stroke-width="3" d="M1109.47,-42.5C1129.6,-42.5 1137.18,-44.56 1152.99,-45.26"/>
<polygon fill="black" stroke="black" stroke-width="3" points="1149.48,-48.69 1159.55,-45.4 1149.63,-41.69 1149.48,-48.69"/>
</g>
<!-- x27&#45;&gt;n13 -->
<g id="edge38" class="edge">
<title>x27:e&#45;&gt;n13:w</title>
<path fill="none" stroke="black" stroke-width="3" d="M1226.59,-45.75C1252.11,-45.75 1238.66,-86.86 1252.01,-99.71"/>
<polygon fill="black" stroke="black" stroke-width="3" points="1247.72,-101.9 1258.32,-101.97 1250.08,-95.3 1247.72,-101.9"/>
</g>
<!-- x29 -->
<g id="node47" class="node">
<title>x29</title>
<path fill="none" stroke="black" d="M2061.72,-207.5C2061.72,-207.5 2106.97,-207.5 2106.97,-207.5 2112.97,-207.5 2118.97,-213.5 2118.97,-219.5 2118.97,-219.5 2118.97,-231.5 2118.97,-231.5 2118.97,-237.5 2112.97,-243.5 2106.97,-243.5 2106.97,-243.5 2061.72,-243.5 2061.72,-243.5 2055.72,-243.5 2049.72,-237.5 2049.72,-231.5 2049.72,-231.5 2049.72,-219.5 2049.72,-219.5 2049.72,-213.5 2055.72,-207.5 2061.72,-207.5"/>
<text text-anchor="middle" x="2084.34" y="-220.7" font-family="Times,serif" font-size="14.00">8:0 &#45; 14:6</text>
</g>
<!-- x28&#45;&gt;x29 -->
<g id="edge23" class="edge">
<title>x28:e&#45;&gt;x29:w</title>
<path fill="none" stroke="black" stroke-width="3" d="M2008.62,-205.69C2019.47,-209.86 2025.13,-218.92 2035.88,-223.19"/>
<polygon fill="none" stroke="black" stroke-width="3" points="2010.58,-206.03 2003.98,-208.94 1998.76,-203.97 2005.36,-201.06 2010.58,-206.03"/>
<polygon fill="none" stroke="black" stroke-width="3" points="2034.25,-222.89 2040.86,-220.02 2046.06,-225.02 2039.44,-227.89 2034.25,-222.89"/>
</g>
<!-- x29&#45;&gt;n14 -->
<g id="edge45" class="edge">
<title>x29:e&#45;&gt;n14:w</title>
<path fill="none" stroke="black" stroke-width="3" d="M2119.97,-225.75C2128.09,-225.75 2124.54,-238.09 2118.97,-244 2050.26,-316.86 1982.23,-220.15 1895.09,-269.5 1872.2,-282.47 1882.69,-304.85 1859.09,-316.5 1814.51,-338.51 1783.34,-350.67 1747.22,-316.5 1745.22,-314.61 1743.53,-311.89 1742.49,-309.14"/>
<polygon fill="black" stroke="black" stroke-width="3" points="1744.72,-313.38 1744.72,-302.79 1738.11,-311.07 1744.72,-313.38"/>
</g>
<!-- n2&#45;&gt;x4 -->
<g id="edge53" class="edge">
<title>n2:e&#45;&gt;x4:w</title>
<path fill="none" stroke="black" d="M1084.5,-359.5C1118.72,-359.5 1124.64,-332.73 1152.67,-326.87"/>
<polygon fill="black" stroke="black" points="1152.98,-330.36 1162.59,-325.9 1152.29,-323.39 1152.98,-330.36"/>
</g>
<!-- n2&#45;&gt;x14 -->
<g id="edge52" class="edge">
<title>n2:e&#45;&gt;x14:w</title>
<path fill="none" stroke="black" stroke-width="3" d="M1084.5,-359.5C1213.17,-359.5 1246.74,-360.8 1373.09,-336.5 1384.79,-334.25 1389.71,-330.2 1397.7,-328.1"/>
<polygon fill="black" stroke="black" stroke-width="3" points="1395.06,-331.93 1404.58,-327.28 1394.24,-324.98 1395.06,-331.93"/>
</g>
<!-- n3&#45;&gt;x0 -->
<g id="edge56" class="edge">
<title>n3:e&#45;&gt;x0:w</title>
<path fill="none" stroke="black" stroke-width="3" d="M3557.48,-121.5C3569.57,-121.5 3574.31,-116.09 3582.38,-113.13"/>
<polygon fill="black" stroke="black" stroke-width="3" points="3579.73,-117.13 3589,-112.01 3578.56,-110.23 3579.73,-117.13"/>
</g>
<!-- n6&#45;&gt;x17 -->
<g id="edge60" class="edge">
<title>n6:e&#45;&gt;x17:w</title>
<path fill="none" stroke="black" stroke-width="3" d="M2282.44,-383.5C2302.71,-383.5 2299.71,-403.75 2318.44,-411.5 2381.66,-437.66 2402.78,-430.5 2471.19,-430.5 2471.19,-430.5 2471.19,-430.5 2624.79,-430.5 2646.13,-430.5 2768.21,-362.39 2810.4,-348.29"/>
<polygon fill="black" stroke="black" stroke-width="3" points="2808.14,-352.39 2817.12,-346.76 2806.59,-345.56 2808.14,-352.39"/>
</g>
<!-- n6&#45;&gt;x24 -->
<g id="edge61" class="edge">
<title>n6:e&#45;&gt;x24:w</title>
<path fill="none" stroke="black" stroke-width="3" d="M2282.44,-383.5C2293.82,-383.5 2299.13,-383.63 2307,-383.7"/>
<polygon fill="black" stroke="black" stroke-width="3" points="2303.89,-387.19 2313.9,-383.73 2303.92,-380.19 2303.89,-387.19"/>
</g>
<!-- n8&#45;&gt;x11 -->
<g id="edge66" class="edge">
<title>n8:e&#45;&gt;x11:w</title>
<path fill="none" stroke="black" stroke-width="3" d="M419.37,-269.5C450.65,-269.5 460.15,-281 486.32,-283.69"/>
<polygon fill="black" stroke="black" stroke-width="3" points="483.02,-287.03 493.18,-284.03 483.36,-280.04 483.02,-287.03"/>
</g>
<!-- n8&#45;&gt;x11 -->
<g id="edge67" class="edge">
<title>n8:e&#45;&gt;x11:w</title>
<path fill="none" stroke="black" d="M419.37,-269.5C454.21,-269.5 458.25,-300.91 486.59,-307.53"/>
<polygon fill="black" stroke="black" points="485.89,-310.98 496.21,-308.59 486.65,-304.02 485.89,-310.98"/>
</g>
<!-- n8&#45;&gt;x22 -->
<g id="edge68" class="edge">
<title>n8:e&#45;&gt;x22:w</title>
<path fill="none" stroke="black" stroke-width="3" d="M419.37,-269.5C458.05,-269.5 444.11,-210.78 472.1,-198.85"/>
<polygon fill="black" stroke="black" stroke-width="3" points="469.69,-202.86 478.88,-197.58 468.4,-195.98 469.69,-202.86"/>
</g>
<!-- n9&#45;&gt;x6 -->
<g id="edge71" class="edge">
<title>n9:e&#45;&gt;x6:w</title>
<path fill="none" stroke="black" stroke-width="3" d="M2549.79,-345.5C2561.17,-345.5 2566.48,-345.63 2574.35,-345.7"/>
<polygon fill="black" stroke="black" stroke-width="3" points="2571.24,-349.19 2581.25,-345.73 2571.27,-342.19 2571.24,-349.19"/>
</g>
</g>
</svg>
