<?xml version="1.0" encoding="UTF-8" standalone="no"?>
<!DOCTYPE svg PUBLIC "-//W3C//DTD SVG 1.1//EN"
 "http://www.w3.org/Graphics/SVG/1.1/DTD/svg11.dtd">
<!-- Generated by graphviz version 12.2.1 (20241206.2353)
 -->
<!-- Title: top Pages: 1 -->
<svg width="1942pt" height="348pt"
 viewBox="0.00 0.00 1942.32 348.00" xmlns="http://www.w3.org/2000/svg" xmlns:xlink="http://www.w3.org/1999/xlink">
<g id="graph0" class="graph" transform="scale(1 1) rotate(0) translate(4 344)">
<title>top</title>
<polygon fill="white" stroke="none" points="-4,4 -4,-344 1938.32,-344 1938.32,4 -4,4"/>
<text text-anchor="middle" x="967.16" y="-7.2" font-family="Times,serif" font-size="14.00">top</text>
<!-- n3 -->
<g id="node1" class="node">
<title>n3</title>
<polygon fill="none" stroke="black" points="107.84,-207.54 107.84,-222.46 76.26,-233 31.59,-233 0,-222.46 0,-207.54 31.59,-197 76.26,-197 107.84,-207.54"/>
<text text-anchor="middle" x="53.92" y="-209.95" font-family="Times,serif" font-size="14.00">input_data</text>
</g>
<!-- c10 -->
<g id="node5" class="node">
<title>c10</title>
<polygon fill="none" stroke="black" points="1035.69,-224.5 1035.69,-273.5 1129.44,-273.5 1129.44,-224.5 1035.69,-224.5"/>
<text text-anchor="middle" x="1048.57" y="-256.2" font-family="Times,serif" font-size="14.00">A</text>
<polyline fill="none" stroke="black" points="1035.69,-249 1061.44,-249"/>
<text text-anchor="middle" x="1048.57" y="-231.7" font-family="Times,serif" font-size="14.00">B</text>
<polyline fill="none" stroke="black" points="1061.44,-224.5 1061.44,-273.5"/>
<text text-anchor="middle" x="1082.57" y="-252.2" font-family="Times,serif" font-size="14.00">$8</text>
<text text-anchor="middle" x="1082.57" y="-235.7" font-family="Times,serif" font-size="14.00">$and</text>
<polyline fill="none" stroke="black" points="1103.69,-224.5 1103.69,-273.5"/>
<text text-anchor="middle" x="1116.57" y="-244.2" font-family="Times,serif" font-size="14.00">Y</text>
</g>
<!-- n3&#45;&gt;c10 -->
<g id="edge14" class="edge">
<title>n3:e&#45;&gt;c10:w</title>
<path fill="none" stroke="black" stroke-width="3" d="M107.84,-215C188.29,-215 207.4,-234 287.84,-234 287.84,-234 287.84,-234 813.44,-234 908.37,-234 934.87,-236.54 1024.45,-236.74"/>
<polygon fill="black" stroke="black" stroke-width="3" points="1021.15,-240.23 1031.15,-236.75 1021.16,-233.23 1021.15,-240.23"/>
</g>
<!-- c11 -->
<g id="node6" class="node">
<title>c11</title>
<polygon fill="none" stroke="black" points="1443.35,-196.5 1443.35,-245.5 1537.1,-245.5 1537.1,-196.5 1443.35,-196.5"/>
<text text-anchor="middle" x="1456.22" y="-228.2" font-family="Times,serif" font-size="14.00">A</text>
<polyline fill="none" stroke="black" points="1443.35,-221 1469.1,-221"/>
<text text-anchor="middle" x="1456.22" y="-203.7" font-family="Times,serif" font-size="14.00">B</text>
<polyline fill="none" stroke="black" points="1469.1,-196.5 1469.1,-245.5"/>
<text text-anchor="middle" x="1490.22" y="-224.2" font-family="Times,serif" font-size="14.00">$21</text>
<text text-anchor="middle" x="1490.22" y="-207.7" font-family="Times,serif" font-size="14.00">$and</text>
<polyline fill="none" stroke="black" points="1511.35,-196.5 1511.35,-245.5"/>
<text text-anchor="middle" x="1524.22" y="-216.2" font-family="Times,serif" font-size="14.00">Y</text>
</g>
<!-- n3&#45;&gt;c11 -->
<g id="edge15" class="edge">
<title>n3:e&#45;&gt;c11:w</title>
<path fill="none" stroke="black" stroke-width="3" d="M107.84,-215C148.06,-215 247.62,-196 287.84,-196 287.84,-196 287.84,-196 1083.57,-196 1239.23,-196 1280.78,-208.14 1430.87,-208.73"/>
<polygon fill="black" stroke="black" stroke-width="3" points="1427.8,-212.22 1437.81,-208.74 1427.81,-205.22 1427.8,-212.22"/>
</g>
<!-- c12 -->
<g id="node8" class="node">
<title>c12</title>
<polygon fill="none" stroke="black" points="625.19,-262.5 625.19,-311.5 721.19,-311.5 721.19,-262.5 625.19,-262.5"/>
<text text-anchor="middle" x="638.07" y="-294.2" font-family="Times,serif" font-size="14.00">A</text>
<polyline fill="none" stroke="black" points="625.19,-287 650.94,-287"/>
<text text-anchor="middle" x="638.07" y="-269.7" font-family="Times,serif" font-size="14.00">B</text>
<polyline fill="none" stroke="black" points="650.94,-262.5 650.94,-311.5"/>
<text text-anchor="middle" x="673.19" y="-290.2" font-family="Times,serif" font-size="14.00">$6</text>
<text text-anchor="middle" x="673.19" y="-273.7" font-family="Times,serif" font-size="14.00">$mul</text>
<polyline fill="none" stroke="black" points="695.44,-262.5 695.44,-311.5"/>
<text text-anchor="middle" x="708.32" y="-282.2" font-family="Times,serif" font-size="14.00">Y</text>
</g>
<!-- n3&#45;&gt;c12 -->
<g id="edge16" class="edge">
<title>n3:e&#45;&gt;c12:w</title>
<path fill="none" stroke="black" stroke-width="3" d="M107.84,-215C129.55,-215 124.39,-238.36 143.84,-248 202.11,-276.89 222.81,-274 287.84,-274 287.84,-274 287.84,-274 472.64,-274 536.47,-274 555.23,-274.66 613.78,-274.74"/>
<polygon fill="black" stroke="black" stroke-width="3" points="610.65,-278.24 620.65,-274.75 610.65,-271.24 610.65,-278.24"/>
</g>
<!-- c13 -->
<g id="node10" class="node">
<title>c13</title>
<polygon fill="none" stroke="black" points="903.69,-274.5 903.69,-323.5 999.69,-323.5 999.69,-274.5 903.69,-274.5"/>
<text text-anchor="middle" x="916.57" y="-306.2" font-family="Times,serif" font-size="14.00">A</text>
<polyline fill="none" stroke="black" points="903.69,-299 929.44,-299"/>
<text text-anchor="middle" x="916.57" y="-281.7" font-family="Times,serif" font-size="14.00">B</text>
<polyline fill="none" stroke="black" points="929.44,-274.5 929.44,-323.5"/>
<text text-anchor="middle" x="951.69" y="-302.2" font-family="Times,serif" font-size="14.00">$7</text>
<text text-anchor="middle" x="951.69" y="-285.7" font-family="Times,serif" font-size="14.00">$mul</text>
<polyline fill="none" stroke="black" points="973.94,-274.5 973.94,-323.5"/>
<text text-anchor="middle" x="986.82" y="-294.2" font-family="Times,serif" font-size="14.00">Y</text>
</g>
<!-- n3&#45;&gt;c13 -->
<g id="edge17" class="edge">
<title>n3:e&#45;&gt;c13:w</title>
<path fill="none" stroke="black" stroke-width="3" d="M107.84,-215C138.18,-215 121.14,-252.87 143.84,-273 196.66,-319.83 217.25,-340 287.84,-340 287.84,-340 287.84,-340 674.19,-340 697.43,-340 845.3,-316.49 892.39,-311.99"/>
<polygon fill="black" stroke="black" stroke-width="3" points="889.41,-315.69 899.16,-311.55 888.95,-308.71 889.41,-315.69"/>
</g>
<!-- x2 -->
<g id="node12" class="node">
<title>x2</title>
<path fill="none" stroke="black" d="M155.84,-131C155.84,-131 194.34,-131 194.34,-131 200.34,-131 206.34,-137 206.34,-143 206.34,-143 206.34,-155 206.34,-155 206.34,-161 200.34,-167 194.34,-167 194.34,-167 155.84,-167 155.84,-167 149.84,-167 143.84,-161 143.84,-155 143.84,-155 143.84,-143 143.84,-143 143.84,-137 149.84,-131 155.84,-131"/>
<text text-anchor="middle" x="175.09" y="-144.2" font-family="Times,serif" font-size="14.00">3:1 &#45; 2:0</text>
</g>
<!-- n3&#45;&gt;x2 -->
<g id="edge18" class="edge">
<title>n3:e&#45;&gt;x2:w</title>
<path fill="none" stroke="black" stroke-width="3" d="M107.84,-215C136.47,-215 117.88,-166.44 133.22,-152.79"/>
<polygon fill="black" stroke="black" stroke-width="3" points="131.15,-157.16 139.53,-150.68 128.94,-150.52 131.15,-157.16"/>
</g>
<!-- x3 -->
<g id="node13" class="node">
<title>x3</title>
<path fill="none" stroke="black" d="M155.84,-76C155.84,-76 194.34,-76 194.34,-76 200.34,-76 206.34,-82 206.34,-88 206.34,-88 206.34,-100 206.34,-100 206.34,-106 200.34,-112 194.34,-112 194.34,-112 155.84,-112 155.84,-112 149.84,-112 143.84,-106 143.84,-100 143.84,-100 143.84,-88 143.84,-88 143.84,-82 149.84,-76 155.84,-76"/>
<text text-anchor="middle" x="175.09" y="-89.2" font-family="Times,serif" font-size="14.00">2:2 &#45; 0:0</text>
</g>
<!-- n3&#45;&gt;x3 -->
<g id="edge19" class="edge">
<title>n3:e&#45;&gt;x3:w</title>
<path fill="none" stroke="black" d="M107.84,-215C159.25,-215 99.42,-113.25 132.58,-96.55"/>
<polygon fill="black" stroke="black" points="133.26,-99.99 142.36,-94.55 131.86,-93.13 133.26,-99.99"/>
</g>
<!-- n4 -->
<g id="node2" class="node">
<title>n4</title>
<polygon fill="none" stroke="black" points="1934.32,-182.54 1934.32,-197.46 1899.81,-208 1851.01,-208 1816.5,-197.46 1816.5,-182.54 1851.01,-172 1899.81,-172 1934.32,-182.54"/>
<text text-anchor="middle" x="1875.41" y="-184.95" font-family="Times,serif" font-size="14.00">output_data</text>
</g>
<!-- n5 -->
<g id="node3" class="node">
<title>n5</title>
<polygon fill="none" stroke="black" points="812.44,-305 757.19,-287 812.44,-269 867.69,-287 812.44,-305"/>
<text text-anchor="middle" x="812.44" y="-281.95" font-family="Times,serif" font-size="14.00">temp_4</text>
</g>
<!-- n5&#45;&gt;c13 -->
<g id="edge23" class="edge">
<title>n5:e&#45;&gt;c13:w</title>
<path fill="none" stroke="black" d="M867.69,-287C879.07,-287 884.38,-286.87 892.25,-286.8"/>
<polygon fill="black" stroke="black" points="892.19,-290.3 902.18,-286.76 892.16,-283.3 892.19,-290.3"/>
</g>
<!-- n6 -->
<g id="node4" class="node">
<title>n6</title>
<polygon fill="none" stroke="black" points="1220.69,-263 1165.44,-245 1220.69,-227 1275.94,-245 1220.69,-263"/>
<text text-anchor="middle" x="1220.69" y="-239.95" font-family="Times,serif" font-size="14.00">temp_5</text>
</g>
<!-- n6&#45;&gt;c11 -->
<g id="edge25" class="edge">
<title>n6:e&#45;&gt;c11:w</title>
<path fill="none" stroke="black" stroke-width="3" d="M1275.94,-245C1346.17,-245 1366.14,-234.46 1431.07,-233.34"/>
<polygon fill="black" stroke="black" stroke-width="3" points="1427.84,-236.87 1437.81,-233.29 1427.78,-229.87 1427.84,-236.87"/>
</g>
<!-- c10&#45;&gt;n6 -->
<g id="edge24" class="edge">
<title>c10:e&#45;&gt;n6:w</title>
<path fill="none" stroke="black" stroke-width="3" d="M1129.44,-249.25C1140.9,-249.25 1146.12,-247.1 1153.97,-245.86"/>
<polygon fill="black" stroke="black" stroke-width="3" points="1151.2,-249.58 1160.91,-245.34 1150.68,-242.6 1151.2,-249.58"/>
</g>
<!-- x0 -->
<g id="node7" class="node">
<title>x0</title>
<path fill="none" stroke="black" d="M1723.25,-201C1723.25,-201 1761.75,-201 1761.75,-201 1767.75,-201 1773.75,-207 1773.75,-213 1773.75,-213 1773.75,-225 1773.75,-225 1773.75,-231 1767.75,-237 1761.75,-237 1761.75,-237 1723.25,-237 1723.25,-237 1717.25,-237 1711.25,-231 1711.25,-225 1711.25,-225 1711.25,-213 1711.25,-213 1711.25,-207 1717.25,-201 1723.25,-201"/>
<text text-anchor="middle" x="1742.5" y="-214.2" font-family="Times,serif" font-size="14.00">3:0 &#45; 3:0</text>
</g>
<!-- c11&#45;&gt;x0 -->
<g id="edge1" class="edge">
<title>c11:e&#45;&gt;x0:w</title>
<path fill="none" stroke="black" stroke-width="3" d="M1550.98,-221.23C1612.93,-221.01 1635.4,-219.24 1697.32,-219.02"/>
<polygon fill="none" stroke="black" stroke-width="3" points="1552.8,-221.22 1546.81,-225.23 1540.8,-221.25 1546.79,-217.23 1552.8,-221.22"/>
<polygon fill="none" stroke="black" stroke-width="3" points="1695.55,-219.03 1701.54,-215.02 1707.55,-219 1701.56,-223.02 1695.55,-219.03"/>
</g>
<!-- x0&#45;&gt;n4 -->
<g id="edge20" class="edge">
<title>x0:e&#45;&gt;n4:w</title>
<path fill="none" stroke="black" stroke-width="3" d="M1774.75,-219.25C1792.81,-219.25 1794.21,-200.68 1805.5,-193.13"/>
<polygon fill="black" stroke="black" stroke-width="3" points="1803.48,-197.35 1812.14,-191.24 1801.56,-190.61 1803.48,-197.35"/>
</g>
<!-- c12&#45;&gt;n5 -->
<g id="edge22" class="edge">
<title>c12:e&#45;&gt;n5:w</title>
<path fill="none" stroke="black" d="M721.19,-287.25C732.57,-287.25 737.88,-287.12 745.74,-287.05"/>
<polygon fill="black" stroke="black" points="745.69,-290.55 755.68,-287.01 745.66,-283.55 745.69,-290.55"/>
</g>
<!-- x1 -->
<g id="node9" class="node">
<title>x1</title>
<path fill="none" stroke="black" d="M521.44,-118.5C521.44,-118.5 577.19,-118.5 577.19,-118.5 583.19,-118.5 589.19,-124.5 589.19,-130.5 589.19,-130.5 589.19,-155.5 589.19,-155.5 589.19,-161.5 583.19,-167.5 577.19,-167.5 577.19,-167.5 521.44,-167.5 521.44,-167.5 515.44,-167.5 509.44,-161.5 509.44,-155.5 509.44,-155.5 509.44,-130.5 509.44,-130.5 509.44,-124.5 515.44,-118.5 521.44,-118.5"/>
<text text-anchor="middle" x="549.32" y="-150.2" font-family="Times,serif" font-size="14.00">5x 7:7 &#45; 7:3</text>
<polyline fill="none" stroke="black" points="509.44,-143 589.19,-143"/>
<text text-anchor="middle" x="549.32" y="-125.7" font-family="Times,serif" font-size="14.00">2:0 &#45; 2:0</text>
</g>
<!-- x1&#45;&gt;c12 -->
<g id="edge2" class="edge">
<title>x1:e&#45;&gt;c12:w</title>
<path fill="none" stroke="black" stroke-width="3" d="M601.99,-145.33C642.55,-163.25 571.86,-278.94 612.36,-296.91"/>
<polygon fill="none" stroke="black" stroke-width="3" points="603.66,-145.63 597.04,-148.49 591.85,-143.48 598.47,-140.62 603.66,-145.63"/>
<polygon fill="none" stroke="black" stroke-width="3" points="610.73,-296.61 617.35,-293.75 622.53,-298.76 615.91,-301.62 610.73,-296.61"/>
</g>
<!-- c13&#45;&gt;c10 -->
<g id="edge7" class="edge">
<title>c13:e&#45;&gt;c10:w</title>
<path fill="none" stroke="black" stroke-width="3" d="M999.69,-299.25C1018.23,-299.25 1015.31,-275.12 1025.13,-265.32"/>
<polygon fill="black" stroke="black" stroke-width="3" points="1023.38,-269.74 1031.45,-262.88 1020.86,-263.21 1023.38,-269.74"/>
</g>
<!-- c14 -->
<g id="node11" class="node">
<title>c14</title>
<polygon fill="none" stroke="black" points="242.34,-87.5 242.34,-136.5 335.34,-136.5 335.34,-87.5 242.34,-87.5"/>
<text text-anchor="middle" x="255.22" y="-119.2" font-family="Times,serif" font-size="14.00">A</text>
<polyline fill="none" stroke="black" points="242.34,-112 268.09,-112"/>
<text text-anchor="middle" x="255.22" y="-94.7" font-family="Times,serif" font-size="14.00">B</text>
<polyline fill="none" stroke="black" points="268.09,-87.5 268.09,-136.5"/>
<text text-anchor="middle" x="288.84" y="-115.2" font-family="Times,serif" font-size="14.00">$5</text>
<text text-anchor="middle" x="288.84" y="-98.7" font-family="Times,serif" font-size="14.00">$sub</text>
<polyline fill="none" stroke="black" points="309.59,-87.5 309.59,-136.5"/>
<text text-anchor="middle" x="322.47" y="-107.2" font-family="Times,serif" font-size="14.00">Y</text>
</g>
<!-- x4 -->
<g id="node14" class="node">
<title>x4</title>
<path fill="none" stroke="black" d="M383.34,-87.5C383.34,-87.5 421.84,-87.5 421.84,-87.5 427.84,-87.5 433.84,-93.5 433.84,-99.5 433.84,-99.5 433.84,-124.5 433.84,-124.5 433.84,-130.5 427.84,-136.5 421.84,-136.5 421.84,-136.5 383.34,-136.5 383.34,-136.5 377.34,-136.5 371.34,-130.5 371.34,-124.5 371.34,-124.5 371.34,-99.5 371.34,-99.5 371.34,-93.5 377.34,-87.5 383.34,-87.5"/>
<text text-anchor="middle" x="402.59" y="-119.2" font-family="Times,serif" font-size="14.00">3:3 &#45; 7:7</text>
<polyline fill="none" stroke="black" points="371.34,-112 433.84,-112"/>
<text text-anchor="middle" x="402.59" y="-94.7" font-family="Times,serif" font-size="14.00">2:0 &#45; 2:0</text>
</g>
<!-- c14&#45;&gt;x4 -->
<g id="edge5" class="edge">
<title>c14:e&#45;&gt;x4:w</title>
<path fill="none" stroke="black" stroke-width="3" d="M348.06,-112.19C351.66,-112.15 354.79,-112.1 358.37,-112.07"/>
<polygon fill="none" stroke="black" stroke-width="3" points="350.04,-112.18 344.06,-116.21 338.05,-112.24 344.03,-108.21 350.04,-112.18"/>
<polygon fill="none" stroke="black" stroke-width="3" points="356.64,-112.07 362.62,-108.04 368.64,-112.01 362.66,-116.04 356.64,-112.07"/>
</g>
<!-- x2&#45;&gt;c14 -->
<g id="edge3" class="edge">
<title>x2:e&#45;&gt;c14:w</title>
<path fill="none" stroke="black" stroke-width="3" d="M218.43,-144.23C223,-139.85 225.69,-133.39 230.26,-129.01"/>
<polygon fill="none" stroke="black" stroke-width="3" points="220.02,-143.6 215.91,-149.53 208.86,-148.01 212.97,-142.08 220.02,-143.6"/>
<polygon fill="none" stroke="black" stroke-width="3" points="228.66,-129.64 232.78,-123.72 239.82,-125.24 235.71,-131.16 228.66,-129.64"/>
</g>
<!-- x3&#45;&gt;c14 -->
<g id="edge4" class="edge">
<title>x3:e&#45;&gt;c14:w</title>
<path fill="none" stroke="black" d="M219.11,-95.45C222.8,-96.33 225.96,-97.44 229.66,-98.32"/>
<polygon fill="none" stroke="black" points="219.16,-95.46 212.75,-98.75 207.24,-94.1 213.65,-90.8 219.16,-95.46"/>
<polygon fill="none" stroke="black" points="229.52,-98.3 235.93,-95 241.45,-99.65 235.03,-102.95 229.52,-98.3"/>
</g>
<!-- n2 -->
<g id="node19" class="node">
<title>n2</title>
<ellipse fill="black" stroke="black" cx="471.64" cy="-112" rx="1.8" ry="1.8"/>
</g>
<!-- x4&#45;&gt;n2 -->
<g id="edge8" class="edge">
<title>x4:e&#45;&gt;n2:w</title>
<path fill="none" stroke="black" stroke-width="3" d="M433.84,-99.75C446.12,-99.75 450.64,-106.22 458.67,-109.75"/>
<polygon fill="black" stroke="black" stroke-width="3" points="454.9,-112.56 465.39,-111.1 456.28,-105.7 454.9,-112.56"/>
</g>
<!-- x4&#45;&gt;n2 -->
<g id="edge9" class="edge">
<title>x4:e&#45;&gt;n2:w</title>
<path fill="none" stroke="black" d="M433.84,-124.25C446.12,-124.25 450.64,-117.78 458.67,-114.25"/>
<polygon fill="black" stroke="black" points="459.24,-117.7 468.36,-112.3 457.86,-110.84 459.24,-117.7"/>
</g>
<!-- v5 -->
<g id="node15" class="node">
<title>v5</title>
<ellipse fill="none" stroke="black" cx="1490.22" cy="-160" rx="178.28" ry="18"/>
<text text-anchor="middle" x="1490.22" y="-154.95" font-family="Times,serif" font-size="14.00">34&#39;0000000000000000000000000000000000</text>
</g>
<!-- x6 -->
<g id="node16" class="node">
<title>x6</title>
<path fill="none" stroke="black" d="M1716.5,-145C1716.5,-145 1768.5,-145 1768.5,-145 1774.5,-145 1780.5,-151 1780.5,-157 1780.5,-157 1780.5,-169 1780.5,-169 1780.5,-175 1774.5,-181 1768.5,-181 1768.5,-181 1716.5,-181 1716.5,-181 1710.5,-181 1704.5,-175 1704.5,-169 1704.5,-169 1704.5,-157 1704.5,-157 1704.5,-151 1710.5,-145 1716.5,-145"/>
<text text-anchor="middle" x="1742.5" y="-158.2" font-family="Times,serif" font-size="14.00">33:0 &#45; 37:4</text>
</g>
<!-- v5&#45;&gt;x6 -->
<g id="edge26" class="edge">
<title>v5:e&#45;&gt;x6:w</title>
<path fill="none" stroke="black" stroke-width="3" d="M1668.5,-160C1679.92,-160 1685.18,-161.52 1693.04,-162.39"/>
<polygon fill="black" stroke="black" stroke-width="3" points="1689.8,-165.73 1699.97,-162.76 1690.17,-158.74 1689.8,-165.73"/>
</g>
<!-- x6&#45;&gt;n4 -->
<g id="edge21" class="edge">
<title>x6:e&#45;&gt;n4:w</title>
<path fill="none" stroke="black" stroke-width="3" d="M1780.5,-163.25C1795.76,-163.25 1797.07,-178.93 1805.8,-186.28"/>
<polygon fill="black" stroke="black" stroke-width="3" points="1801.62,-188.53 1812.21,-188.51 1803.92,-181.92 1801.62,-188.53"/>
</g>
<!-- x7 -->
<g id="node17" class="node">
<title>x7</title>
<path fill="none" stroke="black" d="M521.44,-25C521.44,-25 577.19,-25 577.19,-25 583.19,-25 589.19,-31 589.19,-37 589.19,-37 589.19,-49 589.19,-49 589.19,-55 583.19,-61 577.19,-61 577.19,-61 521.44,-61 521.44,-61 515.44,-61 509.44,-55 509.44,-49 509.44,-49 509.44,-37 509.44,-37 509.44,-31 515.44,-25 521.44,-25"/>
<text text-anchor="middle" x="549.32" y="-38.2" font-family="Times,serif" font-size="14.00">4x 7:7 &#45; 3:0</text>
</g>
<!-- x8 -->
<g id="node18" class="node">
<title>x8</title>
<path fill="none" stroke="black" d="M653.94,-49C653.94,-49 692.44,-49 692.44,-49 698.44,-49 704.44,-55 704.44,-61 704.44,-61 704.44,-73 704.44,-73 704.44,-79 698.44,-85 692.44,-85 692.44,-85 653.94,-85 653.94,-85 647.94,-85 641.94,-79 641.94,-73 641.94,-73 641.94,-61 641.94,-61 641.94,-55 647.94,-49 653.94,-49"/>
<text text-anchor="middle" x="673.19" y="-62.2" font-family="Times,serif" font-size="14.00">3:0 &#45; 6:3</text>
</g>
<!-- x7&#45;&gt;x8 -->
<g id="edge6" class="edge">
<title>x7:e&#45;&gt;x8:w</title>
<path fill="none" stroke="black" stroke-width="3" d="M601.63,-45.39C612.32,-49.94 617.61,-59.82 628.2,-64.48"/>
<polygon fill="none" stroke="black" stroke-width="3" points="603.63,-45.77 596.98,-48.57 591.85,-43.51 598.49,-40.71 603.63,-45.77"/>
<polygon fill="none" stroke="black" stroke-width="3" points="626.52,-64.14 633.18,-61.39 638.29,-66.47 631.63,-69.23 626.52,-64.14"/>
</g>
<!-- x8&#45;&gt;n2 -->
<g id="edge10" class="edge">
<title>x8:e&#45;&gt;n2:w</title>
<path fill="none" stroke="black" stroke-width="3" d="M705.44,-67.25C713.56,-67.25 709.99,-79.57 704.44,-85.5 674.6,-117.35 552.74,-103.5 509.44,-109 493.43,-111.03 489.55,-112.73 473.44,-113.8 473.33,-113.81 473.22,-113.82 473.11,-113.83"/>
<polygon fill="black" stroke="black" stroke-width="3" points="483.19,-113.96 472.6,-113.63 480.67,-120.49 483.19,-113.96"/>
</g>
<!-- n2&#45;&gt;x1 -->
<g id="edge11" class="edge">
<title>n2:e&#45;&gt;x1:w</title>
<path fill="none" stroke="black" stroke-width="3" d="M473.44,-112C486.83,-112 490.24,-122.33 498.48,-127.65"/>
<polygon fill="black" stroke="black" stroke-width="3" points="494.5,-130.17 505.07,-129.52 496.4,-123.43 494.5,-130.17"/>
</g>
<!-- n2&#45;&gt;x1 -->
<g id="edge12" class="edge">
<title>n2:e&#45;&gt;x1:w</title>
<path fill="none" stroke="black" stroke-width="3" d="M473.44,-112C493.76,-112 488.32,-140.55 498.97,-151.26"/>
<polygon fill="black" stroke="black" stroke-width="3" points="494.61,-153.34 505.2,-153.63 497.1,-146.8 494.61,-153.34"/>
</g>
<!-- n2&#45;&gt;x7 -->
<g id="edge13" class="edge">
<title>n2:e&#45;&gt;x7:w</title>
<path fill="none" stroke="black" stroke-width="3" d="M473.44,-112C503.35,-112 482.52,-60.3 498.95,-46.57"/>
<polygon fill="black" stroke="black" stroke-width="3" points="496.63,-50.97 505.11,-44.62 494.52,-44.3 496.63,-50.97"/>
</g>
</g>
</svg>
