<?xml version="1.0" encoding="UTF-8" standalone="no"?>
<!DOCTYPE svg PUBLIC "-//W3C//DTD SVG 1.1//EN"
 "http://www.w3.org/Graphics/SVG/1.1/DTD/svg11.dtd">
<!-- Generated by graphviz version 12.2.1 (20241206.2353)
 -->
<!-- Title: top Pages: 1 -->
<svg width="3510pt" height="875pt"
 viewBox="0.00 0.00 3509.86 875.32" xmlns="http://www.w3.org/2000/svg" xmlns:xlink="http://www.w3.org/1999/xlink">
<g id="graph0" class="graph" transform="scale(1 1) rotate(0) translate(4 871.32)">
<title>top</title>
<polygon fill="white" stroke="none" points="-4,4 -4,-871.32 3505.86,-871.32 3505.86,4 -4,4"/>
<text text-anchor="middle" x="1750.93" y="-7.2" font-family="Times,serif" font-size="14.00">top</text>
<!-- n11 -->
<g id="node1" class="node">
<title>n11</title>
<polygon fill="none" stroke="black" points="987.75,-791.36 903.55,-773.36 987.75,-755.36 1071.96,-773.36 987.75,-791.36"/>
<text text-anchor="middle" x="987.75" y="-768.31" font-family="Times,serif" font-size="14.00">expr_700675</text>
</g>
<!-- x7 -->
<g id="node24" class="node">
<title>x7</title>
<path fill="none" stroke="black" d="M1545.75,-722.86C1545.75,-722.86 1584.25,-722.86 1584.25,-722.86 1590.25,-722.86 1596.25,-728.86 1596.25,-734.86 1596.25,-734.86 1596.25,-759.86 1596.25,-759.86 1596.25,-765.86 1590.25,-771.86 1584.25,-771.86 1584.25,-771.86 1545.75,-771.86 1545.75,-771.86 1539.75,-771.86 1533.75,-765.86 1533.75,-759.86 1533.75,-759.86 1533.75,-734.86 1533.75,-734.86 1533.75,-728.86 1539.75,-722.86 1545.75,-722.86"/>
<text text-anchor="middle" x="1565" y="-754.56" font-family="Times,serif" font-size="14.00">3:3 &#45; 3:3</text>
<polyline fill="none" stroke="black" points="1533.75,-747.36 1596.25,-747.36"/>
<text text-anchor="middle" x="1565" y="-730.06" font-family="Times,serif" font-size="14.00">2:0 &#45; 2:0</text>
</g>
<!-- n11&#45;&gt;x7 -->
<g id="edge41" class="edge">
<title>n11:e&#45;&gt;x7:w</title>
<path fill="none" stroke="black" stroke-width="3" d="M1071.96,-773.36C1090.71,-773.36 1090.01,-756.78 1107.96,-751.36 1285.11,-697.84 1341.51,-733.57 1521.29,-735.06"/>
<polygon fill="black" stroke="black" stroke-width="3" points="1518.19,-738.55 1528.21,-735.09 1518.22,-731.55 1518.19,-738.55"/>
</g>
<!-- x17 -->
<g id="node41" class="node">
<title>x17</title>
<path fill="none" stroke="black" d="M1545.75,-790.86C1545.75,-790.86 1584.25,-790.86 1584.25,-790.86 1590.25,-790.86 1596.25,-796.86 1596.25,-802.86 1596.25,-802.86 1596.25,-827.86 1596.25,-827.86 1596.25,-833.86 1590.25,-839.86 1584.25,-839.86 1584.25,-839.86 1545.75,-839.86 1545.75,-839.86 1539.75,-839.86 1533.75,-833.86 1533.75,-827.86 1533.75,-827.86 1533.75,-802.86 1533.75,-802.86 1533.75,-796.86 1539.75,-790.86 1545.75,-790.86"/>
<text text-anchor="middle" x="1565" y="-822.56" font-family="Times,serif" font-size="14.00">3:3 &#45; 3:3</text>
<polyline fill="none" stroke="black" points="1533.75,-815.36 1596.25,-815.36"/>
<text text-anchor="middle" x="1565" y="-798.06" font-family="Times,serif" font-size="14.00">2:0 &#45; 2:0</text>
</g>
<!-- n11&#45;&gt;x17 -->
<g id="edge39" class="edge">
<title>n11:e&#45;&gt;x17:w</title>
<path fill="none" stroke="black" stroke-width="3" d="M1071.96,-773.36C1097.92,-773.36 1084.73,-807.77 1107.96,-819.36 1261.49,-895.98 1327.79,-866.96 1494.02,-824.36 1508.58,-820.63 1512.04,-810.15 1521.67,-805.45"/>
<polygon fill="black" stroke="black" stroke-width="3" points="1519.25,-809.54 1528.31,-804.05 1517.8,-802.69 1519.25,-809.54"/>
</g>
<!-- x44 -->
<g id="node75" class="node">
<title>x44</title>
<path fill="none" stroke="black" d="M1150.1,-760.86C1150.1,-760.86 1189.35,-760.86 1189.35,-760.86 1195.35,-760.86 1201.35,-766.86 1201.35,-772.86 1201.35,-772.86 1201.35,-797.86 1201.35,-797.86 1201.35,-803.86 1195.35,-809.86 1189.35,-809.86 1189.35,-809.86 1150.1,-809.86 1150.1,-809.86 1144.1,-809.86 1138.1,-803.86 1138.1,-797.86 1138.1,-797.86 1138.1,-772.86 1138.1,-772.86 1138.1,-766.86 1144.1,-760.86 1150.1,-760.86"/>
<text text-anchor="middle" x="1169.72" y="-792.56" font-family="Times,serif" font-size="14.00">X &#45;&gt; 3:3</text>
<polyline fill="none" stroke="black" points="1138.1,-785.36 1201.35,-785.36"/>
<text text-anchor="middle" x="1169.72" y="-768.06" font-family="Times,serif" font-size="14.00">2:0 &#45; 2:0</text>
</g>
<!-- n11&#45;&gt;x44 -->
<g id="edge40" class="edge">
<title>n11:e&#45;&gt;x44:w</title>
<path fill="none" stroke="black" stroke-width="3" d="M1071.96,-773.36C1096.72,-773.36 1105.6,-773.18 1125.77,-773.12"/>
<polygon fill="black" stroke="black" stroke-width="3" points="1122.56,-776.63 1132.56,-773.12 1122.55,-769.63 1122.56,-776.63"/>
</g>
<!-- n12 -->
<g id="node2" class="node">
<title>n12</title>
<polygon fill="none" stroke="black" points="107.84,-356.9 107.84,-371.82 76.26,-382.36 31.59,-382.36 0,-371.82 0,-356.9 31.59,-346.36 76.26,-346.36 107.84,-356.9"/>
<text text-anchor="middle" x="53.92" y="-359.31" font-family="Times,serif" font-size="14.00">input_data</text>
</g>
<!-- x0 -->
<g id="node14" class="node">
<title>x0</title>
<path fill="none" stroke="black" d="M192.32,-672.36C192.32,-672.36 230.82,-672.36 230.82,-672.36 236.82,-672.36 242.82,-678.36 242.82,-684.36 242.82,-684.36 242.82,-696.36 242.82,-696.36 242.82,-702.36 236.82,-708.36 230.82,-708.36 230.82,-708.36 192.32,-708.36 192.32,-708.36 186.32,-708.36 180.32,-702.36 180.32,-696.36 180.32,-696.36 180.32,-684.36 180.32,-684.36 180.32,-678.36 186.32,-672.36 192.32,-672.36"/>
<text text-anchor="middle" x="211.57" y="-685.56" font-family="Times,serif" font-size="14.00">3:0 &#45; 3:0</text>
</g>
<!-- n12&#45;&gt;x0 -->
<g id="edge45" class="edge">
<title>n12:e&#45;&gt;x0:w</title>
<path fill="none" stroke="black" stroke-width="3" d="M107.84,-364.36C174.77,-364.36 110.71,-605.21 143.84,-663.36 151.53,-676.86 156.72,-685.9 168.11,-689.21"/>
<polygon fill="black" stroke="black" stroke-width="3" points="164.46,-692.28 174.81,-690.05 165.33,-685.33 164.46,-692.28"/>
</g>
<!-- x1 -->
<g id="node15" class="node">
<title>x1</title>
<path fill="none" stroke="black" d="M192.32,-617.36C192.32,-617.36 230.82,-617.36 230.82,-617.36 236.82,-617.36 242.82,-623.36 242.82,-629.36 242.82,-629.36 242.82,-641.36 242.82,-641.36 242.82,-647.36 236.82,-653.36 230.82,-653.36 230.82,-653.36 192.32,-653.36 192.32,-653.36 186.32,-653.36 180.32,-647.36 180.32,-641.36 180.32,-641.36 180.32,-629.36 180.32,-629.36 180.32,-623.36 186.32,-617.36 192.32,-617.36"/>
<text text-anchor="middle" x="211.57" y="-630.56" font-family="Times,serif" font-size="14.00">6:3 &#45; 3:0</text>
</g>
<!-- n12&#45;&gt;x1 -->
<g id="edge50" class="edge">
<title>n12:e&#45;&gt;x1:w</title>
<path fill="none" stroke="black" stroke-width="3" d="M107.84,-364.36C161.33,-364.36 118.95,-555.01 143.84,-602.36 151.85,-617.6 155.9,-629.67 168.15,-633.94"/>
<polygon fill="black" stroke="black" stroke-width="3" points="164.42,-636.92 174.83,-634.94 165.46,-630 164.42,-636.92"/>
</g>
<!-- x3 -->
<g id="node18" class="node">
<title>x3</title>
<path fill="none" stroke="black" d="M798.8,-30.36C798.8,-30.36 837.3,-30.36 837.3,-30.36 843.3,-30.36 849.3,-36.36 849.3,-42.36 849.3,-42.36 849.3,-54.36 849.3,-54.36 849.3,-60.36 843.3,-66.36 837.3,-66.36 837.3,-66.36 798.8,-66.36 798.8,-66.36 792.8,-66.36 786.8,-60.36 786.8,-54.36 786.8,-54.36 786.8,-42.36 786.8,-42.36 786.8,-36.36 792.8,-30.36 798.8,-30.36"/>
<text text-anchor="middle" x="818.05" y="-43.56" font-family="Times,serif" font-size="14.00">5:3 &#45; 2:0</text>
</g>
<!-- n12&#45;&gt;x3 -->
<g id="edge55" class="edge">
<title>n12:e&#45;&gt;x3:w</title>
<path fill="none" stroke="black" stroke-width="3" d="M107.84,-364.36C174.77,-364.36 96.82,-112.98 143.84,-65.36 212.3,3.99 263.73,-36.36 361.17,-36.36 361.17,-36.36 361.17,-36.36 501.3,-36.36 624.03,-36.36 657.25,-47.88 774.56,-48.58"/>
<polygon fill="black" stroke="black" stroke-width="3" points="771.25,-52.07 781.26,-48.6 771.27,-45.07 771.25,-52.07"/>
</g>
<!-- x5 -->
<g id="node21" class="node">
<title>x5</title>
<path fill="none" stroke="black" d="M342.92,-163.36C342.92,-163.36 381.42,-163.36 381.42,-163.36 387.42,-163.36 393.42,-169.36 393.42,-175.36 393.42,-175.36 393.42,-187.36 393.42,-187.36 393.42,-193.36 387.42,-199.36 381.42,-199.36 381.42,-199.36 342.92,-199.36 342.92,-199.36 336.92,-199.36 330.92,-193.36 330.92,-187.36 330.92,-187.36 330.92,-175.36 330.92,-175.36 330.92,-169.36 336.92,-163.36 342.92,-163.36"/>
<text text-anchor="middle" x="362.17" y="-176.56" font-family="Times,serif" font-size="14.00">6:4 &#45; 2:0</text>
</g>
<!-- n12&#45;&gt;x5 -->
<g id="edge56" class="edge">
<title>n12:e&#45;&gt;x5:w</title>
<path fill="none" stroke="black" stroke-width="3" d="M107.84,-364.36C188.12,-364.36 82.47,-239.11 143.84,-187.36 204.13,-136.52 243.37,-177.37 318.56,-181.31"/>
<polygon fill="black" stroke="black" stroke-width="3" points="315.3,-184.73 325.39,-181.49 315.48,-177.73 315.3,-184.73"/>
</g>
<!-- c32 -->
<g id="node32" class="node">
<title>c32</title>
<polygon fill="none" stroke="black" points="163.57,-456.86 163.57,-505.86 259.57,-505.86 259.57,-456.86 163.57,-456.86"/>
<text text-anchor="middle" x="176.45" y="-488.56" font-family="Times,serif" font-size="14.00">A</text>
<polyline fill="none" stroke="black" points="163.57,-481.36 189.32,-481.36"/>
<text text-anchor="middle" x="176.45" y="-464.06" font-family="Times,serif" font-size="14.00">B</text>
<polyline fill="none" stroke="black" points="189.32,-456.86 189.32,-505.86"/>
<text text-anchor="middle" x="211.57" y="-484.56" font-family="Times,serif" font-size="14.00">$3</text>
<text text-anchor="middle" x="211.57" y="-468.06" font-family="Times,serif" font-size="14.00">$mul</text>
<polyline fill="none" stroke="black" points="233.82,-456.86 233.82,-505.86"/>
<text text-anchor="middle" x="246.7" y="-476.56" font-family="Times,serif" font-size="14.00">Y</text>
</g>
<!-- n12&#45;&gt;c32 -->
<g id="edge42" class="edge">
<title>n12:e&#45;&gt;c32:w</title>
<path fill="none" stroke="black" stroke-width="3" d="M107.84,-364.36C165.84,-364.36 109.38,-476.07 151.28,-491.78"/>
<polygon fill="black" stroke="black" stroke-width="3" points="147.66,-494.74 158.09,-492.88 148.78,-487.83 147.66,-494.74"/>
</g>
<!-- n12&#45;&gt;c32 -->
<g id="edge43" class="edge">
<title>n12:e&#45;&gt;c32:w</title>
<path fill="none" stroke="black" stroke-width="3" d="M107.84,-364.36C156.06,-364.36 117.61,-452.63 151.61,-467.11"/>
<polygon fill="black" stroke="black" stroke-width="3" points="147.64,-469.94 158.1,-468.3 148.89,-463.06 147.64,-469.94"/>
</g>
<!-- x14 -->
<g id="node35" class="node">
<title>x14</title>
<path fill="none" stroke="black" d="M192.32,-103.36C192.32,-103.36 230.82,-103.36 230.82,-103.36 236.82,-103.36 242.82,-109.36 242.82,-115.36 242.82,-115.36 242.82,-127.36 242.82,-127.36 242.82,-133.36 236.82,-139.36 230.82,-139.36 230.82,-139.36 192.32,-139.36 192.32,-139.36 186.32,-139.36 180.32,-133.36 180.32,-127.36 180.32,-127.36 180.32,-115.36 180.32,-115.36 180.32,-109.36 186.32,-103.36 192.32,-103.36"/>
<text text-anchor="middle" x="211.57" y="-116.56" font-family="Times,serif" font-size="14.00">6:4 &#45; 2:0</text>
</g>
<!-- n12&#45;&gt;x14 -->
<g id="edge46" class="edge">
<title>n12:e&#45;&gt;x14:w</title>
<path fill="none" stroke="black" stroke-width="3" d="M107.84,-364.36C155.19,-364.36 121.24,-195.97 143.84,-154.36 152,-139.33 156.06,-127.46 168.23,-123.25"/>
<polygon fill="black" stroke="black" stroke-width="3" points="165.45,-127.21 174.83,-122.28 164.42,-120.28 165.45,-127.21"/>
</g>
<!-- x15 -->
<g id="node37" class="node">
<title>x15</title>
<path fill="none" stroke="black" d="M192.32,-401.36C192.32,-401.36 230.82,-401.36 230.82,-401.36 236.82,-401.36 242.82,-407.36 242.82,-413.36 242.82,-413.36 242.82,-425.36 242.82,-425.36 242.82,-431.36 236.82,-437.36 230.82,-437.36 230.82,-437.36 192.32,-437.36 192.32,-437.36 186.32,-437.36 180.32,-431.36 180.32,-425.36 180.32,-425.36 180.32,-413.36 180.32,-413.36 180.32,-407.36 186.32,-401.36 192.32,-401.36"/>
<text text-anchor="middle" x="211.57" y="-414.56" font-family="Times,serif" font-size="14.00">7:2 &#45; 5:0</text>
</g>
<!-- n12&#45;&gt;x15 -->
<g id="edge47" class="edge">
<title>n12:e&#45;&gt;x15:w</title>
<path fill="none" stroke="black" stroke-width="3" d="M107.84,-364.36C143.76,-364.36 140.48,-408.57 168.14,-417.9"/>
<polygon fill="black" stroke="black" stroke-width="3" points="164.42,-420.87 174.83,-418.92 165.48,-413.95 164.42,-420.87"/>
</g>
<!-- x16 -->
<g id="node38" class="node">
<title>x16</title>
<path fill="none" stroke="black" d="M192.32,-346.36C192.32,-346.36 230.82,-346.36 230.82,-346.36 236.82,-346.36 242.82,-352.36 242.82,-358.36 242.82,-358.36 242.82,-370.36 242.82,-370.36 242.82,-376.36 236.82,-382.36 230.82,-382.36 230.82,-382.36 192.32,-382.36 192.32,-382.36 186.32,-382.36 180.32,-376.36 180.32,-370.36 180.32,-370.36 180.32,-358.36 180.32,-358.36 180.32,-352.36 186.32,-346.36 192.32,-346.36"/>
<text text-anchor="middle" x="211.57" y="-359.56" font-family="Times,serif" font-size="14.00">6:1 &#45; 5:0</text>
</g>
<!-- n12&#45;&gt;x16 -->
<g id="edge48" class="edge">
<title>n12:e&#45;&gt;x16:w</title>
<path fill="none" stroke="black" stroke-width="3" d="M107.84,-364.36C135.39,-364.36 145.02,-364.55 167.81,-364.6"/>
<polygon fill="black" stroke="black" stroke-width="3" points="164.78,-368.09 174.78,-364.61 164.78,-361.09 164.78,-368.09"/>
</g>
<!-- x19 -->
<g id="node44" class="node">
<title>x19</title>
<path fill="none" stroke="black" d="M192.32,-252.36C192.32,-252.36 230.82,-252.36 230.82,-252.36 236.82,-252.36 242.82,-258.36 242.82,-264.36 242.82,-264.36 242.82,-276.36 242.82,-276.36 242.82,-282.36 236.82,-288.36 230.82,-288.36 230.82,-288.36 192.32,-288.36 192.32,-288.36 186.32,-288.36 180.32,-282.36 180.32,-276.36 180.32,-276.36 180.32,-264.36 180.32,-264.36 180.32,-258.36 186.32,-252.36 192.32,-252.36"/>
<text text-anchor="middle" x="211.57" y="-265.56" font-family="Times,serif" font-size="14.00">7:4 &#45; 3:0</text>
</g>
<!-- n12&#45;&gt;x19 -->
<g id="edge49" class="edge">
<title>n12:e&#45;&gt;x19:w</title>
<path fill="none" stroke="black" stroke-width="3" d="M107.84,-364.36C139.32,-364.36 124.06,-327.85 143.84,-303.36 154.48,-290.19 157.06,-277.41 168.22,-272.61"/>
<polygon fill="black" stroke="black" stroke-width="3" points="165.63,-276.63 174.85,-271.41 164.39,-269.74 165.63,-276.63"/>
</g>
<!-- x20 -->
<g id="node45" class="node">
<title>x20</title>
<path fill="none" stroke="black" d="M192.32,-197.36C192.32,-197.36 230.82,-197.36 230.82,-197.36 236.82,-197.36 242.82,-203.36 242.82,-209.36 242.82,-209.36 242.82,-221.36 242.82,-221.36 242.82,-227.36 236.82,-233.36 230.82,-233.36 230.82,-233.36 192.32,-233.36 192.32,-233.36 186.32,-233.36 180.32,-227.36 180.32,-221.36 180.32,-221.36 180.32,-209.36 180.32,-209.36 180.32,-203.36 186.32,-197.36 192.32,-197.36"/>
<text text-anchor="middle" x="211.57" y="-210.56" font-family="Times,serif" font-size="14.00">3:0 &#45; 3:0</text>
</g>
<!-- n12&#45;&gt;x20 -->
<g id="edge51" class="edge">
<title>n12:e&#45;&gt;x20:w</title>
<path fill="none" stroke="black" stroke-width="3" d="M107.84,-364.36C164.37,-364.36 111.65,-288.83 143.84,-242.36 152.54,-229.8 157.19,-220.67 167.99,-217.17"/>
<polygon fill="black" stroke="black" stroke-width="3" points="165.39,-221.07 174.82,-216.23 164.44,-214.13 165.39,-221.07"/>
</g>
<!-- x21 -->
<g id="node47" class="node">
<title>x21</title>
<path fill="none" stroke="black" d="M481.05,-65.36C481.05,-65.36 519.55,-65.36 519.55,-65.36 525.55,-65.36 531.55,-71.36 531.55,-77.36 531.55,-77.36 531.55,-89.36 531.55,-89.36 531.55,-95.36 525.55,-101.36 519.55,-101.36 519.55,-101.36 481.05,-101.36 481.05,-101.36 475.05,-101.36 469.05,-95.36 469.05,-89.36 469.05,-89.36 469.05,-77.36 469.05,-77.36 469.05,-71.36 475.05,-65.36 481.05,-65.36"/>
<text text-anchor="middle" x="500.3" y="-78.56" font-family="Times,serif" font-size="14.00">6:4 &#45; 2:0</text>
</g>
<!-- n12&#45;&gt;x21 -->
<g id="edge52" class="edge">
<title>n12:e&#45;&gt;x21:w</title>
<path fill="none" stroke="black" stroke-width="3" d="M107.84,-364.36C168.59,-364.36 98.75,-134.07 143.84,-93.36 194.73,-47.42 376.92,-80.05 456.62,-83.35"/>
<polygon fill="black" stroke="black" stroke-width="3" points="453.43,-86.78 463.51,-83.51 453.59,-79.78 453.43,-86.78"/>
</g>
<!-- x26 -->
<g id="node55" class="node">
<title>x26</title>
<path fill="none" stroke="black" d="M1777.73,-553.36C1777.73,-553.36 1816.23,-553.36 1816.23,-553.36 1822.23,-553.36 1828.23,-559.36 1828.23,-565.36 1828.23,-565.36 1828.23,-577.36 1828.23,-577.36 1828.23,-583.36 1822.23,-589.36 1816.23,-589.36 1816.23,-589.36 1777.73,-589.36 1777.73,-589.36 1771.73,-589.36 1765.73,-583.36 1765.73,-577.36 1765.73,-577.36 1765.73,-565.36 1765.73,-565.36 1765.73,-559.36 1771.73,-553.36 1777.73,-553.36"/>
<text text-anchor="middle" x="1796.98" y="-566.56" font-family="Times,serif" font-size="14.00">5:5 &#45; 0:0</text>
</g>
<!-- n12&#45;&gt;x26 -->
<g id="edge53" class="edge">
<title>n12:e&#45;&gt;x26:w</title>
<path fill="none" stroke="black" d="M107.84,-364.36C200.35,-364.36 75.66,-506.84 143.84,-569.36 215.31,-634.89 264.21,-588.36 361.17,-588.36 361.17,-588.36 361.17,-588.36 1170.72,-588.36 1431.4,-588.36 1499.2,-572.1 1754.23,-571.62"/>
<polygon fill="black" stroke="black" points="1754.22,-575.12 1764.22,-571.61 1754.22,-568.12 1754.22,-575.12"/>
</g>
<!-- c43 -->
<g id="node56" class="node">
<title>c43</title>
<polygon fill="none" stroke="black" points="768.55,-353.61 768.55,-427.11 867.55,-427.11 867.55,-353.61 768.55,-353.61"/>
<text text-anchor="middle" x="781.43" y="-409.81" font-family="Times,serif" font-size="14.00">A</text>
<polyline fill="none" stroke="black" points="768.55,-402.61 794.3,-402.61"/>
<text text-anchor="middle" x="781.43" y="-385.31" font-family="Times,serif" font-size="14.00">B</text>
<polyline fill="none" stroke="black" points="768.55,-378.11 794.3,-378.11"/>
<text text-anchor="middle" x="781.43" y="-360.81" font-family="Times,serif" font-size="14.00">S</text>
<polyline fill="none" stroke="black" points="794.3,-353.61 794.3,-427.11"/>
<text text-anchor="middle" x="818.05" y="-393.56" font-family="Times,serif" font-size="14.00">$22</text>
<text text-anchor="middle" x="818.05" y="-377.06" font-family="Times,serif" font-size="14.00">$mux</text>
<polyline fill="none" stroke="black" points="841.8,-353.61 841.8,-427.11"/>
<text text-anchor="middle" x="854.68" y="-385.31" font-family="Times,serif" font-size="14.00">Y</text>
</g>
<!-- n12&#45;&gt;c43 -->
<g id="edge44" class="edge">
<title>n12:e&#45;&gt;c43:w</title>
<path fill="none" stroke="black" stroke-width="3" d="M107.84,-364.36C128.11,-364.36 124.97,-343.77 143.84,-336.36 234.1,-300.92 264.21,-317.36 361.17,-317.36 361.17,-317.36 361.17,-317.36 501.3,-317.36 604.42,-317.36 643.7,-284.01 732.55,-336.36 753.33,-348.6 744.37,-378.11 757.72,-387.46"/>
<polygon fill="black" stroke="black" stroke-width="3" points="753.6,-389.99 764.16,-389.19 755.41,-383.22 753.6,-389.99"/>
</g>
<!-- x29 -->
<g id="node60" class="node">
<title>x29</title>
<path fill="none" stroke="black" d="M342.92,-723.36C342.92,-723.36 381.42,-723.36 381.42,-723.36 387.42,-723.36 393.42,-729.36 393.42,-735.36 393.42,-735.36 393.42,-747.36 393.42,-747.36 393.42,-753.36 387.42,-759.36 381.42,-759.36 381.42,-759.36 342.92,-759.36 342.92,-759.36 336.92,-759.36 330.92,-753.36 330.92,-747.36 330.92,-747.36 330.92,-735.36 330.92,-735.36 330.92,-729.36 336.92,-723.36 342.92,-723.36"/>
<text text-anchor="middle" x="362.17" y="-736.56" font-family="Times,serif" font-size="14.00">4:1 &#45; 3:0</text>
</g>
<!-- n12&#45;&gt;x29 -->
<g id="edge54" class="edge">
<title>n12:e&#45;&gt;x29:w</title>
<path fill="none" stroke="black" stroke-width="3" d="M107.84,-364.36C186.91,-364.36 88.57,-661.81 143.84,-718.36 199.37,-775.17 242.38,-744.81 318.45,-741.84"/>
<polygon fill="black" stroke="black" stroke-width="3" points="315.46,-745.4 325.38,-741.7 315.32,-738.4 315.46,-745.4"/>
</g>
<!-- n13 -->
<g id="node3" class="node">
<title>n13</title>
<polygon fill="none" stroke="black" points="3501.86,-352.9 3501.86,-367.82 3467.35,-378.36 3418.55,-378.36 3384.04,-367.82 3384.04,-352.9 3418.55,-342.36 3467.35,-342.36 3501.86,-352.9"/>
<text text-anchor="middle" x="3442.95" y="-355.31" font-family="Times,serif" font-size="14.00">output_data</text>
</g>
<!-- n14 -->
<g id="node4" class="node">
<title>n14</title>
<polygon fill="none" stroke="black" points="2197.75,-347.36 2135.98,-329.36 2197.75,-311.36 2259.51,-329.36 2197.75,-347.36"/>
<text text-anchor="middle" x="2197.75" y="-324.31" font-family="Times,serif" font-size="14.00">temp_10</text>
</g>
<!-- x11 -->
<g id="node30" class="node">
<title>x11</title>
<path fill="none" stroke="black" d="M2970.79,-304.36C2970.79,-304.36 3009.29,-304.36 3009.29,-304.36 3015.29,-304.36 3021.29,-310.36 3021.29,-316.36 3021.29,-316.36 3021.29,-328.36 3021.29,-328.36 3021.29,-334.36 3015.29,-340.36 3009.29,-340.36 3009.29,-340.36 2970.79,-340.36 2970.79,-340.36 2964.79,-340.36 2958.79,-334.36 2958.79,-328.36 2958.79,-328.36 2958.79,-316.36 2958.79,-316.36 2958.79,-310.36 2964.79,-304.36 2970.79,-304.36"/>
<text text-anchor="middle" x="2990.04" y="-317.56" font-family="Times,serif" font-size="14.00">3:0 &#45; 3:0</text>
</g>
<!-- n14&#45;&gt;x11 -->
<g id="edge62" class="edge">
<title>n14:e&#45;&gt;x11:w</title>
<path fill="none" stroke="black" stroke-width="3" d="M2259.51,-329.36C2275.67,-329.36 2279.47,-326.27 2295.51,-324.36 2380.66,-314.24 2401.76,-305.36 2487.51,-305.36 2487.51,-305.36 2487.51,-305.36 2778.42,-305.36 2855.02,-305.36 2876.23,-320.97 2947.42,-322.49"/>
<polygon fill="black" stroke="black" stroke-width="3" points="2944.22,-325.96 2954.25,-322.56 2944.29,-318.96 2944.22,-325.96"/>
</g>
<!-- x42 -->
<g id="node73" class="node">
<title>x42</title>
<path fill="none" stroke="black" d="M2309.39,-334.36C2309.39,-334.36 2392.14,-334.36 2392.14,-334.36 2398.14,-334.36 2404.14,-340.36 2404.14,-346.36 2404.14,-346.36 2404.14,-358.36 2404.14,-358.36 2404.14,-364.36 2398.14,-370.36 2392.14,-370.36 2392.14,-370.36 2309.39,-370.36 2309.39,-370.36 2303.39,-370.36 2297.39,-364.36 2297.39,-358.36 2297.39,-358.36 2297.39,-346.36 2297.39,-346.36 2297.39,-340.36 2303.39,-334.36 2309.39,-334.36"/>
<text text-anchor="middle" x="2350.76" y="-347.56" font-family="Times,serif" font-size="14.00">22x 26:26 &#45; 21:0</text>
</g>
<!-- n14&#45;&gt;x42 -->
<g id="edge63" class="edge">
<title>n14:e&#45;&gt;x42:w</title>
<path fill="none" stroke="black" stroke-width="3" d="M2259.51,-329.36C2274.19,-329.36 2276.67,-342.71 2285.45,-349.18"/>
<polygon fill="black" stroke="black" stroke-width="3" points="2281.47,-351.6 2292.06,-351.25 2283.56,-344.92 2281.47,-351.6"/>
</g>
<!-- n15 -->
<g id="node5" class="node">
<title>n15</title>
<polygon fill="none" stroke="black" points="1432.25,-815.36 1370.49,-797.36 1432.25,-779.36 1494.02,-797.36 1432.25,-815.36"/>
<text text-anchor="middle" x="1432.25" y="-792.31" font-family="Times,serif" font-size="14.00">temp_11</text>
</g>
<!-- n15&#45;&gt;x7 -->
<g id="edge68" class="edge">
<title>n15:e&#45;&gt;x7:w</title>
<path fill="none" stroke="black" d="M1494.02,-797.36C1513.36,-797.36 1511.09,-772.92 1521.99,-763.37"/>
<polygon fill="black" stroke="black" points="1523.03,-766.71 1531.32,-760.11 1520.73,-760.1 1523.03,-766.71"/>
</g>
<!-- n15&#45;&gt;x17 -->
<g id="edge67" class="edge">
<title>n15:e&#45;&gt;x17:w</title>
<path fill="none" stroke="black" d="M1494.02,-797.36C1511.25,-797.36 1511.8,-816.19 1522,-824.14"/>
<polygon fill="black" stroke="black" points="1520.72,-827.4 1531.31,-827.14 1522.87,-820.74 1520.72,-827.4"/>
</g>
<!-- n16 -->
<g id="node6" class="node">
<title>n16</title>
<polygon fill="none" stroke="black" points="1169.72,-385.36 1107.96,-367.36 1169.72,-349.36 1231.49,-367.36 1169.72,-385.36"/>
<text text-anchor="middle" x="1169.72" y="-362.31" font-family="Times,serif" font-size="14.00">temp_14</text>
</g>
<!-- x8 -->
<g id="node26" class="node">
<title>x8</title>
<path fill="none" stroke="black" d="M2613.53,-433.36C2613.53,-433.36 2652.03,-433.36 2652.03,-433.36 2658.03,-433.36 2664.03,-439.36 2664.03,-445.36 2664.03,-445.36 2664.03,-457.36 2664.03,-457.36 2664.03,-463.36 2658.03,-469.36 2652.03,-469.36 2652.03,-469.36 2613.53,-469.36 2613.53,-469.36 2607.53,-469.36 2601.53,-463.36 2601.53,-457.36 2601.53,-457.36 2601.53,-445.36 2601.53,-445.36 2601.53,-439.36 2607.53,-433.36 2613.53,-433.36"/>
<text text-anchor="middle" x="2632.78" y="-446.56" font-family="Times,serif" font-size="14.00">3:0 &#45; 3:0</text>
</g>
<!-- n16&#45;&gt;x8 -->
<g id="edge71" class="edge">
<title>n16:e&#45;&gt;x8:w</title>
<path fill="none" stroke="black" stroke-width="3" d="M1231.49,-367.36C1251.49,-367.36 1249.83,-384.96 1267.49,-394.36 1335.51,-430.58 1354.18,-451.36 1431.25,-451.36 1431.25,-451.36 1431.25,-451.36 2351.76,-451.36 2458.44,-451.36 2487.92,-451.59 2589.17,-451.61"/>
<polygon fill="black" stroke="black" stroke-width="3" points="2585.99,-455.11 2595.99,-451.61 2585.99,-448.11 2585.99,-455.11"/>
</g>
<!-- x35 -->
<g id="node66" class="node">
<title>x35</title>
<path fill="none" stroke="black" d="M1279.49,-335.86C1279.49,-335.86 1322.49,-335.86 1322.49,-335.86 1328.49,-335.86 1334.49,-341.86 1334.49,-347.86 1334.49,-347.86 1334.49,-372.86 1334.49,-372.86 1334.49,-378.86 1328.49,-384.86 1322.49,-384.86 1322.49,-384.86 1279.49,-384.86 1279.49,-384.86 1273.49,-384.86 1267.49,-378.86 1267.49,-372.86 1267.49,-372.86 1267.49,-347.86 1267.49,-347.86 1267.49,-341.86 1273.49,-335.86 1279.49,-335.86"/>
<text text-anchor="middle" x="1300.99" y="-367.56" font-family="Times,serif" font-size="14.00">0 &#45;&gt; 26:7</text>
<polyline fill="none" stroke="black" points="1267.49,-360.36 1334.49,-360.36"/>
<text text-anchor="middle" x="1300.99" y="-343.06" font-family="Times,serif" font-size="14.00">6:0 &#45; 6:0</text>
</g>
<!-- n16&#45;&gt;x35 -->
<g id="edge70" class="edge">
<title>n16:e&#45;&gt;x35:w</title>
<path fill="none" stroke="black" stroke-width="3" d="M1231.49,-367.36C1244.95,-367.36 1248.26,-356.76 1256.5,-351.29"/>
<polygon fill="black" stroke="black" stroke-width="3" points="1254.49,-355.51 1263.12,-349.37 1252.54,-348.79 1254.49,-355.51"/>
</g>
<!-- n17 -->
<g id="node7" class="node">
<title>n17</title>
<polygon fill="none" stroke="black" points="2632.78,-578.36 2571.01,-560.36 2632.78,-542.36 2694.54,-560.36 2632.78,-578.36"/>
<text text-anchor="middle" x="2632.78" y="-555.31" font-family="Times,serif" font-size="14.00">temp_15</text>
</g>
<!-- c30 -->
<g id="node25" class="node">
<title>c30</title>
<polygon fill="none" stroke="black" points="2730.54,-414.86 2730.54,-463.86 2824.29,-463.86 2824.29,-414.86 2730.54,-414.86"/>
<text text-anchor="middle" x="2743.42" y="-446.56" font-family="Times,serif" font-size="14.00">A</text>
<polyline fill="none" stroke="black" points="2730.54,-439.36 2756.29,-439.36"/>
<text text-anchor="middle" x="2743.42" y="-422.06" font-family="Times,serif" font-size="14.00">B</text>
<polyline fill="none" stroke="black" points="2756.29,-414.86 2756.29,-463.86"/>
<text text-anchor="middle" x="2777.42" y="-442.56" font-family="Times,serif" font-size="14.00">$41</text>
<text text-anchor="middle" x="2777.42" y="-426.06" font-family="Times,serif" font-size="14.00">$and</text>
<polyline fill="none" stroke="black" points="2798.54,-414.86 2798.54,-463.86"/>
<text text-anchor="middle" x="2811.42" y="-434.56" font-family="Times,serif" font-size="14.00">Y</text>
</g>
<!-- n17&#45;&gt;c30 -->
<g id="edge73" class="edge">
<title>n17:e&#45;&gt;c30:w</title>
<path fill="none" stroke="black" stroke-width="3" d="M2694.54,-560.36C2751.58,-560.36 2680.66,-445.19 2719.7,-428.99"/>
<polygon fill="black" stroke="black" stroke-width="3" points="2716.82,-433.05 2726.07,-427.89 2715.62,-426.15 2716.82,-433.05"/>
</g>
<!-- n18 -->
<g id="node8" class="node">
<title>n18</title>
<polygon fill="none" stroke="black" points="500.3,-704.36 445.05,-686.36 500.3,-668.36 555.55,-686.36 500.3,-704.36"/>
<text text-anchor="middle" x="500.3" y="-681.31" font-family="Times,serif" font-size="14.00">temp_2</text>
</g>
<!-- c36 -->
<g id="node40" class="node">
<title>c36</title>
<polygon fill="none" stroke="black" points="1636.36,-771.86 1636.36,-820.86 1729.36,-820.86 1729.36,-771.86 1636.36,-771.86"/>
<text text-anchor="middle" x="1649.23" y="-803.56" font-family="Times,serif" font-size="14.00">A</text>
<polyline fill="none" stroke="black" points="1636.36,-796.36 1662.11,-796.36"/>
<text text-anchor="middle" x="1649.23" y="-779.06" font-family="Times,serif" font-size="14.00">B</text>
<polyline fill="none" stroke="black" points="1662.11,-771.86 1662.11,-820.86"/>
<text text-anchor="middle" x="1682.86" y="-799.56" font-family="Times,serif" font-size="14.00">$5</text>
<text text-anchor="middle" x="1682.86" y="-783.06" font-family="Times,serif" font-size="14.00">$sub</text>
<polyline fill="none" stroke="black" points="1703.61,-771.86 1703.61,-820.86"/>
<text text-anchor="middle" x="1716.48" y="-791.56" font-family="Times,serif" font-size="14.00">Y</text>
</g>
<!-- n18&#45;&gt;c36 -->
<g id="edge75" class="edge">
<title>n18:e&#45;&gt;c36:w</title>
<path fill="none" stroke="black" stroke-width="3" d="M555.55,-686.36C671.83,-686.36 700.77,-694.36 817.05,-694.36 817.05,-694.36 817.05,-694.36 1433.25,-694.36 1507.83,-694.36 1538.71,-670.83 1599.98,-713.36 1625.12,-730.81 1607.2,-771.2 1625.01,-781.62"/>
<polygon fill="black" stroke="black" stroke-width="3" points="1621.03,-784.31 1631.55,-783.11 1622.58,-777.48 1621.03,-784.31"/>
</g>
<!-- c40 -->
<g id="node52" class="node">
<title>c40</title>
<polygon fill="none" stroke="black" points="2442.01,-605.86 2442.01,-654.86 2535.01,-654.86 2535.01,-605.86 2442.01,-605.86"/>
<text text-anchor="middle" x="2454.89" y="-637.56" font-family="Times,serif" font-size="14.00">A</text>
<polyline fill="none" stroke="black" points="2442.01,-630.36 2467.76,-630.36"/>
<text text-anchor="middle" x="2454.89" y="-613.06" font-family="Times,serif" font-size="14.00">B</text>
<polyline fill="none" stroke="black" points="2467.76,-605.86 2467.76,-654.86"/>
<text text-anchor="middle" x="2488.51" y="-633.56" font-family="Times,serif" font-size="14.00">$23</text>
<text text-anchor="middle" x="2488.51" y="-617.06" font-family="Times,serif" font-size="14.00">$sub</text>
<polyline fill="none" stroke="black" points="2509.26,-605.86 2509.26,-654.86"/>
<text text-anchor="middle" x="2522.14" y="-625.56" font-family="Times,serif" font-size="14.00">Y</text>
</g>
<!-- n18&#45;&gt;c40 -->
<g id="edge76" class="edge">
<title>n18:e&#45;&gt;c40:w</title>
<path fill="none" stroke="black" stroke-width="3" d="M555.55,-686.36C615.17,-686.36 757.43,-626.36 817.05,-626.36 817.05,-626.36 817.05,-626.36 1170.72,-626.36 1345.55,-626.36 1389.17,-618.36 1564,-618.36 1564,-618.36 1564,-618.36 2198.75,-618.36 2302.96,-618.36 2331.84,-618.13 2430.6,-618.11"/>
<polygon fill="black" stroke="black" stroke-width="3" points="2427.47,-621.61 2437.47,-618.11 2427.47,-614.61 2427.47,-621.61"/>
</g>
<!-- c44 -->
<g id="node59" class="node">
<title>c44</title>
<polygon fill="none" stroke="black" points="615.93,-722.86 615.93,-771.86 708.18,-771.86 708.18,-722.86 615.93,-722.86"/>
<text text-anchor="middle" x="628.8" y="-754.56" font-family="Times,serif" font-size="14.00">A</text>
<polyline fill="none" stroke="black" points="615.93,-747.36 641.68,-747.36"/>
<text text-anchor="middle" x="628.8" y="-730.06" font-family="Times,serif" font-size="14.00">B</text>
<polyline fill="none" stroke="black" points="641.68,-722.86 641.68,-771.86"/>
<text text-anchor="middle" x="662.05" y="-750.56" font-family="Times,serif" font-size="14.00">$2</text>
<text text-anchor="middle" x="662.05" y="-734.06" font-family="Times,serif" font-size="14.00">$xor</text>
<polyline fill="none" stroke="black" points="682.43,-722.86 682.43,-771.86"/>
<text text-anchor="middle" x="695.3" y="-742.56" font-family="Times,serif" font-size="14.00">Y</text>
</g>
<!-- n18&#45;&gt;c44 -->
<g id="edge77" class="edge">
<title>n18:e&#45;&gt;c44:w</title>
<path fill="none" stroke="black" stroke-width="3" d="M555.55,-686.36C585.29,-686.36 582.36,-723.35 603.68,-732.89"/>
<polygon fill="black" stroke="black" stroke-width="3" points="599.98,-735.72 610.47,-734.23 601.34,-728.86 599.98,-735.72"/>
</g>
<!-- n19 -->
<g id="node9" class="node">
<title>n19</title>
<polygon fill="none" stroke="black" points="2350.76,-695.36 2295.51,-677.36 2350.76,-659.36 2406.01,-677.36 2350.76,-695.36"/>
<text text-anchor="middle" x="2350.76" y="-672.31" font-family="Times,serif" font-size="14.00">temp_4</text>
</g>
<!-- n19&#45;&gt;c40 -->
<g id="edge79" class="edge">
<title>n19:e&#45;&gt;c40:w</title>
<path fill="none" stroke="black" stroke-width="3" d="M2406.01,-677.36C2423.56,-677.36 2421.98,-655.72 2431.46,-646.6"/>
<polygon fill="black" stroke="black" stroke-width="3" points="2429.65,-651.02 2437.77,-644.21 2427.17,-644.48 2429.65,-651.02"/>
</g>
<!-- n20 -->
<g id="node10" class="node">
<title>n20</title>
<polygon fill="none" stroke="black" points="987.75,-269.36 932.5,-251.36 987.75,-233.36 1043,-251.36 987.75,-269.36"/>
<text text-anchor="middle" x="987.75" y="-246.31" font-family="Times,serif" font-size="14.00">temp_5</text>
</g>
<!-- c39 -->
<g id="node49" class="node">
<title>c39</title>
<polygon fill="none" stroke="black" points="1864.23,-214.86 1864.23,-263.86 1957.23,-263.86 1957.23,-214.86 1864.23,-214.86"/>
<text text-anchor="middle" x="1877.11" y="-246.56" font-family="Times,serif" font-size="14.00">A</text>
<polyline fill="none" stroke="black" points="1864.23,-239.36 1889.98,-239.36"/>
<text text-anchor="middle" x="1877.11" y="-222.06" font-family="Times,serif" font-size="14.00">B</text>
<polyline fill="none" stroke="black" points="1889.98,-214.86 1889.98,-263.86"/>
<text text-anchor="middle" x="1910.73" y="-242.56" font-family="Times,serif" font-size="14.00">$14</text>
<text text-anchor="middle" x="1910.73" y="-226.06" font-family="Times,serif" font-size="14.00">$sub</text>
<polyline fill="none" stroke="black" points="1931.48,-214.86 1931.48,-263.86"/>
<text text-anchor="middle" x="1944.36" y="-234.56" font-family="Times,serif" font-size="14.00">Y</text>
</g>
<!-- n20&#45;&gt;c39 -->
<g id="edge82" class="edge">
<title>n20:e&#45;&gt;c39:w</title>
<path fill="none" stroke="black" stroke-width="3" d="M1045.38,-251.36C1158.54,-251.36 1186.83,-251.36 1299.99,-251.36 1299.99,-251.36 1299.99,-251.36 1683.86,-251.36 1760.11,-251.36 1781.97,-251.59 1852.91,-251.61"/>
<polygon fill="black" stroke="black" stroke-width="3" points="1849.69,-255.11 1859.69,-251.61 1849.69,-248.11 1849.69,-255.11"/>
</g>
<!-- n21 -->
<g id="node11" class="node">
<title>n21</title>
<polygon fill="none" stroke="black" points="1432.25,-149.36 1377,-131.36 1432.25,-113.36 1487.5,-131.36 1432.25,-149.36"/>
<text text-anchor="middle" x="1432.25" y="-126.31" font-family="Times,serif" font-size="14.00">temp_7</text>
</g>
<!-- x23 -->
<g id="node50" class="node">
<title>x23</title>
<path fill="none" stroke="black" d="M1777.73,-151.86C1777.73,-151.86 1816.23,-151.86 1816.23,-151.86 1822.23,-151.86 1828.23,-157.86 1828.23,-163.86 1828.23,-163.86 1828.23,-188.86 1828.23,-188.86 1828.23,-194.86 1822.23,-200.86 1816.23,-200.86 1816.23,-200.86 1777.73,-200.86 1777.73,-200.86 1771.73,-200.86 1765.73,-194.86 1765.73,-188.86 1765.73,-188.86 1765.73,-163.86 1765.73,-163.86 1765.73,-157.86 1771.73,-151.86 1777.73,-151.86"/>
<text text-anchor="middle" x="1796.98" y="-183.56" font-family="Times,serif" font-size="14.00">2:2 &#45; 2:2</text>
<polyline fill="none" stroke="black" points="1765.73,-176.36 1828.23,-176.36"/>
<text text-anchor="middle" x="1796.98" y="-159.06" font-family="Times,serif" font-size="14.00">1:0 &#45; 1:0</text>
</g>
<!-- n21&#45;&gt;x23 -->
<g id="edge84" class="edge">
<title>n21:e&#45;&gt;x23:w</title>
<path fill="none" stroke="black" stroke-width="3" d="M1489.88,-131.36C1507.85,-131.36 1512.07,-127.47 1530.02,-126.36 1561.05,-124.43 1569.08,-122.89 1599.98,-126.36 1671.1,-134.36 1688.42,-161.08 1754.27,-163.87"/>
<polygon fill="black" stroke="black" stroke-width="3" points="1751.12,-167.31 1761.19,-164.02 1751.27,-160.31 1751.12,-167.31"/>
</g>
<!-- x37 -->
<g id="node68" class="node">
<title>x37</title>
<path fill="none" stroke="black" d="M1545.75,-136.36C1545.75,-136.36 1584.25,-136.36 1584.25,-136.36 1590.25,-136.36 1596.25,-142.36 1596.25,-148.36 1596.25,-148.36 1596.25,-160.36 1596.25,-160.36 1596.25,-166.36 1590.25,-172.36 1584.25,-172.36 1584.25,-172.36 1545.75,-172.36 1545.75,-172.36 1539.75,-172.36 1533.75,-166.36 1533.75,-160.36 1533.75,-160.36 1533.75,-148.36 1533.75,-148.36 1533.75,-142.36 1539.75,-136.36 1545.75,-136.36"/>
<text text-anchor="middle" x="1565" y="-149.56" font-family="Times,serif" font-size="14.00">1:0 &#45; 1:0</text>
</g>
<!-- n21&#45;&gt;x37 -->
<g id="edge85" class="edge">
<title>n21:e&#45;&gt;x37:w</title>
<path fill="none" stroke="black" stroke-width="3" d="M1489.88,-131.36C1506.94,-131.36 1510.3,-145.68 1521.59,-151.72"/>
<polygon fill="black" stroke="black" stroke-width="3" points="1517.79,-154.42 1528.33,-153.32 1519.4,-147.61 1517.79,-154.42"/>
</g>
<!-- n22 -->
<g id="node12" class="node">
<title>n22</title>
<polygon fill="none" stroke="black" points="500.3,-409.36 445.05,-391.36 500.3,-373.36 555.55,-391.36 500.3,-409.36"/>
<text text-anchor="middle" x="500.3" y="-386.31" font-family="Times,serif" font-size="14.00">temp_8</text>
</g>
<!-- c35 -->
<g id="node39" class="node">
<title>c35</title>
<polygon fill="none" stroke="black" points="591.55,-345.86 591.55,-386.86 732.55,-386.86 732.55,-345.86 591.55,-345.86"/>
<text text-anchor="middle" x="604.43" y="-361.56" font-family="Times,serif" font-size="14.00">A</text>
<polyline fill="none" stroke="black" points="617.3,-345.86 617.3,-386.86"/>
<text text-anchor="middle" x="662.05" y="-369.56" font-family="Times,serif" font-size="14.00">$20</text>
<text text-anchor="middle" x="662.05" y="-353.06" font-family="Times,serif" font-size="14.00">$reduce_bool</text>
<polyline fill="none" stroke="black" points="706.8,-345.86 706.8,-386.86"/>
<text text-anchor="middle" x="719.68" y="-361.56" font-family="Times,serif" font-size="14.00">Y</text>
</g>
<!-- n22&#45;&gt;c35 -->
<g id="edge87" class="edge">
<title>n22:e&#45;&gt;c35:w</title>
<path fill="none" stroke="black" stroke-width="3" d="M555.55,-391.36C570.26,-391.36 572.2,-377.15 580.73,-370.26"/>
<polygon fill="black" stroke="black" stroke-width="3" points="578.89,-374.57 587.25,-368.06 576.65,-367.94 578.89,-374.57"/>
</g>
<!-- x27 -->
<g id="node57" class="node">
<title>x27</title>
<path fill="none" stroke="black" d="M642.8,-405.86C642.8,-405.86 681.3,-405.86 681.3,-405.86 687.3,-405.86 693.3,-411.86 693.3,-417.86 693.3,-417.86 693.3,-442.86 693.3,-442.86 693.3,-448.86 687.3,-454.86 681.3,-454.86 681.3,-454.86 642.8,-454.86 642.8,-454.86 636.8,-454.86 630.8,-448.86 630.8,-442.86 630.8,-442.86 630.8,-417.86 630.8,-417.86 630.8,-411.86 636.8,-405.86 642.8,-405.86"/>
<text text-anchor="middle" x="662.05" y="-437.56" font-family="Times,serif" font-size="14.00">0 &#45;&gt; 7:6</text>
<polyline fill="none" stroke="black" points="630.8,-430.36 693.3,-430.36"/>
<text text-anchor="middle" x="662.05" y="-413.06" font-family="Times,serif" font-size="14.00">5:0 &#45; 5:0</text>
</g>
<!-- n22&#45;&gt;x27 -->
<g id="edge88" class="edge">
<title>n22:e&#45;&gt;x27:w</title>
<path fill="none" stroke="black" stroke-width="3" d="M555.55,-391.36C586.52,-391.36 593.34,-412.21 618.65,-417.09"/>
<polygon fill="black" stroke="black" stroke-width="3" points="615,-420.28 625.28,-417.7 615.64,-413.31 615,-420.28"/>
</g>
<!-- c26 -->
<g id="node13" class="node">
<title>c26</title>
<polygon fill="none" stroke="black" points="315.3,-653.86 315.3,-702.86 409.05,-702.86 409.05,-653.86 315.3,-653.86"/>
<text text-anchor="middle" x="328.17" y="-685.56" font-family="Times,serif" font-size="14.00">A</text>
<polyline fill="none" stroke="black" points="315.3,-678.36 341.05,-678.36"/>
<text text-anchor="middle" x="328.17" y="-661.06" font-family="Times,serif" font-size="14.00">B</text>
<polyline fill="none" stroke="black" points="341.05,-653.86 341.05,-702.86"/>
<text text-anchor="middle" x="362.17" y="-681.56" font-family="Times,serif" font-size="14.00">$1</text>
<text text-anchor="middle" x="362.17" y="-665.06" font-family="Times,serif" font-size="14.00">$add</text>
<polyline fill="none" stroke="black" points="383.3,-653.86 383.3,-702.86"/>
<text text-anchor="middle" x="396.17" y="-673.56" font-family="Times,serif" font-size="14.00">Y</text>
</g>
<!-- c26&#45;&gt;n18 -->
<g id="edge74" class="edge">
<title>c26:e&#45;&gt;n18:w</title>
<path fill="none" stroke="black" stroke-width="3" d="M409.05,-678.61C420.81,-678.61 425.81,-682.61 433.77,-684.87"/>
<polygon fill="black" stroke="black" stroke-width="3" points="430.18,-687.92 440.55,-685.76 431.09,-680.98 430.18,-687.92"/>
</g>
<!-- x0&#45;&gt;c26 -->
<g id="edge1" class="edge">
<title>x0:e&#45;&gt;c26:w</title>
<path fill="none" stroke="black" stroke-width="3" d="M256.85,-690.38C274.66,-690.42 284.46,-690.55 302.27,-690.59"/>
<polygon fill="none" stroke="black" stroke-width="3" points="258.52,-690.38 252.52,-694.37 246.52,-690.36 252.53,-686.37 258.52,-690.38"/>
<polygon fill="none" stroke="black" stroke-width="3" points="300.6,-690.59 306.6,-686.6 312.6,-690.61 306.59,-694.6 300.6,-690.59"/>
</g>
<!-- x1&#45;&gt;c26 -->
<g id="edge2" class="edge">
<title>x1:e&#45;&gt;c26:w</title>
<path fill="none" stroke="black" stroke-width="3" d="M256.68,-637.01C275.92,-642.35 283.19,-659.1 302.42,-664.45"/>
<polygon fill="none" stroke="black" stroke-width="3" points="258.4,-637.24 251.94,-640.44 246.5,-635.7 252.96,-632.5 258.4,-637.24"/>
<polygon fill="none" stroke="black" stroke-width="3" points="300.72,-664.23 307.18,-661.03 312.62,-665.76 306.16,-668.96 300.72,-664.23"/>
</g>
<!-- c27 -->
<g id="node16" class="node">
<title>c27</title>
<polygon fill="none" stroke="black" points="1122.85,-90.86 1122.85,-139.86 1216.6,-139.86 1216.6,-90.86 1122.85,-90.86"/>
<text text-anchor="middle" x="1135.72" y="-122.56" font-family="Times,serif" font-size="14.00">A</text>
<polyline fill="none" stroke="black" points="1122.85,-115.36 1148.6,-115.36"/>
<text text-anchor="middle" x="1135.72" y="-98.06" font-family="Times,serif" font-size="14.00">B</text>
<polyline fill="none" stroke="black" points="1148.6,-90.86 1148.6,-139.86"/>
<text text-anchor="middle" x="1169.72" y="-118.56" font-family="Times,serif" font-size="14.00">$11</text>
<text text-anchor="middle" x="1169.72" y="-102.06" font-family="Times,serif" font-size="14.00">$add</text>
<polyline fill="none" stroke="black" points="1190.85,-90.86 1190.85,-139.86"/>
<text text-anchor="middle" x="1203.72" y="-110.56" font-family="Times,serif" font-size="14.00">Y</text>
</g>
<!-- x4 -->
<g id="node19" class="node">
<title>x4</title>
<path fill="none" stroke="black" d="M1281.74,-118.86C1281.74,-118.86 1320.24,-118.86 1320.24,-118.86 1326.24,-118.86 1332.24,-124.86 1332.24,-130.86 1332.24,-130.86 1332.24,-155.86 1332.24,-155.86 1332.24,-161.86 1326.24,-167.86 1320.24,-167.86 1320.24,-167.86 1281.74,-167.86 1281.74,-167.86 1275.74,-167.86 1269.74,-161.86 1269.74,-155.86 1269.74,-155.86 1269.74,-130.86 1269.74,-130.86 1269.74,-124.86 1275.74,-118.86 1281.74,-118.86"/>
<text text-anchor="middle" x="1300.99" y="-150.56" font-family="Times,serif" font-size="14.00">2:2 &#45; 2:2</text>
<polyline fill="none" stroke="black" points="1269.74,-143.36 1332.24,-143.36"/>
<text text-anchor="middle" x="1300.99" y="-126.06" font-family="Times,serif" font-size="14.00">1:0 &#45; 1:0</text>
</g>
<!-- c27&#45;&gt;x4 -->
<g id="edge5" class="edge">
<title>c27:e&#45;&gt;x4:w</title>
<path fill="none" stroke="black" stroke-width="3" d="M1230.12,-118.37C1240.82,-123.69 1245.53,-135.3 1256.24,-140.61"/>
<polygon fill="none" stroke="black" stroke-width="3" points="1231.95,-118.78 1225.23,-121.39 1220.24,-116.19 1226.96,-113.58 1231.95,-118.78"/>
<polygon fill="none" stroke="black" stroke-width="3" points="1254.38,-140.2 1261.09,-137.58 1266.09,-142.78 1259.37,-145.4 1254.38,-140.2"/>
</g>
<!-- x2 -->
<g id="node17" class="node">
<title>x2</title>
<path fill="none" stroke="black" d="M968.5,-109.36C968.5,-109.36 1007,-109.36 1007,-109.36 1013,-109.36 1019,-115.36 1019,-121.36 1019,-121.36 1019,-133.36 1019,-133.36 1019,-139.36 1013,-145.36 1007,-145.36 1007,-145.36 968.5,-145.36 968.5,-145.36 962.5,-145.36 956.5,-139.36 956.5,-133.36 956.5,-133.36 956.5,-121.36 956.5,-121.36 956.5,-115.36 962.5,-109.36 968.5,-109.36"/>
<text text-anchor="middle" x="987.75" y="-122.56" font-family="Times,serif" font-size="14.00">2:0 &#45; 2:0</text>
</g>
<!-- x2&#45;&gt;c27 -->
<g id="edge3" class="edge">
<title>x2:e&#45;&gt;c27:w</title>
<path fill="none" stroke="black" stroke-width="3" d="M1032.82,-127.37C1063.94,-127.4 1077.89,-127.57 1109.01,-127.6"/>
<polygon fill="none" stroke="black" stroke-width="3" points="1034.71,-127.37 1028.71,-131.36 1022.71,-127.36 1028.71,-123.36 1034.71,-127.37"/>
<polygon fill="none" stroke="black" stroke-width="3" points="1107.14,-127.6 1113.14,-123.6 1119.14,-127.61 1113.14,-131.6 1107.14,-127.6"/>
</g>
<!-- x3&#45;&gt;c27 -->
<g id="edge4" class="edge">
<title>x3:e&#45;&gt;c27:w</title>
<path fill="none" stroke="black" stroke-width="3" d="M863.24,-49.01C926.02,-54.77 1046.3,-96.75 1109.01,-102.47"/>
<polygon fill="none" stroke="black" stroke-width="3" points="864.99,-49.1 858.79,-52.79 853,-48.5 859.2,-44.8 864.99,-49.1"/>
<polygon fill="none" stroke="black" stroke-width="3" points="1107.16,-102.37 1113.35,-98.68 1119.14,-102.97 1112.95,-106.67 1107.16,-102.37"/>
</g>
<!-- x4&#45;&gt;n21 -->
<g id="edge83" class="edge">
<title>x4:e&#45;&gt;n21:w</title>
<path fill="none" stroke="black" stroke-width="3" d="M1333.24,-131.11C1347.18,-131.11 1353.19,-131.25 1363.29,-131.32"/>
<polygon fill="black" stroke="black" stroke-width="3" points="1360.07,-134.81 1370.08,-131.34 1360.09,-127.81 1360.07,-134.81"/>
</g>
<!-- n9 -->
<g id="node81" class="node">
<title>n9</title>
<ellipse fill="black" stroke="black" cx="1682.86" cy="-188.36" rx="1.8" ry="1.8"/>
</g>
<!-- x4&#45;&gt;n9 -->
<g id="edge105" class="edge">
<title>x4:e&#45;&gt;n9:w</title>
<path fill="none" stroke="black" d="M1333.24,-155.61C1377.34,-155.61 1486.09,-177.46 1530.02,-181.36 1592.42,-186.89 1610.9,-188.21 1668.38,-188.35"/>
<polygon fill="black" stroke="black" points="1668.06,-191.85 1678.07,-188.36 1668.07,-184.85 1668.06,-191.85"/>
</g>
<!-- c28 -->
<g id="node20" class="node">
<title>c28</title>
<polygon fill="none" stroke="black" points="453.42,-120.86 453.42,-169.86 547.17,-169.86 547.17,-120.86 453.42,-120.86"/>
<text text-anchor="middle" x="466.3" y="-152.56" font-family="Times,serif" font-size="14.00">A</text>
<polyline fill="none" stroke="black" points="453.42,-145.36 479.17,-145.36"/>
<text text-anchor="middle" x="466.3" y="-128.06" font-family="Times,serif" font-size="14.00">B</text>
<polyline fill="none" stroke="black" points="479.17,-120.86 479.17,-169.86"/>
<text text-anchor="middle" x="500.3" y="-148.56" font-family="Times,serif" font-size="14.00">$9</text>
<text text-anchor="middle" x="500.3" y="-132.06" font-family="Times,serif" font-size="14.00">$add</text>
<polyline fill="none" stroke="black" points="521.42,-120.86 521.42,-169.86"/>
<text text-anchor="middle" x="534.3" y="-140.56" font-family="Times,serif" font-size="14.00">Y</text>
</g>
<!-- c38 -->
<g id="node46" class="node">
<title>c38</title>
<polygon fill="none" stroke="black" points="615.55,-102.86 615.55,-151.86 708.55,-151.86 708.55,-102.86 615.55,-102.86"/>
<text text-anchor="middle" x="628.43" y="-134.56" font-family="Times,serif" font-size="14.00">A</text>
<polyline fill="none" stroke="black" points="615.55,-127.36 641.3,-127.36"/>
<text text-anchor="middle" x="628.43" y="-110.06" font-family="Times,serif" font-size="14.00">B</text>
<polyline fill="none" stroke="black" points="641.3,-102.86 641.3,-151.86"/>
<text text-anchor="middle" x="662.05" y="-130.56" font-family="Times,serif" font-size="14.00">$10</text>
<text text-anchor="middle" x="662.05" y="-114.06" font-family="Times,serif" font-size="14.00">$sub</text>
<polyline fill="none" stroke="black" points="682.8,-102.86 682.8,-151.86"/>
<text text-anchor="middle" x="695.68" y="-122.56" font-family="Times,serif" font-size="14.00">Y</text>
</g>
<!-- c28&#45;&gt;c38 -->
<g id="edge36" class="edge">
<title>c28:e&#45;&gt;c38:w</title>
<path fill="none" stroke="black" stroke-width="3" d="M548.17,-145.61C573.63,-145.61 582.48,-141.18 603.26,-139.93"/>
<polygon fill="black" stroke="black" stroke-width="3" points="600.12,-143.52 610.01,-139.74 599.92,-136.53 600.12,-143.52"/>
</g>
<!-- x5&#45;&gt;c28 -->
<g id="edge6" class="edge">
<title>x5:e&#45;&gt;c28:w</title>
<path fill="none" stroke="black" stroke-width="3" d="M407.26,-179.33C420.28,-174.85 426.58,-164.11 439.6,-159.63"/>
<polygon fill="none" stroke="black" stroke-width="3" points="408.95,-179.07 403.65,-183.95 397.1,-180.94 402.4,-176.05 408.95,-179.07"/>
<polygon fill="none" stroke="black" stroke-width="3" points="437.9,-159.9 443.2,-155.01 449.75,-158.03 444.45,-162.92 437.9,-159.9"/>
</g>
<!-- c29 -->
<g id="node22" class="node">
<title>c29</title>
<polygon fill="none" stroke="black" points="1635.98,-669.86 1635.98,-718.86 1729.73,-718.86 1729.73,-669.86 1635.98,-669.86"/>
<text text-anchor="middle" x="1648.86" y="-701.56" font-family="Times,serif" font-size="14.00">A</text>
<polyline fill="none" stroke="black" points="1635.98,-694.36 1661.73,-694.36"/>
<text text-anchor="middle" x="1648.86" y="-677.06" font-family="Times,serif" font-size="14.00">B</text>
<polyline fill="none" stroke="black" points="1661.73,-669.86 1661.73,-718.86"/>
<text text-anchor="middle" x="1682.86" y="-697.56" font-family="Times,serif" font-size="14.00">$4</text>
<text text-anchor="middle" x="1682.86" y="-681.06" font-family="Times,serif" font-size="14.00">$and</text>
<polyline fill="none" stroke="black" points="1703.98,-669.86 1703.98,-718.86"/>
<text text-anchor="middle" x="1716.86" y="-689.56" font-family="Times,serif" font-size="14.00">Y</text>
</g>
<!-- c42 -->
<g id="node53" class="node">
<title>c42</title>
<polygon fill="none" stroke="black" points="2148.25,-652.61 2148.25,-726.11 2247.25,-726.11 2247.25,-652.61 2148.25,-652.61"/>
<text text-anchor="middle" x="2161.12" y="-708.81" font-family="Times,serif" font-size="14.00">A</text>
<polyline fill="none" stroke="black" points="2148.25,-701.61 2174,-701.61"/>
<text text-anchor="middle" x="2161.12" y="-684.31" font-family="Times,serif" font-size="14.00">B</text>
<polyline fill="none" stroke="black" points="2148.25,-677.11 2174,-677.11"/>
<text text-anchor="middle" x="2161.12" y="-659.81" font-family="Times,serif" font-size="14.00">S</text>
<polyline fill="none" stroke="black" points="2174,-652.61 2174,-726.11"/>
<text text-anchor="middle" x="2197.75" y="-692.56" font-family="Times,serif" font-size="14.00">$6</text>
<text text-anchor="middle" x="2197.75" y="-676.06" font-family="Times,serif" font-size="14.00">$mux</text>
<polyline fill="none" stroke="black" points="2221.5,-652.61 2221.5,-726.11"/>
<text text-anchor="middle" x="2234.37" y="-684.31" font-family="Times,serif" font-size="14.00">Y</text>
</g>
<!-- c29&#45;&gt;c42 -->
<g id="edge80" class="edge">
<title>c29:e&#45;&gt;c42:w</title>
<path fill="none" stroke="black" stroke-width="3" d="M1729.73,-694.61C1911.41,-694.61 1959.66,-689.58 2135.74,-689.37"/>
<polygon fill="black" stroke="black" stroke-width="3" points="2132.71,-692.87 2142.71,-689.36 2132.71,-685.87 2132.71,-692.87"/>
</g>
<!-- x6 -->
<g id="node23" class="node">
<title>x6</title>
<path fill="none" stroke="black" d="M1150.47,-523.36C1150.47,-523.36 1188.97,-523.36 1188.97,-523.36 1194.97,-523.36 1200.97,-529.36 1200.97,-535.36 1200.97,-535.36 1200.97,-547.36 1200.97,-547.36 1200.97,-553.36 1194.97,-559.36 1188.97,-559.36 1188.97,-559.36 1150.47,-559.36 1150.47,-559.36 1144.47,-559.36 1138.47,-553.36 1138.47,-547.36 1138.47,-547.36 1138.47,-535.36 1138.47,-535.36 1138.47,-529.36 1144.47,-523.36 1150.47,-523.36"/>
<text text-anchor="middle" x="1169.72" y="-536.56" font-family="Times,serif" font-size="14.00">3:0 &#45; 3:0</text>
</g>
<!-- x6&#45;&gt;c29 -->
<g id="edge7" class="edge">
<title>x6:e&#45;&gt;c29:w</title>
<path fill="none" stroke="black" stroke-width="3" d="M1214.91,-541.45C1391.5,-543.82 1437.94,-595.37 1599.98,-680.36 1612.72,-687.04 1615.5,-697.87 1623.66,-703.29"/>
<polygon fill="none" stroke="black" stroke-width="3" points="1216.67,-541.46 1210.65,-545.42 1204.67,-541.38 1210.7,-537.42 1216.67,-541.46"/>
<polygon fill="none" stroke="black" stroke-width="3" points="1621.78,-702.79 1628.62,-700.49 1633.37,-705.91 1626.54,-708.21 1621.78,-702.79"/>
</g>
<!-- x7&#45;&gt;c29 -->
<g id="edge8" class="edge">
<title>x7:e&#45;&gt;c29:w</title>
<path fill="none" stroke="black" stroke-width="3" d="M1609.36,-742.67C1620.52,-730.63 1612.7,-698.75 1623.91,-686.76"/>
<polygon fill="none" stroke="black" stroke-width="3" points="1610.96,-742.05 1606.81,-747.94 1599.77,-746.38 1603.92,-740.48 1610.96,-742.05"/>
<polygon fill="none" stroke="black" stroke-width="3" points="1622.26,-687.4 1626.42,-681.51 1633.46,-683.08 1629.3,-688.97 1622.26,-687.4"/>
</g>
<!-- x9 -->
<g id="node27" class="node">
<title>x9</title>
<path fill="none" stroke="black" d="M2872.29,-421.36C2872.29,-421.36 2910.79,-421.36 2910.79,-421.36 2916.79,-421.36 2922.79,-427.36 2922.79,-433.36 2922.79,-433.36 2922.79,-445.36 2922.79,-445.36 2922.79,-451.36 2916.79,-457.36 2910.79,-457.36 2910.79,-457.36 2872.29,-457.36 2872.29,-457.36 2866.29,-457.36 2860.29,-451.36 2860.29,-445.36 2860.29,-445.36 2860.29,-433.36 2860.29,-433.36 2860.29,-427.36 2866.29,-421.36 2872.29,-421.36"/>
<text text-anchor="middle" x="2891.54" y="-434.56" font-family="Times,serif" font-size="14.00">3:0 &#45; 3:0</text>
</g>
<!-- c30&#45;&gt;x9 -->
<g id="edge10" class="edge">
<title>c30:e&#45;&gt;x9:w</title>
<path fill="none" stroke="black" stroke-width="3" d="M2837.02,-439.55C2840.61,-439.51 2843.74,-439.46 2847.32,-439.43"/>
<polygon fill="none" stroke="black" stroke-width="3" points="2839,-439.54 2833.02,-443.57 2827,-439.6 2832.98,-435.57 2839,-439.54"/>
<polygon fill="none" stroke="black" stroke-width="3" points="2845.59,-439.43 2851.57,-435.4 2857.59,-439.37 2851.61,-443.4 2845.59,-439.43"/>
</g>
<!-- x8&#45;&gt;c30 -->
<g id="edge9" class="edge">
<title>x8:e&#45;&gt;c30:w</title>
<path fill="none" stroke="black" stroke-width="3" d="M2678.06,-451.38C2693.47,-451.43 2702.38,-451.55 2717.89,-451.59"/>
<polygon fill="none" stroke="black" stroke-width="3" points="2679.73,-451.38 2673.73,-455.37 2667.73,-451.36 2673.74,-447.37 2679.73,-451.38"/>
<polygon fill="none" stroke="black" stroke-width="3" points="2715.84,-451.59 2721.84,-447.6 2727.84,-451.61 2721.83,-455.6 2715.84,-451.59"/>
</g>
<!-- n3 -->
<g id="node77" class="node">
<title>n3</title>
<ellipse fill="black" stroke="black" cx="2990.04" cy="-439.36" rx="1.8" ry="1.8"/>
</g>
<!-- x9&#45;&gt;n3 -->
<g id="edge90" class="edge">
<title>x9:e&#45;&gt;n3:w</title>
<path fill="none" stroke="black" stroke-width="3" d="M2922.79,-439.61C2947,-439.61 2955.75,-439.43 2975.37,-439.37"/>
<polygon fill="black" stroke="black" stroke-width="3" points="2972.23,-442.88 2982.22,-439.37 2972.22,-435.88 2972.23,-442.88"/>
</g>
<!-- c31 -->
<g id="node28" class="node">
<title>c31</title>
<polygon fill="none" stroke="black" points="3155.79,-366.86 3155.79,-415.86 3249.54,-415.86 3249.54,-366.86 3155.79,-366.86"/>
<text text-anchor="middle" x="3168.67" y="-398.56" font-family="Times,serif" font-size="14.00">A</text>
<polyline fill="none" stroke="black" points="3155.79,-391.36 3181.54,-391.36"/>
<text text-anchor="middle" x="3168.67" y="-374.06" font-family="Times,serif" font-size="14.00">B</text>
<polyline fill="none" stroke="black" points="3181.54,-366.86 3181.54,-415.86"/>
<text text-anchor="middle" x="3202.67" y="-394.56" font-family="Times,serif" font-size="14.00">$49</text>
<text text-anchor="middle" x="3202.67" y="-378.06" font-family="Times,serif" font-size="14.00">$and</text>
<polyline fill="none" stroke="black" points="3223.79,-366.86 3223.79,-415.86"/>
<text text-anchor="middle" x="3236.67" y="-386.56" font-family="Times,serif" font-size="14.00">Y</text>
</g>
<!-- x12 -->
<g id="node31" class="node">
<title>x12</title>
<path fill="none" stroke="black" d="M3297.54,-371.36C3297.54,-371.36 3336.04,-371.36 3336.04,-371.36 3342.04,-371.36 3348.04,-377.36 3348.04,-383.36 3348.04,-383.36 3348.04,-395.36 3348.04,-395.36 3348.04,-401.36 3342.04,-407.36 3336.04,-407.36 3336.04,-407.36 3297.54,-407.36 3297.54,-407.36 3291.54,-407.36 3285.54,-401.36 3285.54,-395.36 3285.54,-395.36 3285.54,-383.36 3285.54,-383.36 3285.54,-377.36 3291.54,-371.36 3297.54,-371.36"/>
<text text-anchor="middle" x="3316.79" y="-384.56" font-family="Times,serif" font-size="14.00">3:0 &#45; 3:0</text>
</g>
<!-- c31&#45;&gt;x12 -->
<g id="edge13" class="edge">
<title>c31:e&#45;&gt;x12:w</title>
<path fill="none" stroke="black" stroke-width="3" d="M3262.27,-391.04C3265.87,-390.71 3268.99,-390.29 3272.56,-389.95"/>
<polygon fill="none" stroke="black" stroke-width="3" points="3264.23,-390.95 3258.42,-395.22 3252.24,-391.49 3258.06,-387.23 3264.23,-390.95"/>
<polygon fill="none" stroke="black" stroke-width="3" points="3270.85,-390.03 3276.67,-385.76 3282.84,-389.48 3277.03,-393.75 3270.85,-390.03"/>
</g>
<!-- x10 -->
<g id="node29" class="node">
<title>x10</title>
<path fill="none" stroke="black" d="M3069.29,-405.36C3069.29,-405.36 3107.79,-405.36 3107.79,-405.36 3113.79,-405.36 3119.79,-411.36 3119.79,-417.36 3119.79,-417.36 3119.79,-429.36 3119.79,-429.36 3119.79,-435.36 3113.79,-441.36 3107.79,-441.36 3107.79,-441.36 3069.29,-441.36 3069.29,-441.36 3063.29,-441.36 3057.29,-435.36 3057.29,-429.36 3057.29,-429.36 3057.29,-417.36 3057.29,-417.36 3057.29,-411.36 3063.29,-405.36 3069.29,-405.36"/>
<text text-anchor="middle" x="3088.54" y="-418.56" font-family="Times,serif" font-size="14.00">3:0 &#45; 3:0</text>
</g>
<!-- x10&#45;&gt;c31 -->
<g id="edge11" class="edge">
<title>x10:e&#45;&gt;c31:w</title>
<path fill="none" stroke="black" stroke-width="3" d="M3132.07,-419.17C3136.31,-415.82 3139.29,-411.14 3143.52,-407.79"/>
<polygon fill="none" stroke="black" stroke-width="3" points="3133.71,-418.61 3129.32,-424.34 3122.35,-422.49 3126.74,-416.76 3133.71,-418.61"/>
<polygon fill="none" stroke="black" stroke-width="3" points="3141.88,-408.35 3146.26,-402.63 3153.23,-404.48 3148.85,-410.2 3141.88,-408.35"/>
</g>
<!-- x11&#45;&gt;c31 -->
<g id="edge12" class="edge">
<title>x11:e&#45;&gt;c31:w</title>
<path fill="none" stroke="black" stroke-width="3" d="M3034.13,-323.16C3083.1,-329.53 3093.94,-371.88 3142.87,-378.3"/>
<polygon fill="none" stroke="black" stroke-width="3" points="3035.97,-323.28 3029.73,-326.9 3023.99,-322.53 3030.23,-318.91 3035.97,-323.28"/>
<polygon fill="none" stroke="black" stroke-width="3" points="3141.12,-378.19 3147.36,-374.57 3153.09,-378.94 3146.85,-382.55 3141.12,-378.19"/>
</g>
<!-- x12&#45;&gt;n13 -->
<g id="edge57" class="edge">
<title>x12:e&#45;&gt;n13:w</title>
<path fill="none" stroke="black" stroke-width="3" d="M3348.04,-389.61C3363.99,-389.61 3364.47,-372.11 3373.41,-364.18"/>
<polygon fill="black" stroke="black" stroke-width="3" points="3371.54,-368.57 3379.77,-361.9 3369.18,-361.99 3371.54,-368.57"/>
</g>
<!-- x13 -->
<g id="node33" class="node">
<title>x13</title>
<path fill="none" stroke="black" d="M342.92,-465.36C342.92,-465.36 381.42,-465.36 381.42,-465.36 387.42,-465.36 393.42,-471.36 393.42,-477.36 393.42,-477.36 393.42,-489.36 393.42,-489.36 393.42,-495.36 387.42,-501.36 381.42,-501.36 381.42,-501.36 342.92,-501.36 342.92,-501.36 336.92,-501.36 330.92,-495.36 330.92,-489.36 330.92,-489.36 330.92,-477.36 330.92,-477.36 330.92,-471.36 336.92,-465.36 342.92,-465.36"/>
<text text-anchor="middle" x="362.17" y="-478.56" font-family="Times,serif" font-size="14.00">3:0 &#45; 3:0</text>
</g>
<!-- c32&#45;&gt;x13 -->
<g id="edge14" class="edge">
<title>c32:e&#45;&gt;x13:w</title>
<path fill="none" stroke="black" stroke-width="3" d="M273.5,-481.72C290.62,-482.04 300.12,-482.94 317.33,-483.25"/>
<polygon fill="none" stroke="black" stroke-width="3" points="275.27,-481.74 269.24,-485.69 263.27,-481.63 269.31,-477.69 275.27,-481.74"/>
<polygon fill="none" stroke="black" stroke-width="3" points="315.22,-483.23 321.26,-479.28 327.22,-483.34 321.19,-487.28 315.22,-483.23"/>
</g>
<!-- n6 -->
<g id="node78" class="node">
<title>n6</title>
<ellipse fill="black" stroke="black" cx="500.3" cy="-541.36" rx="1.8" ry="1.8"/>
</g>
<!-- x13&#45;&gt;n6 -->
<g id="edge94" class="edge">
<title>x13:e&#45;&gt;n6:w</title>
<path fill="none" stroke="black" stroke-width="3" d="M394.42,-483.61C442.66,-483.61 444.68,-532.69 485.7,-540.36"/>
<polygon fill="black" stroke="black" stroke-width="3" points="482.23,-543.56 492.5,-540.96 482.85,-536.59 482.23,-543.56"/>
</g>
<!-- c33 -->
<g id="node34" class="node">
<title>c33</title>
<polygon fill="none" stroke="black" points="316.42,-102.86 316.42,-143.86 407.92,-143.86 407.92,-102.86 316.42,-102.86"/>
<text text-anchor="middle" x="329.3" y="-118.56" font-family="Times,serif" font-size="14.00">A</text>
<polyline fill="none" stroke="black" points="342.17,-102.86 342.17,-143.86"/>
<text text-anchor="middle" x="362.17" y="-126.56" font-family="Times,serif" font-size="14.00">$8</text>
<text text-anchor="middle" x="362.17" y="-110.06" font-family="Times,serif" font-size="14.00">$not</text>
<polyline fill="none" stroke="black" points="382.17,-102.86 382.17,-143.86"/>
<text text-anchor="middle" x="395.05" y="-118.56" font-family="Times,serif" font-size="14.00">Y</text>
</g>
<!-- c33&#45;&gt;c28 -->
<g id="edge92" class="edge">
<title>c33:e&#45;&gt;c28:w</title>
<path fill="none" stroke="black" stroke-width="3" d="M408.92,-123.61C424.23,-123.61 430.04,-129.29 441.05,-131.87"/>
<polygon fill="black" stroke="black" stroke-width="3" points="437.59,-135.01 447.91,-132.62 438.35,-128.05 437.59,-135.01"/>
</g>
<!-- x14&#45;&gt;c33 -->
<g id="edge15" class="edge">
<title>x14:e&#45;&gt;c33:w</title>
<path fill="none" stroke="black" stroke-width="3" d="M256.57,-121.49C274.68,-121.89 284.5,-123.07 302.57,-123.47"/>
<polygon fill="none" stroke="black" stroke-width="3" points="258.52,-121.51 252.48,-125.45 246.52,-121.39 252.57,-117.45 258.52,-121.51"/>
<polygon fill="none" stroke="black" stroke-width="3" points="300.72,-123.45 306.76,-119.52 312.72,-123.58 306.68,-127.52 300.72,-123.45"/>
</g>
<!-- c34 -->
<g id="node36" class="node">
<title>c34</title>
<polygon fill="none" stroke="black" points="318.3,-366.86 318.3,-415.86 406.05,-415.86 406.05,-366.86 318.3,-366.86"/>
<text text-anchor="middle" x="331.17" y="-398.56" font-family="Times,serif" font-size="14.00">A</text>
<polyline fill="none" stroke="black" points="318.3,-391.36 344.05,-391.36"/>
<text text-anchor="middle" x="331.17" y="-374.06" font-family="Times,serif" font-size="14.00">B</text>
<polyline fill="none" stroke="black" points="344.05,-366.86 344.05,-415.86"/>
<text text-anchor="middle" x="362.17" y="-394.56" font-family="Times,serif" font-size="14.00">$12</text>
<text text-anchor="middle" x="362.17" y="-378.06" font-family="Times,serif" font-size="14.00">$or</text>
<polyline fill="none" stroke="black" points="380.3,-366.86 380.3,-415.86"/>
<text text-anchor="middle" x="393.17" y="-386.56" font-family="Times,serif" font-size="14.00">Y</text>
</g>
<!-- c34&#45;&gt;n22 -->
<g id="edge86" class="edge">
<title>c34:e&#45;&gt;n22:w</title>
<path fill="none" stroke="black" stroke-width="3" d="M407.05,-391.61C419.45,-391.61 425.02,-391.47 433.8,-391.4"/>
<polygon fill="black" stroke="black" stroke-width="3" points="430.52,-394.92 440.51,-391.38 430.5,-387.92 430.52,-394.92"/>
</g>
<!-- x15&#45;&gt;c34 -->
<g id="edge16" class="edge">
<title>x15:e&#45;&gt;c34:w</title>
<path fill="none" stroke="black" stroke-width="3" d="M256.79,-418.47C275.86,-415.7 285.31,-407.25 304.4,-404.49"/>
<polygon fill="none" stroke="black" stroke-width="3" points="258.49,-418.35 252.78,-422.75 246.52,-419.17 252.23,-414.77 258.49,-418.35"/>
<polygon fill="none" stroke="black" stroke-width="3" points="302.63,-404.61 308.34,-400.21 314.6,-403.79 308.89,-408.19 302.63,-404.61"/>
</g>
<!-- x16&#45;&gt;c34 -->
<g id="edge17" class="edge">
<title>x16:e&#45;&gt;c34:w</title>
<path fill="none" stroke="black" stroke-width="3" d="M256.76,-365.2C275.82,-367.79 285.35,-375.7 304.42,-378.28"/>
<polygon fill="none" stroke="black" stroke-width="3" points="258.49,-365.31 252.25,-368.91 246.52,-364.53 252.76,-360.93 258.49,-365.31"/>
<polygon fill="none" stroke="black" stroke-width="3" points="302.63,-378.17 308.87,-374.56 314.6,-378.94 308.36,-382.54 302.63,-378.17"/>
</g>
<!-- c35&#45;&gt;c43 -->
<g id="edge37" class="edge">
<title>c35:e&#45;&gt;c43:w</title>
<path fill="none" stroke="black" d="M732.55,-366.61C743.93,-366.61 749.23,-366.23 757.1,-366.01"/>
<polygon fill="black" stroke="black" points="757.08,-369.51 767.04,-365.88 756.99,-362.51 757.08,-369.51"/>
</g>
<!-- x18 -->
<g id="node42" class="node">
<title>x18</title>
<path fill="none" stroke="black" d="M1777.73,-778.36C1777.73,-778.36 1816.23,-778.36 1816.23,-778.36 1822.23,-778.36 1828.23,-784.36 1828.23,-790.36 1828.23,-790.36 1828.23,-802.36 1828.23,-802.36 1828.23,-808.36 1822.23,-814.36 1816.23,-814.36 1816.23,-814.36 1777.73,-814.36 1777.73,-814.36 1771.73,-814.36 1765.73,-808.36 1765.73,-802.36 1765.73,-802.36 1765.73,-790.36 1765.73,-790.36 1765.73,-784.36 1771.73,-778.36 1777.73,-778.36"/>
<text text-anchor="middle" x="1796.98" y="-791.56" font-family="Times,serif" font-size="14.00">3:0 &#45; 3:0</text>
</g>
<!-- c36&#45;&gt;x18 -->
<g id="edge19" class="edge">
<title>c36:e&#45;&gt;x18:w</title>
<path fill="none" stroke="black" stroke-width="3" d="M1742.45,-796.55C1746.05,-796.51 1749.18,-796.46 1752.76,-796.43"/>
<polygon fill="none" stroke="black" stroke-width="3" points="1744.44,-796.54 1738.46,-800.57 1732.44,-796.6 1738.42,-792.57 1744.44,-796.54"/>
<polygon fill="none" stroke="black" stroke-width="3" points="1751.03,-796.43 1757.01,-792.4 1763.03,-796.37 1757.05,-800.4 1751.03,-796.43"/>
</g>
<!-- x17&#45;&gt;c36 -->
<g id="edge18" class="edge">
<title>x17:e&#45;&gt;c36:w</title>
<path fill="none" stroke="black" stroke-width="3" d="M1610.18,-813.86C1614.75,-812.74 1618.5,-811.22 1623.07,-810.1"/>
<polygon fill="none" stroke="black" stroke-width="3" points="1611.86,-813.67 1606.36,-818.33 1599.94,-815.05 1605.44,-810.38 1611.86,-813.67"/>
<polygon fill="none" stroke="black" stroke-width="3" points="1621.38,-810.3 1626.88,-805.64 1633.3,-808.92 1627.8,-813.58 1621.38,-810.3"/>
</g>
<!-- n7 -->
<g id="node79" class="node">
<title>n7</title>
<ellipse fill="black" stroke="black" cx="1910.73" cy="-796.36" rx="1.8" ry="1.8"/>
</g>
<!-- x18&#45;&gt;n7 -->
<g id="edge97" class="edge">
<title>x18:e&#45;&gt;n7:w</title>
<path fill="none" stroke="black" stroke-width="3" d="M1828.23,-796.61C1859.32,-796.61 1869.82,-796.41 1896.08,-796.37"/>
<polygon fill="black" stroke="black" stroke-width="3" points="1892.92,-799.87 1902.91,-796.36 1892.91,-792.87 1892.92,-799.87"/>
</g>
<!-- c37 -->
<g id="node43" class="node">
<title>c37</title>
<polygon fill="none" stroke="black" points="315.67,-226.86 315.67,-275.86 408.67,-275.86 408.67,-226.86 315.67,-226.86"/>
<text text-anchor="middle" x="328.55" y="-258.56" font-family="Times,serif" font-size="14.00">A</text>
<polyline fill="none" stroke="black" points="315.67,-251.36 341.42,-251.36"/>
<text text-anchor="middle" x="328.55" y="-234.06" font-family="Times,serif" font-size="14.00">B</text>
<polyline fill="none" stroke="black" points="341.42,-226.86 341.42,-275.86"/>
<text text-anchor="middle" x="362.17" y="-254.56" font-family="Times,serif" font-size="14.00">$7</text>
<text text-anchor="middle" x="362.17" y="-238.06" font-family="Times,serif" font-size="14.00">$sub</text>
<polyline fill="none" stroke="black" points="382.92,-226.86 382.92,-275.86"/>
<text text-anchor="middle" x="395.8" y="-246.56" font-family="Times,serif" font-size="14.00">Y</text>
</g>
<!-- c37&#45;&gt;n20 -->
<g id="edge81" class="edge">
<title>c37:e&#45;&gt;n20:w</title>
<path fill="none" stroke="black" stroke-width="3" d="M409.05,-251.61C636.79,-251.61 696.57,-251.37 918.73,-251.36"/>
<polygon fill="black" stroke="black" stroke-width="3" points="915.59,-254.86 925.59,-251.36 915.59,-247.86 915.59,-254.86"/>
</g>
<!-- x19&#45;&gt;c37 -->
<g id="edge20" class="edge">
<title>x19:e&#45;&gt;c37:w</title>
<path fill="none" stroke="black" stroke-width="3" d="M256.59,-269.96C274.68,-268.76 284.37,-265.22 302.44,-264.02"/>
<polygon fill="none" stroke="black" stroke-width="3" points="258.52,-269.9 252.65,-274.08 246.52,-270.27 252.39,-266.09 258.52,-269.9"/>
<polygon fill="none" stroke="black" stroke-width="3" points="300.6,-264.08 306.47,-259.89 312.6,-263.7 306.73,-267.88 300.6,-264.08"/>
</g>
<!-- x20&#45;&gt;c37 -->
<g id="edge21" class="edge">
<title>x20:e&#45;&gt;c37:w</title>
<path fill="none" stroke="black" stroke-width="3" d="M256.7,-216.7C275.43,-220.89 283.73,-233.62 302.49,-237.78"/>
<polygon fill="none" stroke="black" stroke-width="3" points="258.44,-216.89 252.06,-220.24 246.51,-215.64 252.89,-212.29 258.44,-216.89"/>
<polygon fill="none" stroke="black" stroke-width="3" points="300.67,-237.59 307.06,-234.23 312.61,-238.83 306.23,-242.19 300.67,-237.59"/>
</g>
<!-- x22 -->
<g id="node48" class="node">
<title>x22</title>
<path fill="none" stroke="black" d="M798.8,-109.36C798.8,-109.36 837.3,-109.36 837.3,-109.36 843.3,-109.36 849.3,-115.36 849.3,-121.36 849.3,-121.36 849.3,-133.36 849.3,-133.36 849.3,-139.36 843.3,-145.36 837.3,-145.36 837.3,-145.36 798.8,-145.36 798.8,-145.36 792.8,-145.36 786.8,-139.36 786.8,-133.36 786.8,-133.36 786.8,-121.36 786.8,-121.36 786.8,-115.36 792.8,-109.36 798.8,-109.36"/>
<text text-anchor="middle" x="818.05" y="-122.56" font-family="Times,serif" font-size="14.00">2:0 &#45; 2:0</text>
</g>
<!-- c38&#45;&gt;x22 -->
<g id="edge23" class="edge">
<title>c38:e&#45;&gt;x22:w</title>
<path fill="none" stroke="black" stroke-width="3" d="M722.48,-127.6C742.41,-127.55 752.92,-127.42 772.84,-127.37"/>
<polygon fill="none" stroke="black" stroke-width="3" points="724.25,-127.59 718.26,-131.6 712.25,-127.61 718.25,-123.6 724.25,-127.59"/>
<polygon fill="none" stroke="black" stroke-width="3" points="771.1,-127.38 777.09,-123.37 783.1,-127.36 777.1,-131.37 771.1,-127.38"/>
</g>
<!-- x21&#45;&gt;c38 -->
<g id="edge22" class="edge">
<title>x21:e&#45;&gt;c38:w</title>
<path fill="none" stroke="black" stroke-width="3" d="M545.32,-84.64C569.28,-89.77 577.87,-108.75 601.87,-113.84"/>
<polygon fill="none" stroke="black" stroke-width="3" points="547.18,-84.83 540.81,-88.21 535.24,-83.63 541.61,-80.25 547.18,-84.83"/>
<polygon fill="none" stroke="black" stroke-width="3" points="599.92,-113.65 606.29,-110.27 611.86,-114.84 605.49,-118.23 599.92,-113.65"/>
</g>
<!-- x22&#45;&gt;x2 -->
<g id="edge93" class="edge">
<title>x22:e&#45;&gt;x2:w</title>
<path fill="none" stroke="black" stroke-width="3" d="M850.3,-127.61C893.04,-127.61 906.48,-127.61 944.18,-127.61"/>
<polygon fill="black" stroke="black" stroke-width="3" points="940.96,-131.11 950.96,-127.61 940.96,-124.11 940.96,-131.11"/>
</g>
<!-- x24 -->
<g id="node51" class="node">
<title>x24</title>
<path fill="none" stroke="black" d="M2020.61,-292.86C2020.61,-292.86 2072.61,-292.86 2072.61,-292.86 2078.61,-292.86 2084.61,-298.86 2084.61,-304.86 2084.61,-304.86 2084.61,-329.86 2084.61,-329.86 2084.61,-335.86 2078.61,-341.86 2072.61,-341.86 2072.61,-341.86 2020.61,-341.86 2020.61,-341.86 2014.61,-341.86 2008.61,-335.86 2008.61,-329.86 2008.61,-329.86 2008.61,-304.86 2008.61,-304.86 2008.61,-298.86 2014.61,-292.86 2020.61,-292.86"/>
<text text-anchor="middle" x="2046.61" y="-324.56" font-family="Times,serif" font-size="14.00">4:4 &#45; 26:26</text>
<polyline fill="none" stroke="black" points="2008.61,-317.36 2084.61,-317.36"/>
<text text-anchor="middle" x="2046.61" y="-300.06" font-family="Times,serif" font-size="14.00">3:0 &#45; 3:0</text>
</g>
<!-- c39&#45;&gt;x24 -->
<g id="edge25" class="edge">
<title>c39:e&#45;&gt;x24:w</title>
<path fill="none" stroke="black" stroke-width="3" d="M1969.53,-242.95C1988.37,-255.68 1976.48,-301.09 1995.2,-313.94"/>
<polygon fill="none" stroke="black" stroke-width="3" points="1971.42,-243.46 1964.58,-245.75 1959.84,-240.32 1966.68,-238.03 1971.42,-243.46"/>
<polygon fill="none" stroke="black" stroke-width="3" points="1993.43,-313.46 2000.28,-311.19 2005,-316.64 1998.15,-318.91 1993.43,-313.46"/>
</g>
<!-- x23&#45;&gt;c39 -->
<g id="edge24" class="edge">
<title>x23:e&#45;&gt;c39:w</title>
<path fill="none" stroke="black" stroke-width="3" d="M1840.06,-181.79C1847.5,-191.61 1844.98,-212.19 1852.55,-221.87"/>
<polygon fill="none" stroke="black" stroke-width="3" points="1841.6,-182.5 1834.47,-183.63 1830.69,-177.49 1837.81,-176.36 1841.6,-182.5"/>
<polygon fill="none" stroke="black" stroke-width="3" points="1850.82,-221.09 1857.93,-219.9 1861.77,-226 1854.65,-227.2 1850.82,-221.09"/>
</g>
<!-- x24&#45;&gt;n14 -->
<g id="edge59" class="edge">
<title>x24:e&#45;&gt;n14:w</title>
<path fill="none" stroke="black" stroke-width="3" d="M2085.61,-305.11C2106.19,-305.11 2110.19,-321.74 2125.07,-327.46"/>
<polygon fill="black" stroke="black" stroke-width="3" points="2121.06,-330.31 2131.51,-328.58 2122.26,-323.41 2121.06,-330.31"/>
</g>
<!-- x24&#45;&gt;n14 -->
<g id="edge60" class="edge">
<title>x24:e&#45;&gt;n14:w</title>
<path fill="none" stroke="black" d="M2085.61,-329.61C2103.62,-329.61 2110.77,-329.45 2124.54,-329.38"/>
<polygon fill="black" stroke="black" points="2124.48,-332.88 2134.47,-329.36 2124.46,-325.88 2124.48,-332.88"/>
</g>
<!-- c40&#45;&gt;n17 -->
<g id="edge72" class="edge">
<title>c40:e&#45;&gt;n17:w</title>
<path fill="none" stroke="black" stroke-width="3" d="M2535.01,-630.61C2565.44,-630.61 2543.78,-577.78 2560.38,-563.75"/>
<polygon fill="black" stroke="black" stroke-width="3" points="2558.22,-568.11 2566.69,-561.74 2556.1,-561.44 2558.22,-568.11"/>
</g>
<!-- c42&#45;&gt;n19 -->
<g id="edge78" class="edge">
<title>c42:e&#45;&gt;n19:w</title>
<path fill="none" stroke="black" stroke-width="3" d="M2248.25,-689.36C2265.52,-689.36 2271.52,-681.74 2284.21,-678.64"/>
<polygon fill="black" stroke="black" stroke-width="3" points="2281.46,-682.48 2291,-677.87 2280.67,-675.52 2281.46,-682.48"/>
</g>
<!-- x25 -->
<g id="node54" class="node">
<title>x25</title>
<path fill="none" stroke="black" d="M2027.36,-723.36C2027.36,-723.36 2065.86,-723.36 2065.86,-723.36 2071.86,-723.36 2077.86,-729.36 2077.86,-735.36 2077.86,-735.36 2077.86,-747.36 2077.86,-747.36 2077.86,-753.36 2071.86,-759.36 2065.86,-759.36 2065.86,-759.36 2027.36,-759.36 2027.36,-759.36 2021.36,-759.36 2015.36,-753.36 2015.36,-747.36 2015.36,-747.36 2015.36,-735.36 2015.36,-735.36 2015.36,-729.36 2021.36,-723.36 2027.36,-723.36"/>
<text text-anchor="middle" x="2046.61" y="-736.56" font-family="Times,serif" font-size="14.00">3:0 &#45; 3:0</text>
</g>
<!-- x25&#45;&gt;c42 -->
<g id="edge26" class="edge">
<title>x25:e&#45;&gt;c42:w</title>
<path fill="none" stroke="black" stroke-width="3" d="M2091.67,-739.72C2109.36,-734.84 2116.69,-720.44 2134.34,-715.52"/>
<polygon fill="none" stroke="black" stroke-width="3" points="2093.44,-739.49 2088,-744.22 2081.54,-741.02 2086.98,-736.29 2093.44,-739.49"/>
<polygon fill="none" stroke="black" stroke-width="3" points="2132.66,-715.74 2138.1,-711.01 2144.57,-714.21 2139.13,-718.94 2132.66,-715.74"/>
</g>
<!-- x26&#45;&gt;c42 -->
<g id="edge27" class="edge">
<title>x26:e&#45;&gt;c42:w</title>
<path fill="none" stroke="black" d="M1840.91,-571.6C1973.33,-576.6 2002.13,-659.6 2134.54,-664.62"/>
<polygon fill="none" stroke="black" points="1841.13,-571.6 1835.06,-575.49 1829.13,-571.38 1835.21,-567.49 1841.13,-571.6"/>
<polygon fill="none" stroke="black" points="2134.35,-664.62 2140.42,-660.73 2146.35,-664.84 2140.27,-668.73 2134.35,-664.62"/>
</g>
<!-- x28 -->
<g id="node58" class="node">
<title>x28</title>
<path fill="none" stroke="black" d="M968.5,-365.86C968.5,-365.86 1007,-365.86 1007,-365.86 1013,-365.86 1019,-371.86 1019,-377.86 1019,-377.86 1019,-402.86 1019,-402.86 1019,-408.86 1013,-414.86 1007,-414.86 1007,-414.86 968.5,-414.86 968.5,-414.86 962.5,-414.86 956.5,-408.86 956.5,-402.86 956.5,-402.86 956.5,-377.86 956.5,-377.86 956.5,-371.86 962.5,-365.86 968.5,-365.86"/>
<text text-anchor="middle" x="987.75" y="-397.56" font-family="Times,serif" font-size="14.00">7:7 &#45; 7:7</text>
<polyline fill="none" stroke="black" points="956.5,-390.36 1019,-390.36"/>
<text text-anchor="middle" x="987.75" y="-373.06" font-family="Times,serif" font-size="14.00">6:0 &#45; 6:0</text>
</g>
<!-- c43&#45;&gt;x28 -->
<g id="edge29" class="edge">
<title>c43:e&#45;&gt;x28:w</title>
<path fill="none" stroke="black" stroke-width="3" d="M880.57,-390.36C905.49,-390.36 917.62,-390.36 942.58,-390.36"/>
<polygon fill="none" stroke="black" stroke-width="3" points="882.25,-390.36 876.25,-394.36 870.25,-390.36 876.25,-386.36 882.25,-390.36"/>
<polygon fill="none" stroke="black" stroke-width="3" points="940.8,-390.36 946.8,-386.36 952.8,-390.36 946.8,-394.36 940.8,-390.36"/>
</g>
<!-- x27&#45;&gt;c43 -->
<g id="edge28" class="edge">
<title>x27:e&#45;&gt;c43:w</title>
<path fill="none" stroke="black" stroke-width="3" d="M707.08,-429.53C726.63,-426.84 736.2,-418.39 755.74,-415.7"/>
<polygon fill="none" stroke="black" stroke-width="3" points="708.97,-429.4 703.25,-433.78 697,-430.18 702.73,-425.8 708.97,-429.4"/>
<polygon fill="none" stroke="black" stroke-width="3" points="753.88,-415.82 759.6,-411.44 765.85,-415.04 760.13,-419.42 753.88,-415.82"/>
</g>
<!-- x28&#45;&gt;n16 -->
<g id="edge69" class="edge">
<title>x28:e&#45;&gt;n16:w</title>
<path fill="none" stroke="black" stroke-width="3" d="M1020,-378.11C1055.38,-378.11 1066.4,-369.43 1096.83,-367.67"/>
<polygon fill="black" stroke="black" stroke-width="3" points="1093.52,-371.26 1103.42,-367.49 1093.32,-364.27 1093.52,-371.26"/>
</g>
<!-- n8 -->
<g id="node80" class="node">
<title>n8</title>
<polygon fill="none" stroke="black" points="1565,-390.36 1530.02,-372.36 1565,-354.36 1599.98,-372.36 1565,-390.36"/>
<text text-anchor="middle" x="1565" y="-367.31" font-family="Times,serif" font-size="14.00">$36</text>
</g>
<!-- x28&#45;&gt;n8 -->
<g id="edge101" class="edge">
<title>x28:e&#45;&gt;n8:w</title>
<path fill="none" stroke="black" d="M1020,-402.61C1230.71,-402.61 1291.69,-453.19 1494.02,-394.36 1507.52,-390.43 1510.47,-380.02 1519.01,-375.06"/>
<polygon fill="black" stroke="black" points="1519.67,-378.5 1528.55,-372.72 1518,-371.71 1519.67,-378.5"/>
</g>
<!-- x30 -->
<g id="node61" class="node">
<title>x30</title>
<path fill="none" stroke="black" d="M798.8,-760.86C798.8,-760.86 837.3,-760.86 837.3,-760.86 843.3,-760.86 849.3,-766.86 849.3,-772.86 849.3,-772.86 849.3,-797.86 849.3,-797.86 849.3,-803.86 843.3,-809.86 837.3,-809.86 837.3,-809.86 798.8,-809.86 798.8,-809.86 792.8,-809.86 786.8,-803.86 786.8,-797.86 786.8,-797.86 786.8,-772.86 786.8,-772.86 786.8,-766.86 792.8,-760.86 798.8,-760.86"/>
<text text-anchor="middle" x="818.05" y="-792.56" font-family="Times,serif" font-size="14.00">3:3 &#45; 3:3</text>
<polyline fill="none" stroke="black" points="786.8,-785.36 849.3,-785.36"/>
<text text-anchor="middle" x="818.05" y="-768.06" font-family="Times,serif" font-size="14.00">2:0 &#45; 2:0</text>
</g>
<!-- c44&#45;&gt;x30 -->
<g id="edge31" class="edge">
<title>c44:e&#45;&gt;x30:w</title>
<path fill="none" stroke="black" stroke-width="3" d="M721.81,-749.23C744.13,-755.41 750.78,-777.46 773.03,-783.7"/>
<polygon fill="none" stroke="black" stroke-width="3" points="723.76,-749.48 717.3,-752.69 711.86,-747.95 718.32,-744.75 723.76,-749.48"/>
<polygon fill="none" stroke="black" stroke-width="3" points="771.22,-783.47 777.68,-780.27 783.12,-785.01 776.65,-788.21 771.22,-783.47"/>
</g>
<!-- x29&#45;&gt;c44 -->
<g id="edge30" class="edge">
<title>x29:e&#45;&gt;c44:w</title>
<path fill="none" stroke="black" stroke-width="3" d="M407.24,-741.47C490.85,-742.89 518.38,-758.05 601.9,-759.5"/>
<polygon fill="none" stroke="black" stroke-width="3" points="409.13,-741.48 403.09,-745.43 397.13,-741.38 403.16,-737.43 409.13,-741.48"/>
<polygon fill="none" stroke="black" stroke-width="3" points="600.22,-759.48 606.26,-755.54 612.22,-759.59 606.19,-763.54 600.22,-759.48"/>
</g>
<!-- x30&#45;&gt;n11 -->
<g id="edge38" class="edge">
<title>x30:e&#45;&gt;n11:w</title>
<path fill="none" stroke="black" stroke-width="3" d="M850.3,-773.11C869.71,-773.11 877.18,-773.28 892.31,-773.34"/>
<polygon fill="black" stroke="black" stroke-width="3" points="889,-776.83 899.01,-773.35 889.02,-769.83 889,-776.83"/>
</g>
<!-- x30&#45;&gt;n15 -->
<g id="edge64" class="edge">
<title>x30:e&#45;&gt;n15:w</title>
<path fill="none" stroke="black" d="M850.3,-797.61C907.76,-797.61 1050.55,-816.94 1107.96,-819.36 1208.55,-823.6 1237.57,-846.63 1334.49,-819.36 1348.02,-815.55 1350.96,-805.08 1359.49,-800.08"/>
<polygon fill="black" stroke="black" points="1360.15,-803.52 1369.02,-797.72 1358.47,-796.73 1360.15,-803.52"/>
</g>
<!-- v31 -->
<g id="node62" class="node">
<title>v31</title>
<ellipse fill="none" stroke="black" cx="211.57" cy="-542.36" rx="67.73" ry="18"/>
<text text-anchor="middle" x="211.57" y="-537.31" font-family="Times,serif" font-size="14.00">10&#39;0000000000</text>
</g>
<!-- x32 -->
<g id="node63" class="node">
<title>x32</title>
<path fill="none" stroke="black" d="M336.17,-523.36C336.17,-523.36 388.17,-523.36 388.17,-523.36 394.17,-523.36 400.17,-529.36 400.17,-535.36 400.17,-535.36 400.17,-547.36 400.17,-547.36 400.17,-553.36 394.17,-559.36 388.17,-559.36 388.17,-559.36 336.17,-559.36 336.17,-559.36 330.17,-559.36 324.17,-553.36 324.17,-547.36 324.17,-547.36 324.17,-535.36 324.17,-535.36 324.17,-529.36 330.17,-523.36 336.17,-523.36"/>
<text text-anchor="middle" x="362.17" y="-536.56" font-family="Times,serif" font-size="14.00">9:0 &#45; 25:16</text>
</g>
<!-- v31&#45;&gt;x32 -->
<g id="edge107" class="edge">
<title>v31:e&#45;&gt;x32:w</title>
<path fill="none" stroke="black" stroke-width="3" d="M279.3,-542.36C294.39,-542.36 300.71,-541.76 311.83,-541.49"/>
<polygon fill="black" stroke="black" stroke-width="3" points="308.68,-545.03 318.63,-541.41 308.59,-538.03 308.68,-545.03"/>
</g>
<!-- x32&#45;&gt;n6 -->
<g id="edge95" class="edge">
<title>x32:e&#45;&gt;n6:w</title>
<path fill="none" stroke="black" stroke-width="3" d="M401.17,-541.61C439.78,-541.61 452.15,-541.4 485.83,-541.37"/>
<polygon fill="black" stroke="black" stroke-width="3" points="482.48,-544.87 492.48,-541.36 482.48,-537.87 482.48,-544.87"/>
</g>
<!-- x33 -->
<g id="node64" class="node">
<title>x33</title>
<path fill="none" stroke="black" d="M2005.23,-778.36C2005.23,-778.36 2087.98,-778.36 2087.98,-778.36 2093.98,-778.36 2099.98,-784.36 2099.98,-790.36 2099.98,-790.36 2099.98,-802.36 2099.98,-802.36 2099.98,-808.36 2093.98,-814.36 2087.98,-814.36 2087.98,-814.36 2005.23,-814.36 2005.23,-814.36 1999.23,-814.36 1993.23,-808.36 1993.23,-802.36 1993.23,-802.36 1993.23,-790.36 1993.23,-790.36 1993.23,-784.36 1999.23,-778.36 2005.23,-778.36"/>
<text text-anchor="middle" x="2046.61" y="-791.56" font-family="Times,serif" font-size="14.00">18x 25:25 &#45; 17:0</text>
</g>
<!-- x34 -->
<g id="node65" class="node">
<title>x34</title>
<path fill="none" stroke="black" d="M2171.75,-801.36C2171.75,-801.36 2223.75,-801.36 2223.75,-801.36 2229.75,-801.36 2235.75,-807.36 2235.75,-813.36 2235.75,-813.36 2235.75,-825.36 2235.75,-825.36 2235.75,-831.36 2229.75,-837.36 2223.75,-837.36 2223.75,-837.36 2171.75,-837.36 2171.75,-837.36 2165.75,-837.36 2159.75,-831.36 2159.75,-825.36 2159.75,-825.36 2159.75,-813.36 2159.75,-813.36 2159.75,-807.36 2165.75,-801.36 2171.75,-801.36"/>
<text text-anchor="middle" x="2197.75" y="-814.56" font-family="Times,serif" font-size="14.00">17:0 &#45; 24:7</text>
</g>
<!-- x33&#45;&gt;x34 -->
<g id="edge32" class="edge">
<title>x33:e&#45;&gt;x34:w</title>
<path fill="none" stroke="black" stroke-width="3" d="M2112.45,-798.16C2126.06,-802.44 2132.56,-813.17 2146.1,-817.5"/>
<polygon fill="none" stroke="black" stroke-width="3" points="2114.54,-798.47 2108.02,-801.57 2102.66,-796.75 2109.17,-793.65 2114.54,-798.47"/>
<polygon fill="none" stroke="black" stroke-width="3" points="2144.2,-817.22 2150.72,-814.14 2156.07,-818.97 2149.55,-822.05 2144.2,-817.22"/>
</g>
<!-- x34&#45;&gt;n7 -->
<g id="edge98" class="edge">
<title>x34:e&#45;&gt;n7:w</title>
<path fill="none" stroke="black" stroke-width="3" d="M2236.75,-819.61C2244.87,-819.61 2241.65,-832.28 2235.75,-837.86 2211.22,-861.08 2193.5,-839.23 2159.75,-837.86 2085.56,-834.86 2066.14,-838.41 1993.23,-824.36 1971.39,-820.15 1935.05,-812 1913.86,-805.57"/>
<polygon fill="black" stroke="black" stroke-width="3" points="1918.63,-806.3 1910.05,-800.09 1912.88,-810.3 1918.63,-806.3"/>
</g>
<!-- x36 -->
<g id="node67" class="node">
<title>x36</title>
<path fill="none" stroke="black" d="M1406.25,-335.86C1406.25,-335.86 1458.25,-335.86 1458.25,-335.86 1464.25,-335.86 1470.25,-341.86 1470.25,-347.86 1470.25,-347.86 1470.25,-372.86 1470.25,-372.86 1470.25,-378.86 1464.25,-384.86 1458.25,-384.86 1458.25,-384.86 1406.25,-384.86 1406.25,-384.86 1400.25,-384.86 1394.25,-378.86 1394.25,-372.86 1394.25,-372.86 1394.25,-347.86 1394.25,-347.86 1394.25,-341.86 1400.25,-335.86 1406.25,-335.86"/>
<text text-anchor="middle" x="1432.25" y="-367.56" font-family="Times,serif" font-size="14.00">26:7 &#45; 27:8</text>
<polyline fill="none" stroke="black" points="1394.25,-360.36 1470.25,-360.36"/>
<text text-anchor="middle" x="1432.25" y="-343.06" font-family="Times,serif" font-size="14.00">6:0 &#45; 6:0</text>
</g>
<!-- x35&#45;&gt;x36 -->
<g id="edge33" class="edge">
<title>x35:e&#45;&gt;x36:w</title>
<path fill="none" stroke="black" stroke-width="3" d="M1347.37,-360.36C1360.03,-360.36 1367.86,-360.36 1380.57,-360.36"/>
<polygon fill="none" stroke="black" stroke-width="3" points="1349.19,-360.36 1343.19,-364.36 1337.19,-360.36 1343.19,-356.36 1349.19,-360.36"/>
<polygon fill="none" stroke="black" stroke-width="3" points="1378.55,-360.36 1384.55,-356.36 1390.55,-360.36 1384.55,-364.36 1378.55,-360.36"/>
</g>
<!-- x36&#45;&gt;n8 -->
<g id="edge102" class="edge">
<title>x36:e&#45;&gt;n8:w</title>
<path fill="none" stroke="black" stroke-width="3" d="M1471.25,-348.11C1495.2,-348.11 1500.47,-365.53 1518.73,-370.84"/>
<polygon fill="black" stroke="black" stroke-width="3" points="1515.14,-373.89 1525.51,-371.75 1516.07,-366.95 1515.14,-373.89"/>
</g>
<!-- x36&#45;&gt;n8 -->
<g id="edge103" class="edge">
<title>x36:e&#45;&gt;n8:w</title>
<path fill="none" stroke="black" stroke-width="3" d="M1471.25,-372.61C1493.08,-372.61 1501.23,-372.44 1518.57,-372.38"/>
<polygon fill="black" stroke="black" stroke-width="3" points="1515.48,-375.88 1525.47,-372.37 1515.47,-368.88 1515.48,-375.88"/>
</g>
<!-- x37&#45;&gt;n9 -->
<g id="edge104" class="edge">
<title>x37:e&#45;&gt;n9:w</title>
<path fill="none" stroke="black" stroke-width="3" d="M1597.25,-154.61C1632.62,-154.61 1638.95,-181.62 1668.19,-187.31"/>
<polygon fill="black" stroke="black" stroke-width="3" points="1664.78,-190.51 1675.06,-187.94 1665.42,-183.54 1664.78,-190.51"/>
</g>
<!-- v38 -->
<g id="node69" class="node">
<title>v38</title>
<ellipse fill="none" stroke="black" cx="3202.67" cy="-330.36" rx="44.7" ry="18"/>
<text text-anchor="middle" x="3202.67" y="-325.31" font-family="Times,serif" font-size="14.00">6&#39;000000</text>
</g>
<!-- x39 -->
<g id="node70" class="node">
<title>x39</title>
<path fill="none" stroke="black" d="M3297.54,-315.36C3297.54,-315.36 3336.04,-315.36 3336.04,-315.36 3342.04,-315.36 3348.04,-321.36 3348.04,-327.36 3348.04,-327.36 3348.04,-339.36 3348.04,-339.36 3348.04,-345.36 3342.04,-351.36 3336.04,-351.36 3336.04,-351.36 3297.54,-351.36 3297.54,-351.36 3291.54,-351.36 3285.54,-345.36 3285.54,-339.36 3285.54,-339.36 3285.54,-327.36 3285.54,-327.36 3285.54,-321.36 3291.54,-315.36 3297.54,-315.36"/>
<text text-anchor="middle" x="3316.79" y="-328.56" font-family="Times,serif" font-size="14.00">5:0 &#45; 9:4</text>
</g>
<!-- v38&#45;&gt;x39 -->
<g id="edge108" class="edge">
<title>v38:e&#45;&gt;x39:w</title>
<path fill="none" stroke="black" stroke-width="3" d="M3248.78,-330.36C3260.57,-330.36 3265.93,-331.91 3274.11,-332.78"/>
<polygon fill="black" stroke="black" stroke-width="3" points="3270.84,-336.12 3281.01,-333.13 3271.2,-329.13 3270.84,-336.12"/>
</g>
<!-- x39&#45;&gt;n13 -->
<g id="edge58" class="edge">
<title>x39:e&#45;&gt;n13:w</title>
<path fill="none" stroke="black" stroke-width="3" d="M3348.04,-333.61C3363.3,-333.61 3364.61,-349.29 3373.34,-356.64"/>
<polygon fill="black" stroke="black" stroke-width="3" points="3369.16,-358.89 3379.75,-358.87 3371.46,-352.28 3369.16,-358.89"/>
</g>
<!-- v40 -->
<g id="node71" class="node">
<title>v40</title>
<ellipse fill="none" stroke="black" cx="2777.42" cy="-500.36" rx="35.49" ry="18"/>
<text text-anchor="middle" x="2777.42" y="-495.31" font-family="Times,serif" font-size="14.00">4&#39;0000</text>
</g>
<!-- x41 -->
<g id="node72" class="node">
<title>x41</title>
<path fill="none" stroke="black" d="M2872.29,-479.36C2872.29,-479.36 2910.79,-479.36 2910.79,-479.36 2916.79,-479.36 2922.79,-485.36 2922.79,-491.36 2922.79,-491.36 2922.79,-503.36 2922.79,-503.36 2922.79,-509.36 2916.79,-515.36 2910.79,-515.36 2910.79,-515.36 2872.29,-515.36 2872.29,-515.36 2866.29,-515.36 2860.29,-509.36 2860.29,-503.36 2860.29,-503.36 2860.29,-491.36 2860.29,-491.36 2860.29,-485.36 2866.29,-479.36 2872.29,-479.36"/>
<text text-anchor="middle" x="2891.54" y="-492.56" font-family="Times,serif" font-size="14.00">3:0 &#45; 7:4</text>
</g>
<!-- v40&#45;&gt;x41 -->
<g id="edge109" class="edge">
<title>v40:e&#45;&gt;x41:w</title>
<path fill="none" stroke="black" stroke-width="3" d="M2814.24,-500.36C2830.42,-500.36 2836.97,-498.49 2849.09,-497.7"/>
<polygon fill="black" stroke="black" stroke-width="3" points="2845.87,-501.3 2855.75,-497.5 2845.65,-494.31 2845.87,-501.3"/>
</g>
<!-- x41&#45;&gt;n3 -->
<g id="edge89" class="edge">
<title>x41:e&#45;&gt;n3:w</title>
<path fill="none" stroke="black" stroke-width="3" d="M2922.79,-497.61C2956.89,-497.61 2950.58,-451.81 2975.53,-441.43"/>
<polygon fill="black" stroke="black" stroke-width="3" points="2973.1,-445.44 2982.3,-440.18 2971.83,-438.56 2973.1,-445.44"/>
</g>
<!-- x43 -->
<g id="node74" class="node">
<title>x43</title>
<path fill="none" stroke="black" d="M2462.51,-367.36C2462.51,-367.36 2514.51,-367.36 2514.51,-367.36 2520.51,-367.36 2526.51,-373.36 2526.51,-379.36 2526.51,-379.36 2526.51,-391.36 2526.51,-391.36 2526.51,-397.36 2520.51,-403.36 2514.51,-403.36 2514.51,-403.36 2462.51,-403.36 2462.51,-403.36 2456.51,-403.36 2450.51,-397.36 2450.51,-391.36 2450.51,-391.36 2450.51,-379.36 2450.51,-379.36 2450.51,-373.36 2456.51,-367.36 2462.51,-367.36"/>
<text text-anchor="middle" x="2488.51" y="-380.56" font-family="Times,serif" font-size="14.00">21:0 &#45; 25:4</text>
</g>
<!-- x42&#45;&gt;x43 -->
<g id="edge34" class="edge">
<title>x42:e&#45;&gt;x43:w</title>
<path fill="none" stroke="black" stroke-width="3" d="M2417.32,-356.15C2425.81,-362.44 2428.72,-375.01 2437.12,-381.41"/>
<polygon fill="none" stroke="black" stroke-width="3" points="2419.18,-356.72 2412.26,-358.76 2407.72,-353.16 2414.64,-351.12 2419.18,-356.72"/>
<polygon fill="none" stroke="black" stroke-width="3" points="2435.5,-380.9 2442.43,-378.91 2446.94,-384.54 2440.01,-386.53 2435.5,-380.9"/>
</g>
<!-- x43&#45;&gt;n14 -->
<g id="edge61" class="edge">
<title>x43:e&#45;&gt;n14:w</title>
<path fill="none" stroke="black" stroke-width="3" d="M2527.51,-385.61C2535.64,-385.61 2532.41,-398.28 2526.51,-403.86 2501.98,-427.08 2484.19,-406.5 2450.51,-403.86 2308.25,-392.69 2228.01,-455.1 2134.44,-347.36 2132.72,-345.37 2131.16,-342.75 2130.12,-340.13"/>
<polygon fill="black" stroke="black" stroke-width="3" points="2132.5,-344.29 2132.11,-333.7 2125.81,-342.22 2132.5,-344.29"/>
</g>
<!-- x45 -->
<g id="node76" class="node">
<title>x45</title>
<path fill="none" stroke="black" d="M1281.74,-760.86C1281.74,-760.86 1320.24,-760.86 1320.24,-760.86 1326.24,-760.86 1332.24,-766.86 1332.24,-772.86 1332.24,-772.86 1332.24,-797.86 1332.24,-797.86 1332.24,-803.86 1326.24,-809.86 1320.24,-809.86 1320.24,-809.86 1281.74,-809.86 1281.74,-809.86 1275.74,-809.86 1269.74,-803.86 1269.74,-797.86 1269.74,-797.86 1269.74,-772.86 1269.74,-772.86 1269.74,-766.86 1275.74,-760.86 1281.74,-760.86"/>
<text text-anchor="middle" x="1300.99" y="-792.56" font-family="Times,serif" font-size="14.00">3:3 &#45; 4:4</text>
<polyline fill="none" stroke="black" points="1269.74,-785.36 1332.24,-785.36"/>
<text text-anchor="middle" x="1300.99" y="-768.06" font-family="Times,serif" font-size="14.00">2:0 &#45; 2:0</text>
</g>
<!-- x44&#45;&gt;x45 -->
<g id="edge35" class="edge">
<title>x44:e&#45;&gt;x45:w</title>
<path fill="none" stroke="black" stroke-width="3" d="M1215.28,-785.36C1231.04,-785.36 1240.08,-785.36 1255.86,-785.36"/>
<polygon fill="none" stroke="black" stroke-width="3" points="1217.05,-785.36 1211.05,-789.36 1205.05,-785.36 1211.05,-781.36 1217.05,-785.36"/>
<polygon fill="none" stroke="black" stroke-width="3" points="1254.03,-785.36 1260.03,-781.36 1266.03,-785.36 1260.03,-789.36 1254.03,-785.36"/>
</g>
<!-- x45&#45;&gt;n15 -->
<g id="edge65" class="edge">
<title>x45:e&#45;&gt;n15:w</title>
<path fill="none" stroke="black" stroke-width="3" d="M1333.24,-773.11C1348.36,-773.11 1350.58,-787.32 1359.66,-793.99"/>
<polygon fill="black" stroke="black" stroke-width="3" points="1355.56,-796.38 1366.15,-796.01 1357.64,-789.7 1355.56,-796.38"/>
</g>
<!-- x45&#45;&gt;n15 -->
<g id="edge66" class="edge">
<title>x45:e&#45;&gt;n15:w</title>
<path fill="none" stroke="black" d="M1333.24,-797.61C1345.26,-797.61 1350.74,-797.48 1359.18,-797.41"/>
<polygon fill="black" stroke="black" points="1358.99,-800.91 1368.97,-797.37 1358.96,-793.91 1358.99,-800.91"/>
</g>
<!-- n3&#45;&gt;x10 -->
<g id="edge91" class="edge">
<title>n3:e&#45;&gt;x10:w</title>
<path fill="none" stroke="black" stroke-width="3" d="M2993.32,-439.36C3018.37,-439.36 3025.95,-427.83 3045.95,-424.5"/>
<polygon fill="black" stroke="black" stroke-width="3" points="3043.07,-428.24 3052.77,-423.97 3042.52,-421.26 3043.07,-428.24"/>
</g>
<!-- n6&#45;&gt;x6 -->
<g id="edge96" class="edge">
<title>n6:e&#45;&gt;x6:w</title>
<path fill="none" stroke="black" stroke-width="3" d="M503.58,-541.36C781.46,-541.36 853.78,-541.6 1126.03,-541.61"/>
<polygon fill="black" stroke="black" stroke-width="3" points="1122.93,-545.11 1132.93,-541.61 1122.93,-538.11 1122.93,-545.11"/>
</g>
<!-- n7&#45;&gt;x25 -->
<g id="edge99" class="edge">
<title>n7:e&#45;&gt;x25:w</title>
<path fill="none" stroke="black" stroke-width="3" d="M1914.01,-796.36C1960.75,-796.36 1963.42,-750.03 2003.1,-742.61"/>
<polygon fill="black" stroke="black" stroke-width="3" points="2000.18,-746.38 2009.84,-742.01 1999.57,-739.41 2000.18,-746.38"/>
</g>
<!-- n7&#45;&gt;x33 -->
<g id="edge100" class="edge">
<title>n7:e&#45;&gt;x33:w</title>
<path fill="none" stroke="black" stroke-width="3" d="M1914.01,-796.36C1945.09,-796.36 1955.6,-796.55 1981.86,-796.6"/>
<polygon fill="black" stroke="black" stroke-width="3" points="1978.69,-800.1 1988.69,-796.61 1978.7,-793.1 1978.69,-800.1"/>
</g>
<!-- n9&#45;&gt;x23 -->
<g id="edge106" class="edge">
<title>n9:e&#45;&gt;x23:w</title>
<path fill="none" stroke="black" d="M1686.14,-188.36C1717.37,-188.36 1727.92,-188.55 1754.3,-188.6"/>
<polygon fill="black" stroke="black" points="1754.22,-192.1 1764.22,-188.61 1754.22,-185.1 1754.22,-192.1"/>
</g>
</g>
</svg>
