<?xml version="1.0" encoding="UTF-8" standalone="no"?>
<!DOCTYPE svg PUBLIC "-//W3C//DTD SVG 1.1//EN"
 "http://www.w3.org/Graphics/SVG/1.1/DTD/svg11.dtd">
<!-- Generated by graphviz version 12.2.1 (20241206.2353)
 -->
<!-- Title: top Pages: 1 -->
<svg width="773pt" height="127pt"
 viewBox="0.00 0.00 772.90 127.25" xmlns="http://www.w3.org/2000/svg" xmlns:xlink="http://www.w3.org/1999/xlink">
<g id="graph0" class="graph" transform="scale(1 1) rotate(0) translate(4 123.25)">
<title>top</title>
<polygon fill="white" stroke="none" points="-4,4 -4,-123.25 768.9,-123.25 768.9,4 -4,4"/>
<text text-anchor="middle" x="382.45" y="-7.2" font-family="Times,serif" font-size="14.00">top</text>
<!-- n1 -->
<g id="node1" class="node">
<title>n1</title>
<polygon fill="none" stroke="black" points="107.84,-62.54 107.84,-77.46 76.26,-88 31.59,-88 0,-77.46 0,-62.54 31.59,-52 76.26,-52 107.84,-62.54"/>
<text text-anchor="middle" x="53.92" y="-64.95" font-family="Times,serif" font-size="14.00">input_data</text>
</g>
<!-- x0 -->
<g id="node5" class="node">
<title>x0</title>
<path fill="none" stroke="black" d="M155.84,-80C155.84,-80 194.34,-80 194.34,-80 200.34,-80 206.34,-86 206.34,-92 206.34,-92 206.34,-104 206.34,-104 206.34,-110 200.34,-116 194.34,-116 194.34,-116 155.84,-116 155.84,-116 149.84,-116 143.84,-110 143.84,-104 143.84,-104 143.84,-92 143.84,-92 143.84,-86 149.84,-80 155.84,-80"/>
<text text-anchor="middle" x="175.09" y="-93.2" font-family="Times,serif" font-size="14.00">1:0 &#45; 1:0</text>
</g>
<!-- n1&#45;&gt;x0 -->
<g id="edge3" class="edge">
<title>n1:e&#45;&gt;x0:w</title>
<path fill="none" stroke="black" stroke-width="3" d="M107.84,-70C123.41,-70 124.32,-86.56 133.02,-94.32"/>
<polygon fill="black" stroke="black" stroke-width="3" points="128.98,-96.58 139.57,-96.7 131.37,-90 128.98,-96.58"/>
</g>
<!-- x1 -->
<g id="node6" class="node">
<title>x1</title>
<path fill="none" stroke="black" d="M155.84,-25C155.84,-25 194.34,-25 194.34,-25 200.34,-25 206.34,-31 206.34,-37 206.34,-37 206.34,-49 206.34,-49 206.34,-55 200.34,-61 194.34,-61 194.34,-61 155.84,-61 155.84,-61 149.84,-61 143.84,-55 143.84,-49 143.84,-49 143.84,-37 143.84,-37 143.84,-31 149.84,-25 155.84,-25"/>
<text text-anchor="middle" x="175.09" y="-38.2" font-family="Times,serif" font-size="14.00">1:0 &#45; 1:0</text>
</g>
<!-- n1&#45;&gt;x1 -->
<g id="edge4" class="edge">
<title>n1:e&#45;&gt;x1:w</title>
<path fill="none" stroke="black" stroke-width="3" d="M107.84,-70C123.1,-70 124.41,-54.32 133.13,-46.97"/>
<polygon fill="black" stroke="black" stroke-width="3" points="131.25,-51.33 139.55,-44.74 128.96,-44.72 131.25,-51.33"/>
</g>
<!-- n2 -->
<g id="node2" class="node">
<title>n2</title>
<polygon fill="none" stroke="black" points="764.9,-74.54 764.9,-89.46 730.4,-100 681.6,-100 647.09,-89.46 647.09,-74.54 681.6,-64 730.4,-64 764.9,-74.54"/>
<text text-anchor="middle" x="706" y="-76.95" font-family="Times,serif" font-size="14.00">output_data</text>
</g>
<!-- n3 -->
<g id="node3" class="node">
<title>n3</title>
<polygon fill="none" stroke="black" points="426.59,-88 371.34,-70 426.59,-52 481.84,-70 426.59,-88"/>
<text text-anchor="middle" x="426.59" y="-64.95" font-family="Times,serif" font-size="14.00">temp_6</text>
</g>
<!-- x2 -->
<g id="node7" class="node">
<title>x2</title>
<path fill="none" stroke="black" d="M529.84,-45.25C529.84,-45.25 599.09,-45.25 599.09,-45.25 605.09,-45.25 611.09,-51.25 611.09,-57.25 611.09,-57.25 611.09,-106.75 611.09,-106.75 611.09,-112.75 605.09,-118.75 599.09,-118.75 599.09,-118.75 529.84,-118.75 529.84,-118.75 523.84,-118.75 517.84,-112.75 517.84,-106.75 517.84,-106.75 517.84,-57.25 517.84,-57.25 517.84,-51.25 523.84,-45.25 529.84,-45.25"/>
<text text-anchor="middle" x="564.47" y="-101.45" font-family="Times,serif" font-size="14.00">0 &#45;&gt; 19:17</text>
<polyline fill="none" stroke="black" points="517.84,-94.25 611.09,-94.25"/>
<text text-anchor="middle" x="564.47" y="-76.95" font-family="Times,serif" font-size="14.00">15x 1:1 &#45; 16:2</text>
<polyline fill="none" stroke="black" points="517.84,-69.75 611.09,-69.75"/>
<text text-anchor="middle" x="564.47" y="-52.45" font-family="Times,serif" font-size="14.00">1:0 &#45; 1:0</text>
</g>
<!-- n3&#45;&gt;x2 -->
<g id="edge7" class="edge">
<title>n3:e&#45;&gt;x2:w</title>
<path fill="none" stroke="black" stroke-width="3" d="M481.84,-70C494.15,-70 498.63,-63.4 506.66,-59.79"/>
<polygon fill="black" stroke="black" stroke-width="3" points="504.3,-63.85 513.39,-58.41 502.89,-56.99 504.3,-63.85"/>
</g>
<!-- n3&#45;&gt;x2 -->
<g id="edge8" class="edge">
<title>n3:e&#45;&gt;x2:w</title>
<path fill="none" stroke="black" stroke-width="3" d="M481.84,-70C494.1,-70 498.64,-76.33 506.68,-79.8"/>
<polygon fill="black" stroke="black" stroke-width="3" points="502.9,-82.62 513.39,-81.12 504.25,-75.75 502.9,-82.62"/>
</g>
<!-- c7 -->
<g id="node4" class="node">
<title>c7</title>
<polygon fill="none" stroke="black" points="242.34,-45.5 242.34,-94.5 335.34,-94.5 335.34,-45.5 242.34,-45.5"/>
<text text-anchor="middle" x="255.22" y="-77.2" font-family="Times,serif" font-size="14.00">A</text>
<polyline fill="none" stroke="black" points="242.34,-70 268.09,-70"/>
<text text-anchor="middle" x="255.22" y="-52.7" font-family="Times,serif" font-size="14.00">B</text>
<polyline fill="none" stroke="black" points="268.09,-45.5 268.09,-94.5"/>
<text text-anchor="middle" x="288.84" y="-73.2" font-family="Times,serif" font-size="14.00">$5</text>
<text text-anchor="middle" x="288.84" y="-56.7" font-family="Times,serif" font-size="14.00">$sub</text>
<polyline fill="none" stroke="black" points="309.59,-45.5 309.59,-94.5"/>
<text text-anchor="middle" x="322.47" y="-65.2" font-family="Times,serif" font-size="14.00">Y</text>
</g>
<!-- c7&#45;&gt;n3 -->
<g id="edge6" class="edge">
<title>c7:e&#45;&gt;n3:w</title>
<path fill="none" stroke="black" stroke-width="3" d="M335.34,-70.25C346.72,-70.25 352.03,-70.12 359.89,-70.05"/>
<polygon fill="black" stroke="black" stroke-width="3" points="356.82,-73.56 366.8,-70.02 356.78,-66.56 356.82,-73.56"/>
</g>
<!-- x0&#45;&gt;c7 -->
<g id="edge1" class="edge">
<title>x0:e&#45;&gt;c7:w</title>
<path fill="none" stroke="black" stroke-width="3" d="M218.67,-94.5C222.78,-91.89 225.91,-88.34 230.03,-85.74"/>
<polygon fill="none" stroke="black" stroke-width="3" points="220.49,-93.99 215.81,-99.47 208.94,-97.26 213.62,-91.78 220.49,-93.99"/>
<polygon fill="none" stroke="black" stroke-width="3" points="228.19,-86.26 232.88,-80.77 239.74,-82.99 235.06,-88.47 228.19,-86.26"/>
</g>
<!-- x1&#45;&gt;c7 -->
<g id="edge2" class="edge">
<title>x1:e&#45;&gt;c7:w</title>
<path fill="none" stroke="black" stroke-width="3" d="M218.87,-46.42C222.81,-48.8 225.9,-51.97 229.84,-54.35"/>
<polygon fill="none" stroke="black" stroke-width="3" points="220.53,-46.87 213.68,-49.15 208.95,-43.71 215.79,-41.43 220.53,-46.87"/>
<polygon fill="none" stroke="black" stroke-width="3" points="228.15,-53.89 234.99,-51.6 239.73,-57.04 232.89,-59.32 228.15,-53.89"/>
</g>
<!-- x2&#45;&gt;n2 -->
<g id="edge5" class="edge">
<title>x2:e&#45;&gt;n2:w</title>
<path fill="none" stroke="black" stroke-width="3" d="M611.09,-82C622.47,-82 627.78,-82 635.65,-82"/>
<polygon fill="black" stroke="black" stroke-width="3" points="632.55,-85.5 642.55,-82 632.55,-78.5 632.55,-85.5"/>
</g>
</g>
</svg>
