<?xml version="1.0" encoding="UTF-8" standalone="no"?>
<!DOCTYPE svg PUBLIC "-//W3C//DTD SVG 1.1//EN"
 "http://www.w3.org/Graphics/SVG/1.1/DTD/svg11.dtd">
<!-- Generated by graphviz version 12.2.1 (20241206.2353)
 -->
<!-- Title: top Pages: 1 -->
<svg width="3563pt" height="385pt"
 viewBox="0.00 0.00 3563.48 384.50" xmlns="http://www.w3.org/2000/svg" xmlns:xlink="http://www.w3.org/1999/xlink">
<g id="graph0" class="graph" transform="scale(1 1) rotate(0) translate(4 380.5)">
<title>top</title>
<polygon fill="white" stroke="none" points="-4,4 -4,-380.5 3559.48,-380.5 3559.48,4 -4,4"/>
<text text-anchor="middle" x="1777.74" y="-7.2" font-family="Times,serif" font-size="14.00">top</text>
<!-- n9 -->
<g id="node1" class="node">
<title>n9</title>
<polygon fill="none" stroke="black" points="107.84,-229.54 107.84,-244.46 76.26,-255 31.59,-255 0,-244.46 0,-229.54 31.59,-219 76.26,-219 107.84,-229.54"/>
<text text-anchor="middle" x="53.92" y="-231.95" font-family="Times,serif" font-size="14.00">input_data</text>
</g>
<!-- x1 -->
<g id="node9" class="node">
<title>x1</title>
<path fill="none" stroke="black" d="M391.84,-106C391.84,-106 430.34,-106 430.34,-106 436.34,-106 442.34,-112 442.34,-118 442.34,-118 442.34,-130 442.34,-130 442.34,-136 436.34,-142 430.34,-142 430.34,-142 391.84,-142 391.84,-142 385.84,-142 379.84,-136 379.84,-130 379.84,-130 379.84,-118 379.84,-118 379.84,-112 385.84,-106 391.84,-106"/>
<text text-anchor="middle" x="411.09" y="-119.2" font-family="Times,serif" font-size="14.00">7:2 &#45; 5:0</text>
</g>
<!-- n9&#45;&gt;x1 -->
<g id="edge49" class="edge">
<title>n9:e&#45;&gt;x1:w</title>
<path fill="none" stroke="black" stroke-width="3" d="M107.84,-237C152.58,-237 108.02,-169.8 143.84,-143 224.62,-82.56 270.57,-121.13 367.41,-124.08"/>
<polygon fill="black" stroke="black" stroke-width="3" points="364.25,-127.53 374.3,-124.18 364.36,-120.53 364.25,-127.53"/>
</g>
<!-- x2 -->
<g id="node11" class="node">
<title>x2</title>
<path fill="none" stroke="black" d="M155.84,-153C155.84,-153 194.34,-153 194.34,-153 200.34,-153 206.34,-159 206.34,-165 206.34,-165 206.34,-177 206.34,-177 206.34,-183 200.34,-189 194.34,-189 194.34,-189 155.84,-189 155.84,-189 149.84,-189 143.84,-183 143.84,-177 143.84,-177 143.84,-165 143.84,-165 143.84,-159 149.84,-153 155.84,-153"/>
<text text-anchor="middle" x="175.09" y="-166.2" font-family="Times,serif" font-size="14.00">7:2 &#45; 5:0</text>
</g>
<!-- n9&#45;&gt;x2 -->
<g id="edge50" class="edge">
<title>n9:e&#45;&gt;x2:w</title>
<path fill="none" stroke="black" stroke-width="3" d="M107.84,-237C136.47,-237 117.88,-188.44 133.22,-174.79"/>
<polygon fill="black" stroke="black" stroke-width="3" points="131.15,-179.16 139.53,-172.68 128.94,-172.52 131.15,-179.16"/>
</g>
<!-- x3 -->
<g id="node13" class="node">
<title>x3</title>
<path fill="none" stroke="black" d="M268.09,-247C268.09,-247 306.59,-247 306.59,-247 312.59,-247 318.59,-253 318.59,-259 318.59,-259 318.59,-271 318.59,-271 318.59,-277 312.59,-283 306.59,-283 306.59,-283 268.09,-283 268.09,-283 262.09,-283 256.09,-277 256.09,-271 256.09,-271 256.09,-259 256.09,-259 256.09,-253 262.09,-247 268.09,-247"/>
<text text-anchor="middle" x="287.34" y="-260.2" font-family="Times,serif" font-size="14.00">5:0 &#45; 5:0</text>
</g>
<!-- n9&#45;&gt;x3 -->
<g id="edge51" class="edge">
<title>n9:e&#45;&gt;x3:w</title>
<path fill="none" stroke="black" stroke-width="3" d="M107.84,-237C170.57,-237 186.63,-262.04 243.9,-264.97"/>
<polygon fill="black" stroke="black" stroke-width="3" points="240.47,-268.39 250.55,-265.14 240.64,-261.39 240.47,-268.39"/>
</g>
<!-- x9 -->
<g id="node22" class="node">
<title>x9</title>
<path fill="none" stroke="black" d="M155.84,-340C155.84,-340 194.34,-340 194.34,-340 200.34,-340 206.34,-346 206.34,-352 206.34,-352 206.34,-364 206.34,-364 206.34,-370 200.34,-376 194.34,-376 194.34,-376 155.84,-376 155.84,-376 149.84,-376 143.84,-370 143.84,-364 143.84,-364 143.84,-352 143.84,-352 143.84,-346 149.84,-340 155.84,-340"/>
<text text-anchor="middle" x="175.09" y="-353.2" font-family="Times,serif" font-size="14.00">6:1 &#45; 5:0</text>
</g>
<!-- n9&#45;&gt;x9 -->
<g id="edge52" class="edge">
<title>n9:e&#45;&gt;x9:w</title>
<path fill="none" stroke="black" stroke-width="3" d="M107.84,-237C159.66,-237 98.76,-340.04 132.97,-356.15"/>
<polygon fill="black" stroke="black" stroke-width="3" points="128.9,-358.92 139.38,-357.39 130.23,-352.05 128.9,-358.92"/>
</g>
<!-- x10 -->
<g id="node23" class="node">
<title>x10</title>
<path fill="none" stroke="black" d="M155.84,-285C155.84,-285 194.34,-285 194.34,-285 200.34,-285 206.34,-291 206.34,-297 206.34,-297 206.34,-309 206.34,-309 206.34,-315 200.34,-321 194.34,-321 194.34,-321 155.84,-321 155.84,-321 149.84,-321 143.84,-315 143.84,-309 143.84,-309 143.84,-297 143.84,-297 143.84,-291 149.84,-285 155.84,-285"/>
<text text-anchor="middle" x="175.09" y="-298.2" font-family="Times,serif" font-size="14.00">5:0 &#45; 5:0</text>
</g>
<!-- n9&#45;&gt;x10 -->
<g id="edge47" class="edge">
<title>n9:e&#45;&gt;x10:w</title>
<path fill="none" stroke="black" stroke-width="3" d="M107.84,-237C136.64,-237 117.78,-285.93 133.17,-299.69"/>
<polygon fill="black" stroke="black" stroke-width="3" points="128.94,-301.96 139.53,-301.81 131.16,-295.33 128.94,-301.96"/>
</g>
<!-- x11 -->
<g id="node25" class="node">
<title>x11</title>
<path fill="none" stroke="black" d="M391.84,-200C391.84,-200 430.34,-200 430.34,-200 436.34,-200 442.34,-206 442.34,-212 442.34,-212 442.34,-224 442.34,-224 442.34,-230 436.34,-236 430.34,-236 430.34,-236 391.84,-236 391.84,-236 385.84,-236 379.84,-230 379.84,-224 379.84,-224 379.84,-212 379.84,-212 379.84,-206 385.84,-200 391.84,-200"/>
<text text-anchor="middle" x="411.09" y="-213.2" font-family="Times,serif" font-size="14.00">8:3 &#45; 5:0</text>
</g>
<!-- n9&#45;&gt;x11 -->
<g id="edge48" class="edge">
<title>n9:e&#45;&gt;x11:w</title>
<path fill="none" stroke="black" stroke-width="3" d="M107.84,-237C224.68,-237 256.11,-219.44 367.45,-218.31"/>
<polygon fill="black" stroke="black" stroke-width="3" points="364.32,-221.82 374.3,-218.27 364.28,-214.82 364.32,-221.82"/>
</g>
<!-- n10 -->
<g id="node2" class="node">
<title>n10</title>
<polygon fill="none" stroke="black" points="3555.48,-68.54 3555.48,-83.46 3520.97,-94 3472.17,-94 3437.66,-83.46 3437.66,-68.54 3472.17,-58 3520.97,-58 3555.48,-68.54"/>
<text text-anchor="middle" x="3496.57" y="-70.95" font-family="Times,serif" font-size="14.00">output_data</text>
</g>
<!-- n11 -->
<g id="node3" class="node">
<title>n11</title>
<polygon fill="none" stroke="black" points="932.84,-171 877.59,-153 932.84,-135 988.09,-153 932.84,-171"/>
<text text-anchor="middle" x="932.84" y="-147.95" font-family="Times,serif" font-size="14.00">temp_0</text>
</g>
<!-- x0 -->
<g id="node7" class="node">
<title>x0</title>
<path fill="none" stroke="black" d="M1663.95,-25C1663.95,-25 1702.45,-25 1702.45,-25 1708.45,-25 1714.45,-31 1714.45,-37 1714.45,-37 1714.45,-49 1714.45,-49 1714.45,-55 1708.45,-61 1702.45,-61 1702.45,-61 1663.95,-61 1663.95,-61 1657.95,-61 1651.95,-55 1651.95,-49 1651.95,-49 1651.95,-37 1651.95,-37 1651.95,-31 1657.95,-25 1663.95,-25"/>
<text text-anchor="middle" x="1683.2" y="-38.2" font-family="Times,serif" font-size="14.00">2:0 &#45; 2:0</text>
</g>
<!-- n11&#45;&gt;x0 -->
<g id="edge25" class="edge">
<title>n11:e&#45;&gt;x0:w</title>
<path fill="none" stroke="black" stroke-width="3" d="M988.09,-153C1024.27,-153 994.54,-100.86 1024.09,-80 1111.44,-18.34 1156.1,-52 1263.02,-52 1263.02,-52 1263.02,-52 1480.45,-52 1552.9,-52 1573.57,-44.12 1640.75,-43.32"/>
<polygon fill="black" stroke="black" stroke-width="3" points="1637.43,-46.83 1647.41,-43.28 1637.39,-39.84 1637.43,-46.83"/>
</g>
<!-- x5 -->
<g id="node16" class="node">
<title>x5</title>
<path fill="none" stroke="black" d="M2193.31,-69C2193.31,-69 2231.81,-69 2231.81,-69 2237.81,-69 2243.81,-75 2243.81,-81 2243.81,-81 2243.81,-93 2243.81,-93 2243.81,-99 2237.81,-105 2231.81,-105 2231.81,-105 2193.31,-105 2193.31,-105 2187.31,-105 2181.31,-99 2181.31,-93 2181.31,-93 2181.31,-81 2181.31,-81 2181.31,-75 2187.31,-69 2193.31,-69"/>
<text text-anchor="middle" x="2212.56" y="-82.2" font-family="Times,serif" font-size="14.00">2:0 &#45; 2:0</text>
</g>
<!-- n11&#45;&gt;x5 -->
<g id="edge29" class="edge">
<title>n11:e&#45;&gt;x5:w</title>
<path fill="none" stroke="black" stroke-width="3" d="M988.09,-153C1009.8,-153 1004.32,-128.95 1024.09,-120 1121.4,-75.94 1156.2,-94 1263.02,-94 1263.02,-94 1263.02,-94 1892.88,-94 2017.23,-94 2051.06,-87.65 2169.92,-87.27"/>
<polygon fill="black" stroke="black" stroke-width="3" points="2166.78,-90.77 2176.77,-87.26 2166.76,-83.77 2166.78,-90.77"/>
</g>
<!-- x7 -->
<g id="node19" class="node">
<title>x7</title>
<path fill="none" stroke="black" d="M1565.45,-163C1565.45,-163 1603.95,-163 1603.95,-163 1609.95,-163 1615.95,-169 1615.95,-175 1615.95,-175 1615.95,-187 1615.95,-187 1615.95,-193 1609.95,-199 1603.95,-199 1603.95,-199 1565.45,-199 1565.45,-199 1559.45,-199 1553.45,-193 1553.45,-187 1553.45,-187 1553.45,-175 1553.45,-175 1553.45,-169 1559.45,-163 1565.45,-163"/>
<text text-anchor="middle" x="1584.7" y="-176.2" font-family="Times,serif" font-size="14.00">2:0 &#45; 2:0</text>
</g>
<!-- n11&#45;&gt;x7 -->
<g id="edge30" class="edge">
<title>n11:e&#45;&gt;x7:w</title>
<path fill="none" stroke="black" stroke-width="3" d="M988.09,-153C1235.87,-153 1299.94,-180.4 1542.16,-181.23"/>
<polygon fill="black" stroke="black" stroke-width="3" points="1538.9,-184.73 1548.91,-181.24 1538.92,-177.73 1538.9,-184.73"/>
</g>
<!-- x13 -->
<g id="node29" class="node">
<title>x13</title>
<path fill="none" stroke="black" d="M2291.81,-119C2291.81,-119 2330.31,-119 2330.31,-119 2336.31,-119 2342.31,-125 2342.31,-131 2342.31,-131 2342.31,-143 2342.31,-143 2342.31,-149 2336.31,-155 2330.31,-155 2330.31,-155 2291.81,-155 2291.81,-155 2285.81,-155 2279.81,-149 2279.81,-143 2279.81,-143 2279.81,-131 2279.81,-131 2279.81,-125 2285.81,-119 2291.81,-119"/>
<text text-anchor="middle" x="2311.06" y="-132.2" font-family="Times,serif" font-size="14.00">2:0 &#45; 2:0</text>
</g>
<!-- n11&#45;&gt;x13 -->
<g id="edge26" class="edge">
<title>n11:e&#45;&gt;x13:w</title>
<path fill="none" stroke="black" stroke-width="3" d="M988.09,-153C1004.19,-153 1008.05,-150.39 1024.09,-149 1130.09,-139.79 1156.62,-134 1263.02,-134 1263.02,-134 1263.02,-134 2108.31,-134 2180.68,-134 2201.49,-136.93 2268.62,-137.23"/>
<polygon fill="black" stroke="black" stroke-width="3" points="2265.26,-140.72 2275.27,-137.24 2265.28,-133.72 2265.26,-140.72"/>
</g>
<!-- x15 -->
<g id="node32" class="node">
<title>x15</title>
<path fill="none" stroke="black" d="M1036.09,-268C1036.09,-268 1074.59,-268 1074.59,-268 1080.59,-268 1086.59,-274 1086.59,-280 1086.59,-280 1086.59,-292 1086.59,-292 1086.59,-298 1080.59,-304 1074.59,-304 1074.59,-304 1036.09,-304 1036.09,-304 1030.09,-304 1024.09,-298 1024.09,-292 1024.09,-292 1024.09,-280 1024.09,-280 1024.09,-274 1030.09,-268 1036.09,-268"/>
<text text-anchor="middle" x="1055.34" y="-281.2" font-family="Times,serif" font-size="14.00">2:0 &#45; 2:0</text>
</g>
<!-- n11&#45;&gt;x15 -->
<g id="edge27" class="edge">
<title>n11:e&#45;&gt;x15:w</title>
<path fill="none" stroke="black" stroke-width="3" d="M988.09,-153C1045.12,-153 974.21,-268.17 1013.24,-284.37"/>
<polygon fill="black" stroke="black" stroke-width="3" points="1009.17,-287.21 1019.62,-285.47 1010.36,-280.31 1009.17,-287.21"/>
</g>
<!-- x16 -->
<g id="node33" class="node">
<title>x16</title>
<path fill="none" stroke="black" d="M1036.09,-209C1036.09,-209 1074.59,-209 1074.59,-209 1080.59,-209 1086.59,-215 1086.59,-221 1086.59,-221 1086.59,-233 1086.59,-233 1086.59,-239 1080.59,-245 1074.59,-245 1074.59,-245 1036.09,-245 1036.09,-245 1030.09,-245 1024.09,-239 1024.09,-233 1024.09,-233 1024.09,-221 1024.09,-221 1024.09,-215 1030.09,-209 1036.09,-209"/>
<text text-anchor="middle" x="1055.34" y="-222.2" font-family="Times,serif" font-size="14.00">5:3 &#45; 2:0</text>
</g>
<!-- n11&#45;&gt;x16 -->
<g id="edge28" class="edge">
<title>n11:e&#45;&gt;x16:w</title>
<path fill="none" stroke="black" stroke-width="3" d="M988.09,-153C1020.18,-153 995.6,-209.85 1013.52,-224.06"/>
<polygon fill="black" stroke="black" stroke-width="3" points="1009.16,-226.4 1019.74,-225.94 1011.18,-219.7 1009.16,-226.4"/>
</g>
<!-- n12 -->
<g id="node4" class="node">
<title>n12</title>
<polygon fill="none" stroke="black" points="2967.16,-107 2911.91,-89 2967.16,-71 3022.41,-89 2967.16,-107"/>
<text text-anchor="middle" x="2967.16" y="-83.95" font-family="Times,serif" font-size="14.00">temp_2</text>
</g>
<!-- c17 -->
<g id="node6" class="node">
<title>c17</title>
<polygon fill="none" stroke="black" points="3058.41,-39.5 3058.41,-88.5 3152.16,-88.5 3152.16,-39.5 3058.41,-39.5"/>
<text text-anchor="middle" x="3071.29" y="-71.2" font-family="Times,serif" font-size="14.00">A</text>
<polyline fill="none" stroke="black" points="3058.41,-64 3084.16,-64"/>
<text text-anchor="middle" x="3071.29" y="-46.7" font-family="Times,serif" font-size="14.00">B</text>
<polyline fill="none" stroke="black" points="3084.16,-39.5 3084.16,-88.5"/>
<text text-anchor="middle" x="3105.29" y="-67.2" font-family="Times,serif" font-size="14.00">$11</text>
<text text-anchor="middle" x="3105.29" y="-50.7" font-family="Times,serif" font-size="14.00">$add</text>
<polyline fill="none" stroke="black" points="3126.41,-39.5 3126.41,-88.5"/>
<text text-anchor="middle" x="3139.29" y="-59.2" font-family="Times,serif" font-size="14.00">Y</text>
</g>
<!-- n12&#45;&gt;c17 -->
<g id="edge32" class="edge">
<title>n12:e&#45;&gt;c17:w</title>
<path fill="none" stroke="black" stroke-width="3" d="M3022.41,-89C3034.74,-89 3039.2,-82.27 3047.22,-78.59"/>
<polygon fill="black" stroke="black" stroke-width="3" points="3044.89,-82.65 3053.97,-77.18 3043.46,-75.8 3044.89,-82.65"/>
</g>
<!-- n13 -->
<g id="node5" class="node">
<title>n13</title>
<polygon fill="none" stroke="black" points="3243.41,-82 3188.16,-64 3243.41,-46 3298.66,-64 3243.41,-82"/>
<text text-anchor="middle" x="3243.41" y="-58.95" font-family="Times,serif" font-size="14.00">temp_3</text>
</g>
<!-- x20 -->
<g id="node37" class="node">
<title>x20</title>
<path fill="none" stroke="black" d="M3346.66,-51.5C3346.66,-51.5 3389.66,-51.5 3389.66,-51.5 3395.66,-51.5 3401.66,-57.5 3401.66,-63.5 3401.66,-63.5 3401.66,-88.5 3401.66,-88.5 3401.66,-94.5 3395.66,-100.5 3389.66,-100.5 3389.66,-100.5 3346.66,-100.5 3346.66,-100.5 3340.66,-100.5 3334.66,-94.5 3334.66,-88.5 3334.66,-88.5 3334.66,-63.5 3334.66,-63.5 3334.66,-57.5 3340.66,-51.5 3346.66,-51.5"/>
<text text-anchor="middle" x="3368.16" y="-83.2" font-family="Times,serif" font-size="14.00">0 &#45;&gt; 36:3</text>
<polyline fill="none" stroke="black" points="3334.66,-76 3401.66,-76"/>
<text text-anchor="middle" x="3368.16" y="-58.7" font-family="Times,serif" font-size="14.00">2:0 &#45; 2:0</text>
</g>
<!-- n13&#45;&gt;x20 -->
<g id="edge34" class="edge">
<title>n13:e&#45;&gt;x20:w</title>
<path fill="none" stroke="black" stroke-width="3" d="M3298.66,-64C3310.04,-64 3315.35,-63.87 3323.22,-63.8"/>
<polygon fill="black" stroke="black" stroke-width="3" points="3320.14,-67.31 3330.12,-63.77 3320.11,-60.31 3320.14,-67.31"/>
</g>
<!-- c17&#45;&gt;n13 -->
<g id="edge33" class="edge">
<title>c17:e&#45;&gt;n13:w</title>
<path fill="none" stroke="black" stroke-width="3" d="M3152.16,-64.25C3163.54,-64.25 3168.85,-64.12 3176.71,-64.05"/>
<polygon fill="black" stroke="black" stroke-width="3" points="3173.64,-67.56 3183.62,-64.02 3173.61,-60.56 3173.64,-67.56"/>
</g>
<!-- x0&#45;&gt;c17 -->
<g id="edge1" class="edge">
<title>x0:e&#45;&gt;c17:w</title>
<path fill="none" stroke="black" stroke-width="3" d="M1727.47,-42.99C1890.91,-42.85 1936.57,-40 2106.31,-40 2106.31,-40 2106.31,-40 2833.04,-40 2928.93,-40 2955.79,-50.74 3045.61,-51.68"/>
<polygon fill="none" stroke="black" stroke-width="3" points="1729.16,-42.99 1723.16,-47 1717.16,-43 1723.15,-39 1729.16,-42.99"/>
<polygon fill="none" stroke="black" stroke-width="3" points="3043.71,-51.67 3049.73,-47.71 3055.71,-51.74 3049.69,-55.7 3043.71,-51.67"/>
</g>
<!-- c18 -->
<g id="node8" class="node">
<title>c18</title>
<polygon fill="none" stroke="black" points="747.84,-128.5 747.84,-177.5 841.59,-177.5 841.59,-128.5 747.84,-128.5"/>
<text text-anchor="middle" x="760.72" y="-160.2" font-family="Times,serif" font-size="14.00">A</text>
<polyline fill="none" stroke="black" points="747.84,-153 773.59,-153"/>
<text text-anchor="middle" x="760.72" y="-135.7" font-family="Times,serif" font-size="14.00">B</text>
<polyline fill="none" stroke="black" points="773.59,-128.5 773.59,-177.5"/>
<text text-anchor="middle" x="794.72" y="-156.2" font-family="Times,serif" font-size="14.00">$6</text>
<text text-anchor="middle" x="794.72" y="-139.7" font-family="Times,serif" font-size="14.00">$and</text>
<polyline fill="none" stroke="black" points="815.84,-128.5 815.84,-177.5"/>
<text text-anchor="middle" x="828.72" y="-148.2" font-family="Times,serif" font-size="14.00">Y</text>
</g>
<!-- c18&#45;&gt;n11 -->
<g id="edge24" class="edge">
<title>c18:e&#45;&gt;n11:w</title>
<path fill="none" stroke="black" stroke-width="3" d="M841.59,-153.25C852.97,-153.25 858.28,-153.12 866.14,-153.05"/>
<polygon fill="black" stroke="black" stroke-width="3" points="863.07,-156.56 873.05,-153.02 863.03,-149.56 863.07,-156.56"/>
</g>
<!-- x1&#45;&gt;c18 -->
<g id="edge2" class="edge">
<title>x1:e&#45;&gt;c18:w</title>
<path fill="none" stroke="black" stroke-width="3" d="M456.13,-124.05C576.99,-125.03 614.21,-139.72 735.08,-140.7"/>
<polygon fill="none" stroke="black" stroke-width="3" points="458.04,-124.06 452.03,-128.03 446.05,-124.01 452.06,-120.03 458.04,-124.06"/>
<polygon fill="none" stroke="black" stroke-width="3" points="733.14,-140.69 739.15,-136.72 745.14,-140.74 739.12,-144.72 733.14,-140.69"/>
</g>
<!-- c19 -->
<g id="node10" class="node">
<title>c19</title>
<polygon fill="none" stroke="black" points="490.59,-151.5 490.59,-192.5 582.09,-192.5 582.09,-151.5 490.59,-151.5"/>
<text text-anchor="middle" x="503.47" y="-167.2" font-family="Times,serif" font-size="14.00">A</text>
<polyline fill="none" stroke="black" points="516.34,-151.5 516.34,-192.5"/>
<text text-anchor="middle" x="536.34" y="-175.2" font-family="Times,serif" font-size="14.00">$4</text>
<text text-anchor="middle" x="536.34" y="-158.7" font-family="Times,serif" font-size="14.00">$not</text>
<polyline fill="none" stroke="black" points="556.34,-151.5 556.34,-192.5"/>
<text text-anchor="middle" x="569.22" y="-167.2" font-family="Times,serif" font-size="14.00">Y</text>
</g>
<!-- c25 -->
<g id="node26" class="node">
<title>c25</title>
<polygon fill="none" stroke="black" points="618.84,-159.5 618.84,-208.5 711.84,-208.5 711.84,-159.5 618.84,-159.5"/>
<text text-anchor="middle" x="631.72" y="-191.2" font-family="Times,serif" font-size="14.00">A</text>
<polyline fill="none" stroke="black" points="618.84,-184 644.59,-184"/>
<text text-anchor="middle" x="631.72" y="-166.7" font-family="Times,serif" font-size="14.00">B</text>
<polyline fill="none" stroke="black" points="644.59,-159.5 644.59,-208.5"/>
<text text-anchor="middle" x="665.34" y="-187.2" font-family="Times,serif" font-size="14.00">$5</text>
<text text-anchor="middle" x="665.34" y="-170.7" font-family="Times,serif" font-size="14.00">$sub</text>
<polyline fill="none" stroke="black" points="686.09,-159.5 686.09,-208.5"/>
<text text-anchor="middle" x="698.97" y="-179.2" font-family="Times,serif" font-size="14.00">Y</text>
</g>
<!-- c19&#45;&gt;c25 -->
<g id="edge39" class="edge">
<title>c19:e&#45;&gt;c25:w</title>
<path fill="none" stroke="black" stroke-width="3" d="M582.84,-172.25C594.22,-172.25 599.53,-172 607.39,-171.85"/>
<polygon fill="black" stroke="black" stroke-width="3" points="604.33,-175.38 614.3,-171.79 604.27,-168.38 604.33,-175.38"/>
</g>
<!-- x2&#45;&gt;c19 -->
<g id="edge3" class="edge">
<title>x2:e&#45;&gt;c19:w</title>
<path fill="none" stroke="black" stroke-width="3" d="M219.29,-171C330.5,-171.08 365.73,-172.17 477,-172.25"/>
<polygon fill="none" stroke="black" stroke-width="3" points="221.05,-171.01 215.04,-175 209.05,-171 215.05,-167 221.05,-171.01"/>
<polygon fill="none" stroke="black" stroke-width="3" points="475.14,-172.24 481.14,-168.25 487.14,-172.25 481.14,-176.25 475.14,-172.24"/>
</g>
<!-- c20 -->
<g id="node12" class="node">
<title>c20</title>
<polygon fill="none" stroke="black" points="368.34,-255.5 368.34,-304.5 453.84,-304.5 453.84,-255.5 368.34,-255.5"/>
<text text-anchor="middle" x="381.22" y="-287.2" font-family="Times,serif" font-size="14.00">A</text>
<polyline fill="none" stroke="black" points="368.34,-280 394.09,-280"/>
<text text-anchor="middle" x="381.22" y="-262.7" font-family="Times,serif" font-size="14.00">B</text>
<polyline fill="none" stroke="black" points="394.09,-255.5 394.09,-304.5"/>
<text text-anchor="middle" x="411.09" y="-283.2" font-family="Times,serif" font-size="14.00">$2</text>
<text text-anchor="middle" x="411.09" y="-266.7" font-family="Times,serif" font-size="14.00">$or</text>
<polyline fill="none" stroke="black" points="428.09,-255.5 428.09,-304.5"/>
<text text-anchor="middle" x="440.97" y="-275.2" font-family="Times,serif" font-size="14.00">Y</text>
</g>
<!-- c24 -->
<g id="node24" class="node">
<title>c24</title>
<polygon fill="none" stroke="black" points="489.84,-211.5 489.84,-260.5 582.84,-260.5 582.84,-211.5 489.84,-211.5"/>
<text text-anchor="middle" x="502.72" y="-243.2" font-family="Times,serif" font-size="14.00">A</text>
<polyline fill="none" stroke="black" points="489.84,-236 515.59,-236"/>
<text text-anchor="middle" x="502.72" y="-218.7" font-family="Times,serif" font-size="14.00">B</text>
<polyline fill="none" stroke="black" points="515.59,-211.5 515.59,-260.5"/>
<text text-anchor="middle" x="536.34" y="-239.2" font-family="Times,serif" font-size="14.00">$3</text>
<text text-anchor="middle" x="536.34" y="-222.7" font-family="Times,serif" font-size="14.00">$sub</text>
<polyline fill="none" stroke="black" points="557.09,-211.5 557.09,-260.5"/>
<text text-anchor="middle" x="569.97" y="-231.2" font-family="Times,serif" font-size="14.00">Y</text>
</g>
<!-- c20&#45;&gt;c24 -->
<g id="edge40" class="edge">
<title>c20:e&#45;&gt;c24:w</title>
<path fill="none" stroke="black" stroke-width="3" d="M453.84,-280.25C470.57,-280.25 470.06,-260.72 479.25,-252.17"/>
<polygon fill="black" stroke="black" stroke-width="3" points="477.42,-256.58 485.58,-249.83 474.99,-250.02 477.42,-256.58"/>
</g>
<!-- x3&#45;&gt;c20 -->
<g id="edge4" class="edge">
<title>x3:e&#45;&gt;c20:w</title>
<path fill="none" stroke="black" stroke-width="3" d="M332.58,-265.38C341,-265.91 346.97,-266.85 355.41,-267.37"/>
<polygon fill="none" stroke="black" stroke-width="3" points="334.29,-265.43 328.17,-269.25 322.29,-265.08 328.41,-261.26 334.29,-265.43"/>
<polygon fill="none" stroke="black" stroke-width="3" points="353.64,-267.32 359.76,-263.5 365.64,-267.67 359.52,-271.49 353.64,-267.32"/>
</g>
<!-- c21 -->
<g id="node14" class="node">
<title>c21</title>
<polygon fill="none" stroke="black" points="2788.16,-68.5 2788.16,-117.5 2875.91,-117.5 2875.91,-68.5 2788.16,-68.5"/>
<text text-anchor="middle" x="2801.04" y="-100.2" font-family="Times,serif" font-size="14.00">A</text>
<polyline fill="none" stroke="black" points="2788.16,-93 2813.91,-93"/>
<text text-anchor="middle" x="2801.04" y="-75.7" font-family="Times,serif" font-size="14.00">B</text>
<polyline fill="none" stroke="black" points="2813.91,-68.5 2813.91,-117.5"/>
<text text-anchor="middle" x="2832.04" y="-96.2" font-family="Times,serif" font-size="14.00">$10</text>
<text text-anchor="middle" x="2832.04" y="-79.7" font-family="Times,serif" font-size="14.00">$or</text>
<polyline fill="none" stroke="black" points="2850.16,-68.5 2850.16,-117.5"/>
<text text-anchor="middle" x="2863.04" y="-88.2" font-family="Times,serif" font-size="14.00">Y</text>
</g>
<!-- c21&#45;&gt;n12 -->
<g id="edge31" class="edge">
<title>c21:e&#45;&gt;n12:w</title>
<path fill="none" stroke="black" stroke-width="3" d="M2875.91,-93.25C2887.36,-93.25 2892.58,-91.1 2900.43,-89.86"/>
<polygon fill="black" stroke="black" stroke-width="3" points="2897.67,-93.58 2907.38,-89.34 2897.15,-86.6 2897.67,-93.58"/>
</g>
<!-- x4 -->
<g id="node15" class="node">
<title>x4</title>
<path fill="none" stroke="black" d="M2679.54,-110C2679.54,-110 2718.04,-110 2718.04,-110 2724.04,-110 2730.04,-116 2730.04,-122 2730.04,-122 2730.04,-134 2730.04,-134 2730.04,-140 2724.04,-146 2718.04,-146 2718.04,-146 2679.54,-146 2679.54,-146 2673.54,-146 2667.54,-140 2667.54,-134 2667.54,-134 2667.54,-122 2667.54,-122 2667.54,-116 2673.54,-110 2679.54,-110"/>
<text text-anchor="middle" x="2698.79" y="-123.2" font-family="Times,serif" font-size="14.00">2:0 &#45; 2:0</text>
</g>
<!-- x4&#45;&gt;c21 -->
<g id="edge5" class="edge">
<title>x4:e&#45;&gt;c21:w</title>
<path fill="none" stroke="black" stroke-width="3" d="M2743.65,-126.06C2756.46,-121.76 2762.74,-111.48 2775.56,-107.18"/>
<polygon fill="none" stroke="black" stroke-width="3" points="2745.57,-125.76 2740.25,-130.63 2733.71,-127.59 2739.03,-122.72 2745.57,-125.76"/>
<polygon fill="none" stroke="black" stroke-width="3" points="2773.63,-107.48 2778.95,-102.62 2785.49,-105.66 2780.16,-110.53 2773.63,-107.48"/>
</g>
<!-- x5&#45;&gt;c21 -->
<g id="edge6" class="edge">
<title>x5:e&#45;&gt;c21:w</title>
<path fill="none" stroke="black" stroke-width="3" d="M2256.85,-86.94C2326.3,-86.34 2348.3,-81 2423.81,-81 2423.81,-81 2423.81,-81 2608.61,-81 2683.89,-81 2705.91,-80.78 2775.15,-80.75"/>
<polygon fill="none" stroke="black" stroke-width="3" points="2258.51,-86.94 2252.53,-90.96 2246.51,-86.99 2252.5,-82.96 2258.51,-86.94"/>
<polygon fill="none" stroke="black" stroke-width="3" points="2773.46,-80.75 2779.46,-76.75 2785.46,-80.75 2779.46,-84.75 2773.46,-80.75"/>
</g>
<!-- c22 -->
<g id="node17" class="node">
<title>c22</title>
<polygon fill="none" stroke="black" points="1849.13,-168.5 1849.13,-217.5 1934.63,-217.5 1934.63,-168.5 1849.13,-168.5"/>
<text text-anchor="middle" x="1862.01" y="-200.2" font-family="Times,serif" font-size="14.00">A</text>
<polyline fill="none" stroke="black" points="1849.13,-193 1874.88,-193"/>
<text text-anchor="middle" x="1862.01" y="-175.7" font-family="Times,serif" font-size="14.00">B</text>
<polyline fill="none" stroke="black" points="1874.88,-168.5 1874.88,-217.5"/>
<text text-anchor="middle" x="1891.88" y="-196.2" font-family="Times,serif" font-size="14.00">$8</text>
<text text-anchor="middle" x="1891.88" y="-179.7" font-family="Times,serif" font-size="14.00">$or</text>
<polyline fill="none" stroke="black" points="1908.88,-168.5 1908.88,-217.5"/>
<text text-anchor="middle" x="1921.76" y="-188.2" font-family="Times,serif" font-size="14.00">Y</text>
</g>
<!-- x8 -->
<g id="node20" class="node">
<title>x8</title>
<path fill="none" stroke="black" d="M2088.06,-175C2088.06,-175 2126.56,-175 2126.56,-175 2132.56,-175 2138.56,-181 2138.56,-187 2138.56,-187 2138.56,-199 2138.56,-199 2138.56,-205 2132.56,-211 2126.56,-211 2126.56,-211 2088.06,-211 2088.06,-211 2082.06,-211 2076.06,-205 2076.06,-199 2076.06,-199 2076.06,-187 2076.06,-187 2076.06,-181 2082.06,-175 2088.06,-175"/>
<text text-anchor="middle" x="2107.31" y="-188.2" font-family="Times,serif" font-size="14.00">2:0 &#45; 2:0</text>
</g>
<!-- c22&#45;&gt;x8 -->
<g id="edge9" class="edge">
<title>c22:e&#45;&gt;x8:w</title>
<path fill="none" stroke="black" stroke-width="3" d="M1948.37,-193.25C1996.04,-193.22 2014.63,-193.03 2062.28,-193"/>
<polygon fill="none" stroke="black" stroke-width="3" points="1950.34,-193.25 1944.34,-197.25 1938.34,-193.25 1944.33,-189.25 1950.34,-193.25"/>
<polygon fill="none" stroke="black" stroke-width="3" points="2060.36,-193 2066.36,-189 2072.36,-193 2066.36,-197 2060.36,-193"/>
</g>
<!-- x6 -->
<g id="node18" class="node">
<title>x6</title>
<path fill="none" stroke="black" d="M1663.95,-210C1663.95,-210 1702.45,-210 1702.45,-210 1708.45,-210 1714.45,-216 1714.45,-222 1714.45,-222 1714.45,-234 1714.45,-234 1714.45,-240 1708.45,-246 1702.45,-246 1702.45,-246 1663.95,-246 1663.95,-246 1657.95,-246 1651.95,-240 1651.95,-234 1651.95,-234 1651.95,-222 1651.95,-222 1651.95,-216 1657.95,-210 1663.95,-210"/>
<text text-anchor="middle" x="1683.2" y="-223.2" font-family="Times,serif" font-size="14.00">2:0 &#45; 2:0</text>
</g>
<!-- x6&#45;&gt;c22 -->
<g id="edge7" class="edge">
<title>x6:e&#45;&gt;c22:w</title>
<path fill="none" stroke="black" stroke-width="3" d="M1727.44,-227.62C1772.93,-224.91 1789.69,-208.32 1835.2,-205.62"/>
<polygon fill="none" stroke="black" stroke-width="3" points="1729.15,-227.57 1723.27,-231.75 1717.15,-227.92 1723.04,-223.75 1729.15,-227.57"/>
<polygon fill="none" stroke="black" stroke-width="3" points="1833.43,-205.67 1839.32,-201.5 1845.43,-205.33 1839.55,-209.5 1833.43,-205.67"/>
</g>
<!-- x7&#45;&gt;c22 -->
<g id="edge8" class="edge">
<title>x7:e&#45;&gt;c22:w</title>
<path fill="none" stroke="black" stroke-width="3" d="M1628.84,-181C1717.34,-180.98 1746.74,-180.77 1835.24,-180.75"/>
<polygon fill="none" stroke="black" stroke-width="3" points="1630.66,-181 1624.66,-185 1618.66,-181 1624.65,-177 1630.66,-181"/>
<polygon fill="none" stroke="black" stroke-width="3" points="1833.43,-180.75 1839.43,-176.75 1845.43,-180.75 1839.43,-184.75 1833.43,-180.75"/>
</g>
<!-- n1 -->
<g id="node42" class="node">
<title>n1</title>
<ellipse fill="black" stroke="black" cx="2212.56" cy="-194" rx="1.8" ry="1.8"/>
</g>
<!-- x8&#45;&gt;n1 -->
<g id="edge21" class="edge">
<title>x8:e&#45;&gt;n1:w</title>
<path fill="none" stroke="black" stroke-width="3" d="M2139.56,-193.25C2166.43,-193.25 2175.83,-193.81 2198.06,-193.96"/>
<polygon fill="black" stroke="black" stroke-width="3" points="2194.73,-197.45 2204.74,-193.99 2194.75,-190.45 2194.73,-197.45"/>
</g>
<!-- c23 -->
<g id="node21" class="node">
<title>c23</title>
<polygon fill="none" stroke="black" points="242.34,-302.5 242.34,-351.5 332.34,-351.5 332.34,-302.5 242.34,-302.5"/>
<text text-anchor="middle" x="255.22" y="-334.2" font-family="Times,serif" font-size="14.00">A</text>
<polyline fill="none" stroke="black" points="242.34,-327 268.09,-327"/>
<text text-anchor="middle" x="255.22" y="-309.7" font-family="Times,serif" font-size="14.00">B</text>
<polyline fill="none" stroke="black" points="268.09,-302.5 268.09,-351.5"/>
<text text-anchor="middle" x="287.34" y="-330.2" font-family="Times,serif" font-size="14.00">$1</text>
<text text-anchor="middle" x="287.34" y="-313.7" font-family="Times,serif" font-size="14.00">$shl</text>
<polyline fill="none" stroke="black" points="306.59,-302.5 306.59,-351.5"/>
<text text-anchor="middle" x="319.47" y="-322.2" font-family="Times,serif" font-size="14.00">Y</text>
</g>
<!-- c23&#45;&gt;c20 -->
<g id="edge41" class="edge">
<title>c23:e&#45;&gt;c20:w</title>
<path fill="none" stroke="black" stroke-width="3" d="M332.34,-327.25C349.95,-327.25 348.29,-305.46 357.77,-296.26"/>
<polygon fill="black" stroke="black" stroke-width="3" points="355.99,-300.68 364.1,-293.86 353.5,-294.14 355.99,-300.68"/>
</g>
<!-- x9&#45;&gt;c23 -->
<g id="edge10" class="edge">
<title>x9:e&#45;&gt;c23:w</title>
<path fill="none" stroke="black" stroke-width="3" d="M218.56,-354.02C222.82,-350.84 225.86,-346.4 230.12,-343.22"/>
<polygon fill="none" stroke="black" stroke-width="3" points="220.32,-353.45 215.86,-359.11 208.91,-357.16 213.38,-351.5 220.32,-353.45"/>
<polygon fill="none" stroke="black" stroke-width="3" points="228.36,-343.8 232.83,-338.14 239.77,-340.09 235.3,-345.74 228.36,-343.8"/>
</g>
<!-- x10&#45;&gt;c23 -->
<g id="edge11" class="edge">
<title>x10:e&#45;&gt;c23:w</title>
<path fill="none" stroke="black" stroke-width="3" d="M218.76,-305.73C222.63,-307.57 225.78,-310 229.61,-311.88"/>
<polygon fill="none" stroke="black" stroke-width="3" points="220.7,-306.15 213.99,-308.77 208.98,-303.58 215.7,-300.96 220.7,-306.15"/>
<polygon fill="none" stroke="black" stroke-width="3" points="228,-311.51 234.73,-308.93 239.7,-314.15 232.97,-316.73 228,-311.51"/>
</g>
<!-- c24&#45;&gt;c25 -->
<g id="edge42" class="edge">
<title>c24:e&#45;&gt;c25:w</title>
<path fill="none" stroke="black" stroke-width="3" d="M582.84,-236.25C602.09,-236.25 598.18,-210.35 608.39,-200.23"/>
<polygon fill="black" stroke="black" stroke-width="3" points="606.5,-204.7 614.6,-197.87 604.01,-198.15 606.5,-204.7"/>
</g>
<!-- x11&#45;&gt;c24 -->
<g id="edge12" class="edge">
<title>x11:e&#45;&gt;c24:w</title>
<path fill="none" stroke="black" stroke-width="3" d="M456.11,-218.85C463.82,-219.94 469.34,-221.81 477.04,-222.9"/>
<polygon fill="none" stroke="black" stroke-width="3" points="458.01,-218.97 451.76,-222.57 446.04,-218.18 452.29,-214.59 458.01,-218.97"/>
<polygon fill="none" stroke="black" stroke-width="3" points="475.17,-222.77 481.42,-219.18 487.14,-223.57 480.89,-227.16 475.17,-222.77"/>
</g>
<!-- c25&#45;&gt;c18 -->
<g id="edge43" class="edge">
<title>c25:e&#45;&gt;c18:w</title>
<path fill="none" stroke="black" stroke-width="3" d="M711.84,-184.25C725.27,-184.25 728.63,-173.78 736.87,-168.39"/>
<polygon fill="black" stroke="black" stroke-width="3" points="734.82,-172.61 743.48,-166.5 732.9,-165.88 734.82,-172.61"/>
</g>
<!-- c26 -->
<g id="node27" class="node">
<title>c26</title>
<polygon fill="none" stroke="black" points="2378.31,-157.5 2378.31,-206.5 2471.31,-206.5 2471.31,-157.5 2378.31,-157.5"/>
<text text-anchor="middle" x="2391.19" y="-189.2" font-family="Times,serif" font-size="14.00">A</text>
<polyline fill="none" stroke="black" points="2378.31,-182 2404.06,-182"/>
<text text-anchor="middle" x="2391.19" y="-164.7" font-family="Times,serif" font-size="14.00">B</text>
<polyline fill="none" stroke="black" points="2404.06,-157.5 2404.06,-206.5"/>
<text text-anchor="middle" x="2424.81" y="-185.2" font-family="Times,serif" font-size="14.00">$9</text>
<text text-anchor="middle" x="2424.81" y="-168.7" font-family="Times,serif" font-size="14.00">$sub</text>
<polyline fill="none" stroke="black" points="2445.56,-157.5 2445.56,-206.5"/>
<text text-anchor="middle" x="2458.44" y="-177.2" font-family="Times,serif" font-size="14.00">Y</text>
</g>
<!-- x14 -->
<g id="node30" class="node">
<title>x14</title>
<path fill="none" stroke="black" d="M2519.31,-164C2519.31,-164 2557.81,-164 2557.81,-164 2563.81,-164 2569.81,-170 2569.81,-176 2569.81,-176 2569.81,-188 2569.81,-188 2569.81,-194 2563.81,-200 2557.81,-200 2557.81,-200 2519.31,-200 2519.31,-200 2513.31,-200 2507.31,-194 2507.31,-188 2507.31,-188 2507.31,-176 2507.31,-176 2507.31,-170 2513.31,-164 2519.31,-164"/>
<text text-anchor="middle" x="2538.56" y="-177.2" font-family="Times,serif" font-size="14.00">2:0 &#45; 2:0</text>
</g>
<!-- c26&#45;&gt;x14 -->
<g id="edge15" class="edge">
<title>c26:e&#45;&gt;x14:w</title>
<path fill="none" stroke="black" stroke-width="3" d="M2484.03,-182.19C2487.63,-182.15 2490.76,-182.1 2494.34,-182.07"/>
<polygon fill="none" stroke="black" stroke-width="3" points="2486.01,-182.18 2480.03,-186.21 2474.01,-182.24 2479.99,-178.21 2486.01,-182.18"/>
<polygon fill="none" stroke="black" stroke-width="3" points="2492.61,-182.07 2498.59,-178.04 2504.61,-182.01 2498.63,-186.04 2492.61,-182.07"/>
</g>
<!-- x12 -->
<g id="node28" class="node">
<title>x12</title>
<path fill="none" stroke="black" d="M2291.81,-176C2291.81,-176 2330.31,-176 2330.31,-176 2336.31,-176 2342.31,-182 2342.31,-188 2342.31,-188 2342.31,-200 2342.31,-200 2342.31,-206 2336.31,-212 2330.31,-212 2330.31,-212 2291.81,-212 2291.81,-212 2285.81,-212 2279.81,-206 2279.81,-200 2279.81,-200 2279.81,-188 2279.81,-188 2279.81,-182 2285.81,-176 2291.81,-176"/>
<text text-anchor="middle" x="2311.06" y="-189.2" font-family="Times,serif" font-size="14.00">2:0 &#45; 2:0</text>
</g>
<!-- x12&#45;&gt;c26 -->
<g id="edge13" class="edge">
<title>x12:e&#45;&gt;c26:w</title>
<path fill="none" stroke="black" stroke-width="3" d="M2355.03,-194.06C2358.63,-194.1 2361.76,-194.15 2365.34,-194.18"/>
<polygon fill="none" stroke="black" stroke-width="3" points="2357.01,-194.07 2350.99,-198.04 2345.01,-194.01 2351.03,-190.04 2357.01,-194.07"/>
<polygon fill="none" stroke="black" stroke-width="3" points="2363.61,-194.18 2369.63,-190.21 2375.61,-194.24 2369.59,-198.21 2363.61,-194.18"/>
</g>
<!-- x13&#45;&gt;c26 -->
<g id="edge14" class="edge">
<title>x13:e&#45;&gt;c26:w</title>
<path fill="none" stroke="black" stroke-width="3" d="M2354.02,-142.12C2359.46,-148.31 2361.23,-158.65 2366.73,-164.78"/>
<polygon fill="none" stroke="black" stroke-width="3" points="2355.78,-142.89 2348.68,-144.15 2344.79,-138.08 2351.89,-136.82 2355.78,-142.89"/>
<polygon fill="none" stroke="black" stroke-width="3" points="2364.8,-163.95 2371.89,-162.64 2375.83,-168.68 2368.73,-169.99 2364.8,-163.95"/>
</g>
<!-- n2 -->
<g id="node43" class="node">
<title>n2</title>
<ellipse fill="black" stroke="black" cx="2607.61" cy="-182" rx="1.8" ry="1.8"/>
</g>
<!-- x14&#45;&gt;n2 -->
<g id="edge35" class="edge">
<title>x14:e&#45;&gt;n2:w</title>
<path fill="none" stroke="black" stroke-width="3" d="M2569.81,-182.25C2581.19,-182.25 2586.5,-182.12 2594.36,-182.05"/>
<polygon fill="black" stroke="black" stroke-width="3" points="2591.29,-185.56 2601.27,-182.02 2591.25,-178.56 2591.29,-185.56"/>
</g>
<!-- c27 -->
<g id="node31" class="node">
<title>c27</title>
<polygon fill="none" stroke="black" points="1217.9,-254.5 1217.9,-303.5 1310.15,-303.5 1310.15,-254.5 1217.9,-254.5"/>
<text text-anchor="middle" x="1230.77" y="-286.2" font-family="Times,serif" font-size="14.00">A</text>
<polyline fill="none" stroke="black" points="1217.9,-279 1243.65,-279"/>
<text text-anchor="middle" x="1230.77" y="-261.7" font-family="Times,serif" font-size="14.00">B</text>
<polyline fill="none" stroke="black" points="1243.65,-254.5 1243.65,-303.5"/>
<text text-anchor="middle" x="1264.02" y="-282.2" font-family="Times,serif" font-size="14.00">$7</text>
<text text-anchor="middle" x="1264.02" y="-265.7" font-family="Times,serif" font-size="14.00">$xor</text>
<polyline fill="none" stroke="black" points="1284.4,-254.5 1284.4,-303.5"/>
<text text-anchor="middle" x="1297.27" y="-274.2" font-family="Times,serif" font-size="14.00">Y</text>
</g>
<!-- x17 -->
<g id="node34" class="node">
<title>x17</title>
<path fill="none" stroke="black" d="M1460.2,-259C1460.2,-259 1498.7,-259 1498.7,-259 1504.7,-259 1510.7,-265 1510.7,-271 1510.7,-271 1510.7,-283 1510.7,-283 1510.7,-289 1504.7,-295 1498.7,-295 1498.7,-295 1460.2,-295 1460.2,-295 1454.2,-295 1448.2,-289 1448.2,-283 1448.2,-283 1448.2,-271 1448.2,-271 1448.2,-265 1454.2,-259 1460.2,-259"/>
<text text-anchor="middle" x="1479.45" y="-272.2" font-family="Times,serif" font-size="14.00">2:0 &#45; 2:0</text>
</g>
<!-- c27&#45;&gt;x17 -->
<g id="edge18" class="edge">
<title>c27:e&#45;&gt;x17:w</title>
<path fill="none" stroke="black" stroke-width="3" d="M1323.9,-279.21C1370,-278.95 1388.18,-277.31 1434.17,-277.04"/>
<polygon fill="none" stroke="black" stroke-width="3" points="1325.85,-279.21 1319.86,-283.23 1313.85,-279.24 1319.84,-275.23 1325.85,-279.21"/>
<polygon fill="none" stroke="black" stroke-width="3" points="1432.5,-277.04 1438.49,-273.02 1444.5,-277.01 1438.51,-281.02 1432.5,-277.04"/>
</g>
<!-- x15&#45;&gt;c27 -->
<g id="edge16" class="edge">
<title>x15:e&#45;&gt;c27:w</title>
<path fill="none" stroke="black" stroke-width="3" d="M1099.42,-286.09C1142.97,-286.73 1160.42,-290.51 1203.9,-291.16"/>
<polygon fill="none" stroke="black" stroke-width="3" points="1101.3,-286.1 1095.27,-290.06 1089.3,-286.02 1095.32,-282.06 1101.3,-286.1"/>
<polygon fill="none" stroke="black" stroke-width="3" points="1202.19,-291.14 1208.22,-287.19 1214.19,-291.23 1208.16,-295.19 1202.19,-291.14"/>
</g>
<!-- x16&#45;&gt;c27 -->
<g id="edge17" class="edge">
<title>x16:e&#45;&gt;c27:w</title>
<path fill="none" stroke="black" stroke-width="3" d="M1099.23,-229.82C1106.7,-233.73 1110.89,-240.79 1122.59,-245 1158.64,-257.96 1171.16,-265.09 1203.86,-266.49"/>
<polygon fill="none" stroke="black" stroke-width="3" points="1100.94,-230.21 1094.21,-232.8 1089.23,-227.59 1095.96,-224.99 1100.94,-230.21"/>
<polygon fill="none" stroke="black" stroke-width="3" points="1202.2,-266.46 1208.27,-262.58 1214.19,-266.7 1208.11,-270.58 1202.2,-266.46"/>
</g>
<!-- n8 -->
<g id="node44" class="node">
<title>n8</title>
<ellipse fill="black" stroke="black" cx="1584.7" cy="-228" rx="1.8" ry="1.8"/>
</g>
<!-- x17&#45;&gt;n8 -->
<g id="edge44" class="edge">
<title>x17:e&#45;&gt;n8:w</title>
<path fill="none" stroke="black" stroke-width="3" d="M1511.7,-277.25C1545.34,-277.25 1544.31,-238.53 1570.1,-229.75"/>
<polygon fill="black" stroke="black" stroke-width="3" points="1567.59,-233.68 1576.94,-228.69 1566.52,-226.77 1567.59,-233.68"/>
</g>
<!-- v18 -->
<g id="node35" class="node">
<title>v18</title>
<ellipse fill="none" stroke="black" cx="1264.02" cy="-218" rx="141.43" ry="18"/>
<text text-anchor="middle" x="1264.02" y="-212.95" font-family="Times,serif" font-size="14.00">26&#39;00000000000000000000000000</text>
</g>
<!-- x19 -->
<g id="node36" class="node">
<title>x19</title>
<path fill="none" stroke="black" d="M1453.45,-203C1453.45,-203 1505.45,-203 1505.45,-203 1511.45,-203 1517.45,-209 1517.45,-215 1517.45,-215 1517.45,-227 1517.45,-227 1517.45,-233 1511.45,-239 1505.45,-239 1505.45,-239 1453.45,-239 1453.45,-239 1447.45,-239 1441.45,-233 1441.45,-227 1441.45,-227 1441.45,-215 1441.45,-215 1441.45,-209 1447.45,-203 1453.45,-203"/>
<text text-anchor="middle" x="1479.45" y="-216.2" font-family="Times,serif" font-size="14.00">25:0 &#45; 31:6</text>
</g>
<!-- v18&#45;&gt;x19 -->
<g id="edge53" class="edge">
<title>v18:e&#45;&gt;x19:w</title>
<path fill="none" stroke="black" stroke-width="3" d="M1405.45,-218C1416.87,-218 1422.13,-219.52 1429.99,-220.39"/>
<polygon fill="black" stroke="black" stroke-width="3" points="1426.75,-223.73 1436.92,-220.76 1427.12,-216.74 1426.75,-223.73"/>
</g>
<!-- x19&#45;&gt;n8 -->
<g id="edge45" class="edge">
<title>x19:e&#45;&gt;n8:w</title>
<path fill="none" stroke="black" stroke-width="3" d="M1517.45,-221.25C1541.8,-221.25 1550.34,-226.14 1569.99,-227.6"/>
<polygon fill="black" stroke="black" stroke-width="3" points="1566.77,-230.99 1576.89,-227.84 1567.01,-223.99 1566.77,-230.99"/>
</g>
<!-- x20&#45;&gt;n10 -->
<g id="edge23" class="edge">
<title>x20:e&#45;&gt;n10:w</title>
<path fill="none" stroke="black" stroke-width="3" d="M3401.66,-76C3413.04,-76 3418.35,-76 3426.22,-76"/>
<polygon fill="black" stroke="black" stroke-width="3" points="3423.12,-79.5 3433.12,-76 3423.12,-72.5 3423.12,-79.5"/>
</g>
<!-- x21 -->
<g id="node38" class="node">
<title>x21</title>
<path fill="none" stroke="black" d="M2657.41,-165C2657.41,-165 2740.16,-165 2740.16,-165 2746.16,-165 2752.16,-171 2752.16,-177 2752.16,-177 2752.16,-189 2752.16,-189 2752.16,-195 2746.16,-201 2740.16,-201 2740.16,-201 2657.41,-201 2657.41,-201 2651.41,-201 2645.41,-195 2645.41,-189 2645.41,-189 2645.41,-177 2645.41,-177 2645.41,-171 2651.41,-165 2657.41,-165"/>
<text text-anchor="middle" x="2698.79" y="-178.2" font-family="Times,serif" font-size="14.00">25x 31:31 &#45; 24:0</text>
</g>
<!-- x22 -->
<g id="node39" class="node">
<title>x22</title>
<path fill="none" stroke="black" d="M2806.04,-188C2806.04,-188 2858.04,-188 2858.04,-188 2864.04,-188 2870.04,-194 2870.04,-200 2870.04,-200 2870.04,-212 2870.04,-212 2870.04,-218 2864.04,-224 2858.04,-224 2858.04,-224 2806.04,-224 2806.04,-224 2800.04,-224 2794.04,-218 2794.04,-212 2794.04,-212 2794.04,-200 2794.04,-200 2794.04,-194 2800.04,-188 2806.04,-188"/>
<text text-anchor="middle" x="2832.04" y="-201.2" font-family="Times,serif" font-size="14.00">24:0 &#45; 30:6</text>
</g>
<!-- x21&#45;&gt;x22 -->
<g id="edge19" class="edge">
<title>x21:e&#45;&gt;x22:w</title>
<path fill="none" stroke="black" stroke-width="3" d="M2764.41,-186.59C2770.82,-190.94 2774.48,-198.21 2780.94,-202.51"/>
<polygon fill="none" stroke="black" stroke-width="3" points="2766.27,-187.14 2759.39,-189.29 2754.76,-183.76 2761.64,-181.61 2766.27,-187.14"/>
<polygon fill="none" stroke="black" stroke-width="3" points="2778.91,-201.92 2785.78,-199.74 2790.44,-205.25 2783.56,-207.43 2778.91,-201.92"/>
</g>
<!-- x22&#45;&gt;n2 -->
<g id="edge36" class="edge">
<title>x22:e&#45;&gt;n2:w</title>
<path fill="none" stroke="black" stroke-width="3" d="M2871.04,-206.25C2879.16,-206.25 2875.93,-218.92 2870.04,-224.5 2845.51,-247.72 2827.78,-226.03 2794.04,-224.5 2727.78,-221.5 2707.86,-233.33 2645.41,-211 2634.4,-207.06 2617.53,-199.3 2607.17,-192.8"/>
<polygon fill="black" stroke="black" stroke-width="3" points="2611.41,-195.17 2605.49,-186.39 2604.64,-196.95 2611.41,-195.17"/>
</g>
<!-- v23 -->
<g id="node40" class="node">
<title>v23</title>
<ellipse fill="none" stroke="black" cx="1891.88" cy="-254" rx="141.43" ry="18"/>
<text text-anchor="middle" x="1891.88" y="-248.95" font-family="Times,serif" font-size="14.00">26&#39;00000000000000000000000000</text>
</g>
<!-- x24 -->
<g id="node41" class="node">
<title>x24</title>
<path fill="none" stroke="black" d="M2081.31,-233C2081.31,-233 2133.31,-233 2133.31,-233 2139.31,-233 2145.31,-239 2145.31,-245 2145.31,-245 2145.31,-257 2145.31,-257 2145.31,-263 2139.31,-269 2133.31,-269 2133.31,-269 2081.31,-269 2081.31,-269 2075.31,-269 2069.31,-263 2069.31,-257 2069.31,-257 2069.31,-245 2069.31,-245 2069.31,-239 2075.31,-233 2081.31,-233"/>
<text text-anchor="middle" x="2107.31" y="-246.2" font-family="Times,serif" font-size="14.00">25:0 &#45; 31:6</text>
</g>
<!-- v23&#45;&gt;x24 -->
<g id="edge54" class="edge">
<title>v23:e&#45;&gt;x24:w</title>
<path fill="none" stroke="black" stroke-width="3" d="M2033.31,-254C2044.72,-254 2049.99,-252.48 2057.85,-251.61"/>
<polygon fill="black" stroke="black" stroke-width="3" points="2054.98,-255.26 2064.78,-251.24 2054.61,-248.27 2054.98,-255.26"/>
</g>
<!-- x24&#45;&gt;n1 -->
<g id="edge20" class="edge">
<title>x24:e&#45;&gt;n1:w</title>
<path fill="none" stroke="black" stroke-width="3" d="M2145.31,-251.25C2179.14,-251.25 2173.27,-206.24 2198.11,-196.04"/>
<polygon fill="black" stroke="black" stroke-width="3" points="2195.61,-200.05 2204.82,-194.81 2194.35,-193.17 2195.61,-200.05"/>
</g>
<!-- n1&#45;&gt;x12 -->
<g id="edge22" class="edge">
<title>n1:e&#45;&gt;x12:w</title>
<path fill="none" stroke="black" stroke-width="3" d="M2215.84,-194C2240.05,-194 2248.8,-194.18 2268.42,-194.24"/>
<polygon fill="black" stroke="black" stroke-width="3" points="2265.27,-197.73 2275.27,-194.24 2265.27,-190.73 2265.27,-197.73"/>
</g>
<!-- n2&#45;&gt;x4 -->
<g id="edge38" class="edge">
<title>n2:e&#45;&gt;x4:w</title>
<path fill="none" stroke="black" stroke-width="3" d="M2609.41,-182C2639.91,-182 2634.08,-140.85 2655.5,-130.56"/>
<polygon fill="black" stroke="black" stroke-width="3" points="2653.02,-134.65 2662.09,-129.18 2651.59,-127.8 2653.02,-134.65"/>
</g>
<!-- n2&#45;&gt;x21 -->
<g id="edge37" class="edge">
<title>n2:e&#45;&gt;x21:w</title>
<path fill="none" stroke="black" stroke-width="3" d="M2609.41,-182C2620.79,-182 2626.09,-182.63 2633.96,-183"/>
<polygon fill="black" stroke="black" stroke-width="3" points="2630.8,-186.43 2640.87,-183.15 2630.95,-179.43 2630.8,-186.43"/>
</g>
<!-- n8&#45;&gt;x6 -->
<g id="edge46" class="edge">
<title>n8:e&#45;&gt;x6:w</title>
<path fill="none" stroke="black" stroke-width="3" d="M1587.98,-228C1612.19,-228 1620.94,-228.18 1640.56,-228.24"/>
<polygon fill="black" stroke="black" stroke-width="3" points="1637.41,-231.73 1647.41,-228.24 1637.42,-224.73 1637.41,-231.73"/>
</g>
</g>
</svg>
