<?xml version="1.0" encoding="UTF-8" standalone="no"?>
<!DOCTYPE svg PUBLIC "-//W3C//DTD SVG 1.1//EN"
 "http://www.w3.org/Graphics/SVG/1.1/DTD/svg11.dtd">
<!-- Generated by graphviz version 12.2.1 (20241206.2353)
 -->
<!-- Title: top Pages: 1 -->
<svg width="3354pt" height="575pt"
 viewBox="0.00 0.00 3353.88 574.84" xmlns="http://www.w3.org/2000/svg" xmlns:xlink="http://www.w3.org/1999/xlink">
<g id="graph0" class="graph" transform="scale(1 1) rotate(0) translate(4 570.84)">
<title>top</title>
<polygon fill="white" stroke="none" points="-4,4 -4,-570.84 3349.88,-570.84 3349.88,4 -4,4"/>
<text text-anchor="middle" x="1672.94" y="-7.2" font-family="Times,serif" font-size="14.00">top</text>
<!-- n6 -->
<g id="node1" class="node">
<title>n6</title>
<polygon fill="none" stroke="black" points="107.84,-401.39 107.84,-416.3 76.26,-426.84 31.59,-426.84 0,-416.3 0,-401.39 31.59,-390.84 76.26,-390.84 107.84,-401.39"/>
<text text-anchor="middle" x="53.92" y="-403.79" font-family="Times,serif" font-size="14.00">input_data</text>
</g>
<!-- c15 -->
<g id="node7" class="node">
<title>c15</title>
<polygon fill="none" stroke="black" points="520.84,-370.34 520.84,-419.34 614.59,-419.34 614.59,-370.34 520.84,-370.34"/>
<text text-anchor="middle" x="533.72" y="-402.04" font-family="Times,serif" font-size="14.00">A</text>
<polyline fill="none" stroke="black" points="520.84,-394.84 546.59,-394.84"/>
<text text-anchor="middle" x="533.72" y="-377.54" font-family="Times,serif" font-size="14.00">B</text>
<polyline fill="none" stroke="black" points="546.59,-370.34 546.59,-419.34"/>
<text text-anchor="middle" x="567.72" y="-398.04" font-family="Times,serif" font-size="14.00">$65</text>
<text text-anchor="middle" x="567.72" y="-381.54" font-family="Times,serif" font-size="14.00">$and</text>
<polyline fill="none" stroke="black" points="588.84,-370.34 588.84,-419.34"/>
<text text-anchor="middle" x="601.72" y="-390.04" font-family="Times,serif" font-size="14.00">Y</text>
</g>
<!-- n6&#45;&gt;c15 -->
<g id="edge54" class="edge">
<title>n6:e&#45;&gt;c15:w</title>
<path fill="none" stroke="black" stroke-width="3" d="M107.84,-408.84C123.87,-408.84 127.82,-410.4 143.84,-410.84 186.49,-412.03 197.18,-411.13 239.84,-410.84 360.84,-410.03 393.9,-407.27 509.4,-407.1"/>
<polygon fill="black" stroke="black" stroke-width="3" points="506.3,-410.6 516.3,-407.09 506.3,-403.6 506.3,-410.6"/>
</g>
<!-- c19 -->
<g id="node21" class="node">
<title>c19</title>
<polygon fill="none" stroke="black" points="143.84,-352.34 143.84,-401.34 239.84,-401.34 239.84,-352.34 143.84,-352.34"/>
<text text-anchor="middle" x="156.72" y="-384.04" font-family="Times,serif" font-size="14.00">A</text>
<polyline fill="none" stroke="black" points="143.84,-376.84 169.59,-376.84"/>
<text text-anchor="middle" x="156.72" y="-359.54" font-family="Times,serif" font-size="14.00">B</text>
<polyline fill="none" stroke="black" points="169.59,-352.34 169.59,-401.34"/>
<text text-anchor="middle" x="191.84" y="-380.04" font-family="Times,serif" font-size="14.00">$1</text>
<text text-anchor="middle" x="191.84" y="-363.54" font-family="Times,serif" font-size="14.00">$mul</text>
<polyline fill="none" stroke="black" points="214.09,-352.34 214.09,-401.34"/>
<text text-anchor="middle" x="226.97" y="-372.04" font-family="Times,serif" font-size="14.00">Y</text>
</g>
<!-- n6&#45;&gt;c19 -->
<g id="edge55" class="edge">
<title>n6:e&#45;&gt;c19:w</title>
<path fill="none" stroke="black" stroke-width="3" d="M107.84,-408.84C121.39,-408.84 124.6,-397.96 132.82,-392.35"/>
<polygon fill="black" stroke="black" stroke-width="3" points="130.89,-396.57 139.49,-390.38 128.9,-389.86 130.89,-396.57"/>
</g>
<!-- n6&#45;&gt;c19 -->
<g id="edge56" class="edge">
<title>n6:e&#45;&gt;c19:w</title>
<path fill="none" stroke="black" stroke-width="3" d="M107.84,-408.84C128.44,-408.84 122.59,-379.63 133.28,-368.68"/>
<polygon fill="black" stroke="black" stroke-width="3" points="131.54,-373.1 139.61,-366.23 129.02,-366.57 131.54,-373.1"/>
</g>
<!-- x10 -->
<g id="node23" class="node">
<title>x10</title>
<path fill="none" stroke="black" d="M761.09,-517.34C761.09,-517.34 799.59,-517.34 799.59,-517.34 805.59,-517.34 811.59,-523.34 811.59,-529.34 811.59,-529.34 811.59,-554.34 811.59,-554.34 811.59,-560.34 805.59,-566.34 799.59,-566.34 799.59,-566.34 761.09,-566.34 761.09,-566.34 755.09,-566.34 749.09,-560.34 749.09,-554.34 749.09,-554.34 749.09,-529.34 749.09,-529.34 749.09,-523.34 755.09,-517.34 761.09,-517.34"/>
<text text-anchor="middle" x="780.34" y="-549.04" font-family="Times,serif" font-size="14.00">0 &#45;&gt; 5:3</text>
<polyline fill="none" stroke="black" points="749.09,-541.84 811.59,-541.84"/>
<text text-anchor="middle" x="780.34" y="-524.54" font-family="Times,serif" font-size="14.00">2:0 &#45; 2:0</text>
</g>
<!-- n6&#45;&gt;x10 -->
<g id="edge58" class="edge">
<title>n6:e&#45;&gt;x10:w</title>
<path fill="none" stroke="black" stroke-width="3" d="M107.84,-408.84C139.7,-408.84 119.27,-450.55 143.84,-470.84 211.45,-526.67 242.42,-535.84 330.09,-535.84 330.09,-535.84 330.09,-535.84 568.72,-535.84 645.01,-535.84 666.79,-530.19 737.76,-529.63"/>
<polygon fill="black" stroke="black" stroke-width="3" points="734.56,-533.15 744.55,-529.61 734.54,-526.15 734.56,-533.15"/>
</g>
<!-- c23 -->
<g id="node28" class="node">
<title>c23</title>
<polygon fill="none" stroke="black" points="2198.59,-119.34 2198.59,-168.34 2288.59,-168.34 2288.59,-119.34 2198.59,-119.34"/>
<text text-anchor="middle" x="2211.47" y="-151.04" font-family="Times,serif" font-size="14.00">A</text>
<polyline fill="none" stroke="black" points="2198.59,-143.84 2224.34,-143.84"/>
<text text-anchor="middle" x="2211.47" y="-126.54" font-family="Times,serif" font-size="14.00">B</text>
<polyline fill="none" stroke="black" points="2224.34,-119.34 2224.34,-168.34"/>
<text text-anchor="middle" x="2243.59" y="-147.04" font-family="Times,serif" font-size="14.00">$10</text>
<text text-anchor="middle" x="2243.59" y="-130.54" font-family="Times,serif" font-size="14.00">$shl</text>
<polyline fill="none" stroke="black" points="2262.84,-119.34 2262.84,-168.34"/>
<text text-anchor="middle" x="2275.72" y="-139.04" font-family="Times,serif" font-size="14.00">Y</text>
</g>
<!-- n6&#45;&gt;c23 -->
<g id="edge57" class="edge">
<title>n6:e&#45;&gt;c23:w</title>
<path fill="none" stroke="black" stroke-width="3" d="M107.84,-408.84C141.25,-408.84 126.57,-371.45 143.84,-342.84 221.09,-214.89 180.63,-62.84 330.09,-62.84 330.09,-62.84 330.09,-62.84 1967.59,-62.84 2070.84,-62.84 2090.15,-126.71 2187.33,-131.33"/>
<polygon fill="black" stroke="black" stroke-width="3" points="2183.98,-134.75 2194.05,-131.49 2184.14,-127.75 2183.98,-134.75"/>
</g>
<!-- x14 -->
<g id="node31" class="node">
<title>x14</title>
<path fill="none" stroke="black" d="M311.84,-458.34C311.84,-458.34 350.34,-458.34 350.34,-458.34 356.34,-458.34 362.34,-464.34 362.34,-470.34 362.34,-470.34 362.34,-495.34 362.34,-495.34 362.34,-501.34 356.34,-507.34 350.34,-507.34 350.34,-507.34 311.84,-507.34 311.84,-507.34 305.84,-507.34 299.84,-501.34 299.84,-495.34 299.84,-495.34 299.84,-470.34 299.84,-470.34 299.84,-464.34 305.84,-458.34 311.84,-458.34"/>
<text text-anchor="middle" x="331.09" y="-490.04" font-family="Times,serif" font-size="14.00">0 &#45;&gt; 5:3</text>
<polyline fill="none" stroke="black" points="299.84,-482.84 362.34,-482.84"/>
<text text-anchor="middle" x="331.09" y="-465.54" font-family="Times,serif" font-size="14.00">2:0 &#45; 2:0</text>
</g>
<!-- n6&#45;&gt;x14 -->
<g id="edge59" class="edge">
<title>n6:e&#45;&gt;x14:w</title>
<path fill="none" stroke="black" stroke-width="3" d="M107.84,-408.84C130.16,-408.84 123.96,-433.71 143.84,-443.84 202.6,-473.77 226.22,-471.04 287.4,-470.63"/>
<polygon fill="black" stroke="black" stroke-width="3" points="284.31,-474.14 294.3,-470.61 284.29,-467.14 284.31,-474.14"/>
</g>
<!-- n7 -->
<g id="node2" class="node">
<title>n7</title>
<polygon fill="none" stroke="black" points="2978.41,-480.39 2978.41,-495.3 2943.9,-505.84 2895.1,-505.84 2860.6,-495.3 2860.6,-480.39 2895.1,-469.84 2943.9,-469.84 2978.41,-480.39"/>
<text text-anchor="middle" x="2919.5" y="-482.79" font-family="Times,serif" font-size="14.00">output_data</text>
</g>
<!-- n8 -->
<g id="node3" class="node">
<title>n8</title>
<polygon fill="none" stroke="black" points="331.09,-286.84 275.84,-268.84 331.09,-250.84 386.34,-268.84 331.09,-286.84"/>
<text text-anchor="middle" x="331.09" y="-263.79" font-family="Times,serif" font-size="14.00">temp_1</text>
</g>
<!-- x0 -->
<g id="node8" class="node">
<title>x0</title>
<path fill="none" stroke="black" d="M434.34,-321.84C434.34,-321.84 472.84,-321.84 472.84,-321.84 478.84,-321.84 484.84,-327.84 484.84,-333.84 484.84,-333.84 484.84,-345.84 484.84,-345.84 484.84,-351.84 478.84,-357.84 472.84,-357.84 472.84,-357.84 434.34,-357.84 434.34,-357.84 428.34,-357.84 422.34,-351.84 422.34,-345.84 422.34,-345.84 422.34,-333.84 422.34,-333.84 422.34,-327.84 428.34,-321.84 434.34,-321.84"/>
<text text-anchor="middle" x="453.59" y="-335.04" font-family="Times,serif" font-size="14.00">2:0 &#45; 2:0</text>
</g>
<!-- n8&#45;&gt;x0 -->
<g id="edge62" class="edge">
<title>n8:e&#45;&gt;x0:w</title>
<path fill="none" stroke="black" stroke-width="3" d="M386.34,-268.84C417.11,-268.84 394.91,-322.42 411.6,-336.65"/>
<polygon fill="black" stroke="black" stroke-width="3" points="407.43,-338.99 418.02,-338.71 409.56,-332.33 407.43,-338.99"/>
</g>
<!-- x3 -->
<g id="node12" class="node">
<title>x3</title>
<path fill="none" stroke="black" d="M662.59,-272.84C662.59,-272.84 701.09,-272.84 701.09,-272.84 707.09,-272.84 713.09,-278.84 713.09,-284.84 713.09,-284.84 713.09,-296.84 713.09,-296.84 713.09,-302.84 707.09,-308.84 701.09,-308.84 701.09,-308.84 662.59,-308.84 662.59,-308.84 656.59,-308.84 650.59,-302.84 650.59,-296.84 650.59,-296.84 650.59,-284.84 650.59,-284.84 650.59,-278.84 656.59,-272.84 662.59,-272.84"/>
<text text-anchor="middle" x="681.84" y="-286.04" font-family="Times,serif" font-size="14.00">2:0 &#45; 2:0</text>
</g>
<!-- n8&#45;&gt;x3 -->
<g id="edge67" class="edge">
<title>n8:e&#45;&gt;x3:w</title>
<path fill="none" stroke="black" stroke-width="3" d="M386.34,-268.84C500.29,-268.84 530.74,-289.64 639.14,-291.02"/>
<polygon fill="black" stroke="black" stroke-width="3" points="636.03,-294.5 646.05,-291.06 636.07,-287.5 636.03,-294.5"/>
</g>
<!-- x6 -->
<g id="node16" class="node">
<title>x6</title>
<path fill="none" stroke="black" d="M859.59,-225.84C859.59,-225.84 898.09,-225.84 898.09,-225.84 904.09,-225.84 910.09,-231.84 910.09,-237.84 910.09,-237.84 910.09,-249.84 910.09,-249.84 910.09,-255.84 904.09,-261.84 898.09,-261.84 898.09,-261.84 859.59,-261.84 859.59,-261.84 853.59,-261.84 847.59,-255.84 847.59,-249.84 847.59,-249.84 847.59,-237.84 847.59,-237.84 847.59,-231.84 853.59,-225.84 859.59,-225.84"/>
<text text-anchor="middle" x="878.84" y="-239.04" font-family="Times,serif" font-size="14.00">2:0 &#45; 2:0</text>
</g>
<!-- n8&#45;&gt;x6 -->
<g id="edge68" class="edge">
<title>n8:e&#45;&gt;x6:w</title>
<path fill="none" stroke="black" stroke-width="3" d="M386.34,-268.84C402.4,-268.84 406.32,-266.92 422.34,-265.84 607.29,-253.41 656.35,-244.46 836.13,-244.1"/>
<polygon fill="black" stroke="black" stroke-width="3" points="833.05,-247.61 843.05,-244.1 833.05,-240.61 833.05,-247.61"/>
</g>
<!-- x11 -->
<g id="node25" class="node">
<title>x11</title>
<path fill="none" stroke="black" d="M1830.59,-408.34C1830.59,-408.34 1869.09,-408.34 1869.09,-408.34 1875.09,-408.34 1881.09,-414.34 1881.09,-420.34 1881.09,-420.34 1881.09,-445.34 1881.09,-445.34 1881.09,-451.34 1875.09,-457.34 1869.09,-457.34 1869.09,-457.34 1830.59,-457.34 1830.59,-457.34 1824.59,-457.34 1818.59,-451.34 1818.59,-445.34 1818.59,-445.34 1818.59,-420.34 1818.59,-420.34 1818.59,-414.34 1824.59,-408.34 1830.59,-408.34"/>
<text text-anchor="middle" x="1849.84" y="-440.04" font-family="Times,serif" font-size="14.00">5:3 &#45; 5:3</text>
<polyline fill="none" stroke="black" points="1818.59,-432.84 1881.09,-432.84"/>
<text text-anchor="middle" x="1849.84" y="-415.54" font-family="Times,serif" font-size="14.00">2:0 &#45; 2:0</text>
</g>
<!-- n8&#45;&gt;x11 -->
<g id="edge63" class="edge">
<title>n8:e&#45;&gt;x11:w</title>
<path fill="none" stroke="black" stroke-width="3" d="M386.34,-268.84C433.16,-268.84 392.81,-331.51 422.34,-367.84 498.2,-461.16 560.58,-447.84 680.84,-447.84 680.84,-447.84 680.84,-447.84 1605.84,-447.84 1696.53,-447.84 1721.97,-445.31 1807.31,-445.1"/>
<polygon fill="black" stroke="black" stroke-width="3" points="1804.06,-448.61 1814.05,-445.1 1804.05,-441.61 1804.06,-448.61"/>
</g>
<!-- x12 -->
<g id="node27" class="node">
<title>x12</title>
<path fill="none" stroke="black" d="M434.34,-129.84C434.34,-129.84 472.84,-129.84 472.84,-129.84 478.84,-129.84 484.84,-135.84 484.84,-141.84 484.84,-141.84 484.84,-153.84 484.84,-153.84 484.84,-159.84 478.84,-165.84 472.84,-165.84 472.84,-165.84 434.34,-165.84 434.34,-165.84 428.34,-165.84 422.34,-159.84 422.34,-153.84 422.34,-153.84 422.34,-141.84 422.34,-141.84 422.34,-135.84 428.34,-129.84 434.34,-129.84"/>
<text text-anchor="middle" x="453.59" y="-143.04" font-family="Times,serif" font-size="14.00">5:4 &#45; 1:0</text>
</g>
<!-- n8&#45;&gt;x12 -->
<g id="edge64" class="edge">
<title>n8:e&#45;&gt;x12:w</title>
<path fill="none" stroke="black" stroke-width="3" d="M386.34,-268.84C437.75,-268.84 377.92,-167.09 411.08,-150.4"/>
<polygon fill="black" stroke="black" stroke-width="3" points="408.8,-154.44 417.89,-149 407.39,-147.58 408.8,-154.44"/>
</g>
<!-- x15 -->
<g id="node32" class="node">
<title>x15</title>
<path fill="none" stroke="black" d="M1830.59,-167.34C1830.59,-167.34 1869.09,-167.34 1869.09,-167.34 1875.09,-167.34 1881.09,-173.34 1881.09,-179.34 1881.09,-179.34 1881.09,-204.34 1881.09,-204.34 1881.09,-210.34 1875.09,-216.34 1869.09,-216.34 1869.09,-216.34 1830.59,-216.34 1830.59,-216.34 1824.59,-216.34 1818.59,-210.34 1818.59,-204.34 1818.59,-204.34 1818.59,-179.34 1818.59,-179.34 1818.59,-173.34 1824.59,-167.34 1830.59,-167.34"/>
<text text-anchor="middle" x="1849.84" y="-199.04" font-family="Times,serif" font-size="14.00">5:3 &#45; 5:3</text>
<polyline fill="none" stroke="black" points="1818.59,-191.84 1881.09,-191.84"/>
<text text-anchor="middle" x="1849.84" y="-174.54" font-family="Times,serif" font-size="14.00">2:0 &#45; 2:0</text>
</g>
<!-- n8&#45;&gt;x15 -->
<g id="edge65" class="edge">
<title>n8:e&#45;&gt;x15:w</title>
<path fill="none" stroke="black" stroke-width="3" d="M386.34,-268.84C454.04,-268.84 372.12,-166.23 422.34,-120.84 470.4,-77.41 501.94,-100.84 566.72,-100.84 566.72,-100.84 566.72,-100.84 1494.72,-100.84 1641.96,-100.84 1666.32,-198.91 1807.33,-203.9"/>
<polygon fill="black" stroke="black" stroke-width="3" points="1803.99,-207.34 1814.05,-204.01 1804.12,-200.34 1803.99,-207.34"/>
</g>
<!-- x18 -->
<g id="node35" class="node">
<title>x18</title>
<path fill="none" stroke="black" d="M434.34,-184.84C434.34,-184.84 472.84,-184.84 472.84,-184.84 478.84,-184.84 484.84,-190.84 484.84,-196.84 484.84,-196.84 484.84,-208.84 484.84,-208.84 484.84,-214.84 478.84,-220.84 472.84,-220.84 472.84,-220.84 434.34,-220.84 434.34,-220.84 428.34,-220.84 422.34,-214.84 422.34,-208.84 422.34,-208.84 422.34,-196.84 422.34,-196.84 422.34,-190.84 428.34,-184.84 434.34,-184.84"/>
<text text-anchor="middle" x="453.59" y="-198.04" font-family="Times,serif" font-size="14.00">5:3 &#45; 2:0</text>
</g>
<!-- n8&#45;&gt;x18 -->
<g id="edge66" class="edge">
<title>n8:e&#45;&gt;x18:w</title>
<path fill="none" stroke="black" stroke-width="3" d="M386.34,-268.84C414.97,-268.84 396.38,-220.28 411.72,-206.63"/>
<polygon fill="black" stroke="black" stroke-width="3" points="409.65,-211.01 418.03,-204.53 407.44,-204.36 409.65,-211.01"/>
</g>
<!-- n9 -->
<g id="node4" class="node">
<title>n9</title>
<polygon fill="none" stroke="black" points="1727.34,-255.84 1672.09,-237.84 1727.34,-219.84 1782.59,-237.84 1727.34,-255.84"/>
<text text-anchor="middle" x="1727.34" y="-232.79" font-family="Times,serif" font-size="14.00">temp_2</text>
</g>
<!-- n9&#45;&gt;x11 -->
<g id="edge71" class="edge">
<title>n9:e&#45;&gt;x11:w</title>
<path fill="none" stroke="black" stroke-width="3" d="M1782.59,-237.84C1861.01,-237.84 1748.88,-401.83 1807.21,-419.12"/>
<polygon fill="black" stroke="black" stroke-width="3" points="1803.72,-422.2 1814.09,-420.01 1804.62,-415.26 1803.72,-422.2"/>
</g>
<!-- n9&#45;&gt;x15 -->
<g id="edge72" class="edge">
<title>n9:e&#45;&gt;x15:w</title>
<path fill="none" stroke="black" stroke-width="3" d="M1782.59,-237.84C1808.27,-237.84 1794.58,-196.37 1807.96,-183.41"/>
<polygon fill="black" stroke="black" stroke-width="3" points="1806.09,-187.8 1814.32,-181.13 1803.73,-181.21 1806.09,-187.8"/>
</g>
<!-- n10 -->
<g id="node5" class="node">
<title>n10</title>
<polygon fill="none" stroke="black" points="2107.34,-200.84 2052.09,-182.84 2107.34,-164.84 2162.59,-182.84 2107.34,-200.84"/>
<text text-anchor="middle" x="2107.34" y="-177.79" font-family="Times,serif" font-size="14.00">temp_4</text>
</g>
<!-- n10&#45;&gt;c23 -->
<g id="edge23" class="edge">
<title>n10:e&#45;&gt;c23:w</title>
<path fill="none" stroke="black" stroke-width="3" d="M2162.59,-182.84C2177.86,-182.84 2179.17,-167.16 2187.89,-159.81"/>
<polygon fill="black" stroke="black" stroke-width="3" points="2186.01,-164.17 2194.3,-157.58 2183.71,-157.56 2186.01,-164.17"/>
</g>
<!-- n11 -->
<g id="node6" class="node">
<title>n11</title>
<polygon fill="none" stroke="black" points="2505.34,-245.84 2450.09,-227.84 2505.34,-209.84 2560.6,-227.84 2505.34,-245.84"/>
<text text-anchor="middle" x="2505.34" y="-222.79" font-family="Times,serif" font-size="14.00">temp_5</text>
</g>
<!-- c20 -->
<g id="node22" class="node">
<title>c20</title>
<polygon fill="none" stroke="black" points="2596.6,-488.34 2596.6,-537.34 2692.6,-537.34 2692.6,-488.34 2596.6,-488.34"/>
<text text-anchor="middle" x="2609.47" y="-520.04" font-family="Times,serif" font-size="14.00">A</text>
<polyline fill="none" stroke="black" points="2596.6,-512.84 2622.35,-512.84"/>
<text text-anchor="middle" x="2609.47" y="-495.54" font-family="Times,serif" font-size="14.00">B</text>
<polyline fill="none" stroke="black" points="2622.35,-488.34 2622.35,-537.34"/>
<text text-anchor="middle" x="2644.6" y="-516.04" font-family="Times,serif" font-size="14.00">$47</text>
<text text-anchor="middle" x="2644.6" y="-499.54" font-family="Times,serif" font-size="14.00">$mul</text>
<polyline fill="none" stroke="black" points="2666.85,-488.34 2666.85,-537.34"/>
<text text-anchor="middle" x="2679.72" y="-508.04" font-family="Times,serif" font-size="14.00">Y</text>
</g>
<!-- n11&#45;&gt;c20 -->
<g id="edge32" class="edge">
<title>n11:e&#45;&gt;c20:w</title>
<path fill="none" stroke="black" stroke-width="3" d="M2560.6,-227.84C2622.84,-227.84 2541.89,-488.01 2585.68,-521.55"/>
<polygon fill="black" stroke="black" stroke-width="3" points="2581.68,-523.93 2592.28,-523.69 2583.85,-517.27 2581.68,-523.93"/>
</g>
<!-- x16 -->
<g id="node33" class="node">
<title>x16</title>
<path fill="none" stroke="black" d="M2618.6,-142.84C2618.6,-142.84 2670.6,-142.84 2670.6,-142.84 2676.6,-142.84 2682.6,-148.84 2682.6,-154.84 2682.6,-154.84 2682.6,-228.84 2682.6,-228.84 2682.6,-234.84 2676.6,-240.84 2670.6,-240.84 2670.6,-240.84 2618.6,-240.84 2618.6,-240.84 2612.6,-240.84 2606.6,-234.84 2606.6,-228.84 2606.6,-228.84 2606.6,-154.84 2606.6,-154.84 2606.6,-148.84 2612.6,-142.84 2618.6,-142.84"/>
<text text-anchor="middle" x="2644.6" y="-223.54" font-family="Times,serif" font-size="14.00">13:13 &#45; 8:8</text>
<polyline fill="none" stroke="black" points="2606.6,-216.34 2682.6,-216.34"/>
<text text-anchor="middle" x="2644.6" y="-199.04" font-family="Times,serif" font-size="14.00">11:7 &#45; 7:3</text>
<polyline fill="none" stroke="black" points="2606.6,-191.84 2682.6,-191.84"/>
<text text-anchor="middle" x="2644.6" y="-174.54" font-family="Times,serif" font-size="14.00">5:5 &#45; 2:2</text>
<polyline fill="none" stroke="black" points="2606.6,-167.34 2682.6,-167.34"/>
<text text-anchor="middle" x="2644.6" y="-150.04" font-family="Times,serif" font-size="14.00">3:2 &#45; 1:0</text>
</g>
<!-- n11&#45;&gt;x16 -->
<g id="edge33" class="edge">
<title>n11:e&#45;&gt;x16:w</title>
<path fill="none" stroke="black" stroke-width="3" d="M2560.6,-227.84C2594.01,-227.84 2574.08,-171.64 2594.58,-158.03"/>
<polygon fill="black" stroke="black" stroke-width="3" points="2592.45,-162.22 2601.21,-156.26 2590.64,-155.46 2592.45,-162.22"/>
</g>
<!-- n11&#45;&gt;x16 -->
<g id="edge34" class="edge">
<title>n11:e&#45;&gt;x16:w</title>
<path fill="none" stroke="black" d="M2560.6,-227.84C2585.34,-227.84 2579.49,-193.49 2594.67,-182.76"/>
<polygon fill="black" stroke="black" points="2595.51,-186.16 2604.14,-180.01 2593.56,-179.43 2595.51,-186.16"/>
</g>
<!-- n11&#45;&gt;x16 -->
<g id="edge35" class="edge">
<title>n11:e&#45;&gt;x16:w</title>
<path fill="none" stroke="black" stroke-width="3" d="M2560.6,-227.84C2578.79,-227.84 2582.2,-212.46 2594.62,-206.46"/>
<polygon fill="black" stroke="black" stroke-width="3" points="2592.12,-210.57 2601.16,-205.05 2590.64,-203.73 2592.12,-210.57"/>
</g>
<!-- n11&#45;&gt;x16 -->
<g id="edge36" class="edge">
<title>n11:e&#45;&gt;x16:w</title>
<path fill="none" stroke="black" d="M2560.6,-227.84C2576.22,-227.84 2582.69,-228.3 2594.31,-228.5"/>
<polygon fill="black" stroke="black" points="2594.05,-232 2604.08,-228.58 2594.11,-225 2594.05,-232"/>
</g>
<!-- x1 -->
<g id="node9" class="node">
<title>x1</title>
<path fill="none" stroke="black" d="M662.59,-382.84C662.59,-382.84 701.09,-382.84 701.09,-382.84 707.09,-382.84 713.09,-388.84 713.09,-394.84 713.09,-394.84 713.09,-406.84 713.09,-406.84 713.09,-412.84 707.09,-418.84 701.09,-418.84 701.09,-418.84 662.59,-418.84 662.59,-418.84 656.59,-418.84 650.59,-412.84 650.59,-406.84 650.59,-406.84 650.59,-394.84 650.59,-394.84 650.59,-388.84 656.59,-382.84 662.59,-382.84"/>
<text text-anchor="middle" x="681.84" y="-396.04" font-family="Times,serif" font-size="14.00">2:0 &#45; 2:0</text>
</g>
<!-- c15&#45;&gt;x1 -->
<g id="edge2" class="edge">
<title>c15:e&#45;&gt;x1:w</title>
<path fill="none" stroke="black" stroke-width="3" d="M627.36,-396.54C631.05,-397.42 634.21,-398.54 637.91,-399.41"/>
<polygon fill="none" stroke="black" stroke-width="3" points="629.2,-396.75 622.79,-400.05 617.28,-395.4 623.69,-392.1 629.2,-396.75"/>
<polygon fill="none" stroke="black" stroke-width="3" points="635.98,-399.19 642.39,-395.89 647.9,-400.54 641.49,-403.84 635.98,-399.19"/>
</g>
<!-- x0&#45;&gt;c15 -->
<g id="edge1" class="edge">
<title>x0:e&#45;&gt;c15:w</title>
<path fill="none" stroke="black" stroke-width="3" d="M496.42,-345.08C502.97,-353.29 502.7,-369.08 509.23,-377.31"/>
<polygon fill="none" stroke="black" stroke-width="3" points="498.24,-345.91 491.12,-347.08 487.31,-340.96 494.42,-339.79 498.24,-345.91"/>
<polygon fill="none" stroke="black" stroke-width="3" points="507.46,-376.5 514.58,-375.35 518.38,-381.47 511.26,-382.63 507.46,-376.5"/>
</g>
<!-- n1 -->
<g id="node41" class="node">
<title>n1</title>
<ellipse fill="black" stroke="black" cx="780.34" cy="-362.84" rx="1.8" ry="1.8"/>
</g>
<!-- x1&#45;&gt;n1 -->
<g id="edge19" class="edge">
<title>x1:e&#45;&gt;n1:w</title>
<path fill="none" stroke="black" stroke-width="3" d="M713.09,-401.09C741.95,-401.09 743.94,-372.07 765.87,-364.58"/>
<polygon fill="black" stroke="black" stroke-width="3" points="763.23,-368.54 772.58,-363.54 762.16,-361.62 763.23,-368.54"/>
</g>
<!-- c16 -->
<g id="node10" class="node">
<title>c16</title>
<polygon fill="none" stroke="black" points="946.09,-326.34 946.09,-375.34 1039.84,-375.34 1039.84,-326.34 946.09,-326.34"/>
<text text-anchor="middle" x="958.97" y="-358.04" font-family="Times,serif" font-size="14.00">A</text>
<polyline fill="none" stroke="black" points="946.09,-350.84 971.84,-350.84"/>
<text text-anchor="middle" x="958.97" y="-333.54" font-family="Times,serif" font-size="14.00">B</text>
<polyline fill="none" stroke="black" points="971.84,-326.34 971.84,-375.34"/>
<text text-anchor="middle" x="992.97" y="-354.04" font-family="Times,serif" font-size="14.00">$83</text>
<text text-anchor="middle" x="992.97" y="-337.54" font-family="Times,serif" font-size="14.00">$and</text>
<polyline fill="none" stroke="black" points="1014.09,-326.34 1014.09,-375.34"/>
<text text-anchor="middle" x="1026.97" y="-346.04" font-family="Times,serif" font-size="14.00">Y</text>
</g>
<!-- x4 -->
<g id="node13" class="node">
<title>x4</title>
<path fill="none" stroke="black" d="M1087.84,-329.84C1087.84,-329.84 1126.34,-329.84 1126.34,-329.84 1132.34,-329.84 1138.34,-335.84 1138.34,-341.84 1138.34,-341.84 1138.34,-353.84 1138.34,-353.84 1138.34,-359.84 1132.34,-365.84 1126.34,-365.84 1126.34,-365.84 1087.84,-365.84 1087.84,-365.84 1081.84,-365.84 1075.84,-359.84 1075.84,-353.84 1075.84,-353.84 1075.84,-341.84 1075.84,-341.84 1075.84,-335.84 1081.84,-329.84 1087.84,-329.84"/>
<text text-anchor="middle" x="1107.09" y="-343.04" font-family="Times,serif" font-size="14.00">2:0 &#45; 2:0</text>
</g>
<!-- c16&#45;&gt;x4 -->
<g id="edge5" class="edge">
<title>c16:e&#45;&gt;x4:w</title>
<path fill="none" stroke="black" stroke-width="3" d="M1052.58,-350.27C1056.17,-349.79 1059.29,-349.18 1062.86,-348.7"/>
<polygon fill="none" stroke="black" stroke-width="3" points="1054.52,-350.15 1048.79,-354.52 1042.54,-350.92 1048.27,-346.54 1054.52,-350.15"/>
<polygon fill="none" stroke="black" stroke-width="3" points="1061.17,-348.81 1066.89,-344.42 1073.14,-348.02 1067.42,-352.4 1061.17,-348.81"/>
</g>
<!-- x2 -->
<g id="node11" class="node">
<title>x2</title>
<path fill="none" stroke="black" d="M859.59,-344.84C859.59,-344.84 898.09,-344.84 898.09,-344.84 904.09,-344.84 910.09,-350.84 910.09,-356.84 910.09,-356.84 910.09,-368.84 910.09,-368.84 910.09,-374.84 904.09,-380.84 898.09,-380.84 898.09,-380.84 859.59,-380.84 859.59,-380.84 853.59,-380.84 847.59,-374.84 847.59,-368.84 847.59,-368.84 847.59,-356.84 847.59,-356.84 847.59,-350.84 853.59,-344.84 859.59,-344.84"/>
<text text-anchor="middle" x="878.84" y="-358.04" font-family="Times,serif" font-size="14.00">2:0 &#45; 2:0</text>
</g>
<!-- x2&#45;&gt;c16 -->
<g id="edge3" class="edge">
<title>x2:e&#45;&gt;c16:w</title>
<path fill="none" stroke="black" stroke-width="3" d="M922.81,-362.9C926.41,-362.94 929.54,-362.99 933.12,-363.03"/>
<polygon fill="none" stroke="black" stroke-width="3" points="924.8,-362.91 918.78,-366.88 912.8,-362.85 918.82,-358.88 924.8,-362.91"/>
<polygon fill="none" stroke="black" stroke-width="3" points="931.39,-363.02 937.41,-359.05 943.39,-363.08 937.37,-367.05 931.39,-363.02"/>
</g>
<!-- x3&#45;&gt;c16 -->
<g id="edge4" class="edge">
<title>x3:e&#45;&gt;c16:w</title>
<path fill="none" stroke="black" stroke-width="3" d="M726.03,-291.59C779.75,-297.18 879.45,-332.26 933.17,-337.84"/>
<polygon fill="none" stroke="black" stroke-width="3" points="727.77,-291.69 721.55,-295.34 715.79,-291 722.01,-287.35 727.77,-291.69"/>
<polygon fill="none" stroke="black" stroke-width="3" points="931.41,-337.74 937.63,-334.09 943.39,-338.44 937.17,-342.08 931.41,-337.74"/>
</g>
<!-- n2 -->
<g id="node42" class="node">
<title>n2</title>
<ellipse fill="black" stroke="black" cx="1205.59" cy="-290.84" rx="1.8" ry="1.8"/>
</g>
<!-- x4&#45;&gt;n2 -->
<g id="edge38" class="edge">
<title>x4:e&#45;&gt;n2:w</title>
<path fill="none" stroke="black" stroke-width="3" d="M1138.34,-348.09C1172.17,-348.09 1166.31,-303.08 1191.14,-292.88"/>
<polygon fill="black" stroke="black" stroke-width="3" points="1188.64,-296.89 1197.85,-291.66 1187.38,-290.01 1188.64,-296.89"/>
</g>
<!-- c17 -->
<g id="node14" class="node">
<title>c17</title>
<polygon fill="none" stroke="black" points="1449.84,-231.34 1449.84,-280.34 1537.59,-280.34 1537.59,-231.34 1449.84,-231.34"/>
<text text-anchor="middle" x="1462.72" y="-263.04" font-family="Times,serif" font-size="14.00">A</text>
<polyline fill="none" stroke="black" points="1449.84,-255.84 1475.59,-255.84"/>
<text text-anchor="middle" x="1462.72" y="-238.54" font-family="Times,serif" font-size="14.00">B</text>
<polyline fill="none" stroke="black" points="1475.59,-231.34 1475.59,-280.34"/>
<text text-anchor="middle" x="1493.72" y="-259.04" font-family="Times,serif" font-size="14.00">$87</text>
<text text-anchor="middle" x="1493.72" y="-242.54" font-family="Times,serif" font-size="14.00">$or</text>
<polyline fill="none" stroke="black" points="1511.84,-231.34 1511.84,-280.34"/>
<text text-anchor="middle" x="1524.72" y="-251.04" font-family="Times,serif" font-size="14.00">Y</text>
</g>
<!-- x7 -->
<g id="node17" class="node">
<title>x7</title>
<path fill="none" stroke="black" d="M1585.59,-234.84C1585.59,-234.84 1624.09,-234.84 1624.09,-234.84 1630.09,-234.84 1636.09,-240.84 1636.09,-246.84 1636.09,-246.84 1636.09,-258.84 1636.09,-258.84 1636.09,-264.84 1630.09,-270.84 1624.09,-270.84 1624.09,-270.84 1585.59,-270.84 1585.59,-270.84 1579.59,-270.84 1573.59,-264.84 1573.59,-258.84 1573.59,-258.84 1573.59,-246.84 1573.59,-246.84 1573.59,-240.84 1579.59,-234.84 1585.59,-234.84"/>
<text text-anchor="middle" x="1604.84" y="-248.04" font-family="Times,serif" font-size="14.00">2:0 &#45; 2:0</text>
</g>
<!-- c17&#45;&gt;x7 -->
<g id="edge8" class="edge">
<title>c17:e&#45;&gt;x7:w</title>
<path fill="none" stroke="black" stroke-width="3" d="M1550.33,-255.27C1553.92,-254.79 1557.04,-254.18 1560.61,-253.7"/>
<polygon fill="none" stroke="black" stroke-width="3" points="1552.27,-255.15 1546.54,-259.52 1540.29,-255.92 1546.02,-251.54 1552.27,-255.15"/>
<polygon fill="none" stroke="black" stroke-width="3" points="1558.92,-253.81 1564.64,-249.42 1570.89,-253.02 1565.17,-257.4 1558.92,-253.81"/>
</g>
<!-- x5 -->
<g id="node15" class="node">
<title>x5</title>
<path fill="none" stroke="black" d="M1324.09,-272.84C1324.09,-272.84 1362.59,-272.84 1362.59,-272.84 1368.59,-272.84 1374.59,-278.84 1374.59,-284.84 1374.59,-284.84 1374.59,-296.84 1374.59,-296.84 1374.59,-302.84 1368.59,-308.84 1362.59,-308.84 1362.59,-308.84 1324.09,-308.84 1324.09,-308.84 1318.09,-308.84 1312.09,-302.84 1312.09,-296.84 1312.09,-296.84 1312.09,-284.84 1312.09,-284.84 1312.09,-278.84 1318.09,-272.84 1324.09,-272.84"/>
<text text-anchor="middle" x="1343.34" y="-286.04" font-family="Times,serif" font-size="14.00">2:0 &#45; 2:0</text>
</g>
<!-- x5&#45;&gt;c17 -->
<g id="edge6" class="edge">
<title>x5:e&#45;&gt;c17:w</title>
<path fill="none" stroke="black" stroke-width="3" d="M1388.58,-289.62C1408.38,-285.65 1417.21,-273.16 1437.1,-269.27"/>
<polygon fill="none" stroke="black" stroke-width="3" points="1390.23,-289.46 1384.63,-294.01 1378.28,-290.59 1383.88,-286.04 1390.23,-289.46"/>
<polygon fill="none" stroke="black" stroke-width="3" points="1435.2,-269.44 1440.81,-264.91 1447.15,-268.34 1441.54,-272.87 1435.2,-269.44"/>
</g>
<!-- x6&#45;&gt;c17 -->
<g id="edge7" class="edge">
<title>x6:e&#45;&gt;c17:w</title>
<path fill="none" stroke="black" stroke-width="3" d="M922.87,-243.84C999.58,-243.84 1023.4,-243.84 1106.09,-243.84 1106.09,-243.84 1106.09,-243.84 1206.59,-243.84 1310.27,-243.84 1339.38,-243.61 1436.94,-243.59"/>
<polygon fill="none" stroke="black" stroke-width="3" points="924.8,-243.84 918.8,-247.84 912.8,-243.84 918.8,-239.84 924.8,-243.84"/>
<polygon fill="none" stroke="black" stroke-width="3" points="1435.14,-243.59 1441.14,-239.59 1447.14,-243.59 1441.14,-247.59 1435.14,-243.59"/>
</g>
<!-- x7&#45;&gt;n9 -->
<g id="edge70" class="edge">
<title>x7:e&#45;&gt;n9:w</title>
<path fill="none" stroke="black" stroke-width="3" d="M1636.09,-253.09C1648.85,-253.09 1652.91,-244.87 1661.05,-240.5"/>
<polygon fill="black" stroke="black" stroke-width="3" points="1658.77,-244.65 1667.68,-238.9 1657.14,-237.84 1658.77,-244.65"/>
</g>
<!-- c18 -->
<g id="node18" class="node">
<title>c18</title>
<polygon fill="none" stroke="black" points="3126.41,-238.34 3126.41,-279.34 3217.91,-279.34 3217.91,-238.34 3126.41,-238.34"/>
<text text-anchor="middle" x="3139.28" y="-254.04" font-family="Times,serif" font-size="14.00">A</text>
<polyline fill="none" stroke="black" points="3152.16,-238.34 3152.16,-279.34"/>
<text text-anchor="middle" x="3172.16" y="-262.04" font-family="Times,serif" font-size="14.00">$49</text>
<text text-anchor="middle" x="3172.16" y="-245.54" font-family="Times,serif" font-size="14.00">$not</text>
<polyline fill="none" stroke="black" points="3192.16,-238.34 3192.16,-279.34"/>
<text text-anchor="middle" x="3205.03" y="-254.04" font-family="Times,serif" font-size="14.00">Y</text>
</g>
<!-- x9 -->
<g id="node20" class="node">
<title>x9</title>
<path fill="none" stroke="black" d="M3265.91,-270.84C3265.91,-270.84 3317.91,-270.84 3317.91,-270.84 3323.91,-270.84 3329.91,-276.84 3329.91,-282.84 3329.91,-282.84 3329.91,-356.84 3329.91,-356.84 3329.91,-362.84 3323.91,-368.84 3317.91,-368.84 3317.91,-368.84 3265.91,-368.84 3265.91,-368.84 3259.91,-368.84 3253.91,-362.84 3253.91,-356.84 3253.91,-356.84 3253.91,-282.84 3253.91,-282.84 3253.91,-276.84 3259.91,-270.84 3265.91,-270.84"/>
<text text-anchor="middle" x="3291.91" y="-351.54" font-family="Times,serif" font-size="14.00">4:4 &#45; 12:12</text>
<polyline fill="none" stroke="black" points="3253.91,-344.34 3329.91,-344.34"/>
<text text-anchor="middle" x="3291.91" y="-327.04" font-family="Times,serif" font-size="14.00">3:3 &#45; 6:6</text>
<polyline fill="none" stroke="black" points="3253.91,-319.84 3329.91,-319.84"/>
<text text-anchor="middle" x="3291.91" y="-302.54" font-family="Times,serif" font-size="14.00">2:2 &#45; 4:4</text>
<polyline fill="none" stroke="black" points="3253.91,-295.34 3329.91,-295.34"/>
<text text-anchor="middle" x="3291.91" y="-278.04" font-family="Times,serif" font-size="14.00">1:0 &#45; 1:0</text>
</g>
<!-- c18&#45;&gt;x9 -->
<g id="edge10" class="edge">
<title>c18:e&#45;&gt;x9:w</title>
<path fill="none" stroke="black" stroke-width="3" d="M3229.87,-264.27C3238.99,-275.75 3232.82,-303.21 3241.96,-314.68"/>
<polygon fill="none" stroke="black" stroke-width="3" points="3231.4,-264.93 3224.31,-266.22 3220.39,-260.17 3227.48,-258.88 3231.4,-264.93"/>
<polygon fill="none" stroke="black" stroke-width="3" points="3240.41,-314.01 3247.51,-312.72 3251.43,-318.77 3244.33,-320.06 3240.41,-314.01"/>
</g>
<!-- x8 -->
<g id="node19" class="node">
<title>x8</title>
<path fill="none" stroke="black" d="M3026.41,-142.84C3026.41,-142.84 3078.41,-142.84 3078.41,-142.84 3084.41,-142.84 3090.41,-148.84 3090.41,-154.84 3090.41,-154.84 3090.41,-228.84 3090.41,-228.84 3090.41,-234.84 3084.41,-240.84 3078.41,-240.84 3078.41,-240.84 3026.41,-240.84 3026.41,-240.84 3020.41,-240.84 3014.41,-234.84 3014.41,-228.84 3014.41,-228.84 3014.41,-154.84 3014.41,-154.84 3014.41,-148.84 3020.41,-142.84 3026.41,-142.84"/>
<text text-anchor="middle" x="3052.41" y="-223.54" font-family="Times,serif" font-size="14.00">12:12 &#45; 4:4</text>
<polyline fill="none" stroke="black" points="3014.41,-216.34 3090.41,-216.34"/>
<text text-anchor="middle" x="3052.41" y="-199.04" font-family="Times,serif" font-size="14.00">6:6 &#45; 3:3</text>
<polyline fill="none" stroke="black" points="3014.41,-191.84 3090.41,-191.84"/>
<text text-anchor="middle" x="3052.41" y="-174.54" font-family="Times,serif" font-size="14.00">4:4 &#45; 2:2</text>
<polyline fill="none" stroke="black" points="3014.41,-167.34 3090.41,-167.34"/>
<text text-anchor="middle" x="3052.41" y="-150.04" font-family="Times,serif" font-size="14.00">1:0 &#45; 1:0</text>
</g>
<!-- x8&#45;&gt;c18 -->
<g id="edge9" class="edge">
<title>x8:e&#45;&gt;c18:w</title>
<path fill="none" stroke="black" stroke-width="3" d="M3102.37,-196.68C3113.05,-209.09 3103.76,-241.94 3114.48,-254.3"/>
<polygon fill="none" stroke="black" stroke-width="3" points="3104.04,-197.35 3096.98,-198.81 3092.91,-192.86 3099.98,-191.4 3104.04,-197.35"/>
<polygon fill="none" stroke="black" stroke-width="3" points="3112.76,-253.61 3119.82,-252.13 3123.9,-258.08 3116.84,-259.56 3112.76,-253.61"/>
</g>
<!-- x9&#45;&gt;n11 -->
<g id="edge28" class="edge">
<title>x9:e&#45;&gt;n11:w</title>
<path fill="none" stroke="black" stroke-width="3" d="M3330.91,-283.09C3386.62,-283.09 3272.74,-238.67 3217.91,-228.84 3177.88,-221.66 3165.55,-217.83 3126.41,-228.84 3108.36,-233.92 3108.15,-244.77 3090.41,-250.84 3018.52,-275.46 2996.49,-269.84 2920.5,-269.84 2775.6,-269.84 2775.6,-269.84 2775.6,-269.84 2679.71,-269.84 2656.26,-258.41 2560.6,-251.84 2554.39,-251.42 2453.12,-250.24 2448.72,-245.84 2446.86,-243.98 2445.25,-241.41 2444.21,-238.78"/>
<polygon fill="black" stroke="black" stroke-width="3" points="2446.61,-242.76 2446.33,-232.16 2439.94,-240.62 2446.61,-242.76"/>
</g>
<!-- x9&#45;&gt;n11 -->
<g id="edge29" class="edge">
<title>x9:e&#45;&gt;n11:w</title>
<path fill="none" stroke="black" d="M3330.91,-307.59C3347.47,-307.59 3341.77,-281.89 3329.91,-270.34 3305.7,-246.78 3286.74,-262.4 3253.91,-270.34 3236.42,-274.57 3235.12,-283.61 3217.91,-288.84 3147.49,-310.23 3127,-307.84 3053.41,-307.84 2775.6,-307.84 2775.6,-307.84 2775.6,-307.84 2694.7,-307.84 2671.86,-304.5 2596.6,-274.84 2578.93,-267.88 2578.67,-257.65 2560.6,-251.84 2548.74,-248.03 2457.53,-254.64 2448.72,-245.84 2446.86,-243.98 2445.25,-241.41 2444.21,-238.78"/>
<polygon fill="black" stroke="black" points="2447.53,-239.87 2447.26,-229.28 2440.87,-237.74 2447.53,-239.87"/>
</g>
<!-- x9&#45;&gt;n11 -->
<g id="edge30" class="edge">
<title>x9:e&#45;&gt;n11:w</title>
<path fill="none" stroke="black" d="M3330.91,-332.09C3347.47,-332.09 3341.77,-357.79 3329.91,-369.34 3305.7,-392.9 3287.63,-371.31 3253.91,-369.34 3164.34,-364.11 3143.13,-345.84 3053.41,-345.84 2775.6,-345.84 2775.6,-345.84 2775.6,-345.84 2693.78,-345.84 2664.31,-348.77 2596.6,-302.84 2573.63,-287.27 2584.88,-265.26 2560.6,-251.84 2549.7,-245.82 2457.53,-254.64 2448.72,-245.84 2446.86,-243.98 2445.25,-241.41 2444.21,-238.78"/>
<polygon fill="black" stroke="black" points="2447.53,-239.87 2447.26,-229.28 2440.87,-237.74 2447.53,-239.87"/>
</g>
<!-- x9&#45;&gt;n11 -->
<g id="edge31" class="edge">
<title>x9:e&#45;&gt;n11:w</title>
<path fill="none" stroke="black" d="M3330.91,-356.59C3336.59,-356.59 3333.7,-365.11 3329.91,-369.34 3246.43,-462.49 3178.49,-421.84 3053.41,-421.84 2918.5,-421.84 2918.5,-421.84 2918.5,-421.84 2770.53,-421.84 2732.6,-395.13 2596.6,-336.84 2525.66,-306.44 2488.22,-312.14 2448.72,-245.84 2447.5,-243.8 2446.21,-241.38 2445.21,-238.99"/>
<polygon fill="black" stroke="black" points="2448.61,-239.84 2447.39,-229.32 2441.78,-238.31 2448.61,-239.84"/>
</g>
<!-- c19&#45;&gt;n8 -->
<g id="edge61" class="edge">
<title>c19:e&#45;&gt;n8:w</title>
<path fill="none" stroke="black" stroke-width="3" d="M239.84,-377.09C285.99,-377.09 235.95,-287.42 264.82,-271.31"/>
<polygon fill="black" stroke="black" stroke-width="3" points="262.41,-275.43 271.41,-269.83 260.89,-268.6 262.41,-275.43"/>
</g>
<!-- c21 -->
<g id="node24" class="node">
<title>c21</title>
<polygon fill="none" stroke="black" points="2728.6,-463.34 2728.6,-512.34 2824.6,-512.34 2824.6,-463.34 2728.6,-463.34"/>
<text text-anchor="middle" x="2741.47" y="-495.04" font-family="Times,serif" font-size="14.00">A</text>
<polyline fill="none" stroke="black" points="2728.6,-487.84 2754.35,-487.84"/>
<text text-anchor="middle" x="2741.47" y="-470.54" font-family="Times,serif" font-size="14.00">B</text>
<polyline fill="none" stroke="black" points="2754.35,-463.34 2754.35,-512.34"/>
<text text-anchor="middle" x="2776.6" y="-491.04" font-family="Times,serif" font-size="14.00">$48</text>
<text text-anchor="middle" x="2776.6" y="-474.54" font-family="Times,serif" font-size="14.00">$mul</text>
<polyline fill="none" stroke="black" points="2798.85,-463.34 2798.85,-512.34"/>
<text text-anchor="middle" x="2811.72" y="-483.04" font-family="Times,serif" font-size="14.00">Y</text>
</g>
<!-- c20&#45;&gt;c21 -->
<g id="edge52" class="edge">
<title>c20:e&#45;&gt;c21:w</title>
<path fill="none" stroke="black" stroke-width="3" d="M2692.6,-513.09C2704.95,-513.09 2709.38,-506.23 2717.4,-502.48"/>
<polygon fill="black" stroke="black" stroke-width="3" points="2715.1,-506.54 2724.15,-501.04 2713.64,-499.7 2715.1,-506.54"/>
</g>
<!-- x10&#45;&gt;c20 -->
<g id="edge11" class="edge">
<title>x10:e&#45;&gt;c20:w</title>
<path fill="none" stroke="black" stroke-width="3" d="M824.26,-541.71C894.35,-540.25 915.92,-526.84 991.97,-526.84 991.97,-526.84 991.97,-526.84 2370.34,-526.84 2467.13,-526.84 2493.12,-502.85 2583.68,-500.74"/>
<polygon fill="none" stroke="black" stroke-width="3" points="826.3,-541.69 820.34,-545.75 814.3,-541.81 820.25,-537.75 826.3,-541.69"/>
<polygon fill="none" stroke="black" stroke-width="3" points="2581.89,-500.76 2587.85,-496.69 2593.89,-500.62 2587.94,-504.69 2581.89,-500.76"/>
</g>
<!-- c21&#45;&gt;n7 -->
<g id="edge60" class="edge">
<title>c21:e&#45;&gt;n7:w</title>
<path fill="none" stroke="black" stroke-width="3" d="M2824.6,-488.09C2835.97,-488.09 2841.28,-487.97 2849.15,-487.89"/>
<polygon fill="black" stroke="black" stroke-width="3" points="2846.07,-491.41 2856.05,-487.86 2846.04,-484.41 2846.07,-491.41"/>
</g>
<!-- x11&#45;&gt;c21 -->
<g id="edge12" class="edge">
<title>x11:e&#45;&gt;c21:w</title>
<path fill="none" stroke="black" stroke-width="3" d="M1893.95,-432.99C1984.14,-435.16 2009.95,-459.84 2106.34,-459.84 2106.34,-459.84 2106.34,-459.84 2506.34,-459.84 2600.92,-459.84 2627.24,-474.21 2715.69,-475.5"/>
<polygon fill="none" stroke="black" stroke-width="3" points="1895.8,-433.02 1889.75,-436.94 1883.8,-432.87 1889.84,-428.94 1895.8,-433.02"/>
<polygon fill="none" stroke="black" stroke-width="3" points="2713.89,-475.49 2719.92,-471.53 2725.89,-475.57 2719.86,-479.53 2713.89,-475.49"/>
</g>
<!-- c22 -->
<g id="node26" class="node">
<title>c22</title>
<polygon fill="none" stroke="black" points="1272.84,-129.34 1272.84,-170.34 1413.84,-170.34 1413.84,-129.34 1272.84,-129.34"/>
<text text-anchor="middle" x="1285.72" y="-145.04" font-family="Times,serif" font-size="14.00">A</text>
<polyline fill="none" stroke="black" points="1298.59,-129.34 1298.59,-170.34"/>
<text text-anchor="middle" x="1343.34" y="-153.04" font-family="Times,serif" font-size="14.00">$7</text>
<text text-anchor="middle" x="1343.34" y="-136.54" font-family="Times,serif" font-size="14.00">$reduce_bool</text>
<polyline fill="none" stroke="black" points="1388.09,-129.34 1388.09,-170.34"/>
<text text-anchor="middle" x="1400.97" y="-145.04" font-family="Times,serif" font-size="14.00">Y</text>
</g>
<!-- c25 -->
<g id="node30" class="node">
<title>c25</title>
<polygon fill="none" stroke="black" points="1917.09,-153.09 1917.09,-226.59 2016.09,-226.59 2016.09,-153.09 1917.09,-153.09"/>
<text text-anchor="middle" x="1929.97" y="-209.29" font-family="Times,serif" font-size="14.00">A</text>
<polyline fill="none" stroke="black" points="1917.09,-202.09 1942.84,-202.09"/>
<text text-anchor="middle" x="1929.97" y="-184.79" font-family="Times,serif" font-size="14.00">B</text>
<polyline fill="none" stroke="black" points="1917.09,-177.59 1942.84,-177.59"/>
<text text-anchor="middle" x="1929.97" y="-160.29" font-family="Times,serif" font-size="14.00">S</text>
<polyline fill="none" stroke="black" points="1942.84,-153.09 1942.84,-226.59"/>
<text text-anchor="middle" x="1966.59" y="-193.04" font-family="Times,serif" font-size="14.00">$9</text>
<text text-anchor="middle" x="1966.59" y="-176.54" font-family="Times,serif" font-size="14.00">$mux</text>
<polyline fill="none" stroke="black" points="1990.34,-153.09 1990.34,-226.59"/>
<text text-anchor="middle" x="2003.22" y="-184.79" font-family="Times,serif" font-size="14.00">Y</text>
</g>
<!-- c22&#45;&gt;c25 -->
<g id="edge53" class="edge">
<title>c22:e&#45;&gt;c25:w</title>
<path fill="none" stroke="black" d="M1413.84,-150.09C1498.43,-150.09 1519.25,-138.84 1603.84,-138.84 1603.84,-138.84 1603.84,-138.84 1728.34,-138.84 1796.75,-138.84 1813.61,-146.63 1881.09,-157.84 1892.68,-159.77 1897.77,-162.8 1905.78,-164.35"/>
<polygon fill="black" stroke="black" points="1905.32,-167.83 1915.59,-165.21 1905.93,-160.85 1905.32,-167.83"/>
</g>
<!-- x12&#45;&gt;c22 -->
<g id="edge13" class="edge">
<title>x12:e&#45;&gt;c22:w</title>
<path fill="none" stroke="black" stroke-width="3" d="M497.62,-147.85C574.33,-147.94 598.15,-148.84 680.84,-148.84 680.84,-148.84 680.84,-148.84 1108.09,-148.84 1176.88,-148.84 1197.2,-149.94 1260.12,-150.08"/>
<polygon fill="none" stroke="black" stroke-width="3" points="499.55,-147.85 493.54,-151.85 487.55,-147.84 493.55,-143.85 499.55,-147.85"/>
<polygon fill="none" stroke="black" stroke-width="3" points="1258.14,-150.08 1264.14,-146.08 1270.14,-150.09 1264.13,-154.08 1258.14,-150.08"/>
</g>
<!-- x13 -->
<g id="node29" class="node">
<title>x13</title>
<path fill="none" stroke="black" d="M2336.59,-45.84C2336.59,-45.84 2402.09,-45.84 2402.09,-45.84 2408.09,-45.84 2414.09,-51.84 2414.09,-57.84 2414.09,-57.84 2414.09,-229.84 2414.09,-229.84 2414.09,-235.84 2408.09,-241.84 2402.09,-241.84 2402.09,-241.84 2336.59,-241.84 2336.59,-241.84 2330.59,-241.84 2324.59,-235.84 2324.59,-229.84 2324.59,-229.84 2324.59,-57.84 2324.59,-57.84 2324.59,-51.84 2330.59,-45.84 2336.59,-45.84"/>
<text text-anchor="middle" x="2369.34" y="-224.54" font-family="Times,serif" font-size="14.00">13:13 &#45; 13:13</text>
<polyline fill="none" stroke="black" points="2324.59,-217.34 2414.09,-217.34"/>
<text text-anchor="middle" x="2369.34" y="-200.04" font-family="Times,serif" font-size="14.00">12:12 &#45; 12:12</text>
<polyline fill="none" stroke="black" points="2324.59,-192.84 2414.09,-192.84"/>
<text text-anchor="middle" x="2369.34" y="-175.54" font-family="Times,serif" font-size="14.00">11:7 &#45; 11:7</text>
<polyline fill="none" stroke="black" points="2324.59,-168.34 2414.09,-168.34"/>
<text text-anchor="middle" x="2369.34" y="-151.04" font-family="Times,serif" font-size="14.00">6:6 &#45; 6:6</text>
<polyline fill="none" stroke="black" points="2324.59,-143.84 2414.09,-143.84"/>
<text text-anchor="middle" x="2369.34" y="-126.54" font-family="Times,serif" font-size="14.00">5:5 &#45; 5:5</text>
<polyline fill="none" stroke="black" points="2324.59,-119.34 2414.09,-119.34"/>
<text text-anchor="middle" x="2369.34" y="-102.04" font-family="Times,serif" font-size="14.00">4:4 &#45; 4:4</text>
<polyline fill="none" stroke="black" points="2324.59,-94.84 2414.09,-94.84"/>
<text text-anchor="middle" x="2369.34" y="-77.54" font-family="Times,serif" font-size="14.00">3:2 &#45; 3:2</text>
<polyline fill="none" stroke="black" points="2324.59,-70.34 2414.09,-70.34"/>
<text text-anchor="middle" x="2369.34" y="-53.04" font-family="Times,serif" font-size="14.00">1:0 &#45; 1:0</text>
</g>
<!-- c23&#45;&gt;x13 -->
<g id="edge14" class="edge">
<title>c23:e&#45;&gt;x13:w</title>
<path fill="none" stroke="black" stroke-width="3" d="M2301.32,-144.03C2304.91,-143.99 2308.05,-143.94 2311.62,-143.91"/>
<polygon fill="none" stroke="black" stroke-width="3" points="2303.3,-144.02 2297.32,-148.05 2291.3,-144.08 2297.28,-140.05 2303.3,-144.02"/>
<polygon fill="none" stroke="black" stroke-width="3" points="2309.89,-143.92 2315.87,-139.89 2321.89,-143.86 2315.91,-147.89 2309.89,-143.92"/>
</g>
<!-- x13&#45;&gt;n11 -->
<g id="edge24" class="edge">
<title>x13:e&#45;&gt;n11:w</title>
<path fill="none" stroke="black" stroke-width="3" d="M2414.09,-82.59C2476.19,-82.59 2395.75,-209.19 2438.91,-226"/>
<polygon fill="black" stroke="black" stroke-width="3" points="2435.18,-228.94 2445.61,-227.11 2436.31,-222.03 2435.18,-228.94"/>
</g>
<!-- x13&#45;&gt;n11 -->
<g id="edge25" class="edge">
<title>x13:e&#45;&gt;n11:w</title>
<path fill="none" stroke="black" d="M2414.09,-131.59C2455.13,-131.59 2414.62,-209.28 2439.09,-225.06"/>
<polygon fill="black" stroke="black" points="2438.07,-228.42 2448.63,-227.47 2439.79,-221.63 2438.07,-228.42"/>
</g>
<!-- x13&#45;&gt;n11 -->
<g id="edge26" class="edge">
<title>x13:e&#45;&gt;n11:w</title>
<path fill="none" stroke="black" stroke-width="3" d="M2414.09,-180.59C2435.75,-180.59 2428.34,-212.39 2439.55,-223.81"/>
<polygon fill="black" stroke="black" stroke-width="3" points="2435.26,-225.92 2445.85,-226.22 2437.76,-219.38 2435.26,-225.92"/>
</g>
<!-- x13&#45;&gt;n11 -->
<g id="edge27" class="edge">
<title>x13:e&#45;&gt;n11:w</title>
<path fill="none" stroke="black" d="M2414.09,-229.59C2425.48,-229.59 2430.78,-228.71 2438.64,-228.2"/>
<polygon fill="black" stroke="black" points="2438.69,-231.7 2448.58,-227.89 2438.48,-224.7 2438.69,-231.7"/>
</g>
<!-- n3 -->
<g id="node43" class="node">
<title>n3</title>
<ellipse fill="black" stroke="black" cx="2919.5" cy="-179.84" rx="1.8" ry="1.8"/>
</g>
<!-- x13&#45;&gt;n3 -->
<g id="edge40" class="edge">
<title>x13:e&#45;&gt;n3:w</title>
<path fill="none" stroke="black" stroke-width="3" d="M2414.09,-58.09C2596.55,-58.09 2661.1,19.13 2824.6,-61.84 2880.38,-89.47 2853.74,-169.01 2904.91,-178.84"/>
<polygon fill="black" stroke="black" stroke-width="3" points="2901.43,-182.05 2911.7,-179.44 2902.05,-175.07 2901.43,-182.05"/>
</g>
<!-- x13&#45;&gt;n3 -->
<g id="edge41" class="edge">
<title>x13:e&#45;&gt;n3:w</title>
<path fill="none" stroke="black" d="M2414.09,-107.09C2430.42,-107.09 2433.85,-101.46 2450.09,-99.84 2615.72,-83.33 2668.75,-41.38 2824.6,-99.84 2871.36,-117.38 2863.78,-170.79 2904.98,-178.83"/>
<polygon fill="black" stroke="black" points="2904.44,-182.29 2914.72,-179.71 2905.07,-175.32 2904.44,-182.29"/>
</g>
<!-- x13&#45;&gt;n3 -->
<g id="edge42" class="edge">
<title>x13:e&#45;&gt;n3:w</title>
<path fill="none" stroke="black" d="M2414.09,-156.09C2495.81,-156.09 2515.03,-138.8 2596.6,-133.84 2697.74,-127.7 2725.99,-110.48 2824.6,-133.84 2864.95,-143.4 2870,-173.67 2904.94,-179.03"/>
<polygon fill="black" stroke="black" points="2904.49,-182.5 2914.71,-179.73 2904.99,-175.52 2904.49,-182.5"/>
</g>
<!-- x13&#45;&gt;n3 -->
<g id="edge43" class="edge">
<title>x13:e&#45;&gt;n3:w</title>
<path fill="none" stroke="black" d="M2414.09,-205.09C2441.39,-205.09 2425.79,-242.43 2450.09,-254.84 2492.45,-276.48 2694.48,-296.46 2824.6,-250.84 2869.41,-235.13 2865.69,-188.05 2905.19,-180.79"/>
<polygon fill="black" stroke="black" points="2905.05,-184.31 2914.72,-179.97 2904.45,-177.34 2905.05,-184.31"/>
</g>
<!-- c25&#45;&gt;n10 -->
<g id="edge22" class="edge">
<title>c25:e&#45;&gt;n10:w</title>
<path fill="none" stroke="black" stroke-width="3" d="M2016.09,-189.84C2027.81,-189.84 2032.86,-186.23 2040.83,-184.19"/>
<polygon fill="black" stroke="black" stroke-width="3" points="2038.07,-188.05 2047.58,-183.38 2037.24,-181.1 2038.07,-188.05"/>
</g>
<!-- x14&#45;&gt;c25 -->
<g id="edge15" class="edge">
<title>x14:e&#45;&gt;c25:w</title>
<path fill="none" stroke="black" stroke-width="3" d="M376.11,-482.86C456.11,-483.13 480.73,-485.84 566.72,-485.84 566.72,-485.84 566.72,-485.84 1728.34,-485.84 1796.75,-485.84 1832.29,-514.78 1881.09,-466.84 1918.05,-430.54 1870.17,-249.64 1904.95,-218.81"/>
<polygon fill="none" stroke="black" stroke-width="3" points="378.05,-482.87 372.04,-486.86 366.05,-482.85 372.05,-478.86 378.05,-482.87"/>
<polygon fill="none" stroke="black" stroke-width="3" points="1903.29,-219.42 1907.54,-213.59 1914.56,-215.28 1910.31,-221.1 1903.29,-219.42"/>
</g>
<!-- x15&#45;&gt;c25 -->
<g id="edge16" class="edge">
<title>x15:e&#45;&gt;c25:w</title>
<path fill="none" stroke="black" stroke-width="3" d="M1893.82,-191.34C1897.42,-191.04 1900.54,-190.67 1904.12,-190.37"/>
<polygon fill="none" stroke="black" stroke-width="3" points="1895.79,-191.26 1889.95,-195.49 1883.8,-191.73 1889.63,-187.5 1895.79,-191.26"/>
<polygon fill="none" stroke="black" stroke-width="3" points="1902.4,-190.44 1908.23,-186.2 1914.39,-189.95 1908.56,-194.19 1902.4,-190.44"/>
</g>
<!-- x17 -->
<g id="node34" class="node">
<title>x17</title>
<path fill="none" stroke="black" d="M2750.6,-142.84C2750.6,-142.84 2802.6,-142.84 2802.6,-142.84 2808.6,-142.84 2814.6,-148.84 2814.6,-154.84 2814.6,-154.84 2814.6,-228.84 2814.6,-228.84 2814.6,-234.84 2808.6,-240.84 2802.6,-240.84 2802.6,-240.84 2750.6,-240.84 2750.6,-240.84 2744.6,-240.84 2738.6,-234.84 2738.6,-228.84 2738.6,-228.84 2738.6,-154.84 2738.6,-154.84 2738.6,-148.84 2744.6,-142.84 2750.6,-142.84"/>
<text text-anchor="middle" x="2776.6" y="-223.54" font-family="Times,serif" font-size="14.00">8:8 &#45; 13:13</text>
<polyline fill="none" stroke="black" points="2738.6,-216.34 2814.6,-216.34"/>
<text text-anchor="middle" x="2776.6" y="-199.04" font-family="Times,serif" font-size="14.00">7:3 &#45; 11:7</text>
<polyline fill="none" stroke="black" points="2738.6,-191.84 2814.6,-191.84"/>
<text text-anchor="middle" x="2776.6" y="-174.54" font-family="Times,serif" font-size="14.00">2:2 &#45; 5:5</text>
<polyline fill="none" stroke="black" points="2738.6,-167.34 2814.6,-167.34"/>
<text text-anchor="middle" x="2776.6" y="-150.04" font-family="Times,serif" font-size="14.00">1:0 &#45; 3:2</text>
</g>
<!-- x16&#45;&gt;x17 -->
<g id="edge17" class="edge">
<title>x16:e&#45;&gt;x17:w</title>
<path fill="none" stroke="black" stroke-width="3" d="M2696.29,-191.84C2707.04,-191.84 2714.05,-191.84 2724.77,-191.84"/>
<polygon fill="none" stroke="black" stroke-width="3" points="2698.3,-191.84 2692.3,-195.84 2686.3,-191.84 2692.3,-187.84 2698.3,-191.84"/>
<polygon fill="none" stroke="black" stroke-width="3" points="2722.89,-191.84 2728.89,-187.84 2734.89,-191.84 2728.89,-195.84 2722.89,-191.84"/>
</g>
<!-- x17&#45;&gt;n3 -->
<g id="edge44" class="edge">
<title>x17:e&#45;&gt;n3:w</title>
<path fill="none" stroke="black" stroke-width="3" d="M2815.6,-155.09C2857.69,-155.09 2868.43,-175.77 2905.13,-179.32"/>
<polygon fill="black" stroke="black" stroke-width="3" points="2901.54,-182.66 2911.69,-179.63 2901.86,-175.67 2901.54,-182.66"/>
</g>
<!-- x17&#45;&gt;n3 -->
<g id="edge45" class="edge">
<title>x17:e&#45;&gt;n3:w</title>
<path fill="none" stroke="black" d="M2815.6,-179.59C2856.3,-179.59 2869.22,-179.8 2904.93,-179.84"/>
<polygon fill="black" stroke="black" points="2904.71,-183.34 2914.71,-179.84 2904.71,-176.34 2904.71,-183.34"/>
</g>
<!-- x17&#45;&gt;n3 -->
<g id="edge46" class="edge">
<title>x17:e&#45;&gt;n3:w</title>
<path fill="none" stroke="black" stroke-width="3" d="M2815.6,-204.09C2857.65,-204.09 2868.46,-183.83 2905.14,-180.35"/>
<polygon fill="black" stroke="black" stroke-width="3" points="2901.86,-184 2911.69,-180.05 2901.54,-177.01 2901.86,-184"/>
</g>
<!-- x17&#45;&gt;n3 -->
<g id="edge47" class="edge">
<title>x17:e&#45;&gt;n3:w</title>
<path fill="none" stroke="black" d="M2815.6,-228.59C2861.21,-228.59 2866,-187.51 2904.92,-180.77"/>
<polygon fill="black" stroke="black" points="2905.04,-184.27 2914.71,-179.97 2904.46,-177.3 2905.04,-184.27"/>
</g>
<!-- x19 -->
<g id="node36" class="node">
<title>x19</title>
<path fill="none" stroke="black" d="M1186.34,-178.84C1186.34,-178.84 1224.84,-178.84 1224.84,-178.84 1230.84,-178.84 1236.84,-184.84 1236.84,-190.84 1236.84,-190.84 1236.84,-202.84 1236.84,-202.84 1236.84,-208.84 1230.84,-214.84 1224.84,-214.84 1224.84,-214.84 1186.34,-214.84 1186.34,-214.84 1180.34,-214.84 1174.34,-208.84 1174.34,-202.84 1174.34,-202.84 1174.34,-190.84 1174.34,-190.84 1174.34,-184.84 1180.34,-178.84 1186.34,-178.84"/>
<text text-anchor="middle" x="1205.59" y="-192.04" font-family="Times,serif" font-size="14.00">2:0 &#45; 5:3</text>
</g>
<!-- x18&#45;&gt;x19 -->
<g id="edge18" class="edge">
<title>x18:e&#45;&gt;x19:w</title>
<path fill="none" stroke="black" stroke-width="3" d="M497.63,-202.8C574.37,-202.25 598.12,-196.84 680.84,-196.84 680.84,-196.84 680.84,-196.84 993.97,-196.84 1069.75,-196.84 1091.8,-196.84 1161.71,-196.84"/>
<polygon fill="none" stroke="black" stroke-width="3" points="499.55,-202.79 493.56,-206.81 487.55,-202.83 493.53,-198.81 499.55,-202.79"/>
<polygon fill="none" stroke="black" stroke-width="3" points="1159.64,-196.84 1165.64,-192.84 1171.64,-196.84 1165.64,-200.84 1159.64,-196.84"/>
</g>
<!-- x19&#45;&gt;n9 -->
<g id="edge69" class="edge">
<title>x19:e&#45;&gt;n9:w</title>
<path fill="none" stroke="black" stroke-width="3" d="M1236.84,-197.09C1414.75,-197.09 1461.62,-191.05 1636.09,-225.84 1648.11,-228.24 1652.76,-233.49 1660.88,-236.18"/>
<polygon fill="black" stroke="black" stroke-width="3" points="1657.2,-239.17 1667.6,-237.17 1658.22,-232.25 1657.2,-239.17"/>
</g>
<!-- v20 -->
<g id="node37" class="node">
<title>v20</title>
<ellipse fill="none" stroke="black" cx="992.97" cy="-289.84" rx="30.88" ry="18"/>
<text text-anchor="middle" x="992.97" y="-284.79" font-family="Times,serif" font-size="14.00">3&#39;000</text>
</g>
<!-- x21 -->
<g id="node38" class="node">
<title>x21</title>
<path fill="none" stroke="black" d="M1087.84,-272.84C1087.84,-272.84 1126.34,-272.84 1126.34,-272.84 1132.34,-272.84 1138.34,-278.84 1138.34,-284.84 1138.34,-284.84 1138.34,-296.84 1138.34,-296.84 1138.34,-302.84 1132.34,-308.84 1126.34,-308.84 1126.34,-308.84 1087.84,-308.84 1087.84,-308.84 1081.84,-308.84 1075.84,-302.84 1075.84,-296.84 1075.84,-296.84 1075.84,-284.84 1075.84,-284.84 1075.84,-278.84 1081.84,-272.84 1087.84,-272.84"/>
<text text-anchor="middle" x="1107.09" y="-286.04" font-family="Times,serif" font-size="14.00">2:0 &#45; 5:3</text>
</g>
<!-- v20&#45;&gt;x21 -->
<g id="edge73" class="edge">
<title>v20:e&#45;&gt;x21:w</title>
<path fill="none" stroke="black" stroke-width="3" d="M1025.14,-289.84C1043.45,-289.84 1050.6,-290.5 1064.72,-290.75"/>
<polygon fill="black" stroke="black" stroke-width="3" points="1061.27,-294.22 1071.3,-290.8 1061.33,-287.22 1061.27,-294.22"/>
</g>
<!-- x21&#45;&gt;n2 -->
<g id="edge37" class="edge">
<title>x21:e&#45;&gt;n2:w</title>
<path fill="none" stroke="black" stroke-width="3" d="M1138.34,-291.09C1162.55,-291.09 1171.3,-290.91 1190.92,-290.86"/>
<polygon fill="black" stroke="black" stroke-width="3" points="1187.78,-294.36 1197.77,-290.85 1187.77,-287.36 1187.78,-294.36"/>
</g>
<!-- v22 -->
<g id="node39" class="node">
<title>v22</title>
<ellipse fill="none" stroke="black" cx="567.72" cy="-333.84" rx="30.88" ry="18"/>
<text text-anchor="middle" x="567.72" y="-328.79" font-family="Times,serif" font-size="14.00">3&#39;000</text>
</g>
<!-- x23 -->
<g id="node40" class="node">
<title>x23</title>
<path fill="none" stroke="black" d="M662.59,-327.84C662.59,-327.84 701.09,-327.84 701.09,-327.84 707.09,-327.84 713.09,-333.84 713.09,-339.84 713.09,-339.84 713.09,-351.84 713.09,-351.84 713.09,-357.84 707.09,-363.84 701.09,-363.84 701.09,-363.84 662.59,-363.84 662.59,-363.84 656.59,-363.84 650.59,-357.84 650.59,-351.84 650.59,-351.84 650.59,-339.84 650.59,-339.84 650.59,-333.84 656.59,-327.84 662.59,-327.84"/>
<text text-anchor="middle" x="681.84" y="-341.04" font-family="Times,serif" font-size="14.00">2:0 &#45; 5:3</text>
</g>
<!-- v22&#45;&gt;x23 -->
<g id="edge74" class="edge">
<title>v22:e&#45;&gt;x23:w</title>
<path fill="none" stroke="black" stroke-width="3" d="M599.89,-333.84C618.7,-333.84 625.13,-341.76 639.3,-344.73"/>
<polygon fill="black" stroke="black" stroke-width="3" points="635.78,-347.91 646.07,-345.4 636.46,-340.94 635.78,-347.91"/>
</g>
<!-- x23&#45;&gt;n1 -->
<g id="edge20" class="edge">
<title>x23:e&#45;&gt;n1:w</title>
<path fill="none" stroke="black" stroke-width="3" d="M713.09,-346.09C738.23,-346.09 745.67,-358.35 765.69,-361.89"/>
<polygon fill="black" stroke="black" stroke-width="3" points="762.28,-365.12 772.54,-362.46 762.86,-358.14 762.28,-365.12"/>
</g>
<!-- n1&#45;&gt;x2 -->
<g id="edge21" class="edge">
<title>n1:e&#45;&gt;x2:w</title>
<path fill="none" stroke="black" stroke-width="3" d="M783.62,-362.84C807.83,-362.84 816.58,-363.02 836.2,-363.08"/>
<polygon fill="black" stroke="black" stroke-width="3" points="833.05,-366.57 843.05,-363.09 833.06,-359.57 833.05,-366.57"/>
</g>
<!-- n2&#45;&gt;x5 -->
<g id="edge39" class="edge">
<title>n2:e&#45;&gt;x5:w</title>
<path fill="none" stroke="black" stroke-width="3" d="M1208.87,-290.84C1250.22,-290.84 1263.34,-291.05 1299.62,-291.09"/>
<polygon fill="black" stroke="black" stroke-width="3" points="1296.55,-294.58 1306.55,-291.09 1296.55,-287.58 1296.55,-294.58"/>
</g>
<!-- n3&#45;&gt;x8 -->
<g id="edge48" class="edge">
<title>n3:e&#45;&gt;x8:w</title>
<path fill="none" stroke="black" stroke-width="3" d="M2922.78,-179.84C2960.84,-179.84 2970.47,-159.69 3002.98,-155.75"/>
<polygon fill="black" stroke="black" stroke-width="3" points="3000.09,-159.43 3009.87,-155.35 2999.69,-152.44 3000.09,-159.43"/>
</g>
<!-- n3&#45;&gt;x8 -->
<g id="edge49" class="edge">
<title>n3:e&#45;&gt;x8:w</title>
<path fill="none" stroke="black" d="M2922.78,-179.84C2959.53,-179.84 2971.4,-179.64 3003.29,-179.6"/>
<polygon fill="black" stroke="black" points="3002.9,-183.1 3012.89,-179.59 3002.89,-176.1 3002.9,-183.1"/>
</g>
<!-- n3&#45;&gt;x8 -->
<g id="edge50" class="edge">
<title>n3:e&#45;&gt;x8:w</title>
<path fill="none" stroke="black" d="M2922.78,-179.84C2960.79,-179.84 2970.51,-199.59 3003,-203.44"/>
<polygon fill="black" stroke="black" points="3002.71,-206.93 3012.9,-204.01 3003.11,-199.94 3002.71,-206.93"/>
</g>
<!-- n3&#45;&gt;x8 -->
<g id="edge51" class="edge">
<title>n3:e&#45;&gt;x8:w</title>
<path fill="none" stroke="black" d="M2922.78,-179.84C2964.76,-179.84 2968.01,-220.23 3003.04,-227.48"/>
<polygon fill="black" stroke="black" points="3002.61,-230.96 3012.9,-228.44 3003.29,-223.99 3002.61,-230.96"/>
</g>
</g>
</svg>
