<?xml version="1.0" encoding="UTF-8" standalone="no"?>
<!DOCTYPE svg PUBLIC "-//W3C//DTD SVG 1.1//EN"
 "http://www.w3.org/Graphics/SVG/1.1/DTD/svg11.dtd">
<!-- Generated by graphviz version 12.2.1 (20241206.2353)
 -->
<!-- Title: top Pages: 1 -->
<svg width="2216pt" height="423pt"
 viewBox="0.00 0.00 2216.30 423.28" xmlns="http://www.w3.org/2000/svg" xmlns:xlink="http://www.w3.org/1999/xlink">
<g id="graph0" class="graph" transform="scale(1 1) rotate(0) translate(4 419.28)">
<title>top</title>
<polygon fill="white" stroke="none" points="-4,4 -4,-419.28 2212.3,-419.28 2212.3,4 -4,4"/>
<text text-anchor="middle" x="1104.15" y="-7.2" font-family="Times,serif" font-size="14.00">top</text>
<!-- n9 -->
<g id="node1" class="node">
<title>n9</title>
<polygon fill="none" stroke="black" points="107.84,-207.32 107.84,-222.23 76.26,-232.78 31.59,-232.78 0,-222.23 0,-207.32 31.59,-196.78 76.26,-196.78 107.84,-207.32"/>
<text text-anchor="middle" x="53.92" y="-209.73" font-family="Times,serif" font-size="14.00">input_data</text>
</g>
<!-- c16 -->
<g id="node5" class="node">
<title>c16</title>
<polygon fill="none" stroke="black" points="274.72,-340.28 274.72,-389.28 368.47,-389.28 368.47,-340.28 274.72,-340.28"/>
<text text-anchor="middle" x="287.59" y="-371.98" font-family="Times,serif" font-size="14.00">A</text>
<polyline fill="none" stroke="black" points="274.72,-364.78 300.47,-364.78"/>
<text text-anchor="middle" x="287.59" y="-347.48" font-family="Times,serif" font-size="14.00">B</text>
<polyline fill="none" stroke="black" points="300.47,-340.28 300.47,-389.28"/>
<text text-anchor="middle" x="321.59" y="-367.98" font-family="Times,serif" font-size="14.00">$12</text>
<text text-anchor="middle" x="321.59" y="-351.48" font-family="Times,serif" font-size="14.00">$add</text>
<polyline fill="none" stroke="black" points="342.72,-340.28 342.72,-389.28"/>
<text text-anchor="middle" x="355.59" y="-359.98" font-family="Times,serif" font-size="14.00">Y</text>
</g>
<!-- n9&#45;&gt;c16 -->
<g id="edge32" class="edge">
<title>n9:e&#45;&gt;c16:w</title>
<path fill="none" stroke="black" stroke-width="3" d="M107.84,-214.78C159.7,-214.78 105.2,-291.19 143.84,-325.78 184.84,-362.48 211.12,-353.97 262.38,-352.68"/>
<polygon fill="black" stroke="black" stroke-width="3" points="259.22,-356.22 269.18,-352.59 259.13,-349.22 259.22,-356.22"/>
</g>
<!-- x0 -->
<g id="node6" class="node">
<title>x0</title>
<path fill="none" stroke="black" d="M171.47,-378.78C171.47,-378.78 209.97,-378.78 209.97,-378.78 215.97,-378.78 221.97,-384.78 221.97,-390.78 221.97,-390.78 221.97,-402.78 221.97,-402.78 221.97,-408.78 215.97,-414.78 209.97,-414.78 209.97,-414.78 171.47,-414.78 171.47,-414.78 165.47,-414.78 159.47,-408.78 159.47,-402.78 159.47,-402.78 159.47,-390.78 159.47,-390.78 159.47,-384.78 165.47,-378.78 171.47,-378.78"/>
<text text-anchor="middle" x="190.72" y="-391.98" font-family="Times,serif" font-size="14.00">2:0 &#45; 2:0</text>
</g>
<!-- n9&#45;&gt;x0 -->
<g id="edge41" class="edge">
<title>n9:e&#45;&gt;x0:w</title>
<path fill="none" stroke="black" stroke-width="3" d="M107.84,-214.78C187.64,-214.78 85.81,-378.99 147.17,-395.67"/>
<polygon fill="black" stroke="black" stroke-width="3" points="143.61,-398.76 153.96,-396.49 144.45,-391.81 143.61,-398.76"/>
</g>
<!-- c17 -->
<g id="node7" class="node">
<title>c17</title>
<polygon fill="none" stroke="black" points="405.59,-302.28 405.59,-351.28 499.34,-351.28 499.34,-302.28 405.59,-302.28"/>
<text text-anchor="middle" x="418.47" y="-333.98" font-family="Times,serif" font-size="14.00">A</text>
<polyline fill="none" stroke="black" points="405.59,-326.78 431.34,-326.78"/>
<text text-anchor="middle" x="418.47" y="-309.48" font-family="Times,serif" font-size="14.00">B</text>
<polyline fill="none" stroke="black" points="431.34,-302.28 431.34,-351.28"/>
<text text-anchor="middle" x="452.47" y="-329.98" font-family="Times,serif" font-size="14.00">$13</text>
<text text-anchor="middle" x="452.47" y="-313.48" font-family="Times,serif" font-size="14.00">$add</text>
<polyline fill="none" stroke="black" points="473.59,-302.28 473.59,-351.28"/>
<text text-anchor="middle" x="486.47" y="-321.98" font-family="Times,serif" font-size="14.00">Y</text>
</g>
<!-- n9&#45;&gt;c17 -->
<g id="edge33" class="edge">
<title>n9:e&#45;&gt;c17:w</title>
<path fill="none" stroke="black" stroke-width="3" d="M107.84,-214.78C144.02,-214.78 114.13,-267.14 143.84,-287.78 236.69,-352.29 285.36,-317.07 394.16,-314.66"/>
<polygon fill="black" stroke="black" stroke-width="3" points="391.09,-318.19 401.05,-314.58 391.01,-311.19 391.09,-318.19"/>
</g>
<!-- c18 -->
<g id="node8" class="node">
<title>c18</title>
<polygon fill="none" stroke="black" points="143.84,-158.28 143.84,-207.28 237.59,-207.28 237.59,-158.28 143.84,-158.28"/>
<text text-anchor="middle" x="156.72" y="-189.98" font-family="Times,serif" font-size="14.00">A</text>
<polyline fill="none" stroke="black" points="143.84,-182.78 169.59,-182.78"/>
<text text-anchor="middle" x="156.72" y="-165.48" font-family="Times,serif" font-size="14.00">B</text>
<polyline fill="none" stroke="black" points="169.59,-158.28 169.59,-207.28"/>
<text text-anchor="middle" x="190.72" y="-185.98" font-family="Times,serif" font-size="14.00">$1</text>
<text text-anchor="middle" x="190.72" y="-169.48" font-family="Times,serif" font-size="14.00">$and</text>
<polyline fill="none" stroke="black" points="211.84,-158.28 211.84,-207.28"/>
<text text-anchor="middle" x="224.72" y="-177.98" font-family="Times,serif" font-size="14.00">Y</text>
</g>
<!-- n9&#45;&gt;c18 -->
<g id="edge34" class="edge">
<title>n9:e&#45;&gt;c18:w</title>
<path fill="none" stroke="black" stroke-width="3" d="M107.84,-214.78C121.39,-214.78 124.6,-203.9 132.82,-198.29"/>
<polygon fill="black" stroke="black" stroke-width="3" points="130.89,-202.51 139.49,-196.32 128.9,-195.8 130.89,-202.51"/>
</g>
<!-- n9&#45;&gt;c18 -->
<g id="edge35" class="edge">
<title>n9:e&#45;&gt;c18:w</title>
<path fill="none" stroke="black" stroke-width="3" d="M107.84,-214.78C128.44,-214.78 122.59,-185.57 133.28,-174.61"/>
<polygon fill="black" stroke="black" stroke-width="3" points="131.54,-179.04 139.61,-172.17 129.02,-172.51 131.54,-179.04"/>
</g>
<!-- c19 -->
<g id="node9" class="node">
<title>c19</title>
<polygon fill="none" stroke="black" points="960.59,-95.28 960.59,-144.28 1048.34,-144.28 1048.34,-95.28 960.59,-95.28"/>
<text text-anchor="middle" x="973.47" y="-126.98" font-family="Times,serif" font-size="14.00">A</text>
<polyline fill="none" stroke="black" points="960.59,-119.78 986.34,-119.78"/>
<text text-anchor="middle" x="973.47" y="-102.48" font-family="Times,serif" font-size="14.00">B</text>
<polyline fill="none" stroke="black" points="986.34,-95.28 986.34,-144.28"/>
<text text-anchor="middle" x="1004.47" y="-122.98" font-family="Times,serif" font-size="14.00">$38</text>
<text text-anchor="middle" x="1004.47" y="-106.48" font-family="Times,serif" font-size="14.00">$or</text>
<polyline fill="none" stroke="black" points="1022.59,-95.28 1022.59,-144.28"/>
<text text-anchor="middle" x="1035.47" y="-114.98" font-family="Times,serif" font-size="14.00">Y</text>
</g>
<!-- n9&#45;&gt;c19 -->
<g id="edge36" class="edge">
<title>n9:e&#45;&gt;c19:w</title>
<path fill="none" stroke="black" stroke-width="3" d="M107.84,-214.78C151.75,-214.78 111.86,-152.86 143.84,-122.78 203.96,-66.22 238.05,-65.78 320.59,-65.78 320.59,-65.78 320.59,-65.78 795.84,-65.78 867.39,-65.78 883.44,-103.24 949.14,-107.19"/>
<polygon fill="black" stroke="black" stroke-width="3" points="945.95,-110.6 956.05,-107.4 946.16,-103.6 945.95,-110.6"/>
</g>
<!-- c20 -->
<g id="node11" class="node">
<title>c20</title>
<polygon fill="none" stroke="black" points="633.84,-264.28 633.84,-313.28 727.59,-313.28 727.59,-264.28 633.84,-264.28"/>
<text text-anchor="middle" x="646.72" y="-295.98" font-family="Times,serif" font-size="14.00">A</text>
<polyline fill="none" stroke="black" points="633.84,-288.78 659.59,-288.78"/>
<text text-anchor="middle" x="646.72" y="-271.48" font-family="Times,serif" font-size="14.00">B</text>
<polyline fill="none" stroke="black" points="659.59,-264.28 659.59,-313.28"/>
<text text-anchor="middle" x="680.72" y="-291.98" font-family="Times,serif" font-size="14.00">$48</text>
<text text-anchor="middle" x="680.72" y="-275.48" font-family="Times,serif" font-size="14.00">$and</text>
<polyline fill="none" stroke="black" points="701.84,-264.28 701.84,-313.28"/>
<text text-anchor="middle" x="714.72" y="-283.98" font-family="Times,serif" font-size="14.00">Y</text>
</g>
<!-- n9&#45;&gt;c20 -->
<g id="edge37" class="edge">
<title>n9:e&#45;&gt;c20:w</title>
<path fill="none" stroke="black" stroke-width="3" d="M107.84,-214.78C130.16,-214.78 123.78,-240.01 143.84,-249.78 215.12,-284.49 241.31,-273.78 320.59,-273.78 320.59,-273.78 320.59,-273.78 453.47,-273.78 529.73,-273.78 551.57,-276.27 622.51,-276.51"/>
<polygon fill="black" stroke="black" stroke-width="3" points="619.29,-280 629.3,-276.52 619.31,-273 619.29,-280"/>
</g>
<!-- c21 -->
<g id="node14" class="node">
<title>c21</title>
<polygon fill="none" stroke="black" points="1084.34,-223.28 1084.34,-272.28 1178.09,-272.28 1178.09,-223.28 1084.34,-223.28"/>
<text text-anchor="middle" x="1097.22" y="-254.98" font-family="Times,serif" font-size="14.00">A</text>
<polyline fill="none" stroke="black" points="1084.34,-247.78 1110.09,-247.78"/>
<text text-anchor="middle" x="1097.22" y="-230.48" font-family="Times,serif" font-size="14.00">B</text>
<polyline fill="none" stroke="black" points="1110.09,-223.28 1110.09,-272.28"/>
<text text-anchor="middle" x="1131.22" y="-250.98" font-family="Times,serif" font-size="14.00">$52</text>
<text text-anchor="middle" x="1131.22" y="-234.48" font-family="Times,serif" font-size="14.00">$and</text>
<polyline fill="none" stroke="black" points="1152.34,-223.28 1152.34,-272.28"/>
<text text-anchor="middle" x="1165.22" y="-242.98" font-family="Times,serif" font-size="14.00">Y</text>
</g>
<!-- n9&#45;&gt;c21 -->
<g id="edge38" class="edge">
<title>n9:e&#45;&gt;c21:w</title>
<path fill="none" stroke="black" stroke-width="3" d="M107.84,-214.78C155.35,-214.78 273.08,-235.78 320.59,-235.78 320.59,-235.78 320.59,-235.78 894.34,-235.78 974.83,-235.78 997.78,-235.55 1072.87,-235.53"/>
<polygon fill="black" stroke="black" stroke-width="3" points="1069.8,-239.03 1079.8,-235.53 1069.8,-232.03 1069.8,-239.03"/>
</g>
<!-- c22 -->
<g id="node17" class="node">
<title>c22</title>
<polygon fill="none" stroke="black" points="273.59,-117.28 273.59,-166.28 369.59,-166.28 369.59,-117.28 273.59,-117.28"/>
<text text-anchor="middle" x="286.47" y="-148.98" font-family="Times,serif" font-size="14.00">A</text>
<polyline fill="none" stroke="black" points="273.59,-141.78 299.34,-141.78"/>
<text text-anchor="middle" x="286.47" y="-124.48" font-family="Times,serif" font-size="14.00">B</text>
<polyline fill="none" stroke="black" points="299.34,-117.28 299.34,-166.28"/>
<text text-anchor="middle" x="321.59" y="-144.98" font-family="Times,serif" font-size="14.00">$2</text>
<text text-anchor="middle" x="321.59" y="-128.48" font-family="Times,serif" font-size="14.00">$mul</text>
<polyline fill="none" stroke="black" points="343.84,-117.28 343.84,-166.28"/>
<text text-anchor="middle" x="356.72" y="-136.98" font-family="Times,serif" font-size="14.00">Y</text>
</g>
<!-- n9&#45;&gt;c22 -->
<g id="edge39" class="edge">
<title>n9:e&#45;&gt;c22:w</title>
<path fill="none" stroke="black" stroke-width="3" d="M107.84,-214.78C141.25,-214.78 116.44,-167.9 143.84,-148.78 188.38,-117.69 211.95,-127.82 262.1,-129.35"/>
<polygon fill="black" stroke="black" stroke-width="3" points="259,-132.8 269.05,-129.46 259.11,-125.8 259,-132.8"/>
</g>
<!-- c23 -->
<g id="node19" class="node">
<title>c23</title>
<polygon fill="none" stroke="black" points="1214.09,-129.28 1214.09,-178.28 1310.09,-178.28 1310.09,-129.28 1214.09,-129.28"/>
<text text-anchor="middle" x="1226.97" y="-160.98" font-family="Times,serif" font-size="14.00">A</text>
<polyline fill="none" stroke="black" points="1214.09,-153.78 1239.84,-153.78"/>
<text text-anchor="middle" x="1226.97" y="-136.48" font-family="Times,serif" font-size="14.00">B</text>
<polyline fill="none" stroke="black" points="1239.84,-129.28 1239.84,-178.28"/>
<text text-anchor="middle" x="1262.09" y="-156.98" font-family="Times,serif" font-size="14.00">$4</text>
<text text-anchor="middle" x="1262.09" y="-140.48" font-family="Times,serif" font-size="14.00">$mul</text>
<polyline fill="none" stroke="black" points="1284.34,-129.28 1284.34,-178.28"/>
<text text-anchor="middle" x="1297.22" y="-148.98" font-family="Times,serif" font-size="14.00">Y</text>
</g>
<!-- n9&#45;&gt;c23 -->
<g id="edge40" class="edge">
<title>n9:e&#45;&gt;c23:w</title>
<path fill="none" stroke="black" stroke-width="3" d="M107.84,-214.78C175.97,-214.78 95.06,-113.34 143.84,-65.78 201.37,-9.69 240.24,-27.78 320.59,-27.78 320.59,-27.78 320.59,-27.78 1005.47,-27.78 1054.76,-27.78 1147.83,-126.92 1202.94,-140.09"/>
<polygon fill="black" stroke="black" stroke-width="3" points="1199.22,-143.14 1209.59,-140.95 1200.12,-136.2 1199.22,-143.14"/>
</g>
<!-- n10 -->
<g id="node2" class="node">
<title>n10</title>
<polygon fill="none" stroke="black" points="2208.3,-204.32 2208.3,-219.23 2173.79,-229.78 2125,-229.78 2090.49,-219.23 2090.49,-204.32 2125,-193.78 2173.79,-193.78 2208.3,-204.32"/>
<text text-anchor="middle" x="2149.4" y="-206.73" font-family="Times,serif" font-size="14.00">output_data</text>
</g>
<!-- n11 -->
<g id="node3" class="node">
<title>n11</title>
<polygon fill="none" stroke="black" points="1673.24,-199.78 1617.99,-181.78 1673.24,-163.78 1728.49,-181.78 1673.24,-199.78"/>
<text text-anchor="middle" x="1673.24" y="-176.73" font-family="Times,serif" font-size="14.00">temp_3</text>
</g>
<!-- c25 -->
<g id="node25" class="node">
<title>c25</title>
<polygon fill="none" stroke="black" points="1961.49,-187.28 1961.49,-236.28 2054.49,-236.28 2054.49,-187.28 1961.49,-187.28"/>
<text text-anchor="middle" x="1974.36" y="-218.98" font-family="Times,serif" font-size="14.00">A</text>
<polyline fill="none" stroke="black" points="1961.49,-211.78 1987.24,-211.78"/>
<text text-anchor="middle" x="1974.36" y="-194.48" font-family="Times,serif" font-size="14.00">B</text>
<polyline fill="none" stroke="black" points="1987.24,-187.28 1987.24,-236.28"/>
<text text-anchor="middle" x="2007.99" y="-214.98" font-family="Times,serif" font-size="14.00">$21</text>
<text text-anchor="middle" x="2007.99" y="-198.48" font-family="Times,serif" font-size="14.00">$sub</text>
<polyline fill="none" stroke="black" points="2028.74,-187.28 2028.74,-236.28"/>
<text text-anchor="middle" x="2041.61" y="-206.98" font-family="Times,serif" font-size="14.00">Y</text>
</g>
<!-- n11&#45;&gt;c25 -->
<g id="edge15" class="edge">
<title>n11:e&#45;&gt;c25:w</title>
<path fill="none" stroke="black" stroke-width="3" d="M1728.49,-181.78C1828.49,-181.78 1855.65,-198.24 1950.24,-199.46"/>
<polygon fill="black" stroke="black" stroke-width="3" points="1946.93,-202.94 1956.95,-199.5 1946.97,-195.94 1946.93,-202.94"/>
</g>
<!-- n12 -->
<g id="node4" class="node">
<title>n12</title>
<polygon fill="none" stroke="black" points="1401.34,-265.78 1346.09,-247.78 1401.34,-229.78 1456.59,-247.78 1401.34,-265.78"/>
<text text-anchor="middle" x="1401.34" y="-242.73" font-family="Times,serif" font-size="14.00">temp_5</text>
</g>
<!-- x9 -->
<g id="node23" class="node">
<title>x9</title>
<path fill="none" stroke="black" d="M1518.04,-208.28C1518.04,-208.28 1556.54,-208.28 1556.54,-208.28 1562.54,-208.28 1568.54,-214.28 1568.54,-220.28 1568.54,-220.28 1568.54,-245.28 1568.54,-245.28 1568.54,-251.28 1562.54,-257.28 1556.54,-257.28 1556.54,-257.28 1518.04,-257.28 1518.04,-257.28 1512.04,-257.28 1506.04,-251.28 1506.04,-245.28 1506.04,-245.28 1506.04,-220.28 1506.04,-220.28 1506.04,-214.28 1512.04,-208.28 1518.04,-208.28"/>
<text text-anchor="middle" x="1537.29" y="-239.98" font-family="Times,serif" font-size="14.00">0 &#45;&gt; 5:4</text>
<polyline fill="none" stroke="black" points="1506.04,-232.78 1568.54,-232.78"/>
<text text-anchor="middle" x="1537.29" y="-215.48" font-family="Times,serif" font-size="14.00">3:0 &#45; 3:0</text>
</g>
<!-- n12&#45;&gt;x9 -->
<g id="edge18" class="edge">
<title>n12:e&#45;&gt;x9:w</title>
<path fill="none" stroke="black" stroke-width="3" d="M1456.59,-247.78C1476.86,-247.78 1479.85,-229.44 1493.91,-222.85"/>
<polygon fill="black" stroke="black" stroke-width="3" points="1491.52,-226.93 1500.6,-221.46 1490.09,-220.07 1491.52,-226.93"/>
</g>
<!-- c16&#45;&gt;c17 -->
<g id="edge12" class="edge">
<title>c16:e&#45;&gt;c17:w</title>
<path fill="none" stroke="black" stroke-width="3" d="M369.47,-365.03C384.61,-365.03 386.15,-349.79 394.91,-342.64"/>
<polygon fill="black" stroke="black" stroke-width="3" points="392.94,-347.01 401.29,-340.48 390.7,-340.38 392.94,-347.01"/>
</g>
<!-- x0&#45;&gt;c16 -->
<g id="edge1" class="edge">
<title>x0:e&#45;&gt;c16:w</title>
<path fill="none" stroke="black" stroke-width="3" d="M235.77,-394.51C245.58,-390.7 251.15,-383.06 260.98,-379.27"/>
<polygon fill="none" stroke="black" stroke-width="3" points="237.45,-394.22 232.23,-399.2 225.63,-396.31 230.84,-391.32 237.45,-394.22"/>
<polygon fill="none" stroke="black" stroke-width="3" points="259.23,-379.57 264.45,-374.6 271.05,-377.5 265.84,-382.48 259.23,-379.57"/>
</g>
<!-- x2 -->
<g id="node12" class="node">
<title>x2</title>
<path fill="none" stroke="black" d="M547.34,-305.78C547.34,-305.78 585.84,-305.78 585.84,-305.78 591.84,-305.78 597.84,-311.78 597.84,-317.78 597.84,-317.78 597.84,-329.78 597.84,-329.78 597.84,-335.78 591.84,-341.78 585.84,-341.78 585.84,-341.78 547.34,-341.78 547.34,-341.78 541.34,-341.78 535.34,-335.78 535.34,-329.78 535.34,-329.78 535.34,-317.78 535.34,-317.78 535.34,-311.78 541.34,-305.78 547.34,-305.78"/>
<text text-anchor="middle" x="566.59" y="-318.98" font-family="Times,serif" font-size="14.00">3:0 &#45; 3:0</text>
</g>
<!-- c17&#45;&gt;x2 -->
<g id="edge19" class="edge">
<title>c17:e&#45;&gt;x2:w</title>
<path fill="none" stroke="black" stroke-width="3" d="M499.34,-327.03C510.76,-327.03 516.02,-325.51 523.88,-324.64"/>
<polygon fill="black" stroke="black" stroke-width="3" points="521.01,-328.29 530.81,-324.27 520.64,-321.3 521.01,-328.29"/>
</g>
<!-- c18&#45;&gt;c22 -->
<g id="edge20" class="edge">
<title>c18:e&#45;&gt;c22:w</title>
<path fill="none" stroke="black" stroke-width="3" d="M237.59,-183.03C253.48,-183.03 254.04,-165.68 262.98,-157.82"/>
<polygon fill="black" stroke="black" stroke-width="3" points="261.08,-162.22 269.31,-155.56 258.72,-155.62 261.08,-162.22"/>
</g>
<!-- x7 -->
<g id="node20" class="node">
<title>x7</title>
<path fill="none" stroke="black" d="M1111.97,-141.28C1111.97,-141.28 1150.47,-141.28 1150.47,-141.28 1156.47,-141.28 1162.47,-147.28 1162.47,-153.28 1162.47,-153.28 1162.47,-178.28 1162.47,-178.28 1162.47,-184.28 1156.47,-190.28 1150.47,-190.28 1150.47,-190.28 1111.97,-190.28 1111.97,-190.28 1105.97,-190.28 1099.97,-184.28 1099.97,-178.28 1099.97,-178.28 1099.97,-153.28 1099.97,-153.28 1099.97,-147.28 1105.97,-141.28 1111.97,-141.28"/>
<text text-anchor="middle" x="1131.22" y="-172.98" font-family="Times,serif" font-size="14.00">3:0 &#45; 7:4</text>
<polyline fill="none" stroke="black" points="1099.97,-165.78 1162.47,-165.78"/>
<text text-anchor="middle" x="1131.22" y="-148.48" font-family="Times,serif" font-size="14.00">3:0 &#45; 3:0</text>
</g>
<!-- c19&#45;&gt;x7 -->
<g id="edge24" class="edge">
<title>c19:e&#45;&gt;x7:w</title>
<path fill="none" stroke="black" stroke-width="3" d="M1048.34,-120.03C1070.89,-120.03 1072.26,-143.44 1087.87,-151.12"/>
<polygon fill="black" stroke="black" stroke-width="3" points="1084.01,-153.86 1094.53,-152.57 1085.5,-147.02 1084.01,-153.86"/>
</g>
<!-- x1 -->
<g id="node10" class="node">
<title>x1</title>
<path fill="none" stroke="black" d="M874.09,-113.78C874.09,-113.78 912.59,-113.78 912.59,-113.78 918.59,-113.78 924.59,-119.78 924.59,-125.78 924.59,-125.78 924.59,-137.78 924.59,-137.78 924.59,-143.78 918.59,-149.78 912.59,-149.78 912.59,-149.78 874.09,-149.78 874.09,-149.78 868.09,-149.78 862.09,-143.78 862.09,-137.78 862.09,-137.78 862.09,-125.78 862.09,-125.78 862.09,-119.78 868.09,-113.78 874.09,-113.78"/>
<text text-anchor="middle" x="893.34" y="-126.98" font-family="Times,serif" font-size="14.00">3:0 &#45; 3:0</text>
</g>
<!-- x1&#45;&gt;c19 -->
<g id="edge2" class="edge">
<title>x1:e&#45;&gt;c19:w</title>
<path fill="none" stroke="black" stroke-width="3" d="M937.31,-131.84C940.91,-131.88 944.04,-131.93 947.62,-131.96"/>
<polygon fill="none" stroke="black" stroke-width="3" points="939.29,-131.85 933.28,-135.82 927.3,-131.79 933.31,-127.82 939.29,-131.85"/>
<polygon fill="none" stroke="black" stroke-width="3" points="945.89,-131.95 951.91,-127.99 957.89,-132.02 951.87,-135.98 945.89,-131.95"/>
</g>
<!-- x3 -->
<g id="node13" class="node">
<title>x3</title>
<path fill="none" stroke="black" d="M775.59,-270.78C775.59,-270.78 814.09,-270.78 814.09,-270.78 820.09,-270.78 826.09,-276.78 826.09,-282.78 826.09,-282.78 826.09,-294.78 826.09,-294.78 826.09,-300.78 820.09,-306.78 814.09,-306.78 814.09,-306.78 775.59,-306.78 775.59,-306.78 769.59,-306.78 763.59,-300.78 763.59,-294.78 763.59,-294.78 763.59,-282.78 763.59,-282.78 763.59,-276.78 769.59,-270.78 775.59,-270.78"/>
<text text-anchor="middle" x="794.84" y="-283.98" font-family="Times,serif" font-size="14.00">3:0 &#45; 3:0</text>
</g>
<!-- c20&#45;&gt;x3 -->
<g id="edge4" class="edge">
<title>c20:e&#45;&gt;x3:w</title>
<path fill="none" stroke="black" stroke-width="3" d="M740.31,-288.97C743.91,-288.93 747.04,-288.88 750.62,-288.84"/>
<polygon fill="none" stroke="black" stroke-width="3" points="742.29,-288.96 736.31,-292.99 730.3,-289.02 736.28,-284.99 742.29,-288.96"/>
<polygon fill="none" stroke="black" stroke-width="3" points="748.89,-288.85 754.87,-284.82 760.89,-288.79 754.91,-292.82 748.89,-288.85"/>
</g>
<!-- x2&#45;&gt;c20 -->
<g id="edge3" class="edge">
<title>x2:e&#45;&gt;c20:w</title>
<path fill="none" stroke="black" stroke-width="3" d="M609.8,-319.39C614.41,-315.36 617.28,-309.43 621.89,-305.4"/>
<polygon fill="none" stroke="black" stroke-width="3" points="611.65,-318.72 607.39,-324.54 600.38,-322.85 604.64,-317.03 611.65,-318.72"/>
<polygon fill="none" stroke="black" stroke-width="3" points="620.03,-306.08 624.29,-300.26 631.3,-301.96 627.04,-307.78 620.03,-306.08"/>
</g>
<!-- n4 -->
<g id="node32" class="node">
<title>n4</title>
<ellipse fill="black" stroke="black" cx="893.34" cy="-288.78" rx="1.8" ry="1.8"/>
</g>
<!-- x3&#45;&gt;n4 -->
<g id="edge22" class="edge">
<title>x3:e&#45;&gt;n4:w</title>
<path fill="none" stroke="black" stroke-width="3" d="M826.09,-289.03C850.3,-289.03 859.05,-288.85 878.67,-288.79"/>
<polygon fill="black" stroke="black" stroke-width="3" points="875.53,-292.3 885.52,-288.79 875.52,-285.3 875.53,-292.3"/>
</g>
<!-- x5 -->
<g id="node16" class="node">
<title>x5</title>
<path fill="none" stroke="black" d="M1242.84,-229.78C1242.84,-229.78 1281.34,-229.78 1281.34,-229.78 1287.34,-229.78 1293.34,-235.78 1293.34,-241.78 1293.34,-241.78 1293.34,-253.78 1293.34,-253.78 1293.34,-259.78 1287.34,-265.78 1281.34,-265.78 1281.34,-265.78 1242.84,-265.78 1242.84,-265.78 1236.84,-265.78 1230.84,-259.78 1230.84,-253.78 1230.84,-253.78 1230.84,-241.78 1230.84,-241.78 1230.84,-235.78 1236.84,-229.78 1242.84,-229.78"/>
<text text-anchor="middle" x="1262.09" y="-242.98" font-family="Times,serif" font-size="14.00">3:0 &#45; 3:0</text>
</g>
<!-- c21&#45;&gt;x5 -->
<g id="edge6" class="edge">
<title>c21:e&#45;&gt;x5:w</title>
<path fill="none" stroke="black" stroke-width="3" d="M1191.07,-248C1200.67,-247.95 1207.22,-247.86 1216.81,-247.81"/>
<polygon fill="none" stroke="black" stroke-width="3" points="1192.79,-247.99 1186.8,-252.01 1180.8,-248.02 1186.79,-244.01 1192.79,-247.99"/>
<polygon fill="none" stroke="black" stroke-width="3" points="1215.14,-247.81 1221.13,-243.8 1227.14,-247.79 1221.15,-251.8 1215.14,-247.81"/>
</g>
<!-- x4 -->
<g id="node15" class="node">
<title>x4</title>
<path fill="none" stroke="black" d="M985.22,-267.78C985.22,-267.78 1023.72,-267.78 1023.72,-267.78 1029.72,-267.78 1035.72,-273.78 1035.72,-279.78 1035.72,-279.78 1035.72,-291.78 1035.72,-291.78 1035.72,-297.78 1029.72,-303.78 1023.72,-303.78 1023.72,-303.78 985.22,-303.78 985.22,-303.78 979.22,-303.78 973.22,-297.78 973.22,-291.78 973.22,-291.78 973.22,-279.78 973.22,-279.78 973.22,-273.78 979.22,-267.78 985.22,-267.78"/>
<text text-anchor="middle" x="1004.47" y="-280.98" font-family="Times,serif" font-size="14.00">3:0 &#45; 3:0</text>
</g>
<!-- x4&#45;&gt;c21 -->
<g id="edge5" class="edge">
<title>x4:e&#45;&gt;c21:w</title>
<path fill="none" stroke="black" stroke-width="3" d="M1049.13,-282.83C1058.23,-277.91 1062.67,-268.1 1071.7,-263.11"/>
<polygon fill="none" stroke="black" stroke-width="3" points="1051.02,-282.37 1046.11,-287.65 1039.35,-285.15 1044.26,-279.87 1051.02,-282.37"/>
<polygon fill="none" stroke="black" stroke-width="3" points="1070.05,-263.51 1074.94,-258.2 1081.71,-260.67 1076.83,-265.98 1070.05,-263.51"/>
</g>
<!-- x5&#45;&gt;n12 -->
<g id="edge17" class="edge">
<title>x5:e&#45;&gt;n12:w</title>
<path fill="none" stroke="black" stroke-width="3" d="M1294.34,-248.03C1313.03,-248.03 1320.33,-247.86 1334.75,-247.8"/>
<polygon fill="black" stroke="black" stroke-width="3" points="1331.56,-251.31 1341.55,-247.79 1331.54,-244.31 1331.56,-251.31"/>
</g>
<!-- x6 -->
<g id="node18" class="node">
<title>x6</title>
<path fill="none" stroke="black" d="M433.22,-116.28C433.22,-116.28 471.72,-116.28 471.72,-116.28 477.72,-116.28 483.72,-122.28 483.72,-128.28 483.72,-128.28 483.72,-153.28 483.72,-153.28 483.72,-159.28 477.72,-165.28 471.72,-165.28 471.72,-165.28 433.22,-165.28 433.22,-165.28 427.22,-165.28 421.22,-159.28 421.22,-153.28 421.22,-153.28 421.22,-128.28 421.22,-128.28 421.22,-122.28 427.22,-116.28 433.22,-116.28"/>
<text text-anchor="middle" x="452.47" y="-147.98" font-family="Times,serif" font-size="14.00">7:4 &#45; 3:0</text>
<polyline fill="none" stroke="black" points="421.22,-140.78 483.72,-140.78"/>
<text text-anchor="middle" x="452.47" y="-123.48" font-family="Times,serif" font-size="14.00">3:0 &#45; 3:0</text>
</g>
<!-- c22&#45;&gt;x6 -->
<g id="edge7" class="edge">
<title>c22:e&#45;&gt;x6:w</title>
<path fill="none" stroke="black" stroke-width="3" d="M382.29,-141.88C391.68,-141.64 398.08,-141.17 407.47,-140.93"/>
<polygon fill="none" stroke="black" stroke-width="3" points="384.29,-141.85 378.34,-145.92 372.29,-142 378.25,-137.92 384.29,-141.85"/>
<polygon fill="none" stroke="black" stroke-width="3" points="405.51,-140.96 411.46,-136.88 417.51,-140.81 411.56,-144.88 405.51,-140.96"/>
</g>
<!-- n6 -->
<g id="node33" class="node">
<title>n6</title>
<ellipse fill="black" stroke="black" cx="566.59" cy="-152.78" rx="1.8" ry="1.8"/>
</g>
<!-- x6&#45;&gt;n6 -->
<g id="edge25" class="edge">
<title>x6:e&#45;&gt;n6:w</title>
<path fill="none" stroke="black" stroke-width="3" d="M484.72,-153.03C515.55,-153.03 525.97,-152.83 552.03,-152.79"/>
<polygon fill="black" stroke="black" stroke-width="3" points="548.78,-156.29 558.77,-152.78 548.77,-149.29 548.78,-156.29"/>
</g>
<!-- n7 -->
<g id="node34" class="node">
<title>n7</title>
<ellipse fill="black" stroke="black" cx="794.84" cy="-131.78" rx="1.8" ry="1.8"/>
</g>
<!-- x6&#45;&gt;n7 -->
<g id="edge29" class="edge">
<title>x6:e&#45;&gt;n7:w</title>
<path fill="none" stroke="black" stroke-width="3" d="M484.72,-128.53C592.68,-128.53 619.83,-117.07 727.59,-123.78 751.94,-125.3 760.43,-130.03 780.11,-131.4"/>
<polygon fill="black" stroke="black" stroke-width="3" points="776.92,-134.8 787.02,-131.63 777.14,-127.8 776.92,-134.8"/>
</g>
<!-- c23&#45;&gt;n11 -->
<g id="edge14" class="edge">
<title>c23:e&#45;&gt;n11:w</title>
<path fill="none" stroke="black" stroke-width="3" d="M1310.09,-154.03C1443.6,-154.03 1478.63,-180.23 1606.56,-181.71"/>
<polygon fill="black" stroke="black" stroke-width="3" points="1603.43,-185.2 1613.45,-181.75 1603.47,-178.2 1603.43,-185.2"/>
</g>
<!-- x7&#45;&gt;c23 -->
<g id="edge8" class="edge">
<title>x7:e&#45;&gt;c23:w</title>
<path fill="none" stroke="black" stroke-width="3" d="M1176.16,-165.81C1185.46,-165.86 1191.82,-165.95 1201.04,-166"/>
<polygon fill="none" stroke="black" stroke-width="3" points="1178.17,-165.81 1172.16,-169.8 1166.17,-165.79 1172.18,-161.8 1178.17,-165.81"/>
<polygon fill="none" stroke="black" stroke-width="3" points="1199.39,-165.99 1205.4,-162.01 1211.39,-166.02 1205.38,-170.01 1199.39,-165.99"/>
</g>
<!-- v8 -->
<g id="node21" class="node">
<title>v8</title>
<ellipse fill="none" stroke="black" cx="1537.29" cy="-293.78" rx="44.7" ry="18"/>
<text text-anchor="middle" x="1537.29" y="-288.73" font-family="Times,serif" font-size="14.00">6&#39;000000</text>
</g>
<!-- c24 -->
<g id="node22" class="node">
<title>c24</title>
<polygon fill="none" stroke="black" points="1626.74,-220.28 1626.74,-269.28 1719.74,-269.28 1719.74,-220.28 1626.74,-220.28"/>
<text text-anchor="middle" x="1639.61" y="-251.98" font-family="Times,serif" font-size="14.00">A</text>
<polyline fill="none" stroke="black" points="1626.74,-244.78 1652.49,-244.78"/>
<text text-anchor="middle" x="1639.61" y="-227.48" font-family="Times,serif" font-size="14.00">B</text>
<polyline fill="none" stroke="black" points="1652.49,-220.28 1652.49,-269.28"/>
<text text-anchor="middle" x="1673.24" y="-247.98" font-family="Times,serif" font-size="14.00">$20</text>
<text text-anchor="middle" x="1673.24" y="-231.48" font-family="Times,serif" font-size="14.00">$sub</text>
<polyline fill="none" stroke="black" points="1693.99,-220.28 1693.99,-269.28"/>
<text text-anchor="middle" x="1706.86" y="-239.98" font-family="Times,serif" font-size="14.00">Y</text>
</g>
<!-- v8&#45;&gt;c24 -->
<g id="edge44" class="edge">
<title>v8:e&#45;&gt;c24:w</title>
<path fill="none" stroke="black" stroke-width="3" d="M1581.99,-293.78C1602.82,-293.78 1601.83,-269.05 1614.81,-260.16"/>
<polygon fill="black" stroke="black" stroke-width="3" points="1612.73,-264.4 1621.37,-258.28 1610.8,-257.67 1612.73,-264.4"/>
</g>
<!-- x10 -->
<g id="node24" class="node">
<title>x10</title>
<path fill="none" stroke="black" d="M1776.49,-223.78C1776.49,-223.78 1814.99,-223.78 1814.99,-223.78 1820.99,-223.78 1826.99,-229.78 1826.99,-235.78 1826.99,-235.78 1826.99,-247.78 1826.99,-247.78 1826.99,-253.78 1820.99,-259.78 1814.99,-259.78 1814.99,-259.78 1776.49,-259.78 1776.49,-259.78 1770.49,-259.78 1764.49,-253.78 1764.49,-247.78 1764.49,-247.78 1764.49,-235.78 1764.49,-235.78 1764.49,-229.78 1770.49,-223.78 1776.49,-223.78"/>
<text text-anchor="middle" x="1795.74" y="-236.98" font-family="Times,serif" font-size="14.00">5:0 &#45; 5:0</text>
</g>
<!-- c24&#45;&gt;x10 -->
<g id="edge10" class="edge">
<title>c24:e&#45;&gt;x10:w</title>
<path fill="none" stroke="black" stroke-width="3" d="M1733.71,-244.46C1740.17,-243.87 1745.11,-242.93 1751.59,-242.34"/>
<polygon fill="none" stroke="black" stroke-width="3" points="1735.43,-244.39 1729.61,-248.65 1723.44,-244.91 1729.26,-240.65 1735.43,-244.39"/>
<polygon fill="none" stroke="black" stroke-width="3" points="1749.8,-242.42 1755.62,-238.16 1761.79,-241.9 1755.97,-246.15 1749.8,-242.42"/>
</g>
<!-- x9&#45;&gt;c24 -->
<g id="edge9" class="edge">
<title>x9:e&#45;&gt;c24:w</title>
<path fill="none" stroke="black" stroke-width="3" d="M1582.31,-232.75C1593.95,-232.71 1601.35,-232.6 1612.99,-232.55"/>
<polygon fill="none" stroke="black" stroke-width="3" points="1584.24,-232.75 1578.25,-236.76 1572.24,-232.77 1578.24,-228.76 1584.24,-232.75"/>
<polygon fill="none" stroke="black" stroke-width="3" points="1611.03,-232.56 1617.03,-228.55 1623.03,-232.53 1617.04,-236.55 1611.03,-232.56"/>
</g>
<!-- x11 -->
<g id="node26" class="node">
<title>x11</title>
<path fill="none" stroke="black" d="M1874.99,-220.78C1874.99,-220.78 1913.49,-220.78 1913.49,-220.78 1919.49,-220.78 1925.49,-226.78 1925.49,-232.78 1925.49,-232.78 1925.49,-244.78 1925.49,-244.78 1925.49,-250.78 1919.49,-256.78 1913.49,-256.78 1913.49,-256.78 1874.99,-256.78 1874.99,-256.78 1868.99,-256.78 1862.99,-250.78 1862.99,-244.78 1862.99,-244.78 1862.99,-232.78 1862.99,-232.78 1862.99,-226.78 1868.99,-220.78 1874.99,-220.78"/>
<text text-anchor="middle" x="1894.24" y="-233.98" font-family="Times,serif" font-size="14.00">5:0 &#45; 5:0</text>
</g>
<!-- x10&#45;&gt;x11 -->
<g id="edge31" class="edge">
<title>x10:e&#45;&gt;x11:w</title>
<path fill="none" stroke="black" stroke-width="3" d="M1826.99,-242.03C1838.4,-242.03 1843.67,-240.51 1851.53,-239.64"/>
<polygon fill="black" stroke="black" stroke-width="3" points="1848.65,-243.29 1858.45,-239.27 1848.28,-236.3 1848.65,-243.29"/>
</g>
<!-- c25&#45;&gt;n10 -->
<g id="edge13" class="edge">
<title>c25:e&#45;&gt;n10:w</title>
<path fill="none" stroke="black" stroke-width="3" d="M2054.49,-212.03C2065.86,-212.03 2071.17,-211.9 2079.04,-211.83"/>
<polygon fill="black" stroke="black" stroke-width="3" points="2075.96,-215.34 2085.95,-211.8 2075.93,-208.34 2075.96,-215.34"/>
</g>
<!-- x11&#45;&gt;c25 -->
<g id="edge11" class="edge">
<title>x11:e&#45;&gt;c25:w</title>
<path fill="none" stroke="black" stroke-width="3" d="M1938.02,-235.36C1941.95,-232.98 1945.05,-229.81 1948.99,-227.43"/>
<polygon fill="none" stroke="black" stroke-width="3" points="1939.67,-234.91 1934.94,-240.35 1928.1,-238.07 1932.83,-232.63 1939.67,-234.91"/>
<polygon fill="none" stroke="black" stroke-width="3" points="1947.3,-227.89 1952.04,-222.46 1958.88,-224.74 1954.14,-230.18 1947.3,-227.89"/>
</g>
<!-- x12 -->
<g id="node27" class="node">
<title>x12</title>
<path fill="none" stroke="black" d="M661.47,-132.78C661.47,-132.78 699.97,-132.78 699.97,-132.78 705.97,-132.78 711.97,-138.78 711.97,-144.78 711.97,-144.78 711.97,-156.78 711.97,-156.78 711.97,-162.78 705.97,-168.78 699.97,-168.78 699.97,-168.78 661.47,-168.78 661.47,-168.78 655.47,-168.78 649.47,-162.78 649.47,-156.78 649.47,-156.78 649.47,-144.78 649.47,-144.78 649.47,-138.78 655.47,-132.78 661.47,-132.78"/>
<text text-anchor="middle" x="680.72" y="-145.98" font-family="Times,serif" font-size="14.00">3:0 &#45; 7:4</text>
</g>
<!-- x12&#45;&gt;n7 -->
<g id="edge28" class="edge">
<title>x12:e&#45;&gt;n7:w</title>
<path fill="none" stroke="black" stroke-width="3" d="M712.97,-151.03C744.86,-151.03 753.71,-135.89 780.38,-132.46"/>
<polygon fill="black" stroke="black" stroke-width="3" points="777.26,-136.16 787.03,-132.06 776.84,-129.18 777.26,-136.16"/>
</g>
<!-- v13 -->
<g id="node28" class="node">
<title>v13</title>
<ellipse fill="none" stroke="black" cx="680.72" cy="-349.78" rx="27" ry="18"/>
<text text-anchor="middle" x="680.72" y="-344.73" font-family="Times,serif" font-size="14.00">2&#39;00</text>
</g>
<!-- x14 -->
<g id="node29" class="node">
<title>x14</title>
<path fill="none" stroke="black" d="M775.59,-328.78C775.59,-328.78 814.09,-328.78 814.09,-328.78 820.09,-328.78 826.09,-334.78 826.09,-340.78 826.09,-340.78 826.09,-352.78 826.09,-352.78 826.09,-358.78 820.09,-364.78 814.09,-364.78 814.09,-364.78 775.59,-364.78 775.59,-364.78 769.59,-364.78 763.59,-358.78 763.59,-352.78 763.59,-352.78 763.59,-340.78 763.59,-340.78 763.59,-334.78 769.59,-328.78 775.59,-328.78"/>
<text text-anchor="middle" x="794.84" y="-341.98" font-family="Times,serif" font-size="14.00">1:0 &#45; 5:4</text>
</g>
<!-- v13&#45;&gt;x14 -->
<g id="edge42" class="edge">
<title>v13:e&#45;&gt;x14:w</title>
<path fill="none" stroke="black" stroke-width="3" d="M708.97,-349.78C729.1,-349.78 736.68,-347.72 752.49,-347.01"/>
<polygon fill="black" stroke="black" stroke-width="3" points="749.13,-350.59 759.05,-346.88 748.98,-343.59 749.13,-350.59"/>
</g>
<!-- x14&#45;&gt;n4 -->
<g id="edge21" class="edge">
<title>x14:e&#45;&gt;n4:w</title>
<path fill="none" stroke="black" stroke-width="3" d="M826.09,-347.03C860.19,-347.03 853.88,-301.23 878.82,-290.85"/>
<polygon fill="black" stroke="black" stroke-width="3" points="876.4,-294.86 885.6,-289.6 875.13,-287.97 876.4,-294.86"/>
</g>
<!-- v15 -->
<g id="node30" class="node">
<title>v15</title>
<ellipse fill="none" stroke="black" cx="1131.22" cy="-308.78" rx="40.09" ry="18"/>
<text text-anchor="middle" x="1131.22" y="-303.73" font-family="Times,serif" font-size="14.00">5&#39;xxx00</text>
</g>
<!-- x16 -->
<g id="node31" class="node">
<title>x16</title>
<path fill="none" stroke="black" d="M1242.84,-287.78C1242.84,-287.78 1281.34,-287.78 1281.34,-287.78 1287.34,-287.78 1293.34,-293.78 1293.34,-299.78 1293.34,-299.78 1293.34,-311.78 1293.34,-311.78 1293.34,-317.78 1287.34,-323.78 1281.34,-323.78 1281.34,-323.78 1242.84,-323.78 1242.84,-323.78 1236.84,-323.78 1230.84,-317.78 1230.84,-311.78 1230.84,-311.78 1230.84,-299.78 1230.84,-299.78 1230.84,-293.78 1236.84,-287.78 1242.84,-287.78"/>
<text text-anchor="middle" x="1262.09" y="-300.98" font-family="Times,serif" font-size="14.00">4:0 &#45; 8:4</text>
</g>
<!-- v15&#45;&gt;x16 -->
<g id="edge43" class="edge">
<title>v15:e&#45;&gt;x16:w</title>
<path fill="none" stroke="black" stroke-width="3" d="M1172.68,-308.78C1193.95,-308.78 1201.83,-306.68 1218.7,-305.99"/>
<polygon fill="black" stroke="black" stroke-width="3" points="1215.37,-309.56 1225.3,-305.87 1215.24,-302.56 1215.37,-309.56"/>
</g>
<!-- x16&#45;&gt;n12 -->
<g id="edge16" class="edge">
<title>x16:e&#45;&gt;n12:w</title>
<path fill="none" stroke="black" stroke-width="3" d="M1294.34,-306.03C1324.51,-306.03 1315.11,-261.83 1335.07,-250.43"/>
<polygon fill="black" stroke="black" stroke-width="3" points="1332.77,-254.59 1341.68,-248.84 1331.13,-247.78 1332.77,-254.59"/>
</g>
<!-- n4&#45;&gt;x4 -->
<g id="edge23" class="edge">
<title>n4:e&#45;&gt;x4:w</title>
<path fill="none" stroke="black" stroke-width="3" d="M896.62,-288.78C926.17,-288.78 936.2,-286.65 961.02,-286.14"/>
<polygon fill="black" stroke="black" stroke-width="3" points="957.71,-289.67 967.68,-286.07 957.64,-282.67 957.71,-289.67"/>
</g>
<!-- n6&#45;&gt;x7 -->
<g id="edge27" class="edge">
<title>n6:e&#45;&gt;x7:w</title>
<path fill="none" stroke="black" stroke-width="3" d="M569.87,-152.78C600.56,-152.78 604.12,-171.12 633.84,-178.78 703.19,-196.64 722.23,-197.78 793.84,-197.78 793.84,-197.78 793.84,-197.78 894.34,-197.78 981.78,-197.78 1005.59,-179.69 1087.56,-178.14"/>
<polygon fill="black" stroke="black" stroke-width="3" points="1084.46,-181.66 1094.43,-178.07 1084.39,-174.66 1084.46,-181.66"/>
</g>
<!-- n6&#45;&gt;x12 -->
<g id="edge26" class="edge">
<title>n6:e&#45;&gt;x12:w</title>
<path fill="none" stroke="black" stroke-width="3" d="M569.87,-152.78C600.72,-152.78 611.12,-151.22 637.18,-150.86"/>
<polygon fill="black" stroke="black" stroke-width="3" points="633.95,-154.38 643.93,-150.81 633.9,-147.38 633.95,-154.38"/>
</g>
<!-- n7&#45;&gt;x1 -->
<g id="edge30" class="edge">
<title>n7:e&#45;&gt;x1:w</title>
<path fill="none" stroke="black" stroke-width="3" d="M798.12,-131.78C822.33,-131.78 831.08,-131.96 850.7,-132.01"/>
<polygon fill="black" stroke="black" stroke-width="3" points="847.55,-135.51 857.55,-132.02 847.55,-128.51 847.55,-135.51"/>
</g>
</g>
</svg>
