<?xml version="1.0" encoding="UTF-8" standalone="no"?>
<!DOCTYPE svg PUBLIC "-//W3C//DTD SVG 1.1//EN"
 "http://www.w3.org/Graphics/SVG/1.1/DTD/svg11.dtd">
<!-- Generated by graphviz version 12.2.1 (20241206.2353)
 -->
<!-- Title: top Pages: 1 -->
<svg width="3352pt" height="414pt"
 viewBox="0.00 0.00 3352.43 413.75" xmlns="http://www.w3.org/2000/svg" xmlns:xlink="http://www.w3.org/1999/xlink">
<g id="graph0" class="graph" transform="scale(1 1) rotate(0) translate(4 409.75)">
<title>top</title>
<polygon fill="white" stroke="none" points="-4,4 -4,-409.75 3348.43,-409.75 3348.43,4 -4,4"/>
<text text-anchor="middle" x="1672.22" y="-7.2" font-family="Times,serif" font-size="14.00">top</text>
<!-- n9 -->
<g id="node1" class="node">
<title>n9</title>
<polygon fill="none" stroke="black" points="121.65,-186.29 121.65,-201.21 90.06,-211.75 45.39,-211.75 13.81,-201.21 13.81,-186.29 45.39,-175.75 90.06,-175.75 121.65,-186.29"/>
<text text-anchor="middle" x="67.73" y="-188.7" font-family="Times,serif" font-size="14.00">input_data</text>
</g>
<!-- c17 -->
<g id="node6" class="node">
<title>c17</title>
<polygon fill="none" stroke="black" points="171.46,-252.25 171.46,-301.25 265.21,-301.25 265.21,-252.25 171.46,-252.25"/>
<text text-anchor="middle" x="184.33" y="-283.95" font-family="Times,serif" font-size="14.00">A</text>
<polyline fill="none" stroke="black" points="171.46,-276.75 197.21,-276.75"/>
<text text-anchor="middle" x="184.33" y="-259.45" font-family="Times,serif" font-size="14.00">B</text>
<polyline fill="none" stroke="black" points="197.21,-252.25 197.21,-301.25"/>
<text text-anchor="middle" x="218.33" y="-279.95" font-family="Times,serif" font-size="14.00">$1</text>
<text text-anchor="middle" x="218.33" y="-263.45" font-family="Times,serif" font-size="14.00">$add</text>
<polyline fill="none" stroke="black" points="239.46,-252.25 239.46,-301.25"/>
<text text-anchor="middle" x="252.33" y="-271.95" font-family="Times,serif" font-size="14.00">Y</text>
</g>
<!-- n9&#45;&gt;c17 -->
<g id="edge38" class="edge">
<title>n9:e&#45;&gt;c17:w</title>
<path fill="none" stroke="black" stroke-width="3" d="M122.88,-193.75C165.94,-193.75 131.82,-271.98 160.42,-286.65"/>
<polygon fill="black" stroke="black" stroke-width="3" points="156.51,-289.39 167.02,-288.05 157.97,-282.54 156.51,-289.39"/>
</g>
<!-- n9&#45;&gt;c17 -->
<g id="edge39" class="edge">
<title>n9:e&#45;&gt;c17:w</title>
<path fill="none" stroke="black" stroke-width="3" d="M122.88,-193.75C156.55,-193.75 138.9,-248.89 160.55,-261.81"/>
<polygon fill="black" stroke="black" stroke-width="3" points="156.5,-264.42 167.05,-263.41 158.18,-257.62 156.5,-264.42"/>
</g>
<!-- c18 -->
<g id="node7" class="node">
<title>c18</title>
<polygon fill="none" stroke="black" points="996.71,-290.25 996.71,-339.25 1090.46,-339.25 1090.46,-290.25 996.71,-290.25"/>
<text text-anchor="middle" x="1009.58" y="-321.95" font-family="Times,serif" font-size="14.00">A</text>
<polyline fill="none" stroke="black" points="996.71,-314.75 1022.46,-314.75"/>
<text text-anchor="middle" x="1009.58" y="-297.45" font-family="Times,serif" font-size="14.00">B</text>
<polyline fill="none" stroke="black" points="1022.46,-290.25 1022.46,-339.25"/>
<text text-anchor="middle" x="1043.58" y="-317.95" font-family="Times,serif" font-size="14.00">$4</text>
<text text-anchor="middle" x="1043.58" y="-301.45" font-family="Times,serif" font-size="14.00">$add</text>
<polyline fill="none" stroke="black" points="1064.71,-290.25 1064.71,-339.25"/>
<text text-anchor="middle" x="1077.58" y="-309.95" font-family="Times,serif" font-size="14.00">Y</text>
</g>
<!-- n9&#45;&gt;c18 -->
<g id="edge40" class="edge">
<title>n9:e&#45;&gt;c18:w</title>
<path fill="none" stroke="black" stroke-width="3" d="M122.88,-193.75C227.1,-193.75 251.23,-223.75 355.46,-223.75 355.46,-223.75 355.46,-223.75 831.96,-223.75 909.15,-223.75 915.13,-295 985.37,-301.96"/>
<polygon fill="black" stroke="black" stroke-width="3" points="982.02,-305.3 992.17,-302.28 982.35,-298.31 982.02,-305.3"/>
</g>
<!-- c23 -->
<g id="node16" class="node">
<title>c23</title>
<polygon fill="none" stroke="black" points="2626.77,-142.25 2626.77,-191.25 2720.52,-191.25 2720.52,-142.25 2626.77,-142.25"/>
<text text-anchor="middle" x="2639.64" y="-173.95" font-family="Times,serif" font-size="14.00">A</text>
<polyline fill="none" stroke="black" points="2626.77,-166.75 2652.52,-166.75"/>
<text text-anchor="middle" x="2639.64" y="-149.45" font-family="Times,serif" font-size="14.00">B</text>
<polyline fill="none" stroke="black" points="2652.52,-142.25 2652.52,-191.25"/>
<text text-anchor="middle" x="2673.64" y="-169.95" font-family="Times,serif" font-size="14.00">$72</text>
<text text-anchor="middle" x="2673.64" y="-153.45" font-family="Times,serif" font-size="14.00">$and</text>
<polyline fill="none" stroke="black" points="2694.77,-142.25 2694.77,-191.25"/>
<text text-anchor="middle" x="2707.64" y="-161.95" font-family="Times,serif" font-size="14.00">Y</text>
</g>
<!-- n9&#45;&gt;c23 -->
<g id="edge41" class="edge">
<title>n9:e&#45;&gt;c23:w</title>
<path fill="none" stroke="black" stroke-width="3" d="M122.88,-193.75C230.6,-193.75 497.73,-147.75 605.46,-147.75 605.46,-147.75 605.46,-147.75 2462.02,-147.75 2531.44,-147.75 2551.41,-153.81 2615.62,-154.45"/>
<polygon fill="black" stroke="black" stroke-width="3" points="2612.21,-157.93 2622.23,-154.48 2612.25,-150.93 2612.21,-157.93"/>
</g>
<!-- c26 -->
<g id="node25" class="node">
<title>c26</title>
<polygon fill="none" stroke="black" points="171.83,-350.25 171.83,-399.25 264.83,-399.25 264.83,-350.25 171.83,-350.25"/>
<text text-anchor="middle" x="184.71" y="-381.95" font-family="Times,serif" font-size="14.00">A</text>
<polyline fill="none" stroke="black" points="171.83,-374.75 197.58,-374.75"/>
<text text-anchor="middle" x="184.71" y="-357.45" font-family="Times,serif" font-size="14.00">B</text>
<polyline fill="none" stroke="black" points="197.58,-350.25 197.58,-399.25"/>
<text text-anchor="middle" x="218.33" y="-377.95" font-family="Times,serif" font-size="14.00">$12</text>
<text text-anchor="middle" x="218.33" y="-361.45" font-family="Times,serif" font-size="14.00">$sub</text>
<polyline fill="none" stroke="black" points="239.08,-350.25 239.08,-399.25"/>
<text text-anchor="middle" x="251.96" y="-369.95" font-family="Times,serif" font-size="14.00">Y</text>
</g>
<!-- n9&#45;&gt;c26 -->
<g id="edge42" class="edge">
<title>n9:e&#45;&gt;c26:w</title>
<path fill="none" stroke="black" stroke-width="3" d="M122.88,-193.75C207.29,-193.75 94.47,-369.31 160.39,-385.77"/>
<polygon fill="black" stroke="black" stroke-width="3" points="156.62,-388.87 166.95,-386.5 157.4,-381.91 156.62,-388.87"/>
</g>
<!-- x12 -->
<g id="node30" class="node">
<title>x12</title>
<path fill="none" stroke="black" d="M199.08,-25C199.08,-25 237.58,-25 237.58,-25 243.58,-25 249.58,-31 249.58,-37 249.58,-37 249.58,-86.5 249.58,-86.5 249.58,-92.5 243.58,-98.5 237.58,-98.5 237.58,-98.5 199.08,-98.5 199.08,-98.5 193.08,-98.5 187.08,-92.5 187.08,-86.5 187.08,-86.5 187.08,-37 187.08,-37 187.08,-31 193.08,-25 199.08,-25"/>
<text text-anchor="middle" x="218.33" y="-81.2" font-family="Times,serif" font-size="14.00">3:2 &#45; 3:2</text>
<polyline fill="none" stroke="black" points="187.08,-74 249.58,-74"/>
<text text-anchor="middle" x="218.33" y="-56.7" font-family="Times,serif" font-size="14.00">1 &#45;&gt; 1:1</text>
<polyline fill="none" stroke="black" points="187.08,-49.5 249.58,-49.5"/>
<text text-anchor="middle" x="218.33" y="-32.2" font-family="Times,serif" font-size="14.00">0:0 &#45; 0:0</text>
</g>
<!-- n9&#45;&gt;x12 -->
<g id="edge43" class="edge">
<title>n9:e&#45;&gt;x12:w</title>
<path fill="none" stroke="black" d="M122.88,-193.75C193.64,-193.75 120.39,-54.48 174.84,-38.7"/>
<polygon fill="black" stroke="black" points="175.11,-42.19 184.58,-37.44 174.22,-35.25 175.11,-42.19"/>
</g>
<!-- n9&#45;&gt;x12 -->
<g id="edge44" class="edge">
<title>n9:e&#45;&gt;x12:w</title>
<path fill="none" stroke="black" stroke-width="3" d="M122.88,-193.75C173.97,-193.75 137.47,-102.39 174.88,-88.12"/>
<polygon fill="black" stroke="black" stroke-width="3" points="172.32,-92.09 181.6,-87 171.17,-85.19 172.32,-92.09"/>
</g>
<!-- x13 -->
<g id="node31" class="node">
<title>x13</title>
<path fill="none" stroke="black" d="M337.21,-96.75C337.21,-96.75 375.71,-96.75 375.71,-96.75 381.71,-96.75 387.71,-102.75 387.71,-108.75 387.71,-108.75 387.71,-120.75 387.71,-120.75 387.71,-126.75 381.71,-132.75 375.71,-132.75 375.71,-132.75 337.21,-132.75 337.21,-132.75 331.21,-132.75 325.21,-126.75 325.21,-120.75 325.21,-120.75 325.21,-108.75 325.21,-108.75 325.21,-102.75 331.21,-96.75 337.21,-96.75"/>
<text text-anchor="middle" x="356.46" y="-109.95" font-family="Times,serif" font-size="14.00">1:1 &#45; 0:0</text>
</g>
<!-- n9&#45;&gt;x13 -->
<g id="edge45" class="edge">
<title>n9:e&#45;&gt;x13:w</title>
<path fill="none" stroke="black" d="M122.88,-193.75C151.71,-193.75 145.85,-163.99 171.46,-150.75 229.88,-120.54 251.96,-115.51 312.81,-115.04"/>
<polygon fill="black" stroke="black" points="312.71,-118.54 322.7,-115.01 312.68,-111.54 312.71,-118.54"/>
</g>
<!-- n10 -->
<g id="node2" class="node">
<title>n10</title>
<polygon fill="none" stroke="black" points="3344.43,-87.29 3344.43,-102.21 3309.93,-112.75 3261.13,-112.75 3226.62,-102.21 3226.62,-87.29 3261.13,-76.75 3309.93,-76.75 3344.43,-87.29"/>
<text text-anchor="middle" x="3285.53" y="-89.7" font-family="Times,serif" font-size="14.00">output_data</text>
</g>
<!-- n11 -->
<g id="node3" class="node">
<title>n11</title>
<polygon fill="none" stroke="black" points="356.46,-294.75 301.21,-276.75 356.46,-258.75 411.71,-276.75 356.46,-294.75"/>
<text text-anchor="middle" x="356.46" y="-271.7" font-family="Times,serif" font-size="14.00">temp_0</text>
</g>
<!-- c19 -->
<g id="node9" class="node">
<title>c19</title>
<polygon fill="none" stroke="black" points="2024.52,-213.25 2024.52,-262.25 2118.27,-262.25 2118.27,-213.25 2024.52,-213.25"/>
<text text-anchor="middle" x="2037.39" y="-244.95" font-family="Times,serif" font-size="14.00">A</text>
<polyline fill="none" stroke="black" points="2024.52,-237.75 2050.27,-237.75"/>
<text text-anchor="middle" x="2037.39" y="-220.45" font-family="Times,serif" font-size="14.00">B</text>
<polyline fill="none" stroke="black" points="2050.27,-213.25 2050.27,-262.25"/>
<text text-anchor="middle" x="2071.39" y="-240.95" font-family="Times,serif" font-size="14.00">$9</text>
<text text-anchor="middle" x="2071.39" y="-224.45" font-family="Times,serif" font-size="14.00">$add</text>
<polyline fill="none" stroke="black" points="2092.52,-213.25 2092.52,-262.25"/>
<text text-anchor="middle" x="2105.39" y="-232.95" font-family="Times,serif" font-size="14.00">Y</text>
</g>
<!-- n11&#45;&gt;c19 -->
<g id="edge18" class="edge">
<title>n11:e&#45;&gt;c19:w</title>
<path fill="none" stroke="black" stroke-width="3" d="M411.71,-276.75C423.6,-276.75 593.57,-185.75 605.46,-185.75 605.46,-185.75 605.46,-185.75 1889.22,-185.75 1947.85,-185.75 1960.34,-220.54 2013.03,-225.03"/>
<polygon fill="black" stroke="black" stroke-width="3" points="2009.85,-228.4 2019.98,-225.31 2010.13,-221.4 2009.85,-228.4"/>
</g>
<!-- c20 -->
<g id="node11" class="node">
<title>c20</title>
<polygon fill="none" stroke="black" points="1126.46,-249.25 1126.46,-298.25 1220.21,-298.25 1220.21,-249.25 1126.46,-249.25"/>
<text text-anchor="middle" x="1139.33" y="-280.95" font-family="Times,serif" font-size="14.00">A</text>
<polyline fill="none" stroke="black" points="1126.46,-273.75 1152.21,-273.75"/>
<text text-anchor="middle" x="1139.33" y="-256.45" font-family="Times,serif" font-size="14.00">B</text>
<polyline fill="none" stroke="black" points="1152.21,-249.25 1152.21,-298.25"/>
<text text-anchor="middle" x="1173.33" y="-276.95" font-family="Times,serif" font-size="14.00">$5</text>
<text text-anchor="middle" x="1173.33" y="-260.45" font-family="Times,serif" font-size="14.00">$and</text>
<polyline fill="none" stroke="black" points="1194.46,-249.25 1194.46,-298.25"/>
<text text-anchor="middle" x="1207.33" y="-268.95" font-family="Times,serif" font-size="14.00">Y</text>
</g>
<!-- n11&#45;&gt;c20 -->
<g id="edge19" class="edge">
<title>n11:e&#45;&gt;c20:w</title>
<path fill="none" stroke="black" stroke-width="3" d="M411.71,-276.75C498.08,-276.75 519.09,-261.75 605.46,-261.75 605.46,-261.75 605.46,-261.75 930.46,-261.75 1013.66,-261.75 1037.26,-261.52 1115.1,-261.5"/>
<polygon fill="black" stroke="black" stroke-width="3" points="1111.92,-265 1121.92,-261.5 1111.92,-258 1111.92,-265"/>
</g>
<!-- c21 -->
<g id="node12" class="node">
<title>c21</title>
<polygon fill="none" stroke="black" points="447.71,-290.25 447.71,-331.25 539.21,-331.25 539.21,-290.25 447.71,-290.25"/>
<text text-anchor="middle" x="460.58" y="-305.95" font-family="Times,serif" font-size="14.00">A</text>
<polyline fill="none" stroke="black" points="473.46,-290.25 473.46,-331.25"/>
<text text-anchor="middle" x="493.46" y="-313.95" font-family="Times,serif" font-size="14.00">$64</text>
<text text-anchor="middle" x="493.46" y="-297.45" font-family="Times,serif" font-size="14.00">$not</text>
<polyline fill="none" stroke="black" points="513.46,-290.25 513.46,-331.25"/>
<text text-anchor="middle" x="526.33" y="-305.95" font-family="Times,serif" font-size="14.00">Y</text>
</g>
<!-- n11&#45;&gt;c21 -->
<g id="edge20" class="edge">
<title>n11:e&#45;&gt;c21:w</title>
<path fill="none" stroke="black" stroke-width="3" d="M411.71,-276.75C429.14,-276.75 427.73,-298.07 437.2,-307.07"/>
<polygon fill="black" stroke="black" stroke-width="3" points="432.86,-309.18 443.46,-309.41 435.32,-302.63 432.86,-309.18"/>
</g>
<!-- c25 -->
<g id="node21" class="node">
<title>c25</title>
<polygon fill="none" stroke="black" points="673.71,-302.25 673.71,-351.25 763.71,-351.25 763.71,-302.25 673.71,-302.25"/>
<text text-anchor="middle" x="686.58" y="-333.95" font-family="Times,serif" font-size="14.00">A</text>
<polyline fill="none" stroke="black" points="673.71,-326.75 699.46,-326.75"/>
<text text-anchor="middle" x="686.58" y="-309.45" font-family="Times,serif" font-size="14.00">B</text>
<polyline fill="none" stroke="black" points="699.46,-302.25 699.46,-351.25"/>
<text text-anchor="middle" x="718.71" y="-329.95" font-family="Times,serif" font-size="14.00">$3</text>
<text text-anchor="middle" x="718.71" y="-313.45" font-family="Times,serif" font-size="14.00">$shl</text>
<polyline fill="none" stroke="black" points="737.96,-302.25 737.96,-351.25"/>
<text text-anchor="middle" x="750.83" y="-321.95" font-family="Times,serif" font-size="14.00">Y</text>
</g>
<!-- n11&#45;&gt;c25 -->
<g id="edge21" class="edge">
<title>n11:e&#45;&gt;c25:w</title>
<path fill="none" stroke="black" stroke-width="3" d="M411.71,-276.75C444.35,-276.75 420.07,-323.4 447.71,-340.75 519.29,-385.68 553.93,-359.89 637.71,-348.75 649.52,-347.18 654.39,-342.83 662.35,-340.51"/>
<polygon fill="black" stroke="black" stroke-width="3" points="659.76,-344.38 669.21,-339.6 658.84,-337.44 659.76,-344.38"/>
</g>
<!-- n12 -->
<g id="node4" class="node">
<title>n12</title>
<polygon fill="none" stroke="black" points="1323.94,-273.75 1268.69,-255.75 1323.94,-237.75 1379.19,-255.75 1323.94,-273.75"/>
<text text-anchor="middle" x="1323.94" y="-250.7" font-family="Times,serif" font-size="14.00">temp_1</text>
</g>
<!-- c22 -->
<g id="node13" class="node">
<title>c22</title>
<polygon fill="none" stroke="black" points="1658.17,-227.25 1658.17,-276.25 1751.92,-276.25 1751.92,-227.25 1658.17,-227.25"/>
<text text-anchor="middle" x="1671.04" y="-258.95" font-family="Times,serif" font-size="14.00">A</text>
<polyline fill="none" stroke="black" points="1658.17,-251.75 1683.92,-251.75"/>
<text text-anchor="middle" x="1671.04" y="-234.45" font-family="Times,serif" font-size="14.00">B</text>
<polyline fill="none" stroke="black" points="1683.92,-227.25 1683.92,-276.25"/>
<text text-anchor="middle" x="1705.04" y="-254.95" font-family="Times,serif" font-size="14.00">$68</text>
<text text-anchor="middle" x="1705.04" y="-238.45" font-family="Times,serif" font-size="14.00">$and</text>
<polyline fill="none" stroke="black" points="1726.17,-227.25 1726.17,-276.25"/>
<text text-anchor="middle" x="1739.04" y="-246.95" font-family="Times,serif" font-size="14.00">Y</text>
</g>
<!-- n12&#45;&gt;c22 -->
<g id="edge23" class="edge">
<title>n12:e&#45;&gt;c22:w</title>
<path fill="none" stroke="black" stroke-width="3" d="M1381.57,-255.75C1500.86,-255.75 1533.04,-240.5 1646.89,-239.55"/>
<polygon fill="black" stroke="black" stroke-width="3" points="1643.64,-243.06 1653.63,-239.52 1643.61,-236.06 1643.64,-243.06"/>
</g>
<!-- c24 -->
<g id="node20" class="node">
<title>c24</title>
<polygon fill="none" stroke="black" points="1427.67,-268.25 1427.67,-317.25 1523.67,-317.25 1523.67,-268.25 1427.67,-268.25"/>
<text text-anchor="middle" x="1440.54" y="-299.95" font-family="Times,serif" font-size="14.00">A</text>
<polyline fill="none" stroke="black" points="1427.67,-292.75 1453.42,-292.75"/>
<text text-anchor="middle" x="1440.54" y="-275.45" font-family="Times,serif" font-size="14.00">B</text>
<polyline fill="none" stroke="black" points="1453.42,-268.25 1453.42,-317.25"/>
<text text-anchor="middle" x="1475.67" y="-295.95" font-family="Times,serif" font-size="14.00">$7</text>
<text text-anchor="middle" x="1475.67" y="-279.45" font-family="Times,serif" font-size="14.00">$mul</text>
<polyline fill="none" stroke="black" points="1497.92,-268.25 1497.92,-317.25"/>
<text text-anchor="middle" x="1510.79" y="-287.95" font-family="Times,serif" font-size="14.00">Y</text>
</g>
<!-- n12&#45;&gt;c24 -->
<g id="edge24" class="edge">
<title>n12:e&#45;&gt;c24:w</title>
<path fill="none" stroke="black" stroke-width="3" d="M1381.57,-255.75C1400.46,-255.75 1403.73,-272.09 1416.77,-278.22"/>
<polygon fill="black" stroke="black" stroke-width="3" points="1412.72,-280.94 1423.22,-279.57 1414.15,-274.09 1412.72,-280.94"/>
</g>
<!-- n13 -->
<g id="node5" class="node">
<title>n13</title>
<polygon fill="none" stroke="black" points="2209.52,-255.75 2154.27,-237.75 2209.52,-219.75 2264.77,-237.75 2209.52,-255.75"/>
<text text-anchor="middle" x="2209.52" y="-232.7" font-family="Times,serif" font-size="14.00">temp_3</text>
</g>
<!-- c27 -->
<g id="node26" class="node">
<title>c27</title>
<polygon fill="none" stroke="black" points="2300.77,-225.25 2300.77,-274.25 2393.77,-274.25 2393.77,-225.25 2300.77,-225.25"/>
<text text-anchor="middle" x="2313.64" y="-256.95" font-family="Times,serif" font-size="14.00">A</text>
<polyline fill="none" stroke="black" points="2300.77,-249.75 2326.52,-249.75"/>
<text text-anchor="middle" x="2313.64" y="-232.45" font-family="Times,serif" font-size="14.00">B</text>
<polyline fill="none" stroke="black" points="2326.52,-225.25 2326.52,-274.25"/>
<text text-anchor="middle" x="2347.27" y="-252.95" font-family="Times,serif" font-size="14.00">$13</text>
<text text-anchor="middle" x="2347.27" y="-236.45" font-family="Times,serif" font-size="14.00">$sub</text>
<polyline fill="none" stroke="black" points="2368.02,-225.25 2368.02,-274.25"/>
<text text-anchor="middle" x="2380.89" y="-244.95" font-family="Times,serif" font-size="14.00">Y</text>
</g>
<!-- n13&#45;&gt;c27 -->
<g id="edge26" class="edge">
<title>n13:e&#45;&gt;c27:w</title>
<path fill="none" stroke="black" stroke-width="3" d="M2264.77,-237.75C2276.14,-237.75 2281.45,-237.62 2289.32,-237.55"/>
<polygon fill="black" stroke="black" stroke-width="3" points="2286.24,-241.06 2296.23,-237.52 2286.21,-234.06 2286.24,-241.06"/>
</g>
<!-- c17&#45;&gt;n11 -->
<g id="edge17" class="edge">
<title>c17:e&#45;&gt;n11:w</title>
<path fill="none" stroke="black" stroke-width="3" d="M265.21,-277C276.58,-277 281.89,-276.87 289.76,-276.8"/>
<polygon fill="black" stroke="black" stroke-width="3" points="286.68,-280.31 296.67,-276.77 286.65,-273.31 286.68,-280.31"/>
</g>
<!-- c18&#45;&gt;c20 -->
<g id="edge14" class="edge">
<title>c18:e&#45;&gt;c20:w</title>
<path fill="none" stroke="black" stroke-width="3" d="M1090.46,-315C1106.35,-315 1106.9,-297.65 1115.85,-289.79"/>
<polygon fill="black" stroke="black" stroke-width="3" points="1113.94,-294.19 1122.18,-287.53 1111.59,-287.6 1113.94,-294.19"/>
</g>
<!-- x0 -->
<g id="node8" class="node">
<title>x0</title>
<path fill="none" stroke="black" d="M910.21,-308.75C910.21,-308.75 948.71,-308.75 948.71,-308.75 954.71,-308.75 960.71,-314.75 960.71,-320.75 960.71,-320.75 960.71,-332.75 960.71,-332.75 960.71,-338.75 954.71,-344.75 948.71,-344.75 948.71,-344.75 910.21,-344.75 910.21,-344.75 904.21,-344.75 898.21,-338.75 898.21,-332.75 898.21,-332.75 898.21,-320.75 898.21,-320.75 898.21,-314.75 904.21,-308.75 910.21,-308.75"/>
<text text-anchor="middle" x="929.46" y="-321.95" font-family="Times,serif" font-size="14.00">4:0 &#45; 4:0</text>
</g>
<!-- x0&#45;&gt;c18 -->
<g id="edge1" class="edge">
<title>x0:e&#45;&gt;c18:w</title>
<path fill="none" stroke="black" stroke-width="3" d="M973.43,-326.81C977.03,-326.85 980.16,-326.9 983.74,-326.93"/>
<polygon fill="none" stroke="black" stroke-width="3" points="975.41,-326.82 969.39,-330.79 963.41,-326.76 969.43,-322.79 975.41,-326.82"/>
<polygon fill="none" stroke="black" stroke-width="3" points="982.01,-326.93 988.03,-322.96 994.01,-326.99 987.99,-330.96 982.01,-326.93"/>
</g>
<!-- c19&#45;&gt;n13 -->
<g id="edge25" class="edge">
<title>c19:e&#45;&gt;n13:w</title>
<path fill="none" stroke="black" stroke-width="3" d="M2118.27,-238C2129.64,-238 2134.95,-237.87 2142.82,-237.8"/>
<polygon fill="black" stroke="black" stroke-width="3" points="2139.74,-241.31 2149.73,-237.77 2139.71,-234.31 2139.74,-241.31"/>
</g>
<!-- x1 -->
<g id="node10" class="node">
<title>x1</title>
<path fill="none" stroke="black" d="M1938.02,-230.25C1938.02,-230.25 1976.52,-230.25 1976.52,-230.25 1982.52,-230.25 1988.52,-236.25 1988.52,-242.25 1988.52,-242.25 1988.52,-267.25 1988.52,-267.25 1988.52,-273.25 1982.52,-279.25 1976.52,-279.25 1976.52,-279.25 1938.02,-279.25 1938.02,-279.25 1932.02,-279.25 1926.02,-273.25 1926.02,-267.25 1926.02,-267.25 1926.02,-242.25 1926.02,-242.25 1926.02,-236.25 1932.02,-230.25 1938.02,-230.25"/>
<text text-anchor="middle" x="1957.27" y="-261.95" font-family="Times,serif" font-size="14.00">0 &#45;&gt; 9:5</text>
<polyline fill="none" stroke="black" points="1926.02,-254.75 1988.52,-254.75"/>
<text text-anchor="middle" x="1957.27" y="-237.45" font-family="Times,serif" font-size="14.00">4:0 &#45; 4:0</text>
</g>
<!-- x1&#45;&gt;c19 -->
<g id="edge2" class="edge">
<title>x1:e&#45;&gt;c19:w</title>
<path fill="none" stroke="black" stroke-width="3" d="M2001.27,-253.55C2004.97,-252.83 2008.15,-251.9 2011.85,-251.18"/>
<polygon fill="none" stroke="black" stroke-width="3" points="2003.16,-253.37 1997.56,-257.92 1991.21,-254.5 1996.81,-249.95 2003.16,-253.37"/>
<polygon fill="none" stroke="black" stroke-width="3" points="2009.88,-251.37 2015.48,-246.83 2021.83,-250.25 2016.22,-254.79 2009.88,-251.37"/>
</g>
<!-- c20&#45;&gt;n12 -->
<g id="edge22" class="edge">
<title>c20:e&#45;&gt;n12:w</title>
<path fill="none" stroke="black" stroke-width="3" d="M1220.21,-274C1237.77,-274 1242.63,-262.41 1255.02,-257.7"/>
<polygon fill="black" stroke="black" stroke-width="3" points="1252.58,-261.68 1261.84,-256.52 1251.39,-254.78 1252.58,-261.68"/>
</g>
<!-- x7 -->
<g id="node22" class="node">
<title>x7</title>
<path fill="none" stroke="black" d="M587.21,-290.25C587.21,-290.25 625.71,-290.25 625.71,-290.25 631.71,-290.25 637.71,-296.25 637.71,-302.25 637.71,-302.25 637.71,-327.25 637.71,-327.25 637.71,-333.25 631.71,-339.25 625.71,-339.25 625.71,-339.25 587.21,-339.25 587.21,-339.25 581.21,-339.25 575.21,-333.25 575.21,-327.25 575.21,-327.25 575.21,-302.25 575.21,-302.25 575.21,-296.25 581.21,-290.25 587.21,-290.25"/>
<text text-anchor="middle" x="606.46" y="-321.95" font-family="Times,serif" font-size="14.00">1 &#45;&gt; 6:5</text>
<polyline fill="none" stroke="black" points="575.21,-314.75 637.71,-314.75"/>
<text text-anchor="middle" x="606.46" y="-297.45" font-family="Times,serif" font-size="14.00">4:0 &#45; 4:0</text>
</g>
<!-- c21&#45;&gt;x7 -->
<g id="edge33" class="edge">
<title>c21:e&#45;&gt;x7:w</title>
<path fill="none" stroke="black" stroke-width="3" d="M539.21,-311C551.03,-311 555.96,-306.61 563.91,-304.14"/>
<polygon fill="black" stroke="black" stroke-width="3" points="561.32,-308.05 570.72,-303.15 560.32,-301.12 561.32,-308.05"/>
</g>
<!-- x3 -->
<g id="node15" class="node">
<title>x3</title>
<path fill="none" stroke="black" d="M1799.92,-233.75C1799.92,-233.75 1838.42,-233.75 1838.42,-233.75 1844.42,-233.75 1850.42,-239.75 1850.42,-245.75 1850.42,-245.75 1850.42,-257.75 1850.42,-257.75 1850.42,-263.75 1844.42,-269.75 1838.42,-269.75 1838.42,-269.75 1799.92,-269.75 1799.92,-269.75 1793.92,-269.75 1787.92,-263.75 1787.92,-257.75 1787.92,-257.75 1787.92,-245.75 1787.92,-245.75 1787.92,-239.75 1793.92,-233.75 1799.92,-233.75"/>
<text text-anchor="middle" x="1819.17" y="-246.95" font-family="Times,serif" font-size="14.00">4:0 &#45; 4:0</text>
</g>
<!-- c22&#45;&gt;x3 -->
<g id="edge4" class="edge">
<title>c22:e&#45;&gt;x3:w</title>
<path fill="none" stroke="black" stroke-width="3" d="M1764.64,-251.94C1768.24,-251.9 1771.37,-251.85 1774.95,-251.82"/>
<polygon fill="none" stroke="black" stroke-width="3" points="1766.62,-251.93 1760.64,-255.96 1754.62,-251.99 1760.6,-247.96 1766.62,-251.93"/>
<polygon fill="none" stroke="black" stroke-width="3" points="1773.21,-251.82 1779.19,-247.79 1785.21,-251.76 1779.23,-255.79 1773.21,-251.82"/>
</g>
<!-- x2 -->
<g id="node14" class="node">
<title>x2</title>
<path fill="none" stroke="black" d="M1571.67,-271.75C1571.67,-271.75 1610.17,-271.75 1610.17,-271.75 1616.17,-271.75 1622.17,-277.75 1622.17,-283.75 1622.17,-283.75 1622.17,-295.75 1622.17,-295.75 1622.17,-301.75 1616.17,-307.75 1610.17,-307.75 1610.17,-307.75 1571.67,-307.75 1571.67,-307.75 1565.67,-307.75 1559.67,-301.75 1559.67,-295.75 1559.67,-295.75 1559.67,-283.75 1559.67,-283.75 1559.67,-277.75 1565.67,-271.75 1571.67,-271.75"/>
<text text-anchor="middle" x="1590.92" y="-284.95" font-family="Times,serif" font-size="14.00">4:0 &#45; 4:0</text>
</g>
<!-- x2&#45;&gt;c22 -->
<g id="edge3" class="edge">
<title>x2:e&#45;&gt;c22:w</title>
<path fill="none" stroke="black" stroke-width="3" d="M1633.84,-285.26C1638.74,-280.65 1641.38,-273.5 1646.19,-268.78"/>
<polygon fill="none" stroke="black" stroke-width="3" points="1635.89,-284.47 1631.73,-290.36 1624.69,-288.78 1628.86,-282.89 1635.89,-284.47"/>
<polygon fill="none" stroke="black" stroke-width="3" points="1644.51,-269.45 1648.6,-263.51 1655.66,-265 1651.57,-270.94 1644.51,-269.45"/>
</g>
<!-- n2 -->
<g id="node39" class="node">
<title>n2</title>
<ellipse fill="black" stroke="black" cx="1888.22" cy="-251.75" rx="1.8" ry="1.8"/>
</g>
<!-- x3&#45;&gt;n2 -->
<g id="edge28" class="edge">
<title>x3:e&#45;&gt;n2:w</title>
<path fill="none" stroke="black" stroke-width="3" d="M1850.42,-252C1861.79,-252 1867.1,-251.87 1874.97,-251.8"/>
<polygon fill="black" stroke="black" stroke-width="3" points="1871.89,-255.31 1881.88,-251.77 1871.86,-248.31 1871.89,-255.31"/>
</g>
<!-- x5 -->
<g id="node18" class="node">
<title>x5</title>
<path fill="none" stroke="black" d="M2768.52,-150.75C2768.52,-150.75 2807.02,-150.75 2807.02,-150.75 2813.02,-150.75 2819.02,-156.75 2819.02,-162.75 2819.02,-162.75 2819.02,-174.75 2819.02,-174.75 2819.02,-180.75 2813.02,-186.75 2807.02,-186.75 2807.02,-186.75 2768.52,-186.75 2768.52,-186.75 2762.52,-186.75 2756.52,-180.75 2756.52,-174.75 2756.52,-174.75 2756.52,-162.75 2756.52,-162.75 2756.52,-156.75 2762.52,-150.75 2768.52,-150.75"/>
<text text-anchor="middle" x="2787.77" y="-163.95" font-family="Times,serif" font-size="14.00">3:0 &#45; 3:0</text>
</g>
<!-- c23&#45;&gt;x5 -->
<g id="edge6" class="edge">
<title>c23:e&#45;&gt;x5:w</title>
<path fill="none" stroke="black" stroke-width="3" d="M2733.25,-167.44C2736.84,-167.7 2739.97,-168.03 2743.54,-168.29"/>
<polygon fill="none" stroke="black" stroke-width="3" points="2735.21,-167.51 2729.08,-171.3 2723.22,-167.09 2729.36,-163.3 2735.21,-167.51"/>
<polygon fill="none" stroke="black" stroke-width="3" points="2741.82,-168.23 2747.96,-164.44 2753.82,-168.65 2747.68,-172.44 2741.82,-168.23"/>
</g>
<!-- x4 -->
<g id="node17" class="node">
<title>x4</title>
<path fill="none" stroke="black" d="M2540.27,-176.75C2540.27,-176.75 2578.77,-176.75 2578.77,-176.75 2584.77,-176.75 2590.77,-182.75 2590.77,-188.75 2590.77,-188.75 2590.77,-200.75 2590.77,-200.75 2590.77,-206.75 2584.77,-212.75 2578.77,-212.75 2578.77,-212.75 2540.27,-212.75 2540.27,-212.75 2534.27,-212.75 2528.27,-206.75 2528.27,-200.75 2528.27,-200.75 2528.27,-188.75 2528.27,-188.75 2528.27,-182.75 2534.27,-176.75 2540.27,-176.75"/>
<text text-anchor="middle" x="2559.52" y="-189.95" font-family="Times,serif" font-size="14.00">3:0 &#45; 3:0</text>
</g>
<!-- x4&#45;&gt;c23 -->
<g id="edge5" class="edge">
<title>x4:e&#45;&gt;c23:w</title>
<path fill="none" stroke="black" stroke-width="3" d="M2603.09,-191.25C2607.21,-188.64 2610.34,-185.09 2614.46,-182.49"/>
<polygon fill="none" stroke="black" stroke-width="3" points="2604.92,-190.74 2600.23,-196.22 2593.37,-194.01 2598.05,-188.53 2604.92,-190.74"/>
<polygon fill="none" stroke="black" stroke-width="3" points="2612.62,-183.01 2617.3,-177.52 2624.17,-179.74 2619.48,-185.22 2612.62,-183.01"/>
</g>
<!-- n3 -->
<g id="node40" class="node">
<title>n3</title>
<ellipse fill="black" stroke="black" cx="2856.82" cy="-178.75" rx="1.8" ry="1.8"/>
</g>
<!-- x5&#45;&gt;n3 -->
<g id="edge31" class="edge">
<title>x5:e&#45;&gt;n3:w</title>
<path fill="none" stroke="black" stroke-width="3" d="M2819.02,-169C2830.93,-169 2835.76,-174.04 2843.68,-176.87"/>
<polygon fill="black" stroke="black" stroke-width="3" points="2840.1,-179.82 2850.54,-178.01 2841.25,-172.92 2840.1,-179.82"/>
</g>
<!-- v6 -->
<g id="node19" class="node">
<title>v6</title>
<ellipse fill="none" stroke="black" cx="1323.94" cy="-309.75" rx="67.73" ry="18"/>
<text text-anchor="middle" x="1323.94" y="-304.7" font-family="Times,serif" font-size="14.00">10&#39;1110001101</text>
</g>
<!-- v6&#45;&gt;c24 -->
<g id="edge49" class="edge">
<title>v6:e&#45;&gt;c24:w</title>
<path fill="none" stroke="black" stroke-width="3" d="M1391.67,-309.75C1403.27,-309.75 1408.45,-307.3 1416.45,-305.92"/>
<polygon fill="black" stroke="black" stroke-width="3" points="1413.46,-309.67 1423.14,-305.37 1412.89,-302.69 1413.46,-309.67"/>
</g>
<!-- c24&#45;&gt;x2 -->
<g id="edge34" class="edge">
<title>c24:e&#45;&gt;x2:w</title>
<path fill="none" stroke="black" stroke-width="3" d="M1523.67,-293C1535.08,-293 1540.35,-291.48 1548.21,-290.61"/>
<polygon fill="black" stroke="black" stroke-width="3" points="1545.33,-294.26 1555.13,-290.24 1544.96,-287.27 1545.33,-294.26"/>
</g>
<!-- x8 -->
<g id="node23" class="node">
<title>x8</title>
<path fill="none" stroke="black" d="M811.71,-308.75C811.71,-308.75 850.21,-308.75 850.21,-308.75 856.21,-308.75 862.21,-314.75 862.21,-320.75 862.21,-320.75 862.21,-332.75 862.21,-332.75 862.21,-338.75 856.21,-344.75 850.21,-344.75 850.21,-344.75 811.71,-344.75 811.71,-344.75 805.71,-344.75 799.71,-338.75 799.71,-332.75 799.71,-332.75 799.71,-320.75 799.71,-320.75 799.71,-314.75 805.71,-308.75 811.71,-308.75"/>
<text text-anchor="middle" x="830.96" y="-321.95" font-family="Times,serif" font-size="14.00">4:0 &#45; 4:0</text>
</g>
<!-- c25&#45;&gt;x8 -->
<g id="edge8" class="edge">
<title>c25:e&#45;&gt;x8:w</title>
<path fill="none" stroke="black" stroke-width="3" d="M776.43,-326.94C780.03,-326.9 783.16,-326.85 786.74,-326.82"/>
<polygon fill="none" stroke="black" stroke-width="3" points="778.41,-326.93 772.43,-330.96 766.41,-326.99 772.39,-322.96 778.41,-326.93"/>
<polygon fill="none" stroke="black" stroke-width="3" points="785.01,-326.82 790.99,-322.79 797.01,-326.76 791.03,-330.79 785.01,-326.82"/>
</g>
<!-- x7&#45;&gt;c25 -->
<g id="edge7" class="edge">
<title>x7:e&#45;&gt;c25:w</title>
<path fill="none" stroke="black" stroke-width="3" d="M650.43,-314.69C654.03,-314.65 657.16,-314.6 660.74,-314.57"/>
<polygon fill="none" stroke="black" stroke-width="3" points="652.41,-314.68 646.43,-318.71 640.41,-314.74 646.39,-310.71 652.41,-314.68"/>
<polygon fill="none" stroke="black" stroke-width="3" points="659.01,-314.57 664.99,-310.54 671.01,-314.51 665.03,-318.54 659.01,-314.57"/>
</g>
<!-- x8&#45;&gt;x0 -->
<g id="edge37" class="edge">
<title>x8:e&#45;&gt;x0:w</title>
<path fill="none" stroke="black" stroke-width="3" d="M862.21,-327C873.58,-327 878.89,-327 886.76,-327"/>
<polygon fill="black" stroke="black" stroke-width="3" points="883.67,-330.5 893.67,-327 883.67,-323.5 883.67,-330.5"/>
</g>
<!-- v9 -->
<g id="node24" class="node">
<title>v9</title>
<ellipse fill="none" stroke="black" cx="67.73" cy="-362.75" rx="67.73" ry="18"/>
<text text-anchor="middle" x="67.73" y="-357.7" font-family="Times,serif" font-size="14.00">10&#39;1010101111</text>
</g>
<!-- v9&#45;&gt;c26 -->
<g id="edge50" class="edge">
<title>v9:e&#45;&gt;c26:w</title>
<path fill="none" stroke="black" stroke-width="3" d="M135.46,-362.75C146.83,-362.75 152.14,-362.62 160.01,-362.55"/>
<polygon fill="black" stroke="black" stroke-width="3" points="156.93,-366.06 166.92,-362.52 156.9,-359.06 156.93,-366.06"/>
</g>
<!-- c26&#45;&gt;c27 -->
<g id="edge35" class="edge">
<title>c26:e&#45;&gt;c27:w</title>
<path fill="none" stroke="black" stroke-width="3" d="M265.21,-375C367.13,-375 390.54,-405.75 492.46,-405.75 492.46,-405.75 492.46,-405.75 2072.39,-405.75 2188.46,-405.75 2181.44,-271.12 2289.57,-262.44"/>
<polygon fill="black" stroke="black" stroke-width="3" points="2286.38,-266.07 2296.23,-262.18 2286.1,-259.07 2286.38,-266.07"/>
</g>
<!-- x10 -->
<g id="node27" class="node">
<title>x10</title>
<path fill="none" stroke="black" d="M2441.77,-185.75C2441.77,-185.75 2480.27,-185.75 2480.27,-185.75 2486.27,-185.75 2492.27,-191.75 2492.27,-197.75 2492.27,-197.75 2492.27,-209.75 2492.27,-209.75 2492.27,-215.75 2486.27,-221.75 2480.27,-221.75 2480.27,-221.75 2441.77,-221.75 2441.77,-221.75 2435.77,-221.75 2429.77,-215.75 2429.77,-209.75 2429.77,-209.75 2429.77,-197.75 2429.77,-197.75 2429.77,-191.75 2435.77,-185.75 2441.77,-185.75"/>
<text text-anchor="middle" x="2461.02" y="-198.95" font-family="Times,serif" font-size="14.00">9:0 &#45; 9:0</text>
</g>
<!-- c27&#45;&gt;x10 -->
<g id="edge9" class="edge">
<title>c27:e&#45;&gt;x10:w</title>
<path fill="none" stroke="black" stroke-width="3" d="M2405.42,-244.69C2412.31,-235.87 2411.19,-218.25 2417.95,-209.28"/>
<polygon fill="none" stroke="black" stroke-width="3" points="2407.15,-243.91 2403.35,-250.03 2396.23,-248.88 2400.03,-242.75 2407.15,-243.91"/>
<polygon fill="none" stroke="black" stroke-width="3" points="2416.45,-209.98 2420.19,-203.82 2427.32,-204.9 2423.58,-211.06 2416.45,-209.98"/>
</g>
<!-- x10&#45;&gt;x4 -->
<g id="edge36" class="edge">
<title>x10:e&#45;&gt;x4:w</title>
<path fill="none" stroke="black" stroke-width="3" d="M2492.27,-204C2504.12,-204 2509.01,-199.35 2516.95,-196.74"/>
<polygon fill="black" stroke="black" stroke-width="3" points="2514.43,-200.66 2523.78,-195.69 2513.37,-193.74 2514.43,-200.66"/>
</g>
<!-- c29 -->
<g id="node28" class="node">
<title>c29</title>
<polygon fill="none" stroke="black" points="2993.12,-95 2993.12,-168.5 3092.12,-168.5 3092.12,-95 2993.12,-95"/>
<text text-anchor="middle" x="3005.99" y="-151.2" font-family="Times,serif" font-size="14.00">A</text>
<polyline fill="none" stroke="black" points="2993.12,-144 3018.87,-144"/>
<text text-anchor="middle" x="3005.99" y="-126.7" font-family="Times,serif" font-size="14.00">B</text>
<polyline fill="none" stroke="black" points="2993.12,-119.5 3018.87,-119.5"/>
<text text-anchor="middle" x="3005.99" y="-102.2" font-family="Times,serif" font-size="14.00">S</text>
<polyline fill="none" stroke="black" points="3018.87,-95 3018.87,-168.5"/>
<text text-anchor="middle" x="3042.62" y="-134.95" font-family="Times,serif" font-size="14.00">$16</text>
<text text-anchor="middle" x="3042.62" y="-118.45" font-family="Times,serif" font-size="14.00">$mux</text>
<polyline fill="none" stroke="black" points="3066.37,-95 3066.37,-168.5"/>
<text text-anchor="middle" x="3079.24" y="-126.7" font-family="Times,serif" font-size="14.00">Y</text>
</g>
<!-- x14 -->
<g id="node32" class="node">
<title>x14</title>
<path fill="none" stroke="black" d="M3140.12,-108.75C3140.12,-108.75 3178.62,-108.75 3178.62,-108.75 3184.62,-108.75 3190.62,-114.75 3190.62,-120.75 3190.62,-120.75 3190.62,-132.75 3190.62,-132.75 3190.62,-138.75 3184.62,-144.75 3178.62,-144.75 3178.62,-144.75 3140.12,-144.75 3140.12,-144.75 3134.12,-144.75 3128.12,-138.75 3128.12,-132.75 3128.12,-132.75 3128.12,-120.75 3128.12,-120.75 3128.12,-114.75 3134.12,-108.75 3140.12,-108.75"/>
<text text-anchor="middle" x="3159.37" y="-121.95" font-family="Times,serif" font-size="14.00">3:0 &#45; 3:0</text>
</g>
<!-- c29&#45;&gt;x14 -->
<g id="edge13" class="edge">
<title>c29:e&#45;&gt;x14:w</title>
<path fill="none" stroke="black" stroke-width="3" d="M3104.88,-130.49C3108.57,-129.72 3111.75,-128.75 3115.45,-127.99"/>
<polygon fill="none" stroke="black" stroke-width="3" points="3106.75,-130.3 3101.17,-134.87 3094.81,-131.48 3100.39,-126.91 3106.75,-130.3"/>
<polygon fill="none" stroke="black" stroke-width="3" points="3113.49,-128.19 3119.07,-123.62 3125.43,-127.01 3119.85,-131.58 3113.49,-128.19"/>
</g>
<!-- x11 -->
<g id="node29" class="node">
<title>x11</title>
<path fill="none" stroke="black" d="M2906.62,-160.75C2906.62,-160.75 2945.12,-160.75 2945.12,-160.75 2951.12,-160.75 2957.12,-166.75 2957.12,-172.75 2957.12,-172.75 2957.12,-184.75 2957.12,-184.75 2957.12,-190.75 2951.12,-196.75 2945.12,-196.75 2945.12,-196.75 2906.62,-196.75 2906.62,-196.75 2900.62,-196.75 2894.62,-190.75 2894.62,-184.75 2894.62,-184.75 2894.62,-172.75 2894.62,-172.75 2894.62,-166.75 2900.62,-160.75 2906.62,-160.75"/>
<text text-anchor="middle" x="2925.87" y="-173.95" font-family="Times,serif" font-size="14.00">3:0 &#45; 3:0</text>
</g>
<!-- x11&#45;&gt;c29 -->
<g id="edge10" class="edge">
<title>x11:e&#45;&gt;c29:w</title>
<path fill="none" stroke="black" stroke-width="3" d="M2969.07,-174.41C2973.68,-170.43 2976.57,-164.55 2981.19,-160.57"/>
<polygon fill="none" stroke="black" stroke-width="3" points="2970.94,-173.73 2966.67,-179.54 2959.66,-177.83 2963.94,-172.02 2970.94,-173.73"/>
<polygon fill="none" stroke="black" stroke-width="3" points="2979.3,-161.26 2983.57,-155.46 2990.58,-157.17 2986.3,-162.98 2979.3,-161.26"/>
</g>
<!-- x12&#45;&gt;c29 -->
<g id="edge11" class="edge">
<title>x12:e&#45;&gt;c29:w</title>
<path fill="none" stroke="black" stroke-width="3" d="M263.42,-61.77C360.44,-62.07 389.35,-65.75 492.46,-65.75 492.46,-65.75 492.46,-65.75 2788.77,-65.75 2879.74,-65.75 2896.23,-125.71 2980.22,-131.33"/>
<polygon fill="none" stroke="black" stroke-width="3" points="265.29,-61.77 259.28,-65.76 253.29,-61.75 259.29,-57.76 265.29,-61.77"/>
<polygon fill="none" stroke="black" stroke-width="3" points="2978.42,-131.27 2984.55,-127.47 2990.42,-131.66 2984.29,-135.46 2978.42,-131.27"/>
</g>
<!-- x13&#45;&gt;c29 -->
<g id="edge12" class="edge">
<title>x13:e&#45;&gt;c29:w</title>
<path fill="none" stroke="black" d="M401.55,-114.68C487.51,-113.76 513.43,-103.75 605.46,-103.75 605.46,-103.75 605.46,-103.75 2788.77,-103.75 2875.17,-103.75 2899.91,-106.92 2980.28,-107.23"/>
<polygon fill="none" stroke="black" points="401.61,-114.68 395.63,-118.71 389.61,-114.75 395.59,-110.71 401.61,-114.68"/>
<polygon fill="none" stroke="black" points="2980.22,-107.23 2986.23,-103.24 2992.22,-107.25 2986.21,-111.24 2980.22,-107.23"/>
</g>
<!-- x14&#45;&gt;n10 -->
<g id="edge15" class="edge">
<title>x14:e&#45;&gt;n10:w</title>
<path fill="none" stroke="black" stroke-width="3" d="M3190.62,-127C3207.4,-127 3206.82,-107.32 3216.01,-98.7"/>
<polygon fill="black" stroke="black" stroke-width="3" points="3214.22,-103.11 3222.36,-96.34 3211.77,-96.55 3214.22,-103.11"/>
</g>
<!-- v15 -->
<g id="node33" class="node">
<title>v15</title>
<ellipse fill="none" stroke="black" cx="3042.62" cy="-58.75" rx="44.7" ry="18"/>
<text text-anchor="middle" x="3042.62" y="-53.7" font-family="Times,serif" font-size="14.00">6&#39;000000</text>
</g>
<!-- x16 -->
<g id="node34" class="node">
<title>x16</title>
<path fill="none" stroke="black" d="M3140.12,-49.75C3140.12,-49.75 3178.62,-49.75 3178.62,-49.75 3184.62,-49.75 3190.62,-55.75 3190.62,-61.75 3190.62,-61.75 3190.62,-73.75 3190.62,-73.75 3190.62,-79.75 3184.62,-85.75 3178.62,-85.75 3178.62,-85.75 3140.12,-85.75 3140.12,-85.75 3134.12,-85.75 3128.12,-79.75 3128.12,-73.75 3128.12,-73.75 3128.12,-61.75 3128.12,-61.75 3128.12,-55.75 3134.12,-49.75 3140.12,-49.75"/>
<text text-anchor="middle" x="3159.37" y="-62.95" font-family="Times,serif" font-size="14.00">5:0 &#45; 9:4</text>
</g>
<!-- v15&#45;&gt;x16 -->
<g id="edge46" class="edge">
<title>v15:e&#45;&gt;x16:w</title>
<path fill="none" stroke="black" stroke-width="3" d="M3088.74,-58.75C3102.2,-58.75 3107.52,-63.81 3116.92,-66.34"/>
<polygon fill="black" stroke="black" stroke-width="3" points="3113.26,-69.41 3123.61,-67.18 3114.13,-62.47 3113.26,-69.41"/>
</g>
<!-- x16&#45;&gt;n10 -->
<g id="edge16" class="edge">
<title>x16:e&#45;&gt;n10:w</title>
<path fill="none" stroke="black" stroke-width="3" d="M3190.62,-68C3205.88,-68 3207.19,-83.68 3215.91,-91.03"/>
<polygon fill="black" stroke="black" stroke-width="3" points="3211.74,-93.28 3222.33,-93.26 3214.03,-86.67 3211.74,-93.28"/>
</g>
<!-- v17 -->
<g id="node35" class="node">
<title>v17</title>
<ellipse fill="none" stroke="black" cx="2673.64" cy="-227.75" rx="44.7" ry="18"/>
<text text-anchor="middle" x="2673.64" y="-222.7" font-family="Times,serif" font-size="14.00">6&#39;000000</text>
</g>
<!-- x18 -->
<g id="node36" class="node">
<title>x18</title>
<path fill="none" stroke="black" d="M2768.52,-208.75C2768.52,-208.75 2807.02,-208.75 2807.02,-208.75 2813.02,-208.75 2819.02,-214.75 2819.02,-220.75 2819.02,-220.75 2819.02,-232.75 2819.02,-232.75 2819.02,-238.75 2813.02,-244.75 2807.02,-244.75 2807.02,-244.75 2768.52,-244.75 2768.52,-244.75 2762.52,-244.75 2756.52,-238.75 2756.52,-232.75 2756.52,-232.75 2756.52,-220.75 2756.52,-220.75 2756.52,-214.75 2762.52,-208.75 2768.52,-208.75"/>
<text text-anchor="middle" x="2787.77" y="-221.95" font-family="Times,serif" font-size="14.00">5:0 &#45; 9:4</text>
</g>
<!-- v17&#45;&gt;x18 -->
<g id="edge47" class="edge">
<title>v17:e&#45;&gt;x18:w</title>
<path fill="none" stroke="black" stroke-width="3" d="M2719.76,-227.75C2731.51,-227.75 2736.91,-227.23 2745.1,-226.94"/>
<polygon fill="black" stroke="black" stroke-width="3" points="2742.04,-230.5 2751.98,-226.83 2741.92,-223.5 2742.04,-230.5"/>
</g>
<!-- x18&#45;&gt;n3 -->
<g id="edge30" class="edge">
<title>x18:e&#45;&gt;n3:w</title>
<path fill="none" stroke="black" stroke-width="3" d="M2819.02,-227C2840.97,-227 2833.13,-194.53 2844.37,-182.86"/>
<polygon fill="black" stroke="black" stroke-width="3" points="2842.72,-187.25 2850.78,-180.39 2840.19,-180.73 2842.72,-187.25"/>
</g>
<!-- v19 -->
<g id="node37" class="node">
<title>v19</title>
<ellipse fill="none" stroke="black" cx="1705.04" cy="-312.75" rx="40.09" ry="18"/>
<text text-anchor="middle" x="1705.04" y="-307.7" font-family="Times,serif" font-size="14.00">5&#39;00000</text>
</g>
<!-- x20 -->
<g id="node38" class="node">
<title>x20</title>
<path fill="none" stroke="black" d="M1799.92,-291.75C1799.92,-291.75 1838.42,-291.75 1838.42,-291.75 1844.42,-291.75 1850.42,-297.75 1850.42,-303.75 1850.42,-303.75 1850.42,-315.75 1850.42,-315.75 1850.42,-321.75 1844.42,-327.75 1838.42,-327.75 1838.42,-327.75 1799.92,-327.75 1799.92,-327.75 1793.92,-327.75 1787.92,-321.75 1787.92,-315.75 1787.92,-315.75 1787.92,-303.75 1787.92,-303.75 1787.92,-297.75 1793.92,-291.75 1799.92,-291.75"/>
<text text-anchor="middle" x="1819.17" y="-304.95" font-family="Times,serif" font-size="14.00">4:0 &#45; 9:5</text>
</g>
<!-- v19&#45;&gt;x20 -->
<g id="edge48" class="edge">
<title>v19:e&#45;&gt;x20:w</title>
<path fill="none" stroke="black" stroke-width="3" d="M1746.51,-312.75C1760.49,-312.75 1766.47,-311.03 1776.57,-310.19"/>
<polygon fill="black" stroke="black" stroke-width="3" points="1773.53,-313.81 1783.38,-309.93 1773.25,-306.82 1773.53,-313.81"/>
</g>
<!-- x20&#45;&gt;n2 -->
<g id="edge27" class="edge">
<title>x20:e&#45;&gt;n2:w</title>
<path fill="none" stroke="black" stroke-width="3" d="M1850.42,-310C1876.1,-310 1862.41,-268.53 1875.78,-255.57"/>
<polygon fill="black" stroke="black" stroke-width="3" points="1873.92,-259.96 1882.14,-253.29 1871.55,-253.37 1873.92,-259.96"/>
</g>
<!-- n2&#45;&gt;x1 -->
<g id="edge29" class="edge">
<title>n2:e&#45;&gt;x1:w</title>
<path fill="none" stroke="black" stroke-width="3" d="M1890.02,-251.75C1901.89,-251.75 1906.76,-246.97 1914.69,-244.28"/>
<polygon fill="black" stroke="black" stroke-width="3" points="1912.2,-248.22 1921.53,-243.21 1911.11,-241.3 1912.2,-248.22"/>
</g>
<!-- n3&#45;&gt;x11 -->
<g id="edge32" class="edge">
<title>n3:e&#45;&gt;x11:w</title>
<path fill="none" stroke="black" stroke-width="3" d="M2858.62,-178.75C2869.99,-178.75 2875.3,-178.88 2883.17,-178.95"/>
<polygon fill="black" stroke="black" stroke-width="3" points="2880.06,-182.44 2890.08,-178.98 2880.09,-175.44 2880.06,-182.44"/>
</g>
</g>
</svg>
