<?xml version="1.0" encoding="UTF-8" standalone="no"?>
<!DOCTYPE svg PUBLIC "-//W3C//DTD SVG 1.1//EN"
 "http://www.w3.org/Graphics/SVG/1.1/DTD/svg11.dtd">
<!-- Generated by graphviz version 12.2.1 (20241206.2353)
 -->
<!-- Title: top Pages: 1 -->
<svg width="3219pt" height="1013pt"
 viewBox="0.00 0.00 3219.18 1012.84" xmlns="http://www.w3.org/2000/svg" xmlns:xlink="http://www.w3.org/1999/xlink">
<g id="graph0" class="graph" transform="scale(1 1) rotate(0) translate(4 1008.84)">
<title>top</title>
<polygon fill="white" stroke="none" points="-4,4 -4,-1008.84 3215.18,-1008.84 3215.18,4 -4,4"/>
<text text-anchor="middle" x="1605.59" y="-7.2" font-family="Times,serif" font-size="14.00">top</text>
<!-- n10 -->
<g id="node1" class="node">
<title>n10</title>
<polygon fill="none" stroke="black" points="91.02,-274.34 6.82,-256.34 91.02,-238.34 175.22,-256.34 91.02,-274.34"/>
<text text-anchor="middle" x="91.02" y="-251.29" font-family="Times,serif" font-size="14.00">expr_438433</text>
</g>
<!-- c34 -->
<g id="node37" class="node">
<title>c34</title>
<polygon fill="none" stroke="black" points="215.65,-447.59 215.65,-521.09 314.65,-521.09 314.65,-447.59 215.65,-447.59"/>
<text text-anchor="middle" x="228.52" y="-503.79" font-family="Times,serif" font-size="14.00">A</text>
<polyline fill="none" stroke="black" points="215.65,-496.59 241.4,-496.59"/>
<text text-anchor="middle" x="228.52" y="-479.29" font-family="Times,serif" font-size="14.00">B</text>
<polyline fill="none" stroke="black" points="215.65,-472.09 241.4,-472.09"/>
<text text-anchor="middle" x="228.52" y="-454.79" font-family="Times,serif" font-size="14.00">S</text>
<polyline fill="none" stroke="black" points="241.4,-447.59 241.4,-521.09"/>
<text text-anchor="middle" x="265.15" y="-487.54" font-family="Times,serif" font-size="14.00">$7</text>
<text text-anchor="middle" x="265.15" y="-471.04" font-family="Times,serif" font-size="14.00">$mux</text>
<polyline fill="none" stroke="black" points="288.9,-447.59 288.9,-521.09"/>
<text text-anchor="middle" x="301.77" y="-479.29" font-family="Times,serif" font-size="14.00">Y</text>
</g>
<!-- n10&#45;&gt;c34 -->
<g id="edge24" class="edge">
<title>n10:e&#45;&gt;c34:w</title>
<path fill="none" stroke="black" stroke-width="3" d="M175.22,-256.34C284.59,-256.34 114.58,-490.45 203.21,-507.82"/>
<polygon fill="black" stroke="black" stroke-width="3" points="199.85,-511.04 210.12,-508.44 200.47,-504.06 199.85,-511.04"/>
</g>
<!-- n11 -->
<g id="node2" class="node">
<title>n11</title>
<polygon fill="none" stroke="black" points="319.07,-108.88 319.07,-123.79 287.48,-134.34 242.81,-134.34 211.22,-123.79 211.22,-108.88 242.81,-98.34 287.48,-98.34 319.07,-108.88"/>
<text text-anchor="middle" x="265.15" y="-111.29" font-family="Times,serif" font-size="14.00">input_data</text>
</g>
<!-- c21 -->
<g id="node9" class="node">
<title>c21</title>
<polygon fill="none" stroke="black" points="501.57,-88.84 501.57,-137.84 595.32,-137.84 595.32,-88.84 501.57,-88.84"/>
<text text-anchor="middle" x="514.44" y="-120.54" font-family="Times,serif" font-size="14.00">A</text>
<polyline fill="none" stroke="black" points="501.57,-113.34 527.32,-113.34"/>
<text text-anchor="middle" x="514.44" y="-96.04" font-family="Times,serif" font-size="14.00">B</text>
<polyline fill="none" stroke="black" points="527.32,-88.84 527.32,-137.84"/>
<text text-anchor="middle" x="548.44" y="-116.54" font-family="Times,serif" font-size="14.00">$2</text>
<text text-anchor="middle" x="548.44" y="-100.04" font-family="Times,serif" font-size="14.00">$add</text>
<polyline fill="none" stroke="black" points="569.57,-88.84 569.57,-137.84"/>
<text text-anchor="middle" x="582.44" y="-108.54" font-family="Times,serif" font-size="14.00">Y</text>
</g>
<!-- n11&#45;&gt;c21 -->
<g id="edge25" class="edge">
<title>n11:e&#45;&gt;c21:w</title>
<path fill="none" stroke="black" stroke-width="3" d="M319.07,-116.34C335.29,-116.34 338.92,-120.82 355.07,-122.34 415.98,-128.06 434.26,-125.9 490.25,-125.62"/>
<polygon fill="black" stroke="black" stroke-width="3" points="487.04,-129.13 497.03,-125.6 487.02,-122.13 487.04,-129.13"/>
</g>
<!-- c25 -->
<g id="node17" class="node">
<title>c25</title>
<polygon fill="none" stroke="black" points="364.57,-71.84 364.57,-112.84 456.07,-112.84 456.07,-71.84 364.57,-71.84"/>
<text text-anchor="middle" x="377.44" y="-87.54" font-family="Times,serif" font-size="14.00">A</text>
<polyline fill="none" stroke="black" points="390.32,-71.84 390.32,-112.84"/>
<text text-anchor="middle" x="410.32" y="-95.54" font-family="Times,serif" font-size="14.00">$1</text>
<text text-anchor="middle" x="410.32" y="-79.04" font-family="Times,serif" font-size="14.00">$not</text>
<polyline fill="none" stroke="black" points="430.32,-71.84 430.32,-112.84"/>
<text text-anchor="middle" x="443.19" y="-87.54" font-family="Times,serif" font-size="14.00">Y</text>
</g>
<!-- n11&#45;&gt;c25 -->
<g id="edge26" class="edge">
<title>n11:e&#45;&gt;c25:w</title>
<path fill="none" stroke="black" stroke-width="3" d="M319.07,-116.34C336.93,-116.34 340.35,-101.26 352.34,-95.13"/>
<polygon fill="black" stroke="black" stroke-width="3" points="350.16,-99.21 359.14,-93.59 348.61,-92.39 350.16,-99.21"/>
</g>
<!-- c29 -->
<g id="node25" class="node">
<title>c29</title>
<polygon fill="none" stroke="black" points="631.32,-76.84 631.32,-125.84 724.32,-125.84 724.32,-76.84 631.32,-76.84"/>
<text text-anchor="middle" x="644.19" y="-108.54" font-family="Times,serif" font-size="14.00">A</text>
<polyline fill="none" stroke="black" points="631.32,-101.34 657.07,-101.34"/>
<text text-anchor="middle" x="644.19" y="-84.04" font-family="Times,serif" font-size="14.00">B</text>
<polyline fill="none" stroke="black" points="657.07,-76.84 657.07,-125.84"/>
<text text-anchor="middle" x="677.82" y="-104.54" font-family="Times,serif" font-size="14.00">$3</text>
<text text-anchor="middle" x="677.82" y="-88.04" font-family="Times,serif" font-size="14.00">$sub</text>
<polyline fill="none" stroke="black" points="698.57,-76.84 698.57,-125.84"/>
<text text-anchor="middle" x="711.44" y="-96.54" font-family="Times,serif" font-size="14.00">Y</text>
</g>
<!-- n11&#45;&gt;c29 -->
<g id="edge27" class="edge">
<title>n11:e&#45;&gt;c29:w</title>
<path fill="none" stroke="black" stroke-width="3" d="M319.07,-116.34C347.91,-116.34 329.63,-75.95 355.07,-62.34 449.44,-11.83 490.35,-58.35 595.32,-79.34 607,-81.67 611.92,-85.69 619.92,-87.76"/>
<polygon fill="black" stroke="black" stroke-width="3" points="616.47,-90.88 626.81,-88.56 617.28,-83.93 616.47,-90.88"/>
</g>
<!-- c35 -->
<g id="node39" class="node">
<title>c35</title>
<polygon fill="none" stroke="black" points="2112.61,-484.59 2112.61,-558.09 2211.61,-558.09 2211.61,-484.59 2112.61,-484.59"/>
<text text-anchor="middle" x="2125.49" y="-540.79" font-family="Times,serif" font-size="14.00">A</text>
<polyline fill="none" stroke="black" points="2112.61,-533.59 2138.36,-533.59"/>
<text text-anchor="middle" x="2125.49" y="-516.29" font-family="Times,serif" font-size="14.00">B</text>
<polyline fill="none" stroke="black" points="2112.61,-509.09 2138.36,-509.09"/>
<text text-anchor="middle" x="2125.49" y="-491.79" font-family="Times,serif" font-size="14.00">S</text>
<polyline fill="none" stroke="black" points="2138.36,-484.59 2138.36,-558.09"/>
<text text-anchor="middle" x="2162.11" y="-524.54" font-family="Times,serif" font-size="14.00">$12</text>
<text text-anchor="middle" x="2162.11" y="-508.04" font-family="Times,serif" font-size="14.00">$mux</text>
<polyline fill="none" stroke="black" points="2185.86,-484.59 2185.86,-558.09"/>
<text text-anchor="middle" x="2198.74" y="-516.29" font-family="Times,serif" font-size="14.00">Y</text>
</g>
<!-- n11&#45;&gt;c35 -->
<g id="edge28" class="edge">
<title>n11:e&#45;&gt;c35:w</title>
<path fill="none" stroke="black" stroke-width="3" d="M319.07,-116.34C337.82,-116.34 337.18,-132.71 355.07,-138.34 417.29,-157.92 436.37,-145.07 501.57,-147.34 927.21,-162.18 1037.69,-98.78 1459.82,-155.34 1584.1,-171.99 1621.26,-169.68 1732.61,-227.34 1778.86,-251.29 2028.02,-514.57 2101.67,-543.3"/>
<polygon fill="black" stroke="black" stroke-width="3" points="2097.66,-545.96 2108.19,-544.81 2099.24,-539.14 2097.66,-545.96"/>
</g>
<!-- n12 -->
<g id="node3" class="node">
<title>n12</title>
<polygon fill="none" stroke="black" points="3211.18,-615.88 3211.18,-630.79 3176.67,-641.34 3127.87,-641.34 3093.37,-630.79 3093.37,-615.88 3127.87,-605.34 3176.67,-605.34 3211.18,-615.88"/>
<text text-anchor="middle" x="3152.27" y="-618.29" font-family="Times,serif" font-size="14.00">output_data</text>
</g>
<!-- n13 -->
<g id="node4" class="node">
<title>n13</title>
<polygon fill="none" stroke="black" points="914.07,-440.34 858.82,-422.34 914.07,-404.34 969.32,-422.34 914.07,-440.34"/>
<text text-anchor="middle" x="914.07" y="-417.29" font-family="Times,serif" font-size="14.00">temp_0</text>
</g>
<!-- x0 -->
<g id="node11" class="node">
<title>x0</title>
<path fill="none" stroke="black" d="M1409.32,-763.84C1409.32,-763.84 1447.82,-763.84 1447.82,-763.84 1453.82,-763.84 1459.82,-769.84 1459.82,-775.84 1459.82,-775.84 1459.82,-800.84 1459.82,-800.84 1459.82,-806.84 1453.82,-812.84 1447.82,-812.84 1447.82,-812.84 1409.32,-812.84 1409.32,-812.84 1403.32,-812.84 1397.32,-806.84 1397.32,-800.84 1397.32,-800.84 1397.32,-775.84 1397.32,-775.84 1397.32,-769.84 1403.32,-763.84 1409.32,-763.84"/>
<text text-anchor="middle" x="1428.57" y="-795.54" font-family="Times,serif" font-size="14.00">0:0 &#45; 3:3</text>
<polyline fill="none" stroke="black" points="1397.32,-788.34 1459.82,-788.34"/>
<text text-anchor="middle" x="1428.57" y="-771.04" font-family="Times,serif" font-size="14.00">3:1 &#45; 2:0</text>
</g>
<!-- n13&#45;&gt;x0 -->
<g id="edge31" class="edge">
<title>n13:e&#45;&gt;x0:w</title>
<path fill="none" stroke="black" d="M969.32,-422.34C1047.42,-422.34 957.45,-532.63 1005.32,-594.34 1025.66,-620.57 1042.78,-612.2 1072.32,-627.34 1214.57,-700.26 1232.83,-795.98 1386.05,-800.43"/>
<polygon fill="black" stroke="black" points="1385.76,-803.92 1395.8,-800.57 1385.86,-796.92 1385.76,-803.92"/>
</g>
<!-- x3 -->
<g id="node15" class="node">
<title>x3</title>
<path fill="none" stroke="black" d="M1409.32,-671.59C1409.32,-671.59 1447.82,-671.59 1447.82,-671.59 1453.82,-671.59 1459.82,-677.59 1459.82,-683.59 1459.82,-683.59 1459.82,-733.09 1459.82,-733.09 1459.82,-739.09 1453.82,-745.09 1447.82,-745.09 1447.82,-745.09 1409.32,-745.09 1409.32,-745.09 1403.32,-745.09 1397.32,-739.09 1397.32,-733.09 1397.32,-733.09 1397.32,-683.59 1397.32,-683.59 1397.32,-677.59 1403.32,-671.59 1409.32,-671.59"/>
<text text-anchor="middle" x="1428.57" y="-727.79" font-family="Times,serif" font-size="14.00">0:0 &#45; 4:4</text>
<polyline fill="none" stroke="black" points="1397.32,-720.59 1459.82,-720.59"/>
<text text-anchor="middle" x="1428.57" y="-703.29" font-family="Times,serif" font-size="14.00">4:4 &#45; 3:3</text>
<polyline fill="none" stroke="black" points="1397.32,-696.09 1459.82,-696.09"/>
<text text-anchor="middle" x="1428.57" y="-678.79" font-family="Times,serif" font-size="14.00">3:1 &#45; 2:0</text>
</g>
<!-- n13&#45;&gt;x3 -->
<g id="edge35" class="edge">
<title>n13:e&#45;&gt;x3:w</title>
<path fill="none" stroke="black" d="M969.32,-422.34C1015.57,-422.34 974.1,-593.21 1005.32,-627.34 1124.47,-757.61 1213.02,-733.95 1385.81,-732.87"/>
<polygon fill="black" stroke="black" points="1385.82,-736.38 1395.8,-732.84 1385.79,-729.38 1385.82,-736.38"/>
</g>
<!-- x4 -->
<g id="node19" class="node">
<title>x4</title>
<path fill="none" stroke="black" d="M1409.32,-485.59C1409.32,-485.59 1447.82,-485.59 1447.82,-485.59 1453.82,-485.59 1459.82,-491.59 1459.82,-497.59 1459.82,-497.59 1459.82,-547.09 1459.82,-547.09 1459.82,-553.09 1453.82,-559.09 1447.82,-559.09 1447.82,-559.09 1409.32,-559.09 1409.32,-559.09 1403.32,-559.09 1397.32,-553.09 1397.32,-547.09 1397.32,-547.09 1397.32,-497.59 1397.32,-497.59 1397.32,-491.59 1403.32,-485.59 1409.32,-485.59"/>
<text text-anchor="middle" x="1428.57" y="-541.79" font-family="Times,serif" font-size="14.00">4:4 &#45; 4:4</text>
<polyline fill="none" stroke="black" points="1397.32,-534.59 1459.82,-534.59"/>
<text text-anchor="middle" x="1428.57" y="-517.29" font-family="Times,serif" font-size="14.00">3:1 &#45; 3:1</text>
<polyline fill="none" stroke="black" points="1397.32,-510.09 1459.82,-510.09"/>
<text text-anchor="middle" x="1428.57" y="-492.79" font-family="Times,serif" font-size="14.00">0:0 &#45; 0:0</text>
</g>
<!-- n13&#45;&gt;x4 -->
<g id="edge36" class="edge">
<title>n13:e&#45;&gt;x4:w</title>
<path fill="none" stroke="black" d="M969.32,-422.34C1056.45,-422.34 1286.98,-385.88 1361.32,-431.34 1385.96,-446.41 1370.01,-484.69 1386.37,-495.16"/>
<polygon fill="black" stroke="black" points="1385.3,-498.5 1395.85,-497.48 1386.97,-491.7 1385.3,-498.5"/>
</g>
<!-- x5 -->
<g id="node20" class="node">
<title>x5</title>
<path fill="none" stroke="black" d="M1409.32,-392.59C1409.32,-392.59 1447.82,-392.59 1447.82,-392.59 1453.82,-392.59 1459.82,-398.59 1459.82,-404.59 1459.82,-404.59 1459.82,-454.09 1459.82,-454.09 1459.82,-460.09 1453.82,-466.09 1447.82,-466.09 1447.82,-466.09 1409.32,-466.09 1409.32,-466.09 1403.32,-466.09 1397.32,-460.09 1397.32,-454.09 1397.32,-454.09 1397.32,-404.59 1397.32,-404.59 1397.32,-398.59 1403.32,-392.59 1409.32,-392.59"/>
<text text-anchor="middle" x="1428.57" y="-448.79" font-family="Times,serif" font-size="14.00">4:4 &#45; 4:4</text>
<polyline fill="none" stroke="black" points="1397.32,-441.59 1459.82,-441.59"/>
<text text-anchor="middle" x="1428.57" y="-424.29" font-family="Times,serif" font-size="14.00">3:1 &#45; 3:1</text>
<polyline fill="none" stroke="black" points="1397.32,-417.09 1459.82,-417.09"/>
<text text-anchor="middle" x="1428.57" y="-399.79" font-family="Times,serif" font-size="14.00">0:0 &#45; 0:0</text>
</g>
<!-- n13&#45;&gt;x5 -->
<g id="edge37" class="edge">
<title>n13:e&#45;&gt;x5:w</title>
<path fill="none" stroke="black" d="M969.32,-422.34C989.86,-422.34 985.94,-400.17 1005.32,-393.34 1154.53,-340.71 1204.98,-368.97 1361.32,-393.34 1373.38,-395.22 1378.05,-400.44 1386.15,-403.15"/>
<polygon fill="black" stroke="black" points="1385.41,-406.58 1395.82,-404.61 1386.46,-399.66 1385.41,-406.58"/>
</g>
<!-- x7 -->
<g id="node23" class="node">
<title>x7</title>
<path fill="none" stroke="black" d="M1409.32,-578.59C1409.32,-578.59 1447.82,-578.59 1447.82,-578.59 1453.82,-578.59 1459.82,-584.59 1459.82,-590.59 1459.82,-590.59 1459.82,-640.09 1459.82,-640.09 1459.82,-646.09 1453.82,-652.09 1447.82,-652.09 1447.82,-652.09 1409.32,-652.09 1409.32,-652.09 1403.32,-652.09 1397.32,-646.09 1397.32,-640.09 1397.32,-640.09 1397.32,-590.59 1397.32,-590.59 1397.32,-584.59 1403.32,-578.59 1409.32,-578.59"/>
<text text-anchor="middle" x="1428.57" y="-634.79" font-family="Times,serif" font-size="14.00">4:4 &#45; 4:4</text>
<polyline fill="none" stroke="black" points="1397.32,-627.59 1459.82,-627.59"/>
<text text-anchor="middle" x="1428.57" y="-610.29" font-family="Times,serif" font-size="14.00">3:1 &#45; 3:1</text>
<polyline fill="none" stroke="black" points="1397.32,-603.09 1459.82,-603.09"/>
<text text-anchor="middle" x="1428.57" y="-585.79" font-family="Times,serif" font-size="14.00">0:0 &#45; 0:0</text>
</g>
<!-- n13&#45;&gt;x7 -->
<g id="edge38" class="edge">
<title>n13:e&#45;&gt;x7:w</title>
<path fill="none" stroke="black" d="M969.32,-422.34C985.81,-422.34 989.27,-427.53 1005.32,-431.34 1163.1,-468.78 1235.56,-408.95 1361.32,-511.34 1387.75,-532.86 1365.57,-577.96 1386.14,-588.57"/>
<polygon fill="black" stroke="black" points="1385.34,-591.98 1395.83,-590.54 1386.73,-585.12 1385.34,-591.98"/>
</g>
<!-- x9 -->
<g id="node28" class="node">
<title>x9</title>
<path fill="none" stroke="black" d="M1409.32,-324.84C1409.32,-324.84 1447.82,-324.84 1447.82,-324.84 1453.82,-324.84 1459.82,-330.84 1459.82,-336.84 1459.82,-336.84 1459.82,-361.84 1459.82,-361.84 1459.82,-367.84 1453.82,-373.84 1447.82,-373.84 1447.82,-373.84 1409.32,-373.84 1409.32,-373.84 1403.32,-373.84 1397.32,-367.84 1397.32,-361.84 1397.32,-361.84 1397.32,-336.84 1397.32,-336.84 1397.32,-330.84 1403.32,-324.84 1409.32,-324.84"/>
<text text-anchor="middle" x="1428.57" y="-356.54" font-family="Times,serif" font-size="14.00">3:1 &#45; 3:1</text>
<polyline fill="none" stroke="black" points="1397.32,-349.34 1459.82,-349.34"/>
<text text-anchor="middle" x="1428.57" y="-332.04" font-family="Times,serif" font-size="14.00">0:0 &#45; 0:0</text>
</g>
<!-- n13&#45;&gt;x9 -->
<g id="edge39" class="edge">
<title>n13:e&#45;&gt;x9:w</title>
<path fill="none" stroke="black" d="M969.32,-422.34C997.43,-422.34 981.15,-384.69 1005.32,-370.34 1032.63,-354.12 1159.32,-337.63 1386.1,-337.1"/>
<polygon fill="black" stroke="black" points="1385.81,-340.6 1395.8,-337.09 1385.8,-333.6 1385.81,-340.6"/>
</g>
<!-- x10 -->
<g id="node29" class="node">
<title>x10</title>
<path fill="none" stroke="black" d="M1409.32,-256.84C1409.32,-256.84 1447.82,-256.84 1447.82,-256.84 1453.82,-256.84 1459.82,-262.84 1459.82,-268.84 1459.82,-268.84 1459.82,-293.84 1459.82,-293.84 1459.82,-299.84 1453.82,-305.84 1447.82,-305.84 1447.82,-305.84 1409.32,-305.84 1409.32,-305.84 1403.32,-305.84 1397.32,-299.84 1397.32,-293.84 1397.32,-293.84 1397.32,-268.84 1397.32,-268.84 1397.32,-262.84 1403.32,-256.84 1409.32,-256.84"/>
<text text-anchor="middle" x="1428.57" y="-288.54" font-family="Times,serif" font-size="14.00">3:1 &#45; 3:1</text>
<polyline fill="none" stroke="black" points="1397.32,-281.34 1459.82,-281.34"/>
<text text-anchor="middle" x="1428.57" y="-264.04" font-family="Times,serif" font-size="14.00">0:0 &#45; 0:0</text>
</g>
<!-- n13&#45;&gt;x10 -->
<g id="edge32" class="edge">
<title>n13:e&#45;&gt;x10:w</title>
<path fill="none" stroke="black" d="M969.32,-422.34C1005.09,-422.34 976.96,-372.15 1005.32,-350.34 1143.31,-244.18 1216.22,-267.98 1385.99,-269.05"/>
<polygon fill="black" stroke="black" points="1385.79,-272.55 1395.8,-269.08 1385.82,-265.55 1385.79,-272.55"/>
</g>
<!-- x16 -->
<g id="node38" class="node">
<title>x16</title>
<path fill="none" stroke="black" d="M1409.32,-188.84C1409.32,-188.84 1447.82,-188.84 1447.82,-188.84 1453.82,-188.84 1459.82,-194.84 1459.82,-200.84 1459.82,-200.84 1459.82,-225.84 1459.82,-225.84 1459.82,-231.84 1453.82,-237.84 1447.82,-237.84 1447.82,-237.84 1409.32,-237.84 1409.32,-237.84 1403.32,-237.84 1397.32,-231.84 1397.32,-225.84 1397.32,-225.84 1397.32,-200.84 1397.32,-200.84 1397.32,-194.84 1403.32,-188.84 1409.32,-188.84"/>
<text text-anchor="middle" x="1428.57" y="-220.54" font-family="Times,serif" font-size="14.00">3:1 &#45; 3:1</text>
<polyline fill="none" stroke="black" points="1397.32,-213.34 1459.82,-213.34"/>
<text text-anchor="middle" x="1428.57" y="-196.04" font-family="Times,serif" font-size="14.00">0:0 &#45; 0:0</text>
</g>
<!-- n13&#45;&gt;x16 -->
<g id="edge33" class="edge">
<title>n13:e&#45;&gt;x16:w</title>
<path fill="none" stroke="black" d="M969.32,-422.34C1025,-422.34 966.31,-342.08 1005.32,-302.34 1050.47,-256.34 1225.75,-203.62 1385.82,-201.18"/>
<polygon fill="black" stroke="black" points="1385.83,-204.68 1395.8,-201.1 1385.78,-197.68 1385.83,-204.68"/>
</g>
<!-- x20 -->
<g id="node44" class="node">
<title>x20</title>
<path fill="none" stroke="black" d="M1017.32,-511.59C1017.32,-511.59 1060.32,-511.59 1060.32,-511.59 1066.32,-511.59 1072.32,-517.59 1072.32,-523.59 1072.32,-523.59 1072.32,-573.09 1072.32,-573.09 1072.32,-579.09 1066.32,-585.09 1060.32,-585.09 1060.32,-585.09 1017.32,-585.09 1017.32,-585.09 1011.32,-585.09 1005.32,-579.09 1005.32,-573.09 1005.32,-573.09 1005.32,-523.59 1005.32,-523.59 1005.32,-517.59 1011.32,-511.59 1017.32,-511.59"/>
<text text-anchor="middle" x="1038.82" y="-567.79" font-family="Times,serif" font-size="14.00">0 &#45;&gt; 22:2</text>
<polyline fill="none" stroke="black" points="1005.32,-560.59 1072.32,-560.59"/>
<text text-anchor="middle" x="1038.82" y="-543.29" font-family="Times,serif" font-size="14.00">4:4 &#45; 1:1</text>
<polyline fill="none" stroke="black" points="1005.32,-536.09 1072.32,-536.09"/>
<text text-anchor="middle" x="1038.82" y="-518.79" font-family="Times,serif" font-size="14.00">0:0 &#45; 0:0</text>
</g>
<!-- n13&#45;&gt;x20 -->
<g id="edge34" class="edge">
<title>n13:e&#45;&gt;x20:w</title>
<path fill="none" stroke="black" d="M969.32,-422.34C1012.51,-422.34 968.09,-504.98 994.17,-521.12"/>
<polygon fill="black" stroke="black" points="993.3,-524.51 1003.85,-523.48 994.96,-517.71 993.3,-524.51"/>
</g>
<!-- n14 -->
<g id="node5" class="node">
<title>n14</title>
<polygon fill="none" stroke="black" points="410.32,-871.34 355.07,-853.34 410.32,-835.34 465.57,-853.34 410.32,-871.34"/>
<text text-anchor="middle" x="410.32" y="-848.29" font-family="Times,serif" font-size="14.00">temp_1</text>
</g>
<!-- x1 -->
<g id="node12" class="node">
<title>x1</title>
<path fill="none" stroke="black" d="M529.19,-828.84C529.19,-828.84 567.69,-828.84 567.69,-828.84 573.69,-828.84 579.69,-834.84 579.69,-840.84 579.69,-840.84 579.69,-865.84 579.69,-865.84 579.69,-871.84 573.69,-877.84 567.69,-877.84 567.69,-877.84 529.19,-877.84 529.19,-877.84 523.19,-877.84 517.19,-871.84 517.19,-865.84 517.19,-865.84 517.19,-840.84 517.19,-840.84 517.19,-834.84 523.19,-828.84 529.19,-828.84"/>
<text text-anchor="middle" x="548.44" y="-860.54" font-family="Times,serif" font-size="14.00">0:0 &#45; 3:3</text>
<polyline fill="none" stroke="black" points="517.19,-853.34 579.69,-853.34"/>
<text text-anchor="middle" x="548.44" y="-836.04" font-family="Times,serif" font-size="14.00">3:1 &#45; 2:0</text>
</g>
<!-- n14&#45;&gt;x1 -->
<g id="edge42" class="edge">
<title>n14:e&#45;&gt;x1:w</title>
<path fill="none" stroke="black" stroke-width="3" d="M465.57,-853.34C484.38,-853.34 490.76,-845.25 504.91,-842.22"/>
<polygon fill="black" stroke="black" stroke-width="3" points="502.07,-846.02 511.67,-841.54 501.37,-839.06 502.07,-846.02"/>
</g>
<!-- n14&#45;&gt;x1 -->
<g id="edge43" class="edge">
<title>n14:e&#45;&gt;x1:w</title>
<path fill="none" stroke="black" d="M465.57,-853.34C484.38,-853.34 490.76,-861.43 504.91,-864.46"/>
<polygon fill="black" stroke="black" points="504.39,-867.92 514.69,-865.44 505.08,-860.96 504.39,-867.92"/>
</g>
<!-- x11 -->
<g id="node31" class="node">
<title>x11</title>
<path fill="none" stroke="black" d="M1127.07,-968.34C1127.07,-968.34 1165.57,-968.34 1165.57,-968.34 1171.57,-968.34 1177.57,-974.34 1177.57,-980.34 1177.57,-980.34 1177.57,-992.34 1177.57,-992.34 1177.57,-998.34 1171.57,-1004.34 1165.57,-1004.34 1165.57,-1004.34 1127.07,-1004.34 1127.07,-1004.34 1121.07,-1004.34 1115.07,-998.34 1115.07,-992.34 1115.07,-992.34 1115.07,-980.34 1115.07,-980.34 1115.07,-974.34 1121.07,-968.34 1127.07,-968.34"/>
<text text-anchor="middle" x="1146.32" y="-981.54" font-family="Times,serif" font-size="14.00">3:3 &#45; 0:0</text>
</g>
<!-- n14&#45;&gt;x11 -->
<g id="edge41" class="edge">
<title>n14:e&#45;&gt;x11:w</title>
<path fill="none" stroke="black" d="M465.57,-853.34C487.57,-853.34 483.71,-874.47 501.57,-887.34 573.27,-939.02 588.43,-981.34 676.82,-981.34 676.82,-981.34 676.82,-981.34 915.07,-981.34 999.74,-981.34 1023.57,-986.15 1103.02,-986.56"/>
<polygon fill="black" stroke="black" points="1102.55,-990.06 1112.55,-986.58 1102.56,-983.06 1102.55,-990.06"/>
</g>
<!-- n15 -->
<g id="node6" class="node">
<title>n15</title>
<polygon fill="none" stroke="black" points="914.07,-810.34 858.82,-792.34 914.07,-774.34 969.32,-792.34 914.07,-810.34"/>
<text text-anchor="middle" x="914.07" y="-787.29" font-family="Times,serif" font-size="14.00">temp_2</text>
</g>
<!-- n15&#45;&gt;x3 -->
<g id="edge49" class="edge">
<title>n15:e&#45;&gt;x3:w</title>
<path fill="none" stroke="black" d="M969.32,-792.34C988.8,-792.34 986.73,-811.52 1005.32,-817.34 1033.73,-826.24 1042.6,-819.28 1072.32,-817.34 1201.59,-808.88 1255.59,-854.2 1361.32,-779.34 1386.36,-761.61 1368.44,-721.24 1386.31,-710.82"/>
<polygon fill="black" stroke="black" points="1386.86,-714.29 1395.84,-708.67 1385.32,-707.46 1386.86,-714.29"/>
</g>
<!-- n15&#45;&gt;x4 -->
<g id="edge50" class="edge">
<title>n15:e&#45;&gt;x4:w</title>
<path fill="none" stroke="black" d="M969.32,-792.34C992.21,-792.34 1345.28,-681.67 1361.32,-665.34 1396.72,-629.28 1351.08,-559.57 1385.93,-548.37"/>
<polygon fill="black" stroke="black" points="1386.37,-551.84 1395.82,-547.04 1385.44,-544.91 1386.37,-551.84"/>
</g>
<!-- n15&#45;&gt;x5 -->
<g id="edge51" class="edge">
<title>n15:e&#45;&gt;x5:w</title>
<path fill="none" stroke="black" d="M969.32,-792.34C990.73,-792.34 988.24,-773.25 1005.32,-760.34 1155.03,-647.2 1238.41,-675.13 1361.32,-533.34 1383.75,-507.46 1364.4,-465.32 1386.25,-455.79"/>
<polygon fill="black" stroke="black" points="1386.59,-459.29 1395.83,-454.1 1385.37,-452.39 1386.59,-459.29"/>
</g>
<!-- n15&#45;&gt;x7 -->
<g id="edge52" class="edge">
<title>n15:e&#45;&gt;x7:w</title>
<path fill="none" stroke="black" d="M969.32,-792.34C1065.13,-792.34 1314.94,-778.87 1361.32,-741.34 1395.04,-714.05 1357.9,-652.86 1386.26,-641.63"/>
<polygon fill="black" stroke="black" points="1386.51,-645.13 1395.82,-640.08 1385.39,-638.22 1386.51,-645.13"/>
</g>
<!-- c28 -->
<g id="node24" class="node">
<title>c28</title>
<polygon fill="none" stroke="black" points="1220.32,-869.84 1220.32,-910.84 1361.32,-910.84 1361.32,-869.84 1220.32,-869.84"/>
<text text-anchor="middle" x="1233.19" y="-885.54" font-family="Times,serif" font-size="14.00">A</text>
<polyline fill="none" stroke="black" points="1246.07,-869.84 1246.07,-910.84"/>
<text text-anchor="middle" x="1290.82" y="-893.54" font-family="Times,serif" font-size="14.00">$10</text>
<text text-anchor="middle" x="1290.82" y="-877.04" font-family="Times,serif" font-size="14.00">$reduce_bool</text>
<polyline fill="none" stroke="black" points="1335.57,-869.84 1335.57,-910.84"/>
<text text-anchor="middle" x="1348.44" y="-885.54" font-family="Times,serif" font-size="14.00">Y</text>
</g>
<!-- n15&#45;&gt;c28 -->
<g id="edge47" class="edge">
<title>n15:e&#45;&gt;c28:w</title>
<path fill="none" stroke="black" stroke-width="3" d="M969.32,-792.34C1001.57,-792.34 978.83,-836.94 1005.32,-855.34 1081.66,-908.37 1120.33,-892.07 1208.96,-890.68"/>
<polygon fill="black" stroke="black" stroke-width="3" points="1205.81,-894.2 1215.78,-890.62 1205.75,-887.2 1205.81,-894.2"/>
</g>
<!-- n15&#45;&gt;x20 -->
<g id="edge48" class="edge">
<title>n15:e&#45;&gt;x20:w</title>
<path fill="none" stroke="black" d="M969.32,-792.34C1019.85,-792.34 961.23,-584.97 994.7,-552.57"/>
<polygon fill="black" stroke="black" points="995.92,-555.86 1003.91,-548.9 993.33,-549.35 995.92,-555.86"/>
</g>
<!-- n16 -->
<g id="node7" class="node">
<title>n16</title>
<polygon fill="none" stroke="black" points="2302.86,-607.34 2247.61,-589.34 2302.86,-571.34 2358.12,-589.34 2302.86,-607.34"/>
<text text-anchor="middle" x="2302.86" y="-584.29" font-family="Times,serif" font-size="14.00">temp_3</text>
</g>
<!-- c24 -->
<g id="node16" class="node">
<title>c24</title>
<polygon fill="none" stroke="black" points="2403.62,-602.84 2403.62,-643.84 2495.12,-643.84 2495.12,-602.84 2403.62,-602.84"/>
<text text-anchor="middle" x="2416.49" y="-618.54" font-family="Times,serif" font-size="14.00">A</text>
<polyline fill="none" stroke="black" points="2429.37,-602.84 2429.37,-643.84"/>
<text text-anchor="middle" x="2449.37" y="-626.54" font-family="Times,serif" font-size="14.00">$39</text>
<text text-anchor="middle" x="2449.37" y="-610.04" font-family="Times,serif" font-size="14.00">$not</text>
<polyline fill="none" stroke="black" points="2469.37,-602.84 2469.37,-643.84"/>
<text text-anchor="middle" x="2482.24" y="-618.54" font-family="Times,serif" font-size="14.00">Y</text>
</g>
<!-- n16&#45;&gt;c24 -->
<g id="edge54" class="edge">
<title>n16:e&#45;&gt;c24:w</title>
<path fill="none" stroke="black" stroke-width="3" d="M2358.12,-589.34C2378.59,-589.34 2378.62,-612.39 2391.75,-620.67"/>
<polygon fill="black" stroke="black" stroke-width="3" points="2387.67,-623.19 2398.23,-622.41 2389.48,-616.43 2387.67,-623.19"/>
</g>
<!-- n17 -->
<g id="node8" class="node">
<title>n17</title>
<polygon fill="none" stroke="black" points="2449.37,-724.34 2394.12,-706.34 2449.37,-688.34 2504.62,-706.34 2449.37,-724.34"/>
<text text-anchor="middle" x="2449.37" y="-701.29" font-family="Times,serif" font-size="14.00">temp_4</text>
</g>
<!-- x13 -->
<g id="node34" class="node">
<title>x13</title>
<path fill="none" stroke="black" d="M2552.62,-688.34C2552.62,-688.34 2591.12,-688.34 2591.12,-688.34 2597.12,-688.34 2603.12,-694.34 2603.12,-700.34 2603.12,-700.34 2603.12,-712.34 2603.12,-712.34 2603.12,-718.34 2597.12,-724.34 2591.12,-724.34 2591.12,-724.34 2552.62,-724.34 2552.62,-724.34 2546.62,-724.34 2540.62,-718.34 2540.62,-712.34 2540.62,-712.34 2540.62,-700.34 2540.62,-700.34 2540.62,-694.34 2546.62,-688.34 2552.62,-688.34"/>
<text text-anchor="middle" x="2571.87" y="-701.54" font-family="Times,serif" font-size="14.00">9:0 &#45; 9:0</text>
</g>
<!-- n17&#45;&gt;x13 -->
<g id="edge56" class="edge">
<title>n17:e&#45;&gt;x13:w</title>
<path fill="none" stroke="black" stroke-width="3" d="M2504.62,-706.34C2515.99,-706.34 2521.3,-706.46 2529.17,-706.54"/>
<polygon fill="black" stroke="black" stroke-width="3" points="2526.06,-710.02 2536.08,-706.57 2526.09,-703.02 2526.06,-710.02"/>
</g>
<!-- x19 -->
<g id="node43" class="node">
<title>x19</title>
<path fill="none" stroke="black" d="M2662.99,-575.34C2662.99,-575.34 2708.24,-575.34 2708.24,-575.34 2714.24,-575.34 2720.24,-581.34 2720.24,-587.34 2720.24,-587.34 2720.24,-599.34 2720.24,-599.34 2720.24,-605.34 2714.24,-611.34 2708.24,-611.34 2708.24,-611.34 2662.99,-611.34 2662.99,-611.34 2656.99,-611.34 2650.99,-605.34 2650.99,-599.34 2650.99,-599.34 2650.99,-587.34 2650.99,-587.34 2650.99,-581.34 2656.99,-575.34 2662.99,-575.34"/>
<text text-anchor="middle" x="2685.62" y="-588.54" font-family="Times,serif" font-size="14.00">14:5 &#45; 9:0</text>
</g>
<!-- n17&#45;&gt;x19 -->
<g id="edge57" class="edge">
<title>n17:e&#45;&gt;x19:w</title>
<path fill="none" stroke="black" stroke-width="3" d="M2504.62,-706.34C2550.18,-706.34 2505.24,-639.06 2540.62,-610.34 2575.74,-581.82 2597.18,-591.6 2638.68,-593.34"/>
<polygon fill="black" stroke="black" stroke-width="3" points="2635.38,-596.77 2645.45,-593.49 2635.53,-589.78 2635.38,-596.77"/>
</g>
<!-- c21&#45;&gt;c29 -->
<g id="edge22" class="edge">
<title>c21:e&#45;&gt;c29:w</title>
<path fill="none" stroke="black" stroke-width="3" d="M595.32,-113.59C606.69,-113.59 612,-113.59 619.87,-113.59"/>
<polygon fill="black" stroke="black" stroke-width="3" points="616.78,-117.09 626.78,-113.59 616.78,-110.09 616.78,-117.09"/>
</g>
<!-- c22 -->
<g id="node10" class="node">
<title>c22</title>
<polygon fill="none" stroke="black" points="631.69,-840.84 631.69,-889.84 723.94,-889.84 723.94,-840.84 631.69,-840.84"/>
<text text-anchor="middle" x="644.57" y="-872.54" font-family="Times,serif" font-size="14.00">A</text>
<polyline fill="none" stroke="black" points="631.69,-865.34 657.44,-865.34"/>
<text text-anchor="middle" x="644.57" y="-848.04" font-family="Times,serif" font-size="14.00">B</text>
<polyline fill="none" stroke="black" points="657.44,-840.84 657.44,-889.84"/>
<text text-anchor="middle" x="677.82" y="-868.54" font-family="Times,serif" font-size="14.00">$32</text>
<text text-anchor="middle" x="677.82" y="-852.04" font-family="Times,serif" font-size="14.00">$xor</text>
<polyline fill="none" stroke="black" points="698.19,-840.84 698.19,-889.84"/>
<text text-anchor="middle" x="711.07" y="-860.54" font-family="Times,serif" font-size="14.00">Y</text>
</g>
<!-- x2 -->
<g id="node13" class="node">
<title>x2</title>
<path fill="none" stroke="black" d="M772.32,-779.84C772.32,-779.84 810.82,-779.84 810.82,-779.84 816.82,-779.84 822.82,-785.84 822.82,-791.84 822.82,-791.84 822.82,-816.84 822.82,-816.84 822.82,-822.84 816.82,-828.84 810.82,-828.84 810.82,-828.84 772.32,-828.84 772.32,-828.84 766.32,-828.84 760.32,-822.84 760.32,-816.84 760.32,-816.84 760.32,-791.84 760.32,-791.84 760.32,-785.84 766.32,-779.84 772.32,-779.84"/>
<text text-anchor="middle" x="791.57" y="-811.54" font-family="Times,serif" font-size="14.00">3:3 &#45; 0:0</text>
<polyline fill="none" stroke="black" points="760.32,-804.34 822.82,-804.34"/>
<text text-anchor="middle" x="791.57" y="-787.04" font-family="Times,serif" font-size="14.00">2:0 &#45; 3:1</text>
</g>
<!-- c22&#45;&gt;x2 -->
<g id="edge3" class="edge">
<title>c22:e&#45;&gt;x2:w</title>
<path fill="none" stroke="black" stroke-width="3" d="M735.99,-860.78C745.7,-849.39 738.95,-820.83 748.52,-809.29"/>
<polygon fill="none" stroke="black" stroke-width="3" points="737.91,-859.99 733.89,-865.97 726.82,-864.56 730.84,-858.58 737.91,-859.99"/>
<polygon fill="none" stroke="black" stroke-width="3" points="746.76,-810.03 750.74,-804.02 757.82,-805.39 753.84,-811.4 746.76,-810.03"/>
</g>
<!-- x0&#45;&gt;c22 -->
<g id="edge1" class="edge">
<title>x0:e&#45;&gt;c22:w</title>
<path fill="none" stroke="black" stroke-width="3" d="M1468.1,-799.13C1461.29,-828.25 1388.09,-907.15 1361.32,-920.34 1275.66,-962.53 1242.8,-939.34 1147.32,-939.34 913.07,-939.34 913.07,-939.34 913.07,-939.34 790.22,-939.34 721.63,-981.38 639,-887.43"/>
<polygon fill="none" stroke="black" stroke-width="3" points="1469.04,-800.53 1462.37,-797.79 1462.33,-790.58 1469,-793.32 1469.04,-800.53"/>
<polygon fill="none" stroke="black" stroke-width="3" points="640.17,-888.83 633.25,-886.82 632.44,-879.66 639.36,-881.66 640.17,-888.83"/>
</g>
<!-- x1&#45;&gt;c22 -->
<g id="edge2" class="edge">
<title>x1:e&#45;&gt;c22:w</title>
<path fill="none" stroke="black" stroke-width="3" d="M593.39,-853.31C602.68,-853.26 609.05,-853.17 618.27,-853.12"/>
<polygon fill="none" stroke="black" stroke-width="3" points="595.4,-853.3 589.41,-857.32 583.4,-853.33 589.39,-849.32 595.4,-853.3"/>
<polygon fill="none" stroke="black" stroke-width="3" points="616.61,-853.13 622.6,-849.11 628.61,-853.1 622.62,-857.11 616.61,-853.13"/>
</g>
<!-- x2&#45;&gt;n15 -->
<g id="edge44" class="edge">
<title>x2:e&#45;&gt;n15:w</title>
<path fill="none" stroke="black" stroke-width="3" d="M822.82,-792.09C834.19,-792.09 839.5,-792.21 847.37,-792.29"/>
<polygon fill="black" stroke="black" stroke-width="3" points="844.26,-795.77 854.28,-792.32 844.29,-788.77 844.26,-795.77"/>
</g>
<!-- x2&#45;&gt;n15 -->
<g id="edge45" class="edge">
<title>x2:e&#45;&gt;n15:w</title>
<path fill="none" stroke="black" d="M822.82,-816.59C837.44,-816.59 839.49,-802.66 848.03,-795.92"/>
<polygon fill="black" stroke="black" points="848.99,-799.29 857.38,-792.81 846.79,-792.64 848.99,-799.29"/>
</g>
<!-- c23 -->
<g id="node14" class="node">
<title>c23</title>
<polygon fill="none" stroke="black" points="1568.47,-687.84 1568.47,-728.84 1659.97,-728.84 1659.97,-687.84 1568.47,-687.84"/>
<text text-anchor="middle" x="1581.34" y="-703.54" font-family="Times,serif" font-size="14.00">A</text>
<polyline fill="none" stroke="black" points="1594.22,-687.84 1594.22,-728.84"/>
<text text-anchor="middle" x="1614.22" y="-711.54" font-family="Times,serif" font-size="14.00">$35</text>
<text text-anchor="middle" x="1614.22" y="-695.04" font-family="Times,serif" font-size="14.00">$not</text>
<polyline fill="none" stroke="black" points="1634.22,-687.84 1634.22,-728.84"/>
<text text-anchor="middle" x="1647.09" y="-703.54" font-family="Times,serif" font-size="14.00">Y</text>
</g>
<!-- n2 -->
<g id="node48" class="node">
<title>n2</title>
<ellipse fill="black" stroke="black" cx="1806.61" cy="-708.34" rx="1.8" ry="1.8"/>
</g>
<!-- c23&#45;&gt;n2 -->
<g id="edge58" class="edge">
<title>c23:e&#45;&gt;n2:w</title>
<path fill="none" stroke="black" stroke-width="3" d="M1660.97,-708.59C1720.29,-708.59 1737.9,-708.37 1792.01,-708.34"/>
<polygon fill="black" stroke="black" stroke-width="3" points="1788.8,-711.84 1798.8,-708.34 1788.79,-704.84 1788.8,-711.84"/>
</g>
<!-- x3&#45;&gt;c23 -->
<g id="edge4" class="edge">
<title>x3:e&#45;&gt;c23:w</title>
<path fill="none" stroke="black" stroke-width="3" d="M1472.39,-708.34C1506.23,-708.38 1520.91,-708.55 1554.67,-708.58"/>
<polygon fill="none" stroke="black" stroke-width="3" points="1474.52,-708.35 1468.52,-712.34 1462.52,-708.34 1468.52,-704.34 1474.52,-708.35"/>
<polygon fill="none" stroke="black" stroke-width="3" points="1552.76,-708.58 1558.76,-704.58 1564.76,-708.59 1558.76,-712.58 1552.76,-708.58"/>
</g>
<!-- x14 -->
<g id="node35" class="node">
<title>x14</title>
<path fill="none" stroke="black" d="M2552.62,-619.84C2552.62,-619.84 2591.12,-619.84 2591.12,-619.84 2597.12,-619.84 2603.12,-625.84 2603.12,-631.84 2603.12,-631.84 2603.12,-656.84 2603.12,-656.84 2603.12,-662.84 2597.12,-668.84 2591.12,-668.84 2591.12,-668.84 2552.62,-668.84 2552.62,-668.84 2546.62,-668.84 2540.62,-662.84 2540.62,-656.84 2540.62,-656.84 2540.62,-631.84 2540.62,-631.84 2540.62,-625.84 2546.62,-619.84 2552.62,-619.84"/>
<text text-anchor="middle" x="2571.87" y="-651.54" font-family="Times,serif" font-size="14.00">1 &#45;&gt; 9:5</text>
<polyline fill="none" stroke="black" points="2540.62,-644.34 2603.12,-644.34"/>
<text text-anchor="middle" x="2571.87" y="-627.04" font-family="Times,serif" font-size="14.00">4:0 &#45; 4:0</text>
</g>
<!-- c24&#45;&gt;x14 -->
<g id="edge61" class="edge">
<title>c24:e&#45;&gt;x14:w</title>
<path fill="none" stroke="black" stroke-width="3" d="M2496.12,-623.59C2511.85,-623.59 2517.87,-628.78 2529.35,-631.05"/>
<polygon fill="black" stroke="black" stroke-width="3" points="2525.82,-634.23 2536.1,-631.67 2526.46,-627.26 2525.82,-634.23"/>
</g>
<!-- c25&#45;&gt;c21 -->
<g id="edge77" class="edge">
<title>c25:e&#45;&gt;c21:w</title>
<path fill="none" stroke="black" stroke-width="3" d="M457.07,-92.59C472.8,-92.59 478.82,-97.78 490.3,-100.05"/>
<polygon fill="black" stroke="black" stroke-width="3" points="486.77,-103.23 497.05,-100.67 487.41,-96.26 486.77,-103.23"/>
</g>
<!-- c26 -->
<g id="node18" class="node">
<title>c26</title>
<polygon fill="none" stroke="black" points="1571.47,-450.84 1571.47,-499.84 1656.97,-499.84 1656.97,-450.84 1571.47,-450.84"/>
<text text-anchor="middle" x="1584.34" y="-482.54" font-family="Times,serif" font-size="14.00">A</text>
<polyline fill="none" stroke="black" points="1571.47,-475.34 1597.22,-475.34"/>
<text text-anchor="middle" x="1584.34" y="-458.04" font-family="Times,serif" font-size="14.00">B</text>
<polyline fill="none" stroke="black" points="1597.22,-450.84 1597.22,-499.84"/>
<text text-anchor="middle" x="1614.22" y="-478.54" font-family="Times,serif" font-size="14.00">$9</text>
<text text-anchor="middle" x="1614.22" y="-462.04" font-family="Times,serif" font-size="14.00">$or</text>
<polyline fill="none" stroke="black" points="1631.22,-450.84 1631.22,-499.84"/>
<text text-anchor="middle" x="1644.09" y="-470.54" font-family="Times,serif" font-size="14.00">Y</text>
</g>
<!-- x6 -->
<g id="node21" class="node">
<title>x6</title>
<path fill="none" stroke="black" d="M1787.36,-457.34C1787.36,-457.34 1825.86,-457.34 1825.86,-457.34 1831.86,-457.34 1837.86,-463.34 1837.86,-469.34 1837.86,-469.34 1837.86,-481.34 1837.86,-481.34 1837.86,-487.34 1831.86,-493.34 1825.86,-493.34 1825.86,-493.34 1787.36,-493.34 1787.36,-493.34 1781.36,-493.34 1775.36,-487.34 1775.36,-481.34 1775.36,-481.34 1775.36,-469.34 1775.36,-469.34 1775.36,-463.34 1781.36,-457.34 1787.36,-457.34"/>
<text text-anchor="middle" x="1806.61" y="-470.54" font-family="Times,serif" font-size="14.00">4:0 &#45; 4:0</text>
</g>
<!-- c26&#45;&gt;x6 -->
<g id="edge7" class="edge">
<title>c26:e&#45;&gt;x6:w</title>
<path fill="none" stroke="black" stroke-width="3" d="M1670.76,-475.58C1708.22,-475.55 1724.01,-475.38 1761.41,-475.34"/>
<polygon fill="none" stroke="black" stroke-width="3" points="1672.67,-475.58 1666.67,-479.58 1660.67,-475.59 1666.67,-471.58 1672.67,-475.58"/>
<polygon fill="none" stroke="black" stroke-width="3" points="1759.66,-475.34 1765.66,-471.34 1771.66,-475.34 1765.66,-479.34 1759.66,-475.34"/>
</g>
<!-- x4&#45;&gt;c26 -->
<g id="edge5" class="edge">
<title>x4:e&#45;&gt;c26:w</title>
<path fill="none" stroke="black" stroke-width="3" d="M1472.71,-521.55C1509.13,-516.88 1521.22,-492.99 1557.7,-488.36"/>
<polygon fill="none" stroke="black" stroke-width="3" points="1474.49,-521.44 1468.75,-525.8 1462.52,-522.17 1468.26,-517.81 1474.49,-521.44"/>
<polygon fill="none" stroke="black" stroke-width="3" points="1555.79,-488.48 1561.54,-484.12 1567.77,-487.75 1562.02,-492.11 1555.79,-488.48"/>
</g>
<!-- x5&#45;&gt;c26 -->
<g id="edge6" class="edge">
<title>x5:e&#45;&gt;c26:w</title>
<path fill="none" stroke="black" stroke-width="3" d="M1472.68,-430.11C1509.05,-434.64 1521.3,-457.85 1557.73,-462.34"/>
<polygon fill="none" stroke="black" stroke-width="3" points="1474.5,-430.22 1468.27,-433.85 1462.52,-429.5 1468.75,-425.86 1474.5,-430.22"/>
<polygon fill="none" stroke="black" stroke-width="3" points="1555.79,-462.22 1562.01,-458.58 1567.77,-462.93 1561.54,-466.57 1555.79,-462.22"/>
</g>
<!-- n6 -->
<g id="node50" class="node">
<title>n6</title>
<ellipse fill="black" stroke="black" cx="1914.11" cy="-475.34" rx="1.8" ry="1.8"/>
</g>
<!-- x6&#45;&gt;n6 -->
<g id="edge75" class="edge">
<title>x6:e&#45;&gt;n6:w</title>
<path fill="none" stroke="black" stroke-width="3" d="M1838.86,-475.59C1866.73,-475.59 1876.39,-475.4 1899.56,-475.35"/>
<polygon fill="black" stroke="black" stroke-width="3" points="1896.3,-478.85 1906.3,-475.34 1896.29,-471.85 1896.3,-478.85"/>
</g>
<!-- c27 -->
<g id="node22" class="node">
<title>c27</title>
<polygon fill="none" stroke="black" points="1543.72,-778.84 1543.72,-819.84 1684.72,-819.84 1684.72,-778.84 1543.72,-778.84"/>
<text text-anchor="middle" x="1556.59" y="-794.54" font-family="Times,serif" font-size="14.00">A</text>
<polyline fill="none" stroke="black" points="1569.47,-778.84 1569.47,-819.84"/>
<text text-anchor="middle" x="1614.22" y="-802.54" font-family="Times,serif" font-size="14.00">$5</text>
<text text-anchor="middle" x="1614.22" y="-786.04" font-family="Times,serif" font-size="14.00">$reduce_bool</text>
<polyline fill="none" stroke="black" points="1658.97,-778.84 1658.97,-819.84"/>
<text text-anchor="middle" x="1671.84" y="-794.54" font-family="Times,serif" font-size="14.00">Y</text>
</g>
<!-- c27&#45;&gt;c34 -->
<g id="edge78" class="edge">
<title>c27:e&#45;&gt;c34:w</title>
<path fill="none" stroke="black" d="M1685.72,-799.59C1694.95,-799.59 1691.37,-813.94 1684.72,-820.34 1666.7,-837.66 1484.81,-822.23 1459.82,-822.34 1432.04,-822.46 1424.96,-825.04 1397.32,-822.34 1179.9,-801.13 1133.52,-727.34 915.07,-727.34 547.44,-727.34 547.44,-727.34 547.44,-727.34 385.52,-727.34 461.23,-515.88 314.65,-447.09 274.81,-428.39 247.95,-417.22 215.65,-447.09 215.12,-447.57 214.63,-448.13 214.17,-448.74"/>
<polygon fill="black" stroke="black" points="210.66,-448.49 214.58,-458.33 217.65,-448.19 210.66,-448.49"/>
</g>
<!-- x7&#45;&gt;c27 -->
<g id="edge8" class="edge">
<title>x7:e&#45;&gt;c27:w</title>
<path fill="none" stroke="black" stroke-width="3" d="M1472.32,-616.88C1509.28,-627.59 1472.28,-691.9 1495.82,-738.34 1509.08,-764.5 1508.88,-790.73 1530.01,-797.76"/>
<polygon fill="none" stroke="black" stroke-width="3" points="1474.41,-617.14 1467.97,-620.37 1462.5,-615.67 1468.95,-612.43 1474.41,-617.14"/>
<polygon fill="none" stroke="black" stroke-width="3" points="1528.16,-797.49 1534.67,-794.39 1540.04,-799.2 1533.53,-802.31 1528.16,-797.49"/>
</g>
<!-- c28&#45;&gt;c35 -->
<g id="edge79" class="edge">
<title>c28:e&#45;&gt;c35:w</title>
<path fill="none" stroke="black" d="M1361.32,-890.59C1427.91,-890.59 1903.76,-816.45 1947.61,-766.34 2017.2,-686.82 1913.09,-610.02 1983.61,-531.34 2020.59,-490.08 2049.23,-495.79 2101.17,-496.73"/>
<polygon fill="black" stroke="black" points="2101.07,-500.23 2111.1,-496.82 2101.13,-493.23 2101.07,-500.23"/>
</g>
<!-- x8 -->
<g id="node26" class="node">
<title>x8</title>
<path fill="none" stroke="black" d="M772.32,-427.59C772.32,-427.59 810.82,-427.59 810.82,-427.59 816.82,-427.59 822.82,-433.59 822.82,-439.59 822.82,-439.59 822.82,-489.09 822.82,-489.09 822.82,-495.09 816.82,-501.09 810.82,-501.09 810.82,-501.09 772.32,-501.09 772.32,-501.09 766.32,-501.09 760.32,-495.09 760.32,-489.09 760.32,-489.09 760.32,-439.59 760.32,-439.59 760.32,-433.59 766.32,-427.59 772.32,-427.59"/>
<text text-anchor="middle" x="791.57" y="-483.79" font-family="Times,serif" font-size="14.00">4:4 &#45; 4:4</text>
<polyline fill="none" stroke="black" points="760.32,-476.59 822.82,-476.59"/>
<text text-anchor="middle" x="791.57" y="-459.29" font-family="Times,serif" font-size="14.00">3:1 &#45; 3:1</text>
<polyline fill="none" stroke="black" points="760.32,-452.09 822.82,-452.09"/>
<text text-anchor="middle" x="791.57" y="-434.79" font-family="Times,serif" font-size="14.00">0:0 &#45; 0:0</text>
</g>
<!-- c29&#45;&gt;x8 -->
<g id="edge9" class="edge">
<title>c29:e&#45;&gt;x8:w</title>
<path fill="none" stroke="black" stroke-width="3" d="M737.02,-102.44C866.47,-121.28 618.22,-444.55 747.55,-463.47"/>
<polygon fill="none" stroke="black" stroke-width="3" points="738.99,-102.58 732.73,-106.16 727.01,-101.77 733.27,-98.18 738.99,-102.58"/>
<polygon fill="none" stroke="black" stroke-width="3" points="745.65,-463.34 751.9,-459.76 757.62,-464.16 751.36,-467.74 745.65,-463.34"/>
</g>
<!-- x8&#45;&gt;n13 -->
<g id="edge30" class="edge">
<title>x8:e&#45;&gt;n13:w</title>
<path fill="none" stroke="black" d="M822.82,-439.84C836.02,-439.84 839.66,-430.2 847.93,-425.23"/>
<polygon fill="black" stroke="black" points="848.59,-428.67 857.35,-422.73 846.79,-421.91 848.59,-428.67"/>
</g>
<!-- x8&#45;&gt;n15 -->
<g id="edge46" class="edge">
<title>x8:e&#45;&gt;n15:w</title>
<path fill="none" stroke="black" d="M822.82,-488.84C886.49,-488.84 802.72,-755.59 847.97,-788.93"/>
<polygon fill="black" stroke="black" points="846.78,-792.23 857.37,-791.88 848.88,-785.55 846.78,-792.23"/>
</g>
<!-- n5 -->
<g id="node49" class="node">
<title>n5</title>
<ellipse fill="black" stroke="black" cx="1290.82" cy="-522.34" rx="1.8" ry="1.8"/>
</g>
<!-- x8&#45;&gt;n5 -->
<g id="edge65" class="edge">
<title>x8:e&#45;&gt;n5:w</title>
<path fill="none" stroke="black" stroke-width="3" d="M822.82,-464.34C984.37,-464.34 1024.53,-478.51 1184.32,-502.34 1226.56,-508.64 1238.78,-520.13 1276.25,-522.06"/>
<polygon fill="black" stroke="black" stroke-width="3" points="1272.92,-525.48 1283,-522.23 1273.09,-518.48 1272.92,-525.48"/>
</g>
<!-- c30 -->
<g id="node27" class="node">
<title>c30</title>
<polygon fill="none" stroke="black" points="1567.72,-290.84 1567.72,-339.84 1660.72,-339.84 1660.72,-290.84 1567.72,-290.84"/>
<text text-anchor="middle" x="1580.59" y="-322.54" font-family="Times,serif" font-size="14.00">A</text>
<polyline fill="none" stroke="black" points="1567.72,-315.34 1593.47,-315.34"/>
<text text-anchor="middle" x="1580.59" y="-298.04" font-family="Times,serif" font-size="14.00">B</text>
<polyline fill="none" stroke="black" points="1593.47,-290.84 1593.47,-339.84"/>
<text text-anchor="middle" x="1614.22" y="-318.54" font-family="Times,serif" font-size="14.00">$4</text>
<text text-anchor="middle" x="1614.22" y="-302.04" font-family="Times,serif" font-size="14.00">$sub</text>
<polyline fill="none" stroke="black" points="1634.97,-290.84 1634.97,-339.84"/>
<text text-anchor="middle" x="1647.84" y="-310.54" font-family="Times,serif" font-size="14.00">Y</text>
</g>
<!-- c30&#45;&gt;n10 -->
<g id="edge23" class="edge">
<title>c30:e&#45;&gt;n10:w</title>
<path fill="none" stroke="black" stroke-width="3" d="M1661.72,-315.59C1672.73,-315.59 1668.66,-332.71 1660.72,-340.34 1630.9,-368.97 1606.63,-354.26 1567.72,-340.34 1528.8,-326.41 1519.55,-315.19 1495.82,-281.34 1468.22,-241.97 1496.85,-209.99 1459.82,-179.34 1431.38,-155.8 659.08,19.85 355.07,-35.34 287.88,-47.53 255.32,-37.2 211.22,-89.34 157.14,-153.3 239.87,-221.06 175.22,-274.34 116.75,-322.53 59.77,-326.41 4.72,-274.34 2.72,-272.45 1.03,-269.73 0,-266.97"/>
<polygon fill="black" stroke="black" stroke-width="3" points="2.22,-271.22 2.22,-260.62 -4.38,-268.91 2.22,-271.22"/>
</g>
<!-- x9&#45;&gt;c30 -->
<g id="edge10" class="edge">
<title>x9:e&#45;&gt;c30:w</title>
<path fill="none" stroke="black" stroke-width="3" d="M1472.5,-348.8C1506.49,-345.8 1519.9,-331.2 1553.8,-328.15"/>
<polygon fill="none" stroke="black" stroke-width="3" points="1474.51,-348.72 1468.68,-352.97 1462.52,-349.22 1468.34,-344.97 1474.51,-348.72"/>
<polygon fill="none" stroke="black" stroke-width="3" points="1552.03,-328.22 1557.85,-323.97 1564.01,-327.71 1558.19,-331.96 1552.03,-328.22"/>
</g>
<!-- x10&#45;&gt;c30 -->
<g id="edge11" class="edge">
<title>x10:e&#45;&gt;c30:w</title>
<path fill="none" stroke="black" stroke-width="3" d="M1472.5,-281.88C1506.49,-284.87 1519.9,-299.48 1553.8,-302.53"/>
<polygon fill="none" stroke="black" stroke-width="3" points="1474.51,-281.96 1468.34,-285.7 1462.52,-281.45 1468.68,-277.71 1474.51,-281.96"/>
<polygon fill="none" stroke="black" stroke-width="3" points="1552.03,-302.45 1558.19,-298.72 1564.01,-302.97 1557.85,-306.71 1552.03,-302.45"/>
</g>
<!-- c31 -->
<g id="node30" class="node">
<title>c31</title>
<polygon fill="none" stroke="black" points="1983.61,-707.84 1983.61,-756.84 2076.61,-756.84 2076.61,-707.84 1983.61,-707.84"/>
<text text-anchor="middle" x="1996.49" y="-739.54" font-family="Times,serif" font-size="14.00">A</text>
<polyline fill="none" stroke="black" points="1983.61,-732.34 2009.36,-732.34"/>
<text text-anchor="middle" x="1996.49" y="-715.04" font-family="Times,serif" font-size="14.00">B</text>
<polyline fill="none" stroke="black" points="2009.36,-707.84 2009.36,-756.84"/>
<text text-anchor="middle" x="2030.11" y="-735.54" font-family="Times,serif" font-size="14.00">$14</text>
<text text-anchor="middle" x="2030.11" y="-719.04" font-family="Times,serif" font-size="14.00">$sub</text>
<polyline fill="none" stroke="black" points="2050.86,-707.84 2050.86,-756.84"/>
<text text-anchor="middle" x="2063.74" y="-727.54" font-family="Times,serif" font-size="14.00">Y</text>
</g>
<!-- c31&#45;&gt;n17 -->
<g id="edge55" class="edge">
<title>c31:e&#45;&gt;n17:w</title>
<path fill="none" stroke="black" stroke-width="3" d="M2076.61,-732.59C2214.34,-732.59 2250.57,-707.75 2382.74,-706.4"/>
<polygon fill="black" stroke="black" stroke-width="3" points="2379.59,-709.91 2389.57,-706.36 2379.56,-702.91 2379.59,-709.91"/>
</g>
<!-- x11&#45;&gt;c31 -->
<g id="edge12" class="edge">
<title>x11:e&#45;&gt;c31:w</title>
<path fill="none" stroke="black" d="M1191.47,-986.32C1291.6,-985.95 1321.31,-981.34 1427.57,-981.34 1427.57,-981.34 1427.57,-981.34 1807.61,-981.34 1906.18,-981.34 1892.34,-890.95 1947.61,-809.34 1963.05,-786.55 1954.83,-756.61 1970.95,-747.4"/>
<polygon fill="none" stroke="black" points="1191.47,-986.32 1185.48,-990.33 1179.47,-986.34 1185.46,-982.33 1191.47,-986.32"/>
<polygon fill="none" stroke="black" points="1971.02,-747.39 1976.01,-742.18 1982.73,-744.78 1977.75,-749.99 1971.02,-747.39"/>
</g>
<!-- x12 -->
<g id="node32" class="node">
<title>x12</title>
<path fill="none" stroke="black" d="M1892.61,-683.59C1892.61,-683.59 1935.61,-683.59 1935.61,-683.59 1941.61,-683.59 1947.61,-689.59 1947.61,-695.59 1947.61,-695.59 1947.61,-745.09 1947.61,-745.09 1947.61,-751.09 1941.61,-757.09 1935.61,-757.09 1935.61,-757.09 1892.61,-757.09 1892.61,-757.09 1886.61,-757.09 1880.61,-751.09 1880.61,-745.09 1880.61,-745.09 1880.61,-695.59 1880.61,-695.59 1880.61,-689.59 1886.61,-683.59 1892.61,-683.59"/>
<text text-anchor="middle" x="1914.11" y="-739.79" font-family="Times,serif" font-size="14.00">1 &#45;&gt; 14:5</text>
<polyline fill="none" stroke="black" points="1880.61,-732.59 1947.61,-732.59"/>
<text text-anchor="middle" x="1914.11" y="-715.29" font-family="Times,serif" font-size="14.00">3:0 &#45; 4:1</text>
<polyline fill="none" stroke="black" points="1880.61,-708.09 1947.61,-708.09"/>
<text text-anchor="middle" x="1914.11" y="-690.79" font-family="Times,serif" font-size="14.00">4:4 &#45; 0:0</text>
</g>
<!-- x12&#45;&gt;c31 -->
<g id="edge13" class="edge">
<title>x12:e&#45;&gt;c31:w</title>
<path fill="none" stroke="black" stroke-width="3" d="M1960.34,-720.28C1963.93,-720.24 1967.07,-720.19 1970.64,-720.15"/>
<polygon fill="none" stroke="black" stroke-width="3" points="1962.32,-720.27 1956.34,-724.3 1950.32,-720.33 1956.3,-716.3 1962.32,-720.27"/>
<polygon fill="none" stroke="black" stroke-width="3" points="1968.91,-720.16 1974.89,-716.13 1980.91,-720.1 1974.93,-724.13 1968.91,-720.16"/>
</g>
<!-- c32 -->
<g id="node33" class="node">
<title>c32</title>
<polygon fill="none" stroke="black" points="2639.12,-631.84 2639.12,-680.84 2732.12,-680.84 2732.12,-631.84 2639.12,-631.84"/>
<text text-anchor="middle" x="2651.99" y="-663.54" font-family="Times,serif" font-size="14.00">A</text>
<polyline fill="none" stroke="black" points="2639.12,-656.34 2664.87,-656.34"/>
<text text-anchor="middle" x="2651.99" y="-639.04" font-family="Times,serif" font-size="14.00">B</text>
<polyline fill="none" stroke="black" points="2664.87,-631.84 2664.87,-680.84"/>
<text text-anchor="middle" x="2685.62" y="-659.54" font-family="Times,serif" font-size="14.00">$17</text>
<text text-anchor="middle" x="2685.62" y="-643.04" font-family="Times,serif" font-size="14.00">$sub</text>
<polyline fill="none" stroke="black" points="2706.37,-631.84 2706.37,-680.84"/>
<text text-anchor="middle" x="2719.24" y="-651.54" font-family="Times,serif" font-size="14.00">Y</text>
</g>
<!-- x15 -->
<g id="node36" class="node">
<title>x15</title>
<path fill="none" stroke="black" d="M2780.12,-635.34C2780.12,-635.34 2818.62,-635.34 2818.62,-635.34 2824.62,-635.34 2830.62,-641.34 2830.62,-647.34 2830.62,-647.34 2830.62,-659.34 2830.62,-659.34 2830.62,-665.34 2824.62,-671.34 2818.62,-671.34 2818.62,-671.34 2780.12,-671.34 2780.12,-671.34 2774.12,-671.34 2768.12,-665.34 2768.12,-659.34 2768.12,-659.34 2768.12,-647.34 2768.12,-647.34 2768.12,-641.34 2774.12,-635.34 2780.12,-635.34"/>
<text text-anchor="middle" x="2799.37" y="-648.54" font-family="Times,serif" font-size="14.00">9:0 &#45; 9:0</text>
</g>
<!-- c32&#45;&gt;x15 -->
<g id="edge16" class="edge">
<title>c32:e&#45;&gt;x15:w</title>
<path fill="none" stroke="black" stroke-width="3" d="M2744.85,-655.77C2748.44,-655.29 2751.56,-654.68 2755.13,-654.19"/>
<polygon fill="none" stroke="black" stroke-width="3" points="2746.79,-655.64 2741.06,-660.02 2734.82,-656.41 2740.55,-652.04 2746.79,-655.64"/>
<polygon fill="none" stroke="black" stroke-width="3" points="2753.44,-654.3 2759.17,-649.92 2765.42,-653.52 2759.69,-657.9 2753.44,-654.3"/>
</g>
<!-- x13&#45;&gt;c32 -->
<g id="edge14" class="edge">
<title>x13:e&#45;&gt;c32:w</title>
<path fill="none" stroke="black" stroke-width="3" d="M2614.75,-701.09C2620.62,-693.96 2621.54,-681.27 2627.32,-674.04"/>
<polygon fill="none" stroke="black" stroke-width="3" points="2616.52,-700.29 2612.7,-706.41 2605.58,-705.23 2609.41,-699.11 2616.52,-700.29"/>
<polygon fill="none" stroke="black" stroke-width="3" points="2625.77,-674.75 2629.54,-668.61 2636.66,-669.72 2632.89,-675.87 2625.77,-674.75"/>
</g>
<!-- x14&#45;&gt;c32 -->
<g id="edge15" class="edge">
<title>x14:e&#45;&gt;c32:w</title>
<path fill="none" stroke="black" stroke-width="3" d="M2615.84,-644.28C2619.44,-644.24 2622.57,-644.19 2626.14,-644.15"/>
<polygon fill="none" stroke="black" stroke-width="3" points="2617.82,-644.27 2611.84,-648.3 2605.82,-644.33 2611.8,-640.3 2617.82,-644.27"/>
<polygon fill="none" stroke="black" stroke-width="3" points="2624.41,-644.16 2630.39,-640.13 2636.41,-644.1 2630.43,-648.13 2624.41,-644.16"/>
</g>
<!-- x18 -->
<g id="node42" class="node">
<title>x18</title>
<path fill="none" stroke="black" d="M2878.62,-633.34C2878.62,-633.34 2917.12,-633.34 2917.12,-633.34 2923.12,-633.34 2929.12,-639.34 2929.12,-645.34 2929.12,-645.34 2929.12,-657.34 2929.12,-657.34 2929.12,-663.34 2923.12,-669.34 2917.12,-669.34 2917.12,-669.34 2878.62,-669.34 2878.62,-669.34 2872.62,-669.34 2866.62,-663.34 2866.62,-657.34 2866.62,-657.34 2866.62,-645.34 2866.62,-645.34 2866.62,-639.34 2872.62,-633.34 2878.62,-633.34"/>
<text text-anchor="middle" x="2897.87" y="-646.54" font-family="Times,serif" font-size="14.00">9:0 &#45; 9:0</text>
</g>
<!-- x15&#45;&gt;x18 -->
<g id="edge62" class="edge">
<title>x15:e&#45;&gt;x18:w</title>
<path fill="none" stroke="black" stroke-width="3" d="M2830.62,-653.59C2842.01,-653.59 2847.3,-652.58 2855.16,-651.99"/>
<polygon fill="black" stroke="black" stroke-width="3" points="2852.21,-655.6 2862.08,-651.75 2851.96,-648.6 2852.21,-655.6"/>
</g>
<!-- c34&#45;&gt;n14 -->
<g id="edge40" class="edge">
<title>c34:e&#45;&gt;n14:w</title>
<path fill="none" stroke="black" stroke-width="3" d="M315.65,-484.34C393.92,-484.34 284.81,-816.81 344.06,-850.58"/>
<polygon fill="black" stroke="black" stroke-width="3" points="340.11,-853.2 350.66,-852.24 341.81,-846.41 340.11,-853.2"/>
</g>
<!-- x16&#45;&gt;c34 -->
<g id="edge17" class="edge">
<title>x16:e&#45;&gt;c34:w</title>
<path fill="none" stroke="black" stroke-width="3" d="M1467.2,-224.71C1466.18,-229.57 1463.39,-234.91 1459.82,-238.34 1439.79,-257.58 1425.08,-239.15 1397.32,-238.34 1238.22,-233.67 1198.98,-217.34 1039.82,-217.34 547.44,-217.34 547.44,-217.34 547.44,-217.34 377.18,-217.34 467.3,-446.18 314.65,-521.59 275.2,-541.08 247.17,-552.28 215.65,-521.59 208.04,-514.19 202.97,-500.98 204.67,-492.45"/>
<polygon fill="none" stroke="black" stroke-width="3" points="1468.01,-226.16 1461.59,-222.89 1462.14,-215.7 1468.57,-218.97 1468.01,-226.16"/>
<polygon fill="none" stroke="black" stroke-width="3" points="203.23,-493.61 205.37,-486.72 212.55,-486.04 210.41,-492.93 203.23,-493.61"/>
</g>
<!-- c35&#45;&gt;n16 -->
<g id="edge53" class="edge">
<title>c35:e&#45;&gt;n16:w</title>
<path fill="none" stroke="black" stroke-width="3" d="M2211.61,-521.34C2241,-521.34 2221.21,-571.56 2236.77,-585.68"/>
<polygon fill="black" stroke="black" stroke-width="3" points="2232.72,-588.01 2243.31,-587.89 2234.95,-581.38 2232.72,-588.01"/>
</g>
<!-- x17 -->
<g id="node40" class="node">
<title>x17</title>
<path fill="none" stroke="black" d="M2010.86,-540.34C2010.86,-540.34 2049.36,-540.34 2049.36,-540.34 2055.36,-540.34 2061.36,-546.34 2061.36,-552.34 2061.36,-552.34 2061.36,-564.34 2061.36,-564.34 2061.36,-570.34 2055.36,-576.34 2049.36,-576.34 2049.36,-576.34 2010.86,-576.34 2010.86,-576.34 2004.86,-576.34 1998.86,-570.34 1998.86,-564.34 1998.86,-564.34 1998.86,-552.34 1998.86,-552.34 1998.86,-546.34 2004.86,-540.34 2010.86,-540.34"/>
<text text-anchor="middle" x="2030.11" y="-553.54" font-family="Times,serif" font-size="14.00">4:0 &#45; 4:0</text>
</g>
<!-- x17&#45;&gt;c35 -->
<g id="edge18" class="edge">
<title>x17:e&#45;&gt;c35:w</title>
<path fill="none" stroke="black" stroke-width="3" d="M2074.92,-554.92C2086.04,-547.84 2089.03,-531.62 2100.24,-524.64"/>
<polygon fill="none" stroke="black" stroke-width="3" points="2076.55,-554.48 2071.81,-559.91 2064.97,-557.63 2069.71,-552.2 2076.55,-554.48"/>
<polygon fill="none" stroke="black" stroke-width="3" points="2098.41,-525.13 2103.17,-519.72 2110,-522.04 2105.23,-527.45 2098.41,-525.13"/>
</g>
<!-- c36 -->
<g id="node41" class="node">
<title>c36</title>
<polygon fill="none" stroke="black" points="2965.12,-598.84 2965.12,-647.84 3057.37,-647.84 3057.37,-598.84 2965.12,-598.84"/>
<text text-anchor="middle" x="2977.99" y="-630.54" font-family="Times,serif" font-size="14.00">A</text>
<polyline fill="none" stroke="black" points="2965.12,-623.34 2990.87,-623.34"/>
<text text-anchor="middle" x="2977.99" y="-606.04" font-family="Times,serif" font-size="14.00">B</text>
<polyline fill="none" stroke="black" points="2990.87,-598.84 2990.87,-647.84"/>
<text text-anchor="middle" x="3011.24" y="-626.54" font-family="Times,serif" font-size="14.00">$18</text>
<text text-anchor="middle" x="3011.24" y="-610.04" font-family="Times,serif" font-size="14.00">$xor</text>
<polyline fill="none" stroke="black" points="3031.62,-598.84 3031.62,-647.84"/>
<text text-anchor="middle" x="3044.49" y="-618.54" font-family="Times,serif" font-size="14.00">Y</text>
</g>
<!-- c36&#45;&gt;n12 -->
<g id="edge29" class="edge">
<title>c36:e&#45;&gt;n12:w</title>
<path fill="none" stroke="black" stroke-width="3" d="M3057.37,-623.59C3068.74,-623.59 3074.05,-623.46 3081.92,-623.39"/>
<polygon fill="black" stroke="black" stroke-width="3" points="3078.84,-626.9 3088.83,-623.36 3078.81,-619.9 3078.84,-626.9"/>
</g>
<!-- x18&#45;&gt;c36 -->
<g id="edge19" class="edge">
<title>x18:e&#45;&gt;c36:w</title>
<path fill="none" stroke="black" stroke-width="3" d="M2941.44,-647.84C2945.56,-645.23 2948.69,-641.68 2952.81,-639.07"/>
<polygon fill="none" stroke="black" stroke-width="3" points="2943.26,-647.33 2938.58,-652.81 2931.72,-650.6 2936.4,-645.12 2943.26,-647.33"/>
<polygon fill="none" stroke="black" stroke-width="3" points="2950.97,-639.59 2955.65,-634.11 2962.51,-636.33 2957.83,-641.81 2950.97,-639.59"/>
</g>
<!-- x19&#45;&gt;c36 -->
<g id="edge20" class="edge">
<title>x19:e&#45;&gt;c36:w</title>
<path fill="none" stroke="black" stroke-width="3" d="M2734.21,-593.43C2828.02,-594.71 2858.31,-609.71 2952.09,-611"/>
<polygon fill="none" stroke="black" stroke-width="3" points="2735.95,-593.44 2729.92,-597.4 2723.95,-593.36 2729.97,-589.4 2735.95,-593.44"/>
<polygon fill="none" stroke="black" stroke-width="3" points="2950.41,-610.99 2956.44,-607.03 2962.41,-611.07 2956.39,-615.03 2950.41,-610.99"/>
</g>
<!-- x21 -->
<g id="node45" class="node">
<title>x21</title>
<path fill="none" stroke="black" d="M1120.32,-511.84C1120.32,-511.84 1172.32,-511.84 1172.32,-511.84 1178.32,-511.84 1184.32,-517.84 1184.32,-523.84 1184.32,-523.84 1184.32,-548.84 1184.32,-548.84 1184.32,-554.84 1178.32,-560.84 1172.32,-560.84 1172.32,-560.84 1120.32,-560.84 1120.32,-560.84 1114.32,-560.84 1108.32,-554.84 1108.32,-548.84 1108.32,-548.84 1108.32,-523.84 1108.32,-523.84 1108.32,-517.84 1114.32,-511.84 1120.32,-511.84"/>
<text text-anchor="middle" x="1146.32" y="-543.54" font-family="Times,serif" font-size="14.00">22:1 &#45; 25:4</text>
<polyline fill="none" stroke="black" points="1108.32,-536.34 1184.32,-536.34"/>
<text text-anchor="middle" x="1146.32" y="-519.04" font-family="Times,serif" font-size="14.00">0:0 &#45; 0:0</text>
</g>
<!-- x20&#45;&gt;x21 -->
<g id="edge21" class="edge">
<title>x20:e&#45;&gt;x21:w</title>
<path fill="none" stroke="black" stroke-width="3" d="M1084.74,-545.56C1088.73,-543.62 1091.94,-541.04 1095.92,-539.11"/>
<polygon fill="none" stroke="black" stroke-width="3" points="1086.67,-545.12 1081.69,-550.34 1074.96,-547.75 1079.94,-542.53 1086.67,-545.12"/>
<polygon fill="none" stroke="black" stroke-width="3" points="1093.97,-539.54 1098.95,-534.33 1105.68,-536.93 1100.69,-542.14 1093.97,-539.54"/>
</g>
<!-- x21&#45;&gt;n5 -->
<g id="edge63" class="edge">
<title>x21:e&#45;&gt;n5:w</title>
<path fill="none" stroke="black" d="M1184.32,-524.09C1226.26,-524.09 1239.43,-522.63 1276.43,-522.38"/>
<polygon fill="black" stroke="black" points="1276.04,-525.88 1286.03,-522.34 1276.01,-518.88 1276.04,-525.88"/>
</g>
<!-- x21&#45;&gt;n5 -->
<g id="edge64" class="edge">
<title>x21:e&#45;&gt;n5:w</title>
<path fill="none" stroke="black" stroke-width="3" d="M1184.32,-548.59C1227.59,-548.59 1238.45,-526.66 1276.15,-522.89"/>
<polygon fill="black" stroke="black" stroke-width="3" points="1273.18,-526.53 1283,-522.56 1272.85,-519.54 1273.18,-526.53"/>
</g>
<!-- v22 -->
<g id="node46" class="node">
<title>v22</title>
<ellipse fill="none" stroke="black" cx="1614.22" cy="-254.34" rx="118.4" ry="18"/>
<text text-anchor="middle" x="1614.22" y="-249.29" font-family="Times,serif" font-size="14.00">21&#39;000000000000000000000</text>
</g>
<!-- x23 -->
<g id="node47" class="node">
<title>x23</title>
<path fill="none" stroke="black" d="M1780.61,-375.34C1780.61,-375.34 1832.61,-375.34 1832.61,-375.34 1838.61,-375.34 1844.61,-381.34 1844.61,-387.34 1844.61,-387.34 1844.61,-399.34 1844.61,-399.34 1844.61,-405.34 1838.61,-411.34 1832.61,-411.34 1832.61,-411.34 1780.61,-411.34 1780.61,-411.34 1774.61,-411.34 1768.61,-405.34 1768.61,-399.34 1768.61,-399.34 1768.61,-387.34 1768.61,-387.34 1768.61,-381.34 1774.61,-375.34 1780.61,-375.34"/>
<text text-anchor="middle" x="1806.61" y="-388.54" font-family="Times,serif" font-size="14.00">20:0 &#45; 25:5</text>
</g>
<!-- v22&#45;&gt;x23 -->
<g id="edge80" class="edge">
<title>v22:e&#45;&gt;x23:w</title>
<path fill="none" stroke="black" stroke-width="3" d="M1732.61,-254.34C1791.94,-254.34 1716.92,-374.48 1757.35,-391.37"/>
<polygon fill="black" stroke="black" stroke-width="3" points="1753.69,-394.29 1764.14,-392.56 1754.89,-387.39 1753.69,-394.29"/>
</g>
<!-- x23&#45;&gt;n6 -->
<g id="edge74" class="edge">
<title>x23:e&#45;&gt;n6:w</title>
<path fill="none" stroke="black" stroke-width="3" d="M1844.61,-393.59C1886.99,-393.59 1868.54,-460.73 1899.52,-473.32"/>
<polygon fill="black" stroke="black" stroke-width="3" points="1895.91,-476.23 1906.37,-474.54 1897.14,-469.34 1895.91,-476.23"/>
</g>
<!-- n2&#45;&gt;x12 -->
<g id="edge59" class="edge">
<title>n2:e&#45;&gt;x12:w</title>
<path fill="none" stroke="black" d="M1809.89,-708.34C1837.7,-708.34 1846.5,-698.85 1869.41,-696.41"/>
<polygon fill="black" stroke="black" points="1869.29,-699.92 1879.1,-695.92 1868.94,-692.93 1869.29,-699.92"/>
</g>
<!-- n2&#45;&gt;x12 -->
<g id="edge60" class="edge">
<title>n2:e&#45;&gt;x12:w</title>
<path fill="none" stroke="black" stroke-width="3" d="M1809.89,-708.34C1837.66,-708.34 1846.52,-717.44 1869.42,-719.79"/>
<polygon fill="black" stroke="black" stroke-width="3" points="1865.92,-723.12 1876.08,-720.12 1866.26,-716.13 1865.92,-723.12"/>
</g>
<!-- n5&#45;&gt;x0 -->
<g id="edge66" class="edge">
<title>n5:e&#45;&gt;x0:w</title>
<path fill="none" stroke="black" stroke-width="3" d="M1294.1,-522.34C1339.52,-522.34 1341.18,-558.62 1361.32,-599.34 1377.28,-631.62 1361.26,-748.57 1386.91,-771.99"/>
<polygon fill="black" stroke="black" stroke-width="3" points="1382.51,-774.01 1393.09,-774.42 1385.07,-767.5 1382.51,-774.01"/>
</g>
<!-- n5&#45;&gt;x3 -->
<g id="edge69" class="edge">
<title>n5:e&#45;&gt;x3:w</title>
<path fill="none" stroke="black" stroke-width="3" d="M1294.1,-522.34C1339.52,-522.34 1337.18,-560.85 1361.32,-599.34 1380.64,-630.14 1361.72,-673.1 1386.19,-682.13"/>
<polygon fill="black" stroke="black" stroke-width="3" points="1382.41,-685.09 1392.83,-683.15 1383.48,-678.18 1382.41,-685.09"/>
</g>
<!-- n5&#45;&gt;x4 -->
<g id="edge70" class="edge">
<title>n5:e&#45;&gt;x4:w</title>
<path fill="none" stroke="black" stroke-width="3" d="M1294.1,-522.34C1336.03,-522.34 1349.22,-522.34 1386.21,-522.34"/>
<polygon fill="black" stroke="black" stroke-width="3" points="1382.78,-525.84 1392.78,-522.34 1382.78,-518.84 1382.78,-525.84"/>
</g>
<!-- n5&#45;&gt;x5 -->
<g id="edge71" class="edge">
<title>n5:e&#45;&gt;x5:w</title>
<path fill="none" stroke="black" stroke-width="3" d="M1294.1,-522.34C1351.75,-522.34 1337.9,-441.28 1386.05,-430.51"/>
<polygon fill="black" stroke="black" stroke-width="3" points="1383.22,-434.33 1392.8,-429.81 1382.49,-427.37 1383.22,-434.33"/>
</g>
<!-- n5&#45;&gt;x7 -->
<g id="edge72" class="edge">
<title>n5:e&#45;&gt;x7:w</title>
<path fill="none" stroke="black" stroke-width="3" d="M1294.1,-522.34C1351.75,-522.34 1337.9,-603.4 1386.05,-614.16"/>
<polygon fill="black" stroke="black" stroke-width="3" points="1382.49,-617.31 1392.8,-614.87 1383.22,-610.35 1382.49,-617.31"/>
</g>
<!-- n5&#45;&gt;x9 -->
<g id="edge73" class="edge">
<title>n5:e&#45;&gt;x9:w</title>
<path fill="none" stroke="black" stroke-width="3" d="M1294.1,-522.34C1374.86,-522.34 1318.55,-376.9 1385.93,-362.7"/>
<polygon fill="black" stroke="black" stroke-width="3" points="1383.19,-366.49 1392.8,-362.03 1382.51,-359.52 1383.19,-366.49"/>
</g>
<!-- n5&#45;&gt;x10 -->
<g id="edge67" class="edge">
<title>n5:e&#45;&gt;x10:w</title>
<path fill="none" stroke="black" stroke-width="3" d="M1294.1,-522.34C1401.6,-522.34 1294.14,-309.82 1386.11,-294.46"/>
<polygon fill="black" stroke="black" stroke-width="3" points="1383.09,-298.21 1392.79,-293.94 1382.55,-291.23 1383.09,-298.21"/>
</g>
<!-- n5&#45;&gt;x16 -->
<g id="edge68" class="edge">
<title>n5:e&#45;&gt;x16:w</title>
<path fill="none" stroke="black" stroke-width="3" d="M1294.1,-522.34C1359.96,-522.34 1331.28,-258.25 1386.44,-228.34"/>
<polygon fill="black" stroke="black" stroke-width="3" points="1384.08,-232.54 1392.92,-226.7 1382.36,-225.76 1384.08,-232.54"/>
</g>
<!-- n6&#45;&gt;x17 -->
<g id="edge76" class="edge">
<title>n6:e&#45;&gt;x17:w</title>
<path fill="none" stroke="black" stroke-width="3" d="M1917.39,-475.34C1964.63,-475.34 1949.59,-545.49 1986.61,-557"/>
<polygon fill="black" stroke="black" stroke-width="3" points="1982.98,-560.02 1993.37,-557.95 1983.96,-553.09 1982.98,-560.02"/>
</g>
</g>
</svg>
