<?xml version="1.0" encoding="UTF-8" standalone="no"?>
<!DOCTYPE svg PUBLIC "-//W3C//DTD SVG 1.1//EN"
 "http://www.w3.org/Graphics/SVG/1.1/DTD/svg11.dtd">
<!-- Generated by graphviz version 12.2.1 (20241206.2353)
 -->
<!-- Title: top Pages: 1 -->
<svg width="1466pt" height="235pt"
 viewBox="0.00 0.00 1466.05 234.50" xmlns="http://www.w3.org/2000/svg" xmlns:xlink="http://www.w3.org/1999/xlink">
<g id="graph0" class="graph" transform="scale(1 1) rotate(0) translate(4 230.5)">
<title>top</title>
<polygon fill="white" stroke="none" points="-4,4 -4,-230.5 1462.05,-230.5 1462.05,4 -4,4"/>
<text text-anchor="middle" x="729.03" y="-7.2" font-family="Times,serif" font-size="14.00">top</text>
<!-- n3 -->
<g id="node1" class="node">
<title>n3</title>
<polygon fill="none" stroke="black" points="107.84,-134.04 107.84,-148.96 76.26,-159.5 31.59,-159.5 0,-148.96 0,-134.04 31.59,-123.5 76.26,-123.5 107.84,-134.04"/>
<text text-anchor="middle" x="53.92" y="-136.45" font-family="Times,serif" font-size="14.00">input_data</text>
</g>
<!-- x0 -->
<g id="node6" class="node">
<title>x0</title>
<path fill="none" stroke="black" d="M169.29,-29.5C169.29,-29.5 207.79,-29.5 207.79,-29.5 213.79,-29.5 219.79,-35.5 219.79,-41.5 219.79,-41.5 219.79,-53.5 219.79,-53.5 219.79,-59.5 213.79,-65.5 207.79,-65.5 207.79,-65.5 169.29,-65.5 169.29,-65.5 163.29,-65.5 157.29,-59.5 157.29,-53.5 157.29,-53.5 157.29,-41.5 157.29,-41.5 157.29,-35.5 163.29,-29.5 169.29,-29.5"/>
<text text-anchor="middle" x="188.54" y="-42.7" font-family="Times,serif" font-size="14.00">0:0 &#45; 0:0</text>
</g>
<!-- n3&#45;&gt;x0 -->
<g id="edge12" class="edge">
<title>n3:e&#45;&gt;x0:w</title>
<path fill="none" stroke="black" d="M107.84,-141.5C150.35,-141.5 117.08,-64.5 145.38,-50.07"/>
<polygon fill="black" stroke="black" points="145.75,-53.57 154.81,-48.06 144.3,-46.72 145.75,-53.57"/>
</g>
<!-- c11 -->
<g id="node7" class="node">
<title>c11</title>
<polygon fill="none" stroke="black" points="145.79,-177 145.79,-226 231.29,-226 231.29,-177 145.79,-177"/>
<text text-anchor="middle" x="158.66" y="-208.7" font-family="Times,serif" font-size="14.00">A</text>
<polyline fill="none" stroke="black" points="145.79,-201.5 171.54,-201.5"/>
<text text-anchor="middle" x="158.66" y="-184.2" font-family="Times,serif" font-size="14.00">B</text>
<polyline fill="none" stroke="black" points="171.54,-177 171.54,-226"/>
<text text-anchor="middle" x="188.54" y="-204.7" font-family="Times,serif" font-size="14.00">$4</text>
<text text-anchor="middle" x="188.54" y="-188.2" font-family="Times,serif" font-size="14.00">$or</text>
<polyline fill="none" stroke="black" points="205.54,-177 205.54,-226"/>
<text text-anchor="middle" x="218.41" y="-196.7" font-family="Times,serif" font-size="14.00">Y</text>
</g>
<!-- n3&#45;&gt;c11 -->
<g id="edge9" class="edge">
<title>n3:e&#45;&gt;c11:w</title>
<path fill="none" stroke="black" stroke-width="3" d="M107.84,-141.5C129.85,-141.5 122.56,-173.63 134.04,-185.18"/>
<polygon fill="black" stroke="black" stroke-width="3" points="129.95,-187.37 140.54,-187.64 132.43,-180.83 129.95,-187.37"/>
</g>
<!-- n3&#45;&gt;c11 -->
<g id="edge10" class="edge">
<title>n3:e&#45;&gt;c11:w</title>
<path fill="none" stroke="black" stroke-width="3" d="M107.84,-141.5C139.12,-141.5 116.81,-195.83 133.86,-210.27"/>
<polygon fill="black" stroke="black" stroke-width="3" points="129.87,-212.67 140.46,-212.37 132,-206 129.87,-212.67"/>
</g>
<!-- c13 -->
<g id="node11" class="node">
<title>c13</title>
<polygon fill="none" stroke="black" points="593.74,-82 593.74,-131 685.99,-131 685.99,-82 593.74,-82"/>
<text text-anchor="middle" x="606.61" y="-113.7" font-family="Times,serif" font-size="14.00">A</text>
<polyline fill="none" stroke="black" points="593.74,-106.5 619.49,-106.5"/>
<text text-anchor="middle" x="606.61" y="-89.2" font-family="Times,serif" font-size="14.00">B</text>
<polyline fill="none" stroke="black" points="619.49,-82 619.49,-131"/>
<text text-anchor="middle" x="639.86" y="-109.7" font-family="Times,serif" font-size="14.00">$5</text>
<text text-anchor="middle" x="639.86" y="-93.2" font-family="Times,serif" font-size="14.00">$xor</text>
<polyline fill="none" stroke="black" points="660.24,-82 660.24,-131"/>
<text text-anchor="middle" x="673.11" y="-101.7" font-family="Times,serif" font-size="14.00">Y</text>
</g>
<!-- n3&#45;&gt;c13 -->
<g id="edge11" class="edge">
<title>n3:e&#45;&gt;c13:w</title>
<path fill="none" stroke="black" stroke-width="3" d="M107.84,-141.5C128.11,-141.5 125.1,-121.23 143.84,-113.5 208.26,-86.92 229.8,-94.5 299.49,-94.5 299.49,-94.5 299.49,-94.5 414.49,-94.5 490.26,-94.5 511.98,-94.27 582.48,-94.25"/>
<polygon fill="black" stroke="black" stroke-width="3" points="579.2,-97.75 589.2,-94.25 579.2,-90.75 579.2,-97.75"/>
</g>
<!-- n4 -->
<g id="node2" class="node">
<title>n4</title>
<polygon fill="none" stroke="black" points="1458.05,-80.04 1458.05,-94.96 1423.54,-105.5 1374.75,-105.5 1340.24,-94.96 1340.24,-80.04 1374.75,-69.5 1423.54,-69.5 1458.05,-80.04"/>
<text text-anchor="middle" x="1399.15" y="-82.45" font-family="Times,serif" font-size="14.00">output_data</text>
</g>
<!-- n5 -->
<g id="node3" class="node">
<title>n5</title>
<polygon fill="none" stroke="black" points="777.24,-121.5 721.99,-103.5 777.24,-85.5 832.49,-103.5 777.24,-121.5"/>
<text text-anchor="middle" x="777.24" y="-98.45" font-family="Times,serif" font-size="14.00">temp_1</text>
</g>
<!-- x2 -->
<g id="node10" class="node">
<title>x2</title>
<path fill="none" stroke="black" d="M880.49,-83.5C880.49,-83.5 918.99,-83.5 918.99,-83.5 924.99,-83.5 930.99,-89.5 930.99,-95.5 930.99,-95.5 930.99,-107.5 930.99,-107.5 930.99,-113.5 924.99,-119.5 918.99,-119.5 918.99,-119.5 880.49,-119.5 880.49,-119.5 874.49,-119.5 868.49,-113.5 868.49,-107.5 868.49,-107.5 868.49,-95.5 868.49,-95.5 868.49,-89.5 874.49,-83.5 880.49,-83.5"/>
<text text-anchor="middle" x="899.74" y="-96.7" font-family="Times,serif" font-size="14.00">0:0 &#45; 0:0</text>
</g>
<!-- n5&#45;&gt;x2 -->
<g id="edge15" class="edge">
<title>n5:e&#45;&gt;x2:w</title>
<path fill="none" stroke="black" d="M832.49,-103.5C843.88,-103.5 849.17,-102.62 857.04,-102.1"/>
<polygon fill="black" stroke="black" points="857.09,-105.6 866.97,-101.8 856.87,-98.61 857.09,-105.6"/>
</g>
<!-- n6 -->
<g id="node4" class="node">
<title>n6</title>
<polygon fill="none" stroke="black" points="1145.99,-93.5 1090.74,-75.5 1145.99,-57.5 1201.24,-75.5 1145.99,-93.5"/>
<text text-anchor="middle" x="1145.99" y="-70.45" font-family="Times,serif" font-size="14.00">temp_4</text>
</g>
<!-- x4 -->
<g id="node13" class="node">
<title>x4</title>
<path fill="none" stroke="black" d="M1249.24,-63C1249.24,-63 1292.24,-63 1292.24,-63 1298.24,-63 1304.24,-69 1304.24,-75 1304.24,-75 1304.24,-100 1304.24,-100 1304.24,-106 1298.24,-112 1292.24,-112 1292.24,-112 1249.24,-112 1249.24,-112 1243.24,-112 1237.24,-106 1237.24,-100 1237.24,-100 1237.24,-75 1237.24,-75 1237.24,-69 1243.24,-63 1249.24,-63"/>
<text text-anchor="middle" x="1270.74" y="-94.7" font-family="Times,serif" font-size="14.00">0 &#45;&gt; 18:1</text>
<polyline fill="none" stroke="black" points="1237.24,-87.5 1304.24,-87.5"/>
<text text-anchor="middle" x="1270.74" y="-70.2" font-family="Times,serif" font-size="14.00">0:0 &#45; 0:0</text>
</g>
<!-- n6&#45;&gt;x4 -->
<g id="edge17" class="edge">
<title>n6:e&#45;&gt;x4:w</title>
<path fill="none" stroke="black" d="M1201.24,-75.5C1212.61,-75.5 1217.92,-75.37 1225.79,-75.3"/>
<polygon fill="black" stroke="black" points="1225.74,-78.8 1235.73,-75.26 1225.71,-71.8 1225.74,-78.8"/>
</g>
<!-- c9 -->
<g id="node5" class="node">
<title>c9</title>
<polygon fill="none" stroke="black" points="367.74,-25 367.74,-66 459.24,-66 459.24,-25 367.74,-25"/>
<text text-anchor="middle" x="380.61" y="-40.7" font-family="Times,serif" font-size="14.00">A</text>
<polyline fill="none" stroke="black" points="393.49,-25 393.49,-66"/>
<text text-anchor="middle" x="413.49" y="-48.7" font-family="Times,serif" font-size="14.00">$9</text>
<text text-anchor="middle" x="413.49" y="-32.2" font-family="Times,serif" font-size="14.00">$not</text>
<polyline fill="none" stroke="black" points="433.49,-25 433.49,-66"/>
<text text-anchor="middle" x="446.36" y="-40.7" font-family="Times,serif" font-size="14.00">Y</text>
</g>
<!-- c12 -->
<g id="node9" class="node">
<title>c12</title>
<polygon fill="none" stroke="black" points="966.99,-51 966.99,-100 1054.74,-100 1054.74,-51 966.99,-51"/>
<text text-anchor="middle" x="979.86" y="-82.7" font-family="Times,serif" font-size="14.00">A</text>
<polyline fill="none" stroke="black" points="966.99,-75.5 992.74,-75.5"/>
<text text-anchor="middle" x="979.86" y="-58.2" font-family="Times,serif" font-size="14.00">B</text>
<polyline fill="none" stroke="black" points="992.74,-51 992.74,-100"/>
<text text-anchor="middle" x="1010.86" y="-78.7" font-family="Times,serif" font-size="14.00">$10</text>
<text text-anchor="middle" x="1010.86" y="-62.2" font-family="Times,serif" font-size="14.00">$or</text>
<polyline fill="none" stroke="black" points="1028.99,-51 1028.99,-100"/>
<text text-anchor="middle" x="1041.86" y="-70.7" font-family="Times,serif" font-size="14.00">Y</text>
</g>
<!-- c9&#45;&gt;c12 -->
<g id="edge5" class="edge">
<title>c9:e&#45;&gt;c12:w</title>
<path fill="none" stroke="black" d="M459.24,-45.75C539.09,-45.75 559.01,-49.5 638.86,-49.5 638.86,-49.5 638.86,-49.5 778.24,-49.5 858.41,-49.5 880.81,-61.99 955.57,-63.16"/>
<polygon fill="black" stroke="black" points="955.45,-66.66 965.47,-63.24 955.5,-59.66 955.45,-66.66"/>
</g>
<!-- x0&#45;&gt;c9 -->
<g id="edge1" class="edge">
<title>x0:e&#45;&gt;c9:w</title>
<path fill="none" stroke="black" d="M233.53,-47.48C284.48,-47.28 303.96,-45.97 354.86,-45.77"/>
<polygon fill="none" stroke="black" points="233.69,-47.48 227.7,-51.49 221.69,-47.5 227.68,-43.49 233.69,-47.48"/>
<polygon fill="none" stroke="black" points="354.84,-45.77 360.83,-41.76 366.84,-45.75 360.84,-49.76 354.84,-45.77"/>
</g>
<!-- x1 -->
<g id="node8" class="node">
<title>x1</title>
<path fill="none" stroke="black" d="M281.24,-180.5C281.24,-180.5 319.74,-180.5 319.74,-180.5 325.74,-180.5 331.74,-186.5 331.74,-192.5 331.74,-192.5 331.74,-204.5 331.74,-204.5 331.74,-210.5 325.74,-216.5 319.74,-216.5 319.74,-216.5 281.24,-216.5 281.24,-216.5 275.24,-216.5 269.24,-210.5 269.24,-204.5 269.24,-204.5 269.24,-192.5 269.24,-192.5 269.24,-186.5 275.24,-180.5 281.24,-180.5"/>
<text text-anchor="middle" x="300.49" y="-193.7" font-family="Times,serif" font-size="14.00">2:0 &#45; 2:0</text>
</g>
<!-- c11&#45;&gt;x1 -->
<g id="edge2" class="edge">
<title>c11:e&#45;&gt;x1:w</title>
<path fill="none" stroke="black" stroke-width="3" d="M245.1,-200.96C249.09,-200.45 252.49,-199.79 256.48,-199.28"/>
<polygon fill="none" stroke="black" stroke-width="3" points="246.97,-200.85 241.22,-205.21 234.99,-201.58 240.73,-197.22 246.97,-200.85"/>
<polygon fill="none" stroke="black" stroke-width="3" points="254.56,-199.4 260.3,-195.04 266.54,-198.66 260.79,-203.02 254.56,-199.4"/>
</g>
<!-- n2 -->
<g id="node16" class="node">
<title>n2</title>
<ellipse fill="black" stroke="black" cx="413.49" cy="-141.5" rx="1.8" ry="1.8"/>
</g>
<!-- x1&#45;&gt;n2 -->
<g id="edge6" class="edge">
<title>x1:e&#45;&gt;n2:w</title>
<path fill="none" stroke="black" stroke-width="3" d="M331.74,-198.75C370.69,-198.75 368.09,-152.14 398.93,-143.03"/>
<polygon fill="black" stroke="black" stroke-width="3" points="396.27,-146.92 405.71,-142.11 395.33,-139.99 396.27,-146.92"/>
</g>
<!-- c12&#45;&gt;n6 -->
<g id="edge16" class="edge">
<title>c12:e&#45;&gt;n6:w</title>
<path fill="none" stroke="black" d="M1054.74,-75.75C1066.11,-75.75 1071.42,-75.62 1079.29,-75.55"/>
<polygon fill="black" stroke="black" points="1079.24,-79.05 1089.22,-75.51 1079.21,-72.05 1079.24,-79.05"/>
</g>
<!-- x2&#45;&gt;c12 -->
<g id="edge3" class="edge">
<title>x2:e&#45;&gt;c12:w</title>
<path fill="none" stroke="black" d="M943.48,-98.31C947.43,-96.09 950.57,-93.14 954.53,-90.92"/>
<polygon fill="none" stroke="black" points="943.49,-98.31 938.66,-103.67 931.86,-101.28 936.68,-95.92 943.49,-98.31"/>
<polygon fill="none" stroke="black" points="954.49,-90.93 959.31,-85.58 966.11,-87.97 961.29,-93.33 954.49,-90.93"/>
</g>
<!-- c13&#45;&gt;n5 -->
<g id="edge14" class="edge">
<title>c13:e&#45;&gt;n5:w</title>
<path fill="none" stroke="black" stroke-width="3" d="M685.99,-106.75C697.41,-106.75 702.67,-105.11 710.52,-104.16"/>
<polygon fill="black" stroke="black" stroke-width="3" points="707.67,-107.83 717.45,-103.76 707.27,-100.84 707.67,-107.83"/>
</g>
<!-- x3 -->
<g id="node12" class="node">
<title>x3</title>
<path fill="none" stroke="black" d="M507.24,-123.5C507.24,-123.5 545.74,-123.5 545.74,-123.5 551.74,-123.5 557.74,-129.5 557.74,-135.5 557.74,-135.5 557.74,-147.5 557.74,-147.5 557.74,-153.5 551.74,-159.5 545.74,-159.5 545.74,-159.5 507.24,-159.5 507.24,-159.5 501.24,-159.5 495.24,-153.5 495.24,-147.5 495.24,-147.5 495.24,-135.5 495.24,-135.5 495.24,-129.5 501.24,-123.5 507.24,-123.5"/>
<text text-anchor="middle" x="526.49" y="-136.7" font-family="Times,serif" font-size="14.00">2:0 &#45; 2:0</text>
</g>
<!-- x3&#45;&gt;c13 -->
<g id="edge4" class="edge">
<title>x3:e&#45;&gt;c13:w</title>
<path fill="none" stroke="black" stroke-width="3" d="M569.7,-137.11C574.31,-133.09 577.18,-127.15 581.79,-123.12"/>
<polygon fill="none" stroke="black" stroke-width="3" points="571.54,-136.44 567.29,-142.26 560.28,-140.57 564.53,-134.75 571.54,-136.44"/>
<polygon fill="none" stroke="black" stroke-width="3" points="579.93,-123.8 584.19,-117.99 591.2,-119.68 586.94,-125.5 579.93,-123.8"/>
</g>
<!-- x4&#45;&gt;n4 -->
<g id="edge13" class="edge">
<title>x4:e&#45;&gt;n4:w</title>
<path fill="none" stroke="black" stroke-width="3" d="M1304.24,-87.5C1315.61,-87.5 1320.92,-87.5 1328.79,-87.5"/>
<polygon fill="black" stroke="black" stroke-width="3" points="1325.7,-91 1335.7,-87.5 1325.7,-84 1325.7,-91"/>
</g>
<!-- v5 -->
<g id="node14" class="node">
<title>v5</title>
<ellipse fill="none" stroke="black" cx="188.54" cy="-140.5" rx="44.7" ry="18"/>
<text text-anchor="middle" x="188.54" y="-135.45" font-family="Times,serif" font-size="14.00">6&#39;000000</text>
</g>
<!-- x6 -->
<g id="node15" class="node">
<title>x6</title>
<path fill="none" stroke="black" d="M281.24,-123.5C281.24,-123.5 319.74,-123.5 319.74,-123.5 325.74,-123.5 331.74,-129.5 331.74,-135.5 331.74,-135.5 331.74,-147.5 331.74,-147.5 331.74,-153.5 325.74,-159.5 319.74,-159.5 319.74,-159.5 281.24,-159.5 281.24,-159.5 275.24,-159.5 269.24,-153.5 269.24,-147.5 269.24,-147.5 269.24,-135.5 269.24,-135.5 269.24,-129.5 275.24,-123.5 281.24,-123.5"/>
<text text-anchor="middle" x="300.49" y="-136.7" font-family="Times,serif" font-size="14.00">5:0 &#45; 8:3</text>
</g>
<!-- v5&#45;&gt;x6 -->
<g id="edge18" class="edge">
<title>v5:e&#45;&gt;x6:w</title>
<path fill="none" stroke="black" stroke-width="3" d="M233.24,-140.5C244.62,-140.5 249.92,-141.01 257.79,-141.3"/>
<polygon fill="black" stroke="black" stroke-width="3" points="254.64,-144.74 264.7,-141.42 254.76,-137.74 254.64,-144.74"/>
</g>
<!-- x6&#45;&gt;n2 -->
<g id="edge7" class="edge">
<title>x6:e&#45;&gt;n2:w</title>
<path fill="none" stroke="black" stroke-width="3" d="M331.74,-141.75C362.53,-141.75 372.93,-141.56 398.94,-141.51"/>
<polygon fill="black" stroke="black" stroke-width="3" points="395.67,-145.01 405.67,-141.5 395.66,-138.01 395.67,-145.01"/>
</g>
<!-- n2&#45;&gt;x3 -->
<g id="edge8" class="edge">
<title>n2:e&#45;&gt;x3:w</title>
<path fill="none" stroke="black" stroke-width="3" d="M416.76,-141.5C447.55,-141.5 457.96,-141.69 483.97,-141.74"/>
<polygon fill="black" stroke="black" stroke-width="3" points="480.69,-145.24 490.7,-141.75 480.7,-138.24 480.69,-145.24"/>
</g>
</g>
</svg>
