<?xml version="1.0" encoding="UTF-8" standalone="no"?>
<!DOCTYPE svg PUBLIC "-//W3C//DTD SVG 1.1//EN"
 "http://www.w3.org/Graphics/SVG/1.1/DTD/svg11.dtd">
<!-- Generated by graphviz version 12.2.1 (20241206.2353)
 -->
<!-- Title: top Pages: 1 -->
<svg width="5547pt" height="798pt"
 viewBox="0.00 0.00 5546.66 798.40" xmlns="http://www.w3.org/2000/svg" xmlns:xlink="http://www.w3.org/1999/xlink">
<g id="graph0" class="graph" transform="scale(1 1) rotate(0) translate(4 794.4)">
<title>top</title>
<polygon fill="white" stroke="none" points="-4,4 -4,-794.4 5542.66,-794.4 5542.66,4 -4,4"/>
<text text-anchor="middle" x="2769.33" y="-7.2" font-family="Times,serif" font-size="14.00">top</text>
<!-- n22 -->
<g id="node1" class="node">
<title>n22</title>
<polygon fill="none" stroke="black" points="107.84,-306.45 107.84,-321.36 76.26,-331.9 31.59,-331.9 0,-321.36 0,-306.45 31.59,-295.9 76.26,-295.9 107.84,-306.45"/>
<text text-anchor="middle" x="53.92" y="-308.85" font-family="Times,serif" font-size="14.00">input_data</text>
</g>
<!-- c35 -->
<g id="node16" class="node">
<title>c35</title>
<polygon fill="none" stroke="black" points="143.84,-418.4 143.84,-467.4 237.59,-467.4 237.59,-418.4 143.84,-418.4"/>
<text text-anchor="middle" x="156.72" y="-450.1" font-family="Times,serif" font-size="14.00">A</text>
<polyline fill="none" stroke="black" points="143.84,-442.9 169.59,-442.9"/>
<text text-anchor="middle" x="156.72" y="-425.6" font-family="Times,serif" font-size="14.00">B</text>
<polyline fill="none" stroke="black" points="169.59,-418.4 169.59,-467.4"/>
<text text-anchor="middle" x="190.72" y="-446.1" font-family="Times,serif" font-size="14.00">$1</text>
<text text-anchor="middle" x="190.72" y="-429.6" font-family="Times,serif" font-size="14.00">$and</text>
<polyline fill="none" stroke="black" points="211.84,-418.4 211.84,-467.4"/>
<text text-anchor="middle" x="224.72" y="-438.1" font-family="Times,serif" font-size="14.00">Y</text>
</g>
<!-- n22&#45;&gt;c35 -->
<g id="edge67" class="edge">
<title>n22:e&#45;&gt;c35:w</title>
<path fill="none" stroke="black" stroke-width="3" d="M107.84,-313.9C168.2,-313.9 91.11,-436.5 132.67,-453.26"/>
<polygon fill="black" stroke="black" stroke-width="3" points="128.92,-456.18 139.36,-454.4 130.09,-449.28 128.92,-456.18"/>
</g>
<!-- n22&#45;&gt;c35 -->
<g id="edge68" class="edge">
<title>n22:e&#45;&gt;c35:w</title>
<path fill="none" stroke="black" stroke-width="3" d="M107.84,-313.9C157.69,-313.9 100.6,-412.28 132.9,-428.43"/>
<polygon fill="black" stroke="black" stroke-width="3" points="128.89,-431.18 139.39,-429.75 130.29,-424.32 128.89,-431.18"/>
</g>
<!-- c36 -->
<g id="node17" class="node">
<title>c36</title>
<polygon fill="none" stroke="black" points="1541.79,-210.4 1541.79,-259.4 1635.54,-259.4 1635.54,-210.4 1541.79,-210.4"/>
<text text-anchor="middle" x="1554.67" y="-242.1" font-family="Times,serif" font-size="14.00">A</text>
<polyline fill="none" stroke="black" points="1541.79,-234.9 1567.54,-234.9"/>
<text text-anchor="middle" x="1554.67" y="-217.6" font-family="Times,serif" font-size="14.00">B</text>
<polyline fill="none" stroke="black" points="1567.54,-210.4 1567.54,-259.4"/>
<text text-anchor="middle" x="1588.67" y="-238.1" font-family="Times,serif" font-size="14.00">$6</text>
<text text-anchor="middle" x="1588.67" y="-221.6" font-family="Times,serif" font-size="14.00">$and</text>
<polyline fill="none" stroke="black" points="1609.79,-210.4 1609.79,-259.4"/>
<text text-anchor="middle" x="1622.67" y="-230.1" font-family="Times,serif" font-size="14.00">Y</text>
</g>
<!-- n22&#45;&gt;c36 -->
<g id="edge69" class="edge">
<title>n22:e&#45;&gt;c36:w</title>
<path fill="none" stroke="black" stroke-width="3" d="M107.84,-313.9C132.09,-313.9 123.62,-286.3 143.84,-272.9 206.29,-231.53 228.93,-219.9 303.84,-219.9 303.84,-219.9 303.84,-219.9 1362.17,-219.9 1438.11,-219.9 1459.86,-222.39 1530.51,-222.63"/>
<polygon fill="black" stroke="black" stroke-width="3" points="1527.24,-226.13 1537.25,-222.65 1527.26,-219.13 1527.24,-226.13"/>
</g>
<!-- x7 -->
<g id="node21" class="node">
<title>x7</title>
<path fill="none" stroke="black" d="M285.59,-380.9C285.59,-380.9 324.09,-380.9 324.09,-380.9 330.09,-380.9 336.09,-386.9 336.09,-392.9 336.09,-392.9 336.09,-404.9 336.09,-404.9 336.09,-410.9 330.09,-416.9 324.09,-416.9 324.09,-416.9 285.59,-416.9 285.59,-416.9 279.59,-416.9 273.59,-410.9 273.59,-404.9 273.59,-404.9 273.59,-392.9 273.59,-392.9 273.59,-386.9 279.59,-380.9 285.59,-380.9"/>
<text text-anchor="middle" x="304.84" y="-394.1" font-family="Times,serif" font-size="14.00">3:0 &#45; 3:0</text>
</g>
<!-- n22&#45;&gt;x7 -->
<g id="edge80" class="edge">
<title>n22:e&#45;&gt;x7:w</title>
<path fill="none" stroke="black" stroke-width="3" d="M107.84,-313.9C135.95,-313.9 120.77,-349.85 143.84,-365.9 189.46,-397.65 211.1,-399.1 262.22,-399.15"/>
<polygon fill="black" stroke="black" stroke-width="3" points="259.05,-402.65 269.05,-399.15 259.05,-395.65 259.05,-402.65"/>
</g>
<!-- x9 -->
<g id="node24" class="node">
<title>x9</title>
<path fill="none" stroke="black" d="M384.09,-248.9C384.09,-248.9 422.59,-248.9 422.59,-248.9 428.59,-248.9 434.59,-254.9 434.59,-260.9 434.59,-260.9 434.59,-272.9 434.59,-272.9 434.59,-278.9 428.59,-284.9 422.59,-284.9 422.59,-284.9 384.09,-284.9 384.09,-284.9 378.09,-284.9 372.09,-278.9 372.09,-272.9 372.09,-272.9 372.09,-260.9 372.09,-260.9 372.09,-254.9 378.09,-248.9 384.09,-248.9"/>
<text text-anchor="middle" x="403.34" y="-262.1" font-family="Times,serif" font-size="14.00">1:0 &#45; 1:0</text>
</g>
<!-- n22&#45;&gt;x9 -->
<g id="edge81" class="edge">
<title>n22:e&#45;&gt;x9:w</title>
<path fill="none" stroke="black" stroke-width="3" d="M107.84,-313.9C125.01,-313.9 127.24,-304.26 143.84,-299.9 239.19,-274.87 267.47,-267.69 360.7,-267.18"/>
<polygon fill="black" stroke="black" stroke-width="3" points="357.56,-270.69 367.55,-267.17 357.54,-263.69 357.56,-270.69"/>
</g>
<!-- c41 -->
<g id="node30" class="node">
<title>c41</title>
<polygon fill="none" stroke="black" points="5182.84,-188.4 5182.84,-237.4 5270.59,-237.4 5270.59,-188.4 5182.84,-188.4"/>
<text text-anchor="middle" x="5195.72" y="-220.1" font-family="Times,serif" font-size="14.00">A</text>
<polyline fill="none" stroke="black" points="5182.84,-212.9 5208.59,-212.9"/>
<text text-anchor="middle" x="5195.72" y="-195.6" font-family="Times,serif" font-size="14.00">B</text>
<polyline fill="none" stroke="black" points="5208.59,-188.4 5208.59,-237.4"/>
<text text-anchor="middle" x="5226.72" y="-216.1" font-family="Times,serif" font-size="14.00">$73</text>
<text text-anchor="middle" x="5226.72" y="-199.6" font-family="Times,serif" font-size="14.00">$or</text>
<polyline fill="none" stroke="black" points="5244.84,-188.4 5244.84,-237.4"/>
<text text-anchor="middle" x="5257.72" y="-208.1" font-family="Times,serif" font-size="14.00">Y</text>
</g>
<!-- n22&#45;&gt;c41 -->
<g id="edge70" class="edge">
<title>n22:e&#45;&gt;c41:w</title>
<path fill="none" stroke="black" stroke-width="3" d="M107.84,-313.9C165.07,-313.9 104.17,-100.15 143.84,-58.9 193.94,-6.81 231.57,-29.9 303.84,-29.9 303.84,-29.9 303.84,-29.9 4978.34,-29.9 5092.49,-29.9 5065.78,-189.5 5170.57,-200.1"/>
<polygon fill="black" stroke="black" stroke-width="3" points="5167.15,-203.44 5177.31,-200.43 5167.49,-196.45 5167.15,-203.44"/>
</g>
<!-- c42 -->
<g id="node33" class="node">
<title>c42</title>
<polygon fill="none" stroke="black" points="5180.59,-680.4 5180.59,-729.4 5272.84,-729.4 5272.84,-680.4 5180.59,-680.4"/>
<text text-anchor="middle" x="5193.47" y="-712.1" font-family="Times,serif" font-size="14.00">A</text>
<polyline fill="none" stroke="black" points="5180.59,-704.9 5206.34,-704.9"/>
<text text-anchor="middle" x="5193.47" y="-687.6" font-family="Times,serif" font-size="14.00">B</text>
<polyline fill="none" stroke="black" points="5206.34,-680.4 5206.34,-729.4"/>
<text text-anchor="middle" x="5226.72" y="-708.1" font-family="Times,serif" font-size="14.00">$76</text>
<text text-anchor="middle" x="5226.72" y="-691.6" font-family="Times,serif" font-size="14.00">$xor</text>
<polyline fill="none" stroke="black" points="5247.09,-680.4 5247.09,-729.4"/>
<text text-anchor="middle" x="5259.97" y="-700.1" font-family="Times,serif" font-size="14.00">Y</text>
</g>
<!-- n22&#45;&gt;c42 -->
<g id="edge71" class="edge">
<title>n22:e&#45;&gt;c42:w</title>
<path fill="none" stroke="black" stroke-width="3" d="M107.84,-313.9C164.19,-313.9 113.61,-517.35 143.84,-564.9 189.47,-636.68 218.78,-669.9 303.84,-669.9 303.84,-669.9 303.84,-669.9 4978.34,-669.9 4998.57,-669.9 5126.35,-688.11 5169.27,-691.95"/>
<polygon fill="black" stroke="black" stroke-width="3" points="5165.86,-695.24 5176.06,-692.37 5166.3,-688.26 5165.86,-695.24"/>
</g>
<!-- c43 -->
<g id="node36" class="node">
<title>c43</title>
<polygon fill="none" stroke="black" points="3128.39,-372.4 3128.39,-421.4 3224.39,-421.4 3224.39,-372.4 3128.39,-372.4"/>
<text text-anchor="middle" x="3141.27" y="-404.1" font-family="Times,serif" font-size="14.00">A</text>
<polyline fill="none" stroke="black" points="3128.39,-396.9 3154.14,-396.9"/>
<text text-anchor="middle" x="3141.27" y="-379.6" font-family="Times,serif" font-size="14.00">B</text>
<polyline fill="none" stroke="black" points="3154.14,-372.4 3154.14,-421.4"/>
<text text-anchor="middle" x="3176.39" y="-400.1" font-family="Times,serif" font-size="14.00">$14</text>
<text text-anchor="middle" x="3176.39" y="-383.6" font-family="Times,serif" font-size="14.00">$mul</text>
<polyline fill="none" stroke="black" points="3198.64,-372.4 3198.64,-421.4"/>
<text text-anchor="middle" x="3211.52" y="-392.1" font-family="Times,serif" font-size="14.00">Y</text>
</g>
<!-- n22&#45;&gt;c43 -->
<g id="edge72" class="edge">
<title>n22:e&#45;&gt;c43:w</title>
<path fill="none" stroke="black" stroke-width="3" d="M107.84,-313.9C182.03,-313.9 92.89,-422.97 143.84,-476.9 194.57,-530.6 229.97,-521.9 303.84,-521.9 303.84,-521.9 303.84,-521.9 741.09,-521.9 1371.97,-521.9 1554.21,-607.91 2157.04,-421.9 2174.74,-416.44 2175.56,-407.04 2193.04,-400.9 2247.43,-381.81 2263.7,-381.9 2321.34,-381.9 2321.34,-381.9 2321.34,-381.9 2910.27,-381.9 3003.34,-381.9 3029.38,-384.44 3117.09,-384.64"/>
<polygon fill="black" stroke="black" stroke-width="3" points="3113.85,-388.14 3123.85,-384.65 3113.86,-381.14 3113.85,-388.14"/>
</g>
<!-- c44 -->
<g id="node38" class="node">
<title>c44</title>
<polygon fill="none" stroke="black" points="2061.04,-547.4 2061.04,-596.4 2157.04,-596.4 2157.04,-547.4 2061.04,-547.4"/>
<text text-anchor="middle" x="2073.92" y="-579.1" font-family="Times,serif" font-size="14.00">A</text>
<polyline fill="none" stroke="black" points="2061.04,-571.9 2086.79,-571.9"/>
<text text-anchor="middle" x="2073.92" y="-554.6" font-family="Times,serif" font-size="14.00">B</text>
<polyline fill="none" stroke="black" points="2086.79,-547.4 2086.79,-596.4"/>
<text text-anchor="middle" x="2109.04" y="-575.1" font-family="Times,serif" font-size="14.00">$9</text>
<text text-anchor="middle" x="2109.04" y="-558.6" font-family="Times,serif" font-size="14.00">$mul</text>
<polyline fill="none" stroke="black" points="2131.29,-547.4 2131.29,-596.4"/>
<text text-anchor="middle" x="2144.17" y="-567.1" font-family="Times,serif" font-size="14.00">Y</text>
</g>
<!-- n22&#45;&gt;c44 -->
<g id="edge73" class="edge">
<title>n22:e&#45;&gt;c44:w</title>
<path fill="none" stroke="black" stroke-width="3" d="M107.84,-313.9C157.82,-313.9 108.29,-500.77 143.84,-535.9 194.99,-586.45 231.93,-559.9 303.84,-559.9 303.84,-559.9 303.84,-559.9 1836.79,-559.9 1932.56,-559.9 1959.31,-559.67 2049.7,-559.65"/>
<polygon fill="black" stroke="black" stroke-width="3" points="2046.5,-563.15 2056.5,-559.65 2046.5,-556.15 2046.5,-563.15"/>
</g>
<!-- c45 -->
<g id="node40" class="node">
<title>c45</title>
<polygon fill="none" stroke="black" points="697.34,-342.4 697.34,-391.4 782.84,-391.4 782.84,-342.4 697.34,-342.4"/>
<text text-anchor="middle" x="710.22" y="-374.1" font-family="Times,serif" font-size="14.00">A</text>
<polyline fill="none" stroke="black" points="697.34,-366.9 723.09,-366.9"/>
<text text-anchor="middle" x="710.22" y="-349.6" font-family="Times,serif" font-size="14.00">B</text>
<polyline fill="none" stroke="black" points="723.09,-342.4 723.09,-391.4"/>
<text text-anchor="middle" x="740.09" y="-370.1" font-family="Times,serif" font-size="14.00">$3</text>
<text text-anchor="middle" x="740.09" y="-353.6" font-family="Times,serif" font-size="14.00">$or</text>
<polyline fill="none" stroke="black" points="757.09,-342.4 757.09,-391.4"/>
<text text-anchor="middle" x="769.97" y="-362.1" font-family="Times,serif" font-size="14.00">Y</text>
</g>
<!-- n22&#45;&gt;c45 -->
<g id="edge74" class="edge">
<title>n22:e&#45;&gt;c45:w</title>
<path fill="none" stroke="black" stroke-width="3" d="M107.84,-313.9C125.01,-313.9 127.25,-323.49 143.84,-327.9 213.33,-346.38 231.93,-351.9 303.84,-351.9 303.84,-351.9 303.84,-351.9 517.72,-351.9 593.66,-351.9 615.41,-354.39 686.06,-354.63"/>
<polygon fill="black" stroke="black" stroke-width="3" points="682.79,-358.13 692.8,-354.65 682.81,-351.13 682.79,-358.13"/>
</g>
<!-- c46 -->
<g id="node42" class="node">
<title>c46</title>
<polygon fill="none" stroke="black" points="818.84,-308.4 818.84,-357.4 904.34,-357.4 904.34,-308.4 818.84,-308.4"/>
<text text-anchor="middle" x="831.72" y="-340.1" font-family="Times,serif" font-size="14.00">A</text>
<polyline fill="none" stroke="black" points="818.84,-332.9 844.59,-332.9"/>
<text text-anchor="middle" x="831.72" y="-315.6" font-family="Times,serif" font-size="14.00">B</text>
<polyline fill="none" stroke="black" points="844.59,-308.4 844.59,-357.4"/>
<text text-anchor="middle" x="861.59" y="-336.1" font-family="Times,serif" font-size="14.00">$4</text>
<text text-anchor="middle" x="861.59" y="-319.6" font-family="Times,serif" font-size="14.00">$or</text>
<polyline fill="none" stroke="black" points="878.59,-308.4 878.59,-357.4"/>
<text text-anchor="middle" x="891.47" y="-328.1" font-family="Times,serif" font-size="14.00">Y</text>
</g>
<!-- n22&#45;&gt;c46 -->
<g id="edge75" class="edge">
<title>n22:e&#45;&gt;c46:w</title>
<path fill="none" stroke="black" stroke-width="3" d="M107.84,-313.9C194.95,-313.9 216.73,-313.9 303.84,-313.9 303.84,-313.9 303.84,-313.9 631.09,-313.9 710.68,-313.9 733.26,-320.04 807.5,-320.61"/>
<polygon fill="black" stroke="black" stroke-width="3" points="804.29,-324.1 814.3,-320.64 804.31,-317.1 804.29,-324.1"/>
</g>
<!-- c47 -->
<g id="node44" class="node">
<title>c47</title>
<polygon fill="none" stroke="black" points="1671.54,-185.4 1671.54,-234.4 1757.04,-234.4 1757.04,-185.4 1671.54,-185.4"/>
<text text-anchor="middle" x="1684.42" y="-217.1" font-family="Times,serif" font-size="14.00">A</text>
<polyline fill="none" stroke="black" points="1671.54,-209.9 1697.29,-209.9"/>
<text text-anchor="middle" x="1684.42" y="-192.6" font-family="Times,serif" font-size="14.00">B</text>
<polyline fill="none" stroke="black" points="1697.29,-185.4 1697.29,-234.4"/>
<text text-anchor="middle" x="1714.29" y="-213.1" font-family="Times,serif" font-size="14.00">$7</text>
<text text-anchor="middle" x="1714.29" y="-196.6" font-family="Times,serif" font-size="14.00">$or</text>
<polyline fill="none" stroke="black" points="1731.29,-185.4 1731.29,-234.4"/>
<text text-anchor="middle" x="1744.17" y="-205.1" font-family="Times,serif" font-size="14.00">Y</text>
</g>
<!-- n22&#45;&gt;c47 -->
<g id="edge76" class="edge">
<title>n22:e&#45;&gt;c47:w</title>
<path fill="none" stroke="black" stroke-width="3" d="M107.84,-313.9C151.75,-313.9 110.87,-250.9 143.84,-221.9 198.88,-173.49 230.54,-181.9 303.84,-181.9 303.84,-181.9 303.84,-181.9 1475.54,-181.9 1559.01,-181.9 1582.11,-196.27 1660.15,-197.56"/>
<polygon fill="black" stroke="black" stroke-width="3" points="1656.97,-201.03 1667,-197.62 1657.03,-194.04 1656.97,-201.03"/>
</g>
<!-- c48 -->
<g id="node45" class="node">
<title>c48</title>
<polygon fill="none" stroke="black" points="1793.04,-173.4 1793.04,-222.4 1878.54,-222.4 1878.54,-173.4 1793.04,-173.4"/>
<text text-anchor="middle" x="1805.92" y="-205.1" font-family="Times,serif" font-size="14.00">A</text>
<polyline fill="none" stroke="black" points="1793.04,-197.9 1818.79,-197.9"/>
<text text-anchor="middle" x="1805.92" y="-180.6" font-family="Times,serif" font-size="14.00">B</text>
<polyline fill="none" stroke="black" points="1818.79,-173.4 1818.79,-222.4"/>
<text text-anchor="middle" x="1835.79" y="-201.1" font-family="Times,serif" font-size="14.00">$8</text>
<text text-anchor="middle" x="1835.79" y="-184.6" font-family="Times,serif" font-size="14.00">$or</text>
<polyline fill="none" stroke="black" points="1852.79,-173.4 1852.79,-222.4"/>
<text text-anchor="middle" x="1865.67" y="-193.1" font-family="Times,serif" font-size="14.00">Y</text>
</g>
<!-- n22&#45;&gt;c48 -->
<g id="edge77" class="edge">
<title>n22:e&#45;&gt;c48:w</title>
<path fill="none" stroke="black" stroke-width="3" d="M107.84,-313.9C170.37,-313.9 98.55,-221.01 143.84,-177.9 196.5,-127.78 231.14,-143.9 303.84,-143.9 303.84,-143.9 303.84,-143.9 1589.67,-143.9 1665.4,-143.9 1683.24,-158.88 1757.04,-175.9 1768.65,-178.58 1773.61,-182.45 1781.63,-184.41"/>
<polygon fill="black" stroke="black" stroke-width="3" points="1778.21,-187.56 1788.53,-185.16 1778.97,-180.6 1778.21,-187.56"/>
</g>
<!-- c50 -->
<g id="node49" class="node">
<title>c50</title>
<polygon fill="none" stroke="black" points="2062.54,-133.4 2062.54,-182.4 2155.54,-182.4 2155.54,-133.4 2062.54,-133.4"/>
<text text-anchor="middle" x="2075.42" y="-165.1" font-family="Times,serif" font-size="14.00">A</text>
<polyline fill="none" stroke="black" points="2062.54,-157.9 2088.29,-157.9"/>
<text text-anchor="middle" x="2075.42" y="-140.6" font-family="Times,serif" font-size="14.00">B</text>
<polyline fill="none" stroke="black" points="2088.29,-133.4 2088.29,-182.4"/>
<text text-anchor="middle" x="2109.04" y="-161.1" font-family="Times,serif" font-size="14.00">$19</text>
<text text-anchor="middle" x="2109.04" y="-144.6" font-family="Times,serif" font-size="14.00">$sub</text>
<polyline fill="none" stroke="black" points="2129.79,-133.4 2129.79,-182.4"/>
<text text-anchor="middle" x="2142.67" y="-153.1" font-family="Times,serif" font-size="14.00">Y</text>
</g>
<!-- n22&#45;&gt;c50 -->
<g id="edge78" class="edge">
<title>n22:e&#45;&gt;c50:w</title>
<path fill="none" stroke="black" stroke-width="3" d="M107.84,-313.9C187.68,-313.9 87.26,-194.24 143.84,-137.9 195.23,-86.74 231.32,-105.9 303.84,-105.9 303.84,-105.9 303.84,-105.9 1836.79,-105.9 1934.37,-105.9 1958.32,-142.68 2050.29,-145.48"/>
<polygon fill="black" stroke="black" stroke-width="3" points="2046.95,-148.93 2057,-145.59 2047.06,-141.94 2046.95,-148.93"/>
</g>
<!-- c51 -->
<g id="node51" class="node">
<title>c51</title>
<polygon fill="none" stroke="black" points="2502.89,-84.4 2502.89,-133.4 2595.89,-133.4 2595.89,-84.4 2502.89,-84.4"/>
<text text-anchor="middle" x="2515.77" y="-116.1" font-family="Times,serif" font-size="14.00">A</text>
<polyline fill="none" stroke="black" points="2502.89,-108.9 2528.64,-108.9"/>
<text text-anchor="middle" x="2515.77" y="-91.6" font-family="Times,serif" font-size="14.00">B</text>
<polyline fill="none" stroke="black" points="2528.64,-84.4 2528.64,-133.4"/>
<text text-anchor="middle" x="2549.39" y="-112.1" font-family="Times,serif" font-size="14.00">$20</text>
<text text-anchor="middle" x="2549.39" y="-95.6" font-family="Times,serif" font-size="14.00">$sub</text>
<polyline fill="none" stroke="black" points="2570.14,-84.4 2570.14,-133.4"/>
<text text-anchor="middle" x="2583.02" y="-104.1" font-family="Times,serif" font-size="14.00">Y</text>
</g>
<!-- n22&#45;&gt;c51 -->
<g id="edge79" class="edge">
<title>n22:e&#45;&gt;c51:w</title>
<path fill="none" stroke="black" stroke-width="3" d="M107.84,-313.9C156.5,-313.9 109.78,-132.66 143.84,-97.9 194.48,-46.23 231.49,-67.9 303.84,-67.9 303.84,-67.9 303.84,-67.9 2323.34,-67.9 2387.7,-67.9 2403.79,-74.24 2466.89,-86.9 2478.57,-89.25 2483.5,-93.26 2491.5,-95.33"/>
<polygon fill="black" stroke="black" stroke-width="3" points="2488.04,-98.45 2498.38,-96.13 2488.85,-91.5 2488.04,-98.45"/>
</g>
<!-- n23 -->
<g id="node2" class="node">
<title>n23</title>
<polygon fill="none" stroke="black" points="5538.66,-727.45 5538.66,-742.36 5504.15,-752.9 5455.35,-752.9 5420.84,-742.36 5420.84,-727.45 5455.35,-716.9 5504.15,-716.9 5538.66,-727.45"/>
<text text-anchor="middle" x="5479.75" y="-729.85" font-family="Times,serif" font-size="14.00">output_data</text>
</g>
<!-- n24 -->
<g id="node3" class="node">
<title>n24</title>
<polygon fill="none" stroke="black" points="1969.79,-342.9 1914.54,-324.9 1969.79,-306.9 2025.04,-324.9 1969.79,-342.9"/>
<text text-anchor="middle" x="1969.79" y="-319.85" font-family="Times,serif" font-size="14.00">temp_1</text>
</g>
<!-- c30 -->
<g id="node6" class="node">
<title>c30</title>
<polygon fill="none" stroke="black" points="2862.39,-475.4 2862.39,-524.4 2956.14,-524.4 2956.14,-475.4 2862.39,-475.4"/>
<text text-anchor="middle" x="2875.27" y="-507.1" font-family="Times,serif" font-size="14.00">A</text>
<polyline fill="none" stroke="black" points="2862.39,-499.9 2888.14,-499.9"/>
<text text-anchor="middle" x="2875.27" y="-482.6" font-family="Times,serif" font-size="14.00">B</text>
<polyline fill="none" stroke="black" points="2888.14,-475.4 2888.14,-524.4"/>
<text text-anchor="middle" x="2909.27" y="-503.1" font-family="Times,serif" font-size="14.00">$10</text>
<text text-anchor="middle" x="2909.27" y="-486.6" font-family="Times,serif" font-size="14.00">$add</text>
<polyline fill="none" stroke="black" points="2930.39,-475.4 2930.39,-524.4"/>
<text text-anchor="middle" x="2943.27" y="-495.1" font-family="Times,serif" font-size="14.00">Y</text>
</g>
<!-- n24&#45;&gt;c30 -->
<g id="edge85" class="edge">
<title>n24:e&#45;&gt;c30:w</title>
<path fill="none" stroke="black" stroke-width="3" d="M2025.04,-324.9C2071.03,-324.9 2028.56,-389.35 2061.04,-421.9 2120.28,-481.26 2153.94,-487.9 2237.79,-487.9 2237.79,-487.9 2237.79,-487.9 2677.64,-487.9 2755.48,-487.9 2777.68,-487.68 2850.3,-487.65"/>
<polygon fill="black" stroke="black" stroke-width="3" points="2846.85,-491.16 2856.85,-487.65 2846.85,-484.16 2846.85,-491.16"/>
</g>
<!-- c32 -->
<g id="node10" class="node">
<title>c32</title>
<polygon fill="none" stroke="black" points="4287.84,-236.4 4287.84,-285.4 4381.59,-285.4 4381.59,-236.4 4287.84,-236.4"/>
<text text-anchor="middle" x="4300.72" y="-268.1" font-family="Times,serif" font-size="14.00">A</text>
<polyline fill="none" stroke="black" points="4287.84,-260.9 4313.59,-260.9"/>
<text text-anchor="middle" x="4300.72" y="-243.6" font-family="Times,serif" font-size="14.00">B</text>
<polyline fill="none" stroke="black" points="4313.59,-236.4 4313.59,-285.4"/>
<text text-anchor="middle" x="4334.72" y="-264.1" font-family="Times,serif" font-size="14.00">$17</text>
<text text-anchor="middle" x="4334.72" y="-247.6" font-family="Times,serif" font-size="14.00">$add</text>
<polyline fill="none" stroke="black" points="4355.84,-236.4 4355.84,-285.4"/>
<text text-anchor="middle" x="4368.72" y="-256.1" font-family="Times,serif" font-size="14.00">Y</text>
</g>
<!-- n24&#45;&gt;c32 -->
<g id="edge86" class="edge">
<title>n24:e&#45;&gt;c32:w</title>
<path fill="none" stroke="black" stroke-width="3" d="M2025.04,-324.9C2042.55,-324.9 2044.44,-314.46 2061.04,-308.9 2137.51,-283.3 2157.15,-267.9 2237.79,-267.9 2237.79,-267.9 2237.79,-267.9 3618.64,-267.9 3872.44,-267.9 3935.58,-252.35 4189.34,-247.9 4217.12,-247.42 4224.07,-247.61 4251.84,-247.9 4263.22,-248.02 4268.53,-248.35 4276.39,-248.53"/>
<polygon fill="black" stroke="black" stroke-width="3" points="4273.26,-252 4283.3,-248.6 4273.34,-245 4273.26,-252"/>
</g>
<!-- x10 -->
<g id="node26" class="node">
<title>x10</title>
<path fill="none" stroke="black" d="M2089.79,-375.9C2089.79,-375.9 2128.29,-375.9 2128.29,-375.9 2134.29,-375.9 2140.29,-381.9 2140.29,-387.9 2140.29,-387.9 2140.29,-399.9 2140.29,-399.9 2140.29,-405.9 2134.29,-411.9 2128.29,-411.9 2128.29,-411.9 2089.79,-411.9 2089.79,-411.9 2083.79,-411.9 2077.79,-405.9 2077.79,-399.9 2077.79,-399.9 2077.79,-387.9 2077.79,-387.9 2077.79,-381.9 2083.79,-375.9 2089.79,-375.9"/>
<text text-anchor="middle" x="2109.04" y="-389.1" font-family="Times,serif" font-size="14.00">3:0 &#45; 3:0</text>
</g>
<!-- n24&#45;&gt;x10 -->
<g id="edge91" class="edge">
<title>n24:e&#45;&gt;x10:w</title>
<path fill="none" stroke="black" stroke-width="3" d="M2025.04,-324.9C2058.96,-324.9 2043.38,-378.87 2065.7,-391.52"/>
<polygon fill="black" stroke="black" stroke-width="3" points="2061.84,-394.2 2072.37,-393.11 2063.45,-387.39 2061.84,-394.2"/>
</g>
<!-- c40 -->
<g id="node27" class="node">
<title>c40</title>
<polygon fill="none" stroke="black" points="3783.39,-306.4 3783.39,-355.4 3877.14,-355.4 3877.14,-306.4 3783.39,-306.4"/>
<text text-anchor="middle" x="3796.27" y="-338.1" font-family="Times,serif" font-size="14.00">A</text>
<polyline fill="none" stroke="black" points="3783.39,-330.9 3809.14,-330.9"/>
<text text-anchor="middle" x="3796.27" y="-313.6" font-family="Times,serif" font-size="14.00">B</text>
<polyline fill="none" stroke="black" points="3809.14,-306.4 3809.14,-355.4"/>
<text text-anchor="middle" x="3830.27" y="-334.1" font-family="Times,serif" font-size="14.00">$69</text>
<text text-anchor="middle" x="3830.27" y="-317.6" font-family="Times,serif" font-size="14.00">$and</text>
<polyline fill="none" stroke="black" points="3851.39,-306.4 3851.39,-355.4"/>
<text text-anchor="middle" x="3864.27" y="-326.1" font-family="Times,serif" font-size="14.00">Y</text>
</g>
<!-- n24&#45;&gt;c40 -->
<g id="edge87" class="edge">
<title>n24:e&#45;&gt;c40:w</title>
<path fill="none" stroke="black" stroke-width="3" d="M2025.04,-324.9C2030.98,-324.9 2231.86,-305.9 2237.79,-305.9 2237.79,-305.9 2237.79,-305.9 3618.64,-305.9 3688.21,-305.9 3707.91,-317.34 3772.22,-318.55"/>
<polygon fill="black" stroke="black" stroke-width="3" points="3768.82,-322.02 3778.85,-318.61 3768.88,-315.02 3768.82,-322.02"/>
</g>
<!-- n24&#45;&gt;c44 -->
<g id="edge88" class="edge">
<title>n24:e&#45;&gt;c44:w</title>
<path fill="none" stroke="black" stroke-width="3" d="M2025.04,-324.9C2079.12,-324.9 2013.49,-548.98 2050.73,-580.49"/>
<polygon fill="black" stroke="black" stroke-width="3" points="2046.17,-582.58 2056.76,-582.63 2048.51,-575.99 2046.17,-582.58"/>
</g>
<!-- c49 -->
<g id="node46" class="node">
<title>c49</title>
<polygon fill="none" stroke="black" points="3457.39,-334.4 3457.39,-383.4 3550.39,-383.4 3550.39,-334.4 3457.39,-334.4"/>
<text text-anchor="middle" x="3470.27" y="-366.1" font-family="Times,serif" font-size="14.00">A</text>
<polyline fill="none" stroke="black" points="3457.39,-358.9 3483.14,-358.9"/>
<text text-anchor="middle" x="3470.27" y="-341.6" font-family="Times,serif" font-size="14.00">B</text>
<polyline fill="none" stroke="black" points="3483.14,-334.4 3483.14,-383.4"/>
<text text-anchor="middle" x="3503.89" y="-362.1" font-family="Times,serif" font-size="14.00">$15</text>
<text text-anchor="middle" x="3503.89" y="-345.6" font-family="Times,serif" font-size="14.00">$sub</text>
<polyline fill="none" stroke="black" points="3524.64,-334.4 3524.64,-383.4"/>
<text text-anchor="middle" x="3537.52" y="-354.1" font-family="Times,serif" font-size="14.00">Y</text>
</g>
<!-- n24&#45;&gt;c49 -->
<g id="edge89" class="edge">
<title>n24:e&#45;&gt;c49:w</title>
<path fill="none" stroke="black" stroke-width="3" d="M2025.04,-324.9C2119.97,-324.9 2142.86,-343.9 2237.79,-343.9 2237.79,-343.9 2237.79,-343.9 3292.64,-343.9 3362.01,-343.9 3382.08,-346.37 3446.25,-346.63"/>
<polygon fill="black" stroke="black" stroke-width="3" points="3442.84,-350.12 3452.85,-346.64 3442.86,-343.12 3442.84,-350.12"/>
</g>
<!-- n24&#45;&gt;c50 -->
<g id="edge90" class="edge">
<title>n24:e&#45;&gt;c50:w</title>
<path fill="none" stroke="black" stroke-width="3" d="M2025.04,-324.9C2091.29,-324.9 2003.3,-188.89 2050.26,-171.89"/>
<polygon fill="black" stroke="black" stroke-width="3" points="2047.7,-175.83 2057.05,-170.84 2046.64,-168.91 2047.7,-175.83"/>
</g>
<!-- n25 -->
<g id="node4" class="node">
<title>n25</title>
<polygon fill="none" stroke="black" points="4571.34,-313.9 4516.09,-295.9 4571.34,-277.9 4626.59,-295.9 4571.34,-313.9"/>
<text text-anchor="middle" x="4571.34" y="-290.85" font-family="Times,serif" font-size="14.00">temp_2</text>
</g>
<!-- c33 -->
<g id="node13" class="node">
<title>c33</title>
<polygon fill="none" stroke="black" points="4662.59,-362.4 4662.59,-411.4 4756.34,-411.4 4756.34,-362.4 4662.59,-362.4"/>
<text text-anchor="middle" x="4675.47" y="-394.1" font-family="Times,serif" font-size="14.00">A</text>
<polyline fill="none" stroke="black" points="4662.59,-386.9 4688.34,-386.9"/>
<text text-anchor="middle" x="4675.47" y="-369.6" font-family="Times,serif" font-size="14.00">B</text>
<polyline fill="none" stroke="black" points="4688.34,-362.4 4688.34,-411.4"/>
<text text-anchor="middle" x="4709.47" y="-390.1" font-family="Times,serif" font-size="14.00">$21</text>
<text text-anchor="middle" x="4709.47" y="-373.6" font-family="Times,serif" font-size="14.00">$add</text>
<polyline fill="none" stroke="black" points="4730.59,-362.4 4730.59,-411.4"/>
<text text-anchor="middle" x="4743.47" y="-382.1" font-family="Times,serif" font-size="14.00">Y</text>
</g>
<!-- n25&#45;&gt;c33 -->
<g id="edge94" class="edge">
<title>n25:e&#45;&gt;c33:w</title>
<path fill="none" stroke="black" stroke-width="3" d="M4626.59,-295.9C4660.42,-295.9 4632.87,-356.74 4651.83,-371.47"/>
<polygon fill="black" stroke="black" stroke-width="3" points="4647.66,-373.89 4658.24,-373.37 4649.64,-367.17 4647.66,-373.89"/>
</g>
<!-- c34 -->
<g id="node15" class="node">
<title>c34</title>
<polygon fill="none" stroke="black" points="4792.34,-350.4 4792.34,-399.4 4886.09,-399.4 4886.09,-350.4 4792.34,-350.4"/>
<text text-anchor="middle" x="4805.22" y="-382.1" font-family="Times,serif" font-size="14.00">A</text>
<polyline fill="none" stroke="black" points="4792.34,-374.9 4818.09,-374.9"/>
<text text-anchor="middle" x="4805.22" y="-357.6" font-family="Times,serif" font-size="14.00">B</text>
<polyline fill="none" stroke="black" points="4818.09,-350.4 4818.09,-399.4"/>
<text text-anchor="middle" x="4839.22" y="-378.1" font-family="Times,serif" font-size="14.00">$22</text>
<text text-anchor="middle" x="4839.22" y="-361.6" font-family="Times,serif" font-size="14.00">$add</text>
<polyline fill="none" stroke="black" points="4860.34,-350.4 4860.34,-399.4"/>
<text text-anchor="middle" x="4873.22" y="-370.1" font-family="Times,serif" font-size="14.00">Y</text>
</g>
<!-- n25&#45;&gt;c34 -->
<g id="edge95" class="edge">
<title>n25:e&#45;&gt;c34:w</title>
<path fill="none" stroke="black" stroke-width="3" d="M4626.59,-295.9C4628.71,-295.9 4745.62,-344.31 4781.81,-358.68"/>
<polygon fill="black" stroke="black" stroke-width="3" points="4777.5,-360.79 4788.09,-361.05 4779.97,-354.24 4777.5,-360.79"/>
</g>
<!-- x26 -->
<g id="node54" class="node">
<title>x26</title>
<path fill="none" stroke="black" d="M4690.22,-230.9C4690.22,-230.9 4728.72,-230.9 4728.72,-230.9 4734.72,-230.9 4740.72,-236.9 4740.72,-242.9 4740.72,-242.9 4740.72,-254.9 4740.72,-254.9 4740.72,-260.9 4734.72,-266.9 4728.72,-266.9 4728.72,-266.9 4690.22,-266.9 4690.22,-266.9 4684.22,-266.9 4678.22,-260.9 4678.22,-254.9 4678.22,-254.9 4678.22,-242.9 4678.22,-242.9 4678.22,-236.9 4684.22,-230.9 4690.22,-230.9"/>
<text text-anchor="middle" x="4709.47" y="-244.1" font-family="Times,serif" font-size="14.00">7:5 &#45; 2:0</text>
</g>
<!-- n25&#45;&gt;x26 -->
<g id="edge96" class="edge">
<title>n25:e&#45;&gt;x26:w</title>
<path fill="none" stroke="black" stroke-width="3" d="M4626.59,-295.9C4652.91,-295.9 4648.76,-261.38 4666.52,-251.67"/>
<polygon fill="black" stroke="black" stroke-width="3" points="4663.86,-255.89 4672.8,-250.19 4662.26,-249.07 4663.86,-255.89"/>
</g>
<!-- n26 -->
<g id="node5" class="node">
<title>n26</title>
<polygon fill="none" stroke="black" points="4977.34,-734.9 4922.09,-716.9 4977.34,-698.9 5032.59,-716.9 4977.34,-734.9"/>
<text text-anchor="middle" x="4977.34" y="-711.85" font-family="Times,serif" font-size="14.00">temp_4</text>
</g>
<!-- x15 -->
<g id="node34" class="node">
<title>x15</title>
<path fill="none" stroke="black" d="M5087.34,-698.9C5087.34,-698.9 5125.84,-698.9 5125.84,-698.9 5131.84,-698.9 5137.84,-704.9 5137.84,-710.9 5137.84,-710.9 5137.84,-722.9 5137.84,-722.9 5137.84,-728.9 5131.84,-734.9 5125.84,-734.9 5125.84,-734.9 5087.34,-734.9 5087.34,-734.9 5081.34,-734.9 5075.34,-728.9 5075.34,-722.9 5075.34,-722.9 5075.34,-710.9 5075.34,-710.9 5075.34,-704.9 5081.34,-698.9 5087.34,-698.9"/>
<text text-anchor="middle" x="5106.59" y="-712.1" font-family="Times,serif" font-size="14.00">4:0 &#45; 4:0</text>
</g>
<!-- n26&#45;&gt;x15 -->
<g id="edge98" class="edge">
<title>n26:e&#45;&gt;x15:w</title>
<path fill="none" stroke="black" stroke-width="3" d="M5032.59,-716.9C5046.66,-716.9 5052.73,-717.05 5062.92,-717.12"/>
<polygon fill="black" stroke="black" stroke-width="3" points="5059.79,-720.61 5069.8,-717.14 5059.81,-713.61 5059.79,-720.61"/>
</g>
<!-- x36 -->
<g id="node64" class="node">
<title>x36</title>
<path fill="none" stroke="black" d="M5080.59,-753.9C5080.59,-753.9 5132.59,-753.9 5132.59,-753.9 5138.59,-753.9 5144.59,-759.9 5144.59,-765.9 5144.59,-765.9 5144.59,-777.9 5144.59,-777.9 5144.59,-783.9 5138.59,-789.9 5132.59,-789.9 5132.59,-789.9 5080.59,-789.9 5080.59,-789.9 5074.59,-789.9 5068.59,-783.9 5068.59,-777.9 5068.59,-777.9 5068.59,-765.9 5068.59,-765.9 5068.59,-759.9 5074.59,-753.9 5080.59,-753.9"/>
<text text-anchor="middle" x="5106.59" y="-767.1" font-family="Times,serif" font-size="14.00">18:5 &#45; 13:0</text>
</g>
<!-- n26&#45;&gt;x36 -->
<g id="edge99" class="edge">
<title>n26:e&#45;&gt;x36:w</title>
<path fill="none" stroke="black" stroke-width="3" d="M5032.59,-716.9C5057.09,-716.9 5045.31,-755.51 5057.9,-768.18"/>
<polygon fill="black" stroke="black" stroke-width="3" points="5053.74,-770.37 5064.34,-770.57 5056.18,-763.81 5053.74,-770.37"/>
</g>
<!-- c31 -->
<g id="node8" class="node">
<title>c31</title>
<polygon fill="none" stroke="black" points="2998.64,-422.4 2998.64,-471.4 3092.39,-471.4 3092.39,-422.4 2998.64,-422.4"/>
<text text-anchor="middle" x="3011.52" y="-454.1" font-family="Times,serif" font-size="14.00">A</text>
<polyline fill="none" stroke="black" points="2998.64,-446.9 3024.39,-446.9"/>
<text text-anchor="middle" x="3011.52" y="-429.6" font-family="Times,serif" font-size="14.00">B</text>
<polyline fill="none" stroke="black" points="3024.39,-422.4 3024.39,-471.4"/>
<text text-anchor="middle" x="3045.52" y="-450.1" font-family="Times,serif" font-size="14.00">$13</text>
<text text-anchor="middle" x="3045.52" y="-433.6" font-family="Times,serif" font-size="14.00">$add</text>
<polyline fill="none" stroke="black" points="3066.64,-422.4 3066.64,-471.4"/>
<text text-anchor="middle" x="3079.52" y="-442.1" font-family="Times,serif" font-size="14.00">Y</text>
</g>
<!-- c30&#45;&gt;c31 -->
<g id="edge32" class="edge">
<title>c30:e&#45;&gt;c31:w</title>
<path fill="none" stroke="black" stroke-width="3" d="M2957.14,-500.15C2978.41,-500.15 2975.26,-472.56 2987.76,-462.65"/>
<polygon fill="black" stroke="black" stroke-width="3" points="2985.87,-466.93 2994.32,-460.54 2983.73,-460.27 2985.87,-466.93"/>
</g>
<!-- x0 -->
<g id="node7" class="node">
<title>x0</title>
<path fill="none" stroke="black" d="M2769.39,-516.4C2769.39,-516.4 2807.89,-516.4 2807.89,-516.4 2813.89,-516.4 2819.89,-522.4 2819.89,-528.4 2819.89,-528.4 2819.89,-553.4 2819.89,-553.4 2819.89,-559.4 2813.89,-565.4 2807.89,-565.4 2807.89,-565.4 2769.39,-565.4 2769.39,-565.4 2763.39,-565.4 2757.39,-559.4 2757.39,-553.4 2757.39,-553.4 2757.39,-528.4 2757.39,-528.4 2757.39,-522.4 2763.39,-516.4 2769.39,-516.4"/>
<text text-anchor="middle" x="2788.64" y="-548.1" font-family="Times,serif" font-size="14.00">9:8 &#45; 9:8</text>
<polyline fill="none" stroke="black" points="2757.39,-540.9 2819.89,-540.9"/>
<text text-anchor="middle" x="2788.64" y="-523.6" font-family="Times,serif" font-size="14.00">7:0 &#45; 7:0</text>
</g>
<!-- x0&#45;&gt;c30 -->
<g id="edge1" class="edge">
<title>x0:e&#45;&gt;c30:w</title>
<path fill="none" stroke="black" stroke-width="3" d="M2832.08,-536.91C2839.17,-531.35 2842.29,-521.37 2849.49,-515.93"/>
<polygon fill="none" stroke="black" stroke-width="3" points="2833.86,-536.32 2829.41,-541.99 2822.46,-540.06 2826.92,-534.39 2833.86,-536.32"/>
<polygon fill="none" stroke="black" stroke-width="3" points="2847.38,-516.6 2851.89,-510.98 2858.81,-512.97 2854.31,-518.6 2847.38,-516.6"/>
</g>
<!-- c31&#45;&gt;c43 -->
<g id="edge59" class="edge">
<title>c31:e&#45;&gt;c43:w</title>
<path fill="none" stroke="black" stroke-width="3" d="M3092.39,-447.15C3110.93,-447.15 3108.01,-423.02 3117.83,-413.22"/>
<polygon fill="black" stroke="black" stroke-width="3" points="3116.08,-417.64 3124.15,-410.79 3113.56,-411.11 3116.08,-417.64"/>
</g>
<!-- x1 -->
<g id="node9" class="node">
<title>x1</title>
<path fill="none" stroke="black" d="M2655.14,-410.4C2655.14,-410.4 2698.14,-410.4 2698.14,-410.4 2704.14,-410.4 2710.14,-416.4 2710.14,-422.4 2710.14,-422.4 2710.14,-447.4 2710.14,-447.4 2710.14,-453.4 2704.14,-459.4 2698.14,-459.4 2698.14,-459.4 2655.14,-459.4 2655.14,-459.4 2649.14,-459.4 2643.14,-453.4 2643.14,-447.4 2643.14,-447.4 2643.14,-422.4 2643.14,-422.4 2643.14,-416.4 2649.14,-410.4 2655.14,-410.4"/>
<text text-anchor="middle" x="2676.64" y="-442.1" font-family="Times,serif" font-size="14.00">1 &#45;&gt; 16:4</text>
<polyline fill="none" stroke="black" points="2643.14,-434.9 2710.14,-434.9"/>
<text text-anchor="middle" x="2676.64" y="-417.6" font-family="Times,serif" font-size="14.00">3:0 &#45; 3:0</text>
</g>
<!-- x1&#45;&gt;c31 -->
<g id="edge2" class="edge">
<title>x1:e&#45;&gt;c31:w</title>
<path fill="none" stroke="black" stroke-width="3" d="M2723.92,-434.9C2836.98,-434.89 2872.66,-434.67 2985.61,-434.65"/>
<polygon fill="none" stroke="black" stroke-width="3" points="2725.85,-434.9 2719.85,-438.9 2713.85,-434.9 2719.85,-430.9 2725.85,-434.9"/>
<polygon fill="none" stroke="black" stroke-width="3" points="2983.94,-434.65 2989.94,-430.65 2995.94,-434.65 2989.94,-438.65 2983.94,-434.65"/>
</g>
<!-- x3 -->
<g id="node12" class="node">
<title>x3</title>
<path fill="none" stroke="black" d="M4429.59,-236.4C4429.59,-236.4 4468.09,-236.4 4468.09,-236.4 4474.09,-236.4 4480.09,-242.4 4480.09,-248.4 4480.09,-248.4 4480.09,-273.4 4480.09,-273.4 4480.09,-279.4 4474.09,-285.4 4468.09,-285.4 4468.09,-285.4 4429.59,-285.4 4429.59,-285.4 4423.59,-285.4 4417.59,-279.4 4417.59,-273.4 4417.59,-273.4 4417.59,-248.4 4417.59,-248.4 4417.59,-242.4 4423.59,-236.4 4429.59,-236.4"/>
<text text-anchor="middle" x="4448.84" y="-268.1" font-family="Times,serif" font-size="14.00">7:5 &#45; 7:5</text>
<polyline fill="none" stroke="black" points="4417.59,-260.9 4480.09,-260.9"/>
<text text-anchor="middle" x="4448.84" y="-243.6" font-family="Times,serif" font-size="14.00">4:0 &#45; 4:0</text>
</g>
<!-- c32&#45;&gt;x3 -->
<g id="edge4" class="edge">
<title>c32:e&#45;&gt;x3:w</title>
<path fill="none" stroke="black" stroke-width="3" d="M4394.31,-261.09C4397.91,-261.05 4401.04,-261.01 4404.62,-260.97"/>
<polygon fill="none" stroke="black" stroke-width="3" points="4396.3,-261.08 4390.32,-265.11 4384.3,-261.14 4390.28,-257.11 4396.3,-261.08"/>
<polygon fill="none" stroke="black" stroke-width="3" points="4402.89,-260.98 4408.87,-256.95 4414.89,-260.92 4408.91,-264.95 4402.89,-260.98"/>
</g>
<!-- x2 -->
<g id="node11" class="node">
<title>x2</title>
<path fill="none" stroke="black" d="M4201.34,-257.15C4201.34,-257.15 4239.84,-257.15 4239.84,-257.15 4245.84,-257.15 4251.84,-263.15 4251.84,-269.15 4251.84,-269.15 4251.84,-318.65 4251.84,-318.65 4251.84,-324.65 4245.84,-330.65 4239.84,-330.65 4239.84,-330.65 4201.34,-330.65 4201.34,-330.65 4195.34,-330.65 4189.34,-324.65 4189.34,-318.65 4189.34,-318.65 4189.34,-269.15 4189.34,-269.15 4189.34,-263.15 4195.34,-257.15 4201.34,-257.15"/>
<text text-anchor="middle" x="4220.59" y="-313.35" font-family="Times,serif" font-size="14.00">0 &#45;&gt; 7:5</text>
<polyline fill="none" stroke="black" points="4189.34,-306.15 4251.84,-306.15"/>
<text text-anchor="middle" x="4220.59" y="-288.85" font-family="Times,serif" font-size="14.00">4:4 &#45; 4:4</text>
<polyline fill="none" stroke="black" points="4189.34,-281.65 4251.84,-281.65"/>
<text text-anchor="middle" x="4220.59" y="-264.35" font-family="Times,serif" font-size="14.00">3:0 &#45; 3:0</text>
</g>
<!-- x2&#45;&gt;c32 -->
<g id="edge3" class="edge">
<title>x2:e&#45;&gt;c32:w</title>
<path fill="none" stroke="black" stroke-width="3" d="M4263.68,-289.9C4268.22,-286.32 4271.2,-281.09 4275.66,-277.43"/>
<polygon fill="none" stroke="black" stroke-width="3" points="4265.77,-289.2 4261.37,-294.91 4254.4,-293.04 4258.81,-287.33 4265.77,-289.2"/>
<polygon fill="none" stroke="black" stroke-width="3" points="4273.97,-278.02 4278.3,-272.26 4285.29,-274.05 4280.95,-279.81 4273.97,-278.02"/>
</g>
<!-- x3&#45;&gt;n25 -->
<g id="edge93" class="edge">
<title>x3:e&#45;&gt;n25:w</title>
<path fill="none" stroke="black" stroke-width="3" d="M4480.09,-273.15C4494.29,-273.15 4496.79,-285.95 4505.14,-292.35"/>
<polygon fill="black" stroke="black" stroke-width="3" points="4501.18,-294.74 4511.77,-294.5 4503.34,-288.08 4501.18,-294.74"/>
</g>
<!-- n3 -->
<g id="node73" class="node">
<title>n3</title>
<ellipse fill="black" stroke="black" cx="4977.34" cy="-224.9" rx="1.8" ry="1.8"/>
</g>
<!-- x3&#45;&gt;n3 -->
<g id="edge101" class="edge">
<title>x3:e&#45;&gt;n3:w</title>
<path fill="none" stroke="black" stroke-width="3" d="M4480.09,-248.65C4562.07,-248.65 4580.83,-227.86 4662.59,-221.9 4761.66,-214.68 4786.77,-220.21 4886.09,-221.9 4921.08,-222.5 4932.56,-224.43 4962.6,-224.83"/>
<polygon fill="black" stroke="black" stroke-width="3" points="4959.5,-228.31 4969.52,-224.87 4959.55,-221.31 4959.5,-228.31"/>
</g>
<!-- c33&#45;&gt;c34 -->
<g id="edge103" class="edge">
<title>c33:e&#45;&gt;c34:w</title>
<path fill="none" stroke="black" stroke-width="3" d="M4756.34,-387.15C4767.72,-387.15 4773.03,-387.15 4780.9,-387.15"/>
<polygon fill="black" stroke="black" stroke-width="3" points="4777.8,-390.65 4787.8,-387.15 4777.8,-383.65 4777.8,-390.65"/>
</g>
<!-- x4 -->
<g id="node14" class="node">
<title>x4</title>
<path fill="none" stroke="black" d="M2867.89,-163.4C2867.89,-163.4 2950.64,-163.4 2950.64,-163.4 2956.64,-163.4 2962.64,-169.4 2962.64,-175.4 2962.64,-175.4 2962.64,-200.4 2962.64,-200.4 2962.64,-206.4 2956.64,-212.4 2950.64,-212.4 2950.64,-212.4 2867.89,-212.4 2867.89,-212.4 2861.89,-212.4 2855.89,-206.4 2855.89,-200.4 2855.89,-200.4 2855.89,-175.4 2855.89,-175.4 2855.89,-169.4 2861.89,-163.4 2867.89,-163.4"/>
<text text-anchor="middle" x="2909.27" y="-195.1" font-family="Times,serif" font-size="14.00">2x 31:31 &#45; 18:17</text>
<polyline fill="none" stroke="black" points="2855.89,-187.9 2962.64,-187.9"/>
<text text-anchor="middle" x="2909.27" y="-170.6" font-family="Times,serif" font-size="14.00">16:0 &#45; 16:0</text>
</g>
<!-- x4&#45;&gt;c33 -->
<g id="edge5" class="edge">
<title>x4:e&#45;&gt;c33:w</title>
<path fill="none" stroke="black" stroke-width="3" d="M2975.45,-188.16C3061.02,-191.67 3083.44,-229.9 3175.39,-229.9 3175.39,-229.9 3175.39,-229.9 3618.64,-229.9 3737.33,-229.9 3784.02,-223.32 3877.14,-296.9 3903.97,-318.11 3885.75,-344.44 3913.14,-364.9 3974.3,-410.59 4005.16,-398.9 4081.49,-398.9 4081.49,-398.9 4081.49,-398.9 4449.84,-398.9 4539.97,-398.9 4565.66,-399.13 4649.75,-399.15"/>
<polygon fill="none" stroke="black" stroke-width="3" points="2977.34,-188.2 2971.26,-192.08 2965.35,-187.96 2971.42,-184.08 2977.34,-188.2"/>
<polygon fill="none" stroke="black" stroke-width="3" points="4647.89,-399.15 4653.89,-395.15 4659.89,-399.15 4653.89,-403.15 4647.89,-399.15"/>
</g>
<!-- c34&#45;&gt;n26 -->
<g id="edge97" class="edge">
<title>c34:e&#45;&gt;n26:w</title>
<path fill="none" stroke="black" stroke-width="3" d="M4886.09,-375.15C5034.8,-375.15 4783.28,-699.12 4910.88,-716.2"/>
<polygon fill="black" stroke="black" stroke-width="3" points="4907.36,-719.49 4917.56,-716.62 4907.8,-712.5 4907.36,-719.49"/>
</g>
<!-- n5 -->
<g id="node74" class="node">
<title>n5</title>
<ellipse fill="black" stroke="black" cx="304.84" cy="-442.9" rx="1.8" ry="1.8"/>
</g>
<!-- c35&#45;&gt;n5 -->
<g id="edge104" class="edge">
<title>c35:e&#45;&gt;n5:w</title>
<path fill="none" stroke="black" stroke-width="3" d="M237.59,-443.15C261.8,-443.15 270.55,-442.97 290.17,-442.92"/>
<polygon fill="black" stroke="black" stroke-width="3" points="287.03,-446.42 297.02,-442.91 287.02,-439.42 287.03,-446.42"/>
</g>
<!-- c36&#45;&gt;c47 -->
<g id="edge107" class="edge">
<title>c36:e&#45;&gt;c47:w</title>
<path fill="none" stroke="black" stroke-width="3" d="M1635.54,-235.15C1647.9,-235.15 1652.32,-228.29 1660.34,-224.54"/>
<polygon fill="black" stroke="black" stroke-width="3" points="1658.05,-228.61 1667.1,-223.1 1656.59,-221.76 1658.05,-228.61"/>
</g>
<!-- x5 -->
<g id="node18" class="node">
<title>x5</title>
<path fill="none" stroke="black" d="M1455.29,-274.4C1455.29,-274.4 1493.79,-274.4 1493.79,-274.4 1499.79,-274.4 1505.79,-280.4 1505.79,-286.4 1505.79,-286.4 1505.79,-311.4 1505.79,-311.4 1505.79,-317.4 1499.79,-323.4 1493.79,-323.4 1493.79,-323.4 1455.29,-323.4 1455.29,-323.4 1449.29,-323.4 1443.29,-317.4 1443.29,-311.4 1443.29,-311.4 1443.29,-286.4 1443.29,-286.4 1443.29,-280.4 1449.29,-274.4 1455.29,-274.4"/>
<text text-anchor="middle" x="1474.54" y="-306.1" font-family="Times,serif" font-size="14.00">2:0 &#45; 4:2</text>
<polyline fill="none" stroke="black" points="1443.29,-298.9 1505.79,-298.9"/>
<text text-anchor="middle" x="1474.54" y="-281.6" font-family="Times,serif" font-size="14.00">1:0 &#45; 1:0</text>
</g>
<!-- x5&#45;&gt;c36 -->
<g id="edge6" class="edge">
<title>x5:e&#45;&gt;c36:w</title>
<path fill="none" stroke="black" stroke-width="3" d="M1517.42,-293.75C1525.22,-283.93 1522.35,-262.63 1529.93,-252.59"/>
<polygon fill="none" stroke="black" stroke-width="3" points="1519.24,-292.95 1515.37,-299.04 1508.26,-297.81 1512.13,-291.72 1519.24,-292.95"/>
<polygon fill="none" stroke="black" stroke-width="3" points="1528.43,-253.29 1532.21,-247.15 1539.33,-248.28 1535.55,-254.42 1528.43,-253.29"/>
</g>
<!-- c37 -->
<g id="node19" class="node">
<title>c37</title>
<polygon fill="none" stroke="black" points="470.59,-390.4 470.59,-439.4 562.84,-439.4 562.84,-390.4 470.59,-390.4"/>
<text text-anchor="middle" x="483.47" y="-422.1" font-family="Times,serif" font-size="14.00">A</text>
<polyline fill="none" stroke="black" points="470.59,-414.9 496.34,-414.9"/>
<text text-anchor="middle" x="483.47" y="-397.6" font-family="Times,serif" font-size="14.00">B</text>
<polyline fill="none" stroke="black" points="496.34,-390.4 496.34,-439.4"/>
<text text-anchor="middle" x="516.72" y="-418.1" font-family="Times,serif" font-size="14.00">$59</text>
<text text-anchor="middle" x="516.72" y="-401.6" font-family="Times,serif" font-size="14.00">$xor</text>
<polyline fill="none" stroke="black" points="537.09,-390.4 537.09,-439.4"/>
<text text-anchor="middle" x="549.97" y="-410.1" font-family="Times,serif" font-size="14.00">Y</text>
</g>
<!-- x19 -->
<g id="node41" class="node">
<title>x19</title>
<path fill="none" stroke="black" d="M610.84,-402.4C610.84,-402.4 649.34,-402.4 649.34,-402.4 655.34,-402.4 661.34,-408.4 661.34,-414.4 661.34,-414.4 661.34,-439.4 661.34,-439.4 661.34,-445.4 655.34,-451.4 649.34,-451.4 649.34,-451.4 610.84,-451.4 610.84,-451.4 604.84,-451.4 598.84,-445.4 598.84,-439.4 598.84,-439.4 598.84,-414.4 598.84,-414.4 598.84,-408.4 604.84,-402.4 610.84,-402.4"/>
<text text-anchor="middle" x="630.09" y="-434.1" font-family="Times,serif" font-size="14.00">4:4 &#45; 4:4</text>
<polyline fill="none" stroke="black" points="598.84,-426.9 661.34,-426.9"/>
<text text-anchor="middle" x="630.09" y="-409.6" font-family="Times,serif" font-size="14.00">3:0 &#45; 3:0</text>
</g>
<!-- c37&#45;&gt;x19 -->
<g id="edge111" class="edge">
<title>c37:e&#45;&gt;x19:w</title>
<path fill="none" stroke="black" stroke-width="3" d="M562.84,-415.15C574.22,-415.15 579.53,-414.9 587.39,-414.75"/>
<polygon fill="black" stroke="black" stroke-width="3" points="584.33,-418.28 594.3,-414.69 584.27,-411.28 584.33,-418.28"/>
</g>
<!-- x6 -->
<g id="node20" class="node">
<title>x6</title>
<path fill="none" stroke="black" d="M384.09,-418.9C384.09,-418.9 422.59,-418.9 422.59,-418.9 428.59,-418.9 434.59,-424.9 434.59,-430.9 434.59,-430.9 434.59,-442.9 434.59,-442.9 434.59,-448.9 428.59,-454.9 422.59,-454.9 422.59,-454.9 384.09,-454.9 384.09,-454.9 378.09,-454.9 372.09,-448.9 372.09,-442.9 372.09,-442.9 372.09,-430.9 372.09,-430.9 372.09,-424.9 378.09,-418.9 384.09,-418.9"/>
<text text-anchor="middle" x="403.34" y="-432.1" font-family="Times,serif" font-size="14.00">3:0 &#45; 3:0</text>
</g>
<!-- x6&#45;&gt;c37 -->
<g id="edge7" class="edge">
<title>x6:e&#45;&gt;c37:w</title>
<path fill="none" stroke="black" stroke-width="3" d="M446.95,-434.64C450.85,-433.11 454.06,-431.09 457.92,-429.54"/>
<polygon fill="none" stroke="black" stroke-width="3" points="449.05,-434.26 443.87,-439.27 437.25,-436.42 442.43,-431.4 449.05,-434.26"/>
<polygon fill="none" stroke="black" stroke-width="3" points="456.14,-429.87 461.3,-424.83 467.93,-427.65 462.78,-432.69 456.14,-429.87"/>
</g>
<!-- x7&#45;&gt;c37 -->
<g id="edge8" class="edge">
<title>x7:e&#45;&gt;c37:w</title>
<path fill="none" stroke="black" stroke-width="3" d="M349.01,-398.97C394.37,-399.41 412.35,-402.15 457.73,-402.59"/>
<polygon fill="none" stroke="black" stroke-width="3" points="350.79,-398.97 344.78,-402.95 338.8,-398.92 344.81,-394.95 350.79,-398.97"/>
<polygon fill="none" stroke="black" stroke-width="3" points="455.89,-402.58 461.91,-398.61 467.89,-402.64 461.87,-406.61 455.89,-402.58"/>
</g>
<!-- c38 -->
<g id="node22" class="node">
<title>c38</title>
<polygon fill="none" stroke="black" points="1315.04,-262.4 1315.04,-311.4 1407.29,-311.4 1407.29,-262.4 1315.04,-262.4"/>
<text text-anchor="middle" x="1327.92" y="-294.1" font-family="Times,serif" font-size="14.00">A</text>
<polyline fill="none" stroke="black" points="1315.04,-286.9 1340.79,-286.9"/>
<text text-anchor="middle" x="1327.92" y="-269.6" font-family="Times,serif" font-size="14.00">B</text>
<polyline fill="none" stroke="black" points="1340.79,-262.4 1340.79,-311.4"/>
<text text-anchor="middle" x="1361.17" y="-290.1" font-family="Times,serif" font-size="14.00">$62</text>
<text text-anchor="middle" x="1361.17" y="-273.6" font-family="Times,serif" font-size="14.00">$xor</text>
<polyline fill="none" stroke="black" points="1381.54,-262.4 1381.54,-311.4"/>
<text text-anchor="middle" x="1394.42" y="-282.1" font-family="Times,serif" font-size="14.00">Y</text>
</g>
<!-- c38&#45;&gt;x5 -->
<g id="edge112" class="edge">
<title>c38:e&#45;&gt;x5:w</title>
<path fill="none" stroke="black" stroke-width="3" d="M1407.29,-287.15C1418.67,-287.15 1423.98,-286.9 1431.84,-286.75"/>
<polygon fill="black" stroke="black" stroke-width="3" points="1428.78,-290.28 1438.75,-286.69 1428.72,-283.28 1428.78,-290.28"/>
</g>
<!-- x8 -->
<g id="node23" class="node">
<title>x8</title>
<path fill="none" stroke="black" d="M1228.54,-290.9C1228.54,-290.9 1267.04,-290.9 1267.04,-290.9 1273.04,-290.9 1279.04,-296.9 1279.04,-302.9 1279.04,-302.9 1279.04,-314.9 1279.04,-314.9 1279.04,-320.9 1273.04,-326.9 1267.04,-326.9 1267.04,-326.9 1228.54,-326.9 1228.54,-326.9 1222.54,-326.9 1216.54,-320.9 1216.54,-314.9 1216.54,-314.9 1216.54,-302.9 1216.54,-302.9 1216.54,-296.9 1222.54,-290.9 1228.54,-290.9"/>
<text text-anchor="middle" x="1247.79" y="-304.1" font-family="Times,serif" font-size="14.00">1:0 &#45; 1:0</text>
</g>
<!-- x8&#45;&gt;c38 -->
<g id="edge9" class="edge">
<title>x8:e&#45;&gt;c38:w</title>
<path fill="none" stroke="black" stroke-width="3" d="M1291.4,-306.64C1295.3,-305.11 1298.51,-303.09 1302.37,-301.54"/>
<polygon fill="none" stroke="black" stroke-width="3" points="1293.5,-306.26 1288.32,-311.27 1281.7,-308.42 1286.88,-303.4 1293.5,-306.26"/>
<polygon fill="none" stroke="black" stroke-width="3" points="1300.59,-301.87 1305.75,-296.83 1312.38,-299.65 1307.23,-304.69 1300.59,-301.87"/>
</g>
<!-- x9&#45;&gt;c38 -->
<g id="edge10" class="edge">
<title>x9:e&#45;&gt;c38:w</title>
<path fill="none" stroke="black" stroke-width="3" d="M447.28,-266.87C523.42,-266.41 547.01,-261.9 629.09,-261.9 629.09,-261.9 629.09,-261.9 1179.74,-261.9 1235.54,-261.9 1252.17,-272.78 1302,-274.44"/>
<polygon fill="none" stroke="black" stroke-width="3" points="449.29,-266.86 443.31,-270.88 437.3,-266.9 443.28,-262.88 449.29,-266.86"/>
<polygon fill="none" stroke="black" stroke-width="3" points="1300.34,-274.42 1306.4,-270.51 1312.34,-274.61 1306.27,-278.51 1300.34,-274.42"/>
</g>
<!-- c39 -->
<g id="node25" class="node">
<title>c39</title>
<polygon fill="none" stroke="black" points="2193.04,-410.4 2193.04,-451.4 2284.54,-451.4 2284.54,-410.4 2193.04,-410.4"/>
<text text-anchor="middle" x="2205.92" y="-426.1" font-family="Times,serif" font-size="14.00">A</text>
<polyline fill="none" stroke="black" points="2218.79,-410.4 2218.79,-451.4"/>
<text text-anchor="middle" x="2238.79" y="-434.1" font-family="Times,serif" font-size="14.00">$65</text>
<text text-anchor="middle" x="2238.79" y="-417.6" font-family="Times,serif" font-size="14.00">$not</text>
<polyline fill="none" stroke="black" points="2258.79,-410.4 2258.79,-451.4"/>
<text text-anchor="middle" x="2271.67" y="-426.1" font-family="Times,serif" font-size="14.00">Y</text>
</g>
<!-- c39&#45;&gt;x1 -->
<g id="edge36" class="edge">
<title>c39:e&#45;&gt;x1:w</title>
<path fill="none" stroke="black" stroke-width="3" d="M2284.54,-431.15C2439.64,-431.15 2481.16,-423.06 2630.71,-422.67"/>
<polygon fill="black" stroke="black" stroke-width="3" points="2627.61,-426.17 2637.6,-422.66 2627.6,-419.17 2627.61,-426.17"/>
</g>
<!-- x10&#45;&gt;c39 -->
<g id="edge11" class="edge">
<title>x10:e&#45;&gt;c39:w</title>
<path fill="none" stroke="black" stroke-width="3" d="M2153.73,-397.08C2165.61,-404.12 2168.73,-420.96 2180.62,-427.99"/>
<polygon fill="none" stroke="black" stroke-width="3" points="2155.54,-397.54 2148.74,-399.93 2143.91,-394.57 2150.72,-392.18 2155.54,-397.54"/>
<polygon fill="none" stroke="black" stroke-width="3" points="2178.79,-427.52 2185.6,-425.13 2190.42,-430.49 2183.62,-432.88 2178.79,-427.52"/>
</g>
<!-- x12 -->
<g id="node29" class="node">
<title>x12</title>
<path fill="none" stroke="black" d="M3925.14,-306.4C3925.14,-306.4 3963.64,-306.4 3963.64,-306.4 3969.64,-306.4 3975.64,-312.4 3975.64,-318.4 3975.64,-318.4 3975.64,-343.4 3975.64,-343.4 3975.64,-349.4 3969.64,-355.4 3963.64,-355.4 3963.64,-355.4 3925.14,-355.4 3925.14,-355.4 3919.14,-355.4 3913.14,-349.4 3913.14,-343.4 3913.14,-343.4 3913.14,-318.4 3913.14,-318.4 3913.14,-312.4 3919.14,-306.4 3925.14,-306.4"/>
<text text-anchor="middle" x="3944.39" y="-338.1" font-family="Times,serif" font-size="14.00">4:4 &#45; 4:4</text>
<polyline fill="none" stroke="black" points="3913.14,-330.9 3975.64,-330.9"/>
<text text-anchor="middle" x="3944.39" y="-313.6" font-family="Times,serif" font-size="14.00">3:0 &#45; 3:0</text>
</g>
<!-- c40&#45;&gt;x12 -->
<g id="edge13" class="edge">
<title>c40:e&#45;&gt;x12:w</title>
<path fill="none" stroke="black" stroke-width="3" d="M3889.86,-331.09C3893.46,-331.05 3896.59,-331.01 3900.17,-330.97"/>
<polygon fill="none" stroke="black" stroke-width="3" points="3891.85,-331.08 3885.87,-335.11 3879.85,-331.14 3885.83,-327.11 3891.85,-331.08"/>
<polygon fill="none" stroke="black" stroke-width="3" points="3898.44,-330.98 3904.42,-326.95 3910.44,-330.92 3904.46,-334.95 3898.44,-330.98"/>
</g>
<!-- x11 -->
<g id="node28" class="node">
<title>x11</title>
<path fill="none" stroke="black" d="M3696.89,-337.9C3696.89,-337.9 3735.39,-337.9 3735.39,-337.9 3741.39,-337.9 3747.39,-343.9 3747.39,-349.9 3747.39,-349.9 3747.39,-361.9 3747.39,-361.9 3747.39,-367.9 3741.39,-373.9 3735.39,-373.9 3735.39,-373.9 3696.89,-373.9 3696.89,-373.9 3690.89,-373.9 3684.89,-367.9 3684.89,-361.9 3684.89,-361.9 3684.89,-349.9 3684.89,-349.9 3684.89,-343.9 3690.89,-337.9 3696.89,-337.9"/>
<text text-anchor="middle" x="3716.14" y="-351.1" font-family="Times,serif" font-size="14.00">4:0 &#45; 4:0</text>
</g>
<!-- x11&#45;&gt;c40 -->
<g id="edge12" class="edge">
<title>x11:e&#45;&gt;c40:w</title>
<path fill="none" stroke="black" stroke-width="3" d="M3759.84,-352.95C3763.82,-350.89 3767,-348.15 3770.97,-346.09"/>
<polygon fill="none" stroke="black" stroke-width="3" points="3761.7,-352.51 3756.78,-357.78 3750.02,-355.28 3754.94,-350 3761.7,-352.51"/>
<polygon fill="none" stroke="black" stroke-width="3" points="3769.08,-346.54 3774,-341.27 3780.76,-343.78 3775.84,-349.05 3769.08,-346.54"/>
</g>
<!-- n12 -->
<g id="node67" class="node">
<title>n12</title>
<ellipse fill="black" stroke="black" cx="4151.54" cy="-313.9" rx="1.8" ry="1.8"/>
</g>
<!-- x12&#45;&gt;n12 -->
<g id="edge37" class="edge">
<title>x12:e&#45;&gt;n12:w</title>
<path fill="none" stroke="black" d="M3975.64,-343.15C4037.02,-343.15 4055.77,-362.09 4113.74,-341.9 4128.4,-336.8 4129.83,-323.1 4138.8,-316.96"/>
<polygon fill="black" stroke="black" points="4139.59,-320.37 4148.28,-314.31 4137.71,-313.62 4139.59,-320.37"/>
</g>
<!-- n7 -->
<g id="node75" class="node">
<title>n7</title>
<ellipse fill="black" stroke="black" cx="4013.44" cy="-313.9" rx="1.8" ry="1.8"/>
</g>
<!-- x12&#45;&gt;n7 -->
<g id="edge108" class="edge">
<title>x12:e&#45;&gt;n7:w</title>
<path fill="none" stroke="black" stroke-width="3" d="M3975.64,-318.65C3987.24,-318.65 3992.43,-316.2 4000.42,-314.82"/>
<polygon fill="black" stroke="black" stroke-width="3" points="3997.43,-318.57 4007.12,-314.27 3996.86,-311.6 3997.43,-318.57"/>
</g>
<!-- x14 -->
<g id="node32" class="node">
<title>x14</title>
<path fill="none" stroke="black" d="M5327.59,-224.9C5327.59,-224.9 5366.09,-224.9 5366.09,-224.9 5372.09,-224.9 5378.09,-230.9 5378.09,-236.9 5378.09,-236.9 5378.09,-248.9 5378.09,-248.9 5378.09,-254.9 5372.09,-260.9 5366.09,-260.9 5366.09,-260.9 5327.59,-260.9 5327.59,-260.9 5321.59,-260.9 5315.59,-254.9 5315.59,-248.9 5315.59,-248.9 5315.59,-236.9 5315.59,-236.9 5315.59,-230.9 5321.59,-224.9 5327.59,-224.9"/>
<text text-anchor="middle" x="5346.84" y="-238.1" font-family="Times,serif" font-size="14.00">4:0 &#45; 4:0</text>
</g>
<!-- c41&#45;&gt;x14 -->
<g id="edge15" class="edge">
<title>c41:e&#45;&gt;x14:w</title>
<path fill="none" stroke="black" stroke-width="3" d="M5283.9,-217.04C5291.44,-222.71 5294.67,-233.19 5302.16,-238.92"/>
<polygon fill="none" stroke="black" stroke-width="3" points="5285.61,-217.59 5278.69,-219.59 5274.17,-213.97 5281.1,-211.96 5285.61,-217.59"/>
<polygon fill="none" stroke="black" stroke-width="3" points="5300.59,-238.41 5307.53,-236.44 5312.02,-242.08 5305.08,-244.05 5300.59,-238.41"/>
</g>
<!-- x13 -->
<g id="node31" class="node">
<title>x13</title>
<path fill="none" stroke="black" d="M5087.34,-206.9C5087.34,-206.9 5125.84,-206.9 5125.84,-206.9 5131.84,-206.9 5137.84,-212.9 5137.84,-218.9 5137.84,-218.9 5137.84,-230.9 5137.84,-230.9 5137.84,-236.9 5131.84,-242.9 5125.84,-242.9 5125.84,-242.9 5087.34,-242.9 5087.34,-242.9 5081.34,-242.9 5075.34,-236.9 5075.34,-230.9 5075.34,-230.9 5075.34,-218.9 5075.34,-218.9 5075.34,-212.9 5081.34,-206.9 5087.34,-206.9"/>
<text text-anchor="middle" x="5106.59" y="-220.1" font-family="Times,serif" font-size="14.00">4:0 &#45; 4:0</text>
</g>
<!-- x13&#45;&gt;c41 -->
<g id="edge14" class="edge">
<title>x13:e&#45;&gt;c41:w</title>
<path fill="none" stroke="black" stroke-width="3" d="M5151.89,-224.95C5157.98,-224.99 5162.74,-225.06 5168.84,-225.11"/>
<polygon fill="none" stroke="black" stroke-width="3" points="5153.55,-224.96 5147.53,-228.93 5141.55,-224.91 5147.56,-220.93 5153.55,-224.96"/>
<polygon fill="none" stroke="black" stroke-width="3" points="5167.14,-225.1 5173.15,-221.12 5179.14,-225.14 5173.13,-229.12 5167.14,-225.1"/>
</g>
<!-- x14&#45;&gt;n25 -->
<g id="edge92" class="edge">
<title>x14:e&#45;&gt;n25:w</title>
<path fill="none" stroke="black" stroke-width="3" d="M5379.09,-243.15C5387.22,-243.15 5383.63,-255.46 5378.09,-261.4 5295.54,-350.14 5228.79,-295.9 5107.59,-295.9 4838.22,-295.9 4838.22,-295.9 4838.22,-295.9 4759.91,-295.9 4740.54,-302.47 4662.59,-309.9 4646.57,-311.43 4642.67,-313.01 4626.59,-313.9 4576.95,-316.65 4550.84,-348.07 4514.72,-313.9 4512.72,-312.01 4511.02,-309.29 4509.99,-306.54"/>
<polygon fill="black" stroke="black" stroke-width="3" points="4512.22,-310.78 4512.22,-300.19 4505.61,-308.47 4512.22,-310.78"/>
</g>
<!-- x16 -->
<g id="node35" class="node">
<title>x16</title>
<path fill="none" stroke="black" d="M5327.59,-687.9C5327.59,-687.9 5366.09,-687.9 5366.09,-687.9 5372.09,-687.9 5378.09,-693.9 5378.09,-699.9 5378.09,-699.9 5378.09,-711.9 5378.09,-711.9 5378.09,-717.9 5372.09,-723.9 5366.09,-723.9 5366.09,-723.9 5327.59,-723.9 5327.59,-723.9 5321.59,-723.9 5315.59,-717.9 5315.59,-711.9 5315.59,-711.9 5315.59,-699.9 5315.59,-699.9 5315.59,-693.9 5321.59,-687.9 5327.59,-687.9"/>
<text text-anchor="middle" x="5346.84" y="-701.1" font-family="Times,serif" font-size="14.00">4:0 &#45; 4:0</text>
</g>
<!-- c42&#45;&gt;x16 -->
<g id="edge17" class="edge">
<title>c42:e&#45;&gt;x16:w</title>
<path fill="none" stroke="black" stroke-width="3" d="M5285.82,-705.3C5291.48,-705.43 5295.97,-705.63 5301.64,-705.76"/>
<polygon fill="none" stroke="black" stroke-width="3" points="5287.55,-705.32 5281.5,-709.25 5275.55,-705.18 5281.59,-701.25 5287.55,-705.32"/>
<polygon fill="none" stroke="black" stroke-width="3" points="5299.89,-705.74 5305.93,-701.81 5311.89,-705.87 5305.85,-709.81 5299.89,-705.74"/>
</g>
<!-- x15&#45;&gt;c42 -->
<g id="edge16" class="edge">
<title>x15:e&#45;&gt;c42:w</title>
<path fill="none" stroke="black" stroke-width="3" d="M5151.82,-716.95C5157.48,-717 5161.97,-717.06 5167.64,-717.11"/>
<polygon fill="none" stroke="black" stroke-width="3" points="5153.55,-716.96 5147.53,-720.94 5141.55,-716.91 5147.56,-712.94 5153.55,-716.96"/>
<polygon fill="none" stroke="black" stroke-width="3" points="5165.89,-717.1 5171.9,-713.12 5177.89,-717.14 5171.88,-721.12 5165.89,-717.1"/>
</g>
<!-- x16&#45;&gt;n23 -->
<g id="edge82" class="edge">
<title>x16:e&#45;&gt;n23:w</title>
<path fill="none" stroke="black" stroke-width="3" d="M5379.09,-706.15C5397.05,-706.15 5398.59,-724.41 5409.88,-731.83"/>
<polygon fill="black" stroke="black" stroke-width="3" points="5405.9,-734.34 5416.47,-733.68 5407.79,-727.6 5405.9,-734.34"/>
</g>
<!-- x17 -->
<g id="node37" class="node">
<title>x17</title>
<path fill="none" stroke="black" d="M3272.39,-377.9C3272.39,-377.9 3310.89,-377.9 3310.89,-377.9 3316.89,-377.9 3322.89,-383.9 3322.89,-389.9 3322.89,-389.9 3322.89,-401.9 3322.89,-401.9 3322.89,-407.9 3316.89,-413.9 3310.89,-413.9 3310.89,-413.9 3272.39,-413.9 3272.39,-413.9 3266.39,-413.9 3260.39,-407.9 3260.39,-401.9 3260.39,-401.9 3260.39,-389.9 3260.39,-389.9 3260.39,-383.9 3266.39,-377.9 3272.39,-377.9"/>
<text text-anchor="middle" x="3291.64" y="-391.1" font-family="Times,serif" font-size="14.00">7:0 &#45; 7:0</text>
</g>
<!-- c43&#45;&gt;x17 -->
<g id="edge18" class="edge">
<title>c43:e&#45;&gt;x17:w</title>
<path fill="none" stroke="black" stroke-width="3" d="M3237.12,-396.84C3240.71,-396.65 3243.84,-396.42 3247.42,-396.23"/>
<polygon fill="none" stroke="black" stroke-width="3" points="3239.09,-396.79 3233.19,-400.94 3227.1,-397.09 3232.99,-392.94 3239.09,-396.79"/>
<polygon fill="none" stroke="black" stroke-width="3" points="3245.69,-396.28 3251.59,-392.12 3257.69,-395.97 3251.79,-400.12 3245.69,-396.28"/>
</g>
<!-- x21 -->
<g id="node47" class="node">
<title>x21</title>
<path fill="none" stroke="black" d="M3370.89,-375.9C3370.89,-375.9 3409.39,-375.9 3409.39,-375.9 3415.39,-375.9 3421.39,-381.9 3421.39,-387.9 3421.39,-387.9 3421.39,-399.9 3421.39,-399.9 3421.39,-405.9 3415.39,-411.9 3409.39,-411.9 3409.39,-411.9 3370.89,-411.9 3370.89,-411.9 3364.89,-411.9 3358.89,-405.9 3358.89,-399.9 3358.89,-399.9 3358.89,-387.9 3358.89,-387.9 3358.89,-381.9 3364.89,-375.9 3370.89,-375.9"/>
<text text-anchor="middle" x="3390.14" y="-389.1" font-family="Times,serif" font-size="14.00">7:0 &#45; 7:0</text>
</g>
<!-- x17&#45;&gt;x21 -->
<g id="edge53" class="edge">
<title>x17:e&#45;&gt;x21:w</title>
<path fill="none" stroke="black" stroke-width="3" d="M3322.89,-396.15C3334.28,-396.15 3339.57,-395.14 3347.44,-394.56"/>
<polygon fill="black" stroke="black" stroke-width="3" points="3344.48,-398.16 3354.35,-394.31 3344.24,-391.17 3344.48,-398.16"/>
</g>
<!-- x18 -->
<g id="node39" class="node">
<title>x18</title>
<path fill="none" stroke="black" d="M2219.54,-551.4C2219.54,-551.4 2258.04,-551.4 2258.04,-551.4 2264.04,-551.4 2270.04,-557.4 2270.04,-563.4 2270.04,-563.4 2270.04,-588.4 2270.04,-588.4 2270.04,-594.4 2264.04,-600.4 2258.04,-600.4 2258.04,-600.4 2219.54,-600.4 2219.54,-600.4 2213.54,-600.4 2207.54,-594.4 2207.54,-588.4 2207.54,-588.4 2207.54,-563.4 2207.54,-563.4 2207.54,-557.4 2213.54,-551.4 2219.54,-551.4"/>
<text text-anchor="middle" x="2238.79" y="-583.1" font-family="Times,serif" font-size="14.00">9:8 &#45; 9:8</text>
<polyline fill="none" stroke="black" points="2207.54,-575.9 2270.04,-575.9"/>
<text text-anchor="middle" x="2238.79" y="-558.6" font-family="Times,serif" font-size="14.00">7:0 &#45; 7:0</text>
</g>
<!-- c44&#45;&gt;x18 -->
<g id="edge19" class="edge">
<title>c44:e&#45;&gt;x18:w</title>
<path fill="none" stroke="black" stroke-width="3" d="M2169.86,-572.64C2178.67,-573.36 2184.79,-574.68 2193.58,-575.4"/>
<polygon fill="none" stroke="black" stroke-width="3" points="2171.74,-572.72 2165.59,-576.48 2159.74,-572.26 2165.89,-568.49 2171.74,-572.72"/>
<polygon fill="none" stroke="black" stroke-width="3" points="2191.85,-575.33 2198,-571.57 2203.84,-575.8 2197.69,-579.56 2191.85,-575.33"/>
</g>
<!-- n13 -->
<g id="node68" class="node">
<title>n13</title>
<ellipse fill="black" stroke="black" cx="2322.34" cy="-563.9" rx="1.8" ry="1.8"/>
</g>
<!-- x18&#45;&gt;n13 -->
<g id="edge40" class="edge">
<title>x18:e&#45;&gt;n13:w</title>
<path fill="none" stroke="black" stroke-width="3" d="M2271.04,-563.65C2288.75,-563.65 2295.76,-563.82 2309.29,-563.88"/>
<polygon fill="black" stroke="black" stroke-width="3" points="2305.99,-567.37 2316,-563.89 2306.01,-560.37 2305.99,-567.37"/>
</g>
<!-- n15 -->
<g id="node70" class="node">
<title>n15</title>
<ellipse fill="black" stroke="black" cx="2676.64" cy="-578.9" rx="1.8" ry="1.8"/>
</g>
<!-- x18&#45;&gt;n15 -->
<g id="edge49" class="edge">
<title>x18:e&#45;&gt;n15:w</title>
<path fill="none" stroke="black" stroke-width="3" d="M2271.04,-588.15C2312.14,-588.15 2319.42,-607.35 2360.14,-612.9 2463.96,-627.05 2493.35,-634.42 2595.89,-612.9 2628.67,-606.03 2634.69,-584.43 2662.18,-579.79"/>
<polygon fill="black" stroke="black" stroke-width="3" points="2659.14,-583.54 2668.84,-579.26 2658.59,-576.56 2659.14,-583.54"/>
</g>
<!-- c45&#45;&gt;c46 -->
<g id="edge55" class="edge">
<title>c45:e&#45;&gt;c46:w</title>
<path fill="none" stroke="black" stroke-width="3" d="M782.84,-367.15C796.9,-367.15 799.58,-354.78 807.94,-348.59"/>
<polygon fill="black" stroke="black" stroke-width="3" points="806.03,-352.87 814.51,-346.52 803.92,-346.19 806.03,-352.87"/>
</g>
<!-- x19&#45;&gt;c45 -->
<g id="edge20" class="edge">
<title>x19:e&#45;&gt;c45:w</title>
<path fill="none" stroke="black" stroke-width="3" d="M673.14,-421.43C680.11,-412.21 678.58,-393.73 685.59,-384.57"/>
<polygon fill="none" stroke="black" stroke-width="3" points="674.68,-420.71 670.92,-426.87 663.79,-425.76 667.55,-419.61 674.68,-420.71"/>
<polygon fill="none" stroke="black" stroke-width="3" points="683.99,-385.3 687.76,-379.16 694.88,-380.28 691.11,-386.43 683.99,-385.3"/>
</g>
<!-- x20 -->
<g id="node43" class="node">
<title>x20</title>
<path fill="none" stroke="black" d="M952.34,-308.4C952.34,-308.4 990.84,-308.4 990.84,-308.4 996.84,-308.4 1002.84,-314.4 1002.84,-320.4 1002.84,-320.4 1002.84,-345.4 1002.84,-345.4 1002.84,-351.4 996.84,-357.4 990.84,-357.4 990.84,-357.4 952.34,-357.4 952.34,-357.4 946.34,-357.4 940.34,-351.4 940.34,-345.4 940.34,-345.4 940.34,-320.4 940.34,-320.4 940.34,-314.4 946.34,-308.4 952.34,-308.4"/>
<text text-anchor="middle" x="971.59" y="-340.1" font-family="Times,serif" font-size="14.00">4:2 &#45; 2:0</text>
<polyline fill="none" stroke="black" points="940.34,-332.9 1002.84,-332.9"/>
<text text-anchor="middle" x="971.59" y="-315.6" font-family="Times,serif" font-size="14.00">1:0 &#45; 1:0</text>
</g>
<!-- c46&#45;&gt;x20 -->
<g id="edge21" class="edge">
<title>c46:e&#45;&gt;x20:w</title>
<path fill="none" stroke="black" stroke-width="3" d="M917.06,-333.09C920.66,-333.05 923.79,-333.01 927.37,-332.97"/>
<polygon fill="none" stroke="black" stroke-width="3" points="919.04,-333.08 913.06,-337.11 907.05,-333.14 913.03,-329.11 919.04,-333.08"/>
<polygon fill="none" stroke="black" stroke-width="3" points="925.64,-332.98 931.62,-328.95 937.64,-332.92 931.66,-336.95 925.64,-332.98"/>
</g>
<!-- n10 -->
<g id="node66" class="node">
<title>n10</title>
<ellipse fill="black" stroke="black" cx="1040.64" cy="-346.9" rx="1.8" ry="1.8"/>
</g>
<!-- x20&#45;&gt;n10 -->
<g id="edge33" class="edge">
<title>x20:e&#45;&gt;n10:w</title>
<path fill="none" stroke="black" stroke-width="3" d="M1002.84,-345.15C1014.23,-345.15 1019.52,-346.04 1027.39,-346.55"/>
<polygon fill="black" stroke="black" stroke-width="3" points="1024.2,-349.95 1034.3,-346.76 1024.42,-342.96 1024.2,-349.95"/>
</g>
<!-- n19 -->
<g id="node71" class="node">
<title>n19</title>
<ellipse fill="black" stroke="black" cx="1178.74" cy="-308.9" rx="1.8" ry="1.8"/>
</g>
<!-- x20&#45;&gt;n19 -->
<g id="edge56" class="edge">
<title>x20:e&#45;&gt;n19:w</title>
<path fill="none" stroke="black" stroke-width="3" d="M1002.84,-320.65C1076.46,-320.65 1097.31,-310.07 1165.56,-308.99"/>
<polygon fill="black" stroke="black" stroke-width="3" points="1162.43,-312.52 1172.4,-308.94 1162.37,-305.52 1162.43,-312.52"/>
</g>
<!-- c47&#45;&gt;c48 -->
<g id="edge60" class="edge">
<title>c47:e&#45;&gt;c48:w</title>
<path fill="none" stroke="black" stroke-width="3" d="M1757.04,-210.15C1768.42,-210.15 1773.73,-210.15 1781.59,-210.15"/>
<polygon fill="black" stroke="black" stroke-width="3" points="1778.5,-213.65 1788.5,-210.15 1778.5,-206.65 1778.5,-213.65"/>
</g>
<!-- c48&#45;&gt;n24 -->
<g id="edge84" class="edge">
<title>c48:e&#45;&gt;n24:w</title>
<path fill="none" stroke="black" stroke-width="3" d="M1878.54,-198.15C1932.53,-198.15 1867.8,-305.87 1903.24,-322.7"/>
<polygon fill="black" stroke="black" stroke-width="3" points="1899.6,-325.56 1910.08,-324.04 1900.94,-318.69 1899.6,-325.56"/>
</g>
<!-- x22 -->
<g id="node48" class="node">
<title>x22</title>
<path fill="none" stroke="black" d="M3598.39,-339.9C3598.39,-339.9 3636.89,-339.9 3636.89,-339.9 3642.89,-339.9 3648.89,-345.9 3648.89,-351.9 3648.89,-351.9 3648.89,-363.9 3648.89,-363.9 3648.89,-369.9 3642.89,-375.9 3636.89,-375.9 3636.89,-375.9 3598.39,-375.9 3598.39,-375.9 3592.39,-375.9 3586.39,-369.9 3586.39,-363.9 3586.39,-363.9 3586.39,-351.9 3586.39,-351.9 3586.39,-345.9 3592.39,-339.9 3598.39,-339.9"/>
<text text-anchor="middle" x="3617.64" y="-353.1" font-family="Times,serif" font-size="14.00">7:0 &#45; 7:0</text>
</g>
<!-- c49&#45;&gt;x22 -->
<g id="edge23" class="edge">
<title>c49:e&#45;&gt;x22:w</title>
<path fill="none" stroke="black" stroke-width="3" d="M3563.12,-358.84C3566.71,-358.65 3569.84,-358.42 3573.42,-358.23"/>
<polygon fill="none" stroke="black" stroke-width="3" points="3565.09,-358.79 3559.19,-362.94 3553.1,-359.09 3558.99,-354.94 3565.09,-358.79"/>
<polygon fill="none" stroke="black" stroke-width="3" points="3571.69,-358.28 3577.59,-354.12 3583.69,-357.97 3577.79,-362.12 3571.69,-358.28"/>
</g>
<!-- x21&#45;&gt;c49 -->
<g id="edge22" class="edge">
<title>x21:e&#45;&gt;c49:w</title>
<path fill="none" stroke="black" stroke-width="3" d="M3433.35,-389.52C3437.96,-385.49 3440.83,-379.55 3445.44,-375.53"/>
<polygon fill="none" stroke="black" stroke-width="3" points="3435.2,-388.84 3430.94,-394.66 3423.93,-392.97 3428.19,-387.15 3435.2,-388.84"/>
<polygon fill="none" stroke="black" stroke-width="3" points="3443.58,-376.21 3447.84,-370.39 3454.85,-372.08 3450.59,-377.9 3443.58,-376.21"/>
</g>
<!-- x22&#45;&gt;x11 -->
<g id="edge54" class="edge">
<title>x22:e&#45;&gt;x11:w</title>
<path fill="none" stroke="black" stroke-width="3" d="M3648.89,-358.15C3660.28,-358.15 3665.57,-357.14 3673.44,-356.56"/>
<polygon fill="black" stroke="black" stroke-width="3" points="3670.48,-360.16 3680.35,-356.31 3670.24,-353.17 3670.48,-360.16"/>
</g>
<!-- x23 -->
<g id="node50" class="node">
<title>x23</title>
<path fill="none" stroke="black" d="M2212.79,-133.4C2212.79,-133.4 2264.79,-133.4 2264.79,-133.4 2270.79,-133.4 2276.79,-139.4 2276.79,-145.4 2276.79,-145.4 2276.79,-170.4 2276.79,-170.4 2276.79,-176.4 2270.79,-182.4 2264.79,-182.4 2264.79,-182.4 2212.79,-182.4 2212.79,-182.4 2206.79,-182.4 2200.79,-176.4 2200.79,-170.4 2200.79,-170.4 2200.79,-145.4 2200.79,-145.4 2200.79,-139.4 2206.79,-133.4 2212.79,-133.4"/>
<text text-anchor="middle" x="2238.79" y="-165.1" font-family="Times,serif" font-size="14.00">5:5 &#45; 16:16</text>
<polyline fill="none" stroke="black" points="2200.79,-157.9 2276.79,-157.9"/>
<text text-anchor="middle" x="2238.79" y="-140.6" font-family="Times,serif" font-size="14.00">4:0 &#45; 4:0</text>
</g>
<!-- c50&#45;&gt;x23 -->
<g id="edge24" class="edge">
<title>c50:e&#45;&gt;x23:w</title>
<path fill="none" stroke="black" stroke-width="3" d="M2169.35,-158.11C2175.75,-158.06 2180.65,-157.99 2187.06,-157.95"/>
<polygon fill="none" stroke="black" stroke-width="3" points="2171.25,-158.1 2165.26,-162.12 2159.25,-158.14 2165.23,-154.12 2171.25,-158.1"/>
<polygon fill="none" stroke="black" stroke-width="3" points="2185.09,-157.95 2191.07,-153.93 2197.09,-157.91 2191.1,-161.93 2185.09,-157.95"/>
</g>
<!-- n21 -->
<g id="node72" class="node">
<title>n21</title>
<ellipse fill="black" stroke="black" cx="2322.34" cy="-157.9" rx="1.8" ry="1.8"/>
</g>
<!-- x23&#45;&gt;n21 -->
<g id="edge61" class="edge">
<title>x23:e&#45;&gt;n21:w</title>
<path fill="none" stroke="black" stroke-width="3" d="M2277.79,-145.65C2293.08,-145.65 2298.47,-152.98 2309.27,-156.3"/>
<polygon fill="black" stroke="black" stroke-width="3" points="2305.65,-159.32 2316.05,-157.26 2306.64,-152.39 2305.65,-159.32"/>
</g>
<!-- x23&#45;&gt;n21 -->
<g id="edge62" class="edge">
<title>x23:e&#45;&gt;n21:w</title>
<path fill="none" stroke="black" d="M2277.79,-170.15C2293.08,-170.15 2298.47,-162.83 2309.27,-159.5"/>
<polygon fill="black" stroke="black" points="2309.64,-162.99 2319.04,-158.12 2308.65,-156.06 2309.64,-162.99"/>
</g>
<!-- x25 -->
<g id="node53" class="node">
<title>x25</title>
<path fill="none" stroke="black" d="M2643.89,-98.4C2643.89,-98.4 2709.39,-98.4 2709.39,-98.4 2715.39,-98.4 2721.39,-104.4 2721.39,-110.4 2721.39,-110.4 2721.39,-135.4 2721.39,-135.4 2721.39,-141.4 2715.39,-147.4 2709.39,-147.4 2709.39,-147.4 2643.89,-147.4 2643.89,-147.4 2637.89,-147.4 2631.89,-141.4 2631.89,-135.4 2631.89,-135.4 2631.89,-110.4 2631.89,-110.4 2631.89,-104.4 2637.89,-98.4 2643.89,-98.4"/>
<text text-anchor="middle" x="2676.64" y="-130.1" font-family="Times,serif" font-size="14.00">17:17 &#45; 31:31</text>
<polyline fill="none" stroke="black" points="2631.89,-122.9 2721.39,-122.9"/>
<text text-anchor="middle" x="2676.64" y="-105.6" font-family="Times,serif" font-size="14.00">16:0 &#45; 16:0</text>
</g>
<!-- c51&#45;&gt;x25 -->
<g id="edge26" class="edge">
<title>c51:e&#45;&gt;x25:w</title>
<path fill="none" stroke="black" stroke-width="3" d="M2608.38,-112.34C2612.34,-114.56 2615.47,-117.51 2619.43,-119.73"/>
<polygon fill="none" stroke="black" stroke-width="3" points="2610.14,-112.79 2603.34,-115.18 2598.51,-109.82 2605.32,-107.43 2610.14,-112.79"/>
<polygon fill="none" stroke="black" stroke-width="3" points="2617.64,-119.28 2624.44,-116.88 2629.27,-122.24 2622.47,-124.63 2617.64,-119.28"/>
</g>
<!-- x24 -->
<g id="node52" class="node">
<title>x24</title>
<path fill="none" stroke="black" d="M2372.14,-96.4C2372.14,-96.4 2454.89,-96.4 2454.89,-96.4 2460.89,-96.4 2466.89,-102.4 2466.89,-108.4 2466.89,-108.4 2466.89,-133.4 2466.89,-133.4 2466.89,-139.4 2460.89,-145.4 2454.89,-145.4 2454.89,-145.4 2372.14,-145.4 2372.14,-145.4 2366.14,-145.4 2360.14,-139.4 2360.14,-133.4 2360.14,-133.4 2360.14,-108.4 2360.14,-108.4 2360.14,-102.4 2366.14,-96.4 2372.14,-96.4"/>
<text text-anchor="middle" x="2413.52" y="-128.1" font-family="Times,serif" font-size="14.00">12x 16:16 &#45; 16:5</text>
<polyline fill="none" stroke="black" points="2360.14,-120.9 2466.89,-120.9"/>
<text text-anchor="middle" x="2413.52" y="-103.6" font-family="Times,serif" font-size="14.00">4:0 &#45; 4:0</text>
</g>
<!-- x24&#45;&gt;c51 -->
<g id="edge25" class="edge">
<title>x24:e&#45;&gt;c51:w</title>
<path fill="none" stroke="black" stroke-width="3" d="M2479.61,-120.97C2483.21,-121 2486.34,-121.05 2489.92,-121.09"/>
<polygon fill="none" stroke="black" stroke-width="3" points="2481.6,-120.98 2475.58,-124.95 2469.6,-120.92 2475.62,-116.95 2481.6,-120.98"/>
<polygon fill="none" stroke="black" stroke-width="3" points="2488.19,-121.08 2494.21,-117.11 2500.19,-121.14 2494.17,-125.11 2488.19,-121.08"/>
</g>
<!-- n14 -->
<g id="node69" class="node">
<title>n14</title>
<ellipse fill="black" stroke="black" cx="2788.64" cy="-134.9" rx="1.8" ry="1.8"/>
</g>
<!-- x25&#45;&gt;n14 -->
<g id="edge43" class="edge">
<title>x25:e&#45;&gt;n14:w</title>
<path fill="none" stroke="black" stroke-width="3" d="M2721.39,-110.65C2747.52,-110.65 2753.53,-128.56 2774,-133.6"/>
<polygon fill="black" stroke="black" stroke-width="3" points="2770.52,-136.72 2780.85,-134.39 2771.32,-129.77 2770.52,-136.72"/>
</g>
<!-- x25&#45;&gt;n14 -->
<g id="edge44" class="edge">
<title>x25:e&#45;&gt;n14:w</title>
<path fill="none" stroke="black" d="M2721.39,-135.15C2745.6,-135.15 2754.35,-134.97 2773.97,-134.92"/>
<polygon fill="black" stroke="black" points="2773.85,-138.42 2783.85,-134.91 2773.85,-131.42 2773.85,-138.42"/>
</g>
<!-- x27 -->
<g id="node55" class="node">
<title>x27</title>
<path fill="none" stroke="black" d="M4819.97,-230.9C4819.97,-230.9 4858.47,-230.9 4858.47,-230.9 4864.47,-230.9 4870.47,-236.9 4870.47,-242.9 4870.47,-242.9 4870.47,-254.9 4870.47,-254.9 4870.47,-260.9 4864.47,-266.9 4858.47,-266.9 4858.47,-266.9 4819.97,-266.9 4819.97,-266.9 4813.97,-266.9 4807.97,-260.9 4807.97,-254.9 4807.97,-254.9 4807.97,-242.9 4807.97,-242.9 4807.97,-236.9 4813.97,-230.9 4819.97,-230.9"/>
<text text-anchor="middle" x="4839.22" y="-244.1" font-family="Times,serif" font-size="14.00">2:0 &#45; 7:5</text>
</g>
<!-- x26&#45;&gt;x27 -->
<g id="edge27" class="edge">
<title>x26:e&#45;&gt;x27:w</title>
<path fill="none" stroke="black" stroke-width="3" d="M4754.7,-248.9C4769.89,-248.9 4778.74,-248.9 4793.92,-248.9"/>
<polygon fill="none" stroke="black" stroke-width="3" points="4756.42,-248.9 4750.42,-252.9 4744.42,-248.9 4750.42,-244.9 4756.42,-248.9"/>
<polygon fill="none" stroke="black" stroke-width="3" points="4792.26,-248.9 4798.26,-244.9 4804.26,-248.9 4798.26,-252.9 4792.26,-248.9"/>
</g>
<!-- x27&#45;&gt;n3 -->
<g id="edge100" class="edge">
<title>x27:e&#45;&gt;n3:w</title>
<path fill="none" stroke="black" stroke-width="3" d="M4871.47,-249.15C4914.3,-249.15 4925.4,-228.89 4962.78,-225.41"/>
<polygon fill="black" stroke="black" stroke-width="3" points="4959.7,-229.05 4969.53,-225.11 4959.38,-222.06 4959.7,-229.05"/>
</g>
<!-- x28 -->
<g id="node56" class="node">
<title>x28</title>
<path fill="none" stroke="black" d="M4063.24,-295.9C4063.24,-295.9 4101.74,-295.9 4101.74,-295.9 4107.74,-295.9 4113.74,-301.9 4113.74,-307.9 4113.74,-307.9 4113.74,-319.9 4113.74,-319.9 4113.74,-325.9 4107.74,-331.9 4101.74,-331.9 4101.74,-331.9 4063.24,-331.9 4063.24,-331.9 4057.24,-331.9 4051.24,-325.9 4051.24,-319.9 4051.24,-319.9 4051.24,-307.9 4051.24,-307.9 4051.24,-301.9 4057.24,-295.9 4063.24,-295.9"/>
<text text-anchor="middle" x="4082.49" y="-309.1" font-family="Times,serif" font-size="14.00">3:0 &#45; 3:0</text>
</g>
<!-- x28&#45;&gt;n12 -->
<g id="edge38" class="edge">
<title>x28:e&#45;&gt;n12:w</title>
<path fill="none" stroke="black" stroke-width="3" d="M4113.74,-314.15C4125.12,-314.15 4130.43,-314.03 4138.3,-313.95"/>
<polygon fill="black" stroke="black" stroke-width="3" points="4135.22,-317.47 4145.2,-313.92 4135.19,-310.47 4135.22,-317.47"/>
</g>
<!-- x29 -->
<g id="node57" class="node">
<title>x29</title>
<path fill="none" stroke="black" d="M2867.89,-69.9C2867.89,-69.9 2950.64,-69.9 2950.64,-69.9 2956.64,-69.9 2962.64,-75.9 2962.64,-81.9 2962.64,-81.9 2962.64,-93.9 2962.64,-93.9 2962.64,-99.9 2956.64,-105.9 2950.64,-105.9 2950.64,-105.9 2867.89,-105.9 2867.89,-105.9 2861.89,-105.9 2855.89,-99.9 2855.89,-93.9 2855.89,-93.9 2855.89,-81.9 2855.89,-81.9 2855.89,-75.9 2861.89,-69.9 2867.89,-69.9"/>
<text text-anchor="middle" x="2909.27" y="-83.1" font-family="Times,serif" font-size="14.00">14x 31:31 &#45; 13:0</text>
</g>
<!-- x30 -->
<g id="node58" class="node">
<title>x30</title>
<path fill="none" stroke="black" d="M3016.14,-81.9C3016.14,-81.9 3074.89,-81.9 3074.89,-81.9 3080.89,-81.9 3086.89,-87.9 3086.89,-93.9 3086.89,-93.9 3086.89,-105.9 3086.89,-105.9 3086.89,-111.9 3080.89,-117.9 3074.89,-117.9 3074.89,-117.9 3016.14,-117.9 3016.14,-117.9 3010.14,-117.9 3004.14,-111.9 3004.14,-105.9 3004.14,-105.9 3004.14,-93.9 3004.14,-93.9 3004.14,-87.9 3010.14,-81.9 3016.14,-81.9"/>
<text text-anchor="middle" x="3045.52" y="-95.1" font-family="Times,serif" font-size="14.00">13:0 &#45; 30:17</text>
</g>
<!-- x29&#45;&gt;x30 -->
<g id="edge28" class="edge">
<title>x29:e&#45;&gt;x30:w</title>
<path fill="none" stroke="black" stroke-width="3" d="M2975.43,-90.22C2980.85,-92.34 2984.95,-95.47 2990.37,-97.6"/>
<polygon fill="none" stroke="black" stroke-width="3" points="2977.11,-90.52 2970.49,-93.39 2965.3,-88.38 2971.92,-85.52 2977.11,-90.52"/>
<polygon fill="none" stroke="black" stroke-width="3" points="2988.67,-97.29 2995.29,-94.42 3000.48,-99.42 2993.87,-102.29 2988.67,-97.29"/>
</g>
<!-- x30&#45;&gt;n14 -->
<g id="edge45" class="edge">
<title>x30:e&#45;&gt;n14:w</title>
<path fill="none" stroke="black" stroke-width="3" d="M3087.89,-100.15C3096.02,-100.15 3092.62,-112.64 3086.89,-118.4 3051.15,-154.39 2858.83,-145.4 2796.03,-138.87"/>
<polygon fill="black" stroke="black" stroke-width="3" points="2800.21,-136.69 2789.62,-136.49 2797.77,-143.25 2800.21,-136.69"/>
</g>
<!-- x31 -->
<g id="node59" class="node">
<title>x31</title>
<path fill="none" stroke="black" d="M2392.02,-554.4C2392.02,-554.4 2435.02,-554.4 2435.02,-554.4 2441.02,-554.4 2447.02,-560.4 2447.02,-566.4 2447.02,-566.4 2447.02,-591.4 2447.02,-591.4 2447.02,-597.4 2441.02,-603.4 2435.02,-603.4 2435.02,-603.4 2392.02,-603.4 2392.02,-603.4 2386.02,-603.4 2380.02,-597.4 2380.02,-591.4 2380.02,-591.4 2380.02,-566.4 2380.02,-566.4 2380.02,-560.4 2386.02,-554.4 2392.02,-554.4"/>
<text text-anchor="middle" x="2413.52" y="-586.1" font-family="Times,serif" font-size="14.00">0 &#45;&gt; 14:8</text>
<polyline fill="none" stroke="black" points="2380.02,-578.9 2447.02,-578.9"/>
<text text-anchor="middle" x="2413.52" y="-561.6" font-family="Times,serif" font-size="14.00">7:0 &#45; 7:0</text>
</g>
<!-- x32 -->
<g id="node60" class="node">
<title>x32</title>
<path fill="none" stroke="black" d="M2520.02,-554.4C2520.02,-554.4 2578.77,-554.4 2578.77,-554.4 2584.77,-554.4 2590.77,-560.4 2590.77,-566.4 2590.77,-566.4 2590.77,-591.4 2590.77,-591.4 2590.77,-597.4 2584.77,-603.4 2578.77,-603.4 2578.77,-603.4 2520.02,-603.4 2520.02,-603.4 2514.02,-603.4 2508.02,-597.4 2508.02,-591.4 2508.02,-591.4 2508.02,-566.4 2508.02,-566.4 2508.02,-560.4 2514.02,-554.4 2520.02,-554.4"/>
<text text-anchor="middle" x="2549.39" y="-586.1" font-family="Times,serif" font-size="14.00">14:8 &#45; 16:10</text>
<polyline fill="none" stroke="black" points="2508.02,-578.9 2590.77,-578.9"/>
<text text-anchor="middle" x="2549.39" y="-561.6" font-family="Times,serif" font-size="14.00">7:0 &#45; 7:0</text>
</g>
<!-- x31&#45;&gt;x32 -->
<g id="edge29" class="edge">
<title>x31:e&#45;&gt;x32:w</title>
<path fill="none" stroke="black" stroke-width="3" d="M2460.95,-578.9C2473.66,-578.9 2481.52,-578.9 2494.29,-578.9"/>
<polygon fill="none" stroke="black" stroke-width="3" points="2462.72,-578.9 2456.72,-582.9 2450.72,-578.9 2456.72,-574.9 2462.72,-578.9"/>
<polygon fill="none" stroke="black" stroke-width="3" points="2492.31,-578.9 2498.31,-574.9 2504.31,-578.9 2498.31,-582.9 2492.31,-578.9"/>
</g>
<!-- x32&#45;&gt;n15 -->
<g id="edge50" class="edge">
<title>x32:e&#45;&gt;n15:w</title>
<path fill="none" stroke="black" stroke-width="3" d="M2591.77,-566.65C2624.28,-566.65 2634.46,-576.29 2661.91,-578.47"/>
<polygon fill="black" stroke="black" stroke-width="3" points="2658.7,-581.85 2668.83,-578.73 2658.97,-574.85 2658.7,-581.85"/>
</g>
<!-- x32&#45;&gt;n15 -->
<g id="edge51" class="edge">
<title>x32:e&#45;&gt;n15:w</title>
<path fill="none" stroke="black" stroke-width="3" d="M2591.77,-591.15C2624.28,-591.15 2634.46,-581.52 2661.91,-579.34"/>
<polygon fill="black" stroke="black" stroke-width="3" points="2658.97,-582.95 2668.83,-579.08 2658.7,-575.96 2658.97,-582.95"/>
</g>
<!-- x33 -->
<g id="node61" class="node">
<title>x33</title>
<path fill="none" stroke="black" d="M1090.44,-328.9C1090.44,-328.9 1128.94,-328.9 1128.94,-328.9 1134.94,-328.9 1140.94,-334.9 1140.94,-340.9 1140.94,-340.9 1140.94,-352.9 1140.94,-352.9 1140.94,-358.9 1134.94,-364.9 1128.94,-364.9 1128.94,-364.9 1090.44,-364.9 1090.44,-364.9 1084.44,-364.9 1078.44,-358.9 1078.44,-352.9 1078.44,-352.9 1078.44,-340.9 1078.44,-340.9 1078.44,-334.9 1084.44,-328.9 1090.44,-328.9"/>
<text text-anchor="middle" x="1109.69" y="-342.1" font-family="Times,serif" font-size="14.00">2:0 &#45; 4:2</text>
</g>
<!-- x33&#45;&gt;n19 -->
<g id="edge57" class="edge">
<title>x33:e&#45;&gt;n19:w</title>
<path fill="none" stroke="black" stroke-width="3" d="M1140.94,-347.15C1159.54,-347.15 1156.53,-322.86 1166.36,-313"/>
<polygon fill="black" stroke="black" stroke-width="3" points="1164.64,-317.41 1172.71,-310.54 1162.12,-310.88 1164.64,-317.41"/>
</g>
<!-- x34 -->
<g id="node62" class="node">
<title>x34</title>
<path fill="none" stroke="black" d="M2372.14,-164.9C2372.14,-164.9 2454.89,-164.9 2454.89,-164.9 2460.89,-164.9 2466.89,-170.9 2466.89,-176.9 2466.89,-176.9 2466.89,-188.9 2466.89,-188.9 2466.89,-194.9 2460.89,-200.9 2454.89,-200.9 2454.89,-200.9 2372.14,-200.9 2372.14,-200.9 2366.14,-200.9 2360.14,-194.9 2360.14,-188.9 2360.14,-188.9 2360.14,-176.9 2360.14,-176.9 2360.14,-170.9 2366.14,-164.9 2372.14,-164.9"/>
<text text-anchor="middle" x="2413.52" y="-178.1" font-family="Times,serif" font-size="14.00">11x 16:16 &#45; 10:0</text>
</g>
<!-- x35 -->
<g id="node63" class="node">
<title>x35</title>
<path fill="none" stroke="black" d="M2523.39,-183.9C2523.39,-183.9 2575.39,-183.9 2575.39,-183.9 2581.39,-183.9 2587.39,-189.9 2587.39,-195.9 2587.39,-195.9 2587.39,-207.9 2587.39,-207.9 2587.39,-213.9 2581.39,-219.9 2575.39,-219.9 2575.39,-219.9 2523.39,-219.9 2523.39,-219.9 2517.39,-219.9 2511.39,-213.9 2511.39,-207.9 2511.39,-207.9 2511.39,-195.9 2511.39,-195.9 2511.39,-189.9 2517.39,-183.9 2523.39,-183.9"/>
<text text-anchor="middle" x="2549.39" y="-197.1" font-family="Times,serif" font-size="14.00">10:0 &#45; 15:5</text>
</g>
<!-- x34&#45;&gt;x35 -->
<g id="edge30" class="edge">
<title>x34:e&#45;&gt;x35:w</title>
<path fill="none" stroke="black" stroke-width="3" d="M2479.3,-185.71C2486.34,-189.26 2490.74,-195.35 2497.72,-198.96"/>
<polygon fill="none" stroke="black" stroke-width="3" points="2481.23,-186.14 2474.5,-188.72 2469.53,-183.5 2476.26,-180.92 2481.23,-186.14"/>
<polygon fill="none" stroke="black" stroke-width="3" points="2496.07,-198.58 2502.82,-196.04 2507.76,-201.29 2501.01,-203.83 2496.07,-198.58"/>
</g>
<!-- x35&#45;&gt;n21 -->
<g id="edge63" class="edge">
<title>x35:e&#45;&gt;n21:w</title>
<path fill="none" stroke="black" stroke-width="3" d="M2588.39,-202.15C2596.52,-202.15 2593.29,-214.82 2587.39,-220.4 2562.86,-243.63 2545.15,-221.46 2511.39,-220.4 2444.07,-218.29 2419.74,-242.29 2360.14,-210.9 2339.95,-200.27 2309.13,-174.85 2309.17,-163.52"/>
<polygon fill="black" stroke="black" stroke-width="3" points="2308.15,-168.12 2315.11,-160.14 2304.69,-162.04 2308.15,-168.12"/>
</g>
<!-- x37 -->
<g id="node65" class="node">
<title>x37</title>
<path fill="none" stroke="black" d="M5320.84,-745.9C5320.84,-745.9 5372.84,-745.9 5372.84,-745.9 5378.84,-745.9 5384.84,-751.9 5384.84,-757.9 5384.84,-757.9 5384.84,-769.9 5384.84,-769.9 5384.84,-775.9 5378.84,-781.9 5372.84,-781.9 5372.84,-781.9 5320.84,-781.9 5320.84,-781.9 5314.84,-781.9 5308.84,-775.9 5308.84,-769.9 5308.84,-769.9 5308.84,-757.9 5308.84,-757.9 5308.84,-751.9 5314.84,-745.9 5320.84,-745.9"/>
<text text-anchor="middle" x="5346.84" y="-759.1" font-family="Times,serif" font-size="14.00">13:0 &#45; 18:5</text>
</g>
<!-- x36&#45;&gt;x37 -->
<g id="edge31" class="edge">
<title>x36:e&#45;&gt;x37:w</title>
<path fill="none" stroke="black" stroke-width="3" d="M5157.29,-771.82C5216.02,-771.02 5237.41,-764.79 5296.15,-763.99"/>
<polygon fill="none" stroke="black" stroke-width="3" points="5159.3,-771.81 5153.32,-775.85 5147.3,-771.89 5153.27,-767.85 5159.3,-771.81"/>
<polygon fill="none" stroke="black" stroke-width="3" points="5294.14,-764 5300.11,-759.96 5306.14,-763.92 5300.17,-767.96 5294.14,-764"/>
</g>
<!-- x37&#45;&gt;n23 -->
<g id="edge83" class="edge">
<title>x37:e&#45;&gt;n23:w</title>
<path fill="none" stroke="black" stroke-width="3" d="M5384.84,-764.15C5400.79,-764.15 5401.27,-746.66 5410.21,-738.73"/>
<polygon fill="black" stroke="black" stroke-width="3" points="5408.35,-743.12 5416.57,-736.44 5405.98,-736.53 5408.35,-743.12"/>
</g>
<!-- n10&#45;&gt;x5 -->
<g id="edge35" class="edge">
<title>n10:e&#45;&gt;x5:w</title>
<path fill="none" stroke="black" stroke-width="3" d="M1042.44,-346.9C1062.71,-346.9 1059.97,-366.54 1078.44,-374.9 1119.38,-393.43 1132.81,-393.9 1177.74,-393.9 1177.74,-393.9 1177.74,-393.9 1248.79,-393.9 1269.85,-393.9 1390.59,-327.4 1432.29,-313.63"/>
<polygon fill="black" stroke="black" stroke-width="3" points="1429.87,-317.76 1438.86,-312.15 1428.34,-310.93 1429.87,-317.76"/>
</g>
<!-- n10&#45;&gt;x33 -->
<g id="edge34" class="edge">
<title>n10:e&#45;&gt;x33:w</title>
<path fill="none" stroke="black" stroke-width="3" d="M1042.44,-346.9C1053.82,-346.9 1059.13,-346.9 1066.99,-346.9"/>
<polygon fill="black" stroke="black" stroke-width="3" points="1063.9,-350.4 1073.9,-346.9 1063.9,-343.4 1063.9,-350.4"/>
</g>
<!-- n12&#45;&gt;x2 -->
<g id="edge39" class="edge">
<title>n12:e&#45;&gt;x2:w</title>
<path fill="none" stroke="black" d="M4153.34,-313.9C4167.07,-313.9 4170.16,-302.65 4178.57,-297.03"/>
<polygon fill="black" stroke="black" points="4179.26,-300.47 4187.89,-294.32 4177.31,-293.75 4179.26,-300.47"/>
</g>
<!-- n13&#45;&gt;x0 -->
<g id="edge41" class="edge">
<title>n13:e&#45;&gt;x0:w</title>
<path fill="none" stroke="black" stroke-width="3" d="M2324.14,-563.9C2342.23,-563.9 2342.67,-549.61 2360.14,-544.9 2527.01,-499.93 2578.44,-527.38 2745.92,-528.61"/>
<polygon fill="black" stroke="black" stroke-width="3" points="2742.84,-532.1 2752.85,-528.64 2742.86,-525.1 2742.84,-532.1"/>
</g>
<!-- n13&#45;&gt;x31 -->
<g id="edge42" class="edge">
<title>n13:e&#45;&gt;x31:w</title>
<path fill="none" stroke="black" stroke-width="3" d="M2324.14,-563.9C2344.36,-563.9 2351.98,-565.79 2367.87,-566.44"/>
<polygon fill="black" stroke="black" stroke-width="3" points="2364.41,-569.87 2374.48,-566.57 2364.55,-562.87 2364.41,-569.87"/>
</g>
<!-- n14&#45;&gt;x4 -->
<g id="edge47" class="edge">
<title>n14:e&#45;&gt;x4:w</title>
<path fill="none" stroke="black" stroke-width="3" d="M2791.92,-134.9C2821.28,-134.9 2822.45,-165.82 2844.55,-173.8"/>
<polygon fill="black" stroke="black" stroke-width="3" points="2840.98,-176.76 2851.41,-174.92 2842.11,-169.85 2840.98,-176.76"/>
</g>
<!-- n14&#45;&gt;x4 -->
<g id="edge48" class="edge">
<title>n14:e&#45;&gt;x4:w</title>
<path fill="none" stroke="black" stroke-width="3" d="M2791.92,-134.9C2828.25,-134.9 2818.28,-187.12 2844.84,-198.13"/>
<polygon fill="black" stroke="black" stroke-width="3" points="2840.96,-200.98 2851.43,-199.34 2842.22,-194.09 2840.96,-200.98"/>
</g>
<!-- n14&#45;&gt;x29 -->
<g id="edge46" class="edge">
<title>n14:e&#45;&gt;x29:w</title>
<path fill="none" stroke="black" stroke-width="3" d="M2791.92,-134.9C2822.87,-134.9 2821.63,-98.79 2844.78,-90.04"/>
<polygon fill="black" stroke="black" stroke-width="3" points="2842.14,-94.04 2851.42,-88.92 2840.97,-87.14 2842.14,-94.04"/>
</g>
<!-- n15&#45;&gt;x0 -->
<g id="edge52" class="edge">
<title>n15:e&#45;&gt;x0:w</title>
<path fill="none" stroke="black" stroke-width="3" d="M2679.92,-578.9C2712.09,-578.9 2719.59,-558.66 2746.18,-554.07"/>
<polygon fill="black" stroke="black" stroke-width="3" points="2743.18,-557.83 2752.87,-553.52 2742.61,-550.85 2743.18,-557.83"/>
</g>
<!-- n19&#45;&gt;x8 -->
<g id="edge58" class="edge">
<title>n19:e&#45;&gt;x8:w</title>
<path fill="none" stroke="black" stroke-width="3" d="M1180.54,-308.9C1191.92,-308.9 1197.23,-309.03 1205.09,-309.1"/>
<polygon fill="black" stroke="black" stroke-width="3" points="1201.98,-312.59 1212,-309.13 1202.02,-305.59 1201.98,-312.59"/>
</g>
<!-- n21&#45;&gt;x24 -->
<g id="edge64" class="edge">
<title>n21:e&#45;&gt;x24:w</title>
<path fill="none" stroke="black" stroke-width="3" d="M2324.14,-157.9C2346.6,-157.9 2337.95,-124.13 2349.72,-112.52"/>
<polygon fill="black" stroke="black" stroke-width="3" points="2347.73,-116.99 2355.88,-110.23 2345.29,-110.43 2347.73,-116.99"/>
</g>
<!-- n21&#45;&gt;x24 -->
<g id="edge65" class="edge">
<title>n21:e&#45;&gt;x24:w</title>
<path fill="none" stroke="black" stroke-width="3" d="M2324.14,-157.9C2338.86,-157.9 2340.79,-143.69 2349.32,-136.81"/>
<polygon fill="black" stroke="black" stroke-width="3" points="2347.48,-141.12 2355.84,-134.6 2345.25,-134.49 2347.48,-141.12"/>
</g>
<!-- n21&#45;&gt;x34 -->
<g id="edge66" class="edge">
<title>n21:e&#45;&gt;x34:w</title>
<path fill="none" stroke="black" stroke-width="3" d="M2324.14,-157.9C2338.95,-157.9 2340.77,-172.4 2349.28,-179.43"/>
<polygon fill="black" stroke="black" stroke-width="3" points="2345.25,-181.75 2355.85,-181.68 2347.52,-175.12 2345.25,-181.75"/>
</g>
<!-- n3&#45;&gt;x13 -->
<g id="edge102" class="edge">
<title>n3:e&#45;&gt;x13:w</title>
<path fill="none" stroke="black" stroke-width="3" d="M4980.62,-224.9C5018.21,-224.9 5030.36,-225.11 5062.98,-225.15"/>
<polygon fill="black" stroke="black" stroke-width="3" points="5059.8,-228.64 5069.8,-225.15 5059.81,-221.64 5059.8,-228.64"/>
</g>
<!-- n5&#45;&gt;x6 -->
<g id="edge106" class="edge">
<title>n5:e&#45;&gt;x6:w</title>
<path fill="none" stroke="black" stroke-width="3" d="M308.12,-442.9C332.43,-442.9 341.02,-438.73 360.67,-437.5"/>
<polygon fill="black" stroke="black" stroke-width="3" points="357.66,-441.09 367.55,-437.29 357.45,-434.09 357.66,-441.09"/>
</g>
<!-- n5&#45;&gt;x19 -->
<g id="edge105" class="edge">
<title>n5:e&#45;&gt;x19:w</title>
<path fill="none" stroke="black" d="M308.12,-442.9C338.19,-442.9 342.44,-459.95 372.09,-464.9 456,-478.93 479.37,-465.33 562.84,-448.9 574.53,-446.6 579.45,-442.57 587.45,-440.49"/>
<polygon fill="black" stroke="black" points="587.81,-443.97 597.34,-439.33 587,-437.02 587.81,-443.97"/>
</g>
<!-- n7&#45;&gt;x2 -->
<g id="edge110" class="edge">
<title>n7:e&#45;&gt;x2:w</title>
<path fill="none" stroke="black" stroke-width="3" d="M4015.24,-313.9C4035.24,-313.9 4032.7,-294.41 4051.24,-286.9 4104.89,-265.18 4124.88,-268.79 4177.89,-269.34"/>
<polygon fill="black" stroke="black" stroke-width="3" points="4174.78,-272.82 4184.8,-269.38 4174.82,-265.82 4174.78,-272.82"/>
</g>
<!-- n7&#45;&gt;x28 -->
<g id="edge109" class="edge">
<title>n7:e&#45;&gt;x28:w</title>
<path fill="none" stroke="black" stroke-width="3" d="M4015.24,-313.9C4026.62,-313.9 4031.93,-313.9 4039.8,-313.9"/>
<polygon fill="black" stroke="black" stroke-width="3" points="4036.7,-317.4 4046.7,-313.9 4036.7,-310.4 4036.7,-317.4"/>
</g>
</g>
</svg>
